<?xml version="1.0" encoding="UTF-8" standalone="no"?>
<!DOCTYPE svg PUBLIC "-//W3C//DTD SVG 1.1//EN"
 "http://www.w3.org/Graphics/SVG/1.1/DTD/svg11.dtd">
<!-- Generated by graphviz version 8.1.0 (20230707.0739)
 -->
<!-- Title: Slic3r::ExtrusionPath::total_volume Pages: 1 -->
<svg width="513pt" height="39pt"
 viewBox="0.00 0.00 513.00 38.50" xmlns="http://www.w3.org/2000/svg" xmlns:xlink="http://www.w3.org/1999/xlink">
<g id="graph0" class="graph" transform="scale(1 1) rotate(0) translate(4 34.5)">
<title>Slic3r::ExtrusionPath::total_volume</title>
<!-- Node1 -->
<g id="Node000001" class="node">
<title>Node1</title>
<g id="a_Node000001"><a xlink:title=" ">
<polygon fill="#999999" stroke="#666666" points="108.25,-30.5 0,-30.5 0,0 108.25,0 108.25,-30.5"/>
<text text-anchor="start" x="8" y="-17" font-family="Helvetica,sans-Serif" font-size="10.00">Slic3r::ExtrusionPath</text>
<text text-anchor="middle" x="54.12" y="-5.75" font-family="Helvetica,sans-Serif" font-size="10.00">::total_volume</text>
</a>
</g>
</g>
<!-- Node2 -->
<g id="Node000002" class="node">
<title>Node2</title>
<g id="a_Node000002"><a xlink:href="../../d7/dbc/class_slic3r_1_1_extrusion_path.html#adf724190ee8c48a0a68eb9de3073d00a" target="_top" xlink:title=" ">
<polygon fill="white" stroke="#666666" points="252.5,-30.5 144.25,-30.5 144.25,0 252.5,0 252.5,-30.5"/>
<text text-anchor="start" x="152.25" y="-17" font-family="Helvetica,sans-Serif" font-size="10.00">Slic3r::ExtrusionPath</text>
<text text-anchor="middle" x="198.38" y="-5.75" font-family="Helvetica,sans-Serif" font-size="10.00">::length</text>
</a>
</g>
</g>
<!-- Node1&#45;&gt;Node2 -->
<g id="edge1_Node000001_Node000002" class="edge">
<title>Node1&#45;&gt;Node2</title>
<g id="a_edge1_Node000001_Node000002"><a xlink:title=" ">
<path fill="none" stroke="#63b8ff" d="M108.5,-15.25C116.61,-15.25 125.05,-15.25 133.36,-15.25"/>
<polygon fill="#63b8ff" stroke="#63b8ff" points="133.18,-18.75 143.18,-15.25 133.18,-11.75 133.18,-18.75"/>
</a>
</g>
</g>
<!-- Node3 -->
<g id="Node000003" class="node">
<title>Node3</title>
<g id="a_Node000003"><a xlink:href="../../d7/dd1/class_slic3r_1_1_multi_point.html#a0703c46c976d482b39140c55dc10eee6" target="_top" xlink:title=" ">
<polygon fill="white" stroke="#666666" points="378.75,-30.5 288.5,-30.5 288.5,0 378.75,0 378.75,-30.5"/>
<text text-anchor="start" x="296.5" y="-17" font-family="Helvetica,sans-Serif" font-size="10.00">Slic3r::MultiPoint</text>
<text text-anchor="middle" x="333.62" y="-5.75" font-family="Helvetica,sans-Serif" font-size="10.00">::length</text>
</a>
</g>
</g>
<!-- Node2&#45;&gt;Node3 -->
<g id="edge2_Node000002_Node000003" class="edge">
<title>Node2&#45;&gt;Node3</title>
<g id="a_edge2_Node000002_Node000003"><a xlink:title=" ">
<path fill="none" stroke="#63b8ff" d="M252.81,-15.25C260.87,-15.25 269.2,-15.25 277.3,-15.25"/>
<polygon fill="#63b8ff" stroke="#63b8ff" points="277.16,-18.75 287.16,-15.25 277.16,-11.75 277.16,-18.75"/>
</a>
</g>
</g>
<!-- Node4 -->
<g id="Node000004" class="node">
<title>Node4</title>
<g id="a_Node000004"><a xlink:href="../../d7/dd1/class_slic3r_1_1_multi_point.html#ae9e8896b13f8eead951628834c72e0f1" target="_top" xlink:title=" ">
<polygon fill="white" stroke="#666666" points="505,-30.5 414.75,-30.5 414.75,0 505,0 505,-30.5"/>
<text text-anchor="start" x="422.75" y="-17" font-family="Helvetica,sans-Serif" font-size="10.00">Slic3r::MultiPoint</text>
<text text-anchor="middle" x="459.88" y="-5.75" font-family="Helvetica,sans-Serif" font-size="10.00">::lines</text>
</a>
</g>
</g>
<!-- Node3&#45;&gt;Node4 -->
<g id="edge3_Node000003_Node000004" class="edge">
<title>Node3&#45;&gt;Node4</title>
<g id="a_edge3_Node000003_Node000004"><a xlink:title=" ">
<path fill="none" stroke="#63b8ff" d="M379.13,-15.25C386.98,-15.25 395.24,-15.25 403.35,-15.25"/>
<polygon fill="#63b8ff" stroke="#63b8ff" points="403.26,-18.75 413.26,-15.25 403.26,-11.75 403.26,-18.75"/>
</a>
</g>
</g>
</g>
</svg>
