<?xml version="1.0" encoding="UTF-8" standalone="no"?>
<!DOCTYPE svg PUBLIC "-//W3C//DTD SVG 1.1//EN"
 "http://www.w3.org/Graphics/SVG/1.1/DTD/svg11.dtd">
<!-- Generated by graphviz version 8.1.0 (20230707.0739)
 -->
<!-- Title: hid_read Pages: 1 -->
<svg width="517pt" height="82pt"
 viewBox="0.00 0.00 517.00 82.25" xmlns="http://www.w3.org/2000/svg" xmlns:xlink="http://www.w3.org/1999/xlink">
<g id="graph0" class="graph" transform="scale(1 1) rotate(0) translate(4 78.25)">
<title>hid_read</title>
<!-- Node1 -->
<g id="Node000001" class="node">
<title>Node1</title>
<g id="a_Node000001"><a xlink:title="Read an Input report from a HID device.">
<polygon fill="#999999" stroke="#666666" points="52.75,-38.25 0,-38.25 0,-19 52.75,-19 52.75,-38.25"/>
<text text-anchor="middle" x="26.38" y="-24.75" font-family="Helvetica,sans-Serif" font-size="10.00">hid_read</text>
</a>
</g>
</g>
<!-- Node2 -->
<g id="Node000002" class="node">
<title>Node2</title>
<g id="a_Node000002"><a xlink:href="../../d4/dc7/group___a_p_i.html#gaa5c9ed5aa290688ffac03343989ad75a" target="_top" xlink:title="Read an Input report from a HID device with timeout.">
<polygon fill="white" stroke="#666666" points="179,-19.25 88.75,-19.25 88.75,0 179,0 179,-19.25"/>
<text text-anchor="middle" x="133.88" y="-5.75" font-family="Helvetica,sans-Serif" font-size="10.00">hid_read_timeout</text>
</a>
</g>
</g>
<!-- Node1&#45;&gt;Node2 -->
<g id="edge1_Node000001_Node000002" class="edge">
<title>Node1&#45;&gt;Node2</title>
<g id="a_edge1_Node000001_Node000002"><a xlink:title=" ">
<path fill="none" stroke="#63b8ff" d="M53.18,-23.98C60.65,-22.63 69.09,-21.11 77.63,-19.57"/>
<polygon fill="#63b8ff" stroke="#63b8ff" points="78.2,-22.85 87.42,-17.63 76.95,-15.96 78.2,-22.85"/>
</a>
</g>
</g>
<!-- Node3 -->
<g id="Node000003" class="node">
<title>Node3</title>
<g id="a_Node000003"><a xlink:href="../../df/db1/math_8h.html#a3a54064875b1b215da4904e90278a089" target="_top" xlink:title=" ">
<polygon fill="white" stroke="#666666" points="272.62,-56.25 230.38,-56.25 230.38,-37 272.62,-37 272.62,-56.25"/>
<text text-anchor="middle" x="251.5" y="-42.75" font-family="Helvetica,sans-Serif" font-size="10.00">length</text>
</a>
</g>
</g>
<!-- Node1&#45;&gt;Node3 -->
<g id="edge7_Node000001_Node000003" class="edge">
<title>Node1&#45;&gt;Node3</title>
<g id="a_edge7_Node000001_Node000003"><a xlink:title=" ">
<path fill="none" stroke="#63b8ff" d="M52.97,-30.69C94.14,-34.01 174.95,-40.53 219.39,-44.12"/>
<polygon fill="#63b8ff" stroke="#63b8ff" points="218.87,-47.67 229.12,-44.98 219.43,-40.69 218.87,-47.67"/>
</a>
</g>
</g>
<!-- Node2&#45;&gt;Node3 -->
<g id="edge2_Node000002_Node000003" class="edge">
<title>Node2&#45;&gt;Node3</title>
<g id="a_edge2_Node000002_Node000003"><a xlink:title=" ">
<path fill="none" stroke="#63b8ff" d="M166.47,-19.74C183.03,-25.04 203.24,-31.5 219.69,-36.77"/>
<polygon fill="#63b8ff" stroke="#63b8ff" points="218.29,-40.31 228.88,-40.03 220.42,-33.64 218.29,-40.31"/>
</a>
</g>
</g>
<!-- Node7 -->
<g id="Node000007" class="node">
<title>Node7</title>
<g id="a_Node000007"><a xlink:href="../../da/de4/win_2hid_8c.html#a9c79ade7b74461d062148f08055780a7" target="_top" xlink:title=" ">
<polygon fill="white" stroke="#666666" points="288,-19.25 215,-19.25 215,0 288,0 288,-19.25"/>
<text text-anchor="middle" x="251.5" y="-5.75" font-family="Helvetica,sans-Serif" font-size="10.00">register_error</text>
</a>
</g>
</g>
<!-- Node2&#45;&gt;Node7 -->
<g id="edge6_Node000002_Node000007" class="edge">
<title>Node2&#45;&gt;Node7</title>
<g id="a_edge6_Node000002_Node000007"><a xlink:title=" ">
<path fill="none" stroke="#63b8ff" d="M179.25,-9.62C187.3,-9.62 195.73,-9.62 203.85,-9.62"/>
<polygon fill="#63b8ff" stroke="#63b8ff" points="203.67,-13.13 213.67,-9.62 203.67,-6.13 203.67,-13.13"/>
</a>
</g>
</g>
<!-- Node4 -->
<g id="Node000004" class="node">
<title>Node4</title>
<g id="a_Node000004"><a xlink:href="../../dd/d2d/math_8cpp.html#af4fb32373387854416da6c38850971b2" target="_top" xlink:title=" ">
<polygon fill="white" stroke="#666666" points="398.5,-74.25 331.5,-74.25 331.5,-55 398.5,-55 398.5,-74.25"/>
<text text-anchor="middle" x="365" y="-60.75" font-family="Helvetica,sans-Serif" font-size="10.00">square_root</text>
</a>
</g>
</g>
<!-- Node3&#45;&gt;Node4 -->
<g id="edge3_Node000003_Node000004" class="edge">
<title>Node3&#45;&gt;Node4</title>
<g id="a_edge3_Node000003_Node000004"><a xlink:title=" ">
<path fill="none" stroke="#63b8ff" d="M272.95,-49.93C286.36,-52.09 304.4,-55 320.88,-57.66"/>
<polygon fill="#63b8ff" stroke="#63b8ff" points="319.99,-61.23 330.42,-59.37 321.11,-54.32 319.99,-61.23"/>
</a>
</g>
</g>
<!-- Node5 -->
<g id="Node000005" class="node">
<title>Node5</title>
<g id="a_Node000005"><a xlink:href="../../df/db1/math_8h.html#a5ac9a8399d477c88e7ab2e9e406015c6" target="_top" xlink:title=" ">
<polygon fill="white" stroke="#666666" points="406,-37.25 324,-37.25 324,-18 406,-18 406,-37.25"/>
<text text-anchor="middle" x="365" y="-23.75" font-family="Helvetica,sans-Serif" font-size="10.00">squared_length</text>
</a>
</g>
</g>
<!-- Node3&#45;&gt;Node5 -->
<g id="edge4_Node000003_Node000005" class="edge">
<title>Node3&#45;&gt;Node5</title>
<g id="a_edge4_Node000003_Node000005"><a xlink:title=" ">
<path fill="none" stroke="#63b8ff" d="M272.95,-43.14C284.27,-41.21 298.9,-38.72 313.1,-36.3"/>
<polygon fill="#63b8ff" stroke="#63b8ff" points="313.54,-39.6 322.81,-34.47 312.36,-32.7 313.54,-39.6"/>
</a>
</g>
</g>
<!-- Node6 -->
<g id="Node000006" class="node">
<title>Node6</title>
<g id="a_Node000006"><a xlink:href="../../df/db1/math_8h.html#a0b6cff67f1f57a1096b42782cf5397da" target="_top" xlink:title=" ">
<polygon fill="white" stroke="#666666" points="509,-37.25 442,-37.25 442,-18 509,-18 509,-37.25"/>
<text text-anchor="middle" x="475.5" y="-23.75" font-family="Helvetica,sans-Serif" font-size="10.00">dot_product</text>
</a>
</g>
</g>
<!-- Node5&#45;&gt;Node6 -->
<g id="edge5_Node000005_Node000006" class="edge">
<title>Node5&#45;&gt;Node6</title>
<g id="a_edge5_Node000005_Node000006"><a xlink:title=" ">
<path fill="none" stroke="#63b8ff" d="M406.4,-27.62C414.26,-27.62 422.54,-27.62 430.51,-27.62"/>
<polygon fill="#63b8ff" stroke="#63b8ff" points="430.5,-31.13 440.5,-27.62 430.5,-24.13 430.5,-31.13"/>
</a>
</g>
</g>
</g>
</svg>
