<?xml version="1.0" encoding="UTF-8" standalone="no"?>
<!DOCTYPE svg PUBLIC "-//W3C//DTD SVG 1.1//EN"
 "http://www.w3.org/Graphics/SVG/1.1/DTD/svg11.dtd">
<!-- Generated by graphviz version 8.1.0 (20230707.0739)
 -->
<!-- Title: Slic3r::SLAPrintObject::get_mesh_to_slice Pages: 1 -->
<svg width="303pt" height="98pt"
 viewBox="0.00 0.00 302.50 98.12" xmlns="http://www.w3.org/2000/svg" xmlns:xlink="http://www.w3.org/1999/xlink">
<g id="graph0" class="graph" transform="scale(1 1) rotate(0) translate(4 94.12)">
<title>Slic3r::SLAPrintObject::get_mesh_to_slice</title>
<!-- Node1 -->
<g id="Node000001" class="node">
<title>Node1</title>
<g id="a_Node000001"><a xlink:title=" ">
<polygon fill="#999999" stroke="#666666" points="294.5,-57.5 180.25,-57.5 180.25,-27 294.5,-27 294.5,-57.5"/>
<text text-anchor="start" x="188.25" y="-44" font-family="Helvetica,sans-Serif" font-size="10.00">Slic3r::SLAPrintObject</text>
<text text-anchor="middle" x="237.38" y="-32.75" font-family="Helvetica,sans-Serif" font-size="10.00">::get_mesh_to_slice</text>
</a>
</g>
</g>
<!-- Node2 -->
<g id="Node000002" class="node">
<title>Node2</title>
<g id="a_Node000002"><a xlink:href="../../d9/d37/class_slic3r_1_1_g_u_i_1_1_common_gizmos_data_objects_1_1_hollowed_mesh.html#adf8c6ea80590676f836de5840f9d5526" target="_top" xlink:title=" ">
<polygon fill="white" stroke="#666666" points="144.25,-90.12 0,-90.12 0,-48.38 144.25,-48.38 144.25,-90.12"/>
<text text-anchor="start" x="8" y="-76.62" font-family="Helvetica,sans-Serif" font-size="10.00">Slic3r::GUI::CommonGizmos</text>
<text text-anchor="start" x="8" y="-65.38" font-family="Helvetica,sans-Serif" font-size="10.00">DataObjects::HollowedMesh</text>
<text text-anchor="middle" x="72.12" y="-54.12" font-family="Helvetica,sans-Serif" font-size="10.00">::on_update</text>
</a>
</g>
</g>
<!-- Node1&#45;&gt;Node2 -->
<g id="edge1_Node000001_Node000002" class="edge">
<title>Node1&#45;&gt;Node2</title>
<g id="a_edge1_Node000001_Node000002"><a xlink:title=" ">
<path fill="none" stroke="#63b8ff" d="M169.56,-53.3C161.36,-54.66 152.96,-56.05 144.69,-57.41"/>
<polygon fill="#63b8ff" stroke="#63b8ff" points="169.9,-56.63 179.19,-51.54 168.76,-49.72 169.9,-56.63"/>
</a>
</g>
</g>
<!-- Node3 -->
<g id="Node000003" class="node">
<title>Node3</title>
<g id="a_Node000003"><a xlink:href="../../d6/da3/class_slic3r_1_1_s_l_a_print_1_1_steps.html#a179a990ac34a7afa407aae80882d2b59" target="_top" xlink:title=" ">
<polygon fill="white" stroke="#666666" points="130.75,-30.5 13.5,-30.5 13.5,0 130.75,0 130.75,-30.5"/>
<text text-anchor="start" x="21.5" y="-17" font-family="Helvetica,sans-Serif" font-size="10.00">Slic3r::SLAPrint::Steps</text>
<text text-anchor="middle" x="72.12" y="-5.75" font-family="Helvetica,sans-Serif" font-size="10.00">::slice_model</text>
</a>
</g>
</g>
<!-- Node1&#45;&gt;Node3 -->
<g id="edge2_Node000001_Node000003" class="edge">
<title>Node1&#45;&gt;Node3</title>
<g id="a_edge2_Node000001_Node000003"><a xlink:title=" ">
<path fill="none" stroke="#63b8ff" d="M169.61,-31.21C156.83,-29.09 143.55,-26.9 131.08,-24.83"/>
<polygon fill="#63b8ff" stroke="#63b8ff" points="168.76,-34.78 179.19,-32.96 169.9,-27.87 168.76,-34.78"/>
</a>
</g>
</g>
</g>
</svg>
