<?xml version="1.0" encoding="UTF-8" standalone="no"?>
<!DOCTYPE svg PUBLIC "-//W3C//DTD SVG 1.1//EN"
 "http://www.w3.org/Graphics/SVG/1.1/DTD/svg11.dtd">
<!-- Generated by graphviz version 8.1.0 (20230707.0739)
 -->
<!-- Title: connected_component_t Pages: 1 -->
<svg width="1867pt" height="675pt"
 viewBox="0.00 0.00 1866.55 674.84" xmlns="http://www.w3.org/2000/svg" xmlns:xlink="http://www.w3.org/1999/xlink">
<g id="graph0" class="graph" transform="scale(1 1) rotate(0) translate(4 670.84)">
<title>connected_component_t</title>
<!-- Node1 -->
<g id="Node000001" class="node">
<title>Node1</title>
<g id="a_Node000001"><a xlink:title=" ">
<polygon fill="#999999" stroke="#666666" points="1858.55,-177.21 1736.05,-177.21 1736.05,-157.96 1858.55,-157.96 1858.55,-177.21"/>
<text text-anchor="middle" x="1797.3" y="-163.71" font-family="Helvetica,sans-Serif" font-size="10.00">connected_component_t</text>
</a>
</g>
</g>
<!-- Node2 -->
<g id="Node000002" class="node">
<title>Node2</title>
<g id="a_Node000002"><a xlink:title=" ">
<polygon fill="white" stroke="#666666" points="1612.3,-242.84 1495.05,-242.84 1495.05,-212.34 1612.3,-212.34 1612.3,-242.84"/>
<text text-anchor="start" x="1503.05" y="-229.34" font-family="Helvetica,sans-Serif" font-size="10.00">std::shared_ptr&lt; output</text>
<text text-anchor="middle" x="1553.68" y="-218.09" font-family="Helvetica,sans-Serif" font-size="10.00">_mesh_info_t &gt;</text>
</a>
</g>
</g>
<!-- Node2&#45;&gt;Node1 -->
<g id="edge1_Node000001_Node000002" class="edge">
<title>Node2&#45;&gt;Node1</title>
<g id="a_edge1_Node000001_Node000002"><a xlink:title=" ">
<path fill="none" stroke="#9a32cd" stroke-dasharray="5,2" d="M1623.16,-210.58C1665.86,-199.98 1719.39,-186.69 1755.53,-177.71"/>
<polygon fill="#9a32cd" stroke="#9a32cd" points="1622.41,-207.41 1613.55,-213.21 1624.1,-214.2 1622.41,-207.41"/>
</a>
</g>
<text text-anchor="middle" x="1674.18" y="-210.34" font-family="Helvetica,sans-Serif" font-size="10.00" fill="grey"> kernel_hmesh_data</text>
</g>
<!-- Node3 -->
<g id="Node000003" class="node">
<title>Node3</title>
<g id="a_Node000003"><a xlink:href="../../d5/d50/mcut_2include_2mcut_2internal_2kernel_8h.html#de/de4/structoutput__mesh__info__t" target="_top" xlink:title=" ">
<polygon fill="white" stroke="#666666" points="1348.8,-302.21 1247.3,-302.21 1247.3,-282.96 1348.8,-282.96 1348.8,-302.21"/>
<text text-anchor="middle" x="1298.05" y="-288.71" font-family="Helvetica,sans-Serif" font-size="10.00">output_mesh_info_t</text>
</a>
</g>
</g>
<!-- Node3&#45;&gt;Node2 -->
<g id="edge2_Node000002_Node000003" class="edge">
<title>Node3&#45;&gt;Node2</title>
<g id="a_edge2_Node000002_Node000003"><a xlink:title=" ">
<path fill="none" stroke="#9a32cd" stroke-dasharray="5,2" d="M1348.92,-279.81C1390.84,-269.06 1450.81,-253.69 1494.83,-242.41"/>
<polygon fill="#9a32cd" stroke="#9a32cd" points="1348.22,-276.63 1339.4,-282.5 1349.96,-283.41 1348.22,-276.63"/>
</a>
</g>
<text text-anchor="middle" x="1421.93" y="-277.34" font-family="Helvetica,sans-Serif" font-size="10.00" fill="grey"> ptr</text>
</g>
<!-- Node4 -->
<g id="Node000004" class="node">
<title>Node4</title>
<g id="a_Node000004"><a xlink:title=" ">
<polygon fill="white" stroke="#666666" points="1087.55,-324.21 950.8,-324.21 950.8,-304.96 1087.55,-304.96 1087.55,-324.21"/>
<text text-anchor="middle" x="1019.18" y="-310.71" font-family="Helvetica,sans-Serif" font-size="10.00">std::shared_ptr&lt; hmesh_t &gt;</text>
</a>
</g>
</g>
<!-- Node4&#45;&gt;Node3 -->
<g id="edge3_Node000003_Node000004" class="edge">
<title>Node4&#45;&gt;Node3</title>
<g id="a_edge3_Node000003_Node000004"><a xlink:title=" ">
<path fill="none" stroke="#9a32cd" stroke-dasharray="5,2" d="M1098.8,-308.34C1146.4,-304.56 1205.67,-299.85 1246.95,-296.57"/>
<polygon fill="#9a32cd" stroke="#9a32cd" points="1098.6,-304.92 1088.91,-309.2 1099.15,-311.9 1098.6,-304.92"/>
</a>
</g>
<text text-anchor="middle" x="1176.05" y="-307.34" font-family="Helvetica,sans-Serif" font-size="10.00" fill="grey"> mesh</text>
</g>
<!-- Node5 -->
<g id="Node000005" class="node">
<title>Node5</title>
<g id="a_Node000005"><a xlink:href="../../d7/d63/classhmesh__t.html" target="_top" xlink:title=" ">
<polygon fill="white" stroke="#666666" points="759.18,-463.21 705.68,-463.21 705.68,-443.96 759.18,-443.96 759.18,-463.21"/>
<text text-anchor="middle" x="732.43" y="-449.71" font-family="Helvetica,sans-Serif" font-size="10.00">hmesh_t</text>
</a>
</g>
</g>
<!-- Node5&#45;&gt;Node4 -->
<g id="edge4_Node000004_Node000005" class="edge">
<title>Node5&#45;&gt;Node4</title>
<g id="a_edge4_Node000004_Node000005"><a xlink:title=" ">
<path fill="none" stroke="#9a32cd" stroke-dasharray="5,2" d="M765,-439.09C801.44,-422.26 863.11,-393.5 915.55,-367.59 945.03,-353.02 978.86,-335.36 999.36,-324.56"/>
<polygon fill="#9a32cd" stroke="#9a32cd" points="764.03,-436.15 756.41,-443.51 766.96,-442.5 764.03,-436.15"/>
</a>
</g>
<text text-anchor="middle" x="866.43" y="-414.34" font-family="Helvetica,sans-Serif" font-size="10.00" fill="grey"> ptr</text>
</g>
<!-- Node6 -->
<g id="Node000006" class="node">
<title>Node6</title>
<g id="a_Node000006"><a xlink:title=" ">
<polygon fill="#fff0f0" stroke="red" points="484.93,-613.84 386.43,-613.84 386.43,-583.34 484.93,-583.34 484.93,-613.84"/>
<text text-anchor="start" x="394.43" y="-600.34" font-family="Helvetica,sans-Serif" font-size="10.00">std::vector&lt; vertex</text>
<text text-anchor="middle" x="435.68" y="-589.09" font-family="Helvetica,sans-Serif" font-size="10.00">_data_t &gt;</text>
</a>
</g>
</g>
<!-- Node6&#45;&gt;Node5 -->
<g id="edge5_Node000005_Node000006" class="edge">
<title>Node6&#45;&gt;Node5</title>
<g id="a_edge5_Node000005_Node000006"><a xlink:title=" ">
<path fill="none" stroke="#9a32cd" stroke-dasharray="5,2" d="M496.31,-599.78C540.9,-598.1 601.79,-590.14 647.55,-562.59 668.41,-550.02 709.29,-488.27 725.03,-463.7"/>
<polygon fill="#9a32cd" stroke="#9a32cd" points="496.25,-596.31 486.35,-600.08 496.44,-603.3 496.25,-596.31"/>
</a>
</g>
<text text-anchor="middle" x="590.05" y="-598.34" font-family="Helvetica,sans-Serif" font-size="10.00" fill="grey"> m_vertices</text>
</g>
<!-- Node16 -->
<g id="Node000016" class="node">
<title>Node16</title>
<g id="a_Node000016"><a xlink:title=" ">
<polygon fill="white" stroke="#666666" points="200.43,-461.21 113.93,-461.21 113.93,-441.96 200.43,-441.96 200.43,-461.21"/>
<text text-anchor="middle" x="157.18" y="-447.71" font-family="Helvetica,sans-Serif" font-size="10.00">std::vector&lt; T &gt;</text>
</a>
</g>
</g>
<!-- Node16&#45;&gt;Node6 -->
<g id="edge6_Node000006_Node000016" class="edge">
<title>Node16&#45;&gt;Node6</title>
<g id="a_edge6_Node000006_Node000016"><a xlink:title=" ">
<path fill="none" stroke="orange" stroke-dasharray="5,2" d="M164.46,-471.91C173.47,-497.44 192.63,-540.57 224.8,-562.59 272.7,-595.36 340.79,-601.48 386.28,-601.3"/>
<polygon fill="orange" stroke="orange" points="167.49,-470.94 161.02,-462.55 160.85,-473.15 167.49,-470.94"/>
</a>
</g>
<text text-anchor="middle" x="281.8" y="-600.34" font-family="Helvetica,sans-Serif" font-size="10.00" fill="grey"> &lt; vertex_data_t &gt;</text>
</g>
<!-- Node18 -->
<g id="Node000018" class="node">
<title>Node18</title>
<g id="a_Node000018"><a xlink:title=" ">
<polygon fill="#fff0f0" stroke="red" points="502.55,-565.21 368.8,-565.21 368.8,-545.96 502.55,-545.96 502.55,-565.21"/>
<text text-anchor="middle" x="435.68" y="-551.71" font-family="Helvetica,sans-Serif" font-size="10.00">std::vector&lt; edge_data_t &gt;</text>
</a>
</g>
</g>
<!-- Node16&#45;&gt;Node18 -->
<g id="edge9_Node000018_Node000016" class="edge">
<title>Node16&#45;&gt;Node18</title>
<g id="a_edge9_Node000018_Node000016"><a xlink:title=" ">
<path fill="none" stroke="orange" stroke-dasharray="5,2" d="M172.22,-470.01C184.47,-484.72 203.56,-504.61 224.8,-515.59 269.45,-538.65 325.64,-548.51 368.63,-552.67"/>
<polygon fill="orange" stroke="orange" points="174.51,-468.27 165.52,-462.66 169.04,-472.65 174.51,-468.27"/>
</a>
</g>
<text text-anchor="middle" x="281.8" y="-549.34" font-family="Helvetica,sans-Serif" font-size="10.00" fill="grey"> &lt; edge_data_t &gt;</text>
</g>
<!-- Node21 -->
<g id="Node000021" class="node">
<title>Node21</title>
<g id="a_Node000021"><a xlink:title=" ">
<polygon fill="#fff0f0" stroke="red" points="489.8,-527.84 381.55,-527.84 381.55,-497.34 489.8,-497.34 489.8,-527.84"/>
<text text-anchor="start" x="389.55" y="-514.34" font-family="Helvetica,sans-Serif" font-size="10.00">std::vector&lt; halfedge</text>
<text text-anchor="middle" x="435.68" y="-503.09" font-family="Helvetica,sans-Serif" font-size="10.00">_data_t &gt;</text>
</a>
</g>
</g>
<!-- Node16&#45;&gt;Node21 -->
<g id="edge11_Node000021_Node000016" class="edge">
<title>Node16&#45;&gt;Node21</title>
<g id="a_edge11_Node000021_Node000016"><a xlink:title=" ">
<path fill="none" stroke="orange" stroke-dasharray="5,2" d="M190.76,-465.85C201.45,-470.11 213.49,-474.47 224.8,-477.59 277.15,-492 338.58,-501.4 381.4,-506.79"/>
<polygon fill="orange" stroke="orange" points="192.18,-462.24 181.6,-461.68 189.52,-468.72 192.18,-462.24"/>
</a>
</g>
<text text-anchor="middle" x="281.8" y="-502.34" font-family="Helvetica,sans-Serif" font-size="10.00" fill="grey"> &lt; halfedge_data_t &gt;</text>
</g>
<!-- Node30 -->
<g id="Node000030" class="node">
<title>Node30</title>
<g id="a_Node000030"><a xlink:title=" ">
<polygon fill="#fff0f0" stroke="red" points="501.43,-479.21 369.93,-479.21 369.93,-459.96 501.43,-459.96 501.43,-479.21"/>
<text text-anchor="middle" x="435.68" y="-465.71" font-family="Helvetica,sans-Serif" font-size="10.00">std::vector&lt; face_data_t &gt;</text>
</a>
</g>
</g>
<!-- Node16&#45;&gt;Node30 -->
<g id="edge13_Node000030_Node000016" class="edge">
<title>Node16&#45;&gt;Node30</title>
<g id="a_edge13_Node000030_Node000016"><a xlink:title=" ">
<path fill="none" stroke="orange" stroke-dasharray="5,2" d="M211.51,-455.06C256.64,-458 321.48,-462.22 369.64,-465.35"/>
<polygon fill="orange" stroke="orange" points="211.98,-451.52 201.77,-454.36 211.52,-458.5 211.98,-451.52"/>
</a>
</g>
<text text-anchor="middle" x="281.8" y="-464.34" font-family="Helvetica,sans-Serif" font-size="10.00" fill="grey"> &lt; face_data_t &gt;</text>
</g>
<!-- Node33 -->
<g id="Node000033" class="node">
<title>Node33</title>
<g id="a_Node000033"><a xlink:title=" ">
<polygon fill="white" stroke="#666666" points="513.43,-289.21 357.93,-289.21 357.93,-269.96 513.43,-269.96 513.43,-289.21"/>
<text text-anchor="middle" x="435.68" y="-275.71" font-family="Helvetica,sans-Serif" font-size="10.00">std::vector&lt; face_descriptor_t &gt;</text>
</a>
</g>
</g>
<!-- Node16&#45;&gt;Node33 -->
<g id="edge16_Node000033_Node000016" class="edge">
<title>Node16&#45;&gt;Node33</title>
<g id="a_edge16_Node000033_Node000016"><a xlink:title=" ">
<path fill="none" stroke="orange" stroke-dasharray="5,2" d="M159.15,-430.92C162.17,-393.42 174.49,-314.88 224.8,-280.34 278.27,-243.63 358.85,-257.6 402.99,-269.53"/>
<polygon fill="orange" stroke="orange" points="155.62,-430.34 158.46,-440.54 162.6,-430.79 155.62,-430.34"/>
</a>
</g>
<text text-anchor="middle" x="281.8" y="-281.34" font-family="Helvetica,sans-Serif" font-size="10.00" fill="grey"> &lt; face_descriptor_t &gt;</text>
</g>
<!-- Node34 -->
<g id="Node000034" class="node">
<title>Node34</title>
<g id="a_Node000034"><a xlink:title=" ">
<polygon fill="#fff0f0" stroke="red" points="514.55,-442.21 356.8,-442.21 356.8,-422.96 514.55,-422.96 514.55,-442.21"/>
<text text-anchor="middle" x="435.68" y="-428.71" font-family="Helvetica,sans-Serif" font-size="10.00">std::vector&lt; edge_descriptor_t &gt;</text>
</a>
</g>
</g>
<!-- Node16&#45;&gt;Node34 -->
<g id="edge18_Node000034_Node000016" class="edge">
<title>Node16&#45;&gt;Node34</title>
<g id="a_edge18_Node000034_Node000016"><a xlink:title=" ">
<path fill="none" stroke="orange" stroke-dasharray="5,2" d="M211.3,-441.98C215.86,-441.35 220.4,-440.79 224.8,-440.34 268.33,-435.88 317.16,-433.9 356.76,-433.05"/>
<polygon fill="orange" stroke="orange" points="211.09,-438.62 201.71,-443.55 212.12,-445.54 211.09,-438.62"/>
</a>
</g>
<text text-anchor="middle" x="281.8" y="-441.34" font-family="Helvetica,sans-Serif" font-size="10.00" fill="grey"> &lt; edge_descriptor_t &gt;</text>
</g>
<!-- Node12 -->
<g id="Node000012" class="node">
<title>Node12</title>
<g id="a_Node000012"><a xlink:title=" ">
<polygon fill="#fff0f0" stroke="red" points="489.8,-404.84 381.55,-404.84 381.55,-374.34 489.8,-374.34 489.8,-404.84"/>
<text text-anchor="start" x="389.55" y="-391.34" font-family="Helvetica,sans-Serif" font-size="10.00">std::vector&lt; halfedge</text>
<text text-anchor="middle" x="435.68" y="-380.09" font-family="Helvetica,sans-Serif" font-size="10.00">_descriptor_t &gt;</text>
</a>
</g>
</g>
<!-- Node16&#45;&gt;Node12 -->
<g id="edge20_Node000012_Node000016" class="edge">
<title>Node16&#45;&gt;Node12</title>
<g id="a_edge20_Node000012_Node000016"><a xlink:title=" ">
<path fill="none" stroke="orange" stroke-dasharray="5,2" d="M183.36,-436.03C195.47,-429.25 210.45,-421.83 224.8,-417.34 276.54,-401.15 338.33,-394.41 381.41,-391.59"/>
<polygon fill="orange" stroke="orange" points="181.82,-433.46 174.93,-441.51 185.34,-439.51 181.82,-433.46"/>
</a>
</g>
<text text-anchor="middle" x="281.8" y="-418.34" font-family="Helvetica,sans-Serif" font-size="10.00" fill="grey"> &lt; halfedge_descriptor_t &gt;</text>
</g>
<!-- Node35 -->
<g id="Node000035" class="node">
<title>Node35</title>
<g id="a_Node000035"><a xlink:title=" ">
<polygon fill="white" stroke="#666666" points="484.93,-355.84 386.43,-355.84 386.43,-325.34 484.93,-325.34 484.93,-355.84"/>
<text text-anchor="start" x="394.43" y="-342.34" font-family="Helvetica,sans-Serif" font-size="10.00">std::vector&lt; vertex</text>
<text text-anchor="middle" x="435.68" y="-331.09" font-family="Helvetica,sans-Serif" font-size="10.00">_descriptor_t &gt;</text>
</a>
</g>
</g>
<!-- Node16&#45;&gt;Node35 -->
<g id="edge23_Node000035_Node000016" class="edge">
<title>Node16&#45;&gt;Node35</title>
<g id="a_edge23_Node000035_Node000016"><a xlink:title=" ">
<path fill="none" stroke="orange" stroke-dasharray="5,2" d="M170.37,-432.57C182.19,-415.8 201.7,-392.08 224.8,-379.34 275.08,-351.59 341.42,-343.24 385.93,-340.96"/>
<polygon fill="orange" stroke="orange" points="167.03,-430.27 164.33,-440.52 172.83,-434.19 167.03,-430.27"/>
</a>
</g>
<text text-anchor="middle" x="281.8" y="-380.34" font-family="Helvetica,sans-Serif" font-size="10.00" fill="grey"> &lt; vertex_descriptor_t &gt;</text>
</g>
<!-- Node44 -->
<g id="Node000044" class="node">
<title>Node44</title>
<g id="a_Node000044"><a xlink:title=" ">
<polygon fill="white" stroke="#666666" points="647.55,-640.21 532.55,-640.21 532.55,-620.96 647.55,-620.96 647.55,-640.21"/>
<text text-anchor="middle" x="590.05" y="-626.71" font-family="Helvetica,sans-Serif" font-size="10.00">std::vector&lt; uint32_t &gt;</text>
</a>
</g>
</g>
<!-- Node16&#45;&gt;Node44 -->
<g id="edge45_Node000044_Node000016" class="edge">
<title>Node16&#45;&gt;Node44</title>
<g id="a_edge45_Node000044_Node000016"><a xlink:title=" ">
<path fill="none" stroke="orange" stroke-dasharray="5,2" d="M159.91,-472.31C164.11,-507.89 178.23,-580.03 224.8,-613.59 324.45,-685.38 482.25,-658.12 552.84,-640.71"/>
<polygon fill="orange" stroke="orange" points="163.29,-471.96 158.8,-462.37 156.33,-472.67 163.29,-471.96"/>
</a>
</g>
<text text-anchor="middle" x="281.8" y="-657.34" font-family="Helvetica,sans-Serif" font-size="10.00" fill="grey"> &lt; uint32_t &gt;</text>
</g>
<!-- Node17 -->
<g id="Node000017" class="node">
<title>Node17</title>
<g id="a_Node000017"><a xlink:title=" ">
<polygon fill="white" stroke="#666666" points="28.8,-111.21 0,-111.21 0,-91.96 28.8,-91.96 28.8,-111.21"/>
<text text-anchor="middle" x="14.4" y="-97.71" font-family="Helvetica,sans-Serif" font-size="10.00">T</text>
</a>
</g>
</g>
<!-- Node17&#45;&gt;Node16 -->
<g id="edge7_Node000016_Node000017" class="edge">
<title>Node17&#45;&gt;Node16</title>
<g id="a_edge7_Node000016_Node000017"><a xlink:title=" ">
<path fill="none" stroke="#9a32cd" stroke-dasharray="5,2" d="M23.44,-121.59C49.82,-187.17 133.1,-394.22 152.23,-441.78"/>
<polygon fill="#9a32cd" stroke="#9a32cd" points="26.44,-120.65 19.46,-112.68 19.95,-123.27 26.44,-120.65"/>
</a>
</g>
<text text-anchor="middle" x="68.18" y="-278.34" font-family="Helvetica,sans-Serif" font-size="10.00" fill="grey"> elements</text>
</g>
<!-- Node36 -->
<g id="Node000036" class="node">
<title>Node36</title>
<g id="a_Node000036"><a xlink:title=" ">
<polygon fill="white" stroke="#666666" points="785.05,-235.21 679.8,-235.21 679.8,-215.96 785.05,-215.96 785.05,-235.21"/>
<text text-anchor="middle" x="732.43" y="-221.71" font-family="Helvetica,sans-Serif" font-size="10.00">std::shared_ptr&lt; T &gt;</text>
</a>
</g>
</g>
<!-- Node17&#45;&gt;Node36 -->
<g id="edge25_Node000036_Node000017" class="edge">
<title>Node17&#45;&gt;Node36</title>
<g id="a_edge25_Node000036_Node000017"><a xlink:title=" ">
<path fill="none" stroke="#9a32cd" stroke-dasharray="5,2" d="M39.5,-104.51C75.94,-109.11 147.14,-118.87 206.8,-131.59 266.25,-144.26 293.28,-127.05 338.8,-167.34 354.7,-181.41 339.41,-199.41 356.8,-211.59 407.38,-247.01 588.8,-237.61 679.31,-230.37"/>
<polygon fill="#9a32cd" stroke="#9a32cd" points="40.31,-100.95 29.95,-103.19 39.44,-107.9 40.31,-100.95"/>
</a>
</g>
<text text-anchor="middle" x="281.8" y="-169.34" font-family="Helvetica,sans-Serif" font-size="10.00" fill="grey"> ptr</text>
</g>
<!-- Node40 -->
<g id="Node000040" class="node">
<title>Node40</title>
<g id="a_Node000040"><a xlink:title=" ">
<polygon fill="white" stroke="#666666" points="486.8,-54.84 384.55,-54.84 384.55,-24.34 486.8,-24.34 486.8,-54.84"/>
<text text-anchor="start" x="392.55" y="-41.34" font-family="Helvetica,sans-Serif" font-size="10.00">std::unordered_map</text>
<text text-anchor="middle" x="435.68" y="-30.09" font-family="Helvetica,sans-Serif" font-size="10.00">&lt; K, T &gt;</text>
</a>
</g>
</g>
<!-- Node17&#45;&gt;Node40 -->
<g id="edge36_Node000040_Node000017" class="edge">
<title>Node17&#45;&gt;Node40</title>
<g id="a_edge36_Node000040_Node000017"><a xlink:title=" ">
<path fill="none" stroke="#9a32cd" stroke-dasharray="5,2" d="M39.2,-90.28C41.73,-89.28 44.3,-88.36 46.8,-87.59 73.02,-79.44 80.39,-80.37 107.55,-76.34 205.06,-61.85 319.69,-50.2 384.09,-44.14"/>
<polygon fill="#9a32cd" stroke="#9a32cd" points="37.99,-87.42 30.19,-94.59 40.76,-93.85 37.99,-87.42"/>
</a>
</g>
<text text-anchor="middle" x="157.18" y="-78.34" font-family="Helvetica,sans-Serif" font-size="10.00" fill="grey"> elements</text>
</g>
<!-- Node18&#45;&gt;Node5 -->
<g id="edge8_Node000005_Node000018" class="edge">
<title>Node18&#45;&gt;Node5</title>
<g id="a_edge8_Node000005_Node000018"><a xlink:title=" ">
<path fill="none" stroke="#9a32cd" stroke-dasharray="5,2" d="M513.51,-551.08C554.67,-546.48 605.43,-537.22 647.55,-518.59 678.21,-505.02 707.67,-477.89 722.14,-463.34"/>
<polygon fill="#9a32cd" stroke="#9a32cd" points="513.3,-547.69 503.72,-552.21 514.03,-554.65 513.3,-547.69"/>
</a>
</g>
<text text-anchor="middle" x="590.05" y="-549.34" font-family="Helvetica,sans-Serif" font-size="10.00" fill="grey"> m_edges</text>
</g>
<!-- Node21&#45;&gt;Node5 -->
<g id="edge10_Node000005_Node000021" class="edge">
<title>Node21&#45;&gt;Node5</title>
<g id="a_edge10_Node000005_Node000021"><a xlink:title=" ">
<path fill="none" stroke="#9a32cd" stroke-dasharray="5,2" d="M501.09,-507.77C543.21,-503.71 599.18,-496.58 647.55,-484.59 668.65,-479.36 691.75,-470.58 708.36,-463.69"/>
<polygon fill="#9a32cd" stroke="#9a32cd" points="500.78,-504.38 491.15,-508.79 501.43,-511.35 500.78,-504.38"/>
</a>
</g>
<text text-anchor="middle" x="590.05" y="-505.34" font-family="Helvetica,sans-Serif" font-size="10.00" fill="grey"> m_halfedges</text>
</g>
<!-- Node30&#45;&gt;Node5 -->
<g id="edge12_Node000005_Node000030" class="edge">
<title>Node30&#45;&gt;Node5</title>
<g id="a_edge12_Node000005_Node000030"><a xlink:title=" ">
<path fill="none" stroke="#9a32cd" stroke-dasharray="5,2" d="M512.64,-470.4C552.81,-470.26 602.92,-469.19 647.55,-465.59 667.05,-464.01 688.93,-460.83 705.45,-458.14"/>
<polygon fill="#9a32cd" stroke="#9a32cd" points="512.84,-466.9 502.85,-470.42 512.86,-473.9 512.84,-466.9"/>
</a>
</g>
<text text-anchor="middle" x="590.05" y="-471.34" font-family="Helvetica,sans-Serif" font-size="10.00" fill="grey"> m_faces</text>
</g>
<!-- Node33&#45;&gt;Node5 -->
<g id="edge14_Node000005_Node000033" class="edge">
<title>Node33&#45;&gt;Node5</title>
<g id="a_edge14_Node000005_Node000033"><a xlink:title=" ">
<path fill="none" stroke="#9a32cd" stroke-dasharray="5,2" d="M486.86,-292.36C540.48,-306.64 621.3,-330.12 647.55,-348.34 685.37,-374.57 714.65,-422.76 726.14,-443.57"/>
<polygon fill="#9a32cd" stroke="#9a32cd" points="488.09,-288.8 477.53,-289.64 486.3,-295.57 488.09,-288.8"/>
</a>
</g>
<text text-anchor="middle" x="590.05" y="-349.34" font-family="Helvetica,sans-Serif" font-size="10.00" fill="grey"> m_faces_removed</text>
</g>
<!-- Node37 -->
<g id="Node000037" class="node">
<title>Node37</title>
<g id="a_Node000037"><a xlink:href="../../d5/d50/mcut_2include_2mcut_2internal_2kernel_8h.html#d2/d46/structoutput__mesh__data__maps__t" target="_top" xlink:title=" ">
<polygon fill="white" stroke="#666666" points="799.3,-296.21 665.55,-296.21 665.55,-276.96 799.3,-276.96 799.3,-296.21"/>
<text text-anchor="middle" x="732.43" y="-282.71" font-family="Helvetica,sans-Serif" font-size="10.00">output_mesh_data_maps_t</text>
</a>
</g>
</g>
<!-- Node33&#45;&gt;Node37 -->
<g id="edge29_Node000037_Node000033" class="edge">
<title>Node33&#45;&gt;Node37</title>
<g id="a_edge29_Node000037_Node000033"><a xlink:title=" ">
<path fill="none" stroke="#9a32cd" stroke-dasharray="5,2" d="M485.66,-267.19C500.61,-263.96 517.16,-260.94 532.55,-259.34 583.38,-254.03 597.07,-251.34 647.55,-259.34 668.27,-262.62 690.83,-270.19 707.33,-276.52"/>
<polygon fill="#9a32cd" stroke="#9a32cd" points="485.09,-263.96 476.1,-269.56 486.63,-270.79 485.09,-263.96"/>
</a>
</g>
<text text-anchor="middle" x="590.05" y="-261.34" font-family="Helvetica,sans-Serif" font-size="10.00" fill="grey"> face_map</text>
</g>
<!-- Node26 -->
<g id="Node000026" class="node">
<title>Node26</title>
<g id="a_Node000026"><a xlink:href="../../d1/dc7/classface__descriptor__t.html" target="_top" xlink:title=" ">
<polygon fill="#fff0f0" stroke="red" points="202.68,-160.21 111.68,-160.21 111.68,-140.96 202.68,-140.96 202.68,-160.21"/>
<text text-anchor="middle" x="157.18" y="-146.71" font-family="Helvetica,sans-Serif" font-size="10.00">face_descriptor_t</text>
</a>
</g>
</g>
<!-- Node26&#45;&gt;Node33 -->
<g id="edge15_Node000033_Node000026" class="edge">
<title>Node26&#45;&gt;Node33</title>
<g id="a_edge15_Node000033_Node000026"><a xlink:title=" ">
<path fill="none" stroke="#9a32cd" stroke-dasharray="5,2" d="M189.73,-165.31C246.52,-191.8 364.52,-246.85 413.08,-269.51"/>
<polygon fill="#9a32cd" stroke="#9a32cd" points="191.41,-161.76 180.87,-160.71 188.45,-168.11 191.41,-161.76"/>
</a>
</g>
<text text-anchor="middle" x="281.8" y="-236.34" font-family="Helvetica,sans-Serif" font-size="10.00" fill="grey"> elements</text>
</g>
<!-- Node39 -->
<g id="Node000039" class="node">
<title>Node39</title>
<g id="a_Node000039"><a xlink:title=" ">
<polygon fill="white" stroke="#666666" points="783.93,-80.46 680.93,-80.46 680.93,-38.71 783.93,-38.71 783.93,-80.46"/>
<text text-anchor="start" x="688.93" y="-66.96" font-family="Helvetica,sans-Serif" font-size="10.00">std::unordered_map</text>
<text text-anchor="start" x="688.93" y="-55.71" font-family="Helvetica,sans-Serif" font-size="10.00">&lt; face_descriptor_t,</text>
<text text-anchor="middle" x="732.43" y="-44.46" font-family="Helvetica,sans-Serif" font-size="10.00"> face_descriptor_t &gt;</text>
</a>
</g>
</g>
<!-- Node26&#45;&gt;Node39 -->
<g id="edge33_Node000039_Node000026" class="edge">
<title>Node26&#45;&gt;Node39</title>
<g id="a_edge33_Node000039_Node000026"><a xlink:title=" ">
<path fill="none" stroke="#9a32cd" stroke-dasharray="5,2" d="M213.65,-146.1C250.53,-141.49 299.26,-132.2 338.8,-113.59 348.09,-109.21 347.3,-103.01 356.8,-99.09 364.21,-96.03 579.87,-74.5 680.56,-64.57"/>
<polygon fill="#9a32cd" stroke="#9a32cd" points="213.62,-142.69 204.09,-147.33 214.43,-149.65 213.62,-142.69"/>
</a>
</g>
<text text-anchor="middle" x="435.68" y="-112.59" font-family="Helvetica,sans-Serif" font-size="10.00" fill="grey"> elements</text>
<text text-anchor="middle" x="435.68" y="-101.34" font-family="Helvetica,sans-Serif" font-size="10.00" fill="grey">keys</text>
</g>
<!-- Node34&#45;&gt;Node5 -->
<g id="edge17_Node000005_Node000034" class="edge">
<title>Node34&#45;&gt;Node5</title>
<g id="a_edge17_Node000005_Node000034"><a xlink:title=" ">
<path fill="none" stroke="#9a32cd" stroke-dasharray="5,2" d="M525.81,-438.94C587.48,-443.33 665.37,-448.88 705.26,-451.72"/>
<polygon fill="#9a32cd" stroke="#9a32cd" points="526.11,-435.38 515.89,-438.16 525.61,-442.36 526.11,-435.38"/>
</a>
</g>
<text text-anchor="middle" x="590.05" y="-448.34" font-family="Helvetica,sans-Serif" font-size="10.00" fill="grey"> m_edges_removed</text>
</g>
<!-- Node12&#45;&gt;Node5 -->
<g id="edge19_Node000005_Node000012" class="edge">
<title>Node12&#45;&gt;Node5</title>
<g id="a_edge19_Node000005_Node000012"><a xlink:title=" ">
<path fill="none" stroke="#9a32cd" stroke-dasharray="5,2" d="M500.73,-397.22C542.83,-402.95 598.93,-411.95 647.55,-424.34 667.58,-429.44 689.62,-437.21 706.08,-443.46"/>
<polygon fill="#9a32cd" stroke="#9a32cd" points="501.44,-393.65 491.06,-395.8 500.51,-400.59 501.44,-393.65"/>
</a>
</g>
<text text-anchor="middle" x="590.05" y="-425.34" font-family="Helvetica,sans-Serif" font-size="10.00" fill="grey"> m_halfedges_removed</text>
</g>
<!-- Node35&#45;&gt;Node3 -->
<g id="edge26_Node000003_Node000035" class="edge">
<title>Node35&#45;&gt;Node3</title>
<g id="a_edge26_Node000003_Node000035"><a xlink:title=" ">
<path fill="none" stroke="#9a32cd" stroke-dasharray="5,2" d="M496.18,-341.84C612.98,-343.88 880.42,-346.5 1104.8,-333.59 1160.34,-330.39 1175.37,-334.24 1229.3,-320.59 1245.96,-316.37 1263.89,-308.81 1277.11,-302.61"/>
<polygon fill="#9a32cd" stroke="#9a32cd" points="496.41,-338.32 486.35,-341.64 496.29,-345.32 496.41,-338.32"/>
</a>
</g>
<text text-anchor="middle" x="866.43" y="-344.34" font-family="Helvetica,sans-Serif" font-size="10.00" fill="grey"> seam_vertices</text>
</g>
<!-- Node35&#45;&gt;Node5 -->
<g id="edge21_Node000005_Node000035" class="edge">
<title>Node35&#45;&gt;Node5</title>
<g id="a_edge21_Node000005_Node000035"><a xlink:title=" ">
<path fill="none" stroke="#9a32cd" stroke-dasharray="5,2" d="M495.84,-355.17C507.96,-358.05 520.65,-360.98 532.55,-363.59 583.45,-374.72 600.31,-364.35 647.55,-386.34 678.35,-400.67 707.75,-428.61 722.17,-443.57"/>
<polygon fill="#9a32cd" stroke="#9a32cd" points="496.9,-351.59 486.36,-352.67 495.27,-358.4 496.9,-351.59"/>
</a>
</g>
<text text-anchor="middle" x="590.05" y="-387.34" font-family="Helvetica,sans-Serif" font-size="10.00" fill="grey"> m_vertices_removed</text>
</g>
<!-- Node35&#45;&gt;Node37 -->
<g id="edge28_Node000037_Node000035" class="edge">
<title>Node35&#45;&gt;Node37</title>
<g id="a_edge28_Node000037_Node000035"><a xlink:title=" ">
<path fill="none" stroke="#9a32cd" stroke-dasharray="5,2" d="M470.52,-319.5C488.29,-309.6 510.83,-298.79 532.55,-293.34 575.77,-282.49 625.94,-280.86 665.07,-281.91"/>
<polygon fill="#9a32cd" stroke="#9a32cd" points="469.11,-316.85 462.18,-324.87 472.59,-322.92 469.11,-316.85"/>
</a>
</g>
<text text-anchor="middle" x="590.05" y="-294.34" font-family="Helvetica,sans-Serif" font-size="10.00" fill="grey"> vertex_map</text>
</g>
<!-- Node24 -->
<g id="Node000024" class="node">
<title>Node24</title>
<g id="a_Node000024"><a xlink:href="../../de/dc8/classvertex__descriptor__t.html" target="_top" xlink:title=" ">
<polygon fill="#fff0f0" stroke="red" points="206.8,-268.21 107.55,-268.21 107.55,-248.96 206.8,-248.96 206.8,-268.21"/>
<text text-anchor="middle" x="157.18" y="-254.71" font-family="Helvetica,sans-Serif" font-size="10.00">vertex_descriptor_t</text>
</a>
</g>
</g>
<!-- Node24&#45;&gt;Node35 -->
<g id="edge22_Node000035_Node000024" class="edge">
<title>Node24&#45;&gt;Node35</title>
<g id="a_edge22_Node000035_Node000024"><a xlink:title=" ">
<path fill="none" stroke="#9a32cd" stroke-dasharray="5,2" d="M182.28,-274.25C194.59,-281.65 210.04,-290.05 224.8,-295.59 278.18,-315.62 342.72,-327.78 386.01,-334.32"/>
<polygon fill="#9a32cd" stroke="#9a32cd" points="184.51,-270.9 174.17,-268.61 180.83,-276.85 184.51,-270.9"/>
</a>
</g>
<text text-anchor="middle" x="281.8" y="-327.34" font-family="Helvetica,sans-Serif" font-size="10.00" fill="grey"> elements</text>
</g>
<!-- Node43 -->
<g id="Node000043" class="node">
<title>Node43</title>
<g id="a_Node000043"><a xlink:title=" ">
<polygon fill="white" stroke="#666666" points="783.55,-161.46 681.3,-161.46 681.3,-119.71 783.55,-119.71 783.55,-161.46"/>
<text text-anchor="start" x="689.3" y="-147.96" font-family="Helvetica,sans-Serif" font-size="10.00">std::unordered_map</text>
<text text-anchor="start" x="689.3" y="-136.71" font-family="Helvetica,sans-Serif" font-size="10.00">&lt; vertex_descriptor</text>
<text text-anchor="middle" x="732.43" y="-125.46" font-family="Helvetica,sans-Serif" font-size="10.00">_t, vec3_ &gt;</text>
</a>
</g>
</g>
<!-- Node24&#45;&gt;Node43 -->
<g id="edge40_Node000043_Node000024" class="edge">
<title>Node24&#45;&gt;Node43</title>
<g id="a_edge40_Node000043_Node000024"><a xlink:title=" ">
<path fill="none" stroke="#9a32cd" stroke-dasharray="5,2" d="M217.58,-246.36C330.73,-223.07 575.31,-172.72 681.04,-150.96"/>
<polygon fill="#9a32cd" stroke="#9a32cd" points="217.14,-243.08 208.05,-248.53 218.55,-249.94 217.14,-243.08"/>
</a>
</g>
<text text-anchor="middle" x="435.68" y="-219.34" font-family="Helvetica,sans-Serif" font-size="10.00" fill="grey"> keys</text>
</g>
<!-- Node36&#45;&gt;Node2 -->
<g id="edge30_Node000002_Node000036" class="edge">
<title>Node36&#45;&gt;Node2</title>
<g id="a_edge30_Node000002_Node000036"><a xlink:title=" ">
<path fill="none" stroke="orange" stroke-dasharray="5,2" d="M795.96,-225.74C949.97,-226.11 1345.85,-227.08 1494.82,-227.44"/>
<polygon fill="orange" stroke="orange" points="796.3,-222.24 786.29,-225.71 796.29,-229.24 796.3,-222.24"/>
</a>
</g>
<text text-anchor="middle" x="1176.05" y="-229.34" font-family="Helvetica,sans-Serif" font-size="10.00" fill="grey"> &lt; output_mesh_info_t &gt;</text>
</g>
<!-- Node36&#45;&gt;Node4 -->
<g id="edge24_Node000004_Node000036" class="edge">
<title>Node36&#45;&gt;Node4</title>
<g id="a_edge24_Node000004_Node000036"><a xlink:title=" ">
<path fill="none" stroke="orange" stroke-dasharray="5,2" d="M773.36,-239.05C813.66,-252.51 877.72,-273.61 933.55,-290.59 949.18,-295.34 966.53,-300.31 981.43,-304.49"/>
<polygon fill="orange" stroke="orange" points="774.75,-235.49 764.15,-235.63 772.52,-242.12 774.75,-235.49"/>
</a>
</g>
<text text-anchor="middle" x="866.43" y="-285.34" font-family="Helvetica,sans-Serif" font-size="10.00" fill="grey"> &lt; hmesh_t &gt;</text>
</g>
<!-- Node38 -->
<g id="Node000038" class="node">
<title>Node38</title>
<g id="a_Node000038"><a xlink:title=" ">
<polygon fill="white" stroke="#666666" points="1104.8,-120.46 933.55,-120.46 933.55,-78.71 1104.8,-78.71 1104.8,-120.46"/>
<text text-anchor="start" x="941.55" y="-106.96" font-family="Helvetica,sans-Serif" font-size="10.00">std::shared_ptr&lt; std</text>
<text text-anchor="start" x="941.55" y="-95.71" font-family="Helvetica,sans-Serif" font-size="10.00">::unordered_map&lt; face</text>
<text text-anchor="middle" x="1019.18" y="-84.46" font-family="Helvetica,sans-Serif" font-size="10.00">_descriptor_t, face_descriptor_t &gt; &gt;</text>
</a>
</g>
</g>
<!-- Node36&#45;&gt;Node38 -->
<g id="edge37_Node000038_Node000036" class="edge">
<title>Node36&#45;&gt;Node38</title>
<g id="a_edge37_Node000038_Node000036"><a xlink:title=" ">
<path fill="none" stroke="orange" stroke-dasharray="5,2" d="M758.26,-209.29C771.81,-199.4 788.07,-185.77 799.3,-170.59 811.56,-154.01 800.96,-140.41 817.3,-127.84 835.44,-113.87 886.96,-106.81 933.27,-103.23"/>
<polygon fill="orange" stroke="orange" points="756.57,-206.91 750.4,-215.52 760.59,-212.63 756.57,-206.91"/>
</a>
</g>
<text text-anchor="start" x="817.3" y="-152.84" font-family="Helvetica,sans-Serif" font-size="10.00" fill="grey"> &lt; std::unordered_map</text>
<text text-anchor="start" x="817.3" y="-141.59" font-family="Helvetica,sans-Serif" font-size="10.00" fill="grey">&lt; face_descriptor_t,</text>
<text text-anchor="middle" x="866.43" y="-130.34" font-family="Helvetica,sans-Serif" font-size="10.00" fill="grey"> face_descriptor_t &gt; &gt;</text>
</g>
<!-- Node42 -->
<g id="Node000042" class="node">
<title>Node42</title>
<g id="a_Node000042"><a xlink:title=" ">
<polygon fill="white" stroke="#666666" points="1081.55,-188.46 956.8,-188.46 956.8,-146.71 1081.55,-146.71 1081.55,-188.46"/>
<text text-anchor="start" x="964.8" y="-174.96" font-family="Helvetica,sans-Serif" font-size="10.00">std::shared_ptr&lt; std</text>
<text text-anchor="start" x="964.8" y="-163.71" font-family="Helvetica,sans-Serif" font-size="10.00">::unordered_map&lt; vertex</text>
<text text-anchor="middle" x="1019.18" y="-152.46" font-family="Helvetica,sans-Serif" font-size="10.00">_descriptor_t, vec3_ &gt; &gt;</text>
</a>
</g>
</g>
<!-- Node36&#45;&gt;Node42 -->
<g id="edge43_Node000042_Node000036" class="edge">
<title>Node36&#45;&gt;Node42</title>
<g id="a_edge43_Node000042_Node000036"><a xlink:title=" ">
<path fill="none" stroke="orange" stroke-dasharray="5,2" d="M755.87,-209.78C772.12,-199.26 795.05,-186.24 817.3,-179.84 862.63,-166.8 916.01,-164.1 956.35,-164.47"/>
<polygon fill="orange" stroke="orange" points="754.51,-207.15 748.14,-215.62 758.4,-212.98 754.51,-207.15"/>
</a>
</g>
<text text-anchor="start" x="817.3" y="-204.84" font-family="Helvetica,sans-Serif" font-size="10.00" fill="grey"> &lt; std::unordered_map</text>
<text text-anchor="start" x="817.3" y="-193.59" font-family="Helvetica,sans-Serif" font-size="10.00" fill="grey">&lt; vertex_descriptor_t,</text>
<text text-anchor="middle" x="866.43" y="-182.34" font-family="Helvetica,sans-Serif" font-size="10.00" fill="grey"> vec3_ &gt; &gt;</text>
</g>
<!-- Node37&#45;&gt;Node3 -->
<g id="edge27_Node000003_Node000037" class="edge">
<title>Node37&#45;&gt;Node3</title>
<g id="a_edge27_Node000003_Node000037"><a xlink:title=" ">
<path fill="none" stroke="#9a32cd" stroke-dasharray="5,2" d="M810.28,-284.89C885.39,-283.52 1002.96,-282.15 1104.8,-284.34 1153.06,-285.37 1208.09,-287.87 1246.88,-289.84"/>
<polygon fill="#9a32cd" stroke="#9a32cd" points="810.44,-281.4 800.51,-285.09 810.58,-288.4 810.44,-281.4"/>
</a>
</g>
<text text-anchor="middle" x="1019.18" y="-285.34" font-family="Helvetica,sans-Serif" font-size="10.00" fill="grey"> data_maps</text>
</g>
<!-- Node38&#45;&gt;Node1 -->
<g id="edge31_Node000001_Node000038" class="edge">
<title>Node38&#45;&gt;Node1</title>
<g id="a_edge31_Node000001_Node000038"><a xlink:title=" ">
<path fill="none" stroke="#9a32cd" stroke-dasharray="5,2" d="M1115.74,-100.49C1208.33,-102.08 1352.59,-106.48 1477.05,-118.59 1570.95,-127.72 1679.32,-146.01 1742.58,-157.48"/>
<polygon fill="#9a32cd" stroke="#9a32cd" points="1116.05,-96.97 1105.99,-100.31 1115.94,-103.97 1116.05,-96.97"/>
</a>
</g>
<text text-anchor="start" x="1370.55" y="-154.09" font-family="Helvetica,sans-Serif" font-size="10.00" fill="grey"> cut_hmesh_child_to</text>
<text text-anchor="middle" x="1421.93" y="-142.84" font-family="Helvetica,sans-Serif" font-size="10.00" fill="grey">_usermesh_birth_face</text>
<text text-anchor="start" x="1370.55" y="-131.59" font-family="Helvetica,sans-Serif" font-size="10.00" fill="grey">source_hmesh_child_to</text>
<text text-anchor="middle" x="1421.93" y="-120.34" font-family="Helvetica,sans-Serif" font-size="10.00" fill="grey">_usermesh_birth_face</text>
</g>
<!-- Node39&#45;&gt;Node38 -->
<g id="edge32_Node000038_Node000039" class="edge">
<title>Node39&#45;&gt;Node38</title>
<g id="a_edge32_Node000038_Node000039"><a xlink:title=" ">
<path fill="none" stroke="#9a32cd" stroke-dasharray="5,2" d="M794.82,-54.92C830.38,-53.53 875.82,-53.98 915.55,-61.34 934.34,-64.82 954.19,-71.46 971.38,-78.25"/>
<polygon fill="#9a32cd" stroke="#9a32cd" points="794.95,-51.46 785.12,-55.41 795.27,-58.45 794.95,-51.46"/>
</a>
</g>
<text text-anchor="middle" x="866.43" y="-63.34" font-family="Helvetica,sans-Serif" font-size="10.00" fill="grey"> ptr</text>
</g>
<!-- Node40&#45;&gt;Node39 -->
<g id="edge34_Node000039_Node000040" class="edge">
<title>Node40&#45;&gt;Node39</title>
<g id="a_edge34_Node000039_Node000040"><a xlink:title=" ">
<path fill="none" stroke="orange" stroke-dasharray="5,2" d="M498,-38.84C540.16,-38.91 597.37,-40.12 647.55,-45.09 658.29,-46.15 669.72,-47.78 680.58,-49.58"/>
<polygon fill="orange" stroke="orange" points="498.08,-35.34 488.08,-38.85 498.08,-42.34 498.08,-35.34"/>
</a>
</g>
<text text-anchor="start" x="545.05" y="-58.59" font-family="Helvetica,sans-Serif" font-size="10.00" fill="grey"> &lt; face_descriptor_t,</text>
<text text-anchor="middle" x="590.05" y="-47.34" font-family="Helvetica,sans-Serif" font-size="10.00" fill="grey"> face_descriptor_t &gt;</text>
</g>
<!-- Node40&#45;&gt;Node43 -->
<g id="edge42_Node000043_Node000040" class="edge">
<title>Node40&#45;&gt;Node43</title>
<g id="a_edge42_Node000043_Node000040"><a xlink:title=" ">
<path fill="none" stroke="orange" stroke-dasharray="5,2" d="M492.54,-58.73C546.82,-77.33 628.5,-105.32 680.89,-123.27"/>
<polygon fill="orange" stroke="orange" points="494,-55.19 483.41,-55.26 491.73,-61.81 494,-55.19"/>
</a>
</g>
<text text-anchor="start" x="546.55" y="-124.59" font-family="Helvetica,sans-Serif" font-size="10.00" fill="grey"> &lt; vertex_descriptor</text>
<text text-anchor="middle" x="590.05" y="-113.34" font-family="Helvetica,sans-Serif" font-size="10.00" fill="grey">_t, vec3_ &gt;</text>
</g>
<!-- Node41 -->
<g id="Node000041" class="node">
<title>Node41</title>
<g id="a_Node000041"><a xlink:title=" ">
<polygon fill="white" stroke="#666666" points="171.58,-26.21 142.78,-26.21 142.78,-6.96 171.58,-6.96 171.58,-26.21"/>
<text text-anchor="middle" x="157.18" y="-12.71" font-family="Helvetica,sans-Serif" font-size="10.00">K</text>
</a>
</g>
</g>
<!-- Node41&#45;&gt;Node40 -->
<g id="edge35_Node000040_Node000041" class="edge">
<title>Node41&#45;&gt;Node40</title>
<g id="a_edge35_Node000040_Node000041"><a xlink:title=" ">
<path fill="none" stroke="#9a32cd" stroke-dasharray="5,2" d="M182.65,-18.62C227.68,-22.37 324.47,-30.42 384.13,-35.38"/>
<polygon fill="#9a32cd" stroke="#9a32cd" points="183.14,-15.07 172.89,-17.73 182.56,-22.04 183.14,-15.07"/>
</a>
</g>
<text text-anchor="middle" x="281.8" y="-33.34" font-family="Helvetica,sans-Serif" font-size="10.00" fill="grey"> keys</text>
</g>
<!-- Node42&#45;&gt;Node1 -->
<g id="edge38_Node000001_Node000042" class="edge">
<title>Node42&#45;&gt;Node1</title>
<g id="a_edge38_Node000001_Node000042"><a xlink:title=" ">
<path fill="none" stroke="#9a32cd" stroke-dasharray="5,2" d="M1092.31,-167.59C1244.23,-167.59 1594.71,-167.59 1735.82,-167.59"/>
<polygon fill="#9a32cd" stroke="#9a32cd" points="1092.72,-164.09 1082.72,-167.59 1092.72,-171.09 1092.72,-164.09"/>
</a>
</g>
<text text-anchor="start" x="1366.8" y="-203.09" font-family="Helvetica,sans-Serif" font-size="10.00" fill="grey"> cut_hmesh_new_poly</text>
<text text-anchor="middle" x="1421.93" y="-191.84" font-family="Helvetica,sans-Serif" font-size="10.00" fill="grey">_partition_vertices</text>
<text text-anchor="start" x="1366.8" y="-180.59" font-family="Helvetica,sans-Serif" font-size="10.00" fill="grey">source_hmesh_new_poly</text>
<text text-anchor="middle" x="1421.93" y="-169.34" font-family="Helvetica,sans-Serif" font-size="10.00" fill="grey">_partition_vertices</text>
</g>
<!-- Node43&#45;&gt;Node42 -->
<g id="edge39_Node000042_Node000043" class="edge">
<title>Node43&#45;&gt;Node42</title>
<g id="a_edge39_Node000042_Node000043"><a xlink:title=" ">
<path fill="none" stroke="#9a32cd" stroke-dasharray="5,2" d="M770.02,-113.47C808.82,-88.32 870.58,-58.89 915.55,-88.34 932.29,-99.29 919.48,-115.37 933.55,-129.59 940.12,-136.23 948.06,-141.81 956.4,-146.47"/>
<polygon fill="#9a32cd" stroke="#9a32cd" points="768.52,-110.93 762.15,-119.4 772.41,-116.75 768.52,-110.93"/>
</a>
</g>
<text text-anchor="middle" x="866.43" y="-90.34" font-family="Helvetica,sans-Serif" font-size="10.00" fill="grey"> ptr</text>
</g>
<!-- Node10 -->
<g id="Node000010" class="node">
<title>Node10</title>
<g id="a_Node000010"><a xlink:href="../../dd/d64/classvec3__.html" target="_top" xlink:title=" ">
<polygon fill="#fff0f0" stroke="red" points="468.8,-150.21 402.55,-150.21 402.55,-130.96 468.8,-130.96 468.8,-150.21"/>
<text text-anchor="middle" x="435.68" y="-136.71" font-family="Helvetica,sans-Serif" font-size="10.00">vec3_&lt; T &gt;</text>
</a>
</g>
</g>
<!-- Node10&#45;&gt;Node1 -->
<g id="edge46_Node000001_Node000010" class="edge">
<title>Node10&#45;&gt;Node1</title>
<g id="a_edge46_Node000001_Node000010"><a xlink:title=" ">
<path fill="none" stroke="#9a32cd" stroke-dasharray="5,2" d="M479.51,-141.16C492.28,-139.2 505.31,-134.76 514.55,-125.59 543.5,-96.84 502.68,-63.37 532.55,-35.59 597.78,25.09 642.34,-10.59 731.43,-10.59 731.43,-10.59 731.43,-10.59 1554.68,-10.59 1663.23,-10.59 1761.36,-123.39 1788.74,-157.76"/>
<polygon fill="#9a32cd" stroke="#9a32cd" points="479.52,-137.74 469.94,-142.26 480.25,-144.7 479.52,-137.74"/>
</a>
</g>
<text text-anchor="middle" x="1176.05" y="-12.34" font-family="Helvetica,sans-Serif" font-size="10.00" fill="grey"> perturbation_vector</text>
</g>
<!-- Node10&#45;&gt;Node43 -->
<g id="edge41_Node000043_Node000010" class="edge">
<title>Node10&#45;&gt;Node43</title>
<g id="a_edge41_Node000043_Node000010"><a xlink:title=" ">
<path fill="none" stroke="#9a32cd" stroke-dasharray="5,2" d="M479.89,-140.59C533.4,-140.59 624.41,-140.59 681.04,-140.59"/>
<polygon fill="#9a32cd" stroke="#9a32cd" points="480.06,-137.09 470.06,-140.59 480.06,-144.09 480.06,-137.09"/>
</a>
</g>
<text text-anchor="middle" x="590.05" y="-142.34" font-family="Helvetica,sans-Serif" font-size="10.00" fill="grey"> elements</text>
</g>
<!-- Node44&#45;&gt;Node1 -->
<g id="edge44_Node000001_Node000044" class="edge">
<title>Node44&#45;&gt;Node1</title>
<g id="a_edge44_Node000001_Node000044"><a xlink:title=" ">
<path fill="none" stroke="#9a32cd" stroke-dasharray="5,2" d="M632.46,-617.33C697.29,-597.03 820.02,-560.59 865.43,-560.59 865.43,-560.59 865.43,-560.59 1554.68,-560.59 1740.09,-560.59 1787.75,-239.21 1795.18,-177.7"/>
<polygon fill="#9a32cd" stroke="#9a32cd" points="631.69,-614.22 623.2,-620.56 633.79,-620.89 631.69,-614.22"/>
</a>
</g>
<text text-anchor="middle" x="1176.05" y="-573.59" font-family="Helvetica,sans-Serif" font-size="10.00" fill="grey"> cdt_face_map_cache</text>
<text text-anchor="middle" x="1176.05" y="-562.34" font-family="Helvetica,sans-Serif" font-size="10.00" fill="grey">cdt_index_cache</text>
</g>
</g>
</svg>
