<?xml version="1.0" encoding="UTF-8" standalone="no"?>
<!DOCTYPE svg PUBLIC "-//W3C//DTD SVG 1.1//EN"
 "http://www.w3.org/Graphics/SVG/1.1/DTD/svg11.dtd">
<!-- Generated by graphviz version 8.1.0 (20230707.0739)
 -->
<!-- Title: Slic3r::GUI::MediaFilePanel::Rescale Pages: 1 -->
<svg width="1233pt" height="554pt"
 viewBox="0.00 0.00 1232.50 553.50" xmlns="http://www.w3.org/2000/svg" xmlns:xlink="http://www.w3.org/1999/xlink">
<g id="graph0" class="graph" transform="scale(1 1) rotate(0) translate(4 549.5)">
<title>Slic3r::GUI::MediaFilePanel::Rescale</title>
<!-- Node1 -->
<g id="Node000001" class="node">
<title>Node1</title>
<g id="a_Node000001"><a xlink:title=" ">
<polygon fill="#999999" stroke="#666666" points="137.5,-453.5 0,-453.5 0,-423 137.5,-423 137.5,-453.5"/>
<text text-anchor="start" x="8" y="-440" font-family="Helvetica,sans-Serif" font-size="10.00">Slic3r::GUI::MediaFilePanel</text>
<text text-anchor="middle" x="68.75" y="-428.75" font-family="Helvetica,sans-Serif" font-size="10.00">::Rescale</text>
</a>
</g>
</g>
<!-- Node2 -->
<g id="Node000002" class="node">
<title>Node2</title>
<g id="a_Node000002"><a xlink:href="../../d7/d58/wx_extensions_8cpp.html#a1ee9ba171a3fbe7352176a4315fee795" target="_top" xlink:title=" ">
<polygon fill="white" stroke="#666666" points="744.5,-490.88 694,-490.88 694,-471.62 744.5,-471.62 744.5,-490.88"/>
<text text-anchor="middle" x="719.25" y="-477.38" font-family="Helvetica,sans-Serif" font-size="10.00">em_unit</text>
</a>
</g>
</g>
<!-- Node1&#45;&gt;Node2 -->
<g id="edge1_Node000001_Node000002" class="edge">
<title>Node1&#45;&gt;Node2</title>
<g id="a_edge1_Node000001_Node000002"><a xlink:title=" ">
<path fill="none" stroke="#63b8ff" d="M137.93,-442.77C274.9,-451.85 579.26,-472.03 682.9,-478.91"/>
<polygon fill="#63b8ff" stroke="#63b8ff" points="682.48,-482.45 692.69,-479.62 682.94,-475.47 682.48,-482.45"/>
</a>
</g>
</g>
<!-- Node5 -->
<g id="Node000005" class="node">
<title>Node5</title>
<g id="a_Node000005"><a xlink:href="../../d5/db9/class_scalable_bitmap.html#a457ee1e4af5f2b47a51a5627209e1d58" target="_top" xlink:title=" ">
<polygon fill="white" stroke="#666666" points="436.5,-430.5 325.25,-430.5 325.25,-400 436.5,-400 436.5,-430.5"/>
<text text-anchor="start" x="333.25" y="-417" font-family="Helvetica,sans-Serif" font-size="10.00">ScalableBitmap::msw</text>
<text text-anchor="middle" x="380.88" y="-405.75" font-family="Helvetica,sans-Serif" font-size="10.00">_rescale</text>
</a>
</g>
</g>
<!-- Node1&#45;&gt;Node5 -->
<g id="edge4_Node000001_Node000005" class="edge">
<title>Node1&#45;&gt;Node5</title>
<g id="a_edge4_Node000001_Node000005"><a xlink:title=" ">
<path fill="none" stroke="#63b8ff" d="M137.81,-433.2C190.24,-429.31 262.3,-423.97 314.15,-420.12"/>
<polygon fill="#63b8ff" stroke="#63b8ff" points="314.17,-423.56 323.89,-419.33 313.66,-416.58 314.17,-423.56"/>
</a>
</g>
</g>
<!-- Node23 -->
<g id="Node000023" class="node">
<title>Node23</title>
<g id="a_Node000023"><a xlink:href="../../df/d04/class_slic3r_1_1_g_u_i_1_1_image_grid.html#a42f22e40c18c02c0eb303fd57dff4573" target="_top" xlink:title=" ">
<polygon fill="white" stroke="#666666" points="289.25,-516.5 173.5,-516.5 173.5,-486 289.25,-486 289.25,-516.5"/>
<text text-anchor="start" x="181.5" y="-503" font-family="Helvetica,sans-Serif" font-size="10.00">Slic3r::GUI::ImageGrid</text>
<text text-anchor="middle" x="231.38" y="-491.75" font-family="Helvetica,sans-Serif" font-size="10.00">::Rescale</text>
</a>
</g>
</g>
<!-- Node1&#45;&gt;Node23 -->
<g id="edge28_Node000001_Node000023" class="edge">
<title>Node1&#45;&gt;Node23</title>
<g id="a_edge28_Node000001_Node000023"><a xlink:title=" ">
<path fill="none" stroke="#63b8ff" d="M109.87,-453.99C131.22,-462.36 157.68,-472.74 180.37,-481.64"/>
<polygon fill="#63b8ff" stroke="#63b8ff" points="178.9,-485.21 189.49,-485.61 181.46,-478.7 178.9,-485.21"/>
</a>
</g>
</g>
<!-- Node24 -->
<g id="Node000024" class="node">
<title>Node24</title>
<g id="a_Node000024"><a xlink:href="../../d4/d77/class_button.html#ae064d1d4122fd40493df2cd9eb956776" target="_top" xlink:title=" ">
<polygon fill="white" stroke="#666666" points="274.62,-386.88 188.12,-386.88 188.12,-367.62 274.62,-367.62 274.62,-386.88"/>
<text text-anchor="middle" x="231.38" y="-373.38" font-family="Helvetica,sans-Serif" font-size="10.00">Button::Rescale</text>
</a>
</g>
</g>
<!-- Node1&#45;&gt;Node24 -->
<g id="edge30_Node000001_Node000024" class="edge">
<title>Node1&#45;&gt;Node24</title>
<g id="a_edge30_Node000001_Node000024"><a xlink:title=" ">
<path fill="none" stroke="#63b8ff" d="M111.11,-422.54C136.65,-412.84 169.13,-400.51 193.74,-391.16"/>
<polygon fill="#63b8ff" stroke="#63b8ff" points="194.65,-394.18 202.76,-387.36 192.17,-387.64 194.65,-394.18"/>
</a>
</g>
</g>
<!-- Node3 -->
<g id="Node000003" class="node">
<title>Node3</title>
<g id="a_Node000003"><a xlink:href="../../d7/d9a/class_slic3r_1_1_g_u_i_1_1_d_p_i_aware.html#a10bf715638840dfd1312a054e64f8571" target="_top" xlink:title=" ">
<polygon fill="white" stroke="#666666" points="959.62,-496.5 843.88,-496.5 843.88,-466 959.62,-466 959.62,-496.5"/>
<text text-anchor="start" x="851.88" y="-483" font-family="Helvetica,sans-Serif" font-size="10.00">Slic3r::GUI::DPIAware</text>
<text text-anchor="middle" x="901.75" y="-471.75" font-family="Helvetica,sans-Serif" font-size="10.00">::em_unit</text>
</a>
</g>
</g>
<!-- Node2&#45;&gt;Node3 -->
<g id="edge2_Node000002_Node000003" class="edge">
<title>Node2&#45;&gt;Node3</title>
<g id="a_edge2_Node000002_Node000003"><a xlink:title=" ">
<path fill="none" stroke="#63b8ff" d="M744.97,-481.25C767.6,-481.25 802.15,-481.25 832.97,-481.25"/>
<polygon fill="#63b8ff" stroke="#63b8ff" points="832.69,-484.75 842.69,-481.25 832.69,-477.75 832.69,-484.75"/>
</a>
</g>
</g>
<!-- Node4 -->
<g id="Node000004" class="node">
<title>Node4</title>
<g id="a_Node000004"><a xlink:href="../../d9/d45/namespace_slic3r_1_1_g_u_i.html#a160756cff7bc7f94456fb6b61614f579" target="_top" xlink:title=" ">
<polygon fill="white" stroke="#666666" points="964.5,-545.5 839,-545.5 839,-515 964.5,-515 964.5,-545.5"/>
<text text-anchor="start" x="847" y="-532" font-family="Helvetica,sans-Serif" font-size="10.00">Slic3r::GUI::find_toplevel</text>
<text text-anchor="middle" x="901.75" y="-520.75" font-family="Helvetica,sans-Serif" font-size="10.00">_parent</text>
</a>
</g>
</g>
<!-- Node2&#45;&gt;Node4 -->
<g id="edge3_Node000002_Node000004" class="edge">
<title>Node2&#45;&gt;Node4</title>
<g id="a_edge3_Node000002_Node000004"><a xlink:title=" ">
<path fill="none" stroke="#63b8ff" d="M744.97,-487.96C767.52,-494.08 801.92,-503.42 832.67,-511.77"/>
<polygon fill="#63b8ff" stroke="#63b8ff" points="831.36,-515.31 841.93,-514.55 833.2,-508.56 831.36,-515.31"/>
</a>
</g>
</g>
<!-- Node6 -->
<g id="Node000006" class="node">
<title>Node6</title>
<g id="a_Node000006"><a xlink:href="../../d7/d58/wx_extensions_8cpp.html#a8c59db4968ff45d299802bf7babf5189" target="_top" xlink:title=" ">
<polygon fill="white" stroke="#666666" points="601,-424.88 489.75,-424.88 489.75,-405.62 601,-405.62 601,-424.88"/>
<text text-anchor="middle" x="545.38" y="-411.38" font-family="Helvetica,sans-Serif" font-size="10.00">create_scaled_bitmap</text>
</a>
</g>
</g>
<!-- Node5&#45;&gt;Node6 -->
<g id="edge5_Node000005_Node000006" class="edge">
<title>Node5&#45;&gt;Node6</title>
<g id="a_edge5_Node000005_Node000006"><a xlink:title=" ">
<path fill="none" stroke="#63b8ff" d="M436.89,-415.25C450.26,-415.25 464.69,-415.25 478.5,-415.25"/>
<polygon fill="#63b8ff" stroke="#63b8ff" points="478.42,-418.75 488.42,-415.25 478.42,-411.75 478.42,-418.75"/>
</a>
</g>
</g>
<!-- Node6&#45;&gt;Node2 -->
<g id="edge7_Node000006_Node000002" class="edge">
<title>Node6&#45;&gt;Node2</title>
<g id="a_edge7_Node000006_Node000002"><a xlink:title=" ">
<path fill="none" stroke="#63b8ff" d="M572.48,-425.27C602.14,-436.66 650.67,-455.3 683.51,-467.91"/>
<polygon fill="#63b8ff" stroke="#63b8ff" points="681.99,-471.46 692.58,-471.78 684.5,-464.92 681.99,-471.46"/>
</a>
</g>
</g>
<!-- Node7 -->
<g id="Node000007" class="node">
<title>Node7</title>
<g id="a_Node000007"><a xlink:href="../../d9/d45/namespace_slic3r_1_1_g_u_i.html#a4efb22fa76b303e9999f4f121b015b0a" target="_top" xlink:title=" ">
<polygon fill="white" stroke="#666666" points="767.75,-438.5 670.75,-438.5 670.75,-408 767.75,-408 767.75,-438.5"/>
<text text-anchor="start" x="678.75" y="-425" font-family="Helvetica,sans-Serif" font-size="10.00">Slic3r::GUI::check</text>
<text text-anchor="middle" x="719.25" y="-413.75" font-family="Helvetica,sans-Serif" font-size="10.00">_dark_mode</text>
</a>
</g>
</g>
<!-- Node6&#45;&gt;Node7 -->
<g id="edge6_Node000006_Node000007" class="edge">
<title>Node6&#45;&gt;Node7</title>
<g id="a_edge6_Node000006_Node000007"><a xlink:title=" ">
<path fill="none" stroke="#63b8ff" d="M601.23,-417.8C619.79,-418.67 640.59,-419.64 659.44,-420.51"/>
<polygon fill="#63b8ff" stroke="#63b8ff" points="659.13,-424.05 669.29,-421.02 659.46,-417.06 659.13,-424.05"/>
</a>
</g>
</g>
<!-- Node8 -->
<g id="Node000008" class="node">
<title>Node8</title>
<g id="a_Node000008"><a xlink:href="../../d8/d95/class_slic3r_1_1_g_u_i_1_1_bitmap_cache.html#afccfcaeca73039fe713aa0d4389b51e1" target="_top" xlink:title=" ">
<polygon fill="white" stroke="#666666" points="784.25,-389.5 654.25,-389.5 654.25,-359 784.25,-359 784.25,-389.5"/>
<text text-anchor="start" x="662.25" y="-376" font-family="Helvetica,sans-Serif" font-size="10.00">Slic3r::GUI::BitmapCache</text>
<text text-anchor="middle" x="719.25" y="-364.75" font-family="Helvetica,sans-Serif" font-size="10.00">::load_png</text>
</a>
</g>
</g>
<!-- Node6&#45;&gt;Node8 -->
<g id="edge8_Node000006_Node000008" class="edge">
<title>Node6&#45;&gt;Node8</title>
<g id="a_edge8_Node000006_Node000008"><a xlink:title=" ">
<path fill="none" stroke="#63b8ff" d="M588.42,-405.22C604.95,-401.28 624.43,-396.63 643.21,-392.15"/>
<polygon fill="#63b8ff" stroke="#63b8ff" points="643.94,-395.34 652.85,-389.61 642.32,-388.53 643.94,-395.34"/>
</a>
</g>
</g>
<!-- Node14 -->
<g id="Node000014" class="node">
<title>Node14</title>
<g id="a_Node000014"><a xlink:href="../../d8/d95/class_slic3r_1_1_g_u_i_1_1_bitmap_cache.html#a6b71563805184d887c80c3889b7447a4" target="_top" xlink:title=" ">
<polygon fill="white" stroke="#666666" points="784.25,-192.5 654.25,-192.5 654.25,-162 784.25,-162 784.25,-192.5"/>
<text text-anchor="start" x="662.25" y="-179" font-family="Helvetica,sans-Serif" font-size="10.00">Slic3r::GUI::BitmapCache</text>
<text text-anchor="middle" x="719.25" y="-167.75" font-family="Helvetica,sans-Serif" font-size="10.00">::load_svg</text>
</a>
</g>
</g>
<!-- Node6&#45;&gt;Node14 -->
<g id="edge15_Node000006_Node000014" class="edge">
<title>Node6&#45;&gt;Node14</title>
<g id="a_edge15_Node000006_Node000014"><a xlink:title=" ">
<path fill="none" stroke="#63b8ff" d="M594.55,-405.21C603.13,-401.82 611.47,-397.29 618.25,-391.25 675.84,-339.92 702.79,-248.47 713.03,-203.58"/>
<polygon fill="#63b8ff" stroke="#63b8ff" points="716.64,-204.49 715.34,-193.97 709.8,-203 716.64,-204.49"/>
</a>
</g>
</g>
<!-- Node9 -->
<g id="Node000009" class="node">
<title>Node9</title>
<g id="a_Node000009"><a xlink:href="../../d9/d45/namespace_slic3r_1_1_g_u_i.html#ac911e01665ff9c00414a1d5d0352de74" target="_top" xlink:title=" ">
<polygon fill="white" stroke="#666666" points="954.75,-391.88 848.75,-391.88 848.75,-372.62 954.75,-372.62 954.75,-391.88"/>
<text text-anchor="middle" x="901.75" y="-378.38" font-family="Helvetica,sans-Serif" font-size="10.00">Slic3r::GUI::from_u8</text>
</a>
</g>
</g>
<!-- Node8&#45;&gt;Node9 -->
<g id="edge9_Node000008_Node000009" class="edge">
<title>Node8&#45;&gt;Node9</title>
<g id="a_edge9_Node000008_Node000009"><a xlink:title=" ">
<path fill="none" stroke="#63b8ff" d="M784.65,-377.1C801.76,-377.86 820.22,-378.68 837.28,-379.44"/>
<polygon fill="#63b8ff" stroke="#63b8ff" points="837.11,-382.98 847.26,-379.92 837.42,-375.98 837.11,-382.98"/>
</a>
</g>
</g>
<!-- Node10 -->
<g id="Node000010" class="node">
<title>Node10</title>
<g id="a_Node000010"><a xlink:href="../../d8/d95/class_slic3r_1_1_g_u_i_1_1_bitmap_cache.html#ae66ad1f757a5b4970147434649eaf5ed" target="_top" xlink:title=" ">
<polygon fill="white" stroke="#666666" points="1149.25,-309.5 1019.25,-309.5 1019.25,-279 1149.25,-279 1149.25,-309.5"/>
<text text-anchor="start" x="1027.25" y="-296" font-family="Helvetica,sans-Serif" font-size="10.00">Slic3r::GUI::BitmapCache</text>
<text text-anchor="middle" x="1084.25" y="-284.75" font-family="Helvetica,sans-Serif" font-size="10.00">::insert</text>
</a>
</g>
</g>
<!-- Node8&#45;&gt;Node10 -->
<g id="edge11_Node000008_Node000010" class="edge">
<title>Node8&#45;&gt;Node10</title>
<g id="a_edge11_Node000008_Node000010"><a xlink:title=" ">
<path fill="none" stroke="#63b8ff" d="M784.74,-364.39C838.26,-355.69 916.18,-341.83 983.25,-325.25 997.24,-321.79 1012.16,-317.5 1026.08,-313.23"/>
<polygon fill="#63b8ff" stroke="#63b8ff" points="1027.01,-316.29 1035.51,-309.97 1024.92,-309.61 1027.01,-316.29"/>
</a>
</g>
</g>
<!-- Node11 -->
<g id="Node000011" class="node">
<title>Node11</title>
<g id="a_Node000011"><a xlink:href="../../de/db8/namespace_slic3r.html#a03e9f0fb364689f42c2ac979bf74a185" target="_top" xlink:title=" ">
<polygon fill="white" stroke="#666666" points="931.88,-315.88 871.62,-315.88 871.62,-296.62 931.88,-296.62 931.88,-315.88"/>
<text text-anchor="middle" x="901.75" y="-302.38" font-family="Helvetica,sans-Serif" font-size="10.00">Slic3r::var</text>
</a>
</g>
</g>
<!-- Node8&#45;&gt;Node11 -->
<g id="edge12_Node000008_Node000011" class="edge">
<title>Node8&#45;&gt;Node11</title>
<g id="a_edge12_Node000008_Node000011"><a xlink:title=" ">
<path fill="none" stroke="#63b8ff" d="M753.16,-358.53C772.46,-349.62 797.46,-338.62 820.25,-330.25 833.3,-325.46 847.79,-320.9 860.84,-317.08"/>
<polygon fill="#63b8ff" stroke="#63b8ff" points="861.75,-320.17 870.4,-314.05 859.82,-313.44 861.75,-320.17"/>
</a>
</g>
</g>
<!-- Node12 -->
<g id="Node000012" class="node">
<title>Node12</title>
<g id="a_Node000012"><a xlink:href="../../d9/d45/namespace_slic3r_1_1_g_u_i.html#a335817b838dadf09b1a98925a4fa5dab" target="_top" xlink:title=" ">
<polygon fill="white" stroke="#666666" points="1149.25,-421.5 1019.25,-421.5 1019.25,-391 1149.25,-391 1149.25,-421.5"/>
<text text-anchor="start" x="1027.25" y="-408" font-family="Helvetica,sans-Serif" font-size="10.00">Slic3r::GUI::wxImage</text>
<text text-anchor="middle" x="1084.25" y="-396.75" font-family="Helvetica,sans-Serif" font-size="10.00">_to_wxBitmap_with_alpha</text>
</a>
</g>
</g>
<!-- Node8&#45;&gt;Node12 -->
<g id="edge13_Node000008_Node000012" class="edge">
<title>Node8&#45;&gt;Node12</title>
<g id="a_edge13_Node000008_Node000012"><a xlink:title=" ">
<path fill="none" stroke="#63b8ff" d="M762.93,-390C770.12,-392.91 777.45,-396.05 784.25,-399.25 800.81,-407.04 802.53,-414.66 820.25,-419.25 882.15,-435.29 954.91,-429.92 1008.2,-421.75"/>
<polygon fill="#63b8ff" stroke="#63b8ff" points="1008.6,-425.07 1017.92,-420.03 1007.49,-418.16 1008.6,-425.07"/>
</a>
</g>
</g>
<!-- Node9&#45;&gt;Node9 -->
<g id="edge10_Node000009_Node000009" class="edge">
<title>Node9&#45;&gt;Node9</title>
<g id="a_edge10_Node000009_Node000009"><a xlink:title=" ">
<path fill="none" stroke="#63b8ff" d="M873.18,-392.16C860.15,-400.77 869.67,-409.88 901.75,-409.88 921.3,-409.88 932.47,-406.49 935.27,-401.9"/>
<polygon fill="#63b8ff" stroke="#63b8ff" points="937.97,-400.49 930.32,-393.16 931.73,-403.66 937.97,-400.49"/>
</a>
</g>
</g>
<!-- Node13 -->
<g id="Node000013" class="node">
<title>Node13</title>
<g id="a_Node000013"><a xlink:href="../../d6/dba/_wipe_tower_dialog_8cpp.html#a031c2862b832be718b216d1f101f88cd" target="_top" xlink:title=" ">
<polygon fill="white" stroke="#666666" points="1224.5,-415.88 1185.25,-415.88 1185.25,-396.62 1224.5,-396.62 1224.5,-415.88"/>
<text text-anchor="middle" x="1204.88" y="-402.38" font-family="Helvetica,sans-Serif" font-size="10.00">scale</text>
</a>
</g>
</g>
<!-- Node12&#45;&gt;Node13 -->
<g id="edge14_Node000012_Node000013" class="edge">
<title>Node12&#45;&gt;Node13</title>
<g id="a_edge14_Node000012_Node000013"><a xlink:title=" ">
<path fill="none" stroke="#63b8ff" d="M1149.42,-406.25C1158.05,-406.25 1166.54,-406.25 1174.16,-406.25"/>
<polygon fill="#63b8ff" stroke="#63b8ff" points="1173.95,-409.75 1183.95,-406.25 1173.95,-402.75 1173.95,-409.75"/>
</a>
</g>
</g>
<!-- Node14&#45;&gt;Node11 -->
<g id="edge27_Node000014_Node000011" class="edge">
<title>Node14&#45;&gt;Node11</title>
<g id="a_edge27_Node000014_Node000011"><a xlink:title=" ">
<path fill="none" stroke="#63b8ff" d="M729.82,-192.74C745.57,-216.86 779.33,-263.15 820.25,-287.25 832.45,-294.44 847.2,-298.91 860.72,-301.69"/>
<polygon fill="#63b8ff" stroke="#63b8ff" points="859.77,-305.25 870.23,-303.57 861.01,-298.36 859.77,-305.25"/>
</a>
</g>
</g>
<!-- Node15 -->
<g id="Node000015" class="node">
<title>Node15</title>
<g id="a_Node000015"><a xlink:href="../../de/db8/namespace_slic3r.html#a95d4899dcbd269aa89e4943ed1eb7ae9" target="_top" xlink:title=" ">
<polygon fill="white" stroke="#666666" points="955.88,-192.5 847.62,-192.5 847.62,-162 955.88,-162 955.88,-192.5"/>
<text text-anchor="start" x="855.62" y="-179" font-family="Helvetica,sans-Serif" font-size="10.00">Slic3r::float_to_string</text>
<text text-anchor="middle" x="901.75" y="-167.75" font-family="Helvetica,sans-Serif" font-size="10.00">_decimal_point</text>
</a>
</g>
</g>
<!-- Node14&#45;&gt;Node15 -->
<g id="edge16_Node000014_Node000015" class="edge">
<title>Node14&#45;&gt;Node15</title>
<g id="a_edge16_Node000014_Node000015"><a xlink:title=" ">
<path fill="none" stroke="#63b8ff" d="M784.65,-177.25C801.51,-177.25 819.68,-177.25 836.53,-177.25"/>
<polygon fill="#63b8ff" stroke="#63b8ff" points="836.39,-180.75 846.39,-177.25 836.39,-173.75 836.39,-180.75"/>
</a>
</g>
</g>
<!-- Node16 -->
<g id="Node000016" class="node">
<title>Node16</title>
<g id="a_Node000016"><a xlink:href="../../d8/d95/class_slic3r_1_1_g_u_i_1_1_bitmap_cache.html#a6a62c163a6bab25fcb73d8726a5d3895" target="_top" xlink:title=" ">
<polygon fill="white" stroke="#666666" points="966.75,-278.5 836.75,-278.5 836.75,-248 966.75,-248 966.75,-278.5"/>
<text text-anchor="start" x="844.75" y="-265" font-family="Helvetica,sans-Serif" font-size="10.00">Slic3r::GUI::BitmapCache</text>
<text text-anchor="middle" x="901.75" y="-253.75" font-family="Helvetica,sans-Serif" font-size="10.00">::insert_raw_rgba</text>
</a>
</g>
</g>
<!-- Node14&#45;&gt;Node16 -->
<g id="edge17_Node000014_Node000016" class="edge">
<title>Node14&#45;&gt;Node16</title>
<g id="a_edge17_Node000014_Node000016"><a xlink:title=" ">
<path fill="none" stroke="#63b8ff" d="M741.56,-192.79C761.2,-206.54 791.56,-226.35 820.25,-239.25 823.85,-240.87 827.6,-242.42 831.41,-243.88"/>
<polygon fill="#63b8ff" stroke="#63b8ff" points="830.02,-247.47 840.61,-247.59 832.41,-240.89 830.02,-247.47"/>
</a>
</g>
</g>
<!-- Node17 -->
<g id="Node000017" class="node">
<title>Node17</title>
<g id="a_Node000017"><a xlink:href="../../d8/d23/nanosvgrast_8h.html#a39f1a90d36b9c773d57041c8cda0a88a" target="_top" xlink:title=" ">
<polygon fill="white" stroke="#666666" points="957.38,-143.88 846.12,-143.88 846.12,-124.62 957.38,-124.62 957.38,-143.88"/>
<text text-anchor="middle" x="901.75" y="-130.38" font-family="Helvetica,sans-Serif" font-size="10.00">nsvgCreateRasterizer</text>
</a>
</g>
</g>
<!-- Node14&#45;&gt;Node17 -->
<g id="edge20_Node000014_Node000017" class="edge">
<title>Node14&#45;&gt;Node17</title>
<g id="a_edge20_Node000014_Node000017"><a xlink:title=" ">
<path fill="none" stroke="#63b8ff" d="M784.53,-161.79C796.4,-158.94 808.7,-156 820.25,-153.25 829.09,-151.15 838.47,-148.92 847.59,-146.77"/>
<polygon fill="#63b8ff" stroke="#63b8ff" points="848.2,-149.98 857.13,-144.28 846.59,-143.17 848.2,-149.98"/>
</a>
</g>
</g>
<!-- Node18 -->
<g id="Node000018" class="node">
<title>Node18</title>
<g id="a_Node000018"><a xlink:href="../../d4/d64/nanosvg_8h.html#ae474f7838b9272736a6945cdb73aad1f" target="_top" xlink:title=" ">
<polygon fill="white" stroke="#666666" points="1117,-83.88 1051.5,-83.88 1051.5,-64.62 1117,-64.62 1117,-83.88"/>
<text text-anchor="middle" x="1084.25" y="-70.38" font-family="Helvetica,sans-Serif" font-size="10.00">nsvgDelete</text>
</a>
</g>
</g>
<!-- Node14&#45;&gt;Node18 -->
<g id="edge21_Node000014_Node000018" class="edge">
<title>Node14&#45;&gt;Node18</title>
<g id="a_edge21_Node000014_Node000018"><a xlink:title=" ">
<path fill="none" stroke="#63b8ff" d="M740.06,-161.6C759.38,-147.19 790.18,-126.39 820.25,-115.25 894.49,-87.75 987.14,-78.69 1040.32,-75.71"/>
<polygon fill="#63b8ff" stroke="#63b8ff" points="1040.24,-79.17 1050.05,-75.16 1039.88,-72.18 1040.24,-79.17"/>
</a>
</g>
</g>
<!-- Node19 -->
<g id="Node000019" class="node">
<title>Node19</title>
<g id="a_Node000019"><a xlink:href="../../d8/d23/nanosvgrast_8h.html#ae2ace40cfac53302ba8856d584872734" target="_top" xlink:title=" ">
<polygon fill="white" stroke="#666666" points="957,-67.88 846.5,-67.88 846.5,-48.62 957,-48.62 957,-67.88"/>
<text text-anchor="middle" x="901.75" y="-54.38" font-family="Helvetica,sans-Serif" font-size="10.00">nsvgDeleteRasterizer</text>
</a>
</g>
</g>
<!-- Node14&#45;&gt;Node19 -->
<g id="edge22_Node000014_Node000019" class="edge">
<title>Node14&#45;&gt;Node19</title>
<g id="a_edge22_Node000014_Node000019"><a xlink:title=" ">
<path fill="none" stroke="#63b8ff" d="M732.46,-161.76C749.81,-140.77 783.57,-103.48 820.25,-82.25 827.44,-78.09 835.41,-74.59 843.47,-71.67"/>
<polygon fill="#63b8ff" stroke="#63b8ff" points="844.28,-74.75 852.66,-68.27 842.07,-68.11 844.28,-74.75"/>
</a>
</g>
</g>
<!-- Node20 -->
<g id="Node000020" class="node">
<title>Node20</title>
<g id="a_Node000020"><a xlink:href="../../d8/d95/class_slic3r_1_1_g_u_i_1_1_bitmap_cache.html#abccea8ea4722194ea6a72a5649238512" target="_top" xlink:title=" ">
<polygon fill="white" stroke="#666666" points="983.25,-30.5 820.25,-30.5 820.25,0 983.25,0 983.25,-30.5"/>
<text text-anchor="start" x="828.25" y="-17" font-family="Helvetica,sans-Serif" font-size="10.00">Slic3r::GUI::BitmapCache</text>
<text text-anchor="middle" x="901.75" y="-5.75" font-family="Helvetica,sans-Serif" font-size="10.00">::nsvgParseFromFileWithReplace</text>
</a>
</g>
</g>
<!-- Node14&#45;&gt;Node20 -->
<g id="edge23_Node000014_Node000020" class="edge">
<title>Node14&#45;&gt;Node20</title>
<g id="a_edge23_Node000014_Node000020"><a xlink:title=" ">
<path fill="none" stroke="#63b8ff" d="M727.19,-161.85C740.83,-133.3 773.91,-72.11 820.25,-39.25 821.95,-38.05 823.7,-36.91 825.51,-35.82"/>
<polygon fill="#63b8ff" stroke="#63b8ff" points="826.69,-38.63 833.88,-30.85 823.41,-32.44 826.69,-38.63"/>
</a>
</g>
</g>
<!-- Node22 -->
<g id="Node000022" class="node">
<title>Node22</title>
<g id="a_Node000022"><a xlink:href="../../d8/d23/nanosvgrast_8h.html#a73d8a67a24e08c96ec8c2b823d8a29b2" target="_top" xlink:title=" ">
<polygon fill="white" stroke="#666666" points="941.25,-229.88 862.25,-229.88 862.25,-210.62 941.25,-210.62 941.25,-229.88"/>
<text text-anchor="middle" x="901.75" y="-216.38" font-family="Helvetica,sans-Serif" font-size="10.00">nsvgRasterize</text>
</a>
</g>
</g>
<!-- Node14&#45;&gt;Node22 -->
<g id="edge26_Node000014_Node000022" class="edge">
<title>Node14&#45;&gt;Node22</title>
<g id="a_edge26_Node000014_Node000022"><a xlink:title=" ">
<path fill="none" stroke="#63b8ff" d="M784.53,-192.71C796.4,-195.56 808.7,-198.5 820.25,-201.25 830.31,-203.64 841.07,-206.19 851.36,-208.62"/>
<polygon fill="#63b8ff" stroke="#63b8ff" points="850.31,-212.21 860.85,-211.1 851.92,-205.39 850.31,-212.21"/>
</a>
</g>
</g>
<!-- Node16&#45;&gt;Node10 -->
<g id="edge18_Node000016_Node000010" class="edge">
<title>Node16&#45;&gt;Node10</title>
<g id="a_edge18_Node000016_Node000010"><a xlink:title=" ">
<path fill="none" stroke="#63b8ff" d="M967.15,-274.31C980.41,-276.59 994.49,-279.01 1008.09,-281.34"/>
<polygon fill="#63b8ff" stroke="#63b8ff" points="1007.43,-284.95 1017.87,-283.19 1008.61,-278.05 1007.43,-284.95"/>
</a>
</g>
</g>
<!-- Node16&#45;&gt;Node12 -->
<g id="edge19_Node000016_Node000012" class="edge">
<title>Node16&#45;&gt;Node12</title>
<g id="a_edge19_Node000016_Node000012"><a xlink:title=" ">
<path fill="none" stroke="#63b8ff" d="M967.14,-278.66C972.79,-281.12 978.25,-283.97 983.25,-287.25 1003.06,-300.26 1042.77,-351.44 1065.74,-382.29"/>
<polygon fill="#63b8ff" stroke="#63b8ff" points="1063.26,-383.82 1072.02,-389.77 1068.88,-379.65 1063.26,-383.82"/>
</a>
</g>
</g>
<!-- Node20&#45;&gt;Node18 -->
<g id="edge24_Node000020_Node000018" class="edge">
<title>Node20&#45;&gt;Node18</title>
<g id="a_edge24_Node000020_Node000018"><a xlink:title=" ">
<path fill="none" stroke="#63b8ff" d="M956.55,-30.91C965.49,-33.62 974.65,-36.46 983.25,-39.25 1003.97,-45.96 1026.92,-53.95 1045.6,-60.6"/>
<polygon fill="#63b8ff" stroke="#63b8ff" points="1044.18,-64.17 1054.78,-64.24 1046.54,-57.58 1044.18,-64.17"/>
</a>
</g>
</g>
<!-- Node21 -->
<g id="Node000021" class="node">
<title>Node21</title>
<g id="a_Node000021"><a xlink:href="../../d4/d64/nanosvg_8h.html#a573eb7d882e117b18103b77845c29f22" target="_top" xlink:title=" ">
<polygon fill="white" stroke="#666666" points="1115.5,-24.88 1053,-24.88 1053,-5.62 1115.5,-5.62 1115.5,-24.88"/>
<text text-anchor="middle" x="1084.25" y="-11.38" font-family="Helvetica,sans-Serif" font-size="10.00">nsvgParse</text>
</a>
</g>
</g>
<!-- Node20&#45;&gt;Node21 -->
<g id="edge25_Node000020_Node000021" class="edge">
<title>Node20&#45;&gt;Node21</title>
<g id="a_edge25_Node000020_Node000021"><a xlink:title=" ">
<path fill="none" stroke="#63b8ff" d="M983.5,-15.25C1003.67,-15.25 1024.49,-15.25 1041.85,-15.25"/>
<polygon fill="#63b8ff" stroke="#63b8ff" points="1041.72,-18.75 1051.72,-15.25 1041.72,-11.75 1041.72,-18.75"/>
</a>
</g>
</g>
<!-- Node23&#45;&gt;Node2 -->
<g id="edge29_Node000023_Node000002" class="edge">
<title>Node23&#45;&gt;Node2</title>
<g id="a_edge29_Node000023_Node000002"><a xlink:title=" ">
<path fill="none" stroke="#63b8ff" d="M289.54,-498.9C390.88,-494.73 599.22,-486.15 682.6,-482.72"/>
<polygon fill="#63b8ff" stroke="#63b8ff" points="682.66,-486.18 692.51,-482.27 682.37,-479.18 682.66,-486.18"/>
</a>
</g>
</g>
<!-- Node24&#45;&gt;Node5 -->
<g id="edge35_Node000024_Node000005" class="edge">
<title>Node24&#45;&gt;Node5</title>
<g id="a_edge35_Node000024_Node000005"><a xlink:title=" ">
<path fill="none" stroke="#63b8ff" d="M271.52,-387.33C284.7,-390.73 299.8,-394.62 314.45,-398.39"/>
<polygon fill="#63b8ff" stroke="#63b8ff" points="313.45,-402.01 324,-401.11 315.19,-395.23 313.45,-402.01"/>
</a>
</g>
</g>
<!-- Node25 -->
<g id="Node000025" class="node">
<title>Node25</title>
<g id="a_Node000025"><a xlink:href="../../d5/db9/class_scalable_bitmap.html#abb4d44a4b22f3436cb7ab22fedb1febd" target="_top" xlink:title=" ">
<polygon fill="white" stroke="#666666" points="599.88,-344.88 490.88,-344.88 490.88,-325.62 599.88,-325.62 599.88,-344.88"/>
<text text-anchor="middle" x="545.38" y="-331.38" font-family="Helvetica,sans-Serif" font-size="10.00">ScalableBitmap::bmp</text>
</a>
</g>
</g>
<!-- Node24&#45;&gt;Node25 -->
<g id="edge31_Node000024_Node000025" class="edge">
<title>Node24&#45;&gt;Node25</title>
<g id="a_edge31_Node000024_Node000025"><a xlink:title=" ">
<path fill="none" stroke="#63b8ff" d="M265.61,-367.19C283.18,-362.25 305.22,-356.64 325.25,-353.25 376.77,-344.54 435.86,-340 479.68,-337.66"/>
<polygon fill="#63b8ff" stroke="#63b8ff" points="479.67,-341.11 489.47,-337.11 479.31,-334.12 479.67,-341.11"/>
</a>
</g>
</g>
<!-- Node26 -->
<g id="Node000026" class="node">
<title>Node26</title>
<g id="a_Node000026"><a xlink:href="../../d4/d77/class_button.html#afd503335aea366f27e99034fee7957fd" target="_top" xlink:title=" ">
<polygon fill="white" stroke="#666666" points="434.62,-381.88 327.12,-381.88 327.12,-362.62 434.62,-362.62 434.62,-381.88"/>
<text text-anchor="middle" x="380.88" y="-368.38" font-family="Helvetica,sans-Serif" font-size="10.00">Button::messureSize</text>
</a>
</g>
</g>
<!-- Node24&#45;&gt;Node26 -->
<g id="edge32_Node000024_Node000026" class="edge">
<title>Node24&#45;&gt;Node26</title>
<g id="a_edge32_Node000024_Node000026"><a xlink:title=" ">
<path fill="none" stroke="#63b8ff" d="M275.04,-375.8C287.79,-375.37 302.07,-374.89 315.88,-374.42"/>
<polygon fill="#63b8ff" stroke="#63b8ff" points="315.94,-377.89 325.82,-374.05 315.7,-370.89 315.94,-377.89"/>
</a>
</g>
</g>
<!-- Node26&#45;&gt;Node25 -->
<g id="edge33_Node000026_Node000025" class="edge">
<title>Node26&#45;&gt;Node25</title>
<g id="a_edge33_Node000026_Node000025"><a xlink:title=" ">
<path fill="none" stroke="#63b8ff" d="M426.28,-362.14C445.8,-357.69 468.93,-352.43 489.52,-347.74"/>
<polygon fill="#63b8ff" stroke="#63b8ff" points="490.05,-350.98 499.02,-345.35 488.5,-344.16 490.05,-350.98"/>
</a>
</g>
</g>
<!-- Node27 -->
<g id="Node000027" class="node">
<title>Node27</title>
<g id="a_Node000027"><a xlink:href="../../d5/db9/class_scalable_bitmap.html#a3e7058676f561ff9b75b4f5339cf21b2" target="_top" xlink:title=" ">
<polygon fill="white" stroke="#666666" points="618.25,-381.88 472.5,-381.88 472.5,-362.62 618.25,-362.62 618.25,-381.88"/>
<text text-anchor="middle" x="545.38" y="-368.38" font-family="Helvetica,sans-Serif" font-size="10.00">ScalableBitmap::GetBmpSize</text>
</a>
</g>
</g>
<!-- Node26&#45;&gt;Node27 -->
<g id="edge34_Node000026_Node000027" class="edge">
<title>Node26&#45;&gt;Node27</title>
<g id="a_edge34_Node000026_Node000027"><a xlink:title=" ">
<path fill="none" stroke="#63b8ff" d="M435.08,-372.25C443.51,-372.25 452.39,-372.25 461.3,-372.25"/>
<polygon fill="#63b8ff" stroke="#63b8ff" points="461.15,-375.75 471.15,-372.25 461.15,-368.75 461.15,-375.75"/>
</a>
</g>
</g>
</g>
</svg>
