<?xml version="1.0" encoding="UTF-8" standalone="no"?>
<!DOCTYPE svg PUBLIC "-//W3C//DTD SVG 1.1//EN"
 "http://www.w3.org/Graphics/SVG/1.1/DTD/svg11.dtd">
<!-- Generated by graphviz version 8.1.0 (20230707.0739)
 -->
<!-- Title: Slic3r::GUI::PhysicalPrinterDialog::update_host_type Pages: 1 -->
<svg width="942pt" height="285pt"
 viewBox="0.00 0.00 941.75 284.88" xmlns="http://www.w3.org/2000/svg" xmlns:xlink="http://www.w3.org/1999/xlink">
<g id="graph0" class="graph" transform="scale(1 1) rotate(0) translate(4 280.88)">
<title>Slic3r::GUI::PhysicalPrinterDialog::update_host_type</title>
<!-- Node1 -->
<g id="Node000001" class="node">
<title>Node1</title>
<g id="a_Node000001"><a xlink:title=" ">
<polygon fill="#999999" stroke="#666666" points="136.75,-153.88 0,-153.88 0,-123.38 136.75,-123.38 136.75,-153.88"/>
<text text-anchor="start" x="8" y="-140.38" font-family="Helvetica,sans-Serif" font-size="10.00">Slic3r::GUI::PhysicalPrinter</text>
<text text-anchor="middle" x="68.38" y="-129.12" font-family="Helvetica,sans-Serif" font-size="10.00">Dialog::update_host_type</text>
</a>
</g>
</g>
<!-- Node2 -->
<g id="Node000002" class="node">
<title>Node2</title>
<g id="a_Node000002"><a xlink:href="../../db/dac/class_slic3r_1_1_g_u_i_1_1_options_group.html#a6c96d27a217fb0cc9b6d06fd2c50b44d" target="_top" xlink:title=" ">
<polygon fill="white" stroke="#666666" points="303.5,-276.88 172.75,-276.88 172.75,-246.38 303.5,-246.38 303.5,-276.88"/>
<text text-anchor="start" x="180.75" y="-263.38" font-family="Helvetica,sans-Serif" font-size="10.00">Slic3r::GUI::OptionsGroup</text>
<text text-anchor="middle" x="238.12" y="-252.12" font-family="Helvetica,sans-Serif" font-size="10.00">::get_field</text>
</a>
</g>
</g>
<!-- Node1&#45;&gt;Node2 -->
<g id="edge1_Node000001_Node000002" class="edge">
<title>Node1&#45;&gt;Node2</title>
<g id="a_edge1_Node000001_Node000002"><a xlink:title=" ">
<path fill="none" stroke="#63b8ff" d="M82.27,-154.17C100.51,-175.32 135.77,-213.2 172.75,-236.62 175.23,-238.19 177.82,-239.69 180.48,-241.12"/>
<polygon fill="#63b8ff" stroke="#63b8ff" points="178.83,-244.7 189.35,-245.96 181.92,-238.41 178.83,-244.7"/>
</a>
</g>
</g>
<!-- Node3 -->
<g id="Node000003" class="node">
<title>Node3</title>
<g id="a_Node000003"><a xlink:href="../../de/d87/class_slic3r_1_1_config_option.html#a48d75494e5da015b08891a6712bc3bf4" target="_top" xlink:title=" ">
<polygon fill="white" stroke="#666666" points="290,-227.88 186.25,-227.88 186.25,-197.38 290,-197.38 290,-227.88"/>
<text text-anchor="start" x="194.25" y="-214.38" font-family="Helvetica,sans-Serif" font-size="10.00">Slic3r::ConfigOption</text>
<text text-anchor="middle" x="238.12" y="-203.12" font-family="Helvetica,sans-Serif" font-size="10.00">::getInt</text>
</a>
</g>
</g>
<!-- Node1&#45;&gt;Node3 -->
<g id="edge2_Node000001_Node000003" class="edge">
<title>Node1&#45;&gt;Node3</title>
<g id="a_edge2_Node000001_Node000003"><a xlink:title=" ">
<path fill="none" stroke="#63b8ff" d="M100.78,-154.23C121.13,-164.17 148.31,-177.1 172.75,-187.62 176.84,-189.39 181.09,-191.16 185.38,-192.91"/>
<polygon fill="#63b8ff" stroke="#63b8ff" points="183.81,-196.45 194.39,-196.92 186.41,-189.95 183.81,-196.45"/>
</a>
</g>
</g>
<!-- Node4 -->
<g id="Node000004" class="node">
<title>Node4</title>
<g id="a_Node000004"><a xlink:href="../../d9/d06/class_slic3r_1_1_config_base.html#a423121494459dae7858bc9d665f8cb4f" target="_top" xlink:title=" ">
<polygon fill="white" stroke="#666666" points="287,-178.88 189.25,-178.88 189.25,-148.38 287,-148.38 287,-178.88"/>
<text text-anchor="start" x="197.25" y="-165.38" font-family="Helvetica,sans-Serif" font-size="10.00">Slic3r::ConfigBase</text>
<text text-anchor="middle" x="238.12" y="-154.12" font-family="Helvetica,sans-Serif" font-size="10.00">::option</text>
</a>
</g>
</g>
<!-- Node1&#45;&gt;Node4 -->
<g id="edge3_Node000001_Node000004" class="edge">
<title>Node1&#45;&gt;Node4</title>
<g id="a_edge3_Node000001_Node000004"><a xlink:title=" ">
<path fill="none" stroke="#63b8ff" d="M137.12,-148.72C150.69,-150.74 164.84,-152.85 178.09,-154.83"/>
<polygon fill="#63b8ff" stroke="#63b8ff" points="177.56,-158.44 187.97,-156.45 178.59,-151.51 177.56,-158.44"/>
</a>
</g>
</g>
<!-- Node6 -->
<g id="Node000006" class="node">
<title>Node6</title>
<g id="a_Node000006"><a xlink:href="../../d5/df0/class_slic3r_1_1_dynamic_config.html#a18d8e56606a5c0359c0084a7d1c77889" target="_top" xlink:title=" ">
<polygon fill="white" stroke="#666666" points="295.25,-129.88 181,-129.88 181,-99.38 295.25,-99.38 295.25,-129.88"/>
<text text-anchor="start" x="189" y="-116.38" font-family="Helvetica,sans-Serif" font-size="10.00">Slic3r::DynamicConfig</text>
<text text-anchor="middle" x="238.12" y="-105.12" font-family="Helvetica,sans-Serif" font-size="10.00">::set_key_value</text>
</a>
</g>
</g>
<!-- Node1&#45;&gt;Node6 -->
<g id="edge5_Node000001_Node000006" class="edge">
<title>Node1&#45;&gt;Node6</title>
<g id="a_edge5_Node000001_Node000006"><a xlink:title=" ">
<path fill="none" stroke="#63b8ff" d="M137.12,-128.93C147.97,-127.38 159.18,-125.78 170.01,-124.23"/>
<polygon fill="#63b8ff" stroke="#63b8ff" points="170.28,-127.58 179.68,-122.7 169.29,-120.65 170.28,-127.58"/>
</a>
</g>
</g>
<!-- Node7 -->
<g id="Node000007" class="node">
<title>Node7</title>
<g id="a_Node000007"><a xlink:href="../../d1/d58/class_slic3r_1_1_g_u_i_1_1_choice.html#abea388ba84686c3bc536bf327e932a53" target="_top" xlink:title="Redundant?">
<polygon fill="white" stroke="#666666" points="288.88,-80.88 187.38,-80.88 187.38,-50.38 288.88,-50.38 288.88,-80.88"/>
<text text-anchor="start" x="195.38" y="-67.38" font-family="Helvetica,sans-Serif" font-size="10.00">Slic3r::GUI::Choice</text>
<text text-anchor="middle" x="238.12" y="-56.12" font-family="Helvetica,sans-Serif" font-size="10.00">::set_value</text>
</a>
</g>
</g>
<!-- Node1&#45;&gt;Node7 -->
<g id="edge6_Node000001_Node000007" class="edge">
<title>Node1&#45;&gt;Node7</title>
<g id="a_edge6_Node000001_Node000007"><a xlink:title=" ">
<path fill="none" stroke="#63b8ff" d="M101.73,-122.95C121.99,-113.3 148.72,-100.86 172.75,-90.62 176.85,-88.88 181.11,-87.12 185.4,-85.38"/>
<polygon fill="#63b8ff" stroke="#63b8ff" points="186.43,-88.34 194.41,-81.37 183.83,-81.84 186.43,-88.34"/>
</a>
</g>
</g>
<!-- Node23 -->
<g id="Node000023" class="node">
<title>Node23</title>
<g id="a_Node000023"><a xlink:href="../../d1/d58/class_slic3r_1_1_g_u_i_1_1_choice.html#a8029e2b94429e08a53e4f7ee1b640227" target="_top" xlink:title="it&#39;s needed for _update_serial_ports()">
<polygon fill="white" stroke="#666666" points="288.88,-31.88 187.38,-31.88 187.38,-1.37 288.88,-1.37 288.88,-31.88"/>
<text text-anchor="start" x="195.38" y="-18.38" font-family="Helvetica,sans-Serif" font-size="10.00">Slic3r::GUI::Choice</text>
<text text-anchor="middle" x="238.12" y="-7.12" font-family="Helvetica,sans-Serif" font-size="10.00">::set_values</text>
</a>
</g>
</g>
<!-- Node1&#45;&gt;Node23 -->
<g id="edge20_Node000001_Node000023" class="edge">
<title>Node1&#45;&gt;Node23</title>
<g id="a_edge20_Node000001_Node000023"><a xlink:title=" ">
<path fill="none" stroke="#63b8ff" d="M82.61,-122.89C100.98,-101.9 136.1,-64.71 172.75,-41.62 175.23,-40.06 177.83,-38.57 180.49,-37.15"/>
<polygon fill="#63b8ff" stroke="#63b8ff" points="181.93,-39.85 189.37,-32.31 178.85,-33.57 181.93,-39.85"/>
</a>
</g>
</g>
<!-- Node5 -->
<g id="Node000005" class="node">
<title>Node5</title>
<g id="a_Node000005"><a xlink:href="../../d9/d06/class_slic3r_1_1_config_base.html#a699680b37bd3c116736fd1a2ec831728" target="_top" xlink:title=" ">
<polygon fill="white" stroke="#666666" points="451.5,-178.88 353.75,-178.88 353.75,-148.38 451.5,-148.38 451.5,-178.88"/>
<text text-anchor="start" x="361.75" y="-165.38" font-family="Helvetica,sans-Serif" font-size="10.00">Slic3r::ConfigBase</text>
<text text-anchor="middle" x="402.62" y="-154.12" font-family="Helvetica,sans-Serif" font-size="10.00">::optptr</text>
</a>
</g>
</g>
<!-- Node4&#45;&gt;Node5 -->
<g id="edge4_Node000004_Node000005" class="edge">
<title>Node4&#45;&gt;Node5</title>
<g id="a_edge4_Node000004_Node000005"><a xlink:title=" ">
<path fill="none" stroke="#63b8ff" d="M287.44,-163.62C304.8,-163.62 324.57,-163.62 342.73,-163.62"/>
<polygon fill="#63b8ff" stroke="#63b8ff" points="342.5,-167.13 352.5,-163.62 342.5,-160.13 342.5,-167.13"/>
</a>
</g>
</g>
<!-- Node8 -->
<g id="Node000008" class="node">
<title>Node8</title>
<g id="a_Node000008"><a xlink:href="../../d2/d68/class_combo_box.html#a36e8aa3882419536f05d489f5dad7058" target="_top" xlink:title=" ">
<polygon fill="white" stroke="#666666" points="465.75,-56.25 339.5,-56.25 339.5,-37 465.75,-37 465.75,-56.25"/>
<text text-anchor="middle" x="402.62" y="-42.75" font-family="Helvetica,sans-Serif" font-size="10.00">ComboBox::SetSelection</text>
</a>
</g>
</g>
<!-- Node7&#45;&gt;Node8 -->
<g id="edge7_Node000007_Node000008" class="edge">
<title>Node7&#45;&gt;Node8</title>
<g id="a_edge7_Node000007_Node000008"><a xlink:title=" ">
<path fill="none" stroke="#63b8ff" d="M289.21,-59.77C301.64,-58.32 315.23,-56.73 328.52,-55.17"/>
<polygon fill="#63b8ff" stroke="#63b8ff" points="328.56,-58.58 338.08,-53.94 327.75,-51.62 328.56,-58.58"/>
</a>
</g>
</g>
<!-- Node16 -->
<g id="Node000016" class="node">
<title>Node16</title>
<g id="a_Node000016"><a xlink:href="../../d2/d68/class_combo_box.html#a3f173491ca6d95a728a122ab55c120b2" target="_top" xlink:title=" ">
<polygon fill="white" stroke="#666666" points="457.5,-93.25 347.75,-93.25 347.75,-74 457.5,-74 457.5,-93.25"/>
<text text-anchor="middle" x="402.62" y="-79.75" font-family="Helvetica,sans-Serif" font-size="10.00">ComboBox::SetValue</text>
</a>
</g>
</g>
<!-- Node7&#45;&gt;Node16 -->
<g id="edge14_Node000007_Node000016" class="edge">
<title>Node7&#45;&gt;Node16</title>
<g id="a_edge14_Node000007_Node000016"><a xlink:title=" ">
<path fill="none" stroke="#63b8ff" d="M289.21,-71.17C304.21,-72.83 320.88,-74.68 336.7,-76.43"/>
<polygon fill="#63b8ff" stroke="#63b8ff" points="336.15,-80 346.47,-77.63 336.92,-73.05 336.15,-80"/>
</a>
</g>
</g>
<!-- Node9 -->
<g id="Node000009" class="node">
<title>Node9</title>
<g id="a_Node000009"><a xlink:href="../../dc/df0/class_drop_down.html#a205a0d4217ccf21c59922f9240114440" target="_top" xlink:title=" ">
<polygon fill="white" stroke="#666666" points="617.88,-56.25 509.62,-56.25 509.62,-37 617.88,-37 617.88,-56.25"/>
<text text-anchor="middle" x="563.75" y="-42.75" font-family="Helvetica,sans-Serif" font-size="10.00">DropDown::GetValue</text>
</a>
</g>
</g>
<!-- Node8&#45;&gt;Node9 -->
<g id="edge8_Node000008_Node000009" class="edge">
<title>Node8&#45;&gt;Node9</title>
<g id="a_edge8_Node000008_Node000009"><a xlink:title=" ">
<path fill="none" stroke="#63b8ff" d="M466.06,-46.62C476.66,-46.62 487.68,-46.62 498.33,-46.62"/>
<polygon fill="#63b8ff" stroke="#63b8ff" points="498.26,-50.13 508.26,-46.62 498.26,-43.13 498.26,-50.13"/>
</a>
</g>
</g>
<!-- Node10 -->
<g id="Node000010" class="node">
<title>Node10</title>
<g id="a_Node000010"><a xlink:href="../../d2/d68/class_combo_box.html#ad2f6a2984710832ca06ff18c2f21703f" target="_top" xlink:title=" ">
<polygon fill="white" stroke="#666666" points="618.25,-93.25 509.25,-93.25 509.25,-74 618.25,-74 618.25,-93.25"/>
<text text-anchor="middle" x="563.75" y="-79.75" font-family="Helvetica,sans-Serif" font-size="10.00">ComboBox::SetLabel</text>
</a>
</g>
</g>
<!-- Node8&#45;&gt;Node10 -->
<g id="edge9_Node000008_Node000010" class="edge">
<title>Node8&#45;&gt;Node10</title>
<g id="a_edge9_Node000008_Node000010"><a xlink:title=" ">
<path fill="none" stroke="#63b8ff" d="M447.11,-56.74C466.14,-61.16 488.67,-66.4 508.76,-71.07"/>
<polygon fill="#63b8ff" stroke="#63b8ff" points="507.79,-74.67 518.32,-73.53 509.37,-67.85 507.79,-74.67"/>
</a>
</g>
</g>
<!-- Node14 -->
<g id="Node000014" class="node">
<title>Node14</title>
<g id="a_Node000014"><a xlink:href="../../dc/df0/class_drop_down.html#af2d38e0bd96a91ead8a3d32d715dc296" target="_top" xlink:title=" ">
<polygon fill="white" stroke="#666666" points="625.75,-19.25 501.75,-19.25 501.75,0 625.75,0 625.75,-19.25"/>
<text text-anchor="middle" x="563.75" y="-5.75" font-family="Helvetica,sans-Serif" font-size="10.00">DropDown::SetSelection</text>
</a>
</g>
</g>
<!-- Node8&#45;&gt;Node14 -->
<g id="edge12_Node000008_Node000014" class="edge">
<title>Node8&#45;&gt;Node14</title>
<g id="a_edge12_Node000008_Node000014"><a xlink:title=" ">
<path fill="none" stroke="#63b8ff" d="M447.11,-36.51C466.14,-32.09 488.67,-26.85 508.76,-22.18"/>
<polygon fill="#63b8ff" stroke="#63b8ff" points="509.37,-25.4 518.32,-19.72 507.79,-18.58 509.37,-25.4"/>
</a>
</g>
</g>
<!-- Node11 -->
<g id="Node000011" class="node">
<title>Node11</title>
<g id="a_Node000011"><a xlink:href="../../d1/d18/class_text_input.html#a474baf03a1c967c5c4e29ec7c27ea4a9" target="_top" xlink:title=" ">
<polygon fill="white" stroke="#666666" points="767,-92.25 666.25,-92.25 666.25,-73 767,-73 767,-92.25"/>
<text text-anchor="middle" x="716.62" y="-78.75" font-family="Helvetica,sans-Serif" font-size="10.00">TextInput::SetLabel</text>
</a>
</g>
</g>
<!-- Node10&#45;&gt;Node11 -->
<g id="edge10_Node000010_Node000011" class="edge">
<title>Node10&#45;&gt;Node11</title>
<g id="a_edge10_Node000010_Node000011"><a xlink:title=" ">
<path fill="none" stroke="#63b8ff" d="M618.37,-83.27C630.23,-83.19 642.89,-83.11 655.01,-83.03"/>
<polygon fill="#63b8ff" stroke="#63b8ff" points="654.98,-86.52 664.96,-82.95 654.94,-79.52 654.98,-86.52"/>
</a>
</g>
</g>
<!-- Node12 -->
<g id="Node000012" class="node">
<title>Node12</title>
<g id="a_Node000012"><a xlink:href="../../d1/d18/class_text_input.html#a3c6926c7e440ca591e83934efa3eef02" target="_top" xlink:title=" ">
<polygon fill="#fff0f0" stroke="red" points="930.38,-91.25 810.88,-91.25 810.88,-72 930.38,-72 930.38,-91.25"/>
<text text-anchor="middle" x="870.62" y="-77.75" font-family="Helvetica,sans-Serif" font-size="10.00">TextInput::messureSize</text>
</a>
</g>
</g>
<!-- Node11&#45;&gt;Node12 -->
<g id="edge11_Node000011_Node000012" class="edge">
<title>Node11&#45;&gt;Node12</title>
<g id="a_edge11_Node000011_Node000012"><a xlink:title=" ">
<path fill="none" stroke="#63b8ff" d="M767.4,-82.3C777.72,-82.23 788.78,-82.16 799.68,-82.09"/>
<polygon fill="#63b8ff" stroke="#63b8ff" points="799.5,-85.58 809.48,-82.01 799.46,-78.58 799.5,-85.58"/>
</a>
</g>
</g>
<!-- Node15 -->
<g id="Node000015" class="node">
<title>Node15</title>
<g id="a_Node000015"><a xlink:href="../../dc/df0/class_drop_down.html#a626569282998d09ef83c313ecb87205e" target="_top" xlink:title=" ">
<polygon fill="white" stroke="#666666" points="771.5,-19.25 661.75,-19.25 661.75,0 771.5,0 771.5,-19.25"/>
<text text-anchor="middle" x="716.62" y="-5.75" font-family="Helvetica,sans-Serif" font-size="10.00">DropDown::paintNow</text>
</a>
</g>
</g>
<!-- Node14&#45;&gt;Node15 -->
<g id="edge13_Node000014_Node000015" class="edge">
<title>Node14&#45;&gt;Node15</title>
<g id="a_edge13_Node000014_Node000015"><a xlink:title=" ">
<path fill="none" stroke="#63b8ff" d="M626.12,-9.62C634.19,-9.62 642.49,-9.62 650.63,-9.62"/>
<polygon fill="#63b8ff" stroke="#63b8ff" points="650.58,-13.13 660.58,-9.62 650.58,-6.13 650.58,-13.13"/>
</a>
</g>
</g>
<!-- Node16&#45;&gt;Node10 -->
<g id="edge15_Node000016_Node000010" class="edge">
<title>Node16&#45;&gt;Node10</title>
<g id="a_edge15_Node000016_Node000010"><a xlink:title=" ">
<path fill="none" stroke="#63b8ff" d="M457.94,-83.62C470.81,-83.62 484.67,-83.62 497.96,-83.62"/>
<polygon fill="#63b8ff" stroke="#63b8ff" points="497.95,-87.13 507.95,-83.62 497.95,-80.13 497.95,-87.13"/>
</a>
</g>
</g>
<!-- Node17 -->
<g id="Node000017" class="node">
<title>Node17</title>
<g id="a_Node000017"><a xlink:href="../../dc/df0/class_drop_down.html#abe9794a177d0a37433fc643f7bb9f50b" target="_top" xlink:title=" ">
<polygon fill="white" stroke="#666666" points="617.5,-133.25 510,-133.25 510,-114 617.5,-114 617.5,-133.25"/>
<text text-anchor="middle" x="563.75" y="-119.75" font-family="Helvetica,sans-Serif" font-size="10.00">DropDown::SetValue</text>
</a>
</g>
</g>
<!-- Node16&#45;&gt;Node17 -->
<g id="edge16_Node000016_Node000017" class="edge">
<title>Node16&#45;&gt;Node17</title>
<g id="a_edge16_Node000016_Node000017"><a xlink:title=" ">
<path fill="none" stroke="#63b8ff" d="M443.78,-93.72C464.51,-98.93 490.01,-105.34 512.09,-110.89"/>
<polygon fill="#63b8ff" stroke="#63b8ff" points="511.06,-114.49 521.61,-113.53 512.76,-107.7 511.06,-114.49"/>
</a>
</g>
</g>
<!-- Node18 -->
<g id="Node000018" class="node">
<title>Node18</title>
<g id="a_Node000018"><a xlink:href="../../d8/dcc/namespacestd.html#af4bc231d061945eb59dbba98a117ece9" target="_top" xlink:title=" ">
<polygon fill="white" stroke="#666666" points="752.75,-134.25 680.5,-134.25 680.5,-115 752.75,-115 752.75,-134.25"/>
<text text-anchor="middle" x="716.62" y="-120.75" font-family="Helvetica,sans-Serif" font-size="10.00">std::distance</text>
</a>
</g>
</g>
<!-- Node17&#45;&gt;Node18 -->
<g id="edge17_Node000017_Node000018" class="edge">
<title>Node17&#45;&gt;Node18</title>
<g id="a_edge17_Node000017_Node000018"><a xlink:title=" ">
<path fill="none" stroke="#63b8ff" d="M617.94,-123.98C634.76,-124.09 653.2,-124.21 669.49,-124.32"/>
<polygon fill="#63b8ff" stroke="#63b8ff" points="669.34,-127.82 679.37,-124.39 669.39,-120.83 669.34,-127.82"/>
</a>
</g>
</g>
<!-- Node19 -->
<g id="Node000019" class="node">
<title>Node19</title>
<g id="a_Node000019"><a xlink:href="../../d7/d63/classhmesh__t.html#a19678c4e4889230aa87ea59b4ec047c8" target="_top" xlink:title=" ">
<polygon fill="#fff0f0" stroke="red" points="933.75,-139.88 807.5,-139.88 807.5,-109.38 933.75,-109.38 933.75,-139.88"/>
<text text-anchor="start" x="815.5" y="-126.38" font-family="Helvetica,sans-Serif" font-size="10.00">hmesh_t::count_removed</text>
<text text-anchor="middle" x="870.62" y="-115.12" font-family="Helvetica,sans-Serif" font-size="10.00">_elements_in_range</text>
</a>
</g>
</g>
<!-- Node18&#45;&gt;Node19 -->
<g id="edge18_Node000018_Node000019" class="edge">
<title>Node18&#45;&gt;Node19</title>
<g id="a_edge18_Node000018_Node000019"><a xlink:title=" ">
<path fill="none" stroke="#63b8ff" d="M752.88,-124.62C765.86,-124.62 781.1,-124.62 796.2,-124.62"/>
<polygon fill="#63b8ff" stroke="#63b8ff" points="796.14,-128.13 806.14,-124.62 796.14,-121.13 796.14,-128.13"/>
</a>
</g>
</g>
<!-- Node22 -->
<g id="Node000022" class="node">
<title>Node22</title>
<g id="a_Node000022"><a xlink:href="../../d8/d9b/classarray__iterator__t.html#ac73b2d71bcaaa8f9fb198b061a58803a" target="_top" xlink:title=" ">
<polygon fill="white" stroke="#666666" points="921,-188.88 820.25,-188.88 820.25,-158.38 921,-158.38 921,-188.88"/>
<text text-anchor="start" x="828.25" y="-175.38" font-family="Helvetica,sans-Serif" font-size="10.00">array_iterator_t::get</text>
<text text-anchor="middle" x="870.62" y="-164.12" font-family="Helvetica,sans-Serif" font-size="10.00">_mesh_ptr</text>
</a>
</g>
</g>
<!-- Node18&#45;&gt;Node22 -->
<g id="edge19_Node000018_Node000022" class="edge">
<title>Node18&#45;&gt;Node22</title>
<g id="a_edge19_Node000018_Node000022"><a xlink:title=" ">
<path fill="none" stroke="#63b8ff" d="M748.75,-134.66C766.59,-140.41 789.57,-147.82 810.69,-154.63"/>
<polygon fill="#63b8ff" stroke="#63b8ff" points="809.29,-158.17 819.88,-157.91 811.44,-151.51 809.29,-158.17"/>
</a>
</g>
</g>
</g>
</svg>
