<?xml version="1.0" encoding="UTF-8" standalone="no"?>
<!DOCTYPE svg PUBLIC "-//W3C//DTD SVG 1.1//EN"
 "http://www.w3.org/Graphics/SVG/1.1/DTD/svg11.dtd">
<!-- Generated by graphviz version 8.1.0 (20230707.0739)
 -->
<!-- Title: orgQhull::QhullHyperplane::coordinates Pages: 1 -->
<svg width="470pt" height="419pt"
 viewBox="0.00 0.00 470.00 418.50" xmlns="http://www.w3.org/2000/svg" xmlns:xlink="http://www.w3.org/1999/xlink">
<g id="graph0" class="graph" transform="scale(1 1) rotate(0) translate(4 414.5)">
<title>orgQhull::QhullHyperplane::coordinates</title>
<!-- Node1 -->
<g id="Node000001" class="node">
<title>Node1</title>
<g id="a_Node000001"><a xlink:title=" ">
<polygon fill="#999999" stroke="#666666" points="462,-226.5 332,-226.5 332,-196 462,-196 462,-226.5"/>
<text text-anchor="start" x="340" y="-213" font-family="Helvetica,sans-Serif" font-size="10.00">orgQhull::QhullHyperplane</text>
<text text-anchor="middle" x="397" y="-201.75" font-family="Helvetica,sans-Serif" font-size="10.00">::coordinates</text>
</a>
</g>
</g>
<!-- Node2 -->
<g id="Node000002" class="node">
<title>Node2</title>
<g id="a_Node000002"><a xlink:href="../../d0/dc6/classorg_qhull_1_1_qhull_hyperplane.html#a3c4e77761ad6521ab57506b2f86f0c29" target="_top" xlink:title="Creates an alias to other using the same qh_qh.">
<polygon fill="white" stroke="#666666" points="296,-410.5 166,-410.5 166,-380 296,-380 296,-410.5"/>
<text text-anchor="start" x="174" y="-397" font-family="Helvetica,sans-Serif" font-size="10.00">orgQhull::QhullHyperplane</text>
<text text-anchor="middle" x="231" y="-385.75" font-family="Helvetica,sans-Serif" font-size="10.00">::defineAs</text>
</a>
</g>
</g>
<!-- Node1&#45;&gt;Node2 -->
<g id="edge1_Node000001_Node000002" class="edge">
<title>Node1&#45;&gt;Node2</title>
<g id="a_edge1_Node000001_Node000002"><a xlink:title=" ">
<path fill="none" stroke="#63b8ff" d="M386.17,-236.46C371.48,-271.1 340.64,-333.34 296,-370.25 291.68,-373.82 286.79,-376.93 281.68,-379.61"/>
<polygon fill="#63b8ff" stroke="#63b8ff" points="389.64,-238.23 390.21,-227.65 383.17,-235.56 389.64,-238.23"/>
</a>
</g>
</g>
<!-- Node3 -->
<g id="Node000003" class="node">
<title>Node3</title>
<g id="a_Node000003"><a xlink:href="../../d0/dc6/classorg_qhull_1_1_qhull_hyperplane.html#aed93fd1851b99a6dd70ada4cf7539f23" target="_top" xlink:title="Return distance from point to hyperplane. If greater than zero, the point is above the facet (i....">
<polygon fill="white" stroke="#666666" points="296,-361.5 166,-361.5 166,-331 296,-331 296,-361.5"/>
<text text-anchor="start" x="174" y="-348" font-family="Helvetica,sans-Serif" font-size="10.00">orgQhull::QhullHyperplane</text>
<text text-anchor="middle" x="231" y="-336.75" font-family="Helvetica,sans-Serif" font-size="10.00">::distance</text>
</a>
</g>
</g>
<!-- Node1&#45;&gt;Node3 -->
<g id="edge2_Node000001_Node000003" class="edge">
<title>Node1&#45;&gt;Node3</title>
<g id="a_edge2_Node000001_Node000003"><a xlink:title=" ">
<path fill="none" stroke="#63b8ff" d="M379.18,-235.55C361.1,-260.08 330.31,-297.64 296,-321.25 290.89,-324.77 285.22,-327.89 279.42,-330.62"/>
<polygon fill="#63b8ff" stroke="#63b8ff" points="382.45,-237.99 385.46,-227.84 376.77,-233.9 382.45,-237.99"/>
</a>
</g>
</g>
<!-- Node6 -->
<g id="Node000006" class="node">
<title>Node6</title>
<g id="a_Node000006"><a xlink:href="../../d0/dc6/classorg_qhull_1_1_qhull_hyperplane.html#a2b947592045fc0d4c1bcf5607bcf3d00" target="_top" xlink:title=" ">
<polygon fill="white" stroke="#666666" points="296,-312.5 166,-312.5 166,-282 296,-282 296,-312.5"/>
<text text-anchor="start" x="174" y="-299" font-family="Helvetica,sans-Serif" font-size="10.00">orgQhull::QhullHyperplane</text>
<text text-anchor="middle" x="231" y="-287.75" font-family="Helvetica,sans-Serif" font-size="10.00">::norm</text>
</a>
</g>
</g>
<!-- Node1&#45;&gt;Node6 -->
<g id="edge5_Node000001_Node000006" class="edge">
<title>Node1&#45;&gt;Node6</title>
<g id="a_edge5_Node000001_Node000006"><a xlink:title=" ">
<path fill="none" stroke="#63b8ff" d="M364.77,-232.83C345.49,-245.58 319.95,-261.48 296,-273.25 290.04,-276.18 283.62,-278.98 277.23,-281.56"/>
<polygon fill="#63b8ff" stroke="#63b8ff" points="366.33,-235.32 372.69,-226.85 362.44,-229.51 366.33,-235.32"/>
</a>
</g>
</g>
<!-- Node8 -->
<g id="Node000008" class="node">
<title>Node8</title>
<g id="a_Node000008"><a xlink:href="../../da/dc9/_qhull_hyperplane_8cpp.html#a8904b9566be995a37cc3132e160d1f1f" target="_top" xlink:title=" ">
<polygon fill="white" stroke="#666666" points="262.62,-263.88 199.38,-263.88 199.38,-244.62 262.62,-244.62 262.62,-263.88"/>
<text text-anchor="middle" x="231" y="-250.38" font-family="Helvetica,sans-Serif" font-size="10.00">operator&lt;&lt;</text>
</a>
</g>
</g>
<!-- Node1&#45;&gt;Node8 -->
<g id="edge8_Node000001_Node000008" class="edge">
<title>Node1&#45;&gt;Node8</title>
<g id="a_edge8_Node000001_Node000008"><a xlink:title=" ">
<path fill="none" stroke="#63b8ff" d="M325.97,-229.61C303.93,-235.39 280.7,-241.48 262.86,-246.16"/>
<polygon fill="#63b8ff" stroke="#63b8ff" points="326.54,-232.82 335.33,-226.9 324.77,-226.05 326.54,-232.82"/>
</a>
</g>
</g>
<!-- Node9 -->
<g id="Node000009" class="node">
<title>Node9</title>
<g id="a_Node000009"><a xlink:href="../../d4/d1e/classorg_qhull_1_1_qhull_hyperplane__test.html#a12becf84a78dce465ba63c2ed94cfea4" target="_top" xlink:title=" ">
<polygon fill="white" stroke="#666666" points="296,-226.5 166,-226.5 166,-196 296,-196 296,-226.5"/>
<text text-anchor="start" x="174" y="-213" font-family="Helvetica,sans-Serif" font-size="10.00">orgQhull::QhullHyperplane</text>
<text text-anchor="middle" x="231" y="-201.75" font-family="Helvetica,sans-Serif" font-size="10.00">_test::t_construct</text>
</a>
</g>
</g>
<!-- Node1&#45;&gt;Node9 -->
<g id="edge9_Node000001_Node000009" class="edge">
<title>Node1&#45;&gt;Node9</title>
<g id="a_edge9_Node000001_Node000009"><a xlink:title=" ">
<path fill="none" stroke="#63b8ff" d="M320.69,-211.25C312.58,-211.25 304.39,-211.25 296.43,-211.25"/>
<polygon fill="#63b8ff" stroke="#63b8ff" points="320.65,-214.75 330.65,-211.25 320.65,-207.75 320.65,-214.75"/>
</a>
</g>
</g>
<!-- Node10 -->
<g id="Node000010" class="node">
<title>Node10</title>
<g id="a_Node000010"><a xlink:href="../../d4/d1e/classorg_qhull_1_1_qhull_hyperplane__test.html#adce1926eda3a2a89f79bff7401eb2d36" target="_top" xlink:title=" ">
<polygon fill="white" stroke="#666666" points="296,-177.5 166,-177.5 166,-147 296,-147 296,-177.5"/>
<text text-anchor="start" x="174" y="-164" font-family="Helvetica,sans-Serif" font-size="10.00">orgQhull::QhullHyperplane</text>
<text text-anchor="middle" x="231" y="-152.75" font-family="Helvetica,sans-Serif" font-size="10.00">_test::t_construct_qh</text>
</a>
</g>
</g>
<!-- Node1&#45;&gt;Node10 -->
<g id="edge10_Node000001_Node000010" class="edge">
<title>Node1&#45;&gt;Node10</title>
<g id="a_edge10_Node000001_Node000010"><a xlink:title=" ">
<path fill="none" stroke="#63b8ff" d="M333.3,-192.52C317.25,-187.72 300.17,-182.62 284.69,-177.99"/>
<polygon fill="#63b8ff" stroke="#63b8ff" points="332.08,-196.1 342.66,-195.61 334.08,-189.4 332.08,-196.1"/>
</a>
</g>
</g>
<!-- Node11 -->
<g id="Node000011" class="node">
<title>Node11</title>
<g id="a_Node000011"><a xlink:href="../../d4/d1e/classorg_qhull_1_1_qhull_hyperplane__test.html#adcd6af5c30056eab949547b353a13f45" target="_top" xlink:title=" ">
<polygon fill="white" stroke="#666666" points="296,-128.5 166,-128.5 166,-98 296,-98 296,-128.5"/>
<text text-anchor="start" x="174" y="-115" font-family="Helvetica,sans-Serif" font-size="10.00">orgQhull::QhullHyperplane</text>
<text text-anchor="middle" x="231" y="-103.75" font-family="Helvetica,sans-Serif" font-size="10.00">_test::t_define</text>
</a>
</g>
</g>
<!-- Node1&#45;&gt;Node11 -->
<g id="edge11_Node000001_Node000011" class="edge">
<title>Node1&#45;&gt;Node11</title>
<g id="a_edge11_Node000001_Node000011"><a xlink:title=" ">
<path fill="none" stroke="#63b8ff" d="M369.47,-188.94C350.01,-173.33 322.48,-152.77 296,-138.25 289.83,-134.87 283.1,-131.71 276.41,-128.87"/>
<polygon fill="#63b8ff" stroke="#63b8ff" points="366.84,-192.13 376.8,-195.72 371.25,-186.7 366.84,-192.13"/>
</a>
</g>
</g>
<!-- Node12 -->
<g id="Node000012" class="node">
<title>Node12</title>
<g id="a_Node000012"><a xlink:href="../../d4/d1e/classorg_qhull_1_1_qhull_hyperplane__test.html#a88e79bc3cd68c4d6f2482e1accde1f2a" target="_top" xlink:title=" ">
<polygon fill="white" stroke="#666666" points="296,-79.5 166,-79.5 166,-49 296,-49 296,-79.5"/>
<text text-anchor="start" x="174" y="-66" font-family="Helvetica,sans-Serif" font-size="10.00">orgQhull::QhullHyperplane</text>
<text text-anchor="middle" x="231" y="-54.75" font-family="Helvetica,sans-Serif" font-size="10.00">_test::t_operator</text>
</a>
</g>
</g>
<!-- Node1&#45;&gt;Node12 -->
<g id="edge12_Node000001_Node000012" class="edge">
<title>Node1&#45;&gt;Node12</title>
<g id="a_edge12_Node000001_Node000012"><a xlink:title=" ">
<path fill="none" stroke="#63b8ff" d="M381.14,-186.35C363.78,-159.16 332.7,-115.92 296,-89.25 291.17,-85.74 285.79,-82.65 280.26,-79.95"/>
<polygon fill="#63b8ff" stroke="#63b8ff" points="378.64,-187.96 386.9,-194.59 384.58,-184.25 378.64,-187.96"/>
</a>
</g>
</g>
<!-- Node13 -->
<g id="Node000013" class="node">
<title>Node13</title>
<g id="a_Node000013"><a xlink:href="../../d4/d1e/classorg_qhull_1_1_qhull_hyperplane__test.html#a15f8684dfed2a6f92b4364468ba89396" target="_top" xlink:title=" ">
<polygon fill="white" stroke="#666666" points="296,-30.5 166,-30.5 166,0 296,0 296,-30.5"/>
<text text-anchor="start" x="174" y="-17" font-family="Helvetica,sans-Serif" font-size="10.00">orgQhull::QhullHyperplane</text>
<text text-anchor="middle" x="231" y="-5.75" font-family="Helvetica,sans-Serif" font-size="10.00">_test::t_readonly</text>
</a>
</g>
</g>
<!-- Node1&#45;&gt;Node13 -->
<g id="edge13_Node000001_Node000013" class="edge">
<title>Node1&#45;&gt;Node13</title>
<g id="a_edge13_Node000001_Node000013"><a xlink:title=" ">
<path fill="none" stroke="#63b8ff" d="M387.29,-185.75C373.45,-148.82 343.12,-80.51 296,-40.25 291.83,-36.69 287.09,-33.6 282.12,-30.92"/>
<polygon fill="#63b8ff" stroke="#63b8ff" points="384.2,-186.5 390.9,-194.71 390.78,-184.11 384.2,-186.5"/>
</a>
</g>
</g>
<!-- Node4 -->
<g id="Node000004" class="node">
<title>Node4</title>
<g id="a_Node000004"><a xlink:href="../../d3/d21/classorg_qhull_1_1_qhull_facet.html#afadbf2fe62adbb5dfd87c525418f55fd" target="_top" xlink:title=" ">
<polygon fill="white" stroke="#666666" points="117.62,-385.5 12.38,-385.5 12.38,-355 117.62,-355 117.62,-385.5"/>
<text text-anchor="start" x="20.38" y="-372" font-family="Helvetica,sans-Serif" font-size="10.00">orgQhull::QhullFacet</text>
<text text-anchor="middle" x="65" y="-360.75" font-family="Helvetica,sans-Serif" font-size="10.00">::distance</text>
</a>
</g>
</g>
<!-- Node3&#45;&gt;Node4 -->
<g id="edge3_Node000003_Node000004" class="edge">
<title>Node3&#45;&gt;Node4</title>
<g id="a_edge3_Node000003_Node000004"><a xlink:title=" ">
<path fill="none" stroke="#63b8ff" d="M154.81,-357.25C142.37,-359.07 129.72,-360.93 118.02,-362.64"/>
<polygon fill="#63b8ff" stroke="#63b8ff" points="155.27,-360.58 164.65,-355.67 154.25,-353.65 155.27,-360.58"/>
</a>
</g>
</g>
<!-- Node5 -->
<g id="Node000005" class="node">
<title>Node5</title>
<g id="a_Node000005"><a xlink:href="../../d4/d1e/classorg_qhull_1_1_qhull_hyperplane__test.html#a19d24a0c7c1866c1145838988c680f50" target="_top" xlink:title=" ">
<polygon fill="white" stroke="#666666" points="130,-336.5 0,-336.5 0,-306 130,-306 130,-336.5"/>
<text text-anchor="start" x="8" y="-323" font-family="Helvetica,sans-Serif" font-size="10.00">orgQhull::QhullHyperplane</text>
<text text-anchor="middle" x="65" y="-311.75" font-family="Helvetica,sans-Serif" font-size="10.00">_test::t_value</text>
</a>
</g>
</g>
<!-- Node3&#45;&gt;Node5 -->
<g id="edge4_Node000003_Node000005" class="edge">
<title>Node3&#45;&gt;Node5</title>
<g id="a_edge4_Node000003_Node000005"><a xlink:title=" ">
<path fill="none" stroke="#63b8ff" d="M154.96,-334.81C146.77,-333.56 138.48,-332.3 130.43,-331.07"/>
<polygon fill="#63b8ff" stroke="#63b8ff" points="154.24,-338.39 164.65,-336.44 155.3,-331.47 154.24,-338.39"/>
</a>
</g>
</g>
<!-- Node6&#45;&gt;Node5 -->
<g id="edge7_Node000006_Node000005" class="edge">
<title>Node6&#45;&gt;Node5</title>
<g id="a_edge7_Node000006_Node000005"><a xlink:title=" ">
<path fill="none" stroke="#63b8ff" d="M154.96,-308.23C146.77,-309.43 138.48,-310.64 130.43,-311.82"/>
<polygon fill="#63b8ff" stroke="#63b8ff" points="155.27,-311.58 164.65,-306.67 154.25,-304.65 155.27,-311.58"/>
</a>
</g>
</g>
<!-- Node7 -->
<g id="Node000007" class="node">
<title>Node7</title>
<g id="a_Node000007"><a xlink:href="../../de/da9/classorg_qhull_1_1_qhull_facet__test.html#a02fa7e589f76bd56eb3ddc3e8a99c6ef" target="_top" xlink:title=" ">
<polygon fill="white" stroke="#666666" points="117.62,-287.5 12.38,-287.5 12.38,-257 117.62,-257 117.62,-287.5"/>
<text text-anchor="start" x="20.38" y="-274" font-family="Helvetica,sans-Serif" font-size="10.00">orgQhull::QhullFacet</text>
<text text-anchor="middle" x="65" y="-262.75" font-family="Helvetica,sans-Serif" font-size="10.00">_test::t_getSet</text>
</a>
</g>
</g>
<!-- Node6&#45;&gt;Node7 -->
<g id="edge6_Node000006_Node000007" class="edge">
<title>Node6&#45;&gt;Node7</title>
<g id="a_edge6_Node000006_Node000007"><a xlink:title=" ">
<path fill="none" stroke="#63b8ff" d="M154.81,-285.79C142.37,-283.89 129.72,-281.96 118.02,-280.18"/>
<polygon fill="#63b8ff" stroke="#63b8ff" points="154.24,-289.39 164.65,-287.44 155.3,-282.47 154.24,-289.39"/>
</a>
</g>
</g>
</g>
</svg>
