<?xml version="1.0" encoding="UTF-8" standalone="no"?>
<!DOCTYPE svg PUBLIC "-//W3C//DTD SVG 1.1//EN"
 "http://www.w3.org/Graphics/SVG/1.1/DTD/svg11.dtd">
<!-- Generated by graphviz version 8.1.0 (20230707.0739)
 -->
<!-- Title: orgQhull::Coordinates::lastIndexOf Pages: 1 -->
<svg width="412pt" height="109pt"
 viewBox="0.00 0.00 411.50 108.50" xmlns="http://www.w3.org/2000/svg" xmlns:xlink="http://www.w3.org/1999/xlink">

<svg id="main" version="1.1" xmlns="http://www.w3.org/2000/svg" xmlns:xlink="http://www.w3.org/1999/xlink" xml:space="preserve" onload="init(evt)">
<style type="text/css"><![CDATA[
.node, .edge {opacity: 0.7;}
.node.selected, .edge.selected {opacity: 1;}
.edge:hover path { stroke: red; }
.edge:hover polygon { stroke: red; fill: red; }
]]></style>
<script type="application/ecmascript" xlink:href="../../svg.min.js"/>
<svg id="graph" class="graph">
<g id="graph0" class="graph" transform="scale(1 1) rotate(0) translate(4 104.5)">
<title>orgQhull::Coordinates::lastIndexOf</title>
<!-- Node1 -->
<g id="Node000001" class="node">
<title>Node1</title>
<g id="a_Node000001"><a xlink:title=" ">
<polygon fill="#999999" stroke="#666666" points="110.5,-79.5 0,-79.5 0,-49 110.5,-49 110.5,-79.5"/>
<text text-anchor="start" x="8" y="-66" font-family="Helvetica,sans-Serif" font-size="10.00">orgQhull::Coordinates</text>
<text text-anchor="middle" x="55.25" y="-54.75" font-family="Helvetica,sans-Serif" font-size="10.00">::lastIndexOf</text>
</a>
</g>
</g>
<!-- Node2 -->
<g id="Node000002" class="node">
<title>Node2</title>
<g id="a_Node000002"><a xlink:href="../../d5/d4a/classorg_qhull_1_1_coordinates.html#a62db65382ff4d5513bc9f310934779b8" target="_top" xlink:title=" ">
<polygon fill="white" stroke="#666666" points="403.5,-100.5 293,-100.5 293,-70 403.5,-70 403.5,-100.5"/>
<text text-anchor="start" x="301" y="-87" font-family="Helvetica,sans-Serif" font-size="10.00">orgQhull::Coordinates</text>
<text text-anchor="middle" x="348.25" y="-75.75" font-family="Helvetica,sans-Serif" font-size="10.00">::begin</text>
</a>
</g>
</g>
<!-- Node1&#45;&gt;Node2 -->
<g id="edge1_Node000001_Node000002" class="edge">
<title>Node1&#45;&gt;Node2</title>
<g id="a_edge1_Node000001_Node000002"><a xlink:title=" ">
<path fill="none" stroke="#63b8ff" d="M105.91,-79.93C118.98,-83.37 133.16,-86.51 146.5,-88.25 191.52,-94.13 242.7,-93.25 282.11,-90.97"/>
<polygon fill="#63b8ff" stroke="#63b8ff" points="282.14,-94.41 291.9,-90.29 281.7,-87.43 282.14,-94.41"/>
</a>
</g>
</g>
<!-- Node3 -->
<g id="Node000003" class="node">
<title>Node3</title>
<g id="a_Node000003"><a xlink:href="../../d5/d4a/classorg_qhull_1_1_coordinates.html#aed8df3c4b6879f42cea45115d585d138" target="_top" xlink:title=" ">
<polygon fill="white" stroke="#666666" points="257,-79.5 146.5,-79.5 146.5,-49 257,-49 257,-79.5"/>
<text text-anchor="start" x="154.5" y="-66" font-family="Helvetica,sans-Serif" font-size="10.00">orgQhull::Coordinates</text>
<text text-anchor="middle" x="201.75" y="-54.75" font-family="Helvetica,sans-Serif" font-size="10.00">::constBegin</text>
</a>
</g>
</g>
<!-- Node1&#45;&gt;Node3 -->
<g id="edge2_Node000001_Node000003" class="edge">
<title>Node1&#45;&gt;Node3</title>
<g id="a_edge2_Node000001_Node000003"><a xlink:title=" ">
<path fill="none" stroke="#63b8ff" d="M110.88,-64.25C118.79,-64.25 127,-64.25 135.1,-64.25"/>
<polygon fill="#63b8ff" stroke="#63b8ff" points="135.04,-67.75 145.04,-64.25 135.04,-60.75 135.04,-67.75"/>
</a>
</g>
</g>
<!-- Node4 -->
<g id="Node000004" class="node">
<title>Node4</title>
<g id="a_Node000004"><a xlink:href="../../d5/d4a/classorg_qhull_1_1_coordinates.html#addc5dbc4a52f09e726f745847b4fbaaa" target="_top" xlink:title=" ">
<polygon fill="white" stroke="#666666" points="257,-30.5 146.5,-30.5 146.5,0 257,0 257,-30.5"/>
<text text-anchor="start" x="154.5" y="-17" font-family="Helvetica,sans-Serif" font-size="10.00">orgQhull::Coordinates</text>
<text text-anchor="middle" x="201.75" y="-5.75" font-family="Helvetica,sans-Serif" font-size="10.00">::count</text>
</a>
</g>
</g>
<!-- Node1&#45;&gt;Node4 -->
<g id="edge4_Node000001_Node000004" class="edge">
<title>Node1&#45;&gt;Node4</title>
<g id="a_edge4_Node000001_Node000004"><a xlink:title=" ">
<path fill="none" stroke="#63b8ff" d="M102.37,-48.61C115.66,-44.1 130.32,-39.13 144.18,-34.43"/>
<polygon fill="#63b8ff" stroke="#63b8ff" points="145.23,-37.43 153.57,-30.91 142.98,-30.8 145.23,-37.43"/>
</a>
</g>
</g>
<!-- Node3&#45;&gt;Node2 -->
<g id="edge3_Node000003_Node000002" class="edge">
<title>Node3&#45;&gt;Node2</title>
<g id="a_edge3_Node000003_Node000002"><a xlink:title=" ">
<path fill="none" stroke="#63b8ff" d="M257.38,-72.19C265.38,-73.35 273.69,-74.56 281.88,-75.75"/>
<polygon fill="#63b8ff" stroke="#63b8ff" points="281.14,-79.32 291.54,-77.3 282.15,-72.4 281.14,-79.32"/>
</a>
</g>
</g>
<!-- Node5 -->
<g id="Node000005" class="node">
<title>Node5</title>
<g id="a_Node000005"><a xlink:href="../../d5/d4a/classorg_qhull_1_1_coordinates.html#a732c6046ed188d48f34fe3a8d8c226ae" target="_top" xlink:title=" ">
<polygon fill="white" stroke="#666666" points="403.5,-30.5 293,-30.5 293,0 403.5,0 403.5,-30.5"/>
<text text-anchor="start" x="301" y="-17" font-family="Helvetica,sans-Serif" font-size="10.00">orgQhull::Coordinates</text>
<text text-anchor="middle" x="348.25" y="-5.75" font-family="Helvetica,sans-Serif" font-size="10.00">::size</text>
</a>
</g>
</g>
<!-- Node4&#45;&gt;Node5 -->
<g id="edge5_Node000004_Node000005" class="edge">
<title>Node4&#45;&gt;Node5</title>
<g id="a_edge5_Node000004_Node000005"><a xlink:title=" ">
<path fill="none" stroke="#63b8ff" d="M257.38,-15.25C265.29,-15.25 273.5,-15.25 281.6,-15.25"/>
<polygon fill="#63b8ff" stroke="#63b8ff" points="281.54,-18.75 291.54,-15.25 281.54,-11.75 281.54,-18.75"/>
</a>
</g>
</g>
</g>
</svg>
</svg>

<style type='text/css'>
<![CDATA[
[data-mouse-over-selected='false'] { opacity: 0.7; }
[data-mouse-over-selected='true']  { opacity: 1.0; }
]]>
</style>
<script type="application/ecmascript"><![CDATA[
document.addEventListener('DOMContentLoaded', (event) => {
  highlightEdges();
  highlightAdjacentNodes();
});
]]></script>
</svg>
