<?xml version="1.0" encoding="UTF-8" standalone="no"?>
<!DOCTYPE svg PUBLIC "-//W3C//DTD SVG 1.1//EN"
 "http://www.w3.org/Graphics/SVG/1.1/DTD/svg11.dtd">
<!-- Generated by graphviz version 8.1.0 (20230707.0739)
 -->
<!-- Title: orgQhull::Coordinates::takeLast Pages: 1 -->
<!--zoomable 128 -->

<svg id="main" version="1.1" xmlns="http://www.w3.org/2000/svg" xmlns:xlink="http://www.w3.org/1999/xlink" xml:space="preserve" onload="init(evt)">
<style type="text/css"><![CDATA[
.node, .edge {opacity: 0.7;}
.node.selected, .edge.selected {opacity: 1;}
.edge:hover path { stroke: red; }
.edge:hover polygon { stroke: red; fill: red; }
]]></style>

<defs>
  <circle id="rim" cx="0" cy="0" r="7"/>
  <circle id="rim2" cx="0" cy="0" r="3.5"/>
  <g id="zoomPlus">
    <use xlink:href="#rim" fill="#404040"><set attributeName="fill" to="#808080" begin="zoomplus.mouseover" end="zoomplus.mouseout"/></use>
    <path d="M-4,0h8M0,-4v8" fill="none" stroke="white" stroke-width="1.5" pointer-events="none"/>
  </g>
  <g id="zoomMin">
    <use xlink:href="#rim" fill="#404040"><set attributeName="fill" to="#808080" begin="zoomminus.mouseover" end="zoomminus.mouseout"/></use>
    <path d="M-4,0h8" fill="none" stroke="white" stroke-width="1.5" pointer-events="none"/>
  </g>
  <g id="arrowUp" transform="translate(30 24)">
    <use xlink:href="#rim"/>
    <path pointer-events="none" fill="none" stroke="white" stroke-width="1.5" d="M0,-3.0v7 M-2.5,-0.5L0,-3.0L2.5,-0.5"/>
  </g>
  <g id="arrowRight" transform="rotate(90) translate(36 -43)">
    <use xlink:href="#rim"/>
    <path pointer-events="none" fill="none" stroke="white" stroke-width="1.5" d="M0,-3.0v7 M-2.5,-0.5L0,-3.0L2.5,-0.5"/>
  </g>
  <g id="arrowDown" transform="rotate(180) translate(-30 -48)">
    <use xlink:href="#rim"/>
    <path pointer-events="none" fill="none" stroke="white" stroke-width="1.5" d="M0,-3.0v7 M-2.5,-0.5L0,-3.0L2.5,-0.5"/>
  </g>
  <g id="arrowLeft" transform="rotate(270) translate(-36 17)">
    <use xlink:href="#rim"/>
    <path pointer-events="none" fill="none" stroke="white" stroke-width="1.5" d="M0,-3.0v7 M-2.5,-0.5L0,-3.0L2.5,-0.5"/>
  </g>
  <g id="resetDef">
    <use xlink:href="#rim2" fill="#404040"><set attributeName="fill" to="#808080" begin="reset.mouseover" end="reset.mouseout"/></use>
  </g>
</defs>
<script type="application/ecmascript">
var viewWidth = 580;
var viewHeight = 128;
var sectionId = 'dynsection-54';
</script>
<script type="application/ecmascript" xlink:href="../../svg.min.js"/>
<svg id="graph" class="graph">
<g id="viewport">
<title>orgQhull::Coordinates::takeLast</title>
<!-- Node1 -->
<g id="Node000001" class="node">
<title>Node1</title>
<g id="a_Node000001"><a xlink:title=" ">
<polygon fill="#999999" stroke="#666666" points="110.5,-94.5 0,-94.5 0,-64 110.5,-64 110.5,-94.5"/>
<text text-anchor="start" x="8" y="-81" font-family="Helvetica,sans-Serif" font-size="10.00">orgQhull::Coordinates</text>
<text text-anchor="middle" x="55.25" y="-69.75" font-family="Helvetica,sans-Serif" font-size="10.00">::takeLast</text>
</a>
</g>
</g>
<!-- Node2 -->
<g id="Node000002" class="node">
<title>Node2</title>
<g id="a_Node000002"><a xlink:href="../../d5/d4a/classorg_qhull_1_1_coordinates.html#ae2e5e197b8d9bba1795dfd2a424e8b36" target="_top" xlink:title=" ">
<polygon fill="white" stroke="#666666" points="257,-119.5 146.5,-119.5 146.5,-89 257,-89 257,-119.5"/>
<text text-anchor="start" x="154.5" y="-106" font-family="Helvetica,sans-Serif" font-size="10.00">orgQhull::Coordinates</text>
<text text-anchor="middle" x="201.75" y="-94.75" font-family="Helvetica,sans-Serif" font-size="10.00">::last</text>
</a>
</g>
</g>
<!-- Node1&#45;&gt;Node2 -->
<g id="edge1_Node000001_Node000002" class="edge">
<title>Node1&#45;&gt;Node2</title>
<g id="a_edge1_Node000001_Node000002"><a xlink:title=" ">
<path fill="none" stroke="#63b8ff" d="M110.88,-88.7C118.88,-90.09 127.19,-91.52 135.38,-92.94"/>
<polygon fill="#63b8ff" stroke="#63b8ff" points="134.59,-96.53 145.04,-94.79 135.79,-89.63 134.59,-96.53"/>
</a>
</g>
</g>
<!-- Node4 -->
<g id="Node000004" class="node">
<title>Node4</title>
<g id="a_Node000004"><a xlink:href="../../d5/d4a/classorg_qhull_1_1_coordinates.html#a125f21322f3e6dc4e6e92a953cfa3e0b" target="_top" xlink:title=" ">
<polygon fill="white" stroke="#666666" points="257,-70.5 146.5,-70.5 146.5,-40 257,-40 257,-70.5"/>
<text text-anchor="start" x="154.5" y="-57" font-family="Helvetica,sans-Serif" font-size="10.00">orgQhull::Coordinates</text>
<text text-anchor="middle" x="201.75" y="-45.75" font-family="Helvetica,sans-Serif" font-size="10.00">::removeLast</text>
</a>
</g>
</g>
<!-- Node1&#45;&gt;Node4 -->
<g id="edge3_Node000001_Node000004" class="edge">
<title>Node1&#45;&gt;Node4</title>
<g id="a_edge3_Node000001_Node000004"><a xlink:title=" ">
<path fill="none" stroke="#63b8ff" d="M110.88,-70.18C118.88,-68.85 127.19,-67.47 135.38,-66.11"/>
<polygon fill="#63b8ff" stroke="#63b8ff" points="135.75,-69.43 145.04,-64.34 134.61,-62.52 135.75,-69.43"/>
</a>
</g>
</g>
<!-- Node3 -->
<g id="Node000003" class="node">
<title>Node3</title>
<g id="a_Node000003"><a xlink:href="../../d5/d4a/classorg_qhull_1_1_coordinates.html#a70bc94e1ca9a7041a05f637684bac3a1" target="_top" xlink:title=" ">
<polygon fill="white" stroke="#666666" points="414.38,-119.5 303.88,-119.5 303.88,-89 414.38,-89 414.38,-119.5"/>
<text text-anchor="start" x="311.88" y="-106" font-family="Helvetica,sans-Serif" font-size="10.00">orgQhull::Coordinates</text>
<text text-anchor="middle" x="359.12" y="-94.75" font-family="Helvetica,sans-Serif" font-size="10.00">::back</text>
</a>
</g>
</g>
<!-- Node2&#45;&gt;Node3 -->
<g id="edge2_Node000002_Node000003" class="edge">
<title>Node2&#45;&gt;Node3</title>
<g id="a_edge2_Node000002_Node000003"><a xlink:title=" ">
<path fill="none" stroke="#63b8ff" d="M257.09,-104.25C268.62,-104.25 280.9,-104.25 292.78,-104.25"/>
<polygon fill="#63b8ff" stroke="#63b8ff" points="292.55,-107.75 302.55,-104.25 292.55,-100.75 292.55,-107.75"/>
</a>
</g>
</g>
<!-- Node5 -->
<g id="Node000005" class="node">
<title>Node5</title>
<g id="a_Node000005"><a xlink:href="../../d5/d4a/classorg_qhull_1_1_coordinates.html#ae19a0ecfee1fc58ee17f07a15454643b" target="_top" xlink:title=" ">
<polygon fill="white" stroke="#666666" points="425.25,-67.88 293,-67.88 293,-48.62 425.25,-48.62 425.25,-67.88"/>
<text text-anchor="middle" x="359.12" y="-54.38" font-family="Helvetica,sans-Serif" font-size="10.00">orgQhull::Coordinates::end</text>
</a>
</g>
</g>
<!-- Node4&#45;&gt;Node5 -->
<g id="edge4_Node000004_Node000005" class="edge">
<title>Node4&#45;&gt;Node5</title>
<g id="a_edge4_Node000004_Node000005"><a xlink:title=" ">
<path fill="none" stroke="#63b8ff" d="M257.09,-56.3C265.06,-56.45 273.4,-56.61 281.71,-56.77"/>
<polygon fill="#63b8ff" stroke="#63b8ff" points="281.53,-60.29 291.59,-56.98 281.66,-53.29 281.53,-60.29"/>
</a>
</g>
</g>
<!-- Node6 -->
<g id="Node000006" class="node">
<title>Node6</title>
<g id="a_Node000006"><a xlink:href="../../d5/d4a/classorg_qhull_1_1_coordinates.html#ab1aaed576c3dc04297bff1f8ec444836" target="_top" xlink:title=" ">
<polygon fill="white" stroke="#666666" points="414.38,-30.5 303.88,-30.5 303.88,0 414.38,0 414.38,-30.5"/>
<text text-anchor="start" x="311.88" y="-17" font-family="Helvetica,sans-Serif" font-size="10.00">orgQhull::Coordinates</text>
<text text-anchor="middle" x="359.12" y="-5.75" font-family="Helvetica,sans-Serif" font-size="10.00">::erase</text>
</a>
</g>
</g>
<!-- Node4&#45;&gt;Node6 -->
<g id="edge5_Node000004_Node000006" class="edge">
<title>Node4&#45;&gt;Node6</title>
<g id="a_edge5_Node000004_Node000006"><a xlink:title=" ">
<path fill="none" stroke="#63b8ff" d="M257.09,-41.26C268.73,-38.26 281.15,-35.07 293.14,-31.98"/>
<polygon fill="#63b8ff" stroke="#63b8ff" points="293.74,-35.18 302.55,-29.3 291.99,-28.4 293.74,-35.18"/>
</a>
</g>
</g>
<!-- Node7 -->
<g id="Node000007" class="node">
<title>Node7</title>
<g id="a_Node000007"><a xlink:href="../../d5/d1e/classorg_qhull_1_1_coordinates_1_1iterator.html#a01568ce177c947a52600457e40b100ce" target="_top" xlink:title=" ">
<polygon fill="white" stroke="#666666" points="571.75,-30.5 461.25,-30.5 461.25,0 571.75,0 571.75,-30.5"/>
<text text-anchor="start" x="469.25" y="-17" font-family="Helvetica,sans-Serif" font-size="10.00">orgQhull::Coordinates</text>
<text text-anchor="middle" x="516.5" y="-5.75" font-family="Helvetica,sans-Serif" font-size="10.00">::iterator::base</text>
</a>
</g>
</g>
<!-- Node6&#45;&gt;Node7 -->
<g id="edge6_Node000006_Node000007" class="edge">
<title>Node6&#45;&gt;Node7</title>
<g id="a_edge6_Node000006_Node000007"><a xlink:title=" ">
<path fill="none" stroke="#63b8ff" d="M414.47,-15.25C425.99,-15.25 438.27,-15.25 450.16,-15.25"/>
<polygon fill="#63b8ff" stroke="#63b8ff" points="449.93,-18.75 459.93,-15.25 449.93,-11.75 449.93,-18.75"/>
</a>
</g>
</g>
</g>
</svg>

<g id="navigator" transform="translate(0 0)" fill="#404254">
  <rect fill="#f2f5e9" fill-opacity="0.5" stroke="#606060" stroke-width=".5" x="0" y="0" width="60" height="60"/>
  <use id="zoomplus" xlink:href="#zoomPlus" x="17" y="9" onmousedown="handleZoom(evt,'in')"/>
  <use id="zoomminus" xlink:href="#zoomMin" x="42" y="9" onmousedown="handleZoom(evt,'out')"/>
  <use id="reset" xlink:href="#resetDef" x="30" y="36" onmousedown="handleReset()"/>
   <use id="arrowup" xlink:href="#arrowUp" x="0" y="0" onmousedown="handlePan(0,-1)"/>
  <use id="arrowright" xlink:href="#arrowRight" x="0" y="0" onmousedown="handlePan(1,0)"/>
  <use id="arrowdown" xlink:href="#arrowDown" x="0" y="0" onmousedown="handlePan(0,1)"/>
  <use id="arrowleft" xlink:href="#arrowLeft" x="0" y="0" onmousedown="handlePan(-1,0)"/>
</g>
<svg viewBox="0 0 15 15" width="100%" height="30px" preserveAspectRatio="xMaxYMin meet">
 <g id="arrow_out" transform="scale(0.3 0.3)">
  <a xlink:href="classorg_qhull_1_1_coordinates_a2493a6de7119d205ce2504a65ffce849_cgraph_org.svg" target="_base">
   <rect id="button" ry="5" rx="5" y="6" x="6" height="38" width="38"
        fill="#f2f5e9" fill-opacity="0.5" stroke="#606060" stroke-width="1.0"/>
   <path id="arrow"
     d="M 11.500037,31.436501 C 11.940474,20.09759 22.043105,11.32322 32.158766,21.979434 L 37.068811,17.246167 C 37.068811,17.246167 37.088388,32 37.088388,32 L 22.160133,31.978069 C 22.160133,31.978069 26.997745,27.140456 26.997745,27.140456 C 18.528582,18.264221 13.291696,25.230495 11.500037,31.436501 z"
     style="fill:#404040;"/>
  </a>
 </g>
</svg>

<style type='text/css'>
<![CDATA[
[data-mouse-over-selected='false'] { opacity: 0.7; }
[data-mouse-over-selected='true']  { opacity: 1.0; }
]]>
</style>
<script type="application/ecmascript"><![CDATA[
document.addEventListener('DOMContentLoaded', (event) => {
  highlightEdges();
  highlightAdjacentNodes();
});
]]></script>
</svg>
