<?xml version="1.0" encoding="UTF-8" standalone="no"?>
<!DOCTYPE svg PUBLIC "-//W3C//DTD SVG 1.1//EN"
 "http://www.w3.org/Graphics/SVG/1.1/DTD/svg11.dtd">
<!-- Generated by graphviz version 8.1.0 (20230707.0739)
 -->
<!-- Title: Slic3r::GUI::ObjectGridTable::reload_part_data Pages: 1 -->
<svg width="1090pt" height="333pt"
 viewBox="0.00 0.00 1090.25 332.50" xmlns="http://www.w3.org/2000/svg" xmlns:xlink="http://www.w3.org/1999/xlink">
<g id="graph0" class="graph" transform="scale(1 1) rotate(0) translate(4 328.5)">
<title>Slic3r::GUI::ObjectGridTable::reload_part_data</title>
<!-- Node1 -->
<g id="Node000001" class="node">
<title>Node1</title>
<g id="a_Node000001"><a xlink:title=" ">
<polygon fill="#999999" stroke="#666666" points="1082.25,-222.5 941.75,-222.5 941.75,-192 1082.25,-192 1082.25,-222.5"/>
<text text-anchor="start" x="949.75" y="-209" font-family="Helvetica,sans-Serif" font-size="10.00">Slic3r::GUI::ObjectGridTable</text>
<text text-anchor="middle" x="1012" y="-197.75" font-family="Helvetica,sans-Serif" font-size="10.00">::reload_part_data</text>
</a>
</g>
</g>
<!-- Node2 -->
<g id="Node000002" class="node">
<title>Node2</title>
<g id="a_Node000002"><a xlink:href="../../d1/d46/class_slic3r_1_1_g_u_i_1_1_object_grid_table.html#a6363885eacdfbbbd55a58ed7747695ab" target="_top" xlink:title=" ">
<polygon fill="white" stroke="#666666" points="905.75,-247.5 765.25,-247.5 765.25,-217 905.75,-217 905.75,-247.5"/>
<text text-anchor="start" x="773.25" y="-234" font-family="Helvetica,sans-Serif" font-size="10.00">Slic3r::GUI::ObjectGridTable</text>
<text text-anchor="middle" x="835.5" y="-222.75" font-family="Helvetica,sans-Serif" font-size="10.00">::reload_cell_data</text>
</a>
</g>
</g>
<!-- Node1&#45;&gt;Node2 -->
<g id="edge1_Node000001_Node000002" class="edge">
<title>Node1&#45;&gt;Node2</title>
<g id="a_edge1_Node000001_Node000002"><a xlink:title=" ">
<path fill="none" stroke="#63b8ff" d="M930.6,-218.77C922.42,-219.94 914.16,-221.12 906.11,-222.28"/>
<polygon fill="#63b8ff" stroke="#63b8ff" points="930.88,-222.12 940.28,-217.24 929.89,-215.19 930.88,-222.12"/>
</a>
</g>
</g>
<!-- Node18 -->
<g id="Node000018" class="node">
<title>Node18</title>
<g id="a_Node000018"><a xlink:href="../../d1/d46/class_slic3r_1_1_g_u_i_1_1_object_grid_table.html#a94b892a350f86e7514acb9f3e94fd986" target="_top" xlink:title=" ">
<polygon fill="white" stroke="#666666" points="570.75,-177.5 392.75,-177.5 392.75,-147 570.75,-147 570.75,-177.5"/>
<text text-anchor="start" x="400.75" y="-164" font-family="Helvetica,sans-Serif" font-size="10.00">Slic3r::GUI::ObjectGridTable</text>
<text text-anchor="middle" x="481.75" y="-152.75" font-family="Helvetica,sans-Serif" font-size="10.00">::update_volume_values_from_object</text>
</a>
</g>
</g>
<!-- Node1&#45;&gt;Node18 -->
<g id="edge15_Node000001_Node000018" class="edge">
<title>Node1&#45;&gt;Node18</title>
<g id="a_edge15_Node000001_Node000018"><a xlink:title=" ">
<path fill="none" stroke="#63b8ff" d="M930.49,-200.39C833.54,-192.13 671.28,-178.31 571,-169.77"/>
<polygon fill="#63b8ff" stroke="#63b8ff" points="930.14,-203.96 940.4,-201.32 930.73,-196.98 930.14,-203.96"/>
</a>
</g>
</g>
<!-- Node3 -->
<g id="Node000003" class="node">
<title>Node3</title>
<g id="a_Node000003"><a xlink:href="../../d8/da9/class_slic3r_1_1_g_u_i_1_1_object_table_settings.html#a99b9dabcb4093c21b5142c27fe967b93" target="_top" xlink:title=" ">
<polygon fill="white" stroke="#666666" points="729.25,-268.12 606.75,-268.12 606.75,-226.38 729.25,-226.38 729.25,-268.12"/>
<text text-anchor="start" x="614.75" y="-254.62" font-family="Helvetica,sans-Serif" font-size="10.00">Slic3r::GUI::ObjectTable</text>
<text text-anchor="start" x="614.75" y="-243.38" font-family="Helvetica,sans-Serif" font-size="10.00">Settings::update_config</text>
<text text-anchor="middle" x="668" y="-232.12" font-family="Helvetica,sans-Serif" font-size="10.00">_values</text>
</a>
</g>
</g>
<!-- Node2&#45;&gt;Node3 -->
<g id="edge2_Node000002_Node000003" class="edge">
<title>Node2&#45;&gt;Node3</title>
<g id="a_edge2_Node000002_Node000003"><a xlink:title=" ">
<path fill="none" stroke="#63b8ff" d="M754.06,-239.54C745.87,-240.28 737.64,-241.03 729.7,-241.75"/>
<polygon fill="#63b8ff" stroke="#63b8ff" points="754.15,-242.96 763.79,-238.57 753.52,-235.98 754.15,-242.96"/>
</a>
</g>
</g>
<!-- Node4 -->
<g id="Node000004" class="node">
<title>Node4</title>
<g id="a_Node000004"><a xlink:href="../../d8/da9/class_slic3r_1_1_g_u_i_1_1_object_table_settings.html#aff54b26d7b9721c891a3fc80caa85b68" target="_top" xlink:title=" ">
<polygon fill="white" stroke="#666666" points="543,-275.5 420.5,-275.5 420.5,-245 543,-245 543,-275.5"/>
<text text-anchor="start" x="428.5" y="-262" font-family="Helvetica,sans-Serif" font-size="10.00">Slic3r::GUI::ObjectTable</text>
<text text-anchor="middle" x="481.75" y="-250.75" font-family="Helvetica,sans-Serif" font-size="10.00">Settings::resetAllValues</text>
</a>
</g>
</g>
<!-- Node3&#45;&gt;Node4 -->
<g id="edge3_Node000003_Node000004" class="edge">
<title>Node3&#45;&gt;Node4</title>
<g id="a_edge3_Node000003_Node000004"><a xlink:title=" ">
<path fill="none" stroke="#63b8ff" d="M595.8,-252.27C578.49,-253.5 560.14,-254.79 543.37,-255.97"/>
<polygon fill="#63b8ff" stroke="#63b8ff" points="595.69,-255.72 605.41,-251.52 595.19,-248.74 595.69,-255.72"/>
</a>
</g>
</g>
<!-- Node7 -->
<g id="Node000007" class="node">
<title>Node7</title>
<g id="a_Node000007"><a xlink:href="../../d8/da9/class_slic3r_1_1_g_u_i_1_1_object_table_settings.html#a74045fac502a349896a4dd2d2dbed763" target="_top" xlink:title=" ">
<polygon fill="white" stroke="#666666" points="554.25,-324.5 409.25,-324.5 409.25,-294 554.25,-294 554.25,-324.5"/>
<text text-anchor="start" x="417.25" y="-311" font-family="Helvetica,sans-Serif" font-size="10.00">Slic3r::GUI::ObjectTable</text>
<text text-anchor="middle" x="481.75" y="-299.75" font-family="Helvetica,sans-Serif" font-size="10.00">Settings::update_settings_list</text>
</a>
</g>
</g>
<!-- Node3&#45;&gt;Node7 -->
<g id="edge6_Node000003_Node000007" class="edge">
<title>Node3&#45;&gt;Node7</title>
<g id="a_edge6_Node000003_Node000007"><a xlink:title=" ">
<path fill="none" stroke="#63b8ff" d="M604.09,-272.37C593.04,-276.51 581.61,-280.63 570.75,-284.25 561.11,-287.47 550.79,-290.64 540.73,-293.58"/>
<polygon fill="#63b8ff" stroke="#63b8ff" points="605,-275.39 613.11,-268.57 602.51,-268.84 605,-275.39"/>
</a>
</g>
</g>
<!-- Node11 -->
<g id="Node000011" class="node">
<title>Node11</title>
<g id="a_Node000011"><a xlink:href="../../d8/da9/class_slic3r_1_1_g_u_i_1_1_object_table_settings.html#a9eb3b66e7d2c74383c4d92afc0aaa9fe" target="_top" xlink:title=" ">
<polygon fill="white" stroke="#666666" points="543,-226.5 420.5,-226.5 420.5,-196 543,-196 543,-226.5"/>
<text text-anchor="start" x="428.5" y="-213" font-family="Helvetica,sans-Serif" font-size="10.00">Slic3r::GUI::ObjectTable</text>
<text text-anchor="middle" x="481.75" y="-201.75" font-family="Helvetica,sans-Serif" font-size="10.00">Settings::ValueChanged</text>
</a>
</g>
</g>
<!-- Node3&#45;&gt;Node11 -->
<g id="edge9_Node000003_Node000011" class="edge">
<title>Node3&#45;&gt;Node11</title>
<g id="a_edge9_Node000003_Node000011"><a xlink:title=" ">
<path fill="none" stroke="#63b8ff" d="M595.8,-233.34C578.49,-229.96 560.14,-226.37 543.37,-223.09"/>
<polygon fill="#63b8ff" stroke="#63b8ff" points="594.93,-236.93 605.41,-235.41 596.27,-230.06 594.93,-236.93"/>
</a>
</g>
</g>
<!-- Node5 -->
<g id="Node000005" class="node">
<title>Node5</title>
<g id="a_Node000005"><a xlink:href="../../da/d6c/class_slic3r_1_1_g_u_i_1_1_object_table_panel.html#a83c4b005b28f28f8bf99d6f4355cc706" target="_top" xlink:title=" ">
<polygon fill="white" stroke="#666666" points="356.75,-275.5 184.75,-275.5 184.75,-245 356.75,-245 356.75,-275.5"/>
<text text-anchor="start" x="192.75" y="-262" font-family="Helvetica,sans-Serif" font-size="10.00">Slic3r::GUI::ObjectTable</text>
<text text-anchor="middle" x="270.75" y="-250.75" font-family="Helvetica,sans-Serif" font-size="10.00">Panel::resetAllValuesInSideWindow</text>
</a>
</g>
</g>
<!-- Node4&#45;&gt;Node5 -->
<g id="edge4_Node000004_Node000005" class="edge">
<title>Node4&#45;&gt;Node5</title>
<g id="a_edge4_Node000004_Node000005"><a xlink:title=" ">
<path fill="none" stroke="#63b8ff" d="M409.2,-260.25C392.44,-260.25 374.42,-260.25 357.12,-260.25"/>
<polygon fill="#63b8ff" stroke="#63b8ff" points="409.02,-263.75 419.02,-260.25 409.02,-256.75 409.02,-263.75"/>
</a>
</g>
</g>
<!-- Node6 -->
<g id="Node000006" class="node">
<title>Node6</title>
<g id="a_Node000006"><a xlink:href="../../d1/d46/class_slic3r_1_1_g_u_i_1_1_object_grid_table.html#a3c044721efac65afba83cd3c42ba0860" target="_top" xlink:title=" ">
<polygon fill="white" stroke="#666666" points="144.62,-275.5 4.12,-275.5 4.12,-245 144.62,-245 144.62,-275.5"/>
<text text-anchor="start" x="12.12" y="-262" font-family="Helvetica,sans-Serif" font-size="10.00">Slic3r::GUI::ObjectGridTable</text>
<text text-anchor="middle" x="74.38" y="-250.75" font-family="Helvetica,sans-Serif" font-size="10.00">::resetValuesInCurrentCell</text>
</a>
</g>
</g>
<!-- Node5&#45;&gt;Node6 -->
<g id="edge5_Node000005_Node000006" class="edge">
<title>Node5&#45;&gt;Node6</title>
<g id="a_edge5_Node000005_Node000006"><a xlink:title=" ">
<path fill="none" stroke="#63b8ff" d="M173.65,-260.25C164.03,-260.25 154.39,-260.25 145.11,-260.25"/>
<polygon fill="#63b8ff" stroke="#63b8ff" points="173.49,-263.75 183.49,-260.25 173.49,-256.75 173.49,-263.75"/>
</a>
</g>
</g>
<!-- Node8 -->
<g id="Node000008" class="node">
<title>Node8</title>
<g id="a_Node000008"><a xlink:href="../../d8/da9/class_slic3r_1_1_g_u_i_1_1_object_table_settings.html#a66983deacf18e12c94187a2a3d3bc199" target="_top" xlink:title=" ">
<polygon fill="white" stroke="#666666" points="336.5,-324.5 205,-324.5 205,-294 336.5,-294 336.5,-324.5"/>
<text text-anchor="start" x="213" y="-311" font-family="Helvetica,sans-Serif" font-size="10.00">Slic3r::GUI::ObjectTable</text>
<text text-anchor="middle" x="270.75" y="-299.75" font-family="Helvetica,sans-Serif" font-size="10.00">Settings::UpdateAndShow</text>
</a>
</g>
</g>
<!-- Node7&#45;&gt;Node8 -->
<g id="edge7_Node000007_Node000008" class="edge">
<title>Node7&#45;&gt;Node8</title>
<g id="a_edge7_Node000007_Node000008"><a xlink:title=" ">
<path fill="none" stroke="#63b8ff" d="M397.99,-309.25C377.65,-309.25 356.17,-309.25 336.8,-309.25"/>
<polygon fill="#63b8ff" stroke="#63b8ff" points="397.82,-312.75 407.82,-309.25 397.82,-305.75 397.82,-312.75"/>
</a>
</g>
</g>
<!-- Node9 -->
<g id="Node000009" class="node">
<title>Node9</title>
<g id="a_Node000009"><a xlink:href="../../d1/d46/class_slic3r_1_1_g_u_i_1_1_object_grid_table.html#a904d1b85b018bd0023da3eb6a01c87b5" target="_top" xlink:title=" ">
<polygon fill="#fff0f0" stroke="red" points="144.62,-324.5 4.12,-324.5 4.12,-294 144.62,-294 144.62,-324.5"/>
<text text-anchor="start" x="12.12" y="-311" font-family="Helvetica,sans-Serif" font-size="10.00">Slic3r::GUI::ObjectGridTable</text>
<text text-anchor="middle" x="74.38" y="-299.75" font-family="Helvetica,sans-Serif" font-size="10.00">::OnSelectCell</text>
</a>
</g>
</g>
<!-- Node8&#45;&gt;Node9 -->
<g id="edge8_Node000008_Node000009" class="edge">
<title>Node8&#45;&gt;Node9</title>
<g id="a_edge8_Node000008_Node000009"><a xlink:title=" ">
<path fill="none" stroke="#63b8ff" d="M193.78,-309.25C177.7,-309.25 160.81,-309.25 144.98,-309.25"/>
<polygon fill="#63b8ff" stroke="#63b8ff" points="193.76,-312.75 203.76,-309.25 193.76,-305.75 193.76,-312.75"/>
</a>
</g>
</g>
<!-- Node12 -->
<g id="Node000012" class="node">
<title>Node12</title>
<g id="a_Node000012"><a xlink:href="../../d1/d46/class_slic3r_1_1_g_u_i_1_1_object_grid_table.html#a9e29d54dba058ae271516aa5e3ef36f8" target="_top" xlink:title=" ">
<polygon fill="white" stroke="#666666" points="341,-177.5 200.5,-177.5 200.5,-147 341,-147 341,-177.5"/>
<text text-anchor="start" x="208.5" y="-164" font-family="Helvetica,sans-Serif" font-size="10.00">Slic3r::GUI::ObjectGridTable</text>
<text text-anchor="middle" x="270.75" y="-152.75" font-family="Helvetica,sans-Serif" font-size="10.00">::OnCellLeftClick</text>
</a>
</g>
</g>
<!-- Node11&#45;&gt;Node12 -->
<g id="edge10_Node000011_Node000012" class="edge">
<title>Node11&#45;&gt;Node12</title>
<g id="a_edge10_Node000011_Node000012"><a xlink:title=" ">
<path fill="none" stroke="#63b8ff" d="M409.37,-194.52C386.55,-189.16 361.37,-183.26 338.86,-177.98"/>
<polygon fill="#63b8ff" stroke="#63b8ff" points="408.48,-198.14 419.02,-197.01 410.08,-191.32 408.48,-198.14"/>
</a>
</g>
</g>
<!-- Node14 -->
<g id="Node000014" class="node">
<title>Node14</title>
<g id="a_Node000014"><a xlink:href="../../d1/d46/class_slic3r_1_1_g_u_i_1_1_object_grid_table.html#a35a1f4ad120121426bb23e1c7515a6b2" target="_top" xlink:title=" ">
<polygon fill="white" stroke="#666666" points="341,-226.5 200.5,-226.5 200.5,-196 341,-196 341,-226.5"/>
<text text-anchor="start" x="208.5" y="-213" font-family="Helvetica,sans-Serif" font-size="10.00">Slic3r::GUI::ObjectGridTable</text>
<text text-anchor="middle" x="270.75" y="-201.75" font-family="Helvetica,sans-Serif" font-size="10.00">::OnCellValueChanged</text>
</a>
</g>
</g>
<!-- Node11&#45;&gt;Node14 -->
<g id="edge12_Node000011_Node000014" class="edge">
<title>Node11&#45;&gt;Node14</title>
<g id="a_edge12_Node000011_Node000014"><a xlink:title=" ">
<path fill="none" stroke="#63b8ff" d="M409.13,-211.25C387.25,-211.25 363.22,-211.25 341.47,-211.25"/>
<polygon fill="#63b8ff" stroke="#63b8ff" points="409.02,-214.75 419.02,-211.25 409.02,-207.75 409.02,-214.75"/>
</a>
</g>
</g>
<!-- Node13 -->
<g id="Node000013" class="node">
<title>Node13</title>
<g id="a_Node000013"><a xlink:href="../../da/d6c/class_slic3r_1_1_g_u_i_1_1_object_table_panel.html#ab6d6c7914ac88b05fbf0988728027899" target="_top" xlink:title=" ">
<polygon fill="white" stroke="#666666" points="135.62,-177.5 13.12,-177.5 13.12,-147 135.62,-147 135.62,-177.5"/>
<text text-anchor="start" x="21.12" y="-164" font-family="Helvetica,sans-Serif" font-size="10.00">Slic3r::GUI::ObjectTable</text>
<text text-anchor="middle" x="74.38" y="-152.75" font-family="Helvetica,sans-Serif" font-size="10.00">Panel::OnCellLeftClick</text>
</a>
</g>
</g>
<!-- Node12&#45;&gt;Node13 -->
<g id="edge11_Node000012_Node000013" class="edge">
<title>Node12&#45;&gt;Node13</title>
<g id="a_edge11_Node000012_Node000013"><a xlink:title=" ">
<path fill="none" stroke="#63b8ff" d="M189.14,-162.25C171.3,-162.25 152.7,-162.25 135.83,-162.25"/>
<polygon fill="#63b8ff" stroke="#63b8ff" points="189.13,-165.75 199.13,-162.25 189.13,-158.75 189.13,-165.75"/>
</a>
</g>
</g>
<!-- Node15 -->
<g id="Node000015" class="node">
<title>Node15</title>
<g id="a_Node000015"><a xlink:href="../../da/d6c/class_slic3r_1_1_g_u_i_1_1_object_table_panel.html#a6d4fcdac89b0da564502aa400269bdd4" target="_top" xlink:title=" ">
<polygon fill="white" stroke="#666666" points="144.25,-226.5 4.5,-226.5 4.5,-196 144.25,-196 144.25,-226.5"/>
<text text-anchor="start" x="12.5" y="-213" font-family="Helvetica,sans-Serif" font-size="10.00">Slic3r::GUI::ObjectTable</text>
<text text-anchor="middle" x="74.38" y="-201.75" font-family="Helvetica,sans-Serif" font-size="10.00">Panel::OnCellValueChanged</text>
</a>
</g>
</g>
<!-- Node14&#45;&gt;Node15 -->
<g id="edge13_Node000014_Node000015" class="edge">
<title>Node14&#45;&gt;Node15</title>
<g id="a_edge13_Node000014_Node000015"><a xlink:title=" ">
<path fill="none" stroke="#63b8ff" d="M189.39,-211.25C174.49,-211.25 159.04,-211.25 144.51,-211.25"/>
<polygon fill="#63b8ff" stroke="#63b8ff" points="189.13,-214.75 199.13,-211.25 189.13,-207.75 189.13,-214.75"/>
</a>
</g>
</g>
<!-- Node16 -->
<g id="Node000016" class="node">
<title>Node16</title>
<g id="a_Node000016"><a xlink:href="../../d9/d63/class_slic3r_1_1_g_u_i_1_1_object_grid.html#acde024a9b600b61c3ffb9937f6ed4f72" target="_top" xlink:title=" ">
<polygon fill="#fff0f0" stroke="red" points="133,-128.5 15.75,-128.5 15.75,-98 133,-98 133,-128.5"/>
<text text-anchor="start" x="23.75" y="-115" font-family="Helvetica,sans-Serif" font-size="10.00">Slic3r::GUI::ObjectGrid</text>
<text text-anchor="middle" x="74.38" y="-103.75" font-family="Helvetica,sans-Serif" font-size="10.00">::paste_data</text>
</a>
</g>
</g>
<!-- Node14&#45;&gt;Node16 -->
<g id="edge14_Node000014_Node000016" class="edge">
<title>Node14&#45;&gt;Node16</title>
<g id="a_edge14_Node000014_Node000016"><a xlink:title=" ">
<path fill="none" stroke="#63b8ff" d="M191.82,-190.68C189.38,-189.3 187.02,-187.82 184.75,-186.25 162.84,-171.05 170.33,-153.91 148.75,-138.25 143.85,-134.69 138.4,-131.61 132.76,-128.95"/>
<polygon fill="#63b8ff" stroke="#63b8ff" points="190.05,-194.21 200.56,-195.58 193.19,-187.96 190.05,-194.21"/>
</a>
</g>
</g>
<!-- Node18&#45;&gt;Node12 -->
<g id="edge16_Node000018_Node000012" class="edge">
<title>Node18&#45;&gt;Node12</title>
<g id="a_edge16_Node000018_Node000012"><a xlink:title=" ">
<path fill="none" stroke="#63b8ff" d="M381.57,-162.25C367.99,-162.25 354.29,-162.25 341.39,-162.25"/>
<polygon fill="#63b8ff" stroke="#63b8ff" points="381.42,-165.75 391.42,-162.25 381.42,-158.75 381.42,-165.75"/>
</a>
</g>
</g>
<!-- Node19 -->
<g id="Node000019" class="node">
<title>Node19</title>
<g id="a_Node000019"><a xlink:href="../../d1/d46/class_slic3r_1_1_g_u_i_1_1_object_grid_table.html#ae0e1f7c8b40846d8ff501468ed256927" target="_top" xlink:title=" ">
<polygon fill="white" stroke="#666666" points="341,-104.5 200.5,-104.5 200.5,-74 341,-74 341,-104.5"/>
<text text-anchor="start" x="208.5" y="-91" font-family="Helvetica,sans-Serif" font-size="10.00">Slic3r::GUI::ObjectGridTable</text>
<text text-anchor="middle" x="270.75" y="-79.75" font-family="Helvetica,sans-Serif" font-size="10.00">::SetValue</text>
</a>
</g>
</g>
<!-- Node18&#45;&gt;Node19 -->
<g id="edge17_Node000018_Node000019" class="edge">
<title>Node18&#45;&gt;Node19</title>
<g id="a_edge17_Node000018_Node000019"><a xlink:title=" ">
<path fill="none" stroke="#63b8ff" d="M425.66,-143.01C391.6,-131.11 348.45,-116.04 316.51,-104.88"/>
<polygon fill="#63b8ff" stroke="#63b8ff" points="424.32,-146.6 434.91,-146.59 426.63,-139.99 424.32,-146.6"/>
</a>
</g>
</g>
<!-- Node19&#45;&gt;Node16 -->
<g id="edge20_Node000019_Node000016" class="edge">
<title>Node19&#45;&gt;Node16</title>
<g id="a_edge20_Node000019_Node000016"><a xlink:title=" ">
<path fill="none" stroke="#63b8ff" d="M189.47,-99.16C170.64,-101.49 150.94,-103.92 133.31,-106.1"/>
<polygon fill="#63b8ff" stroke="#63b8ff" points="189.63,-102.55 199.13,-97.85 188.77,-95.6 189.63,-102.55"/>
</a>
</g>
</g>
<!-- Node20 -->
<g id="Node000020" class="node">
<title>Node20</title>
<g id="a_Node000020"><a xlink:href="../../db/d1b/class_slic3r_1_1_g_u_i_1_1_grid_cell_filaments_editor.html#a0aa5736dbda59f81e6dbc81c4469362b" target="_top" xlink:title=" ">
<polygon fill="white" stroke="#666666" points="148.75,-79.5 0,-79.5 0,-49 148.75,-49 148.75,-79.5"/>
<text text-anchor="start" x="8" y="-66" font-family="Helvetica,sans-Serif" font-size="10.00">Slic3r::GUI::GridCellFilaments</text>
<text text-anchor="middle" x="74.38" y="-54.75" font-family="Helvetica,sans-Serif" font-size="10.00">Editor::DoActivate</text>
</a>
</g>
</g>
<!-- Node19&#45;&gt;Node20 -->
<g id="edge18_Node000019_Node000020" class="edge">
<title>Node19&#45;&gt;Node20</title>
<g id="a_edge18_Node000019_Node000020"><a xlink:title=" ">
<path fill="none" stroke="#63b8ff" d="M189.51,-78.93C176.13,-77.21 162.32,-75.43 149.11,-73.73"/>
<polygon fill="#63b8ff" stroke="#63b8ff" points="188.76,-82.49 199.13,-80.3 189.65,-75.55 188.76,-82.49"/>
</a>
</g>
</g>
<!-- Node21 -->
<g id="Node000021" class="node">
<title>Node21</title>
<g id="a_Node000021"><a xlink:href="../../d8/d82/class_slic3r_1_1_g_u_i_1_1_grid_cell_choice_editor.html#a720dfc241ed71af50ce9853031ece7f5" target="_top" xlink:title=" ">
<polygon fill="white" stroke="#666666" points="142.75,-30.5 6,-30.5 6,0 142.75,0 142.75,-30.5"/>
<text text-anchor="start" x="14" y="-17" font-family="Helvetica,sans-Serif" font-size="10.00">Slic3r::GUI::GridCellChoice</text>
<text text-anchor="middle" x="74.38" y="-5.75" font-family="Helvetica,sans-Serif" font-size="10.00">Editor::DoActivate</text>
</a>
</g>
</g>
<!-- Node19&#45;&gt;Node21 -->
<g id="edge19_Node000019_Node000021" class="edge">
<title>Node19&#45;&gt;Node21</title>
<g id="a_edge19_Node000019_Node000021"><a xlink:title=" ">
<path fill="none" stroke="#63b8ff" d="M222.74,-69.49C200.43,-60.3 173.34,-49.41 148.75,-40.25 140.43,-37.15 131.52,-33.99 122.88,-31"/>
<polygon fill="#63b8ff" stroke="#63b8ff" points="221.05,-72.99 231.62,-73.58 223.72,-66.53 221.05,-72.99"/>
</a>
</g>
</g>
</g>
</svg>
