<?xml version="1.0" encoding="UTF-8" standalone="no"?>
<!DOCTYPE svg PUBLIC "-//W3C//DTD SVG 1.1//EN"
 "http://www.w3.org/Graphics/SVG/1.1/DTD/svg11.dtd">
<!-- Generated by graphviz version 8.1.0 (20230707.0739)
 -->
<!-- Title: orgQhull::PointCoordinates::append Pages: 1 -->
<!--zoomable 260 -->

<svg id="main" version="1.1" xmlns="http://www.w3.org/2000/svg" xmlns:xlink="http://www.w3.org/1999/xlink" xml:space="preserve" onload="init(evt)">
<style type="text/css"><![CDATA[
.node, .edge {opacity: 0.7;}
.node.selected, .edge.selected {opacity: 1;}
.edge:hover path { stroke: red; }
.edge:hover polygon { stroke: red; fill: red; }
]]></style>

<defs>
  <circle id="rim" cx="0" cy="0" r="7"/>
  <circle id="rim2" cx="0" cy="0" r="3.5"/>
  <g id="zoomPlus">
    <use xlink:href="#rim" fill="#404040"><set attributeName="fill" to="#808080" begin="zoomplus.mouseover" end="zoomplus.mouseout"/></use>
    <path d="M-4,0h8M0,-4v8" fill="none" stroke="white" stroke-width="1.5" pointer-events="none"/>
  </g>
  <g id="zoomMin">
    <use xlink:href="#rim" fill="#404040"><set attributeName="fill" to="#808080" begin="zoomminus.mouseover" end="zoomminus.mouseout"/></use>
    <path d="M-4,0h8" fill="none" stroke="white" stroke-width="1.5" pointer-events="none"/>
  </g>
  <g id="arrowUp" transform="translate(30 24)">
    <use xlink:href="#rim"/>
    <path pointer-events="none" fill="none" stroke="white" stroke-width="1.5" d="M0,-3.0v7 M-2.5,-0.5L0,-3.0L2.5,-0.5"/>
  </g>
  <g id="arrowRight" transform="rotate(90) translate(36 -43)">
    <use xlink:href="#rim"/>
    <path pointer-events="none" fill="none" stroke="white" stroke-width="1.5" d="M0,-3.0v7 M-2.5,-0.5L0,-3.0L2.5,-0.5"/>
  </g>
  <g id="arrowDown" transform="rotate(180) translate(-30 -48)">
    <use xlink:href="#rim"/>
    <path pointer-events="none" fill="none" stroke="white" stroke-width="1.5" d="M0,-3.0v7 M-2.5,-0.5L0,-3.0L2.5,-0.5"/>
  </g>
  <g id="arrowLeft" transform="rotate(270) translate(-36 17)">
    <use xlink:href="#rim"/>
    <path pointer-events="none" fill="none" stroke="white" stroke-width="1.5" d="M0,-3.0v7 M-2.5,-0.5L0,-3.0L2.5,-0.5"/>
  </g>
  <g id="resetDef">
    <use xlink:href="#rim2" fill="#404040"><set attributeName="fill" to="#808080" begin="reset.mouseover" end="reset.mouseout"/></use>
  </g>
</defs>
<script type="application/ecmascript">
var viewWidth = 809;
var viewHeight = 260;
var sectionId = 'dynsection-15';
</script>
<script type="application/ecmascript" xlink:href="../../svg.min.js"/>
<svg id="graph" class="graph">
<g id="viewport">
<title>orgQhull::PointCoordinates::append</title>
<!-- Node1 -->
<g id="Node000001" class="node">
<title>Node1</title>
<g id="a_Node000001"><a xlink:title=" ">
<polygon fill="#999999" stroke="#666666" points="133,-137.5 0,-137.5 0,-107 133,-107 133,-137.5"/>
<text text-anchor="start" x="8" y="-124" font-family="Helvetica,sans-Serif" font-size="10.00">orgQhull::PointCoordinates</text>
<text text-anchor="middle" x="66.5" y="-112.75" font-family="Helvetica,sans-Serif" font-size="10.00">::append</text>
</a>
</g>
</g>
<!-- Node2 -->
<g id="Node000002" class="node">
<title>Node2</title>
<g id="a_Node000002"><a xlink:href="../../d4/df6/classorg_qhull_1_1_qhull_points.html#ae9b7bfeba85f707786c7e0fdf3ef19f7" target="_top" xlink:title=" ">
<polygon fill="white" stroke="#666666" points="459.75,-184.5 349.25,-184.5 349.25,-154 459.75,-154 459.75,-184.5"/>
<text text-anchor="start" x="357.25" y="-171" font-family="Helvetica,sans-Serif" font-size="10.00">orgQhull::QhullPoints</text>
<text text-anchor="middle" x="404.5" y="-159.75" font-family="Helvetica,sans-Serif" font-size="10.00">::includesCoordinates</text>
</a>
</g>
</g>
<!-- Node1&#45;&gt;Node2 -->
<g id="edge1_Node000001_Node000002" class="edge">
<title>Node1&#45;&gt;Node2</title>
<g id="a_edge1_Node000001_Node000002"><a xlink:title=" ">
<path fill="none" stroke="#63b8ff" d="M93.57,-137.78C113.47,-148.69 141.97,-162.35 169,-168.25 225.09,-180.49 290.54,-179.55 338.02,-176.24"/>
<polygon fill="#63b8ff" stroke="#63b8ff" points="338.07,-179.67 347.77,-175.42 337.54,-172.69 338.07,-179.67"/>
</a>
</g>
</g>
<!-- Node3 -->
<g id="Node000003" class="node">
<title>Node3</title>
<g id="a_Node000003"><a xlink:href="../../d4/df6/classorg_qhull_1_1_qhull_points.html#af6c95b684bb317ea35360e5ddce03c3c" target="_top" xlink:title=" ">
<polygon fill="white" stroke="#666666" points="289.62,-159.5 181.38,-159.5 181.38,-129 289.62,-129 289.62,-159.5"/>
<text text-anchor="start" x="189.38" y="-146" font-family="Helvetica,sans-Serif" font-size="10.00">orgQhull::QhullPoints</text>
<text text-anchor="middle" x="235.5" y="-134.75" font-family="Helvetica,sans-Serif" font-size="10.00">::indexOf</text>
</a>
</g>
</g>
<!-- Node1&#45;&gt;Node3 -->
<g id="edge2_Node000001_Node000003" class="edge">
<title>Node1&#45;&gt;Node3</title>
<g id="a_edge2_Node000001_Node000003"><a xlink:title=" ">
<path fill="none" stroke="#63b8ff" d="M133.02,-130.88C145.32,-132.5 158.16,-134.19 170.42,-135.81"/>
<polygon fill="#63b8ff" stroke="#63b8ff" points="169.63,-139.37 180.01,-137.2 170.55,-132.43 169.63,-139.37"/>
</a>
</g>
</g>
<!-- Node4 -->
<g id="Node000004" class="node">
<title>Node4</title>
<g id="a_Node000004"><a xlink:href="../../d6/d3c/classorg_qhull_1_1_point_coordinates.html#a54900e485d4dc7e2f1521e5f03fde43f" target="_top" xlink:title=" ">
<polygon fill="white" stroke="#666666" points="471,-116.5 338,-116.5 338,-86 471,-86 471,-116.5"/>
<text text-anchor="start" x="346" y="-103" font-family="Helvetica,sans-Serif" font-size="10.00">orgQhull::PointCoordinates</text>
<text text-anchor="middle" x="404.5" y="-91.75" font-family="Helvetica,sans-Serif" font-size="10.00">::makeValid</text>
</a>
</g>
</g>
<!-- Node1&#45;&gt;Node4 -->
<g id="edge4_Node000001_Node000004" class="edge">
<title>Node1&#45;&gt;Node4</title>
<g id="a_edge4_Node000001_Node000004"><a xlink:title=" ">
<path fill="none" stroke="#63b8ff" d="M133.48,-118.13C189.08,-114.65 268.66,-109.68 327.03,-106.03"/>
<polygon fill="#63b8ff" stroke="#63b8ff" points="326.91,-109.48 336.67,-105.36 326.47,-102.5 326.91,-109.48"/>
</a>
</g>
</g>
<!-- Node12 -->
<g id="Node000012" class="node">
<title>Node12</title>
<g id="a_Node000012"><a xlink:href="../../d6/d3c/classorg_qhull_1_1_point_coordinates.html#aaae58b637b5f0466e28c4da96f6831f4" target="_top" xlink:title=" ">
<polygon fill="white" stroke="#666666" points="302,-73.5 169,-73.5 169,-43 302,-43 302,-73.5"/>
<text text-anchor="start" x="177" y="-60" font-family="Helvetica,sans-Serif" font-size="10.00">orgQhull::PointCoordinates</text>
<text text-anchor="middle" x="235.5" y="-48.75" font-family="Helvetica,sans-Serif" font-size="10.00">::reserveCoordinates</text>
</a>
</g>
</g>
<!-- Node1&#45;&gt;Node12 -->
<g id="edge12_Node000001_Node000012" class="edge">
<title>Node1&#45;&gt;Node12</title>
<g id="a_edge12_Node000001_Node000012"><a xlink:title=" ">
<path fill="none" stroke="#63b8ff" d="M108.35,-106.59C131,-97.92 159.36,-87.05 183.45,-77.81"/>
<polygon fill="#63b8ff" stroke="#63b8ff" points="184.4,-80.81 192.49,-73.97 181.9,-74.28 184.4,-80.81"/>
</a>
</g>
</g>
<!-- Node3&#45;&gt;Node2 -->
<g id="edge3_Node000003_Node000002" class="edge">
<title>Node3&#45;&gt;Node2</title>
<g id="a_edge3_Node000003_Node000002"><a xlink:title=" ">
<path fill="none" stroke="#63b8ff" d="M289.8,-152.23C305.3,-154.55 322.41,-157.11 338.55,-159.53"/>
<polygon fill="#63b8ff" stroke="#63b8ff" points="337.58,-163.07 347.99,-161.09 338.61,-156.15 337.58,-163.07"/>
</a>
</g>
</g>
<!-- Node5 -->
<g id="Node000005" class="node">
<title>Node5</title>
<g id="a_Node000005"><a xlink:href="../../d5/d4a/classorg_qhull_1_1_coordinates.html#addc5dbc4a52f09e726f745847b4fbaaa" target="_top" xlink:title=" ">
<polygon fill="white" stroke="#666666" points="628.75,-116.5 518.25,-116.5 518.25,-86 628.75,-86 628.75,-116.5"/>
<text text-anchor="start" x="526.25" y="-103" font-family="Helvetica,sans-Serif" font-size="10.00">orgQhull::Coordinates</text>
<text text-anchor="middle" x="573.5" y="-91.75" font-family="Helvetica,sans-Serif" font-size="10.00">::count</text>
</a>
</g>
</g>
<!-- Node4&#45;&gt;Node5 -->
<g id="edge5_Node000004_Node000005" class="edge">
<title>Node4&#45;&gt;Node5</title>
<g id="a_edge5_Node000004_Node000005"><a xlink:title=" ">
<path fill="none" stroke="#63b8ff" d="M471.02,-101.25C482.92,-101.25 495.32,-101.25 507.21,-101.25"/>
<polygon fill="#63b8ff" stroke="#63b8ff" points="506.95,-104.75 516.95,-101.25 506.95,-97.75 506.95,-104.75"/>
</a>
</g>
</g>
<!-- Node7 -->
<g id="Node000007" class="node">
<title>Node7</title>
<g id="a_Node000007"><a xlink:href="../../d5/d4a/classorg_qhull_1_1_coordinates.html#acbefaa058f0940ea08c00060f7bb27cc" target="_top" xlink:title=" ">
<polygon fill="white" stroke="#666666" points="628.75,-214.5 518.25,-214.5 518.25,-184 628.75,-184 628.75,-214.5"/>
<text text-anchor="start" x="526.25" y="-201" font-family="Helvetica,sans-Serif" font-size="10.00">orgQhull::Coordinates</text>
<text text-anchor="middle" x="573.5" y="-189.75" font-family="Helvetica,sans-Serif" font-size="10.00">::data</text>
</a>
</g>
</g>
<!-- Node4&#45;&gt;Node7 -->
<g id="edge7_Node000004_Node000007" class="edge">
<title>Node4&#45;&gt;Node7</title>
<g id="a_edge7_Node000004_Node000007"><a xlink:title=" ">
<path fill="none" stroke="#63b8ff" d="M429.8,-116.85C442.29,-125.05 457.65,-135.42 471,-145.25 487.54,-157.43 489.18,-164.02 507,-174.25 509.86,-175.89 512.85,-177.47 515.92,-178.98"/>
<polygon fill="#63b8ff" stroke="#63b8ff" points="514.31,-182.55 524.85,-183.53 517.22,-176.18 514.31,-182.55"/>
</a>
</g>
</g>
<!-- Node10 -->
<g id="Node000010" class="node">
<title>Node10</title>
<g id="a_Node000010"><a xlink:href="../../d6/d3c/classorg_qhull_1_1_point_coordinates.html#a67911f8b9d459c4fc28a0122e9f069f7" target="_top" xlink:title="disable QhullPoints.defineAs()">
<polygon fill="white" stroke="#666666" points="640,-165.5 507,-165.5 507,-135 640,-135 640,-165.5"/>
<text text-anchor="start" x="515" y="-152" font-family="Helvetica,sans-Serif" font-size="10.00">orgQhull::PointCoordinates</text>
<text text-anchor="middle" x="573.5" y="-140.75" font-family="Helvetica,sans-Serif" font-size="10.00">::defineAs</text>
</a>
</g>
</g>
<!-- Node4&#45;&gt;Node10 -->
<g id="edge10_Node000004_Node000010" class="edge">
<title>Node4&#45;&gt;Node10</title>
<g id="a_edge10_Node000004_Node000010"><a xlink:title=" ">
<path fill="none" stroke="#63b8ff" d="M458.8,-116.89C474.69,-121.55 492.26,-126.71 508.75,-131.54"/>
<polygon fill="#63b8ff" stroke="#63b8ff" points="507.27,-135.05 517.85,-134.51 509.24,-128.33 507.27,-135.05"/>
</a>
</g>
</g>
<!-- Node6 -->
<g id="Node000006" class="node">
<title>Node6</title>
<g id="a_Node000006"><a xlink:href="../../d5/d4a/classorg_qhull_1_1_coordinates.html#a732c6046ed188d48f34fe3a8d8c226ae" target="_top" xlink:title=" ">
<polygon fill="white" stroke="#666666" points="793.62,-95.5 683.12,-95.5 683.12,-65 793.62,-65 793.62,-95.5"/>
<text text-anchor="start" x="691.12" y="-82" font-family="Helvetica,sans-Serif" font-size="10.00">orgQhull::Coordinates</text>
<text text-anchor="middle" x="738.38" y="-70.75" font-family="Helvetica,sans-Serif" font-size="10.00">::size</text>
</a>
</g>
</g>
<!-- Node5&#45;&gt;Node6 -->
<g id="edge6_Node000005_Node000006" class="edge">
<title>Node5&#45;&gt;Node6</title>
<g id="a_edge6_Node000005_Node000006"><a xlink:title=" ">
<path fill="none" stroke="#63b8ff" d="M629.19,-94.2C642.96,-92.42 657.88,-90.5 672.11,-88.66"/>
<polygon fill="#63b8ff" stroke="#63b8ff" points="672.36,-92.03 681.83,-87.28 671.47,-85.09 672.36,-92.03"/>
</a>
</g>
</g>
<!-- Node8 -->
<g id="Node000008" class="node">
<title>Node8</title>
<g id="a_Node000008"><a xlink:href="../../d5/d4a/classorg_qhull_1_1_coordinates.html#a18fc682419b565f7327b415882e24254" target="_top" xlink:title=" ">
<polygon fill="white" stroke="#666666" points="800.75,-251.88 676,-251.88 676,-232.62 800.75,-232.62 800.75,-251.88"/>
<text text-anchor="middle" x="738.38" y="-238.38" font-family="Helvetica,sans-Serif" font-size="10.00">orgQhull::Coordinates::at</text>
</a>
</g>
</g>
<!-- Node7&#45;&gt;Node8 -->
<g id="edge8_Node000007_Node000008" class="edge">
<title>Node7&#45;&gt;Node8</title>
<g id="a_edge8_Node000007_Node000008"><a xlink:title=" ">
<path fill="none" stroke="#63b8ff" d="M629.19,-213.69C648.44,-218.77 669.93,-224.44 688.65,-229.39"/>
<polygon fill="#63b8ff" stroke="#63b8ff" points="687.47,-232.96 698.03,-232.13 689.25,-226.19 687.47,-232.96"/>
</a>
</g>
</g>
<!-- Node9 -->
<g id="Node000009" class="node">
<title>Node9</title>
<g id="a_Node000009"><a xlink:href="../../d5/d4a/classorg_qhull_1_1_coordinates.html#ae17a496a5da2299d785a4d3ece73c89e" target="_top" xlink:title=" ">
<polygon fill="white" stroke="#666666" points="793.62,-214.5 683.12,-214.5 683.12,-184 793.62,-184 793.62,-214.5"/>
<text text-anchor="start" x="691.12" y="-201" font-family="Helvetica,sans-Serif" font-size="10.00">orgQhull::Coordinates</text>
<text text-anchor="middle" x="738.38" y="-189.75" font-family="Helvetica,sans-Serif" font-size="10.00">::isEmpty</text>
</a>
</g>
</g>
<!-- Node7&#45;&gt;Node9 -->
<g id="edge9_Node000007_Node000009" class="edge">
<title>Node7&#45;&gt;Node9</title>
<g id="a_edge9_Node000007_Node000009"><a xlink:title=" ">
<path fill="none" stroke="#63b8ff" d="M629.19,-199.25C642.96,-199.25 657.88,-199.25 672.11,-199.25"/>
<polygon fill="#63b8ff" stroke="#63b8ff" points="671.83,-202.75 681.83,-199.25 671.83,-195.75 671.83,-202.75"/>
</a>
</g>
</g>
<!-- Node11 -->
<g id="Node000011" class="node">
<title>Node11</title>
<g id="a_Node000011"><a xlink:href="../../d4/df6/classorg_qhull_1_1_qhull_points.html#ac57984c54c46e53b292664231f75a616" target="_top" xlink:title=" ">
<polygon fill="white" stroke="#666666" points="792.5,-165.5 684.25,-165.5 684.25,-135 792.5,-135 792.5,-165.5"/>
<text text-anchor="start" x="692.25" y="-152" font-family="Helvetica,sans-Serif" font-size="10.00">orgQhull::QhullPoints</text>
<text text-anchor="middle" x="738.38" y="-140.75" font-family="Helvetica,sans-Serif" font-size="10.00">::defineAs</text>
</a>
</g>
</g>
<!-- Node10&#45;&gt;Node11 -->
<g id="edge11_Node000010_Node000011" class="edge">
<title>Node10&#45;&gt;Node11</title>
<g id="a_edge11_Node000010_Node000011"><a xlink:title=" ">
<path fill="none" stroke="#63b8ff" d="M640.28,-150.25C651.02,-150.25 662.15,-150.25 672.86,-150.25"/>
<polygon fill="#63b8ff" stroke="#63b8ff" points="672.85,-153.75 682.85,-150.25 672.85,-146.75 672.85,-153.75"/>
</a>
</g>
</g>
<!-- Node12&#45;&gt;Node4 -->
<g id="edge13_Node000012_Node000004" class="edge">
<title>Node12&#45;&gt;Node4</title>
<g id="a_edge13_Node000012_Node000004"><a xlink:title=" ">
<path fill="none" stroke="#63b8ff" d="M297.26,-73.9C308.54,-76.8 320.43,-79.86 331.99,-82.84"/>
<polygon fill="#63b8ff" stroke="#63b8ff" points="330.95,-86.44 341.5,-85.54 332.69,-79.66 330.95,-86.44"/>
</a>
</g>
</g>
<!-- Node12&#45;&gt;Node6 -->
<g id="edge15_Node000012_Node000006" class="edge">
<title>Node12&#45;&gt;Node6</title>
<g id="a_edge15_Node000012_Node000006"><a xlink:title=" ">
<path fill="none" stroke="#63b8ff" d="M302.5,-61.15C398.67,-65.37 576.28,-73.17 672.07,-77.38"/>
<polygon fill="#63b8ff" stroke="#63b8ff" points="671.62,-80.91 681.77,-77.85 671.93,-73.92 671.62,-80.91"/>
</a>
</g>
</g>
<!-- Node13 -->
<g id="Node000013" class="node">
<title>Node13</title>
<g id="a_Node000013"><a xlink:href="../../d5/d4a/classorg_qhull_1_1_coordinates.html#a8a44d57e22787645333afd82aceff091" target="_top" xlink:title=" ">
<polygon fill="white" stroke="#666666" points="459.75,-30.5 349.25,-30.5 349.25,0 459.75,0 459.75,-30.5"/>
<text text-anchor="start" x="357.25" y="-17" font-family="Helvetica,sans-Serif" font-size="10.00">orgQhull::Coordinates</text>
<text text-anchor="middle" x="404.5" y="-5.75" font-family="Helvetica,sans-Serif" font-size="10.00">::reserve</text>
</a>
</g>
</g>
<!-- Node12&#45;&gt;Node13 -->
<g id="edge14_Node000012_Node000013" class="edge">
<title>Node12&#45;&gt;Node13</title>
<g id="a_edge14_Node000012_Node000013"><a xlink:title=" ">
<path fill="none" stroke="#63b8ff" d="M297.26,-42.6C310.58,-39.17 324.74,-35.53 338.23,-32.06"/>
<polygon fill="#63b8ff" stroke="#63b8ff" points="339.06,-35.2 347.87,-29.32 337.31,-28.42 339.06,-35.2"/>
</a>
</g>
</g>
</g>
</svg>

<g id="navigator" transform="translate(0 0)" fill="#404254">
  <rect fill="#f2f5e9" fill-opacity="0.5" stroke="#606060" stroke-width=".5" x="0" y="0" width="60" height="60"/>
  <use id="zoomplus" xlink:href="#zoomPlus" x="17" y="9" onmousedown="handleZoom(evt,'in')"/>
  <use id="zoomminus" xlink:href="#zoomMin" x="42" y="9" onmousedown="handleZoom(evt,'out')"/>
  <use id="reset" xlink:href="#resetDef" x="30" y="36" onmousedown="handleReset()"/>
   <use id="arrowup" xlink:href="#arrowUp" x="0" y="0" onmousedown="handlePan(0,-1)"/>
  <use id="arrowright" xlink:href="#arrowRight" x="0" y="0" onmousedown="handlePan(1,0)"/>
  <use id="arrowdown" xlink:href="#arrowDown" x="0" y="0" onmousedown="handlePan(0,1)"/>
  <use id="arrowleft" xlink:href="#arrowLeft" x="0" y="0" onmousedown="handlePan(-1,0)"/>
</g>
<svg viewBox="0 0 15 15" width="100%" height="30px" preserveAspectRatio="xMaxYMin meet">
 <g id="arrow_out" transform="scale(0.3 0.3)">
  <a xlink:href="classorg_qhull_1_1_point_coordinates_a098ebdf7f6420e22db35cd98bdb4ca36_cgraph_org.svg" target="_base">
   <rect id="button" ry="5" rx="5" y="6" x="6" height="38" width="38"
        fill="#f2f5e9" fill-opacity="0.5" stroke="#606060" stroke-width="1.0"/>
   <path id="arrow"
     d="M 11.500037,31.436501 C 11.940474,20.09759 22.043105,11.32322 32.158766,21.979434 L 37.068811,17.246167 C 37.068811,17.246167 37.088388,32 37.088388,32 L 22.160133,31.978069 C 22.160133,31.978069 26.997745,27.140456 26.997745,27.140456 C 18.528582,18.264221 13.291696,25.230495 11.500037,31.436501 z"
     style="fill:#404040;"/>
  </a>
 </g>
</svg>

<style type='text/css'>
<![CDATA[
[data-mouse-over-selected='false'] { opacity: 0.7; }
[data-mouse-over-selected='true']  { opacity: 1.0; }
]]>
</style>
<script type="application/ecmascript"><![CDATA[
document.addEventListener('DOMContentLoaded', (event) => {
  highlightEdges();
  highlightAdjacentNodes();
});
]]></script>
</svg>
