<?xml version="1.0" encoding="UTF-8" standalone="no"?>
<!DOCTYPE svg PUBLIC "-//W3C//DTD SVG 1.1//EN"
 "http://www.w3.org/Graphics/SVG/1.1/DTD/svg11.dtd">
<!-- Generated by graphviz version 8.1.0 (20230707.0739)
 -->
<!-- Title: AuxiliaryList::on_delete Pages: 1 -->
<svg width="581pt" height="218pt"
 viewBox="0.00 0.00 580.50 217.88" xmlns="http://www.w3.org/2000/svg" xmlns:xlink="http://www.w3.org/1999/xlink">
<g id="graph0" class="graph" transform="scale(1 1) rotate(0) translate(4 213.88)">
<title>AuxiliaryList::on_delete</title>
<!-- Node1 -->
<g id="Node000001" class="node">
<title>Node1</title>
<g id="a_Node000001"><a xlink:title=" ">
<polygon fill="#999999" stroke="#666666" points="117.25,-123.25 0,-123.25 0,-104 117.25,-104 117.25,-123.25"/>
<text text-anchor="middle" x="58.62" y="-109.75" font-family="Helvetica,sans-Serif" font-size="10.00">AuxiliaryList::on_delete</text>
</a>
</g>
</g>
<!-- Node2 -->
<g id="Node000002" class="node">
<title>Node2</title>
<g id="a_Node000002"><a xlink:href="../../d7/d46/class_auxiliary_model.html#a9fba6049b1037ba7abdab5cede7131d4" target="_top" xlink:title=" ">
<polygon fill="white" stroke="#666666" points="267.5,-123.25 153.25,-123.25 153.25,-104 267.5,-104 267.5,-123.25"/>
<text text-anchor="middle" x="210.38" y="-109.75" font-family="Helvetica,sans-Serif" font-size="10.00">AuxiliaryModel::Delete</text>
</a>
</g>
</g>
<!-- Node1&#45;&gt;Node2 -->
<g id="edge1_Node000001_Node000002" class="edge">
<title>Node1&#45;&gt;Node2</title>
<g id="a_edge1_Node000001_Node000002"><a xlink:title=" ">
<path fill="none" stroke="#63b8ff" d="M117.52,-113.62C125.65,-113.62 134.06,-113.62 142.34,-113.62"/>
<polygon fill="#63b8ff" stroke="#63b8ff" points="142.11,-117.13 152.11,-113.62 142.11,-110.13 142.11,-117.13"/>
</a>
</g>
</g>
<!-- Node3 -->
<g id="Node000003" class="node">
<title>Node3</title>
<g id="a_Node000003"><a xlink:href="../../d7/d0a/class_auxiliary_model_node.html#acab40c6d5c7568e08e17ea8ee58287d0" target="_top" xlink:title=" ">
<polygon fill="white" stroke="#666666" points="420,-209.88 317,-209.88 317,-179.38 420,-179.38 420,-209.88"/>
<text text-anchor="start" x="325" y="-196.38" font-family="Helvetica,sans-Serif" font-size="10.00">AuxiliaryModelNode</text>
<text text-anchor="middle" x="368.5" y="-185.12" font-family="Helvetica,sans-Serif" font-size="10.00">::GetChildren</text>
</a>
</g>
</g>
<!-- Node2&#45;&gt;Node3 -->
<g id="edge2_Node000002_Node000003" class="edge">
<title>Node2&#45;&gt;Node3</title>
<g id="a_edge2_Node000002_Node000003"><a xlink:title=" ">
<path fill="none" stroke="#63b8ff" d="M228.11,-123.66C246.39,-134.49 276.64,-151.99 303.5,-165.62 309.35,-168.6 315.57,-171.6 321.75,-174.49"/>
<polygon fill="#63b8ff" stroke="#63b8ff" points="319.81,-177.91 330.35,-178.92 322.74,-171.55 319.81,-177.91"/>
</a>
</g>
</g>
<!-- Node4 -->
<g id="Node000004" class="node">
<title>Node4</title>
<g id="a_Node000004"><a xlink:href="../../d7/d0a/class_auxiliary_model_node.html#a66227c679eef1e51d801bad14c117749" target="_top" xlink:title=" ">
<polygon fill="white" stroke="#666666" points="572.5,-147.88 469.5,-147.88 469.5,-117.38 572.5,-117.38 572.5,-147.88"/>
<text text-anchor="start" x="477.5" y="-134.38" font-family="Helvetica,sans-Serif" font-size="10.00">AuxiliaryModelNode</text>
<text text-anchor="middle" x="521" y="-123.12" font-family="Helvetica,sans-Serif" font-size="10.00">::GetParent</text>
</a>
</g>
</g>
<!-- Node2&#45;&gt;Node4 -->
<g id="edge3_Node000002_Node000004" class="edge">
<title>Node2&#45;&gt;Node4</title>
<g id="a_edge3_Node000002_Node000004"><a xlink:title=" ">
<path fill="none" stroke="#63b8ff" d="M251.46,-123.74C267.52,-127.31 286.28,-130.87 303.5,-132.62 355.44,-137.93 414.76,-137.47 458.15,-135.95"/>
<polygon fill="#63b8ff" stroke="#63b8ff" points="458.25,-139.41 468.11,-135.53 457.98,-132.42 458.25,-139.41"/>
</a>
</g>
</g>
<!-- Node5 -->
<g id="Node000005" class="node">
<title>Node5</title>
<g id="a_Node000005"><a xlink:href="../../d7/d46/class_auxiliary_model.html#ae978bb59eb19560f60503cd8cbd07404" target="_top" xlink:title=" ">
<polygon fill="white" stroke="#666666" points="433.5,-123.25 303.5,-123.25 303.5,-104 433.5,-104 433.5,-123.25"/>
<text text-anchor="middle" x="368.5" y="-109.75" font-family="Helvetica,sans-Serif" font-size="10.00">AuxiliaryModel::GetParent</text>
</a>
</g>
</g>
<!-- Node2&#45;&gt;Node5 -->
<g id="edge4_Node000002_Node000005" class="edge">
<title>Node2&#45;&gt;Node5</title>
<g id="a_edge4_Node000002_Node000005"><a xlink:title=" ">
<path fill="none" stroke="#63b8ff" d="M267.74,-113.62C275.76,-113.62 284.1,-113.62 292.41,-113.62"/>
<polygon fill="#63b8ff" stroke="#63b8ff" points="292.27,-117.13 302.27,-113.62 292.27,-110.13 292.27,-117.13"/>
</a>
</g>
</g>
<!-- Node6 -->
<g id="Node000006" class="node">
<title>Node6</title>
<g id="a_Node000006"><a xlink:href="../../d7/d0a/class_auxiliary_model_node.html#a0fd17e0f913dd8b6224a32814eee7968" target="_top" xlink:title=" ">
<polygon fill="white" stroke="#666666" points="420,-85.88 317,-85.88 317,-55.38 420,-55.38 420,-85.88"/>
<text text-anchor="start" x="325" y="-72.38" font-family="Helvetica,sans-Serif" font-size="10.00">AuxiliaryModelNode</text>
<text text-anchor="middle" x="368.5" y="-61.12" font-family="Helvetica,sans-Serif" font-size="10.00">::IsContainer</text>
</a>
</g>
</g>
<!-- Node2&#45;&gt;Node6 -->
<g id="edge6_Node000002_Node000006" class="edge">
<title>Node2&#45;&gt;Node6</title>
<g id="a_edge6_Node000002_Node000006"><a xlink:title=" ">
<path fill="none" stroke="#63b8ff" d="M247.98,-103.54C265.32,-98.77 286.51,-92.93 306.2,-87.51"/>
<polygon fill="#63b8ff" stroke="#63b8ff" points="306.93,-90.66 315.65,-84.63 305.08,-83.91 306.93,-90.66"/>
</a>
</g>
</g>
<!-- Node7 -->
<g id="Node000007" class="node">
<title>Node7</title>
<g id="a_Node000007"><a xlink:href="../../de/db8/namespace_slic3r.html#a4d5e1e162e29e7f7cded472b95a1a5ef" target="_top" xlink:title=" ">
<polygon fill="white" stroke="#666666" points="433.12,-19.25 303.88,-19.25 303.88,0 433.12,0 433.12,-19.25"/>
<text text-anchor="middle" x="368.5" y="-5.75" font-family="Helvetica,sans-Serif" font-size="10.00">Slic3r::put_other_changes</text>
</a>
</g>
</g>
<!-- Node2&#45;&gt;Node7 -->
<g id="edge7_Node000002_Node000007" class="edge">
<title>Node2&#45;&gt;Node7</title>
<g id="a_edge7_Node000002_Node000007"><a xlink:title=" ">
<path fill="none" stroke="#63b8ff" d="M224.19,-103.64C241.72,-90.15 274.32,-65.6 303.5,-46.62 315.07,-39.1 328.21,-31.37 339.56,-24.94"/>
<polygon fill="#63b8ff" stroke="#63b8ff" points="340.98,-27.6 347.99,-19.65 337.55,-21.49 340.98,-27.6"/>
</a>
</g>
</g>
<!-- Node5&#45;&gt;Node4 -->
<g id="edge5_Node000005_Node000004" class="edge">
<title>Node5&#45;&gt;Node4</title>
<g id="a_edge5_Node000005_Node000004"><a xlink:title=" ">
<path fill="none" stroke="#63b8ff" d="M433.76,-121.74C441.89,-122.76 450.2,-123.81 458.28,-124.83"/>
<polygon fill="#63b8ff" stroke="#63b8ff" points="457.78,-128.42 468.14,-126.2 458.66,-121.48 457.78,-128.42"/>
</a>
</g>
</g>
<!-- Node7&#45;&gt;Node7 -->
<g id="edge8_Node000007_Node000007" class="edge">
<title>Node7&#45;&gt;Node7</title>
<g id="a_edge8_Node000007_Node000007"><a xlink:title=" ">
<path fill="none" stroke="#63b8ff" d="M344.63,-19.54C333.74,-28.15 341.69,-37.25 368.5,-37.25 384.42,-37.25 393.69,-34.04 396.31,-29.63"/>
<polygon fill="#63b8ff" stroke="#63b8ff" points="399.27,-28.58 392.37,-20.54 392.75,-31.13 399.27,-28.58"/>
</a>
</g>
</g>
</g>
</svg>
