<?xml version="1.0" encoding="UTF-8" standalone="no"?>
<!DOCTYPE svg PUBLIC "-//W3C//DTD SVG 1.1//EN"
 "http://www.w3.org/Graphics/SVG/1.1/DTD/svg11.dtd">
<!-- Generated by graphviz version 8.1.0 (20230707.0739)
 -->
<!-- Title: Slic3r::BoundingBox3Base::polygon Pages: 1 -->
<svg width="211pt" height="64pt"
 viewBox="0.00 0.00 211.00 64.25" xmlns="http://www.w3.org/2000/svg" xmlns:xlink="http://www.w3.org/1999/xlink">
<g id="graph0" class="graph" transform="scale(1 1) rotate(0) translate(4 60.25)">
<title>Slic3r::BoundingBox3Base::polygon</title>
<!-- Node1 -->
<g id="Node000001" class="node">
<title>Node1</title>
<g id="a_Node000001"><a xlink:title=" ">
<polygon fill="#999999" stroke="#666666" points="132.25,-42.88 0,-42.88 0,-12.37 132.25,-12.37 132.25,-42.88"/>
<text text-anchor="start" x="8" y="-29.38" font-family="Helvetica,sans-Serif" font-size="10.00">Slic3r::BoundingBox3Base</text>
<text text-anchor="middle" x="66.12" y="-18.12" font-family="Helvetica,sans-Serif" font-size="10.00">::polygon</text>
</a>
</g>
</g>
<!-- Node2 -->
<g id="Node000002" class="node">
<title>Node2</title>
<g id="a_Node000002"><a xlink:href="../../df/db1/math_8h.html#a5083c48fbfb60dd70808789479f4db53" target="_top" xlink:title=" ">
<polygon fill="white" stroke="#666666" points="203,-56.25 168.25,-56.25 168.25,-37 203,-37 203,-56.25"/>
<text text-anchor="middle" x="185.62" y="-42.75" font-family="Helvetica,sans-Serif" font-size="10.00">max</text>
</a>
</g>
</g>
<!-- Node1&#45;&gt;Node2 -->
<g id="edge1_Node000001_Node000002" class="edge">
<title>Node1&#45;&gt;Node2</title>
<g id="a_edge1_Node000001_Node000002"><a xlink:title=" ">
<path fill="none" stroke="#63b8ff" d="M132.75,-38.24C141.3,-39.62 149.66,-40.97 157.08,-42.17"/>
<polygon fill="#63b8ff" stroke="#63b8ff" points="156.44,-45.77 166.87,-43.92 157.56,-38.86 156.44,-45.77"/>
</a>
</g>
</g>
<!-- Node3 -->
<g id="Node000003" class="node">
<title>Node3</title>
<g id="a_Node000003"><a xlink:href="../../df/db1/math_8h.html#a04a32cd137f4e2dc222aca71df9edb1b" target="_top" xlink:title=" ">
<polygon fill="white" stroke="#666666" points="201.5,-19.25 169.75,-19.25 169.75,0 201.5,0 201.5,-19.25"/>
<text text-anchor="middle" x="185.62" y="-5.75" font-family="Helvetica,sans-Serif" font-size="10.00">min</text>
</a>
</g>
</g>
<!-- Node1&#45;&gt;Node3 -->
<g id="edge2_Node000001_Node000003" class="edge">
<title>Node1&#45;&gt;Node3</title>
<g id="a_edge2_Node000001_Node000003"><a xlink:title=" ">
<path fill="none" stroke="#63b8ff" d="M132.75,-17.57C142.07,-16.14 151.16,-14.75 159.06,-13.54"/>
<polygon fill="#63b8ff" stroke="#63b8ff" points="159.31,-16.89 168.67,-11.92 158.25,-9.97 159.31,-16.89"/>
</a>
</g>
</g>
</g>
</svg>
