<?xml version="1.0" encoding="UTF-8" standalone="no"?>
<!DOCTYPE svg PUBLIC "-//W3C//DTD SVG 1.1//EN"
 "http://www.w3.org/Graphics/SVG/1.1/DTD/svg11.dtd">
<!-- Generated by graphviz version 8.1.0 (20230707.0739)
 -->
<!-- Title: Slic3r::AppConfig::set_defaults Pages: 1 -->
<svg width="403pt" height="292pt"
 viewBox="0.00 0.00 402.50 291.88" xmlns="http://www.w3.org/2000/svg" xmlns:xlink="http://www.w3.org/1999/xlink">
<g id="graph0" class="graph" transform="scale(1 1) rotate(0) translate(4 287.88)">
<title>Slic3r::AppConfig::set_defaults</title>
<!-- Node1 -->
<g id="Node000001" class="node">
<title>Node1</title>
<g id="a_Node000001"><a xlink:title=" ">
<polygon fill="#999999" stroke="#666666" points="98.5,-165.5 0,-165.5 0,-135 98.5,-135 98.5,-165.5"/>
<text text-anchor="start" x="8" y="-152" font-family="Helvetica,sans-Serif" font-size="10.00">Slic3r::AppConfig::</text>
<text text-anchor="middle" x="49.25" y="-140.75" font-family="Helvetica,sans-Serif" font-size="10.00">set_defaults</text>
</a>
</g>
</g>
<!-- Node2 -->
<g id="Node000002" class="node">
<title>Node2</title>
<g id="a_Node000002"><a xlink:href="../../de/db8/namespace_slic3r.html#a83fc268888773d5c0f886fc2e54b8c64" target="_top" xlink:title=" ">
<polygon fill="white" stroke="#666666" points="227.38,-283.88 153.62,-283.88 153.62,-264.62 227.38,-264.62 227.38,-283.88"/>
<text text-anchor="middle" x="190.5" y="-270.38" font-family="Helvetica,sans-Serif" font-size="10.00">Slic3r::empty</text>
</a>
</g>
</g>
<!-- Node1&#45;&gt;Node2 -->
<g id="edge1_Node000001_Node000002" class="edge">
<title>Node1&#45;&gt;Node2</title>
<g id="a_edge1_Node000001_Node000002"><a xlink:title=" ">
<path fill="none" stroke="#63b8ff" d="M58.8,-165.73C72.12,-188.49 99.91,-230.89 134.5,-255.25 137.22,-257.17 140.15,-258.9 143.19,-260.48"/>
<polygon fill="#63b8ff" stroke="#63b8ff" points="141.61,-264.05 152.17,-264.96 144.48,-257.67 141.61,-264.05"/>
</a>
</g>
</g>
<!-- Node3 -->
<g id="Node000003" class="node">
<title>Node3</title>
<g id="a_Node000003"><a xlink:href="../../da/d00/class_slic3r_1_1_app_config.html#abd6c3f7fa61add95953ae0d29a3d1345" target="_top" xlink:title=" ">
<polygon fill="white" stroke="#666666" points="239.75,-246.5 141.25,-246.5 141.25,-216 239.75,-216 239.75,-246.5"/>
<text text-anchor="start" x="149.25" y="-233" font-family="Helvetica,sans-Serif" font-size="10.00">Slic3r::AppConfig::</text>
<text text-anchor="middle" x="190.5" y="-221.75" font-family="Helvetica,sans-Serif" font-size="10.00">erase</text>
</a>
</g>
</g>
<!-- Node1&#45;&gt;Node3 -->
<g id="edge2_Node000001_Node000003" class="edge">
<title>Node1&#45;&gt;Node3</title>
<g id="a_edge2_Node000001_Node000003"><a xlink:title=" ">
<path fill="none" stroke="#63b8ff" d="M71.04,-165.89C87.69,-178.03 111.91,-194.82 134.5,-207.25 136.73,-208.48 139.04,-209.69 141.39,-210.88"/>
<polygon fill="#63b8ff" stroke="#63b8ff" points="139.66,-214.42 150.19,-215.62 142.71,-208.11 139.66,-214.42"/>
</a>
</g>
</g>
<!-- Node4 -->
<g id="Node000004" class="node">
<title>Node4</title>
<g id="a_Node000004"><a xlink:href="../../da/d00/class_slic3r_1_1_app_config.html#acf6d4a1479686546dfe4d1044de077b2" target="_top" xlink:title=" ">
<polygon fill="white" stroke="#666666" points="246.5,-197.88 134.5,-197.88 134.5,-178.62 246.5,-178.62 246.5,-197.88"/>
<text text-anchor="middle" x="190.5" y="-184.38" font-family="Helvetica,sans-Serif" font-size="10.00">Slic3r::AppConfig::get</text>
</a>
</g>
</g>
<!-- Node1&#45;&gt;Node4 -->
<g id="edge3_Node000001_Node000004" class="edge">
<title>Node1&#45;&gt;Node4</title>
<g id="a_edge3_Node000001_Node000004"><a xlink:title=" ">
<path fill="none" stroke="#63b8ff" d="M98.95,-163.54C112.95,-167.36 128.2,-171.52 142.11,-175.32"/>
<polygon fill="#63b8ff" stroke="#63b8ff" points="140.89,-178.89 151.46,-178.14 142.73,-172.13 140.89,-178.89"/>
</a>
</g>
</g>
<!-- Node5 -->
<g id="Node000005" class="node">
<title>Node5</title>
<g id="a_Node000005"><a xlink:href="../../da/d00/class_slic3r_1_1_app_config.html#a97582a7bbcce9e4db93a503db9fcca05" target="_top" xlink:title=" ">
<polygon fill="white" stroke="#666666" points="394.5,-137.88 282.5,-137.88 282.5,-118.62 394.5,-118.62 394.5,-137.88"/>
<text text-anchor="middle" x="338.5" y="-124.38" font-family="Helvetica,sans-Serif" font-size="10.00">Slic3r::AppConfig::set</text>
</a>
</g>
</g>
<!-- Node1&#45;&gt;Node5 -->
<g id="edge4_Node000001_Node000005" class="edge">
<title>Node1&#45;&gt;Node5</title>
<g id="a_edge4_Node000001_Node000005"><a xlink:title=" ">
<path fill="none" stroke="#63b8ff" d="M98.98,-146.52C146.35,-142.89 218.65,-137.35 271.23,-133.33"/>
<polygon fill="#63b8ff" stroke="#63b8ff" points="271.44,-136.74 281.14,-132.49 270.9,-129.76 271.44,-136.74"/>
</a>
</g>
</g>
<!-- Node6 -->
<g id="Node000006" class="node">
<title>Node6</title>
<g id="a_Node000006"><a xlink:href="../../da/d00/class_slic3r_1_1_app_config.html#ab09af260be2725a2fef38592db07e2d8" target="_top" xlink:title=" ">
<polygon fill="white" stroke="#666666" points="239.75,-122.5 141.25,-122.5 141.25,-92 239.75,-92 239.75,-122.5"/>
<text text-anchor="start" x="149.25" y="-109" font-family="Helvetica,sans-Serif" font-size="10.00">Slic3r::AppConfig::</text>
<text text-anchor="middle" x="190.5" y="-97.75" font-family="Helvetica,sans-Serif" font-size="10.00">set_bool</text>
</a>
</g>
</g>
<!-- Node1&#45;&gt;Node6 -->
<g id="edge5_Node000001_Node000006" class="edge">
<title>Node1&#45;&gt;Node6</title>
<g id="a_edge5_Node000001_Node000006"><a xlink:title=" ">
<path fill="none" stroke="#63b8ff" d="M98.95,-135.21C109.19,-132.05 120.09,-128.68 130.65,-125.42"/>
<polygon fill="#63b8ff" stroke="#63b8ff" points="131.54,-128.5 140.06,-122.21 129.47,-121.81 131.54,-128.5"/>
</a>
</g>
</g>
<!-- Node7 -->
<g id="Node000007" class="node">
<title>Node7</title>
<g id="a_Node000007"><a xlink:href="../../da/d00/class_slic3r_1_1_app_config.html#a0e4f2371aae7dd43709e7e05f04f1d4a" target="_top" xlink:title=" ">
<polygon fill="white" stroke="#666666" points="239.75,-73.5 141.25,-73.5 141.25,-43 239.75,-43 239.75,-73.5"/>
<text text-anchor="start" x="149.25" y="-60" font-family="Helvetica,sans-Serif" font-size="10.00">Slic3r::AppConfig::</text>
<text text-anchor="middle" x="190.5" y="-48.75" font-family="Helvetica,sans-Serif" font-size="10.00">set_str</text>
</a>
</g>
</g>
<!-- Node1&#45;&gt;Node7 -->
<g id="edge7_Node000001_Node000007" class="edge">
<title>Node1&#45;&gt;Node7</title>
<g id="a_edge7_Node000001_Node000007"><a xlink:title=" ">
<path fill="none" stroke="#63b8ff" d="M67.39,-134.53C83.79,-120.02 109.63,-98.47 134.5,-83.25 136.93,-81.76 139.47,-80.31 142.06,-78.9"/>
<polygon fill="#63b8ff" stroke="#63b8ff" points="143.29,-81.68 150.59,-74 140.09,-75.46 143.29,-81.68"/>
</a>
</g>
</g>
<!-- Node8 -->
<g id="Node000008" class="node">
<title>Node8</title>
<g id="a_Node000008"><a xlink:href="../../de/db8/namespace_slic3r.html#aeb3fca8348ccc662e2259780bf8bd621" target="_top" xlink:title=" ">
<polygon fill="white" stroke="#666666" points="232.62,-24.88 148.38,-24.88 148.38,-5.62 232.62,-5.62 232.62,-24.88"/>
<text text-anchor="middle" x="190.5" y="-11.38" font-family="Helvetica,sans-Serif" font-size="10.00">Slic3r::to_string</text>
</a>
</g>
</g>
<!-- Node1&#45;&gt;Node8 -->
<g id="edge8_Node000001_Node000008" class="edge">
<title>Node1&#45;&gt;Node8</title>
<g id="a_edge8_Node000001_Node000008"><a xlink:title=" ">
<path fill="none" stroke="#63b8ff" d="M57.56,-134.76C69.98,-110.03 97.5,-61.66 134.5,-34.25 136.55,-32.73 138.74,-31.32 141.01,-30.02"/>
<polygon fill="#63b8ff" stroke="#63b8ff" points="142.28,-32.81 149.71,-25.26 139.19,-26.52 142.28,-32.81"/>
</a>
</g>
</g>
<!-- Node6&#45;&gt;Node5 -->
<g id="edge6_Node000006_Node000005" class="edge">
<title>Node6&#45;&gt;Node5</title>
<g id="a_edge6_Node000006_Node000005"><a xlink:title=" ">
<path fill="none" stroke="#63b8ff" d="M240.12,-114.24C250.09,-115.68 260.75,-117.21 271.22,-118.72"/>
<polygon fill="#63b8ff" stroke="#63b8ff" points="270.64,-122.31 281.03,-120.27 271.63,-115.38 270.64,-122.31"/>
</a>
</g>
</g>
<!-- Node9 -->
<g id="Node000009" class="node">
<title>Node9</title>
<g id="a_Node000009"><a xlink:href="../../de/db8/namespace_slic3r.html#a95d4899dcbd269aa89e4943ed1eb7ae9" target="_top" xlink:title=" ">
<polygon fill="white" stroke="#666666" points="392.62,-30.5 284.38,-30.5 284.38,0 392.62,0 392.62,-30.5"/>
<text text-anchor="start" x="292.38" y="-17" font-family="Helvetica,sans-Serif" font-size="10.00">Slic3r::float_to_string</text>
<text text-anchor="middle" x="338.5" y="-5.75" font-family="Helvetica,sans-Serif" font-size="10.00">_decimal_point</text>
</a>
</g>
</g>
<!-- Node8&#45;&gt;Node9 -->
<g id="edge9_Node000008_Node000009" class="edge">
<title>Node8&#45;&gt;Node9</title>
<g id="a_edge9_Node000008_Node000009"><a xlink:title=" ">
<path fill="none" stroke="#63b8ff" d="M232.95,-15.25C245.45,-15.25 259.49,-15.25 273.12,-15.25"/>
<polygon fill="#63b8ff" stroke="#63b8ff" points="272.93,-18.75 282.93,-15.25 272.93,-11.75 272.93,-18.75"/>
</a>
</g>
</g>
</g>
</svg>
