<?xml version="1.0" encoding="UTF-8" standalone="no"?>
<!DOCTYPE svg PUBLIC "-//W3C//DTD SVG 1.1//EN"
 "http://www.w3.org/Graphics/SVG/1.1/DTD/svg11.dtd">
<!-- Generated by graphviz version 8.1.0 (20230707.0739)
 -->
<!-- Title: Slic3r::AppConfig::erase Pages: 1 -->
<!--zoomable 186 -->

<svg id="main" version="1.1" xmlns="http://www.w3.org/2000/svg" xmlns:xlink="http://www.w3.org/1999/xlink" xml:space="preserve" onload="init(evt)">
<style type="text/css"><![CDATA[
.node, .edge {opacity: 0.7;}
.node.selected, .edge.selected {opacity: 1;}
.edge:hover path { stroke: red; }
.edge:hover polygon { stroke: red; fill: red; }
]]></style>

<defs>
  <circle id="rim" cx="0" cy="0" r="7"/>
  <circle id="rim2" cx="0" cy="0" r="3.5"/>
  <g id="zoomPlus">
    <use xlink:href="#rim" fill="#404040"><set attributeName="fill" to="#808080" begin="zoomplus.mouseover" end="zoomplus.mouseout"/></use>
    <path d="M-4,0h8M0,-4v8" fill="none" stroke="white" stroke-width="1.5" pointer-events="none"/>
  </g>
  <g id="zoomMin">
    <use xlink:href="#rim" fill="#404040"><set attributeName="fill" to="#808080" begin="zoomminus.mouseover" end="zoomminus.mouseout"/></use>
    <path d="M-4,0h8" fill="none" stroke="white" stroke-width="1.5" pointer-events="none"/>
  </g>
  <g id="arrowUp" transform="translate(30 24)">
    <use xlink:href="#rim"/>
    <path pointer-events="none" fill="none" stroke="white" stroke-width="1.5" d="M0,-3.0v7 M-2.5,-0.5L0,-3.0L2.5,-0.5"/>
  </g>
  <g id="arrowRight" transform="rotate(90) translate(36 -43)">
    <use xlink:href="#rim"/>
    <path pointer-events="none" fill="none" stroke="white" stroke-width="1.5" d="M0,-3.0v7 M-2.5,-0.5L0,-3.0L2.5,-0.5"/>
  </g>
  <g id="arrowDown" transform="rotate(180) translate(-30 -48)">
    <use xlink:href="#rim"/>
    <path pointer-events="none" fill="none" stroke="white" stroke-width="1.5" d="M0,-3.0v7 M-2.5,-0.5L0,-3.0L2.5,-0.5"/>
  </g>
  <g id="arrowLeft" transform="rotate(270) translate(-36 17)">
    <use xlink:href="#rim"/>
    <path pointer-events="none" fill="none" stroke="white" stroke-width="1.5" d="M0,-3.0v7 M-2.5,-0.5L0,-3.0L2.5,-0.5"/>
  </g>
  <g id="resetDef">
    <use xlink:href="#rim2" fill="#404040"><set attributeName="fill" to="#808080" begin="reset.mouseover" end="reset.mouseout"/></use>
  </g>
</defs>
<script type="application/ecmascript">
var viewWidth = 554;
var viewHeight = 186;
var sectionId = 'dynsection-6';
</script>
<script type="application/ecmascript" xlink:href="../../svg.min.js"/>
<svg id="graph" class="graph">
<g id="viewport">
<title>Slic3r::AppConfig::erase</title>
<!-- Node1 -->
<g id="Node000001" class="node">
<title>Node1</title>
<g id="a_Node000001"><a xlink:title=" ">
<polygon fill="#999999" stroke="#666666" points="545.5,-103.5 447,-103.5 447,-73 545.5,-73 545.5,-103.5"/>
<text text-anchor="start" x="455" y="-90" font-family="Helvetica,sans-Serif" font-size="10.00">Slic3r::AppConfig::</text>
<text text-anchor="middle" x="496.25" y="-78.75" font-family="Helvetica,sans-Serif" font-size="10.00">erase</text>
</a>
</g>
</g>
<!-- Node2 -->
<g id="Node000002" class="node">
<title>Node2</title>
<g id="a_Node000002"><a xlink:href="../../d9/d01/class_slic3r_1_1_g_u_i_1_1_g_u_i___app.html#a1e6b794c292fc8283bf0ac553f34781b" target="_top" xlink:title=" ">
<polygon fill="white" stroke="#666666" points="411,-128.5 299.75,-128.5 299.75,-98 411,-98 411,-128.5"/>
<text text-anchor="start" x="307.75" y="-115" font-family="Helvetica,sans-Serif" font-size="10.00">Slic3r::GUI::GUI_App</text>
<text text-anchor="middle" x="355.38" y="-103.75" font-family="Helvetica,sans-Serif" font-size="10.00">::load_language</text>
</a>
</g>
</g>
<!-- Node1&#45;&gt;Node2 -->
<g id="edge1_Node000001_Node000002" class="edge">
<title>Node1&#45;&gt;Node2</title>
<g id="a_edge1_Node000001_Node000002"><a xlink:title=" ">
<path fill="none" stroke="#63b8ff" d="M436.05,-98.91C427.85,-100.38 419.45,-101.9 411.33,-103.36"/>
<polygon fill="#63b8ff" stroke="#63b8ff" points="436.46,-102.21 445.68,-96.99 435.22,-95.32 436.46,-102.21"/>
</a>
</g>
</g>
<!-- Node7 -->
<g id="Node000007" class="node">
<title>Node7</title>
<g id="a_Node000007"><a xlink:href="../../da/d00/class_slic3r_1_1_app_config.html#a4a47535a2b7c54c47a04b8a03e5acd4b" target="_top" xlink:title=" ">
<polygon fill="white" stroke="#666666" points="404.62,-79.5 306.12,-79.5 306.12,-49 404.62,-49 404.62,-79.5"/>
<text text-anchor="start" x="314.12" y="-66" font-family="Helvetica,sans-Serif" font-size="10.00">Slic3r::AppConfig::</text>
<text text-anchor="middle" x="355.38" y="-54.75" font-family="Helvetica,sans-Serif" font-size="10.00">set_defaults</text>
</a>
</g>
</g>
<!-- Node1&#45;&gt;Node7 -->
<g id="edge6_Node000001_Node000007" class="edge">
<title>Node1&#45;&gt;Node7</title>
<g id="a_edge6_Node000001_Node000007"><a xlink:title=" ">
<path fill="none" stroke="#63b8ff" d="M435.96,-78C425.52,-76.2 414.77,-74.34 404.68,-72.6"/>
<polygon fill="#63b8ff" stroke="#63b8ff" points="435.23,-81.6 445.68,-79.86 436.42,-74.7 435.23,-81.6"/>
</a>
</g>
</g>
<!-- Node3 -->
<g id="Node000003" class="node">
<title>Node3</title>
<g id="a_Node000003"><a xlink:href="../../d9/d01/class_slic3r_1_1_g_u_i_1_1_g_u_i___app.html#af07660170ea83f0e8eb7a3235b78746d" target="_top" xlink:title=" ">
<polygon fill="white" stroke="#666666" points="261.12,-177.5 149.88,-177.5 149.88,-147 261.12,-147 261.12,-177.5"/>
<text text-anchor="start" x="157.88" y="-164" font-family="Helvetica,sans-Serif" font-size="10.00">Slic3r::GUI::GUI_App</text>
<text text-anchor="middle" x="205.5" y="-152.75" font-family="Helvetica,sans-Serif" font-size="10.00">::on_init_inner</text>
</a>
</g>
</g>
<!-- Node2&#45;&gt;Node3 -->
<g id="edge2_Node000002_Node000003" class="edge">
<title>Node2&#45;&gt;Node3</title>
<g id="a_edge2_Node000002_Node000003"><a xlink:title=" ">
<path fill="none" stroke="#63b8ff" d="M297.01,-132.26C282.79,-136.97 267.7,-141.97 254.01,-146.51"/>
<polygon fill="#63b8ff" stroke="#63b8ff" points="297.79,-135.36 306.18,-128.89 295.59,-128.71 297.79,-135.36"/>
</a>
</g>
</g>
<!-- Node5 -->
<g id="Node000005" class="node">
<title>Node5</title>
<g id="a_Node000005"><a xlink:href="../../d9/d01/class_slic3r_1_1_g_u_i_1_1_g_u_i___app.html#aafaf3141aa8138519c037206b088d916" target="_top" xlink:title=" ">
<polygon fill="white" stroke="#666666" points="261.12,-128.5 149.88,-128.5 149.88,-98 261.12,-98 261.12,-128.5"/>
<text text-anchor="start" x="157.88" y="-115" font-family="Helvetica,sans-Serif" font-size="10.00">Slic3r::GUI::GUI_App</text>
<text text-anchor="middle" x="205.5" y="-103.75" font-family="Helvetica,sans-Serif" font-size="10.00">::select_language</text>
</a>
</g>
</g>
<!-- Node2&#45;&gt;Node5 -->
<g id="edge4_Node000002_Node000005" class="edge">
<title>Node2&#45;&gt;Node5</title>
<g id="a_edge4_Node000002_Node000005"><a xlink:title=" ">
<path fill="none" stroke="#63b8ff" d="M288.48,-113.25C279.5,-113.25 270.37,-113.25 261.61,-113.25"/>
<polygon fill="#63b8ff" stroke="#63b8ff" points="288.31,-116.75 298.31,-113.25 288.31,-109.75 288.31,-116.75"/>
</a>
</g>
</g>
<!-- Node4 -->
<g id="Node000004" class="node">
<title>Node4</title>
<g id="a_Node000004"><a xlink:href="../../d9/d01/class_slic3r_1_1_g_u_i_1_1_g_u_i___app.html#aa42e643ae5d080c0df171525858f3442" target="_top" xlink:title=" ">
<polygon fill="white" stroke="#666666" points="111.25,-177.5 0,-177.5 0,-147 111.25,-147 111.25,-177.5"/>
<text text-anchor="start" x="8" y="-164" font-family="Helvetica,sans-Serif" font-size="10.00">Slic3r::GUI::GUI_App</text>
<text text-anchor="middle" x="55.62" y="-152.75" font-family="Helvetica,sans-Serif" font-size="10.00">::OnInit</text>
</a>
</g>
</g>
<!-- Node3&#45;&gt;Node4 -->
<g id="edge3_Node000003_Node000004" class="edge">
<title>Node3&#45;&gt;Node4</title>
<g id="a_edge3_Node000003_Node000004"><a xlink:title=" ">
<path fill="none" stroke="#63b8ff" d="M138.6,-162.25C129.63,-162.25 120.49,-162.25 111.73,-162.25"/>
<polygon fill="#63b8ff" stroke="#63b8ff" points="138.44,-165.75 148.44,-162.25 138.44,-158.75 138.44,-165.75"/>
</a>
</g>
</g>
<!-- Node6 -->
<g id="Node000006" class="node">
<title>Node6</title>
<g id="a_Node000006"><a xlink:href="../../d9/d01/class_slic3r_1_1_g_u_i_1_1_g_u_i___app.html#a4b58cc35230fcc8450643b36540c49e4" target="_top" xlink:title=" ">
<polygon fill="white" stroke="#666666" points="111.25,-128.5 0,-128.5 0,-98 111.25,-98 111.25,-128.5"/>
<text text-anchor="start" x="8" y="-115" font-family="Helvetica,sans-Serif" font-size="10.00">Slic3r::GUI::GUI_App</text>
<text text-anchor="middle" x="55.62" y="-103.75" font-family="Helvetica,sans-Serif" font-size="10.00">::switch_language</text>
</a>
</g>
</g>
<!-- Node5&#45;&gt;Node6 -->
<g id="edge5_Node000005_Node000006" class="edge">
<title>Node5&#45;&gt;Node6</title>
<g id="a_edge5_Node000005_Node000006"><a xlink:title=" ">
<path fill="none" stroke="#63b8ff" d="M138.6,-113.25C129.63,-113.25 120.49,-113.25 111.73,-113.25"/>
<polygon fill="#63b8ff" stroke="#63b8ff" points="138.44,-116.75 148.44,-113.25 138.44,-109.75 138.44,-116.75"/>
</a>
</g>
</g>
<!-- Node8 -->
<g id="Node000008" class="node">
<title>Node8</title>
<g id="a_Node000008"><a xlink:href="../../da/d00/class_slic3r_1_1_app_config.html#af02c1550e6998ceaabb561adfe439e8f" target="_top" xlink:title=" ">
<polygon fill="white" stroke="#666666" points="263.75,-73.88 147.25,-73.88 147.25,-54.62 263.75,-54.62 263.75,-73.88"/>
<text text-anchor="middle" x="205.5" y="-60.38" font-family="Helvetica,sans-Serif" font-size="10.00">Slic3r::AppConfig::load</text>
</a>
</g>
</g>
<!-- Node7&#45;&gt;Node8 -->
<g id="edge7_Node000007_Node000008" class="edge">
<title>Node7&#45;&gt;Node8</title>
<g id="a_edge7_Node000007_Node000008"><a xlink:title=" ">
<path fill="none" stroke="#63b8ff" d="M295.05,-64.25C284.83,-64.25 274.22,-64.25 264.04,-64.25"/>
<polygon fill="#63b8ff" stroke="#63b8ff" points="294.96,-67.75 304.96,-64.25 294.96,-60.75 294.96,-67.75"/>
</a>
</g>
</g>
<!-- Node10 -->
<g id="Node000010" class="node">
<title>Node10</title>
<g id="a_Node000010"><a xlink:href="../../da/d00/class_slic3r_1_1_app_config.html#a0e92bc27b4d59d5b82bb3328516cc4ca" target="_top" xlink:title=" ">
<polygon fill="white" stroke="#666666" points="254.75,-33.5 156.25,-33.5 156.25,-3 254.75,-3 254.75,-33.5"/>
<text text-anchor="start" x="164.25" y="-20" font-family="Helvetica,sans-Serif" font-size="10.00">Slic3r::AppConfig::</text>
<text text-anchor="middle" x="205.5" y="-8.75" font-family="Helvetica,sans-Serif" font-size="10.00">reset</text>
</a>
</g>
</g>
<!-- Node7&#45;&gt;Node10 -->
<g id="edge9_Node000007_Node000010" class="edge">
<title>Node7&#45;&gt;Node10</title>
<g id="a_edge9_Node000007_Node000010"><a xlink:title=" ">
<path fill="none" stroke="#63b8ff" d="M295.79,-46.03C282.28,-41.82 268.06,-37.4 255.03,-33.35"/>
<polygon fill="#63b8ff" stroke="#63b8ff" points="294.37,-49.56 304.96,-49.19 296.45,-42.88 294.37,-49.56"/>
</a>
</g>
</g>
<!-- Node9 -->
<g id="Node000009" class="node">
<title>Node9</title>
<g id="a_Node000009"><a xlink:href="../../d9/d01/class_slic3r_1_1_g_u_i_1_1_g_u_i___app.html#aa12b2d1810ad1819b28383f416a8662d" target="_top" xlink:title=" ">
<polygon fill="white" stroke="#666666" points="111.25,-79.5 0,-79.5 0,-49 111.25,-49 111.25,-79.5"/>
<text text-anchor="start" x="8" y="-66" font-family="Helvetica,sans-Serif" font-size="10.00">Slic3r::GUI::GUI_App</text>
<text text-anchor="middle" x="55.62" y="-54.75" font-family="Helvetica,sans-Serif" font-size="10.00">::init_app_config</text>
</a>
</g>
</g>
<!-- Node8&#45;&gt;Node9 -->
<g id="edge8_Node000008_Node000009" class="edge">
<title>Node8&#45;&gt;Node9</title>
<g id="a_edge8_Node000008_Node000009"><a xlink:title=" ">
<path fill="none" stroke="#63b8ff" d="M136.11,-64.25C127.82,-64.25 119.45,-64.25 111.4,-64.25"/>
<polygon fill="#63b8ff" stroke="#63b8ff" points="135.9,-67.75 145.9,-64.25 135.9,-60.75 135.9,-67.75"/>
</a>
</g>
</g>
<!-- Node11 -->
<g id="Node000011" class="node">
<title>Node11</title>
<g id="a_Node000011"><a xlink:href="../../da/d00/class_slic3r_1_1_app_config.html#adf902626d4f72db0e8392a08e87cc825" target="_top" xlink:title=" ">
<polygon fill="white" stroke="#666666" points="104.88,-30.5 6.37,-30.5 6.37,0 104.88,0 104.88,-30.5"/>
<text text-anchor="start" x="14.38" y="-17" font-family="Helvetica,sans-Serif" font-size="10.00">Slic3r::AppConfig::</text>
<text text-anchor="middle" x="55.62" y="-5.75" font-family="Helvetica,sans-Serif" font-size="10.00">AppConfig</text>
</a>
</g>
</g>
<!-- Node10&#45;&gt;Node11 -->
<g id="edge10_Node000010_Node000011" class="edge">
<title>Node10&#45;&gt;Node11</title>
<g id="a_edge10_Node000010_Node000011"><a xlink:title=" ">
<path fill="none" stroke="#63b8ff" d="M145.12,-17.05C131.85,-16.78 117.93,-16.49 105.15,-16.23"/>
<polygon fill="#63b8ff" stroke="#63b8ff" points="145.01,-20.56 155.08,-17.27 145.15,-13.57 145.01,-20.56"/>
</a>
</g>
</g>
</g>
</svg>

<g id="navigator" transform="translate(0 0)" fill="#404254">
  <rect fill="#f2f5e9" fill-opacity="0.5" stroke="#606060" stroke-width=".5" x="0" y="0" width="60" height="60"/>
  <use id="zoomplus" xlink:href="#zoomPlus" x="17" y="9" onmousedown="handleZoom(evt,'in')"/>
  <use id="zoomminus" xlink:href="#zoomMin" x="42" y="9" onmousedown="handleZoom(evt,'out')"/>
  <use id="reset" xlink:href="#resetDef" x="30" y="36" onmousedown="handleReset()"/>
   <use id="arrowup" xlink:href="#arrowUp" x="0" y="0" onmousedown="handlePan(0,-1)"/>
  <use id="arrowright" xlink:href="#arrowRight" x="0" y="0" onmousedown="handlePan(1,0)"/>
  <use id="arrowdown" xlink:href="#arrowDown" x="0" y="0" onmousedown="handlePan(0,1)"/>
  <use id="arrowleft" xlink:href="#arrowLeft" x="0" y="0" onmousedown="handlePan(-1,0)"/>
</g>
<svg viewBox="0 0 15 15" width="100%" height="30px" preserveAspectRatio="xMaxYMin meet">
 <g id="arrow_out" transform="scale(0.3 0.3)">
  <a xlink:href="class_slic3r_1_1_app_config_abd6c3f7fa61add95953ae0d29a3d1345_icgraph_org.svg" target="_base">
   <rect id="button" ry="5" rx="5" y="6" x="6" height="38" width="38"
        fill="#f2f5e9" fill-opacity="0.5" stroke="#606060" stroke-width="1.0"/>
   <path id="arrow"
     d="M 11.500037,31.436501 C 11.940474,20.09759 22.043105,11.32322 32.158766,21.979434 L 37.068811,17.246167 C 37.068811,17.246167 37.088388,32 37.088388,32 L 22.160133,31.978069 C 22.160133,31.978069 26.997745,27.140456 26.997745,27.140456 C 18.528582,18.264221 13.291696,25.230495 11.500037,31.436501 z"
     style="fill:#404040;"/>
  </a>
 </g>
</svg>

<style type='text/css'>
<![CDATA[
[data-mouse-over-selected='false'] { opacity: 0.7; }
[data-mouse-over-selected='true']  { opacity: 1.0; }
]]>
</style>
<script type="application/ecmascript"><![CDATA[
document.addEventListener('DOMContentLoaded', (event) => {
  highlightEdges();
  highlightAdjacentNodes();
});
]]></script>
</svg>
