<?xml version="1.0" encoding="UTF-8" standalone="no"?>
<!DOCTYPE svg PUBLIC "-//W3C//DTD SVG 1.1//EN"
 "http://www.w3.org/Graphics/SVG/1.1/DTD/svg11.dtd">
<!-- Generated by graphviz version 8.1.0 (20230707.0739)
 -->
<!-- Title: Slic3r::AppConfig::AppConfig Pages: 1 -->
<!--zoomable 292 -->

<svg id="main" version="1.1" xmlns="http://www.w3.org/2000/svg" xmlns:xlink="http://www.w3.org/1999/xlink" xml:space="preserve" onload="init(evt)">
<style type="text/css"><![CDATA[
.node, .edge {opacity: 0.7;}
.node.selected, .edge.selected {opacity: 1;}
.edge:hover path { stroke: red; }
.edge:hover polygon { stroke: red; fill: red; }
]]></style>

<defs>
  <circle id="rim" cx="0" cy="0" r="7"/>
  <circle id="rim2" cx="0" cy="0" r="3.5"/>
  <g id="zoomPlus">
    <use xlink:href="#rim" fill="#404040"><set attributeName="fill" to="#808080" begin="zoomplus.mouseover" end="zoomplus.mouseout"/></use>
    <path d="M-4,0h8M0,-4v8" fill="none" stroke="white" stroke-width="1.5" pointer-events="none"/>
  </g>
  <g id="zoomMin">
    <use xlink:href="#rim" fill="#404040"><set attributeName="fill" to="#808080" begin="zoomminus.mouseover" end="zoomminus.mouseout"/></use>
    <path d="M-4,0h8" fill="none" stroke="white" stroke-width="1.5" pointer-events="none"/>
  </g>
  <g id="arrowUp" transform="translate(30 24)">
    <use xlink:href="#rim"/>
    <path pointer-events="none" fill="none" stroke="white" stroke-width="1.5" d="M0,-3.0v7 M-2.5,-0.5L0,-3.0L2.5,-0.5"/>
  </g>
  <g id="arrowRight" transform="rotate(90) translate(36 -43)">
    <use xlink:href="#rim"/>
    <path pointer-events="none" fill="none" stroke="white" stroke-width="1.5" d="M0,-3.0v7 M-2.5,-0.5L0,-3.0L2.5,-0.5"/>
  </g>
  <g id="arrowDown" transform="rotate(180) translate(-30 -48)">
    <use xlink:href="#rim"/>
    <path pointer-events="none" fill="none" stroke="white" stroke-width="1.5" d="M0,-3.0v7 M-2.5,-0.5L0,-3.0L2.5,-0.5"/>
  </g>
  <g id="arrowLeft" transform="rotate(270) translate(-36 17)">
    <use xlink:href="#rim"/>
    <path pointer-events="none" fill="none" stroke="white" stroke-width="1.5" d="M0,-3.0v7 M-2.5,-0.5L0,-3.0L2.5,-0.5"/>
  </g>
  <g id="resetDef">
    <use xlink:href="#rim2" fill="#404040"><set attributeName="fill" to="#808080" begin="reset.mouseover" end="reset.mouseout"/></use>
  </g>
</defs>
<script type="application/ecmascript">
var viewWidth = 672;
var viewHeight = 292;
var sectionId = 'dynsection-1';
</script>
<script type="application/ecmascript" xlink:href="../../svg.min.js"/>
<svg id="graph" class="graph">
<g id="viewport">
<title>Slic3r::AppConfig::AppConfig</title>
<!-- Node1 -->
<g id="Node000001" class="node">
<title>Node1</title>
<g id="a_Node000001"><a xlink:title=" ">
<polygon fill="#999999" stroke="#666666" points="98.5,-165.5 0,-165.5 0,-135 98.5,-135 98.5,-165.5"/>
<text text-anchor="start" x="8" y="-152" font-family="Helvetica,sans-Serif" font-size="10.00">Slic3r::AppConfig::</text>
<text text-anchor="middle" x="49.25" y="-140.75" font-family="Helvetica,sans-Serif" font-size="10.00">AppConfig</text>
</a>
</g>
</g>
<!-- Node2 -->
<g id="Node000002" class="node">
<title>Node2</title>
<g id="a_Node000002"><a xlink:href="../../da/d00/class_slic3r_1_1_app_config.html#a0e92bc27b4d59d5b82bb3328516cc4ca" target="_top" xlink:title=" ">
<polygon fill="white" stroke="#666666" points="233,-165.5 134.5,-165.5 134.5,-135 233,-135 233,-165.5"/>
<text text-anchor="start" x="142.5" y="-152" font-family="Helvetica,sans-Serif" font-size="10.00">Slic3r::AppConfig::</text>
<text text-anchor="middle" x="183.75" y="-140.75" font-family="Helvetica,sans-Serif" font-size="10.00">reset</text>
</a>
</g>
</g>
<!-- Node1&#45;&gt;Node2 -->
<g id="edge1_Node000001_Node000002" class="edge">
<title>Node1&#45;&gt;Node2</title>
<g id="a_edge1_Node000001_Node000002"><a xlink:title=" ">
<path fill="none" stroke="#63b8ff" d="M98.84,-150.25C106.76,-150.25 115.04,-150.25 123.19,-150.25"/>
<polygon fill="#63b8ff" stroke="#63b8ff" points="123.17,-153.75 133.17,-150.25 123.17,-146.75 123.17,-153.75"/>
</a>
</g>
</g>
<!-- Node3 -->
<g id="Node000003" class="node">
<title>Node3</title>
<g id="a_Node000003"><a xlink:href="../../da/d00/class_slic3r_1_1_app_config.html#a4a47535a2b7c54c47a04b8a03e5acd4b" target="_top" xlink:title=" ">
<polygon fill="white" stroke="#666666" points="367.5,-165.5 269,-165.5 269,-135 367.5,-135 367.5,-165.5"/>
<text text-anchor="start" x="277" y="-152" font-family="Helvetica,sans-Serif" font-size="10.00">Slic3r::AppConfig::</text>
<text text-anchor="middle" x="318.25" y="-140.75" font-family="Helvetica,sans-Serif" font-size="10.00">set_defaults</text>
</a>
</g>
</g>
<!-- Node2&#45;&gt;Node3 -->
<g id="edge2_Node000002_Node000003" class="edge">
<title>Node2&#45;&gt;Node3</title>
<g id="a_edge2_Node000002_Node000003"><a xlink:title=" ">
<path fill="none" stroke="#63b8ff" d="M233.34,-150.25C241.26,-150.25 249.54,-150.25 257.69,-150.25"/>
<polygon fill="#63b8ff" stroke="#63b8ff" points="257.67,-153.75 267.67,-150.25 257.67,-146.75 257.67,-153.75"/>
</a>
</g>
</g>
<!-- Node4 -->
<g id="Node000004" class="node">
<title>Node4</title>
<g id="a_Node000004"><a xlink:href="../../de/db8/namespace_slic3r.html#a83fc268888773d5c0f886fc2e54b8c64" target="_top" xlink:title=" ">
<polygon fill="white" stroke="#666666" points="496.38,-283.88 422.62,-283.88 422.62,-264.62 496.38,-264.62 496.38,-283.88"/>
<text text-anchor="middle" x="459.5" y="-270.38" font-family="Helvetica,sans-Serif" font-size="10.00">Slic3r::empty</text>
</a>
</g>
</g>
<!-- Node3&#45;&gt;Node4 -->
<g id="edge3_Node000003_Node000004" class="edge">
<title>Node3&#45;&gt;Node4</title>
<g id="a_edge3_Node000003_Node000004"><a xlink:title=" ">
<path fill="none" stroke="#63b8ff" d="M327.8,-165.73C341.12,-188.49 368.91,-230.89 403.5,-255.25 406.22,-257.17 409.15,-258.9 412.19,-260.48"/>
<polygon fill="#63b8ff" stroke="#63b8ff" points="410.61,-264.05 421.17,-264.96 413.48,-257.67 410.61,-264.05"/>
</a>
</g>
</g>
<!-- Node5 -->
<g id="Node000005" class="node">
<title>Node5</title>
<g id="a_Node000005"><a xlink:href="../../da/d00/class_slic3r_1_1_app_config.html#abd6c3f7fa61add95953ae0d29a3d1345" target="_top" xlink:title=" ">
<polygon fill="white" stroke="#666666" points="508.75,-246.5 410.25,-246.5 410.25,-216 508.75,-216 508.75,-246.5"/>
<text text-anchor="start" x="418.25" y="-233" font-family="Helvetica,sans-Serif" font-size="10.00">Slic3r::AppConfig::</text>
<text text-anchor="middle" x="459.5" y="-221.75" font-family="Helvetica,sans-Serif" font-size="10.00">erase</text>
</a>
</g>
</g>
<!-- Node3&#45;&gt;Node5 -->
<g id="edge4_Node000003_Node000005" class="edge">
<title>Node3&#45;&gt;Node5</title>
<g id="a_edge4_Node000003_Node000005"><a xlink:title=" ">
<path fill="none" stroke="#63b8ff" d="M340.04,-165.89C356.69,-178.03 380.91,-194.82 403.5,-207.25 405.73,-208.48 408.04,-209.69 410.39,-210.88"/>
<polygon fill="#63b8ff" stroke="#63b8ff" points="408.66,-214.42 419.19,-215.62 411.71,-208.11 408.66,-214.42"/>
</a>
</g>
</g>
<!-- Node6 -->
<g id="Node000006" class="node">
<title>Node6</title>
<g id="a_Node000006"><a xlink:href="../../da/d00/class_slic3r_1_1_app_config.html#acf6d4a1479686546dfe4d1044de077b2" target="_top" xlink:title=" ">
<polygon fill="white" stroke="#666666" points="515.5,-197.88 403.5,-197.88 403.5,-178.62 515.5,-178.62 515.5,-197.88"/>
<text text-anchor="middle" x="459.5" y="-184.38" font-family="Helvetica,sans-Serif" font-size="10.00">Slic3r::AppConfig::get</text>
</a>
</g>
</g>
<!-- Node3&#45;&gt;Node6 -->
<g id="edge5_Node000003_Node000006" class="edge">
<title>Node3&#45;&gt;Node6</title>
<g id="a_edge5_Node000003_Node000006"><a xlink:title=" ">
<path fill="none" stroke="#63b8ff" d="M367.95,-163.54C381.95,-167.36 397.2,-171.52 411.11,-175.32"/>
<polygon fill="#63b8ff" stroke="#63b8ff" points="409.89,-178.89 420.46,-178.14 411.73,-172.13 409.89,-178.89"/>
</a>
</g>
</g>
<!-- Node7 -->
<g id="Node000007" class="node">
<title>Node7</title>
<g id="a_Node000007"><a xlink:href="../../da/d00/class_slic3r_1_1_app_config.html#a97582a7bbcce9e4db93a503db9fcca05" target="_top" xlink:title=" ">
<polygon fill="white" stroke="#666666" points="663.5,-137.88 551.5,-137.88 551.5,-118.62 663.5,-118.62 663.5,-137.88"/>
<text text-anchor="middle" x="607.5" y="-124.38" font-family="Helvetica,sans-Serif" font-size="10.00">Slic3r::AppConfig::set</text>
</a>
</g>
</g>
<!-- Node3&#45;&gt;Node7 -->
<g id="edge6_Node000003_Node000007" class="edge">
<title>Node3&#45;&gt;Node7</title>
<g id="a_edge6_Node000003_Node000007"><a xlink:title=" ">
<path fill="none" stroke="#63b8ff" d="M367.98,-146.52C415.35,-142.89 487.65,-137.35 540.23,-133.33"/>
<polygon fill="#63b8ff" stroke="#63b8ff" points="540.44,-136.74 550.14,-132.49 539.9,-129.76 540.44,-136.74"/>
</a>
</g>
</g>
<!-- Node8 -->
<g id="Node000008" class="node">
<title>Node8</title>
<g id="a_Node000008"><a xlink:href="../../da/d00/class_slic3r_1_1_app_config.html#ab09af260be2725a2fef38592db07e2d8" target="_top" xlink:title=" ">
<polygon fill="white" stroke="#666666" points="508.75,-122.5 410.25,-122.5 410.25,-92 508.75,-92 508.75,-122.5"/>
<text text-anchor="start" x="418.25" y="-109" font-family="Helvetica,sans-Serif" font-size="10.00">Slic3r::AppConfig::</text>
<text text-anchor="middle" x="459.5" y="-97.75" font-family="Helvetica,sans-Serif" font-size="10.00">set_bool</text>
</a>
</g>
</g>
<!-- Node3&#45;&gt;Node8 -->
<g id="edge7_Node000003_Node000008" class="edge">
<title>Node3&#45;&gt;Node8</title>
<g id="a_edge7_Node000003_Node000008"><a xlink:title=" ">
<path fill="none" stroke="#63b8ff" d="M367.95,-135.21C378.19,-132.05 389.09,-128.68 399.65,-125.42"/>
<polygon fill="#63b8ff" stroke="#63b8ff" points="400.54,-128.5 409.06,-122.21 398.47,-121.81 400.54,-128.5"/>
</a>
</g>
</g>
<!-- Node9 -->
<g id="Node000009" class="node">
<title>Node9</title>
<g id="a_Node000009"><a xlink:href="../../da/d00/class_slic3r_1_1_app_config.html#a0e4f2371aae7dd43709e7e05f04f1d4a" target="_top" xlink:title=" ">
<polygon fill="white" stroke="#666666" points="508.75,-73.5 410.25,-73.5 410.25,-43 508.75,-43 508.75,-73.5"/>
<text text-anchor="start" x="418.25" y="-60" font-family="Helvetica,sans-Serif" font-size="10.00">Slic3r::AppConfig::</text>
<text text-anchor="middle" x="459.5" y="-48.75" font-family="Helvetica,sans-Serif" font-size="10.00">set_str</text>
</a>
</g>
</g>
<!-- Node3&#45;&gt;Node9 -->
<g id="edge9_Node000003_Node000009" class="edge">
<title>Node3&#45;&gt;Node9</title>
<g id="a_edge9_Node000003_Node000009"><a xlink:title=" ">
<path fill="none" stroke="#63b8ff" d="M336.39,-134.53C352.79,-120.02 378.63,-98.47 403.5,-83.25 405.93,-81.76 408.47,-80.31 411.06,-78.9"/>
<polygon fill="#63b8ff" stroke="#63b8ff" points="412.29,-81.68 419.59,-74 409.09,-75.46 412.29,-81.68"/>
</a>
</g>
</g>
<!-- Node10 -->
<g id="Node000010" class="node">
<title>Node10</title>
<g id="a_Node000010"><a xlink:href="../../de/db8/namespace_slic3r.html#aeb3fca8348ccc662e2259780bf8bd621" target="_top" xlink:title=" ">
<polygon fill="white" stroke="#666666" points="501.62,-24.88 417.38,-24.88 417.38,-5.62 501.62,-5.62 501.62,-24.88"/>
<text text-anchor="middle" x="459.5" y="-11.38" font-family="Helvetica,sans-Serif" font-size="10.00">Slic3r::to_string</text>
</a>
</g>
</g>
<!-- Node3&#45;&gt;Node10 -->
<g id="edge10_Node000003_Node000010" class="edge">
<title>Node3&#45;&gt;Node10</title>
<g id="a_edge10_Node000003_Node000010"><a xlink:title=" ">
<path fill="none" stroke="#63b8ff" d="M326.56,-134.76C338.98,-110.03 366.5,-61.66 403.5,-34.25 405.55,-32.73 407.74,-31.32 410.01,-30.02"/>
<polygon fill="#63b8ff" stroke="#63b8ff" points="411.28,-32.81 418.71,-25.26 408.19,-26.52 411.28,-32.81"/>
</a>
</g>
</g>
<!-- Node8&#45;&gt;Node7 -->
<g id="edge8_Node000008_Node000007" class="edge">
<title>Node8&#45;&gt;Node7</title>
<g id="a_edge8_Node000008_Node000007"><a xlink:title=" ">
<path fill="none" stroke="#63b8ff" d="M509.12,-114.24C519.09,-115.68 529.75,-117.21 540.22,-118.72"/>
<polygon fill="#63b8ff" stroke="#63b8ff" points="539.64,-122.31 550.03,-120.27 540.63,-115.38 539.64,-122.31"/>
</a>
</g>
</g>
<!-- Node11 -->
<g id="Node000011" class="node">
<title>Node11</title>
<g id="a_Node000011"><a xlink:href="../../de/db8/namespace_slic3r.html#a95d4899dcbd269aa89e4943ed1eb7ae9" target="_top" xlink:title=" ">
<polygon fill="white" stroke="#666666" points="661.62,-30.5 553.38,-30.5 553.38,0 661.62,0 661.62,-30.5"/>
<text text-anchor="start" x="561.38" y="-17" font-family="Helvetica,sans-Serif" font-size="10.00">Slic3r::float_to_string</text>
<text text-anchor="middle" x="607.5" y="-5.75" font-family="Helvetica,sans-Serif" font-size="10.00">_decimal_point</text>
</a>
</g>
</g>
<!-- Node10&#45;&gt;Node11 -->
<g id="edge11_Node000010_Node000011" class="edge">
<title>Node10&#45;&gt;Node11</title>
<g id="a_edge11_Node000010_Node000011"><a xlink:title=" ">
<path fill="none" stroke="#63b8ff" d="M501.95,-15.25C514.45,-15.25 528.49,-15.25 542.12,-15.25"/>
<polygon fill="#63b8ff" stroke="#63b8ff" points="541.93,-18.75 551.93,-15.25 541.93,-11.75 541.93,-18.75"/>
</a>
</g>
</g>
</g>
</svg>

<g id="navigator" transform="translate(0 0)" fill="#404254">
  <rect fill="#f2f5e9" fill-opacity="0.5" stroke="#606060" stroke-width=".5" x="0" y="0" width="60" height="60"/>
  <use id="zoomplus" xlink:href="#zoomPlus" x="17" y="9" onmousedown="handleZoom(evt,'in')"/>
  <use id="zoomminus" xlink:href="#zoomMin" x="42" y="9" onmousedown="handleZoom(evt,'out')"/>
  <use id="reset" xlink:href="#resetDef" x="30" y="36" onmousedown="handleReset()"/>
   <use id="arrowup" xlink:href="#arrowUp" x="0" y="0" onmousedown="handlePan(0,-1)"/>
  <use id="arrowright" xlink:href="#arrowRight" x="0" y="0" onmousedown="handlePan(1,0)"/>
  <use id="arrowdown" xlink:href="#arrowDown" x="0" y="0" onmousedown="handlePan(0,1)"/>
  <use id="arrowleft" xlink:href="#arrowLeft" x="0" y="0" onmousedown="handlePan(-1,0)"/>
</g>
<svg viewBox="0 0 15 15" width="100%" height="30px" preserveAspectRatio="xMaxYMin meet">
 <g id="arrow_out" transform="scale(0.3 0.3)">
  <a xlink:href="class_slic3r_1_1_app_config_adf902626d4f72db0e8392a08e87cc825_cgraph_org.svg" target="_base">
   <rect id="button" ry="5" rx="5" y="6" x="6" height="38" width="38"
        fill="#f2f5e9" fill-opacity="0.5" stroke="#606060" stroke-width="1.0"/>
   <path id="arrow"
     d="M 11.500037,31.436501 C 11.940474,20.09759 22.043105,11.32322 32.158766,21.979434 L 37.068811,17.246167 C 37.068811,17.246167 37.088388,32 37.088388,32 L 22.160133,31.978069 C 22.160133,31.978069 26.997745,27.140456 26.997745,27.140456 C 18.528582,18.264221 13.291696,25.230495 11.500037,31.436501 z"
     style="fill:#404040;"/>
  </a>
 </g>
</svg>

<style type='text/css'>
<![CDATA[
[data-mouse-over-selected='false'] { opacity: 0.7; }
[data-mouse-over-selected='true']  { opacity: 1.0; }
]]>
</style>
<script type="application/ecmascript"><![CDATA[
document.addEventListener('DOMContentLoaded', (event) => {
  highlightEdges();
  highlightAdjacentNodes();
});
]]></script>
</svg>
