<?xml version="1.0" encoding="UTF-8" standalone="no"?>
<!DOCTYPE svg PUBLIC "-//W3C//DTD SVG 1.1//EN"
 "http://www.w3.org/Graphics/SVG/1.1/DTD/svg11.dtd">
<!-- Generated by graphviz version 8.1.0 (20230707.0739)
 -->
<!-- Title: Slic3r::GUI::DiffModel::AddOption Pages: 1 -->
<!--zoomable 177 -->

<svg id="main" version="1.1" xmlns="http://www.w3.org/2000/svg" xmlns:xlink="http://www.w3.org/1999/xlink" xml:space="preserve" onload="init(evt)">
<style type="text/css"><![CDATA[
.node, .edge {opacity: 0.7;}
.node.selected, .edge.selected {opacity: 1;}
.edge:hover path { stroke: red; }
.edge:hover polygon { stroke: red; fill: red; }
]]></style>

<defs>
  <circle id="rim" cx="0" cy="0" r="7"/>
  <circle id="rim2" cx="0" cy="0" r="3.5"/>
  <g id="zoomPlus">
    <use xlink:href="#rim" fill="#404040"><set attributeName="fill" to="#808080" begin="zoomplus.mouseover" end="zoomplus.mouseout"/></use>
    <path d="M-4,0h8M0,-4v8" fill="none" stroke="white" stroke-width="1.5" pointer-events="none"/>
  </g>
  <g id="zoomMin">
    <use xlink:href="#rim" fill="#404040"><set attributeName="fill" to="#808080" begin="zoomminus.mouseover" end="zoomminus.mouseout"/></use>
    <path d="M-4,0h8" fill="none" stroke="white" stroke-width="1.5" pointer-events="none"/>
  </g>
  <g id="arrowUp" transform="translate(30 24)">
    <use xlink:href="#rim"/>
    <path pointer-events="none" fill="none" stroke="white" stroke-width="1.5" d="M0,-3.0v7 M-2.5,-0.5L0,-3.0L2.5,-0.5"/>
  </g>
  <g id="arrowRight" transform="rotate(90) translate(36 -43)">
    <use xlink:href="#rim"/>
    <path pointer-events="none" fill="none" stroke="white" stroke-width="1.5" d="M0,-3.0v7 M-2.5,-0.5L0,-3.0L2.5,-0.5"/>
  </g>
  <g id="arrowDown" transform="rotate(180) translate(-30 -48)">
    <use xlink:href="#rim"/>
    <path pointer-events="none" fill="none" stroke="white" stroke-width="1.5" d="M0,-3.0v7 M-2.5,-0.5L0,-3.0L2.5,-0.5"/>
  </g>
  <g id="arrowLeft" transform="rotate(270) translate(-36 17)">
    <use xlink:href="#rim"/>
    <path pointer-events="none" fill="none" stroke="white" stroke-width="1.5" d="M0,-3.0v7 M-2.5,-0.5L0,-3.0L2.5,-0.5"/>
  </g>
  <g id="resetDef">
    <use xlink:href="#rim2" fill="#404040"><set attributeName="fill" to="#808080" begin="reset.mouseover" end="reset.mouseout"/></use>
  </g>
</defs>
<script type="application/ecmascript">
var viewWidth = 1203;
var viewHeight = 177;
var sectionId = 'dynsection-3';
</script>
<script type="application/ecmascript" xlink:href="../../svg.min.js"/>
<svg id="graph" class="graph">
<g id="viewport">
<title>Slic3r::GUI::DiffModel::AddOption</title>
<!-- Node1 -->
<g id="Node000001" class="node">
<title>Node1</title>
<g id="a_Node000001"><a xlink:title=" ">
<polygon fill="#999999" stroke="#666666" points="1195,-144.5 1082.25,-144.5 1082.25,-114 1195,-114 1195,-144.5"/>
<text text-anchor="start" x="1090.25" y="-131" font-family="Helvetica,sans-Serif" font-size="10.00">Slic3r::GUI::DiffModel</text>
<text text-anchor="middle" x="1138.62" y="-119.75" font-family="Helvetica,sans-Serif" font-size="10.00">::AddOption</text>
</a>
</g>
</g>
<!-- Node2 -->
<g id="Node000002" class="node">
<title>Node2</title>
<g id="a_Node000002"><a xlink:href="../../d4/d7a/class_slic3r_1_1_g_u_i_1_1_diff_model.html#a9a1f81b8812514ee6b0b25b488924d87" target="_top" xlink:title=" ">
<polygon fill="white" stroke="#666666" points="664,-168.5 551.25,-168.5 551.25,-138 664,-138 664,-168.5"/>
<text text-anchor="start" x="559.25" y="-155" font-family="Helvetica,sans-Serif" font-size="10.00">Slic3r::GUI::DiffModel</text>
<text text-anchor="middle" x="607.62" y="-143.75" font-family="Helvetica,sans-Serif" font-size="10.00">::AddOption</text>
</a>
</g>
</g>
<!-- Node1&#45;&gt;Node2 -->
<g id="edge1_Node000001_Node000002" class="edge">
<title>Node1&#45;&gt;Node2</title>
<g id="a_edge1_Node000001_Node000002"><a xlink:title=" ">
<path fill="none" stroke="#63b8ff" d="M1076.22,-147.62C1066.28,-149.94 1056.04,-151.95 1046.25,-153.25 909.92,-171.29 747.6,-163.82 664.2,-157.89"/>
<polygon fill="#63b8ff" stroke="#63b8ff" points="1076.98,-150.79 1085.85,-145 1075.3,-143.99 1076.98,-150.79"/>
</a>
</g>
</g>
<!-- Node3 -->
<g id="Node000003" class="node">
<title>Node3</title>
<g id="a_Node000003"><a xlink:href="../../d4/d7a/class_slic3r_1_1_g_u_i_1_1_diff_model.html#a824defcb4878bace351a3da08b1e1920" target="_top" xlink:title=" ">
<polygon fill="white" stroke="#666666" points="1041.38,-144.5 927.12,-144.5 927.12,-114 1041.38,-114 1041.38,-144.5"/>
<text text-anchor="start" x="935.12" y="-131" font-family="Helvetica,sans-Serif" font-size="10.00">Slic3r::GUI::DiffModel</text>
<text text-anchor="middle" x="984.25" y="-119.75" font-family="Helvetica,sans-Serif" font-size="10.00">::AddOptionWithGroup</text>
</a>
</g>
</g>
<!-- Node1&#45;&gt;Node3 -->
<g id="edge2_Node000001_Node000003" class="edge">
<title>Node1&#45;&gt;Node3</title>
<g id="a_edge2_Node000001_Node000003"><a xlink:title=" ">
<path fill="none" stroke="#63b8ff" d="M1070.86,-129.25C1061.11,-129.25 1051.15,-129.25 1041.63,-129.25"/>
<polygon fill="#63b8ff" stroke="#63b8ff" points="1070.75,-132.75 1080.75,-129.25 1070.75,-125.75 1070.75,-132.75"/>
</a>
</g>
</g>
<!-- Node5 -->
<g id="Node000005" class="node">
<title>Node5</title>
<g id="a_Node000005"><a xlink:href="../../d3/d0b/class_slic3r_1_1_g_u_i_1_1_diff_view_ctrl.html#adac4782811b62b6d43ea4989e0a74fad" target="_top" xlink:title=" ">
<polygon fill="white" stroke="#666666" points="1046.25,-95.5 922.25,-95.5 922.25,-65 1046.25,-65 1046.25,-95.5"/>
<text text-anchor="start" x="930.25" y="-82" font-family="Helvetica,sans-Serif" font-size="10.00">Slic3r::GUI::DiffViewCtrl</text>
<text text-anchor="middle" x="984.25" y="-70.75" font-family="Helvetica,sans-Serif" font-size="10.00">::Append</text>
</a>
</g>
</g>
<!-- Node1&#45;&gt;Node5 -->
<g id="edge6_Node000001_Node000005" class="edge">
<title>Node1&#45;&gt;Node5</title>
<g id="a_edge6_Node000001_Node000005"><a xlink:title=" ">
<path fill="none" stroke="#63b8ff" d="M1078.94,-110.38C1064.16,-105.63 1048.45,-100.57 1034.2,-95.99"/>
<polygon fill="#63b8ff" stroke="#63b8ff" points="1077.4,-113.88 1087.99,-113.61 1079.55,-107.22 1077.4,-113.88"/>
</a>
</g>
</g>
<!-- Node3&#45;&gt;Node2 -->
<g id="edge3_Node000003_Node000002" class="edge">
<title>Node3&#45;&gt;Node2</title>
<g id="a_edge3_Node000003_Node000002"><a xlink:title=" ">
<path fill="none" stroke="#63b8ff" d="M916.02,-133.56C844.14,-138.16 731.47,-145.38 664.35,-149.68"/>
<polygon fill="#63b8ff" stroke="#63b8ff" points="916,-137 925.76,-132.87 915.56,-130.02 916,-137"/>
</a>
</g>
</g>
<!-- Node4 -->
<g id="Node000004" class="node">
<title>Node4</title>
<g id="a_Node000004"><a xlink:href="../../d4/d7a/class_slic3r_1_1_g_u_i_1_1_diff_model.html#a1a625fff043d126dc5ab94d5b8bef50e" target="_top" xlink:title=" ">
<polygon fill="white" stroke="#666666" points="886.25,-125.5 715,-125.5 715,-95 886.25,-95 886.25,-125.5"/>
<text text-anchor="start" x="723" y="-112" font-family="Helvetica,sans-Serif" font-size="10.00">Slic3r::GUI::DiffModel</text>
<text text-anchor="middle" x="800.62" y="-100.75" font-family="Helvetica,sans-Serif" font-size="10.00">::AddOptionWithGroupAndCategory</text>
</a>
</g>
</g>
<!-- Node3&#45;&gt;Node4 -->
<g id="edge4_Node000003_Node000004" class="edge">
<title>Node3&#45;&gt;Node4</title>
<g id="a_edge4_Node000003_Node000004"><a xlink:title=" ">
<path fill="none" stroke="#63b8ff" d="M916.15,-122.23C906.56,-121.23 896.6,-120.19 886.73,-119.15"/>
<polygon fill="#63b8ff" stroke="#63b8ff" points="915.47,-125.78 925.78,-123.34 916.2,-118.82 915.47,-125.78"/>
</a>
</g>
</g>
<!-- Node4&#45;&gt;Node2 -->
<g id="edge5_Node000004_Node000002" class="edge">
<title>Node4&#45;&gt;Node2</title>
<g id="a_edge5_Node000004_Node000002"><a xlink:title=" ">
<path fill="none" stroke="#63b8ff" d="M719.13,-128.37C700.73,-132.51 681.56,-136.83 664.46,-140.68"/>
<polygon fill="#63b8ff" stroke="#63b8ff" points="719.87,-131.57 728.86,-125.96 718.33,-124.74 719.87,-131.57"/>
</a>
</g>
</g>
<!-- Node6 -->
<g id="Node000006" class="node">
<title>Node6</title>
<g id="a_Node000006"><a xlink:href="../../d8/d29/class_slic3r_1_1_g_u_i_1_1_diff_preset_dialog.html#ae235ffdb05c0fc676a976a645bd997db" target="_top" xlink:title=" ">
<polygon fill="white" stroke="#666666" points="872,-76.5 729.25,-76.5 729.25,-46 872,-46 872,-76.5"/>
<text text-anchor="start" x="737.25" y="-63" font-family="Helvetica,sans-Serif" font-size="10.00">Slic3r::GUI::DiffPresetDialog</text>
<text text-anchor="middle" x="800.62" y="-51.75" font-family="Helvetica,sans-Serif" font-size="10.00">::update_tree</text>
</a>
</g>
</g>
<!-- Node5&#45;&gt;Node6 -->
<g id="edge7_Node000005_Node000006" class="edge">
<title>Node5&#45;&gt;Node6</title>
<g id="a_edge7_Node000005_Node000006"><a xlink:title=" ">
<path fill="none" stroke="#63b8ff" d="M911.19,-72.71C898.44,-71.38 885.17,-69.99 872.45,-68.66"/>
<polygon fill="#63b8ff" stroke="#63b8ff" points="910.45,-76.26 920.76,-73.82 911.18,-69.3 910.45,-76.26"/>
</a>
</g>
</g>
<!-- Node7 -->
<g id="Node000007" class="node">
<title>Node7</title>
<g id="a_Node000007"><a xlink:href="../../d8/d29/class_slic3r_1_1_g_u_i_1_1_diff_preset_dialog.html#a5b25a968048021a5a37a8049ebcc96cf" target="_top" xlink:title=" ">
<polygon fill="white" stroke="#666666" points="142.75,-100.5 0,-100.5 0,-70 142.75,-70 142.75,-100.5"/>
<text text-anchor="start" x="8" y="-87" font-family="Helvetica,sans-Serif" font-size="10.00">Slic3r::GUI::DiffPresetDialog</text>
<text text-anchor="middle" x="71.38" y="-75.75" font-family="Helvetica,sans-Serif" font-size="10.00">::DiffPresetDialog</text>
</a>
</g>
</g>
<!-- Node6&#45;&gt;Node7 -->
<g id="edge8_Node000006_Node000007" class="edge">
<title>Node6&#45;&gt;Node7</title>
<g id="a_edge8_Node000006_Node000007"><a xlink:title=" ">
<path fill="none" stroke="#63b8ff" d="M721.66,-78.98C707.53,-81.56 692.88,-83.82 679,-85.25 485.97,-105.08 256.56,-96.37 143.13,-89.92"/>
<polygon fill="#63b8ff" stroke="#63b8ff" points="722.17,-82.26 731.34,-76.96 720.86,-75.38 722.17,-82.26"/>
</a>
</g>
</g>
<!-- Node8 -->
<g id="Node000008" class="node">
<title>Node8</title>
<g id="a_Node000008"><a xlink:href="../../d8/d29/class_slic3r_1_1_g_u_i_1_1_diff_preset_dialog.html#a102f8ac8002b5a08c3b07258939c78a4" target="_top" xlink:title=" ">
<polygon fill="white" stroke="#666666" points="679,-76.5 536.25,-76.5 536.25,-46 679,-46 679,-76.5"/>
<text text-anchor="start" x="544.25" y="-63" font-family="Helvetica,sans-Serif" font-size="10.00">Slic3r::GUI::DiffPresetDialog</text>
<text text-anchor="middle" x="607.62" y="-51.75" font-family="Helvetica,sans-Serif" font-size="10.00">::show</text>
</a>
</g>
</g>
<!-- Node6&#45;&gt;Node8 -->
<g id="edge9_Node000006_Node000008" class="edge">
<title>Node6&#45;&gt;Node8</title>
<g id="a_edge9_Node000006_Node000008"><a xlink:title=" ">
<path fill="none" stroke="#63b8ff" d="M718.06,-61.25C705.19,-61.25 691.96,-61.25 679.36,-61.25"/>
<polygon fill="#63b8ff" stroke="#63b8ff" points="717.78,-64.75 727.78,-61.25 717.78,-57.75 717.78,-64.75"/>
</a>
</g>
</g>
<!-- Node11 -->
<g id="Node000011" class="node">
<title>Node11</title>
<g id="a_Node000011"><a xlink:href="../../d8/d29/class_slic3r_1_1_g_u_i_1_1_diff_preset_dialog.html#ae3dda2c48e5756b94ac890b2c43c3f49" target="_top" xlink:title=" ">
<polygon fill="white" stroke="#666666" points="321.5,-30.5 178.75,-30.5 178.75,0 321.5,0 321.5,-30.5"/>
<text text-anchor="start" x="186.75" y="-17" font-family="Helvetica,sans-Serif" font-size="10.00">Slic3r::GUI::DiffPresetDialog</text>
<text text-anchor="middle" x="250.12" y="-5.75" font-family="Helvetica,sans-Serif" font-size="10.00">::update_presets</text>
</a>
</g>
</g>
<!-- Node6&#45;&gt;Node11 -->
<g id="edge15_Node000006_Node000011" class="edge">
<title>Node6&#45;&gt;Node11</title>
<g id="a_edge15_Node000006_Node000011"><a xlink:title=" ">
<path fill="none" stroke="#63b8ff" d="M719.14,-43.56C705.78,-41.1 692.04,-38.87 679,-37.25 553.89,-21.67 406.88,-17.08 321.81,-15.75"/>
<polygon fill="#63b8ff" stroke="#63b8ff" points="718.26,-47.14 728.74,-45.56 719.57,-40.26 718.26,-47.14"/>
</a>
</g>
</g>
<!-- Node9 -->
<g id="Node000009" class="node">
<title>Node9</title>
<g id="a_Node000009"><a xlink:href="../../d8/d29/class_slic3r_1_1_g_u_i_1_1_diff_preset_dialog.html#ada26c108a0325e5fbca064d9aab7d84b" target="_top" xlink:title=" ">
<polygon fill="white" stroke="#666666" points="500.25,-76.5 357.5,-76.5 357.5,-46 500.25,-46 500.25,-76.5"/>
<text text-anchor="start" x="365.5" y="-63" font-family="Helvetica,sans-Serif" font-size="10.00">Slic3r::GUI::DiffPresetDialog</text>
<text text-anchor="middle" x="428.88" y="-51.75" font-family="Helvetica,sans-Serif" font-size="10.00">::update_controls_visibility</text>
</a>
</g>
</g>
<!-- Node8&#45;&gt;Node9 -->
<g id="edge10_Node000008_Node000009" class="edge">
<title>Node8&#45;&gt;Node9</title>
<g id="a_edge10_Node000008_Node000009"><a xlink:title=" ">
<path fill="none" stroke="#63b8ff" d="M524.76,-54.52C516.65,-54.48 508.46,-54.51 500.48,-54.62"/>
<polygon fill="#63b8ff" stroke="#63b8ff" points="524.72,-58.03 534.75,-54.62 524.79,-51.03 524.72,-58.03"/>
</a>
</g>
</g>
<!-- Node9&#45;&gt;Node8 -->
<g id="edge11_Node000009_Node000008" class="edge">
<title>Node9&#45;&gt;Node8</title>
<g id="a_edge11_Node000009_Node000008"><a xlink:title=" ">
<path fill="none" stroke="#63b8ff" d="M511.46,-67.98C519.57,-68.02 527.76,-67.99 535.75,-67.88"/>
<polygon fill="#63b8ff" stroke="#63b8ff" points="511.51,-64.47 501.48,-67.88 511.44,-71.47 511.51,-64.47"/>
</a>
</g>
</g>
<!-- Node10 -->
<g id="Node000010" class="node">
<title>Node10</title>
<g id="a_Node000010"><a xlink:href="../../d8/d29/class_slic3r_1_1_g_u_i_1_1_diff_preset_dialog.html#aab68b7ba2bd6bb4754d066acdb468d5e" target="_top" xlink:title=" ">
<polygon fill="white" stroke="#666666" points="321.5,-79.5 178.75,-79.5 178.75,-49 321.5,-49 321.5,-79.5"/>
<text text-anchor="start" x="186.75" y="-66" font-family="Helvetica,sans-Serif" font-size="10.00">Slic3r::GUI::DiffPresetDialog</text>
<text text-anchor="middle" x="250.12" y="-54.75" font-family="Helvetica,sans-Serif" font-size="10.00">::update_compatibility</text>
</a>
</g>
</g>
<!-- Node9&#45;&gt;Node10 -->
<g id="edge12_Node000009_Node000010" class="edge">
<title>Node9&#45;&gt;Node10</title>
<g id="a_edge12_Node000009_Node000010"><a xlink:title=" ">
<path fill="none" stroke="#63b8ff" d="M346.01,-62.64C337.9,-62.78 329.71,-62.92 321.73,-63.05"/>
<polygon fill="#63b8ff" stroke="#63b8ff" points="346.06,-66.12 356,-62.45 345.94,-59.12 346.06,-66.12"/>
</a>
</g>
</g>
<!-- Node9&#45;&gt;Node11 -->
<g id="edge14_Node000009_Node000011" class="edge">
<title>Node9&#45;&gt;Node11</title>
<g id="a_edge14_Node000009_Node000011"><a xlink:title=" ">
<path fill="none" stroke="#63b8ff" d="M357.2,-42.86C342.06,-38.92 326.19,-34.79 311.49,-30.96"/>
<polygon fill="#63b8ff" stroke="#63b8ff" points="355.98,-46.42 366.54,-45.55 357.75,-39.64 355.98,-46.42"/>
</a>
</g>
</g>
<!-- Node10&#45;&gt;Node7 -->
<g id="edge13_Node000010_Node000007" class="edge">
<title>Node10&#45;&gt;Node7</title>
<g id="a_edge13_Node000010_Node000007"><a xlink:title=" ">
<path fill="none" stroke="#63b8ff" d="M167.54,-73.94C159.33,-74.92 151.05,-75.9 142.98,-76.86"/>
<polygon fill="#63b8ff" stroke="#63b8ff" points="167.74,-77.33 177.25,-72.67 166.91,-70.37 167.74,-77.33"/>
</a>
</g>
</g>
</g>
</svg>

<g id="navigator" transform="translate(0 0)" fill="#404254">
  <rect fill="#f2f5e9" fill-opacity="0.5" stroke="#606060" stroke-width=".5" x="0" y="0" width="60" height="60"/>
  <use id="zoomplus" xlink:href="#zoomPlus" x="17" y="9" onmousedown="handleZoom(evt,'in')"/>
  <use id="zoomminus" xlink:href="#zoomMin" x="42" y="9" onmousedown="handleZoom(evt,'out')"/>
  <use id="reset" xlink:href="#resetDef" x="30" y="36" onmousedown="handleReset()"/>
   <use id="arrowup" xlink:href="#arrowUp" x="0" y="0" onmousedown="handlePan(0,-1)"/>
  <use id="arrowright" xlink:href="#arrowRight" x="0" y="0" onmousedown="handlePan(1,0)"/>
  <use id="arrowdown" xlink:href="#arrowDown" x="0" y="0" onmousedown="handlePan(0,1)"/>
  <use id="arrowleft" xlink:href="#arrowLeft" x="0" y="0" onmousedown="handlePan(-1,0)"/>
</g>
<svg viewBox="0 0 15 15" width="100%" height="30px" preserveAspectRatio="xMaxYMin meet">
 <g id="arrow_out" transform="scale(0.3 0.3)">
  <a xlink:href="class_slic3r_1_1_g_u_i_1_1_diff_model_a7da6ccc9c74d9c6a87b390ad0a97731c_icgraph_org.svg" target="_base">
   <rect id="button" ry="5" rx="5" y="6" x="6" height="38" width="38"
        fill="#f2f5e9" fill-opacity="0.5" stroke="#606060" stroke-width="1.0"/>
   <path id="arrow"
     d="M 11.500037,31.436501 C 11.940474,20.09759 22.043105,11.32322 32.158766,21.979434 L 37.068811,17.246167 C 37.068811,17.246167 37.088388,32 37.088388,32 L 22.160133,31.978069 C 22.160133,31.978069 26.997745,27.140456 26.997745,27.140456 C 18.528582,18.264221 13.291696,25.230495 11.500037,31.436501 z"
     style="fill:#404040;"/>
  </a>
 </g>
</svg>

<style type='text/css'>
<![CDATA[
[data-mouse-over-selected='false'] { opacity: 0.7; }
[data-mouse-over-selected='true']  { opacity: 1.0; }
]]>
</style>
<script type="application/ecmascript"><![CDATA[
document.addEventListener('DOMContentLoaded', (event) => {
  highlightEdges();
  highlightAdjacentNodes();
});
]]></script>
</svg>
