<?xml version="1.0" encoding="UTF-8" standalone="no"?>
<!DOCTYPE svg PUBLIC "-//W3C//DTD SVG 1.1//EN"
 "http://www.w3.org/Graphics/SVG/1.1/DTD/svg11.dtd">
<!-- Generated by graphviz version 8.1.0 (20230707.0739)
 -->
<!-- Title: ExampleAppConsole::TextEditCallbackStub Pages: 1 -->
<!--zoomable 223 -->

<svg id="main" version="1.1" xmlns="http://www.w3.org/2000/svg" xmlns:xlink="http://www.w3.org/1999/xlink" xml:space="preserve" onload="init(evt)">
<style type="text/css"><![CDATA[
.node, .edge {opacity: 0.7;}
.node.selected, .edge.selected {opacity: 1;}
.edge:hover path { stroke: red; }
.edge:hover polygon { stroke: red; fill: red; }
]]></style>

<defs>
  <circle id="rim" cx="0" cy="0" r="7"/>
  <circle id="rim2" cx="0" cy="0" r="3.5"/>
  <g id="zoomPlus">
    <use xlink:href="#rim" fill="#404040"><set attributeName="fill" to="#808080" begin="zoomplus.mouseover" end="zoomplus.mouseout"/></use>
    <path d="M-4,0h8M0,-4v8" fill="none" stroke="white" stroke-width="1.5" pointer-events="none"/>
  </g>
  <g id="zoomMin">
    <use xlink:href="#rim" fill="#404040"><set attributeName="fill" to="#808080" begin="zoomminus.mouseover" end="zoomminus.mouseout"/></use>
    <path d="M-4,0h8" fill="none" stroke="white" stroke-width="1.5" pointer-events="none"/>
  </g>
  <g id="arrowUp" transform="translate(30 24)">
    <use xlink:href="#rim"/>
    <path pointer-events="none" fill="none" stroke="white" stroke-width="1.5" d="M0,-3.0v7 M-2.5,-0.5L0,-3.0L2.5,-0.5"/>
  </g>
  <g id="arrowRight" transform="rotate(90) translate(36 -43)">
    <use xlink:href="#rim"/>
    <path pointer-events="none" fill="none" stroke="white" stroke-width="1.5" d="M0,-3.0v7 M-2.5,-0.5L0,-3.0L2.5,-0.5"/>
  </g>
  <g id="arrowDown" transform="rotate(180) translate(-30 -48)">
    <use xlink:href="#rim"/>
    <path pointer-events="none" fill="none" stroke="white" stroke-width="1.5" d="M0,-3.0v7 M-2.5,-0.5L0,-3.0L2.5,-0.5"/>
  </g>
  <g id="arrowLeft" transform="rotate(270) translate(-36 17)">
    <use xlink:href="#rim"/>
    <path pointer-events="none" fill="none" stroke="white" stroke-width="1.5" d="M0,-3.0v7 M-2.5,-0.5L0,-3.0L2.5,-0.5"/>
  </g>
  <g id="resetDef">
    <use xlink:href="#rim2" fill="#404040"><set attributeName="fill" to="#808080" begin="reset.mouseover" end="reset.mouseout"/></use>
  </g>
</defs>
<script type="application/ecmascript">
var viewWidth = 599;
var viewHeight = 223;
var sectionId = 'dynsection-17';
</script>
<script type="application/ecmascript" xlink:href="../../svg.min.js"/>
<svg id="graph" class="graph">
<g id="viewport">
<title>ExampleAppConsole::TextEditCallbackStub</title>
<!-- Node1 -->
<g id="Node000001" class="node">
<title>Node1</title>
<g id="a_Node000001"><a xlink:title=" ">
<polygon fill="#999999" stroke="#666666" points="113.5,-128.5 0,-128.5 0,-98 113.5,-98 113.5,-128.5"/>
<text text-anchor="start" x="8" y="-115" font-family="Helvetica,sans-Serif" font-size="10.00">ExampleAppConsole::</text>
<text text-anchor="middle" x="56.75" y="-103.75" font-family="Helvetica,sans-Serif" font-size="10.00">TextEditCallbackStub</text>
</a>
</g>
</g>
<!-- Node2 -->
<g id="Node000002" class="node">
<title>Node2</title>
<g id="a_Node000002"><a xlink:href="../../de/d1c/struct_example_app_console.html#a0bc85c5dd2bef56ae1a64697be00ec87" target="_top" xlink:title=" ">
<polygon fill="white" stroke="#666666" points="263,-128.5 149.5,-128.5 149.5,-98 263,-98 263,-128.5"/>
<text text-anchor="start" x="157.5" y="-115" font-family="Helvetica,sans-Serif" font-size="10.00">ExampleAppConsole::</text>
<text text-anchor="middle" x="206.25" y="-103.75" font-family="Helvetica,sans-Serif" font-size="10.00">TextEditCallback</text>
</a>
</g>
</g>
<!-- Node1&#45;&gt;Node2 -->
<g id="edge1_Node000001_Node000002" class="edge">
<title>Node1&#45;&gt;Node2</title>
<g id="a_edge1_Node000001_Node000002"><a xlink:title=" ">
<path fill="none" stroke="#63b8ff" d="M113.93,-113.25C121.88,-113.25 130.12,-113.25 138.25,-113.25"/>
<polygon fill="#63b8ff" stroke="#63b8ff" points="138.22,-116.75 148.22,-113.25 138.22,-109.75 138.22,-116.75"/>
</a>
</g>
</g>
<!-- Node3 -->
<g id="Node000003" class="node">
<title>Node3</title>
<g id="a_Node000003"><a xlink:href="../../de/d1c/struct_example_app_console.html#a719354ce6be7481923a5fd702e785952" target="_top" xlink:title=" ">
<polygon fill="white" stroke="#666666" points="426.75,-177.5 313.25,-177.5 313.25,-147 426.75,-147 426.75,-177.5"/>
<text text-anchor="start" x="321.25" y="-164" font-family="Helvetica,sans-Serif" font-size="10.00">ExampleAppConsole::</text>
<text text-anchor="middle" x="370" y="-152.75" font-family="Helvetica,sans-Serif" font-size="10.00">AddLog</text>
</a>
</g>
</g>
<!-- Node2&#45;&gt;Node3 -->
<g id="edge2_Node000002_Node000003" class="edge">
<title>Node2&#45;&gt;Node3</title>
<g id="a_edge2_Node000002_Node000003"><a xlink:title=" ">
<path fill="none" stroke="#63b8ff" d="M258.87,-128.89C274.12,-133.51 290.96,-138.61 306.8,-143.41"/>
<polygon fill="#63b8ff" stroke="#63b8ff" points="305.45,-146.96 316.03,-146.51 307.48,-140.26 305.45,-146.96"/>
</a>
</g>
</g>
<!-- Node4 -->
<g id="Node000004" class="node">
<title>Node4</title>
<g id="a_Node000004"><a xlink:href="../../df/d93/struct_im_vector.html#aab5df48e0711a48bd12f3206e08c4108" target="_top" xlink:title=" ">
<polygon fill="white" stroke="#666666" points="588.25,-214.88 479.25,-214.88 479.25,-195.62 588.25,-195.62 588.25,-214.88"/>
<text text-anchor="middle" x="533.75" y="-201.38" font-family="Helvetica,sans-Serif" font-size="10.00">ImVector::push_back</text>
</a>
</g>
</g>
<!-- Node2&#45;&gt;Node4 -->
<g id="edge10_Node000002_Node000004" class="edge">
<title>Node2&#45;&gt;Node4</title>
<g id="a_edge10_Node000002_Node000004"><a xlink:title=" ">
<path fill="none" stroke="#63b8ff" d="M221.05,-128.74C237.62,-146.17 267.2,-173.67 299,-186.25 353.09,-207.64 419.61,-211.07 467.84,-209.93"/>
<polygon fill="#63b8ff" stroke="#63b8ff" points="467.88,-213.4 477.77,-209.59 467.66,-206.4 467.88,-213.4"/>
</a>
</g>
</g>
<!-- Node6 -->
<g id="Node000006" class="node">
<title>Node6</title>
<g id="a_Node000006"><a xlink:href="../../da/d51/struct_im_gui_input_text_callback_data.html#ab5dc30d7edcf60efbd5bb8e677dab8bf" target="_top" xlink:title=" ">
<polygon fill="white" stroke="#666666" points="441,-128.5 299,-128.5 299,-98 441,-98 441,-128.5"/>
<text text-anchor="start" x="307" y="-115" font-family="Helvetica,sans-Serif" font-size="10.00">ImGuiInputTextCallbackData</text>
<text text-anchor="middle" x="370" y="-103.75" font-family="Helvetica,sans-Serif" font-size="10.00">::DeleteChars</text>
</a>
</g>
</g>
<!-- Node2&#45;&gt;Node6 -->
<g id="edge5_Node000002_Node000006" class="edge">
<title>Node2&#45;&gt;Node6</title>
<g id="a_edge5_Node000002_Node000006"><a xlink:title=" ">
<path fill="none" stroke="#63b8ff" d="M263.37,-113.25C271.3,-113.25 279.58,-113.25 287.87,-113.25"/>
<polygon fill="#63b8ff" stroke="#63b8ff" points="287.73,-116.75 297.73,-113.25 287.73,-109.75 287.73,-116.75"/>
</a>
</g>
</g>
<!-- Node7 -->
<g id="Node000007" class="node">
<title>Node7</title>
<g id="a_Node000007"><a xlink:href="../../da/d51/struct_im_gui_input_text_callback_data.html#a9963937f48aba00466c2af404dad1e25" target="_top" xlink:title=" ">
<polygon fill="white" stroke="#666666" points="441,-79.5 299,-79.5 299,-49 441,-49 441,-79.5"/>
<text text-anchor="start" x="307" y="-66" font-family="Helvetica,sans-Serif" font-size="10.00">ImGuiInputTextCallbackData</text>
<text text-anchor="middle" x="370" y="-54.75" font-family="Helvetica,sans-Serif" font-size="10.00">::InsertChars</text>
</a>
</g>
</g>
<!-- Node2&#45;&gt;Node7 -->
<g id="edge6_Node000002_Node000007" class="edge">
<title>Node2&#45;&gt;Node7</title>
<g id="a_edge6_Node000002_Node000007"><a xlink:title=" ">
<path fill="none" stroke="#63b8ff" d="M258.87,-97.61C274.12,-92.99 290.96,-87.89 306.8,-83.09"/>
<polygon fill="#63b8ff" stroke="#63b8ff" points="307.48,-86.24 316.03,-79.99 305.45,-79.54 307.48,-86.24"/>
</a>
</g>
</g>
<!-- Node11 -->
<g id="Node000011" class="node">
<title>Node11</title>
<g id="a_Node000011"><a xlink:href="../../de/d1c/struct_example_app_console.html#a8dfb0fe296b0bad9e991861ff46ec12f" target="_top" xlink:title=" ">
<polygon fill="white" stroke="#666666" points="426.75,-30.5 313.25,-30.5 313.25,0 426.75,0 426.75,-30.5"/>
<text text-anchor="start" x="321.25" y="-17" font-family="Helvetica,sans-Serif" font-size="10.00">ExampleAppConsole::</text>
<text text-anchor="middle" x="370" y="-5.75" font-family="Helvetica,sans-Serif" font-size="10.00">Strnicmp</text>
</a>
</g>
</g>
<!-- Node2&#45;&gt;Node11 -->
<g id="edge11_Node000002_Node000011" class="edge">
<title>Node2&#45;&gt;Node11</title>
<g id="a_edge11_Node000002_Node000011"><a xlink:title=" ">
<path fill="none" stroke="#63b8ff" d="M223.3,-97.73C240.74,-81.56 270,-56.38 299,-40.25 302.2,-38.47 305.55,-36.78 308.97,-35.18"/>
<polygon fill="#63b8ff" stroke="#63b8ff" points="310.01,-38.11 317.78,-30.9 307.21,-31.69 310.01,-38.11"/>
</a>
</g>
</g>
<!-- Node3&#45;&gt;Node4 -->
<g id="edge3_Node000003_Node000004" class="edge">
<title>Node3&#45;&gt;Node4</title>
<g id="a_edge3_Node000003_Node000004"><a xlink:title=" ">
<path fill="none" stroke="#63b8ff" d="M427.12,-177.17C445.79,-182.13 466.42,-187.62 484.45,-192.41"/>
<polygon fill="#63b8ff" stroke="#63b8ff" points="483.45,-196.03 494.02,-195.22 485.25,-189.27 483.45,-196.03"/>
</a>
</g>
</g>
<!-- Node5 -->
<g id="Node000005" class="node">
<title>Node5</title>
<g id="a_Node000005"><a xlink:href="../../de/d1c/struct_example_app_console.html#ab81253ac3575f7fcd63a61c7f5820913" target="_top" xlink:title=" ">
<polygon fill="white" stroke="#666666" points="590.5,-177.5 477,-177.5 477,-147 590.5,-147 590.5,-177.5"/>
<text text-anchor="start" x="485" y="-164" font-family="Helvetica,sans-Serif" font-size="10.00">ExampleAppConsole::</text>
<text text-anchor="middle" x="533.75" y="-152.75" font-family="Helvetica,sans-Serif" font-size="10.00">Strdup</text>
</a>
</g>
</g>
<!-- Node3&#45;&gt;Node5 -->
<g id="edge4_Node000003_Node000005" class="edge">
<title>Node3&#45;&gt;Node5</title>
<g id="a_edge4_Node000003_Node000005"><a xlink:title=" ">
<path fill="none" stroke="#63b8ff" d="M427.12,-162.25C439.66,-162.25 453.09,-162.25 466.02,-162.25"/>
<polygon fill="#63b8ff" stroke="#63b8ff" points="465.73,-165.75 475.73,-162.25 465.73,-158.75 465.73,-165.75"/>
</a>
</g>
</g>
<!-- Node8 -->
<g id="Node000008" class="node">
<title>Node8</title>
<g id="a_Node000008"><a xlink:href="../../d1/da2/imgui__internal_8h.html#a6e61ede308bfd68c7434e17905a29fc8" target="_top" xlink:title=" ">
<polygon fill="white" stroke="#666666" points="561.62,-110.88 505.88,-110.88 505.88,-91.62 561.62,-91.62 561.62,-110.88"/>
<text text-anchor="middle" x="533.75" y="-97.38" font-family="Helvetica,sans-Serif" font-size="10.00">ImClamp</text>
</a>
</g>
</g>
<!-- Node7&#45;&gt;Node8 -->
<g id="edge7_Node000007_Node000008" class="edge">
<title>Node7&#45;&gt;Node8</title>
<g id="a_edge7_Node000007_Node000008"><a xlink:title=" ">
<path fill="none" stroke="#63b8ff" d="M439.6,-79.94C458.67,-84.3 478.67,-88.88 495.23,-92.67"/>
<polygon fill="#63b8ff" stroke="#63b8ff" points="494.04,-96.21 504.57,-95.03 495.6,-89.39 494.04,-96.21"/>
</a>
</g>
</g>
<!-- Node9 -->
<g id="Node000009" class="node">
<title>Node9</title>
<g id="a_Node000009"><a xlink:href="../../d1/da2/imgui__internal_8h.html#a7667efd95147d0422f140917c71a9226" target="_top" xlink:title=" ">
<polygon fill="white" stroke="#666666" points="556.75,-73.88 510.75,-73.88 510.75,-54.62 556.75,-54.62 556.75,-73.88"/>
<text text-anchor="middle" x="533.75" y="-60.38" font-family="Helvetica,sans-Serif" font-size="10.00">ImMax</text>
</a>
</g>
</g>
<!-- Node7&#45;&gt;Node9 -->
<g id="edge8_Node000007_Node000009" class="edge">
<title>Node7&#45;&gt;Node9</title>
<g id="a_edge8_Node000007_Node000009"><a xlink:title=" ">
<path fill="none" stroke="#63b8ff" d="M441.48,-64.25C461.67,-64.25 482.75,-64.25 499.56,-64.25"/>
<polygon fill="#63b8ff" stroke="#63b8ff" points="499.45,-67.75 509.45,-64.25 499.45,-60.75 499.45,-67.75"/>
</a>
</g>
</g>
<!-- Node10 -->
<g id="Node000010" class="node">
<title>Node10</title>
<g id="a_Node000010"><a xlink:href="../../df/d93/struct_im_vector.html#a0f14f5736c3372157856eebb67123b75" target="_top" xlink:title=" ">
<polygon fill="white" stroke="#666666" points="580.75,-36.88 486.75,-36.88 486.75,-17.62 580.75,-17.62 580.75,-36.88"/>
<text text-anchor="middle" x="533.75" y="-23.38" font-family="Helvetica,sans-Serif" font-size="10.00">ImVector::reserve</text>
</a>
</g>
</g>
<!-- Node7&#45;&gt;Node10 -->
<g id="edge9_Node000007_Node000010" class="edge">
<title>Node7&#45;&gt;Node10</title>
<g id="a_edge9_Node000007_Node000010"><a xlink:title=" ">
<path fill="none" stroke="#63b8ff" d="M439.6,-48.56C452.52,-45.6 465.86,-42.55 478.28,-39.71"/>
<polygon fill="#63b8ff" stroke="#63b8ff" points="478.95,-42.92 487.91,-37.28 477.39,-36.1 478.95,-42.92"/>
</a>
</g>
</g>
</g>
</svg>

<g id="navigator" transform="translate(0 0)" fill="#404254">
  <rect fill="#f2f5e9" fill-opacity="0.5" stroke="#606060" stroke-width=".5" x="0" y="0" width="60" height="60"/>
  <use id="zoomplus" xlink:href="#zoomPlus" x="17" y="9" onmousedown="handleZoom(evt,'in')"/>
  <use id="zoomminus" xlink:href="#zoomMin" x="42" y="9" onmousedown="handleZoom(evt,'out')"/>
  <use id="reset" xlink:href="#resetDef" x="30" y="36" onmousedown="handleReset()"/>
   <use id="arrowup" xlink:href="#arrowUp" x="0" y="0" onmousedown="handlePan(0,-1)"/>
  <use id="arrowright" xlink:href="#arrowRight" x="0" y="0" onmousedown="handlePan(1,0)"/>
  <use id="arrowdown" xlink:href="#arrowDown" x="0" y="0" onmousedown="handlePan(0,1)"/>
  <use id="arrowleft" xlink:href="#arrowLeft" x="0" y="0" onmousedown="handlePan(-1,0)"/>
</g>
<svg viewBox="0 0 15 15" width="100%" height="30px" preserveAspectRatio="xMaxYMin meet">
 <g id="arrow_out" transform="scale(0.3 0.3)">
  <a xlink:href="struct_example_app_console_a394debe3cbf3cfd93b9bfd2835a4fdec_cgraph_org.svg" target="_base">
   <rect id="button" ry="5" rx="5" y="6" x="6" height="38" width="38"
        fill="#f2f5e9" fill-opacity="0.5" stroke="#606060" stroke-width="1.0"/>
   <path id="arrow"
     d="M 11.500037,31.436501 C 11.940474,20.09759 22.043105,11.32322 32.158766,21.979434 L 37.068811,17.246167 C 37.068811,17.246167 37.088388,32 37.088388,32 L 22.160133,31.978069 C 22.160133,31.978069 26.997745,27.140456 26.997745,27.140456 C 18.528582,18.264221 13.291696,25.230495 11.500037,31.436501 z"
     style="fill:#404040;"/>
  </a>
 </g>
</svg>

<style type='text/css'>
<![CDATA[
[data-mouse-over-selected='false'] { opacity: 0.7; }
[data-mouse-over-selected='true']  { opacity: 1.0; }
]]>
</style>
<script type="application/ecmascript"><![CDATA[
document.addEventListener('DOMContentLoaded', (event) => {
  highlightEdges();
  highlightAdjacentNodes();
});
]]></script>
</svg>
