<?xml version="1.0" encoding="UTF-8" standalone="no"?>
<!DOCTYPE svg PUBLIC "-//W3C//DTD SVG 1.1//EN"
 "http://www.w3.org/Graphics/SVG/1.1/DTD/svg11.dtd">
<!-- Generated by graphviz version 8.1.0 (20230707.0739)
 -->
<!-- Title: orgQhull::QhullSetBase::beginPointer Pages: 1 -->
<!--zoomable 813 -->

<svg id="main" version="1.1" xmlns="http://www.w3.org/2000/svg" xmlns:xlink="http://www.w3.org/1999/xlink" xml:space="preserve" onload="init(evt)">
<style type="text/css"><![CDATA[
.node, .edge {opacity: 0.7;}
.node.selected, .edge.selected {opacity: 1;}
.edge:hover path { stroke: red; }
.edge:hover polygon { stroke: red; fill: red; }
]]></style>

<defs>
  <circle id="rim" cx="0" cy="0" r="7"/>
  <circle id="rim2" cx="0" cy="0" r="3.5"/>
  <g id="zoomPlus">
    <use xlink:href="#rim" fill="#404040"><set attributeName="fill" to="#808080" begin="zoomplus.mouseover" end="zoomplus.mouseout"/></use>
    <path d="M-4,0h8M0,-4v8" fill="none" stroke="white" stroke-width="1.5" pointer-events="none"/>
  </g>
  <g id="zoomMin">
    <use xlink:href="#rim" fill="#404040"><set attributeName="fill" to="#808080" begin="zoomminus.mouseover" end="zoomminus.mouseout"/></use>
    <path d="M-4,0h8" fill="none" stroke="white" stroke-width="1.5" pointer-events="none"/>
  </g>
  <g id="arrowUp" transform="translate(30 24)">
    <use xlink:href="#rim"/>
    <path pointer-events="none" fill="none" stroke="white" stroke-width="1.5" d="M0,-3.0v7 M-2.5,-0.5L0,-3.0L2.5,-0.5"/>
  </g>
  <g id="arrowRight" transform="rotate(90) translate(36 -43)">
    <use xlink:href="#rim"/>
    <path pointer-events="none" fill="none" stroke="white" stroke-width="1.5" d="M0,-3.0v7 M-2.5,-0.5L0,-3.0L2.5,-0.5"/>
  </g>
  <g id="arrowDown" transform="rotate(180) translate(-30 -48)">
    <use xlink:href="#rim"/>
    <path pointer-events="none" fill="none" stroke="white" stroke-width="1.5" d="M0,-3.0v7 M-2.5,-0.5L0,-3.0L2.5,-0.5"/>
  </g>
  <g id="arrowLeft" transform="rotate(270) translate(-36 17)">
    <use xlink:href="#rim"/>
    <path pointer-events="none" fill="none" stroke="white" stroke-width="1.5" d="M0,-3.0v7 M-2.5,-0.5L0,-3.0L2.5,-0.5"/>
  </g>
  <g id="resetDef">
    <use xlink:href="#rim2" fill="#404040"><set attributeName="fill" to="#808080" begin="reset.mouseover" end="reset.mouseout"/></use>
  </g>
</defs>
<script type="application/ecmascript">
var viewWidth = 706;
var viewHeight = 813;
var sectionId = 'dynsection-2';
</script>
<script type="application/ecmascript" xlink:href="../../svg.min.js"/>
<svg id="graph" class="graph">
<g id="viewport">
<title>orgQhull::QhullSetBase::beginPointer</title>
<!-- Node1 -->
<g id="Node000001" class="node">
<title>Node1</title>
<g id="a_Node000001"><a xlink:title=" ">
<polygon fill="#999999" stroke="#666666" points="698,-375.5 580,-375.5 580,-345 698,-345 698,-375.5"/>
<text text-anchor="start" x="588" y="-362" font-family="Helvetica,sans-Serif" font-size="10.00">orgQhull::QhullSetBase</text>
<text text-anchor="middle" x="639" y="-350.75" font-family="Helvetica,sans-Serif" font-size="10.00">::beginPointer</text>
</a>
</g>
</g>
<!-- Node2 -->
<g id="Node000002" class="node">
<title>Node2</title>
<g id="a_Node000002"><a xlink:href="../../da/d8e/classorg_qhull_1_1_qhull_set.html#a2450de0d335b447af060e8732b041216" target="_top" xlink:title=" ">
<polygon fill="white" stroke="#666666" points="412.5,-606.5 317,-606.5 317,-576 412.5,-576 412.5,-606.5"/>
<text text-anchor="start" x="325" y="-593" font-family="Helvetica,sans-Serif" font-size="10.00">orgQhull::QhullSet</text>
<text text-anchor="middle" x="364.75" y="-581.75" font-family="Helvetica,sans-Serif" font-size="10.00">::begin</text>
</a>
</g>
</g>
<!-- Node1&#45;&gt;Node2 -->
<g id="edge1_Node000001_Node000002" class="edge">
<title>Node1&#45;&gt;Node2</title>
<g id="a_edge1_Node000001_Node000002"><a xlink:title=" ">
<path fill="none" stroke="#63b8ff" d="M611.51,-382.73C556.46,-429.43 430.95,-535.93 383.96,-575.8"/>
<polygon fill="#63b8ff" stroke="#63b8ff" points="613.35,-384.9 618.71,-375.77 608.82,-379.57 613.35,-384.9"/>
</a>
</g>
</g>
<!-- Node13 -->
<g id="Node000013" class="node">
<title>Node13</title>
<g id="a_Node000013"><a xlink:href="../../da/d8e/classorg_qhull_1_1_qhull_set.html#a9690b90c8b18b0308ef5adf136bdbf40" target="_top" xlink:title="end element is NULL">
<polygon fill="white" stroke="#666666" points="544,-351.5 448.5,-351.5 448.5,-321 544,-321 544,-351.5"/>
<text text-anchor="start" x="456.5" y="-338" font-family="Helvetica,sans-Serif" font-size="10.00">orgQhull::QhullSet</text>
<text text-anchor="middle" x="496.25" y="-326.75" font-family="Helvetica,sans-Serif" font-size="10.00">::constData</text>
</a>
</g>
</g>
<!-- Node1&#45;&gt;Node13 -->
<g id="edge12_Node000001_Node000013" class="edge">
<title>Node1&#45;&gt;Node13</title>
<g id="a_edge12_Node000001_Node000013"><a xlink:title=" ">
<path fill="none" stroke="#63b8ff" d="M568.95,-348.48C560.56,-347.05 552.15,-345.61 544.18,-344.25"/>
<polygon fill="#63b8ff" stroke="#63b8ff" points="568.09,-352.05 578.53,-350.28 569.26,-345.15 568.09,-352.05"/>
</a>
</g>
</g>
<!-- Node14 -->
<g id="Node000014" class="node">
<title>Node14</title>
<g id="a_Node000014"><a xlink:href="../../da/d8e/classorg_qhull_1_1_qhull_set.html#ab859dc4f9b9c8fe06cfb976e7508c645" target="_top" xlink:title=" ">
<polygon fill="white" stroke="#666666" points="544,-400.5 448.5,-400.5 448.5,-370 544,-370 544,-400.5"/>
<text text-anchor="start" x="456.5" y="-387" font-family="Helvetica,sans-Serif" font-size="10.00">orgQhull::QhullSet</text>
<text text-anchor="middle" x="496.25" y="-375.75" font-family="Helvetica,sans-Serif" font-size="10.00">::data</text>
</a>
</g>
</g>
<!-- Node1&#45;&gt;Node14 -->
<g id="edge13_Node000001_Node000014" class="edge">
<title>Node1&#45;&gt;Node14</title>
<g id="a_edge13_Node000001_Node000014"><a xlink:title=" ">
<path fill="none" stroke="#63b8ff" d="M568.95,-372.51C560.56,-374 552.15,-375.5 544.18,-376.91"/>
<polygon fill="#63b8ff" stroke="#63b8ff" points="569.3,-375.83 578.53,-370.64 568.07,-368.94 569.3,-375.83"/>
</a>
</g>
</g>
<!-- Node28 -->
<g id="Node000028" class="node">
<title>Node28</title>
<g id="a_Node000028"><a xlink:href="../../da/d8e/classorg_qhull_1_1_qhull_set.html#ac0c0063d347b48babbad50f82517aa86" target="_top" xlink:title=" ">
<polygon fill="white" stroke="#666666" points="544,-302.5 448.5,-302.5 448.5,-272 544,-272 544,-302.5"/>
<text text-anchor="start" x="456.5" y="-289" font-family="Helvetica,sans-Serif" font-size="10.00">orgQhull::QhullSet</text>
<text text-anchor="middle" x="496.25" y="-277.75" font-family="Helvetica,sans-Serif" font-size="10.00">::data</text>
</a>
</g>
</g>
<!-- Node1&#45;&gt;Node28 -->
<g id="edge31_Node000001_Node000028" class="edge">
<title>Node1&#45;&gt;Node28</title>
<g id="a_edge31_Node000001_Node000028"><a xlink:title=" ">
<path fill="none" stroke="#63b8ff" d="M598.2,-339.61C575.72,-327.95 548.07,-313.61 527.39,-302.88"/>
<polygon fill="#63b8ff" stroke="#63b8ff" points="596.32,-343.09 606.81,-344.59 599.54,-336.88 596.32,-343.09"/>
</a>
</g>
</g>
<!-- Node3 -->
<g id="Node000003" class="node">
<title>Node3</title>
<g id="a_Node000003"><a xlink:href="../../da/d21/_qhull_facet_8cpp.html#a3a95209cac051a6fbe75ab138e1d59e4" target="_top" xlink:title="Print header for facet to stream. Space prefix. From qh_printfacetheader [io_r.c].">
<polygon fill="white" stroke="#666666" points="250.62,-619.88 187.38,-619.88 187.38,-600.62 250.62,-600.62 250.62,-619.88"/>
<text text-anchor="middle" x="219" y="-606.38" font-family="Helvetica,sans-Serif" font-size="10.00">operator&lt;&lt;</text>
</a>
</g>
</g>
<!-- Node2&#45;&gt;Node3 -->
<g id="edge2_Node000002_Node000003" class="edge">
<title>Node2&#45;&gt;Node3</title>
<g id="a_edge2_Node000002_Node000003"><a xlink:title=" ">
<path fill="none" stroke="#63b8ff" d="M305.81,-598.91C287.01,-601.39 266.89,-604.05 250.86,-606.17"/>
<polygon fill="#63b8ff" stroke="#63b8ff" points="306.23,-602.25 315.68,-597.47 305.31,-595.31 306.23,-602.25"/>
</a>
</g>
</g>
<!-- Node4 -->
<g id="Node000004" class="node">
<title>Node4</title>
<g id="a_Node000004"><a xlink:href="../../d7/da1/_qhull_facet_list_8cpp.html#a63ad43215859a1a5a5aaad60fd3a8d1a" target="_top" xlink:title="Print vertices of good faces in facet list to stream. From qh_printvertexlist [io_r....">
<polygon fill="white" stroke="#666666" points="250.62,-582.88 187.38,-582.88 187.38,-563.62 250.62,-563.62 250.62,-582.88"/>
<text text-anchor="middle" x="219" y="-569.38" font-family="Helvetica,sans-Serif" font-size="10.00">operator&lt;&lt;</text>
</a>
</g>
</g>
<!-- Node2&#45;&gt;Node4 -->
<g id="edge3_Node000002_Node000004" class="edge">
<title>Node2&#45;&gt;Node4</title>
<g id="a_edge3_Node000002_Node000004"><a xlink:title=" ">
<path fill="none" stroke="#63b8ff" d="M305.81,-583.99C287.01,-581.64 266.89,-579.12 250.86,-577.11"/>
<polygon fill="#63b8ff" stroke="#63b8ff" points="305.32,-587.59 315.68,-585.36 306.19,-580.64 305.32,-587.59"/>
</a>
</g>
</g>
<!-- Node5 -->
<g id="Node000005" class="node">
<title>Node5</title>
<g id="a_Node000005"><a xlink:href="../../d4/d20/_qhull_point_set_8cpp.html#ad9c7f4fb59b00418530850783335cc22" target="_top" xlink:title=" ">
<polygon fill="white" stroke="#666666" points="250.62,-545.88 187.38,-545.88 187.38,-526.62 250.62,-526.62 250.62,-545.88"/>
<text text-anchor="middle" x="219" y="-532.38" font-family="Helvetica,sans-Serif" font-size="10.00">operator&lt;&lt;</text>
</a>
</g>
</g>
<!-- Node2&#45;&gt;Node5 -->
<g id="edge4_Node000002_Node000005" class="edge">
<title>Node2&#45;&gt;Node5</title>
<g id="a_edge4_Node000002_Node000005"><a xlink:title=" ">
<path fill="none" stroke="#63b8ff" d="M321.57,-571.08C308.69,-565.28 294.4,-559.2 281,-554.25 271.37,-550.69 260.68,-547.35 250.98,-544.52"/>
<polygon fill="#63b8ff" stroke="#63b8ff" points="319.99,-574.67 330.54,-575.65 322.91,-568.3 319.99,-574.67"/>
</a>
</g>
</g>
<!-- Node6 -->
<g id="Node000006" class="node">
<title>Node6</title>
<g id="a_Node000006"><a xlink:href="../../d1/d48/classorg_qhull_1_1_qhull_point_set__test.html#a1954b994ebd0721efbc6e6dafd1ecc22" target="_top" xlink:title=" ">
<polygon fill="white" stroke="#666666" points="278,-755.5 160,-755.5 160,-725 278,-725 278,-755.5"/>
<text text-anchor="start" x="168" y="-742" font-family="Helvetica,sans-Serif" font-size="10.00">orgQhull::QhullPointSet</text>
<text text-anchor="middle" x="219" y="-730.75" font-family="Helvetica,sans-Serif" font-size="10.00">_test::t_const_iterator</text>
</a>
</g>
</g>
<!-- Node2&#45;&gt;Node6 -->
<g id="edge5_Node000002_Node000006" class="edge">
<title>Node2&#45;&gt;Node6</title>
<g id="a_edge5_Node000002_Node000006"><a xlink:title=" ">
<path fill="none" stroke="#63b8ff" d="M352.54,-616.46C339.12,-644.08 314.22,-688.08 281,-715.25 276.66,-718.8 271.75,-721.91 266.64,-724.61"/>
<polygon fill="#63b8ff" stroke="#63b8ff" points="356.03,-618.28 357.12,-607.74 349.69,-615.3 356.03,-618.28"/>
</a>
</g>
</g>
<!-- Node7 -->
<g id="Node000007" class="node">
<title>Node7</title>
<g id="a_Node000007"><a xlink:href="../../d1/d48/classorg_qhull_1_1_qhull_point_set__test.html#aeb7ffbc767c3ae310e8a481c6d5284ca" target="_top" xlink:title=" ">
<polygon fill="white" stroke="#666666" points="119.5,-416.5 1.5,-416.5 1.5,-386 119.5,-386 119.5,-416.5"/>
<text text-anchor="start" x="9.5" y="-403" font-family="Helvetica,sans-Serif" font-size="10.00">orgQhull::QhullPointSet</text>
<text text-anchor="middle" x="60.5" y="-391.75" font-family="Helvetica,sans-Serif" font-size="10.00">_test::t_element</text>
</a>
</g>
</g>
<!-- Node2&#45;&gt;Node7 -->
<g id="edge6_Node000002_Node000007" class="edge">
<title>Node2&#45;&gt;Node7</title>
<g id="a_edge6_Node000002_Node000007"><a xlink:title=" ">
<path fill="none" stroke="#63b8ff" d="M328.53,-612.03C284.71,-634.88 209.29,-664.04 157,-629.25 82.5,-579.69 66.01,-459.62 62.45,-416.77"/>
<polygon fill="#63b8ff" stroke="#63b8ff" points="330.03,-614.66 337.17,-606.84 326.71,-608.5 330.03,-614.66"/>
</a>
</g>
</g>
<!-- Node8 -->
<g id="Node000008" class="node">
<title>Node8</title>
<g id="a_Node000008"><a xlink:href="../../df/dca/classorg_qhull_1_1_qhull_vertex_set__test.html#a0b95cc0c4935beb59769b9a160fe0a15" target="_top" xlink:title=" ">
<polygon fill="white" stroke="#666666" points="281,-459.5 157,-459.5 157,-429 281,-429 281,-459.5"/>
<text text-anchor="start" x="165" y="-446" font-family="Helvetica,sans-Serif" font-size="10.00">orgQhull::QhullVertexSet</text>
<text text-anchor="middle" x="219" y="-434.75" font-family="Helvetica,sans-Serif" font-size="10.00">_test::t_foreach</text>
</a>
</g>
</g>
<!-- Node2&#45;&gt;Node8 -->
<g id="edge7_Node000002_Node000008" class="edge">
<title>Node2&#45;&gt;Node8</title>
<g id="a_edge7_Node000002_Node000008"><a xlink:title=" ">
<path fill="none" stroke="#63b8ff" d="M352.23,-566.02C338.66,-538.82 313.77,-495.85 281,-469.25 276.65,-465.72 271.72,-462.62 266.61,-459.92"/>
<polygon fill="#63b8ff" stroke="#63b8ff" points="349.36,-567.12 356.86,-574.6 355.66,-564.08 349.36,-567.12"/>
</a>
</g>
</g>
<!-- Node9 -->
<g id="Node000009" class="node">
<title>Node9</title>
<g id="a_Node000009"><a xlink:href="../../d1/d48/classorg_qhull_1_1_qhull_point_set__test.html#a7b2f96d0fc1c83a529aa684c25f2279b" target="_top" xlink:title=" ">
<polygon fill="white" stroke="#666666" points="278,-508.5 160,-508.5 160,-478 278,-478 278,-508.5"/>
<text text-anchor="start" x="168" y="-495" font-family="Helvetica,sans-Serif" font-size="10.00">orgQhull::QhullPointSet</text>
<text text-anchor="middle" x="219" y="-483.75" font-family="Helvetica,sans-Serif" font-size="10.00">_test::t_iterator</text>
</a>
</g>
</g>
<!-- Node2&#45;&gt;Node9 -->
<g id="edge8_Node000002_Node000009" class="edge">
<title>Node2&#45;&gt;Node9</title>
<g id="a_edge8_Node000002_Node000009"><a xlink:title=" ">
<path fill="none" stroke="#63b8ff" d="M341.92,-567.75C326.18,-551.85 303.78,-531.28 281,-517.25 276.06,-514.21 270.67,-511.42 265.2,-508.91"/>
<polygon fill="#63b8ff" stroke="#63b8ff" points="339.04,-569.83 348.51,-574.57 344.06,-564.96 339.04,-569.83"/>
</a>
</g>
</g>
<!-- Node10 -->
<g id="Node000010" class="node">
<title>Node10</title>
<g id="a_Node000010"><a xlink:href="../../d2/d82/classorg_qhull_1_1_qhull_set__test.html#a40026d8ab51d8775aa653e2496374214" target="_top" xlink:title=" ">
<polygon fill="white" stroke="#666666" points="272.38,-706.5 165.62,-706.5 165.62,-676 272.38,-676 272.38,-706.5"/>
<text text-anchor="start" x="173.62" y="-693" font-family="Helvetica,sans-Serif" font-size="10.00">orgQhull::QhullSet</text>
<text text-anchor="middle" x="219" y="-681.75" font-family="Helvetica,sans-Serif" font-size="10.00">_test::t_qhullsetbase</text>
</a>
</g>
</g>
<!-- Node2&#45;&gt;Node10 -->
<g id="edge9_Node000002_Node000010" class="edge">
<title>Node2&#45;&gt;Node10</title>
<g id="a_edge9_Node000002_Node000010"><a xlink:title=" ">
<path fill="none" stroke="#63b8ff" d="M340.56,-614.09C324.67,-628.99 302.62,-648.19 281,-662.25 273.53,-667.11 265.12,-671.64 256.98,-675.6"/>
<polygon fill="#63b8ff" stroke="#63b8ff" points="342.45,-617.18 347.28,-607.75 337.62,-612.11 342.45,-617.18"/>
</a>
</g>
</g>
<!-- Node11 -->
<g id="Node000011" class="node">
<title>Node11</title>
<g id="a_Node000011"><a xlink:href="../../db/dc5/classorg_qhull_1_1_qhull_facet_list.html#a96d9ad4e426092a75d12d412ed77764d" target="_top" xlink:title="Same as PrintVertices.">
<polygon fill="white" stroke="#666666" points="279.5,-804.5 158.5,-804.5 158.5,-774 279.5,-774 279.5,-804.5"/>
<text text-anchor="start" x="166.5" y="-791" font-family="Helvetica,sans-Serif" font-size="10.00">orgQhull::QhullFacetList</text>
<text text-anchor="middle" x="219" y="-779.75" font-family="Helvetica,sans-Serif" font-size="10.00">::vertices_toStdVector</text>
</a>
</g>
</g>
<!-- Node2&#45;&gt;Node11 -->
<g id="edge10_Node000002_Node000011" class="edge">
<title>Node2&#45;&gt;Node11</title>
<g id="a_edge10_Node000002_Node000011"><a xlink:title=" ">
<path fill="none" stroke="#63b8ff" d="M357.63,-617.41C347.64,-654.72 324.43,-723.23 281,-764.25 277.26,-767.79 272.94,-770.85 268.38,-773.5"/>
<polygon fill="#63b8ff" stroke="#63b8ff" points="361.23,-618.45 360.31,-607.9 354.45,-616.72 361.23,-618.45"/>
</a>
</g>
</g>
<!-- Node12 -->
<g id="Node000012" class="node">
<title>Node12</title>
<g id="a_Node000012"><a xlink:href="../../db/dc8/classorg_qhull_1_1_qhull_facet_list__test.html#a194dfd33242ec17f335b3a90cd486f4a" target="_top" xlink:title=" ">
<polygon fill="white" stroke="#666666" points="121,-804.5 0,-804.5 0,-774 121,-774 121,-804.5"/>
<text text-anchor="start" x="8" y="-791" font-family="Helvetica,sans-Serif" font-size="10.00">orgQhull::QhullFacetList</text>
<text text-anchor="middle" x="60.5" y="-779.75" font-family="Helvetica,sans-Serif" font-size="10.00">_test::t_convert</text>
</a>
</g>
</g>
<!-- Node11&#45;&gt;Node12 -->
<g id="edge11_Node000011_Node000012" class="edge">
<title>Node11&#45;&gt;Node12</title>
<g id="a_edge11_Node000011_Node000012"><a xlink:title=" ">
<path fill="none" stroke="#63b8ff" d="M147.48,-789.25C138.79,-789.25 129.98,-789.25 121.47,-789.25"/>
<polygon fill="#63b8ff" stroke="#63b8ff" points="147.39,-792.75 157.39,-789.25 147.39,-785.75 147.39,-792.75"/>
</a>
</g>
</g>
<!-- Node15 -->
<g id="Node000015" class="node">
<title>Node15</title>
<g id="a_Node000015"><a xlink:href="../../da/d8e/classorg_qhull_1_1_qhull_set.html#a6629e2c73d6328057f4de4e23cefaffe" target="_top" xlink:title=" ">
<polygon fill="white" stroke="#666666" points="412.5,-238.5 317,-238.5 317,-208 412.5,-208 412.5,-238.5"/>
<text text-anchor="start" x="325" y="-225" font-family="Helvetica,sans-Serif" font-size="10.00">orgQhull::QhullSet</text>
<text text-anchor="middle" x="364.75" y="-213.75" font-family="Helvetica,sans-Serif" font-size="10.00">::begin</text>
</a>
</g>
</g>
<!-- Node14&#45;&gt;Node15 -->
<g id="edge14_Node000014_Node000015" class="edge">
<title>Node14&#45;&gt;Node15</title>
<g id="a_edge14_Node000014_Node000015"><a xlink:title=" ">
<path fill="none" stroke="#63b8ff" d="M450.52,-362.51C449.82,-361.78 449.14,-361.02 448.5,-360.25 415,-320.1 446,-288.4 412.5,-248.25 409.55,-244.72 405.97,-241.61 402.12,-238.9"/>
<polygon fill="#63b8ff" stroke="#63b8ff" points="447.99,-365.8 457.88,-369.6 452.52,-360.46 447.99,-365.8"/>
</a>
</g>
</g>
<!-- Node16 -->
<g id="Node000016" class="node">
<title>Node16</title>
<g id="a_Node000016"><a xlink:href="../../da/d8e/classorg_qhull_1_1_qhull_set.html#aefa12110f08bc0321b195dbcf7df54c5" target="_top" xlink:title=" ">
<polygon fill="white" stroke="#666666" points="412.5,-484.5 317,-484.5 317,-454 412.5,-454 412.5,-484.5"/>
<text text-anchor="start" x="325" y="-471" font-family="Helvetica,sans-Serif" font-size="10.00">orgQhull::QhullSet</text>
<text text-anchor="middle" x="364.75" y="-459.75" font-family="Helvetica,sans-Serif" font-size="10.00">::constBegin</text>
</a>
</g>
</g>
<!-- Node14&#45;&gt;Node16 -->
<g id="edge15_Node000014_Node000016" class="edge">
<title>Node14&#45;&gt;Node16</title>
<g id="a_edge15_Node000014_Node000016"><a xlink:title=" ">
<path fill="none" stroke="#63b8ff" d="M462.27,-406.64C439.62,-421.33 410.08,-440.49 389.68,-453.73"/>
<polygon fill="#63b8ff" stroke="#63b8ff" points="463.71,-409.23 470.2,-400.85 459.9,-403.36 463.71,-409.23"/>
</a>
</g>
</g>
<!-- Node17 -->
<g id="Node000017" class="node">
<title>Node17</title>
<g id="a_Node000017"><a xlink:href="../../da/d8e/classorg_qhull_1_1_qhull_set.html#ab4e0ef3afce95db2549d770dfda9f92c" target="_top" xlink:title=" ">
<polygon fill="white" stroke="#666666" points="412.5,-422.5 317,-422.5 317,-392 412.5,-392 412.5,-422.5"/>
<text text-anchor="start" x="325" y="-409" font-family="Helvetica,sans-Serif" font-size="10.00">orgQhull::QhullSet</text>
<text text-anchor="middle" x="364.75" y="-397.75" font-family="Helvetica,sans-Serif" font-size="10.00">::first</text>
</a>
</g>
</g>
<!-- Node14&#45;&gt;Node17 -->
<g id="edge17_Node000014_Node000017" class="edge">
<title>Node14&#45;&gt;Node17</title>
<g id="a_edge17_Node000014_Node000017"><a xlink:title=" ">
<path fill="none" stroke="#63b8ff" d="M437.37,-395.08C429.09,-396.49 420.65,-397.92 412.62,-399.29"/>
<polygon fill="#63b8ff" stroke="#63b8ff" points="437.86,-398.38 447.13,-393.25 436.69,-391.48 437.86,-398.38"/>
</a>
</g>
</g>
<!-- Node18 -->
<g id="Node000018" class="node">
<title>Node18</title>
<g id="a_Node000018"><a xlink:href="../../da/d8e/classorg_qhull_1_1_qhull_set.html#a48c2c109fedfcdf4f2b456ac50246111" target="_top" xlink:title=" ">
<polygon fill="white" stroke="#666666" points="412.5,-287.5 317,-287.5 317,-257 412.5,-257 412.5,-287.5"/>
<text text-anchor="start" x="325" y="-274" font-family="Helvetica,sans-Serif" font-size="10.00">orgQhull::QhullSet</text>
<text text-anchor="middle" x="364.75" y="-262.75" font-family="Helvetica,sans-Serif" font-size="10.00">::first</text>
</a>
</g>
</g>
<!-- Node14&#45;&gt;Node18 -->
<g id="edge18_Node000014_Node000018" class="edge">
<title>Node14&#45;&gt;Node18</title>
<g id="a_edge18_Node000014_Node000018"><a xlink:title=" ">
<path fill="none" stroke="#63b8ff" d="M453.62,-363.94C451.86,-362.74 450.14,-361.51 448.5,-360.25 420.03,-338.44 392.67,-306.51 377.64,-287.7"/>
<polygon fill="#63b8ff" stroke="#63b8ff" points="451.38,-367.29 461.71,-369.63 455.09,-361.36 451.38,-367.29"/>
</a>
</g>
</g>
<!-- Node27 -->
<g id="Node000027" class="node">
<title>Node27</title>
<g id="a_Node000027"><a xlink:href="../../d5/d07/_qhull_set_8h.html#a1e550c988e1adb1f781d33720a6c0f53" target="_top" xlink:title=" ">
<polygon fill="white" stroke="#666666" points="396.38,-373.88 333.12,-373.88 333.12,-354.62 396.38,-354.62 396.38,-373.88"/>
<text text-anchor="middle" x="364.75" y="-360.38" font-family="Helvetica,sans-Serif" font-size="10.00">operator&lt;&lt;</text>
</a>
</g>
</g>
<!-- Node14&#45;&gt;Node27 -->
<g id="edge30_Node000014_Node000027" class="edge">
<title>Node14&#45;&gt;Node27</title>
<g id="a_edge30_Node000014_Node000027"><a xlink:title=" ">
<path fill="none" stroke="#63b8ff" d="M437.47,-375.88C423.34,-373.59 408.78,-371.23 396.49,-369.23"/>
<polygon fill="#63b8ff" stroke="#63b8ff" points="436.7,-379.46 447.13,-377.61 437.82,-372.55 436.7,-379.46"/>
</a>
</g>
</g>
<!-- Node16&#45;&gt;Node9 -->
<g id="edge16_Node000016_Node000009" class="edge">
<title>Node16&#45;&gt;Node9</title>
<g id="a_edge16_Node000016_Node000009"><a xlink:title=" ">
<path fill="none" stroke="#63b8ff" d="M305.87,-478.91C296.85,-480.42 287.52,-481.98 278.48,-483.49"/>
<polygon fill="#63b8ff" stroke="#63b8ff" points="306.39,-482.21 315.68,-477.11 305.24,-475.3 306.39,-482.21"/>
</a>
</g>
</g>
<!-- Node18&#45;&gt;Node7 -->
<g id="edge23_Node000018_Node000007" class="edge">
<title>Node18&#45;&gt;Node7</title>
<g id="a_edge23_Node000018_Node000007"><a xlink:title=" ">
<path fill="none" stroke="#63b8ff" d="M348.55,-296.99C330.01,-326.27 298.93,-372.31 281,-382.25 231.65,-409.6 166.3,-411.74 119.77,-408.64"/>
<polygon fill="#63b8ff" stroke="#63b8ff" points="351.97,-299.12 354.32,-288.78 346.04,-295.4 351.97,-299.12"/>
</a>
</g>
</g>
<!-- Node18&#45;&gt;Node8 -->
<g id="edge26_Node000018_Node000008" class="edge">
<title>Node18&#45;&gt;Node8</title>
<g id="a_edge26_Node000018_Node000008"><a xlink:title=" ">
<path fill="none" stroke="#63b8ff" d="M347.13,-296.91C337.92,-310.89 326.46,-328.82 317,-345.25 299.55,-375.57 306.12,-390.9 281,-415.25 275.61,-420.47 269.1,-424.9 262.38,-428.6"/>
<polygon fill="#63b8ff" stroke="#63b8ff" points="350.48,-299.2 353.1,-288.93 344.65,-295.33 350.48,-299.2"/>
</a>
</g>
</g>
<!-- Node19 -->
<g id="Node000019" class="node">
<title>Node19</title>
<g id="a_Node000019"><a xlink:href="../../da/d8e/classorg_qhull_1_1_qhull_set.html#afc402cdb71a72cd1ce56342d275e2870" target="_top" xlink:title=" ">
<polygon fill="white" stroke="#666666" points="266.75,-324.5 171.25,-324.5 171.25,-294 266.75,-294 266.75,-324.5"/>
<text text-anchor="start" x="179.25" y="-311" font-family="Helvetica,sans-Serif" font-size="10.00">orgQhull::QhullSet</text>
<text text-anchor="middle" x="219" y="-299.75" font-family="Helvetica,sans-Serif" font-size="10.00">::front</text>
</a>
</g>
</g>
<!-- Node18&#45;&gt;Node19 -->
<g id="edge19_Node000018_Node000019" class="edge">
<title>Node18&#45;&gt;Node19</title>
<g id="a_edge19_Node000018_Node000019"><a xlink:title=" ">
<path fill="none" stroke="#63b8ff" d="M306.03,-287.11C293.13,-290.43 279.59,-293.91 267.17,-297.11"/>
<polygon fill="#63b8ff" stroke="#63b8ff" points="306.87,-290.25 315.68,-284.37 305.12,-283.47 306.87,-290.25"/>
</a>
</g>
</g>
<!-- Node20 -->
<g id="Node000020" class="node">
<title>Node20</title>
<g id="a_Node000020"><a xlink:href="../../da/d8e/classorg_qhull_1_1_qhull_set.html#a2b11c5e9fc76cfc6eb7d593a33d4abf3" target="_top" xlink:title=" ">
<polygon fill="white" stroke="#666666" points="266.75,-373.5 171.25,-373.5 171.25,-343 266.75,-343 266.75,-373.5"/>
<text text-anchor="start" x="179.25" y="-360" font-family="Helvetica,sans-Serif" font-size="10.00">orgQhull::QhullSet</text>
<text text-anchor="middle" x="219" y="-348.75" font-family="Helvetica,sans-Serif" font-size="10.00">::front</text>
</a>
</g>
</g>
<!-- Node18&#45;&gt;Node20 -->
<g id="edge20_Node000018_Node000020" class="edge">
<title>Node18&#45;&gt;Node20</title>
<g id="a_edge20_Node000018_Node000020"><a xlink:title=" ">
<path fill="none" stroke="#63b8ff" d="M337.09,-294.53C321.41,-306.95 300.82,-322.11 281,-333.25 275.01,-336.61 268.48,-339.78 261.99,-342.64"/>
<polygon fill="#63b8ff" stroke="#63b8ff" points="338.67,-296.95 344.26,-287.95 334.28,-291.49 338.67,-296.95"/>
</a>
</g>
</g>
<!-- Node21 -->
<g id="Node000021" class="node">
<title>Node21</title>
<g id="a_Node000021"><a xlink:href="../../d3/dc9/classorg_qhull_1_1_qhull_ridge__test.html#ada1eeef0c904d03d566534b16613c980" target="_top" xlink:title=" ">
<polygon fill="white" stroke="#666666" points="272,-275.5 166,-275.5 166,-245 272,-245 272,-275.5"/>
<text text-anchor="start" x="174" y="-262" font-family="Helvetica,sans-Serif" font-size="10.00">orgQhull::QhullRidge</text>
<text text-anchor="middle" x="219" y="-250.75" font-family="Helvetica,sans-Serif" font-size="10.00">_test::t_construct</text>
</a>
</g>
</g>
<!-- Node18&#45;&gt;Node21 -->
<g id="edge22_Node000018_Node000021" class="edge">
<title>Node18&#45;&gt;Node21</title>
<g id="a_edge22_Node000018_Node000021"><a xlink:title=" ">
<path fill="none" stroke="#63b8ff" d="M305.82,-267.41C294.77,-266.49 283.26,-265.53 272.4,-264.62"/>
<polygon fill="#63b8ff" stroke="#63b8ff" points="305.42,-270.98 315.68,-268.32 306.01,-264 305.42,-270.98"/>
</a>
</g>
</g>
<!-- Node22 -->
<g id="Node000022" class="node">
<title>Node22</title>
<g id="a_Node000022"><a xlink:href="../../de/da9/classorg_qhull_1_1_qhull_facet__test.html#ad7151333c2cfd6653d5bf90023283168" target="_top" xlink:title=" ">
<polygon fill="white" stroke="#666666" points="271.62,-226.5 166.38,-226.5 166.38,-196 271.62,-196 271.62,-226.5"/>
<text text-anchor="start" x="174.38" y="-213" font-family="Helvetica,sans-Serif" font-size="10.00">orgQhull::QhullFacet</text>
<text text-anchor="middle" x="219" y="-201.75" font-family="Helvetica,sans-Serif" font-size="10.00">_test::t_foreach</text>
</a>
</g>
</g>
<!-- Node18&#45;&gt;Node22 -->
<g id="edge24_Node000018_Node000022" class="edge">
<title>Node18&#45;&gt;Node22</title>
<g id="a_edge24_Node000018_Node000022"><a xlink:title=" ">
<path fill="none" stroke="#63b8ff" d="M318.46,-252.34C306.32,-247.06 293.18,-241.39 281,-236.25 273.83,-233.22 266.17,-230.04 258.78,-227"/>
<polygon fill="#63b8ff" stroke="#63b8ff" points="316.82,-255.88 327.39,-256.67 319.62,-249.46 316.82,-255.88"/>
</a>
</g>
</g>
<!-- Node23 -->
<g id="Node000023" class="node">
<title>Node23</title>
<g id="a_Node000023"><a xlink:href="../../d3/dc9/classorg_qhull_1_1_qhull_ridge__test.html#a372271923da9bea1333ab6d8b5c30ca7" target="_top" xlink:title=" ">
<polygon fill="white" stroke="#666666" points="272,-177.5 166,-177.5 166,-147 272,-147 272,-177.5"/>
<text text-anchor="start" x="174" y="-164" font-family="Helvetica,sans-Serif" font-size="10.00">orgQhull::QhullRidge</text>
<text text-anchor="middle" x="219" y="-152.75" font-family="Helvetica,sans-Serif" font-size="10.00">_test::t_foreach</text>
</a>
</g>
</g>
<!-- Node18&#45;&gt;Node23 -->
<g id="edge25_Node000018_Node000023" class="edge">
<title>Node18&#45;&gt;Node23</title>
<g id="a_edge25_Node000018_Node000023"><a xlink:title=" ">
<path fill="none" stroke="#63b8ff" d="M320.53,-250.36C319.3,-249.36 318.13,-248.32 317,-247.25 294.47,-225.81 304.59,-207.51 281,-187.25 276.83,-183.67 272.08,-180.55 267.12,-177.85"/>
<polygon fill="#63b8ff" stroke="#63b8ff" points="317.92,-253.52 328.09,-256.52 322.01,-247.84 317.92,-253.52"/>
</a>
</g>
</g>
<!-- Node24 -->
<g id="Node000024" class="node">
<title>Node24</title>
<g id="a_Node000024"><a xlink:href="../../d3/dc9/classorg_qhull_1_1_qhull_ridge__test.html#a236754d0a96a7f4df743ef39d83e3eea" target="_top" xlink:title=" ">
<polygon fill="white" stroke="#666666" points="272,-128.5 166,-128.5 166,-98 272,-98 272,-128.5"/>
<text text-anchor="start" x="174" y="-115" font-family="Helvetica,sans-Serif" font-size="10.00">orgQhull::QhullRidge</text>
<text text-anchor="middle" x="219" y="-103.75" font-family="Helvetica,sans-Serif" font-size="10.00">_test::t_io</text>
</a>
</g>
</g>
<!-- Node18&#45;&gt;Node24 -->
<g id="edge27_Node000018_Node000024" class="edge">
<title>Node18&#45;&gt;Node24</title>
<g id="a_edge27_Node000018_Node000024"><a xlink:title=" ">
<path fill="none" stroke="#63b8ff" d="M319.03,-249.5C318.33,-248.77 317.65,-248.02 317,-247.25 284.16,-208.21 315.79,-175.56 281,-138.25 277.64,-134.65 273.69,-131.55 269.44,-128.9"/>
<polygon fill="#63b8ff" stroke="#63b8ff" points="316.51,-252.8 326.41,-256.58 321.03,-247.45 316.51,-252.8"/>
</a>
</g>
</g>
<!-- Node25 -->
<g id="Node000025" class="node">
<title>Node25</title>
<g id="a_Node000025"><a xlink:href="../../df/dca/classorg_qhull_1_1_qhull_vertex_set__test.html#a27298cba01cd9a8a1c7ff5cb1cbddb22" target="_top" xlink:title="Spot check properties and read&#45;only. See QhullSet_test.">
<polygon fill="white" stroke="#666666" points="281,-79.5 157,-79.5 157,-49 281,-49 281,-79.5"/>
<text text-anchor="start" x="165" y="-66" font-family="Helvetica,sans-Serif" font-size="10.00">orgQhull::QhullVertexSet</text>
<text text-anchor="middle" x="219" y="-54.75" font-family="Helvetica,sans-Serif" font-size="10.00">_test::t_readonly</text>
</a>
</g>
</g>
<!-- Node18&#45;&gt;Node25 -->
<g id="edge28_Node000018_Node000025" class="edge">
<title>Node18&#45;&gt;Node25</title>
<g id="a_edge28_Node000018_Node000025"><a xlink:title=" ">
<path fill="none" stroke="#63b8ff" d="M318.57,-249.18C318.03,-248.55 317.5,-247.91 317,-247.25 273.31,-190 327.56,-144.2 281,-89.25 277.97,-85.67 274.34,-82.6 270.39,-79.96"/>
<polygon fill="#63b8ff" stroke="#63b8ff" points="315.87,-251.37 325.62,-255.51 320.59,-246.19 315.87,-251.37"/>
</a>
</g>
</g>
<!-- Node26 -->
<g id="Node000026" class="node">
<title>Node26</title>
<g id="a_Node000026"><a xlink:href="../../d1/d48/classorg_qhull_1_1_qhull_point_set__test.html#a1da7247fc5b3529a83ab913812a8481d" target="_top" xlink:title=" ">
<polygon fill="white" stroke="#666666" points="278,-30.5 160,-30.5 160,0 278,0 278,-30.5"/>
<text text-anchor="start" x="168" y="-17" font-family="Helvetica,sans-Serif" font-size="10.00">orgQhull::QhullPointSet</text>
<text text-anchor="middle" x="219" y="-5.75" font-family="Helvetica,sans-Serif" font-size="10.00">_test::t_search</text>
</a>
</g>
</g>
<!-- Node18&#45;&gt;Node26 -->
<g id="edge29_Node000018_Node000026" class="edge">
<title>Node18&#45;&gt;Node26</title>
<g id="a_edge29_Node000018_Node000026"><a xlink:title=" ">
<path fill="none" stroke="#63b8ff" d="M318.52,-249.22C317.99,-248.58 317.49,-247.92 317,-247.25 262.29,-171.57 339.5,-113.04 281,-40.25 278.13,-36.68 274.67,-33.62 270.87,-30.99"/>
<polygon fill="#63b8ff" stroke="#63b8ff" points="315.75,-251.35 325.44,-255.65 320.55,-246.25 315.75,-251.35"/>
</a>
</g>
</g>
<!-- Node20&#45;&gt;Node7 -->
<g id="edge21_Node000020_Node000007" class="edge">
<title>Node20&#45;&gt;Node7</title>
<g id="a_edge21_Node000020_Node000007"><a xlink:title=" ">
<path fill="none" stroke="#63b8ff" d="M160.76,-373.98C147.04,-377.75 132.38,-381.78 118.66,-385.55"/>
<polygon fill="#63b8ff" stroke="#63b8ff" points="161.33,-377.18 170.04,-371.15 159.47,-370.43 161.33,-377.18"/>
</a>
</g>
</g>
</g>
</svg>

<g id="navigator" transform="translate(0 0)" fill="#404254">
  <rect fill="#f2f5e9" fill-opacity="0.5" stroke="#606060" stroke-width=".5" x="0" y="0" width="60" height="60"/>
  <use id="zoomplus" xlink:href="#zoomPlus" x="17" y="9" onmousedown="handleZoom(evt,'in')"/>
  <use id="zoomminus" xlink:href="#zoomMin" x="42" y="9" onmousedown="handleZoom(evt,'out')"/>
  <use id="reset" xlink:href="#resetDef" x="30" y="36" onmousedown="handleReset()"/>
   <use id="arrowup" xlink:href="#arrowUp" x="0" y="0" onmousedown="handlePan(0,-1)"/>
  <use id="arrowright" xlink:href="#arrowRight" x="0" y="0" onmousedown="handlePan(1,0)"/>
  <use id="arrowdown" xlink:href="#arrowDown" x="0" y="0" onmousedown="handlePan(0,1)"/>
  <use id="arrowleft" xlink:href="#arrowLeft" x="0" y="0" onmousedown="handlePan(-1,0)"/>
</g>
<svg viewBox="0 0 15 15" width="100%" height="30px" preserveAspectRatio="xMaxYMin meet">
 <g id="arrow_out" transform="scale(0.3 0.3)">
  <a xlink:href="classorg_qhull_1_1_qhull_set_base_ae422a214957f71a1b06284ac306e7f49_icgraph_org.svg" target="_base">
   <rect id="button" ry="5" rx="5" y="6" x="6" height="38" width="38"
        fill="#f2f5e9" fill-opacity="0.5" stroke="#606060" stroke-width="1.0"/>
   <path id="arrow"
     d="M 11.500037,31.436501 C 11.940474,20.09759 22.043105,11.32322 32.158766,21.979434 L 37.068811,17.246167 C 37.068811,17.246167 37.088388,32 37.088388,32 L 22.160133,31.978069 C 22.160133,31.978069 26.997745,27.140456 26.997745,27.140456 C 18.528582,18.264221 13.291696,25.230495 11.500037,31.436501 z"
     style="fill:#404040;"/>
  </a>
 </g>
</svg>

<style type='text/css'>
<![CDATA[
[data-mouse-over-selected='false'] { opacity: 0.7; }
[data-mouse-over-selected='true']  { opacity: 1.0; }
]]>
</style>
<script type="application/ecmascript"><![CDATA[
document.addEventListener('DOMContentLoaded', (event) => {
  highlightEdges();
  highlightAdjacentNodes();
});
]]></script>
</svg>
