<?xml version="1.0" encoding="UTF-8" standalone="no"?>
<!DOCTYPE svg PUBLIC "-//W3C//DTD SVG 1.1//EN"
 "http://www.w3.org/Graphics/SVG/1.1/DTD/svg11.dtd">
<!-- Generated by graphviz version 8.1.0 (20230707.0739)
 -->
<!-- Title: Slic3r::GUI::Preview::update_layers_slider_mode Pages: 1 -->
<!--zoomable 161 -->

<svg id="main" version="1.1" xmlns="http://www.w3.org/2000/svg" xmlns:xlink="http://www.w3.org/1999/xlink" xml:space="preserve" onload="init(evt)">
<style type="text/css"><![CDATA[
.node, .edge {opacity: 0.7;}
.node.selected, .edge.selected {opacity: 1;}
.edge:hover path { stroke: red; }
.edge:hover polygon { stroke: red; fill: red; }
]]></style>

<defs>
  <circle id="rim" cx="0" cy="0" r="7"/>
  <circle id="rim2" cx="0" cy="0" r="3.5"/>
  <g id="zoomPlus">
    <use xlink:href="#rim" fill="#404040"><set attributeName="fill" to="#808080" begin="zoomplus.mouseover" end="zoomplus.mouseout"/></use>
    <path d="M-4,0h8M0,-4v8" fill="none" stroke="white" stroke-width="1.5" pointer-events="none"/>
  </g>
  <g id="zoomMin">
    <use xlink:href="#rim" fill="#404040"><set attributeName="fill" to="#808080" begin="zoomminus.mouseover" end="zoomminus.mouseout"/></use>
    <path d="M-4,0h8" fill="none" stroke="white" stroke-width="1.5" pointer-events="none"/>
  </g>
  <g id="arrowUp" transform="translate(30 24)">
    <use xlink:href="#rim"/>
    <path pointer-events="none" fill="none" stroke="white" stroke-width="1.5" d="M0,-3.0v7 M-2.5,-0.5L0,-3.0L2.5,-0.5"/>
  </g>
  <g id="arrowRight" transform="rotate(90) translate(36 -43)">
    <use xlink:href="#rim"/>
    <path pointer-events="none" fill="none" stroke="white" stroke-width="1.5" d="M0,-3.0v7 M-2.5,-0.5L0,-3.0L2.5,-0.5"/>
  </g>
  <g id="arrowDown" transform="rotate(180) translate(-30 -48)">
    <use xlink:href="#rim"/>
    <path pointer-events="none" fill="none" stroke="white" stroke-width="1.5" d="M0,-3.0v7 M-2.5,-0.5L0,-3.0L2.5,-0.5"/>
  </g>
  <g id="arrowLeft" transform="rotate(270) translate(-36 17)">
    <use xlink:href="#rim"/>
    <path pointer-events="none" fill="none" stroke="white" stroke-width="1.5" d="M0,-3.0v7 M-2.5,-0.5L0,-3.0L2.5,-0.5"/>
  </g>
  <g id="resetDef">
    <use xlink:href="#rim2" fill="#404040"><set attributeName="fill" to="#808080" begin="reset.mouseover" end="reset.mouseout"/></use>
  </g>
</defs>
<script type="application/ecmascript">
var viewWidth = 650;
var viewHeight = 161;
var sectionId = 'dynsection-38';
</script>
<script type="application/ecmascript" xlink:href="../../svg.min.js"/>
<svg id="graph" class="graph">
<g id="viewport">
<title>Slic3r::GUI::Preview::update_layers_slider_mode</title>
<!-- Node1 -->
<g id="Node000001" class="node">
<title>Node1</title>
<g id="a_Node000001"><a xlink:title=" ">
<polygon fill="#999999" stroke="#666666" points="140.5,-103.5 0,-103.5 0,-73 140.5,-73 140.5,-103.5"/>
<text text-anchor="start" x="8" y="-90" font-family="Helvetica,sans-Serif" font-size="10.00">Slic3r::GUI::Preview</text>
<text text-anchor="middle" x="70.25" y="-78.75" font-family="Helvetica,sans-Serif" font-size="10.00">::update_layers_slider_mode</text>
</a>
</g>
</g>
<!-- Node2 -->
<g id="Node000002" class="node">
<title>Node2</title>
<g id="a_Node000002"><a xlink:href="../../d0/d2b/class_slic3r_1_1_g_u_i_1_1_g_l_canvas3_d.html#a8fb2ff3d3b6cf217c0d3c60b43e5cd06" target="_top" xlink:title=" ">
<polygon fill="white" stroke="#666666" points="309.12,-152.5 179.12,-152.5 179.12,-122 309.12,-122 309.12,-152.5"/>
<text text-anchor="start" x="187.12" y="-139" font-family="Helvetica,sans-Serif" font-size="10.00">Slic3r::GUI::GLCanvas3D</text>
<text text-anchor="middle" x="244.12" y="-127.75" font-family="Helvetica,sans-Serif" font-size="10.00">::get_gcode_viewer</text>
</a>
</g>
</g>
<!-- Node1&#45;&gt;Node2 -->
<g id="edge1_Node000001_Node000002" class="edge">
<title>Node1&#45;&gt;Node2</title>
<g id="a_edge1_Node000001_Node000002"><a xlink:title=" ">
<path fill="none" stroke="#63b8ff" d="M126.1,-103.89C142.46,-108.55 160.55,-113.71 177.51,-118.54"/>
<polygon fill="#63b8ff" stroke="#63b8ff" points="176.33,-122.13 186.91,-121.51 178.25,-115.4 176.33,-122.13"/>
</a>
</g>
</g>
<!-- Node3 -->
<g id="Node000003" class="node">
<title>Node3</title>
<g id="a_Node000003"><a xlink:href="../../de/dc3/class_slic3r_1_1_g_u_i_1_1_g_code_viewer.html#a943bf4e613f154fc492558db86765d8e" target="_top" xlink:title=" ">
<polygon fill="white" stroke="#666666" points="309.88,-103.5 178.38,-103.5 178.38,-73 309.88,-73 309.88,-103.5"/>
<text text-anchor="start" x="186.38" y="-90" font-family="Helvetica,sans-Serif" font-size="10.00">Slic3r::GUI::GCodeViewer</text>
<text text-anchor="middle" x="244.12" y="-78.75" font-family="Helvetica,sans-Serif" font-size="10.00">::get_layers_slider</text>
</a>
</g>
</g>
<!-- Node1&#45;&gt;Node3 -->
<g id="edge2_Node000001_Node000003" class="edge">
<title>Node1&#45;&gt;Node3</title>
<g id="a_edge2_Node000001_Node000003"><a xlink:title=" ">
<path fill="none" stroke="#63b8ff" d="M140.66,-88.25C149.31,-88.25 158.19,-88.25 166.93,-88.25"/>
<polygon fill="#63b8ff" stroke="#63b8ff" points="166.91,-91.75 176.91,-88.25 166.91,-84.75 166.91,-91.75"/>
</a>
</g>
</g>
<!-- Node4 -->
<g id="Node000004" class="node">
<title>Node4</title>
<g id="a_Node000004"><a xlink:href="../../df/d17/class_slic3r_1_1_g_u_i_1_1_i_m_slider.html#aefb8719b5b8a3a9c127f49dc5e41f3fc" target="_top" xlink:title=" ">
<polygon fill="white" stroke="#666666" points="311.75,-54.5 176.5,-54.5 176.5,-24 311.75,-24 311.75,-54.5"/>
<text text-anchor="start" x="184.5" y="-41" font-family="Helvetica,sans-Serif" font-size="10.00">Slic3r::GUI::IMSlider</text>
<text text-anchor="middle" x="244.12" y="-29.75" font-family="Helvetica,sans-Serif" font-size="10.00">::SetModeAndOnlyExtruder</text>
</a>
</g>
</g>
<!-- Node1&#45;&gt;Node4 -->
<g id="edge3_Node000001_Node000004" class="edge">
<title>Node1&#45;&gt;Node4</title>
<g id="a_edge3_Node000001_Node000004"><a xlink:title=" ">
<path fill="none" stroke="#63b8ff" d="M126.1,-72.61C142.46,-67.95 160.55,-62.79 177.51,-57.96"/>
<polygon fill="#63b8ff" stroke="#63b8ff" points="178.25,-61.1 186.91,-54.99 176.33,-54.37 178.25,-61.1"/>
</a>
</g>
</g>
<!-- Node5 -->
<g id="Node000005" class="node">
<title>Node5</title>
<g id="a_Node000005"><a xlink:href="../../d5/d02/class_slic3r_1_1_g_u_i_1_1_tick_code_info.html#ae5e6095f431d85f8abd3447d2fd075cf" target="_top" xlink:title=" ">
<polygon fill="white" stroke="#666666" points="477,-79.5 347.75,-79.5 347.75,-49 477,-49 477,-79.5"/>
<text text-anchor="start" x="355.75" y="-66" font-family="Helvetica,sans-Serif" font-size="10.00">Slic3r::GUI::TickCodeInfo</text>
<text text-anchor="middle" x="412.38" y="-54.75" font-family="Helvetica,sans-Serif" font-size="10.00">::empty</text>
</a>
</g>
</g>
<!-- Node4&#45;&gt;Node5 -->
<g id="edge4_Node000004_Node000005" class="edge">
<title>Node4&#45;&gt;Node5</title>
<g id="a_edge4_Node000004_Node000005"><a xlink:title=" ">
<path fill="none" stroke="#63b8ff" d="M311.79,-49.27C319.95,-50.5 328.34,-51.76 336.61,-53.01"/>
<polygon fill="#63b8ff" stroke="#63b8ff" points="335.99,-56.6 346.4,-54.63 337.03,-49.68 335.99,-56.6"/>
</a>
</g>
</g>
<!-- Node6 -->
<g id="Node000006" class="node">
<title>Node6</title>
<g id="a_Node000006"><a xlink:href="../../df/d17/class_slic3r_1_1_g_u_i_1_1_i_m_slider.html#a37a1db1d4d45f3dd47ca4311657bb5b3" target="_top" xlink:title=" ">
<polygon fill="white" stroke="#666666" points="465.75,-30.5 359,-30.5 359,0 465.75,0 465.75,-30.5"/>
<text text-anchor="start" x="367" y="-17" font-family="Helvetica,sans-Serif" font-size="10.00">Slic3r::GUI::IMSlider</text>
<text text-anchor="middle" x="412.38" y="-5.75" font-family="Helvetica,sans-Serif" font-size="10.00">::UseDefaultColors</text>
</a>
</g>
</g>
<!-- Node4&#45;&gt;Node6 -->
<g id="edge5_Node000004_Node000006" class="edge">
<title>Node4&#45;&gt;Node6</title>
<g id="a_edge5_Node000004_Node000006"><a xlink:title=" ">
<path fill="none" stroke="#63b8ff" d="M311.79,-29.63C323.68,-27.91 336.05,-26.12 347.85,-24.42"/>
<polygon fill="#63b8ff" stroke="#63b8ff" points="348.11,-27.77 357.51,-22.88 347.11,-20.85 348.11,-27.77"/>
</a>
</g>
</g>
<!-- Node7 -->
<g id="Node000007" class="node">
<title>Node7</title>
<g id="a_Node000007"><a xlink:href="../../d5/d02/class_slic3r_1_1_g_u_i_1_1_tick_code_info.html#a9e58d4e7857ba723ab5ad3d688a2f186" target="_top" xlink:title=" ">
<polygon fill="white" stroke="#666666" points="642.25,-30.5 513,-30.5 513,0 642.25,0 642.25,-30.5"/>
<text text-anchor="start" x="521" y="-17" font-family="Helvetica,sans-Serif" font-size="10.00">Slic3r::GUI::TickCodeInfo</text>
<text text-anchor="middle" x="577.62" y="-5.75" font-family="Helvetica,sans-Serif" font-size="10.00">::set_default_colors</text>
</a>
</g>
</g>
<!-- Node6&#45;&gt;Node7 -->
<g id="edge6_Node000006_Node000007" class="edge">
<title>Node6&#45;&gt;Node7</title>
<g id="a_edge6_Node000006_Node000007"><a xlink:title=" ">
<path fill="none" stroke="#63b8ff" d="M465.93,-15.25C477.46,-15.25 489.89,-15.25 502.1,-15.25"/>
<polygon fill="#63b8ff" stroke="#63b8ff" points="501.75,-18.75 511.75,-15.25 501.75,-11.75 501.75,-18.75"/>
</a>
</g>
</g>
</g>
</svg>

<g id="navigator" transform="translate(0 0)" fill="#404254">
  <rect fill="#f2f5e9" fill-opacity="0.5" stroke="#606060" stroke-width=".5" x="0" y="0" width="60" height="60"/>
  <use id="zoomplus" xlink:href="#zoomPlus" x="17" y="9" onmousedown="handleZoom(evt,'in')"/>
  <use id="zoomminus" xlink:href="#zoomMin" x="42" y="9" onmousedown="handleZoom(evt,'out')"/>
  <use id="reset" xlink:href="#resetDef" x="30" y="36" onmousedown="handleReset()"/>
   <use id="arrowup" xlink:href="#arrowUp" x="0" y="0" onmousedown="handlePan(0,-1)"/>
  <use id="arrowright" xlink:href="#arrowRight" x="0" y="0" onmousedown="handlePan(1,0)"/>
  <use id="arrowdown" xlink:href="#arrowDown" x="0" y="0" onmousedown="handlePan(0,1)"/>
  <use id="arrowleft" xlink:href="#arrowLeft" x="0" y="0" onmousedown="handlePan(-1,0)"/>
</g>
<svg viewBox="0 0 15 15" width="100%" height="30px" preserveAspectRatio="xMaxYMin meet">
 <g id="arrow_out" transform="scale(0.3 0.3)">
  <a xlink:href="class_slic3r_1_1_g_u_i_1_1_preview_a1838b0372a1d880d92fd5801f6de1880_cgraph_org.svg" target="_base">
   <rect id="button" ry="5" rx="5" y="6" x="6" height="38" width="38"
        fill="#f2f5e9" fill-opacity="0.5" stroke="#606060" stroke-width="1.0"/>
   <path id="arrow"
     d="M 11.500037,31.436501 C 11.940474,20.09759 22.043105,11.32322 32.158766,21.979434 L 37.068811,17.246167 C 37.068811,17.246167 37.088388,32 37.088388,32 L 22.160133,31.978069 C 22.160133,31.978069 26.997745,27.140456 26.997745,27.140456 C 18.528582,18.264221 13.291696,25.230495 11.500037,31.436501 z"
     style="fill:#404040;"/>
  </a>
 </g>
</svg>

<style type='text/css'>
<![CDATA[
[data-mouse-over-selected='false'] { opacity: 0.7; }
[data-mouse-over-selected='true']  { opacity: 1.0; }
]]>
</style>
<script type="application/ecmascript"><![CDATA[
document.addEventListener('DOMContentLoaded', (event) => {
  highlightEdges();
  highlightAdjacentNodes();
});
]]></script>
</svg>
