<?xml version="1.0" encoding="UTF-8" standalone="no"?>
<!DOCTYPE svg PUBLIC "-//W3C//DTD SVG 1.1//EN"
 "http://www.w3.org/Graphics/SVG/1.1/DTD/svg11.dtd">
<!-- Generated by graphviz version 8.1.0 (20230707.0739)
 -->
<!-- Title: Slic3r::is_end_of_gcode_line Pages: 1 -->
<!--zoomable 262 -->

<svg id="main" version="1.1" xmlns="http://www.w3.org/2000/svg" xmlns:xlink="http://www.w3.org/1999/xlink" xml:space="preserve" onload="init(evt)">
<style type="text/css"><![CDATA[
.node, .edge {opacity: 0.7;}
.node.selected, .edge.selected {opacity: 1;}
.edge:hover path { stroke: red; }
.edge:hover polygon { stroke: red; fill: red; }
]]></style>

<defs>
  <circle id="rim" cx="0" cy="0" r="7"/>
  <circle id="rim2" cx="0" cy="0" r="3.5"/>
  <g id="zoomPlus">
    <use xlink:href="#rim" fill="#404040"><set attributeName="fill" to="#808080" begin="zoomplus.mouseover" end="zoomplus.mouseout"/></use>
    <path d="M-4,0h8M0,-4v8" fill="none" stroke="white" stroke-width="1.5" pointer-events="none"/>
  </g>
  <g id="zoomMin">
    <use xlink:href="#rim" fill="#404040"><set attributeName="fill" to="#808080" begin="zoomminus.mouseover" end="zoomminus.mouseout"/></use>
    <path d="M-4,0h8" fill="none" stroke="white" stroke-width="1.5" pointer-events="none"/>
  </g>
  <g id="arrowUp" transform="translate(30 24)">
    <use xlink:href="#rim"/>
    <path pointer-events="none" fill="none" stroke="white" stroke-width="1.5" d="M0,-3.0v7 M-2.5,-0.5L0,-3.0L2.5,-0.5"/>
  </g>
  <g id="arrowRight" transform="rotate(90) translate(36 -43)">
    <use xlink:href="#rim"/>
    <path pointer-events="none" fill="none" stroke="white" stroke-width="1.5" d="M0,-3.0v7 M-2.5,-0.5L0,-3.0L2.5,-0.5"/>
  </g>
  <g id="arrowDown" transform="rotate(180) translate(-30 -48)">
    <use xlink:href="#rim"/>
    <path pointer-events="none" fill="none" stroke="white" stroke-width="1.5" d="M0,-3.0v7 M-2.5,-0.5L0,-3.0L2.5,-0.5"/>
  </g>
  <g id="arrowLeft" transform="rotate(270) translate(-36 17)">
    <use xlink:href="#rim"/>
    <path pointer-events="none" fill="none" stroke="white" stroke-width="1.5" d="M0,-3.0v7 M-2.5,-0.5L0,-3.0L2.5,-0.5"/>
  </g>
  <g id="resetDef">
    <use xlink:href="#rim2" fill="#404040"><set attributeName="fill" to="#808080" begin="reset.mouseover" end="reset.mouseout"/></use>
  </g>
</defs>
<script type="application/ecmascript">
var viewWidth = 1137;
var viewHeight = 262;
var sectionId = 'dynsection-834';
</script>
<script type="application/ecmascript" xlink:href="../../svg.min.js"/>
<svg id="graph" class="graph">
<g id="viewport">
<title>Slic3r::is_end_of_gcode_line</title>
<!-- Node1 -->
<g id="Node000001" class="node">
<title>Node1</title>
<g id="a_Node000001"><a xlink:title=" ">
<polygon fill="#999999" stroke="#666666" points="1129,-134.88 988.5,-134.88 988.5,-115.62 1129,-115.62 1129,-134.88"/>
<text text-anchor="middle" x="1058.75" y="-121.38" font-family="Helvetica,sans-Serif" font-size="10.00">Slic3r::is_end_of_gcode_line</text>
</a>
</g>
</g>
<!-- Node2 -->
<g id="Node000002" class="node">
<title>Node2</title>
<g id="a_Node000002"><a xlink:href="../../de/db8/namespace_slic3r.html#a0d0b187f0eebcea91a5948ac6cc75a13" target="_top" xlink:title=" ">
<polygon fill="white" stroke="#666666" points="952.5,-134.88 837.5,-134.88 837.5,-115.62 952.5,-115.62 952.5,-134.88"/>
<text text-anchor="middle" x="895" y="-121.38" font-family="Helvetica,sans-Serif" font-size="10.00">Slic3r::is_end_of_word</text>
</a>
</g>
</g>
<!-- Node1&#45;&gt;Node2 -->
<g id="edge1_Node000001_Node000002" class="edge">
<title>Node1&#45;&gt;Node2</title>
<g id="a_edge1_Node000001_Node000002"><a xlink:title=" ">
<path fill="none" stroke="#63b8ff" d="M977.35,-125.25C969.06,-125.25 960.77,-125.25 952.81,-125.25"/>
<polygon fill="#63b8ff" stroke="#63b8ff" points="977.21,-128.75 987.21,-125.25 977.21,-121.75 977.21,-128.75"/>
</a>
</g>
</g>
<!-- Node3 -->
<g id="Node000003" class="node">
<title>Node3</title>
<g id="a_Node000003"><a xlink:href="../../dc/d9a/class_slic3r_1_1_g_code_processor.html#aa22782dc139d89f8d2049fc2192c4d02" target="_top" xlink:title=" ">
<polygon fill="white" stroke="#666666" points="801.5,-165.5 678.25,-165.5 678.25,-135 801.5,-135 801.5,-165.5"/>
<text text-anchor="start" x="686.25" y="-152" font-family="Helvetica,sans-Serif" font-size="10.00">Slic3r::GCodeProcessor</text>
<text text-anchor="middle" x="739.88" y="-140.75" font-family="Helvetica,sans-Serif" font-size="10.00">::get_last_z_from_gcode</text>
</a>
</g>
</g>
<!-- Node2&#45;&gt;Node3 -->
<g id="edge2_Node000002_Node000003" class="edge">
<title>Node2&#45;&gt;Node3</title>
<g id="a_edge2_Node000002_Node000003"><a xlink:title=" ">
<path fill="none" stroke="#63b8ff" d="M826.68,-136.24C818.42,-137.59 810.01,-138.96 801.85,-140.29"/>
<polygon fill="#63b8ff" stroke="#63b8ff" points="827.11,-139.55 836.42,-134.49 825.98,-132.65 827.11,-139.55"/>
</a>
</g>
</g>
<!-- Node8 -->
<g id="Node000008" class="node">
<title>Node8</title>
<g id="a_Node000008"><a xlink:href="../../de/db8/namespace_slic3r.html#ac2fffd691ca5fb861f274500ea58f525" target="_top" xlink:title=" ">
<polygon fill="white" stroke="#666666" points="785.38,-113.88 694.38,-113.88 694.38,-94.62 785.38,-94.62 785.38,-113.88"/>
<text text-anchor="middle" x="739.88" y="-100.38" font-family="Helvetica,sans-Serif" font-size="10.00">Slic3r::skip_word</text>
</a>
</g>
</g>
<!-- Node2&#45;&gt;Node8 -->
<g id="edge7_Node000002_Node000008" class="edge">
<title>Node2&#45;&gt;Node8</title>
<g id="a_edge7_Node000002_Node000008"><a xlink:title=" ">
<path fill="none" stroke="#63b8ff" d="M826.89,-116.05C812.97,-114.14 798.64,-112.17 785.75,-110.4"/>
<polygon fill="#63b8ff" stroke="#63b8ff" points="826.03,-119.6 836.42,-117.49 826.99,-112.66 826.03,-119.6"/>
</a>
</g>
</g>
<!-- Node4 -->
<g id="Node000004" class="node">
<title>Node4</title>
<g id="a_Node000004"><a xlink:href="../../d0/d4c/class_slic3r_1_1_wipe_tower_integration.html#a77890da960412cea8c288fe74a2d28cc" target="_top" xlink:title=" ">
<polygon fill="white" stroke="#666666" points="642.25,-179.5 501,-179.5 501,-149 642.25,-149 642.25,-179.5"/>
<text text-anchor="start" x="509" y="-166" font-family="Helvetica,sans-Serif" font-size="10.00">Slic3r::WipeTowerIntegration</text>
<text text-anchor="middle" x="571.62" y="-154.75" font-family="Helvetica,sans-Serif" font-size="10.00">::append_tcr</text>
</a>
</g>
</g>
<!-- Node3&#45;&gt;Node4 -->
<g id="edge3_Node000003_Node000004" class="edge">
<title>Node3&#45;&gt;Node4</title>
<g id="a_edge3_Node000003_Node000004"><a xlink:title=" ">
<path fill="none" stroke="#63b8ff" d="M666.99,-156.3C658.89,-156.99 650.65,-157.68 642.58,-158.36"/>
<polygon fill="#63b8ff" stroke="#63b8ff" points="667.24,-159.71 676.91,-155.38 666.66,-152.74 667.24,-159.71"/>
</a>
</g>
</g>
<!-- Node5 -->
<g id="Node000005" class="node">
<title>Node5</title>
<g id="a_Node000005"><a xlink:href="../../d0/d4c/class_slic3r_1_1_wipe_tower_integration.html#ad176401561c0de48be24cc98ab44b4bf" target="_top" xlink:title=" ">
<polygon fill="white" stroke="#666666" points="464.62,-253.5 323.38,-253.5 323.38,-223 464.62,-223 464.62,-253.5"/>
<text text-anchor="start" x="331.38" y="-240" font-family="Helvetica,sans-Serif" font-size="10.00">Slic3r::WipeTowerIntegration</text>
<text text-anchor="middle" x="394" y="-228.75" font-family="Helvetica,sans-Serif" font-size="10.00">::finalize</text>
</a>
</g>
</g>
<!-- Node4&#45;&gt;Node5 -->
<g id="edge4_Node000004_Node000005" class="edge">
<title>Node4&#45;&gt;Node5</title>
<g id="a_edge4_Node000004_Node000005"><a xlink:title=" ">
<path fill="none" stroke="#63b8ff" d="M529.35,-184.46C510,-193.66 486.51,-204.44 465,-213.25 457.24,-216.43 448.9,-219.61 440.79,-222.58"/>
<polygon fill="#63b8ff" stroke="#63b8ff" points="530.56,-187.29 538.07,-179.81 527.54,-180.97 530.56,-187.29"/>
</a>
</g>
</g>
<!-- Node6 -->
<g id="Node000006" class="node">
<title>Node6</title>
<g id="a_Node000006"><a xlink:href="../../d0/d4c/class_slic3r_1_1_wipe_tower_integration.html#a7497d8d42cdcc1e6eab63612993aee92" target="_top" xlink:title=" ">
<polygon fill="white" stroke="#666666" points="464.62,-204.5 323.38,-204.5 323.38,-174 464.62,-174 464.62,-204.5"/>
<text text-anchor="start" x="331.38" y="-191" font-family="Helvetica,sans-Serif" font-size="10.00">Slic3r::WipeTowerIntegration</text>
<text text-anchor="middle" x="394" y="-179.75" font-family="Helvetica,sans-Serif" font-size="10.00">::prime</text>
</a>
</g>
</g>
<!-- Node4&#45;&gt;Node6 -->
<g id="edge5_Node000004_Node000006" class="edge">
<title>Node4&#45;&gt;Node6</title>
<g id="a_edge5_Node000004_Node000006"><a xlink:title=" ">
<path fill="none" stroke="#63b8ff" d="M489.85,-175.75C481.54,-176.93 473.14,-178.13 464.96,-179.29"/>
<polygon fill="#63b8ff" stroke="#63b8ff" points="490.3,-179.08 499.71,-174.2 489.32,-172.15 490.3,-179.08"/>
</a>
</g>
</g>
<!-- Node7 -->
<g id="Node000007" class="node">
<title>Node7</title>
<g id="a_Node000007"><a xlink:href="../../d0/d4c/class_slic3r_1_1_wipe_tower_integration.html#a756231fc8c765bc08432e520fca5f49c" target="_top" xlink:title=" ">
<polygon fill="white" stroke="#666666" points="464.62,-155.5 323.38,-155.5 323.38,-125 464.62,-125 464.62,-155.5"/>
<text text-anchor="start" x="331.38" y="-142" font-family="Helvetica,sans-Serif" font-size="10.00">Slic3r::WipeTowerIntegration</text>
<text text-anchor="middle" x="394" y="-130.75" font-family="Helvetica,sans-Serif" font-size="10.00">::tool_change</text>
</a>
</g>
</g>
<!-- Node4&#45;&gt;Node7 -->
<g id="edge6_Node000004_Node000007" class="edge">
<title>Node4&#45;&gt;Node7</title>
<g id="a_edge6_Node000004_Node000007"><a xlink:title=" ">
<path fill="none" stroke="#63b8ff" d="M489.85,-153.21C481.54,-152.08 473.14,-150.93 464.96,-149.81"/>
<polygon fill="#63b8ff" stroke="#63b8ff" points="489.33,-156.81 499.71,-154.7 490.27,-149.87 489.33,-156.81"/>
</a>
</g>
</g>
<!-- Node9 -->
<g id="Node000009" class="node">
<title>Node9</title>
<g id="a_Node000009"><a xlink:href="../../d9/d06/class_slic3r_1_1_config_base.html#abbbfb57e6f11c5917955bec9654e62ef" target="_top" xlink:title=" ">
<polygon fill="white" stroke="#666666" points="451.12,-106.5 336.88,-106.5 336.88,-76 451.12,-76 451.12,-106.5"/>
<text text-anchor="start" x="344.88" y="-93" font-family="Helvetica,sans-Serif" font-size="10.00">Slic3r::ConfigBase</text>
<text text-anchor="middle" x="394" y="-81.75" font-family="Helvetica,sans-Serif" font-size="10.00">::load_from_gcode_file</text>
</a>
</g>
</g>
<!-- Node8&#45;&gt;Node9 -->
<g id="edge8_Node000008_Node000009" class="edge">
<title>Node8&#45;&gt;Node9</title>
<g id="a_edge8_Node000008_Node000009"><a xlink:title=" ">
<path fill="none" stroke="#63b8ff" d="M683.27,-102.15C619.49,-99.74 515.49,-95.81 451.39,-93.38"/>
<polygon fill="#63b8ff" stroke="#63b8ff" points="682.79,-105.67 692.92,-102.55 683.06,-98.68 682.79,-105.67"/>
</a>
</g>
</g>
<!-- Node18 -->
<g id="Node000018" class="node">
<title>Node18</title>
<g id="a_Node000018"><a xlink:href="../../d9/d06/class_slic3r_1_1_config_base.html#aa32c751f64e9c249a9aa7cac80a03bd9" target="_top" xlink:title=" ">
<polygon fill="white" stroke="#666666" points="634.38,-76.12 508.88,-76.12 508.88,-34.38 634.38,-34.38 634.38,-76.12"/>
<text text-anchor="start" x="516.88" y="-62.62" font-family="Helvetica,sans-Serif" font-size="10.00">Slic3r::ConfigBase</text>
<text text-anchor="start" x="516.88" y="-51.38" font-family="Helvetica,sans-Serif" font-size="10.00">::load_from_gcode_string</text>
<text text-anchor="middle" x="571.62" y="-40.12" font-family="Helvetica,sans-Serif" font-size="10.00">_legacy</text>
</a>
</g>
</g>
<!-- Node8&#45;&gt;Node18 -->
<g id="edge15_Node000008_Node000018" class="edge">
<title>Node8&#45;&gt;Node18</title>
<g id="a_edge15_Node000008_Node000018"><a xlink:title=" ">
<path fill="none" stroke="#63b8ff" d="M694.47,-91.16C676.18,-85.77 654.67,-79.43 634.86,-73.59"/>
<polygon fill="#63b8ff" stroke="#63b8ff" points="693.25,-94.75 703.83,-94.22 695.23,-88.03 693.25,-94.75"/>
</a>
</g>
</g>
<!-- Node10 -->
<g id="Node000010" class="node">
<title>Node10</title>
<g id="a_Node000010"><a xlink:href="../../d9/d06/class_slic3r_1_1_config_base.html#a1ddf6a2ece3306b6def6b590bae56a74" target="_top" xlink:title=" ">
<polygon fill="white" stroke="#666666" points="271.25,-165.5 173.5,-165.5 173.5,-135 271.25,-135 271.25,-165.5"/>
<text text-anchor="start" x="181.5" y="-152" font-family="Helvetica,sans-Serif" font-size="10.00">Slic3r::ConfigBase</text>
<text text-anchor="middle" x="222.38" y="-140.75" font-family="Helvetica,sans-Serif" font-size="10.00">::load</text>
</a>
</g>
</g>
<!-- Node9&#45;&gt;Node10 -->
<g id="edge9_Node000009_Node000010" class="edge">
<title>Node9&#45;&gt;Node10</title>
<g id="a_edge9_Node000009_Node000010"><a xlink:title=" ">
<path fill="none" stroke="#63b8ff" d="M337.63,-110.51C315.28,-118.28 289.81,-127.14 268.6,-134.52"/>
<polygon fill="#63b8ff" stroke="#63b8ff" points="338.69,-113.5 346.99,-106.91 336.39,-106.89 338.69,-113.5"/>
</a>
</g>
</g>
<!-- Node16 -->
<g id="Node000016" class="node">
<title>Node16</title>
<g id="a_Node000016"><a xlink:href="../../d9/d4b/class_slic3r_1_1_preset_bundle.html#a809726ab5729211dd5e6fb55ee5e9161" target="_top" xlink:title=" ">
<polygon fill="white" stroke="#666666" points="275,-116.5 169.75,-116.5 169.75,-86 275,-86 275,-116.5"/>
<text text-anchor="start" x="177.75" y="-103" font-family="Helvetica,sans-Serif" font-size="10.00">Slic3r::PresetBundle</text>
<text text-anchor="middle" x="222.38" y="-91.75" font-family="Helvetica,sans-Serif" font-size="10.00">::load_config_file</text>
</a>
</g>
</g>
<!-- Node9&#45;&gt;Node16 -->
<g id="edge13_Node000009_Node000016" class="edge">
<title>Node9&#45;&gt;Node16</title>
<g id="a_edge13_Node000009_Node000016"><a xlink:title=" ">
<path fill="none" stroke="#63b8ff" d="M325.67,-95.22C308.91,-96.21 291.21,-97.25 275.32,-98.19"/>
<polygon fill="#63b8ff" stroke="#63b8ff" points="325.74,-98.66 335.52,-94.58 325.33,-91.67 325.74,-98.66"/>
</a>
</g>
</g>
<!-- Node17 -->
<g id="Node000017" class="node">
<title>Node17</title>
<g id="a_Node000017"><a xlink:href="../../dc/d9a/class_slic3r_1_1_g_code_processor.html#ab21f67bd38cc69e9c223a7f33472a28e" target="_top" xlink:title=" ">
<polygon fill="white" stroke="#666666" points="121.75,-49.5 0,-49.5 0,-19 121.75,-19 121.75,-49.5"/>
<text text-anchor="start" x="8" y="-36" font-family="Helvetica,sans-Serif" font-size="10.00">Slic3r::GCodeProcessor</text>
<text text-anchor="middle" x="60.88" y="-24.75" font-family="Helvetica,sans-Serif" font-size="10.00">::process_file</text>
</a>
</g>
</g>
<!-- Node9&#45;&gt;Node17 -->
<g id="edge14_Node000009_Node000017" class="edge">
<title>Node9&#45;&gt;Node17</title>
<g id="a_edge14_Node000009_Node000017"><a xlink:title=" ">
<path fill="none" stroke="#63b8ff" d="M325.63,-79.65C265.93,-69.38 179.55,-54.51 122.11,-44.62"/>
<polygon fill="#63b8ff" stroke="#63b8ff" points="325,-83.27 335.45,-81.52 326.19,-76.37 325,-83.27"/>
</a>
</g>
</g>
<!-- Node11 -->
<g id="Node000011" class="node">
<title>Node11</title>
<g id="a_Node000011"><a xlink:href="../../de/db8/namespace_slic3r.html#a4a0a25424202002e4125a660863aa056" target="_top" xlink:title=" ">
<polygon fill="white" stroke="#666666" points="106.75,-214.5 15,-214.5 15,-184 106.75,-184 106.75,-214.5"/>
<text text-anchor="start" x="23" y="-201" font-family="Helvetica,sans-Serif" font-size="10.00">Slic3r::import_sla</text>
<text text-anchor="middle" x="60.88" y="-189.75" font-family="Helvetica,sans-Serif" font-size="10.00">_archive</text>
</a>
</g>
</g>
<!-- Node10&#45;&gt;Node11 -->
<g id="edge10_Node000010_Node000011" class="edge">
<title>Node10&#45;&gt;Node11</title>
<g id="a_edge10_Node000010_Node000011"><a xlink:title=" ">
<path fill="none" stroke="#63b8ff" d="M162.76,-168.26C144.35,-173.91 124.32,-180.06 107,-185.39"/>
<polygon fill="#63b8ff" stroke="#63b8ff" points="163.56,-171.37 172.09,-165.08 161.5,-164.68 163.56,-171.37"/>
</a>
</g>
</g>
<!-- Node12 -->
<g id="Node000012" class="node">
<title>Node12</title>
<g id="a_Node000012"><a xlink:href="../../d9/d06/class_slic3r_1_1_config_base.html#a22fbb1cc42e95a5ffa7c44b7a6575aad" target="_top" xlink:title=" ">
<polygon fill="#fff0f0" stroke="red" points="109.75,-165.5 12,-165.5 12,-135 109.75,-135 109.75,-165.5"/>
<text text-anchor="start" x="20" y="-152" font-family="Helvetica,sans-Serif" font-size="10.00">Slic3r::ConfigBase</text>
<text text-anchor="middle" x="60.88" y="-140.75" font-family="Helvetica,sans-Serif" font-size="10.00">::load_from_ini</text>
</a>
</g>
</g>
<!-- Node10&#45;&gt;Node12 -->
<g id="edge11_Node000010_Node000012" class="edge">
<title>Node10&#45;&gt;Node12</title>
<g id="a_edge11_Node000010_Node000012"><a xlink:title=" ">
<path fill="none" stroke="#63b8ff" d="M162.53,-150.25C145.24,-150.25 126.54,-150.25 110,-150.25"/>
<polygon fill="#63b8ff" stroke="#63b8ff" points="162.09,-153.75 172.09,-150.25 162.09,-146.75 162.09,-153.75"/>
</a>
</g>
</g>
<!-- Node14 -->
<g id="Node000014" class="node">
<title>Node14</title>
<g id="a_Node000014"><a xlink:href="../../d9/d06/class_slic3r_1_1_config_base.html#ab1658f20f02ad16004d63f20abc7632d" target="_top" xlink:title=" ">
<polygon fill="#fff0f0" stroke="red" points="115.38,-116.5 6.38,-116.5 6.38,-86 115.38,-86 115.38,-116.5"/>
<text text-anchor="start" x="14.38" y="-103" font-family="Helvetica,sans-Serif" font-size="10.00">Slic3r::ConfigBase</text>
<text text-anchor="middle" x="60.88" y="-91.75" font-family="Helvetica,sans-Serif" font-size="10.00">::load_from_ini_string</text>
</a>
</g>
</g>
<!-- Node10&#45;&gt;Node14 -->
<g id="edge12_Node000010_Node000014" class="edge">
<title>Node10&#45;&gt;Node14</title>
<g id="a_edge12_Node000010_Node000014"><a xlink:title=" ">
<path fill="none" stroke="#63b8ff" d="M162.61,-132.2C146.35,-127.2 128.84,-121.82 113.05,-116.97"/>
<polygon fill="#63b8ff" stroke="#63b8ff" points="161.5,-135.82 172.09,-135.42 163.56,-129.13 161.5,-135.82"/>
</a>
</g>
</g>
<!-- Node18&#45;&gt;Node9 -->
<g id="edge16_Node000018_Node000009" class="edge">
<title>Node18&#45;&gt;Node9</title>
<g id="a_edge16_Node000018_Node000009"><a xlink:title=" ">
<path fill="none" stroke="#63b8ff" d="M498.05,-70.13C482.47,-73.32 466.23,-76.65 451.38,-79.69"/>
<polygon fill="#63b8ff" stroke="#63b8ff" points="498.61,-73.38 507.71,-67.94 497.21,-66.52 498.61,-73.38"/>
</a>
</g>
</g>
<!-- Node19 -->
<g id="Node000019" class="node">
<title>Node19</title>
<g id="a_Node000019"><a xlink:href="../../de/db8/namespace_slic3r.html#a8b547af4df7d52f035ccc3e62af68b75" target="_top" xlink:title=" ">
<polygon fill="white" stroke="#666666" points="465,-48.5 323,-48.5 323,-18 465,-18 465,-48.5"/>
<text text-anchor="start" x="331" y="-35" font-family="Helvetica,sans-Serif" font-size="10.00">Slic3r::load_from_superslicer</text>
<text text-anchor="middle" x="394" y="-23.75" font-family="Helvetica,sans-Serif" font-size="10.00">_gcode_file</text>
</a>
</g>
</g>
<!-- Node18&#45;&gt;Node19 -->
<g id="edge17_Node000018_Node000019" class="edge">
<title>Node18&#45;&gt;Node19</title>
<g id="a_edge17_Node000018_Node000019"><a xlink:title=" ">
<path fill="none" stroke="#63b8ff" d="M498.03,-46.16C487.23,-44.8 476.11,-43.41 465.35,-42.06"/>
<polygon fill="#63b8ff" stroke="#63b8ff" points="497.35,-49.72 507.71,-47.49 498.22,-42.78 497.35,-49.72"/>
</a>
</g>
</g>
<!-- Node20 -->
<g id="Node000020" class="node">
<title>Node20</title>
<g id="a_Node000020"><a xlink:href="../../dc/d9a/class_slic3r_1_1_g_code_processor.html#a0c454fda2a57c28243a96b9070ec8656" target="_top" xlink:title=" ">
<polygon fill="white" stroke="#666666" points="287,-30.5 157.75,-30.5 157.75,0 287,0 287,-30.5"/>
<text text-anchor="start" x="165.75" y="-17" font-family="Helvetica,sans-Serif" font-size="10.00">Slic3r::GCodeProcessor</text>
<text text-anchor="middle" x="222.38" y="-5.75" font-family="Helvetica,sans-Serif" font-size="10.00">::apply_config_superslicer</text>
</a>
</g>
</g>
<!-- Node19&#45;&gt;Node20 -->
<g id="edge18_Node000019_Node000020" class="edge">
<title>Node19&#45;&gt;Node20</title>
<g id="a_edge18_Node000019_Node000020"><a xlink:title=" ">
<path fill="none" stroke="#63b8ff" d="M311.81,-24.63C303.61,-23.76 295.36,-22.89 287.38,-22.04"/>
<polygon fill="#63b8ff" stroke="#63b8ff" points="311.22,-28.2 321.54,-25.77 311.96,-21.24 311.22,-28.2"/>
</a>
</g>
</g>
<!-- Node20&#45;&gt;Node17 -->
<g id="edge19_Node000020_Node000017" class="edge">
<title>Node20&#45;&gt;Node17</title>
<g id="a_edge19_Node000020_Node000017"><a xlink:title=" ">
<path fill="none" stroke="#63b8ff" d="M146.7,-24.15C138.5,-25.12 130.22,-26.11 122.22,-27.06"/>
<polygon fill="#63b8ff" stroke="#63b8ff" points="146.9,-27.53 156.42,-22.87 146.08,-20.58 146.9,-27.53"/>
</a>
</g>
</g>
</g>
</svg>

<g id="navigator" transform="translate(0 0)" fill="#404254">
  <rect fill="#f2f5e9" fill-opacity="0.5" stroke="#606060" stroke-width=".5" x="0" y="0" width="60" height="60"/>
  <use id="zoomplus" xlink:href="#zoomPlus" x="17" y="9" onmousedown="handleZoom(evt,'in')"/>
  <use id="zoomminus" xlink:href="#zoomMin" x="42" y="9" onmousedown="handleZoom(evt,'out')"/>
  <use id="reset" xlink:href="#resetDef" x="30" y="36" onmousedown="handleReset()"/>
   <use id="arrowup" xlink:href="#arrowUp" x="0" y="0" onmousedown="handlePan(0,-1)"/>
  <use id="arrowright" xlink:href="#arrowRight" x="0" y="0" onmousedown="handlePan(1,0)"/>
  <use id="arrowdown" xlink:href="#arrowDown" x="0" y="0" onmousedown="handlePan(0,1)"/>
  <use id="arrowleft" xlink:href="#arrowLeft" x="0" y="0" onmousedown="handlePan(-1,0)"/>
</g>
<svg viewBox="0 0 15 15" width="100%" height="30px" preserveAspectRatio="xMaxYMin meet">
 <g id="arrow_out" transform="scale(0.3 0.3)">
  <a xlink:href="namespace_slic3r_afc155fb26ff39e88f9e0390496489c26_icgraph_org.svg" target="_base">
   <rect id="button" ry="5" rx="5" y="6" x="6" height="38" width="38"
        fill="#f2f5e9" fill-opacity="0.5" stroke="#606060" stroke-width="1.0"/>
   <path id="arrow"
     d="M 11.500037,31.436501 C 11.940474,20.09759 22.043105,11.32322 32.158766,21.979434 L 37.068811,17.246167 C 37.068811,17.246167 37.088388,32 37.088388,32 L 22.160133,31.978069 C 22.160133,31.978069 26.997745,27.140456 26.997745,27.140456 C 18.528582,18.264221 13.291696,25.230495 11.500037,31.436501 z"
     style="fill:#404040;"/>
  </a>
 </g>
</svg>

<style type='text/css'>
<![CDATA[
[data-mouse-over-selected='false'] { opacity: 0.7; }
[data-mouse-over-selected='true']  { opacity: 1.0; }
]]>
</style>
<script type="application/ecmascript"><![CDATA[
document.addEventListener('DOMContentLoaded', (event) => {
  highlightEdges();
  highlightAdjacentNodes();
});
]]></script>
</svg>
