<?xml version="1.0" encoding="UTF-8" standalone="no"?>
<!DOCTYPE svg PUBLIC "-//W3C//DTD SVG 1.1//EN"
 "http://www.w3.org/Graphics/SVG/1.1/DTD/svg11.dtd">
<!-- Generated by graphviz version 8.1.0 (20230707.0739)
 -->
<!-- Title: Slic3r::thick_polyline_to_extrusion_paths_2 Pages: 1 -->
<!--zoomable 241 -->

<svg id="main" version="1.1" xmlns="http://www.w3.org/2000/svg" xmlns:xlink="http://www.w3.org/1999/xlink" xml:space="preserve" onload="init(evt)">
<style type="text/css"><![CDATA[
.node, .edge {opacity: 0.7;}
.node.selected, .edge.selected {opacity: 1;}
.edge:hover path { stroke: red; }
.edge:hover polygon { stroke: red; fill: red; }
]]></style>

<defs>
  <circle id="rim" cx="0" cy="0" r="7"/>
  <circle id="rim2" cx="0" cy="0" r="3.5"/>
  <g id="zoomPlus">
    <use xlink:href="#rim" fill="#404040"><set attributeName="fill" to="#808080" begin="zoomplus.mouseover" end="zoomplus.mouseout"/></use>
    <path d="M-4,0h8M0,-4v8" fill="none" stroke="white" stroke-width="1.5" pointer-events="none"/>
  </g>
  <g id="zoomMin">
    <use xlink:href="#rim" fill="#404040"><set attributeName="fill" to="#808080" begin="zoomminus.mouseover" end="zoomminus.mouseout"/></use>
    <path d="M-4,0h8" fill="none" stroke="white" stroke-width="1.5" pointer-events="none"/>
  </g>
  <g id="arrowUp" transform="translate(30 24)">
    <use xlink:href="#rim"/>
    <path pointer-events="none" fill="none" stroke="white" stroke-width="1.5" d="M0,-3.0v7 M-2.5,-0.5L0,-3.0L2.5,-0.5"/>
  </g>
  <g id="arrowRight" transform="rotate(90) translate(36 -43)">
    <use xlink:href="#rim"/>
    <path pointer-events="none" fill="none" stroke="white" stroke-width="1.5" d="M0,-3.0v7 M-2.5,-0.5L0,-3.0L2.5,-0.5"/>
  </g>
  <g id="arrowDown" transform="rotate(180) translate(-30 -48)">
    <use xlink:href="#rim"/>
    <path pointer-events="none" fill="none" stroke="white" stroke-width="1.5" d="M0,-3.0v7 M-2.5,-0.5L0,-3.0L2.5,-0.5"/>
  </g>
  <g id="arrowLeft" transform="rotate(270) translate(-36 17)">
    <use xlink:href="#rim"/>
    <path pointer-events="none" fill="none" stroke="white" stroke-width="1.5" d="M0,-3.0v7 M-2.5,-0.5L0,-3.0L2.5,-0.5"/>
  </g>
  <g id="resetDef">
    <use xlink:href="#rim2" fill="#404040"><set attributeName="fill" to="#808080" begin="reset.mouseover" end="reset.mouseout"/></use>
  </g>
</defs>
<script type="application/ecmascript">
var viewWidth = 884;
var viewHeight = 241;
var sectionId = 'dynsection-1618';
</script>
<script type="application/ecmascript" xlink:href="../../svg.min.js"/>
<svg id="graph" class="graph">
<g id="viewport">
<title>Slic3r::thick_polyline_to_extrusion_paths_2</title>
<!-- Node1 -->
<g id="Node000001" class="node">
<title>Node1</title>
<g id="a_Node000001"><a xlink:title=" ">
<polygon fill="#999999" stroke="#666666" points="876,-129.88 761.75,-129.88 761.75,-99.38 876,-99.38 876,-129.88"/>
<text text-anchor="start" x="769.75" y="-116.38" font-family="Helvetica,sans-Serif" font-size="10.00">Slic3r::thick_polyline</text>
<text text-anchor="middle" x="818.88" y="-105.12" font-family="Helvetica,sans-Serif" font-size="10.00">_to_extrusion_paths_2</text>
</a>
</g>
</g>
<!-- Node2 -->
<g id="Node000002" class="node">
<title>Node2</title>
<g id="a_Node000002"><a xlink:href="../../de/db8/namespace_slic3r.html#a38ccfdd19a284d4fec3addf3565ee881" target="_top" xlink:title=" ">
<polygon fill="white" stroke="#666666" points="725.75,-124.25 616.75,-124.25 616.75,-105 725.75,-105 725.75,-124.25"/>
<text text-anchor="middle" x="671.25" y="-110.75" font-family="Helvetica,sans-Serif" font-size="10.00">Slic3r::variable_width</text>
</a>
</g>
</g>
<!-- Node1&#45;&gt;Node2 -->
<g id="edge1_Node000001_Node000002" class="edge">
<title>Node1&#45;&gt;Node2</title>
<g id="a_edge1_Node000001_Node000002"><a xlink:title=" ">
<path fill="none" stroke="#63b8ff" d="M750.76,-114.62C742.47,-114.62 734.07,-114.62 726.01,-114.62"/>
<polygon fill="#63b8ff" stroke="#63b8ff" points="750.57,-118.13 760.57,-114.62 750.57,-111.13 750.57,-118.13"/>
</a>
</g>
</g>
<!-- Node3 -->
<g id="Node000003" class="node">
<title>Node3</title>
<g id="a_Node000003"><a xlink:href="../../d7/dcc/class_slic3r_1_1_fill.html#a69b8c4cb3a2b432b36ca4bb065825658" target="_top" xlink:title=" ">
<polygon fill="white" stroke="#666666" points="560.5,-232.88 462,-232.88 462,-202.38 560.5,-202.38 560.5,-232.88"/>
<text text-anchor="start" x="470" y="-219.38" font-family="Helvetica,sans-Serif" font-size="10.00">Slic3r::Fill::fill</text>
<text text-anchor="middle" x="511.25" y="-208.12" font-family="Helvetica,sans-Serif" font-size="10.00">_surface_extrusion</text>
</a>
</g>
</g>
<!-- Node2&#45;&gt;Node3 -->
<g id="edge2_Node000002_Node000003" class="edge">
<title>Node2&#45;&gt;Node3</title>
<g id="a_edge2_Node000002_Node000003"><a xlink:title=" ">
<path fill="none" stroke="#63b8ff" d="M653.86,-132.28C636.95,-149.63 609.12,-175.87 580.75,-192.62 574.54,-196.29 567.69,-199.57 560.81,-202.44"/>
<polygon fill="#63b8ff" stroke="#63b8ff" points="655.86,-135.21 660.24,-125.56 650.8,-130.37 655.86,-135.21"/>
</a>
</g>
</g>
<!-- Node4 -->
<g id="Node000004" class="node">
<title>Node4</title>
<g id="a_Node000004"><a xlink:href="../../d3/d4c/class_slic3r_1_1_fill_concentric_internal.html#a7183a28e3f7be9040ce628217920eb7d" target="_top" xlink:title=" ">
<polygon fill="white" stroke="#666666" points="580.75,-183.88 441.75,-183.88 441.75,-153.38 580.75,-153.38 580.75,-183.88"/>
<text text-anchor="start" x="449.75" y="-170.38" font-family="Helvetica,sans-Serif" font-size="10.00">Slic3r::FillConcentricInternal</text>
<text text-anchor="middle" x="511.25" y="-159.12" font-family="Helvetica,sans-Serif" font-size="10.00">::fill_surface_extrusion</text>
</a>
</g>
</g>
<!-- Node2&#45;&gt;Node4 -->
<g id="edge3_Node000002_Node000004" class="edge">
<title>Node2&#45;&gt;Node4</title>
<g id="a_edge3_Node000002_Node000004"><a xlink:title=" ">
<path fill="none" stroke="#63b8ff" d="M630.59,-128.18C608.59,-135.7 581.13,-145.08 558.21,-152.92"/>
<polygon fill="#63b8ff" stroke="#63b8ff" points="631.57,-131.2 639.9,-124.66 629.31,-124.58 631.57,-131.2"/>
</a>
</g>
</g>
<!-- Node5 -->
<g id="Node000005" class="node">
<title>Node5</title>
<g id="a_Node000005"><a xlink:href="../../de/d9b/class_slic3r_1_1_fill_monotonic_line_w_gap_fill.html#a620d085638fa67eae609928cdd27c9e5" target="_top" xlink:title=" ">
<polygon fill="white" stroke="#666666" points="572.5,-135.5 450,-135.5 450,-93.75 572.5,-93.75 572.5,-135.5"/>
<text text-anchor="start" x="458" y="-122" font-family="Helvetica,sans-Serif" font-size="10.00">Slic3r::FillMonotonicLine</text>
<text text-anchor="start" x="458" y="-110.75" font-family="Helvetica,sans-Serif" font-size="10.00">WGapFill::fill_surface</text>
<text text-anchor="middle" x="511.25" y="-99.5" font-family="Helvetica,sans-Serif" font-size="10.00">_extrusion</text>
</a>
</g>
</g>
<!-- Node2&#45;&gt;Node5 -->
<g id="edge4_Node000002_Node000005" class="edge">
<title>Node2&#45;&gt;Node5</title>
<g id="a_edge4_Node000002_Node000005"><a xlink:title=" ">
<path fill="none" stroke="#63b8ff" d="M605.33,-114.62C594.64,-114.62 583.58,-114.62 572.99,-114.62"/>
<polygon fill="#63b8ff" stroke="#63b8ff" points="605.32,-118.13 615.32,-114.62 605.32,-111.13 605.32,-118.13"/>
</a>
</g>
</g>
<!-- Node6 -->
<g id="Node000006" class="node">
<title>Node6</title>
<g id="a_Node000006"><a xlink:href="../../d0/dbd/class_slic3r_1_1_perimeter_generator.html#aa42c8a7c9965012370599f25e0a0be26" target="_top" xlink:title=" ">
<polygon fill="white" stroke="#666666" points="405.75,-52.88 274.25,-52.88 274.25,-22.38 405.75,-22.38 405.75,-52.88"/>
<text text-anchor="start" x="282.25" y="-39.38" font-family="Helvetica,sans-Serif" font-size="10.00">Slic3r::PerimeterGenerator</text>
<text text-anchor="middle" x="340" y="-28.12" font-family="Helvetica,sans-Serif" font-size="10.00">::process_classic</text>
</a>
</g>
</g>
<!-- Node2&#45;&gt;Node6 -->
<g id="edge5_Node000002_Node000006" class="edge">
<title>Node2&#45;&gt;Node6</title>
<g id="a_edge5_Node000002_Node000006"><a xlink:title=" ">
<path fill="none" stroke="#63b8ff" d="M633.09,-100.97C617.13,-95.41 598.17,-89.23 580.75,-84.62 522.32,-69.17 454.65,-56.36 406.13,-48.04"/>
<polygon fill="#63b8ff" stroke="#63b8ff" points="631.51,-104.47 642.11,-104.5 633.85,-97.87 631.51,-104.47"/>
</a>
</g>
</g>
<!-- Node9 -->
<g id="Node000009" class="node">
<title>Node9</title>
<g id="a_Node000009"><a xlink:href="../../de/db8/namespace_slic3r.html#a900a01e6310ef7cdeb770d98cfdf6f2f" target="_top" xlink:title=" ">
<polygon fill="white" stroke="#666666" points="566.5,-19.25 456,-19.25 456,0 566.5,0 566.5,-19.25"/>
<text text-anchor="middle" x="511.25" y="-5.75" font-family="Helvetica,sans-Serif" font-size="10.00">Slic3r::traverse_loops</text>
</a>
</g>
</g>
<!-- Node2&#45;&gt;Node9 -->
<g id="edge8_Node000002_Node000009" class="edge">
<title>Node2&#45;&gt;Node9</title>
<g id="a_edge8_Node000002_Node000009"><a xlink:title=" ">
<path fill="none" stroke="#63b8ff" d="M647.89,-98.29C629.95,-85.33 604,-66.92 580.75,-51.62 563.5,-40.28 543.3,-28.02 529.33,-19.69"/>
<polygon fill="#63b8ff" stroke="#63b8ff" points="645.34,-101.49 655.49,-104.53 649.45,-95.82 645.34,-101.49"/>
</a>
</g>
</g>
<!-- Node7 -->
<g id="Node000007" class="node">
<title>Node7</title>
<g id="a_Node000007"><a xlink:href="../../dd/d90/class_slic3r_1_1_layer_region.html#a9ecbd4a88f9efefbfbcc162577c8f288" target="_top" xlink:title=" ">
<polygon fill="white" stroke="#666666" points="238.25,-52.88 136.75,-52.88 136.75,-22.38 238.25,-22.38 238.25,-52.88"/>
<text text-anchor="start" x="144.75" y="-39.38" font-family="Helvetica,sans-Serif" font-size="10.00">Slic3r::LayerRegion</text>
<text text-anchor="middle" x="187.5" y="-28.12" font-family="Helvetica,sans-Serif" font-size="10.00">::make_perimeters</text>
</a>
</g>
</g>
<!-- Node6&#45;&gt;Node7 -->
<g id="edge6_Node000006_Node000007" class="edge">
<title>Node6&#45;&gt;Node7</title>
<g id="a_edge6_Node000006_Node000007"><a xlink:title=" ">
<path fill="none" stroke="#63b8ff" d="M262.91,-37.62C254.56,-37.62 246.22,-37.62 238.31,-37.62"/>
<polygon fill="#63b8ff" stroke="#63b8ff" points="262.86,-41.13 272.86,-37.62 262.86,-34.13 262.86,-41.13"/>
</a>
</g>
</g>
<!-- Node8 -->
<g id="Node000008" class="node">
<title>Node8</title>
<g id="a_Node000008"><a xlink:href="../../d1/d68/class_slic3r_1_1_layer.html#ade692e794d3a272a9b6985022eea64e9" target="_top" xlink:title=" ">
<polygon fill="white" stroke="#666666" points="100.75,-52.88 0,-52.88 0,-22.38 100.75,-22.38 100.75,-52.88"/>
<text text-anchor="start" x="8" y="-39.38" font-family="Helvetica,sans-Serif" font-size="10.00">Slic3r::Layer::make</text>
<text text-anchor="middle" x="50.38" y="-28.12" font-family="Helvetica,sans-Serif" font-size="10.00">_perimeters</text>
</a>
</g>
</g>
<!-- Node7&#45;&gt;Node8 -->
<g id="edge7_Node000007_Node000008" class="edge">
<title>Node7&#45;&gt;Node8</title>
<g id="a_edge7_Node000007_Node000008"><a xlink:title=" ">
<path fill="none" stroke="#63b8ff" d="M125.82,-37.62C117.55,-37.62 109.15,-37.62 101.1,-37.62"/>
<polygon fill="#63b8ff" stroke="#63b8ff" points="125.57,-41.13 135.57,-37.62 125.57,-34.13 125.57,-41.13"/>
</a>
</g>
</g>
<!-- Node9&#45;&gt;Node6 -->
<g id="edge9_Node000009_Node000006" class="edge">
<title>Node9&#45;&gt;Node6</title>
<g id="a_edge9_Node000009_Node000006"><a xlink:title=" ">
<path fill="none" stroke="#63b8ff" d="M445.16,-20.39C432.33,-22.52 418.85,-24.75 406.02,-26.87"/>
<polygon fill="#63b8ff" stroke="#63b8ff" points="445.47,-23.72 454.77,-18.64 444.33,-16.82 445.47,-23.72"/>
</a>
</g>
</g>
<!-- Node9&#45;&gt;Node9 -->
<g id="edge10_Node000009_Node000009" class="edge">
<title>Node9&#45;&gt;Node9</title>
<g id="a_edge10_Node000009_Node000009"><a xlink:title=" ">
<path fill="none" stroke="#63b8ff" d="M540.43,-29.63C537.68,-34.04 527.95,-37.25 511.25,-37.25 483.12,-37.25 474.78,-28.15 486.2,-19.54"/>
<polygon fill="#63b8ff" stroke="#63b8ff" points="543.33,-28.47 536.3,-20.54 536.85,-31.12 543.33,-28.47"/>
</a>
</g>
</g>
</g>
</svg>

<g id="navigator" transform="translate(0 0)" fill="#404254">
  <rect fill="#f2f5e9" fill-opacity="0.5" stroke="#606060" stroke-width=".5" x="0" y="0" width="60" height="60"/>
  <use id="zoomplus" xlink:href="#zoomPlus" x="17" y="9" onmousedown="handleZoom(evt,'in')"/>
  <use id="zoomminus" xlink:href="#zoomMin" x="42" y="9" onmousedown="handleZoom(evt,'out')"/>
  <use id="reset" xlink:href="#resetDef" x="30" y="36" onmousedown="handleReset()"/>
   <use id="arrowup" xlink:href="#arrowUp" x="0" y="0" onmousedown="handlePan(0,-1)"/>
  <use id="arrowright" xlink:href="#arrowRight" x="0" y="0" onmousedown="handlePan(1,0)"/>
  <use id="arrowdown" xlink:href="#arrowDown" x="0" y="0" onmousedown="handlePan(0,1)"/>
  <use id="arrowleft" xlink:href="#arrowLeft" x="0" y="0" onmousedown="handlePan(-1,0)"/>
</g>
<svg viewBox="0 0 15 15" width="100%" height="30px" preserveAspectRatio="xMaxYMin meet">
 <g id="arrow_out" transform="scale(0.3 0.3)">
  <a xlink:href="namespace_slic3r_a56c3f9ea1ff5654ade62011b89d38d2f_icgraph_org.svg" target="_base">
   <rect id="button" ry="5" rx="5" y="6" x="6" height="38" width="38"
        fill="#f2f5e9" fill-opacity="0.5" stroke="#606060" stroke-width="1.0"/>
   <path id="arrow"
     d="M 11.500037,31.436501 C 11.940474,20.09759 22.043105,11.32322 32.158766,21.979434 L 37.068811,17.246167 C 37.068811,17.246167 37.088388,32 37.088388,32 L 22.160133,31.978069 C 22.160133,31.978069 26.997745,27.140456 26.997745,27.140456 C 18.528582,18.264221 13.291696,25.230495 11.500037,31.436501 z"
     style="fill:#404040;"/>
  </a>
 </g>
</svg>

<style type='text/css'>
<![CDATA[
[data-mouse-over-selected='false'] { opacity: 0.7; }
[data-mouse-over-selected='true']  { opacity: 1.0; }
]]>
</style>
<script type="application/ecmascript"><![CDATA[
document.addEventListener('DOMContentLoaded', (event) => {
  highlightEdges();
  highlightAdjacentNodes();
});
]]></script>
</svg>
