<?xml version="1.0" encoding="UTF-8" standalone="no"?>
<!DOCTYPE svg PUBLIC "-//W3C//DTD SVG 1.1//EN"
 "http://www.w3.org/Graphics/SVG/1.1/DTD/svg11.dtd">
<!-- Generated by graphviz version 8.1.0 (20230707.0739)
 -->
<!-- Title: Slic3r::export_intersections_to_svg Pages: 1 -->
<svg width="799pt" height="337pt"
 viewBox="0.00 0.00 799.00 336.88" xmlns="http://www.w3.org/2000/svg" xmlns:xlink="http://www.w3.org/1999/xlink">
<g id="graph0" class="graph" transform="scale(1 1) rotate(0) translate(4 332.88)">
<title>Slic3r::export_intersections_to_svg</title>
<!-- Node1 -->
<g id="Node000001" class="node">
<title>Node1</title>
<g id="a_Node000001"><a xlink:title=" ">
<polygon fill="#999999" stroke="#666666" points="134.5,-214.5 0,-214.5 0,-184 134.5,-184 134.5,-214.5"/>
<text text-anchor="start" x="8" y="-201" font-family="Helvetica,sans-Serif" font-size="10.00">Slic3r::export_intersections</text>
<text text-anchor="middle" x="67.25" y="-189.75" font-family="Helvetica,sans-Serif" font-size="10.00">_to_svg</text>
</a>
</g>
</g>
<!-- Node2 -->
<g id="Node000002" class="node">
<title>Node2</title>
<g id="a_Node000002"><a xlink:href="../../db/dcf/class_slic3r_1_1_s_v_g.html#aaa8469db0a1362ee2ca8b56dfbb5d9c8" target="_top" xlink:title=" ">
<polygon fill="white" stroke="#666666" points="284.38,-328.88 185.12,-328.88 185.12,-309.62 284.38,-309.62 284.38,-328.88"/>
<text text-anchor="middle" x="234.75" y="-315.38" font-family="Helvetica,sans-Serif" font-size="10.00">Slic3r::SVG::Close</text>
</a>
</g>
</g>
<!-- Node1&#45;&gt;Node2 -->
<g id="edge1_Node000001_Node000002" class="edge">
<title>Node1&#45;&gt;Node2</title>
<g id="a_edge1_Node000001_Node000002"><a xlink:title=" ">
<path fill="none" stroke="#63b8ff" d="M79.64,-214.84C96.84,-237.26 131.57,-278.41 170.5,-301.25 172.83,-302.62 175.26,-303.88 177.77,-305.06"/>
<polygon fill="#63b8ff" stroke="#63b8ff" points="176.11,-308.57 186.69,-309.14 178.77,-302.1 176.11,-308.57"/>
</a>
</g>
</g>
<!-- Node3 -->
<g id="Node000003" class="node">
<title>Node3</title>
<g id="a_Node000003"><a xlink:href="../../db/dcf/class_slic3r_1_1_s_v_g.html#a8008d88fed50359e749596f777a37428" target="_top" xlink:title=" ">
<polygon fill="white" stroke="#666666" points="282.12,-291.88 187.38,-291.88 187.38,-272.62 282.12,-272.62 282.12,-291.88"/>
<text text-anchor="middle" x="234.75" y="-278.38" font-family="Helvetica,sans-Serif" font-size="10.00">Slic3r::SVG::draw</text>
</a>
</g>
</g>
<!-- Node1&#45;&gt;Node3 -->
<g id="edge2_Node000001_Node000003" class="edge">
<title>Node1&#45;&gt;Node3</title>
<g id="a_edge2_Node000001_Node000003"><a xlink:title=" ">
<path fill="none" stroke="#63b8ff" d="M88.78,-214.83C108.74,-229.35 140.37,-250.73 170.5,-264.25 174.1,-265.86 177.87,-267.37 181.72,-268.77"/>
<polygon fill="#63b8ff" stroke="#63b8ff" points="180.38,-272.34 190.97,-272.22 182.61,-265.71 180.38,-272.34"/>
</a>
</g>
</g>
<!-- Node7 -->
<g id="Node000007" class="node">
<title>Node7</title>
<g id="a_Node000007"><a xlink:href="../../db/dcf/class_slic3r_1_1_s_v_g.html#ab8aabe32cf369085191a074c1052ca54" target="_top" xlink:title=" ">
<polygon fill="white" stroke="#666666" points="299,-236.88 170.5,-236.88 170.5,-217.62 299,-217.62 299,-236.88"/>
<text text-anchor="middle" x="234.75" y="-223.38" font-family="Helvetica,sans-Serif" font-size="10.00">Slic3r::SVG::draw_outline</text>
</a>
</g>
</g>
<!-- Node1&#45;&gt;Node7 -->
<g id="edge8_Node000001_Node000007" class="edge">
<title>Node1&#45;&gt;Node7</title>
<g id="a_edge8_Node000001_Node000007"><a xlink:title=" ">
<path fill="none" stroke="#63b8ff" d="M134.61,-210.48C144.09,-212.08 153.86,-213.73 163.41,-215.35"/>
<polygon fill="#63b8ff" stroke="#63b8ff" points="162.62,-218.93 173.06,-217.15 163.78,-212.03 162.62,-218.93"/>
</a>
</g>
</g>
<!-- Node8 -->
<g id="Node000008" class="node">
<title>Node8</title>
<g id="a_Node000008"><a xlink:href="../../de/db8/namespace_slic3r.html#a6e3ba75aef7600dbb0a294a47d88ecb8" target="_top" xlink:title=" ">
<polygon fill="white" stroke="#666666" points="283.62,-181.88 185.88,-181.88 185.88,-162.62 283.62,-162.62 283.62,-181.88"/>
<text text-anchor="middle" x="234.75" y="-168.38" font-family="Helvetica,sans-Serif" font-size="10.00">Slic3r::get_extents</text>
</a>
</g>
</g>
<!-- Node1&#45;&gt;Node8 -->
<g id="edge10_Node000001_Node000008" class="edge">
<title>Node1&#45;&gt;Node8</title>
<g id="a_edge10_Node000001_Node000008"><a xlink:title=" ">
<path fill="none" stroke="#63b8ff" d="M134.61,-188.42C147.89,-186.26 161.76,-184 174.76,-181.87"/>
<polygon fill="#63b8ff" stroke="#63b8ff" points="175.15,-185.19 184.46,-180.13 174.03,-178.28 175.15,-185.19"/>
</a>
</g>
</g>
<!-- Node9 -->
<g id="Node000009" class="node">
<title>Node9</title>
<g id="a_Node000009"><a xlink:href="../../de/db8/namespace_slic3r.html#a59f3fa35e6f1b18cd26ffffb33a04d96" target="_top" xlink:title=" ">
<polygon fill="white" stroke="#666666" points="283.25,-144.5 186.25,-144.5 186.25,-114 283.25,-114 283.25,-144.5"/>
<text text-anchor="start" x="194.25" y="-131" font-family="Helvetica,sans-Serif" font-size="10.00">Slic3r::intersecting</text>
<text text-anchor="middle" x="234.75" y="-119.75" font-family="Helvetica,sans-Serif" font-size="10.00">_edges</text>
</a>
</g>
</g>
<!-- Node1&#45;&gt;Node9 -->
<g id="edge12_Node000001_Node000009" class="edge">
<title>Node1&#45;&gt;Node9</title>
<g id="a_edge12_Node000001_Node000009"><a xlink:title=" ">
<path fill="none" stroke="#63b8ff" d="M101.65,-183.61C121.52,-174.46 147.3,-162.86 170.5,-153.25 173.97,-151.81 177.56,-150.36 181.18,-148.92"/>
<polygon fill="#63b8ff" stroke="#63b8ff" points="182.39,-151.81 190.42,-144.91 179.84,-145.3 182.39,-151.81"/>
</a>
</g>
</g>
<!-- Node15 -->
<g id="Node000015" class="node">
<title>Node15</title>
<g id="a_Node000015"><a xlink:href="../../de/db8/namespace_slic3r.html#a37166e144522fceee41e6d8ed8245315" target="_top" xlink:title=" ">
<polygon fill="white" stroke="#666666" points="277.62,-89.88 191.88,-89.88 191.88,-70.62 277.62,-70.62 277.62,-89.88"/>
<text text-anchor="middle" x="234.75" y="-76.38" font-family="Helvetica,sans-Serif" font-size="10.00">Slic3r::union_ex</text>
</a>
</g>
</g>
<!-- Node1&#45;&gt;Node15 -->
<g id="edge20_Node000001_Node000015" class="edge">
<title>Node1&#45;&gt;Node15</title>
<g id="a_edge20_Node000001_Node000015"><a xlink:title=" ">
<path fill="none" stroke="#63b8ff" d="M81.74,-183.7C100.09,-163.36 134.75,-127.66 170.5,-105.25 177.03,-101.16 184.34,-97.53 191.61,-94.39"/>
<polygon fill="#63b8ff" stroke="#63b8ff" points="192.81,-97.28 200.77,-90.28 190.18,-90.79 192.81,-97.28"/>
</a>
</g>
</g>
<!-- Node4 -->
<g id="Node000004" class="node">
<title>Node4</title>
<g id="a_Node000004"><a xlink:href="../../db/dcf/class_slic3r_1_1_s_v_g.html#a8993c145ff3851ce687e72829774d235" target="_top" xlink:title=" ">
<polygon fill="white" stroke="#666666" points="623.88,-297.5 520.88,-297.5 520.88,-267 623.88,-267 623.88,-297.5"/>
<text text-anchor="start" x="528.88" y="-284" font-family="Helvetica,sans-Serif" font-size="10.00">Slic3r::SVG::to_svg</text>
<text text-anchor="middle" x="572.38" y="-272.75" font-family="Helvetica,sans-Serif" font-size="10.00">_coord</text>
</a>
</g>
</g>
<!-- Node3&#45;&gt;Node4 -->
<g id="edge3_Node000003_Node000004" class="edge">
<title>Node3&#45;&gt;Node4</title>
<g id="a_edge3_Node000003_Node000004"><a xlink:title=" ">
<path fill="none" stroke="#63b8ff" d="M278.97,-292.37C296.29,-295.93 316.49,-299.49 335,-301.25 391.19,-306.58 405.76,-306.1 462,-301.25 477.6,-299.9 494.32,-297.5 509.87,-294.84"/>
<polygon fill="#63b8ff" stroke="#63b8ff" points="510.18,-298.16 519.42,-292.97 508.96,-291.27 510.18,-298.16"/>
</a>
</g>
</g>
<!-- Node5 -->
<g id="Node000005" class="node">
<title>Node5</title>
<g id="a_Node000005"><a xlink:href="../../db/dcf/class_slic3r_1_1_s_v_g.html#a725409d4f2d8b05091f250f678800dbd" target="_top" xlink:title=" ">
<polygon fill="white" stroke="#666666" points="455.25,-291.88 341.75,-291.88 341.75,-272.62 455.25,-272.62 455.25,-291.88"/>
<text text-anchor="middle" x="398.5" y="-278.38" font-family="Helvetica,sans-Serif" font-size="10.00">Slic3r::SVG::to_svg_x</text>
</a>
</g>
</g>
<!-- Node3&#45;&gt;Node5 -->
<g id="edge4_Node000003_Node000005" class="edge">
<title>Node3&#45;&gt;Node5</title>
<g id="a_edge4_Node000003_Node000005"><a xlink:title=" ">
<path fill="none" stroke="#63b8ff" d="M282.53,-282.25C297.47,-282.25 314.3,-282.25 330.39,-282.25"/>
<polygon fill="#63b8ff" stroke="#63b8ff" points="330.37,-285.75 340.37,-282.25 330.37,-278.75 330.37,-285.75"/>
</a>
</g>
</g>
<!-- Node6 -->
<g id="Node000006" class="node">
<title>Node6</title>
<g id="a_Node000006"><a xlink:href="../../db/dcf/class_slic3r_1_1_s_v_g.html#a404d56de42cea06fdf005043b2d99d0c" target="_top" xlink:title=" ">
<polygon fill="white" stroke="#666666" points="455.25,-254.88 341.75,-254.88 341.75,-235.62 455.25,-235.62 455.25,-254.88"/>
<text text-anchor="middle" x="398.5" y="-241.38" font-family="Helvetica,sans-Serif" font-size="10.00">Slic3r::SVG::to_svg_y</text>
</a>
</g>
</g>
<!-- Node3&#45;&gt;Node6 -->
<g id="edge6_Node000003_Node000006" class="edge">
<title>Node3&#45;&gt;Node6</title>
<g id="a_edge6_Node000003_Node000006"><a xlink:title=" ">
<path fill="none" stroke="#63b8ff" d="M279.95,-272.14C299.38,-267.69 322.4,-262.43 342.9,-257.74"/>
<polygon fill="#63b8ff" stroke="#63b8ff" points="343.39,-260.99 352.35,-255.35 341.83,-254.17 343.39,-260.99"/>
</a>
</g>
</g>
<!-- Node5&#45;&gt;Node4 -->
<g id="edge5_Node000005_Node000004" class="edge">
<title>Node5&#45;&gt;Node4</title>
<g id="a_edge5_Node000005_Node000004"><a xlink:title=" ">
<path fill="none" stroke="#63b8ff" d="M455.3,-282.25C472.67,-282.25 491.93,-282.25 509.68,-282.25"/>
<polygon fill="#63b8ff" stroke="#63b8ff" points="509.5,-285.75 519.5,-282.25 509.5,-278.75 509.5,-285.75"/>
</a>
</g>
</g>
<!-- Node6&#45;&gt;Node4 -->
<g id="edge7_Node000006_Node000004" class="edge">
<title>Node6&#45;&gt;Node4</title>
<g id="a_edge7_Node000006_Node000004"><a xlink:title=" ">
<path fill="none" stroke="#63b8ff" d="M446.47,-255.36C466.02,-259.57 488.98,-264.51 509.85,-269.01"/>
<polygon fill="#63b8ff" stroke="#63b8ff" points="509.04,-272.63 519.55,-271.31 510.51,-265.78 509.04,-272.63"/>
</a>
</g>
</g>
<!-- Node7&#45;&gt;Node7 -->
<g id="edge9_Node000007_Node000007" class="edge">
<title>Node7&#45;&gt;Node7</title>
<g id="a_edge9_Node000007_Node000007"><a xlink:title=" ">
<path fill="none" stroke="#63b8ff" d="M209.11,-237.16C197.42,-245.77 205.97,-254.88 234.75,-254.88 251.84,-254.88 261.8,-251.67 264.62,-247.26"/>
<polygon fill="#63b8ff" stroke="#63b8ff" points="267.48,-246.03 260.39,-238.16 261.02,-248.74 267.48,-246.03"/>
</a>
</g>
</g>
<!-- Node8&#45;&gt;Node8 -->
<g id="edge11_Node000008_Node000008" class="edge">
<title>Node8&#45;&gt;Node8</title>
<g id="a_edge11_Node000008_Node000008"><a xlink:title=" ">
<path fill="none" stroke="#63b8ff" d="M209.11,-182.16C197.42,-190.77 205.97,-199.88 234.75,-199.88 251.84,-199.88 261.8,-196.67 264.62,-192.26"/>
<polygon fill="#63b8ff" stroke="#63b8ff" points="267.48,-191.03 260.39,-183.16 261.02,-193.74 267.48,-191.03"/>
</a>
</g>
</g>
<!-- Node10 -->
<g id="Node000010" class="node">
<title>Node10</title>
<g id="a_Node000010"><a xlink:href="../../de/db8/namespace_slic3r.html#a7fbf8086aa6866b37be593872e09e169" target="_top" xlink:title="A set of equidistant values starting from &#39;start&#39; (inclusive), ending in the closest multiple of &#39;str...">
<polygon fill="white" stroke="#666666" points="429.75,-199.88 367.25,-199.88 367.25,-180.62 429.75,-180.62 429.75,-199.88"/>
<text text-anchor="middle" x="398.5" y="-186.38" font-family="Helvetica,sans-Serif" font-size="10.00">Slic3r::grid</text>
</a>
</g>
</g>
<!-- Node9&#45;&gt;Node10 -->
<g id="edge13_Node000009_Node000010" class="edge">
<title>Node9&#45;&gt;Node10</title>
<g id="a_edge13_Node000009_Node000010"><a xlink:title=" ">
<path fill="none" stroke="#63b8ff" d="M278.86,-144.94C285.64,-147.6 292.55,-150.42 299,-153.25 315.38,-160.43 318.38,-164.62 335,-171.25 341.87,-173.99 349.29,-176.56 356.53,-178.88"/>
<polygon fill="#63b8ff" stroke="#63b8ff" points="355.36,-182.49 365.95,-182.08 357.42,-175.8 355.36,-182.49"/>
</a>
</g>
</g>
<!-- Node11 -->
<g id="Node000011" class="node">
<title>Node11</title>
<g id="a_Node000011"><a xlink:href="../../dc/d28/class_slic3r_1_1_bounding_box_base.html#af05bfd6f2d56108f60099c6bf5c114ab" target="_top" xlink:title=" ">
<polygon fill="white" stroke="#666666" points="462,-113.5 335,-113.5 335,-83 462,-83 462,-113.5"/>
<text text-anchor="start" x="343" y="-100" font-family="Helvetica,sans-Serif" font-size="10.00">Slic3r::BoundingBoxBase</text>
<text text-anchor="middle" x="398.5" y="-88.75" font-family="Helvetica,sans-Serif" font-size="10.00">::merge</text>
</a>
</g>
</g>
<!-- Node9&#45;&gt;Node11 -->
<g id="edge14_Node000009_Node000011" class="edge">
<title>Node9&#45;&gt;Node11</title>
<g id="a_edge14_Node000009_Node000011"><a xlink:title=" ">
<path fill="none" stroke="#63b8ff" d="M283.41,-120.12C296.18,-117.67 310.29,-114.96 324.11,-112.32"/>
<polygon fill="#63b8ff" stroke="#63b8ff" points="324.42,-115.63 333.59,-110.31 323.11,-108.75 324.42,-115.63"/>
</a>
</g>
</g>
<!-- Node14 -->
<g id="Node000014" class="node">
<title>Node14</title>
<g id="a_Node000014"><a xlink:href="../../dc/d28/class_slic3r_1_1_bounding_box_base.html#ae6d741e6492db3730f8548a789c3bce2" target="_top" xlink:title=" ">
<polygon fill="white" stroke="#666666" points="462,-162.5 335,-162.5 335,-132 462,-132 462,-162.5"/>
<text text-anchor="start" x="343" y="-149" font-family="Helvetica,sans-Serif" font-size="10.00">Slic3r::BoundingBoxBase</text>
<text text-anchor="middle" x="398.5" y="-137.75" font-family="Helvetica,sans-Serif" font-size="10.00">::offset</text>
</a>
</g>
</g>
<!-- Node9&#45;&gt;Node14 -->
<g id="edge17_Node000009_Node000014" class="edge">
<title>Node9&#45;&gt;Node14</title>
<g id="a_edge17_Node000009_Node000014"><a xlink:title=" ">
<path fill="none" stroke="#63b8ff" d="M283.41,-134.55C296.05,-135.96 310.01,-137.51 323.7,-139.04"/>
<polygon fill="#63b8ff" stroke="#63b8ff" points="323.26,-142.62 333.59,-140.25 324.04,-135.66 323.26,-142.62"/>
</a>
</g>
</g>
<!-- Node12 -->
<g id="Node000012" class="node">
<title>Node12</title>
<g id="a_Node000012"><a xlink:href="../../df/db1/math_8h.html#a5083c48fbfb60dd70808789479f4db53" target="_top" xlink:title=" ">
<polygon fill="white" stroke="#666666" points="589.75,-113.88 555,-113.88 555,-94.62 589.75,-94.62 589.75,-113.88"/>
<text text-anchor="middle" x="572.38" y="-100.38" font-family="Helvetica,sans-Serif" font-size="10.00">max</text>
</a>
</g>
</g>
<!-- Node11&#45;&gt;Node12 -->
<g id="edge15_Node000011_Node000012" class="edge">
<title>Node11&#45;&gt;Node12</title>
<g id="a_edge15_Node000011_Node000012"><a xlink:title=" ">
<path fill="none" stroke="#63b8ff" d="M462.04,-100.43C490.19,-101.42 521.96,-102.53 543.98,-103.29"/>
<polygon fill="#63b8ff" stroke="#63b8ff" points="543.7,-106.82 553.82,-103.67 543.95,-99.83 543.7,-106.82"/>
</a>
</g>
</g>
<!-- Node13 -->
<g id="Node000013" class="node">
<title>Node13</title>
<g id="a_Node000013"><a xlink:href="../../df/db1/math_8h.html#a04a32cd137f4e2dc222aca71df9edb1b" target="_top" xlink:title=" ">
<polygon fill="white" stroke="#666666" points="588.25,-154.88 556.5,-154.88 556.5,-135.62 588.25,-135.62 588.25,-154.88"/>
<text text-anchor="middle" x="572.38" y="-141.38" font-family="Helvetica,sans-Serif" font-size="10.00">min</text>
</a>
</g>
</g>
<!-- Node11&#45;&gt;Node13 -->
<g id="edge16_Node000011_Node000013" class="edge">
<title>Node11&#45;&gt;Node13</title>
<g id="a_edge16_Node000011_Node000013"><a xlink:title=" ">
<path fill="none" stroke="#63b8ff" d="M456.73,-113.9C486.94,-122.16 522.5,-131.89 545.92,-138.29"/>
<polygon fill="#63b8ff" stroke="#63b8ff" points="544.79,-141.88 555.36,-141.14 546.63,-135.13 544.79,-141.88"/>
</a>
</g>
</g>
<!-- Node14&#45;&gt;Node12 -->
<g id="edge18_Node000014_Node000012" class="edge">
<title>Node14&#45;&gt;Node12</title>
<g id="a_edge18_Node000014_Node000012"><a xlink:title=" ">
<path fill="none" stroke="#63b8ff" d="M462.04,-131.6C490.32,-124.53 522.26,-116.54 544.28,-111.03"/>
<polygon fill="#63b8ff" stroke="#63b8ff" points="544.97,-114.21 553.82,-108.39 543.27,-107.42 544.97,-114.21"/>
</a>
</g>
</g>
<!-- Node14&#45;&gt;Node13 -->
<g id="edge19_Node000014_Node000013" class="edge">
<title>Node14&#45;&gt;Node13</title>
<g id="a_edge19_Node000014_Node000013"><a xlink:title=" ">
<path fill="none" stroke="#63b8ff" d="M462.04,-146.52C490.84,-146.19 523.44,-145.81 545.49,-145.55"/>
<polygon fill="#63b8ff" stroke="#63b8ff" points="545.31,-149.04 555.27,-145.43 545.23,-142.04 545.31,-149.04"/>
</a>
</g>
</g>
<!-- Node16 -->
<g id="Node000016" class="node">
<title>Node16</title>
<g id="a_Node000016"><a xlink:href="../../de/db8/namespace_slic3r.html#a95776b205e694f695dcf1a8c1a74cda4" target="_top" xlink:title=" ">
<polygon fill="white" stroke="#666666" points="446.62,-64.88 350.38,-64.88 350.38,-45.62 446.62,-45.62 446.62,-64.88"/>
<text text-anchor="middle" x="398.5" y="-51.38" font-family="Helvetica,sans-Serif" font-size="10.00">Slic3r::_clipper_ex</text>
</a>
</g>
</g>
<!-- Node15&#45;&gt;Node16 -->
<g id="edge21_Node000015_Node000016" class="edge">
<title>Node15&#45;&gt;Node16</title>
<g id="a_edge21_Node000015_Node000016"><a xlink:title=" ">
<path fill="none" stroke="#63b8ff" d="M277.83,-73.75C296.55,-70.85 318.91,-67.4 339.21,-64.26"/>
<polygon fill="#63b8ff" stroke="#63b8ff" points="339.57,-67.59 348.92,-62.6 338.51,-60.67 339.57,-67.59"/>
</a>
</g>
</g>
<!-- Node17 -->
<g id="Node000017" class="node">
<title>Node17</title>
<g id="a_Node000017"><a xlink:href="../../de/db8/namespace_slic3r.html#a578618ee685da9bd490d3980af3c2c38" target="_top" xlink:title=" ">
<polygon fill="white" stroke="#666666" points="617.88,-30.5 526.88,-30.5 526.88,0 617.88,0 617.88,-30.5"/>
<text text-anchor="start" x="534.88" y="-17" font-family="Helvetica,sans-Serif" font-size="10.00">Slic3r::clipper_do</text>
<text text-anchor="middle" x="572.38" y="-5.75" font-family="Helvetica,sans-Serif" font-size="10.00">_polytree</text>
</a>
</g>
</g>
<!-- Node16&#45;&gt;Node17 -->
<g id="edge22_Node000016_Node000017" class="edge">
<title>Node16&#45;&gt;Node17</title>
<g id="a_edge22_Node000016_Node000017"><a xlink:title=" ">
<path fill="none" stroke="#63b8ff" d="M442.87,-45.16C465.03,-40 492.25,-33.66 515.92,-28.16"/>
<polygon fill="#63b8ff" stroke="#63b8ff" points="516.57,-31.37 525.52,-25.69 514.99,-24.55 516.57,-31.37"/>
</a>
</g>
</g>
<!-- Node18 -->
<g id="Node000018" class="node">
<title>Node18</title>
<g id="a_Node000018"><a xlink:href="../../de/db8/namespace_slic3r.html#a1f7e91998726ff8395ce66857a6fd49d" target="_top" xlink:title=" ">
<polygon fill="white" stroke="#666666" points="646.75,-67.88 498,-67.88 498,-48.62 646.75,-48.62 646.75,-67.88"/>
<text text-anchor="middle" x="572.38" y="-54.38" font-family="Helvetica,sans-Serif" font-size="10.00">Slic3r::PolyTreeToExPolygons</text>
</a>
</g>
</g>
<!-- Node16&#45;&gt;Node18 -->
<g id="edge23_Node000016_Node000018" class="edge">
<title>Node16&#45;&gt;Node18</title>
<g id="a_edge23_Node000016_Node000018"><a xlink:title=" ">
<path fill="none" stroke="#63b8ff" d="M446.92,-56.08C459.31,-56.29 473.04,-56.53 486.73,-56.77"/>
<polygon fill="#63b8ff" stroke="#63b8ff" points="486.62,-60.29 496.68,-56.96 486.74,-53.29 486.62,-60.29"/>
</a>
</g>
</g>
<!-- Node19 -->
<g id="Node000019" class="node">
<title>Node19</title>
<g id="a_Node000019"><a xlink:href="../../d2/df1/class_clipper_lib_1_1_poly_node.html#a19128db6fb2aca66555231edaffa7ade" target="_top" xlink:title=" ">
<polygon fill="white" stroke="#666666" points="791,-73.5 682.75,-73.5 682.75,-43 791,-43 791,-73.5"/>
<text text-anchor="start" x="690.75" y="-60" font-family="Helvetica,sans-Serif" font-size="10.00">ClipperLib::PolyNode</text>
<text text-anchor="middle" x="736.88" y="-48.75" font-family="Helvetica,sans-Serif" font-size="10.00">::ChildCount</text>
</a>
</g>
</g>
<!-- Node18&#45;&gt;Node19 -->
<g id="edge24_Node000018_Node000019" class="edge">
<title>Node18&#45;&gt;Node19</title>
<g id="a_edge24_Node000018_Node000019"><a xlink:title=" ">
<path fill="none" stroke="#63b8ff" d="M647.02,-58.25C655.22,-58.25 663.52,-58.25 671.59,-58.25"/>
<polygon fill="#63b8ff" stroke="#63b8ff" points="671.41,-61.75 681.41,-58.25 671.41,-54.75 671.41,-61.75"/>
</a>
</g>
</g>
</g>
</svg>
