<?xml version="1.0" encoding="UTF-8" standalone="no"?>
<!DOCTYPE svg PUBLIC "-//W3C//DTD SVG 1.1//EN"
 "http://www.w3.org/Graphics/SVG/1.1/DTD/svg11.dtd">
<!-- Generated by graphviz version 8.1.0 (20230707.0739)
 -->
<!-- Title: Slic3r::expolygons_append Pages: 1 -->
<!--zoomable 375 -->

<svg id="main" version="1.1" xmlns="http://www.w3.org/2000/svg" xmlns:xlink="http://www.w3.org/1999/xlink" xml:space="preserve" onload="init(evt)">
<style type="text/css"><![CDATA[
.node, .edge {opacity: 0.7;}
.node.selected, .edge.selected {opacity: 1;}
.edge:hover path { stroke: red; }
.edge:hover polygon { stroke: red; fill: red; }
]]></style>

<defs>
  <circle id="rim" cx="0" cy="0" r="7"/>
  <circle id="rim2" cx="0" cy="0" r="3.5"/>
  <g id="zoomPlus">
    <use xlink:href="#rim" fill="#404040"><set attributeName="fill" to="#808080" begin="zoomplus.mouseover" end="zoomplus.mouseout"/></use>
    <path d="M-4,0h8M0,-4v8" fill="none" stroke="white" stroke-width="1.5" pointer-events="none"/>
  </g>
  <g id="zoomMin">
    <use xlink:href="#rim" fill="#404040"><set attributeName="fill" to="#808080" begin="zoomminus.mouseover" end="zoomminus.mouseout"/></use>
    <path d="M-4,0h8" fill="none" stroke="white" stroke-width="1.5" pointer-events="none"/>
  </g>
  <g id="arrowUp" transform="translate(30 24)">
    <use xlink:href="#rim"/>
    <path pointer-events="none" fill="none" stroke="white" stroke-width="1.5" d="M0,-3.0v7 M-2.5,-0.5L0,-3.0L2.5,-0.5"/>
  </g>
  <g id="arrowRight" transform="rotate(90) translate(36 -43)">
    <use xlink:href="#rim"/>
    <path pointer-events="none" fill="none" stroke="white" stroke-width="1.5" d="M0,-3.0v7 M-2.5,-0.5L0,-3.0L2.5,-0.5"/>
  </g>
  <g id="arrowDown" transform="rotate(180) translate(-30 -48)">
    <use xlink:href="#rim"/>
    <path pointer-events="none" fill="none" stroke="white" stroke-width="1.5" d="M0,-3.0v7 M-2.5,-0.5L0,-3.0L2.5,-0.5"/>
  </g>
  <g id="arrowLeft" transform="rotate(270) translate(-36 17)">
    <use xlink:href="#rim"/>
    <path pointer-events="none" fill="none" stroke="white" stroke-width="1.5" d="M0,-3.0v7 M-2.5,-0.5L0,-3.0L2.5,-0.5"/>
  </g>
  <g id="resetDef">
    <use xlink:href="#rim2" fill="#404040"><set attributeName="fill" to="#808080" begin="reset.mouseover" end="reset.mouseout"/></use>
  </g>
</defs>
<script type="application/ecmascript">
var viewWidth = 891;
var viewHeight = 375;
var sectionId = 'dynsection-412';
</script>
<script type="application/ecmascript" xlink:href="../../svg.min.js"/>
<svg id="graph" class="graph">
<g id="viewport">
<title>Slic3r::expolygons_append</title>
<!-- Node1 -->
<g id="Node000001" class="node">
<title>Node1</title>
<g id="a_Node000001"><a xlink:title=" ">
<polygon fill="#999999" stroke="#666666" points="882.75,-169.5 786.5,-169.5 786.5,-139 882.75,-139 882.75,-169.5"/>
<text text-anchor="start" x="794.5" y="-156" font-family="Helvetica,sans-Serif" font-size="10.00">Slic3r::expolygons</text>
<text text-anchor="middle" x="834.62" y="-144.75" font-family="Helvetica,sans-Serif" font-size="10.00">_append</text>
</a>
</g>
</g>
<!-- Node2 -->
<g id="Node000002" class="node">
<title>Node2</title>
<g id="a_Node000002"><a xlink:href="../../de/db8/namespace_slic3r.html#a3a36591fc7a852f3058ef036dfa20e7c" target="_top" xlink:title=" ">
<polygon fill="white" stroke="#666666" points="737.38,-249.5 638.12,-249.5 638.12,-219 737.38,-219 737.38,-249.5"/>
<text text-anchor="start" x="646.12" y="-236" font-family="Helvetica,sans-Serif" font-size="10.00">Slic3r::append_and</text>
<text text-anchor="middle" x="687.75" y="-224.75" font-family="Helvetica,sans-Serif" font-size="10.00">_translate</text>
</a>
</g>
</g>
<!-- Node1&#45;&gt;Node2 -->
<g id="edge1_Node000001_Node000002" class="edge">
<title>Node1&#45;&gt;Node2</title>
<g id="a_edge1_Node000001_Node000002"><a xlink:title=" ">
<path fill="none" stroke="#63b8ff" d="M803.87,-176.03C788.41,-186.81 768.93,-199.55 750.5,-209.25 744.26,-212.54 737.48,-215.68 730.79,-218.55"/>
<polygon fill="#63b8ff" stroke="#63b8ff" points="805.33,-178.58 811.48,-169.95 801.29,-172.87 805.33,-178.58"/>
</a>
</g>
</g>
<!-- Node12 -->
<g id="Node000012" class="node">
<title>Node12</title>
<g id="a_Node000012"><a xlink:href="../../de/db8/namespace_slic3r.html#af52e4a4caf56e9c98f7f57788fa981f8" target="_top" xlink:title=" ">
<polygon fill="white" stroke="#666666" points="737.38,-200.5 638.12,-200.5 638.12,-170 737.38,-170 737.38,-200.5"/>
<text text-anchor="start" x="646.12" y="-187" font-family="Helvetica,sans-Serif" font-size="10.00">Slic3r::append_and</text>
<text text-anchor="middle" x="687.75" y="-175.75" font-family="Helvetica,sans-Serif" font-size="10.00">_translate</text>
</a>
</g>
</g>
<!-- Node1&#45;&gt;Node12 -->
<g id="edge17_Node000001_Node000012" class="edge">
<title>Node1&#45;&gt;Node12</title>
<g id="a_edge17_Node000001_Node000012"><a xlink:title=" ">
<path fill="none" stroke="#63b8ff" d="M775.79,-166.63C763.2,-169.32 750,-172.14 737.79,-174.76"/>
<polygon fill="#63b8ff" stroke="#63b8ff" points="776.14,-169.92 785.19,-164.4 774.68,-163.07 776.14,-169.92"/>
</a>
</g>
</g>
<!-- Node13 -->
<g id="Node000013" class="node">
<title>Node13</title>
<g id="a_Node000013"><a xlink:href="../../de/db8/namespace_slic3r.html#a7f6fd52f56376cfa646665f2cedf056d" target="_top" xlink:title=" ">
<polygon fill="white" stroke="#666666" points="750.5,-133.88 625,-133.88 625,-114.62 750.5,-114.62 750.5,-133.88"/>
<text text-anchor="middle" x="687.75" y="-120.38" font-family="Helvetica,sans-Serif" font-size="10.00">Slic3r::make_expolygons</text>
</a>
</g>
</g>
<!-- Node1&#45;&gt;Node13 -->
<g id="edge18_Node000001_Node000013" class="edge">
<title>Node1&#45;&gt;Node13</title>
<g id="a_edge18_Node000001_Node000013"><a xlink:title=" ">
<path fill="none" stroke="#63b8ff" d="M775.68,-142.25C762.95,-139.62 749.6,-136.85 737.29,-134.3"/>
<polygon fill="#63b8ff" stroke="#63b8ff" points="774.69,-145.83 785.19,-144.43 776.1,-138.97 774.69,-145.83"/>
</a>
</g>
</g>
<!-- Node14 -->
<g id="Node000014" class="node">
<title>Node14</title>
<g id="a_Node000014"><a xlink:href="../../de/db8/namespace_slic3r.html#a0a564e0f40eb22dd6f48d6db9d21f0f4" target="_top" xlink:title=" ">
<polygon fill="white" stroke="#666666" points="750.5,-78.5 625,-78.5 625,-48 750.5,-48 750.5,-78.5"/>
<text text-anchor="start" x="633" y="-65" font-family="Helvetica,sans-Serif" font-size="10.00">Slic3r::make_expolygons</text>
<text text-anchor="middle" x="687.75" y="-53.75" font-family="Helvetica,sans-Serif" font-size="10.00">_simple</text>
</a>
</g>
</g>
<!-- Node1&#45;&gt;Node14 -->
<g id="edge20_Node000001_Node000014" class="edge">
<title>Node1&#45;&gt;Node14</title>
<g id="a_edge20_Node000001_Node000014"><a xlink:title=" ">
<path fill="none" stroke="#63b8ff" d="M799.51,-132.82C773.23,-116.31 737.5,-93.87 713.81,-78.99"/>
<polygon fill="#63b8ff" stroke="#63b8ff" points="797.39,-136.25 807.72,-138.61 801.11,-130.32 797.39,-136.25"/>
</a>
</g>
</g>
<!-- Node3 -->
<g id="Node000003" class="node">
<title>Node3</title>
<g id="a_Node000003"><a xlink:href="../../de/db8/namespace_slic3r.html#a659a34844d0e95259582f1e456ddaf99" target="_top" xlink:title=" ">
<polygon fill="white" stroke="#666666" points="589,-328.88 473.25,-328.88 473.25,-309.62 589,-309.62 589,-328.88"/>
<text text-anchor="middle" x="531.12" y="-315.38" font-family="Helvetica,sans-Serif" font-size="10.00">Slic3r::inner_brim_area</text>
</a>
</g>
</g>
<!-- Node2&#45;&gt;Node3 -->
<g id="edge2_Node000002_Node000003" class="edge">
<title>Node2&#45;&gt;Node3</title>
<g id="a_edge2_Node000002_Node000003"><a xlink:title=" ">
<path fill="none" stroke="#63b8ff" d="M658.46,-256.38C639.59,-270.36 613.78,-288.03 589,-300.25 582.18,-303.61 574.63,-306.6 567.31,-309.16"/>
<polygon fill="#63b8ff" stroke="#63b8ff" points="660.25,-258.66 666.14,-249.85 656.04,-253.07 660.25,-258.66"/>
</a>
</g>
</g>
<!-- Node7 -->
<g id="Node000007" class="node">
<title>Node7</title>
<g id="a_Node000007"><a xlink:href="../../de/db8/namespace_slic3r.html#adaa1150bed313fe44299818e814c5562" target="_top" xlink:title=" ">
<polygon fill="white" stroke="#666666" points="579.62,-273.5 482.62,-273.5 482.62,-243 579.62,-243 579.62,-273.5"/>
<text text-anchor="start" x="490.62" y="-260" font-family="Helvetica,sans-Serif" font-size="10.00">Slic3r::make_inner</text>
<text text-anchor="middle" x="531.12" y="-248.75" font-family="Helvetica,sans-Serif" font-size="10.00">_island_brim</text>
</a>
</g>
</g>
<!-- Node2&#45;&gt;Node7 -->
<g id="edge9_Node000002_Node000007" class="edge">
<title>Node2&#45;&gt;Node7</title>
<g id="a_edge9_Node000002_Node000007"><a xlink:title=" ">
<path fill="none" stroke="#63b8ff" d="M627.19,-243.49C611.55,-245.92 594.88,-248.51 579.94,-250.83"/>
<polygon fill="#63b8ff" stroke="#63b8ff" points="627.48,-246.84 636.83,-241.84 626.41,-239.92 627.48,-246.84"/>
</a>
</g>
</g>
<!-- Node9 -->
<g id="Node000009" class="node">
<title>Node9</title>
<g id="a_Node000009"><a xlink:href="../../de/db8/namespace_slic3r.html#adb9a1984f1339deae271f59bbd165f8e" target="_top" xlink:title=" ">
<polygon fill="white" stroke="#666666" points="587.5,-224.5 474.75,-224.5 474.75,-194 587.5,-194 587.5,-224.5"/>
<text text-anchor="start" x="482.75" y="-211" font-family="Helvetica,sans-Serif" font-size="10.00">Slic3r::top_level_outer</text>
<text text-anchor="middle" x="531.12" y="-199.75" font-family="Helvetica,sans-Serif" font-size="10.00">_brim_area</text>
</a>
</g>
</g>
<!-- Node2&#45;&gt;Node9 -->
<g id="edge13_Node000002_Node000009" class="edge">
<title>Node2&#45;&gt;Node9</title>
<g id="a_edge13_Node000002_Node000009"><a xlink:title=" ">
<path fill="none" stroke="#63b8ff" d="M627.14,-224.61C614.18,-222.52 600.52,-220.31 587.73,-218.24"/>
<polygon fill="#63b8ff" stroke="#63b8ff" points="626.4,-228.2 636.83,-226.34 627.51,-221.29 626.4,-228.2"/>
</a>
</g>
</g>
<!-- Node11 -->
<g id="Node000011" class="node">
<title>Node11</title>
<g id="a_Node000011"><a xlink:href="../../de/db8/namespace_slic3r.html#a66e1af1eb34eb460ff83ace0e8b356d5" target="_top" xlink:title=" ">
<polygon fill="white" stroke="#666666" points="587.5,-175.5 474.75,-175.5 474.75,-145 587.5,-145 587.5,-175.5"/>
<text text-anchor="start" x="482.75" y="-162" font-family="Helvetica,sans-Serif" font-size="10.00">Slic3r::top_level_outer</text>
<text text-anchor="middle" x="531.12" y="-150.75" font-family="Helvetica,sans-Serif" font-size="10.00">_brim_islands</text>
</a>
</g>
</g>
<!-- Node2&#45;&gt;Node11 -->
<g id="edge15_Node000002_Node000011" class="edge">
<title>Node2&#45;&gt;Node11</title>
<g id="a_edge15_Node000002_Node000011"><a xlink:title=" ">
<path fill="none" stroke="#63b8ff" d="M634.68,-214.07C631.37,-212.51 628.12,-210.9 625,-209.25 608,-200.26 605.87,-194.49 589,-185.25 583.04,-181.99 576.57,-178.81 570.2,-175.89"/>
<polygon fill="#63b8ff" stroke="#63b8ff" points="633.15,-217.67 643.7,-218.57 636.02,-211.28 633.15,-217.67"/>
</a>
</g>
</g>
<!-- Node3&#45;&gt;Node3 -->
<g id="edge4_Node000003_Node000003" class="edge">
<title>Node3&#45;&gt;Node3</title>
<g id="a_edge4_Node000003_Node000003"><a xlink:title=" ">
<path fill="none" stroke="#63b8ff" d="M559.28,-339.26C556.62,-343.67 547.24,-346.88 531.12,-346.88 503.99,-346.88 495.93,-337.77 506.96,-329.16"/>
<polygon fill="#63b8ff" stroke="#63b8ff" points="562.22,-338.18 555.29,-330.16 555.71,-340.75 562.22,-338.18"/>
</a>
</g>
</g>
<!-- Node4 -->
<g id="Node000004" class="node">
<title>Node4</title>
<g id="a_Node000004"><a xlink:href="../../de/db8/namespace_slic3r.html#ae64c38d1e101a4c874852d1f66dad943" target="_top" xlink:title=" ">
<polygon fill="white" stroke="#666666" points="434.62,-366.88 318.88,-366.88 318.88,-347.62 434.62,-347.62 434.62,-366.88"/>
<text text-anchor="middle" x="376.75" y="-353.38" font-family="Helvetica,sans-Serif" font-size="10.00">Slic3r::inner_brim_area</text>
</a>
</g>
</g>
<!-- Node3&#45;&gt;Node4 -->
<g id="edge3_Node000003_Node000004" class="edge">
<title>Node3&#45;&gt;Node4</title>
<g id="a_edge3_Node000003_Node000004"><a xlink:title=" ">
<path fill="none" stroke="#63b8ff" d="M479.25,-331.94C459.35,-336.9 436.86,-342.51 418.11,-347.19"/>
<polygon fill="#63b8ff" stroke="#63b8ff" points="479.84,-335.15 488.69,-329.33 478.14,-328.36 479.84,-335.15"/>
</a>
</g>
</g>
<!-- Node5 -->
<g id="Node000005" class="node">
<title>Node5</title>
<g id="a_Node000005"><a xlink:href="../../de/db8/namespace_slic3r.html#a78fa9cea027d63b56f58abe7d3f92fa8" target="_top" xlink:title=" ">
<polygon fill="white" stroke="#666666" points="437.25,-272.88 316.25,-272.88 316.25,-253.62 437.25,-253.62 437.25,-272.88"/>
<text text-anchor="middle" x="376.75" y="-259.38" font-family="Helvetica,sans-Serif" font-size="10.00">Slic3r::make_inner_brim</text>
</a>
</g>
</g>
<!-- Node3&#45;&gt;Node5 -->
<g id="edge5_Node000003_Node000005" class="edge">
<title>Node3&#45;&gt;Node5</title>
<g id="a_edge5_Node000003_Node000005"><a xlink:title=" ">
<path fill="none" stroke="#63b8ff" d="M488.98,-305.76C483.67,-303.95 478.32,-302.08 473.25,-300.25 449.16,-291.57 421.96,-280.94 402.76,-273.31"/>
<polygon fill="#63b8ff" stroke="#63b8ff" points="487.45,-309.27 498.04,-309.16 489.69,-302.64 487.45,-309.27"/>
</a>
</g>
</g>
<!-- Node6 -->
<g id="Node000006" class="node">
<title>Node6</title>
<g id="a_Node000006"><a xlink:href="../../de/db8/namespace_slic3r.html#a99981fadcc95f3fbecf7362bc437fbc8" target="_top" xlink:title=" ">
<polygon fill="white" stroke="#666666" points="280.25,-300.88 159.25,-300.88 159.25,-281.62 280.25,-281.62 280.25,-300.88"/>
<text text-anchor="middle" x="219.75" y="-287.38" font-family="Helvetica,sans-Serif" font-size="10.00">Slic3r::make_inner_brim</text>
</a>
</g>
</g>
<!-- Node3&#45;&gt;Node6 -->
<g id="edge8_Node000003_Node000006" class="edge">
<title>Node3&#45;&gt;Node6</title>
<g id="a_edge8_Node000003_Node000006"><a xlink:title=" ">
<path fill="none" stroke="#63b8ff" d="M461.99,-313.29C419.97,-309.59 364.98,-304.71 316.25,-300.25 304.72,-299.19 292.42,-298.05 280.6,-296.94"/>
<polygon fill="#63b8ff" stroke="#63b8ff" points="461.66,-316.86 471.93,-314.25 462.27,-309.89 461.66,-316.86"/>
</a>
</g>
</g>
<!-- Node5&#45;&gt;Node5 -->
<g id="edge6_Node000005_Node000005" class="edge">
<title>Node5&#45;&gt;Node5</title>
<g id="a_edge6_Node000005_Node000005"><a xlink:title=" ">
<path fill="none" stroke="#63b8ff" d="M404.91,-283.26C402.25,-287.67 392.86,-290.88 376.75,-290.88 349.61,-290.88 341.56,-281.77 352.58,-273.16"/>
<polygon fill="#63b8ff" stroke="#63b8ff" points="407.85,-282.18 400.92,-274.16 401.34,-284.75 407.85,-282.18"/>
</a>
</g>
</g>
<!-- Node5&#45;&gt;Node6 -->
<g id="edge7_Node000005_Node000006" class="edge">
<title>Node5&#45;&gt;Node6</title>
<g id="a_edge7_Node000005_Node000006"><a xlink:title=" ">
<path fill="none" stroke="#63b8ff" d="M309.1,-275.29C298.27,-277.25 287.16,-279.25 276.63,-281.16"/>
<polygon fill="#63b8ff" stroke="#63b8ff" points="309.57,-278.58 318.79,-273.36 308.33,-271.69 309.57,-278.58"/>
</a>
</g>
</g>
<!-- Node7&#45;&gt;Node5 -->
<g id="edge10_Node000007_Node000005" class="edge">
<title>Node7&#45;&gt;Node5</title>
<g id="a_edge10_Node000007_Node000005"><a xlink:title=" ">
<path fill="none" stroke="#63b8ff" d="M471.48,-260.17C460.41,-260.54 448.83,-260.92 437.72,-261.28"/>
<polygon fill="#63b8ff" stroke="#63b8ff" points="471.45,-263.64 481.33,-259.82 471.22,-256.65 471.45,-263.64"/>
</a>
</g>
</g>
<!-- Node7&#45;&gt;Node7 -->
<g id="edge11_Node000007_Node000007" class="edge">
<title>Node7&#45;&gt;Node7</title>
<g id="a_edge11_Node000007_Node000007"><a xlink:title=" ">
<path fill="none" stroke="#63b8ff" d="M557.37,-284.88C553.27,-288.83 544.52,-291.5 531.12,-291.5 507.31,-291.5 498.19,-283.06 503.77,-273.99"/>
<polygon fill="#63b8ff" stroke="#63b8ff" points="560.94,-285.29 558.48,-274.99 553.98,-284.58 560.94,-285.29"/>
</a>
</g>
</g>
<!-- Node8 -->
<g id="Node000008" class="node">
<title>Node8</title>
<g id="a_Node000008"><a xlink:href="../../de/db8/namespace_slic3r.html#a951fca3a7df6a7d420e68c42993906d8" target="_top" xlink:title=" ">
<polygon fill="white" stroke="#666666" points="425.25,-235.5 328.25,-235.5 328.25,-205 425.25,-205 425.25,-235.5"/>
<text text-anchor="start" x="336.25" y="-222" font-family="Helvetica,sans-Serif" font-size="10.00">Slic3r::make_inner</text>
<text text-anchor="middle" x="376.75" y="-210.75" font-family="Helvetica,sans-Serif" font-size="10.00">_island_brim</text>
</a>
</g>
</g>
<!-- Node7&#45;&gt;Node8 -->
<g id="edge12_Node000007_Node000008" class="edge">
<title>Node7&#45;&gt;Node8</title>
<g id="a_edge12_Node000007_Node000008"><a xlink:title=" ">
<path fill="none" stroke="#63b8ff" d="M471.94,-243.74C456.64,-239.92 440.32,-235.85 425.64,-232.19"/>
<polygon fill="#63b8ff" stroke="#63b8ff" points="470.78,-247.31 481.33,-246.33 472.47,-240.52 470.78,-247.31"/>
</a>
</g>
</g>
<!-- Node10 -->
<g id="Node000010" class="node">
<title>Node10</title>
<g id="a_Node000010"><a xlink:href="../../de/db8/namespace_slic3r.html#ad42a7b1e24a6387717cccc44fe1b85e6" target="_top" xlink:title=" ">
<polygon fill="white" stroke="#666666" points="424.12,-177.88 329.38,-177.88 329.38,-158.62 424.12,-158.62 424.12,-177.88"/>
<text text-anchor="middle" x="376.75" y="-164.38" font-family="Helvetica,sans-Serif" font-size="10.00">Slic3r::make_brim</text>
</a>
</g>
</g>
<!-- Node9&#45;&gt;Node10 -->
<g id="edge14_Node000009_Node000010" class="edge">
<title>Node9&#45;&gt;Node10</title>
<g id="a_edge14_Node000009_Node000010"><a xlink:title=" ">
<path fill="none" stroke="#63b8ff" d="M463.95,-191.44C447.21,-186.94 429.83,-182.26 415.09,-178.3"/>
<polygon fill="#63b8ff" stroke="#63b8ff" points="462.69,-195 473.25,-194.22 464.5,-188.24 462.69,-195"/>
</a>
</g>
</g>
<!-- Node11&#45;&gt;Node10 -->
<g id="edge16_Node000011_Node000010" class="edge">
<title>Node11&#45;&gt;Node10</title>
<g id="a_edge16_Node000011_Node000010"><a xlink:title=" ">
<path fill="none" stroke="#63b8ff" d="M463.39,-163.75C450.32,-164.44 436.86,-165.15 424.61,-165.79"/>
<polygon fill="#63b8ff" stroke="#63b8ff" points="463.45,-167.2 473.25,-163.18 463.08,-160.21 463.45,-167.2"/>
</a>
</g>
</g>
<!-- Node13&#45;&gt;Node13 -->
<g id="edge19_Node000013_Node000013" class="edge">
<title>Node13&#45;&gt;Node13</title>
<g id="a_edge19_Node000013_Node000013"><a xlink:title=" ">
<path fill="none" stroke="#63b8ff" d="M714.54,-144.26C712.01,-148.67 703.08,-151.88 687.75,-151.88 661.93,-151.88 654.27,-142.77 664.76,-134.16"/>
<polygon fill="#63b8ff" stroke="#63b8ff" points="717.54,-143.29 710.74,-135.16 710.99,-145.76 717.54,-143.29"/>
</a>
</g>
</g>
<!-- Node14&#45;&gt;Node14 -->
<g id="edge21_Node000014_Node000014" class="edge">
<title>Node14&#45;&gt;Node14</title>
<g id="a_edge21_Node000014_Node000014"><a xlink:title=" ">
<path fill="none" stroke="#63b8ff" d="M712.72,-89.88C708.82,-93.83 700.5,-96.5 687.75,-96.5 665.09,-96.5 656.41,-88.06 661.72,-78.99"/>
<polygon fill="#63b8ff" stroke="#63b8ff" points="716.29,-90.28 713.78,-79.99 709.32,-89.6 716.29,-90.28"/>
</a>
</g>
</g>
<!-- Node15 -->
<g id="Node000015" class="node">
<title>Node15</title>
<g id="a_Node000015"><a xlink:href="../../de/db8/namespace_slic3r.html#af4a742362f931b1747d4f1cdaee7cc56" target="_top" xlink:title=" ">
<polygon fill="white" stroke="#666666" points="577,-78.5 485.25,-78.5 485.25,-48 577,-48 577,-78.5"/>
<text text-anchor="start" x="493.25" y="-65" font-family="Helvetica,sans-Serif" font-size="10.00">Slic3r::triangulate</text>
<text text-anchor="middle" x="531.12" y="-53.75" font-family="Helvetica,sans-Serif" font-size="10.00">_slice</text>
</a>
</g>
</g>
<!-- Node14&#45;&gt;Node15 -->
<g id="edge22_Node000014_Node000015" class="edge">
<title>Node14&#45;&gt;Node15</title>
<g id="a_edge22_Node000014_Node000015"><a xlink:title=" ">
<path fill="none" stroke="#63b8ff" d="M613.91,-63.25C601.49,-63.25 588.92,-63.25 577.48,-63.25"/>
<polygon fill="#63b8ff" stroke="#63b8ff" points="613.75,-66.75 623.75,-63.25 613.75,-59.75 613.75,-66.75"/>
</a>
</g>
</g>
<!-- Node15&#45;&gt;Node15 -->
<g id="edge28_Node000015_Node000015" class="edge">
<title>Node15&#45;&gt;Node15</title>
<g id="a_edge28_Node000015_Node000015"><a xlink:title=" ">
<path fill="none" stroke="#63b8ff" d="M557.37,-89.88C553.27,-93.83 544.52,-96.5 531.12,-96.5 507.31,-96.5 498.19,-88.06 503.77,-78.99"/>
<polygon fill="#63b8ff" stroke="#63b8ff" points="560.94,-90.29 558.48,-79.99 553.98,-89.58 560.94,-90.29"/>
</a>
</g>
</g>
<!-- Node16 -->
<g id="Node000016" class="node">
<title>Node16</title>
<g id="a_Node000016"><a xlink:href="../../de/db8/namespace_slic3r.html#a6938b21435ce0f2a722cb71b4c8e8102" target="_top" xlink:title=" ">
<polygon fill="white" stroke="#666666" points="421.5,-72.88 332,-72.88 332,-53.62 421.5,-53.62 421.5,-72.88"/>
<text text-anchor="middle" x="376.75" y="-59.38" font-family="Helvetica,sans-Serif" font-size="10.00">Slic3r::cut_mesh</text>
</a>
</g>
</g>
<!-- Node15&#45;&gt;Node16 -->
<g id="edge23_Node000015_Node000016" class="edge">
<title>Node15&#45;&gt;Node16</title>
<g id="a_edge23_Node000015_Node000016"><a xlink:title=" ">
<path fill="none" stroke="#63b8ff" d="M474.29,-63.25C457,-63.25 438.21,-63.25 421.83,-63.25"/>
<polygon fill="#63b8ff" stroke="#63b8ff" points="473.82,-66.75 483.82,-63.25 473.82,-59.75 473.82,-66.75"/>
</a>
</g>
</g>
<!-- Node17 -->
<g id="Node000017" class="node">
<title>Node17</title>
<g id="a_Node000017"><a xlink:href="../../d0/d23/class_slic3r_1_1_model_object.html#a5609c3b40364fbba32f27f0f3298f915" target="_top" xlink:title=" ">
<polygon fill="white" stroke="#666666" points="270.5,-103.5 169,-103.5 169,-73 270.5,-73 270.5,-103.5"/>
<text text-anchor="start" x="177" y="-90" font-family="Helvetica,sans-Serif" font-size="10.00">Slic3r::ModelObject</text>
<text text-anchor="middle" x="219.75" y="-78.75" font-family="Helvetica,sans-Serif" font-size="10.00">::make_boolean</text>
</a>
</g>
</g>
<!-- Node16&#45;&gt;Node17 -->
<g id="edge24_Node000016_Node000017" class="edge">
<title>Node16&#45;&gt;Node17</title>
<g id="a_edge24_Node000016_Node000017"><a xlink:title=" ">
<path fill="none" stroke="#63b8ff" d="M321.23,-72.04C304.85,-74.69 286.96,-77.57 270.87,-80.17"/>
<polygon fill="#63b8ff" stroke="#63b8ff" points="321.43,-75.39 330.75,-70.35 320.32,-68.48 321.43,-75.39"/>
</a>
</g>
</g>
<!-- Node18 -->
<g id="Node000018" class="node">
<title>Node18</title>
<g id="a_Node000018"><a xlink:href="../../d0/d23/class_slic3r_1_1_model_object.html#a3a8412bbe82205617c92271463149001" target="_top" xlink:title=" ">
<polygon fill="white" stroke="#666666" points="275.75,-54.5 163.75,-54.5 163.75,-24 275.75,-24 275.75,-54.5"/>
<text text-anchor="start" x="171.75" y="-41" font-family="Helvetica,sans-Serif" font-size="10.00">Slic3r::ModelObject</text>
<text text-anchor="middle" x="219.75" y="-29.75" font-family="Helvetica,sans-Serif" font-size="10.00">::process_volume_cut</text>
</a>
</g>
</g>
<!-- Node16&#45;&gt;Node18 -->
<g id="edge25_Node000016_Node000018" class="edge">
<title>Node16&#45;&gt;Node18</title>
<g id="a_edge25_Node000016_Node000018"><a xlink:title=" ">
<path fill="none" stroke="#63b8ff" d="M320.92,-54.76C306.41,-52.51 290.74,-50.09 276.21,-47.84"/>
<polygon fill="#63b8ff" stroke="#63b8ff" points="320.33,-58.37 330.75,-56.44 321.4,-51.45 320.33,-58.37"/>
</a>
</g>
</g>
<!-- Node19 -->
<g id="Node000019" class="node">
<title>Node19</title>
<g id="a_Node000019"><a xlink:href="../../d0/d23/class_slic3r_1_1_model_object.html#a852735853f3dafd1951ba4357b3680ea" target="_top" xlink:title=" ">
<polygon fill="#fff0f0" stroke="red" points="123.25,-79.5 0,-79.5 0,-49 123.25,-49 123.25,-79.5"/>
<text text-anchor="start" x="8" y="-66" font-family="Helvetica,sans-Serif" font-size="10.00">Slic3r::ModelObject</text>
<text text-anchor="middle" x="61.62" y="-54.75" font-family="Helvetica,sans-Serif" font-size="10.00">::process_connector_cut</text>
</a>
</g>
</g>
<!-- Node18&#45;&gt;Node19 -->
<g id="edge26_Node000018_Node000019" class="edge">
<title>Node18&#45;&gt;Node19</title>
<g id="a_edge26_Node000018_Node000019"><a xlink:title=" ">
<path fill="none" stroke="#63b8ff" d="M152.53,-49.85C142.9,-51.4 133.02,-52.98 123.5,-54.5"/>
<polygon fill="#63b8ff" stroke="#63b8ff" points="152.95,-53.17 162.27,-48.13 151.84,-46.26 152.95,-53.17"/>
</a>
</g>
</g>
<!-- Node21 -->
<g id="Node000021" class="node">
<title>Node21</title>
<g id="a_Node000021"><a xlink:href="../../d0/d23/class_slic3r_1_1_model_object.html#a5f59d19f4e7cc202617a8ef38b828ed2" target="_top" xlink:title=" ">
<polygon fill="#fff0f0" stroke="red" points="122.88,-30.5 0.38,-30.5 0.38,0 122.88,0 122.88,-30.5"/>
<text text-anchor="start" x="8.38" y="-17" font-family="Helvetica,sans-Serif" font-size="10.00">Slic3r::ModelObject</text>
<text text-anchor="middle" x="61.62" y="-5.75" font-family="Helvetica,sans-Serif" font-size="10.00">::process_solid_part_cut</text>
</a>
</g>
</g>
<!-- Node18&#45;&gt;Node21 -->
<g id="edge27_Node000018_Node000021" class="edge">
<title>Node18&#45;&gt;Node21</title>
<g id="a_edge27_Node000018_Node000021"><a xlink:title=" ">
<path fill="none" stroke="#63b8ff" d="M152.45,-29.06C142.76,-27.57 132.81,-26.04 123.23,-24.57"/>
<polygon fill="#63b8ff" stroke="#63b8ff" points="151.85,-32.66 162.27,-30.72 152.91,-25.74 151.85,-32.66"/>
</a>
</g>
</g>
</g>
</svg>

<g id="navigator" transform="translate(0 0)" fill="#404254">
  <rect fill="#f2f5e9" fill-opacity="0.5" stroke="#606060" stroke-width=".5" x="0" y="0" width="60" height="60"/>
  <use id="zoomplus" xlink:href="#zoomPlus" x="17" y="9" onmousedown="handleZoom(evt,'in')"/>
  <use id="zoomminus" xlink:href="#zoomMin" x="42" y="9" onmousedown="handleZoom(evt,'out')"/>
  <use id="reset" xlink:href="#resetDef" x="30" y="36" onmousedown="handleReset()"/>
   <use id="arrowup" xlink:href="#arrowUp" x="0" y="0" onmousedown="handlePan(0,-1)"/>
  <use id="arrowright" xlink:href="#arrowRight" x="0" y="0" onmousedown="handlePan(1,0)"/>
  <use id="arrowdown" xlink:href="#arrowDown" x="0" y="0" onmousedown="handlePan(0,1)"/>
  <use id="arrowleft" xlink:href="#arrowLeft" x="0" y="0" onmousedown="handlePan(-1,0)"/>
</g>
<svg viewBox="0 0 15 15" width="100%" height="30px" preserveAspectRatio="xMaxYMin meet">
 <g id="arrow_out" transform="scale(0.3 0.3)">
  <a xlink:href="namespace_slic3r_ac092e1fe4a66f2d377136378c166e8eb_icgraph_org.svg" target="_base">
   <rect id="button" ry="5" rx="5" y="6" x="6" height="38" width="38"
        fill="#f2f5e9" fill-opacity="0.5" stroke="#606060" stroke-width="1.0"/>
   <path id="arrow"
     d="M 11.500037,31.436501 C 11.940474,20.09759 22.043105,11.32322 32.158766,21.979434 L 37.068811,17.246167 C 37.068811,17.246167 37.088388,32 37.088388,32 L 22.160133,31.978069 C 22.160133,31.978069 26.997745,27.140456 26.997745,27.140456 C 18.528582,18.264221 13.291696,25.230495 11.500037,31.436501 z"
     style="fill:#404040;"/>
  </a>
 </g>
</svg>

<style type='text/css'>
<![CDATA[
[data-mouse-over-selected='false'] { opacity: 0.7; }
[data-mouse-over-selected='true']  { opacity: 1.0; }
]]>
</style>
<script type="application/ecmascript"><![CDATA[
document.addEventListener('DOMContentLoaded', (event) => {
  highlightEdges();
  highlightAdjacentNodes();
});
]]></script>
</svg>
