<?xml version="1.0" encoding="UTF-8" standalone="no"?>
<!DOCTYPE svg PUBLIC "-//W3C//DTD SVG 1.1//EN"
 "http://www.w3.org/Graphics/SVG/1.1/DTD/svg11.dtd">
<!-- Generated by graphviz version 8.1.0 (20230707.0739)
 -->
<!-- Title: Slic3r::init_occt_fonts Pages: 1 -->
<svg width="550pt" height="70pt"
 viewBox="0.00 0.00 549.75 69.88" xmlns="http://www.w3.org/2000/svg" xmlns:xlink="http://www.w3.org/1999/xlink">
<g id="graph0" class="graph" transform="scale(1 1) rotate(0) translate(4 65.88)">
<title>Slic3r::init_occt_fonts</title>
<!-- Node1 -->
<g id="Node000001" class="node">
<title>Node1</title>
<g id="a_Node000001"><a xlink:title=" ">
<polygon fill="#999999" stroke="#666666" points="110.5,-37.25 0,-37.25 0,-18 110.5,-18 110.5,-37.25"/>
<text text-anchor="middle" x="55.25" y="-23.75" font-family="Helvetica,sans-Serif" font-size="10.00">Slic3r::init_occt_fonts</text>
</a>
</g>
</g>
<!-- Node2 -->
<g id="Node000002" class="node">
<title>Node2</title>
<g id="a_Node000002"><a xlink:href="../../de/db8/namespace_slic3r.html#a3a2bb2069e333040b6b3c97afaab967d" target="_top" xlink:title=" ">
<polygon fill="white" stroke="#666666" points="250.25,-56.25 148,-56.25 148,-37 250.25,-37 250.25,-56.25"/>
<text text-anchor="middle" x="199.12" y="-42.75" font-family="Helvetica,sans-Serif" font-size="10.00">Slic3r::decode_path</text>
</a>
</g>
</g>
<!-- Node1&#45;&gt;Node2 -->
<g id="edge1_Node000001_Node000002" class="edge">
<title>Node1&#45;&gt;Node2</title>
<g id="a_edge1_Node000001_Node000002"><a xlink:title=" ">
<path fill="none" stroke="#63b8ff" d="M110.7,-34.92C119.27,-36.06 128.18,-37.26 136.89,-38.42"/>
<polygon fill="#63b8ff" stroke="#63b8ff" points="136.4,-42.02 146.78,-39.88 137.33,-35.09 136.4,-42.02"/>
</a>
</g>
</g>
<!-- Node5 -->
<g id="Node000005" class="node">
<title>Node5</title>
<g id="a_Node000005"><a xlink:href="../../de/db8/namespace_slic3r.html#a98b4dcd95032a990c6541512e9719696" target="_top" xlink:title=" ">
<polygon fill="white" stroke="#666666" points="251.75,-19.25 146.5,-19.25 146.5,0 251.75,0 251.75,-19.25"/>
<text text-anchor="middle" x="199.12" y="-5.75" font-family="Helvetica,sans-Serif" font-size="10.00">Slic3r::resources_dir</text>
</a>
</g>
</g>
<!-- Node1&#45;&gt;Node5 -->
<g id="edge4_Node000001_Node000005" class="edge">
<title>Node1&#45;&gt;Node5</title>
<g id="a_edge4_Node000001_Node000005"><a xlink:title=" ">
<path fill="none" stroke="#63b8ff" d="M110.7,-20.72C118.85,-19.68 127.3,-18.61 135.61,-17.56"/>
<polygon fill="#63b8ff" stroke="#63b8ff" points="135.91,-20.92 145.39,-16.19 135.03,-13.98 135.91,-20.92"/>
</a>
</g>
</g>
<!-- Node3 -->
<g id="Node000003" class="node">
<title>Node3</title>
<g id="a_Node000003"><a xlink:href="../../dd/dd5/namespaceboost_1_1nowide.html#a57f51167f2006647d49ff42859aff064" target="_top" xlink:title="Convert NULL terminated UTF source string to NULL terminated output string of size at most output_siz...">
<polygon fill="white" stroke="#666666" points="399.75,-56.25 287.75,-56.25 287.75,-37 399.75,-37 399.75,-56.25"/>
<text text-anchor="middle" x="343.75" y="-42.75" font-family="Helvetica,sans-Serif" font-size="10.00">boost::nowide::narrow</text>
</a>
</g>
</g>
<!-- Node2&#45;&gt;Node3 -->
<g id="edge2_Node000002_Node000003" class="edge">
<title>Node2&#45;&gt;Node3</title>
<g id="a_edge2_Node000002_Node000003"><a xlink:title=" ">
<path fill="none" stroke="#63b8ff" d="M250.41,-46.62C258.96,-46.62 267.96,-46.62 276.84,-46.62"/>
<polygon fill="#63b8ff" stroke="#63b8ff" points="276.58,-50.13 286.58,-46.62 276.58,-43.13 276.58,-50.13"/>
</a>
</g>
</g>
<!-- Node4 -->
<g id="Node000004" class="node">
<title>Node4</title>
<g id="a_Node000004"><a xlink:href="../../dd/dd5/namespaceboost_1_1nowide.html#abc7dfc4ebb4c462ec51da24506496b33" target="_top" xlink:title="Template function that converts a buffer of UTF sequences in range [source_begin,source_end) to the o...">
<polygon fill="white" stroke="#666666" points="541.75,-61.88 435.75,-61.88 435.75,-31.38 541.75,-31.38 541.75,-61.88"/>
<text text-anchor="start" x="443.75" y="-48.38" font-family="Helvetica,sans-Serif" font-size="10.00">boost::nowide::basic</text>
<text text-anchor="middle" x="488.75" y="-37.12" font-family="Helvetica,sans-Serif" font-size="10.00">_convert</text>
</a>
</g>
</g>
<!-- Node3&#45;&gt;Node4 -->
<g id="edge3_Node000003_Node000004" class="edge">
<title>Node3&#45;&gt;Node4</title>
<g id="a_edge3_Node000003_Node000004"><a xlink:title=" ">
<path fill="none" stroke="#63b8ff" d="M400.04,-46.62C408.03,-46.62 416.32,-46.62 424.46,-46.62"/>
<polygon fill="#63b8ff" stroke="#63b8ff" points="424.42,-50.13 434.42,-46.62 424.42,-43.13 424.42,-50.13"/>
</a>
</g>
</g>
</g>
</svg>
