<?xml version="1.0" encoding="UTF-8" standalone="no"?>
<!DOCTYPE svg PUBLIC "-//W3C//DTD SVG 1.1//EN"
 "http://www.w3.org/Graphics/SVG/1.1/DTD/svg11.dtd">
<!-- Generated by graphviz version 8.1.0 (20230707.0739)
 -->
<!-- Title: Slic3r::merge_contact_layers Pages: 1 -->
<svg width="648pt" height="94pt"
 viewBox="0.00 0.00 647.50 93.88" xmlns="http://www.w3.org/2000/svg" xmlns:xlink="http://www.w3.org/1999/xlink">
<g id="graph0" class="graph" transform="scale(1 1) rotate(0) translate(4 89.88)">
<title>Slic3r::merge_contact_layers</title>
<!-- Node1 -->
<g id="Node000001" class="node">
<title>Node1</title>
<g id="a_Node000001"><a xlink:title=" ">
<polygon fill="#999999" stroke="#666666" points="111.25,-60.5 0,-60.5 0,-30 111.25,-30 111.25,-60.5"/>
<text text-anchor="start" x="8" y="-47" font-family="Helvetica,sans-Serif" font-size="10.00">Slic3r::merge_contact</text>
<text text-anchor="middle" x="55.62" y="-35.75" font-family="Helvetica,sans-Serif" font-size="10.00">_layers</text>
</a>
</g>
</g>
<!-- Node1&#45;&gt;Node1 -->
<g id="edge8_Node000001_Node000001" class="edge">
<title>Node1&#45;&gt;Node1</title>
<g id="a_edge8_Node000001_Node000001"><a xlink:title=" ">
<path fill="none" stroke="#63b8ff" d="M27.94,-60.99C22.29,-70.06 31.52,-78.5 55.62,-78.5 69.19,-78.5 78.04,-75.83 82.18,-71.88"/>
<polygon fill="#63b8ff" stroke="#63b8ff" points="85.76,-72.29 83.31,-61.99 78.8,-71.57 85.76,-72.29"/>
</a>
</g>
</g>
<!-- Node2 -->
<g id="Node000002" class="node">
<title>Node2</title>
<g id="a_Node000002"><a xlink:href="../../de/db8/namespace_slic3r.html#a1e045f56a994b8cd4a5b203626cd8272" target="_top" xlink:title=" ">
<polygon fill="white" stroke="#666666" points="239,-85.88 184.75,-85.88 184.75,-66.62 239,-66.62 239,-85.88"/>
<text text-anchor="middle" x="211.88" y="-72.38" font-family="Helvetica,sans-Serif" font-size="10.00">Slic3r::l2</text>
</a>
</g>
</g>
<!-- Node1&#45;&gt;Node2 -->
<g id="edge1_Node000001_Node000002" class="edge">
<title>Node1&#45;&gt;Node2</title>
<g id="a_edge1_Node000001_Node000002"><a xlink:title=" ">
<path fill="none" stroke="#63b8ff" d="M111.44,-56.27C132.05,-60.41 154.98,-65.02 173.62,-68.76"/>
<polygon fill="#63b8ff" stroke="#63b8ff" points="172.84,-72.38 183.33,-70.92 174.22,-65.51 172.84,-72.38"/>
</a>
</g>
</g>
<!-- Node4 -->
<g id="Node000004" class="node">
<title>Node4</title>
<g id="a_Node000004"><a xlink:href="../../d9/d1a/class_slic3r_1_1_print_object_support_material_1_1_my_layer.html#a163538bc3b86b2ceabeae0804ddf8bda" target="_top" xlink:title=" ">
<polygon fill="white" stroke="#666666" points="276.5,-30.5 147.25,-30.5 147.25,0 276.5,0 276.5,-30.5"/>
<text text-anchor="start" x="155.25" y="-17" font-family="Helvetica,sans-Serif" font-size="10.00">Slic3r::PrintObjectSupport</text>
<text text-anchor="middle" x="211.88" y="-5.75" font-family="Helvetica,sans-Serif" font-size="10.00">Material::MyLayer::merge</text>
</a>
</g>
</g>
<!-- Node1&#45;&gt;Node4 -->
<g id="edge3_Node000001_Node000004" class="edge">
<title>Node1&#45;&gt;Node4</title>
<g id="a_edge3_Node000001_Node000004"><a xlink:title=" ">
<path fill="none" stroke="#63b8ff" d="M111.44,-34.59C119.48,-33.03 127.87,-31.39 136.22,-29.77"/>
<polygon fill="#63b8ff" stroke="#63b8ff" points="136.6,-33.07 145.75,-27.72 135.27,-26.2 136.6,-33.07"/>
</a>
</g>
</g>
<!-- Node3 -->
<g id="Node000003" class="node">
<title>Node3</title>
<g id="a_Node000003"><a xlink:href="../../de/db8/namespace_slic3r.html#adb8a52f0ebfe5a551577b3e530b40c47" target="_top" xlink:title=" ">
<polygon fill="white" stroke="#666666" points="380.25,-85.88 320,-85.88 320,-66.62 380.25,-66.62 380.25,-85.88"/>
<text text-anchor="middle" x="350.12" y="-72.38" font-family="Helvetica,sans-Serif" font-size="10.00">Slic3r::dot</text>
</a>
</g>
</g>
<!-- Node2&#45;&gt;Node3 -->
<g id="edge2_Node000002_Node000003" class="edge">
<title>Node2&#45;&gt;Node3</title>
<g id="a_edge2_Node000002_Node000003"><a xlink:title=" ">
<path fill="none" stroke="#63b8ff" d="M239.47,-76.25C259.21,-76.25 286.48,-76.25 308.88,-76.25"/>
<polygon fill="#63b8ff" stroke="#63b8ff" points="308.76,-79.75 318.76,-76.25 308.76,-72.75 308.76,-79.75"/>
</a>
</g>
</g>
<!-- Node4&#45;&gt;Node4 -->
<g id="edge4_Node000004_Node000004" class="edge">
<title>Node4&#45;&gt;Node4</title>
<g id="a_edge4_Node000004_Node000004"><a xlink:title=" ">
<path fill="none" stroke="#63b8ff" d="M187.38,-30.99C182.38,-40.06 190.54,-48.5 211.88,-48.5 223.87,-48.5 231.71,-45.83 235.37,-41.88"/>
<polygon fill="#63b8ff" stroke="#63b8ff" points="238.95,-42.26 236.37,-31.99 231.97,-41.62 238.95,-42.26"/>
</a>
</g>
</g>
<!-- Node5 -->
<g id="Node000005" class="node">
<title>Node5</title>
<g id="a_Node000005"><a xlink:href="../../de/db8/namespace_slic3r.html#a015388ff0752a25649a975078f7a5431" target="_top" xlink:title=" ">
<polygon fill="white" stroke="#666666" points="387.75,-24.88 312.5,-24.88 312.5,-5.62 387.75,-5.62 387.75,-24.88"/>
<text text-anchor="middle" x="350.12" y="-11.38" font-family="Helvetica,sans-Serif" font-size="10.00">Slic3r::union_</text>
</a>
</g>
</g>
<!-- Node4&#45;&gt;Node5 -->
<g id="edge5_Node000004_Node000005" class="edge">
<title>Node4&#45;&gt;Node5</title>
<g id="a_edge5_Node000004_Node000005"><a xlink:title=" ">
<path fill="none" stroke="#63b8ff" d="M276.61,-15.25C284.9,-15.25 293.27,-15.25 301.23,-15.25"/>
<polygon fill="#63b8ff" stroke="#63b8ff" points="301.18,-18.75 311.18,-15.25 301.18,-11.75 301.18,-18.75"/>
</a>
</g>
</g>
<!-- Node6 -->
<g id="Node000006" class="node">
<title>Node6</title>
<g id="a_Node000006"><a xlink:href="../../de/db8/namespace_slic3r.html#a440bb1d57671f454ad4fab4f192430cf" target="_top" xlink:title=" ">
<polygon fill="white" stroke="#666666" points="504.25,-24.88 423.75,-24.88 423.75,-5.62 504.25,-5.62 504.25,-24.88"/>
<text text-anchor="middle" x="464" y="-11.38" font-family="Helvetica,sans-Serif" font-size="10.00">Slic3r::_clipper</text>
</a>
</g>
</g>
<!-- Node5&#45;&gt;Node6 -->
<g id="edge6_Node000005_Node000006" class="edge">
<title>Node5&#45;&gt;Node6</title>
<g id="a_edge6_Node000005_Node000006"><a xlink:title=" ">
<path fill="none" stroke="#63b8ff" d="M388.07,-15.25C395.94,-15.25 404.39,-15.25 412.67,-15.25"/>
<polygon fill="#63b8ff" stroke="#63b8ff" points="412.4,-18.75 422.4,-15.25 412.4,-11.75 412.4,-18.75"/>
</a>
</g>
</g>
<!-- Node7 -->
<g id="Node000007" class="node">
<title>Node7</title>
<g id="a_Node000007"><a xlink:href="../../de/db8/namespace_slic3r.html#a843ba2fe16b213f550fb3d55c55a716e" target="_top" xlink:title=" ">
<polygon fill="white" stroke="#666666" points="639.5,-24.88 540.25,-24.88 540.25,-5.62 639.5,-5.62 639.5,-24.88"/>
<text text-anchor="middle" x="589.88" y="-11.38" font-family="Helvetica,sans-Serif" font-size="10.00">Slic3r::to_polygons</text>
</a>
</g>
</g>
<!-- Node6&#45;&gt;Node7 -->
<g id="edge7_Node000006_Node000007" class="edge">
<title>Node6&#45;&gt;Node7</title>
<g id="a_edge7_Node000006_Node000007"><a xlink:title=" ">
<path fill="none" stroke="#63b8ff" d="M504.54,-15.25C512.41,-15.25 520.85,-15.25 529.23,-15.25"/>
<polygon fill="#63b8ff" stroke="#63b8ff" points="529.16,-18.75 539.16,-15.25 529.16,-11.75 529.16,-18.75"/>
</a>
</g>
</g>
</g>
</svg>
