<?xml version="1.0" encoding="UTF-8" standalone="no"?>
<!DOCTYPE svg PUBLIC "-//W3C//DTD SVG 1.1//EN"
 "http://www.w3.org/Graphics/SVG/1.1/DTD/svg11.dtd">
<!-- Generated by graphviz version 8.1.0 (20230707.0739)
 -->
<!-- Title: Slic3r::chain_segments_greedy_constrained_reversals2_ Pages: 1 -->
<svg width="458pt" height="260pt"
 viewBox="0.00 0.00 458.00 259.50" xmlns="http://www.w3.org/2000/svg" xmlns:xlink="http://www.w3.org/1999/xlink">
<g id="graph0" class="graph" transform="scale(1 1) rotate(0) translate(4 255.5)">
<title>Slic3r::chain_segments_greedy_constrained_reversals2_</title>
<!-- Node1 -->
<g id="Node000001" class="node">
<title>Node1</title>
<g id="a_Node000001"><a xlink:title=" ">
<polygon fill="#999999" stroke="#666666" points="161.5,-208.5 0,-208.5 0,-178 161.5,-178 161.5,-208.5"/>
<text text-anchor="start" x="8" y="-195" font-family="Helvetica,sans-Serif" font-size="10.00">Slic3r::chain_segments</text>
<text text-anchor="middle" x="80.75" y="-183.75" font-family="Helvetica,sans-Serif" font-size="10.00">_greedy_constrained_reversals2_</text>
</a>
</g>
</g>
<!-- Node1&#45;&gt;Node1 -->
<g id="edge1_Node000001_Node000001" class="edge">
<title>Node1&#45;&gt;Node1</title>
<g id="a_edge1_Node000001_Node000001"><a xlink:title=" ">
<path fill="none" stroke="#63b8ff" d="M51.47,-208.99C45.49,-218.06 55.25,-226.5 80.75,-226.5 95.09,-226.5 104.46,-223.83 108.84,-219.88"/>
<polygon fill="#63b8ff" stroke="#63b8ff" points="112.42,-220.31 110.03,-209.99 105.46,-219.55 112.42,-220.31"/>
</a>
</g>
</g>
<!-- Node2 -->
<g id="Node000002" class="node">
<title>Node2</title>
<g id="a_Node000002"><a xlink:href="../../de/db8/namespace_slic3r.html#aa0f7003178301f2057b13f48af89795a" target="_top" xlink:title=" ">
<polygon fill="white" stroke="#666666" points="439.88,-251.5 340.62,-251.5 340.62,-221 439.88,-221 439.88,-251.5"/>
<text text-anchor="start" x="348.62" y="-238" font-family="Helvetica,sans-Serif" font-size="10.00">Slic3r::find_closest</text>
<text text-anchor="middle" x="390.25" y="-226.75" font-family="Helvetica,sans-Serif" font-size="10.00">_point</text>
</a>
</g>
</g>
<!-- Node1&#45;&gt;Node2 -->
<g id="edge2_Node000001_Node000002" class="edge">
<title>Node1&#45;&gt;Node2</title>
<g id="a_edge2_Node000001_Node000002"><a xlink:title=" ">
<path fill="none" stroke="#63b8ff" d="M151.62,-208.98C166.7,-212.02 182.59,-214.97 197.5,-217.25 241.44,-223.96 291.43,-228.83 329.35,-231.95"/>
<polygon fill="#63b8ff" stroke="#63b8ff" points="328.96,-235.51 339.21,-232.83 329.52,-228.53 328.96,-235.51"/>
</a>
</g>
</g>
<!-- Node3 -->
<g id="Node000003" class="node">
<title>Node3</title>
<g id="a_Node000003"><a xlink:href="../../de/db8/namespace_slic3r.html#a61faefe0055ad2fdc55a1109f16247ba" target="_top" xlink:title=" ">
<polygon fill="white" stroke="#666666" points="294.5,-208.5 197.5,-208.5 197.5,-178 294.5,-178 294.5,-208.5"/>
<text text-anchor="start" x="205.5" y="-195" font-family="Helvetica,sans-Serif" font-size="10.00">Slic3r::update_end</text>
<text text-anchor="middle" x="246" y="-183.75" font-family="Helvetica,sans-Serif" font-size="10.00">_point_in_queue</text>
</a>
</g>
</g>
<!-- Node1&#45;&gt;Node3 -->
<g id="edge3_Node000001_Node000003" class="edge">
<title>Node1&#45;&gt;Node3</title>
<g id="a_edge3_Node000001_Node000003"><a xlink:title=" ">
<path fill="none" stroke="#63b8ff" d="M161.94,-193.25C170.16,-193.25 178.4,-193.25 186.33,-193.25"/>
<polygon fill="#63b8ff" stroke="#63b8ff" points="186.29,-196.75 196.29,-193.25 186.29,-189.75 186.29,-196.75"/>
</a>
</g>
</g>
<!-- Node4 -->
<g id="Node000004" class="node">
<title>Node4</title>
<g id="a_Node000004"><a xlink:href="../../de/db8/namespace_slic3r.html#a0824a1d4498b0edfa6f3e4b35c009df2" target="_top" xlink:title=" ">
<polygon fill="white" stroke="#666666" points="286.25,-138.88 205.75,-138.88 205.75,-119.62 286.25,-119.62 286.25,-138.88"/>
<text text-anchor="middle" x="246" y="-125.38" font-family="Helvetica,sans-Serif" font-size="10.00">Slic3r::validate</text>
</a>
</g>
</g>
<!-- Node1&#45;&gt;Node4 -->
<g id="edge5_Node000001_Node000004" class="edge">
<title>Node1&#45;&gt;Node4</title>
<g id="a_edge5_Node000001_Node000004"><a xlink:title=" ">
<path fill="none" stroke="#63b8ff" d="M121.69,-177.59C148.4,-167.12 183.26,-153.46 209.09,-143.33"/>
<polygon fill="#63b8ff" stroke="#63b8ff" points="210.18,-146.27 218.22,-139.36 207.63,-139.75 210.18,-146.27"/>
</a>
</g>
</g>
<!-- Node3&#45;&gt;Node2 -->
<g id="edge4_Node000003_Node000002" class="edge">
<title>Node3&#45;&gt;Node2</title>
<g id="a_edge4_Node000003_Node000002"><a xlink:title=" ">
<path fill="none" stroke="#63b8ff" d="M294.76,-207.69C306.12,-211.12 318.38,-214.83 330.18,-218.39"/>
<polygon fill="#63b8ff" stroke="#63b8ff" points="328.81,-221.94 339.4,-221.48 330.84,-215.24 328.81,-221.94"/>
</a>
</g>
</g>
<!-- Node5 -->
<g id="Node000005" class="node">
<title>Node5</title>
<g id="a_Node000005"><a xlink:href="../../d8/d3c/class_slic3r_1_1_config_def.html#a5c965f6ca20611f3afb93d4d51ac2b46" target="_top" xlink:title=" ">
<polygon fill="white" stroke="#666666" points="445.5,-202.88 335,-202.88 335,-183.62 445.5,-183.62 445.5,-202.88"/>
<text text-anchor="middle" x="390.25" y="-189.38" font-family="Helvetica,sans-Serif" font-size="10.00">Slic3r::ConfigDef::get</text>
</a>
</g>
</g>
<!-- Node4&#45;&gt;Node5 -->
<g id="edge6_Node000004_Node000005" class="edge">
<title>Node4&#45;&gt;Node5</title>
<g id="a_edge6_Node000004_Node000005"><a xlink:title=" ">
<path fill="none" stroke="#63b8ff" d="M263.51,-139.31C280.04,-149.1 306.42,-163.97 330.5,-174.25 334.89,-176.12 339.53,-177.92 344.2,-179.61"/>
<polygon fill="#63b8ff" stroke="#63b8ff" points="342.79,-183.17 353.38,-183.13 345.07,-176.55 342.79,-183.17"/>
</a>
</g>
</g>
<!-- Node6 -->
<g id="Node000006" class="node">
<title>Node6</title>
<g id="a_Node000006"><a xlink:href="../../d1/dce/class_slic3r_1_1_config_option_def.html#ae74ef9773bba47167f5a922910e756f7" target="_top" xlink:title=" ">
<polygon fill="white" stroke="#666666" points="450,-165.5 330.5,-165.5 330.5,-135 450,-135 450,-165.5"/>
<text text-anchor="start" x="338.5" y="-152" font-family="Helvetica,sans-Serif" font-size="10.00">Slic3r::ConfigOptionDef</text>
<text text-anchor="middle" x="390.25" y="-140.75" font-family="Helvetica,sans-Serif" font-size="10.00">::has_enum_value</text>
</a>
</g>
</g>
<!-- Node4&#45;&gt;Node6 -->
<g id="edge7_Node000004_Node000006" class="edge">
<title>Node4&#45;&gt;Node6</title>
<g id="a_edge7_Node000004_Node000006"><a xlink:title=" ">
<path fill="none" stroke="#63b8ff" d="M286.62,-135.1C296.84,-136.61 308.15,-138.28 319.41,-139.94"/>
<polygon fill="#63b8ff" stroke="#63b8ff" points="318.75,-143.53 329.15,-141.53 319.77,-136.6 318.75,-143.53"/>
</a>
</g>
</g>
<!-- Node7 -->
<g id="Node000007" class="node">
<title>Node7</title>
<g id="a_Node000007"><a xlink:href="../../df/db1/math_8h.html#a04a32cd137f4e2dc222aca71df9edb1b" target="_top" xlink:title=" ">
<polygon fill="white" stroke="#666666" points="406.12,-116.88 374.38,-116.88 374.38,-97.62 406.12,-97.62 406.12,-116.88"/>
<text text-anchor="middle" x="390.25" y="-103.38" font-family="Helvetica,sans-Serif" font-size="10.00">min</text>
</a>
</g>
</g>
<!-- Node4&#45;&gt;Node7 -->
<g id="edge8_Node000004_Node000007" class="edge">
<title>Node4&#45;&gt;Node7</title>
<g id="a_edge8_Node000004_Node000007"><a xlink:title=" ">
<path fill="none" stroke="#63b8ff" d="M286.62,-123.12C311.04,-119.35 341.66,-114.61 363.08,-111.3"/>
<polygon fill="#63b8ff" stroke="#63b8ff" points="363.58,-114.61 372.93,-109.62 362.51,-107.69 363.58,-114.61"/>
</a>
</g>
</g>
<!-- Node8 -->
<g id="Node000008" class="node">
<title>Node8</title>
<g id="a_Node000008"><a xlink:href="../../de/d87/class_slic3r_1_1_config_option.html#ac1c4ee8190f3eadc8a12ad94f9d5ae76" target="_top" xlink:title=" ">
<polygon fill="white" stroke="#666666" points="442.12,-79.5 338.38,-79.5 338.38,-49 442.12,-49 442.12,-79.5"/>
<text text-anchor="start" x="346.38" y="-66" font-family="Helvetica,sans-Serif" font-size="10.00">Slic3r::ConfigOption</text>
<text text-anchor="middle" x="390.25" y="-54.75" font-family="Helvetica,sans-Serif" font-size="10.00">::serialize</text>
</a>
</g>
</g>
<!-- Node4&#45;&gt;Node8 -->
<g id="edge9_Node000004_Node000008" class="edge">
<title>Node4&#45;&gt;Node8</title>
<g id="a_edge9_Node000004_Node000008"><a xlink:title=" ">
<path fill="none" stroke="#63b8ff" d="M266.39,-119.26C283.2,-110.71 308.25,-98.24 330.5,-88.25 333.52,-86.89 336.64,-85.53 339.79,-84.17"/>
<polygon fill="#63b8ff" stroke="#63b8ff" points="341.06,-87.01 348.9,-79.89 338.33,-80.56 341.06,-87.01"/>
</a>
</g>
</g>
<!-- Node9 -->
<g id="Node000009" class="node">
<title>Node9</title>
<g id="a_Node000009"><a xlink:href="../../de/d87/class_slic3r_1_1_config_option.html#a8a5965c6789289224db04d29868331e1" target="_top" xlink:title=" ">
<polygon fill="white" stroke="#666666" points="442.12,-30.5 338.38,-30.5 338.38,0 442.12,0 442.12,-30.5"/>
<text text-anchor="start" x="346.38" y="-17" font-family="Helvetica,sans-Serif" font-size="10.00">Slic3r::ConfigOption</text>
<text text-anchor="middle" x="390.25" y="-5.75" font-family="Helvetica,sans-Serif" font-size="10.00">::type</text>
</a>
</g>
</g>
<!-- Node4&#45;&gt;Node9 -->
<g id="edge10_Node000004_Node000009" class="edge">
<title>Node4&#45;&gt;Node9</title>
<g id="a_edge10_Node000004_Node000009"><a xlink:title=" ">
<path fill="none" stroke="#63b8ff" d="M254.21,-119.15C267.49,-101.16 297.5,-63.3 330.5,-40.25 332.65,-38.75 334.9,-37.31 337.22,-35.94"/>
<polygon fill="#63b8ff" stroke="#63b8ff" points="338.27,-38.81 345.4,-30.98 334.94,-32.65 338.27,-38.81"/>
</a>
</g>
</g>
</g>
</svg>
