<?xml version="1.0" encoding="UTF-8" standalone="no"?>
<!DOCTYPE svg PUBLIC "-//W3C//DTD SVG 1.1//EN"
 "http://www.w3.org/Graphics/SVG/1.1/DTD/svg11.dtd">
<!-- Generated by graphviz version 8.1.0 (20230707.0739)
 -->
<!-- Title: Slic3r::model_mmu_segmentation_data_changed Pages: 1 -->
<!--zoomable 174 -->

<svg id="main" version="1.1" xmlns="http://www.w3.org/2000/svg" xmlns:xlink="http://www.w3.org/1999/xlink" xml:space="preserve" onload="init(evt)">
<style type="text/css"><![CDATA[
.node, .edge {opacity: 0.7;}
.node.selected, .edge.selected {opacity: 1;}
.edge:hover path { stroke: red; }
.edge:hover polygon { stroke: red; fill: red; }
]]></style>

<defs>
  <circle id="rim" cx="0" cy="0" r="7"/>
  <circle id="rim2" cx="0" cy="0" r="3.5"/>
  <g id="zoomPlus">
    <use xlink:href="#rim" fill="#404040"><set attributeName="fill" to="#808080" begin="zoomplus.mouseover" end="zoomplus.mouseout"/></use>
    <path d="M-4,0h8M0,-4v8" fill="none" stroke="white" stroke-width="1.5" pointer-events="none"/>
  </g>
  <g id="zoomMin">
    <use xlink:href="#rim" fill="#404040"><set attributeName="fill" to="#808080" begin="zoomminus.mouseover" end="zoomminus.mouseout"/></use>
    <path d="M-4,0h8" fill="none" stroke="white" stroke-width="1.5" pointer-events="none"/>
  </g>
  <g id="arrowUp" transform="translate(30 24)">
    <use xlink:href="#rim"/>
    <path pointer-events="none" fill="none" stroke="white" stroke-width="1.5" d="M0,-3.0v7 M-2.5,-0.5L0,-3.0L2.5,-0.5"/>
  </g>
  <g id="arrowRight" transform="rotate(90) translate(36 -43)">
    <use xlink:href="#rim"/>
    <path pointer-events="none" fill="none" stroke="white" stroke-width="1.5" d="M0,-3.0v7 M-2.5,-0.5L0,-3.0L2.5,-0.5"/>
  </g>
  <g id="arrowDown" transform="rotate(180) translate(-30 -48)">
    <use xlink:href="#rim"/>
    <path pointer-events="none" fill="none" stroke="white" stroke-width="1.5" d="M0,-3.0v7 M-2.5,-0.5L0,-3.0L2.5,-0.5"/>
  </g>
  <g id="arrowLeft" transform="rotate(270) translate(-36 17)">
    <use xlink:href="#rim"/>
    <path pointer-events="none" fill="none" stroke="white" stroke-width="1.5" d="M0,-3.0v7 M-2.5,-0.5L0,-3.0L2.5,-0.5"/>
  </g>
  <g id="resetDef">
    <use xlink:href="#rim2" fill="#404040"><set attributeName="fill" to="#808080" begin="reset.mouseover" end="reset.mouseout"/></use>
  </g>
</defs>
<script type="application/ecmascript">
var viewWidth = 1063;
var viewHeight = 174;
var sectionId = 'dynsection-1154';
</script>
<script type="application/ecmascript" xlink:href="../../svg.min.js"/>
<svg id="graph" class="graph">
<g id="viewport">
<title>Slic3r::model_mmu_segmentation_data_changed</title>
<!-- Node1 -->
<g id="Node000001" class="node">
<title>Node1</title>
<g id="a_Node000001"><a xlink:title=" ">
<polygon fill="#999999" stroke="#666666" points="163.75,-59.5 0,-59.5 0,-29 163.75,-29 163.75,-59.5"/>
<text text-anchor="start" x="8" y="-46" font-family="Helvetica,sans-Serif" font-size="10.00">Slic3r::model_mmu_segmentation</text>
<text text-anchor="middle" x="81.88" y="-34.75" font-family="Helvetica,sans-Serif" font-size="10.00">_data_changed</text>
</a>
</g>
</g>
<!-- Node2 -->
<g id="Node000002" class="node">
<title>Node2</title>
<g id="a_Node000002"><a xlink:href="../../de/db8/namespace_slic3r.html#a705d7cd806a02dcd9f86e67b32bab591" target="_top" xlink:title=" ">
<polygon fill="white" stroke="#666666" points="328.62,-84.5 215.12,-84.5 215.12,-54 328.62,-54 328.62,-84.5"/>
<text text-anchor="start" x="223.12" y="-71" font-family="Helvetica,sans-Serif" font-size="10.00">Slic3r::model_property</text>
<text text-anchor="middle" x="271.88" y="-59.75" font-family="Helvetica,sans-Serif" font-size="10.00">_changed</text>
</a>
</g>
</g>
<!-- Node1&#45;&gt;Node2 -->
<g id="edge1_Node000001_Node000002" class="edge">
<title>Node1&#45;&gt;Node2</title>
<g id="a_edge1_Node000001_Node000002"><a xlink:title=" ">
<path fill="none" stroke="#63b8ff" d="M164.24,-55.07C177.58,-56.84 191.26,-58.66 204.18,-60.38"/>
<polygon fill="#63b8ff" stroke="#63b8ff" points="203.46,-63.95 213.84,-61.8 204.39,-57.01 203.46,-63.95"/>
</a>
</g>
</g>
<!-- Node18 -->
<g id="Node000018" class="node">
<title>Node18</title>
<g id="a_Node000018"><a xlink:href="../../da/d88/class_slic3r_1_1_object_with_timestamp.html#a6683b5a9a8c275c09792d5e75f058a21" target="_top" xlink:title=" ">
<polygon fill="white" stroke="#666666" points="344,-35.5 199.75,-35.5 199.75,-5 344,-5 344,-35.5"/>
<text text-anchor="start" x="207.75" y="-22" font-family="Helvetica,sans-Serif" font-size="10.00">Slic3r::ObjectWithTimestamp</text>
<text text-anchor="middle" x="271.88" y="-10.75" font-family="Helvetica,sans-Serif" font-size="10.00">::timestamp_matches</text>
</a>
</g>
</g>
<!-- Node1&#45;&gt;Node18 -->
<g id="edge13_Node000001_Node000018" class="edge">
<title>Node1&#45;&gt;Node18</title>
<g id="a_edge13_Node000001_Node000018"><a xlink:title=" ">
<path fill="none" stroke="#63b8ff" d="M164.24,-33.86C172.29,-32.84 180.47,-31.79 188.53,-30.76"/>
<polygon fill="#63b8ff" stroke="#63b8ff" points="188.95,-34.11 198.43,-29.37 188.06,-27.17 188.95,-34.11"/>
</a>
</g>
</g>
<!-- Node3 -->
<g id="Node000003" class="node">
<title>Node3</title>
<g id="a_Node000003"><a xlink:href="../../d9/d98/class_slic3r_1_1_object_base.html#afd34129dc2c72863ef538b184d2da4fe" target="_top" xlink:title=" ">
<polygon fill="white" stroke="#666666" points="649,-153.88 537.75,-153.88 537.75,-134.62 649,-134.62 649,-153.88"/>
<text text-anchor="middle" x="593.38" y="-140.38" font-family="Helvetica,sans-Serif" font-size="10.00">Slic3r::ObjectBase::id</text>
</a>
</g>
</g>
<!-- Node2&#45;&gt;Node3 -->
<g id="edge2_Node000002_Node000003" class="edge">
<title>Node2&#45;&gt;Node3</title>
<g id="a_edge2_Node000002_Node000003"><a xlink:title=" ">
<path fill="none" stroke="#63b8ff" d="M328.89,-82.4C388.2,-96.32 481.11,-118.13 539.28,-131.79"/>
<polygon fill="#63b8ff" stroke="#63b8ff" points="538.19,-135.36 548.72,-134.24 539.79,-128.54 538.19,-135.36"/>
</a>
</g>
</g>
<!-- Node4 -->
<g id="Node000004" class="node">
<title>Node4</title>
<g id="a_Node000004"><a xlink:href="../../de/db8/namespace_slic3r.html#ac33340ea590075d7d51ccc19de474ccb" target="_top" xlink:title=" ">
<polygon fill="white" stroke="#666666" points="489.75,-84.5 380,-84.5 380,-54 489.75,-54 489.75,-84.5"/>
<text text-anchor="start" x="388" y="-71" font-family="Helvetica,sans-Serif" font-size="10.00">Slic3r::model_volume</text>
<text text-anchor="middle" x="434.88" y="-59.75" font-family="Helvetica,sans-Serif" font-size="10.00">_list_changed</text>
</a>
</g>
</g>
<!-- Node2&#45;&gt;Node4 -->
<g id="edge3_Node000002_Node000004" class="edge">
<title>Node2&#45;&gt;Node4</title>
<g id="a_edge3_Node000002_Node000004"><a xlink:title=" ">
<path fill="none" stroke="#63b8ff" d="M328.73,-69.25C341.65,-69.25 355.5,-69.25 368.77,-69.25"/>
<polygon fill="#63b8ff" stroke="#63b8ff" points="368.74,-72.75 378.74,-69.25 368.74,-65.75 368.74,-72.75"/>
</a>
</g>
</g>
<!-- Node17 -->
<g id="Node000017" class="node">
<title>Node17</title>
<g id="a_Node000017"><a xlink:href="../../d0/d02/class_slic3r_1_1_model_volume.html#ad0231c96ba1792450876ddcf42d9a0cf" target="_top" xlink:title=" ">
<polygon fill="white" stroke="#666666" points="646.38,-30.5 540.38,-30.5 540.38,0 646.38,0 646.38,-30.5"/>
<text text-anchor="start" x="548.38" y="-17" font-family="Helvetica,sans-Serif" font-size="10.00">Slic3r::ModelVolume</text>
<text text-anchor="middle" x="593.38" y="-5.75" font-family="Helvetica,sans-Serif" font-size="10.00">::type</text>
</a>
</g>
</g>
<!-- Node2&#45;&gt;Node17 -->
<g id="edge12_Node000002_Node000017" class="edge">
<title>Node2&#45;&gt;Node17</title>
<g id="a_edge12_Node000002_Node000017"><a xlink:title=" ">
<path fill="none" stroke="#63b8ff" d="M328.86,-55.82C345.28,-52.12 363.31,-48.29 380,-45.25 430.04,-36.12 487.15,-28.2 529.54,-22.78"/>
<polygon fill="#63b8ff" stroke="#63b8ff" points="529.77,-26.16 539.26,-21.43 528.9,-19.21 529.77,-26.16"/>
</a>
</g>
</g>
<!-- Node4&#45;&gt;Node3 -->
<g id="edge9_Node000004_Node000003" class="edge">
<title>Node4&#45;&gt;Node3</title>
<g id="a_edge9_Node000004_Node000003"><a xlink:title=" ">
<path fill="none" stroke="#63b8ff" d="M457.09,-84.85C474.73,-97.22 500.88,-114.22 525.75,-125.25 530.32,-127.28 535.16,-129.15 540.07,-130.86"/>
<polygon fill="#63b8ff" stroke="#63b8ff" points="538.57,-134.37 549.16,-134.14 540.73,-127.72 538.57,-134.37"/>
</a>
</g>
</g>
<!-- Node5 -->
<g id="Node000005" class="node">
<title>Node5</title>
<g id="a_Node000005"><a xlink:href="../../d0/d02/class_slic3r_1_1_model_volume.html#a22b10a4b0255791c3f06112c3f1c2468" target="_top" xlink:title=" ">
<polygon fill="white" stroke="#666666" points="646.38,-116.5 540.38,-116.5 540.38,-86 646.38,-86 646.38,-116.5"/>
<text text-anchor="start" x="548.38" y="-103" font-family="Helvetica,sans-Serif" font-size="10.00">Slic3r::ModelVolume</text>
<text text-anchor="middle" x="593.38" y="-91.75" font-family="Helvetica,sans-Serif" font-size="10.00">::get_matrix</text>
</a>
</g>
</g>
<!-- Node4&#45;&gt;Node5 -->
<g id="edge4_Node000004_Node000005" class="edge">
<title>Node4&#45;&gt;Node5</title>
<g id="a_edge4_Node000004_Node000005"><a xlink:title=" ">
<path fill="none" stroke="#63b8ff" d="M490.17,-80.35C502.79,-82.93 516.34,-85.7 529.3,-88.35"/>
<polygon fill="#63b8ff" stroke="#63b8ff" points="528.52,-91.97 539.02,-90.54 529.92,-85.11 528.52,-91.97"/>
</a>
</g>
</g>
<!-- Node16 -->
<g id="Node000016" class="node">
<title>Node16</title>
<g id="a_Node000016"><a xlink:href="../../d5/d00/group___geometry___module.html#aa8aabb371eb391a0d1fa0134b34ae376" target="_top" xlink:title=" ">
<polygon fill="white" stroke="#666666" points="661,-67.88 525.75,-67.88 525.75,-48.62 661,-48.62 661,-67.88"/>
<text text-anchor="middle" x="593.38" y="-54.38" font-family="Helvetica,sans-Serif" font-size="10.00">Eigen::Transform::isApprox</text>
</a>
</g>
</g>
<!-- Node4&#45;&gt;Node16 -->
<g id="edge10_Node000004_Node000016" class="edge">
<title>Node4&#45;&gt;Node16</title>
<g id="a_edge10_Node000004_Node000016"><a xlink:title=" ">
<path fill="none" stroke="#63b8ff" d="M490.17,-65.43C498.09,-64.88 506.37,-64.29 514.64,-63.71"/>
<polygon fill="#63b8ff" stroke="#63b8ff" points="514.75,-67.14 524.48,-62.95 514.26,-60.16 514.75,-67.14"/>
</a>
</g>
</g>
<!-- Node4&#45;&gt;Node17 -->
<g id="edge11_Node000004_Node000017" class="edge">
<title>Node4&#45;&gt;Node17</title>
<g id="a_edge11_Node000004_Node000017"><a xlink:title=" ">
<path fill="none" stroke="#63b8ff" d="M481.14,-53.63C498.5,-47.64 518.52,-40.73 536.74,-34.45"/>
<polygon fill="#63b8ff" stroke="#63b8ff" points="537.63,-37.5 545.94,-30.93 535.34,-30.88 537.63,-37.5"/>
</a>
</g>
</g>
<!-- Node6 -->
<g id="Node000006" class="node">
<title>Node6</title>
<g id="a_Node000006"><a xlink:href="../../d6/d28/class_slic3r_1_1_geometry_1_1_transformation.html#a0fc8663b2798bffa7d5d7db77f259573" target="_top" xlink:title=" ">
<polygon fill="white" stroke="#666666" points="857.75,-116.5 697,-116.5 697,-86 857.75,-86 857.75,-116.5"/>
<text text-anchor="start" x="705" y="-103" font-family="Helvetica,sans-Serif" font-size="10.00">Slic3r::Geometry::Transformation</text>
<text text-anchor="middle" x="777.38" y="-91.75" font-family="Helvetica,sans-Serif" font-size="10.00">::get_matrix</text>
</a>
</g>
</g>
<!-- Node5&#45;&gt;Node6 -->
<g id="edge5_Node000005_Node000006" class="edge">
<title>Node5&#45;&gt;Node6</title>
<g id="a_edge5_Node000005_Node000006"><a xlink:title=" ">
<path fill="none" stroke="#63b8ff" d="M646.53,-101.25C658.88,-101.25 672.4,-101.25 685.91,-101.25"/>
<polygon fill="#63b8ff" stroke="#63b8ff" points="685.72,-104.75 695.72,-101.25 685.72,-97.75 685.72,-104.75"/>
</a>
</g>
</g>
<!-- Node7 -->
<g id="Node000007" class="node">
<title>Node7</title>
<g id="a_Node000007"><a xlink:href="../../d3/dfb/namespace_slic3r_1_1_geometry.html#a247db7c57d65503266afb6dc7fe70a0f" target="_top" xlink:title=" ">
<polygon fill="#fff0f0" stroke="red" points="1042.88,-165.5 905.38,-165.5 905.38,-135 1042.88,-135 1042.88,-165.5"/>
<text text-anchor="start" x="913.38" y="-152" font-family="Helvetica,sans-Serif" font-size="10.00">Slic3r::Geometry::assemble</text>
<text text-anchor="middle" x="974.12" y="-140.75" font-family="Helvetica,sans-Serif" font-size="10.00">_transform</text>
</a>
</g>
</g>
<!-- Node6&#45;&gt;Node7 -->
<g id="edge6_Node000006_Node000007" class="edge">
<title>Node6&#45;&gt;Node7</title>
<g id="a_edge6_Node000006_Node000007"><a xlink:title=" ">
<path fill="none" stroke="#63b8ff" d="M840.8,-116.96C859.75,-121.73 880.75,-127.01 900.32,-131.93"/>
<polygon fill="#63b8ff" stroke="#63b8ff" points="899.17,-135.5 909.72,-134.55 900.88,-128.71 899.17,-135.5"/>
</a>
</g>
</g>
<!-- Node14 -->
<g id="Node000014" class="node">
<title>Node14</title>
<g id="a_Node000014"><a xlink:href="../../d9/d8b/struct_slic3r_1_1_geometry_1_1_transformation_1_1_flags.html#a056f4811f4143739ca060103a97a8f0a" target="_top" xlink:title=" ">
<polygon fill="white" stroke="#666666" points="1054.5,-116.5 893.75,-116.5 893.75,-86 1054.5,-86 1054.5,-116.5"/>
<text text-anchor="start" x="901.75" y="-103" font-family="Helvetica,sans-Serif" font-size="10.00">Slic3r::Geometry::Transformation</text>
<text text-anchor="middle" x="974.12" y="-91.75" font-family="Helvetica,sans-Serif" font-size="10.00">::Flags::needs_update</text>
</a>
</g>
</g>
<!-- Node6&#45;&gt;Node14 -->
<g id="edge7_Node000006_Node000014" class="edge">
<title>Node6&#45;&gt;Node14</title>
<g id="a_edge7_Node000006_Node000014"><a xlink:title=" ">
<path fill="none" stroke="#63b8ff" d="M858.15,-101.25C866.26,-101.25 874.53,-101.25 882.74,-101.25"/>
<polygon fill="#63b8ff" stroke="#63b8ff" points="882.47,-104.75 892.47,-101.25 882.47,-97.75 882.47,-104.75"/>
</a>
</g>
</g>
<!-- Node15 -->
<g id="Node000015" class="node">
<title>Node15</title>
<g id="a_Node000015"><a xlink:href="../../d9/d8b/struct_slic3r_1_1_geometry_1_1_transformation_1_1_flags.html#a7780cfb830da06dad0d1fe88c1394b3b" target="_top" xlink:title=" ">
<polygon fill="white" stroke="#666666" points="1054.5,-67.5 893.75,-67.5 893.75,-37 1054.5,-37 1054.5,-67.5"/>
<text text-anchor="start" x="901.75" y="-54" font-family="Helvetica,sans-Serif" font-size="10.00">Slic3r::Geometry::Transformation</text>
<text text-anchor="middle" x="974.12" y="-42.75" font-family="Helvetica,sans-Serif" font-size="10.00">::Flags::set</text>
</a>
</g>
</g>
<!-- Node6&#45;&gt;Node15 -->
<g id="edge8_Node000006_Node000015" class="edge">
<title>Node6&#45;&gt;Node15</title>
<g id="a_edge8_Node000006_Node000015"><a xlink:title=" ">
<path fill="none" stroke="#63b8ff" d="M840.8,-85.54C859.75,-80.77 880.75,-75.49 900.32,-70.57"/>
<polygon fill="#63b8ff" stroke="#63b8ff" points="900.88,-73.79 909.72,-67.95 899.17,-67 900.88,-73.79"/>
</a>
</g>
</g>
</g>
</svg>

<g id="navigator" transform="translate(0 0)" fill="#404254">
  <rect fill="#f2f5e9" fill-opacity="0.5" stroke="#606060" stroke-width=".5" x="0" y="0" width="60" height="60"/>
  <use id="zoomplus" xlink:href="#zoomPlus" x="17" y="9" onmousedown="handleZoom(evt,'in')"/>
  <use id="zoomminus" xlink:href="#zoomMin" x="42" y="9" onmousedown="handleZoom(evt,'out')"/>
  <use id="reset" xlink:href="#resetDef" x="30" y="36" onmousedown="handleReset()"/>
   <use id="arrowup" xlink:href="#arrowUp" x="0" y="0" onmousedown="handlePan(0,-1)"/>
  <use id="arrowright" xlink:href="#arrowRight" x="0" y="0" onmousedown="handlePan(1,0)"/>
  <use id="arrowdown" xlink:href="#arrowDown" x="0" y="0" onmousedown="handlePan(0,1)"/>
  <use id="arrowleft" xlink:href="#arrowLeft" x="0" y="0" onmousedown="handlePan(-1,0)"/>
</g>
<svg viewBox="0 0 15 15" width="100%" height="30px" preserveAspectRatio="xMaxYMin meet">
 <g id="arrow_out" transform="scale(0.3 0.3)">
  <a xlink:href="namespace_slic3r_a05d7b645bc0460c9170c694fc983f45c_cgraph_org.svg" target="_base">
   <rect id="button" ry="5" rx="5" y="6" x="6" height="38" width="38"
        fill="#f2f5e9" fill-opacity="0.5" stroke="#606060" stroke-width="1.0"/>
   <path id="arrow"
     d="M 11.500037,31.436501 C 11.940474,20.09759 22.043105,11.32322 32.158766,21.979434 L 37.068811,17.246167 C 37.068811,17.246167 37.088388,32 37.088388,32 L 22.160133,31.978069 C 22.160133,31.978069 26.997745,27.140456 26.997745,27.140456 C 18.528582,18.264221 13.291696,25.230495 11.500037,31.436501 z"
     style="fill:#404040;"/>
  </a>
 </g>
</svg>

<style type='text/css'>
<![CDATA[
[data-mouse-over-selected='false'] { opacity: 0.7; }
[data-mouse-over-selected='true']  { opacity: 1.0; }
]]>
</style>
<script type="application/ecmascript"><![CDATA[
document.addEventListener('DOMContentLoaded', (event) => {
  highlightEdges();
  highlightAdjacentNodes();
});
]]></script>
</svg>
