<?xml version="1.0" encoding="UTF-8" standalone="no"?>
<!DOCTYPE svg PUBLIC "-//W3C//DTD SVG 1.1//EN"
 "http://www.w3.org/Graphics/SVG/1.1/DTD/svg11.dtd">
<!-- Generated by graphviz version 8.1.0 (20230707.0739)
 -->
<!-- Title: Slic3r::to_polyline Pages: 1 -->
<svg width="460pt" height="186pt"
 viewBox="0.00 0.00 459.50 185.50" xmlns="http://www.w3.org/2000/svg" xmlns:xlink="http://www.w3.org/1999/xlink">
<g id="graph0" class="graph" transform="scale(1 1) rotate(0) translate(4 181.5)">
<title>Slic3r::to_polyline</title>
<!-- Node1 -->
<g id="Node000001" class="node">
<title>Node1</title>
<g id="a_Node000001"><a xlink:title=" ">
<polygon fill="#999999" stroke="#666666" points="93.25,-97.88 0,-97.88 0,-78.62 93.25,-78.62 93.25,-97.88"/>
<text text-anchor="middle" x="46.62" y="-84.38" font-family="Helvetica,sans-Serif" font-size="10.00">Slic3r::to_polyline</text>
</a>
</g>
</g>
<!-- Node2 -->
<g id="Node000002" class="node">
<title>Node2</title>
<g id="a_Node000002"><a xlink:href="../../d6/de0/class_slic3r_1_1_polyline.html#adfb3235f458978fd92bae54d4aca686f" target="_top" xlink:title=" ">
<polygon fill="white" stroke="#666666" points="248,-97.88 129.25,-97.88 129.25,-78.62 248,-78.62 248,-97.88"/>
<text text-anchor="middle" x="188.62" y="-84.38" font-family="Helvetica,sans-Serif" font-size="10.00">Slic3r::Polyline::append</text>
</a>
</g>
</g>
<!-- Node1&#45;&gt;Node2 -->
<g id="edge1_Node000001_Node000002" class="edge">
<title>Node1&#45;&gt;Node2</title>
<g id="a_edge1_Node000001_Node000002"><a xlink:title=" ">
<path fill="none" stroke="#63b8ff" d="M93.47,-88.25C101.34,-88.25 109.68,-88.25 118.01,-88.25"/>
<polygon fill="#63b8ff" stroke="#63b8ff" points="117.92,-91.75 127.92,-88.25 117.92,-84.75 117.92,-91.75"/>
</a>
</g>
</g>
<!-- Node3 -->
<g id="Node000003" class="node">
<title>Node3</title>
<g id="a_Node000003"><a xlink:href="../../d7/dd1/class_slic3r_1_1_multi_point.html#aa3d84f70cae36e4704be2d8ac7b0cb2a" target="_top" xlink:title=" ">
<polygon fill="white" stroke="#666666" points="412.88,-177.5 322.62,-177.5 322.62,-147 412.88,-147 412.88,-177.5"/>
<text text-anchor="start" x="330.62" y="-164" font-family="Helvetica,sans-Serif" font-size="10.00">Slic3r::MultiPoint</text>
<text text-anchor="middle" x="367.75" y="-152.75" font-family="Helvetica,sans-Serif" font-size="10.00">::append</text>
</a>
</g>
</g>
<!-- Node2&#45;&gt;Node3 -->
<g id="edge2_Node000002_Node000003" class="edge">
<title>Node2&#45;&gt;Node3</title>
<g id="a_edge2_Node000002_Node000003"><a xlink:title=" ">
<path fill="none" stroke="#63b8ff" d="M206.56,-98.27C225.11,-108.94 255.95,-125.85 284,-137.25 292.89,-140.86 302.5,-144.23 311.92,-147.25"/>
<polygon fill="#63b8ff" stroke="#63b8ff" points="310.83,-150.89 321.42,-150.51 312.9,-144.2 310.83,-150.89"/>
</a>
</g>
</g>
<!-- Node4 -->
<g id="Node000004" class="node">
<title>Node4</title>
<g id="a_Node000004"><a xlink:href="../../d6/de0/class_slic3r_1_1_polyline.html#a3572884ff52d7619551f2790618433db" target="_top" xlink:title=" ">
<polygon fill="white" stroke="#666666" points="451.5,-128.5 284,-128.5 284,-98 451.5,-98 451.5,-128.5"/>
<text text-anchor="start" x="292" y="-115" font-family="Helvetica,sans-Serif" font-size="10.00">Slic3r::Polyline::append</text>
<text text-anchor="middle" x="367.75" y="-103.75" font-family="Helvetica,sans-Serif" font-size="10.00">_fitting_result_after_append_points</text>
</a>
</g>
</g>
<!-- Node2&#45;&gt;Node4 -->
<g id="edge3_Node000002_Node000004" class="edge">
<title>Node2&#45;&gt;Node4</title>
<g id="a_edge3_Node000002_Node000004"><a xlink:title=" ">
<path fill="none" stroke="#63b8ff" d="M248.11,-96.51C256.12,-97.64 264.5,-98.82 272.94,-100.01"/>
<polygon fill="#63b8ff" stroke="#63b8ff" points="272.25,-103.59 282.64,-101.52 273.23,-96.66 272.25,-103.59"/>
</a>
</g>
</g>
<!-- Node5 -->
<g id="Node000005" class="node">
<title>Node5</title>
<g id="a_Node000005"><a xlink:href="../../d7/dd1/class_slic3r_1_1_multi_point.html#aba6057e668b1b0afa59df15e3bdaa6d7" target="_top" xlink:title=" ">
<polygon fill="white" stroke="#666666" points="412.88,-79.5 322.62,-79.5 322.62,-49 412.88,-49 412.88,-79.5"/>
<text text-anchor="start" x="330.62" y="-66" font-family="Helvetica,sans-Serif" font-size="10.00">Slic3r::MultiPoint</text>
<text text-anchor="middle" x="367.75" y="-54.75" font-family="Helvetica,sans-Serif" font-size="10.00">::empty</text>
</a>
</g>
</g>
<!-- Node2&#45;&gt;Node5 -->
<g id="edge4_Node000002_Node000005" class="edge">
<title>Node2&#45;&gt;Node5</title>
<g id="a_edge4_Node000002_Node000005"><a xlink:title=" ">
<path fill="none" stroke="#63b8ff" d="M248.11,-80.32C268.52,-77.56 291.34,-74.47 311.48,-71.74"/>
<polygon fill="#63b8ff" stroke="#63b8ff" points="311.91,-75.08 321.35,-70.27 310.97,-68.14 311.91,-75.08"/>
</a>
</g>
</g>
<!-- Node6 -->
<g id="Node000006" class="node">
<title>Node6</title>
<g id="a_Node000006"><a xlink:href="../../d6/de0/class_slic3r_1_1_polyline.html#a6b7133b8ca7045b949922173fb257571" target="_top" xlink:title=" ">
<polygon fill="white" stroke="#666666" points="419.25,-30.5 316.25,-30.5 316.25,0 419.25,0 419.25,-30.5"/>
<text text-anchor="start" x="324.25" y="-17" font-family="Helvetica,sans-Serif" font-size="10.00">Slic3r::Polyline::last</text>
<text text-anchor="middle" x="367.75" y="-5.75" font-family="Helvetica,sans-Serif" font-size="10.00">_point</text>
</a>
</g>
</g>
<!-- Node2&#45;&gt;Node6 -->
<g id="edge5_Node000002_Node000006" class="edge">
<title>Node2&#45;&gt;Node6</title>
<g id="a_edge5_Node000002_Node000006"><a xlink:title=" ">
<path fill="none" stroke="#63b8ff" d="M206.93,-78.27C225.54,-67.82 256.2,-51.42 284,-40.25 290.91,-37.47 298.25,-34.84 305.59,-32.38"/>
<polygon fill="#63b8ff" stroke="#63b8ff" points="306.49,-35.45 314.93,-29.05 304.34,-28.79 306.49,-35.45"/>
</a>
</g>
</g>
</g>
</svg>
