<?xml version="1.0" encoding="UTF-8" standalone="no"?>
<!DOCTYPE svg PUBLIC "-//W3C//DTD SVG 1.1//EN"
 "http://www.w3.org/Graphics/SVG/1.1/DTD/svg11.dtd">
<!-- Generated by graphviz version 8.1.0 (20230707.0739)
 -->
<!-- Title: Slic3r::extract_layer Pages: 1 -->
<!--zoomable 316 -->

<svg id="main" version="1.1" xmlns="http://www.w3.org/2000/svg" xmlns:xlink="http://www.w3.org/1999/xlink" xml:space="preserve" onload="init(evt)">
<style type="text/css"><![CDATA[
.node, .edge {opacity: 0.7;}
.node.selected, .edge.selected {opacity: 1;}
.edge:hover path { stroke: red; }
.edge:hover polygon { stroke: red; fill: red; }
]]></style>

<defs>
  <circle id="rim" cx="0" cy="0" r="7"/>
  <circle id="rim2" cx="0" cy="0" r="3.5"/>
  <g id="zoomPlus">
    <use xlink:href="#rim" fill="#404040"><set attributeName="fill" to="#808080" begin="zoomplus.mouseover" end="zoomplus.mouseout"/></use>
    <path d="M-4,0h8M0,-4v8" fill="none" stroke="white" stroke-width="1.5" pointer-events="none"/>
  </g>
  <g id="zoomMin">
    <use xlink:href="#rim" fill="#404040"><set attributeName="fill" to="#808080" begin="zoomminus.mouseover" end="zoomminus.mouseout"/></use>
    <path d="M-4,0h8" fill="none" stroke="white" stroke-width="1.5" pointer-events="none"/>
  </g>
  <g id="arrowUp" transform="translate(30 24)">
    <use xlink:href="#rim"/>
    <path pointer-events="none" fill="none" stroke="white" stroke-width="1.5" d="M0,-3.0v7 M-2.5,-0.5L0,-3.0L2.5,-0.5"/>
  </g>
  <g id="arrowRight" transform="rotate(90) translate(36 -43)">
    <use xlink:href="#rim"/>
    <path pointer-events="none" fill="none" stroke="white" stroke-width="1.5" d="M0,-3.0v7 M-2.5,-0.5L0,-3.0L2.5,-0.5"/>
  </g>
  <g id="arrowDown" transform="rotate(180) translate(-30 -48)">
    <use xlink:href="#rim"/>
    <path pointer-events="none" fill="none" stroke="white" stroke-width="1.5" d="M0,-3.0v7 M-2.5,-0.5L0,-3.0L2.5,-0.5"/>
  </g>
  <g id="arrowLeft" transform="rotate(270) translate(-36 17)">
    <use xlink:href="#rim"/>
    <path pointer-events="none" fill="none" stroke="white" stroke-width="1.5" d="M0,-3.0v7 M-2.5,-0.5L0,-3.0L2.5,-0.5"/>
  </g>
  <g id="resetDef">
    <use xlink:href="#rim2" fill="#404040"><set attributeName="fill" to="#808080" begin="reset.mouseover" end="reset.mouseout"/></use>
  </g>
</defs>
<script type="application/ecmascript">
var viewWidth = 559;
var viewHeight = 316;
var sectionId = 'dynsection-434';
</script>
<script type="application/ecmascript" xlink:href="../../svg.min.js"/>
<svg id="graph" class="graph">
<g id="viewport">
<title>Slic3r::extract_layer</title>
<!-- Node1 -->
<g id="Node000001" class="node">
<title>Node1</title>
<g id="a_Node000001"><a xlink:title=" ">
<polygon fill="#999999" stroke="#666666" points="103,-94.88 0,-94.88 0,-75.62 103,-75.62 103,-94.88"/>
<text text-anchor="middle" x="51.5" y="-81.38" font-family="Helvetica,sans-Serif" font-size="10.00">Slic3r::extract_layer</text>
</a>
</g>
</g>
<!-- Node1&#45;&gt;Node1 -->
<g id="edge9_Node000001_Node000001" class="edge">
<title>Node1&#45;&gt;Node1</title>
<g id="a_edge9_Node000001_Node000001"><a xlink:title=" ">
<path fill="none" stroke="#63b8ff" d="M29.56,-95.16C19.56,-103.77 26.87,-112.88 51.5,-112.88 65.74,-112.88 74.19,-109.83 76.85,-105.6"/>
<polygon fill="#63b8ff" stroke="#63b8ff" points="79.87,-104.58 73.44,-96.16 73.22,-106.76 79.87,-104.58"/>
</a>
</g>
</g>
<!-- Node2 -->
<g id="Node000002" class="node">
<title>Node2</title>
<g id="a_Node000002"><a xlink:href="../../de/db8/namespace_slic3r.html#afa6d6623ae4c6d36396a028cc2015b6c" target="_top" xlink:title=" ">
<polygon fill="white" stroke="#666666" points="244.25,-208.5 139,-208.5 139,-178 244.25,-178 244.25,-208.5"/>
<text text-anchor="start" x="147" y="-195" font-family="Helvetica,sans-Serif" font-size="10.00">Slic3r::convert_layer</text>
<text text-anchor="middle" x="191.62" y="-183.75" font-family="Helvetica,sans-Serif" font-size="10.00">_region_from_json</text>
</a>
</g>
</g>
<!-- Node1&#45;&gt;Node2 -->
<g id="edge1_Node000001_Node000002" class="edge">
<title>Node1&#45;&gt;Node2</title>
<g id="a_edge1_Node000001_Node000002"><a xlink:title=" ">
<path fill="none" stroke="#63b8ff" d="M65.25,-95.22C87.25,-112.42 132.86,-148.08 162.57,-171.32"/>
<polygon fill="#63b8ff" stroke="#63b8ff" points="159.84,-174.4 169.87,-177.8 164.15,-168.89 159.84,-174.4"/>
</a>
</g>
</g>
<!-- Node4 -->
<g id="Node000004" class="node">
<title>Node4</title>
<g id="a_Node000004"><a xlink:href="../../d9/dcc/classnlohmann_1_1basic__json.html#a33c7c8638bb0b12e6d1b69d8106dd2e0" target="_top" xlink:title="returns the number of elements">
<polygon fill="white" stroke="#666666" points="550.75,-246.5 440.25,-246.5 440.25,-216 550.75,-216 550.75,-246.5"/>
<text text-anchor="start" x="448.25" y="-233" font-family="Helvetica,sans-Serif" font-size="10.00">nlohmann::basic_json</text>
<text text-anchor="middle" x="495.5" y="-221.75" font-family="Helvetica,sans-Serif" font-size="10.00">::size</text>
</a>
</g>
</g>
<!-- Node1&#45;&gt;Node4 -->
<g id="edge12_Node000001_Node000004" class="edge">
<title>Node1&#45;&gt;Node4</title>
<g id="a_edge12_Node000001_Node000004"><a xlink:title=" ">
<path fill="none" stroke="#63b8ff" d="M103.29,-89.12C194.32,-96.35 378.26,-112.44 404.25,-126.25 438.54,-144.47 465.5,-181.51 480.72,-206.36"/>
<polygon fill="#63b8ff" stroke="#63b8ff" points="478.04,-207.72 486.15,-214.54 484.07,-204.15 478.04,-207.72"/>
</a>
</g>
</g>
<!-- Node7 -->
<g id="Node000007" class="node">
<title>Node7</title>
<g id="a_Node000007"><a xlink:href="../../d1/d68/class_slic3r_1_1_layer.html#aa747b17f754ede787ebf2227cde685e2" target="_top" xlink:title=" ">
<polygon fill="white" stroke="#666666" points="236.75,-79.5 146.5,-79.5 146.5,-49 236.75,-49 236.75,-79.5"/>
<text text-anchor="start" x="154.5" y="-66" font-family="Helvetica,sans-Serif" font-size="10.00">Slic3r::Layer::get</text>
<text text-anchor="middle" x="191.62" y="-54.75" font-family="Helvetica,sans-Serif" font-size="10.00">_region</text>
</a>
</g>
</g>
<!-- Node1&#45;&gt;Node7 -->
<g id="edge10_Node000001_Node000007" class="edge">
<title>Node1&#45;&gt;Node7</title>
<g id="a_edge10_Node000001_Node000007"><a xlink:title=" ">
<path fill="none" stroke="#63b8ff" d="M103.15,-77.55C113.77,-75.93 125.03,-74.22 135.8,-72.59"/>
<polygon fill="#63b8ff" stroke="#63b8ff" points="136,-75.94 145.36,-70.98 134.95,-69.02 136,-75.94"/>
</a>
</g>
</g>
<!-- Node8 -->
<g id="Node000008" class="node">
<title>Node8</title>
<g id="a_Node000008"><a xlink:href="../../d1/d68/class_slic3r_1_1_layer.html#afc65f8537e064abac683eb617334dd0a" target="_top" xlink:title=" ">
<polygon fill="white" stroke="#666666" points="243.12,-30.5 140.12,-30.5 140.12,0 243.12,0 243.12,-30.5"/>
<text text-anchor="start" x="148.12" y="-17" font-family="Helvetica,sans-Serif" font-size="10.00">Slic3r::Layer::region</text>
<text text-anchor="middle" x="191.62" y="-5.75" font-family="Helvetica,sans-Serif" font-size="10.00">_count</text>
</a>
</g>
</g>
<!-- Node1&#45;&gt;Node8 -->
<g id="edge11_Node000001_Node000008" class="edge">
<title>Node1&#45;&gt;Node8</title>
<g id="a_edge11_Node000001_Node000008"><a xlink:title=" ">
<path fill="none" stroke="#63b8ff" d="M71.32,-75.26C88.79,-66.04 115.55,-52.02 139,-40.25 141.93,-38.78 144.96,-37.27 148.02,-35.76"/>
<polygon fill="#63b8ff" stroke="#63b8ff" points="149.34,-38.52 156.78,-30.98 146.26,-32.24 149.34,-38.52"/>
</a>
</g>
</g>
<!-- Node2&#45;&gt;Node2 -->
<g id="edge5_Node000002_Node000002" class="edge">
<title>Node2&#45;&gt;Node2</title>
<g id="a_edge5_Node000002_Node000002"><a xlink:title=" ">
<path fill="none" stroke="#63b8ff" d="M166.79,-208.99C161.73,-218.06 170,-226.5 191.62,-226.5 203.79,-226.5 211.73,-223.83 215.44,-219.88"/>
<polygon fill="#63b8ff" stroke="#63b8ff" points="219.02,-220.27 216.46,-209.99 212.05,-219.62 219.02,-220.27"/>
</a>
</g>
</g>
<!-- Node3 -->
<g id="Node000003" class="node">
<title>Node3</title>
<g id="a_Node000003"><a xlink:href="../../de/db8/namespace_slic3r.html#aac3f07c87bce5c2ea307d3e22cd8d348" target="_top" xlink:title=" ">
<polygon fill="white" stroke="#666666" points="404.25,-289.5 280.25,-289.5 280.25,-259 404.25,-259 404.25,-289.5"/>
<text text-anchor="start" x="288.25" y="-276" font-family="Helvetica,sans-Serif" font-size="10.00">Slic3r::convert_extrusion</text>
<text text-anchor="middle" x="342.25" y="-264.75" font-family="Helvetica,sans-Serif" font-size="10.00">_from_json</text>
</a>
</g>
</g>
<!-- Node2&#45;&gt;Node3 -->
<g id="edge2_Node000002_Node000003" class="edge">
<title>Node2&#45;&gt;Node3</title>
<g id="a_edge2_Node000002_Node000003"><a xlink:title=" ">
<path fill="none" stroke="#63b8ff" d="M217.58,-208.89C234.93,-219.55 258.71,-233.77 280.25,-245.25 285.69,-248.15 291.46,-251.08 297.2,-253.9"/>
<polygon fill="#63b8ff" stroke="#63b8ff" points="295.25,-257.33 305.78,-258.54 298.3,-251.03 295.25,-257.33"/>
</a>
</g>
</g>
<!-- Node2&#45;&gt;Node4 -->
<g id="edge8_Node000002_Node000004" class="edge">
<title>Node2&#45;&gt;Node4</title>
<g id="a_edge8_Node000002_Node000004"><a xlink:title=" ">
<path fill="none" stroke="#63b8ff" d="M244.32,-205.58C256.08,-208.07 268.55,-210.47 280.25,-212.25 330,-219.82 386.75,-224.69 429.34,-227.6"/>
<polygon fill="#63b8ff" stroke="#63b8ff" points="428.91,-231.14 439.12,-228.31 429.38,-224.16 428.91,-231.14"/>
</a>
</g>
</g>
<!-- Node5 -->
<g id="Node000005" class="node">
<title>Node5</title>
<g id="a_Node000005"><a xlink:href="../../d1/d68/class_slic3r_1_1_layer.html#a3d031d63fa4b34246ca1b1cbbb66b2fc" target="_top" xlink:title=" ">
<polygon fill="white" stroke="#666666" points="384.38,-202.88 300.12,-202.88 300.12,-183.62 384.38,-183.62 384.38,-202.88"/>
<text text-anchor="middle" x="342.25" y="-189.38" font-family="Helvetica,sans-Serif" font-size="10.00">Slic3r::Layer::id</text>
</a>
</g>
</g>
<!-- Node2&#45;&gt;Node5 -->
<g id="edge6_Node000002_Node000005" class="edge">
<title>Node2&#45;&gt;Node5</title>
<g id="a_edge6_Node000002_Node000005"><a xlink:title=" ">
<path fill="none" stroke="#63b8ff" d="M244.61,-193.25C259.02,-193.25 274.66,-193.25 289.08,-193.25"/>
<polygon fill="#63b8ff" stroke="#63b8ff" points="288.82,-196.75 298.82,-193.25 288.82,-189.75 288.82,-196.75"/>
</a>
</g>
</g>
<!-- Node6 -->
<g id="Node000006" class="node">
<title>Node6</title>
<g id="a_Node000006"><a xlink:href="../../dd/d90/class_slic3r_1_1_layer_region.html#a92abe1aee488feb174bc5cc13d76ed6a" target="_top" xlink:title=" ">
<polygon fill="white" stroke="#666666" points="393,-165.5 291.5,-165.5 291.5,-135 393,-135 393,-165.5"/>
<text text-anchor="start" x="299.5" y="-152" font-family="Helvetica,sans-Serif" font-size="10.00">Slic3r::LayerRegion</text>
<text text-anchor="middle" x="342.25" y="-140.75" font-family="Helvetica,sans-Serif" font-size="10.00">::layer</text>
</a>
</g>
</g>
<!-- Node2&#45;&gt;Node6 -->
<g id="edge7_Node000002_Node000006" class="edge">
<title>Node2&#45;&gt;Node6</title>
<g id="a_edge7_Node000002_Node000006"><a xlink:title=" ">
<path fill="none" stroke="#63b8ff" d="M244.61,-178.21C256.26,-174.84 268.72,-171.23 280.69,-167.77"/>
<polygon fill="#63b8ff" stroke="#63b8ff" points="281.42,-170.92 290.05,-164.77 279.47,-164.19 281.42,-170.92"/>
</a>
</g>
</g>
<!-- Node3&#45;&gt;Node3 -->
<g id="edge3_Node000003_Node000003" class="edge">
<title>Node3&#45;&gt;Node3</title>
<g id="a_edge3_Node000003_Node000003"><a xlink:title=" ">
<path fill="none" stroke="#63b8ff" d="M315.56,-289.99C310.11,-299.06 319.01,-307.5 342.25,-307.5 355.32,-307.5 363.86,-304.83 367.85,-300.88"/>
<polygon fill="#63b8ff" stroke="#63b8ff" points="371.43,-301.28 368.94,-290.99 364.46,-300.59 371.43,-301.28"/>
</a>
</g>
</g>
<!-- Node3&#45;&gt;Node4 -->
<g id="edge4_Node000003_Node000004" class="edge">
<title>Node3&#45;&gt;Node4</title>
<g id="a_edge4_Node000003_Node000004"><a xlink:title=" ">
<path fill="none" stroke="#63b8ff" d="M398.28,-258.6C408.42,-255.72 419.09,-252.69 429.49,-249.73"/>
<polygon fill="#63b8ff" stroke="#63b8ff" points="430.1,-252.91 438.76,-246.81 428.19,-246.18 430.1,-252.91"/>
</a>
</g>
</g>
</g>
</svg>

<g id="navigator" transform="translate(0 0)" fill="#404254">
  <rect fill="#f2f5e9" fill-opacity="0.5" stroke="#606060" stroke-width=".5" x="0" y="0" width="60" height="60"/>
  <use id="zoomplus" xlink:href="#zoomPlus" x="17" y="9" onmousedown="handleZoom(evt,'in')"/>
  <use id="zoomminus" xlink:href="#zoomMin" x="42" y="9" onmousedown="handleZoom(evt,'out')"/>
  <use id="reset" xlink:href="#resetDef" x="30" y="36" onmousedown="handleReset()"/>
   <use id="arrowup" xlink:href="#arrowUp" x="0" y="0" onmousedown="handlePan(0,-1)"/>
  <use id="arrowright" xlink:href="#arrowRight" x="0" y="0" onmousedown="handlePan(1,0)"/>
  <use id="arrowdown" xlink:href="#arrowDown" x="0" y="0" onmousedown="handlePan(0,1)"/>
  <use id="arrowleft" xlink:href="#arrowLeft" x="0" y="0" onmousedown="handlePan(-1,0)"/>
</g>
<svg viewBox="0 0 15 15" width="100%" height="30px" preserveAspectRatio="xMaxYMin meet">
 <g id="arrow_out" transform="scale(0.3 0.3)">
  <a xlink:href="namespace_slic3r_aa341718c1ab561d02995fa4e3c26b307_cgraph_org.svg" target="_base">
   <rect id="button" ry="5" rx="5" y="6" x="6" height="38" width="38"
        fill="#f2f5e9" fill-opacity="0.5" stroke="#606060" stroke-width="1.0"/>
   <path id="arrow"
     d="M 11.500037,31.436501 C 11.940474,20.09759 22.043105,11.32322 32.158766,21.979434 L 37.068811,17.246167 C 37.068811,17.246167 37.088388,32 37.088388,32 L 22.160133,31.978069 C 22.160133,31.978069 26.997745,27.140456 26.997745,27.140456 C 18.528582,18.264221 13.291696,25.230495 11.500037,31.436501 z"
     style="fill:#404040;"/>
  </a>
 </g>
</svg>

<style type='text/css'>
<![CDATA[
[data-mouse-over-selected='false'] { opacity: 0.7; }
[data-mouse-over-selected='true']  { opacity: 1.0; }
]]>
</style>
<script type="application/ecmascript"><![CDATA[
document.addEventListener('DOMContentLoaded', (event) => {
  highlightEdges();
  highlightAdjacentNodes();
});
]]></script>
</svg>
