<?xml version="1.0" encoding="UTF-8" standalone="no"?>
<!DOCTYPE svg PUBLIC "-//W3C//DTD SVG 1.1//EN"
 "http://www.w3.org/Graphics/SVG/1.1/DTD/svg11.dtd">
<!-- Generated by graphviz version 8.1.0 (20230707.0739)
 -->
<!-- Title: Slic3r::store_stl Pages: 1 -->
<svg width="832pt" height="291pt"
 viewBox="0.00 0.00 832.25 290.88" xmlns="http://www.w3.org/2000/svg" xmlns:xlink="http://www.w3.org/1999/xlink">
<g id="graph0" class="graph" transform="scale(1 1) rotate(0) translate(4 286.88)">
<title>Slic3r::store_stl</title>
<!-- Node1 -->
<g id="Node000001" class="node">
<title>Node1</title>
<g id="a_Node000001"><a xlink:title=" ">
<polygon fill="#999999" stroke="#666666" points="84.25,-125.88 0,-125.88 0,-106.62 84.25,-106.62 84.25,-125.88"/>
<text text-anchor="middle" x="42.12" y="-112.38" font-family="Helvetica,sans-Serif" font-size="10.00">Slic3r::store_stl</text>
</a>
</g>
</g>
<!-- Node2 -->
<g id="Node000002" class="node">
<title>Node2</title>
<g id="a_Node000002"><a xlink:href="../../d0/d23/class_slic3r_1_1_model_object.html#a06b8dc904dbfca651225de86c824c8cb" target="_top" xlink:title=" ">
<polygon fill="white" stroke="#666666" points="221.75,-174.5 120.25,-174.5 120.25,-144 221.75,-144 221.75,-174.5"/>
<text text-anchor="start" x="128.25" y="-161" font-family="Helvetica,sans-Serif" font-size="10.00">Slic3r::ModelObject</text>
<text text-anchor="middle" x="171" y="-149.75" font-family="Helvetica,sans-Serif" font-size="10.00">::mesh</text>
</a>
</g>
</g>
<!-- Node1&#45;&gt;Node2 -->
<g id="edge1_Node000001_Node000002" class="edge">
<title>Node1&#45;&gt;Node2</title>
<g id="a_edge1_Node000001_Node000002"><a xlink:title=" ">
<path fill="none" stroke="#63b8ff" d="M72.87,-126.33C85.01,-130.45 99.47,-135.35 113.48,-140.09"/>
<polygon fill="#63b8ff" stroke="#63b8ff" points="111.96,-143.61 122.56,-143.51 114.21,-136.99 111.96,-143.61"/>
</a>
</g>
</g>
<!-- Node14 -->
<g id="Node000014" class="node">
<title>Node14</title>
<g id="a_Node000014"><a xlink:href="../../de/db8/namespace_slic3r.html#a9da7d7d7020a5ab5fda6850e0ecdf43e" target="_top" xlink:title=" ">
<polygon fill="white" stroke="#666666" points="213.12,-92.88 128.88,-92.88 128.88,-73.62 213.12,-73.62 213.12,-92.88"/>
<text text-anchor="middle" x="171" y="-79.38" font-family="Helvetica,sans-Serif" font-size="10.00">Slic3r::store_stl</text>
</a>
</g>
</g>
<!-- Node1&#45;&gt;Node14 -->
<g id="edge15_Node000001_Node000014" class="edge">
<title>Node1&#45;&gt;Node14</title>
<g id="a_edge15_Node000001_Node000014"><a xlink:title=" ">
<path fill="none" stroke="#63b8ff" d="M81.88,-106.17C94.18,-102.97 107.94,-99.39 120.87,-96.03"/>
<polygon fill="#63b8ff" stroke="#63b8ff" points="121.68,-99.17 130.48,-93.27 119.92,-92.4 121.68,-99.17"/>
</a>
</g>
</g>
<!-- Node2&#45;&gt;Node2 -->
<g id="edge5_Node000002_Node000002" class="edge">
<title>Node2&#45;&gt;Node2</title>
<g id="a_edge5_Node000002_Node000002"><a xlink:title=" ">
<path fill="none" stroke="#63b8ff" d="M148.16,-174.99C143.5,-184.06 151.11,-192.5 171,-192.5 182.19,-192.5 189.49,-189.83 192.91,-185.88"/>
<polygon fill="#63b8ff" stroke="#63b8ff" points="196.47,-186.25 193.84,-175.99 189.5,-185.65 196.47,-186.25"/>
</a>
</g>
</g>
<!-- Node3 -->
<g id="Node000003" class="node">
<title>Node3</title>
<g id="a_Node000003"><a xlink:href="../../d8/d71/class_slic3r_1_1_triangle_mesh.html#af06fdede750ab368ef3bcfb0927f4750" target="_top" xlink:title=" ">
<polygon fill="white" stroke="#666666" points="504.25,-229.5 399,-229.5 399,-199 504.25,-199 504.25,-229.5"/>
<text text-anchor="start" x="407" y="-216" font-family="Helvetica,sans-Serif" font-size="10.00">Slic3r::TriangleMesh</text>
<text text-anchor="middle" x="451.62" y="-204.75" font-family="Helvetica,sans-Serif" font-size="10.00">::merge</text>
</a>
</g>
</g>
<!-- Node2&#45;&gt;Node3 -->
<g id="edge2_Node000002_Node000003" class="edge">
<title>Node2&#45;&gt;Node3</title>
<g id="a_edge2_Node000002_Node000003"><a xlink:title=" ">
<path fill="none" stroke="#63b8ff" d="M222.09,-174.3C233.73,-177.51 246.12,-180.7 257.75,-183.25 300.86,-192.72 349.99,-200.57 387.88,-206"/>
<polygon fill="#63b8ff" stroke="#63b8ff" points="387.36,-209.61 397.75,-207.54 388.34,-202.68 387.36,-209.61"/>
</a>
</g>
</g>
<!-- Node6 -->
<g id="Node000006" class="node">
<title>Node6</title>
<g id="a_Node000006"><a xlink:href="../../d0/d23/class_slic3r_1_1_model_object.html#a32e1af9ac7b2647ed5133b0fda6c4e9d" target="_top" xlink:title=" ">
<polygon fill="white" stroke="#666666" points="361.12,-174.5 259.62,-174.5 259.62,-144 361.12,-144 361.12,-174.5"/>
<text text-anchor="start" x="267.62" y="-161" font-family="Helvetica,sans-Serif" font-size="10.00">Slic3r::ModelObject</text>
<text text-anchor="middle" x="310.38" y="-149.75" font-family="Helvetica,sans-Serif" font-size="10.00">::raw_mesh</text>
</a>
</g>
</g>
<!-- Node2&#45;&gt;Node6 -->
<g id="edge6_Node000002_Node000006" class="edge">
<title>Node2&#45;&gt;Node6</title>
<g id="a_edge6_Node000002_Node000006"><a xlink:title=" ">
<path fill="none" stroke="#63b8ff" d="M221.98,-152.73C230.51,-152.52 239.45,-152.45 248.22,-152.54"/>
<polygon fill="#63b8ff" stroke="#63b8ff" points="248.14,-156.05 258.2,-152.72 248.26,-149.05 248.14,-156.05"/>
</a>
</g>
</g>
<!-- Node4 -->
<g id="Node000004" class="node">
<title>Node4</title>
<g id="a_Node000004"><a xlink:href="../../de/db8/namespace_slic3r.html#a52c6c8730cf16449d6e7dce0846173d4" target="_top" xlink:title=" ">
<polygon fill="white" stroke="#666666" points="655.62,-282.88 566.12,-282.88 566.12,-263.62 655.62,-263.62 655.62,-282.88"/>
<text text-anchor="middle" x="610.88" y="-269.38" font-family="Helvetica,sans-Serif" font-size="10.00">Slic3r::its_merge</text>
</a>
</g>
</g>
<!-- Node3&#45;&gt;Node4 -->
<g id="edge3_Node000003_Node000004" class="edge">
<title>Node3&#45;&gt;Node4</title>
<g id="a_edge3_Node000003_Node000004"><a xlink:title=" ">
<path fill="none" stroke="#63b8ff" d="M483.75,-229.95C500.27,-237.9 521.07,-247.31 540.25,-254.25 546.06,-256.35 552.22,-258.35 558.37,-260.21"/>
<polygon fill="#63b8ff" stroke="#63b8ff" points="557.08,-263.77 567.66,-263.19 559.03,-257.04 557.08,-263.77"/>
</a>
</g>
</g>
<!-- Node5 -->
<g id="Node000005" class="node">
<title>Node5</title>
<g id="a_Node000005"><a xlink:href="../../d2/da4/struct_slic3r_1_1_triangle_mesh_stats.html#a511388859198df74b6f394d395b8a513" target="_top" xlink:title=" ">
<polygon fill="white" stroke="#666666" points="675.12,-245.5 546.62,-245.5 546.62,-215 675.12,-215 675.12,-245.5"/>
<text text-anchor="start" x="554.62" y="-232" font-family="Helvetica,sans-Serif" font-size="10.00">Slic3r::TriangleMeshStats</text>
<text text-anchor="middle" x="610.88" y="-220.75" font-family="Helvetica,sans-Serif" font-size="10.00">::merge</text>
</a>
</g>
</g>
<!-- Node3&#45;&gt;Node5 -->
<g id="edge4_Node000003_Node000005" class="edge">
<title>Node3&#45;&gt;Node5</title>
<g id="a_edge4_Node000003_Node000005"><a xlink:title=" ">
<path fill="none" stroke="#63b8ff" d="M504.55,-219.53C514.44,-220.54 524.98,-221.61 535.41,-222.67"/>
<polygon fill="#63b8ff" stroke="#63b8ff" points="534.92,-226.24 545.22,-223.77 535.62,-219.28 534.92,-226.24"/>
</a>
</g>
</g>
<!-- Node6&#45;&gt;Node2 -->
<g id="edge8_Node000006_Node000002" class="edge">
<title>Node6&#45;&gt;Node2</title>
<g id="a_edge8_Node000006_Node000002"><a xlink:title=" ">
<path fill="none" stroke="#63b8ff" d="M259.2,-165.78C250.67,-165.99 241.73,-166.05 232.96,-165.96"/>
<polygon fill="#63b8ff" stroke="#63b8ff" points="233.04,-162.45 222.98,-165.77 232.92,-169.44 233.04,-162.45"/>
</a>
</g>
</g>
<!-- Node6&#45;&gt;Node3 -->
<g id="edge7_Node000006_Node000003" class="edge">
<title>Node6&#45;&gt;Node3</title>
<g id="a_edge7_Node000006_Node000003"><a xlink:title=" ">
<path fill="none" stroke="#63b8ff" d="M350.91,-174.86C366.49,-181.02 384.56,-188.16 401,-194.65"/>
<polygon fill="#63b8ff" stroke="#63b8ff" points="399.41,-198.18 410,-198.6 401.98,-191.67 399.41,-198.18"/>
</a>
</g>
</g>
<!-- Node7 -->
<g id="Node000007" class="node">
<title>Node7</title>
<g id="a_Node000007"><a xlink:href="../../d8/d71/class_slic3r_1_1_triangle_mesh.html#a6b3b90b952e195628a7836f98bdf8f27" target="_top" xlink:title=" ">
<polygon fill="white" stroke="#666666" points="504.25,-165.5 399,-165.5 399,-135 504.25,-135 504.25,-165.5"/>
<text text-anchor="start" x="407" y="-152" font-family="Helvetica,sans-Serif" font-size="10.00">Slic3r::TriangleMesh</text>
<text text-anchor="middle" x="451.62" y="-140.75" font-family="Helvetica,sans-Serif" font-size="10.00">::transform</text>
</a>
</g>
</g>
<!-- Node6&#45;&gt;Node7 -->
<g id="edge9_Node000006_Node000007" class="edge">
<title>Node6&#45;&gt;Node7</title>
<g id="a_edge9_Node000006_Node000007"><a xlink:title=" ">
<path fill="none" stroke="#63b8ff" d="M361.25,-156.03C369.91,-155.47 379.01,-154.88 387.95,-154.3"/>
<polygon fill="#63b8ff" stroke="#63b8ff" points="387.99,-157.74 397.75,-153.6 387.54,-150.76 387.99,-157.74"/>
</a>
</g>
</g>
<!-- Node8 -->
<g id="Node000008" class="node">
<title>Node8</title>
<g id="a_Node000008"><a xlink:href="../../de/db8/namespace_slic3r.html#accb7df7be5ec86d47dc9956fb3c8122d" target="_top" xlink:title=" ">
<polygon fill="white" stroke="#666666" points="669.5,-196.88 552.25,-196.88 552.25,-177.62 669.5,-177.62 669.5,-196.88"/>
<text text-anchor="middle" x="610.88" y="-183.38" font-family="Helvetica,sans-Serif" font-size="10.00">Slic3r::its_flip_triangles</text>
</a>
</g>
</g>
<!-- Node7&#45;&gt;Node8 -->
<g id="edge10_Node000007_Node000008" class="edge">
<title>Node7&#45;&gt;Node8</title>
<g id="a_edge10_Node000007_Node000008"><a xlink:title=" ">
<path fill="none" stroke="#63b8ff" d="M504.55,-162.47C521.14,-166.37 539.52,-170.7 556.22,-174.63"/>
<polygon fill="#63b8ff" stroke="#63b8ff" points="555.39,-178.26 565.92,-177.14 556.99,-171.45 555.39,-178.26"/>
</a>
</g>
</g>
<!-- Node9 -->
<g id="Node000009" class="node">
<title>Node9</title>
<g id="a_Node000009"><a xlink:href="../../d5/d51/stl_8h.html#a9778902b3aa1da8eff2d53ec6f65d638" target="_top" xlink:title=" ">
<polygon fill="white" stroke="#666666" points="647.38,-159.88 574.38,-159.88 574.38,-140.62 647.38,-140.62 647.38,-159.88"/>
<text text-anchor="middle" x="610.88" y="-146.38" font-family="Helvetica,sans-Serif" font-size="10.00">its_transform</text>
</a>
</g>
</g>
<!-- Node7&#45;&gt;Node9 -->
<g id="edge11_Node000007_Node000009" class="edge">
<title>Node7&#45;&gt;Node9</title>
<g id="a_edge11_Node000007_Node000009"><a xlink:title=" ">
<path fill="none" stroke="#63b8ff" d="M504.55,-150.25C523.46,-150.25 544.7,-150.25 563.13,-150.25"/>
<polygon fill="#63b8ff" stroke="#63b8ff" points="562.91,-153.75 572.9,-150.25 562.9,-146.75 562.91,-153.75"/>
</a>
</g>
</g>
<!-- Node10 -->
<g id="Node000010" class="node">
<title>Node10</title>
<g id="a_Node000010"><a xlink:href="../../d5/d00/group___geometry___module.html#a8a5d077e6e87e7d0a1f347fbc4d52a6e" target="_top" xlink:title=" ">
<polygon fill="white" stroke="#666666" points="672.88,-122.88 548.88,-122.88 548.88,-103.62 672.88,-103.62 672.88,-122.88"/>
<text text-anchor="middle" x="610.88" y="-109.38" font-family="Helvetica,sans-Serif" font-size="10.00">Eigen::Transform::matrix</text>
</a>
</g>
</g>
<!-- Node7&#45;&gt;Node10 -->
<g id="edge12_Node000007_Node000010" class="edge">
<title>Node7&#45;&gt;Node10</title>
<g id="a_edge12_Node000007_Node000010"><a xlink:title=" ">
<path fill="none" stroke="#63b8ff" d="M504.55,-138.03C521.14,-134.13 539.52,-129.8 556.22,-125.87"/>
<polygon fill="#63b8ff" stroke="#63b8ff" points="556.99,-129.05 565.92,-123.36 555.39,-122.24 556.99,-129.05"/>
</a>
</g>
</g>
<!-- Node11 -->
<g id="Node000011" class="node">
<title>Node11</title>
<g id="a_Node000011"><a xlink:href="../../de/db8/namespace_slic3r.html#afb04e5ea191c1cad290eeb4e4f51b538" target="_top" xlink:title=" ">
<polygon fill="white" stroke="#666666" points="681.5,-85.88 540.25,-85.88 540.25,-66.62 681.5,-66.62 681.5,-85.88"/>
<text text-anchor="middle" x="610.88" y="-72.38" font-family="Helvetica,sans-Serif" font-size="10.00">Slic3r::update_bounding_box</text>
</a>
</g>
</g>
<!-- Node7&#45;&gt;Node11 -->
<g id="edge13_Node000007_Node000011" class="edge">
<title>Node7&#45;&gt;Node11</title>
<g id="a_edge13_Node000007_Node000011"><a xlink:title=" ">
<path fill="none" stroke="#63b8ff" d="M488.01,-134.63C493.58,-131.75 499.17,-128.58 504.25,-125.25 521.9,-113.66 521.54,-104.04 540.25,-94.25 543.14,-92.74 546.17,-91.34 549.28,-90.06"/>
<polygon fill="#63b8ff" stroke="#63b8ff" points="550.22,-93.08 558.4,-86.35 547.8,-86.51 550.22,-93.08"/>
</a>
</g>
</g>
<!-- Node12 -->
<g id="Node000012" class="node">
<title>Node12</title>
<g id="a_Node000012"><a xlink:href="../../de/db8/namespace_slic3r.html#a4d0c9e0f802addbe38308663e5e4c8be" target="_top" xlink:title=" ">
<polygon fill="#fff0f0" stroke="red" points="824.25,-85.88 717.5,-85.88 717.5,-66.62 824.25,-66.62 824.25,-85.88"/>
<text text-anchor="middle" x="770.88" y="-72.38" font-family="Helvetica,sans-Serif" font-size="10.00">Slic3r::bounding_box</text>
</a>
</g>
</g>
<!-- Node11&#45;&gt;Node12 -->
<g id="edge14_Node000011_Node000012" class="edge">
<title>Node11&#45;&gt;Node12</title>
<g id="a_edge14_Node000011_Node000012"><a xlink:title=" ">
<path fill="none" stroke="#63b8ff" d="M681.64,-76.25C689.82,-76.25 698.14,-76.25 706.23,-76.25"/>
<polygon fill="#63b8ff" stroke="#63b8ff" points="706.1,-79.75 716.1,-76.25 706.1,-72.75 706.1,-79.75"/>
</a>
</g>
</g>
<!-- Node15 -->
<g id="Node000015" class="node">
<title>Node15</title>
<g id="a_Node000015"><a xlink:href="../../d8/d71/class_slic3r_1_1_triangle_mesh.html#a666ca0692e8ca1ff5edaad941d9231f1" target="_top" xlink:title=" ">
<polygon fill="white" stroke="#666666" points="363,-98.5 257.75,-98.5 257.75,-68 363,-68 363,-98.5"/>
<text text-anchor="start" x="265.75" y="-85" font-family="Helvetica,sans-Serif" font-size="10.00">Slic3r::TriangleMesh</text>
<text text-anchor="middle" x="310.38" y="-73.75" font-family="Helvetica,sans-Serif" font-size="10.00">::write_ascii</text>
</a>
</g>
</g>
<!-- Node14&#45;&gt;Node15 -->
<g id="edge16_Node000014_Node000015" class="edge">
<title>Node14&#45;&gt;Node15</title>
<g id="a_edge16_Node000014_Node000015"><a xlink:title=" ">
<path fill="none" stroke="#63b8ff" d="M213.59,-83.25C224.12,-83.25 235.67,-83.25 246.98,-83.25"/>
<polygon fill="#63b8ff" stroke="#63b8ff" points="246.72,-86.75 256.72,-83.25 246.72,-79.75 246.72,-86.75"/>
</a>
</g>
</g>
<!-- Node17 -->
<g id="Node000017" class="node">
<title>Node17</title>
<g id="a_Node000017"><a xlink:href="../../d8/d71/class_slic3r_1_1_triangle_mesh.html#ae5cb9d957ecf0a16d141f7c8c791b217" target="_top" xlink:title=" ">
<polygon fill="white" stroke="#666666" points="363,-40.5 257.75,-40.5 257.75,-10 363,-10 363,-40.5"/>
<text text-anchor="start" x="265.75" y="-27" font-family="Helvetica,sans-Serif" font-size="10.00">Slic3r::TriangleMesh</text>
<text text-anchor="middle" x="310.38" y="-15.75" font-family="Helvetica,sans-Serif" font-size="10.00">::write_binary</text>
</a>
</g>
</g>
<!-- Node14&#45;&gt;Node17 -->
<g id="edge19_Node000014_Node000017" class="edge">
<title>Node14&#45;&gt;Node17</title>
<g id="a_edge19_Node000014_Node000017"><a xlink:title=" ">
<path fill="none" stroke="#63b8ff" d="M195.93,-73.15C214.19,-65.44 239.94,-54.57 262.29,-45.13"/>
<polygon fill="#63b8ff" stroke="#63b8ff" points="263.43,-48.03 271.28,-40.91 260.7,-41.58 263.43,-48.03"/>
</a>
</g>
</g>
<!-- Node16 -->
<g id="Node000016" class="node">
<title>Node16</title>
<g id="a_Node000016"><a xlink:href="../../de/db8/namespace_slic3r.html#a76dcd0f4341a1b1b18d30ad94969eed0" target="_top" xlink:title=" ">
<polygon fill="white" stroke="#666666" points="501.25,-98.5 402,-98.5 402,-68 501.25,-68 501.25,-98.5"/>
<text text-anchor="start" x="410" y="-85" font-family="Helvetica,sans-Serif" font-size="10.00">Slic3r::its_write_stl</text>
<text text-anchor="middle" x="451.62" y="-73.75" font-family="Helvetica,sans-Serif" font-size="10.00">_ascii</text>
</a>
</g>
</g>
<!-- Node15&#45;&gt;Node16 -->
<g id="edge17_Node000015_Node000016" class="edge">
<title>Node15&#45;&gt;Node16</title>
<g id="a_edge17_Node000015_Node000016"><a xlink:title=" ">
<path fill="none" stroke="#63b8ff" d="M363.23,-83.25C372.13,-83.25 381.45,-83.25 390.55,-83.25"/>
<polygon fill="#63b8ff" stroke="#63b8ff" points="390.5,-86.75 400.5,-83.25 390.5,-79.75 390.5,-86.75"/>
</a>
</g>
</g>
<!-- Node16&#45;&gt;Node16 -->
<g id="edge18_Node000016_Node000016" class="edge">
<title>Node16&#45;&gt;Node16</title>
<g id="a_edge18_Node000016_Node000016"><a xlink:title=" ">
<path fill="none" stroke="#63b8ff" d="M426.6,-98.99C421.49,-108.06 429.83,-116.5 451.62,-116.5 463.88,-116.5 471.89,-113.83 475.63,-109.88"/>
<polygon fill="#63b8ff" stroke="#63b8ff" points="479.21,-110.27 476.65,-99.99 472.24,-109.62 479.21,-110.27"/>
</a>
</g>
</g>
<!-- Node18 -->
<g id="Node000018" class="node">
<title>Node18</title>
<g id="a_Node000018"><a xlink:href="../../de/db8/namespace_slic3r.html#ab9e43231cd1f23e1073d524f0f57ddad" target="_top" xlink:title=" ">
<polygon fill="white" stroke="#666666" points="501.25,-31.5 402,-31.5 402,-1 501.25,-1 501.25,-31.5"/>
<text text-anchor="start" x="410" y="-18" font-family="Helvetica,sans-Serif" font-size="10.00">Slic3r::its_write_stl</text>
<text text-anchor="middle" x="451.62" y="-6.75" font-family="Helvetica,sans-Serif" font-size="10.00">_binary</text>
</a>
</g>
</g>
<!-- Node17&#45;&gt;Node18 -->
<g id="edge20_Node000017_Node000018" class="edge">
<title>Node17&#45;&gt;Node18</title>
<g id="a_edge20_Node000017_Node000018"><a xlink:title=" ">
<path fill="none" stroke="#63b8ff" d="M363.23,-21.9C372.13,-21.32 381.45,-20.72 390.55,-20.13"/>
<polygon fill="#63b8ff" stroke="#63b8ff" points="390.75,-23.56 400.5,-19.43 390.3,-16.58 390.75,-23.56"/>
</a>
</g>
</g>
<!-- Node18&#45;&gt;Node18 -->
<g id="edge23_Node000018_Node000018" class="edge">
<title>Node18&#45;&gt;Node18</title>
<g id="a_edge23_Node000018_Node000018"><a xlink:title=" ">
<path fill="none" stroke="#63b8ff" d="M426.6,-31.99C421.49,-41.06 429.83,-49.5 451.62,-49.5 463.88,-49.5 471.89,-46.83 475.63,-42.88"/>
<polygon fill="#63b8ff" stroke="#63b8ff" points="479.21,-43.27 476.65,-32.99 472.24,-42.62 479.21,-43.27"/>
</a>
</g>
</g>
<!-- Node19 -->
<g id="Node000019" class="node">
<title>Node19</title>
<g id="a_Node000019"><a xlink:href="../../de/db8/namespace_slic3r.html#aabb32072fb4d599918e2c03d45253519" target="_top" xlink:title=" ">
<polygon fill="white" stroke="#666666" points="657.5,-30.5 564.25,-30.5 564.25,0 657.5,0 657.5,-30.5"/>
<text text-anchor="start" x="572.25" y="-17" font-family="Helvetica,sans-Serif" font-size="10.00">Slic3r::big_endian</text>
<text text-anchor="middle" x="610.88" y="-5.75" font-family="Helvetica,sans-Serif" font-size="10.00">_reverse_quads</text>
</a>
</g>
</g>
<!-- Node18&#45;&gt;Node19 -->
<g id="edge21_Node000018_Node000019" class="edge">
<title>Node18&#45;&gt;Node19</title>
<g id="a_edge21_Node000018_Node000019"><a xlink:title=" ">
<path fill="none" stroke="#63b8ff" d="M501.52,-15.94C517.86,-15.84 536.22,-15.72 553.11,-15.61"/>
<polygon fill="#63b8ff" stroke="#63b8ff" points="552.99,-19.11 562.96,-15.54 552.94,-12.11 552.99,-19.11"/>
</a>
</g>
</g>
<!-- Node19&#45;&gt;Node19 -->
<g id="edge22_Node000019_Node000019" class="edge">
<title>Node19&#45;&gt;Node19</title>
<g id="a_edge22_Node000019_Node000019"><a xlink:title=" ">
<path fill="none" stroke="#63b8ff" d="M582.66,-30.99C576.9,-40.06 586.3,-48.5 610.88,-48.5 624.7,-48.5 633.72,-45.83 637.94,-41.88"/>
<polygon fill="#63b8ff" stroke="#63b8ff" points="641.53,-42.3 639.09,-31.99 634.56,-41.56 641.53,-42.3"/>
</a>
</g>
</g>
</g>
</svg>
