<?xml version="1.0" encoding="UTF-8" standalone="no"?>
<!DOCTYPE svg PUBLIC "-//W3C//DTD SVG 1.1//EN"
 "http://www.w3.org/Graphics/SVG/1.1/DTD/svg11.dtd">
<!-- Generated by graphviz version 8.1.0 (20230707.0739)
 -->
<!-- Title: Slic3r::invalidate_translations Pages: 1 -->
<svg width="439pt" height="39pt"
 viewBox="0.00 0.00 439.25 38.50" xmlns="http://www.w3.org/2000/svg" xmlns:xlink="http://www.w3.org/1999/xlink">
<g id="graph0" class="graph" transform="scale(1 1) rotate(0) translate(4 34.5)">
<title>Slic3r::invalidate_translations</title>
<!-- Node1 -->
<g id="Node000001" class="node">
<title>Node1</title>
<g id="a_Node000001"><a xlink:title=" ">
<polygon fill="#999999" stroke="#666666" points="88,-30.5 0,-30.5 0,0 88,0 88,-30.5"/>
<text text-anchor="start" x="8" y="-17" font-family="Helvetica,sans-Serif" font-size="10.00">Slic3r::invalidate</text>
<text text-anchor="middle" x="44" y="-5.75" font-family="Helvetica,sans-Serif" font-size="10.00">_translations</text>
</a>
</g>
</g>
<!-- Node2 -->
<g id="Node000002" class="node">
<title>Node2</title>
<g id="a_Node000002"><a xlink:href="../../d2/d67/class_slic3r_1_1_model_instance.html#ac281481e2cb2eeb546dfca0d1d65392a" target="_top" xlink:title=" ">
<polygon fill="white" stroke="#666666" points="234.5,-30.5 124,-30.5 124,0 234.5,0 234.5,-30.5"/>
<text text-anchor="start" x="132" y="-17" font-family="Helvetica,sans-Serif" font-size="10.00">Slic3r::ModelInstance</text>
<text text-anchor="middle" x="179.25" y="-5.75" font-family="Helvetica,sans-Serif" font-size="10.00">::get_offset</text>
</a>
</g>
</g>
<!-- Node1&#45;&gt;Node2 -->
<g id="edge1_Node000001_Node000002" class="edge">
<title>Node1&#45;&gt;Node2</title>
<g id="a_edge1_Node000001_Node000002"><a xlink:title=" ">
<path fill="none" stroke="#63b8ff" d="M88.26,-15.25C96.08,-15.25 104.39,-15.25 112.68,-15.25"/>
<polygon fill="#63b8ff" stroke="#63b8ff" points="112.53,-18.75 122.53,-15.25 112.53,-11.75 112.53,-18.75"/>
</a>
</g>
</g>
<!-- Node3 -->
<g id="Node000003" class="node">
<title>Node3</title>
<g id="a_Node000003"><a xlink:href="../../d6/d28/class_slic3r_1_1_geometry_1_1_transformation.html#a17d99b6eba7da1e4d2a00e2864a87cc8" target="_top" xlink:title=" ">
<polygon fill="white" stroke="#666666" points="431.25,-30.5 270.5,-30.5 270.5,0 431.25,0 431.25,-30.5"/>
<text text-anchor="start" x="278.5" y="-17" font-family="Helvetica,sans-Serif" font-size="10.00">Slic3r::Geometry::Transformation</text>
<text text-anchor="middle" x="350.88" y="-5.75" font-family="Helvetica,sans-Serif" font-size="10.00">::get_offset</text>
</a>
</g>
</g>
<!-- Node2&#45;&gt;Node3 -->
<g id="edge2_Node000002_Node000003" class="edge">
<title>Node2&#45;&gt;Node3</title>
<g id="a_edge2_Node000002_Node000003"><a xlink:title=" ">
<path fill="none" stroke="#63b8ff" d="M234.85,-15.25C242.67,-15.25 250.87,-15.25 259.15,-15.25"/>
<polygon fill="#63b8ff" stroke="#63b8ff" points="259.05,-18.75 269.05,-15.25 259.05,-11.75 259.05,-18.75"/>
</a>
</g>
</g>
</g>
</svg>
