<?xml version="1.0" encoding="UTF-8" standalone="no"?>
<!DOCTYPE svg PUBLIC "-//W3C//DTD SVG 1.1//EN"
 "http://www.w3.org/Graphics/SVG/1.1/DTD/svg11.dtd">
<!-- Generated by graphviz version 8.1.0 (20230707.0739)
 -->
<!-- Title: src/agg/agg_renderer_base.h Pages: 1 -->
<svg width="390pt" height="227pt"
 viewBox="0.00 0.00 389.50 226.75" xmlns="http://www.w3.org/2000/svg" xmlns:xlink="http://www.w3.org/1999/xlink">

<svg id="main" version="1.1" xmlns="http://www.w3.org/2000/svg" xmlns:xlink="http://www.w3.org/1999/xlink" xml:space="preserve" onload="init(evt)">
<style type="text/css"><![CDATA[
.node, .edge {opacity: 0.7;}
.node.selected, .edge.selected {opacity: 1;}
.edge:hover path { stroke: red; }
.edge:hover polygon { stroke: red; fill: red; }
]]></style>
<script type="application/ecmascript" xlink:href="../../svg.min.js"/>
<svg id="graph" class="graph">
<g id="graph0" class="graph" transform="scale(1 1) rotate(0) translate(4 222.75)">
<title>src/agg/agg_renderer_base.h</title>
<!-- Node1 -->
<g id="Node000001" class="node">
<title>Node1</title>
<g id="a_Node000001"><a xlink:title=" ">
<polygon fill="#999999" stroke="#666666" points="223.5,-218.75 116,-218.75 116,-188.25 223.5,-188.25 223.5,-218.75"/>
<text text-anchor="start" x="124" y="-205.25" font-family="Helvetica,sans-Serif" font-size="10.00">src/agg/agg_renderer</text>
<text text-anchor="middle" x="169.75" y="-194" font-family="Helvetica,sans-Serif" font-size="10.00">_base.h</text>
</a>
</g>
</g>
<!-- Node2 -->
<g id="Node000002" class="node">
<title>Node2</title>
<g id="a_Node000002"><a xlink:href="../../d6/d75/agg__renderer__scanline_8h.html" target="_top" xlink:title=" ">
<polygon fill="white" stroke="#666666" points="264.5,-152.25 157,-152.25 157,-121.75 264.5,-121.75 264.5,-152.25"/>
<text text-anchor="start" x="165" y="-138.75" font-family="Helvetica,sans-Serif" font-size="10.00">src/agg/agg_renderer</text>
<text text-anchor="middle" x="210.75" y="-127.5" font-family="Helvetica,sans-Serif" font-size="10.00">_scanline.h</text>
</a>
</g>
</g>
<!-- Node1&#45;&gt;Node2 -->
<g id="edge1_Node000001_Node000002" class="edge">
<title>Node1&#45;&gt;Node2</title>
<g id="a_edge1_Node000001_Node000002"><a xlink:title=" ">
<path fill="none" stroke="#63b8ff" d="M184.8,-178.82C190.39,-170.03 196.56,-160.32 201.48,-152.58"/>
<polygon fill="#63b8ff" stroke="#63b8ff" points="181.46,-176.55 179.05,-186.86 187.37,-180.3 181.46,-176.55"/>
</a>
</g>
</g>
<!-- Node3 -->
<g id="Node000003" class="node">
<title>Node3</title>
<g id="a_Node000003"><a xlink:href="../../d8/d4f/_a_g_g_raster_8hpp.html" target="_top" xlink:title=" ">
<polygon fill="white" stroke="#666666" points="208.38,-85.75 49.12,-85.75 49.12,-66.5 208.38,-66.5 208.38,-85.75"/>
<text text-anchor="middle" x="128.75" y="-72.25" font-family="Helvetica,sans-Serif" font-size="10.00">src/libslic3r/SLA/AGGRaster.hpp</text>
</a>
</g>
</g>
<!-- Node1&#45;&gt;Node3 -->
<g id="edge6_Node000001_Node000003" class="edge">
<title>Node1&#45;&gt;Node3</title>
<g id="a_edge6_Node000001_Node000003"><a xlink:title=" ">
<path fill="none" stroke="#63b8ff" d="M158.02,-177.92C154.43,-169.85 150.67,-160.77 147.75,-152.25 139.72,-128.83 133.42,-100.27 130.51,-86.05"/>
<polygon fill="#63b8ff" stroke="#63b8ff" points="155.2,-179.17 162.55,-186.8 161.57,-176.25 155.2,-179.17"/>
</a>
</g>
</g>
<!-- Node2&#45;&gt;Node3 -->
<g id="edge2_Node000002_Node000003" class="edge">
<title>Node2&#45;&gt;Node3</title>
<g id="a_edge2_Node000002_Node000003"><a xlink:title=" ">
<path fill="none" stroke="#63b8ff" d="M181.76,-115.19C167.94,-105.26 152.12,-93.91 141.39,-86.2"/>
<polygon fill="#63b8ff" stroke="#63b8ff" points="179.32,-118.46 189.48,-121.45 183.4,-112.77 179.32,-118.46"/>
</a>
</g>
</g>
<!-- Node6 -->
<g id="Node000006" class="node">
<title>Node6</title>
<g id="a_Node000006"><a xlink:href="../../d8/d05/_support_material_8cpp.html" target="_top" xlink:title=" ">
<polygon fill="white" stroke="#666666" points="381.5,-85.75 226,-85.75 226,-66.5 381.5,-66.5 381.5,-85.75"/>
<text text-anchor="middle" x="303.75" y="-72.25" font-family="Helvetica,sans-Serif" font-size="10.00">src/libslic3r/SupportMaterial.cpp</text>
</a>
</g>
</g>
<!-- Node2&#45;&gt;Node6 -->
<g id="edge5_Node000002_Node000006" class="edge">
<title>Node2&#45;&gt;Node6</title>
<g id="a_edge5_Node000002_Node000006"><a xlink:title=" ">
<path fill="none" stroke="#63b8ff" d="M242.74,-115.75C258.62,-105.7 277.01,-94.05 289.41,-86.2"/>
<polygon fill="#63b8ff" stroke="#63b8ff" points="241.32,-113.14 234.74,-121.45 245.06,-119.05 241.32,-113.14"/>
</a>
</g>
</g>
<!-- Node4 -->
<g id="Node000004" class="node">
<title>Node4</title>
<g id="a_Node000004"><a xlink:href="../../d0/dc0/_raster_base_8cpp.html" target="_top" xlink:title=" ">
<polygon fill="white" stroke="#666666" points="119.5,-30.5 0,-30.5 0,0 119.5,0 119.5,-30.5"/>
<text text-anchor="start" x="8" y="-17" font-family="Helvetica,sans-Serif" font-size="10.00">src/libslic3r/SLA/Raster</text>
<text text-anchor="middle" x="59.75" y="-5.75" font-family="Helvetica,sans-Serif" font-size="10.00">Base.cpp</text>
</a>
</g>
</g>
<!-- Node3&#45;&gt;Node4 -->
<g id="edge3_Node000003_Node000004" class="edge">
<title>Node3&#45;&gt;Node4</title>
<g id="a_edge3_Node000003_Node000004"><a xlink:title=" ">
<path fill="none" stroke="#63b8ff" d="M109.92,-59.06C99.57,-50.23 86.83,-39.36 76.78,-30.78"/>
<polygon fill="#63b8ff" stroke="#63b8ff" points="107.39,-62.35 117.27,-66.18 111.94,-57.03 107.39,-62.35"/>
</a>
</g>
</g>
<!-- Node5 -->
<g id="Node000005" class="node">
<title>Node5</title>
<g id="a_Node000005"><a xlink:href="../../df/de1/_raster_to_polygons_8cpp.html" target="_top" xlink:title=" ">
<polygon fill="white" stroke="#666666" points="257.5,-30.5 138,-30.5 138,0 257.5,0 257.5,-30.5"/>
<text text-anchor="start" x="146" y="-17" font-family="Helvetica,sans-Serif" font-size="10.00">src/libslic3r/SLA/Raster</text>
<text text-anchor="middle" x="197.75" y="-5.75" font-family="Helvetica,sans-Serif" font-size="10.00">ToPolygons.cpp</text>
</a>
</g>
</g>
<!-- Node3&#45;&gt;Node5 -->
<g id="edge4_Node000003_Node000005" class="edge">
<title>Node3&#45;&gt;Node5</title>
<g id="a_edge4_Node000003_Node000005"><a xlink:title=" ">
<path fill="none" stroke="#63b8ff" d="M147.58,-59.06C157.93,-50.23 170.67,-39.36 180.72,-30.78"/>
<polygon fill="#63b8ff" stroke="#63b8ff" points="145.56,-57.03 140.23,-66.18 150.11,-62.35 145.56,-57.03"/>
</a>
</g>
</g>
</g>
</svg>
</svg>

<style type='text/css'>
<![CDATA[
[data-mouse-over-selected='false'] { opacity: 0.7; }
[data-mouse-over-selected='true']  { opacity: 1.0; }
]]>
</style>
<script type="application/ecmascript"><![CDATA[
document.addEventListener('DOMContentLoaded', (event) => {
  highlightEdges();
  highlightAdjacentNodes();
});
]]></script>
</svg>
