<?xml version="1.0" encoding="UTF-8" standalone="no"?>
<!DOCTYPE svg PUBLIC "-//W3C//DTD SVG 1.1//EN"
 "http://www.w3.org/Graphics/SVG/1.1/DTD/svg11.dtd">
<!-- Generated by graphviz version 8.1.0 (20230707.0739)
 -->
<!-- Title: Slic3r::GLVolumeCollection::clear Pages: 1 -->
<svg width="932pt" height="235pt"
 viewBox="0.00 0.00 932.00 234.50" xmlns="http://www.w3.org/2000/svg" xmlns:xlink="http://www.w3.org/1999/xlink">
<g id="graph0" class="graph" transform="scale(1 1) rotate(0) translate(4 230.5)">
<title>Slic3r::GLVolumeCollection::clear</title>
<!-- Node1 -->
<g id="Node000001" class="node">
<title>Node1</title>
<g id="a_Node000001"><a xlink:title=" ">
<polygon fill="#999999" stroke="#666666" points="924,-177.5 788.75,-177.5 788.75,-147 924,-147 924,-177.5"/>
<text text-anchor="start" x="796.75" y="-164" font-family="Helvetica,sans-Serif" font-size="10.00">Slic3r::GLVolumeCollection</text>
<text text-anchor="middle" x="856.38" y="-152.75" font-family="Helvetica,sans-Serif" font-size="10.00">::clear</text>
</a>
</g>
</g>
<!-- Node2 -->
<g id="Node000002" class="node">
<title>Node2</title>
<g id="a_Node000002"><a xlink:href="../../d4/dc9/class_slic3r_1_1_g_l_volume_collection.html#ab292ec4cf09e1e7ecf963f739e7e6cef" target="_top" xlink:title=" ">
<polygon fill="white" stroke="#666666" points="752.75,-226.5 617.5,-226.5 617.5,-196 752.75,-196 752.75,-226.5"/>
<text text-anchor="start" x="625.5" y="-213" font-family="Helvetica,sans-Serif" font-size="10.00">Slic3r::GLVolumeCollection</text>
<text text-anchor="middle" x="685.12" y="-201.75" font-family="Helvetica,sans-Serif" font-size="10.00">::~GLVolumeCollection</text>
</a>
</g>
</g>
<!-- Node1&#45;&gt;Node2 -->
<g id="edge1_Node000001_Node000002" class="edge">
<title>Node1&#45;&gt;Node2</title>
<g id="a_edge1_Node000001_Node000002"><a xlink:title=" ">
<path fill="none" stroke="#63b8ff" d="M791.14,-180.85C774.44,-185.68 756.63,-190.84 740.5,-195.51"/>
<polygon fill="#63b8ff" stroke="#63b8ff" points="791.73,-184.03 800.36,-177.89 789.78,-177.31 791.73,-184.03"/>
</a>
</g>
</g>
<!-- Node3 -->
<g id="Node000003" class="node">
<title>Node3</title>
<g id="a_Node000003"><a xlink:href="../../de/dc3/class_slic3r_1_1_g_u_i_1_1_g_code_viewer.html#a0bf7cf2b9fc48acee79bd6d6365e8fed" target="_top" xlink:title=" ">
<polygon fill="white" stroke="#666666" points="750.88,-177.5 619.38,-177.5 619.38,-147 750.88,-147 750.88,-177.5"/>
<text text-anchor="start" x="627.38" y="-164" font-family="Helvetica,sans-Serif" font-size="10.00">Slic3r::GUI::GCodeViewer</text>
<text text-anchor="middle" x="685.12" y="-152.75" font-family="Helvetica,sans-Serif" font-size="10.00">::reset_shell</text>
</a>
</g>
</g>
<!-- Node1&#45;&gt;Node3 -->
<g id="edge2_Node000001_Node000003" class="edge">
<title>Node1&#45;&gt;Node3</title>
<g id="a_edge2_Node000001_Node000003"><a xlink:title=" ">
<path fill="none" stroke="#63b8ff" d="M777.72,-162.25C768.84,-162.25 759.85,-162.25 751.15,-162.25"/>
<polygon fill="#63b8ff" stroke="#63b8ff" points="777.48,-165.75 787.48,-162.25 777.48,-158.75 777.48,-165.75"/>
</a>
</g>
</g>
<!-- Node16 -->
<g id="Node000016" class="node">
<title>Node16</title>
<g id="a_Node000016"><a xlink:href="../../d0/d2b/class_slic3r_1_1_g_u_i_1_1_g_l_canvas3_d.html#a096df36d00a506134646ca619e2c9a4c" target="_top" xlink:title=" ">
<polygon fill="white" stroke="#666666" points="750.12,-104.5 620.12,-104.5 620.12,-74 750.12,-74 750.12,-104.5"/>
<text text-anchor="start" x="628.12" y="-91" font-family="Helvetica,sans-Serif" font-size="10.00">Slic3r::GUI::GLCanvas3D</text>
<text text-anchor="middle" x="685.12" y="-79.75" font-family="Helvetica,sans-Serif" font-size="10.00">::reset_volumes</text>
</a>
</g>
</g>
<!-- Node1&#45;&gt;Node16 -->
<g id="edge9_Node000001_Node000016" class="edge">
<title>Node1&#45;&gt;Node16</title>
<g id="a_edge9_Node000001_Node000016"><a xlink:title=" ">
<path fill="none" stroke="#63b8ff" d="M808.97,-142.23C781.68,-130.46 747.68,-115.8 722.37,-104.88"/>
<polygon fill="#63b8ff" stroke="#63b8ff" points="807.5,-145.84 818.07,-146.59 810.27,-139.42 807.5,-145.84"/>
</a>
</g>
</g>
<!-- Node4 -->
<g id="Node000004" class="node">
<title>Node4</title>
<g id="a_Node000004"><a xlink:href="../../de/dc3/class_slic3r_1_1_g_u_i_1_1_g_code_viewer.html#ac5572013af0e5fe37d96eac5be41b66f" target="_top" xlink:title=" ">
<polygon fill="white" stroke="#666666" points="581.5,-226.5 450,-226.5 450,-196 581.5,-196 581.5,-226.5"/>
<text text-anchor="start" x="458" y="-213" font-family="Helvetica,sans-Serif" font-size="10.00">Slic3r::GUI::GCodeViewer</text>
<text text-anchor="middle" x="515.75" y="-201.75" font-family="Helvetica,sans-Serif" font-size="10.00">::load_shells</text>
</a>
</g>
</g>
<!-- Node3&#45;&gt;Node4 -->
<g id="edge3_Node000003_Node000004" class="edge">
<title>Node3&#45;&gt;Node4</title>
<g id="a_edge3_Node000003_Node000004"><a xlink:title=" ">
<path fill="none" stroke="#63b8ff" d="M620.6,-180.85C604.09,-185.68 586.47,-190.84 570.52,-195.51"/>
<polygon fill="#63b8ff" stroke="#63b8ff" points="621.09,-184.06 629.71,-177.89 619.13,-177.34 621.09,-184.06"/>
</a>
</g>
</g>
<!-- Node14 -->
<g id="Node000014" class="node">
<title>Node14</title>
<g id="a_Node000014"><a xlink:href="../../d0/d2b/class_slic3r_1_1_g_u_i_1_1_g_l_canvas3_d.html#a25877057f0023df548de9839056075e1" target="_top" xlink:title=" ">
<polygon fill="white" stroke="#666666" points="580.75,-177.5 450.75,-177.5 450.75,-147 580.75,-147 580.75,-177.5"/>
<text text-anchor="start" x="458.75" y="-164" font-family="Helvetica,sans-Serif" font-size="10.00">Slic3r::GUI::GLCanvas3D</text>
<text text-anchor="middle" x="515.75" y="-152.75" font-family="Helvetica,sans-Serif" font-size="10.00">::reset_shells</text>
</a>
</g>
</g>
<!-- Node3&#45;&gt;Node14 -->
<g id="edge7_Node000003_Node000014" class="edge">
<title>Node3&#45;&gt;Node14</title>
<g id="a_edge7_Node000003_Node000014"><a xlink:title=" ">
<path fill="none" stroke="#63b8ff" d="M608.07,-162.25C599.1,-162.25 590.01,-162.25 581.21,-162.25"/>
<polygon fill="#63b8ff" stroke="#63b8ff" points="607.93,-165.75 617.93,-162.25 607.93,-158.75 607.93,-165.75"/>
</a>
</g>
</g>
<!-- Node5 -->
<g id="Node000005" class="node">
<title>Node5</title>
<g id="a_Node000005"><a xlink:href="../../d0/d2b/class_slic3r_1_1_g_u_i_1_1_g_l_canvas3_d.html#a8d41878235e4cd1abbcc423a3aa3a016" target="_top" xlink:title=" ">
<polygon fill="white" stroke="#666666" points="414,-226.5 284,-226.5 284,-196 414,-196 414,-226.5"/>
<text text-anchor="start" x="292" y="-213" font-family="Helvetica,sans-Serif" font-size="10.00">Slic3r::GUI::GLCanvas3D</text>
<text text-anchor="middle" x="349" y="-201.75" font-family="Helvetica,sans-Serif" font-size="10.00">::load_shells</text>
</a>
</g>
</g>
<!-- Node4&#45;&gt;Node5 -->
<g id="edge4_Node000004_Node000005" class="edge">
<title>Node4&#45;&gt;Node5</title>
<g id="a_edge4_Node000004_Node000005"><a xlink:title=" ">
<path fill="none" stroke="#63b8ff" d="M438.65,-211.25C430.53,-211.25 422.33,-211.25 414.37,-211.25"/>
<polygon fill="#63b8ff" stroke="#63b8ff" points="438.64,-214.75 448.64,-211.25 438.64,-207.75 438.64,-214.75"/>
</a>
</g>
</g>
<!-- Node6 -->
<g id="Node000006" class="node">
<title>Node6</title>
<g id="a_Node000006"><a xlink:href="../../de/db8/class_slic3r_1_1_g_u_i_1_1_preview.html#a3772b78db4591f804e65988b3dee5407" target="_top" xlink:title=" ">
<polygon fill="white" stroke="#666666" points="248,-226.5 142,-226.5 142,-196 248,-196 248,-226.5"/>
<text text-anchor="start" x="150" y="-213" font-family="Helvetica,sans-Serif" font-size="10.00">Slic3r::GUI::Preview</text>
<text text-anchor="middle" x="195" y="-201.75" font-family="Helvetica,sans-Serif" font-size="10.00">::load_shells</text>
</a>
</g>
</g>
<!-- Node5&#45;&gt;Node6 -->
<g id="edge5_Node000005_Node000006" class="edge">
<title>Node5&#45;&gt;Node6</title>
<g id="a_edge5_Node000005_Node000006"><a xlink:title=" ">
<path fill="none" stroke="#63b8ff" d="M272.67,-211.25C264.37,-211.25 256.06,-211.25 248.13,-211.25"/>
<polygon fill="#63b8ff" stroke="#63b8ff" points="272.54,-214.75 282.54,-211.25 272.54,-207.75 272.54,-214.75"/>
</a>
</g>
</g>
<!-- Node7 -->
<g id="Node000007" class="node">
<title>Node7</title>
<g id="a_Node000007"><a xlink:href="../../de/db8/class_slic3r_1_1_g_u_i_1_1_preview.html#ab3fdf034d196ca61a49c00cf991e1735" target="_top" xlink:title=" ">
<polygon fill="#fff0f0" stroke="red" points="106,-226.5 0,-226.5 0,-196 106,-196 106,-226.5"/>
<text text-anchor="start" x="8" y="-213" font-family="Helvetica,sans-Serif" font-size="10.00">Slic3r::GUI::Preview</text>
<text text-anchor="middle" x="53" y="-201.75" font-family="Helvetica,sans-Serif" font-size="10.00">::load_print_as_fff</text>
</a>
</g>
</g>
<!-- Node6&#45;&gt;Node7 -->
<g id="edge6_Node000006_Node000007" class="edge">
<title>Node6&#45;&gt;Node7</title>
<g id="a_edge6_Node000006_Node000007"><a xlink:title=" ">
<path fill="none" stroke="#63b8ff" d="M131.05,-211.25C122.74,-211.25 114.28,-211.25 106.17,-211.25"/>
<polygon fill="#63b8ff" stroke="#63b8ff" points="130.87,-214.75 140.87,-211.25 130.87,-207.75 130.87,-214.75"/>
</a>
</g>
</g>
<!-- Node15 -->
<g id="Node000015" class="node">
<title>Node15</title>
<g id="a_Node000015"><a xlink:href="../../de/db8/class_slic3r_1_1_g_u_i_1_1_preview.html#aa312041d068b7d99874bc90388c43730" target="_top" xlink:title=" ">
<polygon fill="white" stroke="#666666" points="402,-177.5 296,-177.5 296,-147 402,-147 402,-177.5"/>
<text text-anchor="start" x="304" y="-164" font-family="Helvetica,sans-Serif" font-size="10.00">Slic3r::GUI::Preview</text>
<text text-anchor="middle" x="349" y="-152.75" font-family="Helvetica,sans-Serif" font-size="10.00">::reset_shells</text>
</a>
</g>
</g>
<!-- Node14&#45;&gt;Node15 -->
<g id="edge8_Node000014_Node000015" class="edge">
<title>Node14&#45;&gt;Node15</title>
<g id="a_edge8_Node000014_Node000015"><a xlink:title=" ">
<path fill="none" stroke="#63b8ff" d="M439.59,-162.25C426.99,-162.25 414.16,-162.25 402.29,-162.25"/>
<polygon fill="#63b8ff" stroke="#63b8ff" points="439.58,-165.75 449.58,-162.25 439.58,-158.75 439.58,-165.75"/>
</a>
</g>
</g>
<!-- Node17 -->
<g id="Node000017" class="node">
<title>Node17</title>
<g id="a_Node000017"><a xlink:href="../../d0/d2b/class_slic3r_1_1_g_u_i_1_1_g_l_canvas3_d.html#abe5454914ba84090fd47427512ced6d5" target="_top" xlink:title=" ">
<polygon fill="white" stroke="#666666" points="580.75,-128.5 450.75,-128.5 450.75,-98 580.75,-98 580.75,-128.5"/>
<text text-anchor="start" x="458.75" y="-115" font-family="Helvetica,sans-Serif" font-size="10.00">Slic3r::GUI::GLCanvas3D</text>
<text text-anchor="middle" x="515.75" y="-103.75" font-family="Helvetica,sans-Serif" font-size="10.00">::~GLCanvas3D</text>
</a>
</g>
</g>
<!-- Node16&#45;&gt;Node17 -->
<g id="edge10_Node000016_Node000017" class="edge">
<title>Node16&#45;&gt;Node17</title>
<g id="a_edge10_Node000016_Node000017"><a xlink:title=" ">
<path fill="none" stroke="#63b8ff" d="M609.04,-100.02C599.71,-101.35 590.23,-102.71 581.09,-104.02"/>
<polygon fill="#63b8ff" stroke="#63b8ff" points="609.49,-103.34 618.89,-98.46 608.5,-96.42 609.49,-103.34"/>
</a>
</g>
</g>
<!-- Node18 -->
<g id="Node000018" class="node">
<title>Node18</title>
<g id="a_Node000018"><a xlink:href="../../d0/d2b/class_slic3r_1_1_g_u_i_1_1_g_l_canvas3_d.html#aeea51f6f922b91192484b4d4a1c8068a" target="_top" xlink:title=" ">
<polygon fill="white" stroke="#666666" points="580.75,-79.5 450.75,-79.5 450.75,-49 580.75,-49 580.75,-79.5"/>
<text text-anchor="start" x="458.75" y="-66" font-family="Helvetica,sans-Serif" font-size="10.00">Slic3r::GUI::GLCanvas3D</text>
<text text-anchor="middle" x="515.75" y="-54.75" font-family="Helvetica,sans-Serif" font-size="10.00">::load_sla_preview</text>
</a>
</g>
</g>
<!-- Node16&#45;&gt;Node18 -->
<g id="edge11_Node000016_Node000018" class="edge">
<title>Node16&#45;&gt;Node18</title>
<g id="a_edge11_Node000016_Node000018"><a xlink:title=" ">
<path fill="none" stroke="#63b8ff" d="M609.04,-78.03C599.71,-76.64 590.23,-75.23 581.09,-73.86"/>
<polygon fill="#63b8ff" stroke="#63b8ff" points="608.48,-81.64 618.89,-79.66 609.52,-74.72 608.48,-81.64"/>
</a>
</g>
</g>
<!-- Node12 -->
<g id="Node000012" class="node">
<title>Node12</title>
<g id="a_Node000012"><a xlink:href="../../de/db8/class_slic3r_1_1_g_u_i_1_1_preview.html#a0940ba7ceb1552059ee1cfb3b6171a0a" target="_top" xlink:title=" ">
<polygon fill="#fff0f0" stroke="red" points="568.75,-30.5 462.75,-30.5 462.75,0 568.75,0 568.75,-30.5"/>
<text text-anchor="start" x="470.75" y="-17" font-family="Helvetica,sans-Serif" font-size="10.00">Slic3r::GUI::Preview</text>
<text text-anchor="middle" x="515.75" y="-5.75" font-family="Helvetica,sans-Serif" font-size="10.00">::reload_print</text>
</a>
</g>
</g>
<!-- Node16&#45;&gt;Node12 -->
<g id="edge12_Node000016_Node000012" class="edge">
<title>Node16&#45;&gt;Node12</title>
<g id="a_edge12_Node000016_Node000012"><a xlink:title=" ">
<path fill="none" stroke="#63b8ff" d="M643.3,-68.87C624.62,-59.77 602.09,-49.13 581.5,-40.25 574.2,-37.1 566.36,-33.92 558.74,-30.92"/>
<polygon fill="#63b8ff" stroke="#63b8ff" points="641.45,-72.35 651.97,-73.61 644.53,-66.06 641.45,-72.35"/>
</a>
</g>
</g>
</g>
</svg>
