<?xml version="1.0" encoding="UTF-8" standalone="no"?>
<!DOCTYPE svg PUBLIC "-//W3C//DTD SVG 1.1//EN"
 "http://www.w3.org/Graphics/SVG/1.1/DTD/svg11.dtd">
<!-- Generated by graphviz version 8.1.0 (20230707.0739)
 -->
<!-- Title: Slic3r::GLVolumeCollection::load_object Pages: 1 -->
<svg width="903pt" height="88pt"
 viewBox="0.00 0.00 902.75 87.50" xmlns="http://www.w3.org/2000/svg" xmlns:xlink="http://www.w3.org/1999/xlink">
<g id="graph0" class="graph" transform="scale(1 1) rotate(0) translate(4 83.5)">
<title>Slic3r::GLVolumeCollection::load_object</title>
<!-- Node1 -->
<g id="Node000001" class="node">
<title>Node1</title>
<g id="a_Node000001"><a xlink:title=" ">
<polygon fill="#999999" stroke="#666666" points="894.75,-54.5 759.5,-54.5 759.5,-24 894.75,-24 894.75,-54.5"/>
<text text-anchor="start" x="767.5" y="-41" font-family="Helvetica,sans-Serif" font-size="10.00">Slic3r::GLVolumeCollection</text>
<text text-anchor="middle" x="827.12" y="-29.75" font-family="Helvetica,sans-Serif" font-size="10.00">::load_object</text>
</a>
</g>
</g>
<!-- Node2 -->
<g id="Node000002" class="node">
<title>Node2</title>
<g id="a_Node000002"><a xlink:href="../../d0/d2b/class_slic3r_1_1_g_u_i_1_1_g_l_canvas3_d.html#acd05046b3f60b33c7e7d814c7f545959" target="_top" xlink:title=" ">
<polygon fill="white" stroke="#666666" points="722.75,-79.5 592.75,-79.5 592.75,-49 722.75,-49 722.75,-79.5"/>
<text text-anchor="start" x="600.75" y="-66" font-family="Helvetica,sans-Serif" font-size="10.00">Slic3r::GUI::GLCanvas3D</text>
<text text-anchor="middle" x="657.75" y="-54.75" font-family="Helvetica,sans-Serif" font-size="10.00">::load_object</text>
</a>
</g>
</g>
<!-- Node1&#45;&gt;Node2 -->
<g id="edge1_Node000001_Node000002" class="edge">
<title>Node1&#45;&gt;Node2</title>
<g id="a_edge1_Node000001_Node000002"><a xlink:title=" ">
<path fill="none" stroke="#63b8ff" d="M748.39,-50.86C739.94,-52.12 731.42,-53.4 723.16,-54.63"/>
<polygon fill="#63b8ff" stroke="#63b8ff" points="748.64,-54.21 758.01,-49.27 747.6,-47.29 748.64,-54.21"/>
</a>
</g>
</g>
<!-- Node4 -->
<g id="Node000004" class="node">
<title>Node4</title>
<g id="a_Node000004"><a xlink:href="../../de/dc3/class_slic3r_1_1_g_u_i_1_1_g_code_viewer.html#ac5572013af0e5fe37d96eac5be41b66f" target="_top" xlink:title=" ">
<polygon fill="white" stroke="#666666" points="723.5,-30.5 592,-30.5 592,0 723.5,0 723.5,-30.5"/>
<text text-anchor="start" x="600" y="-17" font-family="Helvetica,sans-Serif" font-size="10.00">Slic3r::GUI::GCodeViewer</text>
<text text-anchor="middle" x="657.75" y="-5.75" font-family="Helvetica,sans-Serif" font-size="10.00">::load_shells</text>
</a>
</g>
</g>
<!-- Node1&#45;&gt;Node4 -->
<g id="edge3_Node000001_Node000004" class="edge">
<title>Node1&#45;&gt;Node4</title>
<g id="a_edge3_Node000001_Node000004"><a xlink:title=" ">
<path fill="none" stroke="#63b8ff" d="M748.36,-28.1C740.2,-26.93 731.97,-25.75 723.97,-24.6"/>
<polygon fill="#63b8ff" stroke="#63b8ff" points="747.62,-31.67 758.01,-29.63 748.61,-24.74 747.62,-31.67"/>
</a>
</g>
</g>
<!-- Node3 -->
<g id="Node000003" class="node">
<title>Node3</title>
<g id="a_Node000003"><a xlink:href="../../d0/d2b/class_slic3r_1_1_g_u_i_1_1_g_l_canvas3_d.html#a49ca5be2f5e914e21059e56df61af404" target="_top" xlink:title=" ">
<polygon fill="white" stroke="#666666" points="556,-79.5 426,-79.5 426,-49 556,-49 556,-79.5"/>
<text text-anchor="start" x="434" y="-66" font-family="Helvetica,sans-Serif" font-size="10.00">Slic3r::GUI::GLCanvas3D</text>
<text text-anchor="middle" x="491" y="-54.75" font-family="Helvetica,sans-Serif" font-size="10.00">::load_object</text>
</a>
</g>
</g>
<!-- Node2&#45;&gt;Node3 -->
<g id="edge2_Node000002_Node000003" class="edge">
<title>Node2&#45;&gt;Node3</title>
<g id="a_edge2_Node000002_Node000003"><a xlink:title=" ">
<path fill="none" stroke="#63b8ff" d="M581.85,-64.25C573.3,-64.25 564.65,-64.25 556.26,-64.25"/>
<polygon fill="#63b8ff" stroke="#63b8ff" points="581.58,-67.75 591.58,-64.25 581.58,-60.75 581.58,-67.75"/>
</a>
</g>
</g>
<!-- Node5 -->
<g id="Node000005" class="node">
<title>Node5</title>
<g id="a_Node000005"><a xlink:href="../../d0/d2b/class_slic3r_1_1_g_u_i_1_1_g_l_canvas3_d.html#a8d41878235e4cd1abbcc423a3aa3a016" target="_top" xlink:title=" ">
<polygon fill="white" stroke="#666666" points="556,-30.5 426,-30.5 426,0 556,0 556,-30.5"/>
<text text-anchor="start" x="434" y="-17" font-family="Helvetica,sans-Serif" font-size="10.00">Slic3r::GUI::GLCanvas3D</text>
<text text-anchor="middle" x="491" y="-5.75" font-family="Helvetica,sans-Serif" font-size="10.00">::load_shells</text>
</a>
</g>
</g>
<!-- Node4&#45;&gt;Node5 -->
<g id="edge4_Node000004_Node000005" class="edge">
<title>Node4&#45;&gt;Node5</title>
<g id="a_edge4_Node000004_Node000005"><a xlink:title=" ">
<path fill="none" stroke="#63b8ff" d="M580.65,-15.25C572.53,-15.25 564.33,-15.25 556.37,-15.25"/>
<polygon fill="#63b8ff" stroke="#63b8ff" points="580.64,-18.75 590.64,-15.25 580.64,-11.75 580.64,-18.75"/>
</a>
</g>
</g>
<!-- Node6 -->
<g id="Node000006" class="node">
<title>Node6</title>
<g id="a_Node000006"><a xlink:href="../../de/db8/class_slic3r_1_1_g_u_i_1_1_preview.html#a3772b78db4591f804e65988b3dee5407" target="_top" xlink:title=" ">
<polygon fill="white" stroke="#666666" points="390,-30.5 284,-30.5 284,0 390,0 390,-30.5"/>
<text text-anchor="start" x="292" y="-17" font-family="Helvetica,sans-Serif" font-size="10.00">Slic3r::GUI::Preview</text>
<text text-anchor="middle" x="337" y="-5.75" font-family="Helvetica,sans-Serif" font-size="10.00">::load_shells</text>
</a>
</g>
</g>
<!-- Node5&#45;&gt;Node6 -->
<g id="edge5_Node000005_Node000006" class="edge">
<title>Node5&#45;&gt;Node6</title>
<g id="a_edge5_Node000005_Node000006"><a xlink:title=" ">
<path fill="none" stroke="#63b8ff" d="M414.67,-15.25C406.37,-15.25 398.06,-15.25 390.13,-15.25"/>
<polygon fill="#63b8ff" stroke="#63b8ff" points="414.54,-18.75 424.54,-15.25 414.54,-11.75 414.54,-18.75"/>
</a>
</g>
</g>
<!-- Node7 -->
<g id="Node000007" class="node">
<title>Node7</title>
<g id="a_Node000007"><a xlink:href="../../de/db8/class_slic3r_1_1_g_u_i_1_1_preview.html#ab3fdf034d196ca61a49c00cf991e1735" target="_top" xlink:title=" ">
<polygon fill="white" stroke="#666666" points="248,-30.5 142,-30.5 142,0 248,0 248,-30.5"/>
<text text-anchor="start" x="150" y="-17" font-family="Helvetica,sans-Serif" font-size="10.00">Slic3r::GUI::Preview</text>
<text text-anchor="middle" x="195" y="-5.75" font-family="Helvetica,sans-Serif" font-size="10.00">::load_print_as_fff</text>
</a>
</g>
</g>
<!-- Node6&#45;&gt;Node7 -->
<g id="edge6_Node000006_Node000007" class="edge">
<title>Node6&#45;&gt;Node7</title>
<g id="a_edge6_Node000006_Node000007"><a xlink:title=" ">
<path fill="none" stroke="#63b8ff" d="M273.05,-15.25C264.74,-15.25 256.28,-15.25 248.17,-15.25"/>
<polygon fill="#63b8ff" stroke="#63b8ff" points="272.87,-18.75 282.87,-15.25 272.87,-11.75 272.87,-18.75"/>
</a>
</g>
</g>
<!-- Node8 -->
<g id="Node000008" class="node">
<title>Node8</title>
<g id="a_Node000008"><a xlink:href="../../de/db8/class_slic3r_1_1_g_u_i_1_1_preview.html#a7a1616b241657b05e198074ef567c970" target="_top" xlink:title=" ">
<polygon fill="#fff0f0" stroke="red" points="106,-30.5 0,-30.5 0,0 106,0 106,-30.5"/>
<text text-anchor="start" x="8" y="-17" font-family="Helvetica,sans-Serif" font-size="10.00">Slic3r::GUI::Preview</text>
<text text-anchor="middle" x="53" y="-5.75" font-family="Helvetica,sans-Serif" font-size="10.00">::load_print</text>
</a>
</g>
</g>
<!-- Node7&#45;&gt;Node8 -->
<g id="edge7_Node000007_Node000008" class="edge">
<title>Node7&#45;&gt;Node8</title>
<g id="a_edge7_Node000007_Node000008"><a xlink:title=" ">
<path fill="none" stroke="#63b8ff" d="M131.05,-15.25C122.74,-15.25 114.28,-15.25 106.17,-15.25"/>
<polygon fill="#63b8ff" stroke="#63b8ff" points="130.87,-18.75 140.87,-15.25 130.87,-11.75 130.87,-18.75"/>
</a>
</g>
</g>
</g>
</svg>
