<?xml version="1.0" encoding="UTF-8" standalone="no"?>
<!DOCTYPE svg PUBLIC "-//W3C//DTD SVG 1.1//EN"
 "http://www.w3.org/Graphics/SVG/1.1/DTD/svg11.dtd">
<!-- Generated by graphviz version 8.1.0 (20230707.0739)
 -->
<!-- Title: Slic3r::GUI::AuFile::on_set_cover Pages: 1 -->
<svg width="551pt" height="156pt"
 viewBox="0.00 0.00 551.25 155.88" xmlns="http://www.w3.org/2000/svg" xmlns:xlink="http://www.w3.org/1999/xlink">
<g id="graph0" class="graph" transform="scale(1 1) rotate(0) translate(4 151.88)">
<title>Slic3r::GUI::AuFile::on_set_cover</title>
<!-- Node1 -->
<g id="Node000001" class="node">
<title>Node1</title>
<g id="a_Node000001"><a xlink:title=" ">
<polygon fill="#999999" stroke="#666666" points="98.5,-82.88 0,-82.88 0,-52.38 98.5,-52.38 98.5,-82.88"/>
<text text-anchor="start" x="8" y="-69.38" font-family="Helvetica,sans-Serif" font-size="10.00">Slic3r::GUI::AuFile</text>
<text text-anchor="middle" x="49.25" y="-58.12" font-family="Helvetica,sans-Serif" font-size="10.00">::on_set_cover</text>
</a>
</g>
</g>
<!-- Node2 -->
<g id="Node000002" class="node">
<title>Node2</title>
<g id="a_Node000002"><a xlink:href="../../de/db8/namespace_slic3r.html#a21f22c9580247e3d688ae94c3f10fb16" target="_top" xlink:title=" ">
<polygon fill="white" stroke="#666666" points="240.88,-142.25 138.62,-142.25 138.62,-123 240.88,-123 240.88,-142.25"/>
<text text-anchor="middle" x="189.75" y="-128.75" font-family="Helvetica,sans-Serif" font-size="10.00">Slic3r::encode_path</text>
</a>
</g>
</g>
<!-- Node1&#45;&gt;Node2 -->
<g id="edge1_Node000001_Node000002" class="edge">
<title>Node1&#45;&gt;Node2</title>
<g id="a_edge1_Node000001_Node000002"><a xlink:title=" ">
<path fill="none" stroke="#63b8ff" d="M76.25,-83.26C92.63,-92.74 114.4,-104.69 134.5,-113.62 138.55,-115.43 142.83,-117.17 147.14,-118.83"/>
<polygon fill="#63b8ff" stroke="#63b8ff" points="145.55,-122.35 156.14,-122.53 147.97,-115.78 145.55,-122.35"/>
</a>
</g>
</g>
<!-- Node5 -->
<g id="Node000005" class="node">
<title>Node5</title>
<g id="a_Node000005"><a xlink:href="../../d9/d45/namespace_slic3r_1_1_g_u_i.html#af29519845929304af7bba044b7d5f613" target="_top" xlink:title=" ">
<polygon fill="white" stroke="#666666" points="243.88,-104.88 135.62,-104.88 135.62,-74.38 243.88,-74.38 243.88,-104.88"/>
<text text-anchor="start" x="143.62" y="-91.38" font-family="Helvetica,sans-Serif" font-size="10.00">Slic3r::GUI::generate</text>
<text text-anchor="middle" x="189.75" y="-80.12" font-family="Helvetica,sans-Serif" font-size="10.00">_image</text>
</a>
</g>
</g>
<!-- Node1&#45;&gt;Node5 -->
<g id="edge4_Node000001_Node000005" class="edge">
<title>Node1&#45;&gt;Node5</title>
<g id="a_edge4_Node000001_Node000005"><a xlink:title=" ">
<path fill="none" stroke="#63b8ff" d="M98.69,-75.32C107.12,-76.66 116,-78.07 124.77,-79.46"/>
<polygon fill="#63b8ff" stroke="#63b8ff" points="123.95,-83.03 134.38,-81.15 125.05,-76.12 123.95,-83.03"/>
</a>
</g>
</g>
<!-- Node7 -->
<g id="Node000007" class="node">
<title>Node7</title>
<g id="a_Node000007"><a xlink:href="../../d9/d45/namespace_slic3r_1_1_g_u_i.html#ae98e0265b1add96f0fae4d89a2dd025c" target="_top" xlink:title=" ">
<polygon fill="white" stroke="#666666" points="245,-56.25 134.5,-56.25 134.5,-37 245,-37 245,-56.25"/>
<text text-anchor="middle" x="189.75" y="-42.75" font-family="Helvetica,sans-Serif" font-size="10.00">Slic3r::GUI::into_path</text>
</a>
</g>
</g>
<!-- Node1&#45;&gt;Node7 -->
<g id="edge6_Node000001_Node000007" class="edge">
<title>Node1&#45;&gt;Node7</title>
<g id="a_edge6_Node000001_Node000007"><a xlink:title=" ">
<path fill="none" stroke="#63b8ff" d="M98.69,-60.28C106.81,-59.05 115.35,-57.75 123.8,-56.47"/>
<polygon fill="#63b8ff" stroke="#63b8ff" points="124.06,-59.82 133.42,-54.86 123.01,-52.9 124.06,-59.82"/>
</a>
</g>
</g>
<!-- Node8 -->
<g id="Node000008" class="node">
<title>Node8</title>
<g id="a_Node000008"><a xlink:href="../../d9/d45/namespace_slic3r_1_1_g_u_i.html#a40f49532eea1542b9be80eb93ed855eb" target="_top" xlink:title=" ">
<polygon fill="white" stroke="#666666" points="237.12,-19.25 142.38,-19.25 142.38,0 237.12,0 237.12,-19.25"/>
<text text-anchor="middle" x="189.75" y="-5.75" font-family="Helvetica,sans-Serif" font-size="10.00">Slic3r::GUI::plater</text>
</a>
</g>
</g>
<!-- Node1&#45;&gt;Node8 -->
<g id="edge7_Node000001_Node000008" class="edge">
<title>Node1&#45;&gt;Node8</title>
<g id="a_edge7_Node000001_Node000008"><a xlink:title=" ">
<path fill="none" stroke="#63b8ff" d="M81.05,-51.88C96.83,-44.11 116.47,-34.86 134.5,-27.62 138.17,-26.15 142.01,-24.7 145.88,-23.3"/>
<polygon fill="#63b8ff" stroke="#63b8ff" points="146.81,-26.34 155.1,-19.74 144.5,-19.73 146.81,-26.34"/>
</a>
</g>
</g>
<!-- Node3 -->
<g id="Node000003" class="node">
<title>Node3</title>
<g id="a_Node000003"><a xlink:href="../../dd/dd5/namespaceboost_1_1nowide.html#abdfef0fb660e3fb6bd08580c6898a595" target="_top" xlink:title="Convert NULL terminated UTF source string to NULL terminated output string of size at most output_siz...">
<polygon fill="white" stroke="#666666" points="395.25,-142.25 287,-142.25 287,-123 395.25,-123 395.25,-142.25"/>
<text text-anchor="middle" x="341.12" y="-128.75" font-family="Helvetica,sans-Serif" font-size="10.00">boost::nowide::widen</text>
</a>
</g>
</g>
<!-- Node2&#45;&gt;Node3 -->
<g id="edge2_Node000002_Node000003" class="edge">
<title>Node2&#45;&gt;Node3</title>
<g id="a_edge2_Node000002_Node000003"><a xlink:title=" ">
<path fill="none" stroke="#63b8ff" d="M241.32,-132.62C252.35,-132.62 264.17,-132.62 275.66,-132.62"/>
<polygon fill="#63b8ff" stroke="#63b8ff" points="275.54,-136.13 285.54,-132.62 275.54,-129.13 275.54,-136.13"/>
</a>
</g>
</g>
<!-- Node4 -->
<g id="Node000004" class="node">
<title>Node4</title>
<g id="a_Node000004"><a xlink:href="../../dd/dd5/namespaceboost_1_1nowide.html#abc7dfc4ebb4c462ec51da24506496b33" target="_top" xlink:title="Template function that converts a buffer of UTF sequences in range [source_begin,source_end) to the o...">
<polygon fill="white" stroke="#666666" points="543.25,-147.88 437.25,-147.88 437.25,-117.38 543.25,-117.38 543.25,-147.88"/>
<text text-anchor="start" x="445.25" y="-134.38" font-family="Helvetica,sans-Serif" font-size="10.00">boost::nowide::basic</text>
<text text-anchor="middle" x="490.25" y="-123.12" font-family="Helvetica,sans-Serif" font-size="10.00">_convert</text>
</a>
</g>
</g>
<!-- Node3&#45;&gt;Node4 -->
<g id="edge3_Node000003_Node000004" class="edge">
<title>Node3&#45;&gt;Node4</title>
<g id="a_edge3_Node000003_Node000004"><a xlink:title=" ">
<path fill="none" stroke="#63b8ff" d="M395.66,-132.62C405.55,-132.62 415.97,-132.62 426.12,-132.62"/>
<polygon fill="#63b8ff" stroke="#63b8ff" points="425.99,-136.13 435.99,-132.62 425.99,-129.13 425.99,-136.13"/>
</a>
</g>
</g>
<!-- Node6 -->
<g id="Node000006" class="node">
<title>Node6</title>
<g id="a_Node000006"><a xlink:href="../../d9/d45/namespace_slic3r_1_1_g_u_i.html#af7cb6ed5b7b8a7cafd8a7403cae229b8" target="_top" xlink:title=" ">
<polygon fill="white" stroke="#666666" points="401.25,-99.25 281,-99.25 281,-80 401.25,-80 401.25,-99.25"/>
<text text-anchor="middle" x="341.12" y="-85.75" font-family="Helvetica,sans-Serif" font-size="10.00">Slic3r::GUI::load_image</text>
</a>
</g>
</g>
<!-- Node5&#45;&gt;Node6 -->
<g id="edge5_Node000005_Node000006" class="edge">
<title>Node5&#45;&gt;Node6</title>
<g id="a_edge5_Node000005_Node000006"><a xlink:title=" ">
<path fill="none" stroke="#63b8ff" d="M244.26,-89.62C252.56,-89.62 261.24,-89.62 269.84,-89.62"/>
<polygon fill="#63b8ff" stroke="#63b8ff" points="269.66,-93.13 279.66,-89.62 269.66,-86.13 269.66,-93.13"/>
</a>
</g>
</g>
</g>
</svg>
