<?xml version="1.0" encoding="UTF-8" standalone="no"?>
<!DOCTYPE svg PUBLIC "-//W3C//DTD SVG 1.1//EN"
 "http://www.w3.org/Graphics/SVG/1.1/DTD/svg11.dtd">
<!-- Generated by graphviz version 8.1.0 (20230707.0739)
 -->
<!-- Title: Slic3r::GUI::GeometryBuffer::get_vertices_data Pages: 1 -->
<svg width="926pt" height="375pt"
 viewBox="0.00 0.00 926.00 375.12" xmlns="http://www.w3.org/2000/svg" xmlns:xlink="http://www.w3.org/1999/xlink">
<g id="graph0" class="graph" transform="scale(1 1) rotate(0) translate(4 371.12)">
<title>Slic3r::GUI::GeometryBuffer::get_vertices_data</title>
<!-- Node1 -->
<g id="Node000001" class="node">
<title>Node1</title>
<g id="a_Node000001"><a xlink:title=" ">
<polygon fill="#999999" stroke="#666666" points="918,-201.12 778.25,-201.12 778.25,-170.62 918,-170.62 918,-201.12"/>
<text text-anchor="start" x="786.25" y="-187.62" font-family="Helvetica,sans-Serif" font-size="10.00">Slic3r::GUI::GeometryBuffer</text>
<text text-anchor="middle" x="848.12" y="-176.38" font-family="Helvetica,sans-Serif" font-size="10.00">::get_vertices_data</text>
</a>
</g>
</g>
<!-- Node2 -->
<g id="Node000002" class="node">
<title>Node2</title>
<g id="a_Node000002"><a xlink:href="../../d7/ddf/class_slic3r_1_1_g_u_i_1_1_part_plate.html#a01ed6ed65ca1299a979024a5e24d4e3d" target="_top" xlink:title=" ">
<polygon fill="white" stroke="#666666" points="561.62,-318.12 450.38,-318.12 450.38,-287.62 561.62,-287.62 561.62,-318.12"/>
<text text-anchor="start" x="458.38" y="-304.62" font-family="Helvetica,sans-Serif" font-size="10.00">Slic3r::GUI::PartPlate</text>
<text text-anchor="middle" x="506" y="-293.38" font-family="Helvetica,sans-Serif" font-size="10.00">::render_background</text>
</a>
</g>
</g>
<!-- Node1&#45;&gt;Node2 -->
<g id="edge1_Node000001_Node000002" class="edge">
<title>Node1&#45;&gt;Node2</title>
<g id="a_edge1_Node000001_Node000002"><a xlink:title=" ">
<path fill="none" stroke="#63b8ff" d="M826.76,-209.72C807.34,-230.7 776.11,-260.11 742.25,-274.88 684.37,-300.1 611.32,-305.14 562.11,-305.14"/>
<polygon fill="#63b8ff" stroke="#63b8ff" points="828.99,-212.37 833.09,-202.6 823.79,-207.68 828.99,-212.37"/>
</a>
</g>
</g>
<!-- Node4 -->
<g id="Node000004" class="node">
<title>Node4</title>
<g id="a_Node000004"><a xlink:href="../../db/d65/class_slic3r_1_1_g_u_i_1_1_bed3_d.html#a5a25f8558acb9f987448ee3a5f84c6b5" target="_top" xlink:title=" ">
<polygon fill="white" stroke="#666666" points="720.5,-361.12 619.75,-361.12 619.75,-330.62 720.5,-330.62 720.5,-361.12"/>
<text text-anchor="start" x="627.75" y="-347.62" font-family="Helvetica,sans-Serif" font-size="10.00">Slic3r::GUI::Bed3D</text>
<text text-anchor="middle" x="670.12" y="-336.38" font-family="Helvetica,sans-Serif" font-size="10.00">::render_default</text>
</a>
</g>
</g>
<!-- Node1&#45;&gt;Node4 -->
<g id="edge3_Node000001_Node000004" class="edge">
<title>Node1&#45;&gt;Node4</title>
<g id="a_edge3_Node000001_Node000004"><a xlink:title=" ">
<path fill="none" stroke="#63b8ff" d="M831.6,-210.25C813.07,-237.81 779.82,-282.64 742.25,-311.88 733.07,-319.02 722.14,-325.17 711.64,-330.19"/>
<polygon fill="#63b8ff" stroke="#63b8ff" points="834.94,-212.55 837.53,-202.28 829.1,-208.69 834.94,-212.55"/>
</a>
</g>
</g>
<!-- Node36 -->
<g id="Node000036" class="node">
<title>Node36</title>
<g id="a_Node000036"><a xlink:href="../../d7/ddf/class_slic3r_1_1_g_u_i_1_1_part_plate.html#a057dde816bfcec18ca07d1b0ebe03567" target="_top" xlink:title=" ">
<polygon fill="white" stroke="#666666" points="562,-220.12 450,-220.12 450,-189.62 562,-189.62 562,-220.12"/>
<text text-anchor="start" x="458" y="-206.62" font-family="Helvetica,sans-Serif" font-size="10.00">Slic3r::GUI::PartPlate</text>
<text text-anchor="middle" x="506" y="-195.38" font-family="Helvetica,sans-Serif" font-size="10.00">::render_exclude_area</text>
</a>
</g>
</g>
<!-- Node1&#45;&gt;Node36 -->
<g id="edge8_Node000001_Node000036" class="edge">
<title>Node1&#45;&gt;Node36</title>
<g id="a_edge8_Node000001_Node000036"><a xlink:title=" ">
<path fill="none" stroke="#63b8ff" d="M767.2,-190.34C704.2,-193.86 617.99,-198.67 562.39,-201.78"/>
<polygon fill="#63b8ff" stroke="#63b8ff" points="767.1,-193.8 776.89,-189.74 766.71,-186.81 767.1,-193.8"/>
</a>
</g>
</g>
<!-- Node37 -->
<g id="Node000037" class="node">
<title>Node37</title>
<g id="a_Node000037"><a xlink:href="../../d7/ddf/class_slic3r_1_1_g_u_i_1_1_part_plate.html#a07642ca583c2982df039c8d07f88e6d3" target="_top" xlink:title=" ">
<polygon fill="white" stroke="#666666" points="561.62,-171.12 450.38,-171.12 450.38,-140.62 561.62,-140.62 561.62,-171.12"/>
<text text-anchor="start" x="458.38" y="-157.62" font-family="Helvetica,sans-Serif" font-size="10.00">Slic3r::GUI::PartPlate</text>
<text text-anchor="middle" x="506" y="-146.38" font-family="Helvetica,sans-Serif" font-size="10.00">::render_grid</text>
</a>
</g>
</g>
<!-- Node1&#45;&gt;Node37 -->
<g id="edge10_Node000001_Node000037" class="edge">
<title>Node1&#45;&gt;Node37</title>
<g id="a_edge10_Node000001_Node000037"><a xlink:title=" ">
<path fill="none" stroke="#63b8ff" d="M767.16,-178.82C703.96,-173.25 617.42,-165.61 561.86,-160.71"/>
<polygon fill="#63b8ff" stroke="#63b8ff" points="766.62,-182.38 776.89,-179.77 767.23,-175.4 766.62,-182.38"/>
</a>
</g>
</g>
<!-- Node38 -->
<g id="Node000038" class="node">
<title>Node38</title>
<g id="a_Node000038"><a xlink:href="../../d7/ddf/class_slic3r_1_1_g_u_i_1_1_part_plate.html#abc61e5e1bdae18da45d8348b6ee86cc9" target="_top" xlink:title=" ">
<polygon fill="white" stroke="#666666" points="725.75,-139.12 614.5,-139.12 614.5,-108.62 725.75,-108.62 725.75,-139.12"/>
<text text-anchor="start" x="622.5" y="-125.62" font-family="Helvetica,sans-Serif" font-size="10.00">Slic3r::GUI::PartPlate</text>
<text text-anchor="middle" x="670.12" y="-114.38" font-family="Helvetica,sans-Serif" font-size="10.00">::render_height_limit</text>
</a>
</g>
</g>
<!-- Node1&#45;&gt;Node38 -->
<g id="edge12_Node000001_Node000038" class="edge">
<title>Node1&#45;&gt;Node38</title>
<g id="a_edge12_Node000001_Node000038"><a xlink:title=" ">
<path fill="none" stroke="#63b8ff" d="M792.44,-166.61C767.83,-157.94 739.13,-147.83 715.83,-139.62"/>
<polygon fill="#63b8ff" stroke="#63b8ff" points="791.12,-170.21 801.71,-170.23 793.44,-163.61 791.12,-170.21"/>
</a>
</g>
</g>
<!-- Node39 -->
<g id="Node000039" class="node">
<title>Node39</title>
<g id="a_Node000039"><a xlink:href="../../d7/ddf/class_slic3r_1_1_g_u_i_1_1_part_plate.html#a63388cfc7011156e56bbc8a56b0338db" target="_top" xlink:title=" ">
<polygon fill="white" stroke="#666666" points="725.75,-90.12 614.5,-90.12 614.5,-59.62 725.75,-59.62 725.75,-90.12"/>
<text text-anchor="start" x="622.5" y="-76.62" font-family="Helvetica,sans-Serif" font-size="10.00">Slic3r::GUI::PartPlate</text>
<text text-anchor="middle" x="670.12" y="-65.38" font-family="Helvetica,sans-Serif" font-size="10.00">::render_logo</text>
</a>
</g>
</g>
<!-- Node1&#45;&gt;Node39 -->
<g id="edge14_Node000001_Node000039" class="edge">
<title>Node1&#45;&gt;Node39</title>
<g id="a_edge14_Node000001_Node000039"><a xlink:title=" ">
<path fill="none" stroke="#63b8ff" d="M824.02,-162.87C803.87,-143.84 773.09,-117.23 742.25,-99.88 736.09,-96.41 729.36,-93.29 722.58,-90.53"/>
<polygon fill="#63b8ff" stroke="#63b8ff" points="821.08,-164.86 830.72,-169.26 825.93,-159.81 821.08,-164.86"/>
</a>
</g>
</g>
<!-- Node40 -->
<g id="Node000040" class="node">
<title>Node40</title>
<g id="a_Node000040"><a xlink:href="../../d7/ddf/class_slic3r_1_1_g_u_i_1_1_part_plate.html#ad2301fcd134741f56a338a4d3ead2908" target="_top" xlink:title=" ">
<polygon fill="white" stroke="#666666" points="740,-266.12 600.25,-266.12 600.25,-235.62 740,-235.62 740,-266.12"/>
<text text-anchor="start" x="608.25" y="-252.62" font-family="Helvetica,sans-Serif" font-size="10.00">Slic3r::GUI::PartPlate</text>
<text text-anchor="middle" x="670.12" y="-241.38" font-family="Helvetica,sans-Serif" font-size="10.00">::render_plate_name_texture</text>
</a>
</g>
</g>
<!-- Node1&#45;&gt;Node40 -->
<g id="edge16_Node000001_Node000040" class="edge">
<title>Node1&#45;&gt;Node40</title>
<g id="a_edge16_Node000001_Node000040"><a xlink:title=" ">
<path fill="none" stroke="#63b8ff" d="M794.52,-205.3C768.68,-214.85 737.97,-226.19 713.64,-235.17"/>
<polygon fill="#63b8ff" stroke="#63b8ff" points="795.35,-208.36 803.52,-201.61 792.93,-201.79 795.35,-208.36"/>
</a>
</g>
</g>
<!-- Node42 -->
<g id="Node000042" class="node">
<title>Node42</title>
<g id="a_Node000042"><a xlink:href="../../d7/df5/class_slic3r_1_1_g_u_i_1_1_part_plate_list_1_1_bed_texture_info_1_1_texture_part.html#a944feecda84557ff9828c446fc5dcaf4" target="_top" xlink:title=" ">
<polygon fill="white" stroke="#666666" points="742.25,-41.75 598,-41.75 598,0 742.25,0 742.25,-41.75"/>
<text text-anchor="start" x="606" y="-28.25" font-family="Helvetica,sans-Serif" font-size="10.00">Slic3r::GUI::PartPlateList</text>
<text text-anchor="start" x="606" y="-17" font-family="Helvetica,sans-Serif" font-size="10.00">::BedTextureInfo::TexturePart</text>
<text text-anchor="middle" x="670.12" y="-5.75" font-family="Helvetica,sans-Serif" font-size="10.00">::update_buffer</text>
</a>
</g>
</g>
<!-- Node1&#45;&gt;Node42 -->
<g id="edge19_Node000001_Node000042" class="edge">
<title>Node1&#45;&gt;Node42</title>
<g id="a_edge19_Node000001_Node000042"><a xlink:title=" ">
<path fill="none" stroke="#63b8ff" d="M833.34,-161.18C815.66,-131.46 782.44,-81.73 742.25,-50.88 738.1,-47.69 733.57,-44.78 728.86,-42.14"/>
<polygon fill="#63b8ff" stroke="#63b8ff" points="830.67,-162.55 838.73,-169.43 836.72,-159.03 830.67,-162.55"/>
</a>
</g>
</g>
<!-- Node3 -->
<g id="Node000003" class="node">
<title>Node3</title>
<g id="a_Node000003"><a xlink:href="../../d7/ddf/class_slic3r_1_1_g_u_i_1_1_part_plate.html#ad8971b3583b167fc1c232b2ec5849639" target="_top" xlink:title=" ">
<polygon fill="white" stroke="#666666" points="414,-196.12 302.75,-196.12 302.75,-165.62 414,-165.62 414,-196.12"/>
<text text-anchor="start" x="310.75" y="-182.62" font-family="Helvetica,sans-Serif" font-size="10.00">Slic3r::GUI::PartPlate</text>
<text text-anchor="middle" x="358.38" y="-171.38" font-family="Helvetica,sans-Serif" font-size="10.00">::render</text>
</a>
</g>
</g>
<!-- Node2&#45;&gt;Node3 -->
<g id="edge2_Node000002_Node000003" class="edge">
<title>Node2&#45;&gt;Node3</title>
<g id="a_edge2_Node000002_Node000003"><a xlink:title=" ">
<path fill="none" stroke="#63b8ff" d="M456.05,-281.9C453.97,-280.61 451.94,-279.27 450,-277.88 417.06,-254.21 386.58,-217.24 370.74,-196.44"/>
<polygon fill="#63b8ff" stroke="#63b8ff" points="454.05,-285.35 464.48,-287.22 457.49,-279.25 454.05,-285.35"/>
</a>
</g>
</g>
<!-- Node5 -->
<g id="Node000005" class="node">
<title>Node5</title>
<g id="a_Node000005"><a xlink:href="../../db/d65/class_slic3r_1_1_g_u_i_1_1_bed3_d.html#adca5dd49a3ac443098a71f0ef128911d" target="_top" xlink:title=" ">
<polygon fill="white" stroke="#666666" points="556.38,-367.12 455.62,-367.12 455.62,-336.62 556.38,-336.62 556.38,-367.12"/>
<text text-anchor="start" x="463.62" y="-353.62" font-family="Helvetica,sans-Serif" font-size="10.00">Slic3r::GUI::Bed3D</text>
<text text-anchor="middle" x="506" y="-342.38" font-family="Helvetica,sans-Serif" font-size="10.00">::render_custom</text>
</a>
</g>
</g>
<!-- Node4&#45;&gt;Node5 -->
<g id="edge4_Node000004_Node000005" class="edge">
<title>Node4&#45;&gt;Node5</title>
<g id="a_edge4_Node000004_Node000005"><a xlink:title=" ">
<path fill="none" stroke="#63b8ff" d="M609.09,-348.1C591.88,-348.73 573.3,-349.42 556.78,-350.03"/>
<polygon fill="#63b8ff" stroke="#63b8ff" points="608.74,-351.58 618.6,-347.71 608.48,-344.58 608.74,-351.58"/>
</a>
</g>
</g>
<!-- Node6 -->
<g id="Node000006" class="node">
<title>Node6</title>
<g id="a_Node000006"><a xlink:href="../../db/d65/class_slic3r_1_1_g_u_i_1_1_bed3_d.html#abdab5c239e3fdb5ce50f29f862dde77b" target="_top" xlink:title=" ">
<polygon fill="white" stroke="#666666" points="408.75,-367.12 308,-367.12 308,-336.62 408.75,-336.62 408.75,-367.12"/>
<text text-anchor="start" x="316" y="-353.62" font-family="Helvetica,sans-Serif" font-size="10.00">Slic3r::GUI::Bed3D</text>
<text text-anchor="middle" x="358.38" y="-342.38" font-family="Helvetica,sans-Serif" font-size="10.00">::render_internal</text>
</a>
</g>
</g>
<!-- Node5&#45;&gt;Node6 -->
<g id="edge5_Node000005_Node000006" class="edge">
<title>Node5&#45;&gt;Node6</title>
<g id="a_edge5_Node000005_Node000006"><a xlink:title=" ">
<path fill="none" stroke="#63b8ff" d="M444.54,-351.88C432.66,-351.88 420.33,-351.88 408.86,-351.88"/>
<polygon fill="#63b8ff" stroke="#63b8ff" points="444.29,-355.38 454.29,-351.88 444.29,-348.38 444.29,-355.38"/>
</a>
</g>
</g>
<!-- Node7 -->
<g id="Node000007" class="node">
<title>Node7</title>
<g id="a_Node000007"><a xlink:href="../../db/d65/class_slic3r_1_1_g_u_i_1_1_bed3_d.html#a96a826e4acfc8b44edfe1e7b1bc027f2" target="_top" xlink:title=" ">
<polygon fill="white" stroke="#666666" points="266.75,-367.12 166,-367.12 166,-336.62 266.75,-336.62 266.75,-367.12"/>
<text text-anchor="start" x="174" y="-353.62" font-family="Helvetica,sans-Serif" font-size="10.00">Slic3r::GUI::Bed3D</text>
<text text-anchor="middle" x="216.38" y="-342.38" font-family="Helvetica,sans-Serif" font-size="10.00">::render</text>
</a>
</g>
</g>
<!-- Node6&#45;&gt;Node7 -->
<g id="edge6_Node000006_Node000007" class="edge">
<title>Node6&#45;&gt;Node7</title>
<g id="a_edge6_Node000006_Node000007"><a xlink:title=" ">
<path fill="none" stroke="#63b8ff" d="M296.92,-351.88C286.92,-351.88 276.66,-351.88 266.97,-351.88"/>
<polygon fill="#63b8ff" stroke="#63b8ff" points="296.62,-355.38 306.62,-351.88 296.62,-348.38 296.62,-355.38"/>
</a>
</g>
</g>
<!-- Node8 -->
<g id="Node000008" class="node">
<title>Node8</title>
<g id="a_Node000008"><a xlink:href="../../d0/d2b/class_slic3r_1_1_g_u_i_1_1_g_l_canvas3_d.html#a5099d5c06a9efeb5ec2151a5096422e3" target="_top" xlink:title=" ">
<polygon fill="#fff0f0" stroke="red" points="130,-367.12 0,-367.12 0,-336.62 130,-336.62 130,-367.12"/>
<text text-anchor="start" x="8" y="-353.62" font-family="Helvetica,sans-Serif" font-size="10.00">Slic3r::GUI::GLCanvas3D</text>
<text text-anchor="middle" x="65" y="-342.38" font-family="Helvetica,sans-Serif" font-size="10.00">::_render_bed</text>
</a>
</g>
</g>
<!-- Node7&#45;&gt;Node8 -->
<g id="edge7_Node000007_Node000008" class="edge">
<title>Node7&#45;&gt;Node8</title>
<g id="a_edge7_Node000007_Node000008"><a xlink:title=" ">
<path fill="none" stroke="#63b8ff" d="M154.84,-351.88C146.79,-351.88 138.51,-351.88 130.4,-351.88"/>
<polygon fill="#63b8ff" stroke="#63b8ff" points="154.64,-355.38 164.64,-351.88 154.64,-348.38 154.64,-355.38"/>
</a>
</g>
</g>
<!-- Node36&#45;&gt;Node3 -->
<g id="edge9_Node000036_Node000003" class="edge">
<title>Node36&#45;&gt;Node3</title>
<g id="a_edge9_Node000036_Node000003"><a xlink:title=" ">
<path fill="none" stroke="#63b8ff" d="M438.81,-193.97C430.58,-192.61 422.24,-191.24 414.21,-189.91"/>
<polygon fill="#63b8ff" stroke="#63b8ff" points="438.09,-197.56 448.53,-195.73 439.23,-190.65 438.09,-197.56"/>
</a>
</g>
</g>
<!-- Node37&#45;&gt;Node3 -->
<g id="edge11_Node000037_Node000003" class="edge">
<title>Node37&#45;&gt;Node3</title>
<g id="a_edge11_Node000037_Node000003"><a xlink:title=" ">
<path fill="none" stroke="#63b8ff" d="M439.33,-167.15C430.87,-168.6 422.28,-170.08 414.02,-171.49"/>
<polygon fill="#63b8ff" stroke="#63b8ff" points="439.68,-170.47 448.95,-165.33 438.5,-163.57 439.68,-170.47"/>
</a>
</g>
</g>
<!-- Node38&#45;&gt;Node3 -->
<g id="edge13_Node000038_Node000003" class="edge">
<title>Node38&#45;&gt;Node3</title>
<g id="a_edge13_Node000038_Node000003"><a xlink:title=" ">
<path fill="none" stroke="#63b8ff" d="M603.17,-118.54C559.05,-116.85 500.11,-118.22 450,-131.88 424.81,-138.74 398.87,-153.71 381.24,-165.31"/>
<polygon fill="#63b8ff" stroke="#63b8ff" points="602.91,-122.08 613.06,-119.03 603.22,-115.09 602.91,-122.08"/>
</a>
</g>
</g>
<!-- Node39&#45;&gt;Node3 -->
<g id="edge15_Node000039_Node000003" class="edge">
<title>Node39&#45;&gt;Node3</title>
<g id="a_edge15_Node000039_Node000003"><a xlink:title=" ">
<path fill="none" stroke="#63b8ff" d="M603.3,-79.17C558.59,-83.92 498.92,-93.9 450,-114.88 421.38,-127.15 393.13,-149.86 375.97,-165.17"/>
<polygon fill="#63b8ff" stroke="#63b8ff" points="603.44,-82.57 613.04,-78.1 602.74,-75.61 603.44,-82.57"/>
</a>
</g>
</g>
<!-- Node41 -->
<g id="Node000041" class="node">
<title>Node41</title>
<g id="a_Node000041"><a xlink:href="../../d7/ddf/class_slic3r_1_1_g_u_i_1_1_part_plate.html#afdfc0edcb164ab78b839a9ae641a21a7" target="_top" xlink:title=" ">
<polygon fill="white" stroke="#666666" points="561.62,-269.12 450.38,-269.12 450.38,-238.62 561.62,-238.62 561.62,-269.12"/>
<text text-anchor="start" x="458.38" y="-255.62" font-family="Helvetica,sans-Serif" font-size="10.00">Slic3r::GUI::PartPlate</text>
<text text-anchor="middle" x="506" y="-244.38" font-family="Helvetica,sans-Serif" font-size="10.00">::render_icons</text>
</a>
</g>
</g>
<!-- Node40&#45;&gt;Node41 -->
<g id="edge17_Node000040_Node000041" class="edge">
<title>Node40&#45;&gt;Node41</title>
<g id="a_edge17_Node000040_Node000041"><a xlink:title=" ">
<path fill="none" stroke="#63b8ff" d="M589.09,-252.36C579.84,-252.53 570.58,-252.7 561.79,-252.86"/>
<polygon fill="#63b8ff" stroke="#63b8ff" points="588.97,-255.84 598.9,-252.16 588.84,-248.84 588.97,-255.84"/>
</a>
</g>
</g>
<!-- Node41&#45;&gt;Node3 -->
<g id="edge18_Node000041_Node000003" class="edge">
<title>Node41&#45;&gt;Node3</title>
<g id="a_edge18_Node000041_Node000003"><a xlink:title=" ">
<path fill="none" stroke="#63b8ff" d="M459.73,-233.56C456.42,-232 453.15,-230.43 450,-228.88 428.91,-218.51 405.47,-206.07 387.72,-196.45"/>
<polygon fill="#63b8ff" stroke="#63b8ff" points="458.1,-237.13 468.64,-238.19 461.06,-230.79 458.1,-237.13"/>
</a>
</g>
</g>
</g>
</svg>
