<?xml version="1.0" encoding="UTF-8" standalone="no"?>
<!DOCTYPE svg PUBLIC "-//W3C//DTD SVG 1.1//EN"
 "http://www.w3.org/Graphics/SVG/1.1/DTD/svg11.dtd">
<!-- Generated by graphviz version 8.1.0 (20230707.0739)
 -->
<!-- Title: Graphical Class Hierarchy Pages: 1 -->
<svg width="306pt" height="64pt"
 viewBox="0.00 0.00 306.25 64.25" xmlns="http://www.w3.org/2000/svg" xmlns:xlink="http://www.w3.org/1999/xlink">
<g id="graph0" class="graph" transform="scale(1 1) rotate(0) translate(4 60.25)">
<title>Graphical Class Hierarchy</title>
<!-- Node0 -->
<g id="Node000000" class="node">
<title>Node0</title>
<g id="a_Node000000"><a xlink:href="dc/d38/class_slic3r_1_1_g_u_i_1_1_o_g___settings.html" target="_top" xlink:title=" ">
<polygon fill="white" stroke="#666666" points="127,-37.25 0,-37.25 0,-18 127,-18 127,-37.25"/>
<text text-anchor="middle" x="63.5" y="-23.75" font-family="Helvetica,sans-Serif" font-size="10.00">Slic3r::GUI::OG_Settings</text>
</a>
</g>
</g>
<!-- Node1 -->
<g id="Node000001" class="node">
<title>Node1</title>
<g id="a_Node000001"><a xlink:href="d8/de4/class_slic3r_1_1_g_u_i_1_1_object_layers.html" target="_top" xlink:title=" ">
<polygon fill="white" stroke="#666666" points="294.88,-56.25 166.38,-56.25 166.38,-37 294.88,-37 294.88,-56.25"/>
<text text-anchor="middle" x="230.62" y="-42.75" font-family="Helvetica,sans-Serif" font-size="10.00">Slic3r::GUI::ObjectLayers</text>
</a>
</g>
</g>
<!-- Node0&#45;&gt;Node1 -->
<g id="edge1127_Node000000_Node000001" class="edge">
<title>Node0&#45;&gt;Node1</title>
<g id="a_edge1127_Node000000_Node000001"><a xlink:title=" ">
<path fill="none" stroke="#63b8ff" d="M138.21,-36.11C147.51,-37.18 156.96,-38.26 166.08,-39.31"/>
<polygon fill="#63b8ff" stroke="#63b8ff" points="138.73,-32.53 128.4,-34.86 137.93,-39.48 138.73,-32.53"/>
</a>
</g>
</g>
<!-- Node2 -->
<g id="Node000002" class="node">
<title>Node2</title>
<g id="a_Node000002"><a xlink:href="d7/daf/class_slic3r_1_1_g_u_i_1_1_object_settings.html" target="_top" xlink:title=" ">
<polygon fill="white" stroke="#666666" points="298.25,-19.25 163,-19.25 163,0 298.25,0 298.25,-19.25"/>
<text text-anchor="middle" x="230.62" y="-5.75" font-family="Helvetica,sans-Serif" font-size="10.00">Slic3r::GUI::ObjectSettings</text>
</a>
</g>
</g>
<!-- Node0&#45;&gt;Node2 -->
<g id="edge1128_Node000000_Node000002" class="edge">
<title>Node0&#45;&gt;Node2</title>
<g id="a_edge1128_Node000000_Node000002"><a xlink:title=" ">
<path fill="none" stroke="#63b8ff" d="M138.29,-19.58C146.35,-18.7 154.53,-17.81 162.51,-16.94"/>
<polygon fill="#63b8ff" stroke="#63b8ff" points="137.96,-16.21 128.4,-20.77 138.72,-23.16 137.96,-16.21"/>
</a>
</g>
</g>
</g>
</svg>
