<?xml version="1.0" encoding="UTF-8" standalone="no"?>
<!DOCTYPE svg PUBLIC "-//W3C//DTD SVG 1.1//EN"
 "http://www.w3.org/Graphics/SVG/1.1/DTD/svg11.dtd">
<!-- Generated by graphviz version 8.1.0 (20230707.0739)
 -->
<!-- Title: Slic3r::GUI::TabPrinter::reload_config Pages: 1 -->
<svg width="278pt" height="137pt"
 viewBox="0.00 0.00 277.75 136.50" xmlns="http://www.w3.org/2000/svg" xmlns:xlink="http://www.w3.org/1999/xlink">
<g id="graph0" class="graph" transform="scale(1 1) rotate(0) translate(4 132.5)">
<title>Slic3r::GUI::TabPrinter::reload_config</title>
<!-- Node1 -->
<g id="Node000001" class="node">
<title>Node1</title>
<g id="a_Node000001"><a xlink:title=" ">
<polygon fill="#999999" stroke="#666666" points="115,-79.5 0,-79.5 0,-49 115,-49 115,-79.5"/>
<text text-anchor="start" x="8" y="-66" font-family="Helvetica,sans-Serif" font-size="10.00">Slic3r::GUI::TabPrinter</text>
<text text-anchor="middle" x="57.5" y="-54.75" font-family="Helvetica,sans-Serif" font-size="10.00">::reload_config</text>
</a>
</g>
</g>
<!-- Node2 -->
<g id="Node000002" class="node">
<title>Node2</title>
<g id="a_Node000002"><a xlink:href="../../d2/df9/class_slic3r_1_1_g_u_i_1_1_tab.html#a609070ed03c91454f7350c2845de56bb" target="_top" xlink:title=" ">
<polygon fill="white" stroke="#666666" points="269.75,-128.5 151,-128.5 151,-98 269.75,-98 269.75,-128.5"/>
<text text-anchor="start" x="159" y="-115" font-family="Helvetica,sans-Serif" font-size="10.00">Slic3r::GUI::Tab::reload</text>
<text text-anchor="middle" x="210.38" y="-103.75" font-family="Helvetica,sans-Serif" font-size="10.00">_config</text>
</a>
</g>
</g>
<!-- Node1&#45;&gt;Node2 -->
<g id="edge1_Node000001_Node000002" class="edge">
<title>Node1&#45;&gt;Node2</title>
<g id="a_edge1_Node000001_Node000002"><a xlink:title=" ">
<path fill="none" stroke="#63b8ff" d="M106.65,-79.89C120.6,-84.42 135.99,-89.42 150.51,-94.13"/>
<polygon fill="#63b8ff" stroke="#63b8ff" points="149.31,-97.75 159.9,-97.51 151.47,-91.09 149.31,-97.75"/>
</a>
</g>
</g>
<!-- Node3 -->
<g id="Node000003" class="node">
<title>Node3</title>
<g id="a_Node000003"><a xlink:href="../../d1/d76/class_slic3r_1_1_g_u_i_1_1_page.html#a5c30137e06709d14e724165653cc783a" target="_top" xlink:title=" ">
<polygon fill="white" stroke="#666666" points="260,-79.5 160.75,-79.5 160.75,-49 260,-49 260,-79.5"/>
<text text-anchor="start" x="168.75" y="-66" font-family="Helvetica,sans-Serif" font-size="10.00">Slic3r::GUI::Page::</text>
<text text-anchor="middle" x="210.38" y="-54.75" font-family="Helvetica,sans-Serif" font-size="10.00">set_value</text>
</a>
</g>
</g>
<!-- Node1&#45;&gt;Node3 -->
<g id="edge2_Node000001_Node000003" class="edge">
<title>Node1&#45;&gt;Node3</title>
<g id="a_edge2_Node000001_Node000003"><a xlink:title=" ">
<path fill="none" stroke="#63b8ff" d="M115.11,-64.25C126.39,-64.25 138.27,-64.25 149.65,-64.25"/>
<polygon fill="#63b8ff" stroke="#63b8ff" points="149.37,-67.75 159.37,-64.25 149.37,-60.75 149.37,-67.75"/>
</a>
</g>
</g>
<!-- Node4 -->
<g id="Node000004" class="node">
<title>Node4</title>
<g id="a_Node000004"><a xlink:href="../../d1/d76/class_slic3r_1_1_g_u_i_1_1_page.html#a9108430e89a273a9652f9c26e48a17c7" target="_top" xlink:title=" ">
<polygon fill="white" stroke="#666666" points="260,-30.5 160.75,-30.5 160.75,0 260,0 260,-30.5"/>
<text text-anchor="start" x="168.75" y="-17" font-family="Helvetica,sans-Serif" font-size="10.00">Slic3r::GUI::Page::</text>
<text text-anchor="middle" x="210.38" y="-5.75" font-family="Helvetica,sans-Serif" font-size="10.00">title</text>
</a>
</g>
</g>
<!-- Node1&#45;&gt;Node4 -->
<g id="edge3_Node000001_Node000004" class="edge">
<title>Node1&#45;&gt;Node4</title>
<g id="a_edge3_Node000001_Node000004"><a xlink:title=" ">
<path fill="none" stroke="#63b8ff" d="M106.65,-48.61C120.6,-44.08 135.99,-39.08 150.51,-34.37"/>
<polygon fill="#63b8ff" stroke="#63b8ff" points="151.47,-37.41 159.9,-30.99 149.31,-30.75 151.47,-37.41"/>
</a>
</g>
</g>
</g>
</svg>
