<?xml version="1.0" encoding="UTF-8" standalone="no"?>
<!DOCTYPE svg PUBLIC "-//W3C//DTD SVG 1.1//EN"
 "http://www.w3.org/Graphics/SVG/1.1/DTD/svg11.dtd">
<!-- Generated by graphviz version 8.1.0 (20230707.0739)
 -->
<!-- Title: Slic3r::MonotonicRegion::right_intersection_point Pages: 1 -->
<!--zoomable 196 -->

<svg id="main" version="1.1" xmlns="http://www.w3.org/2000/svg" xmlns:xlink="http://www.w3.org/1999/xlink" xml:space="preserve" onload="init(evt)">
<style type="text/css"><![CDATA[
.node, .edge {opacity: 0.7;}
.node.selected, .edge.selected {opacity: 1;}
.edge:hover path { stroke: red; }
.edge:hover polygon { stroke: red; fill: red; }
]]></style>

<defs>
  <circle id="rim" cx="0" cy="0" r="7"/>
  <circle id="rim2" cx="0" cy="0" r="3.5"/>
  <g id="zoomPlus">
    <use xlink:href="#rim" fill="#404040"><set attributeName="fill" to="#808080" begin="zoomplus.mouseover" end="zoomplus.mouseout"/></use>
    <path d="M-4,0h8M0,-4v8" fill="none" stroke="white" stroke-width="1.5" pointer-events="none"/>
  </g>
  <g id="zoomMin">
    <use xlink:href="#rim" fill="#404040"><set attributeName="fill" to="#808080" begin="zoomminus.mouseover" end="zoomminus.mouseout"/></use>
    <path d="M-4,0h8" fill="none" stroke="white" stroke-width="1.5" pointer-events="none"/>
  </g>
  <g id="arrowUp" transform="translate(30 24)">
    <use xlink:href="#rim"/>
    <path pointer-events="none" fill="none" stroke="white" stroke-width="1.5" d="M0,-3.0v7 M-2.5,-0.5L0,-3.0L2.5,-0.5"/>
  </g>
  <g id="arrowRight" transform="rotate(90) translate(36 -43)">
    <use xlink:href="#rim"/>
    <path pointer-events="none" fill="none" stroke="white" stroke-width="1.5" d="M0,-3.0v7 M-2.5,-0.5L0,-3.0L2.5,-0.5"/>
  </g>
  <g id="arrowDown" transform="rotate(180) translate(-30 -48)">
    <use xlink:href="#rim"/>
    <path pointer-events="none" fill="none" stroke="white" stroke-width="1.5" d="M0,-3.0v7 M-2.5,-0.5L0,-3.0L2.5,-0.5"/>
  </g>
  <g id="arrowLeft" transform="rotate(270) translate(-36 17)">
    <use xlink:href="#rim"/>
    <path pointer-events="none" fill="none" stroke="white" stroke-width="1.5" d="M0,-3.0v7 M-2.5,-0.5L0,-3.0L2.5,-0.5"/>
  </g>
  <g id="resetDef">
    <use xlink:href="#rim2" fill="#404040"><set attributeName="fill" to="#808080" begin="reset.mouseover" end="reset.mouseout"/></use>
  </g>
</defs>
<script type="application/ecmascript">
var viewWidth = 593;
var viewHeight = 196;
var sectionId = 'dynsection-3';
</script>
<script type="application/ecmascript" xlink:href="../../svg.min.js"/>
<svg id="graph" class="graph">
<g id="viewport">
<title>Slic3r::MonotonicRegion::right_intersection_point</title>
<!-- Node1 -->
<g id="Node000001" class="node">
<title>Node1</title>
<g id="a_Node000001"><a xlink:title=" ">
<polygon fill="#999999" stroke="#666666" points="585.25,-111.12 462.75,-111.12 462.75,-80.62 585.25,-80.62 585.25,-111.12"/>
<text text-anchor="start" x="470.75" y="-97.62" font-family="Helvetica,sans-Serif" font-size="10.00">Slic3r::MonotonicRegion</text>
<text text-anchor="middle" x="524" y="-86.38" font-family="Helvetica,sans-Serif" font-size="10.00">::right_intersection_point</text>
</a>
</g>
</g>
<!-- Node2 -->
<g id="Node000002" class="node">
<title>Node2</title>
<g id="a_Node000002"><a xlink:href="../../d4/de1/class_slic3r_1_1_ant_path_matrix.html#af9671ddf3559edd5332c778ba4a977e9" target="_top" xlink:title=" ">
<polygon fill="white" stroke="#666666" points="426.38,-136.12 317.38,-136.12 317.38,-105.62 426.38,-105.62 426.38,-136.12"/>
<text text-anchor="start" x="325.38" y="-122.62" font-family="Helvetica,sans-Serif" font-size="10.00">Slic3r::AntPathMatrix</text>
<text text-anchor="middle" x="371.88" y="-111.38" font-family="Helvetica,sans-Serif" font-size="10.00">::operator()</text>
</a>
</g>
</g>
<!-- Node1&#45;&gt;Node2 -->
<g id="edge1_Node000001_Node000002" class="edge">
<title>Node1&#45;&gt;Node2</title>
<g id="a_edge1_Node000001_Node000002"><a xlink:title=" ">
<path fill="none" stroke="#63b8ff" d="M451.69,-107.75C443.2,-109.16 434.65,-110.59 426.48,-111.95"/>
<polygon fill="#63b8ff" stroke="#63b8ff" points="452.08,-111.07 461.37,-105.97 450.93,-104.16 452.08,-111.07"/>
</a>
</g>
</g>
<!-- Node3 -->
<g id="Node000003" class="node">
<title>Node3</title>
<g id="a_Node000003"><a xlink:href="../../de/db8/namespace_slic3r.html#a8b314bdb77c7c9eded55d641f647ee4c" target="_top" xlink:title=" ">
<polygon fill="white" stroke="#666666" points="426.75,-87.12 317,-87.12 317,-56.62 426.75,-56.62 426.75,-87.12"/>
<text text-anchor="start" x="325" y="-73.62" font-family="Helvetica,sans-Serif" font-size="10.00">Slic3r::polylines_from</text>
<text text-anchor="middle" x="371.88" y="-62.38" font-family="Helvetica,sans-Serif" font-size="10.00">_paths</text>
</a>
</g>
</g>
<!-- Node1&#45;&gt;Node3 -->
<g id="edge2_Node000001_Node000003" class="edge">
<title>Node1&#45;&gt;Node3</title>
<g id="a_edge2_Node000001_Node000003"><a xlink:title=" ">
<path fill="none" stroke="#63b8ff" d="M451.56,-84.45C443.28,-83.13 434.95,-81.8 426.95,-80.52"/>
<polygon fill="#63b8ff" stroke="#63b8ff" points="450.94,-88.06 461.37,-86.18 452.05,-81.15 450.94,-88.06"/>
</a>
</g>
</g>
<!-- Node4 -->
<g id="Node000004" class="node">
<title>Node4</title>
<g id="a_Node000004"><a xlink:href="../../db/d2e/class_slic3r_1_1_fill_rectilinear.html#afe3252a582d0fd303723f995a52c8975" target="_top" xlink:title=" ">
<polygon fill="white" stroke="#666666" points="275,-126.12 164.5,-126.12 164.5,-95.62 275,-95.62 275,-126.12"/>
<text text-anchor="start" x="172.5" y="-112.62" font-family="Helvetica,sans-Serif" font-size="10.00">Slic3r::FillRectilinear</text>
<text text-anchor="middle" x="219.75" y="-101.38" font-family="Helvetica,sans-Serif" font-size="10.00">::fill_surface_by_lines</text>
</a>
</g>
</g>
<!-- Node3&#45;&gt;Node4 -->
<g id="edge3_Node000003_Node000004" class="edge">
<title>Node3&#45;&gt;Node4</title>
<g id="a_edge3_Node000003_Node000004"><a xlink:title=" ">
<path fill="none" stroke="#63b8ff" d="M306.12,-88.7C295.87,-91.36 285.36,-94.09 275.37,-96.68"/>
<polygon fill="#63b8ff" stroke="#63b8ff" points="306.88,-91.86 315.68,-85.95 305.12,-85.08 306.88,-91.86"/>
</a>
</g>
</g>
<!-- Node8 -->
<g id="Node000008" class="node">
<title>Node8</title>
<g id="a_Node000008"><a xlink:href="../../de/d9b/class_slic3r_1_1_fill_monotonic_line_w_gap_fill.html#a12abe9981948bc7a438906ee7d71abeb" target="_top" xlink:title=" ">
<polygon fill="white" stroke="#666666" points="281,-65.75 158.5,-65.75 158.5,-24 281,-24 281,-65.75"/>
<text text-anchor="start" x="166.5" y="-52.25" font-family="Helvetica,sans-Serif" font-size="10.00">Slic3r::FillMonotonicLine</text>
<text text-anchor="start" x="166.5" y="-41" font-family="Helvetica,sans-Serif" font-size="10.00">WGapFill::fill_surface</text>
<text text-anchor="middle" x="219.75" y="-29.75" font-family="Helvetica,sans-Serif" font-size="10.00">_by_lines</text>
</a>
</g>
</g>
<!-- Node3&#45;&gt;Node8 -->
<g id="edge7_Node000003_Node000008" class="edge">
<title>Node3&#45;&gt;Node8</title>
<g id="a_edge7_Node000003_Node000008"><a xlink:title=" ">
<path fill="none" stroke="#63b8ff" d="M306.07,-60.22C297.91,-58.75 289.58,-57.25 281.49,-55.8"/>
<polygon fill="#63b8ff" stroke="#63b8ff" points="305.21,-63.8 315.68,-62.13 306.45,-56.91 305.21,-63.8"/>
</a>
</g>
</g>
<!-- Node5 -->
<g id="Node000005" class="node">
<title>Node5</title>
<g id="a_Node000005"><a xlink:href="../../db/d2e/class_slic3r_1_1_fill_rectilinear.html#a18ebe18d7b067b7caebab316001f1dfd" target="_top" xlink:title=" ">
<polygon fill="white" stroke="#666666" points="114.25,-188.12 8.25,-188.12 8.25,-157.62 114.25,-157.62 114.25,-188.12"/>
<text text-anchor="start" x="16.25" y="-174.62" font-family="Helvetica,sans-Serif" font-size="10.00">Slic3r::FillRectilinear</text>
<text text-anchor="middle" x="61.25" y="-163.38" font-family="Helvetica,sans-Serif" font-size="10.00">::fill_surface</text>
</a>
</g>
</g>
<!-- Node4&#45;&gt;Node5 -->
<g id="edge4_Node000004_Node000005" class="edge">
<title>Node4&#45;&gt;Node5</title>
<g id="a_edge4_Node000004_Node000005"><a xlink:title=" ">
<path fill="none" stroke="#63b8ff" d="M169.24,-130.49C147.55,-139.08 122.44,-149.03 102,-157.13"/>
<polygon fill="#63b8ff" stroke="#63b8ff" points="170.25,-133.46 178.26,-126.52 167.67,-126.95 170.25,-133.46"/>
</a>
</g>
</g>
<!-- Node6 -->
<g id="Node000006" class="node">
<title>Node6</title>
<g id="a_Node000006"><a xlink:href="../../d0/d21/class_slic3r_1_1_fill_monotonic.html#ace69d94f31e44b486a90b5a2175d4c93" target="_top" xlink:title=" ">
<polygon fill="white" stroke="#666666" points="113.5,-139.12 9,-139.12 9,-108.62 113.5,-108.62 113.5,-139.12"/>
<text text-anchor="start" x="17" y="-125.62" font-family="Helvetica,sans-Serif" font-size="10.00">Slic3r::FillMonotonic</text>
<text text-anchor="middle" x="61.25" y="-114.38" font-family="Helvetica,sans-Serif" font-size="10.00">::fill_surface</text>
</a>
</g>
</g>
<!-- Node4&#45;&gt;Node6 -->
<g id="edge5_Node000004_Node000006" class="edge">
<title>Node4&#45;&gt;Node6</title>
<g id="a_edge5_Node000004_Node000006"><a xlink:title=" ">
<path fill="none" stroke="#63b8ff" d="M153.13,-116.33C140,-117.42 126.38,-118.55 113.8,-119.59"/>
<polygon fill="#63b8ff" stroke="#63b8ff" points="153.34,-119.74 163.01,-115.42 152.76,-112.76 153.34,-119.74"/>
</a>
</g>
</g>
<!-- Node7 -->
<g id="Node000007" class="node">
<title>Node7</title>
<g id="a_Node000007"><a xlink:href="../../d8/dd2/class_slic3r_1_1_fill_monotonic_line.html#aac77640a12fd3d7f5747d4ce52cb2a0f" target="_top" xlink:title=" ">
<polygon fill="white" stroke="#666666" points="122.5,-90.12 0,-90.12 0,-59.62 122.5,-59.62 122.5,-90.12"/>
<text text-anchor="start" x="8" y="-76.62" font-family="Helvetica,sans-Serif" font-size="10.00">Slic3r::FillMonotonicLine</text>
<text text-anchor="middle" x="61.25" y="-65.38" font-family="Helvetica,sans-Serif" font-size="10.00">::fill_surface</text>
</a>
</g>
</g>
<!-- Node4&#45;&gt;Node7 -->
<g id="edge6_Node000004_Node000007" class="edge">
<title>Node4&#45;&gt;Node7</title>
<g id="a_edge6_Node000004_Node000007"><a xlink:title=" ">
<path fill="none" stroke="#63b8ff" d="M153.55,-95.88C143.37,-93.54 132.9,-91.13 122.83,-88.81"/>
<polygon fill="#63b8ff" stroke="#63b8ff" points="152.48,-99.45 163.01,-98.28 154.05,-92.63 152.48,-99.45"/>
</a>
</g>
</g>
<!-- Node9 -->
<g id="Node000009" class="node">
<title>Node9</title>
<g id="a_Node000009"><a xlink:href="../../de/d9b/class_slic3r_1_1_fill_monotonic_line_w_gap_fill.html#a620d085638fa67eae609928cdd27c9e5" target="_top" xlink:title=" ">
<polygon fill="white" stroke="#666666" points="122.5,-41.75 0,-41.75 0,0 122.5,0 122.5,-41.75"/>
<text text-anchor="start" x="8" y="-28.25" font-family="Helvetica,sans-Serif" font-size="10.00">Slic3r::FillMonotonicLine</text>
<text text-anchor="start" x="8" y="-17" font-family="Helvetica,sans-Serif" font-size="10.00">WGapFill::fill_surface</text>
<text text-anchor="middle" x="61.25" y="-5.75" font-family="Helvetica,sans-Serif" font-size="10.00">_extrusion</text>
</a>
</g>
</g>
<!-- Node8&#45;&gt;Node9 -->
<g id="edge8_Node000008_Node000009" class="edge">
<title>Node8&#45;&gt;Node9</title>
<g id="a_edge8_Node000008_Node000009"><a xlink:title=" ">
<path fill="none" stroke="#63b8ff" d="M147.51,-33.95C139.27,-32.69 130.93,-31.41 122.85,-30.17"/>
<polygon fill="#63b8ff" stroke="#63b8ff" points="146.83,-37.54 157.24,-35.6 147.89,-30.62 146.83,-37.54"/>
</a>
</g>
</g>
</g>
</svg>

<g id="navigator" transform="translate(0 0)" fill="#404254">
  <rect fill="#f2f5e9" fill-opacity="0.5" stroke="#606060" stroke-width=".5" x="0" y="0" width="60" height="60"/>
  <use id="zoomplus" xlink:href="#zoomPlus" x="17" y="9" onmousedown="handleZoom(evt,'in')"/>
  <use id="zoomminus" xlink:href="#zoomMin" x="42" y="9" onmousedown="handleZoom(evt,'out')"/>
  <use id="reset" xlink:href="#resetDef" x="30" y="36" onmousedown="handleReset()"/>
   <use id="arrowup" xlink:href="#arrowUp" x="0" y="0" onmousedown="handlePan(0,-1)"/>
  <use id="arrowright" xlink:href="#arrowRight" x="0" y="0" onmousedown="handlePan(1,0)"/>
  <use id="arrowdown" xlink:href="#arrowDown" x="0" y="0" onmousedown="handlePan(0,1)"/>
  <use id="arrowleft" xlink:href="#arrowLeft" x="0" y="0" onmousedown="handlePan(-1,0)"/>
</g>
<svg viewBox="0 0 15 15" width="100%" height="30px" preserveAspectRatio="xMaxYMin meet">
 <g id="arrow_out" transform="scale(0.3 0.3)">
  <a xlink:href="struct_slic3r_1_1_monotonic_region_aba7c27e27ce90aad2c6e364d6fe0774c_icgraph_org.svg" target="_base">
   <rect id="button" ry="5" rx="5" y="6" x="6" height="38" width="38"
        fill="#f2f5e9" fill-opacity="0.5" stroke="#606060" stroke-width="1.0"/>
   <path id="arrow"
     d="M 11.500037,31.436501 C 11.940474,20.09759 22.043105,11.32322 32.158766,21.979434 L 37.068811,17.246167 C 37.068811,17.246167 37.088388,32 37.088388,32 L 22.160133,31.978069 C 22.160133,31.978069 26.997745,27.140456 26.997745,27.140456 C 18.528582,18.264221 13.291696,25.230495 11.500037,31.436501 z"
     style="fill:#404040;"/>
  </a>
 </g>
</svg>

<style type='text/css'>
<![CDATA[
[data-mouse-over-selected='false'] { opacity: 0.7; }
[data-mouse-over-selected='true']  { opacity: 1.0; }
]]>
</style>
<script type="application/ecmascript"><![CDATA[
document.addEventListener('DOMContentLoaded', (event) => {
  highlightEdges();
  highlightAdjacentNodes();
});
]]></script>
</svg>
