<?xml version="1.0" encoding="UTF-8" standalone="no"?>
<!DOCTYPE svg PUBLIC "-//W3C//DTD SVG 1.1//EN"
 "http://www.w3.org/Graphics/SVG/1.1/DTD/svg11.dtd">
<!-- Generated by graphviz version 8.1.0 (20230707.0739)
 -->
<!-- Title: src/qhull/src/libqhullcpp/QhullStat.h Pages: 1 -->
<svg width="262pt" height="105pt"
 viewBox="0.00 0.00 262.00 105.00" xmlns="http://www.w3.org/2000/svg" xmlns:xlink="http://www.w3.org/1999/xlink">
<g id="graph0" class="graph" transform="scale(1 1) rotate(0) translate(4 101)">
<title>src/qhull/src/libqhullcpp/QhullStat.h</title>
<!-- Node1 -->
<g id="Node000001" class="node">
<title>Node1</title>
<g id="a_Node000001"><a xlink:title=" ">
<polygon fill="#999999" stroke="#666666" points="186,-97 68,-97 68,-66.5 186,-66.5 186,-97"/>
<text text-anchor="start" x="76" y="-83.5" font-family="Helvetica,sans-Serif" font-size="10.00">src/qhull/src/libqhullcpp</text>
<text text-anchor="middle" x="127" y="-72.25" font-family="Helvetica,sans-Serif" font-size="10.00">/QhullStat.h</text>
</a>
</g>
</g>
<!-- Node2 -->
<g id="Node000002" class="node">
<title>Node2</title>
<g id="a_Node000002"><a xlink:href="../../d4/d95/_qhull_qh_8cpp.html" target="_top" xlink:title=" ">
<polygon fill="white" stroke="#666666" points="118,-30.5 0,-30.5 0,0 118,0 118,-30.5"/>
<text text-anchor="start" x="8" y="-17" font-family="Helvetica,sans-Serif" font-size="10.00">src/qhull/src/libqhullcpp</text>
<text text-anchor="middle" x="59" y="-5.75" font-family="Helvetica,sans-Serif" font-size="10.00">/QhullQh.cpp</text>
</a>
</g>
</g>
<!-- Node1&#45;&gt;Node2 -->
<g id="edge1_Node000001_Node000002" class="edge">
<title>Node1&#45;&gt;Node2</title>
<g id="a_edge1_Node000001_Node000002"><a xlink:title=" ">
<path fill="none" stroke="#63b8ff" d="M103.8,-58.74C94.08,-49.53 83.05,-39.06 74.37,-30.83"/>
<polygon fill="#63b8ff" stroke="#63b8ff" points="100.91,-60.77 110.57,-65.11 105.72,-55.69 100.91,-60.77"/>
</a>
</g>
</g>
<!-- Node3 -->
<g id="Node000003" class="node">
<title>Node3</title>
<g id="a_Node000003"><a xlink:href="../../de/daa/_qhull_stat_8cpp.html" target="_top" xlink:title=" ">
<polygon fill="white" stroke="#666666" points="254,-30.5 136,-30.5 136,0 254,0 254,-30.5"/>
<text text-anchor="start" x="144" y="-17" font-family="Helvetica,sans-Serif" font-size="10.00">src/qhull/src/libqhullcpp</text>
<text text-anchor="middle" x="195" y="-5.75" font-family="Helvetica,sans-Serif" font-size="10.00">/QhullStat.cpp</text>
</a>
</g>
</g>
<!-- Node1&#45;&gt;Node3 -->
<g id="edge2_Node000001_Node000003" class="edge">
<title>Node1&#45;&gt;Node3</title>
<g id="a_edge2_Node000001_Node000003"><a xlink:title=" ">
<path fill="none" stroke="#63b8ff" d="M150.2,-58.74C159.92,-49.53 170.95,-39.06 179.63,-30.83"/>
<polygon fill="#63b8ff" stroke="#63b8ff" points="148.28,-55.69 143.43,-65.11 153.09,-60.77 148.28,-55.69"/>
</a>
</g>
</g>
</g>
</svg>
