<?xml version="1.0" encoding="UTF-8" standalone="no"?>
<!DOCTYPE svg PUBLIC "-//W3C//DTD SVG 1.1//EN"
 "http://www.w3.org/Graphics/SVG/1.1/DTD/svg11.dtd">
<!-- Generated by graphviz version 8.1.0 (20230707.0739)
 -->
<!-- Title: Clipper2Lib::ClipperOffset::Group Pages: 1 -->
<svg width="137pt" height="249pt"
 viewBox="0.00 0.00 136.50 249.25" xmlns="http://www.w3.org/2000/svg" xmlns:xlink="http://www.w3.org/1999/xlink">

<svg id="main" version="1.1" xmlns="http://www.w3.org/2000/svg" xmlns:xlink="http://www.w3.org/1999/xlink" xml:space="preserve" onload="init(evt)">
<style type="text/css"><![CDATA[
.node, .edge {opacity: 0.7;}
.node.selected, .edge.selected {opacity: 1;}
.edge:hover path { stroke: red; }
.edge:hover polygon { stroke: red; fill: red; }
]]></style>
<script type="application/ecmascript" xlink:href="../../svg.min.js"/>
<svg id="graph" class="graph">
<g id="graph0" class="graph" transform="scale(1 1) rotate(0) translate(4 245.25)">
<title>Clipper2Lib::ClipperOffset::Group</title>
<!-- Node1 -->
<g id="Node000001" class="node">
<title>Node1</title>
<g id="a_Node000001"><a xlink:title=" ">
<polygon fill="#999999" stroke="#666666" points="128.5,-30.5 0,-30.5 0,0 128.5,0 128.5,-30.5"/>
<text text-anchor="start" x="8" y="-17" font-family="Helvetica,sans-Serif" font-size="10.00">Clipper2Lib::ClipperOffset</text>
<text text-anchor="middle" x="64.25" y="-5.75" font-family="Helvetica,sans-Serif" font-size="10.00">::Group</text>
</a>
</g>
</g>
<!-- Node2 -->
<g id="Node000002" class="node">
<title>Node2</title>
<g id="a_Node000002"><a xlink:title=" ">
<polygon fill="white" stroke="#666666" points="119.88,-108.25 8.62,-108.25 8.62,-89 119.88,-89 119.88,-108.25"/>
<text text-anchor="middle" x="64.25" y="-94.75" font-family="Helvetica,sans-Serif" font-size="10.00">std::vector&lt; Path64 &gt;</text>
</a>
</g>
</g>
<!-- Node2&#45;&gt;Node1 -->
<g id="edge1_Node000001_Node000002" class="edge">
<title>Node2&#45;&gt;Node1</title>
<g id="a_edge1_Node000001_Node000002"><a xlink:title=" ">
<path fill="none" stroke="#9a32cd" stroke-dasharray="5,2" d="M64.25,-77.8C64.25,-63.28 64.25,-43.9 64.25,-30.79"/>
<polygon fill="#9a32cd" stroke="#9a32cd" points="60.75,-77.61 64.25,-87.61 67.75,-77.61 60.75,-77.61"/>
</a>
</g>
<text text-anchor="middle" x="88.25" y="-61.5" font-family="Helvetica,sans-Serif" font-size="10.00" fill="grey"> paths_in_</text>
<text text-anchor="middle" x="88.25" y="-50.25" font-family="Helvetica,sans-Serif" font-size="10.00" fill="grey">paths_out_</text>
</g>
<!-- Node3 -->
<g id="Node000003" class="node">
<title>Node3</title>
<g id="a_Node000003"><a xlink:title=" ">
<polygon fill="white" stroke="#666666" points="107.5,-174.75 21,-174.75 21,-155.5 107.5,-155.5 107.5,-174.75"/>
<text text-anchor="middle" x="64.25" y="-161.25" font-family="Helvetica,sans-Serif" font-size="10.00">std::vector&lt; T &gt;</text>
</a>
</g>
</g>
<!-- Node3&#45;&gt;Node2 -->
<g id="edge2_Node000002_Node000003" class="edge">
<title>Node3&#45;&gt;Node2</title>
<g id="a_edge2_Node000002_Node000003"><a xlink:title=" ">
<path fill="none" stroke="#9a32cd" stroke-dasharray="5,2" d="M40.15,-148.11C37.05,-144.97 34.33,-141.42 32.5,-137.5 27.28,-126.3 37.98,-115.72 48.34,-108.6"/>
<polygon fill="#9a32cd" stroke="#9a32cd" points="37.42,-151.23 47.31,-155.02 41.94,-145.89 37.42,-151.23"/>
</a>
</g>
<text text-anchor="middle" x="54.62" y="-128" font-family="Helvetica,sans-Serif" font-size="10.00" fill="grey"> elements</text>
</g>
<!-- Node3&#45;&gt;Node2 -->
<g id="edge4_Node000002_Node000003" class="edge">
<title>Node3&#45;&gt;Node2</title>
<g id="a_edge4_Node000002_Node000003"><a xlink:title=" ">
<path fill="none" stroke="orange" stroke-dasharray="5,2" d="M73.19,-144.97C74.04,-142.5 74.76,-139.97 75.25,-137.5 77.25,-127.43 73.13,-116.15 69.37,-108.55"/>
<polygon fill="orange" stroke="orange" points="69.62,-143.46 69.04,-154.04 76.09,-146.13 69.62,-143.46"/>
</a>
</g>
<text text-anchor="middle" x="101.12" y="-128" font-family="Helvetica,sans-Serif" font-size="10.00" fill="grey"> &lt; Path64 &gt;</text>
</g>
<!-- Node4 -->
<g id="Node000004" class="node">
<title>Node4</title>
<g id="a_Node000004"><a xlink:title=" ">
<polygon fill="white" stroke="#666666" points="78.65,-241.25 49.85,-241.25 49.85,-222 78.65,-222 78.65,-241.25"/>
<text text-anchor="middle" x="64.25" y="-227.75" font-family="Helvetica,sans-Serif" font-size="10.00">T</text>
</a>
</g>
</g>
<!-- Node4&#45;&gt;Node3 -->
<g id="edge3_Node000003_Node000004" class="edge">
<title>Node4&#45;&gt;Node3</title>
<g id="a_edge3_Node000003_Node000004"><a xlink:title=" ">
<path fill="none" stroke="#9a32cd" stroke-dasharray="5,2" d="M64.25,-210.9C64.25,-198.93 64.25,-184.23 64.25,-175.02"/>
<polygon fill="#9a32cd" stroke="#9a32cd" points="60.75,-210.66 64.25,-220.66 67.75,-210.66 60.75,-210.66"/>
</a>
</g>
<text text-anchor="middle" x="85.62" y="-194.5" font-family="Helvetica,sans-Serif" font-size="10.00" fill="grey"> elements</text>
</g>
</g>
</svg>
</svg>

<style type='text/css'>
<![CDATA[
[data-mouse-over-selected='false'] { opacity: 0.7; }
[data-mouse-over-selected='true']  { opacity: 1.0; }
]]>
</style>
<script type="application/ecmascript"><![CDATA[
document.addEventListener('DOMContentLoaded', (event) => {
  highlightEdges();
  highlightAdjacentNodes();
});
]]></script>
</svg>
