<?xml version="1.0" encoding="UTF-8" standalone="no"?>
<!DOCTYPE svg PUBLIC "-//W3C//DTD SVG 1.1//EN"
 "http://www.w3.org/Graphics/SVG/1.1/DTD/svg11.dtd">
<!-- Generated by graphviz version 8.1.0 (20230707.0739)
 -->
<!-- Title: qh_findfacet_all Pages: 1 -->
<svg width="1066pt" height="853pt"
 viewBox="0.00 0.00 1065.50 853.10" xmlns="http://www.w3.org/2000/svg" xmlns:xlink="http://www.w3.org/1999/xlink">
<g id="graph0" class="graph" transform="scale(1 1) rotate(0) translate(4 849.1)">
<title>qh_findfacet_all</title>
<!-- Node1 -->
<g id="Node000001" class="node">
<title>Node1</title>
<g id="a_Node000001"><a xlink:title=" ">
<polygon fill="#999999" stroke="#666666" points="84.25,-47.62 0,-47.62 0,-28.38 84.25,-28.38 84.25,-47.62"/>
<text text-anchor="middle" x="42.12" y="-34.12" font-family="Helvetica,sans-Serif" font-size="10.00">qh_findfacet_all</text>
</a>
</g>
</g>
<!-- Node2 -->
<g id="Node000002" class="node">
<title>Node2</title>
<g id="a_Node000002"><a xlink:href="../../df/d22/qhull_2src_2libqhull_2geom_8c.html#ad6aa8bf49cd3167ae0f73fb43fd4f405" target="_top" xlink:title=" ">
<polygon fill="white" stroke="#666666" points="191,-47.62 120.25,-47.62 120.25,-28.38 191,-28.38 191,-47.62"/>
<text text-anchor="middle" x="155.62" y="-34.12" font-family="Helvetica,sans-Serif" font-size="10.00">qh_distplane</text>
</a>
</g>
</g>
<!-- Node1&#45;&gt;Node2 -->
<g id="edge1_Node000001_Node000002" class="edge">
<title>Node1&#45;&gt;Node2</title>
<g id="a_edge1_Node000001_Node000002"><a xlink:title=" ">
<path fill="none" stroke="#63b8ff" d="M84.64,-38C92.65,-38 101.07,-38 109.19,-38"/>
<polygon fill="#63b8ff" stroke="#63b8ff" points="109,-41.5 119,-38 109,-34.5 109,-41.5"/>
</a>
</g>
</g>
<!-- Node3 -->
<g id="Node000003" class="node">
<title>Node3</title>
<g id="a_Node000003"><a xlink:href="../../d6/df4/testqset_8c.html#aca4b59cdb8152b580cb9d258a849288d" target="_top" xlink:title=" ">
<polygon fill="white" stroke="#666666" points="283.5,-520.62 227,-520.62 227,-501.38 283.5,-501.38 283.5,-520.62"/>
<text text-anchor="middle" x="255.25" y="-507.12" font-family="Helvetica,sans-Serif" font-size="10.00">qh_fprintf</text>
</a>
</g>
</g>
<!-- Node2&#45;&gt;Node3 -->
<g id="edge2_Node000002_Node000003" class="edge">
<title>Node2&#45;&gt;Node3</title>
<g id="a_edge2_Node000002_Node000003"><a xlink:title=" ">
<path fill="none" stroke="#63b8ff" d="M158.66,-47.88C170.76,-106.49 233.15,-408.78 250.03,-490.57"/>
<polygon fill="#63b8ff" stroke="#63b8ff" points="246.77,-491.09 252.22,-500.18 253.63,-489.67 246.77,-491.09"/>
</a>
</g>
</g>
<!-- Node22 -->
<g id="Node000022" class="node">
<title>Node22</title>
<g id="a_Node000022"><a xlink:href="../../d0/d1c/poly_8c.html#a96ca9a1e5768eb072de911e9f2388cad" target="_top" xlink:title=" ">
<polygon fill="#fff0f0" stroke="red" points="921.5,-29.62 861.25,-29.62 861.25,-10.38 921.5,-10.38 921.5,-29.62"/>
<text text-anchor="middle" x="891.38" y="-16.12" font-family="Helvetica,sans-Serif" font-size="10.00">qh_pointid</text>
</a>
</g>
</g>
<!-- Node2&#45;&gt;Node22 -->
<g id="edge47_Node000002_Node000022" class="edge">
<title>Node2&#45;&gt;Node22</title>
<g id="a_edge47_Node000002_Node000022"><a xlink:title=" ">
<path fill="none" stroke="#63b8ff" d="M187.72,-27.92C225.26,-16.66 290.5,0 347.88,0 347.88,0 347.88,0 624.88,0 704.97,0 798.29,-9.16 850.22,-15.09"/>
<polygon fill="#63b8ff" stroke="#63b8ff" points="849.63,-18.66 859.96,-16.33 850.43,-11.7 849.63,-18.66"/>
</a>
</g>
</g>
<!-- Node4 -->
<g id="Node000004" class="node">
<title>Node4</title>
<g id="a_Node000004"><a xlink:href="../../de/d23/user__eg2_8c.html#a5f9e5bc131c58db28e039707aea6f6dc" target="_top" xlink:title=" ">
<polygon fill="white" stroke="#666666" points="378.25,-482.62 319.5,-482.62 319.5,-463.38 378.25,-463.38 378.25,-482.62"/>
<text text-anchor="middle" x="348.88" y="-469.12" font-family="Helvetica,sans-Serif" font-size="10.00">qh_errexit</text>
</a>
</g>
</g>
<!-- Node3&#45;&gt;Node4 -->
<g id="edge3_Node000003_Node000004" class="edge">
<title>Node3&#45;&gt;Node4</title>
<g id="a_edge3_Node000003_Node000004"><a xlink:title=" ">
<path fill="none" stroke="#63b8ff" d="M268.61,-501.09C279.08,-495.18 294.7,-488.07 309.3,-482.32"/>
<polygon fill="#63b8ff" stroke="#63b8ff" points="310.06,-485.4 318.17,-478.59 307.58,-478.85 310.06,-485.4"/>
</a>
</g>
</g>
<!-- Node10 -->
<g id="Node000010" class="node">
<title>Node10</title>
<g id="a_Node000010"><a xlink:href="../../d7/d2a/_qhull__test_8cpp.html#a7aff5fe780d18ea82c430cee6e90de6c" target="_top" xlink:title=" ">
<polygon fill="white" stroke="#666666" points="1057.5,-293.62 971,-293.62 971,-274.38 1057.5,-274.38 1057.5,-293.62"/>
<text text-anchor="middle" x="1014.25" y="-280.12" font-family="Helvetica,sans-Serif" font-size="10.00">qh_fprintf_stderr</text>
</a>
</g>
</g>
<!-- Node3&#45;&gt;Node10 -->
<g id="edge46_Node000003_Node000010" class="edge">
<title>Node3&#45;&gt;Node10</title>
<g id="a_edge46_Node000003_Node000010"><a xlink:title=" ">
<path fill="none" stroke="#63b8ff" d="M257.14,-520.83C261.37,-565.7 280.93,-750.49 319.5,-791 368.69,-842.66 402.79,-834 474.12,-834 474.12,-834 474.12,-834 762.75,-834 839.77,-834 879.56,-868.46 935,-815 1009.8,-742.88 1013.66,-393.45 1013.41,-304.59"/>
<polygon fill="#63b8ff" stroke="#63b8ff" points="1016.91,-304.82 1013.36,-294.83 1009.91,-304.85 1016.91,-304.82"/>
</a>
</g>
</g>
<!-- Node4&#45;&gt;Node3 -->
<g id="edge7_Node000004_Node000003" class="edge">
<title>Node4&#45;&gt;Node3</title>
<g id="a_edge7_Node000004_Node000003"><a xlink:title=" ">
<path fill="none" stroke="#63b8ff" d="M335.19,-483.1C324.45,-489.12 308.47,-496.35 293.7,-502.12"/>
<polygon fill="#63b8ff" stroke="#63b8ff" points="292.88,-499.06 284.74,-505.84 295.33,-505.62 292.88,-499.06"/>
</a>
</g>
</g>
<!-- Node5 -->
<g id="Node000005" class="node">
<title>Node5</title>
<g id="a_Node000005"><a xlink:href="../../db/d66/stat_8c.html#a323eaccbfe6576549fbbcc27b1fc0293" target="_top" xlink:title=" ">
<polygon fill="white" stroke="#666666" points="811.75,-444.62 711.75,-444.62 711.75,-425.38 811.75,-425.38 811.75,-444.62"/>
<text text-anchor="middle" x="761.75" y="-431.12" font-family="Helvetica,sans-Serif" font-size="10.00">qh_collectstatistics</text>
</a>
</g>
</g>
<!-- Node4&#45;&gt;Node5 -->
<g id="edge4_Node000004_Node000005" class="edge">
<title>Node4&#45;&gt;Node5</title>
<g id="a_edge4_Node000004_Node000005"><a xlink:title=" ">
<path fill="none" stroke="#63b8ff" d="M378.43,-466.52C420.52,-457.32 501.83,-440.96 572,-435 614.94,-431.35 663.58,-431.45 700.73,-432.41"/>
<polygon fill="#63b8ff" stroke="#63b8ff" points="700.28,-435.93 710.37,-432.72 700.48,-428.93 700.28,-435.93"/>
</a>
</g>
</g>
<!-- Node6 -->
<g id="Node000006" class="node">
<title>Node6</title>
<g id="a_Node000006"><a xlink:href="../../d3/d8d/user_8c.html#a7903aa238e40e8d6fc4d56e6b46db802" target="_top" xlink:title=" ">
<polygon fill="white" stroke="#666666" points="506,-425.62 444.25,-425.62 444.25,-406.38 506,-406.38 506,-425.62"/>
<text text-anchor="middle" x="475.12" y="-412.12" font-family="Helvetica,sans-Serif" font-size="10.00">qh_errprint</text>
</a>
</g>
</g>
<!-- Node4&#45;&gt;Node6 -->
<g id="edge5_Node000004_Node000006" class="edge">
<title>Node4&#45;&gt;Node6</title>
<g id="a_edge5_Node000004_Node000006"><a xlink:title=" ">
<path fill="none" stroke="#63b8ff" d="M368.25,-463.01C381,-456.21 398.48,-447.18 414.25,-440 421.61,-436.65 429.58,-433.28 437.23,-430.17"/>
<polygon fill="#63b8ff" stroke="#63b8ff" points="438.39,-433.07 446.37,-426.11 435.79,-426.57 438.39,-433.07"/>
</a>
</g>
</g>
<!-- Node7 -->
<g id="Node000007" class="node">
<title>Node7</title>
<g id="a_Node000007"><a xlink:href="../../d7/d2a/_qhull__test_8cpp.html#a0b10c9df60e12aa9251829c10f31f80b" target="_top" xlink:title=" ">
<polygon fill="white" stroke="#666666" points="1038,-256.62 990.5,-256.62 990.5,-237.38 1038,-237.38 1038,-256.62"/>
<text text-anchor="middle" x="1014.25" y="-243.12" font-family="Helvetica,sans-Serif" font-size="10.00">qh_exit</text>
</a>
</g>
</g>
<!-- Node4&#45;&gt;Node7 -->
<g id="edge6_Node000004_Node000007" class="edge">
<title>Node4&#45;&gt;Node7</title>
<g id="a_edge6_Node000004_Node000007"><a xlink:title=" ">
<path fill="none" stroke="#63b8ff" d="M349.46,-462.97C348.61,-428.48 350.86,-313.82 414.25,-259 485.15,-197.68 529.13,-228 622.88,-228 622.88,-228 622.88,-228 762.75,-228 840.48,-228 931.38,-237.21 979.45,-242.8"/>
<polygon fill="#63b8ff" stroke="#63b8ff" points="978.81,-246.37 989.16,-244.07 979.64,-239.42 978.81,-246.37"/>
</a>
</g>
</g>
<!-- Node8 -->
<g id="Node000008" class="node">
<title>Node8</title>
<g id="a_Node000008"><a xlink:href="../../d3/d8f/mem_8c.html#adff4778cdb44590978fca4012f1d279c" target="_top" xlink:title=" ">
<polygon fill="white" stroke="#666666" points="808.38,-275.62 715.12,-275.62 715.12,-256.38 808.38,-256.38 808.38,-275.62"/>
<text text-anchor="middle" x="761.75" y="-262.12" font-family="Helvetica,sans-Serif" font-size="10.00">qh_memstatistics</text>
</a>
</g>
</g>
<!-- Node4&#45;&gt;Node8 -->
<g id="edge8_Node000004_Node000008" class="edge">
<title>Node4&#45;&gt;Node8</title>
<g id="a_edge8_Node000004_Node000008"><a xlink:title=" ">
<path fill="none" stroke="#63b8ff" d="M349.88,-462.92C350.51,-431.29 357.18,-333.46 414.25,-290 458.31,-256.44 617.55,-258.69 703.99,-262.63"/>
<polygon fill="#63b8ff" stroke="#63b8ff" points="703.76,-266.17 713.92,-263.16 704.1,-259.18 703.76,-266.17"/>
</a>
</g>
</g>
<!-- Node11 -->
<g id="Node000011" class="node">
<title>Node11</title>
<g id="a_Node000011"><a xlink:href="../../d3/d8d/user_8c.html#a7a6915f37bb64324a3c7457469ff2481" target="_top" xlink:title=" ">
<polygon fill="white" stroke="#666666" points="536,-388.62 414.25,-388.62 414.25,-369.38 536,-369.38 536,-388.62"/>
<text text-anchor="middle" x="475.12" y="-375.12" font-family="Helvetica,sans-Serif" font-size="10.00">qh_printhelp_degenerate</text>
</a>
</g>
</g>
<!-- Node4&#45;&gt;Node11 -->
<g id="edge15_Node000004_Node000011" class="edge">
<title>Node4&#45;&gt;Node11</title>
<g id="a_edge15_Node000004_Node000011"><a xlink:title=" ">
<path fill="none" stroke="#63b8ff" d="M355.65,-463.01C365.55,-446.76 387.35,-414.63 414.25,-397 416.2,-395.72 418.25,-394.53 420.37,-393.42"/>
<polygon fill="#63b8ff" stroke="#63b8ff" points="421.31,-396.38 428.96,-389.06 418.41,-390.01 421.31,-396.38"/>
</a>
</g>
</g>
<!-- Node12 -->
<g id="Node000012" class="node">
<title>Node12</title>
<g id="a_Node000012"><a xlink:href="../../d3/d8d/user_8c.html#af5b1d1f8cbeec0187c4b16df2c24a540" target="_top" xlink:title=" ">
<polygon fill="white" stroke="#666666" points="528.88,-351.62 421.38,-351.62 421.38,-332.38 528.88,-332.38 528.88,-351.62"/>
<text text-anchor="middle" x="475.12" y="-338.12" font-family="Helvetica,sans-Serif" font-size="10.00">qh_printhelp_singular</text>
</a>
</g>
</g>
<!-- Node4&#45;&gt;Node12 -->
<g id="edge16_Node000004_Node000012" class="edge">
<title>Node4&#45;&gt;Node12</title>
<g id="a_edge16_Node000004_Node000012"><a xlink:title=" ">
<path fill="none" stroke="#63b8ff" d="M352.7,-463.18C359.5,-441.28 378.93,-388.13 414.25,-360 415.5,-359.01 416.8,-358.07 418.14,-357.18"/>
<polygon fill="#63b8ff" stroke="#63b8ff" points="419.44,-359.91 426.54,-352.05 416.09,-353.77 419.44,-359.91"/>
</a>
</g>
</g>
<!-- Node13 -->
<g id="Node000013" class="node">
<title>Node13</title>
<g id="a_Node000013"><a xlink:href="../../db/d66/stat_8c.html#a03ec187748eb5928e8972eaba4192835" target="_top" xlink:title=" ">
<polygon fill="white" stroke="#666666" points="806.88,-501.62 716.62,-501.62 716.62,-482.38 806.88,-482.38 806.88,-501.62"/>
<text text-anchor="middle" x="761.75" y="-488.12" font-family="Helvetica,sans-Serif" font-size="10.00">qh_printstatistics</text>
</a>
</g>
</g>
<!-- Node4&#45;&gt;Node13 -->
<g id="edge17_Node000004_Node000013" class="edge">
<title>Node4&#45;&gt;Node13</title>
<g id="a_edge17_Node000004_Node000013"><a xlink:title=" ">
<path fill="none" stroke="#63b8ff" d="M378.44,-474.32C446.07,-477.45 616.92,-485.35 705.53,-489.45"/>
<polygon fill="#63b8ff" stroke="#63b8ff" points="705.29,-492.99 715.44,-489.95 705.61,-485.99 705.29,-492.99"/>
</a>
</g>
</g>
<!-- Node14 -->
<g id="Node000014" class="node">
<title>Node14</title>
<g id="a_Node000014"><a xlink:href="../../db/d66/stat_8c.html#af508cc7e7257750c7a539c31ea647556" target="_top" xlink:title=" ">
<polygon fill="white" stroke="#666666" points="797.88,-767.62 725.62,-767.62 725.62,-748.38 797.88,-748.38 797.88,-767.62"/>
<text text-anchor="middle" x="761.75" y="-754.12" font-family="Helvetica,sans-Serif" font-size="10.00">qh_printstats</text>
</a>
</g>
</g>
<!-- Node4&#45;&gt;Node14 -->
<g id="edge18_Node000004_Node000014" class="edge">
<title>Node4&#45;&gt;Node14</title>
<g id="a_edge18_Node000004_Node000014"><a xlink:title=" ">
<path fill="none" stroke="#63b8ff" d="M351.56,-483.07C356.45,-509.23 372.99,-580.11 414.25,-620 500.04,-702.94 641.88,-737.98 714.61,-751.11"/>
<polygon fill="#63b8ff" stroke="#63b8ff" points="713.8,-754.69 724.25,-752.96 715,-747.79 713.8,-754.69"/>
</a>
</g>
</g>
<!-- Node18 -->
<g id="Node000018" class="node">
<title>Node18</title>
<g id="a_Node000018"><a xlink:href="../../d3/d1d/libqhull_8c.html#a51d73b88702f523ab3f3322f7e45159e" target="_top" xlink:title=" ">
<polygon fill="white" stroke="#666666" points="807.25,-123.62 716.25,-123.62 716.25,-104.38 807.25,-104.38 807.25,-123.62"/>
<text text-anchor="middle" x="761.75" y="-110.12" font-family="Helvetica,sans-Serif" font-size="10.00">qh_printsummary</text>
</a>
</g>
</g>
<!-- Node4&#45;&gt;Node18 -->
<g id="edge23_Node000004_Node000018" class="edge">
<title>Node4&#45;&gt;Node18</title>
<g id="a_edge23_Node000004_Node000018"><a xlink:title=" ">
<path fill="none" stroke="#63b8ff" d="M351.02,-463.05C356.16,-420.12 378.41,-251.21 414.25,-214 491.47,-133.85 628.51,-116.79 705.07,-113.85"/>
<polygon fill="#63b8ff" stroke="#63b8ff" points="705.03,-117.32 714.91,-113.51 704.81,-110.33 705.03,-117.32"/>
</a>
</g>
</g>
<!-- Node27 -->
<g id="Node000027" class="node">
<title>Node27</title>
<g id="a_Node000027"><a xlink:href="../../df/d0a/io_8c.html#a3a9b6591345727ca9306fb0fe73bc044" target="_top" xlink:title=" ">
<polygon fill="white" stroke="#666666" points="524.38,-577.62 425.88,-577.62 425.88,-558.38 524.38,-558.38 524.38,-577.62"/>
<text text-anchor="middle" x="475.12" y="-564.12" font-family="Helvetica,sans-Serif" font-size="10.00">qh_produce_output</text>
</a>
</g>
</g>
<!-- Node4&#45;&gt;Node27 -->
<g id="edge32_Node000004_Node000027" class="edge">
<title>Node4&#45;&gt;Node27</title>
<g id="a_edge32_Node000004_Node000027"><a xlink:title=" ">
<path fill="none" stroke="#63b8ff" d="M361.69,-483.03C373.45,-496.76 392.81,-520.08 414.25,-535 425.51,-542.83 439.71,-548.67 451.45,-553.6"/>
<polygon fill="#63b8ff" stroke="#63b8ff" points="449.82,-557.15 460.39,-557.92 452.61,-550.73 449.82,-557.15"/>
</a>
</g>
</g>
<!-- Node8&#45;&gt;Node3 -->
<g id="edge9_Node000008_Node000003" class="edge">
<title>Node8&#45;&gt;Node3</title>
<g id="a_edge9_Node000008_Node000003"><a xlink:title=" ">
<path fill="none" stroke="#63b8ff" d="M746.94,-256.08C687.88,-214.93 453.43,-64.99 319.5,-176 270.7,-216.45 259.28,-423.68 256.86,-490.33"/>
<polygon fill="#63b8ff" stroke="#63b8ff" points="253.33,-489.96 256.5,-500.07 260.33,-490.19 253.33,-489.96"/>
</a>
</g>
</g>
<!-- Node9 -->
<g id="Node000009" class="node">
<title>Node9</title>
<g id="a_Node000009"><a xlink:href="../../d3/d8f/mem_8c.html#a277f9b99c55c91ac4791a367bca6613c" target="_top" xlink:title=" ">
<polygon fill="white" stroke="#666666" points="931.25,-275.62 851.5,-275.62 851.5,-256.38 931.25,-256.38 931.25,-275.62"/>
<text text-anchor="middle" x="891.38" y="-262.12" font-family="Helvetica,sans-Serif" font-size="10.00">qh_memcheck</text>
</a>
</g>
</g>
<!-- Node8&#45;&gt;Node9 -->
<g id="edge10_Node000008_Node000009" class="edge">
<title>Node8&#45;&gt;Node9</title>
<g id="a_edge10_Node000008_Node000009"><a xlink:title=" ">
<path fill="none" stroke="#63b8ff" d="M808.83,-266C819,-266 829.82,-266 840.15,-266"/>
<polygon fill="#63b8ff" stroke="#63b8ff" points="840.11,-269.5 850.11,-266 840.11,-262.5 840.11,-269.5"/>
</a>
</g>
</g>
<!-- Node9&#45;&gt;Node3 -->
<g id="edge13_Node000009_Node000003" class="edge">
<title>Node9&#45;&gt;Node3</title>
<g id="a_edge13_Node000009_Node000003"><a xlink:title=" ">
<path fill="none" stroke="#63b8ff" d="M869.95,-255.91C826.17,-235.23 719.57,-190 624.88,-190 474.12,-190 474.12,-190 474.12,-190 328.32,-190 273.31,-419.53 259.8,-490.41"/>
<polygon fill="#63b8ff" stroke="#63b8ff" points="256.21,-489.58 257.86,-500.04 263.1,-490.83 256.21,-489.58"/>
</a>
</g>
</g>
<!-- Node9&#45;&gt;Node4 -->
<g id="edge11_Node000009_Node000004" class="edge">
<title>Node9&#45;&gt;Node4</title>
<g id="a_edge11_Node000009_Node000004"><a xlink:title=" ">
<path fill="none" stroke="#63b8ff" d="M853.4,-276.08C840.33,-279.34 825.46,-282.7 811.75,-285 724.24,-299.68 485.93,-270.7 414.25,-323 371.64,-354.09 356.96,-419.27 352.12,-452.53"/>
<polygon fill="#63b8ff" stroke="#63b8ff" points="348.55,-451.85 350.75,-462.22 355.49,-452.75 348.55,-451.85"/>
</a>
</g>
</g>
<!-- Node9&#45;&gt;Node7 -->
<g id="edge12_Node000009_Node000007" class="edge">
<title>Node9&#45;&gt;Node7</title>
<g id="a_edge12_Node000009_Node000007"><a xlink:title=" ">
<path fill="none" stroke="#63b8ff" d="M931.62,-259.83C947,-257.41 964.48,-254.67 979.3,-252.34"/>
<polygon fill="#63b8ff" stroke="#63b8ff" points="979.71,-255.66 989.05,-250.65 978.62,-248.74 979.71,-255.66"/>
</a>
</g>
</g>
<!-- Node9&#45;&gt;Node10 -->
<g id="edge14_Node000009_Node000010" class="edge">
<title>Node9&#45;&gt;Node10</title>
<g id="a_edge14_Node000009_Node000010"><a xlink:title=" ">
<path fill="none" stroke="#63b8ff" d="M931.62,-271.84C940.74,-273.2 950.59,-274.67 960.19,-276.1"/>
<polygon fill="#63b8ff" stroke="#63b8ff" points="959.46,-279.68 969.87,-277.69 960.49,-272.75 959.46,-279.68"/>
</a>
</g>
</g>
<!-- Node14&#45;&gt;Node3 -->
<g id="edge19_Node000014_Node000003" class="edge">
<title>Node14&#45;&gt;Node3</title>
<g id="a_edge19_Node000014_Node000003"><a xlink:title=" ">
<path fill="none" stroke="#63b8ff" d="M725.26,-761.15C631.74,-768.67 381.52,-783.58 319.5,-734 287.48,-708.41 266.37,-582.35 259.08,-531.91"/>
<polygon fill="#63b8ff" stroke="#63b8ff" points="262.42,-531.49 257.56,-522.08 255.49,-532.47 262.42,-531.49"/>
</a>
</g>
</g>
<!-- Node15 -->
<g id="Node000015" class="node">
<title>Node15</title>
<g id="a_Node000015"><a xlink:href="../../db/d66/stat_8c.html#a8052de0b944148fcf86be51df976e467" target="_top" xlink:title=" ">
<polygon fill="#fff0f0" stroke="red" points="927.12,-767.62 855.62,-767.62 855.62,-748.38 927.12,-748.38 927.12,-767.62"/>
<text text-anchor="middle" x="891.38" y="-754.12" font-family="Helvetica,sans-Serif" font-size="10.00">qh_newstats</text>
</a>
</g>
</g>
<!-- Node14&#45;&gt;Node15 -->
<g id="edge20_Node000014_Node000015" class="edge">
<title>Node14&#45;&gt;Node15</title>
<g id="a_edge20_Node000014_Node000015"><a xlink:title=" ">
<path fill="none" stroke="#63b8ff" d="M798.3,-758C812.66,-758 829.42,-758 844.67,-758"/>
<polygon fill="#63b8ff" stroke="#63b8ff" points="844.46,-761.5 854.46,-758 844.46,-754.5 844.46,-761.5"/>
</a>
</g>
</g>
<!-- Node17 -->
<g id="Node000017" class="node">
<title>Node17</title>
<g id="a_Node000017"><a xlink:href="../../db/d66/stat_8c.html#a560f7dc3fbf339c108100cb4034a8a18" target="_top" xlink:title=" ">
<polygon fill="#fff0f0" stroke="red" points="935,-805.62 847.75,-805.62 847.75,-786.38 935,-786.38 935,-805.62"/>
<text text-anchor="middle" x="891.38" y="-792.12" font-family="Helvetica,sans-Serif" font-size="10.00">qh_printstatlevel</text>
</a>
</g>
</g>
<!-- Node14&#45;&gt;Node17 -->
<g id="edge21_Node000014_Node000017" class="edge">
<title>Node14&#45;&gt;Node17</title>
<g id="a_edge21_Node000014_Node000017"><a xlink:title=" ">
<path fill="none" stroke="#63b8ff" d="M796.62,-768.08C811.88,-772.63 830.1,-778.05 846.41,-782.91"/>
<polygon fill="#63b8ff" stroke="#63b8ff" points="845.21,-786.5 855.79,-786 847.21,-779.79 845.21,-786.5"/>
</a>
</g>
</g>
<!-- Node17&#45;&gt;Node3 -->
<g id="edge22_Node000017_Node000003" class="edge">
<title>Node17&#45;&gt;Node3</title>
<g id="a_edge22_Node000017_Node000003"><a xlink:title=" ">
<path fill="none" stroke="#63b8ff" d="M847.61,-796C795.14,-796 703.46,-796 624.88,-796 474.12,-796 474.12,-796 474.12,-796 403.46,-796 369.84,-808.59 319.5,-759 286.83,-726.81 265.72,-585.29 258.77,-531.68"/>
<polygon fill="#63b8ff" stroke="#63b8ff" points="262.13,-531.33 257.41,-521.85 255.18,-532.21 262.13,-531.33"/>
</a>
</g>
</g>
<!-- Node18&#45;&gt;Node3 -->
<g id="edge24_Node000018_Node000003" class="edge">
<title>Node18&#45;&gt;Node3</title>
<g id="a_edge24_Node000018_Node000003"><a xlink:title=" ">
<path fill="none" stroke="#63b8ff" d="M728.27,-103.91C647.15,-80.94 434.02,-34.65 319.5,-142 268.29,-190.01 258.47,-419.71 256.65,-490.31"/>
<polygon fill="#63b8ff" stroke="#63b8ff" points="253.14,-489.82 256.41,-499.9 260.13,-489.98 253.14,-489.82"/>
</a>
</g>
</g>
<!-- Node19 -->
<g id="Node000019" class="node">
<title>Node19</title>
<g id="a_Node000019"><a xlink:href="../../de/d8f/geom2_8c.html#af31cdbacfc4b81863dfaa827c541a84a" target="_top" xlink:title=" ">
<polygon fill="#fff0f0" stroke="red" points="928.62,-66.62 854.12,-66.62 854.12,-47.38 928.62,-47.38 928.62,-66.62"/>
<text text-anchor="middle" x="891.38" y="-53.12" font-family="Helvetica,sans-Serif" font-size="10.00">qh_outerinner</text>
</a>
</g>
</g>
<!-- Node18&#45;&gt;Node19 -->
<g id="edge25_Node000018_Node000019" class="edge">
<title>Node18&#45;&gt;Node19</title>
<g id="a_edge25_Node000018_Node000019"><a xlink:title=" ">
<path fill="none" stroke="#63b8ff" d="M785.27,-103.94C805.5,-94.91 835.44,-81.54 858.19,-71.37"/>
<polygon fill="#63b8ff" stroke="#63b8ff" points="859.37,-74.23 867.08,-66.96 856.52,-67.84 859.37,-74.23"/>
</a>
</g>
</g>
<!-- Node18&#45;&gt;Node22 -->
<g id="edge27_Node000018_Node000022" class="edge">
<title>Node18&#45;&gt;Node22</title>
<g id="a_edge27_Node000018_Node000022"><a xlink:title=" ">
<path fill="none" stroke="#63b8ff" d="M771.84,-103.97C786.53,-88.22 816.98,-57.49 847.75,-38 849.53,-36.87 851.4,-35.79 853.31,-34.74"/>
<polygon fill="#63b8ff" stroke="#63b8ff" points="854.66,-37.49 862.09,-29.93 851.57,-31.21 854.66,-37.49"/>
</a>
</g>
</g>
<!-- Node24 -->
<g id="Node000024" class="node">
<title>Node24</title>
<g id="a_Node000024"><a xlink:href="../../de/d2e/qset_8c.html#a5bf663b8bdd3b1c91fe945b569fbf682" target="_top" xlink:title=" ">
<polygon fill="#fff0f0" stroke="red" points="923,-577.62 859.75,-577.62 859.75,-558.38 923,-558.38 923,-577.62"/>
<text text-anchor="middle" x="891.38" y="-564.12" font-family="Helvetica,sans-Serif" font-size="10.00">qh_setsize</text>
</a>
</g>
</g>
<!-- Node18&#45;&gt;Node24 -->
<g id="edge28_Node000018_Node000024" class="edge">
<title>Node18&#45;&gt;Node24</title>
<g id="a_edge28_Node000018_Node000024"><a xlink:title=" ">
<path fill="none" stroke="#63b8ff" d="M766.83,-123.88C775.77,-145.78 797.44,-200.17 811.75,-247 845.9,-358.76 875.48,-495.87 886.14,-547.26"/>
<polygon fill="#63b8ff" stroke="#63b8ff" points="882.89,-547.81 888.34,-556.9 889.75,-546.4 882.89,-547.81"/>
</a>
</g>
</g>
<!-- Node26 -->
<g id="Node000026" class="node">
<title>Node26</title>
<g id="a_Node000026"><a xlink:href="../../d2/d1b/stat_8h.html#af3eabded8ac6cc450637080839b9b293" target="_top" xlink:title=" ">
<polygon fill="white" stroke="#666666" points="921.88,-123.62 860.88,-123.62 860.88,-104.38 921.88,-104.38 921.88,-123.62"/>
<text text-anchor="middle" x="891.38" y="-110.12" font-family="Helvetica,sans-Serif" font-size="10.00">qh_stddev</text>
</a>
</g>
</g>
<!-- Node18&#45;&gt;Node26 -->
<g id="edge31_Node000018_Node000026" class="edge">
<title>Node18&#45;&gt;Node26</title>
<g id="a_edge31_Node000018_Node000026"><a xlink:title=" ">
<path fill="none" stroke="#63b8ff" d="M807.75,-114C821.43,-114 836.37,-114 849.75,-114"/>
<polygon fill="#63b8ff" stroke="#63b8ff" points="849.55,-117.5 859.55,-114 849.55,-110.5 849.55,-117.5"/>
</a>
</g>
</g>
<!-- Node19&#45;&gt;Node2 -->
<g id="edge26_Node000019_Node000002" class="edge">
<title>Node19&#45;&gt;Node2</title>
<g id="a_edge26_Node000019_Node000002"><a xlink:title=" ">
<path fill="none" stroke="#63b8ff" d="M853.93,-52.74C802.82,-47.13 706.9,-38 624.88,-38 347.88,-38 347.88,-38 347.88,-38 298.01,-38 240.84,-38 202.09,-38"/>
<polygon fill="#63b8ff" stroke="#63b8ff" points="202.17,-34.5 192.17,-38 202.17,-41.5 202.17,-34.5"/>
</a>
</g>
</g>
<!-- Node24&#45;&gt;Node3 -->
<g id="edge30_Node000024_Node000003" class="edge">
<title>Node24&#45;&gt;Node3</title>
<g id="a_edge30_Node000024_Node000003"><a xlink:title=" ">
<path fill="none" stroke="#63b8ff" d="M881.36,-577.97C849.74,-611.79 739.6,-720 624.88,-720 474.12,-720 474.12,-720 474.12,-720 365.49,-720 289.95,-583.01 265.12,-530.84"/>
<polygon fill="#63b8ff" stroke="#63b8ff" points="267.98,-529.68 260.6,-522.08 261.63,-532.63 267.98,-529.68"/>
</a>
</g>
</g>
<!-- Node24&#45;&gt;Node4 -->
<g id="edge29_Node000024_Node000004" class="edge">
<title>Node24&#45;&gt;Node4</title>
<g id="a_edge29_Node000024_Node000004"><a xlink:title=" ">
<path fill="none" stroke="#63b8ff" d="M859.54,-574.65C845.1,-577.47 827.62,-580.45 811.75,-582 631.35,-599.58 433.33,-598.14 414.25,-587 379.71,-566.84 362.24,-520.53 354.69,-493.55"/>
<polygon fill="#63b8ff" stroke="#63b8ff" points="357.85,-492.8 351.97,-483.99 351.07,-494.54 357.85,-492.8"/>
</a>
</g>
</g>
<!-- Node27&#45;&gt;Node3 -->
<g id="edge34_Node000027_Node000003" class="edge">
<title>Node27&#45;&gt;Node3</title>
<g id="a_edge34_Node000027_Node000003"><a xlink:title=" ">
<path fill="none" stroke="#63b8ff" d="M435.77,-557.97C395.98,-547.56 334.14,-531.38 294.42,-520.99"/>
<polygon fill="#63b8ff" stroke="#63b8ff" points="295.4,-517.36 284.84,-518.22 293.63,-524.14 295.4,-517.36"/>
</a>
</g>
</g>
<!-- Node27&#45;&gt;Node4 -->
<g id="edge33_Node000027_Node000004" class="edge">
<title>Node27&#45;&gt;Node4</title>
<g id="a_edge33_Node000027_Node000004"><a xlink:title=" ">
<path fill="none" stroke="#63b8ff" d="M425.42,-559.69C421.52,-557.67 417.74,-555.43 414.25,-553 390.96,-536.8 370.14,-510.69 358.83,-492.39"/>
<polygon fill="#63b8ff" stroke="#63b8ff" points="361.42,-490.87 353.44,-483.9 355.34,-494.33 361.42,-490.87"/>
</a>
</g>
</g>
<!-- Node27&#45;&gt;Node24 -->
<g id="edge45_Node000027_Node000024" class="edge">
<title>Node27&#45;&gt;Node24</title>
<g id="a_edge45_Node000027_Node000024"><a xlink:title=" ">
<path fill="none" stroke="#63b8ff" d="M524.86,-568C607.01,-568 771.62,-568 848.73,-568"/>
<polygon fill="#63b8ff" stroke="#63b8ff" points="848.45,-571.5 858.45,-568 848.45,-564.5 848.45,-571.5"/>
</a>
</g>
</g>
<!-- Node28 -->
<g id="Node000028" class="node">
<title>Node28</title>
<g id="a_Node000028"><a xlink:href="../../df/d0a/io_8c.html#aba62c3ca1187cdbe5e5440ded5c85387" target="_top" xlink:title=" ">
<polygon fill="#fff0f0" stroke="red" points="672,-463.62 575.75,-463.62 575.75,-444.38 672,-444.38 672,-463.62"/>
<text text-anchor="middle" x="623.88" y="-450.12" font-family="Helvetica,sans-Serif" font-size="10.00">qh_prepare_output</text>
</a>
</g>
</g>
<!-- Node27&#45;&gt;Node28 -->
<g id="edge35_Node000027_Node000028" class="edge">
<title>Node27&#45;&gt;Node28</title>
<g id="a_edge35_Node000027_Node000028"><a xlink:title=" ">
<path fill="none" stroke="#63b8ff" d="M489.15,-557.88C514.56,-538.14 570.95,-494.34 601.77,-470.4"/>
<polygon fill="#63b8ff" stroke="#63b8ff" points="603.34,-472.83 609.09,-463.93 599.05,-467.3 603.34,-472.83"/>
</a>
</g>
</g>
<!-- Node204 -->
<g id="Node000204" class="node">
<title>Node204</title>
<g id="a_Node000204"><a xlink:href="../../df/d0a/io_8c.html#a5bb7ba07294ab92abe598500bf6e1dd8" target="_top" xlink:title=" ">
<polygon fill="#fff0f0" stroke="red" points="675.75,-539.62 572,-539.62 572,-520.38 675.75,-520.38 675.75,-539.62"/>
<text text-anchor="middle" x="623.88" y="-526.12" font-family="Helvetica,sans-Serif" font-size="10.00">qh_produce_output2</text>
</a>
</g>
</g>
<!-- Node27&#45;&gt;Node204 -->
<g id="edge37_Node000027_Node000204" class="edge">
<title>Node27&#45;&gt;Node204</title>
<g id="a_edge37_Node000027_Node000204"><a xlink:title=" ">
<path fill="none" stroke="#63b8ff" d="M515.07,-557.92C532.97,-553.28 554.4,-547.73 573.43,-542.8"/>
<polygon fill="#63b8ff" stroke="#63b8ff" points="574.2,-545.96 583.01,-540.06 572.45,-539.18 574.2,-545.96"/>
</a>
</g>
</g>
<!-- Node28&#45;&gt;Node5 -->
<g id="edge36_Node000028_Node000005" class="edge">
<title>Node28&#45;&gt;Node5</title>
<g id="a_edge36_Node000028_Node000005"><a xlink:title=" ">
<path fill="none" stroke="#63b8ff" d="M672.4,-447.35C681.63,-446.06 691.41,-444.7 700.98,-443.36"/>
<polygon fill="#63b8ff" stroke="#63b8ff" points="701.22,-446.72 710.64,-441.87 700.25,-439.79 701.22,-446.72"/>
</a>
</g>
</g>
<!-- Node204&#45;&gt;Node3 -->
<g id="edge39_Node000204_Node000003" class="edge">
<title>Node204&#45;&gt;Node3</title>
<g id="a_edge39_Node000204_Node000003"><a xlink:title=" ">
<path fill="none" stroke="#63b8ff" d="M612.16,-540.09C596.75,-553.84 566.77,-577.81 536,-587 484.15,-602.49 467.43,-597.01 414.25,-587 362.65,-577.28 308.85,-546.15 279.24,-526.88"/>
<polygon fill="#63b8ff" stroke="#63b8ff" points="281.43,-523.47 271.17,-520.85 277.56,-529.3 281.43,-523.47"/>
</a>
</g>
</g>
<!-- Node204&#45;&gt;Node4 -->
<g id="edge38_Node000204_Node000004" class="edge">
<title>Node204&#45;&gt;Node4</title>
<g id="a_edge38_Node000204_Node000004"><a xlink:title=" ">
<path fill="none" stroke="#63b8ff" d="M571.68,-529.2C528.8,-527.33 466.41,-521.8 414.25,-506 400.68,-501.89 386.55,-494.98 375,-488.55"/>
<polygon fill="#63b8ff" stroke="#63b8ff" points="377,-485.08 366.6,-483.1 373.49,-491.14 377,-485.08"/>
</a>
</g>
</g>
<!-- Node204&#45;&gt;Node8 -->
<g id="edge40_Node000204_Node000008" class="edge">
<title>Node204&#45;&gt;Node8</title>
<g id="a_edge40_Node000204_Node000008"><a xlink:title=" ">
<path fill="none" stroke="#63b8ff" d="M635.81,-519.96C647.01,-509.2 664.35,-491.22 675.75,-473 715.34,-409.73 743.38,-324.84 754.91,-286.41"/>
<polygon fill="#63b8ff" stroke="#63b8ff" points="758.49,-287.64 757.95,-277.06 751.78,-285.66 758.49,-287.64"/>
</a>
</g>
</g>
<!-- Node204&#45;&gt;Node13 -->
<g id="edge41_Node000204_Node000013" class="edge">
<title>Node204&#45;&gt;Node13</title>
<g id="a_edge41_Node000204_Node000013"><a xlink:title=" ">
<path fill="none" stroke="#63b8ff" d="M660.93,-519.92C677.34,-515.33 696.95,-509.84 714.44,-504.95"/>
<polygon fill="#63b8ff" stroke="#63b8ff" points="715.31,-508.06 724,-502 713.42,-501.32 715.31,-508.06"/>
</a>
</g>
</g>
<!-- Node204&#45;&gt;Node14 -->
<g id="edge42_Node000204_Node000014" class="edge">
<title>Node204&#45;&gt;Node14</title>
<g id="a_edge42_Node000204_Node000014"><a xlink:title=" ">
<path fill="none" stroke="#63b8ff" d="M630.89,-540.09C651.8,-575.18 721.59,-692.29 749.28,-738.76"/>
<polygon fill="#63b8ff" stroke="#63b8ff" points="746.68,-740.23 754.81,-747.03 752.69,-736.64 746.68,-740.23"/>
</a>
</g>
</g>
<!-- Node204&#45;&gt;Node18 -->
<g id="edge43_Node000204_Node000018" class="edge">
<title>Node204&#45;&gt;Node18</title>
<g id="a_edge43_Node000204_Node000018"><a xlink:title=" ">
<path fill="none" stroke="#63b8ff" d="M637.13,-520.05C649.05,-509.64 666.65,-492.17 675.75,-473 719.38,-381.12 686.05,-345.41 711.75,-247 722.53,-205.73 741.18,-159.37 752.1,-133.73"/>
<polygon fill="#63b8ff" stroke="#63b8ff" points="755.63,-135.37 756.38,-124.8 749.21,-132.59 755.63,-135.37"/>
</a>
</g>
</g>
<!-- Node204&#45;&gt;Node24 -->
<g id="edge44_Node000204_Node000024" class="edge">
<title>Node204&#45;&gt;Node24</title>
<g id="a_edge44_Node000204_Node000024"><a xlink:title=" ">
<path fill="none" stroke="#63b8ff" d="M676.13,-535.9C713.73,-540.4 766,-546.99 811.75,-554 823.82,-555.85 836.88,-558.08 848.84,-560.22"/>
<polygon fill="#63b8ff" stroke="#63b8ff" points="847.97,-563.8 858.44,-562.13 849.22,-556.91 847.97,-563.8"/>
</a>
</g>
</g>
</g>
</svg>
