<?xml version="1.0" encoding="UTF-8" standalone="no"?>
<!DOCTYPE svg PUBLIC "-//W3C//DTD SVG 1.1//EN"
 "http://www.w3.org/Graphics/SVG/1.1/DTD/svg11.dtd">
<!-- Generated by graphviz version 8.1.0 (20230707.0739)
 -->
<!-- Title: TempInput::SetMaxTemp Pages: 1 -->
<!--zoomable 186 -->

<svg id="main" version="1.1" xmlns="http://www.w3.org/2000/svg" xmlns:xlink="http://www.w3.org/1999/xlink" xml:space="preserve" onload="init(evt)">
<style type="text/css"><![CDATA[
.node, .edge {opacity: 0.7;}
.node.selected, .edge.selected {opacity: 1;}
.edge:hover path { stroke: red; }
.edge:hover polygon { stroke: red; fill: red; }
]]></style>

<defs>
  <circle id="rim" cx="0" cy="0" r="7"/>
  <circle id="rim2" cx="0" cy="0" r="3.5"/>
  <g id="zoomPlus">
    <use xlink:href="#rim" fill="#404040"><set attributeName="fill" to="#808080" begin="zoomplus.mouseover" end="zoomplus.mouseout"/></use>
    <path d="M-4,0h8M0,-4v8" fill="none" stroke="white" stroke-width="1.5" pointer-events="none"/>
  </g>
  <g id="zoomMin">
    <use xlink:href="#rim" fill="#404040"><set attributeName="fill" to="#808080" begin="zoomminus.mouseover" end="zoomminus.mouseout"/></use>
    <path d="M-4,0h8" fill="none" stroke="white" stroke-width="1.5" pointer-events="none"/>
  </g>
  <g id="arrowUp" transform="translate(30 24)">
    <use xlink:href="#rim"/>
    <path pointer-events="none" fill="none" stroke="white" stroke-width="1.5" d="M0,-3.0v7 M-2.5,-0.5L0,-3.0L2.5,-0.5"/>
  </g>
  <g id="arrowRight" transform="rotate(90) translate(36 -43)">
    <use xlink:href="#rim"/>
    <path pointer-events="none" fill="none" stroke="white" stroke-width="1.5" d="M0,-3.0v7 M-2.5,-0.5L0,-3.0L2.5,-0.5"/>
  </g>
  <g id="arrowDown" transform="rotate(180) translate(-30 -48)">
    <use xlink:href="#rim"/>
    <path pointer-events="none" fill="none" stroke="white" stroke-width="1.5" d="M0,-3.0v7 M-2.5,-0.5L0,-3.0L2.5,-0.5"/>
  </g>
  <g id="arrowLeft" transform="rotate(270) translate(-36 17)">
    <use xlink:href="#rim"/>
    <path pointer-events="none" fill="none" stroke="white" stroke-width="1.5" d="M0,-3.0v7 M-2.5,-0.5L0,-3.0L2.5,-0.5"/>
  </g>
  <g id="resetDef">
    <use xlink:href="#rim2" fill="#404040"><set attributeName="fill" to="#808080" begin="reset.mouseover" end="reset.mouseout"/></use>
  </g>
</defs>
<script type="application/ecmascript">
var viewWidth = 1033;
var viewHeight = 186;
var sectionId = 'dynsection-28';
</script>
<script type="application/ecmascript" xlink:href="../../svg.min.js"/>
<svg id="graph" class="graph">
<g id="viewport">
<title>TempInput::SetMaxTemp</title>
<!-- Node1 -->
<g id="Node000001" class="node">
<title>Node1</title>
<g id="a_Node000001"><a xlink:title=" ">
<polygon fill="#999999" stroke="#666666" points="1024.5,-121.88 899,-121.88 899,-102.62 1024.5,-102.62 1024.5,-121.88"/>
<text text-anchor="middle" x="961.75" y="-108.38" font-family="Helvetica,sans-Serif" font-size="10.00">TempInput::SetMaxTemp</text>
</a>
</g>
</g>
<!-- Node2 -->
<g id="Node000002" class="node">
<title>Node2</title>
<g id="a_Node000002"><a xlink:href="../../df/d0e/class_slic3r_1_1_g_u_i_1_1_status_base_panel.html#a21969b36cea3d75298ca3df0a7a45277" target="_top" xlink:title=" ">
<polygon fill="white" stroke="#666666" points="863,-152.5 716.5,-152.5 716.5,-122 863,-122 863,-152.5"/>
<text text-anchor="start" x="724.5" y="-139" font-family="Helvetica,sans-Serif" font-size="10.00">Slic3r::GUI::StatusBasePanel</text>
<text text-anchor="middle" x="789.75" y="-127.75" font-family="Helvetica,sans-Serif" font-size="10.00">::create_temp_control</text>
</a>
</g>
</g>
<!-- Node1&#45;&gt;Node2 -->
<g id="edge1_Node000001_Node000002" class="edge">
<title>Node1&#45;&gt;Node2</title>
<g id="a_edge1_Node000001_Node000002"><a xlink:title=" ">
<path fill="none" stroke="#63b8ff" d="M888.16,-122.92C879.91,-124.14 871.49,-125.38 863.24,-126.59"/>
<polygon fill="#63b8ff" stroke="#63b8ff" points="888.51,-126.26 897.9,-121.35 887.49,-119.34 888.51,-126.26"/>
</a>
</g>
</g>
<!-- Node6 -->
<g id="Node000006" class="node">
<title>Node6</title>
<g id="a_Node000006"><a xlink:href="../../dc/dbb/class_slic3r_1_1_g_u_i_1_1_status_panel.html#a0919564793971c3c8ee8bd03a42e35f6" target="_top" xlink:title=" ">
<polygon fill="white" stroke="#666666" points="851.75,-103.5 727.75,-103.5 727.75,-73 851.75,-73 851.75,-103.5"/>
<text text-anchor="start" x="735.75" y="-90" font-family="Helvetica,sans-Serif" font-size="10.00">Slic3r::GUI::StatusPanel</text>
<text text-anchor="middle" x="789.75" y="-78.75" font-family="Helvetica,sans-Serif" font-size="10.00">::update_temp_ctrl</text>
</a>
</g>
</g>
<!-- Node1&#45;&gt;Node6 -->
<g id="edge5_Node000001_Node000006" class="edge">
<title>Node1&#45;&gt;Node6</title>
<g id="a_edge5_Node000001_Node000006"><a xlink:title=" ">
<path fill="none" stroke="#63b8ff" d="M888.37,-102.03C876.25,-100.32 863.79,-98.56 851.99,-96.9"/>
<polygon fill="#63b8ff" stroke="#63b8ff" points="887.5,-105.59 897.9,-103.52 888.48,-98.65 887.5,-105.59"/>
</a>
</g>
</g>
<!-- Node3 -->
<g id="Node000003" class="node">
<title>Node3</title>
<g id="a_Node000003"><a xlink:href="../../df/d0e/class_slic3r_1_1_g_u_i_1_1_status_base_panel.html#a0e1063de30098c46f053529ad2fd435f" target="_top" xlink:title=" ">
<polygon fill="white" stroke="#666666" points="680.5,-152.5 534,-152.5 534,-122 680.5,-122 680.5,-152.5"/>
<text text-anchor="start" x="542" y="-139" font-family="Helvetica,sans-Serif" font-size="10.00">Slic3r::GUI::StatusBasePanel</text>
<text text-anchor="middle" x="607.25" y="-127.75" font-family="Helvetica,sans-Serif" font-size="10.00">::create_temp_axis_group</text>
</a>
</g>
</g>
<!-- Node2&#45;&gt;Node3 -->
<g id="edge2_Node000002_Node000003" class="edge">
<title>Node2&#45;&gt;Node3</title>
<g id="a_edge2_Node000002_Node000003"><a xlink:title=" ">
<path fill="none" stroke="#63b8ff" d="M705.37,-137.25C697.14,-137.25 688.84,-137.25 680.74,-137.25"/>
<polygon fill="#63b8ff" stroke="#63b8ff" points="705.11,-140.75 715.11,-137.25 705.11,-133.75 705.11,-140.75"/>
</a>
</g>
</g>
<!-- Node4 -->
<g id="Node000004" class="node">
<title>Node4</title>
<g id="a_Node000004"><a xlink:href="../../df/d0e/class_slic3r_1_1_g_u_i_1_1_status_base_panel.html#a0baa565f8e170217afb8165ec1ff75bf" target="_top" xlink:title=" ">
<polygon fill="white" stroke="#666666" points="498,-164.5 346.25,-164.5 346.25,-134 498,-134 498,-164.5"/>
<text text-anchor="start" x="354.25" y="-151" font-family="Helvetica,sans-Serif" font-size="10.00">Slic3r::GUI::StatusBasePanel</text>
<text text-anchor="middle" x="422.12" y="-139.75" font-family="Helvetica,sans-Serif" font-size="10.00">::create_machine_control_page</text>
</a>
</g>
</g>
<!-- Node3&#45;&gt;Node4 -->
<g id="edge3_Node000003_Node000004" class="edge">
<title>Node3&#45;&gt;Node4</title>
<g id="a_edge3_Node000003_Node000004"><a xlink:title=" ">
<path fill="none" stroke="#63b8ff" d="M522.65,-142.73C514.56,-143.26 506.38,-143.79 498.38,-144.32"/>
<polygon fill="#63b8ff" stroke="#63b8ff" points="522.86,-146.16 532.61,-142.01 522.4,-139.17 522.86,-146.16"/>
</a>
</g>
</g>
<!-- Node5 -->
<g id="Node000005" class="node">
<title>Node5</title>
<g id="a_Node000005"><a xlink:href="../../df/d0e/class_slic3r_1_1_g_u_i_1_1_status_base_panel.html#ac5d4b9cc2f4dff8893ed27acd61e70be" target="_top" xlink:title=" ">
<polygon fill="white" stroke="#666666" points="310.25,-177.5 163.75,-177.5 163.75,-147 310.25,-147 310.25,-177.5"/>
<text text-anchor="start" x="171.75" y="-164" font-family="Helvetica,sans-Serif" font-size="10.00">Slic3r::GUI::StatusBasePanel</text>
<text text-anchor="middle" x="237" y="-152.75" font-family="Helvetica,sans-Serif" font-size="10.00">::StatusBasePanel</text>
</a>
</g>
</g>
<!-- Node4&#45;&gt;Node5 -->
<g id="edge4_Node000004_Node000005" class="edge">
<title>Node4&#45;&gt;Node5</title>
<g id="a_edge4_Node000004_Node000005"><a xlink:title=" ">
<path fill="none" stroke="#63b8ff" d="M335.13,-155.35C326.93,-155.94 318.68,-156.52 310.62,-157.09"/>
<polygon fill="#63b8ff" stroke="#63b8ff" points="335.12,-158.79 344.85,-154.59 334.63,-151.81 335.12,-158.79"/>
</a>
</g>
</g>
<!-- Node7 -->
<g id="Node000007" class="node">
<title>Node7</title>
<g id="a_Node000007"><a xlink:href="../../dc/dbb/class_slic3r_1_1_g_u_i_1_1_status_panel.html#a632623622b2983d0499e8cf47403dc85" target="_top" xlink:title=" ">
<polygon fill="white" stroke="#666666" points="669.25,-103.5 545.25,-103.5 545.25,-73 669.25,-73 669.25,-103.5"/>
<text text-anchor="start" x="553.25" y="-90" font-family="Helvetica,sans-Serif" font-size="10.00">Slic3r::GUI::StatusPanel</text>
<text text-anchor="middle" x="607.25" y="-78.75" font-family="Helvetica,sans-Serif" font-size="10.00">::update</text>
</a>
</g>
</g>
<!-- Node6&#45;&gt;Node7 -->
<g id="edge6_Node000006_Node000007" class="edge">
<title>Node6&#45;&gt;Node7</title>
<g id="a_edge6_Node000006_Node000007"><a xlink:title=" ">
<path fill="none" stroke="#63b8ff" d="M716.76,-88.25C701.19,-88.25 684.87,-88.25 669.75,-88.25"/>
<polygon fill="#63b8ff" stroke="#63b8ff" points="716.39,-91.75 726.39,-88.25 716.39,-84.75 716.39,-91.75"/>
</a>
</g>
</g>
<!-- Node8 -->
<g id="Node000008" class="node">
<title>Node8</title>
<g id="a_Node000008"><a xlink:href="../../d4/d77/class_slic3r_1_1_g_u_i_1_1_monitor_panel.html#ac5857bac9c8c7b48dcb28e3c43319429" target="_top" xlink:title=" ">
<polygon fill="white" stroke="#666666" points="486,-103.5 358.25,-103.5 358.25,-73 486,-73 486,-103.5"/>
<text text-anchor="start" x="366.25" y="-90" font-family="Helvetica,sans-Serif" font-size="10.00">Slic3r::GUI::MonitorPanel</text>
<text text-anchor="middle" x="422.12" y="-78.75" font-family="Helvetica,sans-Serif" font-size="10.00">::update_all</text>
</a>
</g>
</g>
<!-- Node7&#45;&gt;Node8 -->
<g id="edge7_Node000007_Node000008" class="edge">
<title>Node7&#45;&gt;Node8</title>
<g id="a_edge7_Node000007_Node000008"><a xlink:title=" ">
<path fill="none" stroke="#63b8ff" d="M534.01,-88.25C518.25,-88.25 501.7,-88.25 486.33,-88.25"/>
<polygon fill="#63b8ff" stroke="#63b8ff" points="533.76,-91.75 543.76,-88.25 533.76,-84.75 533.76,-91.75"/>
</a>
</g>
</g>
<!-- Node9 -->
<g id="Node000009" class="node">
<title>Node9</title>
<g id="a_Node000009"><a xlink:href="../../d4/d77/class_slic3r_1_1_g_u_i_1_1_monitor_panel.html#a4a4b54e8793dac1a3896d841720a181d" target="_top" xlink:title=" ">
<polygon fill="white" stroke="#666666" points="300.88,-128.5 173.12,-128.5 173.12,-98 300.88,-98 300.88,-128.5"/>
<text text-anchor="start" x="181.12" y="-115" font-family="Helvetica,sans-Serif" font-size="10.00">Slic3r::GUI::MonitorPanel</text>
<text text-anchor="middle" x="237" y="-103.75" font-family="Helvetica,sans-Serif" font-size="10.00">::on_select_printer</text>
</a>
</g>
</g>
<!-- Node8&#45;&gt;Node9 -->
<g id="edge8_Node000008_Node000009" class="edge">
<title>Node8&#45;&gt;Node9</title>
<g id="a_edge8_Node000008_Node000009"><a xlink:title=" ">
<path fill="none" stroke="#63b8ff" d="M346.96,-98.38C331.81,-100.44 316,-102.6 301.28,-104.61"/>
<polygon fill="#63b8ff" stroke="#63b8ff" points="347.41,-101.71 356.85,-96.89 346.47,-94.77 347.41,-101.71"/>
</a>
</g>
</g>
<!-- Node11 -->
<g id="Node000011" class="node">
<title>Node11</title>
<g id="a_Node000011"><a xlink:href="../../d4/d77/class_slic3r_1_1_g_u_i_1_1_monitor_panel.html#a9a3f829e5c74528bbed2aeb7dde9d7c8" target="_top" xlink:title=" ">
<polygon fill="white" stroke="#666666" points="300.88,-79.5 173.12,-79.5 173.12,-49 300.88,-49 300.88,-79.5"/>
<text text-anchor="start" x="181.12" y="-66" font-family="Helvetica,sans-Serif" font-size="10.00">Slic3r::GUI::MonitorPanel</text>
<text text-anchor="middle" x="237" y="-54.75" font-family="Helvetica,sans-Serif" font-size="10.00">::on_timer</text>
</a>
</g>
</g>
<!-- Node8&#45;&gt;Node11 -->
<g id="edge10_Node000008_Node000011" class="edge">
<title>Node8&#45;&gt;Node11</title>
<g id="a_edge10_Node000008_Node000011"><a xlink:title=" ">
<path fill="none" stroke="#63b8ff" d="M346.96,-78.53C331.81,-76.54 316,-74.47 301.28,-72.54"/>
<polygon fill="#63b8ff" stroke="#63b8ff" points="346.48,-82.13 356.85,-79.96 347.39,-75.19 346.48,-82.13"/>
</a>
</g>
</g>
<!-- Node12 -->
<g id="Node000012" class="node">
<title>Node12</title>
<g id="a_Node000012"><a xlink:href="../../d4/d77/class_slic3r_1_1_g_u_i_1_1_monitor_panel.html#ab8f0f8ec1e87a824d5ea56de7f5545f7" target="_top" xlink:title=" ">
<polygon fill="white" stroke="#666666" points="300.88,-30.5 173.12,-30.5 173.12,0 300.88,0 300.88,-30.5"/>
<text text-anchor="start" x="181.12" y="-17" font-family="Helvetica,sans-Serif" font-size="10.00">Slic3r::GUI::MonitorPanel</text>
<text text-anchor="middle" x="237" y="-5.75" font-family="Helvetica,sans-Serif" font-size="10.00">::on_update_all</text>
</a>
</g>
</g>
<!-- Node8&#45;&gt;Node12 -->
<g id="edge12_Node000008_Node000012" class="edge">
<title>Node8&#45;&gt;Node12</title>
<g id="a_edge12_Node000008_Node000012"><a xlink:title=" ">
<path fill="none" stroke="#63b8ff" d="M377.08,-68.27C356.87,-59.34 332.49,-48.9 310.25,-40.25 302.09,-37.08 293.33,-33.88 284.83,-30.88"/>
<polygon fill="#63b8ff" stroke="#63b8ff" points="375.38,-71.79 385.94,-72.66 378.22,-65.4 375.38,-71.79"/>
</a>
</g>
</g>
<!-- Node10 -->
<g id="Node000010" class="node">
<title>Node10</title>
<g id="a_Node000010"><a xlink:href="../../d4/d77/class_slic3r_1_1_g_u_i_1_1_monitor_panel.html#a13ffdb6797a54bb0643e430f242462ac" target="_top" xlink:title=" ">
<polygon fill="white" stroke="#666666" points="127.75,-103.5 0,-103.5 0,-73 127.75,-73 127.75,-103.5"/>
<text text-anchor="start" x="8" y="-90" font-family="Helvetica,sans-Serif" font-size="10.00">Slic3r::GUI::MonitorPanel</text>
<text text-anchor="middle" x="63.88" y="-78.75" font-family="Helvetica,sans-Serif" font-size="10.00">::MonitorPanel</text>
</a>
</g>
</g>
<!-- Node9&#45;&gt;Node10 -->
<g id="edge9_Node000009_Node000010" class="edge">
<title>Node9&#45;&gt;Node10</title>
<g id="a_edge9_Node000009_Node000010"><a xlink:title=" ">
<path fill="none" stroke="#63b8ff" d="M162.04,-102.45C150.75,-100.8 139.17,-99.1 128.14,-97.49"/>
<polygon fill="#63b8ff" stroke="#63b8ff" points="161.36,-106.03 171.77,-104.01 162.38,-99.1 161.36,-106.03"/>
</a>
</g>
</g>
<!-- Node11&#45;&gt;Node10 -->
<g id="edge11_Node000011_Node000010" class="edge">
<title>Node11&#45;&gt;Node10</title>
<g id="a_edge11_Node000011_Node000010"><a xlink:title=" ">
<path fill="none" stroke="#63b8ff" d="M162.04,-74.62C150.75,-76.21 139.17,-77.83 128.14,-79.38"/>
<polygon fill="#63b8ff" stroke="#63b8ff" points="162.35,-77.97 171.77,-73.12 161.38,-71.04 162.35,-77.97"/>
</a>
</g>
</g>
</g>
</svg>

<g id="navigator" transform="translate(0 0)" fill="#404254">
  <rect fill="#f2f5e9" fill-opacity="0.5" stroke="#606060" stroke-width=".5" x="0" y="0" width="60" height="60"/>
  <use id="zoomplus" xlink:href="#zoomPlus" x="17" y="9" onmousedown="handleZoom(evt,'in')"/>
  <use id="zoomminus" xlink:href="#zoomMin" x="42" y="9" onmousedown="handleZoom(evt,'out')"/>
  <use id="reset" xlink:href="#resetDef" x="30" y="36" onmousedown="handleReset()"/>
   <use id="arrowup" xlink:href="#arrowUp" x="0" y="0" onmousedown="handlePan(0,-1)"/>
  <use id="arrowright" xlink:href="#arrowRight" x="0" y="0" onmousedown="handlePan(1,0)"/>
  <use id="arrowdown" xlink:href="#arrowDown" x="0" y="0" onmousedown="handlePan(0,1)"/>
  <use id="arrowleft" xlink:href="#arrowLeft" x="0" y="0" onmousedown="handlePan(-1,0)"/>
</g>
<svg viewBox="0 0 15 15" width="100%" height="30px" preserveAspectRatio="xMaxYMin meet">
 <g id="arrow_out" transform="scale(0.3 0.3)">
  <a xlink:href="class_temp_input_a94fba41f2972d76f710826d933acab4b_icgraph_org.svg" target="_base">
   <rect id="button" ry="5" rx="5" y="6" x="6" height="38" width="38"
        fill="#f2f5e9" fill-opacity="0.5" stroke="#606060" stroke-width="1.0"/>
   <path id="arrow"
     d="M 11.500037,31.436501 C 11.940474,20.09759 22.043105,11.32322 32.158766,21.979434 L 37.068811,17.246167 C 37.068811,17.246167 37.088388,32 37.088388,32 L 22.160133,31.978069 C 22.160133,31.978069 26.997745,27.140456 26.997745,27.140456 C 18.528582,18.264221 13.291696,25.230495 11.500037,31.436501 z"
     style="fill:#404040;"/>
  </a>
 </g>
</svg>

<style type='text/css'>
<![CDATA[
[data-mouse-over-selected='false'] { opacity: 0.7; }
[data-mouse-over-selected='true']  { opacity: 1.0; }
]]>
</style>
<script type="application/ecmascript"><![CDATA[
document.addEventListener('DOMContentLoaded', (event) => {
  highlightEdges();
  highlightAdjacentNodes();
});
]]></script>
</svg>
