<?xml version="1.0" encoding="UTF-8" standalone="no"?>
<!DOCTYPE svg PUBLIC "-//W3C//DTD SVG 1.1//EN"
 "http://www.w3.org/Graphics/SVG/1.1/DTD/svg11.dtd">
<!-- Generated by graphviz version 8.1.0 (20230707.0739)
 -->
<!-- Title: hmesh_t::null_vertex Pages: 1 -->
<!--zoomable 606 -->

<svg id="main" version="1.1" xmlns="http://www.w3.org/2000/svg" xmlns:xlink="http://www.w3.org/1999/xlink" xml:space="preserve" onload="init(evt)">
<style type="text/css"><![CDATA[
.node, .edge {opacity: 0.7;}
.node.selected, .edge.selected {opacity: 1;}
.edge:hover path { stroke: red; }
.edge:hover polygon { stroke: red; fill: red; }
]]></style>

<defs>
  <circle id="rim" cx="0" cy="0" r="7"/>
  <circle id="rim2" cx="0" cy="0" r="3.5"/>
  <g id="zoomPlus">
    <use xlink:href="#rim" fill="#404040"><set attributeName="fill" to="#808080" begin="zoomplus.mouseover" end="zoomplus.mouseout"/></use>
    <path d="M-4,0h8M0,-4v8" fill="none" stroke="white" stroke-width="1.5" pointer-events="none"/>
  </g>
  <g id="zoomMin">
    <use xlink:href="#rim" fill="#404040"><set attributeName="fill" to="#808080" begin="zoomminus.mouseover" end="zoomminus.mouseout"/></use>
    <path d="M-4,0h8" fill="none" stroke="white" stroke-width="1.5" pointer-events="none"/>
  </g>
  <g id="arrowUp" transform="translate(30 24)">
    <use xlink:href="#rim"/>
    <path pointer-events="none" fill="none" stroke="white" stroke-width="1.5" d="M0,-3.0v7 M-2.5,-0.5L0,-3.0L2.5,-0.5"/>
  </g>
  <g id="arrowRight" transform="rotate(90) translate(36 -43)">
    <use xlink:href="#rim"/>
    <path pointer-events="none" fill="none" stroke="white" stroke-width="1.5" d="M0,-3.0v7 M-2.5,-0.5L0,-3.0L2.5,-0.5"/>
  </g>
  <g id="arrowDown" transform="rotate(180) translate(-30 -48)">
    <use xlink:href="#rim"/>
    <path pointer-events="none" fill="none" stroke="white" stroke-width="1.5" d="M0,-3.0v7 M-2.5,-0.5L0,-3.0L2.5,-0.5"/>
  </g>
  <g id="arrowLeft" transform="rotate(270) translate(-36 17)">
    <use xlink:href="#rim"/>
    <path pointer-events="none" fill="none" stroke="white" stroke-width="1.5" d="M0,-3.0v7 M-2.5,-0.5L0,-3.0L2.5,-0.5"/>
  </g>
  <g id="resetDef">
    <use xlink:href="#rim2" fill="#404040"><set attributeName="fill" to="#808080" begin="reset.mouseover" end="reset.mouseout"/></use>
  </g>
</defs>
<script type="application/ecmascript">
var viewWidth = 896;
var viewHeight = 606;
var sectionId = 'dynsection-63';
</script>
<script type="application/ecmascript" xlink:href="../../svg.min.js"/>
<svg id="graph" class="graph">
<g id="viewport">
<title>hmesh_t::null_vertex</title>
<!-- Node1 -->
<g id="Node000001" class="node">
<title>Node1</title>
<g id="a_Node000001"><a xlink:title=" ">
<polygon fill="#999999" stroke="#666666" points="888,-275.25 781.25,-275.25 781.25,-256 888,-256 888,-275.25"/>
<text text-anchor="middle" x="834.62" y="-261.75" font-family="Helvetica,sans-Serif" font-size="10.00">hmesh_t::null_vertex</text>
</a>
</g>
</g>
<!-- Node2 -->
<g id="Node000002" class="node">
<title>Node2</title>
<g id="a_Node000002"><a xlink:href="../../d7/d63/classhmesh__t.html#ae64649dd61e0c188c547c686abc8a19e" target="_top" xlink:title=" ">
<polygon fill="white" stroke="#666666" points="729.12,-408.25 627.62,-408.25 627.62,-389 729.12,-389 729.12,-408.25"/>
<text text-anchor="middle" x="678.38" y="-394.75" font-family="Helvetica,sans-Serif" font-size="10.00">hmesh_t::add_edge</text>
</a>
</g>
</g>
<!-- Node1&#45;&gt;Node2 -->
<g id="edge1_Node000001_Node000002" class="edge">
<title>Node1&#45;&gt;Node2</title>
<g id="a_edge1_Node000001_Node000002"><a xlink:title=" ">
<path fill="none" stroke="#63b8ff" d="M822.66,-284.75C807.94,-308.86 779.62,-350.12 745.25,-374.62 737.02,-380.49 727.21,-385.08 717.7,-388.59"/>
<polygon fill="#63b8ff" stroke="#63b8ff" points="826.02,-286.95 828.12,-276.56 820,-283.37 826.02,-286.95"/>
</a>
</g>
</g>
<!-- Node3 -->
<g id="Node000003" class="node">
<title>Node3</title>
<g id="a_Node000003"><a xlink:href="../../d7/d63/classhmesh__t.html#a2784844d96e3180300014869148d7577" target="_top" xlink:title=" ">
<polygon fill="white" stroke="#666666" points="563.12,-370.25 463.88,-370.25 463.88,-351 563.12,-351 563.12,-370.25"/>
<text text-anchor="middle" x="513.5" y="-356.75" font-family="Helvetica,sans-Serif" font-size="10.00">hmesh_t::add_face</text>
</a>
</g>
</g>
<!-- Node1&#45;&gt;Node3 -->
<g id="edge16_Node000001_Node000003" class="edge">
<title>Node1&#45;&gt;Node3</title>
<g id="a_edge16_Node000001_Node000003"><a xlink:title=" ">
<path fill="none" stroke="#63b8ff" d="M817.9,-283.09C801.56,-299.96 774.34,-324.66 745.25,-336.62 686.02,-360.99 611.35,-364.34 563.27,-363.39"/>
<polygon fill="#63b8ff" stroke="#63b8ff" points="819.71,-286.21 824.01,-276.52 814.61,-281.41 819.71,-286.21"/>
</a>
</g>
</g>
<!-- Node4 -->
<g id="Node000004" class="node">
<title>Node4</title>
<g id="a_Node000004"><a xlink:href="../../d2/dc3/preproc_8cpp.html#a18198b31e87d334b2666f1fac7d0f474" target="_top" xlink:title=" ">
<polygon fill="white" stroke="#666666" points="394.12,-294.88 296.38,-294.88 296.38,-264.38 394.12,-264.38 394.12,-294.88"/>
<text text-anchor="start" x="304.38" y="-281.38" font-family="Helvetica,sans-Serif" font-size="10.00">client_input_arrays</text>
<text text-anchor="middle" x="345.25" y="-270.12" font-family="Helvetica,sans-Serif" font-size="10.00">_to_hmesh</text>
</a>
</g>
</g>
<!-- Node1&#45;&gt;Node4 -->
<g id="edge18_Node000001_Node000004" class="edge">
<title>Node1&#45;&gt;Node4</title>
<g id="a_edge18_Node000001_Node000004"><a xlink:title=" ">
<path fill="none" stroke="#63b8ff" d="M770.28,-267.44C671.46,-270.28 482.79,-275.7 394.3,-278.24"/>
<polygon fill="#63b8ff" stroke="#63b8ff" points="770.11,-270.92 780,-267.14 769.91,-263.93 770.11,-270.92"/>
</a>
</g>
</g>
<!-- Node6 -->
<g id="Node000006" class="node">
<title>Node6</title>
<g id="a_Node000006"><a xlink:href="../../dd/d24/kernel_8cpp.html#a16c30c80a68a0e6cab12250e5cd7b0d6" target="_top" xlink:title=" ">
<polygon fill="white" stroke="#666666" points="371.62,-445.25 318.88,-445.25 318.88,-426 371.62,-426 371.62,-445.25"/>
<text text-anchor="middle" x="345.25" y="-431.75" font-family="Helvetica,sans-Serif" font-size="10.00">dispatch</text>
</a>
</g>
</g>
<!-- Node1&#45;&gt;Node6 -->
<g id="edge19_Node000001_Node000006" class="edge">
<title>Node1&#45;&gt;Node6</title>
<g id="a_edge19_Node000001_Node000006"><a xlink:title=" ">
<path fill="none" stroke="#63b8ff" d="M828.38,-286.24C818.51,-320.27 793.68,-387.44 745.25,-417.62 624.03,-493.18 439.54,-458.79 372.09,-442.48"/>
<polygon fill="#63b8ff" stroke="#63b8ff" points="832,-287.27 831.26,-276.7 825.24,-285.43 832,-287.27"/>
</a>
</g>
</g>
<!-- Node7 -->
<g id="Node000007" class="node">
<title>Node7</title>
<g id="a_Node000007"><a xlink:href="../../dd/d24/kernel_8cpp.html#a34276907046e706af5626787b2e2b05a" target="_top" xlink:title=" ">
<polygon fill="white" stroke="#666666" points="239,-332.25 84.25,-332.25 84.25,-313 239,-313 239,-332.25"/>
<text text-anchor="middle" x="161.62" y="-318.75" font-family="Helvetica,sans-Serif" font-size="10.00">extract_connected_components</text>
</a>
</g>
</g>
<!-- Node1&#45;&gt;Node7 -->
<g id="edge20_Node000001_Node000007" class="edge">
<title>Node1&#45;&gt;Node7</title>
<g id="a_edge20_Node000001_Node000007"><a xlink:title=" ">
<path fill="none" stroke="#63b8ff" d="M779.6,-277.82C768.3,-280.04 756.42,-282.12 745.25,-283.62 564.91,-307.92 351.02,-317.32 239.3,-320.77"/>
<polygon fill="#63b8ff" stroke="#63b8ff" points="780.11,-281.09 789.22,-275.67 778.72,-274.23 780.11,-281.09"/>
</a>
</g>
</g>
<!-- Node10 -->
<g id="Node000010" class="node">
<title>Node10</title>
<g id="a_Node000010"><a xlink:href="../../d2/d04/frontend_8cpp.html#a4de546cf7a2b29bc15c650ac230d0706" target="_top" xlink:title=" ">
<polygon fill="white" stroke="#666666" points="387.75,-132.25 302.75,-132.25 302.75,-113 387.75,-113 387.75,-132.25"/>
<text text-anchor="middle" x="345.25" y="-118.75" font-family="Helvetica,sans-Serif" font-size="10.00">triangulate_face</text>
</a>
</g>
</g>
<!-- Node1&#45;&gt;Node10 -->
<g id="edge41_Node000001_Node000010" class="edge">
<title>Node1&#45;&gt;Node10</title>
<g id="a_edge41_Node000001_Node000010"><a xlink:title=" ">
<path fill="none" stroke="#63b8ff" d="M823.62,-245.99C809.75,-221.09 782.18,-179.04 745.25,-159.62 627.95,-97.94 464.28,-107.57 388.21,-116.54"/>
<polygon fill="#63b8ff" stroke="#63b8ff" points="820.9,-247.34 828.71,-254.5 827.08,-244.03 820.9,-247.34"/>
</a>
</g>
</g>
<!-- Node12 -->
<g id="Node000012" class="node">
<title>Node12</title>
<g id="a_Node000012"><a xlink:href="../../d7/d63/classhmesh__t.html#a6454b0bb0795f992d113623d852ce8e4" target="_top" xlink:title=" ">
<polygon fill="white" stroke="#666666" points="732.12,-56.25 624.62,-56.25 624.62,-37 732.12,-37 732.12,-56.25"/>
<text text-anchor="middle" x="678.38" y="-42.75" font-family="Helvetica,sans-Serif" font-size="10.00">hmesh_t::add_vertex</text>
</a>
</g>
</g>
<!-- Node1&#45;&gt;Node12 -->
<g id="edge17_Node000001_Node000012" class="edge">
<title>Node1&#45;&gt;Node12</title>
<g id="a_edge17_Node000001_Node000012"><a xlink:title=" ">
<path fill="none" stroke="#63b8ff" d="M829.77,-244.89C821.39,-205.48 797.88,-119.39 745.25,-70.62 738.73,-64.59 730.58,-60.04 722.24,-56.62"/>
<polygon fill="#63b8ff" stroke="#63b8ff" points="826.5,-245.41 831.9,-254.52 833.37,-244.03 826.5,-245.41"/>
</a>
</g>
</g>
<!-- Node13 -->
<g id="Node000013" class="node">
<title>Node13</title>
<g id="a_Node000013"><a xlink:href="../../d7/d63/classhmesh__t.html#a3ea06ff1ab141d57223eb28cfba1bb26" target="_top" xlink:title=" ">
<polygon fill="white" stroke="#666666" points="738.5,-218.88 618.25,-218.88 618.25,-188.38 738.5,-188.38 738.5,-218.88"/>
<text text-anchor="start" x="626.25" y="-205.38" font-family="Helvetica,sans-Serif" font-size="10.00">hmesh_t::get_halfedges</text>
<text text-anchor="middle" x="678.38" y="-194.12" font-family="Helvetica,sans-Serif" font-size="10.00">_around_vertex</text>
</a>
</g>
</g>
<!-- Node1&#45;&gt;Node13 -->
<g id="edge21_Node000001_Node000013" class="edge">
<title>Node1&#45;&gt;Node13</title>
<g id="a_edge21_Node000001_Node000013"><a xlink:title=" ">
<path fill="none" stroke="#63b8ff" d="M798.46,-251.49C774.59,-241.89 743.01,-229.2 718.37,-219.3"/>
<polygon fill="#63b8ff" stroke="#63b8ff" points="796.91,-255.04 807.5,-255.53 799.53,-248.55 796.91,-255.04"/>
</a>
</g>
</g>
<!-- Node14 -->
<g id="Node000014" class="node">
<title>Node14</title>
<g id="a_Node000014"><a xlink:href="../../d7/d63/classhmesh__t.html#ae892c101bd2816b0e18cf2e0405c16cb" target="_top" xlink:title=" ">
<polygon fill="white" stroke="#666666" points="569.88,-199.88 457.12,-199.88 457.12,-169.38 569.88,-169.38 569.88,-199.88"/>
<text text-anchor="start" x="465.12" y="-186.38" font-family="Helvetica,sans-Serif" font-size="10.00">hmesh_t::get_vertices</text>
<text text-anchor="middle" x="513.5" y="-175.12" font-family="Helvetica,sans-Serif" font-size="10.00">_around_vertex</text>
</a>
</g>
</g>
<!-- Node1&#45;&gt;Node14 -->
<g id="edge30_Node000001_Node000014" class="edge">
<title>Node1&#45;&gt;Node14</title>
<g id="a_edge30_Node000001_Node000014"><a xlink:title=" ">
<path fill="none" stroke="#63b8ff" d="M821.15,-246.73C806.05,-225.76 778.47,-193.12 745.25,-179.62 689.01,-156.78 618.52,-162.72 570.34,-171.38"/>
<polygon fill="#63b8ff" stroke="#63b8ff" points="818.78,-248.46 827.36,-254.69 824.54,-244.47 818.78,-248.46"/>
</a>
</g>
</g>
<!-- Node18 -->
<g id="Node000018" class="node">
<title>Node18</title>
<g id="a_Node000018"><a xlink:href="../../d7/d63/classhmesh__t.html#ae9c2b25e3adc2f05a95f7ad8f8987c03" target="_top" xlink:title=" ">
<polygon fill="white" stroke="#666666" points="569.88,-253.88 457.12,-253.88 457.12,-223.38 569.88,-223.38 569.88,-253.88"/>
<text text-anchor="start" x="465.12" y="-240.38" font-family="Helvetica,sans-Serif" font-size="10.00">hmesh_t::get_vertices</text>
<text text-anchor="middle" x="513.5" y="-229.12" font-family="Helvetica,sans-Serif" font-size="10.00">_around_vertex</text>
</a>
</g>
</g>
<!-- Node1&#45;&gt;Node18 -->
<g id="edge31_Node000001_Node000018" class="edge">
<title>Node1&#45;&gt;Node18</title>
<g id="a_edge31_Node000001_Node000018"><a xlink:title=" ">
<path fill="none" stroke="#63b8ff" d="M769.99,-260.24C711.61,-255.3 625.97,-248.06 570.23,-243.34"/>
<polygon fill="#63b8ff" stroke="#63b8ff" points="769.67,-263.81 779.93,-261.17 770.26,-256.84 769.67,-263.81"/>
</a>
</g>
</g>
<!-- Node19 -->
<g id="Node000019" class="node">
<title>Node19</title>
<g id="a_Node000019"><a xlink:href="../../d7/d63/classhmesh__t.html#a223ecae2e3f3ea421ef2131f4448b10e" target="_top" xlink:title=" ">
<polygon fill="white" stroke="#666666" points="570.62,-94.25 456.38,-94.25 456.38,-75 570.62,-75 570.62,-94.25"/>
<text text-anchor="middle" x="513.5" y="-80.75" font-family="Helvetica,sans-Serif" font-size="10.00">hmesh_t::is_insertable</text>
</a>
</g>
</g>
<!-- Node1&#45;&gt;Node19 -->
<g id="edge32_Node000001_Node000019" class="edge">
<title>Node1&#45;&gt;Node19</title>
<g id="a_edge32_Node000001_Node000019"><a xlink:title=" ">
<path fill="none" stroke="#63b8ff" d="M828.74,-245.48C819.2,-210.94 794.58,-141.01 745.25,-108.62 693.57,-74.7 620.9,-72.83 571,-76.77"/>
<polygon fill="#63b8ff" stroke="#63b8ff" points="825.5,-245.94 831.41,-254.73 832.28,-244.17 825.5,-245.94"/>
</a>
</g>
</g>
<!-- Node20 -->
<g id="Node000020" class="node">
<title>Node20</title>
<g id="a_Node000020"><a xlink:href="../../d7/d63/classhmesh__t.html#a48df3032e7abedf53c8ba222491053fb" target="_top" xlink:title=" ">
<polygon fill="white" stroke="#666666" points="745.25,-522.25 611.5,-522.25 611.5,-503 745.25,-503 745.25,-522.25"/>
<text text-anchor="middle" x="678.38" y="-508.75" font-family="Helvetica,sans-Serif" font-size="10.00">hmesh_t::remove_halfedge</text>
</a>
</g>
</g>
<!-- Node1&#45;&gt;Node20 -->
<g id="edge34_Node000001_Node000020" class="edge">
<title>Node1&#45;&gt;Node20</title>
<g id="a_edge34_Node000001_Node000020"><a xlink:title=" ">
<path fill="none" stroke="#63b8ff" d="M831.12,-286.3C824.79,-329.76 804.2,-431.3 745.25,-488.62 739.05,-494.65 731.23,-499.18 723.15,-502.58"/>
<polygon fill="#63b8ff" stroke="#63b8ff" points="834.69,-287.04 832.55,-276.66 827.75,-286.11 834.69,-287.04"/>
</a>
</g>
</g>
<!-- Node23 -->
<g id="Node000023" class="node">
<title>Node23</title>
<g id="a_Node000023"><a xlink:href="../../d7/d63/classhmesh__t.html#ac9306fce5d55a5a01986697a3cef38e3" target="_top" xlink:title=" ">
<polygon fill="white" stroke="#666666" points="575.5,-598.25 451.5,-598.25 451.5,-579 575.5,-579 575.5,-598.25"/>
<text text-anchor="middle" x="513.5" y="-584.75" font-family="Helvetica,sans-Serif" font-size="10.00">hmesh_t::remove_vertex</text>
</a>
</g>
</g>
<!-- Node1&#45;&gt;Node23 -->
<g id="edge39_Node000001_Node000023" class="edge">
<title>Node1&#45;&gt;Node23</title>
<g id="a_edge39_Node000001_Node000023"><a xlink:title=" ">
<path fill="none" stroke="#63b8ff" d="M833.17,-286.31C830.89,-336.29 817.88,-464.49 745.25,-531.62 699.42,-573.99 627.19,-586.19 575.76,-589.08"/>
<polygon fill="#63b8ff" stroke="#63b8ff" points="836.69,-286.73 833.54,-276.62 829.69,-286.49 836.69,-286.73"/>
</a>
</g>
</g>
<!-- Node24 -->
<g id="Node000024" class="node">
<title>Node24</title>
<g id="a_Node000024"><a xlink:href="../../d7/d63/classhmesh__t.html#a636b431e89a067981216157bc5cd3610" target="_top" xlink:title=" ">
<polygon fill="white" stroke="#666666" points="721.62,-19.25 635.12,-19.25 635.12,0 721.62,0 721.62,-19.25"/>
<text text-anchor="middle" x="678.38" y="-5.75" font-family="Helvetica,sans-Serif" font-size="10.00">hmesh_t::vertex</text>
</a>
</g>
</g>
<!-- Node1&#45;&gt;Node24 -->
<g id="edge42_Node000001_Node000024" class="edge">
<title>Node1&#45;&gt;Node24</title>
<g id="a_edge42_Node000001_Node000024"><a xlink:title=" ">
<path fill="none" stroke="#63b8ff" d="M832.13,-245.06C827.66,-199.05 810.33,-87.16 745.25,-27.62 738.78,-21.7 730.54,-17.7 722.1,-15"/>
<polygon fill="#63b8ff" stroke="#63b8ff" points="828.71,-245.07 833.05,-254.74 835.68,-244.47 828.71,-245.07"/>
</a>
</g>
</g>
<!-- Node2&#45;&gt;Node3 -->
<g id="edge2_Node000002_Node000003" class="edge">
<title>Node2&#45;&gt;Node3</title>
<g id="a_edge2_Node000002_Node000003"><a xlink:title=" ">
<path fill="none" stroke="#63b8ff" d="M623.58,-386.08C602.17,-381.08 577.86,-375.41 557.64,-370.69"/>
<polygon fill="#63b8ff" stroke="#63b8ff" points="622.62,-389.68 633.16,-388.54 624.21,-382.86 622.62,-389.68"/>
</a>
</g>
</g>
<!-- Node2&#45;&gt;Node6 -->
<g id="edge14_Node000002_Node000006" class="edge">
<title>Node2&#45;&gt;Node6</title>
<g id="a_edge14_Node000002_Node000006"><a xlink:title=" ">
<path fill="none" stroke="#63b8ff" d="M616.69,-404.79C571.2,-409.48 507.42,-416.2 451.5,-422.62 424.25,-425.76 393.06,-429.65 371.76,-432.35"/>
<polygon fill="#63b8ff" stroke="#63b8ff" points="616.96,-408.18 626.55,-403.67 616.25,-401.21 616.96,-408.18"/>
</a>
</g>
</g>
<!-- Node9 -->
<g id="Node000009" class="node">
<title>Node9</title>
<g id="a_Node000009"><a xlink:href="../../d2/dc3/preproc_8cpp.html#a517c1bee245e62750685909d2e829203" target="_top" xlink:title=" ">
<polygon fill="white" stroke="#666666" points="409.5,-482.25 281,-482.25 281,-463 409.5,-463 409.5,-482.25"/>
<text text-anchor="middle" x="345.25" y="-468.75" font-family="Helvetica,sans-Serif" font-size="10.00">resolve_floating_polygons</text>
</a>
</g>
</g>
<!-- Node2&#45;&gt;Node9 -->
<g id="edge15_Node000002_Node000009" class="edge">
<title>Node2&#45;&gt;Node9</title>
<g id="a_edge15_Node000002_Node000009"><a xlink:title=" ">
<path fill="none" stroke="#63b8ff" d="M624.64,-411.23C608.85,-414.95 591.48,-419 575.5,-422.62 512.73,-436.86 440.12,-452.57 393.72,-462.51"/>
<polygon fill="#63b8ff" stroke="#63b8ff" points="625.36,-414.42 634.28,-408.71 623.74,-407.6 625.36,-414.42"/>
</a>
</g>
</g>
<!-- Node3&#45;&gt;Node4 -->
<g id="edge3_Node000003_Node000004" class="edge">
<title>Node3&#45;&gt;Node4</title>
<g id="a_edge3_Node000003_Node000004"><a xlink:title=" ">
<path fill="none" stroke="#63b8ff" d="M482.05,-345.79C452.66,-331.47 408.32,-309.87 378.37,-295.28"/>
<polygon fill="#63b8ff" stroke="#63b8ff" points="480.26,-349.3 490.78,-350.53 483.32,-343 480.26,-349.3"/>
</a>
</g>
</g>
<!-- Node3&#45;&gt;Node6 -->
<g id="edge5_Node000003_Node000006" class="edge">
<title>Node3&#45;&gt;Node6</title>
<g id="a_edge5_Node000003_Node000006"><a xlink:title=" ">
<path fill="none" stroke="#63b8ff" d="M470.29,-374.87C463.8,-377.73 457.33,-380.98 451.5,-384.62 433.09,-396.12 434.57,-407.25 415.5,-417.62 402.08,-424.93 385.57,-429.37 372.03,-432.01"/>
<polygon fill="#63b8ff" stroke="#63b8ff" points="471.48,-377.76 479.4,-370.72 468.82,-371.28 471.48,-377.76"/>
</a>
</g>
</g>
<!-- Node3&#45;&gt;Node7 -->
<g id="edge7_Node000003_Node000007" class="edge">
<title>Node3&#45;&gt;Node7</title>
<g id="a_edge7_Node000003_Node000007"><a xlink:title=" ">
<path fill="none" stroke="#63b8ff" d="M452.97,-355C404.9,-350.36 335.56,-343.46 275,-336.62 263.47,-335.32 251.29,-333.88 239.37,-332.43"/>
<polygon fill="#63b8ff" stroke="#63b8ff" points="452.51,-358.56 462.79,-356.04 453.18,-351.6 452.51,-358.56"/>
</a>
</g>
</g>
<!-- Node8 -->
<g id="Node000008" class="node">
<title>Node8</title>
<g id="a_Node000008"><a xlink:href="../../d2/d4a/hmesh_8cpp.html#a92ca4a7d83ad65bf32707be4d7e5e7b9" target="_top" xlink:title=" ">
<polygon fill="white" stroke="#666666" points="370.88,-408.25 319.62,-408.25 319.62,-389 370.88,-389 370.88,-408.25"/>
<text text-anchor="middle" x="345.25" y="-394.75" font-family="Helvetica,sans-Serif" font-size="10.00">read_off</text>
</a>
</g>
</g>
<!-- Node3&#45;&gt;Node8 -->
<g id="edge8_Node000003_Node000008" class="edge">
<title>Node3&#45;&gt;Node8</title>
<g id="a_edge8_Node000003_Node000008"><a xlink:title=" ">
<path fill="none" stroke="#63b8ff" d="M457.85,-373.12C428.51,-379.82 393.78,-387.76 370.95,-392.98"/>
<polygon fill="#63b8ff" stroke="#63b8ff" points="458.42,-376.35 467.38,-370.71 456.86,-369.52 458.42,-376.35"/>
</a>
</g>
</g>
<!-- Node3&#45;&gt;Node9 -->
<g id="edge9_Node000003_Node000009" class="edge">
<title>Node3&#45;&gt;Node9</title>
<g id="a_edge9_Node000003_Node000009"><a xlink:title=" ">
<path fill="none" stroke="#63b8ff" d="M495.32,-378.22C470.04,-403.96 424.82,-449.39 415.5,-454.62 409.87,-457.79 403.67,-460.41 397.36,-462.58"/>
<polygon fill="#63b8ff" stroke="#63b8ff" points="497.25,-381.23 501.75,-371.63 492.25,-376.33 497.25,-381.23"/>
</a>
</g>
</g>
<!-- Node3&#45;&gt;Node10 -->
<g id="edge11_Node000003_Node000010" class="edge">
<title>Node3&#45;&gt;Node10</title>
<g id="a_edge11_Node000003_Node000010"><a xlink:title=" ">
<path fill="none" stroke="#63b8ff" d="M499.12,-341.82C485.84,-322.59 465.49,-291.5 451.5,-262.62 430.9,-220.11 445.8,-198.87 415.5,-162.62 404.28,-149.2 387.33,-139.3 373.01,-132.71"/>
<polygon fill="#63b8ff" stroke="#63b8ff" points="496.75,-343.54 505.35,-349.73 502.49,-339.53 496.75,-343.54"/>
</a>
</g>
</g>
<!-- Node5 -->
<g id="Node000005" class="node">
<title>Node5</title>
<g id="a_Node000005"><a xlink:href="../../d2/dc3/preproc_8cpp.html#a9d73a526e4932e817cbedfdae5ec93a6" target="_top" xlink:title=" ">
<polygon fill="white" stroke="#666666" points="48.25,-350.25 0,-350.25 0,-331 48.25,-331 48.25,-350.25"/>
<text text-anchor="middle" x="24.12" y="-336.75" font-family="Helvetica,sans-Serif" font-size="10.00">preproc</text>
</a>
</g>
</g>
<!-- Node4&#45;&gt;Node5 -->
<g id="edge4_Node000004_Node000005" class="edge">
<title>Node4&#45;&gt;Node5</title>
<g id="a_edge4_Node000004_Node000005"><a xlink:title=" ">
<path fill="none" stroke="#63b8ff" d="M285.2,-277.39C231.43,-277.13 150.55,-281.24 84.25,-303.62 66.58,-309.59 48.77,-321.77 37.39,-330.53"/>
<polygon fill="#63b8ff" stroke="#63b8ff" points="284.87,-280.89 294.91,-277.5 284.95,-273.89 284.87,-280.89"/>
</a>
</g>
</g>
<!-- Node6&#45;&gt;Node5 -->
<g id="edge6_Node000006_Node000005" class="edge">
<title>Node6&#45;&gt;Node5</title>
<g id="a_edge6_Node000006_Node000005"><a xlink:title=" ">
<path fill="none" stroke="#63b8ff" d="M307.89,-426.5C297.26,-423.74 285.64,-420.65 275,-417.62 191.16,-393.82 92.52,-362.41 48.45,-348.19"/>
<polygon fill="#63b8ff" stroke="#63b8ff" points="306.97,-430.13 317.52,-429.23 308.71,-423.35 306.97,-430.13"/>
</a>
</g>
</g>
<!-- Node9&#45;&gt;Node5 -->
<g id="edge10_Node000009_Node000005" class="edge">
<title>Node9&#45;&gt;Node5</title>
<g id="a_edge10_Node000009_Node000005"><a xlink:title=" ">
<path fill="none" stroke="#63b8ff" d="M270.14,-460.87C215.94,-449.98 142.09,-430.26 84.25,-396.62 62.98,-384.26 43.31,-362.83 32.89,-350.37"/>
<polygon fill="#63b8ff" stroke="#63b8ff" points="269.22,-464.45 279.71,-462.93 270.56,-457.58 269.22,-464.45"/>
</a>
</g>
</g>
<!-- Node11 -->
<g id="Node000011" class="node">
<title>Node11</title>
<g id="a_Node000011"><a xlink:href="../../d2/d04/frontend_8cpp.html#aa288e6f6cda1cd3b3abb157c7f520c8d" target="_top" xlink:title=" ">
<polygon fill="white" stroke="#666666" points="228.12,-137.88 95.12,-137.88 95.12,-107.38 228.12,-107.38 228.12,-137.88"/>
<text text-anchor="start" x="103.12" y="-124.38" font-family="Helvetica,sans-Serif" font-size="10.00">get_connected_component</text>
<text text-anchor="middle" x="161.62" y="-113.12" font-family="Helvetica,sans-Serif" font-size="10.00">_data_impl_detail</text>
</a>
</g>
</g>
<!-- Node10&#45;&gt;Node11 -->
<g id="edge12_Node000010_Node000011" class="edge">
<title>Node10&#45;&gt;Node11</title>
<g id="a_edge12_Node000010_Node000011"><a xlink:title=" ">
<path fill="none" stroke="#63b8ff" d="M291.62,-122.62C271.85,-122.62 249.12,-122.62 228.31,-122.62"/>
<polygon fill="#63b8ff" stroke="#63b8ff" points="291.58,-126.13 301.58,-122.62 291.58,-119.13 291.58,-126.13"/>
</a>
</g>
</g>
<!-- Node11&#45;&gt;Node11 -->
<g id="edge13_Node000011_Node000011" class="edge">
<title>Node11&#45;&gt;Node11</title>
<g id="a_edge13_Node000011_Node000011"><a xlink:title=" ">
<path fill="none" stroke="#63b8ff" d="M185,-149.25C181.35,-153.2 173.56,-155.88 161.62,-155.88 140.41,-155.88 132.29,-147.43 137.26,-138.36"/>
<polygon fill="#63b8ff" stroke="#63b8ff" points="188.57,-149.64 185.99,-139.36 181.6,-149 188.57,-149.64"/>
</a>
</g>
</g>
<!-- Node13&#45;&gt;Node14 -->
<g id="edge22_Node000013_Node000014" class="edge">
<title>Node13&#45;&gt;Node14</title>
<g id="a_edge22_Node000013_Node000014"><a xlink:title=" ">
<path fill="none" stroke="#63b8ff" d="M607.33,-195.45C594.91,-194.01 582.14,-192.52 570.19,-191.12"/>
<polygon fill="#63b8ff" stroke="#63b8ff" points="606.77,-199.03 617.11,-196.71 607.59,-192.08 606.77,-199.03"/>
</a>
</g>
</g>
<!-- Node13&#45;&gt;Node18 -->
<g id="edge29_Node000013_Node000018" class="edge">
<title>Node13&#45;&gt;Node18</title>
<g id="a_edge29_Node000013_Node000018"><a xlink:title=" ">
<path fill="none" stroke="#63b8ff" d="M607.7,-218.6C595.17,-221.29 582.26,-224.06 570.19,-226.66"/>
<polygon fill="#63b8ff" stroke="#63b8ff" points="608.07,-221.88 617.11,-216.36 606.6,-215.04 608.07,-221.88"/>
</a>
</g>
</g>
<!-- Node15 -->
<g id="Node000015" class="node">
<title>Node15</title>
<g id="a_Node000015"><a xlink:href="../../dd/d24/kernel_8cpp.html#a46e2380a93538369c59261853c0921ab" target="_top" xlink:title=" ">
<polygon fill="white" stroke="#666666" points="367.88,-228.25 322.62,-228.25 322.62,-209 367.88,-209 367.88,-228.25"/>
<text text-anchor="middle" x="345.25" y="-214.75" font-family="Helvetica,sans-Serif" font-size="10.00">dfs_cc</text>
</a>
</g>
</g>
<!-- Node14&#45;&gt;Node15 -->
<g id="edge23_Node000014_Node000015" class="edge">
<title>Node14&#45;&gt;Node15</title>
<g id="a_edge23_Node000014_Node000015"><a xlink:title=" ">
<path fill="none" stroke="#63b8ff" d="M446.17,-198.19C418.36,-203.88 387.92,-210.1 368.04,-214.17"/>
<polygon fill="#63b8ff" stroke="#63b8ff" points="446.58,-201.47 455.68,-196.04 445.18,-194.62 446.58,-201.47"/>
</a>
</g>
</g>
<!-- Node16 -->
<g id="Node000016" class="node">
<title>Node16</title>
<g id="a_Node000016"><a xlink:href="../../dd/d24/kernel_8cpp.html#aa563464e84f5a01cf43a91cc350fd920" target="_top" xlink:title=" ">
<polygon fill="white" stroke="#666666" points="415.5,-191.25 275,-191.25 275,-172 415.5,-172 415.5,-191.25"/>
<text text-anchor="middle" x="345.25" y="-177.75" font-family="Helvetica,sans-Serif" font-size="10.00">find_connected_components</text>
</a>
</g>
</g>
<!-- Node14&#45;&gt;Node16 -->
<g id="edge25_Node000014_Node000016" class="edge">
<title>Node14&#45;&gt;Node16</title>
<g id="a_edge25_Node000014_Node000016"><a xlink:title=" ">
<path fill="none" stroke="#63b8ff" d="M445.73,-183.42C435.88,-183.24 425.71,-183.06 415.8,-182.88"/>
<polygon fill="#63b8ff" stroke="#63b8ff" points="445.62,-186.94 455.68,-183.62 445.74,-179.94 445.62,-186.94"/>
</a>
</g>
</g>
<!-- Node15&#45;&gt;Node15 -->
<g id="edge24_Node000015_Node000015" class="edge">
<title>Node15&#45;&gt;Node15</title>
<g id="a_edge24_Node000015_Node000015"><a xlink:title=" ">
<path fill="none" stroke="#63b8ff" d="M376.16,-233.37C379.58,-240.24 369.28,-246.25 345.25,-246.25 313.21,-246.25 305.58,-235.56 322.35,-226.4"/>
<polygon fill="#63b8ff" stroke="#63b8ff" points="378.99,-230.33 369.15,-226.4 374.4,-235.61 378.99,-230.33"/>
</a>
</g>
</g>
<!-- Node16&#45;&gt;Node7 -->
<g id="edge28_Node000016_Node000007" class="edge">
<title>Node16&#45;&gt;Node7</title>
<g id="a_edge28_Node000016_Node000007"><a xlink:title=" ">
<path fill="none" stroke="#63b8ff" d="M281.86,-195.93C279.49,-197.07 277.2,-198.3 275,-199.62 261.99,-207.46 194.71,-285.21 170.95,-312.9"/>
<polygon fill="#63b8ff" stroke="#63b8ff" points="283,-198.83 290.87,-191.74 280.29,-192.37 283,-198.83"/>
</a>
</g>
</g>
<!-- Node17 -->
<g id="Node000017" class="node">
<title>Node17</title>
<g id="a_Node000017"><a xlink:href="../../d2/dc3/preproc_8cpp.html#a8d13f2d4b1a3dc46b090f2fe770ee189" target="_top" xlink:title=" ">
<polygon fill="white" stroke="#666666" points="210.5,-224.25 112.75,-224.25 112.75,-205 210.5,-205 210.5,-224.25"/>
<text text-anchor="middle" x="161.62" y="-210.75" font-family="Helvetica,sans-Serif" font-size="10.00">check_input_mesh</text>
</a>
</g>
</g>
<!-- Node16&#45;&gt;Node17 -->
<g id="edge26_Node000016_Node000017" class="edge">
<title>Node16&#45;&gt;Node17</title>
<g id="a_edge26_Node000016_Node000017"><a xlink:title=" ">
<path fill="none" stroke="#63b8ff" d="M278.03,-193.66C255.74,-197.71 231.32,-202.14 210.71,-205.89"/>
<polygon fill="#63b8ff" stroke="#63b8ff" points="278.56,-196.94 287.77,-191.71 277.3,-190.05 278.56,-196.94"/>
</a>
</g>
</g>
<!-- Node17&#45;&gt;Node5 -->
<g id="edge27_Node000017_Node000005" class="edge">
<title>Node17&#45;&gt;Node5</title>
<g id="a_edge27_Node000017_Node000005"><a xlink:title=" ">
<path fill="none" stroke="#63b8ff" d="M134.22,-230.31C118.84,-240.07 99.53,-253.44 84.25,-267.62 62.5,-287.82 41.79,-316.2 31.64,-330.92"/>
<polygon fill="#63b8ff" stroke="#63b8ff" points="135.56,-232.97 142.21,-224.73 131.87,-227.03 135.56,-232.97"/>
</a>
</g>
</g>
<!-- Node19&#45;&gt;Node10 -->
<g id="edge33_Node000019_Node000010" class="edge">
<title>Node19&#45;&gt;Node10</title>
<g id="a_edge33_Node000019_Node000010"><a xlink:title=" ">
<path fill="none" stroke="#63b8ff" d="M457.86,-97.11C435.12,-102.31 409.16,-108.25 387.99,-113.08"/>
<polygon fill="#63b8ff" stroke="#63b8ff" points="458.42,-100.35 467.38,-94.71 456.86,-93.52 458.42,-100.35"/>
</a>
</g>
</g>
<!-- Node21 -->
<g id="Node000021" class="node">
<title>Node21</title>
<g id="a_Node000021"><a xlink:href="../../d7/d63/classhmesh__t.html#ab81d241069e3fdd062a6a5046a2ecb60" target="_top" xlink:title=" ">
<polygon fill="white" stroke="#666666" points="572.5,-522.25 454.5,-522.25 454.5,-503 572.5,-503 572.5,-522.25"/>
<text text-anchor="middle" x="513.5" y="-508.75" font-family="Helvetica,sans-Serif" font-size="10.00">hmesh_t::remove_edge</text>
</a>
</g>
</g>
<!-- Node20&#45;&gt;Node21 -->
<g id="edge35_Node000020_Node000021" class="edge">
<title>Node20&#45;&gt;Node21</title>
<g id="a_edge35_Node000020_Node000021"><a xlink:title=" ">
<path fill="none" stroke="#63b8ff" d="M600.33,-512.62C591.09,-512.62 581.76,-512.62 572.84,-512.62"/>
<polygon fill="#63b8ff" stroke="#63b8ff" points="600.13,-516.13 610.13,-512.62 600.13,-509.13 600.13,-516.13"/>
</a>
</g>
</g>
<!-- Node22 -->
<g id="Node000022" class="node">
<title>Node22</title>
<g id="a_Node000022"><a xlink:href="../../d7/d63/classhmesh__t.html#ae48246239256eb193b634ffb8d30cbcf" target="_top" xlink:title=" ">
<polygon fill="white" stroke="#666666" points="413.62,-560.25 276.88,-560.25 276.88,-541 413.62,-541 413.62,-560.25"/>
<text text-anchor="middle" x="345.25" y="-546.75" font-family="Helvetica,sans-Serif" font-size="10.00">hmesh_t::remove_elements</text>
</a>
</g>
</g>
<!-- Node20&#45;&gt;Node22 -->
<g id="edge38_Node000020_Node000022" class="edge">
<title>Node20&#45;&gt;Node22</title>
<g id="a_edge38_Node000020_Node000022"><a xlink:title=" ">
<path fill="none" stroke="#63b8ff" d="M618.33,-524.69C604.33,-527.26 589.43,-529.75 575.5,-531.62 521.37,-538.9 459.66,-543.82 413.9,-546.83"/>
<polygon fill="#63b8ff" stroke="#63b8ff" points="618.64,-528 627.83,-522.72 617.35,-521.12 618.64,-528"/>
</a>
</g>
</g>
<!-- Node21&#45;&gt;Node9 -->
<g id="edge37_Node000021_Node000009" class="edge">
<title>Node21&#45;&gt;Node9</title>
<g id="a_edge37_Node000021_Node000009"><a xlink:title=" ">
<path fill="none" stroke="#63b8ff" d="M459.87,-499.96C436.73,-494.4 409.94,-487.95 388.19,-482.72"/>
<polygon fill="#63b8ff" stroke="#63b8ff" points="459.01,-503.59 469.55,-502.53 460.64,-496.79 459.01,-503.59"/>
</a>
</g>
</g>
<!-- Node21&#45;&gt;Node22 -->
<g id="edge36_Node000021_Node000022" class="edge">
<title>Node21&#45;&gt;Node22</title>
<g id="a_edge36_Node000021_Node000022"><a xlink:title=" ">
<path fill="none" stroke="#63b8ff" d="M457.89,-525.11C435.96,-530.12 411.02,-535.82 390.28,-540.56"/>
<polygon fill="#63b8ff" stroke="#63b8ff" points="458.42,-528.35 467.38,-522.71 456.86,-521.52 458.42,-528.35"/>
</a>
</g>
</g>
<!-- Node23&#45;&gt;Node22 -->
<g id="edge40_Node000023_Node000022" class="edge">
<title>Node23&#45;&gt;Node22</title>
<g id="a_edge40_Node000023_Node000022"><a xlink:title=" ">
<path fill="none" stroke="#63b8ff" d="M457.89,-576.14C435.96,-571.13 411.02,-565.43 390.28,-560.69"/>
<polygon fill="#63b8ff" stroke="#63b8ff" points="456.86,-579.73 467.38,-578.54 458.42,-572.9 456.86,-579.73"/>
</a>
</g>
</g>
</g>
</svg>

<g id="navigator" transform="translate(0 0)" fill="#404254">
  <rect fill="#f2f5e9" fill-opacity="0.5" stroke="#606060" stroke-width=".5" x="0" y="0" width="60" height="60"/>
  <use id="zoomplus" xlink:href="#zoomPlus" x="17" y="9" onmousedown="handleZoom(evt,'in')"/>
  <use id="zoomminus" xlink:href="#zoomMin" x="42" y="9" onmousedown="handleZoom(evt,'out')"/>
  <use id="reset" xlink:href="#resetDef" x="30" y="36" onmousedown="handleReset()"/>
   <use id="arrowup" xlink:href="#arrowUp" x="0" y="0" onmousedown="handlePan(0,-1)"/>
  <use id="arrowright" xlink:href="#arrowRight" x="0" y="0" onmousedown="handlePan(1,0)"/>
  <use id="arrowdown" xlink:href="#arrowDown" x="0" y="0" onmousedown="handlePan(0,1)"/>
  <use id="arrowleft" xlink:href="#arrowLeft" x="0" y="0" onmousedown="handlePan(-1,0)"/>
</g>
<svg viewBox="0 0 15 15" width="100%" height="30px" preserveAspectRatio="xMaxYMin meet">
 <g id="arrow_out" transform="scale(0.3 0.3)">
  <a xlink:href="classhmesh__t_ab448d0b9684fd2f648195b2e5edb83f2_icgraph_org.svg" target="_base">
   <rect id="button" ry="5" rx="5" y="6" x="6" height="38" width="38"
        fill="#f2f5e9" fill-opacity="0.5" stroke="#606060" stroke-width="1.0"/>
   <path id="arrow"
     d="M 11.500037,31.436501 C 11.940474,20.09759 22.043105,11.32322 32.158766,21.979434 L 37.068811,17.246167 C 37.068811,17.246167 37.088388,32 37.088388,32 L 22.160133,31.978069 C 22.160133,31.978069 26.997745,27.140456 26.997745,27.140456 C 18.528582,18.264221 13.291696,25.230495 11.500037,31.436501 z"
     style="fill:#404040;"/>
  </a>
 </g>
</svg>

<style type='text/css'>
<![CDATA[
[data-mouse-over-selected='false'] { opacity: 0.7; }
[data-mouse-over-selected='true']  { opacity: 1.0; }
]]>
</style>
<script type="application/ecmascript"><![CDATA[
document.addEventListener('DOMContentLoaded', (event) => {
  highlightEdges();
  highlightAdjacentNodes();
});
]]></script>
</svg>
