<?xml version="1.0" encoding="UTF-8" standalone="no"?>
<!DOCTYPE svg PUBLIC "-//W3C//DTD SVG 1.1//EN"
 "http://www.w3.org/Graphics/SVG/1.1/DTD/svg11.dtd">
<!-- Generated by graphviz version 8.1.0 (20230707.0739)
 -->
<!-- Title: hmesh_t::remove_elements Pages: 1 -->
<!--zoomable 450 -->

<svg id="main" version="1.1" xmlns="http://www.w3.org/2000/svg" xmlns:xlink="http://www.w3.org/1999/xlink" xml:space="preserve" onload="init(evt)">
<style type="text/css"><![CDATA[
.node, .edge {opacity: 0.7;}
.node.selected, .edge.selected {opacity: 1;}
.edge:hover path { stroke: red; }
.edge:hover polygon { stroke: red; fill: red; }
]]></style>

<defs>
  <circle id="rim" cx="0" cy="0" r="7"/>
  <circle id="rim2" cx="0" cy="0" r="3.5"/>
  <g id="zoomPlus">
    <use xlink:href="#rim" fill="#404040"><set attributeName="fill" to="#808080" begin="zoomplus.mouseover" end="zoomplus.mouseout"/></use>
    <path d="M-4,0h8M0,-4v8" fill="none" stroke="white" stroke-width="1.5" pointer-events="none"/>
  </g>
  <g id="zoomMin">
    <use xlink:href="#rim" fill="#404040"><set attributeName="fill" to="#808080" begin="zoomminus.mouseover" end="zoomminus.mouseout"/></use>
    <path d="M-4,0h8" fill="none" stroke="white" stroke-width="1.5" pointer-events="none"/>
  </g>
  <g id="arrowUp" transform="translate(30 24)">
    <use xlink:href="#rim"/>
    <path pointer-events="none" fill="none" stroke="white" stroke-width="1.5" d="M0,-3.0v7 M-2.5,-0.5L0,-3.0L2.5,-0.5"/>
  </g>
  <g id="arrowRight" transform="rotate(90) translate(36 -43)">
    <use xlink:href="#rim"/>
    <path pointer-events="none" fill="none" stroke="white" stroke-width="1.5" d="M0,-3.0v7 M-2.5,-0.5L0,-3.0L2.5,-0.5"/>
  </g>
  <g id="arrowDown" transform="rotate(180) translate(-30 -48)">
    <use xlink:href="#rim"/>
    <path pointer-events="none" fill="none" stroke="white" stroke-width="1.5" d="M0,-3.0v7 M-2.5,-0.5L0,-3.0L2.5,-0.5"/>
  </g>
  <g id="arrowLeft" transform="rotate(270) translate(-36 17)">
    <use xlink:href="#rim"/>
    <path pointer-events="none" fill="none" stroke="white" stroke-width="1.5" d="M0,-3.0v7 M-2.5,-0.5L0,-3.0L2.5,-0.5"/>
  </g>
  <g id="resetDef">
    <use xlink:href="#rim2" fill="#404040"><set attributeName="fill" to="#808080" begin="reset.mouseover" end="reset.mouseout"/></use>
  </g>
</defs>
<script type="application/ecmascript">
var viewWidth = 626;
var viewHeight = 450;
var sectionId = 'dynsection-86';
</script>
<script type="application/ecmascript" xlink:href="../../svg.min.js"/>
<svg id="graph" class="graph">
<g id="viewport">
<title>hmesh_t::remove_elements</title>
<!-- Node1 -->
<g id="Node000001" class="node">
<title>Node1</title>
<g id="a_Node000001"><a xlink:title=" ">
<polygon fill="#999999" stroke="#666666" points="136.75,-226.25 0,-226.25 0,-207 136.75,-207 136.75,-226.25"/>
<text text-anchor="middle" x="68.38" y="-212.75" font-family="Helvetica,sans-Serif" font-size="10.00">hmesh_t::remove_elements</text>
</a>
</g>
</g>
<!-- Node2 -->
<g id="Node000002" class="node">
<title>Node2</title>
<g id="a_Node000002"><a xlink:href="../../d7/d63/classhmesh__t.html#a8d7c997988ef348807997c1b35d1ba62" target="_top" xlink:title=" ">
<polygon fill="white" stroke="#666666" points="291.12,-442.25 176.88,-442.25 176.88,-423 291.12,-423 291.12,-442.25"/>
<text text-anchor="middle" x="234" y="-428.75" font-family="Helvetica,sans-Serif" font-size="10.00">hmesh_t::edges_begin</text>
</a>
</g>
</g>
<!-- Node1&#45;&gt;Node2 -->
<g id="edge1_Node000001_Node000002" class="edge">
<title>Node1&#45;&gt;Node2</title>
<g id="a_edge1_Node000001_Node000002"><a xlink:title=" ">
<path fill="none" stroke="#63b8ff" d="M71.64,-226.6C79.51,-258.93 108.75,-361.8 172.75,-414.62 173.84,-415.52 174.97,-416.38 176.14,-417.19"/>
<polygon fill="#63b8ff" stroke="#63b8ff" points="174.28,-420.72 184.71,-422.61 177.73,-414.64 174.28,-420.72"/>
</a>
</g>
</g>
<!-- Node4 -->
<g id="Node000004" class="node">
<title>Node4</title>
<g id="a_Node000004"><a xlink:href="../../d7/d63/classhmesh__t.html#a3d290168d74d3af8636faa881a9e3708" target="_top" xlink:title=" ">
<polygon fill="white" stroke="#666666" points="287.38,-405.25 180.62,-405.25 180.62,-386 287.38,-386 287.38,-405.25"/>
<text text-anchor="middle" x="234" y="-391.75" font-family="Helvetica,sans-Serif" font-size="10.00">hmesh_t::edges_end</text>
</a>
</g>
</g>
<!-- Node1&#45;&gt;Node4 -->
<g id="edge3_Node000001_Node000004" class="edge">
<title>Node1&#45;&gt;Node4</title>
<g id="a_edge3_Node000001_Node000004"><a xlink:title=" ">
<path fill="none" stroke="#63b8ff" d="M72.94,-226.69C83.48,-254.99 117.28,-335.88 172.75,-377.62 174.19,-378.71 175.69,-379.73 177.25,-380.68"/>
<polygon fill="#63b8ff" stroke="#63b8ff" points="175.11,-384.04 185.6,-385.53 178.33,-377.82 175.11,-384.04"/>
</a>
</g>
</g>
<!-- Node5 -->
<g id="Node000005" class="node">
<title>Node5</title>
<g id="a_Node000005"><a xlink:href="../../d7/d63/classhmesh__t.html#a913e50afe2e1dc220a379b1dbf8050d2" target="_top" xlink:title=" ">
<polygon fill="white" stroke="#666666" points="290,-368.25 178,-368.25 178,-349 290,-349 290,-368.25"/>
<text text-anchor="middle" x="234" y="-354.75" font-family="Helvetica,sans-Serif" font-size="10.00">hmesh_t::faces_begin</text>
</a>
</g>
</g>
<!-- Node1&#45;&gt;Node5 -->
<g id="edge4_Node000001_Node000005" class="edge">
<title>Node1&#45;&gt;Node5</title>
<g id="a_edge4_Node000001_Node000005"><a xlink:title=" ">
<path fill="none" stroke="#63b8ff" d="M74.92,-226.69C88.45,-250.27 125.49,-309.45 172.75,-340.62 174.53,-341.8 176.38,-342.9 178.3,-343.92"/>
<polygon fill="#63b8ff" stroke="#63b8ff" points="176.68,-347.49 187.23,-348.51 179.61,-341.14 176.68,-347.49"/>
</a>
</g>
</g>
<!-- Node6 -->
<g id="Node000006" class="node">
<title>Node6</title>
<g id="a_Node000006"><a xlink:href="../../d7/d63/classhmesh__t.html#a89e4f1f34dda0bdeced26bc71cb4a4fc" target="_top" xlink:title=" ">
<polygon fill="white" stroke="#666666" points="286.25,-331.25 181.75,-331.25 181.75,-312 286.25,-312 286.25,-331.25"/>
<text text-anchor="middle" x="234" y="-317.75" font-family="Helvetica,sans-Serif" font-size="10.00">hmesh_t::faces_end</text>
</a>
</g>
</g>
<!-- Node1&#45;&gt;Node6 -->
<g id="edge6_Node000001_Node000006" class="edge">
<title>Node1&#45;&gt;Node6</title>
<g id="a_edge6_Node000001_Node000006"><a xlink:title=" ">
<path fill="none" stroke="#63b8ff" d="M78.68,-226.59C95.73,-244.29 133.82,-281.37 172.75,-302.62 176.18,-304.5 179.81,-306.21 183.54,-307.78"/>
<polygon fill="#63b8ff" stroke="#63b8ff" points="181.93,-311.3 192.52,-311.61 184.43,-304.76 181.93,-311.3"/>
</a>
</g>
</g>
<!-- Node7 -->
<g id="Node000007" class="node">
<title>Node7</title>
<g id="a_Node000007"><a xlink:href="../../d7/d63/classhmesh__t.html#add3cbd7d63a0ab56d19696365e2ecfa7" target="_top" xlink:title=" ">
<polygon fill="white" stroke="#666666" points="284.75,-293.88 183.25,-293.88 183.25,-263.38 284.75,-263.38 284.75,-293.88"/>
<text text-anchor="start" x="191.25" y="-280.38" font-family="Helvetica,sans-Serif" font-size="10.00">hmesh_t::halfedges</text>
<text text-anchor="middle" x="234" y="-269.12" font-family="Helvetica,sans-Serif" font-size="10.00">_begin</text>
</a>
</g>
</g>
<!-- Node1&#45;&gt;Node7 -->
<g id="edge7_Node000001_Node000007" class="edge">
<title>Node1&#45;&gt;Node7</title>
<g id="a_edge7_Node000001_Node000007"><a xlink:title=" ">
<path fill="none" stroke="#63b8ff" d="M96.03,-226.72C119.09,-235.46 153.11,-248.35 181.47,-259.1"/>
<polygon fill="#63b8ff" stroke="#63b8ff" points="180.04,-262.68 190.64,-262.95 182.53,-256.14 180.04,-262.68"/>
</a>
</g>
</g>
<!-- Node8 -->
<g id="Node000008" class="node">
<title>Node8</title>
<g id="a_Node000008"><a xlink:href="../../d7/d63/classhmesh__t.html#a945a607d3e0f69a6ab7c2cfd25377ab7" target="_top" xlink:title=" ">
<polygon fill="white" stroke="#666666" points="295.25,-245.25 172.75,-245.25 172.75,-226 295.25,-226 295.25,-245.25"/>
<text text-anchor="middle" x="234" y="-231.75" font-family="Helvetica,sans-Serif" font-size="10.00">hmesh_t::halfedges_end</text>
</a>
</g>
</g>
<!-- Node1&#45;&gt;Node8 -->
<g id="edge9_Node000001_Node000008" class="edge">
<title>Node1&#45;&gt;Node8</title>
<g id="a_edge9_Node000001_Node000008"><a xlink:title=" ">
<path fill="none" stroke="#63b8ff" d="M136.87,-224.46C145.07,-225.42 153.47,-226.39 161.73,-227.35"/>
<polygon fill="#63b8ff" stroke="#63b8ff" points="161.13,-230.92 171.47,-228.6 161.94,-223.97 161.13,-230.92"/>
</a>
</g>
</g>
<!-- Node9 -->
<g id="Node000009" class="node">
<title>Node9</title>
<g id="a_Node000009"><a xlink:href="../../d7/d63/classhmesh__t.html#ab81d241069e3fdd062a6a5046a2ecb60" target="_top" xlink:title=" ">
<polygon fill="white" stroke="#666666" points="293,-171.25 175,-171.25 175,-152 293,-152 293,-171.25"/>
<text text-anchor="middle" x="234" y="-157.75" font-family="Helvetica,sans-Serif" font-size="10.00">hmesh_t::remove_edge</text>
</a>
</g>
</g>
<!-- Node1&#45;&gt;Node9 -->
<g id="edge10_Node000001_Node000009" class="edge">
<title>Node1&#45;&gt;Node9</title>
<g id="a_edge10_Node000001_Node000009"><a xlink:title=" ">
<path fill="none" stroke="#63b8ff" d="M96.01,-206.65C116.81,-198.97 146.49,-188.24 172.75,-179.62 177.62,-178.03 182.72,-176.41 187.81,-174.84"/>
<polygon fill="#63b8ff" stroke="#63b8ff" points="188.63,-177.95 197.17,-171.68 186.59,-171.25 188.63,-177.95"/>
</a>
</g>
</g>
<!-- Node13 -->
<g id="Node000013" class="node">
<title>Node13</title>
<g id="a_Node000013"><a xlink:href="../../d7/d63/classhmesh__t.html#a48df3032e7abedf53c8ba222491053fb" target="_top" xlink:title=" ">
<polygon fill="white" stroke="#666666" points="465,-132.25 331.25,-132.25 331.25,-113 465,-113 465,-132.25"/>
<text text-anchor="middle" x="398.12" y="-118.75" font-family="Helvetica,sans-Serif" font-size="10.00">hmesh_t::remove_halfedge</text>
</a>
</g>
</g>
<!-- Node1&#45;&gt;Node13 -->
<g id="edge23_Node000001_Node000013" class="edge">
<title>Node1&#45;&gt;Node13</title>
<g id="a_edge23_Node000001_Node000013"><a xlink:title=" ">
<path fill="none" stroke="#63b8ff" d="M79.42,-206.52C96.73,-189.85 134.05,-156.97 172.75,-142.62 219.67,-125.23 275.74,-120.22 320.09,-119.57"/>
<polygon fill="#63b8ff" stroke="#63b8ff" points="319.83,-123.07 329.81,-119.5 319.78,-116.07 319.83,-123.07"/>
</a>
</g>
</g>
<!-- Node16 -->
<g id="Node000016" class="node">
<title>Node16</title>
<g id="a_Node000016"><a xlink:href="../../d7/d63/classhmesh__t.html#a5a71c18f06b818b1ac4e6b81cf400aad" target="_top" xlink:title=" ">
<polygon fill="white" stroke="#666666" points="456,-95.25 340.25,-95.25 340.25,-76 456,-76 456,-95.25"/>
<text text-anchor="middle" x="398.12" y="-81.75" font-family="Helvetica,sans-Serif" font-size="10.00">hmesh_t::remove_face</text>
</a>
</g>
</g>
<!-- Node1&#45;&gt;Node16 -->
<g id="edge20_Node000001_Node000016" class="edge">
<title>Node1&#45;&gt;Node16</title>
<g id="a_edge20_Node000001_Node000016"><a xlink:title=" ">
<path fill="none" stroke="#63b8ff" d="M76.01,-206.77C90.67,-185.9 128.09,-137.38 172.75,-115.62 221.49,-91.88 282.85,-85.02 329.08,-83.73"/>
<polygon fill="#63b8ff" stroke="#63b8ff" points="328.96,-87.22 338.89,-83.53 328.82,-80.22 328.96,-87.22"/>
</a>
</g>
</g>
<!-- Node17 -->
<g id="Node000017" class="node">
<title>Node17</title>
<g id="a_Node000017"><a xlink:href="../../d7/d63/classhmesh__t.html#ac9306fce5d55a5a01986697a3cef38e3" target="_top" xlink:title=" ">
<polygon fill="white" stroke="#666666" points="460.12,-58.25 336.12,-58.25 336.12,-39 460.12,-39 460.12,-58.25"/>
<text text-anchor="middle" x="398.12" y="-44.75" font-family="Helvetica,sans-Serif" font-size="10.00">hmesh_t::remove_vertex</text>
</a>
</g>
</g>
<!-- Node1&#45;&gt;Node17 -->
<g id="edge24_Node000001_Node000017" class="edge">
<title>Node1&#45;&gt;Node17</title>
<g id="a_edge24_Node000001_Node000017"><a xlink:title=" ">
<path fill="none" stroke="#63b8ff" d="M73.67,-206.72C85.34,-181.08 120.33,-112.45 172.75,-81.62 218.62,-54.65 278.6,-46.96 325.01,-45.71"/>
<polygon fill="#63b8ff" stroke="#63b8ff" points="324.95,-49.19 334.89,-45.53 324.83,-42.19 324.95,-49.19"/>
</a>
</g>
</g>
<!-- Node18 -->
<g id="Node000018" class="node">
<title>Node18</title>
<g id="a_Node000018"><a xlink:href="../../d7/d63/classhmesh__t.html#a0bf160ae73193f77064cc3d8f01e63a3" target="_top" xlink:title=" ">
<polygon fill="white" stroke="#666666" points="295.25,-208.25 172.75,-208.25 172.75,-189 295.25,-189 295.25,-208.25"/>
<text text-anchor="middle" x="234" y="-194.75" font-family="Helvetica,sans-Serif" font-size="10.00">hmesh_t::vertices_begin</text>
</a>
</g>
</g>
<!-- Node1&#45;&gt;Node18 -->
<g id="edge26_Node000001_Node000018" class="edge">
<title>Node1&#45;&gt;Node18</title>
<g id="a_edge26_Node000001_Node000018"><a xlink:title=" ">
<path fill="none" stroke="#63b8ff" d="M136.87,-209.2C145.07,-208.3 153.47,-207.37 161.73,-206.47"/>
<polygon fill="#63b8ff" stroke="#63b8ff" points="161.91,-209.86 171.47,-205.28 161.15,-202.9 161.91,-209.86"/>
</a>
</g>
</g>
<!-- Node19 -->
<g id="Node000019" class="node">
<title>Node19</title>
<g id="a_Node000019"><a xlink:href="../../d7/d63/classhmesh__t.html#a80ac49a03f1085744f5b121cc4acbf2c" target="_top" xlink:title=" ">
<polygon fill="white" stroke="#666666" points="291.5,-19.25 176.5,-19.25 176.5,0 291.5,0 291.5,-19.25"/>
<text text-anchor="middle" x="234" y="-5.75" font-family="Helvetica,sans-Serif" font-size="10.00">hmesh_t::vertices_end</text>
</a>
</g>
</g>
<!-- Node1&#45;&gt;Node19 -->
<g id="edge28_Node000001_Node000019" class="edge">
<title>Node1&#45;&gt;Node19</title>
<g id="a_edge28_Node000001_Node000019"><a xlink:title=" ">
<path fill="none" stroke="#63b8ff" d="M72.32,-206.77C81.83,-176.62 114.48,-84.51 172.75,-33.62 176.88,-30.01 181.63,-26.91 186.6,-24.25"/>
<polygon fill="#63b8ff" stroke="#63b8ff" points="187.79,-27.09 195.34,-19.66 184.81,-20.75 187.79,-27.09"/>
</a>
</g>
</g>
<!-- Node3 -->
<g id="Node000003" class="node">
<title>Node3</title>
<g id="a_Node000003"><a xlink:href="../../d7/d63/classhmesh__t.html#ad4e4cc41a75c0c59d5c502b47e285d30" target="_top" xlink:title=" ">
<polygon fill="white" stroke="#666666" points="453,-328.25 343.25,-328.25 343.25,-309 453,-309 453,-328.25"/>
<text text-anchor="middle" x="398.12" y="-314.75" font-family="Helvetica,sans-Serif" font-size="10.00">hmesh_t::is_removed</text>
</a>
</g>
</g>
<!-- Node2&#45;&gt;Node3 -->
<g id="edge2_Node000002_Node000003" class="edge">
<title>Node2&#45;&gt;Node3</title>
<g id="a_edge2_Node000002_Node000003"><a xlink:title=" ">
<path fill="none" stroke="#63b8ff" d="M277.85,-422.54C283.88,-420.35 289.86,-417.73 295.25,-414.62 330.99,-394.02 364.12,-358.53 382.4,-336.96"/>
<polygon fill="#63b8ff" stroke="#63b8ff" points="385.6,-339.58 389.28,-329.65 380.21,-335.11 385.6,-339.58"/>
</a>
</g>
</g>
<!-- Node5&#45;&gt;Node3 -->
<g id="edge5_Node000005_Node000003" class="edge">
<title>Node5&#45;&gt;Node3</title>
<g id="a_edge5_Node000005_Node000003"><a xlink:title=" ">
<path fill="none" stroke="#63b8ff" d="M275.91,-348.53C297.13,-343.3 323.25,-336.85 345.81,-331.29"/>
<polygon fill="#63b8ff" stroke="#63b8ff" points="346.36,-334.51 355.23,-328.72 344.68,-327.71 346.36,-334.51"/>
</a>
</g>
</g>
<!-- Node7&#45;&gt;Node3 -->
<g id="edge8_Node000007_Node000003" class="edge">
<title>Node7&#45;&gt;Node3</title>
<g id="a_edge8_Node000007_Node000003"><a xlink:title=" ">
<path fill="none" stroke="#63b8ff" d="M284.97,-290.95C304.28,-295.72 326.36,-301.17 345.8,-305.96"/>
<polygon fill="#63b8ff" stroke="#63b8ff" points="344.75,-309.55 355.29,-308.55 346.42,-302.76 344.75,-309.55"/>
</a>
</g>
</g>
<!-- Node10 -->
<g id="Node000010" class="node">
<title>Node10</title>
<g id="a_Node000010"><a xlink:href="../../d7/d63/classhmesh__t.html#aabb2a87d3b736883d381532fb871389e" target="_top" xlink:title=" ">
<polygon fill="white" stroke="#666666" points="609.62,-223.25 508.88,-223.25 508.88,-204 609.62,-204 609.62,-223.25"/>
<text text-anchor="middle" x="559.25" y="-209.75" font-family="Helvetica,sans-Serif" font-size="10.00">hmesh_t::null_edge</text>
</a>
</g>
</g>
<!-- Node9&#45;&gt;Node10 -->
<g id="edge11_Node000009_Node000010" class="edge">
<title>Node9&#45;&gt;Node10</title>
<g id="a_edge11_Node000009_Node000010"><a xlink:title=" ">
<path fill="none" stroke="#63b8ff" d="M270.88,-171.67C278.95,-174.12 287.44,-176.84 295.25,-179.62 311.58,-185.45 314.41,-190.52 331.25,-194.62 386.56,-208.11 451.45,-212.44 497.65,-213.64"/>
<polygon fill="#63b8ff" stroke="#63b8ff" points="497.31,-217.16 507.39,-213.87 497.47,-210.16 497.31,-217.16"/>
</a>
</g>
</g>
<!-- Node11 -->
<g id="Node000011" class="node">
<title>Node11</title>
<g id="a_Node000011"><a xlink:href="../../d7/d63/classhmesh__t.html#a682accc8af021cbd85eb03c91bc9fd0e" target="_top" xlink:title=" ">
<polygon fill="white" stroke="#666666" points="617.5,-164.25 501,-164.25 501,-145 617.5,-145 617.5,-164.25"/>
<text text-anchor="middle" x="559.25" y="-150.75" font-family="Helvetica,sans-Serif" font-size="10.00">hmesh_t::null_halfedge</text>
</a>
</g>
</g>
<!-- Node9&#45;&gt;Node11 -->
<g id="edge12_Node000009_Node000011" class="edge">
<title>Node9&#45;&gt;Node11</title>
<g id="a_edge12_Node000009_Node000011"><a xlink:title=" ">
<path fill="none" stroke="#63b8ff" d="M282.27,-171.67C297.8,-174.51 315.19,-177.22 331.25,-178.62 390.47,-183.81 406.03,-186.09 465,-178.62 482.28,-176.44 500.94,-172.06 516.99,-167.63"/>
<polygon fill="#63b8ff" stroke="#63b8ff" points="517.47,-170.85 526.12,-164.73 515.55,-164.11 517.47,-170.85"/>
</a>
</g>
</g>
<!-- Node12 -->
<g id="Node000012" class="node">
<title>Node12</title>
<g id="a_Node000012"><a xlink:href="../../d7/d63/classhmesh__t.html#af601050effa9292ffac4274918113712" target="_top" xlink:title=" ">
<polygon fill="white" stroke="#666666" points="446.25,-169.25 350,-169.25 350,-150 446.25,-150 446.25,-169.25"/>
<text text-anchor="middle" x="398.12" y="-155.75" font-family="Helvetica,sans-Serif" font-size="10.00">hmesh_t::opposite</text>
</a>
</g>
</g>
<!-- Node9&#45;&gt;Node12 -->
<g id="edge13_Node000009_Node000012" class="edge">
<title>Node9&#45;&gt;Node12</title>
<g id="a_edge13_Node000009_Node000012"><a xlink:title=" ">
<path fill="none" stroke="#63b8ff" d="M293.07,-160.91C307.99,-160.72 324.04,-160.53 338.96,-160.34"/>
<polygon fill="#63b8ff" stroke="#63b8ff" points="338.63,-163.83 348.59,-160.21 338.55,-156.84 338.63,-163.83"/>
</a>
</g>
</g>
<!-- Node9&#45;&gt;Node13 -->
<g id="edge15_Node000009_Node000013" class="edge">
<title>Node9&#45;&gt;Node13</title>
<g id="a_edge15_Node000009_Node000013"><a xlink:title=" ">
<path fill="none" stroke="#63b8ff" d="M276.75,-151.58C297.47,-146.6 322.72,-140.52 344.72,-135.23"/>
<polygon fill="#63b8ff" stroke="#63b8ff" points="345.33,-138.44 354.23,-132.7 343.69,-131.64 345.33,-138.44"/>
</a>
</g>
</g>
<!-- Node12&#45;&gt;Node11 -->
<g id="edge14_Node000012_Node000011" class="edge">
<title>Node12&#45;&gt;Node11</title>
<g id="a_edge14_Node000012_Node000011"><a xlink:title=" ">
<path fill="none" stroke="#63b8ff" d="M446.44,-158.14C460.15,-157.71 475.4,-157.23 490.12,-156.77"/>
<polygon fill="#63b8ff" stroke="#63b8ff" points="489.82,-160.25 499.71,-156.43 489.6,-153.25 489.82,-160.25"/>
</a>
</g>
</g>
<!-- Node13&#45;&gt;Node10 -->
<g id="edge16_Node000013_Node000010" class="edge">
<title>Node13&#45;&gt;Node10</title>
<g id="a_edge16_Node000013_Node000010"><a xlink:title=" ">
<path fill="none" stroke="#63b8ff" d="M446.63,-132.66C452.99,-134.85 459.29,-137.47 465,-140.62 484,-151.11 484.07,-160.05 501,-173.62 511.43,-181.99 523.49,-190.57 533.85,-197.62"/>
<polygon fill="#63b8ff" stroke="#63b8ff" points="531.53,-200.96 541.79,-203.63 535.44,-195.15 531.53,-200.96"/>
</a>
</g>
</g>
<!-- Node13&#45;&gt;Node11 -->
<g id="edge18_Node000013_Node000011" class="edge">
<title>Node13&#45;&gt;Node11</title>
<g id="a_edge18_Node000013_Node000011"><a xlink:title=" ">
<path fill="none" stroke="#63b8ff" d="M449.47,-132.75C464.64,-135.8 481.45,-139.18 497.23,-142.35"/>
<polygon fill="#63b8ff" stroke="#63b8ff" points="496.46,-145.97 506.96,-144.51 497.84,-139.11 496.46,-145.97"/>
</a>
</g>
</g>
<!-- Node14 -->
<g id="Node000014" class="node">
<title>Node14</title>
<g id="a_Node000014"><a xlink:href="../../d7/d63/classhmesh__t.html#af78eb5785020a91476b847187b3b2b1a" target="_top" xlink:title=" ">
<polygon fill="white" stroke="#666666" points="608.5,-122.25 510,-122.25 510,-103 608.5,-103 608.5,-122.25"/>
<text text-anchor="middle" x="559.25" y="-108.75" font-family="Helvetica,sans-Serif" font-size="10.00">hmesh_t::null_face</text>
</a>
</g>
</g>
<!-- Node13&#45;&gt;Node14 -->
<g id="edge17_Node000013_Node000014" class="edge">
<title>Node13&#45;&gt;Node14</title>
<g id="a_edge17_Node000013_Node000014"><a xlink:title=" ">
<path fill="none" stroke="#63b8ff" d="M465.23,-118.47C476.37,-117.77 487.88,-117.05 498.84,-116.36"/>
<polygon fill="#63b8ff" stroke="#63b8ff" points="498.82,-119.8 508.58,-115.68 498.38,-112.82 498.82,-119.8"/>
</a>
</g>
</g>
<!-- Node15 -->
<g id="Node000015" class="node">
<title>Node15</title>
<g id="a_Node000015"><a xlink:href="../../d7/d63/classhmesh__t.html#ab448d0b9684fd2f648195b2e5edb83f2" target="_top" xlink:title=" ">
<polygon fill="white" stroke="#666666" points="612.62,-76.25 505.88,-76.25 505.88,-57 612.62,-57 612.62,-76.25"/>
<text text-anchor="middle" x="559.25" y="-62.75" font-family="Helvetica,sans-Serif" font-size="10.00">hmesh_t::null_vertex</text>
</a>
</g>
</g>
<!-- Node13&#45;&gt;Node15 -->
<g id="edge19_Node000013_Node000015" class="edge">
<title>Node13&#45;&gt;Node15</title>
<g id="a_edge19_Node000013_Node000015"><a xlink:title=" ">
<path fill="none" stroke="#63b8ff" d="M439.07,-112.54C447.68,-110.13 456.69,-107.44 465,-104.62 485.62,-97.63 508.25,-88.45 526.05,-80.86"/>
<polygon fill="#63b8ff" stroke="#63b8ff" points="527.13,-83.78 534.93,-76.61 524.36,-77.35 527.13,-83.78"/>
</a>
</g>
</g>
<!-- Node16&#45;&gt;Node11 -->
<g id="edge22_Node000016_Node000011" class="edge">
<title>Node16&#45;&gt;Node11</title>
<g id="a_edge22_Node000016_Node000011"><a xlink:title=" ">
<path fill="none" stroke="#63b8ff" d="M445,-95.64C451.87,-97.85 458.74,-100.5 465,-103.62 483.13,-112.69 483.42,-121.53 501,-131.62 506.53,-134.8 512.59,-137.75 518.63,-140.4"/>
<polygon fill="#63b8ff" stroke="#63b8ff" points="517.1,-143.97 527.68,-144.56 519.78,-137.5 517.1,-143.97"/>
</a>
</g>
</g>
<!-- Node16&#45;&gt;Node14 -->
<g id="edge21_Node000016_Node000014" class="edge">
<title>Node16&#45;&gt;Node14</title>
<g id="a_edge21_Node000016_Node000014"><a xlink:title=" ">
<path fill="none" stroke="#63b8ff" d="M456.12,-95.3C470.05,-97.66 484.99,-100.19 499.02,-102.57"/>
<polygon fill="#63b8ff" stroke="#63b8ff" points="498.09,-106.14 508.54,-104.36 499.26,-99.24 498.09,-106.14"/>
</a>
</g>
</g>
<!-- Node17&#45;&gt;Node15 -->
<g id="edge25_Node000017_Node000015" class="edge">
<title>Node17&#45;&gt;Node15</title>
<g id="a_edge25_Node000017_Node000015"><a xlink:title=" ">
<path fill="none" stroke="#63b8ff" d="M460.19,-55.53C471.48,-56.81 483.3,-58.15 494.66,-59.43"/>
<polygon fill="#63b8ff" stroke="#63b8ff" points="494.06,-63 504.39,-60.65 494.84,-56.04 494.06,-63"/>
</a>
</g>
</g>
<!-- Node18&#45;&gt;Node3 -->
<g id="edge27_Node000018_Node000003" class="edge">
<title>Node18&#45;&gt;Node3</title>
<g id="a_edge27_Node000018_Node000003"><a xlink:title=" ">
<path fill="none" stroke="#63b8ff" d="M278.25,-208.68C284.16,-210.87 290,-213.49 295.25,-216.62 305.18,-222.55 353.9,-273.12 380.2,-300.75"/>
<polygon fill="#63b8ff" stroke="#63b8ff" points="377.15,-302.68 386.58,-307.52 382.23,-297.86 377.15,-302.68"/>
</a>
</g>
</g>
</g>
</svg>

<g id="navigator" transform="translate(0 0)" fill="#404254">
  <rect fill="#f2f5e9" fill-opacity="0.5" stroke="#606060" stroke-width=".5" x="0" y="0" width="60" height="60"/>
  <use id="zoomplus" xlink:href="#zoomPlus" x="17" y="9" onmousedown="handleZoom(evt,'in')"/>
  <use id="zoomminus" xlink:href="#zoomMin" x="42" y="9" onmousedown="handleZoom(evt,'out')"/>
  <use id="reset" xlink:href="#resetDef" x="30" y="36" onmousedown="handleReset()"/>
   <use id="arrowup" xlink:href="#arrowUp" x="0" y="0" onmousedown="handlePan(0,-1)"/>
  <use id="arrowright" xlink:href="#arrowRight" x="0" y="0" onmousedown="handlePan(1,0)"/>
  <use id="arrowdown" xlink:href="#arrowDown" x="0" y="0" onmousedown="handlePan(0,1)"/>
  <use id="arrowleft" xlink:href="#arrowLeft" x="0" y="0" onmousedown="handlePan(-1,0)"/>
</g>
<svg viewBox="0 0 15 15" width="100%" height="30px" preserveAspectRatio="xMaxYMin meet">
 <g id="arrow_out" transform="scale(0.3 0.3)">
  <a xlink:href="classhmesh__t_ae48246239256eb193b634ffb8d30cbcf_cgraph_org.svg" target="_base">
   <rect id="button" ry="5" rx="5" y="6" x="6" height="38" width="38"
        fill="#f2f5e9" fill-opacity="0.5" stroke="#606060" stroke-width="1.0"/>
   <path id="arrow"
     d="M 11.500037,31.436501 C 11.940474,20.09759 22.043105,11.32322 32.158766,21.979434 L 37.068811,17.246167 C 37.068811,17.246167 37.088388,32 37.088388,32 L 22.160133,31.978069 C 22.160133,31.978069 26.997745,27.140456 26.997745,27.140456 C 18.528582,18.264221 13.291696,25.230495 11.500037,31.436501 z"
     style="fill:#404040;"/>
  </a>
 </g>
</svg>

<style type='text/css'>
<![CDATA[
[data-mouse-over-selected='false'] { opacity: 0.7; }
[data-mouse-over-selected='true']  { opacity: 1.0; }
]]>
</style>
<script type="application/ecmascript"><![CDATA[
document.addEventListener('DOMContentLoaded', (event) => {
  highlightEdges();
  highlightAdjacentNodes();
});
]]></script>
</svg>
