<?xml version="1.0" encoding="UTF-8" standalone="no"?>
<!DOCTYPE svg PUBLIC "-//W3C//DTD SVG 1.1//EN"
 "http://www.w3.org/Graphics/SVG/1.1/DTD/svg11.dtd">
<!-- Generated by graphviz version 8.1.0 (20230707.0739)
 -->
<!-- Title: ShinyManager_lookupAndBeginNode Pages: 1 -->
<!--zoomable 88 -->

<svg id="main" version="1.1" xmlns="http://www.w3.org/2000/svg" xmlns:xlink="http://www.w3.org/1999/xlink" xml:space="preserve" onload="init(evt)">
<style type="text/css"><![CDATA[
.node, .edge {opacity: 0.7;}
.node.selected, .edge.selected {opacity: 1;}
.edge:hover path { stroke: red; }
.edge:hover polygon { stroke: red; fill: red; }
]]></style>

<defs>
  <circle id="rim" cx="0" cy="0" r="7"/>
  <circle id="rim2" cx="0" cy="0" r="3.5"/>
  <g id="zoomPlus">
    <use xlink:href="#rim" fill="#404040"><set attributeName="fill" to="#808080" begin="zoomplus.mouseover" end="zoomplus.mouseout"/></use>
    <path d="M-4,0h8M0,-4v8" fill="none" stroke="white" stroke-width="1.5" pointer-events="none"/>
  </g>
  <g id="zoomMin">
    <use xlink:href="#rim" fill="#404040"><set attributeName="fill" to="#808080" begin="zoomminus.mouseover" end="zoomminus.mouseout"/></use>
    <path d="M-4,0h8" fill="none" stroke="white" stroke-width="1.5" pointer-events="none"/>
  </g>
  <g id="arrowUp" transform="translate(30 24)">
    <use xlink:href="#rim"/>
    <path pointer-events="none" fill="none" stroke="white" stroke-width="1.5" d="M0,-3.0v7 M-2.5,-0.5L0,-3.0L2.5,-0.5"/>
  </g>
  <g id="arrowRight" transform="rotate(90) translate(36 -43)">
    <use xlink:href="#rim"/>
    <path pointer-events="none" fill="none" stroke="white" stroke-width="1.5" d="M0,-3.0v7 M-2.5,-0.5L0,-3.0L2.5,-0.5"/>
  </g>
  <g id="arrowDown" transform="rotate(180) translate(-30 -48)">
    <use xlink:href="#rim"/>
    <path pointer-events="none" fill="none" stroke="white" stroke-width="1.5" d="M0,-3.0v7 M-2.5,-0.5L0,-3.0L2.5,-0.5"/>
  </g>
  <g id="arrowLeft" transform="rotate(270) translate(-36 17)">
    <use xlink:href="#rim"/>
    <path pointer-events="none" fill="none" stroke="white" stroke-width="1.5" d="M0,-3.0v7 M-2.5,-0.5L0,-3.0L2.5,-0.5"/>
  </g>
  <g id="resetDef">
    <use xlink:href="#rim2" fill="#404040"><set attributeName="fill" to="#808080" begin="reset.mouseover" end="reset.mouseout"/></use>
  </g>
</defs>
<script type="application/ecmascript">
var viewWidth = 703;
var viewHeight = 88;
var sectionId = 'dynsection-14';
</script>
<script type="application/ecmascript" xlink:href="../../svg.min.js"/>
<svg id="graph" class="graph">
<g id="viewport">
<title>ShinyManager_lookupAndBeginNode</title>
<!-- Node1 -->
<g id="Node000001" class="node">
<title>Node1</title>
<g id="a_Node000001"><a xlink:title=" ">
<polygon fill="#999999" stroke="#666666" points="177.25,-58.25 0,-58.25 0,-39 177.25,-39 177.25,-58.25"/>
<text text-anchor="middle" x="88.62" y="-44.75" font-family="Helvetica,sans-Serif" font-size="10.00">ShinyManager_lookupAndBeginNode</text>
</a>
</g>
</g>
<!-- Node2 -->
<g id="Node000002" class="node">
<title>Node2</title>
<g id="a_Node000002"><a xlink:href="../../dd/d7e/_shiny_manager_8h.html#ad9cea5faadef5dca73e9747b57a08e75" target="_top" xlink:title=" ">
<polygon fill="white" stroke="#666666" points="353.75,-77.25 213.25,-77.25 213.25,-58 353.75,-58 353.75,-77.25"/>
<text text-anchor="middle" x="283.5" y="-63.75" font-family="Helvetica,sans-Serif" font-size="10.00">_ShinyManager_lookupNode</text>
</a>
</g>
</g>
<!-- Node1&#45;&gt;Node2 -->
<g id="edge1_Node000001_Node000002" class="edge">
<title>Node1&#45;&gt;Node2</title>
<g id="a_edge1_Node000001_Node000002"><a xlink:title=" ">
<path fill="none" stroke="#63b8ff" d="M177.6,-57.29C185.72,-58.09 193.93,-58.9 201.99,-59.69"/>
<polygon fill="#63b8ff" stroke="#63b8ff" points="201.57,-63.27 211.86,-60.76 202.25,-56.3 201.57,-63.27"/>
</a>
</g>
</g>
<!-- Node3 -->
<g id="Node000003" class="node">
<title>Node3</title>
<g id="a_Node000003"><a xlink:href="../../dd/d7e/_shiny_manager_8h.html#a3d700d773895ea4fd32ffa182e8bbdb3" target="_top" xlink:title=" ">
<polygon fill="white" stroke="#666666" points="348.5,-40.25 218.5,-40.25 218.5,-21 348.5,-21 348.5,-40.25"/>
<text text-anchor="middle" x="283.5" y="-26.75" font-family="Helvetica,sans-Serif" font-size="10.00">ShinyManager_beginNode</text>
</a>
</g>
</g>
<!-- Node1&#45;&gt;Node3 -->
<g id="edge2_Node000001_Node000003" class="edge">
<title>Node1&#45;&gt;Node3</title>
<g id="a_edge2_Node000001_Node000003"><a xlink:title=" ">
<path fill="none" stroke="#63b8ff" d="M177.6,-40.42C187.49,-39.49 197.49,-38.56 207.2,-37.65"/>
<polygon fill="#63b8ff" stroke="#63b8ff" points="207.38,-41.06 217.01,-36.64 206.73,-34.09 207.38,-41.06"/>
</a>
</g>
</g>
<!-- Node4 -->
<g id="Node000004" class="node">
<title>Node4</title>
<g id="a_Node000004"><a xlink:href="../../dd/d7e/_shiny_manager_8h.html#aff876f8aa491dbea54d0cefeb21fef9b" target="_top" xlink:title=" ">
<polygon fill="white" stroke="#666666" points="534,-67.88 389.75,-67.88 389.75,-37.38 534,-37.38 534,-67.88"/>
<text text-anchor="start" x="397.75" y="-54.38" font-family="Helvetica,sans-Serif" font-size="10.00">_ShinyManager_appendTicks</text>
<text text-anchor="middle" x="461.88" y="-43.12" font-family="Helvetica,sans-Serif" font-size="10.00">ToCurNode</text>
</a>
</g>
</g>
<!-- Node3&#45;&gt;Node4 -->
<g id="edge3_Node000003_Node000004" class="edge">
<title>Node3&#45;&gt;Node4</title>
<g id="a_edge3_Node000003_Node000004"><a xlink:title=" ">
<path fill="none" stroke="#63b8ff" d="M348.67,-38.63C358.37,-39.84 368.48,-41.1 378.49,-42.35"/>
<polygon fill="#63b8ff" stroke="#63b8ff" points="377.93,-45.93 388.29,-43.7 378.8,-38.98 377.93,-45.93"/>
</a>
</g>
</g>
<!-- Node7 -->
<g id="Node000007" class="node">
<title>Node7</title>
<g id="a_Node000007"><a xlink:href="../../dc/d70/_shiny_node_8h.html#a60eb99f8b1d2115ddb849be9e0ac719c" target="_top" xlink:title=" ">
<polygon fill="white" stroke="#666666" points="519.75,-19.25 404,-19.25 404,0 519.75,0 519.75,-19.25"/>
<text text-anchor="middle" x="461.88" y="-5.75" font-family="Helvetica,sans-Serif" font-size="10.00">ShinyNode_beginEntry</text>
</a>
</g>
</g>
<!-- Node3&#45;&gt;Node7 -->
<g id="edge6_Node000003_Node000007" class="edge">
<title>Node3&#45;&gt;Node7</title>
<g id="a_edge6_Node000003_Node000007"><a xlink:title=" ">
<path fill="none" stroke="#63b8ff" d="M348.67,-22.98C363.04,-21.27 378.32,-19.45 392.84,-17.73"/>
<polygon fill="#63b8ff" stroke="#63b8ff" points="393.24,-21.08 402.76,-16.43 392.41,-14.13 393.24,-21.08"/>
</a>
</g>
</g>
<!-- Node5 -->
<g id="Node000005" class="node">
<title>Node5</title>
<g id="a_Node000005"><a xlink:href="../../de/d3a/_shiny_tools_8h.html#a95de9bcdb82c4eae40670e161fa79196" target="_top" xlink:title=" ">
<polygon fill="white" stroke="#666666" points="672.62,-80.25 592.12,-80.25 592.12,-61 672.62,-61 672.62,-80.25"/>
<text text-anchor="middle" x="632.38" y="-66.75" font-family="Helvetica,sans-Serif" font-size="10.00">ShinyGetTicks</text>
</a>
</g>
</g>
<!-- Node4&#45;&gt;Node5 -->
<g id="edge4_Node000004_Node000005" class="edge">
<title>Node4&#45;&gt;Node5</title>
<g id="a_edge4_Node000004_Node000005"><a xlink:title=" ">
<path fill="none" stroke="#63b8ff" d="M534.33,-60.26C550.06,-61.94 566.39,-63.68 581.07,-65.25"/>
<polygon fill="#63b8ff" stroke="#63b8ff" points="580.63,-68.83 590.94,-66.41 581.37,-61.87 580.63,-68.83"/>
</a>
</g>
</g>
<!-- Node6 -->
<g id="Node000006" class="node">
<title>Node6</title>
<g id="a_Node000006"><a xlink:href="../../dc/d70/_shiny_node_8h.html#afa86c13b8cf72aa173bde0362b283898" target="_top" xlink:title=" ">
<polygon fill="white" stroke="#666666" points="694.75,-43.25 570,-43.25 570,-24 694.75,-24 694.75,-43.25"/>
<text text-anchor="middle" x="632.38" y="-29.75" font-family="Helvetica,sans-Serif" font-size="10.00">ShinyNode_appendTicks</text>
</a>
</g>
</g>
<!-- Node4&#45;&gt;Node6 -->
<g id="edge5_Node000004_Node000006" class="edge">
<title>Node4&#45;&gt;Node6</title>
<g id="a_edge5_Node000004_Node000006"><a xlink:title=" ">
<path fill="none" stroke="#63b8ff" d="M534.33,-44.57C542.41,-43.66 550.65,-42.73 558.74,-41.81"/>
<polygon fill="#63b8ff" stroke="#63b8ff" points="559.12,-45.18 568.66,-40.58 558.33,-38.23 559.12,-45.18"/>
</a>
</g>
</g>
</g>
</svg>

<g id="navigator" transform="translate(0 0)" fill="#404254">
  <rect fill="#f2f5e9" fill-opacity="0.5" stroke="#606060" stroke-width=".5" x="0" y="0" width="60" height="60"/>
  <use id="zoomplus" xlink:href="#zoomPlus" x="17" y="9" onmousedown="handleZoom(evt,'in')"/>
  <use id="zoomminus" xlink:href="#zoomMin" x="42" y="9" onmousedown="handleZoom(evt,'out')"/>
  <use id="reset" xlink:href="#resetDef" x="30" y="36" onmousedown="handleReset()"/>
   <use id="arrowup" xlink:href="#arrowUp" x="0" y="0" onmousedown="handlePan(0,-1)"/>
  <use id="arrowright" xlink:href="#arrowRight" x="0" y="0" onmousedown="handlePan(1,0)"/>
  <use id="arrowdown" xlink:href="#arrowDown" x="0" y="0" onmousedown="handlePan(0,1)"/>
  <use id="arrowleft" xlink:href="#arrowLeft" x="0" y="0" onmousedown="handlePan(-1,0)"/>
</g>
<svg viewBox="0 0 15 15" width="100%" height="30px" preserveAspectRatio="xMaxYMin meet">
 <g id="arrow_out" transform="scale(0.3 0.3)">
  <a xlink:href="_shiny_manager_8h_a6e023ab8388f04a35882e975b654cf31_cgraph_org.svg" target="_base">
   <rect id="button" ry="5" rx="5" y="6" x="6" height="38" width="38"
        fill="#f2f5e9" fill-opacity="0.5" stroke="#606060" stroke-width="1.0"/>
   <path id="arrow"
     d="M 11.500037,31.436501 C 11.940474,20.09759 22.043105,11.32322 32.158766,21.979434 L 37.068811,17.246167 C 37.068811,17.246167 37.088388,32 37.088388,32 L 22.160133,31.978069 C 22.160133,31.978069 26.997745,27.140456 26.997745,27.140456 C 18.528582,18.264221 13.291696,25.230495 11.500037,31.436501 z"
     style="fill:#404040;"/>
  </a>
 </g>
</svg>

<style type='text/css'>
<![CDATA[
[data-mouse-over-selected='false'] { opacity: 0.7; }
[data-mouse-over-selected='true']  { opacity: 1.0; }
]]>
</style>
<script type="application/ecmascript"><![CDATA[
document.addEventListener('DOMContentLoaded', (event) => {
  highlightEdges();
  highlightAdjacentNodes();
});
]]></script>
</svg>
