<?xml version="1.0" encoding="UTF-8" standalone="no"?>
<!DOCTYPE svg PUBLIC "-//W3C//DTD SVG 1.1//EN"
 "http://www.w3.org/Graphics/SVG/1.1/DTD/svg11.dtd">
<!-- Generated by graphviz version 8.1.0 (20230707.0739)
 -->
<!-- Title: Slic3r::GUI::Config::unquote_value Pages: 1 -->
<!--zoomable 110 -->

<svg id="main" version="1.1" xmlns="http://www.w3.org/2000/svg" xmlns:xlink="http://www.w3.org/1999/xlink" xml:space="preserve" onload="init(evt)">
<style type="text/css"><![CDATA[
.node, .edge {opacity: 0.7;}
.node.selected, .edge.selected {opacity: 1;}
.edge:hover path { stroke: red; }
.edge:hover polygon { stroke: red; fill: red; }
]]></style>

<defs>
  <circle id="rim" cx="0" cy="0" r="7"/>
  <circle id="rim2" cx="0" cy="0" r="3.5"/>
  <g id="zoomPlus">
    <use xlink:href="#rim" fill="#404040"><set attributeName="fill" to="#808080" begin="zoomplus.mouseover" end="zoomplus.mouseout"/></use>
    <path d="M-4,0h8M0,-4v8" fill="none" stroke="white" stroke-width="1.5" pointer-events="none"/>
  </g>
  <g id="zoomMin">
    <use xlink:href="#rim" fill="#404040"><set attributeName="fill" to="#808080" begin="zoomminus.mouseover" end="zoomminus.mouseout"/></use>
    <path d="M-4,0h8" fill="none" stroke="white" stroke-width="1.5" pointer-events="none"/>
  </g>
  <g id="arrowUp" transform="translate(30 24)">
    <use xlink:href="#rim"/>
    <path pointer-events="none" fill="none" stroke="white" stroke-width="1.5" d="M0,-3.0v7 M-2.5,-0.5L0,-3.0L2.5,-0.5"/>
  </g>
  <g id="arrowRight" transform="rotate(90) translate(36 -43)">
    <use xlink:href="#rim"/>
    <path pointer-events="none" fill="none" stroke="white" stroke-width="1.5" d="M0,-3.0v7 M-2.5,-0.5L0,-3.0L2.5,-0.5"/>
  </g>
  <g id="arrowDown" transform="rotate(180) translate(-30 -48)">
    <use xlink:href="#rim"/>
    <path pointer-events="none" fill="none" stroke="white" stroke-width="1.5" d="M0,-3.0v7 M-2.5,-0.5L0,-3.0L2.5,-0.5"/>
  </g>
  <g id="arrowLeft" transform="rotate(270) translate(-36 17)">
    <use xlink:href="#rim"/>
    <path pointer-events="none" fill="none" stroke="white" stroke-width="1.5" d="M0,-3.0v7 M-2.5,-0.5L0,-3.0L2.5,-0.5"/>
  </g>
  <g id="resetDef">
    <use xlink:href="#rim2" fill="#404040"><set attributeName="fill" to="#808080" begin="reset.mouseover" end="reset.mouseout"/></use>
  </g>
</defs>
<script type="application/ecmascript">
var viewWidth = 690;
var viewHeight = 110;
var sectionId = 'dynsection-10';
</script>
<script type="application/ecmascript" xlink:href="../../svg.min.js"/>
<svg id="graph" class="graph">
<g id="viewport">
<title>Slic3r::GUI::Config::unquote_value</title>
<!-- Node1 -->
<g id="Node000001" class="node">
<title>Node1</title>
<g id="a_Node000001"><a xlink:title=" ">
<polygon fill="#999999" stroke="#666666" points="681.5,-66.12 582.25,-66.12 582.25,-35.62 681.5,-35.62 681.5,-66.12"/>
<text text-anchor="start" x="590.25" y="-52.62" font-family="Helvetica,sans-Serif" font-size="10.00">Slic3r::GUI::Config</text>
<text text-anchor="middle" x="631.88" y="-41.38" font-family="Helvetica,sans-Serif" font-size="10.00">::unquote_value</text>
</a>
</g>
</g>
<!-- Node2 -->
<g id="Node000002" class="node">
<title>Node2</title>
<g id="a_Node000002"><a xlink:href="../../d8/df0/class_slic3r_1_1_g_u_i_1_1_config_1_1_index.html#a4e8ac4c8876fd25e06e8b56dc1da660b" target="_top" xlink:title=" ">
<polygon fill="white" stroke="#666666" points="546.25,-66.12 447,-66.12 447,-35.62 546.25,-35.62 546.25,-66.12"/>
<text text-anchor="start" x="455" y="-52.62" font-family="Helvetica,sans-Serif" font-size="10.00">Slic3r::GUI::Config</text>
<text text-anchor="middle" x="496.62" y="-41.38" font-family="Helvetica,sans-Serif" font-size="10.00">::Index::load</text>
</a>
</g>
</g>
<!-- Node1&#45;&gt;Node2 -->
<g id="edge1_Node000001_Node000002" class="edge">
<title>Node1&#45;&gt;Node2</title>
<g id="a_edge1_Node000001_Node000002"><a xlink:title=" ">
<path fill="none" stroke="#63b8ff" d="M571.25,-50.88C562.97,-50.88 554.54,-50.88 546.48,-50.88"/>
<polygon fill="#63b8ff" stroke="#63b8ff" points="571.01,-54.38 581.01,-50.88 571.01,-47.38 571.01,-54.38"/>
</a>
</g>
</g>
<!-- Node3 -->
<g id="Node000003" class="node">
<title>Node3</title>
<g id="a_Node000003"><a xlink:href="../../d8/df0/class_slic3r_1_1_g_u_i_1_1_config_1_1_index.html#adc3a5460d38366d4c4c0ce2fe24b691c" target="_top" xlink:title=" ">
<polygon fill="white" stroke="#666666" points="411,-66.12 311.75,-66.12 311.75,-35.62 411,-35.62 411,-66.12"/>
<text text-anchor="start" x="319.75" y="-52.62" font-family="Helvetica,sans-Serif" font-size="10.00">Slic3r::GUI::Config</text>
<text text-anchor="middle" x="361.38" y="-41.38" font-family="Helvetica,sans-Serif" font-size="10.00">::Index::load_db</text>
</a>
</g>
</g>
<!-- Node2&#45;&gt;Node3 -->
<g id="edge2_Node000002_Node000003" class="edge">
<title>Node2&#45;&gt;Node3</title>
<g id="a_edge2_Node000002_Node000003"><a xlink:title=" ">
<path fill="none" stroke="#63b8ff" d="M436,-50.88C427.72,-50.88 419.29,-50.88 411.23,-50.88"/>
<polygon fill="#63b8ff" stroke="#63b8ff" points="435.76,-54.38 445.76,-50.88 435.76,-47.38 435.76,-54.38"/>
</a>
</g>
</g>
<!-- Node4 -->
<g id="Node000004" class="node">
<title>Node4</title>
<g id="a_Node000004"><a xlink:href="../../dd/d58/class_slic3r_1_1_g_u_i_1_1_config_1_1_snapshot_d_b.html#abf6569cf9bfffb72bd84da626ba9d3e6" target="_top" xlink:title=" ">
<polygon fill="white" stroke="#666666" points="275.75,-66.12 153.25,-66.12 153.25,-35.62 275.75,-35.62 275.75,-66.12"/>
<text text-anchor="start" x="161.25" y="-52.62" font-family="Helvetica,sans-Serif" font-size="10.00">Slic3r::GUI::Config</text>
<text text-anchor="middle" x="214.5" y="-41.38" font-family="Helvetica,sans-Serif" font-size="10.00">::SnapshotDB::singleton</text>
</a>
</g>
</g>
<!-- Node3&#45;&gt;Node4 -->
<g id="edge3_Node000003_Node000004" class="edge">
<title>Node3&#45;&gt;Node4</title>
<g id="a_edge3_Node000003_Node000004"><a xlink:title=" ">
<path fill="none" stroke="#63b8ff" d="M300.5,-50.88C292.43,-50.88 284.14,-50.88 276.06,-50.88"/>
<polygon fill="#63b8ff" stroke="#63b8ff" points="300.33,-54.38 310.33,-50.88 300.33,-47.38 300.33,-54.38"/>
</a>
</g>
</g>
<!-- Node5 -->
<g id="Node000005" class="node">
<title>Node5</title>
<g id="a_Node000005"><a xlink:href="../../d9/d53/namespace_slic3r_1_1_g_u_i_1_1_config.html#abf6c228271ab6eee45e15a31c68c527f" target="_top" xlink:title=" ">
<polygon fill="white" stroke="#666666" points="117.25,-101.75 0,-101.75 0,-60 117.25,-60 117.25,-101.75"/>
<text text-anchor="start" x="8" y="-88.25" font-family="Helvetica,sans-Serif" font-size="10.00">Slic3r::GUI::Config</text>
<text text-anchor="start" x="8" y="-77" font-family="Helvetica,sans-Serif" font-size="10.00">::take_config_snapshot</text>
<text text-anchor="middle" x="58.62" y="-65.75" font-family="Helvetica,sans-Serif" font-size="10.00">_cancel_on_error</text>
</a>
</g>
</g>
<!-- Node4&#45;&gt;Node5 -->
<g id="edge4_Node000004_Node000005" class="edge">
<title>Node4&#45;&gt;Node5</title>
<g id="a_edge4_Node000004_Node000005"><a xlink:title=" ">
<path fill="none" stroke="#63b8ff" d="M142.59,-64.7C134.21,-66.33 125.73,-67.99 117.56,-69.58"/>
<polygon fill="#63b8ff" stroke="#63b8ff" points="142.98,-67.99 152.13,-62.65 141.64,-61.12 142.98,-67.99"/>
</a>
</g>
</g>
<!-- Node6 -->
<g id="Node000006" class="node">
<title>Node6</title>
<g id="a_Node000006"><a xlink:href="../../d9/d53/namespace_slic3r_1_1_g_u_i_1_1_config.html#ab47ee9f35c4bf22b3fbaa83110d22f28" target="_top" xlink:title=" ">
<polygon fill="white" stroke="#666666" points="117.25,-41.75 0,-41.75 0,0 117.25,0 117.25,-41.75"/>
<text text-anchor="start" x="8" y="-28.25" font-family="Helvetica,sans-Serif" font-size="10.00">Slic3r::GUI::Config</text>
<text text-anchor="start" x="8" y="-17" font-family="Helvetica,sans-Serif" font-size="10.00">::take_config_snapshot</text>
<text text-anchor="middle" x="58.62" y="-5.75" font-family="Helvetica,sans-Serif" font-size="10.00">_report_error</text>
</a>
</g>
</g>
<!-- Node4&#45;&gt;Node6 -->
<g id="edge5_Node000004_Node000006" class="edge">
<title>Node4&#45;&gt;Node6</title>
<g id="a_edge5_Node000004_Node000006"><a xlink:title=" ">
<path fill="none" stroke="#63b8ff" d="M142.59,-37.05C134.21,-35.42 125.73,-33.76 117.56,-32.17"/>
<polygon fill="#63b8ff" stroke="#63b8ff" points="141.64,-40.63 152.13,-39.1 142.98,-33.76 141.64,-40.63"/>
</a>
</g>
</g>
</g>
</svg>

<g id="navigator" transform="translate(0 0)" fill="#404254">
  <rect fill="#f2f5e9" fill-opacity="0.5" stroke="#606060" stroke-width=".5" x="0" y="0" width="60" height="60"/>
  <use id="zoomplus" xlink:href="#zoomPlus" x="17" y="9" onmousedown="handleZoom(evt,'in')"/>
  <use id="zoomminus" xlink:href="#zoomMin" x="42" y="9" onmousedown="handleZoom(evt,'out')"/>
  <use id="reset" xlink:href="#resetDef" x="30" y="36" onmousedown="handleReset()"/>
   <use id="arrowup" xlink:href="#arrowUp" x="0" y="0" onmousedown="handlePan(0,-1)"/>
  <use id="arrowright" xlink:href="#arrowRight" x="0" y="0" onmousedown="handlePan(1,0)"/>
  <use id="arrowdown" xlink:href="#arrowDown" x="0" y="0" onmousedown="handlePan(0,1)"/>
  <use id="arrowleft" xlink:href="#arrowLeft" x="0" y="0" onmousedown="handlePan(-1,0)"/>
</g>
<svg viewBox="0 0 15 15" width="100%" height="30px" preserveAspectRatio="xMaxYMin meet">
 <g id="arrow_out" transform="scale(0.3 0.3)">
  <a xlink:href="namespace_slic3r_1_1_g_u_i_1_1_config_a8442dc3a1f31ffab0f1e5d9f159c0f01_icgraph_org.svg" target="_base">
   <rect id="button" ry="5" rx="5" y="6" x="6" height="38" width="38"
        fill="#f2f5e9" fill-opacity="0.5" stroke="#606060" stroke-width="1.0"/>
   <path id="arrow"
     d="M 11.500037,31.436501 C 11.940474,20.09759 22.043105,11.32322 32.158766,21.979434 L 37.068811,17.246167 C 37.068811,17.246167 37.088388,32 37.088388,32 L 22.160133,31.978069 C 22.160133,31.978069 26.997745,27.140456 26.997745,27.140456 C 18.528582,18.264221 13.291696,25.230495 11.500037,31.436501 z"
     style="fill:#404040;"/>
  </a>
 </g>
</svg>

<style type='text/css'>
<![CDATA[
[data-mouse-over-selected='false'] { opacity: 0.7; }
[data-mouse-over-selected='true']  { opacity: 1.0; }
]]>
</style>
<script type="application/ecmascript"><![CDATA[
document.addEventListener('DOMContentLoaded', (event) => {
  highlightEdges();
  highlightAdjacentNodes();
});
]]></script>
</svg>
