<?xml version="1.0" encoding="UTF-8" standalone="no"?>
<!DOCTYPE svg PUBLIC "-//W3C//DTD SVG 1.1//EN"
 "http://www.w3.org/Graphics/SVG/1.1/DTD/svg11.dtd">
<!-- Generated by graphviz version 8.1.0 (20230707.0739)
 -->
<!-- Title: Slic3r::GUI::Tab::on_presets_changed Pages: 1 -->
<!--zoomable 185 -->

<svg id="main" version="1.1" xmlns="http://www.w3.org/2000/svg" xmlns:xlink="http://www.w3.org/1999/xlink" xml:space="preserve" onload="init(evt)">
<style type="text/css"><![CDATA[
.node, .edge {opacity: 0.7;}
.node.selected, .edge.selected {opacity: 1;}
.edge:hover path { stroke: red; }
.edge:hover polygon { stroke: red; fill: red; }
]]></style>

<defs>
  <circle id="rim" cx="0" cy="0" r="7"/>
  <circle id="rim2" cx="0" cy="0" r="3.5"/>
  <g id="zoomPlus">
    <use xlink:href="#rim" fill="#404040"><set attributeName="fill" to="#808080" begin="zoomplus.mouseover" end="zoomplus.mouseout"/></use>
    <path d="M-4,0h8M0,-4v8" fill="none" stroke="white" stroke-width="1.5" pointer-events="none"/>
  </g>
  <g id="zoomMin">
    <use xlink:href="#rim" fill="#404040"><set attributeName="fill" to="#808080" begin="zoomminus.mouseover" end="zoomminus.mouseout"/></use>
    <path d="M-4,0h8" fill="none" stroke="white" stroke-width="1.5" pointer-events="none"/>
  </g>
  <g id="arrowUp" transform="translate(30 24)">
    <use xlink:href="#rim"/>
    <path pointer-events="none" fill="none" stroke="white" stroke-width="1.5" d="M0,-3.0v7 M-2.5,-0.5L0,-3.0L2.5,-0.5"/>
  </g>
  <g id="arrowRight" transform="rotate(90) translate(36 -43)">
    <use xlink:href="#rim"/>
    <path pointer-events="none" fill="none" stroke="white" stroke-width="1.5" d="M0,-3.0v7 M-2.5,-0.5L0,-3.0L2.5,-0.5"/>
  </g>
  <g id="arrowDown" transform="rotate(180) translate(-30 -48)">
    <use xlink:href="#rim"/>
    <path pointer-events="none" fill="none" stroke="white" stroke-width="1.5" d="M0,-3.0v7 M-2.5,-0.5L0,-3.0L2.5,-0.5"/>
  </g>
  <g id="arrowLeft" transform="rotate(270) translate(-36 17)">
    <use xlink:href="#rim"/>
    <path pointer-events="none" fill="none" stroke="white" stroke-width="1.5" d="M0,-3.0v7 M-2.5,-0.5L0,-3.0L2.5,-0.5"/>
  </g>
  <g id="resetDef">
    <use xlink:href="#rim2" fill="#404040"><set attributeName="fill" to="#808080" begin="reset.mouseover" end="reset.mouseout"/></use>
  </g>
</defs>
<script type="application/ecmascript">
var viewWidth = 1101;
var viewHeight = 185;
var sectionId = 'dynsection-51';
</script>
<script type="application/ecmascript" xlink:href="../../svg.min.js"/>
<svg id="graph" class="graph">
<g id="viewport">
<title>Slic3r::GUI::Tab::on_presets_changed</title>
<!-- Node1 -->
<g id="Node000001" class="node">
<title>Node1</title>
<g id="a_Node000001"><a xlink:title=" ">
<polygon fill="#999999" stroke="#666666" points="1093,-128.12 990,-128.12 990,-97.62 1093,-97.62 1093,-128.12"/>
<text text-anchor="start" x="998" y="-114.62" font-family="Helvetica,sans-Serif" font-size="10.00">Slic3r::GUI::Tab::on</text>
<text text-anchor="middle" x="1041.5" y="-103.38" font-family="Helvetica,sans-Serif" font-size="10.00">_presets_changed</text>
</a>
</g>
</g>
<!-- Node2 -->
<g id="Node000002" class="node">
<title>Node2</title>
<g id="a_Node000002"><a xlink:href="../../d1/db7/class_slic3r_1_1_g_u_i_1_1_tab_printer.html#ac8e2e54cc743f2604541077e6c487f8e" target="_top" xlink:title=" ">
<polygon fill="white" stroke="#666666" points="954,-177.12 818.75,-177.12 818.75,-146.62 954,-146.62 954,-177.12"/>
<text text-anchor="start" x="826.75" y="-163.62" font-family="Helvetica,sans-Serif" font-size="10.00">Slic3r::GUI::TabPrinter</text>
<text text-anchor="middle" x="886.38" y="-152.38" font-family="Helvetica,sans-Serif" font-size="10.00">::create_bed_shape_widget</text>
</a>
</g>
</g>
<!-- Node1&#45;&gt;Node2 -->
<g id="edge1_Node000001_Node000002" class="edge">
<title>Node1&#45;&gt;Node2</title>
<g id="a_edge1_Node000001_Node000002"><a xlink:title=" ">
<path fill="none" stroke="#63b8ff" d="M981.53,-131.75C966.67,-136.5 950.89,-141.55 936.57,-146.13"/>
<polygon fill="#63b8ff" stroke="#63b8ff" points="982.17,-134.89 990.63,-128.51 980.04,-128.23 982.17,-134.89"/>
</a>
</g>
</g>
<!-- Node3 -->
<g id="Node000003" class="node">
<title>Node3</title>
<g id="a_Node000003"><a xlink:href="../../d2/df9/class_slic3r_1_1_g_u_i_1_1_tab.html#a3cbf881d536f1422c5475f4c2190a52f" target="_top" xlink:title=" ">
<polygon fill="white" stroke="#666666" points="941.62,-128.12 831.12,-128.12 831.12,-97.62 941.62,-97.62 941.62,-128.12"/>
<text text-anchor="start" x="839.12" y="-114.62" font-family="Helvetica,sans-Serif" font-size="10.00">Slic3r::GUI::Tab::load</text>
<text text-anchor="middle" x="886.38" y="-103.38" font-family="Helvetica,sans-Serif" font-size="10.00">_current_preset</text>
</a>
</g>
</g>
<!-- Node1&#45;&gt;Node3 -->
<g id="edge2_Node000001_Node000003" class="edge">
<title>Node1&#45;&gt;Node3</title>
<g id="a_edge2_Node000001_Node000003"><a xlink:title=" ">
<path fill="none" stroke="#63b8ff" d="M978.59,-106.24C966.51,-106.05 953.92,-106.1 942.08,-106.38"/>
<polygon fill="#63b8ff" stroke="#63b8ff" points="978.44,-109.76 988.51,-106.47 978.59,-102.76 978.44,-109.76"/>
</a>
</g>
</g>
<!-- Node4 -->
<g id="Node000004" class="node">
<title>Node4</title>
<g id="a_Node000004"><a xlink:href="../../d2/df9/class_slic3r_1_1_g_u_i_1_1_tab.html#a4ab96e08077e7de3d271496be634c41f" target="_top" xlink:title=" ">
<polygon fill="white" stroke="#666666" points="628,-85.12 509.25,-85.12 509.25,-54.62 628,-54.62 628,-85.12"/>
<text text-anchor="start" x="517.25" y="-71.62" font-family="Helvetica,sans-Serif" font-size="10.00">Slic3r::GUI::Tab::select</text>
<text text-anchor="middle" x="568.62" y="-60.38" font-family="Helvetica,sans-Serif" font-size="10.00">_preset</text>
</a>
</g>
</g>
<!-- Node1&#45;&gt;Node4 -->
<g id="edge14_Node000001_Node000004" class="edge">
<title>Node1&#45;&gt;Node4</title>
<g id="a_edge14_Node000001_Node000004"><a xlink:title=" ">
<path fill="none" stroke="#63b8ff" d="M980.46,-94.38C971.65,-92.21 962.64,-90.27 954,-88.88 839.72,-70.43 704.08,-68.25 628.33,-68.77"/>
<polygon fill="#63b8ff" stroke="#63b8ff" points="979.5,-98.01 990.06,-97.13 981.26,-91.23 979.5,-98.01"/>
</a>
</g>
</g>
<!-- Node10 -->
<g id="Node000010" class="node">
<title>Node10</title>
<g id="a_Node000010"><a xlink:href="../../d2/df9/class_slic3r_1_1_g_u_i_1_1_tab.html#abd9c0194d18040225993b9076d08883a" target="_top" xlink:title=" ">
<polygon fill="white" stroke="#666666" points="943.12,-39.12 829.62,-39.12 829.62,-8.62 943.12,-8.62 943.12,-39.12"/>
<text text-anchor="start" x="837.62" y="-25.62" font-family="Helvetica,sans-Serif" font-size="10.00">Slic3r::GUI::Tab::save</text>
<text text-anchor="middle" x="886.38" y="-14.38" font-family="Helvetica,sans-Serif" font-size="10.00">_preset</text>
</a>
</g>
</g>
<!-- Node1&#45;&gt;Node10 -->
<g id="edge10_Node000001_Node000010" class="edge">
<title>Node1&#45;&gt;Node10</title>
<g id="a_edge10_Node000001_Node000010"><a xlink:title=" ">
<path fill="none" stroke="#63b8ff" d="M1009.59,-91.04C993.37,-79.96 972.97,-66.62 954,-55.88 943.95,-50.18 932.73,-44.54 922.41,-39.61"/>
<polygon fill="#63b8ff" stroke="#63b8ff" points="1007.4,-94.47 1017.61,-97.27 1011.37,-88.71 1007.4,-94.47"/>
</a>
</g>
</g>
<!-- Node3&#45;&gt;Node1 -->
<g id="edge3_Node000003_Node000001" class="edge">
<title>Node3&#45;&gt;Node1</title>
<g id="a_edge3_Node000003_Node000001"><a xlink:title=" ">
<path fill="none" stroke="#63b8ff" d="M952.75,-119.56C965.05,-119.7 977.74,-119.61 989.51,-119.28"/>
<polygon fill="#63b8ff" stroke="#63b8ff" points="953.14,-116.05 943.08,-119.37 953.02,-123.05 953.14,-116.05"/>
</a>
</g>
</g>
<!-- Node3&#45;&gt;Node4 -->
<g id="edge4_Node000003_Node000004" class="edge">
<title>Node3&#45;&gt;Node4</title>
<g id="a_edge4_Node000003_Node000004"><a xlink:title=" ">
<path fill="none" stroke="#63b8ff" d="M819.91,-104.09C777.39,-98.36 720.78,-90.72 670.75,-83.88 657.05,-82 642.31,-79.97 628.44,-78.05"/>
<polygon fill="#63b8ff" stroke="#63b8ff" points="819.3,-107.67 829.68,-105.53 820.23,-100.73 819.3,-107.67"/>
</a>
</g>
</g>
<!-- Node5 -->
<g id="Node000005" class="node">
<title>Node5</title>
<g id="a_Node000005"><a xlink:href="../../d2/df9/class_slic3r_1_1_g_u_i_1_1_tab.html#ae8207dd15bf880dbf2e1b1b8c5ead931" target="_top" xlink:title=" ">
<polygon fill="white" stroke="#666666" points="448.12,-112.12 329.38,-112.12 329.38,-81.62 448.12,-81.62 448.12,-112.12"/>
<text text-anchor="start" x="337.38" y="-98.62" font-family="Helvetica,sans-Serif" font-size="10.00">Slic3r::GUI::Tab::delete</text>
<text text-anchor="middle" x="388.75" y="-87.38" font-family="Helvetica,sans-Serif" font-size="10.00">_preset</text>
</a>
</g>
</g>
<!-- Node4&#45;&gt;Node5 -->
<g id="edge5_Node000004_Node000005" class="edge">
<title>Node4&#45;&gt;Node5</title>
<g id="a_edge5_Node000004_Node000005"><a xlink:title=" ">
<path fill="none" stroke="#63b8ff" d="M498.23,-80.41C481.76,-82.91 464.36,-85.55 448.42,-87.97"/>
<polygon fill="#63b8ff" stroke="#63b8ff" points="498.53,-83.75 507.89,-78.79 497.48,-76.83 498.53,-83.75"/>
</a>
</g>
</g>
<!-- Node6 -->
<g id="Node000006" class="node">
<title>Node6</title>
<g id="a_Node000006"><a xlink:href="../../dc/d5e/class_slic3r_1_1_g_u_i_1_1_preset_combo_box.html#a48efe4be89d52e1bb3a8469ec8af0ba9" target="_top" xlink:title=" ">
<polygon fill="white" stroke="#666666" points="466.5,-63.75 311,-63.75 311,-22 466.5,-22 466.5,-63.75"/>
<text text-anchor="start" x="319" y="-50.25" font-family="Helvetica,sans-Serif" font-size="10.00">Slic3r::GUI::PresetCombo</text>
<text text-anchor="start" x="319" y="-39" font-family="Helvetica,sans-Serif" font-size="10.00">Box::selection_is_changed</text>
<text text-anchor="middle" x="388.75" y="-27.75" font-family="Helvetica,sans-Serif" font-size="10.00">_according_to_physical_printers</text>
</a>
</g>
</g>
<!-- Node4&#45;&gt;Node6 -->
<g id="edge6_Node000004_Node000006" class="edge">
<title>Node4&#45;&gt;Node6</title>
<g id="a_edge6_Node000004_Node000006"><a xlink:title=" ">
<path fill="none" stroke="#63b8ff" d="M498.3,-59.35C487.98,-57.79 477.29,-56.16 466.82,-54.57"/>
<polygon fill="#63b8ff" stroke="#63b8ff" points="497.48,-62.92 507.89,-60.96 498.53,-56 497.48,-62.92"/>
</a>
</g>
</g>
<!-- Node7 -->
<g id="Node000007" class="node">
<title>Node7</title>
<g id="a_Node000007"><a xlink:href="../../d2/df9/class_slic3r_1_1_g_u_i_1_1_tab.html#aed62949d2c742438ecf8aa8ccc36e922" target="_top" xlink:title=" ">
<polygon fill="white" stroke="#666666" points="275,-83.12 155.5,-83.12 155.5,-52.62 275,-52.62 275,-83.12"/>
<text text-anchor="start" x="163.5" y="-69.62" font-family="Helvetica,sans-Serif" font-size="10.00">Slic3r::GUI::Tab::create</text>
<text text-anchor="middle" x="215.25" y="-58.38" font-family="Helvetica,sans-Serif" font-size="10.00">_preset_tab</text>
</a>
</g>
</g>
<!-- Node6&#45;&gt;Node7 -->
<g id="edge7_Node000006_Node000007" class="edge">
<title>Node6&#45;&gt;Node7</title>
<g id="a_edge7_Node000006_Node000007"><a xlink:title=" ">
<path fill="none" stroke="#63b8ff" d="M299.69,-55.71C291.43,-56.92 283.2,-58.12 275.31,-59.27"/>
<polygon fill="#63b8ff" stroke="#63b8ff" points="300.14,-59.04 309.53,-54.13 299.13,-52.11 300.14,-59.04"/>
</a>
</g>
</g>
<!-- Node9 -->
<g id="Node000009" class="node">
<title>Node9</title>
<g id="a_Node000009"><a xlink:href="../../d4/d88/struct_slic3r_1_1_g_u_i_1_1_plater_1_1priv.html#a22b5c650b7630e359a3ea957af2ff0ac" target="_top" xlink:title=" ">
<polygon fill="white" stroke="#666666" points="274.25,-34.12 156.25,-34.12 156.25,-3.62 274.25,-3.62 274.25,-34.12"/>
<text text-anchor="start" x="164.25" y="-20.62" font-family="Helvetica,sans-Serif" font-size="10.00">Slic3r::GUI::Plater</text>
<text text-anchor="middle" x="215.25" y="-9.38" font-family="Helvetica,sans-Serif" font-size="10.00">::priv::on_select_preset</text>
</a>
</g>
</g>
<!-- Node6&#45;&gt;Node9 -->
<g id="edge9_Node000006_Node000009" class="edge">
<title>Node6&#45;&gt;Node9</title>
<g id="a_edge9_Node000006_Node000009"><a xlink:title=" ">
<path fill="none" stroke="#63b8ff" d="M299.73,-30.56C291.19,-29.36 282.68,-28.17 274.54,-27.03"/>
<polygon fill="#63b8ff" stroke="#63b8ff" points="299.14,-34.15 309.53,-32.07 300.11,-27.22 299.14,-34.15"/>
</a>
</g>
</g>
<!-- Node8 -->
<g id="Node000008" class="node">
<title>Node8</title>
<g id="a_Node000008"><a xlink:href="../../d3/d17/class_slic3r_1_1_g_u_i_1_1_main_frame.html#af591d7ac030549e5c990fde112f13df6" target="_top" xlink:title=" ">
<polygon fill="white" stroke="#666666" points="119.5,-83.12 0,-83.12 0,-52.62 119.5,-52.62 119.5,-83.12"/>
<text text-anchor="start" x="8" y="-69.62" font-family="Helvetica,sans-Serif" font-size="10.00">Slic3r::GUI::MainFrame</text>
<text text-anchor="middle" x="59.75" y="-58.38" font-family="Helvetica,sans-Serif" font-size="10.00">::add_created_tab</text>
</a>
</g>
</g>
<!-- Node7&#45;&gt;Node8 -->
<g id="edge8_Node000007_Node000008" class="edge">
<title>Node7&#45;&gt;Node8</title>
<g id="a_edge8_Node000007_Node000008"><a xlink:title=" ">
<path fill="none" stroke="#63b8ff" d="M144.55,-67.88C136.26,-67.88 127.87,-67.88 119.75,-67.88"/>
<polygon fill="#63b8ff" stroke="#63b8ff" points="144.34,-71.38 154.34,-67.88 144.34,-64.38 144.34,-71.38"/>
</a>
</g>
</g>
<!-- Node11 -->
<g id="Node000011" class="node">
<title>Node11</title>
<g id="a_Node000011"><a xlink:href="../../d2/df9/class_slic3r_1_1_g_u_i_1_1_tab.html#aa0bcb8f829e8932cbafccf6ab8639443" target="_top" xlink:title=" ">
<polygon fill="white" stroke="#666666" points="782.75,-41.75 670.75,-41.75 670.75,0 782.75,0 782.75,-41.75"/>
<text text-anchor="start" x="678.75" y="-28.25" font-family="Helvetica,sans-Serif" font-size="10.00">Slic3r::GUI::Tab::may</text>
<text text-anchor="start" x="678.75" y="-17" font-family="Helvetica,sans-Serif" font-size="10.00">_discard_current_dirty</text>
<text text-anchor="middle" x="726.75" y="-5.75" font-family="Helvetica,sans-Serif" font-size="10.00">_preset</text>
</a>
</g>
</g>
<!-- Node10&#45;&gt;Node11 -->
<g id="edge11_Node000010_Node000011" class="edge">
<title>Node10&#45;&gt;Node11</title>
<g id="a_edge11_Node000010_Node000011"><a xlink:title=" ">
<path fill="none" stroke="#63b8ff" d="M818.61,-22.6C806.76,-22.38 794.54,-22.15 783.06,-21.93"/>
<polygon fill="#63b8ff" stroke="#63b8ff" points="818.29,-26.12 828.36,-22.81 818.43,-19.12 818.29,-26.12"/>
</a>
</g>
</g>
<!-- Node11&#45;&gt;Node4 -->
<g id="edge13_Node000011_Node000004" class="edge">
<title>Node11&#45;&gt;Node4</title>
<g id="a_edge13_Node000011_Node000004"><a xlink:title=" ">
<path fill="none" stroke="#63b8ff" d="M660.07,-41.49C646.57,-45.72 632.57,-50.12 619.73,-54.15"/>
<polygon fill="#63b8ff" stroke="#63b8ff" points="660.77,-44.62 669.27,-38.29 658.68,-37.94 660.77,-44.62"/>
</a>
</g>
</g>
<!-- Node12 -->
<g id="Node000012" class="node">
<title>Node12</title>
<g id="a_Node000012"><a xlink:href="../../d8/d2d/class_slic3r_1_1_g_u_i_1_1_params_dialog.html#a3425eed7e7d06b05b25cb294ad65ddb0" target="_top" xlink:title=" ">
<polygon fill="white" stroke="#666666" points="634.75,-36.12 502.5,-36.12 502.5,-5.62 634.75,-5.62 634.75,-36.12"/>
<text text-anchor="start" x="510.5" y="-22.62" font-family="Helvetica,sans-Serif" font-size="10.00">Slic3r::GUI::ParamsDialog</text>
<text text-anchor="middle" x="568.62" y="-11.38" font-family="Helvetica,sans-Serif" font-size="10.00">::ParamsDialog</text>
</a>
</g>
</g>
<!-- Node11&#45;&gt;Node12 -->
<g id="edge12_Node000011_Node000012" class="edge">
<title>Node11&#45;&gt;Node12</title>
<g id="a_edge12_Node000011_Node000012"><a xlink:title=" ">
<path fill="none" stroke="#63b8ff" d="M659.41,-20.88C651.35,-20.88 643.12,-20.88 635.07,-20.88"/>
<polygon fill="#63b8ff" stroke="#63b8ff" points="659.27,-24.38 669.27,-20.88 659.27,-17.38 659.27,-24.38"/>
</a>
</g>
</g>
</g>
</svg>

<g id="navigator" transform="translate(0 0)" fill="#404254">
  <rect fill="#f2f5e9" fill-opacity="0.5" stroke="#606060" stroke-width=".5" x="0" y="0" width="60" height="60"/>
  <use id="zoomplus" xlink:href="#zoomPlus" x="17" y="9" onmousedown="handleZoom(evt,'in')"/>
  <use id="zoomminus" xlink:href="#zoomMin" x="42" y="9" onmousedown="handleZoom(evt,'out')"/>
  <use id="reset" xlink:href="#resetDef" x="30" y="36" onmousedown="handleReset()"/>
   <use id="arrowup" xlink:href="#arrowUp" x="0" y="0" onmousedown="handlePan(0,-1)"/>
  <use id="arrowright" xlink:href="#arrowRight" x="0" y="0" onmousedown="handlePan(1,0)"/>
  <use id="arrowdown" xlink:href="#arrowDown" x="0" y="0" onmousedown="handlePan(0,1)"/>
  <use id="arrowleft" xlink:href="#arrowLeft" x="0" y="0" onmousedown="handlePan(-1,0)"/>
</g>
<svg viewBox="0 0 15 15" width="100%" height="30px" preserveAspectRatio="xMaxYMin meet">
 <g id="arrow_out" transform="scale(0.3 0.3)">
  <a xlink:href="class_slic3r_1_1_g_u_i_1_1_tab_a739e58704f24fdf63805f87edc2ea3a2_icgraph_org.svg" target="_base">
   <rect id="button" ry="5" rx="5" y="6" x="6" height="38" width="38"
        fill="#f2f5e9" fill-opacity="0.5" stroke="#606060" stroke-width="1.0"/>
   <path id="arrow"
     d="M 11.500037,31.436501 C 11.940474,20.09759 22.043105,11.32322 32.158766,21.979434 L 37.068811,17.246167 C 37.068811,17.246167 37.088388,32 37.088388,32 L 22.160133,31.978069 C 22.160133,31.978069 26.997745,27.140456 26.997745,27.140456 C 18.528582,18.264221 13.291696,25.230495 11.500037,31.436501 z"
     style="fill:#404040;"/>
  </a>
 </g>
</svg>

<style type='text/css'>
<![CDATA[
[data-mouse-over-selected='false'] { opacity: 0.7; }
[data-mouse-over-selected='true']  { opacity: 1.0; }
]]>
</style>
<script type="application/ecmascript"><![CDATA[
document.addEventListener('DOMContentLoaded', (event) => {
  highlightEdges();
  highlightAdjacentNodes();
});
]]></script>
</svg>
