<?xml version="1.0" encoding="UTF-8" standalone="no"?>
<!DOCTYPE svg PUBLIC "-//W3C//DTD SVG 1.1//EN"
 "http://www.w3.org/Graphics/SVG/1.1/DTD/svg11.dtd">
<!-- Generated by graphviz version 8.1.0 (20230707.0739)
 -->
<!-- Title: Slic3r::GUI::AssembleViewDataBase::get_pool Pages: 1 -->
<svg width="348pt" height="230pt"
 viewBox="0.00 0.00 347.50 229.75" xmlns="http://www.w3.org/2000/svg" xmlns:xlink="http://www.w3.org/1999/xlink">
<g id="graph0" class="graph" transform="scale(1 1) rotate(0) translate(4 225.75)">
<title>Slic3r::GUI::AssembleViewDataBase::get_pool</title>
<!-- Node1 -->
<g id="Node000001" class="node">
<title>Node1</title>
<g id="a_Node000001"><a xlink:title=" ">
<polygon fill="#999999" stroke="#666666" points="339.5,-126.12 203.5,-126.12 203.5,-95.62 339.5,-95.62 339.5,-126.12"/>
<text text-anchor="start" x="211.5" y="-112.62" font-family="Helvetica,sans-Serif" font-size="10.00">Slic3r::GUI::AssembleView</text>
<text text-anchor="middle" x="271.5" y="-101.38" font-family="Helvetica,sans-Serif" font-size="10.00">DataBase::get_pool</text>
</a>
</g>
</g>
<!-- Node2 -->
<g id="Node000002" class="node">
<title>Node2</title>
<g id="a_Node000002"><a xlink:href="../../d4/db7/class_slic3r_1_1_g_u_i_1_1_assemble_view_data_objects_1_1_model_objects_info.html#af0e2772f74f86ec988f6bf312e7269a1" target="_top" xlink:title=" ">
<polygon fill="white" stroke="#666666" points="160.38,-221.75 7.12,-221.75 7.12,-180 160.38,-180 160.38,-221.75"/>
<text text-anchor="start" x="15.12" y="-208.25" font-family="Helvetica,sans-Serif" font-size="10.00">Slic3r::GUI::AssembleView</text>
<text text-anchor="start" x="15.12" y="-197" font-family="Helvetica,sans-Serif" font-size="10.00">DataObjects::ModelObjectsInfo</text>
<text text-anchor="middle" x="83.75" y="-185.75" font-family="Helvetica,sans-Serif" font-size="10.00">::on_update</text>
</a>
</g>
</g>
<!-- Node1&#45;&gt;Node2 -->
<g id="edge1_Node000001_Node000002" class="edge">
<title>Node1&#45;&gt;Node2</title>
<g id="a_edge1_Node000001_Node000002"><a xlink:title=" ">
<path fill="none" stroke="#63b8ff" d="M237.41,-132.2C217.61,-144.44 191.66,-159.57 167.5,-170.88 160.99,-173.92 154.09,-176.86 147.15,-179.62"/>
<polygon fill="#63b8ff" stroke="#63b8ff" points="238.98,-134.72 245.61,-126.45 235.27,-128.78 238.98,-134.72"/>
</a>
</g>
</g>
<!-- Node3 -->
<g id="Node000003" class="node">
<title>Node3</title>
<g id="a_Node000003"><a xlink:href="../../dd/db5/class_slic3r_1_1_g_u_i_1_1_assemble_view_data_objects_1_1_model_objects_clipper.html#aeec38da647b27abb3062165e1efd3ef9" target="_top" xlink:title=" ">
<polygon fill="white" stroke="#666666" points="167.5,-161.75 0,-161.75 0,-120 167.5,-120 167.5,-161.75"/>
<text text-anchor="start" x="8" y="-148.25" font-family="Helvetica,sans-Serif" font-size="10.00">Slic3r::GUI::AssembleView</text>
<text text-anchor="start" x="8" y="-137" font-family="Helvetica,sans-Serif" font-size="10.00">DataObjects::ModelObjectsClipper</text>
<text text-anchor="middle" x="83.75" y="-125.75" font-family="Helvetica,sans-Serif" font-size="10.00">::on_update</text>
</a>
</g>
</g>
<!-- Node1&#45;&gt;Node3 -->
<g id="edge2_Node000001_Node000003" class="edge">
<title>Node1&#45;&gt;Node3</title>
<g id="a_edge2_Node000001_Node000003"><a xlink:title=" ">
<path fill="none" stroke="#63b8ff" d="M192.51,-123.47C184.3,-124.8 175.94,-126.15 167.68,-127.48"/>
<polygon fill="#63b8ff" stroke="#63b8ff" points="192.86,-126.8 202.18,-121.75 191.75,-119.89 192.86,-126.8"/>
</a>
</g>
</g>
<!-- Node4 -->
<g id="Node000004" class="node">
<title>Node4</title>
<g id="a_Node000004"><a xlink:href="../../dd/db5/class_slic3r_1_1_g_u_i_1_1_assemble_view_data_objects_1_1_model_objects_clipper.html#a5c70f794f6a83a04da47e635e2ef9eae" target="_top" xlink:title=" ">
<polygon fill="white" stroke="#666666" points="167.5,-101.75 0,-101.75 0,-60 167.5,-60 167.5,-101.75"/>
<text text-anchor="start" x="8" y="-88.25" font-family="Helvetica,sans-Serif" font-size="10.00">Slic3r::GUI::AssembleView</text>
<text text-anchor="start" x="8" y="-77" font-family="Helvetica,sans-Serif" font-size="10.00">DataObjects::ModelObjectsClipper</text>
<text text-anchor="middle" x="83.75" y="-65.75" font-family="Helvetica,sans-Serif" font-size="10.00">::render_cut</text>
</a>
</g>
</g>
<!-- Node1&#45;&gt;Node4 -->
<g id="edge3_Node000001_Node000004" class="edge">
<title>Node1&#45;&gt;Node4</title>
<g id="a_edge3_Node000001_Node000004"><a xlink:title=" ">
<path fill="none" stroke="#63b8ff" d="M192.51,-98.28C184.3,-96.95 175.94,-95.6 167.68,-94.27"/>
<polygon fill="#63b8ff" stroke="#63b8ff" points="191.75,-101.86 202.18,-100 192.86,-94.95 191.75,-101.86"/>
</a>
</g>
</g>
<!-- Node5 -->
<g id="Node000005" class="node">
<title>Node5</title>
<g id="a_Node000005"><a xlink:href="../../dd/db5/class_slic3r_1_1_g_u_i_1_1_assemble_view_data_objects_1_1_model_objects_clipper.html#aed5bcfde9e1930660405c39004153758" target="_top" xlink:title=" ">
<polygon fill="white" stroke="#666666" points="167.5,-41.75 0,-41.75 0,0 167.5,0 167.5,-41.75"/>
<text text-anchor="start" x="8" y="-28.25" font-family="Helvetica,sans-Serif" font-size="10.00">Slic3r::GUI::AssembleView</text>
<text text-anchor="start" x="8" y="-17" font-family="Helvetica,sans-Serif" font-size="10.00">DataObjects::ModelObjectsClipper</text>
<text text-anchor="middle" x="83.75" y="-5.75" font-family="Helvetica,sans-Serif" font-size="10.00">::set_position</text>
</a>
</g>
</g>
<!-- Node1&#45;&gt;Node5 -->
<g id="edge4_Node000001_Node000005" class="edge">
<title>Node1&#45;&gt;Node5</title>
<g id="a_edge4_Node000001_Node000005"><a xlink:title=" ">
<path fill="none" stroke="#63b8ff" d="M237.41,-89.55C217.61,-77.31 191.66,-62.18 167.5,-50.88 160.99,-47.83 154.09,-44.89 147.15,-42.13"/>
<polygon fill="#63b8ff" stroke="#63b8ff" points="235.27,-92.97 245.61,-95.3 238.98,-87.03 235.27,-92.97"/>
</a>
</g>
</g>
</g>
</svg>
