<?xml version="1.0" encoding="UTF-8" standalone="no"?>
<!DOCTYPE svg PUBLIC "-//W3C//DTD SVG 1.1//EN"
 "http://www.w3.org/Graphics/SVG/1.1/DTD/svg11.dtd">
<!-- Generated by graphviz version 8.1.0 (20230707.0739)
 -->
<!-- Title: Slic3r::GUI::GLGizmoText::delete_temp_preview_text_volume Pages: 1 -->
<svg width="1063pt" height="481pt"
 viewBox="0.00 0.00 1063.25 481.12" xmlns="http://www.w3.org/2000/svg" xmlns:xlink="http://www.w3.org/1999/xlink">
<g id="graph0" class="graph" transform="scale(1 1) rotate(0) translate(4 477.12)">
<title>Slic3r::GUI::GLGizmoText::delete_temp_preview_text_volume</title>
<!-- Node1 -->
<g id="Node000001" class="node">
<title>Node1</title>
<g id="a_Node000001"><a xlink:title=" ">
<polygon fill="#999999" stroke="#666666" points="172.75,-116.5 0,-116.5 0,-86 172.75,-86 172.75,-116.5"/>
<text text-anchor="start" x="8" y="-103" font-family="Helvetica,sans-Serif" font-size="10.00">Slic3r::GUI::GLGizmoText</text>
<text text-anchor="middle" x="86.38" y="-91.75" font-family="Helvetica,sans-Serif" font-size="10.00">::delete_temp_preview_text_volume</text>
</a>
</g>
</g>
<!-- Node2 -->
<g id="Node000002" class="node">
<title>Node2</title>
<g id="a_Node000002"><a xlink:href="../../d0/d23/class_slic3r_1_1_model_object.html#aa7f0a4b2ce4b0e888a35f68d8231ed96" target="_top" xlink:title=" ">
<polygon fill="white" stroke="#666666" points="324.5,-214.5 223,-214.5 223,-184 324.5,-184 324.5,-214.5"/>
<text text-anchor="start" x="231" y="-201" font-family="Helvetica,sans-Serif" font-size="10.00">Slic3r::ModelObject</text>
<text text-anchor="middle" x="273.75" y="-189.75" font-family="Helvetica,sans-Serif" font-size="10.00">::delete_volume</text>
</a>
</g>
</g>
<!-- Node1&#45;&gt;Node2 -->
<g id="edge1_Node000001_Node000002" class="edge">
<title>Node1&#45;&gt;Node2</title>
<g id="a_edge1_Node000001_Node000002"><a xlink:title=" ">
<path fill="none" stroke="#63b8ff" d="M110.44,-116.73C134.38,-132.41 173.22,-156.78 208.75,-174.25 212.28,-175.98 215.95,-177.68 219.69,-179.33"/>
<polygon fill="#63b8ff" stroke="#63b8ff" points="218.06,-182.87 228.63,-183.56 220.79,-176.43 218.06,-182.87"/>
</a>
</g>
</g>
<!-- Node20 -->
<g id="Node000020" class="node">
<title>Node20</title>
<g id="a_Node000020"><a xlink:href="../../dd/d6a/class_slic3r_1_1_g_u_i_1_1_selection.html#a7ede4b259e6cf5d97fbe1c034206611d" target="_top" xlink:title=" ">
<polygon fill="white" stroke="#666666" points="329.38,-165.5 218.12,-165.5 218.12,-135 329.38,-135 329.38,-165.5"/>
<text text-anchor="start" x="226.12" y="-152" font-family="Helvetica,sans-Serif" font-size="10.00">Slic3r::GUI::Selection</text>
<text text-anchor="middle" x="273.75" y="-140.75" font-family="Helvetica,sans-Serif" font-size="10.00">::get_model</text>
</a>
</g>
</g>
<!-- Node1&#45;&gt;Node20 -->
<g id="edge19_Node000001_Node000020" class="edge">
<title>Node1&#45;&gt;Node20</title>
<g id="a_edge19_Node000001_Node000020"><a xlink:title=" ">
<path fill="none" stroke="#63b8ff" d="M146.79,-116.96C166.09,-122.06 187.61,-127.75 207.33,-132.96"/>
<polygon fill="#63b8ff" stroke="#63b8ff" points="206.19,-136.54 216.76,-135.71 207.98,-129.77 206.19,-136.54"/>
</a>
</g>
</g>
<!-- Node21 -->
<g id="Node000021" class="node">
<title>Node21</title>
<g id="a_Node000021"><a xlink:href="../../d0/d2b/class_slic3r_1_1_g_u_i_1_1_g_l_canvas3_d.html#ae78f5459f862198d84d3624697bc190e" target="_top" xlink:title=" ">
<polygon fill="white" stroke="#666666" points="338.75,-116.5 208.75,-116.5 208.75,-86 338.75,-86 338.75,-116.5"/>
<text text-anchor="start" x="216.75" y="-103" font-family="Helvetica,sans-Serif" font-size="10.00">Slic3r::GUI::GLCanvas3D</text>
<text text-anchor="middle" x="273.75" y="-91.75" font-family="Helvetica,sans-Serif" font-size="10.00">::get_selection</text>
</a>
</g>
</g>
<!-- Node1&#45;&gt;Node21 -->
<g id="edge20_Node000001_Node000021" class="edge">
<title>Node1&#45;&gt;Node21</title>
<g id="a_edge20_Node000001_Node000021"><a xlink:title=" ">
<path fill="none" stroke="#63b8ff" d="M173.01,-101.25C181.16,-101.25 189.39,-101.25 197.43,-101.25"/>
<polygon fill="#63b8ff" stroke="#63b8ff" points="197.27,-104.75 207.27,-101.25 197.27,-97.75 197.27,-104.75"/>
</a>
</g>
</g>
<!-- Node22 -->
<g id="Node000022" class="node">
<title>Node22</title>
<g id="a_Node000022"><a xlink:href="../../d9/d45/namespace_slic3r_1_1_g_u_i.html#a40f49532eea1542b9be80eb93ed855eb" target="_top" xlink:title=" ">
<polygon fill="white" stroke="#666666" points="321.12,-67.88 226.38,-67.88 226.38,-48.62 321.12,-48.62 321.12,-67.88"/>
<text text-anchor="middle" x="273.75" y="-54.38" font-family="Helvetica,sans-Serif" font-size="10.00">Slic3r::GUI::plater</text>
</a>
</g>
</g>
<!-- Node1&#45;&gt;Node22 -->
<g id="edge21_Node000001_Node000022" class="edge">
<title>Node1&#45;&gt;Node22</title>
<g id="a_edge21_Node000001_Node000022"><a xlink:title=" ">
<path fill="none" stroke="#63b8ff" d="M155.09,-85.54C175.94,-80.71 198.62,-75.44 218.46,-70.84"/>
<polygon fill="#63b8ff" stroke="#63b8ff" points="219.2,-74.03 228.15,-68.36 217.62,-67.21 219.2,-74.03"/>
</a>
</g>
</g>
<!-- Node23 -->
<g id="Node000023" class="node">
<title>Node23</title>
<g id="a_Node000023"><a xlink:href="../../d7/d21/class_slic3r_1_1_g_u_i_1_1_plater.html#a7c4044c5cffe9c60ff8835a8b2e588f3" target="_top" xlink:title=" ">
<polygon fill="white" stroke="#666666" points="321.88,-30.5 225.62,-30.5 225.62,0 321.88,0 321.88,-30.5"/>
<text text-anchor="start" x="233.62" y="-17" font-family="Helvetica,sans-Serif" font-size="10.00">Slic3r::GUI::Plater</text>
<text text-anchor="middle" x="273.75" y="-5.75" font-family="Helvetica,sans-Serif" font-size="10.00">::update</text>
</a>
</g>
</g>
<!-- Node1&#45;&gt;Node23 -->
<g id="edge22_Node000001_Node000023" class="edge">
<title>Node1&#45;&gt;Node23</title>
<g id="a_edge22_Node000001_Node000023"><a xlink:title=" ">
<path fill="none" stroke="#63b8ff" d="M115.87,-85.53C140.19,-72.4 176.28,-53.58 208.75,-39.25 211.95,-37.84 215.27,-36.43 218.63,-35.05"/>
<polygon fill="#63b8ff" stroke="#63b8ff" points="219.78,-37.96 227.76,-30.99 217.18,-31.46 219.78,-37.96"/>
</a>
</g>
</g>
<!-- Node3 -->
<g id="Node000003" class="node">
<title>Node3</title>
<g id="a_Node000003"><a xlink:href="../../d6/d28/class_slic3r_1_1_geometry_1_1_transformation.html#a0fc8663b2798bffa7d5d7db77f259573" target="_top" xlink:title=" ">
<polygon fill="white" stroke="#666666" points="535.5,-351.5 374.75,-351.5 374.75,-321 535.5,-321 535.5,-351.5"/>
<text text-anchor="start" x="382.75" y="-338" font-family="Helvetica,sans-Serif" font-size="10.00">Slic3r::Geometry::Transformation</text>
<text text-anchor="middle" x="455.12" y="-326.75" font-family="Helvetica,sans-Serif" font-size="10.00">::get_matrix</text>
</a>
</g>
</g>
<!-- Node2&#45;&gt;Node3 -->
<g id="edge2_Node000002_Node000003" class="edge">
<title>Node2&#45;&gt;Node3</title>
<g id="a_edge2_Node000002_Node000003"><a xlink:title=" ">
<path fill="none" stroke="#63b8ff" d="M284.47,-214.67C300.43,-238.75 334.46,-285.22 374.75,-311.25 377.37,-312.94 380.11,-314.52 382.93,-316.01"/>
<polygon fill="#63b8ff" stroke="#63b8ff" points="381.25,-319.56 391.79,-320.66 384.24,-313.23 381.25,-319.56"/>
</a>
</g>
</g>
<!-- Node13 -->
<g id="Node000013" class="node">
<title>Node13</title>
<g id="a_Node000013"><a xlink:href="../../d0/d02/class_slic3r_1_1_model_volume.html#adbbeef75586a09fef58caaec5aeb335e" target="_top" xlink:title=" ">
<polygon fill="white" stroke="#666666" points="508.12,-302.5 402.12,-302.5 402.12,-272 508.12,-272 508.12,-302.5"/>
<text text-anchor="start" x="410.12" y="-289" font-family="Helvetica,sans-Serif" font-size="10.00">Slic3r::ModelVolume</text>
<text text-anchor="middle" x="455.12" y="-277.75" font-family="Helvetica,sans-Serif" font-size="10.00">::get_transformation</text>
</a>
</g>
</g>
<!-- Node2&#45;&gt;Node13 -->
<g id="edge11_Node000002_Node000013" class="edge">
<title>Node2&#45;&gt;Node13</title>
<g id="a_edge11_Node000002_Node000013"><a xlink:title=" ">
<path fill="none" stroke="#63b8ff" d="M296.07,-214.96C315.71,-228.87 346.08,-248.97 374.75,-262.25 380.08,-264.72 385.71,-267.03 391.42,-269.18"/>
<polygon fill="#63b8ff" stroke="#63b8ff" points="390.14,-272.79 400.73,-272.86 392.49,-266.2 390.14,-272.79"/>
</a>
</g>
</g>
<!-- Node14 -->
<g id="Node000014" class="node">
<title>Node14</title>
<g id="a_Node000014"><a xlink:href="../../d0/d23/class_slic3r_1_1_model_object.html#af3a782ab19ba19c4a7d30e23ac677ff2" target="_top" xlink:title=" ">
<polygon fill="white" stroke="#666666" points="519.38,-253.5 390.88,-253.5 390.88,-223 519.38,-223 519.38,-253.5"/>
<text text-anchor="start" x="398.88" y="-240" font-family="Helvetica,sans-Serif" font-size="10.00">Slic3r::ModelObject</text>
<text text-anchor="middle" x="455.12" y="-228.75" font-family="Helvetica,sans-Serif" font-size="10.00">::invalidate_bounding_box</text>
</a>
</g>
</g>
<!-- Node2&#45;&gt;Node14 -->
<g id="edge12_Node000002_Node000014" class="edge">
<title>Node2&#45;&gt;Node14</title>
<g id="a_edge12_Node000002_Node000014"><a xlink:title=" ">
<path fill="none" stroke="#63b8ff" d="M324.72,-210.11C341.87,-213.84 361.45,-218.1 380.09,-222.15"/>
<polygon fill="#63b8ff" stroke="#63b8ff" points="379.12,-225.74 389.64,-224.45 380.61,-218.9 379.12,-225.74"/>
</a>
</g>
</g>
<!-- Node15 -->
<g id="Node000015" class="node">
<title>Node15</title>
<g id="a_Node000015"><a xlink:href="../../de/db8/namespace_slic3r.html#aedb397bfcaf587fbe04dbc03a56d27a8" target="_top" xlink:title=" ">
<polygon fill="white" stroke="#666666" points="519.38,-186.88 390.88,-186.88 390.88,-167.62 519.38,-167.62 519.38,-186.88"/>
<text text-anchor="middle" x="455.12" y="-173.38" font-family="Helvetica,sans-Serif" font-size="10.00">Slic3r::save_object_mesh</text>
</a>
</g>
</g>
<!-- Node2&#45;&gt;Node15 -->
<g id="edge13_Node000002_Node000015" class="edge">
<title>Node2&#45;&gt;Node15</title>
<g id="a_edge13_Node000002_Node000015"><a xlink:title=" ">
<path fill="none" stroke="#63b8ff" d="M324.72,-193.12C341.79,-191.03 361.26,-188.64 379.83,-186.36"/>
<polygon fill="#63b8ff" stroke="#63b8ff" points="380.14,-189.73 389.64,-185.04 379.29,-182.78 380.14,-189.73"/>
</a>
</g>
</g>
<!-- Node16 -->
<g id="Node000016" class="node">
<title>Node16</title>
<g id="a_Node000016"><a xlink:href="../../d0/d02/class_slic3r_1_1_model_volume.html#acf2c9c0cb6596224789d2d91c07be406" target="_top" xlink:title=" ">
<polygon fill="white" stroke="#666666" points="508.12,-149.5 402.12,-149.5 402.12,-119 508.12,-119 508.12,-149.5"/>
<text text-anchor="start" x="410.12" y="-136" font-family="Helvetica,sans-Serif" font-size="10.00">Slic3r::ModelVolume</text>
<text text-anchor="middle" x="455.12" y="-124.75" font-family="Helvetica,sans-Serif" font-size="10.00">::set_new_unique_id</text>
</a>
</g>
</g>
<!-- Node2&#45;&gt;Node16 -->
<g id="edge15_Node000002_Node000016" class="edge">
<title>Node2&#45;&gt;Node16</title>
<g id="a_edge15_Node000002_Node000016"><a xlink:title=" ">
<path fill="none" stroke="#63b8ff" d="M315.83,-183.52C323.48,-180.51 331.37,-177.33 338.75,-174.25 354.91,-167.51 358.34,-164.35 374.75,-158.25 380.15,-156.24 385.8,-154.28 391.49,-152.39"/>
<polygon fill="#63b8ff" stroke="#63b8ff" points="392.29,-155.49 400.73,-149.08 390.13,-148.83 392.29,-155.49"/>
</a>
</g>
</g>
<!-- Node19 -->
<g id="Node000019" class="node">
<title>Node19</title>
<g id="a_Node000019"><a xlink:href="../../d0/d02/class_slic3r_1_1_model_volume.html#ace7c53b24ffbed15983e80955c872e4a" target="_top" xlink:title=" ">
<polygon fill="white" stroke="#666666" points="508.12,-100.5 402.12,-100.5 402.12,-70 508.12,-70 508.12,-100.5"/>
<text text-anchor="start" x="410.12" y="-87" font-family="Helvetica,sans-Serif" font-size="10.00">Slic3r::ModelVolume</text>
<text text-anchor="middle" x="455.12" y="-75.75" font-family="Helvetica,sans-Serif" font-size="10.00">::set_transformation</text>
</a>
</g>
</g>
<!-- Node2&#45;&gt;Node19 -->
<g id="edge18_Node000002_Node000019" class="edge">
<title>Node2&#45;&gt;Node19</title>
<g id="a_edge18_Node000002_Node000019"><a xlink:title=" ">
<path fill="none" stroke="#63b8ff" d="M324.93,-183.65C329.89,-180.96 334.61,-177.85 338.75,-174.25 363.38,-152.84 349.41,-130.82 374.75,-110.25 379.9,-106.07 385.76,-102.58 391.91,-99.68"/>
<polygon fill="#63b8ff" stroke="#63b8ff" points="392.86,-102.65 400.74,-95.57 390.17,-96.19 392.86,-102.65"/>
</a>
</g>
</g>
<!-- Node4 -->
<g id="Node000004" class="node">
<title>Node4</title>
<g id="a_Node000004"><a xlink:href="../../d3/dfb/namespace_slic3r_1_1_geometry.html#a247db7c57d65503266afb6dc7fe70a0f" target="_top" xlink:title=" ">
<polygon fill="white" stroke="#666666" points="720.62,-400.5 583.12,-400.5 583.12,-370 720.62,-370 720.62,-400.5"/>
<text text-anchor="start" x="591.12" y="-387" font-family="Helvetica,sans-Serif" font-size="10.00">Slic3r::Geometry::assemble</text>
<text text-anchor="middle" x="651.88" y="-375.75" font-family="Helvetica,sans-Serif" font-size="10.00">_transform</text>
</a>
</g>
</g>
<!-- Node3&#45;&gt;Node4 -->
<g id="edge3_Node000003_Node000004" class="edge">
<title>Node3&#45;&gt;Node4</title>
<g id="a_edge3_Node000003_Node000004"><a xlink:title=" ">
<path fill="none" stroke="#63b8ff" d="M518.55,-351.96C537.5,-356.73 558.5,-362.01 578.07,-366.93"/>
<polygon fill="#63b8ff" stroke="#63b8ff" points="576.92,-370.5 587.47,-369.55 578.63,-363.71 576.92,-370.5"/>
</a>
</g>
</g>
<!-- Node11 -->
<g id="Node000011" class="node">
<title>Node11</title>
<g id="a_Node000011"><a xlink:href="../../d9/d8b/struct_slic3r_1_1_geometry_1_1_transformation_1_1_flags.html#a056f4811f4143739ca060103a97a8f0a" target="_top" xlink:title=" ">
<polygon fill="white" stroke="#666666" points="732.25,-351.5 571.5,-351.5 571.5,-321 732.25,-321 732.25,-351.5"/>
<text text-anchor="start" x="579.5" y="-338" font-family="Helvetica,sans-Serif" font-size="10.00">Slic3r::Geometry::Transformation</text>
<text text-anchor="middle" x="651.88" y="-326.75" font-family="Helvetica,sans-Serif" font-size="10.00">::Flags::needs_update</text>
</a>
</g>
</g>
<!-- Node3&#45;&gt;Node11 -->
<g id="edge9_Node000003_Node000011" class="edge">
<title>Node3&#45;&gt;Node11</title>
<g id="a_edge9_Node000003_Node000011"><a xlink:title=" ">
<path fill="none" stroke="#63b8ff" d="M535.9,-336.25C544.01,-336.25 552.28,-336.25 560.49,-336.25"/>
<polygon fill="#63b8ff" stroke="#63b8ff" points="560.22,-339.75 570.22,-336.25 560.22,-332.75 560.22,-339.75"/>
</a>
</g>
</g>
<!-- Node12 -->
<g id="Node000012" class="node">
<title>Node12</title>
<g id="a_Node000012"><a xlink:href="../../d9/d8b/struct_slic3r_1_1_geometry_1_1_transformation_1_1_flags.html#a7780cfb830da06dad0d1fe88c1394b3b" target="_top" xlink:title=" ">
<polygon fill="white" stroke="#666666" points="732.25,-302.5 571.5,-302.5 571.5,-272 732.25,-272 732.25,-302.5"/>
<text text-anchor="start" x="579.5" y="-289" font-family="Helvetica,sans-Serif" font-size="10.00">Slic3r::Geometry::Transformation</text>
<text text-anchor="middle" x="651.88" y="-277.75" font-family="Helvetica,sans-Serif" font-size="10.00">::Flags::set</text>
</a>
</g>
</g>
<!-- Node3&#45;&gt;Node12 -->
<g id="edge10_Node000003_Node000012" class="edge">
<title>Node3&#45;&gt;Node12</title>
<g id="a_edge10_Node000003_Node000012"><a xlink:title=" ">
<path fill="none" stroke="#63b8ff" d="M518.55,-320.54C537.5,-315.77 558.5,-310.49 578.07,-305.57"/>
<polygon fill="#63b8ff" stroke="#63b8ff" points="578.63,-308.79 587.47,-302.95 576.92,-302 578.63,-308.79"/>
</a>
</g>
</g>
<!-- Node5 -->
<g id="Node000005" class="node">
<title>Node5</title>
<g id="a_Node000005"><a xlink:href="../../d5/d00/group___geometry___module.html#a41e2e58b09790eb8e3e220acceb7de1f" target="_top" xlink:title="Returns an identity transformation.">
<polygon fill="white" stroke="#666666" points="899.75,-473.12 768.25,-473.12 768.25,-431.38 899.75,-431.38 899.75,-473.12"/>
<text text-anchor="start" x="776.25" y="-459.62" font-family="Helvetica,sans-Serif" font-size="10.00">Eigen::Transform&lt; double,</text>
<text text-anchor="start" x="776.25" y="-448.38" font-family="Helvetica,sans-Serif" font-size="10.00"> 3, Eigen::Affine, Eigen</text>
<text text-anchor="middle" x="834" y="-437.12" font-family="Helvetica,sans-Serif" font-size="10.00">::DontAlign &gt;::Identity</text>
</a>
</g>
</g>
<!-- Node4&#45;&gt;Node5 -->
<g id="edge4_Node000004_Node000005" class="edge">
<title>Node4&#45;&gt;Node5</title>
<g id="a_edge4_Node000004_Node000005"><a xlink:title=" ">
<path fill="none" stroke="#63b8ff" d="M695.11,-400.96C716.03,-408.74 741.81,-418.33 765.39,-427.1"/>
<polygon fill="#63b8ff" stroke="#63b8ff" points="764.1,-430.73 774.69,-430.93 766.54,-424.17 764.1,-430.73"/>
</a>
</g>
</g>
<!-- Node6 -->
<g id="Node000006" class="node">
<title>Node6</title>
<g id="a_Node000006"><a xlink:href="../../d6/dba/_wipe_tower_dialog_8cpp.html#a031c2862b832be718b216d1f101f88cd" target="_top" xlink:title=" ">
<polygon fill="white" stroke="#666666" points="853.62,-412.88 814.38,-412.88 814.38,-393.62 853.62,-393.62 853.62,-412.88"/>
<text text-anchor="middle" x="834" y="-399.38" font-family="Helvetica,sans-Serif" font-size="10.00">scale</text>
</a>
</g>
</g>
<!-- Node4&#45;&gt;Node6 -->
<g id="edge5_Node000004_Node000006" class="edge">
<title>Node4&#45;&gt;Node6</title>
<g id="a_edge5_Node000004_Node000006"><a xlink:title=" ">
<path fill="none" stroke="#63b8ff" d="M720.97,-392.06C749.48,-394.9 781.11,-398.06 803.47,-400.3"/>
<polygon fill="#63b8ff" stroke="#63b8ff" points="802.96,-403.86 813.25,-401.38 803.65,-396.9 802.96,-403.86"/>
</a>
</g>
</g>
<!-- Node7 -->
<g id="Node000007" class="node">
<title>Node7</title>
<g id="a_Node000007"><a xlink:href="../../d9/d8d/class_slic3r_1_1_linef3.html#aef457f1f60bdf92f6ae5712e68189fc1" target="_top" xlink:title=" ">
<polygon fill="white" stroke="#666666" points="885.12,-375.88 782.88,-375.88 782.88,-356.62 885.12,-356.62 885.12,-375.88"/>
<text text-anchor="middle" x="834" y="-362.38" font-family="Helvetica,sans-Serif" font-size="10.00">Slic3r::Linef3::scale</text>
</a>
</g>
</g>
<!-- Node4&#45;&gt;Node7 -->
<g id="edge6_Node000004_Node000007" class="edge">
<title>Node4&#45;&gt;Node7</title>
<g id="a_edge6_Node000004_Node000007"><a xlink:title=" ">
<path fill="none" stroke="#63b8ff" d="M720.97,-378.07C737.73,-376.3 755.56,-374.42 771.96,-372.69"/>
<polygon fill="#63b8ff" stroke="#63b8ff" points="771.92,-376.11 781.5,-371.58 771.19,-369.15 771.92,-376.11"/>
</a>
</g>
</g>
<!-- Node8 -->
<g id="Node000008" class="node">
<title>Node8</title>
<g id="a_Node000008"><a xlink:href="../../de/db8/namespace_slic3r.html#ac438e30f7d61567b77c49f5eeceb0ef2" target="_top" xlink:title=" ">
<polygon fill="white" stroke="#666666" points="878,-338.88 790,-338.88 790,-319.62 878,-319.62 878,-338.88"/>
<text text-anchor="middle" x="834" y="-325.38" font-family="Helvetica,sans-Serif" font-size="10.00">Slic3r::transform</text>
</a>
</g>
</g>
<!-- Node4&#45;&gt;Node8 -->
<g id="edge7_Node000004_Node000008" class="edge">
<title>Node4&#45;&gt;Node8</title>
<g id="a_edge7_Node000004_Node000008"><a xlink:title=" ">
<path fill="none" stroke="#63b8ff" d="M703.79,-369.56C713.27,-366.54 723.08,-363.35 732.25,-360.25 748.37,-354.8 752.04,-352.42 768.25,-347.25 773.47,-345.59 778.94,-343.93 784.42,-342.33"/>
<polygon fill="#63b8ff" stroke="#63b8ff" points="785.2,-345.46 793.85,-339.34 783.28,-338.73 785.2,-345.46"/>
</a>
</g>
</g>
<!-- Node9 -->
<g id="Node000009" class="node">
<title>Node9</title>
<g id="a_Node000009"><a xlink:href="../../da/d8d/class_eigen_1_1_plain_object_base.html#a322d4d48cc285b60e0dff100db522342" target="_top" xlink:title=" ">
<polygon fill="#fff0f0" stroke="red" points="1055.25,-344.5 935.75,-344.5 935.75,-314 1055.25,-314 1055.25,-344.5"/>
<text text-anchor="start" x="943.75" y="-331" font-family="Helvetica,sans-Serif" font-size="10.00">Eigen::PlainObjectBase</text>
<text text-anchor="middle" x="995.5" y="-319.75" font-family="Helvetica,sans-Serif" font-size="10.00">::data</text>
</a>
</g>
</g>
<!-- Node8&#45;&gt;Node9 -->
<g id="edge8_Node000008_Node000009" class="edge">
<title>Node8&#45;&gt;Node9</title>
<g id="a_edge8_Node000008_Node000009"><a xlink:title=" ">
<path fill="none" stroke="#63b8ff" d="M878.16,-329.25C892.48,-329.25 908.81,-329.25 924.61,-329.25"/>
<polygon fill="#63b8ff" stroke="#63b8ff" points="924.43,-332.75 934.43,-329.25 924.43,-325.75 924.43,-332.75"/>
</a>
</g>
</g>
<!-- Node15&#45;&gt;Node15 -->
<g id="edge14_Node000015_Node000015" class="edge">
<title>Node15&#45;&gt;Node15</title>
<g id="a_edge14_Node000015_Node000015"><a xlink:title=" ">
<path fill="none" stroke="#63b8ff" d="M426.73,-187.16C413.78,-195.77 423.24,-204.88 455.12,-204.88 474.55,-204.88 485.66,-201.49 488.44,-196.9"/>
<polygon fill="#63b8ff" stroke="#63b8ff" points="491.15,-195.51 483.52,-188.16 484.9,-198.67 491.15,-195.51"/>
</a>
</g>
</g>
<!-- Node17 -->
<g id="Node000017" class="node">
<title>Node17</title>
<g id="a_Node000017"><a xlink:href="../../d9/d98/class_slic3r_1_1_object_base.html#a3c7e96e0c8788dce0477ba26d422a85a" target="_top" xlink:title=" ">
<polygon fill="white" stroke="#666666" points="704.5,-149.5 599.25,-149.5 599.25,-119 704.5,-119 704.5,-149.5"/>
<text text-anchor="start" x="607.25" y="-136" font-family="Helvetica,sans-Serif" font-size="10.00">Slic3r::ObjectBase</text>
<text text-anchor="middle" x="651.88" y="-124.75" font-family="Helvetica,sans-Serif" font-size="10.00">::set_new_unique_id</text>
</a>
</g>
</g>
<!-- Node16&#45;&gt;Node17 -->
<g id="edge16_Node000016_Node000017" class="edge">
<title>Node16&#45;&gt;Node17</title>
<g id="a_edge16_Node000016_Node000017"><a xlink:title=" ">
<path fill="none" stroke="#63b8ff" d="M508.57,-134.25C533.12,-134.25 562.54,-134.25 588.25,-134.25"/>
<polygon fill="#63b8ff" stroke="#63b8ff" points="588.01,-137.75 598.01,-134.25 588.01,-130.75 588.01,-137.75"/>
</a>
</g>
</g>
<!-- Node18 -->
<g id="Node000018" class="node">
<title>Node18</title>
<g id="a_Node000018"><a xlink:href="../../d9/d98/class_slic3r_1_1_object_base.html#a9fc0611de91a636648cc2af368ec47e1" target="_top" xlink:title=" ">
<polygon fill="white" stroke="#666666" points="882.88,-149.5 785.12,-149.5 785.12,-119 882.88,-119 882.88,-149.5"/>
<text text-anchor="start" x="793.12" y="-136" font-family="Helvetica,sans-Serif" font-size="10.00">Slic3r::ObjectBase</text>
<text text-anchor="middle" x="834" y="-124.75" font-family="Helvetica,sans-Serif" font-size="10.00">::generate_new_id</text>
</a>
</g>
</g>
<!-- Node17&#45;&gt;Node18 -->
<g id="edge17_Node000017_Node000018" class="edge">
<title>Node17&#45;&gt;Node18</title>
<g id="a_edge17_Node000017_Node000018"><a xlink:title=" ">
<path fill="none" stroke="#63b8ff" d="M704.97,-134.25C726.48,-134.25 751.53,-134.25 773.74,-134.25"/>
<polygon fill="#63b8ff" stroke="#63b8ff" points="773.72,-137.75 783.72,-134.25 773.72,-130.75 773.72,-137.75"/>
</a>
</g>
</g>
<!-- Node24 -->
<g id="Node000024" class="node">
<title>Node24</title>
<g id="a_Node000024"><a xlink:href="../../d7/d21/class_slic3r_1_1_g_u_i_1_1_plater.html#ac164c20b53f1199636b0f9f9141eb9ab" target="_top" xlink:title=" ">
<polygon fill="white" stroke="#666666" points="503.25,-30.5 407,-30.5 407,0 503.25,0 503.25,-30.5"/>
<text text-anchor="start" x="415" y="-17" font-family="Helvetica,sans-Serif" font-size="10.00">Slic3r::GUI::Plater</text>
<text text-anchor="middle" x="455.12" y="-5.75" font-family="Helvetica,sans-Serif" font-size="10.00">::need_update</text>
</a>
</g>
</g>
<!-- Node23&#45;&gt;Node24 -->
<g id="edge23_Node000023_Node000024" class="edge">
<title>Node23&#45;&gt;Node24</title>
<g id="a_edge23_Node000023_Node000024"><a xlink:title=" ">
<path fill="none" stroke="#63b8ff" d="M322.35,-15.25C344.84,-15.25 371.89,-15.25 395.62,-15.25"/>
<polygon fill="#63b8ff" stroke="#63b8ff" points="395.62,-18.75 405.62,-15.25 395.62,-11.75 395.62,-18.75"/>
</a>
</g>
</g>
</g>
</svg>
