<?xml version="1.0" encoding="UTF-8" standalone="no"?>
<!DOCTYPE svg PUBLIC "-//W3C//DTD SVG 1.1//EN"
 "http://www.w3.org/Graphics/SVG/1.1/DTD/svg11.dtd">
<!-- Generated by graphviz version 8.1.0 (20230707.0739)
 -->
<!-- Title: Slic3r::FacetsAnnotation::reset Pages: 1 -->
<svg width="406pt" height="88pt"
 viewBox="0.00 0.00 405.50 87.50" xmlns="http://www.w3.org/2000/svg" xmlns:xlink="http://www.w3.org/1999/xlink">
<g id="graph0" class="graph" transform="scale(1 1) rotate(0) translate(4 83.5)">
<title>Slic3r::FacetsAnnotation::reset</title>
<!-- Node1 -->
<g id="Node000001" class="node">
<title>Node1</title>
<g id="a_Node000001"><a xlink:title=" ">
<polygon fill="#999999" stroke="#666666" points="397.5,-54.5 274.25,-54.5 274.25,-24 397.5,-24 397.5,-54.5"/>
<text text-anchor="start" x="282.25" y="-41" font-family="Helvetica,sans-Serif" font-size="10.00">Slic3r::FacetsAnnotation</text>
<text text-anchor="middle" x="335.88" y="-29.75" font-family="Helvetica,sans-Serif" font-size="10.00">::reset</text>
</a>
</g>
</g>
<!-- Node2 -->
<g id="Node000002" class="node">
<title>Node2</title>
<g id="a_Node000002"><a xlink:href="../../d0/d23/class_slic3r_1_1_model_object.html#ac5f24b94617feeabe59d5902d38fde0e" target="_top" xlink:title=" ">
<polygon fill="white" stroke="#666666" points="236,-79.5 134.5,-79.5 134.5,-49 236,-49 236,-79.5"/>
<text text-anchor="start" x="142.5" y="-66" font-family="Helvetica,sans-Serif" font-size="10.00">Slic3r::ModelObject</text>
<text text-anchor="middle" x="185.25" y="-54.75" font-family="Helvetica,sans-Serif" font-size="10.00">::split</text>
</a>
</g>
</g>
<!-- Node1&#45;&gt;Node2 -->
<g id="edge1_Node000001_Node000002" class="edge">
<title>Node1&#45;&gt;Node2</title>
<g id="a_edge1_Node000001_Node000002"><a xlink:title=" ">
<path fill="none" stroke="#63b8ff" d="M263.35,-51.28C254.23,-52.81 245.06,-54.36 236.38,-55.82"/>
<polygon fill="#63b8ff" stroke="#63b8ff" points="263.71,-54.6 272.99,-49.49 262.55,-47.7 263.71,-54.6"/>
</a>
</g>
</g>
<!-- Node4 -->
<g id="Node000004" class="node">
<title>Node4</title>
<g id="a_Node000004"><a xlink:href="../../d0/d02/class_slic3r_1_1_model_volume.html#a84b6406445ca4a2090574ecf527feae7" target="_top" xlink:title=" ">
<polygon fill="white" stroke="#666666" points="238.25,-30.5 132.25,-30.5 132.25,0 238.25,0 238.25,-30.5"/>
<text text-anchor="start" x="140.25" y="-17" font-family="Helvetica,sans-Serif" font-size="10.00">Slic3r::ModelVolume</text>
<text text-anchor="middle" x="185.25" y="-5.75" font-family="Helvetica,sans-Serif" font-size="10.00">::split</text>
</a>
</g>
</g>
<!-- Node1&#45;&gt;Node4 -->
<g id="edge3_Node000001_Node000004" class="edge">
<title>Node1&#45;&gt;Node4</title>
<g id="a_edge3_Node000001_Node000004"><a xlink:title=" ">
<path fill="none" stroke="#63b8ff" d="M263.2,-27.68C254.95,-26.34 246.65,-25 238.72,-23.72"/>
<polygon fill="#63b8ff" stroke="#63b8ff" points="262.56,-31.28 272.99,-29.42 263.68,-24.37 262.56,-31.28"/>
</a>
</g>
</g>
<!-- Node3 -->
<g id="Node000003" class="node">
<title>Node3</title>
<g id="a_Node000003"><a xlink:href="../../d4/d88/struct_slic3r_1_1_g_u_i_1_1_plater_1_1priv.html#a6349f4c76b3d6bbdf03170cf68a4d447" target="_top" xlink:title=" ">
<polygon fill="white" stroke="#666666" points="96.25,-79.5 0,-79.5 0,-49 96.25,-49 96.25,-79.5"/>
<text text-anchor="start" x="8" y="-66" font-family="Helvetica,sans-Serif" font-size="10.00">Slic3r::GUI::Plater</text>
<text text-anchor="middle" x="48.12" y="-54.75" font-family="Helvetica,sans-Serif" font-size="10.00">::priv::split_object</text>
</a>
</g>
</g>
<!-- Node2&#45;&gt;Node3 -->
<g id="edge2_Node000002_Node000003" class="edge">
<title>Node2&#45;&gt;Node3</title>
<g id="a_edge2_Node000002_Node000003"><a xlink:title=" ">
<path fill="none" stroke="#63b8ff" d="M123.46,-64.25C114.45,-64.25 105.29,-64.25 96.61,-64.25"/>
<polygon fill="#63b8ff" stroke="#63b8ff" points="123.32,-67.75 133.32,-64.25 123.32,-60.75 123.32,-67.75"/>
</a>
</g>
</g>
</g>
</svg>
