<?xml version="1.0" encoding="UTF-8" standalone="no"?>
<!DOCTYPE svg PUBLIC "-//W3C//DTD SVG 1.1//EN"
 "http://www.w3.org/Graphics/SVG/1.1/DTD/svg11.dtd">
<!-- Generated by graphviz version 8.1.0 (20230707.0739)
 -->
<!-- Title: Slic3r::Semver::strdup Pages: 1 -->
<!--zoomable 223 -->

<svg id="main" version="1.1" xmlns="http://www.w3.org/2000/svg" xmlns:xlink="http://www.w3.org/1999/xlink" xml:space="preserve" onload="init(evt)">
<style type="text/css"><![CDATA[
.node, .edge {opacity: 0.7;}
.node.selected, .edge.selected {opacity: 1;}
.edge:hover path { stroke: red; }
.edge:hover polygon { stroke: red; fill: red; }
]]></style>

<defs>
  <circle id="rim" cx="0" cy="0" r="7"/>
  <circle id="rim2" cx="0" cy="0" r="3.5"/>
  <g id="zoomPlus">
    <use xlink:href="#rim" fill="#404040"><set attributeName="fill" to="#808080" begin="zoomplus.mouseover" end="zoomplus.mouseout"/></use>
    <path d="M-4,0h8M0,-4v8" fill="none" stroke="white" stroke-width="1.5" pointer-events="none"/>
  </g>
  <g id="zoomMin">
    <use xlink:href="#rim" fill="#404040"><set attributeName="fill" to="#808080" begin="zoomminus.mouseover" end="zoomminus.mouseout"/></use>
    <path d="M-4,0h8" fill="none" stroke="white" stroke-width="1.5" pointer-events="none"/>
  </g>
  <g id="arrowUp" transform="translate(30 24)">
    <use xlink:href="#rim"/>
    <path pointer-events="none" fill="none" stroke="white" stroke-width="1.5" d="M0,-3.0v7 M-2.5,-0.5L0,-3.0L2.5,-0.5"/>
  </g>
  <g id="arrowRight" transform="rotate(90) translate(36 -43)">
    <use xlink:href="#rim"/>
    <path pointer-events="none" fill="none" stroke="white" stroke-width="1.5" d="M0,-3.0v7 M-2.5,-0.5L0,-3.0L2.5,-0.5"/>
  </g>
  <g id="arrowDown" transform="rotate(180) translate(-30 -48)">
    <use xlink:href="#rim"/>
    <path pointer-events="none" fill="none" stroke="white" stroke-width="1.5" d="M0,-3.0v7 M-2.5,-0.5L0,-3.0L2.5,-0.5"/>
  </g>
  <g id="arrowLeft" transform="rotate(270) translate(-36 17)">
    <use xlink:href="#rim"/>
    <path pointer-events="none" fill="none" stroke="white" stroke-width="1.5" d="M0,-3.0v7 M-2.5,-0.5L0,-3.0L2.5,-0.5"/>
  </g>
  <g id="resetDef">
    <use xlink:href="#rim2" fill="#404040"><set attributeName="fill" to="#808080" begin="reset.mouseover" end="reset.mouseout"/></use>
  </g>
</defs>
<script type="application/ecmascript">
var viewWidth = 563;
var viewHeight = 223;
var sectionId = 'dynsection-31';
</script>
<script type="application/ecmascript" xlink:href="../../svg.min.js"/>
<svg id="graph" class="graph">
<g id="viewport">
<title>Slic3r::Semver::strdup</title>
<!-- Node1 -->
<g id="Node000001" class="node">
<title>Node1</title>
<g id="a_Node000001"><a xlink:title=" ">
<polygon fill="#999999" stroke="#666666" points="554.5,-97.88 441,-97.88 441,-78.62 554.5,-78.62 554.5,-97.88"/>
<text text-anchor="middle" x="497.75" y="-84.38" font-family="Helvetica,sans-Serif" font-size="10.00">Slic3r::Semver::strdup</text>
</a>
</g>
</g>
<!-- Node2 -->
<g id="Node000002" class="node">
<title>Node2</title>
<g id="a_Node000002"><a xlink:href="../../d0/d1c/class_slic3r_1_1_semver.html#ad15f7207bfd230de8ca8f04708bf21d8" target="_top" xlink:title=" ">
<polygon fill="white" stroke="#666666" points="405,-128.5 305,-128.5 305,-98 405,-98 405,-128.5"/>
<text text-anchor="start" x="313" y="-115" font-family="Helvetica,sans-Serif" font-size="10.00">Slic3r::Semver::set</text>
<text text-anchor="middle" x="355" y="-103.75" font-family="Helvetica,sans-Serif" font-size="10.00">_metadata</text>
</a>
</g>
</g>
<!-- Node1&#45;&gt;Node2 -->
<g id="edge1_Node000001_Node000002" class="edge">
<title>Node1&#45;&gt;Node2</title>
<g id="a_edge1_Node000001_Node000002"><a xlink:title=" ">
<path fill="none" stroke="#63b8ff" d="M429.95,-100.11C421.7,-101.58 413.39,-103.06 405.47,-104.46"/>
<polygon fill="#63b8ff" stroke="#63b8ff" points="430.48,-103.4 439.72,-98.2 429.26,-96.51 430.48,-103.4"/>
</a>
</g>
</g>
<!-- Node7 -->
<g id="Node000007" class="node">
<title>Node7</title>
<g id="a_Node000007"><a xlink:href="../../d0/d1c/class_slic3r_1_1_semver.html#ac0c748e2a1e45d7813ab27473cabaedf" target="_top" xlink:title=" ">
<polygon fill="white" stroke="#666666" points="405,-79.5 305,-79.5 305,-49 405,-49 405,-79.5"/>
<text text-anchor="start" x="313" y="-66" font-family="Helvetica,sans-Serif" font-size="10.00">Slic3r::Semver::set</text>
<text text-anchor="middle" x="355" y="-54.75" font-family="Helvetica,sans-Serif" font-size="10.00">_metadata</text>
</a>
</g>
</g>
<!-- Node1&#45;&gt;Node7 -->
<g id="edge6_Node000001_Node000007" class="edge">
<title>Node1&#45;&gt;Node7</title>
<g id="a_edge6_Node000001_Node000007"><a xlink:title=" ">
<path fill="none" stroke="#63b8ff" d="M429.95,-76.86C421.7,-75.45 413.39,-74.04 405.47,-72.69"/>
<polygon fill="#63b8ff" stroke="#63b8ff" points="429.27,-80.46 439.72,-78.7 430.45,-73.56 429.27,-80.46"/>
</a>
</g>
</g>
<!-- Node8 -->
<g id="Node000008" class="node">
<title>Node8</title>
<g id="a_Node000008"><a xlink:href="../../d0/d1c/class_slic3r_1_1_semver.html#a8c875fd5a4fd1c044d40b4d114063218" target="_top" xlink:title=" ">
<polygon fill="white" stroke="#666666" points="405,-177.5 305,-177.5 305,-147 405,-147 405,-177.5"/>
<text text-anchor="start" x="313" y="-164" font-family="Helvetica,sans-Serif" font-size="10.00">Slic3r::Semver::set</text>
<text text-anchor="middle" x="355" y="-152.75" font-family="Helvetica,sans-Serif" font-size="10.00">_prerelease</text>
</a>
</g>
</g>
<!-- Node1&#45;&gt;Node8 -->
<g id="edge7_Node000001_Node000008" class="edge">
<title>Node1&#45;&gt;Node8</title>
<g id="a_edge7_Node000001_Node000008"><a xlink:title=" ">
<path fill="none" stroke="#63b8ff" d="M468.52,-103.5C450.42,-113.24 426.38,-126.09 405,-137.25 399.16,-140.3 392.91,-143.52 386.89,-146.6"/>
<polygon fill="#63b8ff" stroke="#63b8ff" points="470.03,-106.12 477.18,-98.3 466.71,-99.96 470.03,-106.12"/>
</a>
</g>
</g>
<!-- Node11 -->
<g id="Node000011" class="node">
<title>Node11</title>
<g id="a_Node000011"><a xlink:href="../../d0/d1c/class_slic3r_1_1_semver.html#a6a2072cfd9e58e0a8296e6285530732c" target="_top" xlink:title=" ">
<polygon fill="white" stroke="#666666" points="405,-30.5 305,-30.5 305,0 405,0 405,-30.5"/>
<text text-anchor="start" x="313" y="-17" font-family="Helvetica,sans-Serif" font-size="10.00">Slic3r::Semver::set</text>
<text text-anchor="middle" x="355" y="-5.75" font-family="Helvetica,sans-Serif" font-size="10.00">_prerelease</text>
</a>
</g>
</g>
<!-- Node1&#45;&gt;Node11 -->
<g id="edge12_Node000001_Node000011" class="edge">
<title>Node1&#45;&gt;Node11</title>
<g id="a_edge12_Node000001_Node000011"><a xlink:title=" ">
<path fill="none" stroke="#63b8ff" d="M468.15,-73.19C450.07,-63.69 426.19,-51.2 405,-40.25 399.15,-37.23 392.89,-34.01 386.87,-30.94"/>
<polygon fill="#63b8ff" stroke="#63b8ff" points="466.32,-76.71 476.8,-78.26 469.58,-70.51 466.32,-76.71"/>
</a>
</g>
</g>
<!-- Node3 -->
<g id="Node000003" class="node">
<title>Node3</title>
<g id="a_Node000003"><a xlink:href="../../d0/d1c/class_slic3r_1_1_semver.html#a1502b6c6f7de7b51528e43dbcaf27058" target="_top" xlink:title=" ">
<polygon fill="white" stroke="#666666" points="268.25,-165.88 148,-165.88 148,-146.62 268.25,-146.62 268.25,-165.88"/>
<text text-anchor="middle" x="208.12" y="-152.38" font-family="Helvetica,sans-Serif" font-size="10.00">Slic3r::Semver::Semver</text>
</a>
</g>
</g>
<!-- Node2&#45;&gt;Node3 -->
<g id="edge2_Node000002_Node000003" class="edge">
<title>Node2&#45;&gt;Node3</title>
<g id="a_edge2_Node000002_Node000003"><a xlink:title=" ">
<path fill="none" stroke="#63b8ff" d="M294.36,-130.95C276.79,-136.17 258.19,-141.69 242.86,-146.24"/>
<polygon fill="#63b8ff" stroke="#63b8ff" points="294.96,-134.13 303.55,-127.93 292.96,-127.42 294.96,-134.13"/>
</a>
</g>
</g>
<!-- Node4 -->
<g id="Node000004" class="node">
<title>Node4</title>
<g id="a_Node000004"><a xlink:href="../../d0/d1c/class_slic3r_1_1_semver.html#ab4e1ffe8c16660bdfce07394936a8ee9" target="_top" xlink:title=" ">
<polygon fill="white" stroke="#666666" points="268.25,-128.88 148,-128.88 148,-109.62 268.25,-109.62 268.25,-128.88"/>
<text text-anchor="middle" x="208.12" y="-115.38" font-family="Helvetica,sans-Serif" font-size="10.00">Slic3r::Semver::Semver</text>
</a>
</g>
</g>
<!-- Node2&#45;&gt;Node4 -->
<g id="edge3_Node000002_Node000004" class="edge">
<title>Node2&#45;&gt;Node4</title>
<g id="a_edge3_Node000002_Node000004"><a xlink:title=" ">
<path fill="none" stroke="#63b8ff" d="M293.78,-115.74C285.46,-116.09 276.92,-116.44 268.62,-116.79"/>
<polygon fill="#63b8ff" stroke="#63b8ff" points="293.7,-119.21 303.55,-115.3 293.41,-112.21 293.7,-119.21"/>
</a>
</g>
</g>
<!-- Node5 -->
<g id="Node000005" class="node">
<title>Node5</title>
<g id="a_Node000005"><a xlink:href="../../da/d00/class_slic3r_1_1_app_config.html#af02c1550e6998ceaabb561adfe439e8f" target="_top" xlink:title=" ">
<polygon fill="white" stroke="#666666" points="266.38,-91.88 149.88,-91.88 149.88,-72.62 266.38,-72.62 266.38,-91.88"/>
<text text-anchor="middle" x="208.12" y="-78.38" font-family="Helvetica,sans-Serif" font-size="10.00">Slic3r::AppConfig::load</text>
</a>
</g>
</g>
<!-- Node2&#45;&gt;Node5 -->
<g id="edge4_Node000002_Node000005" class="edge">
<title>Node2&#45;&gt;Node5</title>
<g id="a_edge4_Node000002_Node000005"><a xlink:title=" ">
<path fill="none" stroke="#63b8ff" d="M294.13,-100.44C281.55,-97.75 268.44,-94.94 256.4,-92.37"/>
<polygon fill="#63b8ff" stroke="#63b8ff" points="293.04,-104 303.55,-102.67 294.5,-97.15 293.04,-104"/>
</a>
</g>
</g>
<!-- Node6 -->
<g id="Node000006" class="node">
<title>Node6</title>
<g id="a_Node000006"><a xlink:href="../../d9/d01/class_slic3r_1_1_g_u_i_1_1_g_u_i___app.html#aa12b2d1810ad1819b28383f416a8662d" target="_top" xlink:title=" ">
<polygon fill="white" stroke="#666666" points="111.25,-97.5 0,-97.5 0,-67 111.25,-67 111.25,-97.5"/>
<text text-anchor="start" x="8" y="-84" font-family="Helvetica,sans-Serif" font-size="10.00">Slic3r::GUI::GUI_App</text>
<text text-anchor="middle" x="55.62" y="-72.75" font-family="Helvetica,sans-Serif" font-size="10.00">::init_app_config</text>
</a>
</g>
</g>
<!-- Node5&#45;&gt;Node6 -->
<g id="edge5_Node000005_Node000006" class="edge">
<title>Node5&#45;&gt;Node6</title>
<g id="a_edge5_Node000005_Node000006"><a xlink:title=" ">
<path fill="none" stroke="#63b8ff" d="M139.01,-82.25C129.73,-82.25 120.31,-82.25 111.31,-82.25"/>
<polygon fill="#63b8ff" stroke="#63b8ff" points="138.8,-85.75 148.8,-82.25 138.8,-78.75 138.8,-85.75"/>
</a>
</g>
</g>
<!-- Node8&#45;&gt;Node3 -->
<g id="edge8_Node000008_Node000003" class="edge">
<title>Node8&#45;&gt;Node3</title>
<g id="a_edge8_Node000008_Node000003"><a xlink:title=" ">
<path fill="none" stroke="#63b8ff" d="M293.78,-159.76C285.46,-159.41 276.92,-159.06 268.62,-158.71"/>
<polygon fill="#63b8ff" stroke="#63b8ff" points="293.41,-163.29 303.55,-160.2 293.7,-156.29 293.41,-163.29"/>
</a>
</g>
</g>
<!-- Node8&#45;&gt;Node4 -->
<g id="edge9_Node000008_Node000004" class="edge">
<title>Node8&#45;&gt;Node4</title>
<g id="a_edge9_Node000008_Node000004"><a xlink:title=" ">
<path fill="none" stroke="#63b8ff" d="M294.36,-144.55C276.79,-139.33 258.19,-133.81 242.86,-129.26"/>
<polygon fill="#63b8ff" stroke="#63b8ff" points="292.96,-148.08 303.55,-147.57 294.96,-141.37 292.96,-148.08"/>
</a>
</g>
</g>
<!-- Node9 -->
<g id="Node000009" class="node">
<title>Node9</title>
<g id="a_Node000009"><a xlink:href="../../d9/d01/class_slic3r_1_1_g_u_i_1_1_g_u_i___app.html#a9a6d5bb11f92578945860aed65865f6e" target="_top" xlink:title=" ">
<polygon fill="white" stroke="#666666" points="269,-214.5 147.25,-214.5 147.25,-184 269,-184 269,-214.5"/>
<text text-anchor="start" x="155.25" y="-201" font-family="Helvetica,sans-Serif" font-size="10.00">Slic3r::GUI::GUI_App</text>
<text text-anchor="middle" x="208.12" y="-189.75" font-family="Helvetica,sans-Serif" font-size="10.00">::check_new_version_sf</text>
</a>
</g>
</g>
<!-- Node8&#45;&gt;Node9 -->
<g id="edge10_Node000008_Node000009" class="edge">
<title>Node8&#45;&gt;Node9</title>
<g id="a_edge10_Node000008_Node000009"><a xlink:title=" ">
<path fill="none" stroke="#63b8ff" d="M294.01,-177.57C285.87,-179.65 277.52,-181.78 269.38,-183.86"/>
<polygon fill="#63b8ff" stroke="#63b8ff" points="294.72,-180.75 303.55,-174.88 292.99,-173.96 294.72,-180.75"/>
</a>
</g>
</g>
<!-- Node10 -->
<g id="Node000010" class="node">
<title>Node10</title>
<g id="a_Node000010"><a xlink:href="../../d9/d01/class_slic3r_1_1_g_u_i_1_1_g_u_i___app.html#a92b16a3ad6111d682dd4d779531e674e" target="_top" xlink:title=" ">
<polygon fill="white" stroke="#666666" points="111.25,-214.5 0,-214.5 0,-184 111.25,-184 111.25,-214.5"/>
<text text-anchor="start" x="8" y="-201" font-family="Helvetica,sans-Serif" font-size="10.00">Slic3r::GUI::GUI_App</text>
<text text-anchor="middle" x="55.62" y="-189.75" font-family="Helvetica,sans-Serif" font-size="10.00">::post_init</text>
</a>
</g>
</g>
<!-- Node9&#45;&gt;Node10 -->
<g id="edge11_Node000009_Node000010" class="edge">
<title>Node9&#45;&gt;Node10</title>
<g id="a_edge11_Node000009_Node000010"><a xlink:title=" ">
<path fill="none" stroke="#63b8ff" d="M135.78,-199.25C127.67,-199.25 119.49,-199.25 111.63,-199.25"/>
<polygon fill="#63b8ff" stroke="#63b8ff" points="135.78,-202.75 145.78,-199.25 135.78,-195.75 135.78,-202.75"/>
</a>
</g>
</g>
</g>
</svg>

<g id="navigator" transform="translate(0 0)" fill="#404254">
  <rect fill="#f2f5e9" fill-opacity="0.5" stroke="#606060" stroke-width=".5" x="0" y="0" width="60" height="60"/>
  <use id="zoomplus" xlink:href="#zoomPlus" x="17" y="9" onmousedown="handleZoom(evt,'in')"/>
  <use id="zoomminus" xlink:href="#zoomMin" x="42" y="9" onmousedown="handleZoom(evt,'out')"/>
  <use id="reset" xlink:href="#resetDef" x="30" y="36" onmousedown="handleReset()"/>
   <use id="arrowup" xlink:href="#arrowUp" x="0" y="0" onmousedown="handlePan(0,-1)"/>
  <use id="arrowright" xlink:href="#arrowRight" x="0" y="0" onmousedown="handlePan(1,0)"/>
  <use id="arrowdown" xlink:href="#arrowDown" x="0" y="0" onmousedown="handlePan(0,1)"/>
  <use id="arrowleft" xlink:href="#arrowLeft" x="0" y="0" onmousedown="handlePan(-1,0)"/>
</g>
<svg viewBox="0 0 15 15" width="100%" height="30px" preserveAspectRatio="xMaxYMin meet">
 <g id="arrow_out" transform="scale(0.3 0.3)">
  <a xlink:href="class_slic3r_1_1_semver_a6c6269b78f59b8d31041252210541267_icgraph_org.svg" target="_base">
   <rect id="button" ry="5" rx="5" y="6" x="6" height="38" width="38"
        fill="#f2f5e9" fill-opacity="0.5" stroke="#606060" stroke-width="1.0"/>
   <path id="arrow"
     d="M 11.500037,31.436501 C 11.940474,20.09759 22.043105,11.32322 32.158766,21.979434 L 37.068811,17.246167 C 37.068811,17.246167 37.088388,32 37.088388,32 L 22.160133,31.978069 C 22.160133,31.978069 26.997745,27.140456 26.997745,27.140456 C 18.528582,18.264221 13.291696,25.230495 11.500037,31.436501 z"
     style="fill:#404040;"/>
  </a>
 </g>
</svg>

<style type='text/css'>
<![CDATA[
[data-mouse-over-selected='false'] { opacity: 0.7; }
[data-mouse-over-selected='true']  { opacity: 1.0; }
]]>
</style>
<script type="application/ecmascript"><![CDATA[
document.addEventListener('DOMContentLoaded', (event) => {
  highlightEdges();
  highlightAdjacentNodes();
});
]]></script>
</svg>
