<?xml version="1.0" encoding="UTF-8" standalone="no"?>
<!DOCTYPE svg PUBLIC "-//W3C//DTD SVG 1.1//EN"
 "http://www.w3.org/Graphics/SVG/1.1/DTD/svg11.dtd">
<!-- Generated by graphviz version 8.1.0 (20230707.0739)
 -->
<!-- Title: StaticBox::paintEvent Pages: 1 -->
<!--zoomable 165 -->

<svg id="main" version="1.1" xmlns="http://www.w3.org/2000/svg" xmlns:xlink="http://www.w3.org/1999/xlink" xml:space="preserve" onload="init(evt)">
<style type="text/css"><![CDATA[
.node, .edge {opacity: 0.7;}
.node.selected, .edge.selected {opacity: 1;}
.edge:hover path { stroke: red; }
.edge:hover polygon { stroke: red; fill: red; }
]]></style>

<defs>
  <circle id="rim" cx="0" cy="0" r="7"/>
  <circle id="rim2" cx="0" cy="0" r="3.5"/>
  <g id="zoomPlus">
    <use xlink:href="#rim" fill="#404040"><set attributeName="fill" to="#808080" begin="zoomplus.mouseover" end="zoomplus.mouseout"/></use>
    <path d="M-4,0h8M0,-4v8" fill="none" stroke="white" stroke-width="1.5" pointer-events="none"/>
  </g>
  <g id="zoomMin">
    <use xlink:href="#rim" fill="#404040"><set attributeName="fill" to="#808080" begin="zoomminus.mouseover" end="zoomminus.mouseout"/></use>
    <path d="M-4,0h8" fill="none" stroke="white" stroke-width="1.5" pointer-events="none"/>
  </g>
  <g id="arrowUp" transform="translate(30 24)">
    <use xlink:href="#rim"/>
    <path pointer-events="none" fill="none" stroke="white" stroke-width="1.5" d="M0,-3.0v7 M-2.5,-0.5L0,-3.0L2.5,-0.5"/>
  </g>
  <g id="arrowRight" transform="rotate(90) translate(36 -43)">
    <use xlink:href="#rim"/>
    <path pointer-events="none" fill="none" stroke="white" stroke-width="1.5" d="M0,-3.0v7 M-2.5,-0.5L0,-3.0L2.5,-0.5"/>
  </g>
  <g id="arrowDown" transform="rotate(180) translate(-30 -48)">
    <use xlink:href="#rim"/>
    <path pointer-events="none" fill="none" stroke="white" stroke-width="1.5" d="M0,-3.0v7 M-2.5,-0.5L0,-3.0L2.5,-0.5"/>
  </g>
  <g id="arrowLeft" transform="rotate(270) translate(-36 17)">
    <use xlink:href="#rim"/>
    <path pointer-events="none" fill="none" stroke="white" stroke-width="1.5" d="M0,-3.0v7 M-2.5,-0.5L0,-3.0L2.5,-0.5"/>
  </g>
  <g id="resetDef">
    <use xlink:href="#rim2" fill="#404040"><set attributeName="fill" to="#808080" begin="reset.mouseover" end="reset.mouseout"/></use>
  </g>
</defs>
<script type="application/ecmascript">
var viewWidth = 696;
var viewHeight = 165;
var sectionId = 'dynsection-8';
</script>
<script type="application/ecmascript" xlink:href="../../svg.min.js"/>
<svg id="graph" class="graph">
<g id="viewport">
<title>StaticBox::paintEvent</title>
<!-- Node1 -->
<g id="Node000001" class="node">
<title>Node1</title>
<g id="a_Node000001"><a xlink:title=" ">
<polygon fill="#999999" stroke="#666666" points="111.25,-74.25 0,-74.25 0,-55 111.25,-55 111.25,-74.25"/>
<text text-anchor="middle" x="55.62" y="-60.75" font-family="Helvetica,sans-Serif" font-size="10.00">StaticBox::paintEvent</text>
</a>
</g>
</g>
<!-- Node2 -->
<g id="Node000002" class="node">
<title>Node2</title>
<g id="a_Node000002"><a xlink:href="../../d2/dc2/class_static_box.html#ade5f81a0ffca229c139b5e53f3f5f023" target="_top" xlink:title=" ">
<polygon fill="white" stroke="#666666" points="239,-74.25 147.25,-74.25 147.25,-55 239,-55 239,-74.25"/>
<text text-anchor="middle" x="193.12" y="-60.75" font-family="Helvetica,sans-Serif" font-size="10.00">StaticBox::render</text>
</a>
</g>
</g>
<!-- Node1&#45;&gt;Node2 -->
<g id="edge1_Node000001_Node000002" class="edge">
<title>Node1&#45;&gt;Node2</title>
<g id="a_edge1_Node000001_Node000002"><a xlink:title=" ">
<path fill="none" stroke="#63b8ff" d="M111.74,-64.62C119.8,-64.62 128.1,-64.62 136.18,-64.62"/>
<polygon fill="#63b8ff" stroke="#63b8ff" points="136.01,-68.13 146.01,-64.62 136.01,-61.13 136.01,-68.13"/>
</a>
</g>
</g>
<!-- Node3 -->
<g id="Node000003" class="node">
<title>Node3</title>
<g id="a_Node000003"><a xlink:href="../../d2/dc2/class_static_box.html#a1d763f8fb0eba8370aa786e909621f40" target="_top" xlink:title=" ">
<polygon fill="white" stroke="#666666" points="381.75,-74.25 275,-74.25 275,-55 381.75,-55 381.75,-74.25"/>
<text text-anchor="middle" x="328.38" y="-60.75" font-family="Helvetica,sans-Serif" font-size="10.00">StaticBox::doRender</text>
</a>
</g>
</g>
<!-- Node2&#45;&gt;Node3 -->
<g id="edge2_Node000002_Node000003" class="edge">
<title>Node2&#45;&gt;Node3</title>
<g id="a_edge2_Node000002_Node000003"><a xlink:title=" ">
<path fill="none" stroke="#63b8ff" d="M239.24,-64.62C247.22,-64.62 255.66,-64.62 264.03,-64.62"/>
<polygon fill="#63b8ff" stroke="#63b8ff" points="263.95,-68.13 273.95,-64.62 263.95,-61.13 263.95,-68.13"/>
</a>
</g>
</g>
<!-- Node4 -->
<g id="Node000004" class="node">
<title>Node4</title>
<g id="a_Node000004"><a xlink:href="../../d4/d80/class_state_color.html#aadab2fcc0138286070e9e463116914ce" target="_top" xlink:title=" ">
<polygon fill="white" stroke="#666666" points="550,-130.25 417.75,-130.25 417.75,-111 550,-111 550,-130.25"/>
<text text-anchor="middle" x="483.88" y="-116.75" font-family="Helvetica,sans-Serif" font-size="10.00">StateColor::colorForStates</text>
</a>
</g>
</g>
<!-- Node3&#45;&gt;Node4 -->
<g id="edge3_Node000003_Node000004" class="edge">
<title>Node3&#45;&gt;Node4</title>
<g id="a_edge3_Node000003_Node000004"><a xlink:title=" ">
<path fill="none" stroke="#63b8ff" d="M350.48,-74.67C368.19,-82.86 394.27,-94.38 417.75,-102.62 422.55,-104.31 427.59,-105.94 432.65,-107.49"/>
<polygon fill="#63b8ff" stroke="#63b8ff" points="431.42,-111.07 442,-110.53 433.4,-104.35 431.42,-111.07"/>
</a>
</g>
</g>
<!-- Node7 -->
<g id="Node000007" class="node">
<title>Node7</title>
<g id="a_Node000007"><a xlink:href="../../d4/d80/class_state_color.html#a879064a7f59f438c72234f341c97f6bf" target="_top" xlink:title=" ">
<polygon fill="white" stroke="#666666" points="530.12,-93.25 437.62,-93.25 437.62,-74 530.12,-74 530.12,-93.25"/>
<text text-anchor="middle" x="483.88" y="-79.75" font-family="Helvetica,sans-Serif" font-size="10.00">StateColor::count</text>
</a>
</g>
</g>
<!-- Node3&#45;&gt;Node7 -->
<g id="edge7_Node000003_Node000007" class="edge">
<title>Node3&#45;&gt;Node7</title>
<g id="a_edge7_Node000003_Node000007"><a xlink:title=" ">
<path fill="none" stroke="#63b8ff" d="M382.2,-71.16C396.51,-72.93 412.04,-74.86 426.53,-76.65"/>
<polygon fill="#63b8ff" stroke="#63b8ff" points="426.02,-80.24 436.37,-77.99 426.88,-73.29 426.02,-80.24"/>
</a>
</g>
</g>
<!-- Node8 -->
<g id="Node000008" class="node">
<title>Node8</title>
<g id="a_Node000008"><a xlink:href="../../d4/df0/_array_cwise_unary_ops_8h.html#a3230e10964844c34fb73eaccc84dc8a7" target="_top" xlink:title=" ">
<polygon fill="white" stroke="#666666" points="501.25,-56.25 466.5,-56.25 466.5,-37 501.25,-37 501.25,-56.25"/>
<text text-anchor="middle" x="483.88" y="-42.75" font-family="Helvetica,sans-Serif" font-size="10.00">floor</text>
</a>
</g>
</g>
<!-- Node3&#45;&gt;Node8 -->
<g id="edge8_Node000003_Node000008" class="edge">
<title>Node3&#45;&gt;Node8</title>
<g id="a_edge8_Node000003_Node000008"><a xlink:title=" ">
<path fill="none" stroke="#63b8ff" d="M382.2,-58.43C406.82,-55.54 435.09,-52.23 455.39,-49.85"/>
<polygon fill="#63b8ff" stroke="#63b8ff" points="455.53,-53.24 465.05,-48.6 454.71,-46.29 455.53,-53.24"/>
</a>
</g>
</g>
<!-- Node9 -->
<g id="Node000009" class="node">
<title>Node9</title>
<g id="a_Node000009"><a xlink:href="../../d1/d5e/class_state_handler.html#a1506267f584834db7fd9ffac89437c00" target="_top" xlink:title=" ">
<polygon fill="white" stroke="#666666" points="536.88,-19.25 430.88,-19.25 430.88,0 536.88,0 536.88,-19.25"/>
<text text-anchor="middle" x="483.88" y="-5.75" font-family="Helvetica,sans-Serif" font-size="10.00">StateHandler::states</text>
</a>
</g>
</g>
<!-- Node3&#45;&gt;Node9 -->
<g id="edge9_Node000003_Node000009" class="edge">
<title>Node3&#45;&gt;Node9</title>
<g id="a_edge9_Node000003_Node000009"><a xlink:title=" ">
<path fill="none" stroke="#63b8ff" d="M351.23,-54.56C368.93,-46.63 394.64,-35.62 417.75,-27.62 422.62,-25.94 427.74,-24.3 432.87,-22.75"/>
<polygon fill="#63b8ff" stroke="#63b8ff" points="433.75,-25.84 442.37,-19.68 431.79,-19.13 433.75,-25.84"/>
</a>
</g>
</g>
<!-- Node5 -->
<g id="Node000005" class="node">
<title>Node5</title>
<g id="a_Node000005"><a xlink:href="../../d3/d55/_state_color_8cpp.html#a516dd14cca918469a885837471704d99" target="_top" xlink:title=" ">
<polygon fill="white" stroke="#666666" points="687.5,-157.25 586,-157.25 586,-138 687.5,-138 687.5,-157.25"/>
<text text-anchor="middle" x="636.75" y="-143.75" font-family="Helvetica,sans-Serif" font-size="10.00">darkModeColorFor2</text>
</a>
</g>
</g>
<!-- Node4&#45;&gt;Node5 -->
<g id="edge4_Node000004_Node000005" class="edge">
<title>Node4&#45;&gt;Node5</title>
<g id="a_edge4_Node000004_Node000005"><a xlink:title=" ">
<path fill="none" stroke="#63b8ff" d="M541.06,-130.68C552.23,-132.68 564.01,-134.79 575.32,-136.81"/>
<polygon fill="#63b8ff" stroke="#63b8ff" points="574.52,-140.4 584.98,-138.72 575.76,-133.51 574.52,-140.4"/>
</a>
</g>
</g>
<!-- Node6 -->
<g id="Node000006" class="node">
<title>Node6</title>
<g id="a_Node000006"><a xlink:href="../../d4/d80/class_state_color.html#a1135adf2b5f79b93718d3fd6f30fabe5" target="_top" xlink:title=" ">
<polygon fill="white" stroke="#666666" points="684.5,-102.25 589,-102.25 589,-83 684.5,-83 684.5,-102.25"/>
<text text-anchor="middle" x="636.75" y="-88.75" font-family="Helvetica,sans-Serif" font-size="10.00">StateColor::states</text>
</a>
</g>
</g>
<!-- Node4&#45;&gt;Node6 -->
<g id="edge5_Node000004_Node000006" class="edge">
<title>Node4&#45;&gt;Node6</title>
<g id="a_edge5_Node000004_Node000006"><a xlink:title=" ">
<path fill="none" stroke="#63b8ff" d="M539.34,-110.52C552.01,-108.17 565.52,-105.66 578.31,-103.29"/>
<polygon fill="#63b8ff" stroke="#63b8ff" points="578.65,-106.6 587.84,-101.33 577.37,-99.71 578.65,-106.6"/>
</a>
</g>
</g>
<!-- Node6&#45;&gt;Node6 -->
<g id="edge6_Node000006_Node000006" class="edge">
<title>Node6&#45;&gt;Node6</title>
<g id="a_edge6_Node000006_Node000006"><a xlink:title=" ">
<path fill="none" stroke="#63b8ff" d="M612.82,-102.54C601.9,-111.15 609.88,-120.25 636.75,-120.25 652.71,-120.25 662,-117.04 664.63,-112.63"/>
<polygon fill="#63b8ff" stroke="#63b8ff" points="667.59,-111.57 660.68,-103.54 661.07,-114.13 667.59,-111.57"/>
</a>
</g>
</g>
</g>
</svg>

<g id="navigator" transform="translate(0 0)" fill="#404254">
  <rect fill="#f2f5e9" fill-opacity="0.5" stroke="#606060" stroke-width=".5" x="0" y="0" width="60" height="60"/>
  <use id="zoomplus" xlink:href="#zoomPlus" x="17" y="9" onmousedown="handleZoom(evt,'in')"/>
  <use id="zoomminus" xlink:href="#zoomMin" x="42" y="9" onmousedown="handleZoom(evt,'out')"/>
  <use id="reset" xlink:href="#resetDef" x="30" y="36" onmousedown="handleReset()"/>
   <use id="arrowup" xlink:href="#arrowUp" x="0" y="0" onmousedown="handlePan(0,-1)"/>
  <use id="arrowright" xlink:href="#arrowRight" x="0" y="0" onmousedown="handlePan(1,0)"/>
  <use id="arrowdown" xlink:href="#arrowDown" x="0" y="0" onmousedown="handlePan(0,1)"/>
  <use id="arrowleft" xlink:href="#arrowLeft" x="0" y="0" onmousedown="handlePan(-1,0)"/>
</g>
<svg viewBox="0 0 15 15" width="100%" height="30px" preserveAspectRatio="xMaxYMin meet">
 <g id="arrow_out" transform="scale(0.3 0.3)">
  <a xlink:href="class_static_box_acb321836df51220c9cc6926f098d719c_cgraph_org.svg" target="_base">
   <rect id="button" ry="5" rx="5" y="6" x="6" height="38" width="38"
        fill="#f2f5e9" fill-opacity="0.5" stroke="#606060" stroke-width="1.0"/>
   <path id="arrow"
     d="M 11.500037,31.436501 C 11.940474,20.09759 22.043105,11.32322 32.158766,21.979434 L 37.068811,17.246167 C 37.068811,17.246167 37.088388,32 37.088388,32 L 22.160133,31.978069 C 22.160133,31.978069 26.997745,27.140456 26.997745,27.140456 C 18.528582,18.264221 13.291696,25.230495 11.500037,31.436501 z"
     style="fill:#404040;"/>
  </a>
 </g>
</svg>

<style type='text/css'>
<![CDATA[
[data-mouse-over-selected='false'] { opacity: 0.7; }
[data-mouse-over-selected='true']  { opacity: 1.0; }
]]>
</style>
<script type="application/ecmascript"><![CDATA[
document.addEventListener('DOMContentLoaded', (event) => {
  highlightEdges();
  highlightAdjacentNodes();
});
]]></script>
</svg>
