<?xml version="1.0" encoding="UTF-8" standalone="no"?>
<!DOCTYPE svg PUBLIC "-//W3C//DTD SVG 1.1//EN"
 "http://www.w3.org/Graphics/SVG/1.1/DTD/svg11.dtd">
<!-- Generated by graphviz version 8.1.0 (20230707.0739)
 -->
<!-- Title: calc_triangle_3rd_edge Pages: 1 -->
<svg width="637pt" height="39pt"
 viewBox="0.00 0.00 636.75 38.50" xmlns="http://www.w3.org/2000/svg" xmlns:xlink="http://www.w3.org/1999/xlink">
<g id="graph0" class="graph" transform="scale(1 1) rotate(0) translate(4 34.5)">
<title>calc_triangle_3rd_edge</title>
<!-- Node1 -->
<g id="Node000001" class="node">
<title>Node1</title>
<g id="a_Node000001"><a xlink:title=" ">
<polygon fill="#999999" stroke="#666666" points="628.75,-24.88 513,-24.88 513,-5.63 628.75,-5.63 628.75,-24.88"/>
<text text-anchor="middle" x="570.88" y="-11.38" font-family="Helvetica,sans-Serif" font-size="10.00">calc_triangle_3rd_edge</text>
</a>
</g>
</g>
<!-- Node2 -->
<g id="Node000002" class="node">
<title>Node2</title>
<g id="a_Node000002"><a xlink:href="../../d5/dfa/class_wiping_panel.html#a88f3c4782ebe219a5771fa840c27b83c" target="_top" xlink:title=" ">
<polygon fill="white" stroke="#666666" points="477,-30.5 343.25,-30.5 343.25,0 477,0 477,-30.5"/>
<text text-anchor="start" x="351.25" y="-17" font-family="Helvetica,sans-Serif" font-size="10.00">WipingPanel::calc_flushing</text>
<text text-anchor="middle" x="410.12" y="-5.75" font-family="Helvetica,sans-Serif" font-size="10.00">_volume</text>
</a>
</g>
</g>
<!-- Node1&#45;&gt;Node2 -->
<g id="edge1_Node000001_Node000002" class="edge">
<title>Node1&#45;&gt;Node2</title>
<g id="a_edge1_Node000001_Node000002"><a xlink:title=" ">
<path fill="none" stroke="#63b8ff" d="M501.66,-15.25C493.57,-15.25 485.32,-15.25 477.26,-15.25"/>
<polygon fill="#63b8ff" stroke="#63b8ff" points="501.56,-18.75 511.56,-15.25 501.56,-11.75 501.56,-18.75"/>
</a>
</g>
</g>
<!-- Node3 -->
<g id="Node000003" class="node">
<title>Node3</title>
<g id="a_Node000003"><a xlink:href="../../d5/dfa/class_wiping_panel.html#ac5829934b593e6f1473ed31e95b46786" target="_top" xlink:title=" ">
<polygon fill="white" stroke="#666666" points="307.25,-30.5 173.5,-30.5 173.5,0 307.25,0 307.25,-30.5"/>
<text text-anchor="start" x="181.5" y="-17" font-family="Helvetica,sans-Serif" font-size="10.00">WipingPanel::calc_flushing</text>
<text text-anchor="middle" x="240.38" y="-5.75" font-family="Helvetica,sans-Serif" font-size="10.00">_volumes</text>
</a>
</g>
</g>
<!-- Node2&#45;&gt;Node3 -->
<g id="edge2_Node000002_Node000003" class="edge">
<title>Node2&#45;&gt;Node3</title>
<g id="a_edge2_Node000002_Node000003"><a xlink:title=" ">
<path fill="none" stroke="#63b8ff" d="M331.9,-15.25C323.83,-15.25 315.68,-15.25 307.74,-15.25"/>
<polygon fill="#63b8ff" stroke="#63b8ff" points="331.83,-18.75 341.83,-15.25 331.83,-11.75 331.83,-18.75"/>
</a>
</g>
</g>
<!-- Node4 -->
<g id="Node000004" class="node">
<title>Node4</title>
<g id="a_Node000004"><a xlink:href="../../de/d42/class_wiping_dialog.html#a789a9ede4bf2f5283b1c2e49fbb9c3ff" target="_top" xlink:title=" ">
<polygon fill="white" stroke="#666666" points="137.5,-24.88 0,-24.88 0,-5.63 137.5,-5.63 137.5,-24.88"/>
<text text-anchor="middle" x="68.75" y="-11.38" font-family="Helvetica,sans-Serif" font-size="10.00">WipingDialog::WipingDialog</text>
</a>
</g>
</g>
<!-- Node3&#45;&gt;Node4 -->
<g id="edge3_Node000003_Node000004" class="edge">
<title>Node3&#45;&gt;Node4</title>
<g id="a_edge3_Node000003_Node000004"><a xlink:title=" ">
<path fill="none" stroke="#63b8ff" d="M162.57,-15.25C154.33,-15.25 146,-15.25 137.87,-15.25"/>
<polygon fill="#63b8ff" stroke="#63b8ff" points="162.31,-18.75 172.31,-15.25 162.31,-11.75 162.31,-18.75"/>
</a>
</g>
</g>
</g>
</svg>
