<?xml version="1.0" encoding="UTF-8" standalone="no"?>
<!DOCTYPE svg PUBLIC "-//W3C//DTD SVG 1.1//EN"
 "http://www.w3.org/Graphics/SVG/1.1/DTD/svg11.dtd">
<!-- Generated by graphviz version 8.1.0 (20230707.0739)
 -->
<!-- Title: Slic3r::GUI::GLGizmoSimplify::create_gui_cfg Pages: 1 -->
<!--zoomable 259 -->

<svg id="main" version="1.1" xmlns="http://www.w3.org/2000/svg" xmlns:xlink="http://www.w3.org/1999/xlink" xml:space="preserve" onload="init(evt)">
<style type="text/css"><![CDATA[
.node, .edge {opacity: 0.7;}
.node.selected, .edge.selected {opacity: 1;}
.edge:hover path { stroke: red; }
.edge:hover polygon { stroke: red; fill: red; }
]]></style>

<defs>
  <circle id="rim" cx="0" cy="0" r="7"/>
  <circle id="rim2" cx="0" cy="0" r="3.5"/>
  <g id="zoomPlus">
    <use xlink:href="#rim" fill="#404040"><set attributeName="fill" to="#808080" begin="zoomplus.mouseover" end="zoomplus.mouseout"/></use>
    <path d="M-4,0h8M0,-4v8" fill="none" stroke="white" stroke-width="1.5" pointer-events="none"/>
  </g>
  <g id="zoomMin">
    <use xlink:href="#rim" fill="#404040"><set attributeName="fill" to="#808080" begin="zoomminus.mouseover" end="zoomminus.mouseout"/></use>
    <path d="M-4,0h8" fill="none" stroke="white" stroke-width="1.5" pointer-events="none"/>
  </g>
  <g id="arrowUp" transform="translate(30 24)">
    <use xlink:href="#rim"/>
    <path pointer-events="none" fill="none" stroke="white" stroke-width="1.5" d="M0,-3.0v7 M-2.5,-0.5L0,-3.0L2.5,-0.5"/>
  </g>
  <g id="arrowRight" transform="rotate(90) translate(36 -43)">
    <use xlink:href="#rim"/>
    <path pointer-events="none" fill="none" stroke="white" stroke-width="1.5" d="M0,-3.0v7 M-2.5,-0.5L0,-3.0L2.5,-0.5"/>
  </g>
  <g id="arrowDown" transform="rotate(180) translate(-30 -48)">
    <use xlink:href="#rim"/>
    <path pointer-events="none" fill="none" stroke="white" stroke-width="1.5" d="M0,-3.0v7 M-2.5,-0.5L0,-3.0L2.5,-0.5"/>
  </g>
  <g id="arrowLeft" transform="rotate(270) translate(-36 17)">
    <use xlink:href="#rim"/>
    <path pointer-events="none" fill="none" stroke="white" stroke-width="1.5" d="M0,-3.0v7 M-2.5,-0.5L0,-3.0L2.5,-0.5"/>
  </g>
  <g id="resetDef">
    <use xlink:href="#rim2" fill="#404040"><set attributeName="fill" to="#808080" begin="reset.mouseover" end="reset.mouseout"/></use>
  </g>
</defs>
<script type="application/ecmascript">
var viewWidth = 1521;
var viewHeight = 259;
var sectionId = 'dynsection-10';
</script>
<script type="application/ecmascript" xlink:href="../../svg.min.js"/>
<svg id="graph" class="graph">
<g id="viewport">
<title>Slic3r::GUI::GLGizmoSimplify::create_gui_cfg</title>
<!-- Node1 -->
<g id="Node000001" class="node">
<title>Node1</title>
<g id="a_Node000001"><a xlink:title=" ">
<polygon fill="#999999" stroke="#666666" points="147.25,-73.5 0,-73.5 0,-43 147.25,-43 147.25,-73.5"/>
<text text-anchor="start" x="8" y="-60" font-family="Helvetica,sans-Serif" font-size="10.00">Slic3r::GUI::GLGizmoSimplify</text>
<text text-anchor="middle" x="73.62" y="-48.75" font-family="Helvetica,sans-Serif" font-size="10.00">::create_gui_cfg</text>
</a>
</g>
</g>
<!-- Node2 -->
<g id="Node000002" class="node">
<title>Node2</title>
<g id="a_Node000002"><a xlink:href="../../d6/d97/class_slic3r_1_1_g_u_i_1_1_im_gui_wrapper.html#aadbd2cfb7c4f127b48cde69e6610fecd" target="_top" xlink:title=" ">
<polygon fill="white" stroke="#666666" points="316.25,-116.5 183.25,-116.5 183.25,-86 316.25,-86 316.25,-116.5"/>
<text text-anchor="start" x="191.25" y="-103" font-family="Helvetica,sans-Serif" font-size="10.00">Slic3r::GUI::ImGuiWrapper</text>
<text text-anchor="middle" x="249.75" y="-91.75" font-family="Helvetica,sans-Serif" font-size="10.00">::calc_text_size</text>
</a>
</g>
</g>
<!-- Node1&#45;&gt;Node2 -->
<g id="edge1_Node000001_Node000002" class="edge">
<title>Node1&#45;&gt;Node2</title>
<g id="a_edge1_Node000001_Node000002"><a xlink:title=" ">
<path fill="none" stroke="#63b8ff" d="M137.98,-73.9C149.86,-76.83 162.38,-79.92 174.56,-82.93"/>
<polygon fill="#63b8ff" stroke="#63b8ff" points="173.6,-86.54 184.15,-85.54 175.28,-79.75 173.6,-86.54"/>
</a>
</g>
</g>
<!-- Node105 -->
<g id="Node000105" class="node">
<title>Node105</title>
<g id="a_Node000105"><a xlink:href="../../df/d13/namespace_im_gui.html#ae560f17cf3262017cee888d1eb77f294" target="_top" xlink:title=" ">
<polygon fill="white" stroke="#666666" points="309.88,-67.88 189.62,-67.88 189.62,-48.62 309.88,-48.62 309.88,-67.88"/>
<text text-anchor="middle" x="249.75" y="-54.38" font-family="Helvetica,sans-Serif" font-size="10.00">ImGui::GetFrameHeight</text>
</a>
</g>
</g>
<!-- Node1&#45;&gt;Node105 -->
<g id="edge24_Node000001_Node000105" class="edge">
<title>Node1&#45;&gt;Node105</title>
<g id="a_edge24_Node000001_Node000105"><a xlink:title=" ">
<path fill="none" stroke="#63b8ff" d="M147.71,-58.25C157.9,-58.25 168.34,-58.25 178.47,-58.25"/>
<polygon fill="#63b8ff" stroke="#63b8ff" points="178.31,-61.75 188.31,-58.25 178.31,-54.75 178.31,-61.75"/>
</a>
</g>
</g>
<!-- Node106 -->
<g id="Node000106" class="node">
<title>Node106</title>
<g id="a_Node000106"><a xlink:href="../../df/d13/namespace_im_gui.html#aa1616f6082fd210fde8d98c511bf8f56" target="_top" xlink:title=" ">
<polygon fill="white" stroke="#666666" points="314.38,-30.5 185.12,-30.5 185.12,0 314.38,0 314.38,-30.5"/>
<text text-anchor="start" x="193.12" y="-17" font-family="Helvetica,sans-Serif" font-size="10.00">ImGui::GetTextLineHeight</text>
<text text-anchor="middle" x="249.75" y="-5.75" font-family="Helvetica,sans-Serif" font-size="10.00">WithSpacing</text>
</a>
</g>
</g>
<!-- Node1&#45;&gt;Node106 -->
<g id="edge25_Node000001_Node000106" class="edge">
<title>Node1&#45;&gt;Node106</title>
<g id="a_edge25_Node000001_Node000106"><a xlink:title=" ">
<path fill="none" stroke="#63b8ff" d="M137.98,-42.6C149.86,-39.67 162.38,-36.58 174.56,-33.57"/>
<polygon fill="#63b8ff" stroke="#63b8ff" points="175.28,-36.75 184.15,-30.96 173.6,-29.96 175.28,-36.75"/>
</a>
</g>
</g>
<!-- Node3 -->
<g id="Node000003" class="node">
<title>Node3</title>
<g id="a_Node000003"><a xlink:href="../../df/d13/namespace_im_gui.html#a848b9db6cc4a186751c0ecebcaadc33b" target="_top" xlink:title=" ">
<polygon fill="white" stroke="#666666" points="979.38,-166.88 872.62,-166.88 872.62,-147.62 979.38,-147.62 979.38,-166.88"/>
<text text-anchor="middle" x="926" y="-153.38" font-family="Helvetica,sans-Serif" font-size="10.00">ImGui::CalcTextSize</text>
</a>
</g>
</g>
<!-- Node2&#45;&gt;Node3 -->
<g id="edge2_Node000002_Node000003" class="edge">
<title>Node2&#45;&gt;Node3</title>
<g id="a_edge2_Node000002_Node000003"><a xlink:title=" ">
<path fill="none" stroke="#63b8ff" d="M286.72,-116.91C305.83,-124.58 329.93,-133.22 352.25,-138.25 440,-158.04 463.8,-157.25 553.75,-157.25 553.75,-157.25 553.75,-157.25 662.12,-157.25 730.08,-157.25 807.92,-157.25 861.16,-157.25"/>
<polygon fill="#63b8ff" stroke="#63b8ff" points="861.13,-160.75 871.13,-157.25 861.13,-153.75 861.13,-160.75"/>
</a>
</g>
</g>
<!-- Node13 -->
<g id="Node000013" class="node">
<title>Node13</title>
<g id="a_Node000013"><a xlink:href="../../d9/d45/namespace_slic3r_1_1_g_u_i.html#a9fb3c1c57b9214c5fcd28fa70c299769" target="_top" xlink:title=" ">
<polygon fill="white" stroke="#666666" points="469.88,-110.88 367.62,-110.88 367.62,-91.62 469.88,-91.62 469.88,-110.88"/>
<text text-anchor="middle" x="418.75" y="-97.38" font-family="Helvetica,sans-Serif" font-size="10.00">Slic3r::GUI::into_u8</text>
</a>
</g>
</g>
<!-- Node2&#45;&gt;Node13 -->
<g id="edge13_Node000002_Node000013" class="edge">
<title>Node2&#45;&gt;Node13</title>
<g id="a_edge13_Node000002_Node000013"><a xlink:title=" ">
<path fill="none" stroke="#63b8ff" d="M316.27,-101.25C329.48,-101.25 343.32,-101.25 356.38,-101.25"/>
<polygon fill="#63b8ff" stroke="#63b8ff" points="356.13,-104.75 366.13,-101.25 356.13,-97.75 356.13,-104.75"/>
</a>
</g>
</g>
<!-- Node14 -->
<g id="Node000014" class="node">
<title>Node14</title>
<g id="a_Node000014"><a xlink:href="../../d6/d97/class_slic3r_1_1_g_u_i_1_1_im_gui_wrapper.html#a67859c8a34baabf31b25e1bb22a726d8" target="_top" xlink:title=" ">
<polygon fill="white" stroke="#666666" points="485.25,-73.5 352.25,-73.5 352.25,-43 485.25,-43 485.25,-73.5"/>
<text text-anchor="start" x="360.25" y="-60" font-family="Helvetica,sans-Serif" font-size="10.00">Slic3r::GUI::ImGuiWrapper</text>
<text text-anchor="middle" x="418.75" y="-48.75" font-family="Helvetica,sans-Serif" font-size="10.00">::text</text>
</a>
</g>
</g>
<!-- Node2&#45;&gt;Node14 -->
<g id="edge15_Node000002_Node000014" class="edge">
<title>Node2&#45;&gt;Node14</title>
<g id="a_edge15_Node000002_Node000014"><a xlink:title=" ">
<path fill="none" stroke="#63b8ff" d="M311.51,-85.6C322.79,-82.7 334.68,-79.64 346.24,-76.66"/>
<polygon fill="#63b8ff" stroke="#63b8ff" points="346.94,-79.84 355.75,-73.96 345.2,-73.06 346.94,-79.84"/>
</a>
</g>
</g>
<!-- Node4 -->
<g id="Node000004" class="node">
<title>Node4</title>
<g id="a_Node000004"><a xlink:href="../../d7/dc9/struct_im_font.html#ad67f64fd206ad197f4b93b1a1ae27cfe" target="_top" xlink:title=" ">
<polygon fill="white" stroke="#666666" points="1159.25,-166.88 1041.25,-166.88 1041.25,-147.62 1159.25,-147.62 1159.25,-166.88"/>
<text text-anchor="middle" x="1100.25" y="-153.38" font-family="Helvetica,sans-Serif" font-size="10.00">ImFont::CalcTextSizeA</text>
</a>
</g>
</g>
<!-- Node3&#45;&gt;Node4 -->
<g id="edge3_Node000003_Node000004" class="edge">
<title>Node3&#45;&gt;Node4</title>
<g id="a_edge3_Node000003_Node000004"><a xlink:title=" ">
<path fill="none" stroke="#63b8ff" d="M979.62,-157.25C995.52,-157.25 1013.24,-157.25 1030.06,-157.25"/>
<polygon fill="#63b8ff" stroke="#63b8ff" points="1029.95,-160.75 1039.95,-157.25 1029.95,-153.75 1029.95,-160.75"/>
</a>
</g>
</g>
<!-- Node12 -->
<g id="Node000012" class="node">
<title>Node12</title>
<g id="a_Node000012"><a xlink:href="../../df/d13/namespace_im_gui.html#a7671e1dbc803a31b06081b52a771d83f" target="_top" xlink:title=" ">
<polygon fill="white" stroke="#666666" points="1172.75,-203.88 1027.75,-203.88 1027.75,-184.62 1172.75,-184.62 1172.75,-203.88"/>
<text text-anchor="middle" x="1100.25" y="-190.38" font-family="Helvetica,sans-Serif" font-size="10.00">ImGui::FindRenderedTextEnd</text>
</a>
</g>
</g>
<!-- Node3&#45;&gt;Node12 -->
<g id="edge12_Node000003_Node000012" class="edge">
<title>Node3&#45;&gt;Node12</title>
<g id="a_edge12_Node000003_Node000012"><a xlink:title=" ">
<path fill="none" stroke="#63b8ff" d="M974.07,-167.36C994.95,-171.85 1019.73,-177.17 1041.71,-181.89"/>
<polygon fill="#63b8ff" stroke="#63b8ff" points="1040.73,-185.47 1051.24,-184.15 1042.2,-178.63 1040.73,-185.47"/>
</a>
</g>
</g>
<!-- Node5 -->
<g id="Node000005" class="node">
<title>Node5</title>
<g id="a_Node000005"><a xlink:href="../../d7/dc9/struct_im_font.html#a3781bb82a1ceba919cb6c98a398c7a67" target="_top" xlink:title=" ">
<polygon fill="white" stroke="#666666" points="1368.75,-174.88 1208.75,-174.88 1208.75,-155.62 1368.75,-155.62 1368.75,-174.88"/>
<text text-anchor="middle" x="1288.75" y="-161.38" font-family="Helvetica,sans-Serif" font-size="10.00">ImFont::CalcWordWrapPositionA</text>
</a>
</g>
</g>
<!-- Node4&#45;&gt;Node5 -->
<g id="edge4_Node000004_Node000005" class="edge">
<title>Node4&#45;&gt;Node5</title>
<g id="a_edge4_Node000004_Node000005"><a xlink:title=" ">
<path fill="none" stroke="#63b8ff" d="M1159.75,-159.76C1171.77,-160.27 1184.68,-160.83 1197.52,-161.38"/>
<polygon fill="#63b8ff" stroke="#63b8ff" points="1197.13,-164.91 1207.27,-161.84 1197.43,-157.92 1197.13,-164.91"/>
</a>
</g>
</g>
<!-- Node7 -->
<g id="Node000007" class="node">
<title>Node7</title>
<g id="a_Node000007"><a xlink:href="../../da/d72/imgui_8cpp.html#a036b9dd7f0942fd34e385cc115f36631" target="_top" xlink:title=" ">
<polygon fill="#fff0f0" stroke="red" points="1513,-211.88 1404.75,-211.88 1404.75,-192.62 1513,-192.62 1513,-211.88"/>
<text text-anchor="middle" x="1458.88" y="-198.38" font-family="Helvetica,sans-Serif" font-size="10.00">ImTextCharFromUtf8</text>
</a>
</g>
</g>
<!-- Node4&#45;&gt;Node7 -->
<g id="edge10_Node000004_Node000007" class="edge">
<title>Node4&#45;&gt;Node7</title>
<g id="a_edge10_Node000004_Node000007"><a xlink:title=" ">
<path fill="none" stroke="#63b8ff" d="M1141.35,-167.34C1171.72,-174.98 1208.31,-184.18 1208.75,-184.25 1271.18,-194.27 1343.3,-198.71 1393.83,-200.68"/>
<polygon fill="#63b8ff" stroke="#63b8ff" points="1393.47,-204.21 1403.59,-201.08 1393.73,-197.21 1393.47,-204.21"/>
</a>
</g>
</g>
<!-- Node9 -->
<g id="Node000009" class="node">
<title>Node9</title>
<g id="a_Node000009"><a xlink:href="../../d6/dba/_wipe_tower_dialog_8cpp.html#a031c2862b832be718b216d1f101f88cd" target="_top" xlink:title=" ">
<polygon fill="white" stroke="#666666" points="1478.5,-137.88 1439.25,-137.88 1439.25,-118.62 1478.5,-118.62 1478.5,-137.88"/>
<text text-anchor="middle" x="1458.88" y="-124.38" font-family="Helvetica,sans-Serif" font-size="10.00">scale</text>
</a>
</g>
</g>
<!-- Node4&#45;&gt;Node9 -->
<g id="edge11_Node000004_Node000009" class="edge">
<title>Node4&#45;&gt;Node9</title>
<g id="a_edge11_Node000004_Node000009"><a xlink:title=" ">
<path fill="none" stroke="#63b8ff" d="M1159.52,-150.97C1175.47,-149.33 1192.77,-147.64 1208.75,-146.25 1287.8,-139.35 1381.13,-133.12 1427.93,-130.12"/>
<polygon fill="#63b8ff" stroke="#63b8ff" points="1428.04,-133.56 1437.79,-129.43 1427.59,-126.57 1428.04,-133.56"/>
</a>
</g>
</g>
<!-- Node10 -->
<g id="Node000010" class="node">
<title>Node10</title>
<g id="a_Node000010"><a xlink:href="../../d1/da2/imgui__internal_8h.html#ac22c577d0d6591a9d948ab5590663359" target="_top" xlink:title=" ">
<polygon fill="white" stroke="#666666" points="1332.75,-250.88 1244.75,-250.88 1244.75,-231.62 1332.75,-231.62 1332.75,-250.88"/>
<text text-anchor="middle" x="1288.75" y="-237.38" font-family="Helvetica,sans-Serif" font-size="10.00">ImCharIsBlankA</text>
</a>
</g>
</g>
<!-- Node4&#45;&gt;Node10 -->
<g id="edge8_Node000004_Node000010" class="edge">
<title>Node4&#45;&gt;Node10</title>
<g id="a_edge8_Node000004_Node000010"><a xlink:title=" ">
<path fill="none" stroke="#63b8ff" d="M1156.18,-167.32C1161.99,-169.47 1167.63,-172.08 1172.75,-175.25 1193.65,-188.19 1188.17,-203.81 1208.75,-217.25 1216.43,-222.26 1225.2,-226.27 1234.04,-229.46"/>
<polygon fill="#63b8ff" stroke="#63b8ff" points="1232.8,-233.06 1243.39,-232.84 1234.97,-226.41 1232.8,-233.06"/>
</a>
</g>
</g>
<!-- Node11 -->
<g id="Node000011" class="node">
<title>Node11</title>
<g id="a_Node000011"><a xlink:href="../../d1/da2/imgui__internal_8h.html#a7667efd95147d0422f140917c71a9226" target="_top" xlink:title=" ">
<polygon fill="white" stroke="#666666" points="1311.75,-98.88 1265.75,-98.88 1265.75,-79.62 1311.75,-79.62 1311.75,-98.88"/>
<text text-anchor="middle" x="1288.75" y="-85.38" font-family="Helvetica,sans-Serif" font-size="10.00">ImMax</text>
</a>
</g>
</g>
<!-- Node4&#45;&gt;Node11 -->
<g id="edge9_Node000004_Node000011" class="edge">
<title>Node4&#45;&gt;Node11</title>
<g id="a_edge9_Node000004_Node000011"><a xlink:title=" ">
<path fill="none" stroke="#63b8ff" d="M1124.08,-147.18C1145.67,-137.82 1179.11,-123.79 1208.75,-113.25 1223.82,-107.89 1240.76,-102.64 1255.07,-98.43"/>
<polygon fill="#63b8ff" stroke="#63b8ff" points="1255.81,-101.57 1264.43,-95.43 1253.86,-94.85 1255.81,-101.57"/>
</a>
</g>
</g>
<!-- Node6 -->
<g id="Node000006" class="node">
<title>Node6</title>
<g id="a_Node000006"><a xlink:href="../../d1/da2/imgui__internal_8h.html#a28a0d11512ebeb664af106f145a37ddd" target="_top" xlink:title=" ">
<polygon fill="white" stroke="#666666" points="1504.38,-174.88 1413.38,-174.88 1413.38,-155.62 1504.38,-155.62 1504.38,-174.88"/>
<text text-anchor="middle" x="1458.88" y="-161.38" font-family="Helvetica,sans-Serif" font-size="10.00">ImCharIsBlankW</text>
</a>
</g>
</g>
<!-- Node5&#45;&gt;Node6 -->
<g id="edge5_Node000005_Node000006" class="edge">
<title>Node5&#45;&gt;Node6</title>
<g id="a_edge5_Node000005_Node000006"><a xlink:title=" ">
<path fill="none" stroke="#63b8ff" d="M1368.89,-165.25C1380.14,-165.25 1391.51,-165.25 1402.19,-165.25"/>
<polygon fill="#63b8ff" stroke="#63b8ff" points="1402.03,-168.75 1412.03,-165.25 1402.03,-161.75 1402.03,-168.75"/>
</a>
</g>
</g>
<!-- Node5&#45;&gt;Node7 -->
<g id="edge6_Node000005_Node000007" class="edge">
<title>Node5&#45;&gt;Node7</title>
<g id="a_edge6_Node000005_Node000007"><a xlink:title=" ">
<path fill="none" stroke="#63b8ff" d="M1335.69,-175.36C1355.98,-179.83 1380.04,-185.12 1401.42,-189.82"/>
<polygon fill="#63b8ff" stroke="#63b8ff" points="1400.47,-193.42 1410.99,-192.15 1401.98,-186.58 1400.47,-193.42"/>
</a>
</g>
</g>
<!-- Node5&#45;&gt;Node9 -->
<g id="edge7_Node000005_Node000009" class="edge">
<title>Node5&#45;&gt;Node9</title>
<g id="a_edge7_Node000005_Node000009"><a xlink:title=" ">
<path fill="none" stroke="#63b8ff" d="M1335.69,-155.14C1365.33,-148.62 1403,-140.33 1428.62,-134.69"/>
<polygon fill="#63b8ff" stroke="#63b8ff" points="1429.13,-137.94 1438.14,-132.37 1427.62,-131.1 1429.13,-137.94"/>
</a>
</g>
</g>
<!-- Node13&#45;&gt;Node13 -->
<g id="edge14_Node000013_Node000013" class="edge">
<title>Node13&#45;&gt;Node13</title>
<g id="a_edge14_Node000013_Node000013"><a xlink:title=" ">
<path fill="none" stroke="#63b8ff" d="M397.46,-111.16C387.75,-119.77 394.84,-128.88 418.75,-128.88 432.57,-128.88 440.77,-125.83 443.36,-121.6"/>
<polygon fill="#63b8ff" stroke="#63b8ff" points="446.41,-120.63 440.04,-112.16 439.73,-122.75 446.41,-120.63"/>
</a>
</g>
</g>
<!-- Node15 -->
<g id="Node000015" class="node">
<title>Node15</title>
<g id="a_Node000015"><a xlink:href="../../df/d13/namespace_im_gui.html#a9e7b83611fe441d54fad2effb4bf4965" target="_top" xlink:title=" ">
<polygon fill="white" stroke="#666666" points="588.25,-67.88 521.25,-67.88 521.25,-48.62 588.25,-48.62 588.25,-67.88"/>
<text text-anchor="middle" x="554.75" y="-54.38" font-family="Helvetica,sans-Serif" font-size="10.00">ImGui::Text</text>
</a>
</g>
</g>
<!-- Node14&#45;&gt;Node15 -->
<g id="edge16_Node000014_Node000015" class="edge">
<title>Node14&#45;&gt;Node15</title>
<g id="a_edge16_Node000014_Node000015"><a xlink:title=" ">
<path fill="none" stroke="#63b8ff" d="M485.57,-58.25C493.94,-58.25 502.33,-58.25 510.23,-58.25"/>
<polygon fill="#63b8ff" stroke="#63b8ff" points="510,-61.75 520,-58.25 510,-54.75 510,-61.75"/>
</a>
</g>
</g>
<!-- Node16 -->
<g id="Node000016" class="node">
<title>Node16</title>
<g id="a_Node000016"><a xlink:href="../../df/d13/namespace_im_gui.html#a10a0d6362178c2f743092f21e1b6cd20" target="_top" xlink:title=" ">
<polygon fill="white" stroke="#666666" points="698,-67.88 624.25,-67.88 624.25,-48.62 698,-48.62 698,-67.88"/>
<text text-anchor="middle" x="661.12" y="-54.38" font-family="Helvetica,sans-Serif" font-size="10.00">ImGui::TextV</text>
</a>
</g>
</g>
<!-- Node15&#45;&gt;Node16 -->
<g id="edge17_Node000015_Node000016" class="edge">
<title>Node15&#45;&gt;Node16</title>
<g id="a_edge17_Node000015_Node000016"><a xlink:title=" ">
<path fill="none" stroke="#63b8ff" d="M588.49,-58.25C596.3,-58.25 604.8,-58.25 613.11,-58.25"/>
<polygon fill="#63b8ff" stroke="#63b8ff" points="612.87,-61.75 622.87,-58.25 612.87,-54.75 612.87,-61.75"/>
</a>
</g>
</g>
<!-- Node17 -->
<g id="Node000017" class="node">
<title>Node17</title>
<g id="a_Node000017"><a xlink:href="../../df/d13/namespace_im_gui.html#ac452417b5004ca16a814a72cff153526" target="_top" xlink:title=" ">
<polygon fill="white" stroke="#666666" points="991.75,-67.88 860.25,-67.88 860.25,-48.62 991.75,-48.62 991.75,-67.88"/>
<text text-anchor="middle" x="926" y="-54.38" font-family="Helvetica,sans-Serif" font-size="10.00">ImGui::GetCurrentWindow</text>
</a>
</g>
</g>
<!-- Node16&#45;&gt;Node17 -->
<g id="edge18_Node000016_Node000017" class="edge">
<title>Node16&#45;&gt;Node17</title>
<g id="a_edge18_Node000016_Node000017"><a xlink:title=" ">
<path fill="none" stroke="#63b8ff" d="M698.4,-58.25C737.03,-58.25 799.29,-58.25 848.79,-58.25"/>
<polygon fill="#63b8ff" stroke="#63b8ff" points="848.78,-61.75 858.78,-58.25 848.78,-54.75 848.78,-61.75"/>
</a>
</g>
</g>
<!-- Node18 -->
<g id="Node000018" class="node">
<title>Node18</title>
<g id="a_Node000018"><a xlink:href="../../da/d72/imgui_8cpp.html#a2e0022a073d369645a0daab17f823779" target="_top" xlink:title=" ">
<polygon fill="white" stroke="#666666" points="824.25,-29.88 734,-29.88 734,-10.62 824.25,-10.62 824.25,-29.88"/>
<text text-anchor="middle" x="779.12" y="-16.38" font-family="Helvetica,sans-Serif" font-size="10.00">ImFormatStringV</text>
</a>
</g>
</g>
<!-- Node16&#45;&gt;Node18 -->
<g id="edge19_Node000016_Node000018" class="edge">
<title>Node16&#45;&gt;Node18</title>
<g id="a_edge19_Node000016_Node000018"><a xlink:title=" ">
<path fill="none" stroke="#63b8ff" d="M692.91,-48.17C706.52,-43.71 722.71,-38.4 737.31,-33.62"/>
<polygon fill="#63b8ff" stroke="#63b8ff" points="738.19,-36.69 746.6,-30.25 736.01,-30.04 738.19,-36.69"/>
</a>
</g>
</g>
<!-- Node19 -->
<g id="Node000019" class="node">
<title>Node19</title>
<g id="a_Node000019"><a xlink:href="../../df/d13/namespace_im_gui.html#aae6420fec03511fd478d9108f31e6b5f" target="_top" xlink:title=" ">
<polygon fill="#fff0f0" stroke="red" points="818.62,-105.88 739.62,-105.88 739.62,-86.62 818.62,-86.62 818.62,-105.88"/>
<text text-anchor="middle" x="779.12" y="-92.38" font-family="Helvetica,sans-Serif" font-size="10.00">ImGui::TextEx</text>
</a>
</g>
</g>
<!-- Node16&#45;&gt;Node19 -->
<g id="edge20_Node000016_Node000019" class="edge">
<title>Node16&#45;&gt;Node19</title>
<g id="a_edge20_Node000016_Node000019"><a xlink:title=" ">
<path fill="none" stroke="#63b8ff" d="M692.91,-68.33C706.52,-72.79 722.71,-78.1 737.31,-82.88"/>
<polygon fill="#63b8ff" stroke="#63b8ff" points="736.01,-86.46 746.6,-86.25 738.19,-79.81 736.01,-86.46"/>
</a>
</g>
</g>
<!-- Node19&#45;&gt;Node3 -->
<g id="edge21_Node000019_Node000003" class="edge">
<title>Node19&#45;&gt;Node3</title>
<g id="a_edge21_Node000019_Node000003"><a xlink:title=" ">
<path fill="none" stroke="#63b8ff" d="M804.05,-106.32C827.75,-116.3 864.26,-131.68 890.98,-142.92"/>
<polygon fill="#63b8ff" stroke="#63b8ff" points="889.47,-146.51 900.04,-147.16 892.18,-140.06 889.47,-146.51"/>
</a>
</g>
</g>
<!-- Node19&#45;&gt;Node11 -->
<g id="edge23_Node000019_Node000011" class="edge">
<title>Node19&#45;&gt;Node11</title>
<g id="a_edge23_Node000019_Node000011"><a xlink:title=" ">
<path fill="none" stroke="#63b8ff" d="M819.11,-95.71C915.64,-94.38 1164.44,-90.95 1254.54,-89.71"/>
<polygon fill="#63b8ff" stroke="#63b8ff" points="1254.5,-93.2 1264.45,-89.56 1254.4,-86.2 1254.5,-93.2"/>
</a>
</g>
</g>
<!-- Node19&#45;&gt;Node17 -->
<g id="edge22_Node000019_Node000017" class="edge">
<title>Node19&#45;&gt;Node17</title>
<g id="a_edge22_Node000019_Node000017"><a xlink:title=" ">
<path fill="none" stroke="#63b8ff" d="M818.57,-86.17C836.24,-81.53 857.4,-75.98 876.18,-71.05"/>
<polygon fill="#63b8ff" stroke="#63b8ff" points="876.84,-74.24 885.63,-68.31 875.07,-67.47 876.84,-74.24"/>
</a>
</g>
</g>
</g>
</svg>

<g id="navigator" transform="translate(0 0)" fill="#404254">
  <rect fill="#f2f5e9" fill-opacity="0.5" stroke="#606060" stroke-width=".5" x="0" y="0" width="60" height="60"/>
  <use id="zoomplus" xlink:href="#zoomPlus" x="17" y="9" onmousedown="handleZoom(evt,'in')"/>
  <use id="zoomminus" xlink:href="#zoomMin" x="42" y="9" onmousedown="handleZoom(evt,'out')"/>
  <use id="reset" xlink:href="#resetDef" x="30" y="36" onmousedown="handleReset()"/>
   <use id="arrowup" xlink:href="#arrowUp" x="0" y="0" onmousedown="handlePan(0,-1)"/>
  <use id="arrowright" xlink:href="#arrowRight" x="0" y="0" onmousedown="handlePan(1,0)"/>
  <use id="arrowdown" xlink:href="#arrowDown" x="0" y="0" onmousedown="handlePan(0,1)"/>
  <use id="arrowleft" xlink:href="#arrowLeft" x="0" y="0" onmousedown="handlePan(-1,0)"/>
</g>
<svg viewBox="0 0 15 15" width="100%" height="30px" preserveAspectRatio="xMaxYMin meet">
 <g id="arrow_out" transform="scale(0.3 0.3)">
  <a xlink:href="class_slic3r_1_1_g_u_i_1_1_g_l_gizmo_simplify_a20a463b4f1b25f266faa3c8c705661c1_cgraph_org.svg" target="_base">
   <rect id="button" ry="5" rx="5" y="6" x="6" height="38" width="38"
        fill="#f2f5e9" fill-opacity="0.5" stroke="#606060" stroke-width="1.0"/>
   <path id="arrow"
     d="M 11.500037,31.436501 C 11.940474,20.09759 22.043105,11.32322 32.158766,21.979434 L 37.068811,17.246167 C 37.068811,17.246167 37.088388,32 37.088388,32 L 22.160133,31.978069 C 22.160133,31.978069 26.997745,27.140456 26.997745,27.140456 C 18.528582,18.264221 13.291696,25.230495 11.500037,31.436501 z"
     style="fill:#404040;"/>
  </a>
 </g>
</svg>

<style type='text/css'>
<![CDATA[
[data-mouse-over-selected='false'] { opacity: 0.7; }
[data-mouse-over-selected='true']  { opacity: 1.0; }
]]>
</style>
<script type="application/ecmascript"><![CDATA[
document.addEventListener('DOMContentLoaded', (event) => {
  highlightEdges();
  highlightAdjacentNodes();
});
]]></script>
</svg>
