<?xml version="1.0" encoding="UTF-8" standalone="no"?>
<!DOCTYPE svg PUBLIC "-//W3C//DTD SVG 1.1//EN"
 "http://www.w3.org/Graphics/SVG/1.1/DTD/svg11.dtd">
<!-- Generated by graphviz version 8.1.0 (20230707.0739)
 -->
<!-- Title: ProgressBar::SetHeight Pages: 1 -->
<svg width="493pt" height="137pt"
 viewBox="0.00 0.00 492.50 136.50" xmlns="http://www.w3.org/2000/svg" xmlns:xlink="http://www.w3.org/1999/xlink">

<svg id="main" version="1.1" xmlns="http://www.w3.org/2000/svg" xmlns:xlink="http://www.w3.org/1999/xlink" xml:space="preserve" onload="init(evt)">
<style type="text/css"><![CDATA[
.node, .edge {opacity: 0.7;}
.node.selected, .edge.selected {opacity: 1;}
.edge:hover path { stroke: red; }
.edge:hover polygon { stroke: red; fill: red; }
]]></style>
<script type="application/ecmascript" xlink:href="../../svg.min.js"/>
<svg id="graph" class="graph">
<g id="graph0" class="graph" transform="scale(1 1) rotate(0) translate(4 132.5)">
<title>ProgressBar::SetHeight</title>
<!-- Node1 -->
<g id="Node000001" class="node">
<title>Node1</title>
<g id="a_Node000001"><a xlink:title=" ">
<polygon fill="#999999" stroke="#666666" points="484.5,-73.88 365,-73.88 365,-54.62 484.5,-54.62 484.5,-73.88"/>
<text text-anchor="middle" x="424.75" y="-60.38" font-family="Helvetica,sans-Serif" font-size="10.00">ProgressBar::SetHeight</text>
</a>
</g>
</g>
<!-- Node2 -->
<g id="Node000002" class="node">
<title>Node2</title>
<g id="a_Node000002"><a xlink:href="../../d4/de9/class_slic3r_1_1_g_u_i_1_1_publish_dialog.html#ac2927b1b56244e3104576dbc87d3a404" target="_top" xlink:title=" ">
<polygon fill="white" stroke="#666666" points="321.12,-128.5 190.38,-128.5 190.38,-98 321.12,-98 321.12,-128.5"/>
<text text-anchor="start" x="198.38" y="-115" font-family="Helvetica,sans-Serif" font-size="10.00">Slic3r::GUI::PublishDialog</text>
<text text-anchor="middle" x="255.75" y="-103.75" font-family="Helvetica,sans-Serif" font-size="10.00">::PublishDialog</text>
</a>
</g>
</g>
<!-- Node1&#45;&gt;Node2 -->
<g id="edge1_Node000001_Node000002" class="edge">
<title>Node1&#45;&gt;Node2</title>
<g id="a_edge1_Node000001_Node000002"><a xlink:title=" ">
<path fill="none" stroke="#63b8ff" d="M379.22,-77.32C358.04,-83.53 332.54,-91.01 310.3,-97.54"/>
<polygon fill="#63b8ff" stroke="#63b8ff" points="379.94,-80.46 388.55,-74.28 377.97,-73.74 379.94,-80.46"/>
</a>
</g>
</g>
<!-- Node3 -->
<g id="Node000003" class="node">
<title>Node3</title>
<g id="a_Node000003"><a xlink:href="../../df/d0e/class_slic3r_1_1_g_u_i_1_1_status_base_panel.html#a459bef4763394a7e8e57e0270982be22" target="_top" xlink:title=" ">
<polygon fill="white" stroke="#666666" points="329,-79.5 182.5,-79.5 182.5,-49 329,-49 329,-79.5"/>
<text text-anchor="start" x="190.5" y="-66" font-family="Helvetica,sans-Serif" font-size="10.00">Slic3r::GUI::StatusBasePanel</text>
<text text-anchor="middle" x="255.75" y="-54.75" font-family="Helvetica,sans-Serif" font-size="10.00">::create_project_task_page</text>
</a>
</g>
</g>
<!-- Node1&#45;&gt;Node3 -->
<g id="edge2_Node000001_Node000003" class="edge">
<title>Node1&#45;&gt;Node3</title>
<g id="a_edge2_Node000001_Node000003"><a xlink:title=" ">
<path fill="none" stroke="#63b8ff" d="M353.96,-64.25C345.86,-64.25 337.58,-64.25 329.44,-64.25"/>
<polygon fill="#63b8ff" stroke="#63b8ff" points="353.87,-67.75 363.87,-64.25 353.87,-60.75 353.87,-67.75"/>
</a>
</g>
</g>
<!-- Node5 -->
<g id="Node000005" class="node">
<title>Node5</title>
<g id="a_Node000005"><a xlink:href="../../dc/dbb/class_slic3r_1_1_g_u_i_1_1_status_panel.html#ab7c8e9f79170a598d2ab7d8f9d1826e0" target="_top" xlink:title=" ">
<polygon fill="white" stroke="#666666" points="317.75,-30.5 193.75,-30.5 193.75,0 317.75,0 317.75,-30.5"/>
<text text-anchor="start" x="201.75" y="-17" font-family="Helvetica,sans-Serif" font-size="10.00">Slic3r::GUI::StatusPanel</text>
<text text-anchor="middle" x="255.75" y="-5.75" font-family="Helvetica,sans-Serif" font-size="10.00">::msw_rescale</text>
</a>
</g>
</g>
<!-- Node1&#45;&gt;Node5 -->
<g id="edge4_Node000001_Node000005" class="edge">
<title>Node1&#45;&gt;Node5</title>
<g id="a_edge4_Node000001_Node000005"><a xlink:title=" ">
<path fill="none" stroke="#63b8ff" d="M379.22,-51.18C358.04,-44.97 332.54,-37.49 310.3,-30.96"/>
<polygon fill="#63b8ff" stroke="#63b8ff" points="377.97,-54.76 388.55,-54.22 379.94,-48.04 377.97,-54.76"/>
</a>
</g>
</g>
<!-- Node4 -->
<g id="Node000004" class="node">
<title>Node4</title>
<g id="a_Node000004"><a xlink:href="../../df/d0e/class_slic3r_1_1_g_u_i_1_1_status_base_panel.html#ac5d4b9cc2f4dff8893ed27acd61e70be" target="_top" xlink:title=" ">
<polygon fill="white" stroke="#666666" points="146.5,-79.5 0,-79.5 0,-49 146.5,-49 146.5,-79.5"/>
<text text-anchor="start" x="8" y="-66" font-family="Helvetica,sans-Serif" font-size="10.00">Slic3r::GUI::StatusBasePanel</text>
<text text-anchor="middle" x="73.25" y="-54.75" font-family="Helvetica,sans-Serif" font-size="10.00">::StatusBasePanel</text>
</a>
</g>
</g>
<!-- Node3&#45;&gt;Node4 -->
<g id="edge3_Node000003_Node000004" class="edge">
<title>Node3&#45;&gt;Node4</title>
<g id="a_edge3_Node000003_Node000004"><a xlink:title=" ">
<path fill="none" stroke="#63b8ff" d="M171.37,-64.25C163.14,-64.25 154.84,-64.25 146.74,-64.25"/>
<polygon fill="#63b8ff" stroke="#63b8ff" points="171.11,-67.75 181.11,-64.25 171.11,-60.75 171.11,-67.75"/>
</a>
</g>
</g>
<!-- Node6 -->
<g id="Node000006" class="node">
<title>Node6</title>
<g id="a_Node000006"><a xlink:href="../../d4/d77/class_slic3r_1_1_g_u_i_1_1_monitor_panel.html#af82930ee59437f81a4ba1010f09f8fff" target="_top" xlink:title=" ">
<polygon fill="white" stroke="#666666" points="137.12,-30.5 9.38,-30.5 9.38,0 137.12,0 137.12,-30.5"/>
<text text-anchor="start" x="17.38" y="-17" font-family="Helvetica,sans-Serif" font-size="10.00">Slic3r::GUI::MonitorPanel</text>
<text text-anchor="middle" x="73.25" y="-5.75" font-family="Helvetica,sans-Serif" font-size="10.00">::msw_rescale</text>
</a>
</g>
</g>
<!-- Node5&#45;&gt;Node6 -->
<g id="edge5_Node000005_Node000006" class="edge">
<title>Node5&#45;&gt;Node6</title>
<g id="a_edge5_Node000005_Node000006"><a xlink:title=" ">
<path fill="none" stroke="#63b8ff" d="M182.68,-15.25C167.77,-15.25 152.17,-15.25 137.59,-15.25"/>
<polygon fill="#63b8ff" stroke="#63b8ff" points="182.39,-18.75 192.39,-15.25 182.39,-11.75 182.39,-18.75"/>
</a>
</g>
</g>
</g>
</svg>
</svg>

<style type='text/css'>
<![CDATA[
[data-mouse-over-selected='false'] { opacity: 0.7; }
[data-mouse-over-selected='true']  { opacity: 1.0; }
]]>
</style>
<script type="application/ecmascript"><![CDATA[
document.addEventListener('DOMContentLoaded', (event) => {
  highlightEdges();
  highlightAdjacentNodes();
});
]]></script>
</svg>
