<?xml version="1.0" encoding="UTF-8" standalone="no"?>
<!DOCTYPE svg PUBLIC "-//W3C//DTD SVG 1.1//EN"
 "http://www.w3.org/Graphics/SVG/1.1/DTD/svg11.dtd">
<!-- Generated by graphviz version 8.1.0 (20230707.0739)
 -->
<!-- Title: src/libnest2d/include/libnest2d/geometry_traits.hpp Pages: 1 -->
<svg width="1126pt" height="405pt"
 viewBox="0.00 0.00 1125.69 404.75" xmlns="http://www.w3.org/2000/svg" xmlns:xlink="http://www.w3.org/1999/xlink">
<g id="graph0" class="graph" transform="scale(1 1) rotate(0) translate(4 400.75)">
<title>src/libnest2d/include/libnest2d/geometry_traits.hpp</title>
<!-- Node1 -->
<g id="Node000001" class="node">
<title>Node1</title>
<g id="a_Node000001"><a xlink:title=" ">
<polygon fill="#999999" stroke="#666666" points="876.36,-396.75 729.11,-396.75 729.11,-366.25 876.36,-366.25 876.36,-396.75"/>
<text text-anchor="start" x="737.11" y="-383.25" font-family="Helvetica,sans-Serif" font-size="10.00">src/libnest2d/include</text>
<text text-anchor="middle" x="802.73" y="-372" font-family="Helvetica,sans-Serif" font-size="10.00">/libnest2d/geometry_traits.hpp</text>
</a>
</g>
</g>
<!-- Node2 -->
<g id="Node000002" class="node">
<title>Node2</title>
<g id="a_Node000002"><a xlink:href="../../dc/d29/geometries_8hpp.html" target="_top" xlink:title=" ">
<polygon fill="white" stroke="#666666" points="918.23,-252.5 779.23,-252.5 779.23,-210.75 918.23,-210.75 918.23,-252.5"/>
<text text-anchor="start" x="787.23" y="-239" font-family="Helvetica,sans-Serif" font-size="10.00">src/libnest2d/include</text>
<text text-anchor="start" x="787.23" y="-227.75" font-family="Helvetica,sans-Serif" font-size="10.00">/libnest2d/backends/libslic3r</text>
<text text-anchor="middle" x="848.73" y="-216.5" font-family="Helvetica,sans-Serif" font-size="10.00">/geometries.hpp</text>
</a>
</g>
</g>
<!-- Node1&#45;&gt;Node2 -->
<g id="edge1_Node000001_Node000002" class="edge">
<title>Node1&#45;&gt;Node2</title>
<g id="a_edge1_Node000001_Node000002"><a xlink:title=" ">
<path fill="none" stroke="#63b8ff" d="M817.35,-356.82C821.88,-348.64 826.51,-339.27 829.73,-330.25 838.95,-304.39 844.05,-272.99 846.59,-252.91"/>
<polygon fill="#63b8ff" stroke="#63b8ff" points="813.96,-354.68 811.98,-365.09 820.02,-358.19 813.96,-354.68"/>
</a>
</g>
</g>
<!-- Node6 -->
<g id="Node000006" class="node">
<title>Node6</title>
<g id="a_Node000006"><a xlink:href="../../d4/d7c/geometry__traits__nfp_8hpp.html" target="_top" xlink:title=" ">
<polygon fill="white" stroke="#666666" points="820.98,-330.25 692.48,-330.25 692.48,-288.5 820.98,-288.5 820.98,-330.25"/>
<text text-anchor="start" x="700.48" y="-316.75" font-family="Helvetica,sans-Serif" font-size="10.00">src/libnest2d/include</text>
<text text-anchor="start" x="700.48" y="-305.5" font-family="Helvetica,sans-Serif" font-size="10.00">/libnest2d/geometry_traits</text>
<text text-anchor="middle" x="756.73" y="-294.25" font-family="Helvetica,sans-Serif" font-size="10.00">_nfp.hpp</text>
</a>
</g>
</g>
<!-- Node1&#45;&gt;Node6 -->
<g id="edge5_Node000001_Node000006" class="edge">
<title>Node1&#45;&gt;Node6</title>
<g id="a_edge5_Node000001_Node000006"><a xlink:title=" ">
<path fill="none" stroke="#63b8ff" d="M787.27,-356.93C781.7,-348.44 775.46,-338.93 770.09,-330.74"/>
<polygon fill="#63b8ff" stroke="#63b8ff" points="784.79,-358.53 793.2,-364.97 790.64,-354.69 784.79,-358.53"/>
</a>
</g>
</g>
<!-- Node11 -->
<g id="Node000011" class="node">
<title>Node11</title>
<g id="a_Node000011"><a xlink:href="../../d8/d1f/nester_8hpp.html" target="_top" xlink:title=" ">
<polygon fill="white" stroke="#666666" points="531.73,-324.62 425.73,-324.62 425.73,-294.12 531.73,-294.12 531.73,-324.62"/>
<text text-anchor="start" x="433.73" y="-311.12" font-family="Helvetica,sans-Serif" font-size="10.00">src/libnest2d/include</text>
<text text-anchor="middle" x="478.73" y="-299.88" font-family="Helvetica,sans-Serif" font-size="10.00">/libnest2d/nester.hpp</text>
</a>
</g>
</g>
<!-- Node1&#45;&gt;Node11 -->
<g id="edge12_Node000001_Node000011" class="edge">
<title>Node1&#45;&gt;Node11</title>
<g id="a_edge12_Node000001_Node000011"><a xlink:title=" ">
<path fill="none" stroke="#63b8ff" d="M724.32,-363.53C664.76,-350.64 584.43,-333.25 532.12,-321.93"/>
<polygon fill="#63b8ff" stroke="#63b8ff" points="723.3,-367.1 733.81,-365.8 724.78,-360.26 723.3,-367.1"/>
</a>
</g>
</g>
<!-- Node19 -->
<g id="Node000019" class="node">
<title>Node19</title>
<g id="a_Node000019"><a xlink:href="../../de/d4c/rotcalipers_8hpp.html" target="_top" xlink:title=" ">
<polygon fill="white" stroke="#666666" points="1101.61,-246.88 955.86,-246.88 955.86,-216.38 1101.61,-216.38 1101.61,-246.88"/>
<text text-anchor="start" x="963.86" y="-233.38" font-family="Helvetica,sans-Serif" font-size="10.00">src/libnest2d/include</text>
<text text-anchor="middle" x="1028.73" y="-222.12" font-family="Helvetica,sans-Serif" font-size="10.00">/libnest2d/utils/rotcalipers.hpp</text>
</a>
</g>
</g>
<!-- Node1&#45;&gt;Node19 -->
<g id="edge27_Node000001_Node000019" class="edge">
<title>Node1&#45;&gt;Node19</title>
<g id="a_edge27_Node000001_Node000019"><a xlink:title=" ">
<path fill="none" stroke="#63b8ff" d="M834.21,-359.9C880.52,-329.6 965.87,-273.76 1006.33,-247.28"/>
<polygon fill="#63b8ff" stroke="#63b8ff" points="832.68,-357.38 826.23,-365.78 836.51,-363.23 832.68,-357.38"/>
</a>
</g>
</g>
<!-- Node3 -->
<g id="Node000003" class="node">
<title>Node3</title>
<g id="a_Node000003"><a xlink:href="../../d1/d48/_arrange_8cpp.html" target="_top" xlink:title=" ">
<polygon fill="white" stroke="#666666" points="856.23,-91.38 735.23,-91.38 735.23,-72.12 856.23,-72.12 856.23,-91.38"/>
<text text-anchor="middle" x="795.73" y="-77.88" font-family="Helvetica,sans-Serif" font-size="10.00">src/libslic3r/Arrange.cpp</text>
</a>
</g>
</g>
<!-- Node2&#45;&gt;Node3 -->
<g id="edge2_Node000002_Node000003" class="edge">
<title>Node2&#45;&gt;Node3</title>
<g id="a_edge2_Node000002_Node000003"><a xlink:title=" ">
<path fill="none" stroke="#63b8ff" d="M887.8,-203.06C896.27,-194.99 904.08,-185.43 908.73,-174.75 916.14,-157.74 918.84,-148.56 908.73,-133 894.63,-111.31 868.77,-98.9 845.34,-91.85"/>
<polygon fill="#63b8ff" stroke="#63b8ff" points="885.74,-200.09 880.55,-209.33 890.37,-205.34 885.74,-200.09"/>
</a>
</g>
</g>
<!-- Node4 -->
<g id="Node000004" class="node">
<title>Node4</title>
<g id="a_Node000004"><a xlink:href="../../da/d34/_min_area_bounding_box_8cpp.html" target="_top" xlink:title=" ">
<polygon fill="white" stroke="#666666" points="1101.23,-169.12 956.23,-169.12 956.23,-138.62 1101.23,-138.62 1101.23,-169.12"/>
<text text-anchor="start" x="964.23" y="-155.62" font-family="Helvetica,sans-Serif" font-size="10.00">src/libslic3r/MinAreaBounding</text>
<text text-anchor="middle" x="1028.73" y="-144.38" font-family="Helvetica,sans-Serif" font-size="10.00">Box.cpp</text>
</a>
</g>
</g>
<!-- Node2&#45;&gt;Node4 -->
<g id="edge3_Node000002_Node000004" class="edge">
<title>Node2&#45;&gt;Node4</title>
<g id="a_edge3_Node000002_Node000004"><a xlink:title=" ">
<path fill="none" stroke="#63b8ff" d="M906.87,-206.16C935.53,-194.1 969.13,-179.96 993.78,-169.58"/>
<polygon fill="#63b8ff" stroke="#63b8ff" points="905.83,-203.22 897.97,-210.33 908.54,-209.67 905.83,-203.22"/>
</a>
</g>
</g>
<!-- Node5 -->
<g id="Node000005" class="node">
<title>Node5</title>
<g id="a_Node000005"><a xlink:href="../../dd/dff/_tree_support_8cpp.html" target="_top" xlink:title=" ">
<polygon fill="white" stroke="#666666" points="899.98,-163.5 759.48,-163.5 759.48,-144.25 899.98,-144.25 899.98,-163.5"/>
<text text-anchor="middle" x="829.73" y="-150" font-family="Helvetica,sans-Serif" font-size="10.00">src/libslic3r/TreeSupport.cpp</text>
</a>
</g>
</g>
<!-- Node2&#45;&gt;Node5 -->
<g id="edge4_Node000002_Node000005" class="edge">
<title>Node2&#45;&gt;Node5</title>
<g id="a_edge4_Node000002_Node000005"><a xlink:title=" ">
<path fill="none" stroke="#63b8ff" d="M841.02,-199.89C837.78,-186.97 834.25,-172.91 832.02,-164"/>
<polygon fill="#63b8ff" stroke="#63b8ff" points="837.81,-200.48 843.64,-209.33 844.6,-198.77 837.81,-200.48"/>
</a>
</g>
</g>
<!-- Node6&#45;&gt;Node2 -->
<g id="edge6_Node000006_Node000002" class="edge">
<title>Node6&#45;&gt;Node2</title>
<g id="a_edge6_Node000006_Node000002"><a xlink:title=" ">
<path fill="none" stroke="#63b8ff" d="M789.75,-281.19C801.05,-271.89 813.48,-261.65 824.01,-252.98"/>
<polygon fill="#63b8ff" stroke="#63b8ff" points="787.88,-279.02 782.38,-288.08 792.33,-284.42 787.88,-279.02"/>
</a>
</g>
</g>
<!-- Node7 -->
<g id="Node000007" class="node">
<title>Node7</title>
<g id="a_Node000007"><a xlink:href="../../d4/d4a/nfpplacer_8hpp.html" target="_top" xlink:title=" ">
<polygon fill="white" stroke="#666666" points="741.36,-169.12 588.11,-169.12 588.11,-138.62 741.36,-138.62 741.36,-169.12"/>
<text text-anchor="start" x="596.11" y="-155.62" font-family="Helvetica,sans-Serif" font-size="10.00">src/libnest2d/include</text>
<text text-anchor="middle" x="664.73" y="-144.38" font-family="Helvetica,sans-Serif" font-size="10.00">/libnest2d/placers/nfpplacer.hpp</text>
</a>
</g>
</g>
<!-- Node6&#45;&gt;Node7 -->
<g id="edge7_Node000006_Node000007" class="edge">
<title>Node6&#45;&gt;Node7</title>
<g id="a_edge7_Node000006_Node000007"><a xlink:title=" ">
<path fill="none" stroke="#63b8ff" d="M739.25,-279.21C719.61,-246.43 688.51,-194.55 673.46,-169.44"/>
<polygon fill="#63b8ff" stroke="#63b8ff" points="736.56,-280.53 744.7,-287.31 742.56,-276.93 736.56,-280.53"/>
</a>
</g>
</g>
<!-- Node7&#45;&gt;Node3 -->
<g id="edge11_Node000007_Node000003" class="edge">
<title>Node7&#45;&gt;Node3</title>
<g id="a_edge11_Node000007_Node000003"><a xlink:title=" ">
<path fill="none" stroke="#63b8ff" d="M701.83,-133.01C727.09,-119.5 759.32,-102.24 778.7,-91.86"/>
<polygon fill="#63b8ff" stroke="#63b8ff" points="700.36,-130.37 693.19,-138.17 703.66,-136.54 700.36,-130.37"/>
</a>
</g>
</g>
<!-- Node8 -->
<g id="Node000008" class="node">
<title>Node8</title>
<g id="a_Node000008"><a xlink:href="../../d0/d18/libnest2d_8hpp.html" target="_top" xlink:title=" ">
<polygon fill="white" stroke="#666666" points="315.11,-97 196.36,-97 196.36,-66.5 315.11,-66.5 315.11,-97"/>
<text text-anchor="start" x="204.36" y="-83.5" font-family="Helvetica,sans-Serif" font-size="10.00">src/libnest2d/include</text>
<text text-anchor="middle" x="255.73" y="-72.25" font-family="Helvetica,sans-Serif" font-size="10.00">/libnest2d/libnest2d.hpp</text>
</a>
</g>
</g>
<!-- Node7&#45;&gt;Node8 -->
<g id="edge8_Node000007_Node000008" class="edge">
<title>Node7&#45;&gt;Node8</title>
<g id="a_edge8_Node000007_Node000008"><a xlink:title=" ">
<path fill="none" stroke="#63b8ff" d="M593.96,-135.9C589.15,-134.88 584.38,-133.9 579.73,-133 487.95,-115.18 380.57,-99.54 315.38,-90.62"/>
<polygon fill="#63b8ff" stroke="#63b8ff" points="592.97,-139.49 603.49,-138.19 594.46,-132.65 592.97,-139.49"/>
</a>
</g>
</g>
<!-- Node9 -->
<g id="Node000009" class="node">
<title>Node9</title>
<g id="a_Node000009"><a xlink:href="../../db/d19/libnest2d_2include_2libnest2d_2utils_2rotfinder_8hpp.html" target="_top" xlink:title=" ">
<polygon fill="white" stroke="#666666" points="243.36,-30.5 108.11,-30.5 108.11,0 243.36,0 243.36,-30.5"/>
<text text-anchor="start" x="116.11" y="-17" font-family="Helvetica,sans-Serif" font-size="10.00">src/libnest2d/include</text>
<text text-anchor="middle" x="175.73" y="-5.75" font-family="Helvetica,sans-Serif" font-size="10.00">/libnest2d/utils/rotfinder.hpp</text>
</a>
</g>
</g>
<!-- Node8&#45;&gt;Node9 -->
<g id="edge9_Node000008_Node000009" class="edge">
<title>Node8&#45;&gt;Node9</title>
<g id="a_edge9_Node000008_Node000009"><a xlink:title=" ">
<path fill="none" stroke="#63b8ff" d="M229.12,-59.29C217.52,-49.94 204.23,-39.23 193.81,-30.83"/>
<polygon fill="#63b8ff" stroke="#63b8ff" points="226.6,-62.56 236.58,-66.11 230.99,-57.11 226.6,-62.56"/>
</a>
</g>
</g>
<!-- Node10 -->
<g id="Node000010" class="node">
<title>Node10</title>
<g id="a_Node000010"><a xlink:href="../../d9/d2d/libnest2d_8cpp.html" target="_top" xlink:title=" ">
<polygon fill="white" stroke="#666666" points="410.11,-24.88 261.36,-24.88 261.36,-5.63 410.11,-5.63 410.11,-24.88"/>
<text text-anchor="middle" x="335.73" y="-11.38" font-family="Helvetica,sans-Serif" font-size="10.00">src/libnest2d/src/libnest2d.cpp</text>
</a>
</g>
</g>
<!-- Node8&#45;&gt;Node10 -->
<g id="edge10_Node000008_Node000010" class="edge">
<title>Node8&#45;&gt;Node10</title>
<g id="a_edge10_Node000008_Node000010"><a xlink:title=" ">
<path fill="none" stroke="#63b8ff" d="M282.05,-59.53C296.58,-47.82 313.84,-33.9 324.79,-25.07"/>
<polygon fill="#63b8ff" stroke="#63b8ff" points="280.47,-57.11 274.88,-66.11 284.87,-62.56 280.47,-57.11"/>
</a>
</g>
</g>
<!-- Node11&#45;&gt;Node8 -->
<g id="edge13_Node000011_Node000008" class="edge">
<title>Node11&#45;&gt;Node8</title>
<g id="a_edge13_Node000011_Node000008"><a xlink:title=" ">
<path fill="none" stroke="#63b8ff" d="M414.96,-300.48C297.15,-284.37 53.28,-243.29 8.73,-174.75 -36.97,-104.44 109.32,-87.65 196.15,-83.78"/>
<polygon fill="#63b8ff" stroke="#63b8ff" points="414.24,-304.05 424.62,-301.92 415.18,-297.12 414.24,-304.05"/>
</a>
</g>
</g>
<!-- Node12 -->
<g id="Node000012" class="node">
<title>Node12</title>
<g id="a_Node000012"><a xlink:href="../../df/de5/placer__boilerplate_8hpp.html" target="_top" xlink:title=" ">
<polygon fill="white" stroke="#666666" points="539.61,-252.5 417.86,-252.5 417.86,-210.75 539.61,-210.75 539.61,-252.5"/>
<text text-anchor="start" x="425.86" y="-239" font-family="Helvetica,sans-Serif" font-size="10.00">src/libnest2d/include</text>
<text text-anchor="start" x="425.86" y="-227.75" font-family="Helvetica,sans-Serif" font-size="10.00">/libnest2d/placers/placer</text>
<text text-anchor="middle" x="478.73" y="-216.5" font-family="Helvetica,sans-Serif" font-size="10.00">_boilerplate.hpp</text>
</a>
</g>
</g>
<!-- Node11&#45;&gt;Node12 -->
<g id="edge14_Node000011_Node000012" class="edge">
<title>Node11&#45;&gt;Node12</title>
<g id="a_edge14_Node000011_Node000012"><a xlink:title=" ">
<path fill="none" stroke="#63b8ff" d="M478.73,-283.03C478.73,-273.23 478.73,-262.17 478.73,-252.91"/>
<polygon fill="#63b8ff" stroke="#63b8ff" points="475.23,-282.77 478.73,-292.77 482.23,-282.77 475.23,-282.77"/>
</a>
</g>
</g>
<!-- Node14 -->
<g id="Node000014" class="node">
<title>Node14</title>
<g id="a_Node000014"><a xlink:href="../../da/dab/selection__boilerplate_8hpp.html" target="_top" xlink:title=" ">
<polygon fill="white" stroke="#666666" points="318.86,-252.5 192.61,-252.5 192.61,-210.75 318.86,-210.75 318.86,-252.5"/>
<text text-anchor="start" x="200.61" y="-239" font-family="Helvetica,sans-Serif" font-size="10.00">src/libnest2d/include</text>
<text text-anchor="start" x="200.61" y="-227.75" font-family="Helvetica,sans-Serif" font-size="10.00">/libnest2d/selections</text>
<text text-anchor="middle" x="255.73" y="-216.5" font-family="Helvetica,sans-Serif" font-size="10.00">/selection_boilerplate.hpp</text>
</a>
</g>
</g>
<!-- Node11&#45;&gt;Node14 -->
<g id="edge18_Node000011_Node000014" class="edge">
<title>Node11&#45;&gt;Node14</title>
<g id="a_edge18_Node000011_Node000014"><a xlink:title=" ">
<path fill="none" stroke="#63b8ff" d="M425.07,-290.15C391.97,-278.9 349.46,-264.46 315.32,-252.87"/>
<polygon fill="#63b8ff" stroke="#63b8ff" points="423.88,-293.78 434.47,-293.68 426.13,-287.15 423.88,-293.78"/>
</a>
</g>
</g>
<!-- Node18 -->
<g id="Node000018" class="node">
<title>Node18</title>
<g id="a_Node000018"><a xlink:href="../../d8/d4b/svgtools_8hpp.html" target="_top" xlink:title=" ">
<polygon fill="white" stroke="#666666" points="653.48,-246.88 557.98,-246.88 557.98,-216.38 653.48,-216.38 653.48,-246.88"/>
<text text-anchor="start" x="565.98" y="-233.38" font-family="Helvetica,sans-Serif" font-size="10.00">src/libnest2d/tools</text>
<text text-anchor="middle" x="605.73" y="-222.12" font-family="Helvetica,sans-Serif" font-size="10.00">/svgtools.hpp</text>
</a>
</g>
</g>
<!-- Node11&#45;&gt;Node18 -->
<g id="edge26_Node000011_Node000018" class="edge">
<title>Node11&#45;&gt;Node18</title>
<g id="a_edge26_Node000011_Node000018"><a xlink:title=" ">
<path fill="none" stroke="#63b8ff" d="M512.4,-288.29C534.07,-275.36 561.75,-258.86 581.32,-247.19"/>
<polygon fill="#63b8ff" stroke="#63b8ff" points="511.01,-285.64 504.22,-293.77 514.6,-291.65 511.01,-285.64"/>
</a>
</g>
</g>
<!-- Node12&#45;&gt;Node7 -->
<g id="edge17_Node000012_Node000007" class="edge">
<title>Node12&#45;&gt;Node7</title>
<g id="a_edge17_Node000012_Node000007"><a xlink:title=" ">
<path fill="none" stroke="#63b8ff" d="M538.42,-206.31C568.12,-194.22 603.03,-180 628.61,-169.58"/>
<polygon fill="#63b8ff" stroke="#63b8ff" points="537.52,-203.31 529.58,-210.33 540.16,-209.8 537.52,-203.31"/>
</a>
</g>
</g>
<!-- Node13 -->
<g id="Node000013" class="node">
<title>Node13</title>
<g id="a_Node000013"><a xlink:href="../../d9/ddf/bottomleftplacer_8hpp.html" target="_top" xlink:title=" ">
<polygon fill="white" stroke="#666666" points="570.36,-169.12 387.11,-169.12 387.11,-138.62 570.36,-138.62 570.36,-169.12"/>
<text text-anchor="start" x="395.11" y="-155.62" font-family="Helvetica,sans-Serif" font-size="10.00">src/libnest2d/include</text>
<text text-anchor="middle" x="478.73" y="-144.38" font-family="Helvetica,sans-Serif" font-size="10.00">/libnest2d/placers/bottomleftplacer.hpp</text>
</a>
</g>
</g>
<!-- Node12&#45;&gt;Node13 -->
<g id="edge15_Node000012_Node000013" class="edge">
<title>Node12&#45;&gt;Node13</title>
<g id="a_edge15_Node000012_Node000013"><a xlink:title=" ">
<path fill="none" stroke="#63b8ff" d="M478.73,-199.4C478.73,-188.93 478.73,-177.76 478.73,-169.23"/>
<polygon fill="#63b8ff" stroke="#63b8ff" points="475.23,-199.33 478.73,-209.33 482.23,-199.33 475.23,-199.33"/>
</a>
</g>
</g>
<!-- Node13&#45;&gt;Node8 -->
<g id="edge16_Node000013_Node000008" class="edge">
<title>Node13&#45;&gt;Node8</title>
<g id="a_edge16_Node000013_Node000008"><a xlink:title=" ">
<path fill="none" stroke="#63b8ff" d="M421.85,-134.99C384.85,-123.35 337.19,-108.37 302.42,-97.43"/>
<polygon fill="#63b8ff" stroke="#63b8ff" points="420.39,-138.51 430.98,-138.17 422.49,-131.84 420.39,-138.51"/>
</a>
</g>
</g>
<!-- Node15 -->
<g id="Node000015" class="node">
<title>Node15</title>
<g id="a_Node000015"><a xlink:href="../../d5/d08/djd__heuristic_8hpp.html" target="_top" xlink:title=" ">
<polygon fill="white" stroke="#666666" points="246.36,-174.75 141.11,-174.75 141.11,-133 246.36,-133 246.36,-174.75"/>
<text text-anchor="start" x="149.11" y="-161.25" font-family="Helvetica,sans-Serif" font-size="10.00">src/libnest2d/include</text>
<text text-anchor="start" x="149.11" y="-150" font-family="Helvetica,sans-Serif" font-size="10.00">/libnest2d/selections</text>
<text text-anchor="middle" x="193.73" y="-138.75" font-family="Helvetica,sans-Serif" font-size="10.00">/djd_heuristic.hpp</text>
</a>
</g>
</g>
<!-- Node14&#45;&gt;Node15 -->
<g id="edge19_Node000014_Node000015" class="edge">
<title>Node14&#45;&gt;Node15</title>
<g id="a_edge19_Node000014_Node000015"><a xlink:title=" ">
<path fill="none" stroke="#63b8ff" d="M232.35,-202.06C225.05,-193.14 217.14,-183.47 210.39,-175.23"/>
<polygon fill="#63b8ff" stroke="#63b8ff" points="230.07,-203.8 239.12,-209.33 235.49,-199.37 230.07,-203.8"/>
</a>
</g>
</g>
<!-- Node16 -->
<g id="Node000016" class="node">
<title>Node16</title>
<g id="a_Node000016"><a xlink:href="../../d6/d48/filler_8hpp.html" target="_top" xlink:title=" ">
<polygon fill="white" stroke="#666666" points="123.36,-174.75 18.11,-174.75 18.11,-133 123.36,-133 123.36,-174.75"/>
<text text-anchor="start" x="26.11" y="-161.25" font-family="Helvetica,sans-Serif" font-size="10.00">src/libnest2d/include</text>
<text text-anchor="start" x="26.11" y="-150" font-family="Helvetica,sans-Serif" font-size="10.00">/libnest2d/selections</text>
<text text-anchor="middle" x="70.73" y="-138.75" font-family="Helvetica,sans-Serif" font-size="10.00">/filler.hpp</text>
</a>
</g>
</g>
<!-- Node14&#45;&gt;Node16 -->
<g id="edge21_Node000014_Node000016" class="edge">
<title>Node14&#45;&gt;Node16</title>
<g id="a_edge21_Node000014_Node000016"><a xlink:title=" ">
<path fill="none" stroke="#63b8ff" d="M196.27,-206.28C171.8,-196.26 143.79,-184.79 120.44,-175.23"/>
<polygon fill="#63b8ff" stroke="#63b8ff" points="194.57,-209.78 205.15,-210.33 197.23,-203.3 194.57,-209.78"/>
</a>
</g>
</g>
<!-- Node17 -->
<g id="Node000017" class="node">
<title>Node17</title>
<g id="a_Node000017"><a xlink:href="../../df/d56/firstfit_8hpp.html" target="_top" xlink:title=" ">
<polygon fill="white" stroke="#666666" points="369.36,-174.75 264.11,-174.75 264.11,-133 369.36,-133 369.36,-174.75"/>
<text text-anchor="start" x="272.11" y="-161.25" font-family="Helvetica,sans-Serif" font-size="10.00">src/libnest2d/include</text>
<text text-anchor="start" x="272.11" y="-150" font-family="Helvetica,sans-Serif" font-size="10.00">/libnest2d/selections</text>
<text text-anchor="middle" x="316.73" y="-138.75" font-family="Helvetica,sans-Serif" font-size="10.00">/firstfit.hpp</text>
</a>
</g>
</g>
<!-- Node14&#45;&gt;Node17 -->
<g id="edge23_Node000014_Node000017" class="edge">
<title>Node14&#45;&gt;Node17</title>
<g id="a_edge23_Node000014_Node000017"><a xlink:title=" ">
<path fill="none" stroke="#63b8ff" d="M278.95,-201.79C286.08,-192.94 293.77,-183.39 300.34,-175.23"/>
<polygon fill="#63b8ff" stroke="#63b8ff" points="275.62,-199.34 272.08,-209.33 281.08,-203.73 275.62,-199.34"/>
</a>
</g>
</g>
<!-- Node15&#45;&gt;Node8 -->
<g id="edge20_Node000015_Node000008" class="edge">
<title>Node15&#45;&gt;Node8</title>
<g id="a_edge20_Node000015_Node000008"><a xlink:title=" ">
<path fill="none" stroke="#63b8ff" d="M218.75,-124.58C227.06,-115.18 235.97,-105.11 242.95,-97.2"/>
<polygon fill="#63b8ff" stroke="#63b8ff" points="216.67,-121.78 212.66,-131.59 221.91,-126.42 216.67,-121.78"/>
</a>
</g>
</g>
<!-- Node16&#45;&gt;Node8 -->
<g id="edge22_Node000016_Node000008" class="edge">
<title>Node16&#45;&gt;Node8</title>
<g id="a_edge22_Node000016_Node000008"><a xlink:title=" ">
<path fill="none" stroke="#63b8ff" d="M133.7,-129.01C161.27,-118.56 192.74,-106.63 216.82,-97.5"/>
<polygon fill="#63b8ff" stroke="#63b8ff" points="132.85,-125.96 124.74,-132.78 135.34,-132.51 132.85,-125.96"/>
</a>
</g>
</g>
<!-- Node17&#45;&gt;Node3 -->
<g id="edge25_Node000017_Node000003" class="edge">
<title>Node17&#45;&gt;Node3</title>
<g id="a_edge25_Node000017_Node000003"><a xlink:title=" ">
<path fill="none" stroke="#63b8ff" d="M380.36,-132.61C510.85,-104.64 655.12,-91.84 734.89,-86.33"/>
<polygon fill="#63b8ff" stroke="#63b8ff" points="379.82,-129.36 370.79,-134.91 381.31,-136.2 379.82,-129.36"/>
</a>
</g>
</g>
<!-- Node17&#45;&gt;Node8 -->
<g id="edge24_Node000017_Node000008" class="edge">
<title>Node17&#45;&gt;Node8</title>
<g id="a_edge24_Node000017_Node000008"><a xlink:title=" ">
<path fill="none" stroke="#63b8ff" d="M292.12,-124.58C283.94,-115.18 275.18,-105.11 268.3,-97.2"/>
<polygon fill="#63b8ff" stroke="#63b8ff" points="289.88,-126.34 299.09,-131.59 295.16,-121.75 289.88,-126.34"/>
</a>
</g>
</g>
<!-- Node19&#45;&gt;Node3 -->
<g id="edge28_Node000019_Node000003" class="edge">
<title>Node19&#45;&gt;Node3</title>
<g id="a_edge28_Node000019_Node000003"><a xlink:title=" ">
<path fill="none" stroke="#63b8ff" d="M1073.43,-210.54C1087.67,-201.73 1101.78,-189.89 1109.73,-174.75 1118.36,-158.32 1121.77,-147.12 1109.73,-133 1077.85,-95.61 938.5,-85.92 856.54,-83.49"/>
<polygon fill="#63b8ff" stroke="#63b8ff" points="1072.04,-207.87 1065.11,-215.89 1075.53,-213.94 1072.04,-207.87"/>
</a>
</g>
</g>
<!-- Node19&#45;&gt;Node4 -->
<g id="edge29_Node000019_Node000004" class="edge">
<title>Node19&#45;&gt;Node4</title>
<g id="a_edge29_Node000019_Node000004"><a xlink:title=" ">
<path fill="none" stroke="#63b8ff" d="M1028.73,-205.34C1028.73,-193.4 1028.73,-179.59 1028.73,-169.44"/>
<polygon fill="#63b8ff" stroke="#63b8ff" points="1025.23,-205.02 1028.73,-215.02 1032.23,-205.02 1025.23,-205.02"/>
</a>
</g>
</g>
</g>
</svg>
