<?xml version="1.0" encoding="UTF-8" standalone="no"?>
<!DOCTYPE svg PUBLIC "-//W3C//DTD SVG 1.1//EN"
 "http://www.w3.org/Graphics/SVG/1.1/DTD/svg11.dtd">
<!-- Generated by graphviz version 8.1.0 (20230707.0739)
 -->
<!-- Title: igl::slice_tets Pages: 1 -->
<!--zoomable 497 -->

<svg id="main" version="1.1" xmlns="http://www.w3.org/2000/svg" xmlns:xlink="http://www.w3.org/1999/xlink" xml:space="preserve" onload="init(evt)">
<style type="text/css"><![CDATA[
.node, .edge {opacity: 0.7;}
.node.selected, .edge.selected {opacity: 1;}
.edge:hover path { stroke: red; }
.edge:hover polygon { stroke: red; fill: red; }
]]></style>

<defs>
  <circle id="rim" cx="0" cy="0" r="7"/>
  <circle id="rim2" cx="0" cy="0" r="3.5"/>
  <g id="zoomPlus">
    <use xlink:href="#rim" fill="#404040"><set attributeName="fill" to="#808080" begin="zoomplus.mouseover" end="zoomplus.mouseout"/></use>
    <path d="M-4,0h8M0,-4v8" fill="none" stroke="white" stroke-width="1.5" pointer-events="none"/>
  </g>
  <g id="zoomMin">
    <use xlink:href="#rim" fill="#404040"><set attributeName="fill" to="#808080" begin="zoomminus.mouseover" end="zoomminus.mouseout"/></use>
    <path d="M-4,0h8" fill="none" stroke="white" stroke-width="1.5" pointer-events="none"/>
  </g>
  <g id="arrowUp" transform="translate(30 24)">
    <use xlink:href="#rim"/>
    <path pointer-events="none" fill="none" stroke="white" stroke-width="1.5" d="M0,-3.0v7 M-2.5,-0.5L0,-3.0L2.5,-0.5"/>
  </g>
  <g id="arrowRight" transform="rotate(90) translate(36 -43)">
    <use xlink:href="#rim"/>
    <path pointer-events="none" fill="none" stroke="white" stroke-width="1.5" d="M0,-3.0v7 M-2.5,-0.5L0,-3.0L2.5,-0.5"/>
  </g>
  <g id="arrowDown" transform="rotate(180) translate(-30 -48)">
    <use xlink:href="#rim"/>
    <path pointer-events="none" fill="none" stroke="white" stroke-width="1.5" d="M0,-3.0v7 M-2.5,-0.5L0,-3.0L2.5,-0.5"/>
  </g>
  <g id="arrowLeft" transform="rotate(270) translate(-36 17)">
    <use xlink:href="#rim"/>
    <path pointer-events="none" fill="none" stroke="white" stroke-width="1.5" d="M0,-3.0v7 M-2.5,-0.5L0,-3.0L2.5,-0.5"/>
  </g>
  <g id="resetDef">
    <use xlink:href="#rim2" fill="#404040"><set attributeName="fill" to="#808080" begin="reset.mouseover" end="reset.mouseout"/></use>
  </g>
</defs>
<script type="application/ecmascript">
var viewWidth = 1044;
var viewHeight = 497;
var sectionId = 'dynsection-677';
</script>
<script type="application/ecmascript" xlink:href="../../svg.min.js"/>
<svg id="graph" class="graph">
<g id="viewport">
<title>igl::slice_tets</title>
<!-- Node1 -->
<g id="Node000001" class="node">
<title>Node1</title>
<g id="a_Node000001"><a xlink:title=" ">
<polygon fill="#999999" stroke="#666666" points="73.75,-312.25 0,-312.25 0,-293 73.75,-293 73.75,-312.25"/>
<text text-anchor="middle" x="36.88" y="-298.75" font-family="Helvetica,sans-Serif" font-size="10.00">igl::slice_tets</text>
</a>
</g>
</g>
<!-- Node2 -->
<g id="Node000002" class="node">
<title>Node2</title>
<g id="a_Node000002"><a xlink:href="../../da/d8d/class_eigen_1_1_plain_object_base.html#a322d4d48cc285b60e0dff100db522342" target="_top" xlink:title=" ">
<polygon fill="white" stroke="#666666" points="234.5,-481.88 115,-481.88 115,-451.38 234.5,-451.38 234.5,-481.88"/>
<text text-anchor="start" x="123" y="-468.38" font-family="Helvetica,sans-Serif" font-size="10.00">Eigen::PlainObjectBase</text>
<text text-anchor="middle" x="174.75" y="-457.12" font-family="Helvetica,sans-Serif" font-size="10.00">::data</text>
</a>
</g>
</g>
<!-- Node1&#45;&gt;Node2 -->
<g id="edge1_Node000001_Node000002" class="edge">
<title>Node1&#45;&gt;Node2</title>
<g id="a_edge1_Node000001_Node000002"><a xlink:title=" ">
<path fill="none" stroke="#63b8ff" d="M40.68,-312.49C48.06,-336.84 70.25,-400.56 109.75,-437.62 112.82,-440.5 116.21,-443.13 119.8,-445.52"/>
<polygon fill="#63b8ff" stroke="#63b8ff" points="117.64,-448.9 128.03,-451 121.21,-442.88 117.64,-448.9"/>
</a>
</g>
</g>
<!-- Node4 -->
<g id="Node000004" class="node">
<title>Node4</title>
<g id="a_Node000004"><a xlink:href="../../dc/d25/namespaceigl.html#a668eed1f64c5e0bb17d3832119580b83" target="_top" xlink:title=" ">
<polygon fill="white" stroke="#666666" points="380.62,-395.25 279.88,-395.25 279.88,-376 380.62,-376 380.62,-395.25"/>
<text text-anchor="middle" x="330.25" y="-381.75" font-family="Helvetica,sans-Serif" font-size="10.00">igl::ismember_rows</text>
</a>
</g>
</g>
<!-- Node1&#45;&gt;Node4 -->
<g id="edge3_Node000001_Node000004" class="edge">
<title>Node1&#45;&gt;Node4</title>
<g id="a_edge3_Node000001_Node000004"><a xlink:title=" ">
<path fill="none" stroke="#63b8ff" d="M46.45,-312.62C58.86,-326.31 83.26,-350.48 109.75,-361.62 160.51,-382.97 223.42,-387.92 268.86,-388.15"/>
<polygon fill="#63b8ff" stroke="#63b8ff" points="268.74,-391.65 278.73,-388.12 268.72,-384.65 268.74,-391.65"/>
</a>
</g>
</g>
<!-- Node5 -->
<g id="Node000005" class="node">
<title>Node5</title>
<g id="a_Node000005"><a xlink:href="../../da/d8d/class_eigen_1_1_plain_object_base.html#a99d9054ee2d5a40c6e00ded0265e9cea" target="_top" xlink:title=" ">
<polygon fill="white" stroke="#666666" points="703.62,-359.88 584.12,-359.88 584.12,-329.38 703.62,-329.38 703.62,-359.88"/>
<text text-anchor="start" x="592.12" y="-346.38" font-family="Helvetica,sans-Serif" font-size="10.00">Eigen::PlainObjectBase</text>
<text text-anchor="middle" x="643.88" y="-335.12" font-family="Helvetica,sans-Serif" font-size="10.00">::resize</text>
</a>
</g>
</g>
<!-- Node1&#45;&gt;Node5 -->
<g id="edge19_Node000001_Node000005" class="edge">
<title>Node1&#45;&gt;Node5</title>
<g id="a_edge19_Node000001_Node000005"><a xlink:title=" ">
<path fill="none" stroke="#63b8ff" d="M74.02,-307.6C85.44,-309.05 98.11,-310.54 109.75,-311.62 275.67,-327.13 471.35,-337.13 573.25,-341.71"/>
<polygon fill="#63b8ff" stroke="#63b8ff" points="572.86,-345.24 583.01,-342.19 573.18,-338.25 572.86,-345.24"/>
</a>
</g>
</g>
<!-- Node9 -->
<g id="Node000009" class="node">
<title>Node9</title>
<g id="a_Node000009"><a xlink:href="../../da/d8d/class_eigen_1_1_plain_object_base.html#aba7a925ce36c08ba2a08c90086f34718" target="_top" xlink:title=" ">
<polygon fill="white" stroke="#666666" points="879,-222.88 759.5,-222.88 759.5,-192.38 879,-192.38 879,-222.88"/>
<text text-anchor="start" x="767.5" y="-209.38" font-family="Helvetica,sans-Serif" font-size="10.00">Eigen::PlainObjectBase</text>
<text text-anchor="middle" x="819.25" y="-198.12" font-family="Helvetica,sans-Serif" font-size="10.00">::rows</text>
</a>
</g>
</g>
<!-- Node1&#45;&gt;Node9 -->
<g id="edge20_Node000001_Node000009" class="edge">
<title>Node1&#45;&gt;Node9</title>
<g id="a_edge20_Node000001_Node000009"><a xlink:title=" ">
<path fill="none" stroke="#63b8ff" d="M50.37,-292.66C89.21,-262.72 212.26,-175.62 329.25,-175.62 329.25,-175.62 329.25,-175.62 481.5,-175.62 574.18,-175.62 680.56,-187.78 748.53,-197.11"/>
<polygon fill="#63b8ff" stroke="#63b8ff" points="747.71,-200.67 758.1,-198.58 748.68,-193.74 747.71,-200.67"/>
</a>
</g>
</g>
<!-- Node14 -->
<g id="Node000014" class="node">
<title>Node14</title>
<g id="a_Node000014"><a xlink:href="../../dc/d25/namespaceigl.html#ab6607e775e3c92c035a0ff91af129195" target="_top" xlink:title=" ">
<polygon fill="white" stroke="#666666" points="523.75,-471.25 437.25,-471.25 437.25,-452 523.75,-452 523.75,-471.25"/>
<text text-anchor="middle" x="480.5" y="-457.75" font-family="Helvetica,sans-Serif" font-size="10.00">igl::unique_rows</text>
</a>
</g>
</g>
<!-- Node1&#45;&gt;Node14 -->
<g id="edge43_Node000001_Node000014" class="edge">
<title>Node1&#45;&gt;Node14</title>
<g id="a_edge43_Node000001_Node000014"><a xlink:title=" ">
<path fill="none" stroke="#63b8ff" d="M43.08,-312.5C53.24,-330.74 77.6,-369.6 109.75,-388.62 216.95,-452.05 262.58,-418.38 384.75,-442.62 398.25,-445.3 412.84,-448.22 426.42,-450.94"/>
<polygon fill="#63b8ff" stroke="#63b8ff" points="425.56,-454.54 436.06,-453.08 426.94,-447.68 425.56,-454.54"/>
</a>
</g>
</g>
<!-- Node15 -->
<g id="Node000015" class="node">
<title>Node15</title>
<g id="a_Node000015"><a xlink:href="../../dc/d25/namespaceigl.html#ae8a4579279c09a298a5988c18f215d33" target="_top" xlink:title=" ">
<polygon fill="white" stroke="#666666" points="213.5,-147.25 136,-147.25 136,-128 213.5,-128 213.5,-147.25"/>
<text text-anchor="middle" x="174.75" y="-133.75" font-family="Helvetica,sans-Serif" font-size="10.00">igl::LinSpaced</text>
</a>
</g>
</g>
<!-- Node1&#45;&gt;Node15 -->
<g id="edge17_Node000001_Node000015" class="edge">
<title>Node1&#45;&gt;Node15</title>
<g id="a_edge17_Node000001_Node000015"><a xlink:title=" ">
<path fill="none" stroke="#63b8ff" d="M40.29,-292.53C46.92,-266.99 67.74,-199.15 109.75,-161.62 114.46,-157.42 119.97,-153.93 125.75,-151.03"/>
<polygon fill="#63b8ff" stroke="#63b8ff" points="126.88,-153.92 134.63,-146.7 124.07,-147.51 126.88,-153.92"/>
</a>
</g>
</g>
<!-- Node16 -->
<g id="Node000016" class="node">
<title>Node16</title>
<g id="a_Node000016"><a xlink:href="../../d2/d57/class_eigen_1_1_dense_base.html#a13027a493a68a13496610caf3d81bd3e" target="_top" xlink:title=" ">
<polygon fill="white" stroke="#666666" points="239.75,-110.25 109.75,-110.25 109.75,-91 239.75,-91 239.75,-110.25"/>
<text text-anchor="middle" x="174.75" y="-96.75" font-family="Helvetica,sans-Serif" font-size="10.00">Eigen::DenseBase::resize</text>
</a>
</g>
</g>
<!-- Node1&#45;&gt;Node16 -->
<g id="edge18_Node000001_Node000016" class="edge">
<title>Node1&#45;&gt;Node16</title>
<g id="a_edge18_Node000001_Node000016"><a xlink:title=" ">
<path fill="none" stroke="#63b8ff" d="M38.74,-292.51C41.94,-261.59 55.88,-167.45 109.75,-118.62 110.63,-117.83 111.54,-117.07 112.47,-116.34"/>
<polygon fill="#63b8ff" stroke="#63b8ff" points="113.94,-118.93 120.57,-110.66 110.23,-112.99 113.94,-118.93"/>
</a>
</g>
</g>
<!-- Node17 -->
<g id="Node000017" class="node">
<title>Node17</title>
<g id="a_Node000017"><a xlink:href="../../dc/d25/namespaceigl.html#a78a4e227550457b6f84f96d08c4678e4" target="_top" xlink:title=" ">
<polygon fill="white" stroke="#666666" points="198.88,-284.25 150.62,-284.25 150.62,-265 198.88,-265 198.88,-284.25"/>
<text text-anchor="middle" x="174.75" y="-270.75" font-family="Helvetica,sans-Serif" font-size="10.00">igl::sort</text>
</a>
</g>
</g>
<!-- Node1&#45;&gt;Node17 -->
<g id="edge21_Node000001_Node000017" class="edge">
<title>Node1&#45;&gt;Node17</title>
<g id="a_edge21_Node000001_Node000017"><a xlink:title=" ">
<path fill="none" stroke="#63b8ff" d="M73.93,-295.2C94.36,-290.98 119.77,-285.75 139.84,-281.61"/>
<polygon fill="#63b8ff" stroke="#63b8ff" points="140.28,-284.89 149.37,-279.44 138.87,-278.03 140.28,-284.89"/>
</a>
</g>
</g>
<!-- Node3 -->
<g id="Node000003" class="node">
<title>Node3</title>
<g id="a_Node000003"><a xlink:href="../../d5/d91/class_eigen_1_1_dense_storage.html#abdbbeb487a245756ac498d2590e3560a" target="_top" xlink:title=" ">
<polygon fill="white" stroke="#666666" points="384.75,-481.88 275.75,-481.88 275.75,-451.38 384.75,-451.38 384.75,-481.88"/>
<text text-anchor="start" x="283.75" y="-468.38" font-family="Helvetica,sans-Serif" font-size="10.00">Eigen::DenseStorage</text>
<text text-anchor="middle" x="330.25" y="-457.12" font-family="Helvetica,sans-Serif" font-size="10.00">::data</text>
</a>
</g>
</g>
<!-- Node2&#45;&gt;Node3 -->
<g id="edge2_Node000002_Node000003" class="edge">
<title>Node2&#45;&gt;Node3</title>
<g id="a_edge2_Node000002_Node000003"><a xlink:title=" ">
<path fill="none" stroke="#63b8ff" d="M234.66,-466.62C244.36,-466.62 254.47,-466.62 264.32,-466.62"/>
<polygon fill="#63b8ff" stroke="#63b8ff" points="264.28,-470.13 274.28,-466.62 264.28,-463.13 264.28,-470.13"/>
</a>
</g>
</g>
<!-- Node4&#45;&gt;Node5 -->
<g id="edge4_Node000004_Node000005" class="edge">
<title>Node4&#45;&gt;Node5</title>
<g id="a_edge4_Node000004_Node000005"><a xlink:title=" ">
<path fill="none" stroke="#63b8ff" d="M380.75,-380.64C423.15,-376.21 485.81,-369.25 540.25,-361.62 550.85,-360.14 562.04,-358.43 572.98,-356.68"/>
<polygon fill="#63b8ff" stroke="#63b8ff" points="573.49,-359.98 582.8,-354.93 572.37,-353.07 573.49,-359.98"/>
</a>
</g>
</g>
<!-- Node12 -->
<g id="Node000012" class="node">
<title>Node12</title>
<g id="a_Node000012"><a xlink:href="../../da/d8d/class_eigen_1_1_plain_object_base.html#ac8dea1df3d92b752cc683ff42abf6f9b" target="_top" xlink:title=" ">
<polygon fill="white" stroke="#666666" points="540.25,-319.88 420.75,-319.88 420.75,-289.38 540.25,-289.38 540.25,-319.88"/>
<text text-anchor="start" x="428.75" y="-306.38" font-family="Helvetica,sans-Serif" font-size="10.00">Eigen::PlainObjectBase</text>
<text text-anchor="middle" x="480.5" y="-295.12" font-family="Helvetica,sans-Serif" font-size="10.00">::setConstant</text>
</a>
</g>
</g>
<!-- Node4&#45;&gt;Node12 -->
<g id="edge11_Node000004_Node000012" class="edge">
<title>Node4&#45;&gt;Node12</title>
<g id="a_edge11_Node000004_Node000012"><a xlink:title=" ">
<path fill="none" stroke="#63b8ff" d="M349.73,-375.53C372.53,-363.07 411.89,-341.56 441.3,-325.5"/>
<polygon fill="#63b8ff" stroke="#63b8ff" points="442.76,-328.14 449.86,-320.28 439.4,-322 442.76,-328.14"/>
</a>
</g>
</g>
<!-- Node13 -->
<g id="Node000013" class="node">
<title>Node13</title>
<g id="a_Node000013"><a xlink:href="../../dc/d25/namespaceigl.html#a042eb4cdfd8ef4c2d68d42ec97984d05" target="_top" xlink:title=" ">
<polygon fill="white" stroke="#666666" points="678.5,-452.25 609.25,-452.25 609.25,-433 678.5,-433 678.5,-452.25"/>
<text text-anchor="middle" x="643.88" y="-438.75" font-family="Helvetica,sans-Serif" font-size="10.00">igl::sortrows</text>
</a>
</g>
</g>
<!-- Node4&#45;&gt;Node13 -->
<g id="edge12_Node000004_Node000013" class="edge">
<title>Node4&#45;&gt;Node13</title>
<g id="a_edge12_Node000004_Node000013"><a xlink:title=" ">
<path fill="none" stroke="#63b8ff" d="M380.97,-394.72C441.03,-405.7 541.12,-424.01 598.61,-434.53"/>
<polygon fill="#63b8ff" stroke="#63b8ff" points="597.71,-438.1 608.18,-436.46 598.97,-431.22 597.71,-438.1"/>
</a>
</g>
</g>
<!-- Node4&#45;&gt;Node14 -->
<g id="edge13_Node000004_Node000014" class="edge">
<title>Node4&#45;&gt;Node14</title>
<g id="a_edge13_Node000004_Node000014"><a xlink:title=" ">
<path fill="none" stroke="#63b8ff" d="M356.92,-395.66C365.95,-399.57 376.03,-404.38 384.75,-409.62 402.12,-420.07 403.2,-427.48 420.75,-437.62 426.97,-441.22 433.82,-444.54 440.6,-447.49"/>
<polygon fill="#63b8ff" stroke="#63b8ff" points="438.79,-450.95 449.37,-451.54 441.47,-444.48 438.79,-450.95"/>
</a>
</g>
</g>
<!-- Node6 -->
<g id="Node000006" class="node">
<title>Node6</title>
<g id="a_Node000006"><a xlink:href="../../da/d8d/class_eigen_1_1_plain_object_base.html#a10b8b33b7587da564415561aa246f78f" target="_top" xlink:title=" ">
<polygon fill="white" stroke="#666666" points="879,-356.88 759.5,-356.88 759.5,-326.38 879,-326.38 879,-356.88"/>
<text text-anchor="start" x="767.5" y="-343.38" font-family="Helvetica,sans-Serif" font-size="10.00">Eigen::PlainObjectBase</text>
<text text-anchor="middle" x="819.25" y="-332.12" font-family="Helvetica,sans-Serif" font-size="10.00">::cols</text>
</a>
</g>
</g>
<!-- Node5&#45;&gt;Node6 -->
<g id="edge5_Node000005_Node000006" class="edge">
<title>Node5&#45;&gt;Node6</title>
<g id="a_edge5_Node000005_Node000006"><a xlink:title=" ">
<path fill="none" stroke="#63b8ff" d="M704.06,-343.6C718.34,-343.35 733.74,-343.09 748.47,-342.83"/>
<polygon fill="#63b8ff" stroke="#63b8ff" points="748.1,-346.32 758.04,-342.65 747.98,-339.32 748.1,-346.32"/>
</a>
</g>
</g>
<!-- Node8 -->
<g id="Node000008" class="node">
<title>Node8</title>
<g id="a_Node000008"><a xlink:href="../../d5/d91/class_eigen_1_1_dense_storage.html#a22518a835225a3464a2b12396f13a12c" target="_top" xlink:title=" ">
<polygon fill="white" stroke="#666666" points="873.75,-405.88 764.75,-405.88 764.75,-375.38 873.75,-375.38 873.75,-405.88"/>
<text text-anchor="start" x="772.75" y="-392.38" font-family="Helvetica,sans-Serif" font-size="10.00">Eigen::DenseStorage</text>
<text text-anchor="middle" x="819.25" y="-381.12" font-family="Helvetica,sans-Serif" font-size="10.00">::resize</text>
</a>
</g>
</g>
<!-- Node5&#45;&gt;Node8 -->
<g id="edge7_Node000005_Node000008" class="edge">
<title>Node5&#45;&gt;Node8</title>
<g id="a_edge7_Node000005_Node000008"><a xlink:title=" ">
<path fill="none" stroke="#63b8ff" d="M704.06,-360.33C720.07,-364.58 737.48,-369.2 753.77,-373.52"/>
<polygon fill="#63b8ff" stroke="#63b8ff" points="752.72,-377.13 763.29,-376.31 754.52,-370.36 752.72,-377.13"/>
</a>
</g>
</g>
<!-- Node5&#45;&gt;Node9 -->
<g id="edge8_Node000005_Node000009" class="edge">
<title>Node5&#45;&gt;Node9</title>
<g id="a_edge8_Node000005_Node000009"><a xlink:title=" ">
<path fill="none" stroke="#63b8ff" d="M662.71,-329C682.93,-311.44 717.04,-282.32 747.5,-258.62 760.2,-248.75 774.54,-238.29 786.97,-229.43"/>
<polygon fill="#63b8ff" stroke="#63b8ff" points="788.5,-231.93 794.64,-223.29 784.45,-226.22 788.5,-231.93"/>
</a>
</g>
</g>
<!-- Node11 -->
<g id="Node000011" class="node">
<title>Node11</title>
<g id="a_Node000011"><a xlink:href="../../df/d30/struct_eigen_1_1internal_1_1check__rows__cols__for__overflow.html#a96aadd23e6335d10018576e81dec4443" target="_top" xlink:title=" ">
<polygon fill="white" stroke="#666666" points="891,-297.88 747.5,-297.88 747.5,-267.38 891,-267.38 891,-297.88"/>
<text text-anchor="start" x="755.5" y="-284.38" font-family="Helvetica,sans-Serif" font-size="10.00">Eigen::internal::check</text>
<text text-anchor="middle" x="819.25" y="-273.12" font-family="Helvetica,sans-Serif" font-size="10.00">_rows_cols_for_overflow::run</text>
</a>
</g>
</g>
<!-- Node5&#45;&gt;Node11 -->
<g id="edge10_Node000005_Node000011" class="edge">
<title>Node5&#45;&gt;Node11</title>
<g id="a_edge10_Node000005_Node000011"><a xlink:title=" ">
<path fill="none" stroke="#63b8ff" d="M688.62,-328.98C711.53,-320.79 739.8,-310.68 764.08,-302"/>
<polygon fill="#63b8ff" stroke="#63b8ff" points="764.98,-305.04 773.21,-298.37 762.62,-298.44 764.98,-305.04"/>
</a>
</g>
</g>
<!-- Node7 -->
<g id="Node000007" class="node">
<title>Node7</title>
<g id="a_Node000007"><a xlink:href="../../d5/d91/class_eigen_1_1_dense_storage.html#aef23781f9dc545e8b3f6b75d6c05d777" target="_top" xlink:title=" ">
<polygon fill="white" stroke="#666666" points="1036,-356.88 927,-356.88 927,-326.38 1036,-326.38 1036,-356.88"/>
<text text-anchor="start" x="935" y="-343.38" font-family="Helvetica,sans-Serif" font-size="10.00">Eigen::DenseStorage</text>
<text text-anchor="middle" x="981.5" y="-332.12" font-family="Helvetica,sans-Serif" font-size="10.00">::cols</text>
</a>
</g>
</g>
<!-- Node6&#45;&gt;Node7 -->
<g id="edge6_Node000006_Node000007" class="edge">
<title>Node6&#45;&gt;Node7</title>
<g id="a_edge6_Node000006_Node000007"><a xlink:title=" ">
<path fill="none" stroke="#63b8ff" d="M879.47,-341.62C891.28,-341.62 903.74,-341.62 915.72,-341.62"/>
<polygon fill="#63b8ff" stroke="#63b8ff" points="915.56,-345.13 925.56,-341.62 915.56,-338.13 915.56,-345.13"/>
</a>
</g>
</g>
<!-- Node10 -->
<g id="Node000010" class="node">
<title>Node10</title>
<g id="a_Node000010"><a xlink:href="../../d5/d91/class_eigen_1_1_dense_storage.html#a14b68f709f5fb46eeebb203266cc29b2" target="_top" xlink:title=" ">
<polygon fill="white" stroke="#666666" points="1036,-222.88 927,-222.88 927,-192.38 1036,-192.38 1036,-222.88"/>
<text text-anchor="start" x="935" y="-209.38" font-family="Helvetica,sans-Serif" font-size="10.00">Eigen::DenseStorage</text>
<text text-anchor="middle" x="981.5" y="-198.12" font-family="Helvetica,sans-Serif" font-size="10.00">::rows</text>
</a>
</g>
</g>
<!-- Node9&#45;&gt;Node10 -->
<g id="edge9_Node000009_Node000010" class="edge">
<title>Node9&#45;&gt;Node10</title>
<g id="a_edge9_Node000009_Node000010"><a xlink:title=" ">
<path fill="none" stroke="#63b8ff" d="M879.47,-207.62C891.28,-207.62 903.74,-207.62 915.72,-207.62"/>
<polygon fill="#63b8ff" stroke="#63b8ff" points="915.56,-211.13 925.56,-207.62 915.56,-204.13 915.56,-211.13"/>
</a>
</g>
</g>
<!-- Node14&#45;&gt;Node5 -->
<g id="edge14_Node000014_Node000005" class="edge">
<title>Node14&#45;&gt;Node5</title>
<g id="a_edge14_Node000014_Node000005"><a xlink:title=" ">
<path fill="none" stroke="#63b8ff" d="M495.26,-451.65C521.08,-432.93 577.34,-392.14 612.47,-366.67"/>
<polygon fill="#63b8ff" stroke="#63b8ff" points="614.3,-368.94 620.34,-360.24 610.19,-363.27 614.3,-368.94"/>
</a>
</g>
</g>
<!-- Node14&#45;&gt;Node13 -->
<g id="edge15_Node000014_Node000013" class="edge">
<title>Node14&#45;&gt;Node13</title>
<g id="a_edge15_Node000014_Node000013"><a xlink:title=" ">
<path fill="none" stroke="#63b8ff" d="M523.9,-456.63C546.79,-453.94 575.04,-450.61 598.27,-447.88"/>
<polygon fill="#63b8ff" stroke="#63b8ff" points="598.36,-451.27 607.89,-446.63 597.54,-444.32 598.36,-451.27"/>
</a>
</g>
</g>
<!-- Node14&#45;&gt;Node14 -->
<g id="edge16_Node000014_Node000014" class="edge">
<title>Node14&#45;&gt;Node14</title>
<g id="a_edge16_Node000014_Node000014"><a xlink:title=" ">
<path fill="none" stroke="#63b8ff" d="M456.98,-471.54C446.25,-480.15 454.09,-489.25 480.5,-489.25 496.18,-489.25 505.32,-486.04 507.9,-481.63"/>
<polygon fill="#63b8ff" stroke="#63b8ff" points="510.88,-480.61 504.02,-472.54 504.35,-483.13 510.88,-480.61"/>
</a>
</g>
</g>
<!-- Node17&#45;&gt;Node17 -->
<g id="edge26_Node000017_Node000017" class="edge">
<title>Node17&#45;&gt;Node17</title>
<g id="a_edge26_Node000017_Node000017"><a xlink:title=" ">
<path fill="none" stroke="#63b8ff" d="M153.16,-284.54C143.32,-293.15 150.51,-302.25 174.75,-302.25 188.76,-302.25 197.08,-299.21 199.7,-294.98"/>
<polygon fill="#63b8ff" stroke="#63b8ff" points="202.73,-293.98 196.34,-285.54 196.07,-296.13 202.73,-293.98"/>
</a>
</g>
</g>
<!-- Node18 -->
<g id="Node000018" class="node">
<title>Node18</title>
<g id="a_Node000018"><a xlink:href="../../da/d8d/class_eigen_1_1_plain_object_base.html#acc7200947e6399bee847ff37c8270fc8" target="_top" xlink:title=" ">
<polygon fill="white" stroke="#666666" points="540.25,-233.88 420.75,-233.88 420.75,-203.38 540.25,-203.38 540.25,-233.88"/>
<text text-anchor="start" x="428.75" y="-220.38" font-family="Helvetica,sans-Serif" font-size="10.00">Eigen::PlainObjectBase</text>
<text text-anchor="middle" x="480.5" y="-209.12" font-family="Helvetica,sans-Serif" font-size="10.00">::resizeLike</text>
</a>
</g>
</g>
<!-- Node17&#45;&gt;Node18 -->
<g id="edge22_Node000017_Node000018" class="edge">
<title>Node17&#45;&gt;Node18</title>
<g id="a_edge22_Node000017_Node000018"><a xlink:title=" ">
<path fill="none" stroke="#63b8ff" d="M197.88,-264.53C217.81,-255.9 248.13,-243.91 275.75,-237.62 319.61,-227.65 369.91,-222.89 409.57,-220.63"/>
<polygon fill="#63b8ff" stroke="#63b8ff" points="409.65,-224.08 419.45,-220.06 409.28,-217.09 409.65,-224.08"/>
</a>
</g>
</g>
<!-- Node20 -->
<g id="Node000020" class="node">
<title>Node20</title>
<g id="a_Node000020"><a xlink:href="../../dc/d25/namespaceigl.html#a84b9867d746b3f402c238964ded5b418" target="_top" xlink:title=" ">
<polygon fill="white" stroke="#666666" points="357,-303.25 303.5,-303.25 303.5,-284 357,-284 357,-303.25"/>
<text text-anchor="middle" x="330.25" y="-289.75" font-family="Helvetica,sans-Serif" font-size="10.00">igl::sort2</text>
</a>
</g>
</g>
<!-- Node17&#45;&gt;Node20 -->
<g id="edge27_Node000017_Node000020" class="edge">
<title>Node17&#45;&gt;Node20</title>
<g id="a_edge27_Node000017_Node000020"><a xlink:title=" ">
<path fill="none" stroke="#63b8ff" d="M199.06,-277.51C223.9,-280.59 263.57,-285.49 292.59,-289.09"/>
<polygon fill="#63b8ff" stroke="#63b8ff" points="291.79,-292.64 302.14,-290.39 292.65,-285.69 291.79,-292.64"/>
</a>
</g>
</g>
<!-- Node22 -->
<g id="Node000022" class="node">
<title>Node22</title>
<g id="a_Node000022"><a xlink:href="../../dc/d25/namespaceigl.html#a1b0d117324cb1867c80027b8677f55b6" target="_top" xlink:title=" ">
<polygon fill="white" stroke="#666666" points="357,-266.25 303.5,-266.25 303.5,-247 357,-247 357,-266.25"/>
<text text-anchor="middle" x="330.25" y="-252.75" font-family="Helvetica,sans-Serif" font-size="10.00">igl::sort3</text>
</a>
</g>
</g>
<!-- Node17&#45;&gt;Node22 -->
<g id="edge31_Node000017_Node000022" class="edge">
<title>Node17&#45;&gt;Node22</title>
<g id="a_edge31_Node000017_Node000022"><a xlink:title=" ">
<path fill="none" stroke="#63b8ff" d="M199.06,-271.89C223.9,-268.98 263.57,-264.33 292.59,-260.92"/>
<polygon fill="#63b8ff" stroke="#63b8ff" points="292.62,-264.33 302.14,-259.69 291.8,-257.37 292.62,-264.33"/>
</a>
</g>
</g>
<!-- Node18&#45;&gt;Node5 -->
<g id="edge24_Node000018_Node000005" class="edge">
<title>Node18&#45;&gt;Node5</title>
<g id="a_edge24_Node000018_Node000005"><a xlink:title=" ">
<path fill="none" stroke="#63b8ff" d="M527.17,-234.29C531.8,-236.74 536.25,-239.51 540.25,-242.62 561.56,-259.25 557.51,-272.15 576.25,-291.62 586.95,-302.74 600,-313.61 611.71,-322.57"/>
<polygon fill="#63b8ff" stroke="#63b8ff" points="609.23,-325.84 619.34,-329.04 613.43,-320.24 609.23,-325.84"/>
</a>
</g>
</g>
<!-- Node18&#45;&gt;Node11 -->
<g id="edge25_Node000018_Node000011" class="edge">
<title>Node18&#45;&gt;Node11</title>
<g id="a_edge25_Node000018_Node000011"><a xlink:title=" ">
<path fill="none" stroke="#63b8ff" d="M540.61,-230.61C552.41,-232.97 564.72,-235.4 576.25,-237.62 629.58,-247.93 689.61,-259.09 736.53,-267.73"/>
<polygon fill="#63b8ff" stroke="#63b8ff" points="735.79,-271.33 746.25,-269.69 737.05,-264.44 735.79,-271.33"/>
</a>
</g>
</g>
<!-- Node19 -->
<g id="Node000019" class="node">
<title>Node19</title>
<g id="a_Node000019"><a xlink:href="../../d5/d18/struct_eigen_1_1_eigen_base.html#ab4cf3e6bb046a94a46b69b857bd3dbc9" target="_top" xlink:title=" ">
<polygon fill="white" stroke="#666666" points="709.62,-228.25 578.12,-228.25 578.12,-209 709.62,-209 709.62,-228.25"/>
<text text-anchor="middle" x="643.88" y="-214.75" font-family="Helvetica,sans-Serif" font-size="10.00">Eigen::EigenBase::derived</text>
</a>
</g>
</g>
<!-- Node18&#45;&gt;Node19 -->
<g id="edge23_Node000018_Node000019" class="edge">
<title>Node18&#45;&gt;Node19</title>
<g id="a_edge23_Node000018_Node000019"><a xlink:title=" ">
<path fill="none" stroke="#63b8ff" d="M540.67,-218.62C549.24,-218.62 558.16,-218.62 567,-218.62"/>
<polygon fill="#63b8ff" stroke="#63b8ff" points="566.72,-222.13 576.72,-218.62 566.72,-215.13 566.72,-222.13"/>
</a>
</g>
</g>
<!-- Node20&#45;&gt;Node12 -->
<g id="edge29_Node000020_Node000012" class="edge">
<title>Node20&#45;&gt;Node12</title>
<g id="a_edge29_Node000020_Node000012"><a xlink:title=" ">
<path fill="none" stroke="#63b8ff" d="M357.41,-295.57C372.01,-296.65 390.94,-298.05 409.53,-299.43"/>
<polygon fill="#63b8ff" stroke="#63b8ff" points="409.17,-302.99 419.4,-300.24 409.69,-296.01 409.17,-302.99"/>
</a>
</g>
</g>
<!-- Node20&#45;&gt;Node18 -->
<g id="edge28_Node000020_Node000018" class="edge">
<title>Node20&#45;&gt;Node18</title>
<g id="a_edge28_Node000020_Node000018"><a xlink:title=" ">
<path fill="none" stroke="#63b8ff" d="M357.24,-287.27C366.3,-284.44 376.31,-280.61 384.75,-275.62 403.44,-264.59 402.42,-254.24 420.75,-242.62 422.53,-241.5 424.37,-240.4 426.26,-239.35"/>
<polygon fill="#63b8ff" stroke="#63b8ff" points="427.66,-242.05 434.95,-234.36 424.45,-235.82 427.66,-242.05"/>
</a>
</g>
</g>
<!-- Node21 -->
<g id="Node000021" class="node">
<title>Node21</title>
<g id="a_Node000021"><a xlink:href="../../d6/d95/glu-libtess_8h.html#a4292190e3f1f6b373a760c7d9316ad3c" target="_top" xlink:title=" ">
<polygon fill="white" stroke="#666666" points="497.5,-271.25 463.5,-271.25 463.5,-252 497.5,-252 497.5,-271.25"/>
<text text-anchor="middle" x="480.5" y="-257.75" font-family="Helvetica,sans-Serif" font-size="10.00">void</text>
</a>
</g>
</g>
<!-- Node20&#45;&gt;Node21 -->
<g id="edge30_Node000020_Node000021" class="edge">
<title>Node20&#45;&gt;Node21</title>
<g id="a_edge30_Node000020_Node000021"><a xlink:title=" ">
<path fill="none" stroke="#63b8ff" d="M357.41,-287.98C384.18,-282.2 425.57,-273.27 452.6,-267.43"/>
<polygon fill="#63b8ff" stroke="#63b8ff" points="453.18,-270.67 462.22,-265.14 451.71,-263.83 453.18,-270.67"/>
</a>
</g>
</g>
<!-- Node22&#45;&gt;Node12 -->
<g id="edge41_Node000022_Node000012" class="edge">
<title>Node22&#45;&gt;Node12</title>
<g id="a_edge41_Node000022_Node000012"><a xlink:title=" ">
<path fill="none" stroke="#63b8ff" d="M357.41,-265.1C374.99,-270.79 398.88,-278.52 420.87,-285.64"/>
<polygon fill="#63b8ff" stroke="#63b8ff" points="419.55,-289.22 430.14,-288.97 421.7,-282.56 419.55,-289.22"/>
</a>
</g>
</g>
<!-- Node22&#45;&gt;Node18 -->
<g id="edge40_Node000022_Node000018" class="edge">
<title>Node22&#45;&gt;Node18</title>
<g id="a_edge40_Node000022_Node000018"><a xlink:title=" ">
<path fill="none" stroke="#63b8ff" d="M357.41,-249.92C372.07,-246.16 391.12,-241.28 409.79,-236.49"/>
<polygon fill="#63b8ff" stroke="#63b8ff" points="410.58,-239.65 419.4,-233.77 408.84,-232.87 410.58,-239.65"/>
</a>
</g>
</g>
<!-- Node22&#45;&gt;Node21 -->
<g id="edge42_Node000022_Node000021" class="edge">
<title>Node22&#45;&gt;Node21</title>
<g id="a_edge42_Node000022_Node000021"><a xlink:title=" ">
<path fill="none" stroke="#63b8ff" d="M357.41,-257.51C384.06,-258.41 425.2,-259.79 452.24,-260.71"/>
<polygon fill="#63b8ff" stroke="#63b8ff" points="452.11,-264.24 462.22,-261.08 452.34,-257.24 452.11,-264.24"/>
</a>
</g>
</g>
<!-- Node23 -->
<g id="Node000023" class="node">
<title>Node23</title>
<g id="a_Node000023"><a xlink:href="../../df/d05/tpool_8h.html#a48d2e68725f7691f1422697f4c359827" target="_top" xlink:title=" ">
<polygon fill="white" stroke="#666666" points="512.12,-99.25 448.88,-99.25 448.88,-80 512.12,-80 512.12,-99.25"/>
<text text-anchor="middle" x="480.5" y="-85.75" font-family="Helvetica,sans-Serif" font-size="10.00">parallel_for</text>
</a>
</g>
</g>
<!-- Node22&#45;&gt;Node23 -->
<g id="edge32_Node000022_Node000023" class="edge">
<title>Node22&#45;&gt;Node23</title>
<g id="a_edge32_Node000022_Node000023"><a xlink:title=" ">
<path fill="none" stroke="#63b8ff" d="M340.08,-246.68C364.33,-219.36 432.22,-142.88 463.43,-107.72"/>
<polygon fill="#63b8ff" stroke="#63b8ff" points="465.51,-110.53 469.53,-100.73 460.27,-105.89 465.51,-110.53"/>
</a>
</g>
</g>
<!-- Node24 -->
<g id="Node000024" class="node">
<title>Node24</title>
<g id="a_Node000024"><a xlink:href="../../d8/dcc/namespacestd.html#af4bc231d061945eb59dbba98a117ece9" target="_top" xlink:title=" ">
<polygon fill="white" stroke="#666666" points="680,-62.25 607.75,-62.25 607.75,-43 680,-43 680,-62.25"/>
<text text-anchor="middle" x="643.88" y="-48.75" font-family="Helvetica,sans-Serif" font-size="10.00">std::distance</text>
</a>
</g>
</g>
<!-- Node23&#45;&gt;Node24 -->
<g id="edge33_Node000023_Node000024" class="edge">
<title>Node23&#45;&gt;Node24</title>
<g id="a_edge33_Node000023_Node000024"><a xlink:title=" ">
<path fill="none" stroke="#63b8ff" d="M512.61,-82.49C536.55,-77 569.98,-69.34 596.98,-63.15"/>
<polygon fill="#63b8ff" stroke="#63b8ff" points="597.4,-66.41 606.36,-60.77 595.83,-59.59 597.4,-66.41"/>
</a>
</g>
</g>
<!-- Node29 -->
<g id="Node000029" class="node">
<title>Node29</title>
<g id="a_Node000029"><a xlink:href="../../d3/dce/classthread__pool.html#a731854a1dec41386e233847a55c74737" target="_top" xlink:title=" ">
<polygon fill="white" stroke="#666666" points="698.75,-147.88 589,-147.88 589,-117.38 698.75,-117.38 698.75,-147.88"/>
<text text-anchor="start" x="597" y="-134.38" font-family="Helvetica,sans-Serif" font-size="10.00">thread_pool::get_num</text>
<text text-anchor="middle" x="643.88" y="-123.12" font-family="Helvetica,sans-Serif" font-size="10.00">_threads</text>
</a>
</g>
</g>
<!-- Node23&#45;&gt;Node29 -->
<g id="edge36_Node000023_Node000029" class="edge">
<title>Node23&#45;&gt;Node29</title>
<g id="a_edge36_Node000023_Node000029"><a xlink:title=" ">
<path fill="none" stroke="#63b8ff" d="M512.61,-97.92C531.2,-102.87 555.5,-109.34 578.08,-115.36"/>
<polygon fill="#63b8ff" stroke="#63b8ff" points="577.08,-118.98 587.65,-118.18 578.89,-112.22 577.08,-118.98"/>
</a>
</g>
</g>
<!-- Node30 -->
<g id="Node000030" class="node">
<title>Node30</title>
<g id="a_Node000030"><a xlink:href="../../df/d05/tpool_8h.html#a024f3853091c417a440157aa77ce1b35" target="_top" xlink:title=" ">
<polygon fill="white" stroke="#666666" points="711.5,-22.25 576.25,-22.25 576.25,-3 711.5,-3 711.5,-22.25"/>
<text text-anchor="middle" x="643.88" y="-8.75" font-family="Helvetica,sans-Serif" font-size="10.00">get_scheduling_parameters</text>
</a>
</g>
</g>
<!-- Node23&#45;&gt;Node30 -->
<g id="edge37_Node000023_Node000030" class="edge">
<title>Node23&#45;&gt;Node30</title>
<g id="a_edge37_Node000023_Node000030"><a xlink:title=" ">
<path fill="none" stroke="#63b8ff" d="M496.03,-79.61C514.16,-67.45 546.41,-46.94 576.25,-33.62 582.36,-30.9 588.92,-28.38 595.47,-26.09"/>
<polygon fill="#63b8ff" stroke="#63b8ff" points="596.28,-29.18 604.66,-22.71 594.07,-22.54 596.28,-29.18"/>
</a>
</g>
</g>
<!-- Node35 -->
<g id="Node000035" class="node">
<title>Node35</title>
<g id="a_Node000035"><a xlink:href="../../d3/dce/classthread__pool.html#a105646fee998f77c07a00d47966cd570" target="_top" xlink:title=" ">
<polygon fill="white" stroke="#666666" points="694.62,-99.25 593.12,-99.25 593.12,-80 694.62,-80 694.62,-99.25"/>
<text text-anchor="middle" x="643.88" y="-85.75" font-family="Helvetica,sans-Serif" font-size="10.00">thread_pool::submit</text>
</a>
</g>
</g>
<!-- Node23&#45;&gt;Node35 -->
<g id="edge39_Node000023_Node000035" class="edge">
<title>Node23&#45;&gt;Node35</title>
<g id="a_edge39_Node000023_Node000035"><a xlink:title=" ">
<path fill="none" stroke="#63b8ff" d="M512.61,-89.62C532.22,-89.62 558.21,-89.62 581.81,-89.62"/>
<polygon fill="#63b8ff" stroke="#63b8ff" points="581.81,-93.13 591.81,-89.62 581.81,-86.13 581.81,-93.13"/>
</a>
</g>
</g>
<!-- Node25 -->
<g id="Node000025" class="node">
<title>Node25</title>
<g id="a_Node000025"><a xlink:href="../../d7/d63/classhmesh__t.html#a19678c4e4889230aa87ea59b4ec047c8" target="_top" xlink:title=" ">
<polygon fill="#fff0f0" stroke="red" points="882.38,-67.88 756.12,-67.88 756.12,-37.38 882.38,-37.38 882.38,-67.88"/>
<text text-anchor="start" x="764.12" y="-54.38" font-family="Helvetica,sans-Serif" font-size="10.00">hmesh_t::count_removed</text>
<text text-anchor="middle" x="819.25" y="-43.12" font-family="Helvetica,sans-Serif" font-size="10.00">_elements_in_range</text>
</a>
</g>
</g>
<!-- Node24&#45;&gt;Node25 -->
<g id="edge34_Node000024_Node000025" class="edge">
<title>Node24&#45;&gt;Node25</title>
<g id="a_edge34_Node000024_Node000025"><a xlink:title=" ">
<path fill="none" stroke="#63b8ff" d="M680.38,-52.62C699.02,-52.62 722.59,-52.62 744.94,-52.62"/>
<polygon fill="#63b8ff" stroke="#63b8ff" points="744.79,-56.13 754.79,-52.62 744.79,-49.13 744.79,-56.13"/>
</a>
</g>
</g>
<!-- Node28 -->
<g id="Node000028" class="node">
<title>Node28</title>
<g id="a_Node000028"><a xlink:href="../../d8/d9b/classarray__iterator__t.html#ac73b2d71bcaaa8f9fb198b061a58803a" target="_top" xlink:title=" ">
<polygon fill="white" stroke="#666666" points="869.62,-116.88 768.88,-116.88 768.88,-86.38 869.62,-86.38 869.62,-116.88"/>
<text text-anchor="start" x="776.88" y="-103.38" font-family="Helvetica,sans-Serif" font-size="10.00">array_iterator_t::get</text>
<text text-anchor="middle" x="819.25" y="-92.12" font-family="Helvetica,sans-Serif" font-size="10.00">_mesh_ptr</text>
</a>
</g>
</g>
<!-- Node24&#45;&gt;Node28 -->
<g id="edge35_Node000024_Node000028" class="edge">
<title>Node24&#45;&gt;Node28</title>
<g id="a_edge35_Node000024_Node000028"><a xlink:title=" ">
<path fill="none" stroke="#63b8ff" d="M680.18,-62.03C690.3,-64.76 701.35,-67.78 711.5,-70.62 726.67,-74.88 743.03,-79.57 758.27,-83.99"/>
<polygon fill="#63b8ff" stroke="#63b8ff" points="757.03,-87.57 767.61,-87 758.99,-80.85 757.03,-87.57"/>
</a>
</g>
</g>
<!-- Node31 -->
<g id="Node000031" class="node">
<title>Node31</title>
<g id="a_Node000031"><a xlink:href="../../df/db1/math_8h.html#a3a54064875b1b215da4904e90278a089" target="_top" xlink:title=" ">
<polygon fill="#fff0f0" stroke="red" points="840.38,-19.25 798.12,-19.25 798.12,0 840.38,0 840.38,-19.25"/>
<text text-anchor="middle" x="819.25" y="-5.75" font-family="Helvetica,sans-Serif" font-size="10.00">length</text>
</a>
</g>
</g>
<!-- Node30&#45;&gt;Node31 -->
<g id="edge38_Node000030_Node000031" class="edge">
<title>Node30&#45;&gt;Node31</title>
<g id="a_edge38_Node000030_Node000031"><a xlink:title=" ">
<path fill="none" stroke="#63b8ff" d="M711.91,-11.47C737.79,-11.02 766.15,-10.53 787.07,-10.16"/>
<polygon fill="#63b8ff" stroke="#63b8ff" points="786.92,-13.65 796.86,-9.98 786.8,-6.65 786.92,-13.65"/>
</a>
</g>
</g>
</g>
</svg>

<g id="navigator" transform="translate(0 0)" fill="#404254">
  <rect fill="#f2f5e9" fill-opacity="0.5" stroke="#606060" stroke-width=".5" x="0" y="0" width="60" height="60"/>
  <use id="zoomplus" xlink:href="#zoomPlus" x="17" y="9" onmousedown="handleZoom(evt,'in')"/>
  <use id="zoomminus" xlink:href="#zoomMin" x="42" y="9" onmousedown="handleZoom(evt,'out')"/>
  <use id="reset" xlink:href="#resetDef" x="30" y="36" onmousedown="handleReset()"/>
   <use id="arrowup" xlink:href="#arrowUp" x="0" y="0" onmousedown="handlePan(0,-1)"/>
  <use id="arrowright" xlink:href="#arrowRight" x="0" y="0" onmousedown="handlePan(1,0)"/>
  <use id="arrowdown" xlink:href="#arrowDown" x="0" y="0" onmousedown="handlePan(0,1)"/>
  <use id="arrowleft" xlink:href="#arrowLeft" x="0" y="0" onmousedown="handlePan(-1,0)"/>
</g>
<svg viewBox="0 0 15 15" width="100%" height="30px" preserveAspectRatio="xMaxYMin meet">
 <g id="arrow_out" transform="scale(0.3 0.3)">
  <a xlink:href="namespaceigl_a431d87141bb498b45f8d8ca3192bca74_cgraph_org.svg" target="_base">
   <rect id="button" ry="5" rx="5" y="6" x="6" height="38" width="38"
        fill="#f2f5e9" fill-opacity="0.5" stroke="#606060" stroke-width="1.0"/>
   <path id="arrow"
     d="M 11.500037,31.436501 C 11.940474,20.09759 22.043105,11.32322 32.158766,21.979434 L 37.068811,17.246167 C 37.068811,17.246167 37.088388,32 37.088388,32 L 22.160133,31.978069 C 22.160133,31.978069 26.997745,27.140456 26.997745,27.140456 C 18.528582,18.264221 13.291696,25.230495 11.500037,31.436501 z"
     style="fill:#404040;"/>
  </a>
 </g>
</svg>

<style type='text/css'>
<![CDATA[
[data-mouse-over-selected='false'] { opacity: 0.7; }
[data-mouse-over-selected='true']  { opacity: 1.0; }
]]>
</style>
<script type="application/ecmascript"><![CDATA[
document.addEventListener('DOMContentLoaded', (event) => {
  highlightEdges();
  highlightAdjacentNodes();
});
]]></script>
</svg>
