<?xml version="1.0" encoding="UTF-8" standalone="no"?>
<!DOCTYPE svg PUBLIC "-//W3C//DTD SVG 1.1//EN"
 "http://www.w3.org/Graphics/SVG/1.1/DTD/svg11.dtd">
<!-- Generated by graphviz version 8.1.0 (20230707.0739)
 -->
<!-- Title: igl::edge_lengths Pages: 1 -->
<!--zoomable 189 -->

<svg id="main" version="1.1" xmlns="http://www.w3.org/2000/svg" xmlns:xlink="http://www.w3.org/1999/xlink" xml:space="preserve" onload="init(evt)">
<style type="text/css"><![CDATA[
.node, .edge {opacity: 0.7;}
.node.selected, .edge.selected {opacity: 1;}
.edge:hover path { stroke: red; }
.edge:hover polygon { stroke: red; fill: red; }
]]></style>

<defs>
  <circle id="rim" cx="0" cy="0" r="7"/>
  <circle id="rim2" cx="0" cy="0" r="3.5"/>
  <g id="zoomPlus">
    <use xlink:href="#rim" fill="#404040"><set attributeName="fill" to="#808080" begin="zoomplus.mouseover" end="zoomplus.mouseout"/></use>
    <path d="M-4,0h8M0,-4v8" fill="none" stroke="white" stroke-width="1.5" pointer-events="none"/>
  </g>
  <g id="zoomMin">
    <use xlink:href="#rim" fill="#404040"><set attributeName="fill" to="#808080" begin="zoomminus.mouseover" end="zoomminus.mouseout"/></use>
    <path d="M-4,0h8" fill="none" stroke="white" stroke-width="1.5" pointer-events="none"/>
  </g>
  <g id="arrowUp" transform="translate(30 24)">
    <use xlink:href="#rim"/>
    <path pointer-events="none" fill="none" stroke="white" stroke-width="1.5" d="M0,-3.0v7 M-2.5,-0.5L0,-3.0L2.5,-0.5"/>
  </g>
  <g id="arrowRight" transform="rotate(90) translate(36 -43)">
    <use xlink:href="#rim"/>
    <path pointer-events="none" fill="none" stroke="white" stroke-width="1.5" d="M0,-3.0v7 M-2.5,-0.5L0,-3.0L2.5,-0.5"/>
  </g>
  <g id="arrowDown" transform="rotate(180) translate(-30 -48)">
    <use xlink:href="#rim"/>
    <path pointer-events="none" fill="none" stroke="white" stroke-width="1.5" d="M0,-3.0v7 M-2.5,-0.5L0,-3.0L2.5,-0.5"/>
  </g>
  <g id="arrowLeft" transform="rotate(270) translate(-36 17)">
    <use xlink:href="#rim"/>
    <path pointer-events="none" fill="none" stroke="white" stroke-width="1.5" d="M0,-3.0v7 M-2.5,-0.5L0,-3.0L2.5,-0.5"/>
  </g>
  <g id="resetDef">
    <use xlink:href="#rim2" fill="#404040"><set attributeName="fill" to="#808080" begin="reset.mouseover" end="reset.mouseout"/></use>
  </g>
</defs>
<script type="application/ecmascript">
var viewWidth = 865;
var viewHeight = 189;
var sectionId = 'dynsection-197';
</script>
<script type="application/ecmascript" xlink:href="../../svg.min.js"/>
<svg id="graph" class="graph">
<g id="viewport">
<title>igl::edge_lengths</title>
<!-- Node1 -->
<g id="Node000001" class="node">
<title>Node1</title>
<g id="a_Node000001"><a xlink:title=" ">
<polygon fill="#999999" stroke="#666666" points="89.5,-77.25 0,-77.25 0,-58 89.5,-58 89.5,-77.25"/>
<text text-anchor="middle" x="44.75" y="-63.75" font-family="Helvetica,sans-Serif" font-size="10.00">igl::edge_lengths</text>
</a>
</g>
</g>
<!-- Node2 -->
<g id="Node000002" class="node">
<title>Node2</title>
<g id="a_Node000002"><a xlink:href="../../dc/d25/namespaceigl.html#a074a0e943f00b69c7363b7cb1dbe1dd0" target="_top" xlink:title=" ">
<polygon fill="white" stroke="#666666" points="254.75,-77.25 125.5,-77.25 125.5,-58 254.75,-58 254.75,-77.25"/>
<text text-anchor="middle" x="190.12" y="-63.75" font-family="Helvetica,sans-Serif" font-size="10.00">igl::squared_edge_lengths</text>
</a>
</g>
</g>
<!-- Node1&#45;&gt;Node2 -->
<g id="edge1_Node000001_Node000002" class="edge">
<title>Node1&#45;&gt;Node2</title>
<g id="a_edge1_Node000001_Node000002"><a xlink:title=" ">
<path fill="none" stroke="#63b8ff" d="M89.94,-67.62C97.66,-67.62 105.89,-67.62 114.17,-67.62"/>
<polygon fill="#63b8ff" stroke="#63b8ff" points="114.06,-71.13 124.06,-67.62 114.06,-64.13 114.06,-71.13"/>
</a>
</g>
</g>
<!-- Node3 -->
<g id="Node000003" class="node">
<title>Node3</title>
<g id="a_Node000003"><a xlink:href="../../df/d05/tpool_8h.html#a48d2e68725f7691f1422697f4c359827" target="_top" xlink:title=" ">
<polygon fill="white" stroke="#666666" points="354,-77.25 290.75,-77.25 290.75,-58 354,-58 354,-77.25"/>
<text text-anchor="middle" x="322.38" y="-63.75" font-family="Helvetica,sans-Serif" font-size="10.00">parallel_for</text>
</a>
</g>
</g>
<!-- Node2&#45;&gt;Node3 -->
<g id="edge2_Node000002_Node000003" class="edge">
<title>Node2&#45;&gt;Node3</title>
<g id="a_edge2_Node000002_Node000003"><a xlink:title=" ">
<path fill="none" stroke="#63b8ff" d="M255.11,-67.62C263.5,-67.62 271.92,-67.62 279.81,-67.62"/>
<polygon fill="#63b8ff" stroke="#63b8ff" points="279.55,-71.13 289.55,-67.62 279.55,-64.13 279.55,-71.13"/>
</a>
</g>
</g>
<!-- Node4 -->
<g id="Node000004" class="node">
<title>Node4</title>
<g id="a_Node000004"><a xlink:href="../../d8/dcc/namespacestd.html#af4bc231d061945eb59dbba98a117ece9" target="_top" xlink:title=" ">
<polygon fill="white" stroke="#666666" points="493.75,-142.25 421.5,-142.25 421.5,-123 493.75,-123 493.75,-142.25"/>
<text text-anchor="middle" x="457.62" y="-128.75" font-family="Helvetica,sans-Serif" font-size="10.00">std::distance</text>
</a>
</g>
</g>
<!-- Node3&#45;&gt;Node4 -->
<g id="edge3_Node000003_Node000004" class="edge">
<title>Node3&#45;&gt;Node4</title>
<g id="a_edge3_Node000003_Node000004"><a xlink:title=" ">
<path fill="none" stroke="#63b8ff" d="M335.4,-77.74C348.2,-88.07 369.41,-103.9 390,-113.62 396.58,-116.73 403.76,-119.43 410.91,-121.74"/>
<polygon fill="#63b8ff" stroke="#63b8ff" points="409.68,-125.32 420.26,-124.85 411.69,-118.62 409.68,-125.32"/>
</a>
</g>
</g>
<!-- Node9 -->
<g id="Node000009" class="node">
<title>Node9</title>
<g id="a_Node000009"><a xlink:href="../../d3/dce/classthread__pool.html#a731854a1dec41386e233847a55c74737" target="_top" xlink:title=" ">
<polygon fill="white" stroke="#666666" points="512.5,-104.88 402.75,-104.88 402.75,-74.38 512.5,-74.38 512.5,-104.88"/>
<text text-anchor="start" x="410.75" y="-91.38" font-family="Helvetica,sans-Serif" font-size="10.00">thread_pool::get_num</text>
<text text-anchor="middle" x="457.62" y="-80.12" font-family="Helvetica,sans-Serif" font-size="10.00">_threads</text>
</a>
</g>
</g>
<!-- Node3&#45;&gt;Node9 -->
<g id="edge8_Node000003_Node000009" class="edge">
<title>Node3&#45;&gt;Node9</title>
<g id="a_edge8_Node000003_Node000009"><a xlink:title=" ">
<path fill="none" stroke="#63b8ff" d="M354.28,-72.73C365.56,-74.59 378.79,-76.77 391.91,-78.94"/>
<polygon fill="#63b8ff" stroke="#63b8ff" points="390.94,-82.49 401.38,-80.67 392.08,-75.59 390.94,-82.49"/>
</a>
</g>
</g>
<!-- Node10 -->
<g id="Node000010" class="node">
<title>Node10</title>
<g id="a_Node000010"><a xlink:href="../../df/d05/tpool_8h.html#a024f3853091c417a440157aa77ce1b35" target="_top" xlink:title=" ">
<polygon fill="white" stroke="#666666" points="525.25,-56.25 390,-56.25 390,-37 525.25,-37 525.25,-56.25"/>
<text text-anchor="middle" x="457.62" y="-42.75" font-family="Helvetica,sans-Serif" font-size="10.00">get_scheduling_parameters</text>
</a>
</g>
</g>
<!-- Node3&#45;&gt;Node10 -->
<g id="edge9_Node000003_Node000010" class="edge">
<title>Node3&#45;&gt;Node10</title>
<g id="a_edge9_Node000003_Node000010"><a xlink:title=" ">
<path fill="none" stroke="#63b8ff" d="M354.28,-62.75C362.69,-61.43 372.18,-59.93 381.91,-58.4"/>
<polygon fill="#63b8ff" stroke="#63b8ff" points="382.18,-61.74 391.51,-56.73 381.09,-54.83 382.18,-61.74"/>
</a>
</g>
</g>
<!-- Node15 -->
<g id="Node000015" class="node">
<title>Node15</title>
<g id="a_Node000015"><a xlink:href="../../d3/dce/classthread__pool.html#a105646fee998f77c07a00d47966cd570" target="_top" xlink:title=" ">
<polygon fill="white" stroke="#666666" points="508.38,-19.25 406.88,-19.25 406.88,0 508.38,0 508.38,-19.25"/>
<text text-anchor="middle" x="457.62" y="-5.75" font-family="Helvetica,sans-Serif" font-size="10.00">thread_pool::submit</text>
</a>
</g>
</g>
<!-- Node3&#45;&gt;Node15 -->
<g id="edge13_Node000003_Node000015" class="edge">
<title>Node3&#45;&gt;Node15</title>
<g id="a_edge13_Node000003_Node000015"><a xlink:title=" ">
<path fill="none" stroke="#63b8ff" d="M337.57,-57.51C350.66,-48.58 370.88,-35.76 390,-27.62 393.86,-25.98 397.91,-24.45 402.02,-23.04"/>
<polygon fill="#63b8ff" stroke="#63b8ff" points="402.86,-26.12 411.32,-19.75 400.73,-19.46 402.86,-26.12"/>
</a>
</g>
</g>
<!-- Node5 -->
<g id="Node000005" class="node">
<title>Node5</title>
<g id="a_Node000005"><a xlink:href="../../d7/d63/classhmesh__t.html#a19678c4e4889230aa87ea59b4ec047c8" target="_top" xlink:title=" ">
<polygon fill="white" stroke="#666666" points="687.5,-161.88 561.25,-161.88 561.25,-131.38 687.5,-131.38 687.5,-161.88"/>
<text text-anchor="start" x="569.25" y="-148.38" font-family="Helvetica,sans-Serif" font-size="10.00">hmesh_t::count_removed</text>
<text text-anchor="middle" x="624.38" y="-137.12" font-family="Helvetica,sans-Serif" font-size="10.00">_elements_in_range</text>
</a>
</g>
</g>
<!-- Node4&#45;&gt;Node5 -->
<g id="edge4_Node000004_Node000005" class="edge">
<title>Node4&#45;&gt;Node5</title>
<g id="a_edge4_Node000004_Node000005"><a xlink:title=" ">
<path fill="none" stroke="#63b8ff" d="M493.97,-135.63C510.4,-137.02 530.59,-138.74 550.09,-140.4"/>
<polygon fill="#63b8ff" stroke="#63b8ff" points="549.57,-143.95 559.83,-141.31 550.16,-136.98 549.57,-143.95"/>
</a>
</g>
</g>
<!-- Node8 -->
<g id="Node000008" class="node">
<title>Node8</title>
<g id="a_Node000008"><a xlink:href="../../d8/d9b/classarray__iterator__t.html#ac73b2d71bcaaa8f9fb198b061a58803a" target="_top" xlink:title=" ">
<polygon fill="white" stroke="#666666" points="674.75,-112.88 574,-112.88 574,-82.38 674.75,-82.38 674.75,-112.88"/>
<text text-anchor="start" x="582" y="-99.38" font-family="Helvetica,sans-Serif" font-size="10.00">array_iterator_t::get</text>
<text text-anchor="middle" x="624.38" y="-88.12" font-family="Helvetica,sans-Serif" font-size="10.00">_mesh_ptr</text>
</a>
</g>
</g>
<!-- Node4&#45;&gt;Node8 -->
<g id="edge7_Node000004_Node000008" class="edge">
<title>Node4&#45;&gt;Node8</title>
<g id="a_edge7_Node000004_Node000008"><a xlink:title=" ">
<path fill="none" stroke="#63b8ff" d="M493.97,-125.12C514.14,-120.83 539.97,-115.34 563.23,-110.4"/>
<polygon fill="#63b8ff" stroke="#63b8ff" points="563.66,-113.68 572.72,-108.17 562.21,-106.83 563.66,-113.68"/>
</a>
</g>
</g>
<!-- Node6 -->
<g id="Node000006" class="node">
<title>Node6</title>
<g id="a_Node000006"><a xlink:href="../../d7/d63/classhmesh__t.html#a536da7c5d6be8a2f0be7a536c17a4644" target="_top" xlink:title=" ">
<polygon fill="white" stroke="#666666" points="856.5,-181.25 723.5,-181.25 723.5,-162 856.5,-162 856.5,-181.25"/>
<text text-anchor="middle" x="790" y="-167.75" font-family="Helvetica,sans-Serif" font-size="10.00">hmesh_t::elements_begin_</text>
</a>
</g>
</g>
<!-- Node5&#45;&gt;Node6 -->
<g id="edge5_Node000005_Node000006" class="edge">
<title>Node5&#45;&gt;Node6</title>
<g id="a_edge5_Node000005_Node000006"><a xlink:title=" ">
<path fill="none" stroke="#63b8ff" d="M687.7,-156.15C695.74,-157.38 704.04,-158.64 712.28,-159.9"/>
<polygon fill="#63b8ff" stroke="#63b8ff" points="711.62,-163.5 722.04,-161.55 712.68,-156.58 711.62,-163.5"/>
</a>
</g>
</g>
<!-- Node7 -->
<g id="Node000007" class="node">
<title>Node7</title>
<g id="a_Node000007"><a xlink:href="../../d7/d63/classhmesh__t.html#ad6d08c43b0dac5f8f4a933496ef81ca9" target="_top" xlink:title=" ">
<polygon fill="white" stroke="#666666" points="847.88,-143.88 732.12,-143.88 732.12,-113.38 847.88,-113.38 847.88,-143.88"/>
<text text-anchor="start" x="740.12" y="-130.38" font-family="Helvetica,sans-Serif" font-size="10.00">hmesh_t::get_removed</text>
<text text-anchor="middle" x="790" y="-119.12" font-family="Helvetica,sans-Serif" font-size="10.00">_elements</text>
</a>
</g>
</g>
<!-- Node5&#45;&gt;Node7 -->
<g id="edge6_Node000005_Node000007" class="edge">
<title>Node5&#45;&gt;Node7</title>
<g id="a_edge6_Node000005_Node000007"><a xlink:title=" ">
<path fill="none" stroke="#63b8ff" d="M687.7,-139.77C698.54,-138.58 709.86,-137.33 720.84,-136.12"/>
<polygon fill="#63b8ff" stroke="#63b8ff" points="721.13,-139.5 730.69,-134.93 720.36,-132.54 721.13,-139.5"/>
</a>
</g>
</g>
<!-- Node11 -->
<g id="Node000011" class="node">
<title>Node11</title>
<g id="a_Node000011"><a xlink:href="../../df/db1/math_8h.html#a3a54064875b1b215da4904e90278a089" target="_top" xlink:title=" ">
<polygon fill="white" stroke="#666666" points="645.5,-56.25 603.25,-56.25 603.25,-37 645.5,-37 645.5,-56.25"/>
<text text-anchor="middle" x="624.38" y="-42.75" font-family="Helvetica,sans-Serif" font-size="10.00">length</text>
</a>
</g>
</g>
<!-- Node10&#45;&gt;Node11 -->
<g id="edge10_Node000010_Node000011" class="edge">
<title>Node10&#45;&gt;Node11</title>
<g id="a_edge10_Node000010_Node000011"><a xlink:title=" ">
<path fill="none" stroke="#63b8ff" d="M525.64,-46.62C548.65,-46.62 573.33,-46.62 592.13,-46.62"/>
<polygon fill="#63b8ff" stroke="#63b8ff" points="592.01,-50.13 602.01,-46.62 592.01,-43.13 592.01,-50.13"/>
</a>
</g>
</g>
<!-- Node12 -->
<g id="Node000012" class="node">
<title>Node12</title>
<g id="a_Node000012"><a xlink:href="../../dd/d2d/math_8cpp.html#af4fb32373387854416da6c38850971b2" target="_top" xlink:title=" ">
<polygon fill="white" stroke="#666666" points="823.5,-78.25 756.5,-78.25 756.5,-59 823.5,-59 823.5,-78.25"/>
<text text-anchor="middle" x="790" y="-64.75" font-family="Helvetica,sans-Serif" font-size="10.00">square_root</text>
</a>
</g>
</g>
<!-- Node11&#45;&gt;Node12 -->
<g id="edge11_Node000011_Node000012" class="edge">
<title>Node11&#45;&gt;Node12</title>
<g id="a_edge11_Node000011_Node000012"><a xlink:title=" ">
<path fill="none" stroke="#63b8ff" d="M645.77,-49.37C670.63,-52.71 713.32,-58.45 745.64,-62.8"/>
<polygon fill="#63b8ff" stroke="#63b8ff" points="744.79,-66.35 755.17,-64.21 745.72,-59.41 744.79,-66.35"/>
</a>
</g>
</g>
<!-- Node13 -->
<g id="Node000013" class="node">
<title>Node13</title>
<g id="a_Node000013"><a xlink:href="../../df/db1/math_8h.html#a5ac9a8399d477c88e7ab2e9e406015c6" target="_top" xlink:title=" ">
<polygon fill="#fff0f0" stroke="red" points="831,-41.25 749,-41.25 749,-22 831,-22 831,-41.25"/>
<text text-anchor="middle" x="790" y="-27.75" font-family="Helvetica,sans-Serif" font-size="10.00">squared_length</text>
</a>
</g>
</g>
<!-- Node11&#45;&gt;Node13 -->
<g id="edge12_Node000011_Node000013" class="edge">
<title>Node11&#45;&gt;Node13</title>
<g id="a_edge12_Node000011_Node000013"><a xlink:title=" ">
<path fill="none" stroke="#63b8ff" d="M645.77,-44.76C668.68,-42.66 706.74,-39.17 737.87,-36.31"/>
<polygon fill="#63b8ff" stroke="#63b8ff" points="737.92,-39.73 747.56,-35.33 737.28,-32.76 737.92,-39.73"/>
</a>
</g>
</g>
</g>
</svg>

<g id="navigator" transform="translate(0 0)" fill="#404254">
  <rect fill="#f2f5e9" fill-opacity="0.5" stroke="#606060" stroke-width=".5" x="0" y="0" width="60" height="60"/>
  <use id="zoomplus" xlink:href="#zoomPlus" x="17" y="9" onmousedown="handleZoom(evt,'in')"/>
  <use id="zoomminus" xlink:href="#zoomMin" x="42" y="9" onmousedown="handleZoom(evt,'out')"/>
  <use id="reset" xlink:href="#resetDef" x="30" y="36" onmousedown="handleReset()"/>
   <use id="arrowup" xlink:href="#arrowUp" x="0" y="0" onmousedown="handlePan(0,-1)"/>
  <use id="arrowright" xlink:href="#arrowRight" x="0" y="0" onmousedown="handlePan(1,0)"/>
  <use id="arrowdown" xlink:href="#arrowDown" x="0" y="0" onmousedown="handlePan(0,1)"/>
  <use id="arrowleft" xlink:href="#arrowLeft" x="0" y="0" onmousedown="handlePan(-1,0)"/>
</g>
<svg viewBox="0 0 15 15" width="100%" height="30px" preserveAspectRatio="xMaxYMin meet">
 <g id="arrow_out" transform="scale(0.3 0.3)">
  <a xlink:href="namespaceigl_a44bc9e49facfd0deed62748c05af7607_cgraph_org.svg" target="_base">
   <rect id="button" ry="5" rx="5" y="6" x="6" height="38" width="38"
        fill="#f2f5e9" fill-opacity="0.5" stroke="#606060" stroke-width="1.0"/>
   <path id="arrow"
     d="M 11.500037,31.436501 C 11.940474,20.09759 22.043105,11.32322 32.158766,21.979434 L 37.068811,17.246167 C 37.068811,17.246167 37.088388,32 37.088388,32 L 22.160133,31.978069 C 22.160133,31.978069 26.997745,27.140456 26.997745,27.140456 C 18.528582,18.264221 13.291696,25.230495 11.500037,31.436501 z"
     style="fill:#404040;"/>
  </a>
 </g>
</svg>

<style type='text/css'>
<![CDATA[
[data-mouse-over-selected='false'] { opacity: 0.7; }
[data-mouse-over-selected='true']  { opacity: 1.0; }
]]>
</style>
<script type="application/ecmascript"><![CDATA[
document.addEventListener('DOMContentLoaded', (event) => {
  highlightEdges();
  highlightAdjacentNodes();
});
]]></script>
</svg>
