<?xml version="1.0" encoding="UTF-8" standalone="no"?>
<!DOCTYPE svg PUBLIC "-//W3C//DTD SVG 1.1//EN"
 "http://www.w3.org/Graphics/SVG/1.1/DTD/svg11.dtd">
<!-- Generated by graphviz version 8.1.0 (20230707.0739)
 -->
<!-- Title: igl::triangle_triangle_adjacency Pages: 1 -->
<svg width="825pt" height="189pt"
 viewBox="0.00 0.00 824.75 189.25" xmlns="http://www.w3.org/2000/svg" xmlns:xlink="http://www.w3.org/1999/xlink">
<g id="graph0" class="graph" transform="scale(1 1) rotate(0) translate(4 185.25)">
<title>igl::triangle_triangle_adjacency</title>
<!-- Node1 -->
<g id="Node000001" class="node">
<title>Node1</title>
<g id="a_Node000001"><a xlink:title=" ">
<polygon fill="#999999" stroke="#666666" points="100,-82.88 0,-82.88 0,-52.38 100,-52.38 100,-82.88"/>
<text text-anchor="start" x="8" y="-69.38" font-family="Helvetica,sans-Serif" font-size="10.00">igl::triangle_triangle</text>
<text text-anchor="middle" x="50" y="-58.12" font-family="Helvetica,sans-Serif" font-size="10.00">_adjacency</text>
</a>
</g>
</g>
<!-- Node2 -->
<g id="Node000002" class="node">
<title>Node2</title>
<g id="a_Node000002"><a xlink:href="../../dc/d25/namespaceigl.html#a48ba3dac8f2da11935cd7e566f27e69d" target="_top" xlink:title=" ">
<polygon fill="white" stroke="#666666" points="215,-77.25 136,-77.25 136,-58 215,-58 215,-77.25"/>
<text text-anchor="middle" x="175.5" y="-63.75" font-family="Helvetica,sans-Serif" font-size="10.00">igl::parallel_for</text>
</a>
</g>
</g>
<!-- Node1&#45;&gt;Node2 -->
<g id="edge1_Node000001_Node000002" class="edge">
<title>Node1&#45;&gt;Node2</title>
<g id="a_edge1_Node000001_Node000002"><a xlink:title=" ">
<path fill="none" stroke="#63b8ff" d="M100.17,-67.62C108.3,-67.62 116.75,-67.62 124.9,-67.62"/>
<polygon fill="#63b8ff" stroke="#63b8ff" points="124.77,-71.13 134.77,-67.62 124.77,-64.13 124.77,-71.13"/>
</a>
</g>
</g>
<!-- Node3 -->
<g id="Node000003" class="node">
<title>Node3</title>
<g id="a_Node000003"><a xlink:href="../../df/d05/tpool_8h.html#a48d2e68725f7691f1422697f4c359827" target="_top" xlink:title=" ">
<polygon fill="white" stroke="#666666" points="314.25,-77.25 251,-77.25 251,-58 314.25,-58 314.25,-77.25"/>
<text text-anchor="middle" x="282.62" y="-63.75" font-family="Helvetica,sans-Serif" font-size="10.00">parallel_for</text>
</a>
</g>
</g>
<!-- Node2&#45;&gt;Node3 -->
<g id="edge2_Node000002_Node000003" class="edge">
<title>Node2&#45;&gt;Node3</title>
<g id="a_edge2_Node000002_Node000003"><a xlink:title=" ">
<path fill="none" stroke="#63b8ff" d="M215.35,-67.62C223.39,-67.62 231.89,-67.62 240.03,-67.62"/>
<polygon fill="#63b8ff" stroke="#63b8ff" points="239.82,-71.13 249.82,-67.62 239.82,-64.13 239.82,-71.13"/>
</a>
</g>
</g>
<!-- Node4 -->
<g id="Node000004" class="node">
<title>Node4</title>
<g id="a_Node000004"><a xlink:href="../../d8/dcc/namespacestd.html#af4bc231d061945eb59dbba98a117ece9" target="_top" xlink:title=" ">
<polygon fill="white" stroke="#666666" points="454,-142.25 381.75,-142.25 381.75,-123 454,-123 454,-142.25"/>
<text text-anchor="middle" x="417.88" y="-128.75" font-family="Helvetica,sans-Serif" font-size="10.00">std::distance</text>
</a>
</g>
</g>
<!-- Node3&#45;&gt;Node4 -->
<g id="edge3_Node000003_Node000004" class="edge">
<title>Node3&#45;&gt;Node4</title>
<g id="a_edge3_Node000003_Node000004"><a xlink:title=" ">
<path fill="none" stroke="#63b8ff" d="M295.65,-77.74C308.45,-88.07 329.66,-103.9 350.25,-113.62 356.83,-116.73 364.01,-119.43 371.16,-121.74"/>
<polygon fill="#63b8ff" stroke="#63b8ff" points="369.93,-125.32 380.51,-124.85 371.94,-118.62 369.93,-125.32"/>
</a>
</g>
</g>
<!-- Node9 -->
<g id="Node000009" class="node">
<title>Node9</title>
<g id="a_Node000009"><a xlink:href="../../d3/dce/classthread__pool.html#a731854a1dec41386e233847a55c74737" target="_top" xlink:title=" ">
<polygon fill="white" stroke="#666666" points="472.75,-104.88 363,-104.88 363,-74.38 472.75,-74.38 472.75,-104.88"/>
<text text-anchor="start" x="371" y="-91.38" font-family="Helvetica,sans-Serif" font-size="10.00">thread_pool::get_num</text>
<text text-anchor="middle" x="417.88" y="-80.12" font-family="Helvetica,sans-Serif" font-size="10.00">_threads</text>
</a>
</g>
</g>
<!-- Node3&#45;&gt;Node9 -->
<g id="edge8_Node000003_Node000009" class="edge">
<title>Node3&#45;&gt;Node9</title>
<g id="a_edge8_Node000003_Node000009"><a xlink:title=" ">
<path fill="none" stroke="#63b8ff" d="M314.53,-72.73C325.81,-74.59 339.04,-76.77 352.16,-78.94"/>
<polygon fill="#63b8ff" stroke="#63b8ff" points="351.19,-82.49 361.63,-80.67 352.33,-75.59 351.19,-82.49"/>
</a>
</g>
</g>
<!-- Node10 -->
<g id="Node000010" class="node">
<title>Node10</title>
<g id="a_Node000010"><a xlink:href="../../df/d05/tpool_8h.html#a024f3853091c417a440157aa77ce1b35" target="_top" xlink:title=" ">
<polygon fill="white" stroke="#666666" points="485.5,-56.25 350.25,-56.25 350.25,-37 485.5,-37 485.5,-56.25"/>
<text text-anchor="middle" x="417.88" y="-42.75" font-family="Helvetica,sans-Serif" font-size="10.00">get_scheduling_parameters</text>
</a>
</g>
</g>
<!-- Node3&#45;&gt;Node10 -->
<g id="edge9_Node000003_Node000010" class="edge">
<title>Node3&#45;&gt;Node10</title>
<g id="a_edge9_Node000003_Node000010"><a xlink:title=" ">
<path fill="none" stroke="#63b8ff" d="M314.53,-62.75C322.94,-61.43 332.43,-59.93 342.16,-58.4"/>
<polygon fill="#63b8ff" stroke="#63b8ff" points="342.43,-61.74 351.76,-56.73 341.34,-54.83 342.43,-61.74"/>
</a>
</g>
</g>
<!-- Node15 -->
<g id="Node000015" class="node">
<title>Node15</title>
<g id="a_Node000015"><a xlink:href="../../d3/dce/classthread__pool.html#a105646fee998f77c07a00d47966cd570" target="_top" xlink:title=" ">
<polygon fill="white" stroke="#666666" points="468.62,-19.25 367.12,-19.25 367.12,0 468.62,0 468.62,-19.25"/>
<text text-anchor="middle" x="417.88" y="-5.75" font-family="Helvetica,sans-Serif" font-size="10.00">thread_pool::submit</text>
</a>
</g>
</g>
<!-- Node3&#45;&gt;Node15 -->
<g id="edge13_Node000003_Node000015" class="edge">
<title>Node3&#45;&gt;Node15</title>
<g id="a_edge13_Node000003_Node000015"><a xlink:title=" ">
<path fill="none" stroke="#63b8ff" d="M297.82,-57.51C310.91,-48.58 331.13,-35.76 350.25,-27.62 354.11,-25.98 358.16,-24.45 362.27,-23.04"/>
<polygon fill="#63b8ff" stroke="#63b8ff" points="363.11,-26.12 371.57,-19.75 360.98,-19.46 363.11,-26.12"/>
</a>
</g>
</g>
<!-- Node5 -->
<g id="Node000005" class="node">
<title>Node5</title>
<g id="a_Node000005"><a xlink:href="../../d7/d63/classhmesh__t.html#a19678c4e4889230aa87ea59b4ec047c8" target="_top" xlink:title=" ">
<polygon fill="white" stroke="#666666" points="647.75,-161.88 521.5,-161.88 521.5,-131.38 647.75,-131.38 647.75,-161.88"/>
<text text-anchor="start" x="529.5" y="-148.38" font-family="Helvetica,sans-Serif" font-size="10.00">hmesh_t::count_removed</text>
<text text-anchor="middle" x="584.62" y="-137.12" font-family="Helvetica,sans-Serif" font-size="10.00">_elements_in_range</text>
</a>
</g>
</g>
<!-- Node4&#45;&gt;Node5 -->
<g id="edge4_Node000004_Node000005" class="edge">
<title>Node4&#45;&gt;Node5</title>
<g id="a_edge4_Node000004_Node000005"><a xlink:title=" ">
<path fill="none" stroke="#63b8ff" d="M454.22,-135.63C470.65,-137.02 490.84,-138.74 510.34,-140.4"/>
<polygon fill="#63b8ff" stroke="#63b8ff" points="509.82,-143.95 520.08,-141.31 510.41,-136.98 509.82,-143.95"/>
</a>
</g>
</g>
<!-- Node8 -->
<g id="Node000008" class="node">
<title>Node8</title>
<g id="a_Node000008"><a xlink:href="../../d8/d9b/classarray__iterator__t.html#ac73b2d71bcaaa8f9fb198b061a58803a" target="_top" xlink:title=" ">
<polygon fill="white" stroke="#666666" points="635,-112.88 534.25,-112.88 534.25,-82.38 635,-82.38 635,-112.88"/>
<text text-anchor="start" x="542.25" y="-99.38" font-family="Helvetica,sans-Serif" font-size="10.00">array_iterator_t::get</text>
<text text-anchor="middle" x="584.62" y="-88.12" font-family="Helvetica,sans-Serif" font-size="10.00">_mesh_ptr</text>
</a>
</g>
</g>
<!-- Node4&#45;&gt;Node8 -->
<g id="edge7_Node000004_Node000008" class="edge">
<title>Node4&#45;&gt;Node8</title>
<g id="a_edge7_Node000004_Node000008"><a xlink:title=" ">
<path fill="none" stroke="#63b8ff" d="M454.22,-125.12C474.39,-120.83 500.22,-115.34 523.48,-110.4"/>
<polygon fill="#63b8ff" stroke="#63b8ff" points="523.91,-113.68 532.97,-108.17 522.46,-106.83 523.91,-113.68"/>
</a>
</g>
</g>
<!-- Node6 -->
<g id="Node000006" class="node">
<title>Node6</title>
<g id="a_Node000006"><a xlink:href="../../d7/d63/classhmesh__t.html#a536da7c5d6be8a2f0be7a536c17a4644" target="_top" xlink:title=" ">
<polygon fill="white" stroke="#666666" points="816.75,-181.25 683.75,-181.25 683.75,-162 816.75,-162 816.75,-181.25"/>
<text text-anchor="middle" x="750.25" y="-167.75" font-family="Helvetica,sans-Serif" font-size="10.00">hmesh_t::elements_begin_</text>
</a>
</g>
</g>
<!-- Node5&#45;&gt;Node6 -->
<g id="edge5_Node000005_Node000006" class="edge">
<title>Node5&#45;&gt;Node6</title>
<g id="a_edge5_Node000005_Node000006"><a xlink:title=" ">
<path fill="none" stroke="#63b8ff" d="M647.95,-156.15C655.99,-157.38 664.29,-158.64 672.53,-159.9"/>
<polygon fill="#63b8ff" stroke="#63b8ff" points="671.87,-163.5 682.29,-161.55 672.93,-156.58 671.87,-163.5"/>
</a>
</g>
</g>
<!-- Node7 -->
<g id="Node000007" class="node">
<title>Node7</title>
<g id="a_Node000007"><a xlink:href="../../d7/d63/classhmesh__t.html#ad6d08c43b0dac5f8f4a933496ef81ca9" target="_top" xlink:title=" ">
<polygon fill="white" stroke="#666666" points="808.12,-143.88 692.38,-143.88 692.38,-113.38 808.12,-113.38 808.12,-143.88"/>
<text text-anchor="start" x="700.38" y="-130.38" font-family="Helvetica,sans-Serif" font-size="10.00">hmesh_t::get_removed</text>
<text text-anchor="middle" x="750.25" y="-119.12" font-family="Helvetica,sans-Serif" font-size="10.00">_elements</text>
</a>
</g>
</g>
<!-- Node5&#45;&gt;Node7 -->
<g id="edge6_Node000005_Node000007" class="edge">
<title>Node5&#45;&gt;Node7</title>
<g id="a_edge6_Node000005_Node000007"><a xlink:title=" ">
<path fill="none" stroke="#63b8ff" d="M647.95,-139.77C658.79,-138.58 670.11,-137.33 681.09,-136.12"/>
<polygon fill="#63b8ff" stroke="#63b8ff" points="681.38,-139.5 690.94,-134.93 680.61,-132.54 681.38,-139.5"/>
</a>
</g>
</g>
<!-- Node11 -->
<g id="Node000011" class="node">
<title>Node11</title>
<g id="a_Node000011"><a xlink:href="../../df/db1/math_8h.html#a3a54064875b1b215da4904e90278a089" target="_top" xlink:title=" ">
<polygon fill="white" stroke="#666666" points="605.75,-56.25 563.5,-56.25 563.5,-37 605.75,-37 605.75,-56.25"/>
<text text-anchor="middle" x="584.62" y="-42.75" font-family="Helvetica,sans-Serif" font-size="10.00">length</text>
</a>
</g>
</g>
<!-- Node10&#45;&gt;Node11 -->
<g id="edge10_Node000010_Node000011" class="edge">
<title>Node10&#45;&gt;Node11</title>
<g id="a_edge10_Node000010_Node000011"><a xlink:title=" ">
<path fill="none" stroke="#63b8ff" d="M485.89,-46.62C508.9,-46.62 533.58,-46.62 552.38,-46.62"/>
<polygon fill="#63b8ff" stroke="#63b8ff" points="552.26,-50.13 562.26,-46.62 552.26,-43.13 552.26,-50.13"/>
</a>
</g>
</g>
<!-- Node12 -->
<g id="Node000012" class="node">
<title>Node12</title>
<g id="a_Node000012"><a xlink:href="../../dd/d2d/math_8cpp.html#af4fb32373387854416da6c38850971b2" target="_top" xlink:title=" ">
<polygon fill="white" stroke="#666666" points="783.75,-78.25 716.75,-78.25 716.75,-59 783.75,-59 783.75,-78.25"/>
<text text-anchor="middle" x="750.25" y="-64.75" font-family="Helvetica,sans-Serif" font-size="10.00">square_root</text>
</a>
</g>
</g>
<!-- Node11&#45;&gt;Node12 -->
<g id="edge11_Node000011_Node000012" class="edge">
<title>Node11&#45;&gt;Node12</title>
<g id="a_edge11_Node000011_Node000012"><a xlink:title=" ">
<path fill="none" stroke="#63b8ff" d="M606.02,-49.37C630.88,-52.71 673.57,-58.45 705.89,-62.8"/>
<polygon fill="#63b8ff" stroke="#63b8ff" points="705.04,-66.35 715.42,-64.21 705.97,-59.41 705.04,-66.35"/>
</a>
</g>
</g>
<!-- Node13 -->
<g id="Node000013" class="node">
<title>Node13</title>
<g id="a_Node000013"><a xlink:href="../../df/db1/math_8h.html#a5ac9a8399d477c88e7ab2e9e406015c6" target="_top" xlink:title=" ">
<polygon fill="#fff0f0" stroke="red" points="791.25,-41.25 709.25,-41.25 709.25,-22 791.25,-22 791.25,-41.25"/>
<text text-anchor="middle" x="750.25" y="-27.75" font-family="Helvetica,sans-Serif" font-size="10.00">squared_length</text>
</a>
</g>
</g>
<!-- Node11&#45;&gt;Node13 -->
<g id="edge12_Node000011_Node000013" class="edge">
<title>Node11&#45;&gt;Node13</title>
<g id="a_edge12_Node000011_Node000013"><a xlink:title=" ">
<path fill="none" stroke="#63b8ff" d="M606.02,-44.76C628.93,-42.66 666.99,-39.17 698.12,-36.31"/>
<polygon fill="#63b8ff" stroke="#63b8ff" points="698.17,-39.73 707.81,-35.33 697.53,-32.76 698.17,-39.73"/>
</a>
</g>
</g>
</g>
</svg>
