<?xml version="1.0" encoding="UTF-8" standalone="no"?>
<!DOCTYPE svg PUBLIC "-//W3C//DTD SVG 1.1//EN"
 "http://www.w3.org/Graphics/SVG/1.1/DTD/svg11.dtd">
<!-- Generated by graphviz version 8.1.0 (20230707.0739)
 -->
<!-- Title: igl::guess_extension Pages: 1 -->
<!--zoomable 302 -->

<svg id="main" version="1.1" xmlns="http://www.w3.org/2000/svg" xmlns:xlink="http://www.w3.org/1999/xlink" xml:space="preserve" onload="init(evt)">
<style type="text/css"><![CDATA[
.node, .edge {opacity: 0.7;}
.node.selected, .edge.selected {opacity: 1;}
.edge:hover path { stroke: red; }
.edge:hover polygon { stroke: red; fill: red; }
]]></style>

<defs>
  <circle id="rim" cx="0" cy="0" r="7"/>
  <circle id="rim2" cx="0" cy="0" r="3.5"/>
  <g id="zoomPlus">
    <use xlink:href="#rim" fill="#404040"><set attributeName="fill" to="#808080" begin="zoomplus.mouseover" end="zoomplus.mouseout"/></use>
    <path d="M-4,0h8M0,-4v8" fill="none" stroke="white" stroke-width="1.5" pointer-events="none"/>
  </g>
  <g id="zoomMin">
    <use xlink:href="#rim" fill="#404040"><set attributeName="fill" to="#808080" begin="zoomminus.mouseover" end="zoomminus.mouseout"/></use>
    <path d="M-4,0h8" fill="none" stroke="white" stroke-width="1.5" pointer-events="none"/>
  </g>
  <g id="arrowUp" transform="translate(30 24)">
    <use xlink:href="#rim"/>
    <path pointer-events="none" fill="none" stroke="white" stroke-width="1.5" d="M0,-3.0v7 M-2.5,-0.5L0,-3.0L2.5,-0.5"/>
  </g>
  <g id="arrowRight" transform="rotate(90) translate(36 -43)">
    <use xlink:href="#rim"/>
    <path pointer-events="none" fill="none" stroke="white" stroke-width="1.5" d="M0,-3.0v7 M-2.5,-0.5L0,-3.0L2.5,-0.5"/>
  </g>
  <g id="arrowDown" transform="rotate(180) translate(-30 -48)">
    <use xlink:href="#rim"/>
    <path pointer-events="none" fill="none" stroke="white" stroke-width="1.5" d="M0,-3.0v7 M-2.5,-0.5L0,-3.0L2.5,-0.5"/>
  </g>
  <g id="arrowLeft" transform="rotate(270) translate(-36 17)">
    <use xlink:href="#rim"/>
    <path pointer-events="none" fill="none" stroke="white" stroke-width="1.5" d="M0,-3.0v7 M-2.5,-0.5L0,-3.0L2.5,-0.5"/>
  </g>
  <g id="resetDef">
    <use xlink:href="#rim2" fill="#404040"><set attributeName="fill" to="#808080" begin="reset.mouseover" end="reset.mouseout"/></use>
  </g>
</defs>
<script type="application/ecmascript">
var viewWidth = 693;
var viewHeight = 302;
var sectionId = 'dynsection-279';
</script>
<script type="application/ecmascript" xlink:href="../../svg.min.js"/>
<svg id="graph" class="graph">
<g id="viewport">
<title>igl::guess_extension</title>
<!-- Node1 -->
<g id="Node000001" class="node">
<title>Node1</title>
<g id="a_Node000001"><a xlink:title=" ">
<polygon fill="#999999" stroke="#666666" points="105.25,-180.25 0,-180.25 0,-161 105.25,-161 105.25,-180.25"/>
<text text-anchor="middle" x="52.62" y="-166.75" font-family="Helvetica,sans-Serif" font-size="10.00">igl::guess_extension</text>
</a>
</g>
</g>
<!-- Node2 -->
<g id="Node000002" class="node">
<title>Node2</title>
<g id="a_Node000002"><a xlink:href="../../dc/d25/namespaceigl.html#a5ff5d5a26e069ff427510c33189b5b19" target="_top" xlink:title=" ">
<polygon fill="white" stroke="#666666" points="212.38,-199.25 157.38,-199.25 157.38,-180 212.38,-180 212.38,-199.25"/>
<text text-anchor="middle" x="184.88" y="-185.75" font-family="Helvetica,sans-Serif" font-size="10.00">igl::is_stl</text>
</a>
</g>
</g>
<!-- Node1&#45;&gt;Node2 -->
<g id="edge1_Node000001_Node000002" class="edge">
<title>Node1&#45;&gt;Node2</title>
<g id="a_edge1_Node000001_Node000002"><a xlink:title=" ">
<path fill="none" stroke="#63b8ff" d="M105.48,-178.19C119.19,-180.19 133.73,-182.31 146.51,-184.18"/>
<polygon fill="#63b8ff" stroke="#63b8ff" points="145.83,-187.76 156.23,-185.74 146.84,-180.83 145.83,-187.76"/>
</a>
</g>
</g>
<!-- Node3 -->
<g id="Node000003" class="node">
<title>Node3</title>
<g id="a_Node000003"><a xlink:href="../../dd/de2/namespaceigl_1_1ply.html#a71bb3d2c64dc305534cdef5307de0ccf" target="_top" xlink:title=" ">
<polygon fill="white" stroke="#666666" points="228.5,-162.25 141.25,-162.25 141.25,-143 228.5,-143 228.5,-162.25"/>
<text text-anchor="middle" x="184.88" y="-148.75" font-family="Helvetica,sans-Serif" font-size="10.00">igl::ply::ply_read</text>
</a>
</g>
</g>
<!-- Node1&#45;&gt;Node3 -->
<g id="edge2_Node000001_Node000003" class="edge">
<title>Node1&#45;&gt;Node3</title>
<g id="a_edge2_Node000001_Node000003"><a xlink:title=" ">
<path fill="none" stroke="#63b8ff" d="M105.48,-163.46C113.67,-162.33 122.15,-161.16 130.37,-160.02"/>
<polygon fill="#63b8ff" stroke="#63b8ff" points="130.56,-163.39 139.99,-158.55 129.61,-156.45 130.56,-163.39"/>
</a>
</g>
</g>
<!-- Node4 -->
<g id="Node000004" class="node">
<title>Node4</title>
<g id="a_Node000004"><a xlink:href="../../dd/de2/namespaceigl_1_1ply.html#adcdb75549bf7eb58dd00793923738f30" target="_top" xlink:title=" ">
<polygon fill="white" stroke="#666666" points="376.5,-293.25 264.5,-293.25 264.5,-274 376.5,-274 376.5,-293.25"/>
<text text-anchor="middle" x="320.5" y="-279.75" font-family="Helvetica,sans-Serif" font-size="10.00">igl::ply::add_comment</text>
</a>
</g>
</g>
<!-- Node3&#45;&gt;Node4 -->
<g id="edge3_Node000003_Node000004" class="edge">
<title>Node3&#45;&gt;Node4</title>
<g id="a_edge3_Node000003_Node000004"><a xlink:title=" ">
<path fill="none" stroke="#63b8ff" d="M217.98,-162.73C221.85,-164.9 225.49,-167.51 228.5,-170.62 259.59,-202.79 232.35,-233.52 264.5,-264.62 265.68,-265.77 266.93,-266.84 268.24,-267.85"/>
<polygon fill="#63b8ff" stroke="#63b8ff" points="266.23,-271.34 276.58,-273.62 269.91,-265.38 266.23,-271.34"/>
</a>
</g>
</g>
<!-- Node6 -->
<g id="Node000006" class="node">
<title>Node6</title>
<g id="a_Node000006"><a xlink:href="../../dd/de2/namespaceigl_1_1ply.html#afdd89627730b4d009adbbdde120f3648" target="_top" xlink:title=" ">
<polygon fill="white" stroke="#666666" points="373.5,-255.25 267.5,-255.25 267.5,-236 373.5,-236 373.5,-255.25"/>
<text text-anchor="middle" x="320.5" y="-241.75" font-family="Helvetica,sans-Serif" font-size="10.00">igl::ply::add_element</text>
</a>
</g>
</g>
<!-- Node3&#45;&gt;Node6 -->
<g id="edge5_Node000003_Node000006" class="edge">
<title>Node3&#45;&gt;Node6</title>
<g id="a_edge5_Node000003_Node000006"><a xlink:title=" ">
<path fill="none" stroke="#63b8ff" d="M216.11,-162.64C220.53,-164.86 224.82,-167.51 228.5,-170.62 251.35,-190.01 240.86,-209.21 264.5,-227.62 265.76,-228.61 267.08,-229.54 268.45,-230.42"/>
<polygon fill="#63b8ff" stroke="#63b8ff" points="266.49,-233.88 276.95,-235.54 269.81,-227.72 266.49,-233.88"/>
</a>
</g>
</g>
<!-- Node7 -->
<g id="Node000007" class="node">
<title>Node7</title>
<g id="a_Node000007"><a xlink:href="../../dd/de2/namespaceigl_1_1ply.html#a7ad8c5dd623bed3a89e1f36ec4208e40" target="_top" xlink:title=" ">
<polygon fill="white" stroke="#666666" points="373.12,-218.25 267.88,-218.25 267.88,-199 373.12,-199 373.12,-218.25"/>
<text text-anchor="middle" x="320.5" y="-204.75" font-family="Helvetica,sans-Serif" font-size="10.00">igl::ply::add_obj_info</text>
</a>
</g>
</g>
<!-- Node3&#45;&gt;Node7 -->
<g id="edge6_Node000003_Node000007" class="edge">
<title>Node3&#45;&gt;Node7</title>
<g id="a_edge6_Node000003_Node000007"><a xlink:title=" ">
<path fill="none" stroke="#63b8ff" d="M210.87,-162.65C216.71,-165.14 222.87,-167.88 228.5,-170.62 244.95,-178.64 247.73,-183.3 264.5,-190.62 267.92,-192.12 271.5,-193.56 275.13,-194.92"/>
<polygon fill="#63b8ff" stroke="#63b8ff" points="273.78,-198.52 284.38,-198.58 276.14,-191.92 273.78,-198.52"/>
</a>
</g>
</g>
<!-- Node9 -->
<g id="Node000009" class="node">
<title>Node9</title>
<g id="a_Node000009"><a xlink:href="../../dd/de2/namespaceigl_1_1ply.html#af4777fb2f8a4df4ec5afe92948cbf64b" target="_top" xlink:title=" ">
<polygon fill="white" stroke="#666666" points="373.88,-181.25 267.12,-181.25 267.12,-162 373.88,-162 373.88,-181.25"/>
<text text-anchor="middle" x="320.5" y="-167.75" font-family="Helvetica,sans-Serif" font-size="10.00">igl::ply::add_property</text>
</a>
</g>
</g>
<!-- Node3&#45;&gt;Node9 -->
<g id="edge8_Node000003_Node000009" class="edge">
<title>Node3&#45;&gt;Node9</title>
<g id="a_edge8_Node000003_Node000009"><a xlink:title=" ">
<path fill="none" stroke="#63b8ff" d="M228.89,-158.74C237.55,-159.97 246.83,-161.29 256.03,-162.6"/>
<polygon fill="#63b8ff" stroke="#63b8ff" points="255.35,-166.18 265.74,-164.12 256.33,-159.25 255.35,-166.18"/>
</a>
</g>
</g>
<!-- Node10 -->
<g id="Node000010" class="node">
<title>Node10</title>
<g id="a_Node000010"><a xlink:href="../../dd/de2/namespaceigl_1_1ply.html#a776b2d3c10686682431242eb39c07557" target="_top" xlink:title=" ">
<polygon fill="white" stroke="#666666" points="684.5,-181.25 576.25,-181.25 576.25,-162 684.5,-162 684.5,-181.25"/>
<text text-anchor="middle" x="630.38" y="-167.75" font-family="Helvetica,sans-Serif" font-size="10.00">igl::ply::equal_strings</text>
</a>
</g>
</g>
<!-- Node3&#45;&gt;Node10 -->
<g id="edge13_Node000003_Node000010" class="edge">
<title>Node3&#45;&gt;Node10</title>
<g id="a_edge13_Node000003_Node000010"><a xlink:title=" ">
<path fill="none" stroke="#63b8ff" d="M228.85,-149.73C295.67,-145.88 428.44,-140.84 540.25,-152.62 553.28,-154 567.21,-156.47 580.08,-159.19"/>
<polygon fill="#63b8ff" stroke="#63b8ff" points="579.1,-162.78 589.61,-161.51 580.6,-155.94 579.1,-162.78"/>
</a>
</g>
</g>
<!-- Node12 -->
<g id="Node000012" class="node">
<title>Node12</title>
<g id="a_Node000012"><a xlink:href="../../dd/de2/namespaceigl_1_1ply.html#adcd4fa3ad45a5a674892ddeb07cd3c5a" target="_top" xlink:title=" ">
<polygon fill="white" stroke="#666666" points="373.5,-105.25 267.5,-105.25 267.5,-86 373.5,-86 373.5,-105.25"/>
<text text-anchor="middle" x="320.5" y="-91.75" font-family="Helvetica,sans-Serif" font-size="10.00">igl::ply::check_types</text>
</a>
</g>
</g>
<!-- Node3&#45;&gt;Node12 -->
<g id="edge12_Node000003_Node000012" class="edge">
<title>Node3&#45;&gt;Node12</title>
<g id="a_edge12_Node000003_Node000012"><a xlink:title=" ">
<path fill="none" stroke="#63b8ff" d="M209.46,-142.57C230.73,-133.49 262.26,-120.04 286.12,-109.86"/>
<polygon fill="#63b8ff" stroke="#63b8ff" points="287.33,-112.73 295.15,-105.58 284.58,-106.29 287.33,-112.73"/>
</a>
</g>
</g>
<!-- Node13 -->
<g id="Node000013" class="node">
<title>Node13</title>
<g id="a_Node000013"><a xlink:href="../../dd/de2/namespaceigl_1_1ply.html#a9e06e1c40fef1a0575b4e92fff909b6d" target="_top" xlink:title=" ">
<polygon fill="white" stroke="#666666" points="368.25,-67.88 272.75,-67.88 272.75,-37.38 368.25,-37.38 368.25,-67.88"/>
<text text-anchor="start" x="280.75" y="-54.38" font-family="Helvetica,sans-Serif" font-size="10.00">igl::ply::get_native</text>
<text text-anchor="middle" x="320.5" y="-43.12" font-family="Helvetica,sans-Serif" font-size="10.00">_binary_type2</text>
</a>
</g>
</g>
<!-- Node3&#45;&gt;Node13 -->
<g id="edge14_Node000003_Node000013" class="edge">
<title>Node3&#45;&gt;Node13</title>
<g id="a_edge14_Node000003_Node000013"><a xlink:title=" ">
<path fill="none" stroke="#63b8ff" d="M194.15,-142.58C207.55,-126.82 235.47,-96.06 264.5,-76.62 266.19,-75.49 267.94,-74.4 269.73,-73.33"/>
<polygon fill="#63b8ff" stroke="#63b8ff" points="270.85,-76.17 277.96,-68.32 267.5,-70.02 270.85,-76.17"/>
</a>
</g>
</g>
<!-- Node14 -->
<g id="Node000014" class="node">
<title>Node14</title>
<g id="a_Node000014"><a xlink:href="../../dd/de2/namespaceigl_1_1ply.html#a1406519bb75b9c1b2f691639b5587945" target="_top" xlink:title=" ">
<polygon fill="white" stroke="#666666" points="368.25,-19.25 272.75,-19.25 272.75,0 368.25,0 368.25,-19.25"/>
<text text-anchor="middle" x="320.5" y="-5.75" font-family="Helvetica,sans-Serif" font-size="10.00">igl::ply::get_words</text>
</a>
</g>
</g>
<!-- Node3&#45;&gt;Node14 -->
<g id="edge15_Node000003_Node000014" class="edge">
<title>Node3&#45;&gt;Node14</title>
<g id="a_edge15_Node000003_Node000014"><a xlink:title=" ">
<path fill="none" stroke="#63b8ff" d="M189.5,-142.66C198.51,-119.31 224.11,-60.57 264.5,-28.62 266.33,-27.17 268.29,-25.83 270.32,-24.59"/>
<polygon fill="#63b8ff" stroke="#63b8ff" points="271.39,-27.46 278.65,-19.74 268.17,-21.24 271.39,-27.46"/>
</a>
</g>
</g>
<!-- Node5 -->
<g id="Node000005" class="node">
<title>Node5</title>
<g id="a_Node000005"><a xlink:href="../../dd/de2/namespaceigl_1_1ply.html#ac74b960fb73de5851effaa7cfa123789" target="_top" xlink:title=" ">
<polygon fill="white" stroke="#666666" points="540.25,-294.25 412.5,-294.25 412.5,-275 540.25,-275 540.25,-294.25"/>
<text text-anchor="middle" x="476.38" y="-280.75" font-family="Helvetica,sans-Serif" font-size="10.00">igl::ply::ply_put_comment</text>
</a>
</g>
</g>
<!-- Node4&#45;&gt;Node5 -->
<g id="edge4_Node000004_Node000005" class="edge">
<title>Node4&#45;&gt;Node5</title>
<g id="a_edge4_Node000004_Node000005"><a xlink:title=" ">
<path fill="none" stroke="#63b8ff" d="M376.62,-283.98C384.59,-284.04 392.91,-284.09 401.18,-284.14"/>
<polygon fill="#63b8ff" stroke="#63b8ff" points="400.98,-287.65 411,-284.21 401.02,-280.65 400.98,-287.65"/>
</a>
</g>
</g>
<!-- Node8 -->
<g id="Node000008" class="node">
<title>Node8</title>
<g id="a_Node000008"><a xlink:href="../../dd/de2/namespaceigl_1_1ply.html#a2e8a0cb06f2379be8441348da7d95995" target="_top" xlink:title=" ">
<polygon fill="white" stroke="#666666" points="536.88,-257.25 415.88,-257.25 415.88,-238 536.88,-238 536.88,-257.25"/>
<text text-anchor="middle" x="476.38" y="-243.75" font-family="Helvetica,sans-Serif" font-size="10.00">igl::ply::ply_put_obj_info</text>
</a>
</g>
</g>
<!-- Node7&#45;&gt;Node8 -->
<g id="edge7_Node000007_Node000008" class="edge">
<title>Node7&#45;&gt;Node8</title>
<g id="a_edge7_Node000007_Node000008"><a xlink:title=" ">
<path fill="none" stroke="#63b8ff" d="M361.13,-218.67C380.61,-223.61 404.32,-229.62 425.07,-234.88"/>
<polygon fill="#63b8ff" stroke="#63b8ff" points="424.06,-238.48 434.62,-237.55 425.78,-231.7 424.06,-238.48"/>
</a>
</g>
</g>
<!-- Node9&#45;&gt;Node10 -->
<g id="edge9_Node000009_Node000010" class="edge">
<title>Node9&#45;&gt;Node10</title>
<g id="a_edge9_Node000009_Node000010"><a xlink:title=" ">
<path fill="none" stroke="#63b8ff" d="M361.09,-181.74C376.96,-185.31 395.48,-188.87 412.5,-190.62 468.98,-196.46 483.79,-196.58 540.25,-190.62 553.28,-189.25 567.21,-186.78 580.08,-184.06"/>
<polygon fill="#63b8ff" stroke="#63b8ff" points="580.6,-187.31 589.61,-181.74 579.1,-180.47 580.6,-187.31"/>
</a>
</g>
</g>
<!-- Node11 -->
<g id="Node000011" class="node">
<title>Node11</title>
<g id="a_Node000011"><a xlink:href="../../dd/de2/namespaceigl_1_1ply.html#aa4443f0c06c1b672308556c71ff0dcf6" target="_top" xlink:title=" ">
<polygon fill="white" stroke="#666666" points="532.38,-181.25 420.38,-181.25 420.38,-162 532.38,-162 532.38,-181.25"/>
<text text-anchor="middle" x="476.38" y="-167.75" font-family="Helvetica,sans-Serif" font-size="10.00">igl::ply::get_prop_type</text>
</a>
</g>
</g>
<!-- Node9&#45;&gt;Node11 -->
<g id="edge10_Node000009_Node000011" class="edge">
<title>Node9&#45;&gt;Node11</title>
<g id="a_edge10_Node000009_Node000011"><a xlink:title=" ">
<path fill="none" stroke="#63b8ff" d="M374.02,-171.62C385.36,-171.62 397.48,-171.62 409.25,-171.62"/>
<polygon fill="#63b8ff" stroke="#63b8ff" points="408.94,-175.13 418.94,-171.62 408.94,-168.13 408.94,-175.13"/>
</a>
</g>
</g>
<!-- Node11&#45;&gt;Node10 -->
<g id="edge11_Node000011_Node000010" class="edge">
<title>Node11&#45;&gt;Node10</title>
<g id="a_edge11_Node000011_Node000010"><a xlink:title=" ">
<path fill="none" stroke="#63b8ff" d="M532.68,-171.62C543.25,-171.62 554.39,-171.62 565.21,-171.62"/>
<polygon fill="#63b8ff" stroke="#63b8ff" points="564.89,-175.13 574.89,-171.62 564.89,-168.13 564.89,-175.13"/>
</a>
</g>
</g>
</g>
</svg>

<g id="navigator" transform="translate(0 0)" fill="#404254">
  <rect fill="#f2f5e9" fill-opacity="0.5" stroke="#606060" stroke-width=".5" x="0" y="0" width="60" height="60"/>
  <use id="zoomplus" xlink:href="#zoomPlus" x="17" y="9" onmousedown="handleZoom(evt,'in')"/>
  <use id="zoomminus" xlink:href="#zoomMin" x="42" y="9" onmousedown="handleZoom(evt,'out')"/>
  <use id="reset" xlink:href="#resetDef" x="30" y="36" onmousedown="handleReset()"/>
   <use id="arrowup" xlink:href="#arrowUp" x="0" y="0" onmousedown="handlePan(0,-1)"/>
  <use id="arrowright" xlink:href="#arrowRight" x="0" y="0" onmousedown="handlePan(1,0)"/>
  <use id="arrowdown" xlink:href="#arrowDown" x="0" y="0" onmousedown="handlePan(0,1)"/>
  <use id="arrowleft" xlink:href="#arrowLeft" x="0" y="0" onmousedown="handlePan(-1,0)"/>
</g>
<svg viewBox="0 0 15 15" width="100%" height="30px" preserveAspectRatio="xMaxYMin meet">
 <g id="arrow_out" transform="scale(0.3 0.3)">
  <a xlink:href="namespaceigl_acf4bce560c3b1d7048c3e7fca5737838_cgraph_org.svg" target="_base">
   <rect id="button" ry="5" rx="5" y="6" x="6" height="38" width="38"
        fill="#f2f5e9" fill-opacity="0.5" stroke="#606060" stroke-width="1.0"/>
   <path id="arrow"
     d="M 11.500037,31.436501 C 11.940474,20.09759 22.043105,11.32322 32.158766,21.979434 L 37.068811,17.246167 C 37.068811,17.246167 37.088388,32 37.088388,32 L 22.160133,31.978069 C 22.160133,31.978069 26.997745,27.140456 26.997745,27.140456 C 18.528582,18.264221 13.291696,25.230495 11.500037,31.436501 z"
     style="fill:#404040;"/>
  </a>
 </g>
</svg>

<style type='text/css'>
<![CDATA[
[data-mouse-over-selected='false'] { opacity: 0.7; }
[data-mouse-over-selected='true']  { opacity: 1.0; }
]]>
</style>
<script type="application/ecmascript"><![CDATA[
document.addEventListener('DOMContentLoaded', (event) => {
  highlightEdges();
  highlightAdjacentNodes();
});
]]></script>
</svg>
