<?xml version="1.0" encoding="UTF-8" standalone="no"?>
<!DOCTYPE svg PUBLIC "-//W3C//DTD SVG 1.1//EN"
 "http://www.w3.org/Graphics/SVG/1.1/DTD/svg11.dtd">
<!-- Generated by graphviz version 8.1.0 (20230707.0739)
 -->
<!-- Title: igl::triangle_triangle_adjacency Pages: 1 -->
<svg width="841pt" height="189pt"
 viewBox="0.00 0.00 841.25 189.25" xmlns="http://www.w3.org/2000/svg" xmlns:xlink="http://www.w3.org/1999/xlink">
<g id="graph0" class="graph" transform="scale(1 1) rotate(0) translate(4 185.25)">
<title>igl::triangle_triangle_adjacency</title>
<!-- Node1 -->
<g id="Node000001" class="node">
<title>Node1</title>
<g id="a_Node000001"><a xlink:title=" ">
<polygon fill="#999999" stroke="#666666" points="100,-60.88 0,-60.88 0,-30.38 100,-30.38 100,-60.88"/>
<text text-anchor="start" x="8" y="-47.38" font-family="Helvetica,sans-Serif" font-size="10.00">igl::triangle_triangle</text>
<text text-anchor="middle" x="50" y="-36.12" font-family="Helvetica,sans-Serif" font-size="10.00">_adjacency</text>
</a>
</g>
</g>
<!-- Node2 -->
<g id="Node000002" class="node">
<title>Node2</title>
<g id="a_Node000002"><a xlink:href="../../dc/d25/namespaceigl.html#a48ba3dac8f2da11935cd7e566f27e69d" target="_top" xlink:title=" ">
<polygon fill="white" stroke="#666666" points="223.25,-77.25 144.25,-77.25 144.25,-58 223.25,-58 223.25,-77.25"/>
<text text-anchor="middle" x="183.75" y="-63.75" font-family="Helvetica,sans-Serif" font-size="10.00">igl::parallel_for</text>
</a>
</g>
</g>
<!-- Node1&#45;&gt;Node2 -->
<g id="edge1_Node000001_Node000002" class="edge">
<title>Node1&#45;&gt;Node2</title>
<g id="a_edge1_Node000001_Node000002"><a xlink:title=" ">
<path fill="none" stroke="#63b8ff" d="M100.43,-53.88C111.28,-55.69 122.75,-57.61 133.59,-59.42"/>
<polygon fill="#63b8ff" stroke="#63b8ff" points="132.72,-62.99 143.16,-61.18 133.87,-56.08 132.72,-62.99"/>
</a>
</g>
</g>
<!-- Node16 -->
<g id="Node000016" class="node">
<title>Node16</title>
<g id="a_Node000016"><a xlink:href="../../dc/d25/namespaceigl.html#a3b24e42cc2442a0fd9f3ba3822801005" target="_top" xlink:title=" ">
<polygon fill="white" stroke="#666666" points="231.5,-39.88 136,-39.88 136,-9.37 231.5,-9.37 231.5,-39.88"/>
<text text-anchor="start" x="144" y="-26.38" font-family="Helvetica,sans-Serif" font-size="10.00">igl::vertex_triangle</text>
<text text-anchor="middle" x="183.75" y="-15.12" font-family="Helvetica,sans-Serif" font-size="10.00">_adjacency</text>
</a>
</g>
</g>
<!-- Node1&#45;&gt;Node16 -->
<g id="edge14_Node000001_Node000016" class="edge">
<title>Node1&#45;&gt;Node16</title>
<g id="a_edge14_Node000001_Node000016"><a xlink:title=" ">
<path fill="none" stroke="#63b8ff" d="M100.43,-37.75C108.46,-36.47 116.82,-35.13 125.02,-33.83"/>
<polygon fill="#63b8ff" stroke="#63b8ff" points="125.33,-37.16 134.66,-32.13 124.23,-30.25 125.33,-37.16"/>
</a>
</g>
</g>
<!-- Node3 -->
<g id="Node000003" class="node">
<title>Node3</title>
<g id="a_Node000003"><a xlink:href="../../df/d05/tpool_8h.html#a48d2e68725f7691f1422697f4c359827" target="_top" xlink:title=" ">
<polygon fill="white" stroke="#666666" points="330.75,-77.25 267.5,-77.25 267.5,-58 330.75,-58 330.75,-77.25"/>
<text text-anchor="middle" x="299.12" y="-63.75" font-family="Helvetica,sans-Serif" font-size="10.00">parallel_for</text>
</a>
</g>
</g>
<!-- Node2&#45;&gt;Node3 -->
<g id="edge2_Node000002_Node000003" class="edge">
<title>Node2&#45;&gt;Node3</title>
<g id="a_edge2_Node000002_Node000003"><a xlink:title=" ">
<path fill="none" stroke="#63b8ff" d="M223.45,-67.62C234.02,-67.62 245.52,-67.62 256.26,-67.62"/>
<polygon fill="#63b8ff" stroke="#63b8ff" points="256.1,-71.13 266.1,-67.62 256.1,-64.13 256.1,-71.13"/>
</a>
</g>
</g>
<!-- Node4 -->
<g id="Node000004" class="node">
<title>Node4</title>
<g id="a_Node000004"><a xlink:href="../../d8/dcc/namespacestd.html#af4bc231d061945eb59dbba98a117ece9" target="_top" xlink:title=" ">
<polygon fill="white" stroke="#666666" points="470.5,-142.25 398.25,-142.25 398.25,-123 470.5,-123 470.5,-142.25"/>
<text text-anchor="middle" x="434.38" y="-128.75" font-family="Helvetica,sans-Serif" font-size="10.00">std::distance</text>
</a>
</g>
</g>
<!-- Node3&#45;&gt;Node4 -->
<g id="edge3_Node000003_Node000004" class="edge">
<title>Node3&#45;&gt;Node4</title>
<g id="a_edge3_Node000003_Node000004"><a xlink:title=" ">
<path fill="none" stroke="#63b8ff" d="M312.15,-77.74C324.95,-88.07 346.16,-103.9 366.75,-113.62 373.33,-116.73 380.51,-119.43 387.66,-121.74"/>
<polygon fill="#63b8ff" stroke="#63b8ff" points="386.43,-125.32 397.01,-124.85 388.44,-118.62 386.43,-125.32"/>
</a>
</g>
</g>
<!-- Node9 -->
<g id="Node000009" class="node">
<title>Node9</title>
<g id="a_Node000009"><a xlink:href="../../d3/dce/classthread__pool.html#a731854a1dec41386e233847a55c74737" target="_top" xlink:title=" ">
<polygon fill="white" stroke="#666666" points="489.25,-104.88 379.5,-104.88 379.5,-74.38 489.25,-74.38 489.25,-104.88"/>
<text text-anchor="start" x="387.5" y="-91.38" font-family="Helvetica,sans-Serif" font-size="10.00">thread_pool::get_num</text>
<text text-anchor="middle" x="434.38" y="-80.12" font-family="Helvetica,sans-Serif" font-size="10.00">_threads</text>
</a>
</g>
</g>
<!-- Node3&#45;&gt;Node9 -->
<g id="edge8_Node000003_Node000009" class="edge">
<title>Node3&#45;&gt;Node9</title>
<g id="a_edge8_Node000003_Node000009"><a xlink:title=" ">
<path fill="none" stroke="#63b8ff" d="M331.03,-72.73C342.31,-74.59 355.54,-76.77 368.66,-78.94"/>
<polygon fill="#63b8ff" stroke="#63b8ff" points="367.69,-82.49 378.13,-80.67 368.83,-75.59 367.69,-82.49"/>
</a>
</g>
</g>
<!-- Node10 -->
<g id="Node000010" class="node">
<title>Node10</title>
<g id="a_Node000010"><a xlink:href="../../df/d05/tpool_8h.html#a024f3853091c417a440157aa77ce1b35" target="_top" xlink:title=" ">
<polygon fill="white" stroke="#666666" points="502,-56.25 366.75,-56.25 366.75,-37 502,-37 502,-56.25"/>
<text text-anchor="middle" x="434.38" y="-42.75" font-family="Helvetica,sans-Serif" font-size="10.00">get_scheduling_parameters</text>
</a>
</g>
</g>
<!-- Node3&#45;&gt;Node10 -->
<g id="edge9_Node000003_Node000010" class="edge">
<title>Node3&#45;&gt;Node10</title>
<g id="a_edge9_Node000003_Node000010"><a xlink:title=" ">
<path fill="none" stroke="#63b8ff" d="M331.03,-62.75C339.44,-61.43 348.93,-59.93 358.66,-58.4"/>
<polygon fill="#63b8ff" stroke="#63b8ff" points="358.93,-61.74 368.26,-56.73 357.84,-54.83 358.93,-61.74"/>
</a>
</g>
</g>
<!-- Node15 -->
<g id="Node000015" class="node">
<title>Node15</title>
<g id="a_Node000015"><a xlink:href="../../d3/dce/classthread__pool.html#a105646fee998f77c07a00d47966cd570" target="_top" xlink:title=" ">
<polygon fill="white" stroke="#666666" points="485.12,-19.25 383.62,-19.25 383.62,0 485.12,0 485.12,-19.25"/>
<text text-anchor="middle" x="434.38" y="-5.75" font-family="Helvetica,sans-Serif" font-size="10.00">thread_pool::submit</text>
</a>
</g>
</g>
<!-- Node3&#45;&gt;Node15 -->
<g id="edge13_Node000003_Node000015" class="edge">
<title>Node3&#45;&gt;Node15</title>
<g id="a_edge13_Node000003_Node000015"><a xlink:title=" ">
<path fill="none" stroke="#63b8ff" d="M314.32,-57.51C327.41,-48.58 347.63,-35.76 366.75,-27.62 370.61,-25.98 374.66,-24.45 378.77,-23.04"/>
<polygon fill="#63b8ff" stroke="#63b8ff" points="379.61,-26.12 388.07,-19.75 377.48,-19.46 379.61,-26.12"/>
</a>
</g>
</g>
<!-- Node5 -->
<g id="Node000005" class="node">
<title>Node5</title>
<g id="a_Node000005"><a xlink:href="../../d7/d63/classhmesh__t.html#a19678c4e4889230aa87ea59b4ec047c8" target="_top" xlink:title=" ">
<polygon fill="white" stroke="#666666" points="664.25,-161.88 538,-161.88 538,-131.38 664.25,-131.38 664.25,-161.88"/>
<text text-anchor="start" x="546" y="-148.38" font-family="Helvetica,sans-Serif" font-size="10.00">hmesh_t::count_removed</text>
<text text-anchor="middle" x="601.12" y="-137.12" font-family="Helvetica,sans-Serif" font-size="10.00">_elements_in_range</text>
</a>
</g>
</g>
<!-- Node4&#45;&gt;Node5 -->
<g id="edge4_Node000004_Node000005" class="edge">
<title>Node4&#45;&gt;Node5</title>
<g id="a_edge4_Node000004_Node000005"><a xlink:title=" ">
<path fill="none" stroke="#63b8ff" d="M470.72,-135.63C487.15,-137.02 507.34,-138.74 526.84,-140.4"/>
<polygon fill="#63b8ff" stroke="#63b8ff" points="526.32,-143.95 536.58,-141.31 526.91,-136.98 526.32,-143.95"/>
</a>
</g>
</g>
<!-- Node8 -->
<g id="Node000008" class="node">
<title>Node8</title>
<g id="a_Node000008"><a xlink:href="../../d8/d9b/classarray__iterator__t.html#ac73b2d71bcaaa8f9fb198b061a58803a" target="_top" xlink:title=" ">
<polygon fill="white" stroke="#666666" points="651.5,-112.88 550.75,-112.88 550.75,-82.38 651.5,-82.38 651.5,-112.88"/>
<text text-anchor="start" x="558.75" y="-99.38" font-family="Helvetica,sans-Serif" font-size="10.00">array_iterator_t::get</text>
<text text-anchor="middle" x="601.12" y="-88.12" font-family="Helvetica,sans-Serif" font-size="10.00">_mesh_ptr</text>
</a>
</g>
</g>
<!-- Node4&#45;&gt;Node8 -->
<g id="edge7_Node000004_Node000008" class="edge">
<title>Node4&#45;&gt;Node8</title>
<g id="a_edge7_Node000004_Node000008"><a xlink:title=" ">
<path fill="none" stroke="#63b8ff" d="M470.72,-125.12C490.89,-120.83 516.72,-115.34 539.98,-110.4"/>
<polygon fill="#63b8ff" stroke="#63b8ff" points="540.41,-113.68 549.47,-108.17 538.96,-106.83 540.41,-113.68"/>
</a>
</g>
</g>
<!-- Node6 -->
<g id="Node000006" class="node">
<title>Node6</title>
<g id="a_Node000006"><a xlink:href="../../d7/d63/classhmesh__t.html#a536da7c5d6be8a2f0be7a536c17a4644" target="_top" xlink:title=" ">
<polygon fill="white" stroke="#666666" points="833.25,-181.25 700.25,-181.25 700.25,-162 833.25,-162 833.25,-181.25"/>
<text text-anchor="middle" x="766.75" y="-167.75" font-family="Helvetica,sans-Serif" font-size="10.00">hmesh_t::elements_begin_</text>
</a>
</g>
</g>
<!-- Node5&#45;&gt;Node6 -->
<g id="edge5_Node000005_Node000006" class="edge">
<title>Node5&#45;&gt;Node6</title>
<g id="a_edge5_Node000005_Node000006"><a xlink:title=" ">
<path fill="none" stroke="#63b8ff" d="M664.45,-156.15C672.49,-157.38 680.79,-158.64 689.03,-159.9"/>
<polygon fill="#63b8ff" stroke="#63b8ff" points="688.37,-163.5 698.79,-161.55 689.43,-156.58 688.37,-163.5"/>
</a>
</g>
</g>
<!-- Node7 -->
<g id="Node000007" class="node">
<title>Node7</title>
<g id="a_Node000007"><a xlink:href="../../d7/d63/classhmesh__t.html#ad6d08c43b0dac5f8f4a933496ef81ca9" target="_top" xlink:title=" ">
<polygon fill="white" stroke="#666666" points="824.62,-143.88 708.88,-143.88 708.88,-113.38 824.62,-113.38 824.62,-143.88"/>
<text text-anchor="start" x="716.88" y="-130.38" font-family="Helvetica,sans-Serif" font-size="10.00">hmesh_t::get_removed</text>
<text text-anchor="middle" x="766.75" y="-119.12" font-family="Helvetica,sans-Serif" font-size="10.00">_elements</text>
</a>
</g>
</g>
<!-- Node5&#45;&gt;Node7 -->
<g id="edge6_Node000005_Node000007" class="edge">
<title>Node5&#45;&gt;Node7</title>
<g id="a_edge6_Node000005_Node000007"><a xlink:title=" ">
<path fill="none" stroke="#63b8ff" d="M664.45,-139.77C675.29,-138.58 686.61,-137.33 697.59,-136.12"/>
<polygon fill="#63b8ff" stroke="#63b8ff" points="697.88,-139.5 707.44,-134.93 697.11,-132.54 697.88,-139.5"/>
</a>
</g>
</g>
<!-- Node11 -->
<g id="Node000011" class="node">
<title>Node11</title>
<g id="a_Node000011"><a xlink:href="../../df/db1/math_8h.html#a3a54064875b1b215da4904e90278a089" target="_top" xlink:title=" ">
<polygon fill="white" stroke="#666666" points="622.25,-56.25 580,-56.25 580,-37 622.25,-37 622.25,-56.25"/>
<text text-anchor="middle" x="601.12" y="-42.75" font-family="Helvetica,sans-Serif" font-size="10.00">length</text>
</a>
</g>
</g>
<!-- Node10&#45;&gt;Node11 -->
<g id="edge10_Node000010_Node000011" class="edge">
<title>Node10&#45;&gt;Node11</title>
<g id="a_edge10_Node000010_Node000011"><a xlink:title=" ">
<path fill="none" stroke="#63b8ff" d="M502.39,-46.62C525.4,-46.62 550.08,-46.62 568.88,-46.62"/>
<polygon fill="#63b8ff" stroke="#63b8ff" points="568.76,-50.13 578.76,-46.62 568.76,-43.13 568.76,-50.13"/>
</a>
</g>
</g>
<!-- Node12 -->
<g id="Node000012" class="node">
<title>Node12</title>
<g id="a_Node000012"><a xlink:href="../../dd/d2d/math_8cpp.html#af4fb32373387854416da6c38850971b2" target="_top" xlink:title=" ">
<polygon fill="white" stroke="#666666" points="800.25,-78.25 733.25,-78.25 733.25,-59 800.25,-59 800.25,-78.25"/>
<text text-anchor="middle" x="766.75" y="-64.75" font-family="Helvetica,sans-Serif" font-size="10.00">square_root</text>
</a>
</g>
</g>
<!-- Node11&#45;&gt;Node12 -->
<g id="edge11_Node000011_Node000012" class="edge">
<title>Node11&#45;&gt;Node12</title>
<g id="a_edge11_Node000011_Node000012"><a xlink:title=" ">
<path fill="none" stroke="#63b8ff" d="M622.52,-49.37C647.38,-52.71 690.07,-58.45 722.39,-62.8"/>
<polygon fill="#63b8ff" stroke="#63b8ff" points="721.54,-66.35 731.92,-64.21 722.47,-59.41 721.54,-66.35"/>
</a>
</g>
</g>
<!-- Node13 -->
<g id="Node000013" class="node">
<title>Node13</title>
<g id="a_Node000013"><a xlink:href="../../df/db1/math_8h.html#a5ac9a8399d477c88e7ab2e9e406015c6" target="_top" xlink:title=" ">
<polygon fill="#fff0f0" stroke="red" points="807.75,-41.25 725.75,-41.25 725.75,-22 807.75,-22 807.75,-41.25"/>
<text text-anchor="middle" x="766.75" y="-27.75" font-family="Helvetica,sans-Serif" font-size="10.00">squared_length</text>
</a>
</g>
</g>
<!-- Node11&#45;&gt;Node13 -->
<g id="edge12_Node000011_Node000013" class="edge">
<title>Node11&#45;&gt;Node13</title>
<g id="a_edge12_Node000011_Node000013"><a xlink:title=" ">
<path fill="none" stroke="#63b8ff" d="M622.52,-44.76C645.43,-42.66 683.49,-39.17 714.62,-36.31"/>
<polygon fill="#63b8ff" stroke="#63b8ff" points="714.67,-39.73 724.31,-35.33 714.03,-32.76 714.67,-39.73"/>
</a>
</g>
</g>
</g>
</svg>
