<?xml version="1.0" encoding="UTF-8" standalone="no"?>
<!DOCTYPE svg PUBLIC "-//W3C//DTD SVG 1.1//EN"
 "http://www.w3.org/Graphics/SVG/1.1/DTD/svg11.dtd">
<!-- Generated by graphviz version 8.1.0 (20230707.0739)
 -->
<!-- Title: Slic3r::GUI::ColorPickerPopup::on_custom_clr_picker Pages: 1 -->
<!--zoomable 94 -->

<svg id="main" version="1.1" xmlns="http://www.w3.org/2000/svg" xmlns:xlink="http://www.w3.org/1999/xlink" xml:space="preserve" onload="init(evt)">
<style type="text/css"><![CDATA[
.node, .edge {opacity: 0.7;}
.node.selected, .edge.selected {opacity: 1;}
.edge:hover path { stroke: red; }
.edge:hover polygon { stroke: red; fill: red; }
]]></style>

<defs>
  <circle id="rim" cx="0" cy="0" r="7"/>
  <circle id="rim2" cx="0" cy="0" r="3.5"/>
  <g id="zoomPlus">
    <use xlink:href="#rim" fill="#404040"><set attributeName="fill" to="#808080" begin="zoomplus.mouseover" end="zoomplus.mouseout"/></use>
    <path d="M-4,0h8M0,-4v8" fill="none" stroke="white" stroke-width="1.5" pointer-events="none"/>
  </g>
  <g id="zoomMin">
    <use xlink:href="#rim" fill="#404040"><set attributeName="fill" to="#808080" begin="zoomminus.mouseover" end="zoomminus.mouseout"/></use>
    <path d="M-4,0h8" fill="none" stroke="white" stroke-width="1.5" pointer-events="none"/>
  </g>
  <g id="arrowUp" transform="translate(30 24)">
    <use xlink:href="#rim"/>
    <path pointer-events="none" fill="none" stroke="white" stroke-width="1.5" d="M0,-3.0v7 M-2.5,-0.5L0,-3.0L2.5,-0.5"/>
  </g>
  <g id="arrowRight" transform="rotate(90) translate(36 -43)">
    <use xlink:href="#rim"/>
    <path pointer-events="none" fill="none" stroke="white" stroke-width="1.5" d="M0,-3.0v7 M-2.5,-0.5L0,-3.0L2.5,-0.5"/>
  </g>
  <g id="arrowDown" transform="rotate(180) translate(-30 -48)">
    <use xlink:href="#rim"/>
    <path pointer-events="none" fill="none" stroke="white" stroke-width="1.5" d="M0,-3.0v7 M-2.5,-0.5L0,-3.0L2.5,-0.5"/>
  </g>
  <g id="arrowLeft" transform="rotate(270) translate(-36 17)">
    <use xlink:href="#rim"/>
    <path pointer-events="none" fill="none" stroke="white" stroke-width="1.5" d="M0,-3.0v7 M-2.5,-0.5L0,-3.0L2.5,-0.5"/>
  </g>
  <g id="resetDef">
    <use xlink:href="#rim2" fill="#404040"><set attributeName="fill" to="#808080" begin="reset.mouseover" end="reset.mouseout"/></use>
  </g>
</defs>
<script type="application/ecmascript">
var viewWidth = 774;
var viewHeight = 94;
var sectionId = 'dynsection-5';
</script>
<script type="application/ecmascript" xlink:href="../../svg.min.js"/>
<svg id="graph" class="graph">
<g id="viewport">
<title>Slic3r::GUI::ColorPickerPopup::on_custom_clr_picker</title>
<!-- Node1 -->
<g id="Node000001" class="node">
<title>Node1</title>
<g id="a_Node000001"><a xlink:title=" ">
<polygon fill="#999999" stroke="#666666" points="145,-63.88 0,-63.88 0,-33.38 145,-33.38 145,-63.88"/>
<text text-anchor="start" x="8" y="-50.38" font-family="Helvetica,sans-Serif" font-size="10.00">Slic3r::GUI::ColorPicker</text>
<text text-anchor="middle" x="72.5" y="-39.12" font-family="Helvetica,sans-Serif" font-size="10.00">Popup::on_custom_clr_picker</text>
</a>
</g>
</g>
<!-- Node2 -->
<g id="Node000002" class="node">
<title>Node2</title>
<g id="a_Node000002"><a xlink:href="../../d3/dc4/class_slic3r_1_1_g_u_i_1_1_color_picker_popup.html#a6acc8ea2b3862991a3996ff82b3a35cf" target="_top" xlink:title=" ">
<polygon fill="white" stroke="#666666" points="302.75,-85.88 181,-85.88 181,-55.38 302.75,-55.38 302.75,-85.88"/>
<text text-anchor="start" x="189" y="-72.38" font-family="Helvetica,sans-Serif" font-size="10.00">Slic3r::GUI::ColorPicker</text>
<text text-anchor="middle" x="241.88" y="-61.12" font-family="Helvetica,sans-Serif" font-size="10.00">Popup::set_def_colour</text>
</a>
</g>
</g>
<!-- Node1&#45;&gt;Node2 -->
<g id="edge1_Node000001_Node000002" class="edge">
<title>Node1&#45;&gt;Node2</title>
<g id="a_edge1_Node000001_Node000002"><a xlink:title=" ">
<path fill="none" stroke="#63b8ff" d="M145.45,-58.08C153.49,-59.14 161.68,-60.22 169.71,-61.27"/>
<polygon fill="#63b8ff" stroke="#63b8ff" points="169.17,-64.86 179.54,-62.69 170.08,-57.92 169.17,-64.86"/>
</a>
</g>
</g>
<!-- Node4 -->
<g id="Node000004" class="node">
<title>Node4</title>
<g id="a_Node000004"><a xlink:href="../../d2/dc2/class_static_box.html#ac08439f8af69085956a726372007da85" target="_top" xlink:title=" ">
<polygon fill="white" stroke="#666666" points="470.25,-42.88 338.75,-42.88 338.75,-12.37 470.25,-12.37 470.25,-42.88"/>
<text text-anchor="start" x="346.75" y="-29.38" font-family="Helvetica,sans-Serif" font-size="10.00">StaticBox::SetBackground</text>
<text text-anchor="middle" x="404.5" y="-18.12" font-family="Helvetica,sans-Serif" font-size="10.00">Color</text>
</a>
</g>
</g>
<!-- Node1&#45;&gt;Node4 -->
<g id="edge8_Node000001_Node000004" class="edge">
<title>Node1&#45;&gt;Node4</title>
<g id="a_edge8_Node000001_Node000004"><a xlink:title=" ">
<path fill="none" stroke="#63b8ff" d="M145.11,-44.07C199.04,-40.64 272.83,-35.94 327.75,-32.45"/>
<polygon fill="#63b8ff" stroke="#63b8ff" points="327.71,-35.89 337.47,-31.76 327.27,-28.91 327.71,-35.89"/>
</a>
</g>
</g>
<!-- Node3 -->
<g id="Node000003" class="node">
<title>Node3</title>
<g id="a_Node000003"><a xlink:href="../../d6/d4f/_block_methods_8h.html#ac820575ee62de615224f350c02085469" target="_top" xlink:title="This is the const version of col().">
<polygon fill="white" stroke="#666666" points="418.9,-80.25 390.1,-80.25 390.1,-61 418.9,-61 418.9,-80.25"/>
<text text-anchor="middle" x="404.5" y="-66.75" font-family="Helvetica,sans-Serif" font-size="10.00">col</text>
</a>
</g>
</g>
<!-- Node2&#45;&gt;Node3 -->
<g id="edge2_Node000002_Node000003" class="edge">
<title>Node2&#45;&gt;Node3</title>
<g id="a_edge2_Node000002_Node000003"><a xlink:title=" ">
<path fill="none" stroke="#63b8ff" d="M303.14,-70.62C329.36,-70.62 358.63,-70.62 378.76,-70.62"/>
<polygon fill="#63b8ff" stroke="#63b8ff" points="378.73,-74.13 388.73,-70.62 378.73,-67.13 378.73,-74.13"/>
</a>
</g>
</g>
<!-- Node2&#45;&gt;Node4 -->
<g id="edge3_Node000002_Node000004" class="edge">
<title>Node2&#45;&gt;Node4</title>
<g id="a_edge3_Node000002_Node000004"><a xlink:title=" ">
<path fill="none" stroke="#63b8ff" d="M301.32,-54.98C312.06,-52.1 323.36,-49.08 334.38,-46.13"/>
<polygon fill="#63b8ff" stroke="#63b8ff" points="335.08,-49.3 343.83,-43.33 333.27,-42.54 335.08,-49.3"/>
</a>
</g>
</g>
<!-- Node5 -->
<g id="Node000005" class="node">
<title>Node5</title>
<g id="a_Node000005"><a xlink:href="../../d1/d5e/class_state_handler.html#ace762c799b3654ff262ad754cfa9b90d" target="_top" xlink:title=" ">
<polygon fill="white" stroke="#666666" points="614.5,-42.88 506.25,-42.88 506.25,-12.37 614.5,-12.37 614.5,-42.88"/>
<text text-anchor="start" x="514.25" y="-29.38" font-family="Helvetica,sans-Serif" font-size="10.00">StateHandler::update</text>
<text text-anchor="middle" x="560.38" y="-18.12" font-family="Helvetica,sans-Serif" font-size="10.00">_binds</text>
</a>
</g>
</g>
<!-- Node4&#45;&gt;Node5 -->
<g id="edge4_Node000004_Node000005" class="edge">
<title>Node4&#45;&gt;Node5</title>
<g id="a_edge4_Node000004_Node000005"><a xlink:title=" ">
<path fill="none" stroke="#63b8ff" d="M470.31,-27.62C478.44,-27.62 486.76,-27.62 494.89,-27.62"/>
<polygon fill="#63b8ff" stroke="#63b8ff" points="494.81,-31.13 504.81,-27.62 494.81,-24.13 494.81,-31.13"/>
</a>
</g>
</g>
<!-- Node6 -->
<g id="Node000006" class="node">
<title>Node6</title>
<g id="a_Node000006"><a xlink:href="../../d1/d5e/class_state_handler.html#ade316c3b76838ce7e71350a31d47d546" target="_top" xlink:title=" ">
<polygon fill="white" stroke="#666666" points="766.25,-56.25 650.5,-56.25 650.5,-37 766.25,-37 766.25,-56.25"/>
<text text-anchor="middle" x="708.38" y="-42.75" font-family="Helvetica,sans-Serif" font-size="10.00">StateHandler::changed</text>
</a>
</g>
</g>
<!-- Node5&#45;&gt;Node6 -->
<g id="edge5_Node000005_Node000006" class="edge">
<title>Node5&#45;&gt;Node6</title>
<g id="a_edge5_Node000005_Node000006"><a xlink:title=" ">
<path fill="none" stroke="#63b8ff" d="M614.91,-34.59C622.95,-35.64 631.32,-36.73 639.61,-37.81"/>
<polygon fill="#63b8ff" stroke="#63b8ff" points="639.04,-41.39 649.41,-39.21 639.94,-34.45 639.04,-41.39"/>
</a>
</g>
</g>
<!-- Node7 -->
<g id="Node000007" class="node">
<title>Node7</title>
<g id="a_Node000007"><a xlink:href="../../d1/d5e/class_state_handler.html#a1506267f584834db7fd9ffac89437c00" target="_top" xlink:title=" ">
<polygon fill="white" stroke="#666666" points="761.38,-19.25 655.38,-19.25 655.38,0 761.38,0 761.38,-19.25"/>
<text text-anchor="middle" x="708.38" y="-5.75" font-family="Helvetica,sans-Serif" font-size="10.00">StateHandler::states</text>
</a>
</g>
</g>
<!-- Node5&#45;&gt;Node7 -->
<g id="edge7_Node000005_Node000007" class="edge">
<title>Node5&#45;&gt;Node7</title>
<g id="a_edge7_Node000005_Node000007"><a xlink:title=" ">
<path fill="none" stroke="#63b8ff" d="M614.91,-21.02C624.59,-19.83 634.77,-18.58 644.68,-17.35"/>
<polygon fill="#63b8ff" stroke="#63b8ff" points="644.81,-20.74 654.31,-16.04 643.95,-13.79 644.81,-20.74"/>
</a>
</g>
</g>
<!-- Node6&#45;&gt;Node6 -->
<g id="edge6_Node000006_Node000006" class="edge">
<title>Node6&#45;&gt;Node6</title>
<g id="a_edge6_Node000006_Node000006"><a xlink:title=" ">
<path fill="none" stroke="#63b8ff" d="M685.2,-56.54C674.64,-65.15 682.36,-74.25 708.38,-74.25 723.82,-74.25 732.82,-71.04 735.37,-66.63"/>
<polygon fill="#63b8ff" stroke="#63b8ff" points="738.36,-65.65 731.55,-57.54 731.82,-68.13 738.36,-65.65"/>
</a>
</g>
</g>
</g>
</svg>

<g id="navigator" transform="translate(0 0)" fill="#404254">
  <rect fill="#f2f5e9" fill-opacity="0.5" stroke="#606060" stroke-width=".5" x="0" y="0" width="60" height="60"/>
  <use id="zoomplus" xlink:href="#zoomPlus" x="17" y="9" onmousedown="handleZoom(evt,'in')"/>
  <use id="zoomminus" xlink:href="#zoomMin" x="42" y="9" onmousedown="handleZoom(evt,'out')"/>
  <use id="reset" xlink:href="#resetDef" x="30" y="36" onmousedown="handleReset()"/>
   <use id="arrowup" xlink:href="#arrowUp" x="0" y="0" onmousedown="handlePan(0,-1)"/>
  <use id="arrowright" xlink:href="#arrowRight" x="0" y="0" onmousedown="handlePan(1,0)"/>
  <use id="arrowdown" xlink:href="#arrowDown" x="0" y="0" onmousedown="handlePan(0,1)"/>
  <use id="arrowleft" xlink:href="#arrowLeft" x="0" y="0" onmousedown="handlePan(-1,0)"/>
</g>
<svg viewBox="0 0 15 15" width="100%" height="30px" preserveAspectRatio="xMaxYMin meet">
 <g id="arrow_out" transform="scale(0.3 0.3)">
  <a xlink:href="class_slic3r_1_1_g_u_i_1_1_color_picker_popup_a4090b06e2d18c1d2fd104d518d2de750_cgraph_org.svg" target="_base">
   <rect id="button" ry="5" rx="5" y="6" x="6" height="38" width="38"
        fill="#f2f5e9" fill-opacity="0.5" stroke="#606060" stroke-width="1.0"/>
   <path id="arrow"
     d="M 11.500037,31.436501 C 11.940474,20.09759 22.043105,11.32322 32.158766,21.979434 L 37.068811,17.246167 C 37.068811,17.246167 37.088388,32 37.088388,32 L 22.160133,31.978069 C 22.160133,31.978069 26.997745,27.140456 26.997745,27.140456 C 18.528582,18.264221 13.291696,25.230495 11.500037,31.436501 z"
     style="fill:#404040;"/>
  </a>
 </g>
</svg>

<style type='text/css'>
<![CDATA[
[data-mouse-over-selected='false'] { opacity: 0.7; }
[data-mouse-over-selected='true']  { opacity: 1.0; }
]]>
</style>
<script type="application/ecmascript"><![CDATA[
document.addEventListener('DOMContentLoaded', (event) => {
  highlightEdges();
  highlightAdjacentNodes();
});
]]></script>
</svg>
