<?xml version="1.0" encoding="UTF-8" standalone="no"?>
<!DOCTYPE svg PUBLIC "-//W3C//DTD SVG 1.1//EN"
 "http://www.w3.org/Graphics/SVG/1.1/DTD/svg11.dtd">
<!-- Generated by graphviz version 8.1.0 (20230707.0739)
 -->
<!-- Title: Slic3r::GUI::SelectMachineDialog::on_rename_enter Pages: 1 -->
<svg width="298pt" height="180pt"
 viewBox="0.00 0.00 298.00 179.88" xmlns="http://www.w3.org/2000/svg" xmlns:xlink="http://www.w3.org/1999/xlink">

<svg id="main" version="1.1" xmlns="http://www.w3.org/2000/svg" xmlns:xlink="http://www.w3.org/1999/xlink" xml:space="preserve" onload="init(evt)">
<style type="text/css"><![CDATA[
.node, .edge {opacity: 0.7;}
.node.selected, .edge.selected {opacity: 1;}
.edge:hover path { stroke: red; }
.edge:hover polygon { stroke: red; fill: red; }
]]></style>
<script type="application/ecmascript" xlink:href="../../svg.min.js"/>
<svg id="graph" class="graph">
<g id="graph0" class="graph" transform="scale(1 1) rotate(0) translate(4 175.88)">
<title>Slic3r::GUI::SelectMachineDialog::on_rename_enter</title>
<!-- Node1 -->
<g id="Node000001" class="node">
<title>Node1</title>
<g id="a_Node000001"><a xlink:title=" ">
<polygon fill="#999999" stroke="#666666" points="135.25,-94.5 0,-94.5 0,-64 135.25,-64 135.25,-94.5"/>
<text text-anchor="start" x="8" y="-81" font-family="Helvetica,sans-Serif" font-size="10.00">Slic3r::GUI::SelectMachine</text>
<text text-anchor="middle" x="67.62" y="-69.75" font-family="Helvetica,sans-Serif" font-size="10.00">Dialog::on_rename_enter</text>
</a>
</g>
</g>
<!-- Node2 -->
<g id="Node000002" class="node">
<title>Node2</title>
<g id="a_Node000002"><a xlink:href="../../d9/d45/namespace_slic3r_1_1_g_u_i.html#ac911e01665ff9c00414a1d5d0352de74" target="_top" xlink:title=" ">
<polygon fill="white" stroke="#666666" points="283.62,-153.88 177.62,-153.88 177.62,-134.62 283.62,-134.62 283.62,-153.88"/>
<text text-anchor="middle" x="230.62" y="-140.38" font-family="Helvetica,sans-Serif" font-size="10.00">Slic3r::GUI::from_u8</text>
</a>
</g>
</g>
<!-- Node1&#45;&gt;Node2 -->
<g id="edge1_Node000001_Node000002" class="edge">
<title>Node1&#45;&gt;Node2</title>
<g id="a_edge1_Node000001_Node000002"><a xlink:title=" ">
<path fill="none" stroke="#63b8ff" d="M101.06,-94.86C121.07,-104.22 147.39,-116.05 171.25,-125.25 176.09,-127.12 181.2,-128.96 186.31,-130.72"/>
<polygon fill="#63b8ff" stroke="#63b8ff" points="185.09,-134.34 195.68,-134.21 187.32,-127.71 185.09,-134.34"/>
</a>
</g>
</g>
<!-- Node3 -->
<g id="Node000003" class="node">
<title>Node3</title>
<g id="a_Node000003"><a xlink:href="../../d9/d24/class_slic3r_1_1_preset_collection.html#a629f0c3ad6504161fe8473e5a4d41938" target="_top" xlink:title=" ">
<polygon fill="white" stroke="#666666" points="290,-116.5 171.25,-116.5 171.25,-86 290,-86 290,-116.5"/>
<text text-anchor="start" x="179.25" y="-103" font-family="Helvetica,sans-Serif" font-size="10.00">Slic3r::PresetCollection</text>
<text text-anchor="middle" x="230.62" y="-91.75" font-family="Helvetica,sans-Serif" font-size="10.00">::get_suffix_modified</text>
</a>
</g>
</g>
<!-- Node1&#45;&gt;Node3 -->
<g id="edge3_Node000001_Node000003" class="edge">
<title>Node1&#45;&gt;Node3</title>
<g id="a_edge3_Node000001_Node000003"><a xlink:title=" ">
<path fill="none" stroke="#63b8ff" d="M135.5,-88.39C143.67,-89.51 152.04,-90.65 160.24,-91.77"/>
<polygon fill="#63b8ff" stroke="#63b8ff" points="159.53,-95.34 169.91,-93.23 160.48,-88.41 159.53,-95.34"/>
</a>
</g>
</g>
<!-- Node4 -->
<g id="Node000004" class="node">
<title>Node4</title>
<g id="a_Node000004"><a xlink:href="../../d1/d18/class_text_input.html#aec57ff1391b9941275400f121441742e" target="_top" xlink:title=" ">
<polygon fill="white" stroke="#666666" points="287,-67.88 174.25,-67.88 174.25,-48.62 287,-48.62 287,-67.88"/>
<text text-anchor="middle" x="230.62" y="-54.38" font-family="Helvetica,sans-Serif" font-size="10.00">TextInput::GetTextCtrl</text>
</a>
</g>
</g>
<!-- Node1&#45;&gt;Node4 -->
<g id="edge4_Node000001_Node000004" class="edge">
<title>Node1&#45;&gt;Node4</title>
<g id="a_edge4_Node000001_Node000004"><a xlink:title=" ">
<path fill="none" stroke="#63b8ff" d="M135.5,-70.53C144.7,-69.33 154.13,-68.1 163.31,-66.9"/>
<polygon fill="#63b8ff" stroke="#63b8ff" points="163.48,-70.28 172.94,-65.51 162.57,-63.34 163.48,-70.28"/>
</a>
</g>
</g>
<!-- Node5 -->
<g id="Node000005" class="node">
<title>Node5</title>
<g id="a_Node000005"><a xlink:href="../../d7/d9a/class_slic3r_1_1_g_u_i_1_1_d_p_i_aware.html#a80ad44dab63cbb16dd41df84ba9e1be9" target="_top" xlink:title=" ">
<polygon fill="white" stroke="#666666" points="288.5,-30.5 172.75,-30.5 172.75,0 288.5,0 288.5,-30.5"/>
<text text-anchor="start" x="180.75" y="-17" font-family="Helvetica,sans-Serif" font-size="10.00">Slic3r::GUI::DPIAware</text>
<text text-anchor="middle" x="230.62" y="-5.75" font-family="Helvetica,sans-Serif" font-size="10.00">::ShowModal</text>
</a>
</g>
</g>
<!-- Node1&#45;&gt;Node5 -->
<g id="edge5_Node000001_Node000005" class="edge">
<title>Node1&#45;&gt;Node5</title>
<g id="a_edge5_Node000001_Node000005"><a xlink:title=" ">
<path fill="none" stroke="#63b8ff" d="M108.01,-63.59C129.74,-54.95 156.94,-44.14 180.1,-34.94"/>
<polygon fill="#63b8ff" stroke="#63b8ff" points="181.09,-37.91 189.09,-30.97 178.5,-31.41 181.09,-37.91"/>
</a>
</g>
</g>
<!-- Node2&#45;&gt;Node2 -->
<g id="edge2_Node000002_Node000002" class="edge">
<title>Node2&#45;&gt;Node2</title>
<g id="a_edge2_Node000002_Node000002"><a xlink:title=" ">
<path fill="none" stroke="#63b8ff" d="M205.11,-154.16C193.47,-162.77 201.97,-171.88 230.62,-171.88 247.64,-171.88 257.55,-168.67 260.36,-164.26"/>
<polygon fill="#63b8ff" stroke="#63b8ff" points="263.22,-163.04 256.14,-155.16 256.76,-165.74 263.22,-163.04"/>
</a>
</g>
</g>
</g>
</svg>
</svg>

<style type='text/css'>
<![CDATA[
[data-mouse-over-selected='false'] { opacity: 0.7; }
[data-mouse-over-selected='true']  { opacity: 1.0; }
]]>
</style>
<script type="application/ecmascript"><![CDATA[
document.addEventListener('DOMContentLoaded', (event) => {
  highlightEdges();
  highlightAdjacentNodes();
});
]]></script>
</svg>
