<?xml version="1.0" encoding="UTF-8" standalone="no"?>
<!DOCTYPE svg PUBLIC "-//W3C//DTD SVG 1.1//EN"
 "http://www.w3.org/Graphics/SVG/1.1/DTD/svg11.dtd">
<!-- Generated by graphviz version 8.1.0 (20230707.0739)
 -->
<!-- Title: Slic3r::GUI::AuFolderPanel::msw_rescale Pages: 1 -->
<svg width="708pt" height="70pt"
 viewBox="0.00 0.00 708.25 69.88" xmlns="http://www.w3.org/2000/svg" xmlns:xlink="http://www.w3.org/1999/xlink">
<g id="graph0" class="graph" transform="scale(1 1) rotate(0) translate(4 65.88)">
<title>Slic3r::GUI::AuFolderPanel::msw_rescale</title>
<!-- Node1 -->
<g id="Node000001" class="node">
<title>Node1</title>
<g id="a_Node000001"><a xlink:title=" ">
<polygon fill="#999999" stroke="#666666" points="134.5,-48.5 0,-48.5 0,-18 134.5,-18 134.5,-48.5"/>
<text text-anchor="start" x="8" y="-35" font-family="Helvetica,sans-Serif" font-size="10.00">Slic3r::GUI::AuFolderPanel</text>
<text text-anchor="middle" x="67.25" y="-23.75" font-family="Helvetica,sans-Serif" font-size="10.00">::msw_rescale</text>
</a>
</g>
</g>
<!-- Node2 -->
<g id="Node000002" class="node">
<title>Node2</title>
<g id="a_Node000002"><a xlink:href="../../d4/d5b/class_slic3r_1_1_g_u_i_1_1_au_file.html#a6172f48853859513ca890523010b5558" target="_top" xlink:title=" ">
<polygon fill="white" stroke="#666666" points="269,-48.5 170.5,-48.5 170.5,-18 269,-18 269,-48.5"/>
<text text-anchor="start" x="178.5" y="-35" font-family="Helvetica,sans-Serif" font-size="10.00">Slic3r::GUI::AuFile</text>
<text text-anchor="middle" x="219.75" y="-23.75" font-family="Helvetica,sans-Serif" font-size="10.00">::msw_rescale</text>
</a>
</g>
</g>
<!-- Node1&#45;&gt;Node2 -->
<g id="edge1_Node000001_Node000002" class="edge">
<title>Node1&#45;&gt;Node2</title>
<g id="a_edge1_Node000001_Node000002"><a xlink:title=" ">
<path fill="none" stroke="#63b8ff" d="M134.7,-33.25C142.93,-33.25 151.3,-33.25 159.41,-33.25"/>
<polygon fill="#63b8ff" stroke="#63b8ff" points="159.28,-36.75 169.28,-33.25 159.28,-29.75 159.28,-36.75"/>
</a>
</g>
</g>
<!-- Node3 -->
<g id="Node000003" class="node">
<title>Node3</title>
<g id="a_Node000003"><a xlink:href="../../d5/db9/class_scalable_bitmap.html#abb4d44a4b22f3436cb7ab22fedb1febd" target="_top" xlink:title=" ">
<polygon fill="white" stroke="#666666" points="414,-61.88 305,-61.88 305,-42.62 414,-42.62 414,-61.88"/>
<text text-anchor="middle" x="359.5" y="-48.38" font-family="Helvetica,sans-Serif" font-size="10.00">ScalableBitmap::bmp</text>
</a>
</g>
</g>
<!-- Node2&#45;&gt;Node3 -->
<g id="edge2_Node000002_Node000003" class="edge">
<title>Node2&#45;&gt;Node3</title>
<g id="a_edge2_Node000002_Node000003"><a xlink:title=" ">
<path fill="none" stroke="#63b8ff" d="M269.32,-39.95C277.29,-41.05 285.66,-42.2 293.94,-43.35"/>
<polygon fill="#63b8ff" stroke="#63b8ff" points="293.36,-46.94 303.75,-44.84 294.32,-40 293.36,-46.94"/>
</a>
</g>
</g>
<!-- Node4 -->
<g id="Node000004" class="node">
<title>Node4</title>
<g id="a_Node000004"><a xlink:href="../../de/db8/namespace_slic3r.html#a21f22c9580247e3d688ae94c3f10fb16" target="_top" xlink:title=" ">
<polygon fill="white" stroke="#666666" points="410.62,-24.88 308.38,-24.88 308.38,-5.63 410.62,-5.63 410.62,-24.88"/>
<text text-anchor="middle" x="359.5" y="-11.38" font-family="Helvetica,sans-Serif" font-size="10.00">Slic3r::encode_path</text>
</a>
</g>
</g>
<!-- Node2&#45;&gt;Node4 -->
<g id="edge3_Node000002_Node000004" class="edge">
<title>Node2&#45;&gt;Node4</title>
<g id="a_edge3_Node000002_Node000004"><a xlink:title=" ">
<path fill="none" stroke="#63b8ff" d="M269.32,-26.9C278.33,-25.73 287.86,-24.48 297.21,-23.26"/>
<polygon fill="#63b8ff" stroke="#63b8ff" points="297.58,-26.61 307.04,-21.84 296.67,-19.67 297.58,-26.61"/>
</a>
</g>
</g>
<!-- Node5 -->
<g id="Node000005" class="node">
<title>Node5</title>
<g id="a_Node000005"><a xlink:href="../../dd/dd5/namespaceboost_1_1nowide.html#abdfef0fb660e3fb6bd08580c6898a595" target="_top" xlink:title="Convert NULL terminated UTF source string to NULL terminated output string of size at most output_siz...">
<polygon fill="white" stroke="#666666" points="558.25,-24.88 450,-24.88 450,-5.63 558.25,-5.63 558.25,-24.88"/>
<text text-anchor="middle" x="504.12" y="-11.38" font-family="Helvetica,sans-Serif" font-size="10.00">boost::nowide::widen</text>
</a>
</g>
</g>
<!-- Node4&#45;&gt;Node5 -->
<g id="edge4_Node000004_Node000005" class="edge">
<title>Node4&#45;&gt;Node5</title>
<g id="a_edge4_Node000004_Node000005"><a xlink:title=" ">
<path fill="none" stroke="#63b8ff" d="M410.78,-15.25C419.89,-15.25 429.5,-15.25 438.94,-15.25"/>
<polygon fill="#63b8ff" stroke="#63b8ff" points="438.91,-18.75 448.91,-15.25 438.91,-11.75 438.91,-18.75"/>
</a>
</g>
</g>
<!-- Node6 -->
<g id="Node000006" class="node">
<title>Node6</title>
<g id="a_Node000006"><a xlink:href="../../dd/dd5/namespaceboost_1_1nowide.html#abc7dfc4ebb4c462ec51da24506496b33" target="_top" xlink:title="Template function that converts a buffer of UTF sequences in range [source_begin,source_end) to the o...">
<polygon fill="white" stroke="#666666" points="700.25,-30.5 594.25,-30.5 594.25,0 700.25,0 700.25,-30.5"/>
<text text-anchor="start" x="602.25" y="-17" font-family="Helvetica,sans-Serif" font-size="10.00">boost::nowide::basic</text>
<text text-anchor="middle" x="647.25" y="-5.75" font-family="Helvetica,sans-Serif" font-size="10.00">_convert</text>
</a>
</g>
</g>
<!-- Node5&#45;&gt;Node6 -->
<g id="edge5_Node000005_Node000006" class="edge">
<title>Node5&#45;&gt;Node6</title>
<g id="a_edge5_Node000005_Node000006"><a xlink:title=" ">
<path fill="none" stroke="#63b8ff" d="M558.48,-15.25C566.42,-15.25 574.67,-15.25 582.8,-15.25"/>
<polygon fill="#63b8ff" stroke="#63b8ff" points="582.76,-18.75 592.76,-15.25 582.76,-11.75 582.76,-18.75"/>
</a>
</g>
</g>
</g>
</svg>
