<?xml version="1.0" encoding="UTF-8" standalone="no"?>
<!DOCTYPE svg PUBLIC "-//W3C//DTD SVG 1.1//EN"
 "http://www.w3.org/Graphics/SVG/1.1/DTD/svg11.dtd">
<!-- Generated by graphviz version 8.1.0 (20230707.0739)
 -->
<!-- Title: Slic3r::Arachne::PathsPointIndex::next Pages: 1 -->
<svg width="1008pt" height="147pt"
 viewBox="0.00 0.00 1008.25 146.50" xmlns="http://www.w3.org/2000/svg" xmlns:xlink="http://www.w3.org/1999/xlink">
<g id="graph0" class="graph" transform="scale(1 1) rotate(0) translate(4 142.5)">
<title>Slic3r::Arachne::PathsPointIndex::next</title>
<!-- Node1 -->
<g id="Node000001" class="node">
<title>Node1</title>
<g id="a_Node000001"><a xlink:title="move the iterator forward (and wrap around at the end)">
<polygon fill="#999999" stroke="#666666" points="1000.25,-89.5 863.5,-89.5 863.5,-59 1000.25,-59 1000.25,-89.5"/>
<text text-anchor="start" x="871.5" y="-76" font-family="Helvetica,sans-Serif" font-size="10.00">Slic3r::Arachne::PathsPoint</text>
<text text-anchor="middle" x="931.88" y="-64.75" font-family="Helvetica,sans-Serif" font-size="10.00">Index::next</text>
</a>
</g>
</g>
<!-- Node2 -->
<g id="Node000002" class="node">
<title>Node2</title>
<g id="a_Node000002"><a xlink:href="../../d9/d17/class_slic3r_1_1_arachne_1_1_skeletal_trapezoidation.html#a691297a7db1adc72819e373e491128d4" target="_top" xlink:title=" ">
<polygon fill="white" stroke="#666666" points="637.5,-138.5 446,-138.5 446,-108 637.5,-108 637.5,-138.5"/>
<text text-anchor="start" x="454" y="-125" font-family="Helvetica,sans-Serif" font-size="10.00">Slic3r::Arachne::Skeletal</text>
<text text-anchor="middle" x="541.75" y="-113.75" font-family="Helvetica,sans-Serif" font-size="10.00">Trapezoidation::computePointCellRange</text>
</a>
</g>
</g>
<!-- Node1&#45;&gt;Node2 -->
<g id="edge1_Node000001_Node000002" class="edge">
<title>Node1&#45;&gt;Node2</title>
<g id="a_edge1_Node000001_Node000002"><a xlink:title=" ">
<path fill="none" stroke="#63b8ff" d="M874.57,-92.97C859.44,-97.35 842.98,-101.52 827.5,-104.25 764.92,-115.28 693.58,-120.03 637.96,-122.02"/>
<polygon fill="#63b8ff" stroke="#63b8ff" points="875.22,-96.13 883.81,-89.93 873.22,-89.43 875.22,-96.13"/>
</a>
</g>
</g>
<!-- Node5 -->
<g id="Node000005" class="node">
<title>Node5</title>
<g id="a_Node000005"><a xlink:href="../../de/d5a/structboost_1_1polygon_1_1segment__traits_3_01_slic3r_1_1_arachne_1_1_polygons_segment_index_01_4.html#a50fbd17b045fdbc67bebb3575917d1e2" target="_top" xlink:title=" ">
<polygon fill="white" stroke="#666666" points="827.5,-95.12 673.5,-95.12 673.5,-53.38 827.5,-53.38 827.5,-95.12"/>
<text text-anchor="start" x="681.5" y="-81.62" font-family="Helvetica,sans-Serif" font-size="10.00">boost::polygon::segment</text>
<text text-anchor="start" x="681.5" y="-70.38" font-family="Helvetica,sans-Serif" font-size="10.00">_traits&lt; Slic3r::Arachne</text>
<text text-anchor="middle" x="750.5" y="-59.12" font-family="Helvetica,sans-Serif" font-size="10.00">::PolygonsSegmentIndex &gt;::get</text>
</a>
</g>
</g>
<!-- Node1&#45;&gt;Node5 -->
<g id="edge4_Node000001_Node000005" class="edge">
<title>Node1&#45;&gt;Node5</title>
<g id="a_edge4_Node000001_Node000005"><a xlink:title=" ">
<path fill="none" stroke="#63b8ff" d="M852.15,-74.25C844.07,-74.25 835.87,-74.25 827.82,-74.25"/>
<polygon fill="#63b8ff" stroke="#63b8ff" points="852.06,-77.75 862.06,-74.25 852.06,-70.75 852.06,-77.75"/>
</a>
</g>
</g>
<!-- Node6 -->
<g id="Node000006" class="node">
<title>Node6</title>
<g id="a_Node000006"><a xlink:href="../../d4/da3/class_slic3r_1_1_arachne_1_1_polygons_segment_index.html#a1d67992aa380198bea82ffb47b5ea278" target="_top" xlink:title=" ">
<polygon fill="white" stroke="#666666" points="815.12,-35.5 685.88,-35.5 685.88,-5 815.12,-5 815.12,-35.5"/>
<text text-anchor="start" x="693.88" y="-22" font-family="Helvetica,sans-Serif" font-size="10.00">Slic3r::Arachne::Polygons</text>
<text text-anchor="middle" x="750.5" y="-10.75" font-family="Helvetica,sans-Serif" font-size="10.00">SegmentIndex::to</text>
</a>
</g>
</g>
<!-- Node1&#45;&gt;Node6 -->
<g id="edge5_Node000001_Node000006" class="edge">
<title>Node1&#45;&gt;Node6</title>
<g id="a_edge5_Node000001_Node000006"><a xlink:title=" ">
<path fill="none" stroke="#63b8ff" d="M868.47,-55.46C847.29,-49.09 823.87,-42.04 803.58,-35.93"/>
<polygon fill="#63b8ff" stroke="#63b8ff" points="867.41,-59.1 877.99,-58.63 869.43,-52.4 867.41,-59.1"/>
</a>
</g>
</g>
<!-- Node3 -->
<g id="Node000003" class="node">
<title>Node3</title>
<g id="a_Node000003"><a xlink:href="../../d9/d17/class_slic3r_1_1_arachne_1_1_skeletal_trapezoidation.html#a3410b9a03fd08d89605d3e083ff37191" target="_top" xlink:title=" ">
<polygon fill="white" stroke="#666666" points="410,-84.5 220.75,-84.5 220.75,-54 410,-54 410,-84.5"/>
<text text-anchor="start" x="228.75" y="-71" font-family="Helvetica,sans-Serif" font-size="10.00">Slic3r::Arachne::Skeletal</text>
<text text-anchor="middle" x="315.38" y="-59.75" font-family="Helvetica,sans-Serif" font-size="10.00">Trapezoidation::constructFromPolygons</text>
</a>
</g>
</g>
<!-- Node2&#45;&gt;Node3 -->
<g id="edge2_Node000002_Node000003" class="edge">
<title>Node2&#45;&gt;Node3</title>
<g id="a_edge2_Node000002_Node000003"><a xlink:title=" ">
<path fill="none" stroke="#63b8ff" d="M464.98,-105.01C437.97,-98.51 407.8,-91.25 381.74,-84.98"/>
<polygon fill="#63b8ff" stroke="#63b8ff" points="464.01,-108.62 474.55,-107.56 465.65,-101.82 464.01,-108.62"/>
</a>
</g>
</g>
<!-- Node4 -->
<g id="Node000004" class="node">
<title>Node4</title>
<g id="a_Node000004"><a xlink:href="../../d9/d17/class_slic3r_1_1_arachne_1_1_skeletal_trapezoidation.html#a4d4d69e9ba0fbc2deed3d2dedb0efac9" target="_top" xlink:title=" ">
<polygon fill="white" stroke="#666666" points="184.75,-84.5 0,-84.5 0,-54 184.75,-54 184.75,-84.5"/>
<text text-anchor="start" x="8" y="-71" font-family="Helvetica,sans-Serif" font-size="10.00">Slic3r::Arachne::Skeletal</text>
<text text-anchor="middle" x="92.38" y="-59.75" font-family="Helvetica,sans-Serif" font-size="10.00">Trapezoidation::SkeletalTrapezoidation</text>
</a>
</g>
</g>
<!-- Node3&#45;&gt;Node4 -->
<g id="edge3_Node000003_Node000004" class="edge">
<title>Node3&#45;&gt;Node4</title>
<g id="a_edge3_Node000003_Node000004"><a xlink:title=" ">
<path fill="none" stroke="#63b8ff" d="M209.37,-69.25C201.3,-69.25 193.2,-69.25 185.22,-69.25"/>
<polygon fill="#63b8ff" stroke="#63b8ff" points="209.33,-72.75 219.33,-69.25 209.33,-65.75 209.33,-72.75"/>
</a>
</g>
</g>
<!-- Node7 -->
<g id="Node000007" class="node">
<title>Node7</title>
<g id="a_Node000007"><a xlink:href="../../d9/d17/class_slic3r_1_1_arachne_1_1_skeletal_trapezoidation.html#a41badcb918fc0d75743356fd1a8b235e" target="_top" xlink:title=" ">
<polygon fill="white" stroke="#666666" points="622.88,-90.12 460.62,-90.12 460.62,-48.38 622.88,-48.38 622.88,-90.12"/>
<text text-anchor="start" x="468.62" y="-76.62" font-family="Helvetica,sans-Serif" font-size="10.00">Slic3r::Arachne::Skeletal</text>
<text text-anchor="start" x="468.62" y="-65.38" font-family="Helvetica,sans-Serif" font-size="10.00">Trapezoidation::computeSegment</text>
<text text-anchor="middle" x="541.75" y="-54.12" font-family="Helvetica,sans-Serif" font-size="10.00">CellRange</text>
</a>
</g>
</g>
<!-- Node6&#45;&gt;Node7 -->
<g id="edge6_Node000006_Node000007" class="edge">
<title>Node6&#45;&gt;Node7</title>
<g id="a_edge6_Node000006_Node000007"><a xlink:title=" ">
<path fill="none" stroke="#63b8ff" d="M675.17,-37.87C658.31,-41.86 640.34,-46.12 623.24,-50.17"/>
<polygon fill="#63b8ff" stroke="#63b8ff" points="675.58,-41.13 684.5,-35.42 673.96,-34.32 675.58,-41.13"/>
</a>
</g>
</g>
<!-- Node8 -->
<g id="Node000008" class="node">
<title>Node8</title>
<g id="a_Node000008"><a xlink:href="../../dc/da5/namespace_slic3r_1_1_arachne.html#a33b0180d566c77b6ed60051979caf4cf" target="_top" xlink:title=" ">
<polygon fill="white" stroke="#666666" points="603.75,-30.5 479.75,-30.5 479.75,0 603.75,0 603.75,-30.5"/>
<text text-anchor="start" x="487.75" y="-17" font-family="Helvetica,sans-Serif" font-size="10.00">Slic3r::Arachne::detect</text>
<text text-anchor="middle" x="541.75" y="-5.75" font-family="Helvetica,sans-Serif" font-size="10.00">_missing_voronoi_vertex</text>
</a>
</g>
</g>
<!-- Node6&#45;&gt;Node8 -->
<g id="edge8_Node000006_Node000008" class="edge">
<title>Node6&#45;&gt;Node8</title>
<g id="a_edge8_Node000006_Node000008"><a xlink:title=" ">
<path fill="none" stroke="#63b8ff" d="M674.65,-18.44C651.44,-17.88 626.14,-17.27 603.97,-16.73"/>
<polygon fill="#63b8ff" stroke="#63b8ff" points="674.42,-21.96 684.5,-18.7 674.59,-14.96 674.42,-21.96"/>
</a>
</g>
</g>
<!-- Node7&#45;&gt;Node3 -->
<g id="edge7_Node000007_Node000003" class="edge">
<title>Node7&#45;&gt;Node3</title>
<g id="a_edge7_Node000007_Node000003"><a xlink:title=" ">
<path fill="none" stroke="#63b8ff" d="M449.61,-69.25C436.66,-69.25 423.33,-69.25 410.33,-69.25"/>
<polygon fill="#63b8ff" stroke="#63b8ff" points="449.38,-72.75 459.38,-69.25 449.38,-65.75 449.38,-72.75"/>
</a>
</g>
</g>
<!-- Node8&#45;&gt;Node3 -->
<g id="edge9_Node000008_Node000003" class="edge">
<title>Node8&#45;&gt;Node3</title>
<g id="a_edge9_Node000008_Node000003"><a xlink:title=" ">
<path fill="none" stroke="#63b8ff" d="M468.89,-32.54C440.84,-39.29 408.91,-46.98 381.54,-53.57"/>
<polygon fill="#63b8ff" stroke="#63b8ff" points="469.54,-35.75 478.44,-30.01 467.9,-28.94 469.54,-35.75"/>
</a>
</g>
</g>
</g>
</svg>
