<?xml version="1.0" encoding="UTF-8" standalone="no"?>
<!DOCTYPE svg PUBLIC "-//W3C//DTD SVG 1.1//EN"
 "http://www.w3.org/Graphics/SVG/1.1/DTD/svg11.dtd">
<!-- Generated by graphviz version 8.1.0 (20230707.0739)
 -->
<!-- Title: Slic3r::GUI::Plater::priv::layers_height_allowed Pages: 1 -->
<svg width="273pt" height="137pt"
 viewBox="0.00 0.00 272.50 136.50" xmlns="http://www.w3.org/2000/svg" xmlns:xlink="http://www.w3.org/1999/xlink">
<g id="graph0" class="graph" transform="scale(1 1) rotate(0) translate(4 132.5)">
<title>Slic3r::GUI::Plater::priv::layers_height_allowed</title>
<!-- Node1 -->
<g id="Node000001" class="node">
<title>Node1</title>
<g id="a_Node000001"><a xlink:title=" ">
<polygon fill="#999999" stroke="#666666" points="101.5,-85.12 0,-85.12 0,-43.38 101.5,-43.38 101.5,-85.12"/>
<text text-anchor="start" x="8" y="-71.62" font-family="Helvetica,sans-Serif" font-size="10.00">Slic3r::GUI::Plater</text>
<text text-anchor="start" x="8" y="-60.38" font-family="Helvetica,sans-Serif" font-size="10.00">::priv::layers_height</text>
<text text-anchor="middle" x="50.75" y="-49.12" font-family="Helvetica,sans-Serif" font-size="10.00">_allowed</text>
</a>
</g>
</g>
<!-- Node2 -->
<g id="Node000002" class="node">
<title>Node2</title>
<g id="a_Node000002"><a xlink:href="../../d7/d21/class_slic3r_1_1_g_u_i_1_1_plater.html#a2aacb8112988e90e18998253b09215a0" target="_top" xlink:title=" ">
<polygon fill="white" stroke="#666666" points="264.5,-128.5 137.5,-128.5 137.5,-98 264.5,-98 264.5,-128.5"/>
<text text-anchor="start" x="145.5" y="-115" font-family="Helvetica,sans-Serif" font-size="10.00">Slic3r::GUI::Plater</text>
<text text-anchor="middle" x="201" y="-103.75" font-family="Helvetica,sans-Serif" font-size="10.00">::get_selected_object_idx</text>
</a>
</g>
</g>
<!-- Node1&#45;&gt;Node2 -->
<g id="edge1_Node000001_Node000002" class="edge">
<title>Node1&#45;&gt;Node2</title>
<g id="a_edge1_Node000001_Node000002"><a xlink:title=" ">
<path fill="none" stroke="#63b8ff" d="M101.94,-80.84C114.8,-85.09 128.73,-89.7 141.95,-94.06"/>
<polygon fill="#63b8ff" stroke="#63b8ff" points="140.77,-97.69 151.37,-97.51 142.97,-91.04 140.77,-97.69"/>
</a>
</g>
</g>
<!-- Node3 -->
<g id="Node000003" class="node">
<title>Node3</title>
<g id="a_Node000003"><a xlink:href="../../d7/d21/class_slic3r_1_1_g_u_i_1_1_plater.html#a4ef936ce5b2dc2fb6493f38d52d8efe6" target="_top" xlink:title=" ">
<polygon fill="white" stroke="#666666" points="249.12,-79.5 152.88,-79.5 152.88,-49 249.12,-49 249.12,-79.5"/>
<text text-anchor="start" x="160.88" y="-66" font-family="Helvetica,sans-Serif" font-size="10.00">Slic3r::GUI::Plater</text>
<text text-anchor="middle" x="201" y="-54.75" font-family="Helvetica,sans-Serif" font-size="10.00">::model</text>
</a>
</g>
</g>
<!-- Node1&#45;&gt;Node3 -->
<g id="edge2_Node000001_Node000003" class="edge">
<title>Node1&#45;&gt;Node3</title>
<g id="a_edge2_Node000001_Node000003"><a xlink:title=" ">
<path fill="none" stroke="#63b8ff" d="M101.94,-64.25C114.8,-64.25 128.74,-64.25 141.97,-64.25"/>
<polygon fill="#63b8ff" stroke="#63b8ff" points="141.86,-67.75 151.86,-64.25 141.86,-60.75 141.86,-67.75"/>
</a>
</g>
</g>
<!-- Node4 -->
<g id="Node000004" class="node">
<title>Node4</title>
<g id="a_Node000004"><a xlink:href="../../d7/d21/class_slic3r_1_1_g_u_i_1_1_plater.html#a883beafeb9c86780872296a3f9285b2b" target="_top" xlink:title=" ">
<polygon fill="white" stroke="#666666" points="251.75,-30.5 150.25,-30.5 150.25,0 251.75,0 251.75,-30.5"/>
<text text-anchor="start" x="158.25" y="-17" font-family="Helvetica,sans-Serif" font-size="10.00">Slic3r::GUI::Plater</text>
<text text-anchor="middle" x="201" y="-5.75" font-family="Helvetica,sans-Serif" font-size="10.00">::printer_technology</text>
</a>
</g>
</g>
<!-- Node1&#45;&gt;Node4 -->
<g id="edge3_Node000001_Node000004" class="edge">
<title>Node1&#45;&gt;Node4</title>
<g id="a_edge3_Node000001_Node000004"><a xlink:title=" ">
<path fill="none" stroke="#63b8ff" d="M101.94,-47.66C114.8,-43.41 128.73,-38.8 141.95,-34.44"/>
<polygon fill="#63b8ff" stroke="#63b8ff" points="142.97,-37.46 151.37,-30.99 140.77,-30.81 142.97,-37.46"/>
</a>
</g>
</g>
</g>
</svg>
