<?xml version="1.0" encoding="UTF-8" standalone="no"?>
<!DOCTYPE svg PUBLIC "-//W3C//DTD SVG 1.1//EN"
 "http://www.w3.org/Graphics/SVG/1.1/DTD/svg11.dtd">
<!-- Generated by graphviz version 8.1.0 (20230707.0739)
 -->
<!-- Title: qh_settemp Pages: 1 -->
<svg width="634pt" height="299pt"
 viewBox="0.00 0.00 634.25 299.25" xmlns="http://www.w3.org/2000/svg" xmlns:xlink="http://www.w3.org/1999/xlink">
<g id="graph0" class="graph" transform="scale(1 1) rotate(0) translate(4 295.25)">
<title>qh_settemp</title>
<!-- Node1 -->
<g id="Node000001" class="node">
<title>Node1</title>
<g id="a_Node000001"><a xlink:title=" ">
<polygon fill="#999999" stroke="#666666" points="67,-112.25 0,-112.25 0,-93 67,-93 67,-112.25"/>
<text text-anchor="middle" x="33.5" y="-98.75" font-family="Helvetica,sans-Serif" font-size="10.00">qh_settemp</text>
</a>
</g>
</g>
<!-- Node2 -->
<g id="Node000002" class="node">
<title>Node2</title>
<g id="a_Node000002"><a xlink:href="../../d3/d6c/testqset__r_8c.html#ac88055abf2ae6eca1a0f2ad13fbcad58" target="_top" xlink:title=" ">
<polygon fill="white" stroke="#666666" points="380.88,-169.25 324.38,-169.25 324.38,-150 380.88,-150 380.88,-169.25"/>
<text text-anchor="middle" x="352.62" y="-155.75" font-family="Helvetica,sans-Serif" font-size="10.00">qh_fprintf</text>
</a>
</g>
</g>
<!-- Node1&#45;&gt;Node2 -->
<g id="edge1_Node000001_Node000002" class="edge">
<title>Node1&#45;&gt;Node2</title>
<g id="a_edge1_Node000001_Node000002"><a xlink:title=" ">
<path fill="none" stroke="#63b8ff" d="M67.17,-106.23C115.22,-111.85 207.63,-123.8 285,-140.62 294.29,-142.65 304.2,-145.23 313.46,-147.84"/>
<polygon fill="#63b8ff" stroke="#63b8ff" points="312.37,-151.46 322.95,-150.88 314.32,-144.73 312.37,-151.46"/>
</a>
</g>
</g>
<!-- Node8 -->
<g id="Node000008" class="node">
<title>Node8</title>
<g id="a_Node000008"><a xlink:href="../../d9/d3c/qset__r_8c.html#a7a98d3a95e9b04334dbb8cdfba7dcc9f" target="_top" xlink:title=" ">
<polygon fill="white" stroke="#666666" points="179.75,-93.25 103,-93.25 103,-74 179.75,-74 179.75,-93.25"/>
<text text-anchor="middle" x="141.38" y="-79.75" font-family="Helvetica,sans-Serif" font-size="10.00">qh_setappend</text>
</a>
</g>
</g>
<!-- Node1&#45;&gt;Node8 -->
<g id="edge8_Node000001_Node000008" class="edge">
<title>Node1&#45;&gt;Node8</title>
<g id="a_edge8_Node000001_Node000008"><a xlink:title=" ">
<path fill="none" stroke="#63b8ff" d="M67.42,-96.72C75.19,-95.32 83.63,-93.81 91.92,-92.32"/>
<polygon fill="#63b8ff" stroke="#63b8ff" points="92.44,-95.6 101.67,-90.39 91.2,-88.71 92.44,-95.6"/>
</a>
</g>
</g>
<!-- Node14 -->
<g id="Node000014" class="node">
<title>Node14</title>
<g id="a_Node000014"><a xlink:href="../../d9/d3c/qset__r_8c.html#a890f35fac40b26bb09f5a601e0d80bfd" target="_top" xlink:title=" ">
<polygon fill="white" stroke="#666666" points="384.25,-56.25 321,-56.25 321,-37 384.25,-37 384.25,-56.25"/>
<text text-anchor="middle" x="352.62" y="-42.75" font-family="Helvetica,sans-Serif" font-size="10.00">qh_setnew</text>
</a>
</g>
</g>
<!-- Node1&#45;&gt;Node14 -->
<g id="edge19_Node000001_Node000014" class="edge">
<title>Node1&#45;&gt;Node14</title>
<g id="a_edge19_Node000001_Node000014"><a xlink:title=" ">
<path fill="none" stroke="#63b8ff" d="M48.38,-92.53C61.68,-83.47 82.67,-70.68 103,-64.62 173.37,-43.67 259.68,-42.59 309.88,-44.24"/>
<polygon fill="#63b8ff" stroke="#63b8ff" points="309.5,-47.76 319.63,-44.65 309.77,-40.77 309.5,-47.76"/>
</a>
</g>
</g>
<!-- Node18 -->
<g id="Node000018" class="node">
<title>Node18</title>
<g id="a_Node000018"><a xlink:href="../../d9/d3c/qset__r_8c.html#a3e61fa5caaf15e4054f0414de10eb038" target="_top" xlink:title=" ">
<polygon fill="white" stroke="#666666" points="173,-188.25 109.75,-188.25 109.75,-169 173,-169 173,-188.25"/>
<text text-anchor="middle" x="141.38" y="-174.75" font-family="Helvetica,sans-Serif" font-size="10.00">qh_setsize</text>
</a>
</g>
</g>
<!-- Node1&#45;&gt;Node18 -->
<g id="edge20_Node000001_Node000018" class="edge">
<title>Node1&#45;&gt;Node18</title>
<g id="a_edge20_Node000001_Node000018"><a xlink:title=" ">
<path fill="none" stroke="#63b8ff" d="M48.34,-112.56C65.94,-125.19 96.55,-147.17 117.61,-162.28"/>
<polygon fill="#63b8ff" stroke="#63b8ff" points="115.37,-165.7 125.53,-168.69 119.45,-160.01 115.37,-165.7"/>
</a>
</g>
</g>
<!-- Node3 -->
<g id="Node000003" class="node">
<title>Node3</title>
<g id="a_Node000003"><a xlink:href="../../d1/d16/classorg_qhull_1_1_qhull_qh.html#a215a666bf7f82971fd399cddd7b806c8" target="_top" xlink:title=" ">
<polygon fill="white" stroke="#666666" points="530,-216.88 420.25,-216.88 420.25,-186.38 530,-186.38 530,-216.88"/>
<text text-anchor="start" x="428.25" y="-203.38" font-family="Helvetica,sans-Serif" font-size="10.00">orgQhull::QhullQh::</text>
<text text-anchor="middle" x="475.12" y="-192.12" font-family="Helvetica,sans-Serif" font-size="10.00">appendQhullMessage</text>
</a>
</g>
</g>
<!-- Node2&#45;&gt;Node3 -->
<g id="edge2_Node000002_Node000003" class="edge">
<title>Node2&#45;&gt;Node3</title>
<g id="a_edge2_Node000002_Node000003"><a xlink:title=" ">
<path fill="none" stroke="#63b8ff" d="M381.27,-169.26C392.45,-173.16 405.78,-177.81 418.81,-182.34"/>
<polygon fill="#63b8ff" stroke="#63b8ff" points="417.54,-185.96 428.13,-185.94 419.84,-179.35 417.54,-185.96"/>
</a>
</g>
</g>
<!-- Node4 -->
<g id="Node000004" class="node">
<title>Node4</title>
<g id="a_Node000004"><a xlink:href="../../d3/d6c/testqset__r_8c.html#a6324e256d5c4271bb3c82991f952c884" target="_top" xlink:title=" ">
<polygon fill="white" stroke="#666666" points="504.5,-254.25 445.75,-254.25 445.75,-235 504.5,-235 504.5,-254.25"/>
<text text-anchor="middle" x="475.12" y="-240.75" font-family="Helvetica,sans-Serif" font-size="10.00">qh_errexit</text>
</a>
</g>
</g>
<!-- Node2&#45;&gt;Node4 -->
<g id="edge3_Node000002_Node000004" class="edge">
<title>Node2&#45;&gt;Node4</title>
<g id="a_edge3_Node000002_Node000004"><a xlink:title=" ">
<path fill="none" stroke="#63b8ff" d="M361.19,-169.51C372.57,-183.75 395.42,-210.06 420.25,-225.62 424.91,-228.55 430.08,-231.09 435.32,-233.29"/>
<polygon fill="#63b8ff" stroke="#63b8ff" points="433.77,-236.83 444.36,-237.09 436.25,-230.28 433.77,-236.83"/>
</a>
</g>
</g>
<!-- Node5 -->
<g id="Node000005" class="node">
<title>Node5</title>
<g id="a_Node000005"><a xlink:href="../../d7/d2a/_qhull__test_8cpp.html#a0b10c9df60e12aa9251829c10f31f80b" target="_top" xlink:title=" ">
<polygon fill="white" stroke="#666666" points="619.88,-254.25 572.38,-254.25 572.38,-235 619.88,-235 619.88,-254.25"/>
<text text-anchor="middle" x="596.12" y="-240.75" font-family="Helvetica,sans-Serif" font-size="10.00">qh_exit</text>
</a>
</g>
</g>
<!-- Node2&#45;&gt;Node5 -->
<g id="edge6_Node000002_Node000005" class="edge">
<title>Node2&#45;&gt;Node5</title>
<g id="a_edge6_Node000002_Node000005"><a xlink:title=" ">
<path fill="none" stroke="#63b8ff" d="M381.17,-156.82C417.27,-154.37 481.65,-154.23 530,-177.62 552.13,-188.33 570.88,-209.84 582.5,-225.61"/>
<polygon fill="#63b8ff" stroke="#63b8ff" points="580.16,-227.37 588.78,-233.54 585.89,-223.35 580.16,-227.37"/>
</a>
</g>
</g>
<!-- Node7 -->
<g id="Node000007" class="node">
<title>Node7</title>
<g id="a_Node000007"><a xlink:href="../../d7/d2a/_qhull__test_8cpp.html#a7aff5fe780d18ea82c430cee6e90de6c" target="_top" xlink:title=" ">
<polygon fill="white" stroke="#666666" points="518.38,-130.25 431.88,-130.25 431.88,-111 518.38,-111 518.38,-130.25"/>
<text text-anchor="middle" x="475.12" y="-116.75" font-family="Helvetica,sans-Serif" font-size="10.00">qh_fprintf_stderr</text>
</a>
</g>
</g>
<!-- Node2&#45;&gt;Node7 -->
<g id="edge7_Node000002_Node000007" class="edge">
<title>Node2&#45;&gt;Node7</title>
<g id="a_edge7_Node000002_Node000007"><a xlink:title=" ">
<path fill="none" stroke="#63b8ff" d="M381.27,-150.68C396.58,-145.72 415.9,-139.47 432.95,-133.95"/>
<polygon fill="#63b8ff" stroke="#63b8ff" points="433.78,-137.04 442.22,-130.63 431.62,-130.38 433.78,-137.04"/>
</a>
</g>
</g>
<!-- Node4&#45;&gt;Node5 -->
<g id="edge4_Node000004_Node000005" class="edge">
<title>Node4&#45;&gt;Node5</title>
<g id="a_edge4_Node000004_Node000005"><a xlink:title=" ">
<path fill="none" stroke="#63b8ff" d="M504.93,-244.62C521.94,-244.62 543.56,-244.62 561.36,-244.62"/>
<polygon fill="#63b8ff" stroke="#63b8ff" points="561.15,-248.13 571.15,-244.62 561.15,-241.13 561.15,-248.13"/>
</a>
</g>
</g>
<!-- Node6 -->
<g id="Node000006" class="node">
<title>Node6</title>
<g id="a_Node000006"><a xlink:href="../../d6/d95/glu-libtess_8h.html#a4292190e3f1f6b373a760c7d9316ad3c" target="_top" xlink:title=" ">
<polygon fill="white" stroke="#666666" points="613.12,-291.25 579.12,-291.25 579.12,-272 613.12,-272 613.12,-291.25"/>
<text text-anchor="middle" x="596.12" y="-277.75" font-family="Helvetica,sans-Serif" font-size="10.00">void</text>
</a>
</g>
</g>
<!-- Node4&#45;&gt;Node6 -->
<g id="edge5_Node000004_Node000006" class="edge">
<title>Node4&#45;&gt;Node6</title>
<g id="a_edge5_Node000004_Node000006"><a xlink:title=" ">
<path fill="none" stroke="#63b8ff" d="M504.93,-253.58C524.25,-259.59 549.52,-267.44 568.39,-273.31"/>
<polygon fill="#63b8ff" stroke="#63b8ff" points="567.08,-276.88 577.67,-276.51 569.16,-270.2 567.08,-276.88"/>
</a>
</g>
</g>
<!-- Node9 -->
<g id="Node000009" class="node">
<title>Node9</title>
<g id="a_Node000009"><a xlink:href="../../d9/d3c/qset__r_8c.html#a0bf807be73ec00823d6d85e87a94b3c0" target="_top" xlink:title=" ">
<polygon fill="white" stroke="#666666" points="285,-93.25 215.75,-93.25 215.75,-74 285,-74 285,-93.25"/>
<text text-anchor="middle" x="250.38" y="-79.75" font-family="Helvetica,sans-Serif" font-size="10.00">qh_setlarger</text>
</a>
</g>
</g>
<!-- Node8&#45;&gt;Node9 -->
<g id="edge9_Node000008_Node000009" class="edge">
<title>Node8&#45;&gt;Node9</title>
<g id="a_edge9_Node000008_Node000009"><a xlink:title=" ">
<path fill="none" stroke="#63b8ff" d="M180.1,-83.62C188.04,-83.62 196.49,-83.62 204.66,-83.62"/>
<polygon fill="#63b8ff" stroke="#63b8ff" points="204.56,-87.13 214.56,-83.62 204.56,-80.13 204.56,-87.13"/>
</a>
</g>
</g>
<!-- Node10 -->
<g id="Node000010" class="node">
<title>Node10</title>
<g id="a_Node000010"><a xlink:href="../../d9/d3c/qset__r_8c.html#ab1c4c612f1a4ac6dbca1d91a083a63d1" target="_top" xlink:title=" ">
<polygon fill="white" stroke="#666666" points="383.5,-93.25 321.75,-93.25 321.75,-74 383.5,-74 383.5,-93.25"/>
<text text-anchor="middle" x="352.62" y="-79.75" font-family="Helvetica,sans-Serif" font-size="10.00">qh_setfree</text>
</a>
</g>
</g>
<!-- Node9&#45;&gt;Node10 -->
<g id="edge10_Node000009_Node000010" class="edge">
<title>Node9&#45;&gt;Node10</title>
<g id="a_edge10_Node000009_Node000010"><a xlink:title=" ">
<path fill="none" stroke="#63b8ff" d="M285.32,-83.62C293.45,-83.62 302.22,-83.62 310.64,-83.62"/>
<polygon fill="#63b8ff" stroke="#63b8ff" points="310.42,-87.13 320.42,-83.62 310.42,-80.13 310.42,-87.13"/>
</a>
</g>
</g>
<!-- Node9&#45;&gt;Node14 -->
<g id="edge14_Node000009_Node000014" class="edge">
<title>Node9&#45;&gt;Node14</title>
<g id="a_edge14_Node000009_Node000014"><a xlink:title=" ">
<path fill="none" stroke="#63b8ff" d="M278.77,-73.51C289.71,-69.48 302.48,-64.76 314.25,-60.42"/>
<polygon fill="#63b8ff" stroke="#63b8ff" points="315.09,-63.47 323.26,-56.72 312.67,-56.9 315.09,-63.47"/>
</a>
</g>
</g>
<!-- Node11 -->
<g id="Node000011" class="node">
<title>Node11</title>
<g id="a_Node000011"><a xlink:href="../../d3/d8f/mem_8c.html#a788af5714481daaa5bc9e96812794e27" target="_top" xlink:title=" ">
<polygon fill="white" stroke="#666666" points="510.12,-93.25 440.12,-93.25 440.12,-74 510.12,-74 510.12,-93.25"/>
<text text-anchor="middle" x="475.12" y="-79.75" font-family="Helvetica,sans-Serif" font-size="10.00">qh_memfree</text>
</a>
</g>
</g>
<!-- Node10&#45;&gt;Node11 -->
<g id="edge11_Node000010_Node000011" class="edge">
<title>Node10&#45;&gt;Node11</title>
<g id="a_edge11_Node000010_Node000011"><a xlink:title=" ">
<path fill="none" stroke="#63b8ff" d="M383.72,-83.62C397.41,-83.62 413.89,-83.62 429.02,-83.62"/>
<polygon fill="#63b8ff" stroke="#63b8ff" points="428.73,-87.13 438.73,-83.62 428.73,-80.13 428.73,-87.13"/>
</a>
</g>
</g>
<!-- Node12 -->
<g id="Node000012" class="node">
<title>Node12</title>
<g id="a_Node000012"><a xlink:href="../../d6/df4/testqset_8c.html#aca4b59cdb8152b580cb9d258a849288d" target="_top" xlink:title=" ">
<polygon fill="white" stroke="#666666" points="624.38,-93.25 567.88,-93.25 567.88,-74 624.38,-74 624.38,-93.25"/>
<text text-anchor="middle" x="596.12" y="-79.75" font-family="Helvetica,sans-Serif" font-size="10.00">qh_fprintf</text>
</a>
</g>
</g>
<!-- Node11&#45;&gt;Node12 -->
<g id="edge12_Node000011_Node000012" class="edge">
<title>Node11&#45;&gt;Node12</title>
<g id="a_edge12_Node000011_Node000012"><a xlink:title=" ">
<path fill="none" stroke="#63b8ff" d="M510.54,-83.62C524.99,-83.62 541.84,-83.62 556.68,-83.62"/>
<polygon fill="#63b8ff" stroke="#63b8ff" points="556.57,-87.13 566.57,-83.62 556.57,-80.13 556.57,-87.13"/>
</a>
</g>
</g>
<!-- Node13 -->
<g id="Node000013" class="node">
<title>Node13</title>
<g id="a_Node000013"><a xlink:href="../../d7/d2a/_qhull__test_8cpp.html#a5b5f2d4219190f044de3f281f4ea4f7c" target="_top" xlink:title=" ">
<polygon fill="white" stroke="#666666" points="620.25,-130.25 572,-130.25 572,-111 620.25,-111 620.25,-130.25"/>
<text text-anchor="middle" x="596.12" y="-116.75" font-family="Helvetica,sans-Serif" font-size="10.00">qh_free</text>
</a>
</g>
</g>
<!-- Node11&#45;&gt;Node13 -->
<g id="edge13_Node000011_Node000013" class="edge">
<title>Node11&#45;&gt;Node13</title>
<g id="a_edge13_Node000011_Node000013"><a xlink:title=" ">
<path fill="none" stroke="#63b8ff" d="M508.64,-93.74C525.01,-98.83 544.84,-104.99 561.38,-110.13"/>
<polygon fill="#63b8ff" stroke="#63b8ff" points="560.11,-113.72 570.7,-113.34 562.19,-107.03 560.11,-113.72"/>
</a>
</g>
</g>
<!-- Node15 -->
<g id="Node000015" class="node">
<title>Node15</title>
<g id="a_Node000015"><a xlink:href="../../d3/d8f/mem_8c.html#a201caec0b6c546682914db7d8abe55d3" target="_top" xlink:title=" ">
<polygon fill="white" stroke="#666666" points="512,-56.25 438.25,-56.25 438.25,-37 512,-37 512,-56.25"/>
<text text-anchor="middle" x="475.12" y="-42.75" font-family="Helvetica,sans-Serif" font-size="10.00">qh_memalloc</text>
</a>
</g>
</g>
<!-- Node14&#45;&gt;Node15 -->
<g id="edge15_Node000014_Node000015" class="edge">
<title>Node14&#45;&gt;Node15</title>
<g id="a_edge15_Node000014_Node000015"><a xlink:title=" ">
<path fill="none" stroke="#63b8ff" d="M384.66,-46.62C397.66,-46.62 413.06,-46.62 427.38,-46.62"/>
<polygon fill="#63b8ff" stroke="#63b8ff" points="427.07,-50.13 437.07,-46.62 427.07,-43.13 427.07,-50.13"/>
</a>
</g>
</g>
<!-- Node15&#45;&gt;Node12 -->
<g id="edge17_Node000015_Node000012" class="edge">
<title>Node15&#45;&gt;Node12</title>
<g id="a_edge17_Node000015_Node000012"><a xlink:title=" ">
<path fill="none" stroke="#63b8ff" d="M508.64,-56.74C523.63,-61.39 541.51,-66.95 557.11,-71.81"/>
<polygon fill="#63b8ff" stroke="#63b8ff" points="555.9,-75.4 566.49,-75.03 557.98,-68.72 555.9,-75.4"/>
</a>
</g>
</g>
<!-- Node16 -->
<g id="Node000016" class="node">
<title>Node16</title>
<g id="a_Node000016"><a xlink:href="../../de/d23/user__eg2_8c.html#a5f9e5bc131c58db28e039707aea6f6dc" target="_top" xlink:title=" ">
<polygon fill="white" stroke="#666666" points="625.5,-56.25 566.75,-56.25 566.75,-37 625.5,-37 625.5,-56.25"/>
<text text-anchor="middle" x="596.12" y="-42.75" font-family="Helvetica,sans-Serif" font-size="10.00">qh_errexit</text>
</a>
</g>
</g>
<!-- Node15&#45;&gt;Node16 -->
<g id="edge16_Node000015_Node000016" class="edge">
<title>Node15&#45;&gt;Node16</title>
<g id="a_edge16_Node000015_Node000016"><a xlink:title=" ">
<path fill="none" stroke="#63b8ff" d="M512.48,-46.62C526.17,-46.62 541.81,-46.62 555.77,-46.62"/>
<polygon fill="#63b8ff" stroke="#63b8ff" points="555.54,-50.13 565.54,-46.62 555.54,-43.13 555.54,-50.13"/>
</a>
</g>
</g>
<!-- Node17 -->
<g id="Node000017" class="node">
<title>Node17</title>
<g id="a_Node000017"><a xlink:href="../../d7/d2a/_qhull__test_8cpp.html#ac08bb4db167664631656147ac9717388" target="_top" xlink:title=" ">
<polygon fill="white" stroke="#666666" points="626.25,-19.25 566,-19.25 566,0 626.25,0 626.25,-19.25"/>
<text text-anchor="middle" x="596.12" y="-5.75" font-family="Helvetica,sans-Serif" font-size="10.00">qh_malloc</text>
</a>
</g>
</g>
<!-- Node15&#45;&gt;Node17 -->
<g id="edge18_Node000015_Node000017" class="edge">
<title>Node15&#45;&gt;Node17</title>
<g id="a_edge18_Node000015_Node000017"><a xlink:title=" ">
<path fill="none" stroke="#63b8ff" d="M508.64,-36.51C523.18,-31.99 540.44,-26.63 555.71,-21.88"/>
<polygon fill="#63b8ff" stroke="#63b8ff" points="556.39,-25.02 564.9,-18.71 554.31,-18.34 556.39,-25.02"/>
</a>
</g>
</g>
<!-- Node18&#45;&gt;Node2 -->
<g id="edge24_Node000018_Node000002" class="edge">
<title>Node18&#45;&gt;Node2</title>
<g id="a_edge24_Node000018_Node000002"><a xlink:title=" ">
<path fill="none" stroke="#63b8ff" d="M173.43,-181.09C202.44,-182.81 246.87,-183.96 285,-178.62 294.42,-177.31 304.37,-174.99 313.64,-172.42"/>
<polygon fill="#63b8ff" stroke="#63b8ff" points="314.52,-175.52 323.12,-169.33 312.54,-168.8 314.52,-175.52"/>
</a>
</g>
</g>
<!-- Node19 -->
<g id="Node000019" class="node">
<title>Node19</title>
<g id="a_Node000019"><a xlink:href="../../dc/d19/user__eg2__r_8c.html#a080f69ac9f010ac2830889dbf572774c" target="_top" xlink:title=" ">
<polygon fill="white" stroke="#666666" points="504.5,-291.25 445.75,-291.25 445.75,-272 504.5,-272 504.5,-291.25"/>
<text text-anchor="middle" x="475.12" y="-277.75" font-family="Helvetica,sans-Serif" font-size="10.00">qh_errexit</text>
</a>
</g>
</g>
<!-- Node18&#45;&gt;Node19 -->
<g id="edge21_Node000018_Node000019" class="edge">
<title>Node18&#45;&gt;Node19</title>
<g id="a_edge21_Node000018_Node000019"><a xlink:title=" ">
<path fill="none" stroke="#63b8ff" d="M173.29,-188.22C233.93,-207.05 368.38,-248.79 435.06,-269.5"/>
<polygon fill="#63b8ff" stroke="#63b8ff" points="433.96,-273.13 444.55,-272.75 436.03,-266.44 433.96,-273.13"/>
</a>
</g>
</g>
<!-- Node20 -->
<g id="Node000020" class="node">
<title>Node20</title>
<g id="a_Node000020"><a xlink:href="../../d9/d3c/qset__r_8c.html#a0715d869bbe2b28c5a2432747c852e1e" target="_top" xlink:title=" ">
<polygon fill="white" stroke="#666666" points="282.38,-169.25 218.38,-169.25 218.38,-150 282.38,-150 282.38,-169.25"/>
<text text-anchor="middle" x="250.38" y="-155.75" font-family="Helvetica,sans-Serif" font-size="10.00">qh_setprint</text>
</a>
</g>
</g>
<!-- Node18&#45;&gt;Node20 -->
<g id="edge25_Node000018_Node000020" class="edge">
<title>Node18&#45;&gt;Node20</title>
<g id="a_edge25_Node000018_Node000020"><a xlink:title=" ">
<path fill="none" stroke="#63b8ff" d="M173.32,-173.13C183.99,-171.24 196.12,-169.08 207.5,-167.06"/>
<polygon fill="#63b8ff" stroke="#63b8ff" points="207.89,-170.37 217.13,-165.17 206.67,-163.48 207.89,-170.37"/>
</a>
</g>
</g>
<!-- Node19&#45;&gt;Node5 -->
<g id="edge22_Node000019_Node000005" class="edge">
<title>Node19&#45;&gt;Node5</title>
<g id="a_edge22_Node000019_Node000005"><a xlink:title=" ">
<path fill="none" stroke="#63b8ff" d="M504.93,-272.67C522.1,-267.33 543.97,-260.53 561.87,-254.97"/>
<polygon fill="#63b8ff" stroke="#63b8ff" points="562.64,-258.08 571.15,-251.77 560.57,-251.39 562.64,-258.08"/>
</a>
</g>
</g>
<!-- Node19&#45;&gt;Node6 -->
<g id="edge23_Node000019_Node000006" class="edge">
<title>Node19&#45;&gt;Node6</title>
<g id="a_edge23_Node000019_Node000006"><a xlink:title=" ">
<path fill="none" stroke="#63b8ff" d="M504.93,-281.62C524.07,-281.62 549.05,-281.62 567.86,-281.62"/>
<polygon fill="#63b8ff" stroke="#63b8ff" points="567.67,-285.13 577.67,-281.62 567.67,-278.13 567.67,-285.13"/>
</a>
</g>
</g>
<!-- Node20&#45;&gt;Node2 -->
<g id="edge26_Node000020_Node000002" class="edge">
<title>Node20&#45;&gt;Node2</title>
<g id="a_edge26_Node000020_Node000002"><a xlink:title=" ">
<path fill="none" stroke="#63b8ff" d="M282.82,-159.62C292.42,-159.62 303.08,-159.62 313.09,-159.62"/>
<polygon fill="#63b8ff" stroke="#63b8ff" points="313.02,-163.13 323.02,-159.62 313.02,-156.13 313.02,-163.13"/>
</a>
</g>
</g>
</g>
</svg>
