<?xml version="1.0" encoding="UTF-8" standalone="no"?>
<!DOCTYPE svg PUBLIC "-//W3C//DTD SVG 1.1//EN"
 "http://www.w3.org/Graphics/SVG/1.1/DTD/svg11.dtd">
<!-- Generated by graphviz version 8.1.0 (20230707.0739)
 -->
<!-- Title: Slic3r::GUI::FanOperate::FanOperate Pages: 1 -->
<!--zoomable 168 -->

<svg id="main" version="1.1" xmlns="http://www.w3.org/2000/svg" xmlns:xlink="http://www.w3.org/1999/xlink" xml:space="preserve" onload="init(evt)">
<style type="text/css"><![CDATA[
.node, .edge {opacity: 0.7;}
.node.selected, .edge.selected {opacity: 1;}
.edge:hover path { stroke: red; }
.edge:hover polygon { stroke: red; fill: red; }
]]></style>

<defs>
  <circle id="rim" cx="0" cy="0" r="7"/>
  <circle id="rim2" cx="0" cy="0" r="3.5"/>
  <g id="zoomPlus">
    <use xlink:href="#rim" fill="#404040"><set attributeName="fill" to="#808080" begin="zoomplus.mouseover" end="zoomplus.mouseout"/></use>
    <path d="M-4,0h8M0,-4v8" fill="none" stroke="white" stroke-width="1.5" pointer-events="none"/>
  </g>
  <g id="zoomMin">
    <use xlink:href="#rim" fill="#404040"><set attributeName="fill" to="#808080" begin="zoomminus.mouseover" end="zoomminus.mouseout"/></use>
    <path d="M-4,0h8" fill="none" stroke="white" stroke-width="1.5" pointer-events="none"/>
  </g>
  <g id="arrowUp" transform="translate(30 24)">
    <use xlink:href="#rim"/>
    <path pointer-events="none" fill="none" stroke="white" stroke-width="1.5" d="M0,-3.0v7 M-2.5,-0.5L0,-3.0L2.5,-0.5"/>
  </g>
  <g id="arrowRight" transform="rotate(90) translate(36 -43)">
    <use xlink:href="#rim"/>
    <path pointer-events="none" fill="none" stroke="white" stroke-width="1.5" d="M0,-3.0v7 M-2.5,-0.5L0,-3.0L2.5,-0.5"/>
  </g>
  <g id="arrowDown" transform="rotate(180) translate(-30 -48)">
    <use xlink:href="#rim"/>
    <path pointer-events="none" fill="none" stroke="white" stroke-width="1.5" d="M0,-3.0v7 M-2.5,-0.5L0,-3.0L2.5,-0.5"/>
  </g>
  <g id="arrowLeft" transform="rotate(270) translate(-36 17)">
    <use xlink:href="#rim"/>
    <path pointer-events="none" fill="none" stroke="white" stroke-width="1.5" d="M0,-3.0v7 M-2.5,-0.5L0,-3.0L2.5,-0.5"/>
  </g>
  <g id="resetDef">
    <use xlink:href="#rim2" fill="#404040"><set attributeName="fill" to="#808080" begin="reset.mouseover" end="reset.mouseout"/></use>
  </g>
</defs>
<script type="application/ecmascript">
var viewWidth = 946;
var viewHeight = 168;
var sectionId = 'dynsection-2';
</script>
<script type="application/ecmascript" xlink:href="../../svg.min.js"/>
<svg id="graph" class="graph">
<g id="viewport">
<title>Slic3r::GUI::FanOperate::FanOperate</title>
<!-- Node1 -->
<g id="Node000001" class="node">
<title>Node1</title>
<g id="a_Node000001"><a xlink:title=" ">
<polygon fill="#999999" stroke="#666666" points="121.75,-85.88 0,-85.88 0,-55.38 121.75,-55.38 121.75,-85.88"/>
<text text-anchor="start" x="8" y="-72.38" font-family="Helvetica,sans-Serif" font-size="10.00">Slic3r::GUI::FanOperate</text>
<text text-anchor="middle" x="60.88" y="-61.12" font-family="Helvetica,sans-Serif" font-size="10.00">::FanOperate</text>
</a>
</g>
</g>
<!-- Node2 -->
<g id="Node000002" class="node">
<title>Node2</title>
<g id="a_Node000002"><a xlink:href="../../dc/d2d/class_slic3r_1_1_g_u_i_1_1_fan_operate.html#acac8a4d67560668cae5308c4669510f3" target="_top" xlink:title=" ">
<polygon fill="white" stroke="#666666" points="279.5,-85.88 157.75,-85.88 157.75,-55.38 279.5,-55.38 279.5,-85.88"/>
<text text-anchor="start" x="165.75" y="-72.38" font-family="Helvetica,sans-Serif" font-size="10.00">Slic3r::GUI::FanOperate</text>
<text text-anchor="middle" x="218.62" y="-61.12" font-family="Helvetica,sans-Serif" font-size="10.00">::create</text>
</a>
</g>
</g>
<!-- Node1&#45;&gt;Node2 -->
<g id="edge1_Node000001_Node000002" class="edge">
<title>Node1&#45;&gt;Node2</title>
<g id="a_edge1_Node000001_Node000002"><a xlink:title=" ">
<path fill="none" stroke="#63b8ff" d="M122.09,-70.62C130.04,-70.62 138.24,-70.62 146.35,-70.62"/>
<polygon fill="#63b8ff" stroke="#63b8ff" points="146.31,-74.13 156.31,-70.62 146.31,-67.13 146.31,-74.13"/>
</a>
</g>
</g>
<!-- Node3 -->
<g id="Node000003" class="node">
<title>Node3</title>
<g id="a_Node000003"><a xlink:href="../../dc/d2d/class_slic3r_1_1_g_u_i_1_1_fan_operate.html#a54fc6ea6072ecfc391a7fdd39d37e390" target="_top" xlink:title=" ">
<polygon fill="white" stroke="#666666" points="437.25,-110.88 315.5,-110.88 315.5,-80.38 437.25,-80.38 437.25,-110.88"/>
<text text-anchor="start" x="323.5" y="-97.38" font-family="Helvetica,sans-Serif" font-size="10.00">Slic3r::GUI::FanOperate</text>
<text text-anchor="middle" x="376.38" y="-86.12" font-family="Helvetica,sans-Serif" font-size="10.00">::on_left_down</text>
</a>
</g>
</g>
<!-- Node2&#45;&gt;Node3 -->
<g id="edge2_Node000002_Node000003" class="edge">
<title>Node2&#45;&gt;Node3</title>
<g id="a_edge2_Node000002_Node000003"><a xlink:title=" ">
<path fill="none" stroke="#63b8ff" d="M279.84,-80.29C287.88,-81.58 296.18,-82.91 304.37,-84.23"/>
<polygon fill="#63b8ff" stroke="#63b8ff" points="303.63,-87.81 314.06,-85.94 304.74,-80.9 303.63,-87.81"/>
</a>
</g>
</g>
<!-- Node8 -->
<g id="Node000008" class="node">
<title>Node8</title>
<g id="a_Node000008"><a xlink:href="../../dc/d2d/class_slic3r_1_1_g_u_i_1_1_fan_operate.html#aabd9fa61766386418d56255ee7ddd2d4" target="_top" xlink:title=" ">
<polygon fill="white" stroke="#666666" points="437.25,-61.88 315.5,-61.88 315.5,-31.38 437.25,-31.38 437.25,-61.88"/>
<text text-anchor="start" x="323.5" y="-48.38" font-family="Helvetica,sans-Serif" font-size="10.00">Slic3r::GUI::FanOperate</text>
<text text-anchor="middle" x="376.38" y="-37.12" font-family="Helvetica,sans-Serif" font-size="10.00">::paintEvent</text>
</a>
</g>
</g>
<!-- Node2&#45;&gt;Node8 -->
<g id="edge9_Node000002_Node000008" class="edge">
<title>Node2&#45;&gt;Node8</title>
<g id="a_edge9_Node000002_Node000008"><a xlink:title=" ">
<path fill="none" stroke="#63b8ff" d="M279.84,-61.35C287.88,-60.11 296.18,-58.83 304.37,-57.57"/>
<polygon fill="#63b8ff" stroke="#63b8ff" points="304.71,-60.9 314.06,-55.92 303.64,-53.98 304.71,-60.9"/>
</a>
</g>
</g>
<!-- Node4 -->
<g id="Node000004" class="node">
<title>Node4</title>
<g id="a_Node000004"><a xlink:href="../../dc/d2d/class_slic3r_1_1_g_u_i_1_1_fan_operate.html#aa4be1699a79bba4128b649ec392ebf5e" target="_top" xlink:title=" ">
<polygon fill="white" stroke="#666666" points="595,-159.88 473.25,-159.88 473.25,-129.38 595,-129.38 595,-159.88"/>
<text text-anchor="start" x="481.25" y="-146.38" font-family="Helvetica,sans-Serif" font-size="10.00">Slic3r::GUI::FanOperate</text>
<text text-anchor="middle" x="534.12" y="-135.12" font-family="Helvetica,sans-Serif" font-size="10.00">::add_fan_speeds</text>
</a>
</g>
</g>
<!-- Node3&#45;&gt;Node4 -->
<g id="edge3_Node000003_Node000004" class="edge">
<title>Node3&#45;&gt;Node4</title>
<g id="a_edge3_Node000003_Node000004"><a xlink:title=" ">
<path fill="none" stroke="#63b8ff" d="M427.08,-111.26C441.62,-115.84 457.68,-120.89 472.8,-125.65"/>
<polygon fill="#63b8ff" stroke="#63b8ff" points="471.5,-129.22 482.09,-128.88 473.6,-122.54 471.5,-129.22"/>
</a>
</g>
</g>
<!-- Node7 -->
<g id="Node000007" class="node">
<title>Node7</title>
<g id="a_Node000007"><a xlink:href="../../dc/d2d/class_slic3r_1_1_g_u_i_1_1_fan_operate.html#ac1322a5fbd2ddc5e66aa1047654b1e50" target="_top" xlink:title=" ">
<polygon fill="white" stroke="#666666" points="595,-110.88 473.25,-110.88 473.25,-80.38 595,-80.38 595,-110.88"/>
<text text-anchor="start" x="481.25" y="-97.38" font-family="Helvetica,sans-Serif" font-size="10.00">Slic3r::GUI::FanOperate</text>
<text text-anchor="middle" x="534.12" y="-86.12" font-family="Helvetica,sans-Serif" font-size="10.00">::decrease_fan_speeds</text>
</a>
</g>
</g>
<!-- Node3&#45;&gt;Node7 -->
<g id="edge6_Node000003_Node000007" class="edge">
<title>Node3&#45;&gt;Node7</title>
<g id="a_edge6_Node000003_Node000007"><a xlink:title=" ">
<path fill="none" stroke="#63b8ff" d="M437.59,-95.62C445.54,-95.62 453.74,-95.62 461.85,-95.62"/>
<polygon fill="#63b8ff" stroke="#63b8ff" points="461.81,-99.13 471.81,-95.62 461.81,-92.13 461.81,-99.13"/>
</a>
</g>
</g>
<!-- Node5 -->
<g id="Node000005" class="node">
<title>Node5</title>
<g id="a_Node000005"><a xlink:href="../../dc/d2d/class_slic3r_1_1_g_u_i_1_1_fan_operate.html#a7d05e35d97e579062c05337e9668cbef" target="_top" xlink:title=" ">
<polygon fill="white" stroke="#666666" points="752.75,-110.88 631,-110.88 631,-80.38 752.75,-80.38 752.75,-110.88"/>
<text text-anchor="start" x="639" y="-97.38" font-family="Helvetica,sans-Serif" font-size="10.00">Slic3r::GUI::FanOperate</text>
<text text-anchor="middle" x="691.88" y="-86.12" font-family="Helvetica,sans-Serif" font-size="10.00">::post_event</text>
</a>
</g>
</g>
<!-- Node4&#45;&gt;Node5 -->
<g id="edge4_Node000004_Node000005" class="edge">
<title>Node4&#45;&gt;Node5</title>
<g id="a_edge4_Node000004_Node000005"><a xlink:title=" ">
<path fill="none" stroke="#63b8ff" d="M584.83,-128.99C599.37,-124.41 615.43,-119.36 630.55,-114.6"/>
<polygon fill="#63b8ff" stroke="#63b8ff" points="631.35,-117.71 639.84,-111.37 629.25,-111.03 631.35,-117.71"/>
</a>
</g>
</g>
<!-- Node6 -->
<g id="Node000006" class="node">
<title>Node6</title>
<g id="a_Node000006"><a xlink:href="../../dc/d2d/class_slic3r_1_1_g_u_i_1_1_fan_operate.html#a26d02344b539fe9cf0a4c14d2947990c" target="_top" xlink:title=" ">
<polygon fill="white" stroke="#666666" points="752.75,-159.88 631,-159.88 631,-129.38 752.75,-129.38 752.75,-159.88"/>
<text text-anchor="start" x="639" y="-146.38" font-family="Helvetica,sans-Serif" font-size="10.00">Slic3r::GUI::FanOperate</text>
<text text-anchor="middle" x="691.88" y="-135.12" font-family="Helvetica,sans-Serif" font-size="10.00">::set_fan_speeds</text>
</a>
</g>
</g>
<!-- Node4&#45;&gt;Node6 -->
<g id="edge5_Node000004_Node000006" class="edge">
<title>Node4&#45;&gt;Node6</title>
<g id="a_edge5_Node000004_Node000006"><a xlink:title=" ">
<path fill="none" stroke="#63b8ff" d="M595.34,-144.62C603.29,-144.62 611.49,-144.62 619.6,-144.62"/>
<polygon fill="#63b8ff" stroke="#63b8ff" points="619.56,-148.13 629.56,-144.62 619.56,-141.13 619.56,-148.13"/>
</a>
</g>
</g>
<!-- Node7&#45;&gt;Node5 -->
<g id="edge7_Node000007_Node000005" class="edge">
<title>Node7&#45;&gt;Node5</title>
<g id="a_edge7_Node000007_Node000005"><a xlink:title=" ">
<path fill="none" stroke="#63b8ff" d="M595.34,-95.62C603.29,-95.62 611.49,-95.62 619.6,-95.62"/>
<polygon fill="#63b8ff" stroke="#63b8ff" points="619.56,-99.13 629.56,-95.62 619.56,-92.13 619.56,-99.13"/>
</a>
</g>
</g>
<!-- Node7&#45;&gt;Node6 -->
<g id="edge8_Node000007_Node000006" class="edge">
<title>Node7&#45;&gt;Node6</title>
<g id="a_edge8_Node000007_Node000006"><a xlink:title=" ">
<path fill="none" stroke="#63b8ff" d="M584.83,-111.26C599.37,-115.84 615.43,-120.89 630.55,-125.65"/>
<polygon fill="#63b8ff" stroke="#63b8ff" points="629.25,-129.22 639.84,-128.88 631.35,-122.54 629.25,-129.22"/>
</a>
</g>
</g>
<!-- Node9 -->
<g id="Node000009" class="node">
<title>Node9</title>
<g id="a_Node000009"><a xlink:href="../../dc/d2d/class_slic3r_1_1_g_u_i_1_1_fan_operate.html#a8fdf60a924552ea7864a335f054b9cd9" target="_top" xlink:title=" ">
<polygon fill="white" stroke="#666666" points="595,-61.88 473.25,-61.88 473.25,-31.38 595,-31.38 595,-61.88"/>
<text text-anchor="start" x="481.25" y="-48.38" font-family="Helvetica,sans-Serif" font-size="10.00">Slic3r::GUI::FanOperate</text>
<text text-anchor="middle" x="534.12" y="-37.12" font-family="Helvetica,sans-Serif" font-size="10.00">::render</text>
</a>
</g>
</g>
<!-- Node8&#45;&gt;Node9 -->
<g id="edge10_Node000008_Node000009" class="edge">
<title>Node8&#45;&gt;Node9</title>
<g id="a_edge10_Node000008_Node000009"><a xlink:title=" ">
<path fill="none" stroke="#63b8ff" d="M437.59,-46.62C445.54,-46.62 453.74,-46.62 461.85,-46.62"/>
<polygon fill="#63b8ff" stroke="#63b8ff" points="461.81,-50.13 471.81,-46.62 461.81,-43.13 461.81,-50.13"/>
</a>
</g>
</g>
<!-- Node10 -->
<g id="Node000010" class="node">
<title>Node10</title>
<g id="a_Node000010"><a xlink:href="../../dc/d2d/class_slic3r_1_1_g_u_i_1_1_fan_operate.html#aa9d14efd3812c0364cf877e375b296f4" target="_top" xlink:title=" ">
<polygon fill="white" stroke="#666666" points="752.75,-61.88 631,-61.88 631,-31.38 752.75,-31.38 752.75,-61.88"/>
<text text-anchor="start" x="639" y="-48.38" font-family="Helvetica,sans-Serif" font-size="10.00">Slic3r::GUI::FanOperate</text>
<text text-anchor="middle" x="691.88" y="-37.12" font-family="Helvetica,sans-Serif" font-size="10.00">::doRender</text>
</a>
</g>
</g>
<!-- Node9&#45;&gt;Node10 -->
<g id="edge11_Node000009_Node000010" class="edge">
<title>Node9&#45;&gt;Node10</title>
<g id="a_edge11_Node000009_Node000010"><a xlink:title=" ">
<path fill="none" stroke="#63b8ff" d="M595.34,-46.62C603.29,-46.62 611.49,-46.62 619.6,-46.62"/>
<polygon fill="#63b8ff" stroke="#63b8ff" points="619.56,-50.13 629.56,-46.62 619.56,-43.13 619.56,-50.13"/>
</a>
</g>
</g>
<!-- Node11 -->
<g id="Node000011" class="node">
<title>Node11</title>
<g id="a_Node000011"><a xlink:href="../../d5/db9/class_scalable_bitmap.html#abb4d44a4b22f3436cb7ab22fedb1febd" target="_top" xlink:title=" ">
<polygon fill="white" stroke="#666666" points="917.62,-93.25 808.62,-93.25 808.62,-74 917.62,-74 917.62,-93.25"/>
<text text-anchor="middle" x="863.12" y="-79.75" font-family="Helvetica,sans-Serif" font-size="10.00">ScalableBitmap::bmp</text>
</a>
</g>
</g>
<!-- Node10&#45;&gt;Node11 -->
<g id="edge12_Node000010_Node000011" class="edge">
<title>Node10&#45;&gt;Node11</title>
<g id="a_edge12_Node000010_Node000011"><a xlink:title=" ">
<path fill="none" stroke="#63b8ff" d="M753.02,-59.77C770.18,-63.52 788.8,-67.59 805.72,-71.29"/>
<polygon fill="#63b8ff" stroke="#63b8ff" points="804.49,-74.83 815.01,-73.54 805.98,-67.99 804.49,-74.83"/>
</a>
</g>
</g>
<!-- Node12 -->
<g id="Node000012" class="node">
<title>Node12</title>
<g id="a_Node000012"><a xlink:href="../../d4/d80/class_state_color.html#a6276e85e936011ec92a15edaba804347" target="_top" xlink:title=" ">
<polygon fill="#fff0f0" stroke="red" points="937.5,-56.25 788.75,-56.25 788.75,-37 937.5,-37 937.5,-56.25"/>
<text text-anchor="middle" x="863.12" y="-42.75" font-family="Helvetica,sans-Serif" font-size="10.00">StateColor::darkModeColorFor</text>
</a>
</g>
</g>
<!-- Node10&#45;&gt;Node12 -->
<g id="edge13_Node000010_Node000012" class="edge">
<title>Node10&#45;&gt;Node12</title>
<g id="a_edge13_Node000010_Node000012"><a xlink:title=" ">
<path fill="none" stroke="#63b8ff" d="M753.02,-46.62C761.02,-46.62 769.33,-46.62 777.64,-46.62"/>
<polygon fill="#63b8ff" stroke="#63b8ff" points="777.54,-50.13 787.54,-46.62 777.54,-43.13 777.54,-50.13"/>
</a>
</g>
</g>
<!-- Node14 -->
<g id="Node000014" class="node">
<title>Node14</title>
<g id="a_Node000014"><a xlink:href="../../d5/db9/class_scalable_bitmap.html#a3e7058676f561ff9b75b4f5339cf21b2" target="_top" xlink:title=" ">
<polygon fill="white" stroke="#666666" points="936,-19.25 790.25,-19.25 790.25,0 936,0 936,-19.25"/>
<text text-anchor="middle" x="863.12" y="-5.75" font-family="Helvetica,sans-Serif" font-size="10.00">ScalableBitmap::GetBmpSize</text>
</a>
</g>
</g>
<!-- Node10&#45;&gt;Node14 -->
<g id="edge14_Node000010_Node000014" class="edge">
<title>Node10&#45;&gt;Node14</title>
<g id="a_edge14_Node000010_Node000014"><a xlink:title=" ">
<path fill="none" stroke="#63b8ff" d="M753.02,-33.48C770.18,-29.73 788.8,-25.66 805.72,-21.96"/>
<polygon fill="#63b8ff" stroke="#63b8ff" points="805.98,-25.26 815.01,-19.71 804.49,-18.42 805.98,-25.26"/>
</a>
</g>
</g>
</g>
</svg>

<g id="navigator" transform="translate(0 0)" fill="#404254">
  <rect fill="#f2f5e9" fill-opacity="0.5" stroke="#606060" stroke-width=".5" x="0" y="0" width="60" height="60"/>
  <use id="zoomplus" xlink:href="#zoomPlus" x="17" y="9" onmousedown="handleZoom(evt,'in')"/>
  <use id="zoomminus" xlink:href="#zoomMin" x="42" y="9" onmousedown="handleZoom(evt,'out')"/>
  <use id="reset" xlink:href="#resetDef" x="30" y="36" onmousedown="handleReset()"/>
   <use id="arrowup" xlink:href="#arrowUp" x="0" y="0" onmousedown="handlePan(0,-1)"/>
  <use id="arrowright" xlink:href="#arrowRight" x="0" y="0" onmousedown="handlePan(1,0)"/>
  <use id="arrowdown" xlink:href="#arrowDown" x="0" y="0" onmousedown="handlePan(0,1)"/>
  <use id="arrowleft" xlink:href="#arrowLeft" x="0" y="0" onmousedown="handlePan(-1,0)"/>
</g>
<svg viewBox="0 0 15 15" width="100%" height="30px" preserveAspectRatio="xMaxYMin meet">
 <g id="arrow_out" transform="scale(0.3 0.3)">
  <a xlink:href="class_slic3r_1_1_g_u_i_1_1_fan_operate_a1a7a8d717d91088c79073721af869a0c_cgraph_org.svg" target="_base">
   <rect id="button" ry="5" rx="5" y="6" x="6" height="38" width="38"
        fill="#f2f5e9" fill-opacity="0.5" stroke="#606060" stroke-width="1.0"/>
   <path id="arrow"
     d="M 11.500037,31.436501 C 11.940474,20.09759 22.043105,11.32322 32.158766,21.979434 L 37.068811,17.246167 C 37.068811,17.246167 37.088388,32 37.088388,32 L 22.160133,31.978069 C 22.160133,31.978069 26.997745,27.140456 26.997745,27.140456 C 18.528582,18.264221 13.291696,25.230495 11.500037,31.436501 z"
     style="fill:#404040;"/>
  </a>
 </g>
</svg>

<style type='text/css'>
<![CDATA[
[data-mouse-over-selected='false'] { opacity: 0.7; }
[data-mouse-over-selected='true']  { opacity: 1.0; }
]]>
</style>
<script type="application/ecmascript"><![CDATA[
document.addEventListener('DOMContentLoaded', (event) => {
  highlightEdges();
  highlightAdjacentNodes();
});
]]></script>
</svg>
