<?xml version="1.0" encoding="UTF-8" standalone="no"?>
<!DOCTYPE svg PUBLIC "-//W3C//DTD SVG 1.1//EN"
 "http://www.w3.org/Graphics/SVG/1.1/DTD/svg11.dtd">
<!-- Generated by graphviz version 8.1.0 (20230707.0739)
 -->
<!-- Title: Slic3r::Utils::time2str Pages: 1 -->
<svg width="545pt" height="108pt"
 viewBox="0.00 0.00 545.25 108.12" xmlns="http://www.w3.org/2000/svg" xmlns:xlink="http://www.w3.org/1999/xlink">
<g id="graph0" class="graph" transform="scale(1 1) rotate(0) translate(4 104.12)">
<title>Slic3r::Utils::time2str</title>
<!-- Node1 -->
<g id="Node000001" class="node">
<title>Node1</title>
<g id="a_Node000001"><a xlink:title=" ">
<polygon fill="#999999" stroke="#666666" points="108.25,-72.5 0,-72.5 0,-53.25 108.25,-53.25 108.25,-72.5"/>
<text text-anchor="middle" x="54.12" y="-59" font-family="Helvetica,sans-Serif" font-size="10.00">Slic3r::Utils::time2str</text>
</a>
</g>
</g>
<!-- Node2 -->
<g id="Node000002" class="node">
<title>Node2</title>
<g id="a_Node000002"><a xlink:href="../../d3/d47/namespace_slic3r_1_1_utils.html#ae3730cc71d7ed9891e6f0d02ca54449c" target="_top" xlink:title=" ">
<polygon fill="white" stroke="#666666" points="245.38,-100.12 151.38,-100.12 151.38,-69.62 245.38,-69.62 245.38,-100.12"/>
<text text-anchor="start" x="159.38" y="-86.62" font-family="Helvetica,sans-Serif" font-size="10.00">Slic3r::Utils::get</text>
<text text-anchor="middle" x="198.38" y="-75.38" font-family="Helvetica,sans-Serif" font-size="10.00">_current_time_utc</text>
</a>
</g>
</g>
<!-- Node1&#45;&gt;Node2 -->
<g id="edge1_Node000001_Node000002" class="edge">
<title>Node1&#45;&gt;Node2</title>
<g id="a_edge1_Node000001_Node000002"><a xlink:title=" ">
<path fill="none" stroke="#63b8ff" d="M108.5,-71.13C118.91,-72.74 129.87,-74.43 140.4,-76.06"/>
<polygon fill="#63b8ff" stroke="#63b8ff" points="139.75,-79.66 150.17,-77.73 140.82,-72.74 139.75,-79.66"/>
</a>
</g>
</g>
<!-- Node3 -->
<g id="Node000003" class="node">
<title>Node3</title>
<g id="a_Node000003"><a xlink:href="../../d3/d47/namespace_slic3r_1_1_utils.html#a7f2f9f59fdc565fc31c12fbc6a7b60d3" target="_top" xlink:title=" ">
<polygon fill="white" stroke="#666666" points="252.5,-51.5 144.25,-51.5 144.25,-32.25 252.5,-32.25 252.5,-51.5"/>
<text text-anchor="middle" x="198.38" y="-38" font-family="Helvetica,sans-Serif" font-size="10.00">Slic3r::Utils::time2str</text>
</a>
</g>
</g>
<!-- Node1&#45;&gt;Node3 -->
<g id="edge2_Node000001_Node000003" class="edge">
<title>Node1&#45;&gt;Node3</title>
<g id="a_edge2_Node000001_Node000003"><a xlink:title=" ">
<path fill="none" stroke="#63b8ff" d="M108.5,-55C116.61,-53.8 125.05,-52.55 133.36,-51.32"/>
<polygon fill="#63b8ff" stroke="#63b8ff" points="133.79,-54.65 143.18,-49.73 132.77,-47.73 133.79,-54.65"/>
</a>
</g>
</g>
<!-- Node4 -->
<g id="Node000004" class="node">
<title>Node4</title>
<g id="a_Node000004"><a xlink:href="../../d3/d47/namespace_slic3r_1_1_utils.html#a3751e7070e94e54d05c08b1ea79abd95" target="_top" xlink:title=" ">
<polygon fill="white" stroke="#666666" points="382.12,-79.12 295.62,-79.12 295.62,-48.62 382.12,-48.62 382.12,-79.12"/>
<text text-anchor="start" x="303.62" y="-65.62" font-family="Helvetica,sans-Serif" font-size="10.00">Slic3r::Utils::get</text>
<text text-anchor="middle" x="338.88" y="-54.38" font-family="Helvetica,sans-Serif" font-size="10.00">_fmtstr</text>
</a>
</g>
</g>
<!-- Node3&#45;&gt;Node4 -->
<g id="edge3_Node000003_Node000004" class="edge">
<title>Node3&#45;&gt;Node4</title>
<g id="a_edge3_Node000003_Node000004"><a xlink:title=" ">
<path fill="none" stroke="#63b8ff" d="M252.92,-50.38C263.32,-52.03 274.21,-53.76 284.6,-55.41"/>
<polygon fill="#63b8ff" stroke="#63b8ff" points="283.77,-58.98 294.2,-57.1 284.87,-52.07 283.77,-58.98"/>
</a>
</g>
</g>
<!-- Node5 -->
<g id="Node000005" class="node">
<title>Node5</title>
<g id="a_Node000005"><a xlink:href="../../d3/d47/namespace_slic3r_1_1_utils.html#a05b01c233b9e25b3389cf4a51000ace6" target="_top" xlink:title=" ">
<polygon fill="white" stroke="#666666" points="389.25,-30.5 288.5,-30.5 288.5,-11.25 389.25,-11.25 389.25,-30.5"/>
<text text-anchor="middle" x="338.88" y="-17" font-family="Helvetica,sans-Serif" font-size="10.00">Slic3r::Utils::tm2str</text>
</a>
</g>
</g>
<!-- Node3&#45;&gt;Node5 -->
<g id="edge4_Node000003_Node000005" class="edge">
<title>Node3&#45;&gt;Node5</title>
<g id="a_edge4_Node000003_Node000005"><a xlink:title=" ">
<path fill="none" stroke="#63b8ff" d="M252.92,-33.76C260.97,-32.54 269.31,-31.27 277.49,-30.03"/>
<polygon fill="#63b8ff" stroke="#63b8ff" points="277.74,-33.38 287.1,-28.42 276.69,-26.46 277.74,-33.38"/>
</a>
</g>
</g>
<!-- Node6 -->
<g id="Node000006" class="node">
<title>Node6</title>
<g id="a_Node000006"><a xlink:href="../../d3/d71/namespace_slic3r_1_1_utils_1_1____get__put__time__emulation.html#abdd99ac91d5d7acffaa0041696f9e08c" target="_top" xlink:title=" ">
<polygon fill="white" stroke="#666666" points="537.25,-41.75 425.25,-41.75 425.25,0 537.25,0 537.25,-41.75"/>
<text text-anchor="start" x="433.25" y="-28.25" font-family="Helvetica,sans-Serif" font-size="10.00">Slic3r::Utils::__get</text>
<text text-anchor="start" x="433.25" y="-17" font-family="Helvetica,sans-Serif" font-size="10.00">_put_time_emulation::</text>
<text text-anchor="middle" x="481.25" y="-5.75" font-family="Helvetica,sans-Serif" font-size="10.00">put_time</text>
</a>
</g>
</g>
<!-- Node5&#45;&gt;Node6 -->
<g id="edge5_Node000005_Node000006" class="edge">
<title>Node5&#45;&gt;Node6</title>
<g id="a_edge5_Node000005_Node000006"><a xlink:title=" ">
<path fill="none" stroke="#63b8ff" d="M389.37,-20.88C397.38,-20.88 405.79,-20.88 414.12,-20.88"/>
<polygon fill="#63b8ff" stroke="#63b8ff" points="413.99,-24.38 423.99,-20.88 413.99,-17.38 413.99,-24.38"/>
</a>
</g>
</g>
</g>
</svg>
