<?xml version="1.0" encoding="UTF-8" standalone="no"?>
<!DOCTYPE svg PUBLIC "-//W3C//DTD SVG 1.1//EN"
 "http://www.w3.org/Graphics/SVG/1.1/DTD/svg11.dtd">
<!-- Generated by graphviz version 8.1.0 (20230707.0739)
 -->
<!-- Title: Clipper2Lib::InitCPolyPathD Pages: 1 -->
<svg width="318pt" height="162pt"
 viewBox="0.00 0.00 318.25 161.88" xmlns="http://www.w3.org/2000/svg" xmlns:xlink="http://www.w3.org/1999/xlink">
<g id="graph0" class="graph" transform="scale(1 1) rotate(0) translate(4 157.88)">
<title>Clipper2Lib::InitCPolyPathD</title>
<!-- Node1 -->
<g id="Node000001" class="node">
<title>Node1</title>
<g id="a_Node000001"><a xlink:title=" ">
<polygon fill="#999999" stroke="#666666" points="139,-83.25 0,-83.25 0,-64 139,-64 139,-83.25"/>
<text text-anchor="middle" x="69.5" y="-69.75" font-family="Helvetica,sans-Serif" font-size="10.00">Clipper2Lib::InitCPolyPathD</text>
</a>
</g>
</g>
<!-- Node1&#45;&gt;Node1 -->
<g id="edge3_Node000001_Node000001" class="edge">
<title>Node1&#45;&gt;Node1</title>
<g id="a_edge3_Node000001_Node000001"><a xlink:title=" ">
<path fill="none" stroke="#63b8ff" d="M42.4,-83.54C30.03,-92.15 39.07,-101.25 69.5,-101.25 88.04,-101.25 98.64,-97.87 101.3,-93.28"/>
<polygon fill="#63b8ff" stroke="#63b8ff" points="104.1,-92.03 96.6,-84.54 97.79,-95.07 104.1,-92.03"/>
</a>
</g>
</g>
<!-- Node2 -->
<g id="Node000002" class="node">
<title>Node2</title>
<g id="a_Node000002"><a xlink:href="../../d3/d8f/class_clipper2_lib_1_1_poly_path64.html#ab25325145e108477d4998080b31a556b" target="_top" xlink:title=" ">
<polygon fill="white" stroke="#666666" points="303.12,-153.88 182.12,-153.88 182.12,-123.38 303.12,-123.38 303.12,-153.88"/>
<text text-anchor="start" x="190.12" y="-140.38" font-family="Helvetica,sans-Serif" font-size="10.00">Clipper2Lib::PolyPath64</text>
<text text-anchor="middle" x="242.62" y="-129.12" font-family="Helvetica,sans-Serif" font-size="10.00">::Count</text>
</a>
</g>
</g>
<!-- Node1&#45;&gt;Node2 -->
<g id="edge1_Node000001_Node000002" class="edge">
<title>Node1&#45;&gt;Node2</title>
<g id="a_edge1_Node000001_Node000002"><a xlink:title=" ">
<path fill="none" stroke="#63b8ff" d="M95.34,-83.6C116.46,-92.02 147.64,-104.33 175,-114.62 178.96,-116.12 183.07,-117.64 187.2,-119.16"/>
<polygon fill="#63b8ff" stroke="#63b8ff" points="185.89,-122.77 196.48,-122.92 188.29,-116.2 185.89,-122.77"/>
</a>
</g>
</g>
<!-- Node3 -->
<g id="Node000003" class="node">
<title>Node3</title>
<g id="a_Node000003"><a xlink:href="../../d5/dd8/namespace_clipper2_lib.html#acbcb3bf9b33ccbf28c19a4f041f37ba4" target="_top" xlink:title=" ">
<polygon fill="white" stroke="#666666" points="310.25,-105.25 175,-105.25 175,-86 310.25,-86 310.25,-105.25"/>
<text text-anchor="middle" x="242.62" y="-91.75" font-family="Helvetica,sans-Serif" font-size="10.00">Clipper2Lib::CreateCPathD</text>
</a>
</g>
</g>
<!-- Node1&#45;&gt;Node3 -->
<g id="edge2_Node000001_Node000003" class="edge">
<title>Node1&#45;&gt;Node3</title>
<g id="a_edge2_Node000001_Node000003"><a xlink:title=" ">
<path fill="none" stroke="#63b8ff" d="M139.12,-82.45C147.26,-83.49 155.62,-84.57 163.89,-85.63"/>
<polygon fill="#63b8ff" stroke="#63b8ff" points="163.3,-89.21 173.66,-87.02 164.19,-82.27 163.3,-89.21"/>
</a>
</g>
</g>
<!-- Node4 -->
<g id="Node000004" class="node">
<title>Node4</title>
<g id="a_Node000004"><a xlink:href="../../d3/d8f/class_clipper2_lib_1_1_poly_path64.html#a1621d67cfaa4f14198e524daa0934099" target="_top" xlink:title=" ">
<polygon fill="white" stroke="#666666" points="303.12,-67.88 182.12,-67.88 182.12,-37.38 303.12,-37.38 303.12,-67.88"/>
<text text-anchor="start" x="190.12" y="-54.38" font-family="Helvetica,sans-Serif" font-size="10.00">Clipper2Lib::PolyPath64</text>
<text text-anchor="middle" x="242.62" y="-43.12" font-family="Helvetica,sans-Serif" font-size="10.00">::Polygon</text>
</a>
</g>
</g>
<!-- Node1&#45;&gt;Node4 -->
<g id="edge4_Node000001_Node000004" class="edge">
<title>Node1&#45;&gt;Node4</title>
<g id="a_edge4_Node000001_Node000004"><a xlink:title=" ">
<path fill="none" stroke="#63b8ff" d="M139.12,-65.2C149.61,-63.92 160.45,-62.59 170.98,-61.29"/>
<polygon fill="#63b8ff" stroke="#63b8ff" points="171.32,-64.66 180.82,-59.96 170.47,-57.71 171.32,-64.66"/>
</a>
</g>
</g>
<!-- Node5 -->
<g id="Node000005" class="node">
<title>Node5</title>
<g id="a_Node000005"><a xlink:href="../../d6/dba/_wipe_tower_dialog_8cpp.html#a031c2862b832be718b216d1f101f88cd" target="_top" xlink:title=" ">
<polygon fill="white" stroke="#666666" points="262.25,-19.25 223,-19.25 223,0 262.25,0 262.25,-19.25"/>
<text text-anchor="middle" x="242.62" y="-5.75" font-family="Helvetica,sans-Serif" font-size="10.00">scale</text>
</a>
</g>
</g>
<!-- Node1&#45;&gt;Node5 -->
<g id="edge5_Node000001_Node000005" class="edge">
<title>Node1&#45;&gt;Node5</title>
<g id="a_edge5_Node000001_Node000005"><a xlink:title=" ">
<path fill="none" stroke="#63b8ff" d="M91.4,-63.68C112.27,-53.97 145.41,-39.16 175,-28.62 187.02,-24.34 200.52,-20.35 212.21,-17.13"/>
<polygon fill="#63b8ff" stroke="#63b8ff" points="213,-20.28 221.75,-14.31 211.19,-13.52 213,-20.28"/>
</a>
</g>
</g>
</g>
</svg>
