<?xml version="1.0" encoding="UTF-8" standalone="no"?>
<!DOCTYPE svg PUBLIC "-//W3C//DTD SVG 1.1//EN"
 "http://www.w3.org/Graphics/SVG/1.1/DTD/svg11.dtd">
<!-- Generated by graphviz version 8.1.0 (20230707.0739)
 -->
<!-- Title: Clipper2Lib::TranslatePoint Pages: 1 -->
<!--zoomable 138 -->

<svg id="main" version="1.1" xmlns="http://www.w3.org/2000/svg" xmlns:xlink="http://www.w3.org/1999/xlink" xml:space="preserve" onload="init(evt)">
<style type="text/css"><![CDATA[
.node, .edge {opacity: 0.7;}
.node.selected, .edge.selected {opacity: 1;}
.edge:hover path { stroke: red; }
.edge:hover polygon { stroke: red; fill: red; }
]]></style>

<defs>
  <circle id="rim" cx="0" cy="0" r="7"/>
  <circle id="rim2" cx="0" cy="0" r="3.5"/>
  <g id="zoomPlus">
    <use xlink:href="#rim" fill="#404040"><set attributeName="fill" to="#808080" begin="zoomplus.mouseover" end="zoomplus.mouseout"/></use>
    <path d="M-4,0h8M0,-4v8" fill="none" stroke="white" stroke-width="1.5" pointer-events="none"/>
  </g>
  <g id="zoomMin">
    <use xlink:href="#rim" fill="#404040"><set attributeName="fill" to="#808080" begin="zoomminus.mouseover" end="zoomminus.mouseout"/></use>
    <path d="M-4,0h8" fill="none" stroke="white" stroke-width="1.5" pointer-events="none"/>
  </g>
  <g id="arrowUp" transform="translate(30 24)">
    <use xlink:href="#rim"/>
    <path pointer-events="none" fill="none" stroke="white" stroke-width="1.5" d="M0,-3.0v7 M-2.5,-0.5L0,-3.0L2.5,-0.5"/>
  </g>
  <g id="arrowRight" transform="rotate(90) translate(36 -43)">
    <use xlink:href="#rim"/>
    <path pointer-events="none" fill="none" stroke="white" stroke-width="1.5" d="M0,-3.0v7 M-2.5,-0.5L0,-3.0L2.5,-0.5"/>
  </g>
  <g id="arrowDown" transform="rotate(180) translate(-30 -48)">
    <use xlink:href="#rim"/>
    <path pointer-events="none" fill="none" stroke="white" stroke-width="1.5" d="M0,-3.0v7 M-2.5,-0.5L0,-3.0L2.5,-0.5"/>
  </g>
  <g id="arrowLeft" transform="rotate(270) translate(-36 17)">
    <use xlink:href="#rim"/>
    <path pointer-events="none" fill="none" stroke="white" stroke-width="1.5" d="M0,-3.0v7 M-2.5,-0.5L0,-3.0L2.5,-0.5"/>
  </g>
  <g id="resetDef">
    <use xlink:href="#rim2" fill="#404040"><set attributeName="fill" to="#808080" begin="reset.mouseover" end="reset.mouseout"/></use>
  </g>
</defs>
<script type="application/ecmascript">
var viewWidth = 1299;
var viewHeight = 138;
var sectionId = 'dynsection-235';
</script>
<script type="application/ecmascript" xlink:href="../../svg.min.js"/>
<svg id="graph" class="graph">
<g id="viewport">
<title>Clipper2Lib::TranslatePoint</title>
<!-- Node1 -->
<g id="Node000001" class="node">
<title>Node1</title>
<g id="a_Node000001"><a xlink:title=" ">
<polygon fill="#999999" stroke="#666666" points="1290.5,-90.25 1156.75,-90.25 1156.75,-71 1290.5,-71 1290.5,-90.25"/>
<text text-anchor="middle" x="1223.62" y="-76.75" font-family="Helvetica,sans-Serif" font-size="10.00">Clipper2Lib::TranslatePoint</text>
</a>
</g>
</g>
<!-- Node2 -->
<g id="Node000002" class="node">
<title>Node2</title>
<g id="a_Node000002"><a xlink:href="../../d4/d12/class_clipper2_lib_1_1_clipper_offset.html#a23dcec5f7106ed0cd32e885a068ad5b6" target="_top" xlink:title=" ">
<polygon fill="white" stroke="#666666" points="1120.75,-95.88 992.25,-95.88 992.25,-65.38 1120.75,-65.38 1120.75,-95.88"/>
<text text-anchor="start" x="1000.25" y="-82.38" font-family="Helvetica,sans-Serif" font-size="10.00">Clipper2Lib::ClipperOffset</text>
<text text-anchor="middle" x="1056.5" y="-71.12" font-family="Helvetica,sans-Serif" font-size="10.00">::DoSquare</text>
</a>
</g>
</g>
<!-- Node1&#45;&gt;Node2 -->
<g id="edge1_Node000001_Node000002" class="edge">
<title>Node1&#45;&gt;Node2</title>
<g id="a_edge1_Node000001_Node000002"><a xlink:title=" ">
<path fill="none" stroke="#63b8ff" d="M1145.65,-80.62C1137.41,-80.62 1129.1,-80.62 1121.04,-80.62"/>
<polygon fill="#63b8ff" stroke="#63b8ff" points="1145.41,-84.13 1155.41,-80.62 1145.41,-77.13 1145.41,-84.13"/>
</a>
</g>
</g>
<!-- Node3 -->
<g id="Node000003" class="node">
<title>Node3</title>
<g id="a_Node000003"><a xlink:href="../../d4/d12/class_clipper2_lib_1_1_clipper_offset.html#a1bc29e4f11822bc3f689a1df70800662" target="_top" xlink:title=" ">
<polygon fill="white" stroke="#666666" points="791.75,-117.88 663.25,-117.88 663.25,-87.38 791.75,-87.38 791.75,-117.88"/>
<text text-anchor="start" x="671.25" y="-104.38" font-family="Helvetica,sans-Serif" font-size="10.00">Clipper2Lib::ClipperOffset</text>
<text text-anchor="middle" x="727.5" y="-93.12" font-family="Helvetica,sans-Serif" font-size="10.00">::OffsetOpenPath</text>
</a>
</g>
</g>
<!-- Node2&#45;&gt;Node3 -->
<g id="edge2_Node000002_Node000003" class="edge">
<title>Node2&#45;&gt;Node3</title>
<g id="a_edge2_Node000002_Node000003"><a xlink:title=" ">
<path fill="none" stroke="#63b8ff" d="M981.3,-85.62C924.24,-89.46 846.25,-94.7 792.04,-98.35"/>
<polygon fill="#63b8ff" stroke="#63b8ff" points="981.32,-89.06 991.06,-84.89 980.85,-82.07 981.32,-89.06"/>
</a>
</g>
</g>
<!-- Node10 -->
<g id="Node000010" class="node">
<title>Node10</title>
<g id="a_Node000010"><a xlink:href="../../d4/d12/class_clipper2_lib_1_1_clipper_offset.html#a908402bb97058a41831b5ecaefd8537d" target="_top" xlink:title=" ">
<polygon fill="white" stroke="#666666" points="956.25,-74.88 827.75,-74.88 827.75,-44.38 956.25,-44.38 956.25,-74.88"/>
<text text-anchor="start" x="835.75" y="-61.38" font-family="Helvetica,sans-Serif" font-size="10.00">Clipper2Lib::ClipperOffset</text>
<text text-anchor="middle" x="892" y="-50.12" font-family="Helvetica,sans-Serif" font-size="10.00">::OffsetPoint</text>
</a>
</g>
</g>
<!-- Node2&#45;&gt;Node10 -->
<g id="edge9_Node000002_Node000010" class="edge">
<title>Node2&#45;&gt;Node10</title>
<g id="a_edge9_Node000002_Node000010"><a xlink:title=" ">
<path fill="none" stroke="#63b8ff" d="M981.42,-71.05C973.15,-69.98 964.78,-68.9 956.65,-67.85"/>
<polygon fill="#63b8ff" stroke="#63b8ff" points="980.84,-74.64 991.21,-72.45 981.74,-67.69 980.84,-74.64"/>
</a>
</g>
</g>
<!-- Node4 -->
<g id="Node000004" class="node">
<title>Node4</title>
<g id="a_Node000004"><a xlink:href="../../d4/d12/class_clipper2_lib_1_1_clipper_offset.html#a3d1ef300effa577214f34fbc909b13dd" target="_top" xlink:title=" ">
<polygon fill="white" stroke="#666666" points="462.75,-79.88 334.25,-79.88 334.25,-49.38 462.75,-49.38 462.75,-79.88"/>
<text text-anchor="start" x="342.25" y="-66.38" font-family="Helvetica,sans-Serif" font-size="10.00">Clipper2Lib::ClipperOffset</text>
<text text-anchor="middle" x="398.5" y="-55.12" font-family="Helvetica,sans-Serif" font-size="10.00">::DoGroupOffset</text>
</a>
</g>
</g>
<!-- Node3&#45;&gt;Node4 -->
<g id="edge3_Node000003_Node000004" class="edge">
<title>Node3&#45;&gt;Node4</title>
<g id="a_edge3_Node000003_Node000004"><a xlink:title=" ">
<path fill="none" stroke="#63b8ff" d="M652.3,-94C595.24,-87.37 517.25,-78.31 463.04,-72.01"/>
<polygon fill="#63b8ff" stroke="#63b8ff" points="651.73,-97.58 662.06,-95.25 652.53,-90.62 651.73,-97.58"/>
</a>
</g>
</g>
<!-- Node5 -->
<g id="Node000005" class="node">
<title>Node5</title>
<g id="a_Node000005"><a xlink:href="../../d4/d12/class_clipper2_lib_1_1_clipper_offset.html#a24357866d23e5aad923c73d6aceb2ac2" target="_top" xlink:title=" ">
<polygon fill="white" stroke="#666666" points="298.25,-79.88 169.75,-79.88 169.75,-49.38 298.25,-49.38 298.25,-79.88"/>
<text text-anchor="start" x="177.75" y="-66.38" font-family="Helvetica,sans-Serif" font-size="10.00">Clipper2Lib::ClipperOffset</text>
<text text-anchor="middle" x="234" y="-55.12" font-family="Helvetica,sans-Serif" font-size="10.00">::Execute</text>
</a>
</g>
</g>
<!-- Node4&#45;&gt;Node5 -->
<g id="edge4_Node000004_Node000005" class="edge">
<title>Node4&#45;&gt;Node5</title>
<g id="a_edge4_Node000004_Node000005"><a xlink:title=" ">
<path fill="none" stroke="#63b8ff" d="M323.42,-64.62C315.15,-64.62 306.78,-64.62 298.65,-64.62"/>
<polygon fill="#63b8ff" stroke="#63b8ff" points="323.21,-68.13 333.21,-64.62 323.21,-61.13 323.21,-68.13"/>
</a>
</g>
</g>
<!-- Node6 -->
<g id="Node000006" class="node">
<title>Node6</title>
<g id="a_Node000006"><a xlink:href="../../d5/dd8/namespace_clipper2_lib.html#a01b9dacfd65343bedda368d03ee15236" target="_top" xlink:title=" ">
<polygon fill="white" stroke="#666666" points="128.5,-130.25 5.25,-130.25 5.25,-111 128.5,-111 128.5,-130.25"/>
<text text-anchor="middle" x="66.88" y="-116.75" font-family="Helvetica,sans-Serif" font-size="10.00">Clipper2Lib::InflatePaths</text>
</a>
</g>
</g>
<!-- Node5&#45;&gt;Node6 -->
<g id="edge5_Node000005_Node000006" class="edge">
<title>Node5&#45;&gt;Node6</title>
<g id="a_edge5_Node000005_Node000006"><a xlink:title=" ">
<path fill="none" stroke="#63b8ff" d="M184.46,-84.31C168.43,-90.51 150.44,-97.17 133.75,-102.62 125.3,-105.39 116.15,-108.08 107.43,-110.5"/>
<polygon fill="#63b8ff" stroke="#63b8ff" points="185.63,-87.22 193.67,-80.32 183.08,-80.7 185.63,-87.22"/>
</a>
</g>
</g>
<!-- Node7 -->
<g id="Node000007" class="node">
<title>Node7</title>
<g id="a_Node000007"><a xlink:href="../../d5/dd8/namespace_clipper2_lib.html#a06b8652b449a3f5be57af872bcf64f69" target="_top" xlink:title=" ">
<polygon fill="white" stroke="#666666" points="128.5,-93.25 5.25,-93.25 5.25,-74 128.5,-74 128.5,-93.25"/>
<text text-anchor="middle" x="66.88" y="-79.75" font-family="Helvetica,sans-Serif" font-size="10.00">Clipper2Lib::InflatePaths</text>
</a>
</g>
</g>
<!-- Node5&#45;&gt;Node7 -->
<g id="edge6_Node000005_Node000007" class="edge">
<title>Node5&#45;&gt;Node7</title>
<g id="a_edge6_Node000005_Node000007"><a xlink:title=" ">
<path fill="none" stroke="#63b8ff" d="M158.85,-73.16C148.84,-74.31 138.65,-75.48 128.9,-76.6"/>
<polygon fill="#63b8ff" stroke="#63b8ff" points="159.1,-76.54 168.63,-71.92 158.3,-69.58 159.1,-76.54"/>
</a>
</g>
</g>
<!-- Node8 -->
<g id="Node000008" class="node">
<title>Node8</title>
<g id="a_Node000008"><a xlink:href="../../d5/dd8/namespace_clipper2_lib.html#acf0985022242fbe42aed954bf19c7748" target="_top" xlink:title=" ">
<polygon fill="white" stroke="#666666" points="133.75,-56.25 0,-56.25 0,-37 133.75,-37 133.75,-56.25"/>
<text text-anchor="middle" x="66.88" y="-42.75" font-family="Helvetica,sans-Serif" font-size="10.00">Clipper2Lib::InflatePaths64</text>
</a>
</g>
</g>
<!-- Node5&#45;&gt;Node8 -->
<g id="edge7_Node000005_Node000008" class="edge">
<title>Node5&#45;&gt;Node8</title>
<g id="a_edge7_Node000005_Node000008"><a xlink:title=" ">
<path fill="none" stroke="#63b8ff" d="M158.87,-56.54C150.61,-55.64 142.24,-54.73 134.09,-53.84"/>
<polygon fill="#63b8ff" stroke="#63b8ff" points="158.31,-60.11 168.63,-57.72 159.07,-53.15 158.31,-60.11"/>
</a>
</g>
</g>
<!-- Node9 -->
<g id="Node000009" class="node">
<title>Node9</title>
<g id="a_Node000009"><a xlink:href="../../d5/dd8/namespace_clipper2_lib.html#a91d786d86a3d34f3d15b95a923f817da" target="_top" xlink:title=" ">
<polygon fill="white" stroke="#666666" points="132.25,-19.25 1.5,-19.25 1.5,0 132.25,0 132.25,-19.25"/>
<text text-anchor="middle" x="66.88" y="-5.75" font-family="Helvetica,sans-Serif" font-size="10.00">Clipper2Lib::InflatePathsD</text>
</a>
</g>
</g>
<!-- Node5&#45;&gt;Node9 -->
<g id="edge8_Node000005_Node000009" class="edge">
<title>Node5&#45;&gt;Node9</title>
<g id="a_edge8_Node000005_Node000009"><a xlink:title=" ">
<path fill="none" stroke="#63b8ff" d="M183.59,-45.21C167.77,-39.26 150.12,-32.9 133.75,-27.62 125.17,-24.86 115.88,-22.15 107.06,-19.71"/>
<polygon fill="#63b8ff" stroke="#63b8ff" points="182.09,-48.76 192.68,-49.04 184.58,-42.22 182.09,-48.76"/>
</a>
</g>
</g>
<!-- Node10&#45;&gt;Node3 -->
<g id="edge10_Node000010_Node000003" class="edge">
<title>Node10&#45;&gt;Node3</title>
<g id="a_edge10_Node000010_Node000003"><a xlink:title=" ">
<path fill="none" stroke="#63b8ff" d="M821.31,-78.07C810.17,-81.01 798.73,-84.04 787.85,-86.92"/>
<polygon fill="#63b8ff" stroke="#63b8ff" points="822.1,-81.21 830.87,-75.27 820.31,-74.45 822.1,-81.21"/>
</a>
</g>
</g>
<!-- Node11 -->
<g id="Node000011" class="node">
<title>Node11</title>
<g id="a_Node000011"><a xlink:href="../../d4/d12/class_clipper2_lib_1_1_clipper_offset.html#a295dc62643a57cafa3d5bba109b04d11" target="_top" xlink:title=" ">
<polygon fill="white" stroke="#666666" points="791.75,-68.88 663.25,-68.88 663.25,-38.38 791.75,-38.38 791.75,-68.88"/>
<text text-anchor="start" x="671.25" y="-55.38" font-family="Helvetica,sans-Serif" font-size="10.00">Clipper2Lib::ClipperOffset</text>
<text text-anchor="middle" x="727.5" y="-44.12" font-family="Helvetica,sans-Serif" font-size="10.00">::OffsetPolygon</text>
</a>
</g>
</g>
<!-- Node10&#45;&gt;Node11 -->
<g id="edge11_Node000010_Node000011" class="edge">
<title>Node10&#45;&gt;Node11</title>
<g id="a_edge11_Node000010_Node000011"><a xlink:title=" ">
<path fill="none" stroke="#63b8ff" d="M816.92,-56.89C808.65,-56.58 800.28,-56.28 792.15,-55.98"/>
<polygon fill="#63b8ff" stroke="#63b8ff" points="816.59,-60.42 826.71,-57.29 816.84,-53.42 816.59,-60.42"/>
</a>
</g>
</g>
<!-- Node11&#45;&gt;Node4 -->
<g id="edge12_Node000011_Node000004" class="edge">
<title>Node11&#45;&gt;Node4</title>
<g id="a_edge12_Node000011_Node000004"><a xlink:title=" ">
<path fill="none" stroke="#63b8ff" d="M652.3,-56.12C595.24,-58.04 517.25,-60.66 463.04,-62.49"/>
<polygon fill="#63b8ff" stroke="#63b8ff" points="652.19,-59.59 662.06,-55.76 651.95,-52.6 652.19,-59.59"/>
</a>
</g>
</g>
<!-- Node12 -->
<g id="Node000012" class="node">
<title>Node12</title>
<g id="a_Node000012"><a xlink:href="../../d4/d12/class_clipper2_lib_1_1_clipper_offset.html#abe3099871d2e58db6e19c0be6076a7c3" target="_top" xlink:title=" ">
<polygon fill="white" stroke="#666666" points="627.25,-36.88 498.75,-36.88 498.75,-6.37 627.25,-6.37 627.25,-36.88"/>
<text text-anchor="start" x="506.75" y="-23.38" font-family="Helvetica,sans-Serif" font-size="10.00">Clipper2Lib::ClipperOffset</text>
<text text-anchor="middle" x="563" y="-12.12" font-family="Helvetica,sans-Serif" font-size="10.00">::OffsetOpenJoined</text>
</a>
</g>
</g>
<!-- Node11&#45;&gt;Node12 -->
<g id="edge13_Node000011_Node000012" class="edge">
<title>Node11&#45;&gt;Node12</title>
<g id="a_edge13_Node000011_Node000012"><a xlink:title=" ">
<path fill="none" stroke="#63b8ff" d="M652.42,-39.04C644.15,-37.41 635.78,-35.76 627.65,-34.16"/>
<polygon fill="#63b8ff" stroke="#63b8ff" points="651.72,-42.66 662.21,-41.16 653.07,-35.8 651.72,-42.66"/>
</a>
</g>
</g>
<!-- Node12&#45;&gt;Node4 -->
<g id="edge14_Node000012_Node000004" class="edge">
<title>Node12&#45;&gt;Node4</title>
<g id="a_edge14_Node000012_Node000004"><a xlink:title=" ">
<path fill="none" stroke="#63b8ff" d="M492.31,-40.07C481.17,-43.01 469.73,-46.04 458.85,-48.92"/>
<polygon fill="#63b8ff" stroke="#63b8ff" points="493.1,-43.21 501.87,-37.27 491.31,-36.45 493.1,-43.21"/>
</a>
</g>
</g>
</g>
</svg>

<g id="navigator" transform="translate(0 0)" fill="#404254">
  <rect fill="#f2f5e9" fill-opacity="0.5" stroke="#606060" stroke-width=".5" x="0" y="0" width="60" height="60"/>
  <use id="zoomplus" xlink:href="#zoomPlus" x="17" y="9" onmousedown="handleZoom(evt,'in')"/>
  <use id="zoomminus" xlink:href="#zoomMin" x="42" y="9" onmousedown="handleZoom(evt,'out')"/>
  <use id="reset" xlink:href="#resetDef" x="30" y="36" onmousedown="handleReset()"/>
   <use id="arrowup" xlink:href="#arrowUp" x="0" y="0" onmousedown="handlePan(0,-1)"/>
  <use id="arrowright" xlink:href="#arrowRight" x="0" y="0" onmousedown="handlePan(1,0)"/>
  <use id="arrowdown" xlink:href="#arrowDown" x="0" y="0" onmousedown="handlePan(0,1)"/>
  <use id="arrowleft" xlink:href="#arrowLeft" x="0" y="0" onmousedown="handlePan(-1,0)"/>
</g>
<svg viewBox="0 0 15 15" width="100%" height="30px" preserveAspectRatio="xMaxYMin meet">
 <g id="arrow_out" transform="scale(0.3 0.3)">
  <a xlink:href="namespace_clipper2_lib_a213fa29a0084e1f2fd1538e94db29094_icgraph_org.svg" target="_base">
   <rect id="button" ry="5" rx="5" y="6" x="6" height="38" width="38"
        fill="#f2f5e9" fill-opacity="0.5" stroke="#606060" stroke-width="1.0"/>
   <path id="arrow"
     d="M 11.500037,31.436501 C 11.940474,20.09759 22.043105,11.32322 32.158766,21.979434 L 37.068811,17.246167 C 37.068811,17.246167 37.088388,32 37.088388,32 L 22.160133,31.978069 C 22.160133,31.978069 26.997745,27.140456 26.997745,27.140456 C 18.528582,18.264221 13.291696,25.230495 11.500037,31.436501 z"
     style="fill:#404040;"/>
  </a>
 </g>
</svg>

<style type='text/css'>
<![CDATA[
[data-mouse-over-selected='false'] { opacity: 0.7; }
[data-mouse-over-selected='true']  { opacity: 1.0; }
]]>
</style>
<script type="application/ecmascript"><![CDATA[
document.addEventListener('DOMContentLoaded', (event) => {
  highlightEdges();
  highlightAdjacentNodes();
});
]]></script>
</svg>
