<?xml version="1.0" encoding="UTF-8" standalone="no"?>
<!DOCTYPE svg PUBLIC "-//W3C//DTD SVG 1.1//EN"
 "http://www.w3.org/Graphics/SVG/1.1/DTD/svg11.dtd">
<!-- Generated by graphviz version 8.1.0 (20230707.0739)
 -->
<!-- Title: Clipper2Lib::TrimCollinear Pages: 1 -->
<svg width="479pt" height="101pt"
 viewBox="0.00 0.00 479.00 101.25" xmlns="http://www.w3.org/2000/svg" xmlns:xlink="http://www.w3.org/1999/xlink">
<g id="graph0" class="graph" transform="scale(1 1) rotate(0) translate(4 97.25)">
<title>Clipper2Lib::TrimCollinear</title>
<!-- Node1 -->
<g id="Node000001" class="node">
<title>Node1</title>
<g id="a_Node000001"><a xlink:title=" ">
<polygon fill="#999999" stroke="#666666" points="128.5,-56.25 0,-56.25 0,-37 128.5,-37 128.5,-56.25"/>
<text text-anchor="middle" x="64.25" y="-42.75" font-family="Helvetica,sans-Serif" font-size="10.00">Clipper2Lib::TrimCollinear</text>
</a>
</g>
</g>
<!-- Node2 -->
<g id="Node000002" class="node">
<title>Node2</title>
<g id="a_Node000002"><a xlink:href="../../d5/dd8/namespace_clipper2_lib.html#a91b8934de1325932e4b6b5d9b7d4255d" target="_top" xlink:title=" ">
<polygon fill="white" stroke="#666666" points="304.25,-93.25 164.5,-93.25 164.5,-74 304.25,-74 304.25,-93.25"/>
<text text-anchor="middle" x="234.38" y="-79.75" font-family="Helvetica,sans-Serif" font-size="10.00">Clipper2Lib::CheckPrecision</text>
</a>
</g>
</g>
<!-- Node1&#45;&gt;Node2 -->
<g id="edge1_Node000001_Node000002" class="edge">
<title>Node1&#45;&gt;Node2</title>
<g id="a_edge1_Node000001_Node000002"><a xlink:title=" ">
<path fill="none" stroke="#63b8ff" d="M111.19,-56.74C131.48,-61.2 155.54,-66.5 176.92,-71.2"/>
<polygon fill="#63b8ff" stroke="#63b8ff" points="175.97,-74.8 186.49,-73.53 177.48,-67.96 175.97,-74.8"/>
</a>
</g>
</g>
<!-- Node3 -->
<g id="Node000003" class="node">
<title>Node3</title>
<g id="a_Node000003"><a xlink:href="../../d6/dba/_wipe_tower_dialog_8cpp.html#a031c2862b832be718b216d1f101f88cd" target="_top" xlink:title=" ">
<polygon fill="white" stroke="#666666" points="254,-56.25 214.75,-56.25 214.75,-37 254,-37 254,-56.25"/>
<text text-anchor="middle" x="234.38" y="-42.75" font-family="Helvetica,sans-Serif" font-size="10.00">scale</text>
</a>
</g>
</g>
<!-- Node1&#45;&gt;Node3 -->
<g id="edge2_Node000001_Node000003" class="edge">
<title>Node1&#45;&gt;Node3</title>
<g id="a_edge2_Node000001_Node000003"><a xlink:title=" ">
<path fill="none" stroke="#63b8ff" d="M128.81,-46.62C154.43,-46.62 182.75,-46.62 203.45,-46.62"/>
<polygon fill="#63b8ff" stroke="#63b8ff" points="203.39,-50.13 213.39,-46.62 203.39,-43.13 203.39,-50.13"/>
</a>
</g>
</g>
<!-- Node4 -->
<g id="Node000004" class="node">
<title>Node4</title>
<g id="a_Node000004"><a xlink:href="../../d5/dd8/namespace_clipper2_lib.html#ac550de5c292e4b1439805848962a3579" target="_top" xlink:title=" ">
<polygon fill="white" stroke="#666666" points="298.62,-19.25 170.12,-19.25 170.12,0 298.62,0 298.62,-19.25"/>
<text text-anchor="middle" x="234.38" y="-5.75" font-family="Helvetica,sans-Serif" font-size="10.00">Clipper2Lib::TrimCollinear</text>
</a>
</g>
</g>
<!-- Node1&#45;&gt;Node4 -->
<g id="edge3_Node000001_Node000004" class="edge">
<title>Node1&#45;&gt;Node4</title>
<g id="a_edge3_Node000001_Node000004"><a xlink:title=" ">
<path fill="none" stroke="#63b8ff" d="M111.19,-36.51C131.48,-32.05 155.54,-26.75 176.92,-22.05"/>
<polygon fill="#63b8ff" stroke="#63b8ff" points="177.48,-25.29 186.49,-19.72 175.97,-18.45 177.48,-25.29"/>
</a>
</g>
</g>
<!-- Node5 -->
<g id="Node000005" class="node">
<title>Node5</title>
<g id="a_Node000005"><a xlink:href="../../d5/dd8/namespace_clipper2_lib.html#a24b9c2624f57e0b47e924fe02728ec48" target="_top" xlink:title=" ">
<polygon fill="white" stroke="#666666" points="471,-19.25 340.25,-19.25 340.25,0 471,0 471,-19.25"/>
<text text-anchor="middle" x="405.62" y="-5.75" font-family="Helvetica,sans-Serif" font-size="10.00">Clipper2Lib::CrossProduct</text>
</a>
</g>
</g>
<!-- Node4&#45;&gt;Node5 -->
<g id="edge4_Node000004_Node000005" class="edge">
<title>Node4&#45;&gt;Node5</title>
<g id="a_edge4_Node000004_Node000005"><a xlink:title=" ">
<path fill="none" stroke="#63b8ff" d="M298.88,-9.62C308.73,-9.62 318.99,-9.62 329.07,-9.62"/>
<polygon fill="#63b8ff" stroke="#63b8ff" points="328.92,-13.13 338.92,-9.62 328.92,-6.13 328.92,-13.13"/>
</a>
</g>
</g>
</g>
</svg>
