<?xml version="1.0" encoding="UTF-8" standalone="no"?>
<!DOCTYPE svg PUBLIC "-//W3C//DTD SVG 1.1//EN"
 "http://www.w3.org/Graphics/SVG/1.1/DTD/svg11.dtd">
<!-- Generated by graphviz version 8.1.0 (20230707.0739)
 -->
<!-- Title: src/boost/nowide/cenv.hpp Pages: 1 -->
<!--zoomable 204 -->

<svg id="main" version="1.1" xmlns="http://www.w3.org/2000/svg" xmlns:xlink="http://www.w3.org/1999/xlink" xml:space="preserve" onload="init(evt)">
<style type="text/css"><![CDATA[
.node, .edge {opacity: 0.7;}
.node.selected, .edge.selected {opacity: 1;}
.edge:hover path { stroke: red; }
.edge:hover polygon { stroke: red; fill: red; }
]]></style>

<defs>
  <circle id="rim" cx="0" cy="0" r="7"/>
  <circle id="rim2" cx="0" cy="0" r="3.5"/>
  <g id="zoomPlus">
    <use xlink:href="#rim" fill="#404040"><set attributeName="fill" to="#808080" begin="zoomplus.mouseover" end="zoomplus.mouseout"/></use>
    <path d="M-4,0h8M0,-4v8" fill="none" stroke="white" stroke-width="1.5" pointer-events="none"/>
  </g>
  <g id="zoomMin">
    <use xlink:href="#rim" fill="#404040"><set attributeName="fill" to="#808080" begin="zoomminus.mouseover" end="zoomminus.mouseout"/></use>
    <path d="M-4,0h8" fill="none" stroke="white" stroke-width="1.5" pointer-events="none"/>
  </g>
  <g id="arrowUp" transform="translate(30 24)">
    <use xlink:href="#rim"/>
    <path pointer-events="none" fill="none" stroke="white" stroke-width="1.5" d="M0,-3.0v7 M-2.5,-0.5L0,-3.0L2.5,-0.5"/>
  </g>
  <g id="arrowRight" transform="rotate(90) translate(36 -43)">
    <use xlink:href="#rim"/>
    <path pointer-events="none" fill="none" stroke="white" stroke-width="1.5" d="M0,-3.0v7 M-2.5,-0.5L0,-3.0L2.5,-0.5"/>
  </g>
  <g id="arrowDown" transform="rotate(180) translate(-30 -48)">
    <use xlink:href="#rim"/>
    <path pointer-events="none" fill="none" stroke="white" stroke-width="1.5" d="M0,-3.0v7 M-2.5,-0.5L0,-3.0L2.5,-0.5"/>
  </g>
  <g id="arrowLeft" transform="rotate(270) translate(-36 17)">
    <use xlink:href="#rim"/>
    <path pointer-events="none" fill="none" stroke="white" stroke-width="1.5" d="M0,-3.0v7 M-2.5,-0.5L0,-3.0L2.5,-0.5"/>
  </g>
  <g id="resetDef">
    <use xlink:href="#rim2" fill="#404040"><set attributeName="fill" to="#808080" begin="reset.mouseover" end="reset.mouseout"/></use>
  </g>
</defs>
<script type="application/ecmascript">
var viewWidth = 1003;
var viewHeight = 204;
var sectionId = 'dynsection-1';
</script>
<script type="application/ecmascript" xlink:href="../../svg.min.js"/>
<svg id="graph" class="graph">
<g id="viewport">
<title>src/boost/nowide/cenv.hpp</title>
<!-- Node1 -->
<g id="Node000001" class="node">
<title>Node1</title>
<g id="a_Node000001"><a xlink:title=" ">
<polygon fill="#999999" stroke="#666666" points="513.88,-196.25 382.38,-196.25 382.38,-177 513.88,-177 513.88,-196.25"/>
<text text-anchor="middle" x="448.12" y="-182.75" font-family="Helvetica,sans-Serif" font-size="10.00">src/boost/nowide/cenv.hpp</text>
</a>
</g>
</g>
<!-- Node2 -->
<g id="Node000002" class="node">
<title>Node2</title>
<g id="a_Node000002"><a xlink:href="../../d8/de2/_orca_slicer_8cpp.html" target="_top" xlink:title=" ">
<polygon fill="white" stroke="#666666" points="96.25,-135.38 0,-135.38 0,-116.12 96.25,-116.12 96.25,-135.38"/>
<text text-anchor="middle" x="48.12" y="-121.88" font-family="Helvetica,sans-Serif" font-size="10.00">src/OrcaSlicer.cpp</text>
</a>
</g>
</g>
<!-- Node1&#45;&gt;Node2 -->
<g id="edge1_Node000001_Node000002" class="edge">
<title>Node1&#45;&gt;Node2</title>
<g id="a_edge1_Node000001_Node000002"><a xlink:title=" ">
<path fill="none" stroke="#63b8ff" d="M371.13,-178.18C301.34,-170.82 195.85,-158.18 105.12,-141 97.51,-139.56 89.39,-137.72 81.74,-135.84"/>
<polygon fill="#63b8ff" stroke="#63b8ff" points="370.7,-181.76 381.01,-179.32 371.43,-174.8 370.7,-181.76"/>
</a>
</g>
</g>
<!-- Node3 -->
<g id="Node000003" class="node">
<title>Node3</title>
<g id="a_Node000003"><a xlink:href="../../d4/da5/cstdlib_8hpp.html" target="_top" xlink:title=" ">
<polygon fill="white" stroke="#666666" points="254.38,-135.38 113.88,-135.38 113.88,-116.12 254.38,-116.12 254.38,-135.38"/>
<text text-anchor="middle" x="184.12" y="-121.88" font-family="Helvetica,sans-Serif" font-size="10.00">src/boost/nowide/cstdlib.hpp</text>
</a>
</g>
</g>
<!-- Node1&#45;&gt;Node3 -->
<g id="edge2_Node000001_Node000003" class="edge">
<title>Node1&#45;&gt;Node3</title>
<g id="a_edge2_Node000001_Node000003"><a xlink:title=" ">
<path fill="none" stroke="#63b8ff" d="M396.83,-174.19C346.6,-162.98 271.08,-146.14 224.84,-135.83"/>
<polygon fill="#63b8ff" stroke="#63b8ff" points="395.93,-177.79 406.45,-176.55 397.46,-170.96 395.93,-177.79"/>
</a>
</g>
</g>
<!-- Node5 -->
<g id="Node000005" class="node">
<title>Node5</title>
<g id="a_Node000005"><a xlink:href="../../d0/dc3/libslic3r_2pchheader_8hpp.html" target="_top" xlink:title=" ">
<polygon fill="white" stroke="#666666" points="347.88,-74.5 216.38,-74.5 216.38,-55.25 347.88,-55.25 347.88,-74.5"/>
<text text-anchor="middle" x="282.12" y="-61" font-family="Helvetica,sans-Serif" font-size="10.00">src/libslic3r/pchheader.hpp</text>
</a>
</g>
</g>
<!-- Node1&#45;&gt;Node5 -->
<g id="edge11_Node000001_Node000005" class="edge">
<title>Node1&#45;&gt;Node5</title>
<g id="a_edge11_Node000001_Node000005"><a xlink:title=" ">
<path fill="none" stroke="#63b8ff" d="M371.53,-177.23C346.46,-170.91 320.4,-159.95 302.12,-141 284.33,-122.54 281.93,-90.1 281.88,-74.6"/>
<polygon fill="#63b8ff" stroke="#63b8ff" points="370.65,-180.85 381.18,-179.67 372.21,-174.03 370.65,-180.85"/>
</a>
</g>
</g>
<!-- Node7 -->
<g id="Node000007" class="node">
<title>Node7</title>
<g id="a_Node000007"><a xlink:href="../../d0/d08/_app_config_8cpp.html" target="_top" xlink:title=" ">
<polygon fill="white" stroke="#666666" points="443.62,-135.38 310.62,-135.38 310.62,-116.12 443.62,-116.12 443.62,-135.38"/>
<text text-anchor="middle" x="377.12" y="-121.88" font-family="Helvetica,sans-Serif" font-size="10.00">src/libslic3r/AppConfig.cpp</text>
</a>
</g>
</g>
<!-- Node1&#45;&gt;Node7 -->
<g id="edge6_Node000001_Node000007" class="edge">
<title>Node1&#45;&gt;Node7</title>
<g id="a_edge6_Node000001_Node000007"><a xlink:title=" ">
<path fill="none" stroke="#63b8ff" d="M428.98,-169.75C415.85,-158.86 398.89,-144.8 388.01,-135.78"/>
<polygon fill="#63b8ff" stroke="#63b8ff" points="426.41,-172.99 436.34,-176.68 430.88,-167.61 426.41,-172.99"/>
</a>
</g>
</g>
<!-- Node8 -->
<g id="Node000008" class="node">
<title>Node8</title>
<g id="a_Node000008"><a xlink:href="../../d7/dd3/_config_8cpp.html" target="_top" xlink:title=" ">
<polygon fill="white" stroke="#666666" points="577,-135.38 461.25,-135.38 461.25,-116.12 577,-116.12 577,-135.38"/>
<text text-anchor="middle" x="519.12" y="-121.88" font-family="Helvetica,sans-Serif" font-size="10.00">src/libslic3r/Config.cpp</text>
</a>
</g>
</g>
<!-- Node1&#45;&gt;Node8 -->
<g id="edge7_Node000001_Node000008" class="edge">
<title>Node1&#45;&gt;Node8</title>
<g id="a_edge7_Node000001_Node000008"><a xlink:title=" ">
<path fill="none" stroke="#63b8ff" d="M467.27,-169.75C480.4,-158.86 497.36,-144.8 508.24,-135.78"/>
<polygon fill="#63b8ff" stroke="#63b8ff" points="465.37,-167.61 459.91,-176.68 469.84,-172.99 465.37,-167.61"/>
</a>
</g>
</g>
<!-- Node9 -->
<g id="Node000009" class="node">
<title>Node9</title>
<g id="a_Node000009"><a xlink:href="../../dd/d43/_post_processor_8cpp.html" target="_top" xlink:title=" ">
<polygon fill="white" stroke="#666666" points="696.88,-141 595.38,-141 595.38,-110.5 696.88,-110.5 696.88,-141"/>
<text text-anchor="start" x="603.38" y="-127.5" font-family="Helvetica,sans-Serif" font-size="10.00">src/libslic3r/GCode</text>
<text text-anchor="middle" x="646.12" y="-116.25" font-family="Helvetica,sans-Serif" font-size="10.00">/PostProcessor.cpp</text>
</a>
</g>
</g>
<!-- Node1&#45;&gt;Node9 -->
<g id="edge8_Node000001_Node000009" class="edge">
<title>Node1&#45;&gt;Node9</title>
<g id="a_edge8_Node000001_Node000009"><a xlink:title=" ">
<path fill="none" stroke="#63b8ff" d="M489.15,-173.43C520.4,-164.13 563.55,-151.3 596.71,-141.44"/>
<polygon fill="#63b8ff" stroke="#63b8ff" points="488.22,-170.35 479.63,-176.55 490.21,-177.06 488.22,-170.35"/>
</a>
</g>
</g>
<!-- Node10 -->
<g id="Node000010" class="node">
<title>Node10</title>
<g id="a_Node000010"><a xlink:href="../../d6/d60/_preset_8cpp.html" target="_top" xlink:title=" ">
<polygon fill="white" stroke="#666666" points="831,-135.38 715.25,-135.38 715.25,-116.12 831,-116.12 831,-135.38"/>
<text text-anchor="middle" x="773.12" y="-121.88" font-family="Helvetica,sans-Serif" font-size="10.00">src/libslic3r/Preset.cpp</text>
</a>
</g>
</g>
<!-- Node1&#45;&gt;Node10 -->
<g id="edge9_Node000001_Node000010" class="edge">
<title>Node1&#45;&gt;Node10</title>
<g id="a_edge9_Node000001_Node000010"><a xlink:title=" ">
<path fill="none" stroke="#63b8ff" d="M515.14,-174.76C567.29,-166.12 641.43,-153.47 706.12,-141 714.42,-139.4 723.26,-137.59 731.72,-135.82"/>
<polygon fill="#63b8ff" stroke="#63b8ff" points="514.65,-171.45 505.35,-176.54 515.79,-178.36 514.65,-171.45"/>
</a>
</g>
</g>
<!-- Node11 -->
<g id="Node000011" class="node">
<title>Node11</title>
<g id="a_Node000011"><a xlink:href="../../d9/d59/_preset_bundle_8cpp.html" target="_top" xlink:title=" ">
<polygon fill="white" stroke="#666666" points="995,-135.38 849.25,-135.38 849.25,-116.12 995,-116.12 995,-135.38"/>
<text text-anchor="middle" x="922.12" y="-121.88" font-family="Helvetica,sans-Serif" font-size="10.00">src/libslic3r/PresetBundle.cpp</text>
</a>
</g>
</g>
<!-- Node1&#45;&gt;Node11 -->
<g id="edge10_Node000001_Node000011" class="edge">
<title>Node1&#45;&gt;Node11</title>
<g id="a_edge10_Node000001_Node000011"><a xlink:title=" ">
<path fill="none" stroke="#63b8ff" d="M525.01,-178.22C604.17,-170.28 731.02,-156.68 840.12,-141 850.71,-139.48 862.03,-137.65 872.77,-135.81"/>
<polygon fill="#63b8ff" stroke="#63b8ff" points="524.77,-174.83 515.17,-179.3 525.47,-181.79 524.77,-174.83"/>
</a>
</g>
</g>
<!-- Node4 -->
<g id="Node000004" class="node">
<title>Node4</title>
<g id="a_Node000004"><a xlink:href="../../df/d40/_g_code_8cpp.html" target="_top" xlink:title=" ">
<polygon fill="white" stroke="#666666" points="198.12,-74.5 80.12,-74.5 80.12,-55.25 198.12,-55.25 198.12,-74.5"/>
<text text-anchor="middle" x="139.12" y="-61" font-family="Helvetica,sans-Serif" font-size="10.00">src/libslic3r/GCode.cpp</text>
</a>
</g>
</g>
<!-- Node3&#45;&gt;Node4 -->
<g id="edge3_Node000003_Node000004" class="edge">
<title>Node3&#45;&gt;Node4</title>
<g id="a_edge3_Node000003_Node000004"><a xlink:title=" ">
<path fill="none" stroke="#63b8ff" d="M170.77,-107.28C162.64,-96.64 152.59,-83.49 146.02,-74.9"/>
<polygon fill="#63b8ff" stroke="#63b8ff" points="168.44,-108.99 177.29,-114.81 174,-104.74 168.44,-108.99"/>
</a>
</g>
</g>
<!-- Node3&#45;&gt;Node5 -->
<g id="edge4_Node000003_Node000005" class="edge">
<title>Node3&#45;&gt;Node5</title>
<g id="a_edge4_Node000003_Node000005"><a xlink:title=" ">
<path fill="none" stroke="#63b8ff" d="M208.23,-110.27C226.64,-99.21 251.43,-84.31 267.1,-74.9"/>
<polygon fill="#63b8ff" stroke="#63b8ff" points="206.78,-107.66 200.01,-115.81 210.38,-113.66 206.78,-107.66"/>
</a>
</g>
</g>
<!-- Node6 -->
<g id="Node000006" class="node">
<title>Node6</title>
<g id="a_Node000006"><a xlink:href="../../d7/dde/libslic3r_2pchheader_8cpp.html" target="_top" xlink:title=" ">
<polygon fill="white" stroke="#666666" points="347.88,-19.25 216.38,-19.25 216.38,0 347.88,0 347.88,-19.25"/>
<text text-anchor="middle" x="282.12" y="-5.75" font-family="Helvetica,sans-Serif" font-size="10.00">src/libslic3r/pchheader.cpp</text>
</a>
</g>
</g>
<!-- Node5&#45;&gt;Node6 -->
<g id="edge5_Node000005_Node000006" class="edge">
<title>Node5&#45;&gt;Node6</title>
<g id="a_edge5_Node000005_Node000006"><a xlink:title=" ">
<path fill="none" stroke="#63b8ff" d="M282.12,-44.21C282.12,-35.77 282.12,-26.33 282.12,-19.61"/>
<polygon fill="#63b8ff" stroke="#63b8ff" points="278.63,-44.08 282.12,-54.08 285.63,-44.08 278.63,-44.08"/>
</a>
</g>
</g>
</g>
</svg>

<g id="navigator" transform="translate(0 0)" fill="#404254">
  <rect fill="#f2f5e9" fill-opacity="0.5" stroke="#606060" stroke-width=".5" x="0" y="0" width="60" height="60"/>
  <use id="zoomplus" xlink:href="#zoomPlus" x="17" y="9" onmousedown="handleZoom(evt,'in')"/>
  <use id="zoomminus" xlink:href="#zoomMin" x="42" y="9" onmousedown="handleZoom(evt,'out')"/>
  <use id="reset" xlink:href="#resetDef" x="30" y="36" onmousedown="handleReset()"/>
   <use id="arrowup" xlink:href="#arrowUp" x="0" y="0" onmousedown="handlePan(0,-1)"/>
  <use id="arrowright" xlink:href="#arrowRight" x="0" y="0" onmousedown="handlePan(1,0)"/>
  <use id="arrowdown" xlink:href="#arrowDown" x="0" y="0" onmousedown="handlePan(0,1)"/>
  <use id="arrowleft" xlink:href="#arrowLeft" x="0" y="0" onmousedown="handlePan(-1,0)"/>
</g>
<svg viewBox="0 0 15 15" width="100%" height="30px" preserveAspectRatio="xMaxYMin meet">
 <g id="arrow_out" transform="scale(0.3 0.3)">
  <a xlink:href="cenv_8hpp__dep__incl_org.svg" target="_base">
   <rect id="button" ry="5" rx="5" y="6" x="6" height="38" width="38"
        fill="#f2f5e9" fill-opacity="0.5" stroke="#606060" stroke-width="1.0"/>
   <path id="arrow"
     d="M 11.500037,31.436501 C 11.940474,20.09759 22.043105,11.32322 32.158766,21.979434 L 37.068811,17.246167 C 37.068811,17.246167 37.088388,32 37.088388,32 L 22.160133,31.978069 C 22.160133,31.978069 26.997745,27.140456 26.997745,27.140456 C 18.528582,18.264221 13.291696,25.230495 11.500037,31.436501 z"
     style="fill:#404040;"/>
  </a>
 </g>
</svg>

<style type='text/css'>
<![CDATA[
[data-mouse-over-selected='false'] { opacity: 0.7; }
[data-mouse-over-selected='true']  { opacity: 1.0; }
]]>
</style>
<script type="application/ecmascript"><![CDATA[
document.addEventListener('DOMContentLoaded', (event) => {
  highlightEdges();
  highlightAdjacentNodes();
});
]]></script>
</svg>
