<?xml version="1.0" encoding="UTF-8" standalone="no"?>
<!DOCTYPE svg PUBLIC "-//W3C//DTD SVG 1.1//EN"
 "http://www.w3.org/Graphics/SVG/1.1/DTD/svg11.dtd">
<!-- Generated by graphviz version 8.1.0 (20230707.0739)
 -->
<!-- Title: Slic3r::Flow::with_flow_ratio Pages: 1 -->
<!--zoomable 174 -->

<svg id="main" version="1.1" xmlns="http://www.w3.org/2000/svg" xmlns:xlink="http://www.w3.org/1999/xlink" xml:space="preserve" onload="init(evt)">
<style type="text/css"><![CDATA[
.node, .edge {opacity: 0.7;}
.node.selected, .edge.selected {opacity: 1;}
.edge:hover path { stroke: red; }
.edge:hover polygon { stroke: red; fill: red; }
]]></style>

<defs>
  <circle id="rim" cx="0" cy="0" r="7"/>
  <circle id="rim2" cx="0" cy="0" r="3.5"/>
  <g id="zoomPlus">
    <use xlink:href="#rim" fill="#404040"><set attributeName="fill" to="#808080" begin="zoomplus.mouseover" end="zoomplus.mouseout"/></use>
    <path d="M-4,0h8M0,-4v8" fill="none" stroke="white" stroke-width="1.5" pointer-events="none"/>
  </g>
  <g id="zoomMin">
    <use xlink:href="#rim" fill="#404040"><set attributeName="fill" to="#808080" begin="zoomminus.mouseover" end="zoomminus.mouseout"/></use>
    <path d="M-4,0h8" fill="none" stroke="white" stroke-width="1.5" pointer-events="none"/>
  </g>
  <g id="arrowUp" transform="translate(30 24)">
    <use xlink:href="#rim"/>
    <path pointer-events="none" fill="none" stroke="white" stroke-width="1.5" d="M0,-3.0v7 M-2.5,-0.5L0,-3.0L2.5,-0.5"/>
  </g>
  <g id="arrowRight" transform="rotate(90) translate(36 -43)">
    <use xlink:href="#rim"/>
    <path pointer-events="none" fill="none" stroke="white" stroke-width="1.5" d="M0,-3.0v7 M-2.5,-0.5L0,-3.0L2.5,-0.5"/>
  </g>
  <g id="arrowDown" transform="rotate(180) translate(-30 -48)">
    <use xlink:href="#rim"/>
    <path pointer-events="none" fill="none" stroke="white" stroke-width="1.5" d="M0,-3.0v7 M-2.5,-0.5L0,-3.0L2.5,-0.5"/>
  </g>
  <g id="arrowLeft" transform="rotate(270) translate(-36 17)">
    <use xlink:href="#rim"/>
    <path pointer-events="none" fill="none" stroke="white" stroke-width="1.5" d="M0,-3.0v7 M-2.5,-0.5L0,-3.0L2.5,-0.5"/>
  </g>
  <g id="resetDef">
    <use xlink:href="#rim2" fill="#404040"><set attributeName="fill" to="#808080" begin="reset.mouseover" end="reset.mouseout"/></use>
  </g>
</defs>
<script type="application/ecmascript">
var viewWidth = 1004;
var viewHeight = 174;
var sectionId = 'dynsection-28';
</script>
<script type="application/ecmascript" xlink:href="../../svg.min.js"/>
<svg id="graph" class="graph">
<g id="viewport">
<title>Slic3r::Flow::with_flow_ratio</title>
<!-- Node1 -->
<g id="Node000001" class="node">
<title>Node1</title>
<g id="a_Node000001"><a xlink:title=" ">
<polygon fill="#999999" stroke="#666666" points="996,-124.5 904.25,-124.5 904.25,-94 996,-94 996,-124.5"/>
<text text-anchor="start" x="912.25" y="-111" font-family="Helvetica,sans-Serif" font-size="10.00">Slic3r::Flow::with</text>
<text text-anchor="middle" x="950.12" y="-99.75" font-family="Helvetica,sans-Serif" font-size="10.00">_flow_ratio</text>
</a>
</g>
</g>
<!-- Node2 -->
<g id="Node000002" class="node">
<title>Node2</title>
<g id="a_Node000002"><a xlink:href="../../d2/d8a/class_slic3r_1_1_print_object_support_material.html#aad85786ced3b000a83b39d91ddb8218e" target="_top" xlink:title=" ">
<polygon fill="white" stroke="#666666" points="868.25,-149.5 694.75,-149.5 694.75,-119 868.25,-119 868.25,-149.5"/>
<text text-anchor="start" x="702.75" y="-136" font-family="Helvetica,sans-Serif" font-size="10.00">Slic3r::PrintObjectSupport</text>
<text text-anchor="middle" x="781.5" y="-124.75" font-family="Helvetica,sans-Serif" font-size="10.00">Material::PrintObjectSupportMaterial</text>
</a>
</g>
</g>
<!-- Node1&#45;&gt;Node2 -->
<g id="edge1_Node000001_Node000002" class="edge">
<title>Node1&#45;&gt;Node2</title>
<g id="a_edge1_Node000001_Node000002"><a xlink:title=" ">
<path fill="none" stroke="#63b8ff" d="M893.16,-117.65C885.27,-118.83 877.02,-120.07 868.72,-121.31"/>
<polygon fill="#63b8ff" stroke="#63b8ff" points="893.66,-120.96 903.03,-116.02 892.63,-114.04 893.66,-120.96"/>
</a>
</g>
</g>
<!-- Node3 -->
<g id="Node000003" class="node">
<title>Node3</title>
<g id="a_Node000003"><a xlink:href="../../dd/d90/class_slic3r_1_1_layer_region.html#a3cb3ea19dd453fa63bf47c3f8d7ab33b" target="_top" xlink:title=" ">
<polygon fill="white" stroke="#666666" points="832.25,-100.5 730.75,-100.5 730.75,-70 832.25,-70 832.25,-100.5"/>
<text text-anchor="start" x="738.75" y="-87" font-family="Helvetica,sans-Serif" font-size="10.00">Slic3r::LayerRegion</text>
<text text-anchor="middle" x="781.5" y="-75.75" font-family="Helvetica,sans-Serif" font-size="10.00">::bridging_flow</text>
</a>
</g>
</g>
<!-- Node1&#45;&gt;Node3 -->
<g id="edge2_Node000001_Node000003" class="edge">
<title>Node1&#45;&gt;Node3</title>
<g id="a_edge2_Node000001_Node000003"><a xlink:title=" ">
<path fill="none" stroke="#63b8ff" d="M893.39,-101.22C873.73,-98.39 851.77,-95.23 832.62,-92.47"/>
<polygon fill="#63b8ff" stroke="#63b8ff" points="892.64,-104.79 903.03,-102.76 893.64,-97.87 892.64,-104.79"/>
</a>
</g>
</g>
<!-- Node4 -->
<g id="Node000004" class="node">
<title>Node4</title>
<g id="a_Node000004"><a xlink:href="../../de/d87/class_slic3r_1_1_print_object.html#af78f101dbc35773b0660a2486738211d" target="_top" xlink:title=" ">
<polygon fill="white" stroke="#666666" points="627.25,-165.5 531.75,-165.5 531.75,-135 627.25,-135 627.25,-165.5"/>
<text text-anchor="start" x="539.75" y="-152" font-family="Helvetica,sans-Serif" font-size="10.00">Slic3r::PrintObject</text>
<text text-anchor="middle" x="579.5" y="-140.75" font-family="Helvetica,sans-Serif" font-size="10.00">::bridge_over_infill</text>
</a>
</g>
</g>
<!-- Node3&#45;&gt;Node4 -->
<g id="edge3_Node000003_Node000004" class="edge">
<title>Node3&#45;&gt;Node4</title>
<g id="a_edge3_Node000003_Node000004"><a xlink:title=" ">
<path fill="none" stroke="#63b8ff" d="M719.94,-101.8C711.43,-104.45 702.82,-107.29 694.75,-110.25 678.31,-116.27 675.15,-120.12 658.75,-126.25 648.77,-129.98 637.92,-133.59 627.57,-136.82"/>
<polygon fill="#63b8ff" stroke="#63b8ff" points="720.7,-104.92 729.25,-98.67 718.67,-98.22 720.7,-104.92"/>
</a>
</g>
</g>
<!-- Node5 -->
<g id="Node000005" class="node">
<title>Node5</title>
<g id="a_Node000005"><a xlink:href="../../de/db8/namespace_slic3r.html#a667e3592bdcf762327118324e2f53e9e" target="_top" xlink:title=" ">
<polygon fill="white" stroke="#666666" points="625,-116.88 534,-116.88 534,-97.62 625,-97.62 625,-116.88"/>
<text text-anchor="middle" x="579.5" y="-103.38" font-family="Helvetica,sans-Serif" font-size="10.00">Slic3r::group_fills</text>
</a>
</g>
</g>
<!-- Node3&#45;&gt;Node5 -->
<g id="edge4_Node000003_Node000005" class="edge">
<title>Node3&#45;&gt;Node5</title>
<g id="a_edge4_Node000003_Node000005"><a xlink:title=" ">
<path fill="none" stroke="#63b8ff" d="M719.39,-91.97C689.04,-95.31 653.02,-99.27 625.27,-102.33"/>
<polygon fill="#63b8ff" stroke="#63b8ff" points="719.73,-95.35 729.29,-90.77 718.97,-88.39 719.73,-95.35"/>
</a>
</g>
</g>
<!-- Node7 -->
<g id="Node000007" class="node">
<title>Node7</title>
<g id="a_Node000007"><a xlink:href="../../dd/d90/class_slic3r_1_1_layer_region.html#a9ecbd4a88f9efefbfbcc162577c8f288" target="_top" xlink:title=" ">
<polygon fill="white" stroke="#666666" points="630.25,-79.5 528.75,-79.5 528.75,-49 630.25,-49 630.25,-79.5"/>
<text text-anchor="start" x="536.75" y="-66" font-family="Helvetica,sans-Serif" font-size="10.00">Slic3r::LayerRegion</text>
<text text-anchor="middle" x="579.5" y="-54.75" font-family="Helvetica,sans-Serif" font-size="10.00">::make_perimeters</text>
</a>
</g>
</g>
<!-- Node3&#45;&gt;Node7 -->
<g id="edge6_Node000003_Node000007" class="edge">
<title>Node3&#45;&gt;Node7</title>
<g id="a_edge6_Node000003_Node000007"><a xlink:title=" ">
<path fill="none" stroke="#63b8ff" d="M719.65,-78.86C691.2,-75.87 657.72,-72.36 630.73,-69.52"/>
<polygon fill="#63b8ff" stroke="#63b8ff" points="718.98,-82.41 729.29,-79.98 719.71,-75.45 718.98,-82.41"/>
</a>
</g>
</g>
<!-- Node9 -->
<g id="Node000009" class="node">
<title>Node9</title>
<g id="a_Node000009"><a xlink:href="../../db/de5/namespace_slic3r_1_1_support_material_internal.html#a03eb8436de875ba8ddcd33afb88df36e" target="_top" xlink:title=" ">
<polygon fill="white" stroke="#666666" points="658.75,-30.5 500.25,-30.5 500.25,0 658.75,0 658.75,-30.5"/>
<text text-anchor="start" x="508.25" y="-17" font-family="Helvetica,sans-Serif" font-size="10.00">Slic3r::SupportMaterialInternal</text>
<text text-anchor="middle" x="579.5" y="-5.75" font-family="Helvetica,sans-Serif" font-size="10.00">::remove_bridges_from_contacts</text>
</a>
</g>
</g>
<!-- Node3&#45;&gt;Node9 -->
<g id="edge8_Node000003_Node000009" class="edge">
<title>Node3&#45;&gt;Node9</title>
<g id="a_edge8_Node000003_Node000009"><a xlink:title=" ">
<path fill="none" stroke="#63b8ff" d="M729.23,-65.72C707.56,-57.62 682,-48.26 658.75,-40.25 649.72,-37.14 640.05,-33.94 630.7,-30.92"/>
<polygon fill="#63b8ff" stroke="#63b8ff" points="727.93,-69.35 738.52,-69.58 730.39,-62.79 727.93,-69.35"/>
</a>
</g>
</g>
<!-- Node6 -->
<g id="Node000006" class="node">
<title>Node6</title>
<g id="a_Node000006"><a xlink:href="../../d1/d68/class_slic3r_1_1_layer.html#a116fc20940c11018c91fb36d81c963cd" target="_top" xlink:title=" ">
<polygon fill="white" stroke="#666666" points="452.62,-125.5 351.88,-125.5 351.88,-95 452.62,-95 452.62,-125.5"/>
<text text-anchor="start" x="359.88" y="-112" font-family="Helvetica,sans-Serif" font-size="10.00">Slic3r::Layer::make</text>
<text text-anchor="middle" x="402.25" y="-100.75" font-family="Helvetica,sans-Serif" font-size="10.00">_fills</text>
</a>
</g>
</g>
<!-- Node5&#45;&gt;Node6 -->
<g id="edge5_Node000005_Node000006" class="edge">
<title>Node5&#45;&gt;Node6</title>
<g id="a_edge5_Node000005_Node000006"><a xlink:title=" ">
<path fill="none" stroke="#63b8ff" d="M523.1,-108.2C500.66,-108.58 474.94,-109.02 453.1,-109.4"/>
<polygon fill="#63b8ff" stroke="#63b8ff" points="522.88,-111.69 532.82,-108.01 522.77,-104.69 522.88,-111.69"/>
</a>
</g>
</g>
<!-- Node8 -->
<g id="Node000008" class="node">
<title>Node8</title>
<g id="a_Node000008"><a xlink:href="../../d1/d68/class_slic3r_1_1_layer.html#ade692e794d3a272a9b6985022eea64e9" target="_top" xlink:title=" ">
<polygon fill="white" stroke="#666666" points="452.62,-76.5 351.88,-76.5 351.88,-46 452.62,-46 452.62,-76.5"/>
<text text-anchor="start" x="359.88" y="-63" font-family="Helvetica,sans-Serif" font-size="10.00">Slic3r::Layer::make</text>
<text text-anchor="middle" x="402.25" y="-51.75" font-family="Helvetica,sans-Serif" font-size="10.00">_perimeters</text>
</a>
</g>
</g>
<!-- Node7&#45;&gt;Node8 -->
<g id="edge7_Node000007_Node000008" class="edge">
<title>Node7&#45;&gt;Node8</title>
<g id="a_edge7_Node000007_Node000008"><a xlink:title=" ">
<path fill="none" stroke="#63b8ff" d="M517.47,-63.21C496.36,-62.84 472.96,-62.44 452.87,-62.1"/>
<polygon fill="#63b8ff" stroke="#63b8ff" points="517.22,-66.72 527.28,-63.39 517.34,-59.72 517.22,-66.72"/>
</a>
</g>
</g>
<!-- Node10 -->
<g id="Node000010" class="node">
<title>Node10</title>
<g id="a_Node000010"><a xlink:href="../../de/db8/namespace_slic3r.html#a218ddd8d0d0e158fe7c18cd30ef604ed" target="_top" xlink:title=" ">
<polygon fill="white" stroke="#666666" points="464.25,-24.88 340.25,-24.88 340.25,-5.62 464.25,-5.62 464.25,-24.88"/>
<text text-anchor="middle" x="402.25" y="-11.38" font-family="Helvetica,sans-Serif" font-size="10.00">Slic3r::detect_overhangs</text>
</a>
</g>
</g>
<!-- Node9&#45;&gt;Node10 -->
<g id="edge9_Node000009_Node000010" class="edge">
<title>Node9&#45;&gt;Node10</title>
<g id="a_edge9_Node000009_Node000010"><a xlink:title=" ">
<path fill="none" stroke="#63b8ff" d="M489,-15.25C480.73,-15.25 472.5,-15.25 464.57,-15.25"/>
<polygon fill="#63b8ff" stroke="#63b8ff" points="488.85,-18.75 498.85,-15.25 488.85,-11.75 488.85,-18.75"/>
</a>
</g>
</g>
<!-- Node11 -->
<g id="Node000011" class="node">
<title>Node11</title>
<g id="a_Node000011"><a xlink:href="../../d2/d8a/class_slic3r_1_1_print_object_support_material.html#a2e498c176aa13f8c7bcf10044d1304fa" target="_top" xlink:title=" ">
<polygon fill="white" stroke="#666666" points="304.25,-30.5 165.25,-30.5 165.25,0 304.25,0 304.25,-30.5"/>
<text text-anchor="start" x="173.25" y="-17" font-family="Helvetica,sans-Serif" font-size="10.00">Slic3r::PrintObjectSupport</text>
<text text-anchor="middle" x="234.75" y="-5.75" font-family="Helvetica,sans-Serif" font-size="10.00">Material::top_contact_layers</text>
</a>
</g>
</g>
<!-- Node10&#45;&gt;Node11 -->
<g id="edge10_Node000010_Node000011" class="edge">
<title>Node10&#45;&gt;Node11</title>
<g id="a_edge10_Node000010_Node000011"><a xlink:title=" ">
<path fill="none" stroke="#63b8ff" d="M329.16,-15.25C321.05,-15.25 312.81,-15.25 304.75,-15.25"/>
<polygon fill="#63b8ff" stroke="#63b8ff" points="329.09,-18.75 339.09,-15.25 329.09,-11.75 329.09,-18.75"/>
</a>
</g>
</g>
<!-- Node12 -->
<g id="Node000012" class="node">
<title>Node12</title>
<g id="a_Node000012"><a xlink:href="../../d2/d8a/class_slic3r_1_1_print_object_support_material.html#aa91db86d2d6af50dc0cb0c8b3b5ffda3" target="_top" xlink:title=" ">
<polygon fill="white" stroke="#666666" points="129.25,-30.5 0,-30.5 0,0 129.25,0 129.25,-30.5"/>
<text text-anchor="start" x="8" y="-17" font-family="Helvetica,sans-Serif" font-size="10.00">Slic3r::PrintObjectSupport</text>
<text text-anchor="middle" x="64.62" y="-5.75" font-family="Helvetica,sans-Serif" font-size="10.00">Material::generate</text>
</a>
</g>
</g>
<!-- Node11&#45;&gt;Node12 -->
<g id="edge11_Node000011_Node000012" class="edge">
<title>Node11&#45;&gt;Node12</title>
<g id="a_edge11_Node000011_Node000012"><a xlink:title=" ">
<path fill="none" stroke="#63b8ff" d="M154.1,-15.25C145.86,-15.25 137.56,-15.25 129.52,-15.25"/>
<polygon fill="#63b8ff" stroke="#63b8ff" points="153.88,-18.75 163.88,-15.25 153.88,-11.75 153.88,-18.75"/>
</a>
</g>
</g>
</g>
</svg>

<g id="navigator" transform="translate(0 0)" fill="#404254">
  <rect fill="#f2f5e9" fill-opacity="0.5" stroke="#606060" stroke-width=".5" x="0" y="0" width="60" height="60"/>
  <use id="zoomplus" xlink:href="#zoomPlus" x="17" y="9" onmousedown="handleZoom(evt,'in')"/>
  <use id="zoomminus" xlink:href="#zoomMin" x="42" y="9" onmousedown="handleZoom(evt,'out')"/>
  <use id="reset" xlink:href="#resetDef" x="30" y="36" onmousedown="handleReset()"/>
   <use id="arrowup" xlink:href="#arrowUp" x="0" y="0" onmousedown="handlePan(0,-1)"/>
  <use id="arrowright" xlink:href="#arrowRight" x="0" y="0" onmousedown="handlePan(1,0)"/>
  <use id="arrowdown" xlink:href="#arrowDown" x="0" y="0" onmousedown="handlePan(0,1)"/>
  <use id="arrowleft" xlink:href="#arrowLeft" x="0" y="0" onmousedown="handlePan(-1,0)"/>
</g>
<svg viewBox="0 0 15 15" width="100%" height="30px" preserveAspectRatio="xMaxYMin meet">
 <g id="arrow_out" transform="scale(0.3 0.3)">
  <a xlink:href="class_slic3r_1_1_flow_abc36bf873d07a474bd5453d029d66dc2_icgraph_org.svg" target="_base">
   <rect id="button" ry="5" rx="5" y="6" x="6" height="38" width="38"
        fill="#f2f5e9" fill-opacity="0.5" stroke="#606060" stroke-width="1.0"/>
   <path id="arrow"
     d="M 11.500037,31.436501 C 11.940474,20.09759 22.043105,11.32322 32.158766,21.979434 L 37.068811,17.246167 C 37.068811,17.246167 37.088388,32 37.088388,32 L 22.160133,31.978069 C 22.160133,31.978069 26.997745,27.140456 26.997745,27.140456 C 18.528582,18.264221 13.291696,25.230495 11.500037,31.436501 z"
     style="fill:#404040;"/>
  </a>
 </g>
</svg>

<style type='text/css'>
<![CDATA[
[data-mouse-over-selected='false'] { opacity: 0.7; }
[data-mouse-over-selected='true']  { opacity: 1.0; }
]]>
</style>
<script type="application/ecmascript"><![CDATA[
document.addEventListener('DOMContentLoaded', (event) => {
  highlightEdges();
  highlightAdjacentNodes();
});
]]></script>
</svg>
