<?xml version="1.0" encoding="UTF-8" standalone="no"?>
<!DOCTYPE svg PUBLIC "-//W3C//DTD SVG 1.1//EN"
 "http://www.w3.org/Graphics/SVG/1.1/DTD/svg11.dtd">
<!-- Generated by graphviz version 8.1.0 (20230707.0739)
 -->
<!-- Title: Slic3r::CalibPressureAdvance::move_to Pages: 1 -->
<svg width="1209pt" height="151pt"
 viewBox="0.00 0.00 1209.00 150.52" xmlns="http://www.w3.org/2000/svg" xmlns:xlink="http://www.w3.org/1999/xlink">
<g id="graph0" class="graph" transform="scale(1 1) rotate(0) translate(4 146.52)">
<title>Slic3r::CalibPressureAdvance::move_to</title>
<!-- Node1 -->
<g id="Node000001" class="node">
<title>Node1</title>
<g id="a_Node000001"><a xlink:title=" ">
<polygon fill="#999999" stroke="#666666" points="1201,-77.52 1054.5,-77.52 1054.5,-47.02 1201,-47.02 1201,-77.52"/>
<text text-anchor="start" x="1062.5" y="-64.02" font-family="Helvetica,sans-Serif" font-size="10.00">Slic3r::CalibPressureAdvance</text>
<text text-anchor="middle" x="1127.75" y="-52.77" font-family="Helvetica,sans-Serif" font-size="10.00">::move_to</text>
</a>
</g>
</g>
<!-- Node2 -->
<g id="Node000002" class="node">
<title>Node2</title>
<g id="a_Node000002"><a xlink:href="../../dd/df4/class_slic3r_1_1_calib_pressure_advance_pattern.html#ae83b557e796795ce4bccca0bf681a23d" target="_top" xlink:title=" ">
<polygon fill="white" stroke="#666666" points="836,-142.52 689.5,-142.52 689.5,-112.02 836,-112.02 836,-142.52"/>
<text text-anchor="start" x="697.5" y="-129.02" font-family="Helvetica,sans-Serif" font-size="10.00">Slic3r::CalibPressureAdvance</text>
<text text-anchor="middle" x="762.75" y="-117.77" font-family="Helvetica,sans-Serif" font-size="10.00">Pattern::draw_box</text>
</a>
</g>
</g>
<!-- Node1&#45;&gt;Node2 -->
<g id="edge1_Node000001_Node000002" class="edge">
<title>Node1&#45;&gt;Node2</title>
<g id="a_edge1_Node000001_Node000002"><a xlink:title=" ">
<path fill="none" stroke="#63b8ff" d="M1075.95,-81.58C1058.02,-87.75 1037.58,-94.06 1018.5,-98.27 957.86,-111.65 887.67,-119.06 836.33,-123.03"/>
<polygon fill="#63b8ff" stroke="#63b8ff" points="1076.92,-84.6 1085.19,-77.98 1074.6,-78 1076.92,-84.6"/>
</a>
</g>
</g>
<!-- Node3 -->
<g id="Node000003" class="node">
<title>Node3</title>
<g id="a_Node000003"><a xlink:href="../../dd/df4/class_slic3r_1_1_calib_pressure_advance_pattern.html#a6603b6cb26325c795857e2662753daf4" target="_top" xlink:title=" ">
<polygon fill="white" stroke="#666666" points="653.5,-99.52 488.25,-99.52 488.25,-69.02 653.5,-69.02 653.5,-99.52"/>
<text text-anchor="start" x="496.25" y="-86.02" font-family="Helvetica,sans-Serif" font-size="10.00">Slic3r::CalibPressureAdvance</text>
<text text-anchor="middle" x="570.88" y="-74.77" font-family="Helvetica,sans-Serif" font-size="10.00">Pattern::generate_custom_gcodes</text>
</a>
</g>
</g>
<!-- Node1&#45;&gt;Node3 -->
<g id="edge12_Node000001_Node000003" class="edge">
<title>Node1&#45;&gt;Node3</title>
<g id="a_edge12_Node000001_Node000003"><a xlink:title=" ">
<path fill="none" stroke="#63b8ff" d="M1043.33,-65.58C938.14,-69.75 758.44,-76.87 653.91,-81.02"/>
<polygon fill="#63b8ff" stroke="#63b8ff" points="1043.36,-69.04 1053.21,-65.14 1043.08,-62.04 1043.36,-69.04"/>
</a>
</g>
</g>
<!-- Node9 -->
<g id="Node000009" class="node">
<title>Node9</title>
<g id="a_Node000009"><a xlink:href="../../db/da5/class_slic3r_1_1_calib_pressure_advance.html#aa7b44c6f4f48347f11baf010850d7172" target="_top" xlink:title=" ">
<polygon fill="white" stroke="#666666" points="1018.5,-56.52 872,-56.52 872,-26.02 1018.5,-26.02 1018.5,-56.52"/>
<text text-anchor="start" x="880" y="-43.02" font-family="Helvetica,sans-Serif" font-size="10.00">Slic3r::CalibPressureAdvance</text>
<text text-anchor="middle" x="945.25" y="-31.77" font-family="Helvetica,sans-Serif" font-size="10.00">::draw_digit</text>
</a>
</g>
</g>
<!-- Node1&#45;&gt;Node9 -->
<g id="edge6_Node000001_Node000009" class="edge">
<title>Node1&#45;&gt;Node9</title>
<g id="a_edge6_Node000001_Node000009"><a xlink:title=" ">
<path fill="none" stroke="#63b8ff" d="M1043.37,-52.57C1035.14,-51.61 1026.84,-50.64 1018.74,-49.7"/>
<polygon fill="#63b8ff" stroke="#63b8ff" points="1042.78,-56.14 1053.11,-53.82 1043.59,-49.19 1042.78,-56.14"/>
</a>
</g>
</g>
<!-- Node11 -->
<g id="Node000011" class="node">
<title>Node11</title>
<g id="a_Node000011"><a xlink:href="../../d3/d8e/class_slic3r_1_1_calib_pressure_advance_line.html#af0054597021a9df634d28e3f90428821" target="_top" xlink:title=" ">
<polygon fill="white" stroke="#666666" points="644.12,-32.52 497.62,-32.52 497.62,-2.02 644.12,-2.02 644.12,-32.52"/>
<text text-anchor="start" x="505.62" y="-19.02" font-family="Helvetica,sans-Serif" font-size="10.00">Slic3r::CalibPressureAdvance</text>
<text text-anchor="middle" x="570.88" y="-7.77" font-family="Helvetica,sans-Serif" font-size="10.00">Line::print_pa_lines</text>
</a>
</g>
</g>
<!-- Node1&#45;&gt;Node11 -->
<g id="edge13_Node000001_Node000011" class="edge">
<title>Node1&#45;&gt;Node11</title>
<g id="a_edge13_Node000001_Node000011"><a xlink:title=" ">
<path fill="none" stroke="#63b8ff" d="M1088.15,-41.86C1067.99,-32.34 1042.57,-22.07 1018.5,-17.27 888.66,8.64 733.33,-0.01 644.28,-8.65"/>
<polygon fill="#63b8ff" stroke="#63b8ff" points="1086.36,-45.36 1096.88,-46.58 1089.41,-39.07 1086.36,-45.36"/>
</a>
</g>
</g>
<!-- Node2&#45;&gt;Node3 -->
<g id="edge2_Node000002_Node000003" class="edge">
<title>Node2&#45;&gt;Node3</title>
<g id="a_edge2_Node000002_Node000003"><a xlink:title=" ">
<path fill="none" stroke="#63b8ff" d="M681.74,-109.15C668.32,-106.11 654.49,-102.98 641.36,-100"/>
<polygon fill="#63b8ff" stroke="#63b8ff" points="680.87,-112.77 691.39,-111.56 682.41,-105.94 680.87,-112.77"/>
</a>
</g>
</g>
<!-- Node4 -->
<g id="Node000004" class="node">
<title>Node4</title>
<g id="a_Node000004"><a xlink:href="../../d7/d21/class_slic3r_1_1_g_u_i_1_1_plater.html#acf6b4efdeaf6f8aa68910c8305c62aba" target="_top" xlink:title=" ">
<polygon fill="white" stroke="#666666" points="428.25,-99.52 329.75,-99.52 329.75,-69.02 428.25,-69.02 428.25,-99.52"/>
<text text-anchor="start" x="337.75" y="-86.02" font-family="Helvetica,sans-Serif" font-size="10.00">Slic3r::GUI::Plater</text>
<text text-anchor="middle" x="379" y="-74.77" font-family="Helvetica,sans-Serif" font-size="10.00">::_calib_pa_pattern</text>
</a>
</g>
</g>
<!-- Node3&#45;&gt;Node4 -->
<g id="edge3_Node000003_Node000004" class="edge">
<title>Node3&#45;&gt;Node4</title>
<g id="a_edge3_Node000003_Node000004"><a xlink:title=" ">
<path fill="none" stroke="#63b8ff" d="M476.99,-84.27C460.22,-84.27 443.36,-84.27 428.52,-84.27"/>
<polygon fill="#63b8ff" stroke="#63b8ff" points="476.97,-87.77 486.97,-84.27 476.97,-80.77 476.97,-87.77"/>
</a>
</g>
</g>
<!-- Node5 -->
<g id="Node000005" class="node">
<title>Node5</title>
<g id="a_Node000005"><a xlink:href="../../d7/d21/class_slic3r_1_1_g_u_i_1_1_plater.html#a2eedfacd5e572cc6a37a4e5d5c479fea" target="_top" xlink:title=" ">
<polygon fill="white" stroke="#666666" points="268.25,-99.52 172,-99.52 172,-69.02 268.25,-69.02 268.25,-99.52"/>
<text text-anchor="start" x="180" y="-86.02" font-family="Helvetica,sans-Serif" font-size="10.00">Slic3r::GUI::Plater</text>
<text text-anchor="middle" x="220.12" y="-74.77" font-family="Helvetica,sans-Serif" font-size="10.00">::calib_pa</text>
</a>
</g>
</g>
<!-- Node4&#45;&gt;Node5 -->
<g id="edge4_Node000004_Node000005" class="edge">
<title>Node4&#45;&gt;Node5</title>
<g id="a_edge4_Node000004_Node000005"><a xlink:title=" ">
<path fill="none" stroke="#63b8ff" d="M318.92,-84.27C302.27,-84.27 284.38,-84.27 268.51,-84.27"/>
<polygon fill="#63b8ff" stroke="#63b8ff" points="318.65,-87.77 328.65,-84.27 318.65,-80.77 318.65,-87.77"/>
</a>
</g>
</g>
<!-- Node6 -->
<g id="Node000006" class="node">
<title>Node6</title>
<g id="a_Node000006"><a xlink:href="../../db/da2/class_slic3r_1_1_g_u_i_1_1_p_a___calibration___dlg.html#a3c5913d15b4f038ade0e3d207a081743" target="_top" xlink:title=" ">
<polygon fill="#fff0f0" stroke="red" points="134.5,-99.52 0,-99.52 0,-69.02 134.5,-69.02 134.5,-99.52"/>
<text text-anchor="start" x="8" y="-86.02" font-family="Helvetica,sans-Serif" font-size="10.00">Slic3r::GUI::PA_Calibration</text>
<text text-anchor="middle" x="67.25" y="-74.77" font-family="Helvetica,sans-Serif" font-size="10.00">_Dlg::on_start</text>
</a>
</g>
</g>
<!-- Node5&#45;&gt;Node6 -->
<g id="edge5_Node000005_Node000006" class="edge">
<title>Node5&#45;&gt;Node6</title>
<g id="a_edge5_Node000005_Node000006"><a xlink:title=" ">
<path fill="none" stroke="#63b8ff" d="M160.8,-84.27C152.27,-84.27 143.43,-84.27 134.75,-84.27"/>
<polygon fill="#63b8ff" stroke="#63b8ff" points="160.8,-87.77 170.8,-84.27 160.8,-80.77 160.8,-87.77"/>
</a>
</g>
</g>
<!-- Node10 -->
<g id="Node000010" class="node">
<title>Node10</title>
<g id="a_Node000010"><a xlink:href="../../db/da5/class_slic3r_1_1_calib_pressure_advance.html#a6353d3546d330d40ec3ebf12177fb481" target="_top" xlink:title=" ">
<polygon fill="white" stroke="#666666" points="836,-56.52 689.5,-56.52 689.5,-26.02 836,-26.02 836,-56.52"/>
<text text-anchor="start" x="697.5" y="-43.02" font-family="Helvetica,sans-Serif" font-size="10.00">Slic3r::CalibPressureAdvance</text>
<text text-anchor="middle" x="762.75" y="-31.77" font-family="Helvetica,sans-Serif" font-size="10.00">::draw_number</text>
</a>
</g>
</g>
<!-- Node9&#45;&gt;Node10 -->
<g id="edge7_Node000009_Node000010" class="edge">
<title>Node9&#45;&gt;Node10</title>
<g id="a_edge7_Node000009_Node000010"><a xlink:title=" ">
<path fill="none" stroke="#63b8ff" d="M860.87,-41.27C852.64,-41.27 844.34,-41.27 836.24,-41.27"/>
<polygon fill="#63b8ff" stroke="#63b8ff" points="860.61,-44.77 870.61,-41.27 860.61,-37.77 860.61,-44.77"/>
</a>
</g>
</g>
<!-- Node10&#45;&gt;Node3 -->
<g id="edge8_Node000010_Node000003" class="edge">
<title>Node10&#45;&gt;Node3</title>
<g id="a_edge8_Node000010_Node000003"><a xlink:title=" ">
<path fill="none" stroke="#63b8ff" d="M681.74,-59.39C668.32,-62.43 654.49,-65.56 641.36,-68.53"/>
<polygon fill="#63b8ff" stroke="#63b8ff" points="682.41,-62.6 691.39,-56.97 680.87,-55.77 682.41,-62.6"/>
</a>
</g>
</g>
<!-- Node10&#45;&gt;Node11 -->
<g id="edge9_Node000010_Node000011" class="edge">
<title>Node10&#45;&gt;Node11</title>
<g id="a_edge9_Node000010_Node000011"><a xlink:title=" ">
<path fill="none" stroke="#63b8ff" d="M678.39,-30.73C667.08,-29.3 655.54,-27.84 644.43,-26.44"/>
<polygon fill="#63b8ff" stroke="#63b8ff" points="677.79,-34.31 688.15,-32.09 678.67,-27.37 677.79,-34.31"/>
</a>
</g>
</g>
<!-- Node12 -->
<g id="Node000012" class="node">
<title>Node12</title>
<g id="a_Node000012"><a xlink:href="../../d3/d8e/class_slic3r_1_1_calib_pressure_advance_line.html#a7059c14f67790cb93d17bb63c219b849" target="_top" xlink:title=" ">
<polygon fill="white" stroke="#666666" points="452.25,-32.52 305.75,-32.52 305.75,-2.02 452.25,-2.02 452.25,-32.52"/>
<text text-anchor="start" x="313.75" y="-19.02" font-family="Helvetica,sans-Serif" font-size="10.00">Slic3r::CalibPressureAdvance</text>
<text text-anchor="middle" x="379" y="-7.77" font-family="Helvetica,sans-Serif" font-size="10.00">Line::generate_test</text>
</a>
</g>
</g>
<!-- Node11&#45;&gt;Node12 -->
<g id="edge10_Node000011_Node000012" class="edge">
<title>Node11&#45;&gt;Node12</title>
<g id="a_edge10_Node000011_Node000012"><a xlink:title=" ">
<path fill="none" stroke="#63b8ff" d="M486.52,-17.27C475.2,-17.27 463.66,-17.27 452.56,-17.27"/>
<polygon fill="#63b8ff" stroke="#63b8ff" points="486.28,-20.77 496.28,-17.27 486.28,-13.77 486.28,-20.77"/>
</a>
</g>
</g>
<!-- Node13 -->
<g id="Node000013" class="node">
<title>Node13</title>
<g id="a_Node000013"><a xlink:href="../../dd/dc8/class_slic3r_1_1_g_code.html#ad5ac0f44c2121cf8d09cc7fde2dae045" target="_top" xlink:title=" ">
<polygon fill="#fff0f0" stroke="red" points="269.75,-32.52 170.5,-32.52 170.5,-2.02 269.75,-2.02 269.75,-32.52"/>
<text text-anchor="start" x="178.5" y="-19.02" font-family="Helvetica,sans-Serif" font-size="10.00">Slic3r::GCode::_do</text>
<text text-anchor="middle" x="220.12" y="-7.77" font-family="Helvetica,sans-Serif" font-size="10.00">_export</text>
</a>
</g>
</g>
<!-- Node12&#45;&gt;Node13 -->
<g id="edge11_Node000012_Node000013" class="edge">
<title>Node12&#45;&gt;Node13</title>
<g id="a_edge11_Node000012_Node000013"><a xlink:title=" ">
<path fill="none" stroke="#63b8ff" d="M294.79,-17.27C286.31,-17.27 277.91,-17.27 269.98,-17.27"/>
<polygon fill="#63b8ff" stroke="#63b8ff" points="294.53,-20.77 304.53,-17.27 294.53,-13.77 294.53,-20.77"/>
</a>
</g>
</g>
</g>
</svg>
