<?xml version="1.0" encoding="UTF-8" standalone="no"?>
<!DOCTYPE svg PUBLIC "-//W3C//DTD SVG 1.1//EN"
 "http://www.w3.org/Graphics/SVG/1.1/DTD/svg11.dtd">
<!-- Generated by graphviz version 8.1.0 (20230707.0739)
 -->
<!-- Title: stl_write_vertex Pages: 1 -->
<svg width="769pt" height="119pt"
 viewBox="0.00 0.00 768.50 118.88" xmlns="http://www.w3.org/2000/svg" xmlns:xlink="http://www.w3.org/1999/xlink">
<g id="graph0" class="graph" transform="scale(1 1) rotate(0) translate(4 114.88)">
<title>stl_write_vertex</title>
<!-- Node1 -->
<g id="Node000001" class="node">
<title>Node1</title>
<g id="a_Node000001"><a xlink:title=" ">
<polygon fill="#999999" stroke="#666666" points="760.5,-88.88 675.5,-88.88 675.5,-69.62 760.5,-69.62 760.5,-88.88"/>
<text text-anchor="middle" x="718" y="-75.38" font-family="Helvetica,sans-Serif" font-size="10.00">stl_write_vertex</text>
</a>
</g>
</g>
<!-- Node2 -->
<g id="Node000002" class="node">
<title>Node2</title>
<g id="a_Node000002"><a xlink:href="../../d3/d80/stl__io_8cpp.html#a91441e60c59522bd75d8d3c8fd9b806e" target="_top" xlink:title=" ">
<polygon fill="white" stroke="#666666" points="639.5,-88.88 559.75,-88.88 559.75,-69.62 639.5,-69.62 639.5,-88.88"/>
<text text-anchor="middle" x="599.62" y="-75.38" font-family="Helvetica,sans-Serif" font-size="10.00">stl_write_facet</text>
</a>
</g>
</g>
<!-- Node1&#45;&gt;Node2 -->
<g id="edge1_Node000001_Node000002" class="edge">
<title>Node1&#45;&gt;Node2</title>
<g id="a_edge1_Node000001_Node000002"><a xlink:title=" ">
<path fill="none" stroke="#63b8ff" d="M664.5,-79.25C656.15,-79.25 647.65,-79.25 639.69,-79.25"/>
<polygon fill="#63b8ff" stroke="#63b8ff" points="664.31,-82.75 674.31,-79.25 664.31,-75.75 664.31,-82.75"/>
</a>
</g>
</g>
<!-- Node3 -->
<g id="Node000003" class="node">
<title>Node3</title>
<g id="a_Node000003"><a xlink:href="../../df/d2d/util_8cpp.html#a63666d9e571f6596f674cde4d0ce98f6" target="_top" xlink:title=" ">
<polygon fill="white" stroke="#666666" points="523.75,-88.88 420.75,-88.88 420.75,-69.62 523.75,-69.62 523.75,-88.88"/>
<text text-anchor="middle" x="472.25" y="-75.38" font-family="Helvetica,sans-Serif" font-size="10.00">stl_verify_neighbors</text>
</a>
</g>
</g>
<!-- Node2&#45;&gt;Node3 -->
<g id="edge2_Node000002_Node000003" class="edge">
<title>Node2&#45;&gt;Node3</title>
<g id="a_edge2_Node000002_Node000003"><a xlink:title=" ">
<path fill="none" stroke="#63b8ff" d="M548.51,-79.25C540.43,-79.25 532.05,-79.25 523.95,-79.25"/>
<polygon fill="#63b8ff" stroke="#63b8ff" points="548.3,-82.75 558.3,-79.25 548.3,-75.75 548.3,-82.75"/>
</a>
</g>
</g>
<!-- Node4 -->
<g id="Node000004" class="node">
<title>Node4</title>
<g id="a_Node000004"><a xlink:href="../../df/d2d/util_8cpp.html#a6866bb2bc379a5a540fef799027de733" target="_top" xlink:title=" ">
<polygon fill="white" stroke="#666666" points="361.5,-110.88 305.75,-110.88 305.75,-91.62 361.5,-91.62 361.5,-110.88"/>
<text text-anchor="middle" x="333.62" y="-97.38" font-family="Helvetica,sans-Serif" font-size="10.00">stl_repair</text>
</a>
</g>
</g>
<!-- Node3&#45;&gt;Node4 -->
<g id="edge3_Node000003_Node000004" class="edge">
<title>Node3&#45;&gt;Node4</title>
<g id="a_edge3_Node000003_Node000004"><a xlink:title=" ">
<path fill="none" stroke="#63b8ff" d="M409.98,-89.12C393.1,-91.83 375.63,-94.65 361.78,-96.88"/>
<polygon fill="#63b8ff" stroke="#63b8ff" points="410.06,-92.49 419.38,-87.44 408.95,-85.58 410.06,-92.49"/>
</a>
</g>
</g>
<!-- Node5 -->
<g id="Node000005" class="node">
<title>Node5</title>
<g id="a_Node000005"><a xlink:href="../../de/db8/namespace_slic3r.html#ae1358859f6a22e50b89d06a5b79eb7b6" target="_top" xlink:title=" ">
<polygon fill="white" stroke="#666666" points="384.75,-73.5 282.5,-73.5 282.5,-43 384.75,-43 384.75,-73.5"/>
<text text-anchor="start" x="290.5" y="-60" font-family="Helvetica,sans-Serif" font-size="10.00">Slic3r::trianglemesh</text>
<text text-anchor="middle" x="333.62" y="-48.75" font-family="Helvetica,sans-Serif" font-size="10.00">_repair_on_import</text>
</a>
</g>
</g>
<!-- Node3&#45;&gt;Node5 -->
<g id="edge4_Node000003_Node000005" class="edge">
<title>Node3&#45;&gt;Node5</title>
<g id="a_edge4_Node000003_Node000005"><a xlink:title=" ">
<path fill="none" stroke="#63b8ff" d="M409.68,-69.79C401.45,-68.52 393.09,-67.24 385.09,-66.01"/>
<polygon fill="#63b8ff" stroke="#63b8ff" points="408.96,-73.37 419.38,-71.43 410.02,-66.45 408.96,-73.37"/>
</a>
</g>
</g>
<!-- Node6 -->
<g id="Node000006" class="node">
<title>Node6</title>
<g id="a_Node000006"><a xlink:href="../../d8/d71/class_slic3r_1_1_triangle_mesh.html#a8153283d6433fdde1a3b6688e0cacc90" target="_top" xlink:title=" ">
<polygon fill="white" stroke="#666666" points="246.5,-73.5 141.25,-73.5 141.25,-43 246.5,-43 246.5,-73.5"/>
<text text-anchor="start" x="149.25" y="-60" font-family="Helvetica,sans-Serif" font-size="10.00">Slic3r::TriangleMesh</text>
<text text-anchor="middle" x="193.88" y="-48.75" font-family="Helvetica,sans-Serif" font-size="10.00">::from_stl</text>
</a>
</g>
</g>
<!-- Node5&#45;&gt;Node6 -->
<g id="edge5_Node000005_Node000006" class="edge">
<title>Node5&#45;&gt;Node6</title>
<g id="a_edge5_Node000005_Node000006"><a xlink:title=" ">
<path fill="none" stroke="#63b8ff" d="M271.14,-58.25C263,-58.25 254.72,-58.25 246.77,-58.25"/>
<polygon fill="#63b8ff" stroke="#63b8ff" points="271.11,-61.75 281.11,-58.25 271.11,-54.75 271.11,-61.75"/>
</a>
</g>
</g>
<!-- Node7 -->
<g id="Node000007" class="node">
<title>Node7</title>
<g id="a_Node000007"><a xlink:href="../../de/db8/namespace_slic3r.html#a1f39c4ce4d1d58c8cc8d9a494b173383" target="_top" xlink:title=" ">
<polygon fill="#fff0f0" stroke="red" points="95.5,-104.88 9.75,-104.88 9.75,-85.62 95.5,-85.62 95.5,-104.88"/>
<text text-anchor="middle" x="52.62" y="-91.38" font-family="Helvetica,sans-Serif" font-size="10.00">Slic3r::load_svg</text>
</a>
</g>
</g>
<!-- Node6&#45;&gt;Node7 -->
<g id="edge6_Node000006_Node000007" class="edge">
<title>Node6&#45;&gt;Node7</title>
<g id="a_edge6_Node000006_Node000007"><a xlink:title=" ">
<path fill="none" stroke="#63b8ff" d="M130.5,-74.82C117.23,-78.35 103.62,-81.97 91.6,-85.16"/>
<polygon fill="#63b8ff" stroke="#63b8ff" points="131.26,-77.98 140.02,-72.03 129.46,-71.21 131.26,-77.98"/>
</a>
</g>
</g>
<!-- Node55 -->
<g id="Node000055" class="node">
<title>Node55</title>
<g id="a_Node000055"><a xlink:href="../../de/db8/namespace_slic3r.html#a62ddc9c1f9c3ad172c3a477891ef9141" target="_top" xlink:title=" ">
<polygon fill="#fff0f0" stroke="red" points="100,-67.88 5.25,-67.88 5.25,-48.62 100,-48.62 100,-67.88"/>
<text text-anchor="middle" x="52.62" y="-54.38" font-family="Helvetica,sans-Serif" font-size="10.00">Slic3r::MakeMesh</text>
</a>
</g>
</g>
<!-- Node6&#45;&gt;Node55 -->
<g id="edge7_Node000006_Node000055" class="edge">
<title>Node6&#45;&gt;Node55</title>
<g id="a_edge7_Node000006_Node000055"><a xlink:title=" ">
<path fill="none" stroke="#63b8ff" d="M130.27,-58.25C120.25,-58.25 110.03,-58.25 100.47,-58.25"/>
<polygon fill="#63b8ff" stroke="#63b8ff" points="130.02,-61.75 140.02,-58.25 130.02,-54.75 130.02,-61.75"/>
</a>
</g>
</g>
<!-- Node62 -->
<g id="Node000062" class="node">
<title>Node62</title>
<g id="a_Node000062"><a xlink:href="../../d8/d71/class_slic3r_1_1_triangle_mesh.html#a20c1b0a4e6852d44037bb8f724442db1" target="_top" xlink:title=" ">
<polygon fill="#fff0f0" stroke="red" points="105.25,-30.5 0,-30.5 0,0 105.25,0 105.25,-30.5"/>
<text text-anchor="start" x="8" y="-17" font-family="Helvetica,sans-Serif" font-size="10.00">Slic3r::TriangleMesh</text>
<text text-anchor="middle" x="52.62" y="-5.75" font-family="Helvetica,sans-Serif" font-size="10.00">::ReadSTLFile</text>
</a>
</g>
</g>
<!-- Node6&#45;&gt;Node62 -->
<g id="edge8_Node000006_Node000062" class="edge">
<title>Node6&#45;&gt;Node62</title>
<g id="a_edge8_Node000006_Node000062"><a xlink:title=" ">
<path fill="none" stroke="#63b8ff" d="M131.97,-39.44C122.8,-36.61 113.42,-33.71 104.49,-30.96"/>
<polygon fill="#63b8ff" stroke="#63b8ff" points="130.62,-43 141.21,-42.6 132.69,-36.31 130.62,-43"/>
</a>
</g>
</g>
</g>
</svg>
