<?xml version="1.0" encoding="UTF-8" standalone="no"?>
<!DOCTYPE svg PUBLIC "-//W3C//DTD SVG 1.1//EN"
 "http://www.w3.org/Graphics/SVG/1.1/DTD/svg11.dtd">
<!-- Generated by graphviz version 8.1.0 (20230707.0739)
 -->
<!-- Title: Slic3r::GUI::ImageGrid::UpdateLayout Pages: 1 -->
<svg width="437pt" height="125pt"
 viewBox="0.00 0.00 437.00 124.50" xmlns="http://www.w3.org/2000/svg" xmlns:xlink="http://www.w3.org/1999/xlink">

<svg id="main" version="1.1" xmlns="http://www.w3.org/2000/svg" xmlns:xlink="http://www.w3.org/1999/xlink" xml:space="preserve" onload="init(evt)">
<style type="text/css"><![CDATA[
.node, .edge {opacity: 0.7;}
.node.selected, .edge.selected {opacity: 1;}
.edge:hover path { stroke: red; }
.edge:hover polygon { stroke: red; fill: red; }
]]></style>
<script type="application/ecmascript" xlink:href="../../svg.min.js"/>
<svg id="graph" class="graph">
<g id="graph0" class="graph" transform="scale(1 1) rotate(0) translate(4 120.5)">
<title>Slic3r::GUI::ImageGrid::UpdateLayout</title>
<!-- Node1 -->
<g id="Node000001" class="node">
<title>Node1</title>
<g id="a_Node000001"><a xlink:title=" ">
<polygon fill="#999999" stroke="#666666" points="115.75,-73.5 0,-73.5 0,-43 115.75,-43 115.75,-73.5"/>
<text text-anchor="start" x="8" y="-60" font-family="Helvetica,sans-Serif" font-size="10.00">Slic3r::GUI::ImageGrid</text>
<text text-anchor="middle" x="57.88" y="-48.75" font-family="Helvetica,sans-Serif" font-size="10.00">::UpdateLayout</text>
</a>
</g>
</g>
<!-- Node2 -->
<g id="Node000002" class="node">
<title>Node2</title>
<g id="a_Node000002"><a xlink:href="../../df/d04/class_slic3r_1_1_g_u_i_1_1_image_grid.html#a80123d048f0d32b661fc2fb7093660b6" target="_top" xlink:title=" ">
<polygon fill="white" stroke="#666666" points="267.5,-116.5 151.75,-116.5 151.75,-86 267.5,-86 267.5,-116.5"/>
<text text-anchor="start" x="159.75" y="-103" font-family="Helvetica,sans-Serif" font-size="10.00">Slic3r::GUI::ImageGrid</text>
<text text-anchor="middle" x="209.62" y="-91.75" font-family="Helvetica,sans-Serif" font-size="10.00">::createAlphaBitmap</text>
</a>
</g>
</g>
<!-- Node1&#45;&gt;Node2 -->
<g id="edge1_Node000001_Node000002" class="edge">
<title>Node1&#45;&gt;Node2</title>
<g id="a_edge1_Node000001_Node000002"><a xlink:title=" ">
<path fill="none" stroke="#63b8ff" d="M113.36,-73.9C123.17,-76.71 133.48,-79.67 143.55,-82.56"/>
<polygon fill="#63b8ff" stroke="#63b8ff" points="142.35,-86.15 152.93,-85.54 144.28,-79.42 142.35,-86.15"/>
</a>
</g>
</g>
<!-- Node3 -->
<g id="Node000003" class="node">
<title>Node3</title>
<g id="a_Node000003"><a xlink:href="../../d7/d58/wx_extensions_8cpp.html#a1ee9ba171a3fbe7352176a4315fee795" target="_top" xlink:title=" ">
<polygon fill="white" stroke="#666666" points="234.88,-67.88 184.38,-67.88 184.38,-48.62 234.88,-48.62 234.88,-67.88"/>
<text text-anchor="middle" x="209.62" y="-54.38" font-family="Helvetica,sans-Serif" font-size="10.00">em_unit</text>
</a>
</g>
</g>
<!-- Node1&#45;&gt;Node3 -->
<g id="edge2_Node000001_Node000003" class="edge">
<title>Node1&#45;&gt;Node3</title>
<g id="a_edge2_Node000001_Node000003"><a xlink:title=" ">
<path fill="none" stroke="#63b8ff" d="M115.92,-58.25C135.31,-58.25 156.39,-58.25 173.55,-58.25"/>
<polygon fill="#63b8ff" stroke="#63b8ff" points="173.2,-61.75 183.2,-58.25 173.2,-54.75 173.2,-61.75"/>
</a>
</g>
</g>
<!-- Node6 -->
<g id="Node000006" class="node">
<title>Node6</title>
<g id="a_Node000006"><a xlink:href="../../df/d04/class_slic3r_1_1_g_u_i_1_1_image_grid.html#af00de48d662706a2a6a5b0a759cff3db" target="_top" xlink:title=" ">
<polygon fill="white" stroke="#666666" points="267.5,-30.5 151.75,-30.5 151.75,0 267.5,0 267.5,-30.5"/>
<text text-anchor="start" x="159.75" y="-17" font-family="Helvetica,sans-Serif" font-size="10.00">Slic3r::GUI::ImageGrid</text>
<text text-anchor="middle" x="209.62" y="-5.75" font-family="Helvetica,sans-Serif" font-size="10.00">::UpdateFocusRange</text>
</a>
</g>
</g>
<!-- Node1&#45;&gt;Node6 -->
<g id="edge5_Node000001_Node000006" class="edge">
<title>Node1&#45;&gt;Node6</title>
<g id="a_edge5_Node000001_Node000006"><a xlink:title=" ">
<path fill="none" stroke="#63b8ff" d="M113.36,-42.6C123.17,-39.79 133.48,-36.83 143.55,-33.94"/>
<polygon fill="#63b8ff" stroke="#63b8ff" points="144.28,-37.08 152.93,-30.96 142.35,-30.35 144.28,-37.08"/>
</a>
</g>
</g>
<!-- Node4 -->
<g id="Node000004" class="node">
<title>Node4</title>
<g id="a_Node000004"><a xlink:href="../../d7/d9a/class_slic3r_1_1_g_u_i_1_1_d_p_i_aware.html#a10bf715638840dfd1312a054e64f8571" target="_top" xlink:title=" ">
<polygon fill="white" stroke="#666666" points="424.12,-98.5 308.38,-98.5 308.38,-68 424.12,-68 424.12,-98.5"/>
<text text-anchor="start" x="316.38" y="-85" font-family="Helvetica,sans-Serif" font-size="10.00">Slic3r::GUI::DPIAware</text>
<text text-anchor="middle" x="366.25" y="-73.75" font-family="Helvetica,sans-Serif" font-size="10.00">::em_unit</text>
</a>
</g>
</g>
<!-- Node3&#45;&gt;Node4 -->
<g id="edge3_Node000003_Node000004" class="edge">
<title>Node3&#45;&gt;Node4</title>
<g id="a_edge3_Node000003_Node000004"><a xlink:title=" ">
<path fill="none" stroke="#63b8ff" d="M235.13,-62.21C251.96,-64.93 275.19,-68.69 297.36,-72.27"/>
<polygon fill="#63b8ff" stroke="#63b8ff" points="296.7,-75.87 307.13,-74.02 297.82,-68.96 296.7,-75.87"/>
</a>
</g>
</g>
<!-- Node5 -->
<g id="Node000005" class="node">
<title>Node5</title>
<g id="a_Node000005"><a xlink:href="../../d9/d45/namespace_slic3r_1_1_g_u_i.html#a160756cff7bc7f94456fb6b61614f579" target="_top" xlink:title=" ">
<polygon fill="white" stroke="#666666" points="429,-49.5 303.5,-49.5 303.5,-19 429,-19 429,-49.5"/>
<text text-anchor="start" x="311.5" y="-36" font-family="Helvetica,sans-Serif" font-size="10.00">Slic3r::GUI::find_toplevel</text>
<text text-anchor="middle" x="366.25" y="-24.75" font-family="Helvetica,sans-Serif" font-size="10.00">_parent</text>
</a>
</g>
</g>
<!-- Node3&#45;&gt;Node5 -->
<g id="edge4_Node000003_Node000005" class="edge">
<title>Node3&#45;&gt;Node5</title>
<g id="a_edge4_Node000003_Node000005"><a xlink:title=" ">
<path fill="none" stroke="#63b8ff" d="M235.13,-54.45C250.72,-52.03 271.8,-48.76 292.45,-45.55"/>
<polygon fill="#63b8ff" stroke="#63b8ff" points="292.83,-48.88 302.17,-43.89 291.75,-41.96 292.83,-48.88"/>
</a>
</g>
</g>
</g>
</svg>
</svg>

<style type='text/css'>
<![CDATA[
[data-mouse-over-selected='false'] { opacity: 0.7; }
[data-mouse-over-selected='true']  { opacity: 1.0; }
]]>
</style>
<script type="application/ecmascript"><![CDATA[
document.addEventListener('DOMContentLoaded', (event) => {
  highlightEdges();
  highlightAdjacentNodes();
});
]]></script>
</svg>
