<?xml version="1.0" encoding="UTF-8" standalone="no"?>
<!DOCTYPE svg PUBLIC "-//W3C//DTD SVG 1.1//EN"
 "http://www.w3.org/Graphics/SVG/1.1/DTD/svg11.dtd">
<!-- Generated by graphviz version 8.1.0 (20230707.0739)
 -->
<!-- Title: Slic3r::arrangement::ArrangePolygon Pages: 1 -->
<svg width="1393pt" height="281pt"
 viewBox="0.00 0.00 1393.25 281.25" xmlns="http://www.w3.org/2000/svg" xmlns:xlink="http://www.w3.org/1999/xlink">
<g id="graph0" class="graph" transform="scale(1 1) rotate(0) translate(4 277.25)">
<title>Slic3r::arrangement::ArrangePolygon</title>
<!-- Node1 -->
<g id="Node000001" class="node">
<title>Node1</title>
<g id="a_Node000001"><a xlink:title="Input/Output structure for the arrange() function. The poly field will not be modified during arrange...">
<polygon fill="#999999" stroke="#666666" points="1385.25,-103.25 1284.5,-103.25 1284.5,-72.75 1385.25,-72.75 1385.25,-103.25"/>
<text text-anchor="start" x="1292.5" y="-89.75" font-family="Helvetica,sans-Serif" font-size="10.00">Slic3r::arrangement</text>
<text text-anchor="middle" x="1334.88" y="-78.5" font-family="Helvetica,sans-Serif" font-size="10.00">::ArrangePolygon</text>
</a>
</g>
</g>
<!-- Node2 -->
<g id="Node000002" class="node">
<title>Node2</title>
<g id="a_Node000002"><a xlink:href="../../db/dc4/class_slic3r_1_1_ex_polygon.html" target="_top" xlink:title=" ">
<polygon fill="white" stroke="#666666" points="1179.88,-243.62 1085.88,-243.62 1085.88,-224.38 1179.88,-224.38 1179.88,-243.62"/>
<text text-anchor="middle" x="1132.88" y="-230.12" font-family="Helvetica,sans-Serif" font-size="10.00">Slic3r::ExPolygon</text>
</a>
</g>
</g>
<!-- Node2&#45;&gt;Node1 -->
<g id="edge1_Node000001_Node000002" class="edge">
<title>Node2&#45;&gt;Node1</title>
<g id="a_edge1_Node000001_Node000002"><a xlink:title=" ">
<path fill="none" stroke="#9a32cd" stroke-dasharray="5,2" d="M1156.11,-217.77C1194.86,-189.48 1274.23,-131.54 1312.42,-103.66"/>
<polygon fill="#9a32cd" stroke="#9a32cd" points="1154.64,-215.24 1148.62,-223.96 1158.76,-220.9 1154.64,-215.24"/>
</a>
</g>
<text text-anchor="middle" x="1242.5" y="-170.75" font-family="Helvetica,sans-Serif" font-size="10.00" fill="grey"> poly</text>
</g>
<!-- Node3 -->
<g id="Node000003" class="node">
<title>Node3</title>
<g id="a_Node000003"><a xlink:href="../../d8/d90/class_slic3r_1_1_polygon.html" target="_top" xlink:title=" ">
<polygon fill="white" stroke="#666666" points="713.25,-243.62 631.25,-243.62 631.25,-224.38 713.25,-224.38 713.25,-243.62"/>
<text text-anchor="middle" x="672.25" y="-230.12" font-family="Helvetica,sans-Serif" font-size="10.00">Slic3r::Polygon</text>
</a>
</g>
</g>
<!-- Node3&#45;&gt;Node2 -->
<g id="edge2_Node000002_Node000003" class="edge">
<title>Node3&#45;&gt;Node2</title>
<g id="a_edge2_Node000002_Node000003"><a xlink:title=" ">
<path fill="none" stroke="#9a32cd" stroke-dasharray="5,2" d="M718.34,-246.58C722.68,-247.51 727.03,-248.34 731.25,-249 870.02,-270.62 907.58,-263.72 1047.25,-249 1059.71,-247.69 1073.11,-245.62 1085.48,-243.44"/>
<polygon fill="#9a32cd" stroke="#9a32cd" points="719.21,-242.95 708.67,-244.09 717.62,-249.77 719.21,-242.95"/>
</a>
</g>
<text text-anchor="middle" x="867.12" y="-263.75" font-family="Helvetica,sans-Serif" font-size="10.00" fill="grey"> contour</text>
</g>
<!-- Node21 -->
<g id="Node000021" class="node">
<title>Node21</title>
<g id="a_Node000021"><a xlink:title=" ">
<polygon fill="white" stroke="#666666" points="925,-243.62 809.25,-243.62 809.25,-224.38 925,-224.38 925,-243.62"/>
<text text-anchor="middle" x="867.12" y="-230.12" font-family="Helvetica,sans-Serif" font-size="10.00">std::vector&lt; Polygon &gt;</text>
</a>
</g>
</g>
<!-- Node3&#45;&gt;Node21 -->
<g id="edge8_Node000021_Node000003" class="edge">
<title>Node3&#45;&gt;Node21</title>
<g id="a_edge8_Node000021_Node000003"><a xlink:title=" ">
<path fill="none" stroke="#9a32cd" stroke-dasharray="5,2" d="M724.45,-234C750.45,-234 782.12,-234 808.92,-234"/>
<polygon fill="#9a32cd" stroke="#9a32cd" points="724.68,-230.5 714.68,-234 724.68,-237.5 724.68,-230.5"/>
</a>
</g>
<text text-anchor="middle" x="757.88" y="-235.75" font-family="Helvetica,sans-Serif" font-size="10.00" fill="grey"> elements</text>
</g>
<!-- Node4 -->
<g id="Node000004" class="node">
<title>Node4</title>
<g id="a_Node000004"><a xlink:href="../../d7/dd1/class_slic3r_1_1_multi_point.html" target="_top" xlink:title=" ">
<polygon fill="white" stroke="#666666" points="486.25,-241.62 396,-241.62 396,-222.38 486.25,-222.38 486.25,-241.62"/>
<text text-anchor="middle" x="441.12" y="-228.12" font-family="Helvetica,sans-Serif" font-size="10.00">Slic3r::MultiPoint</text>
</a>
</g>
</g>
<!-- Node4&#45;&gt;Node3 -->
<g id="edge3_Node000003_Node000004" class="edge">
<title>Node4&#45;&gt;Node3</title>
<g id="a_edge3_Node000003_Node000004"><a xlink:title=" ">
<path fill="none" stroke="#63b8ff" d="M497.5,-232.48C538.61,-232.84 593.73,-233.32 630.76,-233.65"/>
<polygon fill="#63b8ff" stroke="#63b8ff" points="497.6,-228.98 487.57,-232.39 497.54,-235.98 497.6,-228.98"/>
</a>
</g>
</g>
<!-- Node5 -->
<g id="Node000005" class="node">
<title>Node5</title>
<g id="a_Node000005"><a xlink:title=" ">
<polygon fill="white" stroke="#666666" points="269,-236.62 166,-236.62 166,-217.38 269,-217.38 269,-236.62"/>
<text text-anchor="middle" x="217.5" y="-223.12" font-family="Helvetica,sans-Serif" font-size="10.00">std::vector&lt; Point &gt;</text>
</a>
</g>
</g>
<!-- Node5&#45;&gt;Node4 -->
<g id="edge4_Node000004_Node000005" class="edge">
<title>Node5&#45;&gt;Node4</title>
<g id="a_edge4_Node000004_Node000005"><a xlink:title=" ">
<path fill="none" stroke="#9a32cd" stroke-dasharray="5,2" d="M279.92,-228.39C316.58,-229.21 362.31,-230.24 395.52,-230.99"/>
<polygon fill="#9a32cd" stroke="#9a32cd" points="280.42,-224.87 270.35,-228.15 280.26,-231.87 280.42,-224.87"/>
</a>
</g>
<text text-anchor="middle" x="332.5" y="-231.75" font-family="Helvetica,sans-Serif" font-size="10.00" fill="grey"> points</text>
</g>
<!-- Node6 -->
<g id="Node000006" class="node">
<title>Node6</title>
<g id="a_Node000006"><a xlink:href="../../d6/dec/class_slic3r_1_1_point.html" target="_top" xlink:title=" ">
<polygon fill="#fff0f0" stroke="red" points="77.88,-236.62 8.62,-236.62 8.62,-217.38 77.88,-217.38 77.88,-236.62"/>
<text text-anchor="middle" x="43.25" y="-223.12" font-family="Helvetica,sans-Serif" font-size="10.00">Slic3r::Point</text>
</a>
</g>
</g>
<!-- Node6&#45;&gt;Node5 -->
<g id="edge5_Node000005_Node000006" class="edge">
<title>Node6&#45;&gt;Node5</title>
<g id="a_edge5_Node000005_Node000006"><a xlink:title=" ">
<path fill="none" stroke="#9a32cd" stroke-dasharray="5,2" d="M88.98,-227C112.43,-227 141.25,-227 165.55,-227"/>
<polygon fill="#9a32cd" stroke="#9a32cd" points="89.28,-223.5 79.28,-227 89.28,-230.5 89.28,-223.5"/>
</a>
</g>
<text text-anchor="middle" x="126.25" y="-228.75" font-family="Helvetica,sans-Serif" font-size="10.00" fill="grey"> elements</text>
</g>
<!-- Node20 -->
<g id="Node000020" class="node">
<title>Node20</title>
<g id="a_Node000020"><a xlink:title=" ">
<polygon fill="#fff0f0" stroke="red" points="86.5,-126.62 0,-126.62 0,-107.38 86.5,-107.38 86.5,-126.62"/>
<text text-anchor="middle" x="43.25" y="-113.12" font-family="Helvetica,sans-Serif" font-size="10.00">std::vector&lt; T &gt;</text>
</a>
</g>
</g>
<!-- Node20&#45;&gt;Node5 -->
<g id="edge6_Node000005_Node000020" class="edge">
<title>Node20&#45;&gt;Node5</title>
<g id="a_edge6_Node000005_Node000020"><a xlink:title=" ">
<path fill="none" stroke="orange" stroke-dasharray="5,2" d="M68.73,-132.63C104.78,-155.65 171.09,-198 201.07,-217.15"/>
<polygon fill="orange" stroke="orange" points="71.15,-129.39 60.84,-126.96 67.38,-135.29 71.15,-129.39"/>
</a>
</g>
<text text-anchor="middle" x="126.25" y="-182.75" font-family="Helvetica,sans-Serif" font-size="10.00" fill="grey"> &lt; Point &gt;</text>
</g>
<!-- Node20&#45;&gt;Node21 -->
<g id="edge9_Node000021_Node000020" class="edge">
<title>Node20&#45;&gt;Node21</title>
<g id="a_edge9_Node000021_Node000020"><a xlink:title=" ">
<path fill="none" stroke="orange" stroke-dasharray="5,2" d="M97.55,-125.93C131.49,-130.86 176.46,-136 216.5,-136 216.5,-136 216.5,-136 673.25,-136 740.57,-136 741.01,-187.58 802.5,-215 810.08,-218.38 818.43,-221.36 826.52,-223.9"/>
<polygon fill="orange" stroke="orange" points="98.34,-122.36 87.93,-124.35 97.3,-129.29 98.34,-122.36"/>
</a>
</g>
<text text-anchor="middle" x="441.12" y="-137.75" font-family="Helvetica,sans-Serif" font-size="10.00" fill="grey"> &lt; Polygon &gt;</text>
</g>
<!-- Node23 -->
<g id="Node000023" class="node">
<title>Node23</title>
<g id="a_Node000023"><a xlink:title=" ">
<polygon fill="white" stroke="#666666" points="378,-101.62 287,-101.62 287,-82.38 378,-82.38 378,-101.62"/>
<text text-anchor="middle" x="332.5" y="-88.12" font-family="Helvetica,sans-Serif" font-size="10.00">std::vector&lt; int &gt;</text>
</a>
</g>
</g>
<!-- Node20&#45;&gt;Node23 -->
<g id="edge14_Node000023_Node000020" class="edge">
<title>Node20&#45;&gt;Node23</title>
<g id="a_edge14_Node000023_Node000020"><a xlink:title=" ">
<path fill="none" stroke="orange" stroke-dasharray="5,2" d="M97.63,-111.4C99.95,-111.18 102.25,-110.96 104.5,-110.75 167.69,-104.86 240.88,-98.99 286.68,-95.42"/>
<polygon fill="orange" stroke="orange" points="97.31,-108.02 87.7,-112.48 98,-114.98 97.31,-108.02"/>
</a>
</g>
<text text-anchor="middle" x="126.25" y="-111.75" font-family="Helvetica,sans-Serif" font-size="10.00" fill="grey"> &lt; int &gt;</text>
</g>
<!-- Node26 -->
<g id="Node000026" class="node">
<title>Node26</title>
<g id="a_Node000026"><a xlink:title=" ">
<polygon fill="white" stroke="#666666" points="613.25,-22.62 504.25,-22.62 504.25,-3.38 613.25,-3.38 613.25,-22.62"/>
<text text-anchor="middle" x="558.75" y="-9.12" font-family="Helvetica,sans-Serif" font-size="10.00">std::vector&lt; double &gt;</text>
</a>
</g>
</g>
<!-- Node20&#45;&gt;Node26 -->
<g id="edge18_Node000026_Node000020" class="edge">
<title>Node20&#45;&gt;Node26</title>
<g id="a_edge18_Node000026_Node000020"><a xlink:title=" ">
<path fill="none" stroke="orange" stroke-dasharray="5,2" d="M84.8,-103.62C108.33,-96.18 138.63,-87.17 166,-80.75 285.45,-52.74 427.88,-30.97 503.8,-20.27"/>
<polygon fill="orange" stroke="orange" points="83.96,-100.53 75.5,-106.91 86.09,-107.2 83.96,-100.53"/>
</a>
</g>
<text text-anchor="middle" x="217.5" y="-81.75" font-family="Helvetica,sans-Serif" font-size="10.00" fill="grey"> &lt; double &gt;</text>
</g>
<!-- Node21&#45;&gt;Node2 -->
<g id="edge7_Node000002_Node000021" class="edge">
<title>Node21&#45;&gt;Node2</title>
<g id="a_edge7_Node000002_Node000021"><a xlink:title=" ">
<path fill="none" stroke="#9a32cd" stroke-dasharray="5,2" d="M936.06,-234C983.05,-234 1044.33,-234 1085.72,-234"/>
<polygon fill="#9a32cd" stroke="#9a32cd" points="936.35,-230.5 926.35,-234 936.35,-237.5 936.35,-230.5"/>
</a>
</g>
<text text-anchor="middle" x="998.5" y="-235.75" font-family="Helvetica,sans-Serif" font-size="10.00" fill="grey"> holes</text>
</g>
<!-- Node22 -->
<g id="Node000022" class="node">
<title>Node22</title>
<g id="a_Node000022"><a xlink:href="../../d2/d2d/class_eigen_1_1_matrix.html" target="_top" xlink:title=" ">
<polygon fill="white" stroke="#666666" points="1200.5,-152.25 1065.25,-152.25 1065.25,-121.75 1200.5,-121.75 1200.5,-152.25"/>
<text text-anchor="start" x="1073.25" y="-138.75" font-family="Helvetica,sans-Serif" font-size="10.00">Eigen::Matrix&lt; coord</text>
<text text-anchor="middle" x="1132.88" y="-127.5" font-family="Helvetica,sans-Serif" font-size="10.00">_t, 2, 1, Eigen::DontAlign &gt;</text>
</a>
</g>
</g>
<!-- Node22&#45;&gt;Node1 -->
<g id="edge10_Node000001_Node000022" class="edge">
<title>Node22&#45;&gt;Node1</title>
<g id="a_edge10_Node000001_Node000022"><a xlink:title=" ">
<path fill="none" stroke="#9a32cd" stroke-dasharray="5,2" d="M1208.62,-118.69C1233.81,-112.52 1261.28,-105.78 1284.07,-100.2"/>
<polygon fill="#9a32cd" stroke="#9a32cd" points="1207.86,-115.51 1198.98,-121.29 1209.53,-122.31 1207.86,-115.51"/>
</a>
</g>
<text text-anchor="middle" x="1242.5" y="-116.75" font-family="Helvetica,sans-Serif" font-size="10.00" fill="grey"> translation</text>
</g>
<!-- Node8 -->
<g id="Node000008" class="node">
<title>Node8</title>
<g id="a_Node000008"><a xlink:href="../../da/d8d/class_eigen_1_1_plain_object_base.html" target="_top" xlink:title=" ">
<polygon fill="#fff0f0" stroke="red" points="926.88,-206.25 807.38,-206.25 807.38,-175.75 926.88,-175.75 926.88,-206.25"/>
<text text-anchor="start" x="815.38" y="-192.75" font-family="Helvetica,sans-Serif" font-size="10.00">Eigen::PlainObjectBase</text>
<text text-anchor="middle" x="867.12" y="-181.5" font-family="Helvetica,sans-Serif" font-size="10.00">&lt; Derived &gt;</text>
</a>
</g>
</g>
<!-- Node8&#45;&gt;Node22 -->
<g id="edge11_Node000022_Node000008" class="edge">
<title>Node8&#45;&gt;Node22</title>
<g id="a_edge11_Node000022_Node000008"><a xlink:title=" ">
<path fill="none" stroke="#63b8ff" d="M937.64,-183.14C971.02,-178.7 1011.46,-172.35 1047.25,-164 1060.47,-160.92 1074.6,-156.76 1087.45,-152.64"/>
<polygon fill="#63b8ff" stroke="#63b8ff" points="937.53,-179.76 928.06,-184.52 938.43,-186.7 937.53,-179.76"/>
</a>
</g>
</g>
<!-- Node16 -->
<g id="Node000016" class="node">
<title>Node16</title>
<g id="a_Node000016"><a xlink:href="../../d2/d2d/class_eigen_1_1_matrix.html" target="_top" xlink:title="The matrix class, also used for vectors and row&#45;vectors.">
<polygon fill="#fff0f0" stroke="red" points="931.75,-157.88 802.5,-157.88 802.5,-116.12 931.75,-116.12 931.75,-157.88"/>
<text text-anchor="start" x="810.5" y="-144.38" font-family="Helvetica,sans-Serif" font-size="10.00">Eigen::Matrix&lt; _Scalar,</text>
<text text-anchor="start" x="810.5" y="-133.12" font-family="Helvetica,sans-Serif" font-size="10.00"> _Rows, _Cols, _Options,</text>
<text text-anchor="middle" x="867.12" y="-121.88" font-family="Helvetica,sans-Serif" font-size="10.00"> _MaxRows, _MaxCols &gt;</text>
</a>
</g>
</g>
<!-- Node16&#45;&gt;Node22 -->
<g id="edge12_Node000022_Node000016" class="edge">
<title>Node16&#45;&gt;Node22</title>
<g id="a_edge12_Node000022_Node000016"><a xlink:title=" ">
<path fill="none" stroke="orange" stroke-dasharray="5,2" d="M942.59,-137C981.06,-137 1027.62,-137 1064.94,-137"/>
<polygon fill="orange" stroke="orange" points="942.97,-133.5 932.97,-137 942.97,-140.5 942.97,-133.5"/>
</a>
</g>
<text text-anchor="start" x="949.75" y="-150" font-family="Helvetica,sans-Serif" font-size="10.00" fill="grey"> &lt; coord_t, 2, 1, Eigen</text>
<text text-anchor="middle" x="998.5" y="-138.75" font-family="Helvetica,sans-Serif" font-size="10.00" fill="grey">::DontAlign &gt;</text>
</g>
<!-- Node23&#45;&gt;Node1 -->
<g id="edge13_Node000001_Node000023" class="edge">
<title>Node23&#45;&gt;Node1</title>
<g id="a_edge13_Node000001_Node000023"><a xlink:title=" ">
<path fill="none" stroke="#9a32cd" stroke-dasharray="5,2" d="M388.96,-90.46C434.34,-89.33 500.19,-88 557.75,-88 557.75,-88 557.75,-88 1133.88,-88 1185.09,-88 1243.68,-88 1284.15,-88"/>
<polygon fill="#9a32cd" stroke="#9a32cd" points="389.08,-86.98 379.17,-90.73 389.26,-93.98 389.08,-86.98"/>
</a>
</g>
<text text-anchor="middle" x="757.88" y="-89.75" font-family="Helvetica,sans-Serif" font-size="10.00" fill="grey"> extrude_ids</text>
</g>
<!-- Node24 -->
<g id="Node000024" class="node">
<title>Node24</title>
<g id="a_Node000024"><a xlink:title=" ">
<polygon fill="white" stroke="#666666" points="1162.62,-57.62 1103.12,-57.62 1103.12,-38.38 1162.62,-38.38 1162.62,-57.62"/>
<text text-anchor="middle" x="1132.88" y="-44.12" font-family="Helvetica,sans-Serif" font-size="10.00">std::string</text>
</a>
</g>
</g>
<!-- Node24&#45;&gt;Node1 -->
<g id="edge15_Node000001_Node000024" class="edge">
<title>Node24&#45;&gt;Node1</title>
<g id="a_edge15_Node000001_Node000024"><a xlink:title=" ">
<path fill="none" stroke="#9a32cd" stroke-dasharray="5,2" d="M1173.74,-49.85C1200.31,-51.72 1235.84,-55.42 1266.5,-62.75 1276.58,-65.16 1287.21,-68.66 1296.97,-72.29"/>
<polygon fill="#9a32cd" stroke="#9a32cd" points="1174.15,-46.31 1163.95,-49.16 1173.7,-53.29 1174.15,-46.31"/>
</a>
</g>
<text text-anchor="middle" x="1242.5" y="-63.75" font-family="Helvetica,sans-Serif" font-size="10.00" fill="grey"> name</text>
</g>
<!-- Node25 -->
<g id="Node000025" class="node">
<title>Node25</title>
<g id="a_Node000025"><a xlink:title=" ">
<polygon fill="white" stroke="#666666" points="914.12,-60.25 820.12,-60.25 820.12,-29.75 914.12,-29.75 914.12,-60.25"/>
<text text-anchor="start" x="828.12" y="-46.75" font-family="Helvetica,sans-Serif" font-size="10.00">std::basic_string&lt;</text>
<text text-anchor="middle" x="867.12" y="-35.5" font-family="Helvetica,sans-Serif" font-size="10.00"> Char &gt;</text>
</a>
</g>
</g>
<!-- Node25&#45;&gt;Node24 -->
<g id="edge16_Node000024_Node000025" class="edge">
<title>Node25&#45;&gt;Node24</title>
<g id="a_edge16_Node000024_Node000025"><a xlink:title=" ">
<path fill="none" stroke="#63b8ff" d="M925.29,-45.65C979.98,-46.27 1060.25,-47.19 1102.84,-47.67"/>
<polygon fill="#63b8ff" stroke="#63b8ff" points="925.41,-42.14 915.37,-45.53 925.33,-49.14 925.41,-42.14"/>
</a>
</g>
</g>
<!-- Node26&#45;&gt;Node1 -->
<g id="edge17_Node000001_Node000026" class="edge">
<title>Node26&#45;&gt;Node1</title>
<g id="a_edge17_Node000001_Node000026"><a xlink:title=" ">
<path fill="none" stroke="#9a32cd" stroke-dasharray="5,2" d="M624.19,-6.6C662.66,-3.32 712.51,0 756.88,0 756.88,0 756.88,0 1133.88,0 1204.81,0 1278.83,-46.96 1313.58,-72.27"/>
<polygon fill="#9a32cd" stroke="#9a32cd" points="624.31,-3.17 614.65,-7.52 624.92,-10.14 624.31,-3.17"/>
</a>
</g>
<text text-anchor="middle" x="867.12" y="-1.75" font-family="Helvetica,sans-Serif" font-size="10.00" fill="grey"> allowed_rotations</text>
</g>
</g>
</svg>
