<?xml version="1.0" encoding="UTF-8" standalone="no"?>
<!DOCTYPE svg PUBLIC "-//W3C//DTD SVG 1.1//EN"
 "http://www.w3.org/Graphics/SVG/1.1/DTD/svg11.dtd">
<!-- Generated by graphviz version 8.1.0 (20230707.0739)
 -->
<!-- Title: ImGuiLastItemDataBackup::Restore Pages: 1 -->
<!--zoomable 261 -->

<svg id="main" version="1.1" xmlns="http://www.w3.org/2000/svg" xmlns:xlink="http://www.w3.org/1999/xlink" xml:space="preserve" onload="init(evt)">
<style type="text/css"><![CDATA[
.node, .edge {opacity: 0.7;}
.node.selected, .edge.selected {opacity: 1;}
.edge:hover path { stroke: red; }
.edge:hover polygon { stroke: red; fill: red; }
]]></style>

<defs>
  <circle id="rim" cx="0" cy="0" r="7"/>
  <circle id="rim2" cx="0" cy="0" r="3.5"/>
  <g id="zoomPlus">
    <use xlink:href="#rim" fill="#404040"><set attributeName="fill" to="#808080" begin="zoomplus.mouseover" end="zoomplus.mouseout"/></use>
    <path d="M-4,0h8M0,-4v8" fill="none" stroke="white" stroke-width="1.5" pointer-events="none"/>
  </g>
  <g id="zoomMin">
    <use xlink:href="#rim" fill="#404040"><set attributeName="fill" to="#808080" begin="zoomminus.mouseover" end="zoomminus.mouseout"/></use>
    <path d="M-4,0h8" fill="none" stroke="white" stroke-width="1.5" pointer-events="none"/>
  </g>
  <g id="arrowUp" transform="translate(30 24)">
    <use xlink:href="#rim"/>
    <path pointer-events="none" fill="none" stroke="white" stroke-width="1.5" d="M0,-3.0v7 M-2.5,-0.5L0,-3.0L2.5,-0.5"/>
  </g>
  <g id="arrowRight" transform="rotate(90) translate(36 -43)">
    <use xlink:href="#rim"/>
    <path pointer-events="none" fill="none" stroke="white" stroke-width="1.5" d="M0,-3.0v7 M-2.5,-0.5L0,-3.0L2.5,-0.5"/>
  </g>
  <g id="arrowDown" transform="rotate(180) translate(-30 -48)">
    <use xlink:href="#rim"/>
    <path pointer-events="none" fill="none" stroke="white" stroke-width="1.5" d="M0,-3.0v7 M-2.5,-0.5L0,-3.0L2.5,-0.5"/>
  </g>
  <g id="arrowLeft" transform="rotate(270) translate(-36 17)">
    <use xlink:href="#rim"/>
    <path pointer-events="none" fill="none" stroke="white" stroke-width="1.5" d="M0,-3.0v7 M-2.5,-0.5L0,-3.0L2.5,-0.5"/>
  </g>
  <g id="resetDef">
    <use xlink:href="#rim2" fill="#404040"><set attributeName="fill" to="#808080" begin="reset.mouseover" end="reset.mouseout"/></use>
  </g>
</defs>
<script type="application/ecmascript">
var viewWidth = 989;
var viewHeight = 261;
var sectionId = 'dynsection-3';
</script>
<script type="application/ecmascript" xlink:href="../../svg.min.js"/>
<svg id="graph" class="graph">
<g id="viewport">
<title>ImGuiLastItemDataBackup::Restore</title>
<!-- Node1 -->
<g id="Node000001" class="node">
<title>Node1</title>
<g id="a_Node000001"><a xlink:title=" ">
<polygon fill="#999999" stroke="#666666" points="981,-192.88 846.5,-192.88 846.5,-162.38 981,-162.38 981,-192.88"/>
<text text-anchor="start" x="854.5" y="-179.38" font-family="Helvetica,sans-Serif" font-size="10.00">ImGuiLastItemDataBackup</text>
<text text-anchor="middle" x="913.75" y="-168.12" font-family="Helvetica,sans-Serif" font-size="10.00">::Restore</text>
</a>
</g>
</g>
<!-- Node2 -->
<g id="Node000002" class="node">
<title>Node2</title>
<g id="a_Node000002"><a xlink:href="../../df/d13/namespace_im_gui.html#a4d6e6e7a5ace0e5dbee3ea1926ddf049" target="_top" xlink:title=" ">
<polygon fill="white" stroke="#666666" points="798.5,-209.25 673,-209.25 673,-190 798.5,-190 798.5,-209.25"/>
<text text-anchor="middle" x="735.75" y="-195.75" font-family="Helvetica,sans-Serif" font-size="10.00">ImGui::CollapsingHeader</text>
</a>
</g>
</g>
<!-- Node1&#45;&gt;Node2 -->
<g id="edge1_Node000001_Node000002" class="edge">
<title>Node1&#45;&gt;Node2</title>
<g id="a_edge1_Node000001_Node000002"><a xlink:title=" ">
<path fill="none" stroke="#63b8ff" d="M835.5,-187.28C823.21,-188.82 810.62,-190.39 798.74,-191.88"/>
<polygon fill="#63b8ff" stroke="#63b8ff" points="835.72,-190.66 845.21,-185.94 834.86,-183.71 835.72,-190.66"/>
</a>
</g>
</g>
<!-- Node3 -->
<g id="Node000003" class="node">
<title>Node3</title>
<g id="a_Node000003"><a xlink:href="../../df/d13/namespace_im_gui.html#abbdb2619721c7ecaca3fb03d9d905003" target="_top" xlink:title=" ">
<polygon fill="white" stroke="#666666" points="810.5,-171.88 661,-171.88 661,-141.38 810.5,-141.38 810.5,-171.88"/>
<text text-anchor="start" x="669" y="-158.38" font-family="Helvetica,sans-Serif" font-size="10.00">ImGui::TabItemLabelAndClose</text>
<text text-anchor="middle" x="735.75" y="-147.12" font-family="Helvetica,sans-Serif" font-size="10.00">Button</text>
</a>
</g>
</g>
<!-- Node1&#45;&gt;Node3 -->
<g id="edge2_Node000001_Node000003" class="edge">
<title>Node1&#45;&gt;Node3</title>
<g id="a_edge2_Node000001_Node000003"><a xlink:title=" ">
<path fill="none" stroke="#63b8ff" d="M835.5,-168.41C827.28,-167.43 818.93,-166.43 810.75,-165.45"/>
<polygon fill="#63b8ff" stroke="#63b8ff" points="834.87,-171.98 845.21,-169.69 835.7,-165.03 834.87,-171.98"/>
</a>
</g>
</g>
<!-- Node4 -->
<g id="Node000004" class="node">
<title>Node4</title>
<g id="a_Node000004"><a xlink:href="../../df/d13/namespace_im_gui.html#ae714b56ec452ac7b3da815973b62beb8" target="_top" xlink:title=" ">
<polygon fill="white" stroke="#666666" points="625,-166.25 529.5,-166.25 529.5,-147 625,-147 625,-166.25"/>
<text text-anchor="middle" x="577.25" y="-152.75" font-family="Helvetica,sans-Serif" font-size="10.00">ImGui::TabItemEx</text>
</a>
</g>
</g>
<!-- Node3&#45;&gt;Node4 -->
<g id="edge3_Node000003_Node000004" class="edge">
<title>Node3&#45;&gt;Node4</title>
<g id="a_edge3_Node000003_Node000004"><a xlink:title=" ">
<path fill="none" stroke="#63b8ff" d="M649.64,-156.62C641.31,-156.62 633.09,-156.62 625.34,-156.62"/>
<polygon fill="#63b8ff" stroke="#63b8ff" points="649.62,-160.13 659.62,-156.62 649.62,-153.13 649.62,-160.13"/>
</a>
</g>
</g>
<!-- Node5 -->
<g id="Node000005" class="node">
<title>Node5</title>
<g id="a_Node000005"><a xlink:href="../../df/d13/namespace_im_gui.html#a4cee1ccc9018a298cfff90a704bde8ca" target="_top" xlink:title=" ">
<polygon fill="white" stroke="#666666" points="491.62,-148.25 383.38,-148.25 383.38,-129 491.62,-129 491.62,-148.25"/>
<text text-anchor="middle" x="437.5" y="-134.75" font-family="Helvetica,sans-Serif" font-size="10.00">ImGui::BeginTabItem</text>
</a>
</g>
</g>
<!-- Node4&#45;&gt;Node5 -->
<g id="edge4_Node000004_Node000005" class="edge">
<title>Node4&#45;&gt;Node5</title>
<g id="a_edge4_Node000004_Node000005"><a xlink:title=" ">
<path fill="none" stroke="#63b8ff" d="M518.32,-149.06C509.57,-147.91 500.59,-146.74 491.94,-145.61"/>
<polygon fill="#63b8ff" stroke="#63b8ff" points="517.86,-152.66 528.23,-150.48 518.77,-145.71 517.86,-152.66"/>
</a>
</g>
</g>
<!-- Node41 -->
<g id="Node000041" class="node">
<title>Node41</title>
<g id="a_Node000041"><a xlink:href="../../df/d13/namespace_im_gui.html#a1dbc539ac5b49e9445c4573607e6d60d" target="_top" xlink:title=" ">
<polygon fill="white" stroke="#666666" points="493.5,-219.25 381.5,-219.25 381.5,-200 493.5,-200 493.5,-219.25"/>
<text text-anchor="middle" x="437.5" y="-205.75" font-family="Helvetica,sans-Serif" font-size="10.00">ImGui::TabItemButton</text>
</a>
</g>
</g>
<!-- Node4&#45;&gt;Node41 -->
<g id="edge19_Node000004_Node000041" class="edge">
<title>Node4&#45;&gt;Node41</title>
<g id="a_edge19_Node000004_Node000041"><a xlink:title=" ">
<path fill="none" stroke="#63b8ff" d="M540,-170.57C516.32,-179.68 485.96,-191.36 464.64,-199.57"/>
<polygon fill="#63b8ff" stroke="#63b8ff" points="540.94,-173.58 549.02,-166.72 538.43,-167.04 540.94,-173.58"/>
</a>
</g>
</g>
<!-- Node6 -->
<g id="Node000006" class="node">
<title>Node6</title>
<g id="a_Node000006"><a xlink:href="../../d0/d2b/class_slic3r_1_1_g_u_i_1_1_g_l_canvas3_d.html#a870a9e287f144c2b4540ff6bbceddbf6" target="_top" xlink:title=" ">
<polygon fill="white" stroke="#666666" points="323,-215.88 193,-215.88 193,-185.38 323,-185.38 323,-215.88"/>
<text text-anchor="start" x="201" y="-202.38" font-family="Helvetica,sans-Serif" font-size="10.00">Slic3r::GUI::GLCanvas3D</text>
<text text-anchor="middle" x="258" y="-191.12" font-family="Helvetica,sans-Serif" font-size="10.00">::_render_style_editor</text>
</a>
</g>
</g>
<!-- Node5&#45;&gt;Node6 -->
<g id="edge5_Node000005_Node000006" class="edge">
<title>Node5&#45;&gt;Node6</title>
<g id="a_edge5_Node000005_Node000006"><a xlink:title=" ">
<path fill="none" stroke="#63b8ff" d="M405.1,-152.88C387.74,-160.47 365.65,-169.65 345.5,-176.62 337.11,-179.53 328.16,-182.33 319.33,-184.93"/>
<polygon fill="#63b8ff" stroke="#63b8ff" points="406,-155.86 413.73,-148.62 403.17,-149.46 406,-155.86"/>
</a>
</g>
</g>
<!-- Node34 -->
<g id="Node000034" class="node">
<title>Node34</title>
<g id="a_Node000034"><a xlink:href="../../d5/d0a/imgui__demo_8cpp.html#ac209de20c1f862aa48a3f5f27aee407e" target="_top" xlink:title=" ">
<polygon fill="white" stroke="#666666" points="323.75,-130.25 192.25,-130.25 192.25,-111 323.75,-111 323.75,-130.25"/>
<text text-anchor="middle" x="258" y="-116.75" font-family="Helvetica,sans-Serif" font-size="10.00">ShowDemoWindowLayout</text>
</a>
</g>
</g>
<!-- Node5&#45;&gt;Node34 -->
<g id="edge7_Node000005_Node000034" class="edge">
<title>Node5&#45;&gt;Node34</title>
<g id="a_edge7_Node000005_Node000034"><a xlink:title=" ">
<path fill="none" stroke="#63b8ff" d="M372.55,-132.14C356.81,-130.54 339.94,-128.83 324.15,-127.23"/>
<polygon fill="#63b8ff" stroke="#63b8ff" points="371.94,-135.7 382.24,-133.22 372.65,-128.73 371.94,-135.7"/>
</a>
</g>
</g>
<!-- Node36 -->
<g id="Node000036" class="node">
<title>Node36</title>
<g id="a_Node000036"><a xlink:href="../../d5/d0a/imgui__demo_8cpp.html#af533fd0a774d6bbebe61e474db6f144f" target="_top" xlink:title=" ">
<polygon fill="white" stroke="#666666" points="327.12,-253.25 188.88,-253.25 188.88,-234 327.12,-234 327.12,-253.25"/>
<text text-anchor="middle" x="258" y="-239.75" font-family="Helvetica,sans-Serif" font-size="10.00">ShowDemoWindowWidgets</text>
</a>
</g>
</g>
<!-- Node5&#45;&gt;Node36 -->
<g id="edge9_Node000005_Node000036" class="edge">
<title>Node5&#45;&gt;Node36</title>
<g id="a_edge9_Node000005_Node000036"><a xlink:title=" ">
<path fill="none" stroke="#63b8ff" d="M418.24,-155.9C391.71,-180.99 345.64,-224.55 345.5,-224.62 338.7,-228.22 331.26,-231.14 323.69,-233.5"/>
<polygon fill="#63b8ff" stroke="#63b8ff" points="420.22,-158.89 425.08,-149.48 415.41,-153.81 420.22,-158.89"/>
</a>
</g>
</g>
<!-- Node37 -->
<g id="Node000037" class="node">
<title>Node37</title>
<g id="a_Node000037"><a xlink:href="../../d5/d0a/imgui__demo_8cpp.html#a0729207a285af6ef57ce5a31d1a60348" target="_top" xlink:title=" ">
<polygon fill="white" stroke="#666666" points="345.5,-93.25 170.5,-93.25 170.5,-74 345.5,-74 345.5,-93.25"/>
<text text-anchor="middle" x="258" y="-79.75" font-family="Helvetica,sans-Serif" font-size="10.00">ShowExampleAppCustomRendering</text>
</a>
</g>
</g>
<!-- Node5&#45;&gt;Node37 -->
<g id="edge11_Node000005_Node000037" class="edge">
<title>Node5&#45;&gt;Node37</title>
<g id="a_edge11_Node000005_Node000037"><a xlink:title=" ">
<path fill="none" stroke="#63b8ff" d="M405.24,-124.27C387.91,-116.74 365.82,-107.81 345.5,-101.62 335.67,-98.63 325.06,-95.97 314.75,-93.67"/>
<polygon fill="#63b8ff" stroke="#63b8ff" points="403.28,-127.68 413.84,-128.52 406.11,-121.27 403.28,-127.68"/>
</a>
</g>
</g>
<!-- Node38 -->
<g id="Node000038" class="node">
<title>Node38</title>
<g id="a_Node000038"><a xlink:href="../../d5/d0a/imgui__demo_8cpp.html#aa9e4f5130b74080ea2d97916a91b3b3c" target="_top" xlink:title=" ">
<polygon fill="white" stroke="#666666" points="331.25,-56.25 184.75,-56.25 184.75,-37 331.25,-37 331.25,-56.25"/>
<text text-anchor="middle" x="258" y="-42.75" font-family="Helvetica,sans-Serif" font-size="10.00">ShowExampleAppDocuments</text>
</a>
</g>
</g>
<!-- Node5&#45;&gt;Node38 -->
<g id="edge13_Node000005_Node000038" class="edge">
<title>Node5&#45;&gt;Node38</title>
<g id="a_edge13_Node000005_Node000038"><a xlink:title=" ">
<path fill="none" stroke="#63b8ff" d="M420.07,-121.06C403.06,-103.98 374.89,-78.6 345.5,-64.62 338.85,-61.46 331.65,-58.85 324.35,-56.7"/>
<polygon fill="#63b8ff" stroke="#63b8ff" points="417.01,-122.96 426.48,-127.7 422.03,-118.09 417.01,-122.96"/>
</a>
</g>
</g>
<!-- Node39 -->
<g id="Node000039" class="node">
<title>Node39</title>
<g id="a_Node000039"><a xlink:href="../../d5/d0a/imgui__demo_8cpp.html#adfe8516f13b623adbf78b024efd5bb6e" target="_top" xlink:title=" ">
<polygon fill="white" stroke="#666666" points="320.75,-19.25 195.25,-19.25 195.25,0 320.75,0 320.75,-19.25"/>
<text text-anchor="middle" x="258" y="-5.75" font-family="Helvetica,sans-Serif" font-size="10.00">ShowExampleAppLayout</text>
</a>
</g>
</g>
<!-- Node5&#45;&gt;Node39 -->
<g id="edge15_Node000005_Node000039" class="edge">
<title>Node5&#45;&gt;Node39</title>
<g id="a_edge15_Node000005_Node000039"><a xlink:title=" ">
<path fill="none" stroke="#63b8ff" d="M426.14,-119.11C411.63,-93.79 382.8,-50.22 345.5,-27.62 338.02,-23.1 329.59,-19.69 320.99,-17.13"/>
<polygon fill="#63b8ff" stroke="#63b8ff" points="423.55,-120.67 431.46,-127.72 429.68,-117.28 423.55,-120.67"/>
</a>
</g>
</g>
<!-- Node40 -->
<g id="Node000040" class="node">
<title>Node40</title>
<g id="a_Node000040"><a xlink:href="../../df/d13/namespace_im_gui.html#ab2eb3dec78d054fe3feab1c091ec5de5" target="_top" xlink:title=" ">
<polygon fill="white" stroke="#666666" points="318.5,-167.25 197.5,-167.25 197.5,-148 318.5,-148 318.5,-167.25"/>
<text text-anchor="middle" x="258" y="-153.75" font-family="Helvetica,sans-Serif" font-size="10.00">ImGui::ShowStyleEditor</text>
</a>
</g>
</g>
<!-- Node5&#45;&gt;Node40 -->
<g id="edge17_Node000005_Node000040" class="edge">
<title>Node5&#45;&gt;Node40</title>
<g id="a_edge17_Node000005_Node000040"><a xlink:title=" ">
<path fill="none" stroke="#63b8ff" d="M372.53,-145.47C354.99,-147.35 336.04,-149.38 318.74,-151.23"/>
<polygon fill="#63b8ff" stroke="#63b8ff" points="372.67,-148.87 382.24,-144.33 371.93,-141.91 372.67,-148.87"/>
</a>
</g>
</g>
<!-- Node7 -->
<g id="Node000007" class="node">
<title>Node7</title>
<g id="a_Node000007"><a xlink:href="../../d0/d2b/class_slic3r_1_1_g_u_i_1_1_g_l_canvas3_d.html#ab2a817afa6640d4e97519ea4f61c7206" target="_top" xlink:title=" ">
<polygon fill="#fff0f0" stroke="red" points="132.25,-215.88 2.25,-215.88 2.25,-185.38 132.25,-185.38 132.25,-215.88"/>
<text text-anchor="start" x="10.25" y="-202.38" font-family="Helvetica,sans-Serif" font-size="10.00">Slic3r::GUI::GLCanvas3D</text>
<text text-anchor="middle" x="67.25" y="-191.12" font-family="Helvetica,sans-Serif" font-size="10.00">::render</text>
</a>
</g>
</g>
<!-- Node6&#45;&gt;Node7 -->
<g id="edge6_Node000006_Node000007" class="edge">
<title>Node6&#45;&gt;Node7</title>
<g id="a_edge6_Node000006_Node000007"><a xlink:title=" ">
<path fill="none" stroke="#63b8ff" d="M181.99,-200.62C165.68,-200.62 148.57,-200.62 132.71,-200.62"/>
<polygon fill="#63b8ff" stroke="#63b8ff" points="181.57,-204.13 191.57,-200.62 181.57,-197.13 181.57,-204.13"/>
</a>
</g>
</g>
<!-- Node35 -->
<g id="Node000035" class="node">
<title>Node35</title>
<g id="a_Node000035"><a xlink:href="../../df/d13/namespace_im_gui.html#af95643a0ce4893b9e57c12991922fb18" target="_top" xlink:title=" ">
<polygon fill="white" stroke="#666666" points="134.5,-112.25 0,-112.25 0,-93 134.5,-93 134.5,-112.25"/>
<text text-anchor="middle" x="67.25" y="-98.75" font-family="Helvetica,sans-Serif" font-size="10.00">ImGui::ShowDemoWindow</text>
</a>
</g>
</g>
<!-- Node34&#45;&gt;Node35 -->
<g id="edge8_Node000034_Node000035" class="edge">
<title>Node34&#45;&gt;Node35</title>
<g id="a_edge8_Node000034_Node000035"><a xlink:title=" ">
<path fill="none" stroke="#63b8ff" d="M181.26,-113.4C165.87,-111.93 149.79,-110.4 134.76,-108.97"/>
<polygon fill="#63b8ff" stroke="#63b8ff" points="180.49,-116.94 190.78,-114.41 181.16,-109.97 180.49,-116.94"/>
</a>
</g>
</g>
<!-- Node36&#45;&gt;Node35 -->
<g id="edge10_Node000036_Node000035" class="edge">
<title>Node36&#45;&gt;Node35</title>
<g id="a_edge10_Node000036_Node000035"><a xlink:title=" ">
<path fill="none" stroke="#63b8ff" d="M179.15,-229.47C176.15,-228.01 173.26,-226.4 170.5,-224.62 148.07,-210.2 151.41,-197.24 134.5,-176.62 115.04,-152.89 90.61,-126.39 77.53,-112.44"/>
<polygon fill="#63b8ff" stroke="#63b8ff" points="177.42,-232.96 187.99,-233.65 180.15,-226.52 177.42,-232.96"/>
</a>
</g>
</g>
<!-- Node37&#45;&gt;Node35 -->
<g id="edge12_Node000037_Node000035" class="edge">
<title>Node37&#45;&gt;Node35</title>
<g id="a_edge12_Node000037_Node000035"><a xlink:title=" ">
<path fill="none" stroke="#63b8ff" d="M159.27,-93.46C151.05,-94.29 142.85,-95.12 134.95,-95.91"/>
<polygon fill="#63b8ff" stroke="#63b8ff" points="159.48,-96.86 169.08,-92.37 158.78,-89.89 159.48,-96.86"/>
</a>
</g>
</g>
<!-- Node38&#45;&gt;Node35 -->
<g id="edge14_Node000038_Node000035" class="edge">
<title>Node38&#45;&gt;Node35</title>
<g id="a_edge14_Node000038_Node000035"><a xlink:title=" ">
<path fill="none" stroke="#63b8ff" d="M191.73,-59.11C184.53,-60.81 177.33,-62.66 170.5,-64.62 143.2,-72.49 112.79,-84.18 92.28,-92.52"/>
<polygon fill="#63b8ff" stroke="#63b8ff" points="192.27,-62.35 201.24,-56.72 190.72,-55.52 192.27,-62.35"/>
</a>
</g>
</g>
<!-- Node39&#45;&gt;Node35 -->
<g id="edge16_Node000039_Node000035" class="edge">
<title>Node39&#45;&gt;Node35</title>
<g id="a_edge16_Node000039_Node000035"><a xlink:title=" ">
<path fill="none" stroke="#63b8ff" d="M184.81,-22.17C179.89,-23.78 175.08,-25.59 170.5,-27.62 133.09,-44.29 96.07,-76.33 78.61,-92.61"/>
<polygon fill="#63b8ff" stroke="#63b8ff" points="185.42,-25.34 194.02,-19.14 183.43,-18.63 185.42,-25.34"/>
</a>
</g>
</g>
<!-- Node40&#45;&gt;Node35 -->
<g id="edge18_Node000040_Node000035" class="edge">
<title>Node40&#45;&gt;Node35</title>
<g id="a_edge18_Node000040_Node000035"><a xlink:title=" ">
<path fill="none" stroke="#63b8ff" d="M192.06,-145.16C184.75,-143.44 177.44,-141.59 170.5,-139.62 143.44,-131.95 113.24,-120.68 92.72,-112.59"/>
<polygon fill="#63b8ff" stroke="#63b8ff" points="191.2,-148.78 201.73,-147.56 192.74,-141.95 191.2,-148.78"/>
</a>
</g>
</g>
<!-- Node41&#45;&gt;Node36 -->
<g id="edge20_Node000041_Node000036" class="edge">
<title>Node41&#45;&gt;Node36</title>
<g id="a_edge20_Node000041_Node000036"><a xlink:title=" ">
<path fill="none" stroke="#63b8ff" d="M373.07,-221.77C352.92,-225.63 330.87,-229.86 311.57,-233.55"/>
<polygon fill="#63b8ff" stroke="#63b8ff" points="373.56,-225.05 382.72,-219.73 372.24,-218.18 373.56,-225.05"/>
</a>
</g>
</g>
</g>
</svg>

<g id="navigator" transform="translate(0 0)" fill="#404254">
  <rect fill="#f2f5e9" fill-opacity="0.5" stroke="#606060" stroke-width=".5" x="0" y="0" width="60" height="60"/>
  <use id="zoomplus" xlink:href="#zoomPlus" x="17" y="9" onmousedown="handleZoom(evt,'in')"/>
  <use id="zoomminus" xlink:href="#zoomMin" x="42" y="9" onmousedown="handleZoom(evt,'out')"/>
  <use id="reset" xlink:href="#resetDef" x="30" y="36" onmousedown="handleReset()"/>
   <use id="arrowup" xlink:href="#arrowUp" x="0" y="0" onmousedown="handlePan(0,-1)"/>
  <use id="arrowright" xlink:href="#arrowRight" x="0" y="0" onmousedown="handlePan(1,0)"/>
  <use id="arrowdown" xlink:href="#arrowDown" x="0" y="0" onmousedown="handlePan(0,1)"/>
  <use id="arrowleft" xlink:href="#arrowLeft" x="0" y="0" onmousedown="handlePan(-1,0)"/>
</g>
<svg viewBox="0 0 15 15" width="100%" height="30px" preserveAspectRatio="xMaxYMin meet">
 <g id="arrow_out" transform="scale(0.3 0.3)">
  <a xlink:href="struct_im_gui_last_item_data_backup_a71462ead9a6d6d3c97ecdcfeffc05e70_icgraph_org.svg" target="_base">
   <rect id="button" ry="5" rx="5" y="6" x="6" height="38" width="38"
        fill="#f2f5e9" fill-opacity="0.5" stroke="#606060" stroke-width="1.0"/>
   <path id="arrow"
     d="M 11.500037,31.436501 C 11.940474,20.09759 22.043105,11.32322 32.158766,21.979434 L 37.068811,17.246167 C 37.068811,17.246167 37.088388,32 37.088388,32 L 22.160133,31.978069 C 22.160133,31.978069 26.997745,27.140456 26.997745,27.140456 C 18.528582,18.264221 13.291696,25.230495 11.500037,31.436501 z"
     style="fill:#404040;"/>
  </a>
 </g>
</svg>

<style type='text/css'>
<![CDATA[
[data-mouse-over-selected='false'] { opacity: 0.7; }
[data-mouse-over-selected='true']  { opacity: 1.0; }
]]>
</style>
<script type="application/ecmascript"><![CDATA[
document.addEventListener('DOMContentLoaded', (event) => {
  highlightEdges();
  highlightAdjacentNodes();
});
]]></script>
</svg>
