<?xml version="1.0" encoding="UTF-8" standalone="no"?>
<!DOCTYPE svg PUBLIC "-//W3C//DTD SVG 1.1//EN"
 "http://www.w3.org/Graphics/SVG/1.1/DTD/svg11.dtd">
<!-- Generated by graphviz version 8.1.0 (20230707.0739)
 -->
<!-- Title: Slic3r::GUI::ProgressDialog::Update Pages: 1 -->
<!--zoomable 472 -->

<svg id="main" version="1.1" xmlns="http://www.w3.org/2000/svg" xmlns:xlink="http://www.w3.org/1999/xlink" xml:space="preserve" onload="init(evt)">
<style type="text/css"><![CDATA[
.node, .edge {opacity: 0.7;}
.node.selected, .edge.selected {opacity: 1;}
.edge:hover path { stroke: red; }
.edge:hover polygon { stroke: red; fill: red; }
]]></style>

<defs>
  <circle id="rim" cx="0" cy="0" r="7"/>
  <circle id="rim2" cx="0" cy="0" r="3.5"/>
  <g id="zoomPlus">
    <use xlink:href="#rim" fill="#404040"><set attributeName="fill" to="#808080" begin="zoomplus.mouseover" end="zoomplus.mouseout"/></use>
    <path d="M-4,0h8M0,-4v8" fill="none" stroke="white" stroke-width="1.5" pointer-events="none"/>
  </g>
  <g id="zoomMin">
    <use xlink:href="#rim" fill="#404040"><set attributeName="fill" to="#808080" begin="zoomminus.mouseover" end="zoomminus.mouseout"/></use>
    <path d="M-4,0h8" fill="none" stroke="white" stroke-width="1.5" pointer-events="none"/>
  </g>
  <g id="arrowUp" transform="translate(30 24)">
    <use xlink:href="#rim"/>
    <path pointer-events="none" fill="none" stroke="white" stroke-width="1.5" d="M0,-3.0v7 M-2.5,-0.5L0,-3.0L2.5,-0.5"/>
  </g>
  <g id="arrowRight" transform="rotate(90) translate(36 -43)">
    <use xlink:href="#rim"/>
    <path pointer-events="none" fill="none" stroke="white" stroke-width="1.5" d="M0,-3.0v7 M-2.5,-0.5L0,-3.0L2.5,-0.5"/>
  </g>
  <g id="arrowDown" transform="rotate(180) translate(-30 -48)">
    <use xlink:href="#rim"/>
    <path pointer-events="none" fill="none" stroke="white" stroke-width="1.5" d="M0,-3.0v7 M-2.5,-0.5L0,-3.0L2.5,-0.5"/>
  </g>
  <g id="arrowLeft" transform="rotate(270) translate(-36 17)">
    <use xlink:href="#rim"/>
    <path pointer-events="none" fill="none" stroke="white" stroke-width="1.5" d="M0,-3.0v7 M-2.5,-0.5L0,-3.0L2.5,-0.5"/>
  </g>
  <g id="resetDef">
    <use xlink:href="#rim2" fill="#404040"><set attributeName="fill" to="#808080" begin="reset.mouseover" end="reset.mouseout"/></use>
  </g>
</defs>
<script type="application/ecmascript">
var viewWidth = 666;
var viewHeight = 472;
var sectionId = 'dynsection-44';
</script>
<script type="application/ecmascript" xlink:href="../../svg.min.js"/>
<svg id="graph" class="graph">
<g id="viewport">
<title>Slic3r::GUI::ProgressDialog::Update</title>
<!-- Node1 -->
<g id="Node000001" class="node">
<title>Node1</title>
<g id="a_Node000001"><a xlink:title=" ">
<polygon fill="#999999" stroke="#666666" points="137.5,-246.88 0,-246.88 0,-216.38 137.5,-216.38 137.5,-246.88"/>
<text text-anchor="start" x="8" y="-233.38" font-family="Helvetica,sans-Serif" font-size="10.00">Slic3r::GUI::ProgressDialog</text>
<text text-anchor="middle" x="68.75" y="-222.12" font-family="Helvetica,sans-Serif" font-size="10.00">::Update</text>
</a>
</g>
</g>
<!-- Node2 -->
<g id="Node000002" class="node">
<title>Node2</title>
<g id="a_Node000002"><a xlink:href="../../d3/d23/class_slic3r_1_1_g_u_i_1_1_progress_dialog.html#af4c36dbff7750c13d92b70ce676f4637" target="_top" xlink:title=" ">
<polygon fill="white" stroke="#666666" points="311,-463.88 173.5,-463.88 173.5,-433.38 311,-433.38 311,-463.88"/>
<text text-anchor="start" x="181.5" y="-450.38" font-family="Helvetica,sans-Serif" font-size="10.00">Slic3r::GUI::ProgressDialog</text>
<text text-anchor="middle" x="242.25" y="-439.12" font-family="Helvetica,sans-Serif" font-size="10.00">::DisableSkip</text>
</a>
</g>
</g>
<!-- Node1&#45;&gt;Node2 -->
<g id="edge1_Node000001_Node000002" class="edge">
<title>Node1&#45;&gt;Node2</title>
<g id="a_edge1_Node000001_Node000002"><a xlink:title=" ">
<path fill="none" stroke="#63b8ff" d="M74.01,-247.22C84.67,-283.37 115.82,-373.6 173.5,-423.62 175.06,-424.98 176.71,-426.26 178.41,-427.48"/>
<polygon fill="#63b8ff" stroke="#63b8ff" points="176.04,-430.75 186.39,-433.02 179.72,-424.79 176.04,-430.75"/>
</a>
</g>
</g>
<!-- Node3 -->
<g id="Node000003" class="node">
<title>Node3</title>
<g id="a_Node000003"><a xlink:href="../../d3/d23/class_slic3r_1_1_g_u_i_1_1_progress_dialog.html#a20f42b7d56e163162e83afc31bc137d2" target="_top" xlink:title=" ">
<polygon fill="white" stroke="#666666" points="311,-414.88 173.5,-414.88 173.5,-384.38 311,-384.38 311,-414.88"/>
<text text-anchor="start" x="181.5" y="-401.38" font-family="Helvetica,sans-Serif" font-size="10.00">Slic3r::GUI::ProgressDialog</text>
<text text-anchor="middle" x="242.25" y="-390.12" font-family="Helvetica,sans-Serif" font-size="10.00">::DoAfterUpdate</text>
</a>
</g>
</g>
<!-- Node1&#45;&gt;Node3 -->
<g id="edge2_Node000001_Node000003" class="edge">
<title>Node1&#45;&gt;Node3</title>
<g id="a_edge2_Node000001_Node000003"><a xlink:title=" ">
<path fill="none" stroke="#63b8ff" d="M77.16,-247.3C91.67,-276.41 126.56,-339.06 173.5,-374.62 175.41,-376.07 177.41,-377.44 179.48,-378.74"/>
<polygon fill="#63b8ff" stroke="#63b8ff" points="177.46,-382.17 187.9,-383.96 180.85,-376.05 177.46,-382.17"/>
</a>
</g>
</g>
<!-- Node4 -->
<g id="Node000004" class="node">
<title>Node4</title>
<g id="a_Node000004"><a xlink:href="../../d3/d23/class_slic3r_1_1_g_u_i_1_1_progress_dialog.html#ac26b343f2620fbd86190a2bc383ddebe" target="_top" xlink:title=" ">
<polygon fill="white" stroke="#666666" points="311,-365.88 173.5,-365.88 173.5,-335.38 311,-335.38 311,-365.88"/>
<text text-anchor="start" x="181.5" y="-352.38" font-family="Helvetica,sans-Serif" font-size="10.00">Slic3r::GUI::ProgressDialog</text>
<text text-anchor="middle" x="242.25" y="-341.12" font-family="Helvetica,sans-Serif" font-size="10.00">::DoBeforeUpdate</text>
</a>
</g>
</g>
<!-- Node1&#45;&gt;Node4 -->
<g id="edge3_Node000001_Node000004" class="edge">
<title>Node1&#45;&gt;Node4</title>
<g id="a_edge3_Node000001_Node000004"><a xlink:title=" ">
<path fill="none" stroke="#63b8ff" d="M84.7,-247.3C103.85,-266.71 138.74,-299.86 173.5,-321.62 178.45,-324.72 183.78,-327.64 189.21,-330.34"/>
<polygon fill="#63b8ff" stroke="#63b8ff" points="187.48,-333.86 198.02,-334.95 190.46,-327.53 187.48,-333.86"/>
</a>
</g>
</g>
<!-- Node6 -->
<g id="Node000006" class="node">
<title>Node6</title>
<g id="a_Node000006"><a xlink:href="../../d3/d23/class_slic3r_1_1_g_u_i_1_1_progress_dialog.html#a01781eb82e61aab49bc4f1e932180c85" target="_top" xlink:title=" ">
<polygon fill="white" stroke="#666666" points="658,-262.88 520.5,-262.88 520.5,-232.38 658,-232.38 658,-262.88"/>
<text text-anchor="start" x="528.5" y="-249.38" font-family="Helvetica,sans-Serif" font-size="10.00">Slic3r::GUI::ProgressDialog</text>
<text text-anchor="middle" x="589.25" y="-238.12" font-family="Helvetica,sans-Serif" font-size="10.00">::HasPDFlag</text>
</a>
</g>
</g>
<!-- Node1&#45;&gt;Node6 -->
<g id="edge9_Node000001_Node000006" class="edge">
<title>Node1&#45;&gt;Node6</title>
<g id="a_edge9_Node000001_Node000006"><a xlink:title=" ">
<path fill="none" stroke="#63b8ff" d="M137.78,-239.42C149.68,-240.62 161.94,-241.75 173.5,-242.62 311.37,-253.1 346.25,-252.62 484.5,-250.62 492.52,-250.51 500.88,-250.34 509.23,-250.15"/>
<polygon fill="#63b8ff" stroke="#63b8ff" points="509.26,-253.62 519.17,-249.87 509.09,-246.63 509.26,-253.62"/>
</a>
</g>
</g>
<!-- Node7 -->
<g id="Node000007" class="node">
<title>Node7</title>
<g id="a_Node000007"><a xlink:href="../../d3/d23/class_slic3r_1_1_g_u_i_1_1_progress_dialog.html#ac0d9b0c9248c369d4b7914d98d787224" target="_top" xlink:title=" ">
<polygon fill="white" stroke="#666666" points="484.5,-327.88 347,-327.88 347,-297.38 484.5,-297.38 484.5,-327.88"/>
<text text-anchor="start" x="355" y="-314.38" font-family="Helvetica,sans-Serif" font-size="10.00">Slic3r::GUI::ProgressDialog</text>
<text text-anchor="middle" x="415.75" y="-303.12" font-family="Helvetica,sans-Serif" font-size="10.00">::Update</text>
</a>
</g>
</g>
<!-- Node1&#45;&gt;Node7 -->
<g id="edge14_Node000001_Node000007" class="edge">
<title>Node1&#45;&gt;Node7</title>
<g id="a_edge14_Node000001_Node000007"><a xlink:title=" ">
<path fill="none" stroke="#63b8ff" d="M94.73,-247.24C115.14,-259.22 145.14,-275.1 173.5,-283.62 226.25,-299.49 287.96,-306.71 335.75,-309.99"/>
<polygon fill="#63b8ff" stroke="#63b8ff" points="335.46,-313.54 345.66,-310.68 335.9,-306.55 335.46,-313.54"/>
</a>
</g>
</g>
<!-- Node8 -->
<g id="Node000008" class="node">
<title>Node8</title>
<g id="a_Node000008"><a xlink:href="../../d3/d23/class_slic3r_1_1_g_u_i_1_1_progress_dialog.html#a24f19aadae592233a77f90bdc1fc862e" target="_top" xlink:title=" ">
<polygon fill="white" stroke="#666666" points="484.5,-241.88 347,-241.88 347,-211.38 484.5,-211.38 484.5,-241.88"/>
<text text-anchor="start" x="355" y="-228.38" font-family="Helvetica,sans-Serif" font-size="10.00">Slic3r::GUI::ProgressDialog</text>
<text text-anchor="middle" x="415.75" y="-217.12" font-family="Helvetica,sans-Serif" font-size="10.00">::EnableClose</text>
</a>
</g>
</g>
<!-- Node1&#45;&gt;Node8 -->
<g id="edge7_Node000001_Node000008" class="edge">
<title>Node1&#45;&gt;Node8</title>
<g id="a_edge7_Node000001_Node000008"><a xlink:title=" ">
<path fill="none" stroke="#63b8ff" d="M137.91,-230.64C194.85,-229.81 276.08,-228.63 335.83,-227.77"/>
<polygon fill="#63b8ff" stroke="#63b8ff" points="335.78,-231.26 345.73,-227.61 335.68,-224.26 335.78,-231.26"/>
</a>
</g>
</g>
<!-- Node9 -->
<g id="Node000009" class="node">
<title>Node9</title>
<g id="a_Node000009"><a xlink:href="../../d3/d23/class_slic3r_1_1_g_u_i_1_1_progress_dialog.html#af1e336ad7ae7573ceedf711ed98ef38a" target="_top" xlink:title=" ">
<polygon fill="white" stroke="#666666" points="484.5,-192.88 347,-192.88 347,-162.38 484.5,-162.38 484.5,-192.88"/>
<text text-anchor="start" x="355" y="-179.38" font-family="Helvetica,sans-Serif" font-size="10.00">Slic3r::GUI::ProgressDialog</text>
<text text-anchor="middle" x="415.75" y="-168.12" font-family="Helvetica,sans-Serif" font-size="10.00">::ReenableOtherWindows</text>
</a>
</g>
</g>
<!-- Node1&#45;&gt;Node9 -->
<g id="edge10_Node000001_Node000009" class="edge">
<title>Node1&#45;&gt;Node9</title>
<g id="a_edge10_Node000001_Node000009"><a xlink:title=" ">
<path fill="none" stroke="#63b8ff" d="M137.91,-220.96C194.97,-212.03 276.42,-199.28 336.21,-189.92"/>
<polygon fill="#63b8ff" stroke="#63b8ff" points="336.39,-193.28 345.73,-188.27 335.31,-186.36 336.39,-193.28"/>
</a>
</g>
</g>
<!-- Node10 -->
<g id="Node000010" class="node">
<title>Node10</title>
<g id="a_Node000010"><a xlink:href="../../d3/d23/class_slic3r_1_1_g_u_i_1_1_progress_dialog.html#a056493e82ecf452e1b937ba4707c83eb" target="_top" xlink:title=" ">
<polygon fill="white" stroke="#666666" points="311,-165.88 173.5,-165.88 173.5,-135.38 311,-135.38 311,-165.88"/>
<text text-anchor="start" x="181.5" y="-152.38" font-family="Helvetica,sans-Serif" font-size="10.00">Slic3r::GUI::ProgressDialog</text>
<text text-anchor="middle" x="242.25" y="-141.12" font-family="Helvetica,sans-Serif" font-size="10.00">::SetTimeLabel</text>
</a>
</g>
</g>
<!-- Node1&#45;&gt;Node10 -->
<g id="edge12_Node000001_Node000010" class="edge">
<title>Node1&#45;&gt;Node10</title>
<g id="a_edge12_Node000001_Node000010"><a xlink:title=" ">
<path fill="none" stroke="#63b8ff" d="M99.93,-215.9C120.51,-205.32 148.46,-191.25 173.5,-179.62 179.97,-176.62 186.84,-173.55 193.62,-170.58"/>
<polygon fill="#63b8ff" stroke="#63b8ff" points="194.66,-173.52 202.44,-166.33 191.88,-167.09 194.66,-173.52"/>
</a>
</g>
</g>
<!-- Node12 -->
<g id="Node000012" class="node">
<title>Node12</title>
<g id="a_Node000012"><a xlink:href="../../d3/d23/class_slic3r_1_1_g_u_i_1_1_progress_dialog.html#a48b2b636fad4f70404cc84e07f2ccfeb" target="_top" xlink:title=" ">
<polygon fill="white" stroke="#666666" points="311,-116.88 173.5,-116.88 173.5,-86.38 311,-86.38 311,-116.88"/>
<text text-anchor="start" x="181.5" y="-103.38" font-family="Helvetica,sans-Serif" font-size="10.00">Slic3r::GUI::ProgressDialog</text>
<text text-anchor="middle" x="242.25" y="-92.12" font-family="Helvetica,sans-Serif" font-size="10.00">::UpdateMessage</text>
</a>
</g>
</g>
<!-- Node1&#45;&gt;Node12 -->
<g id="edge15_Node000001_Node000012" class="edge">
<title>Node1&#45;&gt;Node12</title>
<g id="a_edge15_Node000001_Node000012"><a xlink:title=" ">
<path fill="none" stroke="#63b8ff" d="M81.5,-215.96C99.19,-193.37 134.73,-151.61 173.5,-126.62 176.07,-124.97 178.76,-123.4 181.53,-121.92"/>
<polygon fill="#63b8ff" stroke="#63b8ff" points="182.73,-124.75 190.19,-117.22 179.67,-118.45 182.73,-124.75"/>
</a>
</g>
</g>
<!-- Node14 -->
<g id="Node000014" class="node">
<title>Node14</title>
<g id="a_Node000014"><a xlink:href="../../d3/d23/class_slic3r_1_1_g_u_i_1_1_progress_dialog.html#a40f461ebf7adc478bc1f59fc2a636245" target="_top" xlink:title=" ">
<polygon fill="white" stroke="#666666" points="311,-67.88 173.5,-67.88 173.5,-37.38 311,-37.38 311,-67.88"/>
<text text-anchor="start" x="181.5" y="-54.38" font-family="Helvetica,sans-Serif" font-size="10.00">Slic3r::GUI::ProgressDialog</text>
<text text-anchor="middle" x="242.25" y="-43.12" font-family="Helvetica,sans-Serif" font-size="10.00">::UpdateTimeEstimates</text>
</a>
</g>
</g>
<!-- Node1&#45;&gt;Node14 -->
<g id="edge17_Node000001_Node000014" class="edge">
<title>Node1&#45;&gt;Node14</title>
<g id="a_edge17_Node000001_Node000014"><a xlink:title=" ">
<path fill="none" stroke="#63b8ff" d="M76.19,-216.17C89.74,-185.48 124.06,-116.45 173.5,-77.62 175.34,-76.18 177.28,-74.81 179.28,-73.51"/>
<polygon fill="#63b8ff" stroke="#63b8ff" points="180.47,-76.29 187.43,-68.3 177.01,-70.21 180.47,-76.29"/>
</a>
</g>
</g>
<!-- Node15 -->
<g id="Node000015" class="node">
<title>Node15</title>
<g id="a_Node000015"><a xlink:href="../../d6/d95/glu-libtess_8h.html#a4292190e3f1f6b373a760c7d9316ad3c" target="_top" xlink:title=" ">
<polygon fill="white" stroke="#666666" points="259.25,-19.25 225.25,-19.25 225.25,0 259.25,0 259.25,-19.25"/>
<text text-anchor="middle" x="242.25" y="-5.75" font-family="Helvetica,sans-Serif" font-size="10.00">void</text>
</a>
</g>
</g>
<!-- Node1&#45;&gt;Node15 -->
<g id="edge18_Node000001_Node000015" class="edge">
<title>Node1&#45;&gt;Node15</title>
<g id="a_edge18_Node000001_Node000015"><a xlink:title=" ">
<path fill="none" stroke="#63b8ff" d="M73.19,-215.95C82.38,-177.82 111.17,-79.64 173.5,-28.62 184.95,-19.26 200.72,-14.5 214.17,-12.09"/>
<polygon fill="#63b8ff" stroke="#63b8ff" points="214.38,-15.45 223.78,-10.56 213.38,-8.52 214.38,-15.45"/>
</a>
</g>
</g>
<!-- Node5 -->
<g id="Node000005" class="node">
<title>Node5</title>
<g id="a_Node000005"><a xlink:href="../../d3/d23/class_slic3r_1_1_g_u_i_1_1_progress_dialog.html#ac605598e1c207a886b228d2f2abb6829" target="_top" xlink:title=" ">
<polygon fill="white" stroke="#666666" points="484.5,-376.88 347,-376.88 347,-346.38 484.5,-346.38 484.5,-376.88"/>
<text text-anchor="start" x="355" y="-363.38" font-family="Helvetica,sans-Serif" font-size="10.00">Slic3r::GUI::ProgressDialog</text>
<text text-anchor="middle" x="415.75" y="-352.12" font-family="Helvetica,sans-Serif" font-size="10.00">::EnableSkip</text>
</a>
</g>
</g>
<!-- Node4&#45;&gt;Node5 -->
<g id="edge4_Node000004_Node000005" class="edge">
<title>Node4&#45;&gt;Node5</title>
<g id="a_edge4_Node000004_Node000005"><a xlink:title=" ">
<path fill="none" stroke="#63b8ff" d="M311.03,-354.97C319.17,-355.49 327.53,-356.03 335.81,-356.56"/>
<polygon fill="#63b8ff" stroke="#63b8ff" points="335.41,-360.11 345.62,-357.26 335.86,-353.12 335.41,-360.11"/>
</a>
</g>
</g>
<!-- Node4&#45;&gt;Node7 -->
<g id="edge6_Node000004_Node000007" class="edge">
<title>Node4&#45;&gt;Node7</title>
<g id="a_edge6_Node000004_Node000007"><a xlink:title=" ">
<path fill="none" stroke="#63b8ff" d="M311.03,-335.61C319.26,-333.78 327.72,-331.91 336.09,-330.05"/>
<polygon fill="#63b8ff" stroke="#63b8ff" points="336.61,-333.3 345.62,-327.72 335.1,-326.47 336.61,-333.3"/>
</a>
</g>
</g>
<!-- Node5&#45;&gt;Node6 -->
<g id="edge5_Node000005_Node000006" class="edge">
<title>Node5&#45;&gt;Node6</title>
<g id="a_edge5_Node000005_Node000006"><a xlink:title=" ">
<path fill="none" stroke="#63b8ff" d="M465.83,-345.9C472.27,-343.15 478.66,-340.05 484.5,-336.62 515.61,-318.34 546.37,-290.38 566.21,-270.69"/>
<polygon fill="#63b8ff" stroke="#63b8ff" points="568.21,-273.63 572.77,-264.07 563.24,-268.7 568.21,-273.63"/>
</a>
</g>
</g>
<!-- Node8&#45;&gt;Node6 -->
<g id="edge8_Node000008_Node000006" class="edge">
<title>Node8&#45;&gt;Node6</title>
<g id="a_edge8_Node000008_Node000006"><a xlink:title=" ">
<path fill="none" stroke="#63b8ff" d="M484.53,-234.92C492.67,-235.92 501.03,-236.95 509.31,-237.96"/>
<polygon fill="#63b8ff" stroke="#63b8ff" points="508.77,-241.54 519.12,-239.28 509.62,-234.59 508.77,-241.54"/>
</a>
</g>
</g>
<!-- Node9&#45;&gt;Node6 -->
<g id="edge11_Node000009_Node000006" class="edge">
<title>Node9&#45;&gt;Node6</title>
<g id="a_edge11_Node000009_Node000006"><a xlink:title=" ">
<path fill="none" stroke="#63b8ff" d="M460.26,-193.27C468.35,-196.3 476.7,-199.5 484.5,-202.62 503.94,-210.42 525.19,-219.53 543.37,-227.51"/>
<polygon fill="#63b8ff" stroke="#63b8ff" points="541.83,-231.1 552.4,-231.93 544.66,-224.69 541.83,-231.1"/>
</a>
</g>
</g>
<!-- Node11 -->
<g id="Node000011" class="node">
<title>Node11</title>
<g id="a_Node000011"><a xlink:href="../../d3/d23/class_slic3r_1_1_g_u_i_1_1_progress_dialog.html#a6518675e7a54dc6f9cb74b2ffe8a2ada" target="_top" xlink:title=" ">
<polygon fill="white" stroke="#666666" points="484.5,-143.88 347,-143.88 347,-113.38 484.5,-113.38 484.5,-143.88"/>
<text text-anchor="start" x="355" y="-130.38" font-family="Helvetica,sans-Serif" font-size="10.00">Slic3r::GUI::ProgressDialog</text>
<text text-anchor="middle" x="415.75" y="-119.12" font-family="Helvetica,sans-Serif" font-size="10.00">::GetFormattedTime</text>
</a>
</g>
</g>
<!-- Node10&#45;&gt;Node11 -->
<g id="edge13_Node000010_Node000011" class="edge">
<title>Node10&#45;&gt;Node11</title>
<g id="a_edge13_Node000010_Node000011"><a xlink:title=" ">
<path fill="none" stroke="#63b8ff" d="M311.03,-141.93C319.17,-140.89 327.53,-139.81 335.81,-138.75"/>
<polygon fill="#63b8ff" stroke="#63b8ff" points="336.15,-142.11 345.62,-137.36 335.25,-135.17 336.15,-142.11"/>
</a>
</g>
</g>
<!-- Node13 -->
<g id="Node000013" class="node">
<title>Node13</title>
<g id="a_Node000013"><a xlink:href="../../d3/d23/class_slic3r_1_1_g_u_i_1_1_progress_dialog.html#afcec553b3f36c12ec40694cfd8c5607e" target="_top" xlink:title=" ">
<polygon fill="white" stroke="#666666" points="484.5,-94.88 347,-94.88 347,-64.38 484.5,-64.38 484.5,-94.88"/>
<text text-anchor="start" x="355" y="-81.38" font-family="Helvetica,sans-Serif" font-size="10.00">Slic3r::GUI::ProgressDialog</text>
<text text-anchor="middle" x="415.75" y="-70.12" font-family="Helvetica,sans-Serif" font-size="10.00">::FormatString</text>
</a>
</g>
</g>
<!-- Node12&#45;&gt;Node13 -->
<g id="edge16_Node000012_Node000013" class="edge">
<title>Node12&#45;&gt;Node13</title>
<g id="a_edge16_Node000012_Node000013"><a xlink:title=" ">
<path fill="none" stroke="#63b8ff" d="M311.03,-92.93C319.17,-91.89 327.53,-90.81 335.81,-89.75"/>
<polygon fill="#63b8ff" stroke="#63b8ff" points="336.15,-93.11 345.62,-88.36 335.25,-86.17 336.15,-93.11"/>
</a>
</g>
</g>
</g>
</svg>

<g id="navigator" transform="translate(0 0)" fill="#404254">
  <rect fill="#f2f5e9" fill-opacity="0.5" stroke="#606060" stroke-width=".5" x="0" y="0" width="60" height="60"/>
  <use id="zoomplus" xlink:href="#zoomPlus" x="17" y="9" onmousedown="handleZoom(evt,'in')"/>
  <use id="zoomminus" xlink:href="#zoomMin" x="42" y="9" onmousedown="handleZoom(evt,'out')"/>
  <use id="reset" xlink:href="#resetDef" x="30" y="36" onmousedown="handleReset()"/>
   <use id="arrowup" xlink:href="#arrowUp" x="0" y="0" onmousedown="handlePan(0,-1)"/>
  <use id="arrowright" xlink:href="#arrowRight" x="0" y="0" onmousedown="handlePan(1,0)"/>
  <use id="arrowdown" xlink:href="#arrowDown" x="0" y="0" onmousedown="handlePan(0,1)"/>
  <use id="arrowleft" xlink:href="#arrowLeft" x="0" y="0" onmousedown="handlePan(-1,0)"/>
</g>
<svg viewBox="0 0 15 15" width="100%" height="30px" preserveAspectRatio="xMaxYMin meet">
 <g id="arrow_out" transform="scale(0.3 0.3)">
  <a xlink:href="class_slic3r_1_1_g_u_i_1_1_progress_dialog_a433176c1ece5aebc81eaafcf57eff95b_cgraph_org.svg" target="_base">
   <rect id="button" ry="5" rx="5" y="6" x="6" height="38" width="38"
        fill="#f2f5e9" fill-opacity="0.5" stroke="#606060" stroke-width="1.0"/>
   <path id="arrow"
     d="M 11.500037,31.436501 C 11.940474,20.09759 22.043105,11.32322 32.158766,21.979434 L 37.068811,17.246167 C 37.068811,17.246167 37.088388,32 37.088388,32 L 22.160133,31.978069 C 22.160133,31.978069 26.997745,27.140456 26.997745,27.140456 C 18.528582,18.264221 13.291696,25.230495 11.500037,31.436501 z"
     style="fill:#404040;"/>
  </a>
 </g>
</svg>

<style type='text/css'>
<![CDATA[
[data-mouse-over-selected='false'] { opacity: 0.7; }
[data-mouse-over-selected='true']  { opacity: 1.0; }
]]>
</style>
<script type="application/ecmascript"><![CDATA[
document.addEventListener('DOMContentLoaded', (event) => {
  highlightEdges();
  highlightAdjacentNodes();
});
]]></script>
</svg>
