<?xml version="1.0" encoding="UTF-8" standalone="no"?>
<!DOCTYPE svg PUBLIC "-//W3C//DTD SVG 1.1//EN"
 "http://www.w3.org/Graphics/SVG/1.1/DTD/svg11.dtd">
<!-- Generated by graphviz version 8.1.0 (20230707.0739)
 -->
<!-- Title: Slic3r::GUI::ProgressDialog::Resume Pages: 1 -->
<svg width="493pt" height="125pt"
 viewBox="0.00 0.00 492.50 124.88" xmlns="http://www.w3.org/2000/svg" xmlns:xlink="http://www.w3.org/1999/xlink">

<svg id="main" version="1.1" xmlns="http://www.w3.org/2000/svg" xmlns:xlink="http://www.w3.org/1999/xlink" xml:space="preserve" onload="init(evt)">
<style type="text/css"><![CDATA[
.node, .edge {opacity: 0.7;}
.node.selected, .edge.selected {opacity: 1;}
.edge:hover path { stroke: red; }
.edge:hover polygon { stroke: red; fill: red; }
]]></style>
<script type="application/ecmascript" xlink:href="../../svg.min.js"/>
<svg id="graph" class="graph">
<g id="graph0" class="graph" transform="scale(1 1) rotate(0) translate(4 120.88)">
<title>Slic3r::GUI::ProgressDialog::Resume</title>
<!-- Node1 -->
<g id="Node000001" class="node">
<title>Node1</title>
<g id="a_Node000001"><a xlink:title=" ">
<polygon fill="#999999" stroke="#666666" points="137.5,-79.5 0,-79.5 0,-49 137.5,-49 137.5,-79.5"/>
<text text-anchor="start" x="8" y="-66" font-family="Helvetica,sans-Serif" font-size="10.00">Slic3r::GUI::ProgressDialog</text>
<text text-anchor="middle" x="68.75" y="-54.75" font-family="Helvetica,sans-Serif" font-size="10.00">::Resume</text>
</a>
</g>
</g>
<!-- Node2 -->
<g id="Node000002" class="node">
<title>Node2</title>
<g id="a_Node000002"><a xlink:href="../../d4/d77/class_button.html#afb1762a29ae58b6398f7e3ef230e42e0" target="_top" xlink:title=" ">
<polygon fill="white" stroke="#666666" points="282.5,-116.88 202,-116.88 202,-97.62 282.5,-97.62 282.5,-116.88"/>
<text text-anchor="middle" x="242.25" y="-103.38" font-family="Helvetica,sans-Serif" font-size="10.00">Button::Enable</text>
</a>
</g>
</g>
<!-- Node1&#45;&gt;Node2 -->
<g id="edge1_Node000001_Node000002" class="edge">
<title>Node1&#45;&gt;Node2</title>
<g id="a_edge1_Node000001_Node000002"><a xlink:title=" ">
<path fill="none" stroke="#63b8ff" d="M132.15,-79.9C151.53,-84.75 172.62,-90.04 191.05,-94.66"/>
<polygon fill="#63b8ff" stroke="#63b8ff" points="190.02,-98.26 200.57,-97.3 191.72,-91.47 190.02,-98.26"/>
</a>
</g>
</g>
<!-- Node3 -->
<g id="Node000003" class="node">
<title>Node3</title>
<g id="a_Node000003"><a xlink:href="../../d3/d23/class_slic3r_1_1_g_u_i_1_1_progress_dialog.html#a6345dba18a10113619463480645c2182" target="_top" xlink:title=" ">
<polygon fill="white" stroke="#666666" points="311,-79.5 173.5,-79.5 173.5,-49 311,-49 311,-79.5"/>
<text text-anchor="start" x="181.5" y="-66" font-family="Helvetica,sans-Serif" font-size="10.00">Slic3r::GUI::ProgressDialog</text>
<text text-anchor="middle" x="242.25" y="-54.75" font-family="Helvetica,sans-Serif" font-size="10.00">::EnableAbort</text>
</a>
</g>
</g>
<!-- Node1&#45;&gt;Node3 -->
<g id="edge2_Node000001_Node000003" class="edge">
<title>Node1&#45;&gt;Node3</title>
<g id="a_edge2_Node000001_Node000003"><a xlink:title=" ">
<path fill="none" stroke="#63b8ff" d="M137.53,-64.25C145.67,-64.25 154.03,-64.25 162.31,-64.25"/>
<polygon fill="#63b8ff" stroke="#63b8ff" points="162.12,-67.75 172.12,-64.25 162.12,-60.75 162.12,-67.75"/>
</a>
</g>
</g>
<!-- Node5 -->
<g id="Node000005" class="node">
<title>Node5</title>
<g id="a_Node000005"><a xlink:href="../../d3/d23/class_slic3r_1_1_g_u_i_1_1_progress_dialog.html#ac605598e1c207a886b228d2f2abb6829" target="_top" xlink:title=" ">
<polygon fill="white" stroke="#666666" points="311,-30.5 173.5,-30.5 173.5,0 311,0 311,-30.5"/>
<text text-anchor="start" x="181.5" y="-17" font-family="Helvetica,sans-Serif" font-size="10.00">Slic3r::GUI::ProgressDialog</text>
<text text-anchor="middle" x="242.25" y="-5.75" font-family="Helvetica,sans-Serif" font-size="10.00">::EnableSkip</text>
</a>
</g>
</g>
<!-- Node1&#45;&gt;Node5 -->
<g id="edge4_Node000001_Node000005" class="edge">
<title>Node1&#45;&gt;Node5</title>
<g id="a_edge4_Node000001_Node000005"><a xlink:title=" ">
<path fill="none" stroke="#63b8ff" d="M124.49,-48.61C140.8,-43.95 158.85,-38.79 175.78,-33.96"/>
<polygon fill="#63b8ff" stroke="#63b8ff" points="176.5,-37.1 185.15,-30.99 174.58,-30.37 176.5,-37.1"/>
</a>
</g>
</g>
<!-- Node4 -->
<g id="Node000004" class="node">
<title>Node4</title>
<g id="a_Node000004"><a xlink:href="../../d3/d23/class_slic3r_1_1_g_u_i_1_1_progress_dialog.html#a01781eb82e61aab49bc4f1e932180c85" target="_top" xlink:title=" ">
<polygon fill="white" stroke="#666666" points="484.5,-54.5 347,-54.5 347,-24 484.5,-24 484.5,-54.5"/>
<text text-anchor="start" x="355" y="-41" font-family="Helvetica,sans-Serif" font-size="10.00">Slic3r::GUI::ProgressDialog</text>
<text text-anchor="middle" x="415.75" y="-29.75" font-family="Helvetica,sans-Serif" font-size="10.00">::HasPDFlag</text>
</a>
</g>
</g>
<!-- Node3&#45;&gt;Node4 -->
<g id="edge3_Node000003_Node000004" class="edge">
<title>Node3&#45;&gt;Node4</title>
<g id="a_edge3_Node000003_Node000004"><a xlink:title=" ">
<path fill="none" stroke="#63b8ff" d="M311.03,-54.37C319.17,-53.18 327.53,-51.96 335.81,-50.76"/>
<polygon fill="#63b8ff" stroke="#63b8ff" points="336.23,-54.09 345.62,-49.18 335.22,-47.16 336.23,-54.09"/>
</a>
</g>
</g>
<!-- Node5&#45;&gt;Node4 -->
<g id="edge5_Node000005_Node000004" class="edge">
<title>Node5&#45;&gt;Node4</title>
<g id="a_edge5_Node000005_Node000004"><a xlink:title=" ">
<path fill="none" stroke="#63b8ff" d="M311.03,-24.74C319.17,-25.87 327.53,-27.04 335.81,-28.2"/>
<polygon fill="#63b8ff" stroke="#63b8ff" points="335.23,-31.8 345.62,-29.72 336.2,-24.86 335.23,-31.8"/>
</a>
</g>
</g>
</g>
</svg>
</svg>

<style type='text/css'>
<![CDATA[
[data-mouse-over-selected='false'] { opacity: 0.7; }
[data-mouse-over-selected='true']  { opacity: 1.0; }
]]>
</style>
<script type="application/ecmascript"><![CDATA[
document.addEventListener('DOMContentLoaded', (event) => {
  highlightEdges();
  highlightAdjacentNodes();
});
]]></script>
</svg>
