<?xml version="1.0" encoding="UTF-8" standalone="no"?>
<!DOCTYPE svg PUBLIC "-//W3C//DTD SVG 1.1//EN"
 "http://www.w3.org/Graphics/SVG/1.1/DTD/svg11.dtd">
<!-- Generated by graphviz version 8.1.0 (20230707.0739)
 -->
<!-- Title: Slic3r::MinimumSpanningTree Pages: 1 -->
<!--zoomable 217 -->

<svg id="main" version="1.1" xmlns="http://www.w3.org/2000/svg" xmlns:xlink="http://www.w3.org/1999/xlink" xml:space="preserve" onload="init(evt)">
<style type="text/css"><![CDATA[
.node, .edge {opacity: 0.7;}
.node.selected, .edge.selected {opacity: 1;}
.edge:hover path { stroke: red; }
.edge:hover polygon { stroke: red; fill: red; }
]]></style>

<defs>
  <circle id="rim" cx="0" cy="0" r="7"/>
  <circle id="rim2" cx="0" cy="0" r="3.5"/>
  <g id="zoomPlus">
    <use xlink:href="#rim" fill="#404040"><set attributeName="fill" to="#808080" begin="zoomplus.mouseover" end="zoomplus.mouseout"/></use>
    <path d="M-4,0h8M0,-4v8" fill="none" stroke="white" stroke-width="1.5" pointer-events="none"/>
  </g>
  <g id="zoomMin">
    <use xlink:href="#rim" fill="#404040"><set attributeName="fill" to="#808080" begin="zoomminus.mouseover" end="zoomminus.mouseout"/></use>
    <path d="M-4,0h8" fill="none" stroke="white" stroke-width="1.5" pointer-events="none"/>
  </g>
  <g id="arrowUp" transform="translate(30 24)">
    <use xlink:href="#rim"/>
    <path pointer-events="none" fill="none" stroke="white" stroke-width="1.5" d="M0,-3.0v7 M-2.5,-0.5L0,-3.0L2.5,-0.5"/>
  </g>
  <g id="arrowRight" transform="rotate(90) translate(36 -43)">
    <use xlink:href="#rim"/>
    <path pointer-events="none" fill="none" stroke="white" stroke-width="1.5" d="M0,-3.0v7 M-2.5,-0.5L0,-3.0L2.5,-0.5"/>
  </g>
  <g id="arrowDown" transform="rotate(180) translate(-30 -48)">
    <use xlink:href="#rim"/>
    <path pointer-events="none" fill="none" stroke="white" stroke-width="1.5" d="M0,-3.0v7 M-2.5,-0.5L0,-3.0L2.5,-0.5"/>
  </g>
  <g id="arrowLeft" transform="rotate(270) translate(-36 17)">
    <use xlink:href="#rim"/>
    <path pointer-events="none" fill="none" stroke="white" stroke-width="1.5" d="M0,-3.0v7 M-2.5,-0.5L0,-3.0L2.5,-0.5"/>
  </g>
  <g id="resetDef">
    <use xlink:href="#rim2" fill="#404040"><set attributeName="fill" to="#808080" begin="reset.mouseover" end="reset.mouseout"/></use>
  </g>
</defs>
<script type="application/ecmascript">
var viewWidth = 1746;
var viewHeight = 217;
var sectionId = 'dynsection-0';
</script>
<script type="application/ecmascript" xlink:href="../../svg.min.js"/>
<svg id="graph" class="graph">
<g id="viewport">
<title>Slic3r::MinimumSpanningTree</title>
<!-- Node1 -->
<g id="Node000001" class="node">
<title>Node1</title>
<g id="a_Node000001"><a xlink:title="Implements Prim&#39;s algorithm to compute Minimum Spanning Trees (MST).">
<polygon fill="#999999" stroke="#666666" points="1737.5,-107.12 1591,-107.12 1591,-87.88 1737.5,-87.88 1737.5,-107.12"/>
<text text-anchor="middle" x="1664.25" y="-93.62" font-family="Helvetica,sans-Serif" font-size="10.00">Slic3r::MinimumSpanningTree</text>
</a>
</g>
</g>
<!-- Node2 -->
<g id="Node000002" class="node">
<title>Node2</title>
<g id="a_Node000002"><a xlink:title=" ">
<polygon fill="white" stroke="#666666" points="1478.5,-118.38 1361.25,-118.38 1361.25,-76.62 1478.5,-76.62 1478.5,-118.38"/>
<text text-anchor="start" x="1369.25" y="-104.88" font-family="Helvetica,sans-Serif" font-size="10.00">std::unordered_map</text>
<text text-anchor="start" x="1369.25" y="-93.62" font-family="Helvetica,sans-Serif" font-size="10.00">&lt; Point, std::vector</text>
<text text-anchor="middle" x="1419.88" y="-82.38" font-family="Helvetica,sans-Serif" font-size="10.00">&lt; Edge &gt;, PointHash &gt;</text>
</a>
</g>
</g>
<!-- Node2&#45;&gt;Node1 -->
<g id="edge1_Node000001_Node000002" class="edge">
<title>Node2&#45;&gt;Node1</title>
<g id="a_edge1_Node000001_Node000002"><a xlink:title=" ">
<path fill="none" stroke="#9a32cd" stroke-dasharray="5,2" d="M1489.85,-97.5C1521.45,-97.5 1558.92,-97.5 1590.92,-97.5"/>
<polygon fill="#9a32cd" stroke="#9a32cd" points="1489.93,-94 1479.93,-97.5 1489.93,-101 1489.93,-94"/>
</a>
</g>
<text text-anchor="middle" x="1534.75" y="-99.25" font-family="Helvetica,sans-Serif" font-size="10.00" fill="grey"> adjacency_graph</text>
</g>
<!-- Node3 -->
<g id="Node000003" class="node">
<title>Node3</title>
<g id="a_Node000003"><a xlink:href="../../d6/dec/class_slic3r_1_1_point.html" target="_top" xlink:title=" ">
<polygon fill="white" stroke="#666666" points="874.75,-72.12 805.5,-72.12 805.5,-52.88 874.75,-52.88 874.75,-72.12"/>
<text text-anchor="middle" x="840.12" y="-58.62" font-family="Helvetica,sans-Serif" font-size="10.00">Slic3r::Point</text>
</a>
</g>
</g>
<!-- Node3&#45;&gt;Node2 -->
<g id="edge2_Node000002_Node000003" class="edge">
<title>Node3&#45;&gt;Node2</title>
<g id="a_edge2_Node000002_Node000003"><a xlink:title=" ">
<path fill="none" stroke="#9a32cd" stroke-dasharray="5,2" d="M885.83,-61.91C937.45,-61.45 1024.91,-61.33 1100,-64.5 1181.28,-67.93 1201.62,-69.77 1282.5,-78.5 1308.29,-81.28 1336.71,-85.12 1360.91,-88.62"/>
<polygon fill="#9a32cd" stroke="#9a32cd" points="886.03,-58.42 876.07,-62.02 886.1,-65.42 886.03,-58.42"/>
</a>
</g>
<text text-anchor="middle" x="1139.75" y="-69.25" font-family="Helvetica,sans-Serif" font-size="10.00" fill="grey"> keys</text>
</g>
<!-- Node18 -->
<g id="Node000018" class="node">
<title>Node18</title>
<g id="a_Node000018"><a xlink:href="../../df/de0/class_slic3r_1_1_minimum_spanning_tree.html#d0/d31/struct_slic3r_1_1_minimum_spanning_tree_1_1_edge" target="_top" xlink:title="Represents an edge of the tree.">
<polygon fill="white" stroke="#666666" points="1100,-103.75 953.5,-103.75 953.5,-73.25 1100,-73.25 1100,-103.75"/>
<text text-anchor="start" x="961.5" y="-90.25" font-family="Helvetica,sans-Serif" font-size="10.00">Slic3r::MinimumSpanningTree</text>
<text text-anchor="middle" x="1026.75" y="-79" font-family="Helvetica,sans-Serif" font-size="10.00">::Edge</text>
</a>
</g>
</g>
<!-- Node3&#45;&gt;Node18 -->
<g id="edge12_Node000018_Node000003" class="edge">
<title>Node3&#45;&gt;Node18</title>
<g id="a_edge12_Node000018_Node000003"><a xlink:title=" ">
<path fill="none" stroke="#9a32cd" stroke-dasharray="5,2" d="M885.74,-68.78C905.95,-71.63 930.35,-75.07 953.09,-78.27"/>
<polygon fill="#9a32cd" stroke="#9a32cd" points="886.38,-65.2 875.99,-67.27 885.4,-72.13 886.38,-65.2"/>
</a>
</g>
<text text-anchor="middle" x="914.12" y="-88.5" font-family="Helvetica,sans-Serif" font-size="10.00" fill="grey"> end</text>
<text text-anchor="middle" x="914.12" y="-77.25" font-family="Helvetica,sans-Serif" font-size="10.00" fill="grey">start</text>
</g>
<!-- Node4 -->
<g id="Node000004" class="node">
<title>Node4</title>
<g id="a_Node000004"><a xlink:href="../../d2/d2d/class_eigen_1_1_matrix.html" target="_top" xlink:title=" ">
<polygon fill="white" stroke="#666666" points="768.5,-72.12 716.5,-72.12 716.5,-52.88 768.5,-52.88 768.5,-72.12"/>
<text text-anchor="middle" x="742.5" y="-58.62" font-family="Helvetica,sans-Serif" font-size="10.00">Vec2crd</text>
</a>
</g>
</g>
<!-- Node4&#45;&gt;Node3 -->
<g id="edge3_Node000003_Node000004" class="edge">
<title>Node4&#45;&gt;Node3</title>
<g id="a_edge3_Node000003_Node000004"><a xlink:title=" ">
<path fill="none" stroke="#63b8ff" d="M779.87,-62.5C788.23,-62.5 797.09,-62.5 805.34,-62.5"/>
<polygon fill="#63b8ff" stroke="#63b8ff" points="779.87,-59 769.87,-62.5 779.87,-66 779.87,-59"/>
</a>
</g>
</g>
<!-- Node5 -->
<g id="Node000005" class="node">
<title>Node5</title>
<g id="a_Node000005"><a xlink:href="../../da/d8d/class_eigen_1_1_plain_object_base.html" target="_top" xlink:title=" ">
<polygon fill="white" stroke="#666666" points="402.5,-101.75 283,-101.75 283,-71.25 402.5,-71.25 402.5,-101.75"/>
<text text-anchor="start" x="291" y="-88.25" font-family="Helvetica,sans-Serif" font-size="10.00">Eigen::PlainObjectBase</text>
<text text-anchor="middle" x="342.75" y="-77" font-family="Helvetica,sans-Serif" font-size="10.00">&lt; Derived &gt;</text>
</a>
</g>
</g>
<!-- Node5&#45;&gt;Node4 -->
<g id="edge4_Node000004_Node000005" class="edge">
<title>Node5&#45;&gt;Node4</title>
<g id="a_edge4_Node000004_Node000005"><a xlink:title=" ">
<path fill="none" stroke="#63b8ff" d="M413.65,-86.21C485.36,-85.23 600.05,-81.82 698.5,-70.5 704.23,-69.84 710.35,-68.87 716.12,-67.83"/>
<polygon fill="#63b8ff" stroke="#63b8ff" points="413.91,-82.71 403.95,-86.34 414,-89.71 413.91,-82.71"/>
</a>
</g>
</g>
<!-- Node6 -->
<g id="Node000006" class="node">
<title>Node6</title>
<g id="a_Node000006"><a xlink:title=" ">
<polygon fill="white" stroke="#666666" points="141.25,-101.75 42.75,-101.75 42.75,-71.25 141.25,-71.25 141.25,-101.75"/>
<text text-anchor="start" x="50.75" y="-88.25" font-family="Helvetica,sans-Serif" font-size="10.00">internal::dense_xpr</text>
<text text-anchor="middle" x="92" y="-77" font-family="Helvetica,sans-Serif" font-size="10.00">_base::type</text>
</a>
</g>
</g>
<!-- Node6&#45;&gt;Node5 -->
<g id="edge5_Node000005_Node000006" class="edge">
<title>Node6&#45;&gt;Node5</title>
<g id="a_edge5_Node000005_Node000006"><a xlink:title=" ">
<path fill="none" stroke="#63b8ff" d="M152.34,-86.5C191.8,-86.5 243.42,-86.5 282.8,-86.5"/>
<polygon fill="#63b8ff" stroke="#63b8ff" points="152.55,-83 142.55,-86.5 152.55,-90 152.55,-83"/>
</a>
</g>
</g>
<!-- Node7 -->
<g id="Node000007" class="node">
<title>Node7</title>
<g id="a_Node000007"><a xlink:href="../../d5/d91/class_eigen_1_1_dense_storage.html" target="_top" xlink:title=" ">
<polygon fill="#fff0f0" stroke="red" points="184,-53 0,-53 0,0 184,0 184,-53"/>
<text text-anchor="start" x="8" y="-39.5" font-family="Helvetica,sans-Serif" font-size="10.00">Eigen::DenseStorage</text>
<text text-anchor="start" x="8" y="-28.25" font-family="Helvetica,sans-Serif" font-size="10.00">&lt; Scalar, Base::MaxSizeAtCompile</text>
<text text-anchor="start" x="8" y="-17" font-family="Helvetica,sans-Serif" font-size="10.00">Time, Base::RowsAtCompileTime,</text>
<text text-anchor="middle" x="92" y="-5.75" font-family="Helvetica,sans-Serif" font-size="10.00"> Base::ColsAtCompileTime, Options &gt;</text>
</a>
</g>
</g>
<!-- Node7&#45;&gt;Node5 -->
<g id="edge6_Node000005_Node000007" class="edge">
<title>Node7&#45;&gt;Node5</title>
<g id="a_edge6_Node000005_Node000007"><a xlink:title=" ">
<path fill="none" stroke="#9a32cd" stroke-dasharray="5,2" d="M194.71,-51.03C224.63,-58.25 256.37,-65.91 282.67,-72.25"/>
<polygon fill="#9a32cd" stroke="#9a32cd" points="195.75,-47.44 185.21,-48.5 194.11,-54.25 195.75,-47.44"/>
</a>
</g>
<text text-anchor="middle" x="226.38" y="-66.25" font-family="Helvetica,sans-Serif" font-size="10.00" fill="grey"> m_storage</text>
</g>
<!-- Node14 -->
<g id="Node000014" class="node">
<title>Node14</title>
<g id="a_Node000014"><a xlink:href="../../da/d8d/class_eigen_1_1_plain_object_base.html" target="_top" xlink:title=" ">
<polygon fill="#fff0f0" stroke="red" points="416.75,-53 268.75,-53 268.75,0 416.75,0 416.75,-53"/>
<text text-anchor="start" x="276.75" y="-39.5" font-family="Helvetica,sans-Serif" font-size="10.00">Eigen::PlainObjectBase</text>
<text text-anchor="start" x="276.75" y="-28.25" font-family="Helvetica,sans-Serif" font-size="10.00">&lt; Matrix&lt; _Scalar, _Rows,</text>
<text text-anchor="start" x="276.75" y="-17" font-family="Helvetica,sans-Serif" font-size="10.00"> _Cols, _Options, _MaxRows,</text>
<text text-anchor="middle" x="342.75" y="-5.75" font-family="Helvetica,sans-Serif" font-size="10.00"> _MaxCols &gt; &gt;</text>
</a>
</g>
</g>
<!-- Node7&#45;&gt;Node14 -->
<g id="edge9_Node000014_Node000007" class="edge">
<title>Node7&#45;&gt;Node14</title>
<g id="a_edge9_Node000014_Node000007"><a xlink:title=" ">
<path fill="none" stroke="#9a32cd" stroke-dasharray="5,2" d="M195.04,-26.5C219.64,-26.5 245.45,-26.5 268.44,-26.5"/>
<polygon fill="#9a32cd" stroke="#9a32cd" points="195.21,-23 185.21,-26.5 195.21,-30 195.21,-23"/>
</a>
</g>
<text text-anchor="middle" x="226.38" y="-28.25" font-family="Helvetica,sans-Serif" font-size="10.00" fill="grey"> m_storage</text>
</g>
<!-- Node13 -->
<g id="Node000013" class="node">
<title>Node13</title>
<g id="a_Node000013"><a xlink:href="../../d2/d2d/class_eigen_1_1_matrix.html" target="_top" xlink:title="The matrix class, also used for vectors and row&#45;vectors.">
<polygon fill="white" stroke="#666666" points="583,-55.38 453.75,-55.38 453.75,-13.62 583,-13.62 583,-55.38"/>
<text text-anchor="start" x="461.75" y="-41.88" font-family="Helvetica,sans-Serif" font-size="10.00">Eigen::Matrix&lt; _Scalar,</text>
<text text-anchor="start" x="461.75" y="-30.62" font-family="Helvetica,sans-Serif" font-size="10.00"> _Rows, _Cols, _Options,</text>
<text text-anchor="middle" x="518.38" y="-19.38" font-family="Helvetica,sans-Serif" font-size="10.00"> _MaxRows, _MaxCols &gt;</text>
</a>
</g>
</g>
<!-- Node13&#45;&gt;Node4 -->
<g id="edge7_Node000004_Node000013" class="edge">
<title>Node13&#45;&gt;Node4</title>
<g id="a_edge7_Node000004_Node000013"><a xlink:title=" ">
<path fill="none" stroke="orange" stroke-dasharray="5,2" d="M594.06,-35.96C626.42,-37.67 664.59,-41.12 698.5,-48 704.37,-49.19 710.54,-50.95 716.32,-52.84"/>
<polygon fill="orange" stroke="orange" points="594.48,-32.43 584.32,-35.45 594.15,-39.42 594.48,-32.43"/>
</a>
</g>
<text text-anchor="start" x="601" y="-61.5" font-family="Helvetica,sans-Serif" font-size="10.00" fill="grey"> &lt; coord_t, 2, 1, Eigen</text>
<text text-anchor="middle" x="649.75" y="-50.25" font-family="Helvetica,sans-Serif" font-size="10.00" fill="grey">::DontAlign &gt;</text>
</g>
<!-- Node14&#45;&gt;Node13 -->
<g id="edge8_Node000013_Node000014" class="edge">
<title>Node14&#45;&gt;Node13</title>
<g id="a_edge8_Node000013_Node000014"><a xlink:title=" ">
<path fill="none" stroke="#63b8ff" d="M427.91,-30.38C436.46,-30.77 445.04,-31.17 453.33,-31.55"/>
<polygon fill="#63b8ff" stroke="#63b8ff" points="428.28,-26.85 418.13,-29.88 427.96,-33.84 428.28,-26.85"/>
</a>
</g>
</g>
<!-- Node17 -->
<g id="Node000017" class="node">
<title>Node17</title>
<g id="a_Node000017"><a xlink:title=" ">
<polygon fill="white" stroke="#666666" points="1282.5,-107.12 1179.5,-107.12 1179.5,-87.88 1282.5,-87.88 1282.5,-107.12"/>
<text text-anchor="middle" x="1231" y="-93.62" font-family="Helvetica,sans-Serif" font-size="10.00">std::vector&lt; Edge &gt;</text>
</a>
</g>
</g>
<!-- Node17&#45;&gt;Node2 -->
<g id="edge10_Node000002_Node000017" class="edge">
<title>Node17&#45;&gt;Node2</title>
<g id="a_edge10_Node000002_Node000017"><a xlink:title=" ">
<path fill="none" stroke="#9a32cd" stroke-dasharray="5,2" d="M1293.35,-97.5C1315.12,-97.5 1339.53,-97.5 1360.99,-97.5"/>
<polygon fill="#9a32cd" stroke="#9a32cd" points="1293.57,-94 1283.57,-97.5 1293.57,-101 1293.57,-94"/>
</a>
</g>
<text text-anchor="middle" x="1321.88" y="-99.25" font-family="Helvetica,sans-Serif" font-size="10.00" fill="grey"> elements</text>
</g>
<!-- Node18&#45;&gt;Node17 -->
<g id="edge11_Node000017_Node000018" class="edge">
<title>Node18&#45;&gt;Node17</title>
<g id="a_edge11_Node000017_Node000018"><a xlink:title=" ">
<path fill="none" stroke="#9a32cd" stroke-dasharray="5,2" d="M1111.3,-92.22C1134.31,-93.24 1158.56,-94.32 1179.11,-95.24"/>
<polygon fill="#9a32cd" stroke="#9a32cd" points="1111.63,-88.68 1101.48,-91.74 1111.32,-95.68 1111.63,-88.68"/>
</a>
</g>
<text text-anchor="middle" x="1139.75" y="-95.25" font-family="Helvetica,sans-Serif" font-size="10.00" fill="grey"> elements</text>
</g>
<!-- Node19 -->
<g id="Node000019" class="node">
<title>Node19</title>
<g id="a_Node000019"><a xlink:title=" ">
<polygon fill="white" stroke="#666666" points="1070,-141.12 983.5,-141.12 983.5,-121.88 1070,-121.88 1070,-141.12"/>
<text text-anchor="middle" x="1026.75" y="-127.62" font-family="Helvetica,sans-Serif" font-size="10.00">std::vector&lt; T &gt;</text>
</a>
</g>
</g>
<!-- Node19&#45;&gt;Node17 -->
<g id="edge13_Node000017_Node000019" class="edge">
<title>Node19&#45;&gt;Node17</title>
<g id="a_edge13_Node000017_Node000019"><a xlink:title=" ">
<path fill="none" stroke="orange" stroke-dasharray="5,2" d="M1080.96,-122.56C1111.29,-117.46 1149.11,-111.1 1179.06,-106.06"/>
<polygon fill="orange" stroke="orange" points="1080.43,-119.26 1071.15,-124.37 1081.59,-126.17 1080.43,-119.26"/>
</a>
</g>
<text text-anchor="middle" x="1139.75" y="-117.25" font-family="Helvetica,sans-Serif" font-size="10.00" fill="grey"> &lt; Edge &gt;</text>
</g>
<!-- Node10 -->
<g id="Node000010" class="node">
<title>Node10</title>
<g id="a_Node000010"><a xlink:title=" ">
<polygon fill="white" stroke="#666666" points="854.52,-156.12 825.73,-156.12 825.73,-136.88 854.52,-136.88 854.52,-156.12"/>
<text text-anchor="middle" x="840.12" y="-142.62" font-family="Helvetica,sans-Serif" font-size="10.00">T</text>
</a>
</g>
</g>
<!-- Node10&#45;&gt;Node19 -->
<g id="edge14_Node000019_Node000010" class="edge">
<title>Node10&#45;&gt;Node19</title>
<g id="a_edge14_Node000019_Node000010"><a xlink:title=" ">
<path fill="none" stroke="#9a32cd" stroke-dasharray="5,2" d="M865.34,-138.4C873.9,-135.92 883.66,-133.51 892.75,-132.25 922.71,-128.1 956.84,-128.01 983.02,-128.9"/>
<polygon fill="#9a32cd" stroke="#9a32cd" points="864.46,-135.32 855.94,-141.62 866.53,-142 864.46,-135.32"/>
</a>
</g>
<text text-anchor="middle" x="914.12" y="-133.25" font-family="Helvetica,sans-Serif" font-size="10.00" fill="grey"> elements</text>
</g>
<!-- Node20 -->
<g id="Node000020" class="node">
<title>Node20</title>
<g id="a_Node000020"><a xlink:title=" ">
<polygon fill="white" stroke="#666666" points="1077.88,-189.75 975.62,-189.75 975.62,-159.25 1077.88,-159.25 1077.88,-189.75"/>
<text text-anchor="start" x="983.62" y="-176.25" font-family="Helvetica,sans-Serif" font-size="10.00">std::unordered_map</text>
<text text-anchor="middle" x="1026.75" y="-165" font-family="Helvetica,sans-Serif" font-size="10.00">&lt; K, T &gt;</text>
</a>
</g>
</g>
<!-- Node10&#45;&gt;Node20 -->
<g id="edge17_Node000020_Node000010" class="edge">
<title>Node10&#45;&gt;Node20</title>
<g id="a_edge17_Node000020_Node000010"><a xlink:title=" ">
<path fill="none" stroke="#9a32cd" stroke-dasharray="5,2" d="M865.76,-150.24C893.67,-154.47 939.91,-161.48 975.52,-166.88"/>
<polygon fill="#9a32cd" stroke="#9a32cd" points="866.41,-146.64 856,-148.6 865.36,-153.56 866.41,-146.64"/>
</a>
</g>
<text text-anchor="middle" x="914.12" y="-162.25" font-family="Helvetica,sans-Serif" font-size="10.00" fill="grey"> elements</text>
</g>
<!-- Node20&#45;&gt;Node2 -->
<g id="edge15_Node000002_Node000020" class="edge">
<title>Node20&#45;&gt;Node2</title>
<g id="a_edge15_Node000002_Node000020"><a xlink:title=" ">
<path fill="none" stroke="orange" stroke-dasharray="5,2" d="M1088.93,-162.51C1152.5,-150.04 1254.85,-129.95 1343.25,-112.5 1349.03,-111.36 1355.05,-110.17 1361.07,-108.98"/>
<polygon fill="orange" stroke="orange" points="1088.44,-159.24 1079.3,-164.59 1089.79,-166.11 1088.44,-159.24"/>
</a>
</g>
<text text-anchor="start" x="1180.38" y="-157.5" font-family="Helvetica,sans-Serif" font-size="10.00" fill="grey"> &lt; Point, std::vector</text>
<text text-anchor="middle" x="1231" y="-146.25" font-family="Helvetica,sans-Serif" font-size="10.00" fill="grey">&lt; Edge &gt;, PointHash &gt;</text>
</g>
<!-- Node21 -->
<g id="Node000021" class="node">
<title>Node21</title>
<g id="a_Node000021"><a xlink:title=" ">
<polygon fill="white" stroke="#666666" points="854.52,-209.12 825.73,-209.12 825.73,-189.88 854.52,-189.88 854.52,-209.12"/>
<text text-anchor="middle" x="840.12" y="-195.62" font-family="Helvetica,sans-Serif" font-size="10.00">K</text>
</a>
</g>
</g>
<!-- Node21&#45;&gt;Node20 -->
<g id="edge16_Node000020_Node000021" class="edge">
<title>Node21&#45;&gt;Node20</title>
<g id="a_edge16_Node000020_Node000021"><a xlink:title=" ">
<path fill="none" stroke="#9a32cd" stroke-dasharray="5,2" d="M865.76,-196.16C893.67,-192.38 939.91,-186.12 975.52,-181.3"/>
<polygon fill="#9a32cd" stroke="#9a32cd" points="865.44,-192.81 856,-197.62 866.38,-199.75 865.44,-192.81"/>
</a>
</g>
<text text-anchor="middle" x="914.12" y="-193.25" font-family="Helvetica,sans-Serif" font-size="10.00" fill="grey"> keys</text>
</g>
</g>
</svg>

<g id="navigator" transform="translate(0 0)" fill="#404254">
  <rect fill="#f2f5e9" fill-opacity="0.5" stroke="#606060" stroke-width=".5" x="0" y="0" width="60" height="60"/>
  <use id="zoomplus" xlink:href="#zoomPlus" x="17" y="9" onmousedown="handleZoom(evt,'in')"/>
  <use id="zoomminus" xlink:href="#zoomMin" x="42" y="9" onmousedown="handleZoom(evt,'out')"/>
  <use id="reset" xlink:href="#resetDef" x="30" y="36" onmousedown="handleReset()"/>
   <use id="arrowup" xlink:href="#arrowUp" x="0" y="0" onmousedown="handlePan(0,-1)"/>
  <use id="arrowright" xlink:href="#arrowRight" x="0" y="0" onmousedown="handlePan(1,0)"/>
  <use id="arrowdown" xlink:href="#arrowDown" x="0" y="0" onmousedown="handlePan(0,1)"/>
  <use id="arrowleft" xlink:href="#arrowLeft" x="0" y="0" onmousedown="handlePan(-1,0)"/>
</g>
<svg viewBox="0 0 15 15" width="100%" height="30px" preserveAspectRatio="xMaxYMin meet">
 <g id="arrow_out" transform="scale(0.3 0.3)">
  <a xlink:href="class_slic3r_1_1_minimum_spanning_tree__coll__graph_org.svg" target="_base">
   <rect id="button" ry="5" rx="5" y="6" x="6" height="38" width="38"
        fill="#f2f5e9" fill-opacity="0.5" stroke="#606060" stroke-width="1.0"/>
   <path id="arrow"
     d="M 11.500037,31.436501 C 11.940474,20.09759 22.043105,11.32322 32.158766,21.979434 L 37.068811,17.246167 C 37.068811,17.246167 37.088388,32 37.088388,32 L 22.160133,31.978069 C 22.160133,31.978069 26.997745,27.140456 26.997745,27.140456 C 18.528582,18.264221 13.291696,25.230495 11.500037,31.436501 z"
     style="fill:#404040;"/>
  </a>
 </g>
</svg>

<style type='text/css'>
<![CDATA[
[data-mouse-over-selected='false'] { opacity: 0.7; }
[data-mouse-over-selected='true']  { opacity: 1.0; }
]]>
</style>
<script type="application/ecmascript"><![CDATA[
document.addEventListener('DOMContentLoaded', (event) => {
  highlightEdges();
  highlightAdjacentNodes();
});
]]></script>
</svg>
