<?xml version="1.0" encoding="UTF-8" standalone="no"?>
<!DOCTYPE svg PUBLIC "-//W3C//DTD SVG 1.1//EN"
 "http://www.w3.org/Graphics/SVG/1.1/DTD/svg11.dtd">
<!-- Generated by graphviz version 8.1.0 (20230707.0739)
 -->
<!-- Title: ImageSwitchButton::render Pages: 1 -->
<svg width="755pt" height="276pt"
 viewBox="0.00 0.00 754.75 276.43" xmlns="http://www.w3.org/2000/svg" xmlns:xlink="http://www.w3.org/1999/xlink">
<g id="graph0" class="graph" transform="scale(1 1) rotate(0) translate(4 272.43)">
<title>ImageSwitchButton::render</title>
<!-- Node1 -->
<g id="Node000001" class="node">
<title>Node1</title>
<g id="a_Node000001"><a xlink:title=" ">
<polygon fill="#999999" stroke="#666666" points="107.5,-161.05 0,-161.05 0,-130.55 107.5,-130.55 107.5,-161.05"/>
<text text-anchor="start" x="8" y="-147.55" font-family="Helvetica,sans-Serif" font-size="10.00">ImageSwitchButton::</text>
<text text-anchor="middle" x="53.75" y="-136.3" font-family="Helvetica,sans-Serif" font-size="10.00">render</text>
</a>
</g>
</g>
<!-- Node2 -->
<g id="Node000002" class="node">
<title>Node2</title>
<g id="a_Node000002"><a xlink:href="../../d5/db9/class_scalable_bitmap.html#abb4d44a4b22f3436cb7ab22fedb1febd" target="_top" xlink:title=" ">
<polygon fill="white" stroke="#666666" points="275.38,-268.43 166.38,-268.43 166.38,-249.18 275.38,-249.18 275.38,-268.43"/>
<text text-anchor="middle" x="220.88" y="-254.93" font-family="Helvetica,sans-Serif" font-size="10.00">ScalableBitmap::bmp</text>
</a>
</g>
</g>
<!-- Node1&#45;&gt;Node2 -->
<g id="edge1_Node000001_Node000002" class="edge">
<title>Node1&#45;&gt;Node2</title>
<g id="a_edge1_Node000001_Node000002"><a xlink:title=" ">
<path fill="none" stroke="#63b8ff" d="M66.24,-161.28C81.71,-181.06 111.04,-215.1 143.5,-234.8 150.12,-238.82 157.47,-242.22 164.92,-245.09"/>
<polygon fill="#63b8ff" stroke="#63b8ff" points="163.5,-248.65 174.09,-248.68 165.82,-242.05 163.5,-248.65"/>
</a>
</g>
</g>
<!-- Node3 -->
<g id="Node000003" class="node">
<title>Node3</title>
<g id="a_Node000003"><a xlink:href="../../d4/d80/class_state_color.html#aadab2fcc0138286070e9e463116914ce" target="_top" xlink:title=" ">
<polygon fill="white" stroke="#666666" points="609.25,-187.43 477,-187.43 477,-168.18 609.25,-168.18 609.25,-187.43"/>
<text text-anchor="middle" x="543.12" y="-173.93" font-family="Helvetica,sans-Serif" font-size="10.00">StateColor::colorForStates</text>
</a>
</g>
</g>
<!-- Node1&#45;&gt;Node3 -->
<g id="edge2_Node000001_Node000003" class="edge">
<title>Node1&#45;&gt;Node3</title>
<g id="a_edge2_Node000001_Node000003"><a xlink:title=" ">
<path fill="none" stroke="#63b8ff" d="M72.62,-161.41C89.56,-175.08 116.37,-193.96 143.5,-201.8 266.65,-237.41 419.87,-209.06 495.46,-190.57"/>
<polygon fill="#63b8ff" stroke="#63b8ff" points="496.19,-193.74 505.04,-187.92 494.49,-186.95 496.19,-193.74"/>
</a>
</g>
</g>
<!-- Node6 -->
<g id="Node000006" class="node">
<title>Node6</title>
<g id="a_Node000006"><a xlink:href="../../d5/db9/class_scalable_bitmap.html#aef9052958667937703b8754c6fe37b54" target="_top" xlink:title=" ">
<polygon fill="white" stroke="#666666" points="298.25,-192.43 143.5,-192.43 143.5,-173.18 298.25,-173.18 298.25,-192.43"/>
<text text-anchor="middle" x="220.88" y="-178.93" font-family="Helvetica,sans-Serif" font-size="10.00">ScalableBitmap::GetBmpHeight</text>
</a>
</g>
</g>
<!-- Node1&#45;&gt;Node6 -->
<g id="edge6_Node000001_Node000006" class="edge">
<title>Node1&#45;&gt;Node6</title>
<g id="a_edge6_Node000001_Node000006"><a xlink:title=" ">
<path fill="none" stroke="#63b8ff" d="M107.91,-157.71C125.87,-161.74 145.97,-166.24 164.13,-170.31"/>
<polygon fill="#63b8ff" stroke="#63b8ff" points="163.33,-173.94 173.85,-172.71 164.86,-167.11 163.33,-173.94"/>
</a>
</g>
</g>
<!-- Node7 -->
<g id="Node000007" class="node">
<title>Node7</title>
<g id="a_Node000007"><a xlink:href="../../d5/db9/class_scalable_bitmap.html#ab8dbf24ec192b908063acdd69f8016fe" target="_top" xlink:title=" ">
<polygon fill="white" stroke="#666666" points="296.75,-155.43 145,-155.43 145,-136.18 296.75,-136.18 296.75,-155.43"/>
<text text-anchor="middle" x="220.88" y="-141.93" font-family="Helvetica,sans-Serif" font-size="10.00">ScalableBitmap::GetBmpWidth</text>
</a>
</g>
</g>
<!-- Node1&#45;&gt;Node7 -->
<g id="edge7_Node000001_Node000007" class="edge">
<title>Node1&#45;&gt;Node7</title>
<g id="a_edge7_Node000001_Node000007"><a xlink:title=" ">
<path fill="none" stroke="#63b8ff" d="M107.91,-145.8C116.22,-145.8 124.99,-145.8 133.81,-145.8"/>
<polygon fill="#63b8ff" stroke="#63b8ff" points="133.57,-149.3 143.57,-145.8 133.57,-142.3 133.57,-149.3"/>
</a>
</g>
</g>
<!-- Node8 -->
<g id="Node000008" class="node">
<title>Node8</title>
<g id="a_Node000008"><a xlink:href="../../db/d9f/class_image_switch_button.html#a5eef9c189c1fce33f7253eeeadd25f99" target="_top" xlink:title=" ">
<polygon fill="white" stroke="#666666" points="274.62,-118.05 167.12,-118.05 167.12,-87.55 274.62,-87.55 274.62,-118.05"/>
<text text-anchor="start" x="175.12" y="-104.55" font-family="Helvetica,sans-Serif" font-size="10.00">ImageSwitchButton::</text>
<text text-anchor="middle" x="220.88" y="-93.3" font-family="Helvetica,sans-Serif" font-size="10.00">GetValue</text>
</a>
</g>
</g>
<!-- Node1&#45;&gt;Node8 -->
<g id="edge8_Node000001_Node000008" class="edge">
<title>Node1&#45;&gt;Node8</title>
<g id="a_edge8_Node000001_Node000008"><a xlink:title=" ">
<path fill="none" stroke="#63b8ff" d="M107.91,-131.96C123.37,-127.93 140.43,-123.49 156.46,-119.32"/>
<polygon fill="#63b8ff" stroke="#63b8ff" points="157.02,-122.53 165.82,-116.62 155.26,-115.75 157.02,-122.53"/>
</a>
</g>
</g>
<!-- Node9 -->
<g id="Node000009" class="node">
<title>Node9</title>
<g id="a_Node000009"><a xlink:href="../../d2/dc2/class_static_box.html#ade5f81a0ffca229c139b5e53f3f5f023" target="_top" xlink:title=" ">
<polygon fill="white" stroke="#666666" points="266.75,-69.43 175,-69.43 175,-50.18 266.75,-50.18 266.75,-69.43"/>
<text text-anchor="middle" x="220.88" y="-55.93" font-family="Helvetica,sans-Serif" font-size="10.00">StaticBox::render</text>
</a>
</g>
</g>
<!-- Node1&#45;&gt;Node9 -->
<g id="edge9_Node000001_Node000009" class="edge">
<title>Node1&#45;&gt;Node9</title>
<g id="a_edge9_Node000001_Node000009"><a xlink:title=" ">
<path fill="none" stroke="#63b8ff" d="M71.07,-130.22C87.92,-114.95 115.62,-92.11 143.5,-78.8 150.05,-75.68 157.16,-73.03 164.33,-70.8"/>
<polygon fill="#63b8ff" stroke="#63b8ff" points="165.14,-73.93 173.8,-67.82 163.23,-67.19 165.14,-73.93"/>
</a>
</g>
</g>
<!-- Node13 -->
<g id="Node000013" class="node">
<title>Node13</title>
<g id="a_Node000013"><a xlink:href="../../d1/d5e/class_state_handler.html#a1506267f584834db7fd9ffac89437c00" target="_top" xlink:title=" ">
<polygon fill="white" stroke="#666666" points="596.12,-32.43 490.12,-32.43 490.12,-13.18 596.12,-13.18 596.12,-32.43"/>
<text text-anchor="middle" x="543.12" y="-18.93" font-family="Helvetica,sans-Serif" font-size="10.00">StateHandler::states</text>
</a>
</g>
</g>
<!-- Node1&#45;&gt;Node13 -->
<g id="edge15_Node000001_Node000013" class="edge">
<title>Node1&#45;&gt;Node13</title>
<g id="a_edge15_Node000001_Node000013"><a xlink:title=" ">
<path fill="none" stroke="#63b8ff" d="M62.51,-130.16C75.48,-105.95 104.09,-60.19 143.5,-40.8 252.26,12.69 398.55,1.47 480.27,-10.99"/>
<polygon fill="#63b8ff" stroke="#63b8ff" points="479.7,-14.6 490.12,-12.71 480.79,-7.69 479.7,-14.6"/>
</a>
</g>
</g>
<!-- Node4 -->
<g id="Node000004" class="node">
<title>Node4</title>
<g id="a_Node000004"><a xlink:href="../../d3/d55/_state_color_8cpp.html#a516dd14cca918469a885837471704d99" target="_top" xlink:title=" ">
<polygon fill="white" stroke="#666666" points="746.75,-214.43 645.25,-214.43 645.25,-195.18 746.75,-195.18 746.75,-214.43"/>
<text text-anchor="middle" x="696" y="-200.93" font-family="Helvetica,sans-Serif" font-size="10.00">darkModeColorFor2</text>
</a>
</g>
</g>
<!-- Node3&#45;&gt;Node4 -->
<g id="edge3_Node000003_Node000004" class="edge">
<title>Node3&#45;&gt;Node4</title>
<g id="a_edge3_Node000003_Node000004"><a xlink:title=" ">
<path fill="none" stroke="#63b8ff" d="M600.31,-187.86C611.48,-189.86 623.26,-191.96 634.57,-193.99"/>
<polygon fill="#63b8ff" stroke="#63b8ff" points="633.77,-197.58 644.23,-195.9 635.01,-190.69 633.77,-197.58"/>
</a>
</g>
</g>
<!-- Node5 -->
<g id="Node000005" class="node">
<title>Node5</title>
<g id="a_Node000005"><a xlink:href="../../d4/d80/class_state_color.html#a1135adf2b5f79b93718d3fd6f30fabe5" target="_top" xlink:title=" ">
<polygon fill="white" stroke="#666666" points="743.75,-159.43 648.25,-159.43 648.25,-140.18 743.75,-140.18 743.75,-159.43"/>
<text text-anchor="middle" x="696" y="-145.93" font-family="Helvetica,sans-Serif" font-size="10.00">StateColor::states</text>
</a>
</g>
</g>
<!-- Node3&#45;&gt;Node5 -->
<g id="edge4_Node000003_Node000005" class="edge">
<title>Node3&#45;&gt;Node5</title>
<g id="a_edge4_Node000003_Node000005"><a xlink:title=" ">
<path fill="none" stroke="#63b8ff" d="M598.59,-167.69C611.26,-165.34 624.77,-162.84 637.56,-160.46"/>
<polygon fill="#63b8ff" stroke="#63b8ff" points="637.9,-163.77 647.09,-158.51 636.62,-156.89 637.9,-163.77"/>
</a>
</g>
</g>
<!-- Node5&#45;&gt;Node5 -->
<g id="edge5_Node000005_Node000005" class="edge">
<title>Node5&#45;&gt;Node5</title>
<g id="a_edge5_Node000005_Node000005"><a xlink:title=" ">
<path fill="none" stroke="#63b8ff" d="M672.07,-159.72C661.15,-168.32 669.13,-177.43 696,-177.43 711.96,-177.43 721.25,-174.22 723.88,-169.81"/>
<polygon fill="#63b8ff" stroke="#63b8ff" points="726.84,-168.75 719.93,-160.72 720.32,-171.3 726.84,-168.75"/>
</a>
</g>
</g>
<!-- Node10 -->
<g id="Node000010" class="node">
<title>Node10</title>
<g id="a_Node000010"><a xlink:href="../../d2/dc2/class_static_box.html#a1d763f8fb0eba8370aa786e909621f40" target="_top" xlink:title=" ">
<polygon fill="white" stroke="#666666" points="441,-69.43 334.25,-69.43 334.25,-50.18 441,-50.18 441,-69.43"/>
<text text-anchor="middle" x="387.62" y="-55.93" font-family="Helvetica,sans-Serif" font-size="10.00">StaticBox::doRender</text>
</a>
</g>
</g>
<!-- Node9&#45;&gt;Node10 -->
<g id="edge10_Node000009_Node000010" class="edge">
<title>Node9&#45;&gt;Node10</title>
<g id="a_edge10_Node000009_Node000010"><a xlink:title=" ">
<path fill="none" stroke="#63b8ff" d="M266.89,-59.8C284.18,-59.8 304.24,-59.8 322.95,-59.8"/>
<polygon fill="#63b8ff" stroke="#63b8ff" points="322.77,-63.3 332.77,-59.8 322.77,-56.3 322.77,-63.3"/>
</a>
</g>
</g>
<!-- Node10&#45;&gt;Node3 -->
<g id="edge11_Node000010_Node000003" class="edge">
<title>Node10&#45;&gt;Node3</title>
<g id="a_edge11_Node000010_Node000003"><a xlink:title=" ">
<path fill="none" stroke="#63b8ff" d="M401.71,-69.86C428.22,-90.24 488.47,-136.56 520.76,-161.38"/>
<polygon fill="#63b8ff" stroke="#63b8ff" points="518.01,-164.45 528.07,-167.77 522.28,-158.9 518.01,-164.45"/>
</a>
</g>
</g>
<!-- Node11 -->
<g id="Node000011" class="node">
<title>Node11</title>
<g id="a_Node000011"><a xlink:href="../../d4/d80/class_state_color.html#a879064a7f59f438c72234f341c97f6bf" target="_top" xlink:title=" ">
<polygon fill="white" stroke="#666666" points="589.38,-106.43 496.88,-106.43 496.88,-87.18 589.38,-87.18 589.38,-106.43"/>
<text text-anchor="middle" x="543.12" y="-92.93" font-family="Helvetica,sans-Serif" font-size="10.00">StateColor::count</text>
</a>
</g>
</g>
<!-- Node10&#45;&gt;Node11 -->
<g id="edge12_Node000010_Node000011" class="edge">
<title>Node10&#45;&gt;Node11</title>
<g id="a_edge12_Node000010_Node000011"><a xlink:title=" ">
<path fill="none" stroke="#63b8ff" d="M430.57,-69.91C448.84,-74.32 470.46,-79.53 489.77,-84.18"/>
<polygon fill="#63b8ff" stroke="#63b8ff" points="488.69,-87.76 499.23,-86.7 490.33,-80.96 488.69,-87.76"/>
</a>
</g>
</g>
<!-- Node12 -->
<g id="Node000012" class="node">
<title>Node12</title>
<g id="a_Node000012"><a xlink:href="../../d4/df0/_array_cwise_unary_ops_8h.html#a3230e10964844c34fb73eaccc84dc8a7" target="_top" xlink:title=" ">
<polygon fill="white" stroke="#666666" points="560.5,-69.43 525.75,-69.43 525.75,-50.18 560.5,-50.18 560.5,-69.43"/>
<text text-anchor="middle" x="543.12" y="-55.93" font-family="Helvetica,sans-Serif" font-size="10.00">floor</text>
</a>
</g>
</g>
<!-- Node10&#45;&gt;Node12 -->
<g id="edge13_Node000010_Node000012" class="edge">
<title>Node10&#45;&gt;Node12</title>
<g id="a_edge13_Node000010_Node000012"><a xlink:title=" ">
<path fill="none" stroke="#63b8ff" d="M441.45,-59.8C465.95,-59.8 494.07,-59.8 514.35,-59.8"/>
<polygon fill="#63b8ff" stroke="#63b8ff" points="514.3,-63.3 524.3,-59.8 514.3,-56.3 514.3,-63.3"/>
</a>
</g>
</g>
<!-- Node10&#45;&gt;Node13 -->
<g id="edge14_Node000010_Node000013" class="edge">
<title>Node10&#45;&gt;Node13</title>
<g id="a_edge14_Node000010_Node000013"><a xlink:title=" ">
<path fill="none" stroke="#63b8ff" d="M430.57,-49.69C448.84,-45.29 470.46,-40.08 489.77,-35.42"/>
<polygon fill="#63b8ff" stroke="#63b8ff" points="490.33,-38.65 499.23,-32.9 488.69,-31.84 490.33,-38.65"/>
</a>
</g>
</g>
</g>
</svg>
