<?xml version="1.0" encoding="UTF-8" standalone="no"?>
<!DOCTYPE svg PUBLIC "-//W3C//DTD SVG 1.1//EN"
 "http://www.w3.org/Graphics/SVG/1.1/DTD/svg11.dtd">
<!-- Generated by graphviz version 8.1.0 (20230707.0739)
 -->
<!-- Title: ImageSwitchButton::SetLabels Pages: 1 -->
<svg width="1361pt" height="212pt"
 viewBox="0.00 0.00 1360.75 211.50" xmlns="http://www.w3.org/2000/svg" xmlns:xlink="http://www.w3.org/1999/xlink">
<g id="graph0" class="graph" transform="scale(1 1) rotate(0) translate(4 207.5)">
<title>ImageSwitchButton::SetLabels</title>
<!-- Node1 -->
<g id="Node000001" class="node">
<title>Node1</title>
<g id="a_Node000001"><a xlink:title=" ">
<polygon fill="#999999" stroke="#666666" points="1352.75,-154.5 1245.25,-154.5 1245.25,-124 1352.75,-124 1352.75,-154.5"/>
<text text-anchor="start" x="1253.25" y="-141" font-family="Helvetica,sans-Serif" font-size="10.00">ImageSwitchButton::</text>
<text text-anchor="middle" x="1299" y="-129.75" font-family="Helvetica,sans-Serif" font-size="10.00">SetLabels</text>
</a>
</g>
</g>
<!-- Node2 -->
<g id="Node000002" class="node">
<title>Node2</title>
<g id="a_Node000002"><a xlink:href="../../df/d0e/class_slic3r_1_1_g_u_i_1_1_status_base_panel.html#a2cdd553cca9f89d326f1cf8a7a124ff2" target="_top" xlink:title=" ">
<polygon fill="white" stroke="#666666" points="1209.25,-203.5 1062.75,-203.5 1062.75,-173 1209.25,-173 1209.25,-203.5"/>
<text text-anchor="start" x="1070.75" y="-190" font-family="Helvetica,sans-Serif" font-size="10.00">Slic3r::GUI::StatusBasePanel</text>
<text text-anchor="middle" x="1136" y="-178.75" font-family="Helvetica,sans-Serif" font-size="10.00">::create_misc_control</text>
</a>
</g>
</g>
<!-- Node1&#45;&gt;Node2 -->
<g id="edge1_Node000001_Node000002" class="edge">
<title>Node1&#45;&gt;Node2</title>
<g id="a_edge1_Node000001_Node000002"><a xlink:title=" ">
<path fill="none" stroke="#63b8ff" d="M1236.44,-157.98C1220.69,-162.78 1203.92,-167.88 1188.72,-172.51"/>
<polygon fill="#63b8ff" stroke="#63b8ff" points="1237.07,-161.15 1245.62,-154.89 1235.03,-154.45 1237.07,-161.15"/>
</a>
</g>
</g>
<!-- Node7 -->
<g id="Node000007" class="node">
<title>Node7</title>
<g id="a_Node000007"><a xlink:href="../../df/d0e/class_slic3r_1_1_g_u_i_1_1_status_base_panel.html#ac3216baea945a8e7fff39fbc6ead332e" target="_top" xlink:title=" ">
<polygon fill="white" stroke="#666666" points="1209.25,-105.5 1062.75,-105.5 1062.75,-75 1209.25,-75 1209.25,-105.5"/>
<text text-anchor="start" x="1070.75" y="-92" font-family="Helvetica,sans-Serif" font-size="10.00">Slic3r::GUI::StatusBasePanel</text>
<text text-anchor="middle" x="1136" y="-80.75" font-family="Helvetica,sans-Serif" font-size="10.00">::reset_temp_misc_control</text>
</a>
</g>
</g>
<!-- Node1&#45;&gt;Node7 -->
<g id="edge6_Node000001_Node000007" class="edge">
<title>Node1&#45;&gt;Node7</title>
<g id="a_edge6_Node000001_Node000007"><a xlink:title=" ">
<path fill="none" stroke="#63b8ff" d="M1236.44,-120.52C1220.69,-115.72 1203.92,-110.62 1188.72,-105.99"/>
<polygon fill="#63b8ff" stroke="#63b8ff" points="1235.03,-124.05 1245.62,-123.61 1237.07,-117.35 1235.03,-124.05"/>
</a>
</g>
</g>
<!-- Node17 -->
<g id="Node000017" class="node">
<title>Node17</title>
<g id="a_Node000017"><a xlink:href="../../dc/dbb/class_slic3r_1_1_g_u_i_1_1_status_panel.html#a19939aaa7499f4f9a1d92863e5293bcc" target="_top" xlink:title=" ">
<polygon fill="white" stroke="#666666" points="1198,-154.5 1074,-154.5 1074,-124 1198,-124 1198,-154.5"/>
<text text-anchor="start" x="1082" y="-141" font-family="Helvetica,sans-Serif" font-size="10.00">Slic3r::GUI::StatusPanel</text>
<text text-anchor="middle" x="1136" y="-129.75" font-family="Helvetica,sans-Serif" font-size="10.00">::update_misc_ctrl</text>
</a>
</g>
</g>
<!-- Node1&#45;&gt;Node17 -->
<g id="edge16_Node000001_Node000017" class="edge">
<title>Node1&#45;&gt;Node17</title>
<g id="a_edge16_Node000001_Node000017"><a xlink:title=" ">
<path fill="none" stroke="#63b8ff" d="M1233.84,-139.25C1222.19,-139.25 1210.05,-139.25 1198.48,-139.25"/>
<polygon fill="#63b8ff" stroke="#63b8ff" points="1233.84,-142.75 1243.84,-139.25 1233.84,-135.75 1233.84,-142.75"/>
</a>
</g>
</g>
<!-- Node3 -->
<g id="Node000003" class="node">
<title>Node3</title>
<g id="a_Node000003"><a xlink:href="../../df/d0e/class_slic3r_1_1_g_u_i_1_1_status_base_panel.html#a21969b36cea3d75298ca3df0a7a45277" target="_top" xlink:title=" ">
<polygon fill="white" stroke="#666666" points="1026.75,-203.5 880.25,-203.5 880.25,-173 1026.75,-173 1026.75,-203.5"/>
<text text-anchor="start" x="888.25" y="-190" font-family="Helvetica,sans-Serif" font-size="10.00">Slic3r::GUI::StatusBasePanel</text>
<text text-anchor="middle" x="953.5" y="-178.75" font-family="Helvetica,sans-Serif" font-size="10.00">::create_temp_control</text>
</a>
</g>
</g>
<!-- Node2&#45;&gt;Node3 -->
<g id="edge2_Node000002_Node000003" class="edge">
<title>Node2&#45;&gt;Node3</title>
<g id="a_edge2_Node000002_Node000003"><a xlink:title=" ">
<path fill="none" stroke="#63b8ff" d="M1051.62,-188.25C1043.39,-188.25 1035.09,-188.25 1026.99,-188.25"/>
<polygon fill="#63b8ff" stroke="#63b8ff" points="1051.36,-191.75 1061.36,-188.25 1051.36,-184.75 1051.36,-191.75"/>
</a>
</g>
</g>
<!-- Node4 -->
<g id="Node000004" class="node">
<title>Node4</title>
<g id="a_Node000004"><a xlink:href="../../df/d0e/class_slic3r_1_1_g_u_i_1_1_status_base_panel.html#a0e1063de30098c46f053529ad2fd435f" target="_top" xlink:title=" ">
<polygon fill="white" stroke="#666666" points="844.25,-203.5 697.75,-203.5 697.75,-173 844.25,-173 844.25,-203.5"/>
<text text-anchor="start" x="705.75" y="-190" font-family="Helvetica,sans-Serif" font-size="10.00">Slic3r::GUI::StatusBasePanel</text>
<text text-anchor="middle" x="771" y="-178.75" font-family="Helvetica,sans-Serif" font-size="10.00">::create_temp_axis_group</text>
</a>
</g>
</g>
<!-- Node3&#45;&gt;Node4 -->
<g id="edge3_Node000003_Node000004" class="edge">
<title>Node3&#45;&gt;Node4</title>
<g id="a_edge3_Node000003_Node000004"><a xlink:title=" ">
<path fill="none" stroke="#63b8ff" d="M869.12,-188.25C860.89,-188.25 852.59,-188.25 844.49,-188.25"/>
<polygon fill="#63b8ff" stroke="#63b8ff" points="868.86,-191.75 878.86,-188.25 868.86,-184.75 868.86,-191.75"/>
</a>
</g>
</g>
<!-- Node5 -->
<g id="Node000005" class="node">
<title>Node5</title>
<g id="a_Node000005"><a xlink:href="../../df/d0e/class_slic3r_1_1_g_u_i_1_1_status_base_panel.html#a0baa565f8e170217afb8165ec1ff75bf" target="_top" xlink:title=" ">
<polygon fill="white" stroke="#666666" points="661.75,-203.5 510,-203.5 510,-173 661.75,-173 661.75,-203.5"/>
<text text-anchor="start" x="518" y="-190" font-family="Helvetica,sans-Serif" font-size="10.00">Slic3r::GUI::StatusBasePanel</text>
<text text-anchor="middle" x="585.88" y="-178.75" font-family="Helvetica,sans-Serif" font-size="10.00">::create_machine_control_page</text>
</a>
</g>
</g>
<!-- Node4&#45;&gt;Node5 -->
<g id="edge4_Node000004_Node000005" class="edge">
<title>Node4&#45;&gt;Node5</title>
<g id="a_edge4_Node000004_Node000005"><a xlink:title=" ">
<path fill="none" stroke="#63b8ff" d="M686.4,-188.25C678.31,-188.25 670.13,-188.25 662.13,-188.25"/>
<polygon fill="#63b8ff" stroke="#63b8ff" points="686.36,-191.75 696.36,-188.25 686.36,-184.75 686.36,-191.75"/>
</a>
</g>
</g>
<!-- Node6 -->
<g id="Node000006" class="node">
<title>Node6</title>
<g id="a_Node000006"><a xlink:href="../../df/d0e/class_slic3r_1_1_g_u_i_1_1_status_base_panel.html#ac5d4b9cc2f4dff8893ed27acd61e70be" target="_top" xlink:title=" ">
<polygon fill="white" stroke="#666666" points="474,-203.5 327.5,-203.5 327.5,-173 474,-173 474,-203.5"/>
<text text-anchor="start" x="335.5" y="-190" font-family="Helvetica,sans-Serif" font-size="10.00">Slic3r::GUI::StatusBasePanel</text>
<text text-anchor="middle" x="400.75" y="-178.75" font-family="Helvetica,sans-Serif" font-size="10.00">::StatusBasePanel</text>
</a>
</g>
</g>
<!-- Node5&#45;&gt;Node6 -->
<g id="edge5_Node000005_Node000006" class="edge">
<title>Node5&#45;&gt;Node6</title>
<g id="a_edge5_Node000005_Node000006"><a xlink:title=" ">
<path fill="none" stroke="#63b8ff" d="M498.6,-188.25C490.5,-188.25 482.34,-188.25 474.37,-188.25"/>
<polygon fill="#63b8ff" stroke="#63b8ff" points="498.6,-191.75 508.6,-188.25 498.6,-184.75 498.6,-191.75"/>
</a>
</g>
</g>
<!-- Node8 -->
<g id="Node000008" class="node">
<title>Node8</title>
<g id="a_Node000008"><a xlink:href="../../dc/dbb/class_slic3r_1_1_g_u_i_1_1_status_panel.html#a88ca68a50790e8e530ffe3d9e73c0fa3" target="_top" xlink:title=" ">
<polygon fill="white" stroke="#666666" points="1015.5,-105.5 891.5,-105.5 891.5,-75 1015.5,-75 1015.5,-105.5"/>
<text text-anchor="start" x="899.5" y="-92" font-family="Helvetica,sans-Serif" font-size="10.00">Slic3r::GUI::StatusPanel</text>
<text text-anchor="middle" x="953.5" y="-80.75" font-family="Helvetica,sans-Serif" font-size="10.00">::set_default</text>
</a>
</g>
</g>
<!-- Node7&#45;&gt;Node8 -->
<g id="edge7_Node000007_Node000008" class="edge">
<title>Node7&#45;&gt;Node8</title>
<g id="a_edge7_Node000007_Node000008"><a xlink:title=" ">
<path fill="none" stroke="#63b8ff" d="M1051.46,-90.25C1039.51,-90.25 1027.4,-90.25 1015.98,-90.25"/>
<polygon fill="#63b8ff" stroke="#63b8ff" points="1051.36,-93.75 1061.36,-90.25 1051.36,-86.75 1051.36,-93.75"/>
</a>
</g>
</g>
<!-- Node9 -->
<g id="Node000009" class="node">
<title>Node9</title>
<g id="a_Node000009"><a xlink:href="../../d4/d77/class_slic3r_1_1_g_u_i_1_1_monitor_panel.html#abd9abd367be2ab45fe8de2592a0dc8ec" target="_top" xlink:title=" ">
<polygon fill="white" stroke="#666666" points="834.88,-105.5 707.12,-105.5 707.12,-75 834.88,-75 834.88,-105.5"/>
<text text-anchor="start" x="715.12" y="-92" font-family="Helvetica,sans-Serif" font-size="10.00">Slic3r::GUI::MonitorPanel</text>
<text text-anchor="middle" x="771" y="-80.75" font-family="Helvetica,sans-Serif" font-size="10.00">::set_default</text>
</a>
</g>
</g>
<!-- Node8&#45;&gt;Node9 -->
<g id="edge8_Node000008_Node000009" class="edge">
<title>Node8&#45;&gt;Node9</title>
<g id="a_edge8_Node000008_Node000009"><a xlink:title=" ">
<path fill="none" stroke="#63b8ff" d="M880.43,-90.25C865.52,-90.25 849.92,-90.25 835.34,-90.25"/>
<polygon fill="#63b8ff" stroke="#63b8ff" points="880.14,-93.75 890.14,-90.25 880.14,-86.75 880.14,-93.75"/>
</a>
</g>
</g>
<!-- Node10 -->
<g id="Node000010" class="node">
<title>Node10</title>
<g id="a_Node000010"><a xlink:href="../../d4/d77/class_slic3r_1_1_g_u_i_1_1_monitor_panel.html#a4a4b54e8793dac1a3896d841720a181d" target="_top" xlink:title=" ">
<polygon fill="white" stroke="#666666" points="291.5,-79.5 163.75,-79.5 163.75,-49 291.5,-49 291.5,-79.5"/>
<text text-anchor="start" x="171.75" y="-66" font-family="Helvetica,sans-Serif" font-size="10.00">Slic3r::GUI::MonitorPanel</text>
<text text-anchor="middle" x="227.62" y="-54.75" font-family="Helvetica,sans-Serif" font-size="10.00">::on_select_printer</text>
</a>
</g>
</g>
<!-- Node9&#45;&gt;Node10 -->
<g id="edge9_Node000009_Node000010" class="edge">
<title>Node9&#45;&gt;Node10</title>
<g id="a_edge9_Node000009_Node000010"><a xlink:title=" ">
<path fill="none" stroke="#63b8ff" d="M695.85,-92.56C607.78,-94.47 456.55,-95.08 327.5,-82.25 315.95,-81.1 303.73,-79.34 291.97,-77.35"/>
<polygon fill="#63b8ff" stroke="#63b8ff" points="695.88,-96.04 705.79,-92.31 695.72,-89.04 695.88,-96.04"/>
</a>
</g>
</g>
<!-- Node12 -->
<g id="Node000012" class="node">
<title>Node12</title>
<g id="a_Node000012"><a xlink:href="../../d4/d77/class_slic3r_1_1_g_u_i_1_1_monitor_panel.html#a6f227999bdc6c65f3658492e9798010a" target="_top" xlink:title=" ">
<polygon fill="white" stroke="#666666" points="649.75,-73.5 522,-73.5 522,-43 649.75,-43 649.75,-73.5"/>
<text text-anchor="start" x="530" y="-60" font-family="Helvetica,sans-Serif" font-size="10.00">Slic3r::GUI::MonitorPanel</text>
<text text-anchor="middle" x="585.88" y="-48.75" font-family="Helvetica,sans-Serif" font-size="10.00">::show_status</text>
</a>
</g>
</g>
<!-- Node9&#45;&gt;Node12 -->
<g id="edge11_Node000009_Node000012" class="edge">
<title>Node9&#45;&gt;Node12</title>
<g id="a_edge11_Node000009_Node000012"><a xlink:title=" ">
<path fill="none" stroke="#63b8ff" d="M696.28,-77.37C680.99,-74.7 665.02,-71.91 650.16,-69.31"/>
<polygon fill="#63b8ff" stroke="#63b8ff" points="695.27,-80.92 705.72,-79.19 696.47,-74.02 695.27,-80.92"/>
</a>
</g>
</g>
<!-- Node11 -->
<g id="Node000011" class="node">
<title>Node11</title>
<g id="a_Node000011"><a xlink:href="../../d4/d77/class_slic3r_1_1_g_u_i_1_1_monitor_panel.html#a13ffdb6797a54bb0643e430f242462ac" target="_top" xlink:title=" ">
<polygon fill="white" stroke="#666666" points="127.75,-54.5 0,-54.5 0,-24 127.75,-24 127.75,-54.5"/>
<text text-anchor="start" x="8" y="-41" font-family="Helvetica,sans-Serif" font-size="10.00">Slic3r::GUI::MonitorPanel</text>
<text text-anchor="middle" x="63.88" y="-29.75" font-family="Helvetica,sans-Serif" font-size="10.00">::MonitorPanel</text>
</a>
</g>
</g>
<!-- Node10&#45;&gt;Node11 -->
<g id="edge10_Node000010_Node000011" class="edge">
<title>Node10&#45;&gt;Node11</title>
<g id="a_edge10_Node000010_Node000011"><a xlink:title=" ">
<path fill="none" stroke="#63b8ff" d="M152.89,-52.85C144.65,-51.58 136.32,-50.29 128.24,-49.04"/>
<polygon fill="#63b8ff" stroke="#63b8ff" points="152.21,-56.44 162.63,-54.51 153.28,-49.53 152.21,-56.44"/>
</a>
</g>
</g>
<!-- Node13 -->
<g id="Node000013" class="node">
<title>Node13</title>
<g id="a_Node000013"><a xlink:href="../../d4/d77/class_slic3r_1_1_g_u_i_1_1_monitor_panel.html#a1716b924686e014ca5383dec8805052e" target="_top" xlink:title=" ">
<polygon fill="white" stroke="#666666" points="291.5,-30.5 163.75,-30.5 163.75,0 291.5,0 291.5,-30.5"/>
<text text-anchor="start" x="171.75" y="-17" font-family="Helvetica,sans-Serif" font-size="10.00">Slic3r::GUI::MonitorPanel</text>
<text text-anchor="middle" x="227.62" y="-5.75" font-family="Helvetica,sans-Serif" font-size="10.00">::init_tabpanel</text>
</a>
</g>
</g>
<!-- Node12&#45;&gt;Node13 -->
<g id="edge12_Node000012_Node000013" class="edge">
<title>Node12&#45;&gt;Node13</title>
<g id="a_edge12_Node000012_Node000013"><a xlink:title=" ">
<path fill="none" stroke="#63b8ff" d="M510.87,-40.77C498.61,-38.3 485.98,-36 474,-34.25 412.49,-25.25 341.63,-20.35 291.93,-17.79"/>
<polygon fill="#63b8ff" stroke="#63b8ff" points="510.03,-44.38 520.53,-42.99 511.45,-37.53 510.03,-44.38"/>
</a>
</g>
</g>
<!-- Node14 -->
<g id="Node000014" class="node">
<title>Node14</title>
<g id="a_Node000014"><a xlink:href="../../d4/d77/class_slic3r_1_1_g_u_i_1_1_monitor_panel.html#ac5857bac9c8c7b48dcb28e3c43319429" target="_top" xlink:title=" ">
<polygon fill="#fff0f0" stroke="red" points="464.62,-73.5 336.88,-73.5 336.88,-43 464.62,-43 464.62,-73.5"/>
<text text-anchor="start" x="344.88" y="-60" font-family="Helvetica,sans-Serif" font-size="10.00">Slic3r::GUI::MonitorPanel</text>
<text text-anchor="middle" x="400.75" y="-48.75" font-family="Helvetica,sans-Serif" font-size="10.00">::update_all</text>
</a>
</g>
</g>
<!-- Node12&#45;&gt;Node14 -->
<g id="edge14_Node000012_Node000014" class="edge">
<title>Node12&#45;&gt;Node14</title>
<g id="a_edge14_Node000012_Node000014"><a xlink:title=" ">
<path fill="none" stroke="#63b8ff" d="M510.71,-58.25C495.56,-58.25 479.75,-58.25 465.03,-58.25"/>
<polygon fill="#63b8ff" stroke="#63b8ff" points="510.6,-61.75 520.6,-58.25 510.6,-54.75 510.6,-61.75"/>
</a>
</g>
</g>
<!-- Node13&#45;&gt;Node11 -->
<g id="edge13_Node000013_Node000011" class="edge">
<title>Node13&#45;&gt;Node11</title>
<g id="a_edge13_Node000013_Node000011"><a xlink:title=" ">
<path fill="none" stroke="#63b8ff" d="M152.89,-26.19C144.65,-27.41 136.32,-28.65 128.24,-29.85"/>
<polygon fill="#63b8ff" stroke="#63b8ff" points="153.25,-29.53 162.63,-24.6 152.22,-22.6 153.25,-29.53"/>
</a>
</g>
</g>
<!-- Node14&#45;&gt;Node10 -->
<g id="edge15_Node000014_Node000010" class="edge">
<title>Node14&#45;&gt;Node10</title>
<g id="a_edge15_Node000014_Node000010"><a xlink:title=" ">
<path fill="none" stroke="#63b8ff" d="M325.79,-60.84C314.5,-61.24 302.92,-61.64 291.89,-62.03"/>
<polygon fill="#63b8ff" stroke="#63b8ff" points="325.64,-64.32 335.52,-60.47 325.4,-57.32 325.64,-64.32"/>
</a>
</g>
</g>
<!-- Node18 -->
<g id="Node000018" class="node">
<title>Node18</title>
<g id="a_Node000018"><a xlink:href="../../dc/dbb/class_slic3r_1_1_g_u_i_1_1_status_panel.html#a632623622b2983d0499e8cf47403dc85" target="_top" xlink:title=" ">
<polygon fill="white" stroke="#666666" points="833,-154.5 709,-154.5 709,-124 833,-124 833,-154.5"/>
<text text-anchor="start" x="717" y="-141" font-family="Helvetica,sans-Serif" font-size="10.00">Slic3r::GUI::StatusPanel</text>
<text text-anchor="middle" x="771" y="-129.75" font-family="Helvetica,sans-Serif" font-size="10.00">::update</text>
</a>
</g>
</g>
<!-- Node17&#45;&gt;Node18 -->
<g id="edge17_Node000017_Node000018" class="edge">
<title>Node17&#45;&gt;Node18</title>
<g id="a_edge17_Node000017_Node000018"><a xlink:title=" ">
<path fill="none" stroke="#63b8ff" d="M1062.93,-139.25C995.82,-139.25 896.87,-139.25 833.42,-139.25"/>
<polygon fill="#63b8ff" stroke="#63b8ff" points="1062.83,-142.75 1072.83,-139.25 1062.83,-135.75 1062.83,-142.75"/>
</a>
</g>
</g>
<!-- Node18&#45;&gt;Node14 -->
<g id="edge18_Node000018_Node000014" class="edge">
<title>Node18&#45;&gt;Node14</title>
<g id="a_edge18_Node000018_Node000014"><a xlink:title=" ">
<path fill="none" stroke="#63b8ff" d="M698.03,-123.52C645.83,-112.1 573.54,-96.26 510,-82.25 495.43,-79.04 479.76,-75.57 465,-72.3"/>
<polygon fill="#63b8ff" stroke="#63b8ff" points="697.01,-127.1 707.53,-125.82 698.51,-120.26 697.01,-127.1"/>
</a>
</g>
</g>
</g>
</svg>
