<?xml version="1.0" encoding="UTF-8" standalone="no"?>
<!DOCTYPE svg PUBLIC "-//W3C//DTD SVG 1.1//EN"
 "http://www.w3.org/Graphics/SVG/1.1/DTD/svg11.dtd">
<!-- Generated by graphviz version 8.1.0 (20230707.0739)
 -->
<!-- Title: stl_file::clear Pages: 1 -->
<svg width="736pt" height="283pt"
 viewBox="0.00 0.00 736.25 282.88" xmlns="http://www.w3.org/2000/svg" xmlns:xlink="http://www.w3.org/1999/xlink">
<g id="graph0" class="graph" transform="scale(1 1) rotate(0) translate(4 278.88)">
<title>stl_file::clear</title>
<!-- Node1 -->
<g id="Node000001" class="node">
<title>Node1</title>
<g id="a_Node000001"><a xlink:title=" ">
<polygon fill="#999999" stroke="#666666" points="728.25,-146.25 656.75,-146.25 656.75,-127 728.25,-127 728.25,-146.25"/>
<text text-anchor="middle" x="692.5" y="-132.75" font-family="Helvetica,sans-Serif" font-size="10.00">stl_file::clear</text>
</a>
</g>
</g>
<!-- Node2 -->
<g id="Node000002" class="node">
<title>Node2</title>
<g id="a_Node000002"><a xlink:href="../../d7/d71/stlinit_8cpp.html#a1b0f33c9c9b87f762ebc268cd43ed6c0" target="_top" xlink:title=" ">
<polygon fill="white" stroke="#666666" points="620.75,-146.25 568,-146.25 568,-127 620.75,-127 620.75,-146.25"/>
<text text-anchor="middle" x="594.38" y="-132.75" font-family="Helvetica,sans-Serif" font-size="10.00">stl_open</text>
</a>
</g>
</g>
<!-- Node1&#45;&gt;Node2 -->
<g id="edge1_Node000001_Node000002" class="edge">
<title>Node1&#45;&gt;Node2</title>
<g id="a_edge1_Node000001_Node000002"><a xlink:title=" ">
<path fill="none" stroke="#63b8ff" d="M645.36,-136.62C636.97,-136.62 628.51,-136.62 620.99,-136.62"/>
<polygon fill="#63b8ff" stroke="#63b8ff" points="645.25,-140.13 655.25,-136.62 645.25,-133.13 645.25,-140.13"/>
</a>
</g>
</g>
<!-- Node3 -->
<g id="Node000003" class="node">
<title>Node3</title>
<g id="a_Node000003"><a xlink:href="../../d8/d71/class_slic3r_1_1_triangle_mesh.html#a20c1b0a4e6852d44037bb8f724442db1" target="_top" xlink:title=" ">
<polygon fill="white" stroke="#666666" points="532,-151.88 426.75,-151.88 426.75,-121.38 532,-121.38 532,-151.88"/>
<text text-anchor="start" x="434.75" y="-138.38" font-family="Helvetica,sans-Serif" font-size="10.00">Slic3r::TriangleMesh</text>
<text text-anchor="middle" x="479.38" y="-127.12" font-family="Helvetica,sans-Serif" font-size="10.00">::ReadSTLFile</text>
</a>
</g>
</g>
<!-- Node2&#45;&gt;Node3 -->
<g id="edge2_Node000002_Node000003" class="edge">
<title>Node2&#45;&gt;Node3</title>
<g id="a_edge2_Node000002_Node000003"><a xlink:title=" ">
<path fill="none" stroke="#63b8ff" d="M556.76,-136.62C548.94,-136.62 540.52,-136.62 532.24,-136.62"/>
<polygon fill="#63b8ff" stroke="#63b8ff" points="556.73,-140.13 566.73,-136.62 556.73,-133.13 556.73,-140.13"/>
</a>
</g>
</g>
<!-- Node4 -->
<g id="Node000004" class="node">
<title>Node4</title>
<g id="a_Node000004"><a xlink:href="../../de/db8/namespace_slic3r.html#ab5fc819a93d629cc8f3cf09ab657399e" target="_top" xlink:title=" ">
<polygon fill="white" stroke="#666666" points="390.75,-146.25 310.25,-146.25 310.25,-127 390.75,-127 390.75,-146.25"/>
<text text-anchor="middle" x="350.5" y="-132.75" font-family="Helvetica,sans-Serif" font-size="10.00">Slic3r::load_stl</text>
</a>
</g>
</g>
<!-- Node3&#45;&gt;Node4 -->
<g id="edge3_Node000003_Node000004" class="edge">
<title>Node3&#45;&gt;Node4</title>
<g id="a_edge3_Node000003_Node000004"><a xlink:title=" ">
<path fill="none" stroke="#63b8ff" d="M415.54,-136.62C407.24,-136.62 398.92,-136.62 391.15,-136.62"/>
<polygon fill="#63b8ff" stroke="#63b8ff" points="415.4,-140.13 425.4,-136.62 415.4,-133.13 415.4,-140.13"/>
</a>
</g>
</g>
<!-- Node5 -->
<g id="Node000005" class="node">
<title>Node5</title>
<g id="a_Node000005"><a xlink:href="../../dd/d8d/class_slic3r_1_1_model.html#a06bcc46f4c5afd4f4b183b434ab80839" target="_top" xlink:title=" ">
<polygon fill="white" stroke="#666666" points="274.25,-151.88 176.5,-151.88 176.5,-121.38 274.25,-121.38 274.25,-151.88"/>
<text text-anchor="start" x="184.5" y="-138.38" font-family="Helvetica,sans-Serif" font-size="10.00">Slic3r::Model::read</text>
<text text-anchor="middle" x="225.38" y="-127.12" font-family="Helvetica,sans-Serif" font-size="10.00">_from_file</text>
</a>
</g>
</g>
<!-- Node4&#45;&gt;Node5 -->
<g id="edge4_Node000004_Node000005" class="edge">
<title>Node4&#45;&gt;Node5</title>
<g id="a_edge4_Node000004_Node000005"><a xlink:title=" ">
<path fill="none" stroke="#63b8ff" d="M299.05,-136.62C290.95,-136.62 282.59,-136.62 274.55,-136.62"/>
<polygon fill="#63b8ff" stroke="#63b8ff" points="298.86,-140.13 308.86,-136.62 298.86,-133.13 298.86,-140.13"/>
</a>
</g>
</g>
<!-- Node6 -->
<g id="Node000006" class="node">
<title>Node6</title>
<g id="a_Node000006"><a xlink:href="../../d0/d55/class_slic3r_1_1_g_u_i_1_1_g_l_model.html#a294a7a22782843cc9d5a7ca481dfd874" target="_top" xlink:title=" ">
<polygon fill="#fff0f0" stroke="red" points="125.12,-274.88 15.38,-274.88 15.38,-244.38 125.12,-244.38 125.12,-274.88"/>
<text text-anchor="start" x="23.38" y="-261.38" font-family="Helvetica,sans-Serif" font-size="10.00">Slic3r::GUI::GLModel</text>
<text text-anchor="middle" x="70.25" y="-250.12" font-family="Helvetica,sans-Serif" font-size="10.00">::init_from_file</text>
</a>
</g>
</g>
<!-- Node5&#45;&gt;Node6 -->
<g id="edge5_Node000005_Node000006" class="edge">
<title>Node5&#45;&gt;Node6</title>
<g id="a_edge5_Node000005_Node000006"><a xlink:title=" ">
<path fill="none" stroke="#63b8ff" d="M208.86,-161.11C193.8,-183.11 169.07,-214.88 140.5,-234.62 135.35,-238.19 129.63,-241.3 123.75,-244.01"/>
<polygon fill="#63b8ff" stroke="#63b8ff" points="212.26,-163.33 214.89,-153.06 206.43,-159.44 212.26,-163.33"/>
</a>
</g>
</g>
<!-- Node40 -->
<g id="Node000040" class="node">
<title>Node40</title>
<g id="a_Node000040"><a xlink:href="../../d4/d88/struct_slic3r_1_1_g_u_i_1_1_plater_1_1priv.html#a8f66b6a670ee52335e7fdac46f2b133e" target="_top" xlink:title=" ">
<polygon fill="white" stroke="#666666" points="118.38,-225.88 22.12,-225.88 22.12,-195.38 118.38,-195.38 118.38,-225.88"/>
<text text-anchor="start" x="30.12" y="-212.38" font-family="Helvetica,sans-Serif" font-size="10.00">Slic3r::GUI::Plater</text>
<text text-anchor="middle" x="70.25" y="-201.12" font-family="Helvetica,sans-Serif" font-size="10.00">::priv::load_files</text>
</a>
</g>
</g>
<!-- Node5&#45;&gt;Node40 -->
<g id="edge6_Node000005_Node000040" class="edge">
<title>Node5&#45;&gt;Node40</title>
<g id="a_edge6_Node000005_Node000040"><a xlink:title=" ">
<path fill="none" stroke="#63b8ff" d="M191.44,-157.74C176.27,-166.97 157.83,-177.52 140.5,-185.62 133.44,-188.93 125.81,-192.08 118.29,-194.96"/>
<polygon fill="#63b8ff" stroke="#63b8ff" points="192.75,-160.43 199.42,-152.2 189.07,-154.47 192.75,-160.43"/>
</a>
</g>
</g>
<!-- Node41 -->
<g id="Node000041" class="node">
<title>Node41</title>
<g id="a_Node000041"><a xlink:href="../../dd/d03/class_slic3r_1_1_g_u_i_1_1_object_list.html#a364aecc4c195f5779e0d5670e9361bec" target="_top" xlink:title=" ">
<polygon fill="#fff0f0" stroke="red" points="127.75,-176.88 12.75,-176.88 12.75,-146.38 127.75,-146.38 127.75,-176.88"/>
<text text-anchor="start" x="20.75" y="-163.38" font-family="Helvetica,sans-Serif" font-size="10.00">Slic3r::GUI::ObjectList</text>
<text text-anchor="middle" x="70.25" y="-152.12" font-family="Helvetica,sans-Serif" font-size="10.00">::load_modifier</text>
</a>
</g>
</g>
<!-- Node5&#45;&gt;Node41 -->
<g id="edge7_Node000005_Node000041" class="edge">
<title>Node5&#45;&gt;Node41</title>
<g id="a_edge7_Node000005_Node000041"><a xlink:title=" ">
<path fill="none" stroke="#63b8ff" d="M165.74,-146.2C153.43,-148.21 140.47,-150.32 128.23,-152.32"/>
<polygon fill="#63b8ff" stroke="#63b8ff" points="166.04,-149.53 175.35,-144.47 164.91,-142.62 166.04,-149.53"/>
</a>
</g>
</g>
<!-- Node44 -->
<g id="Node000044" class="node">
<title>Node44</title>
<g id="a_Node000044"><a xlink:href="../../dd/d97/class_slic3r_1_1_g_u_i_1_1_bed_shape_panel.html#ac7a1ebd61bb3352a348256f7cfd2d420" target="_top" xlink:title=" ">
<polygon fill="#fff0f0" stroke="red" points="140.5,-127.88 0,-127.88 0,-97.38 140.5,-97.38 140.5,-127.88"/>
<text text-anchor="start" x="8" y="-114.38" font-family="Helvetica,sans-Serif" font-size="10.00">Slic3r::GUI::BedShapePanel</text>
<text text-anchor="middle" x="70.25" y="-103.12" font-family="Helvetica,sans-Serif" font-size="10.00">::load_stl</text>
</a>
</g>
</g>
<!-- Node5&#45;&gt;Node44 -->
<g id="edge8_Node000005_Node000044" class="edge">
<title>Node5&#45;&gt;Node44</title>
<g id="a_edge8_Node000005_Node000044"><a xlink:title=" ">
<path fill="none" stroke="#63b8ff" d="M165.58,-127.41C157.53,-126.15 149.2,-124.84 140.98,-123.55"/>
<polygon fill="#63b8ff" stroke="#63b8ff" points="164.92,-131.01 175.35,-129.1 166.01,-124.09 164.92,-131.01"/>
</a>
</g>
</g>
<!-- Node49 -->
<g id="Node000049" class="node">
<title>Node49</title>
<g id="a_Node000049"><a xlink:href="../../d4/d88/struct_slic3r_1_1_g_u_i_1_1_plater_1_1priv.html#a3562cf5e985f7e9dfb884a1257825edb" target="_top" xlink:title=" ">
<polygon fill="white" stroke="#666666" points="126.25,-79.5 14.25,-79.5 14.25,-37.75 126.25,-37.75 126.25,-79.5"/>
<text text-anchor="start" x="22.25" y="-66" font-family="Helvetica,sans-Serif" font-size="10.00">Slic3r::GUI::Plater</text>
<text text-anchor="start" x="22.25" y="-54.75" font-family="Helvetica,sans-Serif" font-size="10.00">::priv::replace_volume</text>
<text text-anchor="middle" x="70.25" y="-43.5" font-family="Helvetica,sans-Serif" font-size="10.00">_with_stl</text>
</a>
</g>
</g>
<!-- Node5&#45;&gt;Node49 -->
<g id="edge9_Node000005_Node000049" class="edge">
<title>Node5&#45;&gt;Node49</title>
<g id="a_edge9_Node000005_Node000049"><a xlink:title=" ">
<path fill="none" stroke="#63b8ff" d="M189.38,-115.45C174.52,-106.75 156.87,-96.82 140.5,-88.62 134.64,-85.69 128.43,-82.76 122.23,-79.94"/>
<polygon fill="#63b8ff" stroke="#63b8ff" points="187.32,-118.88 197.71,-120.95 190.88,-112.85 187.32,-118.88"/>
</a>
</g>
</g>
<!-- Node50 -->
<g id="Node000050" class="node">
<title>Node50</title>
<g id="a_Node000050"><a xlink:href="../../de/d33/class_slic3r_1_1_c_l_i.html#a04fb4429030d98de51a297066a116dcb" target="_top" xlink:title=" ">
<polygon fill="#fff0f0" stroke="red" points="111.25,-19.25 29.25,-19.25 29.25,0 111.25,0 111.25,-19.25"/>
<text text-anchor="middle" x="70.25" y="-5.75" font-family="Helvetica,sans-Serif" font-size="10.00">Slic3r::CLI::run</text>
</a>
</g>
</g>
<!-- Node5&#45;&gt;Node50 -->
<g id="edge10_Node000005_Node000050" class="edge">
<title>Node5&#45;&gt;Node50</title>
<g id="a_edge10_Node000005_Node000050"><a xlink:title=" ">
<path fill="none" stroke="#63b8ff" d="M211.38,-111.75C197.21,-87.03 172.25,-49.84 140.5,-28.62 131.9,-22.88 121.59,-18.86 111.6,-16.05"/>
<polygon fill="#63b8ff" stroke="#63b8ff" points="208.7,-113.13 216.62,-120.18 214.82,-109.73 208.7,-113.13"/>
</a>
</g>
</g>
</g>
</svg>
