<?xml version="1.0" encoding="UTF-8" standalone="no"?>
<!DOCTYPE svg PUBLIC "-//W3C//DTD SVG 1.1//EN"
 "http://www.w3.org/Graphics/SVG/1.1/DTD/svg11.dtd">
<!-- Generated by graphviz version 8.1.0 (20230707.0739)
 -->
<!-- Title: Slic3r::PhysicalPrinterCollection::path_from_name Pages: 1 -->
<svg width="1272pt" height="501pt"
 viewBox="0.00 0.00 1272.00 500.75" xmlns="http://www.w3.org/2000/svg" xmlns:xlink="http://www.w3.org/1999/xlink">
<g id="graph0" class="graph" transform="scale(1 1) rotate(0) translate(4 496.75)">
<title>Slic3r::PhysicalPrinterCollection::path_from_name</title>
<!-- Node1 -->
<g id="Node000001" class="node">
<title>Node1</title>
<g id="a_Node000001"><a xlink:title=" ">
<polygon fill="#999999" stroke="#666666" points="1264,-236.12 1107.75,-236.12 1107.75,-205.62 1264,-205.62 1264,-236.12"/>
<text text-anchor="start" x="1115.75" y="-222.62" font-family="Helvetica,sans-Serif" font-size="10.00">Slic3r::PhysicalPrinterCollection</text>
<text text-anchor="middle" x="1185.88" y="-211.38" font-family="Helvetica,sans-Serif" font-size="10.00">::path_from_name</text>
</a>
</g>
</g>
<!-- Node2 -->
<g id="Node000002" class="node">
<title>Node2</title>
<g id="a_Node000002"><a xlink:href="../../d5/d87/class_slic3r_1_1_physical_printer_collection.html#abcbfef6dc7fd91ea0ff8d68ab2167f0b" target="_top" xlink:title=" ">
<polygon fill="white" stroke="#666666" points="1071.75,-236.12 915.5,-236.12 915.5,-205.62 1071.75,-205.62 1071.75,-236.12"/>
<text text-anchor="start" x="923.5" y="-222.62" font-family="Helvetica,sans-Serif" font-size="10.00">Slic3r::PhysicalPrinterCollection</text>
<text text-anchor="middle" x="993.62" y="-211.38" font-family="Helvetica,sans-Serif" font-size="10.00">::save_printer</text>
</a>
</g>
</g>
<!-- Node1&#45;&gt;Node2 -->
<g id="edge1_Node000001_Node000002" class="edge">
<title>Node1&#45;&gt;Node2</title>
<g id="a_edge1_Node000001_Node000002"><a xlink:title=" ">
<path fill="none" stroke="#63b8ff" d="M1096.51,-220.88C1088.41,-220.88 1080.24,-220.88 1072.25,-220.88"/>
<polygon fill="#63b8ff" stroke="#63b8ff" points="1096.49,-224.38 1106.49,-220.88 1096.49,-217.38 1096.49,-224.38"/>
</a>
</g>
</g>
<!-- Node3 -->
<g id="Node000003" class="node">
<title>Node3</title>
<g id="a_Node000003"><a xlink:href="../../d5/d87/class_slic3r_1_1_physical_printer_collection.html#afb4e385b33f0c5490caa06c082b782e1" target="_top" xlink:title=" ">
<polygon fill="white" stroke="#666666" points="879.5,-285.12 723.25,-285.12 723.25,-254.62 879.5,-254.62 879.5,-285.12"/>
<text text-anchor="start" x="731.25" y="-271.62" font-family="Helvetica,sans-Serif" font-size="10.00">Slic3r::PhysicalPrinterCollection</text>
<text text-anchor="middle" x="801.38" y="-260.38" font-family="Helvetica,sans-Serif" font-size="10.00">::delete_preset_from_printers</text>
</a>
</g>
</g>
<!-- Node2&#45;&gt;Node3 -->
<g id="edge2_Node000002_Node000003" class="edge">
<title>Node2&#45;&gt;Node3</title>
<g id="a_edge2_Node000002_Node000003"><a xlink:title=" ">
<path fill="none" stroke="#63b8ff" d="M921.22,-239.27C902.17,-244.17 881.77,-249.43 863.34,-254.17"/>
<polygon fill="#63b8ff" stroke="#63b8ff" points="921.83,-242.46 930.64,-236.58 920.09,-235.69 921.83,-242.46"/>
</a>
</g>
</g>
<!-- Node5 -->
<g id="Node000005" class="node">
<title>Node5</title>
<g id="a_Node000005"><a xlink:href="../../d5/d87/class_slic3r_1_1_physical_printer_collection.html#a274d8140cd7f210726a261abae8f3ae1" target="_top" xlink:title=" ">
<polygon fill="white" stroke="#666666" points="879.5,-236.12 723.25,-236.12 723.25,-205.62 879.5,-205.62 879.5,-236.12"/>
<text text-anchor="start" x="731.25" y="-222.62" font-family="Helvetica,sans-Serif" font-size="10.00">Slic3r::PhysicalPrinterCollection</text>
<text text-anchor="middle" x="801.38" y="-211.38" font-family="Helvetica,sans-Serif" font-size="10.00">::load_printers_from_presets</text>
</a>
</g>
</g>
<!-- Node2&#45;&gt;Node5 -->
<g id="edge4_Node000002_Node000005" class="edge">
<title>Node2&#45;&gt;Node5</title>
<g id="a_edge4_Node000002_Node000005"><a xlink:title=" ">
<path fill="none" stroke="#63b8ff" d="M904.26,-220.88C896.16,-220.88 887.99,-220.88 880,-220.88"/>
<polygon fill="#63b8ff" stroke="#63b8ff" points="904.24,-224.38 914.24,-220.88 904.24,-217.38 904.24,-224.38"/>
</a>
</g>
</g>
<!-- Node20 -->
<g id="Node000020" class="node">
<title>Node20</title>
<g id="a_Node000020"><a xlink:href="../../dd/dfe/class_slic3r_1_1_g_u_i_1_1_save_preset_dialog.html#a04b7f51319fbe2ac0cbd72287ea113e6" target="_top" xlink:title=" ">
<polygon fill="white" stroke="#666666" points="876.12,-114.12 726.62,-114.12 726.62,-83.62 876.12,-83.62 876.12,-114.12"/>
<text text-anchor="start" x="734.62" y="-100.62" font-family="Helvetica,sans-Serif" font-size="10.00">Slic3r::GUI::SavePresetDialog</text>
<text text-anchor="middle" x="801.38" y="-89.38" font-family="Helvetica,sans-Serif" font-size="10.00">::update_physical_printers</text>
</a>
</g>
</g>
<!-- Node2&#45;&gt;Node20 -->
<g id="edge15_Node000002_Node000020" class="edge">
<title>Node2&#45;&gt;Node20</title>
<g id="a_edge15_Node000002_Node000020"><a xlink:title=" ">
<path fill="none" stroke="#63b8ff" d="M959.03,-199.33C921.12,-175.02 860.39,-136.08 826.76,-114.51"/>
<polygon fill="#63b8ff" stroke="#63b8ff" points="956.84,-202.72 967.14,-205.18 960.61,-196.83 956.84,-202.72"/>
</a>
</g>
</g>
<!-- Node4 -->
<g id="Node000004" class="node">
<title>Node4</title>
<g id="a_Node000004"><a xlink:href="../../d2/df9/class_slic3r_1_1_g_u_i_1_1_tab.html#ae8207dd15bf880dbf2e1b1b8c5ead931" target="_top" xlink:title=" ">
<polygon fill="white" stroke="#666666" points="671.88,-285.12 553.12,-285.12 553.12,-254.62 671.88,-254.62 671.88,-285.12"/>
<text text-anchor="start" x="561.12" y="-271.62" font-family="Helvetica,sans-Serif" font-size="10.00">Slic3r::GUI::Tab::delete</text>
<text text-anchor="middle" x="612.5" y="-260.38" font-family="Helvetica,sans-Serif" font-size="10.00">_preset</text>
</a>
</g>
</g>
<!-- Node3&#45;&gt;Node4 -->
<g id="edge3_Node000003_Node000004" class="edge">
<title>Node3&#45;&gt;Node4</title>
<g id="a_edge3_Node000003_Node000004"><a xlink:title=" ">
<path fill="none" stroke="#63b8ff" d="M712.2,-269.88C698.65,-269.88 684.95,-269.88 672.25,-269.88"/>
<polygon fill="#63b8ff" stroke="#63b8ff" points="712.02,-273.38 722.02,-269.88 712.02,-266.38 712.02,-273.38"/>
</a>
</g>
</g>
<!-- Node6 -->
<g id="Node000006" class="node">
<title>Node6</title>
<g id="a_Node000006"><a xlink:href="../../d9/d01/class_slic3r_1_1_g_u_i_1_1_g_u_i___app.html#a5a39046a15312c5ff677963929f6df28" target="_top" xlink:title=" ">
<polygon fill="white" stroke="#666666" points="671.5,-236.12 553.5,-236.12 553.5,-205.62 671.5,-205.62 671.5,-236.12"/>
<text text-anchor="start" x="561.5" y="-222.62" font-family="Helvetica,sans-Serif" font-size="10.00">Slic3r::GUI::GUI_App</text>
<text text-anchor="middle" x="612.5" y="-211.38" font-family="Helvetica,sans-Serif" font-size="10.00">::check_printer_presets</text>
</a>
</g>
</g>
<!-- Node5&#45;&gt;Node6 -->
<g id="edge5_Node000005_Node000006" class="edge">
<title>Node5&#45;&gt;Node6</title>
<g id="a_edge5_Node000005_Node000006"><a xlink:title=" ">
<path fill="none" stroke="#63b8ff" d="M712.14,-220.88C698.51,-220.88 684.73,-220.88 671.96,-220.88"/>
<polygon fill="#63b8ff" stroke="#63b8ff" points="712.02,-224.38 722.02,-220.88 712.02,-217.38 712.02,-224.38"/>
</a>
</g>
</g>
<!-- Node7 -->
<g id="Node000007" class="node">
<title>Node7</title>
<g id="a_Node000007"><a xlink:href="../../d9/d01/class_slic3r_1_1_g_u_i_1_1_g_u_i___app.html#a8d8b32a5c8ca17df103b64446db04344" target="_top" xlink:title=" ">
<polygon fill="white" stroke="#666666" points="483.38,-310.12 370.62,-310.12 370.62,-279.62 483.38,-279.62 483.38,-310.12"/>
<text text-anchor="start" x="378.62" y="-296.62" font-family="Helvetica,sans-Serif" font-size="10.00">Slic3r::GUI::GUI_App</text>
<text text-anchor="middle" x="427" y="-285.38" font-family="Helvetica,sans-Serif" font-size="10.00">::load_current_presets</text>
</a>
</g>
</g>
<!-- Node6&#45;&gt;Node7 -->
<g id="edge6_Node000006_Node000007" class="edge">
<title>Node6&#45;&gt;Node7</title>
<g id="a_edge6_Node000006_Node000007"><a xlink:title=" ">
<path fill="none" stroke="#63b8ff" d="M553.19,-240.08C547.94,-241.97 542.74,-243.92 537.75,-245.88 511.52,-256.15 482.43,-269.21 460.8,-279.27"/>
<polygon fill="#63b8ff" stroke="#63b8ff" points="554.01,-243.15 562.26,-236.51 551.67,-236.55 554.01,-243.15"/>
</a>
</g>
</g>
<!-- Node8 -->
<g id="Node000008" class="node">
<title>Node8</title>
<g id="a_Node000008"><a xlink:href="../../d9/d01/class_slic3r_1_1_g_u_i_1_1_g_u_i___app.html#a25f7933117a896b19fd8d23fe675a6fc" target="_top" xlink:title=" ">
<polygon fill="#fff0f0" stroke="red" points="298.62,-492.75 184.38,-492.75 184.38,-451 298.62,-451 298.62,-492.75"/>
<text text-anchor="start" x="192.38" y="-479.25" font-family="Helvetica,sans-Serif" font-size="10.00">Slic3r::GUI::GUI_App</text>
<text text-anchor="start" x="192.38" y="-468" font-family="Helvetica,sans-Serif" font-size="10.00">::apply_keeped_preset</text>
<text text-anchor="middle" x="241.5" y="-456.75" font-family="Helvetica,sans-Serif" font-size="10.00">_modifications</text>
</a>
</g>
</g>
<!-- Node7&#45;&gt;Node8 -->
<g id="edge7_Node000007_Node000008" class="edge">
<title>Node7&#45;&gt;Node8</title>
<g id="a_edge7_Node000007_Node000008"><a xlink:title=" ">
<path fill="none" stroke="#63b8ff" d="M411.9,-319.66C393.33,-350.5 358.07,-403.19 316.25,-436.88 309.85,-442.03 302.56,-446.65 295.12,-450.7"/>
<polygon fill="#63b8ff" stroke="#63b8ff" points="415.26,-321.86 417.33,-311.47 409.23,-318.3 415.26,-321.86"/>
</a>
</g>
</g>
<!-- Node9 -->
<g id="Node000009" class="node">
<title>Node9</title>
<g id="a_Node000009"><a xlink:href="../../d9/d01/class_slic3r_1_1_g_u_i_1_1_g_u_i___app.html#ab063fb1cdbd09361813cd64f6601e7bb" target="_top" xlink:title=" ">
<polygon fill="white" stroke="#666666" points="130.75,-467.75 0,-467.75 0,-426 130.75,-426 130.75,-467.75"/>
<text text-anchor="start" x="8" y="-454.25" font-family="Helvetica,sans-Serif" font-size="10.00">Slic3r::GUI::GUI_App</text>
<text text-anchor="start" x="8" y="-443" font-family="Helvetica,sans-Serif" font-size="10.00">::check_and_keep_current</text>
<text text-anchor="middle" x="65.38" y="-431.75" font-family="Helvetica,sans-Serif" font-size="10.00">_preset_changes</text>
</a>
</g>
</g>
<!-- Node7&#45;&gt;Node9 -->
<g id="edge9_Node000007_Node000009" class="edge">
<title>Node7&#45;&gt;Node9</title>
<g id="a_edge9_Node000007_Node000009"><a xlink:title=" ">
<path fill="none" stroke="#63b8ff" d="M408.79,-319.23C389.37,-344.69 355.36,-383.7 316.25,-403.88 284.76,-420.12 194.05,-432.94 131.06,-440.22"/>
<polygon fill="#63b8ff" stroke="#63b8ff" points="412.1,-321.63 415.26,-311.52 406.49,-317.45 412.1,-321.63"/>
</a>
</g>
</g>
<!-- Node17 -->
<g id="Node000017" class="node">
<title>Node17</title>
<g id="a_Node000017"><a xlink:href="../../d9/d01/class_slic3r_1_1_g_u_i_1_1_g_u_i___app.html#a4f8cbe93060b0ea4d255809dede0c2bb" target="_top" xlink:title=" ">
<polygon fill="white" stroke="#666666" points="306.88,-394.75 176.12,-394.75 176.12,-353 306.88,-353 306.88,-394.75"/>
<text text-anchor="start" x="184.12" y="-381.25" font-family="Helvetica,sans-Serif" font-size="10.00">Slic3r::GUI::GUI_App</text>
<text text-anchor="start" x="184.12" y="-370" font-family="Helvetica,sans-Serif" font-size="10.00">::check_and_save_current</text>
<text text-anchor="middle" x="241.5" y="-358.75" font-family="Helvetica,sans-Serif" font-size="10.00">_preset_changes</text>
</a>
</g>
</g>
<!-- Node7&#45;&gt;Node17 -->
<g id="edge10_Node000007_Node000017" class="edge">
<title>Node7&#45;&gt;Node17</title>
<g id="a_edge10_Node000007_Node000017"><a xlink:title=" ">
<path fill="none" stroke="#63b8ff" d="M381.51,-315.14C361.61,-324.11 337.83,-334.67 316.25,-343.88 309.51,-346.75 302.4,-349.72 295.36,-352.62"/>
<polygon fill="#63b8ff" stroke="#63b8ff" points="382.86,-317.93 390.53,-310.62 379.98,-311.55 382.86,-317.93"/>
</a>
</g>
</g>
<!-- Node18 -->
<g id="Node000018" class="node">
<title>Node18</title>
<g id="a_Node000018"><a xlink:href="../../d9/d01/class_slic3r_1_1_g_u_i_1_1_g_u_i___app.html#a87de9f13f202fbb6dfdc28156065a6a6" target="_top" xlink:title=" ">
<polygon fill="#fff0f0" stroke="red" points="297.12,-335.12 185.88,-335.12 185.88,-304.62 297.12,-304.62 297.12,-335.12"/>
<text text-anchor="start" x="193.88" y="-321.62" font-family="Helvetica,sans-Serif" font-size="10.00">Slic3r::GUI::GUI_App</text>
<text text-anchor="middle" x="241.5" y="-310.38" font-family="Helvetica,sans-Serif" font-size="10.00">::recreate_GUI</text>
</a>
</g>
</g>
<!-- Node7&#45;&gt;Node18 -->
<g id="edge11_Node000007_Node000018" class="edge">
<title>Node7&#45;&gt;Node18</title>
<g id="a_edge11_Node000007_Node000018"><a xlink:title=" ">
<path fill="none" stroke="#63b8ff" d="M359.66,-303.91C339.28,-306.69 317.09,-309.71 297.55,-312.38"/>
<polygon fill="#63b8ff" stroke="#63b8ff" points="360.01,-307.26 369.45,-302.44 359.07,-300.33 360.01,-307.26"/>
</a>
</g>
</g>
<!-- Node11 -->
<g id="Node000011" class="node">
<title>Node11</title>
<g id="a_Node000011"><a xlink:href="../../d9/d01/class_slic3r_1_1_g_u_i_1_1_g_u_i___app.html#afbb2db51b92bb9f89d3b414edd6195f6" target="_top" xlink:title=" ">
<polygon fill="#fff0f0" stroke="red" points="297.12,-286.12 185.88,-286.12 185.88,-255.62 297.12,-255.62 297.12,-286.12"/>
<text text-anchor="start" x="193.88" y="-272.62" font-family="Helvetica,sans-Serif" font-size="10.00">Slic3r::GUI::GUI_App</text>
<text text-anchor="middle" x="241.5" y="-261.38" font-family="Helvetica,sans-Serif" font-size="10.00">::run_wizard</text>
</a>
</g>
</g>
<!-- Node7&#45;&gt;Node11 -->
<g id="edge12_Node000007_Node000011" class="edge">
<title>Node7&#45;&gt;Node11</title>
<g id="a_edge12_Node000007_Node000011"><a xlink:title=" ">
<path fill="none" stroke="#63b8ff" d="M359.66,-286.2C339.28,-283.53 317.09,-280.63 297.55,-278.07"/>
<polygon fill="#63b8ff" stroke="#63b8ff" points="359.08,-289.78 369.45,-287.61 359.98,-282.84 359.08,-289.78"/>
</a>
</g>
</g>
<!-- Node14 -->
<g id="Node000014" class="node">
<title>Node14</title>
<g id="a_Node000014"><a xlink:href="../../d9/d01/class_slic3r_1_1_g_u_i_1_1_g_u_i___app.html#a8b808b6a54e0a8e063b056771f72970b" target="_top" xlink:title=" ">
<polygon fill="white" stroke="#666666" points="297.12,-237.12 185.88,-237.12 185.88,-206.62 297.12,-206.62 297.12,-237.12"/>
<text text-anchor="start" x="193.88" y="-223.62" font-family="Helvetica,sans-Serif" font-size="10.00">Slic3r::GUI::GUI_App</text>
<text text-anchor="middle" x="241.5" y="-212.38" font-family="Helvetica,sans-Serif" font-size="10.00">::ShowOnlyFilament</text>
</a>
</g>
</g>
<!-- Node7&#45;&gt;Node14 -->
<g id="edge13_Node000007_Node000014" class="edge">
<title>Node7&#45;&gt;Node14</title>
<g id="a_edge13_Node000007_Node000014"><a xlink:title=" ">
<path fill="none" stroke="#63b8ff" d="M382.17,-274.68C362.22,-265.76 338.21,-255.38 316.25,-246.88 308.06,-243.7 299.27,-240.53 290.72,-237.56"/>
<polygon fill="#63b8ff" stroke="#63b8ff" points="380.65,-278.28 391.2,-279.2 383.52,-271.9 380.65,-278.28"/>
</a>
</g>
</g>
<!-- Node15 -->
<g id="Node000015" class="node">
<title>Node15</title>
<g id="a_Node000015"><a xlink:href="../../d9/d01/class_slic3r_1_1_g_u_i_1_1_g_u_i___app.html#a7f18c721746b2778fb9316be678871cf" target="_top" xlink:title=" ">
<polygon fill="white" stroke="#666666" points="297.12,-188.12 185.88,-188.12 185.88,-157.62 297.12,-157.62 297.12,-188.12"/>
<text text-anchor="start" x="193.88" y="-174.62" font-family="Helvetica,sans-Serif" font-size="10.00">Slic3r::GUI::GUI_App</text>
<text text-anchor="middle" x="241.5" y="-163.38" font-family="Helvetica,sans-Serif" font-size="10.00">::ShowUserGuide</text>
</a>
</g>
</g>
<!-- Node7&#45;&gt;Node15 -->
<g id="edge14_Node000007_Node000015" class="edge">
<title>Node7&#45;&gt;Node15</title>
<g id="a_edge14_Node000007_Node000015"><a xlink:title=" ">
<path fill="none" stroke="#63b8ff" d="M404.93,-271.54C384.22,-249.82 350.78,-217.89 316.25,-197.88 310.17,-194.35 303.51,-191.22 296.77,-188.48"/>
<polygon fill="#63b8ff" stroke="#63b8ff" points="401.83,-273.41 411.22,-278.31 406.94,-268.62 401.83,-273.41"/>
</a>
</g>
</g>
<!-- Node8&#45;&gt;Node9 -->
<g id="edge8_Node000008_Node000009" class="edge">
<title>Node8&#45;&gt;Node9</title>
<g id="a_edge8_Node000008_Node000009"><a xlink:title=" ">
<path fill="none" stroke="#63b8ff" d="M173.49,-462.25C159.57,-460.26 144.92,-458.15 131.09,-456.17"/>
<polygon fill="#63b8ff" stroke="#63b8ff" points="172.57,-465.8 182.97,-463.76 173.57,-458.87 172.57,-465.8"/>
</a>
</g>
</g>
<!-- Node21 -->
<g id="Node000021" class="node">
<title>Node21</title>
<g id="a_Node000021"><a xlink:href="../../dd/dfe/class_slic3r_1_1_g_u_i_1_1_save_preset_dialog.html#aadc07a3a37cf2e107f91cbac8df65b86" target="_top" xlink:title=" ">
<polygon fill="white" stroke="#666666" points="687.25,-114.12 537.75,-114.12 537.75,-83.62 687.25,-83.62 687.25,-114.12"/>
<text text-anchor="start" x="545.75" y="-100.62" font-family="Helvetica,sans-Serif" font-size="10.00">Slic3r::GUI::SavePresetDialog</text>
<text text-anchor="middle" x="612.5" y="-89.38" font-family="Helvetica,sans-Serif" font-size="10.00">::accept</text>
</a>
</g>
</g>
<!-- Node20&#45;&gt;Node21 -->
<g id="edge16_Node000020_Node000021" class="edge">
<title>Node20&#45;&gt;Node21</title>
<g id="a_edge16_Node000020_Node000021"><a xlink:title=" ">
<path fill="none" stroke="#63b8ff" d="M715.4,-98.88C706.1,-98.88 696.69,-98.88 687.54,-98.88"/>
<polygon fill="#63b8ff" stroke="#63b8ff" points="715.25,-102.38 725.25,-98.88 715.25,-95.38 715.25,-102.38"/>
</a>
</g>
</g>
<!-- Node25 -->
<g id="Node000025" class="node">
<title>Node25</title>
<g id="a_Node000025"><a xlink:href="../../dd/dfe/class_slic3r_1_1_g_u_i_1_1_save_preset_dialog.html#a90f4df478c92e1bb582ba7f5151aa9f5" target="_top" xlink:title=" ">
<polygon fill="white" stroke="#666666" points="687.25,-64.12 537.75,-64.12 537.75,-33.62 687.25,-33.62 687.25,-64.12"/>
<text text-anchor="start" x="545.75" y="-50.62" font-family="Helvetica,sans-Serif" font-size="10.00">Slic3r::GUI::SavePresetDialog</text>
<text text-anchor="middle" x="612.5" y="-39.38" font-family="Helvetica,sans-Serif" font-size="10.00">::confirm_from_other</text>
</a>
</g>
</g>
<!-- Node20&#45;&gt;Node25 -->
<g id="edge20_Node000020_Node000025" class="edge">
<title>Node20&#45;&gt;Node25</title>
<g id="a_edge20_Node000020_Node000025"><a xlink:title=" ">
<path fill="none" stroke="#63b8ff" d="M731.17,-80.36C711.8,-75.18 690.93,-69.59 672.23,-64.59"/>
<polygon fill="#63b8ff" stroke="#63b8ff" points="730.19,-83.99 740.76,-83.19 732,-77.23 730.19,-83.99"/>
</a>
</g>
</g>
<!-- Node22 -->
<g id="Node000022" class="node">
<title>Node22</title>
<g id="a_Node000022"><a xlink:href="../../dd/dfe/class_slic3r_1_1_g_u_i_1_1_save_preset_dialog.html#a90252bd99353aa80414f7df88d1ed89b" target="_top" xlink:title=" ">
<polygon fill="white" stroke="#666666" points="501.75,-114.12 352.25,-114.12 352.25,-83.62 501.75,-83.62 501.75,-114.12"/>
<text text-anchor="start" x="360.25" y="-100.62" font-family="Helvetica,sans-Serif" font-size="10.00">Slic3r::GUI::SavePresetDialog</text>
<text text-anchor="middle" x="427" y="-89.38" font-family="Helvetica,sans-Serif" font-size="10.00">::build</text>
</a>
</g>
</g>
<!-- Node21&#45;&gt;Node22 -->
<g id="edge17_Node000021_Node000022" class="edge">
<title>Node21&#45;&gt;Node22</title>
<g id="a_edge17_Node000021_Node000022"><a xlink:title=" ">
<path fill="none" stroke="#63b8ff" d="M526.67,-98.88C518.46,-98.88 510.18,-98.88 502.09,-98.88"/>
<polygon fill="#63b8ff" stroke="#63b8ff" points="526.39,-102.38 536.39,-98.88 526.39,-95.38 526.39,-102.38"/>
</a>
</g>
</g>
<!-- Node23 -->
<g id="Node000023" class="node">
<title>Node23</title>
<g id="a_Node000023"><a xlink:href="../../dd/dfe/class_slic3r_1_1_g_u_i_1_1_save_preset_dialog.html#aca9f07d03f009b0a2b32190bf1cab6b8" target="_top" xlink:title=" ">
<polygon fill="white" stroke="#666666" points="316.25,-139.12 166.75,-139.12 166.75,-108.62 316.25,-108.62 316.25,-139.12"/>
<text text-anchor="start" x="174.75" y="-125.62" font-family="Helvetica,sans-Serif" font-size="10.00">Slic3r::GUI::SavePresetDialog</text>
<text text-anchor="middle" x="241.5" y="-114.38" font-family="Helvetica,sans-Serif" font-size="10.00">::SavePresetDialog</text>
</a>
</g>
</g>
<!-- Node22&#45;&gt;Node23 -->
<g id="edge18_Node000022_Node000023" class="edge">
<title>Node22&#45;&gt;Node23</title>
<g id="a_edge18_Node000022_Node000023"><a xlink:title=" ">
<path fill="none" stroke="#63b8ff" d="M341.17,-110.43C332.96,-111.55 324.68,-112.68 316.59,-113.78"/>
<polygon fill="#63b8ff" stroke="#63b8ff" points="341.46,-113.79 350.89,-108.97 340.51,-106.85 341.46,-113.79"/>
</a>
</g>
</g>
<!-- Node24 -->
<g id="Node000024" class="node">
<title>Node24</title>
<g id="a_Node000024"><a xlink:href="../../dd/dfe/class_slic3r_1_1_g_u_i_1_1_save_preset_dialog.html#ac464e0a7d3c548ad19237098dd0d3370" target="_top" xlink:title=" ">
<polygon fill="white" stroke="#666666" points="316.25,-90.12 166.75,-90.12 166.75,-59.62 316.25,-59.62 316.25,-90.12"/>
<text text-anchor="start" x="174.75" y="-76.62" font-family="Helvetica,sans-Serif" font-size="10.00">Slic3r::GUI::SavePresetDialog</text>
<text text-anchor="middle" x="241.5" y="-65.38" font-family="Helvetica,sans-Serif" font-size="10.00">::SavePresetDialog</text>
</a>
</g>
</g>
<!-- Node22&#45;&gt;Node24 -->
<g id="edge19_Node000022_Node000024" class="edge">
<title>Node22&#45;&gt;Node24</title>
<g id="a_edge19_Node000022_Node000024"><a xlink:title=" ">
<path fill="none" stroke="#63b8ff" d="M341.17,-87.78C332.96,-86.71 324.68,-85.62 316.59,-84.56"/>
<polygon fill="#63b8ff" stroke="#63b8ff" points="340.52,-91.36 350.89,-89.18 341.43,-84.42 340.52,-91.36"/>
</a>
</g>
</g>
<!-- Node26 -->
<g id="Node000026" class="node">
<title>Node26</title>
<g id="a_Node000026"><a xlink:href="../../d2/df9/class_slic3r_1_1_g_u_i_1_1_tab.html#abd9c0194d18040225993b9076d08883a" target="_top" xlink:title=" ">
<polygon fill="white" stroke="#666666" points="483.75,-62.12 370.25,-62.12 370.25,-31.62 483.75,-31.62 483.75,-62.12"/>
<text text-anchor="start" x="378.25" y="-48.62" font-family="Helvetica,sans-Serif" font-size="10.00">Slic3r::GUI::Tab::save</text>
<text text-anchor="middle" x="427" y="-37.38" font-family="Helvetica,sans-Serif" font-size="10.00">_preset</text>
</a>
</g>
</g>
<!-- Node25&#45;&gt;Node26 -->
<g id="edge21_Node000025_Node000026" class="edge">
<title>Node25&#45;&gt;Node26</title>
<g id="a_edge21_Node000025_Node000026"><a xlink:title=" ">
<path fill="none" stroke="#63b8ff" d="M526.45,-47.95C512.06,-47.79 497.44,-47.63 484.03,-47.49"/>
<polygon fill="#63b8ff" stroke="#63b8ff" points="526.35,-51.46 536.39,-48.07 526.43,-44.46 526.35,-51.46"/>
</a>
</g>
</g>
<!-- Node27 -->
<g id="Node000027" class="node">
<title>Node27</title>
<g id="a_Node000027"><a xlink:href="../../d2/df9/class_slic3r_1_1_g_u_i_1_1_tab.html#aa0bcb8f829e8932cbafccf6ab8639443" target="_top" xlink:title=" ">
<polygon fill="#fff0f0" stroke="red" points="297.5,-41.75 185.5,-41.75 185.5,0 297.5,0 297.5,-41.75"/>
<text text-anchor="start" x="193.5" y="-28.25" font-family="Helvetica,sans-Serif" font-size="10.00">Slic3r::GUI::Tab::may</text>
<text text-anchor="start" x="193.5" y="-17" font-family="Helvetica,sans-Serif" font-size="10.00">_discard_current_dirty</text>
<text text-anchor="middle" x="241.5" y="-5.75" font-family="Helvetica,sans-Serif" font-size="10.00">_preset</text>
</a>
</g>
</g>
<!-- Node26&#45;&gt;Node27 -->
<g id="edge22_Node000026_Node000027" class="edge">
<title>Node26&#45;&gt;Node27</title>
<g id="a_edge22_Node000026_Node000027"><a xlink:title=" ">
<path fill="none" stroke="#63b8ff" d="M359.27,-37.42C339.12,-34.57 317.22,-31.46 297.89,-28.72"/>
<polygon fill="#63b8ff" stroke="#63b8ff" points="358.55,-41 368.95,-38.93 359.54,-34.06 358.55,-41"/>
</a>
</g>
</g>
</g>
</svg>
