<?xml version="1.0" encoding="UTF-8" standalone="no"?>
<!DOCTYPE svg PUBLIC "-//W3C//DTD SVG 1.1//EN"
 "http://www.w3.org/Graphics/SVG/1.1/DTD/svg11.dtd">
<!-- Generated by graphviz version 8.1.0 (20230707.0739)
 -->
<!-- Title: Slic3r::GLVolume::transformed_convex_hull_bounding_box Pages: 1 -->
<svg width="1202pt" height="382pt"
 viewBox="0.00 0.00 1201.50 381.50" xmlns="http://www.w3.org/2000/svg" xmlns:xlink="http://www.w3.org/1999/xlink">
<g id="graph0" class="graph" transform="scale(1 1) rotate(0) translate(4 377.5)">
<title>Slic3r::GLVolume::transformed_convex_hull_bounding_box</title>
<!-- Node1 -->
<g id="Node000001" class="node">
<title>Node1</title>
<g id="a_Node000001"><a xlink:title=" ">
<polygon fill="#999999" stroke="#666666" points="1193.5,-192.5 1044,-192.5 1044,-162 1193.5,-162 1193.5,-192.5"/>
<text text-anchor="start" x="1052" y="-179" font-family="Helvetica,sans-Serif" font-size="10.00">Slic3r::GLVolume::transformed</text>
<text text-anchor="middle" x="1118.75" y="-167.75" font-family="Helvetica,sans-Serif" font-size="10.00">_convex_hull_bounding_box</text>
</a>
</g>
</g>
<!-- Node1&#45;&gt;Node1 -->
<g id="edge29_Node000001_Node000001" class="edge">
<title>Node1&#45;&gt;Node1</title>
<g id="a_edge29_Node000001_Node000001"><a xlink:title=" ">
<path fill="none" stroke="#63b8ff" d="M1146.52,-203.88C1142.19,-207.83 1132.93,-210.5 1118.75,-210.5 1093.54,-210.5 1083.89,-202.06 1089.8,-192.99"/>
<polygon fill="#63b8ff" stroke="#63b8ff" points="1150.1,-204.3 1147.7,-193.99 1143.14,-203.55 1150.1,-204.3"/>
</a>
</g>
</g>
<!-- Node2 -->
<g id="Node000002" class="node">
<title>Node2</title>
<g id="a_Node000002"><a xlink:href="../../d5/d87/class_slic3r_1_1_g_l_volume.html#ac0bf88156f65ba57f9fac29f723436c8" target="_top" xlink:title=" ">
<polygon fill="white" stroke="#666666" points="1008,-217.5 902.75,-217.5 902.75,-187 1008,-187 1008,-217.5"/>
<text text-anchor="start" x="910.75" y="-204" font-family="Helvetica,sans-Serif" font-size="10.00">Slic3r::GLVolume::is</text>
<text text-anchor="middle" x="955.38" y="-192.75" font-family="Helvetica,sans-Serif" font-size="10.00">_below_printbed</text>
</a>
</g>
</g>
<!-- Node1&#45;&gt;Node2 -->
<g id="edge1_Node000001_Node000002" class="edge">
<title>Node1&#45;&gt;Node2</title>
<g id="a_edge1_Node000001_Node000002"><a xlink:title=" ">
<path fill="none" stroke="#63b8ff" d="M1033.02,-190.38C1024.62,-191.68 1016.27,-192.97 1008.35,-194.2"/>
<polygon fill="#63b8ff" stroke="#63b8ff" points="1033.33,-193.72 1042.67,-188.73 1032.26,-186.8 1033.33,-193.72"/>
</a>
</g>
</g>
<!-- Node5 -->
<g id="Node000005" class="node">
<title>Node5</title>
<g id="a_Node000005"><a xlink:href="../../d5/d87/class_slic3r_1_1_g_l_volume.html#ad59c8824eec1074c79b6683296e0ac9b" target="_top" xlink:title=" ">
<polygon fill="white" stroke="#666666" points="1008,-168.5 902.75,-168.5 902.75,-138 1008,-138 1008,-168.5"/>
<text text-anchor="start" x="910.75" y="-155" font-family="Helvetica,sans-Serif" font-size="10.00">Slic3r::GLVolume::is</text>
<text text-anchor="middle" x="955.38" y="-143.75" font-family="Helvetica,sans-Serif" font-size="10.00">_sinking</text>
</a>
</g>
</g>
<!-- Node1&#45;&gt;Node5 -->
<g id="edge5_Node000001_Node000005" class="edge">
<title>Node1&#45;&gt;Node5</title>
<g id="a_edge5_Node000001_Node000005"><a xlink:title=" ">
<path fill="none" stroke="#63b8ff" d="M1033.02,-164.65C1024.62,-163.4 1016.27,-162.16 1008.35,-160.98"/>
<polygon fill="#63b8ff" stroke="#63b8ff" points="1032.27,-168.22 1042.67,-166.23 1033.3,-161.3 1032.27,-168.22"/>
</a>
</g>
</g>
<!-- Node3 -->
<g id="Node000003" class="node">
<title>Node3</title>
<g id="a_Node000003"><a xlink:href="../../d5/d87/class_slic3r_1_1_g_l_volume.html#a398cbd52a9c6863bcc9896e99f723366" target="_top" xlink:title=" ">
<polygon fill="white" stroke="#666666" points="866.75,-217.5 755.5,-217.5 755.5,-187 866.75,-187 866.75,-217.5"/>
<text text-anchor="start" x="763.5" y="-204" font-family="Helvetica,sans-Serif" font-size="10.00">Slic3r::GLVolume::set</text>
<text text-anchor="middle" x="811.12" y="-192.75" font-family="Helvetica,sans-Serif" font-size="10.00">_render_color</text>
</a>
</g>
</g>
<!-- Node2&#45;&gt;Node3 -->
<g id="edge2_Node000002_Node000003" class="edge">
<title>Node2&#45;&gt;Node3</title>
<g id="a_edge2_Node000002_Node000003"><a xlink:title=" ">
<path fill="none" stroke="#63b8ff" d="M891.85,-202.25C883.56,-202.25 875.11,-202.25 866.96,-202.25"/>
<polygon fill="#63b8ff" stroke="#63b8ff" points="891.62,-205.75 901.62,-202.25 891.62,-198.75 891.62,-205.75"/>
</a>
</g>
</g>
<!-- Node3&#45;&gt;Node3 -->
<g id="edge4_Node000003_Node000003" class="edge">
<title>Node3&#45;&gt;Node3</title>
<g id="a_edge4_Node000003_Node000003"><a xlink:title=" ">
<path fill="none" stroke="#63b8ff" d="M835.64,-228.88C831.82,-232.83 823.64,-235.5 811.12,-235.5 788.87,-235.5 780.35,-227.06 785.56,-217.99"/>
<polygon fill="#63b8ff" stroke="#63b8ff" points="839.22,-229.27 836.69,-218.99 832.25,-228.61 839.22,-229.27"/>
</a>
</g>
</g>
<!-- Node4 -->
<g id="Node000004" class="node">
<title>Node4</title>
<g id="a_Node000004"><a xlink:href="../../d5/d87/class_slic3r_1_1_g_l_volume.html#ac451c8d1750c22fc301cb67bbdfe9210" target="_top" xlink:title=" ">
<polygon fill="white" stroke="#666666" points="719.5,-211.88 576.75,-211.88 576.75,-192.62 719.5,-192.62 719.5,-211.88"/>
<text text-anchor="middle" x="648.12" y="-198.38" font-family="Helvetica,sans-Serif" font-size="10.00">Slic3r::GLVolume::GLVolume</text>
</a>
</g>
</g>
<!-- Node3&#45;&gt;Node4 -->
<g id="edge3_Node000003_Node000004" class="edge">
<title>Node3&#45;&gt;Node4</title>
<g id="a_edge3_Node000003_Node000004"><a xlink:title=" ">
<path fill="none" stroke="#63b8ff" d="M744.3,-202.25C736.22,-202.25 727.93,-202.25 719.78,-202.25"/>
<polygon fill="#63b8ff" stroke="#63b8ff" points="744.17,-205.75 754.17,-202.25 744.17,-198.75 744.17,-205.75"/>
</a>
</g>
</g>
<!-- Node6 -->
<g id="Node000006" class="node">
<title>Node6</title>
<g id="a_Node000006"><a xlink:href="../../dd/d6a/class_slic3r_1_1_g_u_i_1_1_selection.html#a9bca6b0d13a63673c565180988619b69" target="_top" xlink:title=" ">
<polygon fill="white" stroke="#666666" points="866.75,-168.5 755.5,-168.5 755.5,-138 866.75,-138 866.75,-168.5"/>
<text text-anchor="start" x="763.5" y="-155" font-family="Helvetica,sans-Serif" font-size="10.00">Slic3r::GUI::Selection</text>
<text text-anchor="middle" x="811.12" y="-143.75" font-family="Helvetica,sans-Serif" font-size="10.00">::set_caches</text>
</a>
</g>
</g>
<!-- Node5&#45;&gt;Node6 -->
<g id="edge6_Node000005_Node000006" class="edge">
<title>Node5&#45;&gt;Node6</title>
<g id="a_edge6_Node000005_Node000006"><a xlink:title=" ">
<path fill="none" stroke="#63b8ff" d="M891.85,-153.25C883.56,-153.25 875.11,-153.25 866.96,-153.25"/>
<polygon fill="#63b8ff" stroke="#63b8ff" points="891.62,-156.75 901.62,-153.25 891.62,-149.75 891.62,-156.75"/>
</a>
</g>
</g>
<!-- Node7 -->
<g id="Node000007" class="node">
<title>Node7</title>
<g id="a_Node000007"><a xlink:href="../../dd/d6a/class_slic3r_1_1_g_u_i_1_1_selection.html#a59d66f34ff2b006568a4dc3f89943eb2" target="_top" xlink:title=" ">
<polygon fill="white" stroke="#666666" points="703.75,-79.5 592.5,-79.5 592.5,-49 703.75,-49 703.75,-79.5"/>
<text text-anchor="start" x="600.5" y="-66" font-family="Helvetica,sans-Serif" font-size="10.00">Slic3r::GUI::Selection</text>
<text text-anchor="middle" x="648.12" y="-54.75" font-family="Helvetica,sans-Serif" font-size="10.00">::move_to_center</text>
</a>
</g>
</g>
<!-- Node6&#45;&gt;Node7 -->
<g id="edge7_Node000006_Node000007" class="edge">
<title>Node6&#45;&gt;Node7</title>
<g id="a_edge7_Node000006_Node000007"><a xlink:title=" ">
<path fill="none" stroke="#63b8ff" d="M772.31,-132.34C743.29,-116.31 703.88,-94.52 677.52,-79.95"/>
<polygon fill="#63b8ff" stroke="#63b8ff" points="770.27,-135.77 780.71,-137.54 773.65,-129.64 770.27,-135.77"/>
</a>
</g>
</g>
<!-- Node12 -->
<g id="Node000012" class="node">
<title>Node12</title>
<g id="a_Node000012"><a xlink:href="../../dd/d6a/class_slic3r_1_1_g_u_i_1_1_selection.html#a5b576636a311367c06ade57a068f8840" target="_top" xlink:title=" ">
<polygon fill="white" stroke="#666666" points="703.75,-171.5 592.5,-171.5 592.5,-141 703.75,-141 703.75,-171.5"/>
<text text-anchor="start" x="600.5" y="-158" font-family="Helvetica,sans-Serif" font-size="10.00">Slic3r::GUI::Selection</text>
<text text-anchor="middle" x="648.12" y="-146.75" font-family="Helvetica,sans-Serif" font-size="10.00">::start_dragging</text>
</a>
</g>
</g>
<!-- Node6&#45;&gt;Node12 -->
<g id="edge11_Node000006_Node000012" class="edge">
<title>Node6&#45;&gt;Node12</title>
<g id="a_edge11_Node000006_Node000012"><a xlink:title=" ">
<path fill="none" stroke="#63b8ff" d="M744.55,-154.47C731.12,-154.72 717.12,-154.98 704.11,-155.23"/>
<polygon fill="#63b8ff" stroke="#63b8ff" points="744.24,-157.96 754.17,-154.27 744.1,-150.96 744.24,-157.96"/>
</a>
</g>
</g>
<!-- Node8 -->
<g id="Node000008" class="node">
<title>Node8</title>
<g id="a_Node000008"><a xlink:href="../../dd/d6a/class_slic3r_1_1_g_u_i_1_1_selection.html#aba0bd02a459648bd59455ad52a688ffd" target="_top" xlink:title=" ">
<polygon fill="white" stroke="#666666" points="508.5,-36.5 397.25,-36.5 397.25,-6 508.5,-6 508.5,-36.5"/>
<text text-anchor="start" x="405.25" y="-23" font-family="Helvetica,sans-Serif" font-size="10.00">Slic3r::GUI::Selection</text>
<text text-anchor="middle" x="452.88" y="-11.75" font-family="Helvetica,sans-Serif" font-size="10.00">::center</text>
</a>
</g>
</g>
<!-- Node7&#45;&gt;Node8 -->
<g id="edge8_Node000007_Node000008" class="edge">
<title>Node7&#45;&gt;Node8</title>
<g id="a_edge8_Node000007_Node000008"><a xlink:title=" ">
<path fill="none" stroke="#63b8ff" d="M581.36,-49.62C557.73,-44.36 531.34,-38.49 508.73,-33.46"/>
<polygon fill="#63b8ff" stroke="#63b8ff" points="580.48,-53.23 591.01,-51.99 582,-46.4 580.48,-53.23"/>
</a>
</g>
</g>
<!-- Node9 -->
<g id="Node000009" class="node">
<title>Node9</title>
<g id="a_Node000009"><a xlink:href="../../d0/d2b/class_slic3r_1_1_g_u_i_1_1_g_l_canvas3_d.html#a72fe10e453f2084c81f6cf0e46ddbc05" target="_top" xlink:title=" ">
<polygon fill="#fff0f0" stroke="red" points="311.38,-30.5 181.38,-30.5 181.38,0 311.38,0 311.38,-30.5"/>
<text text-anchor="start" x="189.38" y="-17" font-family="Helvetica,sans-Serif" font-size="10.00">Slic3r::GUI::GLCanvas3D</text>
<text text-anchor="middle" x="246.38" y="-5.75" font-family="Helvetica,sans-Serif" font-size="10.00">::do_center</text>
</a>
</g>
</g>
<!-- Node8&#45;&gt;Node9 -->
<g id="edge9_Node000008_Node000009" class="edge">
<title>Node8&#45;&gt;Node9</title>
<g id="a_edge9_Node000008_Node000009"><a xlink:title=" ">
<path fill="none" stroke="#63b8ff" d="M386.08,-19.32C362.23,-18.62 335.33,-17.83 311.61,-17.13"/>
<polygon fill="#63b8ff" stroke="#63b8ff" points="385.71,-22.84 395.8,-19.63 385.91,-15.84 385.71,-22.84"/>
</a>
</g>
</g>
<!-- Node11 -->
<g id="Node000011" class="node">
<title>Node11</title>
<g id="a_Node000011"><a xlink:href="../../dd/d6a/class_slic3r_1_1_g_u_i_1_1_selection.html#a0f57fccc7de9a37b7a2cf8621c0f733a" target="_top" xlink:title=" ">
<polygon fill="white" stroke="#666666" points="312.88,-79.5 179.88,-79.5 179.88,-49 312.88,-49 312.88,-79.5"/>
<text text-anchor="start" x="187.88" y="-66" font-family="Helvetica,sans-Serif" font-size="10.00">Slic3r::GUI::Selection</text>
<text text-anchor="middle" x="246.38" y="-54.75" font-family="Helvetica,sans-Serif" font-size="10.00">::scale_to_fit_print_volume</text>
</a>
</g>
</g>
<!-- Node8&#45;&gt;Node11 -->
<g id="edge10_Node000008_Node000011" class="edge">
<title>Node8&#45;&gt;Node11</title>
<g id="a_edge10_Node000008_Node000011"><a xlink:title=" ">
<path fill="none" stroke="#63b8ff" d="M386.28,-35.04C362.87,-39.96 336.51,-45.51 313.09,-50.43"/>
<polygon fill="#63b8ff" stroke="#63b8ff" points="386.74,-38.31 395.8,-32.83 385.3,-31.46 386.74,-38.31"/>
</a>
</g>
</g>
<!-- Node12&#45;&gt;Node11 -->
<g id="edge28_Node000012_Node000011" class="edge">
<title>Node12&#45;&gt;Node11</title>
<g id="a_edge28_Node000012_Node000011"><a xlink:title=" ">
<path fill="none" stroke="#63b8ff" d="M622.62,-133.67C602.32,-116.49 571.87,-94.01 540.75,-83.25 465.87,-57.34 373.91,-55.87 313.13,-58.72"/>
<polygon fill="#63b8ff" stroke="#63b8ff" points="619.82,-136.75 629.66,-140.66 624.41,-131.46 619.82,-136.75"/>
</a>
</g>
</g>
<!-- Node13 -->
<g id="Node000013" class="node">
<title>Node13</title>
<g id="a_Node000013"><a xlink:href="../../df/dba/class_slic3r_1_1_g_u_i_1_1_gizmo_object_manipulation.html#a57f9b86c688b6f792b4c4663fbcdd318" target="_top" xlink:title=" ">
<polygon fill="white" stroke="#666666" points="540.75,-287.5 365,-287.5 365,-257 540.75,-257 540.75,-287.5"/>
<text text-anchor="start" x="373" y="-274" font-family="Helvetica,sans-Serif" font-size="10.00">Slic3r::GUI::GizmoObject</text>
<text text-anchor="middle" x="452.88" y="-262.75" font-family="Helvetica,sans-Serif" font-size="10.00">Manipulation::change_position_value</text>
</a>
</g>
</g>
<!-- Node12&#45;&gt;Node13 -->
<g id="edge12_Node000012_Node000013" class="edge">
<title>Node12&#45;&gt;Node13</title>
<g id="a_edge12_Node000012_Node000013"><a xlink:title=" ">
<path fill="none" stroke="#63b8ff" d="M584.74,-177.26C581.93,-179.1 579.24,-181.1 576.75,-183.25 552.05,-204.58 566.34,-227 540.75,-247.25 536.2,-250.85 531.14,-253.94 525.83,-256.58"/>
<polygon fill="#63b8ff" stroke="#63b8ff" points="586.17,-179.91 593.09,-171.89 582.68,-173.84 586.17,-179.91"/>
</a>
</g>
</g>
<!-- Node26 -->
<g id="Node000026" class="node">
<title>Node26</title>
<g id="a_Node000026"><a xlink:href="../../df/dba/class_slic3r_1_1_g_u_i_1_1_gizmo_object_manipulation.html#a6bb85c4df4455a9a9f71d6bb5f203ea6" target="_top" xlink:title=" ">
<polygon fill="white" stroke="#666666" points="540,-122.5 365.75,-122.5 365.75,-92 540,-92 540,-122.5"/>
<text text-anchor="start" x="373.75" y="-109" font-family="Helvetica,sans-Serif" font-size="10.00">Slic3r::GUI::GizmoObject</text>
<text text-anchor="middle" x="452.88" y="-97.75" font-family="Helvetica,sans-Serif" font-size="10.00">Manipulation::change_rotation_value</text>
</a>
</g>
</g>
<!-- Node12&#45;&gt;Node26 -->
<g id="edge14_Node000012_Node000026" class="edge">
<title>Node12&#45;&gt;Node26</title>
<g id="a_edge14_Node000012_Node000026"><a xlink:title=" ">
<path fill="none" stroke="#63b8ff" d="M581.47,-139.6C560.25,-134.22 536.81,-128.28 515.87,-122.97"/>
<polygon fill="#63b8ff" stroke="#63b8ff" points="580.45,-143.21 591.01,-142.27 582.17,-136.42 580.45,-143.21"/>
</a>
</g>
</g>
<!-- Node27 -->
<g id="Node000027" class="node">
<title>Node27</title>
<g id="a_Node000027"><a xlink:href="../../df/dba/class_slic3r_1_1_g_u_i_1_1_gizmo_object_manipulation.html#a6b186eadbba9468d52e9f08325c53135" target="_top" xlink:title=" ">
<polygon fill="white" stroke="#666666" points="516.75,-336.5 389,-336.5 389,-306 516.75,-306 516.75,-336.5"/>
<text text-anchor="start" x="397" y="-323" font-family="Helvetica,sans-Serif" font-size="10.00">Slic3r::GUI::GizmoObject</text>
<text text-anchor="middle" x="452.88" y="-311.75" font-family="Helvetica,sans-Serif" font-size="10.00">Manipulation::do_scale</text>
</a>
</g>
</g>
<!-- Node12&#45;&gt;Node27 -->
<g id="edge16_Node000012_Node000027" class="edge">
<title>Node12&#45;&gt;Node27</title>
<g id="a_edge16_Node000012_Node000027"><a xlink:title=" ">
<path fill="none" stroke="#63b8ff" d="M583,-177.58C580.77,-179.32 578.68,-181.21 576.75,-183.25 540.57,-221.58 578.54,-259.51 540.75,-296.25 534.11,-302.7 525.92,-307.51 517.24,-311.09"/>
<polygon fill="#63b8ff" stroke="#63b8ff" points="584.73,-179.96 591.13,-171.51 580.86,-174.13 584.73,-179.96"/>
</a>
</g>
</g>
<!-- Node31 -->
<g id="Node000031" class="node">
<title>Node31</title>
<g id="a_Node000031"><a xlink:href="../../d0/d2b/class_slic3r_1_1_g_u_i_1_1_g_l_canvas3_d.html#aa811f0a583e17a1b5102893f9ef44d53" target="_top" xlink:title=" ">
<polygon fill="white" stroke="#666666" points="517.88,-238.5 387.88,-238.5 387.88,-208 517.88,-208 517.88,-238.5"/>
<text text-anchor="start" x="395.88" y="-225" font-family="Helvetica,sans-Serif" font-size="10.00">Slic3r::GUI::GLCanvas3D</text>
<text text-anchor="middle" x="452.88" y="-213.75" font-family="Helvetica,sans-Serif" font-size="10.00">::on_key</text>
</a>
</g>
</g>
<!-- Node12&#45;&gt;Node31 -->
<g id="edge21_Node000012_Node000031" class="edge">
<title>Node12&#45;&gt;Node31</title>
<g id="a_edge21_Node000012_Node000031"><a xlink:title=" ">
<path fill="none" stroke="#63b8ff" d="M595.76,-175.76C589.35,-178.26 582.89,-180.79 576.75,-183.25 560.66,-189.69 557.11,-192.51 540.75,-198.25 531.42,-201.52 521.42,-204.7 511.65,-207.63"/>
<polygon fill="#63b8ff" stroke="#63b8ff" points="596.68,-178.77 604.74,-171.9 594.15,-172.24 596.68,-178.77"/>
</a>
</g>
</g>
<!-- Node34 -->
<g id="Node000034" class="node">
<title>Node34</title>
<g id="a_Node000034"><a xlink:href="../../d0/d2b/class_slic3r_1_1_g_u_i_1_1_g_l_canvas3_d.html#a15fc8ce385048544064e6e434e09de23" target="_top" xlink:title=" ">
<polygon fill="white" stroke="#666666" points="517.88,-171.5 387.88,-171.5 387.88,-141 517.88,-141 517.88,-171.5"/>
<text text-anchor="start" x="395.88" y="-158" font-family="Helvetica,sans-Serif" font-size="10.00">Slic3r::GUI::GLCanvas3D</text>
<text text-anchor="middle" x="452.88" y="-146.75" font-family="Helvetica,sans-Serif" font-size="10.00">::on_mouse</text>
</a>
</g>
</g>
<!-- Node12&#45;&gt;Node34 -->
<g id="edge24_Node000012_Node000034" class="edge">
<title>Node12&#45;&gt;Node34</title>
<g id="a_edge24_Node000012_Node000034"><a xlink:title=" ">
<path fill="none" stroke="#63b8ff" d="M581.26,-156.25C560.91,-156.25 538.54,-156.25 518.29,-156.25"/>
<polygon fill="#63b8ff" stroke="#63b8ff" points="581.01,-159.75 591.01,-156.25 581.01,-152.75 581.01,-159.75"/>
</a>
</g>
</g>
<!-- Node14 -->
<g id="Node000014" class="node">
<title>Node14</title>
<g id="a_Node000014"><a xlink:href="../../df/dba/class_slic3r_1_1_g_u_i_1_1_gizmo_object_manipulation.html#a3a979f11eb85b95a82ebe3fb9862d1ab" target="_top" xlink:title=" ">
<polygon fill="#fff0f0" stroke="red" points="127.75,-302.5 0,-302.5 0,-272 127.75,-272 127.75,-302.5"/>
<text text-anchor="start" x="8" y="-289" font-family="Helvetica,sans-Serif" font-size="10.00">Slic3r::GUI::GizmoObject</text>
<text text-anchor="middle" x="63.88" y="-277.75" font-family="Helvetica,sans-Serif" font-size="10.00">Manipulation::on_change</text>
</a>
</g>
</g>
<!-- Node13&#45;&gt;Node14 -->
<g id="edge13_Node000013_Node000014" class="edge">
<title>Node13&#45;&gt;Node14</title>
<g id="a_edge13_Node000013_Node000014"><a xlink:title=" ">
<path fill="none" stroke="#63b8ff" d="M353.82,-276.05C282.94,-278.8 189.29,-282.43 128.09,-284.8"/>
<polygon fill="#63b8ff" stroke="#63b8ff" points="353.69,-279.52 363.54,-275.63 353.41,-272.53 353.69,-279.52"/>
</a>
</g>
</g>
<!-- Node26&#45;&gt;Node14 -->
<g id="edge15_Node000026_Node000014" class="edge">
<title>Node26&#45;&gt;Node14</title>
<g id="a_edge15_Node000026_Node000014"><a xlink:title=" ">
<path fill="none" stroke="#63b8ff" d="M354.59,-99.13C295.42,-98.73 220.57,-106.69 163.75,-141.25 112.75,-172.27 82.08,-240.75 70.35,-271.62"/>
<polygon fill="#63b8ff" stroke="#63b8ff" points="354.39,-102.65 364.45,-99.3 354.5,-95.65 354.39,-102.65"/>
</a>
</g>
</g>
<!-- Node28 -->
<g id="Node000028" class="node">
<title>Node28</title>
<g id="a_Node000028"><a xlink:href="../../df/dba/class_slic3r_1_1_g_u_i_1_1_gizmo_object_manipulation.html#a77530f1300df1770684c075d72749954" target="_top" xlink:title=" ">
<polygon fill="#fff0f0" stroke="red" points="329,-373.5 163.75,-373.5 163.75,-343 329,-343 329,-373.5"/>
<text text-anchor="start" x="171.75" y="-360" font-family="Helvetica,sans-Serif" font-size="10.00">Slic3r::GUI::GizmoObject</text>
<text text-anchor="middle" x="246.38" y="-348.75" font-family="Helvetica,sans-Serif" font-size="10.00">Manipulation::change_scale_value</text>
</a>
</g>
</g>
<!-- Node27&#45;&gt;Node28 -->
<g id="edge17_Node000027_Node000028" class="edge">
<title>Node27&#45;&gt;Node28</title>
<g id="a_edge17_Node000027_Node000028"><a xlink:title=" ">
<path fill="none" stroke="#63b8ff" d="M377.82,-334.65C362.03,-337.51 345.27,-340.54 329.21,-343.44"/>
<polygon fill="#63b8ff" stroke="#63b8ff" points="378.35,-337.93 387.57,-332.7 377.11,-331.04 378.35,-337.93"/>
</a>
</g>
</g>
<!-- Node30 -->
<g id="Node000030" class="node">
<title>Node30</title>
<g id="a_Node000030"><a xlink:href="../../df/dba/class_slic3r_1_1_g_u_i_1_1_gizmo_object_manipulation.html#a9775237106b695162d34aa3ad9057416" target="_top" xlink:title=" ">
<polygon fill="white" stroke="#666666" points="326.38,-324.5 166.38,-324.5 166.38,-294 326.38,-294 326.38,-324.5"/>
<text text-anchor="start" x="174.38" y="-311" font-family="Helvetica,sans-Serif" font-size="10.00">Slic3r::GUI::GizmoObject</text>
<text text-anchor="middle" x="246.38" y="-299.75" font-family="Helvetica,sans-Serif" font-size="10.00">Manipulation::change_size_value</text>
</a>
</g>
</g>
<!-- Node27&#45;&gt;Node30 -->
<g id="edge19_Node000027_Node000030" class="edge">
<title>Node27&#45;&gt;Node30</title>
<g id="a_edge19_Node000027_Node000030"><a xlink:title=" ">
<path fill="none" stroke="#63b8ff" d="M377.81,-316.9C361.18,-315.93 343.46,-314.89 326.62,-313.9"/>
<polygon fill="#63b8ff" stroke="#63b8ff" points="377.38,-320.44 387.57,-317.54 377.79,-313.46 377.38,-320.44"/>
</a>
</g>
</g>
<!-- Node28&#45;&gt;Node14 -->
<g id="edge18_Node000028_Node000014" class="edge">
<title>Node28&#45;&gt;Node14</title>
<g id="a_edge18_Node000028_Node000014"><a xlink:title=" ">
<path fill="none" stroke="#63b8ff" d="M180.38,-339.24C174.72,-337.31 169.11,-335.31 163.75,-333.25 140.42,-324.3 114.86,-312.35 95.57,-302.87"/>
<polygon fill="#63b8ff" stroke="#63b8ff" points="178.98,-342.79 189.57,-342.61 181.18,-336.15 178.98,-342.79"/>
</a>
</g>
</g>
<!-- Node30&#45;&gt;Node14 -->
<g id="edge20_Node000030_Node000014" class="edge">
<title>Node30&#45;&gt;Node14</title>
<g id="a_edge20_Node000030_Node000014"><a xlink:title=" ">
<path fill="none" stroke="#63b8ff" d="M155.2,-298.26C146.03,-297.14 136.87,-296.02 128.07,-294.95"/>
<polygon fill="#63b8ff" stroke="#63b8ff" points="154.59,-301.83 164.94,-299.57 155.44,-294.88 154.59,-301.83"/>
</a>
</g>
</g>
<!-- Node32 -->
<g id="Node000032" class="node">
<title>Node32</title>
<g id="a_Node000032"><a xlink:href="../../d0/d2b/class_slic3r_1_1_g_u_i_1_1_g_l_canvas3_d.html#a9ba6503e9ea6e8ea3050de89e6835f52" target="_top" xlink:title=" ">
<polygon fill="white" stroke="#666666" points="311.38,-180.5 181.38,-180.5 181.38,-150 311.38,-150 311.38,-180.5"/>
<text text-anchor="start" x="189.38" y="-167" font-family="Helvetica,sans-Serif" font-size="10.00">Slic3r::GUI::GLCanvas3D</text>
<text text-anchor="middle" x="246.38" y="-155.75" font-family="Helvetica,sans-Serif" font-size="10.00">::bind_event_handlers</text>
</a>
</g>
</g>
<!-- Node31&#45;&gt;Node32 -->
<g id="edge22_Node000031_Node000032" class="edge">
<title>Node31&#45;&gt;Node32</title>
<g id="a_edge22_Node000031_Node000032"><a xlink:title=" ">
<path fill="none" stroke="#63b8ff" d="M386.06,-204.58C359.19,-196.96 328.45,-188.25 302.76,-180.96"/>
<polygon fill="#63b8ff" stroke="#63b8ff" points="384.96,-208.19 395.53,-207.55 386.87,-201.46 384.96,-208.19"/>
</a>
</g>
</g>
<!-- Node33 -->
<g id="Node000033" class="node">
<title>Node33</title>
<g id="a_Node000033"><a xlink:href="../../d0/d2b/class_slic3r_1_1_g_u_i_1_1_g_l_canvas3_d.html#a16e40798bb4d5ad13209c3feaea9b21d" target="_top" xlink:title=" ">
<polygon fill="white" stroke="#666666" points="311.38,-233.5 181.38,-233.5 181.38,-203 311.38,-203 311.38,-233.5"/>
<text text-anchor="start" x="189.38" y="-220" font-family="Helvetica,sans-Serif" font-size="10.00">Slic3r::GUI::GLCanvas3D</text>
<text text-anchor="middle" x="246.38" y="-208.75" font-family="Helvetica,sans-Serif" font-size="10.00">::unbind_event_handlers</text>
</a>
</g>
</g>
<!-- Node31&#45;&gt;Node33 -->
<g id="edge23_Node000031_Node000033" class="edge">
<title>Node31&#45;&gt;Node33</title>
<g id="a_edge23_Node000031_Node000033"><a xlink:title=" ">
<path fill="none" stroke="#63b8ff" d="M376.52,-221.41C355.27,-220.89 332.37,-220.33 311.83,-219.83"/>
<polygon fill="#63b8ff" stroke="#63b8ff" points="376.37,-224.93 386.45,-221.67 376.54,-217.93 376.37,-224.93"/>
</a>
</g>
</g>
<!-- Node34&#45;&gt;Node32 -->
<g id="edge25_Node000034_Node000032" class="edge">
<title>Node34&#45;&gt;Node32</title>
<g id="a_edge25_Node000034_Node000032"><a xlink:title=" ">
<path fill="none" stroke="#63b8ff" d="M376.52,-159.57C355.27,-160.5 332.37,-161.51 311.83,-162.41"/>
<polygon fill="#63b8ff" stroke="#63b8ff" points="376.61,-163.02 386.45,-159.09 376.31,-156.03 376.61,-163.02"/>
</a>
</g>
</g>
<!-- Node34&#45;&gt;Node33 -->
<g id="edge27_Node000034_Node000033" class="edge">
<title>Node34&#45;&gt;Node33</title>
<g id="a_edge27_Node000034_Node000033"><a xlink:title=" ">
<path fill="none" stroke="#63b8ff" d="M389.6,-175.13C360.68,-183.9 326.69,-194.2 299.19,-202.54"/>
<polygon fill="#63b8ff" stroke="#63b8ff" points="390.45,-178.23 399.01,-171.98 388.42,-171.53 390.45,-178.23"/>
</a>
</g>
</g>
<!-- Node34&#45;&gt;Node34 -->
<g id="edge26_Node000034_Node000034" class="edge">
<title>Node34&#45;&gt;Node34</title>
<g id="a_edge26_Node000034_Node000034"><a xlink:title=" ">
<path fill="none" stroke="#63b8ff" d="M486.06,-182.88C480.88,-186.83 469.82,-189.5 452.88,-189.5 422.75,-189.5 411.22,-181.06 418.28,-171.99"/>
<polygon fill="#63b8ff" stroke="#63b8ff" points="489.66,-183.35 487.47,-172.99 482.72,-182.45 489.66,-183.35"/>
</a>
</g>
</g>
</g>
</svg>
