<?xml version="1.0" encoding="UTF-8" standalone="no"?>
<!DOCTYPE svg PUBLIC "-//W3C//DTD SVG 1.1//EN"
 "http://www.w3.org/Graphics/SVG/1.1/DTD/svg11.dtd">
<!-- Generated by graphviz version 8.1.0 (20230707.0739)
 -->
<!-- Title: Slic3r::PhysicalPrinterCollection::select_printer Pages: 1 -->
<svg width="1584pt" height="482pt"
 viewBox="0.00 0.00 1583.75 482.02" xmlns="http://www.w3.org/2000/svg" xmlns:xlink="http://www.w3.org/1999/xlink">
<g id="graph0" class="graph" transform="scale(1 1) rotate(0) translate(4 478.02)">
<title>Slic3r::PhysicalPrinterCollection::select_printer</title>
<!-- Node1 -->
<g id="Node000001" class="node">
<title>Node1</title>
<g id="a_Node000001"><a xlink:title=" ">
<polygon fill="#999999" stroke="#666666" points="1575.75,-218.27 1419.5,-218.27 1419.5,-187.77 1575.75,-187.77 1575.75,-218.27"/>
<text text-anchor="start" x="1427.5" y="-204.77" font-family="Helvetica,sans-Serif" font-size="10.00">Slic3r::PhysicalPrinterCollection</text>
<text text-anchor="middle" x="1497.62" y="-193.52" font-family="Helvetica,sans-Serif" font-size="10.00">::select_printer</text>
</a>
</g>
</g>
<!-- Node2 -->
<g id="Node000002" class="node">
<title>Node2</title>
<g id="a_Node000002"><a xlink:href="../../d2/df9/class_slic3r_1_1_g_u_i_1_1_tab.html#ae8207dd15bf880dbf2e1b1b8c5ead931" target="_top" xlink:title=" ">
<polygon fill="white" stroke="#666666" points="448.12,-267.27 329.38,-267.27 329.38,-236.77 448.12,-236.77 448.12,-267.27"/>
<text text-anchor="start" x="337.38" y="-253.77" font-family="Helvetica,sans-Serif" font-size="10.00">Slic3r::GUI::Tab::delete</text>
<text text-anchor="middle" x="388.75" y="-242.52" font-family="Helvetica,sans-Serif" font-size="10.00">_preset</text>
</a>
</g>
</g>
<!-- Node1&#45;&gt;Node2 -->
<g id="edge1_Node000001_Node000002" class="edge">
<title>Node1&#45;&gt;Node2</title>
<g id="a_edge1_Node000001_Node000002"><a xlink:title=" ">
<path fill="none" stroke="#63b8ff" d="M1487.36,-228.67C1471.85,-268.17 1436.95,-343.82 1383.5,-387.02 1286.76,-465.21 1241.88,-474.02 1117.5,-474.02 1117.5,-474.02 1117.5,-474.02 744.5,-474.02 588.66,-474.02 444.92,-318.16 402.41,-267.63"/>
<polygon fill="#63b8ff" stroke="#63b8ff" points="1490.93,-230.14 1491.22,-219.55 1484.39,-227.64 1490.93,-230.14"/>
</a>
</g>
</g>
<!-- Node3 -->
<g id="Node000003" class="node">
<title>Node3</title>
<g id="a_Node000003"><a xlink:href="../../d9/d4b/class_slic3r_1_1_preset_bundle.html#a547c4b4af2158998889d7ee8da698dd3" target="_top" xlink:title=" ">
<polygon fill="white" stroke="#666666" points="1365.88,-378.27 1244.88,-378.27 1244.88,-347.77 1365.88,-347.77 1365.88,-378.27"/>
<text text-anchor="start" x="1252.88" y="-364.77" font-family="Helvetica,sans-Serif" font-size="10.00">Slic3r::PresetBundle</text>
<text text-anchor="middle" x="1305.38" y="-353.52" font-family="Helvetica,sans-Serif" font-size="10.00">::load_config_file_config</text>
</a>
</g>
</g>
<!-- Node1&#45;&gt;Node3 -->
<g id="edge2_Node000001_Node000003" class="edge">
<title>Node1&#45;&gt;Node3</title>
<g id="a_edge2_Node000001_Node000003"><a xlink:title=" ">
<path fill="none" stroke="#63b8ff" d="M1476.97,-226.81C1455.63,-251.71 1419.73,-291 1383.5,-319.02 1369.6,-329.77 1352.78,-339.67 1338.41,-347.35"/>
<polygon fill="#63b8ff" stroke="#63b8ff" points="1480.09,-229.53 1483.89,-219.64 1474.75,-225.01 1480.09,-229.53"/>
</a>
</g>
</g>
<!-- Node9 -->
<g id="Node000009" class="node">
<title>Node9</title>
<g id="a_Node000009"><a xlink:href="../../d5/d87/class_slic3r_1_1_physical_printer_collection.html#a4d4e9ec02f18d21304f0c7566aa4769a" target="_top" xlink:title=" ">
<polygon fill="white" stroke="#666666" points="1383.5,-310.27 1227.25,-310.27 1227.25,-279.77 1383.5,-279.77 1383.5,-310.27"/>
<text text-anchor="start" x="1235.25" y="-296.77" font-family="Helvetica,sans-Serif" font-size="10.00">Slic3r::PhysicalPrinterCollection</text>
<text text-anchor="middle" x="1305.38" y="-285.52" font-family="Helvetica,sans-Serif" font-size="10.00">::load_printer</text>
</a>
</g>
</g>
<!-- Node1&#45;&gt;Node9 -->
<g id="edge8_Node000001_Node000009" class="edge">
<title>Node1&#45;&gt;Node9</title>
<g id="a_edge8_Node000001_Node000009"><a xlink:title=" ">
<path fill="none" stroke="#63b8ff" d="M1464.68,-224.53C1442.56,-238.77 1412.08,-257.11 1383.5,-270.02 1376.06,-273.38 1368.03,-276.5 1360.06,-279.31"/>
<polygon fill="#63b8ff" stroke="#63b8ff" points="1466.14,-227.1 1472.61,-218.71 1462.32,-221.24 1466.14,-227.1"/>
</a>
</g>
</g>
<!-- Node10 -->
<g id="Node000010" class="node">
<title>Node10</title>
<g id="a_Node000010"><a xlink:href="../../d9/d4b/class_slic3r_1_1_preset_bundle.html#a4f1121769a570d15b489f80f2ecea7fa" target="_top" xlink:title=" ">
<polygon fill="white" stroke="#666666" points="1358,-261.27 1252.75,-261.27 1252.75,-230.77 1358,-230.77 1358,-261.27"/>
<text text-anchor="start" x="1260.75" y="-247.77" font-family="Helvetica,sans-Serif" font-size="10.00">Slic3r::PresetBundle</text>
<text text-anchor="middle" x="1305.38" y="-236.52" font-family="Helvetica,sans-Serif" font-size="10.00">::load_selections</text>
</a>
</g>
</g>
<!-- Node1&#45;&gt;Node10 -->
<g id="edge9_Node000001_Node000010" class="edge">
<title>Node1&#45;&gt;Node10</title>
<g id="a_edge9_Node000001_Node000010"><a xlink:title=" ">
<path fill="none" stroke="#63b8ff" d="M1416.62,-221.1C1396.94,-225.55 1376.36,-230.2 1358.39,-234.26"/>
<polygon fill="#63b8ff" stroke="#63b8ff" points="1417.15,-224.34 1426.13,-218.72 1415.61,-217.52 1417.15,-224.34"/>
</a>
</g>
</g>
<!-- Node19 -->
<g id="Node000019" class="node">
<title>Node19</title>
<g id="a_Node000019"><a xlink:href="../../d2/df9/class_slic3r_1_1_g_u_i_1_1_tab.html#a4ab96e08077e7de3d271496be634c41f" target="_top" xlink:title=" ">
<polygon fill="white" stroke="#666666" points="628,-209.27 509.25,-209.27 509.25,-178.77 628,-178.77 628,-209.27"/>
<text text-anchor="start" x="517.25" y="-195.77" font-family="Helvetica,sans-Serif" font-size="10.00">Slic3r::GUI::Tab::select</text>
<text text-anchor="middle" x="568.62" y="-184.52" font-family="Helvetica,sans-Serif" font-size="10.00">_preset</text>
</a>
</g>
</g>
<!-- Node1&#45;&gt;Node19 -->
<g id="edge18_Node000001_Node000019" class="edge">
<title>Node1&#45;&gt;Node19</title>
<g id="a_edge18_Node000001_Node000019"><a xlink:title=" ">
<path fill="none" stroke="#63b8ff" d="M1408.71,-203.02C1331.87,-203.02 1217.3,-203.02 1117.5,-203.02 1117.5,-203.02 1117.5,-203.02 930,-203.02 823.61,-203.02 699.6,-199.05 628.29,-196.38"/>
<polygon fill="#63b8ff" stroke="#63b8ff" points="1408.29,-206.52 1418.29,-203.02 1408.29,-199.52 1408.29,-206.52"/>
</a>
</g>
</g>
<!-- Node20 -->
<g id="Node000020" class="node">
<title>Node20</title>
<g id="a_Node000020"><a xlink:href="../../dc/d5e/class_slic3r_1_1_g_u_i_1_1_preset_combo_box.html#a48efe4be89d52e1bb3a8469ec8af0ba9" target="_top" xlink:title=" ">
<polygon fill="white" stroke="#666666" points="466.5,-156.89 311,-156.89 311,-115.14 466.5,-115.14 466.5,-156.89"/>
<text text-anchor="start" x="319" y="-143.39" font-family="Helvetica,sans-Serif" font-size="10.00">Slic3r::GUI::PresetCombo</text>
<text text-anchor="start" x="319" y="-132.14" font-family="Helvetica,sans-Serif" font-size="10.00">Box::selection_is_changed</text>
<text text-anchor="middle" x="388.75" y="-120.89" font-family="Helvetica,sans-Serif" font-size="10.00">_according_to_physical_printers</text>
</a>
</g>
</g>
<!-- Node1&#45;&gt;Node20 -->
<g id="edge26_Node000001_Node000020" class="edge">
<title>Node1&#45;&gt;Node20</title>
<g id="a_edge26_Node000001_Node000020"><a xlink:title=" ">
<path fill="none" stroke="#63b8ff" d="M1487.09,-177.24C1471.67,-139.56 1437.42,-70.42 1383.5,-38.02 1281.52,23.26 1236.47,-8.02 1117.5,-8.02 1117.5,-8.02 1117.5,-8.02 744.5,-8.02 620.1,-8.02 484.94,-78.53 423.52,-114.88"/>
<polygon fill="#63b8ff" stroke="#63b8ff" points="1484.18,-178.4 1491.11,-186.41 1490.69,-175.83 1484.18,-178.4"/>
</a>
</g>
</g>
<!-- Node24 -->
<g id="Node000024" class="node">
<title>Node24</title>
<g id="a_Node000024"><a xlink:href="../../d5/d87/class_slic3r_1_1_physical_printer_collection.html#a83c17c64612c6996e7a7bf2450274c5d" target="_top" xlink:title=" ">
<polygon fill="white" stroke="#666666" points="1383.5,-126.27 1227.25,-126.27 1227.25,-95.77 1383.5,-95.77 1383.5,-126.27"/>
<text text-anchor="start" x="1235.25" y="-112.77" font-family="Helvetica,sans-Serif" font-size="10.00">Slic3r::PhysicalPrinterCollection</text>
<text text-anchor="middle" x="1305.38" y="-101.52" font-family="Helvetica,sans-Serif" font-size="10.00">::select_printer</text>
</a>
</g>
</g>
<!-- Node1&#45;&gt;Node24 -->
<g id="edge24_Node000001_Node000024" class="edge">
<title>Node1&#45;&gt;Node24</title>
<g id="a_edge24_Node000001_Node000024"><a xlink:title=" ">
<path fill="none" stroke="#63b8ff" d="M1464.68,-181.5C1442.56,-167.27 1412.08,-148.92 1383.5,-136.02 1376.06,-132.66 1368.03,-129.54 1360.06,-126.72"/>
<polygon fill="#63b8ff" stroke="#63b8ff" points="1462.32,-184.8 1472.61,-187.32 1466.14,-178.93 1462.32,-184.8"/>
</a>
</g>
</g>
<!-- Node25 -->
<g id="Node000025" class="node">
<title>Node25</title>
<g id="a_Node000025"><a xlink:href="../../d5/d87/class_slic3r_1_1_physical_printer_collection.html#af8d4bc305acaa71a3197c22a66e6f23e" target="_top" xlink:title=" ">
<polygon fill="white" stroke="#666666" points="1383.5,-77.27 1227.25,-77.27 1227.25,-46.77 1383.5,-46.77 1383.5,-77.27"/>
<text text-anchor="start" x="1235.25" y="-63.77" font-family="Helvetica,sans-Serif" font-size="10.00">Slic3r::PhysicalPrinterCollection</text>
<text text-anchor="middle" x="1305.38" y="-52.52" font-family="Helvetica,sans-Serif" font-size="10.00">::select_printer</text>
</a>
</g>
</g>
<!-- Node1&#45;&gt;Node25 -->
<g id="edge25_Node000001_Node000025" class="edge">
<title>Node1&#45;&gt;Node25</title>
<g id="a_edge25_Node000001_Node000025"><a xlink:title=" ">
<path fill="none" stroke="#63b8ff" d="M1479.03,-178.98C1458.74,-152.86 1423.05,-111.58 1383.5,-87.02 1377.76,-83.45 1371.46,-80.35 1365.02,-77.65"/>
<polygon fill="#63b8ff" stroke="#63b8ff" points="1476.7,-180.7 1485.55,-186.53 1482.27,-176.46 1476.7,-180.7"/>
</a>
</g>
</g>
<!-- Node26 -->
<g id="Node000026" class="node">
<title>Node26</title>
<g id="a_Node000026"><a xlink:href="../../dd/dfe/class_slic3r_1_1_g_u_i_1_1_save_preset_dialog.html#a04b7f51319fbe2ac0cbd72287ea113e6" target="_top" xlink:title=" ">
<polygon fill="white" stroke="#666666" points="1380.12,-175.27 1230.62,-175.27 1230.62,-144.77 1380.12,-144.77 1380.12,-175.27"/>
<text text-anchor="start" x="1238.62" y="-161.77" font-family="Helvetica,sans-Serif" font-size="10.00">Slic3r::GUI::SavePresetDialog</text>
<text text-anchor="middle" x="1305.38" y="-150.52" font-family="Helvetica,sans-Serif" font-size="10.00">::update_physical_printers</text>
</a>
</g>
</g>
<!-- Node1&#45;&gt;Node26 -->
<g id="edge27_Node000001_Node000026" class="edge">
<title>Node1&#45;&gt;Node26</title>
<g id="a_edge27_Node000001_Node000026"><a xlink:title=" ">
<path fill="none" stroke="#63b8ff" d="M1416.46,-184.9C1403.01,-181.86 1389.15,-178.73 1376,-175.75"/>
<polygon fill="#63b8ff" stroke="#63b8ff" points="1415.61,-188.52 1426.13,-187.31 1417.15,-181.69 1415.61,-188.52"/>
</a>
</g>
</g>
<!-- Node4 -->
<g id="Node000004" class="node">
<title>Node4</title>
<g id="a_Node000004"><a xlink:href="../../d9/d4b/class_slic3r_1_1_preset_bundle.html#a809726ab5729211dd5e6fb55ee5e9161" target="_top" xlink:title=" ">
<polygon fill="white" stroke="#666666" points="1169.12,-397.27 1063.88,-397.27 1063.88,-366.77 1169.12,-366.77 1169.12,-397.27"/>
<text text-anchor="start" x="1071.88" y="-383.77" font-family="Helvetica,sans-Serif" font-size="10.00">Slic3r::PresetBundle</text>
<text text-anchor="middle" x="1116.5" y="-372.52" font-family="Helvetica,sans-Serif" font-size="10.00">::load_config_file</text>
</a>
</g>
</g>
<!-- Node3&#45;&gt;Node4 -->
<g id="edge3_Node000003_Node000004" class="edge">
<title>Node3&#45;&gt;Node4</title>
<g id="a_edge3_Node000003_Node000004"><a xlink:title=" ">
<path fill="none" stroke="#63b8ff" d="M1233.82,-370.19C1212.47,-372.36 1189.42,-374.71 1169.51,-376.73"/>
<polygon fill="#63b8ff" stroke="#63b8ff" points="1233.88,-373.6 1243.48,-369.11 1233.17,-366.64 1233.88,-373.6"/>
</a>
</g>
</g>
<!-- Node5 -->
<g id="Node000005" class="node">
<title>Node5</title>
<g id="a_Node000005"><a xlink:href="../../d9/d4b/class_slic3r_1_1_preset_bundle.html#a68fef4117cd9c40a2516a20a4dd2ff66" target="_top" xlink:title=" ">
<polygon fill="white" stroke="#666666" points="1181.5,-348.27 1051.5,-348.27 1051.5,-317.77 1181.5,-317.77 1181.5,-348.27"/>
<text text-anchor="start" x="1059.5" y="-334.77" font-family="Helvetica,sans-Serif" font-size="10.00">Slic3r::PresetBundle</text>
<text text-anchor="middle" x="1116.5" y="-323.52" font-family="Helvetica,sans-Serif" font-size="10.00">::load_config_from_wizard</text>
</a>
</g>
</g>
<!-- Node3&#45;&gt;Node5 -->
<g id="edge4_Node000003_Node000005" class="edge">
<title>Node3&#45;&gt;Node5</title>
<g id="a_edge4_Node000003_Node000005"><a xlink:title=" ">
<path fill="none" stroke="#63b8ff" d="M1234,-351.72C1216.9,-348.98 1198.71,-346.05 1181.9,-343.36"/>
<polygon fill="#63b8ff" stroke="#63b8ff" points="1233.05,-355.27 1243.48,-353.4 1234.16,-348.36 1233.05,-355.27"/>
</a>
</g>
</g>
<!-- Node7 -->
<g id="Node000007" class="node">
<title>Node7</title>
<g id="a_Node000007"><a xlink:href="../../d9/d4b/class_slic3r_1_1_preset_bundle.html#ad0dd708ed65c090097f7d3dd4b521a36" target="_top" xlink:title=" ">
<polygon fill="white" stroke="#666666" points="1169.12,-446.27 1063.88,-446.27 1063.88,-415.77 1169.12,-415.77 1169.12,-446.27"/>
<text text-anchor="start" x="1071.88" y="-432.77" font-family="Helvetica,sans-Serif" font-size="10.00">Slic3r::PresetBundle</text>
<text text-anchor="middle" x="1116.5" y="-421.52" font-family="Helvetica,sans-Serif" font-size="10.00">::load_config_model</text>
</a>
</g>
</g>
<!-- Node3&#45;&gt;Node7 -->
<g id="edge6_Node000003_Node000007" class="edge">
<title>Node3&#45;&gt;Node7</title>
<g id="a_edge6_Node000003_Node000007"><a xlink:title=" ">
<path fill="none" stroke="#63b8ff" d="M1253.99,-382.62C1234.45,-390.1 1211.87,-398.61 1191.25,-406.02 1182.73,-409.08 1173.61,-412.25 1164.8,-415.27"/>
<polygon fill="#63b8ff" stroke="#63b8ff" points="1255.11,-385.55 1263.19,-378.7 1252.6,-379.02 1255.11,-385.55"/>
</a>
</g>
</g>
<!-- Node6 -->
<g id="Node000006" class="node">
<title>Node6</title>
<g id="a_Node000006"><a xlink:href="../../db/dd1/struct_slic3r_1_1_g_u_i_1_1_config_wizard_1_1priv.html#aaa5530c34d0ac4d27920cd06063e7ebf" target="_top" xlink:title=" ">
<polygon fill="white" stroke="#666666" points="996,-348.27 866,-348.27 866,-317.77 996,-317.77 996,-348.27"/>
<text text-anchor="start" x="874" y="-334.77" font-family="Helvetica,sans-Serif" font-size="10.00">Slic3r::GUI::ConfigWizard</text>
<text text-anchor="middle" x="931" y="-323.52" font-family="Helvetica,sans-Serif" font-size="10.00">::priv::apply_config</text>
</a>
</g>
</g>
<!-- Node5&#45;&gt;Node6 -->
<g id="edge5_Node000005_Node000006" class="edge">
<title>Node5&#45;&gt;Node6</title>
<g id="a_edge5_Node000005_Node000006"><a xlink:title=" ">
<path fill="none" stroke="#63b8ff" d="M1040.08,-333.02C1025.54,-333.02 1010.43,-333.02 996.28,-333.02"/>
<polygon fill="#63b8ff" stroke="#63b8ff" points="1040.06,-336.52 1050.06,-333.02 1040.06,-329.52 1040.06,-336.52"/>
</a>
</g>
</g>
<!-- Node8 -->
<g id="Node000008" class="node">
<title>Node8</title>
<g id="a_Node000008"><a xlink:href="../../d4/d88/struct_slic3r_1_1_g_u_i_1_1_plater_1_1priv.html#a8f66b6a670ee52335e7fdac46f2b133e" target="_top" xlink:title=" ">
<polygon fill="white" stroke="#666666" points="979.12,-446.27 882.88,-446.27 882.88,-415.77 979.12,-415.77 979.12,-446.27"/>
<text text-anchor="start" x="890.88" y="-432.77" font-family="Helvetica,sans-Serif" font-size="10.00">Slic3r::GUI::Plater</text>
<text text-anchor="middle" x="931" y="-421.52" font-family="Helvetica,sans-Serif" font-size="10.00">::priv::load_files</text>
</a>
</g>
</g>
<!-- Node7&#45;&gt;Node8 -->
<g id="edge7_Node000007_Node000008" class="edge">
<title>Node7&#45;&gt;Node8</title>
<g id="a_edge7_Node000007_Node000008"><a xlink:title=" ">
<path fill="none" stroke="#63b8ff" d="M1052.64,-431.02C1028.68,-431.02 1001.81,-431.02 979.51,-431.02"/>
<polygon fill="#63b8ff" stroke="#63b8ff" points="1052.41,-434.52 1062.41,-431.02 1052.41,-427.52 1052.41,-434.52"/>
</a>
</g>
</g>
<!-- Node11 -->
<g id="Node000011" class="node">
<title>Node11</title>
<g id="a_Node000011"><a xlink:href="../../d9/d4b/class_slic3r_1_1_preset_bundle.html#aac015e89e9acef105fe99b3f19b77f07" target="_top" xlink:title=" ">
<polygon fill="white" stroke="#666666" points="1169.12,-299.27 1063.88,-299.27 1063.88,-268.77 1169.12,-268.77 1169.12,-299.27"/>
<text text-anchor="start" x="1071.88" y="-285.77" font-family="Helvetica,sans-Serif" font-size="10.00">Slic3r::PresetBundle</text>
<text text-anchor="middle" x="1116.5" y="-274.52" font-family="Helvetica,sans-Serif" font-size="10.00">::load_presets</text>
</a>
</g>
</g>
<!-- Node10&#45;&gt;Node11 -->
<g id="edge10_Node000010_Node000011" class="edge">
<title>Node10&#45;&gt;Node11</title>
<g id="a_edge10_Node000010_Node000011"><a xlink:title=" ">
<path fill="none" stroke="#63b8ff" d="M1241.78,-258.75C1218.34,-263.51 1191.99,-268.87 1169.6,-273.42"/>
<polygon fill="#63b8ff" stroke="#63b8ff" points="1242.22,-262.03 1251.32,-256.6 1240.82,-255.17 1242.22,-262.03"/>
</a>
</g>
</g>
<!-- Node13 -->
<g id="Node000013" class="node">
<title>Node13</title>
<g id="a_Node000013"><a xlink:href="../../d3/d38/class_slic3r_1_1_g_u_i_1_1_guide_frame.html#af3c3a04a421f646e8bf279919e22fca1" target="_top" xlink:title=" ">
<polygon fill="white" stroke="#666666" points="817.25,-293.64 673.75,-293.64 673.75,-274.39 817.25,-274.39 817.25,-293.64"/>
<text text-anchor="middle" x="745.5" y="-280.14" font-family="Helvetica,sans-Serif" font-size="10.00">Slic3r::GUI::GuideFrame::run</text>
</a>
</g>
</g>
<!-- Node10&#45;&gt;Node13 -->
<g id="edge17_Node000010_Node000013" class="edge">
<title>Node10&#45;&gt;Node13</title>
<g id="a_edge17_Node000010_Node000013"><a xlink:title=" ">
<path fill="none" stroke="#63b8ff" d="M1241.65,-244.35C1154.74,-242.87 992.92,-243.09 856.25,-260.02 832.05,-263.02 805.32,-268.81 784.3,-273.95"/>
<polygon fill="#63b8ff" stroke="#63b8ff" points="1241.32,-247.87 1251.38,-244.55 1241.45,-240.87 1241.32,-247.87"/>
</a>
</g>
</g>
<!-- Node11&#45;&gt;Node6 -->
<g id="edge11_Node000011_Node000006" class="edge">
<title>Node11&#45;&gt;Node6</title>
<g id="a_edge11_Node000011_Node000006"><a xlink:title=" ">
<path fill="none" stroke="#63b8ff" d="M1052.79,-300.76C1032.68,-306.13 1010.49,-312.06 990.68,-317.35"/>
<polygon fill="#63b8ff" stroke="#63b8ff" points="1053.65,-303.89 1062.41,-297.93 1051.84,-297.13 1053.65,-303.89"/>
</a>
</g>
</g>
<!-- Node12 -->
<g id="Node000012" class="node">
<title>Node12</title>
<g id="a_Node000012"><a xlink:href="../../d3/d38/class_slic3r_1_1_g_u_i_1_1_guide_frame.html#ae46421965812a3b35123866fc3eac1e0" target="_top" xlink:title=" ">
<polygon fill="white" stroke="#666666" points="993,-299.27 869,-299.27 869,-268.77 993,-268.77 993,-299.27"/>
<text text-anchor="start" x="877" y="-285.77" font-family="Helvetica,sans-Serif" font-size="10.00">Slic3r::GUI::GuideFrame</text>
<text text-anchor="middle" x="931" y="-274.52" font-family="Helvetica,sans-Serif" font-size="10.00">::apply_config</text>
</a>
</g>
</g>
<!-- Node11&#45;&gt;Node12 -->
<g id="edge12_Node000011_Node000012" class="edge">
<title>Node11&#45;&gt;Node12</title>
<g id="a_edge12_Node000011_Node000012"><a xlink:title=" ">
<path fill="none" stroke="#63b8ff" d="M1052.66,-284.02C1033.47,-284.02 1012.4,-284.02 993.32,-284.02"/>
<polygon fill="#63b8ff" stroke="#63b8ff" points="1052.41,-287.52 1062.41,-284.02 1052.41,-280.52 1052.41,-287.52"/>
</a>
</g>
</g>
<!-- Node12&#45;&gt;Node13 -->
<g id="edge13_Node000012_Node000013" class="edge">
<title>Node12&#45;&gt;Node13</title>
<g id="a_edge13_Node000012_Node000013"><a xlink:title=" ">
<path fill="none" stroke="#63b8ff" d="M857.72,-284.02C844.54,-284.02 830.79,-284.02 817.64,-284.02"/>
<polygon fill="#63b8ff" stroke="#63b8ff" points="857.64,-287.52 867.64,-284.02 857.64,-280.52 857.64,-287.52"/>
</a>
</g>
</g>
<!-- Node14 -->
<g id="Node000014" class="node">
<title>Node14</title>
<g id="a_Node000014"><a xlink:href="../../d9/d01/class_slic3r_1_1_g_u_i_1_1_g_u_i___app.html#afbb2db51b92bb9f89d3b414edd6195f6" target="_top" xlink:title=" ">
<polygon fill="#fff0f0" stroke="red" points="624.25,-307.27 513,-307.27 513,-276.77 624.25,-276.77 624.25,-307.27"/>
<text text-anchor="start" x="521" y="-293.77" font-family="Helvetica,sans-Serif" font-size="10.00">Slic3r::GUI::GUI_App</text>
<text text-anchor="middle" x="568.62" y="-282.52" font-family="Helvetica,sans-Serif" font-size="10.00">::run_wizard</text>
</a>
</g>
</g>
<!-- Node13&#45;&gt;Node14 -->
<g id="edge14_Node000013_Node000014" class="edge">
<title>Node13&#45;&gt;Node14</title>
<g id="a_edge14_Node000013_Node000014"><a xlink:title=" ">
<path fill="none" stroke="#63b8ff" d="M662.61,-287.76C649.73,-288.35 636.68,-288.95 624.6,-289.5"/>
<polygon fill="#63b8ff" stroke="#63b8ff" points="662.54,-291.23 672.37,-287.27 662.22,-284.23 662.54,-291.23"/>
</a>
</g>
</g>
<!-- Node17 -->
<g id="Node000017" class="node">
<title>Node17</title>
<g id="a_Node000017"><a xlink:href="../../d9/d01/class_slic3r_1_1_g_u_i_1_1_g_u_i___app.html#a8b808b6a54e0a8e063b056771f72970b" target="_top" xlink:title=" ">
<polygon fill="white" stroke="#666666" points="624.25,-258.27 513,-258.27 513,-227.77 624.25,-227.77 624.25,-258.27"/>
<text text-anchor="start" x="521" y="-244.77" font-family="Helvetica,sans-Serif" font-size="10.00">Slic3r::GUI::GUI_App</text>
<text text-anchor="middle" x="568.62" y="-233.52" font-family="Helvetica,sans-Serif" font-size="10.00">::ShowOnlyFilament</text>
</a>
</g>
</g>
<!-- Node13&#45;&gt;Node17 -->
<g id="edge15_Node000013_Node000017" class="edge">
<title>Node13&#45;&gt;Node17</title>
<g id="a_edge15_Node000013_Node000017"><a xlink:title=" ">
<path fill="none" stroke="#63b8ff" d="M691.02,-271.48C669.94,-266.54 645.75,-260.87 624.53,-255.89"/>
<polygon fill="#63b8ff" stroke="#63b8ff" points="690.19,-275.11 700.72,-273.99 691.78,-268.3 690.19,-275.11"/>
</a>
</g>
</g>
<!-- Node18 -->
<g id="Node000018" class="node">
<title>Node18</title>
<g id="a_Node000018"><a xlink:href="../../d9/d01/class_slic3r_1_1_g_u_i_1_1_g_u_i___app.html#a7f18c721746b2778fb9316be678871cf" target="_top" xlink:title=" ">
<polygon fill="white" stroke="#666666" points="624.25,-356.27 513,-356.27 513,-325.77 624.25,-325.77 624.25,-356.27"/>
<text text-anchor="start" x="521" y="-342.77" font-family="Helvetica,sans-Serif" font-size="10.00">Slic3r::GUI::GUI_App</text>
<text text-anchor="middle" x="568.62" y="-331.52" font-family="Helvetica,sans-Serif" font-size="10.00">::ShowUserGuide</text>
</a>
</g>
</g>
<!-- Node13&#45;&gt;Node18 -->
<g id="edge16_Node000013_Node000018" class="edge">
<title>Node13&#45;&gt;Node18</title>
<g id="a_edge16_Node000013_Node000018"><a xlink:title=" ">
<path fill="none" stroke="#63b8ff" d="M703.48,-297.39C677.79,-305.76 644.57,-316.59 617.65,-325.36"/>
<polygon fill="#63b8ff" stroke="#63b8ff" points="704.22,-300.5 712.64,-294.08 702.05,-293.85 704.22,-300.5"/>
</a>
</g>
</g>
<!-- Node19&#45;&gt;Node2 -->
<g id="edge19_Node000019_Node000002" class="edge">
<title>Node19&#45;&gt;Node2</title>
<g id="a_edge19_Node000019_Node000002"><a xlink:title=" ">
<path fill="none" stroke="#63b8ff" d="M509.13,-213.09C486.06,-220.61 459.88,-229.15 437.92,-236.31"/>
<polygon fill="#63b8ff" stroke="#63b8ff" points="510.07,-216.14 518.49,-209.71 507.9,-209.49 510.07,-216.14"/>
</a>
</g>
</g>
<!-- Node19&#45;&gt;Node20 -->
<g id="edge20_Node000019_Node000020" class="edge">
<title>Node19&#45;&gt;Node20</title>
<g id="a_edge20_Node000019_Node000020"><a xlink:title=" ">
<path fill="none" stroke="#63b8ff" d="M509.51,-175.07C492.18,-169.42 473.06,-163.18 455.29,-157.39"/>
<polygon fill="#63b8ff" stroke="#63b8ff" points="507.9,-178.55 518.49,-178.32 510.07,-171.89 507.9,-178.55"/>
</a>
</g>
</g>
<!-- Node21 -->
<g id="Node000021" class="node">
<title>Node21</title>
<g id="a_Node000021"><a xlink:href="../../d2/df9/class_slic3r_1_1_g_u_i_1_1_tab.html#aed62949d2c742438ecf8aa8ccc36e922" target="_top" xlink:title=" ">
<polygon fill="white" stroke="#666666" points="275,-176.27 155.5,-176.27 155.5,-145.77 275,-145.77 275,-176.27"/>
<text text-anchor="start" x="163.5" y="-162.77" font-family="Helvetica,sans-Serif" font-size="10.00">Slic3r::GUI::Tab::create</text>
<text text-anchor="middle" x="215.25" y="-151.52" font-family="Helvetica,sans-Serif" font-size="10.00">_preset_tab</text>
</a>
</g>
</g>
<!-- Node20&#45;&gt;Node21 -->
<g id="edge21_Node000020_Node000021" class="edge">
<title>Node20&#45;&gt;Node21</title>
<g id="a_edge21_Node000020_Node000021"><a xlink:title=" ">
<path fill="none" stroke="#63b8ff" d="M299.69,-148.86C291.43,-150.06 283.2,-151.26 275.31,-152.41"/>
<polygon fill="#63b8ff" stroke="#63b8ff" points="300.14,-152.18 309.53,-147.27 299.13,-145.25 300.14,-152.18"/>
</a>
</g>
</g>
<!-- Node23 -->
<g id="Node000023" class="node">
<title>Node23</title>
<g id="a_Node000023"><a xlink:href="../../d4/d88/struct_slic3r_1_1_g_u_i_1_1_plater_1_1priv.html#a22b5c650b7630e359a3ea957af2ff0ac" target="_top" xlink:title=" ">
<polygon fill="white" stroke="#666666" points="274.25,-127.27 156.25,-127.27 156.25,-96.77 274.25,-96.77 274.25,-127.27"/>
<text text-anchor="start" x="164.25" y="-113.77" font-family="Helvetica,sans-Serif" font-size="10.00">Slic3r::GUI::Plater</text>
<text text-anchor="middle" x="215.25" y="-102.52" font-family="Helvetica,sans-Serif" font-size="10.00">::priv::on_select_preset</text>
</a>
</g>
</g>
<!-- Node20&#45;&gt;Node23 -->
<g id="edge23_Node000020_Node000023" class="edge">
<title>Node20&#45;&gt;Node23</title>
<g id="a_edge23_Node000020_Node000023"><a xlink:title=" ">
<path fill="none" stroke="#63b8ff" d="M299.73,-123.7C291.19,-122.5 282.68,-121.31 274.54,-120.18"/>
<polygon fill="#63b8ff" stroke="#63b8ff" points="299.14,-127.29 309.53,-125.21 300.11,-120.36 299.14,-127.29"/>
</a>
</g>
</g>
<!-- Node22 -->
<g id="Node000022" class="node">
<title>Node22</title>
<g id="a_Node000022"><a xlink:href="../../d3/d17/class_slic3r_1_1_g_u_i_1_1_main_frame.html#af591d7ac030549e5c990fde112f13df6" target="_top" xlink:title=" ">
<polygon fill="white" stroke="#666666" points="119.5,-176.27 0,-176.27 0,-145.77 119.5,-145.77 119.5,-176.27"/>
<text text-anchor="start" x="8" y="-162.77" font-family="Helvetica,sans-Serif" font-size="10.00">Slic3r::GUI::MainFrame</text>
<text text-anchor="middle" x="59.75" y="-151.52" font-family="Helvetica,sans-Serif" font-size="10.00">::add_created_tab</text>
</a>
</g>
</g>
<!-- Node21&#45;&gt;Node22 -->
<g id="edge22_Node000021_Node000022" class="edge">
<title>Node21&#45;&gt;Node22</title>
<g id="a_edge22_Node000021_Node000022"><a xlink:title=" ">
<path fill="none" stroke="#63b8ff" d="M144.55,-161.02C136.26,-161.02 127.87,-161.02 119.75,-161.02"/>
<polygon fill="#63b8ff" stroke="#63b8ff" points="144.34,-164.52 154.34,-161.02 144.34,-157.52 144.34,-164.52"/>
</a>
</g>
</g>
<!-- Node27 -->
<g id="Node000027" class="node">
<title>Node27</title>
<g id="a_Node000027"><a xlink:href="../../dd/dfe/class_slic3r_1_1_g_u_i_1_1_save_preset_dialog.html#aadc07a3a37cf2e107f91cbac8df65b86" target="_top" xlink:title=" ">
<polygon fill="white" stroke="#666666" points="1191.25,-122.27 1041.75,-122.27 1041.75,-91.77 1191.25,-91.77 1191.25,-122.27"/>
<text text-anchor="start" x="1049.75" y="-108.77" font-family="Helvetica,sans-Serif" font-size="10.00">Slic3r::GUI::SavePresetDialog</text>
<text text-anchor="middle" x="1116.5" y="-97.52" font-family="Helvetica,sans-Serif" font-size="10.00">::accept</text>
</a>
</g>
</g>
<!-- Node26&#45;&gt;Node27 -->
<g id="edge28_Node000026_Node000027" class="edge">
<title>Node26&#45;&gt;Node27</title>
<g id="a_edge28_Node000026_Node000027"><a xlink:title=" ">
<path fill="none" stroke="#63b8ff" d="M1238.72,-141.4C1217.25,-135.31 1193.63,-128.61 1172.99,-122.76"/>
<polygon fill="#63b8ff" stroke="#63b8ff" points="1237.49,-144.97 1248.06,-144.33 1239.4,-138.24 1237.49,-144.97"/>
</a>
</g>
</g>
<!-- Node31 -->
<g id="Node000031" class="node">
<title>Node31</title>
<g id="a_Node000031"><a xlink:href="../../dd/dfe/class_slic3r_1_1_g_u_i_1_1_save_preset_dialog.html#a90f4df478c92e1bb582ba7f5151aa9f5" target="_top" xlink:title=" ">
<polygon fill="white" stroke="#666666" points="1191.25,-173.27 1041.75,-173.27 1041.75,-142.77 1191.25,-142.77 1191.25,-173.27"/>
<text text-anchor="start" x="1049.75" y="-159.77" font-family="Helvetica,sans-Serif" font-size="10.00">Slic3r::GUI::SavePresetDialog</text>
<text text-anchor="middle" x="1116.5" y="-148.52" font-family="Helvetica,sans-Serif" font-size="10.00">::confirm_from_other</text>
</a>
</g>
</g>
<!-- Node26&#45;&gt;Node31 -->
<g id="edge32_Node000026_Node000031" class="edge">
<title>Node26&#45;&gt;Node31</title>
<g id="a_edge32_Node000026_Node000031"><a xlink:title=" ">
<path fill="none" stroke="#63b8ff" d="M1219.4,-159.11C1210.1,-159.01 1200.69,-158.91 1191.54,-158.81"/>
<polygon fill="#63b8ff" stroke="#63b8ff" points="1219.21,-162.62 1229.25,-159.22 1219.29,-155.62 1219.21,-162.62"/>
</a>
</g>
</g>
<!-- Node28 -->
<g id="Node000028" class="node">
<title>Node28</title>
<g id="a_Node000028"><a xlink:href="../../dd/dfe/class_slic3r_1_1_g_u_i_1_1_save_preset_dialog.html#a90252bd99353aa80414f7df88d1ed89b" target="_top" xlink:title=" ">
<polygon fill="white" stroke="#666666" points="1005.75,-115.27 856.25,-115.27 856.25,-84.77 1005.75,-84.77 1005.75,-115.27"/>
<text text-anchor="start" x="864.25" y="-101.77" font-family="Helvetica,sans-Serif" font-size="10.00">Slic3r::GUI::SavePresetDialog</text>
<text text-anchor="middle" x="931" y="-90.52" font-family="Helvetica,sans-Serif" font-size="10.00">::build</text>
</a>
</g>
</g>
<!-- Node27&#45;&gt;Node28 -->
<g id="edge29_Node000027_Node000028" class="edge">
<title>Node27&#45;&gt;Node28</title>
<g id="a_edge29_Node000027_Node000028"><a xlink:title=" ">
<path fill="none" stroke="#63b8ff" d="M1030.67,-103.78C1022.46,-103.47 1014.18,-103.15 1006.09,-102.84"/>
<polygon fill="#63b8ff" stroke="#63b8ff" points="1030.27,-107.31 1040.39,-104.19 1030.53,-100.31 1030.27,-107.31"/>
</a>
</g>
</g>
<!-- Node29 -->
<g id="Node000029" class="node">
<title>Node29</title>
<g id="a_Node000029"><a xlink:href="../../dd/dfe/class_slic3r_1_1_g_u_i_1_1_save_preset_dialog.html#aca9f07d03f009b0a2b32190bf1cab6b8" target="_top" xlink:title=" ">
<polygon fill="white" stroke="#666666" points="820.25,-66.27 670.75,-66.27 670.75,-35.77 820.25,-35.77 820.25,-66.27"/>
<text text-anchor="start" x="678.75" y="-52.77" font-family="Helvetica,sans-Serif" font-size="10.00">Slic3r::GUI::SavePresetDialog</text>
<text text-anchor="middle" x="745.5" y="-41.52" font-family="Helvetica,sans-Serif" font-size="10.00">::SavePresetDialog</text>
</a>
</g>
</g>
<!-- Node28&#45;&gt;Node29 -->
<g id="edge30_Node000028_Node000029" class="edge">
<title>Node28&#45;&gt;Node29</title>
<g id="a_edge30_Node000028_Node000029"><a xlink:title=" ">
<path fill="none" stroke="#63b8ff" d="M860.62,-81.49C842.39,-76.62 822.91,-71.42 805.3,-66.72"/>
<polygon fill="#63b8ff" stroke="#63b8ff" points="859.62,-85.11 870.18,-84.31 861.42,-78.35 859.62,-85.11"/>
</a>
</g>
</g>
<!-- Node30 -->
<g id="Node000030" class="node">
<title>Node30</title>
<g id="a_Node000030"><a xlink:href="../../dd/dfe/class_slic3r_1_1_g_u_i_1_1_save_preset_dialog.html#ac464e0a7d3c548ad19237098dd0d3370" target="_top" xlink:title=" ">
<polygon fill="white" stroke="#666666" points="820.25,-115.27 670.75,-115.27 670.75,-84.77 820.25,-84.77 820.25,-115.27"/>
<text text-anchor="start" x="678.75" y="-101.77" font-family="Helvetica,sans-Serif" font-size="10.00">Slic3r::GUI::SavePresetDialog</text>
<text text-anchor="middle" x="745.5" y="-90.52" font-family="Helvetica,sans-Serif" font-size="10.00">::SavePresetDialog</text>
</a>
</g>
</g>
<!-- Node28&#45;&gt;Node30 -->
<g id="edge31_Node000028_Node000030" class="edge">
<title>Node28&#45;&gt;Node30</title>
<g id="a_edge31_Node000028_Node000030"><a xlink:title=" ">
<path fill="none" stroke="#63b8ff" d="M845.17,-100.02C836.96,-100.02 828.68,-100.02 820.59,-100.02"/>
<polygon fill="#63b8ff" stroke="#63b8ff" points="844.89,-103.52 854.89,-100.02 844.89,-96.52 844.89,-103.52"/>
</a>
</g>
</g>
<!-- Node32 -->
<g id="Node000032" class="node">
<title>Node32</title>
<g id="a_Node000032"><a xlink:href="../../d2/df9/class_slic3r_1_1_g_u_i_1_1_tab.html#abd9c0194d18040225993b9076d08883a" target="_top" xlink:title=" ">
<polygon fill="white" stroke="#666666" points="987.75,-172.27 874.25,-172.27 874.25,-141.77 987.75,-141.77 987.75,-172.27"/>
<text text-anchor="start" x="882.25" y="-158.77" font-family="Helvetica,sans-Serif" font-size="10.00">Slic3r::GUI::Tab::save</text>
<text text-anchor="middle" x="931" y="-147.52" font-family="Helvetica,sans-Serif" font-size="10.00">_preset</text>
</a>
</g>
</g>
<!-- Node31&#45;&gt;Node32 -->
<g id="edge33_Node000031_Node000032" class="edge">
<title>Node31&#45;&gt;Node32</title>
<g id="a_edge33_Node000031_Node000032"><a xlink:title=" ">
<path fill="none" stroke="#63b8ff" d="M1030.45,-157.55C1016.06,-157.48 1001.44,-157.4 988.03,-157.32"/>
<polygon fill="#63b8ff" stroke="#63b8ff" points="1030.37,-161.06 1040.39,-157.61 1030.41,-154.06 1030.37,-161.06"/>
</a>
</g>
</g>
<!-- Node33 -->
<g id="Node000033" class="node">
<title>Node33</title>
<g id="a_Node000033"><a xlink:href="../../d2/df9/class_slic3r_1_1_g_u_i_1_1_tab.html#aa0bcb8f829e8932cbafccf6ab8639443" target="_top" xlink:title=" ">
<polygon fill="white" stroke="#666666" points="801.5,-174.89 689.5,-174.89 689.5,-133.14 801.5,-133.14 801.5,-174.89"/>
<text text-anchor="start" x="697.5" y="-161.39" font-family="Helvetica,sans-Serif" font-size="10.00">Slic3r::GUI::Tab::may</text>
<text text-anchor="start" x="697.5" y="-150.14" font-family="Helvetica,sans-Serif" font-size="10.00">_discard_current_dirty</text>
<text text-anchor="middle" x="745.5" y="-138.89" font-family="Helvetica,sans-Serif" font-size="10.00">_preset</text>
</a>
</g>
</g>
<!-- Node32&#45;&gt;Node33 -->
<g id="edge34_Node000032_Node000033" class="edge">
<title>Node32&#45;&gt;Node33</title>
<g id="a_edge34_Node000032_Node000033"><a xlink:title=" ">
<path fill="none" stroke="#63b8ff" d="M863,-155.92C842.92,-155.59 821.13,-155.24 801.89,-154.92"/>
<polygon fill="#63b8ff" stroke="#63b8ff" points="862.89,-159.44 872.95,-156.1 863.01,-152.44 862.89,-159.44"/>
</a>
</g>
</g>
<!-- Node33&#45;&gt;Node19 -->
<g id="edge36_Node000033_Node000019" class="edge">
<title>Node33&#45;&gt;Node19</title>
<g id="a_edge36_Node000033_Node000019"><a xlink:title=" ">
<path fill="none" stroke="#63b8ff" d="M678.49,-169.12C661.97,-172.9 644.36,-176.92 628.22,-180.62"/>
<polygon fill="#63b8ff" stroke="#63b8ff" points="679.2,-172.32 688.17,-166.67 677.64,-165.49 679.2,-172.32"/>
</a>
</g>
</g>
<!-- Node34 -->
<g id="Node000034" class="node">
<title>Node34</title>
<g id="a_Node000034"><a xlink:href="../../d8/d2d/class_slic3r_1_1_g_u_i_1_1_params_dialog.html#a3425eed7e7d06b05b25cb294ad65ddb0" target="_top" xlink:title=" ">
<polygon fill="white" stroke="#666666" points="634.75,-160.27 502.5,-160.27 502.5,-129.77 634.75,-129.77 634.75,-160.27"/>
<text text-anchor="start" x="510.5" y="-146.77" font-family="Helvetica,sans-Serif" font-size="10.00">Slic3r::GUI::ParamsDialog</text>
<text text-anchor="middle" x="568.62" y="-135.52" font-family="Helvetica,sans-Serif" font-size="10.00">::ParamsDialog</text>
</a>
</g>
</g>
<!-- Node33&#45;&gt;Node34 -->
<g id="edge35_Node000033_Node000034" class="edge">
<title>Node33&#45;&gt;Node34</title>
<g id="a_edge35_Node000033_Node000034"><a xlink:title=" ">
<path fill="none" stroke="#63b8ff" d="M678.47,-150.62C664.24,-149.89 649.2,-149.11 634.99,-148.38"/>
<polygon fill="#63b8ff" stroke="#63b8ff" points="678,-154.15 688.17,-151.17 678.36,-147.16 678,-154.15"/>
</a>
</g>
</g>
</g>
</svg>
