<?xml version="1.0" encoding="UTF-8" standalone="no"?>
<!DOCTYPE svg PUBLIC "-//W3C//DTD SVG 1.1//EN"
 "http://www.w3.org/Graphics/SVG/1.1/DTD/svg11.dtd">
<!-- Generated by graphviz version 8.1.0 (20230707.0739)
 -->
<!-- Title: src/slic3r/GUI/wxMediaCtrl2.mm Pages: 1 -->
<svg width="1387pt" height="204pt"
 viewBox="0.00 0.00 1386.62 204.25" xmlns="http://www.w3.org/2000/svg" xmlns:xlink="http://www.w3.org/1999/xlink">
<g id="graph0" class="graph" transform="scale(1 1) rotate(0) translate(4 200.25)">
<title>src/slic3r/GUI/wxMediaCtrl2.mm</title>
<!-- Node1 -->
<g id="Node000001" class="node">
<title>Node1</title>
<g id="a_Node000001"><a xlink:title=" ">
<polygon fill="#999999" stroke="#666666" points="412.88,-196.25 253.62,-196.25 253.62,-177 412.88,-177 412.88,-196.25"/>
<text text-anchor="middle" x="333.25" y="-182.75" font-family="Helvetica,sans-Serif" font-size="10.00">src/slic3r/GUI/wxMediaCtrl2.mm</text>
</a>
</g>
</g>
<!-- Node2 -->
<g id="Node000002" class="node">
<title>Node2</title>
<g id="a_Node000002"><a xlink:href="../../d6/d4a/wx_media_ctrl2_8h.html" target="_top" xlink:title=" ">
<polygon fill="white" stroke="#666666" points="99.38,-141 15.12,-141 15.12,-121.75 99.38,-121.75 99.38,-141"/>
<text text-anchor="middle" x="57.25" y="-127.5" font-family="Helvetica,sans-Serif" font-size="10.00">wxMediaCtrl2.h</text>
</a>
</g>
</g>
<!-- Node1&#45;&gt;Node2 -->
<g id="edge1_Node000001_Node000002" class="edge">
<title>Node1&#45;&gt;Node2</title>
<g id="a_edge1_Node000001_Node000002"><a xlink:title=" ">
<path fill="none" stroke="#63b8ff" d="M286.12,-176.53C237.35,-167.12 161.32,-152.45 110.43,-142.64"/>
<polygon fill="#63b8ff" stroke="#63b8ff" points="111.14,-139.02 100.66,-140.56 109.82,-145.89 111.14,-139.02"/>
</a>
</g>
</g>
<!-- Node4 -->
<g id="Node000004" class="node">
<title>Node4</title>
<g id="a_Node000004"><a xlink:title=" ">
<polygon fill="#e0e0e0" stroke="#999999" points="148.12,-80.12 68.38,-80.12 68.38,-60.88 148.12,-60.88 148.12,-80.12"/>
<text text-anchor="middle" x="108.25" y="-66.62" font-family="Helvetica,sans-Serif" font-size="10.00">wx/mediactrl.h</text>
</a>
</g>
</g>
<!-- Node1&#45;&gt;Node4 -->
<g id="edge4_Node000001_Node000004" class="edge">
<title>Node1&#45;&gt;Node4</title>
<g id="a_edge4_Node000001_Node000004"><a xlink:title=" ">
<path fill="none" stroke="#63b8ff" d="M253.31,-181.13C217.59,-175.67 176.75,-164.3 146.25,-141 129.72,-128.37 119.45,-106.4 113.82,-90.53"/>
<polygon fill="#63b8ff" stroke="#63b8ff" points="116.92,-89.73 110.52,-81.28 110.26,-91.88 116.92,-89.73"/>
</a>
</g>
</g>
<!-- Node5 -->
<g id="Node000005" class="node">
<title>Node5</title>
<g id="a_Node000005"><a xlink:title=" ">
<polygon fill="#e0e0e0" stroke="#999999" points="255.62,-141 154.88,-141 154.88,-121.75 255.62,-121.75 255.62,-141"/>
<text text-anchor="middle" x="205.25" y="-127.5" font-family="Helvetica,sans-Serif" font-size="10.00">boost/log/trivial.hpp</text>
</a>
</g>
</g>
<!-- Node1&#45;&gt;Node5 -->
<g id="edge5_Node000001_Node000005" class="edge">
<title>Node1&#45;&gt;Node5</title>
<g id="a_edge5_Node000001_Node000005"><a xlink:title=" ">
<path fill="none" stroke="#63b8ff" d="M311.54,-176.59C291.13,-168.1 260.33,-155.29 237.13,-145.64"/>
<polygon fill="#63b8ff" stroke="#63b8ff" points="238.65,-142.06 228.07,-141.45 235.96,-148.53 238.65,-142.06"/>
</a>
</g>
</g>
<!-- Node6 -->
<g id="Node000006" class="node">
<title>Node6</title>
<g id="a_Node000006"><a xlink:title=" ">
<polygon fill="#e0e0e0" stroke="#999999" points="289.88,-80.12 166.62,-80.12 166.62,-60.88 289.88,-60.88 289.88,-80.12"/>
<text text-anchor="middle" x="228.25" y="-66.62" font-family="Helvetica,sans-Serif" font-size="10.00">Foundation/Foundation.h</text>
</a>
</g>
</g>
<!-- Node1&#45;&gt;Node6 -->
<g id="edge6_Node000001_Node000006" class="edge">
<title>Node1&#45;&gt;Node6</title>
<g id="a_edge6_Node000001_Node000006"><a xlink:title=" ">
<path fill="none" stroke="#63b8ff" d="M325.01,-176.67C307.53,-157.67 266.48,-113.05 243.87,-88.48"/>
<polygon fill="#63b8ff" stroke="#63b8ff" points="246.8,-86.4 237.45,-81.41 241.65,-91.14 246.8,-86.4"/>
</a>
</g>
</g>
<!-- Node7 -->
<g id="Node000007" class="node">
<title>Node7</title>
<g id="a_Node000007"><a xlink:href="../../db/d5d/_bambu_player_8h.html" target="_top" xlink:title=" ">
<polygon fill="white" stroke="#666666" points="455,-141 311.5,-141 311.5,-121.75 455,-121.75 455,-141"/>
<text text-anchor="middle" x="383.25" y="-127.5" font-family="Helvetica,sans-Serif" font-size="10.00">BambuPlayer/BambuPlayer.h</text>
</a>
</g>
</g>
<!-- Node1&#45;&gt;Node7 -->
<g id="edge7_Node000001_Node000007" class="edge">
<title>Node1&#45;&gt;Node7</title>
<g id="a_edge7_Node000001_Node000007"><a xlink:title=" ">
<path fill="none" stroke="#63b8ff" d="M341.51,-176.83C348.56,-169.32 358.9,-158.31 367.52,-149.13"/>
<polygon fill="#63b8ff" stroke="#63b8ff" points="369.52,-152.05 373.81,-142.36 364.42,-147.25 369.52,-152.05"/>
</a>
</g>
</g>
<!-- Node10 -->
<g id="Node000010" class="node">
<title>Node10</title>
<g id="a_Node000010"><a xlink:href="../../d5/d40/_network_agent_8hpp.html" target="_top" xlink:title=" ">
<polygon fill="white" stroke="#666666" points="601.88,-141 472.62,-141 472.62,-121.75 601.88,-121.75 601.88,-141"/>
<text text-anchor="middle" x="537.25" y="-127.5" font-family="Helvetica,sans-Serif" font-size="10.00">../Utils/NetworkAgent.hpp</text>
</a>
</g>
</g>
<!-- Node1&#45;&gt;Node10 -->
<g id="edge11_Node000001_Node000010" class="edge">
<title>Node1&#45;&gt;Node10</title>
<g id="a_edge11_Node000001_Node000010"><a xlink:title=" ">
<path fill="none" stroke="#63b8ff" d="M367.86,-176.59C402,-167.68 454.38,-154.01 491.85,-144.23"/>
<polygon fill="#63b8ff" stroke="#63b8ff" points="492.68,-147.36 501.47,-141.45 490.91,-140.59 492.68,-147.36"/>
</a>
</g>
</g>
<!-- Node22 -->
<g id="Node000022" class="node">
<title>Node22</title>
<g id="a_Node000022"><a xlink:title=" ">
<polygon fill="#e0e0e0" stroke="#999999" points="667,-141 619.5,-141 619.5,-121.75 667,-121.75 667,-141"/>
<text text-anchor="middle" x="643.25" y="-127.5" font-family="Helvetica,sans-Serif" font-size="10.00">stdlib.h</text>
</a>
</g>
</g>
<!-- Node1&#45;&gt;Node22 -->
<g id="edge24_Node000001_Node000022" class="edge">
<title>Node1&#45;&gt;Node22</title>
<g id="a_edge24_Node000001_Node000022"><a xlink:title=" ">
<path fill="none" stroke="#63b8ff" d="M402.74,-176.52C456.67,-168.98 533.48,-157.23 608.61,-141.4"/>
<polygon fill="#63b8ff" stroke="#63b8ff" points="609.15,-144.65 618.2,-139.14 607.69,-137.81 609.15,-144.65"/>
</a>
</g>
</g>
<!-- Node23 -->
<g id="Node000023" class="node">
<title>Node23</title>
<g id="a_Node000023"><a xlink:title=" ">
<polygon fill="#e0e0e0" stroke="#999999" points="729.88,-141 684.62,-141 684.62,-121.75 729.88,-121.75 729.88,-141"/>
<text text-anchor="middle" x="707.25" y="-127.5" font-family="Helvetica,sans-Serif" font-size="10.00">dlfcn.h</text>
</a>
</g>
</g>
<!-- Node1&#45;&gt;Node23 -->
<g id="edge25_Node000001_Node000023" class="edge">
<title>Node1&#45;&gt;Node23</title>
<g id="a_edge25_Node000001_Node000023"><a xlink:title=" ">
<path fill="none" stroke="#63b8ff" d="M413.14,-178.47C480.47,-171.71 579.48,-160.02 673.74,-141.28"/>
<polygon fill="#63b8ff" stroke="#63b8ff" points="674.21,-144.56 683.32,-139.15 672.82,-137.7 674.21,-144.56"/>
</a>
</g>
</g>
<!-- Node3 -->
<g id="Node000003" class="node">
<title>Node3</title>
<g id="a_Node000003"><a xlink:title=" ">
<polygon fill="#e0e0e0" stroke="#999999" points="50.5,-80.12 0,-80.12 0,-60.88 50.5,-60.88 50.5,-80.12"/>
<text text-anchor="middle" x="25.25" y="-66.62" font-family="Helvetica,sans-Serif" font-size="10.00">wx/uri.h</text>
</a>
</g>
</g>
<!-- Node2&#45;&gt;Node3 -->
<g id="edge2_Node000002_Node000003" class="edge">
<title>Node2&#45;&gt;Node3</title>
<g id="a_edge2_Node000002_Node000003"><a xlink:title=" ">
<path fill="none" stroke="#63b8ff" d="M52.39,-121.43C47.88,-113.13 41.02,-100.52 35.33,-90.05"/>
<polygon fill="#63b8ff" stroke="#63b8ff" points="38.01,-88.64 30.16,-81.53 31.86,-91.98 38.01,-88.64"/>
</a>
</g>
</g>
<!-- Node2&#45;&gt;Node4 -->
<g id="edge3_Node000002_Node000004" class="edge">
<title>Node2&#45;&gt;Node4</title>
<g id="a_edge3_Node000002_Node000004"><a xlink:title=" ">
<path fill="none" stroke="#63b8ff" d="M65,-121.43C72.48,-112.79 84.03,-99.46 93.31,-88.75"/>
<polygon fill="#63b8ff" stroke="#63b8ff" points="96.53,-91.38 100.43,-81.53 91.24,-86.79 96.53,-91.38"/>
</a>
</g>
</g>
<!-- Node7&#45;&gt;Node6 -->
<g id="edge8_Node000007_Node000006" class="edge">
<title>Node7&#45;&gt;Node6</title>
<g id="a_edge8_Node000007_Node000006"><a xlink:title=" ">
<path fill="none" stroke="#63b8ff" d="M359.37,-121.3C333.43,-111.45 291.77,-95.63 262.38,-84.46"/>
<polygon fill="#63b8ff" stroke="#63b8ff" points="263.75,-80.86 253.16,-80.58 261.26,-87.4 263.75,-80.86"/>
</a>
</g>
</g>
<!-- Node8 -->
<g id="Node000008" class="node">
<title>Node8</title>
<g id="a_Node000008"><a xlink:title=" ">
<polygon fill="#e0e0e0" stroke="#999999" points="458.38,-85.75 308.12,-85.75 308.12,-55.25 458.38,-55.25 458.38,-85.75"/>
<text text-anchor="start" x="316.12" y="-72.25" font-family="Helvetica,sans-Serif" font-size="10.00">AVFoundation/AVSampleBuffer</text>
<text text-anchor="middle" x="383.25" y="-61" font-family="Helvetica,sans-Serif" font-size="10.00">DisplayLayer.h</text>
</a>
</g>
</g>
<!-- Node7&#45;&gt;Node8 -->
<g id="edge9_Node000007_Node000008" class="edge">
<title>Node7&#45;&gt;Node8</title>
<g id="a_edge9_Node000007_Node000008"><a xlink:title=" ">
<path fill="none" stroke="#63b8ff" d="M383.25,-121.43C383.25,-114.9 383.25,-105.7 383.25,-96.97"/>
<polygon fill="#63b8ff" stroke="#63b8ff" points="386.75,-97.03 383.25,-87.03 379.75,-97.03 386.75,-97.03"/>
</a>
</g>
</g>
<!-- Node9 -->
<g id="Node000009" class="node">
<title>Node9</title>
<g id="a_Node000009"><a xlink:title=" ">
<polygon fill="#e0e0e0" stroke="#999999" points="560.38,-80.12 476.12,-80.12 476.12,-60.88 560.38,-60.88 560.38,-80.12"/>
<text text-anchor="middle" x="518.25" y="-66.62" font-family="Helvetica,sans-Serif" font-size="10.00">Cocoa/Cocoa.h</text>
</a>
</g>
</g>
<!-- Node7&#45;&gt;Node9 -->
<g id="edge10_Node000007_Node000009" class="edge">
<title>Node7&#45;&gt;Node9</title>
<g id="a_edge10_Node000007_Node000009"><a xlink:title=" ">
<path fill="none" stroke="#63b8ff" d="M404.05,-121.3C426.41,-111.55 462.18,-95.95 487.73,-84.81"/>
<polygon fill="#63b8ff" stroke="#63b8ff" points="488.88,-87.69 496.65,-80.48 486.08,-81.27 488.88,-87.69"/>
</a>
</g>
</g>
<!-- Node11 -->
<g id="Node000011" class="node">
<title>Node11</title>
<g id="a_Node000011"><a xlink:href="../../dc/d82/bambu__networking_8hpp.html" target="_top" xlink:title=" ">
<polygon fill="white" stroke="#666666" points="694.5,-80.12 578,-80.12 578,-60.88 694.5,-60.88 694.5,-80.12"/>
<text text-anchor="middle" x="636.25" y="-66.62" font-family="Helvetica,sans-Serif" font-size="10.00">bambu_networking.hpp</text>
</a>
</g>
</g>
<!-- Node10&#45;&gt;Node11 -->
<g id="edge12_Node000010_Node000011" class="edge">
<title>Node10&#45;&gt;Node11</title>
<g id="a_edge12_Node000010_Node000011"><a xlink:title=" ">
<path fill="none" stroke="#63b8ff" d="M552.29,-121.43C568.06,-112.05 593.1,-97.16 611.74,-86.08"/>
<polygon fill="#63b8ff" stroke="#63b8ff" points="613.27,-88.65 620.07,-80.53 609.69,-82.63 613.27,-88.65"/>
</a>
</g>
</g>
<!-- Node14 -->
<g id="Node000014" class="node">
<title>Node14</title>
<g id="a_Node000014"><a xlink:href="../../d2/dbd/_project_task_8hpp.html" target="_top" xlink:title=" ">
<polygon fill="white" stroke="#666666" points="874.5,-80.12 752,-80.12 752,-60.88 874.5,-60.88 874.5,-80.12"/>
<text text-anchor="middle" x="813.25" y="-66.62" font-family="Helvetica,sans-Serif" font-size="10.00">libslic3r/ProjectTask.hpp</text>
</a>
</g>
</g>
<!-- Node10&#45;&gt;Node14 -->
<g id="edge15_Node000010_Node000014" class="edge">
<title>Node10&#45;&gt;Node14</title>
<g id="a_edge15_Node000010_Node000014"><a xlink:title=" ">
<path fill="none" stroke="#63b8ff" d="M579.77,-121.3C628.29,-110.95 707.71,-94.01 760.23,-82.81"/>
<polygon fill="#63b8ff" stroke="#63b8ff" points="760.63,-86.09 769.68,-80.58 759.17,-79.24 760.63,-86.09"/>
</a>
</g>
</g>
<!-- Node12 -->
<g id="Node000012" class="node">
<title>Node12</title>
<g id="a_Node000012"><a xlink:title=" ">
<polygon fill="#e0e0e0" stroke="#999999" points="656.25,-19.25 616.25,-19.25 616.25,0 656.25,0 656.25,-19.25"/>
<text text-anchor="middle" x="636.25" y="-5.75" font-family="Helvetica,sans-Serif" font-size="10.00">string</text>
</a>
</g>
</g>
<!-- Node11&#45;&gt;Node12 -->
<g id="edge13_Node000011_Node000012" class="edge">
<title>Node11&#45;&gt;Node12</title>
<g id="a_edge13_Node000011_Node000012"><a xlink:title=" ">
<path fill="none" stroke="#63b8ff" d="M636.25,-60.56C636.25,-52.6 636.25,-40.69 636.25,-30.49"/>
<polygon fill="#63b8ff" stroke="#63b8ff" points="639.75,-30.65 636.25,-20.65 632.75,-30.65 639.75,-30.65"/>
</a>
</g>
</g>
<!-- Node13 -->
<g id="Node000013" class="node">
<title>Node13</title>
<g id="a_Node000013"><a xlink:title=" ">
<polygon fill="#e0e0e0" stroke="#999999" points="598.25,-19.25 540.25,-19.25 540.25,0 598.25,0 598.25,-19.25"/>
<text text-anchor="middle" x="569.25" y="-5.75" font-family="Helvetica,sans-Serif" font-size="10.00">functional</text>
</a>
</g>
</g>
<!-- Node11&#45;&gt;Node13 -->
<g id="edge14_Node000011_Node000013" class="edge">
<title>Node11&#45;&gt;Node13</title>
<g id="a_edge14_Node000011_Node000013"><a xlink:title=" ">
<path fill="none" stroke="#63b8ff" d="M626.07,-60.56C615.84,-51.57 599.85,-37.51 587.43,-26.6"/>
<polygon fill="#63b8ff" stroke="#63b8ff" points="590.34,-23.62 580.52,-19.65 585.72,-28.88 590.34,-23.62"/>
</a>
</g>
</g>
<!-- Node14&#45;&gt;Node12 -->
<g id="edge18_Node000014_Node000012" class="edge">
<title>Node14&#45;&gt;Node12</title>
<g id="a_edge18_Node000014_Node000012"><a xlink:title=" ">
<path fill="none" stroke="#63b8ff" d="M785.98,-60.43C753.78,-49.72 700.37,-31.95 666.8,-20.79"/>
<polygon fill="#63b8ff" stroke="#63b8ff" points="668.24,-17.25 657.65,-17.41 666.04,-23.89 668.24,-17.25"/>
</a>
</g>
</g>
<!-- Node15 -->
<g id="Node000015" class="node">
<title>Node15</title>
<g id="a_Node000015"><a xlink:title=" ">
<polygon fill="#e0e0e0" stroke="#999999" points="708.62,-19.25 673.88,-19.25 673.88,0 708.62,0 708.62,-19.25"/>
<text text-anchor="middle" x="691.25" y="-5.75" font-family="Helvetica,sans-Serif" font-size="10.00">map</text>
</a>
</g>
</g>
<!-- Node14&#45;&gt;Node15 -->
<g id="edge16_Node000014_Node000015" class="edge">
<title>Node14&#45;&gt;Node15</title>
<g id="a_edge16_Node000014_Node000015"><a xlink:title=" ">
<path fill="none" stroke="#63b8ff" d="M794.45,-60.43C774.28,-50.7 742.04,-35.13 718.96,-24"/>
<polygon fill="#63b8ff" stroke="#63b8ff" points="720.6,-20.42 710.07,-19.23 717.56,-26.72 720.6,-20.42"/>
</a>
</g>
</g>
<!-- Node16 -->
<g id="Node000016" class="node">
<title>Node16</title>
<g id="a_Node000016"><a xlink:title=" ">
<polygon fill="#e0e0e0" stroke="#999999" points="769.75,-19.25 726.75,-19.25 726.75,0 769.75,0 769.75,-19.25"/>
<text text-anchor="middle" x="748.25" y="-5.75" font-family="Helvetica,sans-Serif" font-size="10.00">vector</text>
</a>
</g>
</g>
<!-- Node14&#45;&gt;Node16 -->
<g id="edge17_Node000014_Node000016" class="edge">
<title>Node14&#45;&gt;Node16</title>
<g id="a_edge17_Node000014_Node000016"><a xlink:title=" ">
<path fill="none" stroke="#63b8ff" d="M803.38,-60.56C793.55,-51.65 778.23,-37.78 766.24,-26.92"/>
<polygon fill="#63b8ff" stroke="#63b8ff" points="768.98,-24.77 759.22,-20.65 764.28,-29.96 768.98,-24.77"/>
</a>
</g>
</g>
<!-- Node17 -->
<g id="Node000017" class="node">
<title>Node17</title>
<g id="a_Node000017"><a xlink:title=" ">
<polygon fill="#e0e0e0" stroke="#999999" points="838.88,-19.25 787.62,-19.25 787.62,0 838.88,0 838.88,-19.25"/>
<text text-anchor="middle" x="813.25" y="-5.75" font-family="Helvetica,sans-Serif" font-size="10.00">memory</text>
</a>
</g>
</g>
<!-- Node14&#45;&gt;Node17 -->
<g id="edge19_Node000014_Node000017" class="edge">
<title>Node14&#45;&gt;Node17</title>
<g id="a_edge19_Node000014_Node000017"><a xlink:title=" ">
<path fill="none" stroke="#63b8ff" d="M813.25,-60.56C813.25,-52.6 813.25,-40.69 813.25,-30.49"/>
<polygon fill="#63b8ff" stroke="#63b8ff" points="816.75,-30.65 813.25,-20.65 809.75,-30.65 816.75,-30.65"/>
</a>
</g>
</g>
<!-- Node18 -->
<g id="Node000018" class="node">
<title>Node18</title>
<g id="a_Node000018"><a xlink:title=" ">
<polygon fill="#e0e0e0" stroke="#999999" points="945.62,-19.25 856.88,-19.25 856.88,0 945.62,0 945.62,-19.25"/>
<text text-anchor="middle" x="901.25" y="-5.75" font-family="Helvetica,sans-Serif" font-size="10.00">boost/thread.hpp</text>
</a>
</g>
</g>
<!-- Node14&#45;&gt;Node18 -->
<g id="edge20_Node000014_Node000018" class="edge">
<title>Node14&#45;&gt;Node18</title>
<g id="a_edge20_Node000014_Node000018"><a xlink:title=" ">
<path fill="none" stroke="#63b8ff" d="M826.62,-60.56C840.44,-51.31 862.28,-36.7 878.77,-25.67"/>
<polygon fill="#63b8ff" stroke="#63b8ff" points="880.39,-28.12 886.76,-19.65 876.5,-22.3 880.39,-28.12"/>
</a>
</g>
</g>
<!-- Node19 -->
<g id="Node000019" class="node">
<title>Node19</title>
<g id="a_Node000019"><a xlink:title=" ">
<polygon fill="#e0e0e0" stroke="#999999" points="1106.62,-19.25 963.88,-19.25 963.88,0 1106.62,0 1106.62,-19.25"/>
<text text-anchor="middle" x="1035.25" y="-5.75" font-family="Helvetica,sans-Serif" font-size="10.00">boost/filesystem/fstream.hpp</text>
</a>
</g>
</g>
<!-- Node14&#45;&gt;Node19 -->
<g id="edge21_Node000014_Node000019" class="edge">
<title>Node14&#45;&gt;Node19</title>
<g id="a_edge21_Node000014_Node000019"><a xlink:title=" ">
<path fill="none" stroke="#63b8ff" d="M847.45,-60.43C885.83,-50.25 948.23,-33.7 990.47,-22.5"/>
<polygon fill="#63b8ff" stroke="#63b8ff" points="991.24,-25.65 1000.01,-19.71 989.45,-18.89 991.24,-25.65"/>
</a>
</g>
</g>
<!-- Node20 -->
<g id="Node000020" class="node">
<title>Node20</title>
<g id="a_Node000020"><a xlink:title=" ">
<polygon fill="#e0e0e0" stroke="#999999" points="1253.5,-19.25 1125,-19.25 1125,0 1253.5,0 1253.5,-19.25"/>
<text text-anchor="middle" x="1189.25" y="-5.75" font-family="Helvetica,sans-Serif" font-size="10.00">boost/filesystem/path.hpp</text>
</a>
</g>
</g>
<!-- Node14&#45;&gt;Node20 -->
<g id="edge22_Node000014_Node000020" class="edge">
<title>Node14&#45;&gt;Node20</title>
<g id="a_edge22_Node000014_Node000020"><a xlink:title=" ">
<path fill="none" stroke="#63b8ff" d="M871.18,-60.43C938.38,-49.91 1049.09,-32.57 1120.57,-21.38"/>
<polygon fill="#63b8ff" stroke="#63b8ff" points="1120.92,-24.71 1130.26,-19.71 1119.84,-17.79 1120.92,-24.71"/>
</a>
</g>
</g>
<!-- Node21 -->
<g id="Node000021" class="node">
<title>Node21</title>
<g id="a_Node000021"><a xlink:title=" ">
<polygon fill="#e0e0e0" stroke="#999999" points="1378.62,-19.25 1271.88,-19.25 1271.88,0 1378.62,0 1378.62,-19.25"/>
<text text-anchor="middle" x="1325.25" y="-5.75" font-family="Helvetica,sans-Serif" font-size="10.00">boost/filesystem.hpp</text>
</a>
</g>
</g>
<!-- Node14&#45;&gt;Node21 -->
<g id="edge23_Node000014_Node000021" class="edge">
<title>Node14&#45;&gt;Node21</title>
<g id="a_edge23_Node000014_Node000021"><a xlink:title=" ">
<path fill="none" stroke="#63b8ff" d="M874.68,-63.11C959.09,-54.22 1115.99,-37.31 1260.8,-19.4"/>
<polygon fill="#63b8ff" stroke="#63b8ff" points="1261.15,-22.76 1270.65,-18.06 1260.29,-15.81 1261.15,-22.76"/>
</a>
</g>
</g>
</g>
</svg>
