<?xml version="1.0" encoding="UTF-8" standalone="no"?>
<!DOCTYPE svg PUBLIC "-//W3C//DTD SVG 1.1//EN"
 "http://www.w3.org/Graphics/SVG/1.1/DTD/svg11.dtd">
<!-- Generated by graphviz version 8.1.0 (20230707.0739)
 -->
<!-- Title: Slic3r::GUI::PartPlateList::BedTextureInfo Pages: 1 -->
<!--zoomable 513 -->

<svg id="main" version="1.1" xmlns="http://www.w3.org/2000/svg" xmlns:xlink="http://www.w3.org/1999/xlink" xml:space="preserve" onload="init(evt)">
<style type="text/css"><![CDATA[
.node, .edge {opacity: 0.7;}
.node.selected, .edge.selected {opacity: 1;}
.edge:hover path { stroke: red; }
.edge:hover polygon { stroke: red; fill: red; }
]]></style>

<defs>
  <circle id="rim" cx="0" cy="0" r="7"/>
  <circle id="rim2" cx="0" cy="0" r="3.5"/>
  <g id="zoomPlus">
    <use xlink:href="#rim" fill="#404040"><set attributeName="fill" to="#808080" begin="zoomplus.mouseover" end="zoomplus.mouseout"/></use>
    <path d="M-4,0h8M0,-4v8" fill="none" stroke="white" stroke-width="1.5" pointer-events="none"/>
  </g>
  <g id="zoomMin">
    <use xlink:href="#rim" fill="#404040"><set attributeName="fill" to="#808080" begin="zoomminus.mouseover" end="zoomminus.mouseout"/></use>
    <path d="M-4,0h8" fill="none" stroke="white" stroke-width="1.5" pointer-events="none"/>
  </g>
  <g id="arrowUp" transform="translate(30 24)">
    <use xlink:href="#rim"/>
    <path pointer-events="none" fill="none" stroke="white" stroke-width="1.5" d="M0,-3.0v7 M-2.5,-0.5L0,-3.0L2.5,-0.5"/>
  </g>
  <g id="arrowRight" transform="rotate(90) translate(36 -43)">
    <use xlink:href="#rim"/>
    <path pointer-events="none" fill="none" stroke="white" stroke-width="1.5" d="M0,-3.0v7 M-2.5,-0.5L0,-3.0L2.5,-0.5"/>
  </g>
  <g id="arrowDown" transform="rotate(180) translate(-30 -48)">
    <use xlink:href="#rim"/>
    <path pointer-events="none" fill="none" stroke="white" stroke-width="1.5" d="M0,-3.0v7 M-2.5,-0.5L0,-3.0L2.5,-0.5"/>
  </g>
  <g id="arrowLeft" transform="rotate(270) translate(-36 17)">
    <use xlink:href="#rim"/>
    <path pointer-events="none" fill="none" stroke="white" stroke-width="1.5" d="M0,-3.0v7 M-2.5,-0.5L0,-3.0L2.5,-0.5"/>
  </g>
  <g id="resetDef">
    <use xlink:href="#rim2" fill="#404040"><set attributeName="fill" to="#808080" begin="reset.mouseover" end="reset.mouseout"/></use>
  </g>
</defs>
<script type="application/ecmascript">
var viewWidth = 1776;
var viewHeight = 513;
var sectionId = 'dynsection-2';
</script>
<script type="application/ecmascript" xlink:href="../../svg.min.js"/>
<svg id="graph" class="graph">
<g id="viewport">
<title>Slic3r::GUI::PartPlateList::BedTextureInfo</title>
<!-- Node1 -->
<g id="Node000001" class="node">
<title>Node1</title>
<g id="a_Node000001"><a xlink:title=" ">
<polygon fill="#999999" stroke="#666666" points="1768.25,-235.75 1641.25,-235.75 1641.25,-205.25 1768.25,-205.25 1768.25,-235.75"/>
<text text-anchor="start" x="1649.25" y="-222.25" font-family="Helvetica,sans-Serif" font-size="10.00">Slic3r::GUI::PartPlateList</text>
<text text-anchor="middle" x="1704.75" y="-211" font-family="Helvetica,sans-Serif" font-size="10.00">::BedTextureInfo</text>
</a>
</g>
</g>
<!-- Node2 -->
<g id="Node000002" class="node">
<title>Node2</title>
<g id="a_Node000002"><a xlink:title=" ">
<polygon fill="white" stroke="#666666" points="1580.5,-241.38 1427.25,-241.38 1427.25,-199.62 1580.5,-199.62 1580.5,-241.38"/>
<text text-anchor="start" x="1435.25" y="-227.88" font-family="Helvetica,sans-Serif" font-size="10.00">std::vector&lt; Slic3r</text>
<text text-anchor="start" x="1435.25" y="-216.62" font-family="Helvetica,sans-Serif" font-size="10.00">::GUI::PartPlateList</text>
<text text-anchor="middle" x="1503.88" y="-205.38" font-family="Helvetica,sans-Serif" font-size="10.00">::BedTextureInfo::TexturePart &gt;</text>
</a>
</g>
</g>
<!-- Node2&#45;&gt;Node1 -->
<g id="edge1_Node000001_Node000002" class="edge">
<title>Node2&#45;&gt;Node1</title>
<g id="a_edge1_Node000001_Node000002"><a xlink:title=" ">
<path fill="none" stroke="#9a32cd" stroke-dasharray="5,2" d="M1591.72,-220.5C1608.3,-220.5 1625.35,-220.5 1641,-220.5"/>
<polygon fill="#9a32cd" stroke="#9a32cd" points="1591.91,-217 1581.91,-220.5 1591.91,-224 1591.91,-217"/>
</a>
</g>
<text text-anchor="middle" x="1610.88" y="-222.25" font-family="Helvetica,sans-Serif" font-size="10.00" fill="grey"> parts</text>
</g>
<!-- Node3 -->
<g id="Node000003" class="node">
<title>Node3</title>
<g id="a_Node000003"><a xlink:href="../../d7/df5/class_slic3r_1_1_g_u_i_1_1_part_plate_list_1_1_bed_texture_info_1_1_texture_part.html" target="_top" xlink:title=" ">
<polygon fill="white" stroke="#666666" points="1348.5,-205.75 1204.25,-205.75 1204.25,-175.25 1348.5,-175.25 1348.5,-205.75"/>
<text text-anchor="start" x="1212.25" y="-192.25" font-family="Helvetica,sans-Serif" font-size="10.00">Slic3r::GUI::PartPlateList</text>
<text text-anchor="middle" x="1276.38" y="-181" font-family="Helvetica,sans-Serif" font-size="10.00">::BedTextureInfo::TexturePart</text>
</a>
</g>
</g>
<!-- Node3&#45;&gt;Node2 -->
<g id="edge2_Node000002_Node000003" class="edge">
<title>Node3&#45;&gt;Node2</title>
<g id="a_edge2_Node000002_Node000003"><a xlink:title=" ">
<path fill="none" stroke="#9a32cd" stroke-dasharray="5,2" d="M1359.4,-201.41C1381.46,-204.35 1405.21,-207.51 1426.92,-210.4"/>
<polygon fill="#9a32cd" stroke="#9a32cd" points="1360.1,-197.84 1349.72,-199.99 1359.18,-204.78 1360.1,-197.84"/>
</a>
</g>
<text text-anchor="middle" x="1387.88" y="-208.25" font-family="Helvetica,sans-Serif" font-size="10.00" fill="grey"> elements</text>
</g>
<!-- Node4 -->
<g id="Node000004" class="node">
<title>Node4</title>
<g id="a_Node000004"><a xlink:title=" ">
<polygon fill="white" stroke="#666666" points="682.88,-201.12 623.38,-201.12 623.38,-181.88 682.88,-181.88 682.88,-201.12"/>
<text text-anchor="middle" x="653.12" y="-187.62" font-family="Helvetica,sans-Serif" font-size="10.00">std::string</text>
</a>
</g>
</g>
<!-- Node4&#45;&gt;Node3 -->
<g id="edge3_Node000003_Node000004" class="edge">
<title>Node4&#45;&gt;Node3</title>
<g id="a_edge3_Node000003_Node000004"><a xlink:title=" ">
<path fill="none" stroke="#9a32cd" stroke-dasharray="5,2" d="M694.09,-191.44C797.07,-191.27 1072.55,-190.83 1203.86,-190.62"/>
<polygon fill="#9a32cd" stroke="#9a32cd" points="694.25,-187.94 684.26,-191.45 694.26,-194.94 694.25,-187.94"/>
</a>
</g>
<text text-anchor="middle" x="973.88" y="-192.25" font-family="Helvetica,sans-Serif" font-size="10.00" fill="grey"> filename</text>
</g>
<!-- Node6 -->
<g id="Node000006" class="node">
<title>Node6</title>
<g id="a_Node000006"><a xlink:href="../../db/d45/class_slic3r_1_1_g_u_i_1_1_g_l_texture.html" target="_top" xlink:title=" ">
<polygon fill="white" stroke="#666666" points="1031.75,-326.12 916,-326.12 916,-306.88 1031.75,-306.88 1031.75,-326.12"/>
<text text-anchor="middle" x="973.88" y="-312.62" font-family="Helvetica,sans-Serif" font-size="10.00">Slic3r::GUI::GLTexture</text>
</a>
</g>
</g>
<!-- Node4&#45;&gt;Node6 -->
<g id="edge8_Node000006_Node000004" class="edge">
<title>Node4&#45;&gt;Node6</title>
<g id="a_edge8_Node000006_Node000004"><a xlink:title=" ">
<path fill="none" stroke="#9a32cd" stroke-dasharray="5,2" d="M694.01,-196.56C752.35,-204.67 857.14,-222.16 886,-246.25 901.36,-259.07 889.76,-273.45 904,-287.5 912.59,-295.98 924.02,-302.12 935.11,-306.51"/>
<polygon fill="#9a32cd" stroke="#9a32cd" points="694.73,-192.99 684.35,-195.11 693.78,-199.93 694.73,-192.99"/>
</a>
</g>
<text text-anchor="middle" x="810.88" y="-247.25" font-family="Helvetica,sans-Serif" font-size="10.00" fill="grey"> m_source</text>
</g>
<!-- Node5 -->
<g id="Node000005" class="node">
<title>Node5</title>
<g id="a_Node000005"><a xlink:title=" ">
<polygon fill="white" stroke="#666666" points="389.75,-199.75 295.75,-199.75 295.75,-169.25 389.75,-169.25 389.75,-199.75"/>
<text text-anchor="start" x="303.75" y="-186.25" font-family="Helvetica,sans-Serif" font-size="10.00">std::basic_string&lt;</text>
<text text-anchor="middle" x="342.75" y="-175" font-family="Helvetica,sans-Serif" font-size="10.00"> Char &gt;</text>
</a>
</g>
</g>
<!-- Node5&#45;&gt;Node4 -->
<g id="edge4_Node000004_Node000005" class="edge">
<title>Node5&#45;&gt;Node4</title>
<g id="a_edge4_Node000004_Node000005"><a xlink:title=" ">
<path fill="none" stroke="#63b8ff" d="M400.53,-185.79C466.42,-187.28 572.49,-189.69 623.25,-190.84"/>
<polygon fill="#63b8ff" stroke="#63b8ff" points="400.99,-182.28 390.92,-185.55 400.83,-189.27 400.99,-182.28"/>
</a>
</g>
</g>
<!-- Node6&#45;&gt;Node3 -->
<g id="edge5_Node000003_Node000006" class="edge">
<title>Node6&#45;&gt;Node3</title>
<g id="a_edge5_Node000003_Node000006"><a xlink:title=" ">
<path fill="none" stroke="#9a32cd" stroke-dasharray="5,2" d="M1008.87,-302.25C1065.61,-278.46 1179.18,-230.83 1238.06,-206.15"/>
<polygon fill="#9a32cd" stroke="#9a32cd" points="1007.83,-299.31 999.96,-306.4 1010.53,-305.76 1007.83,-299.31"/>
</a>
</g>
<text text-anchor="middle" x="1124" y="-280.25" font-family="Helvetica,sans-Serif" font-size="10.00" fill="grey"> texture</text>
</g>
<!-- Node9 -->
<g id="Node000009" class="node">
<title>Node9</title>
<g id="a_Node000009"><a xlink:href="../../dc/d08/class_slic3r_1_1_g_u_i_1_1_g_l_texture_1_1_compressor.html" target="_top" xlink:title=" ">
<polygon fill="white" stroke="#666666" points="1334.25,-410.75 1218.5,-410.75 1218.5,-380.25 1334.25,-380.25 1334.25,-410.75"/>
<text text-anchor="start" x="1226.5" y="-397.25" font-family="Helvetica,sans-Serif" font-size="10.00">Slic3r::GUI::GLTexture</text>
<text text-anchor="middle" x="1276.38" y="-386" font-family="Helvetica,sans-Serif" font-size="10.00">::Compressor</text>
</a>
</g>
</g>
<!-- Node6&#45;&gt;Node9 -->
<g id="edge10_Node000009_Node000006" class="edge">
<title>Node6&#45;&gt;Node9</title>
<g id="a_edge10_Node000009_Node000006"><a xlink:title=" ">
<path fill="none" stroke="#9a32cd" stroke-dasharray="5,2" d="M1034.38,-304.86C1077.91,-299 1137.61,-296.58 1186.25,-315.25 1220.07,-328.23 1249.09,-360.64 1264.21,-380.07"/>
<polygon fill="#9a32cd" stroke="#9a32cd" points="1034.07,-301.52 1024.68,-306.42 1035.08,-308.44 1034.07,-301.52"/>
</a>
</g>
<text text-anchor="middle" x="1124" y="-316.25" font-family="Helvetica,sans-Serif" font-size="10.00" fill="grey"> m_texture</text>
</g>
<!-- Node7 -->
<g id="Node000007" class="node">
<title>Node7</title>
<g id="a_Node000007"><a xlink:href="../../db/d45/class_slic3r_1_1_g_u_i_1_1_g_l_texture.html#d8/da1/struct_slic3r_1_1_g_u_i_1_1_g_l_texture_1_1_quad___u_vs" target="_top" xlink:title=" ">
<polygon fill="white" stroke="#666666" points="711,-347.75 595.25,-347.75 595.25,-317.25 711,-317.25 711,-347.75"/>
<text text-anchor="start" x="603.25" y="-334.25" font-family="Helvetica,sans-Serif" font-size="10.00">Slic3r::GUI::GLTexture</text>
<text text-anchor="middle" x="653.12" y="-323" font-family="Helvetica,sans-Serif" font-size="10.00">::Quad_UVs</text>
</a>
</g>
</g>
<!-- Node7&#45;&gt;Node6 -->
<g id="edge6_Node000006_Node000007" class="edge">
<title>Node7&#45;&gt;Node6</title>
<g id="a_edge6_Node000006_Node000007"><a xlink:title=" ">
<path fill="none" stroke="#9a32cd" stroke-dasharray="5,2" d="M722.3,-329.08C779.91,-326.19 861.47,-322.09 915.71,-319.37"/>
<polygon fill="#9a32cd" stroke="#9a32cd" points="722.29,-325.62 712.48,-329.62 722.64,-332.62 722.29,-325.62"/>
</a>
</g>
<text text-anchor="middle" x="810.88" y="-329.25" font-family="Helvetica,sans-Serif" font-size="10.00" fill="grey"> FullTextureUVs</text>
</g>
<!-- Node8 -->
<g id="Node000008" class="node">
<title>Node8</title>
<g id="a_Node000008"><a xlink:href="../../db/d45/class_slic3r_1_1_g_u_i_1_1_g_l_texture.html#d4/d88/struct_slic3r_1_1_g_u_i_1_1_g_l_texture_1_1_u_v" target="_top" xlink:title=" ">
<polygon fill="white" stroke="#666666" points="410.75,-343.12 274.75,-343.12 274.75,-323.88 410.75,-323.88 410.75,-343.12"/>
<text text-anchor="middle" x="342.75" y="-329.62" font-family="Helvetica,sans-Serif" font-size="10.00">Slic3r::GUI::GLTexture::UV</text>
</a>
</g>
</g>
<!-- Node8&#45;&gt;Node7 -->
<g id="edge7_Node000007_Node000008" class="edge">
<title>Node8&#45;&gt;Node7</title>
<g id="a_edge7_Node000007_Node000008"><a xlink:title=" ">
<path fill="none" stroke="#9a32cd" stroke-dasharray="5,2" d="M421.93,-333.25C475.78,-333.07 546.13,-332.84 594.81,-332.69"/>
<polygon fill="#9a32cd" stroke="#9a32cd" points="422.03,-329.75 412.04,-333.28 422.05,-336.75 422.03,-329.75"/>
</a>
</g>
<text text-anchor="middle" x="502.62" y="-368" font-family="Helvetica,sans-Serif" font-size="10.00" fill="grey"> left_bottom</text>
<text text-anchor="middle" x="502.62" y="-356.75" font-family="Helvetica,sans-Serif" font-size="10.00" fill="grey">left_top</text>
<text text-anchor="middle" x="502.62" y="-345.5" font-family="Helvetica,sans-Serif" font-size="10.00" fill="grey">right_bottom</text>
<text text-anchor="middle" x="502.62" y="-334.25" font-family="Helvetica,sans-Serif" font-size="10.00" fill="grey">right_top</text>
</g>
<!-- Node9&#45;&gt;Node6 -->
<g id="edge9_Node000006_Node000009" class="edge">
<title>Node9&#45;&gt;Node6</title>
<g id="a_edge9_Node000006_Node000009"><a xlink:title=" ">
<path fill="none" stroke="#9a32cd" stroke-dasharray="5,2" d="M1239.54,-374.65C1223.67,-366.23 1204.5,-357.13 1186.25,-351.25 1171.78,-346.59 1089.57,-333.7 1032.06,-325.01"/>
<polygon fill="#9a32cd" stroke="#9a32cd" points="1237.5,-378.07 1247.95,-379.77 1240.84,-371.92 1237.5,-378.07"/>
</a>
</g>
<text text-anchor="middle" x="1124" y="-352.25" font-family="Helvetica,sans-Serif" font-size="10.00" fill="grey"> m_compressor</text>
</g>
<!-- Node10 -->
<g id="Node000010" class="node">
<title>Node10</title>
<g id="a_Node000010"><a xlink:title=" ">
<polygon fill="#fff0f0" stroke="red" points="886,-308.38 735.75,-308.38 735.75,-266.62 886,-266.62 886,-308.38"/>
<text text-anchor="start" x="743.75" y="-294.88" font-family="Helvetica,sans-Serif" font-size="10.00">std::vector&lt; Slic3r</text>
<text text-anchor="start" x="743.75" y="-283.62" font-family="Helvetica,sans-Serif" font-size="10.00">::GUI::GLTexture::Compressor</text>
<text text-anchor="middle" x="810.88" y="-272.38" font-family="Helvetica,sans-Serif" font-size="10.00">::Level &gt;</text>
</a>
</g>
</g>
<!-- Node10&#45;&gt;Node9 -->
<g id="edge11_Node000009_Node000010" class="edge">
<title>Node10&#45;&gt;Node9</title>
<g id="a_edge11_Node000009_Node000010"><a xlink:title=" ">
<path fill="none" stroke="#9a32cd" stroke-dasharray="5,2" d="M882.05,-313.96C883.39,-314.78 884.71,-315.63 886,-316.5 895.65,-323 893.74,-330.02 904,-335.5 957.35,-364.02 1127.96,-382.68 1218.18,-390.82"/>
<polygon fill="#9a32cd" stroke="#9a32cd" points="884.3,-310.65 873.87,-308.78 880.87,-316.74 884.3,-310.65"/>
</a>
</g>
<text text-anchor="middle" x="973.88" y="-370.25" font-family="Helvetica,sans-Serif" font-size="10.00" fill="grey"> m_levels</text>
</g>
<!-- Node13 -->
<g id="Node000013" class="node">
<title>Node13</title>
<g id="a_Node000013"><a xlink:title=" ">
<polygon fill="#fff0f0" stroke="red" points="386,-259.12 299.5,-259.12 299.5,-239.88 386,-239.88 386,-259.12"/>
<text text-anchor="middle" x="342.75" y="-245.62" font-family="Helvetica,sans-Serif" font-size="10.00">std::vector&lt; T &gt;</text>
</a>
</g>
</g>
<!-- Node13&#45;&gt;Node2 -->
<g id="edge27_Node000002_Node000013" class="edge">
<title>Node13&#45;&gt;Node2</title>
<g id="a_edge27_Node000002_Node000013"><a xlink:title=" ">
<path fill="none" stroke="orange" stroke-dasharray="5,2" d="M397.38,-249.5C458.9,-249.5 562.79,-249.5 652.12,-249.5 652.12,-249.5 652.12,-249.5 1277.38,-249.5 1327.5,-249.5 1383.39,-242.36 1426.99,-235.17"/>
<polygon fill="orange" stroke="orange" points="397.4,-246 387.4,-249.5 397.4,-253 397.4,-246"/>
</a>
</g>
<text text-anchor="start" x="920.25" y="-273.75" font-family="Helvetica,sans-Serif" font-size="10.00" fill="grey"> &lt; Slic3r::GUI::PartPlate</text>
<text text-anchor="start" x="920.25" y="-262.5" font-family="Helvetica,sans-Serif" font-size="10.00" fill="grey">List::BedTextureInfo::</text>
<text text-anchor="middle" x="973.88" y="-251.25" font-family="Helvetica,sans-Serif" font-size="10.00" fill="grey">TexturePart &gt;</text>
</g>
<!-- Node13&#45;&gt;Node10 -->
<g id="edge12_Node000010_Node000013" class="edge">
<title>Node13&#45;&gt;Node10</title>
<g id="a_edge12_Node000010_Node000013"><a xlink:title=" ">
<path fill="none" stroke="orange" stroke-dasharray="5,2" d="M396.89,-258.49C409.29,-260.36 422.46,-262.16 434.75,-263.5 538.72,-274.8 659.51,-281.36 735.33,-284.68"/>
<polygon fill="orange" stroke="orange" points="397.66,-254.91 387.24,-256.84 396.59,-261.83 397.66,-254.91"/>
</a>
</g>
<text text-anchor="start" x="446.75" y="-287.5" font-family="Helvetica,sans-Serif" font-size="10.00" fill="grey"> &lt; Slic3r::GUI::GLTexture</text>
<text text-anchor="middle" x="502.62" y="-276.25" font-family="Helvetica,sans-Serif" font-size="10.00" fill="grey">::Compressor::Level &gt;</text>
</g>
<!-- Node32 -->
<g id="Node000032" class="node">
<title>Node32</title>
<g id="a_Node000032"><a xlink:title=" ">
<polygon fill="white" stroke="#666666" points="710.62,-163.38 595.62,-163.38 595.62,-121.62 710.62,-121.62 710.62,-163.38"/>
<text text-anchor="start" x="603.62" y="-149.88" font-family="Helvetica,sans-Serif" font-size="10.00">std::vector&lt; Slic3r</text>
<text text-anchor="start" x="603.62" y="-138.62" font-family="Helvetica,sans-Serif" font-size="10.00">::GUI::GeometryBuffer</text>
<text text-anchor="middle" x="653.12" y="-127.38" font-family="Helvetica,sans-Serif" font-size="10.00">::Vertex &gt;</text>
</a>
</g>
</g>
<!-- Node13&#45;&gt;Node32 -->
<g id="edge26_Node000032_Node000013" class="edge">
<title>Node13&#45;&gt;Node32</title>
<g id="a_edge26_Node000032_Node000013"><a xlink:title=" ">
<path fill="none" stroke="orange" stroke-dasharray="5,2" d="M377.57,-235.3C394.61,-228.31 415.66,-219.91 434.75,-213 488.84,-193.41 551.39,-173.39 595.47,-159.72"/>
<polygon fill="orange" stroke="orange" points="376.44,-232.39 368.53,-239.45 379.11,-238.86 376.44,-232.39"/>
</a>
</g>
<text text-anchor="start" x="434.75" y="-225.5" font-family="Helvetica,sans-Serif" font-size="10.00" fill="grey"> &lt; Slic3r::GUI::GeometryBuffer</text>
<text text-anchor="middle" x="502.62" y="-214.25" font-family="Helvetica,sans-Serif" font-size="10.00" fill="grey">::Vertex &gt;</text>
</g>
<!-- Node15 -->
<g id="Node000015" class="node">
<title>Node15</title>
<g id="a_Node000015"><a xlink:title=" ">
<polygon fill="white" stroke="#666666" points="1005.12,-505.12 942.62,-505.12 942.62,-485.88 1005.12,-485.88 1005.12,-505.12"/>
<text text-anchor="middle" x="973.88" y="-491.62" font-family="Helvetica,sans-Serif" font-size="10.00">std::thread</text>
</a>
</g>
</g>
<!-- Node15&#45;&gt;Node9 -->
<g id="edge13_Node000009_Node000015" class="edge">
<title>Node15&#45;&gt;Node9</title>
<g id="a_edge13_Node000009_Node000015"><a xlink:title=" ">
<path fill="none" stroke="#9a32cd" stroke-dasharray="5,2" d="M1016.33,-494.6C1060.14,-492.35 1130.47,-484.98 1186.25,-461.5 1214.82,-449.47 1242.71,-426.47 1259.47,-411.05"/>
<polygon fill="#9a32cd" stroke="#9a32cd" points="1016.35,-491.14 1006.52,-495.08 1016.66,-498.13 1016.35,-491.14"/>
</a>
</g>
<text text-anchor="middle" x="1124" y="-492.25" font-family="Helvetica,sans-Serif" font-size="10.00" fill="grey"> m_thread</text>
</g>
<!-- Node16 -->
<g id="Node000016" class="node">
<title>Node16</title>
<g id="a_Node000016"><a xlink:title=" ">
<polygon fill="#fff0f0" stroke="red" points="1024.25,-468.12 923.5,-468.12 923.5,-448.88 1024.25,-448.88 1024.25,-468.12"/>
<text text-anchor="middle" x="973.88" y="-454.62" font-family="Helvetica,sans-Serif" font-size="10.00">std::atomic&lt; bool &gt;</text>
</a>
</g>
</g>
<!-- Node16&#45;&gt;Node9 -->
<g id="edge14_Node000009_Node000016" class="edge">
<title>Node16&#45;&gt;Node9</title>
<g id="a_edge14_Node000009_Node000016"><a xlink:title=" ">
<path fill="none" stroke="#9a32cd" stroke-dasharray="5,2" d="M1035.17,-451.33C1077.72,-445.66 1135.9,-436.66 1186.25,-424.5 1201.28,-420.87 1217.42,-415.94 1231.79,-411.18"/>
<polygon fill="#9a32cd" stroke="#9a32cd" points="1034.88,-447.97 1025.42,-452.74 1035.79,-454.91 1034.88,-447.97"/>
</a>
</g>
<text text-anchor="middle" x="1124" y="-448.25" font-family="Helvetica,sans-Serif" font-size="10.00" fill="grey"> m_abort_compressing</text>
</g>
<!-- Node18 -->
<g id="Node000018" class="node">
<title>Node18</title>
<g id="a_Node000018"><a xlink:title=" ">
<polygon fill="#fff0f0" stroke="red" points="1030.25,-430.75 917.5,-430.75 917.5,-400.25 1030.25,-400.25 1030.25,-430.75"/>
<text text-anchor="start" x="925.5" y="-417.25" font-family="Helvetica,sans-Serif" font-size="10.00">std::atomic&lt; unsigned</text>
<text text-anchor="middle" x="973.88" y="-406" font-family="Helvetica,sans-Serif" font-size="10.00"> int &gt;</text>
</a>
</g>
</g>
<!-- Node18&#45;&gt;Node9 -->
<g id="edge15_Node000009_Node000018" class="edge">
<title>Node18&#45;&gt;Node9</title>
<g id="a_edge15_Node000009_Node000018"><a xlink:title=" ">
<path fill="none" stroke="#9a32cd" stroke-dasharray="5,2" d="M1041.67,-411.05C1094.6,-407.53 1167.77,-402.66 1218.07,-399.31"/>
<polygon fill="#9a32cd" stroke="#9a32cd" points="1041.44,-407.63 1031.69,-411.79 1041.9,-414.61 1041.44,-407.63"/>
</a>
</g>
<text text-anchor="middle" x="1124" y="-411.25" font-family="Helvetica,sans-Serif" font-size="10.00" fill="grey"> m_num_levels_compressed</text>
</g>
<!-- Node19 -->
<g id="Node000019" class="node">
<title>Node19</title>
<g id="a_Node000019"><a xlink:href="../../d2/d2d/class_eigen_1_1_matrix.html" target="_top" xlink:title=" ">
<polygon fill="white" stroke="#666666" points="1035.88,-101.75 911.88,-101.75 911.88,-71.25 1035.88,-71.25 1035.88,-101.75"/>
<text text-anchor="start" x="919.88" y="-88.25" font-family="Helvetica,sans-Serif" font-size="10.00">Eigen::Matrix&lt; double,</text>
<text text-anchor="middle" x="973.88" y="-77" font-family="Helvetica,sans-Serif" font-size="10.00"> 2, 1, Eigen::DontAlign &gt;</text>
</a>
</g>
</g>
<!-- Node19&#45;&gt;Node3 -->
<g id="edge16_Node000003_Node000019" class="edge">
<title>Node19&#45;&gt;Node3</title>
<g id="a_edge16_Node000003_Node000019"><a xlink:title=" ">
<path fill="none" stroke="#9a32cd" stroke-dasharray="5,2" d="M1046.93,-95.96C1088.72,-103.02 1141.72,-114.72 1186.25,-133.25 1211.89,-143.92 1238.29,-161.92 1255.63,-174.89"/>
<polygon fill="#9a32cd" stroke="#9a32cd" points="1047.72,-92.38 1037.28,-94.22 1046.59,-99.29 1047.72,-92.38"/>
</a>
</g>
<text text-anchor="middle" x="1124" y="-134.25" font-family="Helvetica,sans-Serif" font-size="10.00" fill="grey"> offset</text>
</g>
<!-- Node20 -->
<g id="Node000020" class="node">
<title>Node20</title>
<g id="a_Node000020"><a xlink:href="../../da/d8d/class_eigen_1_1_plain_object_base.html" target="_top" xlink:title=" ">
<polygon fill="white" stroke="#666666" points="402.5,-101.75 283,-101.75 283,-71.25 402.5,-71.25 402.5,-101.75"/>
<text text-anchor="start" x="291" y="-88.25" font-family="Helvetica,sans-Serif" font-size="10.00">Eigen::PlainObjectBase</text>
<text text-anchor="middle" x="342.75" y="-77" font-family="Helvetica,sans-Serif" font-size="10.00">&lt; Derived &gt;</text>
</a>
</g>
</g>
<!-- Node20&#45;&gt;Node19 -->
<g id="edge17_Node000019_Node000020" class="edge">
<title>Node20&#45;&gt;Node19</title>
<g id="a_edge17_Node000019_Node000020"><a xlink:title=" ">
<path fill="none" stroke="#63b8ff" d="M413.8,-86.5C537.82,-86.5 794.02,-86.5 911.54,-86.5"/>
<polygon fill="#63b8ff" stroke="#63b8ff" points="413.94,-83 403.94,-86.5 413.94,-90 413.94,-83"/>
</a>
</g>
</g>
<!-- Node21 -->
<g id="Node000021" class="node">
<title>Node21</title>
<g id="a_Node000021"><a xlink:title=" ">
<polygon fill="white" stroke="#666666" points="141.25,-101.75 42.75,-101.75 42.75,-71.25 141.25,-71.25 141.25,-101.75"/>
<text text-anchor="start" x="50.75" y="-88.25" font-family="Helvetica,sans-Serif" font-size="10.00">internal::dense_xpr</text>
<text text-anchor="middle" x="92" y="-77" font-family="Helvetica,sans-Serif" font-size="10.00">_base::type</text>
</a>
</g>
</g>
<!-- Node21&#45;&gt;Node20 -->
<g id="edge18_Node000020_Node000021" class="edge">
<title>Node21&#45;&gt;Node20</title>
<g id="a_edge18_Node000020_Node000021"><a xlink:title=" ">
<path fill="none" stroke="#63b8ff" d="M152.34,-86.5C191.8,-86.5 243.42,-86.5 282.8,-86.5"/>
<polygon fill="#63b8ff" stroke="#63b8ff" points="152.55,-83 142.55,-86.5 152.55,-90 152.55,-83"/>
</a>
</g>
</g>
<!-- Node22 -->
<g id="Node000022" class="node">
<title>Node22</title>
<g id="a_Node000022"><a xlink:href="../../d5/d91/class_eigen_1_1_dense_storage.html" target="_top" xlink:title=" ">
<polygon fill="#fff0f0" stroke="red" points="184,-53 0,-53 0,0 184,0 184,-53"/>
<text text-anchor="start" x="8" y="-39.5" font-family="Helvetica,sans-Serif" font-size="10.00">Eigen::DenseStorage</text>
<text text-anchor="start" x="8" y="-28.25" font-family="Helvetica,sans-Serif" font-size="10.00">&lt; Scalar, Base::MaxSizeAtCompile</text>
<text text-anchor="start" x="8" y="-17" font-family="Helvetica,sans-Serif" font-size="10.00">Time, Base::RowsAtCompileTime,</text>
<text text-anchor="middle" x="92" y="-5.75" font-family="Helvetica,sans-Serif" font-size="10.00"> Base::ColsAtCompileTime, Options &gt;</text>
</a>
</g>
</g>
<!-- Node22&#45;&gt;Node20 -->
<g id="edge19_Node000020_Node000022" class="edge">
<title>Node22&#45;&gt;Node20</title>
<g id="a_edge19_Node000020_Node000022"><a xlink:title=" ">
<path fill="none" stroke="#9a32cd" stroke-dasharray="5,2" d="M194.71,-51.03C224.63,-58.25 256.37,-65.91 282.67,-72.25"/>
<polygon fill="#9a32cd" stroke="#9a32cd" points="195.75,-47.44 185.21,-48.5 194.11,-54.25 195.75,-47.44"/>
</a>
</g>
<text text-anchor="middle" x="226.38" y="-66.25" font-family="Helvetica,sans-Serif" font-size="10.00" fill="grey"> m_storage</text>
</g>
<!-- Node28 -->
<g id="Node000028" class="node">
<title>Node28</title>
<g id="a_Node000028"><a xlink:href="../../da/d8d/class_eigen_1_1_plain_object_base.html" target="_top" xlink:title=" ">
<polygon fill="#fff0f0" stroke="red" points="416.75,-53 268.75,-53 268.75,0 416.75,0 416.75,-53"/>
<text text-anchor="start" x="276.75" y="-39.5" font-family="Helvetica,sans-Serif" font-size="10.00">Eigen::PlainObjectBase</text>
<text text-anchor="start" x="276.75" y="-28.25" font-family="Helvetica,sans-Serif" font-size="10.00">&lt; Matrix&lt; _Scalar, _Rows,</text>
<text text-anchor="start" x="276.75" y="-17" font-family="Helvetica,sans-Serif" font-size="10.00"> _Cols, _Options, _MaxRows,</text>
<text text-anchor="middle" x="342.75" y="-5.75" font-family="Helvetica,sans-Serif" font-size="10.00"> _MaxCols &gt; &gt;</text>
</a>
</g>
</g>
<!-- Node22&#45;&gt;Node28 -->
<g id="edge22_Node000028_Node000022" class="edge">
<title>Node22&#45;&gt;Node28</title>
<g id="a_edge22_Node000028_Node000022"><a xlink:title=" ">
<path fill="none" stroke="#9a32cd" stroke-dasharray="5,2" d="M195.04,-26.5C219.64,-26.5 245.45,-26.5 268.44,-26.5"/>
<polygon fill="#9a32cd" stroke="#9a32cd" points="195.21,-23 185.21,-26.5 195.21,-30 195.21,-23"/>
</a>
</g>
<text text-anchor="middle" x="226.38" y="-28.25" font-family="Helvetica,sans-Serif" font-size="10.00" fill="grey"> m_storage</text>
</g>
<!-- Node27 -->
<g id="Node000027" class="node">
<title>Node27</title>
<g id="a_Node000027"><a xlink:href="../../d2/d2d/class_eigen_1_1_matrix.html" target="_top" xlink:title="The matrix class, also used for vectors and row&#45;vectors.">
<polygon fill="white" stroke="#666666" points="717.75,-55.38 588.5,-55.38 588.5,-13.62 717.75,-13.62 717.75,-55.38"/>
<text text-anchor="start" x="596.5" y="-41.88" font-family="Helvetica,sans-Serif" font-size="10.00">Eigen::Matrix&lt; _Scalar,</text>
<text text-anchor="start" x="596.5" y="-30.62" font-family="Helvetica,sans-Serif" font-size="10.00"> _Rows, _Cols, _Options,</text>
<text text-anchor="middle" x="653.12" y="-19.38" font-family="Helvetica,sans-Serif" font-size="10.00"> _MaxRows, _MaxCols &gt;</text>
</a>
</g>
</g>
<!-- Node27&#45;&gt;Node19 -->
<g id="edge20_Node000019_Node000027" class="edge">
<title>Node27&#45;&gt;Node19</title>
<g id="a_edge20_Node000019_Node000027"><a xlink:title=" ">
<path fill="none" stroke="orange" stroke-dasharray="5,2" d="M728.72,-33.27C774.63,-34.03 834.38,-37.79 886,-50 905.58,-54.63 926.4,-63.24 942.75,-70.93"/>
<polygon fill="orange" stroke="orange" points="728.99,-29.76 718.95,-33.14 728.91,-36.76 728.99,-29.76"/>
</a>
</g>
<text text-anchor="start" x="764" y="-63.5" font-family="Helvetica,sans-Serif" font-size="10.00" fill="grey"> &lt; double, 2, 1, Eigen</text>
<text text-anchor="middle" x="810.88" y="-52.25" font-family="Helvetica,sans-Serif" font-size="10.00" fill="grey">::DontAlign &gt;</text>
</g>
<!-- Node28&#45;&gt;Node27 -->
<g id="edge21_Node000027_Node000028" class="edge">
<title>Node28&#45;&gt;Node27</title>
<g id="a_edge21_Node000027_Node000028"><a xlink:title=" ">
<path fill="none" stroke="#63b8ff" d="M428.12,-28.69C478.6,-30 541.73,-31.64 588.1,-32.84"/>
<polygon fill="#63b8ff" stroke="#63b8ff" points="428.31,-25.17 418.22,-28.41 428.13,-32.16 428.31,-25.17"/>
</a>
</g>
</g>
<!-- Node31 -->
<g id="Node000031" class="node">
<title>Node31</title>
<g id="a_Node000031"><a xlink:href="../../db/d35/class_slic3r_1_1_g_u_i_1_1_geometry_buffer.html" target="_top" xlink:title=" ">
<polygon fill="white" stroke="#666666" points="1043.75,-153.12 904,-153.12 904,-133.88 1043.75,-133.88 1043.75,-153.12"/>
<text text-anchor="middle" x="973.88" y="-139.62" font-family="Helvetica,sans-Serif" font-size="10.00">Slic3r::GUI::GeometryBuffer</text>
</a>
</g>
</g>
<!-- Node31&#45;&gt;Node3 -->
<g id="edge23_Node000003_Node000031" class="edge">
<title>Node31&#45;&gt;Node3</title>
<g id="a_edge23_Node000003_Node000031"><a xlink:title=" ">
<path fill="none" stroke="#9a32cd" stroke-dasharray="5,2" d="M1054.82,-148.44C1094.57,-151.72 1143.2,-157 1186.25,-165.25 1199.2,-167.73 1213,-171.21 1225.77,-174.8"/>
<polygon fill="#9a32cd" stroke="#9a32cd" points="1055.1,-144.87 1044.85,-147.56 1054.54,-151.85 1055.1,-144.87"/>
</a>
</g>
<text text-anchor="middle" x="1124" y="-166.25" font-family="Helvetica,sans-Serif" font-size="10.00" fill="grey"> buffer</text>
</g>
<!-- Node32&#45;&gt;Node31 -->
<g id="edge24_Node000031_Node000032" class="edge">
<title>Node32&#45;&gt;Node31</title>
<g id="a_edge24_Node000031_Node000032"><a xlink:title=" ">
<path fill="none" stroke="#9a32cd" stroke-dasharray="5,2" d="M721.86,-142.71C775.35,-142.88 849.72,-143.11 903.61,-143.28"/>
<polygon fill="#9a32cd" stroke="#9a32cd" points="722.12,-139.21 712.11,-142.68 722.1,-146.21 722.12,-139.21"/>
</a>
</g>
<text text-anchor="middle" x="810.88" y="-144.25" font-family="Helvetica,sans-Serif" font-size="10.00" fill="grey"> m_vertices</text>
</g>
<!-- Node33 -->
<g id="Node000033" class="node">
<title>Node33</title>
<g id="a_Node000033"><a xlink:href="../../db/d35/class_slic3r_1_1_g_u_i_1_1_geometry_buffer.html#d8/d32/struct_slic3r_1_1_g_u_i_1_1_geometry_buffer_1_1_vertex" target="_top" xlink:title=" ">
<polygon fill="#fff0f0" stroke="red" points="412.62,-150.75 272.88,-150.75 272.88,-120.25 412.62,-120.25 412.62,-150.75"/>
<text text-anchor="start" x="280.88" y="-137.25" font-family="Helvetica,sans-Serif" font-size="10.00">Slic3r::GUI::GeometryBuffer</text>
<text text-anchor="middle" x="342.75" y="-126" font-family="Helvetica,sans-Serif" font-size="10.00">::Vertex</text>
</a>
</g>
</g>
<!-- Node33&#45;&gt;Node32 -->
<g id="edge25_Node000032_Node000033" class="edge">
<title>Node33&#45;&gt;Node32</title>
<g id="a_edge25_Node000032_Node000033"><a xlink:title=" ">
<path fill="none" stroke="#9a32cd" stroke-dasharray="5,2" d="M423.85,-137.32C477.71,-138.54 547.39,-140.12 595.52,-141.22"/>
<polygon fill="#9a32cd" stroke="#9a32cd" points="424.03,-133.8 413.96,-137.07 423.87,-140.8 424.03,-133.8"/>
</a>
</g>
<text text-anchor="middle" x="502.62" y="-142.25" font-family="Helvetica,sans-Serif" font-size="10.00" fill="grey"> elements</text>
</g>
</g>
</svg>

<g id="navigator" transform="translate(0 0)" fill="#404254">
  <rect fill="#f2f5e9" fill-opacity="0.5" stroke="#606060" stroke-width=".5" x="0" y="0" width="60" height="60"/>
  <use id="zoomplus" xlink:href="#zoomPlus" x="17" y="9" onmousedown="handleZoom(evt,'in')"/>
  <use id="zoomminus" xlink:href="#zoomMin" x="42" y="9" onmousedown="handleZoom(evt,'out')"/>
  <use id="reset" xlink:href="#resetDef" x="30" y="36" onmousedown="handleReset()"/>
   <use id="arrowup" xlink:href="#arrowUp" x="0" y="0" onmousedown="handlePan(0,-1)"/>
  <use id="arrowright" xlink:href="#arrowRight" x="0" y="0" onmousedown="handlePan(1,0)"/>
  <use id="arrowdown" xlink:href="#arrowDown" x="0" y="0" onmousedown="handlePan(0,1)"/>
  <use id="arrowleft" xlink:href="#arrowLeft" x="0" y="0" onmousedown="handlePan(-1,0)"/>
</g>
<svg viewBox="0 0 15 15" width="100%" height="30px" preserveAspectRatio="xMaxYMin meet">
 <g id="arrow_out" transform="scale(0.3 0.3)">
  <a xlink:href="class_slic3r_1_1_g_u_i_1_1_part_plate_list_1_1_bed_texture_info__coll__graph_org.svg" target="_base">
   <rect id="button" ry="5" rx="5" y="6" x="6" height="38" width="38"
        fill="#f2f5e9" fill-opacity="0.5" stroke="#606060" stroke-width="1.0"/>
   <path id="arrow"
     d="M 11.500037,31.436501 C 11.940474,20.09759 22.043105,11.32322 32.158766,21.979434 L 37.068811,17.246167 C 37.068811,17.246167 37.088388,32 37.088388,32 L 22.160133,31.978069 C 22.160133,31.978069 26.997745,27.140456 26.997745,27.140456 C 18.528582,18.264221 13.291696,25.230495 11.500037,31.436501 z"
     style="fill:#404040;"/>
  </a>
 </g>
</svg>

<style type='text/css'>
<![CDATA[
[data-mouse-over-selected='false'] { opacity: 0.7; }
[data-mouse-over-selected='true']  { opacity: 1.0; }
]]>
</style>
<script type="application/ecmascript"><![CDATA[
document.addEventListener('DOMContentLoaded', (event) => {
  highlightEdges();
  highlightAdjacentNodes();
});
]]></script>
</svg>
