<?xml version="1.0" encoding="UTF-8" standalone="no"?>
<!DOCTYPE svg PUBLIC "-//W3C//DTD SVG 1.1//EN"
 "http://www.w3.org/Graphics/SVG/1.1/DTD/svg11.dtd">
<!-- Generated by graphviz version 8.1.0 (20230707.0739)
 -->
<!-- Title: atan Pages: 1 -->
<svg width="988pt" height="162pt"
 viewBox="0.00 0.00 988.25 161.88" xmlns="http://www.w3.org/2000/svg" xmlns:xlink="http://www.w3.org/1999/xlink">
<g id="graph0" class="graph" transform="scale(1 1) rotate(0) translate(4 157.88)">
<title>atan</title>
<!-- Node1 -->
<g id="Node000001" class="node">
<title>Node1</title>
<g id="a_Node000001"><a xlink:title=" ">
<polygon fill="#999999" stroke="#666666" points="980.25,-88.88 945.5,-88.88 945.5,-69.62 980.25,-69.62 980.25,-88.88"/>
<text text-anchor="middle" x="962.88" y="-75.38" font-family="Helvetica,sans-Serif" font-size="10.00">atan</text>
</a>
</g>
</g>
<!-- Node2 -->
<g id="Node000002" class="node">
<title>Node2</title>
<g id="a_Node000002"><a xlink:href="../../d7/daf/namespace_eigen_1_1numext.html#a732e6dc5024f907c6e9fc791cabf329a" target="_top" xlink:title=" ">
<polygon fill="white" stroke="#666666" points="900.12,-153.88 796.38,-153.88 796.38,-134.62 900.12,-134.62 900.12,-153.88"/>
<text text-anchor="middle" x="848.25" y="-140.38" font-family="Helvetica,sans-Serif" font-size="10.00">Eigen::numext::atan</text>
</a>
</g>
</g>
<!-- Node1&#45;&gt;Node2 -->
<g id="edge1_Node000001_Node000002" class="edge">
<title>Node1&#45;&gt;Node2</title>
<g id="a_edge1_Node000001_Node000002"><a xlink:title=" ">
<path fill="none" stroke="#63b8ff" d="M945.55,-96.81C935.85,-106.35 922.87,-117.71 909.5,-125.25 903.29,-128.75 896.35,-131.7 889.45,-134.15"/>
<polygon fill="#63b8ff" stroke="#63b8ff" points="947.66,-99.63 952.14,-90.03 942.65,-94.74 947.66,-99.63"/>
</a>
</g>
</g>
<!-- Node3 -->
<g id="Node000003" class="node">
<title>Node3</title>
<g id="a_Node000003"><a xlink:href="../../d5/d7a/class_slic3r_1_1_arachne_1_1_voronoi_utils.html#afd9331a3fb1a5866c179c10a0136a413" target="_top" xlink:title=" ">
<polygon fill="white" stroke="#666666" points="909.5,-116.5 787,-116.5 787,-86 909.5,-86 909.5,-116.5"/>
<text text-anchor="start" x="795" y="-103" font-family="Helvetica,sans-Serif" font-size="10.00">Slic3r::Arachne::Voronoi</text>
<text text-anchor="middle" x="848.25" y="-91.75" font-family="Helvetica,sans-Serif" font-size="10.00">Utils::discretizeParabola</text>
</a>
</g>
</g>
<!-- Node1&#45;&gt;Node3 -->
<g id="edge2_Node000001_Node000003" class="edge">
<title>Node1&#45;&gt;Node3</title>
<g id="a_edge2_Node000001_Node000003"><a xlink:title=" ">
<path fill="none" stroke="#63b8ff" d="M934.55,-84.59C926.93,-86.08 918.33,-87.76 909.61,-89.46"/>
<polygon fill="#63b8ff" stroke="#63b8ff" points="935.11,-87.85 944.26,-82.5 933.77,-80.98 935.11,-87.85"/>
</a>
</g>
</g>
<!-- Node8 -->
<g id="Node000008" class="node">
<title>Node8</title>
<g id="a_Node000008"><a xlink:href="../../d7/dc9/namespace_eigen_1_1internal.html#aeb4feddd9334c4ddff94450e2f19e96c" target="_top" xlink:title=" ">
<polygon fill="white" stroke="#666666" points="902.38,-67.88 794.12,-67.88 794.12,-48.62 902.38,-48.62 902.38,-67.88"/>
<text text-anchor="middle" x="848.25" y="-54.38" font-family="Helvetica,sans-Serif" font-size="10.00">Eigen::internal::patan</text>
</a>
</g>
</g>
<!-- Node1&#45;&gt;Node8 -->
<g id="edge7_Node000001_Node000008" class="edge">
<title>Node1&#45;&gt;Node8</title>
<g id="a_edge7_Node000001_Node000008"><a xlink:title=" ">
<path fill="none" stroke="#63b8ff" d="M934.71,-74.19C925.02,-72.38 913.74,-70.27 902.61,-68.2"/>
<polygon fill="#63b8ff" stroke="#63b8ff" points="933.78,-77.76 944.26,-76.15 935.07,-70.88 933.78,-77.76"/>
</a>
</g>
</g>
<!-- Node9 -->
<g id="Node000009" class="node">
<title>Node9</title>
<g id="a_Node000009"><a xlink:href="../../da/d7a/class_slic3r_1_1_g_code_writer.html#aae04a49300bb25f19ee52dbc9e915423" target="_top" xlink:title=" ">
<polygon fill="white" stroke="#666666" points="899.75,-30.5 796.75,-30.5 796.75,0 899.75,0 899.75,-30.5"/>
<text text-anchor="start" x="804.75" y="-17" font-family="Helvetica,sans-Serif" font-size="10.00">Slic3r::GCodeWriter</text>
<text text-anchor="middle" x="848.25" y="-5.75" font-family="Helvetica,sans-Serif" font-size="10.00">::travel_to_xyz</text>
</a>
</g>
</g>
<!-- Node1&#45;&gt;Node9 -->
<g id="edge8_Node000001_Node000009" class="edge">
<title>Node1&#45;&gt;Node9</title>
<g id="a_edge8_Node000001_Node000009"><a xlink:title=" ">
<path fill="none" stroke="#63b8ff" d="M942.55,-62.46C933.03,-54.73 921.12,-45.83 909.5,-39.25 904.21,-36.25 898.47,-33.45 892.71,-30.9"/>
<polygon fill="#63b8ff" stroke="#63b8ff" points="939.94,-65.67 949.86,-69.4 944.43,-60.3 939.94,-65.67"/>
</a>
</g>
</g>
<!-- Node4 -->
<g id="Node000004" class="node">
<title>Node4</title>
<g id="a_Node000004"><a xlink:href="../../d9/d17/class_slic3r_1_1_arachne_1_1_skeletal_trapezoidation.html#abf82f89762c355aa6192759950877981" target="_top" xlink:title=" ">
<polygon fill="white" stroke="#666666" points="751,-116.5 623.25,-116.5 623.25,-86 751,-86 751,-116.5"/>
<text text-anchor="start" x="631.25" y="-103" font-family="Helvetica,sans-Serif" font-size="10.00">Slic3r::Arachne::Skeletal</text>
<text text-anchor="middle" x="687.12" y="-91.75" font-family="Helvetica,sans-Serif" font-size="10.00">Trapezoidation::discretize</text>
</a>
</g>
</g>
<!-- Node3&#45;&gt;Node4 -->
<g id="edge3_Node000003_Node000004" class="edge">
<title>Node3&#45;&gt;Node4</title>
<g id="a_edge3_Node000003_Node000004"><a xlink:title=" ">
<path fill="none" stroke="#63b8ff" d="M775.72,-101.25C767.64,-101.25 759.44,-101.25 751.48,-101.25"/>
<polygon fill="#63b8ff" stroke="#63b8ff" points="775.64,-104.75 785.64,-101.25 775.64,-97.75 775.64,-104.75"/>
</a>
</g>
</g>
<!-- Node5 -->
<g id="Node000005" class="node">
<title>Node5</title>
<g id="a_Node000005"><a xlink:href="../../d9/d17/class_slic3r_1_1_arachne_1_1_skeletal_trapezoidation.html#a40327127e6fe656b1e8574945373f4e2" target="_top" xlink:title=" ">
<polygon fill="white" stroke="#666666" points="587.25,-116.5 446,-116.5 446,-86 587.25,-86 587.25,-116.5"/>
<text text-anchor="start" x="454" y="-103" font-family="Helvetica,sans-Serif" font-size="10.00">Slic3r::Arachne::Skeletal</text>
<text text-anchor="middle" x="516.62" y="-91.75" font-family="Helvetica,sans-Serif" font-size="10.00">Trapezoidation::transferEdge</text>
</a>
</g>
</g>
<!-- Node4&#45;&gt;Node5 -->
<g id="edge4_Node000004_Node000005" class="edge">
<title>Node4&#45;&gt;Node5</title>
<g id="a_edge4_Node000004_Node000005"><a xlink:title=" ">
<path fill="none" stroke="#63b8ff" d="M612,-101.25C603.93,-101.25 595.73,-101.25 587.7,-101.25"/>
<polygon fill="#63b8ff" stroke="#63b8ff" points="611.9,-104.75 621.9,-101.25 611.9,-97.75 611.9,-104.75"/>
</a>
</g>
</g>
<!-- Node6 -->
<g id="Node000006" class="node">
<title>Node6</title>
<g id="a_Node000006"><a xlink:href="../../d9/d17/class_slic3r_1_1_arachne_1_1_skeletal_trapezoidation.html#a3410b9a03fd08d89605d3e083ff37191" target="_top" xlink:title=" ">
<polygon fill="white" stroke="#666666" points="410,-116.5 220.75,-116.5 220.75,-86 410,-86 410,-116.5"/>
<text text-anchor="start" x="228.75" y="-103" font-family="Helvetica,sans-Serif" font-size="10.00">Slic3r::Arachne::Skeletal</text>
<text text-anchor="middle" x="315.38" y="-91.75" font-family="Helvetica,sans-Serif" font-size="10.00">Trapezoidation::constructFromPolygons</text>
</a>
</g>
</g>
<!-- Node5&#45;&gt;Node6 -->
<g id="edge5_Node000005_Node000006" class="edge">
<title>Node5&#45;&gt;Node6</title>
<g id="a_edge5_Node000005_Node000006"><a xlink:title=" ">
<path fill="none" stroke="#63b8ff" d="M434.79,-101.25C426.72,-101.25 418.49,-101.25 410.31,-101.25"/>
<polygon fill="#63b8ff" stroke="#63b8ff" points="434.66,-104.75 444.66,-101.25 434.66,-97.75 434.66,-104.75"/>
</a>
</g>
</g>
<!-- Node7 -->
<g id="Node000007" class="node">
<title>Node7</title>
<g id="a_Node000007"><a xlink:href="../../d9/d17/class_slic3r_1_1_arachne_1_1_skeletal_trapezoidation.html#a4d4d69e9ba0fbc2deed3d2dedb0efac9" target="_top" xlink:title=" ">
<polygon fill="white" stroke="#666666" points="184.75,-116.5 0,-116.5 0,-86 184.75,-86 184.75,-116.5"/>
<text text-anchor="start" x="8" y="-103" font-family="Helvetica,sans-Serif" font-size="10.00">Slic3r::Arachne::Skeletal</text>
<text text-anchor="middle" x="92.38" y="-91.75" font-family="Helvetica,sans-Serif" font-size="10.00">Trapezoidation::SkeletalTrapezoidation</text>
</a>
</g>
</g>
<!-- Node6&#45;&gt;Node7 -->
<g id="edge6_Node000006_Node000007" class="edge">
<title>Node6&#45;&gt;Node7</title>
<g id="a_edge6_Node000006_Node000007"><a xlink:title=" ">
<path fill="none" stroke="#63b8ff" d="M209.37,-101.25C201.3,-101.25 193.2,-101.25 185.22,-101.25"/>
<polygon fill="#63b8ff" stroke="#63b8ff" points="209.33,-104.75 219.33,-101.25 209.33,-97.75 209.33,-104.75"/>
</a>
</g>
</g>
</g>
</svg>
