<?xml version="1.0" encoding="UTF-8" standalone="no"?>
<!DOCTYPE svg PUBLIC "-//W3C//DTD SVG 1.1//EN"
 "http://www.w3.org/Graphics/SVG/1.1/DTD/svg11.dtd">
<!-- Generated by graphviz version 8.1.0 (20230707.0739)
 -->
<!-- Title: Slic3r::GUI::FanControl::FanControl Pages: 1 -->
<!--zoomable 334 -->

<svg id="main" version="1.1" xmlns="http://www.w3.org/2000/svg" xmlns:xlink="http://www.w3.org/1999/xlink" xml:space="preserve" onload="init(evt)">
<style type="text/css"><![CDATA[
.node, .edge {opacity: 0.7;}
.node.selected, .edge.selected {opacity: 1;}
.edge:hover path { stroke: red; }
.edge:hover polygon { stroke: red; fill: red; }
]]></style>

<defs>
  <circle id="rim" cx="0" cy="0" r="7"/>
  <circle id="rim2" cx="0" cy="0" r="3.5"/>
  <g id="zoomPlus">
    <use xlink:href="#rim" fill="#404040"><set attributeName="fill" to="#808080" begin="zoomplus.mouseover" end="zoomplus.mouseout"/></use>
    <path d="M-4,0h8M0,-4v8" fill="none" stroke="white" stroke-width="1.5" pointer-events="none"/>
  </g>
  <g id="zoomMin">
    <use xlink:href="#rim" fill="#404040"><set attributeName="fill" to="#808080" begin="zoomminus.mouseover" end="zoomminus.mouseout"/></use>
    <path d="M-4,0h8" fill="none" stroke="white" stroke-width="1.5" pointer-events="none"/>
  </g>
  <g id="arrowUp" transform="translate(30 24)">
    <use xlink:href="#rim"/>
    <path pointer-events="none" fill="none" stroke="white" stroke-width="1.5" d="M0,-3.0v7 M-2.5,-0.5L0,-3.0L2.5,-0.5"/>
  </g>
  <g id="arrowRight" transform="rotate(90) translate(36 -43)">
    <use xlink:href="#rim"/>
    <path pointer-events="none" fill="none" stroke="white" stroke-width="1.5" d="M0,-3.0v7 M-2.5,-0.5L0,-3.0L2.5,-0.5"/>
  </g>
  <g id="arrowDown" transform="rotate(180) translate(-30 -48)">
    <use xlink:href="#rim"/>
    <path pointer-events="none" fill="none" stroke="white" stroke-width="1.5" d="M0,-3.0v7 M-2.5,-0.5L0,-3.0L2.5,-0.5"/>
  </g>
  <g id="arrowLeft" transform="rotate(270) translate(-36 17)">
    <use xlink:href="#rim"/>
    <path pointer-events="none" fill="none" stroke="white" stroke-width="1.5" d="M0,-3.0v7 M-2.5,-0.5L0,-3.0L2.5,-0.5"/>
  </g>
  <g id="resetDef">
    <use xlink:href="#rim2" fill="#404040"><set attributeName="fill" to="#808080" begin="reset.mouseover" end="reset.mouseout"/></use>
  </g>
</defs>
<script type="application/ecmascript">
var viewWidth = 1052;
var viewHeight = 334;
var sectionId = 'dynsection-2';
</script>
<script type="application/ecmascript" xlink:href="../../svg.min.js"/>
<svg id="graph" class="graph">
<g id="viewport">
<title>Slic3r::GUI::FanControl::FanControl</title>
<!-- Node1 -->
<g id="Node000001" class="node">
<title>Node1</title>
<g id="a_Node000001"><a xlink:title=" ">
<polygon fill="#999999" stroke="#666666" points="118.75,-143.5 0,-143.5 0,-113 118.75,-113 118.75,-143.5"/>
<text text-anchor="start" x="8" y="-130" font-family="Helvetica,sans-Serif" font-size="10.00">Slic3r::GUI::FanControl</text>
<text text-anchor="middle" x="59.38" y="-118.75" font-family="Helvetica,sans-Serif" font-size="10.00">::FanControl</text>
</a>
</g>
</g>
<!-- Node2 -->
<g id="Node000002" class="node">
<title>Node2</title>
<g id="a_Node000002"><a xlink:href="../../d5/db9/class_scalable_bitmap.html#abb4d44a4b22f3436cb7ab22fedb1febd" target="_top" xlink:title=" ">
<polygon fill="white" stroke="#666666" points="423.38,-202.88 314.38,-202.88 314.38,-183.62 423.38,-183.62 423.38,-202.88"/>
<text text-anchor="middle" x="368.88" y="-189.38" font-family="Helvetica,sans-Serif" font-size="10.00">ScalableBitmap::bmp</text>
</a>
</g>
</g>
<!-- Node1&#45;&gt;Node2 -->
<g id="edge1_Node000001_Node000002" class="edge">
<title>Node1&#45;&gt;Node2</title>
<g id="a_edge1_Node000001_Node000002"><a xlink:title=" ">
<path fill="none" stroke="#63b8ff" d="M117.1,-144C129.47,-147.23 142.52,-150.49 154.75,-153.25 204.41,-164.47 261.07,-175 303.49,-182.43"/>
<polygon fill="#63b8ff" stroke="#63b8ff" points="302.77,-186.04 313.22,-184.3 303.97,-179.14 302.77,-186.04"/>
</a>
</g>
</g>
<!-- Node3 -->
<g id="Node000003" class="node">
<title>Node3</title>
<g id="a_Node000003"><a xlink:href="../../d7/d62/class_slic3r_1_1_g_u_i_1_1_fan_control.html#a77936ad09b7813c0cad8e143f15d7ad1" target="_top" xlink:title=" ">
<polygon fill="white" stroke="#666666" points="428.25,-165.5 309.5,-165.5 309.5,-135 428.25,-135 428.25,-165.5"/>
<text text-anchor="start" x="317.5" y="-152" font-family="Helvetica,sans-Serif" font-size="10.00">Slic3r::GUI::FanControl</text>
<text text-anchor="middle" x="368.88" y="-140.75" font-family="Helvetica,sans-Serif" font-size="10.00">::command_control_fan</text>
</a>
</g>
</g>
<!-- Node1&#45;&gt;Node3 -->
<g id="edge2_Node000001_Node000003" class="edge">
<title>Node1&#45;&gt;Node3</title>
<g id="a_edge2_Node000001_Node000003"><a xlink:title=" ">
<path fill="none" stroke="#63b8ff" d="M118.94,-132.44C169.96,-136.09 244.05,-141.39 298.13,-145.26"/>
<polygon fill="#63b8ff" stroke="#63b8ff" points="297.78,-148.82 308.01,-146.04 298.28,-141.83 297.78,-148.82"/>
</a>
</g>
</g>
<!-- Node17 -->
<g id="Node000017" class="node">
<title>Node17</title>
<g id="a_Node000017"><a xlink:href="../../d7/d62/class_slic3r_1_1_g_u_i_1_1_fan_control.html#abec070af70370407ea81322422c2f346" target="_top" xlink:title=" ">
<polygon fill="white" stroke="#666666" points="273.5,-122.5 154.75,-122.5 154.75,-92 273.5,-92 273.5,-122.5"/>
<text text-anchor="start" x="162.75" y="-109" font-family="Helvetica,sans-Serif" font-size="10.00">Slic3r::GUI::FanControl</text>
<text text-anchor="middle" x="214.12" y="-97.75" font-family="Helvetica,sans-Serif" font-size="10.00">::on_swith_fan</text>
</a>
</g>
</g>
<!-- Node1&#45;&gt;Node17 -->
<g id="edge14_Node000001_Node000017" class="edge">
<title>Node1&#45;&gt;Node17</title>
<g id="a_edge14_Node000001_Node000017"><a xlink:title=" ">
<path fill="none" stroke="#63b8ff" d="M119,-120.19C127.07,-119.08 135.42,-117.93 143.67,-116.8"/>
<polygon fill="#63b8ff" stroke="#63b8ff" points="143.98,-120.15 153.41,-115.32 143.03,-113.22 143.98,-120.15"/>
</a>
</g>
</g>
<!-- Node20 -->
<g id="Node000020" class="node">
<title>Node20</title>
<g id="a_Node000020"><a xlink:href="../../d0/d35/class_slic3r_1_1_g_u_i_1_1_fan.html#a2bf3708122056b929d9dda6b094f000a" target="_top" xlink:title=" ">
<polygon fill="white" stroke="#666666" points="585.62,-30.5 478.88,-30.5 478.88,0 585.62,0 585.62,-30.5"/>
<text text-anchor="start" x="486.88" y="-17" font-family="Helvetica,sans-Serif" font-size="10.00">Slic3r::GUI::Fan::set</text>
<text text-anchor="middle" x="532.25" y="-5.75" font-family="Helvetica,sans-Serif" font-size="10.00">_fan_speeds</text>
</a>
</g>
</g>
<!-- Node1&#45;&gt;Node20 -->
<g id="edge22_Node000001_Node000020" class="edge">
<title>Node1&#45;&gt;Node20</title>
<g id="a_edge22_Node000001_Node000020"><a xlink:title=" ">
<path fill="none" stroke="#63b8ff" d="M88.06,-112.63C106.46,-102.87 131.43,-90.77 154.75,-83.25 261.7,-48.78 391.73,-30.17 467.62,-21.51"/>
<polygon fill="#63b8ff" stroke="#63b8ff" points="467.86,-24.9 477.41,-20.31 467.08,-17.94 467.86,-24.9"/>
</a>
</g>
</g>
<!-- Node4 -->
<g id="Node000004" class="node">
<title>Node4</title>
<g id="a_Node000004"><a xlink:href="../../dc/d24/class_slic3r_1_1_machine_object.html#a71d4bdf3302109087482005ab77c2f8e" target="_top" xlink:title=" ">
<polygon fill="white" stroke="#666666" points="600.25,-251.5 464.25,-251.5 464.25,-221 600.25,-221 600.25,-251.5"/>
<text text-anchor="start" x="472.25" y="-238" font-family="Helvetica,sans-Serif" font-size="10.00">Slic3r::MachineObject</text>
<text text-anchor="middle" x="532.25" y="-226.75" font-family="Helvetica,sans-Serif" font-size="10.00">::command_control_fan_val</text>
</a>
</g>
</g>
<!-- Node3&#45;&gt;Node4 -->
<g id="edge3_Node000003_Node000004" class="edge">
<title>Node3&#45;&gt;Node4</title>
<g id="a_edge3_Node000003_Node000004"><a xlink:title=" ">
<path fill="none" stroke="#63b8ff" d="M413.97,-165.99C418.95,-168.46 423.82,-171.21 428.25,-174.25 447.43,-187.41 444.77,-199.54 464.25,-212.25 466.03,-213.41 467.88,-214.53 469.78,-215.6"/>
<polygon fill="#63b8ff" stroke="#63b8ff" points="468.07,-219.17 478.57,-220.57 471.24,-212.92 468.07,-219.17"/>
</a>
</g>
</g>
<!-- Node15 -->
<g id="Node000015" class="node">
<title>Node15</title>
<g id="a_Node000015"><a xlink:href="../../d4/df0/_array_cwise_unary_ops_8h.html#a3230e10964844c34fb73eaccc84dc8a7" target="_top" xlink:title=" ">
<polygon fill="white" stroke="#666666" points="549.62,-202.88 514.88,-202.88 514.88,-183.62 549.62,-183.62 549.62,-202.88"/>
<text text-anchor="middle" x="532.25" y="-189.38" font-family="Helvetica,sans-Serif" font-size="10.00">floor</text>
</a>
</g>
</g>
<!-- Node3&#45;&gt;Node15 -->
<g id="edge12_Node000003_Node000015" class="edge">
<title>Node3&#45;&gt;Node15</title>
<g id="a_edge12_Node000003_Node000015"><a xlink:title=" ">
<path fill="none" stroke="#63b8ff" d="M428.59,-165.9C454.44,-172.78 483.56,-180.54 504.16,-186.03"/>
<polygon fill="#63b8ff" stroke="#63b8ff" points="503.09,-189.63 513.65,-188.83 504.89,-182.87 503.09,-189.63"/>
</a>
</g>
</g>
<!-- Node16 -->
<g id="Node000016" class="node">
<title>Node16</title>
<g id="a_Node000016"><a xlink:href="../../d7/d62/class_slic3r_1_1_g_u_i_1_1_fan_control.html#aa7dce3cf1847b47986d5933d7e2678a3" target="_top" xlink:title=" ">
<polygon fill="white" stroke="#666666" points="591.62,-165.5 472.88,-165.5 472.88,-135 591.62,-135 591.62,-165.5"/>
<text text-anchor="start" x="480.88" y="-152" font-family="Helvetica,sans-Serif" font-size="10.00">Slic3r::GUI::FanControl</text>
<text text-anchor="middle" x="532.25" y="-140.75" font-family="Helvetica,sans-Serif" font-size="10.00">::post_event</text>
</a>
</g>
</g>
<!-- Node3&#45;&gt;Node16 -->
<g id="edge13_Node000003_Node000016" class="edge">
<title>Node3&#45;&gt;Node16</title>
<g id="a_edge13_Node000003_Node000016"><a xlink:title=" ">
<path fill="none" stroke="#63b8ff" d="M428.59,-150.25C439.34,-150.25 450.65,-150.25 461.68,-150.25"/>
<polygon fill="#63b8ff" stroke="#63b8ff" points="461.58,-153.75 471.58,-150.25 461.58,-146.75 461.58,-153.75"/>
</a>
</g>
</g>
<!-- Node5 -->
<g id="Node000005" class="node">
<title>Node5</title>
<g id="a_Node000005"><a xlink:href="../../dc/d24/class_slic3r_1_1_machine_object.html#a6e796db0760bf1976d6d6e22fd0a0075" target="_top" xlink:title=" ">
<polygon fill="white" stroke="#666666" points="748.25,-251.5 636.25,-251.5 636.25,-221 748.25,-221 748.25,-251.5"/>
<text text-anchor="start" x="644.25" y="-238" font-family="Helvetica,sans-Serif" font-size="10.00">Slic3r::MachineObject</text>
<text text-anchor="middle" x="692.25" y="-226.75" font-family="Helvetica,sans-Serif" font-size="10.00">::publish_gcode</text>
</a>
</g>
</g>
<!-- Node4&#45;&gt;Node5 -->
<g id="edge4_Node000004_Node000005" class="edge">
<title>Node4&#45;&gt;Node5</title>
<g id="a_edge4_Node000004_Node000005"><a xlink:title=" ">
<path fill="none" stroke="#63b8ff" d="M600.71,-236.25C608.79,-236.25 617.02,-236.25 625.08,-236.25"/>
<polygon fill="#63b8ff" stroke="#63b8ff" points="624.92,-239.75 634.92,-236.25 624.92,-232.75 624.92,-239.75"/>
</a>
</g>
</g>
<!-- Node6 -->
<g id="Node000006" class="node">
<title>Node6</title>
<g id="a_Node000006"><a xlink:href="../../d9/dcc/classnlohmann_1_1basic__json.html#a476756fb08e7f2416aad116d137977f4" target="_top" xlink:title="serialization">
<polygon fill="white" stroke="#666666" points="895.5,-325.5 785,-325.5 785,-295 895.5,-295 895.5,-325.5"/>
<text text-anchor="start" x="793" y="-312" font-family="Helvetica,sans-Serif" font-size="10.00">nlohmann::basic_json</text>
<text text-anchor="middle" x="840.25" y="-300.75" font-family="Helvetica,sans-Serif" font-size="10.00">::dump</text>
</a>
</g>
</g>
<!-- Node5&#45;&gt;Node6 -->
<g id="edge5_Node000005_Node000006" class="edge">
<title>Node5&#45;&gt;Node6</title>
<g id="a_edge5_Node000005_Node000006"><a xlink:title=" ">
<path fill="none" stroke="#63b8ff" d="M721.28,-251.97C739.14,-261.84 762.87,-274.65 784.25,-285.25 787.4,-286.81 790.66,-288.39 793.96,-289.96"/>
<polygon fill="#63b8ff" stroke="#63b8ff" points="792.33,-293.53 802.88,-294.6 795.3,-287.19 792.33,-293.53"/>
</a>
</g>
</g>
<!-- Node7 -->
<g id="Node000007" class="node">
<title>Node7</title>
<g id="a_Node000007"><a xlink:href="../../d7/daf/class_slic3r_1_1_network_agent.html#adf872f1763a697f3f882854d3c5a1324" target="_top" xlink:title=" ">
<polygon fill="white" stroke="#666666" points="894.75,-276.5 785.75,-276.5 785.75,-246 894.75,-246 894.75,-276.5"/>
<text text-anchor="start" x="793.75" y="-263" font-family="Helvetica,sans-Serif" font-size="10.00">Slic3r::NetworkAgent</text>
<text text-anchor="middle" x="840.25" y="-251.75" font-family="Helvetica,sans-Serif" font-size="10.00">::get_user_id</text>
</a>
</g>
</g>
<!-- Node5&#45;&gt;Node7 -->
<g id="edge6_Node000005_Node000007" class="edge">
<title>Node5&#45;&gt;Node7</title>
<g id="a_edge6_Node000005_Node000007"><a xlink:title=" ">
<path fill="none" stroke="#63b8ff" d="M748.45,-245.7C757.06,-247.18 766.02,-248.71 774.82,-250.22"/>
<polygon fill="#63b8ff" stroke="#63b8ff" points="773.98,-253.8 784.43,-252.03 775.16,-246.9 773.98,-253.8"/>
</a>
</g>
</g>
<!-- Node8 -->
<g id="Node000008" class="node">
<title>Node8</title>
<g id="a_Node000008"><a xlink:href="../../dc/d24/class_slic3r_1_1_machine_object.html#ade0d002135681d1324249eda765ddac3" target="_top" xlink:title=" ">
<polygon fill="white" stroke="#666666" points="896.25,-227.5 784.25,-227.5 784.25,-197 896.25,-197 896.25,-227.5"/>
<text text-anchor="start" x="792.25" y="-214" font-family="Helvetica,sans-Serif" font-size="10.00">Slic3r::MachineObject</text>
<text text-anchor="middle" x="840.25" y="-202.75" font-family="Helvetica,sans-Serif" font-size="10.00">::publish_json</text>
</a>
</g>
</g>
<!-- Node5&#45;&gt;Node8 -->
<g id="edge7_Node000005_Node000008" class="edge">
<title>Node5&#45;&gt;Node8</title>
<g id="a_edge7_Node000005_Node000008"><a xlink:title=" ">
<path fill="none" stroke="#63b8ff" d="M748.45,-227.18C756.53,-225.85 764.93,-224.47 773.2,-223.11"/>
<polygon fill="#63b8ff" stroke="#63b8ff" points="773.68,-226.41 782.98,-221.34 772.54,-219.5 773.68,-226.41"/>
</a>
</g>
</g>
<!-- Node14 -->
<g id="Node000014" class="node">
<title>Node14</title>
<g id="a_Node000014"><a xlink:href="../../d7/daf/class_slic3r_1_1_network_agent.html#a91a2ef99b273ad7c180541158d965320" target="_top" xlink:title=" ">
<polygon fill="white" stroke="#666666" points="894.75,-178.5 785.75,-178.5 785.75,-148 894.75,-148 894.75,-178.5"/>
<text text-anchor="start" x="793.75" y="-165" font-family="Helvetica,sans-Serif" font-size="10.00">Slic3r::NetworkAgent</text>
<text text-anchor="middle" x="840.25" y="-153.75" font-family="Helvetica,sans-Serif" font-size="10.00">::track_event</text>
</a>
</g>
</g>
<!-- Node5&#45;&gt;Node14 -->
<g id="edge11_Node000005_Node000014" class="edge">
<title>Node5&#45;&gt;Node14</title>
<g id="a_edge11_Node000005_Node000014"><a xlink:title=" ">
<path fill="none" stroke="#63b8ff" d="M721.72,-220.68C739.55,-211.07 763.08,-198.63 784.25,-188.25 787.4,-186.7 790.68,-185.13 793.98,-183.57"/>
<polygon fill="#63b8ff" stroke="#63b8ff" points="795.31,-186.35 802.9,-178.95 792.35,-180 795.31,-186.35"/>
</a>
</g>
</g>
<!-- Node9 -->
<g id="Node000009" class="node">
<title>Node9</title>
<g id="a_Node000009"><a xlink:href="../../dc/d24/class_slic3r_1_1_machine_object.html#ae1afb548f6934d4fba8f6840c9bd485b" target="_top" xlink:title=" ">
<polygon fill="#fff0f0" stroke="red" points="1044.25,-276.5 932.25,-276.5 932.25,-246 1044.25,-246 1044.25,-276.5"/>
<text text-anchor="start" x="940.25" y="-263" font-family="Helvetica,sans-Serif" font-size="10.00">Slic3r::MachineObject</text>
<text text-anchor="middle" x="988.25" y="-251.75" font-family="Helvetica,sans-Serif" font-size="10.00">::cloud_publish_json</text>
</a>
</g>
</g>
<!-- Node8&#45;&gt;Node9 -->
<g id="edge8_Node000008_Node000009" class="edge">
<title>Node8&#45;&gt;Node9</title>
<g id="a_edge8_Node000008_Node000009"><a xlink:title=" ">
<path fill="none" stroke="#63b8ff" d="M887.85,-227.89C901.34,-232.42 916.23,-237.42 930.29,-242.13"/>
<polygon fill="#63b8ff" stroke="#63b8ff" points="928.75,-245.64 939.34,-245.51 930.98,-239.01 928.75,-245.64"/>
</a>
</g>
</g>
<!-- Node11 -->
<g id="Node000011" class="node">
<title>Node11</title>
<g id="a_Node000011"><a xlink:href="../../dc/d24/class_slic3r_1_1_machine_object.html#aba1eee500ff3251d244a2cbec8e93fae" target="_top" xlink:title=" ">
<polygon fill="white" stroke="#666666" points="1044.25,-227.5 932.25,-227.5 932.25,-197 1044.25,-197 1044.25,-227.5"/>
<text text-anchor="start" x="940.25" y="-214" font-family="Helvetica,sans-Serif" font-size="10.00">Slic3r::MachineObject</text>
<text text-anchor="middle" x="988.25" y="-202.75" font-family="Helvetica,sans-Serif" font-size="10.00">::is_lan_mode_printer</text>
</a>
</g>
</g>
<!-- Node8&#45;&gt;Node11 -->
<g id="edge9_Node000008_Node000011" class="edge">
<title>Node8&#45;&gt;Node11</title>
<g id="a_edge9_Node000008_Node000011"><a xlink:title=" ">
<path fill="none" stroke="#63b8ff" d="M896.45,-212.25C904.53,-212.25 912.93,-212.25 921.2,-212.25"/>
<polygon fill="#63b8ff" stroke="#63b8ff" points="920.98,-215.75 930.98,-212.25 920.98,-208.75 920.98,-215.75"/>
</a>
</g>
</g>
<!-- Node12 -->
<g id="Node000012" class="node">
<title>Node12</title>
<g id="a_Node000012"><a xlink:href="../../dc/d24/class_slic3r_1_1_machine_object.html#a097b9f2ab8ef7b440a536f56bdafcdcb" target="_top" xlink:title=" ">
<polygon fill="#fff0f0" stroke="red" points="1044.25,-178.5 932.25,-178.5 932.25,-148 1044.25,-148 1044.25,-178.5"/>
<text text-anchor="start" x="940.25" y="-165" font-family="Helvetica,sans-Serif" font-size="10.00">Slic3r::MachineObject</text>
<text text-anchor="middle" x="988.25" y="-153.75" font-family="Helvetica,sans-Serif" font-size="10.00">::local_publish_json</text>
</a>
</g>
</g>
<!-- Node8&#45;&gt;Node12 -->
<g id="edge10_Node000008_Node000012" class="edge">
<title>Node8&#45;&gt;Node12</title>
<g id="a_edge10_Node000008_Node000012"><a xlink:title=" ">
<path fill="none" stroke="#63b8ff" d="M887.85,-196.61C901.34,-192.08 916.23,-187.08 930.29,-182.37"/>
<polygon fill="#63b8ff" stroke="#63b8ff" points="930.98,-185.49 939.34,-178.99 928.75,-178.86 930.98,-185.49"/>
</a>
</g>
</g>
<!-- Node17&#45;&gt;Node2 -->
<g id="edge15_Node000017_Node000002" class="edge">
<title>Node17&#45;&gt;Node2</title>
<g id="a_edge15_Node000017_Node000002"><a xlink:title=" ">
<path fill="none" stroke="#63b8ff" d="M233.56,-122.92C251.84,-137.81 281.14,-159.98 309.5,-174.25 313.2,-176.11 317.12,-177.84 321.1,-179.44"/>
<polygon fill="#63b8ff" stroke="#63b8ff" points="319.48,-182.94 330.07,-183.15 321.92,-176.38 319.48,-182.94"/>
</a>
</g>
</g>
<!-- Node17&#45;&gt;Node3 -->
<g id="edge16_Node000017_Node000003" class="edge">
<title>Node17&#45;&gt;Node3</title>
<g id="a_edge16_Node000017_Node000003"><a xlink:title=" ">
<path fill="none" stroke="#63b8ff" d="M270.7,-122.9C280.71,-125.71 291.22,-128.67 301.5,-131.56"/>
<polygon fill="#63b8ff" stroke="#63b8ff" points="300.51,-135.2 311.08,-134.54 302.4,-128.47 300.51,-135.2"/>
</a>
</g>
</g>
<!-- Node18 -->
<g id="Node000018" class="node">
<title>Node18</title>
<g id="a_Node000018"><a xlink:href="../../d7/d62/class_slic3r_1_1_g_u_i_1_1_fan_control.html#af2c2e8dfddd188971adb6d0731976e3c" target="_top" xlink:title=" ">
<polygon fill="white" stroke="#666666" points="428.25,-116.5 309.5,-116.5 309.5,-86 428.25,-86 428.25,-116.5"/>
<text text-anchor="start" x="317.5" y="-103" font-family="Helvetica,sans-Serif" font-size="10.00">Slic3r::GUI::FanControl</text>
<text text-anchor="middle" x="368.88" y="-91.75" font-family="Helvetica,sans-Serif" font-size="10.00">::set_fan_speed</text>
</a>
</g>
</g>
<!-- Node17&#45;&gt;Node18 -->
<g id="edge17_Node000017_Node000018" class="edge">
<title>Node17&#45;&gt;Node18</title>
<g id="a_edge17_Node000017_Node000018"><a xlink:title=" ">
<path fill="none" stroke="#63b8ff" d="M273.75,-98.36C281.82,-97.89 290.17,-97.52 298.42,-97.25"/>
<polygon fill="#63b8ff" stroke="#63b8ff" points="298.26,-100.73 308.16,-96.97 298.07,-93.73 298.26,-100.73"/>
</a>
</g>
</g>
<!-- Node18&#45;&gt;Node17 -->
<g id="edge18_Node000018_Node000017" class="edge">
<title>Node18&#45;&gt;Node17</title>
<g id="a_edge18_Node000018_Node000017"><a xlink:title=" ">
<path fill="none" stroke="#63b8ff" d="M309.16,-110.14C301.08,-110.61 292.73,-110.99 284.49,-111.25"/>
<polygon fill="#63b8ff" stroke="#63b8ff" points="284.65,-107.77 274.75,-111.53 284.83,-114.77 284.65,-107.77"/>
</a>
</g>
</g>
<!-- Node19 -->
<g id="Node000019" class="node">
<title>Node19</title>
<g id="a_Node000019"><a xlink:href="../../d4/df0/_array_cwise_unary_ops_8h.html#ac805f9c4e64d7f48898ac876c0a541e7" target="_top" xlink:title=" ">
<polygon fill="white" stroke="#666666" points="552.25,-116.88 512.25,-116.88 512.25,-97.62 552.25,-97.62 552.25,-116.88"/>
<text text-anchor="middle" x="532.25" y="-103.38" font-family="Helvetica,sans-Serif" font-size="10.00">round</text>
</a>
</g>
</g>
<!-- Node18&#45;&gt;Node19 -->
<g id="edge19_Node000018_Node000019" class="edge">
<title>Node18&#45;&gt;Node19</title>
<g id="a_edge19_Node000018_Node000019"><a xlink:title=" ">
<path fill="none" stroke="#63b8ff" d="M428.59,-103.43C453.27,-104.35 480.91,-105.38 501.29,-106.14"/>
<polygon fill="#63b8ff" stroke="#63b8ff" points="500.96,-109.66 511.08,-106.54 501.22,-102.67 500.96,-109.66"/>
</a>
</g>
</g>
<!-- Node18&#45;&gt;Node20 -->
<g id="edge20_Node000018_Node000020" class="edge">
<title>Node18&#45;&gt;Node20</title>
<g id="a_edge20_Node000018_Node000020"><a xlink:title=" ">
<path fill="none" stroke="#63b8ff" d="M391.2,-85.56C409.82,-72.32 437.93,-53.47 464.25,-40.25 467.79,-38.47 471.48,-36.75 475.24,-35.1"/>
<polygon fill="#63b8ff" stroke="#63b8ff" points="476.4,-37.99 484.27,-30.89 473.7,-31.53 476.4,-37.99"/>
</a>
</g>
</g>
<!-- Node21 -->
<g id="Node000021" class="node">
<title>Node21</title>
<g id="a_Node000021"><a xlink:href="../../dc/d2d/class_slic3r_1_1_g_u_i_1_1_fan_operate.html#a26d02344b539fe9cf0a4c14d2947990c" target="_top" xlink:title=" ">
<polygon fill="white" stroke="#666666" points="593.12,-79.5 471.38,-79.5 471.38,-49 593.12,-49 593.12,-79.5"/>
<text text-anchor="start" x="479.38" y="-66" font-family="Helvetica,sans-Serif" font-size="10.00">Slic3r::GUI::FanOperate</text>
<text text-anchor="middle" x="532.25" y="-54.75" font-family="Helvetica,sans-Serif" font-size="10.00">::set_fan_speeds</text>
</a>
</g>
</g>
<!-- Node18&#45;&gt;Node21 -->
<g id="edge21_Node000018_Node000021" class="edge">
<title>Node18&#45;&gt;Node21</title>
<g id="a_edge21_Node000018_Node000021"><a xlink:title=" ">
<path fill="none" stroke="#63b8ff" d="M428.59,-87.79C438.93,-85.42 449.8,-82.93 460.43,-80.49"/>
<polygon fill="#63b8ff" stroke="#63b8ff" points="460.99,-83.72 469.95,-78.08 459.42,-76.9 460.99,-83.72"/>
</a>
</g>
</g>
</g>
</svg>

<g id="navigator" transform="translate(0 0)" fill="#404254">
  <rect fill="#f2f5e9" fill-opacity="0.5" stroke="#606060" stroke-width=".5" x="0" y="0" width="60" height="60"/>
  <use id="zoomplus" xlink:href="#zoomPlus" x="17" y="9" onmousedown="handleZoom(evt,'in')"/>
  <use id="zoomminus" xlink:href="#zoomMin" x="42" y="9" onmousedown="handleZoom(evt,'out')"/>
  <use id="reset" xlink:href="#resetDef" x="30" y="36" onmousedown="handleReset()"/>
   <use id="arrowup" xlink:href="#arrowUp" x="0" y="0" onmousedown="handlePan(0,-1)"/>
  <use id="arrowright" xlink:href="#arrowRight" x="0" y="0" onmousedown="handlePan(1,0)"/>
  <use id="arrowdown" xlink:href="#arrowDown" x="0" y="0" onmousedown="handlePan(0,1)"/>
  <use id="arrowleft" xlink:href="#arrowLeft" x="0" y="0" onmousedown="handlePan(-1,0)"/>
</g>
<svg viewBox="0 0 15 15" width="100%" height="30px" preserveAspectRatio="xMaxYMin meet">
 <g id="arrow_out" transform="scale(0.3 0.3)">
  <a xlink:href="class_slic3r_1_1_g_u_i_1_1_fan_control_a716c6cf10ac5a6c9af3a26bdba0eb050_cgraph_org.svg" target="_base">
   <rect id="button" ry="5" rx="5" y="6" x="6" height="38" width="38"
        fill="#f2f5e9" fill-opacity="0.5" stroke="#606060" stroke-width="1.0"/>
   <path id="arrow"
     d="M 11.500037,31.436501 C 11.940474,20.09759 22.043105,11.32322 32.158766,21.979434 L 37.068811,17.246167 C 37.068811,17.246167 37.088388,32 37.088388,32 L 22.160133,31.978069 C 22.160133,31.978069 26.997745,27.140456 26.997745,27.140456 C 18.528582,18.264221 13.291696,25.230495 11.500037,31.436501 z"
     style="fill:#404040;"/>
  </a>
 </g>
</svg>

<style type='text/css'>
<![CDATA[
[data-mouse-over-selected='false'] { opacity: 0.7; }
[data-mouse-over-selected='true']  { opacity: 1.0; }
]]>
</style>
<script type="application/ecmascript"><![CDATA[
document.addEventListener('DOMContentLoaded', (event) => {
  highlightEdges();
  highlightAdjacentNodes();
});
]]></script>
</svg>
