<?xml version="1.0" encoding="UTF-8" standalone="no"?>
<!DOCTYPE svg PUBLIC "-//W3C//DTD SVG 1.1//EN"
 "http://www.w3.org/Graphics/SVG/1.1/DTD/svg11.dtd">
<!-- Generated by graphviz version 8.1.0 (20230707.0739)
 -->
<!-- Title: facetT Pages: 1 -->
<svg width="113pt" height="209pt"
 viewBox="0.00 0.00 112.88 208.50" xmlns="http://www.w3.org/2000/svg" xmlns:xlink="http://www.w3.org/1999/xlink">
<g id="graph0" class="graph" transform="scale(1 1) rotate(0) translate(4 204.5)">
<title>facetT</title>
<!-- Node1 -->
<g id="Node000001" class="node">
<title>Node1</title>
<g id="a_Node000001"><a xlink:title=" ">
<polygon fill="#999999" stroke="#666666" points="50.12,-20.88 6.38,-20.88 6.38,-1.62 50.12,-1.62 50.12,-20.88"/>
<text text-anchor="middle" x="28.25" y="-7.38" font-family="Helvetica,sans-Serif" font-size="10.00">facetT</text>
</a>
</g>
</g>
<!-- Node1&#45;&gt;Node1 -->
<g id="edge1_Node000001_Node000001" class="edge">
<title>Node1&#45;&gt;Node1</title>
<g id="a_edge1_Node000001_Node000001"><a xlink:title=" ">
<path fill="none" stroke="#9a32cd" stroke-dasharray="5,2" d="M57.46,-21.66C63.65,-20.6 68.12,-17.13 68.12,-11.25 68.12,-2.29 57.74,1.08 46.71,-1.16"/>
<polygon fill="#9a32cd" stroke="#9a32cd" points="57.81,-18.14 47.71,-21.34 57.6,-25.14 57.81,-18.14"/>
</a>
</g>
<text text-anchor="middle" x="86.5" y="-13" font-family="Helvetica,sans-Serif" font-size="10.00" fill="grey"> next</text>
<text text-anchor="middle" x="86.5" y="-1.75" font-family="Helvetica,sans-Serif" font-size="10.00" fill="grey">previous</text>
</g>
<!-- Node2 -->
<g id="Node000002" class="node">
<title>Node2</title>
<g id="a_Node000002"><a xlink:href="../../d5/de0/qset__r_8h.html#da/da7/structset_t" target="_top" xlink:title=" ">
<polygon fill="white" stroke="#666666" points="46,-134 10.5,-134 10.5,-114.75 46,-114.75 46,-134"/>
<text text-anchor="middle" x="28.25" y="-120.5" font-family="Helvetica,sans-Serif" font-size="10.00">setT</text>
</a>
</g>
</g>
<!-- Node2&#45;&gt;Node1 -->
<g id="edge2_Node000001_Node000002" class="edge">
<title>Node2&#45;&gt;Node1</title>
<g id="a_edge2_Node000001_Node000002"><a xlink:title=" ">
<path fill="none" stroke="#9a32cd" stroke-dasharray="5,2" d="M28.25,-103.48C28.25,-79.12 28.25,-38.92 28.25,-21.16"/>
<polygon fill="#9a32cd" stroke="#9a32cd" points="24.75,-103.28 28.25,-113.28 31.75,-103.28 24.75,-103.28"/>
</a>
</g>
<text text-anchor="middle" x="54.88" y="-87.25" font-family="Helvetica,sans-Serif" font-size="10.00" fill="grey"> coplanarset</text>
<text text-anchor="middle" x="54.88" y="-76" font-family="Helvetica,sans-Serif" font-size="10.00" fill="grey">neighbors</text>
<text text-anchor="middle" x="54.88" y="-64.75" font-family="Helvetica,sans-Serif" font-size="10.00" fill="grey">outsideset</text>
<text text-anchor="middle" x="54.88" y="-53.5" font-family="Helvetica,sans-Serif" font-size="10.00" fill="grey">ridges</text>
<text text-anchor="middle" x="54.88" y="-42.25" font-family="Helvetica,sans-Serif" font-size="10.00" fill="grey">vertices</text>
</g>
<!-- Node3 -->
<g id="Node000003" class="node">
<title>Node3</title>
<g id="a_Node000003"><a xlink:href="../../d5/de0/qset__r_8h.html#da/d12/unionsetelem_t" target="_top" xlink:title=" ">
<polygon fill="white" stroke="#666666" points="56.5,-200.5 0,-200.5 0,-181.25 56.5,-181.25 56.5,-200.5"/>
<text text-anchor="middle" x="28.25" y="-187" font-family="Helvetica,sans-Serif" font-size="10.00">setelemT</text>
</a>
</g>
</g>
<!-- Node3&#45;&gt;Node2 -->
<g id="edge3_Node000002_Node000003" class="edge">
<title>Node3&#45;&gt;Node2</title>
<g id="a_edge3_Node000002_Node000003"><a xlink:title=" ">
<path fill="none" stroke="#9a32cd" stroke-dasharray="5,2" d="M28.25,-170.15C28.25,-158.18 28.25,-143.48 28.25,-134.27"/>
<polygon fill="#9a32cd" stroke="#9a32cd" points="24.75,-169.91 28.25,-179.91 31.75,-169.91 24.75,-169.91"/>
</a>
</g>
<text text-anchor="middle" x="32.38" y="-153.75" font-family="Helvetica,sans-Serif" font-size="10.00" fill="grey"> e</text>
</g>
</g>
</svg>
