<?xml version="1.0" encoding="UTF-8" standalone="no"?>
<!DOCTYPE svg PUBLIC "-//W3C//DTD SVG 1.1//EN"
 "http://www.w3.org/Graphics/SVG/1.1/DTD/svg11.dtd">
<!-- Generated by graphviz version 8.1.0 (20230707.0739)
 -->
<!-- Title: src/libigl/igl/dated_copy.cpp Pages: 1 -->
<svg width="722pt" height="260pt"
 viewBox="0.00 0.00 722.30 259.50" xmlns="http://www.w3.org/2000/svg" xmlns:xlink="http://www.w3.org/1999/xlink">
<g id="graph0" class="graph" transform="scale(1 1) rotate(0) translate(4 255.5)">
<title>src/libigl/igl/dated_copy.cpp</title>
<!-- Node1 -->
<g id="Node000001" class="node">
<title>Node1</title>
<g id="a_Node000001"><a xlink:title=" ">
<polygon fill="#999999" stroke="#666666" points="400.93,-251.5 309.18,-251.5 309.18,-221 400.93,-221 400.93,-251.5"/>
<text text-anchor="start" x="317.18" y="-238" font-family="Helvetica,sans-Serif" font-size="10.00">src/libigl/igl/dated</text>
<text text-anchor="middle" x="355.05" y="-226.75" font-family="Helvetica,sans-Serif" font-size="10.00">_copy.cpp</text>
</a>
</g>
</g>
<!-- Node2 -->
<g id="Node000002" class="node">
<title>Node2</title>
<g id="a_Node000002"><a xlink:href="../../d7/da8/dated__copy_8h.html" target="_top" xlink:title=" ">
<polygon fill="white" stroke="#666666" points="122.55,-185 49.55,-185 49.55,-165.75 122.55,-165.75 122.55,-185"/>
<text text-anchor="middle" x="86.05" y="-171.5" font-family="Helvetica,sans-Serif" font-size="10.00">dated_copy.h</text>
</a>
</g>
</g>
<!-- Node1&#45;&gt;Node2 -->
<g id="edge1_Node000001_Node000002" class="edge">
<title>Node1&#45;&gt;Node2</title>
<g id="a_edge1_Node000001_Node000002"><a xlink:title=" ">
<path fill="none" stroke="#63b8ff" d="M308.88,-226.24C259.71,-215.95 182.48,-199.08 133.01,-187.85"/>
<polygon fill="#63b8ff" stroke="#63b8ff" points="134.12,-184.29 123.6,-185.48 132.57,-191.11 134.12,-184.29"/>
</a>
</g>
</g>
<!-- Node5 -->
<g id="Node000005" class="node">
<title>Node5</title>
<g id="a_Node000005"><a xlink:href="../../de/da2/dirname_8h.html" target="_top" xlink:title=" ">
<polygon fill="white" stroke="#666666" points="286.43,-185 227.68,-185 227.68,-165.75 286.43,-165.75 286.43,-185"/>
<text text-anchor="middle" x="257.05" y="-171.5" font-family="Helvetica,sans-Serif" font-size="10.00">dirname.h</text>
</a>
</g>
</g>
<!-- Node1&#45;&gt;Node5 -->
<g id="edge5_Node000001_Node000005" class="edge">
<title>Node1&#45;&gt;Node5</title>
<g id="a_edge5_Node000001_Node000005"><a xlink:title=" ">
<path fill="none" stroke="#63b8ff" d="M330.58,-220.55C315.51,-211.49 296.27,-199.94 281.26,-190.91"/>
<polygon fill="#63b8ff" stroke="#63b8ff" points="283.46,-187.55 273.08,-185.4 279.85,-193.55 283.46,-187.55"/>
</a>
</g>
</g>
<!-- Node10 -->
<g id="Node000010" class="node">
<title>Node10</title>
<g id="a_Node000010"><a xlink:href="../../d2/dd3/basename_8h.html" target="_top" xlink:title=" ">
<polygon fill="white" stroke="#666666" points="209.68,-185 140.43,-185 140.43,-165.75 209.68,-165.75 209.68,-185"/>
<text text-anchor="middle" x="175.05" y="-171.5" font-family="Helvetica,sans-Serif" font-size="10.00">basename.h</text>
</a>
</g>
</g>
<!-- Node1&#45;&gt;Node10 -->
<g id="edge14_Node000001_Node000010" class="edge">
<title>Node1&#45;&gt;Node10</title>
<g id="a_edge14_Node000001_Node000010"><a xlink:title=" ">
<path fill="none" stroke="#63b8ff" d="M310.1,-220.55C280.27,-210.79 241.56,-198.13 213.23,-188.86"/>
<polygon fill="#63b8ff" stroke="#63b8ff" points="214.52,-185.27 203.92,-185.49 212.34,-191.93 214.52,-185.27"/>
</a>
</g>
</g>
<!-- Node12 -->
<g id="Node000012" class="node">
<title>Node12</title>
<g id="a_Node000012"><a xlink:title=" ">
<polygon fill="#e0e0e0" stroke="#999999" points="344.05,-185 304.05,-185 304.05,-165.75 344.05,-165.75 344.05,-185"/>
<text text-anchor="middle" x="324.05" y="-171.5" font-family="Helvetica,sans-Serif" font-size="10.00">ctime</text>
</a>
</g>
</g>
<!-- Node1&#45;&gt;Node12 -->
<g id="edge20_Node000001_Node000012" class="edge">
<title>Node1&#45;&gt;Node12</title>
<g id="a_edge20_Node000001_Node000012"><a xlink:title=" ">
<path fill="none" stroke="#63b8ff" d="M347.39,-220.7C343.31,-212.94 338.24,-203.31 333.87,-195.01"/>
<polygon fill="#63b8ff" stroke="#63b8ff" points="336.59,-193.67 328.83,-186.45 330.39,-196.93 336.59,-193.67"/>
</a>
</g>
</g>
<!-- Node13 -->
<g id="Node000013" class="node">
<title>Node13</title>
<g id="a_Node000013"><a xlink:title=" ">
<polygon fill="#e0e0e0" stroke="#999999" points="411.55,-185 362.55,-185 362.55,-165.75 411.55,-165.75 411.55,-185"/>
<text text-anchor="middle" x="387.05" y="-171.5" font-family="Helvetica,sans-Serif" font-size="10.00">fstream</text>
</a>
</g>
</g>
<!-- Node1&#45;&gt;Node13 -->
<g id="edge21_Node000001_Node000013" class="edge">
<title>Node1&#45;&gt;Node13</title>
<g id="a_edge21_Node000001_Node000013"><a xlink:title=" ">
<path fill="none" stroke="#63b8ff" d="M362.96,-220.7C367.18,-212.94 372.41,-203.31 376.92,-195.01"/>
<polygon fill="#63b8ff" stroke="#63b8ff" points="380.42,-196.91 382.12,-186.45 374.27,-193.57 380.42,-196.91"/>
</a>
</g>
</g>
<!-- Node14 -->
<g id="Node000014" class="node">
<title>Node14</title>
<g id="a_Node000014"><a xlink:title=" ">
<polygon fill="#e0e0e0" stroke="#999999" points="496.55,-185 429.55,-185 429.55,-165.75 496.55,-165.75 496.55,-185"/>
<text text-anchor="middle" x="463.05" y="-171.5" font-family="Helvetica,sans-Serif" font-size="10.00">sys/types.h</text>
</a>
</g>
</g>
<!-- Node1&#45;&gt;Node14 -->
<g id="edge22_Node000001_Node000014" class="edge">
<title>Node1&#45;&gt;Node14</title>
<g id="a_edge22_Node000001_Node000014"><a xlink:title=" ">
<path fill="none" stroke="#63b8ff" d="M382.03,-220.55C398.79,-211.41 420.24,-199.72 436.85,-190.66"/>
<polygon fill="#63b8ff" stroke="#63b8ff" points="438.39,-193.26 445.49,-185.4 435.04,-187.12 438.39,-193.26"/>
</a>
</g>
</g>
<!-- Node15 -->
<g id="Node000015" class="node">
<title>Node15</title>
<g id="a_Node000015"><a xlink:title=" ">
<polygon fill="#e0e0e0" stroke="#999999" points="573.8,-185 514.3,-185 514.3,-165.75 573.8,-165.75 573.8,-185"/>
<text text-anchor="middle" x="544.05" y="-171.5" font-family="Helvetica,sans-Serif" font-size="10.00">sys/stat.h</text>
</a>
</g>
</g>
<!-- Node1&#45;&gt;Node15 -->
<g id="edge23_Node000001_Node000015" class="edge">
<title>Node1&#45;&gt;Node15</title>
<g id="a_edge23_Node000001_Node000015"><a xlink:title=" ">
<path fill="none" stroke="#63b8ff" d="M401.29,-220.85C432.96,-210.98 474.52,-198.03 504.63,-188.66"/>
<polygon fill="#63b8ff" stroke="#63b8ff" points="505.26,-191.81 513.77,-185.5 503.18,-185.13 505.26,-191.81"/>
</a>
</g>
</g>
<!-- Node16 -->
<g id="Node000016" class="node">
<title>Node16</title>
<g id="a_Node000016"><a xlink:title=" ">
<polygon fill="#e0e0e0" stroke="#999999" points="645.8,-185 592.3,-185 592.3,-165.75 645.8,-165.75 645.8,-185"/>
<text text-anchor="middle" x="619.05" y="-171.5" font-family="Helvetica,sans-Serif" font-size="10.00">iostream</text>
</a>
</g>
</g>
<!-- Node1&#45;&gt;Node16 -->
<g id="edge24_Node000001_Node000016" class="edge">
<title>Node1&#45;&gt;Node16</title>
<g id="a_edge24_Node000001_Node000016"><a xlink:title=" ">
<path fill="none" stroke="#63b8ff" d="M401.4,-225.3C445.25,-215.82 513.2,-200.98 581.43,-185.34"/>
<polygon fill="#63b8ff" stroke="#63b8ff" points="581.98,-188.58 590.94,-182.93 580.41,-181.76 581.98,-188.58"/>
</a>
</g>
</g>
<!-- Node17 -->
<g id="Node000017" class="node">
<title>Node17</title>
<g id="a_Node000017"><a xlink:title=" ">
<polygon fill="#e0e0e0" stroke="#999999" points="714.3,-185 663.8,-185 663.8,-165.75 714.3,-165.75 714.3,-185"/>
<text text-anchor="middle" x="689.05" y="-171.5" font-family="Helvetica,sans-Serif" font-size="10.00">unistd.h</text>
</a>
</g>
</g>
<!-- Node1&#45;&gt;Node17 -->
<g id="edge25_Node000001_Node000017" class="edge">
<title>Node1&#45;&gt;Node17</title>
<g id="a_edge25_Node000001_Node000017"><a xlink:title=" ">
<path fill="none" stroke="#63b8ff" d="M401.27,-228.72C458.25,-220.4 558.22,-204.94 652.87,-185.32"/>
<polygon fill="#63b8ff" stroke="#63b8ff" points="653.42,-188.58 662.49,-183.1 651.98,-181.72 653.42,-188.58"/>
</a>
</g>
</g>
<!-- Node2&#45;&gt;Node1 -->
<g id="edge4_Node000002_Node000001" class="edge">
<title>Node2&#45;&gt;Node1</title>
<g id="a_edge4_Node000002_Node000001"><a xlink:title=" ">
<path fill="none" stroke="#63b8ff" d="M122.99,-183.46C168.36,-192.86 245.54,-209.66 298.39,-221.58"/>
<polygon fill="#63b8ff" stroke="#63b8ff" points="297.43,-225.17 307.95,-223.97 298.97,-218.35 297.43,-225.17"/>
</a>
</g>
</g>
<!-- Node3 -->
<g id="Node000003" class="node">
<title>Node3</title>
<g id="a_Node000003"><a xlink:href="../../d6/d68/igl__inline_8h.html" target="_top" xlink:title=" ">
<polygon fill="white" stroke="#666666" points="116.93,-129.75 55.18,-129.75 55.18,-110.5 116.93,-110.5 116.93,-129.75"/>
<text text-anchor="middle" x="86.05" y="-116.25" font-family="Helvetica,sans-Serif" font-size="10.00">igl_inline.h</text>
</a>
</g>
</g>
<!-- Node2&#45;&gt;Node3 -->
<g id="edge2_Node000002_Node000003" class="edge">
<title>Node2&#45;&gt;Node3</title>
<g id="a_edge2_Node000002_Node000003"><a xlink:title=" ">
<path fill="none" stroke="#63b8ff" d="M86.05,-165.58C86.05,-158.92 86.05,-149.49 86.05,-141.03"/>
<polygon fill="#63b8ff" stroke="#63b8ff" points="89.55,-141.11 86.05,-131.11 82.55,-141.11 89.55,-141.11"/>
</a>
</g>
</g>
<!-- Node4 -->
<g id="Node000004" class="node">
<title>Node4</title>
<g id="a_Node000004"><a xlink:title=" ">
<polygon fill="#e0e0e0" stroke="#999999" points="138.05,-19.25 98.05,-19.25 98.05,0 138.05,0 138.05,-19.25"/>
<text text-anchor="middle" x="118.05" y="-5.75" font-family="Helvetica,sans-Serif" font-size="10.00">string</text>
</a>
</g>
</g>
<!-- Node2&#45;&gt;Node4 -->
<g id="edge3_Node000002_Node000004" class="edge">
<title>Node2&#45;&gt;Node4</title>
<g id="a_edge3_Node000002_Node000004"><a xlink:title=" ">
<path fill="none" stroke="#63b8ff" d="M58.38,-165.3C42.04,-158.35 22.72,-146.98 13.05,-129.75 -3.14,-100.87 -5.22,-82.86 13.05,-55.25 29.35,-30.61 62.3,-19.53 86.97,-14.58"/>
<polygon fill="#63b8ff" stroke="#63b8ff" points="87.39,-17.89 96.63,-12.71 86.17,-10.99 87.39,-17.89"/>
</a>
</g>
</g>
<!-- Node5&#45;&gt;Node3 -->
<g id="edge6_Node000005_Node000003" class="edge">
<title>Node5&#45;&gt;Node3</title>
<g id="a_edge6_Node000005_Node000003"><a xlink:title=" ">
<path fill="none" stroke="#63b8ff" d="M228.05,-165.34C199.79,-156.54 156.65,-143.11 125.33,-133.36"/>
<polygon fill="#63b8ff" stroke="#63b8ff" points="126.79,-129.83 116.2,-130.2 124.71,-136.52 126.79,-129.83"/>
</a>
</g>
</g>
<!-- Node5&#45;&gt;Node4 -->
<g id="edge7_Node000005_Node000004" class="edge">
<title>Node5&#45;&gt;Node4</title>
<g id="a_edge7_Node000005_Node000004"><a xlink:title=" ">
<path fill="none" stroke="#63b8ff" d="M275.05,-165.4C287.99,-157.86 304.44,-145.74 312.05,-129.75 321.12,-110.72 311.25,-65.89 301.05,-55.25 280.36,-33.66 195.81,-20.14 149.22,-14.18"/>
<polygon fill="#63b8ff" stroke="#63b8ff" points="149.88,-10.61 139.53,-12.86 149.02,-17.56 149.88,-10.61"/>
</a>
</g>
</g>
<!-- Node6 -->
<g id="Node000006" class="node">
<title>Node6</title>
<g id="a_Node000006"><a xlink:href="../../d7/d24/dirname_8cpp.html" target="_top" xlink:title=" ">
<polygon fill="white" stroke="#666666" points="302.68,-129.75 233.43,-129.75 233.43,-110.5 302.68,-110.5 302.68,-129.75"/>
<text text-anchor="middle" x="268.05" y="-116.25" font-family="Helvetica,sans-Serif" font-size="10.00">dirname.cpp</text>
</a>
</g>
</g>
<!-- Node5&#45;&gt;Node6 -->
<g id="edge8_Node000005_Node000006" class="edge">
<title>Node5&#45;&gt;Node6</title>
<g id="a_edge8_Node000005_Node000006"><a xlink:title=" ">
<path fill="none" stroke="#63b8ff" d="M253.7,-165.58C253.65,-158.76 255.21,-149.06 257.54,-140.45"/>
<polygon fill="#63b8ff" stroke="#63b8ff" points="261.15,-141.7 260.99,-131.11 254.51,-139.49 261.15,-141.7"/>
</a>
</g>
</g>
<!-- Node6&#45;&gt;Node5 -->
<g id="edge9_Node000006_Node000005" class="edge">
<title>Node6&#45;&gt;Node5</title>
<g id="a_edge9_Node000006_Node000005"><a xlink:title=" ">
<path fill="none" stroke="#63b8ff" d="M271.4,-130.11C271.42,-136.98 269.85,-146.71 267.5,-155.29"/>
<polygon fill="#63b8ff" stroke="#63b8ff" points="263.91,-153.99 264.04,-164.58 270.54,-156.22 263.91,-153.99"/>
</a>
</g>
</g>
<!-- Node7 -->
<g id="Node000007" class="node">
<title>Node7</title>
<g id="a_Node000007"><a xlink:title=" ">
<polygon fill="#e0e0e0" stroke="#999999" points="206.93,-74.5 151.18,-74.5 151.18,-55.25 206.93,-55.25 206.93,-74.5"/>
<text text-anchor="middle" x="179.05" y="-61" font-family="Helvetica,sans-Serif" font-size="10.00">algorithm</text>
</a>
</g>
</g>
<!-- Node6&#45;&gt;Node7 -->
<g id="edge10_Node000006_Node000007" class="edge">
<title>Node6&#45;&gt;Node7</title>
<g id="a_edge10_Node000006_Node000007"><a xlink:title=" ">
<path fill="none" stroke="#63b8ff" d="M252.96,-110.09C239.4,-101.98 219.26,-89.93 203.43,-80.46"/>
<polygon fill="#63b8ff" stroke="#63b8ff" points="205.6,-77.08 195.23,-74.95 202.01,-83.09 205.6,-77.08"/>
</a>
</g>
</g>
<!-- Node8 -->
<g id="Node000008" class="node">
<title>Node8</title>
<g id="a_Node000008"><a xlink:href="../../dc/d29/verbose_8h.html" target="_top" xlink:title=" ">
<polygon fill="white" stroke="#666666" points="292.43,-74.5 233.68,-74.5 233.68,-55.25 292.43,-55.25 292.43,-74.5"/>
<text text-anchor="middle" x="263.05" y="-61" font-family="Helvetica,sans-Serif" font-size="10.00">verbose.h</text>
</a>
</g>
</g>
<!-- Node6&#45;&gt;Node8 -->
<g id="edge11_Node000006_Node000008" class="edge">
<title>Node6&#45;&gt;Node8</title>
<g id="a_edge11_Node000006_Node000008"><a xlink:title=" ">
<path fill="none" stroke="#63b8ff" d="M267.23,-110.33C266.6,-103.67 265.72,-94.24 264.92,-85.78"/>
<polygon fill="#63b8ff" stroke="#63b8ff" points="268.32,-85.49 263.9,-75.86 261.35,-86.14 268.32,-85.49"/>
</a>
</g>
</g>
<!-- Node8&#45;&gt;Node4 -->
<g id="edge13_Node000008_Node000004" class="edge">
<title>Node8&#45;&gt;Node4</title>
<g id="a_edge13_Node000008_Node000004"><a xlink:title=" ">
<path fill="none" stroke="#63b8ff" d="M238.46,-54.84C213.63,-45.73 175.25,-31.63 148.52,-21.81"/>
<polygon fill="#63b8ff" stroke="#63b8ff" points="150.14,-18.31 139.54,-18.15 147.73,-24.88 150.14,-18.31"/>
</a>
</g>
</g>
<!-- Node9 -->
<g id="Node000009" class="node">
<title>Node9</title>
<g id="a_Node000009"><a xlink:title=" ">
<polygon fill="#e0e0e0" stroke="#999999" points="284.18,-19.25 241.93,-19.25 241.93,0 284.18,0 284.18,-19.25"/>
<text text-anchor="middle" x="263.05" y="-5.75" font-family="Helvetica,sans-Serif" font-size="10.00">cstdio</text>
</a>
</g>
</g>
<!-- Node8&#45;&gt;Node9 -->
<g id="edge12_Node000008_Node000009" class="edge">
<title>Node8&#45;&gt;Node9</title>
<g id="a_edge12_Node000008_Node000009"><a xlink:title=" ">
<path fill="none" stroke="#63b8ff" d="M263.05,-55.08C263.05,-48.42 263.05,-38.99 263.05,-30.53"/>
<polygon fill="#63b8ff" stroke="#63b8ff" points="266.55,-30.61 263.05,-20.61 259.55,-30.61 266.55,-30.61"/>
</a>
</g>
</g>
<!-- Node10&#45;&gt;Node3 -->
<g id="edge15_Node000010_Node000003" class="edge">
<title>Node10&#45;&gt;Node3</title>
<g id="a_edge15_Node000010_Node000003"><a xlink:title=" ">
<path fill="none" stroke="#63b8ff" d="M159.96,-165.34C146.4,-157.23 126.26,-145.18 110.43,-135.71"/>
<polygon fill="#63b8ff" stroke="#63b8ff" points="112.6,-132.33 102.23,-130.2 109.01,-138.34 112.6,-132.33"/>
</a>
</g>
</g>
<!-- Node10&#45;&gt;Node4 -->
<g id="edge16_Node000010_Node000004" class="edge">
<title>Node10&#45;&gt;Node4</title>
<g id="a_edge16_Node000010_Node000004"><a xlink:title=" ">
<path fill="none" stroke="#63b8ff" d="M140.15,-167.07C105.89,-159.1 57.19,-145.39 46.05,-129.75 20.64,-94.07 67.31,-49.2 96.72,-26.04"/>
<polygon fill="#63b8ff" stroke="#63b8ff" points="98.37,-28.42 104.2,-19.58 94.12,-22.86 98.37,-28.42"/>
</a>
</g>
</g>
<!-- Node11 -->
<g id="Node000011" class="node">
<title>Node11</title>
<g id="a_Node000011"><a xlink:href="../../d3/dd7/basename_8cpp.html" target="_top" xlink:title=" ">
<polygon fill="white" stroke="#666666" points="214.93,-129.75 135.18,-129.75 135.18,-110.5 214.93,-110.5 214.93,-129.75"/>
<text text-anchor="middle" x="175.05" y="-116.25" font-family="Helvetica,sans-Serif" font-size="10.00">basename.cpp</text>
</a>
</g>
</g>
<!-- Node10&#45;&gt;Node11 -->
<g id="edge17_Node000010_Node000011" class="edge">
<title>Node10&#45;&gt;Node11</title>
<g id="a_edge17_Node000010_Node000011"><a xlink:title=" ">
<path fill="none" stroke="#63b8ff" d="M169.89,-165.58C168.44,-158.84 167.99,-149.27 168.52,-140.74"/>
<polygon fill="#63b8ff" stroke="#63b8ff" points="172.08,-141.47 169.85,-131.11 165.13,-140.6 172.08,-141.47"/>
</a>
</g>
</g>
<!-- Node11&#45;&gt;Node7 -->
<g id="edge19_Node000011_Node000007" class="edge">
<title>Node11&#45;&gt;Node7</title>
<g id="a_edge19_Node000011_Node000007"><a xlink:title=" ">
<path fill="none" stroke="#63b8ff" d="M175.71,-110.33C176.21,-103.67 176.92,-94.24 177.56,-85.78"/>
<polygon fill="#63b8ff" stroke="#63b8ff" points="181.12,-86.09 178.38,-75.86 174.14,-85.57 181.12,-86.09"/>
</a>
</g>
</g>
<!-- Node11&#45;&gt;Node10 -->
<g id="edge18_Node000011_Node000010" class="edge">
<title>Node11&#45;&gt;Node10</title>
<g id="a_edge18_Node000011_Node000010"><a xlink:title=" ">
<path fill="none" stroke="#63b8ff" d="M180.26,-130.11C181.67,-136.83 182.11,-146.27 181.59,-154.71"/>
<polygon fill="#63b8ff" stroke="#63b8ff" points="178,-154.22 180.22,-164.58 184.95,-155.1 178,-154.22"/>
</a>
</g>
</g>
</g>
</svg>
