<?xml version="1.0" encoding="UTF-8" standalone="no"?>
<!DOCTYPE svg PUBLIC "-//W3C//DTD SVG 1.1//EN"
 "http://www.w3.org/Graphics/SVG/1.1/DTD/svg11.dtd">
<!-- Generated by graphviz version 8.1.0 (20230707.0739)
 -->
<!-- Title: orgQhull::QhullVertex::print Pages: 1 -->
<svg width="262pt" height="113pt"
 viewBox="0.00 0.00 262.00 112.88" xmlns="http://www.w3.org/2000/svg" xmlns:xlink="http://www.w3.org/1999/xlink">
<g id="graph0" class="graph" transform="scale(1 1) rotate(0) translate(4 108.88)">
<title>orgQhull::QhullVertex::print</title>
<!-- Node1 -->
<g id="Node000001" class="node">
<title>Node1</title>
<g id="a_Node000001"><a xlink:title=" ">
<polygon fill="#999999" stroke="#666666" points="254,-73.5 145,-73.5 145,-43 254,-43 254,-73.5"/>
<text text-anchor="start" x="153" y="-60" font-family="Helvetica,sans-Serif" font-size="10.00">orgQhull::QhullVertex</text>
<text text-anchor="middle" x="199.5" y="-48.75" font-family="Helvetica,sans-Serif" font-size="10.00">::print</text>
</a>
</g>
</g>
<!-- Node2 -->
<g id="Node000002" class="node">
<title>Node2</title>
<g id="a_Node000002"><a xlink:href="../../d7/da1/_qhull_facet_list_8cpp.html#a63ad43215859a1a5a5aaad60fd3a8d1a" target="_top" xlink:title="Print vertices of good faces in facet list to stream. From qh_printvertexlist [io_r....">
<polygon fill="white" stroke="#666666" points="86.12,-104.88 22.88,-104.88 22.88,-85.62 86.12,-85.62 86.12,-104.88"/>
<text text-anchor="middle" x="54.5" y="-91.38" font-family="Helvetica,sans-Serif" font-size="10.00">operator&lt;&lt;</text>
</a>
</g>
</g>
<!-- Node1&#45;&gt;Node2 -->
<g id="edge1_Node000001_Node000002" class="edge">
<title>Node1&#45;&gt;Node2</title>
<g id="a_edge1_Node000001_Node000002"><a xlink:title=" ">
<path fill="none" stroke="#63b8ff" d="M134.57,-74.79C117.91,-79.1 100.69,-83.56 86.59,-87.21"/>
<polygon fill="#63b8ff" stroke="#63b8ff" points="135.04,-78.03 143.85,-72.13 133.29,-71.25 135.04,-78.03"/>
</a>
</g>
</g>
<!-- Node3 -->
<g id="Node000003" class="node">
<title>Node3</title>
<g id="a_Node000003"><a xlink:href="../../d1/de5/_qhull_vertex_8h.html#ab8f12037037c4653527ea3d4b5c0a688" target="_top" xlink:title=" ">
<polygon fill="white" stroke="#666666" points="86.12,-67.88 22.88,-67.88 22.88,-48.62 86.12,-48.62 86.12,-67.88"/>
<text text-anchor="middle" x="54.5" y="-54.38" font-family="Helvetica,sans-Serif" font-size="10.00">operator&lt;&lt;</text>
</a>
</g>
</g>
<!-- Node1&#45;&gt;Node3 -->
<g id="edge2_Node000001_Node000003" class="edge">
<title>Node1&#45;&gt;Node3</title>
<g id="a_edge2_Node000001_Node000003"><a xlink:title=" ">
<path fill="none" stroke="#63b8ff" d="M134.1,-58.25C117.58,-58.25 100.56,-58.25 86.59,-58.25"/>
<polygon fill="#63b8ff" stroke="#63b8ff" points="133.85,-61.75 143.85,-58.25 133.85,-54.75 133.85,-61.75"/>
</a>
</g>
</g>
<!-- Node4 -->
<g id="Node000004" class="node">
<title>Node4</title>
<g id="a_Node000004"><a xlink:href="../../dc/d41/classorg_qhull_1_1_qhull_vertex__test.html#ab698b34bac687b74ef1f224df78ea281" target="_top" xlink:title=" ">
<polygon fill="white" stroke="#666666" points="109,-30.5 0,-30.5 0,0 109,0 109,-30.5"/>
<text text-anchor="start" x="8" y="-17" font-family="Helvetica,sans-Serif" font-size="10.00">orgQhull::QhullVertex</text>
<text text-anchor="middle" x="54.5" y="-5.75" font-family="Helvetica,sans-Serif" font-size="10.00">_test::t_io</text>
</a>
</g>
</g>
<!-- Node1&#45;&gt;Node4 -->
<g id="edge3_Node000001_Node000004" class="edge">
<title>Node1&#45;&gt;Node4</title>
<g id="a_edge3_Node000001_Node000004"><a xlink:title=" ">
<path fill="none" stroke="#63b8ff" d="M135.96,-39.44C126.54,-36.61 116.91,-33.71 107.73,-30.96"/>
<polygon fill="#63b8ff" stroke="#63b8ff" points="134.88,-43.08 145.47,-42.6 136.9,-36.37 134.88,-43.08"/>
</a>
</g>
</g>
</g>
</svg>
