<?xml version="1.0" encoding="UTF-8" standalone="no"?>
<!DOCTYPE svg PUBLIC "-//W3C//DTD SVG 1.1//EN"
 "http://www.w3.org/Graphics/SVG/1.1/DTD/svg11.dtd">
<!-- Generated by graphviz version 8.1.0 (20230707.0739)
 -->
<!-- Title: ImGui::ColorTooltip Pages: 1 -->
<svg width="1398pt" height="702pt"
 viewBox="0.00 0.00 1398.25 701.76" xmlns="http://www.w3.org/2000/svg" xmlns:xlink="http://www.w3.org/1999/xlink">
<g id="graph0" class="graph" transform="scale(1 1) rotate(0) translate(4 697.76)">
<title>ImGui::ColorTooltip</title>
<!-- Node1 -->
<g id="Node000001" class="node">
<title>Node1</title>
<g id="a_Node000001"><a xlink:title=" ">
<polygon fill="#999999" stroke="#666666" points="1390.25,-263.14 1290.25,-263.14 1290.25,-243.89 1390.25,-243.89 1390.25,-263.14"/>
<text text-anchor="middle" x="1340.25" y="-249.64" font-family="Helvetica,sans-Serif" font-size="10.00">ImGui::ColorTooltip</text>
</a>
</g>
</g>
<!-- Node2 -->
<g id="Node000002" class="node">
<title>Node2</title>
<g id="a_Node000002"><a xlink:href="../../df/d13/namespace_im_gui.html#a82b18bfe08594b76c08894848d1e6fce" target="_top" xlink:title=" ">
<polygon fill="white" stroke="#666666" points="1254.25,-263.14 1154.25,-263.14 1154.25,-243.89 1254.25,-243.89 1254.25,-263.14"/>
<text text-anchor="middle" x="1204.25" y="-249.64" font-family="Helvetica,sans-Serif" font-size="10.00">ImGui::ColorButton</text>
</a>
</g>
</g>
<!-- Node1&#45;&gt;Node2 -->
<g id="edge1_Node000001_Node000002" class="edge">
<title>Node1&#45;&gt;Node2</title>
<g id="a_edge1_Node000001_Node000002"><a xlink:title=" ">
<path fill="none" stroke="#63b8ff" d="M1279.29,-246.8C1270.96,-246.72 1262.48,-246.78 1254.38,-246.98"/>
<polygon fill="#63b8ff" stroke="#63b8ff" points="1279.06,-250.31 1289.11,-246.98 1279.18,-243.31 1279.06,-250.31"/>
</a>
</g>
</g>
<!-- Node2&#45;&gt;Node1 -->
<g id="edge46_Node000002_Node000001" class="edge">
<title>Node2&#45;&gt;Node1</title>
<g id="a_edge46_Node000002_Node000001"><a xlink:title=" ">
<path fill="none" stroke="#63b8ff" d="M1265.2,-260.23C1273.53,-260.31 1282.01,-260.25 1290.11,-260.04"/>
<polygon fill="#63b8ff" stroke="#63b8ff" points="1265.44,-256.72 1255.38,-260.04 1265.32,-263.71 1265.44,-256.72"/>
</a>
</g>
</g>
<!-- Node2&#45;&gt;Node2 -->
<g id="edge2_Node000002_Node000002" class="edge">
<title>Node2&#45;&gt;Node2</title>
<g id="a_edge2_Node000002_Node000002"><a xlink:title=" ">
<path fill="none" stroke="#63b8ff" d="M1228.86,-273.86C1226.27,-278.09 1218.07,-281.14 1204.25,-281.14 1180.34,-281.14 1173.25,-272.03 1182.96,-263.43"/>
<polygon fill="#63b8ff" stroke="#63b8ff" points="1231.91,-272.9 1225.54,-264.43 1225.23,-275.02 1231.91,-272.9"/>
</a>
</g>
</g>
<!-- Node3 -->
<g id="Node000003" class="node">
<title>Node3</title>
<g id="a_Node000003"><a xlink:href="../../df/d13/namespace_im_gui.html#ac3f45e2aa0b1d591cc8a2cdf8b566a45" target="_top" xlink:title=" ">
<polygon fill="white" stroke="#666666" points="1068.38,-244.14 974.38,-244.14 974.38,-224.89 1068.38,-224.89 1068.38,-244.14"/>
<text text-anchor="middle" x="1021.38" y="-230.64" font-family="Helvetica,sans-Serif" font-size="10.00">ImGui::ColorEdit4</text>
</a>
</g>
</g>
<!-- Node2&#45;&gt;Node3 -->
<g id="edge3_Node000002_Node000003" class="edge">
<title>Node2&#45;&gt;Node3</title>
<g id="a_edge3_Node000002_Node000003"><a xlink:title=" ">
<path fill="none" stroke="#63b8ff" d="M1142.95,-247.18C1118.72,-244.63 1091.24,-241.75 1068.63,-239.37"/>
<polygon fill="#63b8ff" stroke="#63b8ff" points="1142.51,-250.76 1152.83,-248.32 1143.25,-243.79 1142.51,-250.76"/>
</a>
</g>
</g>
<!-- Node36 -->
<g id="Node000036" class="node">
<title>Node36</title>
<g id="a_Node000036"><a xlink:href="../../d5/d0a/imgui__demo_8cpp.html#af533fd0a774d6bbebe61e474db6f144f" target="_top" xlink:title=" ">
<polygon fill="white" stroke="#666666" points="670,-244.14 531.75,-244.14 531.75,-224.89 670,-224.89 670,-244.14"/>
<text text-anchor="middle" x="600.88" y="-230.64" font-family="Helvetica,sans-Serif" font-size="10.00">ShowDemoWindowWidgets</text>
</a>
</g>
</g>
<!-- Node2&#45;&gt;Node36 -->
<g id="edge48_Node000002_Node000036" class="edge">
<title>Node2&#45;&gt;Node36</title>
<g id="a_edge48_Node000002_Node000036"><a xlink:title=" ">
<path fill="none" stroke="#63b8ff" d="M1142.98,-255.37C1050.45,-257.67 867.91,-260 713.5,-248.51 699.48,-247.47 684.51,-245.91 670.24,-244.2"/>
<polygon fill="#63b8ff" stroke="#63b8ff" points="1142.9,-258.85 1152.81,-255.09 1142.72,-251.85 1142.9,-258.85"/>
</a>
</g>
</g>
<!-- Node37 -->
<g id="Node000037" class="node">
<title>Node37</title>
<g id="a_Node000037"><a xlink:href="../../df/d13/namespace_im_gui.html#a3d5aae9e0a14aa051d5a799abbe97b32" target="_top" xlink:title=" ">
<polygon fill="white" stroke="#666666" points="853.25,-368.14 748.75,-368.14 748.75,-348.89 853.25,-348.89 853.25,-368.14"/>
<text text-anchor="middle" x="801" y="-354.64" font-family="Helvetica,sans-Serif" font-size="10.00">ImGui::ColorPicker4</text>
</a>
</g>
</g>
<!-- Node2&#45;&gt;Node37 -->
<g id="edge45_Node000002_Node000037" class="edge">
<title>Node2&#45;&gt;Node37</title>
<g id="a_edge45_Node000002_Node000037"><a xlink:title=" ">
<path fill="none" stroke="#63b8ff" d="M1169.95,-267.72C1154.43,-274.01 1135.58,-281.18 1118.25,-286.51 1026.49,-314.75 916.68,-337.31 853.56,-349.23"/>
<polygon fill="#63b8ff" stroke="#63b8ff" points="1171.2,-270.58 1179.12,-263.53 1168.54,-264.1 1171.2,-270.58"/>
</a>
</g>
</g>
<!-- Node47 -->
<g id="Node000047" class="node">
<title>Node47</title>
<g id="a_Node000047"><a xlink:href="../../d9/d6f/class_slic3r_1_1_g_u_i_1_1_g_l_gizmo_mmu_segmentation.html#aec1aa2f87573fd0204cb10165154b3cf" target="_top" xlink:title=" ">
<polygon fill="white" stroke="#666666" points="1118.25,-206.76 924.5,-206.76 924.5,-176.26 1118.25,-176.26 1118.25,-206.76"/>
<text text-anchor="start" x="932.5" y="-193.26" font-family="Helvetica,sans-Serif" font-size="10.00">Slic3r::GUI::GLGizmoMmuSegmentation</text>
<text text-anchor="middle" x="1021.38" y="-182.01" font-family="Helvetica,sans-Serif" font-size="10.00">::on_render_input_window</text>
</a>
</g>
</g>
<!-- Node2&#45;&gt;Node47 -->
<g id="edge47_Node000002_Node000047" class="edge">
<title>Node2&#45;&gt;Node47</title>
<g id="a_edge47_Node000002_Node000047"><a xlink:title=" ">
<path fill="none" stroke="#63b8ff" d="M1173.5,-238.67C1157.41,-231.04 1137.05,-222.01 1118.25,-215.51 1109.66,-212.54 1100.51,-209.77 1091.41,-207.25"/>
<polygon fill="#63b8ff" stroke="#63b8ff" points="1171.86,-242.25 1182.39,-243.44 1174.9,-235.94 1171.86,-242.25"/>
</a>
</g>
</g>
<!-- Node4 -->
<g id="Node000004" class="node">
<title>Node4</title>
<g id="a_Node000004"><a xlink:href="../../d0/d2b/class_slic3r_1_1_g_u_i_1_1_g_l_canvas3_d.html#a870a9e287f144c2b4540ff6bbceddbf6" target="_top" xlink:title=" ">
<polygon fill="white" stroke="#666666" points="866,-330.76 736,-330.76 736,-300.26 866,-300.26 866,-330.76"/>
<text text-anchor="start" x="744" y="-317.26" font-family="Helvetica,sans-Serif" font-size="10.00">Slic3r::GUI::GLCanvas3D</text>
<text text-anchor="middle" x="801" y="-306.01" font-family="Helvetica,sans-Serif" font-size="10.00">::_render_style_editor</text>
</a>
</g>
</g>
<!-- Node3&#45;&gt;Node4 -->
<g id="edge4_Node000003_Node000004" class="edge">
<title>Node3&#45;&gt;Node4</title>
<g id="a_edge4_Node000003_Node000004"><a xlink:title=" ">
<path fill="none" stroke="#63b8ff" d="M982.88,-248.42C944.33,-262.72 884.39,-284.95 844.19,-299.86"/>
<polygon fill="#63b8ff" stroke="#63b8ff" points="984,-251.37 992.16,-244.61 981.57,-244.8 984,-251.37"/>
</a>
</g>
</g>
<!-- Node32 -->
<g id="Node000032" class="node">
<title>Node32</title>
<g id="a_Node000032"><a xlink:href="../../df/d13/namespace_im_gui.html#a5afe76ba1c91f07363e40396e7df656e" target="_top" xlink:title=" ">
<polygon fill="white" stroke="#666666" points="848,-206.14 754,-206.14 754,-186.89 848,-186.89 848,-206.14"/>
<text text-anchor="middle" x="801" y="-192.64" font-family="Helvetica,sans-Serif" font-size="10.00">ImGui::ColorEdit3</text>
</a>
</g>
</g>
<!-- Node3&#45;&gt;Node32 -->
<g id="edge23_Node000003_Node000032" class="edge">
<title>Node3&#45;&gt;Node32</title>
<g id="a_edge23_Node000003_Node000032"><a xlink:title=" ">
<path fill="none" stroke="#63b8ff" d="M963.28,-224.58C927.44,-218.34 881.81,-210.4 848.24,-204.56"/>
<polygon fill="#63b8ff" stroke="#63b8ff" points="962.61,-228.19 973.06,-226.45 963.81,-221.29 962.61,-228.19"/>
</a>
</g>
</g>
<!-- Node3&#45;&gt;Node36 -->
<g id="edge40_Node000003_Node000036" class="edge">
<title>Node3&#45;&gt;Node36</title>
<g id="a_edge40_Node000003_Node000036"><a xlink:title=" ">
<path fill="none" stroke="#63b8ff" d="M963.17,-234.51C886.84,-234.51 751.87,-234.51 670.27,-234.51"/>
<polygon fill="#63b8ff" stroke="#63b8ff" points="962.99,-238.01 972.99,-234.51 962.99,-231.01 962.99,-238.01"/>
</a>
</g>
</g>
<!-- Node3&#45;&gt;Node37 -->
<g id="edge29_Node000003_Node000037" class="edge">
<title>Node3&#45;&gt;Node37</title>
<g id="a_edge29_Node000003_Node000037"><a xlink:title=" ">
<path fill="none" stroke="#63b8ff" d="M997.37,-251.66C972.7,-273.54 931.28,-310.14 888.5,-330.51 869.2,-339.7 845.36,-344.51 827.6,-348.43"/>
<polygon fill="#63b8ff" stroke="#63b8ff" points="999.19,-254.83 1004.37,-245.59 994.56,-249.59 999.19,-254.83"/>
</a>
</g>
</g>
<!-- Node40 -->
<g id="Node000040" class="node">
<title>Node40</title>
<g id="a_Node000040"><a xlink:href="../../df/d70/classigl_1_1opengl_1_1glfw_1_1imgui_1_1_im_gui_menu.html#a93e31ccd3713a311f4c822d6647fd365" target="_top" xlink:title=" ">
<polygon fill="white" stroke="#666666" points="862.25,-92.39 739.75,-92.39 739.75,-50.64 862.25,-50.64 862.25,-92.39"/>
<text text-anchor="start" x="747.75" y="-78.89" font-family="Helvetica,sans-Serif" font-size="10.00">igl::opengl::glfw::</text>
<text text-anchor="start" x="747.75" y="-67.64" font-family="Helvetica,sans-Serif" font-size="10.00">imgui::ImGuiMenu::draw</text>
<text text-anchor="middle" x="801" y="-56.39" font-family="Helvetica,sans-Serif" font-size="10.00">_viewer_menu</text>
</a>
</g>
</g>
<!-- Node3&#45;&gt;Node40 -->
<g id="edge35_Node000003_Node000040" class="edge">
<title>Node3&#45;&gt;Node40</title>
<g id="a_edge35_Node000003_Node000040"><a xlink:title=" ">
<path fill="none" stroke="#63b8ff" d="M963.31,-233.23C949.25,-230.39 935.18,-225.07 924.5,-215.51 884.92,-180.07 925.54,-139.6 888.5,-101.51 881.3,-94.11 872.18,-88.53 862.57,-84.32"/>
<polygon fill="#63b8ff" stroke="#63b8ff" points="962.57,-236.82 973,-234.95 963.68,-229.91 962.57,-236.82"/>
</a>
</g>
</g>
<!-- Node44 -->
<g id="Node000044" class="node">
<title>Node44</title>
<g id="a_Node000044"><a xlink:href="../../d5/d0a/imgui__demo_8cpp.html#ab19d813f2403009dd8700e041e10c09d" target="_top" xlink:title=" ">
<polygon fill="white" stroke="#666666" points="868.62,-130.14 733.38,-130.14 733.38,-110.89 868.62,-110.89 868.62,-130.14"/>
<text text-anchor="middle" x="801" y="-116.64" font-family="Helvetica,sans-Serif" font-size="10.00">ShowDemoWindowPopups</text>
</a>
</g>
</g>
<!-- Node3&#45;&gt;Node44 -->
<g id="edge38_Node000003_Node000044" class="edge">
<title>Node3&#45;&gt;Node44</title>
<g id="a_edge38_Node000003_Node000044"><a xlink:title=" ">
<path fill="none" stroke="#63b8ff" d="M963.51,-231.85C949.71,-228.99 935.71,-224.01 924.5,-215.51 896.3,-194.14 915.87,-166.93 888.5,-144.51 881.14,-138.49 872.38,-133.97 863.3,-130.59"/>
<polygon fill="#63b8ff" stroke="#63b8ff" points="962.54,-235.41 972.99,-233.65 963.72,-228.51 962.54,-235.41"/>
</a>
</g>
</g>
<!-- Node45 -->
<g id="Node000045" class="node">
<title>Node45</title>
<g id="a_Node000045"><a xlink:href="../../d5/d0a/imgui__demo_8cpp.html#a0729207a285af6ef57ce5a31d1a60348" target="_top" xlink:title=" ">
<polygon fill="white" stroke="#666666" points="888.5,-32.14 713.5,-32.14 713.5,-12.89 888.5,-12.89 888.5,-32.14"/>
<text text-anchor="middle" x="801" y="-18.64" font-family="Helvetica,sans-Serif" font-size="10.00">ShowExampleAppCustomRendering</text>
</a>
</g>
</g>
<!-- Node3&#45;&gt;Node45 -->
<g id="edge41_Node000003_Node000045" class="edge">
<title>Node3&#45;&gt;Node45</title>
<g id="a_edge41_Node000003_Node000045"><a xlink:title=" ">
<path fill="none" stroke="#63b8ff" d="M963.85,-234.19C949.38,-231.42 934.97,-225.9 924.5,-215.51 868.43,-159.91 944,-97.69 888.5,-41.51 884.93,-37.9 880.85,-34.91 876.44,-32.43"/>
<polygon fill="#63b8ff" stroke="#63b8ff" points="962.94,-237.74 973.34,-235.74 963.96,-230.81 962.94,-237.74"/>
</a>
</g>
</g>
<!-- Node46 -->
<g id="Node000046" class="node">
<title>Node46</title>
<g id="a_Node000046"><a xlink:href="../../df/d13/namespace_im_gui.html#ab2eb3dec78d054fe3feab1c091ec5de5" target="_top" xlink:title=" ">
<polygon fill="white" stroke="#666666" points="661.38,-168.14 540.38,-168.14 540.38,-148.89 661.38,-148.89 661.38,-168.14"/>
<text text-anchor="middle" x="600.88" y="-154.64" font-family="Helvetica,sans-Serif" font-size="10.00">ImGui::ShowStyleEditor</text>
</a>
</g>
</g>
<!-- Node3&#45;&gt;Node46 -->
<g id="edge43_Node000003_Node000046" class="edge">
<title>Node3&#45;&gt;Node46</title>
<g id="a_edge43_Node000003_Node000046"><a xlink:title=" ">
<path fill="none" stroke="#63b8ff" d="M963.44,-229.18C950.1,-226.35 936.34,-222.04 924.5,-215.51 904.13,-204.28 909.56,-187.41 888.5,-177.51 816.17,-143.52 722.08,-144.64 661.82,-150.23"/>
<polygon fill="#63b8ff" stroke="#63b8ff" points="962.53,-232.76 973,-231.15 963.81,-225.88 962.53,-232.76"/>
</a>
</g>
</g>
<!-- Node5 -->
<g id="Node000005" class="node">
<title>Node5</title>
<g id="a_Node000005"><a xlink:href="../../d0/d2b/class_slic3r_1_1_g_u_i_1_1_g_l_canvas3_d.html#ab2a817afa6640d4e97519ea4f61c7206" target="_top" xlink:title=" ">
<polygon fill="white" stroke="#666666" points="665.88,-411.76 535.88,-411.76 535.88,-381.26 665.88,-381.26 665.88,-411.76"/>
<text text-anchor="start" x="543.88" y="-398.26" font-family="Helvetica,sans-Serif" font-size="10.00">Slic3r::GUI::GLCanvas3D</text>
<text text-anchor="middle" x="600.88" y="-387.01" font-family="Helvetica,sans-Serif" font-size="10.00">::render</text>
</a>
</g>
</g>
<!-- Node4&#45;&gt;Node5 -->
<g id="edge5_Node000004_Node000005" class="edge">
<title>Node4&#45;&gt;Node5</title>
<g id="a_edge5_Node000004_Node000005"><a xlink:title=" ">
<path fill="none" stroke="#63b8ff" d="M727.27,-334.53C722.57,-336.12 717.95,-337.78 713.5,-339.51 683.49,-351.2 650.87,-368.42 628.69,-380.88"/>
<polygon fill="#63b8ff" stroke="#63b8ff" points="728.16,-337.6 736.61,-331.2 726.02,-330.94 728.16,-337.6"/>
</a>
</g>
</g>
<!-- Node6 -->
<g id="Node000006" class="node">
<title>Node6</title>
<g id="a_Node000006"><a xlink:href="../../d0/d2b/class_slic3r_1_1_g_u_i_1_1_g_l_canvas3_d.html#a6379e5a8883b2a7c10e897ad357a6c6f" target="_top" xlink:title=" ">
<polygon fill="#fff0f0" stroke="red" points="477.38,-390.39 347.38,-390.39 347.38,-348.64 477.38,-348.64 477.38,-390.39"/>
<text text-anchor="start" x="355.38" y="-376.89" font-family="Helvetica,sans-Serif" font-size="10.00">Slic3r::GUI::GLCanvas3D</text>
<text text-anchor="start" x="355.38" y="-365.64" font-family="Helvetica,sans-Serif" font-size="10.00">::_refresh_if_shown_on</text>
<text text-anchor="middle" x="412.38" y="-354.39" font-family="Helvetica,sans-Serif" font-size="10.00">_screen</text>
</a>
</g>
</g>
<!-- Node5&#45;&gt;Node6 -->
<g id="edge6_Node000005_Node000006" class="edge">
<title>Node5&#45;&gt;Node6</title>
<g id="a_edge6_Node000005_Node000006"><a xlink:title=" ">
<path fill="none" stroke="#63b8ff" d="M524.79,-385.64C509.23,-383.39 492.96,-381.03 477.82,-378.84"/>
<polygon fill="#63b8ff" stroke="#63b8ff" points="524.03,-389.21 534.43,-387.18 525.04,-382.29 524.03,-389.21"/>
</a>
</g>
</g>
<!-- Node8 -->
<g id="Node000008" class="node">
<title>Node8</title>
<g id="a_Node000008"><a xlink:href="../../d0/d2b/class_slic3r_1_1_g_u_i_1_1_g_l_canvas3_d.html#a15fc8ce385048544064e6e434e09de23" target="_top" xlink:title=" ">
<polygon fill="#fff0f0" stroke="red" points="298.25,-479.76 168.25,-479.76 168.25,-449.26 298.25,-449.26 298.25,-479.76"/>
<text text-anchor="start" x="176.25" y="-466.26" font-family="Helvetica,sans-Serif" font-size="10.00">Slic3r::GUI::GLCanvas3D</text>
<text text-anchor="middle" x="233.25" y="-455.01" font-family="Helvetica,sans-Serif" font-size="10.00">::on_mouse</text>
</a>
</g>
</g>
<!-- Node5&#45;&gt;Node8 -->
<g id="edge16_Node000005_Node000008" class="edge">
<title>Node5&#45;&gt;Node8</title>
<g id="a_edge16_Node000005_Node000008"><a xlink:title=" ">
<path fill="none" stroke="#63b8ff" d="M527.05,-418.21C526.09,-418.95 525.16,-419.72 524.25,-420.51 496.1,-445.1 519.83,-476.53 488.25,-496.51 418.21,-540.84 315.41,-503.6 264.76,-480.11"/>
<polygon fill="#63b8ff" stroke="#63b8ff" points="528.78,-420.61 535.22,-412.2 524.94,-414.75 528.78,-420.61"/>
</a>
</g>
</g>
<!-- Node9 -->
<g id="Node000009" class="node">
<title>Node9</title>
<g id="a_Node000009"><a xlink:href="../../d0/d2b/class_slic3r_1_1_g_u_i_1_1_g_l_canvas3_d.html#a9ba6503e9ea6e8ea3050de89e6835f52" target="_top" xlink:title=" ">
<polygon fill="white" stroke="#666666" points="130,-570.76 0,-570.76 0,-540.26 130,-540.26 130,-570.76"/>
<text text-anchor="start" x="8" y="-557.26" font-family="Helvetica,sans-Serif" font-size="10.00">Slic3r::GUI::GLCanvas3D</text>
<text text-anchor="middle" x="65" y="-546.01" font-family="Helvetica,sans-Serif" font-size="10.00">::bind_event_handlers</text>
</a>
</g>
</g>
<!-- Node5&#45;&gt;Node9 -->
<g id="edge10_Node000005_Node000009" class="edge">
<title>Node5&#45;&gt;Node9</title>
<g id="a_edge10_Node000005_Node000009"><a xlink:title=" ">
<path fill="none" stroke="#63b8ff" d="M567.91,-375.03C546.41,-361.92 516.87,-346.4 488.25,-339.51 422.68,-323.74 401.55,-321.69 336.5,-339.51 251.55,-362.78 233.65,-384.11 166,-440.51 129.01,-471.35 94.07,-516.46 76.96,-539.97"/>
<polygon fill="#63b8ff" stroke="#63b8ff" points="565.86,-378.5 576.19,-380.85 569.58,-372.57 565.86,-378.5"/>
</a>
</g>
</g>
<!-- Node15 -->
<g id="Node000015" class="node">
<title>Node15</title>
<g id="a_Node000015"><a xlink:href="../../d3/dff/class_slic3r_1_1_g_u_i_1_1_g_l_toolbar.html#af834580a75dbef27b91354ddc49efb8c" target="_top" xlink:title=" ">
<polygon fill="#fff0f0" stroke="red" points="469.88,-292.76 354.88,-292.76 354.88,-262.26 469.88,-262.26 469.88,-292.76"/>
<text text-anchor="start" x="362.88" y="-279.26" font-family="Helvetica,sans-Serif" font-size="10.00">Slic3r::GUI::GLToolbar</text>
<text text-anchor="middle" x="412.38" y="-268.01" font-family="Helvetica,sans-Serif" font-size="10.00">::do_action</text>
</a>
</g>
</g>
<!-- Node5&#45;&gt;Node15 -->
<g id="edge11_Node000005_Node000015" class="edge">
<title>Node5&#45;&gt;Node15</title>
<g id="a_edge11_Node000005_Node000015"><a xlink:title=" ">
<path fill="none" stroke="#63b8ff" d="M576.1,-373.68C554.54,-353.89 521.17,-325.54 488.25,-306.51 479.56,-301.49 469.84,-297 460.35,-293.14"/>
<polygon fill="#63b8ff" stroke="#63b8ff" points="573.34,-375.81 583.04,-380.06 578.1,-370.69 573.34,-375.81"/>
</a>
</g>
</g>
<!-- Node26 -->
<g id="Node000026" class="node">
<title>Node26</title>
<g id="a_Node000026"><a xlink:href="../../d0/d2b/class_slic3r_1_1_g_u_i_1_1_g_l_canvas3_d.html#a8f7ad08978b57363cc286b3ba55dbe52" target="_top" xlink:title=" ">
<polygon fill="#fff0f0" stroke="red" points="298.25,-693.76 168.25,-693.76 168.25,-663.26 298.25,-663.26 298.25,-693.76"/>
<text text-anchor="start" x="176.25" y="-680.26" font-family="Helvetica,sans-Serif" font-size="10.00">Slic3r::GUI::GLCanvas3D</text>
<text text-anchor="middle" x="233.25" y="-669.01" font-family="Helvetica,sans-Serif" font-size="10.00">::on_char</text>
</a>
</g>
</g>
<!-- Node5&#45;&gt;Node26 -->
<g id="edge12_Node000005_Node000026" class="edge">
<title>Node5&#45;&gt;Node26</title>
<g id="a_edge12_Node000005_Node000026"><a xlink:title=" ">
<path fill="none" stroke="#63b8ff" d="M527.14,-417.5C526.13,-418.46 525.17,-419.46 524.25,-420.51 463.61,-489.78 552.21,-558.29 488.25,-624.51 439.63,-674.86 356.56,-684 298.71,-683.4"/>
<polygon fill="#63b8ff" stroke="#63b8ff" points="528.81,-419.86 534.55,-410.96 524.51,-414.33 528.81,-419.86"/>
</a>
</g>
</g>
<!-- Node28 -->
<g id="Node000028" class="node">
<title>Node28</title>
<g id="a_Node000028"><a xlink:href="../../d0/d2b/class_slic3r_1_1_g_u_i_1_1_g_l_canvas3_d.html#aa811f0a583e17a1b5102893f9ef44d53" target="_top" xlink:title=" ">
<polygon fill="#fff0f0" stroke="red" points="298.25,-644.76 168.25,-644.76 168.25,-614.26 298.25,-614.26 298.25,-644.76"/>
<text text-anchor="start" x="176.25" y="-631.26" font-family="Helvetica,sans-Serif" font-size="10.00">Slic3r::GUI::GLCanvas3D</text>
<text text-anchor="middle" x="233.25" y="-620.01" font-family="Helvetica,sans-Serif" font-size="10.00">::on_key</text>
</a>
</g>
</g>
<!-- Node5&#45;&gt;Node28 -->
<g id="edge14_Node000005_Node000028" class="edge">
<title>Node5&#45;&gt;Node28</title>
<g id="a_edge14_Node000005_Node000028"><a xlink:title=" ">
<path fill="none" stroke="#63b8ff" d="M527.2,-417.55C526.17,-418.49 525.19,-419.48 524.25,-420.51 473.69,-475.98 542.46,-533.6 488.25,-585.51 438.23,-633.41 355.87,-639.48 298.54,-636.79"/>
<polygon fill="#63b8ff" stroke="#63b8ff" points="528.85,-419.93 534.72,-411.1 524.63,-414.34 528.85,-419.93"/>
</a>
</g>
</g>
<!-- Node29 -->
<g id="Node000029" class="node">
<title>Node29</title>
<g id="a_Node000029"><a xlink:href="../../d0/d2b/class_slic3r_1_1_g_u_i_1_1_g_l_canvas3_d.html#a8ee94b7e2954f5694921dfec9ba59098" target="_top" xlink:title=" ">
<polygon fill="#fff0f0" stroke="red" points="298.25,-595.76 168.25,-595.76 168.25,-565.26 298.25,-565.26 298.25,-595.76"/>
<text text-anchor="start" x="176.25" y="-582.26" font-family="Helvetica,sans-Serif" font-size="10.00">Slic3r::GUI::GLCanvas3D</text>
<text text-anchor="middle" x="233.25" y="-571.01" font-family="Helvetica,sans-Serif" font-size="10.00">::on_mouse_wheel</text>
</a>
</g>
</g>
<!-- Node5&#45;&gt;Node29 -->
<g id="edge17_Node000005_Node000029" class="edge">
<title>Node5&#45;&gt;Node29</title>
<g id="a_edge17_Node000005_Node000029"><a xlink:title=" ">
<path fill="none" stroke="#63b8ff" d="M526.85,-418C525.95,-418.81 525.09,-419.64 524.25,-420.51 482.65,-463.68 533.75,-511.47 488.25,-550.51 436.44,-594.97 355.24,-596.84 298.65,-591.25"/>
<polygon fill="#63b8ff" stroke="#63b8ff" points="528.63,-420.29 534.58,-411.53 524.47,-414.67 528.63,-420.29"/>
</a>
</g>
</g>
<!-- Node30 -->
<g id="Node000030" class="node">
<title>Node30</title>
<g id="a_Node000030"><a xlink:href="../../d0/d2b/class_slic3r_1_1_g_u_i_1_1_g_l_canvas3_d.html#a69e6747e3c01be9c51634d8de0ae0561" target="_top" xlink:title=" ">
<polygon fill="#fff0f0" stroke="red" points="298.25,-546.76 168.25,-546.76 168.25,-516.26 298.25,-516.26 298.25,-546.76"/>
<text text-anchor="start" x="176.25" y="-533.26" font-family="Helvetica,sans-Serif" font-size="10.00">Slic3r::GUI::GLCanvas3D</text>
<text text-anchor="middle" x="233.25" y="-522.01" font-family="Helvetica,sans-Serif" font-size="10.00">::on_paint</text>
</a>
</g>
</g>
<!-- Node5&#45;&gt;Node30 -->
<g id="edge19_Node000005_Node000030" class="edge">
<title>Node5&#45;&gt;Node30</title>
<g id="a_edge19_Node000005_Node000030"><a xlink:title=" ">
<path fill="none" stroke="#63b8ff" d="M526.86,-418.16C525.96,-418.92 525.09,-419.7 524.25,-420.51 490.22,-453.27 526.3,-492.52 488.25,-520.51 434.03,-560.4 354.27,-556.67 298.64,-547.13"/>
<polygon fill="#63b8ff" stroke="#63b8ff" points="528.38,-420.67 534.51,-412.03 524.33,-414.95 528.38,-420.67"/>
</a>
</g>
</g>
<!-- Node22 -->
<g id="Node000022" class="node">
<title>Node22</title>
<g id="a_Node000022"><a xlink:href="../../d9/d01/class_slic3r_1_1_g_u_i_1_1_g_u_i___app.html#a92b16a3ad6111d682dd4d779531e674e" target="_top" xlink:title=" ">
<polygon fill="white" stroke="#666666" points="468,-487.76 356.75,-487.76 356.75,-457.26 468,-457.26 468,-487.76"/>
<text text-anchor="start" x="364.75" y="-474.26" font-family="Helvetica,sans-Serif" font-size="10.00">Slic3r::GUI::GUI_App</text>
<text text-anchor="middle" x="412.38" y="-463.01" font-family="Helvetica,sans-Serif" font-size="10.00">::post_init</text>
</a>
</g>
</g>
<!-- Node5&#45;&gt;Node22 -->
<g id="edge21_Node000005_Node000022" class="edge">
<title>Node5&#45;&gt;Node22</title>
<g id="a_edge21_Node000005_Node000022"><a xlink:title=" ">
<path fill="none" stroke="#63b8ff" d="M533.26,-416.24C530.17,-417.59 527.16,-419.02 524.25,-420.51 506.47,-429.67 505.96,-438.23 488.25,-447.51 481.7,-450.95 474.57,-454.05 467.42,-456.8"/>
<polygon fill="#63b8ff" stroke="#63b8ff" points="534.33,-419.17 542.27,-412.15 531.69,-412.69 534.33,-419.17"/>
</a>
</g>
</g>
<!-- Node31 -->
<g id="Node000031" class="node">
<title>Node31</title>
<g id="a_Node000031"><a xlink:href="../../da/d5c/class_slic3r_1_1_g_u_i_1_1_assemble_view.html#aaabc187e850fb4bc675e11805500d55b" target="_top" xlink:title=" ">
<polygon fill="white" stroke="#666666" points="480.38,-438.76 344.38,-438.76 344.38,-408.26 480.38,-408.26 480.38,-438.76"/>
<text text-anchor="start" x="352.38" y="-425.26" font-family="Helvetica,sans-Serif" font-size="10.00">Slic3r::GUI::AssembleView</text>
<text text-anchor="middle" x="412.38" y="-414.01" font-family="Helvetica,sans-Serif" font-size="10.00">::reload_scene</text>
</a>
</g>
</g>
<!-- Node5&#45;&gt;Node31 -->
<g id="edge22_Node000005_Node000031" class="edge">
<title>Node5&#45;&gt;Node31</title>
<g id="a_edge22_Node000005_Node000031"><a xlink:title=" ">
<path fill="none" stroke="#63b8ff" d="M524.91,-407.36C510.29,-409.48 495.04,-411.69 480.68,-413.77"/>
<polygon fill="#63b8ff" stroke="#63b8ff" points="525.04,-410.74 534.43,-405.84 524.03,-403.81 525.04,-410.74"/>
</a>
</g>
</g>
<!-- Node6&#45;&gt;Node8 -->
<g id="edge7_Node000006_Node000008" class="edge">
<title>Node6&#45;&gt;Node8</title>
<g id="a_edge7_Node000006_Node000008"><a xlink:title=" ">
<path fill="none" stroke="#63b8ff" d="M344.95,-395.36C342.07,-396.72 339.25,-398.1 336.5,-399.51 307.67,-414.29 276.53,-434.81 256.28,-448.82"/>
<polygon fill="#63b8ff" stroke="#63b8ff" points="346.21,-398.18 353.86,-390.85 343.3,-391.8 346.21,-398.18"/>
</a>
</g>
</g>
<!-- Node8&#45;&gt;Node8 -->
<g id="edge9_Node000008_Node000008" class="edge">
<title>Node8&#45;&gt;Node8</title>
<g id="a_edge9_Node000008_Node000008"><a xlink:title=" ">
<path fill="none" stroke="#63b8ff" d="M261.85,-491.14C257.39,-495.09 247.85,-497.76 233.25,-497.76 207.29,-497.76 197.35,-489.32 203.44,-480.25"/>
<polygon fill="#63b8ff" stroke="#63b8ff" points="265.43,-491.57 263.06,-481.25 258.48,-490.8 265.43,-491.57"/>
</a>
</g>
</g>
<!-- Node8&#45;&gt;Node9 -->
<g id="edge8_Node000008_Node000009" class="edge">
<title>Node8&#45;&gt;Node9</title>
<g id="a_edge8_Node000008_Node000009"><a xlink:title=" ">
<path fill="none" stroke="#63b8ff" d="M194.28,-485.29C164.02,-501.86 122.3,-524.69 94.76,-539.77"/>
<polygon fill="#63b8ff" stroke="#63b8ff" points="195.58,-488.03 202.67,-480.16 192.22,-481.89 195.58,-488.03"/>
</a>
</g>
</g>
<!-- Node26&#45;&gt;Node9 -->
<g id="edge13_Node000026_Node000009" class="edge">
<title>Node26&#45;&gt;Node9</title>
<g id="a_edge13_Node000026_Node000009"><a xlink:title=" ">
<path fill="none" stroke="#63b8ff" d="M174.05,-658.19C171.27,-656.71 168.57,-655.16 166,-653.51 129.73,-630.36 95.81,-592.38 78.33,-571.14"/>
<polygon fill="#63b8ff" stroke="#63b8ff" points="172.18,-661.66 182.7,-662.9 175.25,-655.37 172.18,-661.66"/>
</a>
</g>
</g>
<!-- Node28&#45;&gt;Node9 -->
<g id="edge15_Node000028_Node000009" class="edge">
<title>Node28&#45;&gt;Node9</title>
<g id="a_edge15_Node000028_Node000009"><a xlink:title=" ">
<path fill="none" stroke="#63b8ff" d="M178.76,-609.83C174.42,-608.08 170.13,-606.3 166,-604.51 142.04,-594.15 115.55,-581.09 95.85,-571.06"/>
<polygon fill="#63b8ff" stroke="#63b8ff" points="177.31,-613.41 187.89,-613.83 179.87,-606.9 177.31,-613.41"/>
</a>
</g>
</g>
<!-- Node29&#45;&gt;Node9 -->
<g id="edge18_Node000029_Node000009" class="edge">
<title>Node29&#45;&gt;Node9</title>
<g id="a_edge18_Node000029_Node000009"><a xlink:title=" ">
<path fill="none" stroke="#63b8ff" d="M157.16,-569.22C148.22,-567.88 139.15,-566.51 130.38,-565.19"/>
<polygon fill="#63b8ff" stroke="#63b8ff" points="156.56,-572.82 166.97,-570.85 157.61,-565.9 156.56,-572.82"/>
</a>
</g>
</g>
<!-- Node30&#45;&gt;Node9 -->
<g id="edge20_Node000030_Node000009" class="edge">
<title>Node30&#45;&gt;Node9</title>
<g id="a_edge20_Node000030_Node000009"><a xlink:title=" ">
<path fill="none" stroke="#63b8ff" d="M157.16,-542.35C148.22,-543.64 139.15,-544.95 130.38,-546.22"/>
<polygon fill="#63b8ff" stroke="#63b8ff" points="157.58,-545.68 166.97,-540.79 156.58,-538.76 157.58,-545.68"/>
</a>
</g>
</g>
<!-- Node33 -->
<g id="Node000033" class="node">
<title>Node33</title>
<g id="a_Node000033"><a xlink:href="../../dd/d8e/struct_my_document.html#aa51e0b8e6c95b7109a507603599c05d9" target="_top" xlink:title=" ">
<polygon fill="white" stroke="#666666" points="677.5,-206.14 524.25,-206.14 524.25,-186.89 677.5,-186.89 677.5,-206.14"/>
<text text-anchor="middle" x="600.88" y="-192.64" font-family="Helvetica,sans-Serif" font-size="10.00">MyDocument::DisplayContents</text>
</a>
</g>
</g>
<!-- Node32&#45;&gt;Node33 -->
<g id="edge24_Node000032_Node000033" class="edge">
<title>Node32&#45;&gt;Node33</title>
<g id="a_edge24_Node000032_Node000033"><a xlink:title=" ">
<path fill="none" stroke="#63b8ff" d="M742.64,-196.51C722.43,-196.51 699.39,-196.51 677.88,-196.51"/>
<polygon fill="#63b8ff" stroke="#63b8ff" points="742.55,-200.01 752.55,-196.51 742.55,-193.01 742.55,-200.01"/>
</a>
</g>
</g>
<!-- Node32&#45;&gt;Node36 -->
<g id="edge27_Node000032_Node000036" class="edge">
<title>Node32&#45;&gt;Node36</title>
<g id="a_edge27_Node000032_Node000036"><a xlink:title=" ">
<path fill="none" stroke="#63b8ff" d="M742.75,-207.49C714.86,-212.84 681.55,-219.23 654.32,-224.45"/>
<polygon fill="#63b8ff" stroke="#63b8ff" points="743.39,-210.74 752.55,-205.42 742.07,-203.87 743.39,-210.74"/>
</a>
</g>
</g>
<!-- Node34 -->
<g id="Node000034" class="node">
<title>Node34</title>
<g id="a_Node000034"><a xlink:href="../../d5/d0a/imgui__demo_8cpp.html#aa9e4f5130b74080ea2d97916a91b3b3c" target="_top" xlink:title=" ">
<polygon fill="white" stroke="#666666" points="485.62,-206.14 339.12,-206.14 339.12,-186.89 485.62,-186.89 485.62,-206.14"/>
<text text-anchor="middle" x="412.38" y="-192.64" font-family="Helvetica,sans-Serif" font-size="10.00">ShowExampleAppDocuments</text>
</a>
</g>
</g>
<!-- Node33&#45;&gt;Node34 -->
<g id="edge25_Node000033_Node000034" class="edge">
<title>Node33&#45;&gt;Node34</title>
<g id="a_edge25_Node000033_Node000034"><a xlink:title=" ">
<path fill="none" stroke="#63b8ff" d="M513.3,-196.51C504.12,-196.51 494.85,-196.51 485.85,-196.51"/>
<polygon fill="#63b8ff" stroke="#63b8ff" points="513.02,-200.01 523.02,-196.51 513.02,-193.01 513.02,-200.01"/>
</a>
</g>
</g>
<!-- Node35 -->
<g id="Node000035" class="node">
<title>Node35</title>
<g id="a_Node000035"><a xlink:href="../../df/d13/namespace_im_gui.html#af95643a0ce4893b9e57c12991922fb18" target="_top" xlink:title=" ">
<polygon fill="white" stroke="#666666" points="300.5,-168.14 166,-168.14 166,-148.89 300.5,-148.89 300.5,-168.14"/>
<text text-anchor="middle" x="233.25" y="-154.64" font-family="Helvetica,sans-Serif" font-size="10.00">ImGui::ShowDemoWindow</text>
</a>
</g>
</g>
<!-- Node34&#45;&gt;Node35 -->
<g id="edge26_Node000034_Node000035" class="edge">
<title>Node34&#45;&gt;Node35</title>
<g id="a_edge26_Node000034_Node000035"><a xlink:title=" ">
<path fill="none" stroke="#63b8ff" d="M353.83,-184.17C330.32,-179.12 303.46,-173.36 281.16,-168.58"/>
<polygon fill="#63b8ff" stroke="#63b8ff" points="352.86,-187.75 363.37,-186.43 354.33,-180.91 352.86,-187.75"/>
</a>
</g>
</g>
<!-- Node36&#45;&gt;Node35 -->
<g id="edge28_Node000036_Node000035" class="edge">
<title>Node36&#45;&gt;Node35</title>
<g id="a_edge28_Node000036_Node000035"><a xlink:title=" ">
<path fill="none" stroke="#63b8ff" d="M520.59,-237.67C467.45,-237.64 396.5,-233.43 336.5,-215.51 302.03,-205.22 266.35,-181.91 247.6,-168.5"/>
<polygon fill="#63b8ff" stroke="#63b8ff" points="520.32,-241.16 530.3,-237.61 520.29,-234.16 520.32,-241.16"/>
</a>
</g>
</g>
<!-- Node37&#45;&gt;Node3 -->
<g id="edge30_Node000037_Node000003" class="edge">
<title>Node37&#45;&gt;Node3</title>
<g id="a_edge30_Node000037_Node000003"><a xlink:title=" ">
<path fill="none" stroke="#63b8ff" d="M864.19,-357.38C872.56,-355.08 880.89,-352.14 888.5,-348.51 944.25,-321.97 997.69,-267.85 1014.75,-244.6"/>
<polygon fill="#63b8ff" stroke="#63b8ff" points="863.49,-354.19 854.6,-359.95 865.14,-360.99 863.49,-354.19"/>
</a>
</g>
</g>
<!-- Node37&#45;&gt;Node36 -->
<g id="edge34_Node000037_Node000036" class="edge">
<title>Node37&#45;&gt;Node36</title>
<g id="a_edge34_Node000037_Node000036"><a xlink:title=" ">
<path fill="none" stroke="#63b8ff" d="M738.13,-349.22C729.59,-346.72 721.14,-343.54 713.5,-339.51 666.91,-314.93 625.61,-265.56 609.29,-244.45"/>
<polygon fill="#63b8ff" stroke="#63b8ff" points="736.97,-352.8 747.53,-351.95 738.75,-346.03 736.97,-352.8"/>
</a>
</g>
</g>
<!-- Node38 -->
<g id="Node000038" class="node">
<title>Node38</title>
<g id="a_Node000038"><a xlink:href="../../df/d13/namespace_im_gui.html#a2a2a98cb9a17b18702be6b954670b388" target="_top" xlink:title=" ">
<polygon fill="white" stroke="#666666" points="653.12,-449.14 548.62,-449.14 548.62,-429.89 653.12,-429.89 653.12,-449.14"/>
<text text-anchor="middle" x="600.88" y="-435.64" font-family="Helvetica,sans-Serif" font-size="10.00">ImGui::ColorPicker3</text>
</a>
</g>
</g>
<!-- Node37&#45;&gt;Node38 -->
<g id="edge31_Node000037_Node000038" class="edge">
<title>Node37&#45;&gt;Node38</title>
<g id="a_edge31_Node000037_Node000038"><a xlink:title=" ">
<path fill="none" stroke="#63b8ff" d="M773.86,-373.9C749.57,-387.67 712.04,-407.62 677.5,-420.51 668.37,-423.92 658.39,-426.92 648.77,-429.46"/>
<polygon fill="#63b8ff" stroke="#63b8ff" points="775.17,-376.61 782.1,-368.59 771.69,-370.53 775.17,-376.61"/>
</a>
</g>
</g>
<!-- Node39 -->
<g id="Node000039" class="node">
<title>Node39</title>
<g id="a_Node000039"><a xlink:href="../../df/d13/namespace_im_gui.html#a6d112eeb6d8ffdebbc9d9a8c66babbee" target="_top" xlink:title=" ">
<polygon fill="white" stroke="#666666" points="667.38,-497.76 534.38,-497.76 534.38,-467.26 667.38,-467.26 667.38,-497.76"/>
<text text-anchor="start" x="542.38" y="-484.26" font-family="Helvetica,sans-Serif" font-size="10.00">ImGui::ColorPickerOptions</text>
<text text-anchor="middle" x="600.88" y="-473.01" font-family="Helvetica,sans-Serif" font-size="10.00">Popup</text>
</a>
</g>
</g>
<!-- Node37&#45;&gt;Node39 -->
<g id="edge32_Node000037_Node000039" class="edge">
<title>Node37&#45;&gt;Node39</title>
<g id="a_edge32_Node000037_Node000039"><a xlink:title=" ">
<path fill="none" stroke="#63b8ff" d="M776.19,-375.7C752.87,-396.06 715.4,-429.01 677.5,-449.51 664.05,-456.79 648.05,-462.27 634.23,-466.87"/>
<polygon fill="#63b8ff" stroke="#63b8ff" points="778.15,-377.77 783.41,-368.57 773.57,-372.48 778.15,-377.77"/>
</a>
</g>
</g>
<!-- Node39&#45;&gt;Node37 -->
<g id="edge33_Node000039_Node000037" class="edge">
<title>Node39&#45;&gt;Node37</title>
<g id="a_edge33_Node000039_Node000037"><a xlink:title=" ">
<path fill="none" stroke="#63b8ff" d="M677.17,-467.08C733.38,-434.91 779.01,-389.2 794.47,-368.41"/>
<polygon fill="#63b8ff" stroke="#63b8ff" points="675.75,-464.42 668.69,-472.32 679.14,-470.55 675.75,-464.42"/>
</a>
</g>
</g>
<!-- Node41 -->
<g id="Node000041" class="node">
<title>Node41</title>
<g id="a_Node000041"><a xlink:href="../../df/d70/classigl_1_1opengl_1_1glfw_1_1imgui_1_1_im_gui_menu.html#a07a6c823c741006fe00da39efd60b5e3" target="_top" xlink:title=" ">
<polygon fill="white" stroke="#666666" points="662.12,-92.39 539.62,-92.39 539.62,-50.64 662.12,-50.64 662.12,-92.39"/>
<text text-anchor="start" x="547.62" y="-78.89" font-family="Helvetica,sans-Serif" font-size="10.00">igl::opengl::glfw::</text>
<text text-anchor="start" x="547.62" y="-67.64" font-family="Helvetica,sans-Serif" font-size="10.00">imgui::ImGuiMenu::draw</text>
<text text-anchor="middle" x="600.88" y="-56.39" font-family="Helvetica,sans-Serif" font-size="10.00">_viewer_window</text>
</a>
</g>
</g>
<!-- Node40&#45;&gt;Node41 -->
<g id="edge36_Node000040_Node000041" class="edge">
<title>Node40&#45;&gt;Node41</title>
<g id="a_edge36_Node000040_Node000041"><a xlink:title=" ">
<path fill="none" stroke="#63b8ff" d="M728.66,-71.51C706.94,-71.51 683.29,-71.51 662.37,-71.51"/>
<polygon fill="#63b8ff" stroke="#63b8ff" points="728.48,-75.01 738.48,-71.51 728.48,-68.01 728.48,-75.01"/>
</a>
</g>
</g>
<!-- Node42 -->
<g id="Node000042" class="node">
<title>Node42</title>
<g id="a_Node000042"><a xlink:href="../../df/d70/classigl_1_1opengl_1_1glfw_1_1imgui_1_1_im_gui_menu.html#a36b641e04232aecc23de9095e96ce609" target="_top" xlink:title=" ">
<polygon fill="#fff0f0" stroke="red" points="488.25,-86.76 336.5,-86.76 336.5,-56.26 488.25,-56.26 488.25,-86.76"/>
<text text-anchor="start" x="344.5" y="-73.26" font-family="Helvetica,sans-Serif" font-size="10.00">igl::opengl::glfw::</text>
<text text-anchor="middle" x="412.38" y="-62.01" font-family="Helvetica,sans-Serif" font-size="10.00">imgui::ImGuiMenu::draw_menu</text>
</a>
</g>
</g>
<!-- Node41&#45;&gt;Node42 -->
<g id="edge37_Node000041_Node000042" class="edge">
<title>Node41&#45;&gt;Node42</title>
<g id="a_edge37_Node000041_Node000042"><a xlink:title=" ">
<path fill="none" stroke="#63b8ff" d="M528.52,-71.51C515.47,-71.51 501.8,-71.51 488.64,-71.51"/>
<polygon fill="#63b8ff" stroke="#63b8ff" points="528.32,-75.01 538.32,-71.51 528.32,-68.01 528.32,-75.01"/>
</a>
</g>
</g>
<!-- Node44&#45;&gt;Node35 -->
<g id="edge39_Node000044_Node000035" class="edge">
<title>Node44&#45;&gt;Node35</title>
<g id="a_edge39_Node000044_Node000035"><a xlink:title=" ">
<path fill="none" stroke="#63b8ff" d="M722.02,-125.75C610.15,-133.26 406.03,-146.97 300.85,-154.04"/>
<polygon fill="#63b8ff" stroke="#63b8ff" points="722.14,-129.18 731.88,-125.02 721.67,-122.2 722.14,-129.18"/>
</a>
</g>
</g>
<!-- Node45&#45;&gt;Node35 -->
<g id="edge42_Node000045_Node000035" class="edge">
<title>Node45&#45;&gt;Node35</title>
<g id="a_edge42_Node000045_Node000035"><a xlink:title=" ">
<path fill="none" stroke="#63b8ff" d="M732.06,-10.87C638.17,1.92 465.71,13.34 336.5,-47.51 288.86,-69.95 252.99,-125.58 239.78,-148.45"/>
<polygon fill="#63b8ff" stroke="#63b8ff" points="731.45,-14.46 741.84,-12.39 732.42,-7.53 731.45,-14.46"/>
</a>
</g>
</g>
<!-- Node46&#45;&gt;Node35 -->
<g id="edge44_Node000046_Node000035" class="edge">
<title>Node46&#45;&gt;Node35</title>
<g id="a_edge44_Node000046_Node000035"><a xlink:title=" ">
<path fill="none" stroke="#63b8ff" d="M529.19,-158.51C463.18,-158.51 365.38,-158.51 300.75,-158.51"/>
<polygon fill="#63b8ff" stroke="#63b8ff" points="528.91,-162.01 538.91,-158.51 528.91,-155.01 528.91,-162.01"/>
</a>
</g>
</g>
</g>
</svg>
