<?xml version="1.0" encoding="UTF-8" standalone="no"?>
<!DOCTYPE svg PUBLIC "-//W3C//DTD SVG 1.1//EN"
 "http://www.w3.org/Graphics/SVG/1.1/DTD/svg11.dtd">
<!-- Generated by graphviz version 8.1.0 (20230707.0739)
 -->
<!-- Title: ImGui::TableSetColumnIndex Pages: 1 -->
<svg width="682pt" height="95pt"
 viewBox="0.00 0.00 681.75 95.30" xmlns="http://www.w3.org/2000/svg" xmlns:xlink="http://www.w3.org/1999/xlink">
<g id="graph0" class="graph" transform="scale(1 1) rotate(0) translate(4 91.3)">
<title>ImGui::TableSetColumnIndex</title>
<!-- Node1 -->
<g id="Node000001" class="node">
<title>Node1</title>
<g id="a_Node000001"><a xlink:title=" ">
<polygon fill="#999999" stroke="#666666" points="673.75,-74.25 529.5,-74.25 529.5,-55 673.75,-55 673.75,-74.25"/>
<text text-anchor="middle" x="601.62" y="-60.75" font-family="Helvetica,sans-Serif" font-size="10.00">ImGui::TableSetColumnIndex</text>
</a>
</g>
</g>
<!-- Node2 -->
<g id="Node000002" class="node">
<title>Node2</title>
<g id="a_Node000002"><a xlink:href="../../d5/d0a/imgui__demo_8cpp.html#a1de6150f52a967e73750eb642ec025fe" target="_top" xlink:title=" ">
<polygon fill="white" stroke="#666666" points="315.12,-74.25 184.38,-74.25 184.38,-55 315.12,-55 315.12,-74.25"/>
<text text-anchor="middle" x="249.75" y="-60.75" font-family="Helvetica,sans-Serif" font-size="10.00">ShowDemoWindowTables</text>
</a>
</g>
</g>
<!-- Node1&#45;&gt;Node2 -->
<g id="edge1_Node000001_Node000002" class="edge">
<title>Node1&#45;&gt;Node2</title>
<g id="a_edge1_Node000001_Node000002"><a xlink:title=" ">
<path fill="none" stroke="#63b8ff" d="M543.12,-76.74C527.13,-79.58 509.7,-82.2 493.5,-83.62 436.61,-88.63 421.92,-88.33 365,-83.62 343.76,-81.87 320.52,-78.31 300.58,-74.74"/>
<polygon fill="#63b8ff" stroke="#63b8ff" points="543.73,-80 552.93,-74.74 542.46,-73.12 543.73,-80"/>
</a>
</g>
</g>
<!-- Node4 -->
<g id="Node000004" class="node">
<title>Node4</title>
<g id="a_Node000004"><a xlink:href="../../d5/d0a/imgui__demo_8cpp.html#a857526a48370b7d234b9e096e3db99a7" target="_top" xlink:title=" ">
<polygon fill="white" stroke="#666666" points="489.38,-19.25 369.12,-19.25 369.12,0 489.38,0 489.38,-19.25"/>
<text text-anchor="middle" x="429.25" y="-5.75" font-family="Helvetica,sans-Serif" font-size="10.00">ShowPlaceholderObject</text>
</a>
</g>
</g>
<!-- Node1&#45;&gt;Node4 -->
<g id="edge3_Node000001_Node000004" class="edge">
<title>Node1&#45;&gt;Node4</title>
<g id="a_edge3_Node000001_Node000004"><a xlink:title=" ">
<path fill="none" stroke="#63b8ff" d="M559.19,-51.25C529.1,-41.54 489.03,-28.6 461.59,-19.74"/>
<polygon fill="#63b8ff" stroke="#63b8ff" points="557.78,-54.8 568.38,-54.54 559.93,-48.13 557.78,-54.8"/>
</a>
</g>
</g>
<!-- Node6 -->
<g id="Node000006" class="node">
<title>Node6</title>
<g id="a_Node000006"><a xlink:href="../../df/d13/namespace_im_gui.html#a0c16791f4620e8db38511553d5d63335" target="_top" xlink:title=" ">
<polygon fill="white" stroke="#666666" points="493.5,-74.25 365,-74.25 365,-55 493.5,-55 493.5,-74.25"/>
<text text-anchor="middle" x="429.25" y="-60.75" font-family="Helvetica,sans-Serif" font-size="10.00">ImGui::TableHeadersRow</text>
</a>
</g>
</g>
<!-- Node1&#45;&gt;Node6 -->
<g id="edge7_Node000001_Node000006" class="edge">
<title>Node1&#45;&gt;Node6</title>
<g id="a_edge7_Node000001_Node000006"><a xlink:title=" ">
<path fill="none" stroke="#63b8ff" d="M518.53,-64.62C510.26,-64.62 501.95,-64.62 493.91,-64.62"/>
<polygon fill="#63b8ff" stroke="#63b8ff" points="518.36,-68.13 528.36,-64.62 518.36,-61.13 518.36,-68.13"/>
</a>
</g>
</g>
<!-- Node3 -->
<g id="Node000003" class="node">
<title>Node3</title>
<g id="a_Node000003"><a xlink:href="../../df/d13/namespace_im_gui.html#af95643a0ce4893b9e57c12991922fb18" target="_top" xlink:title=" ">
<polygon fill="white" stroke="#666666" points="134.5,-46.25 0,-46.25 0,-27 134.5,-27 134.5,-46.25"/>
<text text-anchor="middle" x="67.25" y="-32.75" font-family="Helvetica,sans-Serif" font-size="10.00">ImGui::ShowDemoWindow</text>
</a>
</g>
</g>
<!-- Node2&#45;&gt;Node3 -->
<g id="edge2_Node000002_Node000003" class="edge">
<title>Node2&#45;&gt;Node3</title>
<g id="a_edge2_Node000002_Node000003"><a xlink:title=" ">
<path fill="none" stroke="#63b8ff" d="M173.52,-52.95C160.18,-50.89 146.39,-48.75 133.36,-46.73"/>
<polygon fill="#63b8ff" stroke="#63b8ff" points="172.68,-56.52 183.1,-54.6 173.75,-49.6 172.68,-56.52"/>
</a>
</g>
</g>
<!-- Node4&#45;&gt;Node4 -->
<g id="edge6_Node000004_Node000004" class="edge">
<title>Node4&#45;&gt;Node4</title>
<g id="a_edge6_Node000004_Node000004"><a xlink:title=" ">
<path fill="none" stroke="#63b8ff" d="M460.91,-29.28C458.27,-33.87 447.71,-37.25 429.25,-37.25 398.95,-37.25 389.95,-28.15 402.26,-19.54"/>
<polygon fill="#63b8ff" stroke="#63b8ff" points="463.72,-28.04 456.24,-20.54 457.41,-31.07 463.72,-28.04"/>
</a>
</g>
</g>
<!-- Node5 -->
<g id="Node000005" class="node">
<title>Node5</title>
<g id="a_Node000005"><a xlink:href="../../d5/d0a/imgui__demo_8cpp.html#a4d8ba8c6a1febc3053bd843c150305da" target="_top" xlink:title=" ">
<polygon fill="white" stroke="#666666" points="329,-28.25 170.5,-28.25 170.5,-9 329,-9 329,-28.25"/>
<text text-anchor="middle" x="249.75" y="-14.75" font-family="Helvetica,sans-Serif" font-size="10.00">ShowExampleAppPropertyEditor</text>
</a>
</g>
</g>
<!-- Node4&#45;&gt;Node5 -->
<g id="edge4_Node000004_Node000005" class="edge">
<title>Node4&#45;&gt;Node5</title>
<g id="a_edge4_Node000004_Node000005"><a xlink:title=" ">
<path fill="none" stroke="#63b8ff" d="M357.85,-13.19C348.51,-13.67 338.89,-14.16 329.42,-14.64"/>
<polygon fill="#63b8ff" stroke="#63b8ff" points="357.84,-16.65 367.65,-12.65 357.49,-9.66 357.84,-16.65"/>
</a>
</g>
</g>
<!-- Node5&#45;&gt;Node3 -->
<g id="edge5_Node000005_Node000003" class="edge">
<title>Node5&#45;&gt;Node3</title>
<g id="a_edge5_Node000005_Node000003"><a xlink:title=" ">
<path fill="none" stroke="#63b8ff" d="M159.29,-27.55C151.03,-28.37 142.77,-29.19 134.78,-29.99"/>
<polygon fill="#63b8ff" stroke="#63b8ff" points="159.5,-30.94 169.11,-26.47 158.81,-23.98 159.5,-30.94"/>
</a>
</g>
</g>
<!-- Node6&#45;&gt;Node2 -->
<g id="edge8_Node000006_Node000002" class="edge">
<title>Node6&#45;&gt;Node2</title>
<g id="a_edge8_Node000006_Node000002"><a xlink:title=" ">
<path fill="none" stroke="#63b8ff" d="M354.01,-64.62C341.18,-64.62 327.93,-64.62 315.38,-64.62"/>
<polygon fill="#63b8ff" stroke="#63b8ff" points="353.67,-68.13 363.67,-64.62 353.67,-61.13 353.67,-68.13"/>
</a>
</g>
</g>
</g>
</svg>
