<?xml version="1.0" encoding="UTF-8" standalone="no"?>
<!DOCTYPE svg PUBLIC "-//W3C//DTD SVG 1.1//EN"
 "http://www.w3.org/Graphics/SVG/1.1/DTD/svg11.dtd">
<!-- Generated by graphviz version 8.1.0 (20230707.0739)
 -->
<!-- Title: ImGui::BeginPopupContextItem Pages: 1 -->
<!--zoomable 178 -->

<svg id="main" version="1.1" xmlns="http://www.w3.org/2000/svg" xmlns:xlink="http://www.w3.org/1999/xlink" xml:space="preserve" onload="init(evt)">
<style type="text/css"><![CDATA[
.node, .edge {opacity: 0.7;}
.node.selected, .edge.selected {opacity: 1;}
.edge:hover path { stroke: red; }
.edge:hover polygon { stroke: red; fill: red; }
]]></style>

<defs>
  <circle id="rim" cx="0" cy="0" r="7"/>
  <circle id="rim2" cx="0" cy="0" r="3.5"/>
  <g id="zoomPlus">
    <use xlink:href="#rim" fill="#404040"><set attributeName="fill" to="#808080" begin="zoomplus.mouseover" end="zoomplus.mouseout"/></use>
    <path d="M-4,0h8M0,-4v8" fill="none" stroke="white" stroke-width="1.5" pointer-events="none"/>
  </g>
  <g id="zoomMin">
    <use xlink:href="#rim" fill="#404040"><set attributeName="fill" to="#808080" begin="zoomminus.mouseover" end="zoomminus.mouseout"/></use>
    <path d="M-4,0h8" fill="none" stroke="white" stroke-width="1.5" pointer-events="none"/>
  </g>
  <g id="arrowUp" transform="translate(30 24)">
    <use xlink:href="#rim"/>
    <path pointer-events="none" fill="none" stroke="white" stroke-width="1.5" d="M0,-3.0v7 M-2.5,-0.5L0,-3.0L2.5,-0.5"/>
  </g>
  <g id="arrowRight" transform="rotate(90) translate(36 -43)">
    <use xlink:href="#rim"/>
    <path pointer-events="none" fill="none" stroke="white" stroke-width="1.5" d="M0,-3.0v7 M-2.5,-0.5L0,-3.0L2.5,-0.5"/>
  </g>
  <g id="arrowDown" transform="rotate(180) translate(-30 -48)">
    <use xlink:href="#rim"/>
    <path pointer-events="none" fill="none" stroke="white" stroke-width="1.5" d="M0,-3.0v7 M-2.5,-0.5L0,-3.0L2.5,-0.5"/>
  </g>
  <g id="arrowLeft" transform="rotate(270) translate(-36 17)">
    <use xlink:href="#rim"/>
    <path pointer-events="none" fill="none" stroke="white" stroke-width="1.5" d="M0,-3.0v7 M-2.5,-0.5L0,-3.0L2.5,-0.5"/>
  </g>
  <g id="resetDef">
    <use xlink:href="#rim2" fill="#404040"><set attributeName="fill" to="#808080" begin="reset.mouseover" end="reset.mouseout"/></use>
  </g>
</defs>
<script type="application/ecmascript">
var viewWidth = 724;
var viewHeight = 178;
var sectionId = 'dynsection-77';
</script>
<script type="application/ecmascript" xlink:href="../../svg.min.js"/>
<svg id="graph" class="graph">
<g id="viewport">
<title>ImGui::BeginPopupContextItem</title>
<!-- Node1 -->
<g id="Node000001" class="node">
<title>Node1</title>
<g id="a_Node000001"><a xlink:title=" ">
<polygon fill="#999999" stroke="#666666" points="715.75,-95.25 561,-95.25 561,-76 715.75,-76 715.75,-95.25"/>
<text text-anchor="middle" x="638.38" y="-81.75" font-family="Helvetica,sans-Serif" font-size="10.00">ImGui::BeginPopupContextItem</text>
</a>
</g>
</g>
<!-- Node2 -->
<g id="Node000002" class="node">
<title>Node2</title>
<g id="a_Node000002"><a xlink:href="../../dd/d8e/struct_my_document.html#ae9e8d83c14b75c307447e3f410e432ec" target="_top" xlink:title=" ">
<polygon fill="white" stroke="#666666" points="525,-170.25 353,-170.25 353,-151 525,-151 525,-170.25"/>
<text text-anchor="middle" x="439" y="-156.75" font-family="Helvetica,sans-Serif" font-size="10.00">MyDocument::DisplayContextMenu</text>
</a>
</g>
</g>
<!-- Node1&#45;&gt;Node2 -->
<g id="edge1_Node000001_Node000002" class="edge">
<title>Node1&#45;&gt;Node2</title>
<g id="a_edge1_Node000001_Node000002"><a xlink:title=" ">
<path fill="none" stroke="#63b8ff" d="M611.46,-101.23C589.22,-114.01 555.95,-131.71 525,-142.62 516.32,-145.69 506.95,-148.31 497.72,-150.53"/>
<polygon fill="#63b8ff" stroke="#63b8ff" points="612.98,-103.81 619.85,-95.75 609.45,-97.77 612.98,-103.81"/>
</a>
</g>
</g>
<!-- Node5 -->
<g id="Node000005" class="node">
<title>Node5</title>
<g id="a_Node000005"><a xlink:href="../../de/d1c/struct_example_app_console.html#a0518a09c7e8648dd52c7c06df19ac17a" target="_top" xlink:title=" ">
<polygon fill="white" stroke="#666666" points="507.38,-133.25 370.62,-133.25 370.62,-114 507.38,-114 507.38,-133.25"/>
<text text-anchor="middle" x="439" y="-119.75" font-family="Helvetica,sans-Serif" font-size="10.00">ExampleAppConsole::Draw</text>
</a>
</g>
</g>
<!-- Node1&#45;&gt;Node5 -->
<g id="edge4_Node000001_Node000005" class="edge">
<title>Node1&#45;&gt;Node5</title>
<g id="a_edge4_Node000001_Node000005"><a xlink:title=" ">
<path fill="none" stroke="#63b8ff" d="M574.31,-97.77C547.86,-102.86 517.46,-108.71 492.28,-113.56"/>
<polygon fill="#63b8ff" stroke="#63b8ff" points="574.84,-101.04 584,-95.71 573.52,-94.16 574.84,-101.04"/>
</a>
</g>
</g>
<!-- Node7 -->
<g id="Node000007" class="node">
<title>Node7</title>
<g id="a_Node000007"><a xlink:href="../../d5/d0a/imgui__demo_8cpp.html#ab19d813f2403009dd8700e041e10c09d" target="_top" xlink:title=" ">
<polygon fill="white" stroke="#666666" points="311.38,-95.25 176.12,-95.25 176.12,-76 311.38,-76 311.38,-95.25"/>
<text text-anchor="middle" x="243.75" y="-81.75" font-family="Helvetica,sans-Serif" font-size="10.00">ShowDemoWindowPopups</text>
</a>
</g>
</g>
<!-- Node1&#45;&gt;Node7 -->
<g id="edge7_Node000001_Node000007" class="edge">
<title>Node1&#45;&gt;Node7</title>
<g id="a_edge7_Node000001_Node000007"><a xlink:title=" ">
<path fill="none" stroke="#63b8ff" d="M549.89,-85.62C477.91,-85.62 377.4,-85.62 311.71,-85.62"/>
<polygon fill="#63b8ff" stroke="#63b8ff" points="549.74,-89.13 559.74,-85.62 549.74,-82.13 549.74,-89.13"/>
</a>
</g>
</g>
<!-- Node8 -->
<g id="Node000008" class="node">
<title>Node8</title>
<g id="a_Node000008"><a xlink:href="../../d5/d0a/imgui__demo_8cpp.html#a1de6150f52a967e73750eb642ec025fe" target="_top" xlink:title=" ">
<polygon fill="white" stroke="#666666" points="504.38,-57.25 373.62,-57.25 373.62,-38 504.38,-38 504.38,-57.25"/>
<text text-anchor="middle" x="439" y="-43.75" font-family="Helvetica,sans-Serif" font-size="10.00">ShowDemoWindowTables</text>
</a>
</g>
</g>
<!-- Node1&#45;&gt;Node8 -->
<g id="edge9_Node000001_Node000008" class="edge">
<title>Node1&#45;&gt;Node8</title>
<g id="a_edge9_Node000001_Node000008"><a xlink:title=" ">
<path fill="none" stroke="#63b8ff" d="M574.31,-73.48C547.86,-68.39 517.46,-62.54 492.28,-57.69"/>
<polygon fill="#63b8ff" stroke="#63b8ff" points="573.52,-77.09 584,-75.54 574.84,-70.21 573.52,-77.09"/>
</a>
</g>
</g>
<!-- Node9 -->
<g id="Node000009" class="node">
<title>Node9</title>
<g id="a_Node000009"><a xlink:href="../../d5/d0a/imgui__demo_8cpp.html#af533fd0a774d6bbebe61e474db6f144f" target="_top" xlink:title=" ">
<polygon fill="white" stroke="#666666" points="312.88,-19.25 174.62,-19.25 174.62,0 312.88,0 312.88,-19.25"/>
<text text-anchor="middle" x="243.75" y="-5.75" font-family="Helvetica,sans-Serif" font-size="10.00">ShowDemoWindowWidgets</text>
</a>
</g>
</g>
<!-- Node1&#45;&gt;Node9 -->
<g id="edge11_Node000001_Node000009" class="edge">
<title>Node1&#45;&gt;Node9</title>
<g id="a_edge11_Node000001_Node000009"><a xlink:title=" ">
<path fill="none" stroke="#63b8ff" d="M613.32,-69.81C591.32,-56.25 557.37,-37.53 525,-28.62 454.59,-9.25 370.66,-6.04 313.12,-6.71"/>
<polygon fill="#63b8ff" stroke="#63b8ff" points="611.22,-73.25 621.54,-75.63 614.95,-67.33 611.22,-73.25"/>
</a>
</g>
</g>
<!-- Node3 -->
<g id="Node000003" class="node">
<title>Node3</title>
<g id="a_Node000003"><a xlink:href="../../d5/d0a/imgui__demo_8cpp.html#aa9e4f5130b74080ea2d97916a91b3b3c" target="_top" xlink:title=" ">
<polygon fill="white" stroke="#666666" points="317,-169.25 170.5,-169.25 170.5,-150 317,-150 317,-169.25"/>
<text text-anchor="middle" x="243.75" y="-155.75" font-family="Helvetica,sans-Serif" font-size="10.00">ShowExampleAppDocuments</text>
</a>
</g>
</g>
<!-- Node2&#45;&gt;Node3 -->
<g id="edge2_Node000002_Node000003" class="edge">
<title>Node2&#45;&gt;Node3</title>
<g id="a_edge2_Node000002_Node000003"><a xlink:title=" ">
<path fill="none" stroke="#63b8ff" d="M341.82,-160.13C333.54,-160.08 325.26,-160.04 317.22,-160"/>
<polygon fill="#63b8ff" stroke="#63b8ff" points="341.66,-163.63 351.68,-160.18 341.69,-156.63 341.66,-163.63"/>
</a>
</g>
</g>
<!-- Node4 -->
<g id="Node000004" class="node">
<title>Node4</title>
<g id="a_Node000004"><a xlink:href="../../df/d13/namespace_im_gui.html#af95643a0ce4893b9e57c12991922fb18" target="_top" xlink:title=" ">
<polygon fill="white" stroke="#666666" points="134.5,-95.25 0,-95.25 0,-76 134.5,-76 134.5,-95.25"/>
<text text-anchor="middle" x="67.25" y="-81.75" font-family="Helvetica,sans-Serif" font-size="10.00">ImGui::ShowDemoWindow</text>
</a>
</g>
</g>
<!-- Node3&#45;&gt;Node4 -->
<g id="edge3_Node000003_Node000004" class="edge">
<title>Node3&#45;&gt;Node4</title>
<g id="a_edge3_Node000003_Node000004"><a xlink:title=" ">
<path fill="none" stroke="#63b8ff" d="M184.37,-146.47C179.63,-144.98 174.95,-143.37 170.5,-141.62 138.08,-128.95 103.06,-108.03 83.58,-95.66"/>
<polygon fill="#63b8ff" stroke="#63b8ff" points="183.21,-150.07 193.79,-149.52 185.18,-143.35 183.21,-150.07"/>
</a>
</g>
</g>
<!-- Node6 -->
<g id="Node000006" class="node">
<title>Node6</title>
<g id="a_Node000006"><a xlink:href="../../d5/d0a/imgui__demo_8cpp.html#a8e5624314ae6402dd0ddf2a62aa91473" target="_top" xlink:title=" ">
<polygon fill="white" stroke="#666666" points="309.88,-132.25 177.62,-132.25 177.62,-113 309.88,-113 309.88,-132.25"/>
<text text-anchor="middle" x="243.75" y="-118.75" font-family="Helvetica,sans-Serif" font-size="10.00">ShowExampleAppConsole</text>
</a>
</g>
</g>
<!-- Node5&#45;&gt;Node6 -->
<g id="edge5_Node000005_Node000006" class="edge">
<title>Node5&#45;&gt;Node6</title>
<g id="a_edge5_Node000005_Node000006"><a xlink:title=" ">
<path fill="none" stroke="#63b8ff" d="M359.5,-123.22C343.12,-123.13 326.02,-123.05 310.17,-122.96"/>
<polygon fill="#63b8ff" stroke="#63b8ff" points="359.12,-126.72 369.14,-123.27 359.16,-119.72 359.12,-126.72"/>
</a>
</g>
</g>
<!-- Node6&#45;&gt;Node4 -->
<g id="edge6_Node000006_Node000004" class="edge">
<title>Node6&#45;&gt;Node4</title>
<g id="a_edge6_Node000006_Node000004"><a xlink:title=" ">
<path fill="none" stroke="#63b8ff" d="M184.39,-110.25C162.13,-105.53 137.03,-100.21 115.88,-95.72"/>
<polygon fill="#63b8ff" stroke="#63b8ff" points="183.56,-113.86 194.07,-112.51 185.01,-107.02 183.56,-113.86"/>
</a>
</g>
</g>
<!-- Node7&#45;&gt;Node4 -->
<g id="edge8_Node000007_Node000004" class="edge">
<title>Node7&#45;&gt;Node4</title>
<g id="a_edge8_Node000007_Node000004"><a xlink:title=" ">
<path fill="none" stroke="#63b8ff" d="M164.94,-85.62C154.87,-85.62 144.62,-85.62 134.75,-85.62"/>
<polygon fill="#63b8ff" stroke="#63b8ff" points="164.78,-89.13 174.78,-85.62 164.78,-82.13 164.78,-89.13"/>
</a>
</g>
</g>
<!-- Node8&#45;&gt;Node4 -->
<g id="edge10_Node000008_Node000004" class="edge">
<title>Node8&#45;&gt;Node4</title>
<g id="a_edge10_Node000008_Node000004"><a xlink:title=" ">
<path fill="none" stroke="#63b8ff" d="M362.4,-50.72C308.7,-53.47 234.98,-58.37 170.5,-66.62 152.77,-68.89 133.46,-72.25 116.45,-75.51"/>
<polygon fill="#63b8ff" stroke="#63b8ff" points="362.39,-54.17 372.21,-50.18 362.04,-47.18 362.39,-54.17"/>
</a>
</g>
</g>
<!-- Node9&#45;&gt;Node4 -->
<g id="edge12_Node000009_Node000004" class="edge">
<title>Node9&#45;&gt;Node4</title>
<g id="a_edge12_Node000009_Node000004"><a xlink:title=" ">
<path fill="none" stroke="#63b8ff" d="M198.57,-23.13C189.21,-26.32 179.45,-29.89 170.5,-33.62 139.99,-46.36 106.06,-64.45 85.97,-75.59"/>
<polygon fill="#63b8ff" stroke="#63b8ff" points="199.52,-26.17 207.91,-19.71 197.32,-19.53 199.52,-26.17"/>
</a>
</g>
</g>
</g>
</svg>

<g id="navigator" transform="translate(0 0)" fill="#404254">
  <rect fill="#f2f5e9" fill-opacity="0.5" stroke="#606060" stroke-width=".5" x="0" y="0" width="60" height="60"/>
  <use id="zoomplus" xlink:href="#zoomPlus" x="17" y="9" onmousedown="handleZoom(evt,'in')"/>
  <use id="zoomminus" xlink:href="#zoomMin" x="42" y="9" onmousedown="handleZoom(evt,'out')"/>
  <use id="reset" xlink:href="#resetDef" x="30" y="36" onmousedown="handleReset()"/>
   <use id="arrowup" xlink:href="#arrowUp" x="0" y="0" onmousedown="handlePan(0,-1)"/>
  <use id="arrowright" xlink:href="#arrowRight" x="0" y="0" onmousedown="handlePan(1,0)"/>
  <use id="arrowdown" xlink:href="#arrowDown" x="0" y="0" onmousedown="handlePan(0,1)"/>
  <use id="arrowleft" xlink:href="#arrowLeft" x="0" y="0" onmousedown="handlePan(-1,0)"/>
</g>
<svg viewBox="0 0 15 15" width="100%" height="30px" preserveAspectRatio="xMaxYMin meet">
 <g id="arrow_out" transform="scale(0.3 0.3)">
  <a xlink:href="namespace_im_gui_a440894c8c00495d5cc01529f4504fca9_icgraph_org.svg" target="_base">
   <rect id="button" ry="5" rx="5" y="6" x="6" height="38" width="38"
        fill="#f2f5e9" fill-opacity="0.5" stroke="#606060" stroke-width="1.0"/>
   <path id="arrow"
     d="M 11.500037,31.436501 C 11.940474,20.09759 22.043105,11.32322 32.158766,21.979434 L 37.068811,17.246167 C 37.068811,17.246167 37.088388,32 37.088388,32 L 22.160133,31.978069 C 22.160133,31.978069 26.997745,27.140456 26.997745,27.140456 C 18.528582,18.264221 13.291696,25.230495 11.500037,31.436501 z"
     style="fill:#404040;"/>
  </a>
 </g>
</svg>

<style type='text/css'>
<![CDATA[
[data-mouse-over-selected='false'] { opacity: 0.7; }
[data-mouse-over-selected='true']  { opacity: 1.0; }
]]>
</style>
<script type="application/ecmascript"><![CDATA[
document.addEventListener('DOMContentLoaded', (event) => {
  highlightEdges();
  highlightAdjacentNodes();
});
]]></script>
</svg>
