<?xml version="1.0" encoding="UTF-8" standalone="no"?>
<!DOCTYPE svg PUBLIC "-//W3C//DTD SVG 1.1//EN"
 "http://www.w3.org/Graphics/SVG/1.1/DTD/svg11.dtd">
<!-- Generated by graphviz version 8.1.0 (20230707.0739)
 -->
<!-- Title: ImGui::SetTooltip Pages: 1 -->
<svg width="1362pt" height="746pt"
 viewBox="0.00 0.00 1361.50 746.12" xmlns="http://www.w3.org/2000/svg" xmlns:xlink="http://www.w3.org/1999/xlink">
<g id="graph0" class="graph" transform="scale(1 1) rotate(0) translate(4 742.12)">
<title>ImGui::SetTooltip</title>
<!-- Node1 -->
<g id="Node000001" class="node">
<title>Node1</title>
<g id="a_Node000001"><a xlink:title=" ">
<polygon fill="#999999" stroke="#666666" points="1353.5,-516.88 1261.75,-516.88 1261.75,-497.62 1353.5,-497.62 1353.5,-516.88"/>
<text text-anchor="middle" x="1307.62" y="-503.38" font-family="Helvetica,sans-Serif" font-size="10.00">ImGui::SetTooltip</text>
</a>
</g>
</g>
<!-- Node2 -->
<g id="Node000002" class="node">
<title>Node2</title>
<g id="a_Node000002"><a xlink:href="../../d9/d59/class_slic3r_1_1_g_u_i_1_1_g_l_gizmo_rotate3_d_1_1_rotoptimze_window.html#aece01343f267b86c179efa379e276bb2" target="_top" xlink:title=" ">
<polygon fill="white" stroke="#666666" points="1225.75,-738.12 1054.5,-738.12 1054.5,-696.38 1225.75,-696.38 1225.75,-738.12"/>
<text text-anchor="start" x="1062.5" y="-724.62" font-family="Helvetica,sans-Serif" font-size="10.00">Slic3r::GUI::GLGizmoRotate3</text>
<text text-anchor="start" x="1062.5" y="-713.38" font-family="Helvetica,sans-Serif" font-size="10.00">D::RotoptimzeWindow::Rotoptimze</text>
<text text-anchor="middle" x="1140.12" y="-702.12" font-family="Helvetica,sans-Serif" font-size="10.00">Window</text>
</a>
</g>
</g>
<!-- Node1&#45;&gt;Node2 -->
<g id="edge1_Node000001_Node000002" class="edge">
<title>Node1&#45;&gt;Node2</title>
<g id="a_edge1_Node000001_Node000002"><a xlink:title=" ">
<path fill="none" stroke="#63b8ff" d="M1302.97,-527.42C1295.27,-564.29 1273.94,-642.84 1225.75,-687.25 1222.2,-690.52 1218.26,-693.45 1214.09,-696.05"/>
<polygon fill="#63b8ff" stroke="#63b8ff" points="1306.52,-528.5 1305.01,-518.01 1299.66,-527.15 1306.52,-528.5"/>
</a>
</g>
</g>
<!-- Node3 -->
<g id="Node000003" class="node">
<title>Node3</title>
<g id="a_Node000003"><a xlink:href="../../df/d13/namespace_im_gui.html#a246c37da45e88a12ade440a0feacb4ee" target="_top" xlink:title=" ">
<polygon fill="white" stroke="#666666" points="1186.75,-677.88 1093.5,-677.88 1093.5,-658.62 1186.75,-658.62 1186.75,-677.88"/>
<text text-anchor="middle" x="1140.12" y="-664.38" font-family="Helvetica,sans-Serif" font-size="10.00">ImGui::EndFrame</text>
</a>
</g>
</g>
<!-- Node1&#45;&gt;Node3 -->
<g id="edge2_Node000001_Node000003" class="edge">
<title>Node1&#45;&gt;Node3</title>
<g id="a_edge2_Node000001_Node000003"><a xlink:title=" ">
<path fill="none" stroke="#63b8ff" d="M1300.92,-527.49C1291.02,-558.72 1267.61,-618.28 1225.75,-649.25 1214.61,-657.49 1200.55,-662.26 1187.11,-664.99"/>
<polygon fill="#63b8ff" stroke="#63b8ff" points="1304.54,-528.61 1304.06,-518.03 1297.83,-526.6 1304.54,-528.61"/>
</a>
</g>
</g>
<!-- Node8 -->
<g id="Node000008" class="node">
<title>Node8</title>
<g id="a_Node000008"><a xlink:href="../../d1/d4e/class_slic3r_1_1_g_u_i_1_1_g_l_gizmo_simplify.html#a62fe9acd61e7f5f1d47dc4e7bec6fd10" target="_top" xlink:title=" ">
<polygon fill="white" stroke="#666666" points="1213.75,-640.5 1066.5,-640.5 1066.5,-610 1213.75,-610 1213.75,-640.5"/>
<text text-anchor="start" x="1074.5" y="-627" font-family="Helvetica,sans-Serif" font-size="10.00">Slic3r::GUI::GLGizmoSimplify</text>
<text text-anchor="middle" x="1140.12" y="-615.75" font-family="Helvetica,sans-Serif" font-size="10.00">::on_render_input_window</text>
</a>
</g>
</g>
<!-- Node1&#45;&gt;Node8 -->
<g id="edge7_Node000001_Node000008" class="edge">
<title>Node1&#45;&gt;Node8</title>
<g id="a_edge7_Node000001_Node000008"><a xlink:title=" ">
<path fill="none" stroke="#63b8ff" d="M1295.2,-526.24C1281.38,-547.6 1256.14,-581.84 1225.75,-601.25 1220.73,-604.46 1215.28,-607.24 1209.64,-609.66"/>
<polygon fill="#63b8ff" stroke="#63b8ff" points="1298.54,-528.5 1300.89,-518.16 1292.61,-524.78 1298.54,-528.5"/>
</a>
</g>
</g>
<!-- Node9 -->
<g id="Node000009" class="node">
<title>Node9</title>
<g id="a_Node000009"><a xlink:href="../../df/d13/namespace_im_gui.html#a06fa3c299399f4cd5f4a7311ba1ece54" target="_top" xlink:title=" ">
<polygon fill="white" stroke="#666666" points="1178.88,-430.88 1101.38,-430.88 1101.38,-411.62 1178.88,-411.62 1178.88,-430.88"/>
<text text-anchor="middle" x="1140.12" y="-417.38" font-family="Helvetica,sans-Serif" font-size="10.00">ImGui::PlotEx</text>
</a>
</g>
</g>
<!-- Node1&#45;&gt;Node9 -->
<g id="edge8_Node000001_Node000009" class="edge">
<title>Node1&#45;&gt;Node9</title>
<g id="a_edge8_Node000001_Node000009"><a xlink:title=" ">
<path fill="none" stroke="#63b8ff" d="M1290.21,-489.58C1274.97,-474.23 1250.88,-452.59 1225.75,-440.25 1211.29,-433.15 1194.13,-428.67 1179.06,-425.85"/>
<polygon fill="#63b8ff" stroke="#63b8ff" points="1287.26,-491.6 1296.73,-496.36 1292.3,-486.73 1287.26,-491.6"/>
</a>
</g>
</g>
<!-- Node11 -->
<g id="Node000011" class="node">
<title>Node11</title>
<g id="a_Node000011"><a xlink:href="../../d5/d0a/imgui__demo_8cpp.html#ac209de20c1f862aa48a3f5f27aee407e" target="_top" xlink:title=" ">
<polygon fill="white" stroke="#666666" points="827.75,-459.88 696.25,-459.88 696.25,-440.62 827.75,-440.62 827.75,-459.88"/>
<text text-anchor="middle" x="762" y="-446.38" font-family="Helvetica,sans-Serif" font-size="10.00">ShowDemoWindowLayout</text>
</a>
</g>
</g>
<!-- Node1&#45;&gt;Node11 -->
<g id="edge19_Node000001_Node000011" class="edge">
<title>Node1&#45;&gt;Node11</title>
<g id="a_edge19_Node000001_Node000011"><a xlink:title=" ">
<path fill="none" stroke="#63b8ff" d="M1250.38,-509.24C1169.16,-511.1 1014.61,-510.8 885.5,-488.25 851.06,-482.23 812.79,-469.3 788.34,-460.2"/>
<polygon fill="#63b8ff" stroke="#63b8ff" points="1250.43,-512.72 1260.34,-508.97 1250.26,-505.72 1250.43,-512.72"/>
</a>
</g>
</g>
<!-- Node13 -->
<g id="Node000013" class="node">
<title>Node13</title>
<g id="a_Node000013"><a xlink:href="../../d5/d0a/imgui__demo_8cpp.html#af533fd0a774d6bbebe61e474db6f144f" target="_top" xlink:title=" ">
<polygon fill="white" stroke="#666666" points="831.12,-402.88 692.88,-402.88 692.88,-383.62 831.12,-383.62 831.12,-402.88"/>
<text text-anchor="middle" x="762" y="-389.38" font-family="Helvetica,sans-Serif" font-size="10.00">ShowDemoWindowWidgets</text>
</a>
</g>
</g>
<!-- Node1&#45;&gt;Node13 -->
<g id="edge22_Node000001_Node000013" class="edge">
<title>Node1&#45;&gt;Node13</title>
<g id="a_edge22_Node000001_Node000013"><a xlink:title=" ">
<path fill="none" stroke="#63b8ff" d="M1296.46,-487.54C1283.28,-463.88 1258.09,-424.6 1225.75,-402.25 1146.55,-347.51 1113.73,-353.4 1018.5,-339.25 960.03,-330.56 940.11,-316.63 885.5,-339.25 864.59,-347.91 869.41,-364.5 849.5,-375.25 843.56,-378.46 837.11,-381.09 830.5,-383.26"/>
<polygon fill="#63b8ff" stroke="#63b8ff" points="1293.84,-489.05 1301.66,-496.2 1300,-485.73 1293.84,-489.05"/>
</a>
</g>
</g>
<!-- Node17 -->
<g id="Node000017" class="node">
<title>Node17</title>
<g id="a_Node000017"><a xlink:href="../../d6/d97/class_slic3r_1_1_g_u_i_1_1_im_gui_wrapper.html#affd7d8ffccac0829477818bbef33509b" target="_top" xlink:title=" ">
<polygon fill="white" stroke="#666666" points="1206.62,-479.5 1073.62,-479.5 1073.62,-449 1206.62,-449 1206.62,-479.5"/>
<text text-anchor="start" x="1081.62" y="-466" font-family="Helvetica,sans-Serif" font-size="10.00">Slic3r::GUI::ImGuiWrapper</text>
<text text-anchor="middle" x="1140.12" y="-454.75" font-family="Helvetica,sans-Serif" font-size="10.00">::search_list</text>
</a>
</g>
</g>
<!-- Node1&#45;&gt;Node17 -->
<g id="edge18_Node000001_Node000017" class="edge">
<title>Node1&#45;&gt;Node17</title>
<g id="a_edge18_Node000001_Node000017"><a xlink:title=" ">
<path fill="none" stroke="#63b8ff" d="M1257.3,-494.43C1239.84,-489.9 1219.99,-484.74 1201.71,-479.99"/>
<polygon fill="#63b8ff" stroke="#63b8ff" points="1256.26,-498.04 1266.82,-497.17 1258.02,-491.27 1256.26,-498.04"/>
</a>
</g>
</g>
<!-- Node18 -->
<g id="Node000018" class="node">
<title>Node18</title>
<g id="a_Node000018"><a xlink:href="../../d5/d0a/imgui__demo_8cpp.html#ab19d813f2403009dd8700e041e10c09d" target="_top" xlink:title=" ">
<polygon fill="white" stroke="#666666" points="1207.75,-591.88 1072.5,-591.88 1072.5,-572.62 1207.75,-572.62 1207.75,-591.88"/>
<text text-anchor="middle" x="1140.12" y="-578.38" font-family="Helvetica,sans-Serif" font-size="10.00">ShowDemoWindowPopups</text>
</a>
</g>
</g>
<!-- Node1&#45;&gt;Node18 -->
<g id="edge20_Node000001_Node000018" class="edge">
<title>Node1&#45;&gt;Node18</title>
<g id="a_edge20_Node000001_Node000018"><a xlink:title=" ">
<path fill="none" stroke="#63b8ff" d="M1287.22,-524.36C1271.63,-537.21 1248.65,-554.25 1225.75,-564.25 1218.59,-567.38 1210.85,-569.97 1203.06,-572.13"/>
<polygon fill="#63b8ff" stroke="#63b8ff" points="1289.11,-526.5 1294.48,-517.37 1284.59,-521.16 1289.11,-526.5"/>
</a>
</g>
</g>
<!-- Node19 -->
<g id="Node000019" class="node">
<title>Node19</title>
<g id="a_Node000019"><a xlink:href="../../df/d13/namespace_im_gui.html#ae714b56ec452ac7b3da815973b62beb8" target="_top" xlink:title=" ">
<polygon fill="white" stroke="#666666" points="1187.88,-291.88 1092.38,-291.88 1092.38,-272.62 1187.88,-272.62 1187.88,-291.88"/>
<text text-anchor="middle" x="1140.12" y="-278.38" font-family="Helvetica,sans-Serif" font-size="10.00">ImGui::TabItemEx</text>
</a>
</g>
</g>
<!-- Node1&#45;&gt;Node19 -->
<g id="edge23_Node000001_Node000019" class="edge">
<title>Node1&#45;&gt;Node19</title>
<g id="a_edge23_Node000001_Node000019"><a xlink:title=" ">
<path fill="none" stroke="#63b8ff" d="M1304.27,-486.4C1298.55,-445.64 1280.11,-355.13 1225.75,-306.25 1215.3,-296.86 1201.43,-291.12 1187.95,-287.61"/>
<polygon fill="#63b8ff" stroke="#63b8ff" points="1300.9,-486.66 1305.64,-496.14 1307.85,-485.78 1300.9,-486.66"/>
</a>
</g>
</g>
<!-- Node54 -->
<g id="Node000054" class="node">
<title>Node54</title>
<g id="a_Node000054"><a xlink:href="../../df/d13/namespace_im_gui.html#ae51bc07bc518779f58def3c0e2d0045c" target="_top" xlink:title=" ">
<polygon fill="white" stroke="#666666" points="1191.62,-554.88 1088.62,-554.88 1088.62,-535.62 1191.62,-535.62 1191.62,-554.88"/>
<text text-anchor="middle" x="1140.12" y="-541.38" font-family="Helvetica,sans-Serif" font-size="10.00">ImGui::TableHeader</text>
</a>
</g>
</g>
<!-- Node1&#45;&gt;Node54 -->
<g id="edge56_Node000001_Node000054" class="edge">
<title>Node1&#45;&gt;Node54</title>
<g id="a_edge56_Node000001_Node000054"><a xlink:title=" ">
<path fill="none" stroke="#63b8ff" d="M1252.26,-519.73C1230.43,-524.74 1205.6,-530.45 1184.96,-535.19"/>
<polygon fill="#63b8ff" stroke="#63b8ff" points="1252.75,-522.98 1261.71,-517.33 1251.18,-516.16 1252.75,-522.98"/>
</a>
</g>
</g>
<!-- Node57 -->
<g id="Node000057" class="node">
<title>Node57</title>
<g id="a_Node000057"><a xlink:href="../../d6/d97/class_slic3r_1_1_g_u_i_1_1_im_gui_wrapper.html#a7a0928f8140bc13f69117741ec584f07" target="_top" xlink:title=" ">
<polygon fill="white" stroke="#666666" points="1206.62,-254.5 1073.62,-254.5 1073.62,-224 1206.62,-224 1206.62,-254.5"/>
<text text-anchor="start" x="1081.62" y="-241" font-family="Helvetica,sans-Serif" font-size="10.00">Slic3r::GUI::ImGuiWrapper</text>
<text text-anchor="middle" x="1140.12" y="-229.75" font-family="Helvetica,sans-Serif" font-size="10.00">::undo_redo_list</text>
</a>
</g>
</g>
<!-- Node1&#45;&gt;Node57 -->
<g id="edge61_Node000001_Node000057" class="edge">
<title>Node1&#45;&gt;Node57</title>
<g id="a_edge61_Node000001_Node000057"><a xlink:title=" ">
<path fill="none" stroke="#63b8ff" d="M1305.97,-486.27C1303.34,-439.31 1290.26,-325 1225.75,-263.25 1220.34,-258.08 1213.91,-254 1207.03,-250.8"/>
<polygon fill="#63b8ff" stroke="#63b8ff" points="1302.51,-486.33 1306.45,-496.16 1309.51,-486.02 1302.51,-486.33"/>
</a>
</g>
</g>
<!-- Node4 -->
<g id="Node000004" class="node">
<title>Node4</title>
<g id="a_Node000004"><a xlink:href="../../df/d13/namespace_im_gui.html#ab51a164f547317c16c441f1599e3946d" target="_top" xlink:title=" ">
<polygon fill="white" stroke="#666666" points="991.88,-676.88 912.12,-676.88 912.12,-657.62 991.88,-657.62 991.88,-676.88"/>
<text text-anchor="middle" x="952" y="-663.38" font-family="Helvetica,sans-Serif" font-size="10.00">ImGui::Render</text>
</a>
</g>
</g>
<!-- Node3&#45;&gt;Node4 -->
<g id="edge3_Node000003_Node000004" class="edge">
<title>Node3&#45;&gt;Node4</title>
<g id="a_edge3_Node000003_Node000004"><a xlink:title=" ">
<path fill="none" stroke="#63b8ff" d="M1082.25,-667.94C1053.09,-667.79 1018.32,-667.6 992.19,-667.46"/>
<polygon fill="#63b8ff" stroke="#63b8ff" points="1082.1,-671.45 1092.12,-668 1082.14,-664.45 1082.1,-671.45"/>
</a>
</g>
</g>
<!-- Node7 -->
<g id="Node000007" class="node">
<title>Node7</title>
<g id="a_Node000007"><a xlink:href="../../d6/d97/class_slic3r_1_1_g_u_i_1_1_im_gui_wrapper.html#aff7e6add6ce7605680349b95a867734d" target="_top" xlink:title=" ">
<polygon fill="white" stroke="#666666" points="1018.5,-725.5 885.5,-725.5 885.5,-695 1018.5,-695 1018.5,-725.5"/>
<text text-anchor="start" x="893.5" y="-712" font-family="Helvetica,sans-Serif" font-size="10.00">Slic3r::GUI::ImGuiWrapper</text>
<text text-anchor="middle" x="952" y="-700.75" font-family="Helvetica,sans-Serif" font-size="10.00">::set_language</text>
</a>
</g>
</g>
<!-- Node3&#45;&gt;Node7 -->
<g id="edge6_Node000003_Node000007" class="edge">
<title>Node3&#45;&gt;Node7</title>
<g id="a_edge6_Node000003_Node000007"><a xlink:title=" ">
<path fill="none" stroke="#63b8ff" d="M1083.87,-680.64C1074.09,-682.84 1063.99,-685.11 1054.5,-687.25 1042.96,-689.85 1030.67,-692.63 1018.79,-695.32"/>
<polygon fill="#63b8ff" stroke="#63b8ff" points="1084.33,-683.9 1093.32,-678.29 1082.8,-677.07 1084.33,-683.9"/>
</a>
</g>
</g>
<!-- Node5 -->
<g id="Node000005" class="node">
<title>Node5</title>
<g id="a_Node000005"><a xlink:href="../../df/d70/classigl_1_1opengl_1_1glfw_1_1imgui_1_1_im_gui_menu.html#a79d7bce81b5144a2b7da2f4a8d1010ab" target="_top" xlink:title=" ">
<polygon fill="white" stroke="#666666" points="835.25,-681.5 688.75,-681.5 688.75,-651 835.25,-651 835.25,-681.5"/>
<text text-anchor="start" x="696.75" y="-668" font-family="Helvetica,sans-Serif" font-size="10.00">igl::opengl::glfw::</text>
<text text-anchor="middle" x="762" y="-656.75" font-family="Helvetica,sans-Serif" font-size="10.00">imgui::ImGuiMenu::post_draw</text>
</a>
</g>
</g>
<!-- Node4&#45;&gt;Node5 -->
<g id="edge4_Node000004_Node000005" class="edge">
<title>Node4&#45;&gt;Node5</title>
<g id="a_edge4_Node000004_Node000005"><a xlink:title=" ">
<path fill="none" stroke="#63b8ff" d="M901.29,-666.99C881.21,-666.88 857.65,-666.75 835.72,-666.64"/>
<polygon fill="#63b8ff" stroke="#63b8ff" points="901.03,-670.49 911.05,-667.04 901.07,-663.49 901.03,-670.49"/>
</a>
</g>
</g>
<!-- Node6 -->
<g id="Node000006" class="node">
<title>Node6</title>
<g id="a_Node000006"><a xlink:href="../../d6/d97/class_slic3r_1_1_g_u_i_1_1_im_gui_wrapper.html#aeab75e858863f462d21824c435968fa0" target="_top" xlink:title=" ">
<polygon fill="white" stroke="#666666" points="828.5,-730.5 695.5,-730.5 695.5,-700 828.5,-700 828.5,-730.5"/>
<text text-anchor="start" x="703.5" y="-717" font-family="Helvetica,sans-Serif" font-size="10.00">Slic3r::GUI::ImGuiWrapper</text>
<text text-anchor="middle" x="762" y="-705.75" font-family="Helvetica,sans-Serif" font-size="10.00">::render</text>
</a>
</g>
</g>
<!-- Node4&#45;&gt;Node6 -->
<g id="edge5_Node000004_Node000006" class="edge">
<title>Node4&#45;&gt;Node6</title>
<g id="a_edge5_Node000004_Node000006"><a xlink:title=" ">
<path fill="none" stroke="#63b8ff" d="M901.57,-679.87C877.96,-685.9 849.47,-693.17 824.48,-699.55"/>
<polygon fill="#63b8ff" stroke="#63b8ff" points="902.22,-683.06 911.05,-677.2 900.49,-676.28 902.22,-683.06"/>
</a>
</g>
</g>
<!-- Node10 -->
<g id="Node000010" class="node">
<title>Node10</title>
<g id="a_Node000010"><a xlink:href="../../df/d13/namespace_im_gui.html#af7a92b2118981835b5251bfdaac50252" target="_top" xlink:title=" ">
<polygon fill="white" stroke="#666666" points="1007.25,-478.88 896.75,-478.88 896.75,-459.62 1007.25,-459.62 1007.25,-478.88"/>
<text text-anchor="middle" x="952" y="-465.38" font-family="Helvetica,sans-Serif" font-size="10.00">ImGui::PlotHistogram</text>
</a>
</g>
</g>
<!-- Node9&#45;&gt;Node10 -->
<g id="edge9_Node000009_Node000010" class="edge">
<title>Node9&#45;&gt;Node10</title>
<g id="a_edge9_Node000009_Node000010"><a xlink:title=" ">
<path fill="none" stroke="#63b8ff" d="M1090.47,-431.51C1078.66,-434.19 1066.09,-437.18 1054.5,-440.25 1038.33,-444.53 1034.57,-446.59 1018.5,-451.25 1009.44,-453.88 999.64,-456.62 990.46,-459.15"/>
<polygon fill="#63b8ff" stroke="#63b8ff" points="1091.06,-434.74 1100.06,-429.15 1089.54,-427.91 1091.06,-434.74"/>
</a>
</g>
</g>
<!-- Node14 -->
<g id="Node000014" class="node">
<title>Node14</title>
<g id="a_Node000014"><a xlink:href="../../df/d13/namespace_im_gui.html#af8089203baf8cf723a158c9e34bda2a4" target="_top" xlink:title=" ">
<polygon fill="white" stroke="#666666" points="1007.25,-367.88 896.75,-367.88 896.75,-348.62 1007.25,-348.62 1007.25,-367.88"/>
<text text-anchor="middle" x="952" y="-354.38" font-family="Helvetica,sans-Serif" font-size="10.00">ImGui::PlotHistogram</text>
</a>
</g>
</g>
<!-- Node9&#45;&gt;Node14 -->
<g id="edge14_Node000009_Node000014" class="edge">
<title>Node9&#45;&gt;Node14</title>
<g id="a_edge14_Node000009_Node000014"><a xlink:title=" ">
<path fill="none" stroke="#63b8ff" d="M1104.38,-407.35C1080.44,-398.01 1047.77,-385.71 1018.5,-376.25 1009.97,-373.49 1000.73,-370.79 991.96,-368.34"/>
<polygon fill="#63b8ff" stroke="#63b8ff" points="1102.81,-410.89 1113.4,-411.29 1105.37,-404.38 1102.81,-410.89"/>
</a>
</g>
</g>
<!-- Node15 -->
<g id="Node000015" class="node">
<title>Node15</title>
<g id="a_Node000015"><a xlink:href="../../df/d13/namespace_im_gui.html#a2bc21c56e4796855313804086cca114f" target="_top" xlink:title=" ">
<polygon fill="white" stroke="#666666" points="996.38,-441.88 907.62,-441.88 907.62,-422.62 996.38,-422.62 996.38,-441.88"/>
<text text-anchor="middle" x="952" y="-428.38" font-family="Helvetica,sans-Serif" font-size="10.00">ImGui::PlotLines</text>
</a>
</g>
</g>
<!-- Node9&#45;&gt;Node15 -->
<g id="edge15_Node000009_Node000015" class="edge">
<title>Node9&#45;&gt;Node15</title>
<g id="a_edge15_Node000009_Node000015"><a xlink:title=" ">
<path fill="none" stroke="#63b8ff" d="M1090.28,-424.14C1061.23,-425.85 1024.69,-428.01 996.61,-429.67"/>
<polygon fill="#63b8ff" stroke="#63b8ff" points="1090.23,-427.59 1100.01,-423.5 1089.82,-420.6 1090.23,-427.59"/>
</a>
</g>
</g>
<!-- Node16 -->
<g id="Node000016" class="node">
<title>Node16</title>
<g id="a_Node000016"><a xlink:href="../../df/d13/namespace_im_gui.html#a94a2645d45c96da35b834dc7db93a9f1" target="_top" xlink:title=" ">
<polygon fill="white" stroke="#666666" points="996.38,-404.88 907.62,-404.88 907.62,-385.62 996.38,-385.62 996.38,-404.88"/>
<text text-anchor="middle" x="952" y="-391.38" font-family="Helvetica,sans-Serif" font-size="10.00">ImGui::PlotLines</text>
</a>
</g>
</g>
<!-- Node9&#45;&gt;Node16 -->
<g id="edge17_Node000009_Node000016" class="edge">
<title>Node9&#45;&gt;Node16</title>
<g id="a_edge17_Node000009_Node000016"><a xlink:title=" ">
<path fill="none" stroke="#63b8ff" d="M1090.28,-414.43C1061.23,-410.37 1024.69,-405.26 996.61,-401.34"/>
<polygon fill="#63b8ff" stroke="#63b8ff" points="1089.62,-418.01 1100.01,-415.93 1090.59,-411.08 1089.62,-418.01"/>
</a>
</g>
</g>
<!-- Node10&#45;&gt;Node11 -->
<g id="edge10_Node000010_Node000011" class="edge">
<title>Node10&#45;&gt;Node11</title>
<g id="a_edge10_Node000010_Node000011"><a xlink:title=" ">
<path fill="none" stroke="#63b8ff" d="M885.62,-462.64C866.98,-460.76 846.69,-458.71 828.08,-456.83"/>
<polygon fill="#63b8ff" stroke="#63b8ff" points="885.07,-466.21 895.37,-463.73 885.77,-459.24 885.07,-466.21"/>
</a>
</g>
</g>
<!-- Node10&#45;&gt;Node13 -->
<g id="edge12_Node000010_Node000013" class="edge">
<title>Node10&#45;&gt;Node13</title>
<g id="a_edge12_Node000010_Node000013"><a xlink:title=" ">
<path fill="none" stroke="#63b8ff" d="M898.32,-455.97C893.94,-454.51 889.61,-452.93 885.5,-451.25 868.55,-444.33 865.9,-439.38 849.5,-431.25 828.93,-421.04 804.99,-410.64 787.51,-403.3"/>
<polygon fill="#63b8ff" stroke="#63b8ff" points="896.98,-459.53 907.57,-459.19 899.08,-452.85 896.98,-459.53"/>
</a>
</g>
</g>
<!-- Node12 -->
<g id="Node000012" class="node">
<title>Node12</title>
<g id="a_Node000012"><a xlink:href="../../df/d13/namespace_im_gui.html#af95643a0ce4893b9e57c12991922fb18" target="_top" xlink:title=" ">
<polygon fill="white" stroke="#666666" points="638.5,-383.88 504,-383.88 504,-364.62 638.5,-364.62 638.5,-383.88"/>
<text text-anchor="middle" x="571.25" y="-370.38" font-family="Helvetica,sans-Serif" font-size="10.00">ImGui::ShowDemoWindow</text>
</a>
</g>
</g>
<!-- Node11&#45;&gt;Node12 -->
<g id="edge11_Node000011_Node000012" class="edge">
<title>Node11&#45;&gt;Node12</title>
<g id="a_edge11_Node000011_Node000012"><a xlink:title=" ">
<path fill="none" stroke="#63b8ff" d="M725.97,-436.14C688.52,-421.07 630.11,-397.55 597.12,-384.26"/>
<polygon fill="#63b8ff" stroke="#63b8ff" points="724.35,-439.67 734.94,-440.16 726.97,-433.18 724.35,-439.67"/>
</a>
</g>
</g>
<!-- Node13&#45;&gt;Node12 -->
<g id="edge13_Node000013_Node000012" class="edge">
<title>Node13&#45;&gt;Node12</title>
<g id="a_edge13_Node000013_Node000012"><a xlink:title=" ">
<path fill="none" stroke="#63b8ff" d="M681.78,-385.28C667.49,-383.84 652.73,-382.35 638.85,-380.95"/>
<polygon fill="#63b8ff" stroke="#63b8ff" points="681.29,-388.84 691.59,-386.36 681.99,-381.88 681.29,-388.84"/>
</a>
</g>
</g>
<!-- Node15&#45;&gt;Node13 -->
<g id="edge16_Node000015_Node000013" class="edge">
<title>Node15&#45;&gt;Node13</title>
<g id="a_edge16_Node000015_Node000013"><a xlink:title=" ">
<path fill="none" stroke="#63b8ff" d="M896.63,-420.97C869.79,-415.4 837.68,-408.74 811.66,-403.34"/>
<polygon fill="#63b8ff" stroke="#63b8ff" points="895.89,-424.6 906.4,-423.2 897.32,-417.75 895.89,-424.6"/>
</a>
</g>
</g>
<!-- Node18&#45;&gt;Node12 -->
<g id="edge21_Node000018_Node000012" class="edge">
<title>Node18&#45;&gt;Node12</title>
<g id="a_edge21_Node000018_Node000012"><a xlink:title=" ">
<path fill="none" stroke="#63b8ff" d="M1078.76,-594.26C1059.58,-597.53 1038.22,-600.63 1018.5,-602.25 865.2,-614.87 799,-654.58 674.5,-564.25 609.61,-517.18 581.76,-416.03 574.36,-384.11"/>
<polygon fill="#63b8ff" stroke="#63b8ff" points="1079.23,-597.55 1088.47,-592.37 1078.01,-590.66 1079.23,-597.55"/>
</a>
</g>
</g>
<!-- Node20 -->
<g id="Node000020" class="node">
<title>Node20</title>
<g id="a_Node000020"><a xlink:href="../../df/d13/namespace_im_gui.html#a4cee1ccc9018a298cfff90a704bde8ca" target="_top" xlink:title=" ">
<polygon fill="white" stroke="#666666" points="1006.12,-254.88 897.88,-254.88 897.88,-235.62 1006.12,-235.62 1006.12,-254.88"/>
<text text-anchor="middle" x="952" y="-241.38" font-family="Helvetica,sans-Serif" font-size="10.00">ImGui::BeginTabItem</text>
</a>
</g>
</g>
<!-- Node19&#45;&gt;Node20 -->
<g id="edge24_Node000019_Node000020" class="edge">
<title>Node19&#45;&gt;Node20</title>
<g id="a_edge24_Node000019_Node000020"><a xlink:title=" ">
<path fill="none" stroke="#63b8ff" d="M1081.43,-270.78C1056.62,-265.85 1027.87,-260.13 1003.87,-255.36"/>
<polygon fill="#63b8ff" stroke="#63b8ff" points="1080.67,-274.4 1091.16,-272.91 1082.03,-267.53 1080.67,-274.4"/>
</a>
</g>
</g>
<!-- Node53 -->
<g id="Node000053" class="node">
<title>Node53</title>
<g id="a_Node000053"><a xlink:href="../../df/d13/namespace_im_gui.html#a1dbc539ac5b49e9445c4573607e6d60d" target="_top" xlink:title=" ">
<polygon fill="white" stroke="#666666" points="1008,-291.88 896,-291.88 896,-272.62 1008,-272.62 1008,-291.88"/>
<text text-anchor="middle" x="952" y="-278.38" font-family="Helvetica,sans-Serif" font-size="10.00">ImGui::TabItemButton</text>
</a>
</g>
</g>
<!-- Node19&#45;&gt;Node53 -->
<g id="edge54_Node000019_Node000053" class="edge">
<title>Node19&#45;&gt;Node53</title>
<g id="a_edge54_Node000019_Node000053"><a xlink:title=" ">
<path fill="none" stroke="#63b8ff" d="M1081.37,-282.25C1058.06,-282.25 1031.27,-282.25 1008.22,-282.25"/>
<polygon fill="#63b8ff" stroke="#63b8ff" points="1081.16,-285.75 1091.16,-282.25 1081.16,-278.75 1081.16,-285.75"/>
</a>
</g>
</g>
<!-- Node20&#45;&gt;Node11 -->
<g id="edge44_Node000020_Node000011" class="edge">
<title>Node20&#45;&gt;Node11</title>
<g id="a_edge44_Node000020_Node000011"><a xlink:title=" ">
<path fill="none" stroke="#63b8ff" d="M888.55,-260.41C887.49,-261.3 886.47,-262.25 885.5,-263.25 838.08,-312.17 893.23,-360.01 849.5,-412.25 838.34,-425.58 821.59,-434.39 805.8,-440.13"/>
<polygon fill="#63b8ff" stroke="#63b8ff" points="890.05,-262.95 896.44,-254.5 886.17,-257.12 890.05,-262.95"/>
</a>
</g>
</g>
<!-- Node20&#45;&gt;Node13 -->
<g id="edge45_Node000020_Node000013" class="edge">
<title>Node20&#45;&gt;Node13</title>
<g id="a_edge45_Node000020_Node000013"><a xlink:title=" ">
<path fill="none" stroke="#63b8ff" d="M888.22,-260.85C887.28,-261.62 886.37,-262.41 885.5,-263.25 847.75,-299.42 888.38,-340.29 849.5,-375.25 844.25,-379.97 838.1,-383.57 831.53,-386.31"/>
<polygon fill="#63b8ff" stroke="#63b8ff" points="889.89,-263.3 896.39,-254.93 886.09,-257.42 889.89,-263.3"/>
</a>
</g>
</g>
<!-- Node21 -->
<g id="Node000021" class="node">
<title>Node21</title>
<g id="a_Node000021"><a xlink:href="../../d0/d2b/class_slic3r_1_1_g_u_i_1_1_g_l_canvas3_d.html#a870a9e287f144c2b4540ff6bbceddbf6" target="_top" xlink:title=" ">
<polygon fill="white" stroke="#666666" points="827,-217.5 697,-217.5 697,-187 827,-187 827,-217.5"/>
<text text-anchor="start" x="705" y="-204" font-family="Helvetica,sans-Serif" font-size="10.00">Slic3r::GUI::GLCanvas3D</text>
<text text-anchor="middle" x="762" y="-192.75" font-family="Helvetica,sans-Serif" font-size="10.00">::_render_style_editor</text>
</a>
</g>
</g>
<!-- Node20&#45;&gt;Node21 -->
<g id="edge25_Node000020_Node000021" class="edge">
<title>Node20&#45;&gt;Node21</title>
<g id="a_edge25_Node000020_Node000021"><a xlink:title=" ">
<path fill="none" stroke="#63b8ff" d="M896.32,-232.74C874.78,-227.82 849.87,-222.12 827.46,-216.99"/>
<polygon fill="#63b8ff" stroke="#63b8ff" points="895.39,-236.35 905.92,-235.17 896.95,-229.53 895.39,-236.35"/>
</a>
</g>
</g>
<!-- Node49 -->
<g id="Node000049" class="node">
<title>Node49</title>
<g id="a_Node000049"><a xlink:href="../../d5/d0a/imgui__demo_8cpp.html#a0729207a285af6ef57ce5a31d1a60348" target="_top" xlink:title=" ">
<polygon fill="white" stroke="#666666" points="849.5,-328.88 674.5,-328.88 674.5,-309.62 849.5,-309.62 849.5,-328.88"/>
<text text-anchor="middle" x="762" y="-315.38" font-family="Helvetica,sans-Serif" font-size="10.00">ShowExampleAppCustomRendering</text>
</a>
</g>
</g>
<!-- Node20&#45;&gt;Node49 -->
<g id="edge46_Node000020_Node000049" class="edge">
<title>Node20&#45;&gt;Node49</title>
<g id="a_edge46_Node000020_Node000049"><a xlink:title=" ">
<path fill="none" stroke="#63b8ff" d="M892.42,-259.54C890.04,-260.68 887.72,-261.92 885.5,-263.25 865.55,-275.22 869.82,-289.92 849.5,-301.25 843.74,-304.46 837.47,-307.1 831.04,-309.28"/>
<polygon fill="#63b8ff" stroke="#63b8ff" points="893.65,-262.4 901.53,-255.31 890.95,-255.94 893.65,-262.4"/>
</a>
</g>
</g>
<!-- Node50 -->
<g id="Node000050" class="node">
<title>Node50</title>
<g id="a_Node000050"><a xlink:href="../../d5/d0a/imgui__demo_8cpp.html#aa9e4f5130b74080ea2d97916a91b3b3c" target="_top" xlink:title=" ">
<polygon fill="white" stroke="#666666" points="835.25,-291.88 688.75,-291.88 688.75,-272.62 835.25,-272.62 835.25,-291.88"/>
<text text-anchor="middle" x="762" y="-278.38" font-family="Helvetica,sans-Serif" font-size="10.00">ShowExampleAppDocuments</text>
</a>
</g>
</g>
<!-- Node20&#45;&gt;Node50 -->
<g id="edge48_Node000020_Node000050" class="edge">
<title>Node20&#45;&gt;Node50</title>
<g id="a_edge48_Node000020_Node000050"><a xlink:title=" ">
<path fill="none" stroke="#63b8ff" d="M889.11,-257.43C864.88,-262.2 837.41,-267.61 814.31,-272.15"/>
<polygon fill="#63b8ff" stroke="#63b8ff" points="889.49,-260.73 898.63,-255.36 888.14,-253.86 889.49,-260.73"/>
</a>
</g>
</g>
<!-- Node51 -->
<g id="Node000051" class="node">
<title>Node51</title>
<g id="a_Node000051"><a xlink:href="../../d5/d0a/imgui__demo_8cpp.html#adfe8516f13b623adbf78b024efd5bb6e" target="_top" xlink:title=" ">
<polygon fill="white" stroke="#666666" points="824.75,-254.88 699.25,-254.88 699.25,-235.62 824.75,-235.62 824.75,-254.88"/>
<text text-anchor="middle" x="762" y="-241.38" font-family="Helvetica,sans-Serif" font-size="10.00">ShowExampleAppLayout</text>
</a>
</g>
</g>
<!-- Node20&#45;&gt;Node51 -->
<g id="edge50_Node000020_Node000051" class="edge">
<title>Node20&#45;&gt;Node51</title>
<g id="a_edge50_Node000020_Node000051"><a xlink:title=" ">
<path fill="none" stroke="#63b8ff" d="M886.54,-245.25C866.62,-245.25 844.74,-245.25 824.99,-245.25"/>
<polygon fill="#63b8ff" stroke="#63b8ff" points="886.38,-248.75 896.38,-245.25 886.38,-241.75 886.38,-248.75"/>
</a>
</g>
</g>
<!-- Node52 -->
<g id="Node000052" class="node">
<title>Node52</title>
<g id="a_Node000052"><a xlink:href="../../df/d13/namespace_im_gui.html#ab2eb3dec78d054fe3feab1c091ec5de5" target="_top" xlink:title=" ">
<polygon fill="white" stroke="#666666" points="822.5,-365.88 701.5,-365.88 701.5,-346.62 822.5,-346.62 822.5,-365.88"/>
<text text-anchor="middle" x="762" y="-352.38" font-family="Helvetica,sans-Serif" font-size="10.00">ImGui::ShowStyleEditor</text>
</a>
</g>
</g>
<!-- Node20&#45;&gt;Node52 -->
<g id="edge52_Node000020_Node000052" class="edge">
<title>Node20&#45;&gt;Node52</title>
<g id="a_edge52_Node000020_Node000052"><a xlink:title=" ">
<path fill="none" stroke="#63b8ff" d="M888.82,-260.7C887.68,-261.51 886.57,-262.36 885.5,-263.25 857.12,-286.95 878.61,-315.46 849.5,-338.25 841.77,-344.3 832.5,-348.45 822.94,-351.27"/>
<polygon fill="#63b8ff" stroke="#63b8ff" points="890.27,-263.33 897.18,-255.3 886.77,-257.27 890.27,-263.33"/>
</a>
</g>
</g>
<!-- Node22 -->
<g id="Node000022" class="node">
<title>Node22</title>
<g id="a_Node000022"><a xlink:href="../../d0/d2b/class_slic3r_1_1_g_u_i_1_1_g_l_canvas3_d.html#ab2a817afa6640d4e97519ea4f61c7206" target="_top" xlink:title=" ">
<polygon fill="white" stroke="#666666" points="636.25,-217.5 506.25,-217.5 506.25,-187 636.25,-187 636.25,-217.5"/>
<text text-anchor="start" x="514.25" y="-204" font-family="Helvetica,sans-Serif" font-size="10.00">Slic3r::GUI::GLCanvas3D</text>
<text text-anchor="middle" x="571.25" y="-192.75" font-family="Helvetica,sans-Serif" font-size="10.00">::render</text>
</a>
</g>
</g>
<!-- Node21&#45;&gt;Node22 -->
<g id="edge26_Node000021_Node000022" class="edge">
<title>Node21&#45;&gt;Node22</title>
<g id="a_edge26_Node000021_Node000022"><a xlink:title=" ">
<path fill="none" stroke="#63b8ff" d="M685.99,-202.25C669.68,-202.25 652.57,-202.25 636.71,-202.25"/>
<polygon fill="#63b8ff" stroke="#63b8ff" points="685.57,-205.75 695.57,-202.25 685.57,-198.75 685.57,-205.75"/>
</a>
</g>
</g>
<!-- Node23 -->
<g id="Node000023" class="node">
<title>Node23</title>
<g id="a_Node000023"><a xlink:href="../../d0/d2b/class_slic3r_1_1_g_u_i_1_1_g_l_canvas3_d.html#a6379e5a8883b2a7c10e897ad357a6c6f" target="_top" xlink:title=" ">
<polygon fill="#fff0f0" stroke="red" points="465,-415.12 335,-415.12 335,-373.38 465,-373.38 465,-415.12"/>
<text text-anchor="start" x="343" y="-401.62" font-family="Helvetica,sans-Serif" font-size="10.00">Slic3r::GUI::GLCanvas3D</text>
<text text-anchor="start" x="343" y="-390.38" font-family="Helvetica,sans-Serif" font-size="10.00">::_refresh_if_shown_on</text>
<text text-anchor="middle" x="400" y="-379.12" font-family="Helvetica,sans-Serif" font-size="10.00">_screen</text>
</a>
</g>
</g>
<!-- Node22&#45;&gt;Node23 -->
<g id="edge27_Node000022_Node000023" class="edge">
<title>Node22&#45;&gt;Node23</title>
<g id="a_edge27_Node000022_Node000023"><a xlink:title=" ">
<path fill="none" stroke="#63b8ff" d="M558.9,-227.49C542.74,-261.11 510.33,-320.8 468,-359.25 462.37,-364.37 455.85,-368.96 449.13,-373.01"/>
<polygon fill="#63b8ff" stroke="#63b8ff" points="562.3,-229.49 563.38,-218.95 555.96,-226.51 562.3,-229.49"/>
</a>
</g>
</g>
<!-- Node25 -->
<g id="Node000025" class="node">
<title>Node25</title>
<g id="a_Node000025"><a xlink:href="../../d0/d2b/class_slic3r_1_1_g_u_i_1_1_g_l_canvas3_d.html#a15fc8ce385048544064e6e434e09de23" target="_top" xlink:title=" ">
<polygon fill="#fff0f0" stroke="red" points="296,-365.5 166,-365.5 166,-335 296,-335 296,-365.5"/>
<text text-anchor="start" x="174" y="-352" font-family="Helvetica,sans-Serif" font-size="10.00">Slic3r::GUI::GLCanvas3D</text>
<text text-anchor="middle" x="231" y="-340.75" font-family="Helvetica,sans-Serif" font-size="10.00">::on_mouse</text>
</a>
</g>
</g>
<!-- Node22&#45;&gt;Node25 -->
<g id="edge37_Node000022_Node000025" class="edge">
<title>Node22&#45;&gt;Node25</title>
<g id="a_edge37_Node000022_Node000025"><a xlink:title=" ">
<path fill="none" stroke="#63b8ff" d="M556.66,-227.02C539.83,-255.06 508.38,-299.63 468,-321.25 415.05,-349.6 346.05,-355.09 296.36,-354.55"/>
<polygon fill="#63b8ff" stroke="#63b8ff" points="559.99,-229.26 562,-218.86 553.94,-225.74 559.99,-229.26"/>
</a>
</g>
</g>
<!-- Node26 -->
<g id="Node000026" class="node">
<title>Node26</title>
<g id="a_Node000026"><a xlink:href="../../d0/d2b/class_slic3r_1_1_g_u_i_1_1_g_l_canvas3_d.html#a9ba6503e9ea6e8ea3050de89e6835f52" target="_top" xlink:title=" ">
<polygon fill="white" stroke="#666666" points="130,-238.5 0,-238.5 0,-208 130,-208 130,-238.5"/>
<text text-anchor="start" x="8" y="-225" font-family="Helvetica,sans-Serif" font-size="10.00">Slic3r::GUI::GLCanvas3D</text>
<text text-anchor="middle" x="65" y="-213.75" font-family="Helvetica,sans-Serif" font-size="10.00">::bind_event_handlers</text>
</a>
</g>
</g>
<!-- Node22&#45;&gt;Node26 -->
<g id="edge31_Node000022_Node000026" class="edge">
<title>Node22&#45;&gt;Node26</title>
<g id="a_edge31_Node000022_Node000026"><a xlink:title=" ">
<path fill="none" stroke="#63b8ff" d="M551.04,-225.87C532.36,-246.79 501.9,-275.89 468,-288.25 341.72,-334.29 295.33,-308.86 166,-272.25 139.21,-264.67 110.92,-250.11 91.29,-238.83"/>
<polygon fill="#63b8ff" stroke="#63b8ff" points="554.17,-228.6 558.07,-218.75 548.88,-224.02 554.17,-228.6"/>
</a>
</g>
</g>
<!-- Node32 -->
<g id="Node000032" class="node">
<title>Node32</title>
<g id="a_Node000032"><a xlink:href="../../d3/dff/class_slic3r_1_1_g_u_i_1_1_g_l_toolbar.html#af834580a75dbef27b91354ddc49efb8c" target="_top" xlink:title=" ">
<polygon fill="#fff0f0" stroke="red" points="457.5,-279.5 342.5,-279.5 342.5,-249 457.5,-249 457.5,-279.5"/>
<text text-anchor="start" x="350.5" y="-266" font-family="Helvetica,sans-Serif" font-size="10.00">Slic3r::GUI::GLToolbar</text>
<text text-anchor="middle" x="400" y="-254.75" font-family="Helvetica,sans-Serif" font-size="10.00">::do_action</text>
</a>
</g>
</g>
<!-- Node22&#45;&gt;Node32 -->
<g id="edge32_Node000022_Node000032" class="edge">
<title>Node22&#45;&gt;Node32</title>
<g id="a_edge32_Node000022_Node000032"><a xlink:title=" ">
<path fill="none" stroke="#63b8ff" d="M517.35,-221.63C493.75,-230.28 466.3,-240.33 443.99,-248.5"/>
<polygon fill="#63b8ff" stroke="#63b8ff" points="518.36,-224.62 526.54,-217.9 515.95,-218.05 518.36,-224.62"/>
</a>
</g>
</g>
<!-- Node43 -->
<g id="Node000043" class="node">
<title>Node43</title>
<g id="a_Node000043"><a xlink:href="../../d0/d2b/class_slic3r_1_1_g_u_i_1_1_g_l_canvas3_d.html#a8f7ad08978b57363cc286b3ba55dbe52" target="_top" xlink:title=" ">
<polygon fill="#fff0f0" stroke="red" points="296,-263.5 166,-263.5 166,-233 296,-233 296,-263.5"/>
<text text-anchor="start" x="174" y="-250" font-family="Helvetica,sans-Serif" font-size="10.00">Slic3r::GUI::GLCanvas3D</text>
<text text-anchor="middle" x="231" y="-238.75" font-family="Helvetica,sans-Serif" font-size="10.00">::on_char</text>
</a>
</g>
</g>
<!-- Node22&#45;&gt;Node43 -->
<g id="edge33_Node000022_Node000043" class="edge">
<title>Node22&#45;&gt;Node43</title>
<g id="a_edge33_Node000022_Node000043"><a xlink:title=" ">
<path fill="none" stroke="#63b8ff" d="M494.98,-212.49C435.39,-220.59 353.05,-231.79 296.47,-239.48"/>
<polygon fill="#63b8ff" stroke="#63b8ff" points="495.39,-215.83 504.83,-211.01 494.45,-208.89 495.39,-215.83"/>
</a>
</g>
</g>
<!-- Node45 -->
<g id="Node000045" class="node">
<title>Node45</title>
<g id="a_Node000045"><a xlink:href="../../d0/d2b/class_slic3r_1_1_g_u_i_1_1_g_l_canvas3_d.html#aa811f0a583e17a1b5102893f9ef44d53" target="_top" xlink:title=" ">
<polygon fill="#fff0f0" stroke="red" points="296,-214.5 166,-214.5 166,-184 296,-184 296,-214.5"/>
<text text-anchor="start" x="174" y="-201" font-family="Helvetica,sans-Serif" font-size="10.00">Slic3r::GUI::GLCanvas3D</text>
<text text-anchor="middle" x="231" y="-189.75" font-family="Helvetica,sans-Serif" font-size="10.00">::on_key</text>
</a>
</g>
</g>
<!-- Node22&#45;&gt;Node45 -->
<g id="edge35_Node000022_Node000045" class="edge">
<title>Node22&#45;&gt;Node45</title>
<g id="a_edge35_Node000022_Node000045"><a xlink:title=" ">
<path fill="none" stroke="#63b8ff" d="M494.98,-201.58C435.39,-201.05 353.05,-200.32 296.47,-199.82"/>
<polygon fill="#63b8ff" stroke="#63b8ff" points="494.8,-205.09 504.83,-201.68 494.86,-198.09 494.8,-205.09"/>
</a>
</g>
</g>
<!-- Node46 -->
<g id="Node000046" class="node">
<title>Node46</title>
<g id="a_Node000046"><a xlink:href="../../d0/d2b/class_slic3r_1_1_g_u_i_1_1_g_l_canvas3_d.html#a8ee94b7e2954f5694921dfec9ba59098" target="_top" xlink:title=" ">
<polygon fill="#fff0f0" stroke="red" points="296,-165.5 166,-165.5 166,-135 296,-135 296,-165.5"/>
<text text-anchor="start" x="174" y="-152" font-family="Helvetica,sans-Serif" font-size="10.00">Slic3r::GUI::GLCanvas3D</text>
<text text-anchor="middle" x="231" y="-140.75" font-family="Helvetica,sans-Serif" font-size="10.00">::on_mouse_wheel</text>
</a>
</g>
</g>
<!-- Node22&#45;&gt;Node46 -->
<g id="edge38_Node000022_Node000046" class="edge">
<title>Node22&#45;&gt;Node46</title>
<g id="a_edge38_Node000022_Node000046"><a xlink:title=" ">
<path fill="none" stroke="#63b8ff" d="M494.98,-190.68C435.39,-181.52 353.05,-168.86 296.47,-160.16"/>
<polygon fill="#63b8ff" stroke="#63b8ff" points="494.42,-194.29 504.83,-192.35 495.48,-187.37 494.42,-194.29"/>
</a>
</g>
</g>
<!-- Node47 -->
<g id="Node000047" class="node">
<title>Node47</title>
<g id="a_Node000047"><a xlink:href="../../d0/d2b/class_slic3r_1_1_g_u_i_1_1_g_l_canvas3_d.html#a69e6747e3c01be9c51634d8de0ae0561" target="_top" xlink:title=" ">
<polygon fill="#fff0f0" stroke="red" points="296,-116.5 166,-116.5 166,-86 296,-86 296,-116.5"/>
<text text-anchor="start" x="174" y="-103" font-family="Helvetica,sans-Serif" font-size="10.00">Slic3r::GUI::GLCanvas3D</text>
<text text-anchor="middle" x="231" y="-91.75" font-family="Helvetica,sans-Serif" font-size="10.00">::on_paint</text>
</a>
</g>
</g>
<!-- Node22&#45;&gt;Node47 -->
<g id="edge40_Node000022_Node000047" class="edge">
<title>Node22&#45;&gt;Node47</title>
<g id="a_edge40_Node000022_Node000047"><a xlink:title=" ">
<path fill="none" stroke="#63b8ff" d="M522.02,-182.63C505.08,-176.07 485.83,-168.97 468,-163.25 410.62,-144.83 344.14,-127.74 296.39,-116.18"/>
<polygon fill="#63b8ff" stroke="#63b8ff" points="520.65,-186.25 531.24,-186.63 523.2,-179.73 520.65,-186.25"/>
</a>
</g>
</g>
<!-- Node39 -->
<g id="Node000039" class="node">
<title>Node39</title>
<g id="a_Node000039"><a xlink:href="../../d9/d01/class_slic3r_1_1_g_u_i_1_1_g_u_i___app.html#a92b16a3ad6111d682dd4d779531e674e" target="_top" xlink:title=" ">
<polygon fill="white" stroke="#666666" points="455.62,-79.5 344.38,-79.5 344.38,-49 455.62,-49 455.62,-79.5"/>
<text text-anchor="start" x="352.38" y="-66" font-family="Helvetica,sans-Serif" font-size="10.00">Slic3r::GUI::GUI_App</text>
<text text-anchor="middle" x="400" y="-54.75" font-family="Helvetica,sans-Serif" font-size="10.00">::post_init</text>
</a>
</g>
</g>
<!-- Node22&#45;&gt;Node39 -->
<g id="edge42_Node000022_Node000039" class="edge">
<title>Node22&#45;&gt;Node39</title>
<g id="a_edge42_Node000022_Node000039"><a xlink:title=" ">
<path fill="none" stroke="#63b8ff" d="M552.4,-178.06C533.6,-153.97 502.06,-117.21 468,-93.25 460.74,-88.15 452.44,-83.67 444.22,-79.85"/>
<polygon fill="#63b8ff" stroke="#63b8ff" points="550.1,-179.81 558.96,-185.62 555.65,-175.55 550.1,-179.81"/>
</a>
</g>
</g>
<!-- Node48 -->
<g id="Node000048" class="node">
<title>Node48</title>
<g id="a_Node000048"><a xlink:href="../../da/d5c/class_slic3r_1_1_g_u_i_1_1_assemble_view.html#aaabc187e850fb4bc675e11805500d55b" target="_top" xlink:title=" ">
<polygon fill="white" stroke="#666666" points="468,-30.5 332,-30.5 332,0 468,0 468,-30.5"/>
<text text-anchor="start" x="340" y="-17" font-family="Helvetica,sans-Serif" font-size="10.00">Slic3r::GUI::AssembleView</text>
<text text-anchor="middle" x="400" y="-5.75" font-family="Helvetica,sans-Serif" font-size="10.00">::reload_scene</text>
</a>
</g>
</g>
<!-- Node22&#45;&gt;Node48 -->
<g id="edge43_Node000022_Node000048" class="edge">
<title>Node22&#45;&gt;Node48</title>
<g id="a_edge43_Node000022_Node000048"><a xlink:title=" ">
<path fill="none" stroke="#63b8ff" d="M560.49,-177.01C545.62,-141.7 514.08,-77.7 468,-40.25 463.57,-36.65 458.57,-33.53 453.34,-30.85"/>
<polygon fill="#63b8ff" stroke="#63b8ff" points="557.54,-178.05 564.56,-185.99 564.02,-175.41 557.54,-178.05"/>
</a>
</g>
</g>
<!-- Node23&#45;&gt;Node25 -->
<g id="edge28_Node000023_Node000025" class="edge">
<title>Node23&#45;&gt;Node25</title>
<g id="a_edge28_Node000023_Node000025"><a xlink:title=" ">
<path fill="none" stroke="#63b8ff" d="M324.44,-374.6C313.42,-371.7 302.19,-368.74 291.53,-365.94"/>
<polygon fill="#63b8ff" stroke="#63b8ff" points="323.35,-378.2 333.91,-377.36 325.13,-371.43 323.35,-378.2"/>
</a>
</g>
</g>
<!-- Node25&#45;&gt;Node25 -->
<g id="edge30_Node000025_Node000025" class="edge">
<title>Node25&#45;&gt;Node25</title>
<g id="a_edge30_Node000025_Node000025"><a xlink:title=" ">
<path fill="none" stroke="#63b8ff" d="M259.22,-376.88C254.81,-380.83 245.41,-383.5 231,-383.5 205.39,-383.5 195.58,-375.06 201.58,-365.99"/>
<polygon fill="#63b8ff" stroke="#63b8ff" points="262.8,-377.31 260.42,-366.99 255.84,-376.54 262.8,-377.31"/>
</a>
</g>
</g>
<!-- Node25&#45;&gt;Node26 -->
<g id="edge29_Node000025_Node000026" class="edge">
<title>Node25&#45;&gt;Node26</title>
<g id="a_edge29_Node000025_Node000026"><a xlink:title=" ">
<path fill="none" stroke="#63b8ff" d="M180.09,-329.74C175.2,-327.11 170.42,-324.27 166,-321.25 130.7,-297.08 96.67,-259.82 78.85,-238.9"/>
<polygon fill="#63b8ff" stroke="#63b8ff" points="178.07,-333.15 188.57,-334.53 181.22,-326.9 178.07,-333.15"/>
</a>
</g>
</g>
<!-- Node43&#45;&gt;Node26 -->
<g id="edge34_Node000043_Node000026" class="edge">
<title>Node43&#45;&gt;Node26</title>
<g id="a_edge34_Node000043_Node000026"><a xlink:title=" ">
<path fill="none" stroke="#63b8ff" d="M154.96,-236.81C146.77,-235.56 138.48,-234.3 130.43,-233.07"/>
<polygon fill="#63b8ff" stroke="#63b8ff" points="154.24,-240.39 164.65,-238.44 155.3,-233.47 154.24,-240.39"/>
</a>
</g>
</g>
<!-- Node45&#45;&gt;Node26 -->
<g id="edge36_Node000045_Node000026" class="edge">
<title>Node45&#45;&gt;Node26</title>
<g id="a_edge36_Node000045_Node000026"><a xlink:title=" ">
<path fill="none" stroke="#63b8ff" d="M154.96,-210.23C146.77,-211.43 138.48,-212.64 130.43,-213.82"/>
<polygon fill="#63b8ff" stroke="#63b8ff" points="155.27,-213.58 164.65,-208.67 154.25,-206.65 155.27,-213.58"/>
</a>
</g>
</g>
<!-- Node46&#45;&gt;Node26 -->
<g id="edge39_Node000046_Node000026" class="edge">
<title>Node46&#45;&gt;Node26</title>
<g id="a_edge39_Node000046_Node000026"><a xlink:title=" ">
<path fill="none" stroke="#63b8ff" d="M178.55,-169.95C174.29,-171.71 170.06,-173.48 166,-175.25 142.69,-185.38 116.83,-197.83 97.25,-207.51"/>
<polygon fill="#63b8ff" stroke="#63b8ff" points="179.54,-172.93 187.5,-165.94 176.92,-166.44 179.54,-172.93"/>
</a>
</g>
</g>
<!-- Node47&#45;&gt;Node26 -->
<g id="edge41_Node000047_Node000026" class="edge">
<title>Node47&#45;&gt;Node26</title>
<g id="a_edge41_Node000047_Node000026"><a xlink:title=" ">
<path fill="none" stroke="#63b8ff" d="M173.67,-121.74C171.03,-123.17 168.46,-124.67 166,-126.25 129.99,-149.4 95.97,-186.91 78.4,-207.85"/>
<polygon fill="#63b8ff" stroke="#63b8ff" points="175.06,-124.46 182.46,-116.88 171.95,-118.18 175.06,-124.46"/>
</a>
</g>
</g>
<!-- Node49&#45;&gt;Node12 -->
<g id="edge47_Node000049_Node000012" class="edge">
<title>Node49&#45;&gt;Node12</title>
<g id="a_edge47_Node000049_Node000012"><a xlink:title=" ">
<path fill="none" stroke="#63b8ff" d="M696.06,-331.72C688.75,-333.43 681.44,-335.28 674.5,-337.25 647.44,-344.92 617.24,-356.2 596.72,-364.28"/>
<polygon fill="#63b8ff" stroke="#63b8ff" points="696.74,-334.93 705.73,-329.31 695.2,-328.1 696.74,-334.93"/>
</a>
</g>
</g>
<!-- Node50&#45;&gt;Node12 -->
<g id="edge49_Node000050_Node000012" class="edge">
<title>Node50&#45;&gt;Node12</title>
<g id="a_edge49_Node000050_Node000012"><a xlink:title=" ">
<path fill="none" stroke="#63b8ff" d="M687.04,-295.42C682.73,-296.87 678.53,-298.47 674.5,-300.25 637.22,-316.71 600.13,-348.32 582.64,-364.37"/>
<polygon fill="#63b8ff" stroke="#63b8ff" points="687.66,-298.58 696.2,-292.31 685.61,-291.89 687.66,-298.58"/>
</a>
</g>
</g>
<!-- Node51&#45;&gt;Node12 -->
<g id="edge51_Node000051_Node000012" class="edge">
<title>Node51&#45;&gt;Node12</title>
<g id="a_edge51_Node000051_Node000012"><a xlink:title=" ">
<path fill="none" stroke="#63b8ff" d="M688.58,-256.7C683.68,-258.57 678.94,-260.73 674.5,-263.25 628.92,-289.1 592.15,-342.31 578.24,-364.35"/>
<polygon fill="#63b8ff" stroke="#63b8ff" points="689.42,-259.78 697.79,-253.29 687.2,-253.14 689.42,-259.78"/>
</a>
</g>
</g>
<!-- Node52&#45;&gt;Node12 -->
<g id="edge53_Node000052_Node000012" class="edge">
<title>Node52&#45;&gt;Node12</title>
<g id="a_edge53_Node000052_Node000012"><a xlink:title=" ">
<path fill="none" stroke="#63b8ff" d="M690.17,-363C673.39,-364.6 655.55,-366.31 638.96,-367.89"/>
<polygon fill="#63b8ff" stroke="#63b8ff" points="690.4,-366.4 700.02,-361.97 689.73,-359.44 690.4,-366.4"/>
</a>
</g>
</g>
<!-- Node53&#45;&gt;Node13 -->
<g id="edge55_Node000053_Node000013" class="edge">
<title>Node53&#45;&gt;Node13</title>
<g id="a_edge55_Node000053_Node000013"><a xlink:title=" ">
<path fill="none" stroke="#63b8ff" d="M899.44,-296.83C894.42,-299.48 889.66,-302.6 885.5,-306.25 859.51,-329.07 877.09,-354.38 849.5,-375.25 843.99,-379.41 837.75,-382.67 831.2,-385.21"/>
<polygon fill="#63b8ff" stroke="#63b8ff" points="900.69,-299.65 908.31,-292.29 897.76,-293.29 900.69,-299.65"/>
</a>
</g>
</g>
<!-- Node55 -->
<g id="Node000055" class="node">
<title>Node55</title>
<g id="a_Node000055"><a xlink:href="../../d5/d0a/imgui__demo_8cpp.html#a1de6150f52a967e73750eb642ec025fe" target="_top" xlink:title=" ">
<polygon fill="white" stroke="#666666" points="827.38,-554.88 696.62,-554.88 696.62,-535.62 827.38,-535.62 827.38,-554.88"/>
<text text-anchor="middle" x="762" y="-541.38" font-family="Helvetica,sans-Serif" font-size="10.00">ShowDemoWindowTables</text>
</a>
</g>
</g>
<!-- Node54&#45;&gt;Node55 -->
<g id="edge57_Node000054_Node000055" class="edge">
<title>Node54&#45;&gt;Node55</title>
<g id="a_edge57_Node000054_Node000055"><a xlink:title=" ">
<path fill="none" stroke="#63b8ff" d="M1077.73,-545.25C1008.92,-545.25 897.83,-545.25 827.7,-545.25"/>
<polygon fill="#63b8ff" stroke="#63b8ff" points="1077.4,-548.75 1087.4,-545.25 1077.4,-541.75 1077.4,-548.75"/>
</a>
</g>
</g>
<!-- Node56 -->
<g id="Node000056" class="node">
<title>Node56</title>
<g id="a_Node000056"><a xlink:href="../../df/d13/namespace_im_gui.html#a0c16791f4620e8db38511553d5d63335" target="_top" xlink:title=" ">
<polygon fill="white" stroke="#666666" points="1016.25,-592.88 887.75,-592.88 887.75,-573.62 1016.25,-573.62 1016.25,-592.88"/>
<text text-anchor="middle" x="952" y="-579.38" font-family="Helvetica,sans-Serif" font-size="10.00">ImGui::TableHeadersRow</text>
</a>
</g>
</g>
<!-- Node54&#45;&gt;Node56 -->
<g id="edge59_Node000054_Node000056" class="edge">
<title>Node54&#45;&gt;Node56</title>
<g id="a_edge59_Node000054_Node000056"><a xlink:title=" ">
<path fill="none" stroke="#63b8ff" d="M1078.99,-557.53C1054.2,-562.59 1025.83,-568.38 1002.3,-573.19"/>
<polygon fill="#63b8ff" stroke="#63b8ff" points="1079.64,-560.76 1088.74,-555.33 1078.24,-553.9 1079.64,-560.76"/>
</a>
</g>
</g>
<!-- Node55&#45;&gt;Node12 -->
<g id="edge58_Node000055_Node000012" class="edge">
<title>Node55&#45;&gt;Node12</title>
<g id="a_edge58_Node000055_Node000012"><a xlink:title=" ">
<path fill="none" stroke="#63b8ff" d="M741.57,-528.45C723.95,-513.15 697.32,-489.87 674.5,-469.25 640.7,-438.71 601.4,-401.79 582.91,-384.33"/>
<polygon fill="#63b8ff" stroke="#63b8ff" points="738.59,-531.36 748.44,-535.27 743.17,-526.08 738.59,-531.36"/>
</a>
</g>
</g>
<!-- Node56&#45;&gt;Node55 -->
<g id="edge60_Node000056_Node000055" class="edge">
<title>Node56&#45;&gt;Node55</title>
<g id="a_edge60_Node000056_Node000055"><a xlink:title=" ">
<path fill="none" stroke="#63b8ff" d="M890.6,-571.04C865.48,-565.96 836.67,-560.14 812.79,-555.31"/>
<polygon fill="#63b8ff" stroke="#63b8ff" points="889.62,-574.62 900.11,-573.17 891,-567.75 889.62,-574.62"/>
</a>
</g>
</g>
</g>
</svg>
