<?xml version="1.0" encoding="UTF-8" standalone="no"?>
<!DOCTYPE svg PUBLIC "-//W3C//DTD SVG 1.1//EN"
 "http://www.w3.org/Graphics/SVG/1.1/DTD/svg11.dtd">
<!-- Generated by graphviz version 8.1.0 (20230707.0739)
 -->
<!-- Title: ImGui::TableGetBoundSettings Pages: 1 -->
<svg width="1365pt" height="889pt"
 viewBox="0.00 0.00 1364.50 888.51" xmlns="http://www.w3.org/2000/svg" xmlns:xlink="http://www.w3.org/1999/xlink">
<g id="graph0" class="graph" transform="scale(1 1) rotate(0) translate(4 884.51)">
<title>ImGui::TableGetBoundSettings</title>
<!-- Node1 -->
<g id="Node000001" class="node">
<title>Node1</title>
<g id="a_Node000001"><a xlink:title=" ">
<polygon fill="#999999" stroke="#666666" points="1356.5,-171.89 1205.5,-171.89 1205.5,-152.64 1356.5,-152.64 1356.5,-171.89"/>
<text text-anchor="middle" x="1281" y="-158.39" font-family="Helvetica,sans-Serif" font-size="10.00">ImGui::TableGetBoundSettings</text>
</a>
</g>
</g>
<!-- Node2 -->
<g id="Node000002" class="node">
<title>Node2</title>
<g id="a_Node000002"><a xlink:href="../../df/d13/namespace_im_gui.html#ae944ffc599add73d6f3220165475ffd8" target="_top" xlink:title=" ">
<polygon fill="white" stroke="#666666" points="1166.12,-171.89 1042.88,-171.89 1042.88,-152.64 1166.12,-152.64 1166.12,-171.89"/>
<text text-anchor="middle" x="1104.5" y="-158.39" font-family="Helvetica,sans-Serif" font-size="10.00">ImGui::DebugNodeTable</text>
</a>
</g>
</g>
<!-- Node1&#45;&gt;Node2 -->
<g id="edge1_Node000001_Node000002" class="edge">
<title>Node1&#45;&gt;Node2</title>
<g id="a_edge1_Node000001_Node000002"><a xlink:title=" ">
<path fill="none" stroke="#63b8ff" d="M1194.25,-162.26C1184.85,-162.26 1175.44,-162.26 1166.43,-162.26"/>
<polygon fill="#63b8ff" stroke="#63b8ff" points="1194.24,-165.76 1204.24,-162.26 1194.24,-158.76 1194.24,-165.76"/>
</a>
</g>
</g>
<!-- Node32 -->
<g id="Node000032" class="node">
<title>Node32</title>
<g id="a_Node000032"><a xlink:href="../../df/d13/namespace_im_gui.html#a9dbe18a196cc7e70f84cecfcb3b45c1b" target="_top" xlink:title=" ">
<polygon fill="white" stroke="#666666" points="1168.75,-208.89 1040.25,-208.89 1040.25,-189.64 1168.75,-189.64 1168.75,-208.89"/>
<text text-anchor="middle" x="1104.5" y="-195.39" font-family="Helvetica,sans-Serif" font-size="10.00">ImGui::TableLoadSettings</text>
</a>
</g>
</g>
<!-- Node1&#45;&gt;Node32 -->
<g id="edge41_Node000001_Node000032" class="edge">
<title>Node1&#45;&gt;Node32</title>
<g id="a_edge41_Node000001_Node000032"><a xlink:title=" ">
<path fill="none" stroke="#63b8ff" d="M1221.64,-174.64C1199.38,-179.36 1174.28,-184.68 1153.13,-189.16"/>
<polygon fill="#63b8ff" stroke="#63b8ff" points="1222.26,-177.87 1231.32,-172.37 1220.81,-171.02 1222.26,-177.87"/>
</a>
</g>
</g>
<!-- Node39 -->
<g id="Node000039" class="node">
<title>Node39</title>
<g id="a_Node000039"><a xlink:href="../../df/d13/namespace_im_gui.html#aadf0917c8bc98aaab0bf3c7667b19afe" target="_top" xlink:title=" ">
<polygon fill="white" stroke="#666666" points="1169.5,-134.89 1039.5,-134.89 1039.5,-115.64 1169.5,-115.64 1169.5,-134.89"/>
<text text-anchor="middle" x="1104.5" y="-121.39" font-family="Helvetica,sans-Serif" font-size="10.00">ImGui::TableSaveSettings</text>
</a>
</g>
</g>
<!-- Node1&#45;&gt;Node39 -->
<g id="edge53_Node000001_Node000039" class="edge">
<title>Node1&#45;&gt;Node39</title>
<g id="a_edge53_Node000001_Node000039"><a xlink:title=" ">
<path fill="none" stroke="#63b8ff" d="M1221.64,-149.89C1199.38,-145.17 1174.28,-139.84 1153.13,-135.36"/>
<polygon fill="#63b8ff" stroke="#63b8ff" points="1220.81,-153.5 1231.32,-152.15 1222.26,-146.65 1220.81,-153.5"/>
</a>
</g>
</g>
<!-- Node3 -->
<g id="Node000003" class="node">
<title>Node3</title>
<g id="a_Node000003"><a xlink:href="../../df/d13/namespace_im_gui.html#afe7a28c6eb52fff3cc27d5a698fea4ff" target="_top" xlink:title=" ">
<polygon fill="white" stroke="#666666" points="1003.5,-171.89 863,-171.89 863,-152.64 1003.5,-152.64 1003.5,-171.89"/>
<text text-anchor="middle" x="933.25" y="-158.39" font-family="Helvetica,sans-Serif" font-size="10.00">ImGui::ShowMetricsWindow</text>
</a>
</g>
</g>
<!-- Node2&#45;&gt;Node3 -->
<g id="edge2_Node000002_Node000003" class="edge">
<title>Node2&#45;&gt;Node3</title>
<g id="a_edge2_Node000002_Node000003"><a xlink:title=" ">
<path fill="none" stroke="#63b8ff" d="M1031.4,-162.26C1022.28,-162.26 1012.96,-162.26 1003.88,-162.26"/>
<polygon fill="#63b8ff" stroke="#63b8ff" points="1031.4,-165.76 1041.4,-162.26 1031.4,-158.76 1031.4,-165.76"/>
</a>
</g>
</g>
<!-- Node4 -->
<g id="Node000004" class="node">
<title>Node4</title>
<g id="a_Node000004"><a xlink:href="../../d0/d2b/class_slic3r_1_1_g_u_i_1_1_g_l_canvas3_d.html#ab2a817afa6640d4e97519ea4f61c7206" target="_top" xlink:title=" ">
<polygon fill="white" stroke="#666666" points="827,-505.51 697,-505.51 697,-475.01 827,-475.01 827,-505.51"/>
<text text-anchor="start" x="705" y="-492.01" font-family="Helvetica,sans-Serif" font-size="10.00">Slic3r::GUI::GLCanvas3D</text>
<text text-anchor="middle" x="762" y="-480.76" font-family="Helvetica,sans-Serif" font-size="10.00">::render</text>
</a>
</g>
</g>
<!-- Node3&#45;&gt;Node4 -->
<g id="edge3_Node000003_Node000004" class="edge">
<title>Node3&#45;&gt;Node4</title>
<g id="a_edge3_Node000003_Node000004"><a xlink:title=" ">
<path fill="none" stroke="#63b8ff" d="M865.26,-178.27C864.49,-178.91 863.73,-179.57 863,-180.26 774.99,-263.33 764.24,-424.14 763.09,-474.67"/>
<polygon fill="#63b8ff" stroke="#63b8ff" points="866.85,-180.75 873.26,-172.32 862.99,-174.91 866.85,-180.75"/>
</a>
</g>
</g>
<!-- Node31 -->
<g id="Node000031" class="node">
<title>Node31</title>
<g id="a_Node000031"><a xlink:href="../../df/d13/namespace_im_gui.html#af95643a0ce4893b9e57c12991922fb18" target="_top" xlink:title=" ">
<polygon fill="white" stroke="#666666" points="466.5,-170.89 332,-170.89 332,-151.64 466.5,-151.64 466.5,-170.89"/>
<text text-anchor="middle" x="399.25" y="-157.39" font-family="Helvetica,sans-Serif" font-size="10.00">ImGui::ShowDemoWindow</text>
</a>
</g>
</g>
<!-- Node3&#45;&gt;Node31 -->
<g id="edge40_Node000003_Node000031" class="edge">
<title>Node3&#45;&gt;Node31</title>
<g id="a_edge40_Node000003_Node000031"><a xlink:title=" ">
<path fill="none" stroke="#63b8ff" d="M910.37,-145.82C866.14,-113.74 761.71,-43.8 661,-19.26 592.56,-2.59 565.2,12.85 502.5,-19.26 446.26,-48.07 413.91,-123.81 403.75,-151.2"/>
<polygon fill="#63b8ff" stroke="#63b8ff" points="907.98,-149.14 918.11,-152.23 912.12,-143.49 907.98,-149.14"/>
</a>
</g>
</g>
<!-- Node5 -->
<g id="Node000005" class="node">
<title>Node5</title>
<g id="a_Node000005"><a xlink:href="../../d0/d2b/class_slic3r_1_1_g_u_i_1_1_g_l_canvas3_d.html#a6379e5a8883b2a7c10e897ad357a6c6f" target="_top" xlink:title=" ">
<polygon fill="white" stroke="#666666" points="646.75,-671.14 516.75,-671.14 516.75,-629.39 646.75,-629.39 646.75,-671.14"/>
<text text-anchor="start" x="524.75" y="-657.64" font-family="Helvetica,sans-Serif" font-size="10.00">Slic3r::GUI::GLCanvas3D</text>
<text text-anchor="start" x="524.75" y="-646.39" font-family="Helvetica,sans-Serif" font-size="10.00">::_refresh_if_shown_on</text>
<text text-anchor="middle" x="581.75" y="-635.14" font-family="Helvetica,sans-Serif" font-size="10.00">_screen</text>
</a>
</g>
</g>
<!-- Node4&#45;&gt;Node5 -->
<g id="edge4_Node000004_Node000005" class="edge">
<title>Node4&#45;&gt;Node5</title>
<g id="a_edge4_Node000004_Node000005"><a xlink:title=" ">
<path fill="none" stroke="#63b8ff" d="M735.41,-513.23C700.9,-544.21 639.9,-598.96 606.41,-629.03"/>
<polygon fill="#63b8ff" stroke="#63b8ff" points="737.48,-516.18 742.58,-506.89 732.8,-510.97 737.48,-516.18"/>
</a>
</g>
</g>
<!-- Node7 -->
<g id="Node000007" class="node">
<title>Node7</title>
<g id="a_Node000007"><a xlink:href="../../d0/d2b/class_slic3r_1_1_g_u_i_1_1_g_l_canvas3_d.html#a15fc8ce385048544064e6e434e09de23" target="_top" xlink:title=" ">
<polygon fill="white" stroke="#666666" points="296,-617.51 166,-617.51 166,-587.01 296,-587.01 296,-617.51"/>
<text text-anchor="start" x="174" y="-604.01" font-family="Helvetica,sans-Serif" font-size="10.00">Slic3r::GUI::GLCanvas3D</text>
<text text-anchor="middle" x="231" y="-592.76" font-family="Helvetica,sans-Serif" font-size="10.00">::on_mouse</text>
</a>
</g>
</g>
<!-- Node4&#45;&gt;Node7 -->
<g id="edge31_Node000004_Node000007" class="edge">
<title>Node4&#45;&gt;Node7</title>
<g id="a_edge31_Node000004_Node000007"><a xlink:title=" ">
<path fill="none" stroke="#63b8ff" d="M690.19,-508.37C680.42,-510.54 670.49,-512.58 661,-514.26 516.06,-539.93 469.71,-500.27 332,-552.26 313.78,-559.14 313.19,-568.1 296,-577.26 289.79,-580.57 283.04,-583.68 276.33,-586.51"/>
<polygon fill="#63b8ff" stroke="#63b8ff" points="690.73,-511.61 699.7,-505.97 689.17,-504.79 690.73,-511.61"/>
</a>
</g>
</g>
<!-- Node8 -->
<g id="Node000008" class="node">
<title>Node8</title>
<g id="a_Node000008"><a xlink:href="../../d0/d2b/class_slic3r_1_1_g_u_i_1_1_g_l_canvas3_d.html#a9ba6503e9ea6e8ea3050de89e6835f52" target="_top" xlink:title=" ">
<polygon fill="white" stroke="#666666" points="130,-684.51 0,-684.51 0,-654.01 130,-654.01 130,-684.51"/>
<text text-anchor="start" x="8" y="-671.01" font-family="Helvetica,sans-Serif" font-size="10.00">Slic3r::GUI::GLCanvas3D</text>
<text text-anchor="middle" x="65" y="-659.76" font-family="Helvetica,sans-Serif" font-size="10.00">::bind_event_handlers</text>
</a>
</g>
</g>
<!-- Node4&#45;&gt;Node8 -->
<g id="edge18_Node000004_Node000008" class="edge">
<title>Node4&#45;&gt;Node8</title>
<g id="a_edge18_Node000004_Node000008"><a xlink:title=" ">
<path fill="none" stroke="#63b8ff" d="M752.9,-464.82C739.97,-429.03 710.89,-365.16 661,-338.26 532.29,-268.87 465.05,-277.62 332,-338.26 186.1,-404.76 96.11,-597.19 72.34,-653.57"/>
<polygon fill="#63b8ff" stroke="#63b8ff" points="749.83,-465.65 756.4,-473.96 756.45,-463.37 749.83,-465.65"/>
</a>
</g>
</g>
<!-- Node14 -->
<g id="Node000014" class="node">
<title>Node14</title>
<g id="a_Node000014"><a xlink:href="../../d3/dff/class_slic3r_1_1_g_u_i_1_1_g_l_toolbar.html#af834580a75dbef27b91354ddc49efb8c" target="_top" xlink:title=" ">
<polygon fill="white" stroke="#666666" points="639.25,-505.51 524.25,-505.51 524.25,-475.01 639.25,-475.01 639.25,-505.51"/>
<text text-anchor="start" x="532.25" y="-492.01" font-family="Helvetica,sans-Serif" font-size="10.00">Slic3r::GUI::GLToolbar</text>
<text text-anchor="middle" x="581.75" y="-480.76" font-family="Helvetica,sans-Serif" font-size="10.00">::do_action</text>
</a>
</g>
</g>
<!-- Node4&#45;&gt;Node14 -->
<g id="edge19_Node000004_Node000014" class="edge">
<title>Node4&#45;&gt;Node14</title>
<g id="a_edge19_Node000004_Node000014"><a xlink:title=" ">
<path fill="none" stroke="#63b8ff" d="M686.02,-490.26C670.49,-490.26 654.38,-490.26 639.62,-490.26"/>
<polygon fill="#63b8ff" stroke="#63b8ff" points="685.65,-493.76 695.65,-490.26 685.65,-486.76 685.65,-493.76"/>
</a>
</g>
</g>
<!-- Node25 -->
<g id="Node000025" class="node">
<title>Node25</title>
<g id="a_Node000025"><a xlink:href="../../d0/d2b/class_slic3r_1_1_g_u_i_1_1_g_l_canvas3_d.html#a8f7ad08978b57363cc286b3ba55dbe52" target="_top" xlink:title=" ">
<polygon fill="white" stroke="#666666" points="296,-880.51 166,-880.51 166,-850.01 296,-850.01 296,-880.51"/>
<text text-anchor="start" x="174" y="-867.01" font-family="Helvetica,sans-Serif" font-size="10.00">Slic3r::GUI::GLCanvas3D</text>
<text text-anchor="middle" x="231" y="-855.76" font-family="Helvetica,sans-Serif" font-size="10.00">::on_char</text>
</a>
</g>
</g>
<!-- Node4&#45;&gt;Node25 -->
<g id="edge24_Node000004_Node000025" class="edge">
<title>Node4&#45;&gt;Node25</title>
<g id="a_edge24_Node000004_Node000025"><a xlink:title=" ">
<path fill="none" stroke="#63b8ff" d="M759.97,-516.65C756.26,-573.85 739.22,-709.94 661,-782.26 560.74,-874.96 389.38,-878.34 296.47,-872.17"/>
<polygon fill="#63b8ff" stroke="#63b8ff" points="763.5,-517.17 760.56,-506.99 756.51,-516.78 763.5,-517.17"/>
</a>
</g>
</g>
<!-- Node27 -->
<g id="Node000027" class="node">
<title>Node27</title>
<g id="a_Node000027"><a xlink:href="../../d0/d2b/class_slic3r_1_1_g_u_i_1_1_g_l_canvas3_d.html#aa811f0a583e17a1b5102893f9ef44d53" target="_top" xlink:title=" ">
<polygon fill="white" stroke="#666666" points="296,-568.51 166,-568.51 166,-538.01 296,-538.01 296,-568.51"/>
<text text-anchor="start" x="174" y="-555.01" font-family="Helvetica,sans-Serif" font-size="10.00">Slic3r::GUI::GLCanvas3D</text>
<text text-anchor="middle" x="231" y="-543.76" font-family="Helvetica,sans-Serif" font-size="10.00">::on_key</text>
</a>
</g>
</g>
<!-- Node4&#45;&gt;Node27 -->
<g id="edge28_Node000004_Node000027" class="edge">
<title>Node4&#45;&gt;Node27</title>
<g id="a_edge28_Node000004_Node000027"><a xlink:title=" ">
<path fill="none" stroke="#63b8ff" d="M748.96,-464.93C733.36,-435.42 703.07,-388.18 661,-368.26 594.92,-336.98 394.8,-330.82 332,-368.26 268.34,-406.22 242.76,-500.3 234.9,-537.64"/>
<polygon fill="#63b8ff" stroke="#63b8ff" points="746.21,-466.23 753.87,-473.55 752.44,-463.06 746.21,-466.23"/>
</a>
</g>
</g>
<!-- Node28 -->
<g id="Node000028" class="node">
<title>Node28</title>
<g id="a_Node000028"><a xlink:href="../../d0/d2b/class_slic3r_1_1_g_u_i_1_1_g_l_canvas3_d.html#a8ee94b7e2954f5694921dfec9ba59098" target="_top" xlink:title=" ">
<polygon fill="white" stroke="#666666" points="296,-831.51 166,-831.51 166,-801.01 296,-801.01 296,-831.51"/>
<text text-anchor="start" x="174" y="-818.01" font-family="Helvetica,sans-Serif" font-size="10.00">Slic3r::GUI::GLCanvas3D</text>
<text text-anchor="middle" x="231" y="-806.76" font-family="Helvetica,sans-Serif" font-size="10.00">::on_mouse_wheel</text>
</a>
</g>
</g>
<!-- Node4&#45;&gt;Node28 -->
<g id="edge32_Node000004_Node000028" class="edge">
<title>Node4&#45;&gt;Node28</title>
<g id="a_edge32_Node000004_Node000028"><a xlink:title=" ">
<path fill="none" stroke="#63b8ff" d="M757.73,-516.76C750.17,-566.5 726.75,-673.94 661,-731.26 558.12,-820.94 388.21,-826.59 296.12,-822"/>
<polygon fill="#63b8ff" stroke="#63b8ff" points="761.33,-517.36 759.26,-506.97 754.4,-516.38 761.33,-517.36"/>
</a>
</g>
</g>
<!-- Node29 -->
<g id="Node000029" class="node">
<title>Node29</title>
<g id="a_Node000029"><a xlink:href="../../d0/d2b/class_slic3r_1_1_g_u_i_1_1_g_l_canvas3_d.html#a69e6747e3c01be9c51634d8de0ae0561" target="_top" xlink:title=" ">
<polygon fill="white" stroke="#666666" points="296,-782.51 166,-782.51 166,-752.01 296,-752.01 296,-782.51"/>
<text text-anchor="start" x="174" y="-769.01" font-family="Helvetica,sans-Serif" font-size="10.00">Slic3r::GUI::GLCanvas3D</text>
<text text-anchor="middle" x="231" y="-757.76" font-family="Helvetica,sans-Serif" font-size="10.00">::on_paint</text>
</a>
</g>
</g>
<!-- Node4&#45;&gt;Node29 -->
<g id="edge35_Node000004_Node000029" class="edge">
<title>Node4&#45;&gt;Node29</title>
<g id="a_edge35_Node000004_Node000029"><a xlink:title=" ">
<path fill="none" stroke="#63b8ff" d="M753.82,-516.26C741.39,-556.69 712.16,-634.73 661,-680.26 558.95,-771.07 388.71,-777.25 296.35,-772.87"/>
<polygon fill="#63b8ff" stroke="#63b8ff" points="757.4,-517.49 756.89,-506.91 750.69,-515.5 757.4,-517.49"/>
</a>
</g>
</g>
<!-- Node21 -->
<g id="Node000021" class="node">
<title>Node21</title>
<g id="a_Node000021"><a xlink:href="../../d9/d01/class_slic3r_1_1_g_u_i_1_1_g_u_i___app.html#a92b16a3ad6111d682dd4d779531e674e" target="_top" xlink:title=" ">
<polygon fill="white" stroke="#666666" points="637.38,-456.51 526.12,-456.51 526.12,-426.01 637.38,-426.01 637.38,-456.51"/>
<text text-anchor="start" x="534.12" y="-443.01" font-family="Helvetica,sans-Serif" font-size="10.00">Slic3r::GUI::GUI_App</text>
<text text-anchor="middle" x="581.75" y="-431.76" font-family="Helvetica,sans-Serif" font-size="10.00">::post_init</text>
</a>
</g>
</g>
<!-- Node4&#45;&gt;Node21 -->
<g id="edge38_Node000004_Node000021" class="edge">
<title>Node4&#45;&gt;Node21</title>
<g id="a_edge38_Node000004_Node000021"><a xlink:title=" ">
<path fill="none" stroke="#63b8ff" d="M693.68,-471.76C675.16,-466.67 655.3,-461.21 637.58,-456.33"/>
<polygon fill="#63b8ff" stroke="#63b8ff" points="692.54,-475.35 703.11,-474.62 694.4,-468.6 692.54,-475.35"/>
</a>
</g>
</g>
<!-- Node30 -->
<g id="Node000030" class="node">
<title>Node30</title>
<g id="a_Node000030"><a xlink:href="../../da/d5c/class_slic3r_1_1_g_u_i_1_1_assemble_view.html#aaabc187e850fb4bc675e11805500d55b" target="_top" xlink:title=" ">
<polygon fill="white" stroke="#666666" points="649.75,-407.51 513.75,-407.51 513.75,-377.01 649.75,-377.01 649.75,-407.51"/>
<text text-anchor="start" x="521.75" y="-394.01" font-family="Helvetica,sans-Serif" font-size="10.00">Slic3r::GUI::AssembleView</text>
<text text-anchor="middle" x="581.75" y="-382.76" font-family="Helvetica,sans-Serif" font-size="10.00">::reload_scene</text>
</a>
</g>
</g>
<!-- Node4&#45;&gt;Node30 -->
<g id="edge39_Node000004_Node000030" class="edge">
<title>Node4&#45;&gt;Node30</title>
<g id="a_edge39_Node000004_Node000030"><a xlink:title=" ">
<path fill="none" stroke="#63b8ff" d="M735.09,-467.73C715.75,-451.84 688.09,-431.02 661,-417.26 654.13,-413.77 646.68,-410.65 639.2,-407.88"/>
<polygon fill="#63b8ff" stroke="#63b8ff" points="732.45,-470.91 742.36,-474.64 736.94,-465.54 732.45,-470.91"/>
</a>
</g>
</g>
<!-- Node6 -->
<g id="Node000006" class="node">
<title>Node6</title>
<g id="a_Node000006"><a xlink:href="../../d0/d2b/class_slic3r_1_1_g_u_i_1_1_g_l_canvas3_d.html#a1841891bc5a9e5f1bebca92e3717d48f" target="_top" xlink:title=" ">
<polygon fill="#fff0f0" stroke="red" points="464.25,-603.14 334.25,-603.14 334.25,-561.39 464.25,-561.39 464.25,-603.14"/>
<text text-anchor="start" x="342.25" y="-589.64" font-family="Helvetica,sans-Serif" font-size="10.00">Slic3r::GUI::GLCanvas3D</text>
<text text-anchor="start" x="342.25" y="-578.39" font-family="Helvetica,sans-Serif" font-size="10.00">::_perform_layer_editing</text>
<text text-anchor="middle" x="399.25" y="-567.14" font-family="Helvetica,sans-Serif" font-size="10.00">_action</text>
</a>
</g>
</g>
<!-- Node5&#45;&gt;Node6 -->
<g id="edge5_Node000005_Node000006" class="edge">
<title>Node5&#45;&gt;Node6</title>
<g id="a_edge5_Node000005_Node000006"><a xlink:title=" ">
<path fill="none" stroke="#63b8ff" d="M513.91,-625.08C495.2,-618.03 475.04,-610.44 456.98,-603.63"/>
<polygon fill="#63b8ff" stroke="#63b8ff" points="512.54,-628.68 523.13,-628.93 515.01,-622.13 512.54,-628.68"/>
</a>
</g>
</g>
<!-- Node5&#45;&gt;Node7 -->
<g id="edge13_Node000005_Node000007" class="edge">
<title>Node5&#45;&gt;Node7</title>
<g id="a_edge13_Node000005_Node000007"><a xlink:title=" ">
<path fill="none" stroke="#63b8ff" d="M505.82,-639.95C443.43,-631.36 355.52,-619.26 296.29,-611.11"/>
<polygon fill="#63b8ff" stroke="#63b8ff" points="504.99,-643.51 515.38,-641.4 505.95,-636.57 504.99,-643.51"/>
</a>
</g>
</g>
<!-- Node11 -->
<g id="Node000011" class="node">
<title>Node11</title>
<g id="a_Node000011"><a xlink:href="../../d0/d2b/class_slic3r_1_1_g_u_i_1_1_g_l_canvas3_d.html#a43e426ee93eca3963c86ad0dd7796876" target="_top" xlink:title=" ">
<polygon fill="white" stroke="#666666" points="296,-733.51 166,-733.51 166,-703.01 296,-703.01 296,-733.51"/>
<text text-anchor="start" x="174" y="-720.01" font-family="Helvetica,sans-Serif" font-size="10.00">Slic3r::GUI::GLCanvas3D</text>
<text text-anchor="middle" x="231" y="-708.76" font-family="Helvetica,sans-Serif" font-size="10.00">::on_idle</text>
</a>
</g>
</g>
<!-- Node5&#45;&gt;Node11 -->
<g id="edge10_Node000005_Node000011" class="edge">
<title>Node5&#45;&gt;Node11</title>
<g id="a_edge10_Node000005_Node000011"><a xlink:title=" ">
<path fill="none" stroke="#63b8ff" d="M553.59,-678.88C532.16,-699.26 500.32,-724.95 466.5,-736.26 406.67,-756.26 333.64,-745.57 285.14,-733.94"/>
<polygon fill="#63b8ff" stroke="#63b8ff" points="555.57,-681.87 560.28,-672.37 550.68,-676.86 555.57,-681.87"/>
</a>
</g>
</g>
<!-- Node12 -->
<g id="Node000012" class="node">
<title>Node12</title>
<g id="a_Node000012"><a xlink:href="../../d0/d2b/class_slic3r_1_1_g_u_i_1_1_g_l_canvas3_d.html#ab6b94328fd7dee2aed04efa73eb03208" target="_top" xlink:title=" ">
<polygon fill="white" stroke="#666666" points="296,-684.51 166,-684.51 166,-654.01 296,-654.01 296,-684.51"/>
<text text-anchor="start" x="174" y="-671.01" font-family="Helvetica,sans-Serif" font-size="10.00">Slic3r::GUI::GLCanvas3D</text>
<text text-anchor="middle" x="231" y="-659.76" font-family="Helvetica,sans-Serif" font-size="10.00">::on_set_focus</text>
</a>
</g>
</g>
<!-- Node5&#45;&gt;Node12 -->
<g id="edge14_Node000005_Node000012" class="edge">
<title>Node5&#45;&gt;Node12</title>
<g id="a_edge14_Node000005_Node000012"><a xlink:title=" ">
<path fill="none" stroke="#63b8ff" d="M505.43,-654.36C443.06,-657.76 355.4,-662.54 296.29,-665.76"/>
<polygon fill="#63b8ff" stroke="#63b8ff" points="505.58,-657.81 515.38,-653.77 505.2,-650.82 505.58,-657.81"/>
</a>
</g>
</g>
<!-- Node13 -->
<g id="Node000013" class="node">
<title>Node13</title>
<g id="a_Node000013"><a xlink:href="../../d0/d2b/class_slic3r_1_1_g_u_i_1_1_g_l_canvas3_d.html#a2b90c18fa7f51123b3ca34c325d5bf83" target="_top" xlink:title=" ">
<polygon fill="white" stroke="#666666" points="464.25,-727.51 334.25,-727.51 334.25,-697.01 464.25,-697.01 464.25,-727.51"/>
<text text-anchor="start" x="342.25" y="-714.01" font-family="Helvetica,sans-Serif" font-size="10.00">Slic3r::GUI::GLCanvas3D</text>
<text text-anchor="middle" x="399.25" y="-702.76" font-family="Helvetica,sans-Serif" font-size="10.00">::update_ui_from_settings</text>
</a>
</g>
</g>
<!-- Node5&#45;&gt;Node13 -->
<g id="edge17_Node000005_Node000013" class="edge">
<title>Node5&#45;&gt;Node13</title>
<g id="a_edge17_Node000005_Node000013"><a xlink:title=" ">
<path fill="none" stroke="#63b8ff" d="M508.41,-675.11C487.33,-682.35 464.89,-690.06 445.95,-696.56"/>
<polygon fill="#63b8ff" stroke="#63b8ff" points="509.31,-678.16 517.63,-671.6 507.04,-671.54 509.31,-678.16"/>
</a>
</g>
</g>
<!-- Node6&#45;&gt;Node7 -->
<g id="edge6_Node000006_Node000007" class="edge">
<title>Node6&#45;&gt;Node7</title>
<g id="a_edge6_Node000006_Node000007"><a xlink:title=" ">
<path fill="none" stroke="#63b8ff" d="M323.16,-591.3C314.22,-592.37 305.15,-593.46 296.38,-594.52"/>
<polygon fill="#63b8ff" stroke="#63b8ff" points="323.46,-594.66 332.97,-589.99 322.63,-587.71 323.46,-594.66"/>
</a>
</g>
</g>
<!-- Node7&#45;&gt;Node7 -->
<g id="edge8_Node000007_Node000007" class="edge">
<title>Node7&#45;&gt;Node7</title>
<g id="a_edge8_Node000007_Node000007"><a xlink:title=" ">
<path fill="none" stroke="#63b8ff" d="M259.22,-628.89C254.81,-632.84 245.41,-635.51 231,-635.51 205.39,-635.51 195.58,-627.07 201.58,-618"/>
<polygon fill="#63b8ff" stroke="#63b8ff" points="262.8,-629.32 260.42,-619 255.84,-628.55 262.8,-629.32"/>
</a>
</g>
</g>
<!-- Node7&#45;&gt;Node8 -->
<g id="edge7_Node000007_Node000008" class="edge">
<title>Node7&#45;&gt;Node8</title>
<g id="a_edge7_Node000007_Node000008"><a xlink:title=" ">
<path fill="none" stroke="#63b8ff" d="M181.68,-622C157.07,-632.06 127.55,-644.12 104.49,-653.54"/>
<polygon fill="#63b8ff" stroke="#63b8ff" points="182.62,-624.99 190.55,-617.97 179.97,-618.51 182.62,-624.99"/>
</a>
</g>
</g>
<!-- Node9 -->
<g id="Node000009" class="node">
<title>Node9</title>
<g id="a_Node000009"><a xlink:href="../../d0/d2b/class_slic3r_1_1_g_u_i_1_1_g_l_canvas3_d.html#a16e40798bb4d5ad13209c3feaea9b21d" target="_top" xlink:title=" ">
<polygon fill="white" stroke="#666666" points="130,-733.51 0,-733.51 0,-703.01 130,-703.01 130,-733.51"/>
<text text-anchor="start" x="8" y="-720.01" font-family="Helvetica,sans-Serif" font-size="10.00">Slic3r::GUI::GLCanvas3D</text>
<text text-anchor="middle" x="65" y="-708.76" font-family="Helvetica,sans-Serif" font-size="10.00">::unbind_event_handlers</text>
</a>
</g>
</g>
<!-- Node7&#45;&gt;Node9 -->
<g id="edge9_Node000007_Node000009" class="edge">
<title>Node7&#45;&gt;Node9</title>
<g id="a_edge9_Node000007_Node000009"><a xlink:title=" ">
<path fill="none" stroke="#63b8ff" d="M193.19,-623.93C183.85,-630.23 174.15,-637.52 166,-645.26 146.66,-663.62 151.23,-677.13 130,-693.26 125.35,-696.8 120.13,-699.9 114.74,-702.6"/>
<polygon fill="#63b8ff" stroke="#63b8ff" points="194.87,-626.36 201.35,-617.97 191.06,-620.49 194.87,-626.36"/>
</a>
</g>
</g>
<!-- Node11&#45;&gt;Node8 -->
<g id="edge11_Node000011_Node000008" class="edge">
<title>Node11&#45;&gt;Node8</title>
<g id="a_edge11_Node000011_Node000008"><a xlink:title=" ">
<path fill="none" stroke="#63b8ff" d="M167.3,-699.53C151.25,-694.73 134.17,-689.63 118.69,-685"/>
<polygon fill="#63b8ff" stroke="#63b8ff" points="166.08,-703.11 176.66,-702.62 168.08,-696.41 166.08,-703.11"/>
</a>
</g>
</g>
<!-- Node11&#45;&gt;Node9 -->
<g id="edge12_Node000011_Node000009" class="edge">
<title>Node11&#45;&gt;Node9</title>
<g id="a_edge12_Node000011_Node000009"><a xlink:title=" ">
<path fill="none" stroke="#63b8ff" d="M154.69,-718.26C146.58,-718.26 138.39,-718.26 130.43,-718.26"/>
<polygon fill="#63b8ff" stroke="#63b8ff" points="154.65,-721.76 164.65,-718.26 154.65,-714.76 154.65,-721.76"/>
</a>
</g>
</g>
<!-- Node12&#45;&gt;Node8 -->
<g id="edge15_Node000012_Node000008" class="edge">
<title>Node12&#45;&gt;Node8</title>
<g id="a_edge15_Node000012_Node000008"><a xlink:title=" ">
<path fill="none" stroke="#63b8ff" d="M154.69,-669.26C146.58,-669.26 138.39,-669.26 130.43,-669.26"/>
<polygon fill="#63b8ff" stroke="#63b8ff" points="154.65,-672.76 164.65,-669.26 154.65,-665.76 154.65,-672.76"/>
</a>
</g>
</g>
<!-- Node12&#45;&gt;Node9 -->
<g id="edge16_Node000012_Node000009" class="edge">
<title>Node12&#45;&gt;Node9</title>
<g id="a_edge16_Node000012_Node000009"><a xlink:title=" ">
<path fill="none" stroke="#63b8ff" d="M167.3,-688C151.25,-692.79 134.17,-697.89 118.69,-702.52"/>
<polygon fill="#63b8ff" stroke="#63b8ff" points="168.08,-691.12 176.66,-684.9 166.08,-684.41 168.08,-691.12"/>
</a>
</g>
</g>
<!-- Node15 -->
<g id="Node000015" class="node">
<title>Node15</title>
<g id="a_Node000015"><a xlink:href="../../d3/dff/class_slic3r_1_1_g_u_i_1_1_g_l_toolbar.html#a6c8241a752ac00ab174825c905d6cf6c" target="_top" xlink:title=" ">
<polygon fill="#fff0f0" stroke="red" points="456.75,-505.51 341.75,-505.51 341.75,-475.01 456.75,-475.01 456.75,-505.51"/>
<text text-anchor="start" x="349.75" y="-492.01" font-family="Helvetica,sans-Serif" font-size="10.00">Slic3r::GUI::GLToolbar</text>
<text text-anchor="middle" x="399.25" y="-480.76" font-family="Helvetica,sans-Serif" font-size="10.00">::force_left_action</text>
</a>
</g>
</g>
<!-- Node14&#45;&gt;Node15 -->
<g id="edge20_Node000014_Node000015" class="edge">
<title>Node14&#45;&gt;Node15</title>
<g id="a_edge20_Node000014_Node000015"><a xlink:title=" ">
<path fill="none" stroke="#63b8ff" d="M513.39,-490.26C494.82,-490.26 474.87,-490.26 456.98,-490.26"/>
<polygon fill="#63b8ff" stroke="#63b8ff" points="513.13,-493.76 523.13,-490.26 513.13,-486.76 513.13,-493.76"/>
</a>
</g>
</g>
<!-- Node22 -->
<g id="Node000022" class="node">
<title>Node22</title>
<g id="a_Node000022"><a xlink:href="../../d3/dff/class_slic3r_1_1_g_u_i_1_1_g_l_toolbar.html#a1cb1a06c9687d01fa2b167fce99db5d6" target="_top" xlink:title=" ">
<polygon fill="#fff0f0" stroke="red" points="456.75,-456.51 341.75,-456.51 341.75,-426.01 456.75,-426.01 456.75,-456.51"/>
<text text-anchor="start" x="349.75" y="-443.01" font-family="Helvetica,sans-Serif" font-size="10.00">Slic3r::GUI::GLToolbar</text>
<text text-anchor="middle" x="399.25" y="-431.76" font-family="Helvetica,sans-Serif" font-size="10.00">::force_right_action</text>
</a>
</g>
</g>
<!-- Node14&#45;&gt;Node22 -->
<g id="edge21_Node000014_Node000022" class="edge">
<title>Node14&#45;&gt;Node22</title>
<g id="a_edge21_Node000014_Node000022"><a xlink:title=" ">
<path fill="none" stroke="#63b8ff" d="M513.65,-472.05C495.01,-466.99 474.96,-461.54 456.98,-456.66"/>
<polygon fill="#63b8ff" stroke="#63b8ff" points="512.57,-475.65 523.13,-474.89 514.4,-468.89 512.57,-475.65"/>
</a>
</g>
</g>
<!-- Node24 -->
<g id="Node000024" class="node">
<title>Node24</title>
<g id="a_Node000024"><a xlink:href="../../d3/dff/class_slic3r_1_1_g_u_i_1_1_g_l_toolbar.html#ae784c8bdbf47979db48029f3f3d70452" target="_top" xlink:title=" ">
<polygon fill="white" stroke="#666666" points="456.75,-407.51 341.75,-407.51 341.75,-377.01 456.75,-377.01 456.75,-407.51"/>
<text text-anchor="start" x="349.75" y="-394.01" font-family="Helvetica,sans-Serif" font-size="10.00">Slic3r::GUI::GLToolbar</text>
<text text-anchor="middle" x="399.25" y="-382.76" font-family="Helvetica,sans-Serif" font-size="10.00">::on_mouse</text>
</a>
</g>
</g>
<!-- Node14&#45;&gt;Node24 -->
<g id="edge22_Node000014_Node000024" class="edge">
<title>Node14&#45;&gt;Node24</title>
<g id="a_edge22_Node000014_Node000024"><a xlink:title=" ">
<path fill="none" stroke="#63b8ff" d="M514.21,-472.31C510.11,-470.21 506.16,-467.87 502.5,-465.26 480.77,-449.8 487.82,-433.27 466.5,-417.26 461.78,-413.72 456.5,-410.62 451.04,-407.94"/>
<polygon fill="#63b8ff" stroke="#63b8ff" points="512.46,-475.82 523.01,-476.8 515.38,-469.46 512.46,-475.82"/>
</a>
</g>
</g>
<!-- Node24&#45;&gt;Node7 -->
<g id="edge23_Node000024_Node000007" class="edge">
<title>Node24&#45;&gt;Node7</title>
<g id="a_edge23_Node000024_Node000007"><a xlink:title=" ">
<path fill="none" stroke="#63b8ff" d="M334.46,-414.64C333.61,-415.48 332.79,-416.36 332,-417.26 284.18,-472.27 343.5,-521.98 296,-577.26 292.89,-580.88 289.19,-583.98 285.16,-586.63"/>
<polygon fill="#63b8ff" stroke="#63b8ff" points="336.29,-416.87 341.92,-407.9 331.92,-411.4 336.29,-416.87"/>
</a>
</g>
</g>
<!-- Node25&#45;&gt;Node8 -->
<g id="edge25_Node000025_Node000008" class="edge">
<title>Node25&#45;&gt;Node8</title>
<g id="a_edge25_Node000025_Node000008"><a xlink:title=" ">
<path fill="none" stroke="#63b8ff" d="M168.46,-842.86C167.61,-842.02 166.79,-841.16 166,-840.26 121.93,-790.02 174.07,-744.5 130,-694.26 126.85,-690.67 123.13,-687.6 119.08,-684.96"/>
<polygon fill="#63b8ff" stroke="#63b8ff" points="165.91,-846.09 175.92,-849.56 170.26,-840.61 165.91,-846.09"/>
</a>
</g>
</g>
<!-- Node25&#45;&gt;Node9 -->
<g id="edge27_Node000025_Node000009" class="edge">
<title>Node25&#45;&gt;Node9</title>
<g id="a_edge27_Node000025_Node000009"><a xlink:title=" ">
<path fill="none" stroke="#63b8ff" d="M172.13,-844.33C170.01,-843.04 167.96,-841.69 166,-840.26 124.79,-810.32 90.67,-759.49 75.1,-733.92"/>
<polygon fill="#63b8ff" stroke="#63b8ff" points="170.29,-847.86 180.74,-849.56 173.63,-841.71 170.29,-847.86"/>
</a>
</g>
</g>
<!-- Node26 -->
<g id="Node000026" class="node">
<title>Node26</title>
<g id="a_Node000026"><a xlink:href="../../d7/d21/class_slic3r_1_1_g_u_i_1_1_plater.html#a8cd5b6de199420af0e6add51e8cab367" target="_top" xlink:title=" ">
<polygon fill="white" stroke="#666666" points="113.12,-880.51 16.88,-880.51 16.88,-850.01 113.12,-850.01 113.12,-880.51"/>
<text text-anchor="start" x="24.88" y="-867.01" font-family="Helvetica,sans-Serif" font-size="10.00">Slic3r::GUI::Plater</text>
<text text-anchor="middle" x="65" y="-855.76" font-family="Helvetica,sans-Serif" font-size="10.00">::search</text>
</a>
</g>
</g>
<!-- Node25&#45;&gt;Node26 -->
<g id="edge26_Node000025_Node000026" class="edge">
<title>Node25&#45;&gt;Node26</title>
<g id="a_edge26_Node000025_Node000026"><a xlink:title=" ">
<path fill="none" stroke="#63b8ff" d="M154.93,-865.26C140.81,-865.26 126.41,-865.26 113.43,-865.26"/>
<polygon fill="#63b8ff" stroke="#63b8ff" points="154.65,-868.76 164.65,-865.26 154.65,-861.76 154.65,-868.76"/>
</a>
</g>
</g>
<!-- Node27&#45;&gt;Node8 -->
<g id="edge29_Node000027_Node000008" class="edge">
<title>Node27&#45;&gt;Node8</title>
<g id="a_edge29_Node000027_Node000008"><a xlink:title=" ">
<path fill="none" stroke="#63b8ff" d="M174.16,-573.62C171.35,-575.09 168.61,-576.64 166,-578.26 131.49,-599.67 97.96,-633.7 79.84,-653.52"/>
<polygon fill="#63b8ff" stroke="#63b8ff" points="175.43,-576.41 182.9,-568.9 172.38,-570.11 175.43,-576.41"/>
</a>
</g>
</g>
<!-- Node27&#45;&gt;Node9 -->
<g id="edge30_Node000027_Node000009" class="edge">
<title>Node27&#45;&gt;Node9</title>
<g id="a_edge30_Node000027_Node000009"><a xlink:title=" ">
<path fill="none" stroke="#63b8ff" d="M168.95,-575.36C167.92,-576.29 166.94,-577.26 166,-578.26 129.46,-617.42 166.54,-654.11 130,-693.26 126.66,-696.84 122.75,-699.91 118.54,-702.55"/>
<polygon fill="#63b8ff" stroke="#63b8ff" points="170.56,-577.78 176.46,-568.98 166.36,-572.18 170.56,-577.78"/>
</a>
</g>
</g>
<!-- Node28&#45;&gt;Node8 -->
<g id="edge33_Node000028_Node000008" class="edge">
<title>Node28&#45;&gt;Node8</title>
<g id="a_edge33_Node000028_Node000008"><a xlink:title=" ">
<path fill="none" stroke="#63b8ff" d="M169.09,-794.16C168.02,-793.23 166.99,-792.27 166,-791.26 133.76,-758.47 162.24,-727.05 130,-694.26 126.49,-690.69 122.41,-687.62 118.03,-684.97"/>
<polygon fill="#63b8ff" stroke="#63b8ff" points="166.81,-797.55 176.97,-800.55 170.9,-791.86 166.81,-797.55"/>
</a>
</g>
</g>
<!-- Node28&#45;&gt;Node9 -->
<g id="edge34_Node000028_Node000009" class="edge">
<title>Node28&#45;&gt;Node9</title>
<g id="a_edge34_Node000028_Node000009"><a xlink:title=" ">
<path fill="none" stroke="#63b8ff" d="M175.6,-796.15C172.31,-794.59 169.09,-792.95 166,-791.26 135.47,-774.52 103.53,-749.74 84.2,-733.79"/>
<polygon fill="#63b8ff" stroke="#63b8ff" points="174.04,-799.74 184.59,-800.64 176.91,-793.35 174.04,-799.74"/>
</a>
</g>
</g>
<!-- Node29&#45;&gt;Node8 -->
<g id="edge36_Node000029_Node000008" class="edge">
<title>Node29&#45;&gt;Node8</title>
<g id="a_edge36_Node000029_Node000008"><a xlink:title=" ">
<path fill="none" stroke="#63b8ff" d="M171.92,-746.36C169.87,-745.06 167.89,-743.7 166,-742.26 144.77,-726.13 151.23,-710.4 130,-694.26 125.35,-690.72 120.13,-687.63 114.74,-684.93"/>
<polygon fill="#63b8ff" stroke="#63b8ff" points="169.83,-749.76 180.26,-751.6 173.25,-743.65 169.83,-749.76"/>
</a>
</g>
</g>
<!-- Node29&#45;&gt;Node9 -->
<g id="edge37_Node000029_Node000009" class="edge">
<title>Node29&#45;&gt;Node9</title>
<g id="a_edge37_Node000029_Node000009"><a xlink:title=" ">
<path fill="none" stroke="#63b8ff" d="M167.3,-748.53C151.25,-743.73 134.17,-738.63 118.69,-734"/>
<polygon fill="#63b8ff" stroke="#63b8ff" points="166.08,-752.11 176.66,-751.62 168.08,-745.41 166.08,-752.11"/>
</a>
</g>
</g>
<!-- Node33 -->
<g id="Node000033" class="node">
<title>Node33</title>
<g id="a_Node000033"><a xlink:href="../../df/d13/namespace_im_gui.html#a28046a30716afeb7738a82a5b19044ca" target="_top" xlink:title=" ">
<polygon fill="white" stroke="#666666" points="987.38,-208.89 879.12,-208.89 879.12,-189.64 987.38,-189.64 987.38,-208.89"/>
<text text-anchor="middle" x="933.25" y="-195.39" font-family="Helvetica,sans-Serif" font-size="10.00">ImGui::BeginTableEx</text>
</a>
</g>
</g>
<!-- Node32&#45;&gt;Node33 -->
<g id="edge42_Node000032_Node000033" class="edge">
<title>Node32&#45;&gt;Node33</title>
<g id="a_edge42_Node000032_Node000033"><a xlink:title=" ">
<path fill="none" stroke="#63b8ff" d="M1029,-199.26C1015.15,-199.26 1000.93,-199.26 987.86,-199.26"/>
<polygon fill="#63b8ff" stroke="#63b8ff" points="1029,-202.76 1039,-199.26 1029,-195.76 1029,-202.76"/>
</a>
</g>
</g>
<!-- Node34 -->
<g id="Node000034" class="node">
<title>Node34</title>
<g id="a_Node000034"><a xlink:href="../../df/d13/namespace_im_gui.html#a04ee4f6866b8e10b98008e7f19d35796" target="_top" xlink:title=" ">
<polygon fill="white" stroke="#666666" points="810.12,-207.89 713.88,-207.89 713.88,-188.64 810.12,-188.64 810.12,-207.89"/>
<text text-anchor="middle" x="762" y="-194.39" font-family="Helvetica,sans-Serif" font-size="10.00">ImGui::BeginTable</text>
</a>
</g>
</g>
<!-- Node33&#45;&gt;Node34 -->
<g id="edge43_Node000033_Node000034" class="edge">
<title>Node33&#45;&gt;Node34</title>
<g id="a_edge43_Node000033_Node000034"><a xlink:title=" ">
<path fill="none" stroke="#63b8ff" d="M867.96,-198.88C848.87,-198.77 828.31,-198.65 810.48,-198.54"/>
<polygon fill="#63b8ff" stroke="#63b8ff" points="867.68,-202.39 877.7,-198.95 867.72,-195.39 867.68,-202.39"/>
</a>
</g>
</g>
<!-- Node34&#45;&gt;Node31 -->
<g id="edge44_Node000034_Node000031" class="edge">
<title>Node34&#45;&gt;Node31</title>
<g id="a_edge44_Node000034_Node000031"><a xlink:title=" ">
<path fill="none" stroke="#63b8ff" d="M739.49,-214.62C720.14,-228.25 690.32,-246.61 661,-254.26 592.84,-272.05 568.2,-279.67 502.5,-254.26 458.41,-237.21 421.63,-191.33 407.01,-171.09"/>
<polygon fill="#63b8ff" stroke="#63b8ff" points="741.31,-216.9 747.35,-208.2 737.2,-211.24 741.31,-216.9"/>
</a>
</g>
</g>
<!-- Node35 -->
<g id="Node000035" class="node">
<title>Node35</title>
<g id="a_Node000035"><a xlink:href="../../d5/d0a/imgui__demo_8cpp.html#ac209de20c1f862aa48a3f5f27aee407e" target="_top" xlink:title=" ">
<polygon fill="white" stroke="#666666" points="647.5,-207.89 516,-207.89 516,-188.64 647.5,-188.64 647.5,-207.89"/>
<text text-anchor="middle" x="581.75" y="-194.39" font-family="Helvetica,sans-Serif" font-size="10.00">ShowDemoWindowLayout</text>
</a>
</g>
</g>
<!-- Node34&#45;&gt;Node35 -->
<g id="edge45_Node000034_Node000035" class="edge">
<title>Node34&#45;&gt;Node35</title>
<g id="a_edge45_Node000034_Node000035"><a xlink:title=" ">
<path fill="none" stroke="#63b8ff" d="M702.73,-198.26C685.14,-198.26 665.72,-198.26 647.72,-198.26"/>
<polygon fill="#63b8ff" stroke="#63b8ff" points="702.7,-201.76 712.7,-198.26 702.7,-194.76 702.7,-201.76"/>
</a>
</g>
</g>
<!-- Node36 -->
<g id="Node000036" class="node">
<title>Node36</title>
<g id="a_Node000036"><a xlink:href="../../d5/d0a/imgui__demo_8cpp.html#a1de6150f52a967e73750eb642ec025fe" target="_top" xlink:title=" ">
<polygon fill="white" stroke="#666666" points="647.12,-170.89 516.38,-170.89 516.38,-151.64 647.12,-151.64 647.12,-170.89"/>
<text text-anchor="middle" x="581.75" y="-157.39" font-family="Helvetica,sans-Serif" font-size="10.00">ShowDemoWindowTables</text>
</a>
</g>
</g>
<!-- Node34&#45;&gt;Node36 -->
<g id="edge47_Node000034_Node000036" class="edge">
<title>Node34&#45;&gt;Node36</title>
<g id="a_edge47_Node000034_Node000036"><a xlink:title=" ">
<path fill="none" stroke="#63b8ff" d="M702.99,-186.22C679.9,-181.43 653.61,-175.97 631.51,-171.38"/>
<polygon fill="#63b8ff" stroke="#63b8ff" points="702.2,-189.84 712.7,-188.44 703.62,-182.98 702.2,-189.84"/>
</a>
</g>
</g>
<!-- Node37 -->
<g id="Node000037" class="node">
<title>Node37</title>
<g id="a_Node000037"><a xlink:href="../../d5/d0a/imgui__demo_8cpp.html#af533fd0a774d6bbebe61e474db6f144f" target="_top" xlink:title=" ">
<polygon fill="white" stroke="#666666" points="650.88,-133.89 512.62,-133.89 512.62,-114.64 650.88,-114.64 650.88,-133.89"/>
<text text-anchor="middle" x="581.75" y="-120.39" font-family="Helvetica,sans-Serif" font-size="10.00">ShowDemoWindowWidgets</text>
</a>
</g>
</g>
<!-- Node34&#45;&gt;Node37 -->
<g id="edge49_Node000034_Node000037" class="edge">
<title>Node34&#45;&gt;Node37</title>
<g id="a_edge49_Node000034_Node000037"><a xlink:title=" ">
<path fill="none" stroke="#63b8ff" d="M737.29,-182.43C717.6,-169.92 688.47,-152.86 661,-142.26 653.07,-139.2 644.47,-136.58 635.98,-134.35"/>
<polygon fill="#63b8ff" stroke="#63b8ff" points="735.11,-185.84 745.41,-188.33 738.91,-179.96 735.11,-185.84"/>
</a>
</g>
</g>
<!-- Node38 -->
<g id="Node000038" class="node">
<title>Node38</title>
<g id="a_Node000038"><a xlink:href="../../d5/d0a/imgui__demo_8cpp.html#a4d8ba8c6a1febc3053bd843c150305da" target="_top" xlink:title=" ">
<polygon fill="white" stroke="#666666" points="661,-244.89 502.5,-244.89 502.5,-225.64 661,-225.64 661,-244.89"/>
<text text-anchor="middle" x="581.75" y="-231.39" font-family="Helvetica,sans-Serif" font-size="10.00">ShowExampleAppPropertyEditor</text>
</a>
</g>
</g>
<!-- Node34&#45;&gt;Node38 -->
<g id="edge51_Node000034_Node000038" class="edge">
<title>Node34&#45;&gt;Node38</title>
<g id="a_edge51_Node000034_Node000038"><a xlink:title=" ">
<path fill="none" stroke="#63b8ff" d="M702.99,-210.3C679.9,-215.1 653.61,-220.55 631.51,-225.14"/>
<polygon fill="#63b8ff" stroke="#63b8ff" points="703.62,-213.54 712.7,-208.08 702.2,-206.69 703.62,-213.54"/>
</a>
</g>
</g>
<!-- Node35&#45;&gt;Node31 -->
<g id="edge46_Node000035_Node000031" class="edge">
<title>Node35&#45;&gt;Node31</title>
<g id="a_edge46_Node000035_Node000031"><a xlink:title=" ">
<path fill="none" stroke="#63b8ff" d="M520.7,-185.95C497.59,-181.21 471.49,-175.87 449.51,-171.36"/>
<polygon fill="#63b8ff" stroke="#63b8ff" points="519.93,-189.57 530.43,-188.15 521.33,-182.71 519.93,-189.57"/>
</a>
</g>
</g>
<!-- Node36&#45;&gt;Node31 -->
<g id="edge48_Node000036_Node000031" class="edge">
<title>Node36&#45;&gt;Node31</title>
<g id="a_edge48_Node000036_Node000031"><a xlink:title=" ">
<path fill="none" stroke="#63b8ff" d="M505.46,-161.26C492.66,-161.26 479.45,-161.26 466.89,-161.26"/>
<polygon fill="#63b8ff" stroke="#63b8ff" points="505.1,-164.76 515.1,-161.26 505.1,-157.76 505.1,-164.76"/>
</a>
</g>
</g>
<!-- Node37&#45;&gt;Node31 -->
<g id="edge50_Node000037_Node000031" class="edge">
<title>Node37&#45;&gt;Node31</title>
<g id="a_edge50_Node000037_Node000031"><a xlink:title=" ">
<path fill="none" stroke="#63b8ff" d="M520.7,-136.57C497.59,-141.31 471.49,-146.66 449.51,-151.16"/>
<polygon fill="#63b8ff" stroke="#63b8ff" points="521.33,-139.81 530.43,-134.37 519.93,-132.95 521.33,-139.81"/>
</a>
</g>
</g>
<!-- Node38&#45;&gt;Node31 -->
<g id="edge52_Node000038_Node000031" class="edge">
<title>Node38&#45;&gt;Node31</title>
<g id="a_edge52_Node000038_Node000031"><a xlink:title=" ">
<path fill="none" stroke="#63b8ff" d="M517.44,-222.28C512.33,-220.76 507.3,-219.09 502.5,-217.26 469.77,-204.81 434.58,-183.61 415.21,-171.18"/>
<polygon fill="#63b8ff" stroke="#63b8ff" points="516.39,-225.9 526.96,-225.21 518.27,-219.16 516.39,-225.9"/>
</a>
</g>
</g>
<!-- Node40 -->
<g id="Node000040" class="node">
<title>Node40</title>
<g id="a_Node000040"><a xlink:href="../../df/d13/namespace_im_gui.html#a9c70aaa6464c2e51e6f3342da133ada1" target="_top" xlink:title=" ">
<polygon fill="white" stroke="#666666" points="806.38,-133.89 717.62,-133.89 717.62,-114.64 806.38,-114.64 806.38,-133.89"/>
<text text-anchor="middle" x="762" y="-120.39" font-family="Helvetica,sans-Serif" font-size="10.00">ImGui::EndTable</text>
</a>
</g>
</g>
<!-- Node39&#45;&gt;Node40 -->
<g id="edge54_Node000039_Node000040" class="edge">
<title>Node39&#45;&gt;Node40</title>
<g id="a_edge54_Node000039_Node000040"><a xlink:title=" ">
<path fill="none" stroke="#63b8ff" d="M1028.41,-125.04C960.41,-124.84 862.57,-124.55 806.64,-124.39"/>
<polygon fill="#63b8ff" stroke="#63b8ff" points="1028.04,-128.54 1038.05,-125.07 1028.06,-121.54 1028.04,-128.54"/>
</a>
</g>
</g>
<!-- Node40&#45;&gt;Node31 -->
<g id="edge56_Node000040_Node000031" class="edge">
<title>Node40&#45;&gt;Node31</title>
<g id="a_edge56_Node000040_Node000031"><a xlink:title=" ">
<path fill="none" stroke="#63b8ff" d="M713.29,-111.74C660.79,-100.03 574.34,-86.88 502.5,-105.26 467.6,-114.19 431.8,-137.78 413.22,-151.32"/>
<polygon fill="#63b8ff" stroke="#63b8ff" points="712.43,-115.36 722.96,-114.21 714,-108.54 712.43,-115.36"/>
</a>
</g>
</g>
<!-- Node40&#45;&gt;Node35 -->
<g id="edge57_Node000040_Node000035" class="edge">
<title>Node40&#45;&gt;Node35</title>
<g id="a_edge57_Node000040_Node000035"><a xlink:title=" ">
<path fill="none" stroke="#63b8ff" d="M737.29,-140.09C717.6,-152.6 688.47,-169.66 661,-180.26 653.07,-183.32 644.47,-185.95 635.98,-188.17"/>
<polygon fill="#63b8ff" stroke="#63b8ff" points="738.91,-142.57 745.41,-134.2 735.11,-136.69 738.91,-142.57"/>
</a>
</g>
</g>
<!-- Node40&#45;&gt;Node36 -->
<g id="edge58_Node000040_Node000036" class="edge">
<title>Node40&#45;&gt;Node36</title>
<g id="a_edge58_Node000040_Node000036"><a xlink:title=" ">
<path fill="none" stroke="#63b8ff" d="M706.66,-135.54C682.62,-140.53 654.56,-146.35 631.24,-151.2"/>
<polygon fill="#63b8ff" stroke="#63b8ff" points="707.32,-138.77 716.4,-133.31 705.89,-131.92 707.32,-138.77"/>
</a>
</g>
</g>
<!-- Node40&#45;&gt;Node37 -->
<g id="edge59_Node000040_Node000037" class="edge">
<title>Node40&#45;&gt;Node37</title>
<g id="a_edge59_Node000040_Node000037"><a xlink:title=" ">
<path fill="none" stroke="#63b8ff" d="M706.8,-124.26C689.3,-124.26 669.66,-124.26 651.26,-124.26"/>
<polygon fill="#63b8ff" stroke="#63b8ff" points="706.4,-127.76 716.4,-124.26 706.4,-120.76 706.4,-127.76"/>
</a>
</g>
</g>
<!-- Node40&#45;&gt;Node38 -->
<g id="edge60_Node000040_Node000038" class="edge">
<title>Node40&#45;&gt;Node38</title>
<g id="a_edge60_Node000040_Node000038"><a xlink:title=" ">
<path fill="none" stroke="#63b8ff" d="M740.72,-140.78C727.89,-151.45 711.13,-165.8 697,-179.26 680.16,-195.31 681.2,-205.72 661,-217.26 655.43,-220.44 649.34,-223.06 643.09,-225.22"/>
<polygon fill="#63b8ff" stroke="#63b8ff" points="742.4,-143.11 747.88,-134.04 737.94,-137.71 742.4,-143.11"/>
</a>
</g>
</g>
<!-- Node41 -->
<g id="Node000041" class="node">
<title>Node41</title>
<g id="a_Node000041"><a xlink:href="../../df/d13/namespace_im_gui.html#aaeda60ee2c0b5c2b3f397b237c9928f3" target="_top" xlink:title=" ">
<polygon fill="white" stroke="#666666" points="653.12,-58.51 510.38,-58.51 510.38,-28.01 653.12,-28.01 653.12,-58.51"/>
<text text-anchor="start" x="518.38" y="-45.01" font-family="Helvetica,sans-Serif" font-size="10.00">ImGui::ErrorCheckEndFrame</text>
<text text-anchor="middle" x="581.75" y="-33.76" font-family="Helvetica,sans-Serif" font-size="10.00">Recover</text>
</a>
</g>
</g>
<!-- Node40&#45;&gt;Node41 -->
<g id="edge55_Node000040_Node000041" class="edge">
<title>Node40&#45;&gt;Node41</title>
<g id="a_edge55_Node000040_Node000041"><a xlink:title=" ">
<path fill="none" stroke="#63b8ff" d="M733.65,-108.86C713.8,-97.98 686.14,-83.4 661,-72.26 650.4,-67.56 638.79,-62.97 627.83,-58.88"/>
<polygon fill="#63b8ff" stroke="#63b8ff" points="731.82,-112.4 742.27,-114.18 735.21,-106.28 731.82,-112.4"/>
</a>
</g>
</g>
</g>
</svg>
