<?xml version="1.0" encoding="UTF-8" standalone="no"?>
<!DOCTYPE svg PUBLIC "-//W3C//DTD SVG 1.1//EN"
 "http://www.w3.org/Graphics/SVG/1.1/DTD/svg11.dtd">
<!-- Generated by graphviz version 8.1.0 (20230707.0739)
 -->
<!-- Title: ImGui::TableSetColumnSortDirection Pages: 1 -->
<!--zoomable 339 -->

<svg id="main" version="1.1" xmlns="http://www.w3.org/2000/svg" xmlns:xlink="http://www.w3.org/1999/xlink" xml:space="preserve" onload="init(evt)">
<style type="text/css"><![CDATA[
.node, .edge {opacity: 0.7;}
.node.selected, .edge.selected {opacity: 1;}
.edge:hover path { stroke: red; }
.edge:hover polygon { stroke: red; fill: red; }
]]></style>

<defs>
  <circle id="rim" cx="0" cy="0" r="7"/>
  <circle id="rim2" cx="0" cy="0" r="3.5"/>
  <g id="zoomPlus">
    <use xlink:href="#rim" fill="#404040"><set attributeName="fill" to="#808080" begin="zoomplus.mouseover" end="zoomplus.mouseout"/></use>
    <path d="M-4,0h8M0,-4v8" fill="none" stroke="white" stroke-width="1.5" pointer-events="none"/>
  </g>
  <g id="zoomMin">
    <use xlink:href="#rim" fill="#404040"><set attributeName="fill" to="#808080" begin="zoomminus.mouseover" end="zoomminus.mouseout"/></use>
    <path d="M-4,0h8" fill="none" stroke="white" stroke-width="1.5" pointer-events="none"/>
  </g>
  <g id="arrowUp" transform="translate(30 24)">
    <use xlink:href="#rim"/>
    <path pointer-events="none" fill="none" stroke="white" stroke-width="1.5" d="M0,-3.0v7 M-2.5,-0.5L0,-3.0L2.5,-0.5"/>
  </g>
  <g id="arrowRight" transform="rotate(90) translate(36 -43)">
    <use xlink:href="#rim"/>
    <path pointer-events="none" fill="none" stroke="white" stroke-width="1.5" d="M0,-3.0v7 M-2.5,-0.5L0,-3.0L2.5,-0.5"/>
  </g>
  <g id="arrowDown" transform="rotate(180) translate(-30 -48)">
    <use xlink:href="#rim"/>
    <path pointer-events="none" fill="none" stroke="white" stroke-width="1.5" d="M0,-3.0v7 M-2.5,-0.5L0,-3.0L2.5,-0.5"/>
  </g>
  <g id="arrowLeft" transform="rotate(270) translate(-36 17)">
    <use xlink:href="#rim"/>
    <path pointer-events="none" fill="none" stroke="white" stroke-width="1.5" d="M0,-3.0v7 M-2.5,-0.5L0,-3.0L2.5,-0.5"/>
  </g>
  <g id="resetDef">
    <use xlink:href="#rim2" fill="#404040"><set attributeName="fill" to="#808080" begin="reset.mouseover" end="reset.mouseout"/></use>
  </g>
</defs>
<script type="application/ecmascript">
var viewWidth = 1202;
var viewHeight = 339;
var sectionId = 'dynsection-1020';
</script>
<script type="application/ecmascript" xlink:href="../../svg.min.js"/>
<svg id="graph" class="graph">
<g id="viewport">
<title>ImGui::TableSetColumnSortDirection</title>
<!-- Node1 -->
<g id="Node000001" class="node">
<title>Node1</title>
<g id="a_Node000001"><a xlink:title=" ">
<polygon fill="#999999" stroke="#666666" points="1194.25,-62.88 1056,-62.88 1056,-32.38 1194.25,-32.38 1194.25,-62.88"/>
<text text-anchor="start" x="1064" y="-49.38" font-family="Helvetica,sans-Serif" font-size="10.00">ImGui::TableSetColumnSort</text>
<text text-anchor="middle" x="1125.12" y="-38.12" font-family="Helvetica,sans-Serif" font-size="10.00">Direction</text>
</a>
</g>
</g>
<!-- Node2 -->
<g id="Node000002" class="node">
<title>Node2</title>
<g id="a_Node000002"><a xlink:href="../../df/d13/namespace_im_gui.html#add4b4da6cea17a33ebbe6b5a55d5fa16" target="_top" xlink:title=" ">
<polygon fill="white" stroke="#666666" points="1020,-76.25 866.75,-76.25 866.75,-57 1020,-57 1020,-76.25"/>
<text text-anchor="middle" x="943.38" y="-62.75" font-family="Helvetica,sans-Serif" font-size="10.00">ImGui::TableDrawContextMenu</text>
</a>
</g>
</g>
<!-- Node1&#45;&gt;Node2 -->
<g id="edge1_Node000001_Node000002" class="edge">
<title>Node1&#45;&gt;Node2</title>
<g id="a_edge1_Node000001_Node000002"><a xlink:title=" ">
<path fill="none" stroke="#63b8ff" d="M1044.75,-56.02C1036.68,-56.87 1028.49,-57.73 1020.45,-58.58"/>
<polygon fill="#63b8ff" stroke="#63b8ff" points="1045.08,-59.39 1054.66,-54.86 1044.34,-52.43 1045.08,-59.39"/>
</a>
</g>
</g>
<!-- Node16 -->
<g id="Node000016" class="node">
<title>Node16</title>
<g id="a_Node000016"><a xlink:href="../../df/d13/namespace_im_gui.html#ae51bc07bc518779f58def3c0e2d0045c" target="_top" xlink:title=" ">
<polygon fill="white" stroke="#666666" points="647.5,-19.25 544.5,-19.25 544.5,0 647.5,0 647.5,-19.25"/>
<text text-anchor="middle" x="596" y="-5.75" font-family="Helvetica,sans-Serif" font-size="10.00">ImGui::TableHeader</text>
</a>
</g>
</g>
<!-- Node1&#45;&gt;Node16 -->
<g id="edge30_Node000001_Node000016" class="edge">
<title>Node1&#45;&gt;Node16</title>
<g id="a_edge30_Node000001_Node000016"><a xlink:title=" ">
<path fill="none" stroke="#63b8ff" d="M1045.09,-41.93C935.38,-34.02 740.08,-19.94 647.88,-13.29"/>
<polygon fill="#63b8ff" stroke="#63b8ff" points="1044.53,-45.47 1054.75,-42.7 1045.03,-38.49 1044.53,-45.47"/>
</a>
</g>
</g>
<!-- Node3 -->
<g id="Node000003" class="node">
<title>Node3</title>
<g id="a_Node000003"><a xlink:href="../../df/d13/namespace_im_gui.html#a890d76a0ec9efc98765c226884e3e32a" target="_top" xlink:title=" ">
<polygon fill="white" stroke="#666666" points="830.75,-94.25 698.5,-94.25 698.5,-75 830.75,-75 830.75,-94.25"/>
<text text-anchor="middle" x="764.62" y="-80.75" font-family="Helvetica,sans-Serif" font-size="10.00">ImGui::TableUpdateLayout</text>
</a>
</g>
</g>
<!-- Node2&#45;&gt;Node3 -->
<g id="edge2_Node000002_Node000003" class="edge">
<title>Node2&#45;&gt;Node3</title>
<g id="a_edge2_Node000002_Node000003"><a xlink:title=" ">
<path fill="none" stroke="#63b8ff" d="M855.56,-75.47C847.29,-76.31 839,-77.15 830.99,-77.97"/>
<polygon fill="#63b8ff" stroke="#63b8ff" points="855.8,-78.86 865.39,-74.36 855.09,-71.89 855.8,-78.86"/>
</a>
</g>
</g>
<!-- Node4 -->
<g id="Node000004" class="node">
<title>Node4</title>
<g id="a_Node000004"><a xlink:href="../../df/d13/namespace_im_gui.html#a9c70aaa6464c2e51e6f3342da133ada1" target="_top" xlink:title=" ">
<polygon fill="white" stroke="#666666" points="473.62,-246.25 384.88,-246.25 384.88,-227 473.62,-227 473.62,-246.25"/>
<text text-anchor="middle" x="429.25" y="-232.75" font-family="Helvetica,sans-Serif" font-size="10.00">ImGui::EndTable</text>
</a>
</g>
</g>
<!-- Node3&#45;&gt;Node4 -->
<g id="edge3_Node000003_Node000004" class="edge">
<title>Node3&#45;&gt;Node4</title>
<g id="a_edge3_Node000003_Node000004"><a xlink:title=" ">
<path fill="none" stroke="#63b8ff" d="M744.93,-101.69C725.54,-118.62 693.75,-144.34 662.5,-160.62 600.42,-192.97 521.88,-215.19 473.89,-226.91"/>
<polygon fill="#63b8ff" stroke="#63b8ff" points="746.77,-104.85 751.92,-95.59 742.12,-99.61 746.77,-104.85"/>
</a>
</g>
</g>
<!-- Node11 -->
<g id="Node000011" class="node">
<title>Node11</title>
<g id="a_Node000011"><a xlink:href="../../df/d13/namespace_im_gui.html#acaeb2f2896b8332e108b6b1ce1c08fcc" target="_top" xlink:title=" ">
<polygon fill="white" stroke="#666666" points="662.5,-56.25 529.5,-56.25 529.5,-37 662.5,-37 662.5,-56.25"/>
<text text-anchor="middle" x="596" y="-42.75" font-family="Helvetica,sans-Serif" font-size="10.00">ImGui::TableGetSortSpecs</text>
</a>
</g>
</g>
<!-- Node3&#45;&gt;Node11 -->
<g id="edge14_Node000003_Node000011" class="edge">
<title>Node3&#45;&gt;Node11</title>
<g id="a_edge14_Node000003_Node000011"><a xlink:title=" ">
<path fill="none" stroke="#63b8ff" d="M708.89,-72.14C686.92,-67.13 661.92,-61.43 641.13,-56.69"/>
<polygon fill="#63b8ff" stroke="#63b8ff" points="707.88,-75.73 718.41,-74.54 709.44,-68.91 707.88,-75.73"/>
</a>
</g>
</g>
<!-- Node12 -->
<g id="Node000012" class="node">
<title>Node12</title>
<g id="a_Node000012"><a xlink:href="../../df/d13/namespace_im_gui.html#a0c16791f4620e8db38511553d5d63335" target="_top" xlink:title=" ">
<polygon fill="white" stroke="#666666" points="493.5,-94.25 365,-94.25 365,-75 493.5,-75 493.5,-94.25"/>
<text text-anchor="middle" x="429.25" y="-80.75" font-family="Helvetica,sans-Serif" font-size="10.00">ImGui::TableHeadersRow</text>
</a>
</g>
</g>
<!-- Node3&#45;&gt;Node12 -->
<g id="edge16_Node000003_Node000012" class="edge">
<title>Node3&#45;&gt;Node12</title>
<g id="a_edge16_Node000003_Node000012"><a xlink:title=" ">
<path fill="none" stroke="#63b8ff" d="M687.49,-84.62C628.95,-84.62 549.02,-84.62 493.87,-84.62"/>
<polygon fill="#63b8ff" stroke="#63b8ff" points="687.16,-88.13 697.16,-84.62 687.16,-81.13 687.16,-88.13"/>
</a>
</g>
</g>
<!-- Node13 -->
<g id="Node000013" class="node">
<title>Node13</title>
<g id="a_Node000013"><a xlink:href="../../df/d13/namespace_im_gui.html#a33511cbfe04b545a1a51b514ab6c208c" target="_top" xlink:title=" ">
<polygon fill="white" stroke="#666666" points="652.38,-151.25 539.62,-151.25 539.62,-132 652.38,-132 652.38,-151.25"/>
<text text-anchor="middle" x="596" y="-137.75" font-family="Helvetica,sans-Serif" font-size="10.00">ImGui::TableNextRow</text>
</a>
</g>
</g>
<!-- Node3&#45;&gt;Node13 -->
<g id="edge18_Node000003_Node000013" class="edge">
<title>Node3&#45;&gt;Node13</title>
<g id="a_edge18_Node000003_Node000013"><a xlink:title=" ">
<path fill="none" stroke="#63b8ff" d="M724.09,-98.15C694.11,-108.41 653.55,-122.28 626.39,-131.57"/>
<polygon fill="#63b8ff" stroke="#63b8ff" points="724.89,-101.23 733.22,-94.68 722.62,-94.61 724.89,-101.23"/>
</a>
</g>
</g>
<!-- Node5 -->
<g id="Node000005" class="node">
<title>Node5</title>
<g id="a_Node000005"><a xlink:href="../../df/d13/namespace_im_gui.html#aaeda60ee2c0b5c2b3f397b237c9928f3" target="_top" xlink:title=" ">
<polygon fill="white" stroke="#666666" points="321.12,-293.88 178.38,-293.88 178.38,-263.38 321.12,-263.38 321.12,-293.88"/>
<text text-anchor="start" x="186.38" y="-280.38" font-family="Helvetica,sans-Serif" font-size="10.00">ImGui::ErrorCheckEndFrame</text>
<text text-anchor="middle" x="249.75" y="-269.12" font-family="Helvetica,sans-Serif" font-size="10.00">Recover</text>
</a>
</g>
</g>
<!-- Node4&#45;&gt;Node5 -->
<g id="edge4_Node000004_Node000005" class="edge">
<title>Node4&#45;&gt;Node5</title>
<g id="a_edge4_Node000004_Node000005"><a xlink:title=" ">
<path fill="none" stroke="#63b8ff" d="M375.04,-249.21C356.86,-253.52 336.28,-258.39 317.18,-262.91"/>
<polygon fill="#63b8ff" stroke="#63b8ff" points="375.81,-252.39 384.73,-246.69 374.2,-245.58 375.81,-252.39"/>
</a>
</g>
</g>
<!-- Node6 -->
<g id="Node000006" class="node">
<title>Node6</title>
<g id="a_Node000006"><a xlink:href="../../df/d13/namespace_im_gui.html#af95643a0ce4893b9e57c12991922fb18" target="_top" xlink:title=" ">
<polygon fill="white" stroke="#666666" points="134.5,-188.25 0,-188.25 0,-169 134.5,-169 134.5,-188.25"/>
<text text-anchor="middle" x="67.25" y="-174.75" font-family="Helvetica,sans-Serif" font-size="10.00">ImGui::ShowDemoWindow</text>
</a>
</g>
</g>
<!-- Node4&#45;&gt;Node6 -->
<g id="edge5_Node000004_Node000006" class="edge">
<title>Node4&#45;&gt;Node6</title>
<g id="a_edge5_Node000004_Node000006"><a xlink:title=" ">
<path fill="none" stroke="#63b8ff" d="M373.61,-236.77C320.99,-235.88 239.46,-231.8 170.5,-216.62 141.65,-210.27 109.99,-197.55 89.66,-188.58"/>
<polygon fill="#63b8ff" stroke="#63b8ff" points="373.34,-240.28 383.39,-236.91 373.43,-233.28 373.34,-240.28"/>
</a>
</g>
</g>
<!-- Node7 -->
<g id="Node000007" class="node">
<title>Node7</title>
<g id="a_Node000007"><a xlink:href="../../d5/d0a/imgui__demo_8cpp.html#ac209de20c1f862aa48a3f5f27aee407e" target="_top" xlink:title=" ">
<polygon fill="white" stroke="#666666" points="315.5,-207.25 184,-207.25 184,-188 315.5,-188 315.5,-207.25"/>
<text text-anchor="middle" x="249.75" y="-193.75" font-family="Helvetica,sans-Serif" font-size="10.00">ShowDemoWindowLayout</text>
</a>
</g>
</g>
<!-- Node4&#45;&gt;Node7 -->
<g id="edge6_Node000004_Node000007" class="edge">
<title>Node4&#45;&gt;Node7</title>
<g id="a_edge6_Node000004_Node000007"><a xlink:title=" ">
<path fill="none" stroke="#63b8ff" d="M374.17,-224.74C349.45,-219.31 320.48,-212.95 296.83,-207.75"/>
<polygon fill="#63b8ff" stroke="#63b8ff" points="373.31,-228.36 383.83,-227.08 374.81,-221.52 373.31,-228.36"/>
</a>
</g>
</g>
<!-- Node8 -->
<g id="Node000008" class="node">
<title>Node8</title>
<g id="a_Node000008"><a xlink:href="../../d5/d0a/imgui__demo_8cpp.html#a1de6150f52a967e73750eb642ec025fe" target="_top" xlink:title=" ">
<polygon fill="white" stroke="#666666" points="315.12,-94.25 184.38,-94.25 184.38,-75 315.12,-75 315.12,-94.25"/>
<text text-anchor="middle" x="249.75" y="-80.75" font-family="Helvetica,sans-Serif" font-size="10.00">ShowDemoWindowTables</text>
</a>
</g>
</g>
<!-- Node4&#45;&gt;Node8 -->
<g id="edge8_Node000004_Node000008" class="edge">
<title>Node4&#45;&gt;Node8</title>
<g id="a_edge8_Node000004_Node000008"><a xlink:title=" ">
<path fill="none" stroke="#63b8ff" d="M408.76,-219.77C396.06,-208.62 379.27,-193.55 365,-179.62 348.35,-163.38 346.48,-156.98 329,-141.62 308.42,-123.54 282.33,-105.38 266.08,-94.57"/>
<polygon fill="#63b8ff" stroke="#63b8ff" points="405.97,-222.86 415.81,-226.8 410.58,-217.58 405.97,-222.86"/>
</a>
</g>
</g>
<!-- Node9 -->
<g id="Node000009" class="node">
<title>Node9</title>
<g id="a_Node000009"><a xlink:href="../../d5/d0a/imgui__demo_8cpp.html#af533fd0a774d6bbebe61e474db6f144f" target="_top" xlink:title=" ">
<polygon fill="white" stroke="#666666" points="318.88,-170.25 180.62,-170.25 180.62,-151 318.88,-151 318.88,-170.25"/>
<text text-anchor="middle" x="249.75" y="-156.75" font-family="Helvetica,sans-Serif" font-size="10.00">ShowDemoWindowWidgets</text>
</a>
</g>
</g>
<!-- Node4&#45;&gt;Node9 -->
<g id="edge10_Node000004_Node000009" class="edge">
<title>Node4&#45;&gt;Node9</title>
<g id="a_edge10_Node000004_Node000009"><a xlink:title=" ">
<path fill="none" stroke="#63b8ff" d="M384.45,-222.61C377.72,-219.72 371.02,-216.4 365,-212.62 346.35,-200.94 348.4,-189.01 329,-178.62 323.1,-175.47 316.66,-172.86 310.1,-170.71"/>
<polygon fill="#63b8ff" stroke="#63b8ff" points="382.67,-226.07 393.25,-226.52 385.26,-219.56 382.67,-226.07"/>
</a>
</g>
</g>
<!-- Node10 -->
<g id="Node000010" class="node">
<title>Node10</title>
<g id="a_Node000010"><a xlink:href="../../d5/d0a/imgui__demo_8cpp.html#a4d8ba8c6a1febc3053bd843c150305da" target="_top" xlink:title=" ">
<polygon fill="white" stroke="#666666" points="329,-331.25 170.5,-331.25 170.5,-312 329,-312 329,-331.25"/>
<text text-anchor="middle" x="249.75" y="-317.75" font-family="Helvetica,sans-Serif" font-size="10.00">ShowExampleAppPropertyEditor</text>
</a>
</g>
</g>
<!-- Node4&#45;&gt;Node10 -->
<g id="edge12_Node000004_Node000010" class="edge">
<title>Node4&#45;&gt;Node10</title>
<g id="a_edge12_Node000004_Node000010"><a xlink:title=" ">
<path fill="none" stroke="#63b8ff" d="M404.32,-252.5C392.49,-260.35 377.99,-269.98 365,-278.62 348.99,-289.28 346.61,-294.91 329,-302.62 320.93,-306.16 312.1,-309.11 303.36,-311.54"/>
<polygon fill="#63b8ff" stroke="#63b8ff" points="405.77,-255.08 412.16,-246.63 401.9,-249.24 405.77,-255.08"/>
</a>
</g>
</g>
<!-- Node7&#45;&gt;Node6 -->
<g id="edge7_Node000007_Node000006" class="edge">
<title>Node7&#45;&gt;Node6</title>
<g id="a_edge7_Node000007_Node000006"><a xlink:title=" ">
<path fill="none" stroke="#63b8ff" d="M172.66,-189.62C160.09,-188.29 147.15,-186.93 134.84,-185.63"/>
<polygon fill="#63b8ff" stroke="#63b8ff" points="172.27,-193.2 182.59,-190.77 173.01,-186.24 172.27,-193.2"/>
</a>
</g>
</g>
<!-- Node8&#45;&gt;Node6 -->
<g id="edge9_Node000008_Node000006" class="edge">
<title>Node8&#45;&gt;Node6</title>
<g id="a_edge9_Node000008_Node000006"><a xlink:title=" ">
<path fill="none" stroke="#63b8ff" d="M197.43,-97.92C188.28,-100.98 178.96,-104.55 170.5,-108.62 135.23,-125.62 98.43,-153.83 80.1,-168.72"/>
<polygon fill="#63b8ff" stroke="#63b8ff" points="198.17,-101.04 206.65,-94.69 196.06,-94.37 198.17,-101.04"/>
</a>
</g>
</g>
<!-- Node9&#45;&gt;Node6 -->
<g id="edge11_Node000009_Node000006" class="edge">
<title>Node9&#45;&gt;Node6</title>
<g id="a_edge11_Node000009_Node000006"><a xlink:title=" ">
<path fill="none" stroke="#63b8ff" d="M169.33,-168.54C157.84,-169.69 146.12,-170.86 134.91,-171.98"/>
<polygon fill="#63b8ff" stroke="#63b8ff" points="169.65,-171.93 179.25,-167.46 168.96,-164.97 169.65,-171.93"/>
</a>
</g>
</g>
<!-- Node10&#45;&gt;Node6 -->
<g id="edge13_Node000010_Node000006" class="edge">
<title>Node10&#45;&gt;Node6</title>
<g id="a_edge13_Node000010_Node000006"><a xlink:title=" ">
<path fill="none" stroke="#63b8ff" d="M179.34,-307.44C176.27,-305.99 173.31,-304.39 170.5,-302.62 122.5,-272.55 86.33,-212.2 73.41,-188.5"/>
<polygon fill="#63b8ff" stroke="#63b8ff" points="177.81,-311 188.39,-311.58 180.48,-304.53 177.81,-311"/>
</a>
</g>
</g>
<!-- Node11&#45;&gt;Node8 -->
<g id="edge15_Node000011_Node000008" class="edge">
<title>Node11&#45;&gt;Node8</title>
<g id="a_edge15_Node000011_Node000008"><a xlink:title=" ">
<path fill="none" stroke="#63b8ff" d="M518.6,-51.35C473.76,-54.52 416.06,-59.28 365,-65.62 345.64,-68.03 324.55,-71.34 305.82,-74.52"/>
<polygon fill="#63b8ff" stroke="#63b8ff" points="518.69,-54.79 528.42,-50.6 518.2,-47.8 518.69,-54.79"/>
</a>
</g>
</g>
<!-- Node12&#45;&gt;Node8 -->
<g id="edge17_Node000012_Node000008" class="edge">
<title>Node12&#45;&gt;Node8</title>
<g id="a_edge17_Node000012_Node000008"><a xlink:title=" ">
<path fill="none" stroke="#63b8ff" d="M354.01,-84.62C341.18,-84.62 327.93,-84.62 315.38,-84.62"/>
<polygon fill="#63b8ff" stroke="#63b8ff" points="353.67,-88.13 363.67,-84.62 353.67,-81.13 353.67,-88.13"/>
</a>
</g>
</g>
<!-- Node13&#45;&gt;Node8 -->
<g id="edge19_Node000013_Node000008" class="edge">
<title>Node13&#45;&gt;Node8</title>
<g id="a_edge19_Node000013_Node000008"><a xlink:title=" ">
<path fill="none" stroke="#63b8ff" d="M528.51,-130.66C482.58,-123.08 420.08,-112.75 365,-103.62 347.64,-100.75 328.8,-97.62 311.52,-94.74"/>
<polygon fill="#63b8ff" stroke="#63b8ff" points="527.79,-134.25 538.23,-132.43 528.93,-127.35 527.79,-134.25"/>
</a>
</g>
</g>
<!-- Node13&#45;&gt;Node9 -->
<g id="edge20_Node000013_Node000009" class="edge">
<title>Node13&#45;&gt;Node9</title>
<g id="a_edge20_Node000013_Node000009"><a xlink:title=" ">
<path fill="none" stroke="#63b8ff" d="M564.69,-156.24C544.93,-164.94 518.3,-175.14 493.5,-179.62 424.66,-192.09 343.37,-180.5 294.5,-170.74"/>
<polygon fill="#63b8ff" stroke="#63b8ff" points="565.96,-159.06 573.63,-151.74 563.07,-152.68 565.96,-159.06"/>
</a>
</g>
</g>
<!-- Node13&#45;&gt;Node12 -->
<g id="edge24_Node000013_Node000012" class="edge">
<title>Node13&#45;&gt;Node12</title>
<g id="a_edge24_Node000013_Node000012"><a xlink:title=" ">
<path fill="none" stroke="#63b8ff" d="M555.91,-128.1C526.26,-117.84 486.16,-103.97 459.31,-94.68"/>
<polygon fill="#63b8ff" stroke="#63b8ff" points="554.33,-131.6 564.93,-131.57 556.62,-124.99 554.33,-131.6"/>
</a>
</g>
</g>
<!-- Node14 -->
<g id="Node000014" class="node">
<title>Node14</title>
<g id="a_Node000014"><a xlink:href="../../d5/d0a/imgui__demo_8cpp.html#a857526a48370b7d234b9e096e3db99a7" target="_top" xlink:title=" ">
<polygon fill="white" stroke="#666666" points="489.38,-307.25 369.12,-307.25 369.12,-288 489.38,-288 489.38,-307.25"/>
<text text-anchor="middle" x="429.25" y="-293.75" font-family="Helvetica,sans-Serif" font-size="10.00">ShowPlaceholderObject</text>
</a>
</g>
</g>
<!-- Node13&#45;&gt;Node14 -->
<g id="edge21_Node000013_Node000014" class="edge">
<title>Node13&#45;&gt;Node14</title>
<g id="a_edge21_Node000013_Node000014"><a xlink:title=" ">
<path fill="none" stroke="#63b8ff" d="M581.12,-159.95C562.67,-183.64 528.31,-225.42 493.5,-255.62 479.26,-267.98 461.2,-279.64 448.02,-287.52"/>
<polygon fill="#63b8ff" stroke="#63b8ff" points="584.27,-162.61 587.59,-152.55 578.72,-158.34 584.27,-162.61"/>
</a>
</g>
</g>
<!-- Node15 -->
<g id="Node000015" class="node">
<title>Node15</title>
<g id="a_Node000015"><a xlink:href="../../df/d13/namespace_im_gui.html#ac9925e8335f55449b1be988829e37ba5" target="_top" xlink:title=" ">
<polygon fill="white" stroke="#666666" points="492.38,-170.25 366.12,-170.25 366.12,-151 492.38,-151 492.38,-170.25"/>
<text text-anchor="middle" x="429.25" y="-156.75" font-family="Helvetica,sans-Serif" font-size="10.00">ImGui::TableNextColumn</text>
</a>
</g>
</g>
<!-- Node13&#45;&gt;Node15 -->
<g id="edge25_Node000013_Node000015" class="edge">
<title>Node13&#45;&gt;Node15</title>
<g id="a_edge25_Node000013_Node000015"><a xlink:title=" ">
<path fill="none" stroke="#63b8ff" d="M528.54,-149.29C516.73,-150.65 504.46,-152.07 492.77,-153.41"/>
<polygon fill="#63b8ff" stroke="#63b8ff" points="528.69,-152.68 538.22,-148.06 527.89,-145.73 528.69,-152.68"/>
</a>
</g>
</g>
<!-- Node14&#45;&gt;Node10 -->
<g id="edge22_Node000014_Node000010" class="edge">
<title>Node14&#45;&gt;Node10</title>
<g id="a_edge22_Node000014_Node000010"><a xlink:title=" ">
<path fill="none" stroke="#63b8ff" d="M358.05,-307.12C347.3,-308.57 336.17,-310.08 325.32,-311.54"/>
<polygon fill="#63b8ff" stroke="#63b8ff" points="358.21,-310.49 367.65,-305.68 357.27,-303.55 358.21,-310.49"/>
</a>
</g>
</g>
<!-- Node14&#45;&gt;Node14 -->
<g id="edge23_Node000014_Node000014" class="edge">
<title>Node14&#45;&gt;Node14</title>
<g id="a_edge23_Node000014_Node000014"><a xlink:title=" ">
<path fill="none" stroke="#63b8ff" d="M459.66,-317.63C456.79,-322.04 446.65,-325.25 429.25,-325.25 399.94,-325.25 391.24,-316.15 403.14,-307.54"/>
<polygon fill="#63b8ff" stroke="#63b8ff" points="462.5,-316.36 455.36,-308.54 456.06,-319.11 462.5,-316.36"/>
</a>
</g>
</g>
<!-- Node15&#45;&gt;Node6 -->
<g id="edge26_Node000015_Node000006" class="edge">
<title>Node15&#45;&gt;Node6</title>
<g id="a_edge26_Node000015_Node000006"><a xlink:title=" ">
<path fill="none" stroke="#63b8ff" d="M374.58,-148.43C359.89,-145.62 343.9,-143.04 329,-141.62 258.87,-134.97 239.89,-129.46 170.5,-141.62 141.31,-146.74 109.46,-159.5 89.2,-168.6"/>
<polygon fill="#63b8ff" stroke="#63b8ff" points="373.53,-151.99 384.03,-150.51 374.9,-145.13 373.53,-151.99"/>
</a>
</g>
</g>
<!-- Node15&#45;&gt;Node7 -->
<g id="edge27_Node000015_Node000007" class="edge">
<title>Node15&#45;&gt;Node7</title>
<g id="a_edge27_Node000015_Node000007"><a xlink:title=" ">
<path fill="none" stroke="#63b8ff" d="M369.2,-172.93C346.47,-177.67 320.81,-183.02 299.19,-187.53"/>
<polygon fill="#63b8ff" stroke="#63b8ff" points="369.67,-176.2 378.75,-170.74 368.24,-169.35 369.67,-176.2"/>
</a>
</g>
</g>
<!-- Node15&#45;&gt;Node8 -->
<g id="edge28_Node000015_Node000008" class="edge">
<title>Node15&#45;&gt;Node8</title>
<g id="a_edge28_Node000015_Node000008"><a xlink:title=" ">
<path fill="none" stroke="#63b8ff" d="M386.38,-146.77C379.08,-143.78 371.69,-140.38 365,-136.62 347.33,-126.7 346.99,-117.97 329,-108.62 318.03,-102.92 305.48,-98.33 293.69,-94.74"/>
<polygon fill="#63b8ff" stroke="#63b8ff" points="384.62,-150.23 395.21,-150.57 387.15,-143.7 384.62,-150.23"/>
</a>
</g>
</g>
<!-- Node15&#45;&gt;Node9 -->
<g id="edge29_Node000015_Node000009" class="edge">
<title>Node15&#45;&gt;Node9</title>
<g id="a_edge29_Node000015_Node000009"><a xlink:title=" ">
<path fill="none" stroke="#63b8ff" d="M354.92,-160.62C343.06,-160.62 330.83,-160.62 319.1,-160.62"/>
<polygon fill="#63b8ff" stroke="#63b8ff" points="354.67,-164.13 364.67,-160.62 354.67,-157.13 354.67,-164.13"/>
</a>
</g>
</g>
<!-- Node16&#45;&gt;Node8 -->
<g id="edge31_Node000016_Node000008" class="edge">
<title>Node16&#45;&gt;Node8</title>
<g id="a_edge31_Node000016_Node000008"><a xlink:title=" ">
<path fill="none" stroke="#63b8ff" d="M533.55,-18.17C486.98,-25.17 421.56,-36.1 365,-49.62 335.74,-56.62 302.98,-66.92 280.06,-74.54"/>
<polygon fill="#63b8ff" stroke="#63b8ff" points="534,-21.5 543.38,-16.57 532.97,-14.57 534,-21.5"/>
</a>
</g>
</g>
<!-- Node16&#45;&gt;Node12 -->
<g id="edge32_Node000016_Node000012" class="edge">
<title>Node16&#45;&gt;Node12</title>
<g id="a_edge32_Node000016_Node000012"><a xlink:title=" ">
<path fill="none" stroke="#63b8ff" d="M541.74,-23.03C537.55,-24.45 533.43,-25.99 529.5,-27.62 497.77,-40.85 463.6,-62.23 444.78,-74.7"/>
<polygon fill="#63b8ff" stroke="#63b8ff" points="542.72,-26.07 551.19,-19.71 540.6,-19.4 542.72,-26.07"/>
</a>
</g>
</g>
</g>
</svg>

<g id="navigator" transform="translate(0 0)" fill="#404254">
  <rect fill="#f2f5e9" fill-opacity="0.5" stroke="#606060" stroke-width=".5" x="0" y="0" width="60" height="60"/>
  <use id="zoomplus" xlink:href="#zoomPlus" x="17" y="9" onmousedown="handleZoom(evt,'in')"/>
  <use id="zoomminus" xlink:href="#zoomMin" x="42" y="9" onmousedown="handleZoom(evt,'out')"/>
  <use id="reset" xlink:href="#resetDef" x="30" y="36" onmousedown="handleReset()"/>
   <use id="arrowup" xlink:href="#arrowUp" x="0" y="0" onmousedown="handlePan(0,-1)"/>
  <use id="arrowright" xlink:href="#arrowRight" x="0" y="0" onmousedown="handlePan(1,0)"/>
  <use id="arrowdown" xlink:href="#arrowDown" x="0" y="0" onmousedown="handlePan(0,1)"/>
  <use id="arrowleft" xlink:href="#arrowLeft" x="0" y="0" onmousedown="handlePan(-1,0)"/>
</g>
<svg viewBox="0 0 15 15" width="100%" height="30px" preserveAspectRatio="xMaxYMin meet">
 <g id="arrow_out" transform="scale(0.3 0.3)">
  <a xlink:href="namespace_im_gui_a5db8b6e07ea254b0a63e064a64847b99_icgraph_org.svg" target="_base">
   <rect id="button" ry="5" rx="5" y="6" x="6" height="38" width="38"
        fill="#f2f5e9" fill-opacity="0.5" stroke="#606060" stroke-width="1.0"/>
   <path id="arrow"
     d="M 11.500037,31.436501 C 11.940474,20.09759 22.043105,11.32322 32.158766,21.979434 L 37.068811,17.246167 C 37.068811,17.246167 37.088388,32 37.088388,32 L 22.160133,31.978069 C 22.160133,31.978069 26.997745,27.140456 26.997745,27.140456 C 18.528582,18.264221 13.291696,25.230495 11.500037,31.436501 z"
     style="fill:#404040;"/>
  </a>
 </g>
</svg>

<style type='text/css'>
<![CDATA[
[data-mouse-over-selected='false'] { opacity: 0.7; }
[data-mouse-over-selected='true']  { opacity: 1.0; }
]]>
</style>
<script type="application/ecmascript"><![CDATA[
document.addEventListener('DOMContentLoaded', (event) => {
  highlightEdges();
  highlightAdjacentNodes();
});
]]></script>
</svg>
