<?xml version="1.0" encoding="UTF-8" standalone="no"?>
<!DOCTYPE svg PUBLIC "-//W3C//DTD SVG 1.1//EN"
 "http://www.w3.org/Graphics/SVG/1.1/DTD/svg11.dtd">
<!-- Generated by graphviz version 8.1.0 (20230707.0739)
 -->
<!-- Title: ImGui::ColorConvertHSVtoRGB Pages: 1 -->
<svg width="1455pt" height="753pt"
 viewBox="0.00 0.00 1455.25 752.75" xmlns="http://www.w3.org/2000/svg" xmlns:xlink="http://www.w3.org/1999/xlink">
<g id="graph0" class="graph" transform="scale(1 1) rotate(0) translate(4 748.75)">
<title>ImGui::ColorConvertHSVtoRGB</title>
<!-- Node1 -->
<g id="Node000001" class="node">
<title>Node1</title>
<g id="a_Node000001"><a xlink:title=" ">
<polygon fill="#999999" stroke="#666666" points="1447.25,-496.88 1290.25,-496.88 1290.25,-477.62 1447.25,-477.62 1447.25,-496.88"/>
<text text-anchor="middle" x="1368.75" y="-483.38" font-family="Helvetica,sans-Serif" font-size="10.00">ImGui::ColorConvertHSVtoRGB</text>
</a>
</g>
</g>
<!-- Node2 -->
<g id="Node000002" class="node">
<title>Node2</title>
<g id="a_Node000002"><a xlink:href="../../df/d13/namespace_im_gui.html#a82b18bfe08594b76c08894848d1e6fce" target="_top" xlink:title=" ">
<polygon fill="white" stroke="#666666" points="1254.25,-515.88 1154.25,-515.88 1154.25,-496.62 1254.25,-496.62 1254.25,-515.88"/>
<text text-anchor="middle" x="1204.25" y="-502.38" font-family="Helvetica,sans-Serif" font-size="10.00">ImGui::ColorButton</text>
</a>
</g>
</g>
<!-- Node1&#45;&gt;Node2 -->
<g id="edge1_Node000001_Node000002" class="edge">
<title>Node1&#45;&gt;Node2</title>
<g id="a_edge1_Node000001_Node000002"><a xlink:title=" ">
<path fill="none" stroke="#63b8ff" d="M1279.1,-497.62C1270.65,-498.6 1262.3,-499.58 1254.44,-500.5"/>
<polygon fill="#63b8ff" stroke="#63b8ff" points="1279.31,-501 1288.83,-496.36 1278.49,-494.05 1279.31,-501"/>
</a>
</g>
</g>
<!-- Node3 -->
<g id="Node000003" class="node">
<title>Node3</title>
<g id="a_Node000003"><a xlink:href="../../df/d13/namespace_im_gui.html#ac3f45e2aa0b1d591cc8a2cdf8b566a45" target="_top" xlink:title=" ">
<polygon fill="white" stroke="#666666" points="1068.38,-477.88 974.38,-477.88 974.38,-458.62 1068.38,-458.62 1068.38,-477.88"/>
<text text-anchor="middle" x="1021.38" y="-464.38" font-family="Helvetica,sans-Serif" font-size="10.00">ImGui::ColorEdit4</text>
</a>
</g>
</g>
<!-- Node1&#45;&gt;Node3 -->
<g id="edge50_Node000001_Node000003" class="edge">
<title>Node1&#45;&gt;Node3</title>
<g id="a_edge50_Node000001_Node000003"><a xlink:title=" ">
<path fill="none" stroke="#63b8ff" d="M1279.23,-482.38C1212.07,-478.69 1122.43,-473.75 1068.74,-470.8"/>
<polygon fill="#63b8ff" stroke="#63b8ff" points="1278.63,-485.91 1288.81,-482.96 1279.02,-478.92 1278.63,-485.91"/>
</a>
</g>
</g>
<!-- Node36 -->
<g id="Node000036" class="node">
<title>Node36</title>
<g id="a_Node000036"><a xlink:href="../../d5/d0a/imgui__demo_8cpp.html#af533fd0a774d6bbebe61e474db6f144f" target="_top" xlink:title=" ">
<polygon fill="white" stroke="#666666" points="670,-652.88 531.75,-652.88 531.75,-633.62 670,-633.62 670,-652.88"/>
<text text-anchor="middle" x="600.88" y="-639.38" font-family="Helvetica,sans-Serif" font-size="10.00">ShowDemoWindowWidgets</text>
</a>
</g>
</g>
<!-- Node1&#45;&gt;Node36 -->
<g id="edge57_Node000001_Node000036" class="edge">
<title>Node1&#45;&gt;Node36</title>
<g id="a_edge57_Node000001_Node000036"><a xlink:title=" ">
<path fill="none" stroke="#63b8ff" d="M1342.84,-502.94C1299.11,-529.76 1204.94,-584.32 1118.25,-613.25 946.74,-670.49 894.09,-663.13 713.5,-654.25 699.5,-653.56 684.54,-652.39 670.27,-651.06"/>
<polygon fill="#63b8ff" stroke="#63b8ff" points="1344.45,-505.44 1351.11,-497.21 1340.77,-499.49 1344.45,-505.44"/>
</a>
</g>
</g>
<!-- Node37 -->
<g id="Node000037" class="node">
<title>Node37</title>
<g id="a_Node000037"><a xlink:href="../../df/d13/namespace_im_gui.html#a3d5aae9e0a14aa051d5a799abbe97b32" target="_top" xlink:title=" ">
<polygon fill="white" stroke="#666666" points="853.25,-372.88 748.75,-372.88 748.75,-353.62 853.25,-353.62 853.25,-372.88"/>
<text text-anchor="middle" x="801" y="-359.38" font-family="Helvetica,sans-Serif" font-size="10.00">ImGui::ColorPicker4</text>
</a>
</g>
</g>
<!-- Node1&#45;&gt;Node37 -->
<g id="edge51_Node000001_Node000037" class="edge">
<title>Node1&#45;&gt;Node37</title>
<g id="a_edge51_Node000001_Node000037"><a xlink:title=" ">
<path fill="none" stroke="#63b8ff" d="M1331.78,-473.32C1283.79,-455.25 1195.85,-423.97 1118.25,-406.25 1026.28,-385.25 916.77,-373.16 853.72,-367.42"/>
<polygon fill="#63b8ff" stroke="#63b8ff" points="1330.37,-476.9 1340.96,-477.18 1332.85,-470.36 1330.37,-476.9"/>
</a>
</g>
</g>
<!-- Node49 -->
<g id="Node000049" class="node">
<title>Node49</title>
<g id="a_Node000049"><a xlink:href="../../db/da3/struct_im_color.html#ac8cb52119648523038818a613becf010" target="_top" xlink:title=" ">
<polygon fill="white" stroke="#666666" points="839.75,-723.88 762.25,-723.88 762.25,-704.62 839.75,-704.62 839.75,-723.88"/>
<text text-anchor="middle" x="801" y="-710.38" font-family="Helvetica,sans-Serif" font-size="10.00">ImColor::HSV</text>
</a>
</g>
</g>
<!-- Node1&#45;&gt;Node49 -->
<g id="edge52_Node000001_Node000049" class="edge">
<title>Node1&#45;&gt;Node49</title>
<g id="a_edge52_Node000001_Node000049"><a xlink:title=" ">
<path fill="none" stroke="#63b8ff" d="M1363.27,-507.64C1352.72,-550.22 1321.92,-648.11 1254.25,-690.25 1121.77,-772.76 922.83,-741.74 840.15,-723.65"/>
<polygon fill="#63b8ff" stroke="#63b8ff" points="1366.85,-508.73 1365.73,-498.19 1360.03,-507.13 1366.85,-508.73"/>
</a>
</g>
</g>
<!-- Node51 -->
<g id="Node000051" class="node">
<title>Node51</title>
<g id="a_Node000051"><a xlink:href="../../db/da3/struct_im_color.html#afcff20160db703b956d56e5a9fa88e24" target="_top" xlink:title=" ">
<polygon fill="white" stroke="#666666" points="1250.5,-363.88 1158,-363.88 1158,-344.62 1250.5,-344.62 1250.5,-363.88"/>
<text text-anchor="middle" x="1204.25" y="-350.38" font-family="Helvetica,sans-Serif" font-size="10.00">ImColor::SetHSV</text>
</a>
</g>
</g>
<!-- Node1&#45;&gt;Node51 -->
<g id="edge56_Node000001_Node000051" class="edge">
<title>Node1&#45;&gt;Node51</title>
<g id="a_edge56_Node000001_Node000051"><a xlink:title=" ">
<path fill="none" stroke="#63b8ff" d="M1352.19,-469.17C1331.55,-445.96 1293.16,-405.46 1254.25,-378.25 1246.64,-372.93 1237.68,-368.17 1229.51,-364.31"/>
<polygon fill="#63b8ff" stroke="#63b8ff" points="1349.97,-470.94 1359.2,-476.15 1355.23,-466.33 1349.97,-470.94"/>
</a>
</g>
</g>
<!-- Node2&#45;&gt;Node2 -->
<g id="edge2_Node000002_Node000002" class="edge">
<title>Node2&#45;&gt;Node2</title>
<g id="a_edge2_Node000002_Node000002"><a xlink:title=" ">
<path fill="none" stroke="#63b8ff" d="M1234.25,-526.26C1231.42,-530.67 1221.42,-533.88 1204.25,-533.88 1175.33,-533.88 1166.75,-524.77 1178.5,-516.16"/>
<polygon fill="#63b8ff" stroke="#63b8ff" points="1237.11,-525.02 1230,-517.16 1230.66,-527.74 1237.11,-525.02"/>
</a>
</g>
</g>
<!-- Node2&#45;&gt;Node3 -->
<g id="edge3_Node000002_Node000003" class="edge">
<title>Node2&#45;&gt;Node3</title>
<g id="a_edge3_Node000002_Node000003"><a xlink:title=" ">
<path fill="none" stroke="#63b8ff" d="M1148.47,-493.8C1138.42,-491.58 1128.03,-489.31 1118.25,-487.25 1102.14,-483.85 1084.48,-480.3 1068.75,-477.2"/>
<polygon fill="#63b8ff" stroke="#63b8ff" points="1147.66,-497.43 1158.18,-496.19 1149.18,-490.59 1147.66,-497.43"/>
</a>
</g>
</g>
<!-- Node2&#45;&gt;Node36 -->
<g id="edge49_Node000002_Node000036" class="edge">
<title>Node2&#45;&gt;Node36</title>
<g id="a_edge49_Node000002_Node000036"><a xlink:title=" ">
<path fill="none" stroke="#63b8ff" d="M1186.39,-523.71C1170.35,-539.23 1144.79,-561.26 1118.25,-573.25 969.01,-640.64 772.67,-647.73 670.44,-646.1"/>
<polygon fill="#63b8ff" stroke="#63b8ff" points="1188.24,-526.81 1192.86,-517.28 1183.3,-521.85 1188.24,-526.81"/>
</a>
</g>
</g>
<!-- Node2&#45;&gt;Node37 -->
<g id="edge45_Node000002_Node000037" class="edge">
<title>Node2&#45;&gt;Node37</title>
<g id="a_edge45_Node000002_Node000037"><a xlink:title=" ">
<path fill="none" stroke="#63b8ff" d="M1183.14,-489.59C1166.66,-476.75 1142.23,-459.52 1118.25,-449.25 1037.16,-414.53 1005.63,-440.86 924.5,-406.25 906.81,-398.71 906.2,-389.78 888.5,-382.25 877.46,-377.56 865.12,-373.96 853.3,-371.23"/>
<polygon fill="#63b8ff" stroke="#63b8ff" points="1180.42,-492.7 1190.42,-496.2 1184.79,-487.23 1180.42,-492.7"/>
</a>
</g>
</g>
<!-- Node47 -->
<g id="Node000047" class="node">
<title>Node47</title>
<g id="a_Node000047"><a xlink:href="../../df/d13/namespace_im_gui.html#afad90b366b6471e3b13175c0ebeb26c8" target="_top" xlink:title=" ">
<polygon fill="white" stroke="#666666" points="1071.38,-515.88 971.38,-515.88 971.38,-496.62 1071.38,-496.62 1071.38,-515.88"/>
<text text-anchor="middle" x="1021.38" y="-502.38" font-family="Helvetica,sans-Serif" font-size="10.00">ImGui::ColorTooltip</text>
</a>
</g>
</g>
<!-- Node2&#45;&gt;Node47 -->
<g id="edge46_Node000002_Node000047" class="edge">
<title>Node2&#45;&gt;Node47</title>
<g id="a_edge46_Node000002_Node000047"><a xlink:title=" ">
<path fill="none" stroke="#63b8ff" d="M1143.08,-499.85C1119.92,-499.3 1093.77,-499.4 1071.74,-500.16"/>
<polygon fill="#63b8ff" stroke="#63b8ff" points="1142.73,-503.37 1152.83,-500.16 1142.93,-496.37 1142.73,-503.37"/>
</a>
</g>
</g>
<!-- Node48 -->
<g id="Node000048" class="node">
<title>Node48</title>
<g id="a_Node000048"><a xlink:href="../../d9/d6f/class_slic3r_1_1_g_u_i_1_1_g_l_gizmo_mmu_segmentation.html#aec1aa2f87573fd0204cb10165154b3cf" target="_top" xlink:title=" ">
<polygon fill="white" stroke="#666666" points="1118.25,-564.5 924.5,-564.5 924.5,-534 1118.25,-534 1118.25,-564.5"/>
<text text-anchor="start" x="932.5" y="-551" font-family="Helvetica,sans-Serif" font-size="10.00">Slic3r::GUI::GLGizmoMmuSegmentation</text>
<text text-anchor="middle" x="1021.38" y="-539.75" font-family="Helvetica,sans-Serif" font-size="10.00">::on_render_input_window</text>
</a>
</g>
</g>
<!-- Node2&#45;&gt;Node48 -->
<g id="edge48_Node000002_Node000048" class="edge">
<title>Node2&#45;&gt;Node48</title>
<g id="a_edge48_Node000002_Node000048"><a xlink:title=" ">
<path fill="none" stroke="#63b8ff" d="M1150.15,-518.87C1130.87,-523.46 1108.85,-528.69 1088.58,-533.51"/>
<polygon fill="#63b8ff" stroke="#63b8ff" points="1150.92,-522.05 1159.84,-516.33 1149.3,-515.24 1150.92,-522.05"/>
</a>
</g>
</g>
<!-- Node4 -->
<g id="Node000004" class="node">
<title>Node4</title>
<g id="a_Node000004"><a xlink:href="../../d0/d2b/class_slic3r_1_1_g_u_i_1_1_g_l_canvas3_d.html#a870a9e287f144c2b4540ff6bbceddbf6" target="_top" xlink:title=" ">
<polygon fill="white" stroke="#666666" points="866,-421.5 736,-421.5 736,-391 866,-391 866,-421.5"/>
<text text-anchor="start" x="744" y="-408" font-family="Helvetica,sans-Serif" font-size="10.00">Slic3r::GUI::GLCanvas3D</text>
<text text-anchor="middle" x="801" y="-396.75" font-family="Helvetica,sans-Serif" font-size="10.00">::_render_style_editor</text>
</a>
</g>
</g>
<!-- Node3&#45;&gt;Node4 -->
<g id="edge4_Node000003_Node000004" class="edge">
<title>Node3&#45;&gt;Node4</title>
<g id="a_edge4_Node000003_Node000004"><a xlink:title=" ">
<path fill="none" stroke="#63b8ff" d="M964.73,-455.58C951.46,-452.21 937.4,-448.36 924.5,-444.25 908.14,-439.04 904.79,-435.66 888.5,-430.25 879.92,-427.4 870.79,-424.61 861.8,-422"/>
<polygon fill="#63b8ff" stroke="#63b8ff" points="963.62,-459.16 974.17,-458.17 965.31,-452.36 963.62,-459.16"/>
</a>
</g>
</g>
<!-- Node32 -->
<g id="Node000032" class="node">
<title>Node32</title>
<g id="a_Node000032"><a xlink:href="../../df/d13/namespace_im_gui.html#a5afe76ba1c91f07363e40396e7df656e" target="_top" xlink:title=" ">
<polygon fill="white" stroke="#666666" points="848,-571.88 754,-571.88 754,-552.62 848,-552.62 848,-571.88"/>
<text text-anchor="middle" x="801" y="-558.38" font-family="Helvetica,sans-Serif" font-size="10.00">ImGui::ColorEdit3</text>
</a>
</g>
</g>
<!-- Node3&#45;&gt;Node32 -->
<g id="edge23_Node000003_Node000032" class="edge">
<title>Node3&#45;&gt;Node32</title>
<g id="a_edge23_Node000003_Node000032"><a xlink:title=" ">
<path fill="none" stroke="#63b8ff" d="M963.24,-471.81C949.68,-474.68 935.87,-479.45 924.5,-487.25 899.8,-504.21 913.12,-527.18 888.5,-544.25 876.78,-552.38 862.16,-556.98 848.29,-559.54"/>
<polygon fill="#63b8ff" stroke="#63b8ff" points="963.78,-475.1 973.01,-469.9 962.55,-468.2 963.78,-475.1"/>
</a>
</g>
</g>
<!-- Node3&#45;&gt;Node36 -->
<g id="edge40_Node000003_Node000036" class="edge">
<title>Node3&#45;&gt;Node36</title>
<g id="a_edge40_Node000003_Node000036"><a xlink:title=" ">
<path fill="none" stroke="#63b8ff" d="M963.29,-470.05C949.36,-472.9 935.36,-478.1 924.5,-487.25 890.29,-516.08 922.45,-552.12 888.5,-581.25 879.6,-588.88 735.04,-617.65 654.7,-633.17"/>
<polygon fill="#63b8ff" stroke="#63b8ff" points="963.58,-473.38 972.88,-468.3 962.44,-466.48 963.58,-473.38"/>
</a>
</g>
</g>
<!-- Node3&#45;&gt;Node37 -->
<g id="edge29_Node000003_Node000037" class="edge">
<title>Node3&#45;&gt;Node37</title>
<g id="a_edge29_Node000003_Node000037"><a xlink:title=" ">
<path fill="none" stroke="#63b8ff" d="M974.77,-456C957.67,-452.08 938.92,-446.1 924.5,-435.25 899.04,-416.09 914.24,-392.03 888.5,-373.25 878.32,-365.82 865.78,-361.2 853.45,-358.65"/>
<polygon fill="#63b8ff" stroke="#63b8ff" points="973.63,-459.55 984.14,-458.19 975.08,-452.7 973.63,-459.55"/>
</a>
</g>
</g>
<!-- Node40 -->
<g id="Node000040" class="node">
<title>Node40</title>
<g id="a_Node000040"><a xlink:href="../../df/d70/classigl_1_1opengl_1_1glfw_1_1imgui_1_1_im_gui_menu.html#a93e31ccd3713a311f4c822d6647fd365" target="_top" xlink:title=" ">
<polygon fill="white" stroke="#666666" points="862.25,-281.12 739.75,-281.12 739.75,-239.38 862.25,-239.38 862.25,-281.12"/>
<text text-anchor="start" x="747.75" y="-267.62" font-family="Helvetica,sans-Serif" font-size="10.00">igl::opengl::glfw::</text>
<text text-anchor="start" x="747.75" y="-256.38" font-family="Helvetica,sans-Serif" font-size="10.00">imgui::ImGuiMenu::draw</text>
<text text-anchor="middle" x="801" y="-245.12" font-family="Helvetica,sans-Serif" font-size="10.00">_viewer_menu</text>
</a>
</g>
</g>
<!-- Node3&#45;&gt;Node40 -->
<g id="edge35_Node000003_Node000040" class="edge">
<title>Node3&#45;&gt;Node40</title>
<g id="a_edge35_Node000003_Node000040"><a xlink:title=" ">
<path fill="none" stroke="#63b8ff" d="M1001.98,-450.73C962.05,-412.7 867.58,-322.72 824.33,-281.52"/>
<polygon fill="#63b8ff" stroke="#63b8ff" points="999.19,-452.86 1008.84,-457.22 1004.02,-447.79 999.19,-452.86"/>
</a>
</g>
</g>
<!-- Node44 -->
<g id="Node000044" class="node">
<title>Node44</title>
<g id="a_Node000044"><a xlink:href="../../d5/d0a/imgui__demo_8cpp.html#ab19d813f2403009dd8700e041e10c09d" target="_top" xlink:title=" ">
<polygon fill="white" stroke="#666666" points="668.5,-539.88 533.25,-539.88 533.25,-520.62 668.5,-520.62 668.5,-539.88"/>
<text text-anchor="middle" x="600.88" y="-526.38" font-family="Helvetica,sans-Serif" font-size="10.00">ShowDemoWindowPopups</text>
</a>
</g>
</g>
<!-- Node3&#45;&gt;Node44 -->
<g id="edge38_Node000003_Node000044" class="edge">
<title>Node3&#45;&gt;Node44</title>
<g id="a_edge38_Node000003_Node000044"><a xlink:title=" ">
<path fill="none" stroke="#63b8ff" d="M963.23,-473.8C901.43,-480.15 800.14,-491.6 713.5,-506.25 690.63,-510.12 665.35,-515.46 644.64,-520.13"/>
<polygon fill="#63b8ff" stroke="#63b8ff" points="963.32,-477.2 972.92,-472.71 962.62,-470.24 963.32,-477.2"/>
</a>
</g>
</g>
<!-- Node45 -->
<g id="Node000045" class="node">
<title>Node45</title>
<g id="a_Node000045"><a xlink:href="../../d5/d0a/imgui__demo_8cpp.html#a0729207a285af6ef57ce5a31d1a60348" target="_top" xlink:title=" ">
<polygon fill="white" stroke="#666666" points="888.5,-458.88 713.5,-458.88 713.5,-439.62 888.5,-439.62 888.5,-458.88"/>
<text text-anchor="middle" x="801" y="-445.38" font-family="Helvetica,sans-Serif" font-size="10.00">ShowExampleAppCustomRendering</text>
</a>
</g>
</g>
<!-- Node3&#45;&gt;Node45 -->
<g id="edge41_Node000003_Node000045" class="edge">
<title>Node3&#45;&gt;Node45</title>
<g id="a_edge41_Node000003_Node000045"><a xlink:title=" ">
<path fill="none" stroke="#63b8ff" d="M963.24,-463.28C940.5,-461.3 913.83,-458.98 888.8,-456.8"/>
<polygon fill="#63b8ff" stroke="#63b8ff" points="962.8,-466.84 973.06,-464.22 963.4,-459.87 962.8,-466.84"/>
</a>
</g>
</g>
<!-- Node46 -->
<g id="Node000046" class="node">
<title>Node46</title>
<g id="a_Node000046"><a xlink:href="../../df/d13/namespace_im_gui.html#ab2eb3dec78d054fe3feab1c091ec5de5" target="_top" xlink:title=" ">
<polygon fill="white" stroke="#666666" points="861.5,-534.88 740.5,-534.88 740.5,-515.62 861.5,-515.62 861.5,-534.88"/>
<text text-anchor="middle" x="801" y="-521.38" font-family="Helvetica,sans-Serif" font-size="10.00">ImGui::ShowStyleEditor</text>
</a>
</g>
</g>
<!-- Node3&#45;&gt;Node46 -->
<g id="edge43_Node000003_Node000046" class="edge">
<title>Node3&#45;&gt;Node46</title>
<g id="a_edge43_Node000003_Node000046"><a xlink:title=" ">
<path fill="none" stroke="#63b8ff" d="M963.48,-477.82C950.56,-480.46 936.97,-483.62 924.5,-487.25 908.02,-492.05 904.79,-495.84 888.5,-501.25 873.27,-506.31 856.29,-511.18 841.44,-515.2"/>
<polygon fill="#63b8ff" stroke="#63b8ff" points="964,-481.08 973.14,-475.72 962.65,-474.22 964,-481.08"/>
</a>
</g>
</g>
<!-- Node5 -->
<g id="Node000005" class="node">
<title>Node5</title>
<g id="a_Node000005"><a xlink:href="../../d0/d2b/class_slic3r_1_1_g_u_i_1_1_g_l_canvas3_d.html#ab2a817afa6640d4e97519ea4f61c7206" target="_top" xlink:title=" ">
<polygon fill="white" stroke="#666666" points="665.88,-352.5 535.88,-352.5 535.88,-322 665.88,-322 665.88,-352.5"/>
<text text-anchor="start" x="543.88" y="-339" font-family="Helvetica,sans-Serif" font-size="10.00">Slic3r::GUI::GLCanvas3D</text>
<text text-anchor="middle" x="600.88" y="-327.75" font-family="Helvetica,sans-Serif" font-size="10.00">::render</text>
</a>
</g>
</g>
<!-- Node4&#45;&gt;Node5 -->
<g id="edge5_Node000004_Node000005" class="edge">
<title>Node4&#45;&gt;Node5</title>
<g id="a_edge5_Node000004_Node000005"><a xlink:title=" ">
<path fill="none" stroke="#63b8ff" d="M730.04,-387.57C724.42,-385.85 718.85,-384.06 713.5,-382.25 687.87,-373.56 659.61,-362.15 637.94,-352.99"/>
<polygon fill="#63b8ff" stroke="#63b8ff" points="728.59,-391.09 739.17,-390.6 730.59,-384.38 728.59,-391.09"/>
</a>
</g>
</g>
<!-- Node6 -->
<g id="Node000006" class="node">
<title>Node6</title>
<g id="a_Node000006"><a xlink:href="../../d0/d2b/class_slic3r_1_1_g_u_i_1_1_g_l_canvas3_d.html#a6379e5a8883b2a7c10e897ad357a6c6f" target="_top" xlink:title=" ">
<polygon fill="#fff0f0" stroke="red" points="477.38,-204.12 347.38,-204.12 347.38,-162.38 477.38,-162.38 477.38,-204.12"/>
<text text-anchor="start" x="355.38" y="-190.62" font-family="Helvetica,sans-Serif" font-size="10.00">Slic3r::GUI::GLCanvas3D</text>
<text text-anchor="start" x="355.38" y="-179.38" font-family="Helvetica,sans-Serif" font-size="10.00">::_refresh_if_shown_on</text>
<text text-anchor="middle" x="412.38" y="-168.12" font-family="Helvetica,sans-Serif" font-size="10.00">_screen</text>
</a>
</g>
</g>
<!-- Node5&#45;&gt;Node6 -->
<g id="edge6_Node000005_Node000006" class="edge">
<title>Node5&#45;&gt;Node6</title>
<g id="a_edge6_Node000005_Node000006"><a xlink:title=" ">
<path fill="none" stroke="#63b8ff" d="M526.88,-315.58C525.98,-314.83 525.1,-314.05 524.25,-313.25 491.46,-282.21 518.96,-251.35 488.25,-218.25 483.37,-212.99 477.54,-208.45 471.32,-204.55"/>
<polygon fill="#63b8ff" stroke="#63b8ff" points="524.37,-318.8 534.57,-321.67 528.39,-313.07 524.37,-318.8"/>
</a>
</g>
</g>
<!-- Node8 -->
<g id="Node000008" class="node">
<title>Node8</title>
<g id="a_Node000008"><a xlink:href="../../d0/d2b/class_slic3r_1_1_g_u_i_1_1_g_l_canvas3_d.html#a15fc8ce385048544064e6e434e09de23" target="_top" xlink:title=" ">
<polygon fill="#fff0f0" stroke="red" points="298.25,-186.5 168.25,-186.5 168.25,-156 298.25,-156 298.25,-186.5"/>
<text text-anchor="start" x="176.25" y="-173" font-family="Helvetica,sans-Serif" font-size="10.00">Slic3r::GUI::GLCanvas3D</text>
<text text-anchor="middle" x="233.25" y="-161.75" font-family="Helvetica,sans-Serif" font-size="10.00">::on_mouse</text>
</a>
</g>
</g>
<!-- Node5&#45;&gt;Node8 -->
<g id="edge16_Node000005_Node000008" class="edge">
<title>Node5&#45;&gt;Node8</title>
<g id="a_edge16_Node000005_Node000008"><a xlink:title=" ">
<path fill="none" stroke="#63b8ff" d="M526.79,-315.82C525.91,-314.99 525.06,-314.14 524.25,-313.25 474.97,-259.54 545.17,-198.78 488.25,-153.25 424.9,-102.57 321.87,-133.8 268.59,-155.54"/>
<polygon fill="#63b8ff" stroke="#63b8ff" points="524.33,-319.11 534.39,-322.42 528.59,-313.55 524.33,-319.11"/>
</a>
</g>
</g>
<!-- Node9 -->
<g id="Node000009" class="node">
<title>Node9</title>
<g id="a_Node000009"><a xlink:href="../../d0/d2b/class_slic3r_1_1_g_u_i_1_1_g_l_canvas3_d.html#a9ba6503e9ea6e8ea3050de89e6835f52" target="_top" xlink:title=" ">
<polygon fill="white" stroke="#666666" points="130,-216.5 0,-216.5 0,-186 130,-186 130,-216.5"/>
<text text-anchor="start" x="8" y="-203" font-family="Helvetica,sans-Serif" font-size="10.00">Slic3r::GUI::GLCanvas3D</text>
<text text-anchor="middle" x="65" y="-191.75" font-family="Helvetica,sans-Serif" font-size="10.00">::bind_event_handlers</text>
</a>
</g>
</g>
<!-- Node5&#45;&gt;Node9 -->
<g id="edge10_Node000005_Node000009" class="edge">
<title>Node5&#45;&gt;Node9</title>
<g id="a_edge10_Node000005_Node000009"><a xlink:title=" ">
<path fill="none" stroke="#63b8ff" d="M529.48,-316.67C527.68,-315.58 525.93,-314.45 524.25,-313.25 502.5,-297.81 511.14,-278.93 488.25,-265.25 473.04,-256.15 244.89,-224.93 130.45,-209.72"/>
<polygon fill="#63b8ff" stroke="#63b8ff" points="527.34,-320.02 537.81,-321.64 530.63,-313.85 527.34,-320.02"/>
</a>
</g>
</g>
<!-- Node15 -->
<g id="Node000015" class="node">
<title>Node15</title>
<g id="a_Node000015"><a xlink:href="../../d3/dff/class_slic3r_1_1_g_u_i_1_1_g_l_toolbar.html#af834580a75dbef27b91354ddc49efb8c" target="_top" xlink:title=" ">
<polygon fill="#fff0f0" stroke="red" points="469.88,-426.5 354.88,-426.5 354.88,-396 469.88,-396 469.88,-426.5"/>
<text text-anchor="start" x="362.88" y="-413" font-family="Helvetica,sans-Serif" font-size="10.00">Slic3r::GUI::GLToolbar</text>
<text text-anchor="middle" x="412.38" y="-401.75" font-family="Helvetica,sans-Serif" font-size="10.00">::do_action</text>
</a>
</g>
</g>
<!-- Node5&#45;&gt;Node15 -->
<g id="edge11_Node000005_Node000015" class="edge">
<title>Node5&#45;&gt;Node15</title>
<g id="a_edge11_Node000005_Node000015"><a xlink:title=" ">
<path fill="none" stroke="#63b8ff" d="M556.52,-357.38C536,-366.63 511.06,-377.46 488.25,-386.25 479.94,-389.45 471.02,-392.64 462.34,-395.62"/>
<polygon fill="#63b8ff" stroke="#63b8ff" points="557.84,-360.17 565.5,-352.85 554.95,-353.8 557.84,-360.17"/>
</a>
</g>
</g>
<!-- Node26 -->
<g id="Node000026" class="node">
<title>Node26</title>
<g id="a_Node000026"><a xlink:href="../../d0/d2b/class_slic3r_1_1_g_u_i_1_1_g_l_canvas3_d.html#a8f7ad08978b57363cc286b3ba55dbe52" target="_top" xlink:title=" ">
<polygon fill="#fff0f0" stroke="red" points="298.25,-133.5 168.25,-133.5 168.25,-103 298.25,-103 298.25,-133.5"/>
<text text-anchor="start" x="176.25" y="-120" font-family="Helvetica,sans-Serif" font-size="10.00">Slic3r::GUI::GLCanvas3D</text>
<text text-anchor="middle" x="233.25" y="-108.75" font-family="Helvetica,sans-Serif" font-size="10.00">::on_char</text>
</a>
</g>
</g>
<!-- Node5&#45;&gt;Node26 -->
<g id="edge12_Node000005_Node000026" class="edge">
<title>Node5&#45;&gt;Node26</title>
<g id="a_edge12_Node000005_Node000026"><a xlink:title=" ">
<path fill="none" stroke="#63b8ff" d="M527.15,-316.25C526.14,-315.29 525.17,-314.29 524.25,-313.25 466.97,-248.59 554.31,-177.91 488.25,-122.25 431.42,-74.37 339.36,-87.79 283.07,-102.55"/>
<polygon fill="#63b8ff" stroke="#63b8ff" points="524.55,-319.43 534.6,-322.76 528.82,-313.89 524.55,-319.43"/>
</a>
</g>
</g>
<!-- Node28 -->
<g id="Node000028" class="node">
<title>Node28</title>
<g id="a_Node000028"><a xlink:href="../../d0/d2b/class_slic3r_1_1_g_u_i_1_1_g_l_canvas3_d.html#aa811f0a583e17a1b5102893f9ef44d53" target="_top" xlink:title=" ">
<polygon fill="#fff0f0" stroke="red" points="298.25,-77.5 168.25,-77.5 168.25,-47 298.25,-47 298.25,-77.5"/>
<text text-anchor="start" x="176.25" y="-64" font-family="Helvetica,sans-Serif" font-size="10.00">Slic3r::GUI::GLCanvas3D</text>
<text text-anchor="middle" x="233.25" y="-52.75" font-family="Helvetica,sans-Serif" font-size="10.00">::on_key</text>
</a>
</g>
</g>
<!-- Node5&#45;&gt;Node28 -->
<g id="edge14_Node000005_Node000028" class="edge">
<title>Node5&#45;&gt;Node28</title>
<g id="a_edge14_Node000005_Node000028"><a xlink:title=" ">
<path fill="none" stroke="#63b8ff" d="M527.11,-316.29C526.11,-315.32 525.16,-314.31 524.25,-313.25 457.38,-235.45 563.16,-155.35 488.25,-85.25 438.22,-38.43 355.86,-39.81 298.54,-48.23"/>
<polygon fill="#63b8ff" stroke="#63b8ff" points="524.46,-319.44 534.48,-322.87 528.78,-313.94 524.46,-319.44"/>
</a>
</g>
</g>
<!-- Node29 -->
<g id="Node000029" class="node">
<title>Node29</title>
<g id="a_Node000029"><a xlink:href="../../d0/d2b/class_slic3r_1_1_g_u_i_1_1_g_l_canvas3_d.html#a8ee94b7e2954f5694921dfec9ba59098" target="_top" xlink:title=" ">
<polygon fill="#fff0f0" stroke="red" points="298.25,-404.5 168.25,-404.5 168.25,-374 298.25,-374 298.25,-404.5"/>
<text text-anchor="start" x="176.25" y="-391" font-family="Helvetica,sans-Serif" font-size="10.00">Slic3r::GUI::GLCanvas3D</text>
<text text-anchor="middle" x="233.25" y="-379.75" font-family="Helvetica,sans-Serif" font-size="10.00">::on_mouse_wheel</text>
</a>
</g>
</g>
<!-- Node5&#45;&gt;Node29 -->
<g id="edge17_Node000005_Node000029" class="edge">
<title>Node5&#45;&gt;Node29</title>
<g id="a_edge17_Node000005_Node000029"><a xlink:title=" ">
<path fill="none" stroke="#63b8ff" d="M581.63,-361.19C561.7,-385.15 527.37,-420.51 488.25,-435.25 425.13,-459.02 402.44,-449.4 336.5,-435.25 309.28,-429.41 280.57,-415.74 260.52,-404.81"/>
<polygon fill="#63b8ff" stroke="#63b8ff" points="584.73,-363.91 588.3,-353.93 579.29,-359.51 584.73,-363.91"/>
</a>
</g>
</g>
<!-- Node30 -->
<g id="Node000030" class="node">
<title>Node30</title>
<g id="a_Node000030"><a xlink:href="../../d0/d2b/class_slic3r_1_1_g_u_i_1_1_g_l_canvas3_d.html#a69e6747e3c01be9c51634d8de0ae0561" target="_top" xlink:title=" ">
<polygon fill="#fff0f0" stroke="red" points="298.25,-290.5 168.25,-290.5 168.25,-260 298.25,-260 298.25,-290.5"/>
<text text-anchor="start" x="176.25" y="-277" font-family="Helvetica,sans-Serif" font-size="10.00">Slic3r::GUI::GLCanvas3D</text>
<text text-anchor="middle" x="233.25" y="-265.75" font-family="Helvetica,sans-Serif" font-size="10.00">::on_paint</text>
</a>
</g>
</g>
<!-- Node5&#45;&gt;Node30 -->
<g id="edge19_Node000005_Node000030" class="edge">
<title>Node5&#45;&gt;Node30</title>
<g id="a_edge19_Node000005_Node000030"><a xlink:title=" ">
<path fill="none" stroke="#63b8ff" d="M534.05,-317.61C530.7,-316.23 527.42,-314.77 524.25,-313.25 506.92,-304.93 506.49,-295.33 488.25,-289.25 426.24,-268.59 351.03,-267.14 298.62,-269.59"/>
<polygon fill="#63b8ff" stroke="#63b8ff" points="532.65,-321.21 543.24,-321.58 535.19,-314.69 532.65,-321.21"/>
</a>
</g>
</g>
<!-- Node22 -->
<g id="Node000022" class="node">
<title>Node22</title>
<g id="a_Node000022"><a xlink:href="../../d9/d01/class_slic3r_1_1_g_u_i_1_1_g_u_i___app.html#a92b16a3ad6111d682dd4d779531e674e" target="_top" xlink:title=" ">
<polygon fill="white" stroke="#666666" points="468,-377.5 356.75,-377.5 356.75,-347 468,-347 468,-377.5"/>
<text text-anchor="start" x="364.75" y="-364" font-family="Helvetica,sans-Serif" font-size="10.00">Slic3r::GUI::GUI_App</text>
<text text-anchor="middle" x="412.38" y="-352.75" font-family="Helvetica,sans-Serif" font-size="10.00">::post_init</text>
</a>
</g>
</g>
<!-- Node5&#45;&gt;Node22 -->
<g id="edge21_Node000005_Node000022" class="edge">
<title>Node5&#45;&gt;Node22</title>
<g id="a_edge21_Node000005_Node000022"><a xlink:title=" ">
<path fill="none" stroke="#63b8ff" d="M524.75,-347.32C505.85,-349.85 485.91,-352.53 468.2,-354.9"/>
<polygon fill="#63b8ff" stroke="#63b8ff" points="524.98,-350.69 534.43,-345.89 524.05,-343.75 524.98,-350.69"/>
</a>
</g>
</g>
<!-- Node31 -->
<g id="Node000031" class="node">
<title>Node31</title>
<g id="a_Node000031"><a xlink:href="../../da/d5c/class_slic3r_1_1_g_u_i_1_1_assemble_view.html#aaabc187e850fb4bc675e11805500d55b" target="_top" xlink:title=" ">
<polygon fill="white" stroke="#666666" points="480.38,-328.5 344.38,-328.5 344.38,-298 480.38,-298 480.38,-328.5"/>
<text text-anchor="start" x="352.38" y="-315" font-family="Helvetica,sans-Serif" font-size="10.00">Slic3r::GUI::AssembleView</text>
<text text-anchor="middle" x="412.38" y="-303.75" font-family="Helvetica,sans-Serif" font-size="10.00">::reload_scene</text>
</a>
</g>
</g>
<!-- Node5&#45;&gt;Node31 -->
<g id="edge22_Node000005_Node000031" class="edge">
<title>Node5&#45;&gt;Node31</title>
<g id="a_edge22_Node000005_Node000031"><a xlink:title=" ">
<path fill="none" stroke="#63b8ff" d="M524.91,-327.6C510.29,-325.72 495.04,-323.76 480.68,-321.91"/>
<polygon fill="#63b8ff" stroke="#63b8ff" points="524.07,-331.15 534.43,-328.96 524.96,-324.21 524.07,-331.15"/>
</a>
</g>
</g>
<!-- Node6&#45;&gt;Node8 -->
<g id="edge7_Node000006_Node000008" class="edge">
<title>Node6&#45;&gt;Node8</title>
<g id="a_edge7_Node000006_Node000008"><a xlink:title=" ">
<path fill="none" stroke="#63b8ff" d="M336.09,-178.15C323.63,-177.31 310.81,-176.44 298.65,-175.61"/>
<polygon fill="#63b8ff" stroke="#63b8ff" points="335.71,-181.7 345.93,-178.88 336.19,-174.72 335.71,-181.7"/>
</a>
</g>
</g>
<!-- Node8&#45;&gt;Node8 -->
<g id="edge9_Node000008_Node000008" class="edge">
<title>Node8&#45;&gt;Node8</title>
<g id="a_edge9_Node000008_Node000008"><a xlink:title=" ">
<path fill="none" stroke="#63b8ff" d="M261.85,-197.88C257.39,-201.83 247.85,-204.5 233.25,-204.5 207.29,-204.5 197.35,-196.06 203.44,-186.99"/>
<polygon fill="#63b8ff" stroke="#63b8ff" points="265.43,-198.31 263.06,-187.99 258.48,-197.54 265.43,-198.31"/>
</a>
</g>
</g>
<!-- Node8&#45;&gt;Node9 -->
<g id="edge8_Node000008_Node000009" class="edge">
<title>Node8&#45;&gt;Node9</title>
<g id="a_edge8_Node000008_Node000009"><a xlink:title=" ">
<path fill="none" stroke="#63b8ff" d="M157.16,-184.8C148.22,-186.41 139.15,-188.05 130.38,-189.63"/>
<polygon fill="#63b8ff" stroke="#63b8ff" points="157.75,-188.07 166.97,-182.85 156.51,-181.18 157.75,-188.07"/>
</a>
</g>
</g>
<!-- Node26&#45;&gt;Node9 -->
<g id="edge13_Node000026_Node000009" class="edge">
<title>Node26&#45;&gt;Node9</title>
<g id="a_edge13_Node000026_Node000009"><a xlink:title=" ">
<path fill="none" stroke="#63b8ff" d="M184.91,-138.4C178.52,-141.29 172.07,-144.29 166,-147.25 141,-159.45 113.2,-174.59 93.27,-185.73"/>
<polygon fill="#63b8ff" stroke="#63b8ff" points="186.15,-141.24 193.86,-133.97 183.3,-134.84 186.15,-141.24"/>
</a>
</g>
</g>
<!-- Node28&#45;&gt;Node9 -->
<g id="edge15_Node000028_Node000009" class="edge">
<title>Node28&#45;&gt;Node9</title>
<g id="a_edge15_Node000028_Node000009"><a xlink:title=" ">
<path fill="none" stroke="#63b8ff" d="M184.36,-82.73C177.96,-86.22 171.67,-90.08 166,-94.25 129.14,-121.38 94.68,-163.26 77.46,-185.73"/>
<polygon fill="#63b8ff" stroke="#63b8ff" points="185.45,-85.59 192.73,-77.9 182.24,-79.37 185.45,-85.59"/>
</a>
</g>
</g>
<!-- Node29&#45;&gt;Node9 -->
<g id="edge18_Node000029_Node000009" class="edge">
<title>Node29&#45;&gt;Node9</title>
<g id="a_edge18_Node000029_Node000009"><a xlink:title=" ">
<path fill="none" stroke="#63b8ff" d="M211.11,-365.35C176.52,-326.23 108.76,-249.6 79.73,-216.78"/>
<polygon fill="#63b8ff" stroke="#63b8ff" points="208.12,-367.37 217.36,-372.54 213.36,-362.73 208.12,-367.37"/>
</a>
</g>
</g>
<!-- Node30&#45;&gt;Node9 -->
<g id="edge20_Node000030_Node000009" class="edge">
<title>Node30&#45;&gt;Node9</title>
<g id="a_edge20_Node000030_Node000009"><a xlink:title=" ">
<path fill="none" stroke="#63b8ff" d="M186.29,-255.2C179.48,-252.21 172.55,-249.16 166,-246.25 144.25,-236.6 119.9,-225.64 100.67,-216.96"/>
<polygon fill="#63b8ff" stroke="#63b8ff" points="184.55,-258.7 195.12,-259.51 187.36,-252.29 184.55,-258.7"/>
</a>
</g>
</g>
<!-- Node33 -->
<g id="Node000033" class="node">
<title>Node33</title>
<g id="a_Node000033"><a xlink:href="../../dd/d8e/struct_my_document.html#aa51e0b8e6c95b7109a507603599c05d9" target="_top" xlink:title=" ">
<polygon fill="white" stroke="#666666" points="677.5,-615.88 524.25,-615.88 524.25,-596.62 677.5,-596.62 677.5,-615.88"/>
<text text-anchor="middle" x="600.88" y="-602.38" font-family="Helvetica,sans-Serif" font-size="10.00">MyDocument::DisplayContents</text>
</a>
</g>
</g>
<!-- Node32&#45;&gt;Node33 -->
<g id="edge24_Node000032_Node000033" class="edge">
<title>Node32&#45;&gt;Node33</title>
<g id="a_edge24_Node000032_Node000033"><a xlink:title=" ">
<path fill="none" stroke="#63b8ff" d="M744.06,-574.67C713.52,-581.45 676.2,-589.74 647.46,-596.13"/>
<polygon fill="#63b8ff" stroke="#63b8ff" points="744.54,-577.93 753.55,-572.34 743.03,-571.1 744.54,-577.93"/>
</a>
</g>
</g>
<!-- Node32&#45;&gt;Node36 -->
<g id="edge27_Node000032_Node000036" class="edge">
<title>Node32&#45;&gt;Node36</title>
<g id="a_edge27_Node000032_Node000036"><a xlink:title=" ">
<path fill="none" stroke="#63b8ff" d="M743.32,-573.1C732.97,-576.42 722.58,-580.71 713.5,-586.25 693.37,-598.54 697.86,-613.33 677.5,-625.25 672.03,-628.45 666.01,-631.09 659.84,-633.25"/>
<polygon fill="#63b8ff" stroke="#63b8ff" points="743.99,-576.26 752.61,-570.1 742.03,-569.54 743.99,-576.26"/>
</a>
</g>
</g>
<!-- Node34 -->
<g id="Node000034" class="node">
<title>Node34</title>
<g id="a_Node000034"><a xlink:href="../../d5/d0a/imgui__demo_8cpp.html#aa9e4f5130b74080ea2d97916a91b3b3c" target="_top" xlink:title=" ">
<polygon fill="white" stroke="#666666" points="485.62,-615.88 339.12,-615.88 339.12,-596.62 485.62,-596.62 485.62,-615.88"/>
<text text-anchor="middle" x="412.38" y="-602.38" font-family="Helvetica,sans-Serif" font-size="10.00">ShowExampleAppDocuments</text>
</a>
</g>
</g>
<!-- Node33&#45;&gt;Node34 -->
<g id="edge25_Node000033_Node000034" class="edge">
<title>Node33&#45;&gt;Node34</title>
<g id="a_edge25_Node000033_Node000034"><a xlink:title=" ">
<path fill="none" stroke="#63b8ff" d="M513.3,-606.25C504.12,-606.25 494.85,-606.25 485.85,-606.25"/>
<polygon fill="#63b8ff" stroke="#63b8ff" points="513.02,-609.75 523.02,-606.25 513.02,-602.75 513.02,-609.75"/>
</a>
</g>
</g>
<!-- Node35 -->
<g id="Node000035" class="node">
<title>Node35</title>
<g id="a_Node000035"><a xlink:href="../../df/d13/namespace_im_gui.html#af95643a0ce4893b9e57c12991922fb18" target="_top" xlink:title=" ">
<polygon fill="white" stroke="#666666" points="300.5,-596.88 166,-596.88 166,-577.62 300.5,-577.62 300.5,-596.88"/>
<text text-anchor="middle" x="233.25" y="-583.38" font-family="Helvetica,sans-Serif" font-size="10.00">ImGui::ShowDemoWindow</text>
</a>
</g>
</g>
<!-- Node34&#45;&gt;Node35 -->
<g id="edge26_Node000034_Node000035" class="edge">
<title>Node34&#45;&gt;Node35</title>
<g id="a_edge26_Node000034_Node000035"><a xlink:title=" ">
<path fill="none" stroke="#63b8ff" d="M328.18,-597.33C319.06,-596.35 309.87,-595.36 301,-594.41"/>
<polygon fill="#63b8ff" stroke="#63b8ff" points="327.5,-600.88 337.82,-598.47 328.25,-593.92 327.5,-600.88"/>
</a>
</g>
</g>
<!-- Node36&#45;&gt;Node35 -->
<g id="edge28_Node000036_Node000035" class="edge">
<title>Node36&#45;&gt;Node35</title>
<g id="a_edge28_Node000036_Node000035"><a xlink:title=" ">
<path fill="none" stroke="#63b8ff" d="M520.5,-643.74C467.79,-642.62 397.36,-638.35 336.5,-625.25 307.62,-619.03 275.97,-606.28 255.65,-597.27"/>
<polygon fill="#63b8ff" stroke="#63b8ff" points="520.4,-647.25 530.46,-643.93 520.53,-640.25 520.4,-647.25"/>
</a>
</g>
</g>
<!-- Node37&#45;&gt;Node3 -->
<g id="edge30_Node000037_Node000003" class="edge">
<title>Node37&#45;&gt;Node3</title>
<g id="a_edge30_Node000037_Node000003"><a xlink:title=" ">
<path fill="none" stroke="#63b8ff" d="M851.67,-375.61C864.57,-378.76 877.83,-383.46 888.5,-391.25 914.24,-410.03 899.04,-434.09 924.5,-453.25 938.76,-463.98 957.26,-469.95 974.19,-472.66"/>
<polygon fill="#63b8ff" stroke="#63b8ff" points="852.5,-371.99 841.98,-373.3 851.02,-378.83 852.5,-371.99"/>
</a>
</g>
</g>
<!-- Node37&#45;&gt;Node36 -->
<g id="edge34_Node000037_Node000036" class="edge">
<title>Node37&#45;&gt;Node36</title>
<g id="a_edge34_Node000037_Node000036"><a xlink:title=" ">
<path fill="none" stroke="#63b8ff" d="M738,-367.26C728.76,-370.39 720.13,-375.14 713.5,-382.25 639.01,-462.07 751.29,-544.78 677.5,-625.25 674.58,-628.43 671.21,-631.1 667.55,-633.33"/>
<polygon fill="#63b8ff" stroke="#63b8ff" points="738.88,-370.37 747.61,-364.37 737.04,-363.62 738.88,-370.37"/>
</a>
</g>
</g>
<!-- Node38 -->
<g id="Node000038" class="node">
<title>Node38</title>
<g id="a_Node000038"><a xlink:href="../../df/d13/namespace_im_gui.html#a2a2a98cb9a17b18702be6b954670b388" target="_top" xlink:title=" ">
<polygon fill="white" stroke="#666666" points="653.12,-303.88 548.62,-303.88 548.62,-284.62 653.12,-284.62 653.12,-303.88"/>
<text text-anchor="middle" x="600.88" y="-290.38" font-family="Helvetica,sans-Serif" font-size="10.00">ImGui::ColorPicker3</text>
</a>
</g>
</g>
<!-- Node37&#45;&gt;Node38 -->
<g id="edge31_Node000037_Node000038" class="edge">
<title>Node37&#45;&gt;Node38</title>
<g id="a_edge31_Node000037_Node000038"><a xlink:title=" ">
<path fill="none" stroke="#63b8ff" d="M768.41,-348.91C743.94,-338.16 709.01,-323.58 677.5,-313.25 667.6,-310 656.81,-306.99 646.56,-304.36"/>
<polygon fill="#63b8ff" stroke="#63b8ff" points="766.66,-352.41 777.22,-353.26 769.5,-346.01 766.66,-352.41"/>
</a>
</g>
</g>
<!-- Node39 -->
<g id="Node000039" class="node">
<title>Node39</title>
<g id="a_Node000039"><a xlink:href="../../df/d13/namespace_im_gui.html#a6d112eeb6d8ffdebbc9d9a8c66babbee" target="_top" xlink:title=" ">
<polygon fill="white" stroke="#666666" points="667.38,-266.5 534.38,-266.5 534.38,-236 667.38,-236 667.38,-266.5"/>
<text text-anchor="start" x="542.38" y="-253" font-family="Helvetica,sans-Serif" font-size="10.00">ImGui::ColorPickerOptions</text>
<text text-anchor="middle" x="600.88" y="-241.75" font-family="Helvetica,sans-Serif" font-size="10.00">Popup</text>
</a>
</g>
</g>
<!-- Node37&#45;&gt;Node39 -->
<g id="edge32_Node000037_Node000039" class="edge">
<title>Node37&#45;&gt;Node39</title>
<g id="a_edge32_Node000037_Node000039"><a xlink:title=" ">
<path fill="none" stroke="#63b8ff" d="M786.15,-345.3C764.4,-323.38 720.27,-287.71 677.5,-266.25 674.3,-264.64 670.97,-263.12 667.57,-261.68"/>
<polygon fill="#63b8ff" stroke="#63b8ff" points="783.19,-347.33 792.58,-352.24 788.31,-342.55 783.19,-347.33"/>
</a>
</g>
</g>
<!-- Node39&#45;&gt;Node37 -->
<g id="edge33_Node000039_Node000037" class="edge">
<title>Node39&#45;&gt;Node37</title>
<g id="a_edge33_Node000039_Node000037"><a xlink:title=" ">
<path fill="none" stroke="#63b8ff" d="M643.12,-270.4C654.55,-274.35 666.75,-278.86 677.5,-284.25 717.29,-304.22 758.25,-336.47 781.28,-353.25"/>
<polygon fill="#63b8ff" stroke="#63b8ff" points="644.51,-266.83 633.91,-266.91 642.24,-273.46 644.51,-266.83"/>
</a>
</g>
</g>
<!-- Node41 -->
<g id="Node000041" class="node">
<title>Node41</title>
<g id="a_Node000041"><a xlink:href="../../df/d70/classigl_1_1opengl_1_1glfw_1_1imgui_1_1_im_gui_menu.html#a07a6c823c741006fe00da39efd60b5e3" target="_top" xlink:title=" ">
<polygon fill="white" stroke="#666666" points="662.12,-139.12 539.62,-139.12 539.62,-97.38 662.12,-97.38 662.12,-139.12"/>
<text text-anchor="start" x="547.62" y="-125.62" font-family="Helvetica,sans-Serif" font-size="10.00">igl::opengl::glfw::</text>
<text text-anchor="start" x="547.62" y="-114.38" font-family="Helvetica,sans-Serif" font-size="10.00">imgui::ImGuiMenu::draw</text>
<text text-anchor="middle" x="600.88" y="-103.12" font-family="Helvetica,sans-Serif" font-size="10.00">_viewer_window</text>
</a>
</g>
</g>
<!-- Node40&#45;&gt;Node41 -->
<g id="edge36_Node000040_Node000041" class="edge">
<title>Node40&#45;&gt;Node41</title>
<g id="a_edge36_Node000040_Node000041"><a xlink:title=" ">
<path fill="none" stroke="#63b8ff" d="M761.58,-232.71C723.52,-205.43 666.04,-164.24 631.42,-139.42"/>
<polygon fill="#63b8ff" stroke="#63b8ff" points="759.17,-236.01 769.34,-238.99 763.25,-230.32 759.17,-236.01"/>
</a>
</g>
</g>
<!-- Node42 -->
<g id="Node000042" class="node">
<title>Node42</title>
<g id="a_Node000042"><a xlink:href="../../df/d70/classigl_1_1opengl_1_1glfw_1_1imgui_1_1_im_gui_menu.html#a36b641e04232aecc23de9095e96ce609" target="_top" xlink:title=" ">
<polygon fill="#fff0f0" stroke="red" points="488.25,-30.5 336.5,-30.5 336.5,0 488.25,0 488.25,-30.5"/>
<text text-anchor="start" x="344.5" y="-17" font-family="Helvetica,sans-Serif" font-size="10.00">igl::opengl::glfw::</text>
<text text-anchor="middle" x="412.38" y="-5.75" font-family="Helvetica,sans-Serif" font-size="10.00">imgui::ImGuiMenu::draw_menu</text>
</a>
</g>
</g>
<!-- Node41&#45;&gt;Node42 -->
<g id="edge37_Node000041_Node000042" class="edge">
<title>Node41&#45;&gt;Node42</title>
<g id="a_edge37_Node000041_Node000042"><a xlink:title=" ">
<path fill="none" stroke="#63b8ff" d="M562.6,-90.6C541.47,-75.69 514.15,-57.65 488.25,-44.25 478.84,-39.38 468.42,-34.85 458.42,-30.88"/>
<polygon fill="#63b8ff" stroke="#63b8ff" points="560.38,-94.02 570.55,-96.99 564.44,-88.33 560.38,-94.02"/>
</a>
</g>
</g>
<!-- Node44&#45;&gt;Node35 -->
<g id="edge39_Node000044_Node000035" class="edge">
<title>Node44&#45;&gt;Node35</title>
<g id="a_edge39_Node000044_Node000035"><a xlink:title=" ">
<path fill="none" stroke="#63b8ff" d="M522.01,-532.82C469.23,-535.67 398.13,-541.66 336.5,-554.25 309.82,-559.7 280.31,-569.67 259.88,-577.23"/>
<polygon fill="#63b8ff" stroke="#63b8ff" points="522.18,-536.27 531.98,-532.26 521.82,-529.28 522.18,-536.27"/>
</a>
</g>
</g>
<!-- Node45&#45;&gt;Node35 -->
<g id="edge42_Node000045_Node000035" class="edge">
<title>Node45&#45;&gt;Node35</title>
<g id="a_edge42_Node000045_Node000035"><a xlink:title=" ">
<path fill="none" stroke="#63b8ff" d="M702.43,-456.74C606.93,-466.26 458.45,-487 336.5,-530.25 302.98,-542.14 267.51,-564.41 248.41,-577.31"/>
<polygon fill="#63b8ff" stroke="#63b8ff" points="702.62,-460.14 712.23,-455.68 701.94,-453.17 702.62,-460.14"/>
</a>
</g>
</g>
<!-- Node46&#45;&gt;Node35 -->
<g id="edge44_Node000046_Node000035" class="edge">
<title>Node46&#45;&gt;Node35</title>
<g id="a_edge44_Node000046_Node000035"><a xlink:title=" ">
<path fill="none" stroke="#63b8ff" d="M740.72,-537.49C715.84,-542.49 689.85,-547.52 677.5,-549.25 544.61,-567.91 387.92,-578.74 300.96,-583.78"/>
<polygon fill="#63b8ff" stroke="#63b8ff" points="741.17,-540.77 750.27,-535.35 739.78,-533.9 741.17,-540.77"/>
</a>
</g>
</g>
<!-- Node47&#45;&gt;Node2 -->
<g id="edge47_Node000047_Node000002" class="edge">
<title>Node47&#45;&gt;Node2</title>
<g id="a_edge47_Node000047_Node000002"><a xlink:title=" ">
<path fill="none" stroke="#63b8ff" d="M1082.49,-512.65C1105.64,-513.2 1131.79,-513.1 1153.83,-512.34"/>
<polygon fill="#63b8ff" stroke="#63b8ff" points="1082.84,-509.13 1072.74,-512.34 1082.63,-516.13 1082.84,-509.13"/>
</a>
</g>
</g>
<!-- Node49&#45;&gt;Node36 -->
<g id="edge55_Node000049_Node000036" class="edge">
<title>Node49&#45;&gt;Node36</title>
<g id="a_edge55_Node000049_Node000036"><a xlink:title=" ">
<path fill="none" stroke="#63b8ff" d="M751.54,-701.98C739.05,-698.5 725.69,-694.49 713.5,-690.25 681.52,-679.13 645.62,-663.41 623.37,-653.27"/>
<polygon fill="#63b8ff" stroke="#63b8ff" points="750.21,-705.52 760.78,-704.77 752.05,-698.76 750.21,-705.52"/>
</a>
</g>
</g>
<!-- Node50 -->
<g id="Node000050" class="node">
<title>Node50</title>
<g id="a_Node000050"><a xlink:href="../../d5/d0a/imgui__demo_8cpp.html#ac209de20c1f862aa48a3f5f27aee407e" target="_top" xlink:title=" ">
<polygon fill="white" stroke="#666666" points="666.62,-705.88 535.12,-705.88 535.12,-686.62 666.62,-686.62 666.62,-705.88"/>
<text text-anchor="middle" x="600.88" y="-692.38" font-family="Helvetica,sans-Serif" font-size="10.00">ShowDemoWindowLayout</text>
</a>
</g>
</g>
<!-- Node49&#45;&gt;Node50 -->
<g id="edge53_Node000049_Node000050" class="edge">
<title>Node49&#45;&gt;Node50</title>
<g id="a_edge53_Node000049_Node000050"><a xlink:title=" ">
<path fill="none" stroke="#63b8ff" d="M750.95,-709.79C725.57,-707.49 694.24,-704.64 666.87,-702.15"/>
<polygon fill="#63b8ff" stroke="#63b8ff" points="750.52,-713.36 760.8,-710.78 751.16,-706.39 750.52,-713.36"/>
</a>
</g>
</g>
<!-- Node50&#45;&gt;Node35 -->
<g id="edge54_Node000050_Node000035" class="edge">
<title>Node50&#45;&gt;Node35</title>
<g id="a_edge54_Node000050_Node000035"><a xlink:title=" ">
<path fill="none" stroke="#63b8ff" d="M524.07,-689.19C470.41,-682.52 397.44,-670 336.5,-647.25 302.37,-634.51 266.56,-610.7 247.7,-597.22"/>
<polygon fill="#63b8ff" stroke="#63b8ff" points="523.53,-692.77 533.88,-690.49 524.36,-685.82 523.53,-692.77"/>
</a>
</g>
</g>
</g>
</svg>
