<?xml version="1.0" encoding="UTF-8" standalone="no"?>
<!DOCTYPE svg PUBLIC "-//W3C//DTD SVG 1.1//EN"
 "http://www.w3.org/Graphics/SVG/1.1/DTD/svg11.dtd">
<!-- Generated by graphviz version 8.1.0 (20230707.0739)
 -->
<!-- Title: Slic3r::GUI::OptionsGroup::on_change_OG Pages: 1 -->
<!--zoomable 240 -->

<svg id="main" version="1.1" xmlns="http://www.w3.org/2000/svg" xmlns:xlink="http://www.w3.org/1999/xlink" xml:space="preserve" onload="init(evt)">
<style type="text/css"><![CDATA[
.node, .edge {opacity: 0.7;}
.node.selected, .edge.selected {opacity: 1;}
.edge:hover path { stroke: red; }
.edge:hover polygon { stroke: red; fill: red; }
]]></style>

<defs>
  <circle id="rim" cx="0" cy="0" r="7"/>
  <circle id="rim2" cx="0" cy="0" r="3.5"/>
  <g id="zoomPlus">
    <use xlink:href="#rim" fill="#404040"><set attributeName="fill" to="#808080" begin="zoomplus.mouseover" end="zoomplus.mouseout"/></use>
    <path d="M-4,0h8M0,-4v8" fill="none" stroke="white" stroke-width="1.5" pointer-events="none"/>
  </g>
  <g id="zoomMin">
    <use xlink:href="#rim" fill="#404040"><set attributeName="fill" to="#808080" begin="zoomminus.mouseover" end="zoomminus.mouseout"/></use>
    <path d="M-4,0h8" fill="none" stroke="white" stroke-width="1.5" pointer-events="none"/>
  </g>
  <g id="arrowUp" transform="translate(30 24)">
    <use xlink:href="#rim"/>
    <path pointer-events="none" fill="none" stroke="white" stroke-width="1.5" d="M0,-3.0v7 M-2.5,-0.5L0,-3.0L2.5,-0.5"/>
  </g>
  <g id="arrowRight" transform="rotate(90) translate(36 -43)">
    <use xlink:href="#rim"/>
    <path pointer-events="none" fill="none" stroke="white" stroke-width="1.5" d="M0,-3.0v7 M-2.5,-0.5L0,-3.0L2.5,-0.5"/>
  </g>
  <g id="arrowDown" transform="rotate(180) translate(-30 -48)">
    <use xlink:href="#rim"/>
    <path pointer-events="none" fill="none" stroke="white" stroke-width="1.5" d="M0,-3.0v7 M-2.5,-0.5L0,-3.0L2.5,-0.5"/>
  </g>
  <g id="arrowLeft" transform="rotate(270) translate(-36 17)">
    <use xlink:href="#rim"/>
    <path pointer-events="none" fill="none" stroke="white" stroke-width="1.5" d="M0,-3.0v7 M-2.5,-0.5L0,-3.0L2.5,-0.5"/>
  </g>
  <g id="resetDef">
    <use xlink:href="#rim2" fill="#404040"><set attributeName="fill" to="#808080" begin="reset.mouseover" end="reset.mouseout"/></use>
  </g>
</defs>
<script type="application/ecmascript">
var viewWidth = 1022;
var viewHeight = 240;
var sectionId = 'dynsection-34';
</script>
<script type="application/ecmascript" xlink:href="../../svg.min.js"/>
<svg id="graph" class="graph">
<g id="viewport">
<title>Slic3r::GUI::OptionsGroup::on_change_OG</title>
<!-- Node1 -->
<g id="Node000001" class="node">
<title>Node1</title>
<g id="a_Node000001"><a xlink:title=" ">
<polygon fill="#999999" stroke="#666666" points="1014,-79.5 883.25,-79.5 883.25,-49 1014,-49 1014,-79.5"/>
<text text-anchor="start" x="891.25" y="-66" font-family="Helvetica,sans-Serif" font-size="10.00">Slic3r::GUI::OptionsGroup</text>
<text text-anchor="middle" x="948.62" y="-54.75" font-family="Helvetica,sans-Serif" font-size="10.00">::on_change_OG</text>
</a>
</g>
</g>
<!-- Node2 -->
<g id="Node000002" class="node">
<title>Node2</title>
<g id="a_Node000002"><a xlink:href="../../db/dac/class_slic3r_1_1_g_u_i_1_1_options_group.html#a51cb81d9c7b200a81fa028886b605adf" target="_top" xlink:title="Generate a wxSizer or wxWindow from a configuration option Precondition: opt resolves to a known Conf...">
<polygon fill="white" stroke="#666666" points="842,-152.5 711.25,-152.5 711.25,-122 842,-122 842,-152.5"/>
<text text-anchor="start" x="719.25" y="-139" font-family="Helvetica,sans-Serif" font-size="10.00">Slic3r::GUI::OptionsGroup</text>
<text text-anchor="middle" x="776.62" y="-127.75" font-family="Helvetica,sans-Serif" font-size="10.00">::build_field</text>
</a>
</g>
</g>
<!-- Node1&#45;&gt;Node2 -->
<g id="edge1_Node000001_Node000002" class="edge">
<title>Node1&#45;&gt;Node2</title>
<g id="a_edge1_Node000001_Node000002"><a xlink:title=" ">
<path fill="none" stroke="#63b8ff" d="M901.38,-84.11C873.91,-95.91 839.57,-110.65 814.03,-121.62"/>
<polygon fill="#63b8ff" stroke="#63b8ff" points="902.35,-87.07 910.16,-79.91 899.59,-80.64 902.35,-87.07"/>
</a>
</g>
</g>
<!-- Node9 -->
<g id="Node000009" class="node">
<title>Node9</title>
<g id="a_Node000009"><a xlink:href="../../d9/da7/class_slic3r_1_1_g_u_i_1_1_config_options_group.html#a2812a18b1ad0f432996c4dee17c98b74" target="_top" xlink:title=" ">
<polygon fill="white" stroke="#666666" points="843.12,-79.5 710.12,-79.5 710.12,-49 843.12,-49 843.12,-79.5"/>
<text text-anchor="start" x="718.12" y="-66" font-family="Helvetica,sans-Serif" font-size="10.00">Slic3r::GUI::ConfigOptions</text>
<text text-anchor="middle" x="776.62" y="-54.75" font-family="Helvetica,sans-Serif" font-size="10.00">Group::on_change_OG</text>
</a>
</g>
</g>
<!-- Node1&#45;&gt;Node9 -->
<g id="edge8_Node000001_Node000009" class="edge">
<title>Node1&#45;&gt;Node9</title>
<g id="a_edge8_Node000001_Node000009"><a xlink:title=" ">
<path fill="none" stroke="#63b8ff" d="M871.9,-64.25C862.46,-64.25 852.88,-64.25 843.61,-64.25"/>
<polygon fill="#63b8ff" stroke="#63b8ff" points="871.87,-67.75 881.87,-64.25 871.87,-60.75 871.87,-67.75"/>
</a>
</g>
</g>
<!-- Node13 -->
<g id="Node000013" class="node">
<title>Node13</title>
<g id="a_Node000013"><a xlink:href="../../d4/df0/class_slic3r_1_1_g_u_i_1_1_extruder_options_group.html#a3ec08dd1bf0ca649fd1903b25fcdac46" target="_top" xlink:title=" ">
<polygon fill="white" stroke="#666666" points="847.25,-30.5 706,-30.5 706,0 847.25,0 847.25,-30.5"/>
<text text-anchor="start" x="714" y="-17" font-family="Helvetica,sans-Serif" font-size="10.00">Slic3r::GUI::ExtruderOptions</text>
<text text-anchor="middle" x="776.62" y="-5.75" font-family="Helvetica,sans-Serif" font-size="10.00">Group::on_change_OG</text>
</a>
</g>
</g>
<!-- Node1&#45;&gt;Node13 -->
<g id="edge12_Node000001_Node000013" class="edge">
<title>Node1&#45;&gt;Node13</title>
<g id="a_edge12_Node000001_Node000013"><a xlink:title=" ">
<path fill="none" stroke="#63b8ff" d="M883.1,-45.65C866.34,-40.82 848.44,-35.66 832.24,-30.99"/>
<polygon fill="#63b8ff" stroke="#63b8ff" points="881.79,-49.2 892.37,-48.61 883.73,-42.48 881.79,-49.2"/>
</a>
</g>
</g>
<!-- Node3 -->
<g id="Node000003" class="node">
<title>Node3</title>
<g id="a_Node000003"><a xlink:href="../../db/dac/class_slic3r_1_1_g_u_i_1_1_options_group.html#aff5bcef7075da0ef6b1be9f972482c5a" target="_top" xlink:title=" ">
<polygon fill="white" stroke="#666666" points="664,-226.5 533.25,-226.5 533.25,-196 664,-196 664,-226.5"/>
<text text-anchor="start" x="541.25" y="-213" font-family="Helvetica,sans-Serif" font-size="10.00">Slic3r::GUI::OptionsGroup</text>
<text text-anchor="middle" x="598.62" y="-201.75" font-family="Helvetica,sans-Serif" font-size="10.00">::activate_line</text>
</a>
</g>
</g>
<!-- Node2&#45;&gt;Node3 -->
<g id="edge2_Node000002_Node000003" class="edge">
<title>Node2&#45;&gt;Node3</title>
<g id="a_edge2_Node000002_Node000003"><a xlink:title=" ">
<path fill="none" stroke="#63b8ff" d="M734.36,-157.48C715,-166.68 691.51,-177.46 670,-186.25 662.2,-189.44 653.82,-192.62 645.66,-195.59"/>
<polygon fill="#63b8ff" stroke="#63b8ff" points="735.57,-160.3 743.07,-152.83 732.54,-153.99 735.57,-160.3"/>
</a>
</g>
</g>
<!-- Node7 -->
<g id="Node000007" class="node">
<title>Node7</title>
<g id="a_Node000007"><a xlink:href="../../db/dac/class_slic3r_1_1_g_u_i_1_1_options_group.html#a61e3c809016d843b223e922776e2735c" target="_top" xlink:title=" ">
<polygon fill="white" stroke="#666666" points="664,-177.5 533.25,-177.5 533.25,-147 664,-147 664,-177.5"/>
<text text-anchor="start" x="541.25" y="-164" font-family="Helvetica,sans-Serif" font-size="10.00">Slic3r::GUI::OptionsGroup</text>
<text text-anchor="middle" x="598.62" y="-152.75" font-family="Helvetica,sans-Serif" font-size="10.00">::build_field</text>
</a>
</g>
</g>
<!-- Node2&#45;&gt;Node7 -->
<g id="edge6_Node000002_Node000007" class="edge">
<title>Node2&#45;&gt;Node7</title>
<g id="a_edge6_Node000002_Node000007"><a xlink:title=" ">
<path fill="none" stroke="#63b8ff" d="M700.26,-147.96C688.34,-149.65 676.1,-151.39 664.45,-153.04"/>
<polygon fill="#63b8ff" stroke="#63b8ff" points="700.68,-151.29 710.09,-146.42 699.7,-144.36 700.68,-151.29"/>
</a>
</g>
</g>
<!-- Node8 -->
<g id="Node000008" class="node">
<title>Node8</title>
<g id="a_Node000008"><a xlink:href="../../db/dac/class_slic3r_1_1_g_u_i_1_1_options_group.html#a43406097217913a923b34de0df9b21a2" target="_top" xlink:title=" ">
<polygon fill="white" stroke="#666666" points="664,-128.5 533.25,-128.5 533.25,-98 664,-98 664,-128.5"/>
<text text-anchor="start" x="541.25" y="-115" font-family="Helvetica,sans-Serif" font-size="10.00">Slic3r::GUI::OptionsGroup</text>
<text text-anchor="middle" x="598.62" y="-103.75" font-family="Helvetica,sans-Serif" font-size="10.00">::build_field</text>
</a>
</g>
</g>
<!-- Node2&#45;&gt;Node8 -->
<g id="edge7_Node000002_Node000008" class="edge">
<title>Node2&#45;&gt;Node8</title>
<g id="a_edge7_Node000002_Node000008"><a xlink:title=" ">
<path fill="none" stroke="#63b8ff" d="M700.26,-126.97C688.34,-125.35 676.1,-123.68 664.45,-122.09"/>
<polygon fill="#63b8ff" stroke="#63b8ff" points="699.71,-130.57 710.09,-128.45 700.65,-123.63 699.71,-130.57"/>
</a>
</g>
</g>
<!-- Node4 -->
<g id="Node000004" class="node">
<title>Node4</title>
<g id="a_Node000004"><a xlink:href="../../db/dac/class_slic3r_1_1_g_u_i_1_1_options_group.html#a8ceb15f155e254285bb4223d621eb347" target="_top" xlink:title=" ">
<polygon fill="white" stroke="#666666" points="487.12,-226.5 356.38,-226.5 356.38,-196 487.12,-196 487.12,-226.5"/>
<text text-anchor="start" x="364.38" y="-213" font-family="Helvetica,sans-Serif" font-size="10.00">Slic3r::GUI::OptionsGroup</text>
<text text-anchor="middle" x="421.75" y="-201.75" font-family="Helvetica,sans-Serif" font-size="10.00">::activate</text>
</a>
</g>
</g>
<!-- Node3&#45;&gt;Node4 -->
<g id="edge3_Node000003_Node000004" class="edge">
<title>Node3&#45;&gt;Node4</title>
<g id="a_edge3_Node000003_Node000004"><a xlink:title=" ">
<path fill="none" stroke="#63b8ff" d="M522.05,-211.25C510.5,-211.25 498.68,-211.25 487.4,-211.25"/>
<polygon fill="#63b8ff" stroke="#63b8ff" points="522,-214.75 532,-211.25 522,-207.75 522,-214.75"/>
</a>
</g>
</g>
<!-- Node5 -->
<g id="Node000005" class="node">
<title>Node5</title>
<g id="a_Node000005"><a xlink:href="../../d3/db0/class_slic3r_1_1_g_u_i_1_1_physical_printer_dialog.html#a7d9a781ad40c2c15dcaaac6c660442aa" target="_top" xlink:title=" ">
<polygon fill="white" stroke="#666666" points="316.25,-232.12 179.5,-232.12 179.5,-190.38 316.25,-190.38 316.25,-232.12"/>
<text text-anchor="start" x="187.5" y="-218.62" font-family="Helvetica,sans-Serif" font-size="10.00">Slic3r::GUI::PhysicalPrinter</text>
<text text-anchor="start" x="187.5" y="-207.38" font-family="Helvetica,sans-Serif" font-size="10.00">Dialog::build_printhost</text>
<text text-anchor="middle" x="247.88" y="-196.12" font-family="Helvetica,sans-Serif" font-size="10.00">_settings</text>
</a>
</g>
</g>
<!-- Node4&#45;&gt;Node5 -->
<g id="edge4_Node000004_Node000005" class="edge">
<title>Node4&#45;&gt;Node5</title>
<g id="a_edge4_Node000004_Node000005"><a xlink:title=" ">
<path fill="none" stroke="#63b8ff" d="M345.5,-211.25C335.89,-211.25 326.09,-211.25 316.6,-211.25"/>
<polygon fill="#63b8ff" stroke="#63b8ff" points="345.26,-214.75 355.26,-211.25 345.26,-207.75 345.26,-214.75"/>
</a>
</g>
</g>
<!-- Node6 -->
<g id="Node000006" class="node">
<title>Node6</title>
<g id="a_Node000006"><a xlink:href="../../d3/db0/class_slic3r_1_1_g_u_i_1_1_physical_printer_dialog.html#a1346bc6c91f86549b521274ba0d3d55c" target="_top" xlink:title=" ">
<polygon fill="white" stroke="#666666" points="143.5,-226.5 0,-226.5 0,-196 143.5,-196 143.5,-226.5"/>
<text text-anchor="start" x="8" y="-213" font-family="Helvetica,sans-Serif" font-size="10.00">Slic3r::GUI::PhysicalPrinter</text>
<text text-anchor="middle" x="71.75" y="-201.75" font-family="Helvetica,sans-Serif" font-size="10.00">Dialog::PhysicalPrinterDialog</text>
</a>
</g>
</g>
<!-- Node5&#45;&gt;Node6 -->
<g id="edge5_Node000005_Node000006" class="edge">
<title>Node5&#45;&gt;Node6</title>
<g id="a_edge5_Node000005_Node000006"><a xlink:title=" ">
<path fill="none" stroke="#63b8ff" d="M168.11,-211.25C160.02,-211.25 151.83,-211.25 143.83,-211.25"/>
<polygon fill="#63b8ff" stroke="#63b8ff" points="168.06,-214.75 178.06,-211.25 168.06,-207.75 168.06,-214.75"/>
</a>
</g>
</g>
<!-- Node10 -->
<g id="Node000010" class="node">
<title>Node10</title>
<g id="a_Node000010"><a xlink:href="../../d9/da7/class_slic3r_1_1_g_u_i_1_1_config_options_group.html#a46246284d2ff809d58980b2ca7c63050" target="_top" xlink:title=" ">
<polygon fill="white" stroke="#666666" points="670,-79.5 527.25,-79.5 527.25,-49 670,-49 670,-79.5"/>
<text text-anchor="start" x="535.25" y="-66" font-family="Helvetica,sans-Serif" font-size="10.00">Slic3r::GUI::ConfigOptions</text>
<text text-anchor="middle" x="598.62" y="-54.75" font-family="Helvetica,sans-Serif" font-size="10.00">Group::back_to_config_value</text>
</a>
</g>
</g>
<!-- Node9&#45;&gt;Node10 -->
<g id="edge9_Node000009_Node000010" class="edge">
<title>Node9&#45;&gt;Node10</title>
<g id="a_edge9_Node000009_Node000010"><a xlink:title=" ">
<path fill="none" stroke="#63b8ff" d="M699.14,-64.25C689.57,-64.25 679.82,-64.25 670.34,-64.25"/>
<polygon fill="#63b8ff" stroke="#63b8ff" points="698.84,-67.75 708.84,-64.25 698.84,-60.75 698.84,-67.75"/>
</a>
</g>
</g>
<!-- Node11 -->
<g id="Node000011" class="node">
<title>Node11</title>
<g id="a_Node000011"><a xlink:href="../../d9/da7/class_slic3r_1_1_g_u_i_1_1_config_options_group.html#aa38ebee4de1e52e4203e89ed0885cb3a" target="_top" xlink:title=" ">
<polygon fill="white" stroke="#666666" points="491.25,-104.5 352.25,-104.5 352.25,-74 491.25,-74 491.25,-104.5"/>
<text text-anchor="start" x="360.25" y="-91" font-family="Helvetica,sans-Serif" font-size="10.00">Slic3r::GUI::ConfigOptions</text>
<text text-anchor="middle" x="421.75" y="-79.75" font-family="Helvetica,sans-Serif" font-size="10.00">Group::back_to_initial_value</text>
</a>
</g>
</g>
<!-- Node10&#45;&gt;Node11 -->
<g id="edge10_Node000010_Node000011" class="edge">
<title>Node10&#45;&gt;Node11</title>
<g id="a_edge10_Node000010_Node000011"><a xlink:title=" ">
<path fill="none" stroke="#63b8ff" d="M516.25,-75.88C508.03,-77.06 499.73,-78.25 491.65,-79.4"/>
<polygon fill="#63b8ff" stroke="#63b8ff" points="516.6,-79.23 526,-74.35 515.61,-72.3 516.6,-79.23"/>
</a>
</g>
</g>
<!-- Node12 -->
<g id="Node000012" class="node">
<title>Node12</title>
<g id="a_Node000012"><a xlink:href="../../d9/da7/class_slic3r_1_1_g_u_i_1_1_config_options_group.html#a9389718767fdb2ea3c14c22c43998115" target="_top" xlink:title=" ">
<polygon fill="white" stroke="#666666" points="488.25,-55.5 355.25,-55.5 355.25,-25 488.25,-25 488.25,-55.5"/>
<text text-anchor="start" x="363.25" y="-42" font-family="Helvetica,sans-Serif" font-size="10.00">Slic3r::GUI::ConfigOptions</text>
<text text-anchor="middle" x="421.75" y="-30.75" font-family="Helvetica,sans-Serif" font-size="10.00">Group::back_to_sys_value</text>
</a>
</g>
</g>
<!-- Node10&#45;&gt;Node12 -->
<g id="edge11_Node000010_Node000012" class="edge">
<title>Node10&#45;&gt;Node12</title>
<g id="a_edge11_Node000010_Node000012"><a xlink:title=" ">
<path fill="none" stroke="#63b8ff" d="M516.19,-53.07C506.93,-51.8 497.57,-50.52 488.55,-49.28"/>
<polygon fill="#63b8ff" stroke="#63b8ff" points="515.62,-56.67 526,-54.56 516.57,-49.73 515.62,-56.67"/>
</a>
</g>
</g>
</g>
</svg>

<g id="navigator" transform="translate(0 0)" fill="#404254">
  <rect fill="#f2f5e9" fill-opacity="0.5" stroke="#606060" stroke-width=".5" x="0" y="0" width="60" height="60"/>
  <use id="zoomplus" xlink:href="#zoomPlus" x="17" y="9" onmousedown="handleZoom(evt,'in')"/>
  <use id="zoomminus" xlink:href="#zoomMin" x="42" y="9" onmousedown="handleZoom(evt,'out')"/>
  <use id="reset" xlink:href="#resetDef" x="30" y="36" onmousedown="handleReset()"/>
   <use id="arrowup" xlink:href="#arrowUp" x="0" y="0" onmousedown="handlePan(0,-1)"/>
  <use id="arrowright" xlink:href="#arrowRight" x="0" y="0" onmousedown="handlePan(1,0)"/>
  <use id="arrowdown" xlink:href="#arrowDown" x="0" y="0" onmousedown="handlePan(0,1)"/>
  <use id="arrowleft" xlink:href="#arrowLeft" x="0" y="0" onmousedown="handlePan(-1,0)"/>
</g>
<svg viewBox="0 0 15 15" width="100%" height="30px" preserveAspectRatio="xMaxYMin meet">
 <g id="arrow_out" transform="scale(0.3 0.3)">
  <a xlink:href="class_slic3r_1_1_g_u_i_1_1_options_group_a1f0a272c0e183fab0024c32da7150738_icgraph_org.svg" target="_base">
   <rect id="button" ry="5" rx="5" y="6" x="6" height="38" width="38"
        fill="#f2f5e9" fill-opacity="0.5" stroke="#606060" stroke-width="1.0"/>
   <path id="arrow"
     d="M 11.500037,31.436501 C 11.940474,20.09759 22.043105,11.32322 32.158766,21.979434 L 37.068811,17.246167 C 37.068811,17.246167 37.088388,32 37.088388,32 L 22.160133,31.978069 C 22.160133,31.978069 26.997745,27.140456 26.997745,27.140456 C 18.528582,18.264221 13.291696,25.230495 11.500037,31.436501 z"
     style="fill:#404040;"/>
  </a>
 </g>
</svg>

<style type='text/css'>
<![CDATA[
[data-mouse-over-selected='false'] { opacity: 0.7; }
[data-mouse-over-selected='true']  { opacity: 1.0; }
]]>
</style>
<script type="application/ecmascript"><![CDATA[
document.addEventListener('DOMContentLoaded', (event) => {
  highlightEdges();
  highlightAdjacentNodes();
});
]]></script>
</svg>
