<?xml version="1.0" encoding="UTF-8" standalone="no"?>
<!DOCTYPE svg PUBLIC "-//W3C//DTD SVG 1.1//EN"
 "http://www.w3.org/Graphics/SVG/1.1/DTD/svg11.dtd">
<!-- Generated by graphviz version 8.1.0 (20230707.0739)
 -->
<!-- Title: __gl_renderMesh Pages: 1 -->
<svg width="494pt" height="138pt"
 viewBox="0.00 0.00 494.25 138.25" xmlns="http://www.w3.org/2000/svg" xmlns:xlink="http://www.w3.org/1999/xlink">
<g id="graph0" class="graph" transform="scale(1 1) rotate(0) translate(4 134.25)">
<title>__gl_renderMesh</title>
<!-- Node1 -->
<g id="Node000001" class="node">
<title>Node1</title>
<g id="a_Node000001"><a xlink:title=" ">
<polygon fill="#999999" stroke="#666666" points="90.25,-92.25 0,-92.25 0,-73 90.25,-73 90.25,-92.25"/>
<text text-anchor="middle" x="45.12" y="-78.75" font-family="Helvetica,sans-Serif" font-size="10.00">__gl_renderMesh</text>
</a>
</g>
</g>
<!-- Node2 -->
<g id="Node000002" class="node">
<title>Node2</title>
<g id="a_Node000002"><a xlink:href="../../dc/dcf/render_8c.html#a8b2f686e93a93cbc67ca90cff776787b" target="_top" xlink:title=" ">
<polygon fill="white" stroke="#666666" points="253.25,-111.25 137.5,-111.25 137.5,-92 253.25,-92 253.25,-111.25"/>
<text text-anchor="middle" x="195.38" y="-97.75" font-family="Helvetica,sans-Serif" font-size="10.00">RenderLonelyTriangles</text>
</a>
</g>
</g>
<!-- Node1&#45;&gt;Node2 -->
<g id="edge1_Node000001_Node000002" class="edge">
<title>Node1&#45;&gt;Node2</title>
<g id="a_edge1_Node000001_Node000002"><a xlink:title=" ">
<path fill="none" stroke="#63b8ff" d="M90.6,-88.33C101.89,-89.77 114.26,-91.36 126.42,-92.92"/>
<polygon fill="#63b8ff" stroke="#63b8ff" points="125.64,-96.47 136.01,-94.27 126.53,-89.53 125.64,-96.47"/>
</a>
</g>
</g>
<!-- Node3 -->
<g id="Node000003" class="node">
<title>Node3</title>
<g id="a_Node000003"><a xlink:href="../../dc/dcf/render_8c.html#a508ed7308f1c3e2641162471cd78936b" target="_top" xlink:title=" ">
<polygon fill="white" stroke="#666666" points="264.5,-74.25 126.25,-74.25 126.25,-55 264.5,-55 264.5,-74.25"/>
<text text-anchor="middle" x="195.38" y="-60.75" font-family="Helvetica,sans-Serif" font-size="10.00">RenderMaximumFaceGroup</text>
</a>
</g>
</g>
<!-- Node1&#45;&gt;Node3 -->
<g id="edge2_Node000001_Node000003" class="edge">
<title>Node1&#45;&gt;Node3</title>
<g id="a_edge2_Node000001_Node000003"><a xlink:title=" ">
<path fill="none" stroke="#63b8ff" d="M90.6,-77.22C98.4,-76.28 106.72,-75.27 115.13,-74.25"/>
<polygon fill="#63b8ff" stroke="#63b8ff" points="115.29,-77.63 124.79,-72.95 114.44,-70.68 115.29,-77.63"/>
</a>
</g>
</g>
<!-- Node4 -->
<g id="Node000004" class="node">
<title>Node4</title>
<g id="a_Node000004"><a xlink:href="../../df/db1/math_8h.html#a5083c48fbfb60dd70808789479f4db53" target="_top" xlink:title=" ">
<polygon fill="white" stroke="#666666" points="358.88,-130.25 324.12,-130.25 324.12,-111 358.88,-111 358.88,-130.25"/>
<text text-anchor="middle" x="341.5" y="-116.75" font-family="Helvetica,sans-Serif" font-size="10.00">max</text>
</a>
</g>
</g>
<!-- Node3&#45;&gt;Node4 -->
<g id="edge3_Node000003_Node000004" class="edge">
<title>Node3&#45;&gt;Node4</title>
<g id="a_edge3_Node000003_Node000004"><a xlink:title=" ">
<path fill="none" stroke="#63b8ff" d="M240.87,-74.67C248.85,-76.95 257.01,-79.61 264.5,-82.62 281.48,-89.46 284.14,-94.42 300.5,-102.62 304.91,-104.84 309.64,-107.08 314.26,-109.2"/>
<polygon fill="#63b8ff" stroke="#63b8ff" points="312.45,-112.67 323.01,-113.58 315.32,-106.29 312.45,-112.67"/>
</a>
</g>
</g>
<!-- Node5 -->
<g id="Node000005" class="node">
<title>Node5</title>
<g id="a_Node000005"><a xlink:href="../../dc/dcf/render_8c.html#a1f8ecf47812c47e9150db500626940d8" target="_top" xlink:title=" ">
<polygon fill="white" stroke="#666666" points="379.12,-93.25 303.88,-93.25 303.88,-74 379.12,-74 379.12,-93.25"/>
<text text-anchor="middle" x="341.5" y="-79.75" font-family="Helvetica,sans-Serif" font-size="10.00">MaximumFan</text>
</a>
</g>
</g>
<!-- Node3&#45;&gt;Node5 -->
<g id="edge4_Node000003_Node000005" class="edge">
<title>Node3&#45;&gt;Node5</title>
<g id="a_edge4_Node000003_Node000005"><a xlink:title=" ">
<path fill="none" stroke="#63b8ff" d="M264.64,-73.62C274.16,-74.88 283.76,-76.15 292.79,-77.34"/>
<polygon fill="#63b8ff" stroke="#63b8ff" points="292.1,-80.91 302.47,-78.74 293.02,-73.97 292.1,-80.91"/>
</a>
</g>
</g>
<!-- Node7 -->
<g id="Node000007" class="node">
<title>Node7</title>
<g id="a_Node000007"><a xlink:href="../../dc/dcf/render_8c.html#a5b65fc732168efcd06a9dd2848924964" target="_top" xlink:title=" ">
<polygon fill="white" stroke="#666666" points="381,-56.25 302,-56.25 302,-37 381,-37 381,-56.25"/>
<text text-anchor="middle" x="341.5" y="-42.75" font-family="Helvetica,sans-Serif" font-size="10.00">MaximumStrip</text>
</a>
</g>
</g>
<!-- Node3&#45;&gt;Node7 -->
<g id="edge6_Node000003_Node000007" class="edge">
<title>Node3&#45;&gt;Node7</title>
<g id="a_edge6_Node000003_Node000007"><a xlink:title=" ">
<path fill="none" stroke="#63b8ff" d="M264.64,-56.1C273.44,-55 282.32,-53.89 290.75,-52.84"/>
<polygon fill="#63b8ff" stroke="#63b8ff" points="291.03,-56.21 300.52,-51.49 290.16,-49.26 291.03,-56.21"/>
</a>
</g>
</g>
<!-- Node9 -->
<g id="Node000009" class="node">
<title>Node9</title>
<g id="a_Node000009"><a xlink:href="../../dc/dcf/render_8c.html#a91334149cb368c362ada942f14d6a18c" target="_top" xlink:title=" ">
<polygon fill="white" stroke="#666666" points="382.5,-19.25 300.5,-19.25 300.5,0 382.5,0 382.5,-19.25"/>
<text text-anchor="middle" x="341.5" y="-5.75" font-family="Helvetica,sans-Serif" font-size="10.00">RenderTriangle</text>
</a>
</g>
</g>
<!-- Node3&#45;&gt;Node9 -->
<g id="edge8_Node000003_Node000009" class="edge">
<title>Node3&#45;&gt;Node9</title>
<g id="a_edge8_Node000003_Node000009"><a xlink:title=" ">
<path fill="none" stroke="#63b8ff" d="M222.81,-54.54C245.67,-45.82 278.92,-33.12 304.26,-23.45"/>
<polygon fill="#63b8ff" stroke="#63b8ff" points="305.14,-26.48 313.23,-19.65 302.64,-19.94 305.14,-26.48"/>
</a>
</g>
</g>
<!-- Node6 -->
<g id="Node000006" class="node">
<title>Node6</title>
<g id="a_Node000006"><a xlink:href="../../dc/dcf/render_8c.html#ae5a33593468e431955456373168d5d17" target="_top" xlink:title=" ">
<polygon fill="white" stroke="#666666" points="484.38,-93.25 420.38,-93.25 420.38,-74 484.38,-74 484.38,-93.25"/>
<text text-anchor="middle" x="452.38" y="-79.75" font-family="Helvetica,sans-Serif" font-size="10.00">RenderFan</text>
</a>
</g>
</g>
<!-- Node5&#45;&gt;Node6 -->
<g id="edge5_Node000005_Node000006" class="edge">
<title>Node5&#45;&gt;Node6</title>
<g id="a_edge5_Node000005_Node000006"><a xlink:title=" ">
<path fill="none" stroke="#63b8ff" d="M379.36,-83.62C388.95,-83.62 399.36,-83.62 409.2,-83.62"/>
<polygon fill="#63b8ff" stroke="#63b8ff" points="409,-87.13 419,-83.62 409,-80.13 409,-87.13"/>
</a>
</g>
</g>
<!-- Node8 -->
<g id="Node000008" class="node">
<title>Node8</title>
<g id="a_Node000008"><a xlink:href="../../dc/dcf/render_8c.html#a2c97f713952105012cbdff5f71d05a1a" target="_top" xlink:title=" ">
<polygon fill="white" stroke="#666666" points="486.25,-56.25 418.5,-56.25 418.5,-37 486.25,-37 486.25,-56.25"/>
<text text-anchor="middle" x="452.38" y="-42.75" font-family="Helvetica,sans-Serif" font-size="10.00">RenderStrip</text>
</a>
</g>
</g>
<!-- Node7&#45;&gt;Node8 -->
<g id="edge7_Node000007_Node000008" class="edge">
<title>Node7&#45;&gt;Node8</title>
<g id="a_edge7_Node000007_Node000008"><a xlink:title=" ">
<path fill="none" stroke="#63b8ff" d="M381.5,-46.62C389.81,-46.62 398.65,-46.62 407.15,-46.62"/>
<polygon fill="#63b8ff" stroke="#63b8ff" points="407.05,-50.13 417.05,-46.62 407.05,-43.13 407.05,-50.13"/>
</a>
</g>
</g>
</g>
</svg>
