<?xml version="1.0" encoding="UTF-8" standalone="no"?>
<!DOCTYPE svg PUBLIC "-//W3C//DTD SVG 1.1//EN"
 "http://www.w3.org/Graphics/SVG/1.1/DTD/svg11.dtd">
<!-- Generated by graphviz version 8.1.0 (20230707.0739)
 -->
<!-- Title: Slic3r::GUI::GCodeViewer::Extrusions::reset_ranges Pages: 1 -->
<svg width="1264pt" height="247pt"
 viewBox="0.00 0.00 1264.00 246.81" xmlns="http://www.w3.org/2000/svg" xmlns:xlink="http://www.w3.org/1999/xlink">
<g id="graph0" class="graph" transform="scale(1 1) rotate(0) translate(4 242.81)">
<title>Slic3r::GUI::GCodeViewer::Extrusions::reset_ranges</title>
<!-- Node1 -->
<g id="Node000001" class="node">
<title>Node1</title>
<g id="a_Node000001"><a xlink:title=" ">
<polygon fill="#999999" stroke="#666666" points="1256,-201.5 1124.5,-201.5 1124.5,-171 1256,-171 1256,-201.5"/>
<text text-anchor="start" x="1132.5" y="-188" font-family="Helvetica,sans-Serif" font-size="10.00">Slic3r::GUI::GCodeViewer</text>
<text text-anchor="middle" x="1190.25" y="-176.75" font-family="Helvetica,sans-Serif" font-size="10.00">::Extrusions::reset_ranges</text>
</a>
</g>
</g>
<!-- Node2 -->
<g id="Node000002" class="node">
<title>Node2</title>
<g id="a_Node000002"><a xlink:href="../../de/dc3/class_slic3r_1_1_g_u_i_1_1_g_code_viewer.html#a8a985ef531deab095c2db48232315bc3" target="_top" xlink:title=" ">
<polygon fill="white" stroke="#666666" points="723.5,-225.5 592,-225.5 592,-195 723.5,-195 723.5,-225.5"/>
<text text-anchor="start" x="600" y="-212" font-family="Helvetica,sans-Serif" font-size="10.00">Slic3r::GUI::GCodeViewer</text>
<text text-anchor="middle" x="657.75" y="-200.75" font-family="Helvetica,sans-Serif" font-size="10.00">::refresh</text>
</a>
</g>
</g>
<!-- Node1&#45;&gt;Node2 -->
<g id="edge1_Node000001_Node000002" class="edge">
<title>Node1&#45;&gt;Node2</title>
<g id="a_edge1_Node000001_Node000002"><a xlink:title=" ">
<path fill="none" stroke="#63b8ff" d="M1117.05,-204.4C1031.64,-223.53 885.17,-249.01 759.5,-234.25 744.77,-232.52 729.07,-229.41 714.55,-225.99"/>
<polygon fill="#63b8ff" stroke="#63b8ff" points="1117.69,-207.61 1126.67,-201.98 1116.14,-200.79 1117.69,-207.61"/>
</a>
</g>
</g>
<!-- Node11 -->
<g id="Node000011" class="node">
<title>Node11</title>
<g id="a_Node000011"><a xlink:href="../../de/dc3/class_slic3r_1_1_g_u_i_1_1_g_code_viewer.html#a1cd2ec1b3b6a5af4155c7375be19f028" target="_top" xlink:title=" ">
<polygon fill="white" stroke="#666666" points="1088.5,-155.5 957,-155.5 957,-125 1088.5,-125 1088.5,-155.5"/>
<text text-anchor="start" x="965" y="-142" font-family="Helvetica,sans-Serif" font-size="10.00">Slic3r::GUI::GCodeViewer</text>
<text text-anchor="middle" x="1022.75" y="-130.75" font-family="Helvetica,sans-Serif" font-size="10.00">::reset</text>
</a>
</g>
</g>
<!-- Node1&#45;&gt;Node11 -->
<g id="edge8_Node000001_Node000011" class="edge">
<title>Node1&#45;&gt;Node11</title>
<g id="a_edge8_Node000001_Node000011"><a xlink:title=" ">
<path fill="none" stroke="#63b8ff" d="M1122.25,-167.63C1108.32,-163.76 1093.78,-159.71 1080.27,-155.96"/>
<polygon fill="#63b8ff" stroke="#63b8ff" points="1121.19,-171.24 1131.76,-170.55 1123.06,-164.5 1121.19,-171.24"/>
</a>
</g>
</g>
<!-- Node3 -->
<g id="Node000003" class="node">
<title>Node3</title>
<g id="a_Node000003"><a xlink:href="../../d0/d2b/class_slic3r_1_1_g_u_i_1_1_g_l_canvas3_d.html#a626e5ae0d5ff5351e0fa7df96f1cabf4" target="_top" xlink:title=" ">
<polygon fill="white" stroke="#666666" points="556,-157.5 426,-157.5 426,-127 556,-127 556,-157.5"/>
<text text-anchor="start" x="434" y="-144" font-family="Helvetica,sans-Serif" font-size="10.00">Slic3r::GUI::GLCanvas3D</text>
<text text-anchor="middle" x="491" y="-132.75" font-family="Helvetica,sans-Serif" font-size="10.00">::load_gcode_preview</text>
</a>
</g>
</g>
<!-- Node2&#45;&gt;Node3 -->
<g id="edge2_Node000002_Node000003" class="edge">
<title>Node2&#45;&gt;Node3</title>
<g id="a_edge2_Node000002_Node000003"><a xlink:title=" ">
<path fill="none" stroke="#63b8ff" d="M608.89,-190.5C583.76,-180.12 553.39,-167.59 529.91,-157.9"/>
<polygon fill="#63b8ff" stroke="#63b8ff" points="607.37,-194.07 617.95,-194.65 610.04,-187.6 607.37,-194.07"/>
</a>
</g>
</g>
<!-- Node4 -->
<g id="Node000004" class="node">
<title>Node4</title>
<g id="a_Node000004"><a xlink:href="../../de/db8/class_slic3r_1_1_g_u_i_1_1_preview.html#ab3fdf034d196ca61a49c00cf991e1735" target="_top" xlink:title=" ">
<polygon fill="white" stroke="#666666" points="390,-157.5 284,-157.5 284,-127 390,-127 390,-157.5"/>
<text text-anchor="start" x="292" y="-144" font-family="Helvetica,sans-Serif" font-size="10.00">Slic3r::GUI::Preview</text>
<text text-anchor="middle" x="337" y="-132.75" font-family="Helvetica,sans-Serif" font-size="10.00">::load_print_as_fff</text>
</a>
</g>
</g>
<!-- Node3&#45;&gt;Node4 -->
<g id="edge3_Node000003_Node000004" class="edge">
<title>Node3&#45;&gt;Node4</title>
<g id="a_edge3_Node000003_Node000004"><a xlink:title=" ">
<path fill="none" stroke="#63b8ff" d="M414.67,-142.25C406.37,-142.25 398.06,-142.25 390.13,-142.25"/>
<polygon fill="#63b8ff" stroke="#63b8ff" points="414.54,-145.75 424.54,-142.25 414.54,-138.75 414.54,-145.75"/>
</a>
</g>
</g>
<!-- Node5 -->
<g id="Node000005" class="node">
<title>Node5</title>
<g id="a_Node000005"><a xlink:href="../../de/db8/class_slic3r_1_1_g_u_i_1_1_preview.html#a7a1616b241657b05e198074ef567c970" target="_top" xlink:title=" ">
<polygon fill="white" stroke="#666666" points="248,-157.5 142,-157.5 142,-127 248,-127 248,-157.5"/>
<text text-anchor="start" x="150" y="-144" font-family="Helvetica,sans-Serif" font-size="10.00">Slic3r::GUI::Preview</text>
<text text-anchor="middle" x="195" y="-132.75" font-family="Helvetica,sans-Serif" font-size="10.00">::load_print</text>
</a>
</g>
</g>
<!-- Node4&#45;&gt;Node5 -->
<g id="edge4_Node000004_Node000005" class="edge">
<title>Node4&#45;&gt;Node5</title>
<g id="a_edge4_Node000004_Node000005"><a xlink:title=" ">
<path fill="none" stroke="#63b8ff" d="M273.05,-142.25C264.74,-142.25 256.28,-142.25 248.17,-142.25"/>
<polygon fill="#63b8ff" stroke="#63b8ff" points="272.87,-145.75 282.87,-142.25 272.87,-138.75 272.87,-145.75"/>
</a>
</g>
</g>
<!-- Node6 -->
<g id="Node000006" class="node">
<title>Node6</title>
<g id="a_Node000006"><a xlink:href="../../de/db8/class_slic3r_1_1_g_u_i_1_1_preview.html#a06a7e7c88b5b95b0b325903be8632d17" target="_top" xlink:title=" ">
<polygon fill="white" stroke="#666666" points="106,-206.5 0,-206.5 0,-176 106,-176 106,-206.5"/>
<text text-anchor="start" x="8" y="-193" font-family="Helvetica,sans-Serif" font-size="10.00">Slic3r::GUI::Preview</text>
<text text-anchor="middle" x="53" y="-181.75" font-family="Helvetica,sans-Serif" font-size="10.00">::Preview</text>
</a>
</g>
</g>
<!-- Node5&#45;&gt;Node6 -->
<g id="edge5_Node000005_Node000006" class="edge">
<title>Node5&#45;&gt;Node6</title>
<g id="a_edge5_Node000005_Node000006"><a xlink:title=" ">
<path fill="none" stroke="#63b8ff" d="M139.25,-161.41C125.83,-166.11 111.62,-171.08 98.74,-175.59"/>
<polygon fill="#63b8ff" stroke="#63b8ff" points="140.04,-164.5 148.32,-157.89 137.72,-157.89 140.04,-164.5"/>
</a>
</g>
</g>
<!-- Node7 -->
<g id="Node000007" class="node">
<title>Node7</title>
<g id="a_Node000007"><a xlink:href="../../de/db8/class_slic3r_1_1_g_u_i_1_1_preview.html#ae1c961f58ad547b8b9ff16cb140420ad" target="_top" xlink:title=" ">
<polygon fill="#fff0f0" stroke="red" points="106,-157.5 0,-157.5 0,-127 106,-127 106,-157.5"/>
<text text-anchor="start" x="8" y="-144" font-family="Helvetica,sans-Serif" font-size="10.00">Slic3r::GUI::Preview</text>
<text text-anchor="middle" x="53" y="-132.75" font-family="Helvetica,sans-Serif" font-size="10.00">::refresh_print</text>
</a>
</g>
</g>
<!-- Node5&#45;&gt;Node7 -->
<g id="edge6_Node000005_Node000007" class="edge">
<title>Node5&#45;&gt;Node7</title>
<g id="a_edge6_Node000005_Node000007"><a xlink:title=" ">
<path fill="none" stroke="#63b8ff" d="M131.05,-142.25C122.74,-142.25 114.28,-142.25 106.17,-142.25"/>
<polygon fill="#63b8ff" stroke="#63b8ff" points="130.87,-145.75 140.87,-142.25 130.87,-138.75 130.87,-145.75"/>
</a>
</g>
</g>
<!-- Node9 -->
<g id="Node000009" class="node">
<title>Node9</title>
<g id="a_Node000009"><a xlink:href="../../de/db8/class_slic3r_1_1_g_u_i_1_1_preview.html#a0940ba7ceb1552059ee1cfb3b6171a0a" target="_top" xlink:title=" ">
<polygon fill="#fff0f0" stroke="red" points="106,-108.5 0,-108.5 0,-78 106,-78 106,-108.5"/>
<text text-anchor="start" x="8" y="-95" font-family="Helvetica,sans-Serif" font-size="10.00">Slic3r::GUI::Preview</text>
<text text-anchor="middle" x="53" y="-83.75" font-family="Helvetica,sans-Serif" font-size="10.00">::reload_print</text>
</a>
</g>
</g>
<!-- Node5&#45;&gt;Node9 -->
<g id="edge7_Node000005_Node000009" class="edge">
<title>Node5&#45;&gt;Node9</title>
<g id="a_edge7_Node000005_Node000009"><a xlink:title=" ">
<path fill="none" stroke="#63b8ff" d="M139.25,-123.09C125.83,-118.39 111.62,-113.42 98.74,-108.91"/>
<polygon fill="#63b8ff" stroke="#63b8ff" points="137.72,-126.61 148.32,-126.61 140.04,-120 137.72,-126.61"/>
</a>
</g>
</g>
<!-- Node12 -->
<g id="Node000012" class="node">
<title>Node12</title>
<g id="a_Node000012"><a xlink:href="../../d6/da6/struct_slic3r_1_1_g_u_i_1_1_g_code_viewer_1_1_extrusions_1_1_range.html#a0672c48e35b3401361e8d07d4c616fcb" target="_top" xlink:title=" ">
<polygon fill="white" stroke="#666666" points="909,-225.5 771.5,-225.5 771.5,-195 909,-195 909,-225.5"/>
<text text-anchor="start" x="779.5" y="-212" font-family="Helvetica,sans-Serif" font-size="10.00">Slic3r::GUI::GCodeViewer</text>
<text text-anchor="middle" x="840.25" y="-200.75" font-family="Helvetica,sans-Serif" font-size="10.00">::Extrusions::Range::Range</text>
</a>
</g>
</g>
<!-- Node11&#45;&gt;Node12 -->
<g id="edge9_Node000011_Node000012" class="edge">
<title>Node11&#45;&gt;Node12</title>
<g id="a_edge9_Node000011_Node000012"><a xlink:title=" ">
<path fill="none" stroke="#63b8ff" d="M979.65,-160.37C961.76,-168.57 940.56,-177.84 921,-185.25 912.45,-188.49 903.28,-191.64 894.31,-194.57"/>
<polygon fill="#63b8ff" stroke="#63b8ff" points="980.88,-163.19 988.48,-155.81 977.94,-156.84 980.88,-163.19"/>
</a>
</g>
</g>
<!-- Node13 -->
<g id="Node000013" class="node">
<title>Node13</title>
<g id="a_Node000013"><a xlink:href="../../de/dc3/class_slic3r_1_1_g_u_i_1_1_g_code_viewer.html#affebeb8c35ad626732fa1326bba2c1c6" target="_top" xlink:title=" ">
<polygon fill="white" stroke="#666666" points="906,-176.5 774.5,-176.5 774.5,-146 906,-146 906,-176.5"/>
<text text-anchor="start" x="782.5" y="-163" font-family="Helvetica,sans-Serif" font-size="10.00">Slic3r::GUI::GCodeViewer</text>
<text text-anchor="middle" x="840.25" y="-151.75" font-family="Helvetica,sans-Serif" font-size="10.00">::~GCodeViewer</text>
</a>
</g>
</g>
<!-- Node11&#45;&gt;Node13 -->
<g id="edge10_Node000011_Node000013" class="edge">
<title>Node11&#45;&gt;Node13</title>
<g id="a_edge10_Node000011_Node000013"><a xlink:title=" ">
<path fill="none" stroke="#63b8ff" d="M945.7,-149.1C932.6,-150.62 919.1,-152.19 906.32,-153.68"/>
<polygon fill="#63b8ff" stroke="#63b8ff" points="946.06,-152.46 955.59,-147.83 945.25,-145.51 946.06,-152.46"/>
</a>
</g>
</g>
<!-- Node14 -->
<g id="Node000014" class="node">
<title>Node14</title>
<g id="a_Node000014"><a xlink:href="../../de/dc3/class_slic3r_1_1_g_u_i_1_1_g_code_viewer.html#ae460b1d9591324bd2111130005f940bb" target="_top" xlink:title=" ">
<polygon fill="white" stroke="#666666" points="723.5,-133.5 592,-133.5 592,-103 723.5,-103 723.5,-133.5"/>
<text text-anchor="start" x="600" y="-120" font-family="Helvetica,sans-Serif" font-size="10.00">Slic3r::GUI::GCodeViewer</text>
<text text-anchor="middle" x="657.75" y="-108.75" font-family="Helvetica,sans-Serif" font-size="10.00">::load</text>
</a>
</g>
</g>
<!-- Node11&#45;&gt;Node14 -->
<g id="edge11_Node000011_Node000014" class="edge">
<title>Node11&#45;&gt;Node14</title>
<g id="a_edge11_Node000011_Node000014"><a xlink:title=" ">
<path fill="none" stroke="#63b8ff" d="M946.15,-135.67C880.39,-131.68 786.11,-125.97 723.7,-122.19"/>
<polygon fill="#63b8ff" stroke="#63b8ff" points="945.66,-139.21 955.85,-136.32 946.08,-132.22 945.66,-139.21"/>
</a>
</g>
</g>
<!-- Node15 -->
<g id="Node000015" class="node">
<title>Node15</title>
<g id="a_Node000015"><a xlink:href="../../d7/d59/class_slic3r_1_1_g_u_i_1_1_g_code_viewer_1_1_sequential_view_1_1_g_code_window.html#a3748e89f802e4ad695e44179995a161a" target="_top" xlink:title=" ">
<polygon fill="white" stroke="#666666" points="921,-90.12 759.5,-90.12 759.5,-48.38 921,-48.38 921,-90.12"/>
<text text-anchor="start" x="767.5" y="-76.62" font-family="Helvetica,sans-Serif" font-size="10.00">Slic3r::GUI::GCodeViewer</text>
<text text-anchor="start" x="767.5" y="-65.38" font-family="Helvetica,sans-Serif" font-size="10.00">::SequentialView::GCodeWindow</text>
<text text-anchor="middle" x="840.25" y="-54.12" font-family="Helvetica,sans-Serif" font-size="10.00">::load_gcode</text>
</a>
</g>
</g>
<!-- Node11&#45;&gt;Node15 -->
<g id="edge13_Node000011_Node000015" class="edge">
<title>Node11&#45;&gt;Node15</title>
<g id="a_edge13_Node000011_Node000015"><a xlink:title=" ">
<path fill="none" stroke="#63b8ff" d="M971.94,-120.66C948.21,-111.32 919.77,-100.14 895.49,-90.59"/>
<polygon fill="#63b8ff" stroke="#63b8ff" points="970.55,-124.27 981.14,-124.67 973.11,-117.75 970.55,-124.27"/>
</a>
</g>
</g>
<!-- Node16 -->
<g id="Node000016" class="node">
<title>Node16</title>
<g id="a_Node000016"><a xlink:href="../../d0/d2b/class_slic3r_1_1_g_u_i_1_1_g_l_canvas3_d.html#a0dae1eb7dbe6202a36c1d04ee58eff40" target="_top" xlink:title=" ">
<polygon fill="white" stroke="#666666" points="905.25,-30.5 775.25,-30.5 775.25,0 905.25,0 905.25,-30.5"/>
<text text-anchor="start" x="783.25" y="-17" font-family="Helvetica,sans-Serif" font-size="10.00">Slic3r::GUI::GLCanvas3D</text>
<text text-anchor="middle" x="840.25" y="-5.75" font-family="Helvetica,sans-Serif" font-size="10.00">::reset_gcode_toolpaths</text>
</a>
</g>
</g>
<!-- Node11&#45;&gt;Node16 -->
<g id="edge15_Node000011_Node000016" class="edge">
<title>Node11&#45;&gt;Node16</title>
<g id="a_edge15_Node000011_Node000016"><a xlink:title=" ">
<path fill="none" stroke="#63b8ff" d="M1003.53,-116.03C985.09,-93.12 954.58,-59.35 921,-39.25 915.79,-36.13 910.14,-33.39 904.34,-30.98"/>
<polygon fill="#63b8ff" stroke="#63b8ff" points="1001.28,-117.82 1010.21,-123.52 1006.78,-113.49 1001.28,-117.82"/>
</a>
</g>
</g>
<!-- Node14&#45;&gt;Node3 -->
<g id="edge12_Node000014_Node000003" class="edge">
<title>Node14&#45;&gt;Node3</title>
<g id="a_edge12_Node000014_Node000003"><a xlink:title=" ">
<path fill="none" stroke="#63b8ff" d="M580.93,-129.3C572.72,-130.49 564.42,-131.7 556.37,-132.87"/>
<polygon fill="#63b8ff" stroke="#63b8ff" points="581.25,-132.64 590.64,-127.74 580.24,-125.71 581.25,-132.64"/>
</a>
</g>
</g>
<!-- Node15&#45;&gt;Node14 -->
<g id="edge14_Node000015_Node000014" class="edge">
<title>Node15&#45;&gt;Node14</title>
<g id="a_edge14_Node000015_Node000014"><a xlink:title=" ">
<path fill="none" stroke="#63b8ff" d="M750.14,-93.44C738.71,-96.54 727.25,-99.65 716.51,-102.57"/>
<polygon fill="#63b8ff" stroke="#63b8ff" points="750.87,-96.6 759.61,-90.6 749.04,-89.84 750.87,-96.6"/>
</a>
</g>
</g>
</g>
</svg>
