<?xml version="1.0" encoding="UTF-8" standalone="no"?>
<!DOCTYPE svg PUBLIC "-//W3C//DTD SVG 1.1//EN"
 "http://www.w3.org/Graphics/SVG/1.1/DTD/svg11.dtd">
<!-- Generated by graphviz version 8.1.0 (20230707.0739)
 -->
<!-- Title: Slic3r::GUI::GUI_App::on_check_privacy_update Pages: 1 -->
<svg width="928pt" height="150pt"
 viewBox="0.00 0.00 928.25 149.88" xmlns="http://www.w3.org/2000/svg" xmlns:xlink="http://www.w3.org/1999/xlink">
<g id="graph0" class="graph" transform="scale(1 1) rotate(0) translate(4 145.88)">
<title>Slic3r::GUI::GUI_App::on_check_privacy_update</title>
<!-- Node1 -->
<g id="Node000001" class="node">
<title>Node1</title>
<g id="a_Node000001"><a xlink:title=" ">
<polygon fill="#999999" stroke="#666666" points="135.25,-79.5 0,-79.5 0,-49 135.25,-49 135.25,-79.5"/>
<text text-anchor="start" x="8" y="-66" font-family="Helvetica,sans-Serif" font-size="10.00">Slic3r::GUI::GUI_App</text>
<text text-anchor="middle" x="67.62" y="-54.75" font-family="Helvetica,sans-Serif" font-size="10.00">::on_check_privacy_update</text>
</a>
</g>
</g>
<!-- Node2 -->
<g id="Node000002" class="node">
<title>Node2</title>
<g id="a_Node000002"><a xlink:href="../../d9/d01/class_slic3r_1_1_g_u_i_1_1_g_u_i___app.html#a1d03720546dd4a7921ffffbd9a77c277" target="_top" xlink:title=" ">
<polygon fill="white" stroke="#666666" points="304.62,-128.5 185.12,-128.5 185.12,-98 304.62,-98 304.62,-128.5"/>
<text text-anchor="start" x="193.12" y="-115" font-family="Helvetica,sans-Serif" font-size="10.00">Slic3r::GUI::GUI_App</text>
<text text-anchor="middle" x="244.88" y="-103.75" font-family="Helvetica,sans-Serif" font-size="10.00">::check_privacy_update</text>
</a>
</g>
</g>
<!-- Node1&#45;&gt;Node2 -->
<g id="edge1_Node000001_Node000002" class="edge">
<title>Node1&#45;&gt;Node2</title>
<g id="a_edge1_Node000001_Node000002"><a xlink:title=" ">
<path fill="none" stroke="#63b8ff" d="M124.56,-79.89C141.39,-84.59 160.02,-89.8 177.46,-94.68"/>
<polygon fill="#63b8ff" stroke="#63b8ff" points="176,-98.19 186.57,-97.51 177.88,-91.44 176,-98.19"/>
</a>
</g>
</g>
<!-- Node14 -->
<g id="Node000014" class="node">
<title>Node14</title>
<g id="a_Node000014"><a xlink:href="../../d9/d01/class_slic3r_1_1_g_u_i_1_1_g_u_i___app.html#ac54c768d7b96117420f6ea18be0a0e95" target="_top" xlink:title=" ">
<polygon fill="white" stroke="#666666" points="318.5,-79.5 171.25,-79.5 171.25,-49 318.5,-49 318.5,-79.5"/>
<text text-anchor="start" x="179.25" y="-66" font-family="Helvetica,sans-Serif" font-size="10.00">Slic3r::GUI::GUI_App</text>
<text text-anchor="middle" x="244.88" y="-54.75" font-family="Helvetica,sans-Serif" font-size="10.00">::on_show_check_privacy_dlg</text>
</a>
</g>
</g>
<!-- Node1&#45;&gt;Node14 -->
<g id="edge12_Node000001_Node000014" class="edge">
<title>Node1&#45;&gt;Node14</title>
<g id="a_edge12_Node000001_Node000014"><a xlink:title=" ">
<path fill="none" stroke="#63b8ff" d="M135.38,-64.25C143.45,-64.25 151.77,-64.25 160.05,-64.25"/>
<polygon fill="#63b8ff" stroke="#63b8ff" points="159.88,-67.75 169.88,-64.25 159.88,-60.75 159.88,-67.75"/>
</a>
</g>
</g>
<!-- Node15 -->
<g id="Node000015" class="node">
<title>Node15</title>
<g id="a_Node000015"><a xlink:href="../../d9/d01/class_slic3r_1_1_g_u_i_1_1_g_u_i___app.html#a1486678a359eb705a3210adf31ff34d1" target="_top" xlink:title=" ">
<polygon fill="white" stroke="#666666" points="300.88,-30.5 188.88,-30.5 188.88,0 300.88,0 300.88,-30.5"/>
<text text-anchor="start" x="196.88" y="-17" font-family="Helvetica,sans-Serif" font-size="10.00">Slic3r::GUI::GUI_App</text>
<text text-anchor="middle" x="244.88" y="-5.75" font-family="Helvetica,sans-Serif" font-size="10.00">::request_user_handle</text>
</a>
</g>
</g>
<!-- Node1&#45;&gt;Node15 -->
<g id="edge13_Node000001_Node000015" class="edge">
<title>Node1&#45;&gt;Node15</title>
<g id="a_edge13_Node000001_Node000015"><a xlink:title=" ">
<path fill="none" stroke="#63b8ff" d="M124.56,-48.61C141.64,-43.84 160.58,-38.54 178.24,-33.6"/>
<polygon fill="#63b8ff" stroke="#63b8ff" points="178.79,-36.8 187.47,-30.74 176.9,-30.06 178.79,-36.8"/>
</a>
</g>
</g>
<!-- Node3 -->
<g id="Node000003" class="node">
<title>Node3</title>
<g id="a_Node000003"><a xlink:href="../../da/d00/class_slic3r_1_1_app_config.html#acf6d4a1479686546dfe4d1044de077b2" target="_top" xlink:title=" ">
<polygon fill="white" stroke="#666666" points="466.5,-141.88 354.5,-141.88 354.5,-122.62 466.5,-122.62 466.5,-141.88"/>
<text text-anchor="middle" x="410.5" y="-128.38" font-family="Helvetica,sans-Serif" font-size="10.00">Slic3r::AppConfig::get</text>
</a>
</g>
</g>
<!-- Node2&#45;&gt;Node3 -->
<g id="edge2_Node000002_Node000003" class="edge">
<title>Node2&#45;&gt;Node3</title>
<g id="a_edge2_Node000002_Node000003"><a xlink:title=" ">
<path fill="none" stroke="#63b8ff" d="M304.95,-120.11C317.46,-121.56 330.75,-123.11 343.5,-124.59"/>
<polygon fill="#63b8ff" stroke="#63b8ff" points="342.72,-128.14 353.06,-125.81 343.53,-121.18 342.72,-128.14"/>
</a>
</g>
</g>
<!-- Node4 -->
<g id="Node000004" class="node">
<title>Node4</title>
<g id="a_Node000004"><a xlink:href="../../d0/d1c/class_slic3r_1_1_semver.html#a8e956cc1ba6f4c7f4ef93a4da9d32670" target="_top" xlink:title=" ">
<polygon fill="white" stroke="#666666" points="465.75,-104.88 355.25,-104.88 355.25,-85.62 465.75,-85.62 465.75,-104.88"/>
<text text-anchor="middle" x="410.5" y="-91.38" font-family="Helvetica,sans-Serif" font-size="10.00">Slic3r::Semver::parse</text>
</a>
</g>
</g>
<!-- Node2&#45;&gt;Node4 -->
<g id="edge3_Node000002_Node000004" class="edge">
<title>Node2&#45;&gt;Node4</title>
<g id="a_edge3_Node000002_Node000004"><a xlink:title=" ">
<path fill="none" stroke="#63b8ff" d="M304.95,-106.75C317.68,-105.35 331.2,-103.86 344.16,-102.44"/>
<polygon fill="#63b8ff" stroke="#63b8ff" points="344.32,-105.83 353.87,-101.26 343.55,-98.87 344.32,-105.83"/>
</a>
</g>
</g>
<!-- Node5 -->
<g id="Node000005" class="node">
<title>Node5</title>
<g id="a_Node000005"><a xlink:href="../../d0/d1c/class_slic3r_1_1_semver.html#a5580fce772bdb1496152535cfb7581ca" target="_top" xlink:title=" ">
<polygon fill="white" stroke="#666666" points="634,-141.88 513.75,-141.88 513.75,-122.62 634,-122.62 634,-141.88"/>
<text text-anchor="middle" x="573.88" y="-128.38" font-family="Helvetica,sans-Serif" font-size="10.00">Slic3r::Semver::Semver</text>
</a>
</g>
</g>
<!-- Node4&#45;&gt;Node5 -->
<g id="edge4_Node000004_Node000005" class="edge">
<title>Node4&#45;&gt;Node5</title>
<g id="a_edge4_Node000004_Node000005"><a xlink:title=" ">
<path fill="none" stroke="#63b8ff" d="M455.6,-105.36C474.9,-109.79 497.74,-115.02 518.12,-119.7"/>
<polygon fill="#63b8ff" stroke="#63b8ff" points="517.3,-123.33 527.83,-122.15 518.87,-116.51 517.3,-123.33"/>
</a>
</g>
</g>
<!-- Node6 -->
<g id="Node000006" class="node">
<title>Node6</title>
<g id="a_Node000006"><a xlink:href="../../d8/d08/semver_8c.html#aa1c87a7a540706ba01c7a7250d4f1282" target="_top" xlink:title=" ">
<polygon fill="white" stroke="#666666" points="612.62,-104.88 535.12,-104.88 535.12,-85.62 612.62,-85.62 612.62,-104.88"/>
<text text-anchor="middle" x="573.88" y="-91.38" font-family="Helvetica,sans-Serif" font-size="10.00">semver_parse</text>
</a>
</g>
</g>
<!-- Node4&#45;&gt;Node6 -->
<g id="edge5_Node000004_Node000006" class="edge">
<title>Node4&#45;&gt;Node6</title>
<g id="a_edge5_Node000004_Node000006"><a xlink:title=" ">
<path fill="none" stroke="#63b8ff" d="M466.13,-95.25C485,-95.25 506,-95.25 524.34,-95.25"/>
<polygon fill="#63b8ff" stroke="#63b8ff" points="524.09,-98.75 534.09,-95.25 524.09,-91.75 524.09,-98.75"/>
</a>
</g>
</g>
<!-- Node13 -->
<g id="Node000013" class="node">
<title>Node13</title>
<g id="a_Node000013"><a xlink:href="../../d0/d1c/class_slic3r_1_1_semver.html#a525cd8c11e70152e65d45dac24f869b4" target="_top" xlink:title=" ">
<polygon fill="white" stroke="#666666" points="645.25,-67.88 502.5,-67.88 502.5,-48.62 645.25,-48.62 645.25,-67.88"/>
<text text-anchor="middle" x="573.88" y="-54.38" font-family="Helvetica,sans-Serif" font-size="10.00">Slic3r::Semver::semver_zero</text>
</a>
</g>
</g>
<!-- Node4&#45;&gt;Node13 -->
<g id="edge11_Node000004_Node000013" class="edge">
<title>Node4&#45;&gt;Node13</title>
<g id="a_edge11_Node000004_Node000013"><a xlink:title=" ">
<path fill="none" stroke="#63b8ff" d="M455.6,-85.14C474.9,-80.71 497.74,-75.48 518.12,-70.8"/>
<polygon fill="#63b8ff" stroke="#63b8ff" points="518.87,-73.99 527.83,-68.35 517.3,-67.17 518.87,-73.99"/>
</a>
</g>
</g>
<!-- Node7 -->
<g id="Node000007" class="node">
<title>Node7</title>
<g id="a_Node000007"><a xlink:href="../../d8/d08/semver_8c.html#a206f76149d550148cb2be8039dee03ff" target="_top" xlink:title=" ">
<polygon fill="white" stroke="#666666" points="771.12,-141.88 705.62,-141.88 705.62,-122.62 771.12,-122.62 771.12,-141.88"/>
<text text-anchor="middle" x="738.38" y="-128.38" font-family="Helvetica,sans-Serif" font-size="10.00">parse_slice</text>
</a>
</g>
</g>
<!-- Node6&#45;&gt;Node7 -->
<g id="edge6_Node000006_Node000007" class="edge">
<title>Node6&#45;&gt;Node7</title>
<g id="a_edge6_Node000006_Node000007"><a xlink:title=" ">
<path fill="none" stroke="#63b8ff" d="M612.97,-103.92C637.52,-109.51 669.46,-116.79 694.83,-122.56"/>
<polygon fill="#63b8ff" stroke="#63b8ff" points="693.73,-126.13 704.26,-124.94 695.29,-119.31 693.73,-126.13"/>
</a>
</g>
</g>
<!-- Node8 -->
<g id="Node000008" class="node">
<title>Node8</title>
<g id="a_Node000008"><a xlink:href="../../d8/d08/semver_8c.html#af51e4d44eaed8ca445066fcd7566a904" target="_top" xlink:title=" ">
<polygon fill="white" stroke="#666666" points="781.62,-104.88 695.12,-104.88 695.12,-85.62 781.62,-85.62 781.62,-104.88"/>
<text text-anchor="middle" x="738.38" y="-91.38" font-family="Helvetica,sans-Serif" font-size="10.00">semver_is_valid</text>
</a>
</g>
</g>
<!-- Node6&#45;&gt;Node8 -->
<g id="edge7_Node000006_Node000008" class="edge">
<title>Node6&#45;&gt;Node8</title>
<g id="a_edge7_Node000006_Node000008"><a xlink:title=" ">
<path fill="none" stroke="#63b8ff" d="M612.97,-95.25C634.11,-95.25 660.74,-95.25 683.93,-95.25"/>
<polygon fill="#63b8ff" stroke="#63b8ff" points="683.65,-98.75 693.65,-95.25 683.65,-91.75 683.65,-98.75"/>
</a>
</g>
</g>
<!-- Node12 -->
<g id="Node000012" class="node">
<title>Node12</title>
<g id="a_Node000012"><a xlink:href="../../d8/d08/semver_8c.html#a6e2fd372beab3136c14898023356d334" target="_top" xlink:title=" ">
<polygon fill="white" stroke="#666666" points="795.5,-67.88 681.25,-67.88 681.25,-48.62 795.5,-48.62 795.5,-67.88"/>
<text text-anchor="middle" x="738.38" y="-54.38" font-family="Helvetica,sans-Serif" font-size="10.00">semver_parse_version</text>
</a>
</g>
</g>
<!-- Node6&#45;&gt;Node12 -->
<g id="edge10_Node000006_Node000012" class="edge">
<title>Node6&#45;&gt;Node12</title>
<g id="a_edge10_Node000006_Node000012"><a xlink:title=" ">
<path fill="none" stroke="#63b8ff" d="M612.97,-86.58C633.71,-81.85 659.72,-75.93 682.59,-70.72"/>
<polygon fill="#63b8ff" stroke="#63b8ff" points="683.21,-73.94 692.19,-68.31 681.66,-67.12 683.21,-73.94"/>
</a>
</g>
</g>
<!-- Node9 -->
<g id="Node000009" class="node">
<title>Node9</title>
<g id="a_Node000009"><a xlink:href="../../d8/d08/semver_8c.html#a4856b66688a3c9e37dc2fe00b2c87935" target="_top" xlink:title=" ">
<polygon fill="#fff0f0" stroke="red" points="919.12,-123.88 832.62,-123.88 832.62,-104.62 919.12,-104.62 919.12,-123.88"/>
<text text-anchor="middle" x="875.88" y="-110.38" font-family="Helvetica,sans-Serif" font-size="10.00">has_valid_chars</text>
</a>
</g>
</g>
<!-- Node8&#45;&gt;Node9 -->
<g id="edge8_Node000008_Node000009" class="edge">
<title>Node8&#45;&gt;Node9</title>
<g id="a_edge8_Node000008_Node000009"><a xlink:title=" ">
<path fill="none" stroke="#63b8ff" d="M781.88,-101.21C794.49,-102.98 808.46,-104.94 821.66,-106.79"/>
<polygon fill="#63b8ff" stroke="#63b8ff" points="821.14,-110.39 831.52,-108.31 822.11,-103.46 821.14,-110.39"/>
</a>
</g>
</g>
<!-- Node11 -->
<g id="Node000011" class="node">
<title>Node11</title>
<g id="a_Node000011"><a xlink:href="../../d8/d08/semver_8c.html#a7ccc957b051e803b7deddd88aae59230" target="_top" xlink:title=" ">
<polygon fill="white" stroke="#666666" points="920.25,-86.88 831.5,-86.88 831.5,-67.62 920.25,-67.62 920.25,-86.88"/>
<text text-anchor="middle" x="875.88" y="-73.38" font-family="Helvetica,sans-Serif" font-size="10.00">has_valid_length</text>
</a>
</g>
</g>
<!-- Node8&#45;&gt;Node11 -->
<g id="edge9_Node000008_Node000011" class="edge">
<title>Node8&#45;&gt;Node11</title>
<g id="a_edge9_Node000008_Node000011"><a xlink:title=" ">
<path fill="none" stroke="#63b8ff" d="M781.88,-89.6C794.12,-87.98 807.66,-86.18 820.52,-84.47"/>
<polygon fill="#63b8ff" stroke="#63b8ff" points="820.67,-87.85 830.12,-83.06 819.75,-80.91 820.67,-87.85"/>
</a>
</g>
</g>
</g>
</svg>
