<?xml version="1.0" encoding="UTF-8" standalone="no"?>
<!DOCTYPE svg PUBLIC "-//W3C//DTD SVG 1.1//EN"
 "http://www.w3.org/Graphics/SVG/1.1/DTD/svg11.dtd">
<!-- Generated by graphviz version 8.1.0 (20230707.0739)
 -->
<!-- Title: Slic3r::GUI::GUI_App::extruders_cnt Pages: 1 -->
<!--zoomable 310 -->

<svg id="main" version="1.1" xmlns="http://www.w3.org/2000/svg" xmlns:xlink="http://www.w3.org/1999/xlink" xml:space="preserve" onload="init(evt)">
<style type="text/css"><![CDATA[
.node, .edge {opacity: 0.7;}
.node.selected, .edge.selected {opacity: 1;}
.edge:hover path { stroke: red; }
.edge:hover polygon { stroke: red; fill: red; }
]]></style>

<defs>
  <circle id="rim" cx="0" cy="0" r="7"/>
  <circle id="rim2" cx="0" cy="0" r="3.5"/>
  <g id="zoomPlus">
    <use xlink:href="#rim" fill="#404040"><set attributeName="fill" to="#808080" begin="zoomplus.mouseover" end="zoomplus.mouseout"/></use>
    <path d="M-4,0h8M0,-4v8" fill="none" stroke="white" stroke-width="1.5" pointer-events="none"/>
  </g>
  <g id="zoomMin">
    <use xlink:href="#rim" fill="#404040"><set attributeName="fill" to="#808080" begin="zoomminus.mouseover" end="zoomminus.mouseout"/></use>
    <path d="M-4,0h8" fill="none" stroke="white" stroke-width="1.5" pointer-events="none"/>
  </g>
  <g id="arrowUp" transform="translate(30 24)">
    <use xlink:href="#rim"/>
    <path pointer-events="none" fill="none" stroke="white" stroke-width="1.5" d="M0,-3.0v7 M-2.5,-0.5L0,-3.0L2.5,-0.5"/>
  </g>
  <g id="arrowRight" transform="rotate(90) translate(36 -43)">
    <use xlink:href="#rim"/>
    <path pointer-events="none" fill="none" stroke="white" stroke-width="1.5" d="M0,-3.0v7 M-2.5,-0.5L0,-3.0L2.5,-0.5"/>
  </g>
  <g id="arrowDown" transform="rotate(180) translate(-30 -48)">
    <use xlink:href="#rim"/>
    <path pointer-events="none" fill="none" stroke="white" stroke-width="1.5" d="M0,-3.0v7 M-2.5,-0.5L0,-3.0L2.5,-0.5"/>
  </g>
  <g id="arrowLeft" transform="rotate(270) translate(-36 17)">
    <use xlink:href="#rim"/>
    <path pointer-events="none" fill="none" stroke="white" stroke-width="1.5" d="M0,-3.0v7 M-2.5,-0.5L0,-3.0L2.5,-0.5"/>
  </g>
  <g id="resetDef">
    <use xlink:href="#rim2" fill="#404040"><set attributeName="fill" to="#808080" begin="reset.mouseover" end="reset.mouseout"/></use>
  </g>
</defs>
<script type="application/ecmascript">
var viewWidth = 995;
var viewHeight = 310;
var sectionId = 'dynsection-42';
</script>
<script type="application/ecmascript" xlink:href="../../svg.min.js"/>
<svg id="graph" class="graph">
<g id="viewport">
<title>Slic3r::GUI::GUI_App::extruders_cnt</title>
<!-- Node1 -->
<g id="Node000001" class="node">
<title>Node1</title>
<g id="a_Node000001"><a xlink:title=" ">
<polygon fill="#999999" stroke="#666666" points="111.25,-100.5 0,-100.5 0,-70 111.25,-70 111.25,-100.5"/>
<text text-anchor="start" x="8" y="-87" font-family="Helvetica,sans-Serif" font-size="10.00">Slic3r::GUI::GUI_App</text>
<text text-anchor="middle" x="55.62" y="-75.75" font-family="Helvetica,sans-Serif" font-size="10.00">::extruders_cnt</text>
</a>
</g>
</g>
<!-- Node2 -->
<g id="Node000002" class="node">
<title>Node2</title>
<g id="a_Node000002"><a xlink:href="../../d9/d24/class_slic3r_1_1_preset_collection.html#a166460da323e82c3e95ab194254d86e0" target="_top" xlink:title=" ">
<polygon fill="white" stroke="#666666" points="272.75,-165.5 154,-165.5 154,-135 272.75,-135 272.75,-165.5"/>
<text text-anchor="start" x="162" y="-152" font-family="Helvetica,sans-Serif" font-size="10.00">Slic3r::PresetCollection</text>
<text text-anchor="middle" x="213.38" y="-140.75" font-family="Helvetica,sans-Serif" font-size="10.00">::get_selected_preset</text>
</a>
</g>
</g>
<!-- Node1&#45;&gt;Node2 -->
<g id="edge1_Node000001_Node000002" class="edge">
<title>Node1&#45;&gt;Node2</title>
<g id="a_edge1_Node000001_Node000002"><a xlink:title=" ">
<path fill="none" stroke="#63b8ff" d="M94.33,-100.98C115.49,-109.81 142.09,-120.92 164.68,-130.35"/>
<polygon fill="#63b8ff" stroke="#63b8ff" points="163.17,-133.93 173.75,-134.55 165.87,-127.47 163.17,-133.93"/>
</a>
</g>
</g>
<!-- Node12 -->
<g id="Node000012" class="node">
<title>Node12</title>
<g id="a_Node000012"><a xlink:href="../../d9/d06/class_slic3r_1_1_config_base.html#a423121494459dae7858bc9d665f8cb4f" target="_top" xlink:title=" ">
<polygon fill="white" stroke="#666666" points="423.75,-97.5 326,-97.5 326,-67 423.75,-67 423.75,-97.5"/>
<text text-anchor="start" x="334" y="-84" font-family="Helvetica,sans-Serif" font-size="10.00">Slic3r::ConfigBase</text>
<text text-anchor="middle" x="374.88" y="-72.75" font-family="Helvetica,sans-Serif" font-size="10.00">::option</text>
</a>
</g>
</g>
<!-- Node1&#45;&gt;Node12 -->
<g id="edge14_Node000001_Node000012" class="edge">
<title>Node1&#45;&gt;Node12</title>
<g id="a_edge14_Node000001_Node000012"><a xlink:title=" ">
<path fill="none" stroke="#63b8ff" d="M111.73,-87.37C123.45,-87.73 135.76,-88.06 147.25,-88.25 206.02,-89.22 220.75,-90.12 279.5,-88.25 291.06,-87.88 303.4,-87.26 315.22,-86.56"/>
<polygon fill="#63b8ff" stroke="#63b8ff" points="315.13,-90.01 324.89,-85.89 314.69,-83.02 315.13,-90.01"/>
</a>
</g>
</g>
<!-- Node14 -->
<g id="Node000014" class="node">
<title>Node14</title>
<g id="a_Node000014"><a xlink:href="../../d9/db2/class_slic3r_1_1_preset.html#a959b555f2e1c1b7042080c862ce14a4c" target="_top" xlink:title=" ">
<polygon fill="white" stroke="#666666" points="267.5,-79.5 159.25,-79.5 159.25,-49 267.5,-49 267.5,-79.5"/>
<text text-anchor="start" x="167.25" y="-66" font-family="Helvetica,sans-Serif" font-size="10.00">Slic3r::Preset::printer</text>
<text text-anchor="middle" x="213.38" y="-54.75" font-family="Helvetica,sans-Serif" font-size="10.00">_technology</text>
</a>
</g>
</g>
<!-- Node1&#45;&gt;Node14 -->
<g id="edge16_Node000001_Node000014" class="edge">
<title>Node1&#45;&gt;Node14</title>
<g id="a_edge16_Node000001_Node000014"><a xlink:title=" ">
<path fill="none" stroke="#63b8ff" d="M111.54,-77.85C123.46,-76.24 136.17,-74.52 148.41,-72.88"/>
<polygon fill="#63b8ff" stroke="#63b8ff" points="148.56,-76.25 158.01,-71.45 147.63,-69.31 148.56,-76.25"/>
</a>
</g>
</g>
<!-- Node15 -->
<g id="Node000015" class="node">
<title>Node15</title>
<g id="a_Node000015"><a xlink:href="../../d9/d0d/class_slic3r_1_1_config_option_vector.html#a1e80ac8b04311346fb51190d616180ce" target="_top" xlink:title=" ">
<polygon fill="white" stroke="#666666" points="279.5,-30.5 147.25,-30.5 147.25,0 279.5,0 279.5,-30.5"/>
<text text-anchor="start" x="155.25" y="-17" font-family="Helvetica,sans-Serif" font-size="10.00">Slic3r::ConfigOptionVector</text>
<text text-anchor="middle" x="213.38" y="-5.75" font-family="Helvetica,sans-Serif" font-size="10.00">::size</text>
</a>
</g>
</g>
<!-- Node1&#45;&gt;Node15 -->
<g id="edge18_Node000001_Node000015" class="edge">
<title>Node1&#45;&gt;Node15</title>
<g id="a_edge18_Node000001_Node000015"><a xlink:title=" ">
<path fill="none" stroke="#63b8ff" d="M86.5,-69.53C104.01,-60.54 126.66,-49.29 147.25,-40.25 151.3,-38.47 155.53,-36.69 159.79,-34.94"/>
<polygon fill="#63b8ff" stroke="#63b8ff" points="160.77,-37.92 168.75,-30.95 158.17,-31.42 160.77,-37.92"/>
</a>
</g>
</g>
<!-- Node3 -->
<g id="Node000003" class="node">
<title>Node3</title>
<g id="a_Node000003"><a xlink:href="../../d9/d24/class_slic3r_1_1_preset_collection.html#a8008e4b43ace6a3a996dff76dad44731" target="_top" xlink:title=" ">
<polygon fill="white" stroke="#666666" points="599.5,-155.5 480.75,-155.5 480.75,-125 599.5,-125 599.5,-155.5"/>
<text text-anchor="start" x="488.75" y="-142" font-family="Helvetica,sans-Serif" font-size="10.00">Slic3r::PresetCollection</text>
<text text-anchor="middle" x="540.12" y="-130.75" font-family="Helvetica,sans-Serif" font-size="10.00">::first_visible_idx</text>
</a>
</g>
</g>
<!-- Node2&#45;&gt;Node3 -->
<g id="edge2_Node000002_Node000003" class="edge">
<title>Node2&#45;&gt;Node3</title>
<g id="a_edge2_Node000002_Node000003"><a xlink:title=" ">
<path fill="none" stroke="#63b8ff" d="M273.18,-148.44C328.39,-146.74 411.01,-144.2 469.49,-142.39"/>
<polygon fill="#63b8ff" stroke="#63b8ff" points="469.59,-145.86 479.48,-142.06 469.38,-138.87 469.59,-145.86"/>
</a>
</g>
</g>
<!-- Node9 -->
<g id="Node000009" class="node">
<title>Node9</title>
<g id="a_Node000009"><a xlink:href="../../d9/d24/class_slic3r_1_1_preset_collection.html#a1b04f4e9343cd71ea2a21d7f2bca3585" target="_top" xlink:title=" ">
<polygon fill="white" stroke="#666666" points="434.25,-198.5 315.5,-198.5 315.5,-168 434.25,-168 434.25,-198.5"/>
<text text-anchor="start" x="323.5" y="-185" font-family="Helvetica,sans-Serif" font-size="10.00">Slic3r::PresetCollection</text>
<text text-anchor="middle" x="374.88" y="-173.75" font-family="Helvetica,sans-Serif" font-size="10.00">::select_preset</text>
</a>
</g>
</g>
<!-- Node2&#45;&gt;Node9 -->
<g id="edge9_Node000002_Node000009" class="edge">
<title>Node2&#45;&gt;Node9</title>
<g id="a_edge9_Node000002_Node000009"><a xlink:title=" ">
<path fill="none" stroke="#63b8ff" d="M272.86,-162.35C283.2,-164.49 294.05,-166.73 304.64,-168.93"/>
<polygon fill="#63b8ff" stroke="#63b8ff" points="303.63,-172.5 314.13,-171.1 305.05,-165.64 303.63,-172.5"/>
</a>
</g>
</g>
<!-- Node4 -->
<g id="Node000004" class="node">
<title>Node4</title>
<g id="a_Node000004"><a xlink:href="../../d9/d24/class_slic3r_1_1_preset_collection.html#a0900140ae33435f780ab9311ec07b76e" target="_top" xlink:title=" ">
<polygon fill="white" stroke="#666666" points="764.75,-155.5 646,-155.5 646,-125 764.75,-125 764.75,-155.5"/>
<text text-anchor="start" x="654" y="-142" font-family="Helvetica,sans-Serif" font-size="10.00">Slic3r::PresetCollection</text>
<text text-anchor="middle" x="705.38" y="-130.75" font-family="Helvetica,sans-Serif" font-size="10.00">::first_visible</text>
</a>
</g>
</g>
<!-- Node3&#45;&gt;Node4 -->
<g id="edge3_Node000003_Node000004" class="edge">
<title>Node3&#45;&gt;Node4</title>
<g id="a_edge3_Node000003_Node000004"><a xlink:title=" ">
<path fill="none" stroke="#63b8ff" d="M599.6,-133.75C611.09,-133.5 623.24,-133.44 635.05,-133.57"/>
<polygon fill="#63b8ff" stroke="#63b8ff" points="634.7,-137.08 644.76,-133.74 634.82,-130.08 634.7,-137.08"/>
</a>
</g>
</g>
<!-- Node7 -->
<g id="Node000007" class="node">
<title>Node7</title>
<g id="a_Node000007"><a xlink:href="../../d9/d24/class_slic3r_1_1_preset_collection.html#addbb2e5162994c9abe0c070a82488913" target="_top" xlink:title=" ">
<polygon fill="white" stroke="#666666" points="764.75,-106.5 646,-106.5 646,-76 764.75,-76 764.75,-106.5"/>
<text text-anchor="start" x="654" y="-93" font-family="Helvetica,sans-Serif" font-size="10.00">Slic3r::PresetCollection</text>
<text text-anchor="middle" x="705.38" y="-81.75" font-family="Helvetica,sans-Serif" font-size="10.00">::name</text>
</a>
</g>
</g>
<!-- Node3&#45;&gt;Node7 -->
<g id="edge7_Node000003_Node000007" class="edge">
<title>Node3&#45;&gt;Node7</title>
<g id="a_edge7_Node000003_Node000007"><a xlink:title=" ">
<path fill="none" stroke="#63b8ff" d="M593.23,-124.61C608.61,-119.99 625.62,-114.89 641.6,-110.09"/>
<polygon fill="#63b8ff" stroke="#63b8ff" points="642.36,-113.22 650.93,-106.99 640.34,-106.51 642.36,-113.22"/>
</a>
</g>
</g>
<!-- Node4&#45;&gt;Node3 -->
<g id="edge4_Node000004_Node000003" class="edge">
<title>Node4&#45;&gt;Node3</title>
<g id="a_edge4_Node000004_Node000003"><a xlink:title=" ">
<path fill="none" stroke="#63b8ff" d="M645.76,-146.76C634.27,-147.01 622.11,-147.06 610.31,-146.93"/>
<polygon fill="#63b8ff" stroke="#63b8ff" points="610.66,-143.42 600.6,-146.75 610.54,-150.42 610.66,-143.42"/>
</a>
</g>
</g>
<!-- Node5 -->
<g id="Node000005" class="node">
<title>Node5</title>
<g id="a_Node000005"><a xlink:href="../../d9/d24/class_slic3r_1_1_preset_collection.html#a7dda563ca600dd25ae20bebcee3f486e" target="_top" xlink:title=" ">
<polygon fill="white" stroke="#666666" points="919.5,-176.5 800.75,-176.5 800.75,-146 919.5,-146 919.5,-176.5"/>
<text text-anchor="start" x="808.75" y="-163" font-family="Helvetica,sans-Serif" font-size="10.00">Slic3r::PresetCollection</text>
<text text-anchor="middle" x="860.12" y="-151.75" font-family="Helvetica,sans-Serif" font-size="10.00">::preset</text>
</a>
</g>
</g>
<!-- Node4&#45;&gt;Node5 -->
<g id="edge5_Node000004_Node000005" class="edge">
<title>Node4&#45;&gt;Node5</title>
<g id="a_edge5_Node000004_Node000005"><a xlink:title=" ">
<path fill="none" stroke="#63b8ff" d="M765,-148.31C773.07,-149.42 781.42,-150.57 789.67,-151.7"/>
<polygon fill="#63b8ff" stroke="#63b8ff" points="789.03,-155.28 799.41,-153.18 789.98,-148.35 789.03,-155.28"/>
</a>
</g>
</g>
<!-- Node6 -->
<g id="Node000006" class="node">
<title>Node6</title>
<g id="a_Node000006"><a xlink:href="../../d5/df7/_common_cwise_unary_ops_8h.html#a560b678a662ccfce4da582595899a0b7" target="_top" xlink:title=" ">
<polygon fill="white" stroke="#666666" points="987.25,-170.88 955.5,-170.88 955.5,-151.62 987.25,-151.62 987.25,-170.88"/>
<text text-anchor="middle" x="971.38" y="-157.38" font-family="Helvetica,sans-Serif" font-size="10.00">real</text>
</a>
</g>
</g>
<!-- Node5&#45;&gt;Node6 -->
<g id="edge6_Node000005_Node000006" class="edge">
<title>Node5&#45;&gt;Node6</title>
<g id="a_edge6_Node000005_Node000006"><a xlink:title=" ">
<path fill="none" stroke="#63b8ff" d="M919.91,-161.25C928.52,-161.25 937,-161.25 944.48,-161.25"/>
<polygon fill="#63b8ff" stroke="#63b8ff" points="944.28,-164.75 954.28,-161.25 944.28,-157.75 944.28,-164.75"/>
</a>
</g>
</g>
<!-- Node8 -->
<g id="Node000008" class="node">
<title>Node8</title>
<g id="a_Node000008"><a xlink:href="../../d9/d24/class_slic3r_1_1_preset_collection.html#a1a27959ef609baeb3d853b1c718852d1" target="_top" xlink:title=" ">
<polygon fill="white" stroke="#666666" points="919.5,-106.5 800.75,-106.5 800.75,-76 919.5,-76 919.5,-106.5"/>
<text text-anchor="start" x="808.75" y="-93" font-family="Helvetica,sans-Serif" font-size="10.00">Slic3r::PresetCollection</text>
<text text-anchor="middle" x="860.12" y="-81.75" font-family="Helvetica,sans-Serif" font-size="10.00">::type</text>
</a>
</g>
</g>
<!-- Node7&#45;&gt;Node8 -->
<g id="edge8_Node000007_Node000008" class="edge">
<title>Node7&#45;&gt;Node8</title>
<g id="a_edge8_Node000007_Node000008"><a xlink:title=" ">
<path fill="none" stroke="#63b8ff" d="M765,-91.25C773.07,-91.25 781.42,-91.25 789.67,-91.25"/>
<polygon fill="#63b8ff" stroke="#63b8ff" points="789.41,-94.75 799.41,-91.25 789.41,-87.75 789.41,-94.75"/>
</a>
</g>
</g>
<!-- Node9&#45;&gt;Node3 -->
<g id="edge10_Node000009_Node000003" class="edge">
<title>Node9&#45;&gt;Node3</title>
<g id="a_edge10_Node000009_Node000003"><a xlink:title=" ">
<path fill="none" stroke="#63b8ff" d="M434.35,-167.85C445.96,-164.79 458.24,-161.55 470.16,-158.42"/>
<polygon fill="#63b8ff" stroke="#63b8ff" points="470.73,-161.62 479.51,-155.69 468.95,-154.85 470.73,-161.62"/>
</a>
</g>
</g>
<!-- Node9&#45;&gt;Node5 -->
<g id="edge12_Node000009_Node000005" class="edge">
<title>Node9&#45;&gt;Node5</title>
<g id="a_edge12_Node000009_Node000005"><a xlink:title=" ">
<path fill="none" stroke="#63b8ff" d="M434.65,-180.57C524.05,-176.5 693.89,-168.77 789.4,-164.42"/>
<polygon fill="#63b8ff" stroke="#63b8ff" points="789.55,-167.88 799.38,-163.92 789.23,-160.88 789.55,-167.88"/>
</a>
</g>
</g>
<!-- Node10 -->
<g id="Node000010" class="node">
<title>Node10</title>
<g id="a_Node000010"><a xlink:href="../../d9/db2/class_slic3r_1_1_preset.html#a161f0d5dc36229f0b3bb5321e89e665c" target="_top" xlink:title=" ">
<polygon fill="white" stroke="#666666" points="587.5,-301.5 492.75,-301.5 492.75,-271 587.5,-271 587.5,-301.5"/>
<text text-anchor="start" x="500.75" y="-288" font-family="Helvetica,sans-Serif" font-size="10.00">Slic3r::Preset::get</text>
<text text-anchor="middle" x="540.12" y="-276.75" font-family="Helvetica,sans-Serif" font-size="10.00">_type_string</text>
</a>
</g>
</g>
<!-- Node9&#45;&gt;Node10 -->
<g id="edge11_Node000009_Node000010" class="edge">
<title>Node9&#45;&gt;Node10</title>
<g id="a_edge11_Node000009_Node000010"><a xlink:title=" ">
<path fill="none" stroke="#63b8ff" d="M390.91,-198.87C408.51,-216.39 439.21,-244.64 470.25,-262.25 474.15,-264.46 478.29,-266.53 482.54,-268.43"/>
<polygon fill="#63b8ff" stroke="#63b8ff" points="480.96,-271.99 491.54,-272.61 483.66,-265.53 480.96,-271.99"/>
</a>
</g>
</g>
<!-- Node11 -->
<g id="Node000011" class="node">
<title>Node11</title>
<g id="a_Node000011"><a xlink:href="../../d9/d24/class_slic3r_1_1_preset_collection.html#a7438b80b495a1e1323883fd1798cf8a1" target="_top" xlink:title=" ">
<polygon fill="white" stroke="#666666" points="610,-253.12 470.25,-253.12 470.25,-211.38 610,-211.38 610,-253.12"/>
<text text-anchor="start" x="478.25" y="-239.62" font-family="Helvetica,sans-Serif" font-size="10.00">Slic3r::PresetCollection</text>
<text text-anchor="start" x="478.25" y="-228.38" font-family="Helvetica,sans-Serif" font-size="10.00">::update_saved_preset_from</text>
<text text-anchor="middle" x="540.12" y="-217.12" font-family="Helvetica,sans-Serif" font-size="10.00">_current_preset</text>
</a>
</g>
</g>
<!-- Node9&#45;&gt;Node11 -->
<g id="edge13_Node000009_Node000011" class="edge">
<title>Node9&#45;&gt;Node11</title>
<g id="a_edge13_Node000009_Node000011"><a xlink:title=" ">
<path fill="none" stroke="#63b8ff" d="M427.98,-198.89C438.09,-201.92 448.9,-205.17 459.66,-208.4"/>
<polygon fill="#63b8ff" stroke="#63b8ff" points="458.35,-211.96 468.94,-211.48 460.37,-205.26 458.35,-211.96"/>
</a>
</g>
</g>
<!-- Node13 -->
<g id="Node000013" class="node">
<title>Node13</title>
<g id="a_Node000013"><a xlink:href="../../d9/d06/class_slic3r_1_1_config_base.html#a699680b37bd3c116736fd1a2ec831728" target="_top" xlink:title=" ">
<polygon fill="white" stroke="#666666" points="589,-97.5 491.25,-97.5 491.25,-67 589,-67 589,-97.5"/>
<text text-anchor="start" x="499.25" y="-84" font-family="Helvetica,sans-Serif" font-size="10.00">Slic3r::ConfigBase</text>
<text text-anchor="middle" x="540.12" y="-72.75" font-family="Helvetica,sans-Serif" font-size="10.00">::optptr</text>
</a>
</g>
</g>
<!-- Node12&#45;&gt;Node13 -->
<g id="edge15_Node000012_Node000013" class="edge">
<title>Node12&#45;&gt;Node13</title>
<g id="a_edge15_Node000012_Node000013"><a xlink:title=" ">
<path fill="none" stroke="#63b8ff" d="M423.97,-82.25C441.5,-82.25 461.53,-82.25 479.91,-82.25"/>
<polygon fill="#63b8ff" stroke="#63b8ff" points="479.81,-85.75 489.81,-82.25 479.81,-78.75 479.81,-85.75"/>
</a>
</g>
</g>
<!-- Node14&#45;&gt;Node12 -->
<g id="edge17_Node000014_Node000012" class="edge">
<title>Node14&#45;&gt;Node12</title>
<g id="a_edge17_Node000014_Node000012"><a xlink:title=" ">
<path fill="none" stroke="#63b8ff" d="M267.93,-70.29C282.93,-71.99 299.32,-73.84 314.64,-75.56"/>
<polygon fill="#63b8ff" stroke="#63b8ff" points="314.23,-79.15 324.56,-76.8 315.01,-72.2 314.23,-79.15"/>
</a>
</g>
</g>
</g>
</svg>

<g id="navigator" transform="translate(0 0)" fill="#404254">
  <rect fill="#f2f5e9" fill-opacity="0.5" stroke="#606060" stroke-width=".5" x="0" y="0" width="60" height="60"/>
  <use id="zoomplus" xlink:href="#zoomPlus" x="17" y="9" onmousedown="handleZoom(evt,'in')"/>
  <use id="zoomminus" xlink:href="#zoomMin" x="42" y="9" onmousedown="handleZoom(evt,'out')"/>
  <use id="reset" xlink:href="#resetDef" x="30" y="36" onmousedown="handleReset()"/>
   <use id="arrowup" xlink:href="#arrowUp" x="0" y="0" onmousedown="handlePan(0,-1)"/>
  <use id="arrowright" xlink:href="#arrowRight" x="0" y="0" onmousedown="handlePan(1,0)"/>
  <use id="arrowdown" xlink:href="#arrowDown" x="0" y="0" onmousedown="handlePan(0,1)"/>
  <use id="arrowleft" xlink:href="#arrowLeft" x="0" y="0" onmousedown="handlePan(-1,0)"/>
</g>
<svg viewBox="0 0 15 15" width="100%" height="30px" preserveAspectRatio="xMaxYMin meet">
 <g id="arrow_out" transform="scale(0.3 0.3)">
  <a xlink:href="class_slic3r_1_1_g_u_i_1_1_g_u_i___app_a4688e64f982d069b6148ec8a10049b40_cgraph_org.svg" target="_base">
   <rect id="button" ry="5" rx="5" y="6" x="6" height="38" width="38"
        fill="#f2f5e9" fill-opacity="0.5" stroke="#606060" stroke-width="1.0"/>
   <path id="arrow"
     d="M 11.500037,31.436501 C 11.940474,20.09759 22.043105,11.32322 32.158766,21.979434 L 37.068811,17.246167 C 37.068811,17.246167 37.088388,32 37.088388,32 L 22.160133,31.978069 C 22.160133,31.978069 26.997745,27.140456 26.997745,27.140456 C 18.528582,18.264221 13.291696,25.230495 11.500037,31.436501 z"
     style="fill:#404040;"/>
  </a>
 </g>
</svg>

<style type='text/css'>
<![CDATA[
[data-mouse-over-selected='false'] { opacity: 0.7; }
[data-mouse-over-selected='true']  { opacity: 1.0; }
]]>
</style>
<script type="application/ecmascript"><![CDATA[
document.addEventListener('DOMContentLoaded', (event) => {
  highlightEdges();
  highlightAdjacentNodes();
});
]]></script>
</svg>
