<?xml version="1.0" encoding="UTF-8" standalone="no"?>
<!DOCTYPE svg PUBLIC "-//W3C//DTD SVG 1.1//EN"
 "http://www.w3.org/Graphics/SVG/1.1/DTD/svg11.dtd">
<!-- Generated by graphviz version 8.1.0 (20230707.0739)
 -->
<!-- Title: Slic3r::GUI::GUI_App::sidebar Pages: 1 -->
<!--zoomable 277 -->

<svg id="main" version="1.1" xmlns="http://www.w3.org/2000/svg" xmlns:xlink="http://www.w3.org/1999/xlink" xml:space="preserve" onload="init(evt)">
<style type="text/css"><![CDATA[
.node, .edge {opacity: 0.7;}
.node.selected, .edge.selected {opacity: 1;}
.edge:hover path { stroke: red; }
.edge:hover polygon { stroke: red; fill: red; }
]]></style>

<defs>
  <circle id="rim" cx="0" cy="0" r="7"/>
  <circle id="rim2" cx="0" cy="0" r="3.5"/>
  <g id="zoomPlus">
    <use xlink:href="#rim" fill="#404040"><set attributeName="fill" to="#808080" begin="zoomplus.mouseover" end="zoomplus.mouseout"/></use>
    <path d="M-4,0h8M0,-4v8" fill="none" stroke="white" stroke-width="1.5" pointer-events="none"/>
  </g>
  <g id="zoomMin">
    <use xlink:href="#rim" fill="#404040"><set attributeName="fill" to="#808080" begin="zoomminus.mouseover" end="zoomminus.mouseout"/></use>
    <path d="M-4,0h8" fill="none" stroke="white" stroke-width="1.5" pointer-events="none"/>
  </g>
  <g id="arrowUp" transform="translate(30 24)">
    <use xlink:href="#rim"/>
    <path pointer-events="none" fill="none" stroke="white" stroke-width="1.5" d="M0,-3.0v7 M-2.5,-0.5L0,-3.0L2.5,-0.5"/>
  </g>
  <g id="arrowRight" transform="rotate(90) translate(36 -43)">
    <use xlink:href="#rim"/>
    <path pointer-events="none" fill="none" stroke="white" stroke-width="1.5" d="M0,-3.0v7 M-2.5,-0.5L0,-3.0L2.5,-0.5"/>
  </g>
  <g id="arrowDown" transform="rotate(180) translate(-30 -48)">
    <use xlink:href="#rim"/>
    <path pointer-events="none" fill="none" stroke="white" stroke-width="1.5" d="M0,-3.0v7 M-2.5,-0.5L0,-3.0L2.5,-0.5"/>
  </g>
  <g id="arrowLeft" transform="rotate(270) translate(-36 17)">
    <use xlink:href="#rim"/>
    <path pointer-events="none" fill="none" stroke="white" stroke-width="1.5" d="M0,-3.0v7 M-2.5,-0.5L0,-3.0L2.5,-0.5"/>
  </g>
  <g id="resetDef">
    <use xlink:href="#rim2" fill="#404040"><set attributeName="fill" to="#808080" begin="reset.mouseover" end="reset.mouseout"/></use>
  </g>
</defs>
<script type="application/ecmascript">
var viewWidth = 900;
var viewHeight = 277;
var sectionId = 'dynsection-179';
</script>
<script type="application/ecmascript" xlink:href="../../svg.min.js"/>
<svg id="graph" class="graph">
<g id="viewport">
<title>Slic3r::GUI::GUI_App::sidebar</title>
<!-- Node1 -->
<g id="Node000001" class="node">
<title>Node1</title>
<g id="a_Node000001"><a xlink:title=" ">
<polygon fill="#999999" stroke="#666666" points="891.75,-176.5 780.5,-176.5 780.5,-146 891.75,-146 891.75,-176.5"/>
<text text-anchor="start" x="788.5" y="-163" font-family="Helvetica,sans-Serif" font-size="10.00">Slic3r::GUI::GUI_App</text>
<text text-anchor="middle" x="836.12" y="-151.75" font-family="Helvetica,sans-Serif" font-size="10.00">::sidebar</text>
</a>
</g>
</g>
<!-- Node2 -->
<g id="Node000002" class="node">
<title>Node2</title>
<g id="a_Node000002"><a xlink:href="../../d9/d01/class_slic3r_1_1_g_u_i_1_1_g_u_i___app.html#a04835057513653f7083625db6b2eaa2d" target="_top" xlink:title=" ">
<polygon fill="white" stroke="#666666" points="744.5,-268.5 633.25,-268.5 633.25,-238 744.5,-238 744.5,-268.5"/>
<text text-anchor="start" x="641.25" y="-255" font-family="Helvetica,sans-Serif" font-size="10.00">Slic3r::GUI::GUI_App</text>
<text text-anchor="middle" x="688.88" y="-243.75" font-family="Helvetica,sans-Serif" font-size="10.00">::obj_layers</text>
</a>
</g>
</g>
<!-- Node1&#45;&gt;Node2 -->
<g id="edge1_Node000001_Node000002" class="edge">
<title>Node1&#45;&gt;Node2</title>
<g id="a_edge1_Node000001_Node000002"><a xlink:title=" ">
<path fill="none" stroke="#63b8ff" d="M807.93,-183.68C790.44,-197.5 766.89,-215.04 744.5,-228.25 738.93,-231.54 732.85,-234.7 726.84,-237.6"/>
<polygon fill="#63b8ff" stroke="#63b8ff" points="809.86,-185.82 815.48,-176.83 805.48,-180.35 809.86,-185.82"/>
</a>
</g>
</g>
<!-- Node3 -->
<g id="Node000003" class="node">
<title>Node3</title>
<g id="a_Node000003"><a xlink:href="../../d9/d01/class_slic3r_1_1_g_u_i_1_1_g_u_i___app.html#a31fd3fd06a0949c8a5d71f93316c7216" target="_top" xlink:title=" ">
<polygon fill="white" stroke="#666666" points="744.5,-219.5 633.25,-219.5 633.25,-189 744.5,-189 744.5,-219.5"/>
<text text-anchor="start" x="641.25" y="-206" font-family="Helvetica,sans-Serif" font-size="10.00">Slic3r::GUI::GUI_App</text>
<text text-anchor="middle" x="688.88" y="-194.75" font-family="Helvetica,sans-Serif" font-size="10.00">::obj_list</text>
</a>
</g>
</g>
<!-- Node1&#45;&gt;Node3 -->
<g id="edge2_Node000001_Node000003" class="edge">
<title>Node1&#45;&gt;Node3</title>
<g id="a_edge2_Node000001_Node000003"><a xlink:title=" ">
<path fill="none" stroke="#63b8ff" d="M771.91,-179.96C762.24,-182.83 752.35,-185.76 742.93,-188.54"/>
<polygon fill="#63b8ff" stroke="#63b8ff" points="772.68,-183.09 781.28,-176.9 770.69,-176.38 772.68,-183.09"/>
</a>
</g>
</g>
<!-- Node4 -->
<g id="Node000004" class="node">
<title>Node4</title>
<g id="a_Node000004"><a xlink:href="../../d9/d01/class_slic3r_1_1_g_u_i_1_1_g_u_i___app.html#a87de9f13f202fbb6dfdc28156065a6a6" target="_top" xlink:title=" ">
<polygon fill="white" stroke="#666666" points="578.12,-197.5 466.88,-197.5 466.88,-167 578.12,-167 578.12,-197.5"/>
<text text-anchor="start" x="474.88" y="-184" font-family="Helvetica,sans-Serif" font-size="10.00">Slic3r::GUI::GUI_App</text>
<text text-anchor="middle" x="522.5" y="-172.75" font-family="Helvetica,sans-Serif" font-size="10.00">::recreate_GUI</text>
</a>
</g>
</g>
<!-- Node1&#45;&gt;Node4 -->
<g id="edge6_Node000001_Node000004" class="edge">
<title>Node1&#45;&gt;Node4</title>
<g id="a_edge6_Node000001_Node000004"><a xlink:title=" ">
<path fill="none" stroke="#63b8ff" d="M769.48,-165.67C712.79,-169.49 631.81,-174.95 578.47,-178.55"/>
<polygon fill="#63b8ff" stroke="#63b8ff" points="769.39,-169.12 779.13,-164.96 768.92,-162.14 769.39,-169.12"/>
</a>
</g>
</g>
<!-- Node6 -->
<g id="Node000006" class="node">
<title>Node6</title>
<g id="a_Node000006"><a xlink:href="../../d9/d01/class_slic3r_1_1_g_u_i_1_1_g_u_i___app.html#ac07fea23b6e4fac77837e229d5838d40" target="_top" xlink:title=" ">
<polygon fill="white" stroke="#666666" points="744.5,-133.5 633.25,-133.5 633.25,-103 744.5,-103 744.5,-133.5"/>
<text text-anchor="start" x="641.25" y="-120" font-family="Helvetica,sans-Serif" font-size="10.00">Slic3r::GUI::GUI_App</text>
<text text-anchor="middle" x="688.88" y="-108.75" font-family="Helvetica,sans-Serif" font-size="10.00">::obj_settings</text>
</a>
</g>
</g>
<!-- Node1&#45;&gt;Node6 -->
<g id="edge5_Node000001_Node000006" class="edge">
<title>Node1&#45;&gt;Node6</title>
<g id="a_edge5_Node000001_Node000006"><a xlink:title=" ">
<path fill="none" stroke="#63b8ff" d="M771.91,-142.54C762.24,-139.67 752.35,-136.74 742.93,-133.96"/>
<polygon fill="#63b8ff" stroke="#63b8ff" points="770.69,-146.12 781.28,-145.6 772.68,-139.41 770.69,-146.12"/>
</a>
</g>
</g>
<!-- Node7 -->
<g id="Node000007" class="node">
<title>Node7</title>
<g id="a_Node000007"><a xlink:href="../../d9/d01/class_slic3r_1_1_g_u_i_1_1_g_u_i___app.html#a1864e23d8ab38550de0efdbf67aa9d9a" target="_top" xlink:title=" ">
<polygon fill="white" stroke="#666666" points="744.5,-84.5 633.25,-84.5 633.25,-54 744.5,-54 744.5,-84.5"/>
<text text-anchor="start" x="641.25" y="-71" font-family="Helvetica,sans-Serif" font-size="10.00">Slic3r::GUI::GUI_App</text>
<text text-anchor="middle" x="688.88" y="-59.75" font-family="Helvetica,sans-Serif" font-size="10.00">::update_mode</text>
</a>
</g>
</g>
<!-- Node1&#45;&gt;Node7 -->
<g id="edge7_Node000001_Node000007" class="edge">
<title>Node1&#45;&gt;Node7</title>
<g id="a_edge7_Node000001_Node000007"><a xlink:title=" ">
<path fill="none" stroke="#63b8ff" d="M807.93,-138.82C790.44,-125 766.89,-107.46 744.5,-94.25 738.93,-90.96 732.85,-87.8 726.84,-84.9"/>
<polygon fill="#63b8ff" stroke="#63b8ff" points="805.48,-142.15 815.48,-145.67 809.86,-136.68 805.48,-142.15"/>
</a>
</g>
</g>
<!-- Node3&#45;&gt;Node4 -->
<g id="edge3_Node000003_Node000004" class="edge">
<title>Node3&#45;&gt;Node4</title>
<g id="a_edge3_Node000003_Node000004"><a xlink:title=" ">
<path fill="none" stroke="#63b8ff" d="M622.24,-195.47C607.76,-193.53 592.57,-191.49 578.56,-189.62"/>
<polygon fill="#63b8ff" stroke="#63b8ff" points="621.76,-199.07 632.14,-196.92 622.69,-192.13 621.76,-199.07"/>
</a>
</g>
</g>
<!-- Node5 -->
<g id="Node000005" class="node">
<title>Node5</title>
<g id="a_Node000005"><a xlink:href="../../d9/d01/class_slic3r_1_1_g_u_i_1_1_g_u_i___app.html#a4b58cc35230fcc8450643b36540c49e4" target="_top" xlink:title=" ">
<polygon fill="white" stroke="#666666" points="411.75,-202.5 300.5,-202.5 300.5,-172 411.75,-172 411.75,-202.5"/>
<text text-anchor="start" x="308.5" y="-189" font-family="Helvetica,sans-Serif" font-size="10.00">Slic3r::GUI::GUI_App</text>
<text text-anchor="middle" x="356.12" y="-177.75" font-family="Helvetica,sans-Serif" font-size="10.00">::switch_language</text>
</a>
</g>
</g>
<!-- Node4&#45;&gt;Node5 -->
<g id="edge4_Node000004_Node000005" class="edge">
<title>Node4&#45;&gt;Node5</title>
<g id="a_edge4_Node000004_Node000005"><a xlink:title=" ">
<path fill="none" stroke="#63b8ff" d="M455.86,-184.25C441.38,-184.69 426.19,-185.15 412.18,-185.58"/>
<polygon fill="#63b8ff" stroke="#63b8ff" points="455.88,-187.72 465.77,-183.91 455.66,-180.72 455.88,-187.72"/>
</a>
</g>
</g>
<!-- Node7&#45;&gt;Node4 -->
<g id="edge8_Node000007_Node000004" class="edge">
<title>Node7&#45;&gt;Node4</title>
<g id="a_edge8_Node000007_Node000004"><a xlink:title=" ">
<path fill="none" stroke="#63b8ff" d="M640.49,-90.04C638.01,-91.41 635.58,-92.81 633.25,-94.25 597.91,-116.04 561.11,-147.7 540.37,-166.51"/>
<polygon fill="#63b8ff" stroke="#63b8ff" points="641.95,-92.71 649.21,-85 638.72,-86.5 641.95,-92.71"/>
</a>
</g>
</g>
<!-- Node8 -->
<g id="Node000008" class="node">
<title>Node8</title>
<g id="a_Node000008"><a xlink:href="../../d3/d38/class_slic3r_1_1_g_u_i_1_1_guide_frame.html#af3c3a04a421f646e8bf279919e22fca1" target="_top" xlink:title=" ">
<polygon fill="white" stroke="#666666" points="594.25,-104.88 450.75,-104.88 450.75,-85.62 594.25,-85.62 594.25,-104.88"/>
<text text-anchor="middle" x="522.5" y="-91.38" font-family="Helvetica,sans-Serif" font-size="10.00">Slic3r::GUI::GuideFrame::run</text>
</a>
</g>
</g>
<!-- Node7&#45;&gt;Node8 -->
<g id="edge9_Node000007_Node000008" class="edge">
<title>Node7&#45;&gt;Node8</title>
<g id="a_edge9_Node000007_Node000008"><a xlink:title=" ">
<path fill="none" stroke="#63b8ff" d="M622.29,-79.62C610.79,-81.44 598.84,-83.33 587.39,-85.14"/>
<polygon fill="#63b8ff" stroke="#63b8ff" points="622.81,-82.93 632.14,-77.91 621.72,-76.01 622.81,-82.93"/>
</a>
</g>
</g>
<!-- Node14 -->
<g id="Node000014" class="node">
<title>Node14</title>
<g id="a_Node000014"><a xlink:href="../../da/d91/class_slic3r_1_1_g_u_i_1_1_config_wizard.html#a13dce62b16c54d9d3dad96578399d712" target="_top" xlink:title=" ">
<polygon fill="white" stroke="#666666" points="597.25,-67.88 447.75,-67.88 447.75,-48.62 597.25,-48.62 597.25,-67.88"/>
<text text-anchor="middle" x="522.5" y="-54.38" font-family="Helvetica,sans-Serif" font-size="10.00">Slic3r::GUI::ConfigWizard::run</text>
</a>
</g>
</g>
<!-- Node7&#45;&gt;Node14 -->
<g id="edge15_Node000007_Node000014" class="edge">
<title>Node7&#45;&gt;Node14</title>
<g id="a_edge15_Node000007_Node000014"><a xlink:title=" ">
<path fill="none" stroke="#63b8ff" d="M622.26,-64.86C614.15,-64.32 605.82,-63.76 597.6,-63.21"/>
<polygon fill="#63b8ff" stroke="#63b8ff" points="621.93,-68.41 632.14,-65.59 622.4,-61.43 621.93,-68.41"/>
</a>
</g>
</g>
<!-- Node15 -->
<g id="Node000015" class="node">
<title>Node15</title>
<g id="a_Node000015"><a xlink:href="../../d9/d01/class_slic3r_1_1_g_u_i_1_1_g_u_i___app.html#a3990d018756b2f75d0ded99115353da9" target="_top" xlink:title=" ">
<polygon fill="white" stroke="#666666" points="578.12,-30.5 466.88,-30.5 466.88,0 578.12,0 578.12,-30.5"/>
<text text-anchor="start" x="474.88" y="-17" font-family="Helvetica,sans-Serif" font-size="10.00">Slic3r::GUI::GUI_App</text>
<text text-anchor="middle" x="522.5" y="-5.75" font-family="Helvetica,sans-Serif" font-size="10.00">::save_mode</text>
</a>
</g>
</g>
<!-- Node7&#45;&gt;Node15 -->
<g id="edge16_Node000007_Node000015" class="edge">
<title>Node7&#45;&gt;Node15</title>
<g id="a_edge16_Node000007_Node000015"><a xlink:title=" ">
<path fill="none" stroke="#63b8ff" d="M630.46,-50.19C619.44,-46.55 607.99,-42.78 597.25,-39.25 589.06,-36.56 580.36,-33.72 571.91,-30.96"/>
<polygon fill="#63b8ff" stroke="#63b8ff" points="629.26,-53.82 639.85,-53.63 631.46,-47.17 629.26,-53.82"/>
</a>
</g>
</g>
<!-- Node9 -->
<g id="Node000009" class="node">
<title>Node9</title>
<g id="a_Node000009"><a xlink:href="../../d9/d01/class_slic3r_1_1_g_u_i_1_1_g_u_i___app.html#afbb2db51b92bb9f89d3b414edd6195f6" target="_top" xlink:title=" ">
<polygon fill="white" stroke="#666666" points="411.75,-153.5 300.5,-153.5 300.5,-123 411.75,-123 411.75,-153.5"/>
<text text-anchor="start" x="308.5" y="-140" font-family="Helvetica,sans-Serif" font-size="10.00">Slic3r::GUI::GUI_App</text>
<text text-anchor="middle" x="356.12" y="-128.75" font-family="Helvetica,sans-Serif" font-size="10.00">::run_wizard</text>
</a>
</g>
</g>
<!-- Node8&#45;&gt;Node9 -->
<g id="edge10_Node000008_Node000009" class="edge">
<title>Node8&#45;&gt;Node9</title>
<g id="a_edge10_Node000008_Node000009"><a xlink:title=" ">
<path fill="none" stroke="#63b8ff" d="M472.46,-108.08C453.5,-113.04 431.72,-118.74 412.23,-123.83"/>
<polygon fill="#63b8ff" stroke="#63b8ff" points="473.17,-111.25 481.96,-105.33 471.4,-104.48 473.17,-111.25"/>
</a>
</g>
</g>
<!-- Node12 -->
<g id="Node000012" class="node">
<title>Node12</title>
<g id="a_Node000012"><a xlink:href="../../d9/d01/class_slic3r_1_1_g_u_i_1_1_g_u_i___app.html#a8b808b6a54e0a8e063b056771f72970b" target="_top" xlink:title=" ">
<polygon fill="white" stroke="#666666" points="411.75,-104.5 300.5,-104.5 300.5,-74 411.75,-74 411.75,-104.5"/>
<text text-anchor="start" x="308.5" y="-91" font-family="Helvetica,sans-Serif" font-size="10.00">Slic3r::GUI::GUI_App</text>
<text text-anchor="middle" x="356.12" y="-79.75" font-family="Helvetica,sans-Serif" font-size="10.00">::ShowOnlyFilament</text>
</a>
</g>
</g>
<!-- Node8&#45;&gt;Node12 -->
<g id="edge13_Node000008_Node000012" class="edge">
<title>Node8&#45;&gt;Node12</title>
<g id="a_edge13_Node000008_Node000012"><a xlink:title=" ">
<path fill="none" stroke="#63b8ff" d="M439.47,-92.26C430.16,-91.92 420.85,-91.58 412.02,-91.25"/>
<polygon fill="#63b8ff" stroke="#63b8ff" points="439.24,-95.79 449.36,-92.65 439.49,-88.79 439.24,-95.79"/>
</a>
</g>
</g>
<!-- Node13 -->
<g id="Node000013" class="node">
<title>Node13</title>
<g id="a_Node000013"><a xlink:href="../../d9/d01/class_slic3r_1_1_g_u_i_1_1_g_u_i___app.html#a7f18c721746b2778fb9316be678871cf" target="_top" xlink:title=" ">
<polygon fill="white" stroke="#666666" points="411.75,-55.5 300.5,-55.5 300.5,-25 411.75,-25 411.75,-55.5"/>
<text text-anchor="start" x="308.5" y="-42" font-family="Helvetica,sans-Serif" font-size="10.00">Slic3r::GUI::GUI_App</text>
<text text-anchor="middle" x="356.12" y="-30.75" font-family="Helvetica,sans-Serif" font-size="10.00">::ShowUserGuide</text>
</a>
</g>
</g>
<!-- Node8&#45;&gt;Node13 -->
<g id="edge14_Node000008_Node000013" class="edge">
<title>Node8&#45;&gt;Node13</title>
<g id="a_edge14_Node000008_Node000013"><a xlink:title=" ">
<path fill="none" stroke="#63b8ff" d="M465.04,-82.38C459.16,-80.77 453.31,-79.05 447.75,-77.25 429,-71.17 408.63,-63 391.97,-55.89"/>
<polygon fill="#63b8ff" stroke="#63b8ff" points="464.01,-85.99 474.57,-85.16 465.79,-79.23 464.01,-85.99"/>
</a>
</g>
</g>
<!-- Node10 -->
<g id="Node000010" class="node">
<title>Node10</title>
<g id="a_Node000010"><a xlink:href="../../d9/d01/class_slic3r_1_1_g_u_i_1_1_g_u_i___app.html#a6ce6055613c92e1690cf396e3d33b4ce" target="_top" xlink:title=" ">
<polygon fill="white" stroke="#666666" points="264.5,-153.5 147.25,-153.5 147.25,-123 264.5,-123 264.5,-153.5"/>
<text text-anchor="start" x="155.25" y="-140" font-family="Helvetica,sans-Serif" font-size="10.00">Slic3r::GUI::GUI_App</text>
<text text-anchor="middle" x="205.88" y="-128.75" font-family="Helvetica,sans-Serif" font-size="10.00">::config_wizard_startup</text>
</a>
</g>
</g>
<!-- Node9&#45;&gt;Node10 -->
<g id="edge11_Node000009_Node000010" class="edge">
<title>Node9&#45;&gt;Node10</title>
<g id="a_edge11_Node000009_Node000010"><a xlink:title=" ">
<path fill="none" stroke="#63b8ff" d="M289.36,-138.25C281.21,-138.25 272.93,-138.25 264.91,-138.25"/>
<polygon fill="#63b8ff" stroke="#63b8ff" points="289.34,-141.75 299.34,-138.25 289.34,-134.75 289.34,-141.75"/>
</a>
</g>
</g>
<!-- Node11 -->
<g id="Node000011" class="node">
<title>Node11</title>
<g id="a_Node000011"><a xlink:href="../../d9/d01/class_slic3r_1_1_g_u_i_1_1_g_u_i___app.html#a92b16a3ad6111d682dd4d779531e674e" target="_top" xlink:title=" ">
<polygon fill="white" stroke="#666666" points="111.25,-153.5 0,-153.5 0,-123 111.25,-123 111.25,-153.5"/>
<text text-anchor="start" x="8" y="-140" font-family="Helvetica,sans-Serif" font-size="10.00">Slic3r::GUI::GUI_App</text>
<text text-anchor="middle" x="55.62" y="-128.75" font-family="Helvetica,sans-Serif" font-size="10.00">::post_init</text>
</a>
</g>
</g>
<!-- Node10&#45;&gt;Node11 -->
<g id="edge12_Node000010_Node000011" class="edge">
<title>Node10&#45;&gt;Node11</title>
<g id="a_edge12_Node000010_Node000011"><a xlink:title=" ">
<path fill="none" stroke="#63b8ff" d="M136.31,-138.25C128,-138.25 119.61,-138.25 111.54,-138.25"/>
<polygon fill="#63b8ff" stroke="#63b8ff" points="136.13,-141.75 146.13,-138.25 136.13,-134.75 136.13,-141.75"/>
</a>
</g>
</g>
</g>
</svg>

<g id="navigator" transform="translate(0 0)" fill="#404254">
  <rect fill="#f2f5e9" fill-opacity="0.5" stroke="#606060" stroke-width=".5" x="0" y="0" width="60" height="60"/>
  <use id="zoomplus" xlink:href="#zoomPlus" x="17" y="9" onmousedown="handleZoom(evt,'in')"/>
  <use id="zoomminus" xlink:href="#zoomMin" x="42" y="9" onmousedown="handleZoom(evt,'out')"/>
  <use id="reset" xlink:href="#resetDef" x="30" y="36" onmousedown="handleReset()"/>
   <use id="arrowup" xlink:href="#arrowUp" x="0" y="0" onmousedown="handlePan(0,-1)"/>
  <use id="arrowright" xlink:href="#arrowRight" x="0" y="0" onmousedown="handlePan(1,0)"/>
  <use id="arrowdown" xlink:href="#arrowDown" x="0" y="0" onmousedown="handlePan(0,1)"/>
  <use id="arrowleft" xlink:href="#arrowLeft" x="0" y="0" onmousedown="handlePan(-1,0)"/>
</g>
<svg viewBox="0 0 15 15" width="100%" height="30px" preserveAspectRatio="xMaxYMin meet">
 <g id="arrow_out" transform="scale(0.3 0.3)">
  <a xlink:href="class_slic3r_1_1_g_u_i_1_1_g_u_i___app_aea934847cb494b068b0371d2512f542e_icgraph_org.svg" target="_base">
   <rect id="button" ry="5" rx="5" y="6" x="6" height="38" width="38"
        fill="#f2f5e9" fill-opacity="0.5" stroke="#606060" stroke-width="1.0"/>
   <path id="arrow"
     d="M 11.500037,31.436501 C 11.940474,20.09759 22.043105,11.32322 32.158766,21.979434 L 37.068811,17.246167 C 37.068811,17.246167 37.088388,32 37.088388,32 L 22.160133,31.978069 C 22.160133,31.978069 26.997745,27.140456 26.997745,27.140456 C 18.528582,18.264221 13.291696,25.230495 11.500037,31.436501 z"
     style="fill:#404040;"/>
  </a>
 </g>
</svg>

<style type='text/css'>
<![CDATA[
[data-mouse-over-selected='false'] { opacity: 0.7; }
[data-mouse-over-selected='true']  { opacity: 1.0; }
]]>
</style>
<script type="application/ecmascript"><![CDATA[
document.addEventListener('DOMContentLoaded', (event) => {
  highlightEdges();
  highlightAdjacentNodes();
});
]]></script>
</svg>
