<?xml version="1.0" encoding="UTF-8" standalone="no"?>
<!DOCTYPE svg PUBLIC "-//W3C//DTD SVG 1.1//EN"
 "http://www.w3.org/Graphics/SVG/1.1/DTD/svg11.dtd">
<!-- Generated by graphviz version 8.1.0 (20230707.0739)
 -->
<!-- Title: Slic3r::GUI::GUI_App::on_http_error Pages: 1 -->
<svg width="715pt" height="296pt"
 viewBox="0.00 0.00 715.00 295.50" xmlns="http://www.w3.org/2000/svg" xmlns:xlink="http://www.w3.org/1999/xlink">
<g id="graph0" class="graph" transform="scale(1 1) rotate(0) translate(4 291.5)">
<title>Slic3r::GUI::GUI_App::on_http_error</title>
<!-- Node1 -->
<g id="Node000001" class="node">
<title>Node1</title>
<g id="a_Node000001"><a xlink:title=" ">
<polygon fill="#999999" stroke="#666666" points="111.25,-176.5 0,-176.5 0,-146 111.25,-146 111.25,-176.5"/>
<text text-anchor="start" x="8" y="-163" font-family="Helvetica,sans-Serif" font-size="10.00">Slic3r::GUI::GUI_App</text>
<text text-anchor="middle" x="55.62" y="-151.75" font-family="Helvetica,sans-Serif" font-size="10.00">::on_http_error</text>
</a>
</g>
</g>
<!-- Node2 -->
<g id="Node000002" class="node">
<title>Node2</title>
<g id="a_Node000002"><a xlink:href="../../d9/dcc/classnlohmann_1_1basic__json.html#a02c9bc4d0f33b7dec20b2798301d6971" target="_top" xlink:title="check the existence of an element in a JSON object">
<polygon fill="white" stroke="#666666" points="267.5,-287.5 157,-287.5 157,-257 267.5,-257 267.5,-287.5"/>
<text text-anchor="start" x="165" y="-274" font-family="Helvetica,sans-Serif" font-size="10.00">nlohmann::basic_json</text>
<text text-anchor="middle" x="212.25" y="-262.75" font-family="Helvetica,sans-Serif" font-size="10.00">::contains</text>
</a>
</g>
</g>
<!-- Node1&#45;&gt;Node2 -->
<g id="edge1_Node000001_Node000002" class="edge">
<title>Node1&#45;&gt;Node2</title>
<g id="a_edge1_Node000001_Node000002"><a xlink:title=" ">
<path fill="none" stroke="#63b8ff" d="M69.24,-176.75C85.51,-195.86 115.5,-228.26 147.25,-248.25 149.25,-249.51 151.32,-250.72 153.45,-251.87"/>
<polygon fill="#63b8ff" stroke="#63b8ff" points="151.52,-255.32 162.04,-256.63 154.63,-249.05 151.52,-255.32"/>
</a>
</g>
</g>
<!-- Node4 -->
<g id="Node000004" class="node">
<title>Node4</title>
<g id="a_Node000004"><a xlink:href="../../d9/dcc/classnlohmann_1_1basic__json.html#af1650e004db368459b3c0db041b32adc" target="_top" xlink:title="get a (pointer) value (explicit)">
<polygon fill="white" stroke="#666666" points="277.25,-238.88 147.25,-238.88 147.25,-219.62 277.25,-219.62 277.25,-238.88"/>
<text text-anchor="middle" x="212.25" y="-225.38" font-family="Helvetica,sans-Serif" font-size="10.00">nlohmann::basic_json::get</text>
</a>
</g>
</g>
<!-- Node1&#45;&gt;Node4 -->
<g id="edge3_Node000001_Node000004" class="edge">
<title>Node1&#45;&gt;Node4</title>
<g id="a_edge3_Node000001_Node000004"><a xlink:title=" ">
<path fill="none" stroke="#63b8ff" d="M82.1,-176.87C99.89,-187.32 124.44,-200.82 147.25,-210.25 152.02,-212.22 157.07,-214.08 162.15,-215.81"/>
<polygon fill="#63b8ff" stroke="#63b8ff" points="160.97,-219.43 171.56,-219.17 163.11,-212.77 160.97,-219.43"/>
</a>
</g>
</g>
<!-- Node5 -->
<g id="Node000005" class="node">
<title>Node5</title>
<g id="a_Node000005"><a xlink:href="../../d7/daf/class_slic3r_1_1_network_agent.html#a6df7f8ec1818e050e126d4b5f93f2409" target="_top" xlink:title=" ">
<polygon fill="white" stroke="#666666" points="266.75,-201.5 157.75,-201.5 157.75,-171 266.75,-171 266.75,-201.5"/>
<text text-anchor="start" x="165.75" y="-188" font-family="Helvetica,sans-Serif" font-size="10.00">Slic3r::NetworkAgent</text>
<text text-anchor="middle" x="212.25" y="-176.75" font-family="Helvetica,sans-Serif" font-size="10.00">::is_user_login</text>
</a>
</g>
</g>
<!-- Node1&#45;&gt;Node5 -->
<g id="edge4_Node000001_Node000005" class="edge">
<title>Node1&#45;&gt;Node5</title>
<g id="a_edge4_Node000001_Node000005"><a xlink:title=" ">
<path fill="none" stroke="#63b8ff" d="M111.58,-170.13C122.94,-171.97 135.01,-173.92 146.68,-175.81"/>
<polygon fill="#63b8ff" stroke="#63b8ff" points="145.83,-179.38 156.26,-177.52 146.94,-172.47 145.83,-179.38"/>
</a>
</g>
</g>
<!-- Node6 -->
<g id="Node000006" class="node">
<title>Node6</title>
<g id="a_Node000006"><a xlink:href="../../d9/dcc/classnlohmann_1_1basic__json.html#a15018ade392a844ea32d5188d1a0b9c6" target="_top" xlink:title="deserialize from a compatible input">
<polygon fill="white" stroke="#666666" points="267.5,-152.5 157,-152.5 157,-122 267.5,-122 267.5,-152.5"/>
<text text-anchor="start" x="165" y="-139" font-family="Helvetica,sans-Serif" font-size="10.00">nlohmann::basic_json</text>
<text text-anchor="middle" x="212.25" y="-127.75" font-family="Helvetica,sans-Serif" font-size="10.00">::parse</text>
</a>
</g>
</g>
<!-- Node1&#45;&gt;Node6 -->
<g id="edge5_Node000001_Node000006" class="edge">
<title>Node1&#45;&gt;Node6</title>
<g id="a_edge5_Node000001_Node000006"><a xlink:title=" ">
<path fill="none" stroke="#63b8ff" d="M111.58,-152.72C122.69,-151 134.48,-149.17 145.92,-147.39"/>
<polygon fill="#63b8ff" stroke="#63b8ff" points="146.39,-150.7 155.74,-145.71 145.32,-143.79 146.39,-150.7"/>
</a>
</g>
</g>
<!-- Node8 -->
<g id="Node000008" class="node">
<title>Node8</title>
<g id="a_Node000008"><a xlink:href="../../d9/d01/class_slic3r_1_1_g_u_i_1_1_g_u_i___app.html#a35c6591dcc73eb849f753374771878f1" target="_top" xlink:title=" ">
<polygon fill="white" stroke="#666666" points="267.88,-103.5 156.62,-103.5 156.62,-73 267.88,-73 267.88,-103.5"/>
<text text-anchor="start" x="164.62" y="-90" font-family="Helvetica,sans-Serif" font-size="10.00">Slic3r::GUI::GUI_App</text>
<text text-anchor="middle" x="212.25" y="-78.75" font-family="Helvetica,sans-Serif" font-size="10.00">::request_user_logout</text>
</a>
</g>
</g>
<!-- Node1&#45;&gt;Node8 -->
<g id="edge7_Node000001_Node000008" class="edge">
<title>Node1&#45;&gt;Node8</title>
<g id="a_edge7_Node000001_Node000008"><a xlink:title=" ">
<path fill="none" stroke="#63b8ff" d="M83.98,-145.71C101.75,-135.88 125.56,-123.19 147.25,-113.25 151.05,-111.51 155,-109.78 159,-108.09"/>
<polygon fill="#63b8ff" stroke="#63b8ff" points="160.05,-111.03 167.96,-103.98 157.38,-104.55 160.05,-111.03"/>
</a>
</g>
</g>
<!-- Node14 -->
<g id="Node000014" class="node">
<title>Node14</title>
<g id="a_Node000014"><a xlink:href="../../d7/d9a/class_slic3r_1_1_g_u_i_1_1_d_p_i_aware.html#a80ad44dab63cbb16dd41df84ba9e1be9" target="_top" xlink:title=" ">
<polygon fill="white" stroke="#666666" points="270.12,-54.5 154.38,-54.5 154.38,-24 270.12,-24 270.12,-54.5"/>
<text text-anchor="start" x="162.38" y="-41" font-family="Helvetica,sans-Serif" font-size="10.00">Slic3r::GUI::DPIAware</text>
<text text-anchor="middle" x="212.25" y="-29.75" font-family="Helvetica,sans-Serif" font-size="10.00">::ShowModal</text>
</a>
</g>
</g>
<!-- Node1&#45;&gt;Node14 -->
<g id="edge13_Node000001_Node000014" class="edge">
<title>Node1&#45;&gt;Node14</title>
<g id="a_edge13_Node000001_Node000014"><a xlink:title=" ">
<path fill="none" stroke="#63b8ff" d="M67.54,-145.78C83.09,-124.75 113.49,-87.14 147.25,-64.25 149.5,-62.73 151.85,-61.28 154.27,-59.9"/>
<polygon fill="#63b8ff" stroke="#63b8ff" points="155.6,-62.64 162.88,-54.94 152.39,-56.42 155.6,-62.64"/>
</a>
</g>
</g>
<!-- Node3 -->
<g id="Node000003" class="node">
<title>Node3</title>
<g id="a_Node000003"><a xlink:href="../../d9/dcc/classnlohmann_1_1basic__json.html#a57e8411a770a6263d6d8f2116c37f3aa" target="_top" xlink:title="return whether value is an object">
<polygon fill="white" stroke="#666666" points="440.25,-287.5 329.75,-287.5 329.75,-257 440.25,-257 440.25,-287.5"/>
<text text-anchor="start" x="337.75" y="-274" font-family="Helvetica,sans-Serif" font-size="10.00">nlohmann::basic_json</text>
<text text-anchor="middle" x="385" y="-262.75" font-family="Helvetica,sans-Serif" font-size="10.00">::is_object</text>
</a>
</g>
</g>
<!-- Node2&#45;&gt;Node3 -->
<g id="edge2_Node000002_Node000003" class="edge">
<title>Node2&#45;&gt;Node3</title>
<g id="a_edge2_Node000002_Node000003"><a xlink:title=" ">
<path fill="none" stroke="#63b8ff" d="M267.75,-272.25C283.92,-272.25 301.8,-272.25 318.59,-272.25"/>
<polygon fill="#63b8ff" stroke="#63b8ff" points="318.44,-275.75 328.44,-272.25 318.44,-268.75 318.44,-275.75"/>
</a>
</g>
</g>
<!-- Node7 -->
<g id="Node000007" class="node">
<title>Node7</title>
<g id="a_Node000007"><a xlink:href="../../dc/df0/namespacenlohmann_1_1detail.html#a616a53cc3114fdc113fc44e6af4c3c7f" target="_top" xlink:title=" ">
<polygon fill="white" stroke="#666666" points="442.12,-177.5 327.88,-177.5 327.88,-147 442.12,-147 442.12,-177.5"/>
<text text-anchor="start" x="335.88" y="-164" font-family="Helvetica,sans-Serif" font-size="10.00">nlohmann::detail::input</text>
<text text-anchor="middle" x="385" y="-152.75" font-family="Helvetica,sans-Serif" font-size="10.00">_adapter</text>
</a>
</g>
</g>
<!-- Node6&#45;&gt;Node7 -->
<g id="edge6_Node000006_Node000007" class="edge">
<title>Node6&#45;&gt;Node7</title>
<g id="a_edge6_Node000006_Node000007"><a xlink:title=" ">
<path fill="none" stroke="#63b8ff" d="M267.75,-145.23C283.36,-147.51 300.56,-150.03 316.84,-152.42"/>
<polygon fill="#63b8ff" stroke="#63b8ff" points="315.98,-155.97 326.38,-153.96 316.99,-149.05 315.98,-155.97"/>
</a>
</g>
</g>
<!-- Node9 -->
<g id="Node000009" class="node">
<title>Node9</title>
<g id="a_Node000009"><a xlink:href="../../db/d79/class_slic3r_1_1_device_manager.html#a74e82142d5c6e6693fb7170dbd4e3d50" target="_top" xlink:title=" ">
<polygon fill="white" stroke="#666666" points="442.5,-128.5 327.5,-128.5 327.5,-98 442.5,-98 442.5,-128.5"/>
<text text-anchor="start" x="335.5" y="-115" font-family="Helvetica,sans-Serif" font-size="10.00">Slic3r::DeviceManager</text>
<text text-anchor="middle" x="385" y="-103.75" font-family="Helvetica,sans-Serif" font-size="10.00">::clean_user_info</text>
</a>
</g>
</g>
<!-- Node8&#45;&gt;Node9 -->
<g id="edge8_Node000008_Node000009" class="edge">
<title>Node8&#45;&gt;Node9</title>
<g id="a_edge8_Node000008_Node000009"><a xlink:title=" ">
<path fill="none" stroke="#63b8ff" d="M268.22,-96.3C283.5,-98.54 300.29,-100.99 316.22,-103.33"/>
<polygon fill="#63b8ff" stroke="#63b8ff" points="315.68,-106.93 326.08,-104.92 316.69,-100 315.68,-106.93"/>
</a>
</g>
</g>
<!-- Node12 -->
<g id="Node000012" class="node">
<title>Node12</title>
<g id="a_Node000012"><a xlink:href="../../d7/daf/class_slic3r_1_1_network_agent.html#a00d93d1e1272a59f9089fa1c2fa6414e" target="_top" xlink:title=" ">
<polygon fill="white" stroke="#666666" points="456.75,-79.5 313.25,-79.5 313.25,-49 456.75,-49 456.75,-79.5"/>
<text text-anchor="start" x="321.25" y="-66" font-family="Helvetica,sans-Serif" font-size="10.00">Slic3r::NetworkAgent</text>
<text text-anchor="middle" x="385" y="-54.75" font-family="Helvetica,sans-Serif" font-size="10.00">::set_user_selected_machine</text>
</a>
</g>
</g>
<!-- Node8&#45;&gt;Node12 -->
<g id="edge11_Node000008_Node000012" class="edge">
<title>Node8&#45;&gt;Node12</title>
<g id="a_edge11_Node000008_Node000012"><a xlink:title=" ">
<path fill="none" stroke="#63b8ff" d="M268.22,-80.52C279.11,-78.99 290.77,-77.35 302.34,-75.73"/>
<polygon fill="#63b8ff" stroke="#63b8ff" points="302.5,-79.1 311.91,-74.24 301.52,-72.17 302.5,-79.1"/>
</a>
</g>
</g>
<!-- Node13 -->
<g id="Node000013" class="node">
<title>Node13</title>
<g id="a_Node000013"><a xlink:href="../../d7/daf/class_slic3r_1_1_network_agent.html#ad3189b521baec13f7eb9990beff19fc7" target="_top" xlink:title=" ">
<polygon fill="white" stroke="#666666" points="439.5,-30.5 330.5,-30.5 330.5,0 439.5,0 439.5,-30.5"/>
<text text-anchor="start" x="338.5" y="-17" font-family="Helvetica,sans-Serif" font-size="10.00">Slic3r::NetworkAgent</text>
<text text-anchor="middle" x="385" y="-5.75" font-family="Helvetica,sans-Serif" font-size="10.00">::user_logout</text>
</a>
</g>
</g>
<!-- Node8&#45;&gt;Node13 -->
<g id="edge12_Node000008_Node000013" class="edge">
<title>Node8&#45;&gt;Node13</title>
<g id="a_edge12_Node000008_Node000013"><a xlink:title=" ">
<path fill="none" stroke="#63b8ff" d="M256.79,-72.57C263.74,-69.69 270.76,-66.55 277.25,-63.25 294.17,-54.64 296.19,-48.58 313.25,-40.25 317.03,-38.41 320.98,-36.63 324.99,-34.93"/>
<polygon fill="#63b8ff" stroke="#63b8ff" points="326.09,-37.86 334.06,-30.89 323.48,-31.37 326.09,-37.86"/>
</a>
</g>
</g>
<!-- Node10 -->
<g id="Node000010" class="node">
<title>Node10</title>
<g id="a_Node000010"><a xlink:href="../../de/db8/namespace_slic3r.html#a06b86e5331aac1c640f8f7f40d798175" target="_top" xlink:title=" ">
<polygon fill="white" stroke="#666666" points="561.25,-122.88 492.75,-122.88 492.75,-103.62 561.25,-103.62 561.25,-122.88"/>
<text text-anchor="middle" x="527" y="-109.38" font-family="Helvetica,sans-Serif" font-size="10.00">Slic3r::trace</text>
</a>
</g>
</g>
<!-- Node9&#45;&gt;Node10 -->
<g id="edge9_Node000009_Node000010" class="edge">
<title>Node9&#45;&gt;Node10</title>
<g id="a_edge9_Node000009_Node000010"><a xlink:title=" ">
<path fill="none" stroke="#63b8ff" d="M442.94,-113.25C455.81,-113.25 469.29,-113.25 481.55,-113.25"/>
<polygon fill="#63b8ff" stroke="#63b8ff" points="481.42,-116.75 491.42,-113.25 481.42,-109.75 481.42,-116.75"/>
</a>
</g>
</g>
<!-- Node11 -->
<g id="Node000011" class="node">
<title>Node11</title>
<g id="a_Node000011"><a xlink:href="../../de/db8/namespace_slic3r.html#a9cee7b60f26f304ff21ca61b33e11b8d" target="_top" xlink:title=" ">
<polygon fill="white" stroke="#666666" points="707,-122.88 597.25,-122.88 597.25,-103.62 707,-103.62 707,-122.88"/>
<text text-anchor="middle" x="652.12" y="-109.38" font-family="Helvetica,sans-Serif" font-size="10.00">Slic3r::level_to_boost</text>
</a>
</g>
</g>
<!-- Node10&#45;&gt;Node11 -->
<g id="edge10_Node000010_Node000011" class="edge">
<title>Node10&#45;&gt;Node11</title>
<g id="a_edge10_Node000010_Node000011"><a xlink:title=" ">
<path fill="none" stroke="#63b8ff" d="M561.64,-113.25C569.35,-113.25 577.81,-113.25 586.34,-113.25"/>
<polygon fill="#63b8ff" stroke="#63b8ff" points="586.14,-116.75 596.14,-113.25 586.14,-109.75 586.14,-116.75"/>
</a>
</g>
</g>
</g>
</svg>
