<?xml version="1.0" encoding="UTF-8" standalone="no"?>
<!DOCTYPE svg PUBLIC "-//W3C//DTD SVG 1.1//EN"
 "http://www.w3.org/Graphics/SVG/1.1/DTD/svg11.dtd">
<!-- Generated by graphviz version 8.1.0 (20230707.0739)
 -->
<!-- Title: AuxiliaryModel::Compare Pages: 1 -->
<svg width="445pt" height="76pt"
 viewBox="0.00 0.00 444.50 75.88" xmlns="http://www.w3.org/2000/svg" xmlns:xlink="http://www.w3.org/1999/xlink">

<svg id="main" version="1.1" xmlns="http://www.w3.org/2000/svg" xmlns:xlink="http://www.w3.org/1999/xlink" xml:space="preserve" onload="init(evt)">
<style type="text/css"><![CDATA[
.node, .edge {opacity: 0.7;}
.node.selected, .edge.selected {opacity: 1;}
.edge:hover path { stroke: red; }
.edge:hover polygon { stroke: red; fill: red; }
]]></style>
<script type="application/ecmascript" xlink:href="../../svg.min.js"/>
<svg id="graph" class="graph">
<g id="graph0" class="graph" transform="scale(1 1) rotate(0) translate(4 71.88)">
<title>AuxiliaryModel::Compare</title>
<!-- Node1 -->
<g id="Node000001" class="node">
<title>Node1</title>
<g id="a_Node000001"><a xlink:title=" ">
<polygon fill="#999999" stroke="#666666" points="125.5,-45.88 0,-45.88 0,-26.62 125.5,-26.62 125.5,-45.88"/>
<text text-anchor="middle" x="62.75" y="-32.38" font-family="Helvetica,sans-Serif" font-size="10.00">AuxiliaryModel::Compare</text>
</a>
</g>
</g>
<!-- Node2 -->
<g id="Node000002" class="node">
<title>Node2</title>
<g id="a_Node000002"><a xlink:href="../../d7/d46/class_auxiliary_model.html#a9e4afd66e96831b50edda1eac7521fdc" target="_top" xlink:title=" ">
<polygon fill="white" stroke="#666666" points="292.25,-65.88 166.75,-65.88 166.75,-46.62 292.25,-46.62 292.25,-65.88"/>
<text text-anchor="middle" x="229.5" y="-52.38" font-family="Helvetica,sans-Serif" font-size="10.00">AuxiliaryModel::GetValue</text>
</a>
</g>
</g>
<!-- Node1&#45;&gt;Node2 -->
<g id="edge1_Node000001_Node000002" class="edge">
<title>Node1&#45;&gt;Node2</title>
<g id="a_edge1_Node000001_Node000002"><a xlink:title=" ">
<path fill="none" stroke="#63b8ff" d="M125.57,-43.75C135.36,-44.94 145.56,-46.18 155.57,-47.4"/>
<polygon fill="#63b8ff" stroke="#63b8ff" points="154.99,-50.97 165.34,-48.7 155.83,-44.02 154.99,-50.97"/>
</a>
</g>
</g>
<!-- Node4 -->
<g id="Node000004" class="node">
<title>Node4</title>
<g id="a_Node000004"><a xlink:href="../../d7/d46/class_auxiliary_model.html#a86849af9fb59a8ce48699313b3d35788" target="_top" xlink:title=" ">
<polygon fill="white" stroke="#666666" points="297.5,-27.88 161.5,-27.88 161.5,-8.62 297.5,-8.62 297.5,-27.88"/>
<text text-anchor="middle" x="229.5" y="-14.38" font-family="Helvetica,sans-Serif" font-size="10.00">AuxiliaryModel::IsContainer</text>
</a>
</g>
</g>
<!-- Node1&#45;&gt;Node4 -->
<g id="edge3_Node000001_Node000004" class="edge">
<title>Node1&#45;&gt;Node4</title>
<g id="a_edge3_Node000001_Node000004"><a xlink:title=" ">
<path fill="none" stroke="#63b8ff" d="M125.57,-29.5C133.63,-28.62 141.97,-27.7 150.26,-26.8"/>
<polygon fill="#63b8ff" stroke="#63b8ff" points="150.53,-30.18 160.09,-25.61 149.77,-23.22 150.53,-30.18"/>
</a>
</g>
</g>
<!-- Node3 -->
<g id="Node000003" class="node">
<title>Node3</title>
<g id="a_Node000003"><a xlink:href="../../d6/d4f/_block_methods_8h.html#ac820575ee62de615224f350c02085469" target="_top" xlink:title="This is the const version of col().">
<polygon fill="white" stroke="#666666" points="399.4,-67.88 370.6,-67.88 370.6,-48.62 399.4,-48.62 399.4,-67.88"/>
<text text-anchor="middle" x="385" y="-54.38" font-family="Helvetica,sans-Serif" font-size="10.00">col</text>
</a>
</g>
</g>
<!-- Node2&#45;&gt;Node3 -->
<g id="edge2_Node000002_Node000003" class="edge">
<title>Node2&#45;&gt;Node3</title>
<g id="a_edge2_Node000002_Node000003"><a xlink:title=" ">
<path fill="none" stroke="#63b8ff" d="M292.49,-57.06C315.86,-57.36 341.12,-57.69 359.17,-57.93"/>
<polygon fill="#63b8ff" stroke="#63b8ff" points="359.11,-61.44 369.15,-58.07 359.2,-54.44 359.11,-61.44"/>
</a>
</g>
</g>
<!-- Node5 -->
<g id="Node000005" class="node">
<title>Node5</title>
<g id="a_Node000005"><a xlink:href="../../d7/d0a/class_auxiliary_model_node.html#a0fd17e0f913dd8b6224a32814eee7968" target="_top" xlink:title=" ">
<polygon fill="white" stroke="#666666" points="436.5,-30.5 333.5,-30.5 333.5,0 436.5,0 436.5,-30.5"/>
<text text-anchor="start" x="341.5" y="-17" font-family="Helvetica,sans-Serif" font-size="10.00">AuxiliaryModelNode</text>
<text text-anchor="middle" x="385" y="-5.75" font-family="Helvetica,sans-Serif" font-size="10.00">::IsContainer</text>
</a>
</g>
</g>
<!-- Node4&#45;&gt;Node5 -->
<g id="edge4_Node000004_Node000005" class="edge">
<title>Node4&#45;&gt;Node5</title>
<g id="a_edge4_Node000004_Node000005"><a xlink:title=" ">
<path fill="none" stroke="#63b8ff" d="M297.83,-16.93C306.02,-16.77 314.37,-16.61 322.47,-16.45"/>
<polygon fill="#63b8ff" stroke="#63b8ff" points="322.41,-19.93 332.34,-16.24 322.28,-12.94 322.41,-19.93"/>
</a>
</g>
</g>
</g>
</svg>
</svg>

<style type='text/css'>
<![CDATA[
[data-mouse-over-selected='false'] { opacity: 0.7; }
[data-mouse-over-selected='true']  { opacity: 1.0; }
]]>
</style>
<script type="application/ecmascript"><![CDATA[
document.addEventListener('DOMContentLoaded', (event) => {
  highlightEdges();
  highlightAdjacentNodes();
});
]]></script>
</svg>
