<?xml version="1.0" encoding="UTF-8" standalone="no"?>
<!DOCTYPE svg PUBLIC "-//W3C//DTD SVG 1.1//EN"
 "http://www.w3.org/Graphics/SVG/1.1/DTD/svg11.dtd">
<!-- Generated by graphviz version 8.1.0 (20230707.0739)
 -->
<!-- Title: Slic3r::GUI::ObjectDataViewModelNode::set_extruder_icon Pages: 1 -->
<!--zoomable 137 -->

<svg id="main" version="1.1" xmlns="http://www.w3.org/2000/svg" xmlns:xlink="http://www.w3.org/1999/xlink" xml:space="preserve" onload="init(evt)">
<style type="text/css"><![CDATA[
.node, .edge {opacity: 0.7;}
.node.selected, .edge.selected {opacity: 1;}
.edge:hover path { stroke: red; }
.edge:hover polygon { stroke: red; fill: red; }
]]></style>

<defs>
  <circle id="rim" cx="0" cy="0" r="7"/>
  <circle id="rim2" cx="0" cy="0" r="3.5"/>
  <g id="zoomPlus">
    <use xlink:href="#rim" fill="#404040"><set attributeName="fill" to="#808080" begin="zoomplus.mouseover" end="zoomplus.mouseout"/></use>
    <path d="M-4,0h8M0,-4v8" fill="none" stroke="white" stroke-width="1.5" pointer-events="none"/>
  </g>
  <g id="zoomMin">
    <use xlink:href="#rim" fill="#404040"><set attributeName="fill" to="#808080" begin="zoomminus.mouseover" end="zoomminus.mouseout"/></use>
    <path d="M-4,0h8" fill="none" stroke="white" stroke-width="1.5" pointer-events="none"/>
  </g>
  <g id="arrowUp" transform="translate(30 24)">
    <use xlink:href="#rim"/>
    <path pointer-events="none" fill="none" stroke="white" stroke-width="1.5" d="M0,-3.0v7 M-2.5,-0.5L0,-3.0L2.5,-0.5"/>
  </g>
  <g id="arrowRight" transform="rotate(90) translate(36 -43)">
    <use xlink:href="#rim"/>
    <path pointer-events="none" fill="none" stroke="white" stroke-width="1.5" d="M0,-3.0v7 M-2.5,-0.5L0,-3.0L2.5,-0.5"/>
  </g>
  <g id="arrowDown" transform="rotate(180) translate(-30 -48)">
    <use xlink:href="#rim"/>
    <path pointer-events="none" fill="none" stroke="white" stroke-width="1.5" d="M0,-3.0v7 M-2.5,-0.5L0,-3.0L2.5,-0.5"/>
  </g>
  <g id="arrowLeft" transform="rotate(270) translate(-36 17)">
    <use xlink:href="#rim"/>
    <path pointer-events="none" fill="none" stroke="white" stroke-width="1.5" d="M0,-3.0v7 M-2.5,-0.5L0,-3.0L2.5,-0.5"/>
  </g>
  <g id="resetDef">
    <use xlink:href="#rim2" fill="#404040"><set attributeName="fill" to="#808080" begin="reset.mouseover" end="reset.mouseout"/></use>
  </g>
</defs>
<script type="application/ecmascript">
var viewWidth = 736;
var viewHeight = 137;
var sectionId = 'dynsection-39';
</script>
<script type="application/ecmascript" xlink:href="../../svg.min.js"/>
<svg id="graph" class="graph">
<g id="viewport">
<title>Slic3r::GUI::ObjectDataViewModelNode::set_extruder_icon</title>
<!-- Node1 -->
<g id="Node000001" class="node">
<title>Node1</title>
<g id="a_Node000001"><a xlink:title=" ">
<polygon fill="#999999" stroke="#666666" points="148.75,-79.5 0,-79.5 0,-49 148.75,-49 148.75,-79.5"/>
<text text-anchor="start" x="8" y="-66" font-family="Helvetica,sans-Serif" font-size="10.00">Slic3r::GUI::ObjectDataView</text>
<text text-anchor="middle" x="74.38" y="-54.75" font-family="Helvetica,sans-Serif" font-size="10.00">ModelNode::set_extruder_icon</text>
</a>
</g>
</g>
<!-- Node2 -->
<g id="Node000002" class="node">
<title>Node2</title>
<g id="a_Node000002"><a xlink:href="../../d6/d78/class_slic3r_1_1_g_u_i_1_1_object_data_view_model_node.html#a0787c541f88efa56a9dd753e423ca768" target="_top" xlink:title=" ">
<polygon fill="white" stroke="#666666" points="383.75,-79.5 184.75,-79.5 184.75,-49 383.75,-49 383.75,-79.5"/>
<text text-anchor="start" x="192.75" y="-66" font-family="Helvetica,sans-Serif" font-size="10.00">Slic3r::GUI::ObjectDataView</text>
<text text-anchor="middle" x="284.25" y="-54.75" font-family="Helvetica,sans-Serif" font-size="10.00">ModelNode::UpdateExtruderAndColorIcon</text>
</a>
</g>
</g>
<!-- Node1&#45;&gt;Node2 -->
<g id="edge1_Node000001_Node000002" class="edge">
<title>Node1&#45;&gt;Node2</title>
<g id="a_edge1_Node000001_Node000002"><a xlink:title=" ">
<path fill="none" stroke="#63b8ff" d="M149.25,-64.25C157.2,-64.25 165.41,-64.25 173.67,-64.25"/>
<polygon fill="#63b8ff" stroke="#63b8ff" points="173.53,-67.75 183.53,-64.25 173.53,-60.75 173.53,-67.75"/>
</a>
</g>
</g>
<!-- Node3 -->
<g id="Node000003" class="node">
<title>Node3</title>
<g id="a_Node000003"><a xlink:href="../../d7/d58/wx_extensions_8cpp.html#a89d5912e2a8fa0188a3a897cb2500396" target="_top" xlink:title=" ">
<polygon fill="white" stroke="#666666" points="543,-79.5 438.5,-79.5 438.5,-49 543,-49 543,-79.5"/>
<text text-anchor="start" x="446.5" y="-66" font-family="Helvetica,sans-Serif" font-size="10.00">get_default_extruder</text>
<text text-anchor="middle" x="490.75" y="-54.75" font-family="Helvetica,sans-Serif" font-size="10.00">_color_icon</text>
</a>
</g>
</g>
<!-- Node2&#45;&gt;Node3 -->
<g id="edge2_Node000002_Node000003" class="edge">
<title>Node2&#45;&gt;Node3</title>
<g id="a_edge2_Node000002_Node000003"><a xlink:title=" ">
<path fill="none" stroke="#63b8ff" d="M384.21,-64.25C398.93,-64.25 413.74,-64.25 427.42,-64.25"/>
<polygon fill="#63b8ff" stroke="#63b8ff" points="427.13,-67.75 437.13,-64.25 427.13,-60.75 427.13,-67.75"/>
</a>
</g>
</g>
<!-- Node6 -->
<g id="Node000006" class="node">
<title>Node6</title>
<g id="a_Node000006"><a xlink:href="../../d7/d58/wx_extensions_8cpp.html#af599122322a9440b2594ca72db0fe977" target="_top" xlink:title=" ">
<polygon fill="white" stroke="#666666" points="538.88,-128.5 442.62,-128.5 442.62,-98 538.88,-98 538.88,-128.5"/>
<text text-anchor="start" x="450.62" y="-115" font-family="Helvetica,sans-Serif" font-size="10.00">get_extruder_color</text>
<text text-anchor="middle" x="490.75" y="-103.75" font-family="Helvetica,sans-Serif" font-size="10.00">_icons</text>
</a>
</g>
</g>
<!-- Node2&#45;&gt;Node6 -->
<g id="edge5_Node000002_Node000006" class="edge">
<title>Node2&#45;&gt;Node6</title>
<g id="a_edge5_Node000002_Node000006"><a xlink:title=" ">
<path fill="none" stroke="#63b8ff" d="M350.8,-79.96C376.87,-86.2 406.6,-93.33 431.86,-99.38"/>
<polygon fill="#63b8ff" stroke="#63b8ff" points="430.85,-102.97 441.39,-101.9 432.48,-96.17 430.85,-102.97"/>
</a>
</g>
</g>
<!-- Node7 -->
<g id="Node000007" class="node">
<title>Node7</title>
<g id="a_Node000007"><a xlink:href="../../d6/d78/class_slic3r_1_1_g_u_i_1_1_object_data_view_model_node.html#a49444ddd544928121349f9459102e7fb" target="_top" xlink:title=" ">
<polygon fill="white" stroke="#666666" points="561.75,-30.5 419.75,-30.5 419.75,0 561.75,0 561.75,-30.5"/>
<text text-anchor="start" x="427.75" y="-17" font-family="Helvetica,sans-Serif" font-size="10.00">Slic3r::GUI::ObjectDataView</text>
<text text-anchor="middle" x="490.75" y="-5.75" font-family="Helvetica,sans-Serif" font-size="10.00">ModelNode::GetExtruder</text>
</a>
</g>
</g>
<!-- Node2&#45;&gt;Node7 -->
<g id="edge8_Node000002_Node000007" class="edge">
<title>Node2&#45;&gt;Node7</title>
<g id="a_edge8_Node000002_Node000007"><a xlink:title=" ">
<path fill="none" stroke="#63b8ff" d="M350.8,-48.54C370.8,-43.75 392.95,-38.44 413.59,-33.5"/>
<polygon fill="#63b8ff" stroke="#63b8ff" points="414.31,-36.69 423.22,-30.95 412.68,-29.88 414.31,-36.69"/>
</a>
</g>
</g>
<!-- Node4 -->
<g id="Node000004" class="node">
<title>Node4</title>
<g id="a_Node000004"><a xlink:href="../../d8/d95/class_slic3r_1_1_g_u_i_1_1_bitmap_cache.html#abec9ccb68929b5eec50ee488b3d39b9a" target="_top" xlink:title=" ">
<polygon fill="white" stroke="#666666" points="727.75,-128.5 597.75,-128.5 597.75,-98 727.75,-98 727.75,-128.5"/>
<text text-anchor="start" x="605.75" y="-115" font-family="Helvetica,sans-Serif" font-size="10.00">Slic3r::GUI::BitmapCache</text>
<text text-anchor="middle" x="662.75" y="-103.75" font-family="Helvetica,sans-Serif" font-size="10.00">::find</text>
</a>
</g>
</g>
<!-- Node3&#45;&gt;Node4 -->
<g id="edge3_Node000003_Node000004" class="edge">
<title>Node3&#45;&gt;Node4</title>
<g id="a_edge3_Node000003_Node000004"><a xlink:title=" ">
<path fill="none" stroke="#63b8ff" d="M543.22,-79.08C560.13,-83.96 579.15,-89.44 596.92,-94.56"/>
<polygon fill="#63b8ff" stroke="#63b8ff" points="595.63,-98.12 606.21,-97.53 597.57,-91.4 595.63,-98.12"/>
</a>
</g>
</g>
<!-- Node5 -->
<g id="Node000005" class="node">
<title>Node5</title>
<g id="a_Node000005"><a xlink:href="../../d8/d95/class_slic3r_1_1_g_u_i_1_1_bitmap_cache.html#ae66ad1f757a5b4970147434649eaf5ed" target="_top" xlink:title=" ">
<polygon fill="white" stroke="#666666" points="727.75,-79.5 597.75,-79.5 597.75,-49 727.75,-49 727.75,-79.5"/>
<text text-anchor="start" x="605.75" y="-66" font-family="Helvetica,sans-Serif" font-size="10.00">Slic3r::GUI::BitmapCache</text>
<text text-anchor="middle" x="662.75" y="-54.75" font-family="Helvetica,sans-Serif" font-size="10.00">::insert</text>
</a>
</g>
</g>
<!-- Node3&#45;&gt;Node5 -->
<g id="edge4_Node000003_Node000005" class="edge">
<title>Node3&#45;&gt;Node5</title>
<g id="a_edge4_Node000003_Node000005"><a xlink:title=" ">
<path fill="none" stroke="#63b8ff" d="M543.22,-64.25C556.98,-64.25 572.14,-64.25 586.88,-64.25"/>
<polygon fill="#63b8ff" stroke="#63b8ff" points="586.52,-67.75 596.52,-64.25 586.52,-60.75 586.52,-67.75"/>
</a>
</g>
</g>
<!-- Node6&#45;&gt;Node4 -->
<g id="edge6_Node000006_Node000004" class="edge">
<title>Node6&#45;&gt;Node4</title>
<g id="a_edge6_Node000006_Node000004"><a xlink:title=" ">
<path fill="none" stroke="#63b8ff" d="M539.1,-113.25C553.93,-113.25 570.68,-113.25 586.92,-113.25"/>
<polygon fill="#63b8ff" stroke="#63b8ff" points="586.5,-116.75 596.5,-113.25 586.5,-109.75 586.5,-116.75"/>
</a>
</g>
</g>
<!-- Node6&#45;&gt;Node5 -->
<g id="edge7_Node000006_Node000005" class="edge">
<title>Node6&#45;&gt;Node5</title>
<g id="a_edge7_Node000006_Node000005"><a xlink:title=" ">
<path fill="none" stroke="#63b8ff" d="M539.1,-99.6C556.93,-94.46 577.52,-88.53 596.67,-83.01"/>
<polygon fill="#63b8ff" stroke="#63b8ff" points="597.5,-86.12 606.14,-79.99 595.57,-79.4 597.5,-86.12"/>
</a>
</g>
</g>
</g>
</svg>

<g id="navigator" transform="translate(0 0)" fill="#404254">
  <rect fill="#f2f5e9" fill-opacity="0.5" stroke="#606060" stroke-width=".5" x="0" y="0" width="60" height="60"/>
  <use id="zoomplus" xlink:href="#zoomPlus" x="17" y="9" onmousedown="handleZoom(evt,'in')"/>
  <use id="zoomminus" xlink:href="#zoomMin" x="42" y="9" onmousedown="handleZoom(evt,'out')"/>
  <use id="reset" xlink:href="#resetDef" x="30" y="36" onmousedown="handleReset()"/>
   <use id="arrowup" xlink:href="#arrowUp" x="0" y="0" onmousedown="handlePan(0,-1)"/>
  <use id="arrowright" xlink:href="#arrowRight" x="0" y="0" onmousedown="handlePan(1,0)"/>
  <use id="arrowdown" xlink:href="#arrowDown" x="0" y="0" onmousedown="handlePan(0,1)"/>
  <use id="arrowleft" xlink:href="#arrowLeft" x="0" y="0" onmousedown="handlePan(-1,0)"/>
</g>
<svg viewBox="0 0 15 15" width="100%" height="30px" preserveAspectRatio="xMaxYMin meet">
 <g id="arrow_out" transform="scale(0.3 0.3)">
  <a xlink:href="class_slic3r_1_1_g_u_i_1_1_object_data_view_model_node_a748f63130cce60be79289c31373af6e0_cgraph_org.svg" target="_base">
   <rect id="button" ry="5" rx="5" y="6" x="6" height="38" width="38"
        fill="#f2f5e9" fill-opacity="0.5" stroke="#606060" stroke-width="1.0"/>
   <path id="arrow"
     d="M 11.500037,31.436501 C 11.940474,20.09759 22.043105,11.32322 32.158766,21.979434 L 37.068811,17.246167 C 37.068811,17.246167 37.088388,32 37.088388,32 L 22.160133,31.978069 C 22.160133,31.978069 26.997745,27.140456 26.997745,27.140456 C 18.528582,18.264221 13.291696,25.230495 11.500037,31.436501 z"
     style="fill:#404040;"/>
  </a>
 </g>
</svg>

<style type='text/css'>
<![CDATA[
[data-mouse-over-selected='false'] { opacity: 0.7; }
[data-mouse-over-selected='true']  { opacity: 1.0; }
]]>
</style>
<script type="application/ecmascript"><![CDATA[
document.addEventListener('DOMContentLoaded', (event) => {
  highlightEdges();
  highlightAdjacentNodes();
});
]]></script>
</svg>
