<?xml version="1.0" encoding="UTF-8" standalone="no"?>
<!DOCTYPE svg PUBLIC "-//W3C//DTD SVG 1.1//EN"
 "http://www.w3.org/Graphics/SVG/1.1/DTD/svg11.dtd">
<!-- Generated by graphviz version 8.1.0 (20230707.0739)
 -->
<!-- Title: Slic3r::ModelObject::add_instance Pages: 1 -->
<!--zoomable 479 -->

<svg id="main" version="1.1" xmlns="http://www.w3.org/2000/svg" xmlns:xlink="http://www.w3.org/1999/xlink" xml:space="preserve" onload="init(evt)">
<style type="text/css"><![CDATA[
.node, .edge {opacity: 0.7;}
.node.selected, .edge.selected {opacity: 1;}
.edge:hover path { stroke: red; }
.edge:hover polygon { stroke: red; fill: red; }
]]></style>

<defs>
  <circle id="rim" cx="0" cy="0" r="7"/>
  <circle id="rim2" cx="0" cy="0" r="3.5"/>
  <g id="zoomPlus">
    <use xlink:href="#rim" fill="#404040"><set attributeName="fill" to="#808080" begin="zoomplus.mouseover" end="zoomplus.mouseout"/></use>
    <path d="M-4,0h8M0,-4v8" fill="none" stroke="white" stroke-width="1.5" pointer-events="none"/>
  </g>
  <g id="zoomMin">
    <use xlink:href="#rim" fill="#404040"><set attributeName="fill" to="#808080" begin="zoomminus.mouseover" end="zoomminus.mouseout"/></use>
    <path d="M-4,0h8" fill="none" stroke="white" stroke-width="1.5" pointer-events="none"/>
  </g>
  <g id="arrowUp" transform="translate(30 24)">
    <use xlink:href="#rim"/>
    <path pointer-events="none" fill="none" stroke="white" stroke-width="1.5" d="M0,-3.0v7 M-2.5,-0.5L0,-3.0L2.5,-0.5"/>
  </g>
  <g id="arrowRight" transform="rotate(90) translate(36 -43)">
    <use xlink:href="#rim"/>
    <path pointer-events="none" fill="none" stroke="white" stroke-width="1.5" d="M0,-3.0v7 M-2.5,-0.5L0,-3.0L2.5,-0.5"/>
  </g>
  <g id="arrowDown" transform="rotate(180) translate(-30 -48)">
    <use xlink:href="#rim"/>
    <path pointer-events="none" fill="none" stroke="white" stroke-width="1.5" d="M0,-3.0v7 M-2.5,-0.5L0,-3.0L2.5,-0.5"/>
  </g>
  <g id="arrowLeft" transform="rotate(270) translate(-36 17)">
    <use xlink:href="#rim"/>
    <path pointer-events="none" fill="none" stroke="white" stroke-width="1.5" d="M0,-3.0v7 M-2.5,-0.5L0,-3.0L2.5,-0.5"/>
  </g>
  <g id="resetDef">
    <use xlink:href="#rim2" fill="#404040"><set attributeName="fill" to="#808080" begin="reset.mouseover" end="reset.mouseout"/></use>
  </g>
</defs>
<script type="application/ecmascript">
var viewWidth = 980;
var viewHeight = 479;
var sectionId = 'dynsection-9';
</script>
<script type="application/ecmascript" xlink:href="../../svg.min.js"/>
<svg id="graph" class="graph">
<g id="viewport">
<title>Slic3r::ModelObject::add_instance</title>
<!-- Node1 -->
<g id="Node000001" class="node">
<title>Node1</title>
<g id="a_Node000001"><a xlink:title=" ">
<polygon fill="#999999" stroke="#666666" points="972,-271.5 870.5,-271.5 870.5,-241 972,-241 972,-271.5"/>
<text text-anchor="start" x="878.5" y="-258" font-family="Helvetica,sans-Serif" font-size="10.00">Slic3r::ModelObject</text>
<text text-anchor="middle" x="921.25" y="-246.75" font-family="Helvetica,sans-Serif" font-size="10.00">::add_instance</text>
</a>
</g>
</g>
<!-- Node2 -->
<g id="Node000002" class="node">
<title>Node2</title>
<g id="a_Node000002"><a xlink:href="../../d2/d24/class_slic3r_1_1__3_m_f___importer.html#a7874e7bbbbb9566547e4f3f6e3d6e719" target="_top" xlink:title=" ">
<polygon fill="white" stroke="#666666" points="828.88,-345.5 709.38,-345.5 709.38,-315 828.88,-315 828.88,-345.5"/>
<text text-anchor="start" x="717.38" y="-332" font-family="Helvetica,sans-Serif" font-size="10.00">Slic3r::_3MF_Importer</text>
<text text-anchor="middle" x="769.12" y="-320.75" font-family="Helvetica,sans-Serif" font-size="10.00">::_load_model_from_file</text>
</a>
</g>
</g>
<!-- Node1&#45;&gt;Node2 -->
<g id="edge1_Node000001_Node000002" class="edge">
<title>Node1&#45;&gt;Node2</title>
<g id="a_edge1_Node000001_Node000002"><a xlink:title=" ">
<path fill="none" stroke="#63b8ff" d="M886.09,-277.32C870.62,-286.46 851.93,-296.94 834.5,-305.25 827.68,-308.5 820.32,-311.66 813.1,-314.59"/>
<polygon fill="#63b8ff" stroke="#63b8ff" points="887.48,-279.98 894.27,-271.84 883.89,-273.97 887.48,-279.98"/>
</a>
</g>
</g>
<!-- Node7 -->
<g id="Node000007" class="node">
<title>Node7</title>
<g id="a_Node000007"><a xlink:href="../../d0/d23/class_slic3r_1_1_model_object.html#a1600405d272897a34c64e85b9437e325" target="_top" xlink:title=" ">
<polygon fill="white" stroke="#666666" points="819.88,-394.5 718.38,-394.5 718.38,-364 819.88,-364 819.88,-394.5"/>
<text text-anchor="start" x="726.38" y="-381" font-family="Helvetica,sans-Serif" font-size="10.00">Slic3r::ModelObject</text>
<text text-anchor="middle" x="769.12" y="-369.75" font-family="Helvetica,sans-Serif" font-size="10.00">::add_instance</text>
</a>
</g>
</g>
<!-- Node1&#45;&gt;Node7 -->
<g id="edge7_Node000001_Node000007" class="edge">
<title>Node1&#45;&gt;Node7</title>
<g id="a_edge7_Node000001_Node000007"><a xlink:title=" ">
<path fill="none" stroke="#63b8ff" d="M903.89,-280.93C888.31,-302.79 863.05,-334.25 834.5,-354.25 829.49,-357.76 823.93,-360.86 818.22,-363.58"/>
<polygon fill="#63b8ff" stroke="#63b8ff" points="907.32,-283.14 910.15,-272.93 901.57,-279.14 907.32,-283.14"/>
</a>
</g>
</g>
<!-- Node8 -->
<g id="Node000008" class="node">
<title>Node8</title>
<g id="a_Node000008"><a xlink:href="../../dd/d6a/class_slic3r_1_1_g_u_i_1_1_selection.html#afa86db5ffd406b938703919391891c7b" target="_top" xlink:title=" ">
<polygon fill="white" stroke="#666666" points="824.75,-443.5 713.5,-443.5 713.5,-413 824.75,-413 824.75,-443.5"/>
<text text-anchor="start" x="721.5" y="-430" font-family="Helvetica,sans-Serif" font-size="10.00">Slic3r::GUI::Selection</text>
<text text-anchor="middle" x="769.12" y="-418.75" font-family="Helvetica,sans-Serif" font-size="10.00">::copy_to_clipboard</text>
</a>
</g>
</g>
<!-- Node1&#45;&gt;Node8 -->
<g id="edge8_Node000001_Node000008" class="edge">
<title>Node1&#45;&gt;Node8</title>
<g id="a_edge8_Node000001_Node000008"><a xlink:title=" ">
<path fill="none" stroke="#63b8ff" d="M911.4,-281.9C898.99,-314.34 873.47,-369.99 834.5,-403.25 830.31,-406.83 825.54,-409.93 820.54,-412.61"/>
<polygon fill="#63b8ff" stroke="#63b8ff" points="914.93,-283.44 915.11,-272.85 908.36,-281.02 914.93,-283.44"/>
</a>
</g>
</g>
<!-- Node13 -->
<g id="Node000013" class="node">
<title>Node13</title>
<g id="a_Node000013"><a xlink:href="../../db/dec/struct_slic3r_1_1_a_m_f_parser_context.html#a75f3561af39ed8f2948cf67bcff52eb0" target="_top" xlink:title=" ">
<polygon fill="white" stroke="#666666" points="834.5,-296.5 703.75,-296.5 703.75,-266 834.5,-266 834.5,-296.5"/>
<text text-anchor="start" x="711.75" y="-283" font-family="Helvetica,sans-Serif" font-size="10.00">Slic3r::AMFParserContext</text>
<text text-anchor="middle" x="769.12" y="-271.75" font-family="Helvetica,sans-Serif" font-size="10.00">::endDocument</text>
</a>
</g>
</g>
<!-- Node1&#45;&gt;Node13 -->
<g id="edge13_Node000001_Node000013" class="edge">
<title>Node1&#45;&gt;Node13</title>
<g id="a_edge13_Node000001_Node000013"><a xlink:title=" ">
<path fill="none" stroke="#63b8ff" d="M859.69,-266.34C851.51,-267.7 843.1,-269.1 834.85,-270.47"/>
<polygon fill="#63b8ff" stroke="#63b8ff" points="859.97,-269.67 869.26,-264.57 858.82,-262.76 859.97,-269.67"/>
</a>
</g>
</g>
<!-- Node62 -->
<g id="Node000062" class="node">
<title>Node62</title>
<g id="a_Node000062"><a xlink:href="../../d7/d21/class_slic3r_1_1_g_u_i_1_1_plater.html#a233547a66027a78819d3aeed064dadfb" target="_top" xlink:title=" ">
<polygon fill="white" stroke="#666666" points="822.12,-247.5 716.12,-247.5 716.12,-217 822.12,-217 822.12,-247.5"/>
<text text-anchor="start" x="724.12" y="-234" font-family="Helvetica,sans-Serif" font-size="10.00">Slic3r::GUI::Plater</text>
<text text-anchor="middle" x="769.12" y="-222.75" font-family="Helvetica,sans-Serif" font-size="10.00">::increase_instances</text>
</a>
</g>
</g>
<!-- Node1&#45;&gt;Node62 -->
<g id="edge25_Node000001_Node000062" class="edge">
<title>Node1&#45;&gt;Node62</title>
<g id="a_edge25_Node000001_Node000062"><a xlink:title=" ">
<path fill="none" stroke="#63b8ff" d="M859.62,-246.56C847.31,-244.59 834.46,-242.54 822.47,-240.62"/>
<polygon fill="#63b8ff" stroke="#63b8ff" points="858.83,-250.14 869.26,-248.26 859.94,-243.22 858.83,-250.14"/>
</a>
</g>
</g>
<!-- Node64 -->
<g id="Node000064" class="node">
<title>Node64</title>
<g id="a_Node000064"><a xlink:href="../../dd/d03/class_slic3r_1_1_g_u_i_1_1_object_list.html#a979dd0a090e223800eced560950eeea0" target="_top" xlink:title=" ">
<polygon fill="white" stroke="#666666" points="826.62,-198.5 711.62,-198.5 711.62,-168 826.62,-168 826.62,-198.5"/>
<text text-anchor="start" x="719.62" y="-185" font-family="Helvetica,sans-Serif" font-size="10.00">Slic3r::GUI::ObjectList</text>
<text text-anchor="middle" x="769.12" y="-173.75" font-family="Helvetica,sans-Serif" font-size="10.00">::load_mesh_object</text>
</a>
</g>
</g>
<!-- Node1&#45;&gt;Node64 -->
<g id="edge27_Node000001_Node000064" class="edge">
<title>Node1&#45;&gt;Node64</title>
<g id="a_edge27_Node000001_Node000064"><a xlink:title=" ">
<path fill="none" stroke="#63b8ff" d="M885.36,-235.26C870.02,-226.41 851.63,-216.32 834.5,-208.25 827.67,-205.03 820.3,-201.88 813.07,-198.96"/>
<polygon fill="#63b8ff" stroke="#63b8ff" points="883.08,-238.56 893.48,-240.58 886.6,-232.52 883.08,-238.56"/>
</a>
</g>
</g>
<!-- Node72 -->
<g id="Node000072" class="node">
<title>Node72</title>
<g id="a_Node000072"><a xlink:href="../../dd/d03/class_slic3r_1_1_g_u_i_1_1_object_list.html#a84b2daec7b4dfe3af81301a08a6f35d4" target="_top" xlink:title=" ">
<polygon fill="white" stroke="#666666" points="826.62,-144.5 711.62,-144.5 711.62,-114 826.62,-114 826.62,-144.5"/>
<text text-anchor="start" x="719.62" y="-131" font-family="Helvetica,sans-Serif" font-size="10.00">Slic3r::GUI::ObjectList</text>
<text text-anchor="middle" x="769.12" y="-119.75" font-family="Helvetica,sans-Serif" font-size="10.00">::merge</text>
</a>
</g>
</g>
<!-- Node1&#45;&gt;Node72 -->
<g id="edge33_Node000001_Node000072" class="edge">
<title>Node1&#45;&gt;Node72</title>
<g id="a_edge33_Node000001_Node000072"><a xlink:title=" ">
<path fill="none" stroke="#63b8ff" d="M903.25,-231.9C887.4,-210.58 862.11,-179.87 834.5,-159.25 827.19,-153.79 818.73,-148.98 810.39,-144.9"/>
<polygon fill="#63b8ff" stroke="#63b8ff" points="900.93,-233.66 909.65,-239.69 906.59,-229.54 900.93,-233.66"/>
</a>
</g>
</g>
<!-- Node75 -->
<g id="Node000075" class="node">
<title>Node75</title>
<g id="a_Node000075"><a xlink:href="../../d0/d23/class_slic3r_1_1_model_object.html#ac5f24b94617feeabe59d5902d38fde0e" target="_top" xlink:title=" ">
<polygon fill="white" stroke="#666666" points="819.88,-63.5 718.38,-63.5 718.38,-33 819.88,-33 819.88,-63.5"/>
<text text-anchor="start" x="726.38" y="-50" font-family="Helvetica,sans-Serif" font-size="10.00">Slic3r::ModelObject</text>
<text text-anchor="middle" x="769.12" y="-38.75" font-family="Helvetica,sans-Serif" font-size="10.00">::split</text>
</a>
</g>
</g>
<!-- Node1&#45;&gt;Node75 -->
<g id="edge36_Node000001_Node000075" class="edge">
<title>Node1&#45;&gt;Node75</title>
<g id="a_edge36_Node000001_Node000075"><a xlink:title=" ">
<path fill="none" stroke="#63b8ff" d="M909.06,-230.94C894.51,-199.59 867.08,-145.43 834.5,-105.25 821.81,-89.6 804.6,-74.6 791.17,-63.92"/>
<polygon fill="#63b8ff" stroke="#63b8ff" points="906.15,-232 913.49,-239.64 912.52,-229.09 906.15,-232"/>
</a>
</g>
</g>
<!-- Node3 -->
<g id="Node000003" class="node">
<title>Node3</title>
<g id="a_Node000003"><a xlink:href="../../d2/d24/class_slic3r_1_1__3_m_f___importer.html#a9d10f753d1aed961802bdd2f75e4facd" target="_top" xlink:title=" ">
<polygon fill="white" stroke="#666666" points="655.38,-348.5 541.12,-348.5 541.12,-318 655.38,-318 655.38,-348.5"/>
<text text-anchor="start" x="549.12" y="-335" font-family="Helvetica,sans-Serif" font-size="10.00">Slic3r::_3MF_Importer</text>
<text text-anchor="middle" x="598.25" y="-323.75" font-family="Helvetica,sans-Serif" font-size="10.00">::load_model_from_file</text>
</a>
</g>
</g>
<!-- Node2&#45;&gt;Node3 -->
<g id="edge2_Node000002_Node000003" class="edge">
<title>Node2&#45;&gt;Node3</title>
<g id="a_edge2_Node000002_Node000003"><a xlink:title=" ">
<path fill="none" stroke="#63b8ff" d="M698.35,-331.49C684.15,-331.74 669.39,-332 655.73,-332.25"/>
<polygon fill="#63b8ff" stroke="#63b8ff" points="698.12,-334.98 708.06,-331.3 698,-327.98 698.12,-334.98"/>
</a>
</g>
</g>
<!-- Node4 -->
<g id="Node000004" class="node">
<title>Node4</title>
<g id="a_Node000004"><a xlink:href="../../de/db8/namespace_slic3r.html#a33137401cf2925b9349ffcd204219709" target="_top" xlink:title=" ">
<polygon fill="white" stroke="#666666" points="474,-345.88 387.5,-345.88 387.5,-326.62 474,-326.62 474,-345.88"/>
<text text-anchor="middle" x="430.75" y="-332.38" font-family="Helvetica,sans-Serif" font-size="10.00">Slic3r::load_3mf</text>
</a>
</g>
</g>
<!-- Node3&#45;&gt;Node4 -->
<g id="edge3_Node000003_Node000004" class="edge">
<title>Node3&#45;&gt;Node4</title>
<g id="a_edge3_Node000003_Node000004"><a xlink:title=" ">
<path fill="none" stroke="#63b8ff" d="M529.88,-334.47C511.13,-334.81 491.3,-335.17 474.4,-335.48"/>
<polygon fill="#63b8ff" stroke="#63b8ff" points="529.82,-337.95 539.76,-334.27 529.7,-330.96 529.82,-337.95"/>
</a>
</g>
</g>
<!-- Node4&#45;&gt;Node4 -->
<g id="edge4_Node000004_Node000004" class="edge">
<title>Node4&#45;&gt;Node4</title>
<g id="a_edge4_Node000004_Node000004"><a xlink:title=" ">
<path fill="none" stroke="#63b8ff" d="M461.3,-356.26C458.42,-360.67 448.23,-363.88 430.75,-363.88 401.31,-363.88 392.57,-354.77 404.53,-346.16"/>
<polygon fill="#63b8ff" stroke="#63b8ff" points="464.13,-354.97 456.97,-347.16 457.7,-357.73 464.13,-354.97"/>
</a>
</g>
</g>
<!-- Node5 -->
<g id="Node000005" class="node">
<title>Node5</title>
<g id="a_Node000005"><a xlink:href="../../dd/d8d/class_slic3r_1_1_model.html#a402738b0a802ddb573d5cc20954a4ffe" target="_top" xlink:title=" ">
<polygon fill="white" stroke="#666666" points="303.5,-351.5 205.75,-351.5 205.75,-321 303.5,-321 303.5,-351.5"/>
<text text-anchor="start" x="213.75" y="-338" font-family="Helvetica,sans-Serif" font-size="10.00">Slic3r::Model::read</text>
<text text-anchor="middle" x="254.62" y="-326.75" font-family="Helvetica,sans-Serif" font-size="10.00">_from_archive</text>
</a>
</g>
</g>
<!-- Node4&#45;&gt;Node5 -->
<g id="edge5_Node000004_Node000005" class="edge">
<title>Node4&#45;&gt;Node5</title>
<g id="a_edge5_Node000004_Node000005"><a xlink:title=" ">
<path fill="none" stroke="#63b8ff" d="M376.17,-336.25C353.11,-336.25 326.36,-336.25 303.93,-336.25"/>
<polygon fill="#63b8ff" stroke="#63b8ff" points="376.15,-339.75 386.15,-336.25 376.15,-332.75 376.15,-339.75"/>
</a>
</g>
</g>
<!-- Node6 -->
<g id="Node000006" class="node">
<title>Node6</title>
<g id="a_Node000006"><a xlink:href="../../d4/d88/struct_slic3r_1_1_g_u_i_1_1_plater_1_1priv.html#a8f66b6a670ee52335e7fdac46f2b133e" target="_top" xlink:title=" ">
<polygon fill="white" stroke="#666666" points="118.38,-442.5 22.12,-442.5 22.12,-412 118.38,-412 118.38,-442.5"/>
<text text-anchor="start" x="30.12" y="-429" font-family="Helvetica,sans-Serif" font-size="10.00">Slic3r::GUI::Plater</text>
<text text-anchor="middle" x="70.25" y="-417.75" font-family="Helvetica,sans-Serif" font-size="10.00">::priv::load_files</text>
</a>
</g>
</g>
<!-- Node5&#45;&gt;Node6 -->
<g id="edge6_Node000005_Node000006" class="edge">
<title>Node5&#45;&gt;Node6</title>
<g id="a_edge6_Node000005_Node000006"><a xlink:title=" ">
<path fill="none" stroke="#63b8ff" d="M221.59,-357.58C199.44,-371.73 168.95,-390.06 140.5,-403.25 133.57,-406.46 126.09,-409.49 118.69,-412.23"/>
<polygon fill="#63b8ff" stroke="#63b8ff" points="223.04,-360.16 229.54,-351.8 219.24,-354.28 223.04,-360.16"/>
</a>
</g>
</g>
<!-- Node9 -->
<g id="Node000009" class="node">
<title>Node9</title>
<g id="a_Node000009"><a xlink:href="../../dd/d6a/class_slic3r_1_1_g_u_i_1_1_selection.html#a7b058ec473b378c0d313b75a7f52c7b5" target="_top" xlink:title=" ">
<polygon fill="white" stroke="#666666" points="653.88,-470.5 542.62,-470.5 542.62,-440 653.88,-440 653.88,-470.5"/>
<text text-anchor="start" x="550.62" y="-457" font-family="Helvetica,sans-Serif" font-size="10.00">Slic3r::GUI::Selection</text>
<text text-anchor="middle" x="598.25" y="-445.75" font-family="Helvetica,sans-Serif" font-size="10.00">::clone</text>
</a>
</g>
</g>
<!-- Node8&#45;&gt;Node9 -->
<g id="edge9_Node000008_Node000009" class="edge">
<title>Node8&#45;&gt;Node9</title>
<g id="a_edge9_Node000008_Node000009"><a xlink:title=" ">
<path fill="none" stroke="#63b8ff" d="M702.87,-438.68C686.76,-441.26 669.66,-443.99 654.09,-446.48"/>
<polygon fill="#63b8ff" stroke="#63b8ff" points="702.97,-442.05 712.3,-437.02 701.87,-435.14 702.97,-442.05"/>
</a>
</g>
</g>
<!-- Node12 -->
<g id="Node000012" class="node">
<title>Node12</title>
<g id="a_Node000012"><a xlink:href="../../dd/d6a/class_slic3r_1_1_g_u_i_1_1_selection.html#a3a7cf3c416acb509cfa6fc3734bd1507" target="_top" xlink:title=" ">
<polygon fill="white" stroke="#666666" points="653.88,-421.5 542.62,-421.5 542.62,-391 653.88,-391 653.88,-421.5"/>
<text text-anchor="start" x="550.62" y="-408" font-family="Helvetica,sans-Serif" font-size="10.00">Slic3r::GUI::Selection</text>
<text text-anchor="middle" x="598.25" y="-396.75" font-family="Helvetica,sans-Serif" font-size="10.00">::cut_to_clipboard</text>
</a>
</g>
</g>
<!-- Node8&#45;&gt;Node12 -->
<g id="edge12_Node000008_Node000012" class="edge">
<title>Node8&#45;&gt;Node12</title>
<g id="a_edge12_Node000008_Node000012"><a xlink:title=" ">
<path fill="none" stroke="#63b8ff" d="M702.41,-419.69C686.43,-417.61 669.51,-415.4 654.09,-413.39"/>
<polygon fill="#63b8ff" stroke="#63b8ff" points="701.93,-423.29 712.3,-421.11 702.83,-416.34 701.93,-423.29"/>
</a>
</g>
</g>
<!-- Node10 -->
<g id="Node000010" class="node">
<title>Node10</title>
<g id="a_Node000010"><a xlink:href="../../d7/d21/class_slic3r_1_1_g_u_i_1_1_plater.html#aacdf7a21905c8f4f47ce28f243f63767" target="_top" xlink:title=" ">
<polygon fill="white" stroke="#666666" points="478.88,-470.5 382.62,-470.5 382.62,-440 478.88,-440 478.88,-470.5"/>
<text text-anchor="start" x="390.62" y="-457" font-family="Helvetica,sans-Serif" font-size="10.00">Slic3r::GUI::Plater</text>
<text text-anchor="middle" x="430.75" y="-445.75" font-family="Helvetica,sans-Serif" font-size="10.00">::clone_selection</text>
</a>
</g>
</g>
<!-- Node9&#45;&gt;Node10 -->
<g id="edge10_Node000009_Node000010" class="edge">
<title>Node9&#45;&gt;Node10</title>
<g id="a_edge10_Node000009_Node000010"><a xlink:title=" ">
<path fill="none" stroke="#63b8ff" d="M531.42,-455.25C513.95,-455.25 495.42,-455.25 479.14,-455.25"/>
<polygon fill="#63b8ff" stroke="#63b8ff" points="531.14,-458.75 541.14,-455.25 531.14,-451.75 531.14,-458.75"/>
</a>
</g>
</g>
<!-- Node11 -->
<g id="Node000011" class="node">
<title>Node11</title>
<g id="a_Node000011"><a xlink:href="../../de/de3/class_slic3r_1_1_g_u_i_1_1_menu_factory.html#a00feb474108de0a50a155eea0bb22da6" target="_top" xlink:title=" ">
<polygon fill="white" stroke="#666666" points="322.25,-470.5 187,-470.5 187,-440 322.25,-440 322.25,-470.5"/>
<text text-anchor="start" x="195" y="-457" font-family="Helvetica,sans-Serif" font-size="10.00">Slic3r::GUI::MenuFactory</text>
<text text-anchor="middle" x="254.62" y="-445.75" font-family="Helvetica,sans-Serif" font-size="10.00">::append_menu_item_clone</text>
</a>
</g>
</g>
<!-- Node10&#45;&gt;Node11 -->
<g id="edge11_Node000010_Node000011" class="edge">
<title>Node10&#45;&gt;Node11</title>
<g id="a_edge11_Node000010_Node000011"><a xlink:title=" ">
<path fill="none" stroke="#63b8ff" d="M371.58,-455.25C355.91,-455.25 338.84,-455.25 322.73,-455.25"/>
<polygon fill="#63b8ff" stroke="#63b8ff" points="371.17,-458.75 381.17,-455.25 371.17,-451.75 371.17,-458.75"/>
</a>
</g>
</g>
<!-- Node14 -->
<g id="Node000014" class="node">
<title>Node14</title>
<g id="a_Node000014"><a xlink:href="../../de/db8/namespace_slic3r.html#ae83c6dd54c141bc74f97c369a7f8a23e" target="_top" xlink:title=" ">
<polygon fill="white" stroke="#666666" points="650.5,-290.88 546,-290.88 546,-271.62 650.5,-271.62 650.5,-290.88"/>
<text text-anchor="middle" x="598.25" y="-277.38" font-family="Helvetica,sans-Serif" font-size="10.00">Slic3r::load_amf_file</text>
</a>
</g>
</g>
<!-- Node13&#45;&gt;Node14 -->
<g id="edge14_Node000013_Node000014" class="edge">
<title>Node13&#45;&gt;Node14</title>
<g id="a_edge14_Node000013_Node000014"><a xlink:title=" ">
<path fill="none" stroke="#63b8ff" d="M692.6,-281.25C678.46,-281.25 663.99,-281.25 650.79,-281.25"/>
<polygon fill="#63b8ff" stroke="#63b8ff" points="692.32,-284.75 702.32,-281.25 692.32,-277.75 692.32,-284.75"/>
</a>
</g>
</g>
<!-- Node15 -->
<g id="Node000015" class="node">
<title>Node15</title>
<g id="a_Node000015"><a xlink:href="../../de/db8/namespace_slic3r.html#a698401a1cd3ebef3a0aef9a1805b8587" target="_top" xlink:title=" ">
<polygon fill="white" stroke="#666666" points="474,-290.88 387.5,-290.88 387.5,-271.62 474,-271.62 474,-290.88"/>
<text text-anchor="middle" x="430.75" y="-277.38" font-family="Helvetica,sans-Serif" font-size="10.00">Slic3r::load_amf</text>
</a>
</g>
</g>
<!-- Node14&#45;&gt;Node15 -->
<g id="edge15_Node000014_Node000015" class="edge">
<title>Node14&#45;&gt;Node15</title>
<g id="a_edge15_Node000014_Node000015"><a xlink:title=" ">
<path fill="none" stroke="#63b8ff" d="M535.07,-281.25C514.8,-281.25 492.77,-281.25 474.29,-281.25"/>
<polygon fill="#63b8ff" stroke="#63b8ff" points="534.79,-284.75 544.79,-281.25 534.79,-277.75 534.79,-284.75"/>
</a>
</g>
</g>
<!-- Node15&#45;&gt;Node5 -->
<g id="edge17_Node000015_Node000005" class="edge">
<title>Node15&#45;&gt;Node5</title>
<g id="a_edge17_Node000015_Node000005"><a xlink:title=" ">
<path fill="none" stroke="#63b8ff" d="M387.45,-294.61C362.19,-302.59 330.03,-312.75 303.8,-321.03"/>
<polygon fill="#63b8ff" stroke="#63b8ff" points="388.33,-297.69 396.81,-291.34 386.22,-291.01 388.33,-297.69"/>
</a>
</g>
</g>
<!-- Node15&#45;&gt;Node15 -->
<g id="edge16_Node000015_Node000015" class="edge">
<title>Node15&#45;&gt;Node15</title>
<g id="a_edge16_Node000015_Node000015"><a xlink:title=" ">
<path fill="none" stroke="#63b8ff" d="M461.3,-301.26C458.42,-305.67 448.23,-308.88 430.75,-308.88 401.31,-308.88 392.57,-299.77 404.53,-291.16"/>
<polygon fill="#63b8ff" stroke="#63b8ff" points="464.13,-299.97 456.97,-292.16 457.7,-302.73 464.13,-299.97"/>
</a>
</g>
</g>
<!-- Node16 -->
<g id="Node000016" class="node">
<title>Node16</title>
<g id="a_Node000016"><a xlink:href="../../dd/d8d/class_slic3r_1_1_model.html#a06bcc46f4c5afd4f4b183b434ab80839" target="_top" xlink:title=" ">
<polygon fill="white" stroke="#666666" points="303.5,-296.5 205.75,-296.5 205.75,-266 303.5,-266 303.5,-296.5"/>
<text text-anchor="start" x="213.75" y="-283" font-family="Helvetica,sans-Serif" font-size="10.00">Slic3r::Model::read</text>
<text text-anchor="middle" x="254.62" y="-271.75" font-family="Helvetica,sans-Serif" font-size="10.00">_from_file</text>
</a>
</g>
</g>
<!-- Node15&#45;&gt;Node16 -->
<g id="edge18_Node000015_Node000016" class="edge">
<title>Node15&#45;&gt;Node16</title>
<g id="a_edge18_Node000015_Node000016"><a xlink:title=" ">
<path fill="none" stroke="#63b8ff" d="M376.17,-281.25C353.11,-281.25 326.36,-281.25 303.93,-281.25"/>
<polygon fill="#63b8ff" stroke="#63b8ff" points="376.15,-284.75 386.15,-281.25 376.15,-277.75 376.15,-284.75"/>
</a>
</g>
</g>
<!-- Node16&#45;&gt;Node6 -->
<g id="edge20_Node000016_Node000006" class="edge">
<title>Node16&#45;&gt;Node6</title>
<g id="a_edge20_Node000016_Node000006"><a xlink:title=" ">
<path fill="none" stroke="#63b8ff" d="M195.73,-298.31C188.68,-302.1 182.03,-306.69 176.5,-312.25 145.83,-343.09 171.91,-373.16 140.5,-403.25 134.34,-409.15 126.67,-413.6 118.69,-416.96"/>
<polygon fill="#63b8ff" stroke="#63b8ff" points="197.02,-301.09 204.53,-293.62 194,-294.78 197.02,-301.09"/>
</a>
</g>
</g>
<!-- Node17 -->
<g id="Node000017" class="node">
<title>Node17</title>
<g id="a_Node000017"><a xlink:href="../../d0/d55/class_slic3r_1_1_g_u_i_1_1_g_l_model.html#a294a7a22782843cc9d5a7ca481dfd874" target="_top" xlink:title=" ">
<polygon fill="#fff0f0" stroke="red" points="125.12,-296.5 15.38,-296.5 15.38,-266 125.12,-266 125.12,-296.5"/>
<text text-anchor="start" x="23.38" y="-283" font-family="Helvetica,sans-Serif" font-size="10.00">Slic3r::GUI::GLModel</text>
<text text-anchor="middle" x="70.25" y="-271.75" font-family="Helvetica,sans-Serif" font-size="10.00">::init_from_file</text>
</a>
</g>
</g>
<!-- Node16&#45;&gt;Node17 -->
<g id="edge19_Node000016_Node000017" class="edge">
<title>Node16&#45;&gt;Node17</title>
<g id="a_edge19_Node000016_Node000017"><a xlink:title=" ">
<path fill="none" stroke="#63b8ff" d="M194.73,-281.25C172.53,-281.25 147.38,-281.25 125.61,-281.25"/>
<polygon fill="#63b8ff" stroke="#63b8ff" points="194.71,-284.75 204.71,-281.25 194.71,-277.75 194.71,-284.75"/>
</a>
</g>
</g>
<!-- Node51 -->
<g id="Node000051" class="node">
<title>Node51</title>
<g id="a_Node000051"><a xlink:href="../../dd/d03/class_slic3r_1_1_g_u_i_1_1_object_list.html#a364aecc4c195f5779e0d5670e9361bec" target="_top" xlink:title=" ">
<polygon fill="#fff0f0" stroke="red" points="127.75,-247.5 12.75,-247.5 12.75,-217 127.75,-217 127.75,-247.5"/>
<text text-anchor="start" x="20.75" y="-234" font-family="Helvetica,sans-Serif" font-size="10.00">Slic3r::GUI::ObjectList</text>
<text text-anchor="middle" x="70.25" y="-222.75" font-family="Helvetica,sans-Serif" font-size="10.00">::load_modifier</text>
</a>
</g>
</g>
<!-- Node16&#45;&gt;Node51 -->
<g id="edge21_Node000016_Node000051" class="edge">
<title>Node16&#45;&gt;Node51</title>
<g id="a_edge21_Node000016_Node000051"><a xlink:title=" ">
<path fill="none" stroke="#63b8ff" d="M195.12,-265.53C173.71,-259.78 149.53,-253.28 128.25,-247.56"/>
<polygon fill="#63b8ff" stroke="#63b8ff" points="194.14,-269.16 204.71,-268.38 195.96,-262.4 194.14,-269.16"/>
</a>
</g>
</g>
<!-- Node54 -->
<g id="Node000054" class="node">
<title>Node54</title>
<g id="a_Node000054"><a xlink:href="../../dd/d97/class_slic3r_1_1_g_u_i_1_1_bed_shape_panel.html#ac7a1ebd61bb3352a348256f7cfd2d420" target="_top" xlink:title=" ">
<polygon fill="#fff0f0" stroke="red" points="140.5,-198.5 0,-198.5 0,-168 140.5,-168 140.5,-198.5"/>
<text text-anchor="start" x="8" y="-185" font-family="Helvetica,sans-Serif" font-size="10.00">Slic3r::GUI::BedShapePanel</text>
<text text-anchor="middle" x="70.25" y="-173.75" font-family="Helvetica,sans-Serif" font-size="10.00">::load_stl</text>
</a>
</g>
</g>
<!-- Node16&#45;&gt;Node54 -->
<g id="edge22_Node000016_Node000054" class="edge">
<title>Node16&#45;&gt;Node54</title>
<g id="a_edge22_Node000016_Node000054"><a xlink:title=" ">
<path fill="none" stroke="#63b8ff" d="M223.88,-259.39C201.69,-243.75 170.19,-222.95 140.5,-208.25 133.74,-204.9 126.42,-201.77 119.15,-198.93"/>
<polygon fill="#63b8ff" stroke="#63b8ff" points="221.62,-262.79 231.79,-265.75 225.68,-257.09 221.62,-262.79"/>
</a>
</g>
</g>
<!-- Node59 -->
<g id="Node000059" class="node">
<title>Node59</title>
<g id="a_Node000059"><a xlink:href="../../d4/d88/struct_slic3r_1_1_g_u_i_1_1_plater_1_1priv.html#a3562cf5e985f7e9dfb884a1257825edb" target="_top" xlink:title=" ">
<polygon fill="white" stroke="#666666" points="126.25,-394.12 14.25,-394.12 14.25,-352.38 126.25,-352.38 126.25,-394.12"/>
<text text-anchor="start" x="22.25" y="-380.62" font-family="Helvetica,sans-Serif" font-size="10.00">Slic3r::GUI::Plater</text>
<text text-anchor="start" x="22.25" y="-369.38" font-family="Helvetica,sans-Serif" font-size="10.00">::priv::replace_volume</text>
<text text-anchor="middle" x="70.25" y="-358.12" font-family="Helvetica,sans-Serif" font-size="10.00">_with_stl</text>
</a>
</g>
</g>
<!-- Node16&#45;&gt;Node59 -->
<g id="edge23_Node000016_Node000059" class="edge">
<title>Node16&#45;&gt;Node59</title>
<g id="a_edge23_Node000016_Node000059"><a xlink:title=" ">
<path fill="none" stroke="#63b8ff" d="M197.63,-301.2C190.34,-304.53 183.11,-308.23 176.5,-312.25 158.46,-323.22 158.39,-332.04 140.5,-343.25 135.62,-346.31 130.36,-349.21 125.02,-351.9"/>
<polygon fill="#63b8ff" stroke="#63b8ff" points="198.79,-304.08 206.56,-296.89 196,-297.66 198.79,-304.08"/>
</a>
</g>
</g>
<!-- Node60 -->
<g id="Node000060" class="node">
<title>Node60</title>
<g id="a_Node000060"><a xlink:href="../../de/d33/class_slic3r_1_1_c_l_i.html#a04fb4429030d98de51a297066a116dcb" target="_top" xlink:title=" ">
<polygon fill="#fff0f0" stroke="red" points="111.25,-333.88 29.25,-333.88 29.25,-314.62 111.25,-314.62 111.25,-333.88"/>
<text text-anchor="middle" x="70.25" y="-320.38" font-family="Helvetica,sans-Serif" font-size="10.00">Slic3r::CLI::run</text>
</a>
</g>
</g>
<!-- Node16&#45;&gt;Node60 -->
<g id="edge24_Node000016_Node000060" class="edge">
<title>Node16&#45;&gt;Node60</title>
<g id="a_edge24_Node000016_Node000060"><a xlink:title=" ">
<path fill="none" stroke="#63b8ff" d="M195.14,-295.04C167.94,-301.45 136.26,-308.92 111.75,-314.7"/>
<polygon fill="#63b8ff" stroke="#63b8ff" points="195.78,-298.25 204.71,-292.55 194.17,-291.44 195.78,-298.25"/>
</a>
</g>
</g>
<!-- Node63 -->
<g id="Node000063" class="node">
<title>Node63</title>
<g id="a_Node000063"><a xlink:href="../../d7/d21/class_slic3r_1_1_g_u_i_1_1_plater.html#a1a336b4e4ee7dbb9b39925950f9d1c65" target="_top" xlink:title=" ">
<polygon fill="white" stroke="#666666" points="658.38,-247.5 538.12,-247.5 538.12,-217 658.38,-217 658.38,-247.5"/>
<text text-anchor="start" x="546.12" y="-234" font-family="Helvetica,sans-Serif" font-size="10.00">Slic3r::GUI::Plater</text>
<text text-anchor="middle" x="598.25" y="-222.75" font-family="Helvetica,sans-Serif" font-size="10.00">::set_number_of_copies</text>
</a>
</g>
</g>
<!-- Node62&#45;&gt;Node63 -->
<g id="edge26_Node000062_Node000063" class="edge">
<title>Node62&#45;&gt;Node63</title>
<g id="a_edge26_Node000062_Node000063"><a xlink:title=" ">
<path fill="none" stroke="#63b8ff" d="M705.22,-232.25C690.03,-232.25 673.84,-232.25 658.8,-232.25"/>
<polygon fill="#63b8ff" stroke="#63b8ff" points="705.08,-235.75 715.08,-232.25 705.08,-228.75 705.08,-235.75"/>
</a>
</g>
</g>
<!-- Node65 -->
<g id="Node000065" class="node">
<title>Node65</title>
<g id="a_Node000065"><a xlink:href="../../dd/d03/class_slic3r_1_1_g_u_i_1_1_object_list.html#aed7da8adcdad16b54731ee24485b47e3" target="_top" xlink:title=" ">
<polygon fill="white" stroke="#666666" points="655.75,-198.5 540.75,-198.5 540.75,-168 655.75,-168 655.75,-198.5"/>
<text text-anchor="start" x="548.75" y="-185" font-family="Helvetica,sans-Serif" font-size="10.00">Slic3r::GUI::ObjectList</text>
<text text-anchor="middle" x="598.25" y="-173.75" font-family="Helvetica,sans-Serif" font-size="10.00">::load_shape_object</text>
</a>
</g>
</g>
<!-- Node64&#45;&gt;Node65 -->
<g id="edge28_Node000064_Node000065" class="edge">
<title>Node64&#45;&gt;Node65</title>
<g id="a_edge28_Node000064_Node000065"><a xlink:title=" ">
<path fill="none" stroke="#63b8ff" d="M700.79,-183.25C685.98,-183.25 670.44,-183.25 656.09,-183.25"/>
<polygon fill="#63b8ff" stroke="#63b8ff" points="700.42,-186.75 710.42,-183.25 700.42,-179.75 700.42,-186.75"/>
</a>
</g>
</g>
<!-- Node66 -->
<g id="Node000066" class="node">
<title>Node66</title>
<g id="a_Node000066"><a xlink:href="../../dd/d03/class_slic3r_1_1_g_u_i_1_1_object_list.html#a415e0cfe4ec5db747eebe0e0f266bfdf" target="_top" xlink:title=" ">
<polygon fill="white" stroke="#666666" points="492.75,-198.5 368.75,-198.5 368.75,-168 492.75,-168 492.75,-198.5"/>
<text text-anchor="start" x="376.75" y="-185" font-family="Helvetica,sans-Serif" font-size="10.00">Slic3r::GUI::ObjectList</text>
<text text-anchor="middle" x="430.75" y="-173.75" font-family="Helvetica,sans-Serif" font-size="10.00">::load_generic_subobject</text>
</a>
</g>
</g>
<!-- Node65&#45;&gt;Node66 -->
<g id="edge29_Node000065_Node000066" class="edge">
<title>Node65&#45;&gt;Node66</title>
<g id="a_edge29_Node000065_Node000066"><a xlink:title=" ">
<path fill="none" stroke="#63b8ff" d="M529.39,-183.25C517.36,-183.25 504.89,-183.25 493.05,-183.25"/>
<polygon fill="#63b8ff" stroke="#63b8ff" points="529.29,-186.75 539.29,-183.25 529.29,-179.75 529.29,-186.75"/>
</a>
</g>
</g>
<!-- Node67 -->
<g id="Node000067" class="node">
<title>Node67</title>
<g id="a_Node000067"><a xlink:href="../../d7/d21/class_slic3r_1_1_g_u_i_1_1_plater.html#acf6b4efdeaf6f8aa68910c8305c62aba" target="_top" xlink:title=" ">
<polygon fill="white" stroke="#666666" points="303.88,-149.5 205.38,-149.5 205.38,-119 303.88,-119 303.88,-149.5"/>
<text text-anchor="start" x="213.38" y="-136" font-family="Helvetica,sans-Serif" font-size="10.00">Slic3r::GUI::Plater</text>
<text text-anchor="middle" x="254.62" y="-124.75" font-family="Helvetica,sans-Serif" font-size="10.00">::_calib_pa_pattern</text>
</a>
</g>
</g>
<!-- Node66&#45;&gt;Node67 -->
<g id="edge30_Node000066_Node000067" class="edge">
<title>Node66&#45;&gt;Node67</title>
<g id="a_edge30_Node000066_Node000067"><a xlink:title=" ">
<path fill="none" stroke="#63b8ff" d="M363.7,-164.66C343.94,-159.1 322.64,-153.11 304.22,-147.92"/>
<polygon fill="#63b8ff" stroke="#63b8ff" points="362.6,-168.27 373.18,-167.61 364.5,-161.53 362.6,-168.27"/>
</a>
</g>
</g>
<!-- Node53 -->
<g id="Node000053" class="node">
<title>Node53</title>
<g id="a_Node000053"><a xlink:href="../../de/de3/class_slic3r_1_1_g_u_i_1_1_menu_factory.html#add64a1c7b11811b53d918a783d685e83" target="_top" xlink:title=" ">
<polygon fill="white" stroke="#666666" points="332.75,-198.5 176.5,-198.5 176.5,-168 332.75,-168 332.75,-198.5"/>
<text text-anchor="start" x="184.5" y="-185" font-family="Helvetica,sans-Serif" font-size="10.00">Slic3r::GUI::MenuFactory</text>
<text text-anchor="middle" x="254.62" y="-173.75" font-family="Helvetica,sans-Serif" font-size="10.00">::append_submenu_add_generic</text>
</a>
</g>
</g>
<!-- Node66&#45;&gt;Node53 -->
<g id="edge32_Node000066_Node000053" class="edge">
<title>Node66&#45;&gt;Node53</title>
<g id="a_edge32_Node000066_Node000053"><a xlink:title=" ">
<path fill="none" stroke="#63b8ff" d="M357.55,-183.25C349.53,-183.25 341.33,-183.25 333.24,-183.25"/>
<polygon fill="#63b8ff" stroke="#63b8ff" points="357.36,-186.75 367.36,-183.25 357.36,-179.75 357.36,-186.75"/>
</a>
</g>
</g>
<!-- Node68 -->
<g id="Node000068" class="node">
<title>Node68</title>
<g id="a_Node000068"><a xlink:href="../../d7/d21/class_slic3r_1_1_g_u_i_1_1_plater.html#a2eedfacd5e572cc6a37a4e5d5c479fea" target="_top" xlink:title=" ">
<polygon fill="#fff0f0" stroke="red" points="118.38,-149.5 22.12,-149.5 22.12,-119 118.38,-119 118.38,-149.5"/>
<text text-anchor="start" x="30.12" y="-136" font-family="Helvetica,sans-Serif" font-size="10.00">Slic3r::GUI::Plater</text>
<text text-anchor="middle" x="70.25" y="-124.75" font-family="Helvetica,sans-Serif" font-size="10.00">::calib_pa</text>
</a>
</g>
</g>
<!-- Node67&#45;&gt;Node68 -->
<g id="edge31_Node000067_Node000068" class="edge">
<title>Node67&#45;&gt;Node68</title>
<g id="a_edge31_Node000067_Node000068"><a xlink:title=" ">
<path fill="none" stroke="#63b8ff" d="M194.24,-134.25C169.73,-134.25 141.71,-134.25 118.61,-134.25"/>
<polygon fill="#63b8ff" stroke="#63b8ff" points="194.23,-137.75 204.23,-134.25 194.23,-130.75 194.23,-137.75"/>
</a>
</g>
</g>
<!-- Node73 -->
<g id="Node000073" class="node">
<title>Node73</title>
<g id="a_Node000073"><a xlink:href="../../de/de3/class_slic3r_1_1_g_u_i_1_1_menu_factory.html#a1733567e5b1a2227b4c5664e8b532244" target="_top" xlink:title=" ">
<polygon fill="white" stroke="#666666" points="667.75,-90.12 528.75,-90.12 528.75,-48.38 667.75,-48.38 667.75,-90.12"/>
<text text-anchor="start" x="536.75" y="-76.62" font-family="Helvetica,sans-Serif" font-size="10.00">Slic3r::GUI::MenuFactory</text>
<text text-anchor="start" x="536.75" y="-65.38" font-family="Helvetica,sans-Serif" font-size="10.00">::append_menu_item_merge</text>
<text text-anchor="middle" x="598.25" y="-54.12" font-family="Helvetica,sans-Serif" font-size="10.00">_to_multipart_object</text>
</a>
</g>
</g>
<!-- Node72&#45;&gt;Node73 -->
<g id="edge34_Node000072_Node000073" class="edge">
<title>Node72&#45;&gt;Node73</title>
<g id="a_edge34_Node000072_Node000073"><a xlink:title=" ">
<path fill="none" stroke="#63b8ff" d="M714.14,-110.07C696.63,-103.85 677.09,-96.91 659.17,-90.54"/>
<polygon fill="#63b8ff" stroke="#63b8ff" points="712.6,-113.59 723.2,-113.64 714.94,-107 712.6,-113.59"/>
</a>
</g>
</g>
<!-- Node74 -->
<g id="Node000074" class="node">
<title>Node74</title>
<g id="a_Node000074"><a xlink:href="../../de/de3/class_slic3r_1_1_g_u_i_1_1_menu_factory.html#a2a5554b03a6533856ccbfd7871493d72" target="_top" xlink:title=" ">
<polygon fill="white" stroke="#666666" points="667.75,-150.12 528.75,-150.12 528.75,-108.38 667.75,-108.38 667.75,-150.12"/>
<text text-anchor="start" x="536.75" y="-136.62" font-family="Helvetica,sans-Serif" font-size="10.00">Slic3r::GUI::MenuFactory</text>
<text text-anchor="start" x="536.75" y="-125.38" font-family="Helvetica,sans-Serif" font-size="10.00">::append_menu_item_merge</text>
<text text-anchor="middle" x="598.25" y="-114.12" font-family="Helvetica,sans-Serif" font-size="10.00">_to_single_object</text>
</a>
</g>
</g>
<!-- Node72&#45;&gt;Node74 -->
<g id="edge35_Node000072_Node000074" class="edge">
<title>Node72&#45;&gt;Node74</title>
<g id="a_edge35_Node000072_Node000074"><a xlink:title=" ">
<path fill="none" stroke="#63b8ff" d="M700.48,-129.25C689.82,-129.25 678.8,-129.25 668.11,-129.25"/>
<polygon fill="#63b8ff" stroke="#63b8ff" points="700.42,-132.75 710.42,-129.25 700.42,-125.75 700.42,-132.75"/>
</a>
</g>
</g>
<!-- Node76 -->
<g id="Node000076" class="node">
<title>Node76</title>
<g id="a_Node000076"><a xlink:href="../../d4/d88/struct_slic3r_1_1_g_u_i_1_1_plater_1_1priv.html#a6349f4c76b3d6bbdf03170cf68a4d447" target="_top" xlink:title=" ">
<polygon fill="white" stroke="#666666" points="646.38,-30.5 550.12,-30.5 550.12,0 646.38,0 646.38,-30.5"/>
<text text-anchor="start" x="558.12" y="-17" font-family="Helvetica,sans-Serif" font-size="10.00">Slic3r::GUI::Plater</text>
<text text-anchor="middle" x="598.25" y="-5.75" font-family="Helvetica,sans-Serif" font-size="10.00">::priv::split_object</text>
</a>
</g>
</g>
<!-- Node75&#45;&gt;Node76 -->
<g id="edge37_Node000075_Node000076" class="edge">
<title>Node75&#45;&gt;Node76</title>
<g id="a_edge37_Node000075_Node000076"><a xlink:title=" ">
<path fill="none" stroke="#63b8ff" d="M707.36,-36.38C687.39,-32.47 665.49,-28.19 646.66,-24.52"/>
<polygon fill="#63b8ff" stroke="#63b8ff" points="706.43,-39.96 716.91,-38.44 707.77,-33.09 706.43,-39.96"/>
</a>
</g>
</g>
</g>
</svg>

<g id="navigator" transform="translate(0 0)" fill="#404254">
  <rect fill="#f2f5e9" fill-opacity="0.5" stroke="#606060" stroke-width=".5" x="0" y="0" width="60" height="60"/>
  <use id="zoomplus" xlink:href="#zoomPlus" x="17" y="9" onmousedown="handleZoom(evt,'in')"/>
  <use id="zoomminus" xlink:href="#zoomMin" x="42" y="9" onmousedown="handleZoom(evt,'out')"/>
  <use id="reset" xlink:href="#resetDef" x="30" y="36" onmousedown="handleReset()"/>
   <use id="arrowup" xlink:href="#arrowUp" x="0" y="0" onmousedown="handlePan(0,-1)"/>
  <use id="arrowright" xlink:href="#arrowRight" x="0" y="0" onmousedown="handlePan(1,0)"/>
  <use id="arrowdown" xlink:href="#arrowDown" x="0" y="0" onmousedown="handlePan(0,1)"/>
  <use id="arrowleft" xlink:href="#arrowLeft" x="0" y="0" onmousedown="handlePan(-1,0)"/>
</g>
<svg viewBox="0 0 15 15" width="100%" height="30px" preserveAspectRatio="xMaxYMin meet">
 <g id="arrow_out" transform="scale(0.3 0.3)">
  <a xlink:href="class_slic3r_1_1_model_object_acda0b940cd0f3a7fd9da3888ca92f461_icgraph_org.svg" target="_base">
   <rect id="button" ry="5" rx="5" y="6" x="6" height="38" width="38"
        fill="#f2f5e9" fill-opacity="0.5" stroke="#606060" stroke-width="1.0"/>
   <path id="arrow"
     d="M 11.500037,31.436501 C 11.940474,20.09759 22.043105,11.32322 32.158766,21.979434 L 37.068811,17.246167 C 37.068811,17.246167 37.088388,32 37.088388,32 L 22.160133,31.978069 C 22.160133,31.978069 26.997745,27.140456 26.997745,27.140456 C 18.528582,18.264221 13.291696,25.230495 11.500037,31.436501 z"
     style="fill:#404040;"/>
  </a>
 </g>
</svg>

<style type='text/css'>
<![CDATA[
[data-mouse-over-selected='false'] { opacity: 0.7; }
[data-mouse-over-selected='true']  { opacity: 1.0; }
]]>
</style>
<script type="application/ecmascript"><![CDATA[
document.addEventListener('DOMContentLoaded', (event) => {
  highlightEdges();
  highlightAdjacentNodes();
});
]]></script>
</svg>
