<?xml version="1.0" encoding="UTF-8" standalone="no"?>
<!DOCTYPE svg PUBLIC "-//W3C//DTD SVG 1.1//EN"
 "http://www.w3.org/Graphics/SVG/1.1/DTD/svg11.dtd">
<!-- Generated by graphviz version 8.1.0 (20230707.0739)
 -->
<!-- Title: Slic3r::ModelObject::get_model Pages: 1 -->
<svg width="768pt" height="245pt"
 viewBox="0.00 0.00 768.25 245.12" xmlns="http://www.w3.org/2000/svg" xmlns:xlink="http://www.w3.org/1999/xlink">
<g id="graph0" class="graph" transform="scale(1 1) rotate(0) translate(4 241.12)">
<title>Slic3r::ModelObject::get_model</title>
<!-- Node1 -->
<g id="Node000001" class="node">
<title>Node1</title>
<g id="a_Node000001"><a xlink:title=" ">
<polygon fill="#999999" stroke="#666666" points="760.25,-166.12 658.75,-166.12 658.75,-135.62 760.25,-135.62 760.25,-166.12"/>
<text text-anchor="start" x="666.75" y="-152.62" font-family="Helvetica,sans-Serif" font-size="10.00">Slic3r::ModelObject</text>
<text text-anchor="middle" x="709.5" y="-141.38" font-family="Helvetica,sans-Serif" font-size="10.00">::get_model</text>
</a>
</g>
</g>
<!-- Node2 -->
<g id="Node000002" class="node">
<title>Node2</title>
<g id="a_Node000002"><a xlink:href="../../dd/d8d/class_slic3r_1_1_model.html#ac3f82258b6115059ab4141659cc3ec56" target="_top" xlink:title=" ">
<polygon fill="white" stroke="#666666" points="607.38,-237.12 512.62,-237.12 512.62,-206.62 607.38,-206.62 607.38,-237.12"/>
<text text-anchor="start" x="520.62" y="-223.62" font-family="Helvetica,sans-Serif" font-size="10.00">Slic3r::Model::add</text>
<text text-anchor="middle" x="560" y="-212.38" font-family="Helvetica,sans-Serif" font-size="10.00">_object</text>
</a>
</g>
</g>
<!-- Node1&#45;&gt;Node2 -->
<g id="edge1_Node000001_Node000002" class="edge">
<title>Node1&#45;&gt;Node2</title>
<g id="a_edge1_Node000001_Node000002"><a xlink:title=" ">
<path fill="none" stroke="#63b8ff" d="M671.65,-171.77C656.66,-179.97 639.06,-189.23 622.75,-196.88 615.94,-200.07 608.61,-203.25 601.46,-206.22"/>
<polygon fill="#63b8ff" stroke="#63b8ff" points="673.02,-174.46 680.08,-166.56 669.63,-168.33 673.02,-174.46"/>
</a>
</g>
</g>
<!-- Node3 -->
<g id="Node000003" class="node">
<title>Node3</title>
<g id="a_Node000003"><a xlink:href="../../d0/d23/class_slic3r_1_1_model_object.html#a215700b06cb606f2f6e7f4b3cb538fbc" target="_top" xlink:title=" ">
<polygon fill="white" stroke="#666666" points="610.75,-188.12 509.25,-188.12 509.25,-157.62 610.75,-157.62 610.75,-188.12"/>
<text text-anchor="start" x="517.25" y="-174.62" font-family="Helvetica,sans-Serif" font-size="10.00">Slic3r::ModelObject</text>
<text text-anchor="middle" x="560" y="-163.38" font-family="Helvetica,sans-Serif" font-size="10.00">::get_backup_id</text>
</a>
</g>
</g>
<!-- Node1&#45;&gt;Node3 -->
<g id="edge2_Node000001_Node000003" class="edge">
<title>Node1&#45;&gt;Node3</title>
<g id="a_edge2_Node000001_Node000003"><a xlink:title=" ">
<path fill="none" stroke="#63b8ff" d="M647.97,-159.9C635.72,-161.73 622.98,-163.63 611.14,-165.4"/>
<polygon fill="#63b8ff" stroke="#63b8ff" points="648.19,-163.26 657.56,-158.32 647.16,-156.34 648.19,-163.26"/>
</a>
</g>
</g>
<!-- Node4 -->
<g id="Node000004" class="node">
<title>Node4</title>
<g id="a_Node000004"><a xlink:href="../../dd/d03/class_slic3r_1_1_g_u_i_1_1_object_list.html#a63fd4980638d47c3f371bd3c9eb68410" target="_top" xlink:title=" ">
<polygon fill="white" stroke="#666666" points="461.25,-150.75 335.75,-150.75 335.75,-109 461.25,-109 461.25,-150.75"/>
<text text-anchor="start" x="343.75" y="-137.25" font-family="Helvetica,sans-Serif" font-size="10.00">Slic3r::GUI::ObjectList</text>
<text text-anchor="start" x="343.75" y="-126" font-family="Helvetica,sans-Serif" font-size="10.00">::instances_to_separated</text>
<text text-anchor="middle" x="398.5" y="-114.75" font-family="Helvetica,sans-Serif" font-size="10.00">_object</text>
</a>
</g>
</g>
<!-- Node1&#45;&gt;Node4 -->
<g id="edge3_Node000001_Node000004" class="edge">
<title>Node1&#45;&gt;Node4</title>
<g id="a_edge3_Node000001_Node000004"><a xlink:title=" ">
<path fill="none" stroke="#63b8ff" d="M647.76,-146.75C594,-143.09 515.88,-137.78 461.68,-134.1"/>
<polygon fill="#63b8ff" stroke="#63b8ff" points="647.3,-150.29 657.51,-147.48 647.77,-143.31 647.3,-150.29"/>
</a>
</g>
</g>
<!-- Node12 -->
<g id="Node000012" class="node">
<title>Node12</title>
<g id="a_Node000012"><a xlink:href="../../dd/d03/class_slic3r_1_1_g_u_i_1_1_object_list.html#a265ce2ecf7eaa21ccdcae3ca29c39d38" target="_top" xlink:title=" ">
<polygon fill="white" stroke="#666666" points="622.75,-101.75 497.25,-101.75 497.25,-60 622.75,-60 622.75,-101.75"/>
<text text-anchor="start" x="505.25" y="-88.25" font-family="Helvetica,sans-Serif" font-size="10.00">Slic3r::GUI::ObjectList</text>
<text text-anchor="start" x="505.25" y="-77" font-family="Helvetica,sans-Serif" font-size="10.00">::instances_to_separated</text>
<text text-anchor="middle" x="560" y="-65.75" font-family="Helvetica,sans-Serif" font-size="10.00">_objects</text>
</a>
</g>
</g>
<!-- Node1&#45;&gt;Node12 -->
<g id="edge11_Node000001_Node000012" class="edge">
<title>Node1&#45;&gt;Node12</title>
<g id="a_edge11_Node000001_Node000012"><a xlink:title=" ">
<path fill="none" stroke="#63b8ff" d="M665.66,-130.54C646.94,-121.66 624.98,-111.24 606.02,-102.24"/>
<polygon fill="#63b8ff" stroke="#63b8ff" points="663.86,-134.04 674.4,-135.17 666.86,-127.72 663.86,-134.04"/>
</a>
</g>
</g>
<!-- Node5 -->
<g id="Node000005" class="node">
<title>Node5</title>
<g id="a_Node000005"><a xlink:href="../../dd/d03/class_slic3r_1_1_g_u_i_1_1_object_list.html#a84b2daec7b4dfe3af81301a08a6f35d4" target="_top" xlink:title=" ">
<polygon fill="white" stroke="#666666" points="299.75,-112.12 184.75,-112.12 184.75,-81.62 299.75,-81.62 299.75,-112.12"/>
<text text-anchor="start" x="192.75" y="-98.62" font-family="Helvetica,sans-Serif" font-size="10.00">Slic3r::GUI::ObjectList</text>
<text text-anchor="middle" x="242.25" y="-87.38" font-family="Helvetica,sans-Serif" font-size="10.00">::merge</text>
</a>
</g>
</g>
<!-- Node4&#45;&gt;Node5 -->
<g id="edge4_Node000004_Node000005" class="edge">
<title>Node4&#45;&gt;Node5</title>
<g id="a_edge4_Node000004_Node000005"><a xlink:title=" ">
<path fill="none" stroke="#63b8ff" d="M325.1,-114.39C316.71,-112.59 308.25,-110.78 300.12,-109.04"/>
<polygon fill="#63b8ff" stroke="#63b8ff" points="324.14,-117.97 334.65,-116.64 325.6,-111.13 324.14,-117.97"/>
</a>
</g>
</g>
<!-- Node8 -->
<g id="Node000008" class="node">
<title>Node8</title>
<g id="a_Node000008"><a xlink:href="../../dd/d03/class_slic3r_1_1_g_u_i_1_1_object_list.html#a9daef95c2364c6f0f104c2e6eab84002" target="_top" xlink:title=" ">
<polygon fill="white" stroke="#666666" points="299.75,-193.12 184.75,-193.12 184.75,-162.62 299.75,-162.62 299.75,-193.12"/>
<text text-anchor="start" x="192.75" y="-179.62" font-family="Helvetica,sans-Serif" font-size="10.00">Slic3r::GUI::ObjectList</text>
<text text-anchor="middle" x="242.25" y="-168.38" font-family="Helvetica,sans-Serif" font-size="10.00">::OnDrop</text>
</a>
</g>
</g>
<!-- Node4&#45;&gt;Node8 -->
<g id="edge7_Node000004_Node000008" class="edge">
<title>Node4&#45;&gt;Node8</title>
<g id="a_edge7_Node000004_Node000008"><a xlink:title=" ">
<path fill="none" stroke="#63b8ff" d="M325.45,-152.3C314.73,-155.63 303.89,-159 293.75,-162.16"/>
<polygon fill="#63b8ff" stroke="#63b8ff" points="326.14,-155.44 334.65,-149.12 324.06,-148.75 326.14,-155.44"/>
</a>
</g>
</g>
<!-- Node10 -->
<g id="Node000010" class="node">
<title>Node10</title>
<g id="a_Node000010"><a xlink:href="../../dd/d03/class_slic3r_1_1_g_u_i_1_1_object_list.html#afa1b4f0c6e7a1ec4ae19be6fa6c47f44" target="_top" xlink:title=" ">
<polygon fill="white" stroke="#666666" points="299.75,-58.12 184.75,-58.12 184.75,-27.62 299.75,-27.62 299.75,-58.12"/>
<text text-anchor="start" x="192.75" y="-44.62" font-family="Helvetica,sans-Serif" font-size="10.00">Slic3r::GUI::ObjectList</text>
<text text-anchor="middle" x="242.25" y="-33.38" font-family="Helvetica,sans-Serif" font-size="10.00">::split_instances</text>
</a>
</g>
</g>
<!-- Node4&#45;&gt;Node10 -->
<g id="edge9_Node000004_Node000010" class="edge">
<title>Node4&#45;&gt;Node10</title>
<g id="a_edge9_Node000004_Node000010"><a xlink:title=" ">
<path fill="none" stroke="#63b8ff" d="M352.53,-103.15C336.01,-93.47 317.11,-82.54 299.75,-72.88 291.21,-68.12 281.87,-63.09 273.28,-58.54"/>
<polygon fill="#63b8ff" stroke="#63b8ff" points="350.55,-106.63 360.95,-108.69 354.1,-100.6 350.55,-106.63"/>
</a>
</g>
</g>
<!-- Node6 -->
<g id="Node000006" class="node">
<title>Node6</title>
<g id="a_Node000006"><a xlink:href="../../de/de3/class_slic3r_1_1_g_u_i_1_1_menu_factory.html#a1733567e5b1a2227b4c5664e8b532244" target="_top" xlink:title=" ">
<polygon fill="white" stroke="#666666" points="143.88,-161.75 4.88,-161.75 4.88,-120 143.88,-120 143.88,-161.75"/>
<text text-anchor="start" x="12.88" y="-148.25" font-family="Helvetica,sans-Serif" font-size="10.00">Slic3r::GUI::MenuFactory</text>
<text text-anchor="start" x="12.88" y="-137" font-family="Helvetica,sans-Serif" font-size="10.00">::append_menu_item_merge</text>
<text text-anchor="middle" x="74.38" y="-125.75" font-family="Helvetica,sans-Serif" font-size="10.00">_to_multipart_object</text>
</a>
</g>
</g>
<!-- Node5&#45;&gt;Node6 -->
<g id="edge5_Node000005_Node000006" class="edge">
<title>Node5&#45;&gt;Node6</title>
<g id="a_edge5_Node000005_Node000006"><a xlink:title=" ">
<path fill="none" stroke="#63b8ff" d="M174.13,-114.68C164.32,-117.28 154.21,-119.96 144.36,-122.57"/>
<polygon fill="#63b8ff" stroke="#63b8ff" points="174.86,-117.84 183.63,-111.89 173.07,-111.08 174.86,-117.84"/>
</a>
</g>
</g>
<!-- Node7 -->
<g id="Node000007" class="node">
<title>Node7</title>
<g id="a_Node000007"><a xlink:href="../../de/de3/class_slic3r_1_1_g_u_i_1_1_menu_factory.html#a2a5554b03a6533856ccbfd7871493d72" target="_top" xlink:title=" ">
<polygon fill="white" stroke="#666666" points="143.88,-101.75 4.88,-101.75 4.88,-60 143.88,-60 143.88,-101.75"/>
<text text-anchor="start" x="12.88" y="-88.25" font-family="Helvetica,sans-Serif" font-size="10.00">Slic3r::GUI::MenuFactory</text>
<text text-anchor="start" x="12.88" y="-77" font-family="Helvetica,sans-Serif" font-size="10.00">::append_menu_item_merge</text>
<text text-anchor="middle" x="74.38" y="-65.75" font-family="Helvetica,sans-Serif" font-size="10.00">_to_single_object</text>
</a>
</g>
</g>
<!-- Node5&#45;&gt;Node7 -->
<g id="edge6_Node000005_Node000007" class="edge">
<title>Node5&#45;&gt;Node7</title>
<g id="a_edge6_Node000005_Node000007"><a xlink:title=" ">
<path fill="none" stroke="#63b8ff" d="M173.82,-90.37C164.11,-89.43 154.1,-88.47 144.36,-87.53"/>
<polygon fill="#63b8ff" stroke="#63b8ff" points="173.34,-93.94 183.63,-91.41 174.01,-86.97 173.34,-93.94"/>
</a>
</g>
</g>
<!-- Node9 -->
<g id="Node000009" class="node">
<title>Node9</title>
<g id="a_Node000009"><a xlink:href="../../dd/d03/class_slic3r_1_1_g_u_i_1_1_object_list.html#a6fbab7869374ead2e6dd74577d72645c" target="_top" xlink:title=" ">
<polygon fill="white" stroke="#666666" points="131.88,-210.12 16.88,-210.12 16.88,-179.62 131.88,-179.62 131.88,-210.12"/>
<text text-anchor="start" x="24.88" y="-196.62" font-family="Helvetica,sans-Serif" font-size="10.00">Slic3r::GUI::ObjectList</text>
<text text-anchor="middle" x="74.38" y="-185.38" font-family="Helvetica,sans-Serif" font-size="10.00">::ObjectList</text>
</a>
</g>
</g>
<!-- Node8&#45;&gt;Node9 -->
<g id="edge8_Node000008_Node000009" class="edge">
<title>Node8&#45;&gt;Node9</title>
<g id="a_edge8_Node000008_Node000009"><a xlink:title=" ">
<path fill="none" stroke="#63b8ff" d="M173.75,-184.79C159.99,-186.2 145.65,-187.67 132.3,-189.04"/>
<polygon fill="#63b8ff" stroke="#63b8ff" points="174.04,-188.18 183.63,-183.68 173.32,-181.22 174.04,-188.18"/>
</a>
</g>
</g>
<!-- Node11 -->
<g id="Node000011" class="node">
<title>Node11</title>
<g id="a_Node000011"><a xlink:href="../../de/de3/class_slic3r_1_1_g_u_i_1_1_menu_factory.html#a2e4754a5ee6d2a185ffbb692dca1c08b" target="_top" xlink:title=" ">
<polygon fill="white" stroke="#666666" points="148.75,-41.75 0,-41.75 0,0 148.75,0 148.75,-41.75"/>
<text text-anchor="start" x="8" y="-28.25" font-family="Helvetica,sans-Serif" font-size="10.00">Slic3r::GUI::MenuFactory</text>
<text text-anchor="start" x="8" y="-17" font-family="Helvetica,sans-Serif" font-size="10.00">::append_menu_item_instance</text>
<text text-anchor="middle" x="74.38" y="-5.75" font-family="Helvetica,sans-Serif" font-size="10.00">_to_object</text>
</a>
</g>
</g>
<!-- Node10&#45;&gt;Node11 -->
<g id="edge10_Node000010_Node000011" class="edge">
<title>Node10&#45;&gt;Node11</title>
<g id="a_edge10_Node000010_Node000011"><a xlink:title=" ">
<path fill="none" stroke="#63b8ff" d="M173.98,-33.95C165.77,-32.86 157.35,-31.75 149.05,-30.65"/>
<polygon fill="#63b8ff" stroke="#63b8ff" points="173.26,-37.52 183.63,-35.37 174.18,-30.58 173.26,-37.52"/>
</a>
</g>
</g>
<!-- Node12&#45;&gt;Node4 -->
<g id="edge12_Node000012_Node000004" class="edge">
<title>Node12&#45;&gt;Node4</title>
<g id="a_edge12_Node000012_Node000004"><a xlink:title=" ">
<path fill="none" stroke="#63b8ff" d="M486.48,-103.15C478.21,-105.69 469.84,-108.27 461.72,-110.76"/>
<polygon fill="#63b8ff" stroke="#63b8ff" points="487.35,-106.24 495.88,-99.96 485.29,-99.55 487.35,-106.24"/>
</a>
</g>
</g>
<!-- Node12&#45;&gt;Node5 -->
<g id="edge13_Node000012_Node000005" class="edge">
<title>Node12&#45;&gt;Node5</title>
<g id="a_edge13_Node000012_Node000005"><a xlink:title=" ">
<path fill="none" stroke="#63b8ff" d="M486.32,-84.56C429.7,-87.43 352.21,-91.35 300.07,-94"/>
<polygon fill="#63b8ff" stroke="#63b8ff" points="486.18,-88.02 495.99,-84.02 485.83,-81.03 486.18,-88.02"/>
</a>
</g>
</g>
<!-- Node12&#45;&gt;Node10 -->
<g id="edge14_Node000012_Node000010" class="edge">
<title>Node12&#45;&gt;Node10</title>
<g id="a_edge14_Node000012_Node000010"><a xlink:title=" ">
<path fill="none" stroke="#63b8ff" d="M486.32,-72.13C429.7,-65.31 352.21,-55.99 300.07,-49.71"/>
<polygon fill="#63b8ff" stroke="#63b8ff" points="485.65,-75.69 495.99,-73.41 486.48,-68.74 485.65,-75.69"/>
</a>
</g>
</g>
</g>
</svg>
