<?xml version="1.0" encoding="UTF-8" standalone="no"?>
<!DOCTYPE svg PUBLIC "-//W3C//DTD SVG 1.1//EN"
 "http://www.w3.org/Graphics/SVG/1.1/DTD/svg11.dtd">
<!-- Generated by graphviz version 8.1.0 (20230707.0739)
 -->
<!-- Title: NppDarkMode::OnSettingChange Pages: 1 -->
<!--zoomable 131 -->

<svg id="main" version="1.1" xmlns="http://www.w3.org/2000/svg" xmlns:xlink="http://www.w3.org/1999/xlink" xml:space="preserve" onload="init(evt)">
<style type="text/css"><![CDATA[
.node, .edge {opacity: 0.7;}
.node.selected, .edge.selected {opacity: 1;}
.edge:hover path { stroke: red; }
.edge:hover polygon { stroke: red; fill: red; }
]]></style>

<defs>
  <circle id="rim" cx="0" cy="0" r="7"/>
  <circle id="rim2" cx="0" cy="0" r="3.5"/>
  <g id="zoomPlus">
    <use xlink:href="#rim" fill="#404040"><set attributeName="fill" to="#808080" begin="zoomplus.mouseover" end="zoomplus.mouseout"/></use>
    <path d="M-4,0h8M0,-4v8" fill="none" stroke="white" stroke-width="1.5" pointer-events="none"/>
  </g>
  <g id="zoomMin">
    <use xlink:href="#rim" fill="#404040"><set attributeName="fill" to="#808080" begin="zoomminus.mouseover" end="zoomminus.mouseout"/></use>
    <path d="M-4,0h8" fill="none" stroke="white" stroke-width="1.5" pointer-events="none"/>
  </g>
  <g id="arrowUp" transform="translate(30 24)">
    <use xlink:href="#rim"/>
    <path pointer-events="none" fill="none" stroke="white" stroke-width="1.5" d="M0,-3.0v7 M-2.5,-0.5L0,-3.0L2.5,-0.5"/>
  </g>
  <g id="arrowRight" transform="rotate(90) translate(36 -43)">
    <use xlink:href="#rim"/>
    <path pointer-events="none" fill="none" stroke="white" stroke-width="1.5" d="M0,-3.0v7 M-2.5,-0.5L0,-3.0L2.5,-0.5"/>
  </g>
  <g id="arrowDown" transform="rotate(180) translate(-30 -48)">
    <use xlink:href="#rim"/>
    <path pointer-events="none" fill="none" stroke="white" stroke-width="1.5" d="M0,-3.0v7 M-2.5,-0.5L0,-3.0L2.5,-0.5"/>
  </g>
  <g id="arrowLeft" transform="rotate(270) translate(-36 17)">
    <use xlink:href="#rim"/>
    <path pointer-events="none" fill="none" stroke="white" stroke-width="1.5" d="M0,-3.0v7 M-2.5,-0.5L0,-3.0L2.5,-0.5"/>
  </g>
  <g id="resetDef">
    <use xlink:href="#rim2" fill="#404040"><set attributeName="fill" to="#808080" begin="reset.mouseover" end="reset.mouseout"/></use>
  </g>
</defs>
<script type="application/ecmascript">
var viewWidth = 537;
var viewHeight = 131;
var sectionId = 'dynsection-31';
</script>
<script type="application/ecmascript" xlink:href="../../svg.min.js"/>
<svg id="graph" class="graph">
<g id="viewport">
<title>NppDarkMode::OnSettingChange</title>
<!-- Node1 -->
<g id="Node000001" class="node">
<title>Node1</title>
<g id="a_Node000001"><a xlink:title=" ">
<polygon fill="#999999" stroke="#666666" points="162.25,-85.88 0,-85.88 0,-66.62 162.25,-66.62 162.25,-85.88"/>
<text text-anchor="middle" x="81.12" y="-72.38" font-family="Helvetica,sans-Serif" font-size="10.00">NppDarkMode::OnSettingChange</text>
</a>
</g>
</g>
<!-- Node2 -->
<g id="Node000002" class="node">
<title>Node2</title>
<g id="a_Node000002"><a xlink:href="../../de/d92/dark__mode_2dark__mode_8hpp.html#a295d9fa4ff546ca7fc74ee8464e84cda" target="_top" xlink:title=" ">
<polygon fill="white" stroke="#666666" points="355.25,-122.88 198.25,-122.88 198.25,-103.62 355.25,-103.62 355.25,-122.88"/>
<text text-anchor="middle" x="276.75" y="-109.38" font-family="Helvetica,sans-Serif" font-size="10.00">IsColorSchemeChangeMessage</text>
</a>
</g>
</g>
<!-- Node1&#45;&gt;Node2 -->
<g id="edge1_Node000001_Node000002" class="edge">
<title>Node1&#45;&gt;Node2</title>
<g id="a_edge1_Node000001_Node000002"><a xlink:title=" ">
<path fill="none" stroke="#63b8ff" d="M135.03,-86.36C158.94,-90.93 187.38,-96.36 212.41,-101.15"/>
<polygon fill="#63b8ff" stroke="#63b8ff" points="211.43,-104.71 221.91,-103.15 212.74,-97.84 211.43,-104.71"/>
</a>
</g>
</g>
<!-- Node3 -->
<g id="Node000003" class="node">
<title>Node3</title>
<g id="a_Node000003"><a xlink:href="../../de/d92/dark__mode_2dark__mode_8hpp.html#a85e5b92f6b032cfd62eb3ab5c4f655cc" target="_top" xlink:title=" ">
<polygon fill="white" stroke="#666666" points="317.75,-85.88 235.75,-85.88 235.75,-66.62 317.75,-66.62 317.75,-85.88"/>
<text text-anchor="middle" x="276.75" y="-72.38" font-family="Helvetica,sans-Serif" font-size="10.00">IsHighContrast</text>
</a>
</g>
</g>
<!-- Node1&#45;&gt;Node3 -->
<g id="edge2_Node000001_Node000003" class="edge">
<title>Node1&#45;&gt;Node3</title>
<g id="a_edge2_Node000001_Node000003"><a xlink:title=" ">
<path fill="none" stroke="#63b8ff" d="M162.56,-76.25C183.58,-76.25 205.66,-76.25 224.68,-76.25"/>
<polygon fill="#63b8ff" stroke="#63b8ff" points="224.49,-79.75 234.49,-76.25 224.49,-72.75 224.49,-79.75"/>
</a>
</g>
</g>
<!-- Node4 -->
<g id="Node000004" class="node">
<title>Node4</title>
<g id="a_Node000004"><a xlink:href="../../d2/d48/namespace_npp_dark_mode.html#ab8eb609d2108e74f20182ac374fce248" target="_top" xlink:title=" ">
<polygon fill="white" stroke="#666666" points="345.88,-30.5 207.62,-30.5 207.62,0 345.88,0 345.88,-30.5"/>
<text text-anchor="start" x="215.62" y="-17" font-family="Helvetica,sans-Serif" font-size="10.00">NppDarkMode::RefreshTitle</text>
<text text-anchor="middle" x="276.75" y="-5.75" font-family="Helvetica,sans-Serif" font-size="10.00">BarThemeColor</text>
</a>
</g>
</g>
<!-- Node1&#45;&gt;Node4 -->
<g id="edge3_Node000001_Node000004" class="edge">
<title>Node1&#45;&gt;Node4</title>
<g id="a_edge3_Node000001_Node000004"><a xlink:title=" ">
<path fill="none" stroke="#63b8ff" d="M114.1,-66.18C141.65,-57.5 182.16,-44.74 215.73,-34.16"/>
<polygon fill="#63b8ff" stroke="#63b8ff" points="216.42,-37.3 224.91,-30.95 214.32,-30.62 216.42,-37.3"/>
</a>
</g>
</g>
<!-- Node4&#45;&gt;Node4 -->
<g id="edge5_Node000004_Node000004" class="edge">
<title>Node4&#45;&gt;Node4</title>
<g id="a_edge5_Node000004_Node000004"><a xlink:title=" ">
<path fill="none" stroke="#63b8ff" d="M244.28,-30.99C237.65,-40.06 248.48,-48.5 276.75,-48.5 292.65,-48.5 303.04,-45.83 307.9,-41.88"/>
<polygon fill="#63b8ff" stroke="#63b8ff" points="311.49,-42.33 309.22,-31.99 304.54,-41.49 311.49,-42.33"/>
</a>
</g>
</g>
<!-- Node5 -->
<g id="Node000005" class="node">
<title>Node5</title>
<g id="a_Node000005"><a xlink:href="../../d2/d48/namespace_npp_dark_mode.html#a50aeb3ecdaa6bf357b974d2f34fb24d0" target="_top" xlink:title=" ">
<polygon fill="white" stroke="#666666" points="528.75,-24.88 391.25,-24.88 391.25,-5.63 528.75,-5.63 528.75,-24.88"/>
<text text-anchor="middle" x="460" y="-11.38" font-family="Helvetica,sans-Serif" font-size="10.00">NppDarkMode::IsSupported</text>
</a>
</g>
</g>
<!-- Node4&#45;&gt;Node5 -->
<g id="edge4_Node000004_Node000005" class="edge">
<title>Node4&#45;&gt;Node5</title>
<g id="a_edge4_Node000004_Node000005"><a xlink:title=" ">
<path fill="none" stroke="#63b8ff" d="M346.27,-15.25C357.36,-15.25 368.93,-15.25 380.24,-15.25"/>
<polygon fill="#63b8ff" stroke="#63b8ff" points="379.98,-18.75 389.98,-15.25 379.98,-11.75 379.98,-18.75"/>
</a>
</g>
</g>
</g>
</svg>

<g id="navigator" transform="translate(0 0)" fill="#404254">
  <rect fill="#f2f5e9" fill-opacity="0.5" stroke="#606060" stroke-width=".5" x="0" y="0" width="60" height="60"/>
  <use id="zoomplus" xlink:href="#zoomPlus" x="17" y="9" onmousedown="handleZoom(evt,'in')"/>
  <use id="zoomminus" xlink:href="#zoomMin" x="42" y="9" onmousedown="handleZoom(evt,'out')"/>
  <use id="reset" xlink:href="#resetDef" x="30" y="36" onmousedown="handleReset()"/>
   <use id="arrowup" xlink:href="#arrowUp" x="0" y="0" onmousedown="handlePan(0,-1)"/>
  <use id="arrowright" xlink:href="#arrowRight" x="0" y="0" onmousedown="handlePan(1,0)"/>
  <use id="arrowdown" xlink:href="#arrowDown" x="0" y="0" onmousedown="handlePan(0,1)"/>
  <use id="arrowleft" xlink:href="#arrowLeft" x="0" y="0" onmousedown="handlePan(-1,0)"/>
</g>
<svg viewBox="0 0 15 15" width="100%" height="30px" preserveAspectRatio="xMaxYMin meet">
 <g id="arrow_out" transform="scale(0.3 0.3)">
  <a xlink:href="namespace_npp_dark_mode_a01b3120a52ba113a17e0f8bfc88fffed_cgraph_org.svg" target="_base">
   <rect id="button" ry="5" rx="5" y="6" x="6" height="38" width="38"
        fill="#f2f5e9" fill-opacity="0.5" stroke="#606060" stroke-width="1.0"/>
   <path id="arrow"
     d="M 11.500037,31.436501 C 11.940474,20.09759 22.043105,11.32322 32.158766,21.979434 L 37.068811,17.246167 C 37.068811,17.246167 37.088388,32 37.088388,32 L 22.160133,31.978069 C 22.160133,31.978069 26.997745,27.140456 26.997745,27.140456 C 18.528582,18.264221 13.291696,25.230495 11.500037,31.436501 z"
     style="fill:#404040;"/>
  </a>
 </g>
</svg>

<style type='text/css'>
<![CDATA[
[data-mouse-over-selected='false'] { opacity: 0.7; }
[data-mouse-over-selected='true']  { opacity: 1.0; }
]]>
</style>
<script type="application/ecmascript"><![CDATA[
document.addEventListener('DOMContentLoaded', (event) => {
  highlightEdges();
  highlightAdjacentNodes();
});
]]></script>
</svg>
