<?xml version="1.0" encoding="UTF-8" standalone="no"?>
<!DOCTYPE svg PUBLIC "-//W3C//DTD SVG 1.1//EN"
 "http://www.w3.org/Graphics/SVG/1.1/DTD/svg11.dtd">
<!-- Generated by graphviz version 8.1.0 (20230707.0739)
 -->
<!-- Title: NppDarkMode::SetDarkExplorerTheme Pages: 1 -->
<!--zoomable 188 -->

<svg id="main" version="1.1" xmlns="http://www.w3.org/2000/svg" xmlns:xlink="http://www.w3.org/1999/xlink" xml:space="preserve" onload="init(evt)">
<style type="text/css"><![CDATA[
.node, .edge {opacity: 0.7;}
.node.selected, .edge.selected {opacity: 1;}
.edge:hover path { stroke: red; }
.edge:hover polygon { stroke: red; fill: red; }
]]></style>

<defs>
  <circle id="rim" cx="0" cy="0" r="7"/>
  <circle id="rim2" cx="0" cy="0" r="3.5"/>
  <g id="zoomPlus">
    <use xlink:href="#rim" fill="#404040"><set attributeName="fill" to="#808080" begin="zoomplus.mouseover" end="zoomplus.mouseout"/></use>
    <path d="M-4,0h8M0,-4v8" fill="none" stroke="white" stroke-width="1.5" pointer-events="none"/>
  </g>
  <g id="zoomMin">
    <use xlink:href="#rim" fill="#404040"><set attributeName="fill" to="#808080" begin="zoomminus.mouseover" end="zoomminus.mouseout"/></use>
    <path d="M-4,0h8" fill="none" stroke="white" stroke-width="1.5" pointer-events="none"/>
  </g>
  <g id="arrowUp" transform="translate(30 24)">
    <use xlink:href="#rim"/>
    <path pointer-events="none" fill="none" stroke="white" stroke-width="1.5" d="M0,-3.0v7 M-2.5,-0.5L0,-3.0L2.5,-0.5"/>
  </g>
  <g id="arrowRight" transform="rotate(90) translate(36 -43)">
    <use xlink:href="#rim"/>
    <path pointer-events="none" fill="none" stroke="white" stroke-width="1.5" d="M0,-3.0v7 M-2.5,-0.5L0,-3.0L2.5,-0.5"/>
  </g>
  <g id="arrowDown" transform="rotate(180) translate(-30 -48)">
    <use xlink:href="#rim"/>
    <path pointer-events="none" fill="none" stroke="white" stroke-width="1.5" d="M0,-3.0v7 M-2.5,-0.5L0,-3.0L2.5,-0.5"/>
  </g>
  <g id="arrowLeft" transform="rotate(270) translate(-36 17)">
    <use xlink:href="#rim"/>
    <path pointer-events="none" fill="none" stroke="white" stroke-width="1.5" d="M0,-3.0v7 M-2.5,-0.5L0,-3.0L2.5,-0.5"/>
  </g>
  <g id="resetDef">
    <use xlink:href="#rim2" fill="#404040"><set attributeName="fill" to="#808080" begin="reset.mouseover" end="reset.mouseout"/></use>
  </g>
</defs>
<script type="application/ecmascript">
var viewWidth = 1201;
var viewHeight = 188;
var sectionId = 'dynsection-40';
</script>
<script type="application/ecmascript" xlink:href="../../svg.min.js"/>
<svg id="graph" class="graph">
<g id="viewport">
<title>NppDarkMode::SetDarkExplorerTheme</title>
<!-- Node1 -->
<g id="Node000001" class="node">
<title>Node1</title>
<g id="a_Node000001"><a xlink:title=" ">
<polygon fill="#999999" stroke="#666666" points="1192.75,-104.5 1035.75,-104.5 1035.75,-74 1192.75,-74 1192.75,-104.5"/>
<text text-anchor="start" x="1043.75" y="-91" font-family="Helvetica,sans-Serif" font-size="10.00">NppDarkMode::SetDarkExplorer</text>
<text text-anchor="middle" x="1114.25" y="-79.75" font-family="Helvetica,sans-Serif" font-size="10.00">Theme</text>
</a>
</g>
</g>
<!-- Node2 -->
<g id="Node000002" class="node">
<title>Node2</title>
<g id="a_Node000002"><a xlink:href="../../d9/d01/class_slic3r_1_1_g_u_i_1_1_g_u_i___app.html#a49001a30b16ab330da66f70c52aa5053" target="_top" xlink:title=" ">
<polygon fill="white" stroke="#666666" points="803,-179.5 691.75,-179.5 691.75,-149 803,-149 803,-179.5"/>
<text text-anchor="start" x="699.75" y="-166" font-family="Helvetica,sans-Serif" font-size="10.00">Slic3r::GUI::GUI_App</text>
<text text-anchor="middle" x="747.38" y="-154.75" font-family="Helvetica,sans-Serif" font-size="10.00">::force_colors_update</text>
</a>
</g>
</g>
<!-- Node1&#45;&gt;Node2 -->
<g id="edge1_Node000001_Node000002" class="edge">
<title>Node1&#45;&gt;Node2</title>
<g id="a_edge1_Node000001_Node000002"><a xlink:title=" ">
<path fill="none" stroke="#63b8ff" d="M1058.88,-108.36C1040.3,-114.39 1019.27,-120.67 999.75,-125.25 932.89,-140.94 854.51,-151.96 803.27,-158.19"/>
<polygon fill="#63b8ff" stroke="#63b8ff" points="1059.82,-111.4 1068.22,-104.95 1057.63,-104.76 1059.82,-111.4"/>
</a>
</g>
</g>
<!-- Node3 -->
<g id="Node000003" class="node">
<title>Node3</title>
<g id="a_Node000003"><a xlink:href="../../d7/d57/class_slic3r_1_1_g_u_i_1_1_preferences_dialog.html#a3466df52cd75502ce723795f89c5b3b1" target="_top" xlink:title=" ">
<polygon fill="white" stroke="#666666" points="809,-130.5 685.75,-130.5 685.75,-100 809,-100 809,-130.5"/>
<text text-anchor="start" x="693.75" y="-117" font-family="Helvetica,sans-Serif" font-size="10.00">Slic3r::GUI::Preferences</text>
<text text-anchor="middle" x="747.38" y="-105.75" font-family="Helvetica,sans-Serif" font-size="10.00">Dialog::set_dark_mode</text>
</a>
</g>
</g>
<!-- Node1&#45;&gt;Node3 -->
<g id="edge2_Node000001_Node000003" class="edge">
<title>Node1&#45;&gt;Node3</title>
<g id="a_edge2_Node000001_Node000003"><a xlink:title=" ">
<path fill="none" stroke="#63b8ff" d="M1024.67,-105.29C1016.27,-106.44 1007.86,-107.46 999.75,-108.25 935,-114.54 860.47,-115.88 809.48,-115.9"/>
<polygon fill="#63b8ff" stroke="#63b8ff" points="1024.89,-108.65 1034.29,-103.76 1023.89,-101.72 1024.89,-108.65"/>
</a>
</g>
</g>
<!-- Node8 -->
<g id="Node000008" class="node">
<title>Node8</title>
<g id="a_Node000008"><a xlink:href="../../d2/d48/namespace_npp_dark_mode.html#a7c2474cdf7c2cf7cb88710768a4c605b" target="_top" xlink:title=" ">
<polygon fill="white" stroke="#666666" points="999.75,-98.88 845,-98.88 845,-79.62 999.75,-79.62 999.75,-98.88"/>
<text text-anchor="middle" x="922.38" y="-85.38" font-family="Helvetica,sans-Serif" font-size="10.00">NppDarkMode::SetDarkTitleBar</text>
</a>
</g>
</g>
<!-- Node1&#45;&gt;Node8 -->
<g id="edge7_Node000001_Node000008" class="edge">
<title>Node1&#45;&gt;Node8</title>
<g id="a_edge7_Node000001_Node000008"><a xlink:title=" ">
<path fill="none" stroke="#63b8ff" d="M1024.72,-89.25C1016.5,-89.25 1008.21,-89.25 1000.11,-89.25"/>
<polygon fill="#63b8ff" stroke="#63b8ff" points="1024.47,-92.75 1034.47,-89.25 1024.47,-85.75 1024.47,-92.75"/>
</a>
</g>
</g>
<!-- Node9 -->
<g id="Node000009" class="node">
<title>Node9</title>
<g id="a_Node000009"><a xlink:href="../../d9/d01/class_slic3r_1_1_g_u_i_1_1_g_u_i___app.html#a38ab605b6f539151f95d3b18f4a27159" target="_top" xlink:title=" ">
<polygon fill="white" stroke="#666666" points="803,-80.5 691.75,-80.5 691.75,-50 803,-50 803,-80.5"/>
<text text-anchor="start" x="699.75" y="-67" font-family="Helvetica,sans-Serif" font-size="10.00">Slic3r::GUI::GUI_App</text>
<text text-anchor="middle" x="747.38" y="-55.75" font-family="Helvetica,sans-Serif" font-size="10.00">::UpdateDlgDarkUI</text>
</a>
</g>
</g>
<!-- Node1&#45;&gt;Node9 -->
<g id="edge12_Node000001_Node000009" class="edge">
<title>Node1&#45;&gt;Node9</title>
<g id="a_edge12_Node000001_Node000009"><a xlink:title=" ">
<path fill="none" stroke="#63b8ff" d="M1024.67,-73.15C1016.27,-72 1007.86,-71.01 999.75,-70.25 932.38,-63.98 854.44,-63.47 803.43,-64.04"/>
<polygon fill="#63b8ff" stroke="#63b8ff" points="1023.9,-76.71 1034.29,-74.66 1024.89,-69.78 1023.9,-76.71"/>
</a>
</g>
</g>
<!-- Node10 -->
<g id="Node000010" class="node">
<title>Node10</title>
<g id="a_Node000010"><a xlink:href="../../d9/d01/class_slic3r_1_1_g_u_i_1_1_g_u_i___app.html#a1ee193a9a4a14ea62dc9b3e1467c7575" target="_top" xlink:title=" ">
<polygon fill="white" stroke="#666666" points="803.75,-30.5 691,-30.5 691,0 803.75,0 803.75,-30.5"/>
<text text-anchor="start" x="699" y="-17" font-family="Helvetica,sans-Serif" font-size="10.00">Slic3r::GUI::GUI_App</text>
<text text-anchor="middle" x="747.38" y="-5.75" font-family="Helvetica,sans-Serif" font-size="10.00">::UpdateFrameDarkUI</text>
</a>
</g>
</g>
<!-- Node1&#45;&gt;Node10 -->
<g id="edge13_Node000001_Node000010" class="edge">
<title>Node1&#45;&gt;Node10</title>
<g id="a_edge13_Node000001_Node000010"><a xlink:title=" ">
<path fill="none" stroke="#63b8ff" d="M1047.22,-70.78C1031.71,-66.73 1015.2,-62.64 999.75,-59.25 932.89,-44.59 855.17,-31.6 804.06,-23.6"/>
<polygon fill="#63b8ff" stroke="#63b8ff" points="1046.21,-74.4 1056.77,-73.58 1048,-67.63 1046.21,-74.4"/>
</a>
</g>
</g>
<!-- Node4 -->
<g id="Node000004" class="node">
<title>Node4</title>
<g id="a_Node000004"><a xlink:href="../../d7/d57/class_slic3r_1_1_g_u_i_1_1_preferences_dialog.html#aed1c7e3c8563fa5eefeb57dace21abce" target="_top" xlink:title=" ">
<polygon fill="white" stroke="#666666" points="649.75,-136.12 501,-136.12 501,-94.38 649.75,-94.38 649.75,-136.12"/>
<text text-anchor="start" x="509" y="-122.62" font-family="Helvetica,sans-Serif" font-size="10.00">Slic3r::GUI::Preferences</text>
<text text-anchor="start" x="509" y="-111.38" font-family="Helvetica,sans-Serif" font-size="10.00">Dialog::create_item_darkmode</text>
<text text-anchor="middle" x="575.38" y="-100.12" font-family="Helvetica,sans-Serif" font-size="10.00">_checkbox</text>
</a>
</g>
</g>
<!-- Node3&#45;&gt;Node4 -->
<g id="edge3_Node000003_Node000004" class="edge">
<title>Node3&#45;&gt;Node4</title>
<g id="a_edge3_Node000003_Node000004"><a xlink:title=" ">
<path fill="none" stroke="#63b8ff" d="M674.61,-115.25C666.54,-115.25 658.3,-115.25 650.21,-115.25"/>
<polygon fill="#63b8ff" stroke="#63b8ff" points="674.48,-118.75 684.48,-115.25 674.48,-111.75 674.48,-118.75"/>
</a>
</g>
</g>
<!-- Node5 -->
<g id="Node000005" class="node">
<title>Node5</title>
<g id="a_Node000005"><a xlink:href="../../d7/d57/class_slic3r_1_1_g_u_i_1_1_preferences_dialog.html#a1e4bf092ea448e6fd7713eec75653c96" target="_top" xlink:title=" ">
<polygon fill="white" stroke="#666666" points="465,-130.5 325.25,-130.5 325.25,-100 465,-100 465,-130.5"/>
<text text-anchor="start" x="333.25" y="-117" font-family="Helvetica,sans-Serif" font-size="10.00">Slic3r::GUI::Preferences</text>
<text text-anchor="middle" x="395.12" y="-105.75" font-family="Helvetica,sans-Serif" font-size="10.00">Dialog::create_general_page</text>
</a>
</g>
</g>
<!-- Node4&#45;&gt;Node5 -->
<g id="edge4_Node000004_Node000005" class="edge">
<title>Node4&#45;&gt;Node5</title>
<g id="a_edge4_Node000004_Node000005"><a xlink:title=" ">
<path fill="none" stroke="#63b8ff" d="M489.83,-115.25C481.61,-115.25 473.33,-115.25 465.28,-115.25"/>
<polygon fill="#63b8ff" stroke="#63b8ff" points="489.59,-118.75 499.59,-115.25 489.59,-111.75 489.59,-118.75"/>
</a>
</g>
</g>
<!-- Node6 -->
<g id="Node000006" class="node">
<title>Node6</title>
<g id="a_Node000006"><a xlink:href="../../d7/d57/class_slic3r_1_1_g_u_i_1_1_preferences_dialog.html#a065e25a0b86dc6e452a23732bfc41b1e" target="_top" xlink:title=" ">
<polygon fill="white" stroke="#666666" points="289.25,-130.5 166,-130.5 166,-100 289.25,-100 289.25,-130.5"/>
<text text-anchor="start" x="174" y="-117" font-family="Helvetica,sans-Serif" font-size="10.00">Slic3r::GUI::Preferences</text>
<text text-anchor="middle" x="227.62" y="-105.75" font-family="Helvetica,sans-Serif" font-size="10.00">Dialog::create</text>
</a>
</g>
</g>
<!-- Node5&#45;&gt;Node6 -->
<g id="edge5_Node000005_Node000006" class="edge">
<title>Node5&#45;&gt;Node6</title>
<g id="a_edge5_Node000005_Node000006"><a xlink:title=" ">
<path fill="none" stroke="#63b8ff" d="M314.13,-115.25C305.91,-115.25 297.65,-115.25 289.68,-115.25"/>
<polygon fill="#63b8ff" stroke="#63b8ff" points="313.9,-118.75 323.9,-115.25 313.9,-111.75 313.9,-118.75"/>
</a>
</g>
</g>
<!-- Node7 -->
<g id="Node000007" class="node">
<title>Node7</title>
<g id="a_Node000007"><a xlink:href="../../d7/d57/class_slic3r_1_1_g_u_i_1_1_preferences_dialog.html#a82eebf8cdef125167b699b2f05f1c196" target="_top" xlink:title=" ">
<polygon fill="white" stroke="#666666" points="130,-130.5 0,-130.5 0,-100 130,-100 130,-130.5"/>
<text text-anchor="start" x="8" y="-117" font-family="Helvetica,sans-Serif" font-size="10.00">Slic3r::GUI::Preferences</text>
<text text-anchor="middle" x="65" y="-105.75" font-family="Helvetica,sans-Serif" font-size="10.00">Dialog::PreferencesDialog</text>
</a>
</g>
</g>
<!-- Node6&#45;&gt;Node7 -->
<g id="edge6_Node000006_Node000007" class="edge">
<title>Node6&#45;&gt;Node7</title>
<g id="a_edge6_Node000006_Node000007"><a xlink:title=" ">
<path fill="none" stroke="#63b8ff" d="M155.13,-115.25C146.86,-115.25 138.46,-115.25 130.29,-115.25"/>
<polygon fill="#63b8ff" stroke="#63b8ff" points="154.9,-118.75 164.9,-115.25 154.9,-111.75 154.9,-118.75"/>
</a>
</g>
</g>
<!-- Node8&#45;&gt;Node2 -->
<g id="edge8_Node000008_Node000002" class="edge">
<title>Node8&#45;&gt;Node2</title>
<g id="a_edge8_Node000008_Node000002"><a xlink:title=" ">
<path fill="none" stroke="#63b8ff" d="M889.5,-103.71C867.06,-113.82 836.28,-127.56 809,-139.25 801.88,-142.3 794.27,-145.49 786.93,-148.54"/>
<polygon fill="#63b8ff" stroke="#63b8ff" points="890.82,-106.51 898.49,-99.2 887.94,-100.13 890.82,-106.51"/>
</a>
</g>
</g>
<!-- Node8&#45;&gt;Node3 -->
<g id="edge9_Node000008_Node000003" class="edge">
<title>Node8&#45;&gt;Node3</title>
<g id="a_edge9_Node000008_Node000003"><a xlink:title=" ">
<path fill="none" stroke="#63b8ff" d="M843.95,-100.89C832.38,-102.62 820.59,-104.4 809.43,-106.07"/>
<polygon fill="#63b8ff" stroke="#63b8ff" points="844.12,-104.25 853.49,-99.3 843.08,-97.33 844.12,-104.25"/>
</a>
</g>
</g>
<!-- Node8&#45;&gt;Node9 -->
<g id="edge10_Node000008_Node000009" class="edge">
<title>Node8&#45;&gt;Node9</title>
<g id="a_edge10_Node000008_Node000009"><a xlink:title=" ">
<path fill="none" stroke="#63b8ff" d="M837.79,-77.65C826.07,-76.03 814.28,-74.39 803.28,-72.87"/>
<polygon fill="#63b8ff" stroke="#63b8ff" points="837.12,-81.23 847.51,-79.14 838.08,-74.3 837.12,-81.23"/>
</a>
</g>
</g>
<!-- Node8&#45;&gt;Node10 -->
<g id="edge11_Node000008_Node000010" class="edge">
<title>Node8&#45;&gt;Node10</title>
<g id="a_edge11_Node000008_Node000010"><a xlink:title=" ">
<path fill="none" stroke="#63b8ff" d="M888.2,-75.06C858.63,-62.41 815.43,-43.93 784.89,-30.87"/>
<polygon fill="#63b8ff" stroke="#63b8ff" points="886.47,-78.56 897.04,-79.27 889.23,-72.12 886.47,-78.56"/>
</a>
</g>
</g>
</g>
</svg>

<g id="navigator" transform="translate(0 0)" fill="#404254">
  <rect fill="#f2f5e9" fill-opacity="0.5" stroke="#606060" stroke-width=".5" x="0" y="0" width="60" height="60"/>
  <use id="zoomplus" xlink:href="#zoomPlus" x="17" y="9" onmousedown="handleZoom(evt,'in')"/>
  <use id="zoomminus" xlink:href="#zoomMin" x="42" y="9" onmousedown="handleZoom(evt,'out')"/>
  <use id="reset" xlink:href="#resetDef" x="30" y="36" onmousedown="handleReset()"/>
   <use id="arrowup" xlink:href="#arrowUp" x="0" y="0" onmousedown="handlePan(0,-1)"/>
  <use id="arrowright" xlink:href="#arrowRight" x="0" y="0" onmousedown="handlePan(1,0)"/>
  <use id="arrowdown" xlink:href="#arrowDown" x="0" y="0" onmousedown="handlePan(0,1)"/>
  <use id="arrowleft" xlink:href="#arrowLeft" x="0" y="0" onmousedown="handlePan(-1,0)"/>
</g>
<svg viewBox="0 0 15 15" width="100%" height="30px" preserveAspectRatio="xMaxYMin meet">
 <g id="arrow_out" transform="scale(0.3 0.3)">
  <a xlink:href="namespace_npp_dark_mode_ac3c05138447878540b5bdc731035b5c0_icgraph_org.svg" target="_base">
   <rect id="button" ry="5" rx="5" y="6" x="6" height="38" width="38"
        fill="#f2f5e9" fill-opacity="0.5" stroke="#606060" stroke-width="1.0"/>
   <path id="arrow"
     d="M 11.500037,31.436501 C 11.940474,20.09759 22.043105,11.32322 32.158766,21.979434 L 37.068811,17.246167 C 37.068811,17.246167 37.088388,32 37.088388,32 L 22.160133,31.978069 C 22.160133,31.978069 26.997745,27.140456 26.997745,27.140456 C 18.528582,18.264221 13.291696,25.230495 11.500037,31.436501 z"
     style="fill:#404040;"/>
  </a>
 </g>
</svg>

<style type='text/css'>
<![CDATA[
[data-mouse-over-selected='false'] { opacity: 0.7; }
[data-mouse-over-selected='true']  { opacity: 1.0; }
]]>
</style>
<script type="application/ecmascript"><![CDATA[
document.addEventListener('DOMContentLoaded', (event) => {
  highlightEdges();
  highlightAdjacentNodes();
});
]]></script>
</svg>
