<?xml version="1.0" encoding="UTF-8" standalone="no"?>
<!DOCTYPE svg PUBLIC "-//W3C//DTD SVG 1.1//EN"
 "http://www.w3.org/Graphics/SVG/1.1/DTD/svg11.dtd">
<!-- Generated by graphviz version 8.1.0 (20230707.0739)
 -->
<!-- Title: qh_removefacet Pages: 1 -->
<svg width="318pt" height="27pt"
 viewBox="0.00 0.00 317.75 27.25" xmlns="http://www.w3.org/2000/svg" xmlns:xlink="http://www.w3.org/1999/xlink">
<g id="graph0" class="graph" transform="scale(1 1) rotate(0) translate(4 23.25)">
<title>qh_removefacet</title>
<!-- Node1 -->
<g id="Node000001" class="node">
<title>Node1</title>
<g id="a_Node000001"><a xlink:title=" ">
<polygon fill="#999999" stroke="#666666" points="309.75,-19.25 224,-19.25 224,0 309.75,0 309.75,-19.25"/>
<text text-anchor="middle" x="266.88" y="-5.75" font-family="Helvetica,sans-Serif" font-size="10.00">qh_removefacet</text>
</a>
</g>
</g>
<!-- Node2 -->
<g id="Node000002" class="node">
<title>Node2</title>
<g id="a_Node000002"><a xlink:href="../../d0/d75/poly__r_8c.html#a0783749ed75aa19c22137e484cb8256b" target="_top" xlink:title=" ">
<polygon fill="white" stroke="#666666" points="188,-19.25 121.75,-19.25 121.75,0 188,0 188,-19.25"/>
<text text-anchor="middle" x="154.88" y="-5.75" font-family="Helvetica,sans-Serif" font-size="10.00">qh_delfacet</text>
</a>
</g>
</g>
<!-- Node1&#45;&gt;Node2 -->
<g id="edge1_Node000001_Node000002" class="edge">
<title>Node1&#45;&gt;Node2</title>
<g id="a_edge1_Node000001_Node000002"><a xlink:title=" ">
<path fill="none" stroke="#63b8ff" d="M212.75,-9.62C204.38,-9.62 195.95,-9.62 188.24,-9.62"/>
<polygon fill="#63b8ff" stroke="#63b8ff" points="212.66,-13.13 222.66,-9.62 212.66,-6.13 212.66,-13.13"/>
</a>
</g>
</g>
<!-- Node3 -->
<g id="Node000003" class="node">
<title>Node3</title>
<g id="a_Node000003"><a xlink:href="../../d0/d75/poly__r_8c.html#aecc6f84fc7b38f4cf89e6418585086de" target="_top" xlink:title=" ">
<polygon fill="white" stroke="#666666" points="85.75,-19.25 0,-19.25 0,0 85.75,0 85.75,-19.25"/>
<text text-anchor="middle" x="42.88" y="-5.75" font-family="Helvetica,sans-Serif" font-size="10.00">qh_deletevisible</text>
</a>
</g>
</g>
<!-- Node2&#45;&gt;Node3 -->
<g id="edge2_Node000002_Node000003" class="edge">
<title>Node2&#45;&gt;Node3</title>
<g id="a_edge2_Node000002_Node000003"><a xlink:title=" ">
<path fill="none" stroke="#63b8ff" d="M110.64,-9.62C102.49,-9.62 93.97,-9.62 85.85,-9.62"/>
<polygon fill="#63b8ff" stroke="#63b8ff" points="110.47,-13.13 120.47,-9.62 110.47,-6.13 110.47,-13.13"/>
</a>
</g>
</g>
</g>
</svg>
