<?xml version="1.0" encoding="UTF-8" standalone="no"?>
<!DOCTYPE svg PUBLIC "-//W3C//DTD SVG 1.1//EN"
 "http://www.w3.org/Graphics/SVG/1.1/DTD/svg11.dtd">
<!-- Generated by graphviz version 8.1.0 (20230707.0739)
 -->
<!-- Title: Slic3r::GUI::Selection::rotate Pages: 1 -->
<svg width="1012pt" height="221pt"
 viewBox="0.00 0.00 1012.25 220.50" xmlns="http://www.w3.org/2000/svg" xmlns:xlink="http://www.w3.org/1999/xlink">
<g id="graph0" class="graph" transform="scale(1 1) rotate(0) translate(4 216.5)">
<title>Slic3r::GUI::Selection::rotate</title>
<!-- Node1 -->
<g id="Node000001" class="node">
<title>Node1</title>
<g id="a_Node000001"><a xlink:title=" ">
<polygon fill="#999999" stroke="#666666" points="1004.25,-103.5 893,-103.5 893,-73 1004.25,-73 1004.25,-103.5"/>
<text text-anchor="start" x="901" y="-90" font-family="Helvetica,sans-Serif" font-size="10.00">Slic3r::GUI::Selection</text>
<text text-anchor="middle" x="948.62" y="-78.75" font-family="Helvetica,sans-Serif" font-size="10.00">::rotate</text>
</a>
</g>
</g>
<!-- Node2 -->
<g id="Node000002" class="node">
<title>Node2</title>
<g id="a_Node000002"><a xlink:href="../../df/dba/class_slic3r_1_1_g_u_i_1_1_gizmo_object_manipulation.html#a6bb85c4df4455a9a9f71d6bb5f203ea6" target="_top" xlink:title=" ">
<polygon fill="white" stroke="#666666" points="857,-128.5 682.75,-128.5 682.75,-98 857,-98 857,-128.5"/>
<text text-anchor="start" x="690.75" y="-115" font-family="Helvetica,sans-Serif" font-size="10.00">Slic3r::GUI::GizmoObject</text>
<text text-anchor="middle" x="769.88" y="-103.75" font-family="Helvetica,sans-Serif" font-size="10.00">Manipulation::change_rotation_value</text>
</a>
</g>
</g>
<!-- Node1&#45;&gt;Node2 -->
<g id="edge1_Node000001_Node000002" class="edge">
<title>Node1&#45;&gt;Node2</title>
<g id="a_edge1_Node000001_Node000002"><a xlink:title=" ">
<path fill="none" stroke="#63b8ff" d="M881.9,-97.55C873.87,-98.68 865.56,-99.86 857.28,-101.03"/>
<polygon fill="#63b8ff" stroke="#63b8ff" points="882.26,-100.89 891.67,-96.02 881.28,-93.96 882.26,-100.89"/>
</a>
</g>
</g>
<!-- Node15 -->
<g id="Node000015" class="node">
<title>Node15</title>
<g id="a_Node000015"><a xlink:href="../../d0/d2b/class_slic3r_1_1_g_u_i_1_1_g_l_canvas3_d.html#aa811f0a583e17a1b5102893f9ef44d53" target="_top" xlink:title=" ">
<polygon fill="white" stroke="#666666" points="834.88,-79.5 704.88,-79.5 704.88,-49 834.88,-49 834.88,-79.5"/>
<text text-anchor="start" x="712.88" y="-66" font-family="Helvetica,sans-Serif" font-size="10.00">Slic3r::GUI::GLCanvas3D</text>
<text text-anchor="middle" x="769.88" y="-54.75" font-family="Helvetica,sans-Serif" font-size="10.00">::on_key</text>
</a>
</g>
</g>
<!-- Node1&#45;&gt;Node15 -->
<g id="edge12_Node000001_Node000015" class="edge">
<title>Node1&#45;&gt;Node15</title>
<g id="a_edge12_Node000001_Node000015"><a xlink:title=" ">
<path fill="none" stroke="#63b8ff" d="M882.2,-79.37C866.81,-77.28 850.42,-75.05 835.08,-72.97"/>
<polygon fill="#63b8ff" stroke="#63b8ff" points="881.29,-82.91 891.67,-80.79 882.23,-75.97 881.29,-82.91"/>
</a>
</g>
</g>
<!-- Node3 -->
<g id="Node000003" class="node">
<title>Node3</title>
<g id="a_Node000003"><a xlink:href="../../df/dba/class_slic3r_1_1_g_u_i_1_1_gizmo_object_manipulation.html#a3a979f11eb85b95a82ebe3fb9862d1ab" target="_top" xlink:title=" ">
<polygon fill="white" stroke="#666666" points="645.62,-128.5 517.88,-128.5 517.88,-98 645.62,-98 645.62,-128.5"/>
<text text-anchor="start" x="525.88" y="-115" font-family="Helvetica,sans-Serif" font-size="10.00">Slic3r::GUI::GizmoObject</text>
<text text-anchor="middle" x="581.75" y="-103.75" font-family="Helvetica,sans-Serif" font-size="10.00">Manipulation::on_change</text>
</a>
</g>
</g>
<!-- Node2&#45;&gt;Node3 -->
<g id="edge2_Node000002_Node000003" class="edge">
<title>Node2&#45;&gt;Node3</title>
<g id="a_edge2_Node000002_Node000003"><a xlink:title=" ">
<path fill="none" stroke="#63b8ff" d="M671.43,-113.25C662.81,-113.25 654.23,-113.25 646.01,-113.25"/>
<polygon fill="#63b8ff" stroke="#63b8ff" points="671.35,-116.75 681.35,-113.25 671.35,-109.75 671.35,-116.75"/>
</a>
</g>
</g>
<!-- Node4 -->
<g id="Node000004" class="node">
<title>Node4</title>
<g id="a_Node000004"><a xlink:href="../../d7/d21/class_slic3r_1_1_g_u_i_1_1_plater.html#acf6b4efdeaf6f8aa68910c8305c62aba" target="_top" xlink:title=" ">
<polygon fill="white" stroke="#666666" points="466.12,-212.5 367.62,-212.5 367.62,-182 466.12,-182 466.12,-212.5"/>
<text text-anchor="start" x="375.62" y="-199" font-family="Helvetica,sans-Serif" font-size="10.00">Slic3r::GUI::Plater</text>
<text text-anchor="middle" x="416.88" y="-187.75" font-family="Helvetica,sans-Serif" font-size="10.00">::_calib_pa_pattern</text>
</a>
</g>
</g>
<!-- Node3&#45;&gt;Node4 -->
<g id="edge3_Node000003_Node000004" class="edge">
<title>Node3&#45;&gt;Node4</title>
<g id="a_edge3_Node000003_Node000004"><a xlink:title=" ">
<path fill="none" stroke="#63b8ff" d="M548.37,-134.66C529.18,-146.84 504.12,-161.89 480.75,-173.25 474.76,-176.16 468.32,-178.97 461.93,-181.57"/>
<polygon fill="#63b8ff" stroke="#63b8ff" points="550.04,-137.11 556.56,-128.76 546.26,-131.22 550.04,-137.11"/>
</a>
</g>
</g>
<!-- Node9 -->
<g id="Node000009" class="node">
<title>Node9</title>
<g id="a_Node000009"><a xlink:href="../../df/dba/class_slic3r_1_1_g_u_i_1_1_gizmo_object_manipulation.html#ab5cc56d3cb19b046d13ee8590d337349" target="_top" xlink:title=" ">
<polygon fill="white" stroke="#666666" points="480.75,-164.12 353,-164.12 353,-122.38 480.75,-122.38 480.75,-164.12"/>
<text text-anchor="start" x="361" y="-150.62" font-family="Helvetica,sans-Serif" font-size="10.00">Slic3r::GUI::GizmoObject</text>
<text text-anchor="start" x="361" y="-139.38" font-family="Helvetica,sans-Serif" font-size="10.00">Manipulation::do_render</text>
<text text-anchor="middle" x="416.88" y="-128.12" font-family="Helvetica,sans-Serif" font-size="10.00">_move_window</text>
</a>
</g>
</g>
<!-- Node3&#45;&gt;Node9 -->
<g id="edge6_Node000003_Node000009" class="edge">
<title>Node3&#45;&gt;Node9</title>
<g id="a_edge6_Node000003_Node000009"><a xlink:title=" ">
<path fill="none" stroke="#63b8ff" d="M506.97,-126.84C498.37,-128.42 489.66,-130.03 481.22,-131.58"/>
<polygon fill="#63b8ff" stroke="#63b8ff" points="507.58,-130.1 516.78,-124.85 506.31,-123.22 507.58,-130.1"/>
</a>
</g>
</g>
<!-- Node11 -->
<g id="Node000011" class="node">
<title>Node11</title>
<g id="a_Node000011"><a xlink:href="../../df/dba/class_slic3r_1_1_g_u_i_1_1_gizmo_object_manipulation.html#abd9daade9a9898fad974e03ba4bb0fb8" target="_top" xlink:title=" ">
<polygon fill="white" stroke="#666666" points="480.75,-104.12 353,-104.12 353,-62.38 480.75,-62.38 480.75,-104.12"/>
<text text-anchor="start" x="361" y="-90.62" font-family="Helvetica,sans-Serif" font-size="10.00">Slic3r::GUI::GizmoObject</text>
<text text-anchor="start" x="361" y="-79.38" font-family="Helvetica,sans-Serif" font-size="10.00">Manipulation::do_render</text>
<text text-anchor="middle" x="416.88" y="-68.12" font-family="Helvetica,sans-Serif" font-size="10.00">_rotate_window</text>
</a>
</g>
</g>
<!-- Node3&#45;&gt;Node11 -->
<g id="edge8_Node000003_Node000011" class="edge">
<title>Node3&#45;&gt;Node11</title>
<g id="a_edge8_Node000003_Node000011"><a xlink:title=" ">
<path fill="none" stroke="#63b8ff" d="M506.97,-99.66C498.37,-98.08 489.66,-96.47 481.22,-94.92"/>
<polygon fill="#63b8ff" stroke="#63b8ff" points="506.31,-103.28 516.78,-101.65 507.58,-96.4 506.31,-103.28"/>
</a>
</g>
</g>
<!-- Node13 -->
<g id="Node000013" class="node">
<title>Node13</title>
<g id="a_Node000013"><a xlink:href="../../df/dba/class_slic3r_1_1_g_u_i_1_1_gizmo_object_manipulation.html#a17c13236444b946df5c4a9ec0562c9d9" target="_top" xlink:title=" ">
<polygon fill="white" stroke="#666666" points="480.75,-44.12 353,-44.12 353,-2.38 480.75,-2.38 480.75,-44.12"/>
<text text-anchor="start" x="361" y="-30.62" font-family="Helvetica,sans-Serif" font-size="10.00">Slic3r::GUI::GizmoObject</text>
<text text-anchor="start" x="361" y="-19.38" font-family="Helvetica,sans-Serif" font-size="10.00">Manipulation::do_render</text>
<text text-anchor="middle" x="416.88" y="-8.12" font-family="Helvetica,sans-Serif" font-size="10.00">_scale_input_window</text>
</a>
</g>
</g>
<!-- Node3&#45;&gt;Node13 -->
<g id="edge10_Node000003_Node000013" class="edge">
<title>Node3&#45;&gt;Node13</title>
<g id="a_edge10_Node000003_Node000013"><a xlink:title=" ">
<path fill="none" stroke="#63b8ff" d="M524.42,-92.77C521.77,-91.34 519.2,-89.83 516.75,-88.25 497.99,-76.17 499.06,-66 480.75,-53.25 476.28,-50.14 471.44,-47.2 466.5,-44.46"/>
<polygon fill="#63b8ff" stroke="#63b8ff" points="522.7,-96.32 533.21,-97.63 525.81,-90.05 522.7,-96.32"/>
</a>
</g>
</g>
<!-- Node5 -->
<g id="Node000005" class="node">
<title>Node5</title>
<g id="a_Node000005"><a xlink:href="../../d7/d21/class_slic3r_1_1_g_u_i_1_1_plater.html#a2eedfacd5e572cc6a37a4e5d5c479fea" target="_top" xlink:title=" ">
<polygon fill="white" stroke="#666666" points="291.88,-212.5 195.62,-212.5 195.62,-182 291.88,-182 291.88,-212.5"/>
<text text-anchor="start" x="203.62" y="-199" font-family="Helvetica,sans-Serif" font-size="10.00">Slic3r::GUI::Plater</text>
<text text-anchor="middle" x="243.75" y="-187.75" font-family="Helvetica,sans-Serif" font-size="10.00">::calib_pa</text>
</a>
</g>
</g>
<!-- Node4&#45;&gt;Node5 -->
<g id="edge4_Node000004_Node000005" class="edge">
<title>Node4&#45;&gt;Node5</title>
<g id="a_edge4_Node000004_Node000005"><a xlink:title=" ">
<path fill="none" stroke="#63b8ff" d="M356.55,-197.25C335.53,-197.25 312.17,-197.25 292.27,-197.25"/>
<polygon fill="#63b8ff" stroke="#63b8ff" points="356.3,-200.75 366.3,-197.25 356.3,-193.75 356.3,-200.75"/>
</a>
</g>
</g>
<!-- Node6 -->
<g id="Node000006" class="node">
<title>Node6</title>
<g id="a_Node000006"><a xlink:href="../../db/da2/class_slic3r_1_1_g_u_i_1_1_p_a___calibration___dlg.html#a3c5913d15b4f038ade0e3d207a081743" target="_top" xlink:title=" ">
<polygon fill="#fff0f0" stroke="red" points="134.5,-212.5 0,-212.5 0,-182 134.5,-182 134.5,-212.5"/>
<text text-anchor="start" x="8" y="-199" font-family="Helvetica,sans-Serif" font-size="10.00">Slic3r::GUI::PA_Calibration</text>
<text text-anchor="middle" x="67.25" y="-187.75" font-family="Helvetica,sans-Serif" font-size="10.00">_Dlg::on_start</text>
</a>
</g>
</g>
<!-- Node5&#45;&gt;Node6 -->
<g id="edge5_Node000005_Node000006" class="edge">
<title>Node5&#45;&gt;Node6</title>
<g id="a_edge5_Node000005_Node000006"><a xlink:title=" ">
<path fill="none" stroke="#63b8ff" d="M184.73,-197.25C168.74,-197.25 151.27,-197.25 134.83,-197.25"/>
<polygon fill="#63b8ff" stroke="#63b8ff" points="184.53,-200.75 194.53,-197.25 184.53,-193.75 184.53,-200.75"/>
</a>
</g>
</g>
<!-- Node10 -->
<g id="Node000010" class="node">
<title>Node10</title>
<g id="a_Node000010"><a xlink:href="../../db/d9b/class_slic3r_1_1_g_u_i_1_1_g_l_gizmo_move3_d.html#a67e5b90e5598e8f2683114eca3a57b9f" target="_top" xlink:title=" ">
<polygon fill="white" stroke="#666666" points="314.38,-158.5 173.12,-158.5 173.12,-128 314.38,-128 314.38,-158.5"/>
<text text-anchor="start" x="181.12" y="-145" font-family="Helvetica,sans-Serif" font-size="10.00">Slic3r::GUI::GLGizmoMove3</text>
<text text-anchor="middle" x="243.75" y="-133.75" font-family="Helvetica,sans-Serif" font-size="10.00">D::on_render_input_window</text>
</a>
</g>
</g>
<!-- Node9&#45;&gt;Node10 -->
<g id="edge7_Node000009_Node000010" class="edge">
<title>Node9&#45;&gt;Node10</title>
<g id="a_edge7_Node000009_Node000010"><a xlink:title=" ">
<path fill="none" stroke="#63b8ff" d="M341.77,-143.25C332.76,-143.25 323.58,-143.25 314.64,-143.25"/>
<polygon fill="#63b8ff" stroke="#63b8ff" points="341.64,-146.75 351.64,-143.25 341.64,-139.75 341.64,-146.75"/>
</a>
</g>
</g>
<!-- Node12 -->
<g id="Node000012" class="node">
<title>Node12</title>
<g id="a_Node000012"><a xlink:href="../../d7/d96/class_slic3r_1_1_g_u_i_1_1_g_l_gizmo_rotate3_d.html#acf7cadfdb84b3c2594b7d41551f3d542" target="_top" xlink:title=" ">
<polygon fill="white" stroke="#666666" points="317,-98.5 170.5,-98.5 170.5,-68 317,-68 317,-98.5"/>
<text text-anchor="start" x="178.5" y="-85" font-family="Helvetica,sans-Serif" font-size="10.00">Slic3r::GUI::GLGizmoRotate3</text>
<text text-anchor="middle" x="243.75" y="-73.75" font-family="Helvetica,sans-Serif" font-size="10.00">D::on_render_input_window</text>
</a>
</g>
</g>
<!-- Node11&#45;&gt;Node12 -->
<g id="edge9_Node000011_Node000012" class="edge">
<title>Node11&#45;&gt;Node12</title>
<g id="a_edge9_Node000011_Node000012"><a xlink:title=" ">
<path fill="none" stroke="#63b8ff" d="M341.7,-83.25C333.59,-83.25 325.34,-83.25 317.26,-83.25"/>
<polygon fill="#63b8ff" stroke="#63b8ff" points="341.64,-86.75 351.64,-83.25 341.64,-79.75 341.64,-86.75"/>
</a>
</g>
</g>
<!-- Node14 -->
<g id="Node000014" class="node">
<title>Node14</title>
<g id="a_Node000014"><a xlink:href="../../d1/d6b/class_slic3r_1_1_g_u_i_1_1_g_l_gizmo_scale3_d.html#a81658036c99ff96447ab3112a5bb6a12" target="_top" xlink:title=" ">
<polygon fill="white" stroke="#666666" points="314.75,-38.5 172.75,-38.5 172.75,-8 314.75,-8 314.75,-38.5"/>
<text text-anchor="start" x="180.75" y="-25" font-family="Helvetica,sans-Serif" font-size="10.00">Slic3r::GUI::GLGizmoScale3</text>
<text text-anchor="middle" x="243.75" y="-13.75" font-family="Helvetica,sans-Serif" font-size="10.00">D::on_render_input_window</text>
</a>
</g>
</g>
<!-- Node13&#45;&gt;Node14 -->
<g id="edge11_Node000013_Node000014" class="edge">
<title>Node13&#45;&gt;Node14</title>
<g id="a_edge11_Node000013_Node000014"><a xlink:title=" ">
<path fill="none" stroke="#63b8ff" d="M341.64,-23.25C332.87,-23.25 323.94,-23.25 315.22,-23.25"/>
<polygon fill="#63b8ff" stroke="#63b8ff" points="341.64,-26.75 351.64,-23.25 341.64,-19.75 341.64,-26.75"/>
</a>
</g>
</g>
<!-- Node16 -->
<g id="Node000016" class="node">
<title>Node16</title>
<g id="a_Node000016"><a xlink:href="../../d0/d2b/class_slic3r_1_1_g_u_i_1_1_g_l_canvas3_d.html#a9ba6503e9ea6e8ea3050de89e6835f52" target="_top" xlink:title=" ">
<polygon fill="white" stroke="#666666" points="646.75,-79.5 516.75,-79.5 516.75,-49 646.75,-49 646.75,-79.5"/>
<text text-anchor="start" x="524.75" y="-66" font-family="Helvetica,sans-Serif" font-size="10.00">Slic3r::GUI::GLCanvas3D</text>
<text text-anchor="middle" x="581.75" y="-54.75" font-family="Helvetica,sans-Serif" font-size="10.00">::bind_event_handlers</text>
</a>
</g>
</g>
<!-- Node15&#45;&gt;Node16 -->
<g id="edge13_Node000015_Node000016" class="edge">
<title>Node15&#45;&gt;Node16</title>
<g id="a_edge13_Node000015_Node000016"><a xlink:title=" ">
<path fill="none" stroke="#63b8ff" d="M693.94,-64.25C678.41,-64.25 662.18,-64.25 647.07,-64.25"/>
<polygon fill="#63b8ff" stroke="#63b8ff" points="693.56,-67.75 703.56,-64.25 693.56,-60.75 693.56,-67.75"/>
</a>
</g>
</g>
<!-- Node17 -->
<g id="Node000017" class="node">
<title>Node17</title>
<g id="a_Node000017"><a xlink:href="../../d0/d2b/class_slic3r_1_1_g_u_i_1_1_g_l_canvas3_d.html#a16e40798bb4d5ad13209c3feaea9b21d" target="_top" xlink:title=" ">
<polygon fill="white" stroke="#666666" points="646.75,-30.5 516.75,-30.5 516.75,0 646.75,0 646.75,-30.5"/>
<text text-anchor="start" x="524.75" y="-17" font-family="Helvetica,sans-Serif" font-size="10.00">Slic3r::GUI::GLCanvas3D</text>
<text text-anchor="middle" x="581.75" y="-5.75" font-family="Helvetica,sans-Serif" font-size="10.00">::unbind_event_handlers</text>
</a>
</g>
</g>
<!-- Node15&#45;&gt;Node17 -->
<g id="edge14_Node000015_Node000017" class="edge">
<title>Node15&#45;&gt;Node17</title>
<g id="a_edge14_Node000015_Node000017"><a xlink:title=" ">
<path fill="none" stroke="#63b8ff" d="M698.76,-45.79C680.2,-40.9 660.34,-35.68 642.39,-30.95"/>
<polygon fill="#63b8ff" stroke="#63b8ff" points="697.65,-49.38 708.22,-48.54 699.44,-42.61 697.65,-49.38"/>
</a>
</g>
</g>
</g>
</svg>
