<?xml version="1.0" encoding="UTF-8" standalone="no"?>
<!DOCTYPE svg PUBLIC "-//W3C//DTD SVG 1.1//EN"
 "http://www.w3.org/Graphics/SVG/1.1/DTD/svg11.dtd">
<!-- Generated by graphviz version 8.1.0 (20230707.0739)
 -->
<!-- Title: qh_makeridges Pages: 1 -->
<!--zoomable 765 -->

<svg id="main" version="1.1" xmlns="http://www.w3.org/2000/svg" xmlns:xlink="http://www.w3.org/1999/xlink" xml:space="preserve" onload="init(evt)">
<style type="text/css"><![CDATA[
.node, .edge {opacity: 0.7;}
.node.selected, .edge.selected {opacity: 1;}
.edge:hover path { stroke: red; }
.edge:hover polygon { stroke: red; fill: red; }
]]></style>

<defs>
  <circle id="rim" cx="0" cy="0" r="7"/>
  <circle id="rim2" cx="0" cy="0" r="3.5"/>
  <g id="zoomPlus">
    <use xlink:href="#rim" fill="#404040"><set attributeName="fill" to="#808080" begin="zoomplus.mouseover" end="zoomplus.mouseout"/></use>
    <path d="M-4,0h8M0,-4v8" fill="none" stroke="white" stroke-width="1.5" pointer-events="none"/>
  </g>
  <g id="zoomMin">
    <use xlink:href="#rim" fill="#404040"><set attributeName="fill" to="#808080" begin="zoomminus.mouseover" end="zoomminus.mouseout"/></use>
    <path d="M-4,0h8" fill="none" stroke="white" stroke-width="1.5" pointer-events="none"/>
  </g>
  <g id="arrowUp" transform="translate(30 24)">
    <use xlink:href="#rim"/>
    <path pointer-events="none" fill="none" stroke="white" stroke-width="1.5" d="M0,-3.0v7 M-2.5,-0.5L0,-3.0L2.5,-0.5"/>
  </g>
  <g id="arrowRight" transform="rotate(90) translate(36 -43)">
    <use xlink:href="#rim"/>
    <path pointer-events="none" fill="none" stroke="white" stroke-width="1.5" d="M0,-3.0v7 M-2.5,-0.5L0,-3.0L2.5,-0.5"/>
  </g>
  <g id="arrowDown" transform="rotate(180) translate(-30 -48)">
    <use xlink:href="#rim"/>
    <path pointer-events="none" fill="none" stroke="white" stroke-width="1.5" d="M0,-3.0v7 M-2.5,-0.5L0,-3.0L2.5,-0.5"/>
  </g>
  <g id="arrowLeft" transform="rotate(270) translate(-36 17)">
    <use xlink:href="#rim"/>
    <path pointer-events="none" fill="none" stroke="white" stroke-width="1.5" d="M0,-3.0v7 M-2.5,-0.5L0,-3.0L2.5,-0.5"/>
  </g>
  <g id="resetDef">
    <use xlink:href="#rim2" fill="#404040"><set attributeName="fill" to="#808080" begin="reset.mouseover" end="reset.mouseout"/></use>
  </g>
</defs>
<script type="application/ecmascript">
var viewWidth = 1114;
var viewHeight = 765;
var sectionId = 'dynsection-36';
</script>
<script type="application/ecmascript" xlink:href="../../svg.min.js"/>
<svg id="graph" class="graph">
<g id="viewport">
<title>qh_makeridges</title>
<!-- Node1 -->
<g id="Node000001" class="node">
<title>Node1</title>
<g id="a_Node000001"><a xlink:title=" ">
<polygon fill="#999999" stroke="#666666" points="82,-452.62 0,-452.62 0,-433.38 82,-433.38 82,-452.62"/>
<text text-anchor="middle" x="41" y="-439.12" font-family="Helvetica,sans-Serif" font-size="10.00">qh_makeridges</text>
</a>
</g>
</g>
<!-- Node2 -->
<g id="Node000002" class="node">
<title>Node2</title>
<g id="a_Node000002"><a xlink:href="../../d0/d1c/poly_8c.html#a7ac1b0d41aba55ce3fa5f34e48eafd78" target="_top" xlink:title=" ">
<polygon fill="white" stroke="#666666" points="214.25,-508.62 143.5,-508.62 143.5,-489.38 214.25,-489.38 214.25,-508.62"/>
<text text-anchor="middle" x="178.88" y="-495.12" font-family="Helvetica,sans-Serif" font-size="10.00">qh_newridge</text>
</a>
</g>
</g>
<!-- Node1&#45;&gt;Node2 -->
<g id="edge1_Node000001_Node000002" class="edge">
<title>Node1&#45;&gt;Node2</title>
<g id="a_edge1_Node000001_Node000002"><a xlink:title=" ">
<path fill="none" stroke="#63b8ff" d="M60.03,-453.12C75.18,-461.35 97.57,-472.89 118,-481 122.73,-482.88 127.74,-484.67 132.76,-486.35"/>
<polygon fill="#63b8ff" stroke="#63b8ff" points="131.43,-489.92 142.02,-489.62 133.55,-483.25 131.43,-489.92"/>
</a>
</g>
</g>
<!-- Node37 -->
<g id="Node000037" class="node">
<title>Node37</title>
<g id="a_Node000037"><a xlink:href="../../de/d2e/qset_8c.html#a92fbf1e7a27c1d76ee787bb458473678" target="_top" xlink:title=" ">
<polygon fill="#fff0f0" stroke="red" points="217.25,-471.62 140.5,-471.62 140.5,-452.38 217.25,-452.38 217.25,-471.62"/>
<text text-anchor="middle" x="178.88" y="-458.12" font-family="Helvetica,sans-Serif" font-size="10.00">qh_setappend</text>
</a>
</g>
</g>
<!-- Node1&#45;&gt;Node37 -->
<g id="edge46_Node000001_Node000037" class="edge">
<title>Node1&#45;&gt;Node37</title>
<g id="a_edge46_Node000001_Node000037"><a xlink:title=" ">
<path fill="none" stroke="#63b8ff" d="M82.4,-448.65C97.13,-450.71 113.94,-453.06 129.3,-455.21"/>
<polygon fill="#63b8ff" stroke="#63b8ff" points="128.8,-458.81 139.19,-456.73 129.77,-451.88 128.8,-458.81"/>
</a>
</g>
</g>
<!-- Node151 -->
<g id="Node000151" class="node">
<title>Node151</title>
<g id="a_Node000151"><a xlink:href="../../de/d2e/qset_8c.html#ad8f1bd25f39fc40801a2b83ad9afdcd2" target="_top" xlink:title=" ">
<polygon fill="white" stroke="#666666" points="207.88,-434.62 149.88,-434.62 149.88,-415.38 207.88,-415.38 207.88,-434.62"/>
<text text-anchor="middle" x="178.88" y="-421.12" font-family="Helvetica,sans-Serif" font-size="10.00">qh_setdel</text>
</a>
</g>
</g>
<!-- Node1&#45;&gt;Node151 -->
<g id="edge47_Node000001_Node000151" class="edge">
<title>Node1&#45;&gt;Node151</title>
<g id="a_edge47_Node000001_Node000151"><a xlink:title=" ">
<path fill="none" stroke="#63b8ff" d="M82.4,-437.65C100.19,-435.29 121.02,-432.53 138.68,-430.19"/>
<polygon fill="#63b8ff" stroke="#63b8ff" points="139.03,-433.54 148.48,-428.76 138.11,-426.61 139.03,-433.54"/>
</a>
</g>
</g>
<!-- Node104 -->
<g id="Node000104" class="node">
<title>Node104</title>
<g id="a_Node000104"><a xlink:href="../../de/d2e/qset_8c.html#a3c0841932f9fa88bb3d84c257b990dcf" target="_top" xlink:title=" ">
<polygon fill="#fff0f0" stroke="red" points="239.75,-397.62 118,-397.62 118,-378.38 239.75,-378.38 239.75,-397.62"/>
<text text-anchor="middle" x="178.88" y="-384.12" font-family="Helvetica,sans-Serif" font-size="10.00">qh_setnew_delnthsorted</text>
</a>
</g>
</g>
<!-- Node1&#45;&gt;Node104 -->
<g id="edge48_Node000001_Node000104" class="edge">
<title>Node1&#45;&gt;Node104</title>
<g id="a_edge48_Node000001_Node000104"><a xlink:title=" ">
<path fill="none" stroke="#63b8ff" d="M60.37,-433.02C75.53,-425.04 97.77,-413.91 118,-406 121.98,-404.44 126.15,-402.94 130.36,-401.51"/>
<polygon fill="#63b8ff" stroke="#63b8ff" points="131.39,-404.53 139.83,-398.12 129.23,-397.87 131.39,-404.53"/>
</a>
</g>
</g>
<!-- Node3 -->
<g id="Node000003" class="node">
<title>Node3</title>
<g id="a_Node000003"><a xlink:href="../../d6/df4/testqset_8c.html#aca4b59cdb8152b580cb9d258a849288d" target="_top" xlink:title=" ">
<polygon fill="white" stroke="#666666" points="332.25,-508.62 275.75,-508.62 275.75,-489.38 332.25,-489.38 332.25,-508.62"/>
<text text-anchor="middle" x="304" y="-495.12" font-family="Helvetica,sans-Serif" font-size="10.00">qh_fprintf</text>
</a>
</g>
</g>
<!-- Node2&#45;&gt;Node3 -->
<g id="edge2_Node000002_Node000003" class="edge">
<title>Node2&#45;&gt;Node3</title>
<g id="a_edge2_Node000002_Node000003"><a xlink:title=" ">
<path fill="none" stroke="#63b8ff" d="M214.5,-499C230.22,-499 248.86,-499 264.97,-499"/>
<polygon fill="#63b8ff" stroke="#63b8ff" points="264.65,-502.5 274.65,-499 264.65,-495.5 264.65,-502.5"/>
</a>
</g>
</g>
<!-- Node4 -->
<g id="Node000004" class="node">
<title>Node4</title>
<g id="a_Node000004"><a xlink:href="../../de/d23/user__eg2_8c.html#a5f9e5bc131c58db28e039707aea6f6dc" target="_top" xlink:title=" ">
<polygon fill="white" stroke="#666666" points="427,-310.62 368.25,-310.62 368.25,-291.38 427,-291.38 427,-310.62"/>
<text text-anchor="middle" x="397.62" y="-297.12" font-family="Helvetica,sans-Serif" font-size="10.00">qh_errexit</text>
</a>
</g>
</g>
<!-- Node3&#45;&gt;Node4 -->
<g id="edge3_Node000003_Node000004" class="edge">
<title>Node3&#45;&gt;Node4</title>
<g id="a_edge3_Node000003_Node000004"><a xlink:title=" ">
<path fill="none" stroke="#63b8ff" d="M308.37,-488.97C320.84,-457.38 364.75,-361.89 385.54,-320.36"/>
<polygon fill="#63b8ff" stroke="#63b8ff" points="388.99,-322.31 390.41,-311.81 382.75,-319.13 388.99,-322.31"/>
</a>
</g>
</g>
<!-- Node10 -->
<g id="Node000010" class="node">
<title>Node10</title>
<g id="a_Node000010"><a xlink:href="../../d7/d2a/_qhull__test_8cpp.html#a7aff5fe780d18ea82c430cee6e90de6c" target="_top" xlink:title=" ">
<polygon fill="white" stroke="#666666" points="1106.25,-690.62 1019.75,-690.62 1019.75,-671.38 1106.25,-671.38 1106.25,-690.62"/>
<text text-anchor="middle" x="1063" y="-677.12" font-family="Helvetica,sans-Serif" font-size="10.00">qh_fprintf_stderr</text>
</a>
</g>
</g>
<!-- Node3&#45;&gt;Node10 -->
<g id="edge45_Node000003_Node000010" class="edge">
<title>Node3&#45;&gt;Node10</title>
<g id="a_edge45_Node000003_Node000010"><a xlink:title=" ">
<path fill="none" stroke="#63b8ff" d="M306.11,-509.02C309.79,-538.09 324,-623.68 368.25,-676 418.35,-735.24 445.29,-757 522.88,-757 522.88,-757 522.88,-757 811.5,-757 894.77,-757 987.17,-718.07 1032.97,-695.93"/>
<polygon fill="#63b8ff" stroke="#63b8ff" points="1034.37,-698.65 1041.8,-691.09 1031.28,-692.37 1034.37,-698.65"/>
</a>
</g>
</g>
<!-- Node4&#45;&gt;Node3 -->
<g id="edge7_Node000004_Node000003" class="edge">
<title>Node4&#45;&gt;Node3</title>
<g id="a_edge7_Node000004_Node000003"><a xlink:title=" ">
<path fill="none" stroke="#63b8ff" d="M393.28,-310.98C380.86,-342.44 337.04,-437.76 316.18,-479.44"/>
<polygon fill="#63b8ff" stroke="#63b8ff" points="312.72,-477.52 311.3,-488.02 318.96,-480.7 312.72,-477.52"/>
</a>
</g>
</g>
<!-- Node5 -->
<g id="Node000005" class="node">
<title>Node5</title>
<g id="a_Node000005"><a xlink:href="../../db/d66/stat_8c.html#a323eaccbfe6576549fbbcc27b1fc0293" target="_top" xlink:title=" ">
<polygon fill="white" stroke="#666666" points="860.5,-142.62 760.5,-142.62 760.5,-123.38 860.5,-123.38 860.5,-142.62"/>
<text text-anchor="middle" x="810.5" y="-129.12" font-family="Helvetica,sans-Serif" font-size="10.00">qh_collectstatistics</text>
</a>
</g>
</g>
<!-- Node4&#45;&gt;Node5 -->
<g id="edge4_Node000004_Node000005" class="edge">
<title>Node4&#45;&gt;Node5</title>
<g id="a_edge4_Node000004_Node000005"><a xlink:title=" ">
<path fill="none" stroke="#63b8ff" d="M398.84,-291.14C400.1,-261.11 408.44,-170.52 463,-133 556.63,-68.61 700.74,-99.24 769.86,-119.73"/>
<polygon fill="#63b8ff" stroke="#63b8ff" points="768.7,-123.34 779.29,-122.91 770.74,-116.64 768.7,-123.34"/>
</a>
</g>
</g>
<!-- Node6 -->
<g id="Node000006" class="node">
<title>Node6</title>
<g id="a_Node000006"><a xlink:href="../../d3/d8d/user_8c.html#a7903aa238e40e8d6fc4d56e6b46db802" target="_top" xlink:title=" ">
<polygon fill="white" stroke="#666666" points="554.75,-272.62 493,-272.62 493,-253.38 554.75,-253.38 554.75,-272.62"/>
<text text-anchor="middle" x="523.88" y="-259.12" font-family="Helvetica,sans-Serif" font-size="10.00">qh_errprint</text>
</a>
</g>
</g>
<!-- Node4&#45;&gt;Node6 -->
<g id="edge5_Node000004_Node000006" class="edge">
<title>Node4&#45;&gt;Node6</title>
<g id="a_edge5_Node000004_Node000006"><a xlink:title=" ">
<path fill="none" stroke="#63b8ff" d="M427.44,-292.19C443.79,-287.19 464.5,-280.85 482.44,-275.37"/>
<polygon fill="#63b8ff" stroke="#63b8ff" points="483.38,-278.43 491.92,-272.16 481.33,-271.74 483.38,-278.43"/>
</a>
</g>
</g>
<!-- Node7 -->
<g id="Node000007" class="node">
<title>Node7</title>
<g id="a_Node000007"><a xlink:href="../../d7/d2a/_qhull__test_8cpp.html#a0b10c9df60e12aa9251829c10f31f80b" target="_top" xlink:title=" ">
<polygon fill="white" stroke="#666666" points="1086.75,-388.62 1039.25,-388.62 1039.25,-369.38 1086.75,-369.38 1086.75,-388.62"/>
<text text-anchor="middle" x="1063" y="-375.12" font-family="Helvetica,sans-Serif" font-size="10.00">qh_exit</text>
</a>
</g>
</g>
<!-- Node4&#45;&gt;Node7 -->
<g id="edge6_Node000004_Node000007" class="edge">
<title>Node4&#45;&gt;Node7</title>
<g id="a_edge6_Node000004_Node000007"><a xlink:title=" ">
<path fill="none" stroke="#63b8ff" d="M399.82,-291.12C404.99,-250 426.86,-93.13 463,-62 533.71,-1.08 578.29,-38 671.62,-38 671.62,-38 671.62,-38 811.5,-38 971.54,-38 1040.61,-284.99 1057.64,-358.56"/>
<polygon fill="#63b8ff" stroke="#63b8ff" points="1054.41,-359.16 1060,-368.16 1061.24,-357.64 1054.41,-359.16"/>
</a>
</g>
</g>
<!-- Node8 -->
<g id="Node000008" class="node">
<title>Node8</title>
<g id="a_Node000008"><a xlink:href="../../d3/d8f/mem_8c.html#adff4778cdb44590978fca4012f1d279c" target="_top" xlink:title=" ">
<polygon fill="white" stroke="#666666" points="857.12,-614.62 763.88,-614.62 763.88,-595.38 857.12,-595.38 857.12,-614.62"/>
<text text-anchor="middle" x="810.5" y="-601.12" font-family="Helvetica,sans-Serif" font-size="10.00">qh_memstatistics</text>
</a>
</g>
</g>
<!-- Node4&#45;&gt;Node8 -->
<g id="edge8_Node000004_Node000008" class="edge">
<title>Node4&#45;&gt;Node8</title>
<g id="a_edge8_Node000004_Node000008"><a xlink:title=" ">
<path fill="none" stroke="#63b8ff" d="M399.05,-310.82C400.94,-342.73 410.97,-444.92 463,-505 536.01,-589.3 675.17,-604.7 753.08,-606.27"/>
<polygon fill="#63b8ff" stroke="#63b8ff" points="752.61,-609.78 762.65,-606.41 752.7,-602.78 752.61,-609.78"/>
</a>
</g>
</g>
<!-- Node11 -->
<g id="Node000011" class="node">
<title>Node11</title>
<g id="a_Node000011"><a xlink:href="../../d3/d8d/user_8c.html#a7a6915f37bb64324a3c7457469ff2481" target="_top" xlink:title=" ">
<polygon fill="white" stroke="#666666" points="584.75,-235.62 463,-235.62 463,-216.38 584.75,-216.38 584.75,-235.62"/>
<text text-anchor="middle" x="523.88" y="-222.12" font-family="Helvetica,sans-Serif" font-size="10.00">qh_printhelp_degenerate</text>
</a>
</g>
</g>
<!-- Node4&#45;&gt;Node11 -->
<g id="edge15_Node000004_Node000011" class="edge">
<title>Node4&#45;&gt;Node11</title>
<g id="a_edge15_Node000004_Node000011"><a xlink:title=" ">
<path fill="none" stroke="#63b8ff" d="M407.22,-291.09C418.72,-278.43 440.31,-256.64 463,-244 465.53,-242.59 468.19,-241.27 470.92,-240.05"/>
<polygon fill="#63b8ff" stroke="#63b8ff" points="472.02,-242.99 480.01,-236.03 469.43,-236.48 472.02,-242.99"/>
</a>
</g>
</g>
<!-- Node12 -->
<g id="Node000012" class="node">
<title>Node12</title>
<g id="a_Node000012"><a xlink:href="../../d3/d8d/user_8c.html#af5b1d1f8cbeec0187c4b16df2c24a540" target="_top" xlink:title=" ">
<polygon fill="white" stroke="#666666" points="577.62,-198.62 470.12,-198.62 470.12,-179.38 577.62,-179.38 577.62,-198.62"/>
<text text-anchor="middle" x="523.88" y="-185.12" font-family="Helvetica,sans-Serif" font-size="10.00">qh_printhelp_singular</text>
</a>
</g>
</g>
<!-- Node4&#45;&gt;Node12 -->
<g id="edge16_Node000004_Node000012" class="edge">
<title>Node4&#45;&gt;Node12</title>
<g id="a_edge16_Node000004_Node000012"><a xlink:title=" ">
<path fill="none" stroke="#63b8ff" d="M402.67,-291.11C411.03,-271.95 432.02,-229.64 463,-207 464.48,-205.92 466.02,-204.91 467.61,-203.95"/>
<polygon fill="#63b8ff" stroke="#63b8ff" points="468.82,-206.76 476.16,-199.12 465.66,-200.51 468.82,-206.76"/>
</a>
</g>
</g>
<!-- Node13 -->
<g id="Node000013" class="node">
<title>Node13</title>
<g id="a_Node000013"><a xlink:href="../../db/d66/stat_8c.html#a03ec187748eb5928e8972eaba4192835" target="_top" xlink:title=" ">
<polygon fill="white" stroke="#666666" points="855.62,-315.62 765.38,-315.62 765.38,-296.38 855.62,-296.38 855.62,-315.62"/>
<text text-anchor="middle" x="810.5" y="-302.12" font-family="Helvetica,sans-Serif" font-size="10.00">qh_printstatistics</text>
</a>
</g>
</g>
<!-- Node4&#45;&gt;Node13 -->
<g id="edge17_Node000004_Node000013" class="edge">
<title>Node4&#45;&gt;Node13</title>
<g id="a_edge17_Node000004_Node000013"><a xlink:title=" ">
<path fill="none" stroke="#63b8ff" d="M427.19,-301.35C494.82,-302.17 665.67,-304.25 754.28,-305.33"/>
<polygon fill="#63b8ff" stroke="#63b8ff" points="754.14,-308.84 764.19,-305.46 754.23,-301.84 754.14,-308.84"/>
</a>
</g>
</g>
<!-- Node14 -->
<g id="Node000014" class="node">
<title>Node14</title>
<g id="a_Node000014"><a xlink:href="../../db/d66/stat_8c.html#af508cc7e7257750c7a539c31ea647556" target="_top" xlink:title=" ">
<polygon fill="white" stroke="#666666" points="846.62,-518.62 774.38,-518.62 774.38,-499.38 846.62,-499.38 846.62,-518.62"/>
<text text-anchor="middle" x="810.5" y="-505.12" font-family="Helvetica,sans-Serif" font-size="10.00">qh_printstats</text>
</a>
</g>
</g>
<!-- Node4&#45;&gt;Node14 -->
<g id="edge18_Node000004_Node000014" class="edge">
<title>Node4&#45;&gt;Node14</title>
<g id="a_edge18_Node000004_Node000014"><a xlink:title=" ">
<path fill="none" stroke="#63b8ff" d="M404.71,-311.03C414.9,-327.06 436.89,-358.52 463,-377 558.63,-444.7 693.43,-482.86 763.37,-499.26"/>
<polygon fill="#63b8ff" stroke="#63b8ff" points="762.49,-502.88 773.02,-501.71 764.05,-496.06 762.49,-502.88"/>
</a>
</g>
</g>
<!-- Node18 -->
<g id="Node000018" class="node">
<title>Node18</title>
<g id="a_Node000018"><a xlink:href="../../d3/d1d/libqhull_8c.html#a51d73b88702f523ab3f3322f7e45159e" target="_top" xlink:title=" ">
<polygon fill="white" stroke="#666666" points="856,-405.62 765,-405.62 765,-386.38 856,-386.38 856,-405.62"/>
<text text-anchor="middle" x="810.5" y="-392.12" font-family="Helvetica,sans-Serif" font-size="10.00">qh_printsummary</text>
</a>
</g>
</g>
<!-- Node4&#45;&gt;Node18 -->
<g id="edge23_Node000004_Node000018" class="edge">
<title>Node4&#45;&gt;Node18</title>
<g id="a_edge23_Node000004_Node000018"><a xlink:title=" ">
<path fill="none" stroke="#63b8ff" d="M410.19,-310.82C422.52,-320.8 442.98,-336.04 463,-345 558.87,-387.93 683.15,-396.14 753.83,-396.95"/>
<polygon fill="#63b8ff" stroke="#63b8ff" points="753.68,-400.45 763.7,-397.02 753.72,-393.45 753.68,-400.45"/>
</a>
</g>
</g>
<!-- Node28 -->
<g id="Node000028" class="node">
<title>Node28</title>
<g id="a_Node000028"><a xlink:href="../../df/d0a/io_8c.html#a3a9b6591345727ca9306fb0fe73bc044" target="_top" xlink:title=" ">
<polygon fill="white" stroke="#666666" points="573.12,-161.62 474.62,-161.62 474.62,-142.38 573.12,-142.38 573.12,-161.62"/>
<text text-anchor="middle" x="523.88" y="-148.12" font-family="Helvetica,sans-Serif" font-size="10.00">qh_produce_output</text>
</a>
</g>
</g>
<!-- Node4&#45;&gt;Node28 -->
<g id="edge31_Node000004_Node000028" class="edge">
<title>Node4&#45;&gt;Node28</title>
<g id="a_edge31_Node000004_Node000028"><a xlink:title=" ">
<path fill="none" stroke="#63b8ff" d="M401.07,-290.94C410.06,-261.3 441.93,-178.86 463,-161 463.64,-160.46 464.29,-159.94 464.96,-159.43"/>
<polygon fill="#63b8ff" stroke="#63b8ff" points="466.6,-161.92 473.3,-153.71 462.94,-155.95 466.6,-161.92"/>
</a>
</g>
</g>
<!-- Node8&#45;&gt;Node3 -->
<g id="edge9_Node000008_Node000003" class="edge">
<title>Node8&#45;&gt;Node3</title>
<g id="a_edge9_Node000008_Node000003"><a xlink:title=" ">
<path fill="none" stroke="#63b8ff" d="M763.67,-611.67C679.68,-621.6 497.83,-632.36 368.25,-563 347.91,-552.11 329.99,-532.49 318.47,-517.84"/>
<polygon fill="#63b8ff" stroke="#63b8ff" points="320.67,-515.94 311.86,-510.06 315.08,-520.16 320.67,-515.94"/>
</a>
</g>
</g>
<!-- Node9 -->
<g id="Node000009" class="node">
<title>Node9</title>
<g id="a_Node000009"><a xlink:href="../../d3/d8f/mem_8c.html#a277f9b99c55c91ac4791a367bca6613c" target="_top" xlink:title=" ">
<polygon fill="white" stroke="#666666" points="980,-614.62 900.25,-614.62 900.25,-595.38 980,-595.38 980,-614.62"/>
<text text-anchor="middle" x="940.12" y="-601.12" font-family="Helvetica,sans-Serif" font-size="10.00">qh_memcheck</text>
</a>
</g>
</g>
<!-- Node8&#45;&gt;Node9 -->
<g id="edge10_Node000008_Node000009" class="edge">
<title>Node8&#45;&gt;Node9</title>
<g id="a_edge10_Node000008_Node000009"><a xlink:title=" ">
<path fill="none" stroke="#63b8ff" d="M857.58,-605C867.75,-605 878.57,-605 888.9,-605"/>
<polygon fill="#63b8ff" stroke="#63b8ff" points="888.86,-608.5 898.86,-605 888.86,-601.5 888.86,-608.5"/>
</a>
</g>
</g>
<!-- Node9&#45;&gt;Node3 -->
<g id="edge13_Node000009_Node000003" class="edge">
<title>Node9&#45;&gt;Node3</title>
<g id="a_edge13_Node000009_Node000003"><a xlink:title=" ">
<path fill="none" stroke="#63b8ff" d="M927.92,-614.99C913.34,-627.54 886.61,-649.01 860.5,-662 782.76,-700.68 760.46,-719 673.62,-719 522.88,-719 522.88,-719 522.88,-719 444.45,-719 421.44,-691.62 368.25,-634 336.93,-600.07 318.54,-547.86 310.28,-519.33"/>
<polygon fill="#63b8ff" stroke="#63b8ff" points="313.46,-518.71 307.43,-510 306.71,-520.57 313.46,-518.71"/>
</a>
</g>
</g>
<!-- Node9&#45;&gt;Node4 -->
<g id="edge11_Node000009_Node000004" class="edge">
<title>Node9&#45;&gt;Node4</title>
<g id="a_edge11_Node000009_Node000004"><a xlink:title=" ">
<path fill="none" stroke="#63b8ff" d="M903.1,-594.92C804.22,-566.69 531.42,-484.89 463,-423 431.9,-394.87 413.23,-348.15 404.53,-321.43"/>
<polygon fill="#63b8ff" stroke="#63b8ff" points="407.61,-320.53 401.32,-312 400.92,-322.59 407.61,-320.53"/>
</a>
</g>
</g>
<!-- Node9&#45;&gt;Node7 -->
<g id="edge12_Node000009_Node000007" class="edge">
<title>Node9&#45;&gt;Node7</title>
<g id="a_edge12_Node000009_Node000007"><a xlink:title=" ">
<path fill="none" stroke="#63b8ff" d="M960.89,-594.96C968.86,-590.12 977.59,-583.68 983.75,-576 1027.88,-520.95 1049.8,-437.87 1058.02,-399.62"/>
<polygon fill="#63b8ff" stroke="#63b8ff" points="1061.61,-400.56 1060.18,-390.06 1054.75,-399.16 1061.61,-400.56"/>
</a>
</g>
</g>
<!-- Node9&#45;&gt;Node10 -->
<g id="edge14_Node000009_Node000010" class="edge">
<title>Node9&#45;&gt;Node10</title>
<g id="a_edge14_Node000009_Node000010"><a xlink:title=" ">
<path fill="none" stroke="#63b8ff" d="M956.93,-614.94C977.29,-627.74 1012.92,-650.14 1036.98,-665.27"/>
<polygon fill="#63b8ff" stroke="#63b8ff" points="1034.87,-668.7 1045.19,-671.06 1038.59,-662.78 1034.87,-668.7"/>
</a>
</g>
</g>
<!-- Node14&#45;&gt;Node3 -->
<g id="edge19_Node000014_Node000003" class="edge">
<title>Node14&#45;&gt;Node3</title>
<g id="a_edge19_Node000014_Node000003"><a xlink:title=" ">
<path fill="none" stroke="#63b8ff" d="M778.65,-519.1C705.46,-541.42 516.34,-589.44 368.25,-543 351.37,-537.7 335.04,-526.13 323.21,-516.19"/>
<polygon fill="#63b8ff" stroke="#63b8ff" points="325.91,-514.02 316.1,-510.03 321.28,-519.27 325.91,-514.02"/>
</a>
</g>
</g>
<!-- Node15 -->
<g id="Node000015" class="node">
<title>Node15</title>
<g id="a_Node000015"><a xlink:href="../../db/d66/stat_8c.html#a8052de0b944148fcf86be51df976e467" target="_top" xlink:title=" ">
<polygon fill="#fff0f0" stroke="red" points="975.88,-518.62 904.38,-518.62 904.38,-499.38 975.88,-499.38 975.88,-518.62"/>
<text text-anchor="middle" x="940.12" y="-505.12" font-family="Helvetica,sans-Serif" font-size="10.00">qh_newstats</text>
</a>
</g>
</g>
<!-- Node14&#45;&gt;Node15 -->
<g id="edge20_Node000014_Node000015" class="edge">
<title>Node14&#45;&gt;Node15</title>
<g id="a_edge20_Node000014_Node000015"><a xlink:title=" ">
<path fill="none" stroke="#63b8ff" d="M847.05,-509C861.41,-509 878.17,-509 893.42,-509"/>
<polygon fill="#63b8ff" stroke="#63b8ff" points="893.21,-512.5 903.21,-509 893.21,-505.5 893.21,-512.5"/>
</a>
</g>
</g>
<!-- Node17 -->
<g id="Node000017" class="node">
<title>Node17</title>
<g id="a_Node000017"><a xlink:href="../../db/d66/stat_8c.html#a560f7dc3fbf339c108100cb4034a8a18" target="_top" xlink:title=" ">
<polygon fill="#fff0f0" stroke="red" points="983.75,-566.62 896.5,-566.62 896.5,-547.38 983.75,-547.38 983.75,-566.62"/>
<text text-anchor="middle" x="940.12" y="-553.12" font-family="Helvetica,sans-Serif" font-size="10.00">qh_printstatlevel</text>
</a>
</g>
</g>
<!-- Node14&#45;&gt;Node17 -->
<g id="edge21_Node000014_Node000017" class="edge">
<title>Node14&#45;&gt;Node17</title>
<g id="a_edge21_Node000014_Node000017"><a xlink:title=" ">
<path fill="none" stroke="#63b8ff" d="M838.25,-519.06C856.8,-526.04 881.74,-535.42 902.18,-543.11"/>
<polygon fill="#63b8ff" stroke="#63b8ff" points="900.81,-546.71 911.41,-546.95 903.28,-540.15 900.81,-546.71"/>
</a>
</g>
</g>
<!-- Node17&#45;&gt;Node3 -->
<g id="edge22_Node000017_Node000003" class="edge">
<title>Node17&#45;&gt;Node3</title>
<g id="a_edge22_Node000017_Node000003"><a xlink:title=" ">
<path fill="none" stroke="#63b8ff" d="M922.74,-566.97C914.56,-572.23 904.68,-579.04 896.5,-586 878.78,-601.07 880.28,-611.76 860.5,-624 786.67,-669.7 760.46,-681 673.62,-681 522.88,-681 522.88,-681 522.88,-681 422.3,-681 343.62,-565.35 315.84,-518.43"/>
<polygon fill="#63b8ff" stroke="#63b8ff" points="318.46,-516.96 310.43,-510.04 312.39,-520.45 318.46,-516.96"/>
</a>
</g>
</g>
<!-- Node18&#45;&gt;Node3 -->
<g id="edge24_Node000018_Node000003" class="edge">
<title>Node18&#45;&gt;Node3</title>
<g id="a_edge24_Node000018_Node000003"><a xlink:title=" ">
<path fill="none" stroke="#63b8ff" d="M765.16,-406.12C694.01,-422.22 549.86,-454.27 427,-478 399.13,-483.38 367.54,-488.8 343.49,-492.79"/>
<polygon fill="#63b8ff" stroke="#63b8ff" points="342.98,-489.49 333.68,-494.57 344.11,-496.4 342.98,-489.49"/>
</a>
</g>
</g>
<!-- Node19 -->
<g id="Node000019" class="node">
<title>Node19</title>
<g id="a_Node000019"><a xlink:href="../../de/d8f/geom2_8c.html#af31cdbacfc4b81863dfaa827c541a84a" target="_top" xlink:title=" ">
<polygon fill="#fff0f0" stroke="red" points="977.38,-442.62 902.88,-442.62 902.88,-423.38 977.38,-423.38 977.38,-442.62"/>
<text text-anchor="middle" x="940.12" y="-429.12" font-family="Helvetica,sans-Serif" font-size="10.00">qh_outerinner</text>
</a>
</g>
</g>
<!-- Node18&#45;&gt;Node19 -->
<g id="edge25_Node000018_Node000019" class="edge">
<title>Node18&#45;&gt;Node19</title>
<g id="a_edge25_Node000018_Node000019"><a xlink:title=" ">
<path fill="none" stroke="#63b8ff" d="M846.37,-406.11C861.01,-410.35 878.21,-415.34 893.81,-419.86"/>
<polygon fill="#63b8ff" stroke="#63b8ff" points="892.71,-423.48 903.29,-422.9 894.66,-416.76 892.71,-423.48"/>
</a>
</g>
</g>
<!-- Node21 -->
<g id="Node000021" class="node">
<title>Node21</title>
<g id="a_Node000021"><a xlink:href="../../d0/d1c/poly_8c.html#a96ca9a1e5768eb072de911e9f2388cad" target="_top" xlink:title=" ">
<polygon fill="#fff0f0" stroke="red" points="970.25,-405.62 910,-405.62 910,-386.38 970.25,-386.38 970.25,-405.62"/>
<text text-anchor="middle" x="940.12" y="-392.12" font-family="Helvetica,sans-Serif" font-size="10.00">qh_pointid</text>
</a>
</g>
</g>
<!-- Node18&#45;&gt;Node21 -->
<g id="edge26_Node000018_Node000021" class="edge">
<title>Node18&#45;&gt;Node21</title>
<g id="a_edge26_Node000018_Node000021"><a xlink:title=" ">
<path fill="none" stroke="#63b8ff" d="M856.5,-396C870.29,-396 885.37,-396 898.83,-396"/>
<polygon fill="#63b8ff" stroke="#63b8ff" points="898.69,-399.5 908.69,-396 898.69,-392.5 898.69,-399.5"/>
</a>
</g>
</g>
<!-- Node25 -->
<g id="Node000025" class="node">
<title>Node25</title>
<g id="a_Node000025"><a xlink:href="../../de/d2e/qset_8c.html#a5bf663b8bdd3b1c91fe945b569fbf682" target="_top" xlink:title=" ">
<polygon fill="#fff0f0" stroke="red" points="971.75,-199.62 908.5,-199.62 908.5,-180.38 971.75,-180.38 971.75,-199.62"/>
<text text-anchor="middle" x="940.12" y="-186.12" font-family="Helvetica,sans-Serif" font-size="10.00">qh_setsize</text>
</a>
</g>
</g>
<!-- Node18&#45;&gt;Node25 -->
<g id="edge27_Node000018_Node000025" class="edge">
<title>Node18&#45;&gt;Node25</title>
<g id="a_edge27_Node000018_Node000025"><a xlink:title=" ">
<path fill="none" stroke="#63b8ff" d="M834.83,-385.99C843.75,-381.26 853.47,-374.9 860.5,-367 902.67,-319.61 925.39,-245.93 934.42,-210.45"/>
<polygon fill="#63b8ff" stroke="#63b8ff" points="938.01,-211.53 936.97,-200.98 931.2,-209.87 938.01,-211.53"/>
</a>
</g>
</g>
<!-- Node27 -->
<g id="Node000027" class="node">
<title>Node27</title>
<g id="a_Node000027"><a xlink:href="../../d2/d1b/stat_8h.html#af3eabded8ac6cc450637080839b9b293" target="_top" xlink:title=" ">
<polygon fill="white" stroke="#666666" points="970.62,-368.62 909.62,-368.62 909.62,-349.38 970.62,-349.38 970.62,-368.62"/>
<text text-anchor="middle" x="940.12" y="-355.12" font-family="Helvetica,sans-Serif" font-size="10.00">qh_stddev</text>
</a>
</g>
</g>
<!-- Node18&#45;&gt;Node27 -->
<g id="edge30_Node000018_Node000027" class="edge">
<title>Node18&#45;&gt;Node27</title>
<g id="a_edge30_Node000018_Node000027"><a xlink:title=" ">
<path fill="none" stroke="#63b8ff" d="M846.37,-385.89C862.75,-381.14 882.36,-375.46 899.32,-370.54"/>
<polygon fill="#63b8ff" stroke="#63b8ff" points="899.85,-373.74 908.48,-367.59 897.91,-367.02 899.85,-373.74"/>
</a>
</g>
</g>
<!-- Node25&#45;&gt;Node3 -->
<g id="edge29_Node000025_Node000003" class="edge">
<title>Node25&#45;&gt;Node3</title>
<g id="a_edge29_Node000025_Node000003"><a xlink:title=" ">
<path fill="none" stroke="#63b8ff" d="M934.42,-180.11C923.95,-159 896.72,-109.13 860.5,-80 790.1,-23.38 763.97,0 673.62,0 522.88,0 522.88,0 522.88,0 310.73,0 303.1,-383.49 304.44,-478.1"/>
<polygon fill="#63b8ff" stroke="#63b8ff" points="300.96,-478.1 304.66,-488.03 307.96,-477.96 300.96,-478.1"/>
</a>
</g>
</g>
<!-- Node25&#45;&gt;Node4 -->
<g id="edge28_Node000025_Node000004" class="edge">
<title>Node25&#45;&gt;Node4</title>
<g id="a_edge28_Node000025_Node000004"><a xlink:title=" ">
<path fill="none" stroke="#63b8ff" d="M931.97,-179.9C919.53,-163.19 892.18,-130.01 860.5,-114 781.54,-74.09 534,-39.23 463,-92 402.69,-136.83 397.16,-237.27 397.75,-280.54"/>
<polygon fill="#63b8ff" stroke="#63b8ff" points="394.27,-280.45 398.05,-290.35 401.27,-280.26 394.27,-280.45"/>
</a>
</g>
</g>
<!-- Node28&#45;&gt;Node3 -->
<g id="edge33_Node000028_Node000003" class="edge">
<title>Node28&#45;&gt;Node3</title>
<g id="a_edge33_Node000028_Node000003"><a xlink:title=" ">
<path fill="none" stroke="#63b8ff" d="M478.71,-162.05C473.2,-164.23 467.81,-166.85 463,-170 408.47,-205.75 399.1,-224.56 368.25,-282 332.41,-348.73 314.66,-438.21 308.09,-478.18"/>
<polygon fill="#63b8ff" stroke="#63b8ff" points="304.5,-477.5 306.41,-487.92 311.42,-478.59 304.5,-477.5"/>
</a>
</g>
</g>
<!-- Node28&#45;&gt;Node4 -->
<g id="edge32_Node000028_Node000004" class="edge">
<title>Node28&#45;&gt;Node4</title>
<g id="a_edge32_Node000028_Node000004"><a xlink:title=" ">
<path fill="none" stroke="#63b8ff" d="M501.18,-162.06C488.8,-165.45 473.68,-169.95 463,-179 445.88,-193.51 421.63,-250.65 408.32,-281.5"/>
<polygon fill="#63b8ff" stroke="#63b8ff" points="404.88,-279.64 404.09,-290.21 411.29,-282.44 404.88,-279.64"/>
</a>
</g>
</g>
<!-- Node28&#45;&gt;Node25 -->
<g id="edge44_Node000028_Node000025" class="edge">
<title>Node28&#45;&gt;Node25</title>
<g id="a_edge44_Node000028_Node000025"><a xlink:title=" ">
<path fill="none" stroke="#63b8ff" d="M569.06,-162.06C585.24,-165.4 603.75,-168.82 620.75,-171 719.5,-183.67 836.6,-187.92 897.55,-189.32"/>
<polygon fill="#63b8ff" stroke="#63b8ff" points="897.19,-192.83 907.26,-189.55 897.34,-185.84 897.19,-192.83"/>
</a>
</g>
</g>
<!-- Node29 -->
<g id="Node000029" class="node">
<title>Node29</title>
<g id="a_Node000029"><a xlink:href="../../df/d0a/io_8c.html#aba62c3ca1187cdbe5e5440ded5c85387" target="_top" xlink:title=" ">
<polygon fill="#fff0f0" stroke="red" points="720.75,-161.62 624.5,-161.62 624.5,-142.38 720.75,-142.38 720.75,-161.62"/>
<text text-anchor="middle" x="672.62" y="-148.12" font-family="Helvetica,sans-Serif" font-size="10.00">qh_prepare_output</text>
</a>
</g>
</g>
<!-- Node28&#45;&gt;Node29 -->
<g id="edge34_Node000028_Node000029" class="edge">
<title>Node28&#45;&gt;Node29</title>
<g id="a_edge34_Node000028_Node000029"><a xlink:title=" ">
<path fill="none" stroke="#63b8ff" d="M573.33,-152C586.12,-152 600.05,-152 613.29,-152"/>
<polygon fill="#63b8ff" stroke="#63b8ff" points="613.22,-155.5 623.22,-152 613.22,-148.5 613.22,-155.5"/>
</a>
</g>
</g>
<!-- Node205 -->
<g id="Node000205" class="node">
<title>Node205</title>
<g id="a_Node000205"><a xlink:href="../../df/d0a/io_8c.html#a5bb7ba07294ab92abe598500bf6e1dd8" target="_top" xlink:title=" ">
<polygon fill="#fff0f0" stroke="red" points="724.5,-374.62 620.75,-374.62 620.75,-355.38 724.5,-355.38 724.5,-374.62"/>
<text text-anchor="middle" x="672.62" y="-361.12" font-family="Helvetica,sans-Serif" font-size="10.00">qh_produce_output2</text>
</a>
</g>
</g>
<!-- Node28&#45;&gt;Node205 -->
<g id="edge36_Node000028_Node000205" class="edge">
<title>Node28&#45;&gt;Node205</title>
<g id="a_edge36_Node000028_Node000205"><a xlink:title=" ">
<path fill="none" stroke="#63b8ff" d="M572.68,-162.09C577.04,-164.24 581.17,-166.84 584.75,-170 638.7,-217.49 660.77,-304.94 668.3,-344.55"/>
<polygon fill="#63b8ff" stroke="#63b8ff" points="664.99,-344.97 670.18,-354.21 671.89,-343.75 664.99,-344.97"/>
</a>
</g>
</g>
<!-- Node29&#45;&gt;Node5 -->
<g id="edge35_Node000029_Node000005" class="edge">
<title>Node29&#45;&gt;Node5</title>
<g id="a_edge35_Node000029_Node000005"><a xlink:title=" ">
<path fill="none" stroke="#63b8ff" d="M721.15,-145.35C730.38,-144.06 740.16,-142.7 749.73,-141.36"/>
<polygon fill="#63b8ff" stroke="#63b8ff" points="749.97,-144.72 759.39,-139.87 749,-137.79 749.97,-144.72"/>
</a>
</g>
</g>
<!-- Node205&#45;&gt;Node3 -->
<g id="edge38_Node000205_Node000003" class="edge">
<title>Node205&#45;&gt;Node3</title>
<g id="a_edge38_Node000205_Node000003"><a xlink:title=" ">
<path fill="none" stroke="#63b8ff" d="M644.25,-375.01C579.51,-398.67 416.9,-458.1 342.82,-485.18"/>
<polygon fill="#63b8ff" stroke="#63b8ff" points="341.75,-482.21 333.56,-488.93 344.15,-488.78 341.75,-482.21"/>
</a>
</g>
</g>
<!-- Node205&#45;&gt;Node4 -->
<g id="edge37_Node000205_Node000004" class="edge">
<title>Node205&#45;&gt;Node4</title>
<g id="a_edge37_Node000205_Node000004"><a xlink:title=" ">
<path fill="none" stroke="#63b8ff" d="M628.6,-354.91C576.2,-342.63 488.45,-322.06 437.84,-310.19"/>
<polygon fill="#63b8ff" stroke="#63b8ff" points="438.86,-306.6 428.32,-307.73 437.26,-313.42 438.86,-306.6"/>
</a>
</g>
</g>
<!-- Node205&#45;&gt;Node8 -->
<g id="edge39_Node000205_Node000008" class="edge">
<title>Node205&#45;&gt;Node8</title>
<g id="a_edge39_Node000205_Node000008"><a xlink:title=" ">
<path fill="none" stroke="#63b8ff" d="M678.65,-375.07C691.59,-400.85 727.37,-471.22 760.5,-528 772.29,-548.21 786.78,-570.72 796.94,-586.16"/>
<polygon fill="#63b8ff" stroke="#63b8ff" points="794.47,-587.78 802.91,-594.18 800.31,-583.91 794.47,-587.78"/>
</a>
</g>
</g>
<!-- Node205&#45;&gt;Node13 -->
<g id="edge40_Node000205_Node000013" class="edge">
<title>Node205&#45;&gt;Node13</title>
<g id="a_edge40_Node000205_Node000013"><a xlink:title=" ">
<path fill="none" stroke="#63b8ff" d="M696.67,-354.99C718.54,-345.5 751.62,-331.13 776.32,-320.41"/>
<polygon fill="#63b8ff" stroke="#63b8ff" points="777.56,-323.25 785.34,-316.06 774.77,-316.83 777.56,-323.25"/>
</a>
</g>
</g>
<!-- Node205&#45;&gt;Node14 -->
<g id="edge41_Node000205_Node000014" class="edge">
<title>Node205&#45;&gt;Node14</title>
<g id="a_edge41_Node000205_Node000014"><a xlink:title=" ">
<path fill="none" stroke="#63b8ff" d="M682.96,-374.9C705.65,-398.94 763.93,-460.7 792.79,-491.29"/>
<polygon fill="#63b8ff" stroke="#63b8ff" points="789.69,-493.16 799.1,-498.03 794.78,-488.36 789.69,-493.16"/>
</a>
</g>
</g>
<!-- Node205&#45;&gt;Node18 -->
<g id="edge42_Node000205_Node000018" class="edge">
<title>Node205&#45;&gt;Node18</title>
<g id="a_edge42_Node000205_Node000018"><a xlink:title=" ">
<path fill="none" stroke="#63b8ff" d="M717.74,-375.06C729.49,-377.74 742.32,-380.67 754.57,-383.47"/>
<polygon fill="#63b8ff" stroke="#63b8ff" points="753.61,-387.07 764.14,-385.88 755.17,-380.24 753.61,-387.07"/>
</a>
</g>
</g>
<!-- Node205&#45;&gt;Node25 -->
<g id="edge43_Node000205_Node000025" class="edge">
<title>Node205&#45;&gt;Node25</title>
<g id="a_edge43_Node000205_Node000025"><a xlink:title=" ">
<path fill="none" stroke="#63b8ff" d="M724.93,-364.99C765.25,-362.56 821.01,-353.62 860.5,-325 900.42,-296.07 923.29,-240.16 933.2,-210.17"/>
<polygon fill="#63b8ff" stroke="#63b8ff" points="936.72,-211.64 936.37,-201.05 930.04,-209.55 936.72,-211.64"/>
</a>
</g>
</g>
<!-- Node104&#45;&gt;Node3 -->
<g id="edge50_Node000104_Node000003" class="edge">
<title>Node104&#45;&gt;Node3</title>
<g id="a_edge50_Node000104_Node000003"><a xlink:title=" ">
<path fill="none" stroke="#63b8ff" d="M225.6,-398.1C230.62,-400.25 235.46,-402.85 239.75,-406 265.63,-424.98 284.35,-457.92 294.43,-479.07"/>
<polygon fill="#63b8ff" stroke="#63b8ff" points="291.59,-480.27 298.91,-487.92 297.96,-477.37 291.59,-480.27"/>
</a>
</g>
</g>
<!-- Node104&#45;&gt;Node4 -->
<g id="edge49_Node000104_Node000004" class="edge">
<title>Node104&#45;&gt;Node4</title>
<g id="a_edge49_Node000104_Node000004"><a xlink:title=" ">
<path fill="none" stroke="#63b8ff" d="M204.74,-378.02C243.34,-362.52 317.82,-332.63 361.77,-314.99"/>
<polygon fill="#63b8ff" stroke="#63b8ff" points="362.74,-317.97 370.72,-311 360.13,-311.47 362.74,-317.97"/>
</a>
</g>
</g>
</g>
</svg>

<g id="navigator" transform="translate(0 0)" fill="#404254">
  <rect fill="#f2f5e9" fill-opacity="0.5" stroke="#606060" stroke-width=".5" x="0" y="0" width="60" height="60"/>
  <use id="zoomplus" xlink:href="#zoomPlus" x="17" y="9" onmousedown="handleZoom(evt,'in')"/>
  <use id="zoomminus" xlink:href="#zoomMin" x="42" y="9" onmousedown="handleZoom(evt,'out')"/>
  <use id="reset" xlink:href="#resetDef" x="30" y="36" onmousedown="handleReset()"/>
   <use id="arrowup" xlink:href="#arrowUp" x="0" y="0" onmousedown="handlePan(0,-1)"/>
  <use id="arrowright" xlink:href="#arrowRight" x="0" y="0" onmousedown="handlePan(1,0)"/>
  <use id="arrowdown" xlink:href="#arrowDown" x="0" y="0" onmousedown="handlePan(0,1)"/>
  <use id="arrowleft" xlink:href="#arrowLeft" x="0" y="0" onmousedown="handlePan(-1,0)"/>
</g>
<svg viewBox="0 0 15 15" width="100%" height="30px" preserveAspectRatio="xMaxYMin meet">
 <g id="arrow_out" transform="scale(0.3 0.3)">
  <a xlink:href="merge_8c_a5095bc8f1f346735ff4187a2e31b5b7f_cgraph_org.svg" target="_base">
   <rect id="button" ry="5" rx="5" y="6" x="6" height="38" width="38"
        fill="#f2f5e9" fill-opacity="0.5" stroke="#606060" stroke-width="1.0"/>
   <path id="arrow"
     d="M 11.500037,31.436501 C 11.940474,20.09759 22.043105,11.32322 32.158766,21.979434 L 37.068811,17.246167 C 37.068811,17.246167 37.088388,32 37.088388,32 L 22.160133,31.978069 C 22.160133,31.978069 26.997745,27.140456 26.997745,27.140456 C 18.528582,18.264221 13.291696,25.230495 11.500037,31.436501 z"
     style="fill:#404040;"/>
  </a>
 </g>
</svg>

<style type='text/css'>
<![CDATA[
[data-mouse-over-selected='false'] { opacity: 0.7; }
[data-mouse-over-selected='true']  { opacity: 1.0; }
]]>
</style>
<script type="application/ecmascript"><![CDATA[
document.addEventListener('DOMContentLoaded', (event) => {
  highlightEdges();
  highlightAdjacentNodes();
});
]]></script>
</svg>
