<?xml version="1.0" encoding="UTF-8" standalone="no"?>
<!DOCTYPE svg PUBLIC "-//W3C//DTD SVG 1.1//EN"
 "http://www.w3.org/Graphics/SVG/1.1/DTD/svg11.dtd">
<!-- Generated by graphviz version 8.1.0 (20230707.0739)
 -->
<!-- Title: qh_tracemerge Pages: 1 -->
<!--zoomable 567 -->

<svg id="main" version="1.1" xmlns="http://www.w3.org/2000/svg" xmlns:xlink="http://www.w3.org/1999/xlink" xml:space="preserve" onload="init(evt)">
<style type="text/css"><![CDATA[
.node, .edge {opacity: 0.7;}
.node.selected, .edge.selected {opacity: 1;}
.edge:hover path { stroke: red; }
.edge:hover polygon { stroke: red; fill: red; }
]]></style>

<defs>
  <circle id="rim" cx="0" cy="0" r="7"/>
  <circle id="rim2" cx="0" cy="0" r="3.5"/>
  <g id="zoomPlus">
    <use xlink:href="#rim" fill="#404040"><set attributeName="fill" to="#808080" begin="zoomplus.mouseover" end="zoomplus.mouseout"/></use>
    <path d="M-4,0h8M0,-4v8" fill="none" stroke="white" stroke-width="1.5" pointer-events="none"/>
  </g>
  <g id="zoomMin">
    <use xlink:href="#rim" fill="#404040"><set attributeName="fill" to="#808080" begin="zoomminus.mouseover" end="zoomminus.mouseout"/></use>
    <path d="M-4,0h8" fill="none" stroke="white" stroke-width="1.5" pointer-events="none"/>
  </g>
  <g id="arrowUp" transform="translate(30 24)">
    <use xlink:href="#rim"/>
    <path pointer-events="none" fill="none" stroke="white" stroke-width="1.5" d="M0,-3.0v7 M-2.5,-0.5L0,-3.0L2.5,-0.5"/>
  </g>
  <g id="arrowRight" transform="rotate(90) translate(36 -43)">
    <use xlink:href="#rim"/>
    <path pointer-events="none" fill="none" stroke="white" stroke-width="1.5" d="M0,-3.0v7 M-2.5,-0.5L0,-3.0L2.5,-0.5"/>
  </g>
  <g id="arrowDown" transform="rotate(180) translate(-30 -48)">
    <use xlink:href="#rim"/>
    <path pointer-events="none" fill="none" stroke="white" stroke-width="1.5" d="M0,-3.0v7 M-2.5,-0.5L0,-3.0L2.5,-0.5"/>
  </g>
  <g id="arrowLeft" transform="rotate(270) translate(-36 17)">
    <use xlink:href="#rim"/>
    <path pointer-events="none" fill="none" stroke="white" stroke-width="1.5" d="M0,-3.0v7 M-2.5,-0.5L0,-3.0L2.5,-0.5"/>
  </g>
  <g id="resetDef">
    <use xlink:href="#rim2" fill="#404040"><set attributeName="fill" to="#808080" begin="reset.mouseover" end="reset.mouseout"/></use>
  </g>
</defs>
<script type="application/ecmascript">
var viewWidth = 1051;
var viewHeight = 567;
var sectionId = 'dynsection-99';
</script>
<script type="application/ecmascript" xlink:href="../../svg.min.js"/>
<svg id="graph" class="graph">
<g id="viewport">
<title>qh_tracemerge</title>
<!-- Node1 -->
<g id="Node000001" class="node">
<title>Node1</title>
<g id="a_Node000001"><a xlink:title=" ">
<polygon fill="#999999" stroke="#666666" points="1042.5,-342.09 962,-342.09 962,-322.84 1042.5,-322.84 1042.5,-342.09"/>
<text text-anchor="middle" x="1002.25" y="-328.59" font-family="Helvetica,sans-Serif" font-size="10.00">qh_tracemerge</text>
</a>
</g>
</g>
<!-- Node2 -->
<g id="Node000002" class="node">
<title>Node2</title>
<g id="a_Node000002"><a xlink:href="../../d0/d36/merge_8c.html#a18d5dcb3506615a05a2d97f97dc90856" target="_top" xlink:title=" ">
<polygon fill="white" stroke="#666666" points="926,-371.09 844,-371.09 844,-351.84 926,-351.84 926,-371.09"/>
<text text-anchor="middle" x="885" y="-357.59" font-family="Helvetica,sans-Serif" font-size="10.00">qh_mergecycle</text>
</a>
</g>
</g>
<!-- Node1&#45;&gt;Node2 -->
<g id="edge1_Node000001_Node000002" class="edge">
<title>Node1&#45;&gt;Node2</title>
<g id="a_edge1_Node000001_Node000002"><a xlink:title=" ">
<path fill="none" stroke="#63b8ff" d="M951.16,-345.07C942.79,-347.18 934.2,-349.34 926.13,-351.37"/>
<polygon fill="#63b8ff" stroke="#63b8ff" points="951.74,-348.28 960.59,-342.45 950.04,-341.49 951.74,-348.28"/>
</a>
</g>
</g>
<!-- Node36 -->
<g id="Node000036" class="node">
<title>Node36</title>
<g id="a_Node000036"><a xlink:href="../../d0/d36/merge_8c.html#abd656f0f3804b35a0624581604a443f6" target="_top" xlink:title=" ">
<polygon fill="white" stroke="#666666" points="925.25,-324.09 844.75,-324.09 844.75,-304.84 925.25,-304.84 925.25,-324.09"/>
<text text-anchor="middle" x="885" y="-310.59" font-family="Helvetica,sans-Serif" font-size="10.00">qh_mergefacet</text>
</a>
</g>
</g>
<!-- Node1&#45;&gt;Node36 -->
<g id="edge20_Node000001_Node000036" class="edge">
<title>Node1&#45;&gt;Node36</title>
<g id="a_edge20_Node000001_Node000036"><a xlink:title=" ">
<path fill="none" stroke="#63b8ff" d="M950.75,-324.58C942.38,-323.27 933.8,-321.93 925.74,-320.67"/>
<polygon fill="#63b8ff" stroke="#63b8ff" points="950.17,-328.19 960.59,-326.27 951.25,-321.27 950.17,-328.19"/>
</a>
</g>
</g>
<!-- Node3 -->
<g id="Node000003" class="node">
<title>Node3</title>
<g id="a_Node000003"><a xlink:href="../../d0/d36/merge_8c.html#aede356f76e25d8ee52bf4295238fd6ed" target="_top" xlink:title=" ">
<polygon fill="white" stroke="#666666" points="790,-381.09 693,-381.09 693,-361.84 790,-361.84 790,-381.09"/>
<text text-anchor="middle" x="741.5" y="-367.59" font-family="Helvetica,sans-Serif" font-size="10.00">qh_mergecycle_all</text>
</a>
</g>
</g>
<!-- Node2&#45;&gt;Node3 -->
<g id="edge2_Node000002_Node000003" class="edge">
<title>Node2&#45;&gt;Node3</title>
<g id="a_edge2_Node000002_Node000003"><a xlink:title=" ">
<path fill="none" stroke="#63b8ff" d="M832.95,-365.07C819.04,-366.06 804.02,-367.12 790.29,-368.09"/>
<polygon fill="#63b8ff" stroke="#63b8ff" points="833.1,-368.5 842.83,-364.31 832.61,-361.52 833.1,-368.5"/>
</a>
</g>
</g>
<!-- Node4 -->
<g id="Node000004" class="node">
<title>Node4</title>
<g id="a_Node000004"><a xlink:href="../../d0/d36/merge_8c.html#adfe6e6b730087e300a0d99c5e479ff40" target="_top" xlink:title=" ">
<polygon fill="white" stroke="#666666" points="376.38,-343.09 304.12,-343.09 304.12,-323.84 376.38,-323.84 376.38,-343.09"/>
<text text-anchor="middle" x="340.25" y="-329.59" font-family="Helvetica,sans-Serif" font-size="10.00">qh_premerge</text>
</a>
</g>
</g>
<!-- Node3&#45;&gt;Node4 -->
<g id="edge3_Node000003_Node000004" class="edge">
<title>Node3&#45;&gt;Node4</title>
<g id="a_edge3_Node000003_Node000004"><a xlink:title=" ">
<path fill="none" stroke="#63b8ff" d="M685.61,-383.66C670.57,-386.47 654.23,-389.05 639,-390.47 539.35,-399.71 510.47,-397.48 415,-367.47 395.36,-361.29 374.14,-351.1 359.52,-343.49"/>
<polygon fill="#63b8ff" stroke="#63b8ff" points="686.14,-386.93 695.28,-381.58 684.8,-380.06 686.14,-386.93"/>
</a>
</g>
</g>
<!-- Node5 -->
<g id="Node000005" class="node">
<title>Node5</title>
<g id="a_Node000005"><a xlink:href="../../d3/d1d/libqhull_8c.html#aa3f30b3b9f985fbdf0bd97f594c19eb0" target="_top" xlink:title=" ">
<polygon fill="white" stroke="#666666" points="265.5,-369.09 197,-369.09 197,-349.84 265.5,-349.84 265.5,-369.09"/>
<text text-anchor="middle" x="231.25" y="-355.59" font-family="Helvetica,sans-Serif" font-size="10.00">qh_addpoint</text>
</a>
</g>
</g>
<!-- Node4&#45;&gt;Node5 -->
<g id="edge4_Node000004_Node000005" class="edge">
<title>Node4&#45;&gt;Node5</title>
<g id="a_edge4_Node000004_Node000005"><a xlink:title=" ">
<path fill="none" stroke="#63b8ff" d="M293.27,-344.64C284.01,-346.89 274.46,-349.21 265.73,-351.33"/>
<polygon fill="#63b8ff" stroke="#63b8ff" points="294.03,-347.81 302.92,-342.05 292.37,-341.01 294.03,-347.81"/>
</a>
</g>
</g>
<!-- Node34 -->
<g id="Node000034" class="node">
<title>Node34</title>
<g id="a_Node000034"><a xlink:href="../../dd/ddc/libqhull__r_8c.html#ab6ebb3043e23e018ec6c2e09b0651c1e" target="_top" xlink:title=" ">
<polygon fill="white" stroke="#666666" points="265.5,-258.09 197,-258.09 197,-238.84 265.5,-238.84 265.5,-258.09"/>
<text text-anchor="middle" x="231.25" y="-244.59" font-family="Helvetica,sans-Serif" font-size="10.00">qh_addpoint</text>
</a>
</g>
</g>
<!-- Node4&#45;&gt;Node34 -->
<g id="edge18_Node000004_Node000034" class="edge">
<title>Node4&#45;&gt;Node34</title>
<g id="a_edge18_Node000004_Node000034"><a xlink:title=" ">
<path fill="none" stroke="#63b8ff" d="M317.98,-316.57C296.16,-299.24 262.94,-272.84 244.93,-258.54"/>
<polygon fill="#63b8ff" stroke="#63b8ff" points="315.55,-319.9 325.56,-323.38 319.9,-314.42 315.55,-319.9"/>
</a>
</g>
</g>
<!-- Node6 -->
<g id="Node000006" class="node">
<title>Node6</title>
<g id="a_Node000006"><a xlink:href="../../de/d23/user__eg2_8c.html#af7d3b6ebccf4d8bb722de846ec802d2a" target="_top" xlink:title=" ">
<polygon fill="#fff0f0" stroke="red" points="161,-499.09 88,-499.09 88,-479.84 161,-479.84 161,-499.09"/>
<text text-anchor="middle" x="124.5" y="-485.59" font-family="Helvetica,sans-Serif" font-size="10.00">addDelaunay</text>
</a>
</g>
</g>
<!-- Node5&#45;&gt;Node6 -->
<g id="edge5_Node000005_Node000006" class="edge">
<title>Node5&#45;&gt;Node6</title>
<g id="a_edge5_Node000005_Node000006"><a xlink:title=" ">
<path fill="none" stroke="#63b8ff" d="M222.07,-379.26C211.19,-403.59 189.9,-444.91 161,-471.47 157.64,-474.55 153.66,-477.24 149.59,-479.54"/>
<polygon fill="#63b8ff" stroke="#63b8ff" points="225.58,-380.96 226.33,-370.39 219.15,-378.19 225.58,-380.96"/>
</a>
</g>
</g>
<!-- Node8 -->
<g id="Node000008" class="node">
<title>Node8</title>
<g id="a_Node000008"><a xlink:href="../../dc/d19/user__eg2__r_8c.html#a3355b30f54fdc164288f3cb18378bf4f" target="_top" xlink:title=" ">
<polygon fill="#fff0f0" stroke="red" points="161,-462.09 88,-462.09 88,-442.84 161,-442.84 161,-462.09"/>
<text text-anchor="middle" x="124.5" y="-448.59" font-family="Helvetica,sans-Serif" font-size="10.00">addDelaunay</text>
</a>
</g>
</g>
<!-- Node5&#45;&gt;Node8 -->
<g id="edge6_Node000005_Node000008" class="edge">
<title>Node5&#45;&gt;Node8</title>
<g id="a_edge6_Node000005_Node000008"><a xlink:title=" ">
<path fill="none" stroke="#63b8ff" d="M216.14,-378.19C203.14,-394.53 182.63,-418.12 161,-434.47 157.14,-437.38 152.74,-440.05 148.38,-442.39"/>
<polygon fill="#63b8ff" stroke="#63b8ff" points="219.51,-380.56 222.88,-370.51 213.98,-376.26 219.51,-380.56"/>
</a>
</g>
</g>
<!-- Node10 -->
<g id="Node000010" class="node">
<title>Node10</title>
<g id="a_Node000010"><a xlink:href="../../de/d23/user__eg2_8c.html#a769b1472f71d35a251257056ccc4f881" target="_top" xlink:title=" ">
<polygon fill="#fff0f0" stroke="red" points="158.75,-425.09 90.25,-425.09 90.25,-405.84 158.75,-405.84 158.75,-425.09"/>
<text text-anchor="middle" x="124.5" y="-411.59" font-family="Helvetica,sans-Serif" font-size="10.00">adddiamond</text>
</a>
</g>
</g>
<!-- Node5&#45;&gt;Node10 -->
<g id="edge7_Node000005_Node000010" class="edge">
<title>Node5&#45;&gt;Node10</title>
<g id="a_edge7_Node000005_Node000010"><a xlink:title=" ">
<path fill="none" stroke="#63b8ff" d="M202.87,-374.76C190.18,-381.78 174.88,-390.14 161,-397.47 155.99,-400.11 150.55,-402.91 145.46,-405.49"/>
<polygon fill="#63b8ff" stroke="#63b8ff" points="204.36,-377.38 211.4,-369.47 200.96,-371.26 204.36,-377.38"/>
</a>
</g>
</g>
<!-- Node19 -->
<g id="Node000019" class="node">
<title>Node19</title>
<g id="a_Node000019"><a xlink:href="../../dc/d19/user__eg2__r_8c.html#a4dd6f8f9665377a801922cbf4523f48a" target="_top" xlink:title=" ">
<polygon fill="#fff0f0" stroke="red" points="158.75,-388.09 90.25,-388.09 90.25,-368.84 158.75,-368.84 158.75,-388.09"/>
<text text-anchor="middle" x="124.5" y="-374.59" font-family="Helvetica,sans-Serif" font-size="10.00">adddiamond</text>
</a>
</g>
</g>
<!-- Node5&#45;&gt;Node19 -->
<g id="edge8_Node000005_Node000019" class="edge">
<title>Node5&#45;&gt;Node19</title>
<g id="a_edge8_Node000005_Node000019"><a xlink:title=" ">
<path fill="none" stroke="#63b8ff" d="M185.85,-367.52C176.91,-369.14 167.66,-370.82 159.16,-372.36"/>
<polygon fill="#63b8ff" stroke="#63b8ff" points="186.32,-370.81 195.53,-365.58 185.07,-363.92 186.32,-370.81"/>
</a>
</g>
</g>
<!-- Node20 -->
<g id="Node000020" class="node">
<title>Node20</title>
<g id="a_Node000020"><a xlink:href="../../de/d23/user__eg2_8c.html#ac1cac81bfd507c3716d7f07598f744be" target="_top" xlink:title=" ">
<polygon fill="#fff0f0" stroke="red" points="148.25,-351.09 100.75,-351.09 100.75,-331.84 148.25,-331.84 148.25,-351.09"/>
<text text-anchor="middle" x="124.5" y="-337.59" font-family="Helvetica,sans-Serif" font-size="10.00">addhalf</text>
</a>
</g>
</g>
<!-- Node5&#45;&gt;Node20 -->
<g id="edge9_Node000005_Node000020" class="edge">
<title>Node5&#45;&gt;Node20</title>
<g id="a_edge9_Node000005_Node000020"><a xlink:title=" ">
<path fill="none" stroke="#63b8ff" d="M185.95,-351.85C173.08,-349.64 159.55,-347.32 148.56,-345.43"/>
<polygon fill="#63b8ff" stroke="#63b8ff" points="185.08,-355.43 195.53,-353.67 186.27,-348.53 185.08,-355.43"/>
</a>
</g>
</g>
<!-- Node21 -->
<g id="Node000021" class="node">
<title>Node21</title>
<g id="a_Node000021"><a xlink:href="../../dc/d19/user__eg2__r_8c.html#a294f95af2e6aa72b22d7c21b4f3d8a9b" target="_top" xlink:title=" ">
<polygon fill="#fff0f0" stroke="red" points="148.25,-314.09 100.75,-314.09 100.75,-294.84 148.25,-294.84 148.25,-314.09"/>
<text text-anchor="middle" x="124.5" y="-300.59" font-family="Helvetica,sans-Serif" font-size="10.00">addhalf</text>
</a>
</g>
</g>
<!-- Node5&#45;&gt;Node21 -->
<g id="edge10_Node000005_Node000021" class="edge">
<title>Node5&#45;&gt;Node21</title>
<g id="a_edge10_Node000005_Node000021"><a xlink:title=" ">
<path fill="none" stroke="#63b8ff" d="M202.3,-344.36C189.71,-337.6 174.64,-329.57 161,-322.47 155.97,-319.85 150.53,-317.06 145.44,-314.48"/>
<polygon fill="#63b8ff" stroke="#63b8ff" points="200.33,-347.81 210.79,-349.46 203.64,-341.64 200.33,-347.81"/>
</a>
</g>
</g>
<!-- Node22 -->
<g id="Node000022" class="node">
<title>Node22</title>
<g id="a_Node000022"><a xlink:href="../../d3/d1d/libqhull_8c.html#a9dacb98db25f499d3e0416aee4307a80" target="_top" xlink:title=" ">
<polygon fill="#fff0f0" stroke="red" points="158,-240.09 91,-240.09 91,-220.84 158,-220.84 158,-240.09"/>
<text text-anchor="middle" x="124.5" y="-226.59" font-family="Helvetica,sans-Serif" font-size="10.00">qh_buildhull</text>
</a>
</g>
</g>
<!-- Node5&#45;&gt;Node22 -->
<g id="edge11_Node000005_Node000022" class="edge">
<title>Node5&#45;&gt;Node22</title>
<g id="a_edge11_Node000005_Node000022"><a xlink:title=" ">
<path fill="none" stroke="#63b8ff" d="M222.03,-339.85C211.1,-315.74 189.77,-274.8 161,-248.47 157.64,-245.39 153.65,-242.7 149.58,-240.41"/>
<polygon fill="#63b8ff" stroke="#63b8ff" points="219.09,-340.87 226.31,-348.63 225.5,-338.07 219.09,-340.87"/>
</a>
</g>
</g>
<!-- Node32 -->
<g id="Node000032" class="node">
<title>Node32</title>
<g id="a_Node000032"><a xlink:href="../../dd/d98/poly2__r_8c.html#a3291717ad6e317ed31774dbbc041b036" target="_top" xlink:title=" ">
<polygon fill="white" stroke="#666666" points="156.88,-536.09 92.12,-536.09 92.12,-516.84 156.88,-516.84 156.88,-536.09"/>
<text text-anchor="middle" x="124.5" y="-522.59" font-family="Helvetica,sans-Serif" font-size="10.00">qh_initbuild</text>
</a>
</g>
</g>
<!-- Node5&#45;&gt;Node32 -->
<g id="edge14_Node000005_Node000032" class="edge">
<title>Node5&#45;&gt;Node32</title>
<g id="a_edge14_Node000005_Node000032"><a xlink:title=" ">
<path fill="none" stroke="#63b8ff" d="M225.37,-379.92C217,-411.14 197.21,-471 161,-508.47 158.02,-511.55 154.41,-514.19 150.63,-516.43"/>
<polygon fill="#63b8ff" stroke="#63b8ff" points="228.96,-381.02 228.03,-370.46 222.17,-379.29 228.96,-381.02"/>
</a>
</g>
</g>
<!-- Node33 -->
<g id="Node000033" class="node">
<title>Node33</title>
<g id="a_Node000033"><a xlink:href="../../d9/d26/poly2_8c.html#af48505f99a1447ec5013ed5766250b50" target="_top" xlink:title=" ">
<polygon fill="#fff0f0" stroke="red" points="156.88,-277.09 92.12,-277.09 92.12,-257.84 156.88,-257.84 156.88,-277.09"/>
<text text-anchor="middle" x="124.5" y="-263.59" font-family="Helvetica,sans-Serif" font-size="10.00">qh_initbuild</text>
</a>
</g>
</g>
<!-- Node5&#45;&gt;Node33 -->
<g id="edge15_Node000005_Node000033" class="edge">
<title>Node5&#45;&gt;Node33</title>
<g id="a_edge15_Node000005_Node000033"><a xlink:title=" ">
<path fill="none" stroke="#63b8ff" d="M216.09,-341.01C203.05,-324.9 182.53,-301.63 161,-285.47 157.13,-282.56 152.72,-279.9 148.36,-277.57"/>
<polygon fill="#63b8ff" stroke="#63b8ff" points="213.9,-342.89 222.85,-348.56 219.39,-338.55 213.9,-342.89"/>
</a>
</g>
</g>
<!-- Node25 -->
<g id="Node000025" class="node">
<title>Node25</title>
<g id="a_Node000025"><a xlink:href="../../dd/ddc/libqhull__r_8c.html#adf07afe5d35dcb03cc71eb2dd0da59dd" target="_top" xlink:title=" ">
<polygon fill="white" stroke="#666666" points="52,-277.09 0,-277.09 0,-257.84 52,-257.84 52,-277.09"/>
<text text-anchor="middle" x="26" y="-263.59" font-family="Helvetica,sans-Serif" font-size="10.00">qh_qhull</text>
</a>
</g>
</g>
<!-- Node22&#45;&gt;Node25 -->
<g id="edge12_Node000022_Node000025" class="edge">
<title>Node22&#45;&gt;Node25</title>
<g id="a_edge12_Node000022_Node000025"><a xlink:title=" ">
<path fill="none" stroke="#63b8ff" d="M86.89,-244.5C75.37,-248.92 62.9,-253.7 52.34,-257.75"/>
<polygon fill="#63b8ff" stroke="#63b8ff" points="88.05,-247.43 96.13,-240.58 85.54,-240.89 88.05,-247.43"/>
</a>
</g>
</g>
<!-- Node26 -->
<g id="Node000026" class="node">
<title>Node26</title>
<g id="a_Node000026"><a xlink:href="../../d3/d1d/libqhull_8c.html#a66495141e5922b777a5d84a7aec13a32" target="_top" xlink:title=" ">
<polygon fill="#fff0f0" stroke="red" points="52,-240.09 0,-240.09 0,-220.84 52,-220.84 52,-240.09"/>
<text text-anchor="middle" x="26" y="-226.59" font-family="Helvetica,sans-Serif" font-size="10.00">qh_qhull</text>
</a>
</g>
</g>
<!-- Node22&#45;&gt;Node26 -->
<g id="edge13_Node000022_Node000026" class="edge">
<title>Node22&#45;&gt;Node26</title>
<g id="a_edge13_Node000022_Node000026"><a xlink:title=" ">
<path fill="none" stroke="#63b8ff" d="M79.78,-230.47C70.44,-230.47 60.87,-230.47 52.48,-230.47"/>
<polygon fill="#63b8ff" stroke="#63b8ff" points="79.56,-233.97 89.56,-230.47 79.56,-226.97 79.56,-233.97"/>
</a>
</g>
</g>
<!-- Node33&#45;&gt;Node25 -->
<g id="edge16_Node000033_Node000025" class="edge">
<title>Node33&#45;&gt;Node25</title>
<g id="a_edge16_Node000033_Node000025"><a xlink:title=" ">
<path fill="none" stroke="#63b8ff" d="M80.88,-267.47C71.17,-267.47 61.15,-267.47 52.42,-267.47"/>
<polygon fill="#63b8ff" stroke="#63b8ff" points="80.63,-270.97 90.63,-267.47 80.63,-263.97 80.63,-270.97"/>
</a>
</g>
</g>
<!-- Node33&#45;&gt;Node26 -->
<g id="edge17_Node000033_Node000026" class="edge">
<title>Node33&#45;&gt;Node26</title>
<g id="a_edge17_Node000033_Node000026"><a xlink:title=" ">
<path fill="none" stroke="#63b8ff" d="M86.89,-253.43C75.37,-249.01 62.9,-244.23 52.34,-240.18"/>
<polygon fill="#63b8ff" stroke="#63b8ff" points="85.54,-257.04 96.13,-257.36 88.05,-250.51 85.54,-257.04"/>
</a>
</g>
</g>
<!-- Node35 -->
<g id="Node000035" class="node">
<title>Node35</title>
<g id="a_Node000035"><a xlink:href="../../dd/ddc/libqhull__r_8c.html#a45f90a4c6d1607471beacabf3b0a5b9a" target="_top" xlink:title=" ">
<polygon fill="white" stroke="#666666" points="158,-203.09 91,-203.09 91,-183.84 158,-183.84 158,-203.09"/>
<text text-anchor="middle" x="124.5" y="-189.59" font-family="Helvetica,sans-Serif" font-size="10.00">qh_buildhull</text>
</a>
</g>
</g>
<!-- Node34&#45;&gt;Node35 -->
<g id="edge19_Node000034_Node000035" class="edge">
<title>Node34&#45;&gt;Node35</title>
<g id="a_edge19_Node000034_Node000035"><a xlink:title=" ">
<path fill="none" stroke="#63b8ff" d="M202.3,-233.36C189.71,-226.6 174.64,-218.57 161,-211.47 155.97,-208.85 150.53,-206.06 145.44,-203.48"/>
<polygon fill="#63b8ff" stroke="#63b8ff" points="200.33,-236.81 210.79,-238.46 203.64,-230.64 200.33,-236.81"/>
</a>
</g>
</g>
<!-- Node36&#45;&gt;Node3 -->
<g id="edge49_Node000036_Node000003" class="edge">
<title>Node36&#45;&gt;Node3</title>
<g id="a_edge49_Node000036_Node000003"><a xlink:title=" ">
<path fill="none" stroke="#63b8ff" d="M852.07,-328.83C838.55,-334.78 822.58,-341.64 808,-347.47 795.97,-352.28 782.55,-357.26 771.01,-361.43"/>
<polygon fill="#63b8ff" stroke="#63b8ff" points="853.14,-331.74 860.86,-324.49 850.3,-325.34 853.14,-331.74"/>
</a>
</g>
</g>
<!-- Node37 -->
<g id="Node000037" class="node">
<title>Node37</title>
<g id="a_Node000037"><a xlink:href="../../d0/d36/merge_8c.html#acd15e94474029517098b2e4b9e22b6c9" target="_top" xlink:title=" ">
<polygon fill="white" stroke="#666666" points="507.5,-286.09 415,-286.09 415,-266.84 507.5,-266.84 507.5,-286.09"/>
<text text-anchor="middle" x="461.25" y="-272.59" font-family="Helvetica,sans-Serif" font-size="10.00">qh_flippedmerges</text>
</a>
</g>
</g>
<!-- Node36&#45;&gt;Node37 -->
<g id="edge21_Node000036_Node000037" class="edge">
<title>Node36&#45;&gt;Node37</title>
<g id="a_edge21_Node000036_Node000037"><a xlink:title=" ">
<path fill="none" stroke="#63b8ff" d="M833.43,-309.91C750.6,-302.45 587.3,-287.73 507.83,-280.57"/>
<polygon fill="#63b8ff" stroke="#63b8ff" points="833.05,-313.48 843.32,-310.89 833.68,-306.51 833.05,-313.48"/>
</a>
</g>
</g>
<!-- Node39 -->
<g id="Node000039" class="node">
<title>Node39</title>
<g id="a_Node000039"><a xlink:href="../../d0/d36/merge_8c.html#a5cdfaa0fab85f16f6b3036b9117164f0" target="_top" xlink:title=" ">
<polygon fill="white" stroke="#666666" points="636.75,-381.09 545.75,-381.09 545.75,-361.84 636.75,-361.84 636.75,-381.09"/>
<text text-anchor="middle" x="591.25" y="-367.59" font-family="Helvetica,sans-Serif" font-size="10.00">qh_forcedmerges</text>
</a>
</g>
</g>
<!-- Node36&#45;&gt;Node39 -->
<g id="edge26_Node000036_Node000039" class="edge">
<title>Node36&#45;&gt;Node39</title>
<g id="a_edge26_Node000036_Node000039"><a xlink:title=" ">
<path fill="none" stroke="#63b8ff" d="M834,-322.89C791.58,-330.2 729.17,-341.33 675,-352.47 661.72,-355.2 647.29,-358.42 634.27,-361.43"/>
<polygon fill="#63b8ff" stroke="#63b8ff" points="834.34,-326.22 843.61,-321.07 833.16,-319.32 834.34,-326.22"/>
</a>
</g>
</g>
<!-- Node40 -->
<g id="Node000040" class="node">
<title>Node40</title>
<g id="a_Node000040"><a xlink:href="../../d0/d36/merge_8c.html#a84fe684b5ce48374de889b7d9120ca53" target="_top" xlink:title=" ">
<polygon fill="white" stroke="#666666" points="808,-153.09 675,-153.09 675,-133.84 808,-133.84 808,-153.09"/>
<text text-anchor="middle" x="741.5" y="-139.59" font-family="Helvetica,sans-Serif" font-size="10.00">qh_merge_degenredundant</text>
</a>
</g>
</g>
<!-- Node36&#45;&gt;Node40 -->
<g id="edge28_Node000036_Node000040" class="edge">
<title>Node36&#45;&gt;Node40</title>
<g id="a_edge28_Node000036_Node000040"><a xlink:title=" ">
<path fill="none" stroke="#63b8ff" d="M869.5,-295.94C854.35,-276.67 829.8,-245.72 808,-219.47 787.97,-195.35 763.72,-167.57 751.09,-153.21"/>
<polygon fill="#63b8ff" stroke="#63b8ff" points="867.2,-297.68 876.13,-303.39 872.71,-293.36 867.2,-297.68"/>
</a>
</g>
</g>
<!-- Node48 -->
<g id="Node000048" class="node">
<title>Node48</title>
<g id="a_Node000048"><a xlink:href="../../d0/d36/merge_8c.html#a478cb14f649dfa361551bb70fde08466" target="_top" xlink:title=" ">
<polygon fill="white" stroke="#666666" points="797.12,-248.09 685.88,-248.09 685.88,-228.84 797.12,-228.84 797.12,-248.09"/>
<text text-anchor="middle" x="741.5" y="-234.59" font-family="Helvetica,sans-Serif" font-size="10.00">qh_merge_nonconvex</text>
</a>
</g>
</g>
<!-- Node36&#45;&gt;Node48 -->
<g id="edge47_Node000036_Node000048" class="edge">
<title>Node36&#45;&gt;Node48</title>
<g id="a_edge47_Node000036_Node000048"><a xlink:title=" ">
<path fill="none" stroke="#63b8ff" d="M855.52,-299.17C827.32,-284.02 784.97,-261.28 760.92,-248.36"/>
<polygon fill="#63b8ff" stroke="#63b8ff" points="853.74,-302.73 864.21,-304.37 857.06,-296.56 853.74,-302.73"/>
</a>
</g>
</g>
<!-- Node37&#45;&gt;Node4 -->
<g id="edge25_Node000037_Node000004" class="edge">
<title>Node37&#45;&gt;Node4</title>
<g id="a_edge25_Node000037_Node000004"><a xlink:title=" ">
<path fill="none" stroke="#63b8ff" d="M429.43,-291.23C408.24,-301.38 380.67,-314.59 362.04,-323.51"/>
<polygon fill="#63b8ff" stroke="#63b8ff" points="430.74,-294 438.25,-286.53 427.72,-287.69 430.74,-294"/>
</a>
</g>
</g>
<!-- Node38 -->
<g id="Node000038" class="node">
<title>Node38</title>
<g id="a_Node000038"><a xlink:href="../../d0/d36/merge_8c.html#a996503311966d59514bc379ff3449a14" target="_top" xlink:title=" ">
<polygon fill="white" stroke="#666666" points="379,-210.09 301.5,-210.09 301.5,-190.84 379,-190.84 379,-210.09"/>
<text text-anchor="middle" x="340.25" y="-196.59" font-family="Helvetica,sans-Serif" font-size="10.00">qh_postmerge</text>
</a>
</g>
</g>
<!-- Node37&#45;&gt;Node38 -->
<g id="edge22_Node000037_Node000038" class="edge">
<title>Node37&#45;&gt;Node38</title>
<g id="a_edge22_Node000037_Node000038"><a xlink:title=" ">
<path fill="none" stroke="#63b8ff" d="M435.62,-260.74C411.94,-245.61 376.86,-223.21 356.81,-210.4"/>
<polygon fill="#63b8ff" stroke="#63b8ff" points="433.38,-264.1 443.69,-266.53 437.15,-258.2 433.38,-264.1"/>
</a>
</g>
</g>
<!-- Node38&#45;&gt;Node25 -->
<g id="edge23_Node000038_Node000025" class="edge">
<title>Node38&#45;&gt;Node25</title>
<g id="a_edge23_Node000038_Node000025"><a xlink:title=" ">
<path fill="none" stroke="#63b8ff" d="M332.22,-220.52C307.81,-288.82 224.69,-510.19 161,-545.47 132.62,-561.19 113.28,-565.8 88,-545.47 44.78,-510.7 30.45,-323.12 27.58,-277.48"/>
<polygon fill="#63b8ff" stroke="#63b8ff" points="335.81,-221.86 335.85,-211.26 329.21,-219.52 335.81,-221.86"/>
</a>
</g>
</g>
<!-- Node38&#45;&gt;Node26 -->
<g id="edge24_Node000038_Node000026" class="edge">
<title>Node38&#45;&gt;Node26</title>
<g id="a_edge24_Node000038_Node000026"><a xlink:title=" ">
<path fill="none" stroke="#63b8ff" d="M303.7,-186.79C253.73,-169.76 160.71,-146.15 88,-174.47 64.15,-183.75 43.98,-207.2 33.9,-220.62"/>
<polygon fill="#63b8ff" stroke="#63b8ff" points="302.38,-190.39 312.98,-190.41 304.71,-183.79 302.38,-190.39"/>
</a>
</g>
</g>
<!-- Node39&#45;&gt;Node4 -->
<g id="edge27_Node000039_Node000004" class="edge">
<title>Node39&#45;&gt;Node4</title>
<g id="a_edge27_Node000039_Node000004"><a xlink:title=" ">
<path fill="none" stroke="#63b8ff" d="M534.69,-364.6C500.17,-360.15 454.93,-353.99 415,-347.47 402.52,-345.43 388.91,-342.93 376.82,-340.6"/>
<polygon fill="#63b8ff" stroke="#63b8ff" points="534.13,-368.19 544.5,-365.98 535.02,-361.24 534.13,-368.19"/>
</a>
</g>
</g>
<!-- Node40&#45;&gt;Node4 -->
<g id="edge40_Node000040_Node000004" class="edge">
<title>Node40&#45;&gt;Node4</title>
<g id="a_edge40_Node000040_Node000004"><a xlink:title=" ">
<path fill="none" stroke="#63b8ff" d="M724.04,-161.4C705.01,-181.37 672.05,-213.71 639,-235.47 554.23,-291.27 434.94,-317.78 376.43,-328.06"/>
<polygon fill="#63b8ff" stroke="#63b8ff" points="726.24,-164.1 730.53,-154.42 721.14,-159.32 726.24,-164.1"/>
</a>
</g>
</g>
<!-- Node40&#45;&gt;Node37 -->
<g id="edge35_Node000040_Node000037" class="edge">
<title>Node40&#45;&gt;Node37</title>
<g id="a_edge35_Node000040_Node000037"><a xlink:title=" ">
<path fill="none" stroke="#63b8ff" d="M714.72,-158.94C694.44,-170.87 665.32,-187.47 639,-200.47 586.44,-226.43 522.88,-252.52 488.1,-266.35"/>
<polygon fill="#63b8ff" stroke="#63b8ff" points="716.09,-161.61 722.91,-153.5 712.52,-155.58 716.09,-161.61"/>
</a>
</g>
</g>
<!-- Node41 -->
<g id="Node000041" class="node">
<title>Node41</title>
<g id="a_Node000041"><a xlink:href="../../d0/d36/merge_8c.html#a9f8eea0003c8a8f2cf16db2ef92f53ce" target="_top" xlink:title=" ">
<polygon fill="white" stroke="#666666" points="500.75,-210.09 421.75,-210.09 421.75,-190.84 500.75,-190.84 500.75,-210.09"/>
<text text-anchor="middle" x="461.25" y="-196.59" font-family="Helvetica,sans-Serif" font-size="10.00">qh_all_merges</text>
</a>
</g>
</g>
<!-- Node40&#45;&gt;Node41 -->
<g id="edge29_Node000040_Node000041" class="edge">
<title>Node40&#45;&gt;Node41</title>
<g id="a_edge29_Node000040_Node000041"><a xlink:title=" ">
<path fill="none" stroke="#63b8ff" d="M664.02,-144.79C627.07,-146.95 582.41,-151.83 543.5,-162.47 520.22,-168.83 495.34,-181.42 479.34,-190.36"/>
<polygon fill="#63b8ff" stroke="#63b8ff" points="663.92,-148.25 673.72,-144.23 663.55,-141.26 663.92,-148.25"/>
</a>
</g>
</g>
<!-- Node42 -->
<g id="Node000042" class="node">
<title>Node42</title>
<g id="a_Node000042"><a xlink:href="../../d4/daf/merge__r_8c.html#a8163cc76ceb8ceba8c9ea15e2a70af39" target="_top" xlink:title=" ">
<polygon fill="white" stroke="#666666" points="500.75,-77.09 421.75,-77.09 421.75,-57.84 500.75,-57.84 500.75,-77.09"/>
<text text-anchor="middle" x="461.25" y="-63.59" font-family="Helvetica,sans-Serif" font-size="10.00">qh_all_merges</text>
</a>
</g>
</g>
<!-- Node40&#45;&gt;Node42 -->
<g id="edge32_Node000040_Node000042" class="edge">
<title>Node40&#45;&gt;Node42</title>
<g id="a_edge32_Node000040_Node000042"><a xlink:title=" ">
<path fill="none" stroke="#63b8ff" d="M718.05,-127.32C698.26,-113.98 668.12,-95.77 639,-86.47 593.14,-71.81 537.54,-67.96 501.1,-67.19"/>
<polygon fill="#63b8ff" stroke="#63b8ff" points="715.67,-130.62 725.88,-133.42 719.64,-124.86 715.67,-130.62"/>
</a>
</g>
</g>
<!-- Node44 -->
<g id="Node000044" class="node">
<title>Node44</title>
<g id="a_Node000044"><a xlink:href="../../d4/daf/merge__r_8c.html#a0edb7d53c648841f636051abea19f21e" target="_top" xlink:title=" ">
<polygon fill="white" stroke="#666666" points="376.38,-40.09 304.12,-40.09 304.12,-20.84 376.38,-20.84 376.38,-40.09"/>
<text text-anchor="middle" x="340.25" y="-26.59" font-family="Helvetica,sans-Serif" font-size="10.00">qh_premerge</text>
</a>
</g>
</g>
<!-- Node40&#45;&gt;Node44 -->
<g id="edge39_Node000040_Node000044" class="edge">
<title>Node40&#45;&gt;Node44</title>
<g id="a_edge39_Node000040_Node000044"><a xlink:title=" ">
<path fill="none" stroke="#63b8ff" d="M728.3,-124.3C711.42,-99.51 678.53,-56.98 639,-35.47 551.06,12.4 514.33,1.12 415,-11.47 401.1,-13.23 386.06,-16.79 373.22,-20.36"/>
<polygon fill="#63b8ff" stroke="#63b8ff" points="725.9,-126.02 734.33,-132.43 731.74,-122.16 725.9,-126.02"/>
</a>
</g>
</g>
<!-- Node45 -->
<g id="Node000045" class="node">
<title>Node45</title>
<g id="a_Node000045"><a xlink:href="../../d4/daf/merge__r_8c.html#a24641706c23b8aa28da750a597e4dc74" target="_top" xlink:title=" ">
<polygon fill="white" stroke="#666666" points="507.5,-40.09 415,-40.09 415,-20.84 507.5,-20.84 507.5,-40.09"/>
<text text-anchor="middle" x="461.25" y="-26.59" font-family="Helvetica,sans-Serif" font-size="10.00">qh_flippedmerges</text>
</a>
</g>
</g>
<!-- Node40&#45;&gt;Node45 -->
<g id="edge36_Node000040_Node000045" class="edge">
<title>Node40&#45;&gt;Node45</title>
<g id="a_edge36_Node000040_Node000045"><a xlink:title=" ">
<path fill="none" stroke="#63b8ff" d="M723.12,-125.99C704.14,-107.96 672,-80.42 639,-65.47 596.97,-46.43 544.7,-37.71 507.94,-33.74"/>
<polygon fill="#63b8ff" stroke="#63b8ff" points="720.27,-128.07 729.88,-132.53 725.14,-123.05 720.27,-128.07"/>
</a>
</g>
</g>
<!-- Node46 -->
<g id="Node000046" class="node">
<title>Node46</title>
<g id="a_Node000046"><a xlink:href="../../d4/daf/merge__r_8c.html#a70e7d9f04569e2515d89eb8fe13c84f5" target="_top" xlink:title=" ">
<polygon fill="white" stroke="#666666" points="639,-191.09 543.5,-191.09 543.5,-171.84 639,-171.84 639,-191.09"/>
<text text-anchor="middle" x="591.25" y="-177.59" font-family="Helvetica,sans-Serif" font-size="10.00">qh_reducevertices</text>
</a>
</g>
</g>
<!-- Node40&#45;&gt;Node46 -->
<g id="edge41_Node000040_Node000046" class="edge">
<title>Node40&#45;&gt;Node46</title>
<g id="a_edge41_Node000040_Node000046"><a xlink:title=" ">
<path fill="none" stroke="#63b8ff" d="M690.74,-156.22C671.44,-161.17 649.67,-166.75 631.52,-171.4"/>
<polygon fill="#63b8ff" stroke="#63b8ff" points="691.34,-159.42 700.16,-153.55 689.61,-152.64 691.34,-159.42"/>
</a>
</g>
</g>
<!-- Node47 -->
<g id="Node000047" class="node">
<title>Node47</title>
<g id="a_Node000047"><a xlink:href="../../d0/d36/merge_8c.html#ac40425a64c50d0e0b2637c63d61822a9" target="_top" xlink:title=" ">
<polygon fill="white" stroke="#666666" points="639,-115.09 543.5,-115.09 543.5,-95.84 639,-95.84 639,-115.09"/>
<text text-anchor="middle" x="591.25" y="-101.59" font-family="Helvetica,sans-Serif" font-size="10.00">qh_reducevertices</text>
</a>
</g>
</g>
<!-- Node40&#45;&gt;Node47 -->
<g id="edge42_Node000040_Node000047" class="edge">
<title>Node40&#45;&gt;Node47</title>
<g id="a_edge42_Node000040_Node000047"><a xlink:title=" ">
<path fill="none" stroke="#63b8ff" d="M690.74,-130.71C671.44,-125.77 649.67,-120.19 631.52,-115.53"/>
<polygon fill="#63b8ff" stroke="#63b8ff" points="689.61,-134.29 700.16,-133.38 691.34,-127.51 689.61,-134.29"/>
</a>
</g>
</g>
<!-- Node41&#45;&gt;Node4 -->
<g id="edge31_Node000041_Node000004" class="edge">
<title>Node41&#45;&gt;Node4</title>
<g id="a_edge31_Node000041_Node000004"><a xlink:title=" ">
<path fill="none" stroke="#63b8ff" d="M444.24,-218.36C418.91,-246.67 370.38,-300.91 350.3,-323.35"/>
<polygon fill="#63b8ff" stroke="#63b8ff" points="446.25,-221.25 450.31,-211.46 441.03,-216.58 446.25,-221.25"/>
</a>
</g>
</g>
<!-- Node41&#45;&gt;Node38 -->
<g id="edge30_Node000041_Node000038" class="edge">
<title>Node41&#45;&gt;Node38</title>
<g id="a_edge30_Node000041_Node000038"><a xlink:title=" ">
<path fill="none" stroke="#63b8ff" d="M410.31,-200.47C400.01,-200.47 389.3,-200.47 379.49,-200.47"/>
<polygon fill="#63b8ff" stroke="#63b8ff" points="410.28,-203.97 420.28,-200.47 410.28,-196.97 410.28,-203.97"/>
</a>
</g>
</g>
<!-- Node43 -->
<g id="Node000043" class="node">
<title>Node43</title>
<g id="a_Node000043"><a xlink:href="../../d4/daf/merge__r_8c.html#a1378982ac057c486994b10d234d5e451" target="_top" xlink:title=" ">
<polygon fill="white" stroke="#666666" points="379,-77.09 301.5,-77.09 301.5,-57.84 379,-57.84 379,-77.09"/>
<text text-anchor="middle" x="340.25" y="-63.59" font-family="Helvetica,sans-Serif" font-size="10.00">qh_postmerge</text>
</a>
</g>
</g>
<!-- Node42&#45;&gt;Node43 -->
<g id="edge33_Node000042_Node000043" class="edge">
<title>Node42&#45;&gt;Node43</title>
<g id="a_edge33_Node000042_Node000043"><a xlink:title=" ">
<path fill="none" stroke="#63b8ff" d="M410.31,-67.47C400.01,-67.47 389.3,-67.47 379.49,-67.47"/>
<polygon fill="#63b8ff" stroke="#63b8ff" points="410.28,-70.97 420.28,-67.47 410.28,-63.97 410.28,-70.97"/>
</a>
</g>
</g>
<!-- Node42&#45;&gt;Node44 -->
<g id="edge34_Node000042_Node000044" class="edge">
<title>Node42&#45;&gt;Node44</title>
<g id="a_edge34_Node000042_Node000044"><a xlink:title=" ">
<path fill="none" stroke="#63b8ff" d="M417.53,-54.18C403.1,-49.7 387.23,-44.76 373.73,-40.56"/>
<polygon fill="#63b8ff" stroke="#63b8ff" points="416.14,-57.73 426.73,-57.36 418.22,-51.05 416.14,-57.73"/>
</a>
</g>
</g>
<!-- Node45&#45;&gt;Node43 -->
<g id="edge37_Node000045_Node000043" class="edge">
<title>Node45&#45;&gt;Node43</title>
<g id="a_edge37_Node000045_Node000043"><a xlink:title=" ">
<path fill="none" stroke="#63b8ff" d="M417.53,-43.75C403.1,-48.24 387.23,-53.17 373.73,-57.37"/>
<polygon fill="#63b8ff" stroke="#63b8ff" points="418.22,-46.89 426.73,-40.58 416.14,-40.2 418.22,-46.89"/>
</a>
</g>
</g>
<!-- Node45&#45;&gt;Node44 -->
<g id="edge38_Node000045_Node000044" class="edge">
<title>Node45&#45;&gt;Node44</title>
<g id="a_edge38_Node000045_Node000044"><a xlink:title=" ">
<path fill="none" stroke="#63b8ff" d="M403.81,-30.47C394.55,-30.47 385.19,-30.47 376.63,-30.47"/>
<polygon fill="#63b8ff" stroke="#63b8ff" points="403.58,-33.97 413.58,-30.47 403.58,-26.97 403.58,-33.97"/>
</a>
</g>
</g>
<!-- Node47&#45;&gt;Node38 -->
<g id="edge45_Node000047_Node000038" class="edge">
<title>Node47&#45;&gt;Node38</title>
<g id="a_edge45_Node000047_Node000038"><a xlink:title=" ">
<path fill="none" stroke="#63b8ff" d="M553.87,-119.35C503.08,-138.73 412.11,-173.43 367.45,-190.47"/>
<polygon fill="#63b8ff" stroke="#63b8ff" points="554.98,-122.29 563.07,-115.45 552.48,-115.75 554.98,-122.29"/>
</a>
</g>
</g>
<!-- Node47&#45;&gt;Node41 -->
<g id="edge43_Node000047_Node000041" class="edge">
<title>Node47&#45;&gt;Node41</title>
<g id="a_edge43_Node000047_Node000041"><a xlink:title=" ">
<path fill="none" stroke="#63b8ff" d="M557.26,-120.61C552.48,-123.31 547.75,-126.28 543.5,-129.47 524.89,-143.42 524.97,-152.1 507.5,-167.47 498.01,-175.81 486.49,-184.19 477.45,-190.42"/>
<polygon fill="#63b8ff" stroke="#63b8ff" points="558.77,-123.24 565.98,-115.48 555.5,-117.05 558.77,-123.24"/>
</a>
</g>
</g>
<!-- Node47&#45;&gt;Node42 -->
<g id="edge44_Node000047_Node000042" class="edge">
<title>Node47&#45;&gt;Node42</title>
<g id="a_edge44_Node000047_Node000042"><a xlink:title=" ">
<path fill="none" stroke="#63b8ff" d="M545.85,-92.28C529.47,-87.42 511.2,-82 495.93,-77.47"/>
<polygon fill="#63b8ff" stroke="#63b8ff" points="544.7,-95.89 555.28,-95.38 546.69,-89.18 544.7,-95.89"/>
</a>
</g>
</g>
<!-- Node47&#45;&gt;Node43 -->
<g id="edge46_Node000047_Node000043" class="edge">
<title>Node47&#45;&gt;Node43</title>
<g id="a_edge46_Node000047_Node000043"><a xlink:title=" ">
<path fill="none" stroke="#63b8ff" d="M532.36,-101.3C498.06,-98.31 453.85,-93.54 415,-86.47 402.12,-84.12 388.17,-80.75 375.91,-77.49"/>
<polygon fill="#63b8ff" stroke="#63b8ff" points="531.86,-104.86 542.12,-102.21 532.45,-97.88 531.86,-104.86"/>
</a>
</g>
</g>
<!-- Node48&#45;&gt;Node41 -->
<g id="edge48_Node000048_Node000041" class="edge">
<title>Node48&#45;&gt;Node41</title>
<g id="a_edge48_Node000048_Node000041"><a xlink:title=" ">
<path fill="none" stroke="#63b8ff" d="M674.66,-229.48C620.61,-222.09 545.89,-211.89 500.99,-205.76"/>
<polygon fill="#63b8ff" stroke="#63b8ff" points="674.15,-233.07 684.53,-230.96 675.09,-226.14 674.15,-233.07"/>
</a>
</g>
</g>
</g>
</svg>

<g id="navigator" transform="translate(0 0)" fill="#404254">
  <rect fill="#f2f5e9" fill-opacity="0.5" stroke="#606060" stroke-width=".5" x="0" y="0" width="60" height="60"/>
  <use id="zoomplus" xlink:href="#zoomPlus" x="17" y="9" onmousedown="handleZoom(evt,'in')"/>
  <use id="zoomminus" xlink:href="#zoomMin" x="42" y="9" onmousedown="handleZoom(evt,'out')"/>
  <use id="reset" xlink:href="#resetDef" x="30" y="36" onmousedown="handleReset()"/>
   <use id="arrowup" xlink:href="#arrowUp" x="0" y="0" onmousedown="handlePan(0,-1)"/>
  <use id="arrowright" xlink:href="#arrowRight" x="0" y="0" onmousedown="handlePan(1,0)"/>
  <use id="arrowdown" xlink:href="#arrowDown" x="0" y="0" onmousedown="handlePan(0,1)"/>
  <use id="arrowleft" xlink:href="#arrowLeft" x="0" y="0" onmousedown="handlePan(-1,0)"/>
</g>
<svg viewBox="0 0 15 15" width="100%" height="30px" preserveAspectRatio="xMaxYMin meet">
 <g id="arrow_out" transform="scale(0.3 0.3)">
  <a xlink:href="merge_8c_a844c40269aa95b5b24a3fb42afb9497d_icgraph_org.svg" target="_base">
   <rect id="button" ry="5" rx="5" y="6" x="6" height="38" width="38"
        fill="#f2f5e9" fill-opacity="0.5" stroke="#606060" stroke-width="1.0"/>
   <path id="arrow"
     d="M 11.500037,31.436501 C 11.940474,20.09759 22.043105,11.32322 32.158766,21.979434 L 37.068811,17.246167 C 37.068811,17.246167 37.088388,32 37.088388,32 L 22.160133,31.978069 C 22.160133,31.978069 26.997745,27.140456 26.997745,27.140456 C 18.528582,18.264221 13.291696,25.230495 11.500037,31.436501 z"
     style="fill:#404040;"/>
  </a>
 </g>
</svg>

<style type='text/css'>
<![CDATA[
[data-mouse-over-selected='false'] { opacity: 0.7; }
[data-mouse-over-selected='true']  { opacity: 1.0; }
]]>
</style>
<script type="application/ecmascript"><![CDATA[
document.addEventListener('DOMContentLoaded', (event) => {
  highlightEdges();
  highlightAdjacentNodes();
});
]]></script>
</svg>
