<?xml version="1.0" encoding="UTF-8" standalone="no"?>
<!DOCTYPE svg PUBLIC "-//W3C//DTD SVG 1.1//EN"
 "http://www.w3.org/Graphics/SVG/1.1/DTD/svg11.dtd">
<!-- Generated by graphviz version 8.1.0 (20230707.0739)
 -->
<!-- Title: Slic3r::GUI::TabPrint Pages: 1 -->
<svg width="435pt" height="248pt"
 viewBox="0.00 0.00 434.75 248.25" xmlns="http://www.w3.org/2000/svg" xmlns:xlink="http://www.w3.org/1999/xlink">

<svg id="main" version="1.1" xmlns="http://www.w3.org/2000/svg" xmlns:xlink="http://www.w3.org/1999/xlink" xml:space="preserve" onload="init(evt)">
<style type="text/css"><![CDATA[
.node, .edge {opacity: 0.7;}
.node.selected, .edge.selected {opacity: 1;}
.edge:hover path { stroke: red; }
.edge:hover polygon { stroke: red; fill: red; }
]]></style>
<script type="application/ecmascript" xlink:href="../../svg.min.js"/>
<svg id="graph" class="graph">
<g id="graph0" class="graph" transform="scale(1 1) rotate(0) translate(4 244.25)">
<title>Slic3r::GUI::TabPrint</title>
<!-- Node1 -->
<g id="Node000001" class="node">
<title>Node1</title>
<g id="a_Node000001"><a xlink:title=" ">
<polygon fill="#999999" stroke="#666666" points="269.75,-129.75 163,-129.75 163,-110.5 269.75,-110.5 269.75,-129.75"/>
<text text-anchor="middle" x="216.38" y="-116.25" font-family="Helvetica,sans-Serif" font-size="10.00">Slic3r::GUI::TabPrint</text>
</a>
</g>
</g>
<!-- Node4 -->
<g id="Node000004" class="node">
<title>Node4</title>
<g id="a_Node000004"><a xlink:href="../../d1/dcf/class_slic3r_1_1_g_u_i_1_1_tab_print_model.html" target="_top" xlink:title=" ">
<polygon fill="white" stroke="#666666" points="282.88,-74.5 149.88,-74.5 149.88,-55.25 282.88,-55.25 282.88,-74.5"/>
<text text-anchor="middle" x="216.38" y="-61" font-family="Helvetica,sans-Serif" font-size="10.00">Slic3r::GUI::TabPrintModel</text>
</a>
</g>
</g>
<!-- Node1&#45;&gt;Node4 -->
<g id="edge3_Node000001_Node000004" class="edge">
<title>Node1&#45;&gt;Node4</title>
<g id="a_edge3_Node000001_Node000004"><a xlink:title=" ">
<path fill="none" stroke="#63b8ff" d="M216.38,-99.46C216.38,-91.02 216.38,-81.58 216.38,-74.86"/>
<polygon fill="#63b8ff" stroke="#63b8ff" points="212.88,-99.33 216.38,-109.33 219.88,-99.33 212.88,-99.33"/>
</a>
</g>
</g>
<!-- Node2 -->
<g id="Node000002" class="node">
<title>Node2</title>
<g id="a_Node000002"><a xlink:href="../../d2/df9/class_slic3r_1_1_g_u_i_1_1_tab.html" target="_top" xlink:title=" ">
<polygon fill="white" stroke="#666666" points="259.62,-185 173.12,-185 173.12,-165.75 259.62,-165.75 259.62,-185"/>
<text text-anchor="middle" x="216.38" y="-171.5" font-family="Helvetica,sans-Serif" font-size="10.00">Slic3r::GUI::Tab</text>
</a>
</g>
</g>
<!-- Node2&#45;&gt;Node1 -->
<g id="edge1_Node000001_Node000002" class="edge">
<title>Node2&#45;&gt;Node1</title>
<g id="a_edge1_Node000001_Node000002"><a xlink:title=" ">
<path fill="none" stroke="#63b8ff" d="M216.38,-154.71C216.38,-146.27 216.38,-136.83 216.38,-130.11"/>
<polygon fill="#63b8ff" stroke="#63b8ff" points="212.88,-154.58 216.38,-164.58 219.88,-154.58 212.88,-154.58"/>
</a>
</g>
</g>
<!-- Node3 -->
<g id="Node000003" class="node">
<title>Node3</title>
<g id="a_Node000003"><a xlink:title=" ">
<polygon fill="white" stroke="#666666" points="243.12,-240.25 189.62,-240.25 189.62,-221 243.12,-221 243.12,-240.25"/>
<text text-anchor="middle" x="216.38" y="-226.75" font-family="Helvetica,sans-Serif" font-size="10.00">wxPanel</text>
</a>
</g>
</g>
<!-- Node3&#45;&gt;Node2 -->
<g id="edge2_Node000002_Node000003" class="edge">
<title>Node3&#45;&gt;Node2</title>
<g id="a_edge2_Node000002_Node000003"><a xlink:title=" ">
<path fill="none" stroke="#63b8ff" d="M216.38,-209.96C216.38,-201.52 216.38,-192.08 216.38,-185.36"/>
<polygon fill="#63b8ff" stroke="#63b8ff" points="212.88,-209.83 216.38,-219.83 219.88,-209.83 212.88,-209.83"/>
</a>
</g>
</g>
<!-- Node5 -->
<g id="Node000005" class="node">
<title>Node5</title>
<g id="a_Node000005"><a xlink:href="../../d6/db9/class_slic3r_1_1_g_u_i_1_1_tab_print_layer.html" target="_top" xlink:title=" ">
<polygon fill="white" stroke="#666666" points="130.75,-19.25 0,-19.25 0,0 130.75,0 130.75,-19.25"/>
<text text-anchor="middle" x="65.38" y="-5.75" font-family="Helvetica,sans-Serif" font-size="10.00">Slic3r::GUI::TabPrintLayer</text>
</a>
</g>
</g>
<!-- Node4&#45;&gt;Node5 -->
<g id="edge4_Node000004_Node000005" class="edge">
<title>Node4&#45;&gt;Node5</title>
<g id="a_edge4_Node000004_Node000005"><a xlink:title=" ">
<path fill="none" stroke="#63b8ff" d="M180.74,-51.31C153.22,-41.6 115.78,-28.4 91.12,-19.7"/>
<polygon fill="#63b8ff" stroke="#63b8ff" points="179.17,-54.82 189.76,-54.84 181.49,-48.22 179.17,-54.82"/>
</a>
</g>
</g>
<!-- Node6 -->
<g id="Node000006" class="node">
<title>Node6</title>
<g id="a_Node000006"><a xlink:href="../../da/dd9/class_slic3r_1_1_g_u_i_1_1_tab_print_object.html" target="_top" xlink:title=" ">
<polygon fill="white" stroke="#666666" points="284,-19.25 148.75,-19.25 148.75,0 284,0 284,-19.25"/>
<text text-anchor="middle" x="216.38" y="-5.75" font-family="Helvetica,sans-Serif" font-size="10.00">Slic3r::GUI::TabPrintObject</text>
</a>
</g>
</g>
<!-- Node4&#45;&gt;Node6 -->
<g id="edge5_Node000004_Node000006" class="edge">
<title>Node4&#45;&gt;Node6</title>
<g id="a_edge5_Node000004_Node000006"><a xlink:title=" ">
<path fill="none" stroke="#63b8ff" d="M216.38,-44.21C216.38,-35.77 216.38,-26.33 216.38,-19.61"/>
<polygon fill="#63b8ff" stroke="#63b8ff" points="212.88,-44.08 216.38,-54.08 219.88,-44.08 212.88,-44.08"/>
</a>
</g>
</g>
<!-- Node7 -->
<g id="Node000007" class="node">
<title>Node7</title>
<g id="a_Node000007"><a xlink:href="../../d3/d0d/class_slic3r_1_1_g_u_i_1_1_tab_print_part.html" target="_top" xlink:title=" ">
<polygon fill="white" stroke="#666666" points="426.75,-19.25 302,-19.25 302,0 426.75,0 426.75,-19.25"/>
<text text-anchor="middle" x="364.38" y="-5.75" font-family="Helvetica,sans-Serif" font-size="10.00">Slic3r::GUI::TabPrintPart</text>
</a>
</g>
</g>
<!-- Node4&#45;&gt;Node7 -->
<g id="edge6_Node000004_Node000007" class="edge">
<title>Node4&#45;&gt;Node7</title>
<g id="a_edge6_Node000004_Node000007"><a xlink:title=" ">
<path fill="none" stroke="#63b8ff" d="M251.66,-51.18C278.6,-41.49 315.08,-28.36 339.15,-19.7"/>
<polygon fill="#63b8ff" stroke="#63b8ff" points="250.71,-48.16 242.48,-54.84 253.08,-54.75 250.71,-48.16"/>
</a>
</g>
</g>
</g>
</svg>
</svg>

<style type='text/css'>
<![CDATA[
[data-mouse-over-selected='false'] { opacity: 0.7; }
[data-mouse-over-selected='true']  { opacity: 1.0; }
]]>
</style>
<script type="application/ecmascript"><![CDATA[
document.addEventListener('DOMContentLoaded', (event) => {
  highlightEdges();
  highlightAdjacentNodes();
});
]]></script>
</svg>
