<?xml version="1.0" encoding="UTF-8" standalone="no"?>
<!DOCTYPE svg PUBLIC "-//W3C//DTD SVG 1.1//EN"
 "http://www.w3.org/Graphics/SVG/1.1/DTD/svg11.dtd">
<!-- Generated by graphviz version 8.1.0 (20230707.0739)
 -->
<!-- Title: Slic3r::DynamicConfig::optptr Pages: 1 -->
<!--zoomable 156 -->

<svg id="main" version="1.1" xmlns="http://www.w3.org/2000/svg" xmlns:xlink="http://www.w3.org/1999/xlink" xml:space="preserve" onload="init(evt)">
<style type="text/css"><![CDATA[
.node, .edge {opacity: 0.7;}
.node.selected, .edge.selected {opacity: 1;}
.edge:hover path { stroke: red; }
.edge:hover polygon { stroke: red; fill: red; }
]]></style>

<defs>
  <circle id="rim" cx="0" cy="0" r="7"/>
  <circle id="rim2" cx="0" cy="0" r="3.5"/>
  <g id="zoomPlus">
    <use xlink:href="#rim" fill="#404040"><set attributeName="fill" to="#808080" begin="zoomplus.mouseover" end="zoomplus.mouseout"/></use>
    <path d="M-4,0h8M0,-4v8" fill="none" stroke="white" stroke-width="1.5" pointer-events="none"/>
  </g>
  <g id="zoomMin">
    <use xlink:href="#rim" fill="#404040"><set attributeName="fill" to="#808080" begin="zoomminus.mouseover" end="zoomminus.mouseout"/></use>
    <path d="M-4,0h8" fill="none" stroke="white" stroke-width="1.5" pointer-events="none"/>
  </g>
  <g id="arrowUp" transform="translate(30 24)">
    <use xlink:href="#rim"/>
    <path pointer-events="none" fill="none" stroke="white" stroke-width="1.5" d="M0,-3.0v7 M-2.5,-0.5L0,-3.0L2.5,-0.5"/>
  </g>
  <g id="arrowRight" transform="rotate(90) translate(36 -43)">
    <use xlink:href="#rim"/>
    <path pointer-events="none" fill="none" stroke="white" stroke-width="1.5" d="M0,-3.0v7 M-2.5,-0.5L0,-3.0L2.5,-0.5"/>
  </g>
  <g id="arrowDown" transform="rotate(180) translate(-30 -48)">
    <use xlink:href="#rim"/>
    <path pointer-events="none" fill="none" stroke="white" stroke-width="1.5" d="M0,-3.0v7 M-2.5,-0.5L0,-3.0L2.5,-0.5"/>
  </g>
  <g id="arrowLeft" transform="rotate(270) translate(-36 17)">
    <use xlink:href="#rim"/>
    <path pointer-events="none" fill="none" stroke="white" stroke-width="1.5" d="M0,-3.0v7 M-2.5,-0.5L0,-3.0L2.5,-0.5"/>
  </g>
  <g id="resetDef">
    <use xlink:href="#rim2" fill="#404040"><set attributeName="fill" to="#808080" begin="reset.mouseover" end="reset.mouseout"/></use>
  </g>
</defs>
<script type="application/ecmascript">
var viewWidth = 581;
var viewHeight = 156;
var sectionId = 'dynsection-82';
</script>
<script type="application/ecmascript" xlink:href="../../svg.min.js"/>
<svg id="graph" class="graph">
<g id="viewport">
<title>Slic3r::DynamicConfig::optptr</title>
<!-- Node1 -->
<g id="Node000001" class="node">
<title>Node1</title>
<g id="a_Node000001"><a xlink:title=" ">
<polygon fill="#999999" stroke="#666666" points="114.25,-85.5 0,-85.5 0,-55 114.25,-55 114.25,-85.5"/>
<text text-anchor="start" x="8" y="-72" font-family="Helvetica,sans-Serif" font-size="10.00">Slic3r::DynamicConfig</text>
<text text-anchor="middle" x="57.12" y="-60.75" font-family="Helvetica,sans-Serif" font-size="10.00">::optptr</text>
</a>
</g>
</g>
<!-- Node2 -->
<g id="Node000002" class="node">
<title>Node2</title>
<g id="a_Node000002"><a xlink:href="../../d1/dce/class_slic3r_1_1_config_option_def.html#a1af8d94a157a58a9cc69192e2833b956" target="_top" xlink:title=" ">
<polygon fill="white" stroke="#666666" points="276.88,-147.5 157.38,-147.5 157.38,-117 276.88,-117 276.88,-147.5"/>
<text text-anchor="start" x="165.38" y="-134" font-family="Helvetica,sans-Serif" font-size="10.00">Slic3r::ConfigOptionDef</text>
<text text-anchor="middle" x="217.12" y="-122.75" font-family="Helvetica,sans-Serif" font-size="10.00">::create_default_option</text>
</a>
</g>
</g>
<!-- Node1&#45;&gt;Node2 -->
<g id="edge1_Node000001_Node000002" class="edge">
<title>Node1&#45;&gt;Node2</title>
<g id="a_edge1_Node000001_Node000002"><a xlink:title=" ">
<path fill="none" stroke="#63b8ff" d="M95.19,-85.95C111.94,-92.94 132.02,-101.17 150.25,-108.25 154.16,-109.77 158.21,-111.31 162.29,-112.85"/>
<polygon fill="#63b8ff" stroke="#63b8ff" points="160.85,-116.42 171.44,-116.63 163.29,-109.86 160.85,-116.42"/>
</a>
</g>
</g>
<!-- Node4 -->
<g id="Node000004" class="node">
<title>Node4</title>
<g id="a_Node000004"><a xlink:href="../../d5/df0/class_slic3r_1_1_dynamic_config.html#a8704b55b03b59dd16efb7abe806c0b9c" target="_top" xlink:title=" ">
<polygon fill="white" stroke="#666666" points="284,-98.88 150.25,-98.88 150.25,-79.62 284,-79.62 284,-98.88"/>
<text text-anchor="middle" x="217.12" y="-85.38" font-family="Helvetica,sans-Serif" font-size="10.00">Slic3r::DynamicConfig::def</text>
</a>
</g>
</g>
<!-- Node1&#45;&gt;Node4 -->
<g id="edge3_Node000001_Node000004" class="edge">
<title>Node1&#45;&gt;Node4</title>
<g id="a_edge3_Node000001_Node000004"><a xlink:title=" ">
<path fill="none" stroke="#63b8ff" d="M114.72,-77.06C122.66,-78.01 130.93,-79.01 139.18,-80"/>
<polygon fill="#63b8ff" stroke="#63b8ff" points="138.62,-83.57 148.96,-81.29 139.45,-76.62 138.62,-83.57"/>
</a>
</g>
</g>
<!-- Node5 -->
<g id="Node000005" class="node">
<title>Node5</title>
<g id="a_Node000005"><a xlink:href="../../d8/d3c/class_slic3r_1_1_config_def.html#a5c965f6ca20611f3afb93d4d51ac2b46" target="_top" xlink:title=" ">
<polygon fill="white" stroke="#666666" points="272.38,-61.88 161.88,-61.88 161.88,-42.62 272.38,-42.62 272.38,-61.88"/>
<text text-anchor="middle" x="217.12" y="-48.38" font-family="Helvetica,sans-Serif" font-size="10.00">Slic3r::ConfigDef::get</text>
</a>
</g>
</g>
<!-- Node1&#45;&gt;Node5 -->
<g id="edge4_Node000001_Node000005" class="edge">
<title>Node1&#45;&gt;Node5</title>
<g id="a_edge4_Node000001_Node000005"><a xlink:title=" ">
<path fill="none" stroke="#63b8ff" d="M114.72,-63.8C126.38,-62.47 138.75,-61.06 150.7,-59.7"/>
<polygon fill="#63b8ff" stroke="#63b8ff" points="150.97,-63.08 160.51,-58.47 150.18,-56.13 150.97,-63.08"/>
</a>
</g>
</g>
<!-- Node6 -->
<g id="Node000006" class="node">
<title>Node6</title>
<g id="a_Node000006"><a xlink:href="../../d5/df0/class_slic3r_1_1_dynamic_config.html#a28023c0fba9ebd5660ff28f9a81d9742" target="_top" xlink:title=" ">
<polygon fill="white" stroke="#666666" points="284,-24.88 150.25,-24.88 150.25,-5.62 284,-5.62 284,-24.88"/>
<text text-anchor="middle" x="217.12" y="-11.38" font-family="Helvetica,sans-Serif" font-size="10.00">Slic3r::DynamicConfig::opt</text>
</a>
</g>
</g>
<!-- Node1&#45;&gt;Node6 -->
<g id="edge5_Node000001_Node000006" class="edge">
<title>Node1&#45;&gt;Node6</title>
<g id="a_edge5_Node000001_Node000006"><a xlink:title=" ">
<path fill="none" stroke="#63b8ff" d="M94.52,-54.51C111.32,-47.53 131.63,-39.51 150.25,-33.25 155.32,-31.55 160.64,-29.88 165.98,-28.3"/>
<polygon fill="#63b8ff" stroke="#63b8ff" points="166.55,-31.49 175.19,-25.37 164.61,-24.77 166.55,-31.49"/>
</a>
</g>
</g>
<!-- Node3 -->
<g id="Node000003" class="node">
<title>Node3</title>
<g id="a_Node000003"><a xlink:href="../../d1/dce/class_slic3r_1_1_config_option_def.html#a00b7f10eb41d7299c5e2bbf595b84e45" target="_top" xlink:title=" ">
<polygon fill="white" stroke="#666666" points="439.5,-147.5 320,-147.5 320,-117 439.5,-117 439.5,-147.5"/>
<text text-anchor="start" x="328" y="-134" font-family="Helvetica,sans-Serif" font-size="10.00">Slic3r::ConfigOptionDef</text>
<text text-anchor="middle" x="379.75" y="-122.75" font-family="Helvetica,sans-Serif" font-size="10.00">::create_empty_option</text>
</a>
</g>
</g>
<!-- Node2&#45;&gt;Node3 -->
<g id="edge2_Node000002_Node000003" class="edge">
<title>Node2&#45;&gt;Node3</title>
<g id="a_edge2_Node000002_Node000003"><a xlink:title=" ">
<path fill="none" stroke="#63b8ff" d="M277.02,-132.25C287.32,-132.25 298.13,-132.25 308.7,-132.25"/>
<polygon fill="#63b8ff" stroke="#63b8ff" points="308.59,-135.75 318.59,-132.25 308.59,-128.75 308.59,-135.75"/>
</a>
</g>
</g>
<!-- Node7 -->
<g id="Node000007" class="node">
<title>Node7</title>
<g id="a_Node000007"><a xlink:href="../../d9/d06/class_slic3r_1_1_config_base.html#a423121494459dae7858bc9d665f8cb4f" target="_top" xlink:title=" ">
<polygon fill="white" stroke="#666666" points="428.62,-30.5 330.88,-30.5 330.88,0 428.62,0 428.62,-30.5"/>
<text text-anchor="start" x="338.88" y="-17" font-family="Helvetica,sans-Serif" font-size="10.00">Slic3r::ConfigBase</text>
<text text-anchor="middle" x="379.75" y="-5.75" font-family="Helvetica,sans-Serif" font-size="10.00">::option</text>
</a>
</g>
</g>
<!-- Node6&#45;&gt;Node7 -->
<g id="edge6_Node000006_Node000007" class="edge">
<title>Node6&#45;&gt;Node7</title>
<g id="a_edge6_Node000006_Node000007"><a xlink:title=" ">
<path fill="none" stroke="#63b8ff" d="M284.38,-15.25C296.17,-15.25 308.38,-15.25 319.94,-15.25"/>
<polygon fill="#63b8ff" stroke="#63b8ff" points="319.8,-18.75 329.8,-15.25 319.8,-11.75 319.8,-18.75"/>
</a>
</g>
</g>
<!-- Node8 -->
<g id="Node000008" class="node">
<title>Node8</title>
<g id="a_Node000008"><a xlink:href="../../d9/d06/class_slic3r_1_1_config_base.html#a699680b37bd3c116736fd1a2ec831728" target="_top" xlink:title=" ">
<polygon fill="white" stroke="#666666" points="573.25,-30.5 475.5,-30.5 475.5,0 573.25,0 573.25,-30.5"/>
<text text-anchor="start" x="483.5" y="-17" font-family="Helvetica,sans-Serif" font-size="10.00">Slic3r::ConfigBase</text>
<text text-anchor="middle" x="524.38" y="-5.75" font-family="Helvetica,sans-Serif" font-size="10.00">::optptr</text>
</a>
</g>
</g>
<!-- Node7&#45;&gt;Node8 -->
<g id="edge7_Node000007_Node000008" class="edge">
<title>Node7&#45;&gt;Node8</title>
<g id="a_edge7_Node000007_Node000008"><a xlink:title=" ">
<path fill="none" stroke="#63b8ff" d="M429.04,-15.25C440.42,-15.25 452.68,-15.25 464.48,-15.25"/>
<polygon fill="#63b8ff" stroke="#63b8ff" points="464.14,-18.75 474.14,-15.25 464.14,-11.75 464.14,-18.75"/>
</a>
</g>
</g>
</g>
</svg>

<g id="navigator" transform="translate(0 0)" fill="#404254">
  <rect fill="#f2f5e9" fill-opacity="0.5" stroke="#606060" stroke-width=".5" x="0" y="0" width="60" height="60"/>
  <use id="zoomplus" xlink:href="#zoomPlus" x="17" y="9" onmousedown="handleZoom(evt,'in')"/>
  <use id="zoomminus" xlink:href="#zoomMin" x="42" y="9" onmousedown="handleZoom(evt,'out')"/>
  <use id="reset" xlink:href="#resetDef" x="30" y="36" onmousedown="handleReset()"/>
   <use id="arrowup" xlink:href="#arrowUp" x="0" y="0" onmousedown="handlePan(0,-1)"/>
  <use id="arrowright" xlink:href="#arrowRight" x="0" y="0" onmousedown="handlePan(1,0)"/>
  <use id="arrowdown" xlink:href="#arrowDown" x="0" y="0" onmousedown="handlePan(0,1)"/>
  <use id="arrowleft" xlink:href="#arrowLeft" x="0" y="0" onmousedown="handlePan(-1,0)"/>
</g>
<svg viewBox="0 0 15 15" width="100%" height="30px" preserveAspectRatio="xMaxYMin meet">
 <g id="arrow_out" transform="scale(0.3 0.3)">
  <a xlink:href="class_slic3r_1_1_dynamic_config_ac54856f8fe93e4036d66a50be17fdbe1_cgraph_org.svg" target="_base">
   <rect id="button" ry="5" rx="5" y="6" x="6" height="38" width="38"
        fill="#f2f5e9" fill-opacity="0.5" stroke="#606060" stroke-width="1.0"/>
   <path id="arrow"
     d="M 11.500037,31.436501 C 11.940474,20.09759 22.043105,11.32322 32.158766,21.979434 L 37.068811,17.246167 C 37.068811,17.246167 37.088388,32 37.088388,32 L 22.160133,31.978069 C 22.160133,31.978069 26.997745,27.140456 26.997745,27.140456 C 18.528582,18.264221 13.291696,25.230495 11.500037,31.436501 z"
     style="fill:#404040;"/>
  </a>
 </g>
</svg>

<style type='text/css'>
<![CDATA[
[data-mouse-over-selected='false'] { opacity: 0.7; }
[data-mouse-over-selected='true']  { opacity: 1.0; }
]]>
</style>
<script type="application/ecmascript"><![CDATA[
document.addEventListener('DOMContentLoaded', (event) => {
  highlightEdges();
  highlightAdjacentNodes();
});
]]></script>
</svg>
