<?xml version="1.0" encoding="UTF-8" standalone="no"?>
<!DOCTYPE svg PUBLIC "-//W3C//DTD SVG 1.1//EN"
 "http://www.w3.org/Graphics/SVG/1.1/DTD/svg11.dtd">
<!-- Generated by graphviz version 8.1.0 (20230707.0739)
 -->
<!-- Title: Slic3r::GUI::ExtrusionCalibration::on_click_cancel Pages: 1 -->
<!--zoomable 212 -->

<svg id="main" version="1.1" xmlns="http://www.w3.org/2000/svg" xmlns:xlink="http://www.w3.org/1999/xlink" xml:space="preserve" onload="init(evt)">
<style type="text/css"><![CDATA[
.node, .edge {opacity: 0.7;}
.node.selected, .edge.selected {opacity: 1;}
.edge:hover path { stroke: red; }
.edge:hover polygon { stroke: red; fill: red; }
]]></style>

<defs>
  <circle id="rim" cx="0" cy="0" r="7"/>
  <circle id="rim2" cx="0" cy="0" r="3.5"/>
  <g id="zoomPlus">
    <use xlink:href="#rim" fill="#404040"><set attributeName="fill" to="#808080" begin="zoomplus.mouseover" end="zoomplus.mouseout"/></use>
    <path d="M-4,0h8M0,-4v8" fill="none" stroke="white" stroke-width="1.5" pointer-events="none"/>
  </g>
  <g id="zoomMin">
    <use xlink:href="#rim" fill="#404040"><set attributeName="fill" to="#808080" begin="zoomminus.mouseover" end="zoomminus.mouseout"/></use>
    <path d="M-4,0h8" fill="none" stroke="white" stroke-width="1.5" pointer-events="none"/>
  </g>
  <g id="arrowUp" transform="translate(30 24)">
    <use xlink:href="#rim"/>
    <path pointer-events="none" fill="none" stroke="white" stroke-width="1.5" d="M0,-3.0v7 M-2.5,-0.5L0,-3.0L2.5,-0.5"/>
  </g>
  <g id="arrowRight" transform="rotate(90) translate(36 -43)">
    <use xlink:href="#rim"/>
    <path pointer-events="none" fill="none" stroke="white" stroke-width="1.5" d="M0,-3.0v7 M-2.5,-0.5L0,-3.0L2.5,-0.5"/>
  </g>
  <g id="arrowDown" transform="rotate(180) translate(-30 -48)">
    <use xlink:href="#rim"/>
    <path pointer-events="none" fill="none" stroke="white" stroke-width="1.5" d="M0,-3.0v7 M-2.5,-0.5L0,-3.0L2.5,-0.5"/>
  </g>
  <g id="arrowLeft" transform="rotate(270) translate(-36 17)">
    <use xlink:href="#rim"/>
    <path pointer-events="none" fill="none" stroke="white" stroke-width="1.5" d="M0,-3.0v7 M-2.5,-0.5L0,-3.0L2.5,-0.5"/>
  </g>
  <g id="resetDef">
    <use xlink:href="#rim2" fill="#404040"><set attributeName="fill" to="#808080" begin="reset.mouseover" end="reset.mouseout"/></use>
  </g>
</defs>
<script type="application/ecmascript">
var viewWidth = 974;
var viewHeight = 212;
var sectionId = 'dynsection-19';
</script>
<script type="application/ecmascript" xlink:href="../../svg.min.js"/>
<svg id="graph" class="graph">
<g id="viewport">
<title>Slic3r::GUI::ExtrusionCalibration::on_click_cancel</title>
<!-- Node1 -->
<g id="Node000001" class="node">
<title>Node1</title>
<g id="a_Node000001"><a xlink:title=" ">
<polygon fill="#999999" stroke="#666666" points="158.5,-97.5 0,-97.5 0,-67 158.5,-67 158.5,-97.5"/>
<text text-anchor="start" x="8" y="-84" font-family="Helvetica,sans-Serif" font-size="10.00">Slic3r::GUI::ExtrusionCalibration</text>
<text text-anchor="middle" x="79.25" y="-72.75" font-family="Helvetica,sans-Serif" font-size="10.00">::on_click_cancel</text>
</a>
</g>
</g>
<!-- Node2 -->
<g id="Node000002" class="node">
<title>Node2</title>
<g id="a_Node000002"><a xlink:href="../../dc/d24/class_slic3r_1_1_machine_object.html#a042ccae18305d6837fccbc5adcaf25a3" target="_top" xlink:title=" ">
<polygon fill="white" stroke="#666666" points="348.5,-97.5 194.5,-97.5 194.5,-67 348.5,-67 348.5,-97.5"/>
<text text-anchor="start" x="202.5" y="-84" font-family="Helvetica,sans-Serif" font-size="10.00">Slic3r::MachineObject</text>
<text text-anchor="middle" x="271.5" y="-72.75" font-family="Helvetica,sans-Serif" font-size="10.00">::command_stop_extrusion_cali</text>
</a>
</g>
</g>
<!-- Node1&#45;&gt;Node2 -->
<g id="edge1_Node000001_Node000002" class="edge">
<title>Node1&#45;&gt;Node2</title>
<g id="a_edge1_Node000001_Node000002"><a xlink:title=" ">
<path fill="none" stroke="#63b8ff" d="M158.73,-82.25C166.75,-82.25 174.94,-82.25 183.05,-82.25"/>
<polygon fill="#63b8ff" stroke="#63b8ff" points="183.04,-85.75 193.04,-82.25 183.04,-78.75 183.04,-85.75"/>
</a>
</g>
</g>
<!-- Node3 -->
<g id="Node000003" class="node">
<title>Node3</title>
<g id="a_Node000003"><a xlink:href="../../dc/d24/class_slic3r_1_1_machine_object.html#a85fcc354e58522ef1ce14de9484e5e88" target="_top" xlink:title=" ">
<polygon fill="white" stroke="#666666" points="500.25,-143.5 384.5,-143.5 384.5,-113 500.25,-113 500.25,-143.5"/>
<text text-anchor="start" x="392.5" y="-130" font-family="Helvetica,sans-Serif" font-size="10.00">Slic3r::MachineObject</text>
<text text-anchor="middle" x="442.38" y="-118.75" font-family="Helvetica,sans-Serif" font-size="10.00">::command_task_abort</text>
</a>
</g>
</g>
<!-- Node2&#45;&gt;Node3 -->
<g id="edge2_Node000002_Node000003" class="edge">
<title>Node2&#45;&gt;Node3</title>
<g id="a_edge2_Node000002_Node000003"><a xlink:title=" ">
<path fill="none" stroke="#63b8ff" d="M330.14,-97.95C344.22,-101.78 359.39,-105.92 373.88,-109.86"/>
<polygon fill="#63b8ff" stroke="#63b8ff" points="372.71,-113.45 383.28,-112.7 374.55,-106.69 372.71,-113.45"/>
</a>
</g>
</g>
<!-- Node11 -->
<g id="Node000011" class="node">
<title>Node11</title>
<g id="a_Node000011"><a xlink:href="../../dc/d24/class_slic3r_1_1_machine_object.html#a8dbc0a244dad1e4943f57a9fc39d4c75" target="_top" xlink:title=" ">
<polygon fill="white" stroke="#666666" points="498.38,-73.5 386.38,-73.5 386.38,-43 498.38,-43 498.38,-73.5"/>
<text text-anchor="start" x="394.38" y="-60" font-family="Helvetica,sans-Serif" font-size="10.00">Slic3r::MachineObject</text>
<text text-anchor="middle" x="442.38" y="-48.75" font-family="Helvetica,sans-Serif" font-size="10.00">::is_in_extrusion_cali</text>
</a>
</g>
</g>
<!-- Node2&#45;&gt;Node11 -->
<g id="edge10_Node000002_Node000011" class="edge">
<title>Node2&#45;&gt;Node11</title>
<g id="a_edge10_Node000002_Node000011"><a xlink:title=" ">
<path fill="none" stroke="#63b8ff" d="M348.54,-71.44C357.4,-70.18 366.39,-68.91 375.11,-67.67"/>
<polygon fill="#63b8ff" stroke="#63b8ff" points="375.57,-71 384.98,-66.12 374.58,-64.06 375.57,-71"/>
</a>
</g>
</g>
<!-- Node4 -->
<g id="Node000004" class="node">
<title>Node4</title>
<g id="a_Node000004"><a xlink:href="../../d9/dcc/classnlohmann_1_1basic__json.html#a476756fb08e7f2416aad116d137977f4" target="_top" xlink:title="serialization">
<polygon fill="white" stroke="#666666" points="647.5,-192.5 537,-192.5 537,-162 647.5,-162 647.5,-192.5"/>
<text text-anchor="start" x="545" y="-179" font-family="Helvetica,sans-Serif" font-size="10.00">nlohmann::basic_json</text>
<text text-anchor="middle" x="592.25" y="-167.75" font-family="Helvetica,sans-Serif" font-size="10.00">::dump</text>
</a>
</g>
</g>
<!-- Node3&#45;&gt;Node4 -->
<g id="edge3_Node000003_Node000004" class="edge">
<title>Node3&#45;&gt;Node4</title>
<g id="a_edge3_Node000003_Node000004"><a xlink:title=" ">
<path fill="none" stroke="#63b8ff" d="M490.57,-143.89C504.24,-148.42 519.32,-153.42 533.56,-158.13"/>
<polygon fill="#63b8ff" stroke="#63b8ff" points="532.15,-161.68 542.74,-161.51 534.35,-155.04 532.15,-161.68"/>
</a>
</g>
</g>
<!-- Node5 -->
<g id="Node000005" class="node">
<title>Node5</title>
<g id="a_Node000005"><a xlink:href="../../dc/d24/class_slic3r_1_1_machine_object.html#ade0d002135681d1324249eda765ddac3" target="_top" xlink:title=" ">
<polygon fill="white" stroke="#666666" points="648.25,-143.5 536.25,-143.5 536.25,-113 648.25,-113 648.25,-143.5"/>
<text text-anchor="start" x="544.25" y="-130" font-family="Helvetica,sans-Serif" font-size="10.00">Slic3r::MachineObject</text>
<text text-anchor="middle" x="592.25" y="-118.75" font-family="Helvetica,sans-Serif" font-size="10.00">::publish_json</text>
</a>
</g>
</g>
<!-- Node3&#45;&gt;Node5 -->
<g id="edge4_Node000003_Node000005" class="edge">
<title>Node3&#45;&gt;Node5</title>
<g id="a_edge4_Node000003_Node000005"><a xlink:title=" ">
<path fill="none" stroke="#63b8ff" d="M500.55,-128.25C508.68,-128.25 517.11,-128.25 525.39,-128.25"/>
<polygon fill="#63b8ff" stroke="#63b8ff" points="525.17,-131.75 535.17,-128.25 525.17,-124.75 525.17,-131.75"/>
</a>
</g>
</g>
<!-- Node6 -->
<g id="Node000006" class="node">
<title>Node6</title>
<g id="a_Node000006"><a xlink:href="../../dc/d24/class_slic3r_1_1_machine_object.html#ae1afb548f6934d4fba8f6840c9bd485b" target="_top" xlink:title=" ">
<polygon fill="white" stroke="#666666" points="796.25,-203.5 684.25,-203.5 684.25,-173 796.25,-173 796.25,-203.5"/>
<text text-anchor="start" x="692.25" y="-190" font-family="Helvetica,sans-Serif" font-size="10.00">Slic3r::MachineObject</text>
<text text-anchor="middle" x="740.25" y="-178.75" font-family="Helvetica,sans-Serif" font-size="10.00">::cloud_publish_json</text>
</a>
</g>
</g>
<!-- Node5&#45;&gt;Node6 -->
<g id="edge5_Node000005_Node000006" class="edge">
<title>Node5&#45;&gt;Node6</title>
<g id="a_edge5_Node000005_Node000006"><a xlink:title=" ">
<path fill="none" stroke="#63b8ff" d="M631.23,-143.86C649.42,-151.33 671.41,-160.37 690.79,-168.34"/>
<polygon fill="#63b8ff" stroke="#63b8ff" points="689.37,-171.95 699.95,-172.51 692.04,-165.47 689.37,-171.95"/>
</a>
</g>
</g>
<!-- Node8 -->
<g id="Node000008" class="node">
<title>Node8</title>
<g id="a_Node000008"><a xlink:href="../../dc/d24/class_slic3r_1_1_machine_object.html#aba1eee500ff3251d244a2cbec8e93fae" target="_top" xlink:title=" ">
<polygon fill="white" stroke="#666666" points="796.25,-154.5 684.25,-154.5 684.25,-124 796.25,-124 796.25,-154.5"/>
<text text-anchor="start" x="692.25" y="-141" font-family="Helvetica,sans-Serif" font-size="10.00">Slic3r::MachineObject</text>
<text text-anchor="middle" x="740.25" y="-129.75" font-family="Helvetica,sans-Serif" font-size="10.00">::is_lan_mode_printer</text>
</a>
</g>
</g>
<!-- Node5&#45;&gt;Node8 -->
<g id="edge7_Node000005_Node000008" class="edge">
<title>Node5&#45;&gt;Node8</title>
<g id="a_edge7_Node000005_Node000008"><a xlink:title=" ">
<path fill="none" stroke="#63b8ff" d="M648.45,-132.41C656.53,-133.02 664.93,-133.65 673.2,-134.27"/>
<polygon fill="#63b8ff" stroke="#63b8ff" points="672.74,-137.82 682.98,-135.09 673.27,-130.84 672.74,-137.82"/>
</a>
</g>
</g>
<!-- Node9 -->
<g id="Node000009" class="node">
<title>Node9</title>
<g id="a_Node000009"><a xlink:href="../../dc/d24/class_slic3r_1_1_machine_object.html#a097b9f2ab8ef7b440a536f56bdafcdcb" target="_top" xlink:title=" ">
<polygon fill="white" stroke="#666666" points="796.25,-105.5 684.25,-105.5 684.25,-75 796.25,-75 796.25,-105.5"/>
<text text-anchor="start" x="692.25" y="-92" font-family="Helvetica,sans-Serif" font-size="10.00">Slic3r::MachineObject</text>
<text text-anchor="middle" x="740.25" y="-80.75" font-family="Helvetica,sans-Serif" font-size="10.00">::local_publish_json</text>
</a>
</g>
</g>
<!-- Node5&#45;&gt;Node9 -->
<g id="edge8_Node000005_Node000009" class="edge">
<title>Node5&#45;&gt;Node9</title>
<g id="a_edge8_Node000005_Node000009"><a xlink:title=" ">
<path fill="none" stroke="#63b8ff" d="M648.45,-113.88C656.62,-111.76 665.12,-109.55 673.48,-107.37"/>
<polygon fill="#63b8ff" stroke="#63b8ff" points="674.18,-110.54 682.98,-104.64 672.42,-103.77 674.18,-110.54"/>
</a>
</g>
</g>
<!-- Node7 -->
<g id="Node000007" class="node">
<title>Node7</title>
<g id="a_Node000007"><a xlink:href="../../d7/daf/class_slic3r_1_1_network_agent.html#a55a0161b96c9ea5d6f82dbd027fbf117" target="_top" xlink:title=" ">
<polygon fill="white" stroke="#666666" points="953.62,-203.5 844.62,-203.5 844.62,-173 953.62,-173 953.62,-203.5"/>
<text text-anchor="start" x="852.62" y="-190" font-family="Helvetica,sans-Serif" font-size="10.00">Slic3r::NetworkAgent</text>
<text text-anchor="middle" x="899.12" y="-178.75" font-family="Helvetica,sans-Serif" font-size="10.00">::send_message</text>
</a>
</g>
</g>
<!-- Node6&#45;&gt;Node7 -->
<g id="edge6_Node000006_Node000007" class="edge">
<title>Node6&#45;&gt;Node7</title>
<g id="a_edge6_Node000006_Node000007"><a xlink:title=" ">
<path fill="none" stroke="#63b8ff" d="M796.56,-188.25C808.57,-188.25 821.37,-188.25 833.69,-188.25"/>
<polygon fill="#63b8ff" stroke="#63b8ff" points="833.37,-191.75 843.37,-188.25 833.37,-184.75 833.37,-191.75"/>
</a>
</g>
</g>
<!-- Node10 -->
<g id="Node000010" class="node">
<title>Node10</title>
<g id="a_Node000010"><a xlink:href="../../d7/daf/class_slic3r_1_1_network_agent.html#aabd2d34e09722a876409e5ac43e2ff5c" target="_top" xlink:title=" ">
<polygon fill="white" stroke="#666666" points="966,-105.5 832.25,-105.5 832.25,-75 966,-75 966,-105.5"/>
<text text-anchor="start" x="840.25" y="-92" font-family="Helvetica,sans-Serif" font-size="10.00">Slic3r::NetworkAgent</text>
<text text-anchor="middle" x="899.12" y="-80.75" font-family="Helvetica,sans-Serif" font-size="10.00">::send_message_to_printer</text>
</a>
</g>
</g>
<!-- Node9&#45;&gt;Node10 -->
<g id="edge9_Node000009_Node000010" class="edge">
<title>Node9&#45;&gt;Node10</title>
<g id="a_edge9_Node000009_Node000010"><a xlink:title=" ">
<path fill="none" stroke="#63b8ff" d="M796.56,-90.25C804.47,-90.25 812.73,-90.25 820.97,-90.25"/>
<polygon fill="#63b8ff" stroke="#63b8ff" points="820.75,-93.75 830.75,-90.25 820.75,-86.75 820.75,-93.75"/>
</a>
</g>
</g>
<!-- Node12 -->
<g id="Node000012" class="node">
<title>Node12</title>
<g id="a_Node000012"><a xlink:href="../../de/db8/namespace_slic3r.html#aed0434d42d75979bb4d469ff41de7158" target="_top" xlink:title=" ">
<polygon fill="white" stroke="#666666" points="622.38,-67.88 562.12,-67.88 562.12,-48.62 622.38,-48.62 622.38,-67.88"/>
<text text-anchor="middle" x="592.25" y="-54.38" font-family="Helvetica,sans-Serif" font-size="10.00">Slic3r::diff</text>
</a>
</g>
</g>
<!-- Node11&#45;&gt;Node12 -->
<g id="edge11_Node000011_Node000012" class="edge">
<title>Node11&#45;&gt;Node12</title>
<g id="a_edge11_Node000011_Node000012"><a xlink:title=" ">
<path fill="none" stroke="#63b8ff" d="M498.86,-58.25C516.3,-58.25 535.21,-58.25 551.36,-58.25"/>
<polygon fill="#63b8ff" stroke="#63b8ff" points="551.04,-61.75 561.04,-58.25 551.04,-54.75 551.04,-61.75"/>
</a>
</g>
</g>
<!-- Node15 -->
<g id="Node000015" class="node">
<title>Node15</title>
<g id="a_Node000015"><a xlink:href="../../dc/d24/class_slic3r_1_1_machine_object.html#add988018c5a52a04d75fd8632ea9a398" target="_top" xlink:title=" ">
<polygon fill="white" stroke="#666666" points="648.25,-30.5 536.25,-30.5 536.25,0 648.25,0 648.25,-30.5"/>
<text text-anchor="start" x="544.25" y="-17" font-family="Helvetica,sans-Serif" font-size="10.00">Slic3r::MachineObject</text>
<text text-anchor="middle" x="592.25" y="-5.75" font-family="Helvetica,sans-Serif" font-size="10.00">::is_in_printing_status</text>
</a>
</g>
</g>
<!-- Node11&#45;&gt;Node15 -->
<g id="edge14_Node000011_Node000015" class="edge">
<title>Node11&#45;&gt;Node15</title>
<g id="a_edge14_Node000011_Node000015"><a xlink:title=" ">
<path fill="none" stroke="#63b8ff" d="M497.18,-42.6C506.76,-39.82 516.83,-36.89 526.68,-34.03"/>
<polygon fill="#63b8ff" stroke="#63b8ff" points="527.61,-37.11 536.24,-30.96 525.66,-30.39 527.61,-37.11"/>
</a>
</g>
</g>
<!-- Node13 -->
<g id="Node000013" class="node">
<title>Node13</title>
<g id="a_Node000013"><a xlink:href="../../de/db8/namespace_slic3r.html#a440bb1d57671f454ad4fab4f192430cf" target="_top" xlink:title=" ">
<polygon fill="white" stroke="#666666" points="780.5,-56.88 700,-56.88 700,-37.62 780.5,-37.62 780.5,-56.88"/>
<text text-anchor="middle" x="740.25" y="-43.38" font-family="Helvetica,sans-Serif" font-size="10.00">Slic3r::_clipper</text>
</a>
</g>
</g>
<!-- Node12&#45;&gt;Node13 -->
<g id="edge12_Node000012_Node000013" class="edge">
<title>Node12&#45;&gt;Node13</title>
<g id="a_edge12_Node000012_Node000013"><a xlink:title=" ">
<path fill="none" stroke="#63b8ff" d="M622.8,-56.02C641.68,-54.6 666.68,-52.72 688.67,-51.06"/>
<polygon fill="#63b8ff" stroke="#63b8ff" points="688.8,-54.49 698.51,-50.24 688.27,-47.51 688.8,-54.49"/>
</a>
</g>
</g>
<!-- Node14 -->
<g id="Node000014" class="node">
<title>Node14</title>
<g id="a_Node000014"><a xlink:href="../../de/db8/namespace_slic3r.html#a843ba2fe16b213f550fb3d55c55a716e" target="_top" xlink:title=" ">
<polygon fill="white" stroke="#666666" points="948.75,-56.88 849.5,-56.88 849.5,-37.62 948.75,-37.62 948.75,-56.88"/>
<text text-anchor="middle" x="899.12" y="-43.38" font-family="Helvetica,sans-Serif" font-size="10.00">Slic3r::to_polygons</text>
</a>
</g>
</g>
<!-- Node13&#45;&gt;Node14 -->
<g id="edge13_Node000013_Node000014" class="edge">
<title>Node13&#45;&gt;Node14</title>
<g id="a_edge13_Node000013_Node000014"><a xlink:title=" ">
<path fill="none" stroke="#63b8ff" d="M780.84,-47.25C798.29,-47.25 819.18,-47.25 838.47,-47.25"/>
<polygon fill="#63b8ff" stroke="#63b8ff" points="838.29,-50.75 848.29,-47.25 838.29,-43.75 838.29,-50.75"/>
</a>
</g>
</g>
</g>
</svg>

<g id="navigator" transform="translate(0 0)" fill="#404254">
  <rect fill="#f2f5e9" fill-opacity="0.5" stroke="#606060" stroke-width=".5" x="0" y="0" width="60" height="60"/>
  <use id="zoomplus" xlink:href="#zoomPlus" x="17" y="9" onmousedown="handleZoom(evt,'in')"/>
  <use id="zoomminus" xlink:href="#zoomMin" x="42" y="9" onmousedown="handleZoom(evt,'out')"/>
  <use id="reset" xlink:href="#resetDef" x="30" y="36" onmousedown="handleReset()"/>
   <use id="arrowup" xlink:href="#arrowUp" x="0" y="0" onmousedown="handlePan(0,-1)"/>
  <use id="arrowright" xlink:href="#arrowRight" x="0" y="0" onmousedown="handlePan(1,0)"/>
  <use id="arrowdown" xlink:href="#arrowDown" x="0" y="0" onmousedown="handlePan(0,1)"/>
  <use id="arrowleft" xlink:href="#arrowLeft" x="0" y="0" onmousedown="handlePan(-1,0)"/>
</g>
<svg viewBox="0 0 15 15" width="100%" height="30px" preserveAspectRatio="xMaxYMin meet">
 <g id="arrow_out" transform="scale(0.3 0.3)">
  <a xlink:href="class_slic3r_1_1_g_u_i_1_1_extrusion_calibration_a88ed31cc9b51abae1dcad61a9bb74a51_cgraph_org.svg" target="_base">
   <rect id="button" ry="5" rx="5" y="6" x="6" height="38" width="38"
        fill="#f2f5e9" fill-opacity="0.5" stroke="#606060" stroke-width="1.0"/>
   <path id="arrow"
     d="M 11.500037,31.436501 C 11.940474,20.09759 22.043105,11.32322 32.158766,21.979434 L 37.068811,17.246167 C 37.068811,17.246167 37.088388,32 37.088388,32 L 22.160133,31.978069 C 22.160133,31.978069 26.997745,27.140456 26.997745,27.140456 C 18.528582,18.264221 13.291696,25.230495 11.500037,31.436501 z"
     style="fill:#404040;"/>
  </a>
 </g>
</svg>

<style type='text/css'>
<![CDATA[
[data-mouse-over-selected='false'] { opacity: 0.7; }
[data-mouse-over-selected='true']  { opacity: 1.0; }
]]>
</style>
<script type="application/ecmascript"><![CDATA[
document.addEventListener('DOMContentLoaded', (event) => {
  highlightEdges();
  highlightAdjacentNodes();
});
]]></script>
</svg>
