<?xml version="1.0" encoding="UTF-8" standalone="no"?>
<!DOCTYPE svg PUBLIC "-//W3C//DTD SVG 1.1//EN"
 "http://www.w3.org/Graphics/SVG/1.1/DTD/svg11.dtd">
<!-- Generated by graphviz version 8.1.0 (20230707.0739)
 -->
<!-- Title: Slic3r::GUI::ExtrusionCalibration::Popup Pages: 1 -->
<!--zoomable 605 -->

<svg id="main" version="1.1" xmlns="http://www.w3.org/2000/svg" xmlns:xlink="http://www.w3.org/1999/xlink" xml:space="preserve" onload="init(evt)">
<style type="text/css"><![CDATA[
.node, .edge {opacity: 0.7;}
.node.selected, .edge.selected {opacity: 1;}
.edge:hover path { stroke: red; }
.edge:hover polygon { stroke: red; fill: red; }
]]></style>

<defs>
  <circle id="rim" cx="0" cy="0" r="7"/>
  <circle id="rim2" cx="0" cy="0" r="3.5"/>
  <g id="zoomPlus">
    <use xlink:href="#rim" fill="#404040"><set attributeName="fill" to="#808080" begin="zoomplus.mouseover" end="zoomplus.mouseout"/></use>
    <path d="M-4,0h8M0,-4v8" fill="none" stroke="white" stroke-width="1.5" pointer-events="none"/>
  </g>
  <g id="zoomMin">
    <use xlink:href="#rim" fill="#404040"><set attributeName="fill" to="#808080" begin="zoomminus.mouseover" end="zoomminus.mouseout"/></use>
    <path d="M-4,0h8" fill="none" stroke="white" stroke-width="1.5" pointer-events="none"/>
  </g>
  <g id="arrowUp" transform="translate(30 24)">
    <use xlink:href="#rim"/>
    <path pointer-events="none" fill="none" stroke="white" stroke-width="1.5" d="M0,-3.0v7 M-2.5,-0.5L0,-3.0L2.5,-0.5"/>
  </g>
  <g id="arrowRight" transform="rotate(90) translate(36 -43)">
    <use xlink:href="#rim"/>
    <path pointer-events="none" fill="none" stroke="white" stroke-width="1.5" d="M0,-3.0v7 M-2.5,-0.5L0,-3.0L2.5,-0.5"/>
  </g>
  <g id="arrowDown" transform="rotate(180) translate(-30 -48)">
    <use xlink:href="#rim"/>
    <path pointer-events="none" fill="none" stroke="white" stroke-width="1.5" d="M0,-3.0v7 M-2.5,-0.5L0,-3.0L2.5,-0.5"/>
  </g>
  <g id="arrowLeft" transform="rotate(270) translate(-36 17)">
    <use xlink:href="#rim"/>
    <path pointer-events="none" fill="none" stroke="white" stroke-width="1.5" d="M0,-3.0v7 M-2.5,-0.5L0,-3.0L2.5,-0.5"/>
  </g>
  <g id="resetDef">
    <use xlink:href="#rim2" fill="#404040"><set attributeName="fill" to="#808080" begin="reset.mouseover" end="reset.mouseout"/></use>
  </g>
</defs>
<script type="application/ecmascript">
var viewWidth = 1219;
var viewHeight = 605;
var sectionId = 'dynsection-37';
</script>
<script type="application/ecmascript" xlink:href="../../svg.min.js"/>
<svg id="graph" class="graph">
<g id="viewport">
<title>Slic3r::GUI::ExtrusionCalibration::Popup</title>
<!-- Node1 -->
<g id="Node000001" class="node">
<title>Node1</title>
<g id="a_Node000001"><a xlink:title=" ">
<polygon fill="#999999" stroke="#666666" points="158.5,-306.88 0,-306.88 0,-276.38 158.5,-276.38 158.5,-306.88"/>
<text text-anchor="start" x="8" y="-293.38" font-family="Helvetica,sans-Serif" font-size="10.00">Slic3r::GUI::ExtrusionCalibration</text>
<text text-anchor="middle" x="79.25" y="-282.12" font-family="Helvetica,sans-Serif" font-size="10.00">::Popup</text>
</a>
</g>
</g>
<!-- Node2 -->
<g id="Node000002" class="node">
<title>Node2</title>
<g id="a_Node000002"><a xlink:href="../../d9/d9d/class_slic3r_1_1_g_u_i_1_1_extrusion_calibration.html#a621d0bf2c4acb2edd5826da18b3e2aa0" target="_top" xlink:title=" ">
<polygon fill="white" stroke="#666666" points="353,-377.88 194.5,-377.88 194.5,-347.38 353,-347.38 353,-377.88"/>
<text text-anchor="start" x="202.5" y="-364.38" font-family="Helvetica,sans-Serif" font-size="10.00">Slic3r::GUI::ExtrusionCalibration</text>
<text text-anchor="middle" x="273.75" y="-353.12" font-family="Helvetica,sans-Serif" font-size="10.00">::set_step</text>
</a>
</g>
</g>
<!-- Node1&#45;&gt;Node2 -->
<g id="edge1_Node000001_Node000002" class="edge">
<title>Node1&#45;&gt;Node2</title>
<g id="a_edge1_Node000001_Node000002"><a xlink:title=" ">
<path fill="none" stroke="#63b8ff" d="M117.29,-307.34C139.52,-316.57 168.45,-328.23 194.5,-337.62 199.95,-339.59 205.64,-341.56 211.36,-343.49"/>
<polygon fill="#63b8ff" stroke="#63b8ff" points="210.04,-347.07 220.64,-346.89 212.24,-340.42 210.04,-347.07"/>
</a>
</g>
</g>
<!-- Node3 -->
<g id="Node000003" class="node">
<title>Node3</title>
<g id="a_Node000003"><a xlink:href="../../d7/d9a/class_slic3r_1_1_g_u_i_1_1_d_p_i_aware.html#a80ad44dab63cbb16dd41df84ba9e1be9" target="_top" xlink:title=" ">
<polygon fill="white" stroke="#666666" points="331.62,-328.88 215.88,-328.88 215.88,-298.38 331.62,-298.38 331.62,-328.88"/>
<text text-anchor="start" x="223.88" y="-315.38" font-family="Helvetica,sans-Serif" font-size="10.00">Slic3r::GUI::DPIAware</text>
<text text-anchor="middle" x="273.75" y="-304.12" font-family="Helvetica,sans-Serif" font-size="10.00">::ShowModal</text>
</a>
</g>
</g>
<!-- Node1&#45;&gt;Node3 -->
<g id="edge2_Node000001_Node000003" class="edge">
<title>Node1&#45;&gt;Node3</title>
<g id="a_edge2_Node000001_Node000003"><a xlink:title=" ">
<path fill="none" stroke="#63b8ff" d="M158.82,-300.6C174.13,-302.35 190.06,-304.17 204.98,-305.88"/>
<polygon fill="#63b8ff" stroke="#63b8ff" points="204.32,-309.44 214.65,-307.1 205.11,-302.49 204.32,-309.44"/>
</a>
</g>
</g>
<!-- Node4 -->
<g id="Node000004" class="node">
<title>Node4</title>
<g id="a_Node000004"><a xlink:href="../../d9/d9d/class_slic3r_1_1_g_u_i_1_1_extrusion_calibration.html#aea2b5015c4f7f99fe3cb3ca07cf9e8d4" target="_top" xlink:title=" ">
<polygon fill="white" stroke="#666666" points="353,-165.88 194.5,-165.88 194.5,-135.38 353,-135.38 353,-165.88"/>
<text text-anchor="start" x="202.5" y="-152.38" font-family="Helvetica,sans-Serif" font-size="10.00">Slic3r::GUI::ExtrusionCalibration</text>
<text text-anchor="middle" x="273.75" y="-141.12" font-family="Helvetica,sans-Serif" font-size="10.00">::update</text>
</a>
</g>
</g>
<!-- Node1&#45;&gt;Node4 -->
<g id="edge3_Node000001_Node000004" class="edge">
<title>Node1&#45;&gt;Node4</title>
<g id="a_edge3_Node000001_Node000004"><a xlink:title=" ">
<path fill="none" stroke="#63b8ff" d="M101.59,-276C135.84,-250.91 203.23,-201.55 242.46,-172.81"/>
<polygon fill="#63b8ff" stroke="#63b8ff" points="244.32,-175.06 250.32,-166.32 240.18,-169.41 244.32,-175.06"/>
</a>
</g>
</g>
<!-- Node21 -->
<g id="Node000021" class="node">
<title>Node21</title>
<g id="a_Node000021"><a xlink:href="../../d9/d9d/class_slic3r_1_1_g_u_i_1_1_extrusion_calibration.html#a4e295cdd95ed13dabd2725415ea09d55" target="_top" xlink:title=" ">
<polygon fill="white" stroke="#666666" points="547.5,-363.88 389,-363.88 389,-333.38 547.5,-333.38 547.5,-363.88"/>
<text text-anchor="start" x="397" y="-350.38" font-family="Helvetica,sans-Serif" font-size="10.00">Slic3r::GUI::ExtrusionCalibration</text>
<text text-anchor="middle" x="468.25" y="-339.12" font-family="Helvetica,sans-Serif" font-size="10.00">::update_combobox_filaments</text>
</a>
</g>
</g>
<!-- Node1&#45;&gt;Node21 -->
<g id="edge22_Node000001_Node000021" class="edge">
<title>Node1&#45;&gt;Node21</title>
<g id="a_edge22_Node000001_Node000021"><a xlink:title=" ">
<path fill="none" stroke="#63b8ff" d="M158.71,-281.04C213.86,-276.02 288.92,-274.06 353,-289.62 382.86,-296.88 413.63,-313.39 435.71,-327.1"/>
<polygon fill="#63b8ff" stroke="#63b8ff" points="433.6,-330.54 443.91,-332.97 437.36,-324.64 433.6,-330.54"/>
</a>
</g>
</g>
<!-- Node5 -->
<g id="Node000005" class="node">
<title>Node5</title>
<g id="a_Node000005"><a xlink:href="../../d4/d77/class_button.html#afb1762a29ae58b6398f7e3ef230e42e0" target="_top" xlink:title=" ">
<polygon fill="white" stroke="#666666" points="703,-198.25 622.5,-198.25 622.5,-179 703,-179 703,-198.25"/>
<text text-anchor="middle" x="662.75" y="-184.75" font-family="Helvetica,sans-Serif" font-size="10.00">Button::Enable</text>
</a>
</g>
</g>
<!-- Node4&#45;&gt;Node5 -->
<g id="edge4_Node000004_Node000005" class="edge">
<title>Node4&#45;&gt;Node5</title>
<g id="a_edge4_Node000004_Node000005"><a xlink:title=" ">
<path fill="none" stroke="#63b8ff" d="M340.91,-166.35C356.59,-169.57 373.32,-172.59 389,-174.62 466.2,-184.65 556.57,-187.58 611.46,-188.38"/>
<polygon fill="#63b8ff" stroke="#63b8ff" points="611.24,-191.89 621.28,-188.52 611.33,-184.89 611.24,-191.89"/>
</a>
</g>
</g>
<!-- Node6 -->
<g id="Node000006" class="node">
<title>Node6</title>
<g id="a_Node000006"><a xlink:href="../../d9/d9d/class_slic3r_1_1_g_u_i_1_1_extrusion_calibration.html#a6547986712ac62312100232b0ecd7c9e" target="_top" xlink:title=" ">
<polygon fill="white" stroke="#666666" points="547.5,-251.88 389,-251.88 389,-221.38 547.5,-221.38 547.5,-251.88"/>
<text text-anchor="start" x="397" y="-238.38" font-family="Helvetica,sans-Serif" font-size="10.00">Slic3r::GUI::ExtrusionCalibration</text>
<text text-anchor="middle" x="468.25" y="-227.12" font-family="Helvetica,sans-Serif" font-size="10.00">::get_bed_type_incompatible</text>
</a>
</g>
</g>
<!-- Node4&#45;&gt;Node6 -->
<g id="edge5_Node000004_Node000006" class="edge">
<title>Node4&#45;&gt;Node6</title>
<g id="a_edge5_Node000004_Node000006"><a xlink:title=" ">
<path fill="none" stroke="#63b8ff" d="M303.93,-166.27C326.77,-178.26 359.51,-194.85 389,-207.62 396.39,-210.83 404.27,-214.01 412.07,-217.03"/>
<polygon fill="#63b8ff" stroke="#63b8ff" points="410.64,-220.61 421.23,-220.88 413.12,-214.06 410.64,-220.61"/>
</a>
</g>
</g>
<!-- Node13 -->
<g id="Node000013" class="node">
<title>Node13</title>
<g id="a_Node000013"><a xlink:href="../../d1/d18/class_text_input.html#aec57ff1391b9941275400f121441742e" target="_top" xlink:title=" ">
<polygon fill="white" stroke="#666666" points="524.62,-19.25 411.88,-19.25 411.88,0 524.62,0 524.62,-19.25"/>
<text text-anchor="middle" x="468.25" y="-5.75" font-family="Helvetica,sans-Serif" font-size="10.00">TextInput::GetTextCtrl</text>
</a>
</g>
</g>
<!-- Node4&#45;&gt;Node13 -->
<g id="edge13_Node000004_Node000013" class="edge">
<title>Node4&#45;&gt;Node13</title>
<g id="a_edge13_Node000004_Node000013"><a xlink:title=" ">
<path fill="none" stroke="#63b8ff" d="M284.68,-135.19C302.35,-109.03 341.88,-56.12 389,-28.62 392.87,-26.37 397,-24.37 401.26,-22.62"/>
<polygon fill="#63b8ff" stroke="#63b8ff" points="402.18,-25.65 410.39,-18.94 399.79,-19.07 402.18,-25.65"/>
</a>
</g>
</g>
<!-- Node14 -->
<g id="Node000014" class="node">
<title>Node14</title>
<g id="a_Node000014"><a xlink:href="../../dc/d24/class_slic3r_1_1_machine_object.html#a35b0610654e576eaefa4881009358c24" target="_top" xlink:title=" ">
<polygon fill="white" stroke="#666666" points="535.12,-165.88 401.38,-165.88 401.38,-135.38 535.12,-135.38 535.12,-165.88"/>
<text text-anchor="start" x="409.38" y="-152.38" font-family="Helvetica,sans-Serif" font-size="10.00">Slic3r::MachineObject</text>
<text text-anchor="middle" x="468.25" y="-141.12" font-family="Helvetica,sans-Serif" font-size="10.00">::is_extrusion_cali_finished</text>
</a>
</g>
</g>
<!-- Node4&#45;&gt;Node14 -->
<g id="edge14_Node000004_Node000014" class="edge">
<title>Node4&#45;&gt;Node14</title>
<g id="a_edge14_Node000004_Node000014"><a xlink:title=" ">
<path fill="none" stroke="#63b8ff" d="M353.32,-150.62C365.42,-150.62 377.91,-150.62 389.98,-150.62"/>
<polygon fill="#63b8ff" stroke="#63b8ff" points="389.92,-154.13 399.92,-150.62 389.92,-147.13 389.92,-154.13"/>
</a>
</g>
</g>
<!-- Node18 -->
<g id="Node000018" class="node">
<title>Node18</title>
<g id="a_Node000018"><a xlink:href="../../dc/d24/class_slic3r_1_1_machine_object.html#a8dbc0a244dad1e4943f57a9fc39d4c75" target="_top" xlink:title=" ">
<polygon fill="white" stroke="#666666" points="524.25,-116.88 412.25,-116.88 412.25,-86.38 524.25,-86.38 524.25,-116.88"/>
<text text-anchor="start" x="420.25" y="-103.38" font-family="Helvetica,sans-Serif" font-size="10.00">Slic3r::MachineObject</text>
<text text-anchor="middle" x="468.25" y="-92.12" font-family="Helvetica,sans-Serif" font-size="10.00">::is_in_extrusion_cali</text>
</a>
</g>
</g>
<!-- Node4&#45;&gt;Node18 -->
<g id="edge18_Node000004_Node000018" class="edge">
<title>Node4&#45;&gt;Node18</title>
<g id="a_edge18_Node000004_Node000018"><a xlink:title=" ">
<path fill="none" stroke="#63b8ff" d="M336.45,-134.92C357.15,-129.65 380.3,-123.76 401.31,-118.41"/>
<polygon fill="#63b8ff" stroke="#63b8ff" points="401.93,-121.61 410.75,-115.75 400.2,-114.83 401.93,-121.61"/>
</a>
</g>
</g>
<!-- Node20 -->
<g id="Node000020" class="node">
<title>Node20</title>
<g id="a_Node000020"><a xlink:href="../../d9/d9d/class_slic3r_1_1_g_u_i_1_1_extrusion_calibration.html#a1e0e8fdfcb1a9f1a05e391610735a891" target="_top" xlink:title=" ">
<polygon fill="white" stroke="#666666" points="547.5,-67.88 389,-67.88 389,-37.38 547.5,-37.38 547.5,-67.88"/>
<text text-anchor="start" x="397" y="-54.38" font-family="Helvetica,sans-Serif" font-size="10.00">Slic3r::GUI::ExtrusionCalibration</text>
<text text-anchor="middle" x="468.25" y="-43.12" font-family="Helvetica,sans-Serif" font-size="10.00">::show_info</text>
</a>
</g>
</g>
<!-- Node4&#45;&gt;Node20 -->
<g id="edge21_Node000004_Node000020" class="edge">
<title>Node4&#45;&gt;Node20</title>
<g id="a_edge21_Node000004_Node000020"><a xlink:title=" ">
<path fill="none" stroke="#63b8ff" d="M295.69,-134.88C317.9,-118.76 354.48,-93.83 389,-77.62 393.07,-75.72 397.32,-73.9 401.64,-72.18"/>
<polygon fill="#63b8ff" stroke="#63b8ff" points="402.71,-75.14 410.83,-68.35 400.24,-68.59 402.71,-75.14"/>
</a>
</g>
</g>
<!-- Node6&#45;&gt;Node5 -->
<g id="edge7_Node000006_Node000005" class="edge">
<title>Node6&#45;&gt;Node5</title>
<g id="a_edge7_Node000006_Node000005"><a xlink:title=" ">
<path fill="none" stroke="#63b8ff" d="M530.59,-220.93C547.71,-216.58 566.32,-211.89 583.5,-207.62 592.67,-205.35 602.45,-202.95 611.88,-200.65"/>
<polygon fill="#63b8ff" stroke="#63b8ff" points="612.43,-203.88 621.32,-198.11 610.78,-197.07 612.43,-203.88"/>
</a>
</g>
</g>
<!-- Node7 -->
<g id="Node000007" class="node">
<title>Node7</title>
<g id="a_Node000007"><a xlink:href="../../d9/d24/class_slic3r_1_1_preset_collection.html#a0cb438a226f1795a5c7cfac5d9272da0" target="_top" xlink:title=" ">
<polygon fill="white" stroke="#666666" points="722.12,-246.88 603.38,-246.88 603.38,-216.38 722.12,-216.38 722.12,-246.88"/>
<text text-anchor="start" x="611.38" y="-233.38" font-family="Helvetica,sans-Serif" font-size="10.00">Slic3r::PresetCollection</text>
<text text-anchor="middle" x="662.75" y="-222.12" font-family="Helvetica,sans-Serif" font-size="10.00">::begin</text>
</a>
</g>
</g>
<!-- Node6&#45;&gt;Node7 -->
<g id="edge6_Node000006_Node000007" class="edge">
<title>Node6&#45;&gt;Node7</title>
<g id="a_edge6_Node000006_Node000007"><a xlink:title=" ">
<path fill="none" stroke="#63b8ff" d="M547.82,-234.58C562.49,-234.2 577.72,-233.81 592.09,-233.43"/>
<polygon fill="#63b8ff" stroke="#63b8ff" points="591.98,-236.91 601.89,-233.15 591.8,-229.91 591.98,-236.91"/>
</a>
</g>
</g>
<!-- Node8 -->
<g id="Node000008" class="node">
<title>Node8</title>
<g id="a_Node000008"><a xlink:href="../../d9/d24/class_slic3r_1_1_preset_collection.html#a760b7563ad26497c8c13ecf712b69f59" target="_top" xlink:title=" ">
<polygon fill="white" stroke="#666666" points="733,-321.25 592.5,-321.25 592.5,-302 733,-302 733,-321.25"/>
<text text-anchor="middle" x="662.75" y="-307.75" font-family="Helvetica,sans-Serif" font-size="10.00">Slic3r::PresetCollection::end</text>
</a>
</g>
</g>
<!-- Node6&#45;&gt;Node8 -->
<g id="edge8_Node000006_Node000008" class="edge">
<title>Node6&#45;&gt;Node8</title>
<g id="a_edge8_Node000006_Node000008"><a xlink:title=" ">
<path fill="none" stroke="#63b8ff" d="M496.15,-252.33C518.81,-264.99 552.41,-282.47 583.5,-293.62 588.62,-295.46 593.99,-297.15 599.43,-298.71"/>
<polygon fill="#63b8ff" stroke="#63b8ff" points="598.33,-302.31 608.9,-301.52 600.15,-295.55 598.33,-302.31"/>
</a>
</g>
</g>
<!-- Node9 -->
<g id="Node000009" class="node">
<title>Node9</title>
<g id="a_Node000009"><a xlink:href="../../d2/d68/class_combo_box.html#ae2f39c19e85af919522e2fa477770e3e" target="_top" xlink:title=" ">
<polygon fill="white" stroke="#666666" points="718,-284.25 607.5,-284.25 607.5,-265 718,-265 718,-284.25"/>
<text text-anchor="middle" x="662.75" y="-270.75" font-family="Helvetica,sans-Serif" font-size="10.00">ComboBox::GetValue</text>
</a>
</g>
</g>
<!-- Node6&#45;&gt;Node9 -->
<g id="edge9_Node000006_Node000009" class="edge">
<title>Node6&#45;&gt;Node9</title>
<g id="a_edge9_Node000006_Node000009"><a xlink:title=" ">
<path fill="none" stroke="#63b8ff" d="M547.82,-252.14C565.22,-255.57 583.42,-259.16 600.03,-262.44"/>
<polygon fill="#63b8ff" stroke="#63b8ff" points="599.21,-266.04 609.69,-264.55 600.56,-259.18 599.21,-266.04"/>
</a>
</g>
</g>
<!-- Node10 -->
<g id="Node000010" class="node">
<title>Node10</title>
<g id="a_Node000010"><a xlink:href="../../d2/d68/class_combo_box.html#a47b013653a593e34e071bd32f6c3b3d1" target="_top" xlink:title=" ">
<polygon fill="white" stroke="#666666" points="895.25,-266.25 785.5,-266.25 785.5,-247 895.25,-247 895.25,-266.25"/>
<text text-anchor="middle" x="840.38" y="-252.75" font-family="Helvetica,sans-Serif" font-size="10.00">ComboBox::GetLabel</text>
</a>
</g>
</g>
<!-- Node9&#45;&gt;Node10 -->
<g id="edge10_Node000009_Node000010" class="edge">
<title>Node9&#45;&gt;Node10</title>
<g id="a_edge10_Node000009_Node000010"><a xlink:title=" ">
<path fill="none" stroke="#63b8ff" d="M718.36,-269.03C736.03,-267.22 755.82,-265.19 774.18,-263.31"/>
<polygon fill="#63b8ff" stroke="#63b8ff" points="774.51,-266.69 784.1,-262.19 773.8,-259.73 774.51,-266.69"/>
</a>
</g>
</g>
<!-- Node11 -->
<g id="Node000011" class="node">
<title>Node11</title>
<g id="a_Node000011"><a xlink:href="../../dc/df0/class_drop_down.html#a50dcbec4966d222f203d8df5f4f7e3b7" target="_top" xlink:title=" ">
<polygon fill="white" stroke="#666666" points="902.75,-303.25 778,-303.25 778,-284 902.75,-284 902.75,-303.25"/>
<text text-anchor="middle" x="840.38" y="-289.75" font-family="Helvetica,sans-Serif" font-size="10.00">DropDown::GetSelection</text>
</a>
</g>
</g>
<!-- Node9&#45;&gt;Node11 -->
<g id="edge11_Node000009_Node000011" class="edge">
<title>Node9&#45;&gt;Node11</title>
<g id="a_edge11_Node000009_Node000011"><a xlink:title=" ">
<path fill="none" stroke="#63b8ff" d="M718.36,-280.53C733.8,-282.2 750.86,-284.05 767.17,-285.81"/>
<polygon fill="#63b8ff" stroke="#63b8ff" points="766.44,-289.36 776.76,-286.96 767.19,-282.4 766.44,-289.36"/>
</a>
</g>
</g>
<!-- Node12 -->
<g id="Node000012" class="node">
<title>Node12</title>
<g id="a_Node000012"><a xlink:href="../../dc/df0/class_drop_down.html#a205a0d4217ccf21c59922f9240114440" target="_top" xlink:title=" ">
<polygon fill="white" stroke="#666666" points="894.5,-523.25 786.25,-523.25 786.25,-504 894.5,-504 894.5,-523.25"/>
<text text-anchor="middle" x="840.38" y="-509.75" font-family="Helvetica,sans-Serif" font-size="10.00">DropDown::GetValue</text>
</a>
</g>
</g>
<!-- Node9&#45;&gt;Node12 -->
<g id="edge12_Node000009_Node000012" class="edge">
<title>Node9&#45;&gt;Node12</title>
<g id="a_edge12_Node000009_Node000012"><a xlink:title=" ">
<path fill="none" stroke="#63b8ff" d="M718.2,-278.5C727.14,-281.4 735.56,-285.86 742,-292.62 805.13,-359.03 716.86,-427.38 778,-495.62 778.44,-496.12 778.89,-496.59 779.36,-497.06"/>
<polygon fill="#63b8ff" stroke="#63b8ff" points="776.72,-500.21 786.78,-503.53 780.99,-494.67 776.72,-500.21"/>
</a>
</g>
</g>
<!-- Node15 -->
<g id="Node000015" class="node">
<title>Node15</title>
<g id="a_Node000015"><a xlink:href="../../de/db8/namespace_slic3r.html#aed0434d42d75979bb4d469ff41de7158" target="_top" xlink:title=" ">
<polygon fill="white" stroke="#666666" points="692.88,-157.25 632.62,-157.25 632.62,-138 692.88,-138 692.88,-157.25"/>
<text text-anchor="middle" x="662.75" y="-143.75" font-family="Helvetica,sans-Serif" font-size="10.00">Slic3r::diff</text>
</a>
</g>
</g>
<!-- Node14&#45;&gt;Node15 -->
<g id="edge15_Node000014_Node000015" class="edge">
<title>Node14&#45;&gt;Node15</title>
<g id="a_edge15_Node000014_Node000015"><a xlink:title=" ">
<path fill="none" stroke="#63b8ff" d="M535.5,-149.59C564.07,-149.15 596.57,-148.64 621.44,-148.25"/>
<polygon fill="#63b8ff" stroke="#63b8ff" points="621.34,-151.74 631.29,-148.08 621.23,-144.74 621.34,-151.74"/>
</a>
</g>
</g>
<!-- Node16 -->
<g id="Node000016" class="node">
<title>Node16</title>
<g id="a_Node000016"><a xlink:href="../../de/db8/namespace_slic3r.html#a440bb1d57671f454ad4fab4f192430cf" target="_top" xlink:title=" ">
<polygon fill="white" stroke="#666666" points="880.62,-157.25 800.12,-157.25 800.12,-138 880.62,-138 880.62,-157.25"/>
<text text-anchor="middle" x="840.38" y="-143.75" font-family="Helvetica,sans-Serif" font-size="10.00">Slic3r::_clipper</text>
</a>
</g>
</g>
<!-- Node15&#45;&gt;Node16 -->
<g id="edge16_Node000015_Node000016" class="edge">
<title>Node15&#45;&gt;Node16</title>
<g id="a_edge16_Node000015_Node000016"><a xlink:title=" ">
<path fill="none" stroke="#63b8ff" d="M693.15,-147.62C719.26,-147.62 758,-147.62 789.04,-147.62"/>
<polygon fill="#63b8ff" stroke="#63b8ff" points="788.67,-151.13 798.67,-147.62 788.67,-144.13 788.67,-151.13"/>
</a>
</g>
</g>
<!-- Node17 -->
<g id="Node000017" class="node">
<title>Node17</title>
<g id="a_Node000017"><a xlink:href="../../de/db8/namespace_slic3r.html#a843ba2fe16b213f550fb3d55c55a716e" target="_top" xlink:title=" ">
<polygon fill="white" stroke="#666666" points="1043.25,-157.25 944,-157.25 944,-138 1043.25,-138 1043.25,-157.25"/>
<text text-anchor="middle" x="993.62" y="-143.75" font-family="Helvetica,sans-Serif" font-size="10.00">Slic3r::to_polygons</text>
</a>
</g>
</g>
<!-- Node16&#45;&gt;Node17 -->
<g id="edge17_Node000016_Node000017" class="edge">
<title>Node16&#45;&gt;Node17</title>
<g id="a_edge17_Node000016_Node000017"><a xlink:title=" ">
<path fill="none" stroke="#63b8ff" d="M881.11,-147.62C896.99,-147.62 915.61,-147.62 933.04,-147.62"/>
<polygon fill="#63b8ff" stroke="#63b8ff" points="932.7,-151.13 942.7,-147.62 932.7,-144.13 932.7,-151.13"/>
</a>
</g>
</g>
<!-- Node18&#45;&gt;Node15 -->
<g id="edge19_Node000018_Node000015" class="edge">
<title>Node18&#45;&gt;Node15</title>
<g id="a_edge19_Node000018_Node000015"><a xlink:title=" ">
<path fill="none" stroke="#63b8ff" d="M524.67,-114.87C555.66,-122.27 593.57,-131.33 621.67,-138.05"/>
<polygon fill="#63b8ff" stroke="#63b8ff" points="620.76,-141.67 631.3,-140.59 622.38,-134.86 620.76,-141.67"/>
</a>
</g>
</g>
<!-- Node19 -->
<g id="Node000019" class="node">
<title>Node19</title>
<g id="a_Node000019"><a xlink:href="../../dc/d24/class_slic3r_1_1_machine_object.html#add988018c5a52a04d75fd8632ea9a398" target="_top" xlink:title=" ">
<polygon fill="white" stroke="#666666" points="718.75,-116.88 606.75,-116.88 606.75,-86.38 718.75,-86.38 718.75,-116.88"/>
<text text-anchor="start" x="614.75" y="-103.38" font-family="Helvetica,sans-Serif" font-size="10.00">Slic3r::MachineObject</text>
<text text-anchor="middle" x="662.75" y="-92.12" font-family="Helvetica,sans-Serif" font-size="10.00">::is_in_printing_status</text>
</a>
</g>
</g>
<!-- Node18&#45;&gt;Node19 -->
<g id="edge20_Node000018_Node000019" class="edge">
<title>Node18&#45;&gt;Node19</title>
<g id="a_edge20_Node000018_Node000019"><a xlink:title=" ">
<path fill="none" stroke="#63b8ff" d="M524.67,-101.62C546.82,-101.62 572.51,-101.62 595.62,-101.62"/>
<polygon fill="#63b8ff" stroke="#63b8ff" points="595.39,-105.13 605.39,-101.62 595.39,-98.13 595.39,-105.13"/>
</a>
</g>
</g>
<!-- Node21&#45;&gt;Node5 -->
<g id="edge24_Node000021_Node000005" class="edge">
<title>Node21&#45;&gt;Node5</title>
<g id="a_edge24_Node000021_Node000005"><a xlink:title=" ">
<path fill="none" stroke="#63b8ff" d="M484.32,-332.95C500.58,-315.75 526.9,-287.08 547.5,-260.62 565,-238.16 560.1,-223.85 583.5,-207.62 591.94,-201.77 601.98,-197.71 612.01,-194.9"/>
<polygon fill="#63b8ff" stroke="#63b8ff" points="612.49,-198.15 621.39,-192.4 610.85,-191.34 612.49,-198.15"/>
</a>
</g>
</g>
<!-- Node21&#45;&gt;Node7 -->
<g id="edge23_Node000021_Node000007" class="edge">
<title>Node21&#45;&gt;Node7</title>
<g id="a_edge23_Node000021_Node000007"><a xlink:title=" ">
<path fill="none" stroke="#63b8ff" d="M484.47,-332.92C505.13,-312.42 544.02,-276.71 583.5,-255.62 586.57,-253.99 589.77,-252.44 593.05,-250.99"/>
<polygon fill="#63b8ff" stroke="#63b8ff" points="594.12,-253.92 602.05,-246.89 591.47,-247.44 594.12,-253.92"/>
</a>
</g>
</g>
<!-- Node21&#45;&gt;Node8 -->
<g id="edge25_Node000021_Node000008" class="edge">
<title>Node21&#45;&gt;Node8</title>
<g id="a_edge25_Node000021_Node000008"><a xlink:title=" ">
<path fill="none" stroke="#63b8ff" d="M547.82,-333.52C564.8,-330.26 582.53,-326.85 598.81,-323.72"/>
<polygon fill="#63b8ff" stroke="#63b8ff" points="599.11,-327.04 608.27,-321.71 597.79,-320.16 599.11,-327.04"/>
</a>
</g>
</g>
<!-- Node21&#45;&gt;Node9 -->
<g id="edge27_Node000021_Node000009" class="edge">
<title>Node21&#45;&gt;Node9</title>
<g id="a_edge27_Node000021_Node000009"><a xlink:title=" ">
<path fill="none" stroke="#63b8ff" d="M496.64,-332.97C519.32,-320.56 552.69,-303.56 583.5,-292.62 588.84,-290.73 594.45,-288.99 600.12,-287.39"/>
<polygon fill="#63b8ff" stroke="#63b8ff" points="600.57,-290.63 609.33,-284.67 598.77,-283.86 600.57,-290.63"/>
</a>
</g>
</g>
<!-- Node22 -->
<g id="Node000022" class="node">
<title>Node22</title>
<g id="a_Node000022"><a xlink:href="../../d9/d0d/class_slic3r_1_1_config_option_vector.html#a67755169c58c83f3fbc85d4fa3e30837" target="_top" xlink:title=" ">
<polygon fill="white" stroke="#666666" points="728.88,-504.88 596.62,-504.88 596.62,-474.38 728.88,-474.38 728.88,-504.88"/>
<text text-anchor="start" x="604.62" y="-491.38" font-family="Helvetica,sans-Serif" font-size="10.00">Slic3r::ConfigOptionVector</text>
<text text-anchor="middle" x="662.75" y="-480.12" font-family="Helvetica,sans-Serif" font-size="10.00">::get_at</text>
</a>
</g>
</g>
<!-- Node21&#45;&gt;Node22 -->
<g id="edge26_Node000021_Node000022" class="edge">
<title>Node21&#45;&gt;Node22</title>
<g id="a_edge26_Node000021_Node000022"><a xlink:title=" ">
<path fill="none" stroke="#63b8ff" d="M480.46,-364.12C499.12,-388.86 538.95,-437.24 583.5,-464.62 586.32,-466.36 589.28,-467.99 592.32,-469.51"/>
<polygon fill="#63b8ff" stroke="#63b8ff" points="590.72,-473.08 601.27,-474.03 593.61,-466.71 590.72,-473.08"/>
</a>
</g>
</g>
<!-- Node23 -->
<g id="Node000023" class="node">
<title>Node23</title>
<g id="a_Node000023"><a xlink:href="../../d9/d9d/class_slic3r_1_1_g_u_i_1_1_extrusion_calibration.html#a95cdbe88ac657530627c07bda7f178fa" target="_top" xlink:title=" ">
<polygon fill="white" stroke="#666666" points="742,-455.88 583.5,-455.88 583.5,-425.38 742,-425.38 742,-455.88"/>
<text text-anchor="start" x="591.5" y="-442.38" font-family="Helvetica,sans-Serif" font-size="10.00">Slic3r::GUI::ExtrusionCalibration</text>
<text text-anchor="middle" x="662.75" y="-431.12" font-family="Helvetica,sans-Serif" font-size="10.00">::post_select_event</text>
</a>
</g>
</g>
<!-- Node21&#45;&gt;Node23 -->
<g id="edge28_Node000021_Node000023" class="edge">
<title>Node21&#45;&gt;Node23</title>
<g id="a_edge28_Node000021_Node000023"><a xlink:title=" ">
<path fill="none" stroke="#63b8ff" d="M492.5,-364.33C515.03,-379.04 550.53,-400.91 583.5,-415.62 587.87,-417.57 592.43,-419.44 597.07,-421.22"/>
<polygon fill="#63b8ff" stroke="#63b8ff" points="595.69,-424.8 606.29,-424.94 598.09,-418.23 595.69,-424.8"/>
</a>
</g>
</g>
<!-- Node24 -->
<g id="Node000024" class="node">
<title>Node24</title>
<g id="a_Node000024"><a xlink:href="../../d2/d68/class_combo_box.html#a36e8aa3882419536f05d489f5dad7058" target="_top" xlink:title=" ">
<polygon fill="white" stroke="#666666" points="725.88,-579.25 599.62,-579.25 599.62,-560 725.88,-560 725.88,-579.25"/>
<text text-anchor="middle" x="662.75" y="-565.75" font-family="Helvetica,sans-Serif" font-size="10.00">ComboBox::SetSelection</text>
</a>
</g>
</g>
<!-- Node21&#45;&gt;Node24 -->
<g id="edge29_Node000021_Node000024" class="edge">
<title>Node21&#45;&gt;Node24</title>
<g id="a_edge29_Node000021_Node000024"><a xlink:title=" ">
<path fill="none" stroke="#63b8ff" d="M473.3,-364.23C484.11,-402.65 517.43,-502.21 583.5,-551.62 585.45,-553.08 587.5,-554.43 589.62,-555.66"/>
<polygon fill="#63b8ff" stroke="#63b8ff" points="587.83,-559.17 598.35,-560.43 590.91,-552.89 587.83,-559.17"/>
</a>
</g>
</g>
<!-- Node31 -->
<g id="Node000031" class="node">
<title>Node31</title>
<g id="a_Node000031"><a xlink:href="../../d2/d68/class_combo_box.html#a3f173491ca6d95a728a122ab55c120b2" target="_top" xlink:title=" ">
<polygon fill="white" stroke="#666666" points="717.62,-542.25 607.88,-542.25 607.88,-523 717.62,-523 717.62,-542.25"/>
<text text-anchor="middle" x="662.75" y="-528.75" font-family="Helvetica,sans-Serif" font-size="10.00">ComboBox::SetValue</text>
</a>
</g>
</g>
<!-- Node21&#45;&gt;Node31 -->
<g id="edge36_Node000021_Node000031" class="edge">
<title>Node21&#45;&gt;Node31</title>
<g id="a_edge36_Node000021_Node000031"><a xlink:title=" ">
<path fill="none" stroke="#63b8ff" d="M475.43,-364.18C489.38,-397.23 526.63,-474.58 583.5,-513.62 587.81,-516.58 592.53,-519.09 597.45,-521.2"/>
<polygon fill="#63b8ff" stroke="#63b8ff" points="596.17,-524.83 606.76,-525.01 598.6,-518.26 596.17,-524.83"/>
</a>
</g>
</g>
<!-- Node38 -->
<g id="Node000038" class="node">
<title>Node38</title>
<g id="a_Node000038"><a xlink:href="../../d9/d24/class_slic3r_1_1_preset_collection.html#a076d7c8a16305911892836c4d940dc58" target="_top" xlink:title=" ">
<polygon fill="white" stroke="#666666" points="722.12,-406.88 603.38,-406.88 603.38,-376.38 722.12,-376.38 722.12,-406.88"/>
<text text-anchor="start" x="611.38" y="-393.38" font-family="Helvetica,sans-Serif" font-size="10.00">Slic3r::PresetCollection</text>
<text text-anchor="middle" x="662.75" y="-382.12" font-family="Helvetica,sans-Serif" font-size="10.00">::size</text>
</a>
</g>
</g>
<!-- Node21&#45;&gt;Node38 -->
<g id="edge42_Node000021_Node000038" class="edge">
<title>Node21&#45;&gt;Node38</title>
<g id="a_edge42_Node000021_Node000038"><a xlink:title=" ">
<path fill="none" stroke="#63b8ff" d="M539.56,-364.33C556.82,-368.19 575.28,-372.31 592.48,-376.15"/>
<polygon fill="#63b8ff" stroke="#63b8ff" points="591.49,-379.74 602.01,-378.5 593.01,-372.91 591.49,-379.74"/>
</a>
</g>
</g>
<!-- Node39 -->
<g id="Node000039" class="node">
<title>Node39</title>
<g id="a_Node000039"><a xlink:href="../../de/db8/namespace_slic3r.html#a06b86e5331aac1c640f8f7f40d798175" target="_top" xlink:title=" ">
<polygon fill="white" stroke="#666666" points="697,-358.25 628.5,-358.25 628.5,-339 697,-339 697,-358.25"/>
<text text-anchor="middle" x="662.75" y="-344.75" font-family="Helvetica,sans-Serif" font-size="10.00">Slic3r::trace</text>
</a>
</g>
</g>
<!-- Node21&#45;&gt;Node39 -->
<g id="edge43_Node000021_Node000039" class="edge">
<title>Node21&#45;&gt;Node39</title>
<g id="a_edge43_Node000021_Node000039"><a xlink:title=" ">
<path fill="none" stroke="#63b8ff" d="M547.82,-348.62C571.51,-348.62 596.67,-348.62 617.31,-348.62"/>
<polygon fill="#63b8ff" stroke="#63b8ff" points="617.27,-352.13 627.27,-348.62 617.27,-345.13 617.27,-352.13"/>
</a>
</g>
</g>
<!-- Node24&#45;&gt;Node12 -->
<g id="edge30_Node000024_Node000012" class="edge">
<title>Node24&#45;&gt;Node12</title>
<g id="a_edge30_Node000024_Node000012"><a xlink:title=" ">
<path fill="none" stroke="#63b8ff" d="M716.97,-559.51C725.46,-557.29 734.06,-554.67 742,-551.62 759.09,-545.06 761.11,-538.69 778,-531.62 781.87,-530.01 785.92,-528.48 790.04,-527.04"/>
<polygon fill="#63b8ff" stroke="#63b8ff" points="790.88,-530.12 799.29,-523.67 788.69,-523.47 790.88,-530.12"/>
</a>
</g>
</g>
<!-- Node25 -->
<g id="Node000025" class="node">
<title>Node25</title>
<g id="a_Node000025"><a xlink:href="../../d2/d68/class_combo_box.html#ad2f6a2984710832ca06ff18c2f21703f" target="_top" xlink:title=" ">
<polygon fill="white" stroke="#666666" points="894.88,-560.25 785.88,-560.25 785.88,-541 894.88,-541 894.88,-560.25"/>
<text text-anchor="middle" x="840.38" y="-546.75" font-family="Helvetica,sans-Serif" font-size="10.00">ComboBox::SetLabel</text>
</a>
</g>
</g>
<!-- Node24&#45;&gt;Node25 -->
<g id="edge31_Node000024_Node000025" class="edge">
<title>Node24&#45;&gt;Node25</title>
<g id="a_edge31_Node000024_Node000025"><a xlink:title=" ">
<path fill="none" stroke="#63b8ff" d="M726.16,-562.87C741.94,-561.17 758.92,-559.33 774.81,-557.61"/>
<polygon fill="#63b8ff" stroke="#63b8ff" points="775.04,-561 784.6,-556.44 774.28,-554.04 775.04,-561"/>
</a>
</g>
</g>
<!-- Node29 -->
<g id="Node000029" class="node">
<title>Node29</title>
<g id="a_Node000029"><a xlink:href="../../dc/df0/class_drop_down.html#af2d38e0bd96a91ead8a3d32d715dc296" target="_top" xlink:title=" ">
<polygon fill="white" stroke="#666666" points="902.38,-597.25 778.38,-597.25 778.38,-578 902.38,-578 902.38,-597.25"/>
<text text-anchor="middle" x="840.38" y="-583.75" font-family="Helvetica,sans-Serif" font-size="10.00">DropDown::SetSelection</text>
</a>
</g>
</g>
<!-- Node24&#45;&gt;Node29 -->
<g id="edge34_Node000024_Node000029" class="edge">
<title>Node24&#45;&gt;Node29</title>
<g id="a_edge34_Node000024_Node000029"><a xlink:title=" ">
<path fill="none" stroke="#63b8ff" d="M726.16,-576.02C739.47,-577.39 753.62,-578.84 767.25,-580.23"/>
<polygon fill="#63b8ff" stroke="#63b8ff" points="766.74,-583.8 777.05,-581.34 767.46,-576.84 766.74,-583.8"/>
</a>
</g>
</g>
<!-- Node26 -->
<g id="Node000026" class="node">
<title>Node26</title>
<g id="a_Node000026"><a xlink:href="../../d1/d18/class_text_input.html#a474baf03a1c967c5c4e29ec7c27ea4a9" target="_top" xlink:title=" ">
<polygon fill="white" stroke="#666666" points="1044,-560.25 943.25,-560.25 943.25,-541 1044,-541 1044,-560.25"/>
<text text-anchor="middle" x="993.62" y="-546.75" font-family="Helvetica,sans-Serif" font-size="10.00">TextInput::SetLabel</text>
</a>
</g>
</g>
<!-- Node25&#45;&gt;Node26 -->
<g id="edge32_Node000025_Node000026" class="edge">
<title>Node25&#45;&gt;Node26</title>
<g id="a_edge32_Node000025_Node000026"><a xlink:title=" ">
<path fill="none" stroke="#63b8ff" d="M895.13,-550.62C907.02,-550.62 919.71,-550.62 931.86,-550.62"/>
<polygon fill="#63b8ff" stroke="#63b8ff" points="931.84,-554.13 941.84,-550.62 931.84,-547.13 931.84,-554.13"/>
</a>
</g>
</g>
<!-- Node27 -->
<g id="Node000027" class="node">
<title>Node27</title>
<g id="a_Node000027"><a xlink:href="../../d1/d18/class_text_input.html#a3c6926c7e440ca591e83934efa3eef02" target="_top" xlink:title=" ">
<polygon fill="#fff0f0" stroke="red" points="1207.38,-560.25 1087.88,-560.25 1087.88,-541 1207.38,-541 1207.38,-560.25"/>
<text text-anchor="middle" x="1147.62" y="-546.75" font-family="Helvetica,sans-Serif" font-size="10.00">TextInput::messureSize</text>
</a>
</g>
</g>
<!-- Node26&#45;&gt;Node27 -->
<g id="edge33_Node000026_Node000027" class="edge">
<title>Node26&#45;&gt;Node27</title>
<g id="a_edge33_Node000026_Node000027"><a xlink:title=" ">
<path fill="none" stroke="#63b8ff" d="M1044.4,-550.62C1054.72,-550.62 1065.78,-550.62 1076.68,-550.62"/>
<polygon fill="#63b8ff" stroke="#63b8ff" points="1076.48,-554.13 1086.48,-550.62 1076.48,-547.13 1076.48,-554.13"/>
</a>
</g>
</g>
<!-- Node30 -->
<g id="Node000030" class="node">
<title>Node30</title>
<g id="a_Node000030"><a xlink:href="../../dc/df0/class_drop_down.html#a626569282998d09ef83c313ecb87205e" target="_top" xlink:title=" ">
<polygon fill="white" stroke="#666666" points="1048.5,-597.25 938.75,-597.25 938.75,-578 1048.5,-578 1048.5,-597.25"/>
<text text-anchor="middle" x="993.62" y="-583.75" font-family="Helvetica,sans-Serif" font-size="10.00">DropDown::paintNow</text>
</a>
</g>
</g>
<!-- Node29&#45;&gt;Node30 -->
<g id="edge35_Node000029_Node000030" class="edge">
<title>Node29&#45;&gt;Node30</title>
<g id="a_edge35_Node000029_Node000030"><a xlink:title=" ">
<path fill="none" stroke="#63b8ff" d="M902.46,-587.62C910.78,-587.62 919.35,-587.62 927.74,-587.62"/>
<polygon fill="#63b8ff" stroke="#63b8ff" points="927.62,-591.13 937.62,-587.62 927.62,-584.13 927.62,-591.13"/>
</a>
</g>
</g>
<!-- Node31&#45;&gt;Node25 -->
<g id="edge37_Node000031_Node000025" class="edge">
<title>Node31&#45;&gt;Node25</title>
<g id="a_edge37_Node000031_Node000025"><a xlink:title=" ">
<path fill="none" stroke="#63b8ff" d="M717.88,-538.17C735.82,-540.01 755.98,-542.08 774.64,-543.99"/>
<polygon fill="#63b8ff" stroke="#63b8ff" points="774.12,-547.56 784.43,-545.1 774.84,-540.59 774.12,-547.56"/>
</a>
</g>
</g>
<!-- Node32 -->
<g id="Node000032" class="node">
<title>Node32</title>
<g id="a_Node000032"><a xlink:href="../../dc/df0/class_drop_down.html#abe9794a177d0a37433fc643f7bb9f50b" target="_top" xlink:title=" ">
<polygon fill="white" stroke="#666666" points="894.12,-486.25 786.62,-486.25 786.62,-467 894.12,-467 894.12,-486.25"/>
<text text-anchor="middle" x="840.38" y="-472.75" font-family="Helvetica,sans-Serif" font-size="10.00">DropDown::SetValue</text>
</a>
</g>
</g>
<!-- Node31&#45;&gt;Node32 -->
<g id="edge38_Node000031_Node000032" class="edge">
<title>Node31&#45;&gt;Node32</title>
<g id="a_edge38_Node000031_Node000032"><a xlink:title=" ">
<path fill="none" stroke="#63b8ff" d="M713.15,-522.6C722.85,-520.08 732.85,-517.09 742,-513.62 758.92,-507.22 761.24,-501.43 778,-494.62 781.94,-493.03 786.07,-491.5 790.25,-490.07"/>
<polygon fill="#63b8ff" stroke="#63b8ff" points="791.23,-493.11 799.66,-486.7 789.07,-486.45 791.23,-493.11"/>
</a>
</g>
</g>
<!-- Node33 -->
<g id="Node000033" class="node">
<title>Node33</title>
<g id="a_Node000033"><a xlink:href="../../d8/dcc/namespacestd.html#af4bc231d061945eb59dbba98a117ece9" target="_top" xlink:title=" ">
<polygon fill="white" stroke="#666666" points="1029.75,-486.25 957.5,-486.25 957.5,-467 1029.75,-467 1029.75,-486.25"/>
<text text-anchor="middle" x="993.62" y="-472.75" font-family="Helvetica,sans-Serif" font-size="10.00">std::distance</text>
</a>
</g>
</g>
<!-- Node32&#45;&gt;Node33 -->
<g id="edge39_Node000032_Node000033" class="edge">
<title>Node32&#45;&gt;Node33</title>
<g id="a_edge39_Node000032_Node000033"><a xlink:title=" ">
<path fill="none" stroke="#63b8ff" d="M894.27,-476.62C911.16,-476.62 929.72,-476.62 946.12,-476.62"/>
<polygon fill="#63b8ff" stroke="#63b8ff" points="946.08,-480.13 956.08,-476.62 946.08,-473.13 946.08,-480.13"/>
</a>
</g>
</g>
<!-- Node34 -->
<g id="Node000034" class="node">
<title>Node34</title>
<g id="a_Node000034"><a xlink:href="../../d7/d63/classhmesh__t.html#a19678c4e4889230aa87ea59b4ec047c8" target="_top" xlink:title=" ">
<polygon fill="#fff0f0" stroke="red" points="1210.75,-457.88 1084.5,-457.88 1084.5,-427.38 1210.75,-427.38 1210.75,-457.88"/>
<text text-anchor="start" x="1092.5" y="-444.38" font-family="Helvetica,sans-Serif" font-size="10.00">hmesh_t::count_removed</text>
<text text-anchor="middle" x="1147.62" y="-433.12" font-family="Helvetica,sans-Serif" font-size="10.00">_elements_in_range</text>
</a>
</g>
</g>
<!-- Node33&#45;&gt;Node34 -->
<g id="edge40_Node000033_Node000034" class="edge">
<title>Node33&#45;&gt;Node34</title>
<g id="a_edge40_Node000033_Node000034"><a xlink:title=" ">
<path fill="none" stroke="#63b8ff" d="M1029.88,-468.74C1042.99,-465.81 1058.4,-462.36 1073.64,-458.95"/>
<polygon fill="#63b8ff" stroke="#63b8ff" points="1074.15,-462.2 1083.14,-456.6 1072.62,-455.37 1074.15,-462.2"/>
</a>
</g>
</g>
<!-- Node37 -->
<g id="Node000037" class="node">
<title>Node37</title>
<g id="a_Node000037"><a xlink:href="../../d8/d9b/classarray__iterator__t.html#ac73b2d71bcaaa8f9fb198b061a58803a" target="_top" xlink:title=" ">
<polygon fill="white" stroke="#666666" points="1198,-506.88 1097.25,-506.88 1097.25,-476.38 1198,-476.38 1198,-506.88"/>
<text text-anchor="start" x="1105.25" y="-493.38" font-family="Helvetica,sans-Serif" font-size="10.00">array_iterator_t::get</text>
<text text-anchor="middle" x="1147.62" y="-482.12" font-family="Helvetica,sans-Serif" font-size="10.00">_mesh_ptr</text>
</a>
</g>
</g>
<!-- Node33&#45;&gt;Node37 -->
<g id="edge41_Node000033_Node000037" class="edge">
<title>Node33&#45;&gt;Node37</title>
<g id="a_edge41_Node000033_Node000037"><a xlink:title=" ">
<path fill="none" stroke="#63b8ff" d="M1029.88,-480.1C1046.6,-481.75 1067.05,-483.77 1086.14,-485.66"/>
<polygon fill="#63b8ff" stroke="#63b8ff" points="1085.59,-489.22 1095.88,-486.72 1086.27,-482.25 1085.59,-489.22"/>
</a>
</g>
</g>
<!-- Node40 -->
<g id="Node000040" class="node">
<title>Node40</title>
<g id="a_Node000040"><a xlink:href="../../de/db8/namespace_slic3r.html#a9cee7b60f26f304ff21ca61b33e11b8d" target="_top" xlink:title=" ">
<polygon fill="white" stroke="#666666" points="895.25,-358.25 785.5,-358.25 785.5,-339 895.25,-339 895.25,-358.25"/>
<text text-anchor="middle" x="840.38" y="-344.75" font-family="Helvetica,sans-Serif" font-size="10.00">Slic3r::level_to_boost</text>
</a>
</g>
</g>
<!-- Node39&#45;&gt;Node40 -->
<g id="edge44_Node000039_Node000040" class="edge">
<title>Node39&#45;&gt;Node40</title>
<g id="a_edge44_Node000039_Node000040"><a xlink:title=" ">
<path fill="none" stroke="#63b8ff" d="M697.2,-348.62C719.07,-348.62 748.35,-348.62 774.66,-348.62"/>
<polygon fill="#63b8ff" stroke="#63b8ff" points="774.33,-352.13 784.33,-348.62 774.33,-345.13 774.33,-352.13"/>
</a>
</g>
</g>
</g>
</svg>

<g id="navigator" transform="translate(0 0)" fill="#404254">
  <rect fill="#f2f5e9" fill-opacity="0.5" stroke="#606060" stroke-width=".5" x="0" y="0" width="60" height="60"/>
  <use id="zoomplus" xlink:href="#zoomPlus" x="17" y="9" onmousedown="handleZoom(evt,'in')"/>
  <use id="zoomminus" xlink:href="#zoomMin" x="42" y="9" onmousedown="handleZoom(evt,'out')"/>
  <use id="reset" xlink:href="#resetDef" x="30" y="36" onmousedown="handleReset()"/>
   <use id="arrowup" xlink:href="#arrowUp" x="0" y="0" onmousedown="handlePan(0,-1)"/>
  <use id="arrowright" xlink:href="#arrowRight" x="0" y="0" onmousedown="handlePan(1,0)"/>
  <use id="arrowdown" xlink:href="#arrowDown" x="0" y="0" onmousedown="handlePan(0,1)"/>
  <use id="arrowleft" xlink:href="#arrowLeft" x="0" y="0" onmousedown="handlePan(-1,0)"/>
</g>
<svg viewBox="0 0 15 15" width="100%" height="30px" preserveAspectRatio="xMaxYMin meet">
 <g id="arrow_out" transform="scale(0.3 0.3)">
  <a xlink:href="class_slic3r_1_1_g_u_i_1_1_extrusion_calibration_a7cabf37b8d9d62bef1e82608b3d55575_cgraph_org.svg" target="_base">
   <rect id="button" ry="5" rx="5" y="6" x="6" height="38" width="38"
        fill="#f2f5e9" fill-opacity="0.5" stroke="#606060" stroke-width="1.0"/>
   <path id="arrow"
     d="M 11.500037,31.436501 C 11.940474,20.09759 22.043105,11.32322 32.158766,21.979434 L 37.068811,17.246167 C 37.068811,17.246167 37.088388,32 37.088388,32 L 22.160133,31.978069 C 22.160133,31.978069 26.997745,27.140456 26.997745,27.140456 C 18.528582,18.264221 13.291696,25.230495 11.500037,31.436501 z"
     style="fill:#404040;"/>
  </a>
 </g>
</svg>

<style type='text/css'>
<![CDATA[
[data-mouse-over-selected='false'] { opacity: 0.7; }
[data-mouse-over-selected='true']  { opacity: 1.0; }
]]>
</style>
<script type="application/ecmascript"><![CDATA[
document.addEventListener('DOMContentLoaded', (event) => {
  highlightEdges();
  highlightAdjacentNodes();
});
]]></script>
</svg>
