<?xml version="1.0" encoding="UTF-8" standalone="no"?>
<!DOCTYPE svg PUBLIC "-//W3C//DTD SVG 1.1//EN"
 "http://www.w3.org/Graphics/SVG/1.1/DTD/svg11.dtd">
<!-- Generated by graphviz version 8.1.0 (20230707.0739)
 -->
<!-- Title: Slic3r::Circle Pages: 1 -->
<svg width="244pt" height="94pt"
 viewBox="0.00 0.00 244.38 93.75" xmlns="http://www.w3.org/2000/svg" xmlns:xlink="http://www.w3.org/1999/xlink">
<g id="graph0" class="graph" transform="scale(1 1) rotate(0) translate(4 89.75)">
<title>Slic3r::Circle</title>
<!-- Node1 -->
<g id="Node000001" class="node">
<title>Node1</title>
<g id="a_Node000001"><a xlink:title=" ">
<polygon fill="#999999" stroke="#666666" points="149.5,-85.75 77.25,-85.75 77.25,-66.5 149.5,-66.5 149.5,-85.75"/>
<text text-anchor="middle" x="113.38" y="-72.25" font-family="Helvetica,sans-Serif" font-size="10.00">Slic3r::Circle</text>
</a>
</g>
</g>
<!-- Node2 -->
<g id="Node000002" class="node">
<title>Node2</title>
<g id="a_Node000002"><a xlink:href="../../d9/deb/class_slic3r_1_1_arc_segment.html" target="_top" xlink:title=" ">
<polygon fill="white" stroke="#666666" points="100.75,-19.25 0,-19.25 0,0 100.75,0 100.75,-19.25"/>
<text text-anchor="middle" x="50.38" y="-5.75" font-family="Helvetica,sans-Serif" font-size="10.00">Slic3r::ArcSegment</text>
</a>
</g>
</g>
<!-- Node1&#45;&gt;Node2 -->
<g id="edge1_Node000001_Node000002" class="edge">
<title>Node1&#45;&gt;Node2</title>
<g id="a_edge1_Node000001_Node000002"><a xlink:title=" ">
<path fill="none" stroke="#63b8ff" d="M96.97,-58.33C84.84,-45.91 68.81,-29.5 59.06,-19.52"/>
<polygon fill="#63b8ff" stroke="#63b8ff" points="94.12,-60.45 103.62,-65.16 99.13,-55.56 94.12,-60.45"/>
</a>
</g>
</g>
<!-- Node3 -->
<g id="Node000003" class="node">
<title>Node3</title>
<g id="a_Node000003"><a xlink:href="../../d2/dce/class_slic3r_1_1_circle.html" target="_top" xlink:title=" ">
<polygon fill="white" stroke="#666666" points="236.38,-19.25 118.38,-19.25 118.38,0 236.38,0 236.38,-19.25"/>
<text text-anchor="middle" x="177.38" y="-5.75" font-family="Helvetica,sans-Serif" font-size="10.00">Slic3r::Circle&lt; Vec2d &gt;</text>
</a>
</g>
</g>
<!-- Node1&#45;&gt;Node3 -->
<g id="edge2_Node000001_Node000003" class="edge">
<title>Node1&#45;&gt;Node3</title>
<g id="a_edge2_Node000001_Node000003"><a xlink:title=" ">
<path fill="none" stroke="orange" stroke-dasharray="5,2" d="M129.69,-58.69C142.05,-46.23 158.55,-29.59 168.55,-19.52"/>
<polygon fill="orange" stroke="orange" points="127.83,-55.59 123.27,-65.16 132.8,-60.52 127.83,-55.59"/>
</a>
</g>
<text text-anchor="middle" x="172.75" y="-39" font-family="Helvetica,sans-Serif" font-size="10.00" fill="grey"> &lt; Vec2d &gt;</text>
</g>
</g>
</svg>
