<?xml version="1.0" encoding="UTF-8" standalone="no"?>
<!DOCTYPE svg PUBLIC "-//W3C//DTD SVG 1.1//EN"
 "http://www.w3.org/Graphics/SVG/1.1/DTD/svg11.dtd">
<!-- Generated by graphviz version 8.1.0 (20230707.0739)
 -->
<!-- Title: Slic3r::GUI::PartPlate::clear Pages: 1 -->
<!--zoomable 540 -->

<svg id="main" version="1.1" xmlns="http://www.w3.org/2000/svg" xmlns:xlink="http://www.w3.org/1999/xlink" xml:space="preserve" onload="init(evt)">
<style type="text/css"><![CDATA[
.node, .edge {opacity: 0.7;}
.node.selected, .edge.selected {opacity: 1;}
.edge:hover path { stroke: red; }
.edge:hover polygon { stroke: red; fill: red; }
]]></style>

<defs>
  <circle id="rim" cx="0" cy="0" r="7"/>
  <circle id="rim2" cx="0" cy="0" r="3.5"/>
  <g id="zoomPlus">
    <use xlink:href="#rim" fill="#404040"><set attributeName="fill" to="#808080" begin="zoomplus.mouseover" end="zoomplus.mouseout"/></use>
    <path d="M-4,0h8M0,-4v8" fill="none" stroke="white" stroke-width="1.5" pointer-events="none"/>
  </g>
  <g id="zoomMin">
    <use xlink:href="#rim" fill="#404040"><set attributeName="fill" to="#808080" begin="zoomminus.mouseover" end="zoomminus.mouseout"/></use>
    <path d="M-4,0h8" fill="none" stroke="white" stroke-width="1.5" pointer-events="none"/>
  </g>
  <g id="arrowUp" transform="translate(30 24)">
    <use xlink:href="#rim"/>
    <path pointer-events="none" fill="none" stroke="white" stroke-width="1.5" d="M0,-3.0v7 M-2.5,-0.5L0,-3.0L2.5,-0.5"/>
  </g>
  <g id="arrowRight" transform="rotate(90) translate(36 -43)">
    <use xlink:href="#rim"/>
    <path pointer-events="none" fill="none" stroke="white" stroke-width="1.5" d="M0,-3.0v7 M-2.5,-0.5L0,-3.0L2.5,-0.5"/>
  </g>
  <g id="arrowDown" transform="rotate(180) translate(-30 -48)">
    <use xlink:href="#rim"/>
    <path pointer-events="none" fill="none" stroke="white" stroke-width="1.5" d="M0,-3.0v7 M-2.5,-0.5L0,-3.0L2.5,-0.5"/>
  </g>
  <g id="arrowLeft" transform="rotate(270) translate(-36 17)">
    <use xlink:href="#rim"/>
    <path pointer-events="none" fill="none" stroke="white" stroke-width="1.5" d="M0,-3.0v7 M-2.5,-0.5L0,-3.0L2.5,-0.5"/>
  </g>
  <g id="resetDef">
    <use xlink:href="#rim2" fill="#404040"><set attributeName="fill" to="#808080" begin="reset.mouseover" end="reset.mouseout"/></use>
  </g>
</defs>
<script type="application/ecmascript">
var viewWidth = 1063;
var viewHeight = 540;
var sectionId = 'dynsection-27';
</script>
<script type="application/ecmascript" xlink:href="../../svg.min.js"/>
<svg id="graph" class="graph">
<g id="viewport">
<title>Slic3r::GUI::PartPlate::clear</title>
<!-- Node1 -->
<g id="Node000001" class="node">
<title>Node1</title>
<g id="a_Node000001"><a xlink:title=" ">
<polygon fill="#999999" stroke="#666666" points="1054.75,-271.5 943.5,-271.5 943.5,-241 1054.75,-241 1054.75,-271.5"/>
<text text-anchor="start" x="951.5" y="-258" font-family="Helvetica,sans-Serif" font-size="10.00">Slic3r::GUI::PartPlate</text>
<text text-anchor="middle" x="999.12" y="-246.75" font-family="Helvetica,sans-Serif" font-size="10.00">::clear</text>
</a>
</g>
</g>
<!-- Node2 -->
<g id="Node000002" class="node">
<title>Node2</title>
<g id="a_Node000002"><a xlink:href="../../d7/ddf/class_slic3r_1_1_g_u_i_1_1_part_plate.html#afd434086024d98600b4d4627fcca7ed7" target="_top" xlink:title=" ">
<polygon fill="white" stroke="#666666" points="899.62,-339.5 788.38,-339.5 788.38,-309 899.62,-309 899.62,-339.5"/>
<text text-anchor="start" x="796.38" y="-326" font-family="Helvetica,sans-Serif" font-size="10.00">Slic3r::GUI::PartPlate</text>
<text text-anchor="middle" x="844" y="-314.75" font-family="Helvetica,sans-Serif" font-size="10.00">::~PartPlate</text>
</a>
</g>
</g>
<!-- Node1&#45;&gt;Node2 -->
<g id="edge1_Node000001_Node000002" class="edge">
<title>Node1&#45;&gt;Node2</title>
<g id="a_edge1_Node000001_Node000002"><a xlink:title=" ">
<path fill="none" stroke="#63b8ff" d="M953.02,-276.28C929.78,-286.6 901.86,-299 880.23,-308.6"/>
<polygon fill="#63b8ff" stroke="#63b8ff" points="954.28,-279.11 962,-271.85 951.44,-272.71 954.28,-279.11"/>
</a>
</g>
</g>
<!-- Node3 -->
<g id="Node000003" class="node">
<title>Node3</title>
<g id="a_Node000003"><a xlink:href="../../d4/d7a/class_slic3r_1_1_g_u_i_1_1_part_plate_list.html#a7e533d6ef20e4ab07d8e147a4e1ceacd" target="_top" xlink:title=" ">
<polygon fill="white" stroke="#666666" points="744.5,-330.5 617.5,-330.5 617.5,-300 744.5,-300 744.5,-330.5"/>
<text text-anchor="start" x="625.5" y="-317" font-family="Helvetica,sans-Serif" font-size="10.00">Slic3r::GUI::PartPlateList</text>
<text text-anchor="middle" x="681" y="-305.75" font-family="Helvetica,sans-Serif" font-size="10.00">::clear</text>
</a>
</g>
</g>
<!-- Node1&#45;&gt;Node3 -->
<g id="edge2_Node000001_Node000003" class="edge">
<title>Node1&#45;&gt;Node3</title>
<g id="a_edge2_Node000001_Node000003"><a xlink:title=" ">
<path fill="none" stroke="#63b8ff" d="M932.36,-268.52C877.25,-278.81 799.11,-293.39 744.84,-303.52"/>
<polygon fill="#63b8ff" stroke="#63b8ff" points="932.87,-271.8 942.06,-266.53 931.59,-264.92 932.87,-271.8"/>
</a>
</g>
</g>
<!-- Node19 -->
<g id="Node000019" class="node">
<title>Node19</title>
<g id="a_Node000019"><a xlink:href="../../d4/d7a/class_slic3r_1_1_g_u_i_1_1_part_plate_list.html#a6da5cb93659b7464541d4328a369fb9b" target="_top" xlink:title=" ">
<polygon fill="white" stroke="#666666" points="907.5,-253.12 780.5,-253.12 780.5,-211.38 907.5,-211.38 907.5,-253.12"/>
<text text-anchor="start" x="788.5" y="-239.62" font-family="Helvetica,sans-Serif" font-size="10.00">Slic3r::GUI::PartPlateList</text>
<text text-anchor="start" x="788.5" y="-228.38" font-family="Helvetica,sans-Serif" font-size="10.00">::construct_objects_list</text>
<text text-anchor="middle" x="844" y="-217.12" font-family="Helvetica,sans-Serif" font-size="10.00">_for_new_plate</text>
</a>
</g>
</g>
<!-- Node1&#45;&gt;Node19 -->
<g id="edge24_Node000001_Node000019" class="edge">
<title>Node1&#45;&gt;Node19</title>
<g id="a_edge24_Node000001_Node000019"><a xlink:title=" ">
<path fill="none" stroke="#63b8ff" d="M932.6,-245.98C924.38,-244.69 915.98,-243.38 907.8,-242.09"/>
<polygon fill="#63b8ff" stroke="#63b8ff" points="931.85,-249.56 942.28,-247.65 932.94,-242.65 931.85,-249.56"/>
</a>
</g>
</g>
<!-- Node22 -->
<g id="Node000022" class="node">
<title>Node22</title>
<g id="a_Node000022"><a xlink:href="../../d7/ddf/class_slic3r_1_1_g_u_i_1_1_part_plate.html#a8f70497cbb7eb13c7747b950657068ae" target="_top" xlink:title=" ">
<polygon fill="white" stroke="#666666" points="899.62,-147.5 788.38,-147.5 788.38,-117 899.62,-117 899.62,-147.5"/>
<text text-anchor="start" x="796.38" y="-134" font-family="Helvetica,sans-Serif" font-size="10.00">Slic3r::GUI::PartPlate</text>
<text text-anchor="middle" x="844" y="-122.75" font-family="Helvetica,sans-Serif" font-size="10.00">::set_pos_and_size</text>
</a>
</g>
</g>
<!-- Node1&#45;&gt;Node22 -->
<g id="edge30_Node000001_Node000022" class="edge">
<title>Node1&#45;&gt;Node22</title>
<g id="a_edge30_Node000001_Node000022"><a xlink:title=" ">
<path fill="none" stroke="#63b8ff" d="M970.2,-233.63C939.48,-208.76 890.96,-169.47 864.24,-147.83"/>
<polygon fill="#63b8ff" stroke="#63b8ff" points="967.76,-236.97 977.73,-240.55 972.16,-231.53 967.76,-236.97"/>
</a>
</g>
</g>
<!-- Node4 -->
<g id="Node000004" class="node">
<title>Node4</title>
<g id="a_Node000004"><a xlink:href="../../d4/d7a/class_slic3r_1_1_g_u_i_1_1_part_plate_list.html#ab16099c5b0a2246b2d764f014c7fb055" target="_top" xlink:title=" ">
<polygon fill="white" stroke="#666666" points="581.5,-508.5 454.5,-508.5 454.5,-478 581.5,-478 581.5,-508.5"/>
<text text-anchor="start" x="462.5" y="-495" font-family="Helvetica,sans-Serif" font-size="10.00">Slic3r::GUI::PartPlateList</text>
<text text-anchor="middle" x="518" y="-483.75" font-family="Helvetica,sans-Serif" font-size="10.00">::~PartPlateList</text>
</a>
</g>
</g>
<!-- Node3&#45;&gt;Node4 -->
<g id="edge3_Node000003_Node000004" class="edge">
<title>Node3&#45;&gt;Node4</title>
<g id="a_edge3_Node000003_Node000004"><a xlink:title=" ">
<path fill="none" stroke="#63b8ff" d="M669.48,-340.91C654.54,-374.46 624.16,-433.06 581.5,-468.25 577.17,-471.82 572.27,-474.93 567.16,-477.63"/>
<polygon fill="#63b8ff" stroke="#63b8ff" points="673.03,-342.53 673.79,-331.96 666.6,-339.75 673.03,-342.53"/>
</a>
</g>
</g>
<!-- Node5 -->
<g id="Node000005" class="node">
<title>Node5</title>
<g id="a_Node000005"><a xlink:href="../../da/dc0/class_slic3r_1_1_g_u_i_1_1_arrange_job.html#a59253d6bb50c0d2fa636de2cbd6c496b" target="_top" xlink:title=" ">
<polygon fill="white" stroke="#666666" points="204.88,-206.5 84.62,-206.5 84.62,-176 204.88,-176 204.88,-206.5"/>
<text text-anchor="start" x="92.62" y="-193" font-family="Helvetica,sans-Serif" font-size="10.00">Slic3r::GUI::ArrangeJob</text>
<text text-anchor="middle" x="144.75" y="-181.75" font-family="Helvetica,sans-Serif" font-size="10.00">::finalize</text>
</a>
</g>
</g>
<!-- Node3&#45;&gt;Node5 -->
<g id="edge4_Node000003_Node000005" class="edge">
<title>Node3&#45;&gt;Node5</title>
<g id="a_edge4_Node000003_Node000005"><a xlink:title=" ">
<path fill="none" stroke="#63b8ff" d="M634.88,-295.14C572.06,-267.5 461.18,-220.05 418.5,-210.25 346.44,-193.71 261.11,-190.26 205.32,-190.1"/>
<polygon fill="#63b8ff" stroke="#63b8ff" points="633.34,-298.73 643.9,-299.56 636.16,-292.32 633.34,-298.73"/>
</a>
</g>
</g>
<!-- Node6 -->
<g id="Node000006" class="node">
<title>Node6</title>
<g id="a_Node000006"><a xlink:href="../../d4/d7a/class_slic3r_1_1_g_u_i_1_1_part_plate_list.html#a570f1ba4fbd09826dc0449cae35b4996" target="_top" xlink:title=" ">
<polygon fill="white" stroke="#666666" points="400.5,-384.5 270.5,-384.5 270.5,-354 400.5,-354 400.5,-384.5"/>
<text text-anchor="start" x="278.5" y="-371" font-family="Helvetica,sans-Serif" font-size="10.00">Slic3r::GUI::PartPlateList</text>
<text text-anchor="middle" x="335.5" y="-359.75" font-family="Helvetica,sans-Serif" font-size="10.00">::load_from_3mf_structure</text>
</a>
</g>
</g>
<!-- Node3&#45;&gt;Node6 -->
<g id="edge5_Node000003_Node000006" class="edge">
<title>Node3&#45;&gt;Node6</title>
<g id="a_edge5_Node000003_Node000006"><a xlink:title=" ">
<path fill="none" stroke="#63b8ff" d="M655.67,-337.99C636.97,-353.82 609.66,-373.58 581.5,-382.25 522.27,-400.49 451.22,-393.79 400.93,-384.62"/>
<polygon fill="#63b8ff" stroke="#63b8ff" points="657.64,-340.04 662.87,-330.82 653.04,-334.77 657.64,-340.04"/>
</a>
</g>
</g>
<!-- Node7 -->
<g id="Node000007" class="node">
<title>Node7</title>
<g id="a_Node000007"><a xlink:href="../../de/d33/class_slic3r_1_1_c_l_i.html#a04fb4429030d98de51a297066a116dcb" target="_top" xlink:title=" ">
<polygon fill="white" stroke="#666666" points="185.75,-286.88 103.75,-286.88 103.75,-267.62 185.75,-267.62 185.75,-286.88"/>
<text text-anchor="middle" x="144.75" y="-273.38" font-family="Helvetica,sans-Serif" font-size="10.00">Slic3r::CLI::run</text>
</a>
</g>
</g>
<!-- Node3&#45;&gt;Node7 -->
<g id="edge23_Node000003_Node000007" class="edge">
<title>Node3&#45;&gt;Node7</title>
<g id="a_edge23_Node000003_Node000007"><a xlink:title=" ">
<path fill="none" stroke="#63b8ff" d="M606.26,-309.83C553.87,-306 481.87,-300.76 418.5,-296.25 335.88,-290.37 239.16,-283.68 185.96,-280.01"/>
<polygon fill="#63b8ff" stroke="#63b8ff" points="605.9,-313.39 616.13,-310.63 606.41,-306.41 605.9,-313.39"/>
</a>
</g>
</g>
<!-- Node9 -->
<g id="Node000009" class="node">
<title>Node9</title>
<g id="a_Node000009"><a xlink:href="../../d4/d7a/class_slic3r_1_1_g_u_i_1_1_part_plate_list.html#aa273bb40be58baa2360a166a03e880fa" target="_top" xlink:title=" ">
<polygon fill="white" stroke="#666666" points="581.5,-211.5 454.5,-211.5 454.5,-181 581.5,-181 581.5,-211.5"/>
<text text-anchor="start" x="462.5" y="-198" font-family="Helvetica,sans-Serif" font-size="10.00">Slic3r::GUI::PartPlateList</text>
<text text-anchor="middle" x="518" y="-186.75" font-family="Helvetica,sans-Serif" font-size="10.00">::reinit</text>
</a>
</g>
</g>
<!-- Node3&#45;&gt;Node9 -->
<g id="edge8_Node000003_Node000009" class="edge">
<title>Node3&#45;&gt;Node9</title>
<g id="a_edge8_Node000003_Node000009"><a xlink:title=" ">
<path fill="none" stroke="#63b8ff" d="M658.39,-291.84C639.46,-272.28 610.52,-244.57 581.5,-225.25 574.13,-220.34 565.8,-215.85 557.68,-211.94"/>
<polygon fill="#63b8ff" stroke="#63b8ff" points="655.42,-293.85 664.86,-298.67 660.49,-289.02 655.42,-293.85"/>
</a>
</g>
</g>
<!-- Node10 -->
<g id="Node000010" class="node">
<title>Node10</title>
<g id="a_Node000010"><a xlink:href="../../d4/d7a/class_slic3r_1_1_g_u_i_1_1_part_plate_list.html#aa6b1bbf70ca9194f2ad27baf6b345dea" target="_top" xlink:title=" ">
<polygon fill="white" stroke="#666666" points="581.5,-373.5 454.5,-373.5 454.5,-343 581.5,-343 581.5,-373.5"/>
<text text-anchor="start" x="462.5" y="-360" font-family="Helvetica,sans-Serif" font-size="10.00">Slic3r::GUI::PartPlateList</text>
<text text-anchor="middle" x="518" y="-348.75" font-family="Helvetica,sans-Serif" font-size="10.00">::reload_all_objects</text>
</a>
</g>
</g>
<!-- Node3&#45;&gt;Node10 -->
<g id="edge9_Node000003_Node000010" class="edge">
<title>Node3&#45;&gt;Node10</title>
<g id="a_edge9_Node000003_Node000010"><a xlink:title=" ">
<path fill="none" stroke="#63b8ff" d="M610.95,-333.69C599.91,-336.64 588.58,-339.67 577.81,-342.54"/>
<polygon fill="#63b8ff" stroke="#63b8ff" points="611.66,-336.86 620.42,-330.9 609.86,-330.09 611.66,-336.86"/>
</a>
</g>
</g>
<!-- Node14 -->
<g id="Node000014" class="node">
<title>Node14</title>
<g id="a_Node000014"><a xlink:href="../../d4/d7a/class_slic3r_1_1_g_u_i_1_1_part_plate_list.html#acb4133e323845b88814734847a6b3282" target="_top" xlink:title=" ">
<polygon fill="white" stroke="#666666" points="399,-335.5 272,-335.5 272,-305 399,-305 399,-335.5"/>
<text text-anchor="start" x="280" y="-322" font-family="Helvetica,sans-Serif" font-size="10.00">Slic3r::GUI::PartPlateList</text>
<text text-anchor="middle" x="335.5" y="-310.75" font-family="Helvetica,sans-Serif" font-size="10.00">::reset_size</text>
</a>
</g>
</g>
<!-- Node3&#45;&gt;Node14 -->
<g id="edge22_Node000003_Node000014" class="edge">
<title>Node3&#45;&gt;Node14</title>
<g id="a_edge22_Node000003_Node000014"><a xlink:title=" ">
<path fill="none" stroke="#63b8ff" d="M606.57,-316.32C544.9,-317.22 457.72,-318.49 399.25,-319.34"/>
<polygon fill="#63b8ff" stroke="#63b8ff" points="606.45,-319.81 616.4,-316.16 606.35,-312.81 606.45,-319.81"/>
</a>
</g>
</g>
<!-- Node15 -->
<g id="Node000015" class="node">
<title>Node15</title>
<g id="a_Node000015"><a xlink:href="../../d4/d7a/class_slic3r_1_1_g_u_i_1_1_part_plate_list.html#aa0ca817be19b37b969f723ee4e5d59aa" target="_top" xlink:title=" ">
<polygon fill="white" stroke="#666666" points="581.5,-459.5 454.5,-459.5 454.5,-429 581.5,-429 581.5,-459.5"/>
<text text-anchor="start" x="462.5" y="-446" font-family="Helvetica,sans-Serif" font-size="10.00">Slic3r::GUI::PartPlateList</text>
<text text-anchor="middle" x="518" y="-434.75" font-family="Helvetica,sans-Serif" font-size="10.00">::reset</text>
</a>
</g>
</g>
<!-- Node3&#45;&gt;Node15 -->
<g id="edge18_Node000003_Node000015" class="edge">
<title>Node3&#45;&gt;Node15</title>
<g id="a_edge18_Node000003_Node000015"><a xlink:title=" ">
<path fill="none" stroke="#63b8ff" d="M660.72,-339.27C642.19,-361.19 612.49,-393.42 581.5,-415.25 574.46,-420.21 566.43,-424.67 558.54,-428.53"/>
<polygon fill="#63b8ff" stroke="#63b8ff" points="664.02,-341.77 667.72,-331.85 658.64,-337.3 664.02,-341.77"/>
</a>
</g>
</g>
<!-- Node6&#45;&gt;Node7 -->
<g id="edge6_Node000006_Node000007" class="edge">
<title>Node6&#45;&gt;Node7</title>
<g id="a_edge6_Node000006_Node000007"><a xlink:title=" ">
<path fill="none" stroke="#63b8ff" d="M265.89,-349.83C261.31,-348.08 256.81,-346.22 252.5,-344.25 216.87,-327.99 178.88,-301.71 159.24,-287.37"/>
<polygon fill="#63b8ff" stroke="#63b8ff" points="264.41,-353.38 275,-353.5 266.79,-346.8 264.41,-353.38"/>
</a>
</g>
</g>
<!-- Node8 -->
<g id="Node000008" class="node">
<title>Node8</title>
<g id="a_Node000008"><a xlink:href="../../d8/de2/_orca_slicer_8cpp.html#a3c04138a5bfe5d72780bb7e82a18e627" target="_top" xlink:title=" ">
<polygon fill="white" stroke="#666666" points="37,-286.88 0,-286.88 0,-267.62 37,-267.62 37,-286.88"/>
<text text-anchor="middle" x="18.5" y="-273.38" font-family="Helvetica,sans-Serif" font-size="10.00">main</text>
</a>
</g>
</g>
<!-- Node7&#45;&gt;Node8 -->
<g id="edge7_Node000007_Node000008" class="edge">
<title>Node7&#45;&gt;Node8</title>
<g id="a_edge7_Node000007_Node000008"><a xlink:title=" ">
<path fill="none" stroke="#63b8ff" d="M92.45,-277.25C72.9,-277.25 51.89,-277.25 37.46,-277.25"/>
<polygon fill="#63b8ff" stroke="#63b8ff" points="92.41,-280.75 102.41,-277.25 92.41,-273.75 92.41,-280.75"/>
</a>
</g>
</g>
<!-- Node10&#45;&gt;Node6 -->
<g id="edge10_Node000010_Node000006" class="edge">
<title>Node10&#45;&gt;Node6</title>
<g id="a_edge10_Node000010_Node000006"><a xlink:title=" ">
<path fill="none" stroke="#63b8ff" d="M443.49,-362.73C429.41,-363.59 414.76,-364.48 400.99,-365.32"/>
<polygon fill="#63b8ff" stroke="#63b8ff" points="443.35,-366.18 453.12,-362.08 442.93,-359.2 443.35,-366.18"/>
</a>
</g>
</g>
<!-- Node11 -->
<g id="Node000011" class="node">
<title>Node11</title>
<g id="a_Node000011"><a xlink:href="../../dd/d03/class_slic3r_1_1_g_u_i_1_1_object_list.html#a9daef95c2364c6f0f104c2e6eab84002" target="_top" xlink:title=" ">
<polygon fill="white" stroke="#666666" points="393,-433.5 278,-433.5 278,-403 393,-403 393,-433.5"/>
<text text-anchor="start" x="286" y="-420" font-family="Helvetica,sans-Serif" font-size="10.00">Slic3r::GUI::ObjectList</text>
<text text-anchor="middle" x="335.5" y="-408.75" font-family="Helvetica,sans-Serif" font-size="10.00">::OnDrop</text>
</a>
</g>
</g>
<!-- Node10&#45;&gt;Node11 -->
<g id="edge11_Node000010_Node000011" class="edge">
<title>Node10&#45;&gt;Node11</title>
<g id="a_edge11_Node000010_Node000011"><a xlink:title=" ">
<path fill="none" stroke="#63b8ff" d="M464.47,-377.41C449.65,-382.68 433.48,-388.31 418.5,-393.25 409.03,-396.37 398.9,-399.58 389.11,-402.6"/>
<polygon fill="#63b8ff" stroke="#63b8ff" points="465.24,-380.5 473.48,-373.84 462.89,-373.91 465.24,-380.5"/>
</a>
</g>
</g>
<!-- Node13 -->
<g id="Node000013" class="node">
<title>Node13</title>
<g id="a_Node000013"><a xlink:href="../../d4/d7a/class_slic3r_1_1_g_u_i_1_1_part_plate_list.html#a4fc4b81775d18d29def824580d53744e" target="_top" xlink:title=" ">
<polygon fill="white" stroke="#666666" points="418.5,-249.5 252.5,-249.5 252.5,-219 418.5,-219 418.5,-249.5"/>
<text text-anchor="start" x="260.5" y="-236" font-family="Helvetica,sans-Serif" font-size="10.00">Slic3r::GUI::PartPlateList</text>
<text text-anchor="middle" x="335.5" y="-224.75" font-family="Helvetica,sans-Serif" font-size="10.00">::rebuild_plates_after_arrangement</text>
</a>
</g>
</g>
<!-- Node10&#45;&gt;Node13 -->
<g id="edge13_Node000010_Node000013" class="edge">
<title>Node10&#45;&gt;Node13</title>
<g id="a_edge13_Node000010_Node000013"><a xlink:title=" ">
<path fill="none" stroke="#63b8ff" d="M485.47,-336.59C449.35,-311.78 391.08,-271.75 359.17,-249.83"/>
<polygon fill="#63b8ff" stroke="#63b8ff" points="482.92,-339.77 493.14,-342.55 486.88,-334 482.92,-339.77"/>
</a>
</g>
</g>
<!-- Node10&#45;&gt;Node14 -->
<g id="edge16_Node000010_Node000014" class="edge">
<title>Node10&#45;&gt;Node14</title>
<g id="a_edge16_Node000010_Node000014"><a xlink:title=" ">
<path fill="none" stroke="#63b8ff" d="M443.6,-342.8C428.96,-339.71 413.71,-336.5 399.46,-333.5"/>
<polygon fill="#63b8ff" stroke="#63b8ff" points="442.62,-346.38 453.12,-345.01 444.06,-339.53 442.62,-346.38"/>
</a>
</g>
</g>
<!-- Node12 -->
<g id="Node000012" class="node">
<title>Node12</title>
<g id="a_Node000012"><a xlink:href="../../dd/d03/class_slic3r_1_1_g_u_i_1_1_object_list.html#a6fbab7869374ead2e6dd74577d72645c" target="_top" xlink:title=" ">
<polygon fill="white" stroke="#666666" points="202.25,-433.5 87.25,-433.5 87.25,-403 202.25,-403 202.25,-433.5"/>
<text text-anchor="start" x="95.25" y="-420" font-family="Helvetica,sans-Serif" font-size="10.00">Slic3r::GUI::ObjectList</text>
<text text-anchor="middle" x="144.75" y="-408.75" font-family="Helvetica,sans-Serif" font-size="10.00">::ObjectList</text>
</a>
</g>
</g>
<!-- Node11&#45;&gt;Node12 -->
<g id="edge12_Node000011_Node000012" class="edge">
<title>Node11&#45;&gt;Node12</title>
<g id="a_edge12_Node000011_Node000012"><a xlink:title=" ">
<path fill="none" stroke="#63b8ff" d="M266.8,-418.25C245.74,-418.25 222.75,-418.25 202.52,-418.25"/>
<polygon fill="#63b8ff" stroke="#63b8ff" points="266.61,-421.75 276.61,-418.25 266.61,-414.75 266.61,-421.75"/>
</a>
</g>
</g>
<!-- Node13&#45;&gt;Node5 -->
<g id="edge14_Node000013_Node000005" class="edge">
<title>Node13&#45;&gt;Node5</title>
<g id="a_edge14_Node000013_Node000005"><a xlink:title=" ">
<path fill="none" stroke="#63b8ff" d="M255.22,-216.19C238.46,-212.37 221.05,-208.4 205.17,-204.79"/>
<polygon fill="#63b8ff" stroke="#63b8ff" points="254.03,-219.73 264.56,-218.54 255.58,-212.91 254.03,-219.73"/>
</a>
</g>
</g>
<!-- Node13&#45;&gt;Node7 -->
<g id="edge15_Node000013_Node000007" class="edge">
<title>Node13&#45;&gt;Node7</title>
<g id="a_edge15_Node000013_Node000007"><a xlink:title=" ">
<path fill="none" stroke="#63b8ff" d="M255.08,-252.34C231.26,-257.77 206.13,-263.49 185.98,-268.09"/>
<polygon fill="#63b8ff" stroke="#63b8ff" points="255.58,-255.59 264.56,-249.96 254.03,-248.77 255.58,-255.59"/>
</a>
</g>
</g>
<!-- Node14&#45;&gt;Node7 -->
<g id="edge17_Node000014_Node000007" class="edge">
<title>Node14&#45;&gt;Node7</title>
<g id="a_edge17_Node000014_Node000007"><a xlink:title=" ">
<path fill="none" stroke="#63b8ff" d="M261.24,-303.56C235.7,-297.74 207.98,-291.43 186.11,-286.44"/>
<polygon fill="#63b8ff" stroke="#63b8ff" points="260.12,-307.12 270.65,-305.93 261.68,-300.3 260.12,-307.12"/>
</a>
</g>
</g>
<!-- Node16 -->
<g id="Node000016" class="node">
<title>Node16</title>
<g id="a_Node000016"><a xlink:href="../../d4/d2a/class_slic3r_1_1_undo_redo_1_1_stack_impl.html#ae73a07f43a6e90862eb30795bbc179ad" target="_top" xlink:title=" ">
<polygon fill="white" stroke="#666666" points="407.25,-482.5 263.75,-482.5 263.75,-452 407.25,-452 407.25,-482.5"/>
<text text-anchor="start" x="271.75" y="-469" font-family="Helvetica,sans-Serif" font-size="10.00">Slic3r::UndoRedo::StackImpl</text>
<text text-anchor="middle" x="335.5" y="-457.75" font-family="Helvetica,sans-Serif" font-size="10.00">::load_snapshot</text>
</a>
</g>
</g>
<!-- Node15&#45;&gt;Node16 -->
<g id="edge19_Node000015_Node000016" class="edge">
<title>Node15&#45;&gt;Node16</title>
<g id="a_edge19_Node000015_Node000016"><a xlink:title=" ">
<path fill="none" stroke="#63b8ff" d="M443.38,-453.63C431.52,-455.14 419.28,-456.7 407.49,-458.2"/>
<polygon fill="#63b8ff" stroke="#63b8ff" points="443.65,-457 453.12,-452.26 442.76,-450.05 443.65,-457"/>
</a>
</g>
</g>
<!-- Node17 -->
<g id="Node000017" class="node">
<title>Node17</title>
<g id="a_Node000017"><a xlink:href="../../d4/d2a/class_slic3r_1_1_undo_redo_1_1_stack_impl.html#a6f203d81acb7522e9da7f2c989f58473" target="_top" xlink:title=" ">
<polygon fill="white" stroke="#666666" points="216.5,-531.5 73,-531.5 73,-501 216.5,-501 216.5,-531.5"/>
<text text-anchor="start" x="81" y="-518" font-family="Helvetica,sans-Serif" font-size="10.00">Slic3r::UndoRedo::StackImpl</text>
<text text-anchor="middle" x="144.75" y="-506.75" font-family="Helvetica,sans-Serif" font-size="10.00">::redo</text>
</a>
</g>
</g>
<!-- Node16&#45;&gt;Node17 -->
<g id="edge20_Node000016_Node000017" class="edge">
<title>Node16&#45;&gt;Node17</title>
<g id="a_edge20_Node000016_Node000017"><a xlink:title=" ">
<path fill="none" stroke="#63b8ff" d="M263.4,-485.71C244.57,-490.6 224.43,-495.82 206.23,-500.55"/>
<polygon fill="#63b8ff" stroke="#63b8ff" points="264.2,-488.86 273,-482.96 262.44,-482.08 264.2,-488.86"/>
</a>
</g>
</g>
<!-- Node18 -->
<g id="Node000018" class="node">
<title>Node18</title>
<g id="a_Node000018"><a xlink:href="../../d4/d2a/class_slic3r_1_1_undo_redo_1_1_stack_impl.html#a184150f2fce5c051fa993d0a0e732548" target="_top" xlink:title=" ">
<polygon fill="white" stroke="#666666" points="216.5,-482.5 73,-482.5 73,-452 216.5,-452 216.5,-482.5"/>
<text text-anchor="start" x="81" y="-469" font-family="Helvetica,sans-Serif" font-size="10.00">Slic3r::UndoRedo::StackImpl</text>
<text text-anchor="middle" x="144.75" y="-457.75" font-family="Helvetica,sans-Serif" font-size="10.00">::undo</text>
</a>
</g>
</g>
<!-- Node16&#45;&gt;Node18 -->
<g id="edge21_Node000016_Node000018" class="edge">
<title>Node16&#45;&gt;Node18</title>
<g id="a_edge21_Node000016_Node000018"><a xlink:title=" ">
<path fill="none" stroke="#63b8ff" d="M252.56,-467.25C240.64,-467.25 228.45,-467.25 216.78,-467.25"/>
<polygon fill="#63b8ff" stroke="#63b8ff" points="252.41,-470.75 262.41,-467.25 252.41,-463.75 252.41,-470.75"/>
</a>
</g>
</g>
<!-- Node20 -->
<g id="Node000020" class="node">
<title>Node20</title>
<g id="a_Node000020"><a xlink:href="../../d4/d7a/class_slic3r_1_1_g_u_i_1_1_part_plate_list.html#abeea5aae1ff618bf0b3a6819b5045a14" target="_top" xlink:title=" ">
<polygon fill="white" stroke="#666666" points="581.5,-162.5 454.5,-162.5 454.5,-132 581.5,-132 581.5,-162.5"/>
<text text-anchor="start" x="462.5" y="-149" font-family="Helvetica,sans-Serif" font-size="10.00">Slic3r::GUI::PartPlateList</text>
<text text-anchor="middle" x="518" y="-137.75" font-family="Helvetica,sans-Serif" font-size="10.00">::create_plate</text>
</a>
</g>
</g>
<!-- Node19&#45;&gt;Node20 -->
<g id="edge25_Node000019_Node000020" class="edge">
<title>Node19&#45;&gt;Node20</title>
<g id="a_edge25_Node000019_Node000020"><a xlink:title=" ">
<path fill="none" stroke="#63b8ff" d="M769.65,-213.01C712.03,-197.89 632.8,-177.1 578.94,-162.98"/>
<polygon fill="#63b8ff" stroke="#63b8ff" points="768.58,-216.61 779.15,-215.76 770.36,-209.84 768.58,-216.61"/>
</a>
</g>
</g>
<!-- Node20&#45;&gt;Node6 -->
<g id="edge26_Node000020_Node000006" class="edge">
<title>Node20&#45;&gt;Node6</title>
<g id="a_edge26_Node000020_Node000006"><a xlink:title=" ">
<path fill="none" stroke="#63b8ff" d="M456.55,-169.97C455.84,-170.71 455.16,-171.47 454.5,-172.25 404.29,-232.07 471.2,-286.61 418.5,-344.25 413.58,-349.63 407.54,-353.87 400.99,-357.2"/>
<polygon fill="#63b8ff" stroke="#63b8ff" points="458.55,-172.04 464.02,-162.96 454.09,-166.64 458.55,-172.04"/>
</a>
</g>
</g>
<!-- Node21 -->
<g id="Node000021" class="node">
<title>Node21</title>
<g id="a_Node000021"><a xlink:href="../../d4/d7a/class_slic3r_1_1_g_u_i_1_1_part_plate_list.html#acafad56234f3a9a854fc779797a70376" target="_top" xlink:title=" ">
<polygon fill="white" stroke="#666666" points="399,-163.12 272,-163.12 272,-121.38 399,-121.38 399,-163.12"/>
<text text-anchor="start" x="280" y="-149.62" font-family="Helvetica,sans-Serif" font-size="10.00">Slic3r::GUI::PartPlateList</text>
<text text-anchor="start" x="280" y="-138.38" font-family="Helvetica,sans-Serif" font-size="10.00">::postprocess_bed_index</text>
<text text-anchor="middle" x="335.5" y="-127.12" font-family="Helvetica,sans-Serif" font-size="10.00">_for_selected</text>
</a>
</g>
</g>
<!-- Node20&#45;&gt;Node21 -->
<g id="edge27_Node000020_Node000021" class="edge">
<title>Node20&#45;&gt;Node21</title>
<g id="a_edge27_Node000020_Node000021"><a xlink:title=" ">
<path fill="none" stroke="#63b8ff" d="M443.17,-145.2C428.66,-144.8 413.57,-144.38 399.46,-143.99"/>
<polygon fill="#63b8ff" stroke="#63b8ff" points="443.03,-148.73 453.12,-145.51 443.22,-141.73 443.03,-148.73"/>
</a>
</g>
</g>
<!-- Node21&#45;&gt;Node5 -->
<g id="edge28_Node000021_Node000005" class="edge">
<title>Node21&#45;&gt;Node5</title>
<g id="a_edge28_Node000021_Node000005"><a xlink:title=" ">
<path fill="none" stroke="#63b8ff" d="M261.18,-161.29C242.61,-166.1 222.91,-171.22 205.13,-175.83"/>
<polygon fill="#63b8ff" stroke="#63b8ff" points="261.85,-164.47 270.65,-158.57 260.09,-157.69 261.85,-164.47"/>
</a>
</g>
</g>
<!-- Node21&#45;&gt;Node7 -->
<g id="edge29_Node000021_Node000007" class="edge">
<title>Node21&#45;&gt;Node7</title>
<g id="a_edge29_Node000021_Node000007"><a xlink:title=" ">
<path fill="none" stroke="#63b8ff" d="M296.12,-169.7C253.91,-199.89 188.31,-246.81 159.78,-267.21"/>
<polygon fill="#63b8ff" stroke="#63b8ff" points="297.91,-172.01 304.01,-163.34 293.84,-166.31 297.91,-172.01"/>
</a>
</g>
</g>
<!-- Node22&#45;&gt;Node9 -->
<g id="edge36_Node000022_Node000009" class="edge">
<title>Node22&#45;&gt;Node9</title>
<g id="a_edge36_Node000022_Node000009"><a xlink:title=" ">
<path fill="none" stroke="#63b8ff" d="M777.65,-147.19C766.6,-149.62 755.23,-152.05 744.5,-154.25 689.69,-165.47 627.12,-177.03 581.81,-185.17"/>
<polygon fill="#63b8ff" stroke="#63b8ff" points="778.1,-150.45 787.11,-144.87 776.59,-143.62 778.1,-150.45"/>
</a>
</g>
</g>
<!-- Node22&#45;&gt;Node20 -->
<g id="edge31_Node000022_Node000020" class="edge">
<title>Node22&#45;&gt;Node20</title>
<g id="a_edge31_Node000022_Node000020"><a xlink:title=" ">
<path fill="none" stroke="#63b8ff" d="M777.24,-135.65C766.3,-136.19 755.08,-136.75 744.5,-137.25 689.5,-139.87 626.95,-142.62 581.7,-144.58"/>
<polygon fill="#63b8ff" stroke="#63b8ff" points="777.23,-139.1 787.04,-135.1 776.88,-132.11 777.23,-139.1"/>
</a>
</g>
</g>
<!-- Node23 -->
<g id="Node000023" class="node">
<title>Node23</title>
<g id="a_Node000023"><a xlink:href="../../d4/d7a/class_slic3r_1_1_g_u_i_1_1_part_plate_list.html#aa8c5f5e990a5c632d9b47ead7fd978f6" target="_top" xlink:title=" ">
<polygon fill="white" stroke="#666666" points="581.5,-76.5 454.5,-76.5 454.5,-46 581.5,-46 581.5,-76.5"/>
<text text-anchor="start" x="462.5" y="-63" font-family="Helvetica,sans-Serif" font-size="10.00">Slic3r::GUI::PartPlateList</text>
<text text-anchor="middle" x="518" y="-51.75" font-family="Helvetica,sans-Serif" font-size="10.00">::delete_plate</text>
</a>
</g>
</g>
<!-- Node22&#45;&gt;Node23 -->
<g id="edge32_Node000022_Node000023" class="edge">
<title>Node22&#45;&gt;Node23</title>
<g id="a_edge32_Node000022_Node000023"><a xlink:title=" ">
<path fill="none" stroke="#63b8ff" d="M812.65,-110.7C793.93,-98.61 768.9,-84.53 744.5,-77.25 691.1,-61.31 627.56,-58.13 581.56,-58.46"/>
<polygon fill="#63b8ff" stroke="#63b8ff" points="810.3,-114 820.56,-116.61 814.17,-108.16 810.3,-114"/>
</a>
</g>
</g>
<!-- Node25 -->
<g id="Node000025" class="node">
<title>Node25</title>
<g id="a_Node000025"><a xlink:href="../../d4/d7a/class_slic3r_1_1_g_u_i_1_1_part_plate_list.html#aaaded6bcfb4b02e6429ee07bdbde25ed" target="_top" xlink:title=" ">
<polygon fill="white" stroke="#666666" points="744.5,-30.5 617.5,-30.5 617.5,0 744.5,0 744.5,-30.5"/>
<text text-anchor="start" x="625.5" y="-17" font-family="Helvetica,sans-Serif" font-size="10.00">Slic3r::GUI::PartPlateList</text>
<text text-anchor="middle" x="681" y="-5.75" font-family="Helvetica,sans-Serif" font-size="10.00">::move_plate_to_index</text>
</a>
</g>
</g>
<!-- Node22&#45;&gt;Node25 -->
<g id="edge35_Node000022_Node000025" class="edge">
<title>Node22&#45;&gt;Node25</title>
<g id="a_edge35_Node000022_Node000025"><a xlink:title=" ">
<path fill="none" stroke="#63b8ff" d="M820.96,-109.06C801.97,-89.98 773.17,-63.1 744.5,-44.25 737,-39.32 728.54,-34.79 720.31,-30.85"/>
<polygon fill="#63b8ff" stroke="#63b8ff" points="817.97,-111.03 827.47,-115.71 822.96,-106.12 817.97,-111.03"/>
</a>
</g>
</g>
<!-- Node26 -->
<g id="Node000026" class="node">
<title>Node26</title>
<g id="a_Node000026"><a xlink:href="../../d4/d7a/class_slic3r_1_1_g_u_i_1_1_part_plate_list.html#a3ea0af14874519814d3f040f1cce73f2" target="_top" xlink:title=" ">
<polygon fill="white" stroke="#666666" points="744.5,-128.12 617.5,-128.12 617.5,-86.38 744.5,-86.38 744.5,-128.12"/>
<text text-anchor="start" x="625.5" y="-114.62" font-family="Helvetica,sans-Serif" font-size="10.00">Slic3r::GUI::PartPlateList</text>
<text text-anchor="start" x="625.5" y="-103.38" font-family="Helvetica,sans-Serif" font-size="10.00">::update_all_plates_pos</text>
<text text-anchor="middle" x="681" y="-92.12" font-family="Helvetica,sans-Serif" font-size="10.00">_and_size</text>
</a>
</g>
</g>
<!-- Node22&#45;&gt;Node26 -->
<g id="edge37_Node000022_Node000026" class="edge">
<title>Node22&#45;&gt;Node26</title>
<g id="a_edge37_Node000022_Node000026"><a xlink:title=" ">
<path fill="none" stroke="#63b8ff" d="M777.41,-122.06C766.62,-120.39 755.46,-118.66 744.74,-116.99"/>
<polygon fill="#63b8ff" stroke="#63b8ff" points="776.62,-125.64 787.04,-123.72 777.7,-118.72 776.62,-125.64"/>
</a>
</g>
</g>
<!-- Node23&#45;&gt;Node13 -->
<g id="edge34_Node000023_Node000013" class="edge">
<title>Node23&#45;&gt;Node13</title>
<g id="a_edge34_Node000023_Node000013"><a xlink:title=" ">
<path fill="none" stroke="#63b8ff" d="M463.62,-82.52C460.34,-84.86 457.26,-87.44 454.5,-90.25 426.65,-118.68 443.17,-141.02 418.5,-172.25 403.45,-191.3 381.25,-207.6 363.74,-218.71"/>
<polygon fill="#63b8ff" stroke="#63b8ff" points="465.05,-85.12 471.66,-76.84 461.33,-79.2 465.05,-85.12"/>
</a>
</g>
</g>
<!-- Node24 -->
<g id="Node000024" class="node">
<title>Node24</title>
<g id="a_Node000024"><a xlink:href="../../d4/d7a/class_slic3r_1_1_g_u_i_1_1_part_plate_list.html#a16129e6e95e98b3044839057d2da21e8" target="_top" xlink:title=" ">
<polygon fill="white" stroke="#666666" points="399,-76.5 272,-76.5 272,-46 399,-46 399,-76.5"/>
<text text-anchor="start" x="280" y="-63" font-family="Helvetica,sans-Serif" font-size="10.00">Slic3r::GUI::PartPlateList</text>
<text text-anchor="middle" x="335.5" y="-51.75" font-family="Helvetica,sans-Serif" font-size="10.00">::delete_selected_plate</text>
</a>
</g>
</g>
<!-- Node23&#45;&gt;Node24 -->
<g id="edge33_Node000023_Node000024" class="edge">
<title>Node23&#45;&gt;Node24</title>
<g id="a_edge33_Node000023_Node000024"><a xlink:title=" ">
<path fill="none" stroke="#63b8ff" d="M443.17,-61.25C428.66,-61.25 413.57,-61.25 399.46,-61.25"/>
<polygon fill="#63b8ff" stroke="#63b8ff" points="443.12,-64.75 453.12,-61.25 443.12,-57.75 443.12,-64.75"/>
</a>
</g>
</g>
<!-- Node26&#45;&gt;Node14 -->
<g id="edge40_Node000026_Node000014" class="edge">
<title>Node26&#45;&gt;Node14</title>
<g id="a_edge40_Node000026_Node000014"><a xlink:title=" ">
<path fill="none" stroke="#63b8ff" d="M606.38,-92.25C557.94,-86.82 496.06,-88.91 454.5,-123.25 406.63,-162.8 453.15,-206.72 418.5,-258.25 405.25,-277.95 383.64,-293.91 365.93,-304.71"/>
<polygon fill="#63b8ff" stroke="#63b8ff" points="605.76,-95.83 616.12,-93.6 606.63,-88.88 605.76,-95.83"/>
</a>
</g>
</g>
<!-- Node26&#45;&gt;Node20 -->
<g id="edge38_Node000026_Node000020" class="edge">
<title>Node26&#45;&gt;Node20</title>
<g id="a_edge38_Node000026_Node000020"><a xlink:title=" ">
<path fill="none" stroke="#63b8ff" d="M606.8,-125.44C598.45,-127.51 590,-129.61 581.8,-131.65"/>
<polygon fill="#63b8ff" stroke="#63b8ff" points="607.43,-128.64 616.29,-122.83 605.74,-121.84 607.43,-128.64"/>
</a>
</g>
</g>
<!-- Node26&#45;&gt;Node23 -->
<g id="edge39_Node000026_Node000023" class="edge">
<title>Node26&#45;&gt;Node23</title>
<g id="a_edge39_Node000026_Node000023"><a xlink:title=" ">
<path fill="none" stroke="#63b8ff" d="M606.79,-86.33C595.75,-83.18 584.52,-79.97 573.95,-76.95"/>
<polygon fill="#63b8ff" stroke="#63b8ff" points="605.72,-89.95 616.29,-89.33 607.64,-83.22 605.72,-89.95"/>
</a>
</g>
</g>
</g>
</svg>

<g id="navigator" transform="translate(0 0)" fill="#404254">
  <rect fill="#f2f5e9" fill-opacity="0.5" stroke="#606060" stroke-width=".5" x="0" y="0" width="60" height="60"/>
  <use id="zoomplus" xlink:href="#zoomPlus" x="17" y="9" onmousedown="handleZoom(evt,'in')"/>
  <use id="zoomminus" xlink:href="#zoomMin" x="42" y="9" onmousedown="handleZoom(evt,'out')"/>
  <use id="reset" xlink:href="#resetDef" x="30" y="36" onmousedown="handleReset()"/>
   <use id="arrowup" xlink:href="#arrowUp" x="0" y="0" onmousedown="handlePan(0,-1)"/>
  <use id="arrowright" xlink:href="#arrowRight" x="0" y="0" onmousedown="handlePan(1,0)"/>
  <use id="arrowdown" xlink:href="#arrowDown" x="0" y="0" onmousedown="handlePan(0,1)"/>
  <use id="arrowleft" xlink:href="#arrowLeft" x="0" y="0" onmousedown="handlePan(-1,0)"/>
</g>
<svg viewBox="0 0 15 15" width="100%" height="30px" preserveAspectRatio="xMaxYMin meet">
 <g id="arrow_out" transform="scale(0.3 0.3)">
  <a xlink:href="class_slic3r_1_1_g_u_i_1_1_part_plate_ae25782d39ac2261c2c75b9a7cc09622d_icgraph_org.svg" target="_base">
   <rect id="button" ry="5" rx="5" y="6" x="6" height="38" width="38"
        fill="#f2f5e9" fill-opacity="0.5" stroke="#606060" stroke-width="1.0"/>
   <path id="arrow"
     d="M 11.500037,31.436501 C 11.940474,20.09759 22.043105,11.32322 32.158766,21.979434 L 37.068811,17.246167 C 37.068811,17.246167 37.088388,32 37.088388,32 L 22.160133,31.978069 C 22.160133,31.978069 26.997745,27.140456 26.997745,27.140456 C 18.528582,18.264221 13.291696,25.230495 11.500037,31.436501 z"
     style="fill:#404040;"/>
  </a>
 </g>
</svg>

<style type='text/css'>
<![CDATA[
[data-mouse-over-selected='false'] { opacity: 0.7; }
[data-mouse-over-selected='true']  { opacity: 1.0; }
]]>
</style>
<script type="application/ecmascript"><![CDATA[
document.addEventListener('DOMContentLoaded', (event) => {
  highlightEdges();
  highlightAdjacentNodes();
});
]]></script>
</svg>
