<?xml version="1.0" encoding="UTF-8" standalone="no"?>
<!DOCTYPE svg PUBLIC "-//W3C//DTD SVG 1.1//EN"
 "http://www.w3.org/Graphics/SVG/1.1/DTD/svg11.dtd">
<!-- Generated by graphviz version 8.1.0 (20230707.0739)
 -->
<!-- Title: Slic3r::GUI::GLGizmoFdmSupports::invalid_support_volumes Pages: 1 -->
<svg width="353pt" height="88pt"
 viewBox="0.00 0.00 352.75 87.50" xmlns="http://www.w3.org/2000/svg" xmlns:xlink="http://www.w3.org/1999/xlink">
<g id="graph0" class="graph" transform="scale(1 1) rotate(0) translate(4 83.5)">
<title>Slic3r::GUI::GLGizmoFdmSupports::invalid_support_volumes</title>
<!-- Node1 -->
<g id="Node000001" class="node">
<title>Node1</title>
<g id="a_Node000001"><a xlink:title=" ">
<polygon fill="#999999" stroke="#666666" points="170.5,-54.5 0,-54.5 0,-24 170.5,-24 170.5,-54.5"/>
<text text-anchor="start" x="8" y="-41" font-family="Helvetica,sans-Serif" font-size="10.00">Slic3r::GUI::GLGizmoFdmSupports</text>
<text text-anchor="middle" x="85.25" y="-29.75" font-family="Helvetica,sans-Serif" font-size="10.00">::invalid_support_volumes</text>
</a>
</g>
</g>
<!-- Node2 -->
<g id="Node000002" class="node">
<title>Node2</title>
<g id="a_Node000002"><a xlink:href="../../dc/d88/class_slic3r_1_1_print_base.html#abc9ecd74a834ac020d3449f9d3857176" target="_top" xlink:title=" ">
<polygon fill="white" stroke="#666666" points="323.38,-79.5 227.88,-79.5 227.88,-49 323.38,-49 323.38,-79.5"/>
<text text-anchor="start" x="235.88" y="-66" font-family="Helvetica,sans-Serif" font-size="10.00">Slic3r::PrintBase::</text>
<text text-anchor="middle" x="275.62" y="-54.75" font-family="Helvetica,sans-Serif" font-size="10.00">cancel</text>
</a>
</g>
</g>
<!-- Node1&#45;&gt;Node2 -->
<g id="edge1_Node000001_Node000002" class="edge">
<title>Node1&#45;&gt;Node2</title>
<g id="a_edge1_Node000001_Node000002"><a xlink:title=" ">
<path fill="none" stroke="#63b8ff" d="M170.79,-50.47C186.3,-52.53 202.17,-54.63 216.68,-56.56"/>
<polygon fill="#63b8ff" stroke="#63b8ff" points="216.11,-60.15 226.48,-57.99 217.03,-53.21 216.11,-60.15"/>
</a>
</g>
</g>
<!-- Node3 -->
<g id="Node000003" class="node">
<title>Node3</title>
<g id="a_Node000003"><a xlink:href="../../d6/d0d/class_slic3r_1_1_print_object_base_with_state.html#ac2790a8abd4e0ae7ca1290b25285940e" target="_top" xlink:title=" ">
<polygon fill="white" stroke="#666666" points="344.75,-30.5 206.5,-30.5 206.5,0 344.75,0 344.75,-30.5"/>
<text text-anchor="start" x="214.5" y="-17" font-family="Helvetica,sans-Serif" font-size="10.00">Slic3r::PrintObjectBaseWith</text>
<text text-anchor="middle" x="275.62" y="-5.75" font-family="Helvetica,sans-Serif" font-size="10.00">State::print</text>
</a>
</g>
</g>
<!-- Node1&#45;&gt;Node3 -->
<g id="edge2_Node000001_Node000003" class="edge">
<title>Node1&#45;&gt;Node3</title>
<g id="a_edge2_Node000001_Node000003"><a xlink:title=" ">
<path fill="none" stroke="#63b8ff" d="M170.79,-28.48C178.93,-27.44 187.16,-26.39 195.25,-25.36"/>
<polygon fill="#63b8ff" stroke="#63b8ff" points="195.68,-28.71 205.16,-23.97 194.79,-21.77 195.68,-28.71"/>
</a>
</g>
</g>
</g>
</svg>
