<?xml version="1.0" encoding="UTF-8" standalone="no"?>
<!DOCTYPE svg PUBLIC "-//W3C//DTD SVG 1.1//EN"
 "http://www.w3.org/Graphics/SVG/1.1/DTD/svg11.dtd">
<!-- Generated by graphviz version 8.1.0 (20230707.0739)
 -->
<!-- Title: Slic3r::GUI::PartPlate::calc_triangles Pages: 1 -->
<svg width="450pt" height="116pt"
 viewBox="0.00 0.00 449.75 115.88" xmlns="http://www.w3.org/2000/svg" xmlns:xlink="http://www.w3.org/1999/xlink">
<g id="graph0" class="graph" transform="scale(1 1) rotate(0) translate(4 111.88)">
<title>Slic3r::GUI::PartPlate::calc_triangles</title>
<!-- Node1 -->
<g id="Node000001" class="node">
<title>Node1</title>
<g id="a_Node000001"><a xlink:title=" ">
<polygon fill="#999999" stroke="#666666" points="111.25,-54.5 0,-54.5 0,-24 111.25,-24 111.25,-54.5"/>
<text text-anchor="start" x="8" y="-41" font-family="Helvetica,sans-Serif" font-size="10.00">Slic3r::GUI::PartPlate</text>
<text text-anchor="middle" x="55.62" y="-29.75" font-family="Helvetica,sans-Serif" font-size="10.00">::calc_triangles</text>
</a>
</g>
</g>
<!-- Node2 -->
<g id="Node000002" class="node">
<title>Node2</title>
<g id="a_Node000002"><a xlink:href="../../db/d35/class_slic3r_1_1_g_u_i_1_1_geometry_buffer.html#a3d4d415b90df8b2ef4a8f81782a802a1" target="_top" xlink:title=" ">
<polygon fill="white" stroke="#666666" points="287,-79.5 147.25,-79.5 147.25,-49 287,-49 287,-79.5"/>
<text text-anchor="start" x="155.25" y="-66" font-family="Helvetica,sans-Serif" font-size="10.00">Slic3r::GUI::GeometryBuffer</text>
<text text-anchor="middle" x="217.12" y="-54.75" font-family="Helvetica,sans-Serif" font-size="10.00">::set_from_triangles</text>
</a>
</g>
</g>
<!-- Node1&#45;&gt;Node2 -->
<g id="edge1_Node000001_Node000002" class="edge">
<title>Node1&#45;&gt;Node2</title>
<g id="a_edge1_Node000001_Node000002"><a xlink:title=" ">
<path fill="none" stroke="#63b8ff" d="M111.52,-47.85C119.41,-49.09 127.67,-50.39 135.93,-51.68"/>
<polygon fill="#63b8ff" stroke="#63b8ff" points="135.34,-55.29 145.76,-53.38 136.43,-48.37 135.34,-55.29"/>
</a>
</g>
</g>
<!-- Node5 -->
<g id="Node000005" class="node">
<title>Node5</title>
<g id="a_Node000005"><a xlink:href="../../de/db8/namespace_slic3r.html#aba80320d498f76a1d062775eec5302e6" target="_top" xlink:title=" ">
<polygon fill="white" stroke="#666666" points="263,-30.5 171.25,-30.5 171.25,0 263,0 263,-30.5"/>
<text text-anchor="start" x="179.25" y="-17" font-family="Helvetica,sans-Serif" font-size="10.00">Slic3r::triangulate</text>
<text text-anchor="middle" x="217.12" y="-5.75" font-family="Helvetica,sans-Serif" font-size="10.00">_expolygon_2f</text>
</a>
</g>
</g>
<!-- Node1&#45;&gt;Node5 -->
<g id="edge4_Node000001_Node000005" class="edge">
<title>Node1&#45;&gt;Node5</title>
<g id="a_edge4_Node000001_Node000005"><a xlink:title=" ">
<path fill="none" stroke="#63b8ff" d="M111.52,-30.99C127.26,-28.62 144.43,-26.04 160.24,-23.66"/>
<polygon fill="#63b8ff" stroke="#63b8ff" points="160.55,-27 169.92,-22.05 159.51,-20.08 160.55,-27"/>
</a>
</g>
</g>
<!-- Node3 -->
<g id="Node000003" class="node">
<title>Node3</title>
<g id="a_Node000003"><a xlink:href="../../df/db1/math_8h.html#a5083c48fbfb60dd70808789479f4db53" target="_top" xlink:title=" ">
<polygon fill="white" stroke="#666666" points="399.75,-107.88 365,-107.88 365,-88.62 399.75,-88.62 399.75,-107.88"/>
<text text-anchor="middle" x="382.38" y="-94.38" font-family="Helvetica,sans-Serif" font-size="10.00">max</text>
</a>
</g>
</g>
<!-- Node2&#45;&gt;Node3 -->
<g id="edge2_Node000002_Node000003" class="edge">
<title>Node2&#45;&gt;Node3</title>
<g id="a_edge2_Node000002_Node000003"><a xlink:title=" ">
<path fill="none" stroke="#63b8ff" d="M287.36,-78.67C310.85,-83.56 335.75,-88.75 354.01,-92.55"/>
<polygon fill="#63b8ff" stroke="#63b8ff" points="353.22,-96.17 363.72,-94.78 354.64,-89.32 353.22,-96.17"/>
</a>
</g>
</g>
<!-- Node4 -->
<g id="Node000004" class="node">
<title>Node4</title>
<g id="a_Node000004"><a xlink:href="../../df/db1/math_8h.html#a04a32cd137f4e2dc222aca71df9edb1b" target="_top" xlink:title=" ">
<polygon fill="white" stroke="#666666" points="398.25,-70.88 366.5,-70.88 366.5,-51.62 398.25,-51.62 398.25,-70.88"/>
<text text-anchor="middle" x="382.38" y="-57.38" font-family="Helvetica,sans-Serif" font-size="10.00">min</text>
</a>
</g>
</g>
<!-- Node2&#45;&gt;Node4 -->
<g id="edge3_Node000002_Node000004" class="edge">
<title>Node2&#45;&gt;Node4</title>
<g id="a_edge3_Node000002_Node000004"><a xlink:title=" ">
<path fill="none" stroke="#63b8ff" d="M287.36,-62.98C311.31,-62.54 336.72,-62.07 355.08,-61.73"/>
<polygon fill="#63b8ff" stroke="#63b8ff" points="355.1,-65.22 365.04,-61.53 354.97,-58.22 355.1,-65.22"/>
</a>
</g>
</g>
<!-- Node6 -->
<g id="Node000006" class="node">
<title>Node6</title>
<g id="a_Node000006"><a xlink:href="../../dd/dc4/class_slic3r_1_1_glu_tess_wrapper.html#a2243ebf60964ab2b70a4713d4bd9ae08" target="_top" xlink:title=" ">
<polygon fill="white" stroke="#666666" points="441.75,-30.5 323,-30.5 323,0 441.75,0 441.75,-30.5"/>
<text text-anchor="start" x="331" y="-17" font-family="Helvetica,sans-Serif" font-size="10.00">Slic3r::GluTessWrapper</text>
<text text-anchor="middle" x="382.38" y="-5.75" font-family="Helvetica,sans-Serif" font-size="10.00">::tesselate3d</text>
</a>
</g>
</g>
<!-- Node5&#45;&gt;Node6 -->
<g id="edge5_Node000005_Node000006" class="edge">
<title>Node5&#45;&gt;Node6</title>
<g id="a_edge5_Node000005_Node000006"><a xlink:title=" ">
<path fill="none" stroke="#63b8ff" d="M263.17,-15.25C278.26,-15.25 295.46,-15.25 311.98,-15.25"/>
<polygon fill="#63b8ff" stroke="#63b8ff" points="311.71,-18.75 321.71,-15.25 311.71,-11.75 311.71,-18.75"/>
</a>
</g>
</g>
</g>
</svg>
