<?xml version="1.0" encoding="UTF-8" standalone="no"?>
<!DOCTYPE svg PUBLIC "-//W3C//DTD SVG 1.1//EN"
 "http://www.w3.org/Graphics/SVG/1.1/DTD/svg11.dtd">
<!-- Generated by graphviz version 8.1.0 (20230707.0739)
 -->
<!-- Title: Slic3r::GUI::PartPlate::get_extruders_without_support Pages: 1 -->
<svg width="620pt" height="124pt"
 viewBox="0.00 0.00 620.25 123.50" xmlns="http://www.w3.org/2000/svg" xmlns:xlink="http://www.w3.org/1999/xlink">
<g id="graph0" class="graph" transform="scale(1 1) rotate(0) translate(4 119.5)">
<title>Slic3r::GUI::PartPlate::get_extruders_without_support</title>
<!-- Node1 -->
<g id="Node000001" class="node">
<title>Node1</title>
<g id="a_Node000001"><a xlink:title=" ">
<polygon fill="#999999" stroke="#666666" points="118,-81.12 0,-81.12 0,-39.38 118,-39.38 118,-81.12"/>
<text text-anchor="start" x="8" y="-67.62" font-family="Helvetica,sans-Serif" font-size="10.00">Slic3r::GUI::PartPlate</text>
<text text-anchor="start" x="8" y="-56.38" font-family="Helvetica,sans-Serif" font-size="10.00">::get_extruders_without</text>
<text text-anchor="middle" x="59" y="-45.12" font-family="Helvetica,sans-Serif" font-size="10.00">_support</text>
</a>
</g>
</g>
<!-- Node2 -->
<g id="Node000002" class="node">
<title>Node2</title>
<g id="a_Node000002"><a xlink:href="../../d7/ddf/class_slic3r_1_1_g_u_i_1_1_part_plate.html#ab4b4b617fcf260f56b53165a16445888" target="_top" xlink:title=" ">
<polygon fill="white" stroke="#666666" points="281,-97.5 154,-97.5 154,-67 281,-67 281,-97.5"/>
<text text-anchor="start" x="162" y="-84" font-family="Helvetica,sans-Serif" font-size="10.00">Slic3r::GUI::PartPlate</text>
<text text-anchor="middle" x="217.5" y="-72.75" font-family="Helvetica,sans-Serif" font-size="10.00">::contain_instance_totally</text>
</a>
</g>
</g>
<!-- Node1&#45;&gt;Node2 -->
<g id="edge1_Node000001_Node000002" class="edge">
<title>Node1&#45;&gt;Node2</title>
<g id="a_edge1_Node000001_Node000002"><a xlink:title=" ">
<path fill="none" stroke="#63b8ff" d="M118.27,-68.44C126.31,-69.57 134.65,-70.74 142.92,-71.91"/>
<polygon fill="#63b8ff" stroke="#63b8ff" points="142.33,-75.5 152.72,-73.42 143.3,-68.57 142.33,-75.5"/>
</a>
</g>
</g>
<!-- Node3 -->
<g id="Node000003" class="node">
<title>Node3</title>
<g id="a_Node000003"><a xlink:href="../../d8/dcc/namespacestd.html#af4bc231d061945eb59dbba98a117ece9" target="_top" xlink:title=" ">
<polygon fill="white" stroke="#666666" points="253.62,-48.88 181.38,-48.88 181.38,-29.62 253.62,-29.62 253.62,-48.88"/>
<text text-anchor="middle" x="217.5" y="-35.38" font-family="Helvetica,sans-Serif" font-size="10.00">std::distance</text>
</a>
</g>
</g>
<!-- Node1&#45;&gt;Node3 -->
<g id="edge3_Node000001_Node000003" class="edge">
<title>Node1&#45;&gt;Node3</title>
<g id="a_edge3_Node000001_Node000003"><a xlink:title=" ">
<path fill="none" stroke="#63b8ff" d="M118.27,-52.43C135.36,-50.14 153.81,-47.66 170.06,-45.48"/>
<polygon fill="#63b8ff" stroke="#63b8ff" points="170.46,-48.82 179.91,-44.03 169.53,-41.89 170.46,-48.82"/>
</a>
</g>
</g>
<!-- Node2&#45;&gt;Node2 -->
<g id="edge2_Node000002_Node000002" class="edge">
<title>Node2&#45;&gt;Node2</title>
<g id="a_edge2_Node000002_Node000002"><a xlink:title=" ">
<path fill="none" stroke="#63b8ff" d="M189.41,-97.99C183.68,-107.06 193.04,-115.5 217.5,-115.5 231.26,-115.5 240.24,-112.83 244.44,-108.88"/>
<polygon fill="#63b8ff" stroke="#63b8ff" points="248.02,-109.3 245.59,-98.99 241.06,-108.57 248.02,-109.3"/>
</a>
</g>
</g>
<!-- Node4 -->
<g id="Node000004" class="node">
<title>Node4</title>
<g id="a_Node000004"><a xlink:href="../../d7/d63/classhmesh__t.html#a19678c4e4889230aa87ea59b4ec047c8" target="_top" xlink:title=" ">
<polygon fill="white" stroke="#666666" points="443.25,-79.5 317,-79.5 317,-49 443.25,-49 443.25,-79.5"/>
<text text-anchor="start" x="325" y="-66" font-family="Helvetica,sans-Serif" font-size="10.00">hmesh_t::count_removed</text>
<text text-anchor="middle" x="380.12" y="-54.75" font-family="Helvetica,sans-Serif" font-size="10.00">_elements_in_range</text>
</a>
</g>
</g>
<!-- Node3&#45;&gt;Node4 -->
<g id="edge4_Node000003_Node000004" class="edge">
<title>Node3&#45;&gt;Node4</title>
<g id="a_edge4_Node000003_Node000004"><a xlink:title=" ">
<path fill="none" stroke="#63b8ff" d="M253.75,-44.74C269.19,-47.14 287.91,-50.05 306.13,-52.89"/>
<polygon fill="#63b8ff" stroke="#63b8ff" points="305.35,-56.47 315.77,-54.55 306.43,-49.55 305.35,-56.47"/>
</a>
</g>
</g>
<!-- Node7 -->
<g id="Node000007" class="node">
<title>Node7</title>
<g id="a_Node000007"><a xlink:href="../../d8/d9b/classarray__iterator__t.html#ac73b2d71bcaaa8f9fb198b061a58803a" target="_top" xlink:title=" ">
<polygon fill="white" stroke="#666666" points="430.5,-30.5 329.75,-30.5 329.75,0 430.5,0 430.5,-30.5"/>
<text text-anchor="start" x="337.75" y="-17" font-family="Helvetica,sans-Serif" font-size="10.00">array_iterator_t::get</text>
<text text-anchor="middle" x="380.12" y="-5.75" font-family="Helvetica,sans-Serif" font-size="10.00">_mesh_ptr</text>
</a>
</g>
</g>
<!-- Node3&#45;&gt;Node7 -->
<g id="edge7_Node000003_Node000007" class="edge">
<title>Node3&#45;&gt;Node7</title>
<g id="a_edge7_Node000003_Node000007"><a xlink:title=" ">
<path fill="none" stroke="#63b8ff" d="M253.75,-33.98C272.71,-31.15 296.62,-27.58 318.47,-24.31"/>
<polygon fill="#63b8ff" stroke="#63b8ff" points="318.96,-27.63 328.33,-22.69 317.93,-20.71 318.96,-27.63"/>
</a>
</g>
</g>
<!-- Node5 -->
<g id="Node000005" class="node">
<title>Node5</title>
<g id="a_Node000005"><a xlink:href="../../d7/d63/classhmesh__t.html#a536da7c5d6be8a2f0be7a536c17a4644" target="_top" xlink:title=" ">
<polygon fill="white" stroke="#666666" points="612.25,-94.88 479.25,-94.88 479.25,-75.62 612.25,-75.62 612.25,-94.88"/>
<text text-anchor="middle" x="545.75" y="-81.38" font-family="Helvetica,sans-Serif" font-size="10.00">hmesh_t::elements_begin_</text>
</a>
</g>
</g>
<!-- Node4&#45;&gt;Node5 -->
<g id="edge5_Node000004_Node000005" class="edge">
<title>Node4&#45;&gt;Node5</title>
<g id="a_edge5_Node000004_Node000005"><a xlink:title=" ">
<path fill="none" stroke="#63b8ff" d="M443.45,-72.25C451.49,-73.28 459.79,-74.35 468.03,-75.4"/>
<polygon fill="#63b8ff" stroke="#63b8ff" points="467.42,-78.98 477.79,-76.78 468.31,-72.04 467.42,-78.98"/>
</a>
</g>
</g>
<!-- Node6 -->
<g id="Node000006" class="node">
<title>Node6</title>
<g id="a_Node000006"><a xlink:href="../../d7/d63/classhmesh__t.html#ad6d08c43b0dac5f8f4a933496ef81ca9" target="_top" xlink:title=" ">
<polygon fill="white" stroke="#666666" points="603.62,-57.5 487.88,-57.5 487.88,-27 603.62,-27 603.62,-57.5"/>
<text text-anchor="start" x="495.88" y="-44" font-family="Helvetica,sans-Serif" font-size="10.00">hmesh_t::get_removed</text>
<text text-anchor="middle" x="545.75" y="-32.75" font-family="Helvetica,sans-Serif" font-size="10.00">_elements</text>
</a>
</g>
</g>
<!-- Node4&#45;&gt;Node6 -->
<g id="edge6_Node000004_Node000006" class="edge">
<title>Node4&#45;&gt;Node6</title>
<g id="a_edge6_Node000004_Node000006"><a xlink:title=" ">
<path fill="none" stroke="#63b8ff" d="M443.45,-55.87C454.29,-54.41 465.61,-52.89 476.59,-51.41"/>
<polygon fill="#63b8ff" stroke="#63b8ff" points="476.99,-54.76 486.44,-49.96 476.06,-47.82 476.99,-54.76"/>
</a>
</g>
</g>
</g>
</svg>
