<?xml version="1.0" encoding="UTF-8" standalone="no"?>
<!DOCTYPE svg PUBLIC "-//W3C//DTD SVG 1.1//EN"
 "http://www.w3.org/Graphics/SVG/1.1/DTD/svg11.dtd">
<!-- Generated by graphviz version 8.1.0 (20230707.0739)
 -->
<!-- Title: Slic3r::GUI::GLGizmoFdmSupports::update_from_model_object Pages: 1 -->
<!--zoomable 171 -->

<svg id="main" version="1.1" xmlns="http://www.w3.org/2000/svg" xmlns:xlink="http://www.w3.org/1999/xlink" xml:space="preserve" onload="init(evt)">
<style type="text/css"><![CDATA[
.node, .edge {opacity: 0.7;}
.node.selected, .edge.selected {opacity: 1;}
.edge:hover path { stroke: red; }
.edge:hover polygon { stroke: red; fill: red; }
]]></style>

<defs>
  <circle id="rim" cx="0" cy="0" r="7"/>
  <circle id="rim2" cx="0" cy="0" r="3.5"/>
  <g id="zoomPlus">
    <use xlink:href="#rim" fill="#404040"><set attributeName="fill" to="#808080" begin="zoomplus.mouseover" end="zoomplus.mouseout"/></use>
    <path d="M-4,0h8M0,-4v8" fill="none" stroke="white" stroke-width="1.5" pointer-events="none"/>
  </g>
  <g id="zoomMin">
    <use xlink:href="#rim" fill="#404040"><set attributeName="fill" to="#808080" begin="zoomminus.mouseover" end="zoomminus.mouseout"/></use>
    <path d="M-4,0h8" fill="none" stroke="white" stroke-width="1.5" pointer-events="none"/>
  </g>
  <g id="arrowUp" transform="translate(30 24)">
    <use xlink:href="#rim"/>
    <path pointer-events="none" fill="none" stroke="white" stroke-width="1.5" d="M0,-3.0v7 M-2.5,-0.5L0,-3.0L2.5,-0.5"/>
  </g>
  <g id="arrowRight" transform="rotate(90) translate(36 -43)">
    <use xlink:href="#rim"/>
    <path pointer-events="none" fill="none" stroke="white" stroke-width="1.5" d="M0,-3.0v7 M-2.5,-0.5L0,-3.0L2.5,-0.5"/>
  </g>
  <g id="arrowDown" transform="rotate(180) translate(-30 -48)">
    <use xlink:href="#rim"/>
    <path pointer-events="none" fill="none" stroke="white" stroke-width="1.5" d="M0,-3.0v7 M-2.5,-0.5L0,-3.0L2.5,-0.5"/>
  </g>
  <g id="arrowLeft" transform="rotate(270) translate(-36 17)">
    <use xlink:href="#rim"/>
    <path pointer-events="none" fill="none" stroke="white" stroke-width="1.5" d="M0,-3.0v7 M-2.5,-0.5L0,-3.0L2.5,-0.5"/>
  </g>
  <g id="resetDef">
    <use xlink:href="#rim2" fill="#404040"><set attributeName="fill" to="#808080" begin="reset.mouseover" end="reset.mouseout"/></use>
  </g>
</defs>
<script type="application/ecmascript">
var viewWidth = 565;
var viewHeight = 171;
var sectionId = 'dynsection-114';
</script>
<script type="application/ecmascript" xlink:href="../../svg.min.js"/>
<svg id="graph" class="graph">
<g id="viewport">
<title>Slic3r::GUI::GLGizmoFdmSupports::update_from_model_object</title>
<!-- Node1 -->
<g id="Node000001" class="node">
<title>Node1</title>
<g id="a_Node000001"><a xlink:title=" ">
<polygon fill="#999999" stroke="#666666" points="170.5,-84.5 0,-84.5 0,-54 170.5,-54 170.5,-84.5"/>
<text text-anchor="start" x="8" y="-71" font-family="Helvetica,sans-Serif" font-size="10.00">Slic3r::GUI::GLGizmoFdmSupports</text>
<text text-anchor="middle" x="85.25" y="-59.75" font-family="Helvetica,sans-Serif" font-size="10.00">::update_from_model_object</text>
</a>
</g>
</g>
<!-- Node2 -->
<g id="Node000002" class="node">
<title>Node2</title>
<g id="a_Node000002"><a xlink:href="../../d7/ddf/class_slic3r_1_1_g_u_i_1_1_g_l_gizmo_fdm_supports.html#a9b02bac7596939f256b779016b63197b" target="_top" xlink:title=" ">
<polygon fill="white" stroke="#666666" points="377,-138.5 206.5,-138.5 206.5,-108 377,-108 377,-138.5"/>
<text text-anchor="start" x="214.5" y="-125" font-family="Helvetica,sans-Serif" font-size="10.00">Slic3r::GUI::GLGizmoFdmSupports</text>
<text text-anchor="middle" x="291.75" y="-113.75" font-family="Helvetica,sans-Serif" font-size="10.00">::invalid_support_volumes</text>
</a>
</g>
</g>
<!-- Node1&#45;&gt;Node2 -->
<g id="edge1_Node000001_Node000002" class="edge">
<title>Node1&#45;&gt;Node2</title>
<g id="a_edge1_Node000001_Node000002"><a xlink:title=" ">
<path fill="none" stroke="#63b8ff" d="M145.67,-84.94C169.1,-91.13 196.18,-98.28 220.55,-104.71"/>
<polygon fill="#63b8ff" stroke="#63b8ff" points="219.62,-108.35 230.18,-107.52 221.4,-101.58 219.62,-108.35"/>
</a>
</g>
</g>
<!-- Node5 -->
<g id="Node000005" class="node">
<title>Node5</title>
<g id="a_Node000005"><a xlink:href="../../d6/df8/class_slic3r_1_1_g_u_i_1_1_common_gizmos_data_objects_1_1_selection_info.html#aa69880ef0882356aabbed81272cf8559" target="_top" xlink:title=" ">
<polygon fill="white" stroke="#666666" points="363.88,-90.12 219.62,-90.12 219.62,-48.38 363.88,-48.38 363.88,-90.12"/>
<text text-anchor="start" x="227.62" y="-76.62" font-family="Helvetica,sans-Serif" font-size="10.00">Slic3r::GUI::CommonGizmos</text>
<text text-anchor="start" x="227.62" y="-65.38" font-family="Helvetica,sans-Serif" font-size="10.00">DataObjects::SelectionInfo</text>
<text text-anchor="middle" x="291.75" y="-54.12" font-family="Helvetica,sans-Serif" font-size="10.00">::model_object</text>
</a>
</g>
</g>
<!-- Node1&#45;&gt;Node5 -->
<g id="edge4_Node000001_Node000005" class="edge">
<title>Node1&#45;&gt;Node5</title>
<g id="a_edge4_Node000001_Node000005"><a xlink:title=" ">
<path fill="none" stroke="#63b8ff" d="M170.9,-69.25C183.31,-69.25 196.08,-69.25 208.44,-69.25"/>
<polygon fill="#63b8ff" stroke="#63b8ff" points="208.18,-72.75 218.18,-69.25 208.18,-65.75 208.18,-72.75"/>
</a>
</g>
</g>
<!-- Node6 -->
<g id="Node000006" class="node">
<title>Node6</title>
<g id="a_Node000006"><a xlink:href="../../d5/d4e/class_slic3r_1_1_g_u_i_1_1_common_gizmos_data_pool.html#a426216e4d0ab24cbf377b4bbfcf99ad4" target="_top" xlink:title=" ">
<polygon fill="white" stroke="#666666" points="363.88,-30.5 219.62,-30.5 219.62,0 363.88,0 363.88,-30.5"/>
<text text-anchor="start" x="227.62" y="-17" font-family="Helvetica,sans-Serif" font-size="10.00">Slic3r::GUI::CommonGizmos</text>
<text text-anchor="middle" x="291.75" y="-5.75" font-family="Helvetica,sans-Serif" font-size="10.00">DataPool::selection_info</text>
</a>
</g>
</g>
<!-- Node1&#45;&gt;Node6 -->
<g id="edge5_Node000001_Node000006" class="edge">
<title>Node1&#45;&gt;Node6</title>
<g id="a_edge5_Node000001_Node000006"><a xlink:title=" ">
<path fill="none" stroke="#63b8ff" d="M145.67,-53.56C169.1,-47.37 196.18,-40.22 220.55,-33.79"/>
<polygon fill="#63b8ff" stroke="#63b8ff" points="221.4,-36.92 230.18,-30.98 219.62,-30.15 221.4,-36.92"/>
</a>
</g>
</g>
<!-- Node3 -->
<g id="Node000003" class="node">
<title>Node3</title>
<g id="a_Node000003"><a xlink:href="../../dc/d88/class_slic3r_1_1_print_base.html#abc9ecd74a834ac020d3449f9d3857176" target="_top" xlink:title=" ">
<polygon fill="white" stroke="#666666" points="532.88,-162.5 437.38,-162.5 437.38,-132 532.88,-132 532.88,-162.5"/>
<text text-anchor="start" x="445.38" y="-149" font-family="Helvetica,sans-Serif" font-size="10.00">Slic3r::PrintBase::</text>
<text text-anchor="middle" x="485.12" y="-137.75" font-family="Helvetica,sans-Serif" font-size="10.00">cancel</text>
</a>
</g>
</g>
<!-- Node2&#45;&gt;Node3 -->
<g id="edge2_Node000002_Node000003" class="edge">
<title>Node2&#45;&gt;Node3</title>
<g id="a_edge2_Node000002_Node000003"><a xlink:title=" ">
<path fill="none" stroke="#63b8ff" d="M377.25,-133.85C393.92,-135.94 411.06,-138.09 426.6,-140.04"/>
<polygon fill="#63b8ff" stroke="#63b8ff" points="425.71,-143.58 436.07,-141.35 426.58,-136.63 425.71,-143.58"/>
</a>
</g>
</g>
<!-- Node4 -->
<g id="Node000004" class="node">
<title>Node4</title>
<g id="a_Node000004"><a xlink:href="../../d6/d0d/class_slic3r_1_1_print_object_base_with_state.html#ac2790a8abd4e0ae7ca1290b25285940e" target="_top" xlink:title=" ">
<polygon fill="white" stroke="#666666" points="554.25,-113.5 416,-113.5 416,-83 554.25,-83 554.25,-113.5"/>
<text text-anchor="start" x="424" y="-100" font-family="Helvetica,sans-Serif" font-size="10.00">Slic3r::PrintObjectBaseWith</text>
<text text-anchor="middle" x="485.12" y="-88.75" font-family="Helvetica,sans-Serif" font-size="10.00">State::print</text>
</a>
</g>
</g>
<!-- Node2&#45;&gt;Node4 -->
<g id="edge3_Node000002_Node000004" class="edge">
<title>Node2&#45;&gt;Node4</title>
<g id="a_edge3_Node000002_Node000004"><a xlink:title=" ">
<path fill="none" stroke="#63b8ff" d="M377.25,-112.21C386.46,-111.01 395.81,-109.79 404.96,-108.59"/>
<polygon fill="#63b8ff" stroke="#63b8ff" points="405.11,-111.97 414.57,-107.2 404.21,-105.03 405.11,-111.97"/>
</a>
</g>
</g>
<!-- Node7 -->
<g id="Node000007" class="node">
<title>Node7</title>
<g id="a_Node000007"><a xlink:href="../../dc/de9/class_slic3r_1_1_g_u_i_1_1_common_gizmos_data_base.html#a857bb436ea2985183ee7d258d015b90b" target="_top" xlink:title=" ">
<polygon fill="white" stroke="#666666" points="557.25,-30.5 413,-30.5 413,0 557.25,0 557.25,-30.5"/>
<text text-anchor="start" x="421" y="-17" font-family="Helvetica,sans-Serif" font-size="10.00">Slic3r::GUI::CommonGizmos</text>
<text text-anchor="middle" x="485.12" y="-5.75" font-family="Helvetica,sans-Serif" font-size="10.00">DataBase::is_valid</text>
</a>
</g>
</g>
<!-- Node6&#45;&gt;Node7 -->
<g id="edge6_Node000006_Node000007" class="edge">
<title>Node6&#45;&gt;Node7</title>
<g id="a_edge6_Node000006_Node000007"><a xlink:title=" ">
<path fill="none" stroke="#63b8ff" d="M364.28,-15.25C376.52,-15.25 389.32,-15.25 401.81,-15.25"/>
<polygon fill="#63b8ff" stroke="#63b8ff" points="401.68,-18.75 411.68,-15.25 401.68,-11.75 401.68,-18.75"/>
</a>
</g>
</g>
</g>
</svg>

<g id="navigator" transform="translate(0 0)" fill="#404254">
  <rect fill="#f2f5e9" fill-opacity="0.5" stroke="#606060" stroke-width=".5" x="0" y="0" width="60" height="60"/>
  <use id="zoomplus" xlink:href="#zoomPlus" x="17" y="9" onmousedown="handleZoom(evt,'in')"/>
  <use id="zoomminus" xlink:href="#zoomMin" x="42" y="9" onmousedown="handleZoom(evt,'out')"/>
  <use id="reset" xlink:href="#resetDef" x="30" y="36" onmousedown="handleReset()"/>
   <use id="arrowup" xlink:href="#arrowUp" x="0" y="0" onmousedown="handlePan(0,-1)"/>
  <use id="arrowright" xlink:href="#arrowRight" x="0" y="0" onmousedown="handlePan(1,0)"/>
  <use id="arrowdown" xlink:href="#arrowDown" x="0" y="0" onmousedown="handlePan(0,1)"/>
  <use id="arrowleft" xlink:href="#arrowLeft" x="0" y="0" onmousedown="handlePan(-1,0)"/>
</g>
<svg viewBox="0 0 15 15" width="100%" height="30px" preserveAspectRatio="xMaxYMin meet">
 <g id="arrow_out" transform="scale(0.3 0.3)">
  <a xlink:href="class_slic3r_1_1_g_u_i_1_1_g_l_gizmo_fdm_supports_a0fbe2aa9ea2a148fd02276b97c8d5f9d_cgraph_org.svg" target="_base">
   <rect id="button" ry="5" rx="5" y="6" x="6" height="38" width="38"
        fill="#f2f5e9" fill-opacity="0.5" stroke="#606060" stroke-width="1.0"/>
   <path id="arrow"
     d="M 11.500037,31.436501 C 11.940474,20.09759 22.043105,11.32322 32.158766,21.979434 L 37.068811,17.246167 C 37.068811,17.246167 37.088388,32 37.088388,32 L 22.160133,31.978069 C 22.160133,31.978069 26.997745,27.140456 26.997745,27.140456 C 18.528582,18.264221 13.291696,25.230495 11.500037,31.436501 z"
     style="fill:#404040;"/>
  </a>
 </g>
</svg>

<style type='text/css'>
<![CDATA[
[data-mouse-over-selected='false'] { opacity: 0.7; }
[data-mouse-over-selected='true']  { opacity: 1.0; }
]]>
</style>
<script type="application/ecmascript"><![CDATA[
document.addEventListener('DOMContentLoaded', (event) => {
  highlightEdges();
  highlightAdjacentNodes();
});
]]></script>
</svg>
