<?xml version="1.0" encoding="UTF-8" standalone="no"?>
<!DOCTYPE svg PUBLIC "-//W3C//DTD SVG 1.1//EN"
 "http://www.w3.org/Graphics/SVG/1.1/DTD/svg11.dtd">
<!-- Generated by graphviz version 8.1.0 (20230707.0739)
 -->
<!-- Title: qh_dfacet Pages: 1 -->
<!--zoomable 579 -->

<svg id="main" version="1.1" xmlns="http://www.w3.org/2000/svg" xmlns:xlink="http://www.w3.org/1999/xlink" xml:space="preserve" onload="init(evt)">
<style type="text/css"><![CDATA[
.node, .edge {opacity: 0.7;}
.node.selected, .edge.selected {opacity: 1;}
.edge:hover path { stroke: red; }
.edge:hover polygon { stroke: red; fill: red; }
]]></style>

<defs>
  <circle id="rim" cx="0" cy="0" r="7"/>
  <circle id="rim2" cx="0" cy="0" r="3.5"/>
  <g id="zoomPlus">
    <use xlink:href="#rim" fill="#404040"><set attributeName="fill" to="#808080" begin="zoomplus.mouseover" end="zoomplus.mouseout"/></use>
    <path d="M-4,0h8M0,-4v8" fill="none" stroke="white" stroke-width="1.5" pointer-events="none"/>
  </g>
  <g id="zoomMin">
    <use xlink:href="#rim" fill="#404040"><set attributeName="fill" to="#808080" begin="zoomminus.mouseover" end="zoomminus.mouseout"/></use>
    <path d="M-4,0h8" fill="none" stroke="white" stroke-width="1.5" pointer-events="none"/>
  </g>
  <g id="arrowUp" transform="translate(30 24)">
    <use xlink:href="#rim"/>
    <path pointer-events="none" fill="none" stroke="white" stroke-width="1.5" d="M0,-3.0v7 M-2.5,-0.5L0,-3.0L2.5,-0.5"/>
  </g>
  <g id="arrowRight" transform="rotate(90) translate(36 -43)">
    <use xlink:href="#rim"/>
    <path pointer-events="none" fill="none" stroke="white" stroke-width="1.5" d="M0,-3.0v7 M-2.5,-0.5L0,-3.0L2.5,-0.5"/>
  </g>
  <g id="arrowDown" transform="rotate(180) translate(-30 -48)">
    <use xlink:href="#rim"/>
    <path pointer-events="none" fill="none" stroke="white" stroke-width="1.5" d="M0,-3.0v7 M-2.5,-0.5L0,-3.0L2.5,-0.5"/>
  </g>
  <g id="arrowLeft" transform="rotate(270) translate(-36 17)">
    <use xlink:href="#rim"/>
    <path pointer-events="none" fill="none" stroke="white" stroke-width="1.5" d="M0,-3.0v7 M-2.5,-0.5L0,-3.0L2.5,-0.5"/>
  </g>
  <g id="resetDef">
    <use xlink:href="#rim2" fill="#404040"><set attributeName="fill" to="#808080" begin="reset.mouseover" end="reset.mouseout"/></use>
  </g>
</defs>
<script type="application/ecmascript">
var viewWidth = 905;
var viewHeight = 579;
var sectionId = 'dynsection-13';
</script>
<script type="application/ecmascript" xlink:href="../../svg.min.js"/>
<svg id="graph" class="graph">
<g id="viewport">
<title>qh_dfacet</title>
<!-- Node1 -->
<g id="Node000001" class="node">
<title>Node1</title>
<g id="a_Node000001"><a xlink:title=" ">
<polygon fill="#999999" stroke="#666666" points="58.75,-248.87 0,-248.87 0,-229.62 58.75,-229.62 58.75,-248.87"/>
<text text-anchor="middle" x="29.38" y="-235.37" font-family="Helvetica,sans-Serif" font-size="10.00">qh_dfacet</text>
</a>
</g>
</g>
<!-- Node2 -->
<g id="Node000002" class="node">
<title>Node2</title>
<g id="a_Node000002"><a xlink:href="../../d8/d2c/io__r_8c.html#accea17ac37faff7435213848cba3663b" target="_top" xlink:title=" ">
<polygon fill="white" stroke="#666666" points="167,-248.87 94.75,-248.87 94.75,-229.62 167,-229.62 167,-248.87"/>
<text text-anchor="middle" x="130.88" y="-235.37" font-family="Helvetica,sans-Serif" font-size="10.00">qh_printfacet</text>
</a>
</g>
</g>
<!-- Node1&#45;&gt;Node2 -->
<g id="edge1_Node000001_Node000002" class="edge">
<title>Node1&#45;&gt;Node2</title>
<g id="a_edge1_Node000001_Node000002"><a xlink:title=" ">
<path fill="none" stroke="#63b8ff" d="M59.15,-239.24C66.82,-239.24 75.29,-239.24 83.63,-239.24"/>
<polygon fill="#63b8ff" stroke="#63b8ff" points="83.44,-242.74 93.44,-239.24 83.44,-235.74 83.44,-242.74"/>
</a>
</g>
</g>
<!-- Node3 -->
<g id="Node000003" class="node">
<title>Node3</title>
<g id="a_Node000003"><a xlink:href="../../d8/d2c/io__r_8c.html#ae7f98a0e31939389dd42639fee5ca8c9" target="_top" xlink:title=" ">
<polygon fill="white" stroke="#666666" points="304.5,-229.87 203,-229.87 203,-210.62 304.5,-210.62 304.5,-229.87"/>
<text text-anchor="middle" x="253.75" y="-216.37" font-family="Helvetica,sans-Serif" font-size="10.00">qh_printfacetheader</text>
</a>
</g>
</g>
<!-- Node2&#45;&gt;Node3 -->
<g id="edge2_Node000002_Node000003" class="edge">
<title>Node2&#45;&gt;Node3</title>
<g id="a_edge2_Node000002_Node000003"><a xlink:title=" ">
<path fill="none" stroke="#63b8ff" d="M167.49,-233.65C175.22,-232.43 183.62,-231.11 192.02,-229.79"/>
<polygon fill="#63b8ff" stroke="#63b8ff" points="192.28,-233.13 201.61,-228.12 191.19,-226.22 192.28,-233.13"/>
</a>
</g>
</g>
<!-- Node212 -->
<g id="Node000212" class="node">
<title>Node212</title>
<g id="a_Node000212"><a xlink:href="../../d8/d2c/io__r_8c.html#a2b84a248d03a7afd17ab8969ecc1d617" target="_top" xlink:title=" ">
<polygon fill="white" stroke="#666666" points="439,-531.87 340.5,-531.87 340.5,-512.62 439,-512.62 439,-531.87"/>
<text text-anchor="middle" x="389.75" y="-518.37" font-family="Helvetica,sans-Serif" font-size="10.00">qh_printfacetridges</text>
</a>
</g>
</g>
<!-- Node2&#45;&gt;Node212 -->
<g id="edge33_Node000002_Node000212" class="edge">
<title>Node2&#45;&gt;Node212</title>
<g id="a_edge33_Node000002_Node000212"><a xlink:title=" ">
<path fill="none" stroke="#63b8ff" d="M137.06,-249.25C157.52,-287.82 236.68,-428.48 340.5,-504.24 341.96,-505.31 343.5,-506.32 345.09,-507.28"/>
<polygon fill="#63b8ff" stroke="#63b8ff" points="343.09,-510.71 353.58,-512.2 346.3,-504.49 343.09,-510.71"/>
</a>
</g>
</g>
<!-- Node4 -->
<g id="Node000004" class="node">
<title>Node4</title>
<g id="a_Node000004"><a xlink:href="../../df/d22/qhull_2src_2libqhull_2geom_8c.html#ad6aa8bf49cd3167ae0f73fb43fd4f405" target="_top" xlink:title=" ">
<polygon fill="white" stroke="#666666" points="670.88,-192.87 600.12,-192.87 600.12,-173.62 670.88,-173.62 670.88,-192.87"/>
<text text-anchor="middle" x="635.5" y="-179.37" font-family="Helvetica,sans-Serif" font-size="10.00">qh_distplane</text>
</a>
</g>
</g>
<!-- Node3&#45;&gt;Node4 -->
<g id="edge3_Node000003_Node000004" class="edge">
<title>Node3&#45;&gt;Node4</title>
<g id="a_edge3_Node000003_Node000004"><a xlink:title=" ">
<path fill="none" stroke="#63b8ff" d="M304.79,-215.37C379.06,-208.13 517.39,-194.65 588.97,-187.68"/>
<polygon fill="#63b8ff" stroke="#63b8ff" points="589.25,-191.07 598.86,-186.62 588.57,-184.1 589.25,-191.07"/>
</a>
</g>
</g>
<!-- Node5 -->
<g id="Node000005" class="node">
<title>Node5</title>
<g id="a_Node000005"><a xlink:href="../../d6/df4/testqset_8c.html#aca4b59cdb8152b580cb9d258a849288d" target="_top" xlink:title=" ">
<polygon fill="white" stroke="#666666" points="772.38,-272.87 715.88,-272.87 715.88,-253.62 772.38,-253.62 772.38,-272.87"/>
<text text-anchor="middle" x="744.12" y="-259.37" font-family="Helvetica,sans-Serif" font-size="10.00">qh_fprintf</text>
</a>
</g>
</g>
<!-- Node3&#45;&gt;Node5 -->
<g id="edge9_Node000003_Node000005" class="edge">
<title>Node3&#45;&gt;Node5</title>
<g id="a_edge9_Node000003_Node000005"><a xlink:title=" ">
<path fill="none" stroke="#63b8ff" d="M259.36,-230.26C270.16,-252.6 299.35,-306.68 340.5,-334.24 391.82,-368.62 413.73,-361.4 475,-369.24 565.81,-380.87 600.19,-382.49 678,-334.24 699.75,-320.76 718.76,-298.04 730.54,-281.93"/>
<polygon fill="#63b8ff" stroke="#63b8ff" points="733.7,-284.52 736.6,-274.34 727.98,-280.49 733.7,-284.52"/>
</a>
</g>
</g>
<!-- Node24 -->
<g id="Node000024" class="node">
<title>Node24</title>
<g id="a_Node000024"><a xlink:href="../../d0/d1c/poly_8c.html#a96ca9a1e5768eb072de911e9f2388cad" target="_top" xlink:title=" ">
<polygon fill="#fff0f0" stroke="red" points="774.25,-115.87 714,-115.87 714,-96.62 774.25,-96.62 774.25,-115.87"/>
<text text-anchor="middle" x="744.12" y="-102.37" font-family="Helvetica,sans-Serif" font-size="10.00">qh_pointid</text>
</a>
</g>
</g>
<!-- Node3&#45;&gt;Node24 -->
<g id="edge10_Node000003_Node000024" class="edge">
<title>Node3&#45;&gt;Node24</title>
<g id="a_edge10_Node000003_Node000024"><a xlink:title=" ">
<path fill="none" stroke="#63b8ff" d="M256.28,-210.35C261.53,-180.22 281.84,-89.37 340.5,-52.24 467.25,27.98 537.8,4.11 678,-49.24 698.5,-57.05 716.81,-74.49 728.75,-88.04"/>
<polygon fill="#63b8ff" stroke="#63b8ff" points="726.52,-89.84 735.63,-95.24 731.88,-85.33 726.52,-89.84"/>
</a>
</g>
</g>
<!-- Node208 -->
<g id="Node000208" class="node">
<title>Node208</title>
<g id="a_Node000208"><a xlink:href="../../d8/d2c/io__r_8c.html#a35599af8bcc82dbf1a236ccd873a62ca" target="_top" xlink:title=" ">
<polygon fill="white" stroke="#666666" points="428.5,-286.87 351,-286.87 351,-267.62 428.5,-267.62 428.5,-286.87"/>
<text text-anchor="middle" x="389.75" y="-273.37" font-family="Helvetica,sans-Serif" font-size="10.00">qh_printcenter</text>
</a>
</g>
</g>
<!-- Node3&#45;&gt;Node208 -->
<g id="edge11_Node000003_Node000208" class="edge">
<title>Node3&#45;&gt;Node208</title>
<g id="a_edge11_Node000003_Node000208"><a xlink:title=" ">
<path fill="none" stroke="#63b8ff" d="M278.4,-230.3C299.73,-239.38 331.35,-252.83 355.28,-263.01"/>
<polygon fill="#63b8ff" stroke="#63b8ff" points="353.77,-266.59 364.34,-267.28 356.51,-260.15 353.77,-266.59"/>
</a>
</g>
</g>
<!-- Node26 -->
<g id="Node000026" class="node">
<title>Node26</title>
<g id="a_Node000026"><a xlink:href="../../de/d2e/qset_8c.html#a5bf663b8bdd3b1c91fe945b569fbf682" target="_top" xlink:title=" ">
<polygon fill="#fff0f0" stroke="red" points="667.12,-324.87 603.88,-324.87 603.88,-305.62 667.12,-305.62 667.12,-324.87"/>
<text text-anchor="middle" x="635.5" y="-311.37" font-family="Helvetica,sans-Serif" font-size="10.00">qh_setsize</text>
</a>
</g>
</g>
<!-- Node3&#45;&gt;Node26 -->
<g id="edge32_Node000003_Node000026" class="edge">
<title>Node3&#45;&gt;Node26</title>
<g id="a_edge32_Node000003_Node000026"><a xlink:title=" ">
<path fill="none" stroke="#63b8ff" d="M263.92,-230.28C278.76,-246.05 309.49,-276.8 340.5,-296.24 395.37,-330.63 411.5,-339.55 475,-352.24 510.74,-359.39 521.46,-360.29 557,-352.24 575.55,-348.04 594.86,-338.84 609.56,-330.67"/>
<polygon fill="#63b8ff" stroke="#63b8ff" points="611.03,-333.28 617.94,-325.24 607.53,-327.22 611.03,-333.28"/>
</a>
</g>
</g>
<!-- Node209 -->
<g id="Node000209" class="node">
<title>Node209</title>
<g id="a_Node000209"><a xlink:href="../../d8/d2c/io__r_8c.html#af906d0a59effa48f98f4c13113ee3cab" target="_top" xlink:title=" ">
<polygon fill="white" stroke="#666666" points="425.5,-115.87 354,-115.87 354,-96.62 425.5,-96.62 425.5,-115.87"/>
<text text-anchor="middle" x="389.75" y="-102.37" font-family="Helvetica,sans-Serif" font-size="10.00">qh_printpoint</text>
</a>
</g>
</g>
<!-- Node3&#45;&gt;Node209 -->
<g id="edge20_Node000003_Node000209" class="edge">
<title>Node3&#45;&gt;Node209</title>
<g id="a_edge20_Node000003_Node000209"><a xlink:title=" ">
<path fill="none" stroke="#63b8ff" d="M262.33,-210.24C276.25,-192.37 307.5,-154.59 340.5,-130.24 345,-126.93 350.02,-123.85 355.08,-121.09"/>
<polygon fill="#63b8ff" stroke="#63b8ff" points="356.41,-123.83 363.73,-116.16 353.23,-117.59 356.41,-123.83"/>
</a>
</g>
</g>
<!-- Node210 -->
<g id="Node000210" class="node">
<title>Node210</title>
<g id="a_Node000210"><a xlink:href="../../d8/d2c/io__r_8c.html#a3b0c77bd2c83a26fb5a9c782e26e651f" target="_top" xlink:title=" ">
<polygon fill="white" stroke="#666666" points="555.5,-153.87 476.5,-153.87 476.5,-134.62 555.5,-134.62 555.5,-153.87"/>
<text text-anchor="middle" x="516" y="-140.37" font-family="Helvetica,sans-Serif" font-size="10.00">qh_printpointid</text>
</a>
</g>
</g>
<!-- Node3&#45;&gt;Node210 -->
<g id="edge24_Node000003_Node000210" class="edge">
<title>Node3&#45;&gt;Node210</title>
<g id="a_edge24_Node000003_Node000210"><a xlink:title=" ">
<path fill="none" stroke="#63b8ff" d="M267.55,-210.14C283.61,-198.05 312.44,-178.2 340.5,-168.24 381.11,-153.84 429.89,-148.02 465.54,-145.7"/>
<polygon fill="#63b8ff" stroke="#63b8ff" points="465.37,-149.16 475.16,-145.08 464.97,-142.17 465.37,-149.16"/>
</a>
</g>
</g>
<!-- Node63 -->
<g id="Node000063" class="node">
<title>Node63</title>
<g id="a_Node000063"><a xlink:href="../../de/d8f/geom2_8c.html#a752bf1a51f4f00e2764aba6cb1ebc5ca" target="_top" xlink:title=" ">
<polygon fill="white" stroke="#666666" points="673.88,-77.87 597.12,-77.87 597.12,-58.62 673.88,-58.62 673.88,-77.87"/>
<text text-anchor="middle" x="635.5" y="-64.37" font-family="Helvetica,sans-Serif" font-size="10.00">qh_printpoints</text>
</a>
</g>
</g>
<!-- Node3&#45;&gt;Node63 -->
<g id="edge25_Node000003_Node000063" class="edge">
<title>Node3&#45;&gt;Node63</title>
<g id="a_edge25_Node000003_Node000063"><a xlink:title=" ">
<path fill="none" stroke="#63b8ff" d="M257.7,-210.29C265.92,-184.57 291.71,-115.92 340.5,-87.24 417.04,-42.26 524.95,-49.54 586.5,-58.89"/>
<polygon fill="#63b8ff" stroke="#63b8ff" points="585.64,-62.46 596.07,-60.59 586.75,-55.55 585.64,-62.46"/>
</a>
</g>
</g>
<!-- Node211 -->
<g id="Node000211" class="node">
<title>Node211</title>
<g id="a_Node000211"><a xlink:href="../../d8/d2c/io__r_8c.html#aeabb9eba817f515bcdcf237b12806ce0" target="_top" xlink:title=" ">
<polygon fill="white" stroke="#666666" points="678,-229.87 593,-229.87 593,-210.62 678,-210.62 678,-229.87"/>
<text text-anchor="middle" x="635.5" y="-216.37" font-family="Helvetica,sans-Serif" font-size="10.00">qh_printvertices</text>
</a>
</g>
</g>
<!-- Node3&#45;&gt;Node211 -->
<g id="edge28_Node000003_Node000211" class="edge">
<title>Node3&#45;&gt;Node211</title>
<g id="a_edge28_Node000003_Node000211"><a xlink:title=" ">
<path fill="none" stroke="#63b8ff" d="M304.79,-220.24C376.62,-220.24 508.39,-220.24 581.72,-220.24"/>
<polygon fill="#63b8ff" stroke="#63b8ff" points="581.54,-223.74 591.54,-220.24 581.54,-216.74 581.54,-223.74"/>
</a>
</g>
</g>
<!-- Node70 -->
<g id="Node000070" class="node">
<title>Node70</title>
<g id="a_Node000070"><a xlink:href="../../de/d2e/qset_8c.html#a7cf15056fcd326d8805333f8c79e79c7" target="_top" xlink:title=" ">
<polygon fill="white" stroke="#666666" points="420.25,-494.87 359.25,-494.87 359.25,-475.62 420.25,-475.62 420.25,-494.87"/>
<text text-anchor="middle" x="389.75" y="-481.37" font-family="Helvetica,sans-Serif" font-size="10.00">qh_setlast</text>
</a>
</g>
</g>
<!-- Node3&#45;&gt;Node70 -->
<g id="edge31_Node000003_Node000070" class="edge">
<title>Node3&#45;&gt;Node70</title>
<g id="a_edge31_Node000003_Node000070"><a xlink:title=" ">
<path fill="none" stroke="#63b8ff" d="M257.84,-230.3C271.2,-273.6 324.07,-442.72 340.5,-461.24 343.32,-464.42 346.65,-467.23 350.23,-469.69"/>
<polygon fill="#63b8ff" stroke="#63b8ff" points="348.09,-473.08 358.49,-475.14 351.64,-467.05 348.09,-473.08"/>
</a>
</g>
</g>
<!-- Node4&#45;&gt;Node5 -->
<g id="edge4_Node000004_Node000005" class="edge">
<title>Node4&#45;&gt;Node5</title>
<g id="a_edge4_Node000004_Node000005"><a xlink:title=" ">
<path fill="none" stroke="#63b8ff" d="M663.57,-193.34C668.53,-195.64 673.55,-198.29 678,-201.24 696.79,-213.69 715.1,-231.82 727.49,-245.26"/>
<polygon fill="#63b8ff" stroke="#63b8ff" points="724.44,-247.21 733.73,-252.31 729.65,-242.53 724.44,-247.21"/>
</a>
</g>
</g>
<!-- Node4&#45;&gt;Node24 -->
<g id="edge8_Node000004_Node000024" class="edge">
<title>Node4&#45;&gt;Node24</title>
<g id="a_edge8_Node000004_Node000024"><a xlink:title=" ">
<path fill="none" stroke="#63b8ff" d="M650.44,-173.18C668.24,-160.32 699.27,-137.91 720.48,-122.59"/>
<polygon fill="#63b8ff" stroke="#63b8ff" points="722.12,-125 728.18,-116.31 718.03,-119.33 722.12,-125"/>
</a>
</g>
</g>
<!-- Node6 -->
<g id="Node000006" class="node">
<title>Node6</title>
<g id="a_Node000006"><a xlink:href="../../de/d23/user__eg2_8c.html#a5f9e5bc131c58db28e039707aea6f6dc" target="_top" xlink:title=" ">
<polygon fill="#fff0f0" stroke="red" points="882.88,-290.87 824.12,-290.87 824.12,-271.62 882.88,-271.62 882.88,-290.87"/>
<text text-anchor="middle" x="853.5" y="-277.37" font-family="Helvetica,sans-Serif" font-size="10.00">qh_errexit</text>
</a>
</g>
</g>
<!-- Node5&#45;&gt;Node6 -->
<g id="edge5_Node000005_Node000006" class="edge">
<title>Node5&#45;&gt;Node6</title>
<g id="a_edge5_Node000005_Node000006"><a xlink:title=" ">
<path fill="none" stroke="#63b8ff" d="M772.78,-261.89C786.15,-263.28 802.36,-265.86 816.66,-268.83"/>
<polygon fill="#63b8ff" stroke="#63b8ff" points="815.63,-272.41 826.15,-271.16 817.15,-265.57 815.63,-272.41"/>
</a>
</g>
</g>
<!-- Node12 -->
<g id="Node000012" class="node">
<title>Node12</title>
<g id="a_Node000012"><a xlink:href="../../d7/d2a/_qhull__test_8cpp.html#a7aff5fe780d18ea82c430cee6e90de6c" target="_top" xlink:title=" ">
<polygon fill="white" stroke="#666666" points="896.75,-253.87 810.25,-253.87 810.25,-234.62 896.75,-234.62 896.75,-253.87"/>
<text text-anchor="middle" x="853.5" y="-240.37" font-family="Helvetica,sans-Serif" font-size="10.00">qh_fprintf_stderr</text>
</a>
</g>
</g>
<!-- Node5&#45;&gt;Node12 -->
<g id="edge7_Node000005_Node000012" class="edge">
<title>Node5&#45;&gt;Node12</title>
<g id="a_edge7_Node000005_Node000012"><a xlink:title=" ">
<path fill="none" stroke="#63b8ff" d="M772.78,-258.35C780.91,-256.91 790.08,-255.29 799.25,-253.67"/>
<polygon fill="#63b8ff" stroke="#63b8ff" points="799.69,-256.97 808.93,-251.78 798.47,-250.07 799.69,-256.97"/>
</a>
</g>
</g>
<!-- Node6&#45;&gt;Node5 -->
<g id="edge6_Node000006_Node000005" class="edge">
<title>Node6&#45;&gt;Node5</title>
<g id="a_edge6_Node000006_Node000005"><a xlink:title=" ">
<path fill="none" stroke="#63b8ff" d="M823.83,-282.49C810.75,-281.08 795.11,-278.58 781.24,-275.72"/>
<polygon fill="#63b8ff" stroke="#63b8ff" points="782.09,-272.1 771.57,-273.35 780.58,-278.93 782.09,-272.1"/>
</a>
</g>
</g>
<!-- Node208&#45;&gt;Node5 -->
<g id="edge16_Node000208_Node000005" class="edge">
<title>Node208&#45;&gt;Node5</title>
<g id="a_edge16_Node000208_Node000005"><a xlink:title=" ">
<path fill="none" stroke="#63b8ff" d="M428.8,-275.73C496.56,-273.04 637.4,-267.44 705.13,-264.75"/>
<polygon fill="#63b8ff" stroke="#63b8ff" points="704.89,-268.23 714.74,-264.33 704.61,-261.23 704.89,-268.23"/>
</a>
</g>
</g>
<!-- Node37 -->
<g id="Node000037" class="node">
<title>Node37</title>
<g id="a_Node000037"><a xlink:href="../../de/d8f/geom2_8c.html#a5462e8e33294feb52c613688133fe4b2" target="_top" xlink:title=" ">
<polygon fill="#fff0f0" stroke="red" points="556.25,-342.87 475.75,-342.87 475.75,-323.62 556.25,-323.62 556.25,-342.87"/>
<text text-anchor="middle" x="516" y="-329.37" font-family="Helvetica,sans-Serif" font-size="10.00">qh_facetcenter</text>
</a>
</g>
</g>
<!-- Node208&#45;&gt;Node37 -->
<g id="edge12_Node000208_Node000037" class="edge">
<title>Node208&#45;&gt;Node37</title>
<g id="a_edge12_Node000208_Node000037"><a xlink:title=" ">
<path fill="none" stroke="#63b8ff" d="M412.92,-287.25C429.91,-294.92 453.93,-305.75 475,-315.24 477.49,-316.37 480.07,-317.53 482.66,-318.69"/>
<polygon fill="#63b8ff" stroke="#63b8ff" points="481.02,-322.24 491.57,-323.16 483.89,-315.86 481.02,-322.24"/>
</a>
</g>
</g>
<!-- Node64 -->
<g id="Node000064" class="node">
<title>Node64</title>
<g id="a_Node000064"><a xlink:href="../../df/d22/qhull_2src_2libqhull_2geom_8c.html#a3fe9e7823100cbde5996cf5ca5dbd898" target="_top" xlink:title=" ">
<polygon fill="#fff0f0" stroke="red" points="556.25,-305.87 475.75,-305.87 475.75,-286.62 556.25,-286.62 556.25,-305.87"/>
<text text-anchor="middle" x="516" y="-292.37" font-family="Helvetica,sans-Serif" font-size="10.00">qh_getcentrum</text>
</a>
</g>
</g>
<!-- Node208&#45;&gt;Node64 -->
<g id="edge17_Node000208_Node000064" class="edge">
<title>Node208&#45;&gt;Node64</title>
<g id="a_edge17_Node000208_Node000064"><a xlink:title=" ">
<path fill="none" stroke="#63b8ff" d="M428.7,-283.05C440.07,-284.79 452.71,-286.72 464.74,-288.56"/>
<polygon fill="#63b8ff" stroke="#63b8ff" points="464.14,-292.16 474.56,-290.21 465.2,-285.24 464.14,-292.16"/>
</a>
</g>
</g>
<!-- Node37&#45;&gt;Node26 -->
<g id="edge13_Node000037_Node000026" class="edge">
<title>Node37&#45;&gt;Node26</title>
<g id="a_edge13_Node000037_Node000026"><a xlink:title=" ">
<path fill="none" stroke="#63b8ff" d="M556.45,-327.2C568.19,-325.4 581.09,-323.43 592.96,-321.61"/>
<polygon fill="#63b8ff" stroke="#63b8ff" points="593.15,-324.97 602.51,-319.99 592.09,-318.05 593.15,-324.97"/>
</a>
</g>
</g>
<!-- Node26&#45;&gt;Node5 -->
<g id="edge15_Node000026_Node000005" class="edge">
<title>Node26&#45;&gt;Node5</title>
<g id="a_edge15_Node000026_Node000005"><a xlink:title=" ">
<path fill="none" stroke="#63b8ff" d="M657.06,-305.22C672.92,-297.48 695.08,-286.67 712.95,-277.96"/>
<polygon fill="#63b8ff" stroke="#63b8ff" points="714.18,-280.77 721.63,-273.24 711.11,-274.48 714.18,-280.77"/>
</a>
</g>
</g>
<!-- Node26&#45;&gt;Node6 -->
<g id="edge14_Node000026_Node000006" class="edge">
<title>Node26&#45;&gt;Node6</title>
<g id="a_edge14_Node000026_Node000006"><a xlink:title=" ">
<path fill="none" stroke="#63b8ff" d="M667.45,-310.37C705.78,-304.34 771.15,-294.05 813.05,-287.45"/>
<polygon fill="#63b8ff" stroke="#63b8ff" points="813.35,-290.79 822.68,-285.78 812.26,-283.88 813.35,-290.79"/>
</a>
</g>
</g>
<!-- Node64&#45;&gt;Node4 -->
<g id="edge18_Node000064_Node000004" class="edge">
<title>Node64&#45;&gt;Node4</title>
<g id="a_edge18_Node000064_Node000004"><a xlink:title=" ">
<path fill="none" stroke="#63b8ff" d="M522.66,-286.31C533.86,-267.42 560.61,-226 593,-201.24 594.25,-200.29 595.55,-199.37 596.9,-198.5"/>
<polygon fill="#63b8ff" stroke="#63b8ff" points="598.21,-201.22 605.22,-193.28 594.79,-195.11 598.21,-201.22"/>
</a>
</g>
</g>
<!-- Node64&#45;&gt;Node26 -->
<g id="edge19_Node000064_Node000026" class="edge">
<title>Node64&#45;&gt;Node26</title>
<g id="a_edge19_Node000064_Node000026"><a xlink:title=" ">
<path fill="none" stroke="#63b8ff" d="M556.45,-302.62C568.19,-304.52 581.09,-306.61 592.96,-308.53"/>
<polygon fill="#63b8ff" stroke="#63b8ff" points="592.08,-312.09 602.51,-310.23 593.19,-305.18 592.08,-312.09"/>
</a>
</g>
</g>
<!-- Node209&#45;&gt;Node24 -->
<g id="edge21_Node000209_Node000024" class="edge">
<title>Node209&#45;&gt;Node24</title>
<g id="a_edge21_Node000209_Node000024"><a xlink:title=" ">
<path fill="none" stroke="#63b8ff" d="M425.83,-106.24C491.62,-106.24 633.19,-106.24 702.8,-106.24"/>
<polygon fill="#63b8ff" stroke="#63b8ff" points="702.73,-109.74 712.73,-106.24 702.73,-102.74 702.73,-109.74"/>
</a>
</g>
</g>
<!-- Node209&#45;&gt;Node210 -->
<g id="edge22_Node000209_Node000210" class="edge">
<title>Node209&#45;&gt;Node210</title>
<g id="a_edge22_Node000209_Node000210"><a xlink:title=" ">
<path fill="none" stroke="#63b8ff" d="M423.72,-116.33C438.58,-120.87 456.32,-126.3 472.2,-131.15"/>
<polygon fill="#63b8ff" stroke="#63b8ff" points="470.72,-134.67 481.31,-134.24 472.77,-127.97 470.72,-134.67"/>
</a>
</g>
</g>
<!-- Node210&#45;&gt;Node5 -->
<g id="edge23_Node000210_Node000005" class="edge">
<title>Node210&#45;&gt;Node5</title>
<g id="a_edge23_Node000210_Node000005"><a xlink:title=" ">
<path fill="none" stroke="#63b8ff" d="M555.77,-140.33C590.38,-138.75 641.16,-141.34 678,-164.24 707.58,-182.63 726.52,-220 735.95,-243.2"/>
<polygon fill="#63b8ff" stroke="#63b8ff" points="732.98,-244.22 739.83,-252.3 739.52,-241.71 732.98,-244.22"/>
</a>
</g>
</g>
<!-- Node63&#45;&gt;Node5 -->
<g id="edge26_Node000063_Node000005" class="edge">
<title>Node63&#45;&gt;Node5</title>
<g id="a_edge26_Node000063_Node000005"><a xlink:title=" ">
<path fill="none" stroke="#63b8ff" d="M643.66,-78.26C652.26,-90.48 666.93,-111.93 678,-131.24 700.24,-170.04 722.5,-217.48 734.37,-243.61"/>
<polygon fill="#63b8ff" stroke="#63b8ff" points="731.49,-244.74 738.79,-252.42 737.87,-241.87 731.49,-244.74"/>
</a>
</g>
</g>
<!-- Node63&#45;&gt;Node24 -->
<g id="edge27_Node000063_Node000024" class="edge">
<title>Node63&#45;&gt;Node24</title>
<g id="a_edge27_Node000063_Node000024"><a xlink:title=" ">
<path fill="none" stroke="#63b8ff" d="M664.79,-78.33C677.06,-82.7 691.62,-87.89 704.83,-92.59"/>
<polygon fill="#63b8ff" stroke="#63b8ff" points="703.47,-96.18 714.07,-96.24 705.82,-89.59 703.47,-96.18"/>
</a>
</g>
</g>
<!-- Node211&#45;&gt;Node5 -->
<g id="edge29_Node000211_Node000005" class="edge">
<title>Node211&#45;&gt;Node5</title>
<g id="a_edge29_Node000211_Node000005"><a xlink:title=" ">
<path fill="none" stroke="#63b8ff" d="M661.5,-230.32C675.4,-235.93 692.92,-243 708.17,-249.15"/>
<polygon fill="#63b8ff" stroke="#63b8ff" points="706.7,-252.73 717.28,-253.22 709.32,-246.24 706.7,-252.73"/>
</a>
</g>
</g>
<!-- Node211&#45;&gt;Node24 -->
<g id="edge30_Node000211_Node000024" class="edge">
<title>Node211&#45;&gt;Node24</title>
<g id="a_edge30_Node000211_Node000024"><a xlink:title=" ">
<path fill="none" stroke="#63b8ff" d="M665.42,-210.25C669.88,-208.01 674.25,-205.35 678,-202.24 703.6,-181.03 723.27,-147.25 734.01,-125.93"/>
<polygon fill="#63b8ff" stroke="#63b8ff" points="737.46,-127.84 738.67,-117.32 731.16,-124.79 737.46,-127.84"/>
</a>
</g>
</g>
<!-- Node212&#45;&gt;Node5 -->
<g id="edge34_Node000212_Node000005" class="edge">
<title>Node212&#45;&gt;Node5</title>
<g id="a_edge34_Node000212_Node000005"><a xlink:title=" ">
<path fill="none" stroke="#63b8ff" d="M439.3,-531.63C502.12,-540.8 611.39,-546.13 678,-489.24 709.7,-462.17 732.26,-334.54 740.1,-283.96"/>
<polygon fill="#63b8ff" stroke="#63b8ff" points="743.7,-284.53 741.73,-274.12 736.78,-283.48 743.7,-284.53"/>
</a>
</g>
</g>
<!-- Node212&#45;&gt;Node26 -->
<g id="edge39_Node000212_Node000026" class="edge">
<title>Node212&#45;&gt;Node26</title>
<g id="a_edge39_Node000212_Node000026"><a xlink:title=" ">
<path fill="none" stroke="#63b8ff" d="M423.92,-512.17C429.16,-509.94 434.38,-507.3 439,-504.24 458.4,-491.4 458.55,-482.69 475,-466.24 524.58,-416.68 585.21,-360.43 615.45,-332.65"/>
<polygon fill="#63b8ff" stroke="#63b8ff" points="617.47,-335.63 622.47,-326.3 612.74,-330.47 617.47,-335.63"/>
</a>
</g>
</g>
<!-- Node72 -->
<g id="Node000072" class="node">
<title>Node72</title>
<g id="a_Node000072"><a xlink:href="../../dd/d98/poly2__r_8c.html#ada3ebcf4bf8198f69c8add1fe21e78ba" target="_top" xlink:title=" ">
<polygon fill="white" stroke="#666666" points="557,-570.87 475,-570.87 475,-551.62 557,-551.62 557,-570.87"/>
<text text-anchor="middle" x="516" y="-557.37" font-family="Helvetica,sans-Serif" font-size="10.00">qh_nextridge3d</text>
</a>
</g>
</g>
<!-- Node212&#45;&gt;Node72 -->
<g id="edge35_Node000212_Node000072" class="edge">
<title>Node212&#45;&gt;Node72</title>
<g id="a_edge35_Node000212_Node000072"><a xlink:title=" ">
<path fill="none" stroke="#63b8ff" d="M422.75,-532.29C437.97,-537.06 456.36,-542.84 472.72,-547.97"/>
<polygon fill="#63b8ff" stroke="#63b8ff" points="471.52,-551.58 482.11,-551.23 473.62,-544.9 471.52,-551.58"/>
</a>
</g>
</g>
<!-- Node213 -->
<g id="Node000213" class="node">
<title>Node213</title>
<g id="a_Node000213"><a xlink:href="../../d8/d2c/io__r_8c.html#ae106865f56e31c4856d6e11addb9878e" target="_top" xlink:title=" ">
<polygon fill="white" stroke="#666666" points="551.75,-494.87 480.25,-494.87 480.25,-475.62 551.75,-475.62 551.75,-494.87"/>
<text text-anchor="middle" x="516" y="-481.37" font-family="Helvetica,sans-Serif" font-size="10.00">qh_printridge</text>
</a>
</g>
</g>
<!-- Node212&#45;&gt;Node213 -->
<g id="edge36_Node000212_Node000213" class="edge">
<title>Node212&#45;&gt;Node213</title>
<g id="a_edge36_Node000212_Node000213"><a xlink:title=" ">
<path fill="none" stroke="#63b8ff" d="M424.7,-512.13C438.95,-507.89 455.7,-502.9 470.88,-498.38"/>
<polygon fill="#63b8ff" stroke="#63b8ff" points="471.5,-501.55 480.09,-495.34 469.51,-494.84 471.5,-501.55"/>
</a>
</g>
</g>
<!-- Node213&#45;&gt;Node5 -->
<g id="edge37_Node000213_Node000005" class="edge">
<title>Node213&#45;&gt;Node5</title>
<g id="a_edge37_Node000213_Node000005"><a xlink:title=" ">
<path fill="none" stroke="#63b8ff" d="M552.02,-489.85C587.82,-492.53 643,-490.75 678,-461.24 731.9,-415.79 741.48,-324.83 742.98,-283.96"/>
<polygon fill="#63b8ff" stroke="#63b8ff" points="746.5,-284.07 743.23,-273.99 739.5,-283.91 746.5,-284.07"/>
</a>
</g>
</g>
<!-- Node213&#45;&gt;Node211 -->
<g id="edge38_Node000213_Node000211" class="edge">
<title>Node213&#45;&gt;Node211</title>
<g id="a_edge38_Node000213_Node000211"><a xlink:title=" ">
<path fill="none" stroke="#63b8ff" d="M520.55,-475.23C530.76,-446.76 561.45,-363.08 593,-296.24 602.39,-276.36 614.59,-254.39 623.33,-239.21"/>
<polygon fill="#63b8ff" stroke="#63b8ff" points="626.75,-241.29 628.75,-230.89 620.7,-237.77 626.75,-241.29"/>
</a>
</g>
</g>
</g>
</svg>

<g id="navigator" transform="translate(0 0)" fill="#404254">
  <rect fill="#f2f5e9" fill-opacity="0.5" stroke="#606060" stroke-width=".5" x="0" y="0" width="60" height="60"/>
  <use id="zoomplus" xlink:href="#zoomPlus" x="17" y="9" onmousedown="handleZoom(evt,'in')"/>
  <use id="zoomminus" xlink:href="#zoomMin" x="42" y="9" onmousedown="handleZoom(evt,'out')"/>
  <use id="reset" xlink:href="#resetDef" x="30" y="36" onmousedown="handleReset()"/>
   <use id="arrowup" xlink:href="#arrowUp" x="0" y="0" onmousedown="handlePan(0,-1)"/>
  <use id="arrowright" xlink:href="#arrowRight" x="0" y="0" onmousedown="handlePan(1,0)"/>
  <use id="arrowdown" xlink:href="#arrowDown" x="0" y="0" onmousedown="handlePan(0,1)"/>
  <use id="arrowleft" xlink:href="#arrowLeft" x="0" y="0" onmousedown="handlePan(-1,0)"/>
</g>
<svg viewBox="0 0 15 15" width="100%" height="30px" preserveAspectRatio="xMaxYMin meet">
 <g id="arrow_out" transform="scale(0.3 0.3)">
  <a xlink:href="io__r_8c_a5e046a3804efb5637de48e72fa4473bd_cgraph_org.svg" target="_base">
   <rect id="button" ry="5" rx="5" y="6" x="6" height="38" width="38"
        fill="#f2f5e9" fill-opacity="0.5" stroke="#606060" stroke-width="1.0"/>
   <path id="arrow"
     d="M 11.500037,31.436501 C 11.940474,20.09759 22.043105,11.32322 32.158766,21.979434 L 37.068811,17.246167 C 37.068811,17.246167 37.088388,32 37.088388,32 L 22.160133,31.978069 C 22.160133,31.978069 26.997745,27.140456 26.997745,27.140456 C 18.528582,18.264221 13.291696,25.230495 11.500037,31.436501 z"
     style="fill:#404040;"/>
  </a>
 </g>
</svg>

<style type='text/css'>
<![CDATA[
[data-mouse-over-selected='false'] { opacity: 0.7; }
[data-mouse-over-selected='true']  { opacity: 1.0; }
]]>
</style>
<script type="application/ecmascript"><![CDATA[
document.addEventListener('DOMContentLoaded', (event) => {
  highlightEdges();
  highlightAdjacentNodes();
});
]]></script>
</svg>
