<?xml version="1.0" encoding="UTF-8" standalone="no"?>
<!DOCTYPE svg PUBLIC "-//W3C//DTD SVG 1.1//EN"
 "http://www.w3.org/Graphics/SVG/1.1/DTD/svg11.dtd">
<!-- Generated by graphviz version 8.1.0 (20230707.0739)
 -->
<!-- Title: Slic3r::GUI::VersionInfo Pages: 1 -->
<svg width="129pt" height="195pt"
 viewBox="0.00 0.00 128.88 195.00" xmlns="http://www.w3.org/2000/svg" xmlns:xlink="http://www.w3.org/1999/xlink">
<g id="graph0" class="graph" transform="scale(1 1) rotate(0) translate(4 191)">
<title>Slic3r::GUI::VersionInfo</title>
<!-- Node1 -->
<g id="Node000001" class="node">
<title>Node1</title>
<g id="a_Node000001"><a xlink:title=" ">
<polygon fill="#999999" stroke="#666666" points="120.25,-19.25 0,-19.25 0,0 120.25,0 120.25,-19.25"/>
<text text-anchor="middle" x="60.12" y="-5.75" font-family="Helvetica,sans-Serif" font-size="10.00">Slic3r::GUI::VersionInfo</text>
</a>
</g>
</g>
<!-- Node2 -->
<g id="Node000002" class="node">
<title>Node2</title>
<g id="a_Node000002"><a xlink:title=" ">
<polygon fill="white" stroke="#666666" points="89.88,-119.5 30.37,-119.5 30.37,-100.25 89.88,-100.25 89.88,-119.5"/>
<text text-anchor="middle" x="60.12" y="-106" font-family="Helvetica,sans-Serif" font-size="10.00">std::string</text>
</a>
</g>
</g>
<!-- Node2&#45;&gt;Node1 -->
<g id="edge1_Node000001_Node000002" class="edge">
<title>Node2&#45;&gt;Node1</title>
<g id="a_edge1_Node000001_Node000002"><a xlink:title=" ">
<path fill="none" stroke="#9a32cd" stroke-dasharray="5,2" d="M60.12,-88.87C60.12,-67.72 60.12,-35.3 60.12,-19.67"/>
<polygon fill="#9a32cd" stroke="#9a32cd" points="56.63,-88.81 60.12,-98.81 63.63,-88.81 56.63,-88.81"/>
</a>
</g>
<text text-anchor="middle" x="90.5" y="-72.75" font-family="Helvetica,sans-Serif" font-size="10.00" fill="grey"> description</text>
<text text-anchor="middle" x="90.5" y="-61.5" font-family="Helvetica,sans-Serif" font-size="10.00" fill="grey">url</text>
<text text-anchor="middle" x="90.5" y="-50.25" font-family="Helvetica,sans-Serif" font-size="10.00" fill="grey">version_name</text>
<text text-anchor="middle" x="90.5" y="-39" font-family="Helvetica,sans-Serif" font-size="10.00" fill="grey">version_str</text>
</g>
<!-- Node3 -->
<g id="Node000003" class="node">
<title>Node3</title>
<g id="a_Node000003"><a xlink:title=" ">
<polygon fill="white" stroke="#666666" points="107.12,-187 13.12,-187 13.12,-156.5 107.12,-156.5 107.12,-187"/>
<text text-anchor="start" x="21.12" y="-173.5" font-family="Helvetica,sans-Serif" font-size="10.00">std::basic_string&lt;</text>
<text text-anchor="middle" x="60.12" y="-162.25" font-family="Helvetica,sans-Serif" font-size="10.00"> Char &gt;</text>
</a>
</g>
</g>
<!-- Node3&#45;&gt;Node2 -->
<g id="edge2_Node000002_Node000003" class="edge">
<title>Node3&#45;&gt;Node2</title>
<g id="a_edge2_Node000002_Node000003"><a xlink:title=" ">
<path fill="none" stroke="#63b8ff" d="M60.12,-145.33C60.12,-136.25 60.12,-126.61 60.12,-119.85"/>
<polygon fill="#63b8ff" stroke="#63b8ff" points="56.63,-145.26 60.12,-155.26 63.63,-145.26 56.63,-145.26"/>
</a>
</g>
</g>
</g>
</svg>
