<?xml version="1.0" encoding="UTF-8" standalone="no"?>
<!DOCTYPE svg PUBLIC "-//W3C//DTD SVG 1.1//EN"
 "http://www.w3.org/Graphics/SVG/1.1/DTD/svg11.dtd">
<!-- Generated by graphviz version 8.1.0 (20230707.0739)
 -->
<!-- Title: Slic3r::GUI::ConfigOptionsGroup::change_opt_value Pages: 1 -->
<!--zoomable 134 -->

<svg id="main" version="1.1" xmlns="http://www.w3.org/2000/svg" xmlns:xlink="http://www.w3.org/1999/xlink" xml:space="preserve" onload="init(evt)">
<style type="text/css"><![CDATA[
.node, .edge {opacity: 0.7;}
.node.selected, .edge.selected {opacity: 1;}
.edge:hover path { stroke: red; }
.edge:hover polygon { stroke: red; fill: red; }
]]></style>

<defs>
  <circle id="rim" cx="0" cy="0" r="7"/>
  <circle id="rim2" cx="0" cy="0" r="3.5"/>
  <g id="zoomPlus">
    <use xlink:href="#rim" fill="#404040"><set attributeName="fill" to="#808080" begin="zoomplus.mouseover" end="zoomplus.mouseout"/></use>
    <path d="M-4,0h8M0,-4v8" fill="none" stroke="white" stroke-width="1.5" pointer-events="none"/>
  </g>
  <g id="zoomMin">
    <use xlink:href="#rim" fill="#404040"><set attributeName="fill" to="#808080" begin="zoomminus.mouseover" end="zoomminus.mouseout"/></use>
    <path d="M-4,0h8" fill="none" stroke="white" stroke-width="1.5" pointer-events="none"/>
  </g>
  <g id="arrowUp" transform="translate(30 24)">
    <use xlink:href="#rim"/>
    <path pointer-events="none" fill="none" stroke="white" stroke-width="1.5" d="M0,-3.0v7 M-2.5,-0.5L0,-3.0L2.5,-0.5"/>
  </g>
  <g id="arrowRight" transform="rotate(90) translate(36 -43)">
    <use xlink:href="#rim"/>
    <path pointer-events="none" fill="none" stroke="white" stroke-width="1.5" d="M0,-3.0v7 M-2.5,-0.5L0,-3.0L2.5,-0.5"/>
  </g>
  <g id="arrowDown" transform="rotate(180) translate(-30 -48)">
    <use xlink:href="#rim"/>
    <path pointer-events="none" fill="none" stroke="white" stroke-width="1.5" d="M0,-3.0v7 M-2.5,-0.5L0,-3.0L2.5,-0.5"/>
  </g>
  <g id="arrowLeft" transform="rotate(270) translate(-36 17)">
    <use xlink:href="#rim"/>
    <path pointer-events="none" fill="none" stroke="white" stroke-width="1.5" d="M0,-3.0v7 M-2.5,-0.5L0,-3.0L2.5,-0.5"/>
  </g>
  <g id="resetDef">
    <use xlink:href="#rim2" fill="#404040"><set attributeName="fill" to="#808080" begin="reset.mouseover" end="reset.mouseout"/></use>
  </g>
</defs>
<script type="application/ecmascript">
var viewWidth = 672;
var viewHeight = 134;
var sectionId = 'dynsection-20';
</script>
<script type="application/ecmascript" xlink:href="../../svg.min.js"/>
<svg id="graph" class="graph">
<g id="viewport">
<title>Slic3r::GUI::ConfigOptionsGroup::change_opt_value</title>
<!-- Node1 -->
<g id="Node000001" class="node">
<title>Node1</title>
<g id="a_Node000001"><a xlink:title=" ">
<polygon fill="#999999" stroke="#666666" points="664,-79.5 531,-79.5 531,-49 664,-49 664,-79.5"/>
<text text-anchor="start" x="539" y="-66" font-family="Helvetica,sans-Serif" font-size="10.00">Slic3r::GUI::ConfigOptions</text>
<text text-anchor="middle" x="597.5" y="-54.75" font-family="Helvetica,sans-Serif" font-size="10.00">Group::change_opt_value</text>
</a>
</g>
</g>
<!-- Node2 -->
<g id="Node000002" class="node">
<title>Node2</title>
<g id="a_Node000002"><a xlink:href="../../d9/da7/class_slic3r_1_1_g_u_i_1_1_config_options_group.html#a46246284d2ff809d58980b2ca7c63050" target="_top" xlink:title=" ">
<polygon fill="white" stroke="#666666" points="317.75,-100.5 175,-100.5 175,-70 317.75,-70 317.75,-100.5"/>
<text text-anchor="start" x="183" y="-87" font-family="Helvetica,sans-Serif" font-size="10.00">Slic3r::GUI::ConfigOptions</text>
<text text-anchor="middle" x="246.38" y="-75.75" font-family="Helvetica,sans-Serif" font-size="10.00">Group::back_to_config_value</text>
</a>
</g>
</g>
<!-- Node1&#45;&gt;Node2 -->
<g id="edge1_Node000001_Node000002" class="edge">
<title>Node1&#45;&gt;Node2</title>
<g id="a_edge1_Node000001_Node000002"><a xlink:title=" ">
<path fill="none" stroke="#63b8ff" d="M529.83,-82.33C518.29,-84.79 506.36,-86.93 495,-88.25 435.64,-95.17 367.74,-93.69 318.07,-90.89"/>
<polygon fill="#63b8ff" stroke="#63b8ff" points="530.28,-85.59 539.28,-79.99 528.75,-78.76 530.28,-85.59"/>
</a>
</g>
</g>
<!-- Node5 -->
<g id="Node000005" class="node">
<title>Node5</title>
<g id="a_Node000005"><a xlink:href="../../d9/da7/class_slic3r_1_1_g_u_i_1_1_config_options_group.html#a2812a18b1ad0f432996c4dee17c98b74" target="_top" xlink:title=" ">
<polygon fill="white" stroke="#666666" points="490.88,-79.5 357.88,-79.5 357.88,-49 490.88,-49 490.88,-79.5"/>
<text text-anchor="start" x="365.88" y="-66" font-family="Helvetica,sans-Serif" font-size="10.00">Slic3r::GUI::ConfigOptions</text>
<text text-anchor="middle" x="424.38" y="-54.75" font-family="Helvetica,sans-Serif" font-size="10.00">Group::on_change_OG</text>
</a>
</g>
</g>
<!-- Node1&#45;&gt;Node5 -->
<g id="edge4_Node000001_Node000005" class="edge">
<title>Node1&#45;&gt;Node5</title>
<g id="a_edge4_Node000001_Node000005"><a xlink:title=" ">
<path fill="none" stroke="#63b8ff" d="M520.04,-64.25C510.4,-64.25 500.61,-64.25 491.15,-64.25"/>
<polygon fill="#63b8ff" stroke="#63b8ff" points="519.83,-67.75 529.83,-64.25 519.83,-60.75 519.83,-67.75"/>
</a>
</g>
</g>
<!-- Node6 -->
<g id="Node000006" class="node">
<title>Node6</title>
<g id="a_Node000006"><a xlink:href="../../d4/df0/class_slic3r_1_1_g_u_i_1_1_extruder_options_group.html#a3ec08dd1bf0ca649fd1903b25fcdac46" target="_top" xlink:title=" ">
<polygon fill="white" stroke="#666666" points="495,-30.5 353.75,-30.5 353.75,0 495,0 495,-30.5"/>
<text text-anchor="start" x="361.75" y="-17" font-family="Helvetica,sans-Serif" font-size="10.00">Slic3r::GUI::ExtruderOptions</text>
<text text-anchor="middle" x="424.38" y="-5.75" font-family="Helvetica,sans-Serif" font-size="10.00">Group::on_change_OG</text>
</a>
</g>
</g>
<!-- Node1&#45;&gt;Node6 -->
<g id="edge6_Node000001_Node000006" class="edge">
<title>Node1&#45;&gt;Node6</title>
<g id="a_edge6_Node000001_Node000006"><a xlink:title=" ">
<path fill="none" stroke="#63b8ff" d="M531.55,-45.65C514.67,-40.82 496.66,-35.66 480.35,-30.99"/>
<polygon fill="#63b8ff" stroke="#63b8ff" points="530.31,-49.22 540.88,-48.61 532.23,-42.49 530.31,-49.22"/>
</a>
</g>
</g>
<!-- Node3 -->
<g id="Node000003" class="node">
<title>Node3</title>
<g id="a_Node000003"><a xlink:href="../../d9/da7/class_slic3r_1_1_g_u_i_1_1_config_options_group.html#aa38ebee4de1e52e4203e89ed0885cb3a" target="_top" xlink:title=" ">
<polygon fill="white" stroke="#666666" points="139,-125.5 0,-125.5 0,-95 139,-95 139,-125.5"/>
<text text-anchor="start" x="8" y="-112" font-family="Helvetica,sans-Serif" font-size="10.00">Slic3r::GUI::ConfigOptions</text>
<text text-anchor="middle" x="69.5" y="-100.75" font-family="Helvetica,sans-Serif" font-size="10.00">Group::back_to_initial_value</text>
</a>
</g>
</g>
<!-- Node2&#45;&gt;Node3 -->
<g id="edge2_Node000002_Node000003" class="edge">
<title>Node2&#45;&gt;Node3</title>
<g id="a_edge2_Node000002_Node000003"><a xlink:title=" ">
<path fill="none" stroke="#63b8ff" d="M164,-96.88C155.78,-98.06 147.48,-99.25 139.4,-100.4"/>
<polygon fill="#63b8ff" stroke="#63b8ff" points="164.35,-100.23 173.75,-95.35 163.36,-93.3 164.35,-100.23"/>
</a>
</g>
</g>
<!-- Node4 -->
<g id="Node000004" class="node">
<title>Node4</title>
<g id="a_Node000004"><a xlink:href="../../d9/da7/class_slic3r_1_1_g_u_i_1_1_config_options_group.html#a9389718767fdb2ea3c14c22c43998115" target="_top" xlink:title=" ">
<polygon fill="white" stroke="#666666" points="136,-76.5 3,-76.5 3,-46 136,-46 136,-76.5"/>
<text text-anchor="start" x="11" y="-63" font-family="Helvetica,sans-Serif" font-size="10.00">Slic3r::GUI::ConfigOptions</text>
<text text-anchor="middle" x="69.5" y="-51.75" font-family="Helvetica,sans-Serif" font-size="10.00">Group::back_to_sys_value</text>
</a>
</g>
</g>
<!-- Node2&#45;&gt;Node4 -->
<g id="edge3_Node000002_Node000004" class="edge">
<title>Node2&#45;&gt;Node4</title>
<g id="a_edge3_Node000002_Node000004"><a xlink:title=" ">
<path fill="none" stroke="#63b8ff" d="M163.94,-74.07C154.68,-72.8 145.32,-71.52 136.3,-70.28"/>
<polygon fill="#63b8ff" stroke="#63b8ff" points="163.37,-77.67 173.75,-75.56 164.32,-70.73 163.37,-77.67"/>
</a>
</g>
</g>
<!-- Node5&#45;&gt;Node2 -->
<g id="edge5_Node000005_Node000002" class="edge">
<title>Node5&#45;&gt;Node2</title>
<g id="a_edge5_Node000005_Node000002"><a xlink:title=" ">
<path fill="none" stroke="#63b8ff" d="M346.89,-73.38C337.32,-74.52 327.57,-75.68 318.09,-76.81"/>
<polygon fill="#63b8ff" stroke="#63b8ff" points="347.07,-76.76 356.59,-72.1 346.24,-69.81 347.07,-76.76"/>
</a>
</g>
</g>
</g>
</svg>

<g id="navigator" transform="translate(0 0)" fill="#404254">
  <rect fill="#f2f5e9" fill-opacity="0.5" stroke="#606060" stroke-width=".5" x="0" y="0" width="60" height="60"/>
  <use id="zoomplus" xlink:href="#zoomPlus" x="17" y="9" onmousedown="handleZoom(evt,'in')"/>
  <use id="zoomminus" xlink:href="#zoomMin" x="42" y="9" onmousedown="handleZoom(evt,'out')"/>
  <use id="reset" xlink:href="#resetDef" x="30" y="36" onmousedown="handleReset()"/>
   <use id="arrowup" xlink:href="#arrowUp" x="0" y="0" onmousedown="handlePan(0,-1)"/>
  <use id="arrowright" xlink:href="#arrowRight" x="0" y="0" onmousedown="handlePan(1,0)"/>
  <use id="arrowdown" xlink:href="#arrowDown" x="0" y="0" onmousedown="handlePan(0,1)"/>
  <use id="arrowleft" xlink:href="#arrowLeft" x="0" y="0" onmousedown="handlePan(-1,0)"/>
</g>
<svg viewBox="0 0 15 15" width="100%" height="30px" preserveAspectRatio="xMaxYMin meet">
 <g id="arrow_out" transform="scale(0.3 0.3)">
  <a xlink:href="class_slic3r_1_1_g_u_i_1_1_config_options_group_a2c4cb2fdbf504801df04eb4500759a9d_icgraph_org.svg" target="_base">
   <rect id="button" ry="5" rx="5" y="6" x="6" height="38" width="38"
        fill="#f2f5e9" fill-opacity="0.5" stroke="#606060" stroke-width="1.0"/>
   <path id="arrow"
     d="M 11.500037,31.436501 C 11.940474,20.09759 22.043105,11.32322 32.158766,21.979434 L 37.068811,17.246167 C 37.068811,17.246167 37.088388,32 37.088388,32 L 22.160133,31.978069 C 22.160133,31.978069 26.997745,27.140456 26.997745,27.140456 C 18.528582,18.264221 13.291696,25.230495 11.500037,31.436501 z"
     style="fill:#404040;"/>
  </a>
 </g>
</svg>

<style type='text/css'>
<![CDATA[
[data-mouse-over-selected='false'] { opacity: 0.7; }
[data-mouse-over-selected='true']  { opacity: 1.0; }
]]>
</style>
<script type="application/ecmascript"><![CDATA[
document.addEventListener('DOMContentLoaded', (event) => {
  highlightEdges();
  highlightAdjacentNodes();
});
]]></script>
</svg>
