<?xml version="1.0" encoding="UTF-8" standalone="no"?>
<!DOCTYPE svg PUBLIC "-//W3C//DTD SVG 1.1//EN"
 "http://www.w3.org/Graphics/SVG/1.1/DTD/svg11.dtd">
<!-- Generated by graphviz version 8.1.0 (20230707.0739)
 -->
<!-- Title: Clipper2Lib::RectClip::Execute Pages: 1 -->
<svg width="273pt" height="212pt"
 viewBox="0.00 0.00 272.50 212.25" xmlns="http://www.w3.org/2000/svg" xmlns:xlink="http://www.w3.org/1999/xlink">

<svg id="main" version="1.1" xmlns="http://www.w3.org/2000/svg" xmlns:xlink="http://www.w3.org/1999/xlink" xml:space="preserve" onload="init(evt)">
<style type="text/css"><![CDATA[
.node, .edge {opacity: 0.7;}
.node.selected, .edge.selected {opacity: 1;}
.edge:hover path { stroke: red; }
.edge:hover polygon { stroke: red; fill: red; }
]]></style>
<script type="application/ecmascript" xlink:href="../../svg.min.js"/>
<svg id="graph" class="graph">
<g id="graph0" class="graph" transform="scale(1 1) rotate(0) translate(4 208.25)">
<title>Clipper2Lib::RectClip::Execute</title>
<!-- Node1 -->
<g id="Node000001" class="node">
<title>Node1</title>
<g id="a_Node000001"><a xlink:title=" ">
<polygon fill="#999999" stroke="#666666" points="264.5,-116.88 155.5,-116.88 155.5,-86.38 264.5,-86.38 264.5,-116.88"/>
<text text-anchor="start" x="163.5" y="-103.38" font-family="Helvetica,sans-Serif" font-size="10.00">Clipper2Lib::RectClip</text>
<text text-anchor="middle" x="210" y="-92.12" font-family="Helvetica,sans-Serif" font-size="10.00">::Execute</text>
</a>
</g>
</g>
<!-- Node2 -->
<g id="Node000002" class="node">
<title>Node2</title>
<g id="a_Node000002"><a xlink:href="../../d5/dd8/namespace_clipper2_lib.html#a47026abaa899fdb27901d748d4860ab2" target="_top" xlink:title=" ">
<polygon fill="white" stroke="#666666" points="114.25,-204.25 5.25,-204.25 5.25,-185 114.25,-185 114.25,-204.25"/>
<text text-anchor="middle" x="59.75" y="-190.75" font-family="Helvetica,sans-Serif" font-size="10.00">Clipper2Lib::RectClip</text>
</a>
</g>
</g>
<!-- Node1&#45;&gt;Node2 -->
<g id="edge1_Node000001_Node000002" class="edge">
<title>Node1&#45;&gt;Node2</title>
<g id="a_edge1_Node000001_Node000002"><a xlink:title=" ">
<path fill="none" stroke="#63b8ff" d="M186.54,-124.9C169.5,-141.38 144.76,-162.91 119.5,-176.62 113.78,-179.73 107.45,-182.38 101.13,-184.61"/>
<polygon fill="#63b8ff" stroke="#63b8ff" points="188.61,-127.79 193.26,-118.27 183.68,-122.81 188.61,-127.79"/>
</a>
</g>
</g>
<!-- Node3 -->
<g id="Node000003" class="node">
<title>Node3</title>
<g id="a_Node000003"><a xlink:href="../../d5/dd8/namespace_clipper2_lib.html#afa85c8cf144ffc01f90dc098fba93ac0" target="_top" xlink:title=" ">
<polygon fill="white" stroke="#666666" points="114.25,-167.25 5.25,-167.25 5.25,-148 114.25,-148 114.25,-167.25"/>
<text text-anchor="middle" x="59.75" y="-153.75" font-family="Helvetica,sans-Serif" font-size="10.00">Clipper2Lib::RectClip</text>
</a>
</g>
</g>
<!-- Node1&#45;&gt;Node3 -->
<g id="edge2_Node000001_Node000003" class="edge">
<title>Node1&#45;&gt;Node3</title>
<g id="a_edge2_Node000001_Node000003"><a xlink:title=" ">
<path fill="none" stroke="#63b8ff" d="M164.45,-121.62C150.21,-127.72 134.3,-134.23 119.5,-139.62 111.88,-142.4 103.61,-145.11 95.74,-147.56"/>
<polygon fill="#63b8ff" stroke="#63b8ff" points="165.7,-124.46 173.48,-117.27 162.92,-118.04 165.7,-124.46"/>
</a>
</g>
</g>
<!-- Node4 -->
<g id="Node000004" class="node">
<title>Node4</title>
<g id="a_Node000004"><a xlink:href="../../d5/dd8/namespace_clipper2_lib.html#ae11cf4857947b212adbb5d9fe49233f2" target="_top" xlink:title=" ">
<polygon fill="white" stroke="#666666" points="114.25,-130.25 5.25,-130.25 5.25,-111 114.25,-111 114.25,-130.25"/>
<text text-anchor="middle" x="59.75" y="-116.75" font-family="Helvetica,sans-Serif" font-size="10.00">Clipper2Lib::RectClip</text>
</a>
</g>
</g>
<!-- Node1&#45;&gt;Node4 -->
<g id="edge3_Node000001_Node000004" class="edge">
<title>Node1&#45;&gt;Node4</title>
<g id="a_edge3_Node000001_Node000004"><a xlink:title=" ">
<path fill="none" stroke="#63b8ff" d="M144.34,-109.91C134.35,-111.19 124.12,-112.5 114.4,-113.75"/>
<polygon fill="#63b8ff" stroke="#63b8ff" points="144.59,-113.28 154.06,-108.54 143.7,-106.34 144.59,-113.28"/>
</a>
</g>
</g>
<!-- Node5 -->
<g id="Node000005" class="node">
<title>Node5</title>
<g id="a_Node000005"><a xlink:href="../../d5/dd8/namespace_clipper2_lib.html#aa7ffb52b546b3074ee0b057c18b1f77b" target="_top" xlink:title=" ">
<polygon fill="white" stroke="#666666" points="114.25,-93.25 5.25,-93.25 5.25,-74 114.25,-74 114.25,-93.25"/>
<text text-anchor="middle" x="59.75" y="-79.75" font-family="Helvetica,sans-Serif" font-size="10.00">Clipper2Lib::RectClip</text>
</a>
</g>
</g>
<!-- Node1&#45;&gt;Node5 -->
<g id="edge4_Node000001_Node000005" class="edge">
<title>Node1&#45;&gt;Node5</title>
<g id="a_edge4_Node000001_Node000005"><a xlink:title=" ">
<path fill="none" stroke="#63b8ff" d="M144.34,-93.77C134.35,-92.56 124.12,-91.32 114.4,-90.14"/>
<polygon fill="#63b8ff" stroke="#63b8ff" points="143.71,-97.34 154.06,-95.08 144.55,-90.4 143.71,-97.34"/>
</a>
</g>
</g>
<!-- Node6 -->
<g id="Node000006" class="node">
<title>Node6</title>
<g id="a_Node000006"><a xlink:href="../../d5/dd8/namespace_clipper2_lib.html#aa10d48785609097408fb242ddb6d60e3" target="_top" xlink:title=" ">
<polygon fill="white" stroke="#666666" points="119.5,-56.25 0,-56.25 0,-37 119.5,-37 119.5,-56.25"/>
<text text-anchor="middle" x="59.75" y="-42.75" font-family="Helvetica,sans-Serif" font-size="10.00">Clipper2Lib::RectClip64</text>
</a>
</g>
</g>
<!-- Node1&#45;&gt;Node6 -->
<g id="edge5_Node000001_Node000006" class="edge">
<title>Node1&#45;&gt;Node6</title>
<g id="a_edge5_Node000001_Node000006"><a xlink:title=" ">
<path fill="none" stroke="#63b8ff" d="M163.3,-81.76C149.35,-75.95 133.89,-69.79 119.5,-64.62 111.87,-61.89 103.59,-59.19 95.72,-56.74"/>
<polygon fill="#63b8ff" stroke="#63b8ff" points="161.58,-85.25 172.16,-85.9 164.29,-78.8 161.58,-85.25"/>
</a>
</g>
</g>
<!-- Node7 -->
<g id="Node000007" class="node">
<title>Node7</title>
<g id="a_Node000007"><a xlink:href="../../d5/dd8/namespace_clipper2_lib.html#a88ee914eb1b9ac9313a5f21066e3cde4" target="_top" xlink:title=" ">
<polygon fill="white" stroke="#666666" points="118,-19.25 1.5,-19.25 1.5,0 118,0 118,-19.25"/>
<text text-anchor="middle" x="59.75" y="-5.75" font-family="Helvetica,sans-Serif" font-size="10.00">Clipper2Lib::RectClipD</text>
</a>
</g>
</g>
<!-- Node1&#45;&gt;Node7 -->
<g id="edge6_Node000001_Node000007" class="edge">
<title>Node1&#45;&gt;Node7</title>
<g id="a_edge6_Node000001_Node000007"><a xlink:title=" ">
<path fill="none" stroke="#63b8ff" d="M186.17,-78.38C169.11,-62.17 144.52,-41.1 119.5,-27.62 113.77,-24.54 107.44,-21.9 101.11,-19.67"/>
<polygon fill="#63b8ff" stroke="#63b8ff" points="183.3,-80.44 192.91,-84.9 188.18,-75.42 183.3,-80.44"/>
</a>
</g>
</g>
</g>
</svg>
</svg>

<style type='text/css'>
<![CDATA[
[data-mouse-over-selected='false'] { opacity: 0.7; }
[data-mouse-over-selected='true']  { opacity: 1.0; }
]]>
</style>
<script type="application/ecmascript"><![CDATA[
document.addEventListener('DOMContentLoaded', (event) => {
  highlightEdges();
  highlightAdjacentNodes();
});
]]></script>
</svg>
