<?xml version="1.0" encoding="UTF-8" standalone="no"?>
<!DOCTYPE svg PUBLIC "-//W3C//DTD SVG 1.1//EN"
 "http://www.w3.org/Graphics/SVG/1.1/DTD/svg11.dtd">
<!-- Generated by graphviz version 8.1.0 (20230707.0739)
 -->
<!-- Title: Slic3r::Print::has_infinite_skirt Pages: 1 -->
<svg width="714pt" height="214pt"
 viewBox="0.00 0.00 714.25 213.50" xmlns="http://www.w3.org/2000/svg" xmlns:xlink="http://www.w3.org/1999/xlink">
<g id="graph0" class="graph" transform="scale(1 1) rotate(0) translate(4 209.5)">
<title>Slic3r::Print::has_infinite_skirt</title>
<!-- Node1 -->
<g id="Node000001" class="node">
<title>Node1</title>
<g id="a_Node000001"><a xlink:title=" ">
<polygon fill="#999999" stroke="#666666" points="706.25,-120.5 617.5,-120.5 617.5,-90 706.25,-90 706.25,-120.5"/>
<text text-anchor="start" x="625.5" y="-107" font-family="Helvetica,sans-Serif" font-size="10.00">Slic3r::Print::has</text>
<text text-anchor="middle" x="661.88" y="-95.75" font-family="Helvetica,sans-Serif" font-size="10.00">_infinite_skirt</text>
</a>
</g>
</g>
<!-- Node2 -->
<g id="Node000002" class="node">
<title>Node2</title>
<g id="a_Node000002"><a xlink:href="../../d0/d2b/class_slic3r_1_1_g_u_i_1_1_g_l_canvas3_d.html#aff2f0add34a762fd56eb57299bb406e8" target="_top" xlink:title=" ">
<polygon fill="white" stroke="#666666" points="581.5,-205.5 451.5,-205.5 451.5,-175 581.5,-175 581.5,-205.5"/>
<text text-anchor="start" x="459.5" y="-192" font-family="Helvetica,sans-Serif" font-size="10.00">Slic3r::GUI::GLCanvas3D</text>
<text text-anchor="middle" x="516.5" y="-180.75" font-family="Helvetica,sans-Serif" font-size="10.00">::_load_print_toolpaths</text>
</a>
</g>
</g>
<!-- Node1&#45;&gt;Node2 -->
<g id="edge1_Node000001_Node000002" class="edge">
<title>Node1&#45;&gt;Node2</title>
<g id="a_edge1_Node000001_Node000002"><a xlink:title=" ">
<path fill="none" stroke="#63b8ff" d="M635.03,-127.67C620.09,-139.87 600.53,-154.61 581.5,-165.25 575.46,-168.63 568.87,-171.76 562.3,-174.58"/>
<polygon fill="#63b8ff" stroke="#63b8ff" points="636.81,-129.91 642.26,-120.83 632.33,-124.53 636.81,-129.91"/>
</a>
</g>
</g>
<!-- Node3 -->
<g id="Node000003" class="node">
<title>Node3</title>
<g id="a_Node000003"><a xlink:href="../../d1/d72/class_slic3r_1_1_tree_support.html#a5bf8f77ce79d4b92e7a2b28d96e2ffea" target="_top" xlink:title="Draws circles around each node of the tree into the final support.">
<polygon fill="white" stroke="#666666" points="566.5,-156.5 466.5,-156.5 466.5,-126 566.5,-126 566.5,-156.5"/>
<text text-anchor="start" x="474.5" y="-143" font-family="Helvetica,sans-Serif" font-size="10.00">Slic3r::TreeSupport</text>
<text text-anchor="middle" x="516.5" y="-131.75" font-family="Helvetica,sans-Serif" font-size="10.00">::draw_circles</text>
</a>
</g>
</g>
<!-- Node1&#45;&gt;Node3 -->
<g id="edge2_Node000001_Node000003" class="edge">
<title>Node1&#45;&gt;Node3</title>
<g id="a_edge2_Node000001_Node000003"><a xlink:title=" ">
<path fill="none" stroke="#63b8ff" d="M606.77,-118.84C593.64,-122.13 579.68,-125.64 566.79,-128.87"/>
<polygon fill="#63b8ff" stroke="#63b8ff" points="607.23,-122.08 616.08,-116.25 605.53,-115.29 607.23,-122.08"/>
</a>
</g>
</g>
<!-- Node4 -->
<g id="Node000004" class="node">
<title>Node4</title>
<g id="a_Node000004"><a xlink:href="../../d2/db4/namespace_slic3r_1_1_skirt.html#a4bcac91ee0731725f47d01ca533f85ae" target="_top" xlink:title=" ">
<polygon fill="white" stroke="#666666" points="580.38,-90.12 452.62,-90.12 452.62,-48.38 580.38,-48.38 580.38,-90.12"/>
<text text-anchor="start" x="460.62" y="-76.62" font-family="Helvetica,sans-Serif" font-size="10.00">Slic3r::Skirt::make</text>
<text text-anchor="start" x="460.62" y="-65.38" font-family="Helvetica,sans-Serif" font-size="10.00">_skirt_loops_per_extruder</text>
<text text-anchor="middle" x="516.5" y="-54.12" font-family="Helvetica,sans-Serif" font-size="10.00">_other_layers</text>
</a>
</g>
</g>
<!-- Node1&#45;&gt;Node4 -->
<g id="edge3_Node000001_Node000004" class="edge">
<title>Node1&#45;&gt;Node4</title>
<g id="a_edge3_Node000001_Node000004"><a xlink:title=" ">
<path fill="none" stroke="#63b8ff" d="M606.62,-91.63C598.2,-89.51 589.43,-87.31 580.82,-85.15"/>
<polygon fill="#63b8ff" stroke="#63b8ff" points="605.53,-95.21 616.08,-94.25 607.23,-88.42 605.53,-95.21"/>
</a>
</g>
</g>
<!-- Node5 -->
<g id="Node000005" class="node">
<title>Node5</title>
<g id="a_Node000005"><a xlink:href="../../dd/dc8/class_slic3r_1_1_g_code.html#af21d155aeb9662601bf3183370517d50" target="_top" xlink:title=" ">
<polygon fill="white" stroke="#666666" points="575.5,-30.5 457.5,-30.5 457.5,0 575.5,0 575.5,-30.5"/>
<text text-anchor="start" x="465.5" y="-17" font-family="Helvetica,sans-Serif" font-size="10.00">Slic3r::GCode::process</text>
<text text-anchor="middle" x="516.5" y="-5.75" font-family="Helvetica,sans-Serif" font-size="10.00">_layer</text>
</a>
</g>
</g>
<!-- Node1&#45;&gt;Node5 -->
<g id="edge5_Node000001_Node000005" class="edge">
<title>Node1&#45;&gt;Node5</title>
<g id="a_edge5_Node000001_Node000005"><a xlink:title=" ">
<path fill="none" stroke="#63b8ff" d="M637.61,-82.31C622.57,-68.43 602.03,-51.17 581.5,-39.25 576.27,-36.21 570.58,-33.43 564.82,-30.92"/>
<polygon fill="#63b8ff" stroke="#63b8ff" points="634.68,-84.3 644.36,-88.61 639.48,-79.21 634.68,-84.3"/>
</a>
</g>
</g>
<!-- Node4&#45;&gt;Node4 -->
<g id="edge4_Node000004_Node000004" class="edge">
<title>Node4&#45;&gt;Node4</title>
<g id="a_edge4_Node000004_Node000004"><a xlink:title=" ">
<path fill="none" stroke="#63b8ff" d="M540.75,-100.9C536.72,-105.23 528.64,-108.12 516.5,-108.12 496.06,-108.12 487.11,-99.92 489.67,-90.44"/>
<polygon fill="#63b8ff" stroke="#63b8ff" points="544.34,-101.99 543.33,-91.44 537.54,-100.31 544.34,-101.99"/>
</a>
</g>
</g>
<!-- Node6 -->
<g id="Node000006" class="node">
<title>Node6</title>
<g id="a_Node000006"><a xlink:href="../../dd/dc8/class_slic3r_1_1_g_code.html#a5972afc9f6c50f533adaa58259a12b47" target="_top" xlink:title=" ">
<polygon fill="white" stroke="#666666" points="415.5,-30.5 297.5,-30.5 297.5,0 415.5,0 415.5,-30.5"/>
<text text-anchor="start" x="305.5" y="-17" font-family="Helvetica,sans-Serif" font-size="10.00">Slic3r::GCode::process</text>
<text text-anchor="middle" x="356.5" y="-5.75" font-family="Helvetica,sans-Serif" font-size="10.00">_layers</text>
</a>
</g>
</g>
<!-- Node5&#45;&gt;Node6 -->
<g id="edge6_Node000005_Node000006" class="edge">
<title>Node5&#45;&gt;Node6</title>
<g id="a_edge6_Node000005_Node000006"><a xlink:title=" ">
<path fill="none" stroke="#63b8ff" d="M446.25,-15.25C436.13,-15.25 425.79,-15.25 415.91,-15.25"/>
<polygon fill="#63b8ff" stroke="#63b8ff" points="446.12,-18.75 456.12,-15.25 446.12,-11.75 446.12,-18.75"/>
</a>
</g>
</g>
<!-- Node7 -->
<g id="Node000007" class="node">
<title>Node7</title>
<g id="a_Node000007"><a xlink:href="../../dd/dc8/class_slic3r_1_1_g_code.html#ad5ac0f44c2121cf8d09cc7fde2dae045" target="_top" xlink:title=" ">
<polygon fill="white" stroke="#666666" points="261.5,-30.5 162.25,-30.5 162.25,0 261.5,0 261.5,-30.5"/>
<text text-anchor="start" x="170.25" y="-17" font-family="Helvetica,sans-Serif" font-size="10.00">Slic3r::GCode::_do</text>
<text text-anchor="middle" x="211.88" y="-5.75" font-family="Helvetica,sans-Serif" font-size="10.00">_export</text>
</a>
</g>
</g>
<!-- Node6&#45;&gt;Node7 -->
<g id="edge7_Node000006_Node000007" class="edge">
<title>Node6&#45;&gt;Node7</title>
<g id="a_edge7_Node000006_Node000007"><a xlink:title=" ">
<path fill="none" stroke="#63b8ff" d="M286.29,-15.25C278.04,-15.25 269.76,-15.25 261.88,-15.25"/>
<polygon fill="#63b8ff" stroke="#63b8ff" points="286.08,-18.75 296.08,-15.25 286.08,-11.75 286.08,-18.75"/>
</a>
</g>
</g>
<!-- Node8 -->
<g id="Node000008" class="node">
<title>Node8</title>
<g id="a_Node000008"><a xlink:href="../../dd/dc8/class_slic3r_1_1_g_code.html#a41ddab6bfd15c1848026271f48485efb" target="_top" xlink:title=" ">
<polygon fill="white" stroke="#666666" points="126.25,-24.88 0,-24.88 0,-5.63 126.25,-5.63 126.25,-24.88"/>
<text text-anchor="middle" x="63.12" y="-11.38" font-family="Helvetica,sans-Serif" font-size="10.00">Slic3r::GCode::do_export</text>
</a>
</g>
</g>
<!-- Node7&#45;&gt;Node8 -->
<g id="edge8_Node000007_Node000008" class="edge">
<title>Node7&#45;&gt;Node8</title>
<g id="a_edge8_Node000007_Node000008"><a xlink:title=" ">
<path fill="none" stroke="#63b8ff" d="M151.16,-15.25C143.07,-15.25 134.75,-15.25 126.61,-15.25"/>
<polygon fill="#63b8ff" stroke="#63b8ff" points="151.01,-18.75 161.01,-15.25 151.01,-11.75 151.01,-18.75"/>
</a>
</g>
</g>
</g>
</svg>
