<?xml version="1.0" encoding="UTF-8" standalone="no"?>
<!DOCTYPE svg PUBLIC "-//W3C//DTD SVG 1.1//EN"
 "http://www.w3.org/Graphics/SVG/1.1/DTD/svg11.dtd">
<!-- Generated by graphviz version 8.1.0 (20230707.0739)
 -->
<!-- Title: Tabbook::GetBtnsListCtrl Pages: 1 -->
<svg width="940pt" height="349pt"
 viewBox="0.00 0.00 939.50 348.88" xmlns="http://www.w3.org/2000/svg" xmlns:xlink="http://www.w3.org/1999/xlink">
<g id="graph0" class="graph" transform="scale(1 1) rotate(0) translate(4 344.88)">
<title>Tabbook::GetBtnsListCtrl</title>
<!-- Node1 -->
<g id="Node000001" class="node">
<title>Node1</title>
<g id="a_Node000001"><a xlink:title=" ">
<polygon fill="#999999" stroke="#666666" points="931.5,-187.25 805.25,-187.25 805.25,-168 931.5,-168 931.5,-187.25"/>
<text text-anchor="middle" x="868.38" y="-173.75" font-family="Helvetica,sans-Serif" font-size="10.00">Tabbook::GetBtnsListCtrl</text>
</a>
</g>
</g>
<!-- Node2 -->
<g id="Node000002" class="node">
<title>Node2</title>
<g id="a_Node000002"><a xlink:href="../../d3/dbc/class_tabbook.html#a6d622deae7113403a441d4511596fce5" target="_top" xlink:title=" ">
<polygon fill="white" stroke="#666666" points="769.25,-335.25 636.25,-335.25 636.25,-316 769.25,-316 769.25,-335.25"/>
<text text-anchor="middle" x="702.75" y="-321.75" font-family="Helvetica,sans-Serif" font-size="10.00">Tabbook::ChangeSelection</text>
</a>
</g>
</g>
<!-- Node1&#45;&gt;Node2 -->
<g id="edge1_Node000001_Node000002" class="edge">
<title>Node1&#45;&gt;Node2</title>
<g id="a_edge1_Node000001_Node000002"><a xlink:title=" ">
<path fill="none" stroke="#63b8ff" d="M857.92,-197.21C843.08,-225.86 811.58,-278.9 769.25,-307.62 764.57,-310.8 759.34,-313.42 753.93,-315.58"/>
<polygon fill="#63b8ff" stroke="#63b8ff" points="861.42,-199.04 862.78,-188.53 855.17,-195.9 861.42,-199.04"/>
</a>
</g>
</g>
<!-- Node4 -->
<g id="Node000004" class="node">
<title>Node4</title>
<g id="a_Node000004"><a xlink:href="../../d3/dbc/class_tabbook.html#abc18d2ff5265da0e3520ded61e5ad405" target="_top" xlink:title=" ">
<polygon fill="white" stroke="#666666" points="768.12,-298.25 637.38,-298.25 637.38,-279 768.12,-279 768.12,-298.25"/>
<text text-anchor="middle" x="702.75" y="-284.75" font-family="Helvetica,sans-Serif" font-size="10.00">Tabbook::DoRemovePage</text>
</a>
</g>
</g>
<!-- Node1&#45;&gt;Node4 -->
<g id="edge3_Node000001_Node000004" class="edge">
<title>Node1&#45;&gt;Node4</title>
<g id="a_edge3_Node000001_Node000004"><a xlink:title=" ">
<path fill="none" stroke="#63b8ff" d="M852.78,-196.13C835.17,-217.21 803.62,-251.24 769.25,-270.62 763.7,-273.75 757.58,-276.36 751.37,-278.53"/>
<polygon fill="#63b8ff" stroke="#63b8ff" points="856.03,-198.67 859.64,-188.71 850.61,-194.25 856.03,-198.67"/>
</a>
</g>
</g>
<!-- Node5 -->
<g id="Node000005" class="node">
<title>Node5</title>
<g id="a_Node000005"><a xlink:href="../../d3/dbc/class_tabbook.html#a5244a5de7d0928decbbe9321b79966e1" target="_top" xlink:title=" ">
<polygon fill="white" stroke="#666666" points="760.62,-261.25 644.88,-261.25 644.88,-242 760.62,-242 760.62,-261.25"/>
<text text-anchor="middle" x="702.75" y="-247.75" font-family="Helvetica,sans-Serif" font-size="10.00">Tabbook::GetPageText</text>
</a>
</g>
</g>
<!-- Node1&#45;&gt;Node5 -->
<g id="edge4_Node000001_Node000005" class="edge">
<title>Node1&#45;&gt;Node5</title>
<g id="a_edge4_Node000001_Node000005"><a xlink:title=" ">
<path fill="none" stroke="#63b8ff" d="M843.7,-193.39C824.34,-205.72 795.91,-222.56 769.25,-233.62 762.06,-236.61 754.23,-239.25 746.55,-241.53"/>
<polygon fill="#63b8ff" stroke="#63b8ff" points="845.18,-195.95 851.68,-187.58 841.38,-190.07 845.18,-195.95"/>
</a>
</g>
</g>
<!-- Node6 -->
<g id="Node000006" class="node">
<title>Node6</title>
<g id="a_Node000006"><a xlink:href="../../d3/dbc/class_tabbook.html#a1c13e658d8720be1ee26f11368c3fa2d" target="_top" xlink:title=" ">
<polygon fill="white" stroke="#666666" points="599.5,-121.25 473.25,-121.25 473.25,-102 599.5,-102 599.5,-121.25"/>
<text text-anchor="middle" x="536.38" y="-107.75" font-family="Helvetica,sans-Serif" font-size="10.00">Tabbook::InsertNewPage</text>
</a>
</g>
</g>
<!-- Node1&#45;&gt;Node6 -->
<g id="edge5_Node000001_Node000006" class="edge">
<title>Node1&#45;&gt;Node6</title>
<g id="a_edge5_Node000001_Node000006"><a xlink:title=" ">
<path fill="none" stroke="#63b8ff" d="M806.34,-165.42C743.45,-152.84 646.56,-133.46 587.85,-121.72"/>
<polygon fill="#63b8ff" stroke="#63b8ff" points="805.4,-169 815.9,-167.53 806.78,-162.14 805.4,-169"/>
</a>
</g>
</g>
<!-- Node13 -->
<g id="Node000013" class="node">
<title>Node13</title>
<g id="a_Node000013"><a xlink:href="../../d3/dbc/class_tabbook.html#a8793f4824043dc5af89a5ffb9e706c25" target="_top" xlink:title=" ">
<polygon fill="white" stroke="#666666" points="755.75,-187.25 649.75,-187.25 649.75,-168 755.75,-168 755.75,-187.25"/>
<text text-anchor="middle" x="702.75" y="-173.75" font-family="Helvetica,sans-Serif" font-size="10.00">Tabbook::InsertPage</text>
</a>
</g>
</g>
<!-- Node1&#45;&gt;Node13 -->
<g id="edge12_Node000001_Node000013" class="edge">
<title>Node1&#45;&gt;Node13</title>
<g id="a_edge12_Node000001_Node000013"><a xlink:title=" ">
<path fill="none" stroke="#63b8ff" d="M794.31,-177.62C781.42,-177.62 768.23,-177.62 756.05,-177.62"/>
<polygon fill="#63b8ff" stroke="#63b8ff" points="794.05,-181.13 804.05,-177.62 794.05,-174.13 794.05,-181.13"/>
</a>
</g>
</g>
<!-- Node14 -->
<g id="Node000014" class="node">
<title>Node14</title>
<g id="a_Node000014"><a xlink:href="../../d3/dbc/class_tabbook.html#ab15e8368c7c7d151eb9a16230f9f5767" target="_top" xlink:title=" ">
<polygon fill="white" stroke="#666666" points="750.12,-224.25 655.38,-224.25 655.38,-205 750.12,-205 750.12,-224.25"/>
<text text-anchor="middle" x="702.75" y="-210.75" font-family="Helvetica,sans-Serif" font-size="10.00">Tabbook::Rescale</text>
</a>
</g>
</g>
<!-- Node1&#45;&gt;Node14 -->
<g id="edge13_Node000001_Node000014" class="edge">
<title>Node1&#45;&gt;Node14</title>
<g id="a_edge13_Node000001_Node000014"><a xlink:title=" ">
<path fill="none" stroke="#63b8ff" d="M812.08,-190.13C791.35,-194.82 768.06,-200.08 748.41,-204.53"/>
<polygon fill="#63b8ff" stroke="#63b8ff" points="812.68,-193.35 821.66,-187.74 811.14,-186.53 812.68,-193.35"/>
</a>
</g>
</g>
<!-- Node16 -->
<g id="Node000016" class="node">
<title>Node16</title>
<g id="a_Node000016"><a xlink:href="../../d3/dbc/class_tabbook.html#a5e9c5254f0a9bd3b159b3c19c66ebb8b" target="_top" xlink:title=" ">
<polygon fill="white" stroke="#666666" points="764.38,-111.25 641.12,-111.25 641.12,-92 764.38,-92 764.38,-111.25"/>
<text text-anchor="middle" x="702.75" y="-97.75" font-family="Helvetica,sans-Serif" font-size="10.00">Tabbook::SetPageImage</text>
</a>
</g>
</g>
<!-- Node1&#45;&gt;Node16 -->
<g id="edge15_Node000001_Node000016" class="edge">
<title>Node1&#45;&gt;Node16</title>
<g id="a_edge15_Node000001_Node000016"><a xlink:title=" ">
<path fill="none" stroke="#63b8ff" d="M840.94,-162.36C821.46,-151.42 794.14,-136.72 769.25,-125.62 757.86,-120.55 745.03,-115.67 733.76,-111.65"/>
<polygon fill="#63b8ff" stroke="#63b8ff" points="838.93,-165.81 849.36,-167.69 842.38,-159.72 838.93,-165.81"/>
</a>
</g>
</g>
<!-- Node17 -->
<g id="Node000017" class="node">
<title>Node17</title>
<g id="a_Node000017"><a xlink:href="../../d3/dbc/class_tabbook.html#ac4990930573af2da95109458cb544c25" target="_top" xlink:title=" ">
<polygon fill="white" stroke="#666666" points="760.25,-74.25 645.25,-74.25 645.25,-55 760.25,-55 760.25,-74.25"/>
<text text-anchor="middle" x="702.75" y="-60.75" font-family="Helvetica,sans-Serif" font-size="10.00">Tabbook::SetPageText</text>
</a>
</g>
</g>
<!-- Node1&#45;&gt;Node17 -->
<g id="edge16_Node000001_Node000017" class="edge">
<title>Node1&#45;&gt;Node17</title>
<g id="a_edge16_Node000001_Node000017"><a xlink:title=" ">
<path fill="none" stroke="#63b8ff" d="M853.13,-159.05C835.66,-137.53 804.05,-102.49 769.25,-82.62 763.72,-79.47 757.61,-76.84 751.41,-74.66"/>
<polygon fill="#63b8ff" stroke="#63b8ff" points="850.97,-160.95 859.93,-166.62 856.46,-156.61 850.97,-160.95"/>
</a>
</g>
</g>
<!-- Node18 -->
<g id="Node000018" class="node">
<title>Node18</title>
<g id="a_Node000018"><a xlink:href="../../d3/dbc/class_tabbook.html#af694c216656e218a6af4c84a7b64731d" target="_top" xlink:title=" ">
<polygon fill="white" stroke="#666666" points="759.88,-37.25 645.62,-37.25 645.62,-18 759.88,-18 759.88,-37.25"/>
<text text-anchor="middle" x="702.75" y="-23.75" font-family="Helvetica,sans-Serif" font-size="10.00">Tabbook::SetSelection</text>
</a>
</g>
</g>
<!-- Node1&#45;&gt;Node18 -->
<g id="edge17_Node000001_Node000018" class="edge">
<title>Node1&#45;&gt;Node18</title>
<g id="a_edge17_Node000001_Node000018"><a xlink:title=" ">
<path fill="none" stroke="#63b8ff" d="M858,-157.73C843.26,-128.64 811.89,-74.79 769.25,-45.62 764.58,-42.43 759.35,-39.8 753.95,-37.63"/>
<polygon fill="#63b8ff" stroke="#63b8ff" points="855.28,-159.13 862.83,-166.57 861.56,-156.05 855.28,-159.13"/>
</a>
</g>
</g>
<!-- Node3 -->
<g id="Node000003" class="node">
<title>Node3</title>
<g id="a_Node000003"><a xlink:href="../../d7/d21/class_slic3r_1_1_g_u_i_1_1_plater.html#ac9eed57f5586de7e481510ae518cd569" target="_top" xlink:title=" ">
<polygon fill="white" stroke="#666666" points="585.25,-340.88 487.5,-340.88 487.5,-310.38 585.25,-310.38 585.25,-340.88"/>
<text text-anchor="start" x="495.5" y="-327.38" font-family="Helvetica,sans-Serif" font-size="10.00">Slic3r::GUI::Plater</text>
<text text-anchor="middle" x="536.38" y="-316.12" font-family="Helvetica,sans-Serif" font-size="10.00">::print_job_finished</text>
</a>
</g>
</g>
<!-- Node2&#45;&gt;Node3 -->
<g id="edge2_Node000002_Node000003" class="edge">
<title>Node2&#45;&gt;Node3</title>
<g id="a_edge2_Node000002_Node000003"><a xlink:title=" ">
<path fill="none" stroke="#63b8ff" d="M625.12,-325.62C611.66,-325.62 598,-325.62 585.59,-325.62"/>
<polygon fill="#63b8ff" stroke="#63b8ff" points="624.84,-329.13 634.84,-325.62 624.84,-322.13 624.84,-329.13"/>
</a>
</g>
</g>
<!-- Node7 -->
<g id="Node000007" class="node">
<title>Node7</title>
<g id="a_Node000007"><a xlink:href="../../d3/dbc/class_tabbook.html#a2881ef46b5390153fc4636134216b42a" target="_top" xlink:title=" ">
<polygon fill="white" stroke="#666666" points="436.5,-121.25 338,-121.25 338,-102 436.5,-102 436.5,-121.25"/>
<text text-anchor="middle" x="387.25" y="-107.75" font-family="Helvetica,sans-Serif" font-size="10.00">Tabbook::AddPage</text>
</a>
</g>
</g>
<!-- Node6&#45;&gt;Node7 -->
<g id="edge6_Node000006_Node000007" class="edge">
<title>Node6&#45;&gt;Node7</title>
<g id="a_edge6_Node000006_Node000007"><a xlink:title=" ">
<path fill="none" stroke="#63b8ff" d="M462.17,-111.62C453.6,-111.62 445.02,-111.62 436.91,-111.62"/>
<polygon fill="#63b8ff" stroke="#63b8ff" points="461.98,-115.13 471.98,-111.62 461.98,-108.13 461.98,-115.13"/>
</a>
</g>
</g>
<!-- Node8 -->
<g id="Node000008" class="node">
<title>Node8</title>
<g id="a_Node000008"><a xlink:href="../../dc/d60/class_slic3r_1_1_g_u_i_1_1_auxiliary_panel.html#a3c4f44113fd74206d70d1c631534e6ff" target="_top" xlink:title=" ">
<polygon fill="white" stroke="#666666" points="302,-175.88 169,-175.88 169,-145.38 302,-145.38 302,-175.88"/>
<text text-anchor="start" x="177" y="-162.38" font-family="Helvetica,sans-Serif" font-size="10.00">Slic3r::GUI::AuxiliaryPanel</text>
<text text-anchor="middle" x="235.5" y="-151.12" font-family="Helvetica,sans-Serif" font-size="10.00">::init_tabpanel</text>
</a>
</g>
</g>
<!-- Node7&#45;&gt;Node8 -->
<g id="edge7_Node000007_Node000008" class="edge">
<title>Node7&#45;&gt;Node8</title>
<g id="a_edge7_Node000007_Node000008"><a xlink:title=" ">
<path fill="none" stroke="#63b8ff" d="M345.28,-125.03C326.49,-131.18 304.09,-138.51 284.52,-144.91"/>
<polygon fill="#63b8ff" stroke="#63b8ff" points="346.17,-128.1 354.58,-121.66 343.99,-121.44 346.17,-128.1"/>
</a>
</g>
</g>
<!-- Node10 -->
<g id="Node000010" class="node">
<title>Node10</title>
<g id="a_Node000010"><a xlink:href="../../d4/d77/class_slic3r_1_1_g_u_i_1_1_monitor_panel.html#a1716b924686e014ca5383dec8805052e" target="_top" xlink:title=" ">
<polygon fill="white" stroke="#666666" points="299.38,-126.88 171.62,-126.88 171.62,-96.38 299.38,-96.38 299.38,-126.88"/>
<text text-anchor="start" x="179.62" y="-113.38" font-family="Helvetica,sans-Serif" font-size="10.00">Slic3r::GUI::MonitorPanel</text>
<text text-anchor="middle" x="235.5" y="-102.12" font-family="Helvetica,sans-Serif" font-size="10.00">::init_tabpanel</text>
</a>
</g>
</g>
<!-- Node7&#45;&gt;Node10 -->
<g id="edge9_Node000007_Node000010" class="edge">
<title>Node7&#45;&gt;Node10</title>
<g id="a_edge9_Node000007_Node000010"><a xlink:title=" ">
<path fill="none" stroke="#63b8ff" d="M326.89,-111.62C317.92,-111.62 308.65,-111.62 299.61,-111.62"/>
<polygon fill="#63b8ff" stroke="#63b8ff" points="326.63,-115.13 336.63,-111.62 326.63,-108.13 326.63,-115.13"/>
</a>
</g>
</g>
<!-- Node12 -->
<g id="Node000012" class="node">
<title>Node12</title>
<g id="a_Node000012"><a xlink:href="../../d3/dbc/class_tabbook.html#a853f53cf0f19c1e5e38ede15b928f531" target="_top" xlink:title=" ">
<polygon fill="white" stroke="#666666" points="298.62,-78.25 172.38,-78.25 172.38,-59 298.62,-59 298.62,-78.25"/>
<text text-anchor="middle" x="235.5" y="-64.75" font-family="Helvetica,sans-Serif" font-size="10.00">Tabbook::ShowNewPage</text>
</a>
</g>
</g>
<!-- Node7&#45;&gt;Node12 -->
<g id="edge11_Node000007_Node000012" class="edge">
<title>Node7&#45;&gt;Node12</title>
<g id="a_edge11_Node000007_Node000012"><a xlink:title=" ">
<path fill="none" stroke="#63b8ff" d="M340.63,-98.52C318.46,-92.16 292.23,-84.63 271.65,-78.72"/>
<polygon fill="#63b8ff" stroke="#63b8ff" points="339.56,-102.15 350.14,-101.54 341.49,-95.42 339.56,-102.15"/>
</a>
</g>
</g>
<!-- Node9 -->
<g id="Node000009" class="node">
<title>Node9</title>
<g id="a_Node000009"><a xlink:href="../../dc/d60/class_slic3r_1_1_g_u_i_1_1_auxiliary_panel.html#ad2e0cfe874892ba50f3b63209c51df2f" target="_top" xlink:title=" ">
<polygon fill="white" stroke="#666666" points="133,-175.88 0,-175.88 0,-145.38 133,-145.38 133,-175.88"/>
<text text-anchor="start" x="8" y="-162.38" font-family="Helvetica,sans-Serif" font-size="10.00">Slic3r::GUI::AuxiliaryPanel</text>
<text text-anchor="middle" x="66.5" y="-151.12" font-family="Helvetica,sans-Serif" font-size="10.00">::AuxiliaryPanel</text>
</a>
</g>
</g>
<!-- Node8&#45;&gt;Node9 -->
<g id="edge8_Node000008_Node000009" class="edge">
<title>Node8&#45;&gt;Node9</title>
<g id="a_edge8_Node000008_Node000009"><a xlink:title=" ">
<path fill="none" stroke="#63b8ff" d="M158.18,-160.62C149.9,-160.62 141.52,-160.62 133.38,-160.62"/>
<polygon fill="#63b8ff" stroke="#63b8ff" points="157.98,-164.13 167.98,-160.62 157.98,-157.13 157.98,-164.13"/>
</a>
</g>
</g>
<!-- Node11 -->
<g id="Node000011" class="node">
<title>Node11</title>
<g id="a_Node000011"><a xlink:href="../../d4/d77/class_slic3r_1_1_g_u_i_1_1_monitor_panel.html#a13ffdb6797a54bb0643e430f242462ac" target="_top" xlink:title=" ">
<polygon fill="white" stroke="#666666" points="130.38,-126.88 2.62,-126.88 2.62,-96.38 130.38,-96.38 130.38,-126.88"/>
<text text-anchor="start" x="10.62" y="-113.38" font-family="Helvetica,sans-Serif" font-size="10.00">Slic3r::GUI::MonitorPanel</text>
<text text-anchor="middle" x="66.5" y="-102.12" font-family="Helvetica,sans-Serif" font-size="10.00">::MonitorPanel</text>
</a>
</g>
</g>
<!-- Node10&#45;&gt;Node11 -->
<g id="edge10_Node000010_Node000011" class="edge">
<title>Node10&#45;&gt;Node11</title>
<g id="a_edge10_Node000010_Node000011"><a xlink:title=" ">
<path fill="none" stroke="#63b8ff" d="M160.64,-111.62C150.66,-111.62 140.49,-111.62 130.72,-111.62"/>
<polygon fill="#63b8ff" stroke="#63b8ff" points="160.36,-115.13 170.36,-111.62 160.36,-108.13 160.36,-115.13"/>
</a>
</g>
</g>
<!-- Node15 -->
<g id="Node000015" class="node">
<title>Node15</title>
<g id="a_Node000015"><a xlink:href="../../d4/d77/class_slic3r_1_1_g_u_i_1_1_monitor_panel.html#af82930ee59437f81a4ba1010f09f8fff" target="_top" xlink:title=" ">
<polygon fill="white" stroke="#666666" points="600.25,-229.88 472.5,-229.88 472.5,-199.38 600.25,-199.38 600.25,-229.88"/>
<text text-anchor="start" x="480.5" y="-216.38" font-family="Helvetica,sans-Serif" font-size="10.00">Slic3r::GUI::MonitorPanel</text>
<text text-anchor="middle" x="536.38" y="-205.12" font-family="Helvetica,sans-Serif" font-size="10.00">::msw_rescale</text>
</a>
</g>
</g>
<!-- Node14&#45;&gt;Node15 -->
<g id="edge14_Node000014_Node000015" class="edge">
<title>Node14&#45;&gt;Node15</title>
<g id="a_edge14_Node000014_Node000015"><a xlink:title=" ">
<path fill="none" stroke="#63b8ff" d="M644.1,-214.62C630.08,-214.62 615,-214.62 600.73,-214.62"/>
<polygon fill="#63b8ff" stroke="#63b8ff" points="644.09,-218.13 654.09,-214.62 644.09,-211.13 644.09,-218.13"/>
</a>
</g>
</g>
<!-- Node18&#45;&gt;Node6 -->
<g id="edge20_Node000018_Node000006" class="edge">
<title>Node18&#45;&gt;Node6</title>
<g id="a_edge20_Node000018_Node000006"><a xlink:title=" ">
<path fill="none" stroke="#63b8ff" d="M647.27,-41.13C643.49,-42.52 639.78,-44.01 636.25,-45.62 618.7,-53.64 574.03,-85.16 551.23,-101.57"/>
<polygon fill="#63b8ff" stroke="#63b8ff" points="648.01,-44.24 656.37,-37.74 645.78,-37.61 648.01,-44.24"/>
</a>
</g>
</g>
<!-- Node19 -->
<g id="Node000019" class="node">
<title>Node19</title>
<g id="a_Node000019"><a xlink:href="../../d3/dbc/class_tabbook.html#a759da15556a930daf0af730543e50b0e" target="_top" xlink:title=" ">
<polygon fill="white" stroke="#666666" points="580.38,-19.25 492.38,-19.25 492.38,0 580.38,0 580.38,-19.25"/>
<text text-anchor="middle" x="536.38" y="-5.75" font-family="Helvetica,sans-Serif" font-size="10.00">Tabbook::Create</text>
</a>
</g>
</g>
<!-- Node18&#45;&gt;Node19 -->
<g id="edge18_Node000018_Node000019" class="edge">
<title>Node18&#45;&gt;Node19</title>
<g id="a_edge18_Node000018_Node000019"><a xlink:title=" ">
<path fill="none" stroke="#63b8ff" d="M634.38,-20.25C616.29,-18.27 597.21,-16.18 580.8,-14.38"/>
<polygon fill="#63b8ff" stroke="#63b8ff" points="633.86,-23.82 644.18,-21.43 634.62,-16.86 633.86,-23.82"/>
</a>
</g>
</g>
<!-- Node21 -->
<g id="Node000021" class="node">
<title>Node21</title>
<g id="a_Node000021"><a xlink:href="../../d3/dbc/class_tabbook.html#a97382c6f4f026c008cdd0d8935882b6e" target="_top" xlink:title=" ">
<polygon fill="white" stroke="#666666" points="595.38,-56.25 477.38,-56.25 477.38,-37 595.38,-37 595.38,-56.25"/>
<text text-anchor="middle" x="536.38" y="-42.75" font-family="Helvetica,sans-Serif" font-size="10.00">Tabbook::RemovePage</text>
</a>
</g>
</g>
<!-- Node18&#45;&gt;Node21 -->
<g id="edge21_Node000018_Node000021" class="edge">
<title>Node18&#45;&gt;Node21</title>
<g id="a_edge21_Node000018_Node000021"><a xlink:title=" ">
<path fill="none" stroke="#63b8ff" d="M634.52,-35.4C621.66,-36.88 608.28,-38.43 595.73,-39.88"/>
<polygon fill="#63b8ff" stroke="#63b8ff" points="634.65,-38.79 644.18,-34.16 633.85,-31.84 634.65,-38.79"/>
</a>
</g>
</g>
<!-- Node20 -->
<g id="Node000020" class="node">
<title>Node20</title>
<g id="a_Node000020"><a xlink:href="../../d3/dbc/class_tabbook.html#a8f80a46782fd3c8ded4c7ed29ffe817e" target="_top" xlink:title=" ">
<polygon fill="white" stroke="#666666" points="435,-19.25 339.5,-19.25 339.5,0 435,0 435,-19.25"/>
<text text-anchor="middle" x="387.25" y="-5.75" font-family="Helvetica,sans-Serif" font-size="10.00">Tabbook::Tabbook</text>
</a>
</g>
</g>
<!-- Node19&#45;&gt;Node20 -->
<g id="edge19_Node000019_Node000020" class="edge">
<title>Node19&#45;&gt;Node20</title>
<g id="a_edge19_Node000019_Node000020"><a xlink:title=" ">
<path fill="none" stroke="#63b8ff" d="M481.31,-9.62C466.25,-9.62 450.02,-9.62 435.4,-9.62"/>
<polygon fill="#63b8ff" stroke="#63b8ff" points="481.03,-13.13 491.03,-9.62 481.03,-6.13 481.03,-13.13"/>
</a>
</g>
</g>
</g>
</svg>
