<?xml version="1.0" encoding="UTF-8" standalone="no"?>
<!DOCTYPE svg PUBLIC "-//W3C//DTD SVG 1.1//EN"
 "http://www.w3.org/Graphics/SVG/1.1/DTD/svg11.dtd">
<!-- Generated by graphviz version 8.1.0 (20230707.0739)
 -->
<!-- Title: poolCopyString Pages: 1 -->
<svg width="883pt" height="513pt"
 viewBox="0.00 0.00 882.50 512.88" xmlns="http://www.w3.org/2000/svg" xmlns:xlink="http://www.w3.org/1999/xlink">
<g id="graph0" class="graph" transform="scale(1 1) rotate(0) translate(4 508.88)">
<title>poolCopyString</title>
<!-- Node1 -->
<g id="Node000001" class="node">
<title>Node1</title>
<g id="a_Node000001"><a xlink:title=" ">
<polygon fill="#999999" stroke="#666666" points="874.5,-277.25 791.75,-277.25 791.75,-258 874.5,-258 874.5,-277.25"/>
<text text-anchor="middle" x="833.12" y="-263.75" font-family="Helvetica,sans-Serif" font-size="10.00">poolCopyString</text>
</a>
</g>
</g>
<!-- Node2 -->
<g id="Node000002" class="node">
<title>Node2</title>
<g id="a_Node000002"><a xlink:href="../../d7/d43/xmlparse_8c.html#af02d1fc2766c0e42536bde030fe15462" target="_top" xlink:title=" ">
<polygon fill="white" stroke="#666666" points="750.12,-390.25 664.38,-390.25 664.38,-371 750.12,-371 750.12,-390.25"/>
<text text-anchor="middle" x="707.25" y="-376.75" font-family="Helvetica,sans-Serif" font-size="10.00">copyEntityTable</text>
</a>
</g>
</g>
<!-- Node1&#45;&gt;Node2 -->
<g id="edge1_Node000001_Node000002" class="edge">
<title>Node1&#45;&gt;Node2</title>
<g id="a_edge1_Node000001_Node000002"><a xlink:title=" ">
<path fill="none" stroke="#63b8ff" d="M819.43,-286.39C805.56,-305.84 781.8,-336.21 755.75,-356.62 748.77,-362.1 740.34,-366.84 732.54,-370.63"/>
<polygon fill="#63b8ff" stroke="#63b8ff" points="822.74,-288.77 825.58,-278.56 817,-284.77 822.74,-288.77"/>
</a>
</g>
</g>
<!-- Node3 -->
<g id="Node000003" class="node">
<title>Node3</title>
<g id="a_Node000003"><a xlink:href="../../d7/d43/xmlparse_8c.html#ac4be2177fc74018ecb3a97ff8b1429c2" target="_top" xlink:title=" ">
<polygon fill="white" stroke="#666666" points="601,-389.25 548.25,-389.25 548.25,-370 601,-370 601,-389.25"/>
<text text-anchor="middle" x="574.62" y="-375.75" font-family="Helvetica,sans-Serif" font-size="10.00">dtdCopy</text>
</a>
</g>
</g>
<!-- Node1&#45;&gt;Node3 -->
<g id="edge4_Node000001_Node000003" class="edge">
<title>Node1&#45;&gt;Node3</title>
<g id="a_edge4_Node000001_Node000003"><a xlink:title=" ">
<path fill="none" stroke="#63b8ff" d="M812.72,-284.68C797.95,-296.93 776.66,-313.08 755.75,-323.62 703.85,-349.8 637.32,-366.6 601.41,-374.44"/>
<polygon fill="#63b8ff" stroke="#63b8ff" points="814.65,-286.78 820.01,-277.64 810.12,-281.45 814.65,-286.78"/>
</a>
</g>
</g>
<!-- Node5 -->
<g id="Node000005" class="node">
<title>Node5</title>
<g id="a_Node000005"><a xlink:href="../../d7/d43/xmlparse_8c.html#ab29c51c12849d5aa5432474faceb43cc" target="_top" xlink:title=" ">
<polygon fill="white" stroke="#666666" points="735.5,-314.25 679,-314.25 679,-295 735.5,-295 735.5,-314.25"/>
<text text-anchor="middle" x="707.25" y="-300.75" font-family="Helvetica,sans-Serif" font-size="10.00">parserInit</text>
</a>
</g>
</g>
<!-- Node1&#45;&gt;Node5 -->
<g id="edge5_Node000001_Node000005" class="edge">
<title>Node1&#45;&gt;Node5</title>
<g id="a_edge5_Node000001_Node000005"><a xlink:title=" ">
<path fill="none" stroke="#63b8ff" d="M787.79,-280.87C770.44,-286.05 751.07,-291.83 735.8,-296.4"/>
<polygon fill="#63b8ff" stroke="#63b8ff" points="788.7,-283.95 797.28,-277.74 786.69,-277.24 788.7,-283.95"/>
</a>
</g>
</g>
<!-- Node77 -->
<g id="Node000077" class="node">
<title>Node77</title>
<g id="a_Node000077"><a xlink:href="../../d7/d43/xmlparse_8c.html#a9b7c30784d1675548b3d19ae242c4820" target="_top" xlink:title=" ">
<polygon fill="white" stroke="#666666" points="739.25,-277.25 675.25,-277.25 675.25,-258 739.25,-258 739.25,-277.25"/>
<text text-anchor="middle" x="707.25" y="-263.75" font-family="Helvetica,sans-Serif" font-size="10.00">setContext</text>
</a>
</g>
</g>
<!-- Node1&#45;&gt;Node77 -->
<g id="edge20_Node000001_Node000077" class="edge">
<title>Node1&#45;&gt;Node77</title>
<g id="a_edge20_Node000001_Node000077"><a xlink:title=" ">
<path fill="none" stroke="#63b8ff" d="M780.58,-267.62C766.62,-267.62 751.93,-267.62 739.47,-267.62"/>
<polygon fill="#63b8ff" stroke="#63b8ff" points="780.56,-271.13 790.56,-267.62 780.56,-264.13 780.56,-271.13"/>
</a>
</g>
</g>
<!-- Node81 -->
<g id="Node000081" class="node">
<title>Node81</title>
<g id="a_Node000081"><a xlink:href="../../d7/d43/xmlparse_8c.html#a98b796855066cf15d23725e172f58ae3" target="_top" xlink:title=" ">
<polygon fill="white" stroke="#666666" points="735.12,-240.25 679.38,-240.25 679.38,-221 735.12,-221 735.12,-240.25"/>
<text text-anchor="middle" x="707.25" y="-226.75" font-family="Helvetica,sans-Serif" font-size="10.00">storeAtts</text>
</a>
</g>
</g>
<!-- Node1&#45;&gt;Node81 -->
<g id="edge32_Node000001_Node000081" class="edge">
<title>Node1&#45;&gt;Node81</title>
<g id="a_edge32_Node000001_Node000081"><a xlink:title=" ">
<path fill="none" stroke="#63b8ff" d="M788.2,-254.51C770.59,-249.25 750.85,-243.35 735.4,-238.73"/>
<polygon fill="#63b8ff" stroke="#63b8ff" points="786.69,-258.01 797.28,-257.51 788.7,-251.3 786.69,-258.01"/>
</a>
</g>
</g>
<!-- Node90 -->
<g id="Node000090" class="node">
<title>Node90</title>
<g id="a_Node000090"><a xlink:href="../../d7/d43/xmlparse_8c.html#a102ae76f998e2cb8eb542eb08b05b4a4" target="_top" xlink:title=" ">
<polygon fill="white" stroke="#666666" points="746.75,-203.25 667.75,-203.25 667.75,-184 746.75,-184 746.75,-203.25"/>
<text text-anchor="middle" x="707.25" y="-189.75" font-family="Helvetica,sans-Serif" font-size="10.00">XML_SetBase</text>
</a>
</g>
</g>
<!-- Node1&#45;&gt;Node90 -->
<g id="edge44_Node000001_Node000090" class="edge">
<title>Node1&#45;&gt;Node90</title>
<g id="a_edge44_Node000001_Node000090"><a xlink:title=" ">
<path fill="none" stroke="#63b8ff" d="M812.26,-250.73C797.41,-238.69 776.21,-222.74 755.75,-211.62 750.33,-208.68 744.32,-206 738.45,-203.66"/>
<polygon fill="#63b8ff" stroke="#63b8ff" points="809.69,-253.97 819.63,-257.64 814.15,-248.57 809.69,-253.97"/>
</a>
</g>
</g>
<!-- Node91 -->
<g id="Node000091" class="node">
<title>Node91</title>
<g id="a_Node000091"><a xlink:href="../../d7/d43/xmlparse_8c.html#a760f6f635c22ef02952a4864863822f6" target="_top" xlink:title=" ">
<polygon fill="white" stroke="#666666" points="755.75,-166.25 658.75,-166.25 658.75,-147 755.75,-147 755.75,-166.25"/>
<text text-anchor="middle" x="707.25" y="-152.75" font-family="Helvetica,sans-Serif" font-size="10.00">XML_SetEncoding</text>
</a>
</g>
</g>
<!-- Node1&#45;&gt;Node91 -->
<g id="edge45_Node000001_Node000091" class="edge">
<title>Node1&#45;&gt;Node91</title>
<g id="a_edge45_Node000001_Node000091"><a xlink:title=" ">
<path fill="none" stroke="#63b8ff" d="M820.86,-248.67C807.63,-227.9 783.9,-194.84 755.75,-174.62 751.45,-171.54 746.56,-168.91 741.59,-166.7"/>
<polygon fill="#63b8ff" stroke="#63b8ff" points="818.24,-250.1 826.48,-256.77 824.2,-246.43 818.24,-250.1"/>
</a>
</g>
</g>
<!-- Node2&#45;&gt;Node3 -->
<g id="edge2_Node000002_Node000003" class="edge">
<title>Node2&#45;&gt;Node3</title>
<g id="a_edge2_Node000002_Node000003"><a xlink:title=" ">
<path fill="none" stroke="#63b8ff" d="M653.24,-380.22C635.29,-380.08 616.06,-379.93 601.23,-379.82"/>
<polygon fill="#63b8ff" stroke="#63b8ff" points="653.17,-383.73 663.2,-380.3 653.23,-376.73 653.17,-383.73"/>
</a>
</g>
</g>
<!-- Node4 -->
<g id="Node000004" class="node">
<title>Node4</title>
<g id="a_Node000004"><a xlink:href="../../d7/d43/xmlparse_8c.html#a5007cc50cec12841afd76cf150e9cc2d" target="_top" xlink:title=" ">
<polygon fill="white" stroke="#666666" points="478.88,-384.88 347.38,-384.88 347.38,-354.38 478.88,-354.38 478.88,-384.88"/>
<text text-anchor="start" x="355.38" y="-371.38" font-family="Helvetica,sans-Serif" font-size="10.00">XML_ExternalEntityParser</text>
<text text-anchor="middle" x="413.12" y="-360.12" font-family="Helvetica,sans-Serif" font-size="10.00">Create</text>
</a>
</g>
</g>
<!-- Node3&#45;&gt;Node4 -->
<g id="edge3_Node000003_Node000004" class="edge">
<title>Node3&#45;&gt;Node4</title>
<g id="a_edge3_Node000003_Node000004"><a xlink:title=" ">
<path fill="none" stroke="#63b8ff" d="M537.32,-377.35C520.13,-376.27 499.08,-374.95 479.26,-373.71"/>
<polygon fill="#63b8ff" stroke="#63b8ff" points="536.8,-380.89 547,-378.02 537.24,-373.9 536.8,-380.89"/>
</a>
</g>
</g>
<!-- Node6 -->
<g id="Node000006" class="node">
<title>Node6</title>
<g id="a_Node000006"><a xlink:href="../../d7/d43/xmlparse_8c.html#a845a9afd1125652df714c0fcfae923dd" target="_top" xlink:title=" ">
<polygon fill="white" stroke="#666666" points="610.75,-352.25 538.5,-352.25 538.5,-333 610.75,-333 610.75,-352.25"/>
<text text-anchor="middle" x="574.62" y="-338.75" font-family="Helvetica,sans-Serif" font-size="10.00">parserCreate</text>
</a>
</g>
</g>
<!-- Node5&#45;&gt;Node6 -->
<g id="edge6_Node000005_Node000006" class="edge">
<title>Node5&#45;&gt;Node6</title>
<g id="a_edge6_Node000005_Node000006"><a xlink:title=" ">
<path fill="none" stroke="#63b8ff" d="M668.23,-315.69C649.92,-321.01 628.12,-327.35 610.28,-332.54"/>
<polygon fill="#63b8ff" stroke="#63b8ff" points="668.92,-318.84 677.55,-312.68 666.97,-312.12 668.92,-318.84"/>
</a>
</g>
</g>
<!-- Node76 -->
<g id="Node000076" class="node">
<title>Node76</title>
<g id="a_Node000076"><a xlink:href="../../d7/d43/xmlparse_8c.html#aacda009967692067b7b37502b0bc8df7" target="_top" xlink:title=" ">
<polygon fill="white" stroke="#666666" points="622.75,-315.25 526.5,-315.25 526.5,-296 622.75,-296 622.75,-315.25"/>
<text text-anchor="middle" x="574.62" y="-301.75" font-family="Helvetica,sans-Serif" font-size="10.00">XML_ParserReset</text>
</a>
</g>
</g>
<!-- Node5&#45;&gt;Node76 -->
<g id="edge19_Node000005_Node000076" class="edge">
<title>Node5&#45;&gt;Node76</title>
<g id="a_edge19_Node000005_Node000076"><a xlink:title=" ">
<path fill="none" stroke="#63b8ff" d="M667.8,-304.92C653.8,-305.03 637.79,-305.15 623.09,-305.26"/>
<polygon fill="#63b8ff" stroke="#63b8ff" points="667.57,-308.41 677.55,-304.84 667.52,-301.41 667.57,-308.41"/>
</a>
</g>
</g>
<!-- Node6&#45;&gt;Node4 -->
<g id="edge7_Node000006_Node000004" class="edge">
<title>Node6&#45;&gt;Node4</title>
<g id="a_edge7_Node000006_Node000004"><a xlink:title=" ">
<path fill="none" stroke="#63b8ff" d="M527.63,-350.41C512.55,-352.96 495.49,-355.85 479.27,-358.6"/>
<polygon fill="#63b8ff" stroke="#63b8ff" points="527.95,-353.74 537.23,-348.62 526.78,-346.84 527.95,-353.74"/>
</a>
</g>
</g>
<!-- Node7 -->
<g id="Node000007" class="node">
<title>Node7</title>
<g id="a_Node000007"><a xlink:href="../../d7/d43/xmlparse_8c.html#a39ec83ab7ecadd8f5a760cd3becd45f4" target="_top" xlink:title=" ">
<polygon fill="white" stroke="#666666" points="473.62,-293.25 352.62,-293.25 352.62,-274 473.62,-274 473.62,-293.25"/>
<text text-anchor="middle" x="413.12" y="-279.75" font-family="Helvetica,sans-Serif" font-size="10.00">XML_ParserCreate_MM</text>
</a>
</g>
</g>
<!-- Node6&#45;&gt;Node7 -->
<g id="edge8_Node000006_Node000007" class="edge">
<title>Node6&#45;&gt;Node7</title>
<g id="a_edge8_Node000006_Node000007"><a xlink:title=" ">
<path fill="none" stroke="#63b8ff" d="M535.91,-328.51C532.72,-327.23 529.54,-325.92 526.5,-324.62 510.22,-317.69 506.98,-314.07 490.5,-307.62 477.43,-302.51 462.78,-297.7 449.84,-293.74"/>
<polygon fill="#63b8ff" stroke="#63b8ff" points="534.49,-332.11 545.07,-332.51 537.04,-325.59 534.49,-332.11"/>
</a>
</g>
</g>
<!-- Node8 -->
<g id="Node000008" class="node">
<title>Node8</title>
<g id="a_Node000008"><a xlink:href="../../d7/d43/xmlparse_8c.html#a01f18ce453fd8d56fddd20b95e8c67cb" target="_top" xlink:title=" ">
<polygon fill="white" stroke="#666666" points="292.62,-293.25 193.38,-293.25 193.38,-274 292.62,-274 292.62,-293.25"/>
<text text-anchor="middle" x="243" y="-279.75" font-family="Helvetica,sans-Serif" font-size="10.00">XML_ParserCreate</text>
</a>
</g>
</g>
<!-- Node7&#45;&gt;Node8 -->
<g id="edge9_Node000007_Node000008" class="edge">
<title>Node7&#45;&gt;Node8</title>
<g id="a_edge9_Node000007_Node000008"><a xlink:title=" ">
<path fill="none" stroke="#63b8ff" d="M341.74,-283.62C325.35,-283.62 308.26,-283.62 293.03,-283.62"/>
<polygon fill="#63b8ff" stroke="#63b8ff" points="341.38,-287.13 351.38,-283.62 341.38,-280.13 341.38,-287.13"/>
</a>
</g>
</g>
<!-- Node75 -->
<g id="Node000075" class="node">
<title>Node75</title>
<g id="a_Node000075"><a xlink:href="../../d7/d43/xmlparse_8c.html#a3762c40e9b7e108bc5c6b399888b4bce" target="_top" xlink:title=" ">
<polygon fill="white" stroke="#666666" points="299.75,-202.25 186.25,-202.25 186.25,-183 299.75,-183 299.75,-202.25"/>
<text text-anchor="middle" x="243" y="-188.75" font-family="Helvetica,sans-Serif" font-size="10.00">XML_ParserCreateNS</text>
</a>
</g>
</g>
<!-- Node7&#45;&gt;Node75 -->
<g id="edge18_Node000007_Node000075" class="edge">
<title>Node7&#45;&gt;Node75</title>
<g id="a_edge18_Node000007_Node000075"><a xlink:title=" ">
<path fill="none" stroke="#63b8ff" d="M390.51,-267.1C368.59,-250.96 333.24,-226.56 299.75,-210.62 293.51,-207.65 286.64,-204.99 279.94,-202.68"/>
<polygon fill="#63b8ff" stroke="#63b8ff" points="388.19,-270.49 398.3,-273.67 392.38,-264.88 388.19,-270.49"/>
</a>
</g>
</g>
<!-- Node9 -->
<g id="Node000009" class="node">
<title>Node9</title>
<g id="a_Node000009"><a xlink:href="../../d2/d24/class_slic3r_1_1__3_m_f___importer.html#ae535fca54833e9a10ae5f52a51fb0744" target="_top" xlink:title=" ">
<polygon fill="#fff0f0" stroke="red" points="135.25,-407.5 15,-407.5 15,-365.75 135.25,-365.75 135.25,-407.5"/>
<text text-anchor="start" x="23" y="-394" font-family="Helvetica,sans-Serif" font-size="10.00">Slic3r::_3MF_Importer</text>
<text text-anchor="start" x="23" y="-382.75" font-family="Helvetica,sans-Serif" font-size="10.00">::_extract_model_config</text>
<text text-anchor="middle" x="75.12" y="-371.5" font-family="Helvetica,sans-Serif" font-size="10.00">_from_archive</text>
</a>
</g>
</g>
<!-- Node8&#45;&gt;Node9 -->
<g id="edge10_Node000008_Node000009" class="edge">
<title>Node8&#45;&gt;Node9</title>
<g id="a_edge10_Node000008_Node000009"><a xlink:title=" ">
<path fill="none" stroke="#63b8ff" d="M223.63,-300.89C205.89,-316.89 177.75,-340.58 150.25,-356.62 144.97,-359.7 139.32,-362.61 133.58,-365.31"/>
<polygon fill="#63b8ff" stroke="#63b8ff" points="225.45,-304.05 230.45,-294.72 220.72,-298.89 225.45,-304.05"/>
</a>
</g>
</g>
<!-- Node15 -->
<g id="Node000015" class="node">
<title>Node15</title>
<g id="a_Node000015"><a xlink:href="../../d2/d24/class_slic3r_1_1__3_m_f___importer.html#a5e36386d91938dd7237e75137695987d" target="_top" xlink:title=" ">
<polygon fill="#fff0f0" stroke="red" points="131.88,-299.5 18.38,-299.5 18.38,-257.75 131.88,-257.75 131.88,-299.5"/>
<text text-anchor="start" x="26.38" y="-286" font-family="Helvetica,sans-Serif" font-size="10.00">Slic3r::_3MF_Importer</text>
<text text-anchor="start" x="26.38" y="-274.75" font-family="Helvetica,sans-Serif" font-size="10.00">::_extract_model_from</text>
<text text-anchor="middle" x="75.12" y="-263.5" font-family="Helvetica,sans-Serif" font-size="10.00">_archive</text>
</a>
</g>
</g>
<!-- Node8&#45;&gt;Node15 -->
<g id="edge11_Node000008_Node000015" class="edge">
<title>Node8&#45;&gt;Node15</title>
<g id="a_edge11_Node000008_Node000015"><a xlink:title=" ">
<path fill="none" stroke="#63b8ff" d="M182.57,-281.83C166.17,-281.34 148.43,-280.8 132.22,-280.32"/>
<polygon fill="#63b8ff" stroke="#63b8ff" points="182.03,-285.35 192.13,-282.15 182.24,-278.35 182.03,-285.35"/>
</a>
</g>
</g>
<!-- Node16 -->
<g id="Node000016" class="node">
<title>Node16</title>
<g id="a_Node000016"><a xlink:href="../../da/d02/class_slic3r_1_1___b_b_s__3_m_f___importer.html#a4fb1bb3ffb4aad3f6eaff1178c74c4bd" target="_top" xlink:title=" ">
<polygon fill="#fff0f0" stroke="red" points="150.25,-201.88 0,-201.88 0,-171.38 150.25,-171.38 150.25,-201.88"/>
<text text-anchor="start" x="8" y="-188.38" font-family="Helvetica,sans-Serif" font-size="10.00">Slic3r::_BBS_3MF_Importer</text>
<text text-anchor="middle" x="75.12" y="-177.12" font-family="Helvetica,sans-Serif" font-size="10.00">::_extract_model_from_archive</text>
</a>
</g>
</g>
<!-- Node8&#45;&gt;Node16 -->
<g id="edge12_Node000008_Node000016" class="edge">
<title>Node8&#45;&gt;Node16</title>
<g id="a_edge12_Node000008_Node000016"><a xlink:title=" ">
<path fill="none" stroke="#63b8ff" d="M214.18,-268.06C204.95,-262.41 194.84,-255.67 186.25,-248.62 168.26,-233.88 169.93,-223.04 150.25,-210.62 145.22,-207.45 139.72,-204.66 134.08,-202.21"/>
<polygon fill="#63b8ff" stroke="#63b8ff" points="212,-271.43 222.39,-273.53 215.58,-265.41 212,-271.43"/>
</a>
</g>
</g>
<!-- Node68 -->
<g id="Node000068" class="node">
<title>Node68</title>
<g id="a_Node000068"><a xlink:href="../../d4/d6a/struct_slic3r_1_1___b_b_s__3_m_f___importer_1_1_object_importer.html#abe8203cc539f8aa3a86403f02ebe01f8" target="_top" xlink:title=" ">
<polygon fill="white" stroke="#666666" points="144.25,-153.5 6,-153.5 6,-111.75 144.25,-111.75 144.25,-153.5"/>
<text text-anchor="start" x="14" y="-140" font-family="Helvetica,sans-Serif" font-size="10.00">Slic3r::_BBS_3MF_Importer</text>
<text text-anchor="start" x="14" y="-128.75" font-family="Helvetica,sans-Serif" font-size="10.00">::ObjectImporter::_extract</text>
<text text-anchor="middle" x="75.12" y="-117.5" font-family="Helvetica,sans-Serif" font-size="10.00">_object_from_archive</text>
</a>
</g>
</g>
<!-- Node8&#45;&gt;Node68 -->
<g id="edge13_Node000008_Node000068" class="edge">
<title>Node8&#45;&gt;Node68</title>
<g id="a_edge13_Node000008_Node000068"><a xlink:title=" ">
<path fill="none" stroke="#63b8ff" d="M210.07,-268.21C201.5,-262.92 192.8,-256.35 186.25,-248.62 159.45,-217.02 179.72,-191.75 150.25,-162.62 146.99,-159.4 143.34,-156.52 139.45,-153.93"/>
<polygon fill="#63b8ff" stroke="#63b8ff" points="208.16,-271.72 218.58,-273.64 211.63,-265.64 208.16,-271.72"/>
</a>
</g>
</g>
<!-- Node69 -->
<g id="Node000069" class="node">
<title>Node69</title>
<g id="a_Node000069"><a xlink:href="../../da/d02/class_slic3r_1_1___b_b_s__3_m_f___importer.html#a1e16c3724b240452718eb1d131207805" target="_top" xlink:title=" ">
<polygon fill="white" stroke="#666666" points="145,-504.88 5.25,-504.88 5.25,-474.38 145,-474.38 145,-504.88"/>
<text text-anchor="start" x="13.25" y="-491.38" font-family="Helvetica,sans-Serif" font-size="10.00">Slic3r::_BBS_3MF_Importer</text>
<text text-anchor="middle" x="75.12" y="-480.12" font-family="Helvetica,sans-Serif" font-size="10.00">::_extract_xml_from_archive</text>
</a>
</g>
</g>
<!-- Node8&#45;&gt;Node69 -->
<g id="edge14_Node000008_Node000069" class="edge">
<title>Node8&#45;&gt;Node69</title>
<g id="a_edge14_Node000008_Node000069"><a xlink:title=" ">
<path fill="none" stroke="#63b8ff" d="M237.15,-304.01C227.24,-341.26 201.21,-420.52 150.25,-464.62 146.04,-468.27 141.28,-471.39 136.25,-474.05"/>
<polygon fill="#63b8ff" stroke="#63b8ff" points="240.75,-305.05 239.81,-294.5 233.96,-303.33 240.75,-305.05"/>
</a>
</g>
</g>
<!-- Node70 -->
<g id="Node000070" class="node">
<title>Node70</title>
<g id="a_Node000070"><a xlink:href="../../df/dfb/class_slic3r_1_1_prusa_file_parser.html#ac888a9f2453be98050f1bd6b531a8df8" target="_top" xlink:title=" ">
<polygon fill="#fff0f0" stroke="red" points="137.12,-455.88 13.12,-455.88 13.12,-425.38 137.12,-425.38 137.12,-455.88"/>
<text text-anchor="start" x="21.12" y="-442.38" font-family="Helvetica,sans-Serif" font-size="10.00">Slic3r::PrusaFileParser</text>
<text text-anchor="middle" x="75.12" y="-431.12" font-family="Helvetica,sans-Serif" font-size="10.00">::check_3mf_from_prusa</text>
</a>
</g>
</g>
<!-- Node8&#45;&gt;Node70 -->
<g id="edge15_Node000008_Node000070" class="edge">
<title>Node8&#45;&gt;Node70</title>
<g id="a_edge15_Node000008_Node000070"><a xlink:title=" ">
<path fill="none" stroke="#63b8ff" d="M233.45,-303.43C219.94,-332.44 190.95,-386.32 150.25,-416.62 146.02,-419.78 141.36,-422.52 136.49,-424.92"/>
<polygon fill="#63b8ff" stroke="#63b8ff" points="236.95,-305.18 237.86,-294.63 230.57,-302.31 236.95,-305.18"/>
</a>
</g>
</g>
<!-- Node71 -->
<g id="Node000071" class="node">
<title>Node71</title>
<g id="a_Node000071"><a xlink:href="../../de/db8/namespace_slic3r.html#a8d68b65ea1e0a14e01e47aa5d46a920c" target="_top" xlink:title=" ">
<polygon fill="#fff0f0" stroke="red" points="129.25,-347.88 21,-347.88 21,-317.38 129.25,-317.38 129.25,-347.88"/>
<text text-anchor="start" x="29" y="-334.38" font-family="Helvetica,sans-Serif" font-size="10.00">Slic3r::extract_model</text>
<text text-anchor="middle" x="75.12" y="-323.12" font-family="Helvetica,sans-Serif" font-size="10.00">_from_archive</text>
</a>
</g>
</g>
<!-- Node8&#45;&gt;Node71 -->
<g id="edge16_Node000008_Node000071" class="edge">
<title>Node8&#45;&gt;Node71</title>
<g id="a_edge16_Node000008_Node000071"><a xlink:title=" ">
<path fill="none" stroke="#63b8ff" d="M197.77,-296.69C176.73,-302.91 151.4,-310.39 129.32,-316.91"/>
<polygon fill="#63b8ff" stroke="#63b8ff" points="198.43,-299.85 207.03,-293.66 196.45,-293.14 198.43,-299.85"/>
</a>
</g>
</g>
<!-- Node74 -->
<g id="Node000074" class="node">
<title>Node74</title>
<g id="a_Node000074"><a xlink:href="../../de/db8/namespace_slic3r.html#ae83c6dd54c141bc74f97c369a7f8a23e" target="_top" xlink:title=" ">
<polygon fill="#fff0f0" stroke="red" points="127.38,-239.25 22.88,-239.25 22.88,-220 127.38,-220 127.38,-239.25"/>
<text text-anchor="middle" x="75.12" y="-225.75" font-family="Helvetica,sans-Serif" font-size="10.00">Slic3r::load_amf_file</text>
</a>
</g>
</g>
<!-- Node8&#45;&gt;Node74 -->
<g id="edge17_Node000008_Node000074" class="edge">
<title>Node8&#45;&gt;Node74</title>
<g id="a_edge17_Node000008_Node000074"><a xlink:title=" ">
<path fill="none" stroke="#63b8ff" d="M207.66,-269.46C190.56,-262.69 169.49,-254.74 150.25,-248.62 140.12,-245.41 129.08,-242.34 118.7,-239.65"/>
<polygon fill="#63b8ff" stroke="#63b8ff" points="206.15,-273.03 216.73,-273.5 208.75,-266.53 206.15,-273.03"/>
</a>
</g>
</g>
<!-- Node77&#45;&gt;Node4 -->
<g id="edge31_Node000077_Node000004" class="edge">
<title>Node77&#45;&gt;Node4</title>
<g id="a_edge31_Node000077_Node000004"><a xlink:title=" ">
<path fill="none" stroke="#63b8ff" d="M664.06,-262.06C625.3,-259.13 567.77,-260.51 526.5,-286.62 500.54,-303.05 514.7,-326.7 490.5,-345.62 486.45,-348.79 481.97,-351.55 477.28,-353.94"/>
<polygon fill="#63b8ff" stroke="#63b8ff" points="663.69,-265.63 673.96,-263.03 664.31,-258.65 663.69,-265.63"/>
</a>
</g>
</g>
<!-- Node78 -->
<g id="Node000078" class="node">
<title>Node78</title>
<g id="a_Node000078"><a xlink:href="../../d7/d43/xmlparse_8c.html#a465f96b218f45430b4196820518b7657" target="_top" xlink:title=" ">
<polygon fill="white" stroke="#666666" points="608.88,-239.25 540.38,-239.25 540.38,-220 608.88,-220 608.88,-239.25"/>
<text text-anchor="middle" x="574.62" y="-225.75" font-family="Helvetica,sans-Serif" font-size="10.00">startParsing</text>
</a>
</g>
</g>
<!-- Node77&#45;&gt;Node78 -->
<g id="edge21_Node000077_Node000078" class="edge">
<title>Node77&#45;&gt;Node78</title>
<g id="a_edge21_Node000077_Node000078"><a xlink:title=" ">
<path fill="none" stroke="#63b8ff" d="M664.48,-255.47C646.53,-250.25 625.84,-244.23 608.94,-239.32"/>
<polygon fill="#63b8ff" stroke="#63b8ff" points="663.38,-259.09 673.96,-258.52 665.34,-252.37 663.38,-259.09"/>
</a>
</g>
</g>
<!-- Node79 -->
<g id="Node000079" class="node">
<title>Node79</title>
<g id="a_Node000079"><a xlink:href="../../d7/d43/xmlparse_8c.html#a62a6555a21bb12d37d3ef7baf9972cac" target="_top" xlink:title=" ">
<polygon fill="white" stroke="#666666" points="276.5,-239.25 209.5,-239.25 209.5,-220 276.5,-220 276.5,-239.25"/>
<text text-anchor="middle" x="243" y="-225.75" font-family="Helvetica,sans-Serif" font-size="10.00">XML_Parse</text>
</a>
</g>
</g>
<!-- Node78&#45;&gt;Node79 -->
<g id="edge22_Node000078_Node000079" class="edge">
<title>Node78&#45;&gt;Node79</title>
<g id="a_edge22_Node000078_Node000079"><a xlink:title=" ">
<path fill="none" stroke="#63b8ff" d="M529.26,-229.62C462.2,-229.62 336.52,-229.62 276.94,-229.62"/>
<polygon fill="#63b8ff" stroke="#63b8ff" points="528.9,-233.13 538.9,-229.62 528.9,-226.13 528.9,-233.13"/>
</a>
</g>
</g>
<!-- Node80 -->
<g id="Node000080" class="node">
<title>Node80</title>
<g id="a_Node000080"><a xlink:href="../../d7/d43/xmlparse_8c.html#af02b28fc9c4ab4ed26145ab5d83cea22" target="_top" xlink:title=" ">
<polygon fill="white" stroke="#666666" points="459.75,-336.25 366.5,-336.25 366.5,-317 459.75,-317 459.75,-336.25"/>
<text text-anchor="middle" x="413.12" y="-322.75" font-family="Helvetica,sans-Serif" font-size="10.00">XML_ParseBuffer</text>
</a>
</g>
</g>
<!-- Node78&#45;&gt;Node80 -->
<g id="edge26_Node000078_Node000080" class="edge">
<title>Node78&#45;&gt;Node80</title>
<g id="a_edge26_Node000078_Node000080"><a xlink:title=" ">
<path fill="none" stroke="#63b8ff" d="M539.41,-244.61C534.85,-247.3 530.41,-250.31 526.5,-253.62 505.9,-271.12 512.48,-286.91 490.5,-302.62 481.46,-309.09 470.61,-313.86 459.96,-317.36"/>
<polygon fill="#63b8ff" stroke="#63b8ff" points="540.64,-247.39 547.8,-239.58 537.33,-241.22 540.64,-247.39"/>
</a>
</g>
</g>
<!-- Node79&#45;&gt;Node16 -->
<g id="edge23_Node000079_Node000016" class="edge">
<title>Node79&#45;&gt;Node16</title>
<g id="a_edge23_Node000079_Node000016"><a xlink:title=" ">
<path fill="none" stroke="#63b8ff" d="M198.82,-218.43C179.87,-213.52 157.28,-207.66 136.69,-202.33"/>
<polygon fill="#63b8ff" stroke="#63b8ff" points="197.67,-222.01 208.23,-221.13 199.43,-215.23 197.67,-222.01"/>
</a>
</g>
</g>
<!-- Node79&#45;&gt;Node68 -->
<g id="edge24_Node000079_Node000068" class="edge">
<title>Node79&#45;&gt;Node68</title>
<g id="a_edge24_Node000079_Node000068"><a xlink:title=" ">
<path fill="none" stroke="#63b8ff" d="M199.07,-218.87C194.54,-216.84 190.16,-214.45 186.25,-211.62 164.33,-195.82 171.58,-179.21 150.25,-162.62 146.09,-159.39 141.52,-156.45 136.77,-153.79"/>
<polygon fill="#63b8ff" stroke="#63b8ff" points="197.53,-222.41 208.12,-222.74 200.05,-215.88 197.53,-222.41"/>
</a>
</g>
</g>
<!-- Node79&#45;&gt;Node74 -->
<g id="edge25_Node000079_Node000074" class="edge">
<title>Node79&#45;&gt;Node74</title>
<g id="a_edge25_Node000079_Node000074"><a xlink:title=" ">
<path fill="none" stroke="#63b8ff" d="M198.37,-229.62C176.72,-229.62 150.42,-229.62 127.77,-229.62"/>
<polygon fill="#63b8ff" stroke="#63b8ff" points="198.23,-233.13 208.23,-229.62 198.23,-226.13 198.23,-233.13"/>
</a>
</g>
</g>
<!-- Node80&#45;&gt;Node9 -->
<g id="edge27_Node000080_Node000009" class="edge">
<title>Node80&#45;&gt;Node9</title>
<g id="a_edge27_Node000080_Node000009"><a xlink:title=" ">
<path fill="none" stroke="#63b8ff" d="M355.52,-336.73C294.53,-347.62 197.86,-364.89 135.73,-375.98"/>
<polygon fill="#63b8ff" stroke="#63b8ff" points="355.88,-340.05 365.11,-334.84 354.65,-333.15 355.88,-340.05"/>
</a>
</g>
</g>
<!-- Node80&#45;&gt;Node69 -->
<g id="edge28_Node000080_Node000069" class="edge">
<title>Node80&#45;&gt;Node69</title>
<g id="a_edge28_Node000080_Node000069"><a xlink:title=" ">
<path fill="none" stroke="#63b8ff" d="M356.25,-335.01C348.94,-337.64 341.87,-341.1 335.75,-345.62 310.75,-364.12 323.47,-385.52 299.75,-405.62 245.26,-451.81 217.34,-440.09 150.25,-464.62 141.7,-467.75 132.55,-470.95 123.7,-473.98"/>
<polygon fill="#63b8ff" stroke="#63b8ff" points="356.8,-338.19 365.32,-331.89 354.73,-331.5 356.8,-338.19"/>
</a>
</g>
</g>
<!-- Node80&#45;&gt;Node70 -->
<g id="edge29_Node000080_Node000070" class="edge">
<title>Node80&#45;&gt;Node70</title>
<g id="a_edge29_Node000080_Node000070"><a xlink:title=" ">
<path fill="none" stroke="#63b8ff" d="M356.14,-338.04C349.14,-340.19 342.19,-342.71 335.75,-345.62 318.01,-353.66 317.25,-362.06 299.75,-370.62 247.32,-396.29 183.4,-415.18 137.35,-426.82"/>
<polygon fill="#63b8ff" stroke="#63b8ff" points="356.71,-341.23 365.38,-335.13 354.8,-334.5 356.71,-341.23"/>
</a>
</g>
</g>
<!-- Node80&#45;&gt;Node79 -->
<g id="edge30_Node000080_Node000079" class="edge">
<title>Node80&#45;&gt;Node79</title>
<g id="a_edge30_Node000080_Node000079"><a xlink:title=" ">
<path fill="none" stroke="#63b8ff" d="M356.55,-312.87C349.29,-310.02 342.16,-306.63 335.75,-302.62 316.02,-290.3 317.74,-279.37 299.75,-264.62 288.17,-255.14 273.84,-246.19 262.61,-239.72"/>
<polygon fill="#63b8ff" stroke="#63b8ff" points="355.24,-316.47 365.84,-316.55 357.6,-309.88 355.24,-316.47"/>
</a>
</g>
</g>
<!-- Node82 -->
<g id="Node000082" class="node">
<title>Node82</title>
<g id="a_Node000082"><a xlink:href="../../d7/d43/xmlparse_8c.html#a5357edda692e86b327a20c3c2403859e" target="_top" xlink:title=" ">
<polygon fill="white" stroke="#666666" points="605.12,-113.25 544.12,-113.25 544.12,-94 605.12,-94 605.12,-113.25"/>
<text text-anchor="middle" x="574.62" y="-99.75" font-family="Helvetica,sans-Serif" font-size="10.00">doContent</text>
</a>
</g>
</g>
<!-- Node81&#45;&gt;Node82 -->
<g id="edge33_Node000081_Node000082" class="edge">
<title>Node81&#45;&gt;Node82</title>
<g id="a_edge33_Node000081_Node000082"><a xlink:title=" ">
<path fill="none" stroke="#63b8ff" d="M669.29,-219.02C665.57,-217.16 661.98,-215.03 658.75,-212.62 620.98,-184.46 591.91,-134.66 580.68,-113.54"/>
<polygon fill="#63b8ff" stroke="#63b8ff" points="667.71,-222.58 678.27,-223.35 670.49,-216.16 667.71,-222.58"/>
</a>
</g>
</g>
<!-- Node83 -->
<g id="Node000083" class="node">
<title>Node83</title>
<g id="a_Node000083"><a xlink:href="../../d7/d43/xmlparse_8c.html#af989f142fd5f08b876e46278305df2fd" target="_top" xlink:title=" ">
<polygon fill="white" stroke="#666666" points="459.38,-169.25 366.88,-169.25 366.88,-150 459.38,-150 459.38,-169.25"/>
<text text-anchor="middle" x="413.12" y="-155.75" font-family="Helvetica,sans-Serif" font-size="10.00">contentProcessor</text>
</a>
</g>
</g>
<!-- Node82&#45;&gt;Node83 -->
<g id="edge34_Node000082_Node000083" class="edge">
<title>Node82&#45;&gt;Node83</title>
<g id="a_edge34_Node000082_Node000083"><a xlink:title=" ">
<path fill="none" stroke="#63b8ff" d="M544.91,-118.45C529.16,-126.15 509.09,-135.25 490.5,-141.62 480.71,-144.98 470,-147.93 459.78,-150.42"/>
<polygon fill="#63b8ff" stroke="#63b8ff" points="546.19,-121.23 553.58,-113.64 543.07,-114.96 546.19,-121.23"/>
</a>
</g>
</g>
<!-- Node84 -->
<g id="Node000084" class="node">
<title>Node84</title>
<g id="a_Node000084"><a xlink:href="../../d7/d43/xmlparse_8c.html#a7995a8bf415e51a244fbf1740621f6d2" target="_top" xlink:title=" ">
<polygon fill="white" stroke="#666666" points="490.5,-132.25 335.75,-132.25 335.75,-113 490.5,-113 490.5,-132.25"/>
<text text-anchor="middle" x="413.12" y="-118.75" font-family="Helvetica,sans-Serif" font-size="10.00">externalEntityContentProcessor</text>
</a>
</g>
</g>
<!-- Node82&#45;&gt;Node84 -->
<g id="edge35_Node000082_Node000084" class="edge">
<title>Node82&#45;&gt;Node84</title>
<g id="a_edge35_Node000082_Node000084"><a xlink:title=" ">
<path fill="none" stroke="#63b8ff" d="M533.14,-108.45C520.18,-109.99 505.38,-111.75 490.73,-113.5"/>
<polygon fill="#63b8ff" stroke="#63b8ff" points="533.48,-111.81 543,-107.15 532.65,-104.86 533.48,-111.81"/>
</a>
</g>
</g>
<!-- Node85 -->
<g id="Node000085" class="node">
<title>Node85</title>
<g id="a_Node000085"><a xlink:href="../../d7/d43/xmlparse_8c.html#aa680cb0342f81522e6a26821e5f53abe" target="_top" xlink:title=" ">
<polygon fill="white" stroke="#666666" points="133.75,-93.25 16.5,-93.25 16.5,-74 133.75,-74 133.75,-93.25"/>
<text text-anchor="middle" x="75.12" y="-79.75" font-family="Helvetica,sans-Serif" font-size="10.00">internalEntityProcessor</text>
</a>
</g>
</g>
<!-- Node82&#45;&gt;Node85 -->
<g id="edge36_Node000082_Node000085" class="edge">
<title>Node82&#45;&gt;Node85</title>
<g id="a_edge36_Node000082_Node000085"><a xlink:title=" ">
<path fill="none" stroke="#63b8ff" d="M533.14,-102C445.14,-98.46 236.18,-90.06 134.17,-85.96"/>
<polygon fill="#63b8ff" stroke="#63b8ff" points="532.86,-105.53 542.99,-102.43 533.14,-98.53 532.86,-105.53"/>
</a>
</g>
</g>
<!-- Node86 -->
<g id="Node000086" class="node">
<title>Node86</title>
<g id="a_Node000086"><a xlink:href="../../d7/d43/xmlparse_8c.html#af799426b38b26e8272bfc1daf90ecc01" target="_top" xlink:title=" ">
<polygon fill="white" stroke="#666666" points="467.25,-56.25 359,-56.25 359,-37 467.25,-37 467.25,-56.25"/>
<text text-anchor="middle" x="413.12" y="-42.75" font-family="Helvetica,sans-Serif" font-size="10.00">processInternalEntity</text>
</a>
</g>
</g>
<!-- Node82&#45;&gt;Node86 -->
<g id="edge37_Node000082_Node000086" class="edge">
<title>Node82&#45;&gt;Node86</title>
<g id="a_edge37_Node000082_Node000086"><a xlink:title=" ">
<path fill="none" stroke="#63b8ff" d="M554.2,-88.28C537.45,-79.5 512.55,-69.46 490.5,-61.62 483.17,-59.02 475.38,-56.41 467.7,-54.01"/>
<polygon fill="#63b8ff" stroke="#63b8ff" points="552.05,-91.66 562.48,-93.55 555.51,-85.57 552.05,-91.66"/>
</a>
</g>
</g>
<!-- Node86&#45;&gt;Node82 -->
<g id="edge38_Node000086_Node000082" class="edge">
<title>Node86&#45;&gt;Node82</title>
<g id="a_edge38_Node000086_Node000082"><a xlink:title=" ">
<path fill="none" stroke="#63b8ff" d="M437,-60.98C452.25,-66.92 472.69,-73.3 490.5,-79.62 508.35,-85.96 528.07,-93.76 543.82,-99.2"/>
<polygon fill="#63b8ff" stroke="#63b8ff" points="438.5,-57.4 427.92,-56.74 435.78,-63.85 438.5,-57.4"/>
</a>
</g>
</g>
<!-- Node87 -->
<g id="Node000087" class="node">
<title>Node87</title>
<g id="a_Node000087"><a xlink:href="../../d7/d43/xmlparse_8c.html#a328f77fdce9c56e11220dfcd5f3ce934" target="_top" xlink:title=" ">
<polygon fill="white" stroke="#666666" points="270.12,-56.25 215.88,-56.25 215.88,-37 270.12,-37 270.12,-56.25"/>
<text text-anchor="middle" x="243" y="-42.75" font-family="Helvetica,sans-Serif" font-size="10.00">doProlog</text>
</a>
</g>
</g>
<!-- Node86&#45;&gt;Node87 -->
<g id="edge39_Node000086_Node000087" class="edge">
<title>Node86&#45;&gt;Node87</title>
<g id="a_edge39_Node000086_Node000087"><a xlink:title=" ">
<path fill="none" stroke="#63b8ff" d="M348.01,-40.05C321.11,-39.58 291.33,-40.07 270.55,-41.54"/>
<polygon fill="#63b8ff" stroke="#63b8ff" points="347.85,-43.57 357.93,-40.3 348.01,-36.57 347.85,-43.57"/>
</a>
</g>
</g>
<!-- Node87&#45;&gt;Node85 -->
<g id="edge41_Node000087_Node000085" class="edge">
<title>Node87&#45;&gt;Node85</title>
<g id="a_edge41_Node000087_Node000085"><a xlink:title=" ">
<path fill="none" stroke="#63b8ff" d="M205.31,-54.81C180.55,-60.33 147.73,-67.65 121.36,-73.54"/>
<polygon fill="#63b8ff" stroke="#63b8ff" points="205.72,-58.08 214.72,-52.49 204.19,-51.25 205.72,-58.08"/>
</a>
</g>
</g>
<!-- Node87&#45;&gt;Node86 -->
<g id="edge42_Node000087_Node000086" class="edge">
<title>Node87&#45;&gt;Node86</title>
<g id="a_edge42_Node000087_Node000086"><a xlink:title=" ">
<path fill="none" stroke="#63b8ff" d="M281.48,-52.35C304.27,-53.47 333.75,-53.67 358.93,-52.95"/>
<polygon fill="#63b8ff" stroke="#63b8ff" points="281.74,-48.8 271.55,-51.71 281.32,-55.79 281.74,-48.8"/>
</a>
</g>
</g>
<!-- Node88 -->
<g id="Node000088" class="node">
<title>Node88</title>
<g id="a_Node000088"><a xlink:href="../../d7/d43/xmlparse_8c.html#aece3ed830ef2d03dfec6a5c20c0cda35" target="_top" xlink:title=" ">
<polygon fill="white" stroke="#666666" points="137.5,-19.25 12.75,-19.25 12.75,0 137.5,0 137.5,-19.25"/>
<text text-anchor="middle" x="75.12" y="-5.75" font-family="Helvetica,sans-Serif" font-size="10.00">externalParEntProcessor</text>
</a>
</g>
</g>
<!-- Node87&#45;&gt;Node88 -->
<g id="edge40_Node000087_Node000088" class="edge">
<title>Node87&#45;&gt;Node88</title>
<g id="a_edge40_Node000087_Node000088"><a xlink:title=" ">
<path fill="none" stroke="#63b8ff" d="M205.31,-38.44C180.55,-32.92 147.73,-25.6 121.36,-19.71"/>
<polygon fill="#63b8ff" stroke="#63b8ff" points="204.19,-42 214.72,-40.76 205.72,-35.17 204.19,-42"/>
</a>
</g>
</g>
<!-- Node89 -->
<g id="Node000089" class="node">
<title>Node89</title>
<g id="a_Node000089"><a xlink:href="../../d7/d43/xmlparse_8c.html#a4d73517c3d051ee40d70576565d32620" target="_top" xlink:title=" ">
<polygon fill="white" stroke="#666666" points="118.38,-56.25 31.88,-56.25 31.88,-37 118.38,-37 118.38,-56.25"/>
<text text-anchor="middle" x="75.12" y="-42.75" font-family="Helvetica,sans-Serif" font-size="10.00">prologProcessor</text>
</a>
</g>
</g>
<!-- Node87&#45;&gt;Node89 -->
<g id="edge43_Node000087_Node000089" class="edge">
<title>Node87&#45;&gt;Node89</title>
<g id="a_edge43_Node000087_Node000089"><a xlink:title=" ">
<path fill="none" stroke="#63b8ff" d="M204.99,-46.62C179.45,-46.62 145.43,-46.62 118.76,-46.62"/>
<polygon fill="#63b8ff" stroke="#63b8ff" points="204.72,-50.13 214.72,-46.62 204.72,-43.13 204.72,-50.13"/>
</a>
</g>
</g>
</g>
</svg>
