<?xml version="1.0" encoding="UTF-8" standalone="no"?>
<!DOCTYPE svg PUBLIC "-//W3C//DTD SVG 1.1//EN"
 "http://www.w3.org/Graphics/SVG/1.1/DTD/svg11.dtd">
<!-- Generated by graphviz version 8.1.0 (20230707.0739)
 -->
<!-- Title: Slic3r::GUI::Bed3D::detect_type Pages: 1 -->
<!--zoomable 254 -->

<svg id="main" version="1.1" xmlns="http://www.w3.org/2000/svg" xmlns:xlink="http://www.w3.org/1999/xlink" xml:space="preserve" onload="init(evt)">
<style type="text/css"><![CDATA[
.node, .edge {opacity: 0.7;}
.node.selected, .edge.selected {opacity: 1;}
.edge:hover path { stroke: red; }
.edge:hover polygon { stroke: red; fill: red; }
]]></style>

<defs>
  <circle id="rim" cx="0" cy="0" r="7"/>
  <circle id="rim2" cx="0" cy="0" r="3.5"/>
  <g id="zoomPlus">
    <use xlink:href="#rim" fill="#404040"><set attributeName="fill" to="#808080" begin="zoomplus.mouseover" end="zoomplus.mouseout"/></use>
    <path d="M-4,0h8M0,-4v8" fill="none" stroke="white" stroke-width="1.5" pointer-events="none"/>
  </g>
  <g id="zoomMin">
    <use xlink:href="#rim" fill="#404040"><set attributeName="fill" to="#808080" begin="zoomminus.mouseover" end="zoomminus.mouseout"/></use>
    <path d="M-4,0h8" fill="none" stroke="white" stroke-width="1.5" pointer-events="none"/>
  </g>
  <g id="arrowUp" transform="translate(30 24)">
    <use xlink:href="#rim"/>
    <path pointer-events="none" fill="none" stroke="white" stroke-width="1.5" d="M0,-3.0v7 M-2.5,-0.5L0,-3.0L2.5,-0.5"/>
  </g>
  <g id="arrowRight" transform="rotate(90) translate(36 -43)">
    <use xlink:href="#rim"/>
    <path pointer-events="none" fill="none" stroke="white" stroke-width="1.5" d="M0,-3.0v7 M-2.5,-0.5L0,-3.0L2.5,-0.5"/>
  </g>
  <g id="arrowDown" transform="rotate(180) translate(-30 -48)">
    <use xlink:href="#rim"/>
    <path pointer-events="none" fill="none" stroke="white" stroke-width="1.5" d="M0,-3.0v7 M-2.5,-0.5L0,-3.0L2.5,-0.5"/>
  </g>
  <g id="arrowLeft" transform="rotate(270) translate(-36 17)">
    <use xlink:href="#rim"/>
    <path pointer-events="none" fill="none" stroke="white" stroke-width="1.5" d="M0,-3.0v7 M-2.5,-0.5L0,-3.0L2.5,-0.5"/>
  </g>
  <g id="resetDef">
    <use xlink:href="#rim2" fill="#404040"><set attributeName="fill" to="#808080" begin="reset.mouseover" end="reset.mouseout"/></use>
  </g>
</defs>
<script type="application/ecmascript">
var viewWidth = 925;
var viewHeight = 254;
var sectionId = 'dynsection-7';
</script>
<script type="application/ecmascript" xlink:href="../../svg.min.js"/>
<svg id="graph" class="graph">
<g id="viewport">
<title>Slic3r::GUI::Bed3D::detect_type</title>
<!-- Node1 -->
<g id="Node000001" class="node">
<title>Node1</title>
<g id="a_Node000001"><a xlink:title=" ">
<polygon fill="#999999" stroke="#666666" points="100.75,-164.97 0,-164.97 0,-134.47 100.75,-134.47 100.75,-164.97"/>
<text text-anchor="start" x="8" y="-151.47" font-family="Helvetica,sans-Serif" font-size="10.00">Slic3r::GUI::Bed3D</text>
<text text-anchor="middle" x="50.38" y="-140.22" font-family="Helvetica,sans-Serif" font-size="10.00">::detect_type</text>
</a>
</g>
</g>
<!-- Node2 -->
<g id="Node000002" class="node">
<title>Node2</title>
<g id="a_Node000002"><a xlink:href="../../d3/d98/class_slic3r_1_1_config_option_resolver.html#af3beeeec67d0ff2ac81b0af0e0e6f92d" target="_top" xlink:title=" ">
<polygon fill="white" stroke="#666666" points="301.25,-237.34 136.75,-237.34 136.75,-218.09 301.25,-218.09 301.25,-237.34"/>
<text text-anchor="middle" x="219" y="-223.84" font-family="Helvetica,sans-Serif" font-size="10.00">Slic3r::ConfigOptionResolver::has</text>
</a>
</g>
</g>
<!-- Node1&#45;&gt;Node2 -->
<g id="edge1_Node000001_Node000002" class="edge">
<title>Node1&#45;&gt;Node2</title>
<g id="a_edge1_Node000001_Node000002"><a xlink:title=" ">
<path fill="none" stroke="#63b8ff" d="M73.75,-165.38C90.52,-176.6 114.33,-191.48 136.75,-201.72 147.16,-206.47 158.7,-210.73 169.72,-214.35"/>
<polygon fill="#63b8ff" stroke="#63b8ff" points="168.5,-217.95 179.09,-217.62 170.6,-211.27 168.5,-217.95"/>
</a>
</g>
</g>
<!-- Node4 -->
<g id="Node000004" class="node">
<title>Node4</title>
<g id="a_Node000004"><a xlink:href="../../d5/df0/class_slic3r_1_1_dynamic_config.html#a28023c0fba9ebd5660ff28f9a81d9742" target="_top" xlink:title=" ">
<polygon fill="white" stroke="#666666" points="649.75,-159.34 516,-159.34 516,-140.09 649.75,-140.09 649.75,-159.34"/>
<text text-anchor="middle" x="582.88" y="-145.84" font-family="Helvetica,sans-Serif" font-size="10.00">Slic3r::DynamicConfig::opt</text>
</a>
</g>
</g>
<!-- Node1&#45;&gt;Node4 -->
<g id="edge3_Node000001_Node000004" class="edge">
<title>Node1&#45;&gt;Node4</title>
<g id="a_edge3_Node000001_Node000004"><a xlink:title=" ">
<path fill="none" stroke="#63b8ff" d="M100.81,-149.72C193.53,-149.72 394.17,-149.72 504.79,-149.72"/>
<polygon fill="#63b8ff" stroke="#63b8ff" points="504.54,-153.22 514.54,-149.72 504.54,-146.22 504.54,-153.22"/>
</a>
</g>
</g>
<!-- Node5 -->
<g id="Node000005" class="node">
<title>Node5</title>
<g id="a_Node000005"><a xlink:href="../../d9/d06/class_slic3r_1_1_config_base.html#a423121494459dae7858bc9d665f8cb4f" target="_top" xlink:title=" ">
<polygon fill="white" stroke="#666666" points="783.5,-183.97 685.75,-183.97 685.75,-153.47 783.5,-153.47 783.5,-183.97"/>
<text text-anchor="start" x="693.75" y="-170.47" font-family="Helvetica,sans-Serif" font-size="10.00">Slic3r::ConfigBase</text>
<text text-anchor="middle" x="734.62" y="-159.22" font-family="Helvetica,sans-Serif" font-size="10.00">::option</text>
</a>
</g>
</g>
<!-- Node1&#45;&gt;Node5 -->
<g id="edge6_Node000001_Node000005" class="edge">
<title>Node1&#45;&gt;Node5</title>
<g id="a_edge6_Node000001_Node000005"><a xlink:title=" ">
<path fill="none" stroke="#63b8ff" d="M100.88,-159.12C112.6,-160.99 125.08,-162.69 136.75,-163.72 333.16,-181.02 567.32,-175.36 674.62,-171.32"/>
<polygon fill="#63b8ff" stroke="#63b8ff" points="674.68,-174.78 684.53,-170.9 674.4,-167.79 674.68,-174.78"/>
</a>
</g>
</g>
<!-- Node7 -->
<g id="Node000007" class="node">
<title>Node7</title>
<g id="a_Node000007"><a xlink:href="../../de/db8/namespace_slic3r.html#a5e762faa315619f2c13a5c3c2a18db56" target="_top" xlink:title=" ">
<polygon fill="white" stroke="#666666" points="635.5,-57.34 530.25,-57.34 530.25,-38.09 635.5,-38.09 635.5,-57.34"/>
<text text-anchor="middle" x="582.88" y="-43.84" font-family="Helvetica,sans-Serif" font-size="10.00">Slic3r::printer_model</text>
</a>
</g>
</g>
<!-- Node1&#45;&gt;Node7 -->
<g id="edge7_Node000001_Node000007" class="edge">
<title>Node1&#45;&gt;Node7</title>
<g id="a_edge7_Node000001_Node000007"><a xlink:title=" ">
<path fill="none" stroke="#63b8ff" d="M62.16,-133.99C76.74,-113.95 104.65,-79.62 136.75,-60.72 216.17,-13.94 245.85,-19.59 337.25,-7.72 400.17,0.46 417.66,4.08 480,-7.72 505.6,-12.56 533,-23.69 552.93,-32.98"/>
<polygon fill="#63b8ff" stroke="#63b8ff" points="551.09,-36.46 561.62,-37.63 554.11,-30.15 551.09,-36.46"/>
</a>
</g>
</g>
<!-- Node8 -->
<g id="Node000008" class="node">
<title>Node8</title>
<g id="a_Node000008"><a xlink:href="../../de/d55/namespace_slic3r_1_1_preset_utils.html#a04acee60b7902f46d8b6ca2c358b3d0d" target="_top" xlink:title=" ">
<polygon fill="white" stroke="#666666" points="288.5,-99.97 149.5,-99.97 149.5,-69.47 288.5,-69.47 288.5,-99.97"/>
<text text-anchor="start" x="157.5" y="-86.47" font-family="Helvetica,sans-Serif" font-size="10.00">Slic3r::PresetUtils</text>
<text text-anchor="middle" x="219" y="-75.22" font-family="Helvetica,sans-Serif" font-size="10.00">::system_printer_bed_model</text>
</a>
</g>
</g>
<!-- Node1&#45;&gt;Node8 -->
<g id="edge8_Node000001_Node000008" class="edge">
<title>Node1&#45;&gt;Node8</title>
<g id="a_edge8_Node000001_Node000008"><a xlink:title=" ">
<path fill="none" stroke="#63b8ff" d="M91.71,-133.98C114.55,-125.07 143.32,-113.85 167.63,-104.37"/>
<polygon fill="#63b8ff" stroke="#63b8ff" points="168.7,-107.31 176.75,-100.42 166.16,-100.79 168.7,-107.31"/>
</a>
</g>
</g>
<!-- Node3 -->
<g id="Node000003" class="node">
<title>Node3</title>
<g id="a_Node000003"><a xlink:href="../../d3/d98/class_slic3r_1_1_config_option_resolver.html#a3c37c9a5c55c26149c192468d3922ec1" target="_top" xlink:title=" ">
<polygon fill="white" stroke="#666666" points="480,-245.97 337.25,-245.97 337.25,-215.47 480,-215.47 480,-245.97"/>
<text text-anchor="start" x="345.25" y="-232.47" font-family="Helvetica,sans-Serif" font-size="10.00">Slic3r::ConfigOptionResolver</text>
<text text-anchor="middle" x="408.62" y="-221.22" font-family="Helvetica,sans-Serif" font-size="10.00">::optptr</text>
</a>
</g>
</g>
<!-- Node2&#45;&gt;Node3 -->
<g id="edge2_Node000002_Node000003" class="edge">
<title>Node2&#45;&gt;Node3</title>
<g id="a_edge2_Node000002_Node000003"><a xlink:title=" ">
<path fill="none" stroke="#63b8ff" d="M301.75,-229.02C309.83,-229.15 318.03,-229.28 326.11,-229.41"/>
<polygon fill="#63b8ff" stroke="#63b8ff" points="325.97,-232.93 336.02,-229.59 326.08,-225.93 325.97,-232.93"/>
</a>
</g>
</g>
<!-- Node4&#45;&gt;Node5 -->
<g id="edge4_Node000004_Node000005" class="edge">
<title>Node4&#45;&gt;Node5</title>
<g id="a_edge4_Node000004_Node000005"><a xlink:title=" ">
<path fill="none" stroke="#63b8ff" d="M649.99,-158.11C658.18,-159.14 666.51,-160.2 674.58,-161.23"/>
<polygon fill="#63b8ff" stroke="#63b8ff" points="674.03,-164.81 684.39,-162.6 674.91,-157.87 674.03,-164.81"/>
</a>
</g>
</g>
<!-- Node6 -->
<g id="Node000006" class="node">
<title>Node6</title>
<g id="a_Node000006"><a xlink:href="../../d9/d06/class_slic3r_1_1_config_base.html#a699680b37bd3c116736fd1a2ec831728" target="_top" xlink:title=" ">
<polygon fill="white" stroke="#666666" points="917.25,-183.97 819.5,-183.97 819.5,-153.47 917.25,-153.47 917.25,-183.97"/>
<text text-anchor="start" x="827.5" y="-170.47" font-family="Helvetica,sans-Serif" font-size="10.00">Slic3r::ConfigBase</text>
<text text-anchor="middle" x="868.38" y="-159.22" font-family="Helvetica,sans-Serif" font-size="10.00">::optptr</text>
</a>
</g>
</g>
<!-- Node5&#45;&gt;Node6 -->
<g id="edge5_Node000005_Node000006" class="edge">
<title>Node5&#45;&gt;Node6</title>
<g id="a_edge5_Node000005_Node000006"><a xlink:title=" ">
<path fill="none" stroke="#63b8ff" d="M783.94,-168.72C791.81,-168.72 800.05,-168.72 808.15,-168.72"/>
<polygon fill="#63b8ff" stroke="#63b8ff" points="808.07,-172.22 818.07,-168.72 808.07,-165.22 808.07,-172.22"/>
</a>
</g>
</g>
<!-- Node9 -->
<g id="Node000009" class="node">
<title>Node9</title>
<g id="a_Node000009"><a xlink:href="../../de/db8/namespace_slic3r.html#a52157a1dec9ce067a7e19b02ef13e1f3" target="_top" xlink:title=" ">
<polygon fill="white" stroke="#666666" points="449.25,-73.34 368,-73.34 368,-54.09 449.25,-54.09 449.25,-73.34"/>
<text text-anchor="middle" x="408.62" y="-59.84" font-family="Helvetica,sans-Serif" font-size="10.00">Slic3r::data_dir</text>
</a>
</g>
</g>
<!-- Node8&#45;&gt;Node9 -->
<g id="edge9_Node000008_Node000009" class="edge">
<title>Node8&#45;&gt;Node9</title>
<g id="a_edge9_Node000008_Node000009"><a xlink:title=" ">
<path fill="none" stroke="#63b8ff" d="M288.8,-77.02C311.32,-74.5 335.91,-71.74 356.85,-69.4"/>
<polygon fill="#63b8ff" stroke="#63b8ff" points="357.2,-72.77 366.75,-68.18 356.42,-65.81 357.2,-72.77"/>
</a>
</g>
</g>
<!-- Node10 -->
<g id="Node000010" class="node">
<title>Node10</title>
<g id="a_Node000010"><a xlink:href="../../de/db8/namespace_slic3r.html#a98b4dcd95032a990c6541512e9719696" target="_top" xlink:title=" ">
<polygon fill="white" stroke="#666666" points="461.25,-36.34 356,-36.34 356,-17.09 461.25,-17.09 461.25,-36.34"/>
<text text-anchor="middle" x="408.62" y="-22.84" font-family="Helvetica,sans-Serif" font-size="10.00">Slic3r::resources_dir</text>
</a>
</g>
</g>
<!-- Node8&#45;&gt;Node10 -->
<g id="edge10_Node000008_Node000010" class="edge">
<title>Node8&#45;&gt;Node10</title>
<g id="a_edge10_Node000008_Node000010"><a xlink:title=" ">
<path fill="none" stroke="#63b8ff" d="M263.45,-68.99C285.43,-61.26 312.62,-52.06 337.25,-44.72 343.13,-42.96 349.33,-41.23 355.5,-39.56"/>
<polygon fill="#63b8ff" stroke="#63b8ff" points="356.02,-42.78 364.8,-36.84 354.24,-36.01 356.02,-42.78"/>
</a>
</g>
</g>
<!-- Node11 -->
<g id="Node000011" class="node">
<title>Node11</title>
<g id="a_Node000011"><a xlink:href="../../de/d55/namespace_slic3r_1_1_preset_utils.html#a3168416d03dd480be2938273d348435b" target="_top" xlink:title=" ">
<polygon fill="white" stroke="#666666" points="467.62,-121.97 349.62,-121.97 349.62,-91.47 467.62,-91.47 467.62,-121.97"/>
<text text-anchor="start" x="357.62" y="-108.47" font-family="Helvetica,sans-Serif" font-size="10.00">Slic3r::PresetUtils</text>
<text text-anchor="middle" x="408.62" y="-97.22" font-family="Helvetica,sans-Serif" font-size="10.00">::system_printer_model</text>
</a>
</g>
</g>
<!-- Node8&#45;&gt;Node11 -->
<g id="edge11_Node000008_Node000011" class="edge">
<title>Node8&#45;&gt;Node11</title>
<g id="a_edge11_Node000008_Node000011"><a xlink:title=" ">
<path fill="none" stroke="#63b8ff" d="M288.8,-92.78C305.1,-94.7 322.49,-96.73 338.79,-98.65"/>
<polygon fill="#63b8ff" stroke="#63b8ff" points="337.98,-102.19 348.32,-99.88 338.8,-95.24 337.98,-102.19"/>
</a>
</g>
</g>
<!-- Node11&#45;&gt;Node4 -->
<g id="edge12_Node000011_Node000004" class="edge">
<title>Node11&#45;&gt;Node4</title>
<g id="a_edge12_Node000011_Node000004"><a xlink:title=" ">
<path fill="none" stroke="#63b8ff" d="M467.94,-121.27C488.36,-126.37 511.12,-132.05 530.9,-136.99"/>
<polygon fill="#63b8ff" stroke="#63b8ff" points="529.99,-140.62 540.54,-139.65 531.69,-133.83 529.99,-140.62"/>
</a>
</g>
</g>
<!-- Node11&#45;&gt;Node7 -->
<g id="edge13_Node000011_Node000007" class="edge">
<title>Node11&#45;&gt;Node7</title>
<g id="a_edge13_Node000011_Node000007"><a xlink:title=" ">
<path fill="none" stroke="#63b8ff" d="M455.81,-90.98C463.88,-88.23 472.18,-85.39 480,-82.72 500.66,-75.65 523.66,-67.75 542.57,-61.24"/>
<polygon fill="#63b8ff" stroke="#63b8ff" points="543.58,-64.25 551.9,-57.69 541.3,-57.63 543.58,-64.25"/>
</a>
</g>
</g>
</g>
</svg>

<g id="navigator" transform="translate(0 0)" fill="#404254">
  <rect fill="#f2f5e9" fill-opacity="0.5" stroke="#606060" stroke-width=".5" x="0" y="0" width="60" height="60"/>
  <use id="zoomplus" xlink:href="#zoomPlus" x="17" y="9" onmousedown="handleZoom(evt,'in')"/>
  <use id="zoomminus" xlink:href="#zoomMin" x="42" y="9" onmousedown="handleZoom(evt,'out')"/>
  <use id="reset" xlink:href="#resetDef" x="30" y="36" onmousedown="handleReset()"/>
   <use id="arrowup" xlink:href="#arrowUp" x="0" y="0" onmousedown="handlePan(0,-1)"/>
  <use id="arrowright" xlink:href="#arrowRight" x="0" y="0" onmousedown="handlePan(1,0)"/>
  <use id="arrowdown" xlink:href="#arrowDown" x="0" y="0" onmousedown="handlePan(0,1)"/>
  <use id="arrowleft" xlink:href="#arrowLeft" x="0" y="0" onmousedown="handlePan(-1,0)"/>
</g>
<svg viewBox="0 0 15 15" width="100%" height="30px" preserveAspectRatio="xMaxYMin meet">
 <g id="arrow_out" transform="scale(0.3 0.3)">
  <a xlink:href="class_slic3r_1_1_g_u_i_1_1_bed3_d_a8b0a0323d97b1cb6742f2024af0e7798_cgraph_org.svg" target="_base">
   <rect id="button" ry="5" rx="5" y="6" x="6" height="38" width="38"
        fill="#f2f5e9" fill-opacity="0.5" stroke="#606060" stroke-width="1.0"/>
   <path id="arrow"
     d="M 11.500037,31.436501 C 11.940474,20.09759 22.043105,11.32322 32.158766,21.979434 L 37.068811,17.246167 C 37.068811,17.246167 37.088388,32 37.088388,32 L 22.160133,31.978069 C 22.160133,31.978069 26.997745,27.140456 26.997745,27.140456 C 18.528582,18.264221 13.291696,25.230495 11.500037,31.436501 z"
     style="fill:#404040;"/>
  </a>
 </g>
</svg>

<style type='text/css'>
<![CDATA[
[data-mouse-over-selected='false'] { opacity: 0.7; }
[data-mouse-over-selected='true']  { opacity: 1.0; }
]]>
</style>
<script type="application/ecmascript"><![CDATA[
document.addEventListener('DOMContentLoaded', (event) => {
  highlightEdges();
  highlightAdjacentNodes();
});
]]></script>
</svg>
