<?xml version="1.0" encoding="UTF-8" standalone="no"?>
<!DOCTYPE svg PUBLIC "-//W3C//DTD SVG 1.1//EN"
 "http://www.w3.org/Graphics/SVG/1.1/DTD/svg11.dtd">
<!-- Generated by graphviz version 8.1.0 (20230707.0739)
 -->
<!-- Title: Slic3r::MachineObject::command_upgrade_confirm Pages: 1 -->
<svg width="616pt" height="137pt"
 viewBox="0.00 0.00 615.75 136.50" xmlns="http://www.w3.org/2000/svg" xmlns:xlink="http://www.w3.org/1999/xlink">
<g id="graph0" class="graph" transform="scale(1 1) rotate(0) translate(4 132.5)">
<title>Slic3r::MachineObject::command_upgrade_confirm</title>
<!-- Node1 -->
<g id="Node000001" class="node">
<title>Node1</title>
<g id="a_Node000001"><a xlink:title=" ">
<polygon fill="#999999" stroke="#666666" points="142,-103.5 0,-103.5 0,-73 142,-73 142,-103.5"/>
<text text-anchor="start" x="8" y="-90" font-family="Helvetica,sans-Serif" font-size="10.00">Slic3r::MachineObject</text>
<text text-anchor="middle" x="71" y="-78.75" font-family="Helvetica,sans-Serif" font-size="10.00">::command_upgrade_confirm</text>
</a>
</g>
</g>
<!-- Node2 -->
<g id="Node000002" class="node">
<title>Node2</title>
<g id="a_Node000002"><a xlink:href="../../d9/dcc/classnlohmann_1_1basic__json.html#a476756fb08e7f2416aad116d137977f4" target="_top" xlink:title="serialization">
<polygon fill="white" stroke="#666666" points="289.25,-128.5 178.75,-128.5 178.75,-98 289.25,-98 289.25,-128.5"/>
<text text-anchor="start" x="186.75" y="-115" font-family="Helvetica,sans-Serif" font-size="10.00">nlohmann::basic_json</text>
<text text-anchor="middle" x="234" y="-103.75" font-family="Helvetica,sans-Serif" font-size="10.00">::dump</text>
</a>
</g>
</g>
<!-- Node1&#45;&gt;Node2 -->
<g id="edge1_Node000001_Node000002" class="edge">
<title>Node1&#45;&gt;Node2</title>
<g id="a_edge1_Node000001_Node000002"><a xlink:title=" ">
<path fill="none" stroke="#63b8ff" d="M142.15,-99.14C150.73,-100.47 159.47,-101.83 167.97,-103.15"/>
<polygon fill="#63b8ff" stroke="#63b8ff" points="167.16,-106.72 177.58,-104.8 168.23,-99.81 167.16,-106.72"/>
</a>
</g>
</g>
<!-- Node3 -->
<g id="Node000003" class="node">
<title>Node3</title>
<g id="a_Node000003"><a xlink:href="../../dc/d24/class_slic3r_1_1_machine_object.html#ade0d002135681d1324249eda765ddac3" target="_top" xlink:title=" ">
<polygon fill="white" stroke="#666666" points="290,-79.5 178,-79.5 178,-49 290,-49 290,-79.5"/>
<text text-anchor="start" x="186" y="-66" font-family="Helvetica,sans-Serif" font-size="10.00">Slic3r::MachineObject</text>
<text text-anchor="middle" x="234" y="-54.75" font-family="Helvetica,sans-Serif" font-size="10.00">::publish_json</text>
</a>
</g>
</g>
<!-- Node1&#45;&gt;Node3 -->
<g id="edge2_Node000001_Node000003" class="edge">
<title>Node1&#45;&gt;Node3</title>
<g id="a_edge2_Node000001_Node000003"><a xlink:title=" ">
<path fill="none" stroke="#63b8ff" d="M142.15,-77.79C150.4,-76.56 158.79,-75.31 166.98,-74.09"/>
<polygon fill="#63b8ff" stroke="#63b8ff" points="167.23,-77.44 176.6,-72.51 166.19,-70.52 167.23,-77.44"/>
</a>
</g>
</g>
<!-- Node4 -->
<g id="Node000004" class="node">
<title>Node4</title>
<g id="a_Node000004"><a xlink:href="../../dc/d24/class_slic3r_1_1_machine_object.html#ae1afb548f6934d4fba8f6840c9bd485b" target="_top" xlink:title=" ">
<polygon fill="white" stroke="#666666" points="438,-128.5 326,-128.5 326,-98 438,-98 438,-128.5"/>
<text text-anchor="start" x="334" y="-115" font-family="Helvetica,sans-Serif" font-size="10.00">Slic3r::MachineObject</text>
<text text-anchor="middle" x="382" y="-103.75" font-family="Helvetica,sans-Serif" font-size="10.00">::cloud_publish_json</text>
</a>
</g>
</g>
<!-- Node3&#45;&gt;Node4 -->
<g id="edge3_Node000003_Node000004" class="edge">
<title>Node3&#45;&gt;Node4</title>
<g id="a_edge3_Node000003_Node000004"><a xlink:title=" ">
<path fill="none" stroke="#63b8ff" d="M281.6,-79.89C295.09,-84.42 309.98,-89.42 324.04,-94.13"/>
<polygon fill="#63b8ff" stroke="#63b8ff" points="322.5,-97.64 333.09,-97.51 324.73,-91.01 322.5,-97.64"/>
</a>
</g>
</g>
<!-- Node6 -->
<g id="Node000006" class="node">
<title>Node6</title>
<g id="a_Node000006"><a xlink:href="../../dc/d24/class_slic3r_1_1_machine_object.html#aba1eee500ff3251d244a2cbec8e93fae" target="_top" xlink:title=" ">
<polygon fill="white" stroke="#666666" points="438,-79.5 326,-79.5 326,-49 438,-49 438,-79.5"/>
<text text-anchor="start" x="334" y="-66" font-family="Helvetica,sans-Serif" font-size="10.00">Slic3r::MachineObject</text>
<text text-anchor="middle" x="382" y="-54.75" font-family="Helvetica,sans-Serif" font-size="10.00">::is_lan_mode_printer</text>
</a>
</g>
</g>
<!-- Node3&#45;&gt;Node6 -->
<g id="edge5_Node000003_Node000006" class="edge">
<title>Node3&#45;&gt;Node6</title>
<g id="a_edge5_Node000003_Node000006"><a xlink:title=" ">
<path fill="none" stroke="#63b8ff" d="M290.2,-64.25C298.28,-64.25 306.68,-64.25 314.95,-64.25"/>
<polygon fill="#63b8ff" stroke="#63b8ff" points="314.73,-67.75 324.73,-64.25 314.73,-60.75 314.73,-67.75"/>
</a>
</g>
</g>
<!-- Node7 -->
<g id="Node000007" class="node">
<title>Node7</title>
<g id="a_Node000007"><a xlink:href="../../dc/d24/class_slic3r_1_1_machine_object.html#a097b9f2ab8ef7b440a536f56bdafcdcb" target="_top" xlink:title=" ">
<polygon fill="white" stroke="#666666" points="438,-30.5 326,-30.5 326,0 438,0 438,-30.5"/>
<text text-anchor="start" x="334" y="-17" font-family="Helvetica,sans-Serif" font-size="10.00">Slic3r::MachineObject</text>
<text text-anchor="middle" x="382" y="-5.75" font-family="Helvetica,sans-Serif" font-size="10.00">::local_publish_json</text>
</a>
</g>
</g>
<!-- Node3&#45;&gt;Node7 -->
<g id="edge6_Node000003_Node000007" class="edge">
<title>Node3&#45;&gt;Node7</title>
<g id="a_edge6_Node000003_Node000007"><a xlink:title=" ">
<path fill="none" stroke="#63b8ff" d="M281.6,-48.61C295.09,-44.08 309.98,-39.08 324.04,-34.37"/>
<polygon fill="#63b8ff" stroke="#63b8ff" points="324.73,-37.49 333.09,-30.99 322.5,-30.86 324.73,-37.49"/>
</a>
</g>
</g>
<!-- Node5 -->
<g id="Node000005" class="node">
<title>Node5</title>
<g id="a_Node000005"><a xlink:href="../../d7/daf/class_slic3r_1_1_network_agent.html#a55a0161b96c9ea5d6f82dbd027fbf117" target="_top" xlink:title=" ">
<polygon fill="white" stroke="#666666" points="595.38,-128.5 486.38,-128.5 486.38,-98 595.38,-98 595.38,-128.5"/>
<text text-anchor="start" x="494.38" y="-115" font-family="Helvetica,sans-Serif" font-size="10.00">Slic3r::NetworkAgent</text>
<text text-anchor="middle" x="540.88" y="-103.75" font-family="Helvetica,sans-Serif" font-size="10.00">::send_message</text>
</a>
</g>
</g>
<!-- Node4&#45;&gt;Node5 -->
<g id="edge4_Node000004_Node000005" class="edge">
<title>Node4&#45;&gt;Node5</title>
<g id="a_edge4_Node000004_Node000005"><a xlink:title=" ">
<path fill="none" stroke="#63b8ff" d="M438.31,-113.25C450.32,-113.25 463.12,-113.25 475.44,-113.25"/>
<polygon fill="#63b8ff" stroke="#63b8ff" points="475.12,-116.75 485.12,-113.25 475.12,-109.75 475.12,-116.75"/>
</a>
</g>
</g>
<!-- Node8 -->
<g id="Node000008" class="node">
<title>Node8</title>
<g id="a_Node000008"><a xlink:href="../../d7/daf/class_slic3r_1_1_network_agent.html#aabd2d34e09722a876409e5ac43e2ff5c" target="_top" xlink:title=" ">
<polygon fill="white" stroke="#666666" points="607.75,-30.5 474,-30.5 474,0 607.75,0 607.75,-30.5"/>
<text text-anchor="start" x="482" y="-17" font-family="Helvetica,sans-Serif" font-size="10.00">Slic3r::NetworkAgent</text>
<text text-anchor="middle" x="540.88" y="-5.75" font-family="Helvetica,sans-Serif" font-size="10.00">::send_message_to_printer</text>
</a>
</g>
</g>
<!-- Node7&#45;&gt;Node8 -->
<g id="edge7_Node000007_Node000008" class="edge">
<title>Node7&#45;&gt;Node8</title>
<g id="a_edge7_Node000007_Node000008"><a xlink:title=" ">
<path fill="none" stroke="#63b8ff" d="M438.31,-15.25C446.22,-15.25 454.48,-15.25 462.72,-15.25"/>
<polygon fill="#63b8ff" stroke="#63b8ff" points="462.5,-18.75 472.5,-15.25 462.5,-11.75 462.5,-18.75"/>
</a>
</g>
</g>
</g>
</svg>
