<?xml version="1.0" encoding="UTF-8" standalone="no"?>
<!DOCTYPE svg PUBLIC "-//W3C//DTD SVG 1.1//EN"
 "http://www.w3.org/Graphics/SVG/1.1/DTD/svg11.dtd">
<!-- Generated by graphviz version 8.1.0 (20230707.0739)
 -->
<!-- Title: Slic3r::MachineObject::is_filament_at_extruder Pages: 1 -->
<svg width="1119pt" height="230pt"
 viewBox="0.00 0.00 1119.00 229.50" xmlns="http://www.w3.org/2000/svg" xmlns:xlink="http://www.w3.org/1999/xlink">
<g id="graph0" class="graph" transform="scale(1 1) rotate(0) translate(4 225.5)">
<title>Slic3r::MachineObject::is_filament_at_extruder</title>
<!-- Node1 -->
<g id="Node000001" class="node">
<title>Node1</title>
<g id="a_Node000001"><a xlink:title=" ">
<polygon fill="#999999" stroke="#666666" points="1111,-129.5 987.75,-129.5 987.75,-99 1111,-99 1111,-129.5"/>
<text text-anchor="start" x="995.75" y="-116" font-family="Helvetica,sans-Serif" font-size="10.00">Slic3r::MachineObject</text>
<text text-anchor="middle" x="1049.38" y="-104.75" font-family="Helvetica,sans-Serif" font-size="10.00">::is_filament_at_extruder</text>
</a>
</g>
</g>
<!-- Node2 -->
<g id="Node000002" class="node">
<title>Node2</title>
<g id="a_Node000002"><a xlink:href="../../dc/dbb/class_slic3r_1_1_g_u_i_1_1_status_panel.html#aef12d003acce4d25f5f187725698b38b" target="_top" xlink:title=" ">
<polygon fill="white" stroke="#666666" points="945.38,-221.5 821.38,-221.5 821.38,-191 945.38,-191 945.38,-221.5"/>
<text text-anchor="start" x="829.38" y="-208" font-family="Helvetica,sans-Serif" font-size="10.00">Slic3r::GUI::StatusPanel</text>
<text text-anchor="middle" x="883.38" y="-196.75" font-family="Helvetica,sans-Serif" font-size="10.00">::on_ams_load_curr</text>
</a>
</g>
</g>
<!-- Node1&#45;&gt;Node2 -->
<g id="edge1_Node000001_Node000002" class="edge">
<title>Node1&#45;&gt;Node2</title>
<g id="a_edge1_Node000001_Node000002"><a xlink:title=" ">
<path fill="none" stroke="#63b8ff" d="M1020.37,-136.49C1001.69,-150.59 976.17,-168.51 951.75,-181.25 945.33,-184.6 938.37,-187.71 931.43,-190.52"/>
<polygon fill="#63b8ff" stroke="#63b8ff" points="1022.14,-138.77 1027.95,-129.91 1017.88,-133.21 1022.14,-138.77"/>
</a>
</g>
</g>
<!-- Node5 -->
<g id="Node000005" class="node">
<title>Node5</title>
<g id="a_Node000005"><a xlink:href="../../dc/dbb/class_slic3r_1_1_g_u_i_1_1_status_panel.html#a3ea36f791819ab815b61f3e7dff8626a" target="_top" xlink:title=" ">
<polygon fill="white" stroke="#666666" points="945.38,-172.5 821.38,-172.5 821.38,-142 945.38,-142 945.38,-172.5"/>
<text text-anchor="start" x="829.38" y="-159" font-family="Helvetica,sans-Serif" font-size="10.00">Slic3r::GUI::StatusPanel</text>
<text text-anchor="middle" x="883.38" y="-147.75" font-family="Helvetica,sans-Serif" font-size="10.00">::on_ams_refresh_rfid</text>
</a>
</g>
</g>
<!-- Node1&#45;&gt;Node5 -->
<g id="edge4_Node000001_Node000005" class="edge">
<title>Node1&#45;&gt;Node5</title>
<g id="a_edge4_Node000001_Node000005"><a xlink:title=" ">
<path fill="none" stroke="#63b8ff" d="M978.39,-132.6C967.03,-135.58 955.36,-138.64 944.28,-141.54"/>
<polygon fill="#63b8ff" stroke="#63b8ff" points="978.92,-135.82 987.7,-129.9 977.14,-129.05 978.92,-135.82"/>
</a>
</g>
</g>
<!-- Node6 -->
<g id="Node000006" class="node">
<title>Node6</title>
<g id="a_Node000006"><a xlink:href="../../dc/dbb/class_slic3r_1_1_g_u_i_1_1_status_panel.html#a3b44cda9400cc60e227eb523ffc50671" target="_top" xlink:title=" ">
<polygon fill="white" stroke="#666666" points="779,-128.5 655,-128.5 655,-98 779,-98 779,-128.5"/>
<text text-anchor="start" x="663" y="-115" font-family="Helvetica,sans-Serif" font-size="10.00">Slic3r::GUI::StatusPanel</text>
<text text-anchor="middle" x="717" y="-103.75" font-family="Helvetica,sans-Serif" font-size="10.00">::update_ams</text>
</a>
</g>
</g>
<!-- Node1&#45;&gt;Node6 -->
<g id="edge6_Node000001_Node000006" class="edge">
<title>Node1&#45;&gt;Node6</title>
<g id="a_edge6_Node000001_Node000006"><a xlink:title=" ">
<path fill="none" stroke="#63b8ff" d="M976.69,-114.03C917.83,-113.85 835.35,-113.61 779.46,-113.44"/>
<polygon fill="#63b8ff" stroke="#63b8ff" points="976.38,-117.54 986.39,-114.07 976.4,-110.54 976.38,-117.54"/>
</a>
</g>
</g>
<!-- Node13 -->
<g id="Node000013" class="node">
<title>Node13</title>
<g id="a_Node000013"><a xlink:href="../../dc/dbb/class_slic3r_1_1_g_u_i_1_1_status_panel.html#ad9ca4ba07dc6c272187587f4f90e03e8" target="_top" xlink:title=" ">
<polygon fill="white" stroke="#666666" points="951.75,-86.5 815,-86.5 815,-56 951.75,-56 951.75,-86.5"/>
<text text-anchor="start" x="823" y="-73" font-family="Helvetica,sans-Serif" font-size="10.00">Slic3r::GUI::StatusPanel</text>
<text text-anchor="middle" x="883.38" y="-61.75" font-family="Helvetica,sans-Serif" font-size="10.00">::update_ams_control_state</text>
</a>
</g>
</g>
<!-- Node1&#45;&gt;Node13 -->
<g id="edge14_Node000001_Node000013" class="edge">
<title>Node1&#45;&gt;Node13</title>
<g id="a_edge14_Node000001_Node000013"><a xlink:title=" ">
<path fill="none" stroke="#63b8ff" d="M978.39,-95.9C967.03,-92.92 955.36,-89.86 944.28,-86.96"/>
<polygon fill="#63b8ff" stroke="#63b8ff" points="977.14,-99.45 987.7,-98.6 978.92,-92.68 977.14,-99.45"/>
</a>
</g>
</g>
<!-- Node14 -->
<g id="Node000014" class="node">
<title>Node14</title>
<g id="a_Node000014"><a xlink:href="../../dc/dbb/class_slic3r_1_1_g_u_i_1_1_status_panel.html#a460ad35408145a280e01bff068206b0f" target="_top" xlink:title=" ">
<polygon fill="white" stroke="#666666" points="945.38,-37.5 821.38,-37.5 821.38,-7 945.38,-7 945.38,-37.5"/>
<text text-anchor="start" x="829.38" y="-24" font-family="Helvetica,sans-Serif" font-size="10.00">Slic3r::GUI::StatusPanel</text>
<text text-anchor="middle" x="883.38" y="-12.75" font-family="Helvetica,sans-Serif" font-size="10.00">::update_extruder_status</text>
</a>
</g>
</g>
<!-- Node1&#45;&gt;Node14 -->
<g id="edge16_Node000001_Node000014" class="edge">
<title>Node1&#45;&gt;Node14</title>
<g id="a_edge16_Node000001_Node000014"><a xlink:title=" ">
<path fill="none" stroke="#63b8ff" d="M1020.37,-92.01C1001.69,-77.91 976.17,-59.99 951.75,-47.25 945.33,-43.9 938.37,-40.79 931.43,-37.98"/>
<polygon fill="#63b8ff" stroke="#63b8ff" points="1017.88,-95.29 1027.95,-98.59 1022.14,-89.73 1017.88,-95.29"/>
</a>
</g>
</g>
<!-- Node3 -->
<g id="Node000003" class="node">
<title>Node3</title>
<g id="a_Node000003"><a xlink:href="../../dc/dbb/class_slic3r_1_1_g_u_i_1_1_status_panel.html#a071c8145c762d8cc1490c1ea18e6501b" target="_top" xlink:title=" ">
<polygon fill="white" stroke="#666666" points="779,-220.5 655,-220.5 655,-190 779,-190 779,-220.5"/>
<text text-anchor="start" x="663" y="-207" font-family="Helvetica,sans-Serif" font-size="10.00">Slic3r::GUI::StatusPanel</text>
<text text-anchor="middle" x="717" y="-195.75" font-family="Helvetica,sans-Serif" font-size="10.00">::on_ams_load</text>
</a>
</g>
</g>
<!-- Node2&#45;&gt;Node3 -->
<g id="edge2_Node000002_Node000003" class="edge">
<title>Node2&#45;&gt;Node3</title>
<g id="a_edge2_Node000002_Node000003"><a xlink:title=" ">
<path fill="none" stroke="#63b8ff" d="M810.44,-205.81C800.04,-205.75 789.42,-205.68 779.26,-205.62"/>
<polygon fill="#63b8ff" stroke="#63b8ff" points="810.15,-209.32 820.17,-205.88 810.19,-202.32 810.15,-209.32"/>
</a>
</g>
</g>
<!-- Node4 -->
<g id="Node000004" class="node">
<title>Node4</title>
<g id="a_Node000004"><a xlink:href="../../dc/dbb/class_slic3r_1_1_g_u_i_1_1_status_panel.html#abec0b63d5ee2263a0a3b4549d63fb02c" target="_top" xlink:title=" ">
<polygon fill="white" stroke="#666666" points="617.12,-187.5 493.12,-187.5 493.12,-157 617.12,-157 617.12,-187.5"/>
<text text-anchor="start" x="501.12" y="-174" font-family="Helvetica,sans-Serif" font-size="10.00">Slic3r::GUI::StatusPanel</text>
<text text-anchor="middle" x="555.12" y="-162.75" font-family="Helvetica,sans-Serif" font-size="10.00">::StatusPanel</text>
</a>
</g>
</g>
<!-- Node3&#45;&gt;Node4 -->
<g id="edge3_Node000003_Node000004" class="edge">
<title>Node3&#45;&gt;Node4</title>
<g id="a_edge3_Node000003_Node000004"><a xlink:title=" ">
<path fill="none" stroke="#63b8ff" d="M643.98,-190.39C635.17,-188.57 626.22,-186.72 617.58,-184.93"/>
<polygon fill="#63b8ff" stroke="#63b8ff" points="643.14,-193.99 653.65,-192.59 644.56,-187.14 643.14,-193.99"/>
</a>
</g>
</g>
<!-- Node5&#45;&gt;Node4 -->
<g id="edge5_Node000005_Node000004" class="edge">
<title>Node5&#45;&gt;Node4</title>
<g id="a_edge5_Node000005_Node000004"><a xlink:title=" ">
<path fill="none" stroke="#63b8ff" d="M810.13,-160.57C752.34,-163.23 672.2,-166.91 617.49,-169.43"/>
<polygon fill="#63b8ff" stroke="#63b8ff" points="810.18,-164.03 820.01,-160.07 809.86,-157.03 810.18,-164.03"/>
</a>
</g>
</g>
<!-- Node7 -->
<g id="Node000007" class="node">
<title>Node7</title>
<g id="a_Node000007"><a xlink:href="../../dc/dbb/class_slic3r_1_1_g_u_i_1_1_status_panel.html#a632623622b2983d0499e8cf47403dc85" target="_top" xlink:title=" ">
<polygon fill="white" stroke="#666666" points="617.12,-115.5 493.12,-115.5 493.12,-85 617.12,-85 617.12,-115.5"/>
<text text-anchor="start" x="501.12" y="-102" font-family="Helvetica,sans-Serif" font-size="10.00">Slic3r::GUI::StatusPanel</text>
<text text-anchor="middle" x="555.12" y="-90.75" font-family="Helvetica,sans-Serif" font-size="10.00">::update</text>
</a>
</g>
</g>
<!-- Node6&#45;&gt;Node7 -->
<g id="edge7_Node000006_Node000007" class="edge">
<title>Node6&#45;&gt;Node7</title>
<g id="a_edge7_Node000006_Node000007"><a xlink:title=" ">
<path fill="none" stroke="#63b8ff" d="M643.69,-107.37C634.97,-106.66 626.13,-105.94 617.58,-105.25"/>
<polygon fill="#63b8ff" stroke="#63b8ff" points="643.39,-110.94 653.65,-108.26 643.96,-103.96 643.39,-110.94"/>
</a>
</g>
</g>
<!-- Node8 -->
<g id="Node000008" class="node">
<title>Node8</title>
<g id="a_Node000008"><a xlink:href="../../d4/d77/class_slic3r_1_1_g_u_i_1_1_monitor_panel.html#ac5857bac9c8c7b48dcb28e3c43319429" target="_top" xlink:title=" ">
<polygon fill="white" stroke="#666666" points="455.25,-115.5 327.5,-115.5 327.5,-85 455.25,-85 455.25,-115.5"/>
<text text-anchor="start" x="335.5" y="-102" font-family="Helvetica,sans-Serif" font-size="10.00">Slic3r::GUI::MonitorPanel</text>
<text text-anchor="middle" x="391.38" y="-90.75" font-family="Helvetica,sans-Serif" font-size="10.00">::update_all</text>
</a>
</g>
</g>
<!-- Node7&#45;&gt;Node8 -->
<g id="edge8_Node000007_Node000008" class="edge">
<title>Node7&#45;&gt;Node8</title>
<g id="a_edge8_Node000007_Node000008"><a xlink:title=" ">
<path fill="none" stroke="#63b8ff" d="M482.21,-100.25C473.31,-100.25 464.26,-100.25 455.5,-100.25"/>
<polygon fill="#63b8ff" stroke="#63b8ff" points="481.97,-103.75 491.97,-100.25 481.97,-96.75 481.97,-103.75"/>
</a>
</g>
</g>
<!-- Node9 -->
<g id="Node000009" class="node">
<title>Node9</title>
<g id="a_Node000009"><a xlink:href="../../d4/d77/class_slic3r_1_1_g_u_i_1_1_monitor_panel.html#a4a4b54e8793dac1a3896d841720a181d" target="_top" xlink:title=" ">
<polygon fill="white" stroke="#666666" points="291.5,-164.5 163.75,-164.5 163.75,-134 291.5,-134 291.5,-164.5"/>
<text text-anchor="start" x="171.75" y="-151" font-family="Helvetica,sans-Serif" font-size="10.00">Slic3r::GUI::MonitorPanel</text>
<text text-anchor="middle" x="227.62" y="-139.75" font-family="Helvetica,sans-Serif" font-size="10.00">::on_select_printer</text>
</a>
</g>
</g>
<!-- Node8&#45;&gt;Node9 -->
<g id="edge9_Node000008_Node000009" class="edge">
<title>Node8&#45;&gt;Node9</title>
<g id="a_edge9_Node000008_Node000009"><a xlink:title=" ">
<path fill="none" stroke="#63b8ff" d="M328.53,-118.98C312.71,-123.78 295.86,-128.88 280.59,-133.51"/>
<polygon fill="#63b8ff" stroke="#63b8ff" points="329.2,-122.14 337.75,-115.89 327.17,-115.44 329.2,-122.14"/>
</a>
</g>
</g>
<!-- Node11 -->
<g id="Node000011" class="node">
<title>Node11</title>
<g id="a_Node000011"><a xlink:href="../../d4/d77/class_slic3r_1_1_g_u_i_1_1_monitor_panel.html#a9a3f829e5c74528bbed2aeb7dde9d7c8" target="_top" xlink:title=" ">
<polygon fill="white" stroke="#666666" points="291.5,-115.5 163.75,-115.5 163.75,-85 291.5,-85 291.5,-115.5"/>
<text text-anchor="start" x="171.75" y="-102" font-family="Helvetica,sans-Serif" font-size="10.00">Slic3r::GUI::MonitorPanel</text>
<text text-anchor="middle" x="227.62" y="-90.75" font-family="Helvetica,sans-Serif" font-size="10.00">::on_timer</text>
</a>
</g>
</g>
<!-- Node8&#45;&gt;Node11 -->
<g id="edge11_Node000008_Node000011" class="edge">
<title>Node8&#45;&gt;Node11</title>
<g id="a_edge11_Node000008_Node000011"><a xlink:title=" ">
<path fill="none" stroke="#63b8ff" d="M316.64,-100.25C308.4,-100.25 300.07,-100.25 291.99,-100.25"/>
<polygon fill="#63b8ff" stroke="#63b8ff" points="316.38,-103.75 326.38,-100.25 316.38,-96.75 316.38,-103.75"/>
</a>
</g>
</g>
<!-- Node12 -->
<g id="Node000012" class="node">
<title>Node12</title>
<g id="a_Node000012"><a xlink:href="../../d4/d77/class_slic3r_1_1_g_u_i_1_1_monitor_panel.html#ab8f0f8ec1e87a824d5ea56de7f5545f7" target="_top" xlink:title=" ">
<polygon fill="white" stroke="#666666" points="291.5,-66.5 163.75,-66.5 163.75,-36 291.5,-36 291.5,-66.5"/>
<text text-anchor="start" x="171.75" y="-53" font-family="Helvetica,sans-Serif" font-size="10.00">Slic3r::GUI::MonitorPanel</text>
<text text-anchor="middle" x="227.62" y="-41.75" font-family="Helvetica,sans-Serif" font-size="10.00">::on_update_all</text>
</a>
</g>
</g>
<!-- Node8&#45;&gt;Node12 -->
<g id="edge13_Node000008_Node000012" class="edge">
<title>Node8&#45;&gt;Node12</title>
<g id="a_edge13_Node000008_Node000012"><a xlink:title=" ">
<path fill="none" stroke="#63b8ff" d="M328.53,-81.52C312.71,-76.72 295.86,-71.62 280.59,-66.99"/>
<polygon fill="#63b8ff" stroke="#63b8ff" points="327.17,-85.06 337.75,-84.61 329.2,-78.36 327.17,-85.06"/>
</a>
</g>
</g>
<!-- Node10 -->
<g id="Node000010" class="node">
<title>Node10</title>
<g id="a_Node000010"><a xlink:href="../../d4/d77/class_slic3r_1_1_g_u_i_1_1_monitor_panel.html#a13ffdb6797a54bb0643e430f242462ac" target="_top" xlink:title=" ">
<polygon fill="white" stroke="#666666" points="127.75,-139.5 0,-139.5 0,-109 127.75,-109 127.75,-139.5"/>
<text text-anchor="start" x="8" y="-126" font-family="Helvetica,sans-Serif" font-size="10.00">Slic3r::GUI::MonitorPanel</text>
<text text-anchor="middle" x="63.88" y="-114.75" font-family="Helvetica,sans-Serif" font-size="10.00">::MonitorPanel</text>
</a>
</g>
</g>
<!-- Node9&#45;&gt;Node10 -->
<g id="edge10_Node000009_Node000010" class="edge">
<title>Node9&#45;&gt;Node10</title>
<g id="a_edge10_Node000009_Node000010"><a xlink:title=" ">
<path fill="none" stroke="#63b8ff" d="M152.89,-137.85C144.65,-136.58 136.32,-135.29 128.24,-134.04"/>
<polygon fill="#63b8ff" stroke="#63b8ff" points="152.21,-141.44 162.63,-139.51 153.28,-134.53 152.21,-141.44"/>
</a>
</g>
</g>
<!-- Node11&#45;&gt;Node10 -->
<g id="edge12_Node000011_Node000010" class="edge">
<title>Node11&#45;&gt;Node10</title>
<g id="a_edge12_Node000011_Node000010"><a xlink:title=" ">
<path fill="none" stroke="#63b8ff" d="M152.89,-111.19C144.65,-112.41 136.32,-113.65 128.24,-114.85"/>
<polygon fill="#63b8ff" stroke="#63b8ff" points="153.25,-114.53 162.63,-109.6 152.22,-107.6 153.25,-114.53"/>
</a>
</g>
</g>
<!-- Node13&#45;&gt;Node6 -->
<g id="edge15_Node000013_Node000006" class="edge">
<title>Node13&#45;&gt;Node6</title>
<g id="a_edge15_Node000013_Node000006"><a xlink:title=" ">
<path fill="none" stroke="#63b8ff" d="M810.77,-89.55C800.27,-92.23 789.53,-94.97 779.26,-97.6"/>
<polygon fill="#63b8ff" stroke="#63b8ff" points="811.35,-92.76 820.17,-86.89 809.61,-85.97 811.35,-92.76"/>
</a>
</g>
</g>
<!-- Node15 -->
<g id="Node000015" class="node">
<title>Node15</title>
<g id="a_Node000015"><a xlink:href="../../dc/dbb/class_slic3r_1_1_g_u_i_1_1_status_panel.html#ab7c8e9f79170a598d2ab7d8f9d1826e0" target="_top" xlink:title=" ">
<polygon fill="white" stroke="#666666" points="779,-30.5 655,-30.5 655,0 779,0 779,-30.5"/>
<text text-anchor="start" x="663" y="-17" font-family="Helvetica,sans-Serif" font-size="10.00">Slic3r::GUI::StatusPanel</text>
<text text-anchor="middle" x="717" y="-5.75" font-family="Helvetica,sans-Serif" font-size="10.00">::msw_rescale</text>
</a>
</g>
</g>
<!-- Node14&#45;&gt;Node15 -->
<g id="edge17_Node000014_Node000015" class="edge">
<title>Node14&#45;&gt;Node15</title>
<g id="a_edge17_Node000014_Node000015"><a xlink:title=" ">
<path fill="none" stroke="#63b8ff" d="M810.44,-19.19C800.04,-18.74 789.42,-18.29 779.26,-17.86"/>
<polygon fill="#63b8ff" stroke="#63b8ff" points="810.03,-22.71 820.17,-19.64 810.33,-15.72 810.03,-22.71"/>
</a>
</g>
</g>
<!-- Node17 -->
<g id="Node000017" class="node">
<title>Node17</title>
<g id="a_Node000017"><a xlink:href="../../dc/dbb/class_slic3r_1_1_g_u_i_1_1_status_panel.html#a19939aaa7499f4f9a1d92863e5293bcc" target="_top" xlink:title=" ">
<polygon fill="white" stroke="#666666" points="779,-79.5 655,-79.5 655,-49 779,-49 779,-79.5"/>
<text text-anchor="start" x="663" y="-66" font-family="Helvetica,sans-Serif" font-size="10.00">Slic3r::GUI::StatusPanel</text>
<text text-anchor="middle" x="717" y="-54.75" font-family="Helvetica,sans-Serif" font-size="10.00">::update_misc_ctrl</text>
</a>
</g>
</g>
<!-- Node14&#45;&gt;Node17 -->
<g id="edge19_Node000014_Node000017" class="edge">
<title>Node14&#45;&gt;Node17</title>
<g id="a_edge19_Node000014_Node000017"><a xlink:title=" ">
<path fill="none" stroke="#63b8ff" d="M810.77,-40.55C800.27,-43.23 789.53,-45.97 779.26,-48.6"/>
<polygon fill="#63b8ff" stroke="#63b8ff" points="811.35,-43.76 820.17,-37.89 809.61,-36.97 811.35,-43.76"/>
</a>
</g>
</g>
<!-- Node16 -->
<g id="Node000016" class="node">
<title>Node16</title>
<g id="a_Node000016"><a xlink:href="../../d4/d77/class_slic3r_1_1_g_u_i_1_1_monitor_panel.html#af82930ee59437f81a4ba1010f09f8fff" target="_top" xlink:title=" ">
<polygon fill="white" stroke="#666666" points="619,-30.5 491.25,-30.5 491.25,0 619,0 619,-30.5"/>
<text text-anchor="start" x="499.25" y="-17" font-family="Helvetica,sans-Serif" font-size="10.00">Slic3r::GUI::MonitorPanel</text>
<text text-anchor="middle" x="555.12" y="-5.75" font-family="Helvetica,sans-Serif" font-size="10.00">::msw_rescale</text>
</a>
</g>
</g>
<!-- Node15&#45;&gt;Node16 -->
<g id="edge18_Node000015_Node000016" class="edge">
<title>Node15&#45;&gt;Node16</title>
<g id="a_edge18_Node000015_Node000016"><a xlink:title=" ">
<path fill="none" stroke="#63b8ff" d="M643.7,-15.25C635.61,-15.25 627.4,-15.25 619.43,-15.25"/>
<polygon fill="#63b8ff" stroke="#63b8ff" points="643.65,-18.75 653.65,-15.25 643.65,-11.75 643.65,-18.75"/>
</a>
</g>
</g>
<!-- Node17&#45;&gt;Node7 -->
<g id="edge20_Node000017_Node000007" class="edge">
<title>Node17&#45;&gt;Node7</title>
<g id="a_edge20_Node000017_Node000007"><a xlink:title=" ">
<path fill="none" stroke="#63b8ff" d="M643.98,-80.47C635.17,-82.45 626.22,-84.47 617.58,-86.41"/>
<polygon fill="#63b8ff" stroke="#63b8ff" points="644.66,-83.68 653.65,-78.07 643.12,-76.85 644.66,-83.68"/>
</a>
</g>
</g>
</g>
</svg>
