<?xml version="1.0" encoding="UTF-8" standalone="no"?>
<!DOCTYPE svg PUBLIC "-//W3C//DTD SVG 1.1//EN"
 "http://www.w3.org/Graphics/SVG/1.1/DTD/svg11.dtd">
<!-- Generated by graphviz version 8.1.0 (20230707.0739)
 -->
<!-- Title: Slic3r::MachineObject::publish_gcode Pages: 1 -->
<svg width="586pt" height="186pt"
 viewBox="0.00 0.00 585.75 185.50" xmlns="http://www.w3.org/2000/svg" xmlns:xlink="http://www.w3.org/1999/xlink">
<g id="graph0" class="graph" transform="scale(1 1) rotate(0) translate(4 181.5)">
<title>Slic3r::MachineObject::publish_gcode</title>
<!-- Node1 -->
<g id="Node000001" class="node">
<title>Node1</title>
<g id="a_Node000001"><a xlink:title=" ">
<polygon fill="#999999" stroke="#666666" points="112,-103.5 0,-103.5 0,-73 112,-73 112,-103.5"/>
<text text-anchor="start" x="8" y="-90" font-family="Helvetica,sans-Serif" font-size="10.00">Slic3r::MachineObject</text>
<text text-anchor="middle" x="56" y="-78.75" font-family="Helvetica,sans-Serif" font-size="10.00">::publish_gcode</text>
</a>
</g>
</g>
<!-- Node2 -->
<g id="Node000002" class="node">
<title>Node2</title>
<g id="a_Node000002"><a xlink:href="../../d9/dcc/classnlohmann_1_1basic__json.html#a476756fb08e7f2416aad116d137977f4" target="_top" xlink:title="serialization">
<polygon fill="white" stroke="#666666" points="259.25,-177.5 148.75,-177.5 148.75,-147 259.25,-147 259.25,-177.5"/>
<text text-anchor="start" x="156.75" y="-164" font-family="Helvetica,sans-Serif" font-size="10.00">nlohmann::basic_json</text>
<text text-anchor="middle" x="204" y="-152.75" font-family="Helvetica,sans-Serif" font-size="10.00">::dump</text>
</a>
</g>
</g>
<!-- Node1&#45;&gt;Node2 -->
<g id="edge1_Node000001_Node000002" class="edge">
<title>Node1&#45;&gt;Node2</title>
<g id="a_edge1_Node000001_Node000002"><a xlink:title=" ">
<path fill="none" stroke="#63b8ff" d="M85.03,-103.97C102.89,-113.84 126.62,-126.65 148,-137.25 151.15,-138.81 154.41,-140.39 157.71,-141.96"/>
<polygon fill="#63b8ff" stroke="#63b8ff" points="156.08,-145.53 166.63,-146.6 159.05,-139.19 156.08,-145.53"/>
</a>
</g>
</g>
<!-- Node3 -->
<g id="Node000003" class="node">
<title>Node3</title>
<g id="a_Node000003"><a xlink:href="../../d7/daf/class_slic3r_1_1_network_agent.html#adf872f1763a697f3f882854d3c5a1324" target="_top" xlink:title=" ">
<polygon fill="white" stroke="#666666" points="258.5,-128.5 149.5,-128.5 149.5,-98 258.5,-98 258.5,-128.5"/>
<text text-anchor="start" x="157.5" y="-115" font-family="Helvetica,sans-Serif" font-size="10.00">Slic3r::NetworkAgent</text>
<text text-anchor="middle" x="204" y="-103.75" font-family="Helvetica,sans-Serif" font-size="10.00">::get_user_id</text>
</a>
</g>
</g>
<!-- Node1&#45;&gt;Node3 -->
<g id="edge2_Node000001_Node000003" class="edge">
<title>Node1&#45;&gt;Node3</title>
<g id="a_edge2_Node000001_Node000003"><a xlink:title=" ">
<path fill="none" stroke="#63b8ff" d="M112.2,-97.7C120.81,-99.18 129.77,-100.71 138.57,-102.22"/>
<polygon fill="#63b8ff" stroke="#63b8ff" points="137.73,-105.8 148.18,-104.03 138.91,-98.9 137.73,-105.8"/>
</a>
</g>
</g>
<!-- Node4 -->
<g id="Node000004" class="node">
<title>Node4</title>
<g id="a_Node000004"><a xlink:href="../../dc/d24/class_slic3r_1_1_machine_object.html#ade0d002135681d1324249eda765ddac3" target="_top" xlink:title=" ">
<polygon fill="white" stroke="#666666" points="260,-79.5 148,-79.5 148,-49 260,-49 260,-79.5"/>
<text text-anchor="start" x="156" y="-66" font-family="Helvetica,sans-Serif" font-size="10.00">Slic3r::MachineObject</text>
<text text-anchor="middle" x="204" y="-54.75" font-family="Helvetica,sans-Serif" font-size="10.00">::publish_json</text>
</a>
</g>
</g>
<!-- Node1&#45;&gt;Node4 -->
<g id="edge3_Node000001_Node000004" class="edge">
<title>Node1&#45;&gt;Node4</title>
<g id="a_edge3_Node000001_Node000004"><a xlink:title=" ">
<path fill="none" stroke="#63b8ff" d="M112.2,-79.18C120.28,-77.85 128.68,-76.47 136.95,-75.11"/>
<polygon fill="#63b8ff" stroke="#63b8ff" points="137.43,-78.41 146.73,-73.34 136.29,-71.5 137.43,-78.41"/>
</a>
</g>
</g>
<!-- Node10 -->
<g id="Node000010" class="node">
<title>Node10</title>
<g id="a_Node000010"><a xlink:href="../../d7/daf/class_slic3r_1_1_network_agent.html#a91a2ef99b273ad7c180541158d965320" target="_top" xlink:title=" ">
<polygon fill="white" stroke="#666666" points="258.5,-30.5 149.5,-30.5 149.5,0 258.5,0 258.5,-30.5"/>
<text text-anchor="start" x="157.5" y="-17" font-family="Helvetica,sans-Serif" font-size="10.00">Slic3r::NetworkAgent</text>
<text text-anchor="middle" x="204" y="-5.75" font-family="Helvetica,sans-Serif" font-size="10.00">::track_event</text>
</a>
</g>
</g>
<!-- Node1&#45;&gt;Node10 -->
<g id="edge9_Node000001_Node000010" class="edge">
<title>Node1&#45;&gt;Node10</title>
<g id="a_edge9_Node000001_Node000010"><a xlink:title=" ">
<path fill="none" stroke="#63b8ff" d="M85.47,-72.68C103.3,-63.07 126.83,-50.63 148,-40.25 151.15,-38.7 154.43,-37.13 157.73,-35.57"/>
<polygon fill="#63b8ff" stroke="#63b8ff" points="159.06,-38.35 166.65,-30.95 156.1,-32 159.06,-38.35"/>
</a>
</g>
</g>
<!-- Node5 -->
<g id="Node000005" class="node">
<title>Node5</title>
<g id="a_Node000005"><a xlink:href="../../dc/d24/class_slic3r_1_1_machine_object.html#ae1afb548f6934d4fba8f6840c9bd485b" target="_top" xlink:title=" ">
<polygon fill="white" stroke="#666666" points="408,-128.5 296,-128.5 296,-98 408,-98 408,-128.5"/>
<text text-anchor="start" x="304" y="-115" font-family="Helvetica,sans-Serif" font-size="10.00">Slic3r::MachineObject</text>
<text text-anchor="middle" x="352" y="-103.75" font-family="Helvetica,sans-Serif" font-size="10.00">::cloud_publish_json</text>
</a>
</g>
</g>
<!-- Node4&#45;&gt;Node5 -->
<g id="edge4_Node000004_Node000005" class="edge">
<title>Node4&#45;&gt;Node5</title>
<g id="a_edge4_Node000004_Node000005"><a xlink:title=" ">
<path fill="none" stroke="#63b8ff" d="M251.6,-79.89C265.09,-84.42 279.98,-89.42 294.04,-94.13"/>
<polygon fill="#63b8ff" stroke="#63b8ff" points="292.5,-97.64 303.09,-97.51 294.73,-91.01 292.5,-97.64"/>
</a>
</g>
</g>
<!-- Node7 -->
<g id="Node000007" class="node">
<title>Node7</title>
<g id="a_Node000007"><a xlink:href="../../dc/d24/class_slic3r_1_1_machine_object.html#aba1eee500ff3251d244a2cbec8e93fae" target="_top" xlink:title=" ">
<polygon fill="white" stroke="#666666" points="408,-79.5 296,-79.5 296,-49 408,-49 408,-79.5"/>
<text text-anchor="start" x="304" y="-66" font-family="Helvetica,sans-Serif" font-size="10.00">Slic3r::MachineObject</text>
<text text-anchor="middle" x="352" y="-54.75" font-family="Helvetica,sans-Serif" font-size="10.00">::is_lan_mode_printer</text>
</a>
</g>
</g>
<!-- Node4&#45;&gt;Node7 -->
<g id="edge6_Node000004_Node000007" class="edge">
<title>Node4&#45;&gt;Node7</title>
<g id="a_edge6_Node000004_Node000007"><a xlink:title=" ">
<path fill="none" stroke="#63b8ff" d="M260.2,-64.25C268.28,-64.25 276.68,-64.25 284.95,-64.25"/>
<polygon fill="#63b8ff" stroke="#63b8ff" points="284.73,-67.75 294.73,-64.25 284.73,-60.75 284.73,-67.75"/>
</a>
</g>
</g>
<!-- Node8 -->
<g id="Node000008" class="node">
<title>Node8</title>
<g id="a_Node000008"><a xlink:href="../../dc/d24/class_slic3r_1_1_machine_object.html#a097b9f2ab8ef7b440a536f56bdafcdcb" target="_top" xlink:title=" ">
<polygon fill="white" stroke="#666666" points="408,-30.5 296,-30.5 296,0 408,0 408,-30.5"/>
<text text-anchor="start" x="304" y="-17" font-family="Helvetica,sans-Serif" font-size="10.00">Slic3r::MachineObject</text>
<text text-anchor="middle" x="352" y="-5.75" font-family="Helvetica,sans-Serif" font-size="10.00">::local_publish_json</text>
</a>
</g>
</g>
<!-- Node4&#45;&gt;Node8 -->
<g id="edge7_Node000004_Node000008" class="edge">
<title>Node4&#45;&gt;Node8</title>
<g id="a_edge7_Node000004_Node000008"><a xlink:title=" ">
<path fill="none" stroke="#63b8ff" d="M251.6,-48.61C265.09,-44.08 279.98,-39.08 294.04,-34.37"/>
<polygon fill="#63b8ff" stroke="#63b8ff" points="294.73,-37.49 303.09,-30.99 292.5,-30.86 294.73,-37.49"/>
</a>
</g>
</g>
<!-- Node6 -->
<g id="Node000006" class="node">
<title>Node6</title>
<g id="a_Node000006"><a xlink:href="../../d7/daf/class_slic3r_1_1_network_agent.html#a55a0161b96c9ea5d6f82dbd027fbf117" target="_top" xlink:title=" ">
<polygon fill="white" stroke="#666666" points="565.38,-128.5 456.38,-128.5 456.38,-98 565.38,-98 565.38,-128.5"/>
<text text-anchor="start" x="464.38" y="-115" font-family="Helvetica,sans-Serif" font-size="10.00">Slic3r::NetworkAgent</text>
<text text-anchor="middle" x="510.88" y="-103.75" font-family="Helvetica,sans-Serif" font-size="10.00">::send_message</text>
</a>
</g>
</g>
<!-- Node5&#45;&gt;Node6 -->
<g id="edge5_Node000005_Node000006" class="edge">
<title>Node5&#45;&gt;Node6</title>
<g id="a_edge5_Node000005_Node000006"><a xlink:title=" ">
<path fill="none" stroke="#63b8ff" d="M408.31,-113.25C420.32,-113.25 433.12,-113.25 445.44,-113.25"/>
<polygon fill="#63b8ff" stroke="#63b8ff" points="445.12,-116.75 455.12,-113.25 445.12,-109.75 445.12,-116.75"/>
</a>
</g>
</g>
<!-- Node9 -->
<g id="Node000009" class="node">
<title>Node9</title>
<g id="a_Node000009"><a xlink:href="../../d7/daf/class_slic3r_1_1_network_agent.html#aabd2d34e09722a876409e5ac43e2ff5c" target="_top" xlink:title=" ">
<polygon fill="white" stroke="#666666" points="577.75,-30.5 444,-30.5 444,0 577.75,0 577.75,-30.5"/>
<text text-anchor="start" x="452" y="-17" font-family="Helvetica,sans-Serif" font-size="10.00">Slic3r::NetworkAgent</text>
<text text-anchor="middle" x="510.88" y="-5.75" font-family="Helvetica,sans-Serif" font-size="10.00">::send_message_to_printer</text>
</a>
</g>
</g>
<!-- Node8&#45;&gt;Node9 -->
<g id="edge8_Node000008_Node000009" class="edge">
<title>Node8&#45;&gt;Node9</title>
<g id="a_edge8_Node000008_Node000009"><a xlink:title=" ">
<path fill="none" stroke="#63b8ff" d="M408.31,-15.25C416.22,-15.25 424.48,-15.25 432.72,-15.25"/>
<polygon fill="#63b8ff" stroke="#63b8ff" points="432.5,-18.75 442.5,-15.25 432.5,-11.75 432.5,-18.75"/>
</a>
</g>
</g>
</g>
</svg>
