<?xml version="1.0" encoding="UTF-8" standalone="no"?>
<!DOCTYPE svg PUBLIC "-//W3C//DTD SVG 1.1//EN"
 "http://www.w3.org/Graphics/SVG/1.1/DTD/svg11.dtd">
<!-- Generated by graphviz version 8.1.0 (20230707.0739)
 -->
<!-- Title: Slic3r::GUI::ParamsPanel::ParamsPanel Pages: 1 -->
<!--zoomable 663 -->

<svg id="main" version="1.1" xmlns="http://www.w3.org/2000/svg" xmlns:xlink="http://www.w3.org/1999/xlink" xml:space="preserve" onload="init(evt)">
<style type="text/css"><![CDATA[
.node, .edge {opacity: 0.7;}
.node.selected, .edge.selected {opacity: 1;}
.edge:hover path { stroke: red; }
.edge:hover polygon { stroke: red; fill: red; }
]]></style>

<defs>
  <circle id="rim" cx="0" cy="0" r="7"/>
  <circle id="rim2" cx="0" cy="0" r="3.5"/>
  <g id="zoomPlus">
    <use xlink:href="#rim" fill="#404040"><set attributeName="fill" to="#808080" begin="zoomplus.mouseover" end="zoomplus.mouseout"/></use>
    <path d="M-4,0h8M0,-4v8" fill="none" stroke="white" stroke-width="1.5" pointer-events="none"/>
  </g>
  <g id="zoomMin">
    <use xlink:href="#rim" fill="#404040"><set attributeName="fill" to="#808080" begin="zoomminus.mouseover" end="zoomminus.mouseout"/></use>
    <path d="M-4,0h8" fill="none" stroke="white" stroke-width="1.5" pointer-events="none"/>
  </g>
  <g id="arrowUp" transform="translate(30 24)">
    <use xlink:href="#rim"/>
    <path pointer-events="none" fill="none" stroke="white" stroke-width="1.5" d="M0,-3.0v7 M-2.5,-0.5L0,-3.0L2.5,-0.5"/>
  </g>
  <g id="arrowRight" transform="rotate(90) translate(36 -43)">
    <use xlink:href="#rim"/>
    <path pointer-events="none" fill="none" stroke="white" stroke-width="1.5" d="M0,-3.0v7 M-2.5,-0.5L0,-3.0L2.5,-0.5"/>
  </g>
  <g id="arrowDown" transform="rotate(180) translate(-30 -48)">
    <use xlink:href="#rim"/>
    <path pointer-events="none" fill="none" stroke="white" stroke-width="1.5" d="M0,-3.0v7 M-2.5,-0.5L0,-3.0L2.5,-0.5"/>
  </g>
  <g id="arrowLeft" transform="rotate(270) translate(-36 17)">
    <use xlink:href="#rim"/>
    <path pointer-events="none" fill="none" stroke="white" stroke-width="1.5" d="M0,-3.0v7 M-2.5,-0.5L0,-3.0L2.5,-0.5"/>
  </g>
  <g id="resetDef">
    <use xlink:href="#rim2" fill="#404040"><set attributeName="fill" to="#808080" begin="reset.mouseover" end="reset.mouseout"/></use>
  </g>
</defs>
<script type="application/ecmascript">
var viewWidth = 1184;
var viewHeight = 663;
var sectionId = 'dynsection-2';
</script>
<script type="application/ecmascript" xlink:href="../../svg.min.js"/>
<svg id="graph" class="graph">
<g id="viewport">
<title>Slic3r::GUI::ParamsPanel::ParamsPanel</title>
<!-- Node1 -->
<g id="Node000001" class="node">
<title>Node1</title>
<g id="a_Node000001"><a xlink:title=" ">
<polygon fill="#999999" stroke="#666666" points="129.25,-474.88 0,-474.88 0,-444.38 129.25,-444.38 129.25,-474.88"/>
<text text-anchor="start" x="8" y="-461.38" font-family="Helvetica,sans-Serif" font-size="10.00">Slic3r::GUI::ParamsPanel</text>
<text text-anchor="middle" x="64.62" y="-450.12" font-family="Helvetica,sans-Serif" font-size="10.00">::ParamsPanel</text>
</a>
</g>
</g>
<!-- Node2 -->
<g id="Node000002" class="node">
<title>Node2</title>
<g id="a_Node000002"><a xlink:href="../../d8/dd6/struct_slic3r_1_1_g_u_i_1_1_params_panel_1_1_highlighter.html#a843e36f9b7d8f67687768c2d34a6fc77" target="_top" xlink:title=" ">
<polygon fill="white" stroke="#666666" points="303.12,-634.88 173.88,-634.88 173.88,-604.38 303.12,-604.38 303.12,-634.88"/>
<text text-anchor="start" x="181.88" y="-621.38" font-family="Helvetica,sans-Serif" font-size="10.00">Slic3r::GUI::ParamsPanel</text>
<text text-anchor="middle" x="238.5" y="-610.12" font-family="Helvetica,sans-Serif" font-size="10.00">::Highlighter::blink</text>
</a>
</g>
</g>
<!-- Node1&#45;&gt;Node2 -->
<g id="edge1_Node000001_Node000002" class="edge">
<title>Node1&#45;&gt;Node2</title>
<g id="a_edge1_Node000001_Node000002"><a xlink:title=" ">
<path fill="none" stroke="#63b8ff" d="M72.89,-475.11C86.85,-503.2 120.07,-562.71 165.25,-595.62 166.76,-596.72 168.31,-597.77 169.92,-598.77"/>
<polygon fill="#63b8ff" stroke="#63b8ff" points="168.03,-602.28 178.48,-604.03 171.4,-596.15 168.03,-602.28"/>
</a>
</g>
</g>
<!-- Node3 -->
<g id="Node000003" class="node">
<title>Node3</title>
<g id="a_Node000003"><a xlink:href="../../de/db8/namespace_slic3r.html#aed0434d42d75979bb4d469ff41de7158" target="_top" xlink:title=" ">
<polygon fill="white" stroke="#666666" points="268.62,-586.25 208.38,-586.25 208.38,-567 268.62,-567 268.62,-586.25"/>
<text text-anchor="middle" x="238.5" y="-572.75" font-family="Helvetica,sans-Serif" font-size="10.00">Slic3r::diff</text>
</a>
</g>
</g>
<!-- Node1&#45;&gt;Node3 -->
<g id="edge2_Node000001_Node000003" class="edge">
<title>Node1&#45;&gt;Node3</title>
<g id="a_edge2_Node000001_Node000003"><a xlink:title=" ">
<path fill="none" stroke="#63b8ff" d="M77,-475.06C93.83,-496.8 127.5,-536.15 165.25,-557.62 175.06,-563.2 186.54,-567.19 197.44,-570.01"/>
<polygon fill="#63b8ff" stroke="#63b8ff" points="196.51,-573.62 207.04,-572.47 198.09,-566.8 196.51,-573.62"/>
</a>
</g>
</g>
<!-- Node6 -->
<g id="Node000006" class="node">
<title>Node6</title>
<g id="a_Node000006"><a xlink:href="../../d7/d58/wx_extensions_8cpp.html#a1ee9ba171a3fbe7352176a4315fee795" target="_top" xlink:title=" ">
<polygon fill="white" stroke="#666666" points="974.25,-315.25 923.75,-315.25 923.75,-296 974.25,-296 974.25,-315.25"/>
<text text-anchor="middle" x="949" y="-301.75" font-family="Helvetica,sans-Serif" font-size="10.00">em_unit</text>
</a>
</g>
</g>
<!-- Node1&#45;&gt;Node6 -->
<g id="edge5_Node000001_Node000006" class="edge">
<title>Node1&#45;&gt;Node6</title>
<g id="a_edge5_Node000001_Node000006"><a xlink:title=" ">
<path fill="none" stroke="#63b8ff" d="M76.02,-444.16C92.12,-421.66 125.44,-380.62 165.25,-362.62 265.22,-317.43 301.66,-343.62 411.38,-343.62 411.38,-343.62 411.38,-343.62 594.38,-343.62 711.75,-343.62 849.79,-322.67 913.09,-311.89"/>
<polygon fill="#63b8ff" stroke="#63b8ff" points="913.4,-315.21 922.66,-310.06 912.21,-308.31 913.4,-315.21"/>
</a>
</g>
</g>
<!-- Node9 -->
<g id="Node000009" class="node">
<title>Node9</title>
<g id="a_Node000009"><a xlink:href="../../d4/d69/class_slic3r_1_1_g_u_i_1_1_params_panel.html#ab43d283b713e1ad796e73e921104ab27" target="_top" xlink:title=" ">
<polygon fill="white" stroke="#666666" points="303.12,-548.88 173.88,-548.88 173.88,-518.38 303.12,-518.38 303.12,-548.88"/>
<text text-anchor="start" x="181.88" y="-535.38" font-family="Helvetica,sans-Serif" font-size="10.00">Slic3r::GUI::ParamsPanel</text>
<text text-anchor="middle" x="238.5" y="-524.12" font-family="Helvetica,sans-Serif" font-size="10.00">::OnToggled</text>
</a>
</g>
</g>
<!-- Node1&#45;&gt;Node9 -->
<g id="edge8_Node000001_Node000009" class="edge">
<title>Node1&#45;&gt;Node9</title>
<g id="a_edge8_Node000001_Node000009"><a xlink:title=" ">
<path fill="none" stroke="#63b8ff" d="M94.83,-475.18C114.45,-485.34 141.06,-498.53 165.25,-508.62 169.71,-510.49 174.37,-512.32 179.07,-514.11"/>
<polygon fill="#63b8ff" stroke="#63b8ff" points="177.79,-517.73 188.38,-517.91 180.21,-511.17 177.79,-517.73"/>
</a>
</g>
</g>
<!-- Node21 -->
<g id="Node000021" class="node">
<title>Node21</title>
<g id="a_Node000021"><a xlink:href="../../d8/dd6/struct_slic3r_1_1_g_u_i_1_1_params_panel_1_1_highlighter.html#a0466e887ac6259596badf24c5bdab952" target="_top" xlink:title=" ">
<polygon fill="white" stroke="#666666" points="311.75,-450.88 165.25,-450.88 165.25,-420.38 311.75,-420.38 311.75,-450.88"/>
<text text-anchor="start" x="173.25" y="-437.38" font-family="Helvetica,sans-Serif" font-size="10.00">Slic3r::GUI::ParamsPanel</text>
<text text-anchor="middle" x="238.5" y="-426.12" font-family="Helvetica,sans-Serif" font-size="10.00">::Highlighter::set_timer_owner</text>
</a>
</g>
</g>
<!-- Node1&#45;&gt;Node21 -->
<g id="edge20_Node000001_Node000021" class="edge">
<title>Node1&#45;&gt;Node21</title>
<g id="a_edge20_Node000001_Node000021"><a xlink:title=" ">
<path fill="none" stroke="#63b8ff" d="M129.62,-450.69C137.59,-449.58 145.82,-448.43 154.02,-447.28"/>
<polygon fill="#63b8ff" stroke="#63b8ff" points="154.35,-450.63 163.77,-445.78 153.38,-443.7 154.35,-450.63"/>
</a>
</g>
</g>
<!-- Node22 -->
<g id="Node000022" class="node">
<title>Node22</title>
<g id="a_Node000022"><a xlink:href="../../d2/dc2/class_static_box.html#ac08439f8af69085956a726372007da85" target="_top" xlink:title=" ">
<polygon fill="white" stroke="#666666" points="304.25,-499.88 172.75,-499.88 172.75,-469.38 304.25,-469.38 304.25,-499.88"/>
<text text-anchor="start" x="180.75" y="-486.38" font-family="Helvetica,sans-Serif" font-size="10.00">StaticBox::SetBackground</text>
<text text-anchor="middle" x="238.5" y="-475.12" font-family="Helvetica,sans-Serif" font-size="10.00">Color</text>
</a>
</g>
</g>
<!-- Node1&#45;&gt;Node22 -->
<g id="edge21_Node000001_Node000022" class="edge">
<title>Node1&#45;&gt;Node22</title>
<g id="a_edge21_Node000001_Node000022"><a xlink:title=" ">
<path fill="none" stroke="#63b8ff" d="M129.62,-468.93C140.08,-470.45 150.99,-472.04 161.69,-473.6"/>
<polygon fill="#63b8ff" stroke="#63b8ff" points="160.9,-477.17 171.3,-475.14 161.91,-470.24 160.9,-477.17"/>
</a>
</g>
</g>
<!-- Node26 -->
<g id="Node000026" class="node">
<title>Node26</title>
<g id="a_Node000026"><a xlink:href="../../d2/dc2/class_static_box.html#a1f92eb7067bd01146517494f0505cf02" target="_top" xlink:title=" ">
<polygon fill="white" stroke="#666666" points="304.25,-401.88 172.75,-401.88 172.75,-371.38 304.25,-371.38 304.25,-401.88"/>
<text text-anchor="start" x="180.75" y="-388.38" font-family="Helvetica,sans-Serif" font-size="10.00">StaticBox::SetBackground</text>
<text text-anchor="middle" x="238.5" y="-377.12" font-family="Helvetica,sans-Serif" font-size="10.00">Color2</text>
</a>
</g>
</g>
<!-- Node1&#45;&gt;Node26 -->
<g id="edge26_Node000001_Node000026" class="edge">
<title>Node1&#45;&gt;Node26</title>
<g id="a_edge26_Node000001_Node000026"><a xlink:title=" ">
<path fill="none" stroke="#63b8ff" d="M95.73,-443.99C115.28,-434.12 141.47,-421.43 165.25,-411.62 169.91,-409.7 174.78,-407.8 179.7,-405.95"/>
<polygon fill="#63b8ff" stroke="#63b8ff" points="180.61,-408.98 188.79,-402.25 178.2,-402.41 180.61,-408.98"/>
</a>
</g>
</g>
<!-- Node27 -->
<g id="Node000027" class="node">
<title>Node27</title>
<g id="a_Node000027"><a xlink:href="../../d2/d35/class_switch_button.html#a7662148e161326f49d377dbf1b58dff9" target="_top" xlink:title=" ">
<polygon fill="white" stroke="#666666" points="300.5,-259.25 176.5,-259.25 176.5,-240 300.5,-240 300.5,-259.25"/>
<text text-anchor="middle" x="238.5" y="-245.75" font-family="Helvetica,sans-Serif" font-size="10.00">SwitchButton::SetLabels</text>
</a>
</g>
</g>
<!-- Node1&#45;&gt;Node27 -->
<g id="edge28_Node000001_Node000027" class="edge">
<title>Node1&#45;&gt;Node27</title>
<g id="a_edge28_Node000001_Node000027"><a xlink:title=" ">
<path fill="none" stroke="#63b8ff" d="M76.89,-444.1C94.95,-419.4 131.78,-369.84 165.25,-329.62 183.43,-307.78 205.47,-283.7 220.39,-267.72"/>
<polygon fill="#63b8ff" stroke="#63b8ff" points="222.58,-270.43 226.88,-260.75 217.48,-265.64 222.58,-270.43"/>
</a>
</g>
</g>
<!-- Node4 -->
<g id="Node000004" class="node">
<title>Node4</title>
<g id="a_Node000004"><a xlink:href="../../de/db8/namespace_slic3r.html#a440bb1d57671f454ad4fab4f192430cf" target="_top" xlink:title=" ">
<polygon fill="white" stroke="#666666" points="452.62,-620.25 372.12,-620.25 372.12,-601 452.62,-601 452.62,-620.25"/>
<text text-anchor="middle" x="412.38" y="-606.75" font-family="Helvetica,sans-Serif" font-size="10.00">Slic3r::_clipper</text>
</a>
</g>
</g>
<!-- Node3&#45;&gt;Node4 -->
<g id="edge3_Node000003_Node000004" class="edge">
<title>Node3&#45;&gt;Node4</title>
<g id="a_edge3_Node000003_Node000004"><a xlink:title=" ">
<path fill="none" stroke="#63b8ff" d="M269.05,-582.47C294.35,-587.48 331.33,-594.79 361.25,-600.71"/>
<polygon fill="#63b8ff" stroke="#63b8ff" points="360.43,-604.31 370.92,-602.82 361.79,-597.45 360.43,-604.31"/>
</a>
</g>
</g>
<!-- Node5 -->
<g id="Node000005" class="node">
<title>Node5</title>
<g id="a_Node000005"><a xlink:href="../../de/db8/namespace_slic3r.html#a843ba2fe16b213f550fb3d55c55a716e" target="_top" xlink:title=" ">
<polygon fill="white" stroke="#666666" points="643,-655.25 543.75,-655.25 543.75,-636 643,-636 643,-655.25"/>
<text text-anchor="middle" x="593.38" y="-641.75" font-family="Helvetica,sans-Serif" font-size="10.00">Slic3r::to_polygons</text>
</a>
</g>
</g>
<!-- Node4&#45;&gt;Node5 -->
<g id="edge4_Node000004_Node000005" class="edge">
<title>Node4&#45;&gt;Node5</title>
<g id="a_edge4_Node000004_Node000005"><a xlink:title=" ">
<path fill="none" stroke="#63b8ff" d="M453.1,-618.39C476.55,-622.98 506.68,-628.87 532.91,-634"/>
<polygon fill="#63b8ff" stroke="#63b8ff" points="532.02,-637.58 542.5,-636.07 533.36,-630.72 532.02,-637.58"/>
</a>
</g>
</g>
<!-- Node7 -->
<g id="Node000007" class="node">
<title>Node7</title>
<g id="a_Node000007"><a xlink:href="../../d7/d9a/class_slic3r_1_1_g_u_i_1_1_d_p_i_aware.html#a10bf715638840dfd1312a054e64f8571" target="_top" xlink:title=" ">
<polygon fill="white" stroke="#666666" points="1171.38,-344.88 1055.62,-344.88 1055.62,-314.38 1171.38,-314.38 1171.38,-344.88"/>
<text text-anchor="start" x="1063.62" y="-331.38" font-family="Helvetica,sans-Serif" font-size="10.00">Slic3r::GUI::DPIAware</text>
<text text-anchor="middle" x="1113.5" y="-320.12" font-family="Helvetica,sans-Serif" font-size="10.00">::em_unit</text>
</a>
</g>
</g>
<!-- Node6&#45;&gt;Node7 -->
<g id="edge6_Node000006_Node000007" class="edge">
<title>Node6&#45;&gt;Node7</title>
<g id="a_edge6_Node000006_Node000007"><a xlink:title=" ">
<path fill="none" stroke="#63b8ff" d="M974.68,-309.27C993.24,-312.01 1019.62,-315.91 1044.35,-319.56"/>
<polygon fill="#63b8ff" stroke="#63b8ff" points="1043.78,-323.16 1054.18,-321.16 1044.8,-316.24 1043.78,-323.16"/>
</a>
</g>
</g>
<!-- Node8 -->
<g id="Node000008" class="node">
<title>Node8</title>
<g id="a_Node000008"><a xlink:href="../../d9/d45/namespace_slic3r_1_1_g_u_i.html#a160756cff7bc7f94456fb6b61614f579" target="_top" xlink:title=" ">
<polygon fill="white" stroke="#666666" points="1176.25,-295.88 1050.75,-295.88 1050.75,-265.38 1176.25,-265.38 1176.25,-295.88"/>
<text text-anchor="start" x="1058.75" y="-282.38" font-family="Helvetica,sans-Serif" font-size="10.00">Slic3r::GUI::find_toplevel</text>
<text text-anchor="middle" x="1113.5" y="-271.12" font-family="Helvetica,sans-Serif" font-size="10.00">_parent</text>
</a>
</g>
</g>
<!-- Node6&#45;&gt;Node8 -->
<g id="edge7_Node000006_Node000008" class="edge">
<title>Node6&#45;&gt;Node8</title>
<g id="a_edge7_Node000006_Node000008"><a xlink:title=" ">
<path fill="none" stroke="#63b8ff" d="M974.68,-301.83C992.08,-299.15 1016.35,-295.42 1039.69,-291.83"/>
<polygon fill="#63b8ff" stroke="#63b8ff" points="1039.96,-295.17 1049.32,-290.19 1038.9,-288.25 1039.96,-295.17"/>
</a>
</g>
</g>
<!-- Node10 -->
<g id="Node000010" class="node">
<title>Node10</title>
<g id="a_Node000010"><a xlink:href="../../d4/d69/class_slic3r_1_1_g_u_i_1_1_params_panel.html#ada1bce52ac49863ae7982ccc9d137add" target="_top" xlink:title=" ">
<polygon fill="white" stroke="#666666" points="477,-548.88 347.75,-548.88 347.75,-518.38 477,-518.38 477,-548.88"/>
<text text-anchor="start" x="355.75" y="-535.38" font-family="Helvetica,sans-Serif" font-size="10.00">Slic3r::GUI::ParamsPanel</text>
<text text-anchor="middle" x="412.38" y="-524.12" font-family="Helvetica,sans-Serif" font-size="10.00">::set_active_tab</text>
</a>
</g>
</g>
<!-- Node9&#45;&gt;Node10 -->
<g id="edge9_Node000009_Node000010" class="edge">
<title>Node9&#45;&gt;Node10</title>
<g id="a_edge9_Node000009_Node000010"><a xlink:title=" ">
<path fill="none" stroke="#63b8ff" d="M303.5,-533.62C314.24,-533.62 325.46,-533.62 336.45,-533.62"/>
<polygon fill="#63b8ff" stroke="#63b8ff" points="336.32,-537.13 346.32,-533.62 336.32,-530.13 336.32,-537.13"/>
</a>
</g>
</g>
<!-- Node11 -->
<g id="Node000011" class="node">
<title>Node11</title>
<g id="a_Node000011"><a xlink:href="../../d2/df9/class_slic3r_1_1_g_u_i_1_1_tab.html#a43aacae72a8f5aed21ea0eb8cedbfa5b" target="_top" xlink:title=" ">
<polygon fill="white" stroke="#666666" points="654.62,-617.88 532.12,-617.88 532.12,-587.38 654.62,-587.38 654.62,-617.88"/>
<text text-anchor="start" x="540.12" y="-604.38" font-family="Helvetica,sans-Serif" font-size="10.00">Slic3r::GUI::Tab::restore</text>
<text text-anchor="middle" x="593.38" y="-593.12" font-family="Helvetica,sans-Serif" font-size="10.00">_last_select_item</text>
</a>
</g>
</g>
<!-- Node10&#45;&gt;Node11 -->
<g id="edge10_Node000010_Node000011" class="edge">
<title>Node10&#45;&gt;Node11</title>
<g id="a_edge10_Node000010_Node000011"><a xlink:title=" ">
<path fill="none" stroke="#63b8ff" d="M446.2,-549.22C465.45,-558.09 490.35,-569.09 513,-577.62 518.32,-579.63 523.89,-581.61 529.49,-583.53"/>
<polygon fill="#63b8ff" stroke="#63b8ff" points="527.98,-587.05 538.58,-586.9 530.2,-580.41 527.98,-587.05"/>
</a>
</g>
</g>
<!-- Node16 -->
<g id="Node000016" class="node">
<title>Node16</title>
<g id="a_Node000016"><a xlink:href="../../d2/df9/class_slic3r_1_1_g_u_i_1_1_tab.html#a1bdf79c268c9ff1400c74be440925196" target="_top" xlink:title=" ">
<polygon fill="white" stroke="#666666" points="662.88,-520.25 523.88,-520.25 523.88,-501 662.88,-501 662.88,-520.25"/>
<text text-anchor="middle" x="593.38" y="-506.75" font-family="Helvetica,sans-Serif" font-size="10.00">Slic3r::GUI::Tab::toggle_line</text>
</a>
</g>
</g>
<!-- Node10&#45;&gt;Node16 -->
<g id="edge15_Node000010_Node000016" class="edge">
<title>Node10&#45;&gt;Node16</title>
<g id="a_edge15_Node000010_Node000016"><a xlink:title=" ">
<path fill="none" stroke="#63b8ff" d="M477.49,-525.39C488.94,-523.92 500.98,-522.37 512.8,-520.85"/>
<polygon fill="#63b8ff" stroke="#63b8ff" points="513.09,-524.21 522.56,-519.47 512.19,-517.27 513.09,-524.21"/>
</a>
</g>
</g>
<!-- Node17 -->
<g id="Node000017" class="node">
<title>Node17</title>
<g id="a_Node000017"><a xlink:href="../../d2/df9/class_slic3r_1_1_g_u_i_1_1_tab.html#a67bbfb775af16a7cbe740083b5571e14" target="_top" xlink:title=" ">
<polygon fill="white" stroke="#666666" points="649,-483.25 537.75,-483.25 537.75,-464 649,-464 649,-483.25"/>
<text text-anchor="middle" x="593.38" y="-469.75" font-family="Helvetica,sans-Serif" font-size="10.00">Slic3r::GUI::Tab::type</text>
</a>
</g>
</g>
<!-- Node10&#45;&gt;Node17 -->
<g id="edge16_Node000010_Node000017" class="edge">
<title>Node10&#45;&gt;Node17</title>
<g id="a_edge16_Node000010_Node000017"><a xlink:title=" ">
<path fill="none" stroke="#63b8ff" d="M446.48,-517.94C465.61,-509.31 490.31,-498.92 513,-491.62 518.86,-489.74 525.02,-487.98 531.22,-486.35"/>
<polygon fill="#63b8ff" stroke="#63b8ff" points="531.78,-489.56 540.63,-483.73 530.07,-482.78 531.78,-489.56"/>
</a>
</g>
</g>
<!-- Node18 -->
<g id="Node000018" class="node">
<title>Node18</title>
<g id="a_Node000018"><a xlink:href="../../d4/d69/class_slic3r_1_1_g_u_i_1_1_params_panel.html#a224861b46db2268c9680294a341a7fcb" target="_top" xlink:title=" ">
<polygon fill="white" stroke="#666666" points="658,-568.88 528.75,-568.88 528.75,-538.38 658,-538.38 658,-568.88"/>
<text text-anchor="start" x="536.75" y="-555.38" font-family="Helvetica,sans-Serif" font-size="10.00">Slic3r::GUI::ParamsPanel</text>
<text text-anchor="middle" x="593.38" y="-544.12" font-family="Helvetica,sans-Serif" font-size="10.00">::update_mode</text>
</a>
</g>
</g>
<!-- Node10&#45;&gt;Node18 -->
<g id="edge17_Node000010_Node000018" class="edge">
<title>Node10&#45;&gt;Node18</title>
<g id="a_edge17_Node000010_Node000018"><a xlink:title=" ">
<path fill="none" stroke="#63b8ff" d="M477.49,-540.79C490.55,-542.25 504.4,-543.8 517.79,-545.29"/>
<polygon fill="#63b8ff" stroke="#63b8ff" points="517.08,-548.85 527.4,-546.48 517.85,-541.89 517.08,-548.85"/>
</a>
</g>
</g>
<!-- Node12 -->
<g id="Node000012" class="node">
<title>Node12</title>
<g id="a_Node000012"><a xlink:href="../../dd/d9d/class_tab_ctrl.html#a65ec7c17eec5b7a1e5115bb77e675b78" target="_top" xlink:title=" ">
<polygon fill="white" stroke="#666666" points="847.25,-593.25 709.75,-593.25 709.75,-574 847.25,-574 847.25,-593.25"/>
<text text-anchor="middle" x="778.5" y="-579.75" font-family="Helvetica,sans-Serif" font-size="10.00">TabCtrl::GetFirstVisibleItem</text>
</a>
</g>
</g>
<!-- Node11&#45;&gt;Node12 -->
<g id="edge11_Node000011_Node000012" class="edge">
<title>Node11&#45;&gt;Node12</title>
<g id="a_edge11_Node000011_Node000012"><a xlink:title=" ">
<path fill="none" stroke="#63b8ff" d="M655.1,-596.32C669.09,-594.87 684.17,-593.31 698.8,-591.79"/>
<polygon fill="#63b8ff" stroke="#63b8ff" points="698.77,-595.21 708.35,-590.7 698.05,-588.25 698.77,-595.21"/>
</a>
</g>
</g>
<!-- Node13 -->
<g id="Node000013" class="node">
<title>Node13</title>
<g id="a_Node000013"><a xlink:href="../../dd/d9d/class_tab_ctrl.html#a917186e9f220d73986f116710502efc5" target="_top" xlink:title=" ">
<polygon fill="white" stroke="#666666" points="828.88,-630.25 728.12,-630.25 728.12,-611 828.88,-611 828.88,-630.25"/>
<text text-anchor="middle" x="778.5" y="-616.75" font-family="Helvetica,sans-Serif" font-size="10.00">TabCtrl::SelectItem</text>
</a>
</g>
</g>
<!-- Node11&#45;&gt;Node13 -->
<g id="edge12_Node000011_Node000013" class="edge">
<title>Node11&#45;&gt;Node13</title>
<g id="a_edge12_Node000011_Node000013"><a xlink:title=" ">
<path fill="none" stroke="#63b8ff" d="M655.1,-608.59C675.04,-610.55 697.19,-612.73 717.11,-614.69"/>
<polygon fill="#63b8ff" stroke="#63b8ff" points="716.62,-618.26 726.91,-615.75 717.3,-611.29 716.62,-618.26"/>
</a>
</g>
</g>
<!-- Node14 -->
<g id="Node000014" class="node">
<title>Node14</title>
<g id="a_Node000014"><a xlink:href="../../dd/d9d/class_tab_ctrl.html#af563caf3cf4f0db25ae8878819989e98" target="_top" xlink:title=" ">
<polygon fill="white" stroke="#666666" points="993,-611.25 905,-611.25 905,-592 993,-592 993,-611.25"/>
<text text-anchor="middle" x="949" y="-597.75" font-family="Helvetica,sans-Serif" font-size="10.00">TabCtrl::relayout</text>
</a>
</g>
</g>
<!-- Node13&#45;&gt;Node14 -->
<g id="edge13_Node000013_Node000014" class="edge">
<title>Node13&#45;&gt;Node14</title>
<g id="a_edge13_Node000013_Node000014"><a xlink:title=" ">
<path fill="none" stroke="#63b8ff" d="M829.14,-615.03C849.47,-612.74 873.05,-610.08 893.82,-607.73"/>
<polygon fill="#63b8ff" stroke="#63b8ff" points="894.16,-611.1 903.71,-606.51 893.38,-604.15 894.16,-611.1"/>
</a>
</g>
</g>
<!-- Node15 -->
<g id="Node000015" class="node">
<title>Node15</title>
<g id="a_Node000015"><a xlink:href="../../dd/d9d/class_tab_ctrl.html#a87d9797f5e93ad7204b70e1cf8b17263" target="_top" xlink:title=" ">
<polygon fill="white" stroke="#666666" points="1014.75,-648.25 883.25,-648.25 883.25,-629 1014.75,-629 1014.75,-648.25"/>
<text text-anchor="middle" x="949" y="-634.75" font-family="Helvetica,sans-Serif" font-size="10.00">TabCtrl::sendTabCtrlEvent</text>
</a>
</g>
</g>
<!-- Node13&#45;&gt;Node15 -->
<g id="edge14_Node000013_Node000015" class="edge">
<title>Node13&#45;&gt;Node15</title>
<g id="a_edge14_Node000013_Node000015"><a xlink:title=" ">
<path fill="none" stroke="#63b8ff" d="M829.14,-625.93C842.66,-627.37 857.61,-628.97 872.22,-630.53"/>
<polygon fill="#63b8ff" stroke="#63b8ff" points="871.46,-634.07 881.77,-631.66 872.2,-627.11 871.46,-634.07"/>
</a>
</g>
</g>
<!-- Node19 -->
<g id="Node000019" class="node">
<title>Node19</title>
<g id="a_Node000019"><a xlink:href="../../d2/d35/class_switch_button.html#a55f08f122aaad6e9d0a5ba981a75c8df" target="_top" xlink:title=" ">
<polygon fill="white" stroke="#666666" points="838.25,-510.25 718.75,-510.25 718.75,-491 838.25,-491 838.25,-510.25"/>
<text text-anchor="middle" x="778.5" y="-496.75" font-family="Helvetica,sans-Serif" font-size="10.00">SwitchButton::SetValue</text>
</a>
</g>
</g>
<!-- Node18&#45;&gt;Node19 -->
<g id="edge18_Node000018_Node000019" class="edge">
<title>Node18&#45;&gt;Node19</title>
<g id="a_edge18_Node000018_Node000019"><a xlink:title=" ">
<path fill="none" stroke="#63b8ff" d="M648.33,-538.01C675.01,-530.29 706.84,-521.07 732.23,-513.73"/>
<polygon fill="#63b8ff" stroke="#63b8ff" points="733.05,-516.84 741.69,-510.7 731.11,-510.12 733.05,-516.84"/>
</a>
</g>
</g>
<!-- Node20 -->
<g id="Node000020" class="node">
<title>Node20</title>
<g id="a_Node000020"><a xlink:href="../../d2/d35/class_switch_button.html#a0af9d8da0b011a0950e6468e30dce412" target="_top" xlink:title=" ">
<polygon fill="white" stroke="#666666" points="1003.88,-481.25 894.12,-481.25 894.12,-462 1003.88,-462 1003.88,-481.25"/>
<text text-anchor="middle" x="949" y="-467.75" font-family="Helvetica,sans-Serif" font-size="10.00">SwitchButton::update</text>
</a>
</g>
</g>
<!-- Node19&#45;&gt;Node20 -->
<g id="edge19_Node000019_Node000020" class="edge">
<title>Node19&#45;&gt;Node20</title>
<g id="a_edge19_Node000019_Node000020"><a xlink:title=" ">
<path fill="none" stroke="#63b8ff" d="M837.96,-490.56C852.57,-488.05 868.32,-485.34 883.22,-482.77"/>
<polygon fill="#63b8ff" stroke="#63b8ff" points="883.62,-486.08 892.88,-480.94 882.44,-479.19 883.62,-486.08"/>
</a>
</g>
</g>
<!-- Node23 -->
<g id="Node000023" class="node">
<title>Node23</title>
<g id="a_Node000023"><a xlink:href="../../d1/d5e/class_state_handler.html#ace762c799b3654ff262ad754cfa9b90d" target="_top" xlink:title=" ">
<polygon fill="white" stroke="#666666" points="466.5,-417.88 358.25,-417.88 358.25,-387.38 466.5,-387.38 466.5,-417.88"/>
<text text-anchor="start" x="366.25" y="-404.38" font-family="Helvetica,sans-Serif" font-size="10.00">StateHandler::update</text>
<text text-anchor="middle" x="412.38" y="-393.12" font-family="Helvetica,sans-Serif" font-size="10.00">_binds</text>
</a>
</g>
</g>
<!-- Node22&#45;&gt;Node23 -->
<g id="edge22_Node000022_Node000023" class="edge">
<title>Node22&#45;&gt;Node23</title>
<g id="a_edge22_Node000022_Node000023"><a xlink:title=" ">
<path fill="none" stroke="#63b8ff" d="M288.95,-468.89C296.68,-466.04 304.5,-462.92 311.75,-459.62 334.46,-449.31 358.78,-435.45 377.71,-423.98"/>
<polygon fill="#63b8ff" stroke="#63b8ff" points="379.38,-426.45 386.08,-418.24 375.72,-420.48 379.38,-426.45"/>
</a>
</g>
</g>
<!-- Node24 -->
<g id="Node000024" class="node">
<title>Node24</title>
<g id="a_Node000024"><a xlink:href="../../d1/d5e/class_state_handler.html#ade316c3b76838ce7e71350a31d47d546" target="_top" xlink:title=" ">
<polygon fill="white" stroke="#666666" points="651.25,-428.25 535.5,-428.25 535.5,-409 651.25,-409 651.25,-428.25"/>
<text text-anchor="middle" x="593.38" y="-414.75" font-family="Helvetica,sans-Serif" font-size="10.00">StateHandler::changed</text>
</a>
</g>
</g>
<!-- Node23&#45;&gt;Node24 -->
<g id="edge23_Node000023_Node000024" class="edge">
<title>Node23&#45;&gt;Node24</title>
<g id="a_edge23_Node000023_Node000024"><a xlink:title=" ">
<path fill="none" stroke="#63b8ff" d="M466.6,-407.38C484.77,-409.01 505.35,-410.85 524.52,-412.56"/>
<polygon fill="#63b8ff" stroke="#63b8ff" points="524.03,-416.12 534.31,-413.52 524.66,-409.15 524.03,-416.12"/>
</a>
</g>
</g>
<!-- Node25 -->
<g id="Node000025" class="node">
<title>Node25</title>
<g id="a_Node000025"><a xlink:href="../../d1/d5e/class_state_handler.html#a1506267f584834db7fd9ffac89437c00" target="_top" xlink:title=" ">
<polygon fill="white" stroke="#666666" points="646.38,-391.25 540.38,-391.25 540.38,-372 646.38,-372 646.38,-391.25"/>
<text text-anchor="middle" x="593.38" y="-377.75" font-family="Helvetica,sans-Serif" font-size="10.00">StateHandler::states</text>
</a>
</g>
</g>
<!-- Node23&#45;&gt;Node25 -->
<g id="edge25_Node000023_Node000025" class="edge">
<title>Node23&#45;&gt;Node25</title>
<g id="a_edge25_Node000023_Node000025"><a xlink:title=" ">
<path fill="none" stroke="#63b8ff" d="M466.6,-396.38C486.25,-394.08 508.72,-391.44 529.17,-389.04"/>
<polygon fill="#63b8ff" stroke="#63b8ff" points="529.45,-392.41 538.98,-387.77 528.64,-385.46 529.45,-392.41"/>
</a>
</g>
</g>
<!-- Node24&#45;&gt;Node24 -->
<g id="edge24_Node000024_Node000024" class="edge">
<title>Node24&#45;&gt;Node24</title>
<g id="a_edge24_Node000024_Node000024"><a xlink:title=" ">
<path fill="none" stroke="#63b8ff" d="M565.04,-428.54C552.11,-437.15 561.56,-446.25 593.38,-446.25 612.76,-446.25 623.84,-442.87 626.62,-438.28"/>
<polygon fill="#63b8ff" stroke="#63b8ff" points="629.34,-436.89 621.71,-429.54 623.08,-440.04 629.34,-436.89"/>
</a>
</g>
</g>
<!-- Node26&#45;&gt;Node23 -->
<g id="edge27_Node000026_Node000023" class="edge">
<title>Node26&#45;&gt;Node23</title>
<g id="a_edge27_Node000026_Node000023"><a xlink:title=" ">
<path fill="none" stroke="#63b8ff" d="M304.48,-392.67C318.36,-393.97 333.01,-395.33 346.87,-396.62"/>
<polygon fill="#63b8ff" stroke="#63b8ff" points="346.5,-400.19 356.78,-397.64 347.15,-393.22 346.5,-400.19"/>
</a>
</g>
</g>
<!-- Node28 -->
<g id="Node000028" class="node">
<title>Node28</title>
<g id="a_Node000028"><a xlink:href="../../d2/d35/class_switch_button.html#af19a946752f9224fe30cffdda94e8729" target="_top" xlink:title=" ">
<polygon fill="white" stroke="#666666" points="470.62,-203.25 354.12,-203.25 354.12,-184 470.62,-184 470.62,-203.25"/>
<text text-anchor="middle" x="412.38" y="-189.75" font-family="Helvetica,sans-Serif" font-size="10.00">SwitchButton::Rescale</text>
</a>
</g>
</g>
<!-- Node27&#45;&gt;Node28 -->
<g id="edge29_Node000027_Node000028" class="edge">
<title>Node27&#45;&gt;Node28</title>
<g id="a_edge29_Node000027_Node000028"><a xlink:title=" ">
<path fill="none" stroke="#63b8ff" d="M270.23,-239.61C298.04,-230.55 339.23,-217.13 369.95,-207.12"/>
<polygon fill="#63b8ff" stroke="#63b8ff" points="370.91,-210.16 379.33,-203.74 368.74,-203.51 370.91,-210.16"/>
</a>
</g>
</g>
<!-- Node28&#45;&gt;Node20 -->
<g id="edge45_Node000028_Node000020" class="edge">
<title>Node28&#45;&gt;Node20</title>
<g id="a_edge45_Node000028_Node000020"><a xlink:title=" ">
<path fill="none" stroke="#63b8ff" d="M421.8,-203.51C437.92,-221.93 474.92,-261.86 513,-286.62 548.93,-309.99 815.85,-418.4 912.88,-457.51"/>
<polygon fill="#63b8ff" stroke="#63b8ff" points="911.2,-461.01 921.79,-461.5 913.82,-454.52 911.2,-461.01"/>
</a>
</g>
</g>
<!-- Node29 -->
<g id="Node000029" class="node">
<title>Node29</title>
<g id="a_Node000029"><a xlink:href="../../d4/d80/class_state_color.html#aadab2fcc0138286070e9e463116914ce" target="_top" xlink:title=" ">
<polygon fill="white" stroke="#666666" points="659.5,-277.25 527.25,-277.25 527.25,-258 659.5,-258 659.5,-277.25"/>
<text text-anchor="middle" x="593.38" y="-263.75" font-family="Helvetica,sans-Serif" font-size="10.00">StateColor::colorForStates</text>
</a>
</g>
</g>
<!-- Node28&#45;&gt;Node29 -->
<g id="edge30_Node000028_Node000029" class="edge">
<title>Node28&#45;&gt;Node29</title>
<g id="a_edge30_Node000028_Node000029"><a xlink:title=" ">
<path fill="none" stroke="#63b8ff" d="M427.9,-203.58C446.73,-216.05 480.97,-237.29 513,-249.62 517.78,-251.46 522.79,-253.14 527.88,-254.67"/>
<polygon fill="#63b8ff" stroke="#63b8ff" points="526.8,-258.28 537.37,-257.6 528.68,-251.54 526.8,-258.28"/>
</a>
</g>
</g>
<!-- Node32 -->
<g id="Node000032" class="node">
<title>Node32</title>
<g id="a_Node000032"><a xlink:href="../../d4/d80/class_state_color.html#a879064a7f59f438c72234f341c97f6bf" target="_top" xlink:title=" ">
<polygon fill="white" stroke="#666666" points="639.62,-240.25 547.12,-240.25 547.12,-221 639.62,-221 639.62,-240.25"/>
<text text-anchor="middle" x="593.38" y="-226.75" font-family="Helvetica,sans-Serif" font-size="10.00">StateColor::count</text>
</a>
</g>
</g>
<!-- Node28&#45;&gt;Node32 -->
<g id="edge34_Node000028_Node000032" class="edge">
<title>Node28&#45;&gt;Node32</title>
<g id="a_edge34_Node000028_Node000032"><a xlink:title=" ">
<path fill="none" stroke="#63b8ff" d="M462.29,-203.74C485.18,-208.47 512.56,-214.13 536.29,-219.03"/>
<polygon fill="#63b8ff" stroke="#63b8ff" points="535.4,-222.63 545.9,-221.23 536.82,-215.77 535.4,-222.63"/>
</a>
</g>
</g>
<!-- Node33 -->
<g id="Node000033" class="node">
<title>Node33</title>
<g id="a_Node000033"><a xlink:href="../../d5/db9/class_scalable_bitmap.html#a3e7058676f561ff9b75b4f5339cf21b2" target="_top" xlink:title=" ">
<polygon fill="white" stroke="#666666" points="666.25,-203.25 520.5,-203.25 520.5,-184 666.25,-184 666.25,-203.25"/>
<text text-anchor="middle" x="593.38" y="-189.75" font-family="Helvetica,sans-Serif" font-size="10.00">ScalableBitmap::GetBmpSize</text>
</a>
</g>
</g>
<!-- Node28&#45;&gt;Node33 -->
<g id="edge35_Node000028_Node000033" class="edge">
<title>Node28&#45;&gt;Node33</title>
<g id="a_edge35_Node000028_Node000033"><a xlink:title=" ">
<path fill="none" stroke="#63b8ff" d="M471,-193.62C483.21,-193.62 496.34,-193.62 509.29,-193.62"/>
<polygon fill="#63b8ff" stroke="#63b8ff" points="509.1,-197.13 519.1,-193.62 509.1,-190.13 509.1,-197.13"/>
</a>
</g>
</g>
<!-- Node34 -->
<g id="Node000034" class="node">
<title>Node34</title>
<g id="a_Node000034"><a xlink:href="../../d2/dc2/class_static_box.html#a5eb8cfc865b86d5f132977b52e907e04" target="_top" xlink:title=" ">
<polygon fill="white" stroke="#666666" points="673.75,-165.88 513,-165.88 513,-135.38 673.75,-135.38 673.75,-165.88"/>
<text text-anchor="start" x="521" y="-152.38" font-family="Helvetica,sans-Serif" font-size="10.00">StaticBox::GetParentBackground</text>
<text text-anchor="middle" x="593.38" y="-141.12" font-family="Helvetica,sans-Serif" font-size="10.00">Color</text>
</a>
</g>
</g>
<!-- Node28&#45;&gt;Node34 -->
<g id="edge36_Node000028_Node000034" class="edge">
<title>Node28&#45;&gt;Node34</title>
<g id="a_edge36_Node000028_Node000034"><a xlink:title=" ">
<path fill="none" stroke="#63b8ff" d="M455.34,-183.54C473.55,-179.17 495.46,-173.91 516.37,-168.88"/>
<polygon fill="#63b8ff" stroke="#63b8ff" points="516.95,-172.1 525.85,-166.37 515.31,-165.3 516.95,-172.1"/>
</a>
</g>
</g>
<!-- Node35 -->
<g id="Node000035" class="node">
<title>Node35</title>
<g id="a_Node000035"><a xlink:href="../../d9/d45/namespace_slic3r_1_1_g_u_i.html#a4ecb812e38a2fc637474f33b307dbb9c" target="_top" xlink:title=" ">
<polygon fill="white" stroke="#666666" points="650.12,-116.88 536.62,-116.88 536.62,-86.38 650.12,-86.38 650.12,-116.88"/>
<text text-anchor="start" x="544.62" y="-103.38" font-family="Helvetica,sans-Serif" font-size="10.00">Slic3r::GUI::mac_max</text>
<text text-anchor="middle" x="593.38" y="-92.12" font-family="Helvetica,sans-Serif" font-size="10.00">_scaling_factor</text>
</a>
</g>
</g>
<!-- Node28&#45;&gt;Node35 -->
<g id="edge37_Node000028_Node000035" class="edge">
<title>Node28&#45;&gt;Node35</title>
<g id="a_edge37_Node000028_Node000035"><a xlink:title=" ">
<path fill="none" stroke="#63b8ff" d="M425.56,-183.72C443.67,-169.41 479.19,-142.9 513,-126.62 517.29,-124.56 521.79,-122.61 526.38,-120.79"/>
<polygon fill="#63b8ff" stroke="#63b8ff" points="527.37,-123.78 535.5,-116.98 524.91,-117.22 527.37,-123.78"/>
</a>
</g>
</g>
<!-- Node36 -->
<g id="Node000036" class="node">
<title>Node36</title>
<g id="a_Node000036"><a xlink:href="../../d5/db9/class_scalable_bitmap.html#a457ee1e4af5f2b47a51a5627209e1d58" target="_top" xlink:title=" ">
<polygon fill="white" stroke="#666666" points="649,-67.88 537.75,-67.88 537.75,-37.38 649,-37.38 649,-67.88"/>
<text text-anchor="start" x="545.75" y="-54.38" font-family="Helvetica,sans-Serif" font-size="10.00">ScalableBitmap::msw</text>
<text text-anchor="middle" x="593.38" y="-43.12" font-family="Helvetica,sans-Serif" font-size="10.00">_rescale</text>
</a>
</g>
</g>
<!-- Node28&#45;&gt;Node36 -->
<g id="edge38_Node000028_Node000036" class="edge">
<title>Node28&#45;&gt;Node36</title>
<g id="a_edge38_Node000028_Node000036"><a xlink:title=" ">
<path fill="none" stroke="#63b8ff" d="M419.23,-183.6C432.8,-161.22 468.68,-106.86 513,-77.62 517.56,-74.62 522.5,-71.96 527.61,-69.6"/>
<polygon fill="#63b8ff" stroke="#63b8ff" points="528.71,-72.52 536.59,-65.44 526.02,-66.05 528.71,-72.52"/>
</a>
</g>
</g>
<!-- Node44 -->
<g id="Node000044" class="node">
<title>Node44</title>
<g id="a_Node000044"><a xlink:href="../../d6/dba/_wipe_tower_dialog_8cpp.html#a031c2862b832be718b216d1f101f88cd" target="_top" xlink:title=" ">
<polygon fill="white" stroke="#666666" points="613,-19.25 573.75,-19.25 573.75,0 613,0 613,-19.25"/>
<text text-anchor="middle" x="593.38" y="-5.75" font-family="Helvetica,sans-Serif" font-size="10.00">scale</text>
</a>
</g>
</g>
<!-- Node28&#45;&gt;Node44 -->
<g id="edge44_Node000028_Node000044" class="edge">
<title>Node28&#45;&gt;Node44</title>
<g id="a_edge44_Node000028_Node000044"><a xlink:title=" ">
<path fill="none" stroke="#63b8ff" d="M416.37,-183.57C425.57,-154.56 456.27,-70.1 513,-28.62 527.27,-18.19 546.47,-13.42 562.42,-11.26"/>
<polygon fill="#63b8ff" stroke="#63b8ff" points="562.76,-14.64 572.34,-10.11 562.03,-7.68 562.76,-14.64"/>
</a>
</g>
</g>
<!-- Node30 -->
<g id="Node000030" class="node">
<title>Node30</title>
<g id="a_Node000030"><a xlink:href="../../d3/d55/_state_color_8cpp.html#a516dd14cca918469a885837471704d99" target="_top" xlink:title=" ">
<polygon fill="white" stroke="#666666" points="829.25,-277.25 727.75,-277.25 727.75,-258 829.25,-258 829.25,-277.25"/>
<text text-anchor="middle" x="778.5" y="-263.75" font-family="Helvetica,sans-Serif" font-size="10.00">darkModeColorFor2</text>
</a>
</g>
</g>
<!-- Node29&#45;&gt;Node30 -->
<g id="edge31_Node000029_Node000030" class="edge">
<title>Node29&#45;&gt;Node30</title>
<g id="a_edge31_Node000029_Node000030"><a xlink:title=" ">
<path fill="none" stroke="#63b8ff" d="M659.97,-267.62C678.41,-267.62 698.39,-267.62 716.55,-267.62"/>
<polygon fill="#63b8ff" stroke="#63b8ff" points="716.3,-271.13 726.3,-267.62 716.3,-264.13 716.3,-271.13"/>
</a>
</g>
</g>
<!-- Node31 -->
<g id="Node000031" class="node">
<title>Node31</title>
<g id="a_Node000031"><a xlink:href="../../d4/d80/class_state_color.html#a1135adf2b5f79b93718d3fd6f30fabe5" target="_top" xlink:title=" ">
<polygon fill="white" stroke="#666666" points="826.25,-222.25 730.75,-222.25 730.75,-203 826.25,-203 826.25,-222.25"/>
<text text-anchor="middle" x="778.5" y="-208.75" font-family="Helvetica,sans-Serif" font-size="10.00">StateColor::states</text>
</a>
</g>
</g>
<!-- Node29&#45;&gt;Node31 -->
<g id="edge32_Node000029_Node000031" class="edge">
<title>Node29&#45;&gt;Node31</title>
<g id="a_edge32_Node000029_Node000031"><a xlink:title=" ">
<path fill="none" stroke="#63b8ff" d="M642.88,-257.59C653.13,-255.2 663.84,-252.5 673.75,-249.62 696.79,-242.93 722.16,-233.91 742.05,-226.45"/>
<polygon fill="#63b8ff" stroke="#63b8ff" points="743.09,-229.43 751.2,-222.61 740.6,-222.88 743.09,-229.43"/>
</a>
</g>
</g>
<!-- Node31&#45;&gt;Node31 -->
<g id="edge33_Node000031_Node000031" class="edge">
<title>Node31&#45;&gt;Node31</title>
<g id="a_edge33_Node000031_Node000031"><a xlink:title=" ">
<path fill="none" stroke="#63b8ff" d="M751.81,-222.54C739.63,-231.15 748.53,-240.25 778.5,-240.25 796.76,-240.25 807.2,-236.87 809.81,-232.28"/>
<polygon fill="#63b8ff" stroke="#63b8ff" points="812.64,-231.07 805.19,-223.54 806.32,-234.07 812.64,-231.07"/>
</a>
</g>
</g>
<!-- Node37 -->
<g id="Node000037" class="node">
<title>Node37</title>
<g id="a_Node000037"><a xlink:href="../../d7/d58/wx_extensions_8cpp.html#a8c59db4968ff45d299802bf7babf5189" target="_top" xlink:title=" ">
<polygon fill="white" stroke="#666666" points="834.12,-124.25 722.88,-124.25 722.88,-105 834.12,-105 834.12,-124.25"/>
<text text-anchor="middle" x="778.5" y="-110.75" font-family="Helvetica,sans-Serif" font-size="10.00">create_scaled_bitmap</text>
</a>
</g>
</g>
<!-- Node36&#45;&gt;Node37 -->
<g id="edge39_Node000036_Node000037" class="edge">
<title>Node36&#45;&gt;Node37</title>
<g id="a_edge39_Node000036_Node000037"><a xlink:title=" ">
<path fill="none" stroke="#63b8ff" d="M645.28,-68.35C654.76,-71.36 664.57,-74.54 673.75,-77.62 695.88,-85.05 720.49,-93.81 740.19,-100.94"/>
<polygon fill="#63b8ff" stroke="#63b8ff" points="738.7,-104.48 749.29,-104.61 741.09,-97.9 738.7,-104.48"/>
</a>
</g>
</g>
<!-- Node37&#45;&gt;Node6 -->
<g id="edge41_Node000037_Node000006" class="edge">
<title>Node37&#45;&gt;Node6</title>
<g id="a_edge41_Node000037_Node000006"><a xlink:title=" ">
<path fill="none" stroke="#63b8ff" d="M788.32,-124.63C815.39,-155.31 897.54,-248.42 932.25,-287.77"/>
<polygon fill="#63b8ff" stroke="#63b8ff" points="929.03,-289.54 938.27,-294.72 934.27,-284.91 929.03,-289.54"/>
</a>
</g>
</g>
<!-- Node38 -->
<g id="Node000038" class="node">
<title>Node38</title>
<g id="a_Node000038"><a xlink:href="../../d9/d45/namespace_slic3r_1_1_g_u_i.html#a4efb22fa76b303e9999f4f121b015b0a" target="_top" xlink:title=" ">
<polygon fill="white" stroke="#666666" points="997.5,-178.88 900.5,-178.88 900.5,-148.38 997.5,-148.38 997.5,-178.88"/>
<text text-anchor="start" x="908.5" y="-165.38" font-family="Helvetica,sans-Serif" font-size="10.00">Slic3r::GUI::check</text>
<text text-anchor="middle" x="949" y="-154.12" font-family="Helvetica,sans-Serif" font-size="10.00">_dark_mode</text>
</a>
</g>
</g>
<!-- Node37&#45;&gt;Node38 -->
<g id="edge40_Node000037_Node000038" class="edge">
<title>Node37&#45;&gt;Node38</title>
<g id="a_edge40_Node000037_Node000038"><a xlink:title=" ">
<path fill="none" stroke="#63b8ff" d="M814.01,-124.66C835.84,-131.01 864.61,-139.38 889.9,-146.73"/>
<polygon fill="#63b8ff" stroke="#63b8ff" points="888.55,-150.27 899.13,-149.7 890.5,-143.55 888.55,-150.27"/>
</a>
</g>
</g>
<!-- Node39 -->
<g id="Node000039" class="node">
<title>Node39</title>
<g id="a_Node000039"><a xlink:href="../../d8/d95/class_slic3r_1_1_g_u_i_1_1_bitmap_cache.html#afccfcaeca73039fe713aa0d4389b51e1" target="_top" xlink:title=" ">
<polygon fill="#fff0f0" stroke="red" points="1014,-129.88 884,-129.88 884,-99.38 1014,-99.38 1014,-129.88"/>
<text text-anchor="start" x="892" y="-116.38" font-family="Helvetica,sans-Serif" font-size="10.00">Slic3r::GUI::BitmapCache</text>
<text text-anchor="middle" x="949" y="-105.12" font-family="Helvetica,sans-Serif" font-size="10.00">::load_png</text>
</a>
</g>
</g>
<!-- Node37&#45;&gt;Node39 -->
<g id="edge42_Node000037_Node000039" class="edge">
<title>Node37&#45;&gt;Node39</title>
<g id="a_edge42_Node000037_Node000039"><a xlink:title=" ">
<path fill="none" stroke="#63b8ff" d="M834.21,-114.62C846.52,-114.62 859.8,-114.62 872.78,-114.62"/>
<polygon fill="#63b8ff" stroke="#63b8ff" points="872.59,-118.13 882.59,-114.62 872.59,-111.13 872.59,-118.13"/>
</a>
</g>
</g>
<!-- Node45 -->
<g id="Node000045" class="node">
<title>Node45</title>
<g id="a_Node000045"><a xlink:href="../../d8/d95/class_slic3r_1_1_g_u_i_1_1_bitmap_cache.html#a6b71563805184d887c80c3889b7447a4" target="_top" xlink:title=" ">
<polygon fill="#fff0f0" stroke="red" points="1014,-80.88 884,-80.88 884,-50.38 1014,-50.38 1014,-80.88"/>
<text text-anchor="start" x="892" y="-67.38" font-family="Helvetica,sans-Serif" font-size="10.00">Slic3r::GUI::BitmapCache</text>
<text text-anchor="middle" x="949" y="-56.12" font-family="Helvetica,sans-Serif" font-size="10.00">::load_svg</text>
</a>
</g>
</g>
<!-- Node37&#45;&gt;Node45 -->
<g id="edge43_Node000037_Node000045" class="edge">
<title>Node37&#45;&gt;Node45</title>
<g id="a_edge43_Node000037_Node000045"><a xlink:title=" ">
<path fill="none" stroke="#63b8ff" d="M814.01,-104.59C834.05,-98.76 859.95,-91.23 883.63,-84.34"/>
<polygon fill="#63b8ff" stroke="#63b8ff" points="884.34,-87.49 892.97,-81.34 882.39,-80.77 884.34,-87.49"/>
</a>
</g>
</g>
</g>
</svg>

<g id="navigator" transform="translate(0 0)" fill="#404254">
  <rect fill="#f2f5e9" fill-opacity="0.5" stroke="#606060" stroke-width=".5" x="0" y="0" width="60" height="60"/>
  <use id="zoomplus" xlink:href="#zoomPlus" x="17" y="9" onmousedown="handleZoom(evt,'in')"/>
  <use id="zoomminus" xlink:href="#zoomMin" x="42" y="9" onmousedown="handleZoom(evt,'out')"/>
  <use id="reset" xlink:href="#resetDef" x="30" y="36" onmousedown="handleReset()"/>
   <use id="arrowup" xlink:href="#arrowUp" x="0" y="0" onmousedown="handlePan(0,-1)"/>
  <use id="arrowright" xlink:href="#arrowRight" x="0" y="0" onmousedown="handlePan(1,0)"/>
  <use id="arrowdown" xlink:href="#arrowDown" x="0" y="0" onmousedown="handlePan(0,1)"/>
  <use id="arrowleft" xlink:href="#arrowLeft" x="0" y="0" onmousedown="handlePan(-1,0)"/>
</g>
<svg viewBox="0 0 15 15" width="100%" height="30px" preserveAspectRatio="xMaxYMin meet">
 <g id="arrow_out" transform="scale(0.3 0.3)">
  <a xlink:href="class_slic3r_1_1_g_u_i_1_1_params_panel_a4cb14d52e47f88ecb6f0defb3c821643_cgraph_org.svg" target="_base">
   <rect id="button" ry="5" rx="5" y="6" x="6" height="38" width="38"
        fill="#f2f5e9" fill-opacity="0.5" stroke="#606060" stroke-width="1.0"/>
   <path id="arrow"
     d="M 11.500037,31.436501 C 11.940474,20.09759 22.043105,11.32322 32.158766,21.979434 L 37.068811,17.246167 C 37.068811,17.246167 37.088388,32 37.088388,32 L 22.160133,31.978069 C 22.160133,31.978069 26.997745,27.140456 26.997745,27.140456 C 18.528582,18.264221 13.291696,25.230495 11.500037,31.436501 z"
     style="fill:#404040;"/>
  </a>
 </g>
</svg>

<style type='text/css'>
<![CDATA[
[data-mouse-over-selected='false'] { opacity: 0.7; }
[data-mouse-over-selected='true']  { opacity: 1.0; }
]]>
</style>
<script type="application/ecmascript"><![CDATA[
document.addEventListener('DOMContentLoaded', (event) => {
  highlightEdges();
  highlightAdjacentNodes();
});
]]></script>
</svg>
