<?xml version="1.0" encoding="UTF-8" standalone="no"?>
<!DOCTYPE svg PUBLIC "-//W3C//DTD SVG 1.1//EN"
 "http://www.w3.org/Graphics/SVG/1.1/DTD/svg11.dtd">
<!-- Generated by graphviz version 8.1.0 (20230707.0739)
 -->
<!-- Title: PrinterFileSystem::SendChangedEvent Pages: 1 -->
<!--zoomable 510 -->

<svg id="main" version="1.1" xmlns="http://www.w3.org/2000/svg" xmlns:xlink="http://www.w3.org/1999/xlink" xml:space="preserve" onload="init(evt)">
<style type="text/css"><![CDATA[
.node, .edge {opacity: 0.7;}
.node.selected, .edge.selected {opacity: 1;}
.edge:hover path { stroke: red; }
.edge:hover polygon { stroke: red; fill: red; }
]]></style>

<defs>
  <circle id="rim" cx="0" cy="0" r="7"/>
  <circle id="rim2" cx="0" cy="0" r="3.5"/>
  <g id="zoomPlus">
    <use xlink:href="#rim" fill="#404040"><set attributeName="fill" to="#808080" begin="zoomplus.mouseover" end="zoomplus.mouseout"/></use>
    <path d="M-4,0h8M0,-4v8" fill="none" stroke="white" stroke-width="1.5" pointer-events="none"/>
  </g>
  <g id="zoomMin">
    <use xlink:href="#rim" fill="#404040"><set attributeName="fill" to="#808080" begin="zoomminus.mouseover" end="zoomminus.mouseout"/></use>
    <path d="M-4,0h8" fill="none" stroke="white" stroke-width="1.5" pointer-events="none"/>
  </g>
  <g id="arrowUp" transform="translate(30 24)">
    <use xlink:href="#rim"/>
    <path pointer-events="none" fill="none" stroke="white" stroke-width="1.5" d="M0,-3.0v7 M-2.5,-0.5L0,-3.0L2.5,-0.5"/>
  </g>
  <g id="arrowRight" transform="rotate(90) translate(36 -43)">
    <use xlink:href="#rim"/>
    <path pointer-events="none" fill="none" stroke="white" stroke-width="1.5" d="M0,-3.0v7 M-2.5,-0.5L0,-3.0L2.5,-0.5"/>
  </g>
  <g id="arrowDown" transform="rotate(180) translate(-30 -48)">
    <use xlink:href="#rim"/>
    <path pointer-events="none" fill="none" stroke="white" stroke-width="1.5" d="M0,-3.0v7 M-2.5,-0.5L0,-3.0L2.5,-0.5"/>
  </g>
  <g id="arrowLeft" transform="rotate(270) translate(-36 17)">
    <use xlink:href="#rim"/>
    <path pointer-events="none" fill="none" stroke="white" stroke-width="1.5" d="M0,-3.0v7 M-2.5,-0.5L0,-3.0L2.5,-0.5"/>
  </g>
  <g id="resetDef">
    <use xlink:href="#rim2" fill="#404040"><set attributeName="fill" to="#808080" begin="reset.mouseover" end="reset.mouseout"/></use>
  </g>
</defs>
<script type="application/ecmascript">
var viewWidth = 548;
var viewHeight = 510;
var sectionId = 'dynsection-38';
</script>
<script type="application/ecmascript" xlink:href="../../svg.min.js"/>
<svg id="graph" class="graph">
<g id="viewport">
<title>PrinterFileSystem::SendChangedEvent</title>
<!-- Node1 -->
<g id="Node000001" class="node">
<title>Node1</title>
<g id="a_Node000001"><a xlink:title=" ">
<polygon fill="#999999" stroke="#666666" points="539.5,-259.5 436.5,-259.5 436.5,-229 539.5,-229 539.5,-259.5"/>
<text text-anchor="start" x="444.5" y="-246" font-family="Helvetica,sans-Serif" font-size="10.00">PrinterFileSystem::</text>
<text text-anchor="middle" x="488" y="-234.75" font-family="Helvetica,sans-Serif" font-size="10.00">SendChangedEvent</text>
</a>
</g>
</g>
<!-- Node2 -->
<g id="Node000002" class="node">
<title>Node2</title>
<g id="a_Node000002"><a xlink:href="../../d4/dfd/class_printer_file_system.html#a836af67ef0c15fb2efb4deff89d62ed6" target="_top" xlink:title=" ">
<polygon fill="white" stroke="#666666" points="393,-483.5 288.5,-483.5 288.5,-453 393,-453 393,-483.5"/>
<text text-anchor="start" x="296.5" y="-470" font-family="Helvetica,sans-Serif" font-size="10.00">PrinterFileSystem::</text>
<text text-anchor="middle" x="340.75" y="-458.75" font-family="Helvetica,sans-Serif" font-size="10.00">DeleteFilesContinue</text>
</a>
</g>
</g>
<!-- Node1&#45;&gt;Node2 -->
<g id="edge1_Node000001_Node000002" class="edge">
<title>Node1&#45;&gt;Node2</title>
<g id="a_edge1_Node000001_Node000002"><a xlink:title=" ">
<path fill="none" stroke="#63b8ff" d="M482.09,-270.6C473.02,-312.42 449.87,-394.26 400.5,-443.25 396.88,-446.84 392.67,-449.95 388.18,-452.63"/>
<polygon fill="#63b8ff" stroke="#63b8ff" points="485.7,-271.42 484.29,-260.92 478.84,-270.01 485.7,-271.42"/>
</a>
</g>
</g>
<!-- Node4 -->
<g id="Node000004" class="node">
<title>Node4</title>
<g id="a_Node000004"><a xlink:href="../../d4/dfd/class_printer_file_system.html#ad7dbf3611a541c28cdfdb69cf6ba8ea3" target="_top" xlink:title=" ">
<polygon fill="white" stroke="#666666" points="392.62,-434.5 288.88,-434.5 288.88,-404 392.62,-404 392.62,-434.5"/>
<text text-anchor="start" x="296.88" y="-421" font-family="Helvetica,sans-Serif" font-size="10.00">PrinterFileSystem::</text>
<text text-anchor="middle" x="340.75" y="-409.75" font-family="Helvetica,sans-Serif" font-size="10.00">DownloadCheckFile</text>
</a>
</g>
</g>
<!-- Node1&#45;&gt;Node4 -->
<g id="edge4_Node000001_Node000004" class="edge">
<title>Node1&#45;&gt;Node4</title>
<g id="a_edge4_Node000001_Node000004"><a xlink:title=" ">
<path fill="none" stroke="#63b8ff" d="M478.18,-269.72C465.63,-302.54 439.72,-359.5 400.5,-394.25 396.52,-397.78 391.96,-400.86 387.19,-403.54"/>
<polygon fill="#63b8ff" stroke="#63b8ff" points="481.74,-271.17 481.92,-260.58 475.17,-268.75 481.74,-271.17"/>
</a>
</g>
</g>
<!-- Node5 -->
<g id="Node000005" class="node">
<title>Node5</title>
<g id="a_Node000005"><a xlink:href="../../d4/dfd/class_printer_file_system.html#adb96d879c8ebcb528b3ffd8ac7d3fbc5" target="_top" xlink:title=" ">
<polygon fill="white" stroke="#666666" points="390.75,-367.5 290.75,-367.5 290.75,-337 390.75,-337 390.75,-367.5"/>
<text text-anchor="start" x="298.75" y="-354" font-family="Helvetica,sans-Serif" font-size="10.00">PrinterFileSystem::</text>
<text text-anchor="middle" x="340.75" y="-342.75" font-family="Helvetica,sans-Serif" font-size="10.00">DownloadNextFile</text>
</a>
</g>
</g>
<!-- Node1&#45;&gt;Node5 -->
<g id="edge5_Node000001_Node000005" class="edge">
<title>Node1&#45;&gt;Node5</title>
<g id="a_edge5_Node000001_Node000005"><a xlink:title=" ">
<path fill="none" stroke="#63b8ff" d="M464.93,-267.68C448.28,-284.5 424.31,-306.98 400.5,-323.25 393.36,-328.13 385.28,-332.66 377.45,-336.63"/>
<polygon fill="#63b8ff" stroke="#63b8ff" points="467.01,-270.53 471.48,-260.92 462,-265.64 467.01,-270.53"/>
</a>
</g>
</g>
<!-- Node7 -->
<g id="Node000007" class="node">
<title>Node7</title>
<g id="a_Node000007"><a xlink:href="../../d4/dfd/class_printer_file_system.html#aafbb42616675ce4e5e8008da973b83b3" target="_top" xlink:title=" ">
<polygon fill="white" stroke="#666666" points="390.75,-281.5 290.75,-281.5 290.75,-251 390.75,-251 390.75,-281.5"/>
<text text-anchor="start" x="298.75" y="-268" font-family="Helvetica,sans-Serif" font-size="10.00">PrinterFileSystem::</text>
<text text-anchor="middle" x="340.75" y="-256.75" font-family="Helvetica,sans-Serif" font-size="10.00">ListAllFiles</text>
</a>
</g>
</g>
<!-- Node1&#45;&gt;Node7 -->
<g id="edge8_Node000001_Node000007" class="edge">
<title>Node1&#45;&gt;Node7</title>
<g id="a_edge8_Node000001_Node000007"><a xlink:title=" ">
<path fill="none" stroke="#63b8ff" d="M425.66,-253.54C414.03,-255.3 402,-257.12 390.81,-258.82"/>
<polygon fill="#63b8ff" stroke="#63b8ff" points="425.84,-256.9 435.2,-251.94 424.79,-249.98 425.84,-256.9"/>
</a>
</g>
</g>
<!-- Node8 -->
<g id="Node000008" class="node">
<title>Node8</title>
<g id="a_Node000008"><a xlink:href="../../d4/dfd/class_printer_file_system.html#acea0faf9cd323c5a9b4fbcc9813e2d89" target="_top" xlink:title=" ">
<polygon fill="white" stroke="#666666" points="245,-303.5 145,-303.5 145,-273 245,-273 245,-303.5"/>
<text text-anchor="start" x="153" y="-290" font-family="Helvetica,sans-Serif" font-size="10.00">PrinterFileSystem::</text>
<text text-anchor="middle" x="195" y="-278.75" font-family="Helvetica,sans-Serif" font-size="10.00">Reconnect</text>
</a>
</g>
</g>
<!-- Node1&#45;&gt;Node8 -->
<g id="edge12_Node000001_Node000008" class="edge">
<title>Node1&#45;&gt;Node8</title>
<g id="a_edge12_Node000001_Node000008"><a xlink:title=" ">
<path fill="none" stroke="#63b8ff" d="M455.84,-265.6C440.02,-275.17 420.04,-285.38 400.5,-290.25 348.65,-303.18 287.09,-300.21 245.15,-295.58"/>
<polygon fill="#63b8ff" stroke="#63b8ff" points="457.5,-268.07 464.11,-259.79 453.78,-262.14 457.5,-268.07"/>
</a>
</g>
</g>
<!-- Node10 -->
<g id="Node000010" class="node">
<title>Node10</title>
<g id="a_Node000010"><a xlink:href="../../d4/dfd/class_printer_file_system.html#a28207a4a099d9da3abdd2887cd95b002" target="_top" xlink:title=" ">
<polygon fill="white" stroke="#666666" points="245,-246.5 145,-246.5 145,-216 245,-216 245,-246.5"/>
<text text-anchor="start" x="153" y="-233" font-family="Helvetica,sans-Serif" font-size="10.00">PrinterFileSystem::</text>
<text text-anchor="middle" x="195" y="-221.75" font-family="Helvetica,sans-Serif" font-size="10.00">SetFileType</text>
</a>
</g>
</g>
<!-- Node1&#45;&gt;Node10 -->
<g id="edge14_Node000001_Node000010" class="edge">
<title>Node1&#45;&gt;Node10</title>
<g id="a_edge14_Node000001_Node000010"><a xlink:title=" ">
<path fill="none" stroke="#63b8ff" d="M425.56,-241.51C371.84,-239.11 294.85,-235.67 245.14,-233.45"/>
<polygon fill="#63b8ff" stroke="#63b8ff" points="425.17,-245.04 435.31,-241.99 425.48,-238.04 425.17,-245.04"/>
</a>
</g>
</g>
<!-- Node11 -->
<g id="Node000011" class="node">
<title>Node11</title>
<g id="a_Node000011"><a xlink:href="../../d4/dfd/class_printer_file_system.html#a4679715b0b8fe7b1892d5199f2165b54" target="_top" xlink:title=" ">
<polygon fill="white" stroke="#666666" points="390.75,-195.5 290.75,-195.5 290.75,-165 390.75,-165 390.75,-195.5"/>
<text text-anchor="start" x="298.75" y="-182" font-family="Helvetica,sans-Serif" font-size="10.00">PrinterFileSystem::</text>
<text text-anchor="middle" x="340.75" y="-170.75" font-family="Helvetica,sans-Serif" font-size="10.00">SelectAll</text>
</a>
</g>
</g>
<!-- Node1&#45;&gt;Node11 -->
<g id="edge13_Node000001_Node000011" class="edge">
<title>Node1&#45;&gt;Node11</title>
<g id="a_edge13_Node000001_Node000011"><a xlink:title=" ">
<path fill="none" stroke="#63b8ff" d="M441.62,-224.26C420.93,-215.14 396.78,-204.5 377.42,-195.97"/>
<polygon fill="#63b8ff" stroke="#63b8ff" points="439.91,-227.76 450.47,-228.59 442.73,-221.36 439.91,-227.76"/>
</a>
</g>
</g>
<!-- Node12 -->
<g id="Node000012" class="node">
<title>Node12</title>
<g id="a_Node000012"><a xlink:href="../../d4/dfd/class_printer_file_system.html#a3a63d947847f8a0193c73199dc0c04b8" target="_top" xlink:title=" ">
<polygon fill="white" stroke="#666666" points="390.75,-146.5 290.75,-146.5 290.75,-116 390.75,-116 390.75,-146.5"/>
<text text-anchor="start" x="298.75" y="-133" font-family="Helvetica,sans-Serif" font-size="10.00">PrinterFileSystem::</text>
<text text-anchor="middle" x="340.75" y="-121.75" font-family="Helvetica,sans-Serif" font-size="10.00">SetGroupMode</text>
</a>
</g>
</g>
<!-- Node1&#45;&gt;Node12 -->
<g id="edge15_Node000001_Node000012" class="edge">
<title>Node1&#45;&gt;Node12</title>
<g id="a_edge15_Node000001_Node000012"><a xlink:title=" ">
<path fill="none" stroke="#63b8ff" d="M468.17,-220.46C451.91,-201.14 426.91,-174.24 400.5,-156.25 395.46,-152.82 389.88,-149.7 384.21,-146.93"/>
<polygon fill="#63b8ff" stroke="#63b8ff" points="465.94,-222.26 475.01,-227.75 471.34,-217.8 465.94,-222.26"/>
</a>
</g>
</g>
<!-- Node14 -->
<g id="Node000014" class="node">
<title>Node14</title>
<g id="a_Node000014"><a xlink:href="../../d4/dfd/class_printer_file_system.html#ac8befb17bcec670bec8ee73f0963b87d" target="_top" xlink:title=" ">
<polygon fill="white" stroke="#666666" points="390.75,-97.5 290.75,-97.5 290.75,-67 390.75,-67 390.75,-97.5"/>
<text text-anchor="start" x="298.75" y="-84" font-family="Helvetica,sans-Serif" font-size="10.00">PrinterFileSystem::</text>
<text text-anchor="middle" x="340.75" y="-72.75" font-family="Helvetica,sans-Serif" font-size="10.00">ToggleSelect</text>
</a>
</g>
</g>
<!-- Node1&#45;&gt;Node14 -->
<g id="edge17_Node000001_Node000014" class="edge">
<title>Node1&#45;&gt;Node14</title>
<g id="a_edge17_Node000001_Node000014"><a xlink:title=" ">
<path fill="none" stroke="#63b8ff" d="M476.59,-218.73C463.1,-188.46 436.91,-138.23 400.5,-107.25 396.36,-103.73 391.66,-100.64 386.75,-97.95"/>
<polygon fill="#63b8ff" stroke="#63b8ff" points="473.65,-219.74 480.83,-227.53 480.08,-216.97 473.65,-219.74"/>
</a>
</g>
</g>
<!-- Node15 -->
<g id="Node000015" class="node">
<title>Node15</title>
<g id="a_Node000015"><a xlink:href="../../d4/dfd/class_printer_file_system.html#a49bea57ab7e7e511e00905c8bd407d2d" target="_top" xlink:title=" ">
<polygon fill="white" stroke="#666666" points="400.5,-30.5 281,-30.5 281,0 400.5,0 400.5,-30.5"/>
<text text-anchor="start" x="289" y="-17" font-family="Helvetica,sans-Serif" font-size="10.00">PrinterFileSystem::</text>
<text text-anchor="middle" x="340.75" y="-5.75" font-family="Helvetica,sans-Serif" font-size="10.00">UpdateFocusThumbnail</text>
</a>
</g>
</g>
<!-- Node1&#45;&gt;Node15 -->
<g id="edge18_Node000001_Node000015" class="edge">
<title>Node1&#45;&gt;Node15</title>
<g id="a_edge18_Node000001_Node000015"><a xlink:title=" ">
<path fill="none" stroke="#63b8ff" d="M479.54,-218.33C467.6,-180.16 441.31,-107.99 400.5,-58.25 391.76,-47.6 379.81,-38.22 368.97,-30.97"/>
<polygon fill="#63b8ff" stroke="#63b8ff" points="476.4,-219.04 482.66,-227.59 483.1,-217 476.4,-219.04"/>
</a>
</g>
</g>
<!-- Node2&#45;&gt;Node2 -->
<g id="edge3_Node000002_Node000002" class="edge">
<title>Node2&#45;&gt;Node2</title>
<g id="a_edge3_Node000002_Node000002"><a xlink:title=" ">
<path fill="none" stroke="#63b8ff" d="M365.52,-494.88C361.66,-498.83 353.4,-501.5 340.75,-501.5 318.26,-501.5 309.65,-493.06 314.92,-483.99"/>
<polygon fill="#63b8ff" stroke="#63b8ff" points="369.1,-495.28 366.58,-484.99 362.13,-494.6 369.1,-495.28"/>
</a>
</g>
</g>
<!-- Node3 -->
<g id="Node000003" class="node">
<title>Node3</title>
<g id="a_Node000003"><a xlink:href="../../d4/dfd/class_printer_file_system.html#a5687e071849affd95010d377b0a1f965" target="_top" xlink:title=" ">
<polygon fill="white" stroke="#666666" points="245,-483.5 145,-483.5 145,-453 245,-453 245,-483.5"/>
<text text-anchor="start" x="153" y="-470" font-family="Helvetica,sans-Serif" font-size="10.00">PrinterFileSystem::</text>
<text text-anchor="middle" x="195" y="-458.75" font-family="Helvetica,sans-Serif" font-size="10.00">DeleteFiles</text>
</a>
</g>
</g>
<!-- Node2&#45;&gt;Node3 -->
<g id="edge2_Node000002_Node000003" class="edge">
<title>Node2&#45;&gt;Node3</title>
<g id="a_edge2_Node000002_Node000003"><a xlink:title=" ">
<path fill="none" stroke="#63b8ff" d="M277.57,-468.25C266.75,-468.25 255.62,-468.25 245.21,-468.25"/>
<polygon fill="#63b8ff" stroke="#63b8ff" points="277.26,-471.75 287.26,-468.25 277.26,-464.75 277.26,-471.75"/>
</a>
</g>
</g>
<!-- Node5&#45;&gt;Node5 -->
<g id="edge7_Node000005_Node000005" class="edge">
<title>Node5&#45;&gt;Node5</title>
<g id="a_edge7_Node000005_Node000005"><a xlink:title=" ">
<path fill="none" stroke="#63b8ff" d="M365.52,-378.88C361.66,-382.83 353.4,-385.5 340.75,-385.5 318.26,-385.5 309.65,-377.06 314.92,-367.99"/>
<polygon fill="#63b8ff" stroke="#63b8ff" points="369.1,-379.28 366.58,-368.99 362.13,-378.6 369.1,-379.28"/>
</a>
</g>
</g>
<!-- Node6 -->
<g id="Node000006" class="node">
<title>Node6</title>
<g id="a_Node000006"><a xlink:href="../../d4/dfd/class_printer_file_system.html#acccd0db30b21c0dce00f8da8ceb5fc0c" target="_top" xlink:title=" ">
<polygon fill="white" stroke="#666666" points="245,-367.5 145,-367.5 145,-337 245,-337 245,-367.5"/>
<text text-anchor="start" x="153" y="-354" font-family="Helvetica,sans-Serif" font-size="10.00">PrinterFileSystem::</text>
<text text-anchor="middle" x="195" y="-342.75" font-family="Helvetica,sans-Serif" font-size="10.00">DownloadFiles</text>
</a>
</g>
</g>
<!-- Node5&#45;&gt;Node6 -->
<g id="edge6_Node000005_Node000006" class="edge">
<title>Node5&#45;&gt;Node6</title>
<g id="a_edge6_Node000005_Node000006"><a xlink:title=" ">
<path fill="none" stroke="#63b8ff" d="M279.46,-352.25C268,-352.25 256.13,-352.25 245.07,-352.25"/>
<polygon fill="#63b8ff" stroke="#63b8ff" points="279.28,-355.75 289.28,-352.25 279.28,-348.75 279.28,-355.75"/>
</a>
</g>
</g>
<!-- Node7&#45;&gt;Node8 -->
<g id="edge9_Node000007_Node000008" class="edge">
<title>Node7&#45;&gt;Node8</title>
<g id="a_edge9_Node000007_Node000008"><a xlink:title=" ">
<path fill="none" stroke="#63b8ff" d="M279.46,-275.48C268,-277.23 256.13,-279.05 245.07,-280.74"/>
<polygon fill="#63b8ff" stroke="#63b8ff" points="279.92,-278.79 289.28,-273.82 278.86,-271.87 279.92,-278.79"/>
</a>
</g>
</g>
<!-- Node7&#45;&gt;Node10 -->
<g id="edge11_Node000007_Node000010" class="edge">
<title>Node7&#45;&gt;Node10</title>
<g id="a_edge11_Node000007_Node000010"><a xlink:title=" ">
<path fill="none" stroke="#63b8ff" d="M279.81,-251.66C268.24,-248.84 256.25,-245.92 245.07,-243.2"/>
<polygon fill="#63b8ff" stroke="#63b8ff" points="278.74,-255.24 289.28,-254.2 280.39,-248.44 278.74,-255.24"/>
</a>
</g>
</g>
<!-- Node9 -->
<g id="Node000009" class="node">
<title>Node9</title>
<g id="a_Node000009"><a xlink:href="../../d4/dfd/class_printer_file_system.html#a5b0b10238f10f9e0ec54f7eb45277047" target="_top" xlink:title=" ">
<polygon fill="white" stroke="#666666" points="109,-303.5 0,-303.5 0,-273 109,-273 109,-303.5"/>
<text text-anchor="start" x="8" y="-290" font-family="Helvetica,sans-Serif" font-size="10.00">PrinterFileSystem::</text>
<text text-anchor="middle" x="54.5" y="-278.75" font-family="Helvetica,sans-Serif" font-size="10.00">RecvMessageThread</text>
</a>
</g>
</g>
<!-- Node8&#45;&gt;Node9 -->
<g id="edge10_Node000008_Node000009" class="edge">
<title>Node8&#45;&gt;Node9</title>
<g id="a_edge10_Node000008_Node000009"><a xlink:title=" ">
<path fill="none" stroke="#63b8ff" d="M133.8,-288.25C125.64,-288.25 117.3,-288.25 109.26,-288.25"/>
<polygon fill="#63b8ff" stroke="#63b8ff" points="133.78,-291.75 143.78,-288.25 133.78,-284.75 133.78,-291.75"/>
</a>
</g>
</g>
<!-- Node13 -->
<g id="Node000013" class="node">
<title>Node13</title>
<g id="a_Node000013"><a xlink:href="../../d4/dfd/class_printer_file_system.html#a40d522785c38715c9966b56ff5ffe339" target="_top" xlink:title=" ">
<polygon fill="white" stroke="#666666" points="245,-146.5 145,-146.5 145,-116 245,-116 245,-146.5"/>
<text text-anchor="start" x="153" y="-133" font-family="Helvetica,sans-Serif" font-size="10.00">PrinterFileSystem::</text>
<text text-anchor="middle" x="195" y="-121.75" font-family="Helvetica,sans-Serif" font-size="10.00">EnterSubGroup</text>
</a>
</g>
</g>
<!-- Node12&#45;&gt;Node13 -->
<g id="edge16_Node000012_Node000013" class="edge">
<title>Node12&#45;&gt;Node13</title>
<g id="a_edge16_Node000012_Node000013"><a xlink:title=" ">
<path fill="none" stroke="#63b8ff" d="M279.46,-131.25C268,-131.25 256.13,-131.25 245.07,-131.25"/>
<polygon fill="#63b8ff" stroke="#63b8ff" points="279.28,-134.75 289.28,-131.25 279.28,-127.75 279.28,-134.75"/>
</a>
</g>
</g>
<!-- Node15&#45;&gt;Node15 -->
<g id="edge20_Node000015_Node000015" class="edge">
<title>Node15&#45;&gt;Node15</title>
<g id="a_edge20_Node000015_Node000015"><a xlink:title=" ">
<path fill="none" stroke="#63b8ff" d="M365.52,-41.88C361.66,-45.83 353.4,-48.5 340.75,-48.5 318.26,-48.5 309.65,-40.06 314.92,-30.99"/>
<polygon fill="#63b8ff" stroke="#63b8ff" points="369.1,-42.28 366.58,-31.99 362.13,-41.6 369.1,-42.28"/>
</a>
</g>
</g>
<!-- Node16 -->
<g id="Node000016" class="node">
<title>Node16</title>
<g id="a_Node000016"><a xlink:href="../../d4/dfd/class_printer_file_system.html#a05b797157ff181f22e12253bc26aa1d5" target="_top" xlink:title=" ">
<polygon fill="white" stroke="#666666" points="245,-30.5 145,-30.5 145,0 245,0 245,-30.5"/>
<text text-anchor="start" x="153" y="-17" font-family="Helvetica,sans-Serif" font-size="10.00">PrinterFileSystem::</text>
<text text-anchor="middle" x="195" y="-5.75" font-family="Helvetica,sans-Serif" font-size="10.00">SetFocusRange</text>
</a>
</g>
</g>
<!-- Node15&#45;&gt;Node16 -->
<g id="edge19_Node000015_Node000016" class="edge">
<title>Node15&#45;&gt;Node16</title>
<g id="a_edge19_Node000015_Node000016"><a xlink:title=" ">
<path fill="none" stroke="#63b8ff" d="M270,-15.25C261.68,-15.25 253.33,-15.25 245.39,-15.25"/>
<polygon fill="#63b8ff" stroke="#63b8ff" points="269.87,-18.75 279.87,-15.25 269.87,-11.75 269.87,-18.75"/>
</a>
</g>
</g>
</g>
</svg>

<g id="navigator" transform="translate(0 0)" fill="#404254">
  <rect fill="#f2f5e9" fill-opacity="0.5" stroke="#606060" stroke-width=".5" x="0" y="0" width="60" height="60"/>
  <use id="zoomplus" xlink:href="#zoomPlus" x="17" y="9" onmousedown="handleZoom(evt,'in')"/>
  <use id="zoomminus" xlink:href="#zoomMin" x="42" y="9" onmousedown="handleZoom(evt,'out')"/>
  <use id="reset" xlink:href="#resetDef" x="30" y="36" onmousedown="handleReset()"/>
   <use id="arrowup" xlink:href="#arrowUp" x="0" y="0" onmousedown="handlePan(0,-1)"/>
  <use id="arrowright" xlink:href="#arrowRight" x="0" y="0" onmousedown="handlePan(1,0)"/>
  <use id="arrowdown" xlink:href="#arrowDown" x="0" y="0" onmousedown="handlePan(0,1)"/>
  <use id="arrowleft" xlink:href="#arrowLeft" x="0" y="0" onmousedown="handlePan(-1,0)"/>
</g>
<svg viewBox="0 0 15 15" width="100%" height="30px" preserveAspectRatio="xMaxYMin meet">
 <g id="arrow_out" transform="scale(0.3 0.3)">
  <a xlink:href="class_printer_file_system_a735f0d9db076e1c71adde8e90cb96dd1_icgraph_org.svg" target="_base">
   <rect id="button" ry="5" rx="5" y="6" x="6" height="38" width="38"
        fill="#f2f5e9" fill-opacity="0.5" stroke="#606060" stroke-width="1.0"/>
   <path id="arrow"
     d="M 11.500037,31.436501 C 11.940474,20.09759 22.043105,11.32322 32.158766,21.979434 L 37.068811,17.246167 C 37.068811,17.246167 37.088388,32 37.088388,32 L 22.160133,31.978069 C 22.160133,31.978069 26.997745,27.140456 26.997745,27.140456 C 18.528582,18.264221 13.291696,25.230495 11.500037,31.436501 z"
     style="fill:#404040;"/>
  </a>
 </g>
</svg>

<style type='text/css'>
<![CDATA[
[data-mouse-over-selected='false'] { opacity: 0.7; }
[data-mouse-over-selected='true']  { opacity: 1.0; }
]]>
</style>
<script type="application/ecmascript"><![CDATA[
document.addEventListener('DOMContentLoaded', (event) => {
  highlightEdges();
  highlightAdjacentNodes();
});
]]></script>
</svg>
