<?xml version="1.0" encoding="UTF-8" standalone="no"?>
<!DOCTYPE svg PUBLIC "-//W3C//DTD SVG 1.1//EN"
 "http://www.w3.org/Graphics/SVG/1.1/DTD/svg11.dtd">
<!-- Generated by graphviz version 8.1.0 (20230707.0739)
 -->
<!-- Title: PrinterFileSystem::DeleteFilesContinue Pages: 1 -->
<svg width="249pt" height="57pt"
 viewBox="0.00 0.00 248.50 56.50" xmlns="http://www.w3.org/2000/svg" xmlns:xlink="http://www.w3.org/1999/xlink">
<g id="graph0" class="graph" transform="scale(1 1) rotate(0) translate(4 52.5)">
<title>PrinterFileSystem::DeleteFilesContinue</title>
<!-- Node1 -->
<g id="Node000001" class="node">
<title>Node1</title>
<g id="a_Node000001"><a xlink:title=" ">
<polygon fill="#999999" stroke="#666666" points="240.5,-30.5 136,-30.5 136,0 240.5,0 240.5,-30.5"/>
<text text-anchor="start" x="144" y="-17" font-family="Helvetica,sans-Serif" font-size="10.00">PrinterFileSystem::</text>
<text text-anchor="middle" x="188.25" y="-5.75" font-family="Helvetica,sans-Serif" font-size="10.00">DeleteFilesContinue</text>
</a>
</g>
</g>
<!-- Node1&#45;&gt;Node1 -->
<g id="edge2_Node000001_Node000001" class="edge">
<title>Node1&#45;&gt;Node1</title>
<g id="a_edge2_Node000001_Node000001"><a xlink:title=" ">
<path fill="none" stroke="#63b8ff" d="M211.75,-41.88C208.08,-45.83 200.25,-48.5 188.25,-48.5 166.92,-48.5 158.75,-40.06 163.75,-30.99"/>
<polygon fill="#63b8ff" stroke="#63b8ff" points="215.32,-42.26 212.75,-31.99 208.35,-41.62 215.32,-42.26"/>
</a>
</g>
</g>
<!-- Node2 -->
<g id="Node000002" class="node">
<title>Node2</title>
<g id="a_Node000002"><a xlink:href="../../d4/dfd/class_printer_file_system.html#a5687e071849affd95010d377b0a1f965" target="_top" xlink:title=" ">
<polygon fill="white" stroke="#666666" points="100,-30.5 0,-30.5 0,0 100,0 100,-30.5"/>
<text text-anchor="start" x="8" y="-17" font-family="Helvetica,sans-Serif" font-size="10.00">PrinterFileSystem::</text>
<text text-anchor="middle" x="50" y="-5.75" font-family="Helvetica,sans-Serif" font-size="10.00">DeleteFiles</text>
</a>
</g>
</g>
<!-- Node1&#45;&gt;Node2 -->
<g id="edge1_Node000001_Node000002" class="edge">
<title>Node1&#45;&gt;Node2</title>
<g id="a_edge1_Node000001_Node000002"><a xlink:title=" ">
<path fill="none" stroke="#63b8ff" d="M124.98,-15.25C116.72,-15.25 108.34,-15.25 100.33,-15.25"/>
<polygon fill="#63b8ff" stroke="#63b8ff" points="124.74,-18.75 134.74,-15.25 124.74,-11.75 124.74,-18.75"/>
</a>
</g>
</g>
</g>
</svg>
