<?xml version="1.0" encoding="UTF-8" standalone="no"?>
<!DOCTYPE svg PUBLIC "-//W3C//DTD SVG 1.1//EN"
 "http://www.w3.org/Graphics/SVG/1.1/DTD/svg11.dtd">
<!-- Generated by graphviz version 8.1.0 (20230707.0739)
 -->
<!-- Title: Slic3r::PrintObjectRegions Pages: 1 -->
<svg width="1737pt" height="485pt"
 viewBox="0.00 0.00 1737.00 484.62" xmlns="http://www.w3.org/2000/svg" xmlns:xlink="http://www.w3.org/1999/xlink">
<g id="graph0" class="graph" transform="scale(1 1) rotate(0) translate(4 480.62)">
<title>Slic3r::PrintObjectRegions</title>
<!-- Node1 -->
<g id="Node000001" class="node">
<title>Node1</title>
<g id="a_Node000001"><a xlink:title=" ">
<polygon fill="#999999" stroke="#666666" points="1729,-148.62 1597.5,-148.62 1597.5,-129.38 1729,-129.38 1729,-148.62"/>
<text text-anchor="middle" x="1663.25" y="-135.12" font-family="Helvetica,sans-Serif" font-size="10.00">Slic3r::PrintObjectRegions</text>
</a>
</g>
</g>
<!-- Node2 -->
<g id="Node000002" class="node">
<title>Node2</title>
<g id="a_Node000002"><a xlink:title=" ">
<polygon fill="white" stroke="#666666" points="1258.25,-418.25 1117,-418.25 1117,-387.75 1258.25,-387.75 1258.25,-418.25"/>
<text text-anchor="start" x="1125" y="-404.75" font-family="Helvetica,sans-Serif" font-size="10.00">std::vector&lt; std::unique</text>
<text text-anchor="middle" x="1187.62" y="-393.5" font-family="Helvetica,sans-Serif" font-size="10.00">_ptr&lt; Slic3r::PrintRegion &gt; &gt;</text>
</a>
</g>
</g>
<!-- Node2&#45;&gt;Node1 -->
<g id="edge1_Node000001_Node000002" class="edge">
<title>Node2&#45;&gt;Node1</title>
<g id="a_edge1_Node000001_Node000002"><a xlink:title=" ">
<path fill="none" stroke="#9a32cd" stroke-dasharray="5,2" d="M1269.34,-396.73C1300.4,-392.21 1335.57,-384.41 1365.5,-371 1495.6,-312.7 1619.31,-185.46 1653.18,-148.96"/>
<polygon fill="#9a32cd" stroke="#9a32cd" points="1268.97,-393.39 1259.54,-398.2 1269.92,-400.32 1268.97,-393.39"/>
</a>
</g>
<text text-anchor="middle" x="1443.25" y="-362.75" font-family="Helvetica,sans-Serif" font-size="10.00" fill="grey"> all_regions</text>
</g>
<!-- Node3 -->
<g id="Node000003" class="node">
<title>Node3</title>
<g id="a_Node000003"><a xlink:title=" ">
<polygon fill="white" stroke="#666666" points="943.38,-474.25 829.12,-474.25 829.12,-443.75 943.38,-443.75 943.38,-474.25"/>
<text text-anchor="start" x="837.12" y="-460.75" font-family="Helvetica,sans-Serif" font-size="10.00">std::unique_ptr&lt; Slic3r</text>
<text text-anchor="middle" x="886.25" y="-449.5" font-family="Helvetica,sans-Serif" font-size="10.00">::PrintRegion &gt;</text>
</a>
</g>
</g>
<!-- Node3&#45;&gt;Node2 -->
<g id="edge2_Node000002_Node000003" class="edge">
<title>Node3&#45;&gt;Node2</title>
<g id="a_edge2_Node000002_Node000003"><a xlink:title=" ">
<path fill="none" stroke="#9a32cd" stroke-dasharray="5,2" d="M954.22,-446.47C1002.53,-437.44 1067.59,-425.27 1116.59,-416.1"/>
<polygon fill="#9a32cd" stroke="#9a32cd" points="953.75,-443.19 944.56,-448.47 955.03,-450.07 953.75,-443.19"/>
</a>
</g>
<text text-anchor="middle" x="1035.25" y="-443.75" font-family="Helvetica,sans-Serif" font-size="10.00" fill="grey"> elements</text>
</g>
<!-- Node4 -->
<g id="Node000004" class="node">
<title>Node4</title>
<g id="a_Node000004"><a xlink:href="../../d4/df8/class_slic3r_1_1_print_region.html" target="_top" xlink:title=" ">
<polygon fill="white" stroke="#666666" points="397.25,-339.62 299.5,-339.62 299.5,-320.38 397.25,-320.38 397.25,-339.62"/>
<text text-anchor="middle" x="348.38" y="-326.12" font-family="Helvetica,sans-Serif" font-size="10.00">Slic3r::PrintRegion</text>
</a>
</g>
</g>
<!-- Node4&#45;&gt;Node3 -->
<g id="edge3_Node000003_Node000004" class="edge">
<title>Node4&#45;&gt;Node3</title>
<g id="a_edge3_Node000003_Node000004"><a xlink:title=" ">
<path fill="none" stroke="#9a32cd" stroke-dasharray="5,2" d="M365.55,-347.82C382.34,-365.06 410.28,-390.38 440,-403 475.09,-417.9 716.85,-442.76 828.7,-453.63"/>
<polygon fill="#9a32cd" stroke="#9a32cd" points="368.65,-345.95 359.24,-341.09 363.57,-350.76 368.65,-345.95"/>
</a>
</g>
<text text-anchor="middle" x="589.75" y="-436.75" font-family="Helvetica,sans-Serif" font-size="10.00" fill="grey"> ptr</text>
</g>
<!-- Node39 -->
<g id="Node000039" class="node">
<title>Node39</title>
<g id="a_Node000039"><a xlink:href="../../d1/d8e/class_slic3r_1_1_print_object_regions.html#da/dbf/struct_slic3r_1_1_print_object_regions_1_1_volume_region" target="_top" xlink:title=" ">
<polygon fill="white" stroke="#666666" points="655.5,-244.25 524,-244.25 524,-213.75 655.5,-213.75 655.5,-244.25"/>
<text text-anchor="start" x="532" y="-230.75" font-family="Helvetica,sans-Serif" font-size="10.00">Slic3r::PrintObjectRegions</text>
<text text-anchor="middle" x="589.75" y="-219.5" font-family="Helvetica,sans-Serif" font-size="10.00">::VolumeRegion</text>
</a>
</g>
</g>
<!-- Node4&#45;&gt;Node39 -->
<g id="edge24_Node000039_Node000004" class="edge">
<title>Node4&#45;&gt;Node39</title>
<g id="a_edge24_Node000039_Node000004"><a xlink:title=" ">
<path fill="none" stroke="#9a32cd" stroke-dasharray="5,2" d="M386.4,-316.11C418.31,-303.95 465.49,-285.54 506,-268 522.91,-260.68 541.48,-251.98 556.74,-244.67"/>
<polygon fill="#9a32cd" stroke="#9a32cd" points="385.3,-313.16 377.19,-319.98 387.78,-319.7 385.3,-313.16"/>
</a>
</g>
<text text-anchor="middle" x="473" y="-295.75" font-family="Helvetica,sans-Serif" font-size="10.00" fill="grey"> region</text>
</g>
<!-- Node125 -->
<g id="Node000125" class="node">
<title>Node125</title>
<g id="a_Node000125"><a xlink:href="../../d1/d8e/class_slic3r_1_1_print_object_regions.html#d1/db7/struct_slic3r_1_1_print_object_regions_1_1_painted_region" target="_top" xlink:title=" ">
<polygon fill="white" stroke="#666666" points="655.5,-322.25 524,-322.25 524,-291.75 655.5,-291.75 655.5,-322.25"/>
<text text-anchor="start" x="532" y="-308.75" font-family="Helvetica,sans-Serif" font-size="10.00">Slic3r::PrintObjectRegions</text>
<text text-anchor="middle" x="589.75" y="-297.5" font-family="Helvetica,sans-Serif" font-size="10.00">::PaintedRegion</text>
</a>
</g>
</g>
<!-- Node4&#45;&gt;Node125 -->
<g id="edge30_Node000125_Node000004" class="edge">
<title>Node4&#45;&gt;Node125</title>
<g id="a_edge30_Node000125_Node000004"><a xlink:title=" ">
<path fill="none" stroke="#9a32cd" stroke-dasharray="5,2" d="M408.09,-324.36C443.16,-320.99 487.77,-316.7 523.89,-313.23"/>
<polygon fill="#9a32cd" stroke="#9a32cd" points="408.15,-320.93 398.53,-325.37 408.82,-327.9 408.15,-320.93"/>
</a>
</g>
<text text-anchor="middle" x="473" y="-322.75" font-family="Helvetica,sans-Serif" font-size="10.00" fill="grey"> region</text>
</g>
<!-- Node5 -->
<g id="Node000005" class="node">
<title>Node5</title>
<g id="a_Node000005"><a xlink:title=" ">
<polygon fill="white" stroke="#666666" points="642,-476.62 537.5,-476.62 537.5,-457.38 642,-457.38 642,-476.62"/>
<text text-anchor="middle" x="589.75" y="-463.12" font-family="Helvetica,sans-Serif" font-size="10.00">std::unique_ptr&lt; T &gt;</text>
</a>
</g>
</g>
<!-- Node5&#45;&gt;Node3 -->
<g id="edge4_Node000003_Node000005" class="edge">
<title>Node5&#45;&gt;Node3</title>
<g id="a_edge4_Node000003_Node000005"><a xlink:title=" ">
<path fill="none" stroke="orange" stroke-dasharray="5,2" d="M653.13,-465.31C705.06,-463.89 778.38,-461.9 828.64,-460.54"/>
<polygon fill="orange" stroke="orange" points="653.29,-461.83 643.38,-465.6 653.48,-468.82 653.29,-461.83"/>
</a>
</g>
<text text-anchor="middle" x="737.25" y="-465.75" font-family="Helvetica,sans-Serif" font-size="10.00" fill="grey"> &lt; Slic3r::PrintRegion &gt;</text>
</g>
<!-- Node6 -->
<g id="Node000006" class="node">
<title>Node6</title>
<g id="a_Node000006"><a xlink:title=" ">
<polygon fill="white" stroke="#666666" points="362.77,-422.62 333.98,-422.62 333.98,-403.38 362.77,-403.38 362.77,-422.62"/>
<text text-anchor="middle" x="348.38" y="-409.12" font-family="Helvetica,sans-Serif" font-size="10.00">T</text>
</a>
</g>
</g>
<!-- Node6&#45;&gt;Node5 -->
<g id="edge5_Node000005_Node000006" class="edge">
<title>Node6&#45;&gt;Node5</title>
<g id="a_edge5_Node000005_Node000006"><a xlink:title=" ">
<path fill="none" stroke="#9a32cd" stroke-dasharray="5,2" d="M373.24,-421.67C391.36,-428 417,-436.42 440,-442 471.94,-449.75 508.31,-455.91 537.09,-460.18"/>
<polygon fill="#9a32cd" stroke="#9a32cd" points="374.61,-418.09 364.02,-418.04 372.27,-424.69 374.61,-418.09"/>
</a>
</g>
<text text-anchor="middle" x="473" y="-456.75" font-family="Helvetica,sans-Serif" font-size="10.00" fill="grey"> ptr</text>
</g>
<!-- Node7 -->
<g id="Node000007" class="node">
<title>Node7</title>
<g id="a_Node000007"><a xlink:title=" ">
<polygon fill="white" stroke="#666666" points="633,-359.62 546.5,-359.62 546.5,-340.38 633,-340.38 633,-359.62"/>
<text text-anchor="middle" x="589.75" y="-346.12" font-family="Helvetica,sans-Serif" font-size="10.00">std::vector&lt; T &gt;</text>
</a>
</g>
</g>
<!-- Node6&#45;&gt;Node7 -->
<g id="edge7_Node000007_Node000006" class="edge">
<title>Node6&#45;&gt;Node7</title>
<g id="a_edge7_Node000007_Node000006"><a xlink:title=" ">
<path fill="none" stroke="#9a32cd" stroke-dasharray="5,2" d="M373.44,-406.67C415.09,-395.7 500.93,-373.11 550.73,-360.01"/>
<polygon fill="#9a32cd" stroke="#9a32cd" points="372.71,-403.5 363.93,-409.43 374.49,-410.27 372.71,-403.5"/>
</a>
</g>
<text text-anchor="middle" x="473" y="-389.75" font-family="Helvetica,sans-Serif" font-size="10.00" fill="grey"> elements</text>
</g>
<!-- Node7&#45;&gt;Node2 -->
<g id="edge6_Node000002_Node000007" class="edge">
<title>Node7&#45;&gt;Node2</title>
<g id="a_edge6_Node000002_Node000007"><a xlink:title=" ">
<path fill="none" stroke="orange" stroke-dasharray="5,2" d="M615.95,-365.23C631.85,-373.98 653.16,-384.15 673.5,-389 755.53,-408.54 996.7,-406.84 1116.89,-404.63"/>
<polygon fill="orange" stroke="orange" points="618.23,-361.93 607.81,-360.03 614.77,-368.02 618.23,-361.93"/>
</a>
</g>
<text text-anchor="start" x="834.88" y="-418" font-family="Helvetica,sans-Serif" font-size="10.00" fill="grey"> &lt; std::unique_ptr&lt;</text>
<text text-anchor="middle" x="886.25" y="-406.75" font-family="Helvetica,sans-Serif" font-size="10.00" fill="grey"> Slic3r::PrintRegion &gt; &gt;</text>
</g>
<!-- Node8 -->
<g id="Node000008" class="node">
<title>Node8</title>
<g id="a_Node000008"><a xlink:title=" ">
<polygon fill="white" stroke="#666666" points="1503,-229.88 1383.5,-229.88 1383.5,-188.12 1503,-188.12 1503,-229.88"/>
<text text-anchor="start" x="1391.5" y="-216.38" font-family="Helvetica,sans-Serif" font-size="10.00">std::vector&lt; Slic3r</text>
<text text-anchor="start" x="1391.5" y="-205.12" font-family="Helvetica,sans-Serif" font-size="10.00">::PrintObjectRegions</text>
<text text-anchor="middle" x="1443.25" y="-193.88" font-family="Helvetica,sans-Serif" font-size="10.00">::LayerRangeRegions &gt;</text>
</a>
</g>
</g>
<!-- Node7&#45;&gt;Node8 -->
<g id="edge32_Node000008_Node000007" class="edge">
<title>Node7&#45;&gt;Node8</title>
<g id="a_edge32_Node000008_Node000007"><a xlink:title=" ">
<path fill="none" stroke="orange" stroke-dasharray="5,2" d="M643.97,-359.61C653.76,-361.02 663.91,-362.25 673.5,-363 729.99,-367.41 744.55,-367.96 801,-363 1019.98,-343.76 1271.2,-266.76 1383.11,-229.46"/>
<polygon fill="orange" stroke="orange" points="644.54,-356 634.12,-357.96 643.48,-362.92 644.54,-356"/>
</a>
</g>
<text text-anchor="start" x="971.5" y="-351" font-family="Helvetica,sans-Serif" font-size="10.00" fill="grey"> &lt; Slic3r::PrintObjectRegions</text>
<text text-anchor="middle" x="1035.25" y="-339.75" font-family="Helvetica,sans-Serif" font-size="10.00" fill="grey">::LayerRangeRegions &gt;</text>
</g>
<!-- Node21 -->
<g id="Node000021" class="node">
<title>Node21</title>
<g id="a_Node000021"><a xlink:title=" ">
<polygon fill="white" stroke="#666666" points="939.62,-199.88 832.88,-199.88 832.88,-158.12 939.62,-158.12 939.62,-199.88"/>
<text text-anchor="start" x="840.88" y="-186.38" font-family="Helvetica,sans-Serif" font-size="10.00">std::vector&lt; Slic3r</text>
<text text-anchor="start" x="840.88" y="-175.12" font-family="Helvetica,sans-Serif" font-size="10.00">::PrintObjectRegions</text>
<text text-anchor="middle" x="886.25" y="-163.88" font-family="Helvetica,sans-Serif" font-size="10.00">::VolumeExtents &gt;</text>
</a>
</g>
</g>
<!-- Node7&#45;&gt;Node21 -->
<g id="edge19_Node000021_Node000007" class="edge">
<title>Node7&#45;&gt;Node21</title>
<g id="a_edge19_Node000021_Node000007"><a xlink:title=" ">
<path fill="none" stroke="orange" stroke-dasharray="5,2" d="M643.35,-340.63C647.92,-338.11 652.1,-334.96 655.5,-331 694.51,-285.58 630.18,-238.83 673.5,-197.5 715.15,-157.76 784.67,-159.58 832.63,-167.07"/>
<polygon fill="orange" stroke="orange" points="642.26,-337.72 634.5,-344.93 645.06,-344.13 642.26,-337.72"/>
</a>
</g>
<text text-anchor="start" x="673.5" y="-210" font-family="Helvetica,sans-Serif" font-size="10.00" fill="grey"> &lt; Slic3r::PrintObjectRegions</text>
<text text-anchor="middle" x="737.25" y="-198.75" font-family="Helvetica,sans-Serif" font-size="10.00" fill="grey">::VolumeExtents &gt;</text>
</g>
<!-- Node38 -->
<g id="Node000038" class="node">
<title>Node38</title>
<g id="a_Node000038"><a xlink:title=" ">
<polygon fill="white" stroke="#666666" points="939.62,-259.88 832.88,-259.88 832.88,-218.12 939.62,-218.12 939.62,-259.88"/>
<text text-anchor="start" x="840.88" y="-246.38" font-family="Helvetica,sans-Serif" font-size="10.00">std::vector&lt; Slic3r</text>
<text text-anchor="start" x="840.88" y="-235.12" font-family="Helvetica,sans-Serif" font-size="10.00">::PrintObjectRegions</text>
<text text-anchor="middle" x="886.25" y="-223.88" font-family="Helvetica,sans-Serif" font-size="10.00">::VolumeRegion &gt;</text>
</a>
</g>
</g>
<!-- Node7&#45;&gt;Node38 -->
<g id="edge27_Node000038_Node000007" class="edge">
<title>Node7&#45;&gt;Node38</title>
<g id="a_edge27_Node000038_Node000007"><a xlink:title=" ">
<path fill="none" stroke="orange" stroke-dasharray="5,2" d="M643.3,-339.51C647.75,-337.21 651.92,-334.41 655.5,-331 673.08,-314.3 655.14,-295.34 673.5,-279.5 696.88,-259.33 778.09,-248.34 832.87,-243.07"/>
<polygon fill="orange" stroke="orange" points="642.05,-336.66 634.2,-343.79 644.78,-343.11 642.05,-336.66"/>
</a>
</g>
<text text-anchor="start" x="673.5" y="-292" font-family="Helvetica,sans-Serif" font-size="10.00" fill="grey"> &lt; Slic3r::PrintObjectRegions</text>
<text text-anchor="middle" x="737.25" y="-280.75" font-family="Helvetica,sans-Serif" font-size="10.00" fill="grey">::VolumeRegion &gt;</text>
</g>
<!-- Node124 -->
<g id="Node000124" class="node">
<title>Node124</title>
<g id="a_Node000124"><a xlink:title=" ">
<polygon fill="white" stroke="#666666" points="939.62,-326.88 832.88,-326.88 832.88,-285.12 939.62,-285.12 939.62,-326.88"/>
<text text-anchor="start" x="840.88" y="-313.38" font-family="Helvetica,sans-Serif" font-size="10.00">std::vector&lt; Slic3r</text>
<text text-anchor="start" x="840.88" y="-302.12" font-family="Helvetica,sans-Serif" font-size="10.00">::PrintObjectRegions</text>
<text text-anchor="middle" x="886.25" y="-290.88" font-family="Helvetica,sans-Serif" font-size="10.00">::PaintedRegion &gt;</text>
</a>
</g>
</g>
<!-- Node7&#45;&gt;Node124 -->
<g id="edge31_Node000124_Node000007" class="edge">
<title>Node7&#45;&gt;Node124</title>
<g id="a_edge31_Node000124_Node000007"><a xlink:title=" ">
<path fill="none" stroke="orange" stroke-dasharray="5,2" d="M643.88,-342.06C697.33,-334.08 779.25,-321.84 832.55,-313.87"/>
<polygon fill="orange" stroke="orange" points="643.63,-338.71 634.26,-343.65 644.67,-345.63 643.63,-338.71"/>
</a>
</g>
<text text-anchor="start" x="673.5" y="-349" font-family="Helvetica,sans-Serif" font-size="10.00" fill="grey"> &lt; Slic3r::PrintObjectRegions</text>
<text text-anchor="middle" x="737.25" y="-337.75" font-family="Helvetica,sans-Serif" font-size="10.00" fill="grey">::PaintedRegion &gt;</text>
</g>
<!-- Node72 -->
<g id="Node000072" class="node">
<title>Node72</title>
<g id="a_Node000072"><a xlink:title=" ">
<polygon fill="white" stroke="#666666" points="934.38,-102.25 838.12,-102.25 838.12,-71.75 934.38,-71.75 934.38,-102.25"/>
<text text-anchor="start" x="846.12" y="-88.75" font-family="Helvetica,sans-Serif" font-size="10.00">std::vector&lt; Slic3r</text>
<text text-anchor="middle" x="886.25" y="-77.5" font-family="Helvetica,sans-Serif" font-size="10.00">::ObjectID &gt;</text>
</a>
</g>
</g>
<!-- Node7&#45;&gt;Node72 -->
<g id="edge36_Node000072_Node000007" class="edge">
<title>Node7&#45;&gt;Node72</title>
<g id="a_edge36_Node000072_Node000007"><a xlink:title=" ">
<path fill="none" stroke="orange" stroke-dasharray="5,2" d="M643.36,-340.89C647.97,-338.33 652.15,-335.09 655.5,-331 684.78,-295.23 642.23,-157.8 673.5,-123.75 714.63,-78.95 789.23,-76.3 838,-80.29"/>
<polygon fill="orange" stroke="orange" points="642.16,-338.03 634.4,-345.25 644.97,-344.44 642.16,-338.03"/>
</a>
</g>
<text text-anchor="middle" x="737.25" y="-124.75" font-family="Helvetica,sans-Serif" font-size="10.00" fill="grey"> &lt; Slic3r::ObjectID &gt;</text>
</g>
<!-- Node8&#45;&gt;Node1 -->
<g id="edge8_Node000001_Node000008" class="edge">
<title>Node8&#45;&gt;Node1</title>
<g id="a_edge8_Node000001_Node000008"><a xlink:title=" ">
<path fill="none" stroke="#9a32cd" stroke-dasharray="5,2" d="M1513.59,-186.74C1552.95,-174.1 1600.3,-158.89 1630.82,-149.09"/>
<polygon fill="#9a32cd" stroke="#9a32cd" points="1512.7,-183.67 1504.24,-190.06 1514.84,-190.33 1512.7,-183.67"/>
</a>
</g>
<text text-anchor="middle" x="1550.25" y="-183.75" font-family="Helvetica,sans-Serif" font-size="10.00" fill="grey"> layer_ranges</text>
</g>
<!-- Node9 -->
<g id="Node000009" class="node">
<title>Node9</title>
<g id="a_Node000009"><a xlink:href="../../d1/d03/struct_slic3r_1_1_print_object_regions_1_1_layer_range_regions.html" target="_top" xlink:title=" ">
<polygon fill="white" stroke="#666666" points="1253.38,-224.25 1121.88,-224.25 1121.88,-193.75 1253.38,-193.75 1253.38,-224.25"/>
<text text-anchor="start" x="1129.88" y="-210.75" font-family="Helvetica,sans-Serif" font-size="10.00">Slic3r::PrintObjectRegions</text>
<text text-anchor="middle" x="1187.62" y="-199.5" font-family="Helvetica,sans-Serif" font-size="10.00">::LayerRangeRegions</text>
</a>
</g>
</g>
<!-- Node9&#45;&gt;Node8 -->
<g id="edge9_Node000008_Node000009" class="edge">
<title>Node9&#45;&gt;Node8</title>
<g id="a_edge9_Node000008_Node000009"><a xlink:title=" ">
<path fill="none" stroke="#9a32cd" stroke-dasharray="5,2" d="M1264.13,-209C1302.16,-209 1347.61,-209 1383.08,-209"/>
<polygon fill="#9a32cd" stroke="#9a32cd" points="1264.61,-205.5 1254.61,-209 1264.61,-212.5 1264.61,-205.5"/>
</a>
</g>
<text text-anchor="middle" x="1320.88" y="-210.75" font-family="Helvetica,sans-Serif" font-size="10.00" fill="grey"> elements</text>
</g>
<!-- Node10 -->
<g id="Node000010" class="node">
<title>Node10</title>
<g id="a_Node000010"><a xlink:href="../../d8/dea/class_slic3r_1_1_dynamic_print_config.html" target="_top" xlink:title=" ">
<polygon fill="white" stroke="#666666" points="953.5,-139.62 819,-139.62 819,-120.38 953.5,-120.38 953.5,-139.62"/>
<text text-anchor="middle" x="886.25" y="-126.12" font-family="Helvetica,sans-Serif" font-size="10.00">Slic3r::DynamicPrintConfig</text>
</a>
</g>
</g>
<!-- Node10&#45;&gt;Node9 -->
<g id="edge10_Node000009_Node000010" class="edge">
<title>Node10&#45;&gt;Node9</title>
<g id="a_edge10_Node000009_Node000010"><a xlink:title=" ">
<path fill="none" stroke="#9a32cd" stroke-dasharray="5,2" d="M964.62,-140.67C1005.17,-147.31 1055.35,-157.21 1099,-170.75 1118.18,-176.7 1138.81,-185.57 1155.23,-193.27"/>
<polygon fill="#9a32cd" stroke="#9a32cd" points="965.42,-137.09 954.99,-138.96 964.31,-144 965.42,-137.09"/>
</a>
</g>
<text text-anchor="middle" x="1035.25" y="-171.75" font-family="Helvetica,sans-Serif" font-size="10.00" fill="grey"> config</text>
</g>
<!-- Node11 -->
<g id="Node000011" class="node">
<title>Node11</title>
<g id="a_Node000011"><a xlink:href="../../d5/df0/class_slic3r_1_1_dynamic_config.html" target="_top" xlink:title=" ">
<polygon fill="white" stroke="#666666" points="646.88,-116.62 532.62,-116.62 532.62,-97.38 646.88,-97.38 646.88,-116.62"/>
<text text-anchor="middle" x="589.75" y="-103.12" font-family="Helvetica,sans-Serif" font-size="10.00">Slic3r::DynamicConfig</text>
</a>
</g>
</g>
<!-- Node11&#45;&gt;Node10 -->
<g id="edge11_Node000010_Node000011" class="edge">
<title>Node11&#45;&gt;Node10</title>
<g id="a_edge11_Node000010_Node000011"><a xlink:title=" ">
<path fill="none" stroke="#63b8ff" d="M658.12,-112.26C706.27,-116.02 770.75,-121.06 818.7,-124.8"/>
<polygon fill="#63b8ff" stroke="#63b8ff" points="658.43,-108.7 648.18,-111.41 657.88,-115.68 658.43,-108.7"/>
</a>
</g>
</g>
<!-- Node12 -->
<g id="Node000012" class="node">
<title>Node12</title>
<g id="a_Node000012"><a xlink:href="../../d9/d06/class_slic3r_1_1_config_base.html" target="_top" xlink:title=" ">
<polygon fill="#fff0f0" stroke="red" points="397.25,-47.62 299.5,-47.62 299.5,-28.38 397.25,-28.38 397.25,-47.62"/>
<text text-anchor="middle" x="348.38" y="-34.12" font-family="Helvetica,sans-Serif" font-size="10.00">Slic3r::ConfigBase</text>
</a>
</g>
</g>
<!-- Node12&#45;&gt;Node11 -->
<g id="edge12_Node000011_Node000012" class="edge">
<title>Node12&#45;&gt;Node11</title>
<g id="a_edge12_Node000011_Node000012"><a xlink:title=" ">
<path fill="none" stroke="#63b8ff" d="M402.14,-50.72C408.84,-52.44 415.59,-54.23 422,-56 469.56,-69.16 524.16,-86.23 557.55,-96.91"/>
<polygon fill="#63b8ff" stroke="#63b8ff" points="403.27,-47.15 392.72,-48.09 401.55,-53.93 403.27,-47.15"/>
</a>
</g>
</g>
<!-- Node14 -->
<g id="Node000014" class="node">
<title>Node14</title>
<g id="a_Node000014"><a xlink:title=" ">
<polygon fill="#fff0f0" stroke="red" points="422,-144.88 274.75,-144.88 274.75,-103.12 422,-103.12 422,-144.88"/>
<text text-anchor="start" x="282.75" y="-131.38" font-family="Helvetica,sans-Serif" font-size="10.00">std::map&lt; t_config</text>
<text text-anchor="start" x="282.75" y="-120.12" font-family="Helvetica,sans-Serif" font-size="10.00">_option_key, std::unique</text>
<text text-anchor="middle" x="348.38" y="-108.88" font-family="Helvetica,sans-Serif" font-size="10.00">_ptr&lt; Slic3r::ConfigOption &gt; &gt;</text>
</a>
</g>
</g>
<!-- Node14&#45;&gt;Node11 -->
<g id="edge13_Node000011_Node000014" class="edge">
<title>Node14&#45;&gt;Node11</title>
<g id="a_edge13_Node000011_Node000014"><a xlink:title=" ">
<path fill="none" stroke="#9a32cd" stroke-dasharray="5,2" d="M432.78,-112.4C435.21,-112.17 437.62,-111.95 440,-111.75 470.38,-109.22 504.36,-108.01 532.16,-107.45"/>
<polygon fill="#9a32cd" stroke="#9a32cd" points="432.6,-109 423.02,-113.51 433.32,-115.96 432.6,-109"/>
</a>
</g>
<text text-anchor="middle" x="473" y="-112.75" font-family="Helvetica,sans-Serif" font-size="10.00" fill="grey"> options</text>
</g>
<!-- Node21&#45;&gt;Node9 -->
<g id="edge14_Node000009_Node000021" class="edge">
<title>Node21&#45;&gt;Node9</title>
<g id="a_edge14_Node000009_Node000021"><a xlink:title=" ">
<path fill="none" stroke="#9a32cd" stroke-dasharray="5,2" d="M950.85,-184.54C992.92,-188.3 1049.28,-193.52 1099,-198.75 1106.31,-199.52 1113.96,-200.36 1121.57,-201.22"/>
<polygon fill="#9a32cd" stroke="#9a32cd" points="951.2,-180.97 940.93,-183.57 950.58,-187.94 951.2,-180.97"/>
</a>
</g>
<text text-anchor="middle" x="1035.25" y="-199.75" font-family="Helvetica,sans-Serif" font-size="10.00" fill="grey"> volumes</text>
</g>
<!-- Node22 -->
<g id="Node000022" class="node">
<title>Node22</title>
<g id="a_Node000022"><a xlink:href="../../d1/d8e/class_slic3r_1_1_print_object_regions.html#d1/dee/struct_slic3r_1_1_print_object_regions_1_1_volume_extents" target="_top" xlink:title=" ">
<polygon fill="white" stroke="#666666" points="655.5,-165.25 524,-165.25 524,-134.75 655.5,-134.75 655.5,-165.25"/>
<text text-anchor="start" x="532" y="-151.75" font-family="Helvetica,sans-Serif" font-size="10.00">Slic3r::PrintObjectRegions</text>
<text text-anchor="middle" x="589.75" y="-140.5" font-family="Helvetica,sans-Serif" font-size="10.00">::VolumeExtents</text>
</a>
</g>
</g>
<!-- Node22&#45;&gt;Node21 -->
<g id="edge15_Node000021_Node000022" class="edge">
<title>Node22&#45;&gt;Node21</title>
<g id="a_edge15_Node000021_Node000022"><a xlink:title=" ">
<path fill="none" stroke="#9a32cd" stroke-dasharray="5,2" d="M666.53,-141.65C706.79,-139.02 756.94,-138.6 801,-146.75 813.47,-149.06 826.49,-153.13 838.45,-157.63"/>
<polygon fill="#9a32cd" stroke="#9a32cd" points="666.44,-138.22 656.71,-142.43 666.94,-145.21 666.44,-138.22"/>
</a>
</g>
<text text-anchor="middle" x="737.25" y="-147.75" font-family="Helvetica,sans-Serif" font-size="10.00" fill="grey"> elements</text>
</g>
<!-- Node23 -->
<g id="Node000023" class="node">
<title>Node23</title>
<g id="a_Node000023"><a xlink:href="../../d5/dd3/class_slic3r_1_1_object_i_d.html" target="_top" xlink:title=" ">
<polygon fill="white" stroke="#666666" points="391.25,-84.62 305.5,-84.62 305.5,-65.38 391.25,-65.38 391.25,-84.62"/>
<text text-anchor="middle" x="348.38" y="-71.12" font-family="Helvetica,sans-Serif" font-size="10.00">Slic3r::ObjectID</text>
</a>
</g>
</g>
<!-- Node23&#45;&gt;Node22 -->
<g id="edge16_Node000022_Node000023" class="edge">
<title>Node23&#45;&gt;Node22</title>
<g id="a_edge16_Node000022_Node000023"><a xlink:title=" ">
<path fill="none" stroke="#9a32cd" stroke-dasharray="5,2" d="M402.18,-83.68C409.24,-86.27 416.08,-89.63 422,-94 434.21,-103.01 427.46,-114.47 440,-123 453.73,-132.34 490.21,-139.04 523.6,-143.43"/>
<polygon fill="#9a32cd" stroke="#9a32cd" points="403.33,-80.06 392.74,-80.4 401.24,-86.74 403.33,-80.06"/>
</a>
</g>
<text text-anchor="middle" x="473" y="-141.75" font-family="Helvetica,sans-Serif" font-size="10.00" fill="grey"> volume_id</text>
</g>
<!-- Node23&#45;&gt;Node72 -->
<g id="edge35_Node000072_Node000023" class="edge">
<title>Node23&#45;&gt;Node72</title>
<g id="a_edge35_Node000072_Node000023"><a xlink:title=" ">
<path fill="none" stroke="#9a32cd" stroke-dasharray="5,2" d="M402.31,-72.93C486.73,-70.13 657.05,-66.48 801,-76 812.92,-76.79 825.73,-78.18 837.68,-79.71"/>
<polygon fill="#9a32cd" stroke="#9a32cd" points="402.34,-69.46 392.46,-73.31 402.58,-76.46 402.34,-69.46"/>
</a>
</g>
<text text-anchor="middle" x="589.75" y="-72.75" font-family="Helvetica,sans-Serif" font-size="10.00" fill="grey"> elements</text>
</g>
<!-- Node24 -->
<g id="Node000024" class="node">
<title>Node24</title>
<g id="a_Node000024"><a xlink:href="../../d5/d00/group___geometry___module.html" target="_top" xlink:title=" ">
<polygon fill="#fff0f0" stroke="red" points="399.5,-193.25 297.25,-193.25 297.25,-162.75 399.5,-162.75 399.5,-193.25"/>
<text text-anchor="start" x="305.25" y="-179.75" font-family="Helvetica,sans-Serif" font-size="10.00">Eigen::AlignedBox&lt;</text>
<text text-anchor="middle" x="348.38" y="-168.5" font-family="Helvetica,sans-Serif" font-size="10.00"> float, 3 &gt;</text>
</a>
</g>
</g>
<!-- Node24&#45;&gt;Node22 -->
<g id="edge17_Node000022_Node000024" class="edge">
<title>Node24&#45;&gt;Node22</title>
<g id="a_edge17_Node000022_Node000024"><a xlink:title=" ">
<path fill="none" stroke="#9a32cd" stroke-dasharray="5,2" d="M410.76,-170.82C445.37,-166.77 488.59,-161.72 523.77,-157.6"/>
<polygon fill="#9a32cd" stroke="#9a32cd" points="410.37,-167.46 400.85,-172.1 411.19,-174.41 410.37,-167.46"/>
</a>
</g>
<text text-anchor="middle" x="473" y="-168.75" font-family="Helvetica,sans-Serif" font-size="10.00" fill="grey"> bbox</text>
</g>
<!-- Node37 -->
<g id="Node000037" class="node">
<title>Node37</title>
<g id="a_Node000037"><a xlink:href="../../d5/d00/group___geometry___module.html#d6/d9a/class_eigen_1_1_aligned_box" target="_top" xlink:title="An axis aligned box.">
<polygon fill="#fff0f0" stroke="red" points="128.5,-219.25 3,-219.25 3,-188.75 128.5,-188.75 128.5,-219.25"/>
<text text-anchor="start" x="11" y="-205.75" font-family="Helvetica,sans-Serif" font-size="10.00">Eigen::AlignedBox&lt;</text>
<text text-anchor="middle" x="65.75" y="-194.5" font-family="Helvetica,sans-Serif" font-size="10.00"> _Scalar, _AmbientDim &gt;</text>
</a>
</g>
</g>
<!-- Node37&#45;&gt;Node24 -->
<g id="edge18_Node000024_Node000037" class="edge">
<title>Node37&#45;&gt;Node24</title>
<g id="a_edge18_Node000024_Node000037"><a xlink:title=" ">
<path fill="none" stroke="orange" stroke-dasharray="5,2" d="M139.62,-197.25C189,-192.67 253,-186.74 296.84,-182.68"/>
<polygon fill="orange" stroke="orange" points="139.32,-193.85 129.68,-198.26 139.96,-200.82 139.32,-193.85"/>
</a>
</g>
<text text-anchor="middle" x="203.12" y="-197.75" font-family="Helvetica,sans-Serif" font-size="10.00" fill="grey"> &lt; float, 3 &gt;</text>
</g>
<!-- Node37&#45;&gt;Node39 -->
<g id="edge25_Node000039_Node000037" class="edge">
<title>Node37&#45;&gt;Node39</title>
<g id="a_edge25_Node000039_Node000037"><a xlink:title=" ">
<path fill="none" stroke="#9a32cd" stroke-dasharray="5,2" d="M139.5,-210.33C142.88,-210.57 146.22,-210.79 149.5,-211 282.23,-219.33 437.78,-224.66 523.59,-227.21"/>
<polygon fill="#9a32cd" stroke="#9a32cd" points="139.86,-206.78 129.63,-209.53 139.35,-213.76 139.86,-206.78"/>
</a>
</g>
<text text-anchor="middle" x="348.38" y="-224.75" font-family="Helvetica,sans-Serif" font-size="10.00" fill="grey"> bbox</text>
</g>
<!-- Node38&#45;&gt;Node9 -->
<g id="edge20_Node000009_Node000038" class="edge">
<title>Node38&#45;&gt;Node9</title>
<g id="a_edge20_Node000009_Node000038"><a xlink:title=" ">
<path fill="none" stroke="#9a32cd" stroke-dasharray="5,2" d="M950.81,-232.63C1001.05,-227.6 1070.91,-220.6 1121.54,-215.52"/>
<polygon fill="#9a32cd" stroke="#9a32cd" points="950.68,-229.23 941.08,-233.71 951.38,-236.19 950.68,-229.23"/>
</a>
</g>
<text text-anchor="middle" x="1035.25" y="-231.75" font-family="Helvetica,sans-Serif" font-size="10.00" fill="grey"> volume_regions</text>
</g>
<!-- Node39&#45;&gt;Node38 -->
<g id="edge21_Node000038_Node000039" class="edge">
<title>Node39&#45;&gt;Node38</title>
<g id="a_edge21_Node000038_Node000039"><a xlink:title=" ">
<path fill="none" stroke="#9a32cd" stroke-dasharray="5,2" d="M666.47,-225.16C706.51,-223.9 756.48,-223.53 801,-226.75 811.32,-227.5 822.29,-228.75 832.8,-230.18"/>
<polygon fill="#9a32cd" stroke="#9a32cd" points="666.59,-221.69 656.71,-225.53 666.83,-228.69 666.59,-221.69"/>
</a>
</g>
<text text-anchor="middle" x="737.25" y="-227.75" font-family="Helvetica,sans-Serif" font-size="10.00" fill="grey"> elements</text>
</g>
<!-- Node39&#45;&gt;Node39 -->
<g id="edge26_Node000039_Node000039" class="edge">
<title>Node39&#45;&gt;Node39</title>
<g id="a_edge26_Node000039_Node000039"><a xlink:title=" ">
<path fill="none" stroke="#9a32cd" stroke-dasharray="5,2" d="M569.9,-255.63C573,-259.58 579.62,-262.25 589.75,-262.25 607.76,-262.25 614.66,-253.81 610.44,-244.74"/>
<polygon fill="#9a32cd" stroke="#9a32cd" points="573.32,-255.44 569.06,-245.74 566.34,-255.98 573.32,-255.44"/>
</a>
</g>
<text text-anchor="middle" x="589.75" y="-264" font-family="Helvetica,sans-Serif" font-size="10.00" fill="grey"> prev_same_region</text>
</g>
<!-- Node40 -->
<g id="Node000040" class="node">
<title>Node40</title>
<g id="a_Node000040"><a xlink:href="../../d0/d02/class_slic3r_1_1_model_volume.html" target="_top" xlink:title=" ">
<polygon fill="#fff0f0" stroke="red" points="401.38,-277.62 295.38,-277.62 295.38,-258.38 401.38,-258.38 401.38,-277.62"/>
<text text-anchor="middle" x="348.38" y="-264.12" font-family="Helvetica,sans-Serif" font-size="10.00">Slic3r::ModelVolume</text>
</a>
</g>
</g>
<!-- Node40&#45;&gt;Node39 -->
<g id="edge22_Node000039_Node000040" class="edge">
<title>Node40&#45;&gt;Node39</title>
<g id="a_edge22_Node000039_Node000040"><a xlink:title=" ">
<path fill="none" stroke="#9a32cd" stroke-dasharray="5,2" d="M412.45,-257.72C446.79,-252.13 489.19,-245.22 523.81,-239.58"/>
<polygon fill="#9a32cd" stroke="#9a32cd" points="411.92,-254.43 402.61,-259.49 413.04,-261.34 411.92,-254.43"/>
</a>
</g>
<text text-anchor="middle" x="473" y="-254.75" font-family="Helvetica,sans-Serif" font-size="10.00" fill="grey"> model_volume</text>
</g>
<!-- Node46 -->
<g id="Node000046" class="node">
<title>Node46</title>
<g id="a_Node000046"><a xlink:href="../../d5/d00/group___geometry___module.html" target="_top" xlink:title=" ">
<polygon fill="#fff0f0" stroke="red" points="131.5,-96.88 0,-96.88 0,-55.12 131.5,-55.12 131.5,-96.88"/>
<text text-anchor="start" x="8" y="-83.38" font-family="Helvetica,sans-Serif" font-size="10.00">Eigen::Transform&lt; double,</text>
<text text-anchor="start" x="8" y="-72.12" font-family="Helvetica,sans-Serif" font-size="10.00"> 3, Eigen::Affine, Eigen</text>
<text text-anchor="middle" x="65.75" y="-60.88" font-family="Helvetica,sans-Serif" font-size="10.00">::DontAlign &gt;</text>
</a>
</g>
</g>
<!-- Node46&#45;&gt;Node1 -->
<g id="edge33_Node000001_Node000046" class="edge">
<title>Node46&#45;&gt;Node1</title>
<g id="a_edge33_Node000001_Node000046"><a xlink:title=" ">
<path fill="none" stroke="#9a32cd" stroke-dasharray="5,2" d="M124.91,-50.58C180.82,-28.49 268.26,0 347.38,0 347.38,0 347.38,0 1444.25,0 1540.31,0 1628.11,-97.13 1654.33,-129"/>
<polygon fill="#9a32cd" stroke="#9a32cd" points="123.83,-47.65 115.85,-54.63 126.43,-54.15 123.83,-47.65"/>
</a>
</g>
<text text-anchor="middle" x="886.25" y="-1.75" font-family="Helvetica,sans-Serif" font-size="10.00" fill="grey"> trafo_bboxes</text>
</g>
<!-- Node46&#45;&gt;Node40 -->
<g id="edge23_Node000040_Node000046" class="edge">
<title>Node46&#45;&gt;Node40</title>
<g id="a_edge23_Node000040_Node000046"><a xlink:title=" ">
<path fill="none" stroke="#9a32cd" stroke-dasharray="5,2" d="M85.91,-106.22C98.93,-126.89 116.45,-154.98 131.5,-180 139.71,-193.65 136.94,-201.2 149.5,-211 191.64,-243.88 252.04,-257.8 295.01,-263.68"/>
<polygon fill="#9a32cd" stroke="#9a32cd" points="88.38,-104.59 80.09,-98 82.46,-108.32 88.38,-104.59"/>
</a>
</g>
<text text-anchor="middle" x="203.12" y="-257.75" font-family="Helvetica,sans-Serif" font-size="10.00" fill="grey"> m_cached_trans_matrix</text>
</g>
<!-- Node124&#45;&gt;Node9 -->
<g id="edge28_Node000009_Node000124" class="edge">
<title>Node124&#45;&gt;Node9</title>
<g id="a_edge28_Node000009_Node000124"><a xlink:title=" ">
<path fill="none" stroke="#9a32cd" stroke-dasharray="5,2" d="M950.42,-289.75C992.81,-278.36 1049.71,-262.17 1099,-245 1116.4,-238.94 1135.34,-231.29 1151.15,-224.61"/>
<polygon fill="#9a32cd" stroke="#9a32cd" points="949.72,-286.57 940.96,-292.53 951.53,-293.34 949.72,-286.57"/>
</a>
</g>
<text text-anchor="middle" x="1035.25" y="-284.75" font-family="Helvetica,sans-Serif" font-size="10.00" fill="grey"> painted_regions</text>
</g>
<!-- Node125&#45;&gt;Node124 -->
<g id="edge29_Node000124_Node000125" class="edge">
<title>Node125&#45;&gt;Node124</title>
<g id="a_edge29_Node000124_Node000125"><a xlink:title=" ">
<path fill="none" stroke="#9a32cd" stroke-dasharray="5,2" d="M666.61,-306.74C718.69,-306.57 786.49,-306.34 832.69,-306.18"/>
<polygon fill="#9a32cd" stroke="#9a32cd" points="666.73,-303.25 656.74,-306.78 666.76,-310.25 666.73,-303.25"/>
</a>
</g>
<text text-anchor="middle" x="737.25" y="-307.75" font-family="Helvetica,sans-Serif" font-size="10.00" fill="grey"> elements</text>
</g>
<!-- Node72&#45;&gt;Node1 -->
<g id="edge34_Node000001_Node000072" class="edge">
<title>Node72&#45;&gt;Node1</title>
<g id="a_edge34_Node000001_Node000072"><a xlink:title=" ">
<path fill="none" stroke="#9a32cd" stroke-dasharray="5,2" d="M945.46,-90.91C1087.05,-100.41 1448.67,-124.67 1597.13,-134.63"/>
<polygon fill="#9a32cd" stroke="#9a32cd" points="946.07,-87.37 935.85,-90.19 945.6,-94.36 946.07,-87.37"/>
</a>
</g>
<text text-anchor="middle" x="1320.88" y="-119.75" font-family="Helvetica,sans-Serif" font-size="10.00" fill="grey"> cached_volume_ids</text>
</g>
</g>
</svg>
