<?xml version="1.0" encoding="UTF-8" standalone="no"?>
<!DOCTYPE svg PUBLIC "-//W3C//DTD SVG 1.1//EN"
 "http://www.w3.org/Graphics/SVG/1.1/DTD/svg11.dtd">
<!-- Generated by graphviz version 8.1.0 (20230707.0739)
 -->
<!-- Title: Slic3r::PrintObject::instances Pages: 1 -->
<!--zoomable 420 -->

<svg id="main" version="1.1" xmlns="http://www.w3.org/2000/svg" xmlns:xlink="http://www.w3.org/1999/xlink" xml:space="preserve" onload="init(evt)">
<style type="text/css"><![CDATA[
.node, .edge {opacity: 0.7;}
.node.selected, .edge.selected {opacity: 1;}
.edge:hover path { stroke: red; }
.edge:hover polygon { stroke: red; fill: red; }
]]></style>

<defs>
  <circle id="rim" cx="0" cy="0" r="7"/>
  <circle id="rim2" cx="0" cy="0" r="3.5"/>
  <g id="zoomPlus">
    <use xlink:href="#rim" fill="#404040"><set attributeName="fill" to="#808080" begin="zoomplus.mouseover" end="zoomplus.mouseout"/></use>
    <path d="M-4,0h8M0,-4v8" fill="none" stroke="white" stroke-width="1.5" pointer-events="none"/>
  </g>
  <g id="zoomMin">
    <use xlink:href="#rim" fill="#404040"><set attributeName="fill" to="#808080" begin="zoomminus.mouseover" end="zoomminus.mouseout"/></use>
    <path d="M-4,0h8" fill="none" stroke="white" stroke-width="1.5" pointer-events="none"/>
  </g>
  <g id="arrowUp" transform="translate(30 24)">
    <use xlink:href="#rim"/>
    <path pointer-events="none" fill="none" stroke="white" stroke-width="1.5" d="M0,-3.0v7 M-2.5,-0.5L0,-3.0L2.5,-0.5"/>
  </g>
  <g id="arrowRight" transform="rotate(90) translate(36 -43)">
    <use xlink:href="#rim"/>
    <path pointer-events="none" fill="none" stroke="white" stroke-width="1.5" d="M0,-3.0v7 M-2.5,-0.5L0,-3.0L2.5,-0.5"/>
  </g>
  <g id="arrowDown" transform="rotate(180) translate(-30 -48)">
    <use xlink:href="#rim"/>
    <path pointer-events="none" fill="none" stroke="white" stroke-width="1.5" d="M0,-3.0v7 M-2.5,-0.5L0,-3.0L2.5,-0.5"/>
  </g>
  <g id="arrowLeft" transform="rotate(270) translate(-36 17)">
    <use xlink:href="#rim"/>
    <path pointer-events="none" fill="none" stroke="white" stroke-width="1.5" d="M0,-3.0v7 M-2.5,-0.5L0,-3.0L2.5,-0.5"/>
  </g>
  <g id="resetDef">
    <use xlink:href="#rim2" fill="#404040"><set attributeName="fill" to="#808080" begin="reset.mouseover" end="reset.mouseout"/></use>
  </g>
</defs>
<script type="application/ecmascript">
var viewWidth = 679;
var viewHeight = 420;
var sectionId = 'dynsection-43';
</script>
<script type="application/ecmascript" xlink:href="../../svg.min.js"/>
<svg id="graph" class="graph">
<g id="viewport">
<title>Slic3r::PrintObject::instances</title>
<!-- Node1 -->
<g id="Node000001" class="node">
<title>Node1</title>
<g id="a_Node000001"><a xlink:title=" ">
<polygon fill="#999999" stroke="#666666" points="670.75,-232.5 575.25,-232.5 575.25,-202 670.75,-202 670.75,-232.5"/>
<text text-anchor="start" x="583.25" y="-219" font-family="Helvetica,sans-Serif" font-size="10.00">Slic3r::PrintObject</text>
<text text-anchor="middle" x="623" y="-207.75" font-family="Helvetica,sans-Serif" font-size="10.00">::instances</text>
</a>
</g>
</g>
<!-- Node2 -->
<g id="Node000002" class="node">
<title>Node2</title>
<g id="a_Node000002"><a xlink:href="../../de/d87/class_slic3r_1_1_print_object.html#a999fa71be5cac2e6bdb1cd5fd85e36fd" target="_top" xlink:title=" ">
<polygon fill="white" stroke="#666666" points="295.25,-330.5 199.75,-330.5 199.75,-300 295.25,-300 295.25,-330.5"/>
<text text-anchor="start" x="207.75" y="-317" font-family="Helvetica,sans-Serif" font-size="10.00">Slic3r::PrintObject</text>
<text text-anchor="middle" x="247.5" y="-305.75" font-family="Helvetica,sans-Serif" font-size="10.00">::PrintObject</text>
</a>
</g>
</g>
<!-- Node1&#45;&gt;Node2 -->
<g id="edge1_Node000001_Node000002" class="edge">
<title>Node1&#45;&gt;Node2</title>
<g id="a_edge1_Node000001_Node000002"><a xlink:title=" ">
<path fill="none" stroke="#63b8ff" d="M618.06,-243.55C610.58,-283 590.24,-356.28 539.25,-388.25 475.05,-428.51 441.73,-408.67 368.75,-388.25 329,-377.13 289.33,-348.88 266.95,-330.96"/>
<polygon fill="#63b8ff" stroke="#63b8ff" points="621.64,-244.38 619.92,-233.92 614.75,-243.17 621.64,-244.38"/>
</a>
</g>
</g>
<!-- Node3 -->
<g id="Node000003" class="node">
<title>Node3</title>
<g id="a_Node000003"><a xlink:href="../../d1/d72/class_slic3r_1_1_tree_support.html#ad1a44839bbfd3668ab21ebf06d4e950c" target="_top" xlink:title="Creates an instance of the tree support generator.">
<polygon fill="white" stroke="#666666" points="504,-379.5 404,-379.5 404,-349 504,-349 504,-379.5"/>
<text text-anchor="start" x="412" y="-366" font-family="Helvetica,sans-Serif" font-size="10.00">Slic3r::TreeSupport</text>
<text text-anchor="middle" x="454" y="-354.75" font-family="Helvetica,sans-Serif" font-size="10.00">::TreeSupport</text>
</a>
</g>
</g>
<!-- Node1&#45;&gt;Node3 -->
<g id="edge2_Node000001_Node000003" class="edge">
<title>Node1&#45;&gt;Node3</title>
<g id="a_edge2_Node000001_Node000003"><a xlink:title=" ">
<path fill="none" stroke="#63b8ff" d="M611.18,-242.67C598.1,-270.41 573.5,-314.19 539.25,-339.25 529.03,-346.73 516.58,-351.98 504.42,-355.67"/>
<polygon fill="#63b8ff" stroke="#63b8ff" points="614.67,-244.45 615.62,-233.9 608.3,-241.56 614.67,-244.45"/>
</a>
</g>
</g>
<!-- Node4 -->
<g id="Node000004" class="node">
<title>Node4</title>
<g id="a_Node000004"><a xlink:href="../../d0/d2b/class_slic3r_1_1_g_u_i_1_1_g_l_canvas3_d.html#a074422e189d4d0318d80b9dd27685407" target="_top" xlink:title=" ">
<polygon fill="white" stroke="#666666" points="526.88,-330.5 381.12,-330.5 381.12,-300 526.88,-300 526.88,-330.5"/>
<text text-anchor="start" x="389.12" y="-317" font-family="Helvetica,sans-Serif" font-size="10.00">Slic3r::GUI::GLCanvas3D</text>
<text text-anchor="middle" x="454" y="-305.75" font-family="Helvetica,sans-Serif" font-size="10.00">::_load_print_object_toolpaths</text>
</a>
</g>
</g>
<!-- Node1&#45;&gt;Node4 -->
<g id="edge3_Node000001_Node000004" class="edge">
<title>Node1&#45;&gt;Node4</title>
<g id="a_edge3_Node000001_Node000004"><a xlink:title=" ">
<path fill="none" stroke="#63b8ff" d="M600.76,-240.75C585.15,-256.75 562.66,-277.29 539.25,-290.25 532.84,-293.8 525.88,-296.89 518.79,-299.58"/>
<polygon fill="#63b8ff" stroke="#63b8ff" points="602.91,-243.52 607.27,-233.86 597.84,-238.69 602.91,-243.52"/>
</a>
</g>
</g>
<!-- Node5 -->
<g id="Node000005" class="node">
<title>Node5</title>
<g id="a_Node000005"><a xlink:href="../../de/d87/class_slic3r_1_1_print_object.html#a8d7468ad884f2e82db2259ca85f2b7d9" target="_top" xlink:title=" ">
<polygon fill="white" stroke="#666666" points="508.88,-281.5 399.12,-281.5 399.12,-251 508.88,-251 508.88,-281.5"/>
<text text-anchor="start" x="407.12" y="-268" font-family="Helvetica,sans-Serif" font-size="10.00">Slic3r::PrintObject</text>
<text text-anchor="middle" x="454" y="-256.75" font-family="Helvetica,sans-Serif" font-size="10.00">::get_first_layer_bbox</text>
</a>
</g>
</g>
<!-- Node1&#45;&gt;Node5 -->
<g id="edge4_Node000001_Node000005" class="edge">
<title>Node1&#45;&gt;Node5</title>
<g id="a_edge4_Node000001_Node000005"><a xlink:title=" ">
<path fill="none" stroke="#63b8ff" d="M564.61,-234.09C546.48,-239.41 526.53,-245.26 508.67,-250.5"/>
<polygon fill="#63b8ff" stroke="#63b8ff" points="565.43,-237.2 574.04,-231.03 563.46,-230.49 565.43,-237.2"/>
</a>
</g>
</g>
<!-- Node6 -->
<g id="Node000006" class="node">
<title>Node6</title>
<g id="a_Node000006"><a xlink:href="../../de/db8/namespace_slic3r.html#a5694f5c4f83b1e920691b0aab630cabc" target="_top" xlink:title=" ">
<polygon fill="white" stroke="#666666" points="511.88,-183.5 396.12,-183.5 396.12,-153 511.88,-153 511.88,-183.5"/>
<text text-anchor="start" x="404.12" y="-170" font-family="Helvetica,sans-Serif" font-size="10.00">Slic3r::get_print_object</text>
<text text-anchor="middle" x="454" y="-158.75" font-family="Helvetica,sans-Serif" font-size="10.00">_extrusions_extents</text>
</a>
</g>
</g>
<!-- Node1&#45;&gt;Node6 -->
<g id="edge5_Node000001_Node000006" class="edge">
<title>Node1&#45;&gt;Node6</title>
<g id="a_edge5_Node000001_Node000006"><a xlink:title=" ">
<path fill="none" stroke="#63b8ff" d="M564.61,-200.41C546.48,-195.09 526.53,-189.24 508.67,-184"/>
<polygon fill="#63b8ff" stroke="#63b8ff" points="563.46,-204.01 574.04,-203.47 565.43,-197.3 563.46,-204.01"/>
</a>
</g>
</g>
<!-- Node9 -->
<g id="Node000009" class="node">
<title>Node9</title>
<g id="a_Node000009"><a xlink:href="../../de/db8/namespace_slic3r.html#ad31b14562cfeaa13c90c6fe2e9252be7" target="_top" xlink:title=" ">
<polygon fill="white" stroke="#666666" points="515.62,-116.88 392.38,-116.88 392.38,-97.62 515.62,-97.62 515.62,-116.88"/>
<text text-anchor="middle" x="454" y="-103.38" font-family="Helvetica,sans-Serif" font-size="10.00">Slic3r::getadhesionCoeff</text>
</a>
</g>
</g>
<!-- Node1&#45;&gt;Node9 -->
<g id="edge8_Node000001_Node000009" class="edge">
<title>Node1&#45;&gt;Node9</title>
<g id="a_edge8_Node000001_Node000009"><a xlink:title=" ">
<path fill="none" stroke="#63b8ff" d="M599.65,-194.07C583.82,-178.57 561.52,-158.47 539.25,-144.25 521.88,-133.16 500.62,-123.85 483.81,-117.34"/>
<polygon fill="#63b8ff" stroke="#63b8ff" points="596.75,-196.12 606.3,-200.71 601.69,-191.17 596.75,-196.12"/>
</a>
</g>
</g>
<!-- Node11 -->
<g id="Node000011" class="node">
<title>Node11</title>
<g id="a_Node000011"><a xlink:href="../../d7/ddf/class_slic3r_1_1_g_u_i_1_1_g_l_gizmo_fdm_supports.html#aa1c590203585e98e9b6e783fa4eed7c9" target="_top" xlink:title=" ">
<polygon fill="white" stroke="#666666" points="539.25,-79.5 368.75,-79.5 368.75,-49 539.25,-49 539.25,-79.5"/>
<text text-anchor="start" x="376.75" y="-66" font-family="Helvetica,sans-Serif" font-size="10.00">Slic3r::GUI::GLGizmoFdmSupports</text>
<text text-anchor="middle" x="454" y="-54.75" font-family="Helvetica,sans-Serif" font-size="10.00">::init_print_instance</text>
</a>
</g>
</g>
<!-- Node1&#45;&gt;Node11 -->
<g id="edge12_Node000001_Node000011" class="edge">
<title>Node1&#45;&gt;Node11</title>
<g id="a_edge12_Node000001_Node000011"><a xlink:title=" ">
<path fill="none" stroke="#63b8ff" d="M612.18,-191.62C599.65,-162.32 575.2,-114.96 539.25,-88.25 534.98,-85.08 530.3,-82.32 525.4,-79.93"/>
<polygon fill="#63b8ff" stroke="#63b8ff" points="609.22,-192.61 616.26,-200.53 615.69,-189.95 609.22,-192.61"/>
</a>
</g>
</g>
<!-- Node13 -->
<g id="Node000013" class="node">
<title>Node13</title>
<g id="a_Node000013"><a xlink:href="../../de/d87/class_slic3r_1_1_print_object.html#a8e046875a8492bae23a1a88757fb72ae" target="_top" xlink:title=" ">
<polygon fill="white" stroke="#666666" points="501.75,-232.5 406.25,-232.5 406.25,-202 501.75,-202 501.75,-232.5"/>
<text text-anchor="start" x="414.25" y="-219" font-family="Helvetica,sans-Serif" font-size="10.00">Slic3r::PrintObject</text>
<text text-anchor="middle" x="454" y="-207.75" font-family="Helvetica,sans-Serif" font-size="10.00">::set_instances</text>
</a>
</g>
</g>
<!-- Node1&#45;&gt;Node13 -->
<g id="edge14_Node000001_Node000013" class="edge">
<title>Node1&#45;&gt;Node13</title>
<g id="a_edge14_Node000001_Node000013"><a xlink:title=" ">
<path fill="none" stroke="#63b8ff" d="M564.07,-217.25C543.85,-217.25 521.42,-217.25 502.19,-217.25"/>
<polygon fill="#63b8ff" stroke="#63b8ff" points="564.04,-220.75 574.04,-217.25 564.04,-213.75 564.04,-220.75"/>
</a>
</g>
</g>
<!-- Node14 -->
<g id="Node000014" class="node">
<title>Node14</title>
<g id="a_Node000014"><a xlink:href="../../dd/dc8/class_slic3r_1_1_g_code.html#a9c34d1224cd3ca1e6abc1080d2b4157a" target="_top" xlink:title=" ">
<polygon fill="white" stroke="#666666" points="513.38,-30.5 394.62,-30.5 394.62,0 513.38,0 513.38,-30.5"/>
<text text-anchor="start" x="402.62" y="-17" font-family="Helvetica,sans-Serif" font-size="10.00">Slic3r::GCode::sort</text>
<text text-anchor="middle" x="454" y="-5.75" font-family="Helvetica,sans-Serif" font-size="10.00">_print_object_instances</text>
</a>
</g>
</g>
<!-- Node1&#45;&gt;Node14 -->
<g id="edge16_Node000001_Node000014" class="edge">
<title>Node1&#45;&gt;Node14</title>
<g id="a_edge16_Node000001_Node000014"><a xlink:title=" ">
<path fill="none" stroke="#63b8ff" d="M616.92,-191.26C608.02,-152.67 585.92,-80.44 539.25,-40.25 531.85,-33.88 522.89,-29.13 513.6,-25.59"/>
<polygon fill="#63b8ff" stroke="#63b8ff" points="613.63,-191.62 619.18,-200.64 620.47,-190.13 613.63,-191.62"/>
</a>
</g>
</g>
<!-- Node7 -->
<g id="Node000007" class="node">
<title>Node7</title>
<g id="a_Node000007"><a xlink:href="../../dd/dc8/class_slic3r_1_1_g_code.html#ad5ac0f44c2121cf8d09cc7fde2dae045" target="_top" xlink:title=" ">
<polygon fill="white" stroke="#666666" points="297.12,-189.5 197.88,-189.5 197.88,-159 297.12,-159 297.12,-189.5"/>
<text text-anchor="start" x="205.88" y="-176" font-family="Helvetica,sans-Serif" font-size="10.00">Slic3r::GCode::_do</text>
<text text-anchor="middle" x="247.5" y="-164.75" font-family="Helvetica,sans-Serif" font-size="10.00">_export</text>
</a>
</g>
</g>
<!-- Node6&#45;&gt;Node7 -->
<g id="edge6_Node000006_Node000007" class="edge">
<title>Node6&#45;&gt;Node7</title>
<g id="a_edge6_Node000006_Node000007"><a xlink:title=" ">
<path fill="none" stroke="#63b8ff" d="M385,-170.25C356.34,-171.09 323.62,-172.05 297.4,-172.82"/>
<polygon fill="#63b8ff" stroke="#63b8ff" points="384.87,-173.72 394.76,-169.93 384.67,-166.72 384.87,-173.72"/>
</a>
</g>
</g>
<!-- Node8 -->
<g id="Node000008" class="node">
<title>Node8</title>
<g id="a_Node000008"><a xlink:href="../../dd/dc8/class_slic3r_1_1_g_code.html#a41ddab6bfd15c1848026271f48485efb" target="_top" xlink:title=" ">
<polygon fill="white" stroke="#666666" points="126.25,-183.88 0,-183.88 0,-164.62 126.25,-164.62 126.25,-183.88"/>
<text text-anchor="middle" x="63.12" y="-170.38" font-family="Helvetica,sans-Serif" font-size="10.00">Slic3r::GCode::do_export</text>
</a>
</g>
</g>
<!-- Node7&#45;&gt;Node8 -->
<g id="edge7_Node000007_Node000008" class="edge">
<title>Node7&#45;&gt;Node8</title>
<g id="a_edge7_Node000007_Node000008"><a xlink:title=" ">
<path fill="none" stroke="#63b8ff" d="M186.84,-174.25C167.53,-174.25 146.06,-174.25 126.56,-174.25"/>
<polygon fill="#63b8ff" stroke="#63b8ff" points="186.63,-177.75 196.63,-174.25 186.63,-170.75 186.63,-177.75"/>
</a>
</g>
</g>
<!-- Node9&#45;&gt;Node9 -->
<g id="edge11_Node000009_Node000009" class="edge">
<title>Node9&#45;&gt;Node9</title>
<g id="a_edge11_Node000009_Node000009"><a xlink:title=" ">
<path fill="none" stroke="#63b8ff" d="M484.82,-127.26C481.91,-131.67 471.64,-134.88 454,-134.88 424.29,-134.88 415.47,-125.77 427.54,-117.16"/>
<polygon fill="#63b8ff" stroke="#63b8ff" points="487.64,-125.95 480.46,-118.16 481.22,-128.73 487.64,-125.95"/>
</a>
</g>
</g>
<!-- Node10 -->
<g id="Node000010" class="node">
<title>Node10</title>
<g id="a_Node000010"><a xlink:href="../../d2/d67/class_slic3r_1_1_model_instance.html#a5e5777da4c59307aa0a599e6de47fd3c" target="_top" xlink:title=" ">
<polygon fill="white" stroke="#666666" points="303.5,-122.5 191.5,-122.5 191.5,-92 303.5,-92 303.5,-122.5"/>
<text text-anchor="start" x="199.5" y="-109" font-family="Helvetica,sans-Serif" font-size="10.00">Slic3r::ModelInstance</text>
<text text-anchor="middle" x="247.5" y="-97.75" font-family="Helvetica,sans-Serif" font-size="10.00">::get_auto_brim_width</text>
</a>
</g>
</g>
<!-- Node9&#45;&gt;Node10 -->
<g id="edge9_Node000009_Node000010" class="edge">
<title>Node9&#45;&gt;Node10</title>
<g id="a_edge9_Node000009_Node000010"><a xlink:title=" ">
<path fill="none" stroke="#63b8ff" d="M381.2,-107.25C355.76,-107.25 327.54,-107.25 303.69,-107.25"/>
<polygon fill="#63b8ff" stroke="#63b8ff" points="380.92,-110.75 390.92,-107.25 380.92,-103.75 380.92,-110.75"/>
</a>
</g>
</g>
<!-- Node10&#45;&gt;Node10 -->
<g id="edge10_Node000010_Node000010" class="edge">
<title>Node10&#45;&gt;Node10</title>
<g id="a_edge10_Node000010_Node000010"><a xlink:title=" ">
<path fill="none" stroke="#63b8ff" d="M278.84,-133.88C273.95,-137.83 263.5,-140.5 247.5,-140.5 219.05,-140.5 208.16,-132.06 214.83,-122.99"/>
<polygon fill="#63b8ff" stroke="#63b8ff" points="282.43,-134.34 280.17,-123.99 275.48,-133.49 282.43,-134.34"/>
</a>
</g>
</g>
<!-- Node12 -->
<g id="Node000012" class="node">
<title>Node12</title>
<g id="a_Node000012"><a xlink:href="../../d7/ddf/class_slic3r_1_1_g_u_i_1_1_g_l_gizmo_fdm_supports.html#a5b0f76f34a6583ae976549f1a86f99a5" target="_top" xlink:title=" ">
<polygon fill="white" stroke="#666666" points="332.75,-73.5 162.25,-73.5 162.25,-43 332.75,-43 332.75,-73.5"/>
<text text-anchor="start" x="170.25" y="-60" font-family="Helvetica,sans-Serif" font-size="10.00">Slic3r::GUI::GLGizmoFdmSupports</text>
<text text-anchor="middle" x="247.5" y="-48.75" font-family="Helvetica,sans-Serif" font-size="10.00">::on_render_input_window</text>
</a>
</g>
</g>
<!-- Node11&#45;&gt;Node12 -->
<g id="edge13_Node000011_Node000012" class="edge">
<title>Node11&#45;&gt;Node12</title>
<g id="a_edge13_Node000011_Node000012"><a xlink:title=" ">
<path fill="none" stroke="#63b8ff" d="M357.35,-61.44C349.25,-61.21 341.1,-60.97 333.09,-60.73"/>
<polygon fill="#63b8ff" stroke="#63b8ff" points="357.25,-64.97 367.35,-61.77 357.45,-57.97 357.25,-64.97"/>
</a>
</g>
</g>
<!-- Node13&#45;&gt;Node2 -->
<g id="edge15_Node000013_Node000002" class="edge">
<title>Node13&#45;&gt;Node2</title>
<g id="a_edge15_Node000013_Node000002"><a xlink:title=" ">
<path fill="none" stroke="#63b8ff" d="M395.65,-232.1C386.51,-235.08 377.26,-238.48 368.75,-242.25 332.35,-258.37 293.55,-283.56 270.17,-299.73"/>
<polygon fill="#63b8ff" stroke="#63b8ff" points="396.37,-235.23 404.88,-228.91 394.29,-228.55 396.37,-235.23"/>
</a>
</g>
</g>
</g>
</svg>

<g id="navigator" transform="translate(0 0)" fill="#404254">
  <rect fill="#f2f5e9" fill-opacity="0.5" stroke="#606060" stroke-width=".5" x="0" y="0" width="60" height="60"/>
  <use id="zoomplus" xlink:href="#zoomPlus" x="17" y="9" onmousedown="handleZoom(evt,'in')"/>
  <use id="zoomminus" xlink:href="#zoomMin" x="42" y="9" onmousedown="handleZoom(evt,'out')"/>
  <use id="reset" xlink:href="#resetDef" x="30" y="36" onmousedown="handleReset()"/>
   <use id="arrowup" xlink:href="#arrowUp" x="0" y="0" onmousedown="handlePan(0,-1)"/>
  <use id="arrowright" xlink:href="#arrowRight" x="0" y="0" onmousedown="handlePan(1,0)"/>
  <use id="arrowdown" xlink:href="#arrowDown" x="0" y="0" onmousedown="handlePan(0,1)"/>
  <use id="arrowleft" xlink:href="#arrowLeft" x="0" y="0" onmousedown="handlePan(-1,0)"/>
</g>
<svg viewBox="0 0 15 15" width="100%" height="30px" preserveAspectRatio="xMaxYMin meet">
 <g id="arrow_out" transform="scale(0.3 0.3)">
  <a xlink:href="class_slic3r_1_1_print_object_a0d2ecba1a8eb6257be5586d5b32045e3_icgraph_org.svg" target="_base">
   <rect id="button" ry="5" rx="5" y="6" x="6" height="38" width="38"
        fill="#f2f5e9" fill-opacity="0.5" stroke="#606060" stroke-width="1.0"/>
   <path id="arrow"
     d="M 11.500037,31.436501 C 11.940474,20.09759 22.043105,11.32322 32.158766,21.979434 L 37.068811,17.246167 C 37.068811,17.246167 37.088388,32 37.088388,32 L 22.160133,31.978069 C 22.160133,31.978069 26.997745,27.140456 26.997745,27.140456 C 18.528582,18.264221 13.291696,25.230495 11.500037,31.436501 z"
     style="fill:#404040;"/>
  </a>
 </g>
</svg>

<style type='text/css'>
<![CDATA[
[data-mouse-over-selected='false'] { opacity: 0.7; }
[data-mouse-over-selected='true']  { opacity: 1.0; }
]]>
</style>
<script type="application/ecmascript"><![CDATA[
document.addEventListener('DOMContentLoaded', (event) => {
  highlightEdges();
  highlightAdjacentNodes();
});
]]></script>
</svg>
