<?xml version="1.0" encoding="UTF-8" standalone="no"?>
<!DOCTYPE svg PUBLIC "-//W3C//DTD SVG 1.1//EN"
 "http://www.w3.org/Graphics/SVG/1.1/DTD/svg11.dtd">
<!-- Generated by graphviz version 8.1.0 (20230707.0739)
 -->
<!-- Title: Slic3r::Model::adjust_min_z Pages: 1 -->
<svg width="457pt" height="70pt"
 viewBox="0.00 0.00 456.50 69.88" xmlns="http://www.w3.org/2000/svg" xmlns:xlink="http://www.w3.org/1999/xlink">
<g id="graph0" class="graph" transform="scale(1 1) rotate(0) translate(4 65.88)">
<title>Slic3r::Model::adjust_min_z</title>
<!-- Node1 -->
<g id="Node000001" class="node">
<title>Node1</title>
<g id="a_Node000001"><a xlink:title=" ">
<polygon fill="#999999" stroke="#666666" points="105.25,-42.88 0,-42.88 0,-12.37 105.25,-12.37 105.25,-42.88"/>
<text text-anchor="start" x="8" y="-29.38" font-family="Helvetica,sans-Serif" font-size="10.00">Slic3r::Model::adjust</text>
<text text-anchor="middle" x="52.62" y="-18.12" font-family="Helvetica,sans-Serif" font-size="10.00">_min_z</text>
</a>
</g>
</g>
<!-- Node2 -->
<g id="Node000002" class="node">
<title>Node2</title>
<g id="a_Node000002"><a xlink:href="../../dd/d8d/class_slic3r_1_1_model.html#aa2a48397b35431dd1bcd6e0767b562e3" target="_top" xlink:title=" ">
<polygon fill="white" stroke="#666666" points="280.25,-56.25 141.25,-56.25 141.25,-37 280.25,-37 280.25,-56.25"/>
<text text-anchor="middle" x="210.75" y="-42.75" font-family="Helvetica,sans-Serif" font-size="10.00">Slic3r::Model::bounding_box</text>
</a>
</g>
</g>
<!-- Node1&#45;&gt;Node2 -->
<g id="edge1_Node000001_Node000002" class="edge">
<title>Node1&#45;&gt;Node2</title>
<g id="a_edge1_Node000001_Node000002"><a xlink:title=" ">
<path fill="none" stroke="#63b8ff" d="M105.61,-33.95C113.45,-34.9 121.67,-35.91 129.93,-36.91"/>
<polygon fill="#63b8ff" stroke="#63b8ff" points="129.42,-40.5 139.77,-38.23 130.26,-33.55 129.42,-40.5"/>
</a>
</g>
</g>
<!-- Node4 -->
<g id="Node000004" class="node">
<title>Node4</title>
<g id="a_Node000004"><a xlink:href="../../df/db1/math_8h.html#a04a32cd137f4e2dc222aca71df9edb1b" target="_top" xlink:title=" ">
<polygon fill="white" stroke="#666666" points="226.62,-19.25 194.88,-19.25 194.88,0 226.62,0 226.62,-19.25"/>
<text text-anchor="middle" x="210.75" y="-5.75" font-family="Helvetica,sans-Serif" font-size="10.00">min</text>
</a>
</g>
</g>
<!-- Node1&#45;&gt;Node4 -->
<g id="edge3_Node000001_Node000004" class="edge">
<title>Node1&#45;&gt;Node4</title>
<g id="a_edge3_Node000001_Node000004"><a xlink:title=" ">
<path fill="none" stroke="#63b8ff" d="M105.61,-21.63C131.81,-18.61 162.43,-15.08 183.66,-12.63"/>
<polygon fill="#63b8ff" stroke="#63b8ff" points="183.86,-16.02 193.4,-11.4 183.06,-9.06 183.86,-16.02"/>
</a>
</g>
</g>
<!-- Node3 -->
<g id="Node000003" class="node">
<title>Node3</title>
<g id="a_Node000003"><a xlink:href="../../da/d00/class_slic3r_1_1_bounding_box3_base.html#a431be3f581da92c7f08ec19b4d074756" target="_top" xlink:title=" ">
<polygon fill="white" stroke="#666666" points="448.5,-61.88 316.25,-61.88 316.25,-31.38 448.5,-31.38 448.5,-61.88"/>
<text text-anchor="start" x="324.25" y="-48.38" font-family="Helvetica,sans-Serif" font-size="10.00">Slic3r::BoundingBox3Base</text>
<text text-anchor="middle" x="382.38" y="-37.12" font-family="Helvetica,sans-Serif" font-size="10.00">::merge</text>
</a>
</g>
</g>
<!-- Node2&#45;&gt;Node3 -->
<g id="edge2_Node000002_Node000003" class="edge">
<title>Node2&#45;&gt;Node3</title>
<g id="a_edge2_Node000002_Node000003"><a xlink:title=" ">
<path fill="none" stroke="#63b8ff" d="M280.74,-46.62C288.75,-46.62 296.96,-46.62 305.05,-46.62"/>
<polygon fill="#63b8ff" stroke="#63b8ff" points="305.01,-50.13 315.01,-46.62 305.01,-43.13 305.01,-50.13"/>
</a>
</g>
</g>
</g>
</svg>
