<?xml version="1.0" encoding="UTF-8" standalone="no"?>
<!DOCTYPE svg PUBLIC "-//W3C//DTD SVG 1.1//EN"
 "http://www.w3.org/Graphics/SVG/1.1/DTD/svg11.dtd">
<!-- Generated by graphviz version 8.1.0 (20230707.0739)
 -->
<!-- Title: Slic3r::GCode::extrude_infill Pages: 1 -->
<svg width="593pt" height="220pt"
 viewBox="0.00 0.00 593.25 219.50" xmlns="http://www.w3.org/2000/svg" xmlns:xlink="http://www.w3.org/1999/xlink">
<g id="graph0" class="graph" transform="scale(1 1) rotate(0) translate(4 215.5)">
<title>Slic3r::GCode::extrude_infill</title>
<!-- Node1 -->
<g id="Node000001" class="node">
<title>Node1</title>
<g id="a_Node000001"><a xlink:title=" ">
<polygon fill="#999999" stroke="#666666" points="115.75,-79.5 0,-79.5 0,-49 115.75,-49 115.75,-79.5"/>
<text text-anchor="start" x="8" y="-66" font-family="Helvetica,sans-Serif" font-size="10.00">Slic3r::GCode::extrude</text>
<text text-anchor="middle" x="57.88" y="-54.75" font-family="Helvetica,sans-Serif" font-size="10.00">_infill</text>
</a>
</g>
</g>
<!-- Node2 -->
<g id="Node000002" class="node">
<title>Node2</title>
<g id="a_Node000002"><a xlink:href="../../de/db8/namespace_slic3r.html#a1c1d6d919ed0051c0d788b1009427306" target="_top" xlink:title=" ">
<polygon fill="white" stroke="#666666" points="278,-128.5 151.75,-128.5 151.75,-98 278,-98 278,-128.5"/>
<text text-anchor="start" x="159.75" y="-115" font-family="Helvetica,sans-Serif" font-size="10.00">Slic3r::chain_and_reorder</text>
<text text-anchor="middle" x="214.88" y="-103.75" font-family="Helvetica,sans-Serif" font-size="10.00">_extrusion_entities</text>
</a>
</g>
</g>
<!-- Node1&#45;&gt;Node2 -->
<g id="edge1_Node000001_Node000002" class="edge">
<title>Node1&#45;&gt;Node2</title>
<g id="a_edge1_Node000001_Node000002"><a xlink:title=" ">
<path fill="none" stroke="#63b8ff" d="M108.34,-79.89C122.81,-84.46 138.79,-89.51 153.84,-94.27"/>
<polygon fill="#63b8ff" stroke="#63b8ff" points="152.49,-97.83 163.08,-97.51 154.6,-91.16 152.49,-97.83"/>
</a>
</g>
</g>
<!-- Node8 -->
<g id="Node000008" class="node">
<title>Node8</title>
<g id="a_Node000008"><a xlink:href="../../d4/df8/class_slic3r_1_1_print_region.html#a8d40c7f03e5ac246db3dfa4e82042e5e" target="_top" xlink:title=" ">
<polygon fill="white" stroke="#666666" points="263.75,-79.5 166,-79.5 166,-49 263.75,-49 263.75,-79.5"/>
<text text-anchor="start" x="174" y="-66" font-family="Helvetica,sans-Serif" font-size="10.00">Slic3r::PrintRegion</text>
<text text-anchor="middle" x="214.88" y="-54.75" font-family="Helvetica,sans-Serif" font-size="10.00">::config</text>
</a>
</g>
</g>
<!-- Node1&#45;&gt;Node8 -->
<g id="edge10_Node000001_Node000008" class="edge">
<title>Node1&#45;&gt;Node8</title>
<g id="a_edge10_Node000001_Node000008"><a xlink:title=" ">
<path fill="none" stroke="#63b8ff" d="M116.15,-64.25C128.82,-64.25 142.27,-64.25 155.01,-64.25"/>
<polygon fill="#63b8ff" stroke="#63b8ff" points="154.98,-67.75 164.98,-64.25 154.98,-60.75 154.98,-67.75"/>
</a>
</g>
</g>
<!-- Node9 -->
<g id="Node000009" class="node">
<title>Node9</title>
<g id="a_Node000009"><a xlink:href="../../d5/d8f/class_slic3r_1_1_print.html#ad667b2b6f9092bb5aaf6bc3f3471286a" target="_top" xlink:title=" ">
<polygon fill="white" stroke="#666666" points="258.12,-30.5 171.62,-30.5 171.62,0 258.12,0 258.12,-30.5"/>
<text text-anchor="start" x="179.62" y="-17" font-family="Helvetica,sans-Serif" font-size="10.00">Slic3r::Print::get</text>
<text text-anchor="middle" x="214.88" y="-5.75" font-family="Helvetica,sans-Serif" font-size="10.00">_print_region</text>
</a>
</g>
</g>
<!-- Node1&#45;&gt;Node9 -->
<g id="edge11_Node000001_Node000009" class="edge">
<title>Node1&#45;&gt;Node9</title>
<g id="a_edge11_Node000001_Node000009"><a xlink:title=" ">
<path fill="none" stroke="#63b8ff" d="M108.34,-48.61C125.07,-43.32 143.81,-37.4 160.81,-32.03"/>
<polygon fill="#63b8ff" stroke="#63b8ff" points="161.65,-35.11 170.13,-28.76 159.54,-28.44 161.65,-35.11"/>
</a>
</g>
</g>
<!-- Node2&#45;&gt;Node2 -->
<g id="edge2_Node000002_Node000002" class="edge">
<title>Node2&#45;&gt;Node2</title>
<g id="a_edge2_Node000002_Node000002"><a xlink:title=" ">
<path fill="none" stroke="#63b8ff" d="M187.05,-128.99C181.38,-138.06 190.65,-146.5 214.88,-146.5 228.5,-146.5 237.4,-143.83 241.56,-139.88"/>
<polygon fill="#63b8ff" stroke="#63b8ff" points="245.14,-140.29 242.7,-129.99 238.18,-139.57 245.14,-140.29"/>
</a>
</g>
</g>
<!-- Node3 -->
<g id="Node000003" class="node">
<title>Node3</title>
<g id="a_Node000003"><a xlink:href="../../de/db8/namespace_slic3r.html#a872a03d03430bd9888aa086f9aa6b99b" target="_top" xlink:title=" ">
<polygon fill="white" stroke="#666666" points="432.38,-162.5 317.38,-162.5 317.38,-132 432.38,-132 432.38,-162.5"/>
<text text-anchor="start" x="325.38" y="-149" font-family="Helvetica,sans-Serif" font-size="10.00">Slic3r::chain_extrusion</text>
<text text-anchor="middle" x="374.88" y="-137.75" font-family="Helvetica,sans-Serif" font-size="10.00">_entities</text>
</a>
</g>
</g>
<!-- Node2&#45;&gt;Node3 -->
<g id="edge3_Node000002_Node000003" class="edge">
<title>Node2&#45;&gt;Node3</title>
<g id="a_edge3_Node000002_Node000003"><a xlink:title=" ">
<path fill="none" stroke="#63b8ff" d="M278.32,-126.69C287.6,-128.68 297.19,-130.75 306.56,-132.76"/>
<polygon fill="#63b8ff" stroke="#63b8ff" points="305.5,-136.33 316.01,-135.01 306.97,-129.49 305.5,-136.33"/>
</a>
</g>
</g>
<!-- Node7 -->
<g id="Node000007" class="node">
<title>Node7</title>
<g id="a_Node000007"><a xlink:href="../../de/db8/namespace_slic3r.html#a5e20344eda7ec08785327c45bc98ce18" target="_top" xlink:title=" ">
<polygon fill="white" stroke="#666666" points="435.75,-95.5 314,-95.5 314,-65 435.75,-65 435.75,-95.5"/>
<text text-anchor="start" x="322" y="-82" font-family="Helvetica,sans-Serif" font-size="10.00">Slic3r::reorder_extrusion</text>
<text text-anchor="middle" x="374.88" y="-70.75" font-family="Helvetica,sans-Serif" font-size="10.00">_entities</text>
</a>
</g>
</g>
<!-- Node2&#45;&gt;Node7 -->
<g id="edge8_Node000002_Node000007" class="edge">
<title>Node2&#45;&gt;Node7</title>
<g id="a_edge8_Node000002_Node000007"><a xlink:title=" ">
<path fill="none" stroke="#63b8ff" d="M278.32,-100.21C286.42,-98.52 294.76,-96.77 302.98,-95.06"/>
<polygon fill="#63b8ff" stroke="#63b8ff" points="303.61,-98.29 312.69,-92.82 302.18,-91.44 303.61,-98.29"/>
</a>
</g>
</g>
<!-- Node3&#45;&gt;Node3 -->
<g id="edge5_Node000003_Node000003" class="edge">
<title>Node3&#45;&gt;Node3</title>
<g id="a_edge5_Node000003_Node000003"><a xlink:title=" ">
<path fill="none" stroke="#63b8ff" d="M347.65,-162.99C342.1,-172.06 351.17,-180.5 374.88,-180.5 388.21,-180.5 396.91,-177.83 400.99,-173.88"/>
<polygon fill="#63b8ff" stroke="#63b8ff" points="404.57,-174.29 402.1,-163.99 397.6,-173.58 404.57,-174.29"/>
</a>
</g>
</g>
<!-- Node4 -->
<g id="Node000004" class="node">
<title>Node4</title>
<g id="a_Node000004"><a xlink:href="../../de/d7c/class_slic3r_1_1_extrusion_entity.html#a5ad631079efcccb38ac309f8988c4c66" target="_top" xlink:title=" ">
<polygon fill="white" stroke="#666666" points="585.25,-211.5 471.75,-211.5 471.75,-181 585.25,-181 585.25,-211.5"/>
<text text-anchor="start" x="479.75" y="-198" font-family="Helvetica,sans-Serif" font-size="10.00">Slic3r::ExtrusionEntity</text>
<text text-anchor="middle" x="528.5" y="-186.75" font-family="Helvetica,sans-Serif" font-size="10.00">::can_reverse</text>
</a>
</g>
</g>
<!-- Node3&#45;&gt;Node4 -->
<g id="edge4_Node000003_Node000004" class="edge">
<title>Node3&#45;&gt;Node4</title>
<g id="a_edge4_Node000003_Node000004"><a xlink:title=" ">
<path fill="none" stroke="#63b8ff" d="M424.27,-162.89C438.28,-167.42 453.75,-172.42 468.35,-177.13"/>
<polygon fill="#63b8ff" stroke="#63b8ff" points="467.2,-180.76 477.79,-180.51 469.35,-174.1 467.2,-180.76"/>
</a>
</g>
</g>
<!-- Node5 -->
<g id="Node000005" class="node">
<title>Node5</title>
<g id="a_Node000005"><a xlink:href="../../de/d7c/class_slic3r_1_1_extrusion_entity.html#a5fb27216be0e6841ae1e4c30e5de6396" target="_top" xlink:title=" ">
<polygon fill="white" stroke="#666666" points="585.25,-162.5 471.75,-162.5 471.75,-132 585.25,-132 585.25,-162.5"/>
<text text-anchor="start" x="479.75" y="-149" font-family="Helvetica,sans-Serif" font-size="10.00">Slic3r::ExtrusionEntity</text>
<text text-anchor="middle" x="528.5" y="-137.75" font-family="Helvetica,sans-Serif" font-size="10.00">::is_loop</text>
</a>
</g>
</g>
<!-- Node3&#45;&gt;Node5 -->
<g id="edge6_Node000003_Node000005" class="edge">
<title>Node3&#45;&gt;Node5</title>
<g id="a_edge6_Node000003_Node000005"><a xlink:title=" ">
<path fill="none" stroke="#63b8ff" d="M432.77,-147.25C441.83,-147.25 451.27,-147.25 460.54,-147.25"/>
<polygon fill="#63b8ff" stroke="#63b8ff" points="460.3,-150.75 470.3,-147.25 460.3,-143.75 460.3,-150.75"/>
</a>
</g>
</g>
<!-- Node6 -->
<g id="Node000006" class="node">
<title>Node6</title>
<g id="a_Node000006"><a xlink:href="../../d6/d4f/_block_methods_8h.html#a3c8d2bfe6f857a2a270b78759487e3a8" target="_top" xlink:title="This is the const version of segment(Index,Index).">
<polygon fill="white" stroke="#666666" points="555.25,-113.88 501.75,-113.88 501.75,-94.62 555.25,-94.62 555.25,-113.88"/>
<text text-anchor="middle" x="528.5" y="-100.38" font-family="Helvetica,sans-Serif" font-size="10.00">segment</text>
</a>
</g>
</g>
<!-- Node3&#45;&gt;Node6 -->
<g id="edge7_Node000003_Node000006" class="edge">
<title>Node3&#45;&gt;Node6</title>
<g id="a_edge7_Node000003_Node000006"><a xlink:title=" ">
<path fill="none" stroke="#63b8ff" d="M431.04,-131.6C451.05,-125.93 473.14,-119.67 491.12,-114.57"/>
<polygon fill="#63b8ff" stroke="#63b8ff" points="491.79,-117.73 500.46,-111.64 489.88,-111 491.79,-117.73"/>
</a>
</g>
</g>
<!-- Node7&#45;&gt;Node7 -->
<g id="edge9_Node000007_Node000007" class="edge">
<title>Node7&#45;&gt;Node7</title>
<g id="a_edge9_Node000007_Node000007"><a xlink:title=" ">
<path fill="none" stroke="#63b8ff" d="M347.65,-95.99C342.1,-105.06 351.17,-113.5 374.88,-113.5 388.21,-113.5 396.91,-110.83 400.99,-106.88"/>
<polygon fill="#63b8ff" stroke="#63b8ff" points="404.57,-107.29 402.1,-96.99 397.6,-106.58 404.57,-107.29"/>
</a>
</g>
</g>
</g>
</svg>
