<?xml version="1.0" encoding="UTF-8" standalone="no"?>
<!DOCTYPE svg PUBLIC "-//W3C//DTD SVG 1.1//EN"
 "http://www.w3.org/Graphics/SVG/1.1/DTD/svg11.dtd">
<!-- Generated by graphviz version 8.1.0 (20230707.0739)
 -->
<!-- Title: FanSwitchButton Pages: 1 -->
<svg width="1401pt" height="330pt"
 viewBox="0.00 0.00 1401.00 330.25" xmlns="http://www.w3.org/2000/svg" xmlns:xlink="http://www.w3.org/1999/xlink">
<g id="graph0" class="graph" transform="scale(1 1) rotate(0) translate(4 326.25)">
<title>FanSwitchButton</title>
<!-- Node1 -->
<g id="Node000001" class="node">
<title>Node1</title>
<g id="a_Node000001"><a xlink:title=" ">
<polygon fill="#999999" stroke="#666666" points="1378.75,-273.62 1287.75,-273.62 1287.75,-254.38 1378.75,-254.38 1378.75,-273.62"/>
<text text-anchor="middle" x="1333.25" y="-260.12" font-family="Helvetica,sans-Serif" font-size="10.00">FanSwitchButton</text>
</a>
</g>
</g>
<!-- Node2 -->
<g id="Node000002" class="node">
<title>Node2</title>
<g id="a_Node000002"><a xlink:href="../../d2/dc2/class_static_box.html" target="_top" xlink:title=" ">
<polygon fill="white" stroke="#666666" points="1146.38,-204.62 1087.62,-204.62 1087.62,-185.38 1146.38,-185.38 1146.38,-204.62"/>
<text text-anchor="middle" x="1117" y="-191.12" font-family="Helvetica,sans-Serif" font-size="10.00">StaticBox</text>
</a>
</g>
</g>
<!-- Node2&#45;&gt;Node1 -->
<g id="edge1_Node000001_Node000002" class="edge">
<title>Node2&#45;&gt;Node1</title>
<g id="a_edge1_Node000001_Node000002"><a xlink:title=" ">
<path fill="none" stroke="#63b8ff" d="M1156.67,-207.45C1197.98,-220.76 1262.64,-241.58 1300.9,-253.9"/>
<polygon fill="#63b8ff" stroke="#63b8ff" points="1158.04,-203.9 1147.45,-204.16 1155.9,-210.56 1158.04,-203.9"/>
</a>
</g>
</g>
<!-- Node3 -->
<g id="Node000003" class="node">
<title>Node3</title>
<g id="a_Node000003"><a xlink:title=" ">
<polygon fill="white" stroke="#666666" points="905,-227.62 841,-227.62 841,-208.38 905,-208.38 905,-227.62"/>
<text text-anchor="middle" x="873" y="-214.12" font-family="Helvetica,sans-Serif" font-size="10.00">wxWindow</text>
</a>
</g>
</g>
<!-- Node3&#45;&gt;Node2 -->
<g id="edge2_Node000002_Node000003" class="edge">
<title>Node3&#45;&gt;Node2</title>
<g id="a_edge2_Node000002_Node000003"><a xlink:title=" ">
<path fill="none" stroke="#63b8ff" d="M916.01,-214.01C965.02,-209.35 1044.77,-201.77 1087.24,-197.73"/>
<polygon fill="#63b8ff" stroke="#63b8ff" points="915.77,-210.61 906.14,-215.04 916.43,-217.58 915.77,-210.61"/>
</a>
</g>
</g>
<!-- Node4 -->
<g id="Node000004" class="node">
<title>Node4</title>
<g id="a_Node000004"><a xlink:href="../../d1/d5e/class_state_handler.html" target="_top" xlink:title=" ">
<polygon fill="white" stroke="#666666" points="909.5,-122.62 836.5,-122.62 836.5,-103.38 909.5,-103.38 909.5,-122.62"/>
<text text-anchor="middle" x="873" y="-109.12" font-family="Helvetica,sans-Serif" font-size="10.00">StateHandler</text>
</a>
</g>
</g>
<!-- Node4&#45;&gt;Node2 -->
<g id="edge3_Node000002_Node000004" class="edge">
<title>Node4&#45;&gt;Node2</title>
<g id="a_edge3_Node000002_Node000004"><a xlink:title=" ">
<path fill="none" stroke="#9a32cd" stroke-dasharray="5,2" d="M920.13,-124.49C949.39,-132.16 987.88,-142.98 1021.25,-154.75 1046.87,-163.78 1075.47,-176.28 1094.48,-184.94"/>
<polygon fill="#9a32cd" stroke="#9a32cd" points="921.36,-120.93 910.8,-121.81 919.6,-127.71 921.36,-120.93"/>
</a>
</g>
<text text-anchor="middle" x="982.25" y="-156.75" font-family="Helvetica,sans-Serif" font-size="10.00" fill="grey"> state_handler</text>
</g>
<!-- Node4&#45;&gt;Node4 -->
<g id="edge17_Node000004_Node000004" class="edge">
<title>Node4&#45;&gt;Node4</title>
<g id="a_edge17_Node000004_Node000004"><a xlink:title=" ">
<path fill="none" stroke="#9a32cd" stroke-dasharray="5,2" d="M853.23,-133.35C855.31,-137.58 861.9,-140.62 873,-140.62 892.2,-140.62 897.91,-131.52 890.1,-122.91"/>
<polygon fill="#9a32cd" stroke="#9a32cd" points="856.81,-134.47 855.9,-123.91 850.03,-132.74 856.81,-134.47"/>
</a>
</g>
<text text-anchor="middle" x="873" y="-142.38" font-family="Helvetica,sans-Serif" font-size="10.00" fill="grey"> parent_</text>
</g>
<!-- Node13 -->
<g id="Node000013" class="node">
<title>Node13</title>
<g id="a_Node000013"><a xlink:title=" ">
<polygon fill="white" stroke="#666666" points="1194.75,-94.62 1039.25,-94.62 1039.25,-75.38 1194.75,-75.38 1194.75,-94.62"/>
<text text-anchor="middle" x="1117" y="-81.12" font-family="Helvetica,sans-Serif" font-size="10.00">std::unique_ptr&lt; StateHandler &gt;</text>
</a>
</g>
</g>
<!-- Node4&#45;&gt;Node13 -->
<g id="edge14_Node000013_Node000004" class="edge">
<title>Node4&#45;&gt;Node13</title>
<g id="a_edge14_Node000013_Node000004"><a xlink:title=" ">
<path fill="none" stroke="#9a32cd" stroke-dasharray="5,2" d="M920.81,-107.58C954.24,-103.72 999.97,-98.42 1038.77,-93.94"/>
<polygon fill="#9a32cd" stroke="#9a32cd" points="920.5,-104.21 910.97,-108.84 921.3,-111.17 920.5,-104.21"/>
</a>
</g>
<text text-anchor="middle" x="982.25" y="-106.75" font-family="Helvetica,sans-Serif" font-size="10.00" fill="grey"> ptr</text>
</g>
<!-- Node5 -->
<g id="Node000005" class="node">
<title>Node5</title>
<g id="a_Node000005"><a xlink:title=" ">
<polygon fill="white" stroke="#666666" points="682.75,-151.62 605.25,-151.62 605.25,-132.38 682.75,-132.38 682.75,-151.62"/>
<text text-anchor="middle" x="644" y="-138.12" font-family="Helvetica,sans-Serif" font-size="10.00">wxEvtHandler</text>
</a>
</g>
</g>
<!-- Node5&#45;&gt;Node4 -->
<g id="edge4_Node000004_Node000005" class="edge">
<title>Node5&#45;&gt;Node4</title>
<g id="a_edge4_Node000004_Node000005"><a xlink:title=" ">
<path fill="none" stroke="#63b8ff" d="M693.58,-137.01C724.81,-133.67 766.23,-128.98 802.75,-124 813.61,-122.52 825.39,-120.72 836.1,-119.01"/>
<polygon fill="#63b8ff" stroke="#63b8ff" points="693.56,-133.6 683.99,-138.14 694.3,-140.56 693.56,-133.6"/>
</a>
</g>
</g>
<!-- Node6 -->
<g id="Node000006" class="node">
<title>Node6</title>
<g id="a_Node000006"><a xlink:title=" ">
<polygon fill="white" stroke="#666666" points="703,-114.25 585,-114.25 585,-83.75 703,-83.75 703,-114.25"/>
<text text-anchor="start" x="593" y="-100.75" font-family="Helvetica,sans-Serif" font-size="10.00">std::vector&lt; StateColor</text>
<text text-anchor="middle" x="644" y="-89.5" font-family="Helvetica,sans-Serif" font-size="10.00"> const * &gt;</text>
</a>
</g>
</g>
<!-- Node6&#45;&gt;Node4 -->
<g id="edge5_Node000004_Node000006" class="edge">
<title>Node6&#45;&gt;Node4</title>
<g id="a_edge5_Node000004_Node000006"><a xlink:title=" ">
<path fill="none" stroke="#9a32cd" stroke-dasharray="5,2" d="M714.28,-103.27C754.48,-105.75 803.47,-108.77 836.07,-110.78"/>
<polygon fill="#9a32cd" stroke="#9a32cd" points="714.65,-99.73 704.46,-102.61 714.22,-106.71 714.65,-99.73"/>
</a>
</g>
<text text-anchor="middle" x="761.88" y="-110.75" font-family="Helvetica,sans-Serif" font-size="10.00" fill="grey"> colors_</text>
</g>
<!-- Node7 -->
<g id="Node000007" class="node">
<title>Node7</title>
<g id="a_Node000007"><a xlink:href="../../d4/d80/class_state_color.html" target="_top" xlink:title=" ">
<polygon fill="white" stroke="#666666" points="506.25,-183.62 443.75,-183.62 443.75,-164.38 506.25,-164.38 506.25,-183.62"/>
<text text-anchor="middle" x="475" y="-170.12" font-family="Helvetica,sans-Serif" font-size="10.00">StateColor</text>
</a>
</g>
</g>
<!-- Node7&#45;&gt;Node1 -->
<g id="edge22_Node000001_Node000007" class="edge">
<title>Node7&#45;&gt;Node1</title>
<g id="a_edge22_Node000001_Node000007"><a xlink:title=" ">
<path fill="none" stroke="#9a32cd" stroke-dasharray="5,2" d="M493.83,-191.37C522.66,-217.52 582.41,-264 643,-264 643,-264 643,-264 1118,-264 1176.58,-264 1244.18,-264 1287.52,-264"/>
<polygon fill="#9a32cd" stroke="#9a32cd" points="496.61,-189.24 486.91,-184.98 491.84,-194.36 496.61,-189.24"/>
</a>
</g>
<text text-anchor="middle" x="873" y="-265.75" font-family="Helvetica,sans-Serif" font-size="10.00" fill="grey"> text_color</text>
</g>
<!-- Node7&#45;&gt;Node2 -->
<g id="edge18_Node000002_Node000007" class="edge">
<title>Node7&#45;&gt;Node2</title>
<g id="a_edge18_Node000002_Node000007"><a xlink:title=" ">
<path fill="none" stroke="#9a32cd" stroke-dasharray="5,2" d="M517.34,-175.36C637.53,-179.3 984.77,-190.69 1087.22,-194.06"/>
<polygon fill="#9a32cd" stroke="#9a32cd" points="517.55,-171.83 507.44,-175 517.32,-178.82 517.55,-171.83"/>
</a>
</g>
<text text-anchor="middle" x="761.88" y="-209.25" font-family="Helvetica,sans-Serif" font-size="10.00" fill="grey"> background_color</text>
<text text-anchor="middle" x="761.88" y="-198" font-family="Helvetica,sans-Serif" font-size="10.00" fill="grey">background_color2</text>
<text text-anchor="middle" x="761.88" y="-186.75" font-family="Helvetica,sans-Serif" font-size="10.00" fill="grey">border_color</text>
</g>
<!-- Node7&#45;&gt;Node6 -->
<g id="edge6_Node000006_Node000007" class="edge">
<title>Node7&#45;&gt;Node6</title>
<g id="a_edge6_Node000006_Node000007"><a xlink:title=" ">
<path fill="none" stroke="#9a32cd" stroke-dasharray="5,2" d="M506.44,-159.31C528.21,-148.91 558.26,-134.78 585,-123 591.28,-120.23 597.99,-117.37 604.52,-114.64"/>
<polygon fill="#9a32cd" stroke="#9a32cd" points="505.27,-156.46 497.77,-163.94 508.3,-162.78 505.27,-156.46"/>
</a>
</g>
<text text-anchor="middle" x="545.62" y="-152.75" font-family="Helvetica,sans-Serif" font-size="10.00" fill="grey"> elements</text>
</g>
<!-- Node8 -->
<g id="Node000008" class="node">
<title>Node8</title>
<g id="a_Node000008"><a xlink:title=" ">
<polygon fill="white" stroke="#666666" points="291.12,-183.62 200.12,-183.62 200.12,-164.38 291.12,-164.38 291.12,-183.62"/>
<text text-anchor="middle" x="245.62" y="-170.12" font-family="Helvetica,sans-Serif" font-size="10.00">std::vector&lt; int &gt;</text>
</a>
</g>
</g>
<!-- Node8&#45;&gt;Node7 -->
<g id="edge7_Node000007_Node000008" class="edge">
<title>Node8&#45;&gt;Node7</title>
<g id="a_edge7_Node000007_Node000008"><a xlink:title=" ">
<path fill="none" stroke="#9a32cd" stroke-dasharray="5,2" d="M302.47,-174C346.88,-174 407.35,-174 443.36,-174"/>
<polygon fill="#9a32cd" stroke="#9a32cd" points="302.55,-170.5 292.55,-174 302.55,-177.5 302.55,-170.5"/>
</a>
</g>
<text text-anchor="middle" x="375.12" y="-175.75" font-family="Helvetica,sans-Serif" font-size="10.00" fill="grey"> statesList_</text>
</g>
<!-- Node9 -->
<g id="Node000009" class="node">
<title>Node9</title>
<g id="a_Node000009"><a xlink:title=" ">
<polygon fill="#fff0f0" stroke="red" points="86.5,-124.62 0,-124.62 0,-105.38 86.5,-105.38 86.5,-124.62"/>
<text text-anchor="middle" x="43.25" y="-111.12" font-family="Helvetica,sans-Serif" font-size="10.00">std::vector&lt; T &gt;</text>
</a>
</g>
</g>
<!-- Node9&#45;&gt;Node6 -->
<g id="edge11_Node000006_Node000009" class="edge">
<title>Node9&#45;&gt;Node6</title>
<g id="a_edge11_Node000006_Node000009"><a xlink:title=" ">
<path fill="none" stroke="orange" stroke-dasharray="5,2" d="M97.52,-113.58C209.51,-110.58 468.57,-103.66 584.77,-100.56"/>
<polygon fill="orange" stroke="orange" points="97.73,-110.1 87.83,-113.86 97.92,-117.09 97.73,-110.1"/>
</a>
</g>
<text text-anchor="middle" x="375.12" y="-109.75" font-family="Helvetica,sans-Serif" font-size="10.00" fill="grey"> &lt; StateColor const * &gt;</text>
</g>
<!-- Node9&#45;&gt;Node8 -->
<g id="edge8_Node000008_Node000009" class="edge">
<title>Node9&#45;&gt;Node8</title>
<g id="a_edge8_Node000008_Node000009"><a xlink:title=" ">
<path fill="none" stroke="orange" stroke-dasharray="5,2" d="M72.77,-129.8C82.63,-134.5 93.88,-139.4 104.5,-143 135.65,-153.54 171.93,-161.46 199.77,-166.65"/>
<polygon fill="orange" stroke="orange" points="74.6,-126.31 64.08,-125.04 71.51,-132.59 74.6,-126.31"/>
</a>
</g>
<text text-anchor="middle" x="135.62" y="-161.75" font-family="Helvetica,sans-Serif" font-size="10.00" fill="grey"> &lt; int &gt;</text>
</g>
<!-- Node11 -->
<g id="Node000011" class="node">
<title>Node11</title>
<g id="a_Node000011"><a xlink:title=" ">
<polygon fill="white" stroke="#666666" points="306.5,-146.62 184.75,-146.62 184.75,-127.38 306.5,-127.38 306.5,-146.62"/>
<text text-anchor="middle" x="245.62" y="-133.12" font-family="Helvetica,sans-Serif" font-size="10.00">std::vector&lt; wxColour &gt;</text>
</a>
</g>
</g>
<!-- Node9&#45;&gt;Node11 -->
<g id="edge10_Node000011_Node000009" class="edge">
<title>Node9&#45;&gt;Node11</title>
<g id="a_edge10_Node000011_Node000009"><a xlink:title=" ">
<path fill="none" stroke="orange" stroke-dasharray="5,2" d="M97.44,-120.84C124.17,-123.77 156.67,-127.34 184.33,-130.38"/>
<polygon fill="orange" stroke="orange" points="98.07,-117.28 87.74,-119.67 97.3,-124.24 98.07,-117.28"/>
</a>
</g>
<text text-anchor="middle" x="135.62" y="-129.75" font-family="Helvetica,sans-Serif" font-size="10.00" fill="grey"> &lt; wxColour &gt;</text>
</g>
<!-- Node12 -->
<g id="Node000012" class="node">
<title>Node12</title>
<g id="a_Node000012"><a xlink:title=" ">
<polygon fill="white" stroke="#666666" points="1393,-61.25 1273.5,-61.25 1273.5,-30.75 1393,-30.75 1393,-61.25"/>
<text text-anchor="start" x="1281.5" y="-47.75" font-family="Helvetica,sans-Serif" font-size="10.00">std::vector&lt; std::unique</text>
<text text-anchor="middle" x="1333.25" y="-36.5" font-family="Helvetica,sans-Serif" font-size="10.00">_ptr&lt; StateHandler &gt; &gt;</text>
</a>
</g>
</g>
<!-- Node9&#45;&gt;Node12 -->
<g id="edge16_Node000012_Node000009" class="edge">
<title>Node9&#45;&gt;Node12</title>
<g id="a_edge16_Node000012_Node000009"><a xlink:title=" ">
<path fill="none" stroke="orange" stroke-dasharray="5,2" d="M60.73,-97.42C92.81,-65.21 167.3,0 244.62,0 244.62,0 244.62,0 1118,0 1177.16,0 1243.5,-16.97 1286.47,-30.3"/>
<polygon fill="orange" stroke="orange" points="58.63,-94.58 54.18,-104.2 63.65,-99.46 58.63,-94.58"/>
</a>
</g>
<text text-anchor="start" x="602.75" y="-13" font-family="Helvetica,sans-Serif" font-size="10.00" fill="grey"> &lt; std::unique_ptr&lt;</text>
<text text-anchor="middle" x="644" y="-1.75" font-family="Helvetica,sans-Serif" font-size="10.00" fill="grey"> StateHandler &gt; &gt;</text>
</g>
<!-- Node11&#45;&gt;Node7 -->
<g id="edge9_Node000007_Node000011" class="edge">
<title>Node11&#45;&gt;Node7</title>
<g id="a_edge9_Node000007_Node000011"><a xlink:title=" ">
<path fill="none" stroke="#9a32cd" stroke-dasharray="5,2" d="M317.74,-142.58C350.82,-145.95 390.54,-151.12 425.75,-158.75 432.1,-160.13 438.82,-161.98 445.15,-163.92"/>
<polygon fill="#9a32cd" stroke="#9a32cd" points="318.09,-139 307.8,-141.5 317.41,-145.97 318.09,-139"/>
</a>
</g>
<text text-anchor="middle" x="375.12" y="-160.75" font-family="Helvetica,sans-Serif" font-size="10.00" fill="grey"> colors_</text>
</g>
<!-- Node12&#45;&gt;Node4 -->
<g id="edge12_Node000004_Node000012" class="edge">
<title>Node12&#45;&gt;Node4</title>
<g id="a_edge12_Node000004_Node000012"><a xlink:title=" ">
<path fill="none" stroke="#9a32cd" stroke-dasharray="5,2" d="M1262.44,-33.49C1180.14,-22.49 1042.07,-16.1 943.25,-74 932.64,-80.21 935.4,-88.06 925.25,-95 920.58,-98.19 915.28,-100.88 909.91,-103.12"/>
<polygon fill="#9a32cd" stroke="#9a32cd" points="1261.79,-37.07 1272.18,-34.99 1262.76,-30.14 1261.79,-37.07"/>
</a>
</g>
<text text-anchor="middle" x="1117" y="-39.75" font-family="Helvetica,sans-Serif" font-size="10.00" fill="grey"> children_</text>
</g>
<!-- Node13&#45;&gt;Node12 -->
<g id="edge13_Node000012_Node000013" class="edge">
<title>Node13&#45;&gt;Node12</title>
<g id="a_edge13_Node000012_Node000013"><a xlink:title=" ">
<path fill="none" stroke="#9a32cd" stroke-dasharray="5,2" d="M1184.06,-73C1206.71,-68.88 1232.21,-64.24 1255.5,-60 1261.23,-58.96 1267.2,-57.87 1273.17,-56.78"/>
<polygon fill="#9a32cd" stroke="#9a32cd" points="1183.74,-69.68 1174.53,-74.91 1185,-76.57 1183.74,-69.68"/>
</a>
</g>
<text text-anchor="middle" x="1234.12" y="-69.75" font-family="Helvetica,sans-Serif" font-size="10.00" fill="grey"> elements</text>
</g>
<!-- Node14 -->
<g id="Node000014" class="node">
<title>Node14</title>
<g id="a_Node000014"><a xlink:title=" ">
<polygon fill="#fff0f0" stroke="red" points="925.25,-85.62 820.75,-85.62 820.75,-66.38 925.25,-66.38 925.25,-85.62"/>
<text text-anchor="middle" x="873" y="-72.12" font-family="Helvetica,sans-Serif" font-size="10.00">std::unique_ptr&lt; T &gt;</text>
</a>
</g>
</g>
<!-- Node14&#45;&gt;Node13 -->
<g id="edge15_Node000013_Node000014" class="edge">
<title>Node14&#45;&gt;Node13</title>
<g id="a_edge15_Node000013_Node000014"><a xlink:title=" ">
<path fill="none" stroke="orange" stroke-dasharray="5,2" d="M936.39,-77.18C962.6,-77.78 993.41,-78.62 1021.25,-79.75 1027.01,-79.98 1032.97,-80.25 1038.96,-80.54"/>
<polygon fill="orange" stroke="orange" points="936.54,-73.66 926.46,-76.93 936.38,-80.66 936.54,-73.66"/>
</a>
</g>
<text text-anchor="middle" x="982.25" y="-81.75" font-family="Helvetica,sans-Serif" font-size="10.00" fill="grey"> &lt; StateHandler &gt;</text>
</g>
<!-- Node15 -->
<g id="Node000015" class="node">
<title>Node15</title>
<g id="a_Node000015"><a xlink:href="../../d5/db9/class_scalable_bitmap.html" target="_top" xlink:title=" ">
<polygon fill="white" stroke="#666666" points="1159.12,-312.62 1074.88,-312.62 1074.88,-293.38 1159.12,-293.38 1159.12,-312.62"/>
<text text-anchor="middle" x="1117" y="-299.12" font-family="Helvetica,sans-Serif" font-size="10.00">ScalableBitmap</text>
</a>
</g>
</g>
<!-- Node15&#45;&gt;Node1 -->
<g id="edge19_Node000001_Node000015" class="edge">
<title>Node15&#45;&gt;Node1</title>
<g id="a_edge19_Node000001_Node000015"><a xlink:title=" ">
<path fill="none" stroke="#9a32cd" stroke-dasharray="5,2" d="M1170.15,-293.52C1195.85,-288.85 1227.3,-283.14 1255.5,-278 1265.89,-276.11 1277.08,-274.07 1287.61,-272.15"/>
<polygon fill="#9a32cd" stroke="#9a32cd" points="1169.73,-290.23 1160.52,-295.46 1170.98,-297.11 1169.73,-290.23"/>
</a>
</g>
<text text-anchor="middle" x="1234.12" y="-299" font-family="Helvetica,sans-Serif" font-size="10.00" fill="grey"> m_off</text>
<text text-anchor="middle" x="1234.12" y="-287.75" font-family="Helvetica,sans-Serif" font-size="10.00" fill="grey">m_on</text>
</g>
<!-- Node16 -->
<g id="Node000016" class="node">
<title>Node16</title>
<g id="a_Node000016"><a xlink:title=" ">
<polygon fill="white" stroke="#666666" points="902.75,-314.62 843.25,-314.62 843.25,-295.38 902.75,-295.38 902.75,-314.62"/>
<text text-anchor="middle" x="873" y="-301.12" font-family="Helvetica,sans-Serif" font-size="10.00">std::string</text>
</a>
</g>
</g>
<!-- Node16&#45;&gt;Node15 -->
<g id="edge20_Node000015_Node000016" class="edge">
<title>Node16&#45;&gt;Node15</title>
<g id="a_edge20_Node000015_Node000016"><a xlink:title=" ">
<path fill="none" stroke="#9a32cd" stroke-dasharray="5,2" d="M914.14,-304.67C958.52,-304.3 1029.66,-303.71 1074.56,-303.34"/>
<polygon fill="#9a32cd" stroke="#9a32cd" points="914.16,-301.18 904.19,-304.76 914.22,-308.18 914.16,-301.18"/>
</a>
</g>
<text text-anchor="middle" x="982.25" y="-306.75" font-family="Helvetica,sans-Serif" font-size="10.00" fill="grey"> m_icon_name</text>
</g>
<!-- Node17 -->
<g id="Node000017" class="node">
<title>Node17</title>
<g id="a_Node000017"><a xlink:title=" ">
<polygon fill="white" stroke="#666666" points="691,-322.25 597,-322.25 597,-291.75 691,-291.75 691,-322.25"/>
<text text-anchor="start" x="605" y="-308.75" font-family="Helvetica,sans-Serif" font-size="10.00">std::basic_string&lt;</text>
<text text-anchor="middle" x="644" y="-297.5" font-family="Helvetica,sans-Serif" font-size="10.00"> Char &gt;</text>
</a>
</g>
</g>
<!-- Node17&#45;&gt;Node16 -->
<g id="edge21_Node000016_Node000017" class="edge">
<title>Node17&#45;&gt;Node16</title>
<g id="a_edge21_Node000016_Node000017"><a xlink:title=" ">
<path fill="none" stroke="#63b8ff" d="M702.22,-306.5C747.02,-306.1 807.48,-305.57 842.86,-305.26"/>
<polygon fill="#63b8ff" stroke="#63b8ff" points="702.45,-303 692.48,-306.59 702.52,-310 702.45,-303"/>
</a>
</g>
</g>
</g>
</svg>
