<?xml version="1.0" encoding="UTF-8" standalone="no"?>
<!DOCTYPE svg PUBLIC "-//W3C//DTD SVG 1.1//EN"
 "http://www.w3.org/Graphics/SVG/1.1/DTD/svg11.dtd">
<!-- Generated by graphviz version 8.1.0 (20230707.0739)
 -->
<!-- Title: Slic3r::GUI::GLGizmoSeam::tool_changed Pages: 1 -->
<!--zoomable 762 -->

<svg id="main" version="1.1" xmlns="http://www.w3.org/2000/svg" xmlns:xlink="http://www.w3.org/1999/xlink" xml:space="preserve" onload="init(evt)">
<style type="text/css"><![CDATA[
.node, .edge {opacity: 0.7;}
.node.selected, .edge.selected {opacity: 1;}
.edge:hover path { stroke: red; }
.edge:hover polygon { stroke: red; fill: red; }
]]></style>

<defs>
  <circle id="rim" cx="0" cy="0" r="7"/>
  <circle id="rim2" cx="0" cy="0" r="3.5"/>
  <g id="zoomPlus">
    <use xlink:href="#rim" fill="#404040"><set attributeName="fill" to="#808080" begin="zoomplus.mouseover" end="zoomplus.mouseout"/></use>
    <path d="M-4,0h8M0,-4v8" fill="none" stroke="white" stroke-width="1.5" pointer-events="none"/>
  </g>
  <g id="zoomMin">
    <use xlink:href="#rim" fill="#404040"><set attributeName="fill" to="#808080" begin="zoomminus.mouseover" end="zoomminus.mouseout"/></use>
    <path d="M-4,0h8" fill="none" stroke="white" stroke-width="1.5" pointer-events="none"/>
  </g>
  <g id="arrowUp" transform="translate(30 24)">
    <use xlink:href="#rim"/>
    <path pointer-events="none" fill="none" stroke="white" stroke-width="1.5" d="M0,-3.0v7 M-2.5,-0.5L0,-3.0L2.5,-0.5"/>
  </g>
  <g id="arrowRight" transform="rotate(90) translate(36 -43)">
    <use xlink:href="#rim"/>
    <path pointer-events="none" fill="none" stroke="white" stroke-width="1.5" d="M0,-3.0v7 M-2.5,-0.5L0,-3.0L2.5,-0.5"/>
  </g>
  <g id="arrowDown" transform="rotate(180) translate(-30 -48)">
    <use xlink:href="#rim"/>
    <path pointer-events="none" fill="none" stroke="white" stroke-width="1.5" d="M0,-3.0v7 M-2.5,-0.5L0,-3.0L2.5,-0.5"/>
  </g>
  <g id="arrowLeft" transform="rotate(270) translate(-36 17)">
    <use xlink:href="#rim"/>
    <path pointer-events="none" fill="none" stroke="white" stroke-width="1.5" d="M0,-3.0v7 M-2.5,-0.5L0,-3.0L2.5,-0.5"/>
  </g>
  <g id="resetDef">
    <use xlink:href="#rim2" fill="#404040"><set attributeName="fill" to="#808080" begin="reset.mouseover" end="reset.mouseout"/></use>
  </g>
</defs>
<script type="application/ecmascript">
var viewWidth = 1603;
var viewHeight = 762;
var sectionId = 'dynsection-97';
</script>
<script type="application/ecmascript" xlink:href="../../svg.min.js"/>
<svg id="graph" class="graph">
<g id="viewport">
<title>Slic3r::GUI::GLGizmoSeam::tool_changed</title>
<!-- Node1 -->
<g id="Node000001" class="node">
<title>Node1</title>
<g id="a_Node000001"><a xlink:title=" ">
<polygon fill="#999999" stroke="#666666" points="137.5,-642.41 0,-642.41 0,-611.91 137.5,-611.91 137.5,-642.41"/>
<text text-anchor="start" x="8" y="-628.91" font-family="Helvetica,sans-Serif" font-size="10.00">Slic3r::GUI::GLGizmoSeam</text>
<text text-anchor="middle" x="68.75" y="-617.66" font-family="Helvetica,sans-Serif" font-size="10.00">::tool_changed</text>
</a>
</g>
</g>
<!-- Node2 -->
<g id="Node000002" class="node">
<title>Node2</title>
<g id="a_Node000002"><a xlink:href="../../da/d4e/class_slic3r_1_1_g_u_i_1_1_triangle_selector_patch.html#a22cbc8aed4976f78d2f0ecff05cfd72c" target="_top" xlink:title=" ">
<polygon fill="white" stroke="#666666" points="314.75,-642.41 173.5,-642.41 173.5,-611.91 314.75,-611.91 314.75,-642.41"/>
<text text-anchor="start" x="181.5" y="-628.91" font-family="Helvetica,sans-Serif" font-size="10.00">Slic3r::GUI::TriangleSelector</text>
<text text-anchor="middle" x="244.12" y="-617.66" font-family="Helvetica,sans-Serif" font-size="10.00">Patch::set_filter_state</text>
</a>
</g>
</g>
<!-- Node1&#45;&gt;Node2 -->
<g id="edge1_Node000001_Node000002" class="edge">
<title>Node1&#45;&gt;Node2</title>
<g id="a_edge1_Node000001_Node000002"><a xlink:title=" ">
<path fill="none" stroke="#63b8ff" d="M137.77,-627.16C145.73,-627.16 153.91,-627.16 162.02,-627.16"/>
<polygon fill="#63b8ff" stroke="#63b8ff" points="162.01,-630.66 172.01,-627.16 162.01,-623.66 162.01,-630.66"/>
</a>
</g>
</g>
<!-- Node3 -->
<g id="Node000003" class="node">
<title>Node3</title>
<g id="a_Node000003"><a xlink:href="../../da/d4e/class_slic3r_1_1_g_u_i_1_1_triangle_selector_patch.html#aae98920f79a645ca99a53d6df7049c29" target="_top" xlink:title=" ">
<polygon fill="white" stroke="#666666" points="682,-754.41 540.75,-754.41 540.75,-723.91 682,-723.91 682,-754.41"/>
<text text-anchor="start" x="548.75" y="-740.91" font-family="Helvetica,sans-Serif" font-size="10.00">Slic3r::GUI::TriangleSelector</text>
<text text-anchor="middle" x="611.38" y="-729.66" font-family="Helvetica,sans-Serif" font-size="10.00">Patch::release_geometry</text>
</a>
</g>
</g>
<!-- Node2&#45;&gt;Node3 -->
<g id="edge2_Node000002_Node000003" class="edge">
<title>Node2&#45;&gt;Node3</title>
<g id="a_edge2_Node000002_Node000003"><a xlink:title=" ">
<path fill="none" stroke="#63b8ff" d="M294.61,-642.85C351.01,-660.67 446,-690.46 528,-715.16 533.62,-716.85 539.45,-718.59 545.31,-720.32"/>
<polygon fill="#63b8ff" stroke="#63b8ff" points="544.25,-723.95 554.83,-723.42 546.23,-717.24 544.25,-723.95"/>
</a>
</g>
</g>
<!-- Node5 -->
<g id="Node000005" class="node">
<title>Node5</title>
<g id="a_Node000005"><a xlink:href="../../da/d4e/class_slic3r_1_1_g_u_i_1_1_triangle_selector_patch.html#a9c3ec0aa48e8a41c45243384f273435e" target="_top" xlink:title=" ">
<polygon fill="white" stroke="#666666" points="492,-621.41 350.75,-621.41 350.75,-590.91 492,-590.91 492,-621.41"/>
<text text-anchor="start" x="358.75" y="-607.91" font-family="Helvetica,sans-Serif" font-size="10.00">Slic3r::GUI::TriangleSelector</text>
<text text-anchor="middle" x="421.38" y="-596.66" font-family="Helvetica,sans-Serif" font-size="10.00">Patch::update_render_data</text>
</a>
</g>
</g>
<!-- Node2&#45;&gt;Node5 -->
<g id="edge4_Node000002_Node000005" class="edge">
<title>Node2&#45;&gt;Node5</title>
<g id="a_edge4_Node000002_Node000005"><a xlink:title=" ">
<path fill="none" stroke="#63b8ff" d="M315.14,-618.77C323.23,-617.8 331.53,-616.81 339.74,-615.82"/>
<polygon fill="#63b8ff" stroke="#63b8ff" points="339.95,-619.2 349.47,-614.54 339.12,-612.25 339.95,-619.2"/>
</a>
</g>
</g>
<!-- Node4 -->
<g id="Node000004" class="node">
<title>Node4</title>
<g id="a_Node000004"><a xlink:href="../../da/d4e/class_slic3r_1_1_g_u_i_1_1_triangle_selector_patch.html#a68324980598204697d69cd289e5a99ca" target="_top" xlink:title=" ">
<polygon fill="white" stroke="#666666" points="872,-754.41 730.75,-754.41 730.75,-723.91 872,-723.91 872,-754.41"/>
<text text-anchor="start" x="738.75" y="-740.91" font-family="Helvetica,sans-Serif" font-size="10.00">Slic3r::GUI::TriangleSelector</text>
<text text-anchor="middle" x="801.38" y="-729.66" font-family="Helvetica,sans-Serif" font-size="10.00">Patch::clear</text>
</a>
</g>
</g>
<!-- Node3&#45;&gt;Node4 -->
<g id="edge3_Node000003_Node000004" class="edge">
<title>Node3&#45;&gt;Node4</title>
<g id="a_edge3_Node000003_Node000004"><a xlink:title=" ">
<path fill="none" stroke="#63b8ff" d="M682.38,-739.16C694.49,-739.16 707.17,-739.16 719.54,-739.16"/>
<polygon fill="#63b8ff" stroke="#63b8ff" points="719.31,-742.66 729.31,-739.16 719.31,-735.66 719.31,-742.66"/>
</a>
</g>
</g>
<!-- Node5&#45;&gt;Node3 -->
<g id="edge35_Node000005_Node000003" class="edge">
<title>Node5&#45;&gt;Node3</title>
<g id="a_edge35_Node000005_Node000003"><a xlink:title=" ">
<path fill="none" stroke="#63b8ff" d="M437,-621.66C464.69,-650.96 522.53,-711.86 528,-715.16 530.21,-716.49 532.49,-717.75 534.83,-718.94"/>
<polygon fill="#63b8ff" stroke="#63b8ff" points="533.18,-722.49 543.73,-723.48 536.1,-716.13 533.18,-722.49"/>
</a>
</g>
</g>
<!-- Node6 -->
<g id="Node000006" class="node">
<title>Node6</title>
<g id="a_Node000006"><a xlink:href="../../d6/d62/class_slic3r_1_1_g_u_i_1_1_g_l_paint_contour.html#abec656925fca2e5938846a7ef7aa40bb" target="_top" xlink:title=" ">
<polygon fill="white" stroke="#666666" points="681.62,-462.41 541.12,-462.41 541.12,-431.91 681.62,-431.91 681.62,-462.41"/>
<text text-anchor="start" x="549.12" y="-448.91" font-family="Helvetica,sans-Serif" font-size="10.00">Slic3r::GUI::GLPaintContour</text>
<text text-anchor="middle" x="611.38" y="-437.66" font-family="Helvetica,sans-Serif" font-size="10.00">::finalize_geometry</text>
</a>
</g>
</g>
<!-- Node5&#45;&gt;Node6 -->
<g id="edge5_Node000005_Node000006" class="edge">
<title>Node5&#45;&gt;Node6</title>
<g id="a_edge5_Node000005_Node000006"><a xlink:title=" ">
<path fill="none" stroke="#63b8ff" d="M430.31,-590.8C445.47,-562.95 481.27,-504.06 528,-472.16 530.41,-470.52 532.92,-468.98 535.52,-467.54"/>
<polygon fill="#63b8ff" stroke="#63b8ff" points="536.8,-470.32 544.21,-462.76 533.7,-464.04 536.8,-470.32"/>
</a>
</g>
</g>
<!-- Node7 -->
<g id="Node000007" class="node">
<title>Node7</title>
<g id="a_Node000007"><a xlink:href="../../da/d4e/class_slic3r_1_1_g_u_i_1_1_triangle_selector_patch.html#a656cf2fe2d5592167ff4a0f1bac2ffb8" target="_top" xlink:title=" ">
<polygon fill="white" stroke="#666666" points="682,-706.03 540.75,-706.03 540.75,-664.28 682,-664.28 682,-706.03"/>
<text text-anchor="start" x="548.75" y="-692.53" font-family="Helvetica,sans-Serif" font-size="10.00">Slic3r::GUI::TriangleSelector</text>
<text text-anchor="start" x="548.75" y="-681.28" font-family="Helvetica,sans-Serif" font-size="10.00">Patch::finalize_triangle</text>
<text text-anchor="middle" x="611.38" y="-670.03" font-family="Helvetica,sans-Serif" font-size="10.00">_indices</text>
</a>
</g>
</g>
<!-- Node5&#45;&gt;Node7 -->
<g id="edge6_Node000005_Node000007" class="edge">
<title>Node5&#45;&gt;Node7</title>
<g id="a_edge6_Node000005_Node000007"><a xlink:title=" ">
<path fill="none" stroke="#63b8ff" d="M454.42,-621.89C475.2,-631.87 502.96,-644.82 528,-655.16 531.85,-656.75 535.81,-658.34 539.82,-659.92"/>
<polygon fill="#63b8ff" stroke="#63b8ff" points="538.27,-663.45 548.86,-663.79 540.79,-656.92 538.27,-663.45"/>
</a>
</g>
</g>
<!-- Node8 -->
<g id="Node000008" class="node">
<title>Node8</title>
<g id="a_Node000008"><a xlink:href="../../df/d3c/class_slic3r_1_1_triangle_selector.html#ab5838f443119a655f37fe06ccd87c196" target="_top" xlink:title=" ">
<polygon fill="white" stroke="#666666" points="860,-518.41 742.75,-518.41 742.75,-487.91 860,-487.91 860,-518.41"/>
<text text-anchor="start" x="750.75" y="-504.91" font-family="Helvetica,sans-Serif" font-size="10.00">Slic3r::TriangleSelector</text>
<text text-anchor="middle" x="801.38" y="-493.66" font-family="Helvetica,sans-Serif" font-size="10.00">::get_seed_fill_contour</text>
</a>
</g>
</g>
<!-- Node5&#45;&gt;Node8 -->
<g id="edge7_Node000005_Node000008" class="edge">
<title>Node5&#45;&gt;Node8</title>
<g id="a_edge7_Node000005_Node000008"><a xlink:title=" ">
<path fill="none" stroke="#63b8ff" d="M452.15,-590.42C472.93,-579.99 501.55,-566.71 528,-558.16 565.09,-546.16 663.89,-527.39 731.71,-515.18"/>
<polygon fill="#63b8ff" stroke="#63b8ff" points="732.09,-518.49 741.32,-513.28 730.86,-511.6 732.09,-518.49"/>
</a>
</g>
</g>
<!-- Node24 -->
<g id="Node000024" class="node">
<title>Node24</title>
<g id="a_Node000024"><a xlink:href="../../d6/d62/class_slic3r_1_1_g_u_i_1_1_g_l_paint_contour.html#ace5a795b9ce992eb96ee71916c78783d" target="_top" xlink:title=" ">
<polygon fill="white" stroke="#666666" points="681.62,-646.41 541.12,-646.41 541.12,-615.91 681.62,-615.91 681.62,-646.41"/>
<text text-anchor="start" x="549.12" y="-632.91" font-family="Helvetica,sans-Serif" font-size="10.00">Slic3r::GUI::GLPaintContour</text>
<text text-anchor="middle" x="611.38" y="-621.66" font-family="Helvetica,sans-Serif" font-size="10.00">::release_geometry</text>
</a>
</g>
</g>
<!-- Node5&#45;&gt;Node24 -->
<g id="edge33_Node000005_Node000024" class="edge">
<title>Node5&#45;&gt;Node24</title>
<g id="a_edge33_Node000005_Node000024"><a xlink:title=" ">
<path fill="none" stroke="#63b8ff" d="M492.38,-615.47C504.57,-617.09 517.34,-618.79 529.79,-620.44"/>
<polygon fill="#63b8ff" stroke="#63b8ff" points="529.25,-624.03 539.63,-621.88 530.17,-617.1 529.25,-624.03"/>
</a>
</g>
</g>
<!-- Node26 -->
<g id="Node000026" class="node">
<title>Node26</title>
<g id="a_Node000026"><a xlink:href="../../da/d4e/class_slic3r_1_1_g_u_i_1_1_triangle_selector_patch.html#ae4257fd4949a4924cc3cc4c2a46b837a" target="_top" xlink:title=" ">
<polygon fill="white" stroke="#666666" points="694.75,-597.41 528,-597.41 528,-566.91 694.75,-566.91 694.75,-597.41"/>
<text text-anchor="start" x="536" y="-583.91" font-family="Helvetica,sans-Serif" font-size="10.00">Slic3r::GUI::TriangleSelector</text>
<text text-anchor="middle" x="611.38" y="-572.66" font-family="Helvetica,sans-Serif" font-size="10.00">Patch::update_triangles_per_patch</text>
</a>
</g>
</g>
<!-- Node5&#45;&gt;Node26 -->
<g id="edge36_Node000005_Node000026" class="edge">
<title>Node5&#45;&gt;Node26</title>
<g id="a_edge36_Node000005_Node000026"><a xlink:title=" ">
<path fill="none" stroke="#63b8ff" d="M492.38,-597.22C500.36,-596.2 508.6,-595.15 516.82,-594.1"/>
<polygon fill="#63b8ff" stroke="#63b8ff" points="517.14,-597.46 526.62,-592.72 516.25,-590.52 517.14,-597.46"/>
</a>
</g>
</g>
<!-- Node31 -->
<g id="Node000031" class="node">
<title>Node31</title>
<g id="a_Node000031"><a xlink:href="../../da/d4e/class_slic3r_1_1_g_u_i_1_1_triangle_selector_patch.html#a43510d8e6a476ecccf722c5a02e19f65" target="_top" xlink:title=" ">
<polygon fill="white" stroke="#666666" points="692.12,-511.41 530.62,-511.41 530.62,-480.91 692.12,-480.91 692.12,-511.41"/>
<text text-anchor="start" x="538.62" y="-497.91" font-family="Helvetica,sans-Serif" font-size="10.00">Slic3r::GUI::TriangleSelector</text>
<text text-anchor="middle" x="611.38" y="-486.66" font-family="Helvetica,sans-Serif" font-size="10.00">Patch::update_triangles_per_type</text>
</a>
</g>
</g>
<!-- Node5&#45;&gt;Node31 -->
<g id="edge52_Node000005_Node000031" class="edge">
<title>Node5&#45;&gt;Node31</title>
<g id="a_edge52_Node000005_Node000031"><a xlink:title=" ">
<path fill="none" stroke="#63b8ff" d="M439.14,-590.58C459.04,-572.75 493.86,-543.65 528,-525.16 534.27,-521.76 541.02,-518.64 547.85,-515.79"/>
<polygon fill="#63b8ff" stroke="#63b8ff" points="548.87,-518.76 556.89,-511.84 546.3,-512.25 548.87,-518.76"/>
</a>
</g>
</g>
<!-- Node9 -->
<g id="Node000009" class="node">
<title>Node9</title>
<g id="a_Node000009"><a xlink:href="../../df/d3c/class_slic3r_1_1_triangle_selector.html#abd957679aa53d5ef8360414992e0a399" target="_top" xlink:title=" ">
<polygon fill="white" stroke="#666666" points="1034.25,-368.03 917,-368.03 917,-326.28 1034.25,-326.28 1034.25,-368.03"/>
<text text-anchor="start" x="925" y="-354.53" font-family="Helvetica,sans-Serif" font-size="10.00">Slic3r::TriangleSelector</text>
<text text-anchor="start" x="925" y="-343.28" font-family="Helvetica,sans-Serif" font-size="10.00">::get_seed_fill_contour</text>
<text text-anchor="middle" x="975.62" y="-332.03" font-family="Helvetica,sans-Serif" font-size="10.00">_recursive</text>
</a>
</g>
</g>
<!-- Node8&#45;&gt;Node9 -->
<g id="edge8_Node000008_Node000009" class="edge">
<title>Node8&#45;&gt;Node9</title>
<g id="a_edge8_Node000008_Node000009"><a xlink:title=" ">
<path fill="none" stroke="#63b8ff" d="M819.52,-487.63C848.4,-461.48 907.13,-408.29 943.46,-375.39"/>
<polygon fill="#63b8ff" stroke="#63b8ff" points="945.23,-378.6 950.29,-369.29 940.53,-373.41 945.23,-378.6"/>
</a>
</g>
</g>
<!-- Node19 -->
<g id="Node000019" class="node">
<title>Node19</title>
<g id="a_Node000019"><a xlink:href="../../df/d3c/class_slic3r_1_1_triangle_selector.html#aa393db23a05145d26ccefe1e1280cdeb" target="_top" xlink:title=" ">
<polygon fill="#fff0f0" stroke="red" points="1398.5,-534.41 1268.5,-534.41 1268.5,-503.91 1398.5,-503.91 1398.5,-534.41"/>
<text text-anchor="start" x="1276.5" y="-520.91" font-family="Helvetica,sans-Serif" font-size="10.00">Slic3r::TriangleSelector</text>
<text text-anchor="middle" x="1333.5" y="-509.66" font-family="Helvetica,sans-Serif" font-size="10.00">::verify_triangle_neighbors</text>
</a>
</g>
</g>
<!-- Node8&#45;&gt;Node19 -->
<g id="edge32_Node000008_Node000019" class="edge">
<title>Node8&#45;&gt;Node19</title>
<g id="a_edge32_Node000008_Node000019"><a xlink:title=" ">
<path fill="none" stroke="#63b8ff" d="M860.38,-508.57C916.35,-513.51 1003.51,-520.43 1079.25,-523.16 1147.32,-525.61 1164.4,-524.52 1232.5,-523.16 1240.53,-523 1248.93,-522.77 1257.29,-522.49"/>
<polygon fill="#63b8ff" stroke="#63b8ff" points="1257.36,-525.96 1267.23,-522.11 1257.11,-518.96 1257.36,-525.96"/>
</a>
</g>
</g>
<!-- Node9&#45;&gt;Node9 -->
<g id="edge23_Node000009_Node000009" class="edge">
<title>Node9&#45;&gt;Node9</title>
<g id="a_edge23_Node000009_Node000009"><a xlink:title=" ">
<path fill="none" stroke="#63b8ff" d="M943.46,-368.35C940.4,-377.83 951.12,-386.03 975.62,-386.03 990.17,-386.03 999.86,-383.14 1004.69,-378.81"/>
<polygon fill="#63b8ff" stroke="#63b8ff" points="1008.31,-379.93 1007.79,-369.35 1001.59,-377.95 1008.31,-379.93"/>
</a>
</g>
</g>
<!-- Node10 -->
<g id="Node000010" class="node">
<title>Node10</title>
<g id="a_Node000010"><a xlink:href="../../df/d3c/class_slic3r_1_1_triangle_selector.html#abe5c22274404d480e8021c03af9ec35e" target="_top" xlink:title=" ">
<polygon fill="white" stroke="#666666" points="1219.38,-301.41 1092.38,-301.41 1092.38,-270.91 1219.38,-270.91 1219.38,-301.41"/>
<text text-anchor="start" x="1100.38" y="-287.91" font-family="Helvetica,sans-Serif" font-size="10.00">Slic3r::TriangleSelector</text>
<text text-anchor="middle" x="1155.88" y="-276.66" font-family="Helvetica,sans-Serif" font-size="10.00">::append_touching_edges</text>
</a>
</g>
</g>
<!-- Node9&#45;&gt;Node10 -->
<g id="edge9_Node000009_Node000010" class="edge">
<title>Node9&#45;&gt;Node10</title>
<g id="a_edge9_Node000009_Node000010"><a xlink:title=" ">
<path fill="none" stroke="#63b8ff" d="M1034.5,-327.35C1055.19,-320.27 1078.47,-312.31 1098.99,-305.28"/>
<polygon fill="#63b8ff" stroke="#63b8ff" points="1099.81,-308.36 1108.14,-301.81 1097.54,-301.74 1099.81,-308.36"/>
</a>
</g>
</g>
<!-- Node12 -->
<g id="Node000012" class="node">
<title>Node12</title>
<g id="a_Node000012"><a xlink:href="../../de/db8/namespace_slic3r.html#a9190c2947554e2a44d5c3a13d5dfcbfe" target="_top" xlink:title=" ">
<polygon fill="white" stroke="#666666" points="1574.62,-376.78 1454.38,-376.78 1454.38,-357.53 1574.62,-357.53 1574.62,-376.78"/>
<text text-anchor="middle" x="1514.5" y="-363.28" font-family="Helvetica,sans-Serif" font-size="10.00">Slic3r::next_idx_modulo</text>
</a>
</g>
</g>
<!-- Node9&#45;&gt;Node12 -->
<g id="edge28_Node000009_Node000012" class="edge">
<title>Node9&#45;&gt;Node12</title>
<g id="a_edge28_Node000009_Node000012"><a xlink:title=" ">
<path fill="none" stroke="#63b8ff" d="M1034.59,-349.32C1133.94,-353.02 1336.37,-360.56 1443.46,-364.55"/>
<polygon fill="#63b8ff" stroke="#63b8ff" points="1443.02,-368.07 1453.14,-364.95 1443.28,-361.08 1443.02,-368.07"/>
</a>
</g>
</g>
<!-- Node13 -->
<g id="Node000013" class="node">
<title>Node13</title>
<g id="a_Node000013"><a xlink:href="../../d5/df4/class_slic3r_1_1_triangle_selector_1_1_triangle.html#ae7cf7018d4a18125fe065c4b54ebe6a4" target="_top" xlink:title=" ">
<polygon fill="white" stroke="#666666" points="1594.5,-213.41 1434.5,-213.41 1434.5,-182.91 1594.5,-182.91 1594.5,-213.41"/>
<text text-anchor="start" x="1442.5" y="-199.91" font-family="Helvetica,sans-Serif" font-size="10.00">Slic3r::TriangleSelector</text>
<text text-anchor="middle" x="1514.5" y="-188.66" font-family="Helvetica,sans-Serif" font-size="10.00">::Triangle::number_of_split_sides</text>
</a>
</g>
</g>
<!-- Node9&#45;&gt;Node13 -->
<g id="edge29_Node000009_Node000013" class="edge">
<title>Node9&#45;&gt;Node13</title>
<g id="a_edge29_Node000009_Node000013"><a xlink:title=" ">
<path fill="none" stroke="#63b8ff" d="M981.04,-325.91C990.71,-285.46 1018.01,-198.22 1079.25,-162.16 1203.97,-88.72 1384.8,-145.16 1468.23,-178.36"/>
<polygon fill="#63b8ff" stroke="#63b8ff" points="1466.8,-181.97 1477.38,-182.48 1469.43,-175.48 1466.8,-181.97"/>
</a>
</g>
</g>
<!-- Node17 -->
<g id="Node000017" class="node">
<title>Node17</title>
<g id="a_Node000017"><a xlink:href="../../df/d3c/class_slic3r_1_1_triangle_selector.html#a5b6de2b782c39b12e79a6dd5a417ca9d" target="_top" xlink:title=" ">
<polygon fill="#fff0f0" stroke="red" points="1214.5,-405.41 1097.25,-405.41 1097.25,-374.91 1214.5,-374.91 1214.5,-405.41"/>
<text text-anchor="start" x="1105.25" y="-391.91" font-family="Helvetica,sans-Serif" font-size="10.00">Slic3r::TriangleSelector</text>
<text text-anchor="middle" x="1155.88" y="-380.66" font-family="Helvetica,sans-Serif" font-size="10.00">::child_neighbors</text>
</a>
</g>
</g>
<!-- Node9&#45;&gt;Node17 -->
<g id="edge18_Node000009_Node000017" class="edge">
<title>Node9&#45;&gt;Node17</title>
<g id="a_edge18_Node000009_Node000017"><a xlink:title=" ">
<path fill="none" stroke="#63b8ff" d="M1034.5,-361.12C1051.08,-365.12 1069.32,-369.52 1086.47,-373.66"/>
<polygon fill="#63b8ff" stroke="#63b8ff" points="1085.45,-377.25 1095.99,-376.19 1087.09,-370.45 1085.45,-377.25"/>
</a>
</g>
</g>
<!-- Node9&#45;&gt;Node19 -->
<g id="edge31_Node000009_Node000019" class="edge">
<title>Node9&#45;&gt;Node19</title>
<g id="a_edge31_Node000009_Node000019"><a xlink:title=" ">
<path fill="none" stroke="#63b8ff" d="M1003.5,-368.32C1023.4,-383.07 1051.74,-402.18 1079.25,-414.16 1143.59,-442.18 1168.33,-423.76 1232.5,-452.16 1258.9,-463.84 1285.92,-482.42 1305.21,-497.06"/>
<polygon fill="#63b8ff" stroke="#63b8ff" points="1302.71,-500.32 1312.76,-503.67 1306.99,-494.78 1302.71,-500.32"/>
</a>
</g>
</g>
<!-- Node22 -->
<g id="Node000022" class="node">
<title>Node22</title>
<g id="a_Node000022"><a xlink:href="../../d5/df4/class_slic3r_1_1_triangle_selector_1_1_triangle.html#a1bfe1873c4cd227a4ded180bd39b2ec7" target="_top" xlink:title=" ">
<polygon fill="white" stroke="#666666" points="1214.5,-72.03 1097.25,-72.03 1097.25,-30.28 1214.5,-30.28 1214.5,-72.03"/>
<text text-anchor="start" x="1105.25" y="-58.53" font-family="Helvetica,sans-Serif" font-size="10.00">Slic3r::TriangleSelector</text>
<text text-anchor="start" x="1105.25" y="-47.28" font-family="Helvetica,sans-Serif" font-size="10.00">::Triangle::is_selected</text>
<text text-anchor="middle" x="1155.88" y="-36.03" font-family="Helvetica,sans-Serif" font-size="10.00">_by_seed_fill</text>
</a>
</g>
</g>
<!-- Node9&#45;&gt;Node22 -->
<g id="edge24_Node000009_Node000022" class="edge">
<title>Node9&#45;&gt;Node22</title>
<g id="a_edge24_Node000009_Node000022"><a xlink:title=" ">
<path fill="none" stroke="#63b8ff" d="M979.5,-326.05C987.14,-277.65 1012.11,-157.37 1079.25,-86.16 1081.86,-83.39 1084.73,-80.82 1087.78,-78.44"/>
<polygon fill="#63b8ff" stroke="#63b8ff" points="1089.56,-80.78 1095.8,-72.22 1085.58,-75.02 1089.56,-80.78"/>
</a>
</g>
</g>
<!-- Node15 -->
<g id="Node000015" class="node">
<title>Node15</title>
<g id="a_Node000015"><a xlink:href="../../d5/df4/class_slic3r_1_1_triangle_selector_1_1_triangle.html#a2c50214baac875c2aa07b1027a04ddc8" target="_top" xlink:title=" ">
<polygon fill="white" stroke="#666666" points="1392.12,-88.41 1274.88,-88.41 1274.88,-57.91 1392.12,-57.91 1392.12,-88.41"/>
<text text-anchor="start" x="1282.88" y="-74.91" font-family="Helvetica,sans-Serif" font-size="10.00">Slic3r::TriangleSelector</text>
<text text-anchor="middle" x="1333.5" y="-63.66" font-family="Helvetica,sans-Serif" font-size="10.00">::Triangle::is_split</text>
</a>
</g>
</g>
<!-- Node9&#45;&gt;Node15 -->
<g id="edge27_Node000009_Node000015" class="edge">
<title>Node9&#45;&gt;Node15</title>
<g id="a_edge27_Node000009_Node000015"><a xlink:title=" ">
<path fill="none" stroke="#63b8ff" d="M980.03,-325.82C991.09,-259.4 1028.3,-58.54 1079.25,-21.16 1146.06,27.85 1248.2,-20.86 1299.98,-51.84"/>
<polygon fill="#63b8ff" stroke="#63b8ff" points="1297.99,-55.34 1308.34,-57.58 1301.65,-49.37 1297.99,-55.34"/>
</a>
</g>
</g>
<!-- Node23 -->
<g id="Node000023" class="node">
<title>Node23</title>
<g id="a_Node000023"><a xlink:href="../../d5/df4/class_slic3r_1_1_triangle_selector_1_1_triangle.html#ac56cdc0a4dd59a2d0a5aed4c94d22628" target="_top" xlink:title=" ">
<polygon fill="white" stroke="#666666" points="1214.5,-491.41 1097.25,-491.41 1097.25,-460.91 1214.5,-460.91 1214.5,-491.41"/>
<text text-anchor="start" x="1105.25" y="-477.91" font-family="Helvetica,sans-Serif" font-size="10.00">Slic3r::TriangleSelector</text>
<text text-anchor="middle" x="1155.88" y="-466.66" font-family="Helvetica,sans-Serif" font-size="10.00">::Triangle::valid</text>
</a>
</g>
</g>
<!-- Node9&#45;&gt;Node23 -->
<g id="edge30_Node000009_Node000023" class="edge">
<title>Node9&#45;&gt;Node23</title>
<g id="a_edge30_Node000009_Node000023"><a xlink:title=" ">
<path fill="none" stroke="#63b8ff" d="M993.89,-368.51C1012.83,-390.74 1045.1,-425.3 1079.25,-447.16 1084.41,-450.46 1090,-453.48 1095.73,-456.21"/>
<polygon fill="#63b8ff" stroke="#63b8ff" points="1093.89,-459.67 1104.45,-460.55 1096.75,-453.28 1093.89,-459.67"/>
</a>
</g>
</g>
<!-- Node10&#45;&gt;Node10 -->
<g id="edge10_Node000010_Node000010" class="edge">
<title>Node10&#45;&gt;Node10</title>
<g id="a_edge10_Node000010_Node000010"><a xlink:title=" ">
<path fill="none" stroke="#63b8ff" d="M1124.4,-301.89C1117.98,-310.97 1128.47,-319.41 1155.88,-319.41 1171.29,-319.41 1181.36,-316.74 1186.07,-312.79"/>
<polygon fill="#63b8ff" stroke="#63b8ff" points="1189.66,-313.24 1187.35,-302.89 1182.7,-312.42 1189.66,-313.24"/>
</a>
</g>
</g>
<!-- Node11 -->
<g id="Node000011" class="node">
<title>Node11</title>
<g id="a_Node000011"><a xlink:href="../../df/d3c/class_slic3r_1_1_triangle_selector.html#a8929b20ddb67e961c596c1adc482793a" target="_top" xlink:title=" ">
<polygon fill="#fff0f0" stroke="red" points="1392.12,-283.41 1274.88,-283.41 1274.88,-252.91 1392.12,-252.91 1392.12,-283.41"/>
<text text-anchor="start" x="1282.88" y="-269.91" font-family="Helvetica,sans-Serif" font-size="10.00">Slic3r::TriangleSelector</text>
<text text-anchor="middle" x="1333.5" y="-258.66" font-family="Helvetica,sans-Serif" font-size="10.00">::triangle_midpoint</text>
</a>
</g>
</g>
<!-- Node10&#45;&gt;Node11 -->
<g id="edge11_Node000010_Node000011" class="edge">
<title>Node10&#45;&gt;Node11</title>
<g id="a_edge11_Node000010_Node000011"><a xlink:title=" ">
<path fill="none" stroke="#63b8ff" d="M1219.78,-279.71C1233.98,-278.26 1249.12,-276.7 1263.55,-275.23"/>
<polygon fill="#63b8ff" stroke="#63b8ff" points="1263.83,-278.61 1273.42,-274.11 1263.12,-271.65 1263.83,-278.61"/>
</a>
</g>
</g>
<!-- Node16 -->
<g id="Node000016" class="node">
<title>Node16</title>
<g id="a_Node000016"><a xlink:href="../../df/d3c/class_slic3r_1_1_triangle_selector.html#a6e26de21efcac2ef200272d4e57ff16c" target="_top" xlink:title=" ">
<polygon fill="#fff0f0" stroke="red" points="1392.12,-234.41 1274.88,-234.41 1274.88,-203.91 1392.12,-203.91 1392.12,-234.41"/>
<text text-anchor="start" x="1282.88" y="-220.91" font-family="Helvetica,sans-Serif" font-size="10.00">Slic3r::TriangleSelector</text>
<text text-anchor="middle" x="1333.5" y="-209.66" font-family="Helvetica,sans-Serif" font-size="10.00">::triangle_subtriangles</text>
</a>
</g>
</g>
<!-- Node10&#45;&gt;Node16 -->
<g id="edge15_Node000010_Node000016" class="edge">
<title>Node10&#45;&gt;Node16</title>
<g id="a_edge15_Node000010_Node000016"><a xlink:title=" ">
<path fill="none" stroke="#63b8ff" d="M1207.22,-270.47C1215.72,-267.55 1224.41,-264.39 1232.5,-261.16 1248.93,-254.59 1252.25,-251.16 1268.5,-244.16 1272.57,-242.41 1276.8,-240.64 1281.07,-238.89"/>
<polygon fill="#63b8ff" stroke="#63b8ff" points="1282.05,-241.87 1290.02,-234.88 1279.43,-235.37 1282.05,-241.87"/>
</a>
</g>
</g>
<!-- Node11&#45;&gt;Node11 -->
<g id="edge14_Node000011_Node000011" class="edge">
<title>Node11&#45;&gt;Node11</title>
<g id="a_edge14_Node000011_Node000011"><a xlink:title=" ">
<path fill="none" stroke="#63b8ff" d="M1302.02,-283.89C1295.6,-292.97 1306.09,-301.41 1333.5,-301.41 1348.92,-301.41 1358.98,-298.74 1363.69,-294.79"/>
<polygon fill="#63b8ff" stroke="#63b8ff" points="1367.28,-295.24 1364.98,-284.89 1360.33,-294.42 1367.28,-295.24"/>
</a>
</g>
</g>
<!-- Node11&#45;&gt;Node12 -->
<g id="edge12_Node000011_Node000012" class="edge">
<title>Node11&#45;&gt;Node12</title>
<g id="a_edge12_Node000011_Node000012"><a xlink:title=" ">
<path fill="none" stroke="#63b8ff" d="M1362.86,-283.85C1396.63,-302.52 1452.65,-333.5 1486.02,-351.96"/>
<polygon fill="#63b8ff" stroke="#63b8ff" points="1484.16,-355.48 1494.6,-357.26 1487.55,-349.36 1484.16,-355.48"/>
</a>
</g>
</g>
<!-- Node11&#45;&gt;Node13 -->
<g id="edge13_Node000011_Node000013" class="edge">
<title>Node11&#45;&gt;Node13</title>
<g id="a_edge13_Node000011_Node000013"><a xlink:title=" ">
<path fill="none" stroke="#63b8ff" d="M1374.79,-252.43C1382.65,-249.35 1390.83,-246.16 1398.5,-243.16 1419.67,-234.88 1443.03,-225.74 1463.13,-217.88"/>
<polygon fill="#63b8ff" stroke="#63b8ff" points="1464.28,-220.79 1472.32,-213.89 1461.73,-214.27 1464.28,-220.79"/>
</a>
</g>
</g>
<!-- Node16&#45;&gt;Node12 -->
<g id="edge16_Node000016_Node000012" class="edge">
<title>Node16&#45;&gt;Node12</title>
<g id="a_edge16_Node000016_Node000012"><a xlink:title=" ">
<path fill="none" stroke="#63b8ff" d="M1381.87,-234.85C1387.68,-237.58 1393.37,-240.68 1398.5,-244.16 1441.82,-273.52 1480.79,-321.97 1500.31,-348.45"/>
<polygon fill="#63b8ff" stroke="#63b8ff" points="1497.89,-350.08 1506.59,-356.13 1503.57,-345.98 1497.89,-350.08"/>
</a>
</g>
</g>
<!-- Node16&#45;&gt;Node13 -->
<g id="edge17_Node000016_Node000013" class="edge">
<title>Node16&#45;&gt;Node13</title>
<g id="a_edge17_Node000016_Node000013"><a xlink:title=" ">
<path fill="none" stroke="#63b8ff" d="M1392.62,-212.34C1402.47,-211.19 1412.9,-209.96 1423.34,-208.74"/>
<polygon fill="#63b8ff" stroke="#63b8ff" points="1423.68,-212.1 1433.2,-207.46 1422.86,-205.15 1423.68,-212.1"/>
</a>
</g>
</g>
<!-- Node17&#45;&gt;Node12 -->
<g id="edge19_Node000017_Node000012" class="edge">
<title>Node17&#45;&gt;Node12</title>
<g id="a_edge19_Node000017_Node000012"><a xlink:title=" ">
<path fill="none" stroke="#63b8ff" d="M1214.56,-389.37C1263.56,-388.37 1335.73,-386.14 1398.5,-381.16 1413.02,-380.01 1428.53,-378.39 1443.3,-376.65"/>
<polygon fill="#63b8ff" stroke="#63b8ff" points="1443.4,-380.05 1452.91,-375.38 1442.56,-373.1 1443.4,-380.05"/>
</a>
</g>
</g>
<!-- Node17&#45;&gt;Node13 -->
<g id="edge20_Node000017_Node000013" class="edge">
<title>Node17&#45;&gt;Node13</title>
<g id="a_edge20_Node000017_Node000013"><a xlink:title=" ">
<path fill="none" stroke="#63b8ff" d="M1214.93,-378.72C1265.94,-366.91 1340.81,-345.21 1398.5,-310.16 1437.49,-286.47 1473.64,-247.28 1494.64,-222.1"/>
<polygon fill="#63b8ff" stroke="#63b8ff" points="1497.78,-224.78 1501.41,-214.83 1492.37,-220.35 1497.78,-224.78"/>
</a>
</g>
</g>
<!-- Node17&#45;&gt;Node19 -->
<g id="edge21_Node000017_Node000019" class="edge">
<title>Node17&#45;&gt;Node19</title>
<g id="a_edge21_Node000017_Node000019"><a xlink:title=" ">
<path fill="none" stroke="#63b8ff" d="M1206.75,-405.85C1215.65,-409.6 1224.6,-414.03 1232.5,-419.16 1264.86,-440.17 1295.17,-473.06 1313.76,-495.34"/>
<polygon fill="#63b8ff" stroke="#63b8ff" points="1311.47,-497.07 1320.52,-502.59 1316.89,-492.64 1311.47,-497.07"/>
</a>
</g>
</g>
<!-- Node19&#45;&gt;Node12 -->
<g id="edge22_Node000019_Node000012" class="edge">
<title>Node19&#45;&gt;Node12</title>
<g id="a_edge22_Node000019_Node000012"><a xlink:title=" ">
<path fill="none" stroke="#63b8ff" d="M1352.98,-503.46C1386.91,-474.66 1458.83,-413.58 1493.71,-383.96"/>
<polygon fill="#63b8ff" stroke="#63b8ff" points="1495.38,-386.29 1500.73,-377.15 1490.85,-380.96 1495.38,-386.29"/>
</a>
</g>
</g>
<!-- Node22&#45;&gt;Node15 -->
<g id="edge25_Node000022_Node000015" class="edge">
<title>Node22&#45;&gt;Node15</title>
<g id="a_edge25_Node000022_Node000015"><a xlink:title=" ">
<path fill="none" stroke="#63b8ff" d="M1214.87,-58.42C1230.6,-60.39 1247.79,-62.55 1264.05,-64.58"/>
<polygon fill="#63b8ff" stroke="#63b8ff" points="1263.21,-68.13 1273.57,-65.9 1264.08,-61.19 1263.21,-68.13"/>
</a>
</g>
</g>
<!-- Node15&#45;&gt;Node13 -->
<g id="edge26_Node000015_Node000013" class="edge">
<title>Node15&#45;&gt;Node13</title>
<g id="a_edge26_Node000015_Node000013"><a xlink:title=" ">
<path fill="none" stroke="#63b8ff" d="M1356.81,-88.74C1388.52,-110.88 1446.74,-151.54 1482.59,-176.57"/>
<polygon fill="#63b8ff" stroke="#63b8ff" points="1479.99,-179.72 1490.19,-182.58 1484,-173.99 1479.99,-179.72"/>
</a>
</g>
</g>
<!-- Node25 -->
<g id="Node000025" class="node">
<title>Node25</title>
<g id="a_Node000025"><a xlink:href="../../d6/d62/class_slic3r_1_1_g_u_i_1_1_g_l_paint_contour.html#a92a8fdfe3f298ef413d12fbb17052457" target="_top" xlink:title=" ">
<polygon fill="white" stroke="#666666" points="871.62,-691.41 731.12,-691.41 731.12,-660.91 871.62,-660.91 871.62,-691.41"/>
<text text-anchor="start" x="739.12" y="-677.91" font-family="Helvetica,sans-Serif" font-size="10.00">Slic3r::GUI::GLPaintContour</text>
<text text-anchor="middle" x="801.38" y="-666.66" font-family="Helvetica,sans-Serif" font-size="10.00">::clear</text>
</a>
</g>
</g>
<!-- Node24&#45;&gt;Node25 -->
<g id="edge34_Node000024_Node000025" class="edge">
<title>Node24&#45;&gt;Node25</title>
<g id="a_edge34_Node000024_Node000025"><a xlink:title=" ">
<path fill="none" stroke="#63b8ff" d="M678.13,-646.9C693.01,-650.46 708.94,-654.27 724.21,-657.93"/>
<polygon fill="#63b8ff" stroke="#63b8ff" points="723.12,-661.5 733.66,-660.43 724.75,-654.7 723.12,-661.5"/>
</a>
</g>
</g>
<!-- Node26&#45;&gt;Node19 -->
<g id="edge51_Node000026_Node000019" class="edge">
<title>Node26&#45;&gt;Node19</title>
<g id="a_edge51_Node000026_Node000019"><a xlink:title=" ">
<path fill="none" stroke="#63b8ff" d="M665.14,-597.88C690.39,-605.1 717.88,-612.45 730.75,-614.16 953.28,-643.71 1015.38,-613.21 1232.5,-556.16 1250.14,-551.52 1269.02,-544.97 1285.57,-538.67"/>
<polygon fill="#63b8ff" stroke="#63b8ff" points="1286.49,-541.68 1294.54,-534.8 1283.95,-535.16 1286.49,-541.68"/>
</a>
</g>
</g>
<!-- Node27 -->
<g id="Node000027" class="node">
<title>Node27</title>
<g id="a_Node000027"><a xlink:href="../../df/d3c/class_slic3r_1_1_triangle_selector.html#a41e0ca24423e031bbc6f082a479304fe" target="_top" xlink:title=" ">
<polygon fill="white" stroke="#666666" points="1232.5,-234.41 1079.25,-234.41 1079.25,-203.91 1232.5,-203.91 1232.5,-234.41"/>
<text text-anchor="start" x="1087.25" y="-220.91" font-family="Helvetica,sans-Serif" font-size="10.00">Slic3r::TriangleSelector</text>
<text text-anchor="middle" x="1155.88" y="-209.66" font-family="Helvetica,sans-Serif" font-size="10.00">::append_touching_subtriangles</text>
</a>
</g>
</g>
<!-- Node26&#45;&gt;Node27 -->
<g id="edge37_Node000026_Node000027" class="edge">
<title>Node26&#45;&gt;Node27</title>
<g id="a_edge37_Node000026_Node000027"><a xlink:title=" ">
<path fill="none" stroke="#63b8ff" d="M635.74,-566.51C652.81,-554.63 676.11,-537.44 694.75,-520.16 712.53,-503.67 713.77,-496.48 730.75,-479.16 805.46,-402.95 817.53,-373.77 908,-317.16 965.05,-281.46 1037.29,-254.61 1088.86,-238.13"/>
<polygon fill="#63b8ff" stroke="#63b8ff" points="1089.72,-241.21 1098.21,-234.87 1087.62,-234.53 1089.72,-241.21"/>
</a>
</g>
</g>
<!-- Node28 -->
<g id="Node000028" class="node">
<title>Node28</title>
<g id="a_Node000028"><a xlink:href="../../de/db8/namespace_slic3r.html#a7313a4003e3762315f96e309b5570e36" target="_top" xlink:title=" ">
<polygon fill="white" stroke="#666666" points="836.75,-604.78 766,-604.78 766,-585.53 836.75,-585.53 836.75,-604.78"/>
<text text-anchor="middle" x="801.38" y="-591.28" font-family="Helvetica,sans-Serif" font-size="10.00">Slic3r::cross</text>
</a>
</g>
</g>
<!-- Node26&#45;&gt;Node28 -->
<g id="edge41_Node000026_Node000028" class="edge">
<title>Node26&#45;&gt;Node28</title>
<g id="a_edge41_Node000026_Node000028"><a xlink:title=" ">
<path fill="none" stroke="#63b8ff" d="M695.11,-587.88C715.67,-589.3 736.95,-590.77 754.96,-592.02"/>
<polygon fill="#63b8ff" stroke="#63b8ff" points="754.5,-595.56 764.71,-592.76 754.98,-588.58 754.5,-595.56"/>
</a>
</g>
</g>
<!-- Node29 -->
<g id="Node000029" class="node">
<title>Node29</title>
<g id="a_Node000029"><a xlink:href="../../df/d3c/class_slic3r_1_1_triangle_selector.html#a0da3ec13c09691492af9522c751c13e4" target="_top" xlink:title=" ">
<polygon fill="white" stroke="#666666" points="869,-567.41 733.75,-567.41 733.75,-536.91 869,-536.91 869,-567.41"/>
<text text-anchor="start" x="741.75" y="-553.91" font-family="Helvetica,sans-Serif" font-size="10.00">Slic3r::TriangleSelector</text>
<text text-anchor="middle" x="801.38" y="-542.66" font-family="Helvetica,sans-Serif" font-size="10.00">::precompute_all_neighbors</text>
</a>
</g>
</g>
<!-- Node26&#45;&gt;Node29 -->
<g id="edge42_Node000026_Node000029" class="edge">
<title>Node26&#45;&gt;Node29</title>
<g id="a_edge42_Node000026_Node000029"><a xlink:title=" ">
<path fill="none" stroke="#63b8ff" d="M695.11,-568.96C704.31,-567.49 713.66,-566 722.8,-564.54"/>
<polygon fill="#63b8ff" stroke="#63b8ff" points="723.08,-567.88 732.41,-562.85 721.98,-560.96 723.08,-567.88"/>
</a>
</g>
</g>
<!-- Node27&#45;&gt;Node11 -->
<g id="edge39_Node000027_Node000011" class="edge">
<title>Node27&#45;&gt;Node11</title>
<g id="a_edge39_Node000027_Node000011"><a xlink:title=" ">
<path fill="none" stroke="#63b8ff" d="M1212.93,-234.8C1229.79,-239.5 1248.47,-244.71 1265.95,-249.59"/>
<polygon fill="#63b8ff" stroke="#63b8ff" points="1264.5,-253.1 1275.08,-252.42 1266.39,-246.36 1264.5,-253.1"/>
</a>
</g>
</g>
<!-- Node27&#45;&gt;Node16 -->
<g id="edge40_Node000027_Node000016" class="edge">
<title>Node27&#45;&gt;Node16</title>
<g id="a_edge40_Node000027_Node000016"><a xlink:title=" ">
<path fill="none" stroke="#63b8ff" d="M1232.89,-219.16C1243.1,-219.16 1253.53,-219.16 1263.61,-219.16"/>
<polygon fill="#63b8ff" stroke="#63b8ff" points="1263.38,-222.66 1273.38,-219.16 1263.38,-215.66 1263.38,-222.66"/>
</a>
</g>
</g>
<!-- Node27&#45;&gt;Node27 -->
<g id="edge38_Node000027_Node000027" class="edge">
<title>Node27&#45;&gt;Node27</title>
<g id="a_edge38_Node000027_Node000027"><a xlink:title=" ">
<path fill="none" stroke="#63b8ff" d="M1124.4,-234.89C1117.98,-243.97 1128.47,-252.41 1155.88,-252.41 1171.29,-252.41 1181.36,-249.74 1186.07,-245.79"/>
<polygon fill="#63b8ff" stroke="#63b8ff" points="1189.66,-246.24 1187.35,-235.89 1182.7,-245.42 1189.66,-246.24"/>
</a>
</g>
</g>
<!-- Node29&#45;&gt;Node19 -->
<g id="edge50_Node000029_Node000019" class="edge">
<title>Node29&#45;&gt;Node19</title>
<g id="a_edge50_Node000029_Node000019"><a xlink:title=" ">
<path fill="none" stroke="#63b8ff" d="M869.27,-552.78C954.04,-552.9 1104.52,-550.84 1232.5,-537.16 1240.64,-536.29 1249.11,-535.14 1257.54,-533.85"/>
<polygon fill="#63b8ff" stroke="#63b8ff" points="1257.83,-537.19 1267.14,-532.14 1256.71,-530.28 1257.83,-537.19"/>
</a>
</g>
</g>
<!-- Node30 -->
<g id="Node000030" class="node">
<title>Node30</title>
<g id="a_Node000030"><a xlink:href="../../df/d3c/class_slic3r_1_1_triangle_selector.html#a0082a032f58f2aedf8df03092d28d4fd" target="_top" xlink:title=" ">
<polygon fill="white" stroke="#666666" points="1043.25,-472.03 908,-472.03 908,-430.28 1043.25,-430.28 1043.25,-472.03"/>
<text text-anchor="start" x="916" y="-458.53" font-family="Helvetica,sans-Serif" font-size="10.00">Slic3r::TriangleSelector</text>
<text text-anchor="start" x="916" y="-447.28" font-family="Helvetica,sans-Serif" font-size="10.00">::precompute_all_neighbors</text>
<text text-anchor="middle" x="975.62" y="-436.03" font-family="Helvetica,sans-Serif" font-size="10.00">_recursive</text>
</a>
</g>
</g>
<!-- Node29&#45;&gt;Node30 -->
<g id="edge43_Node000029_Node000030" class="edge">
<title>Node29&#45;&gt;Node30</title>
<g id="a_edge43_Node000029_Node000030"><a xlink:title=" ">
<path fill="none" stroke="#63b8ff" d="M851.85,-536.43C858.76,-533.65 865.66,-530.55 872,-527.16 896.92,-513.83 922.47,-494.93 941.84,-479.31"/>
<polygon fill="#63b8ff" stroke="#63b8ff" points="943.76,-481.45 949.28,-472.4 939.33,-476.03 943.76,-481.45"/>
</a>
</g>
</g>
<!-- Node30&#45;&gt;Node13 -->
<g id="edge46_Node000030_Node000013" class="edge">
<title>Node30&#45;&gt;Node13</title>
<g id="a_edge46_Node000030_Node000013"><a xlink:title=" ">
<path fill="none" stroke="#63b8ff" d="M1010.52,-430.02C1022.66,-420.78 1035.3,-408.89 1043.25,-395.16 1088.52,-317 1009.96,-253.09 1079.25,-195.16 1129.54,-153.11 1311.87,-169.57 1423.66,-184.45"/>
<polygon fill="#63b8ff" stroke="#63b8ff" points="1422.87,-188.02 1433.25,-185.89 1423.81,-181.08 1422.87,-188.02"/>
</a>
</g>
</g>
<!-- Node30&#45;&gt;Node17 -->
<g id="edge44_Node000030_Node000017" class="edge">
<title>Node30&#45;&gt;Node17</title>
<g id="a_edge44_Node000030_Node000017"><a xlink:title=" ">
<path fill="none" stroke="#63b8ff" d="M1038.97,-429.82C1058.37,-423.19 1079.63,-415.91 1098.59,-409.42"/>
<polygon fill="#63b8ff" stroke="#63b8ff" points="1099.53,-412.46 1107.86,-405.91 1097.26,-405.83 1099.53,-412.46"/>
</a>
</g>
</g>
<!-- Node30&#45;&gt;Node19 -->
<g id="edge49_Node000030_Node000019" class="edge">
<title>Node30&#45;&gt;Node19</title>
<g id="a_edge49_Node000030_Node000019"><a xlink:title=" ">
<path fill="none" stroke="#63b8ff" d="M1012.41,-472.29C1031.58,-482.54 1055.97,-493.96 1079.25,-500.16 1137.7,-515.72 1206.23,-520.06 1257.25,-520.73"/>
<polygon fill="#63b8ff" stroke="#63b8ff" points="1257.16,-524.24 1267.19,-520.83 1257.22,-517.24 1257.16,-524.24"/>
</a>
</g>
</g>
<!-- Node30&#45;&gt;Node15 -->
<g id="edge45_Node000030_Node000015" class="edge">
<title>Node30&#45;&gt;Node15</title>
<g id="a_edge45_Node000030_Node000015"><a xlink:title=" ">
<path fill="none" stroke="#63b8ff" d="M1011.05,-429.86C1023.1,-420.66 1035.54,-408.85 1043.25,-395.16 1094.64,-303.84 1012.3,-242.77 1079.25,-162.16 1124.59,-107.57 1205.59,-86.43 1263.79,-78.27"/>
<polygon fill="#63b8ff" stroke="#63b8ff" points="1263.92,-81.65 1273.38,-76.89 1263.01,-74.71 1263.92,-81.65"/>
</a>
</g>
</g>
<!-- Node30&#45;&gt;Node23 -->
<g id="edge48_Node000030_Node000023" class="edge">
<title>Node30&#45;&gt;Node23</title>
<g id="a_edge48_Node000030_Node000023"><a xlink:title=" ">
<path fill="none" stroke="#63b8ff" d="M1043.51,-460.54C1057.52,-462.5 1072.31,-464.58 1086.38,-466.55"/>
<polygon fill="#63b8ff" stroke="#63b8ff" points="1085.59,-470.12 1095.98,-468.04 1086.56,-463.18 1085.59,-470.12"/>
</a>
</g>
</g>
<!-- Node30&#45;&gt;Node30 -->
<g id="edge47_Node000030_Node000030" class="edge">
<title>Node30&#45;&gt;Node30</title>
<g id="a_edge47_Node000030_Node000030"><a xlink:title=" ">
<path fill="none" stroke="#63b8ff" d="M943.46,-472.35C940.4,-481.83 951.12,-490.03 975.62,-490.03 990.17,-490.03 999.86,-487.14 1004.69,-482.81"/>
<polygon fill="#63b8ff" stroke="#63b8ff" points="1008.31,-483.93 1007.79,-473.35 1001.59,-481.95 1008.31,-483.93"/>
</a>
</g>
</g>
</g>
</svg>

<g id="navigator" transform="translate(0 0)" fill="#404254">
  <rect fill="#f2f5e9" fill-opacity="0.5" stroke="#606060" stroke-width=".5" x="0" y="0" width="60" height="60"/>
  <use id="zoomplus" xlink:href="#zoomPlus" x="17" y="9" onmousedown="handleZoom(evt,'in')"/>
  <use id="zoomminus" xlink:href="#zoomMin" x="42" y="9" onmousedown="handleZoom(evt,'out')"/>
  <use id="reset" xlink:href="#resetDef" x="30" y="36" onmousedown="handleReset()"/>
   <use id="arrowup" xlink:href="#arrowUp" x="0" y="0" onmousedown="handlePan(0,-1)"/>
  <use id="arrowright" xlink:href="#arrowRight" x="0" y="0" onmousedown="handlePan(1,0)"/>
  <use id="arrowdown" xlink:href="#arrowDown" x="0" y="0" onmousedown="handlePan(0,1)"/>
  <use id="arrowleft" xlink:href="#arrowLeft" x="0" y="0" onmousedown="handlePan(-1,0)"/>
</g>
<svg viewBox="0 0 15 15" width="100%" height="30px" preserveAspectRatio="xMaxYMin meet">
 <g id="arrow_out" transform="scale(0.3 0.3)">
  <a xlink:href="class_slic3r_1_1_g_u_i_1_1_g_l_gizmo_seam_a48301cb9caa33c2a366d38d28c7ca2d5_cgraph_org.svg" target="_base">
   <rect id="button" ry="5" rx="5" y="6" x="6" height="38" width="38"
        fill="#f2f5e9" fill-opacity="0.5" stroke="#606060" stroke-width="1.0"/>
   <path id="arrow"
     d="M 11.500037,31.436501 C 11.940474,20.09759 22.043105,11.32322 32.158766,21.979434 L 37.068811,17.246167 C 37.068811,17.246167 37.088388,32 37.088388,32 L 22.160133,31.978069 C 22.160133,31.978069 26.997745,27.140456 26.997745,27.140456 C 18.528582,18.264221 13.291696,25.230495 11.500037,31.436501 z"
     style="fill:#404040;"/>
  </a>
 </g>
</svg>

<style type='text/css'>
<![CDATA[
[data-mouse-over-selected='false'] { opacity: 0.7; }
[data-mouse-over-selected='true']  { opacity: 1.0; }
]]>
</style>
<script type="application/ecmascript"><![CDATA[
document.addEventListener('DOMContentLoaded', (event) => {
  highlightEdges();
  highlightAdjacentNodes();
});
]]></script>
</svg>
