<?xml version="1.0" encoding="UTF-8" standalone="no"?>
<!DOCTYPE svg PUBLIC "-//W3C//DTD SVG 1.1//EN"
 "http://www.w3.org/Graphics/SVG/1.1/DTD/svg11.dtd">
<!-- Generated by graphviz version 8.1.0 (20230707.0739)
 -->
<!-- Title: libnest2d::placers::_NofitPolyPlacer::accept Pages: 1 -->
<svg width="836pt" height="82pt"
 viewBox="0.00 0.00 836.00 81.50" xmlns="http://www.w3.org/2000/svg" xmlns:xlink="http://www.w3.org/1999/xlink">
<g id="graph0" class="graph" transform="scale(1 1) rotate(0) translate(4 77.5)">
<title>libnest2d::placers::_NofitPolyPlacer::accept</title>
<!-- Node1 -->
<g id="Node000001" class="node">
<title>Node1</title>
<g id="a_Node000001"><a xlink:title=" ">
<polygon fill="#999999" stroke="#666666" points="101.5,-57.12 0,-57.12 0,-15.38 101.5,-15.38 101.5,-57.12"/>
<text text-anchor="start" x="8" y="-43.62" font-family="Helvetica,sans-Serif" font-size="10.00">libnest2d::placers</text>
<text text-anchor="start" x="8" y="-32.38" font-family="Helvetica,sans-Serif" font-size="10.00">::_NofitPolyPlacer::</text>
<text text-anchor="middle" x="50.75" y="-21.12" font-family="Helvetica,sans-Serif" font-size="10.00">accept</text>
</a>
</g>
</g>
<!-- Node2 -->
<g id="Node000002" class="node">
<title>Node2</title>
<g id="a_Node000002"><a xlink:href="../../d0/d53/namespacelibnest2d_1_1nfp.html#a1557d47a1a466a42f34906efe9f4bc07" target="_top" xlink:title=" ">
<polygon fill="white" stroke="#666666" points="245,-45.88 137.5,-45.88 137.5,-26.62 245,-26.62 245,-45.88"/>
<text text-anchor="middle" x="191.25" y="-32.38" font-family="Helvetica,sans-Serif" font-size="10.00">libnest2d::nfp::merge</text>
</a>
</g>
</g>
<!-- Node1&#45;&gt;Node2 -->
<g id="edge1_Node000001_Node000002" class="edge">
<title>Node1&#45;&gt;Node2</title>
<g id="a_edge1_Node000001_Node000002"><a xlink:title=" ">
<path fill="none" stroke="#63b8ff" d="M101.75,-36.25C109.73,-36.25 118.07,-36.25 126.31,-36.25"/>
<polygon fill="#63b8ff" stroke="#63b8ff" points="126.05,-39.75 136.05,-36.25 126.05,-32.75 126.05,-39.75"/>
</a>
</g>
</g>
<!-- Node3 -->
<g id="Node000003" class="node">
<title>Node3</title>
<g id="a_Node000003"><a xlink:href="../../de/db8/namespace_slic3r.html#a37166e144522fceee41e6d8ed8245315" target="_top" xlink:title=" ">
<polygon fill="white" stroke="#666666" points="366.75,-45.88 281,-45.88 281,-26.62 366.75,-26.62 366.75,-45.88"/>
<text text-anchor="middle" x="323.88" y="-32.38" font-family="Helvetica,sans-Serif" font-size="10.00">Slic3r::union_ex</text>
</a>
</g>
</g>
<!-- Node2&#45;&gt;Node3 -->
<g id="edge2_Node000002_Node000003" class="edge">
<title>Node2&#45;&gt;Node3</title>
<g id="a_edge2_Node000002_Node000003"><a xlink:title=" ">
<path fill="none" stroke="#63b8ff" d="M245.38,-36.25C253.44,-36.25 261.76,-36.25 269.82,-36.25"/>
<polygon fill="#63b8ff" stroke="#63b8ff" points="269.6,-39.75 279.6,-36.25 269.6,-32.75 269.6,-39.75"/>
</a>
</g>
</g>
<!-- Node4 -->
<g id="Node000004" class="node">
<title>Node4</title>
<g id="a_Node000004"><a xlink:href="../../de/db8/namespace_slic3r.html#a95776b205e694f695dcf1a8c1a74cda4" target="_top" xlink:title=" ">
<polygon fill="white" stroke="#666666" points="499,-45.88 402.75,-45.88 402.75,-26.62 499,-26.62 499,-45.88"/>
<text text-anchor="middle" x="450.88" y="-32.38" font-family="Helvetica,sans-Serif" font-size="10.00">Slic3r::_clipper_ex</text>
</a>
</g>
</g>
<!-- Node3&#45;&gt;Node4 -->
<g id="edge3_Node000003_Node000004" class="edge">
<title>Node3&#45;&gt;Node4</title>
<g id="a_edge3_Node000003_Node000004"><a xlink:title=" ">
<path fill="none" stroke="#63b8ff" d="M367.19,-36.25C375.07,-36.25 383.43,-36.25 391.69,-36.25"/>
<polygon fill="#63b8ff" stroke="#63b8ff" points="391.44,-39.75 401.44,-36.25 391.44,-32.75 391.44,-39.75"/>
</a>
</g>
</g>
<!-- Node5 -->
<g id="Node000005" class="node">
<title>Node5</title>
<g id="a_Node000005"><a xlink:href="../../de/db8/namespace_slic3r.html#a578618ee685da9bd490d3980af3c2c38" target="_top" xlink:title=" ">
<polygon fill="white" stroke="#666666" points="654.88,-73.5 563.88,-73.5 563.88,-43 654.88,-43 654.88,-73.5"/>
<text text-anchor="start" x="571.88" y="-60" font-family="Helvetica,sans-Serif" font-size="10.00">Slic3r::clipper_do</text>
<text text-anchor="middle" x="609.38" y="-48.75" font-family="Helvetica,sans-Serif" font-size="10.00">_polytree</text>
</a>
</g>
</g>
<!-- Node4&#45;&gt;Node5 -->
<g id="edge4_Node000004_Node000005" class="edge">
<title>Node4&#45;&gt;Node5</title>
<g id="a_edge4_Node000004_Node000005"><a xlink:title=" ">
<path fill="none" stroke="#63b8ff" d="M499.25,-42.91C516.17,-45.29 535.37,-47.99 552.9,-50.45"/>
<polygon fill="#63b8ff" stroke="#63b8ff" points="552.18,-54.02 562.57,-51.95 553.15,-47.09 552.18,-54.02"/>
</a>
</g>
</g>
<!-- Node6 -->
<g id="Node000006" class="node">
<title>Node6</title>
<g id="a_Node000006"><a xlink:href="../../de/db8/namespace_slic3r.html#a1f7e91998726ff8395ce66857a6fd49d" target="_top" xlink:title=" ">
<polygon fill="white" stroke="#666666" points="683.75,-24.88 535,-24.88 535,-5.63 683.75,-5.63 683.75,-24.88"/>
<text text-anchor="middle" x="609.38" y="-11.38" font-family="Helvetica,sans-Serif" font-size="10.00">Slic3r::PolyTreeToExPolygons</text>
</a>
</g>
</g>
<!-- Node4&#45;&gt;Node6 -->
<g id="edge5_Node000004_Node000006" class="edge">
<title>Node4&#45;&gt;Node6</title>
<g id="a_edge5_Node000004_Node000006"><a xlink:title=" ">
<path fill="none" stroke="#63b8ff" d="M499.25,-29.89C507.1,-28.84 515.44,-27.72 523.87,-26.59"/>
<polygon fill="#63b8ff" stroke="#63b8ff" points="524.13,-29.95 533.58,-25.15 523.2,-23.01 524.13,-29.95"/>
</a>
</g>
</g>
<!-- Node7 -->
<g id="Node000007" class="node">
<title>Node7</title>
<g id="a_Node000007"><a xlink:href="../../d2/df1/class_clipper_lib_1_1_poly_node.html#a19128db6fb2aca66555231edaffa7ade" target="_top" xlink:title=" ">
<polygon fill="white" stroke="#666666" points="828,-30.5 719.75,-30.5 719.75,0 828,0 828,-30.5"/>
<text text-anchor="start" x="727.75" y="-17" font-family="Helvetica,sans-Serif" font-size="10.00">ClipperLib::PolyNode</text>
<text text-anchor="middle" x="773.88" y="-5.75" font-family="Helvetica,sans-Serif" font-size="10.00">::ChildCount</text>
</a>
</g>
</g>
<!-- Node6&#45;&gt;Node7 -->
<g id="edge6_Node000006_Node000007" class="edge">
<title>Node6&#45;&gt;Node7</title>
<g id="a_edge6_Node000006_Node000007"><a xlink:title=" ">
<path fill="none" stroke="#63b8ff" d="M684.02,-15.25C692.22,-15.25 700.52,-15.25 708.59,-15.25"/>
<polygon fill="#63b8ff" stroke="#63b8ff" points="708.41,-18.75 718.41,-15.25 708.41,-11.75 708.41,-18.75"/>
</a>
</g>
</g>
</g>
</svg>
