<?xml version="1.0" encoding="UTF-8" standalone="no"?>
<!DOCTYPE svg PUBLIC "-//W3C//DTD SVG 1.1//EN"
 "http://www.w3.org/Graphics/SVG/1.1/DTD/svg11.dtd">
<!-- Generated by graphviz version 8.1.0 (20230707.0739)
 -->
<!-- Title: Slic3r::Layer::export_region_fill_surfaces_to_svg_debug Pages: 1 -->
<!--zoomable 356 -->

<svg id="main" version="1.1" xmlns="http://www.w3.org/2000/svg" xmlns:xlink="http://www.w3.org/1999/xlink" xml:space="preserve" onload="init(evt)">
<style type="text/css"><![CDATA[
.node, .edge {opacity: 0.7;}
.node.selected, .edge.selected {opacity: 1;}
.edge:hover path { stroke: red; }
.edge:hover polygon { stroke: red; fill: red; }
]]></style>

<defs>
  <circle id="rim" cx="0" cy="0" r="7"/>
  <circle id="rim2" cx="0" cy="0" r="3.5"/>
  <g id="zoomPlus">
    <use xlink:href="#rim" fill="#404040"><set attributeName="fill" to="#808080" begin="zoomplus.mouseover" end="zoomplus.mouseout"/></use>
    <path d="M-4,0h8M0,-4v8" fill="none" stroke="white" stroke-width="1.5" pointer-events="none"/>
  </g>
  <g id="zoomMin">
    <use xlink:href="#rim" fill="#404040"><set attributeName="fill" to="#808080" begin="zoomminus.mouseover" end="zoomminus.mouseout"/></use>
    <path d="M-4,0h8" fill="none" stroke="white" stroke-width="1.5" pointer-events="none"/>
  </g>
  <g id="arrowUp" transform="translate(30 24)">
    <use xlink:href="#rim"/>
    <path pointer-events="none" fill="none" stroke="white" stroke-width="1.5" d="M0,-3.0v7 M-2.5,-0.5L0,-3.0L2.5,-0.5"/>
  </g>
  <g id="arrowRight" transform="rotate(90) translate(36 -43)">
    <use xlink:href="#rim"/>
    <path pointer-events="none" fill="none" stroke="white" stroke-width="1.5" d="M0,-3.0v7 M-2.5,-0.5L0,-3.0L2.5,-0.5"/>
  </g>
  <g id="arrowDown" transform="rotate(180) translate(-30 -48)">
    <use xlink:href="#rim"/>
    <path pointer-events="none" fill="none" stroke="white" stroke-width="1.5" d="M0,-3.0v7 M-2.5,-0.5L0,-3.0L2.5,-0.5"/>
  </g>
  <g id="arrowLeft" transform="rotate(270) translate(-36 17)">
    <use xlink:href="#rim"/>
    <path pointer-events="none" fill="none" stroke="white" stroke-width="1.5" d="M0,-3.0v7 M-2.5,-0.5L0,-3.0L2.5,-0.5"/>
  </g>
  <g id="resetDef">
    <use xlink:href="#rim2" fill="#404040"><set attributeName="fill" to="#808080" begin="reset.mouseover" end="reset.mouseout"/></use>
  </g>
</defs>
<script type="application/ecmascript">
var viewWidth = 907;
var viewHeight = 356;
var sectionId = 'dynsection-7';
</script>
<script type="application/ecmascript" xlink:href="../../svg.min.js"/>
<svg id="graph" class="graph">
<g id="viewport">
<title>Slic3r::Layer::export_region_fill_surfaces_to_svg_debug</title>
<!-- Node1 -->
<g id="Node000001" class="node">
<title>Node1</title>
<g id="a_Node000001"><a xlink:title=" ">
<polygon fill="#999999" stroke="#666666" points="105.25,-202.12 0,-202.12 0,-160.38 105.25,-160.38 105.25,-202.12"/>
<text text-anchor="start" x="8" y="-188.62" font-family="Helvetica,sans-Serif" font-size="10.00">Slic3r::Layer::export</text>
<text text-anchor="start" x="8" y="-177.38" font-family="Helvetica,sans-Serif" font-size="10.00">_region_fill_surfaces</text>
<text text-anchor="middle" x="52.62" y="-166.12" font-family="Helvetica,sans-Serif" font-size="10.00">_to_svg_debug</text>
</a>
</g>
</g>
<!-- Node2 -->
<g id="Node000002" class="node">
<title>Node2</title>
<g id="a_Node000002"><a xlink:href="../../de/db8/namespace_slic3r.html#a1d1423286c406123371c37ceada9ebae" target="_top" xlink:title=" ">
<polygon fill="white" stroke="#666666" points="257,-278.88 141.25,-278.88 141.25,-259.62 257,-259.62 257,-278.88"/>
<text text-anchor="middle" x="199.12" y="-265.38" font-family="Helvetica,sans-Serif" font-size="10.00">Slic3r::debug_out_path</text>
</a>
</g>
</g>
<!-- Node1&#45;&gt;Node2 -->
<g id="edge1_Node000001_Node000002" class="edge">
<title>Node1&#45;&gt;Node2</title>
<g id="a_edge1_Node000001_Node000002"><a xlink:title=" ">
<path fill="none" stroke="#63b8ff" d="M88.6,-202.55C114.48,-218.31 149.13,-239.41 172.47,-253.63"/>
<polygon fill="#63b8ff" stroke="#63b8ff" points="170.36,-257.05 180.72,-259.26 174,-251.07 170.36,-257.05"/>
</a>
</g>
</g>
<!-- Node4 -->
<g id="Node000004" class="node">
<title>Node4</title>
<g id="a_Node000004"><a xlink:href="../../d1/d68/class_slic3r_1_1_layer.html#a88a116854248f73853ea7a0481e34c14" target="_top" xlink:title=" ">
<polygon fill="white" stroke="#666666" points="251.75,-178.12 146.5,-178.12 146.5,-136.38 251.75,-136.38 251.75,-178.12"/>
<text text-anchor="start" x="154.5" y="-164.62" font-family="Helvetica,sans-Serif" font-size="10.00">Slic3r::Layer::export</text>
<text text-anchor="start" x="154.5" y="-153.38" font-family="Helvetica,sans-Serif" font-size="10.00">_region_fill_surfaces</text>
<text text-anchor="middle" x="199.12" y="-142.12" font-family="Helvetica,sans-Serif" font-size="10.00">_to_svg</text>
</a>
</g>
</g>
<!-- Node1&#45;&gt;Node4 -->
<g id="edge3_Node000001_Node000004" class="edge">
<title>Node1&#45;&gt;Node4</title>
<g id="a_edge3_Node000001_Node000004"><a xlink:title=" ">
<path fill="none" stroke="#63b8ff" d="M105.38,-172.65C115.14,-171.03 125.43,-169.32 135.48,-167.65"/>
<polygon fill="#63b8ff" stroke="#63b8ff" points="135.95,-170.96 145.24,-165.87 134.8,-164.05 135.95,-170.96"/>
</a>
</g>
</g>
<!-- Node3 -->
<g id="Node000003" class="node">
<title>Node3</title>
<g id="a_Node000003"><a xlink:href="../../de/db8/namespace_slic3r.html#ac51717140f8f8baf8f5c0e98129ecb18" target="_top" xlink:title=" ">
<polygon fill="white" stroke="#666666" points="427.12,-347.5 311.38,-347.5 311.38,-317 427.12,-317 427.12,-347.5"/>
<text text-anchor="start" x="319.38" y="-334" font-family="Helvetica,sans-Serif" font-size="10.00">Slic3r::debug_out_path</text>
<text text-anchor="middle" x="369.25" y="-322.75" font-family="Helvetica,sans-Serif" font-size="10.00">_called</text>
</a>
</g>
</g>
<!-- Node2&#45;&gt;Node3 -->
<g id="edge2_Node000002_Node000003" class="edge">
<title>Node2&#45;&gt;Node3</title>
<g id="a_edge2_Node000002_Node000003"><a xlink:title=" ">
<path fill="none" stroke="#63b8ff" d="M223.24,-279.21C241.92,-287.15 268.98,-298.36 293,-307.25 298.33,-309.22 303.89,-311.21 309.47,-313.15"/>
<polygon fill="#63b8ff" stroke="#63b8ff" points="307.91,-316.66 318.51,-316.59 310.18,-310.04 307.91,-316.66"/>
</a>
</g>
</g>
<!-- Node5 -->
<g id="Node000005" class="node">
<title>Node5</title>
<g id="a_Node000005"><a xlink:href="../../db/dcf/class_slic3r_1_1_s_v_g.html#aaa8469db0a1362ee2ca8b56dfbb5d9c8" target="_top" xlink:title=" ">
<polygon fill="white" stroke="#666666" points="418.88,-145.88 319.62,-145.88 319.62,-126.62 418.88,-126.62 418.88,-145.88"/>
<text text-anchor="middle" x="369.25" y="-132.38" font-family="Helvetica,sans-Serif" font-size="10.00">Slic3r::SVG::Close</text>
</a>
</g>
</g>
<!-- Node4&#45;&gt;Node5 -->
<g id="edge4_Node000004_Node000005" class="edge">
<title>Node4&#45;&gt;Node5</title>
<g id="a_edge4_Node000004_Node000005"><a xlink:title=" ">
<path fill="none" stroke="#63b8ff" d="M251.94,-150.78C269.76,-148.55 289.86,-146.04 308.28,-143.74"/>
<polygon fill="#63b8ff" stroke="#63b8ff" points="308.7,-147.09 318.19,-142.38 307.84,-140.14 308.7,-147.09"/>
</a>
</g>
</g>
<!-- Node6 -->
<g id="Node000006" class="node">
<title>Node6</title>
<g id="a_Node000006"><a xlink:href="../../db/dcf/class_slic3r_1_1_s_v_g.html#a8008d88fed50359e749596f777a37428" target="_top" xlink:title=" ">
<polygon fill="white" stroke="#666666" points="593.12,-106.88 498.38,-106.88 498.38,-87.62 593.12,-87.62 593.12,-106.88"/>
<text text-anchor="middle" x="545.75" y="-93.38" font-family="Helvetica,sans-Serif" font-size="10.00">Slic3r::SVG::draw</text>
</a>
</g>
</g>
<!-- Node4&#45;&gt;Node6 -->
<g id="edge5_Node000004_Node000006" class="edge">
<title>Node4&#45;&gt;Node6</title>
<g id="a_edge5_Node000004_Node000006"><a xlink:title=" ">
<path fill="none" stroke="#63b8ff" d="M241.65,-135.92C257.34,-128.78 275.62,-121.56 293,-117.25 358.22,-101.08 435.57,-97.11 487.16,-96.52"/>
<polygon fill="#63b8ff" stroke="#63b8ff" points="487.11,-100.01 497.09,-96.44 487.06,-93.01 487.11,-100.01"/>
</a>
</g>
</g>
<!-- Node10 -->
<g id="Node000010" class="node">
<title>Node10</title>
<g id="a_Node000010"><a xlink:href="../../de/db8/namespace_slic3r.html#a7e9fc5af30c01d9db859bf1c59e23f1d" target="_top" xlink:title=" ">
<polygon fill="white" stroke="#666666" points="424.88,-70.5 313.62,-70.5 313.62,-40 424.88,-40 424.88,-70.5"/>
<text text-anchor="start" x="321.62" y="-57" font-family="Helvetica,sans-Serif" font-size="10.00">Slic3r::export_surface</text>
<text text-anchor="middle" x="369.25" y="-45.75" font-family="Helvetica,sans-Serif" font-size="10.00">_type_legend_to_svg</text>
</a>
</g>
</g>
<!-- Node4&#45;&gt;Node10 -->
<g id="edge11_Node000004_Node000010" class="edge">
<title>Node4&#45;&gt;Node10</title>
<g id="a_edge11_Node000004_Node000010"><a xlink:title=" ">
<path fill="none" stroke="#63b8ff" d="M223.16,-135.94C241.15,-120.12 267.33,-98.85 293,-84.25 298.75,-80.98 304.94,-77.93 311.22,-75.13"/>
<polygon fill="#63b8ff" stroke="#63b8ff" points="312.25,-78.07 320.09,-70.94 309.52,-71.62 312.25,-78.07"/>
</a>
</g>
</g>
<!-- Node12 -->
<g id="Node000012" class="node">
<title>Node12</title>
<g id="a_Node000012"><a xlink:href="../../de/db8/namespace_slic3r.html#a6e653da167c903a032bd7b7a0ea8a1ce" target="_top" xlink:title=" ">
<polygon fill="white" stroke="#666666" points="597.25,-30.5 494.25,-30.5 494.25,0 597.25,0 597.25,-30.5"/>
<text text-anchor="start" x="502.25" y="-17" font-family="Helvetica,sans-Serif" font-size="10.00">Slic3r::surface_type</text>
<text text-anchor="middle" x="545.75" y="-5.75" font-family="Helvetica,sans-Serif" font-size="10.00">_to_color_name</text>
</a>
</g>
</g>
<!-- Node4&#45;&gt;Node12 -->
<g id="edge22_Node000004_Node000012" class="edge">
<title>Node4&#45;&gt;Node12</title>
<g id="a_edge22_Node000004_Node000012"><a xlink:title=" ">
<path fill="none" stroke="#63b8ff" d="M208.69,-136.23C221.91,-106.87 250.3,-54.55 293,-31.25 351.62,0.74 429.74,0.3 483.32,-5.29"/>
<polygon fill="#63b8ff" stroke="#63b8ff" points="482.69,-8.86 493.03,-6.51 483.49,-1.9 482.69,-8.86"/>
</a>
</g>
</g>
<!-- Node13 -->
<g id="Node000013" class="node">
<title>Node13</title>
<g id="a_Node000013"><a xlink:href="../../de/db8/namespace_slic3r.html#ad13208ae98272866e2a8481fb6380bd5" target="_top" xlink:title=" ">
<polygon fill="white" stroke="#666666" points="445.5,-298.5 293,-298.5 293,-268 445.5,-268 445.5,-298.5"/>
<text text-anchor="start" x="301" y="-285" font-family="Helvetica,sans-Serif" font-size="10.00">Slic3r::export_surface</text>
<text text-anchor="middle" x="369.25" y="-273.75" font-family="Helvetica,sans-Serif" font-size="10.00">_type_legend_to_svg_box_size</text>
</a>
</g>
</g>
<!-- Node4&#45;&gt;Node13 -->
<g id="edge16_Node000004_Node000013" class="edge">
<title>Node4&#45;&gt;Node13</title>
<g id="a_edge16_Node000004_Node000013"><a xlink:title=" ">
<path fill="none" stroke="#63b8ff" d="M214.08,-178.25C230.42,-201.27 259.54,-237.78 293,-259.25 295.02,-260.54 297.11,-261.77 299.25,-262.94"/>
<polygon fill="#63b8ff" stroke="#63b8ff" points="297.44,-266.44 307.96,-267.67 300.5,-260.14 297.44,-266.44"/>
</a>
</g>
</g>
<!-- Node14 -->
<g id="Node000014" class="node">
<title>Node14</title>
<g id="a_Node000014"><a xlink:href="../../de/db8/namespace_slic3r.html#a6e3ba75aef7600dbb0a294a47d88ecb8" target="_top" xlink:title=" ">
<polygon fill="white" stroke="#666666" points="418.12,-231.88 320.38,-231.88 320.38,-212.62 418.12,-212.62 418.12,-231.88"/>
<text text-anchor="middle" x="369.25" y="-218.38" font-family="Helvetica,sans-Serif" font-size="10.00">Slic3r::get_extents</text>
</a>
</g>
</g>
<!-- Node4&#45;&gt;Node14 -->
<g id="edge17_Node000004_Node000014" class="edge">
<title>Node4&#45;&gt;Node14</title>
<g id="a_edge17_Node000004_Node000014"><a xlink:title=" ">
<path fill="none" stroke="#63b8ff" d="M238.63,-178.62C255.03,-187.11 274.6,-196.46 293,-203.25 298.91,-205.43 305.17,-207.45 311.46,-209.29"/>
<polygon fill="#63b8ff" stroke="#63b8ff" points="310.44,-212.92 321.01,-212.23 312.32,-206.18 310.44,-212.92"/>
</a>
</g>
</g>
<!-- Node15 -->
<g id="Node000015" class="node">
<title>Node15</title>
<g id="a_Node000015"><a xlink:href="../../dc/d28/class_slic3r_1_1_bounding_box_base.html#af05bfd6f2d56108f60099c6bf5c114ab" target="_top" xlink:title=" ">
<polygon fill="white" stroke="#666666" points="432.75,-194.5 305.75,-194.5 305.75,-164 432.75,-164 432.75,-194.5"/>
<text text-anchor="start" x="313.75" y="-181" font-family="Helvetica,sans-Serif" font-size="10.00">Slic3r::BoundingBoxBase</text>
<text text-anchor="middle" x="369.25" y="-169.75" font-family="Helvetica,sans-Serif" font-size="10.00">::merge</text>
</a>
</g>
</g>
<!-- Node4&#45;&gt;Node15 -->
<g id="edge19_Node000004_Node000015" class="edge">
<title>Node4&#45;&gt;Node15</title>
<g id="a_edge19_Node000004_Node000015"><a xlink:title=" ">
<path fill="none" stroke="#63b8ff" d="M251.94,-164.03C265.39,-165.79 280.15,-167.72 294.5,-169.6"/>
<polygon fill="#63b8ff" stroke="#63b8ff" points="293.99,-173.19 304.36,-171.02 294.9,-166.25 293.99,-173.19"/>
</a>
</g>
</g>
<!-- Node7 -->
<g id="Node000007" class="node">
<title>Node7</title>
<g id="a_Node000007"><a xlink:href="../../db/dcf/class_slic3r_1_1_s_v_g.html#a8993c145ff3851ce687e72829774d235" target="_top" xlink:title=" ">
<polygon fill="white" stroke="#666666" points="898.5,-111.5 795.5,-111.5 795.5,-81 898.5,-81 898.5,-111.5"/>
<text text-anchor="start" x="803.5" y="-98" font-family="Helvetica,sans-Serif" font-size="10.00">Slic3r::SVG::to_svg</text>
<text text-anchor="middle" x="847" y="-86.75" font-family="Helvetica,sans-Serif" font-size="10.00">_coord</text>
</a>
</g>
</g>
<!-- Node6&#45;&gt;Node7 -->
<g id="edge6_Node000006_Node000007" class="edge">
<title>Node6&#45;&gt;Node7</title>
<g id="a_edge6_Node000006_Node000007"><a xlink:title=" ">
<path fill="none" stroke="#63b8ff" d="M592.47,-107.31C609.22,-110.53 628.38,-113.67 646,-115.25 696.24,-119.77 709.35,-120.69 759.5,-115.25 767.58,-114.37 776.01,-113.05 784.3,-111.5"/>
<polygon fill="#63b8ff" stroke="#63b8ff" points="784.95,-114.74 794.07,-109.35 783.58,-107.87 784.95,-114.74"/>
</a>
</g>
</g>
<!-- Node8 -->
<g id="Node000008" class="node">
<title>Node8</title>
<g id="a_Node000008"><a xlink:href="../../db/dcf/class_slic3r_1_1_s_v_g.html#a725409d4f2d8b05091f250f678800dbd" target="_top" xlink:title=" ">
<polygon fill="white" stroke="#666666" points="759.5,-68.88 646,-68.88 646,-49.62 759.5,-49.62 759.5,-68.88"/>
<text text-anchor="middle" x="702.75" y="-55.38" font-family="Helvetica,sans-Serif" font-size="10.00">Slic3r::SVG::to_svg_x</text>
</a>
</g>
</g>
<!-- Node6&#45;&gt;Node8 -->
<g id="edge7_Node000006_Node000008" class="edge">
<title>Node6&#45;&gt;Node8</title>
<g id="a_edge7_Node000006_Node000008"><a xlink:title=" ">
<path fill="none" stroke="#63b8ff" d="M587.88,-87.17C606.96,-82.49 629.85,-76.88 650.08,-71.92"/>
<polygon fill="#63b8ff" stroke="#63b8ff" points="650.82,-75.1 659.7,-69.31 649.15,-68.3 650.82,-75.1"/>
</a>
</g>
</g>
<!-- Node9 -->
<g id="Node000009" class="node">
<title>Node9</title>
<g id="a_Node000009"><a xlink:href="../../db/dcf/class_slic3r_1_1_s_v_g.html#a404d56de42cea06fdf005043b2d99d0c" target="_top" xlink:title=" ">
<polygon fill="white" stroke="#666666" points="759.5,-105.88 646,-105.88 646,-86.62 759.5,-86.62 759.5,-105.88"/>
<text text-anchor="middle" x="702.75" y="-92.38" font-family="Helvetica,sans-Serif" font-size="10.00">Slic3r::SVG::to_svg_y</text>
</a>
</g>
</g>
<!-- Node6&#45;&gt;Node9 -->
<g id="edge9_Node000006_Node000009" class="edge">
<title>Node6&#45;&gt;Node9</title>
<g id="a_edge9_Node000006_Node000009"><a xlink:title=" ">
<path fill="none" stroke="#63b8ff" d="M593.26,-96.95C606.4,-96.87 620.97,-96.77 635.06,-96.68"/>
<polygon fill="#63b8ff" stroke="#63b8ff" points="634.72,-100.18 644.7,-96.61 634.68,-93.18 634.72,-100.18"/>
</a>
</g>
</g>
<!-- Node8&#45;&gt;Node7 -->
<g id="edge8_Node000008_Node000007" class="edge">
<title>Node8&#45;&gt;Node7</title>
<g id="a_edge8_Node000008_Node000007"><a xlink:title=" ">
<path fill="none" stroke="#63b8ff" d="M742.62,-69.36C755.66,-72.75 770.54,-76.62 784.86,-80.35"/>
<polygon fill="#63b8ff" stroke="#63b8ff" points="783.6,-83.9 794.16,-83.03 785.36,-77.12 783.6,-83.9"/>
</a>
</g>
</g>
<!-- Node9&#45;&gt;Node7 -->
<g id="edge10_Node000009_Node000007" class="edge">
<title>Node9&#45;&gt;Node7</title>
<g id="a_edge10_Node000009_Node000007"><a xlink:title=" ">
<path fill="none" stroke="#63b8ff" d="M759.97,-96.25C767.98,-96.25 776.25,-96.25 784.36,-96.25"/>
<polygon fill="#63b8ff" stroke="#63b8ff" points="784.27,-99.75 794.27,-96.25 784.27,-92.75 784.27,-99.75"/>
</a>
</g>
</g>
<!-- Node11 -->
<g id="Node000011" class="node">
<title>Node11</title>
<g id="a_Node000011"><a xlink:href="../../db/dcf/class_slic3r_1_1_s_v_g.html#ab87767cd32af0ee0ba6cab763e42bbc4" target="_top" xlink:title=" ">
<polygon fill="white" stroke="#666666" points="610,-68.88 481.5,-68.88 481.5,-49.62 610,-49.62 610,-68.88"/>
<text text-anchor="middle" x="545.75" y="-55.38" font-family="Helvetica,sans-Serif" font-size="10.00">Slic3r::SVG::draw_legend</text>
</a>
</g>
</g>
<!-- Node10&#45;&gt;Node11 -->
<g id="edge12_Node000010_Node000011" class="edge">
<title>Node10&#45;&gt;Node11</title>
<g id="a_edge12_Node000010_Node000011"><a xlink:title=" ">
<path fill="none" stroke="#63b8ff" d="M424.98,-56.5C439.3,-56.83 454.98,-57.19 470.14,-57.54"/>
<polygon fill="#63b8ff" stroke="#63b8ff" points="469.98,-61.06 480.06,-57.79 470.14,-54.06 469.98,-61.06"/>
</a>
</g>
</g>
<!-- Node10&#45;&gt;Node12 -->
<g id="edge15_Node000010_Node000012" class="edge">
<title>Node10&#45;&gt;Node12</title>
<g id="a_edge15_Node000010_Node000012"><a xlink:title=" ">
<path fill="none" stroke="#63b8ff" d="M424.98,-42.7C443.45,-38.47 464.19,-33.72 483.15,-29.37"/>
<polygon fill="#63b8ff" stroke="#63b8ff" points="483.81,-32.58 492.78,-26.93 482.25,-25.76 483.81,-32.58"/>
</a>
</g>
</g>
<!-- Node11&#45;&gt;Node8 -->
<g id="edge13_Node000011_Node000008" class="edge">
<title>Node11&#45;&gt;Node8</title>
<g id="a_edge13_Node000011_Node000008"><a xlink:title=" ">
<path fill="none" stroke="#63b8ff" d="M610.24,-59.25C618.29,-59.25 626.54,-59.25 634.64,-59.25"/>
<polygon fill="#63b8ff" stroke="#63b8ff" points="634.56,-62.75 644.56,-59.25 634.56,-55.75 634.56,-62.75"/>
</a>
</g>
</g>
<!-- Node11&#45;&gt;Node9 -->
<g id="edge14_Node000011_Node000009" class="edge">
<title>Node11&#45;&gt;Node9</title>
<g id="a_edge14_Node000011_Node000009"><a xlink:title=" ">
<path fill="none" stroke="#63b8ff" d="M589.1,-69.36C607.56,-73.77 629.38,-78.98 648.89,-83.63"/>
<polygon fill="#63b8ff" stroke="#63b8ff" points="647.91,-87.23 658.45,-86.15 649.53,-80.43 647.91,-87.23"/>
</a>
</g>
</g>
<!-- Node14&#45;&gt;Node14 -->
<g id="edge18_Node000014_Node000014" class="edge">
<title>Node14&#45;&gt;Node14</title>
<g id="a_edge18_Node000014_Node000014"><a xlink:title=" ">
<path fill="none" stroke="#63b8ff" d="M342.62,-232.16C330.47,-240.77 339.35,-249.88 369.25,-249.88 387.47,-249.88 397.89,-246.49 400.5,-241.9"/>
<polygon fill="#63b8ff" stroke="#63b8ff" points="403.33,-240.7 395.88,-233.16 397,-243.7 403.33,-240.7"/>
</a>
</g>
</g>
<!-- Node16 -->
<g id="Node000016" class="node">
<title>Node16</title>
<g id="a_Node000016"><a xlink:href="../../df/db1/math_8h.html#a5083c48fbfb60dd70808789479f4db53" target="_top" xlink:title=" ">
<polygon fill="white" stroke="#666666" points="563.12,-169.88 528.38,-169.88 528.38,-150.62 563.12,-150.62 563.12,-169.88"/>
<text text-anchor="middle" x="545.75" y="-156.38" font-family="Helvetica,sans-Serif" font-size="10.00">max</text>
</a>
</g>
</g>
<!-- Node15&#45;&gt;Node16 -->
<g id="edge20_Node000015_Node000016" class="edge">
<title>Node15&#45;&gt;Node16</title>
<g id="a_edge20_Node000015_Node000016"><a xlink:title=" ">
<path fill="none" stroke="#63b8ff" d="M433.25,-172.39C462.18,-169.24 494.97,-165.67 517.47,-163.22"/>
<polygon fill="#63b8ff" stroke="#63b8ff" points="517.65,-166.61 527.22,-162.05 516.9,-159.65 517.65,-166.61"/>
</a>
</g>
</g>
<!-- Node17 -->
<g id="Node000017" class="node">
<title>Node17</title>
<g id="a_Node000017"><a xlink:href="../../df/db1/math_8h.html#a04a32cd137f4e2dc222aca71df9edb1b" target="_top" xlink:title=" ">
<polygon fill="white" stroke="#666666" points="561.62,-206.88 529.88,-206.88 529.88,-187.62 561.62,-187.62 561.62,-206.88"/>
<text text-anchor="middle" x="545.75" y="-193.38" font-family="Helvetica,sans-Serif" font-size="10.00">min</text>
</a>
</g>
</g>
<!-- Node15&#45;&gt;Node17 -->
<g id="edge21_Node000015_Node000017" class="edge">
<title>Node15&#45;&gt;Node17</title>
<g id="a_edge21_Node000015_Node000017"><a xlink:title=" ">
<path fill="none" stroke="#63b8ff" d="M433.25,-185.75C462.84,-188.8 496.48,-192.27 519,-194.59"/>
<polygon fill="#63b8ff" stroke="#63b8ff" points="518.38,-198.15 528.68,-195.7 519.1,-191.19 518.38,-198.15"/>
</a>
</g>
</g>
</g>
</svg>

<g id="navigator" transform="translate(0 0)" fill="#404254">
  <rect fill="#f2f5e9" fill-opacity="0.5" stroke="#606060" stroke-width=".5" x="0" y="0" width="60" height="60"/>
  <use id="zoomplus" xlink:href="#zoomPlus" x="17" y="9" onmousedown="handleZoom(evt,'in')"/>
  <use id="zoomminus" xlink:href="#zoomMin" x="42" y="9" onmousedown="handleZoom(evt,'out')"/>
  <use id="reset" xlink:href="#resetDef" x="30" y="36" onmousedown="handleReset()"/>
   <use id="arrowup" xlink:href="#arrowUp" x="0" y="0" onmousedown="handlePan(0,-1)"/>
  <use id="arrowright" xlink:href="#arrowRight" x="0" y="0" onmousedown="handlePan(1,0)"/>
  <use id="arrowdown" xlink:href="#arrowDown" x="0" y="0" onmousedown="handlePan(0,1)"/>
  <use id="arrowleft" xlink:href="#arrowLeft" x="0" y="0" onmousedown="handlePan(-1,0)"/>
</g>
<svg viewBox="0 0 15 15" width="100%" height="30px" preserveAspectRatio="xMaxYMin meet">
 <g id="arrow_out" transform="scale(0.3 0.3)">
  <a xlink:href="class_slic3r_1_1_layer_a1347325d70f28bd9cc69946190f47b44_cgraph_org.svg" target="_base">
   <rect id="button" ry="5" rx="5" y="6" x="6" height="38" width="38"
        fill="#f2f5e9" fill-opacity="0.5" stroke="#606060" stroke-width="1.0"/>
   <path id="arrow"
     d="M 11.500037,31.436501 C 11.940474,20.09759 22.043105,11.32322 32.158766,21.979434 L 37.068811,17.246167 C 37.068811,17.246167 37.088388,32 37.088388,32 L 22.160133,31.978069 C 22.160133,31.978069 26.997745,27.140456 26.997745,27.140456 C 18.528582,18.264221 13.291696,25.230495 11.500037,31.436501 z"
     style="fill:#404040;"/>
  </a>
 </g>
</svg>

<style type='text/css'>
<![CDATA[
[data-mouse-over-selected='false'] { opacity: 0.7; }
[data-mouse-over-selected='true']  { opacity: 1.0; }
]]>
</style>
<script type="application/ecmascript"><![CDATA[
document.addEventListener('DOMContentLoaded', (event) => {
  highlightEdges();
  highlightAdjacentNodes();
});
]]></script>
</svg>
