<?xml version="1.0" encoding="UTF-8" standalone="no"?>
<!DOCTYPE svg PUBLIC "-//W3C//DTD SVG 1.1//EN"
 "http://www.w3.org/Graphics/SVG/1.1/DTD/svg11.dtd">
<!-- Generated by graphviz version 8.1.0 (20230707.0739)
 -->
<!-- Title: Slic3r::Layer::empty Pages: 1 -->
<svg width="287pt" height="137pt"
 viewBox="0.00 0.00 286.75 136.50" xmlns="http://www.w3.org/2000/svg" xmlns:xlink="http://www.w3.org/1999/xlink">
<g id="graph0" class="graph" transform="scale(1 1) rotate(0) translate(4 132.5)">
<title>Slic3r::Layer::empty</title>
<!-- Node1 -->
<g id="Node000001" class="node">
<title>Node1</title>
<g id="a_Node000001"><a xlink:title=" ">
<polygon fill="#999999" stroke="#666666" points="278.75,-73.88 175,-73.88 175,-54.62 278.75,-54.62 278.75,-73.88"/>
<text text-anchor="middle" x="226.88" y="-60.38" font-family="Helvetica,sans-Serif" font-size="10.00">Slic3r::Layer::empty</text>
</a>
</g>
</g>
<!-- Node2 -->
<g id="Node000002" class="node">
<title>Node2</title>
<g id="a_Node000002"><a xlink:href="../../de/d87/class_slic3r_1_1_print_object.html#aa8d44737d31172baba2a44447d1657c4" target="_top" xlink:title=" ">
<polygon fill="white" stroke="#666666" points="132.62,-128.5 6.38,-128.5 6.38,-98 132.62,-98 132.62,-128.5"/>
<text text-anchor="start" x="14.38" y="-115" font-family="Helvetica,sans-Serif" font-size="10.00">Slic3r::PrintObject</text>
<text text-anchor="middle" x="69.5" y="-103.75" font-family="Helvetica,sans-Serif" font-size="10.00">::apply_conical_overhang</text>
</a>
</g>
</g>
<!-- Node1&#45;&gt;Node2 -->
<g id="edge1_Node000001_Node000002" class="edge">
<title>Node1&#45;&gt;Node2</title>
<g id="a_edge1_Node000001_Node000002"><a xlink:title=" ">
<path fill="none" stroke="#63b8ff" d="M183.63,-77.57C164.09,-83.74 140.73,-91.1 120.33,-97.54"/>
<polygon fill="#63b8ff" stroke="#63b8ff" points="184.57,-80.63 193.06,-74.28 182.47,-73.95 184.57,-80.63"/>
</a>
</g>
</g>
<!-- Node3 -->
<g id="Node000003" class="node">
<title>Node3</title>
<g id="a_Node000003"><a xlink:href="../../dd/d90/class_slic3r_1_1_layer_region.html#a3b5d95cc90bc6d8db87ff61f4e2391cd" target="_top" xlink:title=" ">
<polygon fill="white" stroke="#666666" points="139,-79.5 0,-79.5 0,-49 139,-49 139,-79.5"/>
<text text-anchor="start" x="8" y="-66" font-family="Helvetica,sans-Serif" font-size="10.00">Slic3r::LayerRegion</text>
<text text-anchor="middle" x="69.5" y="-54.75" font-family="Helvetica,sans-Serif" font-size="10.00">::process_external_surfaces</text>
</a>
</g>
</g>
<!-- Node1&#45;&gt;Node3 -->
<g id="edge2_Node000001_Node000003" class="edge">
<title>Node1&#45;&gt;Node3</title>
<g id="a_edge2_Node000001_Node000003"><a xlink:title=" ">
<path fill="none" stroke="#63b8ff" d="M163.83,-64.25C155.83,-64.25 147.6,-64.25 139.49,-64.25"/>
<polygon fill="#63b8ff" stroke="#63b8ff" points="163.57,-67.75 173.57,-64.25 163.57,-60.75 163.57,-67.75"/>
</a>
</g>
</g>
<!-- Node4 -->
<g id="Node000004" class="node">
<title>Node4</title>
<g id="a_Node000004"><a xlink:href="../../de/d87/class_slic3r_1_1_print_object.html#ae11dcd0f7214fd53ec5d46d9dbafcee0" target="_top" xlink:title=" ">
<polygon fill="white" stroke="#666666" points="117.25,-30.5 21.75,-30.5 21.75,0 117.25,0 117.25,-30.5"/>
<text text-anchor="start" x="29.75" y="-17" font-family="Helvetica,sans-Serif" font-size="10.00">Slic3r::PrintObject</text>
<text text-anchor="middle" x="69.5" y="-5.75" font-family="Helvetica,sans-Serif" font-size="10.00">::slice_volumes</text>
</a>
</g>
</g>
<!-- Node1&#45;&gt;Node4 -->
<g id="edge3_Node000001_Node000004" class="edge">
<title>Node1&#45;&gt;Node4</title>
<g id="a_edge3_Node000001_Node000004"><a xlink:title=" ">
<path fill="none" stroke="#63b8ff" d="M183.79,-50.98C163.34,-44.53 138.69,-36.75 117.61,-30.11"/>
<polygon fill="#63b8ff" stroke="#63b8ff" points="182.47,-54.55 193.06,-54.22 184.57,-47.87 182.47,-54.55"/>
</a>
</g>
</g>
</g>
</svg>
