<?xml version="1.0" encoding="UTF-8" standalone="no"?>
<!DOCTYPE svg PUBLIC "-//W3C//DTD SVG 1.1//EN"
 "http://www.w3.org/Graphics/SVG/1.1/DTD/svg11.dtd">
<!-- Generated by graphviz version 8.1.0 (20230707.0739)
 -->
<!-- Title: Slic3r::GUI::AMSMaterialsSetting::update Pages: 1 -->
<svg width="768pt" height="210pt"
 viewBox="0.00 0.00 768.25 209.50" xmlns="http://www.w3.org/2000/svg" xmlns:xlink="http://www.w3.org/1999/xlink">
<g id="graph0" class="graph" transform="scale(1 1) rotate(0) translate(4 205.5)">
<title>Slic3r::GUI::AMSMaterialsSetting::update</title>
<!-- Node1 -->
<g id="Node000001" class="node">
<title>Node1</title>
<g id="a_Node000001"><a xlink:title=" ">
<polygon fill="#999999" stroke="#666666" points="132.25,-127.5 0,-127.5 0,-97 132.25,-97 132.25,-127.5"/>
<text text-anchor="start" x="8" y="-114" font-family="Helvetica,sans-Serif" font-size="10.00">Slic3r::GUI::AMSMaterials</text>
<text text-anchor="middle" x="66.12" y="-102.75" font-family="Helvetica,sans-Serif" font-size="10.00">Setting::update</text>
</a>
</g>
</g>
<!-- Node2 -->
<g id="Node000002" class="node">
<title>Node2</title>
<g id="a_Node000002"><a xlink:href="../../dc/d24/class_slic3r_1_1_machine_object.html#a64f95561764d0d51d15c6318efcd83ec" target="_top" xlink:title=" ">
<polygon fill="white" stroke="#666666" points="299.75,-201.5 187.75,-201.5 187.75,-171 299.75,-171 299.75,-201.5"/>
<text text-anchor="start" x="195.75" y="-188" font-family="Helvetica,sans-Serif" font-size="10.00">Slic3r::MachineObject</text>
<text text-anchor="middle" x="243.75" y="-176.75" font-family="Helvetica,sans-Serif" font-size="10.00">::can_resume</text>
</a>
</g>
</g>
<!-- Node1&#45;&gt;Node2 -->
<g id="edge1_Node000001_Node000002" class="edge">
<title>Node1&#45;&gt;Node2</title>
<g id="a_edge1_Node000001_Node000002"><a xlink:title=" ">
<path fill="none" stroke="#63b8ff" d="M96.76,-127.85C116.68,-138.02 143.68,-151.22 168.25,-161.25 172.97,-163.18 177.91,-165.08 182.89,-166.91"/>
<polygon fill="#63b8ff" stroke="#63b8ff" points="181.54,-170.5 192.13,-170.58 183.9,-163.92 181.54,-170.5"/>
</a>
</g>
</g>
<!-- Node3 -->
<g id="Node000003" class="node">
<title>Node3</title>
<g id="a_Node000003"><a xlink:href="../../d5/dbb/class_slic3r_1_1_g_u_i_1_1_a_m_s_materials_setting.html#ae977cc767148346130f7bbb4d72b1858" target="_top" xlink:title=" ">
<polygon fill="white" stroke="#666666" points="319.25,-103.5 168.25,-103.5 168.25,-73 319.25,-73 319.25,-103.5"/>
<text text-anchor="start" x="176.25" y="-90" font-family="Helvetica,sans-Serif" font-size="10.00">Slic3r::GUI::AMSMaterials</text>
<text text-anchor="middle" x="243.75" y="-78.75" font-family="Helvetica,sans-Serif" font-size="10.00">Setting::enable_confirm_button</text>
</a>
</g>
</g>
<!-- Node1&#45;&gt;Node3 -->
<g id="edge2_Node000001_Node000003" class="edge">
<title>Node1&#45;&gt;Node3</title>
<g id="a_edge2_Node000001_Node000003"><a xlink:title=" ">
<path fill="none" stroke="#63b8ff" d="M132.52,-103.31C140.52,-102.22 148.79,-101.09 157.03,-99.96"/>
<polygon fill="#63b8ff" stroke="#63b8ff" points="157.4,-103.31 166.83,-98.49 156.45,-96.37 157.4,-103.31"/>
</a>
</g>
</g>
<!-- Node5 -->
<g id="Node000005" class="node">
<title>Node5</title>
<g id="a_Node000005"><a xlink:href="../../dc/d24/class_slic3r_1_1_machine_object.html#abea9b1373f45f4eb0ec92fcd94a7c87b" target="_top" xlink:title=" ">
<polygon fill="white" stroke="#666666" points="299.75,-152.5 187.75,-152.5 187.75,-122 299.75,-122 299.75,-152.5"/>
<text text-anchor="start" x="195.75" y="-139" font-family="Helvetica,sans-Serif" font-size="10.00">Slic3r::MachineObject</text>
<text text-anchor="middle" x="243.75" y="-127.75" font-family="Helvetica,sans-Serif" font-size="10.00">::is_in_printing</text>
</a>
</g>
</g>
<!-- Node1&#45;&gt;Node5 -->
<g id="edge4_Node000001_Node000005" class="edge">
<title>Node1&#45;&gt;Node5</title>
<g id="a_edge4_Node000001_Node000005"><a xlink:title=" ">
<path fill="none" stroke="#63b8ff" d="M132.52,-121.56C146.9,-123.61 162.14,-125.77 176.54,-127.83"/>
<polygon fill="#63b8ff" stroke="#63b8ff" points="175.98,-131.42 186.37,-129.37 176.97,-124.49 175.98,-131.42"/>
</a>
</g>
</g>
<!-- Node7 -->
<g id="Node000007" class="node">
<title>Node7</title>
<g id="a_Node000007"><a xlink:href="../../d5/dbb/class_slic3r_1_1_g_u_i_1_1_a_m_s_materials_setting.html#acf82fc487852b4ace05a9a8ac31db08a" target="_top" xlink:title=" ">
<polygon fill="white" stroke="#666666" points="309.88,-54.5 177.62,-54.5 177.62,-24 309.88,-24 309.88,-54.5"/>
<text text-anchor="start" x="185.62" y="-41" font-family="Helvetica,sans-Serif" font-size="10.00">Slic3r::GUI::AMSMaterials</text>
<text text-anchor="middle" x="243.75" y="-29.75" font-family="Helvetica,sans-Serif" font-size="10.00">Setting::update_widgets</text>
</a>
</g>
</g>
<!-- Node1&#45;&gt;Node7 -->
<g id="edge6_Node000001_Node000007" class="edge">
<title>Node1&#45;&gt;Node7</title>
<g id="a_edge6_Node000001_Node000007"><a xlink:title=" ">
<path fill="none" stroke="#63b8ff" d="M97.68,-96.57C117.53,-86.69 144.1,-73.99 168.25,-64.25 172.98,-62.34 177.92,-60.46 182.91,-58.63"/>
<polygon fill="#63b8ff" stroke="#63b8ff" points="183.92,-61.63 192.16,-54.97 181.56,-55.04 183.92,-61.63"/>
</a>
</g>
</g>
<!-- Node4 -->
<g id="Node000004" class="node">
<title>Node4</title>
<g id="a_Node000004"><a xlink:href="../../d5/dbb/class_slic3r_1_1_g_u_i_1_1_a_m_s_materials_setting.html#a6b2494f78c512a985c674a8770b16694" target="_top" xlink:title=" ">
<polygon fill="white" stroke="#666666" points="487.5,-103.5 355.25,-103.5 355.25,-73 487.5,-73 487.5,-103.5"/>
<text text-anchor="start" x="363.25" y="-90" font-family="Helvetica,sans-Serif" font-size="10.00">Slic3r::GUI::AMSMaterials</text>
<text text-anchor="middle" x="421.38" y="-78.75" font-family="Helvetica,sans-Serif" font-size="10.00">Setting::is_virtual_tray</text>
</a>
</g>
</g>
<!-- Node3&#45;&gt;Node4 -->
<g id="edge3_Node000003_Node000004" class="edge">
<title>Node3&#45;&gt;Node4</title>
<g id="a_edge3_Node000003_Node000004"><a xlink:title=" ">
<path fill="none" stroke="#63b8ff" d="M319.74,-88.25C327.75,-88.25 335.91,-88.25 343.94,-88.25"/>
<polygon fill="#63b8ff" stroke="#63b8ff" points="343.78,-91.75 353.78,-88.25 343.78,-84.75 343.78,-91.75"/>
</a>
</g>
</g>
<!-- Node6 -->
<g id="Node000006" class="node">
<title>Node6</title>
<g id="a_Node000006"><a xlink:href="../../dc/d24/class_slic3r_1_1_machine_object.html#add988018c5a52a04d75fd8632ea9a398" target="_top" xlink:title=" ">
<polygon fill="white" stroke="#666666" points="477.38,-152.5 365.38,-152.5 365.38,-122 477.38,-122 477.38,-152.5"/>
<text text-anchor="start" x="373.38" y="-139" font-family="Helvetica,sans-Serif" font-size="10.00">Slic3r::MachineObject</text>
<text text-anchor="middle" x="421.38" y="-127.75" font-family="Helvetica,sans-Serif" font-size="10.00">::is_in_printing_status</text>
</a>
</g>
</g>
<!-- Node5&#45;&gt;Node6 -->
<g id="edge5_Node000005_Node000006" class="edge">
<title>Node5&#45;&gt;Node6</title>
<g id="a_edge5_Node000005_Node000006"><a xlink:title=" ">
<path fill="none" stroke="#63b8ff" d="M299.84,-137.25C317,-137.25 336.1,-137.25 353.96,-137.25"/>
<polygon fill="#63b8ff" stroke="#63b8ff" points="353.88,-140.75 363.88,-137.25 353.88,-133.75 353.88,-140.75"/>
</a>
</g>
</g>
<!-- Node7&#45;&gt;Node4 -->
<g id="edge11_Node000007_Node000004" class="edge">
<title>Node7&#45;&gt;Node4</title>
<g id="a_edge11_Node000007_Node000004"><a xlink:title=" ">
<path fill="none" stroke="#63b8ff" d="M300.8,-54.89C317.67,-59.59 336.34,-64.8 353.82,-69.68"/>
<polygon fill="#63b8ff" stroke="#63b8ff" points="352.38,-73.19 362.95,-72.51 354.26,-66.45 352.38,-73.19"/>
</a>
</g>
</g>
<!-- Node8 -->
<g id="Node000008" class="node">
<title>Node8</title>
<g id="a_Node000008"><a xlink:href="../../dc/d24/class_slic3r_1_1_machine_object.html#a3eae335d70f7665f67fe1b99cb166d75" target="_top" xlink:title=" ">
<polygon fill="white" stroke="#666666" points="480,-54.5 362.75,-54.5 362.75,-24 480,-24 480,-54.5"/>
<text text-anchor="start" x="370.75" y="-41" font-family="Helvetica,sans-Serif" font-size="10.00">Slic3r::MachineObject</text>
<text text-anchor="middle" x="421.38" y="-29.75" font-family="Helvetica,sans-Serif" font-size="10.00">::is_function_supported</text>
</a>
</g>
</g>
<!-- Node7&#45;&gt;Node8 -->
<g id="edge7_Node000007_Node000008" class="edge">
<title>Node7&#45;&gt;Node8</title>
<g id="a_edge7_Node000007_Node000008"><a xlink:title=" ">
<path fill="none" stroke="#63b8ff" d="M310.15,-39.25C323.69,-39.25 338,-39.25 351.65,-39.25"/>
<polygon fill="#63b8ff" stroke="#63b8ff" points="351.44,-42.75 361.44,-39.25 351.44,-35.75 351.44,-42.75"/>
</a>
</g>
</g>
<!-- Node9 -->
<g id="Node000009" class="node">
<title>Node9</title>
<g id="a_Node000009"><a xlink:href="../../db/d79/class_slic3r_1_1_device_manager.html#afd6d49476fe32727c3a1bba170e88d01" target="_top" xlink:title=" ">
<polygon fill="white" stroke="#666666" points="640.75,-79.5 523.5,-79.5 523.5,-49 640.75,-49 640.75,-79.5"/>
<text text-anchor="start" x="531.5" y="-66" font-family="Helvetica,sans-Serif" font-size="10.00">Slic3r::DeviceManager</text>
<text text-anchor="middle" x="582.12" y="-54.75" font-family="Helvetica,sans-Serif" font-size="10.00">::is_function_supported</text>
</a>
</g>
</g>
<!-- Node8&#45;&gt;Node9 -->
<g id="edge8_Node000008_Node000009" class="edge">
<title>Node8&#45;&gt;Node9</title>
<g id="a_edge8_Node000008_Node000009"><a xlink:title=" ">
<path fill="none" stroke="#63b8ff" d="M480.14,-48.35C490.64,-50 501.69,-51.74 512.48,-53.44"/>
<polygon fill="#63b8ff" stroke="#63b8ff" points="511.72,-57.02 522.14,-55.12 512.81,-50.11 511.72,-57.02"/>
</a>
</g>
</g>
<!-- Node11 -->
<g id="Node000011" class="node">
<title>Node11</title>
<g id="a_Node000011"><a xlink:href="../../dc/d24/class_slic3r_1_1_machine_object.html#a4a20dc673b7d4c022ed4e09d50026440" target="_top" xlink:title=" ">
<polygon fill="white" stroke="#666666" points="638.12,-30.5 526.12,-30.5 526.12,0 638.12,0 638.12,-30.5"/>
<text text-anchor="start" x="534.12" y="-17" font-family="Helvetica,sans-Serif" font-size="10.00">Slic3r::MachineObject</text>
<text text-anchor="middle" x="582.12" y="-5.75" font-family="Helvetica,sans-Serif" font-size="10.00">::parse_version_func</text>
</a>
</g>
</g>
<!-- Node8&#45;&gt;Node11 -->
<g id="edge10_Node000008_Node000011" class="edge">
<title>Node8&#45;&gt;Node11</title>
<g id="a_edge10_Node000008_Node000011"><a xlink:title=" ">
<path fill="none" stroke="#63b8ff" d="M480.14,-30.52C491.54,-28.79 503.59,-26.97 515.23,-25.21"/>
<polygon fill="#63b8ff" stroke="#63b8ff" points="515.43,-28.57 524.79,-23.62 514.38,-21.65 515.43,-28.57"/>
</a>
</g>
</g>
<!-- Node10 -->
<g id="Node000010" class="node">
<title>Node10</title>
<g id="a_Node000010"><a xlink:href="../../de/db8/namespace_slic3r.html#acfc9a09a09ef564e917364aebae46df0" target="_top" xlink:title=" ">
<polygon fill="white" stroke="#666666" points="760.25,-73.88 676.75,-73.88 676.75,-54.62 760.25,-54.62 760.25,-73.88"/>
<text text-anchor="middle" x="718.5" y="-60.38" font-family="Helvetica,sans-Serif" font-size="10.00">Slic3r::contains</text>
</a>
</g>
</g>
<!-- Node9&#45;&gt;Node10 -->
<g id="edge9_Node000009_Node000010" class="edge">
<title>Node9&#45;&gt;Node10</title>
<g id="a_edge9_Node000009_Node000010"><a xlink:title=" ">
<path fill="none" stroke="#63b8ff" d="M640.89,-64.25C649.11,-64.25 657.52,-64.25 665.61,-64.25"/>
<polygon fill="#63b8ff" stroke="#63b8ff" points="665.41,-67.75 675.41,-64.25 665.41,-60.75 665.41,-67.75"/>
</a>
</g>
</g>
</g>
</svg>
