<?xml version="1.0" encoding="UTF-8" standalone="no"?>
<!DOCTYPE svg PUBLIC "-//W3C//DTD SVG 1.1//EN"
 "http://www.w3.org/Graphics/SVG/1.1/DTD/svg11.dtd">
<!-- Generated by graphviz version 8.1.0 (20230707.0739)
 -->
<!-- Title: TextInput::Enable Pages: 1 -->
<svg width="816pt" height="284pt"
 viewBox="0.00 0.00 816.25 283.50" xmlns="http://www.w3.org/2000/svg" xmlns:xlink="http://www.w3.org/1999/xlink">
<g id="graph0" class="graph" transform="scale(1 1) rotate(0) translate(4 279.5)">
<title>TextInput::Enable</title>
<!-- Node1 -->
<g id="Node000001" class="node">
<title>Node1</title>
<g id="a_Node000001"><a xlink:title=" ">
<polygon fill="#999999" stroke="#666666" points="808.25,-121.88 715.75,-121.88 715.75,-102.62 808.25,-102.62 808.25,-121.88"/>
<text text-anchor="middle" x="762" y="-108.38" font-family="Helvetica,sans-Serif" font-size="10.00">TextInput::Enable</text>
</a>
</g>
</g>
<!-- Node2 -->
<g id="Node000002" class="node">
<title>Node2</title>
<g id="a_Node000002"><a xlink:href="../../d7/ddd/class_slic3r_1_1_g_u_i_1_1_temp___calibration___dlg.html#ae64128be315696916e116ef975a52b29" target="_top" xlink:title=" ">
<polygon fill="white" stroke="#666666" points="679,-201.5 532.5,-201.5 532.5,-171 679,-171 679,-201.5"/>
<text text-anchor="start" x="540.5" y="-188" font-family="Helvetica,sans-Serif" font-size="10.00">Slic3r::GUI::Temp_Calibration</text>
<text text-anchor="middle" x="605.75" y="-176.75" font-family="Helvetica,sans-Serif" font-size="10.00">_Dlg::Temp_Calibration_Dlg</text>
</a>
</g>
</g>
<!-- Node1&#45;&gt;Node2 -->
<g id="edge1_Node000001_Node000002" class="edge">
<title>Node1&#45;&gt;Node2</title>
<g id="a_edge1_Node000001_Node000002"><a xlink:title=" ">
<path fill="none" stroke="#63b8ff" d="M737.5,-128.26C721.66,-138.58 700.03,-151.8 679.75,-161.25 672.59,-164.59 664.85,-167.72 657.18,-170.56"/>
<polygon fill="#63b8ff" stroke="#63b8ff" points="739.14,-130.7 745.55,-122.26 735.28,-124.87 739.14,-130.7"/>
</a>
</g>
</g>
<!-- Node3 -->
<g id="Node000003" class="node">
<title>Node3</title>
<g id="a_Node000003"><a xlink:href="../../d7/d57/class_slic3r_1_1_g_u_i_1_1_preferences_dialog.html#a7fedc1beaee537bb01b625469b9f7b17" target="_top" xlink:title=" ">
<polygon fill="white" stroke="#666666" points="679.75,-152.5 531.75,-152.5 531.75,-122 679.75,-122 679.75,-152.5"/>
<text text-anchor="start" x="539.75" y="-139" font-family="Helvetica,sans-Serif" font-size="10.00">Slic3r::GUI::Preferences</text>
<text text-anchor="middle" x="605.75" y="-127.75" font-family="Helvetica,sans-Serif" font-size="10.00">Dialog::create_item_checkbox</text>
</a>
</g>
</g>
<!-- Node1&#45;&gt;Node3 -->
<g id="edge2_Node000001_Node000003" class="edge">
<title>Node1&#45;&gt;Node3</title>
<g id="a_edge2_Node000001_Node000003"><a xlink:title=" ">
<path fill="none" stroke="#63b8ff" d="M704.87,-121.35C696.85,-122.65 688.51,-124 680.23,-125.34"/>
<polygon fill="#63b8ff" stroke="#63b8ff" points="705.24,-124.67 714.55,-119.62 704.12,-117.76 705.24,-124.67"/>
</a>
</g>
</g>
<!-- Node11 -->
<g id="Node000011" class="node">
<title>Node11</title>
<g id="a_Node000011"><a xlink:href="../../d5/dbb/class_slic3r_1_1_g_u_i_1_1_a_m_s_materials_setting.html#ad76f76cafae72db4d7c92e9bfeee2e58" target="_top" xlink:title=" ">
<polygon fill="white" stroke="#666666" points="677.12,-103.5 534.38,-103.5 534.38,-73 677.12,-73 677.12,-103.5"/>
<text text-anchor="start" x="542.38" y="-90" font-family="Helvetica,sans-Serif" font-size="10.00">Slic3r::GUI::AMSMaterials</text>
<text text-anchor="middle" x="605.75" y="-78.75" font-family="Helvetica,sans-Serif" font-size="10.00">Setting::create_panel_normal</text>
</a>
</g>
</g>
<!-- Node1&#45;&gt;Node11 -->
<g id="edge11_Node000001_Node000011" class="edge">
<title>Node1&#45;&gt;Node11</title>
<g id="a_edge11_Node000001_Node000011"><a xlink:title=" ">
<path fill="none" stroke="#63b8ff" d="M704.88,-103.52C695.93,-102.13 686.57,-100.67 677.34,-99.23"/>
<polygon fill="#63b8ff" stroke="#63b8ff" points="704.13,-107.1 714.55,-105.18 705.21,-100.18 704.13,-107.1"/>
</a>
</g>
</g>
<!-- Node14 -->
<g id="Node000014" class="node">
<title>Node14</title>
<g id="a_Node000014"><a xlink:href="../../d1/d0f/class_slic3r_1_1_g_u_i_1_1_text_ctrl.html#a49c645a4acde10b8430f3a6d2933dddd" target="_top" xlink:title=" ">
<polygon fill="white" stroke="#666666" points="658.38,-54.5 553.12,-54.5 553.12,-24 658.38,-24 658.38,-54.5"/>
<text text-anchor="start" x="561.12" y="-41" font-family="Helvetica,sans-Serif" font-size="10.00">Slic3r::GUI::TextCtrl</text>
<text text-anchor="middle" x="605.75" y="-29.75" font-family="Helvetica,sans-Serif" font-size="10.00">::enable</text>
</a>
</g>
</g>
<!-- Node1&#45;&gt;Node14 -->
<g id="edge14_Node000001_Node000014" class="edge">
<title>Node1&#45;&gt;Node14</title>
<g id="a_edge14_Node000001_Node000014"><a xlink:title=" ">
<path fill="none" stroke="#63b8ff" d="M737.16,-96.42C721.33,-86.35 699.84,-73.5 679.75,-64.25 672.45,-60.89 664.56,-57.73 656.76,-54.86"/>
<polygon fill="#63b8ff" stroke="#63b8ff" points="734.93,-99.79 745.23,-102.27 738.73,-93.91 734.93,-99.79"/>
</a>
</g>
</g>
<!-- Node4 -->
<g id="Node000004" class="node">
<title>Node4</title>
<g id="a_Node000004"><a xlink:href="../../d7/d57/class_slic3r_1_1_g_u_i_1_1_preferences_dialog.html#a474561ab79354f6c7556ac5c98117141" target="_top" xlink:title=" ">
<polygon fill="white" stroke="#666666" points="488.62,-275.5 354.12,-275.5 354.12,-245 488.62,-245 488.62,-275.5"/>
<text text-anchor="start" x="362.12" y="-262" font-family="Helvetica,sans-Serif" font-size="10.00">Slic3r::GUI::Preferences</text>
<text text-anchor="middle" x="421.38" y="-250.75" font-family="Helvetica,sans-Serif" font-size="10.00">Dialog::create_debug_page</text>
</a>
</g>
</g>
<!-- Node3&#45;&gt;Node4 -->
<g id="edge3_Node000003_Node000004" class="edge">
<title>Node3&#45;&gt;Node4</title>
<g id="a_edge3_Node000003_Node000004"><a xlink:title=" ">
<path fill="none" stroke="#63b8ff" d="M536.19,-158.69C534.65,-159.82 533.17,-161 531.75,-162.25 504.58,-186.14 522.93,-211.38 495.75,-235.25 491.6,-238.89 486.9,-242.01 481.93,-244.67"/>
<polygon fill="#63b8ff" stroke="#63b8ff" points="537.88,-161.13 544.5,-152.86 534.16,-155.2 537.88,-161.13"/>
</a>
</g>
</g>
<!-- Node7 -->
<g id="Node000007" class="node">
<title>Node7</title>
<g id="a_Node000007"><a xlink:href="../../d7/d57/class_slic3r_1_1_g_u_i_1_1_preferences_dialog.html#a1e4bf092ea448e6fd7713eec75653c96" target="_top" xlink:title=" ">
<polygon fill="white" stroke="#666666" points="491.25,-226.5 351.5,-226.5 351.5,-196 491.25,-196 491.25,-226.5"/>
<text text-anchor="start" x="359.5" y="-213" font-family="Helvetica,sans-Serif" font-size="10.00">Slic3r::GUI::Preferences</text>
<text text-anchor="middle" x="421.38" y="-201.75" font-family="Helvetica,sans-Serif" font-size="10.00">Dialog::create_general_page</text>
</a>
</g>
</g>
<!-- Node3&#45;&gt;Node7 -->
<g id="edge6_Node000003_Node000007" class="edge">
<title>Node3&#45;&gt;Node7</title>
<g id="a_edge6_Node000003_Node000007"><a xlink:title=" ">
<path fill="none" stroke="#63b8ff" d="M543.4,-156.95C539.41,-158.63 535.49,-160.4 531.75,-162.25 514.51,-170.77 513,-177.74 495.75,-186.25 488.87,-189.64 481.42,-192.76 473.99,-195.57"/>
<polygon fill="#63b8ff" stroke="#63b8ff" points="544.42,-159.91 552.41,-152.95 541.82,-153.41 544.42,-159.91"/>
</a>
</g>
</g>
<!-- Node8 -->
<g id="Node000008" class="node">
<title>Node8</title>
<g id="a_Node000008"><a xlink:href="../../d7/d57/class_slic3r_1_1_g_u_i_1_1_preferences_dialog.html#a859926627795137aabde5065660a03c1" target="_top" xlink:title=" ">
<polygon fill="white" stroke="#666666" points="483,-177.5 359.75,-177.5 359.75,-147 483,-147 483,-177.5"/>
<text text-anchor="start" x="367.75" y="-164" font-family="Helvetica,sans-Serif" font-size="10.00">Slic3r::GUI::Preferences</text>
<text text-anchor="middle" x="421.38" y="-152.75" font-family="Helvetica,sans-Serif" font-size="10.00">Dialog::create_gui_page</text>
</a>
</g>
</g>
<!-- Node3&#45;&gt;Node8 -->
<g id="edge8_Node000003_Node000008" class="edge">
<title>Node3&#45;&gt;Node8</title>
<g id="a_edge8_Node000003_Node000008"><a xlink:title=" ">
<path fill="none" stroke="#63b8ff" d="M520.81,-148.76C508.18,-150.49 495.37,-152.24 483.34,-153.89"/>
<polygon fill="#63b8ff" stroke="#63b8ff" points="520.93,-152.14 530.36,-147.31 519.98,-145.2 520.93,-152.14"/>
</a>
</g>
</g>
<!-- Node9 -->
<g id="Node000009" class="node">
<title>Node9</title>
<g id="a_Node000009"><a xlink:href="../../d7/d57/class_slic3r_1_1_g_u_i_1_1_preferences_dialog.html#ab2cf0327702801cb8f9d83afdaa0a8d8" target="_top" xlink:title=" ">
<polygon fill="white" stroke="#666666" points="495.75,-128.5 347,-128.5 347,-98 495.75,-98 495.75,-128.5"/>
<text text-anchor="start" x="355" y="-115" font-family="Helvetica,sans-Serif" font-size="10.00">Slic3r::GUI::Preferences</text>
<text text-anchor="middle" x="421.38" y="-103.75" font-family="Helvetica,sans-Serif" font-size="10.00">Dialog::create_shortcuts_page</text>
</a>
</g>
</g>
<!-- Node3&#45;&gt;Node9 -->
<g id="edge9_Node000003_Node000009" class="edge">
<title>Node3&#45;&gt;Node9</title>
<g id="a_edge9_Node000003_Node000009"><a xlink:title=" ">
<path fill="none" stroke="#63b8ff" d="M520.69,-126.19C512.52,-125.11 504.27,-124.03 496.21,-122.97"/>
<polygon fill="#63b8ff" stroke="#63b8ff" points="519.99,-129.76 530.36,-127.59 520.9,-122.82 519.99,-129.76"/>
</a>
</g>
</g>
<!-- Node10 -->
<g id="Node000010" class="node">
<title>Node10</title>
<g id="a_Node000010"><a xlink:href="../../d7/d57/class_slic3r_1_1_g_u_i_1_1_preferences_dialog.html#a0425248bc7f78fbb8ae0e366f835bffe" target="_top" xlink:title=" ">
<polygon fill="white" stroke="#666666" points="486,-79.5 356.75,-79.5 356.75,-49 486,-49 486,-79.5"/>
<text text-anchor="start" x="364.75" y="-66" font-family="Helvetica,sans-Serif" font-size="10.00">Slic3r::GUI::Preferences</text>
<text text-anchor="middle" x="421.38" y="-54.75" font-family="Helvetica,sans-Serif" font-size="10.00">Dialog::create_sync_page</text>
</a>
</g>
</g>
<!-- Node3&#45;&gt;Node10 -->
<g id="edge10_Node000003_Node000010" class="edge">
<title>Node3&#45;&gt;Node10</title>
<g id="a_edge10_Node000003_Node000010"><a xlink:title=" ">
<path fill="none" stroke="#63b8ff" d="M543.65,-117.56C539.58,-115.87 535.58,-114.1 531.75,-112.25 514.65,-104 512.86,-97.48 495.75,-89.25 488.72,-85.87 481.1,-82.73 473.53,-79.91"/>
<polygon fill="#63b8ff" stroke="#63b8ff" points="542.27,-121.17 552.85,-121.57 544.83,-114.65 542.27,-121.17"/>
</a>
</g>
</g>
<!-- Node5 -->
<g id="Node000005" class="node">
<title>Node5</title>
<g id="a_Node000005"><a xlink:href="../../d7/d57/class_slic3r_1_1_g_u_i_1_1_preferences_dialog.html#a065e25a0b86dc6e452a23732bfc41b1e" target="_top" xlink:title=" ">
<polygon fill="white" stroke="#666666" points="300.12,-250.5 176.88,-250.5 176.88,-220 300.12,-220 300.12,-250.5"/>
<text text-anchor="start" x="184.88" y="-237" font-family="Helvetica,sans-Serif" font-size="10.00">Slic3r::GUI::Preferences</text>
<text text-anchor="middle" x="238.5" y="-225.75" font-family="Helvetica,sans-Serif" font-size="10.00">Dialog::create</text>
</a>
</g>
</g>
<!-- Node4&#45;&gt;Node5 -->
<g id="edge4_Node000004_Node000005" class="edge">
<title>Node4&#45;&gt;Node5</title>
<g id="a_edge4_Node000004_Node000005"><a xlink:title=" ">
<path fill="none" stroke="#63b8ff" d="M343.04,-249.56C328.84,-247.6 314.19,-245.57 300.55,-243.69"/>
<polygon fill="#63b8ff" stroke="#63b8ff" points="342.41,-253.15 352.79,-251.05 343.37,-246.21 342.41,-253.15"/>
</a>
</g>
</g>
<!-- Node6 -->
<g id="Node000006" class="node">
<title>Node6</title>
<g id="a_Node000006"><a xlink:href="../../d7/d57/class_slic3r_1_1_g_u_i_1_1_preferences_dialog.html#a82eebf8cdef125167b699b2f05f1c196" target="_top" xlink:title=" ">
<polygon fill="white" stroke="#666666" points="130,-250.5 0,-250.5 0,-220 130,-220 130,-250.5"/>
<text text-anchor="start" x="8" y="-237" font-family="Helvetica,sans-Serif" font-size="10.00">Slic3r::GUI::Preferences</text>
<text text-anchor="middle" x="65" y="-225.75" font-family="Helvetica,sans-Serif" font-size="10.00">Dialog::PreferencesDialog</text>
</a>
</g>
</g>
<!-- Node5&#45;&gt;Node6 -->
<g id="edge5_Node000005_Node000006" class="edge">
<title>Node5&#45;&gt;Node6</title>
<g id="a_edge5_Node000005_Node000006"><a xlink:title=" ">
<path fill="none" stroke="#63b8ff" d="M165.84,-235.25C154.03,-235.25 141.85,-235.25 130.23,-235.25"/>
<polygon fill="#63b8ff" stroke="#63b8ff" points="165.55,-238.75 175.55,-235.25 165.55,-231.75 165.55,-238.75"/>
</a>
</g>
</g>
<!-- Node7&#45;&gt;Node5 -->
<g id="edge7_Node000007_Node000005" class="edge">
<title>Node7&#45;&gt;Node5</title>
<g id="a_edge7_Node000007_Node000005"><a xlink:title=" ">
<path fill="none" stroke="#63b8ff" d="M340.5,-221.85C327.03,-223.64 313.23,-225.47 300.34,-227.18"/>
<polygon fill="#63b8ff" stroke="#63b8ff" points="340.77,-225.21 350.22,-220.43 339.85,-218.27 340.77,-225.21"/>
</a>
</g>
</g>
<!-- Node12 -->
<g id="Node000012" class="node">
<title>Node12</title>
<g id="a_Node000012"><a xlink:href="../../d5/dbb/class_slic3r_1_1_g_u_i_1_1_a_m_s_materials_setting.html#a19206cffbc8daface3e35d06d1ee622c" target="_top" xlink:title=" ">
<polygon fill="white" stroke="#666666" points="487.5,-30.5 355.25,-30.5 355.25,0 487.5,0 487.5,-30.5"/>
<text text-anchor="start" x="363.25" y="-17" font-family="Helvetica,sans-Serif" font-size="10.00">Slic3r::GUI::AMSMaterials</text>
<text text-anchor="middle" x="421.38" y="-5.75" font-family="Helvetica,sans-Serif" font-size="10.00">Setting::create</text>
</a>
</g>
</g>
<!-- Node11&#45;&gt;Node12 -->
<g id="edge12_Node000011_Node000012" class="edge">
<title>Node11&#45;&gt;Node12</title>
<g id="a_edge12_Node000011_Node000012"><a xlink:title=" ">
<path fill="none" stroke="#63b8ff" d="M543.65,-68.56C539.58,-66.87 535.58,-65.1 531.75,-63.25 514.65,-55 512.86,-48.48 495.75,-40.25 488.72,-36.87 481.1,-33.73 473.53,-30.91"/>
<polygon fill="#63b8ff" stroke="#63b8ff" points="542.27,-72.17 552.85,-72.57 544.83,-65.65 542.27,-72.17"/>
</a>
</g>
</g>
<!-- Node13 -->
<g id="Node000013" class="node">
<title>Node13</title>
<g id="a_Node000013"><a xlink:href="../../d5/dbb/class_slic3r_1_1_g_u_i_1_1_a_m_s_materials_setting.html#aba2e7fe5603cde3b1be0ee02e5a5de80" target="_top" xlink:title=" ">
<polygon fill="white" stroke="#666666" points="311,-30.5 166,-30.5 166,0 311,0 311,-30.5"/>
<text text-anchor="start" x="174" y="-17" font-family="Helvetica,sans-Serif" font-size="10.00">Slic3r::GUI::AMSMaterials</text>
<text text-anchor="middle" x="238.5" y="-5.75" font-family="Helvetica,sans-Serif" font-size="10.00">Setting::AMSMaterialsSetting</text>
</a>
</g>
</g>
<!-- Node12&#45;&gt;Node13 -->
<g id="edge13_Node000012_Node000013" class="edge">
<title>Node12&#45;&gt;Node13</title>
<g id="a_edge13_Node000012_Node000013"><a xlink:title=" ">
<path fill="none" stroke="#63b8ff" d="M344.06,-15.25C333.19,-15.25 322.04,-15.25 311.25,-15.25"/>
<polygon fill="#63b8ff" stroke="#63b8ff" points="343.82,-18.75 353.82,-15.25 343.82,-11.75 343.82,-18.75"/>
</a>
</g>
</g>
</g>
</svg>
