<?xml version="1.0" encoding="UTF-8" standalone="no"?>
<!DOCTYPE svg PUBLIC "-//W3C//DTD SVG 1.1//EN"
 "http://www.w3.org/Graphics/SVG/1.1/DTD/svg11.dtd">
<!-- Generated by graphviz version 8.1.0 (20230707.0739)
 -->
<!-- Title: trailing_zeroes Pages: 1 -->
<svg width="754pt" height="196pt"
 viewBox="0.00 0.00 754.00 196.12" xmlns="http://www.w3.org/2000/svg" xmlns:xlink="http://www.w3.org/1999/xlink">
<g id="graph0" class="graph" transform="scale(1 1) rotate(0) translate(4 192.12)">
<title>trailing_zeroes</title>
<!-- Node1 -->
<g id="Node000001" class="node">
<title>Node1</title>
<g id="a_Node000001"><a xlink:title=" ">
<polygon fill="#999999" stroke="#666666" points="746,-117.5 667,-117.5 667,-98.25 746,-98.25 746,-117.5"/>
<text text-anchor="middle" x="706.5" y="-104" font-family="Helvetica,sans-Serif" font-size="10.00">trailing_zeroes</text>
</a>
</g>
</g>
<!-- Node2 -->
<g id="Node000002" class="node">
<title>Node2</title>
<g id="a_Node000002"><a xlink:href="../../d2/d04/frontend_8cpp.html#a58b32182584be2004284161bc548afb1" target="_top" xlink:title=" ">
<polygon fill="white" stroke="#666666" points="631,-117.5 486,-117.5 486,-98.25 631,-98.25 631,-117.5"/>
<text text-anchor="middle" x="558.5" y="-104" font-family="Helvetica,sans-Serif" font-size="10.00">debug_message_control_impl</text>
</a>
</g>
</g>
<!-- Node1&#45;&gt;Node2 -->
<g id="edge1_Node000001_Node000002" class="edge">
<title>Node1&#45;&gt;Node2</title>
<g id="a_edge1_Node000001_Node000002"><a xlink:title=" ">
<path fill="none" stroke="#63b8ff" d="M655.92,-107.88C648.04,-107.88 639.74,-107.88 631.47,-107.88"/>
<polygon fill="#63b8ff" stroke="#63b8ff" points="655.76,-111.38 665.76,-107.88 655.76,-104.38 655.76,-111.38"/>
</a>
</g>
</g>
<!-- Node3 -->
<g id="Node000003" class="node">
<title>Node3</title>
<g id="a_Node000003"><a xlink:href="../../df/d20/mcut_8cpp.html#a3bc0e7740154f9bb06fd8d2181aaf6d4" target="_top" xlink:title=" ">
<polygon fill="white" stroke="#666666" points="450,-117.5 320.75,-117.5 320.75,-98.25 450,-98.25 450,-117.5"/>
<text text-anchor="middle" x="385.38" y="-104" font-family="Helvetica,sans-Serif" font-size="10.00">mcDebugMessageControl</text>
</a>
</g>
</g>
<!-- Node2&#45;&gt;Node3 -->
<g id="edge2_Node000002_Node000003" class="edge">
<title>Node2&#45;&gt;Node3</title>
<g id="a_edge2_Node000002_Node000003"><a xlink:title=" ">
<path fill="none" stroke="#63b8ff" d="M475.04,-107.88C466.73,-107.88 458.39,-107.88 450.31,-107.88"/>
<polygon fill="#63b8ff" stroke="#63b8ff" points="474.92,-111.38 484.92,-107.88 474.92,-104.38 474.92,-111.38"/>
</a>
</g>
</g>
<!-- Node4 -->
<g id="Node000004" class="node">
<title>Node4</title>
<g id="a_Node000004"><a xlink:href="../../d8/d25/namespace_slic3r_1_1_mesh_boolean_1_1mcut.html#a027fd99f81ed3c86bba03f105caaba78" target="_top" xlink:title=" ">
<polygon fill="white" stroke="#666666" points="281.38,-157.12 175.38,-157.12 175.38,-126.62 281.38,-126.62 281.38,-157.12"/>
<text text-anchor="start" x="183.38" y="-143.62" font-family="Helvetica,sans-Serif" font-size="10.00">Slic3r::MeshBoolean</text>
<text text-anchor="middle" x="228.38" y="-132.38" font-family="Helvetica,sans-Serif" font-size="10.00">::mcut::do_boolean</text>
</a>
</g>
</g>
<!-- Node3&#45;&gt;Node4 -->
<g id="edge3_Node000003_Node000004" class="edge">
<title>Node3&#45;&gt;Node4</title>
<g id="a_edge3_Node000003_Node000004"><a xlink:title=" ">
<path fill="none" stroke="#63b8ff" d="M327.62,-120.33C312.64,-123.61 296.55,-127.14 281.81,-130.37"/>
<polygon fill="#63b8ff" stroke="#63b8ff" points="328.27,-123.55 337.29,-117.98 326.77,-116.71 328.27,-123.55"/>
</a>
</g>
</g>
<!-- Node7 -->
<g id="Node000007" class="node">
<title>Node7</title>
<g id="a_Node000007"><a xlink:href="../../d8/d25/namespace_slic3r_1_1_mesh_boolean_1_1mcut.html#a43a8764f7ea93b0e65cb17786f7e6f0a" target="_top" xlink:title=" ">
<polygon fill="white" stroke="#666666" points="284.75,-90.12 172,-90.12 172,-59.62 284.75,-59.62 284.75,-90.12"/>
<text text-anchor="start" x="180" y="-76.62" font-family="Helvetica,sans-Serif" font-size="10.00">Slic3r::MeshBoolean</text>
<text text-anchor="middle" x="228.38" y="-65.38" font-family="Helvetica,sans-Serif" font-size="10.00">::mcut::make_boolean</text>
</a>
</g>
</g>
<!-- Node3&#45;&gt;Node7 -->
<g id="edge7_Node000003_Node000007" class="edge">
<title>Node3&#45;&gt;Node7</title>
<g id="a_edge7_Node000003_Node000007"><a xlink:title=" ">
<path fill="none" stroke="#63b8ff" d="M326.41,-95.53C312.9,-92.66 298.55,-89.6 285.14,-86.75"/>
<polygon fill="#63b8ff" stroke="#63b8ff" points="325.52,-99.14 336.03,-97.79 326.98,-92.29 325.52,-99.14"/>
</a>
</g>
</g>
<!-- Node4&#45;&gt;Node4 -->
<g id="edge4_Node000004_Node000004" class="edge">
<title>Node4&#45;&gt;Node4</title>
<g id="a_edge4_Node000004_Node000004"><a xlink:title=" ">
<path fill="none" stroke="#63b8ff" d="M255.06,-168.5C250.9,-172.45 242,-175.12 228.38,-175.12 204.15,-175.12 194.88,-166.68 200.55,-157.61"/>
<polygon fill="#63b8ff" stroke="#63b8ff" points="258.64,-168.92 256.2,-158.61 251.68,-168.19 258.64,-168.92"/>
</a>
</g>
</g>
<!-- Node5 -->
<g id="Node000005" class="node">
<title>Node5</title>
<g id="a_Node000005"><a xlink:href="../../d8/d25/namespace_slic3r_1_1_mesh_boolean_1_1mcut.html#a0c8c471b80f5cdc4f85bdbcc49b2c95d" target="_top" xlink:title=" ">
<polygon fill="white" stroke="#666666" points="124.38,-139.12 11.62,-139.12 11.62,-108.62 124.38,-108.62 124.38,-139.12"/>
<text text-anchor="start" x="19.62" y="-125.62" font-family="Helvetica,sans-Serif" font-size="10.00">Slic3r::MeshBoolean</text>
<text text-anchor="middle" x="68" y="-114.38" font-family="Helvetica,sans-Serif" font-size="10.00">::mcut::make_boolean</text>
</a>
</g>
</g>
<!-- Node4&#45;&gt;Node5 -->
<g id="edge5_Node000004_Node000005" class="edge">
<title>Node4&#45;&gt;Node5</title>
<g id="a_edge5_Node000004_Node000005"><a xlink:title=" ">
<path fill="none" stroke="#63b8ff" d="M164.28,-134.7C151.23,-133.22 137.56,-131.67 124.78,-130.21"/>
<polygon fill="#63b8ff" stroke="#63b8ff" points="163.75,-138.28 174.08,-135.93 164.54,-131.32 163.75,-138.28"/>
</a>
</g>
</g>
<!-- Node6 -->
<g id="Node000006" class="node">
<title>Node6</title>
<g id="a_Node000006"><a xlink:href="../../d7/d48/namespace_slic3r_1_1csg_1_1detail__mcut.html#af1e62b3de64bd8c5ec9caece2b065106" target="_top" xlink:title=" ">
<polygon fill="white" stroke="#666666" points="119.5,-188.12 16.5,-188.12 16.5,-157.62 119.5,-157.62 119.5,-188.12"/>
<text text-anchor="start" x="24.5" y="-174.62" font-family="Helvetica,sans-Serif" font-size="10.00">Slic3r::csg::detail</text>
<text text-anchor="middle" x="68" y="-163.38" font-family="Helvetica,sans-Serif" font-size="10.00">_mcut::perform_csg</text>
</a>
</g>
</g>
<!-- Node4&#45;&gt;Node6 -->
<g id="edge6_Node000004_Node000006" class="edge">
<title>Node4&#45;&gt;Node6</title>
<g id="a_edge6_Node000004_Node000006"><a xlink:title=" ">
<path fill="none" stroke="#63b8ff" d="M164.48,-154.19C149.68,-157.08 134.09,-160.13 119.89,-162.91"/>
<polygon fill="#63b8ff" stroke="#63b8ff" points="164.94,-157.47 174.08,-152.11 163.59,-150.6 164.94,-157.47"/>
</a>
</g>
</g>
<!-- Node7&#45;&gt;Node5 -->
<g id="edge9_Node000007_Node000005" class="edge">
<title>Node7&#45;&gt;Node5</title>
<g id="a_edge9_Node000007_Node000005"><a xlink:title=" ">
<path fill="none" stroke="#63b8ff" d="M166.38,-93.75C151.02,-98.5 134.69,-103.55 119.88,-108.13"/>
<polygon fill="#63b8ff" stroke="#63b8ff" points="167.31,-96.81 175.83,-90.51 165.24,-90.13 167.31,-96.81"/>
</a>
</g>
</g>
<!-- Node7&#45;&gt;Node7 -->
<g id="edge8_Node000007_Node000007" class="edge">
<title>Node7&#45;&gt;Node7</title>
<g id="a_edge8_Node000007_Node000007"><a xlink:title=" ">
<path fill="none" stroke="#63b8ff" d="M255.06,-101.5C250.9,-105.45 242,-108.12 228.38,-108.12 204.15,-108.12 194.88,-99.68 200.55,-90.61"/>
<polygon fill="#63b8ff" stroke="#63b8ff" points="258.64,-101.92 256.2,-91.61 251.68,-101.19 258.64,-101.92"/>
</a>
</g>
</g>
<!-- Node8 -->
<g id="Node000008" class="node">
<title>Node8</title>
<g id="a_Node000008"><a xlink:href="../../d0/d23/class_slic3r_1_1_model_object.html#a5609c3b40364fbba32f27f0f3298f915" target="_top" xlink:title=" ">
<polygon fill="white" stroke="#666666" points="118.75,-90.12 17.25,-90.12 17.25,-59.62 118.75,-59.62 118.75,-90.12"/>
<text text-anchor="start" x="25.25" y="-76.62" font-family="Helvetica,sans-Serif" font-size="10.00">Slic3r::ModelObject</text>
<text text-anchor="middle" x="68" y="-65.38" font-family="Helvetica,sans-Serif" font-size="10.00">::make_boolean</text>
</a>
</g>
</g>
<!-- Node7&#45;&gt;Node8 -->
<g id="edge10_Node000007_Node000008" class="edge">
<title>Node7&#45;&gt;Node8</title>
<g id="a_edge10_Node000007_Node000008"><a xlink:title=" ">
<path fill="none" stroke="#63b8ff" d="M160.54,-74.88C146.64,-74.88 132.22,-74.88 119.06,-74.88"/>
<polygon fill="#63b8ff" stroke="#63b8ff" points="160.54,-78.38 170.54,-74.88 160.54,-71.38 160.54,-78.38"/>
</a>
</g>
</g>
<!-- Node9 -->
<g id="Node000009" class="node">
<title>Node9</title>
<g id="a_Node000009"><a xlink:href="../../d8/d45/class_slic3r_1_1_g_u_i_1_1_g_l_gizmo_mesh_boolean.html#aedb61aeec711d1c78144539068db647a" target="_top" xlink:title=" ">
<polygon fill="white" stroke="#666666" points="136,-41.75 0,-41.75 0,0 136,0 136,-41.75"/>
<text text-anchor="start" x="8" y="-28.25" font-family="Helvetica,sans-Serif" font-size="10.00">Slic3r::GUI::GLGizmoMesh</text>
<text text-anchor="start" x="8" y="-17" font-family="Helvetica,sans-Serif" font-size="10.00">Boolean::on_render_input</text>
<text text-anchor="middle" x="68" y="-5.75" font-family="Helvetica,sans-Serif" font-size="10.00">_window</text>
</a>
</g>
</g>
<!-- Node7&#45;&gt;Node9 -->
<g id="edge11_Node000007_Node000009" class="edge">
<title>Node7&#45;&gt;Node9</title>
<g id="a_edge11_Node000007_Node000009"><a xlink:title=" ">
<path fill="none" stroke="#63b8ff" d="M171.43,-55.8C158.51,-51.39 144.68,-46.68 131.5,-42.18"/>
<polygon fill="#63b8ff" stroke="#63b8ff" points="169.97,-59.34 180.57,-59.26 172.23,-52.72 169.97,-59.34"/>
</a>
</g>
</g>
</g>
</svg>
