<?xml version="1.0" encoding="UTF-8" standalone="no"?>
<!DOCTYPE svg PUBLIC "-//W3C//DTD SVG 1.1//EN"
 "http://www.w3.org/Graphics/SVG/1.1/DTD/svg11.dtd">
<!-- Generated by graphviz version 8.1.0 (20230707.0739)
 -->
<!-- Title: mz_compress2 Pages: 1 -->
<!--zoomable 403 -->

<svg id="main" version="1.1" xmlns="http://www.w3.org/2000/svg" xmlns:xlink="http://www.w3.org/1999/xlink" xml:space="preserve" onload="init(evt)">
<style type="text/css"><![CDATA[
.node, .edge {opacity: 0.7;}
.node.selected, .edge.selected {opacity: 1;}
.edge:hover path { stroke: red; }
.edge:hover polygon { stroke: red; fill: red; }
]]></style>

<defs>
  <circle id="rim" cx="0" cy="0" r="7"/>
  <circle id="rim2" cx="0" cy="0" r="3.5"/>
  <g id="zoomPlus">
    <use xlink:href="#rim" fill="#404040"><set attributeName="fill" to="#808080" begin="zoomplus.mouseover" end="zoomplus.mouseout"/></use>
    <path d="M-4,0h8M0,-4v8" fill="none" stroke="white" stroke-width="1.5" pointer-events="none"/>
  </g>
  <g id="zoomMin">
    <use xlink:href="#rim" fill="#404040"><set attributeName="fill" to="#808080" begin="zoomminus.mouseover" end="zoomminus.mouseout"/></use>
    <path d="M-4,0h8" fill="none" stroke="white" stroke-width="1.5" pointer-events="none"/>
  </g>
  <g id="arrowUp" transform="translate(30 24)">
    <use xlink:href="#rim"/>
    <path pointer-events="none" fill="none" stroke="white" stroke-width="1.5" d="M0,-3.0v7 M-2.5,-0.5L0,-3.0L2.5,-0.5"/>
  </g>
  <g id="arrowRight" transform="rotate(90) translate(36 -43)">
    <use xlink:href="#rim"/>
    <path pointer-events="none" fill="none" stroke="white" stroke-width="1.5" d="M0,-3.0v7 M-2.5,-0.5L0,-3.0L2.5,-0.5"/>
  </g>
  <g id="arrowDown" transform="rotate(180) translate(-30 -48)">
    <use xlink:href="#rim"/>
    <path pointer-events="none" fill="none" stroke="white" stroke-width="1.5" d="M0,-3.0v7 M-2.5,-0.5L0,-3.0L2.5,-0.5"/>
  </g>
  <g id="arrowLeft" transform="rotate(270) translate(-36 17)">
    <use xlink:href="#rim"/>
    <path pointer-events="none" fill="none" stroke="white" stroke-width="1.5" d="M0,-3.0v7 M-2.5,-0.5L0,-3.0L2.5,-0.5"/>
  </g>
  <g id="resetDef">
    <use xlink:href="#rim2" fill="#404040"><set attributeName="fill" to="#808080" begin="reset.mouseover" end="reset.mouseout"/></use>
  </g>
</defs>
<script type="application/ecmascript">
var viewWidth = 772;
var viewHeight = 403;
var sectionId = 'dynsection-11';
</script>
<script type="application/ecmascript" xlink:href="../../svg.min.js"/>
<svg id="graph" class="graph">
<g id="viewport">
<title>mz_compress2</title>
<!-- Node1 -->
<g id="Node000001" class="node">
<title>Node1</title>
<g id="a_Node000001"><a xlink:title=" ">
<polygon fill="#999999" stroke="#666666" points="82.75,-179.25 0,-179.25 0,-160 82.75,-160 82.75,-179.25"/>
<text text-anchor="middle" x="41.38" y="-165.75" font-family="Helvetica,sans-Serif" font-size="10.00">mz_compress2</text>
</a>
</g>
</g>
<!-- Node2 -->
<g id="Node000002" class="node">
<title>Node2</title>
<g id="a_Node000002"><a xlink:href="../../d6/df6/miniz_8c.html#ab843b570ebaeb31d801a5414260edeaf" target="_top" xlink:title=" ">
<polygon fill="white" stroke="#666666" points="189.5,-223.25 125.5,-223.25 125.5,-204 189.5,-204 189.5,-223.25"/>
<text text-anchor="middle" x="157.5" y="-209.75" font-family="Helvetica,sans-Serif" font-size="10.00">mz_deflate</text>
</a>
</g>
</g>
<!-- Node1&#45;&gt;Node2 -->
<g id="edge1_Node000001_Node000002" class="edge">
<title>Node1&#45;&gt;Node2</title>
<g id="a_edge1_Node000001_Node000002"><a xlink:title=" ">
<path fill="none" stroke="#63b8ff" d="M68.56,-179.72C83.93,-185.64 103.57,-193.22 120.39,-199.7"/>
<polygon fill="#63b8ff" stroke="#63b8ff" points="118.85,-203.25 129.44,-203.58 121.37,-196.71 118.85,-203.25"/>
</a>
</g>
</g>
<!-- Node21 -->
<g id="Node000021" class="node">
<title>Node21</title>
<g id="a_Node000021"><a xlink:href="../../d6/df6/miniz_8c.html#a36e2a62c4a31c1b7f8b51da8cffd7281" target="_top" xlink:title=" ">
<polygon fill="white" stroke="#666666" points="460.38,-179.25 379.12,-179.25 379.12,-160 460.38,-160 460.38,-179.25"/>
<text text-anchor="middle" x="419.75" y="-165.75" font-family="Helvetica,sans-Serif" font-size="10.00">mz_deflateEnd</text>
</a>
</g>
</g>
<!-- Node1&#45;&gt;Node21 -->
<g id="edge14_Node000001_Node000021" class="edge">
<title>Node1&#45;&gt;Node21</title>
<g id="a_edge14_Node000001_Node000021"><a xlink:title=" ">
<path fill="none" stroke="#63b8ff" d="M83.01,-169.62C152.22,-169.62 292.78,-169.62 368.21,-169.62"/>
<polygon fill="#63b8ff" stroke="#63b8ff" points="367.85,-173.13 377.85,-169.62 367.85,-166.13 367.85,-173.13"/>
</a>
</g>
</g>
<!-- Node22 -->
<g id="Node000022" class="node">
<title>Node22</title>
<g id="a_Node000022"><a xlink:href="../../d6/df6/miniz_8c.html#a69f53f93ea50410b674721408b2aff24" target="_top" xlink:title=" ">
<polygon fill="white" stroke="#666666" points="196.25,-141.25 118.75,-141.25 118.75,-122 196.25,-122 196.25,-141.25"/>
<text text-anchor="middle" x="157.5" y="-127.75" font-family="Helvetica,sans-Serif" font-size="10.00">mz_deflateInit</text>
</a>
</g>
</g>
<!-- Node1&#45;&gt;Node22 -->
<g id="edge15_Node000001_Node000022" class="edge">
<title>Node1&#45;&gt;Node22</title>
<g id="a_edge15_Node000001_Node000022"><a xlink:title=" ">
<path fill="none" stroke="#63b8ff" d="M72.66,-159.54C86.05,-155.08 101.98,-149.78 116.35,-144.99"/>
<polygon fill="#63b8ff" stroke="#63b8ff" points="117.09,-148.1 125.47,-141.62 114.88,-141.46 117.09,-148.1"/>
</a>
</g>
</g>
<!-- Node3 -->
<g id="Node000003" class="node">
<title>Node3</title>
<g id="a_Node000003"><a xlink:href="../../d6/df6/miniz_8c.html#ae9968978f7ea9f732c5ed08db988208b" target="_top" xlink:title=" ">
<polygon fill="white" stroke="#666666" points="318.75,-265.25 236,-265.25 236,-246 318.75,-246 318.75,-265.25"/>
<text text-anchor="middle" x="277.38" y="-251.75" font-family="Helvetica,sans-Serif" font-size="10.00">tdefl_compress</text>
</a>
</g>
</g>
<!-- Node2&#45;&gt;Node3 -->
<g id="edge2_Node000002_Node000003" class="edge">
<title>Node2&#45;&gt;Node3</title>
<g id="a_edge2_Node000002_Node000003"><a xlink:title=" ">
<path fill="none" stroke="#63b8ff" d="M186.73,-223.69C202.08,-229.15 221.27,-235.99 237.95,-241.94"/>
<polygon fill="#63b8ff" stroke="#63b8ff" points="236.37,-245.44 246.96,-245.5 238.72,-238.85 236.37,-245.44"/>
</a>
</g>
</g>
<!-- Node20 -->
<g id="Node000020" class="node">
<title>Node20</title>
<g id="a_Node000020"><a xlink:href="../../d6/df6/miniz_8c.html#a2ec6403111ea9afbcdc4d76cfda97110" target="_top" xlink:title=" ">
<polygon fill="white" stroke="#666666" points="322.5,-223.25 232.25,-223.25 232.25,-204 322.5,-204 322.5,-223.25"/>
<text text-anchor="middle" x="277.38" y="-209.75" font-family="Helvetica,sans-Serif" font-size="10.00">tdefl_get_adler32</text>
</a>
</g>
</g>
<!-- Node2&#45;&gt;Node20 -->
<g id="edge13_Node000002_Node000020" class="edge">
<title>Node2&#45;&gt;Node20</title>
<g id="a_edge13_Node000002_Node000020"><a xlink:title=" ">
<path fill="none" stroke="#63b8ff" d="M189.78,-213.62C199.5,-213.62 210.52,-213.62 221.35,-213.62"/>
<polygon fill="#63b8ff" stroke="#63b8ff" points="221.08,-217.13 231.08,-213.62 221.08,-210.13 221.08,-217.13"/>
</a>
</g>
</g>
<!-- Node4 -->
<g id="Node000004" class="node">
<title>Node4</title>
<g id="a_Node000004"><a xlink:href="../../d6/df6/miniz_8c.html#a094d181afc4c98dc1864f6ce7d636258" target="_top" xlink:title=" ">
<polygon fill="white" stroke="#666666" points="452.88,-340.25 386.62,-340.25 386.62,-321 452.88,-321 452.88,-340.25"/>
<text text-anchor="middle" x="419.75" y="-326.75" font-family="Helvetica,sans-Serif" font-size="10.00">mz_adler32</text>
</a>
</g>
</g>
<!-- Node3&#45;&gt;Node4 -->
<g id="edge3_Node000003_Node000004" class="edge">
<title>Node3&#45;&gt;Node4</title>
<g id="a_edge3_Node000003_Node000004"><a xlink:title=" ">
<path fill="none" stroke="#63b8ff" d="M289.81,-265.63C304.7,-278.19 331.96,-299.66 358.5,-312.62 364.09,-315.36 370.18,-317.76 376.27,-319.86"/>
<polygon fill="#63b8ff" stroke="#63b8ff" points="374.84,-323.39 385.43,-323.08 376.96,-316.72 374.84,-323.39"/>
</a>
</g>
</g>
<!-- Node5 -->
<g id="Node000005" class="node">
<title>Node5</title>
<g id="a_Node000005"><a xlink:href="../../d6/df6/miniz_8c.html#a693b5cf938e6f7d2fc439f8ab65ea466" target="_top" xlink:title=" ">
<polygon fill="white" stroke="#666666" points="478.38,-303.25 361.12,-303.25 361.12,-284 478.38,-284 478.38,-303.25"/>
<text text-anchor="middle" x="419.75" y="-289.75" font-family="Helvetica,sans-Serif" font-size="10.00">tdefl_compress_normal</text>
</a>
</g>
</g>
<!-- Node3&#45;&gt;Node5 -->
<g id="edge4_Node000003_Node000005" class="edge">
<title>Node3&#45;&gt;Node5</title>
<g id="a_edge4_Node000003_Node000005"><a xlink:title=" ">
<path fill="none" stroke="#63b8ff" d="M315.62,-265.71C332.73,-270.34 353.22,-275.89 371.41,-280.81"/>
<polygon fill="#63b8ff" stroke="#63b8ff" points="370.25,-284.39 380.81,-283.63 372.08,-277.63 370.25,-284.39"/>
</a>
</g>
</g>
<!-- Node8 -->
<g id="Node000008" class="node">
<title>Node8</title>
<g id="a_Node000008"><a xlink:href="../../d6/df6/miniz_8c.html#a1adafac587d2839277822cea5bdc224d" target="_top" xlink:title=" ">
<polygon fill="white" stroke="#666666" points="611.38,-247.25 521.88,-247.25 521.88,-228 611.38,-228 611.38,-247.25"/>
<text text-anchor="middle" x="566.62" y="-233.75" font-family="Helvetica,sans-Serif" font-size="10.00">tdefl_flush_block</text>
</a>
</g>
</g>
<!-- Node3&#45;&gt;Node8 -->
<g id="edge11_Node000003_Node000008" class="edge">
<title>Node3&#45;&gt;Node8</title>
<g id="a_edge11_Node000003_Node000008"><a xlink:title=" ">
<path fill="none" stroke="#63b8ff" d="M319.23,-253.07C369.47,-249.92 454.95,-244.56 510.85,-241.06"/>
<polygon fill="#63b8ff" stroke="#63b8ff" points="510.86,-244.5 520.62,-240.38 510.42,-237.51 510.86,-244.5"/>
</a>
</g>
</g>
<!-- Node19 -->
<g id="Node000019" class="node">
<title>Node19</title>
<g id="a_Node000019"><a xlink:href="../../d6/df6/miniz_8c.html#af80414324052552afda66f992ee246e9" target="_top" xlink:title=" ">
<polygon fill="white" stroke="#666666" points="466.38,-227.88 373.12,-227.88 373.12,-197.38 466.38,-197.38 466.38,-227.88"/>
<text text-anchor="start" x="381.12" y="-214.38" font-family="Helvetica,sans-Serif" font-size="10.00">tdefl_flush_output</text>
<text text-anchor="middle" x="419.75" y="-203.12" font-family="Helvetica,sans-Serif" font-size="10.00">_buffer</text>
</a>
</g>
</g>
<!-- Node3&#45;&gt;Node19 -->
<g id="edge12_Node000003_Node000019" class="edge">
<title>Node3&#45;&gt;Node19</title>
<g id="a_edge12_Node000003_Node000019"><a xlink:title=" ">
<path fill="none" stroke="#63b8ff" d="M311.29,-245.54C326.6,-240.85 345.24,-235.14 362.67,-229.8"/>
<polygon fill="#63b8ff" stroke="#63b8ff" points="363.22,-232.99 371.76,-226.71 361.17,-226.3 363.22,-232.99"/>
</a>
</g>
</g>
<!-- Node6 -->
<g id="Node000006" class="node">
<title>Node6</title>
<g id="a_Node000006"><a xlink:href="../../d7/d43/xmlparse_8c.html#ac90fb1922dfd1451b559829cbefd4c7b" target="_top" xlink:title=" ">
<polygon fill="white" stroke="#666666" points="585.12,-395.25 548.12,-395.25 548.12,-376 585.12,-376 585.12,-395.25"/>
<text text-anchor="middle" x="566.62" y="-381.75" font-family="Helvetica,sans-Serif" font-size="10.00">hash</text>
</a>
</g>
</g>
<!-- Node5&#45;&gt;Node6 -->
<g id="edge5_Node000005_Node000006" class="edge">
<title>Node5&#45;&gt;Node6</title>
<g id="a_edge5_Node000005_Node000006"><a xlink:title=" ">
<path fill="none" stroke="#63b8ff" d="M467.15,-303.73C472.08,-305.87 476.81,-308.48 481,-311.62 504.65,-329.41 493.94,-349.09 517,-367.62 523.03,-372.47 530.5,-376.1 537.76,-378.77"/>
<polygon fill="#63b8ff" stroke="#63b8ff" points="536.46,-382.35 547.05,-382.04 538.58,-375.68 536.46,-382.35"/>
</a>
</g>
</g>
<!-- Node7 -->
<g id="Node000007" class="node">
<title>Node7</title>
<g id="a_Node000007"><a xlink:href="../../d6/df6/miniz_8c.html#a72ea4abdadc19539c9275883bbb5aeda" target="_top" xlink:title=" ">
<polygon fill="white" stroke="#666666" points="610.62,-358.25 522.62,-358.25 522.62,-339 610.62,-339 610.62,-358.25"/>
<text text-anchor="middle" x="566.62" y="-344.75" font-family="Helvetica,sans-Serif" font-size="10.00">tdefl_find_match</text>
</a>
</g>
</g>
<!-- Node5&#45;&gt;Node7 -->
<g id="edge6_Node000005_Node000007" class="edge">
<title>Node5&#45;&gt;Node7</title>
<g id="a_edge6_Node000005_Node000007"><a xlink:title=" ">
<path fill="none" stroke="#63b8ff" d="M458.75,-303.75C466.22,-306.08 473.93,-308.73 481,-311.62 497.75,-318.47 500.48,-323.25 517,-330.62 520.03,-331.98 523.19,-333.31 526.38,-334.61"/>
<polygon fill="#63b8ff" stroke="#63b8ff" points="524.99,-338.21 535.58,-338.58 527.53,-331.69 524.99,-338.21"/>
</a>
</g>
</g>
<!-- Node5&#45;&gt;Node8 -->
<g id="edge7_Node000005_Node000008" class="edge">
<title>Node5&#45;&gt;Node8</title>
<g id="a_edge7_Node000005_Node000008"><a xlink:title=" ">
<path fill="none" stroke="#63b8ff" d="M445.99,-283.59C469.76,-274.15 503.66,-260.73 517,-255.62 520.51,-254.28 524.17,-252.9 527.84,-251.52"/>
<polygon fill="#63b8ff" stroke="#63b8ff" points="528.92,-254.48 537.07,-247.71 526.48,-247.92 528.92,-254.48"/>
</a>
</g>
</g>
<!-- Node17 -->
<g id="Node000017" class="node">
<title>Node17</title>
<g id="a_Node000017"><a xlink:href="../../d6/df6/miniz_8c.html#aa1d7593a37246e096639528e5fe7c1c0" target="_top" xlink:title=" ">
<polygon fill="white" stroke="#666666" points="614.38,-321.25 518.88,-321.25 518.88,-302 614.38,-302 614.38,-321.25"/>
<text text-anchor="middle" x="566.62" y="-307.75" font-family="Helvetica,sans-Serif" font-size="10.00">tdefl_record_literal</text>
</a>
</g>
</g>
<!-- Node5&#45;&gt;Node17 -->
<g id="edge9_Node000005_Node000017" class="edge">
<title>Node5&#45;&gt;Node17</title>
<g id="a_edge9_Node000005_Node000017"><a xlink:title=" ">
<path fill="none" stroke="#63b8ff" d="M478.84,-300.84C488.45,-302.04 498.41,-303.27 508.01,-304.47"/>
<polygon fill="#63b8ff" stroke="#63b8ff" points="507.3,-308.03 517.65,-305.79 508.16,-301.08 507.3,-308.03"/>
</a>
</g>
</g>
<!-- Node18 -->
<g id="Node000018" class="node">
<title>Node18</title>
<g id="a_Node000018"><a xlink:href="../../d6/df6/miniz_8c.html#ad67ea1952b814c7b86267773ebf8da84" target="_top" xlink:title=" ">
<polygon fill="white" stroke="#666666" points="616.25,-284.25 517,-284.25 517,-265 616.25,-265 616.25,-284.25"/>
<text text-anchor="middle" x="566.62" y="-270.75" font-family="Helvetica,sans-Serif" font-size="10.00">tdefl_record_match</text>
</a>
</g>
</g>
<!-- Node5&#45;&gt;Node18 -->
<g id="edge10_Node000005_Node000018" class="edge">
<title>Node5&#45;&gt;Node18</title>
<g id="a_edge10_Node000005_Node000018"><a xlink:title=" ">
<path fill="none" stroke="#63b8ff" d="M478.84,-286.01C487.8,-284.83 497.06,-283.62 506.04,-282.44"/>
<polygon fill="#63b8ff" stroke="#63b8ff" points="506.37,-285.8 515.83,-281.02 505.46,-278.85 506.37,-285.8"/>
</a>
</g>
</g>
<!-- Node9 -->
<g id="Node000009" class="node">
<title>Node9</title>
<g id="a_Node000009"><a xlink:href="../../d6/df6/miniz_8c.html#ad390ee6c264106529198b6c5b6c6d96b" target="_top" xlink:title=" ">
<polygon fill="#fff0f0" stroke="red" points="763.5,-247.25 652.25,-247.25 652.25,-228 763.5,-228 763.5,-247.25"/>
<text text-anchor="middle" x="707.88" y="-233.75" font-family="Helvetica,sans-Serif" font-size="10.00">tdefl_compress_block</text>
</a>
</g>
</g>
<!-- Node8&#45;&gt;Node9 -->
<g id="edge8_Node000008_Node000009" class="edge">
<title>Node8&#45;&gt;Node9</title>
<g id="a_edge8_Node000008_Node000009"><a xlink:title=" ">
<path fill="none" stroke="#63b8ff" d="M611.68,-237.62C621.05,-237.62 631.13,-237.62 641.1,-237.62"/>
<polygon fill="#63b8ff" stroke="#63b8ff" points="640.84,-241.13 650.84,-237.62 640.84,-234.13 640.84,-241.13"/>
</a>
</g>
</g>
<!-- Node23 -->
<g id="Node000023" class="node">
<title>Node23</title>
<g id="a_Node000023"><a xlink:href="../../d6/df6/miniz_8c.html#a66d75d30383d1b7af379b7d19db3aba0" target="_top" xlink:title=" ">
<polygon fill="white" stroke="#666666" points="318.75,-123.25 236,-123.25 236,-104 318.75,-104 318.75,-123.25"/>
<text text-anchor="middle" x="277.38" y="-109.75" font-family="Helvetica,sans-Serif" font-size="10.00">mz_deflateInit2</text>
</a>
</g>
</g>
<!-- Node22&#45;&gt;Node23 -->
<g id="edge16_Node000022_Node000023" class="edge">
<title>Node22&#45;&gt;Node23</title>
<g id="a_edge16_Node000022_Node000023"><a xlink:title=" ">
<path fill="none" stroke="#63b8ff" d="M196.45,-125.83C205.54,-124.44 215.4,-122.94 224.99,-121.47"/>
<polygon fill="#63b8ff" stroke="#63b8ff" points="225.29,-124.81 234.65,-119.84 224.24,-117.89 225.29,-124.81"/>
</a>
</g>
</g>
<!-- Node23&#45;&gt;Node21 -->
<g id="edge21_Node000023_Node000021" class="edge">
<title>Node23&#45;&gt;Node21</title>
<g id="a_edge21_Node000023_Node000021"><a xlink:title=" ">
<path fill="none" stroke="#63b8ff" d="M297.44,-123.68C313.45,-131.88 337.08,-143.4 358.5,-151.62 362.68,-153.23 367.08,-154.79 371.5,-156.26"/>
<polygon fill="#63b8ff" stroke="#63b8ff" points="370.22,-159.85 380.81,-159.56 372.35,-153.18 370.22,-159.85"/>
</a>
</g>
</g>
<!-- Node24 -->
<g id="Node000024" class="node">
<title>Node24</title>
<g id="a_Node000024"><a xlink:href="../../d6/df6/miniz_8c.html#a49e28f67d212aedaa27506ca02639304" target="_top" xlink:title=" ">
<polygon fill="white" stroke="#666666" points="473.5,-142.25 366,-142.25 366,-123 473.5,-123 473.5,-142.25"/>
<text text-anchor="middle" x="419.75" y="-128.75" font-family="Helvetica,sans-Serif" font-size="10.00">miniz_def_alloc_func</text>
</a>
</g>
</g>
<!-- Node23&#45;&gt;Node24 -->
<g id="edge17_Node000023_Node000024" class="edge">
<title>Node23&#45;&gt;Node24</title>
<g id="a_edge17_Node000023_Node000024"><a xlink:title=" ">
<path fill="none" stroke="#63b8ff" d="M318.98,-119.12C330.25,-120.65 342.77,-122.34 355.02,-124"/>
<polygon fill="#63b8ff" stroke="#63b8ff" points="354.31,-127.57 364.69,-125.44 355.25,-120.63 354.31,-127.57"/>
</a>
</g>
</g>
<!-- Node26 -->
<g id="Node000026" class="node">
<title>Node26</title>
<g id="a_Node000026"><a xlink:href="../../d6/df6/miniz_8c.html#a74bd5c1f3f342d2109643cfa500689fc" target="_top" xlink:title=" ">
<polygon fill="white" stroke="#666666" points="471.62,-105.25 367.88,-105.25 367.88,-86 471.62,-86 471.62,-105.25"/>
<text text-anchor="middle" x="419.75" y="-91.75" font-family="Helvetica,sans-Serif" font-size="10.00">miniz_def_free_func</text>
</a>
</g>
</g>
<!-- Node23&#45;&gt;Node26 -->
<g id="edge19_Node000023_Node000026" class="edge">
<title>Node23&#45;&gt;Node26</title>
<g id="a_edge19_Node000023_Node000026"><a xlink:title=" ">
<path fill="none" stroke="#63b8ff" d="M318.98,-108.42C330.81,-106.9 344.01,-105.21 356.84,-103.56"/>
<polygon fill="#63b8ff" stroke="#63b8ff" points="357.01,-106.94 366.49,-102.2 356.12,-100 357.01,-106.94"/>
</a>
</g>
</g>
<!-- Node27 -->
<g id="Node000027" class="node">
<title>Node27</title>
<g id="a_Node000027"><a xlink:href="../../d6/df6/miniz_8c.html#acf2306ec6b7f92753264f68bc554750b" target="_top" xlink:title=" ">
<polygon fill="white" stroke="#666666" points="481,-67.88 358.5,-67.88 358.5,-37.38 481,-37.38 481,-67.88"/>
<text text-anchor="start" x="366.5" y="-54.38" font-family="Helvetica,sans-Serif" font-size="10.00">tdefl_create_comp_flags</text>
<text text-anchor="middle" x="419.75" y="-43.12" font-family="Helvetica,sans-Serif" font-size="10.00">_from_zip_params</text>
</a>
</g>
</g>
<!-- Node23&#45;&gt;Node27 -->
<g id="edge22_Node000023_Node000027" class="edge">
<title>Node23&#45;&gt;Node27</title>
<g id="a_edge22_Node000023_Node000027"><a xlink:title=" ">
<path fill="none" stroke="#63b8ff" d="M299.32,-103.58C315.41,-95.95 338.23,-85.34 358.5,-76.62 361.71,-75.25 365.02,-73.85 368.37,-72.46"/>
<polygon fill="#63b8ff" stroke="#63b8ff" points="369.51,-75.36 377.44,-68.34 366.86,-68.89 369.51,-75.36"/>
</a>
</g>
</g>
<!-- Node28 -->
<g id="Node000028" class="node">
<title>Node28</title>
<g id="a_Node000028"><a xlink:href="../../d6/df6/miniz_8c.html#a3c2c67a6200147020ba4bfbf77962792" target="_top" xlink:title=" ">
<polygon fill="white" stroke="#666666" points="446.12,-19.25 393.38,-19.25 393.38,0 446.12,0 446.12,-19.25"/>
<text text-anchor="middle" x="419.75" y="-5.75" font-family="Helvetica,sans-Serif" font-size="10.00">tdefl_init</text>
</a>
</g>
</g>
<!-- Node23&#45;&gt;Node28 -->
<g id="edge23_Node000023_Node000028" class="edge">
<title>Node23&#45;&gt;Node28</title>
<g id="a_edge23_Node000023_Node000028"><a xlink:title=" ">
<path fill="none" stroke="#63b8ff" d="M285.1,-103.67C297.53,-86 325.86,-49.1 358.5,-28.62 365.74,-24.09 374.14,-20.55 382.34,-17.83"/>
<polygon fill="#63b8ff" stroke="#63b8ff" points="383.29,-20.9 391.88,-14.7 381.3,-14.19 383.29,-20.9"/>
</a>
</g>
</g>
<!-- Node25 -->
<g id="Node000025" class="node">
<title>Node25</title>
<g id="a_Node000025"><a xlink:href="../../d6/d95/glu-libtess_8h.html#a4292190e3f1f6b373a760c7d9316ad3c" target="_top" xlink:title=" ">
<polygon fill="white" stroke="#666666" points="583.62,-124.25 549.62,-124.25 549.62,-105 583.62,-105 583.62,-124.25"/>
<text text-anchor="middle" x="566.62" y="-110.75" font-family="Helvetica,sans-Serif" font-size="10.00">void</text>
</a>
</g>
</g>
<!-- Node24&#45;&gt;Node25 -->
<g id="edge18_Node000024_Node000025" class="edge">
<title>Node24&#45;&gt;Node25</title>
<g id="a_edge18_Node000024_Node000025"><a xlink:title=" ">
<path fill="none" stroke="#63b8ff" d="M473.87,-126.02C495.84,-123.3 520.36,-120.25 538.52,-117.99"/>
<polygon fill="#63b8ff" stroke="#63b8ff" points="538.7,-121.37 548.19,-116.67 537.83,-114.43 538.7,-121.37"/>
</a>
</g>
</g>
<!-- Node26&#45;&gt;Node25 -->
<g id="edge20_Node000026_Node000025" class="edge">
<title>Node26&#45;&gt;Node25</title>
<g id="a_edge20_Node000026_Node000025"><a xlink:title=" ">
<path fill="none" stroke="#63b8ff" d="M471.83,-102.32C494.36,-105.28 519.92,-108.63 538.66,-111.09"/>
<polygon fill="#63b8ff" stroke="#63b8ff" points="537.99,-114.66 548.36,-112.49 538.9,-107.72 537.99,-114.66"/>
</a>
</g>
</g>
</g>
</svg>

<g id="navigator" transform="translate(0 0)" fill="#404254">
  <rect fill="#f2f5e9" fill-opacity="0.5" stroke="#606060" stroke-width=".5" x="0" y="0" width="60" height="60"/>
  <use id="zoomplus" xlink:href="#zoomPlus" x="17" y="9" onmousedown="handleZoom(evt,'in')"/>
  <use id="zoomminus" xlink:href="#zoomMin" x="42" y="9" onmousedown="handleZoom(evt,'out')"/>
  <use id="reset" xlink:href="#resetDef" x="30" y="36" onmousedown="handleReset()"/>
   <use id="arrowup" xlink:href="#arrowUp" x="0" y="0" onmousedown="handlePan(0,-1)"/>
  <use id="arrowright" xlink:href="#arrowRight" x="0" y="0" onmousedown="handlePan(1,0)"/>
  <use id="arrowdown" xlink:href="#arrowDown" x="0" y="0" onmousedown="handlePan(0,1)"/>
  <use id="arrowleft" xlink:href="#arrowLeft" x="0" y="0" onmousedown="handlePan(-1,0)"/>
</g>
<svg viewBox="0 0 15 15" width="100%" height="30px" preserveAspectRatio="xMaxYMin meet">
 <g id="arrow_out" transform="scale(0.3 0.3)">
  <a xlink:href="miniz_8c_a7a7b50a0d965d229ce14f3afa5981edd_cgraph_org.svg" target="_base">
   <rect id="button" ry="5" rx="5" y="6" x="6" height="38" width="38"
        fill="#f2f5e9" fill-opacity="0.5" stroke="#606060" stroke-width="1.0"/>
   <path id="arrow"
     d="M 11.500037,31.436501 C 11.940474,20.09759 22.043105,11.32322 32.158766,21.979434 L 37.068811,17.246167 C 37.068811,17.246167 37.088388,32 37.088388,32 L 22.160133,31.978069 C 22.160133,31.978069 26.997745,27.140456 26.997745,27.140456 C 18.528582,18.264221 13.291696,25.230495 11.500037,31.436501 z"
     style="fill:#404040;"/>
  </a>
 </g>
</svg>

<style type='text/css'>
<![CDATA[
[data-mouse-over-selected='false'] { opacity: 0.7; }
[data-mouse-over-selected='true']  { opacity: 1.0; }
]]>
</style>
<script type="application/ecmascript"><![CDATA[
document.addEventListener('DOMContentLoaded', (event) => {
  highlightEdges();
  highlightAdjacentNodes();
});
]]></script>
</svg>
