<?xml version="1.0" encoding="UTF-8" standalone="no"?>
<!DOCTYPE svg PUBLIC "-//W3C//DTD SVG 1.1//EN"
 "http://www.w3.org/Graphics/SVG/1.1/DTD/svg11.dtd">
<!-- Generated by graphviz version 8.1.0 (20230707.0739)
 -->
<!-- Title: mz_zip_writer_add_file Pages: 1 -->
<!--zoomable 643 -->

<svg id="main" version="1.1" xmlns="http://www.w3.org/2000/svg" xmlns:xlink="http://www.w3.org/1999/xlink" xml:space="preserve" onload="init(evt)">
<style type="text/css"><![CDATA[
.node, .edge {opacity: 0.7;}
.node.selected, .edge.selected {opacity: 1;}
.edge:hover path { stroke: red; }
.edge:hover polygon { stroke: red; fill: red; }
]]></style>

<defs>
  <circle id="rim" cx="0" cy="0" r="7"/>
  <circle id="rim2" cx="0" cy="0" r="3.5"/>
  <g id="zoomPlus">
    <use xlink:href="#rim" fill="#404040"><set attributeName="fill" to="#808080" begin="zoomplus.mouseover" end="zoomplus.mouseout"/></use>
    <path d="M-4,0h8M0,-4v8" fill="none" stroke="white" stroke-width="1.5" pointer-events="none"/>
  </g>
  <g id="zoomMin">
    <use xlink:href="#rim" fill="#404040"><set attributeName="fill" to="#808080" begin="zoomminus.mouseover" end="zoomminus.mouseout"/></use>
    <path d="M-4,0h8" fill="none" stroke="white" stroke-width="1.5" pointer-events="none"/>
  </g>
  <g id="arrowUp" transform="translate(30 24)">
    <use xlink:href="#rim"/>
    <path pointer-events="none" fill="none" stroke="white" stroke-width="1.5" d="M0,-3.0v7 M-2.5,-0.5L0,-3.0L2.5,-0.5"/>
  </g>
  <g id="arrowRight" transform="rotate(90) translate(36 -43)">
    <use xlink:href="#rim"/>
    <path pointer-events="none" fill="none" stroke="white" stroke-width="1.5" d="M0,-3.0v7 M-2.5,-0.5L0,-3.0L2.5,-0.5"/>
  </g>
  <g id="arrowDown" transform="rotate(180) translate(-30 -48)">
    <use xlink:href="#rim"/>
    <path pointer-events="none" fill="none" stroke="white" stroke-width="1.5" d="M0,-3.0v7 M-2.5,-0.5L0,-3.0L2.5,-0.5"/>
  </g>
  <g id="arrowLeft" transform="rotate(270) translate(-36 17)">
    <use xlink:href="#rim"/>
    <path pointer-events="none" fill="none" stroke="white" stroke-width="1.5" d="M0,-3.0v7 M-2.5,-0.5L0,-3.0L2.5,-0.5"/>
  </g>
  <g id="resetDef">
    <use xlink:href="#rim2" fill="#404040"><set attributeName="fill" to="#808080" begin="reset.mouseover" end="reset.mouseout"/></use>
  </g>
</defs>
<script type="application/ecmascript">
var viewWidth = 1115;
var viewHeight = 643;
var sectionId = 'dynsection-156';
</script>
<script type="application/ecmascript" xlink:href="../../svg.min.js"/>
<svg id="graph" class="graph">
<g id="viewport">
<title>mz_zip_writer_add_file</title>
<!-- Node1 -->
<g id="Node000001" class="node">
<title>Node1</title>
<g id="a_Node000001"><a xlink:title=" ">
<polygon fill="#999999" stroke="#666666" points="115.75,-596.88 0,-596.88 0,-577.62 115.75,-577.62 115.75,-596.88"/>
<text text-anchor="middle" x="57.88" y="-583.38" font-family="Helvetica,sans-Serif" font-size="10.00">mz_zip_writer_add_file</text>
</a>
</g>
</g>
<!-- Node2 -->
<g id="Node000002" class="node">
<title>Node2</title>
<g id="a_Node000002"><a xlink:href="../../d6/df6/miniz_8c.html#ab764134ead31d9a913813b451de1de64" target="_top" xlink:title=" ">
<polygon fill="white" stroke="#666666" points="283.25,-596.88 151.75,-596.88 151.75,-577.62 283.25,-577.62 283.25,-596.88"/>
<text text-anchor="middle" x="217.5" y="-583.38" font-family="Helvetica,sans-Serif" font-size="10.00">mz_zip_writer_add_file_ex</text>
</a>
</g>
</g>
<!-- Node1&#45;&gt;Node2 -->
<g id="edge1_Node000001_Node000002" class="edge">
<title>Node1&#45;&gt;Node2</title>
<g id="a_edge1_Node000001_Node000002"><a xlink:title=" ">
<path fill="none" stroke="#63b8ff" d="M116.23,-587.25C124.18,-587.25 132.46,-587.25 140.69,-587.25"/>
<polygon fill="#63b8ff" stroke="#63b8ff" points="140.45,-590.75 150.45,-587.25 140.45,-583.75 140.45,-590.75"/>
</a>
</g>
</g>
<!-- Node3 -->
<g id="Node000003" class="node">
<title>Node3</title>
<g id="a_Node000003"><a xlink:href="../../d6/df6/miniz_8c.html#a43fb717be3e3b6afcd27587df7669a07" target="_top" xlink:title=" ">
<polygon fill="white" stroke="#666666" points="469.5,-634.88 319.25,-634.88 319.25,-615.62 469.5,-615.62 469.5,-634.88"/>
<text text-anchor="middle" x="394.38" y="-621.38" font-family="Helvetica,sans-Serif" font-size="10.00">mz_zip_get_file_modified_time</text>
</a>
</g>
</g>
<!-- Node2&#45;&gt;Node3 -->
<g id="edge2_Node000002_Node000003" class="edge">
<title>Node2&#45;&gt;Node3</title>
<g id="a_edge2_Node000002_Node000003"><a xlink:title=" ">
<path fill="none" stroke="#63b8ff" d="M264.9,-597.33C286.83,-602.1 313.21,-607.83 336.34,-612.86"/>
<polygon fill="#63b8ff" stroke="#63b8ff" points="335.54,-616.48 346.06,-615.19 337.03,-609.64 335.54,-616.48"/>
</a>
</g>
</g>
<!-- Node4 -->
<g id="Node000004" class="node">
<title>Node4</title>
<g id="a_Node000004"><a xlink:href="../../d6/df6/miniz_8c.html#a990e748a280a6903cbc02307320848c5" target="_top" xlink:title=" ">
<polygon fill="white" stroke="#666666" points="946.5,-517.88 855.5,-517.88 855.5,-498.62 946.5,-498.62 946.5,-517.88"/>
<text text-anchor="middle" x="901" y="-504.38" font-family="Helvetica,sans-Serif" font-size="10.00">mz_zip_set_error</text>
</a>
</g>
</g>
<!-- Node2&#45;&gt;Node4 -->
<g id="edge3_Node000002_Node000004" class="edge">
<title>Node2&#45;&gt;Node4</title>
<g id="a_edge3_Node000002_Node000004"><a xlink:title=" ">
<path fill="none" stroke="#63b8ff" d="M283.54,-591.48C392.53,-596.84 618.16,-600.43 801.5,-554.25 827.41,-547.72 854.78,-534.35 874.08,-523.7"/>
<polygon fill="#63b8ff" stroke="#63b8ff" points="875.67,-526.25 882.64,-518.27 872.22,-520.16 875.67,-526.25"/>
</a>
</g>
</g>
<!-- Node5 -->
<g id="Node000005" class="node">
<title>Node5</title>
<g id="a_Node000005"><a xlink:href="../../d6/df6/miniz_8c.html#aad5c354359b5b9cb7f82912431317438" target="_top" xlink:title=" ">
<polygon fill="white" stroke="#666666" points="454.88,-327.88 333.88,-327.88 333.88,-308.62 454.88,-308.62 454.88,-327.88"/>
<text text-anchor="middle" x="394.38" y="-314.38" font-family="Helvetica,sans-Serif" font-size="10.00">mz_zip_writer_add_cfile</text>
</a>
</g>
</g>
<!-- Node2&#45;&gt;Node5 -->
<g id="edge4_Node000002_Node000005" class="edge">
<title>Node2&#45;&gt;Node5</title>
<g id="a_edge4_Node000002_Node000005"><a xlink:title=" ">
<path fill="none" stroke="#63b8ff" d="M224.93,-577.36C250.69,-537.73 346.69,-390.07 381.05,-337.22"/>
<polygon fill="#63b8ff" stroke="#63b8ff" points="384.37,-339.52 386.89,-329.23 378.5,-335.71 384.37,-339.52"/>
</a>
</g>
</g>
<!-- Node6 -->
<g id="Node000006" class="node">
<title>Node6</title>
<g id="a_Node000006"><a xlink:href="../../d6/df6/miniz_8c.html#afeb8660d68f1a11785d903fee66c0bf5" target="_top" xlink:title=" ">
<polygon fill="white" stroke="#666666" points="627.25,-284.88 505.5,-284.88 505.5,-265.62 627.25,-265.62 627.25,-284.88"/>
<text text-anchor="middle" x="566.38" y="-271.38" font-family="Helvetica,sans-Serif" font-size="10.00">mz_file_read_func_stdio</text>
</a>
</g>
</g>
<!-- Node5&#45;&gt;Node6 -->
<g id="edge5_Node000005_Node000006" class="edge">
<title>Node5&#45;&gt;Node6</title>
<g id="a_edge5_Node000005_Node000006"><a xlink:title=" ">
<path fill="none" stroke="#63b8ff" d="M435.23,-308.17C459.02,-302.15 489.45,-294.45 514.9,-288.02"/>
<polygon fill="#63b8ff" stroke="#63b8ff" points="515.64,-291.19 524.47,-285.34 513.92,-284.4 515.64,-291.19"/>
</a>
</g>
</g>
<!-- Node7 -->
<g id="Node000007" class="node">
<title>Node7</title>
<g id="a_Node000007"><a xlink:href="../../d6/df6/miniz_8c.html#a143d809bf39913d998205400932cf92e" target="_top" xlink:title=" ">
<polygon fill="white" stroke="#666666" points="627.25,-333.5 505.5,-333.5 505.5,-303 627.25,-303 627.25,-333.5"/>
<text text-anchor="start" x="513.5" y="-320" font-family="Helvetica,sans-Serif" font-size="10.00">mz_zip_writer_add_read</text>
<text text-anchor="middle" x="566.38" y="-308.75" font-family="Helvetica,sans-Serif" font-size="10.00">_buf_callback</text>
</a>
</g>
</g>
<!-- Node5&#45;&gt;Node7 -->
<g id="edge6_Node000005_Node000007" class="edge">
<title>Node5&#45;&gt;Node7</title>
<g id="a_edge6_Node000005_Node000007"><a xlink:title=" ">
<path fill="none" stroke="#63b8ff" d="M455.31,-318.25C467.93,-318.25 481.36,-318.25 494.35,-318.25"/>
<polygon fill="#63b8ff" stroke="#63b8ff" points="494.12,-321.75 504.12,-318.25 494.12,-314.75 494.12,-321.75"/>
</a>
</g>
</g>
<!-- Node7&#45;&gt;Node4 -->
<g id="edge8_Node000007_Node000004" class="edge">
<title>Node7&#45;&gt;Node4</title>
<g id="a_edge8_Node000007_Node000004"><a xlink:title=" ">
<path fill="none" stroke="#63b8ff" d="M568.88,-333.89C573.76,-374.82 593.16,-485.02 663.25,-530.25 726.91,-571.33 820.98,-542.2 869.13,-522.42"/>
<polygon fill="#63b8ff" stroke="#63b8ff" points="870.12,-525.37 877.96,-518.24 867.39,-518.93 870.12,-525.37"/>
</a>
</g>
</g>
<!-- Node8 -->
<g id="Node000008" class="node">
<title>Node8</title>
<g id="a_Node000008"><a xlink:href="../../d6/df6/miniz_8c.html#a8b7cb38252f297265f6b850ab4ae0f01" target="_top" xlink:title=" ">
<polygon fill="white" stroke="#666666" points="761.75,-434.88 703,-434.88 703,-415.62 761.75,-415.62 761.75,-434.88"/>
<text text-anchor="middle" x="732.38" y="-421.38" font-family="Helvetica,sans-Serif" font-size="10.00">mz_crc32</text>
</a>
</g>
</g>
<!-- Node7&#45;&gt;Node8 -->
<g id="edge7_Node000007_Node000008" class="edge">
<title>Node7&#45;&gt;Node8</title>
<g id="a_edge7_Node000007_Node000008"><a xlink:title=" ">
<path fill="none" stroke="#63b8ff" d="M579.93,-333.93C596.78,-353.92 628.63,-388.19 663.25,-407.25 672.14,-412.15 682.43,-415.76 692.27,-418.41"/>
<polygon fill="#63b8ff" stroke="#63b8ff" points="691.15,-421.98 701.69,-420.92 692.79,-415.17 691.15,-421.98"/>
</a>
</g>
</g>
<!-- Node9 -->
<g id="Node000009" class="node">
<title>Node9</title>
<g id="a_Node000009"><a xlink:href="../../d6/df6/miniz_8c.html#a81014d6382ef61c51ea369d3ba09d420" target="_top" xlink:title=" ">
<polygon fill="white" stroke="#666666" points="801.5,-397.88 663.25,-397.88 663.25,-378.62 801.5,-378.62 801.5,-397.88"/>
<text text-anchor="middle" x="732.38" y="-384.38" font-family="Helvetica,sans-Serif" font-size="10.00">mz_zip_time_t_to_dos_time</text>
</a>
</g>
</g>
<!-- Node7&#45;&gt;Node9 -->
<g id="edge9_Node000007_Node000009" class="edge">
<title>Node7&#45;&gt;Node9</title>
<g id="a_edge9_Node000007_Node000009"><a xlink:title=" ">
<path fill="none" stroke="#63b8ff" d="M593.09,-333.9C611.99,-344.91 638.57,-359.38 663.25,-369.25 668.39,-371.31 673.83,-373.23 679.31,-375"/>
<polygon fill="#63b8ff" stroke="#63b8ff" points="678.24,-378.63 688.83,-378.21 680.29,-371.94 678.24,-378.63"/>
</a>
</g>
</g>
<!-- Node10 -->
<g id="Node000010" class="node">
<title>Node10</title>
<g id="a_Node000010"><a xlink:href="../../d6/df6/miniz_8c.html#a97588a80c7490308f27a91cb40a355a8" target="_top" xlink:title=" ">
<polygon fill="white" stroke="#666666" points="790.62,-360.5 674.12,-360.5 674.12,-330 790.62,-330 790.62,-360.5"/>
<text text-anchor="start" x="682.12" y="-347" font-family="Helvetica,sans-Serif" font-size="10.00">mz_zip_writer_add_put</text>
<text text-anchor="middle" x="732.38" y="-335.75" font-family="Helvetica,sans-Serif" font-size="10.00">_buf_callback</text>
</a>
</g>
</g>
<!-- Node7&#45;&gt;Node10 -->
<g id="edge10_Node000007_Node000010" class="edge">
<title>Node7&#45;&gt;Node10</title>
<g id="a_edge10_Node000007_Node000010"><a xlink:title=" ">
<path fill="none" stroke="#63b8ff" d="M627.51,-328.15C639.06,-330.05 651.23,-332.06 663.02,-334"/>
<polygon fill="#63b8ff" stroke="#63b8ff" points="662.27,-337.58 672.7,-335.76 663.41,-330.68 662.27,-337.58"/>
</a>
</g>
</g>
<!-- Node11 -->
<g id="Node000011" class="node">
<title>Node11</title>
<g id="a_Node000011"><a xlink:href="../../d6/df6/miniz_8c.html#a0a0f9c1d13431f247f29c0585fad94a6" target="_top" xlink:title=" ">
<polygon fill="white" stroke="#666666" points="788,-252.5 676.75,-252.5 676.75,-222 788,-222 788,-252.5"/>
<text text-anchor="start" x="684.75" y="-239" font-family="Helvetica,sans-Serif" font-size="10.00">mz_zip_writer_add_to</text>
<text text-anchor="middle" x="732.38" y="-227.75" font-family="Helvetica,sans-Serif" font-size="10.00">_central_dir</text>
</a>
</g>
</g>
<!-- Node7&#45;&gt;Node11 -->
<g id="edge11_Node000007_Node000011" class="edge">
<title>Node7&#45;&gt;Node11</title>
<g id="a_edge11_Node000007_Node000011"><a xlink:title=" ">
<path fill="none" stroke="#63b8ff" d="M611.77,-302.58C617.13,-300.07 622.42,-297.29 627.25,-294.25 645.62,-282.69 644.64,-272.42 663.25,-261.25 665.43,-259.94 667.69,-258.69 670,-257.5"/>
<polygon fill="#63b8ff" stroke="#63b8ff" points="671.2,-260.33 678.76,-252.9 668.22,-254 671.2,-260.33"/>
</a>
</g>
</g>
<!-- Node17 -->
<g id="Node000017" class="node">
<title>Node17</title>
<g id="a_Node000017"><a xlink:href="../../d6/df6/miniz_8c.html#a922d2fef6d4d160a9053cebf4c486a0b" target="_top" xlink:title=" ">
<polygon fill="white" stroke="#666666" points="795.5,-312.12 669.25,-312.12 669.25,-270.38 795.5,-270.38 795.5,-312.12"/>
<text text-anchor="start" x="677.25" y="-298.62" font-family="Helvetica,sans-Serif" font-size="10.00">mz_zip_writer_compute</text>
<text text-anchor="start" x="677.25" y="-287.38" font-family="Helvetica,sans-Serif" font-size="10.00">_padding_needed_for_file</text>
<text text-anchor="middle" x="732.38" y="-276.12" font-family="Helvetica,sans-Serif" font-size="10.00">_alignment</text>
</a>
</g>
</g>
<!-- Node7&#45;&gt;Node17 -->
<g id="edge18_Node000007_Node000017" class="edge">
<title>Node7&#45;&gt;Node17</title>
<g id="a_edge18_Node000007_Node000017"><a xlink:title=" ">
<path fill="none" stroke="#63b8ff" d="M627.51,-308.35C637.49,-306.71 647.92,-304.99 658.18,-303.3"/>
<polygon fill="#63b8ff" stroke="#63b8ff" points="658.47,-306.64 667.77,-301.56 657.33,-299.73 658.47,-306.64"/>
</a>
</g>
</g>
<!-- Node18 -->
<g id="Node000018" class="node">
<title>Node18</title>
<g id="a_Node000018"><a xlink:href="../../d6/df6/miniz_8c.html#ae1b9b894b1fe6286919b091c89337633" target="_top" xlink:title=" ">
<polygon fill="white" stroke="#666666" points="955.5,-137.5 846.5,-137.5 846.5,-107 955.5,-107 955.5,-137.5"/>
<text text-anchor="start" x="854.5" y="-124" font-family="Helvetica,sans-Serif" font-size="10.00">mz_zip_writer_create</text>
<text text-anchor="middle" x="901" y="-112.75" font-family="Helvetica,sans-Serif" font-size="10.00">_local_dir_header</text>
</a>
</g>
</g>
<!-- Node7&#45;&gt;Node18 -->
<g id="edge19_Node000007_Node000018" class="edge">
<title>Node7&#45;&gt;Node18</title>
<g id="a_edge19_Node000007_Node000018"><a xlink:title=" ">
<path fill="none" stroke="#63b8ff" d="M618.04,-302.6C621.46,-300.2 624.6,-297.44 627.25,-294.25 679.16,-231.87 600.47,-166.66 663.25,-115.25 715.04,-72.84 796.69,-87.2 849.29,-103.27"/>
<polygon fill="#63b8ff" stroke="#63b8ff" points="848.14,-106.9 858.73,-106.6 850.26,-100.23 848.14,-106.9"/>
</a>
</g>
</g>
<!-- Node19 -->
<g id="Node000019" class="node">
<title>Node19</title>
<g id="a_Node000019"><a xlink:href="../../d6/df6/miniz_8c.html#a8e6757d07832c14a6310ca0524c3f024" target="_top" xlink:title=" ">
<polygon fill="white" stroke="#666666" points="786.88,-203.5 677.88,-203.5 677.88,-173 786.88,-173 786.88,-203.5"/>
<text text-anchor="start" x="685.88" y="-190" font-family="Helvetica,sans-Serif" font-size="10.00">mz_zip_writer_create</text>
<text text-anchor="middle" x="732.38" y="-178.75" font-family="Helvetica,sans-Serif" font-size="10.00">_zip64_extra_data</text>
</a>
</g>
</g>
<!-- Node7&#45;&gt;Node19 -->
<g id="edge21_Node000007_Node000019" class="edge">
<title>Node7&#45;&gt;Node19</title>
<g id="a_edge21_Node000007_Node000019"><a xlink:title=" ">
<path fill="none" stroke="#63b8ff" d="M616.14,-302.64C620.16,-300.22 623.94,-297.44 627.25,-294.25 655.62,-266.91 634.48,-240.17 663.25,-213.25 664.97,-211.64 666.8,-210.13 668.72,-208.72"/>
<polygon fill="#63b8ff" stroke="#63b8ff" points="670.01,-211.42 676.6,-203.13 666.28,-205.5 670.01,-211.42"/>
</a>
</g>
</g>
<!-- Node20 -->
<g id="Node000020" class="node">
<title>Node20</title>
<g id="a_Node000020"><a xlink:href="../../d6/df6/miniz_8c.html#a97d5bb6b72d210e1a566e43b10080220" target="_top" xlink:title=" ">
<polygon fill="white" stroke="#666666" points="790.25,-154.5 674.5,-154.5 674.5,-124 790.25,-124 790.25,-154.5"/>
<text text-anchor="start" x="682.5" y="-141" font-family="Helvetica,sans-Serif" font-size="10.00">mz_zip_writer_validate</text>
<text text-anchor="middle" x="732.38" y="-129.75" font-family="Helvetica,sans-Serif" font-size="10.00">_archive_name</text>
</a>
</g>
</g>
<!-- Node7&#45;&gt;Node20 -->
<g id="edge22_Node000007_Node000020" class="edge">
<title>Node7&#45;&gt;Node20</title>
<g id="a_edge22_Node000007_Node000020"><a xlink:title=" ">
<path fill="none" stroke="#63b8ff" d="M617.51,-302.58C621.1,-300.18 624.41,-297.42 627.25,-294.25 667.22,-249.57 622.62,-208.34 663.25,-164.25 664.19,-163.23 665.17,-162.26 666.19,-161.32"/>
<polygon fill="#63b8ff" stroke="#63b8ff" points="667.82,-163.72 673.69,-154.9 663.6,-158.14 667.82,-163.72"/>
</a>
</g>
</g>
<!-- Node21 -->
<g id="Node000021" class="node">
<title>Node21</title>
<g id="a_Node000021"><a xlink:href="../../d6/df6/miniz_8c.html#ac2423627c59f318541d6a1218eda198f" target="_top" xlink:title=" ">
<polygon fill="white" stroke="#666666" points="783.88,-483.5 680.88,-483.5 680.88,-453 783.88,-453 783.88,-483.5"/>
<text text-anchor="start" x="688.88" y="-470" font-family="Helvetica,sans-Serif" font-size="10.00">mz_zip_writer_write</text>
<text text-anchor="middle" x="732.38" y="-458.75" font-family="Helvetica,sans-Serif" font-size="10.00">_zeros</text>
</a>
</g>
</g>
<!-- Node7&#45;&gt;Node21 -->
<g id="edge23_Node000007_Node000021" class="edge">
<title>Node7&#45;&gt;Node21</title>
<g id="a_edge23_Node000007_Node000021"><a xlink:title=" ">
<path fill="none" stroke="#63b8ff" d="M575.23,-333.76C589.35,-360.13 621.48,-413.82 663.25,-444.25 665.72,-446.05 668.34,-447.72 671.05,-449.28"/>
<polygon fill="#63b8ff" stroke="#63b8ff" points="669.08,-452.71 679.58,-454.13 672.26,-446.48 669.08,-452.71"/>
</a>
</g>
</g>
<!-- Node22 -->
<g id="Node000022" class="node">
<title>Node22</title>
<g id="a_Node000022"><a xlink:href="../../d6/df6/miniz_8c.html#a5f2608070112b0e81a3017e9c39c73b7" target="_top" xlink:title=" ">
<polygon fill="white" stroke="#666666" points="788.75,-67.88 676,-67.88 676,-48.62 788.75,-48.62 788.75,-67.88"/>
<text text-anchor="middle" x="732.38" y="-54.38" font-family="Helvetica,sans-Serif" font-size="10.00">tdefl_compress_buffer</text>
</a>
</g>
</g>
<!-- Node7&#45;&gt;Node22 -->
<g id="edge25_Node000007_Node000022" class="edge">
<title>Node7&#45;&gt;Node22</title>
<g id="a_edge25_Node000007_Node000022"><a xlink:title=" ">
<path fill="none" stroke="#63b8ff" d="M618.15,-302.69C621.55,-300.27 624.65,-297.47 627.25,-294.25 687.26,-219.87 601.67,-155.34 663.25,-82.25 666.03,-78.95 669.3,-76.1 672.87,-73.64"/>
<polygon fill="#63b8ff" stroke="#63b8ff" points="674.31,-76.28 681.28,-68.3 670.85,-70.2 674.31,-76.28"/>
</a>
</g>
</g>
<!-- Node40 -->
<g id="Node000040" class="node">
<title>Node40</title>
<g id="a_Node000040"><a xlink:href="../../d6/df6/miniz_8c.html#acf2306ec6b7f92753264f68bc554750b" target="_top" xlink:title=" ">
<polygon fill="white" stroke="#666666" points="793.62,-30.5 671.12,-30.5 671.12,0 793.62,0 793.62,-30.5"/>
<text text-anchor="start" x="679.12" y="-17" font-family="Helvetica,sans-Serif" font-size="10.00">tdefl_create_comp_flags</text>
<text text-anchor="middle" x="732.38" y="-5.75" font-family="Helvetica,sans-Serif" font-size="10.00">_from_zip_params</text>
</a>
</g>
</g>
<!-- Node7&#45;&gt;Node40 -->
<g id="edge27_Node000007_Node000040" class="edge">
<title>Node7&#45;&gt;Node40</title>
<g id="a_edge27_Node000007_Node000040"><a xlink:title=" ">
<path fill="none" stroke="#63b8ff" d="M618.52,-302.57C621.79,-300.18 624.76,-297.42 627.25,-294.25 697.87,-204.18 590.73,-127.8 663.25,-39.25 663.58,-38.85 663.91,-38.46 664.25,-38.07"/>
<polygon fill="#63b8ff" stroke="#63b8ff" points="666.19,-41.14 671.32,-31.87 661.53,-35.92 666.19,-41.14"/>
</a>
</g>
</g>
<!-- Node41 -->
<g id="Node000041" class="node">
<title>Node41</title>
<g id="a_Node000041"><a xlink:href="../../d6/df6/miniz_8c.html#a3c2c67a6200147020ba4bfbf77962792" target="_top" xlink:title=" ">
<polygon fill="white" stroke="#666666" points="758.75,-520.88 706,-520.88 706,-501.62 758.75,-501.62 758.75,-520.88"/>
<text text-anchor="middle" x="732.38" y="-507.38" font-family="Helvetica,sans-Serif" font-size="10.00">tdefl_init</text>
</a>
</g>
</g>
<!-- Node7&#45;&gt;Node41 -->
<g id="edge28_Node000007_Node000041" class="edge">
<title>Node7&#45;&gt;Node41</title>
<g id="a_edge28_Node000007_Node000041"><a xlink:title=" ">
<path fill="none" stroke="#63b8ff" d="M571.51,-333.95C581.35,-368.14 609.43,-449.65 663.25,-492.25 672.28,-499.39 683.83,-503.85 694.84,-506.64"/>
<polygon fill="#63b8ff" stroke="#63b8ff" points="694.06,-510.26 704.57,-508.9 695.51,-503.41 694.06,-510.26"/>
</a>
</g>
</g>
<!-- Node11&#45;&gt;Node4 -->
<g id="edge15_Node000011_Node000004" class="edge">
<title>Node11&#45;&gt;Node4</title>
<g id="a_edge15_Node000011_Node000004"><a xlink:title=" ">
<path fill="none" stroke="#63b8ff" d="M788.3,-251.69C793.11,-254.36 797.61,-257.52 801.5,-261.25 868.29,-325.37 890.88,-440.61 897.54,-487.53"/>
<polygon fill="#63b8ff" stroke="#63b8ff" points="894.16,-487.69 898.93,-497.15 901.1,-486.78 894.16,-487.69"/>
</a>
</g>
</g>
<!-- Node12 -->
<g id="Node000012" class="node">
<title>Node12</title>
<g id="a_Node000012"><a xlink:href="../../d6/df6/miniz_8c.html#a8531c0429033508c4a622d4e6427bbe4" target="_top" xlink:title=" ">
<polygon fill="white" stroke="#666666" points="964.5,-265.88 837.5,-265.88 837.5,-246.62 964.5,-246.62 964.5,-265.88"/>
<text text-anchor="middle" x="901" y="-252.38" font-family="Helvetica,sans-Serif" font-size="10.00">mz_zip_array_push_back</text>
</a>
</g>
</g>
<!-- Node11&#45;&gt;Node12 -->
<g id="edge12_Node000011_Node000012" class="edge">
<title>Node11&#45;&gt;Node12</title>
<g id="a_edge12_Node000011_Node000012"><a xlink:title=" ">
<path fill="none" stroke="#63b8ff" d="M788.4,-243.52C800.62,-244.92 813.76,-246.42 826.58,-247.88"/>
<polygon fill="#63b8ff" stroke="#63b8ff" points="825.92,-251.44 836.25,-249.09 826.71,-244.48 825.92,-251.44"/>
</a>
</g>
</g>
<!-- Node13 -->
<g id="Node000013" class="node">
<title>Node13</title>
<g id="a_Node000013"><a xlink:href="../../d6/df6/miniz_8c.html#aef74dba7366dcc1de36eca8682480ddb" target="_top" xlink:title=" ">
<polygon fill="#fff0f0" stroke="red" points="1106.5,-246.88 1000.5,-246.88 1000.5,-227.62 1106.5,-227.62 1106.5,-246.88"/>
<text text-anchor="middle" x="1053.5" y="-233.38" font-family="Helvetica,sans-Serif" font-size="10.00">mz_zip_array_resize</text>
</a>
</g>
</g>
<!-- Node11&#45;&gt;Node13 -->
<g id="edge14_Node000011_Node000013" class="edge">
<title>Node11&#45;&gt;Node13</title>
<g id="a_edge14_Node000011_Node000013"><a xlink:title=" ">
<path fill="none" stroke="#63b8ff" d="M788.23,-237.25C844.07,-237.25 930.53,-237.25 989.22,-237.25"/>
<polygon fill="#63b8ff" stroke="#63b8ff" points="989.21,-240.75 999.21,-237.25 989.21,-233.75 989.21,-240.75"/>
</a>
</g>
</g>
<!-- Node15 -->
<g id="Node000015" class="node">
<title>Node15</title>
<g id="a_Node000015"><a xlink:href="../../d6/df6/miniz_8c.html#a7b85d16940dcbcb59615be2442e54f66" target="_top" xlink:title=" ">
<polygon fill="white" stroke="#666666" points="955.5,-189.5 846.5,-189.5 846.5,-159 955.5,-159 955.5,-189.5"/>
<text text-anchor="start" x="854.5" y="-176" font-family="Helvetica,sans-Serif" font-size="10.00">mz_zip_writer_create</text>
<text text-anchor="middle" x="901" y="-164.75" font-family="Helvetica,sans-Serif" font-size="10.00">_central_dir_header</text>
</a>
</g>
</g>
<!-- Node11&#45;&gt;Node15 -->
<g id="edge16_Node000011_Node000015" class="edge">
<title>Node11&#45;&gt;Node15</title>
<g id="a_edge16_Node000011_Node000015"><a xlink:title=" ">
<path fill="none" stroke="#63b8ff" d="M776.3,-221.62C784.66,-218.54 793.36,-215.31 801.5,-212.25 817.26,-206.32 834.4,-199.75 849.89,-193.77"/>
<polygon fill="#63b8ff" stroke="#63b8ff" points="850.74,-196.8 858.8,-189.93 848.21,-190.27 850.74,-196.8"/>
</a>
</g>
</g>
<!-- Node12&#45;&gt;Node13 -->
<g id="edge13_Node000012_Node000013" class="edge">
<title>Node12&#45;&gt;Node13</title>
<g id="a_edge13_Node000012_Node000013"><a xlink:title=" ">
<path fill="none" stroke="#63b8ff" d="M964.95,-248.3C973.04,-247.28 981.32,-246.24 989.41,-245.22"/>
<polygon fill="#63b8ff" stroke="#63b8ff" points="989.8,-248.57 999.28,-243.84 988.92,-241.62 989.8,-248.57"/>
</a>
</g>
</g>
<!-- Node16 -->
<g id="Node000016" class="node">
<title>Node16</title>
<g id="a_Node000016"><a xlink:href="../../d6/d95/glu-libtess_8h.html#a4292190e3f1f6b373a760c7d9316ad3c" target="_top" xlink:title=" ">
<polygon fill="white" stroke="#666666" points="1070.5,-157.88 1036.5,-157.88 1036.5,-138.62 1070.5,-138.62 1070.5,-157.88"/>
<text text-anchor="middle" x="1053.5" y="-144.38" font-family="Helvetica,sans-Serif" font-size="10.00">void</text>
</a>
</g>
</g>
<!-- Node15&#45;&gt;Node16 -->
<g id="edge17_Node000015_Node000016" class="edge">
<title>Node15&#45;&gt;Node16</title>
<g id="a_edge17_Node000015_Node000016"><a xlink:title=" ">
<path fill="none" stroke="#63b8ff" d="M955.91,-164.94C979.49,-160.86 1006.12,-156.26 1025.43,-152.93"/>
<polygon fill="#63b8ff" stroke="#63b8ff" points="1025.89,-156.23 1035.15,-151.07 1024.7,-149.33 1025.89,-156.23"/>
</a>
</g>
</g>
<!-- Node18&#45;&gt;Node16 -->
<g id="edge20_Node000018_Node000016" class="edge">
<title>Node18&#45;&gt;Node16</title>
<g id="a_edge20_Node000018_Node000016"><a xlink:title=" ">
<path fill="none" stroke="#63b8ff" d="M955.91,-131.56C979.49,-135.64 1006.12,-140.24 1025.43,-143.57"/>
<polygon fill="#63b8ff" stroke="#63b8ff" points="1024.7,-147.17 1035.15,-145.43 1025.89,-140.27 1024.7,-147.17"/>
</a>
</g>
</g>
<!-- Node21&#45;&gt;Node4 -->
<g id="edge24_Node000021_Node000004" class="edge">
<title>Node21&#45;&gt;Node4</title>
<g id="a_edge24_Node000021_Node000004"><a xlink:title=" ">
<path fill="none" stroke="#63b8ff" d="M784.27,-480.47C804.31,-485.28 827.31,-490.8 847.5,-495.65"/>
<polygon fill="#63b8ff" stroke="#63b8ff" points="846.54,-499.26 857.08,-498.19 848.18,-492.45 846.54,-499.26"/>
</a>
</g>
</g>
<!-- Node23 -->
<g id="Node000023" class="node">
<title>Node23</title>
<g id="a_Node000023"><a xlink:href="../../d6/df6/miniz_8c.html#ae9968978f7ea9f732c5ed08db988208b" target="_top" xlink:title=" ">
<polygon fill="#fff0f0" stroke="red" points="942.38,-67.88 859.62,-67.88 859.62,-48.62 942.38,-48.62 942.38,-67.88"/>
<text text-anchor="middle" x="901" y="-54.38" font-family="Helvetica,sans-Serif" font-size="10.00">tdefl_compress</text>
</a>
</g>
</g>
<!-- Node22&#45;&gt;Node23 -->
<g id="edge26_Node000022_Node000023" class="edge">
<title>Node22&#45;&gt;Node23</title>
<g id="a_edge26_Node000022_Node000023"><a xlink:title=" ">
<path fill="none" stroke="#63b8ff" d="M788.86,-58.25C808.09,-58.25 829.56,-58.25 848.46,-58.25"/>
<polygon fill="#63b8ff" stroke="#63b8ff" points="848.25,-61.75 858.25,-58.25 848.25,-54.75 848.25,-61.75"/>
</a>
</g>
</g>
</g>
</svg>

<g id="navigator" transform="translate(0 0)" fill="#404254">
  <rect fill="#f2f5e9" fill-opacity="0.5" stroke="#606060" stroke-width=".5" x="0" y="0" width="60" height="60"/>
  <use id="zoomplus" xlink:href="#zoomPlus" x="17" y="9" onmousedown="handleZoom(evt,'in')"/>
  <use id="zoomminus" xlink:href="#zoomMin" x="42" y="9" onmousedown="handleZoom(evt,'out')"/>
  <use id="reset" xlink:href="#resetDef" x="30" y="36" onmousedown="handleReset()"/>
   <use id="arrowup" xlink:href="#arrowUp" x="0" y="0" onmousedown="handlePan(0,-1)"/>
  <use id="arrowright" xlink:href="#arrowRight" x="0" y="0" onmousedown="handlePan(1,0)"/>
  <use id="arrowdown" xlink:href="#arrowDown" x="0" y="0" onmousedown="handlePan(0,1)"/>
  <use id="arrowleft" xlink:href="#arrowLeft" x="0" y="0" onmousedown="handlePan(-1,0)"/>
</g>
<svg viewBox="0 0 15 15" width="100%" height="30px" preserveAspectRatio="xMaxYMin meet">
 <g id="arrow_out" transform="scale(0.3 0.3)">
  <a xlink:href="miniz_8c_a7e65ca89365aca18317932a5a6a53ec5_cgraph_org.svg" target="_base">
   <rect id="button" ry="5" rx="5" y="6" x="6" height="38" width="38"
        fill="#f2f5e9" fill-opacity="0.5" stroke="#606060" stroke-width="1.0"/>
   <path id="arrow"
     d="M 11.500037,31.436501 C 11.940474,20.09759 22.043105,11.32322 32.158766,21.979434 L 37.068811,17.246167 C 37.068811,17.246167 37.088388,32 37.088388,32 L 22.160133,31.978069 C 22.160133,31.978069 26.997745,27.140456 26.997745,27.140456 C 18.528582,18.264221 13.291696,25.230495 11.500037,31.436501 z"
     style="fill:#404040;"/>
  </a>
 </g>
</svg>

<style type='text/css'>
<![CDATA[
[data-mouse-over-selected='false'] { opacity: 0.7; }
[data-mouse-over-selected='true']  { opacity: 1.0; }
]]>
</style>
<script type="application/ecmascript"><![CDATA[
document.addEventListener('DOMContentLoaded', (event) => {
  highlightEdges();
  highlightAdjacentNodes();
});
]]></script>
</svg>
