<?xml version="1.0" encoding="UTF-8" standalone="no"?>
<!DOCTYPE svg PUBLIC "-//W3C//DTD SVG 1.1//EN"
 "http://www.w3.org/Graphics/SVG/1.1/DTD/svg11.dtd">
<!-- Generated by graphviz version 8.1.0 (20230707.0739)
 -->
<!-- Title: nlohmann::basic_json::insert_iterator Pages: 1 -->
<!--zoomable 122 -->

<svg id="main" version="1.1" xmlns="http://www.w3.org/2000/svg" xmlns:xlink="http://www.w3.org/1999/xlink" xml:space="preserve" onload="init(evt)">
<style type="text/css"><![CDATA[
.node, .edge {opacity: 0.7;}
.node.selected, .edge.selected {opacity: 1;}
.edge:hover path { stroke: red; }
.edge:hover polygon { stroke: red; fill: red; }
]]></style>

<defs>
  <circle id="rim" cx="0" cy="0" r="7"/>
  <circle id="rim2" cx="0" cy="0" r="3.5"/>
  <g id="zoomPlus">
    <use xlink:href="#rim" fill="#404040"><set attributeName="fill" to="#808080" begin="zoomplus.mouseover" end="zoomplus.mouseout"/></use>
    <path d="M-4,0h8M0,-4v8" fill="none" stroke="white" stroke-width="1.5" pointer-events="none"/>
  </g>
  <g id="zoomMin">
    <use xlink:href="#rim" fill="#404040"><set attributeName="fill" to="#808080" begin="zoomminus.mouseover" end="zoomminus.mouseout"/></use>
    <path d="M-4,0h8" fill="none" stroke="white" stroke-width="1.5" pointer-events="none"/>
  </g>
  <g id="arrowUp" transform="translate(30 24)">
    <use xlink:href="#rim"/>
    <path pointer-events="none" fill="none" stroke="white" stroke-width="1.5" d="M0,-3.0v7 M-2.5,-0.5L0,-3.0L2.5,-0.5"/>
  </g>
  <g id="arrowRight" transform="rotate(90) translate(36 -43)">
    <use xlink:href="#rim"/>
    <path pointer-events="none" fill="none" stroke="white" stroke-width="1.5" d="M0,-3.0v7 M-2.5,-0.5L0,-3.0L2.5,-0.5"/>
  </g>
  <g id="arrowDown" transform="rotate(180) translate(-30 -48)">
    <use xlink:href="#rim"/>
    <path pointer-events="none" fill="none" stroke="white" stroke-width="1.5" d="M0,-3.0v7 M-2.5,-0.5L0,-3.0L2.5,-0.5"/>
  </g>
  <g id="arrowLeft" transform="rotate(270) translate(-36 17)">
    <use xlink:href="#rim"/>
    <path pointer-events="none" fill="none" stroke="white" stroke-width="1.5" d="M0,-3.0v7 M-2.5,-0.5L0,-3.0L2.5,-0.5"/>
  </g>
  <g id="resetDef">
    <use xlink:href="#rim2" fill="#404040"><set attributeName="fill" to="#808080" begin="reset.mouseover" end="reset.mouseout"/></use>
  </g>
</defs>
<script type="application/ecmascript">
var viewWidth = 596;
var viewHeight = 122;
var sectionId = 'dynsection-110';
</script>
<script type="application/ecmascript" xlink:href="../../svg.min.js"/>
<svg id="graph" class="graph">
<g id="viewport">
<title>nlohmann::basic_json::insert_iterator</title>
<!-- Node1 -->
<g id="Node000001" class="node">
<title>Node1</title>
<g id="a_Node000001"><a xlink:title="Helper for insertion of an iterator.">
<polygon fill="#999999" stroke="#666666" points="110.5,-51.5 0,-51.5 0,-21 110.5,-21 110.5,-51.5"/>
<text text-anchor="start" x="8" y="-38" font-family="Helvetica,sans-Serif" font-size="10.00">nlohmann::basic_json</text>
<text text-anchor="middle" x="55.25" y="-26.75" font-family="Helvetica,sans-Serif" font-size="10.00">::insert_iterator</text>
</a>
</g>
</g>
<!-- Node2 -->
<g id="Node000002" class="node">
<title>Node2</title>
<g id="a_Node000002"><a xlink:href="../../d8/dcc/namespacestd.html#af4bc231d061945eb59dbba98a117ece9" target="_top" xlink:title=" ">
<polygon fill="white" stroke="#666666" points="237.88,-67.88 165.62,-67.88 165.62,-48.62 237.88,-48.62 237.88,-67.88"/>
<text text-anchor="middle" x="201.75" y="-54.38" font-family="Helvetica,sans-Serif" font-size="10.00">std::distance</text>
</a>
</g>
</g>
<!-- Node1&#45;&gt;Node2 -->
<g id="edge1_Node000001_Node000002" class="edge">
<title>Node1&#45;&gt;Node2</title>
<g id="a_edge1_Node000001_Node000002"><a xlink:title=" ">
<path fill="none" stroke="#63b8ff" d="M110.88,-44.57C125.26,-46.76 140.63,-49.1 154.52,-51.21"/>
<polygon fill="#63b8ff" stroke="#63b8ff" points="153.88,-54.81 164.29,-52.85 154.93,-47.89 153.88,-54.81"/>
</a>
</g>
</g>
<!-- Node7 -->
<g id="Node000007" class="node">
<title>Node7</title>
<g id="a_Node000007"><a xlink:href="../../d9/dcc/classnlohmann_1_1basic__json.html#ade91330092a38c86ae056cca64a3647e" target="_top" xlink:title=" ">
<polygon fill="white" stroke="#666666" points="257,-30.5 146.5,-30.5 146.5,0 257,0 257,-30.5"/>
<text text-anchor="start" x="154.5" y="-17" font-family="Helvetica,sans-Serif" font-size="10.00">nlohmann::basic_json</text>
<text text-anchor="middle" x="201.75" y="-5.75" font-family="Helvetica,sans-Serif" font-size="10.00">::set_parents</text>
</a>
</g>
</g>
<!-- Node1&#45;&gt;Node7 -->
<g id="edge6_Node000001_Node000007" class="edge">
<title>Node1&#45;&gt;Node7</title>
<g id="a_edge6_Node000001_Node000007"><a xlink:title=" ">
<path fill="none" stroke="#63b8ff" d="M110.88,-28.31C118.88,-27.15 127.19,-25.94 135.38,-24.75"/>
<polygon fill="#63b8ff" stroke="#63b8ff" points="135.65,-28.1 145.04,-23.2 134.64,-21.18 135.65,-28.1"/>
</a>
</g>
</g>
<!-- Node3 -->
<g id="Node000003" class="node">
<title>Node3</title>
<g id="a_Node000003"><a xlink:href="../../d7/d63/classhmesh__t.html#a19678c4e4889230aa87ea59b4ec047c8" target="_top" xlink:title=" ">
<polygon fill="white" stroke="#666666" points="419.25,-98.5 293,-98.5 293,-68 419.25,-68 419.25,-98.5"/>
<text text-anchor="start" x="301" y="-85" font-family="Helvetica,sans-Serif" font-size="10.00">hmesh_t::count_removed</text>
<text text-anchor="middle" x="356.12" y="-73.75" font-family="Helvetica,sans-Serif" font-size="10.00">_elements_in_range</text>
</a>
</g>
</g>
<!-- Node2&#45;&gt;Node3 -->
<g id="edge2_Node000002_Node000003" class="edge">
<title>Node2&#45;&gt;Node3</title>
<g id="a_edge2_Node000002_Node000003"><a xlink:title=" ">
<path fill="none" stroke="#63b8ff" d="M238.09,-64.05C251.31,-66.22 266.85,-68.77 282.21,-71.29"/>
<polygon fill="#63b8ff" stroke="#63b8ff" points="281.36,-74.86 291.79,-73.02 282.49,-67.95 281.36,-74.86"/>
</a>
</g>
</g>
<!-- Node6 -->
<g id="Node000006" class="node">
<title>Node6</title>
<g id="a_Node000006"><a xlink:href="../../d8/d9b/classarray__iterator__t.html#ac73b2d71bcaaa8f9fb198b061a58803a" target="_top" xlink:title=" ">
<polygon fill="white" stroke="#666666" points="406.5,-49.5 305.75,-49.5 305.75,-19 406.5,-19 406.5,-49.5"/>
<text text-anchor="start" x="313.75" y="-36" font-family="Helvetica,sans-Serif" font-size="10.00">array_iterator_t::get</text>
<text text-anchor="middle" x="356.12" y="-24.75" font-family="Helvetica,sans-Serif" font-size="10.00">_mesh_ptr</text>
</a>
</g>
</g>
<!-- Node2&#45;&gt;Node6 -->
<g id="edge5_Node000002_Node000006" class="edge">
<title>Node2&#45;&gt;Node6</title>
<g id="a_edge5_Node000002_Node000006"><a xlink:title=" ">
<path fill="none" stroke="#63b8ff" d="M238.09,-52.68C254.85,-50.04 275.36,-46.81 294.49,-43.8"/>
<polygon fill="#63b8ff" stroke="#63b8ff" points="294.92,-47.12 304.26,-42.1 293.84,-40.2 294.92,-47.12"/>
</a>
</g>
</g>
<!-- Node4 -->
<g id="Node000004" class="node">
<title>Node4</title>
<g id="a_Node000004"><a xlink:href="../../d7/d63/classhmesh__t.html#a536da7c5d6be8a2f0be7a536c17a4644" target="_top" xlink:title=" ">
<polygon fill="white" stroke="#666666" points="588.25,-113.88 455.25,-113.88 455.25,-94.62 588.25,-94.62 588.25,-113.88"/>
<text text-anchor="middle" x="521.75" y="-100.38" font-family="Helvetica,sans-Serif" font-size="10.00">hmesh_t::elements_begin_</text>
</a>
</g>
</g>
<!-- Node3&#45;&gt;Node4 -->
<g id="edge3_Node000003_Node000004" class="edge">
<title>Node3&#45;&gt;Node4</title>
<g id="a_edge3_Node000003_Node000004"><a xlink:title=" ">
<path fill="none" stroke="#63b8ff" d="M419.45,-91.25C427.49,-92.28 435.79,-93.35 444.03,-94.4"/>
<polygon fill="#63b8ff" stroke="#63b8ff" points="443.42,-97.98 453.79,-95.78 444.31,-91.04 443.42,-97.98"/>
</a>
</g>
</g>
<!-- Node5 -->
<g id="Node000005" class="node">
<title>Node5</title>
<g id="a_Node000005"><a xlink:href="../../d7/d63/classhmesh__t.html#ad6d08c43b0dac5f8f4a933496ef81ca9" target="_top" xlink:title=" ">
<polygon fill="white" stroke="#666666" points="579.62,-76.5 463.88,-76.5 463.88,-46 579.62,-46 579.62,-76.5"/>
<text text-anchor="start" x="471.88" y="-63" font-family="Helvetica,sans-Serif" font-size="10.00">hmesh_t::get_removed</text>
<text text-anchor="middle" x="521.75" y="-51.75" font-family="Helvetica,sans-Serif" font-size="10.00">_elements</text>
</a>
</g>
</g>
<!-- Node3&#45;&gt;Node5 -->
<g id="edge4_Node000003_Node000005" class="edge">
<title>Node3&#45;&gt;Node5</title>
<g id="a_edge4_Node000003_Node000005"><a xlink:title=" ">
<path fill="none" stroke="#63b8ff" d="M419.45,-74.87C430.29,-73.41 441.61,-71.89 452.59,-70.41"/>
<polygon fill="#63b8ff" stroke="#63b8ff" points="452.99,-73.76 462.44,-68.96 452.06,-66.82 452.99,-73.76"/>
</a>
</g>
</g>
</g>
</svg>

<g id="navigator" transform="translate(0 0)" fill="#404254">
  <rect fill="#f2f5e9" fill-opacity="0.5" stroke="#606060" stroke-width=".5" x="0" y="0" width="60" height="60"/>
  <use id="zoomplus" xlink:href="#zoomPlus" x="17" y="9" onmousedown="handleZoom(evt,'in')"/>
  <use id="zoomminus" xlink:href="#zoomMin" x="42" y="9" onmousedown="handleZoom(evt,'out')"/>
  <use id="reset" xlink:href="#resetDef" x="30" y="36" onmousedown="handleReset()"/>
   <use id="arrowup" xlink:href="#arrowUp" x="0" y="0" onmousedown="handlePan(0,-1)"/>
  <use id="arrowright" xlink:href="#arrowRight" x="0" y="0" onmousedown="handlePan(1,0)"/>
  <use id="arrowdown" xlink:href="#arrowDown" x="0" y="0" onmousedown="handlePan(0,1)"/>
  <use id="arrowleft" xlink:href="#arrowLeft" x="0" y="0" onmousedown="handlePan(-1,0)"/>
</g>
<svg viewBox="0 0 15 15" width="100%" height="30px" preserveAspectRatio="xMaxYMin meet">
 <g id="arrow_out" transform="scale(0.3 0.3)">
  <a xlink:href="classnlohmann_1_1basic__json_ab5c8034e997c5b852b92bdc6a3f70994_cgraph_org.svg" target="_base">
   <rect id="button" ry="5" rx="5" y="6" x="6" height="38" width="38"
        fill="#f2f5e9" fill-opacity="0.5" stroke="#606060" stroke-width="1.0"/>
   <path id="arrow"
     d="M 11.500037,31.436501 C 11.940474,20.09759 22.043105,11.32322 32.158766,21.979434 L 37.068811,17.246167 C 37.068811,17.246167 37.088388,32 37.088388,32 L 22.160133,31.978069 C 22.160133,31.978069 26.997745,27.140456 26.997745,27.140456 C 18.528582,18.264221 13.291696,25.230495 11.500037,31.436501 z"
     style="fill:#404040;"/>
  </a>
 </g>
</svg>

<style type='text/css'>
<![CDATA[
[data-mouse-over-selected='false'] { opacity: 0.7; }
[data-mouse-over-selected='true']  { opacity: 1.0; }
]]>
</style>
<script type="application/ecmascript"><![CDATA[
document.addEventListener('DOMContentLoaded', (event) => {
  highlightEdges();
  highlightAdjacentNodes();
});
]]></script>
</svg>
