<?xml version="1.0" encoding="UTF-8" standalone="no"?>
<!DOCTYPE svg PUBLIC "-//W3C//DTD SVG 1.1//EN"
 "http://www.w3.org/Graphics/SVG/1.1/DTD/svg11.dtd">
<!-- Generated by graphviz version 8.1.0 (20230707.0739)
 -->
<!-- Title: Button::SetPaddingSize Pages: 1 -->
<svg width="903pt" height="137pt"
 viewBox="0.00 0.00 902.75 136.50" xmlns="http://www.w3.org/2000/svg" xmlns:xlink="http://www.w3.org/1999/xlink">
<g id="graph0" class="graph" transform="scale(1 1) rotate(0) translate(4 132.5)">
<title>Button::SetPaddingSize</title>
<!-- Node1 -->
<g id="Node000001" class="node">
<title>Node1</title>
<g id="a_Node000001"><a xlink:title=" ">
<polygon fill="#999999" stroke="#666666" points="894.75,-48.88 774.5,-48.88 774.5,-29.62 894.75,-29.62 894.75,-48.88"/>
<text text-anchor="middle" x="834.62" y="-35.38" font-family="Helvetica,sans-Serif" font-size="10.00">Button::SetPaddingSize</text>
</a>
</g>
</g>
<!-- Node2 -->
<g id="Node000002" class="node">
<title>Node2</title>
<g id="a_Node000002"><a xlink:href="../../dd/d9d/class_tab_ctrl.html#a163899ba1ec7d34fbf923e776227e65e" target="_top" xlink:title=" ">
<polygon fill="white" stroke="#666666" points="738.5,-48.88 632.5,-48.88 632.5,-29.62 738.5,-29.62 738.5,-48.88"/>
<text text-anchor="middle" x="685.5" y="-35.38" font-family="Helvetica,sans-Serif" font-size="10.00">TabCtrl::AppendItem</text>
</a>
</g>
</g>
<!-- Node1&#45;&gt;Node2 -->
<g id="edge1_Node000001_Node000002" class="edge">
<title>Node1&#45;&gt;Node2</title>
<g id="a_edge1_Node000001_Node000002"><a xlink:title=" ">
<path fill="none" stroke="#63b8ff" d="M763.31,-39.25C754.98,-39.25 746.58,-39.25 738.56,-39.25"/>
<polygon fill="#63b8ff" stroke="#63b8ff" points="763.21,-42.75 773.21,-39.25 763.21,-35.75 763.21,-42.75"/>
</a>
</g>
</g>
<!-- Node3 -->
<g id="Node000003" class="node">
<title>Node3</title>
<g id="a_Node000003"><a xlink:href="../../d2/df9/class_slic3r_1_1_g_u_i_1_1_tab.html#a3f4a5ca64a46f70ba79ae716b3e90e7d" target="_top" xlink:title=" ">
<polygon fill="white" stroke="#666666" points="596.5,-54.5 475.5,-54.5 475.5,-24 596.5,-24 596.5,-54.5"/>
<text text-anchor="start" x="483.5" y="-41" font-family="Helvetica,sans-Serif" font-size="10.00">Slic3r::GUI::Tab::rebuild</text>
<text text-anchor="middle" x="536" y="-29.75" font-family="Helvetica,sans-Serif" font-size="10.00">_page_tree</text>
</a>
</g>
</g>
<!-- Node2&#45;&gt;Node3 -->
<g id="edge2_Node000002_Node000003" class="edge">
<title>Node2&#45;&gt;Node3</title>
<g id="a_edge2_Node000002_Node000003"><a xlink:title=" ">
<path fill="none" stroke="#63b8ff" d="M621.19,-39.25C613.09,-39.25 604.83,-39.25 596.79,-39.25"/>
<polygon fill="#63b8ff" stroke="#63b8ff" points="621.08,-42.75 631.08,-39.25 621.08,-35.75 621.08,-42.75"/>
</a>
</g>
</g>
<!-- Node4 -->
<g id="Node000004" class="node">
<title>Node4</title>
<g id="a_Node000004"><a xlink:href="../../d1/db7/class_slic3r_1_1_g_u_i_1_1_tab_printer.html#a7680159c93eed17fcfe848b21295272c" target="_top" xlink:title=" ">
<polygon fill="white" stroke="#666666" points="439.5,-77.5 320.75,-77.5 320.75,-47 439.5,-47 439.5,-77.5"/>
<text text-anchor="start" x="328.75" y="-64" font-family="Helvetica,sans-Serif" font-size="10.00">Slic3r::GUI::TabPrinter</text>
<text text-anchor="middle" x="380.12" y="-52.75" font-family="Helvetica,sans-Serif" font-size="10.00">::build_unregular_pages</text>
</a>
</g>
</g>
<!-- Node3&#45;&gt;Node4 -->
<g id="edge3_Node000003_Node000004" class="edge">
<title>Node3&#45;&gt;Node4</title>
<g id="a_edge3_Node000003_Node000004"><a xlink:title=" ">
<path fill="none" stroke="#63b8ff" d="M464.38,-49.81C456.19,-51.03 447.9,-52.27 439.88,-53.47"/>
<polygon fill="#63b8ff" stroke="#63b8ff" points="464.69,-53.15 474.07,-48.21 463.66,-46.23 464.69,-53.15"/>
</a>
</g>
</g>
<!-- Node7 -->
<g id="Node000007" class="node">
<title>Node7</title>
<g id="a_Node000007"><a xlink:href="../../d1/db7/class_slic3r_1_1_g_u_i_1_1_tab_printer.html#a21ceb40501345fb00e4256a7ddb5dd39" target="_top" xlink:title=" ">
<polygon fill="#fff0f0" stroke="red" points="115,-30.5 0,-30.5 0,0 115,0 115,-30.5"/>
<text text-anchor="start" x="8" y="-17" font-family="Helvetica,sans-Serif" font-size="10.00">Slic3r::GUI::TabPrinter</text>
<text text-anchor="middle" x="57.5" y="-5.75" font-family="Helvetica,sans-Serif" font-size="10.00">::update_pages</text>
</a>
</g>
</g>
<!-- Node3&#45;&gt;Node7 -->
<g id="edge9_Node000003_Node000007" class="edge">
<title>Node3&#45;&gt;Node7</title>
<g id="a_edge9_Node000003_Node000007"><a xlink:title=" ">
<path fill="none" stroke="#63b8ff" d="M464.2,-35.68C369.19,-30.9 202.33,-22.49 115.16,-18.1"/>
<polygon fill="#63b8ff" stroke="#63b8ff" points="463.97,-39.23 474.13,-36.23 464.32,-32.24 463.97,-39.23"/>
</a>
</g>
</g>
<!-- Node5 -->
<g id="Node000005" class="node">
<title>Node5</title>
<g id="a_Node000005"><a xlink:href="../../d1/db7/class_slic3r_1_1_g_u_i_1_1_tab_printer.html#a1bf60f68b85a83ccce70e6fa5fe212a9" target="_top" xlink:title=" ">
<polygon fill="white" stroke="#666666" points="275.38,-77.5 160.38,-77.5 160.38,-47 275.38,-47 275.38,-77.5"/>
<text text-anchor="start" x="168.38" y="-64" font-family="Helvetica,sans-Serif" font-size="10.00">Slic3r::GUI::TabPrinter</text>
<text text-anchor="middle" x="217.88" y="-52.75" font-family="Helvetica,sans-Serif" font-size="10.00">::build_fff</text>
</a>
</g>
</g>
<!-- Node4&#45;&gt;Node5 -->
<g id="edge4_Node000004_Node000005" class="edge">
<title>Node4&#45;&gt;Node5</title>
<g id="a_edge4_Node000004_Node000005"><a xlink:title=" ">
<path fill="none" stroke="#63b8ff" d="M309.64,-62.25C298.32,-62.25 286.72,-62.25 275.76,-62.25"/>
<polygon fill="#63b8ff" stroke="#63b8ff" points="309.36,-65.75 319.36,-62.25 309.36,-58.75 309.36,-65.75"/>
</a>
</g>
</g>
<!-- Node9 -->
<g id="Node000009" class="node">
<title>Node9</title>
<g id="a_Node000009"><a xlink:href="../../d1/db7/class_slic3r_1_1_g_u_i_1_1_tab_printer.html#a28e74efce291e2103c8d735483d5117b" target="_top" xlink:title=" ">
<polygon fill="white" stroke="#666666" points="284.75,-127.5 151,-127.5 151,-97 284.75,-97 284.75,-127.5"/>
<text text-anchor="start" x="159" y="-114" font-family="Helvetica,sans-Serif" font-size="10.00">Slic3r::GUI::TabPrinter</text>
<text text-anchor="middle" x="217.88" y="-102.75" font-family="Helvetica,sans-Serif" font-size="10.00">::extruders_count_changed</text>
</a>
</g>
</g>
<!-- Node4&#45;&gt;Node9 -->
<g id="edge7_Node000004_Node000009" class="edge">
<title>Node4&#45;&gt;Node9</title>
<g id="a_edge7_Node000004_Node000009"><a xlink:title=" ">
<path fill="none" stroke="#63b8ff" d="M318.4,-81.2C302.18,-86.26 284.83,-91.67 269.24,-96.54"/>
<polygon fill="#63b8ff" stroke="#63b8ff" points="319.36,-84.25 327.86,-77.93 317.27,-77.57 319.36,-84.25"/>
</a>
</g>
</g>
<!-- Node6 -->
<g id="Node000006" class="node">
<title>Node6</title>
<g id="a_Node000006"><a xlink:href="../../d1/db7/class_slic3r_1_1_g_u_i_1_1_tab_printer.html#a96bbdfa28abe476b91e3346a5d33c57b" target="_top" xlink:title=" ">
<polygon fill="white" stroke="#666666" points="115,-79.5 0,-79.5 0,-49 115,-49 115,-79.5"/>
<text text-anchor="start" x="8" y="-66" font-family="Helvetica,sans-Serif" font-size="10.00">Slic3r::GUI::TabPrinter</text>
<text text-anchor="middle" x="57.5" y="-54.75" font-family="Helvetica,sans-Serif" font-size="10.00">::build</text>
</a>
</g>
</g>
<!-- Node5&#45;&gt;Node6 -->
<g id="edge5_Node000005_Node000006" class="edge">
<title>Node5&#45;&gt;Node6</title>
<g id="a_edge5_Node000005_Node000006"><a xlink:title=" ">
<path fill="none" stroke="#63b8ff" d="M149.41,-63.1C138.07,-63.25 126.4,-63.39 115.37,-63.53"/>
<polygon fill="#63b8ff" stroke="#63b8ff" points="149.19,-66.59 159.15,-62.97 149.1,-59.59 149.19,-66.59"/>
</a>
</g>
</g>
<!-- Node5&#45;&gt;Node7 -->
<g id="edge6_Node000005_Node000007" class="edge">
<title>Node5&#45;&gt;Node7</title>
<g id="a_edge6_Node000005_Node000007"><a xlink:title=" ">
<path fill="none" stroke="#63b8ff" d="M153.63,-43.48C139.68,-39.34 125.04,-35 111.55,-30.99"/>
<polygon fill="#63b8ff" stroke="#63b8ff" points="152.56,-47.11 163.14,-46.6 154.55,-40.4 152.56,-47.11"/>
</a>
</g>
</g>
<!-- Node10 -->
<g id="Node000010" class="node">
<title>Node10</title>
<g id="a_Node000010"><a xlink:href="../../d1/db7/class_slic3r_1_1_g_u_i_1_1_tab_printer.html#ae650d4f4e9f1b4197b30bb03dcaa1d35" target="_top" xlink:title=" ">
<polygon fill="white" stroke="#666666" points="115,-128.5 0,-128.5 0,-98 115,-98 115,-128.5"/>
<text text-anchor="start" x="8" y="-115" font-family="Helvetica,sans-Serif" font-size="10.00">Slic3r::GUI::TabPrinter</text>
<text text-anchor="middle" x="57.5" y="-103.75" font-family="Helvetica,sans-Serif" font-size="10.00">::on_preset_loaded</text>
</a>
</g>
</g>
<!-- Node9&#45;&gt;Node10 -->
<g id="edge8_Node000009_Node000010" class="edge">
<title>Node9&#45;&gt;Node10</title>
<g id="a_edge8_Node000009_Node000010"><a xlink:title=" ">
<path fill="none" stroke="#63b8ff" d="M139.86,-112.74C131.63,-112.79 123.37,-112.84 115.43,-112.89"/>
<polygon fill="#63b8ff" stroke="#63b8ff" points="139.65,-116.23 149.63,-112.67 139.61,-109.23 139.65,-116.23"/>
</a>
</g>
</g>
</g>
</svg>
