<?xml version="1.0" encoding="UTF-8" standalone="no"?>
<!DOCTYPE svg PUBLIC "-//W3C//DTD SVG 1.1//EN"
 "http://www.w3.org/Graphics/SVG/1.1/DTD/svg11.dtd">
<!-- Generated by graphviz version 8.1.0 (20230707.0739)
 -->
<!-- Title: src/qhull/src/libqhullcpp/QhullStat.cpp Pages: 1 -->
<svg width="1679pt" height="370pt"
 viewBox="0.00 0.00 1678.69 370.00" xmlns="http://www.w3.org/2000/svg" xmlns:xlink="http://www.w3.org/1999/xlink">
<g id="graph0" class="graph" transform="scale(1 1) rotate(0) translate(4 366)">
<title>src/qhull/src/libqhullcpp/QhullStat.cpp</title>
<!-- Node1 -->
<g id="Node000001" class="node">
<title>Node1</title>
<g id="a_Node000001"><a xlink:title=" ">
<polygon fill="#999999" stroke="#666666" points="1405.32,-362 1287.32,-362 1287.32,-331.5 1405.32,-331.5 1405.32,-362"/>
<text text-anchor="start" x="1295.32" y="-348.5" font-family="Helvetica,sans-Serif" font-size="10.00">src/qhull/src/libqhullcpp</text>
<text text-anchor="middle" x="1346.32" y="-337.25" font-family="Helvetica,sans-Serif" font-size="10.00">/QhullStat.cpp</text>
</a>
</g>
</g>
<!-- Node2 -->
<g id="Node000002" class="node">
<title>Node2</title>
<g id="a_Node000002"><a xlink:href="../../d3/d84/_qhull_stat_8h.html" target="_top" xlink:title=" ">
<polygon fill="white" stroke="#666666" points="1361.07,-295.5 1247.57,-295.5 1247.57,-276.25 1361.07,-276.25 1361.07,-295.5"/>
<text text-anchor="middle" x="1304.32" y="-282" font-family="Helvetica,sans-Serif" font-size="10.00">libqhullcpp/QhullStat.h</text>
</a>
</g>
</g>
<!-- Node1&#45;&gt;Node2 -->
<g id="edge1_Node000001_Node000002" class="edge">
<title>Node1&#45;&gt;Node2</title>
<g id="a_edge1_Node000001_Node000002"><a xlink:title=" ">
<path fill="none" stroke="#63b8ff" d="M1335.94,-331.2C1330.22,-323.18 1323.07,-313.17 1317.02,-304.69"/>
<polygon fill="#63b8ff" stroke="#63b8ff" points="1319.45,-303.06 1310.79,-296.95 1313.75,-307.12 1319.45,-303.06"/>
</a>
</g>
</g>
<!-- Node21 -->
<g id="Node000021" class="node">
<title>Node21</title>
<g id="a_Node000021"><a xlink:title=" ">
<polygon fill="#e0e0e0" stroke="#999999" points="1098.07,-74.5 1044.57,-74.5 1044.57,-55.25 1098.07,-55.25 1098.07,-74.5"/>
<text text-anchor="middle" x="1071.32" y="-61" font-family="Helvetica,sans-Serif" font-size="10.00">iostream</text>
</a>
</g>
</g>
<!-- Node1&#45;&gt;Node21 -->
<g id="edge61_Node000001_Node000021" class="edge">
<title>Node1&#45;&gt;Node21</title>
<g id="a_edge61_Node000001_Node000021"><a xlink:title=" ">
<path fill="none" stroke="#63b8ff" d="M1287.23,-343.98C1159.34,-338.55 868.32,-316.84 868.32,-231.62 868.32,-231.62 868.32,-231.62 868.32,-174.38 868.32,-144.76 865.84,-130.9 887.32,-110.5 908.11,-90.75 986.06,-77.19 1033.57,-70.56"/>
<polygon fill="#63b8ff" stroke="#63b8ff" points="1033.93,-73.9 1043.37,-69.1 1032.99,-66.97 1033.93,-73.9"/>
</a>
</g>
</g>
<!-- Node27 -->
<g id="Node000027" class="node">
<title>Node27</title>
<g id="a_Node000027"><a xlink:title=" ">
<polygon fill="#e0e0e0" stroke="#999999" points="1430.94,-74.5 1379.69,-74.5 1379.69,-55.25 1430.94,-55.25 1430.94,-74.5"/>
<text text-anchor="middle" x="1405.32" y="-61" font-family="Helvetica,sans-Serif" font-size="10.00">sstream</text>
</a>
</g>
</g>
<!-- Node1&#45;&gt;Node27 -->
<g id="edge60_Node000001_Node000027" class="edge">
<title>Node1&#45;&gt;Node27</title>
<g id="a_edge60_Node000001_Node000027"><a xlink:title=" ">
<path fill="none" stroke="#63b8ff" d="M1355.65,-331.27C1368.29,-310.22 1389.32,-269.52 1389.32,-231.62 1389.32,-231.62 1389.32,-231.62 1389.32,-174.38 1389.32,-143.03 1395.93,-107.14 1400.66,-85.5"/>
<polygon fill="#63b8ff" stroke="#63b8ff" points="1404.28,-86.34 1403.09,-75.81 1397.46,-84.78 1404.28,-86.34"/>
</a>
</g>
</g>
<!-- Node32 -->
<g id="Node000032" class="node">
<title>Node32</title>
<g id="a_Node000032"><a xlink:href="../../d8/df2/_qhull_error_8h.html" target="_top" xlink:title=" ">
<polygon fill="white" stroke="#666666" points="1533.19,-185 1417.44,-185 1417.44,-165.75 1533.19,-165.75 1533.19,-185"/>
<text text-anchor="middle" x="1475.32" y="-171.5" font-family="Helvetica,sans-Serif" font-size="10.00">libqhullcpp/QhullError.h</text>
</a>
</g>
</g>
<!-- Node1&#45;&gt;Node32 -->
<g id="edge48_Node000001_Node000032" class="edge">
<title>Node1&#45;&gt;Node32</title>
<g id="a_edge48_Node000001_Node000032"><a xlink:title=" ">
<path fill="none" stroke="#63b8ff" d="M1365.62,-331.21C1377.35,-321.81 1392.15,-308.86 1403.32,-295.5 1430.32,-263.17 1453.93,-219.64 1466.25,-195.15"/>
<polygon fill="#63b8ff" stroke="#63b8ff" points="1469.8,-196.86 1471.09,-186.35 1463.52,-193.77 1469.8,-196.86"/>
</a>
</g>
</g>
<!-- Node3 -->
<g id="Node000003" class="node">
<title>Node3</title>
<g id="a_Node000003"><a xlink:href="../../d4/d52/qhull__ra_8h.html" target="_top" xlink:title=" ">
<polygon fill="white" stroke="#666666" points="534.94,-240.25 435.69,-240.25 435.69,-221 534.94,-221 534.94,-240.25"/>
<text text-anchor="middle" x="485.32" y="-226.75" font-family="Helvetica,sans-Serif" font-size="10.00">libqhull_r/qhull_ra.h</text>
</a>
</g>
</g>
<!-- Node2&#45;&gt;Node3 -->
<g id="edge2_Node000002_Node000003" class="edge">
<title>Node2&#45;&gt;Node3</title>
<g id="a_edge2_Node000002_Node000003"><a xlink:title=" ">
<path fill="none" stroke="#63b8ff" d="M1247.38,-281.17C1098.5,-271.49 698.67,-245.5 545.84,-235.56"/>
<polygon fill="#63b8ff" stroke="#63b8ff" points="546.48,-232.03 536.27,-234.87 546.03,-239.01 546.48,-232.03"/>
</a>
</g>
</g>
<!-- Node24 -->
<g id="Node000024" class="node">
<title>Node24</title>
<g id="a_Node000024"><a xlink:title=" ">
<polygon fill="#e0e0e0" stroke="#999999" points="1284.82,-129.75 1241.82,-129.75 1241.82,-110.5 1284.82,-110.5 1284.82,-129.75"/>
<text text-anchor="middle" x="1263.32" y="-116.25" font-family="Helvetica,sans-Serif" font-size="10.00">vector</text>
</a>
</g>
</g>
<!-- Node2&#45;&gt;Node24 -->
<g id="edge47_Node000002_Node000024" class="edge">
<title>Node2&#45;&gt;Node24</title>
<g id="a_edge47_Node000002_Node000024"><a xlink:title=" ">
<path fill="none" stroke="#63b8ff" d="M1302.11,-276.07C1295.72,-250.53 1277.05,-175.95 1268.14,-140.4"/>
<polygon fill="#63b8ff" stroke="#63b8ff" points="1271.36,-139.82 1265.53,-130.97 1264.57,-141.52 1271.36,-139.82"/>
</a>
</g>
</g>
<!-- Node31 -->
<g id="Node000031" class="node">
<title>Node31</title>
<g id="a_Node000031"><a xlink:title=" ">
<polygon fill="#e0e0e0" stroke="#999999" points="1479.32,-19.25 1439.32,-19.25 1439.32,0 1479.32,0 1479.32,-19.25"/>
<text text-anchor="middle" x="1459.32" y="-5.75" font-family="Helvetica,sans-Serif" font-size="10.00">string</text>
</a>
</g>
</g>
<!-- Node2&#45;&gt;Node31 -->
<g id="edge46_Node000002_Node000031" class="edge">
<title>Node2&#45;&gt;Node31</title>
<g id="a_edge46_Node000002_Node000031"><a xlink:title=" ">
<path fill="none" stroke="#63b8ff" d="M1311.25,-275.87C1324.33,-257.97 1351.32,-216.2 1351.32,-176.38 1351.32,-176.38 1351.32,-176.38 1351.32,-119.12 1351.32,-89.51 1351.29,-77.95 1370.32,-55.25 1385.33,-37.34 1409.31,-25.9 1428.6,-19.09"/>
<polygon fill="#63b8ff" stroke="#63b8ff" points="1429.61,-22.12 1438.03,-15.69 1427.44,-15.46 1429.61,-22.12"/>
</a>
</g>
</g>
<!-- Node4 -->
<g id="Node000004" class="node">
<title>Node4</title>
<g id="a_Node000004"><a xlink:href="../../d2/d25/libqhull__r_8h.html" target="_top" xlink:title=" ">
<polygon fill="white" stroke="#666666" points="340.19,-129.75 278.44,-129.75 278.44,-110.5 340.19,-110.5 340.19,-129.75"/>
<text text-anchor="middle" x="309.32" y="-116.25" font-family="Helvetica,sans-Serif" font-size="10.00">libqhull_r.h</text>
</a>
</g>
</g>
<!-- Node3&#45;&gt;Node4 -->
<g id="edge3_Node000003_Node000004" class="edge">
<title>Node3&#45;&gt;Node4</title>
<g id="a_edge3_Node000003_Node000004"><a xlink:title=" ">
<path fill="none" stroke="#63b8ff" d="M435.29,-230.58C351.52,-231 188.47,-226.32 152.32,-185 117.28,-144.95 210.09,-129.61 267.61,-124.05"/>
<polygon fill="#63b8ff" stroke="#63b8ff" points="267.6,-127.48 277.25,-123.1 266.97,-120.51 267.6,-127.48"/>
</a>
</g>
</g>
<!-- Node6 -->
<g id="Node000006" class="node">
<title>Node6</title>
<g id="a_Node000006"><a xlink:title=" ">
<polygon fill="#e0e0e0" stroke="#999999" points="954.82,-19.25 911.82,-19.25 911.82,0 954.82,0 954.82,-19.25"/>
<text text-anchor="middle" x="933.32" y="-5.75" font-family="Helvetica,sans-Serif" font-size="10.00">time.h</text>
</a>
</g>
</g>
<!-- Node3&#45;&gt;Node6 -->
<g id="edge42_Node000003_Node000006" class="edge">
<title>Node3&#45;&gt;Node6</title>
<g id="a_edge42_Node000003_Node000006"><a xlink:title=" ">
<path fill="none" stroke="#63b8ff" d="M535.24,-227.46C704.27,-219.61 1247.19,-189.85 1294.32,-129.75 1381.56,-18.5 1070.01,-10.02 966,-10.22"/>
<polygon fill="#63b8ff" stroke="#63b8ff" points="966.19,-6.72 956.21,-10.27 966.22,-13.72 966.19,-6.72"/>
</a>
</g>
</g>
<!-- Node7 -->
<g id="Node000007" class="node">
<title>Node7</title>
<g id="a_Node000007"><a xlink:href="../../dd/dca/mem__r_8h.html" target="_top" xlink:title=" ">
<polygon fill="white" stroke="#666666" points="73.07,-74.5 19.57,-74.5 19.57,-55.25 73.07,-55.25 73.07,-74.5"/>
<text text-anchor="middle" x="46.32" y="-61" font-family="Helvetica,sans-Serif" font-size="10.00">mem_r.h</text>
</a>
</g>
</g>
<!-- Node3&#45;&gt;Node7 -->
<g id="edge18_Node000003_Node000007" class="edge">
<title>Node3&#45;&gt;Node7</title>
<g id="a_edge18_Node000003_Node000007"><a xlink:title=" ">
<path fill="none" stroke="#63b8ff" d="M435.54,-229.13C346.62,-227.36 164.97,-219.51 113.32,-185 78.08,-161.46 59.4,-112.8 51.33,-85.51"/>
<polygon fill="#63b8ff" stroke="#63b8ff" points="54.45,-84.67 48.42,-75.96 47.7,-86.53 54.45,-84.67"/>
</a>
</g>
</g>
<!-- Node8 -->
<g id="Node000008" class="node">
<title>Node8</title>
<g id="a_Node000008"><a xlink:title=" ">
<polygon fill="#e0e0e0" stroke="#999999" points="103.94,-19.25 58.69,-19.25 58.69,0 103.94,0 103.94,-19.25"/>
<text text-anchor="middle" x="81.32" y="-5.75" font-family="Helvetica,sans-Serif" font-size="10.00">stdio.h</text>
</a>
</g>
</g>
<!-- Node3&#45;&gt;Node8 -->
<g id="edge44_Node000003_Node000008" class="edge">
<title>Node3&#45;&gt;Node8</title>
<g id="a_edge44_Node000003_Node000008"><a xlink:title=" ">
<path fill="none" stroke="#63b8ff" d="M435.49,-229.04C342.32,-227.13 145.93,-219.07 88.32,-185 30.4,-150.75 -22.23,-114.14 10.32,-55.25 18.56,-40.34 34.09,-29.74 48.54,-22.62"/>
<polygon fill="#63b8ff" stroke="#63b8ff" points="49.58,-25.54 57.26,-18.24 46.71,-19.16 49.58,-25.54"/>
</a>
</g>
</g>
<!-- Node9 -->
<g id="Node000009" class="node">
<title>Node9</title>
<g id="a_Node000009"><a xlink:href="../../d5/de0/qset__r_8h.html" target="_top" xlink:title=" ">
<polygon fill="white" stroke="#666666" points="141.57,-74.5 91.07,-74.5 91.07,-55.25 141.57,-55.25 141.57,-74.5"/>
<text text-anchor="middle" x="116.32" y="-61" font-family="Helvetica,sans-Serif" font-size="10.00">qset_r.h</text>
</a>
</g>
</g>
<!-- Node3&#45;&gt;Node9 -->
<g id="edge19_Node000003_Node000009" class="edge">
<title>Node3&#45;&gt;Node9</title>
<g id="a_edge19_Node000003_Node000009"><a xlink:title=" ">
<path fill="none" stroke="#63b8ff" d="M435.44,-226.76C342.53,-220.94 150.43,-206.45 129.32,-185 103.5,-158.77 107.16,-111.9 111.88,-85.45"/>
<polygon fill="#63b8ff" stroke="#63b8ff" points="115.47,-86.38 114.02,-75.88 108.61,-84.98 115.47,-86.38"/>
</a>
</g>
</g>
<!-- Node10 -->
<g id="Node000010" class="node">
<title>Node10</title>
<g id="a_Node000010"><a xlink:title=" ">
<polygon fill="#e0e0e0" stroke="#999999" points="252.07,-74.5 198.57,-74.5 198.57,-55.25 252.07,-55.25 252.07,-74.5"/>
<text text-anchor="middle" x="225.32" y="-61" font-family="Helvetica,sans-Serif" font-size="10.00">setjmp.h</text>
</a>
</g>
</g>
<!-- Node3&#45;&gt;Node10 -->
<g id="edge28_Node000003_Node000010" class="edge">
<title>Node3&#45;&gt;Node10</title>
<g id="a_edge28_Node000003_Node000010"><a xlink:title=" ">
<path fill="none" stroke="#63b8ff" d="M435.5,-226.75C344.84,-221 160.42,-206.74 141.32,-185 110.63,-150.07 167.25,-103.92 201.67,-80.65"/>
<polygon fill="#63b8ff" stroke="#63b8ff" points="203.27,-83.13 209.7,-74.72 199.42,-77.28 203.27,-83.13"/>
</a>
</g>
</g>
<!-- Node11 -->
<g id="Node000011" class="node">
<title>Node11</title>
<g id="a_Node000011"><a xlink:title=" ">
<polygon fill="#e0e0e0" stroke="#999999" points="644.82,-74.5 601.82,-74.5 601.82,-55.25 644.82,-55.25 644.82,-74.5"/>
<text text-anchor="middle" x="623.32" y="-61" font-family="Helvetica,sans-Serif" font-size="10.00">float.h</text>
</a>
</g>
</g>
<!-- Node3&#45;&gt;Node11 -->
<g id="edge40_Node000003_Node000011" class="edge">
<title>Node3&#45;&gt;Node11</title>
<g id="a_edge40_Node000003_Node000011"><a xlink:title=" ">
<path fill="none" stroke="#63b8ff" d="M535.17,-229.38C609.33,-227.83 743.23,-220.11 773.32,-185 814.6,-136.83 711.05,-94.29 655.6,-75.75"/>
<polygon fill="#63b8ff" stroke="#63b8ff" points="656.8,-72.14 646.21,-72.37 654.64,-78.79 656.8,-72.14"/>
</a>
</g>
</g>
<!-- Node12 -->
<g id="Node000012" class="node">
<title>Node12</title>
<g id="a_Node000012"><a xlink:href="../../de/d34/stat__r_8h.html" target="_top" xlink:title=" ">
<polygon fill="white" stroke="#666666" points="803.44,-74.5 755.19,-74.5 755.19,-55.25 803.44,-55.25 803.44,-74.5"/>
<text text-anchor="middle" x="779.32" y="-61" font-family="Helvetica,sans-Serif" font-size="10.00">stat_r.h</text>
</a>
</g>
</g>
<!-- Node3&#45;&gt;Node12 -->
<g id="edge15_Node000003_Node000012" class="edge">
<title>Node3&#45;&gt;Node12</title>
<g id="a_edge15_Node000003_Node000012"><a xlink:title=" ">
<path fill="none" stroke="#63b8ff" d="M535.38,-229.9C613.5,-229.14 758.83,-222.56 791.32,-185 815.47,-157.07 800.33,-110.55 788.79,-84.68"/>
<polygon fill="#63b8ff" stroke="#63b8ff" points="791.64,-83.51 784.2,-75.97 785.31,-86.51 791.64,-83.51"/>
</a>
</g>
</g>
<!-- Node13 -->
<g id="Node000013" class="node">
<title>Node13</title>
<g id="a_Node000013"><a xlink:href="../../d3/d64/random__r_8h.html" target="_top" xlink:title=" ">
<polygon fill="white" stroke="#666666" points="225.32,-185 161.32,-185 161.32,-165.75 225.32,-165.75 225.32,-185"/>
<text text-anchor="middle" x="193.32" y="-171.5" font-family="Helvetica,sans-Serif" font-size="10.00">random_r.h</text>
</a>
</g>
</g>
<!-- Node3&#45;&gt;Node13 -->
<g id="edge16_Node000003_Node000013" class="edge">
<title>Node3&#45;&gt;Node13</title>
<g id="a_edge16_Node000003_Node000013"><a xlink:title=" ">
<path fill="none" stroke="#63b8ff" d="M435.23,-221.2C386.78,-212.94 311.02,-199.74 236.09,-185.3"/>
<polygon fill="#63b8ff" stroke="#63b8ff" points="237.01,-181.72 226.53,-183.25 235.68,-188.59 237.01,-181.72"/>
</a>
</g>
</g>
<!-- Node14 -->
<g id="Node000014" class="node">
<title>Node14</title>
<g id="a_Node000014"><a xlink:href="../../d8/dd7/geom__r_8h.html" target="_top" xlink:title=" ">
<polygon fill="white" stroke="#666666" points="299.19,-185 243.44,-185 243.44,-165.75 299.19,-165.75 299.19,-185"/>
<text text-anchor="middle" x="271.32" y="-171.5" font-family="Helvetica,sans-Serif" font-size="10.00">geom_r.h</text>
</a>
</g>
</g>
<!-- Node3&#45;&gt;Node14 -->
<g id="edge20_Node000003_Node000014" class="edge">
<title>Node3&#45;&gt;Node14</title>
<g id="a_edge20_Node000003_Node000014"><a xlink:title=" ">
<path fill="none" stroke="#63b8ff" d="M449.02,-220.59C410.43,-210.99 349.64,-195.86 310.12,-186.03"/>
<polygon fill="#63b8ff" stroke="#63b8ff" points="311.13,-182.43 300.58,-183.41 309.44,-189.22 311.13,-182.43"/>
</a>
</g>
</g>
<!-- Node15 -->
<g id="Node000015" class="node">
<title>Node15</title>
<g id="a_Node000015"><a xlink:href="../../d5/d6e/merge__r_8h.html" target="_top" xlink:title=" ">
<polygon fill="white" stroke="#666666" points="375.69,-185 316.94,-185 316.94,-165.75 375.69,-165.75 375.69,-185"/>
<text text-anchor="middle" x="346.32" y="-171.5" font-family="Helvetica,sans-Serif" font-size="10.00">merge_r.h</text>
</a>
</g>
</g>
<!-- Node3&#45;&gt;Node15 -->
<g id="edge22_Node000003_Node000015" class="edge">
<title>Node3&#45;&gt;Node15</title>
<g id="a_edge22_Node000003_Node000015"><a xlink:title=" ">
<path fill="none" stroke="#63b8ff" d="M461.74,-220.59C439.37,-212.02 405.52,-199.06 380.26,-189.38"/>
<polygon fill="#63b8ff" stroke="#63b8ff" points="381.6,-185.76 371.01,-185.45 379.1,-192.3 381.6,-185.76"/>
</a>
</g>
</g>
<!-- Node16 -->
<g id="Node000016" class="node">
<title>Node16</title>
<g id="a_Node000016"><a xlink:href="../../de/d56/poly__r_8h.html" target="_top" xlink:title=" ">
<polygon fill="white" stroke="#666666" points="443.19,-185 393.44,-185 393.44,-165.75 443.19,-165.75 443.19,-185"/>
<text text-anchor="middle" x="418.32" y="-171.5" font-family="Helvetica,sans-Serif" font-size="10.00">poly_r.h</text>
</a>
</g>
</g>
<!-- Node3&#45;&gt;Node16 -->
<g id="edge24_Node000003_Node000016" class="edge">
<title>Node3&#45;&gt;Node16</title>
<g id="a_edge24_Node000003_Node000016"><a xlink:title=" ">
<path fill="none" stroke="#63b8ff" d="M473.95,-220.59C464.07,-212.74 449.55,-201.2 437.82,-191.87"/>
<polygon fill="#63b8ff" stroke="#63b8ff" points="440.52,-188.76 430.51,-185.27 436.17,-194.24 440.52,-188.76"/>
</a>
</g>
</g>
<!-- Node17 -->
<g id="Node000017" class="node">
<title>Node17</title>
<g id="a_Node000017"><a xlink:href="../../de/d42/io__r_8h.html" target="_top" xlink:title=" ">
<polygon fill="white" stroke="#666666" points="566.94,-185 527.69,-185 527.69,-165.75 566.94,-165.75 566.94,-185"/>
<text text-anchor="middle" x="547.32" y="-171.5" font-family="Helvetica,sans-Serif" font-size="10.00">io_r.h</text>
</a>
</g>
</g>
<!-- Node3&#45;&gt;Node17 -->
<g id="edge26_Node000003_Node000017" class="edge">
<title>Node3&#45;&gt;Node17</title>
<g id="a_edge26_Node000003_Node000017"><a xlink:title=" ">
<path fill="none" stroke="#63b8ff" d="M495.83,-220.59C504.8,-212.9 517.89,-201.65 528.63,-192.43"/>
<polygon fill="#63b8ff" stroke="#63b8ff" points="530.65,-194.45 535.96,-185.27 526.09,-189.14 530.65,-194.45"/>
</a>
</g>
</g>
<!-- Node18 -->
<g id="Node000018" class="node">
<title>Node18</title>
<g id="a_Node000018"><a xlink:title=" ">
<polygon fill="#e0e0e0" stroke="#999999" points="509.44,-185 461.19,-185 461.19,-165.75 509.44,-165.75 509.44,-185"/>
<text text-anchor="middle" x="485.32" y="-171.5" font-family="Helvetica,sans-Serif" font-size="10.00">string.h</text>
</a>
</g>
</g>
<!-- Node3&#45;&gt;Node18 -->
<g id="edge29_Node000003_Node000018" class="edge">
<title>Node3&#45;&gt;Node18</title>
<g id="a_edge29_Node000003_Node000018"><a xlink:title=" ">
<path fill="none" stroke="#63b8ff" d="M485.32,-220.83C485.32,-214.17 485.32,-204.74 485.32,-196.28"/>
<polygon fill="#63b8ff" stroke="#63b8ff" points="488.82,-196.36 485.32,-186.36 481.82,-196.36 488.82,-196.36"/>
</a>
</g>
</g>
<!-- Node19 -->
<g id="Node000019" class="node">
<title>Node19</title>
<g id="a_Node000019"><a xlink:href="../../df/db1/math_8h.html" target="_top" xlink:title=" ">
<polygon fill="white" stroke="#666666" points="1060.32,-185 1014.32,-185 1014.32,-165.75 1060.32,-165.75 1060.32,-185"/>
<text text-anchor="middle" x="1037.32" y="-171.5" font-family="Helvetica,sans-Serif" font-size="10.00">math.h</text>
</a>
</g>
</g>
<!-- Node3&#45;&gt;Node19 -->
<g id="edge30_Node000003_Node000019" class="edge">
<title>Node3&#45;&gt;Node19</title>
<g id="a_edge30_Node000003_Node000019"><a xlink:title=" ">
<path fill="none" stroke="#63b8ff" d="M535.28,-224.81C645.84,-214.14 908.89,-188.76 1003.05,-179.68"/>
<polygon fill="#63b8ff" stroke="#63b8ff" points="1003.31,-183.08 1012.93,-178.63 1002.64,-176.11 1003.31,-183.08"/>
</a>
</g>
</g>
<!-- Node28 -->
<g id="Node000028" class="node">
<title>Node28</title>
<g id="a_Node000028"><a xlink:title=" ">
<polygon fill="#e0e0e0" stroke="#999999" points="632.07,-185 584.57,-185 584.57,-165.75 632.07,-165.75 632.07,-185"/>
<text text-anchor="middle" x="608.32" y="-171.5" font-family="Helvetica,sans-Serif" font-size="10.00">limits.h</text>
</a>
</g>
</g>
<!-- Node3&#45;&gt;Node28 -->
<g id="edge41_Node000003_Node000028" class="edge">
<title>Node3&#45;&gt;Node28</title>
<g id="a_edge41_Node000003_Node000028"><a xlink:title=" ">
<path fill="none" stroke="#63b8ff" d="M506.18,-220.59C525.71,-212.14 555.13,-199.4 577.38,-189.77"/>
<polygon fill="#63b8ff" stroke="#63b8ff" points="578.56,-192.64 586.35,-185.45 575.78,-186.21 578.56,-192.64"/>
</a>
</g>
</g>
<!-- Node29 -->
<g id="Node000029" class="node">
<title>Node29</title>
<g id="a_Node000029"><a xlink:title=" ">
<polygon fill="#e0e0e0" stroke="#999999" points="698.44,-185 650.19,-185 650.19,-165.75 698.44,-165.75 698.44,-185"/>
<text text-anchor="middle" x="674.32" y="-171.5" font-family="Helvetica,sans-Serif" font-size="10.00">ctype.h</text>
</a>
</g>
</g>
<!-- Node3&#45;&gt;Node29 -->
<g id="edge43_Node000003_Node000029" class="edge">
<title>Node3&#45;&gt;Node29</title>
<g id="a_edge43_Node000003_Node000029"><a xlink:title=" ">
<path fill="none" stroke="#63b8ff" d="M517.38,-220.59C551.36,-211.02 604.83,-195.95 639.73,-186.12"/>
<polygon fill="#63b8ff" stroke="#63b8ff" points="640.25,-189.33 648.93,-183.25 638.35,-182.59 640.25,-189.33"/>
</a>
</g>
</g>
<!-- Node30 -->
<g id="Node000030" class="node">
<title>Node30</title>
<g id="a_Node000030"><a xlink:title=" ">
<polygon fill="#e0e0e0" stroke="#999999" points="764.07,-185 716.57,-185 716.57,-165.75 764.07,-165.75 764.07,-185"/>
<text text-anchor="middle" x="740.32" y="-171.5" font-family="Helvetica,sans-Serif" font-size="10.00">stdlib.h</text>
</a>
</g>
</g>
<!-- Node3&#45;&gt;Node30 -->
<g id="edge45_Node000003_Node000030" class="edge">
<title>Node3&#45;&gt;Node30</title>
<g id="a_edge45_Node000003_Node000030"><a xlink:title=" ">
<path fill="none" stroke="#63b8ff" d="M534.87,-220.51C577.68,-212.44 641.45,-199.97 705.86,-185.23"/>
<polygon fill="#63b8ff" stroke="#63b8ff" points="706.25,-188.5 715.21,-182.85 704.68,-181.68 706.25,-188.5"/>
</a>
</g>
</g>
<!-- Node5 -->
<g id="Node000005" class="node">
<title>Node5</title>
<g id="a_Node000005"><a xlink:href="../../d0/d30/user__r_8h.html" target="_top" xlink:title=" ">
<polygon fill="white" stroke="#666666" points="958.57,-74.5 908.07,-74.5 908.07,-55.25 958.57,-55.25 958.57,-74.5"/>
<text text-anchor="middle" x="933.32" y="-61" font-family="Helvetica,sans-Serif" font-size="10.00">user_r.h</text>
</a>
</g>
</g>
<!-- Node4&#45;&gt;Node5 -->
<g id="edge4_Node000004_Node000005" class="edge">
<title>Node4&#45;&gt;Node5</title>
<g id="a_edge4_Node000004_Node000005"><a xlink:title=" ">
<path fill="none" stroke="#63b8ff" d="M340.69,-116.45C445.7,-107.49 784.58,-78.57 896.82,-68.99"/>
<polygon fill="#63b8ff" stroke="#63b8ff" points="896.9,-72.41 906.57,-68.07 896.31,-65.44 896.9,-72.41"/>
</a>
</g>
</g>
<!-- Node4&#45;&gt;Node6 -->
<g id="edge12_Node000004_Node000006" class="edge">
<title>Node4&#45;&gt;Node6</title>
<g id="a_edge12_Node000004_Node000006"><a xlink:title=" ">
<path fill="none" stroke="#63b8ff" d="M340.65,-111.1C392.78,-97.96 500.77,-71.7 593.32,-55.25 705.38,-35.34 839.68,-20.28 900.51,-13.93"/>
<polygon fill="#63b8ff" stroke="#63b8ff" points="900.75,-17.32 910.33,-12.81 900.03,-10.36 900.75,-17.32"/>
</a>
</g>
</g>
<!-- Node4&#45;&gt;Node7 -->
<g id="edge6_Node000004_Node000007" class="edge">
<title>Node4&#45;&gt;Node7</title>
<g id="a_edge6_Node000004_Node000007"><a xlink:title=" ">
<path fill="none" stroke="#63b8ff" d="M278.02,-113.39C236.14,-105.63 159.28,-91.07 84.02,-74.8"/>
<polygon fill="#63b8ff" stroke="#63b8ff" points="84.93,-71.2 74.42,-72.49 83.44,-78.04 84.93,-71.2"/>
</a>
</g>
</g>
<!-- Node4&#45;&gt;Node8 -->
<g id="edge13_Node000004_Node000008" class="edge">
<title>Node4&#45;&gt;Node8</title>
<g id="a_edge13_Node000004_Node000008"><a xlink:title=" ">
<path fill="none" stroke="#63b8ff" d="M305.11,-110.15C298.09,-96.17 282.6,-69.34 261.32,-55.25 216.36,-25.49 153.19,-15.57 114.88,-12.27"/>
<polygon fill="#63b8ff" stroke="#63b8ff" points="115.53,-8.73 105.3,-11.47 115.01,-15.71 115.53,-8.73"/>
</a>
</g>
</g>
<!-- Node4&#45;&gt;Node9 -->
<g id="edge8_Node000004_Node000009" class="edge">
<title>Node4&#45;&gt;Node9</title>
<g id="a_edge8_Node000004_Node000009"><a xlink:title=" ">
<path fill="none" stroke="#63b8ff" d="M278.31,-110.57C244.03,-101.11 188.87,-85.89 152.6,-75.89"/>
<polygon fill="#63b8ff" stroke="#63b8ff" points="153.57,-72.25 143,-72.96 151.71,-78.99 153.57,-72.25"/>
</a>
</g>
</g>
<!-- Node4&#45;&gt;Node10 -->
<g id="edge10_Node000004_Node000010" class="edge">
<title>Node4&#45;&gt;Node10</title>
<g id="a_edge10_Node000004_Node000010"><a xlink:title=" ">
<path fill="none" stroke="#63b8ff" d="M295.07,-110.09C282.4,-102.06 263.63,-90.16 248.75,-80.73"/>
<polygon fill="#63b8ff" stroke="#63b8ff" points="250.96,-77.35 240.64,-74.95 247.21,-83.26 250.96,-77.35"/>
</a>
</g>
</g>
<!-- Node4&#45;&gt;Node11 -->
<g id="edge11_Node000004_Node000011" class="edge">
<title>Node4&#45;&gt;Node11</title>
<g id="a_edge11_Node000004_Node000011"><a xlink:title=" ">
<path fill="none" stroke="#63b8ff" d="M340.57,-113.82C400.32,-103.69 530.19,-81.67 590.86,-71.38"/>
<polygon fill="#63b8ff" stroke="#63b8ff" points="591.42,-74.66 600.7,-69.54 590.25,-67.76 591.42,-74.66"/>
</a>
</g>
</g>
<!-- Node4&#45;&gt;Node12 -->
<g id="edge14_Node000004_Node000012" class="edge">
<title>Node4&#45;&gt;Node12</title>
<g id="a_edge14_Node000004_Node000012"><a xlink:title=" ">
<path fill="none" stroke="#63b8ff" d="M340.52,-115.59C424.58,-106.07 655.42,-79.91 744.04,-69.87"/>
<polygon fill="#63b8ff" stroke="#63b8ff" points="744.3,-73.25 753.85,-68.65 743.52,-66.3 744.3,-73.25"/>
</a>
</g>
</g>
<!-- Node5&#45;&gt;Node6 -->
<g id="edge5_Node000005_Node000006" class="edge">
<title>Node5&#45;&gt;Node6</title>
<g id="a_edge5_Node000005_Node000006"><a xlink:title=" ">
<path fill="none" stroke="#63b8ff" d="M933.32,-55.08C933.32,-48.42 933.32,-38.99 933.32,-30.53"/>
<polygon fill="#63b8ff" stroke="#63b8ff" points="936.82,-30.61 933.32,-20.61 929.82,-30.61 936.82,-30.61"/>
</a>
</g>
</g>
<!-- Node7&#45;&gt;Node8 -->
<g id="edge7_Node000007_Node000008" class="edge">
<title>Node7&#45;&gt;Node8</title>
<g id="a_edge7_Node000007_Node000008"><a xlink:title=" ">
<path fill="none" stroke="#63b8ff" d="M52.1,-55.08C56.78,-47.96 63.54,-37.68 69.37,-28.8"/>
<polygon fill="#63b8ff" stroke="#63b8ff" points="72.84,-30.89 75.41,-20.61 66.99,-27.04 72.84,-30.89"/>
</a>
</g>
</g>
<!-- Node9&#45;&gt;Node8 -->
<g id="edge9_Node000009_Node000008" class="edge">
<title>Node9&#45;&gt;Node8</title>
<g id="a_edge9_Node000009_Node000008"><a xlink:title=" ">
<path fill="none" stroke="#63b8ff" d="M110.54,-55.08C105.85,-47.96 99.1,-37.68 93.26,-28.8"/>
<polygon fill="#63b8ff" stroke="#63b8ff" points="95.64,-27.04 87.22,-20.61 89.79,-30.89 95.64,-27.04"/>
</a>
</g>
</g>
<!-- Node13&#45;&gt;Node4 -->
<g id="edge17_Node000013_Node000004" class="edge">
<title>Node13&#45;&gt;Node4</title>
<g id="a_edge17_Node000013_Node000004"><a xlink:title=" ">
<path fill="none" stroke="#63b8ff" d="M213,-165.34C231.24,-156.97 258.65,-144.38 279.57,-134.78"/>
<polygon fill="#63b8ff" stroke="#63b8ff" points="280.91,-137.56 288.54,-130.2 277.99,-131.19 280.91,-137.56"/>
</a>
</g>
</g>
<!-- Node14&#45;&gt;Node4 -->
<g id="edge21_Node000014_Node000004" class="edge">
<title>Node14&#45;&gt;Node4</title>
<g id="a_edge21_Node000014_Node000004"><a xlink:title=" ">
<path fill="none" stroke="#63b8ff" d="M277.59,-165.58C282.73,-158.38 290.17,-147.96 296.55,-139.01"/>
<polygon fill="#63b8ff" stroke="#63b8ff" points="299.95,-141.28 302.91,-131.11 294.25,-137.22 299.95,-141.28"/>
</a>
</g>
</g>
<!-- Node15&#45;&gt;Node4 -->
<g id="edge23_Node000015_Node000004" class="edge">
<title>Node15&#45;&gt;Node4</title>
<g id="a_edge23_Node000015_Node000004"><a xlink:title=" ">
<path fill="none" stroke="#63b8ff" d="M340.21,-165.58C335.2,-158.38 327.96,-147.96 321.75,-139.01"/>
<polygon fill="#63b8ff" stroke="#63b8ff" points="324.14,-137.32 315.56,-131.11 318.39,-141.32 324.14,-137.32"/>
</a>
</g>
</g>
<!-- Node16&#45;&gt;Node4 -->
<g id="edge25_Node000016_Node000004" class="edge">
<title>Node16&#45;&gt;Node4</title>
<g id="a_edge25_Node000016_Node000004"><a xlink:title=" ">
<path fill="none" stroke="#63b8ff" d="M399.83,-165.34C382.76,-157 357.16,-144.5 337.54,-134.91"/>
<polygon fill="#63b8ff" stroke="#63b8ff" points="339.42,-131.45 328.9,-130.2 336.35,-137.74 339.42,-131.45"/>
</a>
</g>
</g>
<!-- Node17&#45;&gt;Node4 -->
<g id="edge27_Node000017_Node000004" class="edge">
<title>Node17&#45;&gt;Node4</title>
<g id="a_edge27_Node000017_Node000004"><a xlink:title=" ">
<path fill="none" stroke="#63b8ff" d="M527.41,-168.23C524.37,-167.36 521.27,-166.5 518.32,-165.75 460.89,-151.1 393.76,-137.36 351.4,-129.1"/>
<polygon fill="#63b8ff" stroke="#63b8ff" points="352.14,-125.48 341.66,-127.02 350.81,-132.36 352.14,-125.48"/>
</a>
</g>
</g>
<!-- Node20 -->
<g id="Node000020" class="node">
<title>Node20</title>
<g id="a_Node000020"><a xlink:title=" ">
<polygon fill="#e0e0e0" stroke="#999999" points="1008.82,-129.75 965.82,-129.75 965.82,-110.5 1008.82,-110.5 1008.82,-129.75"/>
<text text-anchor="middle" x="987.32" y="-116.25" font-family="Helvetica,sans-Serif" font-size="10.00">cmath</text>
</a>
</g>
</g>
<!-- Node19&#45;&gt;Node20 -->
<g id="edge31_Node000019_Node000020" class="edge">
<title>Node19&#45;&gt;Node20</title>
<g id="a_edge31_Node000019_Node000020"><a xlink:title=" ">
<path fill="none" stroke="#63b8ff" d="M1029.06,-165.58C1022.01,-158.07 1011.67,-147.06 1003.05,-137.88"/>
<polygon fill="#63b8ff" stroke="#63b8ff" points="1006.15,-136 996.75,-131.11 1001.05,-140.8 1006.15,-136"/>
</a>
</g>
</g>
<!-- Node19&#45;&gt;Node21 -->
<g id="edge32_Node000019_Node000021" class="edge">
<title>Node19&#45;&gt;Node21</title>
<g id="a_edge32_Node000019_Node000021"><a xlink:title=" ">
<path fill="none" stroke="#63b8ff" d="M1039.8,-165.67C1043.34,-153.34 1050.1,-130.13 1056.32,-110.5 1058.97,-102.12 1062.04,-92.91 1064.71,-85.05"/>
<polygon fill="#63b8ff" stroke="#63b8ff" points="1068.31,-86.33 1068.24,-75.74 1061.69,-84.06 1068.31,-86.33"/>
</a>
</g>
</g>
<!-- Node22 -->
<g id="Node000022" class="node">
<title>Node22</title>
<g id="a_Node000022"><a xlink:title=" ">
<polygon fill="#e0e0e0" stroke="#999999" points="1104.94,-129.75 1065.69,-129.75 1065.69,-110.5 1104.94,-110.5 1104.94,-129.75"/>
<text text-anchor="middle" x="1085.32" y="-116.25" font-family="Helvetica,sans-Serif" font-size="10.00">limits</text>
</a>
</g>
</g>
<!-- Node19&#45;&gt;Node22 -->
<g id="edge33_Node000019_Node000022" class="edge">
<title>Node19&#45;&gt;Node22</title>
<g id="a_edge33_Node000019_Node000022"><a xlink:title=" ">
<path fill="none" stroke="#63b8ff" d="M1045.24,-165.58C1051.94,-158.15 1061.73,-147.29 1069.96,-138.16"/>
<polygon fill="#63b8ff" stroke="#63b8ff" points="1072.12,-140.88 1076.22,-131.11 1066.92,-136.19 1072.12,-140.88"/>
</a>
</g>
</g>
<!-- Node23 -->
<g id="Node000023" class="node">
<title>Node23</title>
<g id="a_Node000023"><a xlink:title=" ">
<polygon fill="#e0e0e0" stroke="#999999" points="947.94,-129.75 896.69,-129.75 896.69,-110.5 947.94,-110.5 947.94,-129.75"/>
<text text-anchor="middle" x="922.32" y="-116.25" font-family="Helvetica,sans-Serif" font-size="10.00">memory</text>
</a>
</g>
</g>
<!-- Node19&#45;&gt;Node23 -->
<g id="edge34_Node000019_Node000023" class="edge">
<title>Node19&#45;&gt;Node23</title>
<g id="a_edge34_Node000019_Node000023"><a xlink:title=" ">
<path fill="none" stroke="#63b8ff" d="M1017.81,-165.34C999.72,-156.97 972.55,-144.38 951.81,-134.78"/>
<polygon fill="#63b8ff" stroke="#63b8ff" points="953.47,-131.23 942.92,-130.2 950.52,-137.58 953.47,-131.23"/>
</a>
</g>
</g>
<!-- Node19&#45;&gt;Node24 -->
<g id="edge35_Node000019_Node000024" class="edge">
<title>Node19&#45;&gt;Node24</title>
<g id="a_edge35_Node000019_Node000024"><a xlink:title=" ">
<path fill="none" stroke="#63b8ff" d="M1060.65,-169.51C1095.69,-162.1 1164.18,-147.26 1231.11,-130.22"/>
<polygon fill="#63b8ff" stroke="#63b8ff" points="1231.58,-133.45 1240.4,-127.58 1229.84,-126.67 1231.58,-133.45"/>
</a>
</g>
</g>
<!-- Node25 -->
<g id="Node000025" class="node">
<title>Node25</title>
<g id="a_Node000025"><a xlink:href="../../d5/d60/utils_8h.html" target="_top" xlink:title=" ">
<polygon fill="white" stroke="#666666" points="1224.07,-129.75 1122.57,-129.75 1122.57,-110.5 1224.07,-110.5 1224.07,-129.75"/>
<text text-anchor="middle" x="1173.32" y="-116.25" font-family="Helvetica,sans-Serif" font-size="10.00">mcut/internal/utils.h</text>
</a>
</g>
</g>
<!-- Node19&#45;&gt;Node25 -->
<g id="edge36_Node000019_Node000025" class="edge">
<title>Node19&#45;&gt;Node25</title>
<g id="a_edge36_Node000019_Node000025"><a xlink:title=" ">
<path fill="none" stroke="#63b8ff" d="M1060.39,-165.34C1082.27,-156.77 1115.39,-143.81 1140.11,-134.13"/>
<polygon fill="#63b8ff" stroke="#63b8ff" points="1141.1,-137.11 1149.13,-130.2 1138.55,-130.59 1141.1,-137.11"/>
</a>
</g>
</g>
<!-- Node25&#45;&gt;Node21 -->
<g id="edge38_Node000025_Node000021" class="edge">
<title>Node25&#45;&gt;Node21</title>
<g id="a_edge38_Node000025_Node000021"><a xlink:title=" ">
<path fill="none" stroke="#63b8ff" d="M1156.01,-110.09C1140.19,-101.83 1116.53,-89.48 1098.23,-79.93"/>
<polygon fill="#63b8ff" stroke="#63b8ff" points="1100.19,-76.48 1089.71,-74.95 1096.95,-82.68 1100.19,-76.48"/>
</a>
</g>
</g>
<!-- Node26 -->
<g id="Node000026" class="node">
<title>Node26</title>
<g id="a_Node000026"><a xlink:title=" ">
<polygon fill="#e0e0e0" stroke="#999999" points="1197.82,-74.5 1148.82,-74.5 1148.82,-55.25 1197.82,-55.25 1197.82,-74.5"/>
<text text-anchor="middle" x="1173.32" y="-61" font-family="Helvetica,sans-Serif" font-size="10.00">fstream</text>
</a>
</g>
</g>
<!-- Node25&#45;&gt;Node26 -->
<g id="edge37_Node000025_Node000026" class="edge">
<title>Node25&#45;&gt;Node26</title>
<g id="a_edge37_Node000025_Node000026"><a xlink:title=" ">
<path fill="none" stroke="#63b8ff" d="M1173.32,-110.33C1173.32,-103.67 1173.32,-94.24 1173.32,-85.78"/>
<polygon fill="#63b8ff" stroke="#63b8ff" points="1176.82,-85.86 1173.32,-75.86 1169.82,-85.86 1176.82,-85.86"/>
</a>
</g>
</g>
<!-- Node25&#45;&gt;Node27 -->
<g id="edge39_Node000025_Node000027" class="edge">
<title>Node25&#45;&gt;Node27</title>
<g id="a_edge39_Node000025_Node000027"><a xlink:title=" ">
<path fill="none" stroke="#63b8ff" d="M1212.94,-110.03C1256.54,-100.02 1326.05,-84.07 1368.5,-74.33"/>
<polygon fill="#63b8ff" stroke="#63b8ff" points="1369.23,-77.52 1378.2,-71.87 1367.67,-70.7 1369.23,-77.52"/>
</a>
</g>
</g>
<!-- Node33 -->
<g id="Node000033" class="node">
<title>Node33</title>
<g id="a_Node000033"><a xlink:href="../../d8/de2/_road_error_8h.html" target="_top" xlink:title=" ">
<polygon fill="white" stroke="#666666" points="1533.57,-129.75 1417.07,-129.75 1417.07,-110.5 1533.57,-110.5 1533.57,-129.75"/>
<text text-anchor="middle" x="1475.32" y="-116.25" font-family="Helvetica,sans-Serif" font-size="10.00">libqhullcpp/RoadError.h</text>
</a>
</g>
</g>
<!-- Node32&#45;&gt;Node33 -->
<g id="edge49_Node000032_Node000033" class="edge">
<title>Node32&#45;&gt;Node33</title>
<g id="a_edge49_Node000032_Node000033"><a xlink:title=" ">
<path fill="none" stroke="#63b8ff" d="M1475.32,-165.58C1475.32,-158.92 1475.32,-149.49 1475.32,-141.03"/>
<polygon fill="#63b8ff" stroke="#63b8ff" points="1478.82,-141.11 1475.32,-131.11 1471.82,-141.11 1478.82,-141.11"/>
</a>
</g>
</g>
<!-- Node37 -->
<g id="Node000037" class="node">
<title>Node37</title>
<g id="a_Node000037"><a xlink:title=" ">
<polygon fill="#e0e0e0" stroke="#999999" points="1602.94,-129.75 1551.69,-129.75 1551.69,-110.5 1602.94,-110.5 1602.94,-129.75"/>
<text text-anchor="middle" x="1577.32" y="-116.25" font-family="Helvetica,sans-Serif" font-size="10.00">assert.h</text>
</a>
</g>
</g>
<!-- Node32&#45;&gt;Node37 -->
<g id="edge59_Node000032_Node000037" class="edge">
<title>Node32&#45;&gt;Node37</title>
<g id="a_edge59_Node000032_Node000037"><a xlink:title=" ">
<path fill="none" stroke="#63b8ff" d="M1492.62,-165.34C1508.45,-157.08 1532.11,-144.73 1550.4,-135.18"/>
<polygon fill="#63b8ff" stroke="#63b8ff" points="1551.68,-137.93 1558.93,-130.2 1548.44,-131.73 1551.68,-137.93"/>
</a>
</g>
</g>
<!-- Node33&#45;&gt;Node5 -->
<g id="edge50_Node000033_Node000005" class="edge">
<title>Node33&#45;&gt;Node5</title>
<g id="a_edge50_Node000033_Node000005"><a xlink:title=" ">
<path fill="none" stroke="#63b8ff" d="M1416.8,-113.38C1304.46,-102.34 1061.6,-78.48 969.62,-69.44"/>
<polygon fill="#63b8ff" stroke="#63b8ff" points="970.21,-65.88 959.92,-68.39 969.53,-72.85 970.21,-65.88"/>
</a>
</g>
</g>
<!-- Node33&#45;&gt;Node21 -->
<g id="edge55_Node000033_Node000021" class="edge">
<title>Node33&#45;&gt;Node21</title>
<g id="a_edge55_Node000033_Node000021"><a xlink:title=" ">
<path fill="none" stroke="#63b8ff" d="M1416.57,-111.38C1332.23,-100.27 1179.25,-80.1 1108.74,-70.81"/>
<polygon fill="#63b8ff" stroke="#63b8ff" points="1109.53,-67.25 1099.16,-69.41 1108.62,-74.19 1109.53,-67.25"/>
</a>
</g>
</g>
<!-- Node33&#45;&gt;Node27 -->
<g id="edge56_Node000033_Node000027" class="edge">
<title>Node33&#45;&gt;Node27</title>
<g id="a_edge56_Node000033_Node000027"><a xlink:title=" ">
<path fill="none" stroke="#63b8ff" d="M1463.44,-110.09C1453.12,-102.24 1437.95,-90.7 1425.69,-81.37"/>
<polygon fill="#63b8ff" stroke="#63b8ff" points="1428.09,-78.04 1418.02,-74.77 1423.86,-83.61 1428.09,-78.04"/>
</a>
</g>
</g>
<!-- Node33&#45;&gt;Node31 -->
<g id="edge58_Node000033_Node000031" class="edge">
<title>Node33&#45;&gt;Node31</title>
<g id="a_edge58_Node000033_Node000031"><a xlink:title=" ">
<path fill="none" stroke="#63b8ff" d="M1474.01,-110.25C1471.45,-92.92 1465.75,-54.23 1462.25,-30.49"/>
<polygon fill="#63b8ff" stroke="#63b8ff" points="1465.57,-30.01 1460.64,-20.63 1458.64,-31.03 1465.57,-30.01"/>
</a>
</g>
</g>
<!-- Node34 -->
<g id="Node000034" class="node">
<title>Node34</title>
<g id="a_Node000034"><a xlink:href="../../d9/d86/_road_log_event_8h.html" target="_top" xlink:title=" ">
<polygon fill="white" stroke="#666666" points="1625.07,-74.5 1487.57,-74.5 1487.57,-55.25 1625.07,-55.25 1625.07,-74.5"/>
<text text-anchor="middle" x="1556.32" y="-61" font-family="Helvetica,sans-Serif" font-size="10.00">libqhullcpp/RoadLogEvent.h</text>
</a>
</g>
</g>
<!-- Node33&#45;&gt;Node34 -->
<g id="edge51_Node000033_Node000034" class="edge">
<title>Node33&#45;&gt;Node34</title>
<g id="a_edge51_Node000033_Node000034"><a xlink:title=" ">
<path fill="none" stroke="#63b8ff" d="M1489.06,-110.09C1501.28,-102.06 1519.38,-90.16 1533.72,-80.73"/>
<polygon fill="#63b8ff" stroke="#63b8ff" points="1535.08,-83.37 1541.51,-74.95 1531.23,-77.52 1535.08,-83.37"/>
</a>
</g>
</g>
<!-- Node36 -->
<g id="Node000036" class="node">
<title>Node36</title>
<g id="a_Node000036"><a xlink:title=" ">
<polygon fill="#e0e0e0" stroke="#999999" points="1670.69,-19.25 1611.94,-19.25 1611.94,0 1670.69,0 1670.69,-19.25"/>
<text text-anchor="middle" x="1641.32" y="-5.75" font-family="Helvetica,sans-Serif" font-size="10.00">stdexcept</text>
</a>
</g>
</g>
<!-- Node33&#45;&gt;Node36 -->
<g id="edge57_Node000033_Node000036" class="edge">
<title>Node33&#45;&gt;Node36</title>
<g id="a_edge57_Node000033_Node000036"><a xlink:title=" ">
<path fill="none" stroke="#63b8ff" d="M1532.32,-110.02C1572.33,-102.4 1620.97,-90.25 1634.32,-74.5 1644.47,-62.52 1645.58,-44.4 1644.51,-30.52"/>
<polygon fill="#63b8ff" stroke="#63b8ff" points="1647.87,-30.17 1643.19,-20.67 1640.92,-31.02 1647.87,-30.17"/>
</a>
</g>
</g>
<!-- Node34&#45;&gt;Node31 -->
<g id="edge54_Node000034_Node000031" class="edge">
<title>Node34&#45;&gt;Node31</title>
<g id="a_edge54_Node000034_Node000031"><a xlink:title=" ">
<path fill="none" stroke="#63b8ff" d="M1539.86,-54.84C1524.95,-46.66 1502.73,-34.46 1485.4,-24.94"/>
<polygon fill="#63b8ff" stroke="#63b8ff" points="1487.3,-21.45 1476.85,-19.7 1483.93,-27.58 1487.3,-21.45"/>
</a>
</g>
</g>
<!-- Node35 -->
<g id="Node000035" class="node">
<title>Node35</title>
<g id="a_Node000035"><a xlink:title=" ">
<polygon fill="#e0e0e0" stroke="#999999" points="1581.94,-19.25 1530.69,-19.25 1530.69,0 1581.94,0 1581.94,-19.25"/>
<text text-anchor="middle" x="1556.32" y="-5.75" font-family="Helvetica,sans-Serif" font-size="10.00">ostream</text>
</a>
</g>
</g>
<!-- Node34&#45;&gt;Node35 -->
<g id="edge52_Node000034_Node000035" class="edge">
<title>Node34&#45;&gt;Node35</title>
<g id="a_edge52_Node000034_Node000035"><a xlink:title=" ">
<path fill="none" stroke="#63b8ff" d="M1556.32,-55.08C1556.32,-48.42 1556.32,-38.99 1556.32,-30.53"/>
<polygon fill="#63b8ff" stroke="#63b8ff" points="1559.82,-30.61 1556.32,-20.61 1552.82,-30.61 1559.82,-30.61"/>
</a>
</g>
</g>
<!-- Node34&#45;&gt;Node36 -->
<g id="edge53_Node000034_Node000036" class="edge">
<title>Node34&#45;&gt;Node36</title>
<g id="a_edge53_Node000034_Node000036"><a xlink:title=" ">
<path fill="none" stroke="#63b8ff" d="M1570.74,-54.84C1583.56,-46.81 1602.55,-34.91 1617.61,-25.48"/>
<polygon fill="#63b8ff" stroke="#63b8ff" points="1619.21,-27.98 1625.83,-19.7 1615.49,-22.05 1619.21,-27.98"/>
</a>
</g>
</g>
</g>
</svg>
