<?xml version="1.0" encoding="UTF-8" standalone="no"?>
<!DOCTYPE svg PUBLIC "-//W3C//DTD SVG 1.1//EN"
 "http://www.w3.org/Graphics/SVG/1.1/DTD/svg11.dtd">
<!-- Generated by graphviz version 8.1.0 (20230707.0739)
 -->
<!-- Title: Slic3r::sla::IndexedMesh::normal_by_face_id Pages: 1 -->
<svg width="1003pt" height="382pt"
 viewBox="0.00 0.00 1002.50 381.50" xmlns="http://www.w3.org/2000/svg" xmlns:xlink="http://www.w3.org/1999/xlink">
<g id="graph0" class="graph" transform="scale(1 1) rotate(0) translate(4 377.5)">
<title>Slic3r::sla::IndexedMesh::normal_by_face_id</title>
<!-- Node1 -->
<g id="Node000001" class="node">
<title>Node1</title>
<g id="a_Node000001"><a xlink:title=" ">
<polygon fill="#999999" stroke="#666666" points="994.5,-248.5 870.5,-248.5 870.5,-218 994.5,-218 994.5,-248.5"/>
<text text-anchor="start" x="878.5" y="-235" font-family="Helvetica,sans-Serif" font-size="10.00">Slic3r::sla::IndexedMesh</text>
<text text-anchor="middle" x="932.5" y="-223.75" font-family="Helvetica,sans-Serif" font-size="10.00">::normal_by_face_id</text>
</a>
</g>
</g>
<!-- Node2 -->
<g id="Node000002" class="node">
<title>Node2</title>
<g id="a_Node000002"><a xlink:href="../../d2/d57/namespace_slic3r_1_1sla.html#aca74c6f3de3536e981773b3e8782a2ba" target="_top" xlink:title=" ">
<polygon fill="white" stroke="#666666" points="822.5,-280.88 722.5,-280.88 722.5,-261.62 822.5,-261.62 822.5,-280.88"/>
<text text-anchor="middle" x="772.5" y="-267.38" font-family="Helvetica,sans-Serif" font-size="10.00">Slic3r::sla::normals</text>
</a>
</g>
</g>
<!-- Node1&#45;&gt;Node2 -->
<g id="edge1_Node000001_Node000002" class="edge">
<title>Node1&#45;&gt;Node2</title>
<g id="a_edge1_Node000001_Node000002"><a xlink:title=" ">
<path fill="none" stroke="#63b8ff" d="M859.94,-250.46C844.69,-254.13 829.06,-257.89 815.36,-261.18"/>
<polygon fill="#63b8ff" stroke="#63b8ff" points="860.51,-253.68 869.41,-247.94 858.87,-246.88 860.51,-253.68"/>
</a>
</g>
</g>
<!-- Node3 -->
<g id="Node000003" class="node">
<title>Node3</title>
<g id="a_Node000003"><a xlink:href="../../d6/d2e/class_slic3r_1_1sla_1_1_indexed_mesh.html#a1252260eb1135d8be5ed478a8127c2a2" target="_top" xlink:title=" ">
<polygon fill="white" stroke="#666666" points="666.62,-299.5 542.62,-299.5 542.62,-269 666.62,-269 666.62,-299.5"/>
<text text-anchor="start" x="550.62" y="-286" font-family="Helvetica,sans-Serif" font-size="10.00">Slic3r::sla::IndexedMesh</text>
<text text-anchor="middle" x="604.62" y="-274.75" font-family="Helvetica,sans-Serif" font-size="10.00">::query_ray_hit</text>
</a>
</g>
</g>
<!-- Node1&#45;&gt;Node3 -->
<g id="edge2_Node000001_Node000003" class="edge">
<title>Node1&#45;&gt;Node3</title>
<g id="a_edge2_Node000001_Node000003"><a xlink:title=" ">
<path fill="none" stroke="#63b8ff" d="M859.3,-235.62C815.86,-238 759.65,-242.75 710.5,-252.25 690.22,-256.17 668.29,-262.52 649.76,-268.53"/>
<polygon fill="#63b8ff" stroke="#63b8ff" points="859.24,-239.08 869.05,-235.07 858.88,-232.09 859.24,-239.08"/>
</a>
</g>
</g>
<!-- Node8 -->
<g id="Node000008" class="node">
<title>Node8</title>
<g id="a_Node000008"><a xlink:href="../../d6/d2e/class_slic3r_1_1sla_1_1_indexed_mesh.html#a6649c916bc4b0fb27d9016d575c4a3ad" target="_top" xlink:title=" ">
<polygon fill="white" stroke="#666666" points="834.5,-204.5 710.5,-204.5 710.5,-174 834.5,-174 834.5,-204.5"/>
<text text-anchor="start" x="718.5" y="-191" font-family="Helvetica,sans-Serif" font-size="10.00">Slic3r::sla::IndexedMesh</text>
<text text-anchor="middle" x="772.5" y="-179.75" font-family="Helvetica,sans-Serif" font-size="10.00">::query_ray_hits</text>
</a>
</g>
</g>
<!-- Node1&#45;&gt;Node8 -->
<g id="edge7_Node000001_Node000008" class="edge">
<title>Node1&#45;&gt;Node8</title>
<g id="a_edge7_Node000001_Node000008"><a xlink:title=" ">
<path fill="none" stroke="#63b8ff" d="M864.84,-214.69C853.24,-211.46 841.29,-208.13 830,-204.98"/>
<polygon fill="#63b8ff" stroke="#63b8ff" points="863.78,-218.3 874.35,-217.61 865.66,-211.56 863.78,-218.3"/>
</a>
</g>
</g>
<!-- Node4 -->
<g id="Node000004" class="node">
<title>Node4</title>
<g id="a_Node000004"><a xlink:href="../../d9/df4/class_slic3r_1_1_face_detector.html#a2bd67990597c07db98b61f8fc57f909d" target="_top" xlink:title=" ">
<polygon fill="white" stroke="#666666" points="471.38,-373.5 360.88,-373.5 360.88,-343 471.38,-343 471.38,-373.5"/>
<text text-anchor="start" x="368.88" y="-360" font-family="Helvetica,sans-Serif" font-size="10.00">Slic3r::FaceDetector</text>
<text text-anchor="middle" x="416.12" y="-348.75" font-family="Helvetica,sans-Serif" font-size="10.00">::detect_exterior_face</text>
</a>
</g>
</g>
<!-- Node3&#45;&gt;Node4 -->
<g id="edge3_Node000003_Node000004" class="edge">
<title>Node3&#45;&gt;Node4</title>
<g id="a_edge3_Node000003_Node000004"><a xlink:title=" ">
<path fill="none" stroke="#63b8ff" d="M563.26,-304.72C544.01,-314.07 520.47,-324.9 498.75,-333.25 490.04,-336.6 480.67,-339.82 471.49,-342.76"/>
<polygon fill="#63b8ff" stroke="#63b8ff" points="564.48,-307.54 571.91,-299.99 561.39,-301.25 564.48,-307.54"/>
</a>
</g>
</g>
<!-- Node7 -->
<g id="Node000007" class="node">
<title>Node7</title>
<g id="a_Node000007"><a xlink:href="../../d3/db8/class_slic3r_1_1sla_1_1_support_tree_buildsteps.html#a78a14a259f932eac087b0ceea5e6e0b2" target="_top" xlink:title=" ">
<polygon fill="white" stroke="#666666" points="492.75,-324.5 339.5,-324.5 339.5,-294 492.75,-294 492.75,-324.5"/>
<text text-anchor="start" x="347.5" y="-311" font-family="Helvetica,sans-Serif" font-size="10.00">Slic3r::sla::SupportTree</text>
<text text-anchor="middle" x="416.12" y="-299.75" font-family="Helvetica,sans-Serif" font-size="10.00">Buildsteps::ray_mesh_intersect</text>
</a>
</g>
</g>
<!-- Node3&#45;&gt;Node7 -->
<g id="edge6_Node000003_Node000007" class="edge">
<title>Node3&#45;&gt;Node7</title>
<g id="a_edge6_Node000003_Node000007"><a xlink:title=" ">
<path fill="none" stroke="#63b8ff" d="M531.43,-293.93C518.88,-295.61 505.79,-297.36 493.14,-299.06"/>
<polygon fill="#63b8ff" stroke="#63b8ff" points="531.85,-297.27 541.3,-292.47 530.92,-290.33 531.85,-297.27"/>
</a>
</g>
</g>
<!-- Node5 -->
<g id="Node000005" class="node">
<title>Node5</title>
<g id="a_Node000005"><a xlink:href="../../d0/d23/class_slic3r_1_1_model_object.html#ac5f24b94617feeabe59d5902d38fde0e" target="_top" xlink:title=" ">
<polygon fill="white" stroke="#666666" points="265.62,-373.5 164.12,-373.5 164.12,-343 265.62,-343 265.62,-373.5"/>
<text text-anchor="start" x="172.12" y="-360" font-family="Helvetica,sans-Serif" font-size="10.00">Slic3r::ModelObject</text>
<text text-anchor="middle" x="214.88" y="-348.75" font-family="Helvetica,sans-Serif" font-size="10.00">::split</text>
</a>
</g>
</g>
<!-- Node4&#45;&gt;Node5 -->
<g id="edge4_Node000004_Node000005" class="edge">
<title>Node4&#45;&gt;Node5</title>
<g id="a_edge4_Node000004_Node000005"><a xlink:title=" ">
<path fill="none" stroke="#63b8ff" d="M349.43,-358.25C322.28,-358.25 291.3,-358.25 266.03,-358.25"/>
<polygon fill="#63b8ff" stroke="#63b8ff" points="349.42,-361.75 359.42,-358.25 349.42,-354.75 349.42,-361.75"/>
</a>
</g>
</g>
<!-- Node6 -->
<g id="Node000006" class="node">
<title>Node6</title>
<g id="a_Node000006"><a xlink:href="../../d4/d88/struct_slic3r_1_1_g_u_i_1_1_plater_1_1priv.html#a6349f4c76b3d6bbdf03170cf68a4d447" target="_top" xlink:title=" ">
<polygon fill="white" stroke="#666666" points="96.25,-373.5 0,-373.5 0,-343 96.25,-343 96.25,-373.5"/>
<text text-anchor="start" x="8" y="-360" font-family="Helvetica,sans-Serif" font-size="10.00">Slic3r::GUI::Plater</text>
<text text-anchor="middle" x="48.12" y="-348.75" font-family="Helvetica,sans-Serif" font-size="10.00">::priv::split_object</text>
</a>
</g>
</g>
<!-- Node5&#45;&gt;Node6 -->
<g id="edge5_Node000005_Node000006" class="edge">
<title>Node5&#45;&gt;Node6</title>
<g id="a_edge5_Node000005_Node000006"><a xlink:title=" ">
<path fill="none" stroke="#63b8ff" d="M153.21,-358.25C134.53,-358.25 114.24,-358.25 96.58,-358.25"/>
<polygon fill="#63b8ff" stroke="#63b8ff" points="153,-361.75 163,-358.25 153,-354.75 153,-361.75"/>
</a>
</g>
</g>
<!-- Node8&#45;&gt;Node3 -->
<g id="edge11_Node000008_Node000003" class="edge">
<title>Node8&#45;&gt;Node3</title>
<g id="a_edge11_Node000008_Node000003"><a xlink:title=" ">
<path fill="none" stroke="#63b8ff" d="M728.71,-209.63C722.55,-212.76 716.33,-216.02 710.5,-219.25 682.02,-235.03 650.39,-254.99 629.39,-268.6"/>
<polygon fill="#63b8ff" stroke="#63b8ff" points="729.89,-212.46 737.27,-204.86 726.76,-206.19 729.89,-212.46"/>
</a>
</g>
</g>
<!-- Node9 -->
<g id="Node000009" class="node">
<title>Node9</title>
<g id="a_Node000009"><a xlink:href="../../d4/de7/class_slic3r_1_1_g_u_i_1_1_mesh_raycaster.html#af3003ad00e64864810ae4d68991cc539" target="_top" xlink:title=" ">
<polygon fill="white" stroke="#666666" points="486,-79.5 346.25,-79.5 346.25,-49 486,-49 486,-79.5"/>
<text text-anchor="start" x="354.25" y="-66" font-family="Helvetica,sans-Serif" font-size="10.00">Slic3r::GUI::MeshRaycaster</text>
<text text-anchor="middle" x="416.12" y="-54.75" font-family="Helvetica,sans-Serif" font-size="10.00">::get_unobscured_idxs</text>
</a>
</g>
</g>
<!-- Node8&#45;&gt;Node9 -->
<g id="edge8_Node000008_Node000009" class="edge">
<title>Node8&#45;&gt;Node9</title>
<g id="a_edge8_Node000008_Node000009"><a xlink:title=" ">
<path fill="none" stroke="#63b8ff" d="M720.98,-169.8C666.45,-149.01 576.9,-115.52 498.75,-89.25 489.48,-86.13 479.56,-82.96 469.95,-79.97"/>
<polygon fill="#63b8ff" stroke="#63b8ff" points="719.49,-173.35 730.08,-173.65 721.98,-166.81 719.49,-173.35"/>
</a>
</g>
</g>
<!-- Node12 -->
<g id="Node000012" class="node">
<title>Node12</title>
<g id="a_Node000012"><a xlink:href="../../d4/de7/class_slic3r_1_1_g_u_i_1_1_mesh_raycaster.html#ac6ce5e7d9a015391a589bfe0a2d0dec3" target="_top" xlink:title=" ">
<polygon fill="white" stroke="#666666" points="674.5,-201.5 534.75,-201.5 534.75,-171 674.5,-171 674.5,-201.5"/>
<text text-anchor="start" x="542.75" y="-188" font-family="Helvetica,sans-Serif" font-size="10.00">Slic3r::GUI::MeshRaycaster</text>
<text text-anchor="middle" x="604.62" y="-176.75" font-family="Helvetica,sans-Serif" font-size="10.00">::unproject_on_mesh</text>
</a>
</g>
</g>
<!-- Node8&#45;&gt;Node12 -->
<g id="edge12_Node000008_Node000012" class="edge">
<title>Node8&#45;&gt;Node12</title>
<g id="a_edge12_Node000008_Node000012"><a xlink:title=" ">
<path fill="none" stroke="#63b8ff" d="M699.24,-187.94C691.12,-187.8 682.86,-187.65 674.78,-187.5"/>
<polygon fill="#63b8ff" stroke="#63b8ff" points="699.14,-191.46 709.21,-188.14 699.27,-184.46 699.14,-191.46"/>
</a>
</g>
</g>
<!-- Node10 -->
<g id="Node000010" class="node">
<title>Node10</title>
<g id="a_Node000010"><a xlink:href="../../da/d2c/class_slic3r_1_1_g_u_i_1_1_g_l_gizmo_hollow.html#a87dfbde9c64ea240a84d238cf63b1484" target="_top" xlink:title=" ">
<polygon fill="white" stroke="#666666" points="285.88,-79.5 143.88,-79.5 143.88,-49 285.88,-49 285.88,-79.5"/>
<text text-anchor="start" x="151.88" y="-66" font-family="Helvetica,sans-Serif" font-size="10.00">Slic3r::GUI::GLGizmoHollow</text>
<text text-anchor="middle" x="214.88" y="-54.75" font-family="Helvetica,sans-Serif" font-size="10.00">::gizmo_event</text>
</a>
</g>
</g>
<!-- Node9&#45;&gt;Node10 -->
<g id="edge9_Node000009_Node000010" class="edge">
<title>Node9&#45;&gt;Node10</title>
<g id="a_edge9_Node000009_Node000010"><a xlink:title=" ">
<path fill="none" stroke="#63b8ff" d="M335.43,-64.25C319.16,-64.25 302.15,-64.25 286.23,-64.25"/>
<polygon fill="#63b8ff" stroke="#63b8ff" points="335,-67.75 345,-64.25 335,-60.75 335,-67.75"/>
</a>
</g>
</g>
<!-- Node11 -->
<g id="Node000011" class="node">
<title>Node11</title>
<g id="a_Node000011"><a xlink:href="../../d9/d0e/class_slic3r_1_1_g_u_i_1_1_g_l_gizmo_sla_supports.html#aa3ec44cc3d269ab8961803796f76966f" target="_top" xlink:title=" ">
<polygon fill="white" stroke="#666666" points="297.5,-128.5 132.25,-128.5 132.25,-98 297.5,-98 297.5,-128.5"/>
<text text-anchor="start" x="140.25" y="-115" font-family="Helvetica,sans-Serif" font-size="10.00">Slic3r::GUI::GLGizmoSlaSupports</text>
<text text-anchor="middle" x="214.88" y="-103.75" font-family="Helvetica,sans-Serif" font-size="10.00">::gizmo_event</text>
</a>
</g>
</g>
<!-- Node9&#45;&gt;Node11 -->
<g id="edge10_Node000009_Node000011" class="edge">
<title>Node9&#45;&gt;Node11</title>
<g id="a_edge10_Node000009_Node000011"><a xlink:title=" ">
<path fill="none" stroke="#63b8ff" d="M340.62,-82.57C320.59,-87.5 299.11,-92.78 279.72,-97.55"/>
<polygon fill="#63b8ff" stroke="#63b8ff" points="341.38,-85.74 350.26,-79.96 339.71,-78.95 341.38,-85.74"/>
</a>
</g>
</g>
<!-- Node13 -->
<g id="Node000013" class="node">
<title>Node13</title>
<g id="a_Node000013"><a xlink:href="../../d8/d45/class_slic3r_1_1_g_u_i_1_1_g_l_gizmo_mesh_boolean.html#ab3f048135e47ce357f6ef5506d673caa" target="_top" xlink:title=" ">
<polygon fill="white" stroke="#666666" points="484.12,-128.5 348.12,-128.5 348.12,-98 484.12,-98 484.12,-128.5"/>
<text text-anchor="start" x="356.12" y="-115" font-family="Helvetica,sans-Serif" font-size="10.00">Slic3r::GUI::GLGizmoMesh</text>
<text text-anchor="middle" x="416.12" y="-103.75" font-family="Helvetica,sans-Serif" font-size="10.00">Boolean::gizmo_event</text>
</a>
</g>
</g>
<!-- Node12&#45;&gt;Node13 -->
<g id="edge13_Node000012_Node000013" class="edge">
<title>Node12&#45;&gt;Node13</title>
<g id="a_edge13_Node000012_Node000013"><a xlink:title=" ">
<path fill="none" stroke="#63b8ff" d="M562.53,-165.92C543.39,-156.84 520.17,-146.39 498.75,-138.25 490.16,-134.99 480.94,-131.84 471.91,-128.94"/>
<polygon fill="#63b8ff" stroke="#63b8ff" points="560.89,-169.49 571.42,-170.65 563.91,-163.18 560.89,-169.49"/>
</a>
</g>
</g>
<!-- Node14 -->
<g id="Node000014" class="node">
<title>Node14</title>
<g id="a_Node000014"><a xlink:href="../../df/d32/class_slic3r_1_1_g_u_i_1_1_g_l_gizmo_text.html#a66cb9005a680e716df0ee6a79f5a6880" target="_top" xlink:title=" ">
<polygon fill="white" stroke="#666666" points="481.5,-275.5 350.75,-275.5 350.75,-245 481.5,-245 481.5,-275.5"/>
<text text-anchor="start" x="358.75" y="-262" font-family="Helvetica,sans-Serif" font-size="10.00">Slic3r::GUI::GLGizmoText</text>
<text text-anchor="middle" x="416.12" y="-250.75" font-family="Helvetica,sans-Serif" font-size="10.00">::gizmo_event</text>
</a>
</g>
</g>
<!-- Node12&#45;&gt;Node14 -->
<g id="edge14_Node000012_Node000014" class="edge">
<title>Node12&#45;&gt;Node14</title>
<g id="a_edge14_Node000012_Node000014"><a xlink:title=" ">
<path fill="none" stroke="#63b8ff" d="M563.26,-206.72C544.01,-216.07 520.47,-226.9 498.75,-235.25 490.17,-238.55 480.96,-241.72 471.93,-244.62"/>
<polygon fill="#63b8ff" stroke="#63b8ff" points="564.48,-209.54 571.91,-201.99 561.39,-203.25 564.48,-209.54"/>
</a>
</g>
</g>
<!-- Node15 -->
<g id="Node000015" class="node">
<title>Node15</title>
<g id="a_Node000015"><a xlink:href="../../df/d32/class_slic3r_1_1_g_u_i_1_1_g_l_gizmo_text.html#ab8a18ae2f3ffa4e20df96e3bb5623dee" target="_top" xlink:title=" ">
<polygon fill="white" stroke="#666666" points="481.5,-226.5 350.75,-226.5 350.75,-196 481.5,-196 481.5,-226.5"/>
<text text-anchor="start" x="358.75" y="-213" font-family="Helvetica,sans-Serif" font-size="10.00">Slic3r::GUI::GLGizmoText</text>
<text text-anchor="middle" x="416.12" y="-201.75" font-family="Helvetica,sans-Serif" font-size="10.00">::on_update</text>
</a>
</g>
</g>
<!-- Node12&#45;&gt;Node15 -->
<g id="edge15_Node000012_Node000015" class="edge">
<title>Node12&#45;&gt;Node15</title>
<g id="a_edge15_Node000012_Node000015"><a xlink:title=" ">
<path fill="none" stroke="#63b8ff" d="M523.83,-196.95C509.83,-198.82 495.4,-200.76 481.87,-202.57"/>
<polygon fill="#63b8ff" stroke="#63b8ff" points="524,-200.32 533.44,-195.52 523.07,-193.38 524,-200.32"/>
</a>
</g>
</g>
<!-- Node16 -->
<g id="Node000016" class="node">
<title>Node16</title>
<g id="a_Node000016"><a xlink:href="../../da/d2c/class_slic3r_1_1_g_u_i_1_1_g_l_gizmo_hollow.html#af02ae5fd15df22eb3892e12da81d6069" target="_top" xlink:title=" ">
<polygon fill="white" stroke="#666666" points="487.12,-30.5 345.12,-30.5 345.12,0 487.12,0 487.12,-30.5"/>
<text text-anchor="start" x="353.12" y="-17" font-family="Helvetica,sans-Serif" font-size="10.00">Slic3r::GUI::GLGizmoHollow</text>
<text text-anchor="middle" x="416.12" y="-5.75" font-family="Helvetica,sans-Serif" font-size="10.00">::unproject_on_mesh</text>
</a>
</g>
</g>
<!-- Node12&#45;&gt;Node16 -->
<g id="edge16_Node000012_Node000016" class="edge">
<title>Node12&#45;&gt;Node16</title>
<g id="a_edge16_Node000012_Node000016"><a xlink:title=" ">
<path fill="none" stroke="#63b8ff" d="M592.11,-161.25C575.86,-128.66 543.13,-72.11 498.75,-40.25 493.69,-36.62 488.1,-33.51 482.28,-30.84"/>
<polygon fill="#63b8ff" stroke="#63b8ff" points="589.29,-162.45 596.81,-169.92 595.59,-159.39 589.29,-162.45"/>
</a>
</g>
</g>
<!-- Node18 -->
<g id="Node000018" class="node">
<title>Node18</title>
<g id="a_Node000018"><a xlink:href="../../d9/d0e/class_slic3r_1_1_g_u_i_1_1_g_l_gizmo_sla_supports.html#ad8bb18a35f6a1b08dd1f9940d6e02285" target="_top" xlink:title=" ">
<polygon fill="white" stroke="#666666" points="498.75,-177.5 333.5,-177.5 333.5,-147 498.75,-147 498.75,-177.5"/>
<text text-anchor="start" x="341.5" y="-164" font-family="Helvetica,sans-Serif" font-size="10.00">Slic3r::GUI::GLGizmoSlaSupports</text>
<text text-anchor="middle" x="416.12" y="-152.75" font-family="Helvetica,sans-Serif" font-size="10.00">::unproject_on_mesh</text>
</a>
</g>
</g>
<!-- Node12&#45;&gt;Node18 -->
<g id="edge19_Node000012_Node000018" class="edge">
<title>Node12&#45;&gt;Node18</title>
<g id="a_edge19_Node000012_Node000018"><a xlink:title=" ">
<path fill="none" stroke="#63b8ff" d="M523.8,-175.98C515.63,-174.93 507.31,-173.86 499.12,-172.8"/>
<polygon fill="#63b8ff" stroke="#63b8ff" points="523.08,-179.54 533.44,-177.35 523.97,-172.6 523.08,-179.54"/>
</a>
</g>
</g>
<!-- Node16&#45;&gt;Node10 -->
<g id="edge17_Node000016_Node000010" class="edge">
<title>Node16&#45;&gt;Node10</title>
<g id="a_edge17_Node000016_Node000010"><a xlink:title=" ">
<path fill="none" stroke="#63b8ff" d="M340.62,-33.57C320.59,-38.5 299.11,-43.78 279.72,-48.55"/>
<polygon fill="#63b8ff" stroke="#63b8ff" points="341.38,-36.74 350.26,-30.96 339.71,-29.95 341.38,-36.74"/>
</a>
</g>
</g>
<!-- Node17 -->
<g id="Node000017" class="node">
<title>Node17</title>
<g id="a_Node000017"><a xlink:href="../../da/d2c/class_slic3r_1_1_g_u_i_1_1_g_l_gizmo_hollow.html#a1aebc0e905a011e18b464e7673467e92" target="_top" xlink:title=" ">
<polygon fill="white" stroke="#666666" points="285.88,-30.5 143.88,-30.5 143.88,0 285.88,0 285.88,-30.5"/>
<text text-anchor="start" x="151.88" y="-17" font-family="Helvetica,sans-Serif" font-size="10.00">Slic3r::GUI::GLGizmoHollow</text>
<text text-anchor="middle" x="214.88" y="-5.75" font-family="Helvetica,sans-Serif" font-size="10.00">::on_update</text>
</a>
</g>
</g>
<!-- Node16&#45;&gt;Node17 -->
<g id="edge18_Node000016_Node000017" class="edge">
<title>Node16&#45;&gt;Node17</title>
<g id="a_edge18_Node000016_Node000017"><a xlink:title=" ">
<path fill="none" stroke="#63b8ff" d="M334.02,-15.25C318.15,-15.25 301.64,-15.25 286.16,-15.25"/>
<polygon fill="#63b8ff" stroke="#63b8ff" points="333.88,-18.75 343.88,-15.25 333.88,-11.75 333.88,-18.75"/>
</a>
</g>
</g>
<!-- Node18&#45;&gt;Node11 -->
<g id="edge20_Node000018_Node000011" class="edge">
<title>Node18&#45;&gt;Node11</title>
<g id="a_edge20_Node000018_Node000011"><a xlink:title=" ">
<path fill="none" stroke="#63b8ff" d="M340.62,-143.93C320.59,-139 299.11,-133.72 279.72,-128.95"/>
<polygon fill="#63b8ff" stroke="#63b8ff" points="339.71,-147.55 350.26,-146.54 341.38,-140.76 339.71,-147.55"/>
</a>
</g>
</g>
<!-- Node19 -->
<g id="Node000019" class="node">
<title>Node19</title>
<g id="a_Node000019"><a xlink:href="../../d9/d0e/class_slic3r_1_1_g_u_i_1_1_g_l_gizmo_sla_supports.html#a304a0d12f53977b56bbb7d43dcc7aa49" target="_top" xlink:title=" ">
<polygon fill="white" stroke="#666666" points="297.5,-177.5 132.25,-177.5 132.25,-147 297.5,-147 297.5,-177.5"/>
<text text-anchor="start" x="140.25" y="-164" font-family="Helvetica,sans-Serif" font-size="10.00">Slic3r::GUI::GLGizmoSlaSupports</text>
<text text-anchor="middle" x="214.88" y="-152.75" font-family="Helvetica,sans-Serif" font-size="10.00">::on_update</text>
</a>
</g>
</g>
<!-- Node18&#45;&gt;Node19 -->
<g id="edge21_Node000018_Node000019" class="edge">
<title>Node18&#45;&gt;Node19</title>
<g id="a_edge21_Node000018_Node000019"><a xlink:title=" ">
<path fill="none" stroke="#63b8ff" d="M322.45,-162.25C314.22,-162.25 305.92,-162.25 297.78,-162.25"/>
<polygon fill="#63b8ff" stroke="#63b8ff" points="322.22,-165.75 332.22,-162.25 322.22,-158.75 322.22,-165.75"/>
</a>
</g>
</g>
</g>
</svg>
