<?xml version="1.0" encoding="UTF-8" standalone="no"?>
<!DOCTYPE svg PUBLIC "-//W3C//DTD SVG 1.1//EN"
 "http://www.w3.org/Graphics/SVG/1.1/DTD/svg11.dtd">
<!-- Generated by graphviz version 8.1.0 (20230707.0739)
 -->
<!-- Title: SkipHeapAddressing::is_padding Pages: 1 -->
<svg width="304pt" height="186pt"
 viewBox="0.00 0.00 304.00 185.50" xmlns="http://www.w3.org/2000/svg" xmlns:xlink="http://www.w3.org/1999/xlink">

<svg id="main" version="1.1" xmlns="http://www.w3.org/2000/svg" xmlns:xlink="http://www.w3.org/1999/xlink" xml:space="preserve" onload="init(evt)">
<style type="text/css"><![CDATA[
.node, .edge {opacity: 0.7;}
.node.selected, .edge.selected {opacity: 1;}
.edge:hover path { stroke: red; }
.edge:hover polygon { stroke: red; fill: red; }
]]></style>
<script type="application/ecmascript" xlink:href="../../svg.min.js"/>
<svg id="graph" class="graph">
<g id="graph0" class="graph" transform="scale(1 1) rotate(0) translate(4 181.5)">
<title>SkipHeapAddressing::is_padding</title>
<!-- Node1 -->
<g id="Node000001" class="node">
<title>Node1</title>
<g id="a_Node000001"><a xlink:title=" ">
<polygon fill="#999999" stroke="#666666" points="296,-103.5 188.5,-103.5 188.5,-73 296,-73 296,-103.5"/>
<text text-anchor="start" x="196.5" y="-90" font-family="Helvetica,sans-Serif" font-size="10.00">SkipHeapAddressing</text>
<text text-anchor="middle" x="242.25" y="-78.75" font-family="Helvetica,sans-Serif" font-size="10.00">::is_padding</text>
</a>
</g>
</g>
<!-- Node2 -->
<g id="Node000002" class="node">
<title>Node2</title>
<g id="a_Node000002"><a xlink:href="../../d2/df0/class_mutable_skip_heap_priority_queue.html#ad8b817832e17861f9110edfe457bf019" target="_top" xlink:title=" ">
<polygon fill="white" stroke="#666666" points="152.5,-177.5 0,-177.5 0,-147 152.5,-147 152.5,-177.5"/>
<text text-anchor="start" x="8" y="-164" font-family="Helvetica,sans-Serif" font-size="10.00">MutableSkipHeapPriorityQueue</text>
<text text-anchor="middle" x="76.25" y="-152.75" font-family="Helvetica,sans-Serif" font-size="10.00">::operator[]</text>
</a>
</g>
</g>
<!-- Node1&#45;&gt;Node2 -->
<g id="edge1_Node000001_Node000002" class="edge">
<title>Node1&#45;&gt;Node2</title>
<g id="a_edge1_Node000001_Node000002"><a xlink:title=" ">
<path fill="none" stroke="#63b8ff" d="M206.81,-109.2C190.67,-118.51 170.97,-129.17 152.5,-137.25 144.93,-140.56 136.78,-143.7 128.73,-146.55"/>
<polygon fill="#63b8ff" stroke="#63b8ff" points="208,-111.97 214.87,-103.9 204.47,-105.93 208,-111.97"/>
</a>
</g>
</g>
<!-- Node3 -->
<g id="Node000003" class="node">
<title>Node3</title>
<g id="a_Node000003"><a xlink:href="../../d2/df0/class_mutable_skip_heap_priority_queue.html#af98b87657f080fac386dc8a79662d955" target="_top" xlink:title=" ">
<polygon fill="white" stroke="#666666" points="152.5,-128.5 0,-128.5 0,-98 152.5,-98 152.5,-128.5"/>
<text text-anchor="start" x="8" y="-115" font-family="Helvetica,sans-Serif" font-size="10.00">MutableSkipHeapPriorityQueue</text>
<text text-anchor="middle" x="76.25" y="-103.75" font-family="Helvetica,sans-Serif" font-size="10.00">::operator[]</text>
</a>
</g>
</g>
<!-- Node1&#45;&gt;Node3 -->
<g id="edge2_Node000001_Node000003" class="edge">
<title>Node1&#45;&gt;Node3</title>
<g id="a_edge2_Node000001_Node000003"><a xlink:title=" ">
<path fill="none" stroke="#63b8ff" d="M177.27,-98C169.27,-99.22 161.03,-100.48 152.87,-101.72"/>
<polygon fill="#63b8ff" stroke="#63b8ff" points="177.65,-101.33 187,-96.37 176.59,-94.41 177.65,-101.33"/>
</a>
</g>
</g>
<!-- Node4 -->
<g id="Node000004" class="node">
<title>Node4</title>
<g id="a_Node000004"><a xlink:href="../../d2/df0/class_mutable_skip_heap_priority_queue.html#a3e60719fa5ee99fa2622330c466d3b05" target="_top" xlink:title=" ">
<polygon fill="white" stroke="#666666" points="152.5,-79.5 0,-79.5 0,-49 152.5,-49 152.5,-79.5"/>
<text text-anchor="start" x="8" y="-66" font-family="Helvetica,sans-Serif" font-size="10.00">MutableSkipHeapPriorityQueue</text>
<text text-anchor="middle" x="76.25" y="-54.75" font-family="Helvetica,sans-Serif" font-size="10.00">::pop_back</text>
</a>
</g>
</g>
<!-- Node1&#45;&gt;Node4 -->
<g id="edge3_Node000001_Node000004" class="edge">
<title>Node1&#45;&gt;Node4</title>
<g id="a_edge3_Node000001_Node000004"><a xlink:title=" ">
<path fill="none" stroke="#63b8ff" d="M177.27,-78.89C169.27,-77.72 161.03,-76.51 152.87,-75.32"/>
<polygon fill="#63b8ff" stroke="#63b8ff" points="176.6,-82.47 187,-80.46 177.62,-75.55 176.6,-82.47"/>
</a>
</g>
</g>
<!-- Node5 -->
<g id="Node000005" class="node">
<title>Node5</title>
<g id="a_Node000005"><a xlink:href="../../d2/df0/class_mutable_skip_heap_priority_queue.html#ae9ec80392275d61095d577ac65c96269" target="_top" xlink:title=" ">
<polygon fill="white" stroke="#666666" points="152.5,-30.5 0,-30.5 0,0 152.5,0 152.5,-30.5"/>
<text text-anchor="start" x="8" y="-17" font-family="Helvetica,sans-Serif" font-size="10.00">MutableSkipHeapPriorityQueue</text>
<text text-anchor="middle" x="76.25" y="-5.75" font-family="Helvetica,sans-Serif" font-size="10.00">::update</text>
</a>
</g>
</g>
<!-- Node1&#45;&gt;Node5 -->
<g id="edge4_Node000001_Node000005" class="edge">
<title>Node1&#45;&gt;Node5</title>
<g id="a_edge4_Node000001_Node000005"><a xlink:title=" ">
<path fill="none" stroke="#63b8ff" d="M205.6,-67.12C189.68,-58.16 170.47,-48.03 152.5,-40.25 144.79,-36.92 136.49,-33.75 128.3,-30.86"/>
<polygon fill="#63b8ff" stroke="#63b8ff" points="203.64,-70.6 214.06,-72.51 207.1,-64.52 203.64,-70.6"/>
</a>
</g>
</g>
</g>
</svg>
</svg>

<style type='text/css'>
<![CDATA[
[data-mouse-over-selected='false'] { opacity: 0.7; }
[data-mouse-over-selected='true']  { opacity: 1.0; }
]]>
</style>
<script type="application/ecmascript"><![CDATA[
document.addEventListener('DOMContentLoaded', (event) => {
  highlightEdges();
  highlightAdjacentNodes();
});
]]></script>
</svg>
