<?xml version="1.0" encoding="UTF-8" standalone="no"?>
<!DOCTYPE svg PUBLIC "-//W3C//DTD SVG 1.1//EN"
 "http://www.w3.org/Graphics/SVG/1.1/DTD/svg11.dtd">
<!-- Generated by graphviz version 8.1.0 (20230707.0739)
 -->
<!-- Title: Clipper2Lib::ClipperBase::CompleteSplit Pages: 1 -->
<!--zoomable 420 -->

<svg id="main" version="1.1" xmlns="http://www.w3.org/2000/svg" xmlns:xlink="http://www.w3.org/1999/xlink" xml:space="preserve" onload="init(evt)">
<style type="text/css"><![CDATA[
.node, .edge {opacity: 0.7;}
.node.selected, .edge.selected {opacity: 1;}
.edge:hover path { stroke: red; }
.edge:hover polygon { stroke: red; fill: red; }
]]></style>

<defs>
  <circle id="rim" cx="0" cy="0" r="7"/>
  <circle id="rim2" cx="0" cy="0" r="3.5"/>
  <g id="zoomPlus">
    <use xlink:href="#rim" fill="#404040"><set attributeName="fill" to="#808080" begin="zoomplus.mouseover" end="zoomplus.mouseout"/></use>
    <path d="M-4,0h8M0,-4v8" fill="none" stroke="white" stroke-width="1.5" pointer-events="none"/>
  </g>
  <g id="zoomMin">
    <use xlink:href="#rim" fill="#404040"><set attributeName="fill" to="#808080" begin="zoomminus.mouseover" end="zoomminus.mouseout"/></use>
    <path d="M-4,0h8" fill="none" stroke="white" stroke-width="1.5" pointer-events="none"/>
  </g>
  <g id="arrowUp" transform="translate(30 24)">
    <use xlink:href="#rim"/>
    <path pointer-events="none" fill="none" stroke="white" stroke-width="1.5" d="M0,-3.0v7 M-2.5,-0.5L0,-3.0L2.5,-0.5"/>
  </g>
  <g id="arrowRight" transform="rotate(90) translate(36 -43)">
    <use xlink:href="#rim"/>
    <path pointer-events="none" fill="none" stroke="white" stroke-width="1.5" d="M0,-3.0v7 M-2.5,-0.5L0,-3.0L2.5,-0.5"/>
  </g>
  <g id="arrowDown" transform="rotate(180) translate(-30 -48)">
    <use xlink:href="#rim"/>
    <path pointer-events="none" fill="none" stroke="white" stroke-width="1.5" d="M0,-3.0v7 M-2.5,-0.5L0,-3.0L2.5,-0.5"/>
  </g>
  <g id="arrowLeft" transform="rotate(270) translate(-36 17)">
    <use xlink:href="#rim"/>
    <path pointer-events="none" fill="none" stroke="white" stroke-width="1.5" d="M0,-3.0v7 M-2.5,-0.5L0,-3.0L2.5,-0.5"/>
  </g>
  <g id="resetDef">
    <use xlink:href="#rim2" fill="#404040"><set attributeName="fill" to="#808080" begin="reset.mouseover" end="reset.mouseout"/></use>
  </g>
</defs>
<script type="application/ecmascript">
var viewWidth = 1169;
var viewHeight = 420;
var sectionId = 'dynsection-28';
</script>
<script type="application/ecmascript" xlink:href="../../svg.min.js"/>
<svg id="graph" class="graph">
<g id="viewport">
<title>Clipper2Lib::ClipperBase::CompleteSplit</title>
<!-- Node1 -->
<g id="Node000001" class="node">
<title>Node1</title>
<g id="a_Node000001"><a xlink:title=" ">
<polygon fill="#999999" stroke="#666666" points="124,-233.88 0,-233.88 0,-203.38 124,-203.38 124,-233.88"/>
<text text-anchor="start" x="8" y="-220.38" font-family="Helvetica,sans-Serif" font-size="10.00">Clipper2Lib::ClipperBase</text>
<text text-anchor="middle" x="62" y="-209.12" font-family="Helvetica,sans-Serif" font-size="10.00">::CompleteSplit</text>
</a>
</g>
</g>
<!-- Node2 -->
<g id="Node000002" class="node">
<title>Node2</title>
<g id="a_Node000002"><a xlink:href="../../d5/dd8/namespace_clipper2_lib.html#abc8a50b606469236e9758b3b6efbd543" target="_top" xlink:title=" ">
<polygon fill="white" stroke="#666666" points="795.88,-412.25 704.88,-412.25 704.88,-393 795.88,-393 795.88,-412.25"/>
<text text-anchor="middle" x="750.38" y="-398.75" font-family="Helvetica,sans-Serif" font-size="10.00">Clipper2Lib::Area</text>
</a>
</g>
</g>
<!-- Node1&#45;&gt;Node2 -->
<g id="edge1_Node000001_Node000002" class="edge">
<title>Node1&#45;&gt;Node2</title>
<g id="a_edge1_Node000001_Node000002"><a xlink:title=" ">
<path fill="none" stroke="#63b8ff" d="M117.1,-234.33C131.07,-238.36 146.09,-242.67 160,-246.62 309.05,-289 345.85,-301.33 495.75,-340.62 564.52,-358.65 644.23,-377.86 695.65,-390.04"/>
<polygon fill="#63b8ff" stroke="#63b8ff" points="694.65,-393.63 705.18,-392.53 696.26,-386.82 694.65,-393.63"/>
</a>
</g>
</g>
<!-- Node3 -->
<g id="Node000003" class="node">
<title>Node3</title>
<g id="a_Node000003"><a xlink:href="../../d7/d3c/class_clipper2_lib_1_1_clipper_base.html#a685822e7ec7f2dbad4c5f49c0a5e7ea5" target="_top" xlink:title=" ">
<polygon fill="white" stroke="#666666" points="287.75,-158.88 163.75,-158.88 163.75,-128.38 287.75,-128.38 287.75,-158.88"/>
<text text-anchor="start" x="171.75" y="-145.38" font-family="Helvetica,sans-Serif" font-size="10.00">Clipper2Lib::ClipperBase</text>
<text text-anchor="middle" x="225.75" y="-134.12" font-family="Helvetica,sans-Serif" font-size="10.00">::CleanCollinear</text>
</a>
</g>
</g>
<!-- Node1&#45;&gt;Node3 -->
<g id="edge2_Node000001_Node000003" class="edge">
<title>Node1&#45;&gt;Node3</title>
<g id="a_edge2_Node000001_Node000003"><a xlink:title=" ">
<path fill="none" stroke="#63b8ff" d="M96.91,-202.9C121.39,-191.55 154.65,-176.13 181.11,-163.86"/>
<polygon fill="#63b8ff" stroke="#63b8ff" points="182.29,-166.71 189.89,-159.33 179.34,-160.36 182.29,-166.71"/>
</a>
</g>
</g>
<!-- Node22 -->
<g id="Node000022" class="node">
<title>Node22</title>
<g id="a_Node000022"><a xlink:href="../../d7/d3c/class_clipper2_lib_1_1_clipper_base.html#afca68086c799a67a0ba43f5dd3e56ce3" target="_top" xlink:title=" ">
<polygon fill="white" stroke="#666666" points="812.38,-250.88 688.38,-250.88 688.38,-220.38 812.38,-220.38 812.38,-250.88"/>
<text text-anchor="start" x="696.38" y="-237.38" font-family="Helvetica,sans-Serif" font-size="10.00">Clipper2Lib::ClipperBase</text>
<text text-anchor="middle" x="750.38" y="-226.12" font-family="Helvetica,sans-Serif" font-size="10.00">::SafeDisposeOutPts</text>
</a>
</g>
</g>
<!-- Node1&#45;&gt;Node22 -->
<g id="edge28_Node000001_Node000022" class="edge">
<title>Node1&#45;&gt;Node22</title>
<g id="a_edge28_Node000001_Node000022"><a xlink:title=" ">
<path fill="none" stroke="#63b8ff" d="M124.41,-224.17C177.98,-228.8 257.82,-235.16 327.5,-238.62 470.22,-245.71 506.19,-247.6 649,-242.62 658.2,-242.3 667.86,-241.82 677.4,-241.25"/>
<polygon fill="#63b8ff" stroke="#63b8ff" points="677.34,-244.7 687.1,-240.58 676.9,-237.71 677.34,-244.7"/>
</a>
</g>
</g>
<!-- Node29 -->
<g id="Node000029" class="node">
<title>Node29</title>
<g id="a_Node000029"><a xlink:href="../../d5/dd8/namespace_clipper2_lib.html#a868cc41b3358860fa4f7306db800b22b" target="_top" xlink:title=" ">
<polygon fill="white" stroke="#666666" points="291.5,-109.88 160,-109.88 160,-79.38 291.5,-79.38 291.5,-109.88"/>
<text text-anchor="start" x="168" y="-96.38" font-family="Helvetica,sans-Serif" font-size="10.00">Clipper2Lib::UpdateOutrec</text>
<text text-anchor="middle" x="225.75" y="-85.12" font-family="Helvetica,sans-Serif" font-size="10.00">Owner</text>
</a>
</g>
</g>
<!-- Node1&#45;&gt;Node29 -->
<g id="edge29_Node000001_Node000029" class="edge">
<title>Node1&#45;&gt;Node29</title>
<g id="a_edge29_Node000001_Node000029"><a xlink:title=" ">
<path fill="none" stroke="#63b8ff" d="M74.56,-203.21C91.3,-181.84 124.22,-143.17 160,-119.62 162.42,-118.03 164.95,-116.52 167.56,-115.09"/>
<polygon fill="#63b8ff" stroke="#63b8ff" points="168.87,-117.84 176.24,-110.23 165.73,-111.59 168.87,-117.84"/>
</a>
</g>
</g>
<!-- Node4 -->
<g id="Node000004" class="node">
<title>Node4</title>
<g id="a_Node000004"><a xlink:href="../../d5/dd8/namespace_clipper2_lib.html#a24b9c2624f57e0b47e924fe02728ec48" target="_top" xlink:title=" ">
<polygon fill="white" stroke="#666666" points="815.75,-132.25 685,-132.25 685,-113 815.75,-113 815.75,-132.25"/>
<text text-anchor="middle" x="750.38" y="-118.75" font-family="Helvetica,sans-Serif" font-size="10.00">Clipper2Lib::CrossProduct</text>
</a>
</g>
</g>
<!-- Node3&#45;&gt;Node4 -->
<g id="edge3_Node000003_Node000004" class="edge">
<title>Node3&#45;&gt;Node4</title>
<g id="a_edge3_Node000003_Node000004"><a xlink:title=" ">
<path fill="none" stroke="#63b8ff" d="M288.24,-141.15C384.4,-137.29 570.12,-129.83 674.13,-125.65"/>
<polygon fill="#63b8ff" stroke="#63b8ff" points="674,-129.12 683.85,-125.22 673.72,-122.12 674,-129.12"/>
</a>
</g>
</g>
<!-- Node5 -->
<g id="Node000005" class="node">
<title>Node5</title>
<g id="a_Node000005"><a xlink:href="../../d5/dd8/namespace_clipper2_lib.html#a7ab7a8d6f96d2dcbdf5e47b86f4b195f" target="_top" xlink:title=" ">
<polygon fill="white" stroke="#666666" points="459.75,-56.25 327.5,-56.25 327.5,-37 459.75,-37 459.75,-56.25"/>
<text text-anchor="middle" x="393.62" y="-42.75" font-family="Helvetica,sans-Serif" font-size="10.00">Clipper2Lib::DisposeOutPt</text>
</a>
</g>
</g>
<!-- Node3&#45;&gt;Node5 -->
<g id="edge4_Node000003_Node000005" class="edge">
<title>Node3&#45;&gt;Node5</title>
<g id="a_edge4_Node000003_Node000005"><a xlink:title=" ">
<path fill="none" stroke="#63b8ff" d="M276.06,-128.01C281.51,-125.3 286.79,-122.19 291.5,-118.62 312.76,-102.53 306.11,-86.55 327.5,-70.62 332.58,-66.84 338.31,-63.6 344.22,-60.84"/>
<polygon fill="#63b8ff" stroke="#63b8ff" points="345.38,-63.73 353.25,-56.64 342.67,-57.28 345.38,-63.73"/>
</a>
</g>
</g>
<!-- Node6 -->
<g id="Node000006" class="node">
<title>Node6</title>
<g id="a_Node000006"><a xlink:href="../../d5/dd8/namespace_clipper2_lib.html#af0501968d0fab01fd133232b9cfa233c" target="_top" xlink:title=" ">
<polygon fill="white" stroke="#666666" points="453.75,-19.25 333.5,-19.25 333.5,0 453.75,0 453.75,-19.25"/>
<text text-anchor="middle" x="393.62" y="-5.75" font-family="Helvetica,sans-Serif" font-size="10.00">Clipper2Lib::DotProduct</text>
</a>
</g>
</g>
<!-- Node3&#45;&gt;Node6 -->
<g id="edge5_Node000003_Node000006" class="edge">
<title>Node3&#45;&gt;Node6</title>
<g id="a_edge5_Node000003_Node000006"><a xlink:title=" ">
<path fill="none" stroke="#63b8ff" d="M279.31,-127.89C283.75,-125.26 287.91,-122.19 291.5,-118.62 322.38,-88 295.14,-56.69 327.5,-27.62 328.37,-26.84 329.28,-26.09 330.21,-25.37"/>
<polygon fill="#63b8ff" stroke="#63b8ff" points="331.6,-28.01 338.23,-19.75 327.89,-22.07 331.6,-28.01"/>
</a>
</g>
</g>
<!-- Node7 -->
<g id="Node000007" class="node">
<title>Node7</title>
<g id="a_Node000007"><a xlink:href="../../d7/d3c/class_clipper2_lib_1_1_clipper_base.html#a70bb77844675df1cd0f4902f3cac03e7" target="_top" xlink:title=" ">
<polygon fill="white" stroke="#666666" points="455.62,-229.88 331.62,-229.88 331.62,-199.38 455.62,-199.38 455.62,-229.88"/>
<text text-anchor="start" x="339.62" y="-216.38" font-family="Helvetica,sans-Serif" font-size="10.00">Clipper2Lib::ClipperBase</text>
<text text-anchor="middle" x="393.62" y="-205.12" font-family="Helvetica,sans-Serif" font-size="10.00">::FixSelfIntersects</text>
</a>
</g>
</g>
<!-- Node3&#45;&gt;Node7 -->
<g id="edge6_Node000003_Node000007" class="edge">
<title>Node3&#45;&gt;Node7</title>
<g id="a_edge6_Node000003_Node000007"><a xlink:title=" ">
<path fill="none" stroke="#63b8ff" d="M259.65,-159.27C279.22,-168.42 304.63,-180.02 327.5,-189.62 331.83,-191.44 336.33,-193.28 340.87,-195.09"/>
<polygon fill="#63b8ff" stroke="#63b8ff" points="339.19,-198.59 349.78,-199 341.76,-192.08 339.19,-198.59"/>
</a>
</g>
</g>
<!-- Node23 -->
<g id="Node000023" class="node">
<title>Node23</title>
<g id="a_Node000023"><a xlink:href="../../d5/dd8/namespace_clipper2_lib.html#ae003dcd39266405576e40d0cccc88e50" target="_top" xlink:title=" ">
<polygon fill="white" stroke="#666666" points="996.75,-116.25 856.25,-116.25 856.25,-97 996.75,-97 996.75,-116.25"/>
<text text-anchor="middle" x="926.5" y="-102.75" font-family="Helvetica,sans-Serif" font-size="10.00">Clipper2Lib::GetRealOutRec</text>
</a>
</g>
</g>
<!-- Node3&#45;&gt;Node23 -->
<g id="edge22_Node000003_Node000023" class="edge">
<title>Node3&#45;&gt;Node23</title>
<g id="a_edge22_Node000003_Node000023"><a xlink:title=" ">
<path fill="none" stroke="#63b8ff" d="M288.23,-135.17C301.18,-133.53 314.78,-131.93 327.5,-130.62 543.71,-108.53 598.44,-100.66 815.75,-103.62 825.27,-103.76 835.25,-103.95 845.15,-104.18"/>
<polygon fill="#63b8ff" stroke="#63b8ff" points="844.75,-107.69 854.84,-104.43 844.92,-100.69 844.75,-107.69"/>
</a>
</g>
</g>
<!-- Node25 -->
<g id="Node000025" class="node">
<title>Node25</title>
<g id="a_Node000025"><a xlink:href="../../d7/d3c/class_clipper2_lib_1_1_clipper_base.html#a5e7a9a44529cefd602a79d717317ca41" target="_top" xlink:title=" ">
<polygon fill="white" stroke="#666666" points="455.62,-180.88 331.62,-180.88 331.62,-150.38 455.62,-150.38 455.62,-180.88"/>
<text text-anchor="start" x="339.62" y="-167.38" font-family="Helvetica,sans-Serif" font-size="10.00">Clipper2Lib::ClipperBase</text>
<text text-anchor="middle" x="393.62" y="-156.12" font-family="Helvetica,sans-Serif" font-size="10.00">::ValidateClosedPathEx</text>
</a>
</g>
</g>
<!-- Node3&#45;&gt;Node25 -->
<g id="edge23_Node000003_Node000025" class="edge">
<title>Node3&#45;&gt;Node25</title>
<g id="a_edge23_Node000003_Node000025"><a xlink:title=" ">
<path fill="none" stroke="#63b8ff" d="M288.04,-151.75C298.63,-153.16 309.73,-154.63 320.57,-156.07"/>
<polygon fill="#63b8ff" stroke="#63b8ff" points="319.93,-159.65 330.31,-157.49 320.85,-152.71 319.93,-159.65"/>
</a>
</g>
</g>
<!-- Node8 -->
<g id="Node000008" class="node">
<title>Node8</title>
<g id="a_Node000008"><a xlink:href="../../d7/d3c/class_clipper2_lib_1_1_clipper_base.html#aa9ee217803d014ebbe65527193d5ed96" target="_top" xlink:title=" ">
<polygon fill="white" stroke="#666666" points="634.38,-331.88 510.38,-331.88 510.38,-301.38 634.38,-301.38 634.38,-331.88"/>
<text text-anchor="start" x="518.38" y="-318.38" font-family="Helvetica,sans-Serif" font-size="10.00">Clipper2Lib::ClipperBase</text>
<text text-anchor="middle" x="572.38" y="-307.12" font-family="Helvetica,sans-Serif" font-size="10.00">::DoSplitOp</text>
</a>
</g>
</g>
<!-- Node7&#45;&gt;Node8 -->
<g id="edge7_Node000007_Node000008" class="edge">
<title>Node7&#45;&gt;Node8</title>
<g id="a_edge7_Node000007_Node000008"><a xlink:title=" ">
<path fill="none" stroke="#63b8ff" d="M421.85,-230.34C452.09,-247.78 501.04,-276.03 534.64,-295.43"/>
<polygon fill="#63b8ff" stroke="#63b8ff" points="532.7,-298.93 543.11,-300.89 536.2,-292.86 532.7,-298.93"/>
</a>
</g>
</g>
<!-- Node24 -->
<g id="Node000024" class="node">
<title>Node24</title>
<g id="a_Node000024"><a xlink:href="../../d5/dd8/namespace_clipper2_lib.html#a145e6fb0fccc2c8ad8ca40297ffab7f4" target="_top" xlink:title=" ">
<polygon fill="white" stroke="#666666" points="649,-207.25 495.75,-207.25 495.75,-188 649,-188 649,-207.25"/>
<text text-anchor="middle" x="572.38" y="-193.75" font-family="Helvetica,sans-Serif" font-size="10.00">Clipper2Lib::SegmentsIntersect</text>
</a>
</g>
</g>
<!-- Node7&#45;&gt;Node24 -->
<g id="edge20_Node000007_Node000024" class="edge">
<title>Node7&#45;&gt;Node24</title>
<g id="a_edge20_Node000007_Node000024"><a xlink:title=" ">
<path fill="none" stroke="#63b8ff" d="M455.95,-208.73C465.22,-207.84 474.93,-206.9 484.62,-205.97"/>
<polygon fill="#63b8ff" stroke="#63b8ff" points="484.9,-209.36 494.52,-204.92 484.23,-202.39 484.9,-209.36"/>
</a>
</g>
</g>
<!-- Node8&#45;&gt;Node2 -->
<g id="edge8_Node000008_Node000002" class="edge">
<title>Node8&#45;&gt;Node2</title>
<g id="a_edge8_Node000008_Node000002"><a xlink:title=" ">
<path fill="none" stroke="#63b8ff" d="M595.55,-332.25C617.45,-347.11 652.3,-369.27 685,-383.62 689.44,-385.58 694.14,-387.39 698.9,-389.07"/>
<polygon fill="#63b8ff" stroke="#63b8ff" points="697.72,-392.7 708.32,-392.52 699.92,-386.05 697.72,-392.7"/>
</a>
</g>
</g>
<!-- Node9 -->
<g id="Node000009" class="node">
<title>Node9</title>
<g id="a_Node000009"><a xlink:href="../../d5/dd8/namespace_clipper2_lib.html#a9359afa47a6263e701f4a62dc929c483" target="_top" xlink:title=" ">
<polygon fill="white" stroke="#666666" points="813.12,-288.25 687.62,-288.25 687.62,-269 813.12,-269 813.12,-288.25"/>
<text text-anchor="middle" x="750.38" y="-274.75" font-family="Helvetica,sans-Serif" font-size="10.00">Clipper2Lib::AreaTriangle</text>
</a>
</g>
</g>
<!-- Node8&#45;&gt;Node9 -->
<g id="edge9_Node000008_Node000009" class="edge">
<title>Node8&#45;&gt;Node9</title>
<g id="a_edge9_Node000008_Node000009"><a xlink:title=" ">
<path fill="none" stroke="#63b8ff" d="M634.44,-303.44C653.11,-299.41 673.58,-294.99 692,-291.01"/>
<polygon fill="#63b8ff" stroke="#63b8ff" points="692.54,-294.26 701.58,-288.73 691.06,-287.42 692.54,-294.26"/>
</a>
</g>
</g>
<!-- Node10 -->
<g id="Node000010" class="node">
<title>Node10</title>
<g id="a_Node000010"><a xlink:href="../../d5/dd8/namespace_clipper2_lib.html#ae5bec9696750c52b5538d5e1f770e180" target="_top" xlink:title=" ">
<polygon fill="white" stroke="#666666" points="812.75,-374.88 688,-374.88 688,-344.38 812.75,-344.38 812.75,-374.88"/>
<text text-anchor="start" x="696" y="-361.38" font-family="Helvetica,sans-Serif" font-size="10.00">Clipper2Lib::GetIntersect</text>
<text text-anchor="middle" x="750.38" y="-350.12" font-family="Helvetica,sans-Serif" font-size="10.00">Point</text>
</a>
</g>
</g>
<!-- Node8&#45;&gt;Node10 -->
<g id="edge10_Node000008_Node000010" class="edge">
<title>Node8&#45;&gt;Node10</title>
<g id="a_edge10_Node000008_Node000010"><a xlink:title=" ">
<path fill="none" stroke="#63b8ff" d="M634.44,-331.54C648.12,-334.89 662.77,-338.47 676.87,-341.91"/>
<polygon fill="#63b8ff" stroke="#63b8ff" points="675.98,-345.54 686.53,-344.51 677.64,-338.74 675.98,-345.54"/>
</a>
</g>
</g>
<!-- Node15 -->
<g id="Node000015" class="node">
<title>Node15</title>
<g id="a_Node000015"><a xlink:href="../../d7/d3c/class_clipper2_lib_1_1_clipper_base.html#a14b35024db9ef47049864d7b4c6bf940" target="_top" xlink:title=" ">
<polygon fill="white" stroke="#666666" points="990.38,-279.88 862.62,-279.88 862.62,-249.38 990.38,-249.38 990.38,-279.88"/>
<text text-anchor="start" x="870.62" y="-266.38" font-family="Helvetica,sans-Serif" font-size="10.00">Clipper2Lib::ClipperBase</text>
<text text-anchor="middle" x="926.5" y="-255.12" font-family="Helvetica,sans-Serif" font-size="10.00">::SafeDeleteOutPtJoiners</text>
</a>
</g>
</g>
<!-- Node8&#45;&gt;Node15 -->
<g id="edge13_Node000008_Node000015" class="edge">
<title>Node8&#45;&gt;Node15</title>
<g id="a_edge13_Node000008_Node000015"><a xlink:title=" ">
<path fill="none" stroke="#63b8ff" d="M634.86,-315.43C684.14,-313.6 754.87,-309.03 815.75,-297.62 834.06,-294.2 853.66,-288.86 871.15,-283.47"/>
<polygon fill="#63b8ff" stroke="#63b8ff" points="871.7,-286.65 880.18,-280.31 869.59,-279.98 871.7,-286.65"/>
</a>
</g>
</g>
<!-- Node8&#45;&gt;Node22 -->
<g id="edge17_Node000008_Node000022" class="edge">
<title>Node8&#45;&gt;Node22</title>
<g id="a_edge17_Node000008_Node000022"><a xlink:title=" ">
<path fill="none" stroke="#63b8ff" d="M620.75,-300.93C630.34,-297.07 640.18,-292.6 649,-287.62 666.65,-277.67 667.3,-269.5 685,-259.62 687.37,-258.3 689.83,-257.03 692.34,-255.8"/>
<polygon fill="#63b8ff" stroke="#63b8ff" points="693.56,-258.63 701.21,-251.3 690.66,-252.26 693.56,-258.63"/>
</a>
</g>
</g>
<!-- Node11 -->
<g id="Node000011" class="node">
<title>Node11</title>
<g id="a_Node000011"><a xlink:href="../../d5/dd8/namespace_clipper2_lib.html#ada9f5b467c6b9ddc1cb387ca00e9ea99" target="_top" xlink:title=" ">
<polygon fill="#fff0f0" stroke="red" points="1001.25,-395.88 851.75,-395.88 851.75,-365.38 1001.25,-365.38 1001.25,-395.88"/>
<text text-anchor="start" x="859.75" y="-382.38" font-family="Helvetica,sans-Serif" font-size="10.00">Clipper2Lib::GetEndE1Closest</text>
<text text-anchor="middle" x="926.5" y="-371.12" font-family="Helvetica,sans-Serif" font-size="10.00">ToEndE2</text>
</a>
</g>
</g>
<!-- Node10&#45;&gt;Node11 -->
<g id="edge11_Node000010_Node000011" class="edge">
<title>Node10&#45;&gt;Node11</title>
<g id="a_edge11_Node000010_Node000011"><a xlink:title=" ">
<path fill="none" stroke="#63b8ff" d="M812.76,-367.03C821.87,-368.13 831.39,-369.27 840.87,-370.42"/>
<polygon fill="#63b8ff" stroke="#63b8ff" points="840.18,-373.98 850.53,-371.7 841.02,-367.03 840.18,-373.98"/>
</a>
</g>
</g>
<!-- Node14 -->
<g id="Node000014" class="node">
<title>Node14</title>
<g id="a_Node000014"><a xlink:href="../../d5/dd8/namespace_clipper2_lib.html#a5d3b6e55ce362b60771f09b69b7dcae2" target="_top" xlink:title=" ">
<polygon fill="white" stroke="#666666" points="988.12,-347.25 864.88,-347.25 864.88,-328 988.12,-328 988.12,-347.25"/>
<text text-anchor="middle" x="926.5" y="-333.75" font-family="Helvetica,sans-Serif" font-size="10.00">Clipper2Lib::IsHorizontal</text>
</a>
</g>
</g>
<!-- Node10&#45;&gt;Node14 -->
<g id="edge12_Node000010_Node000014" class="edge">
<title>Node10&#45;&gt;Node14</title>
<g id="a_edge12_Node000010_Node000014"><a xlink:title=" ">
<path fill="none" stroke="#63b8ff" d="M812.76,-351.87C826.05,-350.19 840.22,-348.4 853.86,-346.68"/>
<polygon fill="#63b8ff" stroke="#63b8ff" points="854.18,-350.04 863.66,-345.31 853.3,-343.09 854.18,-350.04"/>
</a>
</g>
</g>
<!-- Node16 -->
<g id="Node000016" class="node">
<title>Node16</title>
<g id="a_Node000016"><a xlink:href="../../d7/d3c/class_clipper2_lib_1_1_clipper_base.html#ad1b77ca409d8085afb6a8a7fe4725a1f" target="_top" xlink:title=" ">
<polygon fill="#fff0f0" stroke="red" points="1161.25,-328.88 1037.25,-328.88 1037.25,-298.38 1161.25,-298.38 1161.25,-328.88"/>
<text text-anchor="start" x="1045.25" y="-315.38" font-family="Helvetica,sans-Serif" font-size="10.00">Clipper2Lib::ClipperBase</text>
<text text-anchor="middle" x="1099.25" y="-304.12" font-family="Helvetica,sans-Serif" font-size="10.00">::DeleteJoin</text>
</a>
</g>
</g>
<!-- Node15&#45;&gt;Node16 -->
<g id="edge14_Node000015_Node000016" class="edge">
<title>Node15&#45;&gt;Node16</title>
<g id="a_edge14_Node000015_Node000016"><a xlink:title=" ">
<path fill="none" stroke="#63b8ff" d="M982,-280.26C998.24,-284.93 1016.21,-290.08 1033.07,-294.92"/>
<polygon fill="#63b8ff" stroke="#63b8ff" points="1031.82,-298.49 1042.39,-297.88 1033.75,-291.76 1031.82,-298.49"/>
</a>
</g>
</g>
<!-- Node18 -->
<g id="Node000018" class="node">
<title>Node18</title>
<g id="a_Node000018"><a xlink:href="../../d7/d3c/class_clipper2_lib_1_1_clipper_base.html#a08f7b243f75c11701d47b0c7d63947a6" target="_top" xlink:title=" ">
<polygon fill="#fff0f0" stroke="red" points="1161.25,-279.88 1037.25,-279.88 1037.25,-249.38 1161.25,-249.38 1161.25,-279.88"/>
<text text-anchor="start" x="1045.25" y="-266.38" font-family="Helvetica,sans-Serif" font-size="10.00">Clipper2Lib::ClipperBase</text>
<text text-anchor="middle" x="1099.25" y="-255.12" font-family="Helvetica,sans-Serif" font-size="10.00">::DeleteTrialHorzJoin</text>
</a>
</g>
</g>
<!-- Node15&#45;&gt;Node18 -->
<g id="edge15_Node000015_Node000018" class="edge">
<title>Node15&#45;&gt;Node18</title>
<g id="a_edge15_Node000015_Node000018"><a xlink:title=" ">
<path fill="none" stroke="#63b8ff" d="M990.6,-264.62C1002.16,-264.62 1014.31,-264.62 1026.12,-264.62"/>
<polygon fill="#63b8ff" stroke="#63b8ff" points="1025.83,-268.13 1035.83,-264.62 1025.83,-261.13 1025.83,-268.13"/>
</a>
</g>
</g>
<!-- Node20 -->
<g id="Node000020" class="node">
<title>Node20</title>
<g id="a_Node000020"><a xlink:href="../../d7/d3c/class_clipper2_lib_1_1_clipper_base.html#ae71daa690fa14512e3ac860d7b828523" target="_top" xlink:title=" ">
<polygon fill="#fff0f0" stroke="red" points="1161.25,-230.88 1037.25,-230.88 1037.25,-200.38 1161.25,-200.38 1161.25,-230.88"/>
<text text-anchor="start" x="1045.25" y="-217.38" font-family="Helvetica,sans-Serif" font-size="10.00">Clipper2Lib::ClipperBase</text>
<text text-anchor="middle" x="1099.25" y="-206.12" font-family="Helvetica,sans-Serif" font-size="10.00">::OutPtInTrialHorzList</text>
</a>
</g>
</g>
<!-- Node15&#45;&gt;Node20 -->
<g id="edge16_Node000015_Node000020" class="edge">
<title>Node15&#45;&gt;Node20</title>
<g id="a_edge16_Node000015_Node000020"><a xlink:title=" ">
<path fill="none" stroke="#63b8ff" d="M982,-248.99C998.24,-244.32 1016.21,-239.17 1033.07,-234.33"/>
<polygon fill="#63b8ff" stroke="#63b8ff" points="1033.75,-237.49 1042.39,-231.37 1031.82,-230.76 1033.75,-237.49"/>
</a>
</g>
</g>
<!-- Node22&#45;&gt;Node15 -->
<g id="edge19_Node000022_Node000015" class="edge">
<title>Node22&#45;&gt;Node15</title>
<g id="a_edge19_Node000022_Node000015"><a xlink:title=" ">
<path fill="none" stroke="#63b8ff" d="M812.76,-245.85C825.31,-247.94 838.64,-250.16 851.57,-252.31"/>
<polygon fill="#63b8ff" stroke="#63b8ff" points="850.87,-255.91 861.31,-254.1 852.02,-249.01 850.87,-255.91"/>
</a>
</g>
</g>
<!-- Node22&#45;&gt;Node23 -->
<g id="edge18_Node000022_Node000023" class="edge">
<title>Node22&#45;&gt;Node23</title>
<g id="a_edge18_Node000022_Node000023"><a xlink:title=" ">
<path fill="none" stroke="#63b8ff" d="M776.34,-219.96C788.76,-211.63 803.66,-200.83 815.75,-189.62 834.04,-172.69 832.45,-162.4 851.75,-146.62 863.88,-136.71 878.84,-128.06 892.11,-121.37"/>
<polygon fill="#63b8ff" stroke="#63b8ff" points="893.38,-124.16 900.85,-116.64 890.32,-117.86 893.38,-124.16"/>
</a>
</g>
</g>
<!-- Node24&#45;&gt;Node4 -->
<g id="edge21_Node000024_Node000004" class="edge">
<title>Node24&#45;&gt;Node4</title>
<g id="a_edge21_Node000024_Node000004"><a xlink:title=" ">
<path fill="none" stroke="#63b8ff" d="M631.3,-187.56C637.48,-185.41 643.5,-182.79 649,-179.62 669.15,-168 665.16,-153.78 685,-141.62 687.84,-139.89 690.85,-138.3 693.95,-136.85"/>
<polygon fill="#63b8ff" stroke="#63b8ff" points="695.18,-139.72 703.1,-132.68 692.52,-133.24 695.18,-139.72"/>
</a>
</g>
</g>
<!-- Node25&#45;&gt;Node22 -->
<g id="edge27_Node000025_Node000022" class="edge">
<title>Node25&#45;&gt;Node22</title>
<g id="a_edge27_Node000025_Node000022"><a xlink:title=" ">
<path fill="none" stroke="#63b8ff" d="M440.15,-181.36C446.85,-184.17 453.57,-187.28 459.75,-190.62 477.11,-200.02 477.21,-209.85 495.75,-216.62 554.22,-237.98 625.2,-241.57 677.19,-240.5"/>
<polygon fill="#63b8ff" stroke="#63b8ff" points="677.08,-243.97 686.98,-240.2 676.89,-236.98 677.08,-243.97"/>
</a>
</g>
</g>
<!-- Node26 -->
<g id="Node000026" class="node">
<title>Node26</title>
<g id="a_Node000026"><a xlink:href="../../d5/dd8/namespace_clipper2_lib.html#a3f93c196cd7c601f22fade5852230c7c" target="_top" xlink:title=" ">
<polygon fill="white" stroke="#666666" points="647.88,-170.25 496.88,-170.25 496.88,-151 647.88,-151 647.88,-170.25"/>
<text text-anchor="middle" x="572.38" y="-156.75" font-family="Helvetica,sans-Serif" font-size="10.00">Clipper2Lib::IsValidClosedPath</text>
</a>
</g>
</g>
<!-- Node25&#45;&gt;Node26 -->
<g id="edge24_Node000025_Node000026" class="edge">
<title>Node25&#45;&gt;Node26</title>
<g id="a_edge24_Node000025_Node000026"><a xlink:title=" ">
<path fill="none" stroke="#63b8ff" d="M455.95,-163.89C465.54,-163.62 475.6,-163.33 485.62,-163.05"/>
<polygon fill="#63b8ff" stroke="#63b8ff" points="485.55,-166.53 495.45,-162.74 485.35,-159.53 485.55,-166.53"/>
</a>
</g>
</g>
<!-- Node27 -->
<g id="Node000027" class="node">
<title>Node27</title>
<g id="a_Node000027"><a xlink:href="../../d5/dd8/namespace_clipper2_lib.html#aa41a57f6e1fb160fde6de21f091834e8" target="_top" xlink:title=" ">
<polygon fill="white" stroke="#666666" points="812.38,-180.88 688.38,-180.88 688.38,-150.38 812.38,-150.38 812.38,-180.88"/>
<text text-anchor="start" x="696.38" y="-167.38" font-family="Helvetica,sans-Serif" font-size="10.00">Clipper2Lib::IsVerySmall</text>
<text text-anchor="middle" x="750.38" y="-156.12" font-family="Helvetica,sans-Serif" font-size="10.00">Triangle</text>
</a>
</g>
</g>
<!-- Node26&#45;&gt;Node27 -->
<g id="edge25_Node000026_Node000027" class="edge">
<title>Node26&#45;&gt;Node27</title>
<g id="a_edge25_Node000026_Node000027"><a xlink:title=" ">
<path fill="none" stroke="#63b8ff" d="M648.27,-162.75C657.92,-163.03 667.79,-163.31 677.4,-163.58"/>
<polygon fill="#63b8ff" stroke="#63b8ff" points="677.01,-167.1 687.1,-163.88 677.2,-160.1 677.01,-167.1"/>
</a>
</g>
</g>
<!-- Node28 -->
<g id="Node000028" class="node">
<title>Node28</title>
<g id="a_Node000028"><a xlink:href="../../d5/dd8/namespace_clipper2_lib.html#a65e4057275b4e839cc270422c55319fe" target="_top" xlink:title=" ">
<polygon fill="white" stroke="#666666" points="996,-175.25 857,-175.25 857,-156 996,-156 996,-175.25"/>
<text text-anchor="middle" x="926.5" y="-161.75" font-family="Helvetica,sans-Serif" font-size="10.00">Clipper2Lib::PtsReallyClose</text>
</a>
</g>
</g>
<!-- Node27&#45;&gt;Node28 -->
<g id="edge26_Node000027_Node000028" class="edge">
<title>Node27&#45;&gt;Node28</title>
<g id="a_edge26_Node000027_Node000028"><a xlink:title=" ">
<path fill="none" stroke="#63b8ff" d="M812.76,-165.62C823.41,-165.62 834.62,-165.62 845.68,-165.62"/>
<polygon fill="#63b8ff" stroke="#63b8ff" points="845.65,-169.13 855.65,-165.62 845.65,-162.13 845.65,-169.13"/>
</a>
</g>
</g>
</g>
</svg>

<g id="navigator" transform="translate(0 0)" fill="#404254">
  <rect fill="#f2f5e9" fill-opacity="0.5" stroke="#606060" stroke-width=".5" x="0" y="0" width="60" height="60"/>
  <use id="zoomplus" xlink:href="#zoomPlus" x="17" y="9" onmousedown="handleZoom(evt,'in')"/>
  <use id="zoomminus" xlink:href="#zoomMin" x="42" y="9" onmousedown="handleZoom(evt,'out')"/>
  <use id="reset" xlink:href="#resetDef" x="30" y="36" onmousedown="handleReset()"/>
   <use id="arrowup" xlink:href="#arrowUp" x="0" y="0" onmousedown="handlePan(0,-1)"/>
  <use id="arrowright" xlink:href="#arrowRight" x="0" y="0" onmousedown="handlePan(1,0)"/>
  <use id="arrowdown" xlink:href="#arrowDown" x="0" y="0" onmousedown="handlePan(0,1)"/>
  <use id="arrowleft" xlink:href="#arrowLeft" x="0" y="0" onmousedown="handlePan(-1,0)"/>
</g>
<svg viewBox="0 0 15 15" width="100%" height="30px" preserveAspectRatio="xMaxYMin meet">
 <g id="arrow_out" transform="scale(0.3 0.3)">
  <a xlink:href="class_clipper2_lib_1_1_clipper_base_ad6b81e6b04146beb890e512542c95237_cgraph_org.svg" target="_base">
   <rect id="button" ry="5" rx="5" y="6" x="6" height="38" width="38"
        fill="#f2f5e9" fill-opacity="0.5" stroke="#606060" stroke-width="1.0"/>
   <path id="arrow"
     d="M 11.500037,31.436501 C 11.940474,20.09759 22.043105,11.32322 32.158766,21.979434 L 37.068811,17.246167 C 37.068811,17.246167 37.088388,32 37.088388,32 L 22.160133,31.978069 C 22.160133,31.978069 26.997745,27.140456 26.997745,27.140456 C 18.528582,18.264221 13.291696,25.230495 11.500037,31.436501 z"
     style="fill:#404040;"/>
  </a>
 </g>
</svg>

<style type='text/css'>
<![CDATA[
[data-mouse-over-selected='false'] { opacity: 0.7; }
[data-mouse-over-selected='true']  { opacity: 1.0; }
]]>
</style>
<script type="application/ecmascript"><![CDATA[
document.addEventListener('DOMContentLoaded', (event) => {
  highlightEdges();
  highlightAdjacentNodes();
});
]]></script>
</svg>
