<?xml version="1.0" encoding="UTF-8" standalone="no"?>
<!DOCTYPE svg PUBLIC "-//W3C//DTD SVG 1.1//EN"
 "http://www.w3.org/Graphics/SVG/1.1/DTD/svg11.dtd">
<!-- Generated by graphviz version 8.1.0 (20230707.0739)
 -->
<!-- Title: Slic3r::ModelVolume::get_matrix Pages: 1 -->
<!--zoomable 210 -->

<svg id="main" version="1.1" xmlns="http://www.w3.org/2000/svg" xmlns:xlink="http://www.w3.org/1999/xlink" xml:space="preserve" onload="init(evt)">
<style type="text/css"><![CDATA[
.node, .edge {opacity: 0.7;}
.node.selected, .edge.selected {opacity: 1;}
.edge:hover path { stroke: red; }
.edge:hover polygon { stroke: red; fill: red; }
]]></style>

<defs>
  <circle id="rim" cx="0" cy="0" r="7"/>
  <circle id="rim2" cx="0" cy="0" r="3.5"/>
  <g id="zoomPlus">
    <use xlink:href="#rim" fill="#404040"><set attributeName="fill" to="#808080" begin="zoomplus.mouseover" end="zoomplus.mouseout"/></use>
    <path d="M-4,0h8M0,-4v8" fill="none" stroke="white" stroke-width="1.5" pointer-events="none"/>
  </g>
  <g id="zoomMin">
    <use xlink:href="#rim" fill="#404040"><set attributeName="fill" to="#808080" begin="zoomminus.mouseover" end="zoomminus.mouseout"/></use>
    <path d="M-4,0h8" fill="none" stroke="white" stroke-width="1.5" pointer-events="none"/>
  </g>
  <g id="arrowUp" transform="translate(30 24)">
    <use xlink:href="#rim"/>
    <path pointer-events="none" fill="none" stroke="white" stroke-width="1.5" d="M0,-3.0v7 M-2.5,-0.5L0,-3.0L2.5,-0.5"/>
  </g>
  <g id="arrowRight" transform="rotate(90) translate(36 -43)">
    <use xlink:href="#rim"/>
    <path pointer-events="none" fill="none" stroke="white" stroke-width="1.5" d="M0,-3.0v7 M-2.5,-0.5L0,-3.0L2.5,-0.5"/>
  </g>
  <g id="arrowDown" transform="rotate(180) translate(-30 -48)">
    <use xlink:href="#rim"/>
    <path pointer-events="none" fill="none" stroke="white" stroke-width="1.5" d="M0,-3.0v7 M-2.5,-0.5L0,-3.0L2.5,-0.5"/>
  </g>
  <g id="arrowLeft" transform="rotate(270) translate(-36 17)">
    <use xlink:href="#rim"/>
    <path pointer-events="none" fill="none" stroke="white" stroke-width="1.5" d="M0,-3.0v7 M-2.5,-0.5L0,-3.0L2.5,-0.5"/>
  </g>
  <g id="resetDef">
    <use xlink:href="#rim2" fill="#404040"><set attributeName="fill" to="#808080" begin="reset.mouseover" end="reset.mouseout"/></use>
  </g>
</defs>
<script type="application/ecmascript">
var viewWidth = 976;
var viewHeight = 210;
var sectionId = 'dynsection-31';
</script>
<script type="application/ecmascript" xlink:href="../../svg.min.js"/>
<svg id="graph" class="graph">
<g id="viewport">
<title>Slic3r::ModelVolume::get_matrix</title>
<!-- Node1 -->
<g id="Node000001" class="node">
<title>Node1</title>
<g id="a_Node000001"><a xlink:title=" ">
<polygon fill="#999999" stroke="#666666" points="106,-79.5 0,-79.5 0,-49 106,-49 106,-79.5"/>
<text text-anchor="start" x="8" y="-66" font-family="Helvetica,sans-Serif" font-size="10.00">Slic3r::ModelVolume</text>
<text text-anchor="middle" x="53" y="-54.75" font-family="Helvetica,sans-Serif" font-size="10.00">::get_matrix</text>
</a>
</g>
</g>
<!-- Node2 -->
<g id="Node000002" class="node">
<title>Node2</title>
<g id="a_Node000002"><a xlink:href="../../d6/d28/class_slic3r_1_1_geometry_1_1_transformation.html#a0fc8663b2798bffa7d5d7db77f259573" target="_top" xlink:title=" ">
<polygon fill="white" stroke="#666666" points="302.75,-79.5 142,-79.5 142,-49 302.75,-49 302.75,-79.5"/>
<text text-anchor="start" x="150" y="-66" font-family="Helvetica,sans-Serif" font-size="10.00">Slic3r::Geometry::Transformation</text>
<text text-anchor="middle" x="222.38" y="-54.75" font-family="Helvetica,sans-Serif" font-size="10.00">::get_matrix</text>
</a>
</g>
</g>
<!-- Node1&#45;&gt;Node2 -->
<g id="edge1_Node000001_Node000002" class="edge">
<title>Node1&#45;&gt;Node2</title>
<g id="a_edge1_Node000001_Node000002"><a xlink:title=" ">
<path fill="none" stroke="#63b8ff" d="M106.5,-64.25C114.3,-64.25 122.52,-64.25 130.83,-64.25"/>
<polygon fill="#63b8ff" stroke="#63b8ff" points="130.78,-67.75 140.78,-64.25 130.78,-60.75 130.78,-67.75"/>
</a>
</g>
</g>
<!-- Node3 -->
<g id="Node000003" class="node">
<title>Node3</title>
<g id="a_Node000003"><a xlink:href="../../d3/dfb/namespace_slic3r_1_1_geometry.html#a247db7c57d65503266afb6dc7fe70a0f" target="_top" xlink:title=" ">
<polygon fill="white" stroke="#666666" points="487.88,-128.5 350.38,-128.5 350.38,-98 487.88,-98 487.88,-128.5"/>
<text text-anchor="start" x="358.38" y="-115" font-family="Helvetica,sans-Serif" font-size="10.00">Slic3r::Geometry::assemble</text>
<text text-anchor="middle" x="419.12" y="-103.75" font-family="Helvetica,sans-Serif" font-size="10.00">_transform</text>
</a>
</g>
</g>
<!-- Node2&#45;&gt;Node3 -->
<g id="edge2_Node000002_Node000003" class="edge">
<title>Node2&#45;&gt;Node3</title>
<g id="a_edge2_Node000002_Node000003"><a xlink:title=" ">
<path fill="none" stroke="#63b8ff" d="M285.8,-79.96C304.75,-84.73 325.75,-90.01 345.32,-94.93"/>
<polygon fill="#63b8ff" stroke="#63b8ff" points="344.17,-98.5 354.72,-97.55 345.88,-91.71 344.17,-98.5"/>
</a>
</g>
</g>
<!-- Node10 -->
<g id="Node000010" class="node">
<title>Node10</title>
<g id="a_Node000010"><a xlink:href="../../d9/d8b/struct_slic3r_1_1_geometry_1_1_transformation_1_1_flags.html#a056f4811f4143739ca060103a97a8f0a" target="_top" xlink:title=" ">
<polygon fill="white" stroke="#666666" points="499.5,-79.5 338.75,-79.5 338.75,-49 499.5,-49 499.5,-79.5"/>
<text text-anchor="start" x="346.75" y="-66" font-family="Helvetica,sans-Serif" font-size="10.00">Slic3r::Geometry::Transformation</text>
<text text-anchor="middle" x="419.12" y="-54.75" font-family="Helvetica,sans-Serif" font-size="10.00">::Flags::needs_update</text>
</a>
</g>
</g>
<!-- Node2&#45;&gt;Node10 -->
<g id="edge9_Node000002_Node000010" class="edge">
<title>Node2&#45;&gt;Node10</title>
<g id="a_edge9_Node000002_Node000010"><a xlink:title=" ">
<path fill="none" stroke="#63b8ff" d="M303.15,-64.25C311.26,-64.25 319.53,-64.25 327.74,-64.25"/>
<polygon fill="#63b8ff" stroke="#63b8ff" points="327.47,-67.75 337.47,-64.25 327.47,-60.75 327.47,-67.75"/>
</a>
</g>
</g>
<!-- Node11 -->
<g id="Node000011" class="node">
<title>Node11</title>
<g id="a_Node000011"><a xlink:href="../../d9/d8b/struct_slic3r_1_1_geometry_1_1_transformation_1_1_flags.html#a7780cfb830da06dad0d1fe88c1394b3b" target="_top" xlink:title=" ">
<polygon fill="white" stroke="#666666" points="499.5,-30.5 338.75,-30.5 338.75,0 499.5,0 499.5,-30.5"/>
<text text-anchor="start" x="346.75" y="-17" font-family="Helvetica,sans-Serif" font-size="10.00">Slic3r::Geometry::Transformation</text>
<text text-anchor="middle" x="419.12" y="-5.75" font-family="Helvetica,sans-Serif" font-size="10.00">::Flags::set</text>
</a>
</g>
</g>
<!-- Node2&#45;&gt;Node11 -->
<g id="edge10_Node000002_Node000011" class="edge">
<title>Node2&#45;&gt;Node11</title>
<g id="a_edge10_Node000002_Node000011"><a xlink:title=" ">
<path fill="none" stroke="#63b8ff" d="M285.8,-48.54C304.75,-43.77 325.75,-38.49 345.32,-33.57"/>
<polygon fill="#63b8ff" stroke="#63b8ff" points="345.88,-36.79 354.72,-30.95 344.17,-30 345.88,-36.79"/>
</a>
</g>
</g>
<!-- Node4 -->
<g id="Node000004" class="node">
<title>Node4</title>
<g id="a_Node000004"><a xlink:href="../../d5/d00/group___geometry___module.html#a41e2e58b09790eb8e3e220acceb7de1f" target="_top" xlink:title="Returns an identity transformation.">
<polygon fill="white" stroke="#666666" points="667,-202.12 535.5,-202.12 535.5,-160.38 667,-160.38 667,-202.12"/>
<text text-anchor="start" x="543.5" y="-188.62" font-family="Helvetica,sans-Serif" font-size="10.00">Eigen::Transform&lt; double,</text>
<text text-anchor="start" x="543.5" y="-177.38" font-family="Helvetica,sans-Serif" font-size="10.00"> 3, Eigen::Affine, Eigen</text>
<text text-anchor="middle" x="601.25" y="-166.12" font-family="Helvetica,sans-Serif" font-size="10.00">::DontAlign &gt;::Identity</text>
</a>
</g>
</g>
<!-- Node3&#45;&gt;Node4 -->
<g id="edge3_Node000003_Node000004" class="edge">
<title>Node3&#45;&gt;Node4</title>
<g id="a_edge3_Node000003_Node000004"><a xlink:title=" ">
<path fill="none" stroke="#63b8ff" d="M461.45,-128.85C482.81,-136.91 509.4,-146.95 533.57,-156.08"/>
<polygon fill="#63b8ff" stroke="#63b8ff" points="532.17,-159.67 542.76,-159.92 534.64,-153.12 532.17,-159.67"/>
</a>
</g>
</g>
<!-- Node5 -->
<g id="Node000005" class="node">
<title>Node5</title>
<g id="a_Node000005"><a xlink:href="../../d6/dba/_wipe_tower_dialog_8cpp.html#a031c2862b832be718b216d1f101f88cd" target="_top" xlink:title=" ">
<polygon fill="white" stroke="#666666" points="620.88,-141.88 581.62,-141.88 581.62,-122.62 620.88,-122.62 620.88,-141.88"/>
<text text-anchor="middle" x="601.25" y="-128.38" font-family="Helvetica,sans-Serif" font-size="10.00">scale</text>
</a>
</g>
</g>
<!-- Node3&#45;&gt;Node5 -->
<g id="edge4_Node000003_Node000005" class="edge">
<title>Node3&#45;&gt;Node5</title>
<g id="a_edge4_Node000003_Node000005"><a xlink:title=" ">
<path fill="none" stroke="#63b8ff" d="M488.22,-120.43C516.73,-123.44 548.36,-126.78 570.72,-129.14"/>
<polygon fill="#63b8ff" stroke="#63b8ff" points="570.19,-132.7 580.5,-130.27 570.93,-125.74 570.19,-132.7"/>
</a>
</g>
</g>
<!-- Node6 -->
<g id="Node000006" class="node">
<title>Node6</title>
<g id="a_Node000006"><a xlink:href="../../d9/d8d/class_slic3r_1_1_linef3.html#aef457f1f60bdf92f6ae5712e68189fc1" target="_top" xlink:title=" ">
<polygon fill="white" stroke="#666666" points="652.38,-104.88 550.12,-104.88 550.12,-85.62 652.38,-85.62 652.38,-104.88"/>
<text text-anchor="middle" x="601.25" y="-91.38" font-family="Helvetica,sans-Serif" font-size="10.00">Slic3r::Linef3::scale</text>
</a>
</g>
</g>
<!-- Node3&#45;&gt;Node6 -->
<g id="edge5_Node000003_Node000006" class="edge">
<title>Node3&#45;&gt;Node6</title>
<g id="a_edge5_Node000003_Node000006"><a xlink:title=" ">
<path fill="none" stroke="#63b8ff" d="M488.22,-106.44C504.98,-104.77 522.81,-102.99 539.21,-101.35"/>
<polygon fill="#63b8ff" stroke="#63b8ff" points="539.15,-104.77 548.75,-100.3 538.45,-97.81 539.15,-104.77"/>
</a>
</g>
</g>
<!-- Node7 -->
<g id="Node000007" class="node">
<title>Node7</title>
<g id="a_Node000007"><a xlink:href="../../de/db8/namespace_slic3r.html#ac438e30f7d61567b77c49f5eeceb0ef2" target="_top" xlink:title=" ">
<polygon fill="white" stroke="#666666" points="645.25,-67.88 557.25,-67.88 557.25,-48.62 645.25,-48.62 645.25,-67.88"/>
<text text-anchor="middle" x="601.25" y="-54.38" font-family="Helvetica,sans-Serif" font-size="10.00">Slic3r::transform</text>
</a>
</g>
</g>
<!-- Node3&#45;&gt;Node7 -->
<g id="edge6_Node000003_Node000007" class="edge">
<title>Node3&#45;&gt;Node7</title>
<g id="a_edge6_Node000003_Node000007"><a xlink:title=" ">
<path fill="none" stroke="#63b8ff" d="M470.55,-97.51C480.17,-94.46 490.15,-91.28 499.5,-88.25 515.54,-83.05 519.37,-81.18 535.5,-76.25 541.01,-74.57 546.8,-72.86 552.56,-71.21"/>
<polygon fill="#63b8ff" stroke="#63b8ff" points="553.17,-74.39 561.84,-68.3 551.26,-67.66 553.17,-74.39"/>
</a>
</g>
</g>
<!-- Node8 -->
<g id="Node000008" class="node">
<title>Node8</title>
<g id="a_Node000008"><a xlink:href="../../da/d8d/class_eigen_1_1_plain_object_base.html#a322d4d48cc285b60e0dff100db522342" target="_top" xlink:title=" ">
<polygon fill="white" stroke="#666666" points="822.5,-73.5 703,-73.5 703,-43 822.5,-43 822.5,-73.5"/>
<text text-anchor="start" x="711" y="-60" font-family="Helvetica,sans-Serif" font-size="10.00">Eigen::PlainObjectBase</text>
<text text-anchor="middle" x="762.75" y="-48.75" font-family="Helvetica,sans-Serif" font-size="10.00">::data</text>
</a>
</g>
</g>
<!-- Node7&#45;&gt;Node8 -->
<g id="edge7_Node000007_Node000008" class="edge">
<title>Node7&#45;&gt;Node8</title>
<g id="a_edge7_Node000007_Node000008"><a xlink:title=" ">
<path fill="none" stroke="#63b8ff" d="M645.41,-58.25C659.73,-58.25 676.06,-58.25 691.86,-58.25"/>
<polygon fill="#63b8ff" stroke="#63b8ff" points="691.68,-61.75 701.68,-58.25 691.68,-54.75 691.68,-61.75"/>
</a>
</g>
</g>
<!-- Node9 -->
<g id="Node000009" class="node">
<title>Node9</title>
<g id="a_Node000009"><a xlink:href="../../d5/d91/class_eigen_1_1_dense_storage.html#abdbbeb487a245756ac498d2590e3560a" target="_top" xlink:title=" ">
<polygon fill="white" stroke="#666666" points="967.5,-73.5 858.5,-73.5 858.5,-43 967.5,-43 967.5,-73.5"/>
<text text-anchor="start" x="866.5" y="-60" font-family="Helvetica,sans-Serif" font-size="10.00">Eigen::DenseStorage</text>
<text text-anchor="middle" x="913" y="-48.75" font-family="Helvetica,sans-Serif" font-size="10.00">::data</text>
</a>
</g>
</g>
<!-- Node8&#45;&gt;Node9 -->
<g id="edge8_Node000008_Node000009" class="edge">
<title>Node8&#45;&gt;Node9</title>
<g id="a_edge8_Node000008_Node000009"><a xlink:title=" ">
<path fill="none" stroke="#63b8ff" d="M822.77,-58.25C830.97,-58.25 839.42,-58.25 847.71,-58.25"/>
<polygon fill="#63b8ff" stroke="#63b8ff" points="847.47,-61.75 857.47,-58.25 847.47,-54.75 847.47,-61.75"/>
</a>
</g>
</g>
</g>
</svg>

<g id="navigator" transform="translate(0 0)" fill="#404254">
  <rect fill="#f2f5e9" fill-opacity="0.5" stroke="#606060" stroke-width=".5" x="0" y="0" width="60" height="60"/>
  <use id="zoomplus" xlink:href="#zoomPlus" x="17" y="9" onmousedown="handleZoom(evt,'in')"/>
  <use id="zoomminus" xlink:href="#zoomMin" x="42" y="9" onmousedown="handleZoom(evt,'out')"/>
  <use id="reset" xlink:href="#resetDef" x="30" y="36" onmousedown="handleReset()"/>
   <use id="arrowup" xlink:href="#arrowUp" x="0" y="0" onmousedown="handlePan(0,-1)"/>
  <use id="arrowright" xlink:href="#arrowRight" x="0" y="0" onmousedown="handlePan(1,0)"/>
  <use id="arrowdown" xlink:href="#arrowDown" x="0" y="0" onmousedown="handlePan(0,1)"/>
  <use id="arrowleft" xlink:href="#arrowLeft" x="0" y="0" onmousedown="handlePan(-1,0)"/>
</g>
<svg viewBox="0 0 15 15" width="100%" height="30px" preserveAspectRatio="xMaxYMin meet">
 <g id="arrow_out" transform="scale(0.3 0.3)">
  <a xlink:href="class_slic3r_1_1_model_volume_a22b10a4b0255791c3f06112c3f1c2468_cgraph_org.svg" target="_base">
   <rect id="button" ry="5" rx="5" y="6" x="6" height="38" width="38"
        fill="#f2f5e9" fill-opacity="0.5" stroke="#606060" stroke-width="1.0"/>
   <path id="arrow"
     d="M 11.500037,31.436501 C 11.940474,20.09759 22.043105,11.32322 32.158766,21.979434 L 37.068811,17.246167 C 37.068811,17.246167 37.088388,32 37.088388,32 L 22.160133,31.978069 C 22.160133,31.978069 26.997745,27.140456 26.997745,27.140456 C 18.528582,18.264221 13.291696,25.230495 11.500037,31.436501 z"
     style="fill:#404040;"/>
  </a>
 </g>
</svg>

<style type='text/css'>
<![CDATA[
[data-mouse-over-selected='false'] { opacity: 0.7; }
[data-mouse-over-selected='true']  { opacity: 1.0; }
]]>
</style>
<script type="application/ecmascript"><![CDATA[
document.addEventListener('DOMContentLoaded', (event) => {
  highlightEdges();
  highlightAdjacentNodes();
});
]]></script>
</svg>
