<?xml version="1.0" encoding="UTF-8" standalone="no"?>
<!DOCTYPE svg PUBLIC "-//W3C//DTD SVG 1.1//EN"
 "http://www.w3.org/Graphics/SVG/1.1/DTD/svg11.dtd">
<!-- Generated by graphviz version 8.1.0 (20230707.0739)
 -->
<!-- Title: Slic3r::ModelVolume::set_mirror Pages: 1 -->
<svg width="650pt" height="124pt"
 viewBox="0.00 0.00 649.50 123.50" xmlns="http://www.w3.org/2000/svg" xmlns:xlink="http://www.w3.org/1999/xlink">
<g id="graph0" class="graph" transform="scale(1 1) rotate(0) translate(4 119.5)">
<title>Slic3r::ModelVolume::set_mirror</title>
<!-- Node1 -->
<g id="Node000001" class="node">
<title>Node1</title>
<g id="a_Node000001"><a xlink:title=" ">
<polygon fill="#999999" stroke="#666666" points="106,-97.5 0,-97.5 0,-67 106,-67 106,-97.5"/>
<text text-anchor="start" x="8" y="-84" font-family="Helvetica,sans-Serif" font-size="10.00">Slic3r::ModelVolume</text>
<text text-anchor="middle" x="53" y="-72.75" font-family="Helvetica,sans-Serif" font-size="10.00">::set_mirror</text>
</a>
</g>
</g>
<!-- Node2 -->
<g id="Node000002" class="node">
<title>Node2</title>
<g id="a_Node000002"><a xlink:href="../../d0/d02/class_slic3r_1_1_model_volume.html#ac3171d44c6cd863a83fcb49cc5d6bf2b" target="_top" xlink:title=" ">
<polygon fill="white" stroke="#666666" points="275.38,-97.5 169.38,-97.5 169.38,-67 275.38,-67 275.38,-97.5"/>
<text text-anchor="start" x="177.38" y="-84" font-family="Helvetica,sans-Serif" font-size="10.00">Slic3r::ModelVolume</text>
<text text-anchor="middle" x="222.38" y="-72.75" font-family="Helvetica,sans-Serif" font-size="10.00">::mirror</text>
</a>
</g>
</g>
<!-- Node1&#45;&gt;Node2 -->
<g id="edge1_Node000001_Node000002" class="edge">
<title>Node1&#45;&gt;Node2</title>
<g id="a_edge1_Node000001_Node000002"><a xlink:title=" ">
<path fill="none" stroke="#63b8ff" d="M106.5,-75.94C122.86,-75.46 141.07,-75.37 158.09,-75.68"/>
<polygon fill="#63b8ff" stroke="#63b8ff" points="157.98,-79.2 168.06,-75.94 158.15,-72.21 157.98,-79.2"/>
</a>
</g>
</g>
<!-- Node5 -->
<g id="Node000005" class="node">
<title>Node5</title>
<g id="a_Node000005"><a xlink:href="../../d6/d28/class_slic3r_1_1_geometry_1_1_transformation.html#a48297302d2444ecad23634ee96a1a57a" target="_top" xlink:title=" ">
<polygon fill="white" stroke="#666666" points="302.75,-30.5 142,-30.5 142,0 302.75,0 302.75,-30.5"/>
<text text-anchor="start" x="150" y="-17" font-family="Helvetica,sans-Serif" font-size="10.00">Slic3r::Geometry::Transformation</text>
<text text-anchor="middle" x="222.38" y="-5.75" font-family="Helvetica,sans-Serif" font-size="10.00">::set_mirror</text>
</a>
</g>
</g>
<!-- Node1&#45;&gt;Node5 -->
<g id="edge6_Node000001_Node000005" class="edge">
<title>Node1&#45;&gt;Node5</title>
<g id="a_edge6_Node000001_Node000005"><a xlink:title=" ">
<path fill="none" stroke="#63b8ff" d="M93.24,-66.54C116.77,-57.13 146.89,-45.07 172.02,-35.01"/>
<polygon fill="#63b8ff" stroke="#63b8ff" points="173.11,-37.94 181.09,-30.98 170.5,-31.44 173.11,-37.94"/>
</a>
</g>
</g>
<!-- Node2&#45;&gt;Node1 -->
<g id="edge5_Node000002_Node000001" class="edge">
<title>Node2&#45;&gt;Node1</title>
<g id="a_edge5_Node000002_Node000001"><a xlink:title=" ">
<path fill="none" stroke="#63b8ff" d="M169.06,-88.56C152.72,-89.04 134.51,-89.13 117.48,-88.82"/>
<polygon fill="#63b8ff" stroke="#63b8ff" points="117.58,-85.3 107.5,-88.56 117.41,-92.3 117.58,-85.3"/>
</a>
</g>
</g>
<!-- Node2&#45;&gt;Node2 -->
<g id="edge4_Node000002_Node000002" class="edge">
<title>Node2&#45;&gt;Node2</title>
<g id="a_edge4_Node000002_Node000002"><a xlink:title=" ">
<path fill="none" stroke="#63b8ff" d="M192.36,-97.99C186.24,-107.06 196.24,-115.5 222.38,-115.5 237.08,-115.5 246.67,-112.83 251.17,-108.88"/>
<polygon fill="#63b8ff" stroke="#63b8ff" points="254.75,-109.31 252.39,-98.99 247.79,-108.53 254.75,-109.31"/>
</a>
</g>
</g>
<!-- Node3 -->
<g id="Node000003" class="node">
<title>Node3</title>
<g id="a_Node000003"><a xlink:href="../../d0/d02/class_slic3r_1_1_model_volume.html#a5c6ee06f19e1e8d35ded51f9d0d6023c" target="_top" xlink:title=" ">
<polygon fill="white" stroke="#666666" points="444.75,-97.5 338.75,-97.5 338.75,-67 444.75,-67 444.75,-97.5"/>
<text text-anchor="start" x="346.75" y="-84" font-family="Helvetica,sans-Serif" font-size="10.00">Slic3r::ModelVolume</text>
<text text-anchor="middle" x="391.75" y="-72.75" font-family="Helvetica,sans-Serif" font-size="10.00">::get_mirror</text>
</a>
</g>
</g>
<!-- Node2&#45;&gt;Node3 -->
<g id="edge2_Node000002_Node000003" class="edge">
<title>Node2&#45;&gt;Node3</title>
<g id="a_edge2_Node000002_Node000003"><a xlink:title=" ">
<path fill="none" stroke="#63b8ff" d="M275.87,-82.25C292.23,-82.25 310.45,-82.25 327.46,-82.25"/>
<polygon fill="#63b8ff" stroke="#63b8ff" points="327.44,-85.75 337.44,-82.25 327.44,-78.75 327.44,-85.75"/>
</a>
</g>
</g>
<!-- Node4 -->
<g id="Node000004" class="node">
<title>Node4</title>
<g id="a_Node000004"><a xlink:href="../../d6/d28/class_slic3r_1_1_geometry_1_1_transformation.html#a474c426eb751c651651d72582483850c" target="_top" xlink:title=" ">
<polygon fill="white" stroke="#666666" points="641.5,-97.5 480.75,-97.5 480.75,-67 641.5,-67 641.5,-97.5"/>
<text text-anchor="start" x="488.75" y="-84" font-family="Helvetica,sans-Serif" font-size="10.00">Slic3r::Geometry::Transformation</text>
<text text-anchor="middle" x="561.12" y="-72.75" font-family="Helvetica,sans-Serif" font-size="10.00">::get_mirror</text>
</a>
</g>
</g>
<!-- Node3&#45;&gt;Node4 -->
<g id="edge3_Node000003_Node000004" class="edge">
<title>Node3&#45;&gt;Node4</title>
<g id="a_edge3_Node000003_Node000004"><a xlink:title=" ">
<path fill="none" stroke="#63b8ff" d="M445.25,-82.25C453.05,-82.25 461.27,-82.25 469.58,-82.25"/>
<polygon fill="#63b8ff" stroke="#63b8ff" points="469.53,-85.75 479.53,-82.25 469.53,-78.75 469.53,-85.75"/>
</a>
</g>
</g>
<!-- Node5&#45;&gt;Node5 -->
<g id="edge7_Node000005_Node000005" class="edge">
<title>Node5&#45;&gt;Node5</title>
<g id="a_edge7_Node000005_Node000005"><a xlink:title=" ">
<path fill="none" stroke="#63b8ff" d="M192.36,-30.99C186.24,-40.06 196.24,-48.5 222.38,-48.5 237.08,-48.5 246.67,-45.83 251.17,-41.88"/>
<polygon fill="#63b8ff" stroke="#63b8ff" points="254.75,-42.31 252.39,-31.99 247.79,-41.53 254.75,-42.31"/>
</a>
</g>
</g>
</g>
</svg>
