<?xml version="1.0" encoding="UTF-8" standalone="no"?>
<!DOCTYPE svg PUBLIC "-//W3C//DTD SVG 1.1//EN"
 "http://www.w3.org/Graphics/SVG/1.1/DTD/svg11.dtd">
<!-- Generated by graphviz version 8.1.0 (20230707.0739)
 -->
<!-- Title: Slic3r::GUI::TransformationType::remove Pages: 1 -->
<svg width="1042pt" height="276pt"
 viewBox="0.00 0.00 1041.50 275.50" xmlns="http://www.w3.org/2000/svg" xmlns:xlink="http://www.w3.org/1999/xlink">
<g id="graph0" class="graph" transform="scale(1 1) rotate(0) translate(4 271.5)">
<title>Slic3r::GUI::TransformationType::remove</title>
<!-- Node1 -->
<g id="Node000001" class="node">
<title>Node1</title>
<g id="a_Node000001"><a xlink:title=" ">
<polygon fill="#999999" stroke="#666666" points="1033.5,-79.5 897.5,-79.5 897.5,-49 1033.5,-49 1033.5,-79.5"/>
<text text-anchor="start" x="905.5" y="-66" font-family="Helvetica,sans-Serif" font-size="10.00">Slic3r::GUI::Transformation</text>
<text text-anchor="middle" x="965.5" y="-54.75" font-family="Helvetica,sans-Serif" font-size="10.00">Type::remove</text>
</a>
</g>
</g>
<!-- Node2 -->
<g id="Node000002" class="node">
<title>Node2</title>
<g id="a_Node000002"><a xlink:href="../../d0/d74/class_slic3r_1_1_g_u_i_1_1_transformation_type.html#a2a7d4b4a7580c71c5af322511bde678e" target="_top" xlink:title=" ">
<polygon fill="white" stroke="#666666" points="861.5,-128.5 725.5,-128.5 725.5,-98 861.5,-98 861.5,-128.5"/>
<text text-anchor="start" x="733.5" y="-115" font-family="Helvetica,sans-Serif" font-size="10.00">Slic3r::GUI::Transformation</text>
<text text-anchor="middle" x="793.5" y="-103.75" font-family="Helvetica,sans-Serif" font-size="10.00">Type::set_absolute</text>
</a>
</g>
</g>
<!-- Node1&#45;&gt;Node2 -->
<g id="edge1_Node000001_Node000002" class="edge">
<title>Node1&#45;&gt;Node2</title>
<g id="a_edge1_Node000001_Node000002"><a xlink:title=" ">
<path fill="none" stroke="#63b8ff" d="M899.98,-82.85C883.21,-87.68 865.32,-92.84 849.12,-97.51"/>
<polygon fill="#63b8ff" stroke="#63b8ff" points="900.6,-86.02 909.24,-79.89 898.67,-79.3 900.6,-86.02"/>
</a>
</g>
</g>
<!-- Node19 -->
<g id="Node000019" class="node">
<title>Node19</title>
<g id="a_Node000019"><a xlink:href="../../d0/d74/class_slic3r_1_1_g_u_i_1_1_transformation_type.html#a83f0e487e51c0aea8a450ebac175b03c" target="_top" xlink:title=" ">
<polygon fill="white" stroke="#666666" points="861.5,-79.5 725.5,-79.5 725.5,-49 861.5,-49 861.5,-79.5"/>
<text text-anchor="start" x="733.5" y="-66" font-family="Helvetica,sans-Serif" font-size="10.00">Slic3r::GUI::Transformation</text>
<text text-anchor="middle" x="793.5" y="-54.75" font-family="Helvetica,sans-Serif" font-size="10.00">Type::set_joint</text>
</a>
</g>
</g>
<!-- Node1&#45;&gt;Node19 -->
<g id="edge13_Node000001_Node000019" class="edge">
<title>Node1&#45;&gt;Node19</title>
<g id="a_edge13_Node000001_Node000019"><a xlink:title=" ">
<path fill="none" stroke="#63b8ff" d="M886.52,-64.25C878.25,-64.25 869.89,-64.25 861.76,-64.25"/>
<polygon fill="#63b8ff" stroke="#63b8ff" points="886.31,-67.75 896.31,-64.25 886.31,-60.75 886.31,-67.75"/>
</a>
</g>
</g>
<!-- Node21 -->
<g id="Node000021" class="node">
<title>Node21</title>
<g id="a_Node000021"><a xlink:href="../../d0/d74/class_slic3r_1_1_g_u_i_1_1_transformation_type.html#ae9fbc432769a76a7f392062bd7f81f85" target="_top" xlink:title=" ">
<polygon fill="white" stroke="#666666" points="861.5,-30.5 725.5,-30.5 725.5,0 861.5,0 861.5,-30.5"/>
<text text-anchor="start" x="733.5" y="-17" font-family="Helvetica,sans-Serif" font-size="10.00">Slic3r::GUI::Transformation</text>
<text text-anchor="middle" x="793.5" y="-5.75" font-family="Helvetica,sans-Serif" font-size="10.00">Type::set_world</text>
</a>
</g>
</g>
<!-- Node1&#45;&gt;Node21 -->
<g id="edge15_Node000001_Node000021" class="edge">
<title>Node1&#45;&gt;Node21</title>
<g id="a_edge15_Node000001_Node000021"><a xlink:title=" ">
<path fill="none" stroke="#63b8ff" d="M899.98,-45.65C883.21,-40.82 865.32,-35.66 849.12,-30.99"/>
<polygon fill="#63b8ff" stroke="#63b8ff" points="898.67,-49.2 909.24,-48.61 900.6,-42.48 898.67,-49.2"/>
</a>
</g>
</g>
<!-- Node3 -->
<g id="Node000003" class="node">
<title>Node3</title>
<g id="a_Node000003"><a xlink:href="../../df/dba/class_slic3r_1_1_g_u_i_1_1_gizmo_object_manipulation.html#a6b186eadbba9468d52e9f08325c53135" target="_top" xlink:title=" ">
<polygon fill="white" stroke="#666666" points="686.88,-128.5 559.12,-128.5 559.12,-98 686.88,-98 686.88,-128.5"/>
<text text-anchor="start" x="567.12" y="-115" font-family="Helvetica,sans-Serif" font-size="10.00">Slic3r::GUI::GizmoObject</text>
<text text-anchor="middle" x="623" y="-103.75" font-family="Helvetica,sans-Serif" font-size="10.00">Manipulation::do_scale</text>
</a>
</g>
</g>
<!-- Node2&#45;&gt;Node3 -->
<g id="edge2_Node000002_Node000003" class="edge">
<title>Node2&#45;&gt;Node3</title>
<g id="a_edge2_Node000002_Node000003"><a xlink:title=" ">
<path fill="none" stroke="#63b8ff" d="M714.71,-113.25C705.53,-113.25 696.24,-113.25 687.29,-113.25"/>
<polygon fill="#63b8ff" stroke="#63b8ff" points="714.42,-116.75 724.42,-113.25 714.42,-109.75 714.42,-116.75"/>
</a>
</g>
</g>
<!-- Node4 -->
<g id="Node000004" class="node">
<title>Node4</title>
<g id="a_Node000004"><a xlink:href="../../df/dba/class_slic3r_1_1_g_u_i_1_1_gizmo_object_manipulation.html#a77530f1300df1770684c075d72749954" target="_top" xlink:title=" ">
<polygon fill="white" stroke="#666666" points="520.5,-104.5 355.25,-104.5 355.25,-74 520.5,-74 520.5,-104.5"/>
<text text-anchor="start" x="363.25" y="-91" font-family="Helvetica,sans-Serif" font-size="10.00">Slic3r::GUI::GizmoObject</text>
<text text-anchor="middle" x="437.88" y="-79.75" font-family="Helvetica,sans-Serif" font-size="10.00">Manipulation::change_scale_value</text>
</a>
</g>
</g>
<!-- Node3&#45;&gt;Node4 -->
<g id="edge3_Node000003_Node000004" class="edge">
<title>Node3&#45;&gt;Node4</title>
<g id="a_edge3_Node000003_Node000004"><a xlink:title=" ">
<path fill="none" stroke="#63b8ff" d="M547.98,-103.55C539.06,-102.38 529.91,-101.18 520.89,-100"/>
<polygon fill="#63b8ff" stroke="#63b8ff" points="547.35,-107.13 557.72,-104.96 548.26,-100.19 547.35,-107.13"/>
</a>
</g>
</g>
<!-- Node18 -->
<g id="Node000018" class="node">
<title>Node18</title>
<g id="a_Node000018"><a xlink:href="../../df/dba/class_slic3r_1_1_g_u_i_1_1_gizmo_object_manipulation.html#a9775237106b695162d34aa3ad9057416" target="_top" xlink:title=" ">
<polygon fill="white" stroke="#666666" points="517.88,-153.5 357.88,-153.5 357.88,-123 517.88,-123 517.88,-153.5"/>
<text text-anchor="start" x="365.88" y="-140" font-family="Helvetica,sans-Serif" font-size="10.00">Slic3r::GUI::GizmoObject</text>
<text text-anchor="middle" x="437.88" y="-128.75" font-family="Helvetica,sans-Serif" font-size="10.00">Manipulation::change_size_value</text>
</a>
</g>
</g>
<!-- Node3&#45;&gt;Node18 -->
<g id="edge11_Node000003_Node000018" class="edge">
<title>Node3&#45;&gt;Node18</title>
<g id="a_edge11_Node000003_Node000018"><a xlink:title=" ">
<path fill="none" stroke="#63b8ff" d="M547.87,-123.37C538.14,-124.7 528.13,-126.07 518.31,-127.41"/>
<polygon fill="#63b8ff" stroke="#63b8ff" points="548.29,-126.71 557.72,-121.89 547.34,-119.77 548.29,-126.71"/>
</a>
</g>
</g>
<!-- Node5 -->
<g id="Node000005" class="node">
<title>Node5</title>
<g id="a_Node000005"><a xlink:href="../../df/dba/class_slic3r_1_1_g_u_i_1_1_gizmo_object_manipulation.html#a3a979f11eb85b95a82ebe3fb9862d1ab" target="_top" xlink:title=" ">
<polygon fill="white" stroke="#666666" points="305.38,-153.5 177.62,-153.5 177.62,-123 305.38,-123 305.38,-153.5"/>
<text text-anchor="start" x="185.62" y="-140" font-family="Helvetica,sans-Serif" font-size="10.00">Slic3r::GUI::GizmoObject</text>
<text text-anchor="middle" x="241.5" y="-128.75" font-family="Helvetica,sans-Serif" font-size="10.00">Manipulation::on_change</text>
</a>
</g>
</g>
<!-- Node4&#45;&gt;Node5 -->
<g id="edge4_Node000004_Node000005" class="edge">
<title>Node4&#45;&gt;Node5</title>
<g id="a_edge4_Node000004_Node000005"><a xlink:title=" ">
<path fill="none" stroke="#63b8ff" d="M363.92,-107.64C344.46,-112.55 323.61,-117.8 304.78,-122.55"/>
<polygon fill="#63b8ff" stroke="#63b8ff" points="364.73,-110.79 373.57,-104.96 363.02,-104.01 364.73,-110.79"/>
</a>
</g>
</g>
<!-- Node17 -->
<g id="Node000017" class="node">
<title>Node17</title>
<g id="a_Node000017"><a xlink:href="../../df/dba/class_slic3r_1_1_g_u_i_1_1_gizmo_object_manipulation.html#ac044c30e7c51ad844cd75e2b07e564ca" target="_top" xlink:title=" ">
<polygon fill="white" stroke="#666666" points="319.25,-99.5 163.75,-99.5 163.75,-69 319.25,-69 319.25,-99.5"/>
<text text-anchor="start" x="171.75" y="-86" font-family="Helvetica,sans-Serif" font-size="10.00">Slic3r::GUI::GizmoObject</text>
<text text-anchor="middle" x="241.5" y="-74.75" font-family="Helvetica,sans-Serif" font-size="10.00">Manipulation::reset_scale_value</text>
</a>
</g>
</g>
<!-- Node4&#45;&gt;Node17 -->
<g id="edge9_Node000004_Node000017" class="edge">
<title>Node4&#45;&gt;Node17</title>
<g id="a_edge9_Node000004_Node000017"><a xlink:title=" ">
<path fill="none" stroke="#63b8ff" d="M344.22,-86.87C335.99,-86.65 327.71,-86.44 319.62,-86.23"/>
<polygon fill="#63b8ff" stroke="#63b8ff" points="343.92,-90.39 354.01,-87.14 344.1,-83.39 343.92,-90.39"/>
</a>
</g>
</g>
<!-- Node6 -->
<g id="Node000006" class="node">
<title>Node6</title>
<g id="a_Node000006"><a xlink:href="../../d7/d21/class_slic3r_1_1_g_u_i_1_1_plater.html#acf6b4efdeaf6f8aa68910c8305c62aba" target="_top" xlink:title=" ">
<polygon fill="#fff0f0" stroke="red" points="113.12,-267.5 14.62,-267.5 14.62,-237 113.12,-237 113.12,-267.5"/>
<text text-anchor="start" x="22.62" y="-254" font-family="Helvetica,sans-Serif" font-size="10.00">Slic3r::GUI::Plater</text>
<text text-anchor="middle" x="63.88" y="-242.75" font-family="Helvetica,sans-Serif" font-size="10.00">::_calib_pa_pattern</text>
</a>
</g>
</g>
<!-- Node5&#45;&gt;Node6 -->
<g id="edge5_Node000005_Node000006" class="edge">
<title>Node5&#45;&gt;Node6</title>
<g id="a_edge5_Node000005_Node000006"><a xlink:title=" ">
<path fill="none" stroke="#63b8ff" d="M216.47,-161.11C194.68,-180.91 160.96,-209.27 127.75,-228.25 122.47,-231.26 116.75,-234.04 110.97,-236.56"/>
<polygon fill="#63b8ff" stroke="#63b8ff" points="218.51,-164.07 223.49,-154.72 213.77,-158.92 218.51,-164.07"/>
</a>
</g>
</g>
<!-- Node11 -->
<g id="Node000011" class="node">
<title>Node11</title>
<g id="a_Node000011"><a xlink:href="../../df/dba/class_slic3r_1_1_g_u_i_1_1_gizmo_object_manipulation.html#ab5cc56d3cb19b046d13ee8590d337349" target="_top" xlink:title=" ">
<polygon fill="#fff0f0" stroke="red" points="127.75,-219.12 0,-219.12 0,-177.38 127.75,-177.38 127.75,-219.12"/>
<text text-anchor="start" x="8" y="-205.62" font-family="Helvetica,sans-Serif" font-size="10.00">Slic3r::GUI::GizmoObject</text>
<text text-anchor="start" x="8" y="-194.38" font-family="Helvetica,sans-Serif" font-size="10.00">Manipulation::do_render</text>
<text text-anchor="middle" x="63.88" y="-183.12" font-family="Helvetica,sans-Serif" font-size="10.00">_move_window</text>
</a>
</g>
</g>
<!-- Node5&#45;&gt;Node11 -->
<g id="edge6_Node000005_Node000011" class="edge">
<title>Node5&#45;&gt;Node11</title>
<g id="a_edge6_Node000005_Node000011"><a xlink:title=" ">
<path fill="none" stroke="#63b8ff" d="M184.62,-157.34C166.33,-163.59 145.91,-170.56 127.19,-176.96"/>
<polygon fill="#63b8ff" stroke="#63b8ff" points="185.48,-160.4 193.82,-153.86 183.22,-153.78 185.48,-160.4"/>
</a>
</g>
</g>
<!-- Node13 -->
<g id="Node000013" class="node">
<title>Node13</title>
<g id="a_Node000013"><a xlink:href="../../df/dba/class_slic3r_1_1_g_u_i_1_1_gizmo_object_manipulation.html#abd9daade9a9898fad974e03ba4bb0fb8" target="_top" xlink:title=" ">
<polygon fill="#fff0f0" stroke="red" points="127.75,-159.12 0,-159.12 0,-117.38 127.75,-117.38 127.75,-159.12"/>
<text text-anchor="start" x="8" y="-145.62" font-family="Helvetica,sans-Serif" font-size="10.00">Slic3r::GUI::GizmoObject</text>
<text text-anchor="start" x="8" y="-134.38" font-family="Helvetica,sans-Serif" font-size="10.00">Manipulation::do_render</text>
<text text-anchor="middle" x="63.88" y="-123.12" font-family="Helvetica,sans-Serif" font-size="10.00">_rotate_window</text>
</a>
</g>
</g>
<!-- Node5&#45;&gt;Node13 -->
<g id="edge7_Node000005_Node000013" class="edge">
<title>Node5&#45;&gt;Node13</title>
<g id="a_edge7_Node000005_Node000013"><a xlink:title=" ">
<path fill="none" stroke="#63b8ff" d="M166.91,-138.25C154.06,-138.25 140.78,-138.25 128.23,-138.25"/>
<polygon fill="#63b8ff" stroke="#63b8ff" points="166.59,-141.75 176.59,-138.25 166.59,-134.75 166.59,-141.75"/>
</a>
</g>
</g>
<!-- Node15 -->
<g id="Node000015" class="node">
<title>Node15</title>
<g id="a_Node000015"><a xlink:href="../../df/dba/class_slic3r_1_1_g_u_i_1_1_gizmo_object_manipulation.html#a17c13236444b946df5c4a9ec0562c9d9" target="_top" xlink:title=" ">
<polygon fill="#fff0f0" stroke="red" points="127.75,-99.12 0,-99.12 0,-57.38 127.75,-57.38 127.75,-99.12"/>
<text text-anchor="start" x="8" y="-85.62" font-family="Helvetica,sans-Serif" font-size="10.00">Slic3r::GUI::GizmoObject</text>
<text text-anchor="start" x="8" y="-74.38" font-family="Helvetica,sans-Serif" font-size="10.00">Manipulation::do_render</text>
<text text-anchor="middle" x="63.88" y="-63.12" font-family="Helvetica,sans-Serif" font-size="10.00">_scale_input_window</text>
</a>
</g>
</g>
<!-- Node5&#45;&gt;Node15 -->
<g id="edge8_Node000005_Node000015" class="edge">
<title>Node5&#45;&gt;Node15</title>
<g id="a_edge8_Node000005_Node000015"><a xlink:title=" ">
<path fill="none" stroke="#63b8ff" d="M184.62,-119.16C166.33,-112.91 145.91,-105.94 127.19,-99.54"/>
<polygon fill="#63b8ff" stroke="#63b8ff" points="183.22,-122.72 193.82,-122.64 185.48,-116.1 183.22,-122.72"/>
</a>
</g>
</g>
<!-- Node17&#45;&gt;Node15 -->
<g id="edge10_Node000017_Node000015" class="edge">
<title>Node17&#45;&gt;Node15</title>
<g id="a_edge10_Node000017_Node000015"><a xlink:title=" ">
<path fill="none" stroke="#63b8ff" d="M152.64,-81.25C144.38,-80.97 136.12,-80.68 128.16,-80.41"/>
<polygon fill="#63b8ff" stroke="#63b8ff" points="152.35,-84.77 162.47,-81.62 152.59,-77.78 152.35,-84.77"/>
</a>
</g>
</g>
<!-- Node18&#45;&gt;Node5 -->
<g id="edge12_Node000018_Node000005" class="edge">
<title>Node18&#45;&gt;Node5</title>
<g id="a_edge12_Node000018_Node000005"><a xlink:title=" ">
<path fill="none" stroke="#63b8ff" d="M346.56,-138.25C332.8,-138.25 318.85,-138.25 305.83,-138.25"/>
<polygon fill="#63b8ff" stroke="#63b8ff" points="346.53,-141.75 356.53,-138.25 346.53,-134.75 346.53,-141.75"/>
</a>
</g>
</g>
<!-- Node20 -->
<g id="Node000020" class="node">
<title>Node20</title>
<g id="a_Node000020"><a xlink:href="../../dd/d6a/class_slic3r_1_1_g_u_i_1_1_selection.html#a0f57fccc7de9a37b7a2cf8621c0f733a" target="_top" xlink:title=" ">
<polygon fill="white" stroke="#666666" points="689.5,-55.5 556.5,-55.5 556.5,-25 689.5,-25 689.5,-55.5"/>
<text text-anchor="start" x="564.5" y="-42" font-family="Helvetica,sans-Serif" font-size="10.00">Slic3r::GUI::Selection</text>
<text text-anchor="middle" x="623" y="-30.75" font-family="Helvetica,sans-Serif" font-size="10.00">::scale_to_fit_print_volume</text>
</a>
</g>
</g>
<!-- Node19&#45;&gt;Node20 -->
<g id="edge14_Node000019_Node000020" class="edge">
<title>Node19&#45;&gt;Node20</title>
<g id="a_edge14_Node000019_Node000020"><a xlink:title=" ">
<path fill="none" stroke="#63b8ff" d="M714.58,-53.15C706.28,-51.97 697.89,-50.77 689.75,-49.61"/>
<polygon fill="#63b8ff" stroke="#63b8ff" points="714.03,-56.75 724.42,-54.7 715.01,-49.82 714.03,-56.75"/>
</a>
</g>
</g>
<!-- Node21&#45;&gt;Node20 -->
<g id="edge16_Node000021_Node000020" class="edge">
<title>Node21&#45;&gt;Node20</title>
<g id="a_edge16_Node000021_Node000020"><a xlink:title=" ">
<path fill="none" stroke="#63b8ff" d="M714.58,-26.81C706.28,-28.04 697.89,-29.29 689.75,-30.49"/>
<polygon fill="#63b8ff" stroke="#63b8ff" points="715.04,-30.13 724.42,-25.2 714.01,-23.21 715.04,-30.13"/>
</a>
</g>
</g>
</g>
</svg>
