<?xml version="1.0" encoding="UTF-8" standalone="no"?>
<!DOCTYPE svg PUBLIC "-//W3C//DTD SVG 1.1//EN"
 "http://www.w3.org/Graphics/SVG/1.1/DTD/svg11.dtd">
<!-- Generated by graphviz version 8.1.0 (20230707.0739)
 -->
<!-- Title: Eigen::BiCGSTAB::_solve_with_guess_impl Pages: 1 -->
<svg width="475pt" height="113pt"
 viewBox="0.00 0.00 475.25 112.88" xmlns="http://www.w3.org/2000/svg" xmlns:xlink="http://www.w3.org/1999/xlink">

<svg id="main" version="1.1" xmlns="http://www.w3.org/2000/svg" xmlns:xlink="http://www.w3.org/1999/xlink" xml:space="preserve" onload="init(evt)">
<style type="text/css"><![CDATA[
.node, .edge {opacity: 0.7;}
.node.selected, .edge.selected {opacity: 1;}
.edge:hover path { stroke: red; }
.edge:hover polygon { stroke: red; fill: red; }
]]></style>
<script type="application/ecmascript" xlink:href="../../svg.min.js"/>
<svg id="graph" class="graph">
<g id="graph0" class="graph" transform="scale(1 1) rotate(0) translate(4 108.88)">
<title>Eigen::BiCGSTAB::_solve_with_guess_impl</title>
<!-- Node1 -->
<g id="Node000001" class="node">
<title>Node1</title>
<g id="a_Node000001"><a xlink:title=" ">
<polygon fill="#999999" stroke="#666666" points="130.75,-73.5 0,-73.5 0,-43 130.75,-43 130.75,-73.5"/>
<text text-anchor="start" x="8" y="-60" font-family="Helvetica,sans-Serif" font-size="10.00">Eigen::BiCGSTAB::_solve</text>
<text text-anchor="middle" x="65.38" y="-48.75" font-family="Helvetica,sans-Serif" font-size="10.00">_with_guess_impl</text>
</a>
</g>
</g>
<!-- Node2 -->
<g id="Node000002" class="node">
<title>Node2</title>
<g id="a_Node000002"><a xlink:href="../../d7/dc9/namespace_eigen_1_1internal.html#a3e9559d1e9c7b034925dd44b6f164f71" target="_top" xlink:title=" ">
<polygon fill="white" stroke="#666666" points="293.38,-104.88 172.38,-104.88 172.38,-85.62 293.38,-85.62 293.38,-104.88"/>
<text text-anchor="middle" x="232.88" y="-91.38" font-family="Helvetica,sans-Serif" font-size="10.00">Eigen::internal::bicgstab</text>
</a>
</g>
</g>
<!-- Node1&#45;&gt;Node2 -->
<g id="edge1_Node000001_Node000002" class="edge">
<title>Node1&#45;&gt;Node2</title>
<g id="a_edge1_Node000001_Node000002"><a xlink:title=" ">
<path fill="none" stroke="#63b8ff" d="M130.84,-72.66C145.88,-76.02 161.77,-79.58 176.39,-82.85"/>
<polygon fill="#63b8ff" stroke="#63b8ff" points="175.26,-86.4 185.78,-85.17 176.78,-79.57 175.26,-86.4"/>
</a>
</g>
</g>
<!-- Node4 -->
<g id="Node000004" class="node">
<title>Node4</title>
<g id="a_Node000004"><a xlink:href="../../d9/d68/class_eigen_1_1_bi_c_g_s_t_a_b.html#af24f53813d56a98491957dabc1d2f7eb" target="_top" xlink:title=" ">
<polygon fill="white" stroke="#666666" points="297.5,-67.88 168.25,-67.88 168.25,-48.62 297.5,-48.62 297.5,-67.88"/>
<text text-anchor="middle" x="232.88" y="-54.38" font-family="Helvetica,sans-Serif" font-size="10.00">Eigen::BiCGSTAB::matrix</text>
</a>
</g>
</g>
<!-- Node1&#45;&gt;Node4 -->
<g id="edge3_Node000001_Node000004" class="edge">
<title>Node1&#45;&gt;Node4</title>
<g id="a_edge3_Node000001_Node000004"><a xlink:title=" ">
<path fill="none" stroke="#63b8ff" d="M130.84,-58.25C139.39,-58.25 148.21,-58.25 156.92,-58.25"/>
<polygon fill="#63b8ff" stroke="#63b8ff" points="156.86,-61.75 166.86,-58.25 156.86,-54.75 156.86,-61.75"/>
</a>
</g>
</g>
<!-- Node5 -->
<g id="Node000005" class="node">
<title>Node5</title>
<g id="a_Node000005"><a xlink:href="../../d4/df4/class_eigen_1_1_iterative_solver_base.html#a168a74c8dceb6233b220031fdd756ba0" target="_top" xlink:title=" ">
<polygon fill="white" stroke="#666666" points="299,-30.5 166.75,-30.5 166.75,0 299,0 299,-30.5"/>
<text text-anchor="start" x="174.75" y="-17" font-family="Helvetica,sans-Serif" font-size="10.00">Eigen::IterativeSolverBase</text>
<text text-anchor="middle" x="232.88" y="-5.75" font-family="Helvetica,sans-Serif" font-size="10.00">::maxIterations</text>
</a>
</g>
</g>
<!-- Node1&#45;&gt;Node5 -->
<g id="edge4_Node000001_Node000005" class="edge">
<title>Node1&#45;&gt;Node5</title>
<g id="a_edge4_Node000001_Node000005"><a xlink:title=" ">
<path fill="none" stroke="#63b8ff" d="M126.59,-42.6C137.77,-39.7 149.55,-36.64 161.01,-33.66"/>
<polygon fill="#63b8ff" stroke="#63b8ff" points="161.63,-36.86 170.43,-30.96 159.87,-30.08 161.63,-36.86"/>
</a>
</g>
</g>
<!-- Node3 -->
<g id="Node000003" class="node">
<title>Node3</title>
<g id="a_Node000003"><a xlink:href="../../d4/df0/_array_cwise_unary_ops_8h.html#a656b9217a2fcb6de59dc8d1eb3079cc7" target="_top" xlink:title=" ">
<polygon fill="white" stroke="#666666" points="417.38,-104.88 384.88,-104.88 384.88,-85.62 417.38,-85.62 417.38,-104.88"/>
<text text-anchor="middle" x="401.12" y="-91.38" font-family="Helvetica,sans-Serif" font-size="10.00">sqrt</text>
</a>
</g>
</g>
<!-- Node2&#45;&gt;Node3 -->
<g id="edge2_Node000002_Node000003" class="edge">
<title>Node2&#45;&gt;Node3</title>
<g id="a_edge2_Node000002_Node000003"><a xlink:title=" ">
<path fill="none" stroke="#63b8ff" d="M293.43,-95.25C320.94,-95.25 352.21,-95.25 373.75,-95.25"/>
<polygon fill="#63b8ff" stroke="#63b8ff" points="373.63,-98.75 383.63,-95.25 373.63,-91.75 373.63,-98.75"/>
</a>
</g>
</g>
<!-- Node6 -->
<g id="Node000006" class="node">
<title>Node6</title>
<g id="a_Node000006"><a xlink:href="../../d4/df4/class_eigen_1_1_iterative_solver_base.html#af24f53813d56a98491957dabc1d2f7eb" target="_top" xlink:title=" ">
<polygon fill="white" stroke="#666666" points="467.25,-30.5 335,-30.5 335,0 467.25,0 467.25,-30.5"/>
<text text-anchor="start" x="343" y="-17" font-family="Helvetica,sans-Serif" font-size="10.00">Eigen::IterativeSolverBase</text>
<text text-anchor="middle" x="401.12" y="-5.75" font-family="Helvetica,sans-Serif" font-size="10.00">::matrix</text>
</a>
</g>
</g>
<!-- Node5&#45;&gt;Node6 -->
<g id="edge5_Node000005_Node000006" class="edge">
<title>Node5&#45;&gt;Node6</title>
<g id="a_edge5_Node000005_Node000006"><a xlink:title=" ">
<path fill="none" stroke="#63b8ff" d="M299.1,-15.25C307.2,-15.25 315.53,-15.25 323.78,-15.25"/>
<polygon fill="#63b8ff" stroke="#63b8ff" points="323.54,-18.75 333.54,-15.25 323.54,-11.75 323.54,-18.75"/>
</a>
</g>
</g>
</g>
</svg>
</svg>

<style type='text/css'>
<![CDATA[
[data-mouse-over-selected='false'] { opacity: 0.7; }
[data-mouse-over-selected='true']  { opacity: 1.0; }
]]>
</style>
<script type="application/ecmascript"><![CDATA[
document.addEventListener('DOMContentLoaded', (event) => {
  highlightEdges();
  highlightAdjacentNodes();
});
]]></script>
</svg>
