<?xml version="1.0" encoding="UTF-8" standalone="no"?>
<!DOCTYPE svg PUBLIC "-//W3C//DTD SVG 1.1//EN"
 "http://www.w3.org/Graphics/SVG/1.1/DTD/svg11.dtd">
<!-- Generated by graphviz version 8.1.0 (20230707.0739)
 -->
<!-- Title: Slic3r::Arachne::fixSelfIntersections Pages: 1 -->
<svg width="897pt" height="137pt"
 viewBox="0.00 0.00 896.75 136.50" xmlns="http://www.w3.org/2000/svg" xmlns:xlink="http://www.w3.org/1999/xlink">
<g id="graph0" class="graph" transform="scale(1 1) rotate(0) translate(4 132.5)">
<title>Slic3r::Arachne::fixSelfIntersections</title>
<!-- Node1 -->
<g id="Node000001" class="node">
<title>Node1</title>
<g id="a_Node000001"><a xlink:title=" ">
<polygon fill="#999999" stroke="#666666" points="888.75,-103.5 772.25,-103.5 772.25,-73 888.75,-73 888.75,-103.5"/>
<text text-anchor="start" x="780.25" y="-90" font-family="Helvetica,sans-Serif" font-size="10.00">Slic3r::Arachne::fixSelf</text>
<text text-anchor="middle" x="830.5" y="-78.75" font-family="Helvetica,sans-Serif" font-size="10.00">Intersections</text>
</a>
</g>
</g>
<!-- Node2 -->
<g id="Node000002" class="node">
<title>Node2</title>
<g id="a_Node000002"><a xlink:href="../../d2/d46/class_slic3r_1_1_arachne_1_1_wall_tool_paths.html#aeca7ae7fda285e3bc199977827c554d5" target="_top" xlink:title=" ">
<polygon fill="white" stroke="#666666" points="736.25,-103.5 610.75,-103.5 610.75,-73 736.25,-73 736.25,-103.5"/>
<text text-anchor="start" x="618.75" y="-90" font-family="Helvetica,sans-Serif" font-size="10.00">Slic3r::Arachne::WallTool</text>
<text text-anchor="middle" x="673.5" y="-78.75" font-family="Helvetica,sans-Serif" font-size="10.00">Paths::generate</text>
</a>
</g>
</g>
<!-- Node1&#45;&gt;Node2 -->
<g id="edge1_Node000001_Node000002" class="edge">
<title>Node1&#45;&gt;Node2</title>
<g id="a_edge1_Node000001_Node000002"><a xlink:title=" ">
<path fill="none" stroke="#63b8ff" d="M760.9,-88.25C752.84,-88.25 744.65,-88.25 736.68,-88.25"/>
<polygon fill="#63b8ff" stroke="#63b8ff" points="760.78,-91.75 770.78,-88.25 760.78,-84.75 760.78,-91.75"/>
</a>
</g>
</g>
<!-- Node3 -->
<g id="Node000003" class="node">
<title>Node3</title>
<g id="a_Node000003"><a xlink:href="../../d2/d46/class_slic3r_1_1_arachne_1_1_wall_tool_paths.html#a389d9ce3caf646057d74a4b88f9844cd" target="_top" xlink:title=" ">
<polygon fill="white" stroke="#666666" points="574.75,-128.5 449.25,-128.5 449.25,-98 574.75,-98 574.75,-128.5"/>
<text text-anchor="start" x="457.25" y="-115" font-family="Helvetica,sans-Serif" font-size="10.00">Slic3r::Arachne::WallTool</text>
<text text-anchor="middle" x="512" y="-103.75" font-family="Helvetica,sans-Serif" font-size="10.00">Paths::getInnerContour</text>
</a>
</g>
</g>
<!-- Node2&#45;&gt;Node3 -->
<g id="edge2_Node000002_Node000003" class="edge">
<title>Node2&#45;&gt;Node3</title>
<g id="a_edge2_Node000002_Node000003"><a xlink:title=" ">
<path fill="none" stroke="#63b8ff" d="M599.71,-99.66C591.53,-100.94 583.25,-102.24 575.22,-103.5"/>
<polygon fill="#63b8ff" stroke="#63b8ff" points="600.04,-102.99 609.38,-97.99 598.96,-96.08 600.04,-102.99"/>
</a>
</g>
</g>
<!-- Node7 -->
<g id="Node000007" class="node">
<title>Node7</title>
<g id="a_Node000007"><a xlink:href="../../d2/d46/class_slic3r_1_1_arachne_1_1_wall_tool_paths.html#a891f436bf40e8b8119ed2fa095cfaf5d" target="_top" xlink:title=" ">
<polygon fill="white" stroke="#666666" points="574.75,-79.5 449.25,-79.5 449.25,-49 574.75,-49 574.75,-79.5"/>
<text text-anchor="start" x="457.25" y="-66" font-family="Helvetica,sans-Serif" font-size="10.00">Slic3r::Arachne::WallTool</text>
<text text-anchor="middle" x="512" y="-54.75" font-family="Helvetica,sans-Serif" font-size="10.00">Paths::getToolPaths</text>
</a>
</g>
</g>
<!-- Node2&#45;&gt;Node7 -->
<g id="edge6_Node000002_Node000007" class="edge">
<title>Node2&#45;&gt;Node7</title>
<g id="a_edge6_Node000002_Node000007"><a xlink:title=" ">
<path fill="none" stroke="#63b8ff" d="M599.71,-77.3C591.53,-76.07 583.25,-74.82 575.22,-73.61"/>
<polygon fill="#63b8ff" stroke="#63b8ff" points="598.97,-80.88 609.38,-78.9 600.01,-73.95 598.97,-80.88"/>
</a>
</g>
</g>
<!-- Node4 -->
<g id="Node000004" class="node">
<title>Node4</title>
<g id="a_Node000004"><a xlink:href="../../d0/dbd/class_slic3r_1_1_perimeter_generator.html#a5170be19657a4fb17b43b8833ec25c15" target="_top" xlink:title=" ">
<polygon fill="white" stroke="#666666" points="409.5,-128.5 278,-128.5 278,-98 409.5,-98 409.5,-128.5"/>
<text text-anchor="start" x="286" y="-115" font-family="Helvetica,sans-Serif" font-size="10.00">Slic3r::PerimeterGenerator</text>
<text text-anchor="middle" x="343.75" y="-103.75" font-family="Helvetica,sans-Serif" font-size="10.00">::process_arachne</text>
</a>
</g>
</g>
<!-- Node3&#45;&gt;Node4 -->
<g id="edge3_Node000003_Node000004" class="edge">
<title>Node3&#45;&gt;Node4</title>
<g id="a_edge3_Node000003_Node000004"><a xlink:title=" ">
<path fill="none" stroke="#63b8ff" d="M438.13,-113.25C428.69,-113.25 419.07,-113.25 409.77,-113.25"/>
<polygon fill="#63b8ff" stroke="#63b8ff" points="438.09,-116.75 448.09,-113.25 438.09,-109.75 438.09,-116.75"/>
</a>
</g>
</g>
<!-- Node5 -->
<g id="Node000005" class="node">
<title>Node5</title>
<g id="a_Node000005"><a xlink:href="../../dd/d90/class_slic3r_1_1_layer_region.html#a9ecbd4a88f9efefbfbcc162577c8f288" target="_top" xlink:title=" ">
<polygon fill="white" stroke="#666666" points="238.25,-128.5 136.75,-128.5 136.75,-98 238.25,-98 238.25,-128.5"/>
<text text-anchor="start" x="144.75" y="-115" font-family="Helvetica,sans-Serif" font-size="10.00">Slic3r::LayerRegion</text>
<text text-anchor="middle" x="187.5" y="-103.75" font-family="Helvetica,sans-Serif" font-size="10.00">::make_perimeters</text>
</a>
</g>
</g>
<!-- Node4&#45;&gt;Node5 -->
<g id="edge4_Node000004_Node000005" class="edge">
<title>Node4&#45;&gt;Node5</title>
<g id="a_edge4_Node000004_Node000005"><a xlink:title=" ">
<path fill="none" stroke="#63b8ff" d="M266.9,-113.25C257.22,-113.25 247.52,-113.25 238.39,-113.25"/>
<polygon fill="#63b8ff" stroke="#63b8ff" points="266.78,-116.75 276.78,-113.25 266.78,-109.75 266.78,-116.75"/>
</a>
</g>
</g>
<!-- Node6 -->
<g id="Node000006" class="node">
<title>Node6</title>
<g id="a_Node000006"><a xlink:href="../../d1/d68/class_slic3r_1_1_layer.html#ade692e794d3a272a9b6985022eea64e9" target="_top" xlink:title=" ">
<polygon fill="white" stroke="#666666" points="100.75,-128.5 0,-128.5 0,-98 100.75,-98 100.75,-128.5"/>
<text text-anchor="start" x="8" y="-115" font-family="Helvetica,sans-Serif" font-size="10.00">Slic3r::Layer::make</text>
<text text-anchor="middle" x="50.38" y="-103.75" font-family="Helvetica,sans-Serif" font-size="10.00">_perimeters</text>
</a>
</g>
</g>
<!-- Node5&#45;&gt;Node6 -->
<g id="edge5_Node000005_Node000006" class="edge">
<title>Node5&#45;&gt;Node6</title>
<g id="a_edge5_Node000005_Node000006"><a xlink:title=" ">
<path fill="none" stroke="#63b8ff" d="M125.82,-113.25C117.55,-113.25 109.15,-113.25 101.1,-113.25"/>
<polygon fill="#63b8ff" stroke="#63b8ff" points="125.57,-116.75 135.57,-113.25 125.57,-109.75 125.57,-116.75"/>
</a>
</g>
</g>
<!-- Node7&#45;&gt;Node4 -->
<g id="edge9_Node000007_Node000004" class="edge">
<title>Node7&#45;&gt;Node4</title>
<g id="a_edge9_Node000007_Node000004"><a xlink:title=" ">
<path fill="none" stroke="#63b8ff" d="M447.44,-82.98C431.17,-87.78 413.85,-92.88 398.16,-97.51"/>
<polygon fill="#63b8ff" stroke="#63b8ff" points="448.34,-86.07 456.94,-79.89 446.36,-79.36 448.34,-86.07"/>
</a>
</g>
</g>
<!-- Node8 -->
<g id="Node000008" class="node">
<title>Node8</title>
<g id="a_Node000008"><a xlink:href="../../d7/d44/class_slic3r_1_1_fill_concentric.html#a2298411e5f4cc1027149b5d9e93bc596" target="_top" xlink:title=" ">
<polygon fill="white" stroke="#666666" points="397.12,-79.5 290.38,-79.5 290.38,-49 397.12,-49 397.12,-79.5"/>
<text text-anchor="start" x="298.38" y="-66" font-family="Helvetica,sans-Serif" font-size="10.00">Slic3r::FillConcentric</text>
<text text-anchor="middle" x="343.75" y="-54.75" font-family="Helvetica,sans-Serif" font-size="10.00">::_fill_surface_single</text>
</a>
</g>
</g>
<!-- Node7&#45;&gt;Node8 -->
<g id="edge7_Node000007_Node000008" class="edge">
<title>Node7&#45;&gt;Node8</title>
<g id="a_edge7_Node000007_Node000008"><a xlink:title=" ">
<path fill="none" stroke="#63b8ff" d="M438.21,-64.25C424.49,-64.25 410.39,-64.25 397.44,-64.25"/>
<polygon fill="#63b8ff" stroke="#63b8ff" points="438.09,-67.75 448.09,-64.25 438.09,-60.75 438.09,-67.75"/>
</a>
</g>
</g>
<!-- Node9 -->
<g id="Node000009" class="node">
<title>Node9</title>
<g id="a_Node000009"><a xlink:href="../../d3/d4c/class_slic3r_1_1_fill_concentric_internal.html#a7183a28e3f7be9040ce628217920eb7d" target="_top" xlink:title=" ">
<polygon fill="white" stroke="#666666" points="413.25,-30.5 274.25,-30.5 274.25,0 413.25,0 413.25,-30.5"/>
<text text-anchor="start" x="282.25" y="-17" font-family="Helvetica,sans-Serif" font-size="10.00">Slic3r::FillConcentricInternal</text>
<text text-anchor="middle" x="343.75" y="-5.75" font-family="Helvetica,sans-Serif" font-size="10.00">::fill_surface_extrusion</text>
</a>
</g>
</g>
<!-- Node7&#45;&gt;Node9 -->
<g id="edge8_Node000007_Node000009" class="edge">
<title>Node7&#45;&gt;Node9</title>
<g id="a_edge8_Node000007_Node000009"><a xlink:title=" ">
<path fill="none" stroke="#63b8ff" d="M447.44,-45.52C431.17,-40.72 413.85,-35.62 398.16,-30.99"/>
<polygon fill="#63b8ff" stroke="#63b8ff" points="446.36,-49.14 456.94,-48.61 448.34,-42.43 446.36,-49.14"/>
</a>
</g>
</g>
</g>
</svg>
