<?xml version="1.0" encoding="UTF-8" standalone="no"?>
<!DOCTYPE svg PUBLIC "-//W3C//DTD SVG 1.1//EN"
 "http://www.w3.org/Graphics/SVG/1.1/DTD/svg11.dtd">
<!-- Generated by graphviz version 8.1.0 (20230707.0739)
 -->
<!-- Title: Slic3r::sla::SupportPointGenerator::MyLayer Pages: 1 -->
<!--zoomable 324 -->

<svg id="main" version="1.1" xmlns="http://www.w3.org/2000/svg" xmlns:xlink="http://www.w3.org/1999/xlink" xml:space="preserve" onload="init(evt)">
<style type="text/css"><![CDATA[
.node, .edge {opacity: 0.7;}
.node.selected, .edge.selected {opacity: 1;}
.edge:hover path { stroke: red; }
.edge:hover polygon { stroke: red; fill: red; }
]]></style>

<defs>
  <circle id="rim" cx="0" cy="0" r="7"/>
  <circle id="rim2" cx="0" cy="0" r="3.5"/>
  <g id="zoomPlus">
    <use xlink:href="#rim" fill="#404040"><set attributeName="fill" to="#808080" begin="zoomplus.mouseover" end="zoomplus.mouseout"/></use>
    <path d="M-4,0h8M0,-4v8" fill="none" stroke="white" stroke-width="1.5" pointer-events="none"/>
  </g>
  <g id="zoomMin">
    <use xlink:href="#rim" fill="#404040"><set attributeName="fill" to="#808080" begin="zoomminus.mouseover" end="zoomminus.mouseout"/></use>
    <path d="M-4,0h8" fill="none" stroke="white" stroke-width="1.5" pointer-events="none"/>
  </g>
  <g id="arrowUp" transform="translate(30 24)">
    <use xlink:href="#rim"/>
    <path pointer-events="none" fill="none" stroke="white" stroke-width="1.5" d="M0,-3.0v7 M-2.5,-0.5L0,-3.0L2.5,-0.5"/>
  </g>
  <g id="arrowRight" transform="rotate(90) translate(36 -43)">
    <use xlink:href="#rim"/>
    <path pointer-events="none" fill="none" stroke="white" stroke-width="1.5" d="M0,-3.0v7 M-2.5,-0.5L0,-3.0L2.5,-0.5"/>
  </g>
  <g id="arrowDown" transform="rotate(180) translate(-30 -48)">
    <use xlink:href="#rim"/>
    <path pointer-events="none" fill="none" stroke="white" stroke-width="1.5" d="M0,-3.0v7 M-2.5,-0.5L0,-3.0L2.5,-0.5"/>
  </g>
  <g id="arrowLeft" transform="rotate(270) translate(-36 17)">
    <use xlink:href="#rim"/>
    <path pointer-events="none" fill="none" stroke="white" stroke-width="1.5" d="M0,-3.0v7 M-2.5,-0.5L0,-3.0L2.5,-0.5"/>
  </g>
  <g id="resetDef">
    <use xlink:href="#rim2" fill="#404040"><set attributeName="fill" to="#808080" begin="reset.mouseover" end="reset.mouseout"/></use>
  </g>
</defs>
<script type="application/ecmascript">
var viewWidth = 1629;
var viewHeight = 324;
var sectionId = 'dynsection-0';
</script>
<script type="application/ecmascript" xlink:href="../../svg.min.js"/>
<svg id="graph" class="graph">
<g id="viewport">
<title>Slic3r::sla::SupportPointGenerator::MyLayer</title>
<!-- Node1 -->
<g id="Node000001" class="node">
<title>Node1</title>
<g id="a_Node000001"><a xlink:title=" ">
<polygon fill="#999999" stroke="#666666" points="943.5,-217.88 821.75,-217.88 821.75,-187.38 943.5,-187.38 943.5,-217.88"/>
<text text-anchor="start" x="829.75" y="-204.38" font-family="Helvetica,sans-Serif" font-size="10.00">Slic3r::sla::SupportPoint</text>
<text text-anchor="middle" x="882.62" y="-193.12" font-family="Helvetica,sans-Serif" font-size="10.00">Generator::MyLayer</text>
</a>
</g>
</g>
<!-- Node3 -->
<g id="Node000003" class="node">
<title>Node3</title>
<g id="a_Node000003"><a xlink:href="../../d2/d17/struct_slic3r_1_1sla_1_1_support_point_generator_1_1_structure.html" target="_top" xlink:title=" ">
<polygon fill="white" stroke="#666666" points="1183.75,-143.88 1062,-143.88 1062,-113.38 1183.75,-113.38 1183.75,-143.88"/>
<text text-anchor="start" x="1070" y="-130.38" font-family="Helvetica,sans-Serif" font-size="10.00">Slic3r::sla::SupportPoint</text>
<text text-anchor="middle" x="1122.88" y="-119.12" font-family="Helvetica,sans-Serif" font-size="10.00">Generator::Structure</text>
</a>
</g>
</g>
<!-- Node1&#45;&gt;Node3 -->
<g id="edge3_Node000003_Node000001" class="edge">
<title>Node1&#45;&gt;Node3</title>
<g id="a_edge3_Node000003_Node000001"><a xlink:title=" ">
<path fill="none" stroke="#9a32cd" stroke-dasharray="5,2" d="M954.32,-185.1C989.1,-176.27 1027.12,-166.28 1044,-160.62 1058.14,-155.89 1073.37,-149.85 1086.59,-144.3"/>
<polygon fill="#9a32cd" stroke="#9a32cd" points="953.5,-181.95 944.66,-187.79 955.21,-188.73 953.5,-181.95"/>
</a>
</g>
<text text-anchor="middle" x="1004.62" y="-182.38" font-family="Helvetica,sans-Serif" font-size="10.00" fill="grey"> layer</text>
</g>
<!-- Node2 -->
<g id="Node000002" class="node">
<title>Node2</title>
<g id="a_Node000002"><a xlink:title=" ">
<polygon fill="white" stroke="#666666" points="1402.25,-232.5 1262.5,-232.5 1262.5,-190.75 1402.25,-190.75 1402.25,-232.5"/>
<text text-anchor="start" x="1270.5" y="-219" font-family="Helvetica,sans-Serif" font-size="10.00">std::vector&lt; Slic3r</text>
<text text-anchor="start" x="1270.5" y="-207.75" font-family="Helvetica,sans-Serif" font-size="10.00">::sla::SupportPointGenerator</text>
<text text-anchor="middle" x="1332.38" y="-196.5" font-family="Helvetica,sans-Serif" font-size="10.00">::Structure &gt;</text>
</a>
</g>
</g>
<!-- Node2&#45;&gt;Node1 -->
<g id="edge1_Node000001_Node000002" class="edge">
<title>Node2&#45;&gt;Node1</title>
<g id="a_edge1_Node000001_Node000002"><a xlink:title=" ">
<path fill="none" stroke="#9a32cd" stroke-dasharray="5,2" d="M1251.49,-210.02C1163.18,-208.24 1022.92,-205.42 943.55,-203.83"/>
<polygon fill="#9a32cd" stroke="#9a32cd" points="1251.2,-213.53 1261.26,-210.24 1251.34,-206.54 1251.2,-213.53"/>
</a>
</g>
<text text-anchor="middle" x="1122.88" y="-209.38" font-family="Helvetica,sans-Serif" font-size="10.00" fill="grey"> islands</text>
</g>
<!-- Node3&#45;&gt;Node2 -->
<g id="edge2_Node000002_Node000003" class="edge">
<title>Node3&#45;&gt;Node2</title>
<g id="a_edge2_Node000002_Node000003"><a xlink:title=" ">
<path fill="none" stroke="#9a32cd" stroke-dasharray="5,2" d="M1172.81,-148.2C1204.43,-160.85 1245.58,-177.31 1278.03,-190.29"/>
<polygon fill="#9a32cd" stroke="#9a32cd" points="1174.49,-144.7 1163.9,-144.24 1171.89,-151.2 1174.49,-144.7"/>
</a>
</g>
<text text-anchor="middle" x="1223.12" y="-176.38" font-family="Helvetica,sans-Serif" font-size="10.00" fill="grey"> elements</text>
</g>
<!-- Node28 -->
<g id="Node000028" class="node">
<title>Node28</title>
<g id="a_Node000028"><a xlink:href="../../de/dd2/struct_slic3r_1_1sla_1_1_support_point_generator_1_1_structure_1_1_link.html" target="_top" xlink:title=" ">
<polygon fill="white" stroke="#666666" points="1396.62,-172.88 1268.12,-172.88 1268.12,-142.38 1396.62,-142.38 1396.62,-172.88"/>
<text text-anchor="start" x="1276.12" y="-159.38" font-family="Helvetica,sans-Serif" font-size="10.00">Slic3r::sla::SupportPoint</text>
<text text-anchor="middle" x="1332.38" y="-148.12" font-family="Helvetica,sans-Serif" font-size="10.00">Generator::Structure::Link</text>
</a>
</g>
</g>
<!-- Node3&#45;&gt;Node28 -->
<g id="edge17_Node000028_Node000003" class="edge">
<title>Node3&#45;&gt;Node28</title>
<g id="a_edge17_Node000028_Node000003"><a xlink:title=" ">
<path fill="none" stroke="#9a32cd" stroke-dasharray="5,2" d="M1194.83,-138.54C1218.46,-141.84 1244.63,-145.5 1267.67,-148.72"/>
<polygon fill="#9a32cd" stroke="#9a32cd" points="1195.56,-134.97 1185.17,-137.05 1194.59,-141.9 1195.56,-134.97"/>
</a>
</g>
<text text-anchor="middle" x="1223.12" y="-146.38" font-family="Helvetica,sans-Serif" font-size="10.00" fill="grey"> island</text>
</g>
<!-- Node4 -->
<g id="Node000004" class="node">
<title>Node4</title>
<g id="a_Node000004"><a xlink:href="../../db/dc4/class_slic3r_1_1_ex_polygon.html" target="_top" xlink:title=" ">
<polygon fill="white" stroke="#666666" points="647.75,-59.25 553.75,-59.25 553.75,-40 647.75,-40 647.75,-59.25"/>
<text text-anchor="middle" x="600.75" y="-45.75" font-family="Helvetica,sans-Serif" font-size="10.00">Slic3r::ExPolygon</text>
</a>
</g>
</g>
<!-- Node4&#45;&gt;Node3 -->
<g id="edge4_Node000003_Node000004" class="edge">
<title>Node4&#45;&gt;Node3</title>
<g id="a_edge4_Node000003_Node000004"><a xlink:title=" ">
<path fill="none" stroke="#9a32cd" stroke-dasharray="5,2" d="M658.71,-60.66C702.24,-68.91 763.79,-80.17 818,-88.62 902.25,-101.76 1000.1,-114.12 1061.5,-121.54"/>
<polygon fill="#9a32cd" stroke="#9a32cd" points="659.52,-57.06 649.04,-58.63 658.21,-63.94 659.52,-57.06"/>
</a>
</g>
<text text-anchor="middle" x="882.62" y="-107.38" font-family="Helvetica,sans-Serif" font-size="10.00" fill="grey"> polygon</text>
</g>
<!-- Node29 -->
<g id="Node000029" class="node">
<title>Node29</title>
<g id="a_Node000029"><a xlink:title=" ">
<polygon fill="white" stroke="#666666" points="946.5,-19.25 818.75,-19.25 818.75,0 946.5,0 946.5,-19.25"/>
<text text-anchor="middle" x="882.62" y="-5.75" font-family="Helvetica,sans-Serif" font-size="10.00">std::vector&lt; ExPolygon &gt;</text>
</a>
</g>
</g>
<!-- Node4&#45;&gt;Node29 -->
<g id="edge20_Node000029_Node000004" class="edge">
<title>Node4&#45;&gt;Node29</title>
<g id="a_edge20_Node000029_Node000004"><a xlink:title=" ">
<path fill="none" stroke="#9a32cd" stroke-dasharray="5,2" d="M658.72,-41.48C705.05,-34.86 770.36,-25.53 818.32,-18.67"/>
<polygon fill="#9a32cd" stroke="#9a32cd" points="658.37,-38.14 648.97,-43.02 659.36,-45.07 658.37,-38.14"/>
</a>
</g>
<text text-anchor="middle" x="741.12" y="-39.38" font-family="Helvetica,sans-Serif" font-size="10.00" fill="grey"> elements</text>
</g>
<!-- Node5 -->
<g id="Node000005" class="node">
<title>Node5</title>
<g id="a_Node000005"><a xlink:href="../../d8/d90/class_slic3r_1_1_polygon.html" target="_top" xlink:title=" ">
<polygon fill="white" stroke="#666666" points="211.5,-57.25 129.5,-57.25 129.5,-38 211.5,-38 211.5,-57.25"/>
<text text-anchor="middle" x="170.5" y="-43.75" font-family="Helvetica,sans-Serif" font-size="10.00">Slic3r::Polygon</text>
</a>
</g>
</g>
<!-- Node5&#45;&gt;Node4 -->
<g id="edge5_Node000004_Node000005" class="edge">
<title>Node5&#45;&gt;Node4</title>
<g id="a_edge5_Node000004_Node000005"><a xlink:title=" ">
<path fill="none" stroke="#9a32cd" stroke-dasharray="5,2" d="M222.54,-43.76C247.66,-42.04 278.4,-40.22 306,-39.38 362.42,-37.65 376.58,-37.64 433,-39.38 473.73,-40.63 519.98,-43.59 553.42,-46.01"/>
<polygon fill="#9a32cd" stroke="#9a32cd" points="222.52,-40.32 212.79,-44.51 223.01,-47.3 222.52,-40.32"/>
</a>
</g>
<text text-anchor="middle" x="369.5" y="-40.38" font-family="Helvetica,sans-Serif" font-size="10.00" fill="grey"> contour</text>
</g>
<!-- Node23 -->
<g id="Node000023" class="node">
<title>Node23</title>
<g id="a_Node000023"><a xlink:title=" ">
<polygon fill="white" stroke="#666666" points="427.38,-79.25 311.62,-79.25 311.62,-60 427.38,-60 427.38,-79.25"/>
<text text-anchor="middle" x="369.5" y="-65.75" font-family="Helvetica,sans-Serif" font-size="10.00">std::vector&lt; Polygon &gt;</text>
</a>
</g>
</g>
<!-- Node5&#45;&gt;Node23 -->
<g id="edge8_Node000023_Node000005" class="edge">
<title>Node5&#45;&gt;Node23</title>
<g id="a_edge8_Node000023_Node000005"><a xlink:title=" ">
<path fill="none" stroke="#9a32cd" stroke-dasharray="5,2" d="M222.69,-53.34C249.88,-56.38 283.38,-60.12 311.41,-63.25"/>
<polygon fill="#9a32cd" stroke="#9a32cd" points="223.17,-49.76 212.84,-52.13 222.39,-56.72 223.17,-49.76"/>
</a>
</g>
<text text-anchor="middle" x="259.88" y="-61.38" font-family="Helvetica,sans-Serif" font-size="10.00" fill="grey"> elements</text>
</g>
<!-- Node6 -->
<g id="Node000006" class="node">
<title>Node6</title>
<g id="a_Node000006"><a xlink:href="../../d7/dd1/class_slic3r_1_1_multi_point.html" target="_top" xlink:title=" ">
<polygon fill="#fff0f0" stroke="red" points="90.25,-57.25 0,-57.25 0,-38 90.25,-38 90.25,-57.25"/>
<text text-anchor="middle" x="45.12" y="-43.75" font-family="Helvetica,sans-Serif" font-size="10.00">Slic3r::MultiPoint</text>
</a>
</g>
</g>
<!-- Node6&#45;&gt;Node5 -->
<g id="edge6_Node000005_Node000006" class="edge">
<title>Node6&#45;&gt;Node5</title>
<g id="a_edge6_Node000005_Node000006"><a xlink:title=" ">
<path fill="none" stroke="#63b8ff" d="M101.46,-47.62C110.77,-47.62 120.28,-47.62 129.12,-47.62"/>
<polygon fill="#63b8ff" stroke="#63b8ff" points="101.67,-44.13 91.67,-47.62 101.67,-51.13 101.67,-44.13"/>
</a>
</g>
</g>
<!-- Node23&#45;&gt;Node4 -->
<g id="edge7_Node000004_Node000023" class="edge">
<title>Node23&#45;&gt;Node4</title>
<g id="a_edge7_Node000004_Node000023"><a xlink:title=" ">
<path fill="none" stroke="#9a32cd" stroke-dasharray="5,2" d="M438.5,-63.69C475.61,-60.45 520.58,-56.53 553.6,-53.65"/>
<polygon fill="#9a32cd" stroke="#9a32cd" points="438.42,-60.27 428.76,-64.63 439.02,-67.25 438.42,-60.27"/>
</a>
</g>
<text text-anchor="middle" x="485.12" y="-63.38" font-family="Helvetica,sans-Serif" font-size="10.00" fill="grey"> holes</text>
</g>
<!-- Node22 -->
<g id="Node000022" class="node">
<title>Node22</title>
<g id="a_Node000022"><a xlink:title=" ">
<polygon fill="#fff0f0" stroke="red" points="213.75,-195.25 127.25,-195.25 127.25,-176 213.75,-176 213.75,-195.25"/>
<text text-anchor="middle" x="170.5" y="-181.75" font-family="Helvetica,sans-Serif" font-size="10.00">std::vector&lt; T &gt;</text>
</a>
</g>
</g>
<!-- Node22&#45;&gt;Node2 -->
<g id="edge22_Node000002_Node000022" class="edge">
<title>Node22&#45;&gt;Node2</title>
<g id="a_edge22_Node000002_Node000022"><a xlink:title=" ">
<path fill="none" stroke="orange" stroke-dasharray="5,2" d="M199.9,-200.59C237.42,-218.94 306.07,-247.62 368.5,-247.62 368.5,-247.62 368.5,-247.62 1123.88,-247.62 1170.49,-247.62 1222.14,-238.7 1262.25,-229.73"/>
<polygon fill="orange" stroke="orange" points="201.68,-197.07 191.18,-195.72 198.55,-203.33 201.68,-197.07"/>
</a>
</g>
<text text-anchor="start" x="682.25" y="-260.62" font-family="Helvetica,sans-Serif" font-size="10.00" fill="grey"> &lt; Slic3r::sla::SupportPoint</text>
<text text-anchor="middle" x="741.12" y="-249.38" font-family="Helvetica,sans-Serif" font-size="10.00" fill="grey">Generator::Structure &gt;</text>
</g>
<!-- Node22&#45;&gt;Node23 -->
<g id="edge9_Node000023_Node000022" class="edge">
<title>Node22&#45;&gt;Node23</title>
<g id="a_edge9_Node000023_Node000022"><a xlink:title=" ">
<path fill="none" stroke="orange" stroke-dasharray="5,2" d="M179.86,-165.65C189.39,-145.44 206.92,-114.89 231.75,-98.38 255.08,-82.86 285.2,-75.49 311.23,-72.08"/>
<polygon fill="orange" stroke="orange" points="176.27,-164.1 175.4,-174.66 182.67,-166.95 176.27,-164.1"/>
</a>
</g>
<text text-anchor="middle" x="259.88" y="-99.38" font-family="Helvetica,sans-Serif" font-size="10.00" fill="grey"> &lt; Polygon &gt;</text>
</g>
<!-- Node27 -->
<g id="Node000027" class="node">
<title>Node27</title>
<g id="a_Node000027"><a xlink:title=" ">
<polygon fill="white" stroke="#666666" points="1620.75,-178.5 1481,-178.5 1481,-136.75 1620.75,-136.75 1620.75,-178.5"/>
<text text-anchor="start" x="1489" y="-165" font-family="Helvetica,sans-Serif" font-size="10.00">std::vector&lt; Slic3r</text>
<text text-anchor="start" x="1489" y="-153.75" font-family="Helvetica,sans-Serif" font-size="10.00">::sla::SupportPointGenerator</text>
<text text-anchor="middle" x="1550.88" y="-142.5" font-family="Helvetica,sans-Serif" font-size="10.00">::Structure::Link &gt;</text>
</a>
</g>
</g>
<!-- Node22&#45;&gt;Node27 -->
<g id="edge18_Node000027_Node000022" class="edge">
<title>Node22&#45;&gt;Node27</title>
<g id="a_edge18_Node000027_Node000022"><a xlink:title=" ">
<path fill="none" stroke="orange" stroke-dasharray="5,2" d="M188.77,-203.01C221.06,-233.55 294.03,-293.62 368.5,-293.62 368.5,-293.62 368.5,-293.62 1333.38,-293.62 1418.6,-293.62 1497.77,-217.12 1532.03,-178.88"/>
<polygon fill="orange" stroke="orange" points="191.74,-201.04 182.12,-196.59 186.87,-206.06 191.74,-201.04"/>
</a>
</g>
<text text-anchor="start" x="821.88" y="-306.62" font-family="Helvetica,sans-Serif" font-size="10.00" fill="grey"> &lt; Slic3r::sla::SupportPoint</text>
<text text-anchor="middle" x="882.62" y="-295.38" font-family="Helvetica,sans-Serif" font-size="10.00" fill="grey">Generator::Structure::Link &gt;</text>
</g>
<!-- Node22&#45;&gt;Node29 -->
<g id="edge21_Node000029_Node000022" class="edge">
<title>Node22&#45;&gt;Node29</title>
<g id="a_edge21_Node000029_Node000022"><a xlink:title=" ">
<path fill="none" stroke="orange" stroke-dasharray="5,2" d="M209.36,-172.07C236.11,-162.86 272.93,-150.89 306,-142.62 522.51,-88.53 610.18,-169.99 800,-52.62 811.34,-45.61 807.06,-36.25 818,-28.62 823.2,-25 829.1,-22.05 835.17,-19.67"/>
<polygon fill="orange" stroke="orange" points="208.57,-168.99 200.28,-175.58 210.87,-175.6 208.57,-168.99"/>
</a>
</g>
<text text-anchor="middle" x="485.12" y="-123.38" font-family="Helvetica,sans-Serif" font-size="10.00" fill="grey"> &lt; ExPolygon &gt;</text>
</g>
<!-- Node24 -->
<g id="Node000024" class="node">
<title>Node24</title>
<g id="a_Node000024"><a xlink:href="../../d4/d2d/class_slic3r_1_1_bounding_box.html" target="_top" xlink:title=" ">
<polygon fill="white" stroke="#666666" points="934.88,-166.25 830.38,-166.25 830.38,-147 934.88,-147 934.88,-166.25"/>
<text text-anchor="middle" x="882.62" y="-152.75" font-family="Helvetica,sans-Serif" font-size="10.00">Slic3r::BoundingBox</text>
</a>
</g>
</g>
<!-- Node24&#45;&gt;Node3 -->
<g id="edge10_Node000003_Node000024" class="edge">
<title>Node24&#45;&gt;Node3</title>
<g id="a_edge10_Node000003_Node000024"><a xlink:title=" ">
<path fill="none" stroke="#9a32cd" stroke-dasharray="5,2" d="M946.12,-149.28C981.88,-145.08 1026.53,-139.83 1061.87,-135.68"/>
<polygon fill="#9a32cd" stroke="#9a32cd" points="945.84,-145.91 936.32,-150.55 946.66,-152.86 945.84,-145.91"/>
</a>
</g>
<text text-anchor="middle" x="1004.62" y="-148.38" font-family="Helvetica,sans-Serif" font-size="10.00" fill="grey"> bbox</text>
</g>
<!-- Node25 -->
<g id="Node000025" class="node">
<title>Node25</title>
<g id="a_Node000025"><a xlink:href="../../dc/d28/class_slic3r_1_1_bounding_box_base.html" target="_top" xlink:title=" ">
<polygon fill="white" stroke="#666666" points="664.25,-181.88 537.25,-181.88 537.25,-151.38 664.25,-151.38 664.25,-181.88"/>
<text text-anchor="start" x="545.25" y="-168.38" font-family="Helvetica,sans-Serif" font-size="10.00">Slic3r::BoundingBoxBase</text>
<text text-anchor="middle" x="600.75" y="-157.12" font-family="Helvetica,sans-Serif" font-size="10.00">&lt; Point &gt;</text>
</a>
</g>
</g>
<!-- Node25&#45;&gt;Node24 -->
<g id="edge11_Node000024_Node000025" class="edge">
<title>Node25&#45;&gt;Node24</title>
<g id="a_edge11_Node000024_Node000025"><a xlink:title=" ">
<path fill="none" stroke="#63b8ff" d="M675.37,-163.99C724.12,-162.25 786.84,-160.01 830.25,-158.46"/>
<polygon fill="#63b8ff" stroke="#63b8ff" points="675.43,-160.53 665.56,-164.38 675.68,-167.52 675.43,-160.53"/>
</a>
</g>
</g>
<!-- Node8 -->
<g id="Node000008" class="node">
<title>Node8</title>
<g id="a_Node000008"><a xlink:href="../../d6/dec/class_slic3r_1_1_point.html" target="_top" xlink:title=" ">
<polygon fill="#fff0f0" stroke="red" points="404.12,-171.25 334.88,-171.25 334.88,-152 404.12,-152 404.12,-171.25"/>
<text text-anchor="middle" x="369.5" y="-157.75" font-family="Helvetica,sans-Serif" font-size="10.00">Slic3r::Point</text>
</a>
</g>
</g>
<!-- Node8&#45;&gt;Node25 -->
<g id="edge12_Node000025_Node000008" class="edge">
<title>Node8&#45;&gt;Node25</title>
<g id="a_edge12_Node000025_Node000008"><a xlink:title=" ">
<path fill="none" stroke="#9a32cd" stroke-dasharray="5,2" d="M415.28,-160.6C444.81,-160.14 484.35,-159.93 519.25,-161.12 524.99,-161.32 530.96,-161.6 536.93,-161.92"/>
<polygon fill="#9a32cd" stroke="#9a32cd" points="415.42,-157.12 405.48,-160.79 415.54,-164.11 415.42,-157.12"/>
</a>
</g>
<text text-anchor="middle" x="485.12" y="-173.62" font-family="Helvetica,sans-Serif" font-size="10.00" fill="grey"> max</text>
<text text-anchor="middle" x="485.12" y="-162.38" font-family="Helvetica,sans-Serif" font-size="10.00" fill="grey">min</text>
</g>
<!-- Node26 -->
<g id="Node000026" class="node">
<title>Node26</title>
<g id="a_Node000026"><a xlink:href="../../dc/d28/class_slic3r_1_1_bounding_box_base.html" target="_top" xlink:title=" ">
<polygon fill="white" stroke="#666666" points="433,-219.88 306,-219.88 306,-189.38 433,-189.38 433,-219.88"/>
<text text-anchor="start" x="314" y="-206.38" font-family="Helvetica,sans-Serif" font-size="10.00">Slic3r::BoundingBoxBase</text>
<text text-anchor="middle" x="369.5" y="-195.12" font-family="Helvetica,sans-Serif" font-size="10.00">&lt; PointClass &gt;</text>
</a>
</g>
</g>
<!-- Node26&#45;&gt;Node25 -->
<g id="edge13_Node000025_Node000026" class="edge">
<title>Node26&#45;&gt;Node25</title>
<g id="a_edge13_Node000025_Node000026"><a xlink:title=" ">
<path fill="none" stroke="orange" stroke-dasharray="5,2" d="M444.08,-195.24C468.1,-191.91 494.86,-187.92 519.25,-183.62 525.02,-182.61 531,-181.48 536.99,-180.31"/>
<polygon fill="orange" stroke="orange" points="443.69,-191.9 434.25,-196.73 444.64,-198.84 443.69,-191.9"/>
</a>
</g>
<text text-anchor="middle" x="485.12" y="-195.38" font-family="Helvetica,sans-Serif" font-size="10.00" fill="grey"> &lt; Point &gt;</text>
</g>
<!-- Node18 -->
<g id="Node000018" class="node">
<title>Node18</title>
<g id="a_Node000018"><a xlink:href="../../d2/d2d/class_eigen_1_1_matrix.html" target="_top" xlink:title="The matrix class, also used for vectors and row&#45;vectors.">
<polygon fill="#fff0f0" stroke="red" points="947.25,-79.5 818,-79.5 818,-37.75 947.25,-37.75 947.25,-79.5"/>
<text text-anchor="start" x="826" y="-66" font-family="Helvetica,sans-Serif" font-size="10.00">Eigen::Matrix&lt; _Scalar,</text>
<text text-anchor="start" x="826" y="-54.75" font-family="Helvetica,sans-Serif" font-size="10.00"> _Rows, _Cols, _Options,</text>
<text text-anchor="middle" x="882.62" y="-43.5" font-family="Helvetica,sans-Serif" font-size="10.00"> _MaxRows, _MaxCols &gt;</text>
</a>
</g>
</g>
<!-- Node18&#45;&gt;Node3 -->
<g id="edge14_Node000003_Node000018" class="edge">
<title>Node18&#45;&gt;Node3</title>
<g id="a_edge14_Node000003_Node000018"><a xlink:title=" ">
<path fill="none" stroke="#9a32cd" stroke-dasharray="5,2" d="M958.16,-69.21C985.56,-74.18 1016.58,-81.11 1044,-90.38 1061.41,-96.26 1079.91,-105.22 1094.51,-112.99"/>
<polygon fill="#9a32cd" stroke="#9a32cd" points="958.91,-65.61 948.46,-67.33 957.7,-72.51 958.91,-65.61"/>
</a>
</g>
<text text-anchor="middle" x="1004.62" y="-91.38" font-family="Helvetica,sans-Serif" font-size="10.00" fill="grey"> centroid</text>
</g>
<!-- Node27&#45;&gt;Node3 -->
<g id="edge15_Node000003_Node000027" class="edge">
<title>Node27&#45;&gt;Node3</title>
<g id="a_edge15_Node000003_Node000027"><a xlink:title=" ">
<path fill="none" stroke="#9a32cd" stroke-dasharray="5,2" d="M1485.83,-132.77C1460.25,-124.08 1430.26,-115.43 1402.25,-111.12 1327.71,-99.66 1240.83,-108.62 1184.21,-117.4"/>
<polygon fill="#9a32cd" stroke="#9a32cd" points="1484.54,-136.37 1495.14,-136.35 1486.84,-129.76 1484.54,-136.37"/>
</a>
</g>
<text text-anchor="middle" x="1332.38" y="-123.62" font-family="Helvetica,sans-Serif" font-size="10.00" fill="grey"> islands_above</text>
<text text-anchor="middle" x="1332.38" y="-112.38" font-family="Helvetica,sans-Serif" font-size="10.00" fill="grey">islands_below</text>
</g>
<!-- Node28&#45;&gt;Node27 -->
<g id="edge16_Node000027_Node000028" class="edge">
<title>Node28&#45;&gt;Node27</title>
<g id="a_edge16_Node000027_Node000028"><a xlink:title=" ">
<path fill="none" stroke="#9a32cd" stroke-dasharray="5,2" d="M1407.57,-157.62C1431.26,-157.62 1457.38,-157.62 1480.71,-157.62"/>
<polygon fill="#9a32cd" stroke="#9a32cd" points="1407.87,-154.13 1397.87,-157.62 1407.87,-161.13 1407.87,-154.13"/>
</a>
</g>
<text text-anchor="middle" x="1441.62" y="-159.38" font-family="Helvetica,sans-Serif" font-size="10.00" fill="grey"> elements</text>
</g>
<!-- Node29&#45;&gt;Node3 -->
<g id="edge19_Node000003_Node000029" class="edge">
<title>Node29&#45;&gt;Node3</title>
<g id="a_edge19_Node000003_Node000029"><a xlink:title=" ">
<path fill="none" stroke="#9a32cd" stroke-dasharray="5,2" d="M957.6,-9.07C986.13,-11.65 1018.07,-18.17 1044,-32.88 1077.36,-51.8 1102.14,-91.07 1114.03,-112.98"/>
<polygon fill="#9a32cd" stroke="#9a32cd" points="958.08,-5.52 947.85,-8.26 957.56,-12.5 958.08,-5.52"/>
</a>
</g>
<text text-anchor="middle" x="1004.62" y="-56.88" font-family="Helvetica,sans-Serif" font-size="10.00" fill="grey"> dangling_areas</text>
<text text-anchor="middle" x="1004.62" y="-45.62" font-family="Helvetica,sans-Serif" font-size="10.00" fill="grey">overhangs</text>
<text text-anchor="middle" x="1004.62" y="-34.38" font-family="Helvetica,sans-Serif" font-size="10.00" fill="grey">overhangs_slopes</text>
</g>
</g>
</svg>

<g id="navigator" transform="translate(0 0)" fill="#404254">
  <rect fill="#f2f5e9" fill-opacity="0.5" stroke="#606060" stroke-width=".5" x="0" y="0" width="60" height="60"/>
  <use id="zoomplus" xlink:href="#zoomPlus" x="17" y="9" onmousedown="handleZoom(evt,'in')"/>
  <use id="zoomminus" xlink:href="#zoomMin" x="42" y="9" onmousedown="handleZoom(evt,'out')"/>
  <use id="reset" xlink:href="#resetDef" x="30" y="36" onmousedown="handleReset()"/>
   <use id="arrowup" xlink:href="#arrowUp" x="0" y="0" onmousedown="handlePan(0,-1)"/>
  <use id="arrowright" xlink:href="#arrowRight" x="0" y="0" onmousedown="handlePan(1,0)"/>
  <use id="arrowdown" xlink:href="#arrowDown" x="0" y="0" onmousedown="handlePan(0,1)"/>
  <use id="arrowleft" xlink:href="#arrowLeft" x="0" y="0" onmousedown="handlePan(-1,0)"/>
</g>
<svg viewBox="0 0 15 15" width="100%" height="30px" preserveAspectRatio="xMaxYMin meet">
 <g id="arrow_out" transform="scale(0.3 0.3)">
  <a xlink:href="struct_slic3r_1_1sla_1_1_support_point_generator_1_1_my_layer__coll__graph_org.svg" target="_base">
   <rect id="button" ry="5" rx="5" y="6" x="6" height="38" width="38"
        fill="#f2f5e9" fill-opacity="0.5" stroke="#606060" stroke-width="1.0"/>
   <path id="arrow"
     d="M 11.500037,31.436501 C 11.940474,20.09759 22.043105,11.32322 32.158766,21.979434 L 37.068811,17.246167 C 37.068811,17.246167 37.088388,32 37.088388,32 L 22.160133,31.978069 C 22.160133,31.978069 26.997745,27.140456 26.997745,27.140456 C 18.528582,18.264221 13.291696,25.230495 11.500037,31.436501 z"
     style="fill:#404040;"/>
  </a>
 </g>
</svg>

<style type='text/css'>
<![CDATA[
[data-mouse-over-selected='false'] { opacity: 0.7; }
[data-mouse-over-selected='true']  { opacity: 1.0; }
]]>
</style>
<script type="application/ecmascript"><![CDATA[
document.addEventListener('DOMContentLoaded', (event) => {
  highlightEdges();
  highlightAdjacentNodes();
});
]]></script>
</svg>
