<?xml version="1.0" encoding="UTF-8" standalone="no"?>
<!DOCTYPE svg PUBLIC "-//W3C//DTD SVG 1.1//EN"
 "http://www.w3.org/Graphics/SVG/1.1/DTD/svg11.dtd">
<!-- Generated by graphviz version 8.1.0 (20230707.0739)
 -->
<!-- Title: Slic3r::TreeSupport::TreeSupport Pages: 1 -->
<!--zoomable 489 -->

<svg id="main" version="1.1" xmlns="http://www.w3.org/2000/svg" xmlns:xlink="http://www.w3.org/1999/xlink" xml:space="preserve" onload="init(evt)">
<style type="text/css"><![CDATA[
.node, .edge {opacity: 0.7;}
.node.selected, .edge.selected {opacity: 1;}
.edge:hover path { stroke: red; }
.edge:hover polygon { stroke: red; fill: red; }
]]></style>

<defs>
  <circle id="rim" cx="0" cy="0" r="7"/>
  <circle id="rim2" cx="0" cy="0" r="3.5"/>
  <g id="zoomPlus">
    <use xlink:href="#rim" fill="#404040"><set attributeName="fill" to="#808080" begin="zoomplus.mouseover" end="zoomplus.mouseout"/></use>
    <path d="M-4,0h8M0,-4v8" fill="none" stroke="white" stroke-width="1.5" pointer-events="none"/>
  </g>
  <g id="zoomMin">
    <use xlink:href="#rim" fill="#404040"><set attributeName="fill" to="#808080" begin="zoomminus.mouseover" end="zoomminus.mouseout"/></use>
    <path d="M-4,0h8" fill="none" stroke="white" stroke-width="1.5" pointer-events="none"/>
  </g>
  <g id="arrowUp" transform="translate(30 24)">
    <use xlink:href="#rim"/>
    <path pointer-events="none" fill="none" stroke="white" stroke-width="1.5" d="M0,-3.0v7 M-2.5,-0.5L0,-3.0L2.5,-0.5"/>
  </g>
  <g id="arrowRight" transform="rotate(90) translate(36 -43)">
    <use xlink:href="#rim"/>
    <path pointer-events="none" fill="none" stroke="white" stroke-width="1.5" d="M0,-3.0v7 M-2.5,-0.5L0,-3.0L2.5,-0.5"/>
  </g>
  <g id="arrowDown" transform="rotate(180) translate(-30 -48)">
    <use xlink:href="#rim"/>
    <path pointer-events="none" fill="none" stroke="white" stroke-width="1.5" d="M0,-3.0v7 M-2.5,-0.5L0,-3.0L2.5,-0.5"/>
  </g>
  <g id="arrowLeft" transform="rotate(270) translate(-36 17)">
    <use xlink:href="#rim"/>
    <path pointer-events="none" fill="none" stroke="white" stroke-width="1.5" d="M0,-3.0v7 M-2.5,-0.5L0,-3.0L2.5,-0.5"/>
  </g>
  <g id="resetDef">
    <use xlink:href="#rim2" fill="#404040"><set attributeName="fill" to="#808080" begin="reset.mouseover" end="reset.mouseout"/></use>
  </g>
</defs>
<script type="application/ecmascript">
var viewWidth = 874;
var viewHeight = 489;
var sectionId = 'dynsection-2';
</script>
<script type="application/ecmascript" xlink:href="../../svg.min.js"/>
<svg id="graph" class="graph">
<g id="viewport">
<title>Slic3r::TreeSupport::TreeSupport</title>
<!-- Node1 -->
<g id="Node000001" class="node">
<title>Node1</title>
<g id="a_Node000001"><a xlink:title="Creates an instance of the tree support generator.">
<polygon fill="#999999" stroke="#666666" points="100,-259.5 0,-259.5 0,-229 100,-229 100,-259.5"/>
<text text-anchor="start" x="8" y="-246" font-family="Helvetica,sans-Serif" font-size="10.00">Slic3r::TreeSupport</text>
<text text-anchor="middle" x="50" y="-234.75" font-family="Helvetica,sans-Serif" font-size="10.00">::TreeSupport</text>
</a>
</g>
</g>
<!-- Node2 -->
<g id="Node000002" class="node">
<title>Node2</title>
<g id="a_Node000002"><a xlink:href="../../de/d87/class_slic3r_1_1_print_object.html#a571b601aadc8d8a24208e933bbd8704c" target="_top" xlink:title=" ">
<polygon fill="white" stroke="#666666" points="252.88,-480.5 157.38,-480.5 157.38,-450 252.88,-450 252.88,-480.5"/>
<text text-anchor="start" x="165.38" y="-467" font-family="Helvetica,sans-Serif" font-size="10.00">Slic3r::PrintObject</text>
<text text-anchor="middle" x="205.12" y="-455.75" font-family="Helvetica,sans-Serif" font-size="10.00">::bounding_box</text>
</a>
</g>
</g>
<!-- Node1&#45;&gt;Node2 -->
<g id="edge1_Node000001_Node000002" class="edge">
<title>Node1&#45;&gt;Node2</title>
<g id="a_edge1_Node000001_Node000002"><a xlink:title=" ">
<path fill="none" stroke="#63b8ff" d="M53.41,-259.99C59.87,-296.93 81,-389.9 136,-441.25 139.35,-444.38 143.13,-447.1 147.16,-449.48"/>
<polygon fill="#63b8ff" stroke="#63b8ff" points="145.39,-453.01 155.89,-454.4 148.55,-446.76 145.39,-453.01"/>
</a>
</g>
</g>
<!-- Node3 -->
<g id="Node000003" class="node">
<title>Node3</title>
<g id="a_Node000003"><a xlink:href="../../d5/d8f/class_slic3r_1_1_print.html#af1937a680d19c7dd8d3c24e5ff7332b8" target="_top" xlink:title=" ">
<polygon fill="white" stroke="#666666" points="254.75,-431.88 155.5,-431.88 155.5,-412.62 254.75,-412.62 254.75,-431.88"/>
<text text-anchor="middle" x="205.12" y="-418.38" font-family="Helvetica,sans-Serif" font-size="10.00">Slic3r::Print::config</text>
</a>
</g>
</g>
<!-- Node1&#45;&gt;Node3 -->
<g id="edge2_Node000001_Node000003" class="edge">
<title>Node1&#45;&gt;Node3</title>
<g id="a_edge2_Node000001_Node000003"><a xlink:title=" ">
<path fill="none" stroke="#63b8ff" d="M54.73,-259.69C63.28,-291.76 87.45,-365.75 136,-404.25 138.92,-406.56 142.1,-408.58 145.45,-410.34"/>
<polygon fill="#63b8ff" stroke="#63b8ff" points="143.67,-413.82 154.23,-414.64 146.49,-407.41 143.67,-413.82"/>
</a>
</g>
</g>
<!-- Node4 -->
<g id="Node000004" class="node">
<title>Node4</title>
<g id="a_Node000004"><a xlink:href="../../db/dcf/class_slic3r_1_1_s_v_g.html#a8008d88fed50359e749596f777a37428" target="_top" xlink:title=" ">
<polygon fill="white" stroke="#666666" points="252.5,-394.88 157.75,-394.88 157.75,-375.62 252.5,-375.62 252.5,-394.88"/>
<text text-anchor="middle" x="205.12" y="-381.38" font-family="Helvetica,sans-Serif" font-size="10.00">Slic3r::SVG::draw</text>
</a>
</g>
</g>
<!-- Node1&#45;&gt;Node4 -->
<g id="edge3_Node000001_Node000004" class="edge">
<title>Node1&#45;&gt;Node4</title>
<g id="a_edge3_Node000001_Node000004"><a xlink:title=" ">
<path fill="none" stroke="#63b8ff" d="M57.62,-259.97C69.42,-286.09 96.63,-338.31 136,-366.25 139.5,-368.74 143.32,-370.9 147.31,-372.78"/>
<polygon fill="#63b8ff" stroke="#63b8ff" points="145.88,-376.38 156.46,-376.89 148.51,-369.89 145.88,-376.38"/>
</a>
</g>
</g>
<!-- Node8 -->
<g id="Node000008" class="node">
<title>Node8</title>
<g id="a_Node000008"><a xlink:href="../../de/db8/namespace_slic3r.html#ac753ec8226df83c882eeacd6967ee2ec" target="_top" xlink:title=" ">
<polygon fill="white" stroke="#666666" points="261.5,-357.5 148.75,-357.5 148.75,-327 261.5,-327 261.5,-357.5"/>
<text text-anchor="start" x="156.75" y="-344" font-family="Helvetica,sans-Serif" font-size="10.00">Slic3r::get_bed_shape</text>
<text text-anchor="middle" x="205.12" y="-332.75" font-family="Helvetica,sans-Serif" font-size="10.00">_with_excluded_area</text>
</a>
</g>
</g>
<!-- Node1&#45;&gt;Node8 -->
<g id="edge9_Node000001_Node000008" class="edge">
<title>Node1&#45;&gt;Node8</title>
<g id="a_edge9_Node000001_Node000008"><a xlink:title=" ">
<path fill="none" stroke="#63b8ff" d="M65.68,-259.8C81.67,-276 108.65,-301.2 136,-317.25 138.84,-318.92 141.81,-320.51 144.86,-322.01"/>
<polygon fill="#63b8ff" stroke="#63b8ff" points="143.23,-325.57 153.77,-326.55 146.14,-319.21 143.23,-325.57"/>
</a>
</g>
</g>
<!-- Node20 -->
<g id="Node000020" class="node">
<title>Node20</title>
<g id="a_Node000020"><a xlink:href="../../d5/d8f/class_slic3r_1_1_print.html#a8fa531f7f792c49066c565becd037973" target="_top" xlink:title=" ">
<polygon fill="white" stroke="#666666" points="248.38,-308.5 161.88,-308.5 161.88,-278 248.38,-278 248.38,-308.5"/>
<text text-anchor="start" x="169.88" y="-295" font-family="Helvetica,sans-Serif" font-size="10.00">Slic3r::Print::get</text>
<text text-anchor="middle" x="205.12" y="-283.75" font-family="Helvetica,sans-Serif" font-size="10.00">_plate_origin</text>
</a>
</g>
</g>
<!-- Node1&#45;&gt;Node20 -->
<g id="edge23_Node000001_Node000020" class="edge">
<title>Node1&#45;&gt;Node20</title>
<g id="a_edge23_Node000001_Node000020"><a xlink:title=" ">
<path fill="none" stroke="#63b8ff" d="M99.87,-259.89C116.25,-265.13 134.59,-271 151.26,-276.33"/>
<polygon fill="#63b8ff" stroke="#63b8ff" points="149.8,-279.86 160.39,-279.58 151.94,-273.19 149.8,-279.86"/>
</a>
</g>
</g>
<!-- Node21 -->
<g id="Node000021" class="node">
<title>Node21</title>
<g id="a_Node000021"><a xlink:href="../../de/d87/class_slic3r_1_1_print_object.html#a0d2ecba1a8eb6257be5586d5b32045e3" target="_top" xlink:title=" ">
<polygon fill="white" stroke="#666666" points="252.88,-259.5 157.38,-259.5 157.38,-229 252.88,-229 252.88,-259.5"/>
<text text-anchor="start" x="165.38" y="-246" font-family="Helvetica,sans-Serif" font-size="10.00">Slic3r::PrintObject</text>
<text text-anchor="middle" x="205.12" y="-234.75" font-family="Helvetica,sans-Serif" font-size="10.00">::instances</text>
</a>
</g>
</g>
<!-- Node1&#45;&gt;Node21 -->
<g id="edge24_Node000001_Node000021" class="edge">
<title>Node1&#45;&gt;Node21</title>
<g id="a_edge24_Node000001_Node000021"><a xlink:title=" ">
<path fill="none" stroke="#63b8ff" d="M100.29,-244.25C114.93,-244.25 131.09,-244.25 146.22,-244.25"/>
<polygon fill="#63b8ff" stroke="#63b8ff" points="146.01,-247.75 156.01,-244.25 146.01,-240.75 146.01,-247.75"/>
</a>
</g>
</g>
<!-- Node22 -->
<g id="Node000022" class="node">
<title>Node22</title>
<g id="a_Node000022"><a xlink:href="../../db/dcf/class_slic3r_1_1_s_v_g.html#ab2e408138b92e1c8bc03f2b8ec10ba79" target="_top" xlink:title=" ">
<polygon fill="white" stroke="#666666" points="264.12,-210.88 146.12,-210.88 146.12,-191.62 264.12,-191.62 264.12,-210.88"/>
<text text-anchor="middle" x="205.12" y="-197.38" font-family="Helvetica,sans-Serif" font-size="10.00">Slic3r::SVG::is_opened</text>
</a>
</g>
</g>
<!-- Node1&#45;&gt;Node22 -->
<g id="edge25_Node000001_Node000022" class="edge">
<title>Node1&#45;&gt;Node22</title>
<g id="a_edge25_Node000001_Node000022"><a xlink:title=" ">
<path fill="none" stroke="#63b8ff" d="M100.43,-230.26C112.1,-226.97 124.48,-223.48 136,-220.25 142.99,-218.29 150.38,-216.22 157.62,-214.2"/>
<polygon fill="#63b8ff" stroke="#63b8ff" points="158.37,-217.35 167.06,-211.29 156.48,-210.6 158.37,-217.35"/>
</a>
</g>
</g>
<!-- Node23 -->
<g id="Node000023" class="node">
<title>Node23</title>
<g id="a_Node000023"><a xlink:href="../../de/db8/namespace_slic3r.html#a61b97e6f6260d750b0110a6b0d0ebc88" target="_top" xlink:title=" ">
<polygon fill="white" stroke="#666666" points="405,-153.88 329,-153.88 329,-134.62 405,-134.62 405,-153.88"/>
<text text-anchor="middle" x="367" y="-140.38" font-family="Helvetica,sans-Serif" font-size="10.00">Slic3r::is_tree</text>
</a>
</g>
</g>
<!-- Node1&#45;&gt;Node23 -->
<g id="edge26_Node000001_Node000023" class="edge">
<title>Node1&#45;&gt;Node23</title>
<g id="a_edge26_Node000001_Node000023"><a xlink:title=" ">
<path fill="none" stroke="#63b8ff" d="M67.44,-228.58C83.58,-214.14 109.55,-193.34 136,-182.25 195.43,-157.33 269.92,-148.71 317.73,-145.75"/>
<polygon fill="#63b8ff" stroke="#63b8ff" points="317.91,-149.19 327.7,-145.15 317.52,-142.2 317.91,-149.19"/>
</a>
</g>
</g>
<!-- Node24 -->
<g id="Node000024" class="node">
<title>Node24</title>
<g id="a_Node000024"><a xlink:href="../../de/db8/namespace_slic3r.html#acea487914e9a59d090643d971f5cedb7" target="_top" xlink:title=" ">
<polygon fill="white" stroke="#666666" points="254.75,-134.88 155.5,-134.88 155.5,-115.62 254.75,-115.62 254.75,-134.88"/>
<text text-anchor="middle" x="205.12" y="-121.38" font-family="Helvetica,sans-Serif" font-size="10.00">Slic3r::is_tree_slim</text>
</a>
</g>
</g>
<!-- Node1&#45;&gt;Node24 -->
<g id="edge27_Node000001_Node000024" class="edge">
<title>Node1&#45;&gt;Node24</title>
<g id="a_edge27_Node000001_Node000024"><a xlink:title=" ">
<path fill="none" stroke="#63b8ff" d="M61.23,-228.56C75.59,-207.69 103.63,-170.91 136,-149.25 141.88,-145.31 148.48,-141.95 155.2,-139.09"/>
<polygon fill="#63b8ff" stroke="#63b8ff" points="155.99,-142.15 164.05,-135.26 153.46,-135.62 155.99,-142.15"/>
</a>
</g>
</g>
<!-- Node25 -->
<g id="Node000025" class="node">
<title>Node25</title>
<g id="a_Node000025"><a xlink:href="../../d6/d0d/class_slic3r_1_1_print_object_base_with_state.html#ac2790a8abd4e0ae7ca1290b25285940e" target="_top" xlink:title=" ">
<polygon fill="white" stroke="#666666" points="274.25,-97.5 136,-97.5 136,-67 274.25,-67 274.25,-97.5"/>
<text text-anchor="start" x="144" y="-84" font-family="Helvetica,sans-Serif" font-size="10.00">Slic3r::PrintObjectBaseWith</text>
<text text-anchor="middle" x="205.12" y="-72.75" font-family="Helvetica,sans-Serif" font-size="10.00">State::print</text>
</a>
</g>
</g>
<!-- Node1&#45;&gt;Node25 -->
<g id="edge29_Node000001_Node000025" class="edge">
<title>Node1&#45;&gt;Node25</title>
<g id="a_edge29_Node000001_Node000025"><a xlink:title=" ">
<path fill="none" stroke="#63b8ff" d="M56.57,-228.6C67.44,-200.2 94.17,-139.99 136,-106.25 137.22,-105.27 138.48,-104.32 139.78,-103.41"/>
<polygon fill="#63b8ff" stroke="#63b8ff" points="141.07,-106.12 147.81,-97.95 137.44,-100.13 141.07,-106.12"/>
</a>
</g>
</g>
<!-- Node26 -->
<g id="Node000026" class="node">
<title>Node26</title>
<g id="a_Node000026"><a xlink:href="../../db/dc4/class_slic3r_1_1_ex_polygon.html#ac0473cb34e9382aaa9180bbd0b6a6e4e" target="_top" xlink:title=" ">
<polygon fill="white" stroke="#666666" points="255.12,-30.5 155.12,-30.5 155.12,0 255.12,0 255.12,-30.5"/>
<text text-anchor="start" x="163.12" y="-17" font-family="Helvetica,sans-Serif" font-size="10.00">Slic3r::ExPolygon::</text>
<text text-anchor="middle" x="205.12" y="-5.75" font-family="Helvetica,sans-Serif" font-size="10.00">translate</text>
</a>
</g>
</g>
<!-- Node1&#45;&gt;Node26 -->
<g id="edge30_Node000001_Node000026" class="edge">
<title>Node1&#45;&gt;Node26</title>
<g id="a_edge30_Node000001_Node000026"><a xlink:title=" ">
<path fill="none" stroke="#63b8ff" d="M54.85,-228.61C63.93,-194.33 89.51,-111.45 136,-58.25 143.25,-49.96 152.48,-42.7 161.8,-36.62"/>
<polygon fill="#63b8ff" stroke="#63b8ff" points="163.37,-39.15 170.07,-30.94 159.71,-33.18 163.37,-39.15"/>
</a>
</g>
</g>
<!-- Node5 -->
<g id="Node000005" class="node">
<title>Node5</title>
<g id="a_Node000005"><a xlink:href="../../db/dcf/class_slic3r_1_1_s_v_g.html#a8993c145ff3851ce687e72829774d235" target="_top" xlink:title=" ">
<polygon fill="white" stroke="#666666" points="578.12,-437.5 475.12,-437.5 475.12,-407 578.12,-407 578.12,-437.5"/>
<text text-anchor="start" x="483.12" y="-424" font-family="Helvetica,sans-Serif" font-size="10.00">Slic3r::SVG::to_svg</text>
<text text-anchor="middle" x="526.62" y="-412.75" font-family="Helvetica,sans-Serif" font-size="10.00">_coord</text>
</a>
</g>
</g>
<!-- Node4&#45;&gt;Node5 -->
<g id="edge4_Node000004_Node000005" class="edge">
<title>Node4&#45;&gt;Node5</title>
<g id="a_edge4_Node000004_Node000005"><a xlink:title=" ">
<path fill="none" stroke="#63b8ff" d="M252.87,-394.08C260.29,-396.46 267.67,-399.47 274.25,-403.25 293.87,-414.53 289.34,-430.59 310.25,-439.25 360.78,-460.18 423.62,-451.75 468.35,-440.62"/>
<polygon fill="#63b8ff" stroke="#63b8ff" points="468.96,-443.82 477.75,-437.9 467.19,-437.05 468.96,-443.82"/>
</a>
</g>
</g>
<!-- Node6 -->
<g id="Node000006" class="node">
<title>Node6</title>
<g id="a_Node000006"><a xlink:href="../../db/dcf/class_slic3r_1_1_s_v_g.html#a725409d4f2d8b05091f250f678800dbd" target="_top" xlink:title=" ">
<polygon fill="white" stroke="#666666" points="423.75,-429.88 310.25,-429.88 310.25,-410.62 423.75,-410.62 423.75,-429.88"/>
<text text-anchor="middle" x="367" y="-416.38" font-family="Helvetica,sans-Serif" font-size="10.00">Slic3r::SVG::to_svg_x</text>
</a>
</g>
</g>
<!-- Node4&#45;&gt;Node6 -->
<g id="edge5_Node000004_Node000006" class="edge">
<title>Node4&#45;&gt;Node6</title>
<g id="a_edge5_Node000004_Node000006"><a xlink:title=" ">
<path fill="none" stroke="#63b8ff" d="M252.37,-395.37C270.1,-399.26 290.54,-403.73 309.15,-407.8"/>
<polygon fill="#63b8ff" stroke="#63b8ff" points="308.34,-411.43 318.86,-410.15 309.84,-404.59 308.34,-411.43"/>
</a>
</g>
</g>
<!-- Node7 -->
<g id="Node000007" class="node">
<title>Node7</title>
<g id="a_Node000007"><a xlink:href="../../db/dcf/class_slic3r_1_1_s_v_g.html#a404d56de42cea06fdf005043b2d99d0c" target="_top" xlink:title=" ">
<polygon fill="white" stroke="#666666" points="423.75,-392.88 310.25,-392.88 310.25,-373.62 423.75,-373.62 423.75,-392.88"/>
<text text-anchor="middle" x="367" y="-379.38" font-family="Helvetica,sans-Serif" font-size="10.00">Slic3r::SVG::to_svg_y</text>
</a>
</g>
</g>
<!-- Node4&#45;&gt;Node7 -->
<g id="edge7_Node000004_Node000007" class="edge">
<title>Node4&#45;&gt;Node7</title>
<g id="a_edge7_Node000004_Node000007"><a xlink:title=" ">
<path fill="none" stroke="#63b8ff" d="M252.8,-384.67C267.33,-384.48 283.64,-384.28 299.26,-384.08"/>
<polygon fill="#63b8ff" stroke="#63b8ff" points="298.98,-387.58 308.93,-383.95 298.89,-380.58 298.98,-387.58"/>
</a>
</g>
</g>
<!-- Node6&#45;&gt;Node5 -->
<g id="edge6_Node000006_Node000005" class="edge">
<title>Node6&#45;&gt;Node5</title>
<g id="a_edge6_Node000006_Node000005"><a xlink:title=" ">
<path fill="none" stroke="#63b8ff" d="M424.02,-420.96C436.94,-421.12 450.77,-421.3 463.92,-421.47"/>
<polygon fill="#63b8ff" stroke="#63b8ff" points="463.74,-424.98 473.78,-421.6 463.83,-417.98 463.74,-424.98"/>
</a>
</g>
</g>
<!-- Node7&#45;&gt;Node5 -->
<g id="edge8_Node000007_Node000005" class="edge">
<title>Node7&#45;&gt;Node5</title>
<g id="a_edge8_Node000007_Node000005"><a xlink:title=" ">
<path fill="none" stroke="#63b8ff" d="M408.59,-393.29C425.52,-397.48 445.56,-402.44 464.22,-407.06"/>
<polygon fill="#63b8ff" stroke="#63b8ff" points="463.17,-410.65 473.72,-409.65 464.85,-403.86 463.17,-410.65"/>
</a>
</g>
</g>
<!-- Node9 -->
<g id="Node000009" class="node">
<title>Node9</title>
<g id="a_Node000009"><a xlink:href="../../de/db8/namespace_slic3r.html#aed0434d42d75979bb4d469ff41de7158" target="_top" xlink:title=" ">
<polygon fill="white" stroke="#666666" points="397.12,-352.88 336.88,-352.88 336.88,-333.62 397.12,-333.62 397.12,-352.88"/>
<text text-anchor="middle" x="367" y="-339.38" font-family="Helvetica,sans-Serif" font-size="10.00">Slic3r::diff</text>
</a>
</g>
</g>
<!-- Node8&#45;&gt;Node9 -->
<g id="edge10_Node000008_Node000009" class="edge">
<title>Node8&#45;&gt;Node9</title>
<g id="a_edge10_Node000008_Node000009"><a xlink:title=" ">
<path fill="none" stroke="#63b8ff" d="M261.59,-342.6C282.7,-342.73 306.33,-342.88 325.76,-343"/>
<polygon fill="#63b8ff" stroke="#63b8ff" points="325.65,-346.5 335.67,-343.07 325.69,-339.5 325.65,-346.5"/>
</a>
</g>
</g>
<!-- Node12 -->
<g id="Node000012" class="node">
<title>Node12</title>
<g id="a_Node000012"><a xlink:href="../../de/db8/namespace_slic3r.html#a8d3d89929722f4dfbb1a8203d2685fdd" target="_top" xlink:title=" ">
<polygon fill="white" stroke="#666666" points="423.38,-309.88 310.62,-309.88 310.62,-290.62 423.38,-290.62 423.38,-309.88"/>
<text text-anchor="middle" x="367" y="-296.38" font-family="Helvetica,sans-Serif" font-size="10.00">Slic3r::get_bed_shape</text>
</a>
</g>
</g>
<!-- Node8&#45;&gt;Node12 -->
<g id="edge13_Node000008_Node000012" class="edge">
<title>Node8&#45;&gt;Node12</title>
<g id="a_edge13_Node000008_Node000012"><a xlink:title=" ">
<path fill="none" stroke="#63b8ff" d="M261.59,-327.68C279.67,-322.93 299.59,-317.7 317.14,-313.09"/>
<polygon fill="#63b8ff" stroke="#63b8ff" points="317.94,-316.23 326.73,-310.3 316.17,-309.46 317.94,-316.23"/>
</a>
</g>
</g>
<!-- Node17 -->
<g id="Node000017" class="node">
<title>Node17</title>
<g id="a_Node000017"><a xlink:href="../../de/db8/namespace_slic3r.html#ad15465925cebad24aeb551e245ae6530" target="_top" xlink:title=" ">
<polygon fill="white" stroke="#666666" points="569.88,-259.88 483.38,-259.88 483.38,-240.62 569.88,-240.62 569.88,-259.88"/>
<text text-anchor="middle" x="526.62" y="-246.38" font-family="Helvetica,sans-Serif" font-size="10.00">Slic3r::to_points</text>
</a>
</g>
</g>
<!-- Node8&#45;&gt;Node17 -->
<g id="edge22_Node000008_Node000017" class="edge">
<title>Node8&#45;&gt;Node17</title>
<g id="a_edge22_Node000008_Node000017"><a xlink:title=" ">
<path fill="none" stroke="#63b8ff" d="M256.44,-326.65C262.64,-323.9 268.73,-320.78 274.25,-317.25 293.32,-305.07 290.02,-291.38 310.25,-281.25 361.27,-255.7 427.06,-249.51 472.43,-248.73"/>
<polygon fill="#63b8ff" stroke="#63b8ff" points="472.25,-252.22 482.22,-248.64 472.19,-245.22 472.25,-252.22"/>
</a>
</g>
</g>
<!-- Node10 -->
<g id="Node000010" class="node">
<title>Node10</title>
<g id="a_Node000010"><a xlink:href="../../de/db8/namespace_slic3r.html#a440bb1d57671f454ad4fab4f192430cf" target="_top" xlink:title=" ">
<polygon fill="white" stroke="#666666" points="566.88,-388.88 486.38,-388.88 486.38,-369.62 566.88,-369.62 566.88,-388.88"/>
<text text-anchor="middle" x="526.62" y="-375.38" font-family="Helvetica,sans-Serif" font-size="10.00">Slic3r::_clipper</text>
</a>
</g>
</g>
<!-- Node9&#45;&gt;Node10 -->
<g id="edge11_Node000009_Node000010" class="edge">
<title>Node9&#45;&gt;Node10</title>
<g id="a_edge11_Node000009_Node000010"><a xlink:title=" ">
<path fill="none" stroke="#63b8ff" d="M397.28,-349.94C419.17,-354.94 449.63,-361.89 475.39,-367.78"/>
<polygon fill="#63b8ff" stroke="#63b8ff" points="474.57,-371.41 485.1,-370.22 476.13,-364.58 474.57,-371.41"/>
</a>
</g>
</g>
<!-- Node11 -->
<g id="Node000011" class="node">
<title>Node11</title>
<g id="a_Node000011"><a xlink:href="../../de/db8/namespace_slic3r.html#a843ba2fe16b213f550fb3d55c55a716e" target="_top" xlink:title=" ">
<polygon fill="white" stroke="#666666" points="730.25,-391.88 631,-391.88 631,-372.62 730.25,-372.62 730.25,-391.88"/>
<text text-anchor="middle" x="680.62" y="-378.38" font-family="Helvetica,sans-Serif" font-size="10.00">Slic3r::to_polygons</text>
</a>
</g>
</g>
<!-- Node10&#45;&gt;Node11 -->
<g id="edge12_Node000010_Node000011" class="edge">
<title>Node10&#45;&gt;Node11</title>
<g id="a_edge12_Node000010_Node000011"><a xlink:title=" ">
<path fill="none" stroke="#63b8ff" d="M567.16,-380.03C583.26,-380.35 602.22,-380.72 619.94,-381.07"/>
<polygon fill="#63b8ff" stroke="#63b8ff" points="619.71,-384.59 629.77,-381.29 619.85,-377.59 619.71,-384.59"/>
</a>
</g>
</g>
<!-- Node13 -->
<g id="Node000013" class="node">
<title>Node13</title>
<g id="a_Node000013"><a xlink:href="../../d5/df0/class_slic3r_1_1_dynamic_config.html#a28023c0fba9ebd5660ff28f9a81d9742" target="_top" xlink:title=" ">
<polygon fill="white" stroke="#666666" points="593.5,-351.88 459.75,-351.88 459.75,-332.62 593.5,-332.62 593.5,-351.88"/>
<text text-anchor="middle" x="526.62" y="-338.38" font-family="Helvetica,sans-Serif" font-size="10.00">Slic3r::DynamicConfig::opt</text>
</a>
</g>
</g>
<!-- Node12&#45;&gt;Node13 -->
<g id="edge14_Node000012_Node000013" class="edge">
<title>Node12&#45;&gt;Node13</title>
<g id="a_edge14_Node000012_Node000013"><a xlink:title=" ">
<path fill="none" stroke="#63b8ff" d="M405.76,-310.31C427.14,-316.01 454.12,-323.2 477.07,-329.31"/>
<polygon fill="#63b8ff" stroke="#63b8ff" points="476.07,-332.93 486.63,-332.13 477.87,-326.17 476.07,-332.93"/>
</a>
</g>
</g>
<!-- Node16 -->
<g id="Node000016" class="node">
<title>Node16</title>
<g id="a_Node000016"><a xlink:href="../../de/db8/namespace_slic3r.html#a20c9ce8050ad12a2fbc3d2e07937a1e8" target="_top" xlink:title=" ">
<polygon fill="white" stroke="#666666" points="564.25,-296.88 489,-296.88 489,-277.62 564.25,-277.62 564.25,-296.88"/>
<text text-anchor="middle" x="526.62" y="-283.38" font-family="Helvetica,sans-Serif" font-size="10.00">Slic3r::scaled</text>
</a>
</g>
</g>
<!-- Node12&#45;&gt;Node16 -->
<g id="edge17_Node000012_Node000016" class="edge">
<title>Node12&#45;&gt;Node16</title>
<g id="a_edge17_Node000012_Node000016"><a xlink:title=" ">
<path fill="none" stroke="#63b8ff" d="M423.57,-295.67C441.31,-294.2 460.78,-292.6 477.91,-291.19"/>
<polygon fill="#63b8ff" stroke="#63b8ff" points="478.11,-294.6 487.79,-290.29 477.54,-287.62 478.11,-294.6"/>
</a>
</g>
</g>
<!-- Node12&#45;&gt;Node17 -->
<g id="edge19_Node000012_Node000017" class="edge">
<title>Node12&#45;&gt;Node17</title>
<g id="a_edge19_Node000012_Node000017"><a xlink:title=" ">
<path fill="none" stroke="#63b8ff" d="M395.14,-290.23C413.31,-283.66 437.84,-275.06 459.75,-268.25 465.2,-266.56 470.93,-264.87 476.64,-263.23"/>
<polygon fill="#63b8ff" stroke="#63b8ff" points="477.15,-266.44 485.83,-260.37 475.26,-259.7 477.15,-266.44"/>
</a>
</g>
</g>
<!-- Node14 -->
<g id="Node000014" class="node">
<title>Node14</title>
<g id="a_Node000014"><a xlink:href="../../d9/d06/class_slic3r_1_1_config_base.html#a423121494459dae7858bc9d665f8cb4f" target="_top" xlink:title=" ">
<polygon fill="white" stroke="#666666" points="729.5,-354.5 631.75,-354.5 631.75,-324 729.5,-324 729.5,-354.5"/>
<text text-anchor="start" x="639.75" y="-341" font-family="Helvetica,sans-Serif" font-size="10.00">Slic3r::ConfigBase</text>
<text text-anchor="middle" x="680.62" y="-329.75" font-family="Helvetica,sans-Serif" font-size="10.00">::option</text>
</a>
</g>
</g>
<!-- Node13&#45;&gt;Node14 -->
<g id="edge15_Node000013_Node000014" class="edge">
<title>Node13&#45;&gt;Node14</title>
<g id="a_edge15_Node000013_Node000014"><a xlink:title=" ">
<path fill="none" stroke="#63b8ff" d="M593.85,-340.94C602.74,-340.77 611.81,-340.59 620.56,-340.42"/>
<polygon fill="#63b8ff" stroke="#63b8ff" points="620.51,-343.9 630.44,-340.2 620.38,-336.9 620.51,-343.9"/>
</a>
</g>
</g>
<!-- Node15 -->
<g id="Node000015" class="node">
<title>Node15</title>
<g id="a_Node000015"><a xlink:href="../../d9/d06/class_slic3r_1_1_config_base.html#a699680b37bd3c116736fd1a2ec831728" target="_top" xlink:title=" ">
<polygon fill="white" stroke="#666666" points="865.5,-354.5 767.75,-354.5 767.75,-324 865.5,-324 865.5,-354.5"/>
<text text-anchor="start" x="775.75" y="-341" font-family="Helvetica,sans-Serif" font-size="10.00">Slic3r::ConfigBase</text>
<text text-anchor="middle" x="816.62" y="-329.75" font-family="Helvetica,sans-Serif" font-size="10.00">::optptr</text>
</a>
</g>
</g>
<!-- Node14&#45;&gt;Node15 -->
<g id="edge16_Node000014_Node000015" class="edge">
<title>Node14&#45;&gt;Node15</title>
<g id="a_edge16_Node000014_Node000015"><a xlink:title=" ">
<path fill="none" stroke="#63b8ff" d="M729.62,-339.25C738.38,-339.25 747.61,-339.25 756.64,-339.25"/>
<polygon fill="#63b8ff" stroke="#63b8ff" points="756.51,-342.75 766.51,-339.25 756.51,-335.75 756.51,-342.75"/>
</a>
</g>
</g>
<!-- Node16&#45;&gt;Node16 -->
<g id="edge18_Node000016_Node000016" class="edge">
<title>Node16&#45;&gt;Node16</title>
<g id="a_edge18_Node000016_Node000016"><a xlink:title=" ">
<path fill="none" stroke="#63b8ff" d="M502.52,-297.16C491.52,-305.77 499.55,-314.88 526.62,-314.88 542.7,-314.88 552.06,-311.67 554.71,-307.26"/>
<polygon fill="#63b8ff" stroke="#63b8ff" points="557.66,-306.18 550.73,-298.16 551.15,-308.75 557.66,-306.18"/>
</a>
</g>
</g>
<!-- Node18 -->
<g id="Node000018" class="node">
<title>Node18</title>
<g id="a_Node000018"><a xlink:href="../../de/db8/namespace_slic3r.html#a5f240a84e573ed2d7785a439f4239e1a" target="_top" xlink:title=" ">
<polygon fill="white" stroke="#666666" points="719.75,-278.88 641.5,-278.88 641.5,-259.62 719.75,-259.62 719.75,-278.88"/>
<text text-anchor="middle" x="680.62" y="-265.38" font-family="Helvetica,sans-Serif" font-size="10.00">Slic3r::append</text>
</a>
</g>
</g>
<!-- Node17&#45;&gt;Node18 -->
<g id="edge20_Node000017_Node000018" class="edge">
<title>Node17&#45;&gt;Node18</title>
<g id="a_edge20_Node000017_Node000018"><a xlink:title=" ">
<path fill="none" stroke="#63b8ff" d="M570.37,-255.59C589.03,-257.93 611.02,-260.67 630.36,-263.09"/>
<polygon fill="#63b8ff" stroke="#63b8ff" points="629.73,-266.67 640.09,-264.43 630.6,-259.72 629.73,-266.67"/>
</a>
</g>
</g>
<!-- Node19 -->
<g id="Node000019" class="node">
<title>Node19</title>
<g id="a_Node000019"><a xlink:href="../../de/db8/namespace_slic3r.html#af91e5d9840641354d33cb15a5fbe16a8" target="_top" xlink:title=" ">
<polygon fill="white" stroke="#666666" points="731.75,-241.88 629.5,-241.88 629.5,-222.62 731.75,-222.62 731.75,-241.88"/>
<text text-anchor="middle" x="680.62" y="-228.38" font-family="Helvetica,sans-Serif" font-size="10.00">Slic3r::count_points</text>
</a>
</g>
</g>
<!-- Node17&#45;&gt;Node19 -->
<g id="edge21_Node000017_Node000019" class="edge">
<title>Node17&#45;&gt;Node19</title>
<g id="a_edge21_Node000017_Node000019"><a xlink:title=" ">
<path fill="none" stroke="#63b8ff" d="M570.37,-245.19C585.35,-243.41 602.48,-241.39 618.66,-239.47"/>
<polygon fill="#63b8ff" stroke="#63b8ff" points="618.61,-242.88 628.13,-238.23 617.79,-235.93 618.61,-242.88"/>
</a>
</g>
</g>
<!-- Node24&#45;&gt;Node23 -->
<g id="edge28_Node000024_Node000023" class="edge">
<title>Node24&#45;&gt;Node23</title>
<g id="a_edge28_Node000024_Node000023"><a xlink:title=" ">
<path fill="none" stroke="#63b8ff" d="M254.96,-131.05C274.95,-133.43 298.02,-136.17 317.93,-138.54"/>
<polygon fill="#63b8ff" stroke="#63b8ff" points="317.28,-142.1 327.62,-139.81 318.11,-135.15 317.28,-142.1"/>
</a>
</g>
</g>
<!-- Node26&#45;&gt;Node26 -->
<g id="edge31_Node000026_Node000026" class="edge">
<title>Node26&#45;&gt;Node26</title>
<g id="a_edge31_Node000026_Node000026"><a xlink:title=" ">
<path fill="none" stroke="#63b8ff" d="M177.64,-30.99C172.03,-40.06 181.19,-48.5 205.12,-48.5 218.59,-48.5 227.38,-45.83 231.49,-41.88"/>
<polygon fill="#63b8ff" stroke="#63b8ff" points="235.07,-42.29 232.61,-31.99 228.11,-41.58 235.07,-42.29"/>
</a>
</g>
</g>
</g>
</svg>

<g id="navigator" transform="translate(0 0)" fill="#404254">
  <rect fill="#f2f5e9" fill-opacity="0.5" stroke="#606060" stroke-width=".5" x="0" y="0" width="60" height="60"/>
  <use id="zoomplus" xlink:href="#zoomPlus" x="17" y="9" onmousedown="handleZoom(evt,'in')"/>
  <use id="zoomminus" xlink:href="#zoomMin" x="42" y="9" onmousedown="handleZoom(evt,'out')"/>
  <use id="reset" xlink:href="#resetDef" x="30" y="36" onmousedown="handleReset()"/>
   <use id="arrowup" xlink:href="#arrowUp" x="0" y="0" onmousedown="handlePan(0,-1)"/>
  <use id="arrowright" xlink:href="#arrowRight" x="0" y="0" onmousedown="handlePan(1,0)"/>
  <use id="arrowdown" xlink:href="#arrowDown" x="0" y="0" onmousedown="handlePan(0,1)"/>
  <use id="arrowleft" xlink:href="#arrowLeft" x="0" y="0" onmousedown="handlePan(-1,0)"/>
</g>
<svg viewBox="0 0 15 15" width="100%" height="30px" preserveAspectRatio="xMaxYMin meet">
 <g id="arrow_out" transform="scale(0.3 0.3)">
  <a xlink:href="class_slic3r_1_1_tree_support_ad1a44839bbfd3668ab21ebf06d4e950c_cgraph_org.svg" target="_base">
   <rect id="button" ry="5" rx="5" y="6" x="6" height="38" width="38"
        fill="#f2f5e9" fill-opacity="0.5" stroke="#606060" stroke-width="1.0"/>
   <path id="arrow"
     d="M 11.500037,31.436501 C 11.940474,20.09759 22.043105,11.32322 32.158766,21.979434 L 37.068811,17.246167 C 37.068811,17.246167 37.088388,32 37.088388,32 L 22.160133,31.978069 C 22.160133,31.978069 26.997745,27.140456 26.997745,27.140456 C 18.528582,18.264221 13.291696,25.230495 11.500037,31.436501 z"
     style="fill:#404040;"/>
  </a>
 </g>
</svg>

<style type='text/css'>
<![CDATA[
[data-mouse-over-selected='false'] { opacity: 0.7; }
[data-mouse-over-selected='true']  { opacity: 1.0; }
]]>
</style>
<script type="application/ecmascript"><![CDATA[
document.addEventListener('DOMContentLoaded', (event) => {
  highlightEdges();
  highlightAdjacentNodes();
});
]]></script>
</svg>
