<?xml version="1.0" encoding="UTF-8" standalone="no"?>
<!DOCTYPE svg PUBLIC "-//W3C//DTD SVG 1.1//EN"
 "http://www.w3.org/Graphics/SVG/1.1/DTD/svg11.dtd">
<!-- Generated by graphviz version 8.1.0 (20230707.0739)
 -->
<!-- Title: Slic3r::TreeSupport::drop_nodes Pages: 1 -->
<svg width="946pt" height="594pt"
 viewBox="0.00 0.00 946.25 593.88" xmlns="http://www.w3.org/2000/svg" xmlns:xlink="http://www.w3.org/1999/xlink">
<g id="graph0" class="graph" transform="scale(1 1) rotate(0) translate(4 589.88)">
<title>Slic3r::TreeSupport::drop_nodes</title>
<!-- Node1 -->
<g id="Node000001" class="node">
<title>Node1</title>
<g id="a_Node000001"><a xlink:title="Drops down the nodes of the tree support towards the build plate.">
<polygon fill="#999999" stroke="#666666" points="100,-242.88 0,-242.88 0,-212.38 100,-212.38 100,-242.88"/>
<text text-anchor="start" x="8" y="-229.38" font-family="Helvetica,sans-Serif" font-size="10.00">Slic3r::TreeSupport</text>
<text text-anchor="middle" x="50" y="-218.12" font-family="Helvetica,sans-Serif" font-size="10.00">::drop_nodes</text>
</a>
</g>
</g>
<!-- Node2 -->
<g id="Node000002" class="node">
<title>Node2</title>
<g id="a_Node000002"><a xlink:href="../../df/de0/class_slic3r_1_1_minimum_spanning_tree.html#a58952826c134708c978ee0fbc39dbfae" target="_top" xlink:title="Gets the nodes that are adjacent to the specified node.">
<polygon fill="white" stroke="#666666" points="282.88,-454.88 136.38,-454.88 136.38,-424.38 282.88,-424.38 282.88,-454.88"/>
<text text-anchor="start" x="144.38" y="-441.38" font-family="Helvetica,sans-Serif" font-size="10.00">Slic3r::MinimumSpanningTree</text>
<text text-anchor="middle" x="209.62" y="-430.12" font-family="Helvetica,sans-Serif" font-size="10.00">::adjacent_nodes</text>
</a>
</g>
</g>
<!-- Node1&#45;&gt;Node2 -->
<g id="edge1_Node000001_Node000002" class="edge">
<title>Node1&#45;&gt;Node2</title>
<g id="a_edge1_Node000001_Node000002"><a xlink:title=" ">
<path fill="none" stroke="#63b8ff" d="M53.67,-243.26C60.6,-279.04 82.48,-367.47 136,-415.62 136.89,-416.42 137.8,-417.2 138.74,-417.94"/>
<polygon fill="#63b8ff" stroke="#63b8ff" points="136.52,-421.34 146.78,-424 140.42,-415.52 136.52,-421.34"/>
</a>
</g>
</g>
<!-- Node3 -->
<g id="Node000003" class="node">
<title>Node3</title>
<g id="a_Node000003"><a xlink:href="../../de/db8/namespace_slic3r.html#a7927d0ca1b31b8f9284ea268b11d27d5" target="_top" xlink:title=" ">
<polygon fill="white" stroke="#666666" points="244.62,-406.25 174.62,-406.25 174.62,-387 244.62,-387 244.62,-406.25"/>
<text text-anchor="middle" x="209.62" y="-392.75" font-family="Helvetica,sans-Serif" font-size="10.00">Slic3r::angle</text>
</a>
</g>
</g>
<!-- Node1&#45;&gt;Node3 -->
<g id="edge2_Node000001_Node000003" class="edge">
<title>Node1&#45;&gt;Node3</title>
<g id="a_edge2_Node000001_Node000003"><a xlink:title=" ">
<path fill="none" stroke="#63b8ff" d="M55.23,-243.21C64.43,-274.08 89.32,-343.1 136,-378.62 144.05,-384.75 153.91,-388.81 163.75,-391.5"/>
<polygon fill="#63b8ff" stroke="#63b8ff" points="162.8,-395.1 173.33,-393.92 164.36,-388.28 162.8,-395.1"/>
</a>
</g>
</g>
<!-- Node5 -->
<g id="Node000005" class="node">
<title>Node5</title>
<g id="a_Node000005"><a xlink:href="../../de/db8/namespace_slic3r.html#a83fc268888773d5c0f886fc2e54b8c64" target="_top" xlink:title=" ">
<polygon fill="white" stroke="#666666" points="246.5,-369.25 172.75,-369.25 172.75,-350 246.5,-350 246.5,-369.25"/>
<text text-anchor="middle" x="209.62" y="-355.75" font-family="Helvetica,sans-Serif" font-size="10.00">Slic3r::empty</text>
</a>
</g>
</g>
<!-- Node1&#45;&gt;Node5 -->
<g id="edge4_Node000001_Node000005" class="edge">
<title>Node1&#45;&gt;Node5</title>
<g id="a_edge4_Node000001_Node000005"><a xlink:title=" ">
<path fill="none" stroke="#63b8ff" d="M58.21,-243.23C70.51,-268.07 97.96,-316.35 136,-341.62 143.7,-346.74 152.73,-350.4 161.75,-353.03"/>
<polygon fill="#63b8ff" stroke="#63b8ff" points="160.72,-356.62 171.27,-355.65 162.41,-349.83 160.72,-356.62"/>
</a>
</g>
</g>
<!-- Node6 -->
<g id="Node000006" class="node">
<title>Node6</title>
<g id="a_Node000006"><a xlink:href="../../de/db8/namespace_slic3r.html#a0d1dc28c0b564a1adbfbefbc89ae9664" target="_top" xlink:title=" ">
<polygon fill="white" stroke="#666666" points="264.5,-332.25 154.75,-332.25 154.75,-313 264.5,-313 264.5,-332.25"/>
<text text-anchor="middle" x="209.62" y="-318.75" font-family="Helvetica,sans-Serif" font-size="10.00">Slic3r::intersection_ln</text>
</a>
</g>
</g>
<!-- Node1&#45;&gt;Node6 -->
<g id="edge5_Node000001_Node000006" class="edge">
<title>Node1&#45;&gt;Node6</title>
<g id="a_edge5_Node000001_Node000006"><a xlink:title=" ">
<path fill="none" stroke="#63b8ff" d="M65.95,-243.19C81.97,-259.08 108.78,-283.49 136,-298.62 143.1,-302.57 150.96,-306.01 158.8,-308.94"/>
<polygon fill="#63b8ff" stroke="#63b8ff" points="157.44,-312.53 168.04,-312.52 159.75,-305.92 157.44,-312.53"/>
</a>
</g>
</g>
<!-- Node12 -->
<g id="Node000012" class="node">
<title>Node12</title>
<g id="a_Node000012"><a xlink:href="../../de/db8/namespace_slic3r.html#a79210e483e07aa861d3500cef5f27e26" target="_top" xlink:title=" ">
<polygon fill="white" stroke="#666666" points="426,-352.25 325.25,-352.25 325.25,-333 426,-333 426,-352.25"/>
<text text-anchor="middle" x="375.62" y="-338.75" font-family="Helvetica,sans-Serif" font-size="10.00">Slic3r::is_inside_ex</text>
</a>
</g>
</g>
<!-- Node1&#45;&gt;Node12 -->
<g id="edge11_Node000001_Node000012" class="edge">
<title>Node1&#45;&gt;Node12</title>
<g id="a_edge11_Node000001_Node000012"><a xlink:title=" ">
<path fill="none" stroke="#63b8ff" d="M89.25,-243.28C103.78,-249.02 120.56,-255.38 136,-260.62 200.56,-282.54 219.06,-280.65 283.25,-303.62 303.61,-310.91 325.95,-320.42 343.44,-328.22"/>
<polygon fill="#63b8ff" stroke="#63b8ff" points="341.57,-331.67 352.13,-332.59 344.45,-325.29 341.57,-331.67"/>
</a>
</g>
</g>
<!-- Node16 -->
<g id="Node000016" class="node">
<title>Node16</title>
<g id="a_Node000016"><a xlink:href="../../de/db8/namespace_slic3r.html#a3fc0fbbcb45d8a2fef27e26e1289ec21" target="_top" xlink:title=" ">
<polygon fill="white" stroke="#666666" points="259.25,-142.25 160,-142.25 160,-123 259.25,-123 259.25,-142.25"/>
<text text-anchor="middle" x="209.62" y="-128.75" font-family="Helvetica,sans-Serif" font-size="10.00">Slic3r::layer_height</text>
</a>
</g>
</g>
<!-- Node1&#45;&gt;Node16 -->
<g id="edge17_Node000001_Node000016" class="edge">
<title>Node1&#45;&gt;Node16</title>
<g id="a_edge17_Node000001_Node000016"><a xlink:title=" ">
<path fill="none" stroke="#63b8ff" d="M65.95,-212.06C81.97,-196.17 108.78,-171.76 136,-156.62 143.1,-152.68 150.96,-149.24 158.8,-146.31"/>
<polygon fill="#63b8ff" stroke="#63b8ff" points="159.75,-149.33 168.04,-142.73 157.44,-142.72 159.75,-149.33"/>
</a>
</g>
</g>
<!-- Node17 -->
<g id="Node000017" class="node">
<title>Node17</title>
<g id="a_Node000017"><a xlink:href="../../de/db8/namespace_slic3r.html#abc56d807a8ea5fb67d17f565ddb82d7f" target="_top" xlink:title=" ">
<polygon fill="white" stroke="#666666" points="273.88,-218.25 145.38,-218.25 145.38,-199 273.88,-199 273.88,-218.25"/>
<text text-anchor="middle" x="209.62" y="-204.75" font-family="Helvetica,sans-Serif" font-size="10.00">Slic3r::move_out_expolys</text>
</a>
</g>
</g>
<!-- Node1&#45;&gt;Node17 -->
<g id="edge18_Node000001_Node000017" class="edge">
<title>Node1&#45;&gt;Node17</title>
<g id="a_edge18_Node000001_Node000017"><a xlink:title=" ">
<path fill="none" stroke="#63b8ff" d="M100.44,-221.67C111.11,-220.38 122.63,-218.99 134.02,-217.62"/>
<polygon fill="#63b8ff" stroke="#63b8ff" points="134.37,-220.98 143.88,-216.31 133.53,-214.03 134.37,-220.98"/>
</a>
</g>
</g>
<!-- Node22 -->
<g id="Node000022" class="node">
<title>Node22</title>
<g id="a_Node000022"><a xlink:href="../../de/db8/namespace_slic3r.html#a513afc9a9ff0d9199826dffec9c83a3a" target="_top" xlink:title=" ">
<polygon fill="white" stroke="#666666" points="587.88,-223.88 489.38,-223.88 489.38,-193.38 587.88,-193.38 587.88,-223.88"/>
<text text-anchor="start" x="497.38" y="-210.38" font-family="Helvetica,sans-Serif" font-size="10.00">Slic3r::vsize2_with</text>
<text text-anchor="middle" x="538.62" y="-199.12" font-family="Helvetica,sans-Serif" font-size="10.00">_unscale</text>
</a>
</g>
</g>
<!-- Node1&#45;&gt;Node22 -->
<g id="edge44_Node000001_Node000022" class="edge">
<title>Node1&#45;&gt;Node22</title>
<g id="a_edge44_Node000001_Node000022"><a xlink:title=" ">
<path fill="none" stroke="#63b8ff" d="M100.42,-229.16C173.18,-230.94 313.33,-232.46 432,-222.62 447.06,-221.38 463.26,-219.5 478.34,-217.52"/>
<polygon fill="#63b8ff" stroke="#63b8ff" points="478.65,-220.88 488.09,-216.07 477.71,-213.94 478.65,-220.88"/>
</a>
</g>
</g>
<!-- Node27 -->
<g id="Node000027" class="node">
<title>Node27</title>
<g id="a_Node000027"><a xlink:href="../../de/db8/namespace_slic3r.html#a823e21c7e9a69135fb0f18394fb6617c" target="_top" xlink:title=" ">
<polygon fill="white" stroke="#666666" points="432,-106.25 319.25,-106.25 319.25,-87 432,-87 432,-106.25"/>
<text text-anchor="middle" x="375.62" y="-92.75" font-family="Helvetica,sans-Serif" font-size="10.00">Slic3r::projection_onto</text>
</a>
</g>
</g>
<!-- Node1&#45;&gt;Node27 -->
<g id="edge40_Node000001_Node000027" class="edge">
<title>Node1&#45;&gt;Node27</title>
<g id="a_edge40_Node000001_Node000027"><a xlink:title=" ">
<path fill="none" stroke="#63b8ff" d="M82.77,-211.89C98.53,-204.49 118,-195.92 136,-189.62 199.8,-167.31 224.79,-185.55 283.25,-151.62 303.09,-140.11 299.77,-126.75 319.25,-114.62 321.27,-113.37 323.39,-112.19 325.57,-111.08"/>
<polygon fill="#63b8ff" stroke="#63b8ff" points="326.7,-113.97 334.42,-106.71 323.86,-107.57 326.7,-113.97"/>
</a>
</g>
</g>
<!-- Node35 -->
<g id="Node000035" class="node">
<title>Node35</title>
<g id="a_Node000035"><a xlink:href="../../d1/d03/class_slic3r_1_1_tree_support_profiler.html#ad3b9254cd8fead7271fb147a63623eef" target="_top" xlink:title=" ">
<polygon fill="white" stroke="#666666" points="275,-104.88 144.25,-104.88 144.25,-74.38 275,-74.38 275,-104.88"/>
<text text-anchor="start" x="152.25" y="-91.38" font-family="Helvetica,sans-Serif" font-size="10.00">Slic3r::TreeSupportProfiler</text>
<text text-anchor="middle" x="209.62" y="-80.12" font-family="Helvetica,sans-Serif" font-size="10.00">::stage_add</text>
</a>
</g>
</g>
<!-- Node1&#45;&gt;Node35 -->
<g id="edge41_Node000001_Node000035" class="edge">
<title>Node1&#45;&gt;Node35</title>
<g id="a_edge41_Node000001_Node000035"><a xlink:title=" ">
<path fill="none" stroke="#63b8ff" d="M58.64,-211.95C71.36,-187.46 99.15,-140.19 136,-113.62 137.52,-112.53 139.09,-111.48 140.7,-110.48"/>
<polygon fill="#63b8ff" stroke="#63b8ff" points="142.23,-113.09 149.34,-105.24 138.88,-106.95 142.23,-113.09"/>
</a>
</g>
</g>
<!-- Node36 -->
<g id="Node000036" class="node">
<title>Node36</title>
<g id="a_Node000036"><a xlink:href="../../d4/df0/_array_cwise_unary_ops_8h.html#a0c32a3874bfc5438d11b75c9f40256d1" target="_top" xlink:title=" ">
<polygon fill="white" stroke="#666666" points="224.38,-56.25 194.88,-56.25 194.88,-37 224.38,-37 224.38,-56.25"/>
<text text-anchor="middle" x="209.62" y="-42.75" font-family="Helvetica,sans-Serif" font-size="10.00">tan</text>
</a>
</g>
</g>
<!-- Node1&#45;&gt;Node36 -->
<g id="edge42_Node000001_Node000036" class="edge">
<title>Node1&#45;&gt;Node36</title>
<g id="a_edge42_Node000001_Node000036"><a xlink:title=" ">
<path fill="none" stroke="#63b8ff" d="M54.66,-211.98C63.09,-179.51 87.02,-104.57 136,-65.62 149.58,-54.83 168.66,-50.12 183.86,-48.09"/>
<polygon fill="#63b8ff" stroke="#63b8ff" points="183.98,-51.5 193.57,-47.01 183.27,-44.53 183.98,-51.5"/>
</a>
</g>
</g>
<!-- Node37 -->
<g id="Node000037" class="node">
<title>Node37</title>
<g id="a_Node000037"><a xlink:href="../../d1/d03/class_slic3r_1_1_tree_support_profiler.html#ac4c1ac0e831a8c190d77ca6be05ee881" target="_top" xlink:title=" ">
<polygon fill="white" stroke="#666666" points="283.25,-19.25 136,-19.25 136,0 283.25,0 283.25,-19.25"/>
<text text-anchor="middle" x="209.62" y="-5.75" font-family="Helvetica,sans-Serif" font-size="10.00">Slic3r::TreeSupportProfiler::tic</text>
</a>
</g>
</g>
<!-- Node1&#45;&gt;Node37 -->
<g id="edge43_Node000001_Node000037" class="edge">
<title>Node1&#45;&gt;Node37</title>
<g id="a_edge43_Node000001_Node000037"><a xlink:title=" ">
<path fill="none" stroke="#63b8ff" d="M52.89,-212.13C58.32,-174.43 77.57,-77.43 136,-27.62 137.06,-26.72 138.15,-25.87 139.28,-25.05"/>
<polygon fill="#63b8ff" stroke="#63b8ff" points="140.68,-27.7 147.5,-19.59 137.11,-21.68 140.68,-27.7"/>
</a>
</g>
</g>
<!-- Node4 -->
<g id="Node000004" class="node">
<title>Node4</title>
<g id="a_Node000004"><a xlink:href="../../de/db8/namespace_slic3r.html#a3dfb7131fbc3b736711eca14e1c47d2e" target="_top" xlink:title=" ">
<polygon fill="white" stroke="#666666" points="413.62,-426.25 337.62,-426.25 337.62,-407 413.62,-407 413.62,-426.25"/>
<text text-anchor="middle" x="375.62" y="-412.75" font-family="Helvetica,sans-Serif" font-size="10.00">Slic3r::cross2</text>
</a>
</g>
</g>
<!-- Node3&#45;&gt;Node4 -->
<g id="edge3_Node000003_Node000004" class="edge">
<title>Node3&#45;&gt;Node4</title>
<g id="a_edge3_Node000003_Node000004"><a xlink:title=" ">
<path fill="none" stroke="#63b8ff" d="M245,-400.82C268.59,-403.69 300.22,-407.55 326.33,-410.74"/>
<polygon fill="#63b8ff" stroke="#63b8ff" points="325.8,-414.32 336.15,-412.05 326.64,-407.37 325.8,-414.32"/>
</a>
</g>
</g>
<!-- Node7 -->
<g id="Node000007" class="node">
<title>Node7</title>
<g id="a_Node000007"><a xlink:href="../../de/db8/namespace_slic3r.html#ac4ca3604c4614a46e16cdb4ae44942cb" target="_top" xlink:title=" ">
<polygon fill="white" stroke="#666666" points="422.25,-389.25 329,-389.25 329,-370 422.25,-370 422.25,-389.25"/>
<text text-anchor="middle" x="375.62" y="-375.75" font-family="Helvetica,sans-Serif" font-size="10.00">Slic3r::_clipper_ln</text>
</a>
</g>
</g>
<!-- Node6&#45;&gt;Node7 -->
<g id="edge6_Node000006_Node000007" class="edge">
<title>Node6&#45;&gt;Node7</title>
<g id="a_edge6_Node000006_Node000007"><a xlink:title=" ">
<path fill="none" stroke="#63b8ff" d="M259.29,-332.64C267.42,-334.89 275.67,-337.55 283.25,-340.62 300.41,-347.59 302.35,-354.05 319.25,-361.62 322.48,-363.07 325.86,-364.46 329.29,-365.78"/>
<polygon fill="#63b8ff" stroke="#63b8ff" points="328.04,-369.41 338.63,-369.51 330.42,-362.82 328.04,-369.41"/>
</a>
</g>
</g>
<!-- Node8 -->
<g id="Node000008" class="node">
<title>Node8</title>
<g id="a_Node000008"><a xlink:href="../../de/db8/namespace_slic3r.html#adbaff43483c333cf1cf6b8818def8b59" target="_top" xlink:title=" ">
<polygon fill="white" stroke="#666666" points="598.38,-531.25 478.88,-531.25 478.88,-512 598.38,-512 598.38,-531.25"/>
<text text-anchor="middle" x="538.62" y="-517.75" font-family="Helvetica,sans-Serif" font-size="10.00">Slic3r::_clipper_pl_open</text>
</a>
</g>
</g>
<!-- Node7&#45;&gt;Node8 -->
<g id="edge7_Node000007_Node000008" class="edge">
<title>Node7&#45;&gt;Node8</title>
<g id="a_edge7_Node000007_Node000008"><a xlink:title=" ">
<path fill="none" stroke="#63b8ff" d="M420.87,-389.64C424.95,-391.8 428.76,-394.43 432,-397.62 467.41,-432.57 431.53,-469.78 468,-503.62 468.74,-504.31 469.5,-504.97 470.29,-505.61"/>
<polygon fill="#63b8ff" stroke="#63b8ff" points="468.09,-509.01 478.38,-511.54 471.92,-503.15 468.09,-509.01"/>
</a>
</g>
</g>
<!-- Node9 -->
<g id="Node000009" class="node">
<title>Node9</title>
<g id="a_Node000009"><a xlink:href="../../d4/d88/class_clipper_lib_1_1_clipper_base.html#a0080250604c20179e96e2e7e13094de5" target="_top" xlink:title=" ">
<polygon fill="white" stroke="#666666" points="779,-585.88 660.25,-585.88 660.25,-555.38 779,-555.38 779,-585.88"/>
<text text-anchor="start" x="668.25" y="-572.38" font-family="Helvetica,sans-Serif" font-size="10.00">ClipperLib::ClipperBase</text>
<text text-anchor="middle" x="719.62" y="-561.12" font-family="Helvetica,sans-Serif" font-size="10.00">::AddPaths</text>
</a>
</g>
</g>
<!-- Node8&#45;&gt;Node9 -->
<g id="edge8_Node000008_Node000009" class="edge">
<title>Node8&#45;&gt;Node9</title>
<g id="a_edge8_Node000008_Node000009"><a xlink:title=" ">
<path fill="none" stroke="#63b8ff" d="M576.28,-531.66C597.77,-537.54 625.58,-545.15 650.92,-552.09"/>
<polygon fill="#63b8ff" stroke="#63b8ff" points="649.65,-555.65 660.22,-554.91 651.5,-548.9 649.65,-555.65"/>
</a>
</g>
</g>
<!-- Node10 -->
<g id="Node000010" class="node">
<title>Node10</title>
<g id="a_Node000010"><a xlink:href="../../d0/d2d/class_clipper_lib_1_1_clipper.html#a2e4a15e6f79a5f583b42c9701b839e01" target="_top" xlink:title=" ">
<polygon fill="white" stroke="#666666" points="767.75,-536.88 671.5,-536.88 671.5,-506.38 767.75,-506.38 767.75,-536.88"/>
<text text-anchor="start" x="679.5" y="-523.38" font-family="Helvetica,sans-Serif" font-size="10.00">ClipperLib::Clipper</text>
<text text-anchor="middle" x="719.62" y="-512.12" font-family="Helvetica,sans-Serif" font-size="10.00">::Execute</text>
</a>
</g>
</g>
<!-- Node8&#45;&gt;Node10 -->
<g id="edge9_Node000008_Node000010" class="edge">
<title>Node8&#45;&gt;Node10</title>
<g id="a_edge9_Node000008_Node000010"><a xlink:title=" ">
<path fill="none" stroke="#63b8ff" d="M598.73,-521.62C618.49,-521.62 640.49,-521.62 660.19,-521.62"/>
<polygon fill="#63b8ff" stroke="#63b8ff" points="660.18,-525.13 670.18,-521.62 660.18,-518.13 660.18,-525.13"/>
</a>
</g>
</g>
<!-- Node11 -->
<g id="Node000011" class="node">
<title>Node11</title>
<g id="a_Node000011"><a xlink:href="../../de/db8/namespace_slic3r.html#aae47eecbfd95fddf46cfca645a1015f6" target="_top" xlink:title=" ">
<polygon fill="white" stroke="#666666" points="787.62,-488.25 651.62,-488.25 651.62,-469 787.62,-469 787.62,-488.25"/>
<text text-anchor="middle" x="719.62" y="-474.75" font-family="Helvetica,sans-Serif" font-size="10.00">Slic3r::PolyTreeToPolylines</text>
</a>
</g>
</g>
<!-- Node8&#45;&gt;Node11 -->
<g id="edge10_Node000008_Node000011" class="edge">
<title>Node8&#45;&gt;Node11</title>
<g id="a_edge10_Node000008_Node000011"><a xlink:title=" ">
<path fill="none" stroke="#63b8ff" d="M581.59,-511.54C606.86,-505.47 639.25,-497.69 666.2,-491.22"/>
<polygon fill="#63b8ff" stroke="#63b8ff" points="666.7,-494.46 675.61,-488.72 665.07,-487.65 666.7,-494.46"/>
</a>
</g>
</g>
<!-- Node13 -->
<g id="Node000013" class="node">
<title>Node13</title>
<g id="a_Node000013"><a xlink:href="../../de/db8/namespace_slic3r.html#acfc9a09a09ef564e917364aebae46df0" target="_top" xlink:title=" ">
<polygon fill="white" stroke="#666666" points="580.38,-494.25 496.88,-494.25 496.88,-475 580.38,-475 580.38,-494.25"/>
<text text-anchor="middle" x="538.62" y="-480.75" font-family="Helvetica,sans-Serif" font-size="10.00">Slic3r::contains</text>
</a>
</g>
</g>
<!-- Node12&#45;&gt;Node13 -->
<g id="edge12_Node000012_Node000013" class="edge">
<title>Node12&#45;&gt;Node13</title>
<g id="a_edge12_Node000012_Node000013"><a xlink:title=" ">
<path fill="none" stroke="#63b8ff" d="M420.86,-352.65C424.94,-354.81 428.76,-357.43 432,-360.62 467.16,-395.23 432.02,-431.87 468,-465.62 473.28,-470.58 479.72,-474.26 486.54,-477"/>
<polygon fill="#63b8ff" stroke="#63b8ff" points="485.1,-480.54 495.69,-480.37 487.3,-473.9 485.1,-480.54"/>
</a>
</g>
</g>
<!-- Node14 -->
<g id="Node000014" class="node">
<title>Node14</title>
<g id="a_Node000014"><a xlink:href="../../db/dc4/class_slic3r_1_1_ex_polygon.html#acddec872adc267543ee604537098dad2" target="_top" xlink:title=" ">
<polygon fill="white" stroke="#666666" points="588.62,-438.88 488.62,-438.88 488.62,-408.38 588.62,-408.38 588.62,-438.88"/>
<text text-anchor="start" x="496.62" y="-425.38" font-family="Helvetica,sans-Serif" font-size="10.00">Slic3r::ExPolygon::</text>
<text text-anchor="middle" x="538.62" y="-414.12" font-family="Helvetica,sans-Serif" font-size="10.00">contains</text>
</a>
</g>
</g>
<!-- Node12&#45;&gt;Node14 -->
<g id="edge13_Node000012_Node000014" class="edge">
<title>Node12&#45;&gt;Node14</title>
<g id="a_edge13_Node000012_Node000014"><a xlink:title=" ">
<path fill="none" stroke="#63b8ff" d="M416.19,-352.71C421.71,-354.9 427.15,-357.52 432,-360.62 451.86,-373.35 448.25,-386.72 468,-399.62 471.3,-401.78 474.81,-403.76 478.44,-405.59"/>
<polygon fill="#63b8ff" stroke="#63b8ff" points="476.69,-409.09 487.24,-410.04 479.59,-402.72 476.69,-409.09"/>
</a>
</g>
</g>
<!-- Node15 -->
<g id="Node000015" class="node">
<title>Node15</title>
<g id="a_Node000015"><a xlink:href="../../de/db8/namespace_slic3r.html#a6e3ba75aef7600dbb0a294a47d88ecb8" target="_top" xlink:title=" ">
<polygon fill="white" stroke="#666666" points="587.5,-372.25 489.75,-372.25 489.75,-353 587.5,-353 587.5,-372.25"/>
<text text-anchor="middle" x="538.62" y="-358.75" font-family="Helvetica,sans-Serif" font-size="10.00">Slic3r::get_extents</text>
</a>
</g>
</g>
<!-- Node12&#45;&gt;Node15 -->
<g id="edge15_Node000012_Node000015" class="edge">
<title>Node12&#45;&gt;Node15</title>
<g id="a_edge15_Node000012_Node000015"><a xlink:title=" ">
<path fill="none" stroke="#63b8ff" d="M426.24,-348.79C442.85,-350.85 461.52,-353.17 478.76,-355.31"/>
<polygon fill="#63b8ff" stroke="#63b8ff" points="477.92,-358.86 488.27,-356.62 478.78,-351.91 477.92,-358.86"/>
</a>
</g>
</g>
<!-- Node14&#45;&gt;Node14 -->
<g id="edge14_Node000014_Node000014" class="edge">
<title>Node14&#45;&gt;Node14</title>
<g id="a_edge14_Node000014_Node000014"><a xlink:title=" ">
<path fill="none" stroke="#63b8ff" d="M509.74,-439.36C503.85,-448.43 513.47,-456.88 538.62,-456.88 552.77,-456.88 562.01,-454.2 566.33,-450.25"/>
<polygon fill="#63b8ff" stroke="#63b8ff" points="569.91,-450.68 567.51,-440.36 562.95,-449.93 569.91,-450.68"/>
</a>
</g>
</g>
<!-- Node15&#45;&gt;Node15 -->
<g id="edge16_Node000015_Node000015" class="edge">
<title>Node15&#45;&gt;Node15</title>
<g id="a_edge16_Node000015_Node000015"><a xlink:title=" ">
<path fill="none" stroke="#63b8ff" d="M513.11,-372.54C501.47,-381.15 509.97,-390.25 538.62,-390.25 555.64,-390.25 565.55,-387.04 568.36,-382.63"/>
<polygon fill="#63b8ff" stroke="#63b8ff" points="571.22,-381.42 564.14,-373.54 564.76,-384.11 571.22,-381.42"/>
</a>
</g>
</g>
<!-- Node17&#45;&gt;Node12 -->
<g id="edge19_Node000017_Node000012" class="edge">
<title>Node17&#45;&gt;Node12</title>
<g id="a_edge19_Node000017_Node000012"><a xlink:title=" ">
<path fill="none" stroke="#63b8ff" d="M222.56,-218.59C237.04,-230.74 262.14,-251.95 283.25,-270.62 299.51,-285.01 302.34,-290.01 319.25,-303.62 329.11,-311.56 340.46,-319.71 350.31,-326.5"/>
<polygon fill="#63b8ff" stroke="#63b8ff" points="347.96,-329.82 358.2,-332.54 351.89,-324.03 347.96,-329.82"/>
</a>
</g>
</g>
<!-- Node18 -->
<g id="Node000018" class="node">
<title>Node18</title>
<g id="a_Node000018"><a xlink:href="../../de/db8/namespace_slic3r.html#aa3fa458858b2d5a3b0bfb1108f9f781f" target="_top" xlink:title=" ">
<polygon fill="white" stroke="#666666" points="413.62,-294.25 337.62,-294.25 337.62,-275 413.62,-275 413.62,-294.25"/>
<text text-anchor="middle" x="375.62" y="-280.75" font-family="Helvetica,sans-Serif" font-size="10.00">Slic3r::normal</text>
</a>
</g>
</g>
<!-- Node17&#45;&gt;Node18 -->
<g id="edge20_Node000017_Node000018" class="edge">
<title>Node17&#45;&gt;Node18</title>
<g id="a_edge20_Node000017_Node000018"><a xlink:title=" ">
<path fill="none" stroke="#63b8ff" d="M232.4,-218.72C260.79,-231.87 310.62,-254.96 343.12,-270.03"/>
<polygon fill="#63b8ff" stroke="#63b8ff" points="341.47,-273.58 352.02,-274.61 344.42,-267.23 341.47,-273.58"/>
</a>
</g>
</g>
<!-- Node17&#45;&gt;Node22 -->
<g id="edge39_Node000017_Node000022" class="edge">
<title>Node17&#45;&gt;Node22</title>
<g id="a_edge39_Node000017_Node000022"><a xlink:title=" ">
<path fill="none" stroke="#63b8ff" d="M274.06,-208.62C333.12,-208.62 420.49,-208.62 478.22,-208.62"/>
<polygon fill="#63b8ff" stroke="#63b8ff" points="478,-212.13 488,-208.62 478,-205.13 478,-212.13"/>
</a>
</g>
</g>
<!-- Node24 -->
<g id="Node000024" class="node">
<title>Node24</title>
<g id="a_Node000024"><a xlink:href="../../de/db8/namespace_slic3r.html#a5e96c84b799b62906e4a46a94eb8916c" target="_top" xlink:title=" ">
<polygon fill="white" stroke="#666666" points="419.25,-143.25 332,-143.25 332,-124 419.25,-124 419.25,-143.25"/>
<text text-anchor="middle" x="375.62" y="-129.75" font-family="Helvetica,sans-Serif" font-size="10.00">Slic3r::offset_ex</text>
</a>
</g>
</g>
<!-- Node17&#45;&gt;Node24 -->
<g id="edge26_Node000017_Node000024" class="edge">
<title>Node17&#45;&gt;Node24</title>
<g id="a_edge26_Node000017_Node000024"><a xlink:title=" ">
<path fill="none" stroke="#63b8ff" d="M251.14,-198.58C261.97,-195.01 273.4,-190.4 283.25,-184.62 301.97,-173.64 300.5,-162.56 319.25,-151.62 321.46,-150.34 323.77,-149.13 326.15,-147.99"/>
<polygon fill="#63b8ff" stroke="#63b8ff" points="327.32,-150.87 335.16,-143.75 324.59,-144.43 327.32,-150.87"/>
</a>
</g>
</g>
<!-- Node17&#45;&gt;Node27 -->
<g id="edge29_Node000017_Node000027" class="edge">
<title>Node17&#45;&gt;Node27</title>
<g id="a_edge29_Node000017_Node000027"><a xlink:title=" ">
<path fill="none" stroke="#63b8ff" d="M258.74,-198.59C267.55,-195.2 276.19,-190.67 283.25,-184.62 309.84,-161.89 292.61,-137.3 319.25,-114.62 320.29,-113.74 321.37,-112.9 322.49,-112.1"/>
<polygon fill="#63b8ff" stroke="#63b8ff" points="323.81,-114.8 330.68,-106.74 320.28,-108.76 323.81,-114.8"/>
</a>
</g>
</g>
<!-- Node32 -->
<g id="Node000032" class="node">
<title>Node32</title>
<g id="a_Node000032"><a xlink:href="../../de/db8/namespace_slic3r.html#a37166e144522fceee41e6d8ed8245315" target="_top" xlink:title=" ">
<polygon fill="white" stroke="#666666" points="418.5,-180.25 332.75,-180.25 332.75,-161 418.5,-161 418.5,-180.25"/>
<text text-anchor="middle" x="375.62" y="-166.75" font-family="Helvetica,sans-Serif" font-size="10.00">Slic3r::union_ex</text>
</a>
</g>
</g>
<!-- Node17&#45;&gt;Node32 -->
<g id="edge35_Node000017_Node000032" class="edge">
<title>Node17&#45;&gt;Node32</title>
<g id="a_edge35_Node000017_Node000032"><a xlink:title=" ">
<path fill="none" stroke="#63b8ff" d="M254.14,-198.54C274.94,-193.72 300,-187.92 321.87,-182.85"/>
<polygon fill="#63b8ff" stroke="#63b8ff" points="322.37,-186.09 331.32,-180.43 320.79,-179.27 322.37,-186.09"/>
</a>
</g>
</g>
<!-- Node19 -->
<g id="Node000019" class="node">
<title>Node19</title>
<g id="a_Node000019"><a xlink:href="../../de/db8/namespace_slic3r.html#a1eea52f5cabe9f6172fcec07fb0fed76" target="_top" xlink:title=" ">
<polygon fill="white" stroke="#666666" points="575.12,-335.25 502.12,-335.25 502.12,-316 575.12,-316 575.12,-335.25"/>
<text text-anchor="middle" x="538.62" y="-321.75" font-family="Helvetica,sans-Serif" font-size="10.00">Slic3r::length</text>
</a>
</g>
</g>
<!-- Node18&#45;&gt;Node19 -->
<g id="edge21_Node000018_Node000019" class="edge">
<title>Node18&#45;&gt;Node19</title>
<g id="a_edge21_Node000018_Node000019"><a xlink:title=" ">
<path fill="none" stroke="#63b8ff" d="M413.97,-294.13C437.03,-300.01 466.8,-307.59 491.35,-313.84"/>
<polygon fill="#63b8ff" stroke="#63b8ff" points="490.31,-317.44 500.87,-316.52 492.04,-310.66 490.31,-317.44"/>
</a>
</g>
</g>
<!-- Node20 -->
<g id="Node000020" class="node">
<title>Node20</title>
<g id="a_Node000020"><a xlink:href="../../d6/dba/_wipe_tower_dialog_8cpp.html#a031c2862b832be718b216d1f101f88cd" target="_top" xlink:title=" ">
<polygon fill="white" stroke="#666666" points="558.25,-298.25 519,-298.25 519,-279 558.25,-279 558.25,-298.25"/>
<text text-anchor="middle" x="538.62" y="-284.75" font-family="Helvetica,sans-Serif" font-size="10.00">scale</text>
</a>
</g>
</g>
<!-- Node18&#45;&gt;Node20 -->
<g id="edge22_Node000018_Node000020" class="edge">
<title>Node18&#45;&gt;Node20</title>
<g id="a_edge22_Node000018_Node000020"><a xlink:title=" ">
<path fill="none" stroke="#63b8ff" d="M413.97,-285.55C442.45,-286.26 481.17,-287.22 507.65,-287.88"/>
<polygon fill="#63b8ff" stroke="#63b8ff" points="507.44,-291.4 517.52,-288.15 507.61,-284.4 507.44,-291.4"/>
</a>
</g>
</g>
<!-- Node21 -->
<g id="Node000021" class="node">
<title>Node21</title>
<g id="a_Node000021"><a xlink:href="../../d4/df0/_array_cwise_unary_ops_8h.html#a656b9217a2fcb6de59dc8d1eb3079cc7" target="_top" xlink:title=" ">
<polygon fill="white" stroke="#666666" points="554.88,-261.25 522.38,-261.25 522.38,-242 554.88,-242 554.88,-261.25"/>
<text text-anchor="middle" x="538.62" y="-247.75" font-family="Helvetica,sans-Serif" font-size="10.00">sqrt</text>
</a>
</g>
</g>
<!-- Node18&#45;&gt;Node21 -->
<g id="edge23_Node000018_Node000021" class="edge">
<title>Node18&#45;&gt;Node21</title>
<g id="a_edge23_Node000018_Node000021"><a xlink:title=" ">
<path fill="none" stroke="#63b8ff" d="M413.97,-276.97C443.74,-270.87 484.71,-262.47 511.18,-257.05"/>
<polygon fill="#63b8ff" stroke="#63b8ff" points="511.8,-260.29 520.89,-254.85 510.4,-253.43 511.8,-260.29"/>
</a>
</g>
</g>
<!-- Node18&#45;&gt;Node22 -->
<g id="edge24_Node000018_Node000022" class="edge">
<title>Node18&#45;&gt;Node22</title>
<g id="a_edge24_Node000018_Node000022"><a xlink:title=" ">
<path fill="none" stroke="#63b8ff" d="M403.49,-274.58C412.77,-270.7 423.08,-265.91 432,-260.62 449.44,-250.29 450.18,-242.28 468,-232.62 471.52,-230.72 475.23,-228.91 479.02,-227.22"/>
<polygon fill="#63b8ff" stroke="#63b8ff" points="480.28,-230.07 488.17,-223 477.6,-223.61 480.28,-230.07"/>
</a>
</g>
</g>
<!-- Node23 -->
<g id="Node000023" class="node">
<title>Node23</title>
<g id="a_Node000023"><a xlink:href="../../de/db8/namespace_slic3r.html#ac3653c2f803d7987db0ebb70ed9eaf5f" target="_top" xlink:title=" ">
<polygon fill="white" stroke="#666666" points="780.88,-221.25 658.38,-221.25 658.38,-202 780.88,-202 780.88,-221.25"/>
<text text-anchor="middle" x="719.62" y="-207.75" font-family="Helvetica,sans-Serif" font-size="10.00">Slic3r::dot_with_unscale</text>
</a>
</g>
</g>
<!-- Node22&#45;&gt;Node23 -->
<g id="edge25_Node000022_Node000023" class="edge">
<title>Node22&#45;&gt;Node23</title>
<g id="a_edge25_Node000022_Node000023"><a xlink:title=" ">
<path fill="none" stroke="#63b8ff" d="M588.06,-209.44C606.24,-209.74 627.29,-210.09 647.12,-210.43"/>
<polygon fill="#63b8ff" stroke="#63b8ff" points="646.92,-213.94 656.98,-210.61 647.04,-206.94 646.92,-213.94"/>
</a>
</g>
</g>
<!-- Node25 -->
<g id="Node000025" class="node">
<title>Node25</title>
<g id="a_Node000025"><a xlink:href="../../de/db8/namespace_slic3r.html#a1f7e91998726ff8395ce66857a6fd49d" target="_top" xlink:title=" ">
<polygon fill="white" stroke="#666666" points="794,-135.25 645.25,-135.25 645.25,-116 794,-116 794,-135.25"/>
<text text-anchor="middle" x="719.62" y="-121.75" font-family="Helvetica,sans-Serif" font-size="10.00">Slic3r::PolyTreeToExPolygons</text>
</a>
</g>
</g>
<!-- Node24&#45;&gt;Node25 -->
<g id="edge27_Node000024_Node000025" class="edge">
<title>Node24&#45;&gt;Node25</title>
<g id="a_edge27_Node000024_Node000025"><a xlink:title=" ">
<path fill="none" stroke="#63b8ff" d="M419.59,-132.62C473.24,-131.37 566.21,-129.19 634.28,-127.6"/>
<polygon fill="#63b8ff" stroke="#63b8ff" points="634.07,-131.08 643.98,-127.35 633.9,-124.08 634.07,-131.08"/>
</a>
</g>
</g>
<!-- Node26 -->
<g id="Node000026" class="node">
<title>Node26</title>
<g id="a_Node000026"><a xlink:href="../../d2/df1/class_clipper_lib_1_1_poly_node.html#a19128db6fb2aca66555231edaffa7ade" target="_top" xlink:title=" ">
<polygon fill="white" stroke="#666666" points="938.25,-140.88 830,-140.88 830,-110.38 938.25,-110.38 938.25,-140.88"/>
<text text-anchor="start" x="838" y="-127.38" font-family="Helvetica,sans-Serif" font-size="10.00">ClipperLib::PolyNode</text>
<text text-anchor="middle" x="884.12" y="-116.12" font-family="Helvetica,sans-Serif" font-size="10.00">::ChildCount</text>
</a>
</g>
</g>
<!-- Node25&#45;&gt;Node26 -->
<g id="edge28_Node000025_Node000026" class="edge">
<title>Node25&#45;&gt;Node26</title>
<g id="a_edge28_Node000025_Node000026"><a xlink:title=" ">
<path fill="none" stroke="#63b8ff" d="M794.27,-125.62C802.47,-125.62 810.77,-125.62 818.84,-125.62"/>
<polygon fill="#63b8ff" stroke="#63b8ff" points="818.66,-129.13 828.66,-125.62 818.66,-122.13 818.66,-129.13"/>
</a>
</g>
</g>
<!-- Node28 -->
<g id="Node000028" class="node">
<title>Node28</title>
<g id="a_Node000028"><a xlink:href="../../d6/dec/class_slic3r_1_1_point.html#a95b18a5328ff199ceecf47229a1ca8a6" target="_top" xlink:title=" ">
<polygon fill="white" stroke="#666666" points="609.25,-81.25 468,-81.25 468,-62 609.25,-62 609.25,-81.25"/>
<text text-anchor="middle" x="538.62" y="-67.75" font-family="Helvetica,sans-Serif" font-size="10.00">Slic3r::Point::projection_onto</text>
</a>
</g>
</g>
<!-- Node27&#45;&gt;Node28 -->
<g id="edge30_Node000027_Node000028" class="edge">
<title>Node27&#45;&gt;Node28</title>
<g id="a_edge30_Node000027_Node000028"><a xlink:title=" ">
<path fill="none" stroke="#63b8ff" d="M432.48,-87.95C441.95,-86.48 451.93,-84.93 461.81,-83.4"/>
<polygon fill="#63b8ff" stroke="#63b8ff" points="462.12,-86.74 471.46,-81.74 461.05,-79.82 462.12,-86.74"/>
</a>
</g>
</g>
<!-- Node28&#45;&gt;Node28 -->
<g id="edge34_Node000028_Node000028" class="edge">
<title>Node28&#45;&gt;Node28</title>
<g id="a_edge34_Node000028_Node000028"><a xlink:title=" ">
<path fill="none" stroke="#63b8ff" d="M513.11,-81.54C501.47,-90.15 509.97,-99.25 538.62,-99.25 555.64,-99.25 565.55,-96.04 568.36,-91.63"/>
<polygon fill="#63b8ff" stroke="#63b8ff" points="571.22,-90.42 564.14,-82.54 564.76,-93.11 571.22,-90.42"/>
</a>
</g>
</g>
<!-- Node29 -->
<g id="Node000029" class="node">
<title>Node29</title>
<g id="a_Node000029"><a xlink:href="../../d7/dd1/class_slic3r_1_1_multi_point.html#a9abf49503ef6eb1b5f9b17e26a0f8ad9" target="_top" xlink:title=" ">
<polygon fill="white" stroke="#666666" points="764.75,-88.88 674.5,-88.88 674.5,-58.38 764.75,-58.38 764.75,-88.88"/>
<text text-anchor="start" x="682.5" y="-75.38" font-family="Helvetica,sans-Serif" font-size="10.00">Slic3r::MultiPoint</text>
<text text-anchor="middle" x="719.62" y="-64.12" font-family="Helvetica,sans-Serif" font-size="10.00">::first_point</text>
</a>
</g>
</g>
<!-- Node28&#45;&gt;Node29 -->
<g id="edge31_Node000028_Node000029" class="edge">
<title>Node28&#45;&gt;Node29</title>
<g id="a_edge31_Node000028_Node000029"><a xlink:title=" ">
<path fill="none" stroke="#63b8ff" d="M609.6,-72.41C627.38,-72.61 646.23,-72.82 663.18,-73.01"/>
<polygon fill="#63b8ff" stroke="#63b8ff" points="662.96,-76.51 673,-73.13 663.04,-69.51 662.96,-76.51"/>
</a>
</g>
</g>
<!-- Node31 -->
<g id="Node000031" class="node">
<title>Node31</title>
<g id="a_Node000031"><a xlink:href="../../d7/dd1/class_slic3r_1_1_multi_point.html#ae9e8896b13f8eead951628834c72e0f1" target="_top" xlink:title=" ">
<polygon fill="white" stroke="#666666" points="764.75,-39.88 674.5,-39.88 674.5,-9.37 764.75,-9.37 764.75,-39.88"/>
<text text-anchor="start" x="682.5" y="-26.38" font-family="Helvetica,sans-Serif" font-size="10.00">Slic3r::MultiPoint</text>
<text text-anchor="middle" x="719.62" y="-15.12" font-family="Helvetica,sans-Serif" font-size="10.00">::lines</text>
</a>
</g>
</g>
<!-- Node28&#45;&gt;Node31 -->
<g id="edge33_Node000028_Node000031" class="edge">
<title>Node28&#45;&gt;Node31</title>
<g id="a_edge33_Node000028_Node000031"><a xlink:title=" ">
<path fill="none" stroke="#63b8ff" d="M578.02,-61.54C603.07,-54.97 636.16,-46.28 663.94,-38.98"/>
<polygon fill="#63b8ff" stroke="#63b8ff" points="664.51,-42.19 673.3,-36.26 662.74,-35.42 664.51,-42.19"/>
</a>
</g>
</g>
<!-- Node30 -->
<g id="Node000030" class="node">
<title>Node30</title>
<g id="a_Node000030"><a xlink:href="../../d7/dd1/class_slic3r_1_1_multi_point.html#aebd72d636e0e29092bca5b8371f08b90" target="_top" xlink:title=" ">
<polygon fill="white" stroke="#666666" points="929.25,-88.88 839,-88.88 839,-58.38 929.25,-58.38 929.25,-88.88"/>
<text text-anchor="start" x="847" y="-75.38" font-family="Helvetica,sans-Serif" font-size="10.00">Slic3r::MultiPoint</text>
<text text-anchor="middle" x="884.12" y="-64.12" font-family="Helvetica,sans-Serif" font-size="10.00">::front</text>
</a>
</g>
</g>
<!-- Node29&#45;&gt;Node30 -->
<g id="edge32_Node000029_Node000030" class="edge">
<title>Node29&#45;&gt;Node30</title>
<g id="a_edge32_Node000029_Node000030"><a xlink:title=" ">
<path fill="none" stroke="#63b8ff" d="M765.03,-73.62C784.46,-73.62 807.47,-73.62 827.99,-73.62"/>
<polygon fill="#63b8ff" stroke="#63b8ff" points="827.77,-77.13 837.77,-73.62 827.77,-70.13 827.77,-77.13"/>
</a>
</g>
</g>
<!-- Node33 -->
<g id="Node000033" class="node">
<title>Node33</title>
<g id="a_Node000033"><a xlink:href="../../de/db8/namespace_slic3r.html#a95776b205e694f695dcf1a8c1a74cda4" target="_top" xlink:title=" ">
<polygon fill="white" stroke="#666666" points="586.75,-175.25 490.5,-175.25 490.5,-156 586.75,-156 586.75,-175.25"/>
<text text-anchor="middle" x="538.62" y="-161.75" font-family="Helvetica,sans-Serif" font-size="10.00">Slic3r::_clipper_ex</text>
</a>
</g>
</g>
<!-- Node32&#45;&gt;Node33 -->
<g id="edge36_Node000032_Node000033" class="edge">
<title>Node32&#45;&gt;Node33</title>
<g id="a_edge36_Node000032_Node000033"><a xlink:title=" ">
<path fill="none" stroke="#63b8ff" d="M418.93,-169.31C437.4,-168.74 459.37,-168.06 479.35,-167.43"/>
<polygon fill="#63b8ff" stroke="#63b8ff" points="479.33,-170.91 489.21,-167.1 479.11,-163.91 479.33,-170.91"/>
</a>
</g>
</g>
<!-- Node33&#45;&gt;Node25 -->
<g id="edge38_Node000033_Node000025" class="edge">
<title>Node33&#45;&gt;Node25</title>
<g id="a_edge38_Node000033_Node000025"><a xlink:title=" ">
<path fill="none" stroke="#63b8ff" d="M584.79,-155.53C608.54,-150.23 637.85,-143.68 662.98,-138.06"/>
<polygon fill="#63b8ff" stroke="#63b8ff" points="663.47,-141.31 672.47,-135.72 661.95,-134.48 663.47,-141.31"/>
</a>
</g>
</g>
<!-- Node34 -->
<g id="Node000034" class="node">
<title>Node34</title>
<g id="a_Node000034"><a xlink:href="../../de/db8/namespace_slic3r.html#a578618ee685da9bd490d3980af3c2c38" target="_top" xlink:title=" ">
<polygon fill="white" stroke="#666666" points="765.12,-183.88 674.12,-183.88 674.12,-153.38 765.12,-153.38 765.12,-183.88"/>
<text text-anchor="start" x="682.12" y="-170.38" font-family="Helvetica,sans-Serif" font-size="10.00">Slic3r::clipper_do</text>
<text text-anchor="middle" x="719.62" y="-159.12" font-family="Helvetica,sans-Serif" font-size="10.00">_polytree</text>
</a>
</g>
</g>
<!-- Node33&#45;&gt;Node34 -->
<g id="edge37_Node000033_Node000034" class="edge">
<title>Node33&#45;&gt;Node34</title>
<g id="a_edge37_Node000033_Node000034"><a xlink:title=" ">
<path fill="none" stroke="#63b8ff" d="M587.12,-166.42C610.39,-166.81 638.55,-167.28 662.83,-167.69"/>
<polygon fill="#63b8ff" stroke="#63b8ff" points="662.62,-171.2 672.68,-167.87 662.74,-164.2 662.62,-171.2"/>
</a>
</g>
</g>
</g>
</svg>
