<?xml version="1.0" encoding="UTF-8" standalone="no"?>
<!DOCTYPE svg PUBLIC "-//W3C//DTD SVG 1.1//EN"
 "http://www.w3.org/Graphics/SVG/1.1/DTD/svg11.dtd">
<!-- Generated by graphviz version 8.1.0 (20230707.0739)
 -->
<!-- Title: nlohmann::detail::binary_reader::get_cbor_array Pages: 1 -->
<svg width="1287pt" height="675pt"
 viewBox="0.00 0.00 1287.25 674.70" xmlns="http://www.w3.org/2000/svg" xmlns:xlink="http://www.w3.org/1999/xlink">
<g id="graph0" class="graph" transform="scale(1 1) rotate(0) translate(4 670.7)">
<title>nlohmann::detail::binary_reader::get_cbor_array</title>
<!-- Node1 -->
<g id="Node000001" class="node">
<title>Node1</title>
<g id="a_Node000001"><a xlink:title=" ">
<polygon fill="#999999" stroke="#666666" points="119.5,-329.95 0,-329.95 0,-299.45 119.5,-299.45 119.5,-329.95"/>
<text text-anchor="start" x="8" y="-316.45" font-family="Helvetica,sans-Serif" font-size="10.00">nlohmann::detail::binary</text>
<text text-anchor="middle" x="59.75" y="-305.2" font-family="Helvetica,sans-Serif" font-size="10.00">_reader::get_cbor_array</text>
</a>
</g>
</g>
<!-- Node2 -->
<g id="Node000002" class="node">
<title>Node2</title>
<g id="a_Node000002"><a xlink:href="../../d6/d30/classnlohmann_1_1detail_1_1binary__reader.html#ad222095c0b21a87824cb10629299629a" target="_top" xlink:title="get next character from the input">
<polygon fill="white" stroke="#666666" points="930.75,-243.95 811.25,-243.95 811.25,-213.45 930.75,-213.45 930.75,-243.95"/>
<text text-anchor="start" x="819.25" y="-230.45" font-family="Helvetica,sans-Serif" font-size="10.00">nlohmann::detail::binary</text>
<text text-anchor="middle" x="871" y="-219.2" font-family="Helvetica,sans-Serif" font-size="10.00">_reader::get</text>
</a>
</g>
</g>
<!-- Node1&#45;&gt;Node2 -->
<g id="edge1_Node000001_Node000002" class="edge">
<title>Node1&#45;&gt;Node2</title>
<g id="a_edge1_Node000001_Node000002"><a xlink:title=" ">
<path fill="none" stroke="#63b8ff" d="M86.75,-298.98C133.55,-271.61 235.91,-215.91 330.5,-192.7 522.49,-145.6 582.19,-145.24 775.25,-187.7 794.86,-192.02 815.45,-200.4 832.41,-208.48"/>
<polygon fill="#63b8ff" stroke="#63b8ff" points="830.42,-211.89 840.94,-213.16 833.5,-205.61 830.42,-211.89"/>
</a>
</g>
</g>
<!-- Node3 -->
<g id="Node000003" class="node">
<title>Node3</title>
<g id="a_Node000003"><a xlink:href="../../d6/d30/classnlohmann_1_1detail_1_1binary__reader.html#a4e4accd5a2a41bfb2f18a8a0fcc9421c" target="_top" xlink:title=" ">
<polygon fill="white" stroke="#666666" points="294.5,-329.95 155.5,-329.95 155.5,-299.45 294.5,-299.45 294.5,-329.95"/>
<text text-anchor="start" x="163.5" y="-316.45" font-family="Helvetica,sans-Serif" font-size="10.00">nlohmann::detail::binary</text>
<text text-anchor="middle" x="225" y="-305.2" font-family="Helvetica,sans-Serif" font-size="10.00">_reader::parse_cbor_internal</text>
</a>
</g>
</g>
<!-- Node1&#45;&gt;Node3 -->
<g id="edge2_Node000001_Node000003" class="edge">
<title>Node1&#45;&gt;Node3</title>
<g id="a_edge2_Node000001_Node000003"><a xlink:title=" ">
<path fill="none" stroke="#63b8ff" d="M119.69,-308.19C127.69,-308.02 136.01,-307.94 144.3,-307.95"/>
<polygon fill="#63b8ff" stroke="#63b8ff" points="144.13,-311.46 154.15,-308.03 144.18,-304.46 144.13,-311.46"/>
</a>
</g>
</g>
<!-- Node3&#45;&gt;Node1 -->
<g id="edge10_Node000003_Node000001" class="edge">
<title>Node3&#45;&gt;Node1</title>
<g id="a_edge10_Node000003_Node000001"><a xlink:title=" ">
<path fill="none" stroke="#63b8ff" d="M155.15,-321.38C147.04,-321.47 138.76,-321.48 130.64,-321.39"/>
<polygon fill="#63b8ff" stroke="#63b8ff" points="130.74,-317.88 120.69,-321.22 130.63,-324.88 130.74,-317.88"/>
</a>
</g>
</g>
<!-- Node3&#45;&gt;Node2 -->
<g id="edge9_Node000003_Node000002" class="edge">
<title>Node3&#45;&gt;Node2</title>
<g id="a_edge9_Node000003_Node000002"><a xlink:title=" ">
<path fill="none" stroke="#63b8ff" d="M239.39,-299.14C257.71,-279.04 292.64,-244.74 330.5,-228.7 487.47,-162.23 693.93,-190.27 800.17,-212.04"/>
<polygon fill="#63b8ff" stroke="#63b8ff" points="799.25,-215.63 809.76,-214.26 800.69,-208.78 799.25,-215.63"/>
</a>
</g>
</g>
<!-- Node3&#45;&gt;Node3 -->
<g id="edge43_Node000003_Node000003" class="edge">
<title>Node3&#45;&gt;Node3</title>
<g id="a_edge43_Node000003_Node000003"><a xlink:title=" ">
<path fill="none" stroke="#63b8ff" d="M195.72,-330.44C189.74,-339.51 199.5,-347.95 225,-347.95 239.34,-347.95 248.71,-345.28 253.09,-341.33"/>
<polygon fill="#63b8ff" stroke="#63b8ff" points="256.67,-341.76 254.28,-331.44 249.71,-341 256.67,-341.76"/>
</a>
</g>
</g>
<!-- Node4 -->
<g id="Node000004" class="node">
<title>Node4</title>
<g id="a_Node000004"><a xlink:href="../../d5/d1a/classnlohmann_1_1detail_1_1parse__error.html#ae77bd584cb9101140790219af7fec1ce" target="_top" xlink:title="create a parse error exception">
<polygon fill="white" stroke="#666666" points="1096,-358.95 978.75,-358.95 978.75,-328.45 1096,-328.45 1096,-358.95"/>
<text text-anchor="start" x="986.75" y="-345.45" font-family="Helvetica,sans-Serif" font-size="10.00">nlohmann::detail::parse</text>
<text text-anchor="middle" x="1037.38" y="-334.2" font-family="Helvetica,sans-Serif" font-size="10.00">_error::create</text>
</a>
</g>
</g>
<!-- Node3&#45;&gt;Node4 -->
<g id="edge3_Node000003_Node000004" class="edge">
<title>Node3&#45;&gt;Node4</title>
<g id="a_edge3_Node000003_Node000004"><a xlink:title=" ">
<path fill="none" stroke="#63b8ff" d="M234.78,-299.32C250.51,-273.23 286.01,-220.44 330.5,-192.7 561.67,-48.59 706.23,85.57 930.75,-68.7 1014.57,-126.3 1031.9,-260.35 1035.47,-317.32"/>
<polygon fill="#63b8ff" stroke="#63b8ff" points="1032.02,-317.45 1036.04,-327.26 1039.01,-317.09 1032.02,-317.45"/>
</a>
</g>
</g>
<!-- Node8 -->
<g id="Node000008" class="node">
<title>Node8</title>
<g id="a_Node000008"><a xlink:href="../../d6/d30/classnlohmann_1_1detail_1_1binary__reader.html#a9c413c9a1bade1ce345740f4d69156f0" target="_top" xlink:title=" ">
<polygon fill="white" stroke="#666666" points="1108,-528.95 966.75,-528.95 966.75,-498.45 1108,-498.45 1108,-528.95"/>
<text text-anchor="start" x="974.75" y="-515.45" font-family="Helvetica,sans-Serif" font-size="10.00">nlohmann::detail::binary</text>
<text text-anchor="middle" x="1037.38" y="-504.2" font-family="Helvetica,sans-Serif" font-size="10.00">_reader::exception_message</text>
</a>
</g>
</g>
<!-- Node3&#45;&gt;Node8 -->
<g id="edge7_Node000003_Node000008" class="edge">
<title>Node3&#45;&gt;Node8</title>
<g id="a_edge7_Node000003_Node000008"><a xlink:title=" ">
<path fill="none" stroke="#63b8ff" d="M231.38,-330.28C255.97,-398.4 364.64,-666.7 550.38,-666.7 550.38,-666.7 550.38,-666.7 713.12,-666.7 815.14,-666.7 840.54,-641.35 930.75,-593.7 960.65,-577.91 991.04,-553.88 1011.5,-536.27"/>
<polygon fill="#63b8ff" stroke="#63b8ff" points="1013.4,-538.38 1018.63,-529.17 1008.79,-533.11 1013.4,-538.38"/>
</a>
</g>
</g>
<!-- Node9 -->
<g id="Node000009" class="node">
<title>Node9</title>
<g id="a_Node000009"><a xlink:href="../../d4/df0/_array_cwise_unary_ops_8h.html#a2500b5d4f377a445cb98d3f1facfa1cf" target="_top" xlink:title=" ">
<polygon fill="white" stroke="#666666" points="408,-457.33 376.25,-457.33 376.25,-438.08 408,-438.08 408,-457.33"/>
<text text-anchor="middle" x="392.12" y="-443.83" font-family="Helvetica,sans-Serif" font-size="10.00">exp</text>
</a>
</g>
</g>
<!-- Node3&#45;&gt;Node9 -->
<g id="edge8_Node000003_Node000009" class="edge">
<title>Node3&#45;&gt;Node9</title>
<g id="a_edge8_Node000003_Node000009"><a xlink:title=" ">
<path fill="none" stroke="#63b8ff" d="M237.22,-330.09C254.79,-353.23 290.9,-397.09 330.5,-423.7 341.18,-430.88 354.33,-436.42 365.65,-440.35"/>
<polygon fill="#63b8ff" stroke="#63b8ff" points="364.21,-443.89 374.8,-443.64 366.36,-437.23 364.21,-443.89"/>
</a>
</g>
</g>
<!-- Node10 -->
<g id="Node000010" class="node">
<title>Node10</title>
<g id="a_Node000010"><a xlink:href="../../d6/d30/classnlohmann_1_1detail_1_1binary__reader.html#acb001d18095dc5bcf7336ae5122b8340" target="_top" xlink:title="reads a CBOR byte array">
<polygon fill="white" stroke="#666666" points="613,-464.95 489.75,-464.95 489.75,-434.45 613,-434.45 613,-464.95"/>
<text text-anchor="start" x="497.75" y="-451.45" font-family="Helvetica,sans-Serif" font-size="10.00">nlohmann::detail::binary</text>
<text text-anchor="middle" x="551.38" y="-440.2" font-family="Helvetica,sans-Serif" font-size="10.00">_reader::get_cbor_binary</text>
</a>
</g>
</g>
<!-- Node3&#45;&gt;Node10 -->
<g id="edge11_Node000003_Node000010" class="edge">
<title>Node3&#45;&gt;Node10</title>
<g id="a_edge11_Node000003_Node000010"><a xlink:title=" ">
<path fill="none" stroke="#63b8ff" d="M244.92,-330.27C265.04,-346.16 298.35,-370.57 330.5,-385.7 377.85,-408 434.65,-424.29 478.65,-434.85"/>
<polygon fill="#63b8ff" stroke="#63b8ff" points="477.73,-438.46 488.26,-437.35 479.33,-431.65 477.73,-438.46"/>
</a>
</g>
</g>
<!-- Node12 -->
<g id="Node000012" class="node">
<title>Node12</title>
<g id="a_Node000012"><a xlink:href="../../d6/d30/classnlohmann_1_1detail_1_1binary__reader.html#a61a0bd8bbe7b560bd429fa990ba3ba1a" target="_top" xlink:title=" ">
<polygon fill="white" stroke="#666666" points="930.75,-443.95 811.25,-443.95 811.25,-413.45 930.75,-413.45 930.75,-443.95"/>
<text text-anchor="start" x="819.25" y="-430.45" font-family="Helvetica,sans-Serif" font-size="10.00">nlohmann::detail::binary</text>
<text text-anchor="middle" x="871" y="-419.2" font-family="Helvetica,sans-Serif" font-size="10.00">_reader::unexpect_eof</text>
</a>
</g>
</g>
<!-- Node3&#45;&gt;Node12 -->
<g id="edge44_Node000003_Node000012" class="edge">
<title>Node3&#45;&gt;Node12</title>
<g id="a_edge44_Node000003_Node000012"><a xlink:title=" ">
<path fill="none" stroke="#63b8ff" d="M231.78,-330.33C244.35,-361.92 277.39,-433.25 330.5,-466.7 498.72,-572.67 589.78,-586.32 775.25,-514.7 807.35,-502.31 835.29,-473.44 852.35,-452.56"/>
<polygon fill="#63b8ff" stroke="#63b8ff" points="855.52,-455.19 858.98,-445.17 850.03,-450.85 855.52,-455.19"/>
</a>
</g>
</g>
<!-- Node13 -->
<g id="Node000013" class="node">
<title>Node13</title>
<g id="a_Node000013"><a xlink:href="../../d6/d30/classnlohmann_1_1detail_1_1binary__reader.html#ac356c6364fe0273d3303fb7a447f4ef6" target="_top" xlink:title=" ">
<polygon fill="white" stroke="#666666" points="771.88,-400.95 652.38,-400.95 652.38,-370.45 771.88,-370.45 771.88,-400.95"/>
<text text-anchor="start" x="660.38" y="-387.45" font-family="Helvetica,sans-Serif" font-size="10.00">nlohmann::detail::binary</text>
<text text-anchor="middle" x="712.12" y="-376.2" font-family="Helvetica,sans-Serif" font-size="10.00">_reader::get_number</text>
</a>
</g>
</g>
<!-- Node3&#45;&gt;Node13 -->
<g id="edge41_Node000003_Node000013" class="edge">
<title>Node3&#45;&gt;Node13</title>
<g id="a_edge41_Node000003_Node000013"><a xlink:title=" ">
<path fill="none" stroke="#63b8ff" d="M294.74,-329.2C306.64,-331.52 318.91,-333.78 330.5,-335.7 438.44,-353.62 564.48,-369.12 641.01,-377.93"/>
<polygon fill="#63b8ff" stroke="#63b8ff" points="640.6,-381.52 650.93,-379.19 641.39,-374.57 640.6,-381.52"/>
</a>
</g>
</g>
<!-- Node14 -->
<g id="Node000014" class="node">
<title>Node14</title>
<g id="a_Node000014"><a xlink:href="../../d6/d30/classnlohmann_1_1detail_1_1binary__reader.html#a7d323283c60a0b89ee5eeadf5cb9a5ad" target="_top" xlink:title=" ">
<polygon fill="white" stroke="#666666" points="775.25,-351.95 649,-351.95 649,-321.45 775.25,-321.45 775.25,-351.95"/>
<text text-anchor="start" x="657" y="-338.45" font-family="Helvetica,sans-Serif" font-size="10.00">nlohmann::detail::binary</text>
<text text-anchor="middle" x="712.12" y="-327.2" font-family="Helvetica,sans-Serif" font-size="10.00">_reader::get_token_string</text>
</a>
</g>
</g>
<!-- Node3&#45;&gt;Node14 -->
<g id="edge42_Node000003_Node000014" class="edge">
<title>Node3&#45;&gt;Node14</title>
<g id="a_edge42_Node000003_Node000014"><a xlink:title=" ">
<path fill="none" stroke="#63b8ff" d="M294.99,-317.83C385.83,-321.95 544.87,-329.16 637.81,-333.38"/>
<polygon fill="#63b8ff" stroke="#63b8ff" points="637.38,-336.91 647.53,-333.86 637.7,-329.92 637.38,-336.91"/>
</a>
</g>
</g>
<!-- Node15 -->
<g id="Node000015" class="node">
<title>Node15</title>
<g id="a_Node000015"><a xlink:href="../../d6/d30/classnlohmann_1_1detail_1_1binary__reader.html#a47092a2195bf9cd3cdb4dda67cc404ed" target="_top" xlink:title=" ">
<polygon fill="white" stroke="#666666" points="453.75,-267.95 330.5,-267.95 330.5,-237.45 453.75,-237.45 453.75,-267.95"/>
<text text-anchor="start" x="338.5" y="-254.45" font-family="Helvetica,sans-Serif" font-size="10.00">nlohmann::detail::binary</text>
<text text-anchor="middle" x="392.12" y="-243.2" font-family="Helvetica,sans-Serif" font-size="10.00">_reader::get_cbor_object</text>
</a>
</g>
</g>
<!-- Node3&#45;&gt;Node15 -->
<g id="edge26_Node000003_Node000015" class="edge">
<title>Node3&#45;&gt;Node15</title>
<g id="a_edge26_Node000003_Node000015"><a xlink:title=" ">
<path fill="none" stroke="#63b8ff" d="M254.01,-298.97C272.69,-290.7 298.11,-280.67 321.99,-271.99"/>
<polygon fill="#63b8ff" stroke="#63b8ff" points="322.88,-275.03 331.11,-268.36 320.51,-268.44 322.88,-275.03"/>
</a>
</g>
</g>
<!-- Node16 -->
<g id="Node000016" class="node">
<title>Node16</title>
<g id="a_Node000016"><a xlink:href="../../d6/d30/classnlohmann_1_1detail_1_1binary__reader.html#a545a44ae4b3fa2b7a61d9e8517fb7154" target="_top" xlink:title="reads a CBOR string">
<polygon fill="white" stroke="#666666" points="611.88,-267.95 490.88,-267.95 490.88,-237.45 611.88,-237.45 611.88,-267.95"/>
<text text-anchor="start" x="498.88" y="-254.45" font-family="Helvetica,sans-Serif" font-size="10.00">nlohmann::detail::binary</text>
<text text-anchor="middle" x="551.38" y="-243.2" font-family="Helvetica,sans-Serif" font-size="10.00">_reader::get_cbor_string</text>
</a>
</g>
</g>
<!-- Node3&#45;&gt;Node16 -->
<g id="edge40_Node000003_Node000016" class="edge">
<title>Node3&#45;&gt;Node16</title>
<g id="a_edge40_Node000003_Node000016"><a xlink:title=" ">
<path fill="none" stroke="#63b8ff" d="M294.78,-304.66C340.1,-297.69 400.66,-287.71 453.75,-276.7 462.23,-274.94 471.1,-272.95 479.87,-270.89"/>
<polygon fill="#63b8ff" stroke="#63b8ff" points="480.58,-274.08 489.49,-268.35 478.95,-267.27 480.58,-274.08"/>
</a>
</g>
</g>
<!-- Node5 -->
<g id="Node000005" class="node">
<title>Node5</title>
<g id="a_Node000005"><a xlink:href="../../de/df2/classnlohmann_1_1detail_1_1exception.html#aa353a7dba4fd179f7224b8a2a238a264" target="_top" xlink:title=" ">
<polygon fill="white" stroke="#666666" points="1279.25,-407.95 1144,-407.95 1144,-377.45 1279.25,-377.45 1279.25,-407.95"/>
<text text-anchor="start" x="1152" y="-394.45" font-family="Helvetica,sans-Serif" font-size="10.00">nlohmann::detail::exception</text>
<text text-anchor="middle" x="1211.62" y="-383.2" font-family="Helvetica,sans-Serif" font-size="10.00">::diagnostics</text>
</a>
</g>
</g>
<!-- Node4&#45;&gt;Node5 -->
<g id="edge4_Node000004_Node000005" class="edge">
<title>Node4&#45;&gt;Node5</title>
<g id="a_edge4_Node000004_Node000005"><a xlink:title=" ">
<path fill="none" stroke="#63b8ff" d="M1093.35,-359.34C1109.74,-364 1127.87,-369.16 1144.87,-374"/>
<polygon fill="#63b8ff" stroke="#63b8ff" points="1143.71,-377.59 1154.29,-376.96 1145.63,-370.86 1143.71,-377.59"/>
</a>
</g>
</g>
<!-- Node6 -->
<g id="Node000006" class="node">
<title>Node6</title>
<g id="a_Node000006"><a xlink:href="../../de/df2/classnlohmann_1_1detail_1_1exception.html#abf41a7e9178356314082284e6cfea278" target="_top" xlink:title=" ">
<polygon fill="white" stroke="#666666" points="1279.25,-358.95 1144,-358.95 1144,-328.45 1279.25,-328.45 1279.25,-358.95"/>
<text text-anchor="start" x="1152" y="-345.45" font-family="Helvetica,sans-Serif" font-size="10.00">nlohmann::detail::exception</text>
<text text-anchor="middle" x="1211.62" y="-334.2" font-family="Helvetica,sans-Serif" font-size="10.00">::name</text>
</a>
</g>
</g>
<!-- Node4&#45;&gt;Node6 -->
<g id="edge5_Node000004_Node000006" class="edge">
<title>Node4&#45;&gt;Node6</title>
<g id="a_edge5_Node000004_Node000006"><a xlink:title=" ">
<path fill="none" stroke="#63b8ff" d="M1096.21,-343.7C1108,-343.7 1120.59,-343.7 1132.95,-343.7"/>
<polygon fill="#63b8ff" stroke="#63b8ff" points="1132.72,-347.2 1142.72,-343.7 1132.72,-340.2 1132.72,-347.2"/>
</a>
</g>
</g>
<!-- Node7 -->
<g id="Node000007" class="node">
<title>Node7</title>
<g id="a_Node000007"><a xlink:href="../../d5/d1a/classnlohmann_1_1detail_1_1parse__error.html#aefe74adeaa48781464ba2fd2ec63d221" target="_top" xlink:title=" ">
<polygon fill="white" stroke="#666666" points="1270.25,-309.95 1153,-309.95 1153,-279.45 1270.25,-279.45 1270.25,-309.95"/>
<text text-anchor="start" x="1161" y="-296.45" font-family="Helvetica,sans-Serif" font-size="10.00">nlohmann::detail::parse</text>
<text text-anchor="middle" x="1211.62" y="-285.2" font-family="Helvetica,sans-Serif" font-size="10.00">_error::position_string</text>
</a>
</g>
</g>
<!-- Node4&#45;&gt;Node7 -->
<g id="edge6_Node000004_Node000007" class="edge">
<title>Node4&#45;&gt;Node7</title>
<g id="a_edge6_Node000004_Node000007"><a xlink:title=" ">
<path fill="none" stroke="#63b8ff" d="M1093.35,-328.06C1109.74,-323.4 1127.87,-318.25 1144.87,-313.41"/>
<polygon fill="#63b8ff" stroke="#63b8ff" points="1145.63,-316.55 1154.29,-310.45 1143.71,-309.82 1145.63,-316.55"/>
</a>
</g>
</g>
<!-- Node10&#45;&gt;Node2 -->
<g id="edge14_Node000010_Node000002" class="edge">
<title>Node10&#45;&gt;Node2</title>
<g id="a_edge14_Node000010_Node000002"><a xlink:title=" ">
<path fill="none" stroke="#63b8ff" d="M613.27,-444.79C670.18,-439.15 750.05,-428.19 775.25,-409.7 827.68,-371.23 853.61,-295.03 864.1,-254.88"/>
<polygon fill="#63b8ff" stroke="#63b8ff" points="867.71,-255.89 866.72,-245.34 860.91,-254.2 867.71,-255.89"/>
</a>
</g>
</g>
<!-- Node10&#45;&gt;Node4 -->
<g id="edge12_Node000010_Node000004" class="edge">
<title>Node10&#45;&gt;Node4</title>
<g id="a_edge12_Node000010_Node000004"><a xlink:title=" ">
<path fill="none" stroke="#63b8ff" d="M568.89,-465.4C586.93,-481.37 617.48,-505.09 649,-514.7 702.67,-531.08 720.15,-525.28 775.25,-514.7 848.32,-500.67 868.94,-494.11 930.75,-452.7 965.89,-429.16 998.48,-392.3 1017.91,-368.07"/>
<polygon fill="#63b8ff" stroke="#63b8ff" points="1021.26,-370.48 1024.69,-360.45 1015.76,-366.15 1021.26,-370.48"/>
</a>
</g>
</g>
<!-- Node10&#45;&gt;Node8 -->
<g id="edge13_Node000010_Node000008" class="edge">
<title>Node10&#45;&gt;Node8</title>
<g id="a_edge13_Node000010_Node000008"><a xlink:title=" ">
<path fill="none" stroke="#63b8ff" d="M559.51,-465.19C572.76,-491.82 603.96,-545.48 649,-566.7 762.28,-620.07 808.9,-595.56 930.75,-566.7 956.83,-560.53 983.79,-546.85 1003.95,-534.94"/>
<polygon fill="#63b8ff" stroke="#63b8ff" points="1005.54,-537.47 1012.27,-529.28 1001.9,-531.48 1005.54,-537.47"/>
</a>
</g>
</g>
<!-- Node10&#45;&gt;Node10 -->
<g id="edge20_Node000010_Node000010" class="edge">
<title>Node10&#45;&gt;Node10</title>
<g id="a_edge20_Node000010_Node000010"><a xlink:title=" ">
<path fill="none" stroke="#63b8ff" d="M523.16,-465.44C517.4,-474.51 526.8,-482.95 551.38,-482.95 565.2,-482.95 574.22,-480.28 578.44,-476.33"/>
<polygon fill="#63b8ff" stroke="#63b8ff" points="582.03,-476.75 579.59,-466.44 575.06,-476.02 582.03,-476.75"/>
</a>
</g>
</g>
<!-- Node11 -->
<g id="Node000011" class="node">
<title>Node11</title>
<g id="a_Node000011"><a xlink:href="../../d6/d30/classnlohmann_1_1detail_1_1binary__reader.html#a55e13d567a53234573ab3833c0ca32e9" target="_top" xlink:title="create a byte array by reading bytes from the input">
<polygon fill="white" stroke="#666666" points="771.88,-486.95 652.38,-486.95 652.38,-456.45 771.88,-456.45 771.88,-486.95"/>
<text text-anchor="start" x="660.38" y="-473.45" font-family="Helvetica,sans-Serif" font-size="10.00">nlohmann::detail::binary</text>
<text text-anchor="middle" x="712.12" y="-462.2" font-family="Helvetica,sans-Serif" font-size="10.00">_reader::get_binary</text>
</a>
</g>
</g>
<!-- Node10&#45;&gt;Node11 -->
<g id="edge15_Node000010_Node000011" class="edge">
<title>Node10&#45;&gt;Node11</title>
<g id="a_edge15_Node000010_Node000011"><a xlink:title=" ">
<path fill="none" stroke="#63b8ff" d="M613.3,-458.15C622.41,-459.41 631.87,-460.72 641.15,-462.01"/>
<polygon fill="#63b8ff" stroke="#63b8ff" points="640.55,-465.59 650.93,-463.5 641.51,-458.66 640.55,-465.59"/>
</a>
</g>
</g>
<!-- Node10&#45;&gt;Node12 -->
<g id="edge25_Node000010_Node000012" class="edge">
<title>Node10&#45;&gt;Node12</title>
<g id="a_edge25_Node000010_Node000012"><a xlink:title=" ">
<path fill="none" stroke="#63b8ff" d="M577.09,-465.26C595.97,-476.18 623.08,-489.85 649,-495.7 703.73,-508.07 721.78,-512.7 775.25,-495.7 802.48,-487.05 828.61,-467.43 846.51,-451.64"/>
<polygon fill="#63b8ff" stroke="#63b8ff" points="848.57,-454.59 853.6,-445.27 843.85,-449.41 848.57,-454.59"/>
</a>
</g>
</g>
<!-- Node10&#45;&gt;Node13 -->
<g id="edge21_Node000010_Node000013" class="edge">
<title>Node10&#45;&gt;Node13</title>
<g id="a_edge21_Node000010_Node000013"><a xlink:title=" ">
<path fill="none" stroke="#63b8ff" d="M591.21,-434.05C612.54,-425.45 639.22,-414.69 661.99,-405.51"/>
<polygon fill="#63b8ff" stroke="#63b8ff" points="663.18,-408.4 671.14,-401.42 660.56,-401.91 663.18,-408.4"/>
</a>
</g>
</g>
<!-- Node10&#45;&gt;Node14 -->
<g id="edge24_Node000010_Node000014" class="edge">
<title>Node10&#45;&gt;Node14</title>
<g id="a_edge24_Node000010_Node000014"><a xlink:title=" ">
<path fill="none" stroke="#63b8ff" d="M566.08,-434.2C583.69,-415.05 615.95,-382.45 649,-361.7 651.45,-360.16 654.02,-358.68 656.65,-357.27"/>
<polygon fill="#63b8ff" stroke="#63b8ff" points="657.98,-360.02 665.39,-352.45 654.87,-353.75 657.98,-360.02"/>
</a>
</g>
</g>
<!-- Node11&#45;&gt;Node2 -->
<g id="edge16_Node000011_Node000002" class="edge">
<title>Node11&#45;&gt;Node2</title>
<g id="a_edge16_Node000011_Node000002"><a xlink:title=" ">
<path fill="none" stroke="#63b8ff" d="M757.18,-456.06C763.78,-452.39 770.08,-447.97 775.25,-442.7 828.51,-388.37 854.55,-299.01 864.7,-254.95"/>
<polygon fill="#63b8ff" stroke="#63b8ff" points="868.31,-255.8 867.04,-245.28 861.48,-254.29 868.31,-255.8"/>
</a>
</g>
</g>
<!-- Node11&#45;&gt;Node12 -->
<g id="edge17_Node000011_Node000012" class="edge">
<title>Node11&#45;&gt;Node12</title>
<g id="a_edge17_Node000011_Node000012"><a xlink:title=" ">
<path fill="none" stroke="#63b8ff" d="M770.2,-456.06C780.59,-453.21 791.51,-450.22 802.16,-447.3"/>
<polygon fill="#63b8ff" stroke="#63b8ff" points="802.98,-450.43 811.7,-444.41 801.13,-443.68 802.98,-450.43"/>
</a>
</g>
</g>
<!-- Node12&#45;&gt;Node4 -->
<g id="edge18_Node000012_Node000004" class="edge">
<title>Node12&#45;&gt;Node4</title>
<g id="a_edge18_Node000012_Node000004"><a xlink:title=" ">
<path fill="none" stroke="#63b8ff" d="M902.15,-413.11C928.71,-399.38 967.6,-379.27 996.68,-364.23"/>
<polygon fill="#63b8ff" stroke="#63b8ff" points="997.86,-367.04 1005.14,-359.34 994.65,-360.82 997.86,-367.04"/>
</a>
</g>
</g>
<!-- Node12&#45;&gt;Node8 -->
<g id="edge19_Node000012_Node000008" class="edge">
<title>Node12&#45;&gt;Node8</title>
<g id="a_edge19_Node000012_Node000008"><a xlink:title=" ">
<path fill="none" stroke="#63b8ff" d="M902.15,-444.29C928.71,-458.03 967.6,-478.14 996.68,-493.18"/>
<polygon fill="#63b8ff" stroke="#63b8ff" points="994.65,-496.58 1005.14,-498.07 997.86,-490.37 994.65,-496.58"/>
</a>
</g>
</g>
<!-- Node13&#45;&gt;Node2 -->
<g id="edge22_Node000013_Node000002" class="edge">
<title>Node13&#45;&gt;Node2</title>
<g id="a_edge22_Node000013_Node000002"><a xlink:title=" ">
<path fill="none" stroke="#63b8ff" d="M760.5,-370C765.73,-367.31 770.77,-364.22 775.25,-360.7 812.77,-331.26 842.06,-283.13 857.62,-253.84"/>
<polygon fill="#63b8ff" stroke="#63b8ff" points="861.06,-255.82 862.55,-245.33 854.84,-252.6 861.06,-255.82"/>
</a>
</g>
</g>
<!-- Node13&#45;&gt;Node12 -->
<g id="edge23_Node000013_Node000012" class="edge">
<title>Node13&#45;&gt;Node12</title>
<g id="a_edge23_Node000013_Node000012"><a xlink:title=" ">
<path fill="none" stroke="#63b8ff" d="M770.2,-401.35C780.59,-404.19 791.51,-407.19 802.16,-410.11"/>
<polygon fill="#63b8ff" stroke="#63b8ff" points="801.13,-413.73 811.7,-413 802.98,-406.98 801.13,-413.73"/>
</a>
</g>
</g>
<!-- Node15&#45;&gt;Node2 -->
<g id="edge27_Node000015_Node000002" class="edge">
<title>Node15&#45;&gt;Node2</title>
<g id="a_edge27_Node000015_Node000002"><a xlink:title=" ">
<path fill="none" stroke="#63b8ff" d="M449.24,-237.01C462.44,-233.81 476.52,-230.79 489.75,-228.7 615.19,-208.95 648.48,-210.37 775.25,-217.7 783.3,-218.17 791.71,-218.85 800.06,-219.66"/>
<polygon fill="#63b8ff" stroke="#63b8ff" points="799.65,-223.24 809.96,-220.78 800.37,-216.28 799.65,-223.24"/>
</a>
</g>
</g>
<!-- Node15&#45;&gt;Node3 -->
<g id="edge39_Node000015_Node000003" class="edge">
<title>Node15&#45;&gt;Node3</title>
<g id="a_edge39_Node000015_Node000003"><a xlink:title=" ">
<path fill="none" stroke="#63b8ff" d="M363.32,-268.34C344.67,-276.61 319.21,-286.66 295.28,-295.36"/>
<polygon fill="#63b8ff" stroke="#63b8ff" points="294.38,-292.33 286.15,-299 296.74,-298.91 294.38,-292.33"/>
</a>
</g>
</g>
<!-- Node15&#45;&gt;Node16 -->
<g id="edge28_Node000015_Node000016" class="edge">
<title>Node15&#45;&gt;Node16</title>
<g id="a_edge28_Node000015_Node000016"><a xlink:title=" ">
<path fill="none" stroke="#63b8ff" d="M453.92,-252.7C462.37,-252.7 471.11,-252.7 479.71,-252.7"/>
<polygon fill="#63b8ff" stroke="#63b8ff" points="479.52,-256.2 489.52,-252.7 479.52,-249.2 479.52,-256.2"/>
</a>
</g>
</g>
<!-- Node16&#45;&gt;Node2 -->
<g id="edge31_Node000016_Node000002" class="edge">
<title>Node16&#45;&gt;Node2</title>
<g id="a_edge31_Node000016_Node000002"><a xlink:title=" ">
<path fill="none" stroke="#63b8ff" d="M600.53,-237.08C615.85,-232.83 632.98,-228.82 649,-226.7 699.32,-220.05 756.65,-220.81 800.31,-223.09"/>
<polygon fill="#63b8ff" stroke="#63b8ff" points="799.92,-226.63 810.1,-223.7 800.31,-219.64 799.92,-226.63"/>
</a>
</g>
</g>
<!-- Node16&#45;&gt;Node4 -->
<g id="edge29_Node000016_Node000004" class="edge">
<title>Node16&#45;&gt;Node4</title>
<g id="a_edge29_Node000016_Node000004"><a xlink:title=" ">
<path fill="none" stroke="#63b8ff" d="M557.88,-237.28C569.42,-207.61 599.27,-143.26 649,-117.7 760.37,-60.46 825.11,-50.47 930.75,-117.7 1001.28,-162.59 1025.5,-268.27 1033.15,-317.55"/>
<polygon fill="#63b8ff" stroke="#63b8ff" points="1029.8,-317.85 1034.68,-327.26 1036.73,-316.86 1029.8,-317.85"/>
</a>
</g>
</g>
<!-- Node16&#45;&gt;Node8 -->
<g id="edge30_Node000016_Node000008" class="edge">
<title>Node16&#45;&gt;Node8</title>
<g id="a_edge30_Node000016_Node000008"><a xlink:title=" ">
<path fill="none" stroke="#63b8ff" d="M580.08,-236.96C648.13,-200.62 825.56,-120.21 930.75,-204.7 988.59,-251.16 942.63,-297.54 966.75,-367.7 981.88,-411.69 1006.58,-459.89 1022.13,-488.42"/>
<polygon fill="#63b8ff" stroke="#63b8ff" points="1019.52,-489.94 1027.41,-497 1025.65,-486.56 1019.52,-489.94"/>
</a>
</g>
</g>
<!-- Node16&#45;&gt;Node12 -->
<g id="edge38_Node000016_Node000012" class="edge">
<title>Node16&#45;&gt;Node12</title>
<g id="a_edge38_Node000016_Node000012"><a xlink:title=" ">
<path fill="none" stroke="#63b8ff" d="M612.14,-266.79C673.33,-281.53 761.42,-303.75 775.25,-312.7 811.25,-336.01 840.19,-377.43 856.23,-403.95"/>
<polygon fill="#63b8ff" stroke="#63b8ff" points="853.65,-405.47 861.73,-412.32 859.68,-401.93 853.65,-405.47"/>
</a>
</g>
</g>
<!-- Node16&#45;&gt;Node13 -->
<g id="edge33_Node000016_Node000013" class="edge">
<title>Node16&#45;&gt;Node13</title>
<g id="a_edge33_Node000016_Node000013"><a xlink:title=" ">
<path fill="none" stroke="#63b8ff" d="M562.8,-268.35C578.85,-291.39 611.72,-334.55 649,-360.7 651.09,-362.17 653.27,-363.57 655.53,-364.9"/>
<polygon fill="#63b8ff" stroke="#63b8ff" points="653.61,-368.37 664.08,-369.99 656.9,-362.2 653.61,-368.37"/>
</a>
</g>
</g>
<!-- Node16&#45;&gt;Node14 -->
<g id="edge37_Node000016_Node000014" class="edge">
<title>Node16&#45;&gt;Node14</title>
<g id="a_edge37_Node000016_Node000014"><a xlink:title=" ">
<path fill="none" stroke="#63b8ff" d="M578.31,-268.22C597.59,-279.57 624.65,-295.12 649,-307.7 654.62,-310.61 660.59,-313.56 666.51,-316.41"/>
<polygon fill="#63b8ff" stroke="#63b8ff" points="664.85,-319.97 675.38,-321.09 667.84,-313.64 664.85,-319.97"/>
</a>
</g>
</g>
<!-- Node16&#45;&gt;Node16 -->
<g id="edge32_Node000016_Node000016" class="edge">
<title>Node16&#45;&gt;Node16</title>
<g id="a_edge32_Node000016_Node000016"><a xlink:title=" ">
<path fill="none" stroke="#63b8ff" d="M523.16,-268.44C517.4,-277.51 526.8,-285.95 551.38,-285.95 565.2,-285.95 574.22,-283.28 578.44,-279.33"/>
<polygon fill="#63b8ff" stroke="#63b8ff" points="582.03,-279.75 579.59,-269.44 575.06,-279.02 582.03,-279.75"/>
</a>
</g>
</g>
<!-- Node17 -->
<g id="Node000017" class="node">
<title>Node17</title>
<g id="a_Node000017"><a xlink:href="../../d6/d30/classnlohmann_1_1detail_1_1binary__reader.html#a540919db22df36512f05a88945c13263" target="_top" xlink:title="create a string by reading characters from the input">
<polygon fill="white" stroke="#666666" points="771.88,-265.95 652.38,-265.95 652.38,-235.45 771.88,-235.45 771.88,-265.95"/>
<text text-anchor="start" x="660.38" y="-252.45" font-family="Helvetica,sans-Serif" font-size="10.00">nlohmann::detail::binary</text>
<text text-anchor="middle" x="712.12" y="-241.2" font-family="Helvetica,sans-Serif" font-size="10.00">_reader::get_string</text>
</a>
</g>
</g>
<!-- Node16&#45;&gt;Node17 -->
<g id="edge34_Node000016_Node000017" class="edge">
<title>Node16&#45;&gt;Node17</title>
<g id="a_edge34_Node000016_Node000017"><a xlink:title=" ">
<path fill="none" stroke="#63b8ff" d="M611.94,-251.95C621.46,-251.83 631.39,-251.71 641.13,-251.58"/>
<polygon fill="#63b8ff" stroke="#63b8ff" points="641.06,-255.07 651.02,-251.45 640.98,-248.07 641.06,-255.07"/>
</a>
</g>
</g>
<!-- Node17&#45;&gt;Node2 -->
<g id="edge35_Node000017_Node000002" class="edge">
<title>Node17&#45;&gt;Node2</title>
<g id="a_edge35_Node000017_Node000002"><a xlink:title=" ">
<path fill="none" stroke="#63b8ff" d="M771.99,-242.45C781.11,-241.17 790.61,-239.84 799.95,-238.53"/>
<polygon fill="#63b8ff" stroke="#63b8ff" points="800.39,-241.86 809.81,-237 799.42,-234.93 800.39,-241.86"/>
</a>
</g>
</g>
<!-- Node17&#45;&gt;Node12 -->
<g id="edge36_Node000017_Node000012" class="edge">
<title>Node17&#45;&gt;Node12</title>
<g id="a_edge36_Node000017_Node000012"><a xlink:title=" ">
<path fill="none" stroke="#63b8ff" d="M755.24,-266.35C762.36,-270.08 769.35,-274.52 775.25,-279.7 815.19,-314.78 844.5,-370.7 859.25,-403.13"/>
<polygon fill="#63b8ff" stroke="#63b8ff" points="856.44,-404.44 863.69,-412.17 862.84,-401.6 856.44,-404.44"/>
</a>
</g>
</g>
</g>
</svg>
