<?xml version="1.0" encoding="UTF-8" standalone="no"?>
<!DOCTYPE svg PUBLIC "-//W3C//DTD SVG 1.1//EN"
 "http://www.w3.org/Graphics/SVG/1.1/DTD/svg11.dtd">
<!-- Generated by graphviz version 8.1.0 (20230707.0739)
 -->
<!-- Title: CBaseException::ShowExceptionInformation Pages: 1 -->
<!--zoomable 266 -->

<svg id="main" version="1.1" xmlns="http://www.w3.org/2000/svg" xmlns:xlink="http://www.w3.org/1999/xlink" xml:space="preserve" onload="init(evt)">
<style type="text/css"><![CDATA[
.node, .edge {opacity: 0.7;}
.node.selected, .edge.selected {opacity: 1;}
.edge:hover path { stroke: red; }
.edge:hover polygon { stroke: red; fill: red; }
]]></style>

<defs>
  <circle id="rim" cx="0" cy="0" r="7"/>
  <circle id="rim2" cx="0" cy="0" r="3.5"/>
  <g id="zoomPlus">
    <use xlink:href="#rim" fill="#404040"><set attributeName="fill" to="#808080" begin="zoomplus.mouseover" end="zoomplus.mouseout"/></use>
    <path d="M-4,0h8M0,-4v8" fill="none" stroke="white" stroke-width="1.5" pointer-events="none"/>
  </g>
  <g id="zoomMin">
    <use xlink:href="#rim" fill="#404040"><set attributeName="fill" to="#808080" begin="zoomminus.mouseover" end="zoomminus.mouseout"/></use>
    <path d="M-4,0h8" fill="none" stroke="white" stroke-width="1.5" pointer-events="none"/>
  </g>
  <g id="arrowUp" transform="translate(30 24)">
    <use xlink:href="#rim"/>
    <path pointer-events="none" fill="none" stroke="white" stroke-width="1.5" d="M0,-3.0v7 M-2.5,-0.5L0,-3.0L2.5,-0.5"/>
  </g>
  <g id="arrowRight" transform="rotate(90) translate(36 -43)">
    <use xlink:href="#rim"/>
    <path pointer-events="none" fill="none" stroke="white" stroke-width="1.5" d="M0,-3.0v7 M-2.5,-0.5L0,-3.0L2.5,-0.5"/>
  </g>
  <g id="arrowDown" transform="rotate(180) translate(-30 -48)">
    <use xlink:href="#rim"/>
    <path pointer-events="none" fill="none" stroke="white" stroke-width="1.5" d="M0,-3.0v7 M-2.5,-0.5L0,-3.0L2.5,-0.5"/>
  </g>
  <g id="arrowLeft" transform="rotate(270) translate(-36 17)">
    <use xlink:href="#rim"/>
    <path pointer-events="none" fill="none" stroke="white" stroke-width="1.5" d="M0,-3.0v7 M-2.5,-0.5L0,-3.0L2.5,-0.5"/>
  </g>
  <g id="resetDef">
    <use xlink:href="#rim2" fill="#404040"><set attributeName="fill" to="#808080" begin="reset.mouseover" end="reset.mouseout"/></use>
  </g>
</defs>
<script type="application/ecmascript">
var viewWidth = 767;
var viewHeight = 266;
var sectionId = 'dynsection-20';
</script>
<script type="application/ecmascript" xlink:href="../../svg.min.js"/>
<svg id="graph" class="graph">
<g id="viewport">
<title>CBaseException::ShowExceptionInformation</title>
<!-- Node1 -->
<g id="Node000001" class="node">
<title>Node1</title>
<g id="a_Node000001"><a xlink:title=" ">
<polygon fill="#999999" stroke="#666666" points="163.75,-171.88 0,-171.88 0,-141.38 163.75,-141.38 163.75,-171.88"/>
<text text-anchor="start" x="8" y="-158.38" font-family="Helvetica,sans-Serif" font-size="10.00">CBaseException::ShowException</text>
<text text-anchor="middle" x="81.88" y="-147.12" font-family="Helvetica,sans-Serif" font-size="10.00">Information</text>
</a>
</g>
</g>
<!-- Node2 -->
<g id="Node000002" class="node">
<title>Node2</title>
<g id="a_Node000002"><a xlink:href="../../db/d43/class_c_base_exception.html#a3a47fa512eb5dbdb35f9a6305eeb1e12" target="_top" xlink:title=" ">
<polygon fill="white" stroke="#666666" points="352.62,-257.88 210.62,-257.88 210.62,-227.38 352.62,-227.38 352.62,-257.88"/>
<text text-anchor="start" x="218.62" y="-244.38" font-family="Helvetica,sans-Serif" font-size="10.00">CBaseException::GetLogical</text>
<text text-anchor="middle" x="281.62" y="-233.12" font-family="Helvetica,sans-Serif" font-size="10.00">Address</text>
</a>
</g>
</g>
<!-- Node1&#45;&gt;Node2 -->
<g id="edge1_Node000001_Node000002" class="edge">
<title>Node1&#45;&gt;Node2</title>
<g id="a_edge1_Node000001_Node000002"><a xlink:title=" ">
<path fill="none" stroke="#63b8ff" d="M112.73,-172.31C136.1,-184.31 169.59,-200.91 199.75,-213.62 207.48,-216.88 215.72,-220.11 223.87,-223.16"/>
<polygon fill="#63b8ff" stroke="#63b8ff" points="222.51,-226.76 233.1,-226.93 224.92,-220.19 222.51,-226.76"/>
</a>
</g>
</g>
<!-- Node4 -->
<g id="Node000004" class="node">
<title>Node4</title>
<g id="a_Node000004"><a xlink:href="../../db/d43/class_c_base_exception.html#a89f238685ea8e30fd2bd133686294336" target="_top" xlink:title=" ">
<polygon fill="white" stroke="#666666" points="566.62,-148.25 416.38,-148.25 416.38,-129 566.62,-129 566.62,-148.25"/>
<text text-anchor="middle" x="491.5" y="-134.75" font-family="Helvetica,sans-Serif" font-size="10.00">CBaseException::OutputString</text>
</a>
</g>
</g>
<!-- Node1&#45;&gt;Node4 -->
<g id="edge3_Node000001_Node000004" class="edge">
<title>Node1&#45;&gt;Node4</title>
<g id="a_edge3_Node000001_Node000004"><a xlink:title=" ">
<path fill="none" stroke="#63b8ff" d="M147.73,-172.37C164.57,-175.79 182.75,-178.9 199.75,-180.62 272.15,-187.98 291.65,-192.2 363.5,-180.62 396.4,-175.33 432.32,-162.77 457.54,-152.76"/>
<polygon fill="#63b8ff" stroke="#63b8ff" points="458.7,-155.66 466.65,-148.65 456.07,-149.17 458.7,-155.66"/>
</a>
</g>
</g>
<!-- Node5 -->
<g id="Node000005" class="node">
<title>Node5</title>
<g id="a_Node000005"><a xlink:href="../../db/d43/class_c_base_exception.html#ab791392172130ace8c0d8517fb5b9c3b" target="_top" xlink:title=" ">
<polygon fill="white" stroke="#666666" points="362.38,-74.25 200.88,-74.25 200.88,-55 362.38,-55 362.38,-74.25"/>
<text text-anchor="middle" x="281.62" y="-60.75" font-family="Helvetica,sans-Serif" font-size="10.00">CBaseException::ShowCallstack</text>
</a>
</g>
</g>
<!-- Node1&#45;&gt;Node5 -->
<g id="edge4_Node000001_Node000005" class="edge">
<title>Node1&#45;&gt;Node5</title>
<g id="a_edge4_Node000001_Node000005"><a xlink:title=" ">
<path fill="none" stroke="#63b8ff" d="M103.28,-140.96C125.75,-124.42 163.53,-98.71 199.75,-83.62 205.08,-81.41 210.71,-79.42 216.43,-77.64"/>
<polygon fill="#63b8ff" stroke="#63b8ff" points="217.12,-80.8 225.77,-74.67 215.19,-74.07 217.12,-80.8"/>
</a>
</g>
</g>
<!-- Node11 -->
<g id="Node000011" class="node">
<title>Node11</title>
<g id="a_Node000011"><a xlink:href="../../db/d43/class_c_base_exception.html#a1b057f484fb518f4f481e84c441b5a1d" target="_top" xlink:title=" ">
<polygon fill="white" stroke="#666666" points="363.5,-171.88 199.75,-171.88 199.75,-141.38 363.5,-141.38 363.5,-171.88"/>
<text text-anchor="start" x="207.75" y="-158.38" font-family="Helvetica,sans-Serif" font-size="10.00">CBaseException::ShowException</text>
<text text-anchor="middle" x="281.62" y="-147.12" font-family="Helvetica,sans-Serif" font-size="10.00">Resoult</text>
</a>
</g>
</g>
<!-- Node1&#45;&gt;Node11 -->
<g id="edge11_Node000001_Node000011" class="edge">
<title>Node1&#45;&gt;Node11</title>
<g id="a_edge11_Node000001_Node000011"><a xlink:title=" ">
<path fill="none" stroke="#63b8ff" d="M164.16,-156.62C172.15,-156.62 180.29,-156.62 188.37,-156.62"/>
<polygon fill="#63b8ff" stroke="#63b8ff" points="188.33,-160.13 198.33,-156.62 188.33,-153.13 188.33,-160.13"/>
</a>
</g>
</g>
<!-- Node12 -->
<g id="Node000012" class="node">
<title>Node12</title>
<g id="a_Node000012"><a xlink:href="../../db/d43/class_c_base_exception.html#a41ec5a6a7695f8bbcd48f310d5094deb" target="_top" xlink:title=" ">
<polygon fill="white" stroke="#666666" points="360.12,-122.88 203.12,-122.88 203.12,-92.38 360.12,-92.38 360.12,-122.88"/>
<text text-anchor="start" x="211.12" y="-109.38" font-family="Helvetica,sans-Serif" font-size="10.00">CBaseException::ShowRegistor</text>
<text text-anchor="middle" x="281.62" y="-98.12" font-family="Helvetica,sans-Serif" font-size="10.00">Information</text>
</a>
</g>
</g>
<!-- Node1&#45;&gt;Node12 -->
<g id="edge13_Node000001_Node000012" class="edge">
<title>Node1&#45;&gt;Node12</title>
<g id="a_edge13_Node000001_Node000012"><a xlink:title=" ">
<path fill="none" stroke="#63b8ff" d="M146.26,-140.92C165.51,-136.15 186.82,-130.87 206.7,-125.94"/>
<polygon fill="#63b8ff" stroke="#63b8ff" points="207.39,-129.13 216.26,-123.33 205.71,-122.33 207.39,-129.13"/>
</a>
</g>
</g>
<!-- Node3 -->
<g id="Node000003" class="node">
<title>Node3</title>
<g id="a_Node000003"><a xlink:href="../../df/db1/math_8h.html#a5083c48fbfb60dd70808789479f4db53" target="_top" xlink:title=" ">
<polygon fill="white" stroke="#666666" points="508.88,-252.25 474.12,-252.25 474.12,-233 508.88,-233 508.88,-252.25"/>
<text text-anchor="middle" x="491.5" y="-238.75" font-family="Helvetica,sans-Serif" font-size="10.00">max</text>
</a>
</g>
</g>
<!-- Node2&#45;&gt;Node3 -->
<g id="edge2_Node000002_Node000003" class="edge">
<title>Node2&#45;&gt;Node3</title>
<g id="a_edge2_Node000002_Node000003"><a xlink:title=" ">
<path fill="none" stroke="#63b8ff" d="M353,-242.62C390.72,-242.62 435.05,-242.62 462.96,-242.62"/>
<polygon fill="#63b8ff" stroke="#63b8ff" points="462.85,-246.13 472.85,-242.62 462.85,-239.13 462.85,-246.13"/>
</a>
</g>
</g>
<!-- Node5&#45;&gt;Node4 -->
<g id="edge7_Node000005_Node000004" class="edge">
<title>Node5&#45;&gt;Node4</title>
<g id="a_edge7_Node000005_Node000004"><a xlink:title=" ">
<path fill="none" stroke="#63b8ff" d="M334.12,-74.64C344.01,-77.15 354.18,-80.14 363.5,-83.62 380.44,-89.97 383.06,-95.06 399.5,-102.62 416.76,-110.56 436.3,-118.43 452.83,-124.78"/>
<polygon fill="#63b8ff" stroke="#63b8ff" points="451.1,-128.25 461.69,-128.52 453.59,-121.7 451.1,-128.25"/>
</a>
</g>
</g>
<!-- Node6 -->
<g id="Node000006" class="node">
<title>Node6</title>
<g id="a_Node000006"><a xlink:href="../../d0/dfa/class_c_stack_walker.html#aa8b31a3b09697f2120c2e3a7971bacf8" target="_top" xlink:title=" ">
<polygon fill="white" stroke="#666666" points="583.5,-93.25 399.5,-93.25 399.5,-74 583.5,-74 583.5,-93.25"/>
<text text-anchor="middle" x="491.5" y="-79.75" font-family="Helvetica,sans-Serif" font-size="10.00">CStackWalker::FreeStackInformations</text>
</a>
</g>
</g>
<!-- Node5&#45;&gt;Node6 -->
<g id="edge5_Node000005_Node000006" class="edge">
<title>Node5&#45;&gt;Node6</title>
<g id="a_edge5_Node000005_Node000006"><a xlink:title=" ">
<path fill="none" stroke="#63b8ff" d="M362.7,-71.94C371.06,-72.71 379.64,-73.49 388.21,-74.28"/>
<polygon fill="#63b8ff" stroke="#63b8ff" points="387.76,-77.84 398.03,-75.26 388.39,-70.87 387.76,-77.84"/>
</a>
</g>
</g>
<!-- Node8 -->
<g id="Node000008" class="node">
<title>Node8</title>
<g id="a_Node000008"><a xlink:href="../../d0/dfa/class_c_stack_walker.html#ab80212b368cdf71eab948559a876afba" target="_top" xlink:title=" ">
<polygon fill="white" stroke="#666666" points="561.75,-56.25 421.25,-56.25 421.25,-37 561.75,-37 561.75,-56.25"/>
<text text-anchor="middle" x="491.5" y="-42.75" font-family="Helvetica,sans-Serif" font-size="10.00">CStackWalker::StackWalker</text>
</a>
</g>
</g>
<!-- Node5&#45;&gt;Node8 -->
<g id="edge8_Node000005_Node000008" class="edge">
<title>Node5&#45;&gt;Node8</title>
<g id="a_edge8_Node000005_Node000008"><a xlink:title=" ">
<path fill="none" stroke="#63b8ff" d="M362.7,-57.69C378.31,-56.34 394.68,-54.92 410.3,-53.57"/>
<polygon fill="#63b8ff" stroke="#63b8ff" points="410.31,-57 419.97,-52.65 409.7,-50.02 410.31,-57"/>
</a>
</g>
</g>
<!-- Node7 -->
<g id="Node000007" class="node">
<title>Node7</title>
<g id="a_Node000007"><a xlink:href="../../d6/d4f/_block_methods_8h.html#a66cee6936cfa159827535f010684d973" target="_top" xlink:title="This is the const version of head(Index).">
<polygon fill="white" stroke="#666666" points="707.88,-93.25 670.88,-93.25 670.88,-74 707.88,-74 707.88,-93.25"/>
<text text-anchor="middle" x="689.38" y="-79.75" font-family="Helvetica,sans-Serif" font-size="10.00">head</text>
</a>
</g>
</g>
<!-- Node6&#45;&gt;Node7 -->
<g id="edge6_Node000006_Node000007" class="edge">
<title>Node6&#45;&gt;Node7</title>
<g id="a_edge6_Node000006_Node000007"><a xlink:title=" ">
<path fill="none" stroke="#63b8ff" d="M583.84,-83.62C611.36,-83.62 639.57,-83.62 659.74,-83.62"/>
<polygon fill="#63b8ff" stroke="#63b8ff" points="659.62,-87.13 669.62,-83.62 659.62,-80.13 659.62,-87.13"/>
</a>
</g>
</g>
<!-- Node9 -->
<g id="Node000009" class="node">
<title>Node9</title>
<g id="a_Node000009"><a xlink:href="../../d0/dfa/class_c_stack_walker.html#abd9de3f8f2359ea6aaa373cc7cc403d3" target="_top" xlink:title=" ">
<polygon fill="white" stroke="#666666" points="758.88,-56.25 619.88,-56.25 619.88,-37 758.88,-37 758.88,-56.25"/>
<text text-anchor="middle" x="689.38" y="-42.75" font-family="Helvetica,sans-Serif" font-size="10.00">CStackWalker::LoadSymbol</text>
</a>
</g>
</g>
<!-- Node8&#45;&gt;Node9 -->
<g id="edge9_Node000008_Node000009" class="edge">
<title>Node8&#45;&gt;Node9</title>
<g id="a_edge9_Node000008_Node000009"><a xlink:title=" ">
<path fill="none" stroke="#63b8ff" d="M562.11,-46.62C577.3,-46.62 593.48,-46.62 609.02,-46.62"/>
<polygon fill="#63b8ff" stroke="#63b8ff" points="608.65,-50.13 618.65,-46.62 608.65,-43.13 608.65,-50.13"/>
</a>
</g>
</g>
<!-- Node10 -->
<g id="Node000010" class="node">
<title>Node10</title>
<g id="a_Node000010"><a xlink:href="../../d0/dfa/class_c_stack_walker.html#abdb4c6f015346b0ea43195753179ba2d" target="_top" xlink:title=" ">
<polygon fill="white" stroke="#666666" points="759.25,-19.25 619.5,-19.25 619.5,0 759.25,0 759.25,-19.25"/>
<text text-anchor="middle" x="689.38" y="-5.75" font-family="Helvetica,sans-Serif" font-size="10.00">CStackWalker::OutputString</text>
</a>
</g>
</g>
<!-- Node8&#45;&gt;Node10 -->
<g id="edge10_Node000008_Node000010" class="edge">
<title>Node8&#45;&gt;Node10</title>
<g id="a_edge10_Node000008_Node000010"><a xlink:title=" ">
<path fill="none" stroke="#63b8ff" d="M546.02,-36.51C570.21,-31.95 598.97,-26.51 624.3,-21.73"/>
<polygon fill="#63b8ff" stroke="#63b8ff" points="624.74,-25.02 633.92,-19.72 623.44,-18.14 624.74,-25.02"/>
</a>
</g>
</g>
<!-- Node11&#45;&gt;Node4 -->
<g id="edge12_Node000011_Node000004" class="edge">
<title>Node11&#45;&gt;Node4</title>
<g id="a_edge12_Node000011_Node000004"><a xlink:title=" ">
<path fill="none" stroke="#63b8ff" d="M363.89,-149.59C377.46,-148.41 391.57,-147.19 405.23,-146.01"/>
<polygon fill="#63b8ff" stroke="#63b8ff" points="405.41,-149.42 415.07,-145.07 404.81,-142.45 405.41,-149.42"/>
</a>
</g>
</g>
<!-- Node12&#45;&gt;Node4 -->
<g id="edge14_Node000012_Node000004" class="edge">
<title>Node12&#45;&gt;Node4</title>
<g id="a_edge14_Node000012_Node000004"><a xlink:title=" ">
<path fill="none" stroke="#63b8ff" d="M360.62,-119.26C377.35,-121.75 395.03,-124.39 411.79,-126.89"/>
<polygon fill="#63b8ff" stroke="#63b8ff" points="411.24,-130.49 421.64,-128.51 412.27,-123.57 411.24,-130.49"/>
</a>
</g>
</g>
</g>
</svg>

<g id="navigator" transform="translate(0 0)" fill="#404254">
  <rect fill="#f2f5e9" fill-opacity="0.5" stroke="#606060" stroke-width=".5" x="0" y="0" width="60" height="60"/>
  <use id="zoomplus" xlink:href="#zoomPlus" x="17" y="9" onmousedown="handleZoom(evt,'in')"/>
  <use id="zoomminus" xlink:href="#zoomMin" x="42" y="9" onmousedown="handleZoom(evt,'out')"/>
  <use id="reset" xlink:href="#resetDef" x="30" y="36" onmousedown="handleReset()"/>
   <use id="arrowup" xlink:href="#arrowUp" x="0" y="0" onmousedown="handlePan(0,-1)"/>
  <use id="arrowright" xlink:href="#arrowRight" x="0" y="0" onmousedown="handlePan(1,0)"/>
  <use id="arrowdown" xlink:href="#arrowDown" x="0" y="0" onmousedown="handlePan(0,1)"/>
  <use id="arrowleft" xlink:href="#arrowLeft" x="0" y="0" onmousedown="handlePan(-1,0)"/>
</g>
<svg viewBox="0 0 15 15" width="100%" height="30px" preserveAspectRatio="xMaxYMin meet">
 <g id="arrow_out" transform="scale(0.3 0.3)">
  <a xlink:href="class_c_base_exception_a95104c1bbec8f0202ba7ad4eb89a0e0b_cgraph_org.svg" target="_base">
   <rect id="button" ry="5" rx="5" y="6" x="6" height="38" width="38"
        fill="#f2f5e9" fill-opacity="0.5" stroke="#606060" stroke-width="1.0"/>
   <path id="arrow"
     d="M 11.500037,31.436501 C 11.940474,20.09759 22.043105,11.32322 32.158766,21.979434 L 37.068811,17.246167 C 37.068811,17.246167 37.088388,32 37.088388,32 L 22.160133,31.978069 C 22.160133,31.978069 26.997745,27.140456 26.997745,27.140456 C 18.528582,18.264221 13.291696,25.230495 11.500037,31.436501 z"
     style="fill:#404040;"/>
  </a>
 </g>
</svg>

<style type='text/css'>
<![CDATA[
[data-mouse-over-selected='false'] { opacity: 0.7; }
[data-mouse-over-selected='true']  { opacity: 1.0; }
]]>
</style>
<script type="application/ecmascript"><![CDATA[
document.addEventListener('DOMContentLoaded', (event) => {
  highlightEdges();
  highlightAdjacentNodes();
});
]]></script>
</svg>
