<?xml version="1.0" encoding="UTF-8" standalone="no"?>
<!DOCTYPE svg PUBLIC "-//W3C//DTD SVG 1.1//EN"
 "http://www.w3.org/Graphics/SVG/1.1/DTD/svg11.dtd">
<!-- Generated by graphviz version 8.1.0 (20230707.0739)
 -->
<!-- Title: Slic3r::GUI::GLGizmoPainterBase::bounding_box Pages: 1 -->
<svg width="319pt" height="186pt"
 viewBox="0.00 0.00 319.00 185.50" xmlns="http://www.w3.org/2000/svg" xmlns:xlink="http://www.w3.org/1999/xlink">
<g id="graph0" class="graph" transform="scale(1 1) rotate(0) translate(4 181.5)">
<title>Slic3r::GUI::GLGizmoPainterBase::bounding_box</title>
<!-- Node1 -->
<g id="Node000001" class="node">
<title>Node1</title>
<g id="a_Node000001"><a xlink:title=" ">
<polygon fill="#999999" stroke="#666666" points="142.75,-103.5 0,-103.5 0,-73 142.75,-73 142.75,-103.5"/>
<text text-anchor="start" x="8" y="-90" font-family="Helvetica,sans-Serif" font-size="10.00">Slic3r::GUI::GLGizmoPainter</text>
<text text-anchor="middle" x="71.38" y="-78.75" font-family="Helvetica,sans-Serif" font-size="10.00">Base::bounding_box</text>
</a>
</g>
</g>
<!-- Node2 -->
<g id="Node000002" class="node">
<title>Node2</title>
<g id="a_Node000002"><a xlink:href="../../d0/d2b/class_slic3r_1_1_g_u_i_1_1_g_l_canvas3_d.html#ae78f5459f862198d84d3624697bc190e" target="_top" xlink:title=" ">
<polygon fill="white" stroke="#666666" points="309.88,-177.5 179.88,-177.5 179.88,-147 309.88,-147 309.88,-177.5"/>
<text text-anchor="start" x="187.88" y="-164" font-family="Helvetica,sans-Serif" font-size="10.00">Slic3r::GUI::GLCanvas3D</text>
<text text-anchor="middle" x="244.88" y="-152.75" font-family="Helvetica,sans-Serif" font-size="10.00">::get_selection</text>
</a>
</g>
</g>
<!-- Node1&#45;&gt;Node2 -->
<g id="edge1_Node000001_Node000002" class="edge">
<title>Node1&#45;&gt;Node2</title>
<g id="a_edge1_Node000001_Node000002"><a xlink:title=" ">
<path fill="none" stroke="#63b8ff" d="M104.72,-103.81C125.68,-113.73 153.64,-126.66 178.75,-137.25 182.89,-139 187.2,-140.76 191.55,-142.51"/>
<polygon fill="#63b8ff" stroke="#63b8ff" points="190.09,-146.09 200.67,-146.51 192.66,-139.58 190.09,-146.09"/>
</a>
</g>
</g>
<!-- Node3 -->
<g id="Node000003" class="node">
<title>Node3</title>
<g id="a_Node000003"><a xlink:href="../../dd/d6a/class_slic3r_1_1_g_u_i_1_1_selection.html#af379db68a9412c6edca1cb54a210de2a" target="_top" xlink:title=" ">
<polygon fill="white" stroke="#666666" points="300.5,-128.5 189.25,-128.5 189.25,-98 300.5,-98 300.5,-128.5"/>
<text text-anchor="start" x="197.25" y="-115" font-family="Helvetica,sans-Serif" font-size="10.00">Slic3r::GUI::Selection</text>
<text text-anchor="middle" x="244.88" y="-103.75" font-family="Helvetica,sans-Serif" font-size="10.00">::get_volume</text>
</a>
</g>
</g>
<!-- Node1&#45;&gt;Node3 -->
<g id="edge2_Node000001_Node000003" class="edge">
<title>Node1&#45;&gt;Node3</title>
<g id="a_edge2_Node000001_Node000003"><a xlink:title=" ">
<path fill="none" stroke="#63b8ff" d="M143.12,-98.56C154.73,-100.25 166.71,-102 178.19,-103.68"/>
<polygon fill="#63b8ff" stroke="#63b8ff" points="177.61,-107.27 188.01,-105.25 178.62,-100.35 177.61,-107.27"/>
</a>
</g>
</g>
<!-- Node4 -->
<g id="Node000004" class="node">
<title>Node4</title>
<g id="a_Node000004"><a xlink:href="../../dd/d6a/class_slic3r_1_1_g_u_i_1_1_selection.html#a646ad325f6c6b260f044aa762ae615bb" target="_top" xlink:title=" ">
<polygon fill="white" stroke="#666666" points="300.5,-79.5 189.25,-79.5 189.25,-49 300.5,-49 300.5,-79.5"/>
<text text-anchor="start" x="197.25" y="-66" font-family="Helvetica,sans-Serif" font-size="10.00">Slic3r::GUI::Selection</text>
<text text-anchor="middle" x="244.88" y="-54.75" font-family="Helvetica,sans-Serif" font-size="10.00">::get_volume_idxs</text>
</a>
</g>
</g>
<!-- Node1&#45;&gt;Node4 -->
<g id="edge3_Node000001_Node000004" class="edge">
<title>Node1&#45;&gt;Node4</title>
<g id="a_edge3_Node000001_Node000004"><a xlink:title=" ">
<path fill="none" stroke="#63b8ff" d="M143.12,-78.35C154.73,-76.73 166.71,-75.05 178.19,-73.44"/>
<polygon fill="#63b8ff" stroke="#63b8ff" points="178.59,-76.78 188.01,-71.93 177.62,-69.85 178.59,-76.78"/>
</a>
</g>
</g>
<!-- Node5 -->
<g id="Node000005" class="node">
<title>Node5</title>
<g id="a_Node000005"><a xlink:href="../../da/d00/class_slic3r_1_1_bounding_box3_base.html#a431be3f581da92c7f08ec19b4d074756" target="_top" xlink:title=" ">
<polygon fill="white" stroke="#666666" points="311,-30.5 178.75,-30.5 178.75,0 311,0 311,-30.5"/>
<text text-anchor="start" x="186.75" y="-17" font-family="Helvetica,sans-Serif" font-size="10.00">Slic3r::BoundingBox3Base</text>
<text text-anchor="middle" x="244.88" y="-5.75" font-family="Helvetica,sans-Serif" font-size="10.00">::merge</text>
</a>
</g>
</g>
<!-- Node1&#45;&gt;Node5 -->
<g id="edge4_Node000001_Node000005" class="edge">
<title>Node1&#45;&gt;Node5</title>
<g id="a_edge4_Node000001_Node000005"><a xlink:title=" ">
<path fill="none" stroke="#63b8ff" d="M105.7,-72.62C126.56,-62.99 154.07,-50.55 178.75,-40.25 183.08,-38.44 187.59,-36.61 192.13,-34.8"/>
<polygon fill="#63b8ff" stroke="#63b8ff" points="193.02,-37.82 201.04,-30.9 190.46,-31.31 193.02,-37.82"/>
</a>
</g>
</g>
</g>
</svg>
