<?xml version="1.0" encoding="UTF-8" standalone="no"?>
<!DOCTYPE svg PUBLIC "-//W3C//DTD SVG 1.1//EN"
 "http://www.w3.org/Graphics/SVG/1.1/DTD/svg11.dtd">
<!-- Generated by graphviz version 8.1.0 (20230707.0739)
 -->
<!-- Title: qh_vertexridges_facet Pages: 1 -->
<svg width="668pt" height="65pt"
 viewBox="0.00 0.00 667.75 65.25" xmlns="http://www.w3.org/2000/svg" xmlns:xlink="http://www.w3.org/1999/xlink">
<g id="graph0" class="graph" transform="scale(1 1) rotate(0) translate(4 61.25)">
<title>qh_vertexridges_facet</title>
<!-- Node1 -->
<g id="Node000001" class="node">
<title>Node1</title>
<g id="a_Node000001"><a xlink:title=" ">
<polygon fill="#999999" stroke="#666666" points="659.75,-57.25 547.75,-57.25 547.75,-38 659.75,-38 659.75,-57.25"/>
<text text-anchor="middle" x="603.75" y="-43.75" font-family="Helvetica,sans-Serif" font-size="10.00">qh_vertexridges_facet</text>
</a>
</g>
</g>
<!-- Node2 -->
<g id="Node000002" class="node">
<title>Node2</title>
<g id="a_Node000002"><a xlink:href="../../d4/daf/merge__r_8c.html#a33234c0f858d63a415c6e89ff2e7a7e0" target="_top" xlink:title=" ">
<polygon fill="white" stroke="#666666" points="257,-56.25 131.5,-56.25 131.5,-37 257,-37 257,-56.25"/>
<text text-anchor="middle" x="194.25" y="-42.75" font-family="Helvetica,sans-Serif" font-size="10.00">qh_rename_sharedvertex</text>
</a>
</g>
</g>
<!-- Node1&#45;&gt;Node2 -->
<g id="edge1_Node000001_Node000002" class="edge">
<title>Node1&#45;&gt;Node2</title>
<g id="a_edge1_Node000001_Node000002"><a xlink:title=" ">
<path fill="none" stroke="#63b8ff" d="M536.44,-47.82C473.72,-47.96 376.96,-48.05 293,-47.62 281.46,-47.57 269.15,-47.47 257.3,-47.36"/>
<polygon fill="#63b8ff" stroke="#63b8ff" points="536.36,-51.32 546.36,-47.8 536.35,-44.32 536.36,-51.32"/>
</a>
</g>
</g>
<!-- Node4 -->
<g id="Node000004" class="node">
<title>Node4</title>
<g id="a_Node000004"><a xlink:href="../../d4/daf/merge__r_8c.html#ac475d545779521c39bcaa1958e77a490" target="_top" xlink:title=" ">
<polygon fill="white" stroke="#666666" points="511.75,-38.25 426.75,-38.25 426.75,-19 511.75,-19 511.75,-38.25"/>
<text text-anchor="middle" x="469.25" y="-24.75" font-family="Helvetica,sans-Serif" font-size="10.00">qh_vertexridges</text>
</a>
</g>
</g>
<!-- Node1&#45;&gt;Node4 -->
<g id="edge3_Node000001_Node000004" class="edge">
<title>Node1&#45;&gt;Node4</title>
<g id="a_edge3_Node000001_Node000004"><a xlink:title=" ">
<path fill="none" stroke="#63b8ff" d="M536.48,-38.12C528.19,-36.93 519.91,-35.75 512.15,-34.63"/>
<polygon fill="#63b8ff" stroke="#63b8ff" points="535.93,-41.72 546.33,-39.68 536.92,-34.79 535.93,-41.72"/>
</a>
</g>
</g>
<!-- Node3 -->
<g id="Node000003" class="node">
<title>Node3</title>
<g id="a_Node000003"><a xlink:href="../../d4/daf/merge__r_8c.html#a70e7d9f04569e2515d89eb8fe13c84f5" target="_top" xlink:title=" ">
<polygon fill="white" stroke="#666666" points="95.5,-37.25 0,-37.25 0,-18 95.5,-18 95.5,-37.25"/>
<text text-anchor="middle" x="47.75" y="-23.75" font-family="Helvetica,sans-Serif" font-size="10.00">qh_reducevertices</text>
</a>
</g>
</g>
<!-- Node2&#45;&gt;Node3 -->
<g id="edge2_Node000002_Node000003" class="edge">
<title>Node2&#45;&gt;Node3</title>
<g id="a_edge2_Node000002_Node000003"><a xlink:title=" ">
<path fill="none" stroke="#63b8ff" d="M120.3,-37.03C112.03,-35.95 103.78,-34.86 95.98,-33.83"/>
<polygon fill="#63b8ff" stroke="#63b8ff" points="119.76,-40.62 130.13,-38.46 120.67,-33.68 119.76,-40.62"/>
</a>
</g>
</g>
<!-- Node5 -->
<g id="Node000005" class="node">
<title>Node5</title>
<g id="a_Node000005"><a xlink:href="../../d4/daf/merge__r_8c.html#aa83d7732c0dca69e43851504bbfffb43" target="_top" xlink:title=" ">
<polygon fill="white" stroke="#666666" points="390.75,-38.25 293,-38.25 293,-19 390.75,-19 390.75,-38.25"/>
<text text-anchor="middle" x="341.88" y="-24.75" font-family="Helvetica,sans-Serif" font-size="10.00">qh_find_newvertex</text>
</a>
</g>
</g>
<!-- Node4&#45;&gt;Node5 -->
<g id="edge4_Node000004_Node000005" class="edge">
<title>Node4&#45;&gt;Node5</title>
<g id="a_edge4_Node000004_Node000005"><a xlink:title=" ">
<path fill="none" stroke="#63b8ff" d="M415.57,-28.62C407.4,-28.62 399,-28.62 390.94,-28.62"/>
<polygon fill="#63b8ff" stroke="#63b8ff" points="415.5,-32.13 425.5,-28.62 415.5,-25.13 415.5,-32.13"/>
</a>
</g>
</g>
<!-- Node6 -->
<g id="Node000006" class="node">
<title>Node6</title>
<g id="a_Node000006"><a xlink:href="../../d4/daf/merge__r_8c.html#a12b24d01c2b0bb1454452360f35fc218" target="_top" xlink:title=" ">
<polygon fill="white" stroke="#666666" points="247.62,-19.25 140.88,-19.25 140.88,0 247.62,0 247.62,-19.25"/>
<text text-anchor="middle" x="194.25" y="-5.75" font-family="Helvetica,sans-Serif" font-size="10.00">qh_redundant_vertex</text>
</a>
</g>
</g>
<!-- Node4&#45;&gt;Node6 -->
<g id="edge8_Node000004_Node000006" class="edge">
<title>Node4&#45;&gt;Node6</title>
<g id="a_edge8_Node000004_Node000006"><a xlink:title=" ">
<path fill="none" stroke="#63b8ff" d="M424.12,-15.87C413.3,-13.28 401.68,-10.95 390.75,-9.62 342.56,-3.8 287.21,-4.49 247.73,-6.22"/>
<polygon fill="#63b8ff" stroke="#63b8ff" points="423.07,-19.46 433.62,-18.51 424.78,-12.68 423.07,-19.46"/>
</a>
</g>
</g>
<!-- Node5&#45;&gt;Node2 -->
<g id="edge7_Node000005_Node000002" class="edge">
<title>Node5&#45;&gt;Node2</title>
<g id="a_edge7_Node000005_Node000002"><a xlink:title=" ">
<path fill="none" stroke="#63b8ff" d="M281.92,-35.91C273.81,-36.91 265.47,-37.95 257.31,-38.95"/>
<polygon fill="#63b8ff" stroke="#63b8ff" points="282.29,-39.27 291.79,-34.57 281.43,-32.32 282.29,-39.27"/>
</a>
</g>
</g>
<!-- Node5&#45;&gt;Node6 -->
<g id="edge5_Node000005_Node000006" class="edge">
<title>Node5&#45;&gt;Node6</title>
<g id="a_edge5_Node000005_Node000006"><a xlink:title=" ">
<path fill="none" stroke="#63b8ff" d="M282.16,-20.96C270.88,-19.49 259.13,-17.96 248.06,-16.51"/>
<polygon fill="#63b8ff" stroke="#63b8ff" points="281.42,-24.53 291.79,-22.35 282.33,-17.59 281.42,-24.53"/>
</a>
</g>
</g>
<!-- Node6&#45;&gt;Node3 -->
<g id="edge6_Node000006_Node000003" class="edge">
<title>Node6&#45;&gt;Node3</title>
<g id="a_edge6_Node000006_Node000003"><a xlink:title=" ">
<path fill="none" stroke="#63b8ff" d="M129.83,-17.52C118.39,-18.95 106.65,-20.41 95.78,-21.77"/>
<polygon fill="#63b8ff" stroke="#63b8ff" points="130.18,-20.88 139.67,-16.17 129.32,-13.94 130.18,-20.88"/>
</a>
</g>
</g>
</g>
</svg>
