<?xml version="1.0" encoding="UTF-8" standalone="no"?>
<!DOCTYPE svg PUBLIC "-//W3C//DTD SVG 1.1//EN"
 "http://www.w3.org/Graphics/SVG/1.1/DTD/svg11.dtd">
<!-- Generated by graphviz version 8.1.0 (20230707.0739)
 -->
<!-- Title: find_connected_components Pages: 1 -->
<svg width="913pt" height="729pt"
 viewBox="0.00 0.00 912.50 729.25" xmlns="http://www.w3.org/2000/svg" xmlns:xlink="http://www.w3.org/1999/xlink">
<g id="graph0" class="graph" transform="scale(1 1) rotate(0) translate(4 725.25)">
<title>find_connected_components</title>
<!-- Node1 -->
<g id="Node000001" class="node">
<title>Node1</title>
<g id="a_Node000001"><a xlink:title=" ">
<polygon fill="#999999" stroke="#666666" points="140.5,-470.25 0,-470.25 0,-451 140.5,-451 140.5,-470.25"/>
<text text-anchor="middle" x="70.25" y="-456.75" font-family="Helvetica,sans-Serif" font-size="10.00">find_connected_components</text>
</a>
</g>
</g>
<!-- Node2 -->
<g id="Node000002" class="node">
<title>Node2</title>
<g id="a_Node000002"><a xlink:href="../../d7/d63/classhmesh__t.html#a913e50afe2e1dc220a379b1dbf8050d2" target="_top" xlink:title=" ">
<polygon fill="white" stroke="#666666" points="293.75,-717.25 181.75,-717.25 181.75,-698 293.75,-698 293.75,-717.25"/>
<text text-anchor="middle" x="237.75" y="-703.75" font-family="Helvetica,sans-Serif" font-size="10.00">hmesh_t::faces_begin</text>
</a>
</g>
</g>
<!-- Node1&#45;&gt;Node2 -->
<g id="edge1_Node000001_Node000002" class="edge">
<title>Node1&#45;&gt;Node2</title>
<g id="a_edge1_Node000001_Node000002"><a xlink:title=" ">
<path fill="none" stroke="#63b8ff" d="M72.98,-470.38C79.65,-505.05 106.84,-623.63 176.5,-686.62 178.85,-688.75 181.43,-690.66 184.15,-692.38"/>
<polygon fill="#63b8ff" stroke="#63b8ff" points="182.38,-695.94 192.86,-697.52 185.66,-689.75 182.38,-695.94"/>
</a>
</g>
</g>
<!-- Node4 -->
<g id="Node000004" class="node">
<title>Node4</title>
<g id="a_Node000004"><a xlink:href="../../d7/d63/classhmesh__t.html#a89e4f1f34dda0bdeced26bc71cb4a4fc" target="_top" xlink:title=" ">
<polygon fill="white" stroke="#666666" points="290,-677.25 185.5,-677.25 185.5,-658 290,-658 290,-677.25"/>
<text text-anchor="middle" x="237.75" y="-663.75" font-family="Helvetica,sans-Serif" font-size="10.00">hmesh_t::faces_end</text>
</a>
</g>
</g>
<!-- Node1&#45;&gt;Node4 -->
<g id="edge3_Node000001_Node000004" class="edge">
<title>Node1&#45;&gt;Node4</title>
<g id="a_edge3_Node000001_Node000004"><a xlink:title=" ">
<path fill="none" stroke="#63b8ff" d="M73.88,-470.59C82.68,-501.96 114.12,-599.54 176.5,-649.62 177.72,-650.61 179,-651.54 180.32,-652.41"/>
<polygon fill="#63b8ff" stroke="#63b8ff" points="178.1,-655.74 188.54,-657.51 181.48,-649.61 178.1,-655.74"/>
</a>
</g>
</g>
<!-- Node5 -->
<g id="Node000005" class="node">
<title>Node5</title>
<g id="a_Node000005"><a xlink:href="../../d7/d63/classhmesh__t.html#a765a6f3b7249eb47135d246f6d301102" target="_top" xlink:title=" ">
<polygon fill="white" stroke="#666666" points="294.12,-602.88 181.38,-602.88 181.38,-572.38 294.12,-572.38 294.12,-602.88"/>
<text text-anchor="start" x="189.38" y="-589.38" font-family="Helvetica,sans-Serif" font-size="10.00">hmesh_t::get_vertices</text>
<text text-anchor="middle" x="237.75" y="-578.12" font-family="Helvetica,sans-Serif" font-size="10.00">_around_face</text>
</a>
</g>
</g>
<!-- Node1&#45;&gt;Node5 -->
<g id="edge4_Node000001_Node000005" class="edge">
<title>Node1&#45;&gt;Node5</title>
<g id="a_edge4_Node000001_Node000005"><a xlink:title=" ">
<path fill="none" stroke="#63b8ff" d="M84.24,-470.59C110.65,-490.86 171.2,-537.32 207.56,-565.23"/>
<polygon fill="#63b8ff" stroke="#63b8ff" points="205.18,-568.58 215.25,-571.89 209.45,-563.03 205.18,-568.58"/>
</a>
</g>
</g>
<!-- Node10 -->
<g id="Node000010" class="node">
<title>Node10</title>
<g id="a_Node000010"><a xlink:href="../../d7/d63/classhmesh__t.html#ae892c101bd2816b0e18cf2e0405c16cb" target="_top" xlink:title=" ">
<polygon fill="white" stroke="#666666" points="294.12,-500.88 181.38,-500.88 181.38,-470.38 294.12,-470.38 294.12,-500.88"/>
<text text-anchor="start" x="189.38" y="-487.38" font-family="Helvetica,sans-Serif" font-size="10.00">hmesh_t::get_vertices</text>
<text text-anchor="middle" x="237.75" y="-476.12" font-family="Helvetica,sans-Serif" font-size="10.00">_around_vertex</text>
</a>
</g>
</g>
<!-- Node1&#45;&gt;Node10 -->
<g id="edge10_Node000001_Node000010" class="edge">
<title>Node1&#45;&gt;Node10</title>
<g id="a_edge10_Node000001_Node000010"><a xlink:title=" ">
<path fill="none" stroke="#63b8ff" d="M138.09,-470.72C148.67,-472.32 159.62,-473.97 170.2,-475.57"/>
<polygon fill="#63b8ff" stroke="#63b8ff" points="169.65,-479.18 180.06,-477.21 170.7,-472.26 169.65,-479.18"/>
</a>
</g>
</g>
<!-- Node14 -->
<g id="Node000014" class="node">
<title>Node14</title>
<g id="a_Node000014"><a xlink:href="../../d7/d63/classhmesh__t.html#ac759578dea5f6dd7eebcef3f1a5af705" target="_top" xlink:title=" ">
<polygon fill="white" stroke="#666666" points="290.38,-435.88 185.12,-435.88 185.12,-405.38 290.38,-405.38 290.38,-435.88"/>
<text text-anchor="start" x="193.12" y="-422.38" font-family="Helvetica,sans-Serif" font-size="10.00">hmesh_t::number_of</text>
<text text-anchor="middle" x="237.75" y="-411.12" font-family="Helvetica,sans-Serif" font-size="10.00">_edges</text>
</a>
</g>
</g>
<!-- Node1&#45;&gt;Node14 -->
<g id="edge15_Node000001_Node000014" class="edge">
<title>Node1&#45;&gt;Node14</title>
<g id="a_edge15_Node000001_Node000014"><a xlink:title=" ">
<path fill="none" stroke="#63b8ff" d="M113.01,-450.53C131.6,-446.04 153.89,-440.65 174.39,-435.7"/>
<polygon fill="#63b8ff" stroke="#63b8ff" points="175.03,-438.9 183.92,-433.15 173.38,-432.1 175.03,-438.9"/>
</a>
</g>
</g>
<!-- Node17 -->
<g id="Node000017" class="node">
<title>Node17</title>
<g id="a_Node000017"><a xlink:href="../../d7/d63/classhmesh__t.html#a08178cf3f846017dbec208b96c970ac7" target="_top" xlink:title=" ">
<polygon fill="white" stroke="#666666" points="290.38,-337.88 185.12,-337.88 185.12,-307.38 290.38,-307.38 290.38,-337.88"/>
<text text-anchor="start" x="193.12" y="-324.38" font-family="Helvetica,sans-Serif" font-size="10.00">hmesh_t::number_of</text>
<text text-anchor="middle" x="237.75" y="-313.12" font-family="Helvetica,sans-Serif" font-size="10.00">_faces</text>
</a>
</g>
</g>
<!-- Node1&#45;&gt;Node17 -->
<g id="edge18_Node000001_Node000017" class="edge">
<title>Node1&#45;&gt;Node17</title>
<g id="a_edge18_Node000001_Node000017"><a xlink:title=" ">
<path fill="none" stroke="#63b8ff" d="M83.15,-450.7C109.5,-428.73 173.31,-375.52 209.86,-345.05"/>
<polygon fill="#63b8ff" stroke="#63b8ff" points="211.65,-347.28 217.09,-338.19 207.16,-341.9 211.65,-347.28"/>
</a>
</g>
</g>
<!-- Node20 -->
<g id="Node000020" class="node">
<title>Node20</title>
<g id="a_Node000020"><a xlink:href="../../d7/d63/classhmesh__t.html#a35ce6de1cc36d41e9eb48edb3e23e795" target="_top" xlink:title=" ">
<polygon fill="white" stroke="#666666" points="290.38,-239.88 185.12,-239.88 185.12,-209.38 290.38,-209.38 290.38,-239.88"/>
<text text-anchor="start" x="193.12" y="-226.38" font-family="Helvetica,sans-Serif" font-size="10.00">hmesh_t::number_of</text>
<text text-anchor="middle" x="237.75" y="-215.12" font-family="Helvetica,sans-Serif" font-size="10.00">_vertices</text>
</a>
</g>
</g>
<!-- Node1&#45;&gt;Node20 -->
<g id="edge21_Node000001_Node000020" class="edge">
<title>Node1&#45;&gt;Node20</title>
<g id="a_edge21_Node000001_Node000020"><a xlink:title=" ">
<path fill="none" stroke="#63b8ff" d="M77.3,-450.51C92.87,-424.65 136.01,-354.19 176.5,-298.62 189.1,-281.33 204.33,-262.64 216.32,-248.38"/>
<polygon fill="#63b8ff" stroke="#63b8ff" points="219.53,-251.01 223.32,-241.12 214.19,-246.49 219.53,-251.01"/>
</a>
</g>
</g>
<!-- Node23 -->
<g id="Node000023" class="node">
<title>Node23</title>
<g id="a_Node000023"><a xlink:href="../../df/d05/tpool_8h.html#a48d2e68725f7691f1422697f4c359827" target="_top" xlink:title=" ">
<polygon fill="white" stroke="#666666" points="269.38,-121.25 206.12,-121.25 206.12,-102 269.38,-102 269.38,-121.25"/>
<text text-anchor="middle" x="237.75" y="-107.75" font-family="Helvetica,sans-Serif" font-size="10.00">parallel_for</text>
</a>
</g>
</g>
<!-- Node1&#45;&gt;Node23 -->
<g id="edge24_Node000001_Node000023" class="edge">
<title>Node1&#45;&gt;Node23</title>
<g id="a_edge24_Node000001_Node000023"><a xlink:title=" ">
<path fill="none" stroke="#63b8ff" d="M74.37,-450.85C85.73,-415.85 126.78,-293.87 176.5,-200.62 190.13,-175.06 209.39,-147.77 222.43,-130.25"/>
<polygon fill="#63b8ff" stroke="#63b8ff" points="225.74,-132.69 228.97,-122.6 220.15,-128.47 225.74,-132.69"/>
</a>
</g>
</g>
<!-- Node36 -->
<g id="Node000036" class="node">
<title>Node36</title>
<g id="a_Node000036"><a xlink:href="../../d7/d63/classhmesh__t.html#a0bf160ae73193f77064cc3d8f01e63a3" target="_top" xlink:title=" ">
<polygon fill="white" stroke="#666666" points="299,-640.25 176.5,-640.25 176.5,-621 299,-621 299,-640.25"/>
<text text-anchor="middle" x="237.75" y="-626.75" font-family="Helvetica,sans-Serif" font-size="10.00">hmesh_t::vertices_begin</text>
</a>
</g>
</g>
<!-- Node1&#45;&gt;Node36 -->
<g id="edge37_Node000001_Node000036" class="edge">
<title>Node1&#45;&gt;Node36</title>
<g id="a_edge37_Node000001_Node000036"><a xlink:title=" ">
<path fill="none" stroke="#63b8ff" d="M75.31,-470.41C86.93,-497.18 122.94,-572.26 176.5,-611.62 178.59,-613.16 180.8,-614.57 183.11,-615.87"/>
<polygon fill="#63b8ff" stroke="#63b8ff" points="181.42,-619.43 191.95,-620.61 184.46,-613.12 181.42,-619.43"/>
</a>
</g>
</g>
<!-- Node37 -->
<g id="Node000037" class="node">
<title>Node37</title>
<g id="a_Node000037"><a xlink:href="../../d7/d63/classhmesh__t.html#a80ac49a03f1085744f5b121cc4acbf2c" target="_top" xlink:title=" ">
<polygon fill="white" stroke="#666666" points="295.25,-84.25 180.25,-84.25 180.25,-65 295.25,-65 295.25,-84.25"/>
<text text-anchor="middle" x="237.75" y="-70.75" font-family="Helvetica,sans-Serif" font-size="10.00">hmesh_t::vertices_end</text>
</a>
</g>
</g>
<!-- Node1&#45;&gt;Node37 -->
<g id="edge39_Node000001_Node000037" class="edge">
<title>Node1&#45;&gt;Node37</title>
<g id="a_edge39_Node000001_Node000037"><a xlink:title=" ">
<path fill="none" stroke="#63b8ff" d="M70.89,-450.74C69.74,-403.56 71.17,-199.2 176.5,-92.62 177.09,-92.03 177.7,-91.45 178.32,-90.89"/>
<polygon fill="#63b8ff" stroke="#63b8ff" points="180.09,-93.23 186.3,-84.65 176.09,-87.49 180.09,-93.23"/>
</a>
</g>
</g>
<!-- Node3 -->
<g id="Node000003" class="node">
<title>Node3</title>
<g id="a_Node000003"><a xlink:href="../../d7/d63/classhmesh__t.html#ad4e4cc41a75c0c59d5c502b47e285d30" target="_top" xlink:title=" ">
<polygon fill="white" stroke="#666666" points="457.5,-721.25 347.75,-721.25 347.75,-702 457.5,-702 457.5,-721.25"/>
<text text-anchor="middle" x="402.62" y="-707.75" font-family="Helvetica,sans-Serif" font-size="10.00">hmesh_t::is_removed</text>
</a>
</g>
</g>
<!-- Node2&#45;&gt;Node3 -->
<g id="edge2_Node000002_Node000003" class="edge">
<title>Node2&#45;&gt;Node3</title>
<g id="a_edge2_Node000002_Node000003"><a xlink:title=" ">
<path fill="none" stroke="#63b8ff" d="M293.89,-708.98C307.64,-709.32 322.52,-709.68 336.69,-710.03"/>
<polygon fill="#63b8ff" stroke="#63b8ff" points="336.29,-713.55 346.37,-710.29 336.46,-706.55 336.29,-713.55"/>
</a>
</g>
</g>
<!-- Node6 -->
<g id="Node000006" class="node">
<title>Node6</title>
<g id="a_Node000006"><a xlink:href="../../d7/d63/classhmesh__t.html#a86f122fb5db56b6f79b21b657d3326f9" target="_top" xlink:title=" ">
<polygon fill="white" stroke="#666666" points="462.75,-683.88 342.5,-683.88 342.5,-653.38 462.75,-653.38 462.75,-683.88"/>
<text text-anchor="start" x="350.5" y="-670.38" font-family="Helvetica,sans-Serif" font-size="10.00">hmesh_t::get_halfedges</text>
<text text-anchor="middle" x="402.62" y="-659.12" font-family="Helvetica,sans-Serif" font-size="10.00">_around_face</text>
</a>
</g>
</g>
<!-- Node5&#45;&gt;Node6 -->
<g id="edge5_Node000005_Node000006" class="edge">
<title>Node5&#45;&gt;Node6</title>
<g id="a_edge5_Node000005_Node000006"><a xlink:title=" ">
<path fill="none" stroke="#63b8ff" d="M282.55,-603.37C288.2,-605.89 293.82,-608.66 299,-611.62 316.59,-621.7 317.57,-629.28 335,-639.62 340.08,-642.64 345.54,-645.53 351.06,-648.23"/>
<polygon fill="#63b8ff" stroke="#63b8ff" points="349.46,-651.81 360.01,-652.88 352.43,-645.47 349.46,-651.81"/>
</a>
</g>
</g>
<!-- Node7 -->
<g id="Node000007" class="node">
<title>Node7</title>
<g id="a_Node000007"><a xlink:href="../../d7/d63/classhmesh__t.html#af78eb5785020a91476b847187b3b2b1a" target="_top" xlink:title=" ">
<polygon fill="white" stroke="#666666" points="618.62,-656.25 520.12,-656.25 520.12,-637 618.62,-637 618.62,-656.25"/>
<text text-anchor="middle" x="569.38" y="-642.75" font-family="Helvetica,sans-Serif" font-size="10.00">hmesh_t::null_face</text>
</a>
</g>
</g>
<!-- Node5&#45;&gt;Node7 -->
<g id="edge7_Node000005_Node000007" class="edge">
<title>Node5&#45;&gt;Node7</title>
<g id="a_edge7_Node000005_Node000007"><a xlink:title=" ">
<path fill="none" stroke="#63b8ff" d="M294.44,-598.86C307.72,-601.48 321.85,-604.2 335,-606.62 394.26,-617.55 462.17,-629.08 509.39,-636.94"/>
<polygon fill="#63b8ff" stroke="#63b8ff" points="508.6,-640.52 519.04,-638.7 509.75,-633.61 508.6,-640.52"/>
</a>
</g>
</g>
<!-- Node8 -->
<g id="Node000008" class="node">
<title>Node8</title>
<g id="a_Node000008"><a xlink:href="../../d7/d63/classhmesh__t.html#a7500af9f9f2d3b485dc144609ce25c2f" target="_top" xlink:title=" ">
<polygon fill="white" stroke="#666666" points="444.75,-597.25 360.5,-597.25 360.5,-578 444.75,-578 444.75,-597.25"/>
<text text-anchor="middle" x="402.62" y="-583.75" font-family="Helvetica,sans-Serif" font-size="10.00">hmesh_t::target</text>
</a>
</g>
</g>
<!-- Node5&#45;&gt;Node8 -->
<g id="edge8_Node000005_Node000008" class="edge">
<title>Node5&#45;&gt;Node8</title>
<g id="a_edge8_Node000005_Node000008"><a xlink:title=" ">
<path fill="none" stroke="#63b8ff" d="M294.35,-587.62C312.2,-587.62 331.91,-587.62 349.51,-587.62"/>
<polygon fill="#63b8ff" stroke="#63b8ff" points="349.16,-591.13 359.16,-587.62 349.16,-584.13 349.16,-591.13"/>
</a>
</g>
</g>
<!-- Node6&#45;&gt;Node7 -->
<g id="edge6_Node000006_Node000007" class="edge">
<title>Node6&#45;&gt;Node7</title>
<g id="a_edge6_Node000006_Node000007"><a xlink:title=" ">
<path fill="none" stroke="#63b8ff" d="M463.1,-660.68C478.09,-658.68 494.16,-656.53 509.13,-654.54"/>
<polygon fill="#63b8ff" stroke="#63b8ff" points="509.36,-657.9 518.81,-653.11 508.43,-650.96 509.36,-657.9"/>
</a>
</g>
</g>
<!-- Node9 -->
<g id="Node000009" class="node">
<title>Node9</title>
<g id="a_Node000009"><a xlink:href="../../d7/d63/classhmesh__t.html#a682accc8af021cbd85eb03c91bc9fd0e" target="_top" xlink:title=" ">
<polygon fill="white" stroke="#666666" points="627.62,-597.25 511.12,-597.25 511.12,-578 627.62,-578 627.62,-597.25"/>
<text text-anchor="middle" x="569.38" y="-583.75" font-family="Helvetica,sans-Serif" font-size="10.00">hmesh_t::null_halfedge</text>
</a>
</g>
</g>
<!-- Node8&#45;&gt;Node9 -->
<g id="edge9_Node000008_Node000009" class="edge">
<title>Node8&#45;&gt;Node9</title>
<g id="a_edge9_Node000008_Node000009"><a xlink:title=" ">
<path fill="none" stroke="#63b8ff" d="M445.2,-587.62C461.77,-587.62 481.3,-587.62 499.85,-587.62"/>
<polygon fill="#63b8ff" stroke="#63b8ff" points="499.64,-591.13 509.64,-587.62 499.64,-584.13 499.64,-591.13"/>
</a>
</g>
</g>
<!-- Node11 -->
<g id="Node000011" class="node">
<title>Node11</title>
<g id="a_Node000011"><a xlink:href="../../d7/d63/classhmesh__t.html#a3ea06ff1ab141d57223eb28cfba1bb26" target="_top" xlink:title=" ">
<polygon fill="white" stroke="#666666" points="462.75,-559.88 342.5,-559.88 342.5,-529.38 462.75,-529.38 462.75,-559.88"/>
<text text-anchor="start" x="350.5" y="-546.38" font-family="Helvetica,sans-Serif" font-size="10.00">hmesh_t::get_halfedges</text>
<text text-anchor="middle" x="402.62" y="-535.12" font-family="Helvetica,sans-Serif" font-size="10.00">_around_vertex</text>
</a>
</g>
</g>
<!-- Node10&#45;&gt;Node11 -->
<g id="edge11_Node000010_Node000011" class="edge">
<title>Node10&#45;&gt;Node11</title>
<g id="a_edge11_Node000010_Node000011"><a xlink:title=" ">
<path fill="none" stroke="#63b8ff" d="M281.97,-501.28C302.22,-508.62 326.54,-517.43 347.96,-525.18"/>
<polygon fill="#63b8ff" stroke="#63b8ff" points="346.61,-528.78 357.2,-528.9 348.99,-522.2 346.61,-528.78"/>
</a>
</g>
</g>
<!-- Node12 -->
<g id="Node000012" class="node">
<title>Node12</title>
<g id="a_Node000012"><a xlink:href="../../d7/d63/classhmesh__t.html#ab448d0b9684fd2f648195b2e5edb83f2" target="_top" xlink:title=" ">
<polygon fill="white" stroke="#666666" points="622.75,-532.25 516,-532.25 516,-513 622.75,-513 622.75,-532.25"/>
<text text-anchor="middle" x="569.38" y="-518.75" font-family="Helvetica,sans-Serif" font-size="10.00">hmesh_t::null_vertex</text>
</a>
</g>
</g>
<!-- Node10&#45;&gt;Node12 -->
<g id="edge13_Node000010_Node000012" class="edge">
<title>Node10&#45;&gt;Node12</title>
<g id="a_edge13_Node000010_Node000012"><a xlink:title=" ">
<path fill="none" stroke="#63b8ff" d="M294.29,-491.86C352.54,-498.4 443.92,-508.65 504.95,-515.51"/>
<polygon fill="#63b8ff" stroke="#63b8ff" points="504.28,-519.06 514.61,-516.7 505.06,-512.11 504.28,-519.06"/>
</a>
</g>
</g>
<!-- Node13 -->
<g id="Node000013" class="node">
<title>Node13</title>
<g id="a_Node000013"><a xlink:href="../../d7/d63/classhmesh__t.html#a49ab80e240a5f3555bde8db61739d685" target="_top" xlink:title=" ">
<polygon fill="white" stroke="#666666" points="447,-473.25 358.25,-473.25 358.25,-454 447,-454 447,-473.25"/>
<text text-anchor="middle" x="402.62" y="-459.75" font-family="Helvetica,sans-Serif" font-size="10.00">hmesh_t::source</text>
</a>
</g>
</g>
<!-- Node10&#45;&gt;Node13 -->
<g id="edge14_Node000010_Node000013" class="edge">
<title>Node10&#45;&gt;Node13</title>
<g id="a_edge14_Node000010_Node000013"><a xlink:title=" ">
<path fill="none" stroke="#63b8ff" d="M294.35,-478.12C311.36,-475.82 330.04,-473.29 346.99,-471.01"/>
<polygon fill="#63b8ff" stroke="#63b8ff" points="347.39,-474.35 356.84,-469.54 346.46,-467.41 347.39,-474.35"/>
</a>
</g>
</g>
<!-- Node11&#45;&gt;Node12 -->
<g id="edge12_Node000011_Node000012" class="edge">
<title>Node11&#45;&gt;Node12</title>
<g id="a_edge12_Node000011_Node000012"><a xlink:title=" ">
<path fill="none" stroke="#63b8ff" d="M463.1,-536.68C476.63,-534.88 491.05,-532.95 504.75,-531.12"/>
<polygon fill="#63b8ff" stroke="#63b8ff" points="505.09,-534.47 514.54,-529.68 504.16,-527.53 505.09,-534.47"/>
</a>
</g>
</g>
<!-- Node15 -->
<g id="Node000015" class="node">
<title>Node15</title>
<g id="a_Node000015"><a xlink:href="../../d7/d63/classhmesh__t.html#aef31129ff1ffde00d4981bc057fcb6cf" target="_top" xlink:title=" ">
<polygon fill="white" stroke="#666666" points="455.25,-435.88 350,-435.88 350,-405.38 455.25,-405.38 455.25,-435.88"/>
<text text-anchor="start" x="358" y="-422.38" font-family="Helvetica,sans-Serif" font-size="10.00">hmesh_t::number_of</text>
<text text-anchor="middle" x="402.62" y="-411.12" font-family="Helvetica,sans-Serif" font-size="10.00">_edges_removed</text>
</a>
</g>
</g>
<!-- Node14&#45;&gt;Node15 -->
<g id="edge16_Node000014_Node000015" class="edge">
<title>Node14&#45;&gt;Node15</title>
<g id="a_edge16_Node000014_Node000015"><a xlink:title=" ">
<path fill="none" stroke="#63b8ff" d="M290.73,-420.62C306.01,-420.62 322.89,-420.62 338.77,-420.62"/>
<polygon fill="#63b8ff" stroke="#63b8ff" points="338.58,-424.13 348.58,-420.62 338.58,-417.13 338.58,-424.13"/>
</a>
</g>
</g>
<!-- Node16 -->
<g id="Node000016" class="node">
<title>Node16</title>
<g id="a_Node000016"><a xlink:href="../../d7/d63/classhmesh__t.html#a19d37c85ac3bf7238b1478d4ba2bf400" target="_top" xlink:title=" ">
<polygon fill="white" stroke="#666666" points="455.25,-386.88 350,-386.88 350,-356.38 455.25,-356.38 455.25,-386.88"/>
<text text-anchor="start" x="358" y="-373.38" font-family="Helvetica,sans-Serif" font-size="10.00">hmesh_t::number_of</text>
<text text-anchor="middle" x="402.62" y="-362.12" font-family="Helvetica,sans-Serif" font-size="10.00">_internal_edges</text>
</a>
</g>
</g>
<!-- Node14&#45;&gt;Node16 -->
<g id="edge17_Node000014_Node000016" class="edge">
<title>Node14&#45;&gt;Node16</title>
<g id="a_edge17_Node000014_Node000016"><a xlink:title=" ">
<path fill="none" stroke="#63b8ff" d="M290.73,-404.99C306.16,-400.35 323.22,-395.21 339.23,-390.4"/>
<polygon fill="#63b8ff" stroke="#63b8ff" points="340.01,-393.52 348.58,-387.28 337.99,-386.81 340.01,-393.52"/>
</a>
</g>
</g>
<!-- Node18 -->
<g id="Node000018" class="node">
<title>Node18</title>
<g id="a_Node000018"><a xlink:href="../../d7/d63/classhmesh__t.html#a94ba9c1d13ae27bd84356071da69976a" target="_top" xlink:title=" ">
<polygon fill="white" stroke="#666666" points="455.25,-337.88 350,-337.88 350,-307.38 455.25,-307.38 455.25,-337.88"/>
<text text-anchor="start" x="358" y="-324.38" font-family="Helvetica,sans-Serif" font-size="10.00">hmesh_t::number_of</text>
<text text-anchor="middle" x="402.62" y="-313.12" font-family="Helvetica,sans-Serif" font-size="10.00">_faces_removed</text>
</a>
</g>
</g>
<!-- Node17&#45;&gt;Node18 -->
<g id="edge19_Node000017_Node000018" class="edge">
<title>Node17&#45;&gt;Node18</title>
<g id="a_edge19_Node000017_Node000018"><a xlink:title=" ">
<path fill="none" stroke="#63b8ff" d="M290.73,-322.62C306.01,-322.62 322.89,-322.62 338.77,-322.62"/>
<polygon fill="#63b8ff" stroke="#63b8ff" points="338.58,-326.13 348.58,-322.62 338.58,-319.13 338.58,-326.13"/>
</a>
</g>
</g>
<!-- Node19 -->
<g id="Node000019" class="node">
<title>Node19</title>
<g id="a_Node000019"><a xlink:href="../../d7/d63/classhmesh__t.html#a5b198e2db70e5e5c4db30ba95ef6565b" target="_top" xlink:title=" ">
<polygon fill="white" stroke="#666666" points="455.25,-288.88 350,-288.88 350,-258.38 455.25,-258.38 455.25,-288.88"/>
<text text-anchor="start" x="358" y="-275.38" font-family="Helvetica,sans-Serif" font-size="10.00">hmesh_t::number_of</text>
<text text-anchor="middle" x="402.62" y="-264.12" font-family="Helvetica,sans-Serif" font-size="10.00">_internal_faces</text>
</a>
</g>
</g>
<!-- Node17&#45;&gt;Node19 -->
<g id="edge20_Node000017_Node000019" class="edge">
<title>Node17&#45;&gt;Node19</title>
<g id="a_edge20_Node000017_Node000019"><a xlink:title=" ">
<path fill="none" stroke="#63b8ff" d="M290.73,-306.99C306.16,-302.35 323.22,-297.21 339.23,-292.4"/>
<polygon fill="#63b8ff" stroke="#63b8ff" points="340.01,-295.52 348.58,-289.28 337.99,-288.81 340.01,-295.52"/>
</a>
</g>
</g>
<!-- Node21 -->
<g id="Node000021" class="node">
<title>Node21</title>
<g id="a_Node000021"><a xlink:href="../../d7/d63/classhmesh__t.html#acad54d55ae147a1c60f54e86cccc44b1" target="_top" xlink:title=" ">
<polygon fill="white" stroke="#666666" points="455.25,-239.88 350,-239.88 350,-209.38 455.25,-209.38 455.25,-239.88"/>
<text text-anchor="start" x="358" y="-226.38" font-family="Helvetica,sans-Serif" font-size="10.00">hmesh_t::number_of</text>
<text text-anchor="middle" x="402.62" y="-215.12" font-family="Helvetica,sans-Serif" font-size="10.00">_internal_vertices</text>
</a>
</g>
</g>
<!-- Node20&#45;&gt;Node21 -->
<g id="edge22_Node000020_Node000021" class="edge">
<title>Node20&#45;&gt;Node21</title>
<g id="a_edge22_Node000020_Node000021"><a xlink:title=" ">
<path fill="none" stroke="#63b8ff" d="M290.73,-224.62C306.01,-224.62 322.89,-224.62 338.77,-224.62"/>
<polygon fill="#63b8ff" stroke="#63b8ff" points="338.58,-228.13 348.58,-224.62 338.58,-221.13 338.58,-228.13"/>
</a>
</g>
</g>
<!-- Node22 -->
<g id="Node000022" class="node">
<title>Node22</title>
<g id="a_Node000022"><a xlink:href="../../d7/d63/classhmesh__t.html#a0e60a3ca7bf1f6a59db436b4847cd80e" target="_top" xlink:title=" ">
<polygon fill="white" stroke="#666666" points="455.25,-190.88 350,-190.88 350,-160.38 455.25,-160.38 455.25,-190.88"/>
<text text-anchor="start" x="358" y="-177.38" font-family="Helvetica,sans-Serif" font-size="10.00">hmesh_t::number_of</text>
<text text-anchor="middle" x="402.62" y="-166.12" font-family="Helvetica,sans-Serif" font-size="10.00">_vertices_removed</text>
</a>
</g>
</g>
<!-- Node20&#45;&gt;Node22 -->
<g id="edge23_Node000020_Node000022" class="edge">
<title>Node20&#45;&gt;Node22</title>
<g id="a_edge23_Node000020_Node000022"><a xlink:title=" ">
<path fill="none" stroke="#63b8ff" d="M290.73,-208.99C306.16,-204.35 323.22,-199.21 339.23,-194.4"/>
<polygon fill="#63b8ff" stroke="#63b8ff" points="340.01,-197.52 348.58,-191.28 337.99,-190.81 340.01,-197.52"/>
</a>
</g>
</g>
<!-- Node24 -->
<g id="Node000024" class="node">
<title>Node24</title>
<g id="a_Node000024"><a xlink:href="../../d8/dcc/namespacestd.html#af4bc231d061945eb59dbba98a117ece9" target="_top" xlink:title=" ">
<polygon fill="white" stroke="#666666" points="438.75,-142.25 366.5,-142.25 366.5,-123 438.75,-123 438.75,-142.25"/>
<text text-anchor="middle" x="402.62" y="-128.75" font-family="Helvetica,sans-Serif" font-size="10.00">std::distance</text>
</a>
</g>
</g>
<!-- Node23&#45;&gt;Node24 -->
<g id="edge25_Node000023_Node000024" class="edge">
<title>Node23&#45;&gt;Node24</title>
<g id="a_edge25_Node000023_Node000024"><a xlink:title=" ">
<path fill="none" stroke="#63b8ff" d="M269.77,-115.62C293.94,-118.74 327.89,-123.12 355.28,-126.65"/>
<polygon fill="#63b8ff" stroke="#63b8ff" points="354.83,-130.25 365.19,-128.06 355.72,-123.31 354.83,-130.25"/>
</a>
</g>
</g>
<!-- Node29 -->
<g id="Node000029" class="node">
<title>Node29</title>
<g id="a_Node000029"><a xlink:href="../../d3/dce/classthread__pool.html#a731854a1dec41386e233847a55c74737" target="_top" xlink:title=" ">
<polygon fill="white" stroke="#666666" points="457.5,-104.88 347.75,-104.88 347.75,-74.38 457.5,-74.38 457.5,-104.88"/>
<text text-anchor="start" x="355.75" y="-91.38" font-family="Helvetica,sans-Serif" font-size="10.00">thread_pool::get_num</text>
<text text-anchor="middle" x="402.62" y="-80.12" font-family="Helvetica,sans-Serif" font-size="10.00">_threads</text>
</a>
</g>
</g>
<!-- Node23&#45;&gt;Node29 -->
<g id="edge30_Node000023_Node000029" class="edge">
<title>Node23&#45;&gt;Node29</title>
<g id="a_edge30_Node000023_Node000029"><a xlink:title=" ">
<path fill="none" stroke="#63b8ff" d="M269.77,-107.44C288.65,-104.88 313.5,-101.53 336.53,-98.42"/>
<polygon fill="#63b8ff" stroke="#63b8ff" points="336.86,-101.77 346.3,-96.96 335.92,-94.83 336.86,-101.77"/>
</a>
</g>
</g>
<!-- Node30 -->
<g id="Node000030" class="node">
<title>Node30</title>
<g id="a_Node000030"><a xlink:href="../../df/d05/tpool_8h.html#a024f3853091c417a440157aa77ce1b35" target="_top" xlink:title=" ">
<polygon fill="white" stroke="#666666" points="470.25,-56.25 335,-56.25 335,-37 470.25,-37 470.25,-56.25"/>
<text text-anchor="middle" x="402.62" y="-42.75" font-family="Helvetica,sans-Serif" font-size="10.00">get_scheduling_parameters</text>
</a>
</g>
</g>
<!-- Node23&#45;&gt;Node30 -->
<g id="edge31_Node000023_Node000030" class="edge">
<title>Node23&#45;&gt;Node30</title>
<g id="a_edge31_Node000023_Node000030"><a xlink:title=" ">
<path fill="none" stroke="#63b8ff" d="M269.64,-104.77C279.33,-102 289.88,-98.32 299,-93.62 317.02,-84.34 316.92,-74.79 335,-65.62 338.81,-63.69 342.85,-61.93 346.98,-60.32"/>
<polygon fill="#63b8ff" stroke="#63b8ff" points="348.08,-63.29 356.35,-56.67 345.75,-56.69 348.08,-63.29"/>
</a>
</g>
</g>
<!-- Node35 -->
<g id="Node000035" class="node">
<title>Node35</title>
<g id="a_Node000035"><a xlink:href="../../d3/dce/classthread__pool.html#a105646fee998f77c07a00d47966cd570" target="_top" xlink:title=" ">
<polygon fill="white" stroke="#666666" points="453.38,-19.25 351.88,-19.25 351.88,0 453.38,0 453.38,-19.25"/>
<text text-anchor="middle" x="402.62" y="-5.75" font-family="Helvetica,sans-Serif" font-size="10.00">thread_pool::submit</text>
</a>
</g>
</g>
<!-- Node23&#45;&gt;Node35 -->
<g id="edge36_Node000023_Node000035" class="edge">
<title>Node23&#45;&gt;Node35</title>
<g id="a_edge36_Node000023_Node000035"><a xlink:title=" ">
<path fill="none" stroke="#63b8ff" d="M269.77,-107.21C279.91,-104.58 290.69,-100.36 299,-93.62 324.96,-72.59 308.76,-48.31 335,-27.62 337.14,-25.94 339.43,-24.41 341.82,-23.02"/>
<polygon fill="#63b8ff" stroke="#63b8ff" points="342.98,-25.86 350.45,-18.35 339.93,-19.56 342.98,-25.86"/>
</a>
</g>
</g>
<!-- Node25 -->
<g id="Node000025" class="node">
<title>Node25</title>
<g id="a_Node000025"><a xlink:href="../../d7/d63/classhmesh__t.html#a19678c4e4889230aa87ea59b4ec047c8" target="_top" xlink:title=" ">
<polygon fill="white" stroke="#666666" points="632.5,-178.88 506.25,-178.88 506.25,-148.38 632.5,-148.38 632.5,-178.88"/>
<text text-anchor="start" x="514.25" y="-165.38" font-family="Helvetica,sans-Serif" font-size="10.00">hmesh_t::count_removed</text>
<text text-anchor="middle" x="569.38" y="-154.12" font-family="Helvetica,sans-Serif" font-size="10.00">_elements_in_range</text>
</a>
</g>
</g>
<!-- Node24&#45;&gt;Node25 -->
<g id="edge26_Node000024_Node000025" class="edge">
<title>Node24&#45;&gt;Node25</title>
<g id="a_edge26_Node000024_Node000025"><a xlink:title=" ">
<path fill="none" stroke="#63b8ff" d="M438.97,-139.28C455.4,-142.37 475.59,-146.17 495.09,-149.84"/>
<polygon fill="#63b8ff" stroke="#63b8ff" points="494.35,-153.45 504.83,-151.86 495.65,-146.57 494.35,-153.45"/>
</a>
</g>
</g>
<!-- Node28 -->
<g id="Node000028" class="node">
<title>Node28</title>
<g id="a_Node000028"><a xlink:href="../../d8/d9b/classarray__iterator__t.html#ac73b2d71bcaaa8f9fb198b061a58803a" target="_top" xlink:title=" ">
<polygon fill="white" stroke="#666666" points="619.75,-129.88 519,-129.88 519,-99.38 619.75,-99.38 619.75,-129.88"/>
<text text-anchor="start" x="527" y="-116.38" font-family="Helvetica,sans-Serif" font-size="10.00">array_iterator_t::get</text>
<text text-anchor="middle" x="569.38" y="-105.12" font-family="Helvetica,sans-Serif" font-size="10.00">_mesh_ptr</text>
</a>
</g>
</g>
<!-- Node24&#45;&gt;Node28 -->
<g id="edge29_Node000024_Node000028" class="edge">
<title>Node24&#45;&gt;Node28</title>
<g id="a_edge29_Node000024_Node000028"><a xlink:title=" ">
<path fill="none" stroke="#63b8ff" d="M438.97,-128.76C459.05,-126.57 484.73,-123.76 507.92,-121.23"/>
<polygon fill="#63b8ff" stroke="#63b8ff" points="508.16,-124.62 517.72,-120.05 507.39,-117.66 508.16,-124.62"/>
</a>
</g>
</g>
<!-- Node26 -->
<g id="Node000026" class="node">
<title>Node26</title>
<g id="a_Node000026"><a xlink:href="../../d7/d63/classhmesh__t.html#a536da7c5d6be8a2f0be7a536c17a4644" target="_top" xlink:title=" ">
<polygon fill="white" stroke="#666666" points="801.5,-181.25 668.5,-181.25 668.5,-162 801.5,-162 801.5,-181.25"/>
<text text-anchor="middle" x="735" y="-167.75" font-family="Helvetica,sans-Serif" font-size="10.00">hmesh_t::elements_begin_</text>
</a>
</g>
</g>
<!-- Node25&#45;&gt;Node26 -->
<g id="edge27_Node000025_Node000026" class="edge">
<title>Node25&#45;&gt;Node26</title>
<g id="a_edge27_Node000025_Node000026"><a xlink:title=" ">
<path fill="none" stroke="#63b8ff" d="M632.7,-166.67C640.74,-167.07 649.04,-167.47 657.28,-167.87"/>
<polygon fill="#63b8ff" stroke="#63b8ff" points="656.88,-171.41 667.04,-168.4 657.22,-164.42 656.88,-171.41"/>
</a>
</g>
</g>
<!-- Node27 -->
<g id="Node000027" class="node">
<title>Node27</title>
<g id="a_Node000027"><a xlink:href="../../d7/d63/classhmesh__t.html#ad6d08c43b0dac5f8f4a933496ef81ca9" target="_top" xlink:title=" ">
<polygon fill="white" stroke="#666666" points="792.88,-143.88 677.12,-143.88 677.12,-113.38 792.88,-113.38 792.88,-143.88"/>
<text text-anchor="start" x="685.12" y="-130.38" font-family="Helvetica,sans-Serif" font-size="10.00">hmesh_t::get_removed</text>
<text text-anchor="middle" x="735" y="-119.12" font-family="Helvetica,sans-Serif" font-size="10.00">_elements</text>
</a>
</g>
</g>
<!-- Node25&#45;&gt;Node27 -->
<g id="edge28_Node000025_Node000027" class="edge">
<title>Node25&#45;&gt;Node27</title>
<g id="a_edge28_Node000025_Node000027"><a xlink:title=" ">
<path fill="none" stroke="#63b8ff" d="M632.7,-150.29C643.65,-147.95 655.1,-145.5 666.19,-143.13"/>
<polygon fill="#63b8ff" stroke="#63b8ff" points="666.64,-146.4 675.69,-140.88 665.17,-139.55 666.64,-146.4"/>
</a>
</g>
</g>
<!-- Node31 -->
<g id="Node000031" class="node">
<title>Node31</title>
<g id="a_Node000031"><a xlink:href="../../df/db1/math_8h.html#a3a54064875b1b215da4904e90278a089" target="_top" xlink:title=" ">
<polygon fill="white" stroke="#666666" points="590.5,-56.25 548.25,-56.25 548.25,-37 590.5,-37 590.5,-56.25"/>
<text text-anchor="middle" x="569.38" y="-42.75" font-family="Helvetica,sans-Serif" font-size="10.00">length</text>
</a>
</g>
</g>
<!-- Node30&#45;&gt;Node31 -->
<g id="edge32_Node000030_Node000031" class="edge">
<title>Node30&#45;&gt;Node31</title>
<g id="a_edge32_Node000030_Node000031"><a xlink:title=" ">
<path fill="none" stroke="#63b8ff" d="M470.64,-46.62C493.65,-46.62 518.33,-46.62 537.13,-46.62"/>
<polygon fill="#63b8ff" stroke="#63b8ff" points="537.01,-50.13 547.01,-46.62 537.01,-43.13 537.01,-50.13"/>
</a>
</g>
</g>
<!-- Node32 -->
<g id="Node000032" class="node">
<title>Node32</title>
<g id="a_Node000032"><a xlink:href="../../dd/d2d/math_8cpp.html#af4fb32373387854416da6c38850971b2" target="_top" xlink:title=" ">
<polygon fill="white" stroke="#666666" points="768.5,-78.25 701.5,-78.25 701.5,-59 768.5,-59 768.5,-78.25"/>
<text text-anchor="middle" x="735" y="-64.75" font-family="Helvetica,sans-Serif" font-size="10.00">square_root</text>
</a>
</g>
</g>
<!-- Node31&#45;&gt;Node32 -->
<g id="edge33_Node000031_Node000032" class="edge">
<title>Node31&#45;&gt;Node32</title>
<g id="a_edge33_Node000031_Node000032"><a xlink:title=" ">
<path fill="none" stroke="#63b8ff" d="M590.77,-49.37C615.63,-52.71 658.32,-58.45 690.64,-62.8"/>
<polygon fill="#63b8ff" stroke="#63b8ff" points="689.79,-66.35 700.17,-64.21 690.72,-59.41 689.79,-66.35"/>
</a>
</g>
</g>
<!-- Node33 -->
<g id="Node000033" class="node">
<title>Node33</title>
<g id="a_Node000033"><a xlink:href="../../df/db1/math_8h.html#a5ac9a8399d477c88e7ab2e9e406015c6" target="_top" xlink:title=" ">
<polygon fill="white" stroke="#666666" points="776,-41.25 694,-41.25 694,-22 776,-22 776,-41.25"/>
<text text-anchor="middle" x="735" y="-27.75" font-family="Helvetica,sans-Serif" font-size="10.00">squared_length</text>
</a>
</g>
</g>
<!-- Node31&#45;&gt;Node33 -->
<g id="edge34_Node000031_Node000033" class="edge">
<title>Node31&#45;&gt;Node33</title>
<g id="a_edge34_Node000031_Node000033"><a xlink:title=" ">
<path fill="none" stroke="#63b8ff" d="M590.77,-44.76C613.68,-42.66 651.74,-39.17 682.87,-36.31"/>
<polygon fill="#63b8ff" stroke="#63b8ff" points="682.92,-39.73 692.56,-35.33 682.28,-32.76 682.92,-39.73"/>
</a>
</g>
</g>
<!-- Node34 -->
<g id="Node000034" class="node">
<title>Node34</title>
<g id="a_Node000034"><a xlink:href="../../df/db1/math_8h.html#a0b6cff67f1f57a1096b42782cf5397da" target="_top" xlink:title=" ">
<polygon fill="white" stroke="#666666" points="904.5,-41.25 837.5,-41.25 837.5,-22 904.5,-22 904.5,-41.25"/>
<text text-anchor="middle" x="871" y="-27.75" font-family="Helvetica,sans-Serif" font-size="10.00">dot_product</text>
</a>
</g>
</g>
<!-- Node33&#45;&gt;Node34 -->
<g id="edge35_Node000033_Node000034" class="edge">
<title>Node33&#45;&gt;Node34</title>
<g id="a_edge35_Node000033_Node000034"><a xlink:title=" ">
<path fill="none" stroke="#63b8ff" d="M776.2,-31.62C791.99,-31.62 810.15,-31.62 826.26,-31.62"/>
<polygon fill="#63b8ff" stroke="#63b8ff" points="826.03,-35.13 836.03,-31.62 826.03,-28.13 826.03,-35.13"/>
</a>
</g>
</g>
<!-- Node36&#45;&gt;Node3 -->
<g id="edge38_Node000036_Node000003" class="edge">
<title>Node36&#45;&gt;Node3</title>
<g id="a_edge38_Node000036_Node000003"><a xlink:title=" ">
<path fill="none" stroke="#63b8ff" d="M283.55,-640.7C288.98,-642.87 294.28,-645.48 299,-648.62 320.03,-662.63 313.89,-678.75 335,-692.62 337.59,-694.33 340.34,-695.88 343.18,-697.3"/>
<polygon fill="#63b8ff" stroke="#63b8ff" points="341.56,-700.84 352.13,-701.6 344.34,-694.42 341.56,-700.84"/>
</a>
</g>
</g>
</g>
</svg>
