<?xml version="1.0" encoding="UTF-8" standalone="no"?>
<!DOCTYPE svg PUBLIC "-//W3C//DTD SVG 1.1//EN"
 "http://www.w3.org/Graphics/SVG/1.1/DTD/svg11.dtd">
<!-- Generated by graphviz version 8.1.0 (20230707.0739)
 -->
<!-- Title: Slic3r::CalibPressureAdvancePattern::draw_line Pages: 1 -->
<!--zoomable 476 -->

<svg id="main" version="1.1" xmlns="http://www.w3.org/2000/svg" xmlns:xlink="http://www.w3.org/1999/xlink" xml:space="preserve" onload="init(evt)">
<style type="text/css"><![CDATA[
.node, .edge {opacity: 0.7;}
.node.selected, .edge.selected {opacity: 1;}
.edge:hover path { stroke: red; }
.edge:hover polygon { stroke: red; fill: red; }
]]></style>

<defs>
  <circle id="rim" cx="0" cy="0" r="7"/>
  <circle id="rim2" cx="0" cy="0" r="3.5"/>
  <g id="zoomPlus">
    <use xlink:href="#rim" fill="#404040"><set attributeName="fill" to="#808080" begin="zoomplus.mouseover" end="zoomplus.mouseout"/></use>
    <path d="M-4,0h8M0,-4v8" fill="none" stroke="white" stroke-width="1.5" pointer-events="none"/>
  </g>
  <g id="zoomMin">
    <use xlink:href="#rim" fill="#404040"><set attributeName="fill" to="#808080" begin="zoomminus.mouseover" end="zoomminus.mouseout"/></use>
    <path d="M-4,0h8" fill="none" stroke="white" stroke-width="1.5" pointer-events="none"/>
  </g>
  <g id="arrowUp" transform="translate(30 24)">
    <use xlink:href="#rim"/>
    <path pointer-events="none" fill="none" stroke="white" stroke-width="1.5" d="M0,-3.0v7 M-2.5,-0.5L0,-3.0L2.5,-0.5"/>
  </g>
  <g id="arrowRight" transform="rotate(90) translate(36 -43)">
    <use xlink:href="#rim"/>
    <path pointer-events="none" fill="none" stroke="white" stroke-width="1.5" d="M0,-3.0v7 M-2.5,-0.5L0,-3.0L2.5,-0.5"/>
  </g>
  <g id="arrowDown" transform="rotate(180) translate(-30 -48)">
    <use xlink:href="#rim"/>
    <path pointer-events="none" fill="none" stroke="white" stroke-width="1.5" d="M0,-3.0v7 M-2.5,-0.5L0,-3.0L2.5,-0.5"/>
  </g>
  <g id="arrowLeft" transform="rotate(270) translate(-36 17)">
    <use xlink:href="#rim"/>
    <path pointer-events="none" fill="none" stroke="white" stroke-width="1.5" d="M0,-3.0v7 M-2.5,-0.5L0,-3.0L2.5,-0.5"/>
  </g>
  <g id="resetDef">
    <use xlink:href="#rim2" fill="#404040"><set attributeName="fill" to="#808080" begin="reset.mouseover" end="reset.mouseout"/></use>
  </g>
</defs>
<script type="application/ecmascript">
var viewWidth = 665;
var viewHeight = 476;
var sectionId = 'dynsection-14';
</script>
<script type="application/ecmascript" xlink:href="../../svg.min.js"/>
<svg id="graph" class="graph">
<g id="viewport">
<title>Slic3r::CalibPressureAdvancePattern::draw_line</title>
<!-- Node1 -->
<g id="Node000001" class="node">
<title>Node1</title>
<g id="a_Node000001"><a xlink:title=" ">
<polygon fill="#999999" stroke="#666666" points="146.5,-165.5 0,-165.5 0,-135 146.5,-135 146.5,-165.5"/>
<text text-anchor="start" x="8" y="-152" font-family="Helvetica,sans-Serif" font-size="10.00">Slic3r::CalibPressureAdvance</text>
<text text-anchor="middle" x="73.25" y="-140.75" font-family="Helvetica,sans-Serif" font-size="10.00">Pattern::draw_line</text>
</a>
</g>
</g>
<!-- Node2 -->
<g id="Node000002" class="node">
<title>Node2</title>
<g id="a_Node000002"><a xlink:href="../../db/da5/class_slic3r_1_1_calib_pressure_advance.html#adb54fae16f0d0d6e2e60ff2098c053f9" target="_top" xlink:title=" ">
<polygon fill="white" stroke="#666666" points="329,-436.5 182.5,-436.5 182.5,-406 329,-406 329,-436.5"/>
<text text-anchor="start" x="190.5" y="-423" font-family="Helvetica,sans-Serif" font-size="10.00">Slic3r::CalibPressureAdvance</text>
<text text-anchor="middle" x="255.75" y="-411.75" font-family="Helvetica,sans-Serif" font-size="10.00">::e_per_mm</text>
</a>
</g>
</g>
<!-- Node1&#45;&gt;Node2 -->
<g id="edge1_Node000001_Node000002" class="edge">
<title>Node1&#45;&gt;Node2</title>
<g id="a_edge1_Node000001_Node000002"><a xlink:title=" ">
<path fill="none" stroke="#63b8ff" d="M84.31,-165.78C103.33,-195.1 145.93,-260.57 182.5,-315.25 201.18,-343.18 222.94,-375.01 237.66,-396.44"/>
<polygon fill="#63b8ff" stroke="#63b8ff" points="235.34,-398.25 243.89,-404.51 241.11,-394.28 235.34,-398.25"/>
</a>
</g>
</g>
<!-- Node5 -->
<g id="Node000005" class="node">
<title>Node5</title>
<g id="a_Node000005"><a xlink:href="../../da/d7a/class_slic3r_1_1_g_code_writer.html#a6f4047bafbb6187785ad1f9fbec8cc2d" target="_top" xlink:title=" ">
<polygon fill="white" stroke="#666666" points="307.25,-214.5 204.25,-214.5 204.25,-184 307.25,-184 307.25,-214.5"/>
<text text-anchor="start" x="212.25" y="-201" font-family="Helvetica,sans-Serif" font-size="10.00">Slic3r::GCodeWriter</text>
<text text-anchor="middle" x="255.75" y="-189.75" font-family="Helvetica,sans-Serif" font-size="10.00">::extrude_to_xy</text>
</a>
</g>
</g>
<!-- Node1&#45;&gt;Node5 -->
<g id="edge4_Node000001_Node000005" class="edge">
<title>Node1&#45;&gt;Node5</title>
<g id="a_edge4_Node000001_Node000005"><a xlink:title=" ">
<path fill="none" stroke="#63b8ff" d="M131.86,-165.89C151.45,-171.21 173.41,-177.17 193.29,-182.57"/>
<polygon fill="#63b8ff" stroke="#63b8ff" points="192.21,-186.17 202.78,-185.41 194.05,-179.42 192.21,-186.17"/>
</a>
</g>
</g>
<!-- Node14 -->
<g id="Node000014" class="node">
<title>Node14</title>
<g id="a_Node000014"><a xlink:href="../../d9/d0d/class_slic3r_1_1_config_option_vector.html#a67755169c58c83f3fbc85d4fa3e30837" target="_top" xlink:title=" ">
<polygon fill="white" stroke="#666666" points="321.88,-165.5 189.62,-165.5 189.62,-135 321.88,-135 321.88,-165.5"/>
<text text-anchor="start" x="197.62" y="-152" font-family="Helvetica,sans-Serif" font-size="10.00">Slic3r::ConfigOptionVector</text>
<text text-anchor="middle" x="255.75" y="-140.75" font-family="Helvetica,sans-Serif" font-size="10.00">::get_at</text>
</a>
</g>
</g>
<!-- Node1&#45;&gt;Node14 -->
<g id="edge14_Node000001_Node000014" class="edge">
<title>Node1&#45;&gt;Node14</title>
<g id="a_edge14_Node000001_Node000014"><a xlink:title=" ">
<path fill="none" stroke="#63b8ff" d="M146.89,-150.25C157.28,-150.25 168,-150.25 178.47,-150.25"/>
<polygon fill="#63b8ff" stroke="#63b8ff" points="178.26,-153.75 188.26,-150.25 178.26,-146.75 178.26,-153.75"/>
</a>
</g>
</g>
<!-- Node15 -->
<g id="Node000015" class="node">
<title>Node15</title>
<g id="a_Node000015"><a xlink:href="../../dd/df4/class_slic3r_1_1_calib_pressure_advance_pattern.html#a28e2b1a49ba24b877c25231f60756e2d" target="_top" xlink:title=" ">
<polygon fill="white" stroke="#666666" points="329,-116.5 182.5,-116.5 182.5,-86 329,-86 329,-116.5"/>
<text text-anchor="start" x="190.5" y="-103" font-family="Helvetica,sans-Serif" font-size="10.00">Slic3r::CalibPressureAdvance</text>
<text text-anchor="middle" x="255.75" y="-91.75" font-family="Helvetica,sans-Serif" font-size="10.00">Pattern::get_distance</text>
</a>
</g>
</g>
<!-- Node1&#45;&gt;Node15 -->
<g id="edge15_Node000001_Node000015" class="edge">
<title>Node1&#45;&gt;Node15</title>
<g id="a_edge15_Node000001_Node000015"><a xlink:title=" ">
<path fill="none" stroke="#63b8ff" d="M131.86,-134.61C149.19,-129.91 168.39,-124.7 186.35,-119.82"/>
<polygon fill="#63b8ff" stroke="#63b8ff" points="187.03,-122.99 195.76,-116.99 185.19,-116.23 187.03,-122.99"/>
</a>
</g>
</g>
<!-- Node16 -->
<g id="Node000016" class="node">
<title>Node16</title>
<g id="a_Node000016"><a xlink:href="../../de/db8/namespace_slic3r.html#a1eea52f5cabe9f6172fcec07fb0fed76" target="_top" xlink:title=" ">
<polygon fill="white" stroke="#666666" points="292.25,-67.88 219.25,-67.88 219.25,-48.62 292.25,-48.62 292.25,-67.88"/>
<text text-anchor="middle" x="255.75" y="-54.38" font-family="Helvetica,sans-Serif" font-size="10.00">Slic3r::length</text>
</a>
</g>
</g>
<!-- Node1&#45;&gt;Node16 -->
<g id="edge16_Node000001_Node000016" class="edge">
<title>Node1&#45;&gt;Node16</title>
<g id="a_edge16_Node000001_Node000016"><a xlink:title=" ">
<path fill="none" stroke="#63b8ff" d="M93.02,-134.68C113.73,-118.23 148.64,-92.59 182.5,-77.25 190.65,-73.56 199.65,-70.48 208.45,-67.95"/>
<polygon fill="#63b8ff" stroke="#63b8ff" points="209.26,-71.09 218.02,-65.13 207.46,-64.32 209.26,-71.09"/>
</a>
</g>
</g>
<!-- Node17 -->
<g id="Node000017" class="node">
<title>Node17</title>
<g id="a_Node000017"><a xlink:href="../../d9/d06/class_slic3r_1_1_config_base.html#a423121494459dae7858bc9d665f8cb4f" target="_top" xlink:title=" ">
<polygon fill="white" stroke="#666666" points="304.62,-30.5 206.88,-30.5 206.88,0 304.62,0 304.62,-30.5"/>
<text text-anchor="start" x="214.88" y="-17" font-family="Helvetica,sans-Serif" font-size="10.00">Slic3r::ConfigBase</text>
<text text-anchor="middle" x="255.75" y="-5.75" font-family="Helvetica,sans-Serif" font-size="10.00">::option</text>
</a>
</g>
</g>
<!-- Node1&#45;&gt;Node17 -->
<g id="edge17_Node000001_Node000017" class="edge">
<title>Node1&#45;&gt;Node17</title>
<g id="a_edge17_Node000001_Node000017"><a xlink:title=" ">
<path fill="none" stroke="#63b8ff" d="M85.45,-134.7C103.37,-110.88 140.75,-65.39 182.5,-39.25 186.89,-36.5 191.63,-34.03 196.51,-31.82"/>
<polygon fill="#63b8ff" stroke="#63b8ff" points="197.74,-34.69 205.65,-27.64 195.07,-28.22 197.74,-34.69"/>
</a>
</g>
</g>
<!-- Node19 -->
<g id="Node000019" class="node">
<title>Node19</title>
<g id="a_Node000019"><a xlink:href="../../da/d7a/class_slic3r_1_1_g_code_writer.html#aa00139d491b6a9a36163a4337dc9630d" target="_top" xlink:title=" ">
<polygon fill="white" stroke="#666666" points="307.25,-306.5 204.25,-306.5 204.25,-276 307.25,-276 307.25,-306.5"/>
<text text-anchor="start" x="212.25" y="-293" font-family="Helvetica,sans-Serif" font-size="10.00">Slic3r::GCodeWriter</text>
<text text-anchor="middle" x="255.75" y="-281.75" font-family="Helvetica,sans-Serif" font-size="10.00">::set_speed</text>
</a>
</g>
</g>
<!-- Node1&#45;&gt;Node19 -->
<g id="edge19_Node000001_Node000019" class="edge">
<title>Node1&#45;&gt;Node19</title>
<g id="a_edge19_Node000001_Node000019"><a xlink:title=" ">
<path fill="none" stroke="#63b8ff" d="M94.26,-165.88C126.38,-190.97 189.56,-240.33 226.35,-269.06"/>
<polygon fill="#63b8ff" stroke="#63b8ff" points="223.62,-272.15 233.65,-275.55 227.93,-266.64 223.62,-272.15"/>
</a>
</g>
</g>
<!-- Node3 -->
<g id="Node000003" class="node">
<title>Node3</title>
<g id="a_Node000003"><a xlink:href="../../de/db8/namespace_slic3r.html#a3fc0fbbcb45d8a2fef27e26e1289ec21" target="_top" xlink:title=" ">
<polygon fill="white" stroke="#666666" points="482.62,-430.88 383.38,-430.88 383.38,-411.62 482.62,-411.62 482.62,-430.88"/>
<text text-anchor="middle" x="433" y="-417.38" font-family="Helvetica,sans-Serif" font-size="10.00">Slic3r::layer_height</text>
</a>
</g>
</g>
<!-- Node2&#45;&gt;Node3 -->
<g id="edge2_Node000002_Node000003" class="edge">
<title>Node2&#45;&gt;Node3</title>
<g id="a_edge2_Node000002_Node000003"><a xlink:title=" ">
<path fill="none" stroke="#63b8ff" d="M329.3,-421.25C343.56,-421.25 358.38,-421.25 372.17,-421.25"/>
<polygon fill="#63b8ff" stroke="#63b8ff" points="371.98,-424.75 381.98,-421.25 371.98,-417.75 371.98,-424.75"/>
</a>
</g>
</g>
<!-- Node4 -->
<g id="Node000004" class="node">
<title>Node4</title>
<g id="a_Node000004"><a xlink:href="../../d6/d0f/class_slic3r_1_1_flow.html#ab8915dc7b1902bef7ebe2c323346766f" target="_top" xlink:title=" ">
<polygon fill="white" stroke="#666666" points="501,-467.88 365,-467.88 365,-448.62 501,-448.62 501,-467.88"/>
<text text-anchor="middle" x="433" y="-454.38" font-family="Helvetica,sans-Serif" font-size="10.00">Slic3r::Flow::mm3_per_mm</text>
</a>
</g>
</g>
<!-- Node2&#45;&gt;Node4 -->
<g id="edge3_Node000002_Node000004" class="edge">
<title>Node2&#45;&gt;Node4</title>
<g id="a_edge3_Node000002_Node000004"><a xlink:title=" ">
<path fill="none" stroke="#63b8ff" d="M329.3,-436.57C344.08,-439.69 359.45,-442.93 373.66,-445.93"/>
<polygon fill="#63b8ff" stroke="#63b8ff" points="372.77,-449.53 383.27,-448.17 374.21,-442.68 372.77,-449.53"/>
</a>
</g>
</g>
<!-- Node6 -->
<g id="Node000006" class="node">
<title>Node6</title>
<g id="a_Node000006"><a xlink:href="../../d3/dff/class_slic3r_1_1_extruder.html#a787b9be14447e4a7167ff04e833ed725" target="_top" xlink:title=" ">
<polygon fill="white" stroke="#666666" points="481.12,-122.88 384.88,-122.88 384.88,-103.62 481.12,-103.62 481.12,-122.88"/>
<text text-anchor="middle" x="433" y="-109.38" font-family="Helvetica,sans-Serif" font-size="10.00">Slic3r::Extruder::E</text>
</a>
</g>
</g>
<!-- Node5&#45;&gt;Node6 -->
<g id="edge5_Node000005_Node000006" class="edge">
<title>Node5&#45;&gt;Node6</title>
<g id="a_edge5_Node000005_Node000006"><a xlink:title=" ">
<path fill="none" stroke="#63b8ff" d="M307.42,-185.67C314.99,-182.54 322.44,-178.77 329,-174.25 349.52,-160.11 343.99,-144.66 365,-131.25 367.99,-129.34 371.19,-127.63 374.5,-126.1"/>
<polygon fill="#63b8ff" stroke="#63b8ff" points="375.69,-128.99 383.68,-122.03 373.09,-122.49 375.69,-128.99"/>
</a>
</g>
</g>
<!-- Node7 -->
<g id="Node000007" class="node">
<title>Node7</title>
<g id="a_Node000007"><a xlink:href="../../d2/d4e/class_slic3r_1_1_g_code_formatter.html#a01f592e83434d781ee9b40b95ebb91e0" target="_top" xlink:title=" ">
<polygon fill="white" stroke="#666666" points="492.75,-257.5 373.25,-257.5 373.25,-227 492.75,-227 492.75,-257.5"/>
<text text-anchor="start" x="381.25" y="-244" font-family="Helvetica,sans-Serif" font-size="10.00">Slic3r::GCodeFormatter</text>
<text text-anchor="middle" x="433" y="-232.75" font-family="Helvetica,sans-Serif" font-size="10.00">::emit_comment</text>
</a>
</g>
</g>
<!-- Node5&#45;&gt;Node7 -->
<g id="edge6_Node000005_Node000007" class="edge">
<title>Node5&#45;&gt;Node7</title>
<g id="a_edge6_Node000005_Node000007"><a xlink:title=" ">
<path fill="none" stroke="#63b8ff" d="M307.44,-211.69C324.51,-215.88 343.87,-220.63 362.15,-225.11"/>
<polygon fill="#63b8ff" stroke="#63b8ff" points="361.22,-228.73 371.76,-227.72 362.89,-221.93 361.22,-228.73"/>
</a>
</g>
</g>
<!-- Node9 -->
<g id="Node000009" class="node">
<title>Node9</title>
<g id="a_Node000009"><a xlink:href="../../d2/d4e/class_slic3r_1_1_g_code_formatter.html#a919f6b4fbe535d8d5a7d47e3c48915d7" target="_top" xlink:title=" ">
<polygon fill="white" stroke="#666666" points="492.75,-208.5 373.25,-208.5 373.25,-178 492.75,-178 492.75,-208.5"/>
<text text-anchor="start" x="381.25" y="-195" font-family="Helvetica,sans-Serif" font-size="10.00">Slic3r::GCodeFormatter</text>
<text text-anchor="middle" x="433" y="-183.75" font-family="Helvetica,sans-Serif" font-size="10.00">::emit_e</text>
</a>
</g>
</g>
<!-- Node5&#45;&gt;Node9 -->
<g id="edge8_Node000005_Node000009" class="edge">
<title>Node5&#45;&gt;Node9</title>
<g id="a_edge8_Node000005_Node000009"><a xlink:title=" ">
<path fill="none" stroke="#63b8ff" d="M307.44,-197.51C324.43,-196.93 343.69,-196.27 361.89,-195.65"/>
<polygon fill="#63b8ff" stroke="#63b8ff" points="361.89,-199.12 371.76,-195.28 361.65,-192.12 361.89,-199.12"/>
</a>
</g>
</g>
<!-- Node11 -->
<g id="Node000011" class="node">
<title>Node11</title>
<g id="a_Node000011"><a xlink:href="../../d2/d4e/class_slic3r_1_1_g_code_formatter.html#a0f3f7668fd70af3e438f7f20fb142f07" target="_top" xlink:title=" ">
<polygon fill="white" stroke="#666666" points="492.75,-85.5 373.25,-85.5 373.25,-55 492.75,-55 492.75,-85.5"/>
<text text-anchor="start" x="381.25" y="-72" font-family="Helvetica,sans-Serif" font-size="10.00">Slic3r::GCodeFormatter</text>
<text text-anchor="middle" x="433" y="-60.75" font-family="Helvetica,sans-Serif" font-size="10.00">::emit_xy</text>
</a>
</g>
</g>
<!-- Node5&#45;&gt;Node11 -->
<g id="edge10_Node000005_Node000011" class="edge">
<title>Node5&#45;&gt;Node11</title>
<g id="a_edge10_Node000005_Node000011"><a xlink:title=" ">
<path fill="none" stroke="#63b8ff" d="M307.5,-187.67C315.32,-184.27 322.83,-179.89 329,-174.25 357.78,-147.94 336.36,-120.71 365,-94.25 365.86,-93.45 366.75,-92.68 367.67,-91.94"/>
<polygon fill="#63b8ff" stroke="#63b8ff" points="369.22,-94.43 375.49,-85.89 365.27,-88.66 369.22,-94.43"/>
</a>
</g>
</g>
<!-- Node12 -->
<g id="Node000012" class="node">
<title>Node12</title>
<g id="a_Node000012"><a xlink:href="../../d3/dff/class_slic3r_1_1_extruder.html#a542fc7938e5b9a1ab5d5c43a9f7b9b9e" target="_top" xlink:title=" ">
<polygon fill="white" stroke="#666666" points="493.88,-159.88 372.12,-159.88 372.12,-140.62 493.88,-140.62 493.88,-159.88"/>
<text text-anchor="middle" x="433" y="-146.38" font-family="Helvetica,sans-Serif" font-size="10.00">Slic3r::Extruder::extrude</text>
</a>
</g>
</g>
<!-- Node5&#45;&gt;Node12 -->
<g id="edge12_Node000005_Node000012" class="edge">
<title>Node5&#45;&gt;Node12</title>
<g id="a_edge12_Node000005_Node000012"><a xlink:title=" ">
<path fill="none" stroke="#63b8ff" d="M307.44,-185.08C332.1,-178.18 361.53,-169.95 385.59,-163.23"/>
<polygon fill="#63b8ff" stroke="#63b8ff" points="386.2,-166.41 394.89,-160.35 384.31,-159.67 386.2,-166.41"/>
</a>
</g>
</g>
<!-- Node13 -->
<g id="Node000013" class="node">
<title>Node13</title>
<g id="a_Node000013"><a xlink:href="../../d2/d4e/class_slic3r_1_1_g_code_formatter.html#ad8074677fe3bed2945c9257b46a0208b" target="_top" xlink:title=" ">
<polygon fill="white" stroke="#666666" points="492.75,-306.5 373.25,-306.5 373.25,-276 492.75,-276 492.75,-306.5"/>
<text text-anchor="start" x="381.25" y="-293" font-family="Helvetica,sans-Serif" font-size="10.00">Slic3r::GCodeFormatter</text>
<text text-anchor="middle" x="433" y="-281.75" font-family="Helvetica,sans-Serif" font-size="10.00">::string</text>
</a>
</g>
</g>
<!-- Node5&#45;&gt;Node13 -->
<g id="edge13_Node000005_Node000013" class="edge">
<title>Node5&#45;&gt;Node13</title>
<g id="a_edge13_Node000005_Node000013"><a xlink:title=" ">
<path fill="none" stroke="#63b8ff" d="M279.23,-214.99C300.61,-229.52 334.04,-251.08 365,-266.25 368.72,-268.07 372.61,-269.84 376.56,-271.55"/>
<polygon fill="#63b8ff" stroke="#63b8ff" points="374.86,-275.05 385.44,-275.63 377.53,-268.58 374.86,-275.05"/>
</a>
</g>
</g>
<!-- Node8 -->
<g id="Node000008" class="node">
<title>Node8</title>
<g id="a_Node000008"><a xlink:href="../../d2/d4e/class_slic3r_1_1_g_code_formatter.html#a16a5ca6d0ff9193d047f80913e5b78de" target="_top" xlink:title=" ">
<polygon fill="white" stroke="#666666" points="656.5,-327.5 537,-327.5 537,-297 656.5,-297 656.5,-327.5"/>
<text text-anchor="start" x="545" y="-314" font-family="Helvetica,sans-Serif" font-size="10.00">Slic3r::GCodeFormatter</text>
<text text-anchor="middle" x="596.75" y="-302.75" font-family="Helvetica,sans-Serif" font-size="10.00">::emit_string</text>
</a>
</g>
</g>
<!-- Node7&#45;&gt;Node8 -->
<g id="edge7_Node000007_Node000008" class="edge">
<title>Node7&#45;&gt;Node8</title>
<g id="a_edge7_Node000007_Node000008"><a xlink:title=" ">
<path fill="none" stroke="#63b8ff" d="M477.82,-257.98C485.59,-260.95 493.57,-264.11 501,-267.25 518.78,-274.77 538.08,-283.78 554.59,-291.75"/>
<polygon fill="#63b8ff" stroke="#63b8ff" points="552.95,-295.33 563.48,-296.56 556.01,-289.04 552.95,-295.33"/>
</a>
</g>
</g>
<!-- Node10 -->
<g id="Node000010" class="node">
<title>Node10</title>
<g id="a_Node000010"><a xlink:href="../../d2/d4e/class_slic3r_1_1_g_code_formatter.html#ab1b1061046d965edbad2b03ddcd9ac35" target="_top" xlink:title=" ">
<polygon fill="white" stroke="#666666" points="656.5,-208.5 537,-208.5 537,-178 656.5,-178 656.5,-208.5"/>
<text text-anchor="start" x="545" y="-195" font-family="Helvetica,sans-Serif" font-size="10.00">Slic3r::GCodeFormatter</text>
<text text-anchor="middle" x="596.75" y="-183.75" font-family="Helvetica,sans-Serif" font-size="10.00">::emit_axis</text>
</a>
</g>
</g>
<!-- Node9&#45;&gt;Node10 -->
<g id="edge9_Node000009_Node000010" class="edge">
<title>Node9&#45;&gt;Node10</title>
<g id="a_edge9_Node000009_Node000010"><a xlink:title=" ">
<path fill="none" stroke="#63b8ff" d="M492.85,-193.25C503.56,-193.25 514.82,-193.25 525.8,-193.25"/>
<polygon fill="#63b8ff" stroke="#63b8ff" points="525.67,-196.75 535.67,-193.25 525.67,-189.75 525.67,-196.75"/>
</a>
</g>
</g>
<!-- Node11&#45;&gt;Node10 -->
<g id="edge11_Node000011_Node000010" class="edge">
<title>Node11&#45;&gt;Node10</title>
<g id="a_edge11_Node000011_Node000010"><a xlink:title=" ">
<path fill="none" stroke="#63b8ff" d="M485.66,-85.96C491.01,-88.4 496.23,-91.16 501,-94.25 532.22,-114.51 560.67,-146.98 578.07,-169.17"/>
<polygon fill="#63b8ff" stroke="#63b8ff" points="575.75,-170.9 584.62,-176.7 581.3,-166.63 575.75,-170.9"/>
</a>
</g>
</g>
<!-- Node18 -->
<g id="Node000018" class="node">
<title>Node18</title>
<g id="a_Node000018"><a xlink:href="../../d9/d06/class_slic3r_1_1_config_base.html#a699680b37bd3c116736fd1a2ec831728" target="_top" xlink:title=" ">
<polygon fill="white" stroke="#666666" points="481.88,-30.5 384.12,-30.5 384.12,0 481.88,0 481.88,-30.5"/>
<text text-anchor="start" x="392.12" y="-17" font-family="Helvetica,sans-Serif" font-size="10.00">Slic3r::ConfigBase</text>
<text text-anchor="middle" x="433" y="-5.75" font-family="Helvetica,sans-Serif" font-size="10.00">::optptr</text>
</a>
</g>
</g>
<!-- Node17&#45;&gt;Node18 -->
<g id="edge18_Node000017_Node000018" class="edge">
<title>Node17&#45;&gt;Node18</title>
<g id="a_edge18_Node000017_Node000018"><a xlink:title=" ">
<path fill="none" stroke="#63b8ff" d="M305.1,-15.25C326.08,-15.25 350.84,-15.25 372.89,-15.25"/>
<polygon fill="#63b8ff" stroke="#63b8ff" points="372.81,-18.75 382.81,-15.25 372.81,-11.75 372.81,-18.75"/>
</a>
</g>
</g>
<!-- Node19&#45;&gt;Node7 -->
<g id="edge20_Node000019_Node000007" class="edge">
<title>Node19&#45;&gt;Node7</title>
<g id="a_edge20_Node000019_Node000007"><a xlink:title=" ">
<path fill="none" stroke="#63b8ff" d="M307.44,-277.08C325.52,-272.02 346.17,-266.25 365.39,-260.87"/>
<polygon fill="#63b8ff" stroke="#63b8ff" points="366.21,-264 374.89,-257.94 364.32,-257.26 366.21,-264"/>
</a>
</g>
</g>
<!-- Node19&#45;&gt;Node8 -->
<g id="edge23_Node000019_Node000008" class="edge">
<title>Node19&#45;&gt;Node8</title>
<g id="a_edge23_Node000019_Node000008"><a xlink:title=" ">
<path fill="none" stroke="#63b8ff" d="M273.07,-306.93C292.92,-324.82 328.37,-353.05 365,-364.25 422.8,-381.92 442.45,-379.26 501,-364.25 524.37,-358.26 548.17,-345.17 566.07,-333.62"/>
<polygon fill="#63b8ff" stroke="#63b8ff" points="567.47,-336.22 573.86,-327.77 563.59,-330.4 567.47,-336.22"/>
</a>
</g>
</g>
<!-- Node19&#45;&gt;Node13 -->
<g id="edge24_Node000019_Node000013" class="edge">
<title>Node19&#45;&gt;Node13</title>
<g id="a_edge24_Node000019_Node000013"><a xlink:title=" ">
<path fill="none" stroke="#63b8ff" d="M307.44,-291.25C324.43,-291.25 343.69,-291.25 361.89,-291.25"/>
<polygon fill="#63b8ff" stroke="#63b8ff" points="361.76,-294.75 371.76,-291.25 361.76,-287.75 361.76,-294.75"/>
</a>
</g>
</g>
<!-- Node20 -->
<g id="Node000020" class="node">
<title>Node20</title>
<g id="a_Node000020"><a xlink:href="../../d2/d4e/class_slic3r_1_1_g_code_formatter.html#a450bca7f0619a10ddf302f7584262de2" target="_top" xlink:title=" ">
<polygon fill="white" stroke="#666666" points="492.75,-355.5 373.25,-355.5 373.25,-325 492.75,-325 492.75,-355.5"/>
<text text-anchor="start" x="381.25" y="-342" font-family="Helvetica,sans-Serif" font-size="10.00">Slic3r::GCodeFormatter</text>
<text text-anchor="middle" x="433" y="-330.75" font-family="Helvetica,sans-Serif" font-size="10.00">::emit_f</text>
</a>
</g>
</g>
<!-- Node19&#45;&gt;Node20 -->
<g id="edge21_Node000019_Node000020" class="edge">
<title>Node19&#45;&gt;Node20</title>
<g id="a_edge21_Node000019_Node000020"><a xlink:title=" ">
<path fill="none" stroke="#63b8ff" d="M307.44,-305.42C325.52,-310.48 346.17,-316.25 365.39,-321.63"/>
<polygon fill="#63b8ff" stroke="#63b8ff" points="364.32,-325.24 374.89,-324.56 366.21,-318.5 364.32,-325.24"/>
</a>
</g>
</g>
<!-- Node20&#45;&gt;Node10 -->
<g id="edge22_Node000020_Node000010" class="edge">
<title>Node20&#45;&gt;Node10</title>
<g id="a_edge22_Node000020_Node000010"><a xlink:title=" ">
<path fill="none" stroke="#63b8ff" d="M485.31,-324.55C490.84,-321.86 496.2,-318.78 501,-315.25 536.99,-288.8 566.25,-245.13 582.31,-217.84"/>
<polygon fill="#63b8ff" stroke="#63b8ff" points="585.68,-220 587.62,-209.59 579.61,-216.52 585.68,-220"/>
</a>
</g>
</g>
</g>
</svg>

<g id="navigator" transform="translate(0 0)" fill="#404254">
  <rect fill="#f2f5e9" fill-opacity="0.5" stroke="#606060" stroke-width=".5" x="0" y="0" width="60" height="60"/>
  <use id="zoomplus" xlink:href="#zoomPlus" x="17" y="9" onmousedown="handleZoom(evt,'in')"/>
  <use id="zoomminus" xlink:href="#zoomMin" x="42" y="9" onmousedown="handleZoom(evt,'out')"/>
  <use id="reset" xlink:href="#resetDef" x="30" y="36" onmousedown="handleReset()"/>
   <use id="arrowup" xlink:href="#arrowUp" x="0" y="0" onmousedown="handlePan(0,-1)"/>
  <use id="arrowright" xlink:href="#arrowRight" x="0" y="0" onmousedown="handlePan(1,0)"/>
  <use id="arrowdown" xlink:href="#arrowDown" x="0" y="0" onmousedown="handlePan(0,1)"/>
  <use id="arrowleft" xlink:href="#arrowLeft" x="0" y="0" onmousedown="handlePan(-1,0)"/>
</g>
<svg viewBox="0 0 15 15" width="100%" height="30px" preserveAspectRatio="xMaxYMin meet">
 <g id="arrow_out" transform="scale(0.3 0.3)">
  <a xlink:href="class_slic3r_1_1_calib_pressure_advance_pattern_a5227d7eec7f66ed1777b2ca36fe42981_cgraph_org.svg" target="_base">
   <rect id="button" ry="5" rx="5" y="6" x="6" height="38" width="38"
        fill="#f2f5e9" fill-opacity="0.5" stroke="#606060" stroke-width="1.0"/>
   <path id="arrow"
     d="M 11.500037,31.436501 C 11.940474,20.09759 22.043105,11.32322 32.158766,21.979434 L 37.068811,17.246167 C 37.068811,17.246167 37.088388,32 37.088388,32 L 22.160133,31.978069 C 22.160133,31.978069 26.997745,27.140456 26.997745,27.140456 C 18.528582,18.264221 13.291696,25.230495 11.500037,31.436501 z"
     style="fill:#404040;"/>
  </a>
 </g>
</svg>

<style type='text/css'>
<![CDATA[
[data-mouse-over-selected='false'] { opacity: 0.7; }
[data-mouse-over-selected='true']  { opacity: 1.0; }
]]>
</style>
<script type="application/ecmascript"><![CDATA[
document.addEventListener('DOMContentLoaded', (event) => {
  highlightEdges();
  highlightAdjacentNodes();
});
]]></script>
</svg>
