<?xml version="1.0" encoding="UTF-8" standalone="no"?>
<!DOCTYPE svg PUBLIC "-//W3C//DTD SVG 1.1//EN"
 "http://www.w3.org/Graphics/SVG/1.1/DTD/svg11.dtd">
<!-- Generated by graphviz version 8.1.0 (20230707.0739)
 -->
<!-- Title: Slic3r::GUI::DownPluginFrame::OnScriptMessage Pages: 1 -->
<svg width="1027pt" height="216pt"
 viewBox="0.00 0.00 1027.25 215.88" xmlns="http://www.w3.org/2000/svg" xmlns:xlink="http://www.w3.org/1999/xlink">
<g id="graph0" class="graph" transform="scale(1 1) rotate(0) translate(4 211.88)">
<title>Slic3r::GUI::DownPluginFrame::OnScriptMessage</title>
<!-- Node1 -->
<g id="Node000001" class="node">
<title>Node1</title>
<g id="a_Node000001"><a xlink:title=" ">
<polygon fill="#999999" stroke="#666666" points="151,-103.5 0,-103.5 0,-73 151,-73 151,-103.5"/>
<text text-anchor="start" x="8" y="-90" font-family="Helvetica,sans-Serif" font-size="10.00">Slic3r::GUI::DownPluginFrame</text>
<text text-anchor="middle" x="75.5" y="-78.75" font-family="Helvetica,sans-Serif" font-size="10.00">::OnScriptMessage</text>
</a>
</g>
</g>
<!-- Node2 -->
<g id="Node000002" class="node">
<title>Node2</title>
<g id="a_Node000002"><a xlink:href="../../d9/d45/namespace_slic3r_1_1_g_u_i.html#a024c344397469df2914396b0104452c7" target="_top" xlink:title=" ">
<polygon fill="white" stroke="#666666" points="315.12,-177.5 209.88,-177.5 209.88,-147 315.12,-147 315.12,-177.5"/>
<text text-anchor="start" x="217.88" y="-164" font-family="Helvetica,sans-Serif" font-size="10.00">Slic3r::GUI::desktop</text>
<text text-anchor="middle" x="262.5" y="-152.75" font-family="Helvetica,sans-Serif" font-size="10.00">_open_any_folder</text>
</a>
</g>
</g>
<!-- Node1&#45;&gt;Node2 -->
<g id="edge1_Node000001_Node000002" class="edge">
<title>Node1&#45;&gt;Node2</title>
<g id="a_edge1_Node000001_Node000002"><a xlink:title=" ">
<path fill="none" stroke="#63b8ff" d="M109.52,-103.87C131.31,-113.92 160.59,-126.99 187,-137.25 192.04,-139.21 197.3,-141.16 202.6,-143.06"/>
<polygon fill="#63b8ff" stroke="#63b8ff" points="201.18,-146.62 211.77,-146.63 203.5,-140.01 201.18,-146.62"/>
</a>
</g>
</g>
<!-- Node5 -->
<g id="Node000005" class="node">
<title>Node5</title>
<g id="a_Node000005"><a xlink:href="../../df/d52/class_slic3r_1_1_g_u_i_1_1_down_plugin_frame.html#a4d95d07af4ed676d80eec401f6a1790b" target="_top" xlink:title=" ">
<polygon fill="white" stroke="#666666" points="338,-128.5 187,-128.5 187,-98 338,-98 338,-128.5"/>
<text text-anchor="start" x="195" y="-115" font-family="Helvetica,sans-Serif" font-size="10.00">Slic3r::GUI::DownPluginFrame</text>
<text text-anchor="middle" x="262.5" y="-103.75" font-family="Helvetica,sans-Serif" font-size="10.00">::DownloadPlugin</text>
</a>
</g>
</g>
<!-- Node1&#45;&gt;Node5 -->
<g id="edge5_Node000001_Node000005" class="edge">
<title>Node1&#45;&gt;Node5</title>
<g id="a_edge5_Node000001_Node000005"><a xlink:title=" ">
<path fill="none" stroke="#63b8ff" d="M151.48,-98.38C159.56,-99.47 167.82,-100.59 176.01,-101.7"/>
<polygon fill="#63b8ff" stroke="#63b8ff" points="175.34,-105.27 185.71,-103.14 176.27,-98.34 175.34,-105.27"/>
</a>
</g>
</g>
<!-- Node12 -->
<g id="Node000012" class="node">
<title>Node12</title>
<g id="a_Node000012"><a xlink:href="../../df/d52/class_slic3r_1_1_g_u_i_1_1_down_plugin_frame.html#aa2a57ba4a4f76b83c5a094b45b11bf17" target="_top" xlink:title=" ">
<polygon fill="white" stroke="#666666" points="338,-79.5 187,-79.5 187,-49 338,-49 338,-79.5"/>
<text text-anchor="start" x="195" y="-66" font-family="Helvetica,sans-Serif" font-size="10.00">Slic3r::GUI::DownPluginFrame</text>
<text text-anchor="middle" x="262.5" y="-54.75" font-family="Helvetica,sans-Serif" font-size="10.00">::InstallPlugin</text>
</a>
</g>
</g>
<!-- Node1&#45;&gt;Node12 -->
<g id="edge12_Node000001_Node000012" class="edge">
<title>Node1&#45;&gt;Node12</title>
<g id="a_edge12_Node000001_Node000012"><a xlink:title=" ">
<path fill="none" stroke="#63b8ff" d="M151.48,-78.52C159.56,-77.47 167.82,-76.4 176.01,-75.34"/>
<polygon fill="#63b8ff" stroke="#63b8ff" points="176.25,-78.71 185.71,-73.95 175.35,-71.77 176.25,-78.71"/>
</a>
</g>
</g>
<!-- Node13 -->
<g id="Node000013" class="node">
<title>Node13</title>
<g id="a_Node000013"><a xlink:href="../../d9/dcc/classnlohmann_1_1basic__json.html#a15018ade392a844ea32d5188d1a0b9c6" target="_top" xlink:title="deserialize from a compatible input">
<polygon fill="white" stroke="#666666" points="317.75,-30.5 207.25,-30.5 207.25,0 317.75,0 317.75,-30.5"/>
<text text-anchor="start" x="215.25" y="-17" font-family="Helvetica,sans-Serif" font-size="10.00">nlohmann::basic_json</text>
<text text-anchor="middle" x="262.5" y="-5.75" font-family="Helvetica,sans-Serif" font-size="10.00">::parse</text>
</a>
</g>
</g>
<!-- Node1&#45;&gt;Node13 -->
<g id="edge14_Node000001_Node000013" class="edge">
<title>Node1&#45;&gt;Node13</title>
<g id="a_edge14_Node000001_Node000013"><a xlink:title=" ">
<path fill="none" stroke="#63b8ff" d="M110.53,-72.56C132.22,-62.79 161.03,-50.23 187,-40.25 192.04,-38.31 197.31,-36.38 202.61,-34.49"/>
<polygon fill="#63b8ff" stroke="#63b8ff" points="203.51,-37.53 211.79,-30.92 201.2,-30.92 203.51,-37.53"/>
</a>
</g>
</g>
<!-- Node3 -->
<g id="Node000003" class="node">
<title>Node3</title>
<g id="a_Node000003"><a xlink:href="../../d9/d45/namespace_slic3r_1_1_g_u_i.html#ac911e01665ff9c00414a1d5d0352de74" target="_top" xlink:title=" ">
<polygon fill="white" stroke="#666666" points="502.5,-189.88 396.5,-189.88 396.5,-170.62 502.5,-170.62 502.5,-189.88"/>
<text text-anchor="middle" x="449.5" y="-176.38" font-family="Helvetica,sans-Serif" font-size="10.00">Slic3r::GUI::from_u8</text>
</a>
</g>
</g>
<!-- Node2&#45;&gt;Node3 -->
<g id="edge2_Node000002_Node000003" class="edge">
<title>Node2&#45;&gt;Node3</title>
<g id="a_edge2_Node000002_Node000003"><a xlink:title=" ">
<path fill="none" stroke="#63b8ff" d="M315.53,-167.31C337.2,-169.42 362.57,-171.89 385.3,-174.1"/>
<polygon fill="#63b8ff" stroke="#63b8ff" points="384.93,-177.68 395.22,-175.16 385.61,-170.71 384.93,-177.68"/>
</a>
</g>
</g>
<!-- Node4 -->
<g id="Node000004" class="node">
<title>Node4</title>
<g id="a_Node000004"><a xlink:href="../../d9/d45/namespace_slic3r_1_1_g_u_i.html#a4de3b8fa746d5c736cb93a67f98b8a7a" target="_top" xlink:title=" ">
<polygon fill="white" stroke="#666666" points="523.88,-152.88 375.12,-152.88 375.12,-133.62 523.88,-133.62 523.88,-152.88"/>
<text text-anchor="middle" x="449.5" y="-139.38" font-family="Helvetica,sans-Serif" font-size="10.00">Slic3r::GUI::openFolderForFile</text>
</a>
</g>
</g>
<!-- Node2&#45;&gt;Node4 -->
<g id="edge4_Node000002_Node000004" class="edge">
<title>Node2&#45;&gt;Node4</title>
<g id="a_edge4_Node000002_Node000004"><a xlink:title=" ">
<path fill="none" stroke="#63b8ff" d="M315.53,-156.91C330.6,-155.36 347.47,-153.63 363.99,-151.93"/>
<polygon fill="#63b8ff" stroke="#63b8ff" points="364.19,-155.32 373.78,-150.82 363.48,-148.36 364.19,-155.32"/>
</a>
</g>
</g>
<!-- Node3&#45;&gt;Node3 -->
<g id="edge3_Node000003_Node000003" class="edge">
<title>Node3&#45;&gt;Node3</title>
<g id="a_edge3_Node000003_Node000003"><a xlink:title=" ">
<path fill="none" stroke="#63b8ff" d="M420.22,-190.16C406.87,-198.77 416.63,-207.88 449.5,-207.88 469.53,-207.88 480.98,-204.49 483.84,-199.9"/>
<polygon fill="#63b8ff" stroke="#63b8ff" points="486.5,-198.42 478.78,-191.16 480.29,-201.65 486.5,-198.42"/>
</a>
</g>
</g>
<!-- Node6 -->
<g id="Node000006" class="node">
<title>Node6</title>
<g id="a_Node000006"><a xlink:href="../../df/d52/class_slic3r_1_1_g_u_i_1_1_down_plugin_frame.html#a11ec0e14dfe949afce9af6622d92ceaa" target="_top" xlink:title=" ">
<polygon fill="white" stroke="#666666" points="525,-106.5 374,-106.5 374,-76 525,-76 525,-106.5"/>
<text text-anchor="start" x="382" y="-93" font-family="Helvetica,sans-Serif" font-size="10.00">Slic3r::GUI::DownPluginFrame</text>
<text text-anchor="middle" x="449.5" y="-81.75" font-family="Helvetica,sans-Serif" font-size="10.00">::ShowPluginStatus</text>
</a>
</g>
</g>
<!-- Node5&#45;&gt;Node6 -->
<g id="edge6_Node000005_Node000006" class="edge">
<title>Node5&#45;&gt;Node6</title>
<g id="a_edge6_Node000005_Node000006"><a xlink:title=" ">
<path fill="none" stroke="#63b8ff" d="M338.48,-104.33C346.56,-103.37 354.82,-102.39 363.01,-101.42"/>
<polygon fill="#63b8ff" stroke="#63b8ff" points="363.2,-104.8 372.71,-100.14 362.37,-97.85 363.2,-104.8"/>
</a>
</g>
</g>
<!-- Node7 -->
<g id="Node000007" class="node">
<title>Node7</title>
<g id="a_Node000007"><a xlink:href="../../d9/dcc/classnlohmann_1_1basic__json.html#a476756fb08e7f2416aad116d137977f4" target="_top" xlink:title="serialization">
<polygon fill="white" stroke="#666666" points="691.75,-155.5 581.25,-155.5 581.25,-125 691.75,-125 691.75,-155.5"/>
<text text-anchor="start" x="589.25" y="-142" font-family="Helvetica,sans-Serif" font-size="10.00">nlohmann::basic_json</text>
<text text-anchor="middle" x="636.5" y="-130.75" font-family="Helvetica,sans-Serif" font-size="10.00">::dump</text>
</a>
</g>
</g>
<!-- Node6&#45;&gt;Node7 -->
<g id="edge7_Node000006_Node000007" class="edge">
<title>Node6&#45;&gt;Node7</title>
<g id="a_edge7_Node000006_Node000007"><a xlink:title=" ">
<path fill="none" stroke="#63b8ff" d="M509.8,-106.96C529.15,-112.08 550.73,-117.8 570.48,-123.03"/>
<polygon fill="#63b8ff" stroke="#63b8ff" points="569.37,-126.62 579.93,-125.8 571.16,-119.85 569.37,-126.62"/>
</a>
</g>
</g>
<!-- Node8 -->
<g id="Node000008" class="node">
<title>Node8</title>
<g id="a_Node000008"><a xlink:href="../../d9/dcc/classnlohmann_1_1basic__json.html#a9a4df356e05415438fadf8a15e583903" target="_top" xlink:title="explicitly create an object from an initializer list">
<polygon fill="white" stroke="#666666" points="691.75,-106.5 581.25,-106.5 581.25,-76 691.75,-76 691.75,-106.5"/>
<text text-anchor="start" x="589.25" y="-93" font-family="Helvetica,sans-Serif" font-size="10.00">nlohmann::basic_json</text>
<text text-anchor="middle" x="636.5" y="-81.75" font-family="Helvetica,sans-Serif" font-size="10.00">::object</text>
</a>
</g>
</g>
<!-- Node6&#45;&gt;Node8 -->
<g id="edge8_Node000006_Node000008" class="edge">
<title>Node6&#45;&gt;Node8</title>
<g id="a_edge8_Node000006_Node000008"><a xlink:title=" ">
<path fill="none" stroke="#63b8ff" d="M525.48,-91.25C540.25,-91.25 555.63,-91.25 570.05,-91.25"/>
<polygon fill="#63b8ff" stroke="#63b8ff" points="569.87,-94.75 579.87,-91.25 569.87,-87.75 569.87,-94.75"/>
</a>
</g>
</g>
<!-- Node9 -->
<g id="Node000009" class="node">
<title>Node9</title>
<g id="a_Node000009"><a xlink:href="../../df/d52/class_slic3r_1_1_g_u_i_1_1_down_plugin_frame.html#a20472cf22bcf8ce3d22e18bc6915c407" target="_top" xlink:title=" ">
<polygon fill="white" stroke="#666666" points="712,-57.5 561,-57.5 561,-27 712,-27 712,-57.5"/>
<text text-anchor="start" x="569" y="-44" font-family="Helvetica,sans-Serif" font-size="10.00">Slic3r::GUI::DownPluginFrame</text>
<text text-anchor="middle" x="636.5" y="-32.75" font-family="Helvetica,sans-Serif" font-size="10.00">::RunScript</text>
</a>
</g>
</g>
<!-- Node6&#45;&gt;Node9 -->
<g id="edge9_Node000006_Node000009" class="edge">
<title>Node6&#45;&gt;Node9</title>
<g id="a_edge9_Node000006_Node000009"><a xlink:title=" ">
<path fill="none" stroke="#63b8ff" d="M509.8,-75.54C527.64,-70.82 547.38,-65.59 565.83,-60.7"/>
<polygon fill="#63b8ff" stroke="#63b8ff" points="566.45,-63.89 575.22,-57.95 564.66,-57.13 566.45,-63.89"/>
</a>
</g>
</g>
<!-- Node10 -->
<g id="Node000010" class="node">
<title>Node10</title>
<g id="a_Node000010"><a xlink:href="../../de/d05/class_web_view.html#ab794b9988bc5355dc0151b5edee3a469" target="_top" xlink:title=" ">
<polygon fill="white" stroke="#666666" points="854.75,-51.88 748,-51.88 748,-32.62 854.75,-32.62 854.75,-51.88"/>
<text text-anchor="middle" x="801.38" y="-38.38" font-family="Helvetica,sans-Serif" font-size="10.00">WebView::RunScript</text>
</a>
</g>
</g>
<!-- Node9&#45;&gt;Node10 -->
<g id="edge10_Node000009_Node000010" class="edge">
<title>Node9&#45;&gt;Node10</title>
<g id="a_edge10_Node000009_Node000010"><a xlink:title=" ">
<path fill="none" stroke="#63b8ff" d="M712.26,-42.25C720.54,-42.25 728.91,-42.25 737.03,-42.25"/>
<polygon fill="#63b8ff" stroke="#63b8ff" points="736.92,-45.75 746.92,-42.25 736.92,-38.75 736.92,-45.75"/>
</a>
</g>
</g>
<!-- Node11 -->
<g id="Node000011" class="node">
<title>Node11</title>
<g id="a_Node000011"><a xlink:href="../../d9/d45/namespace_slic3r_1_1_g_u_i.html#acd7c4c240b95e359ddd56deb67871270" target="_top" xlink:title=" ">
<polygon fill="white" stroke="#666666" points="1019.25,-57.5 890.75,-57.5 890.75,-27 1019.25,-27 1019.25,-57.5"/>
<text text-anchor="start" x="898.75" y="-44" font-family="Helvetica,sans-Serif" font-size="10.00">Slic3r::GUI::WKWebView</text>
<text text-anchor="middle" x="955" y="-32.75" font-family="Helvetica,sans-Serif" font-size="10.00">_evaluateJavaScript</text>
</a>
</g>
</g>
<!-- Node10&#45;&gt;Node11 -->
<g id="edge11_Node000010_Node000011" class="edge">
<title>Node10&#45;&gt;Node11</title>
<g id="a_edge11_Node000010_Node000011"><a xlink:title=" ">
<path fill="none" stroke="#63b8ff" d="M854.98,-42.25C862.89,-42.25 871.17,-42.25 879.44,-42.25"/>
<polygon fill="#63b8ff" stroke="#63b8ff" points="879.25,-45.75 889.25,-42.25 879.25,-38.75 879.25,-45.75"/>
</a>
</g>
</g>
<!-- Node12&#45;&gt;Node6 -->
<g id="edge13_Node000012_Node000006" class="edge">
<title>Node12&#45;&gt;Node6</title>
<g id="a_edge13_Node000012_Node000006"><a xlink:title=" ">
<path fill="none" stroke="#63b8ff" d="M338.48,-75.19C346.56,-76.37 354.82,-77.58 363.01,-78.77"/>
<polygon fill="#63b8ff" stroke="#63b8ff" points="362.31,-82.35 372.71,-80.34 363.32,-75.43 362.31,-82.35"/>
</a>
</g>
</g>
<!-- Node14 -->
<g id="Node000014" class="node">
<title>Node14</title>
<g id="a_Node000014"><a xlink:href="../../dc/df0/namespacenlohmann_1_1detail.html#a616a53cc3114fdc113fc44e6af4c3c7f" target="_top" xlink:title=" ">
<polygon fill="white" stroke="#666666" points="506.62,-30.5 392.38,-30.5 392.38,0 506.62,0 506.62,-30.5"/>
<text text-anchor="start" x="400.38" y="-17" font-family="Helvetica,sans-Serif" font-size="10.00">nlohmann::detail::input</text>
<text text-anchor="middle" x="449.5" y="-5.75" font-family="Helvetica,sans-Serif" font-size="10.00">_adapter</text>
</a>
</g>
</g>
<!-- Node13&#45;&gt;Node14 -->
<g id="edge15_Node000013_Node000014" class="edge">
<title>Node13&#45;&gt;Node14</title>
<g id="a_edge15_Node000013_Node000014"><a xlink:title=" ">
<path fill="none" stroke="#63b8ff" d="M318.01,-15.25C337.79,-15.25 360.38,-15.25 381.15,-15.25"/>
<polygon fill="#63b8ff" stroke="#63b8ff" points="381.14,-18.75 391.14,-15.25 381.14,-11.75 381.14,-18.75"/>
</a>
</g>
</g>
</g>
</svg>
