<?xml version="1.0" encoding="UTF-8" standalone="no"?>
<!DOCTYPE svg PUBLIC "-//W3C//DTD SVG 1.1//EN"
 "http://www.w3.org/Graphics/SVG/1.1/DTD/svg11.dtd">
<!-- Generated by graphviz version 8.1.0 (20230707.0739)
 -->
<!-- Title: libnest2d::shapelike::area Pages: 1 -->
<svg width="435pt" height="305pt"
 viewBox="0.00 0.00 434.75 304.50" xmlns="http://www.w3.org/2000/svg" xmlns:xlink="http://www.w3.org/1999/xlink">

<svg id="main" version="1.1" xmlns="http://www.w3.org/2000/svg" xmlns:xlink="http://www.w3.org/1999/xlink" xml:space="preserve" onload="init(evt)">
<style type="text/css"><![CDATA[
.node, .edge {opacity: 0.7;}
.node.selected, .edge.selected {opacity: 1;}
.edge:hover path { stroke: red; }
.edge:hover polygon { stroke: red; fill: red; }
]]></style>
<script type="application/ecmascript" xlink:href="../../svg.min.js"/>
<svg id="graph" class="graph">
<g id="graph0" class="graph" transform="scale(1 1) rotate(0) translate(4 300.5)">
<title>libnest2d::shapelike::area</title>
<!-- Node1 -->
<g id="Node000001" class="node">
<title>Node1</title>
<g id="a_Node000001"><a xlink:title=" ">
<polygon fill="#999999" stroke="#666666" points="426.75,-197.5 324.5,-197.5 324.5,-167 426.75,-167 426.75,-197.5"/>
<text text-anchor="start" x="332.5" y="-184" font-family="Helvetica,sans-Serif" font-size="10.00">libnest2d::shapelike</text>
<text text-anchor="middle" x="375.62" y="-172.75" font-family="Helvetica,sans-Serif" font-size="10.00">::area</text>
</a>
</g>
</g>
<!-- Node2 -->
<g id="Node000002" class="node">
<title>Node2</title>
<g id="a_Node000002"><a xlink:href="../../d8/dca/class_slic3r_1_1arrangement_1_1_auto_arranger.html#a8dc486ff782c47cae213b7fe0be35594" target="_top" xlink:title=" ">
<polygon fill="white" stroke="#666666" points="142,-296.5 0,-296.5 0,-266 142,-266 142,-296.5"/>
<text text-anchor="start" x="8" y="-283" font-family="Helvetica,sans-Serif" font-size="10.00">Slic3r::arrangement</text>
<text text-anchor="middle" x="71" y="-271.75" font-family="Helvetica,sans-Serif" font-size="10.00">::AutoArranger::AutoArranger</text>
</a>
</g>
</g>
<!-- Node1&#45;&gt;Node2 -->
<g id="edge1_Node000001_Node000002" class="edge">
<title>Node1&#45;&gt;Node2</title>
<g id="a_edge1_Node000001_Node000002"><a xlink:title=" ">
<path fill="none" stroke="#63b8ff" d="M335.64,-202.66C321.1,-209.78 304.28,-217.44 288.5,-223.25 240.67,-240.87 185.1,-255.65 142.23,-265.88"/>
<polygon fill="#63b8ff" stroke="#63b8ff" points="336.92,-205.44 344.31,-197.85 333.8,-199.17 336.92,-205.44"/>
</a>
</g>
</g>
<!-- Node3 -->
<g id="Node000003" class="node">
<title>Node3</title>
<g id="a_Node000003"><a xlink:href="../../d0/d79/classlibnest2d_1_1___item.html#ae7ea32559da33a319df18f55b713d256" target="_top" xlink:title="Calculate the shape area.">
<polygon fill="white" stroke="#666666" points="288.5,-191.88 178,-191.88 178,-172.62 288.5,-172.62 288.5,-191.88"/>
<text text-anchor="middle" x="233.25" y="-178.38" font-family="Helvetica,sans-Serif" font-size="10.00">libnest2d::_Item::area</text>
</a>
</g>
</g>
<!-- Node1&#45;&gt;Node3 -->
<g id="edge2_Node000001_Node000003" class="edge">
<title>Node1&#45;&gt;Node3</title>
<g id="a_edge2_Node000001_Node000003"><a xlink:title=" ">
<path fill="none" stroke="#63b8ff" d="M313.39,-182.25C305.25,-182.25 296.95,-182.25 288.94,-182.25"/>
<polygon fill="#63b8ff" stroke="#63b8ff" points="313.34,-185.75 323.34,-182.25 313.34,-178.75 313.34,-185.75"/>
</a>
</g>
</g>
<!-- Node5 -->
<g id="Node000005" class="node">
<title>Node5</title>
<g id="a_Node000005"><a xlink:href="../../db/d12/classlibnest2d_1_1selections_1_1___d_j_d_heuristic.html#a4a57406b7f3af24c8e26bcc97f402987" target="_top" xlink:title=" ">
<polygon fill="white" stroke="#666666" points="140.12,-247.5 1.88,-247.5 1.88,-217 140.12,-217 140.12,-247.5"/>
<text text-anchor="start" x="9.88" y="-234" font-family="Helvetica,sans-Serif" font-size="10.00">libnest2d::selections</text>
<text text-anchor="middle" x="71" y="-222.75" font-family="Helvetica,sans-Serif" font-size="10.00">::_DJDHeuristic::packItems</text>
</a>
</g>
</g>
<!-- Node1&#45;&gt;Node5 -->
<g id="edge11_Node000001_Node000005" class="edge">
<title>Node1&#45;&gt;Node5</title>
<g id="a_edge11_Node000001_Node000005"><a xlink:title=" ">
<path fill="none" stroke="#63b8ff" d="M313.64,-196.3C305.22,-198.06 296.66,-199.77 288.5,-201.25 239.19,-210.21 183.17,-218.17 140.47,-223.78"/>
<polygon fill="#63b8ff" stroke="#63b8ff" points="314.16,-199.55 323.2,-194.04 312.69,-192.71 314.16,-199.55"/>
</a>
</g>
</g>
<!-- Node9 -->
<g id="Node000009" class="node">
<title>Node9</title>
<g id="a_Node000009"><a xlink:href="../../dd/d66/namespacelibnest2d_1_1shapelike.html#ab1291018366f241c287a3f00f4b03040" target="_top" xlink:title=" ">
<polygon fill="white" stroke="#666666" points="284.38,-154.5 182.12,-154.5 182.12,-124 284.38,-124 284.38,-154.5"/>
<text text-anchor="start" x="190.12" y="-141" font-family="Helvetica,sans-Serif" font-size="10.00">libnest2d::shapelike</text>
<text text-anchor="middle" x="233.25" y="-129.75" font-family="Helvetica,sans-Serif" font-size="10.00">::area</text>
</a>
</g>
</g>
<!-- Node1&#45;&gt;Node9 -->
<g id="edge9_Node000001_Node000009" class="edge">
<title>Node1&#45;&gt;Node9</title>
<g id="a_edge9_Node000001_Node000009"><a xlink:title=" ">
<path fill="none" stroke="#63b8ff" d="M313.89,-163.65C304.14,-160.66 294.13,-157.59 284.65,-154.69"/>
<polygon fill="#63b8ff" stroke="#63b8ff" points="312.76,-167.27 323.34,-166.85 314.81,-160.57 312.76,-167.27"/>
</a>
</g>
</g>
<!-- Node10 -->
<g id="Node000010" class="node">
<title>Node10</title>
<g id="a_Node000010"><a xlink:href="../../dd/d66/namespacelibnest2d_1_1shapelike.html#a727587cc733b74e97648d9e6b733d9e2" target="_top" xlink:title=" ">
<polygon fill="white" stroke="#666666" points="284.38,-105.5 182.12,-105.5 182.12,-75 284.38,-75 284.38,-105.5"/>
<text text-anchor="start" x="190.12" y="-92" font-family="Helvetica,sans-Serif" font-size="10.00">libnest2d::shapelike</text>
<text text-anchor="middle" x="233.25" y="-80.75" font-family="Helvetica,sans-Serif" font-size="10.00">::area</text>
</a>
</g>
</g>
<!-- Node1&#45;&gt;Node10 -->
<g id="edge10_Node000001_Node000010" class="edge">
<title>Node1&#45;&gt;Node10</title>
<g id="a_edge10_Node000001_Node000010"><a xlink:title=" ">
<path fill="none" stroke="#63b8ff" d="M348.93,-159.73C332.38,-145.88 310,-128.33 288.5,-115.25 283.1,-111.96 277.19,-108.82 271.32,-105.95"/>
<polygon fill="#63b8ff" stroke="#63b8ff" points="346.14,-162.8 356.02,-166.6 350.66,-157.46 346.14,-162.8"/>
</a>
</g>
</g>
<!-- Node3&#45;&gt;Node2 -->
<g id="edge3_Node000003_Node000002" class="edge">
<title>Node3&#45;&gt;Node2</title>
<g id="a_edge3_Node000003_Node000002"><a xlink:title=" ">
<path fill="none" stroke="#63b8ff" d="M214.99,-199.51C197.75,-215.95 169.89,-240.47 142,-256.25 135.94,-259.68 129.31,-262.78 122.64,-265.53"/>
<polygon fill="#63b8ff" stroke="#63b8ff" points="216.82,-202.64 221.55,-193.16 211.94,-197.62 216.82,-202.64"/>
</a>
</g>
</g>
<!-- Node4 -->
<g id="Node000004" class="node">
<title>Node4</title>
<g id="a_Node000004"><a xlink:href="../../d8/dca/class_slic3r_1_1arrangement_1_1_auto_arranger.html#ae3c664f138b176bf8d05b74a8aad7115" target="_top" xlink:title=" ">
<polygon fill="white" stroke="#666666" points="129.25,-79.5 12.75,-79.5 12.75,-49 129.25,-49 129.25,-79.5"/>
<text text-anchor="start" x="20.75" y="-66" font-family="Helvetica,sans-Serif" font-size="10.00">Slic3r::arrangement</text>
<text text-anchor="middle" x="71" y="-54.75" font-family="Helvetica,sans-Serif" font-size="10.00">::AutoArranger::objfunc</text>
</a>
</g>
</g>
<!-- Node3&#45;&gt;Node4 -->
<g id="edge4_Node000003_Node000004" class="edge">
<title>Node3&#45;&gt;Node4</title>
<g id="a_edge4_Node000003_Node000004"><a xlink:title=" ">
<path fill="none" stroke="#63b8ff" d="M182.38,-166.72C180.85,-165.64 179.38,-164.49 178,-163.25 150.45,-138.59 169.63,-112.82 142,-88.25 138.26,-84.92 134.03,-82.05 129.55,-79.57"/>
<polygon fill="#63b8ff" stroke="#63b8ff" points="180.32,-170.15 190.72,-172.14 183.83,-164.1 180.32,-170.15"/>
</a>
</g>
</g>
<!-- Node3&#45;&gt;Node5 -->
<g id="edge5_Node000003_Node000005" class="edge">
<title>Node3&#45;&gt;Node5</title>
<g id="a_edge5_Node000003_Node000005"><a xlink:title=" ">
<path fill="none" stroke="#63b8ff" d="M189.46,-195.6C168.82,-202.04 143.92,-209.81 122.37,-216.53"/>
<polygon fill="#63b8ff" stroke="#63b8ff" points="190.32,-198.69 198.82,-192.37 188.23,-192.01 190.32,-198.69"/>
</a>
</g>
</g>
<!-- Node6 -->
<g id="Node000006" class="node">
<title>Node6</title>
<g id="a_Node000006"><a xlink:href="../../df/de0/classlibnest2d_1_1selections_1_1___filler_selection.html#ae754b99ecf3fc6bf7ef059bb248b3928" target="_top" xlink:title=" ">
<polygon fill="white" stroke="#666666" points="141.25,-30.5 0.75,-30.5 0.75,0 141.25,0 141.25,-30.5"/>
<text text-anchor="start" x="8.75" y="-17" font-family="Helvetica,sans-Serif" font-size="10.00">libnest2d::selections</text>
<text text-anchor="middle" x="71" y="-5.75" font-family="Helvetica,sans-Serif" font-size="10.00">::_FillerSelection::packItems</text>
</a>
</g>
</g>
<!-- Node3&#45;&gt;Node6 -->
<g id="edge6_Node000003_Node000006" class="edge">
<title>Node3&#45;&gt;Node6</title>
<g id="a_edge6_Node000003_Node000006"><a xlink:title=" ">
<path fill="none" stroke="#63b8ff" d="M181.06,-166.14C179.99,-165.23 178.97,-164.27 178,-163.25 138.79,-121.94 181.09,-81.68 142,-40.25 138.55,-36.59 134.52,-33.46 130.18,-30.79"/>
<polygon fill="#63b8ff" stroke="#63b8ff" points="178.82,-169.52 189.07,-172.17 182.71,-163.7 178.82,-169.52"/>
</a>
</g>
</g>
<!-- Node7 -->
<g id="Node000007" class="node">
<title>Node7</title>
<g id="a_Node000007"><a xlink:href="../../d1/d3d/classlibnest2d_1_1selections_1_1___first_fit_selection.html#a591d007e4752fc822f01b3e9b6de4b04" target="_top" xlink:title=" ">
<polygon fill="white" stroke="#666666" points="123.62,-199.12 18.38,-199.12 18.38,-157.38 123.62,-157.38 123.62,-199.12"/>
<text text-anchor="start" x="26.38" y="-185.62" font-family="Helvetica,sans-Serif" font-size="10.00">libnest2d::selections</text>
<text text-anchor="start" x="26.38" y="-174.38" font-family="Helvetica,sans-Serif" font-size="10.00">::_FirstFitSelection</text>
<text text-anchor="middle" x="71" y="-163.12" font-family="Helvetica,sans-Serif" font-size="10.00">::packItems</text>
</a>
</g>
</g>
<!-- Node3&#45;&gt;Node7 -->
<g id="edge7_Node000003_Node000007" class="edge">
<title>Node3&#45;&gt;Node7</title>
<g id="a_edge7_Node000003_Node000007"><a xlink:title=" ">
<path fill="none" stroke="#63b8ff" d="M166.81,-180.62C152.56,-180.26 137.67,-179.89 124.02,-179.55"/>
<polygon fill="#63b8ff" stroke="#63b8ff" points="166.46,-184.13 176.55,-180.88 166.64,-177.14 166.46,-184.13"/>
</a>
</g>
</g>
<!-- Node8 -->
<g id="Node000008" class="node">
<title>Node8</title>
<g id="a_Node000008"><a xlink:href="../../d8/db8/classlibnest2d_1_1selections_1_1_selection_boilerplate.html#a7574f6988d831a7816c9f8b91de86a4d" target="_top" xlink:title=" ">
<polygon fill="white" stroke="#666666" points="140.12,-139.12 1.88,-139.12 1.88,-97.38 140.12,-97.38 140.12,-139.12"/>
<text text-anchor="start" x="9.88" y="-125.62" font-family="Helvetica,sans-Serif" font-size="10.00">libnest2d::selections</text>
<text text-anchor="start" x="9.88" y="-114.38" font-family="Helvetica,sans-Serif" font-size="10.00">::SelectionBoilerplate</text>
<text text-anchor="middle" x="71" y="-103.12" font-family="Helvetica,sans-Serif" font-size="10.00">::remove_unpackable_items</text>
</a>
</g>
</g>
<!-- Node3&#45;&gt;Node8 -->
<g id="edge8_Node000003_Node000008" class="edge">
<title>Node3&#45;&gt;Node8</title>
<g id="a_edge8_Node000003_Node000008"><a xlink:title=" ">
<path fill="none" stroke="#63b8ff" d="M192.02,-168.49C187.28,-166.77 182.52,-165 178,-163.25 172.13,-160.98 146.36,-150.04 121.7,-139.52"/>
<polygon fill="#63b8ff" stroke="#63b8ff" points="190.68,-172.08 201.28,-172.14 193.03,-165.49 190.68,-172.08"/>
</a>
</g>
</g>
</g>
</svg>
</svg>

<style type='text/css'>
<![CDATA[
[data-mouse-over-selected='false'] { opacity: 0.7; }
[data-mouse-over-selected='true']  { opacity: 1.0; }
]]>
</style>
<script type="application/ecmascript"><![CDATA[
document.addEventListener('DOMContentLoaded', (event) => {
  highlightEdges();
  highlightAdjacentNodes();
});
]]></script>
</svg>
