<?xml version="1.0" encoding="UTF-8" standalone="no"?>
<!DOCTYPE svg PUBLIC "-//W3C//DTD SVG 1.1//EN"
 "http://www.w3.org/Graphics/SVG/1.1/DTD/svg11.dtd">
<!-- Generated by graphviz version 8.1.0 (20230707.0739)
 -->
<!-- Title: Slic3r::GUI::OG_CustomCtrl::get_title_width Pages: 1 -->
<svg width="677pt" height="235pt"
 viewBox="0.00 0.00 676.50 234.50" xmlns="http://www.w3.org/2000/svg" xmlns:xlink="http://www.w3.org/1999/xlink">
<g id="graph0" class="graph" transform="scale(1 1) rotate(0) translate(4 230.5)">
<title>Slic3r::GUI::OG_CustomCtrl::get_title_width</title>
<!-- Node1 -->
<g id="Node000001" class="node">
<title>Node1</title>
<g id="a_Node000001"><a xlink:title=" ">
<polygon fill="#999999" stroke="#666666" points="668.5,-103.5 527.25,-103.5 527.25,-73 668.5,-73 668.5,-103.5"/>
<text text-anchor="start" x="535.25" y="-90" font-family="Helvetica,sans-Serif" font-size="10.00">Slic3r::GUI::OG_CustomCtrl</text>
<text text-anchor="middle" x="597.88" y="-78.75" font-family="Helvetica,sans-Serif" font-size="10.00">::get_title_width</text>
</a>
</g>
</g>
<!-- Node2 -->
<g id="Node000002" class="node">
<title>Node2</title>
<g id="a_Node000002"><a xlink:href="../../db/d93/class_slic3r_1_1_g_u_i_1_1_o_g___custom_ctrl.html#aaa072685586c7fc7ba4f04382ff6d6ef" target="_top" xlink:title=" ">
<polygon fill="white" stroke="#666666" points="491.25,-177.5 350,-177.5 350,-147 491.25,-147 491.25,-177.5"/>
<text text-anchor="start" x="358" y="-164" font-family="Helvetica,sans-Serif" font-size="10.00">Slic3r::GUI::OG_CustomCtrl</text>
<text text-anchor="middle" x="420.62" y="-152.75" font-family="Helvetica,sans-Serif" font-size="10.00">::get_pos</text>
</a>
</g>
</g>
<!-- Node1&#45;&gt;Node2 -->
<g id="edge1_Node000001_Node000002" class="edge">
<title>Node1&#45;&gt;Node2</title>
<g id="a_edge1_Node000001_Node000002"><a xlink:title=" ">
<path fill="none" stroke="#63b8ff" d="M555.6,-108.44C536.24,-117.64 512.75,-128.42 491.25,-137.25 483.53,-140.42 475.24,-143.59 467.17,-146.56"/>
<polygon fill="#63b8ff" stroke="#63b8ff" points="556.8,-111.27 564.31,-103.8 553.78,-104.96 556.8,-111.27"/>
</a>
</g>
</g>
<!-- Node5 -->
<g id="Node000005" class="node">
<title>Node5</title>
<g id="a_Node000005"><a xlink:href="../../db/d93/class_slic3r_1_1_g_u_i_1_1_o_g___custom_ctrl.html#adf9f68e5f5ebe08dea591df99d5bb8fc" target="_top" xlink:title=" ">
<polygon fill="white" stroke="#666666" points="491.25,-128.5 350,-128.5 350,-98 491.25,-98 491.25,-128.5"/>
<text text-anchor="start" x="358" y="-115" font-family="Helvetica,sans-Serif" font-size="10.00">Slic3r::GUI::OG_CustomCtrl</text>
<text text-anchor="middle" x="420.62" y="-103.75" font-family="Helvetica,sans-Serif" font-size="10.00">::msw_rescale</text>
</a>
</g>
</g>
<!-- Node1&#45;&gt;Node5 -->
<g id="edge4_Node000001_Node000005" class="edge">
<title>Node1&#45;&gt;Node5</title>
<g id="a_edge4_Node000001_Node000005"><a xlink:title=" ">
<path fill="none" stroke="#63b8ff" d="M516.13,-99.77C507.91,-100.94 499.62,-102.12 491.53,-103.28"/>
<polygon fill="#63b8ff" stroke="#63b8ff" points="516.45,-103.12 525.86,-98.24 515.46,-96.19 516.45,-103.12"/>
</a>
</g>
</g>
<!-- Node8 -->
<g id="Node000008" class="node">
<title>Node8</title>
<g id="a_Node000008"><a xlink:href="../../db/d93/class_slic3r_1_1_g_u_i_1_1_o_g___custom_ctrl.html#ae62c9074ecf7451ea42489da1688df36" target="_top" xlink:title=" ">
<polygon fill="white" stroke="#666666" points="491.25,-79.5 350,-79.5 350,-49 491.25,-49 491.25,-79.5"/>
<text text-anchor="start" x="358" y="-66" font-family="Helvetica,sans-Serif" font-size="10.00">Slic3r::GUI::OG_CustomCtrl</text>
<text text-anchor="middle" x="420.62" y="-54.75" font-family="Helvetica,sans-Serif" font-size="10.00">::OnPaint</text>
</a>
</g>
</g>
<!-- Node1&#45;&gt;Node8 -->
<g id="edge7_Node000001_Node000008" class="edge">
<title>Node1&#45;&gt;Node8</title>
<g id="a_edge7_Node000001_Node000008"><a xlink:title=" ">
<path fill="none" stroke="#63b8ff" d="M516.13,-77.19C507.91,-76.07 499.62,-74.93 491.53,-73.82"/>
<polygon fill="#63b8ff" stroke="#63b8ff" points="515.47,-80.77 525.86,-78.66 516.42,-73.84 515.47,-80.77"/>
</a>
</g>
</g>
<!-- Node10 -->
<g id="Node000010" class="node">
<title>Node10</title>
<g id="a_Node000010"><a xlink:href="../../db/d93/class_slic3r_1_1_g_u_i_1_1_o_g___custom_ctrl.html#a0ce7f92ece70c229ac6c63da951a222b" target="_top" xlink:title=" ">
<polygon fill="white" stroke="#666666" points="491.25,-30.5 350,-30.5 350,0 491.25,0 491.25,-30.5"/>
<text text-anchor="start" x="358" y="-17" font-family="Helvetica,sans-Serif" font-size="10.00">Slic3r::GUI::OG_CustomCtrl</text>
<text text-anchor="middle" x="420.62" y="-5.75" font-family="Helvetica,sans-Serif" font-size="10.00">::update_visibility</text>
</a>
</g>
</g>
<!-- Node1&#45;&gt;Node10 -->
<g id="edge9_Node000001_Node000010" class="edge">
<title>Node1&#45;&gt;Node10</title>
<g id="a_edge9_Node000001_Node000010"><a xlink:title=" ">
<path fill="none" stroke="#63b8ff" d="M554.43,-68C535.28,-59.12 512.29,-48.79 491.25,-40.25 483.51,-37.11 475.22,-33.95 467.15,-30.99"/>
<polygon fill="#63b8ff" stroke="#63b8ff" points="552.8,-71.57 563.35,-72.63 555.77,-65.23 552.8,-71.57"/>
</a>
</g>
</g>
<!-- Node3 -->
<g id="Node000003" class="node">
<title>Node3</title>
<g id="a_Node000003"><a xlink:href="../../db/d93/class_slic3r_1_1_g_u_i_1_1_o_g___custom_ctrl.html#a3f98afb93bcff4cc97132cc909f14860" target="_top" xlink:title=" ">
<polygon fill="white" stroke="#666666" points="314,-226.5 172.75,-226.5 172.75,-196 314,-196 314,-226.5"/>
<text text-anchor="start" x="180.75" y="-213" font-family="Helvetica,sans-Serif" font-size="10.00">Slic3r::GUI::OG_CustomCtrl</text>
<text text-anchor="middle" x="243.38" y="-201.75" font-family="Helvetica,sans-Serif" font-size="10.00">::correct_widgets_position</text>
</a>
</g>
</g>
<!-- Node2&#45;&gt;Node3 -->
<g id="edge2_Node000002_Node000003" class="edge">
<title>Node2&#45;&gt;Node3</title>
<g id="a_edge2_Node000002_Node000003"><a xlink:title=" ">
<path fill="none" stroke="#63b8ff" d="M353.11,-180.85C335.83,-185.68 317.38,-190.84 300.68,-195.51"/>
<polygon fill="#63b8ff" stroke="#63b8ff" points="354,-183.95 362.69,-177.89 352.12,-177.21 354,-183.95"/>
</a>
</g>
</g>
<!-- Node4 -->
<g id="Node000004" class="node">
<title>Node4</title>
<g id="a_Node000004"><a xlink:href="../../db/d93/class_slic3r_1_1_g_u_i_1_1_o_g___custom_ctrl.html#adf122e93e9224664dbcd36da2f5bf004" target="_top" xlink:title=" ">
<polygon fill="white" stroke="#666666" points="314,-177.5 172.75,-177.5 172.75,-147 314,-147 314,-177.5"/>
<text text-anchor="start" x="180.75" y="-164" font-family="Helvetica,sans-Serif" font-size="10.00">Slic3r::GUI::OG_CustomCtrl</text>
<text text-anchor="middle" x="243.38" y="-152.75" font-family="Helvetica,sans-Serif" font-size="10.00">::correct_window_position</text>
</a>
</g>
</g>
<!-- Node2&#45;&gt;Node4 -->
<g id="edge3_Node000002_Node000004" class="edge">
<title>Node2&#45;&gt;Node4</title>
<g id="a_edge3_Node000002_Node000004"><a xlink:title=" ">
<path fill="none" stroke="#63b8ff" d="M338.88,-162.25C330.66,-162.25 322.37,-162.25 314.28,-162.25"/>
<polygon fill="#63b8ff" stroke="#63b8ff" points="338.61,-165.75 348.61,-162.25 338.61,-158.75 338.61,-165.75"/>
</a>
</g>
</g>
<!-- Node6 -->
<g id="Node000006" class="node">
<title>Node6</title>
<g id="a_Node000006"><a xlink:href="../../d9/da7/class_slic3r_1_1_g_u_i_1_1_config_options_group.html#a06df65fe79a118f2c29a58bba7d828fe" target="_top" xlink:title=" ">
<polygon fill="white" stroke="#666666" points="309.88,-128.5 176.88,-128.5 176.88,-98 309.88,-98 309.88,-128.5"/>
<text text-anchor="start" x="184.88" y="-115" font-family="Helvetica,sans-Serif" font-size="10.00">Slic3r::GUI::ConfigOptions</text>
<text text-anchor="middle" x="243.38" y="-103.75" font-family="Helvetica,sans-Serif" font-size="10.00">Group::msw_rescale</text>
</a>
</g>
</g>
<!-- Node5&#45;&gt;Node6 -->
<g id="edge5_Node000005_Node000006" class="edge">
<title>Node5&#45;&gt;Node6</title>
<g id="a_edge5_Node000005_Node000006"><a xlink:title=" ">
<path fill="none" stroke="#63b8ff" d="M338.87,-113.25C329.31,-113.25 319.63,-113.25 310.3,-113.25"/>
<polygon fill="#63b8ff" stroke="#63b8ff" points="338.61,-116.75 348.61,-113.25 338.61,-109.75 338.61,-116.75"/>
</a>
</g>
</g>
<!-- Node7 -->
<g id="Node000007" class="node">
<title>Node7</title>
<g id="a_Node000007"><a xlink:href="../../d3/db0/class_slic3r_1_1_g_u_i_1_1_physical_printer_dialog.html#a1f53e4a05d7c9cdc5cbe76a923c1f770" target="_top" xlink:title=" ">
<polygon fill="white" stroke="#666666" points="136.75,-128.5 0,-128.5 0,-98 136.75,-98 136.75,-128.5"/>
<text text-anchor="start" x="8" y="-115" font-family="Helvetica,sans-Serif" font-size="10.00">Slic3r::GUI::PhysicalPrinter</text>
<text text-anchor="middle" x="68.38" y="-103.75" font-family="Helvetica,sans-Serif" font-size="10.00">Dialog::on_dpi_changed</text>
</a>
</g>
</g>
<!-- Node6&#45;&gt;Node7 -->
<g id="edge6_Node000006_Node000007" class="edge">
<title>Node6&#45;&gt;Node7</title>
<g id="a_edge6_Node000006_Node000007"><a xlink:title=" ">
<path fill="none" stroke="#63b8ff" d="M165.78,-113.25C156.23,-113.25 146.51,-113.25 137.1,-113.25"/>
<polygon fill="#63b8ff" stroke="#63b8ff" points="165.48,-116.75 175.48,-113.25 165.48,-109.75 165.48,-116.75"/>
</a>
</g>
</g>
<!-- Node9 -->
<g id="Node000009" class="node">
<title>Node9</title>
<g id="a_Node000009"><a xlink:href="../../db/d93/class_slic3r_1_1_g_u_i_1_1_o_g___custom_ctrl.html#a59a26f9ec62366912ae0fbc4b69e3169" target="_top" xlink:title=" ">
<polygon fill="white" stroke="#666666" points="314,-79.5 172.75,-79.5 172.75,-49 314,-49 314,-79.5"/>
<text text-anchor="start" x="180.75" y="-66" font-family="Helvetica,sans-Serif" font-size="10.00">Slic3r::GUI::OG_CustomCtrl</text>
<text text-anchor="middle" x="243.38" y="-54.75" font-family="Helvetica,sans-Serif" font-size="10.00">::OG_CustomCtrl</text>
</a>
</g>
</g>
<!-- Node8&#45;&gt;Node9 -->
<g id="edge8_Node000008_Node000009" class="edge">
<title>Node8&#45;&gt;Node9</title>
<g id="a_edge8_Node000008_Node000009"><a xlink:title=" ">
<path fill="none" stroke="#63b8ff" d="M338.88,-64.25C330.66,-64.25 322.37,-64.25 314.28,-64.25"/>
<polygon fill="#63b8ff" stroke="#63b8ff" points="338.61,-67.75 348.61,-64.25 338.61,-60.75 338.61,-67.75"/>
</a>
</g>
</g>
<!-- Node11 -->
<g id="Node000011" class="node">
<title>Node11</title>
<g id="a_Node000011"><a xlink:href="../../d9/da7/class_slic3r_1_1_g_u_i_1_1_config_options_group.html#a17e062c78dd6fac3866453a6542c0fbc" target="_top" xlink:title=" ">
<polygon fill="white" stroke="#666666" points="309.88,-30.5 176.88,-30.5 176.88,0 309.88,0 309.88,-30.5"/>
<text text-anchor="start" x="184.88" y="-17" font-family="Helvetica,sans-Serif" font-size="10.00">Slic3r::GUI::ConfigOptions</text>
<text text-anchor="middle" x="243.38" y="-5.75" font-family="Helvetica,sans-Serif" font-size="10.00">Group::update_visibility</text>
</a>
</g>
</g>
<!-- Node10&#45;&gt;Node11 -->
<g id="edge10_Node000010_Node000011" class="edge">
<title>Node10&#45;&gt;Node11</title>
<g id="a_edge10_Node000010_Node000011"><a xlink:title=" ">
<path fill="none" stroke="#63b8ff" d="M338.87,-15.25C329.31,-15.25 319.63,-15.25 310.3,-15.25"/>
<polygon fill="#63b8ff" stroke="#63b8ff" points="338.61,-18.75 348.61,-15.25 338.61,-11.75 338.61,-18.75"/>
</a>
</g>
</g>
</g>
</svg>
