<?xml version="1.0" encoding="UTF-8" standalone="no"?>
<!DOCTYPE svg PUBLIC "-//W3C//DTD SVG 1.1//EN"
 "http://www.w3.org/Graphics/SVG/1.1/DTD/svg11.dtd">
<!-- Generated by graphviz version 8.1.0 (20230707.0739)
 -->
<!-- Title: operator&lt;&lt; Pages: 1 -->
<svg width="368pt" height="358pt"
 viewBox="0.00 0.00 368.00 357.50" xmlns="http://www.w3.org/2000/svg" xmlns:xlink="http://www.w3.org/1999/xlink">

<svg id="main" version="1.1" xmlns="http://www.w3.org/2000/svg" xmlns:xlink="http://www.w3.org/1999/xlink" xml:space="preserve" onload="init(evt)">
<style type="text/css"><![CDATA[
.node, .edge {opacity: 0.7;}
.node.selected, .edge.selected {opacity: 1;}
.edge:hover path { stroke: red; }
.edge:hover polygon { stroke: red; fill: red; }
]]></style>
<script type="application/ecmascript" xlink:href="../../svg.min.js"/>
<svg id="graph" class="graph">
<g id="graph0" class="graph" transform="scale(1 1) rotate(0) translate(4 353.5)">
<title>operator&lt;&lt;</title>
<!-- Node1 -->
<g id="Node000001" class="node">
<title>Node1</title>
<g id="a_Node000001"><a xlink:title="Print ridges of facet to stream. Same as qh_printfacetridges [io_r.c].">
<polygon fill="#999999" stroke="#666666" points="63.25,-192.88 0,-192.88 0,-173.62 63.25,-173.62 63.25,-192.88"/>
<text text-anchor="middle" x="31.62" y="-179.38" font-family="Helvetica,sans-Serif" font-size="10.00">operator&lt;&lt;</text>
</a>
</g>
</g>
<!-- Node2 -->
<g id="Node000002" class="node">
<title>Node2</title>
<g id="a_Node000002"><a xlink:href="../../d3/d21/classorg_qhull_1_1_qhull_facet.html#a5365da1b5fcade4d3ee001a5bc87892a" target="_top" xlink:title=" ">
<polygon fill="white" stroke="#666666" points="211.62,-349.5 106.38,-349.5 106.38,-319 211.62,-319 211.62,-349.5"/>
<text text-anchor="start" x="114.38" y="-336" font-family="Helvetica,sans-Serif" font-size="10.00">orgQhull::QhullFacet</text>
<text text-anchor="middle" x="159" y="-324.75" font-family="Helvetica,sans-Serif" font-size="10.00">::dimension</text>
</a>
</g>
</g>
<!-- Node1&#45;&gt;Node2 -->
<g id="edge1_Node000001_Node000002" class="edge">
<title>Node1&#45;&gt;Node2</title>
<g id="a_edge1_Node000001_Node000002"><a xlink:title=" ">
<path fill="none" stroke="#63b8ff" d="M35.68,-193.07C43.14,-215.61 64.25,-271.67 99.25,-305.25 102.13,-308.01 105.32,-310.56 108.68,-312.9"/>
<polygon fill="#63b8ff" stroke="#63b8ff" points="106.56,-316.33 116.9,-318.63 110.25,-310.38 106.56,-316.33"/>
</a>
</g>
</g>
<!-- Node3 -->
<g id="Node000003" class="node">
<title>Node3</title>
<g id="a_Node000003"><a xlink:href="../../d3/d21/classorg_qhull_1_1_qhull_facet.html#a0599a5c84381b2118485dd346d72cfcf" target="_top" xlink:title=" ">
<polygon fill="white" stroke="#666666" points="360,-217.5 254.75,-217.5 254.75,-187 360,-187 360,-217.5"/>
<text text-anchor="start" x="262.75" y="-204" font-family="Helvetica,sans-Serif" font-size="10.00">orgQhull::QhullFacet</text>
<text text-anchor="middle" x="307.38" y="-192.75" font-family="Helvetica,sans-Serif" font-size="10.00">::getFacetT</text>
</a>
</g>
</g>
<!-- Node1&#45;&gt;Node3 -->
<g id="edge2_Node000001_Node000003" class="edge">
<title>Node1&#45;&gt;Node3</title>
<g id="a_edge2_Node000001_Node000003"><a xlink:title=" ">
<path fill="none" stroke="#63b8ff" d="M36.44,-193.13C44.55,-212.58 65.59,-255.4 99.25,-272.25 146.74,-296.02 168.63,-289.81 218.75,-272.25 245.12,-263.01 269.46,-242.13 285.76,-225.57"/>
<polygon fill="#63b8ff" stroke="#63b8ff" points="287.74,-228.51 292.09,-218.85 282.67,-223.69 287.74,-228.51"/>
</a>
</g>
</g>
<!-- Node4 -->
<g id="Node000004" class="node">
<title>Node4</title>
<g id="a_Node000004"><a xlink:href="../../db/d5b/classorg_qhull_1_1_qhull_ridge.html#a135b1e999702b649363a9d4b6a24f361" target="_top" xlink:title=" ">
<polygon fill="white" stroke="#666666" points="212,-263.5 106,-263.5 106,-233 212,-233 212,-263.5"/>
<text text-anchor="start" x="114" y="-250" font-family="Helvetica,sans-Serif" font-size="10.00">orgQhull::QhullRidge</text>
<text text-anchor="middle" x="159" y="-238.75" font-family="Helvetica,sans-Serif" font-size="10.00">::getRidgeT</text>
</a>
</g>
</g>
<!-- Node1&#45;&gt;Node4 -->
<g id="edge3_Node000001_Node000004" class="edge">
<title>Node1&#45;&gt;Node4</title>
<g id="a_edge3_Node000001_Node000004"><a xlink:title=" ">
<path fill="none" stroke="#63b8ff" d="M47.3,-193.25C60.54,-202.04 80.72,-214.84 99.25,-224.25 101.83,-225.56 104.5,-226.86 107.22,-228.12"/>
<polygon fill="#63b8ff" stroke="#63b8ff" points="105.6,-231.68 116.16,-232.58 108.46,-225.29 105.6,-231.68"/>
</a>
</g>
</g>
<!-- Node5 -->
<g id="Node000005" class="node">
<title>Node5</title>
<g id="a_Node000005"><a xlink:href="../../db/d5b/classorg_qhull_1_1_qhull_ridge.html#ad2a5f08d2f1a1355cba5a37a747b76b0" target="_top" xlink:title=" ">
<polygon fill="white" stroke="#666666" points="218.75,-214.88 99.25,-214.88 99.25,-195.62 218.75,-195.62 218.75,-214.88"/>
<text text-anchor="middle" x="159" y="-201.38" font-family="Helvetica,sans-Serif" font-size="10.00">orgQhull::QhullRidge::id</text>
</a>
</g>
</g>
<!-- Node1&#45;&gt;Node5 -->
<g id="edge4_Node000001_Node000005" class="edge">
<title>Node1&#45;&gt;Node5</title>
<g id="a_edge4_Node000001_Node000005"><a xlink:title=" ">
<path fill="none" stroke="#63b8ff" d="M63.62,-188.69C71.64,-190.1 80.61,-191.67 89.74,-193.27"/>
<polygon fill="#63b8ff" stroke="#63b8ff" points="89.02,-196.87 99.48,-195.16 90.23,-189.98 89.02,-196.87"/>
</a>
</g>
</g>
<!-- Node6 -->
<g id="Node000006" class="node">
<title>Node6</title>
<g id="a_Node000006"><a xlink:href="../../d3/d21/classorg_qhull_1_1_qhull_facet.html#a5e99c0fd94dd398d788bf5226aeaa3b5" target="_top" xlink:title=" ">
<polygon fill="white" stroke="#666666" points="211.62,-177.5 106.38,-177.5 106.38,-147 211.62,-147 211.62,-177.5"/>
<text text-anchor="start" x="114.38" y="-164" font-family="Helvetica,sans-Serif" font-size="10.00">orgQhull::QhullFacet</text>
<text text-anchor="middle" x="159" y="-152.75" font-family="Helvetica,sans-Serif" font-size="10.00">::neighborFacets</text>
</a>
</g>
</g>
<!-- Node1&#45;&gt;Node6 -->
<g id="edge5_Node000001_Node000006" class="edge">
<title>Node1&#45;&gt;Node6</title>
<g id="a_edge5_Node000001_Node000006"><a xlink:title=" ">
<path fill="none" stroke="#63b8ff" d="M63.62,-178.06C73.29,-176.44 84.33,-174.59 95.36,-172.74"/>
<polygon fill="#63b8ff" stroke="#63b8ff" points="95.61,-176.08 104.9,-170.98 94.46,-169.18 95.61,-176.08"/>
</a>
</g>
</g>
<!-- Node7 -->
<g id="Node000007" class="node">
<title>Node7</title>
<g id="a_Node000007"><a xlink:href="../../db/d5b/classorg_qhull_1_1_qhull_ridge.html#a692454d94dd34e5da20c213b06b88e15" target="_top" xlink:title=" ">
<polygon fill="white" stroke="#666666" points="212,-128.5 106,-128.5 106,-98 212,-98 212,-128.5"/>
<text text-anchor="start" x="114" y="-115" font-family="Helvetica,sans-Serif" font-size="10.00">orgQhull::QhullRidge</text>
<text text-anchor="middle" x="159" y="-103.75" font-family="Helvetica,sans-Serif" font-size="10.00">::otherFacet</text>
</a>
</g>
</g>
<!-- Node1&#45;&gt;Node7 -->
<g id="edge6_Node000001_Node000007" class="edge">
<title>Node1&#45;&gt;Node7</title>
<g id="a_edge6_Node000001_Node000007"><a xlink:title=" ">
<path fill="none" stroke="#63b8ff" d="M45.92,-173.15C59.04,-163.46 79.88,-148.79 99.25,-138.25 102.27,-136.61 105.42,-135 108.62,-133.43"/>
<polygon fill="#63b8ff" stroke="#63b8ff" points="109.74,-136.31 117.32,-128.9 106.78,-129.96 109.74,-136.31"/>
</a>
</g>
</g>
<!-- Node8 -->
<g id="Node000008" class="node">
<title>Node8</title>
<g id="a_Node000008"><a xlink:href="../../db/d5b/classorg_qhull_1_1_qhull_ridge.html#a90906e88d50a7533b05e69b89471168d" target="_top" xlink:title=" ">
<polygon fill="white" stroke="#666666" points="212,-79.5 106,-79.5 106,-49 212,-49 212,-79.5"/>
<text text-anchor="start" x="114" y="-66" font-family="Helvetica,sans-Serif" font-size="10.00">orgQhull::QhullRidge</text>
<text text-anchor="middle" x="159" y="-54.75" font-family="Helvetica,sans-Serif" font-size="10.00">::print</text>
</a>
</g>
</g>
<!-- Node1&#45;&gt;Node8 -->
<g id="edge8_Node000001_Node000008" class="edge">
<title>Node1&#45;&gt;Node8</title>
<g id="a_edge8_Node000001_Node000008"><a xlink:title=" ">
<path fill="none" stroke="#63b8ff" d="M37.28,-173.37C46.59,-154.6 69.19,-113.47 99.25,-89.25 100.9,-87.92 102.63,-86.65 104.42,-85.44"/>
<polygon fill="#63b8ff" stroke="#63b8ff" points="105.99,-87.98 112.78,-79.85 102.4,-81.97 105.99,-87.98"/>
</a>
</g>
</g>
<!-- Node9 -->
<g id="Node000009" class="node">
<title>Node9</title>
<g id="a_Node000009"><a xlink:href="../../d3/d21/classorg_qhull_1_1_qhull_facet.html#ab6b1c7ec3427833aa70b668116957d10" target="_top" xlink:title=" ">
<polygon fill="white" stroke="#666666" points="211.62,-30.5 106.38,-30.5 106.38,0 211.62,0 211.62,-30.5"/>
<text text-anchor="start" x="114.38" y="-17" font-family="Helvetica,sans-Serif" font-size="10.00">orgQhull::QhullFacet</text>
<text text-anchor="middle" x="159" y="-5.75" font-family="Helvetica,sans-Serif" font-size="10.00">::ridges</text>
</a>
</g>
</g>
<!-- Node1&#45;&gt;Node9 -->
<g id="edge9_Node000001_Node000009" class="edge">
<title>Node1&#45;&gt;Node9</title>
<g id="a_edge9_Node000001_Node000009"><a xlink:title=" ">
<path fill="none" stroke="#63b8ff" d="M34.7,-173.13C40.44,-147.5 58.89,-79.28 99.25,-40.25 100.4,-39.14 101.6,-38.08 102.85,-37.06"/>
<polygon fill="#63b8ff" stroke="#63b8ff" points="104.43,-39.53 110.66,-30.96 100.44,-33.78 104.43,-39.53"/>
</a>
</g>
</g>
<!-- Node7&#45;&gt;Node3 -->
<g id="edge7_Node000007_Node000003" class="edge">
<title>Node7&#45;&gt;Node3</title>
<g id="a_edge7_Node000007_Node000003"><a xlink:title=" ">
<path fill="none" stroke="#63b8ff" d="M200.41,-129C206.67,-131.85 212.97,-134.97 218.75,-138.25 240.23,-150.45 262.7,-166.95 279.5,-180.14"/>
<polygon fill="#63b8ff" stroke="#63b8ff" points="276.74,-183.2 286.74,-186.69 281.1,-177.72 276.74,-183.2"/>
</a>
</g>
</g>
</g>
</svg>
</svg>

<style type='text/css'>
<![CDATA[
[data-mouse-over-selected='false'] { opacity: 0.7; }
[data-mouse-over-selected='true']  { opacity: 1.0; }
]]>
</style>
<script type="application/ecmascript"><![CDATA[
document.addEventListener('DOMContentLoaded', (event) => {
  highlightEdges();
  highlightAdjacentNodes();
});
]]></script>
</svg>
