<?xml version="1.0" encoding="UTF-8" standalone="no"?>
<!DOCTYPE svg PUBLIC "-//W3C//DTD SVG 1.1//EN"
 "http://www.w3.org/Graphics/SVG/1.1/DTD/svg11.dtd">
<!-- Generated by graphviz version 8.1.0 (20230707.0739)
 -->
<!-- Title: Slic3r::GUI::GLGizmoBase::set_dirty Pages: 1 -->
<svg width="709pt" height="159pt"
 viewBox="0.00 0.00 708.75 158.50" xmlns="http://www.w3.org/2000/svg" xmlns:xlink="http://www.w3.org/1999/xlink">
<g id="graph0" class="graph" transform="scale(1 1) rotate(0) translate(4 154.5)">
<title>Slic3r::GUI::GLGizmoBase::set_dirty</title>
<!-- Node1 -->
<g id="Node000001" class="node">
<title>Node1</title>
<g id="a_Node000001"><a xlink:title=" ">
<polygon fill="#999999" stroke="#666666" points="700.75,-100.5 566.25,-100.5 566.25,-70 700.75,-70 700.75,-100.5"/>
<text text-anchor="start" x="574.25" y="-87" font-family="Helvetica,sans-Serif" font-size="10.00">Slic3r::GUI::GLGizmoBase</text>
<text text-anchor="middle" x="633.5" y="-75.75" font-family="Helvetica,sans-Serif" font-size="10.00">::set_dirty</text>
</a>
</g>
</g>
<!-- Node2 -->
<g id="Node000002" class="node">
<title>Node2</title>
<g id="a_Node000002"><a xlink:href="../../dc/d96/class_slic3r_1_1_g_u_i_1_1_g_l_gizmo_advanced_cut.html#a1c1d0bc9970f6ae7847b93e9fca4c1c1" target="_top" xlink:title=" ">
<polygon fill="white" stroke="#666666" points="530.25,-137.5 374.75,-137.5 374.75,-107 530.25,-107 530.25,-137.5"/>
<text text-anchor="start" x="382.75" y="-124" font-family="Helvetica,sans-Serif" font-size="10.00">Slic3r::GUI::GLGizmoAdvanced</text>
<text text-anchor="middle" x="452.5" y="-112.75" font-family="Helvetica,sans-Serif" font-size="10.00">Cut::process_cut_line</text>
</a>
</g>
</g>
<!-- Node1&#45;&gt;Node2 -->
<g id="edge1_Node000001_Node000002" class="edge">
<title>Node1&#45;&gt;Node2</title>
<g id="a_edge1_Node000001_Node000002"><a xlink:title=" ">
<path fill="none" stroke="#63b8ff" d="M555.19,-101.23C546.69,-102.99 538.04,-104.78 529.55,-106.53"/>
<polygon fill="#63b8ff" stroke="#63b8ff" points="555.76,-104.48 564.85,-99.03 554.35,-97.62 555.76,-104.48"/>
</a>
</g>
</g>
<!-- Node4 -->
<g id="Node000004" class="node">
<title>Node4</title>
<g id="a_Node000004"><a xlink:href="../../d1/d4e/class_slic3r_1_1_g_u_i_1_1_g_l_gizmo_simplify.html#ac030547ccbc98194616ccd127ef75e79" target="_top" xlink:title=" ">
<polygon fill="white" stroke="#666666" points="526.12,-76.5 378.88,-76.5 378.88,-46 526.12,-46 526.12,-76.5"/>
<text text-anchor="start" x="386.88" y="-63" font-family="Helvetica,sans-Serif" font-size="10.00">Slic3r::GUI::GLGizmoSimplify</text>
<text text-anchor="middle" x="452.5" y="-51.75" font-family="Helvetica,sans-Serif" font-size="10.00">::request_rerender</text>
</a>
</g>
</g>
<!-- Node1&#45;&gt;Node4 -->
<g id="edge3_Node000001_Node000004" class="edge">
<title>Node1&#45;&gt;Node4</title>
<g id="a_edge3_Node000001_Node000004"><a xlink:title=" ">
<path fill="none" stroke="#63b8ff" d="M555.2,-74.89C545.68,-73.61 535.97,-72.31 526.52,-71.04"/>
<polygon fill="#63b8ff" stroke="#63b8ff" points="554.47,-78.45 564.85,-76.31 555.4,-71.52 554.47,-78.45"/>
</a>
</g>
</g>
<!-- Node3 -->
<g id="Node000003" class="node">
<title>Node3</title>
<g id="a_Node000003"><a xlink:href="../../dc/d96/class_slic3r_1_1_g_u_i_1_1_g_l_gizmo_advanced_cut.html#ad429274be933375d68af79fda287ab1d" target="_top" xlink:title=" ">
<polygon fill="white" stroke="#666666" points="338.75,-150.5 183.25,-150.5 183.25,-120 338.75,-120 338.75,-150.5"/>
<text text-anchor="start" x="191.25" y="-137" font-family="Helvetica,sans-Serif" font-size="10.00">Slic3r::GUI::GLGizmoAdvanced</text>
<text text-anchor="middle" x="261" y="-125.75" font-family="Helvetica,sans-Serif" font-size="10.00">Cut::gizmo_event</text>
</a>
</g>
</g>
<!-- Node2&#45;&gt;Node3 -->
<g id="edge2_Node000002_Node000003" class="edge">
<title>Node2&#45;&gt;Node3</title>
<g id="a_edge2_Node000002_Node000003"><a xlink:title=" ">
<path fill="none" stroke="#63b8ff" d="M363.66,-128.28C355.43,-128.84 347.13,-129.41 339.01,-129.97"/>
<polygon fill="#63b8ff" stroke="#63b8ff" points="363.69,-131.71 373.42,-127.54 363.21,-124.73 363.69,-131.71"/>
</a>
</g>
</g>
<!-- Node5 -->
<g id="Node000005" class="node">
<title>Node5</title>
<g id="a_Node000005"><a xlink:href="../../d1/d4e/class_slic3r_1_1_g_u_i_1_1_g_l_gizmo_simplify.html#ac6bcf936b7319e868e09eba4914408c8" target="_top" xlink:title=" ">
<polygon fill="white" stroke="#666666" points="334.62,-101.5 187.38,-101.5 187.38,-71 334.62,-71 334.62,-101.5"/>
<text text-anchor="start" x="195.38" y="-88" font-family="Helvetica,sans-Serif" font-size="10.00">Slic3r::GUI::GLGizmoSimplify</text>
<text text-anchor="middle" x="261" y="-76.75" font-family="Helvetica,sans-Serif" font-size="10.00">::on_set_state</text>
</a>
</g>
</g>
<!-- Node4&#45;&gt;Node5 -->
<g id="edge4_Node000004_Node000005" class="edge">
<title>Node4&#45;&gt;Node5</title>
<g id="a_edge4_Node000004_Node000005"><a xlink:title=" ">
<path fill="none" stroke="#63b8ff" d="M367.68,-72.31C356.77,-73.75 345.67,-75.21 334.96,-76.63"/>
<polygon fill="#63b8ff" stroke="#63b8ff" points="368.05,-75.66 377.51,-70.88 367.13,-68.72 368.05,-75.66"/>
</a>
</g>
</g>
<!-- Node6 -->
<g id="Node000006" class="node">
<title>Node6</title>
<g id="a_Node000006"><a xlink:href="../../d1/d4e/class_slic3r_1_1_g_u_i_1_1_g_l_gizmo_simplify.html#a682eb2f9172249dfc8b51c7d88f87fe4" target="_top" xlink:title=" ">
<polygon fill="white" stroke="#666666" points="334.62,-52.5 187.38,-52.5 187.38,-22 334.62,-22 334.62,-52.5"/>
<text text-anchor="start" x="195.38" y="-39" font-family="Helvetica,sans-Serif" font-size="10.00">Slic3r::GUI::GLGizmoSimplify</text>
<text text-anchor="middle" x="261" y="-27.75" font-family="Helvetica,sans-Serif" font-size="10.00">::process</text>
</a>
</g>
</g>
<!-- Node4&#45;&gt;Node6 -->
<g id="edge5_Node000004_Node000006" class="edge">
<title>Node4&#45;&gt;Node6</title>
<g id="a_edge5_Node000004_Node000006"><a xlink:title=" ">
<path fill="none" stroke="#63b8ff" d="M367.68,-50.63C356.77,-49.25 345.67,-47.85 334.96,-46.49"/>
<polygon fill="#63b8ff" stroke="#63b8ff" points="367.14,-54.22 377.51,-52.01 368.02,-47.28 367.14,-54.22"/>
</a>
</g>
</g>
<!-- Node8 -->
<g id="Node000008" class="node">
<title>Node8</title>
<g id="a_Node000008"><a xlink:href="../../d1/d4e/class_slic3r_1_1_g_u_i_1_1_g_l_gizmo_simplify.html#af6ea655dc38e0dc8c3e8acf026b03c54" target="_top" xlink:title=" ">
<polygon fill="white" stroke="#666666" points="147.25,-30.5 0,-30.5 0,0 147.25,0 147.25,-30.5"/>
<text text-anchor="start" x="8" y="-17" font-family="Helvetica,sans-Serif" font-size="10.00">Slic3r::GUI::GLGizmoSimplify</text>
<text text-anchor="middle" x="73.62" y="-5.75" font-family="Helvetica,sans-Serif" font-size="10.00">::worker_finished</text>
</a>
</g>
</g>
<!-- Node4&#45;&gt;Node8 -->
<g id="edge9_Node000004_Node000008" class="edge">
<title>Node4&#45;&gt;Node8</title>
<g id="a_edge9_Node000004_Node000008"><a xlink:title=" ">
<path fill="none" stroke="#63b8ff" d="M414.14,-40.84C392.76,-30.33 365.02,-18.61 338.75,-13.25 275.17,-0.28 201.18,-2.26 147.72,-6.62"/>
<polygon fill="#63b8ff" stroke="#63b8ff" points="412.29,-44.33 422.8,-45.72 415.45,-38.09 412.29,-44.33"/>
</a>
</g>
</g>
<!-- Node7 -->
<g id="Node000007" class="node">
<title>Node7</title>
<g id="a_Node000007"><a xlink:href="../../d1/d4e/class_slic3r_1_1_g_u_i_1_1_g_l_gizmo_simplify.html#a62fe9acd61e7f5f1d47dc4e7bec6fd10" target="_top" xlink:title=" ">
<polygon fill="white" stroke="#666666" points="147.25,-79.5 0,-79.5 0,-49 147.25,-49 147.25,-79.5"/>
<text text-anchor="start" x="8" y="-66" font-family="Helvetica,sans-Serif" font-size="10.00">Slic3r::GUI::GLGizmoSimplify</text>
<text text-anchor="middle" x="73.62" y="-54.75" font-family="Helvetica,sans-Serif" font-size="10.00">::on_render_input_window</text>
</a>
</g>
</g>
<!-- Node6&#45;&gt;Node7 -->
<g id="edge6_Node000006_Node000007" class="edge">
<title>Node6&#45;&gt;Node7</title>
<g id="a_edge6_Node000006_Node000007"><a xlink:title=" ">
<path fill="none" stroke="#63b8ff" d="M176.26,-49.45C166.69,-50.84 156.98,-52.26 147.56,-53.63"/>
<polygon fill="#63b8ff" stroke="#63b8ff" points="176.61,-52.79 186,-47.88 175.6,-45.86 176.61,-52.79"/>
</a>
</g>
</g>
<!-- Node6&#45;&gt;Node8 -->
<g id="edge7_Node000006_Node000008" class="edge">
<title>Node6&#45;&gt;Node8</title>
<g id="a_edge7_Node000006_Node000008"><a xlink:title=" ">
<path fill="none" stroke="#63b8ff" d="M176.26,-20.59C166.69,-19.39 156.98,-18.28 147.56,-17.29"/>
<polygon fill="#63b8ff" stroke="#63b8ff" points="175.64,-24.17 186,-21.97 176.53,-17.22 175.64,-24.17"/>
</a>
</g>
</g>
<!-- Node8&#45;&gt;Node6 -->
<g id="edge8_Node000008_Node000006" class="edge">
<title>Node8&#45;&gt;Node6</title>
<g id="a_edge8_Node000008_Node000006"><a xlink:title=" ">
<path fill="none" stroke="#63b8ff" d="M158.29,-31.9C167.87,-33.1 177.58,-34.21 187,-35.2"/>
<polygon fill="#63b8ff" stroke="#63b8ff" points="158.92,-28.32 148.56,-30.52 158.03,-35.27 158.92,-28.32"/>
</a>
</g>
</g>
</g>
</svg>
