<?xml version="1.0" encoding="UTF-8" standalone="no"?>
<!DOCTYPE svg PUBLIC "-//W3C//DTD SVG 1.1//EN"
 "http://www.w3.org/Graphics/SVG/1.1/DTD/svg11.dtd">
<!-- Generated by graphviz version 8.1.0 (20230707.0739)
 -->
<!-- Title: Slic3r::PresetCollection::load_preset Pages: 1 -->
<svg width="771pt" height="153pt"
 viewBox="0.00 0.00 770.50 152.50" xmlns="http://www.w3.org/2000/svg" xmlns:xlink="http://www.w3.org/1999/xlink">
<g id="graph0" class="graph" transform="scale(1 1) rotate(0) translate(4 148.5)">
<title>Slic3r::PresetCollection::load_preset</title>
<!-- Node1 -->
<g id="Node000001" class="node">
<title>Node1</title>
<g id="a_Node000001"><a xlink:title=" ">
<polygon fill="#999999" stroke="#666666" points="762.5,-101.5 643.75,-101.5 643.75,-71 762.5,-71 762.5,-101.5"/>
<text text-anchor="start" x="651.75" y="-88" font-family="Helvetica,sans-Serif" font-size="10.00">Slic3r::PresetCollection</text>
<text text-anchor="middle" x="703.12" y="-76.75" font-family="Helvetica,sans-Serif" font-size="10.00">::load_preset</text>
</a>
</g>
</g>
<!-- Node1&#45;&gt;Node1 -->
<g id="edge10_Node000001_Node000001" class="edge">
<title>Node1&#45;&gt;Node1</title>
<g id="a_edge10_Node000001_Node000001"><a xlink:title=" ">
<path fill="none" stroke="#63b8ff" d="M729.43,-112.88C725.32,-116.83 716.56,-119.5 703.12,-119.5 679.25,-119.5 670.11,-111.06 675.7,-101.99"/>
<polygon fill="#63b8ff" stroke="#63b8ff" points="733.01,-113.29 730.55,-102.99 726.04,-112.58 733.01,-113.29"/>
</a>
</g>
</g>
<!-- Node2 -->
<g id="Node000002" class="node">
<title>Node2</title>
<g id="a_Node000002"><a xlink:href="../../d9/d4b/class_slic3r_1_1_preset_bundle.html#a7d95f9d1e9a353f188841766f009e897" target="_top" xlink:title=" ">
<polygon fill="white" stroke="#666666" points="601,-144.5 495.75,-144.5 495.75,-114 601,-114 601,-144.5"/>
<text text-anchor="start" x="503.75" y="-131" font-family="Helvetica,sans-Serif" font-size="10.00">Slic3r::PresetBundle</text>
<text text-anchor="middle" x="548.38" y="-119.75" font-family="Helvetica,sans-Serif" font-size="10.00">::import_presets</text>
</a>
</g>
</g>
<!-- Node1&#45;&gt;Node2 -->
<g id="edge1_Node000001_Node000002" class="edge">
<title>Node1&#45;&gt;Node2</title>
<g id="a_edge1_Node000001_Node000002"><a xlink:title=" ">
<path fill="none" stroke="#63b8ff" d="M636.02,-104.86C624.42,-108.12 612.5,-111.48 601.35,-114.62"/>
<polygon fill="#63b8ff" stroke="#63b8ff" points="636.87,-107.97 645.55,-101.9 634.97,-101.24 636.87,-107.97"/>
</a>
</g>
</g>
<!-- Node3 -->
<g id="Node000003" class="node">
<title>Node3</title>
<g id="a_Node000003"><a xlink:href="../../d9/d4b/class_slic3r_1_1_preset_bundle.html#a547c4b4af2158998889d7ee8da698dd3" target="_top" xlink:title=" ">
<polygon fill="white" stroke="#666666" points="453,-79.5 332,-79.5 332,-49 453,-49 453,-79.5"/>
<text text-anchor="start" x="340" y="-66" font-family="Helvetica,sans-Serif" font-size="10.00">Slic3r::PresetBundle</text>
<text text-anchor="middle" x="392.5" y="-54.75" font-family="Helvetica,sans-Serif" font-size="10.00">::load_config_file_config</text>
</a>
</g>
</g>
<!-- Node1&#45;&gt;Node3 -->
<g id="edge2_Node000001_Node000003" class="edge">
<title>Node1&#45;&gt;Node3</title>
<g id="a_edge2_Node000001_Node000003"><a xlink:title=" ">
<path fill="none" stroke="#63b8ff" d="M632.5,-81.29C578.58,-77.44 504.67,-72.17 453.37,-68.52"/>
<polygon fill="#63b8ff" stroke="#63b8ff" points="632.12,-84.84 642.35,-82.06 632.62,-77.86 632.12,-84.84"/>
</a>
</g>
</g>
<!-- Node9 -->
<g id="Node000009" class="node">
<title>Node9</title>
<g id="a_Node000009"><a xlink:href="../../d9/d24/class_slic3r_1_1_preset_collection.html#af161604d43b04aa3f6ff9c0ed45f219d" target="_top" xlink:title=" ">
<polygon fill="white" stroke="#666666" points="607.75,-58.5 489,-58.5 489,-28 607.75,-28 607.75,-58.5"/>
<text text-anchor="start" x="497" y="-45" font-family="Helvetica,sans-Serif" font-size="10.00">Slic3r::PresetCollection</text>
<text text-anchor="middle" x="548.38" y="-33.75" font-family="Helvetica,sans-Serif" font-size="10.00">::load_external_preset</text>
</a>
</g>
</g>
<!-- Node1&#45;&gt;Node9 -->
<g id="edge8_Node000001_Node000009" class="edge">
<title>Node1&#45;&gt;Node9</title>
<g id="a_edge8_Node000001_Node000009"><a xlink:title=" ">
<path fill="none" stroke="#63b8ff" d="M635.97,-67.63C625.7,-64.74 615.18,-61.77 605.17,-58.96"/>
<polygon fill="#63b8ff" stroke="#63b8ff" points="634.97,-71.26 645.55,-70.6 636.87,-64.53 634.97,-71.26"/>
</a>
</g>
</g>
<!-- Node4 -->
<g id="Node000004" class="node">
<title>Node4</title>
<g id="a_Node000004"><a xlink:href="../../d9/d4b/class_slic3r_1_1_preset_bundle.html#a809726ab5729211dd5e6fb55ee5e9161" target="_top" xlink:title=" ">
<polygon fill="white" stroke="#666666" points="283.62,-128.5 178.38,-128.5 178.38,-98 283.62,-98 283.62,-128.5"/>
<text text-anchor="start" x="186.38" y="-115" font-family="Helvetica,sans-Serif" font-size="10.00">Slic3r::PresetBundle</text>
<text text-anchor="middle" x="231" y="-103.75" font-family="Helvetica,sans-Serif" font-size="10.00">::load_config_file</text>
</a>
</g>
</g>
<!-- Node3&#45;&gt;Node4 -->
<g id="edge3_Node000003_Node000004" class="edge">
<title>Node3&#45;&gt;Node4</title>
<g id="a_edge3_Node000003_Node000004"><a xlink:title=" ">
<path fill="none" stroke="#63b8ff" d="M330.52,-82.98C314.92,-87.78 298.3,-92.88 283.24,-97.51"/>
<polygon fill="#63b8ff" stroke="#63b8ff" points="331.06,-86.17 339.59,-79.89 329.01,-79.48 331.06,-86.17"/>
</a>
</g>
</g>
<!-- Node5 -->
<g id="Node000005" class="node">
<title>Node5</title>
<g id="a_Node000005"><a xlink:href="../../d9/d4b/class_slic3r_1_1_preset_bundle.html#a68fef4117cd9c40a2516a20a4dd2ff66" target="_top" xlink:title=" ">
<polygon fill="white" stroke="#666666" points="296,-79.5 166,-79.5 166,-49 296,-49 296,-79.5"/>
<text text-anchor="start" x="174" y="-66" font-family="Helvetica,sans-Serif" font-size="10.00">Slic3r::PresetBundle</text>
<text text-anchor="middle" x="231" y="-54.75" font-family="Helvetica,sans-Serif" font-size="10.00">::load_config_from_wizard</text>
</a>
</g>
</g>
<!-- Node3&#45;&gt;Node5 -->
<g id="edge4_Node000003_Node000005" class="edge">
<title>Node3&#45;&gt;Node5</title>
<g id="a_edge4_Node000003_Node000005"><a xlink:title=" ">
<path fill="none" stroke="#63b8ff" d="M320.74,-64.25C312.66,-64.25 304.45,-64.25 296.45,-64.25"/>
<polygon fill="#63b8ff" stroke="#63b8ff" points="320.65,-67.75 330.65,-64.25 320.65,-60.75 320.65,-67.75"/>
</a>
</g>
</g>
<!-- Node7 -->
<g id="Node000007" class="node">
<title>Node7</title>
<g id="a_Node000007"><a xlink:href="../../d9/d4b/class_slic3r_1_1_preset_bundle.html#ad0dd708ed65c090097f7d3dd4b521a36" target="_top" xlink:title=" ">
<polygon fill="white" stroke="#666666" points="283.62,-30.5 178.38,-30.5 178.38,0 283.62,0 283.62,-30.5"/>
<text text-anchor="start" x="186.38" y="-17" font-family="Helvetica,sans-Serif" font-size="10.00">Slic3r::PresetBundle</text>
<text text-anchor="middle" x="231" y="-5.75" font-family="Helvetica,sans-Serif" font-size="10.00">::load_config_model</text>
</a>
</g>
</g>
<!-- Node3&#45;&gt;Node7 -->
<g id="edge6_Node000003_Node000007" class="edge">
<title>Node3&#45;&gt;Node7</title>
<g id="a_edge6_Node000003_Node000007"><a xlink:title=" ">
<path fill="none" stroke="#63b8ff" d="M330.52,-45.52C314.92,-40.72 298.3,-35.62 283.24,-30.99"/>
<polygon fill="#63b8ff" stroke="#63b8ff" points="329.01,-49.02 339.59,-48.61 331.06,-42.33 329.01,-49.02"/>
</a>
</g>
</g>
<!-- Node6 -->
<g id="Node000006" class="node">
<title>Node6</title>
<g id="a_Node000006"><a xlink:href="../../db/dd1/struct_slic3r_1_1_g_u_i_1_1_config_wizard_1_1priv.html#aaa5530c34d0ac4d27920cd06063e7ebf" target="_top" xlink:title=" ">
<polygon fill="white" stroke="#666666" points="130,-79.5 0,-79.5 0,-49 130,-49 130,-79.5"/>
<text text-anchor="start" x="8" y="-66" font-family="Helvetica,sans-Serif" font-size="10.00">Slic3r::GUI::ConfigWizard</text>
<text text-anchor="middle" x="65" y="-54.75" font-family="Helvetica,sans-Serif" font-size="10.00">::priv::apply_config</text>
</a>
</g>
</g>
<!-- Node5&#45;&gt;Node6 -->
<g id="edge5_Node000005_Node000006" class="edge">
<title>Node5&#45;&gt;Node6</title>
<g id="a_edge5_Node000005_Node000006"><a xlink:title=" ">
<path fill="none" stroke="#63b8ff" d="M154.69,-64.25C146.58,-64.25 138.39,-64.25 130.43,-64.25"/>
<polygon fill="#63b8ff" stroke="#63b8ff" points="154.65,-67.75 164.65,-64.25 154.65,-60.75 154.65,-67.75"/>
</a>
</g>
</g>
<!-- Node8 -->
<g id="Node000008" class="node">
<title>Node8</title>
<g id="a_Node000008"><a xlink:href="../../d4/d88/struct_slic3r_1_1_g_u_i_1_1_plater_1_1priv.html#a8f66b6a670ee52335e7fdac46f2b133e" target="_top" xlink:title=" ">
<polygon fill="white" stroke="#666666" points="113.12,-30.5 16.88,-30.5 16.88,0 113.12,0 113.12,-30.5"/>
<text text-anchor="start" x="24.88" y="-17" font-family="Helvetica,sans-Serif" font-size="10.00">Slic3r::GUI::Plater</text>
<text text-anchor="middle" x="65" y="-5.75" font-family="Helvetica,sans-Serif" font-size="10.00">::priv::load_files</text>
</a>
</g>
</g>
<!-- Node7&#45;&gt;Node8 -->
<g id="edge7_Node000007_Node000008" class="edge">
<title>Node7&#45;&gt;Node8</title>
<g id="a_edge7_Node000007_Node000008"><a xlink:title=" ">
<path fill="none" stroke="#63b8ff" d="M167.18,-15.25C149.32,-15.25 130.16,-15.25 113.38,-15.25"/>
<polygon fill="#63b8ff" stroke="#63b8ff" points="167.11,-18.75 177.11,-15.25 167.11,-11.75 167.11,-18.75"/>
</a>
</g>
</g>
<!-- Node9&#45;&gt;Node3 -->
<g id="edge9_Node000009_Node000003" class="edge">
<title>Node9&#45;&gt;Node3</title>
<g id="a_edge9_Node000009_Node000003"><a xlink:title=" ">
<path fill="none" stroke="#63b8ff" d="M478.07,-52.71C469.87,-53.83 461.54,-54.96 453.48,-56.06"/>
<polygon fill="#63b8ff" stroke="#63b8ff" points="478.33,-56.07 487.76,-51.25 477.38,-49.13 478.33,-56.07"/>
</a>
</g>
</g>
</g>
</svg>
