<?xml version="1.0" encoding="UTF-8" standalone="no"?>
<!DOCTYPE svg PUBLIC "-//W3C//DTD SVG 1.1//EN"
 "http://www.w3.org/Graphics/SVG/1.1/DTD/svg11.dtd">
<!-- Generated by graphviz version 8.1.0 (20230707.0739)
 -->
<!-- Title: Slic3r::PresetCollection::PresetCollection Pages: 1 -->
<svg width="750pt" height="214pt"
 viewBox="0.00 0.00 750.25 214.12" xmlns="http://www.w3.org/2000/svg" xmlns:xlink="http://www.w3.org/1999/xlink">
<g id="graph0" class="graph" transform="scale(1 1) rotate(0) translate(4 210.12)">
<title>Slic3r::PresetCollection::PresetCollection</title>
<!-- Node1 -->
<g id="Node000001" class="node">
<title>Node1</title>
<g id="a_Node000001"><a xlink:title=" ">
<polygon fill="#999999" stroke="#666666" points="118.75,-90.12 0,-90.12 0,-59.62 118.75,-59.62 118.75,-90.12"/>
<text text-anchor="start" x="8" y="-76.62" font-family="Helvetica,sans-Serif" font-size="10.00">Slic3r::PresetCollection</text>
<text text-anchor="middle" x="59.38" y="-65.38" font-family="Helvetica,sans-Serif" font-size="10.00">::PresetCollection</text>
</a>
</g>
</g>
<!-- Node2 -->
<g id="Node000002" class="node">
<title>Node2</title>
<g id="a_Node000002"><a xlink:href="../../d9/d24/class_slic3r_1_1_preset_collection.html#a79b17a159b3fc158640d73c3a01a4666" target="_top" xlink:title=" ">
<polygon fill="white" stroke="#666666" points="284,-139.12 165.25,-139.12 165.25,-108.62 284,-108.62 284,-139.12"/>
<text text-anchor="start" x="173.25" y="-125.62" font-family="Helvetica,sans-Serif" font-size="10.00">Slic3r::PresetCollection</text>
<text text-anchor="middle" x="224.62" y="-114.38" font-family="Helvetica,sans-Serif" font-size="10.00">::add_default_preset</text>
</a>
</g>
</g>
<!-- Node1&#45;&gt;Node2 -->
<g id="edge1_Node000001_Node000002" class="edge">
<title>Node1&#45;&gt;Node2</title>
<g id="a_edge1_Node000001_Node000002"><a xlink:title=" ">
<path fill="none" stroke="#63b8ff" d="M112.48,-90.51C127.86,-95.13 144.87,-100.24 160.85,-105.03"/>
<polygon fill="#63b8ff" stroke="#63b8ff" points="159.59,-108.61 170.18,-108.13 161.61,-101.91 159.59,-108.61"/>
</a>
</g>
</g>
<!-- Node8 -->
<g id="Node000008" class="node">
<title>Node8</title>
<g id="a_Node000008"><a xlink:href="../../d9/d06/class_slic3r_1_1_config_base.html#a2bd0c2e3992bf03b0cc357e01babef6d" target="_top" xlink:title=" ">
<polygon fill="white" stroke="#666666" points="273.5,-90.12 175.75,-90.12 175.75,-59.62 273.5,-59.62 273.5,-90.12"/>
<text text-anchor="start" x="183.75" y="-76.62" font-family="Helvetica,sans-Serif" font-size="10.00">Slic3r::ConfigBase</text>
<text text-anchor="middle" x="224.62" y="-65.38" font-family="Helvetica,sans-Serif" font-size="10.00">::apply</text>
</a>
</g>
</g>
<!-- Node1&#45;&gt;Node8 -->
<g id="edge8_Node000001_Node000008" class="edge">
<title>Node1&#45;&gt;Node8</title>
<g id="a_edge8_Node000001_Node000008"><a xlink:title=" ">
<path fill="none" stroke="#63b8ff" d="M118.85,-74.88C133.8,-74.88 149.87,-74.88 164.83,-74.88"/>
<polygon fill="#63b8ff" stroke="#63b8ff" points="164.5,-78.38 174.5,-74.88 164.5,-71.38 164.5,-78.38"/>
</a>
</g>
</g>
<!-- Node12 -->
<g id="Node000012" class="node">
<title>Node12</title>
<g id="a_Node000012"><a xlink:href="../../d9/d24/class_slic3r_1_1_preset_collection.html#a7438b80b495a1e1323883fd1798cf8a1" target="_top" xlink:title=" ">
<polygon fill="white" stroke="#666666" points="294.5,-41.75 154.75,-41.75 154.75,0 294.5,0 294.5,-41.75"/>
<text text-anchor="start" x="162.75" y="-28.25" font-family="Helvetica,sans-Serif" font-size="10.00">Slic3r::PresetCollection</text>
<text text-anchor="start" x="162.75" y="-17" font-family="Helvetica,sans-Serif" font-size="10.00">::update_saved_preset_from</text>
<text text-anchor="middle" x="224.62" y="-5.75" font-family="Helvetica,sans-Serif" font-size="10.00">_current_preset</text>
</a>
</g>
</g>
<!-- Node1&#45;&gt;Node12 -->
<g id="edge14_Node000001_Node000012" class="edge">
<title>Node1&#45;&gt;Node12</title>
<g id="a_edge14_Node000001_Node000012"><a xlink:title=" ">
<path fill="none" stroke="#63b8ff" d="M107.59,-59.26C120.55,-54.97 134.92,-50.22 149.02,-45.55"/>
<polygon fill="#63b8ff" stroke="#63b8ff" points="149.81,-48.65 158.2,-42.18 147.61,-42 149.81,-48.65"/>
</a>
</g>
</g>
<!-- Node3 -->
<g id="Node000003" class="node">
<title>Node3</title>
<g id="a_Node000003"><a xlink:href="../../db/da3/class_slic3r_1_1_static_config.html#a27ef9f6e96149e9627768297b6b1d6be" target="_top" xlink:title="Gets list of config option names for each config option of this&#45;&gt;def, which has a static counter&#45;part...">
<polygon fill="white" stroke="#666666" points="440.25,-188.12 339.5,-188.12 339.5,-157.62 440.25,-157.62 440.25,-188.12"/>
<text text-anchor="start" x="347.5" y="-174.62" font-family="Helvetica,sans-Serif" font-size="10.00">Slic3r::StaticConfig</text>
<text text-anchor="middle" x="389.88" y="-163.38" font-family="Helvetica,sans-Serif" font-size="10.00">::keys</text>
</a>
</g>
</g>
<!-- Node2&#45;&gt;Node3 -->
<g id="edge2_Node000002_Node000003" class="edge">
<title>Node2&#45;&gt;Node3</title>
<g id="a_edge2_Node000002_Node000003"><a xlink:title=" ">
<path fill="none" stroke="#63b8ff" d="M277.73,-139.51C294.03,-144.41 312.15,-149.85 328.95,-154.89"/>
<polygon fill="#63b8ff" stroke="#63b8ff" points="327.63,-158.45 338.21,-157.97 329.64,-151.74 327.63,-158.45"/>
</a>
</g>
</g>
<!-- Node7 -->
<g id="Node000007" class="node">
<title>Node7</title>
<g id="a_Node000007"><a xlink:href="../../d9/d24/class_slic3r_1_1_preset_collection.html#a1a27959ef609baeb3d853b1c718852d1" target="_top" xlink:title=" ">
<polygon fill="white" stroke="#666666" points="449.25,-139.12 330.5,-139.12 330.5,-108.62 449.25,-108.62 449.25,-139.12"/>
<text text-anchor="start" x="338.5" y="-125.62" font-family="Helvetica,sans-Serif" font-size="10.00">Slic3r::PresetCollection</text>
<text text-anchor="middle" x="389.88" y="-114.38" font-family="Helvetica,sans-Serif" font-size="10.00">::type</text>
</a>
</g>
</g>
<!-- Node2&#45;&gt;Node7 -->
<g id="edge7_Node000002_Node000007" class="edge">
<title>Node2&#45;&gt;Node7</title>
<g id="a_edge7_Node000002_Node000007"><a xlink:title=" ">
<path fill="none" stroke="#63b8ff" d="M284.1,-123.88C295.59,-123.88 307.74,-123.88 319.55,-123.88"/>
<polygon fill="#63b8ff" stroke="#63b8ff" points="319.26,-127.38 329.26,-123.88 319.26,-120.38 319.26,-127.38"/>
</a>
</g>
</g>
<!-- Node3&#45;&gt;Node3 -->
<g id="edge4_Node000003_Node000003" class="edge">
<title>Node3&#45;&gt;Node3</title>
<g id="a_edge4_Node000003_Node000003"><a xlink:title=" ">
<path fill="none" stroke="#63b8ff" d="M362.05,-188.61C356.38,-197.68 365.65,-206.12 389.88,-206.12 403.5,-206.12 412.4,-203.45 416.56,-199.5"/>
<polygon fill="#63b8ff" stroke="#63b8ff" points="420.14,-199.92 417.7,-189.61 413.18,-199.19 420.14,-199.92"/>
</a>
</g>
</g>
<!-- Node4 -->
<g id="Node000004" class="node">
<title>Node4</title>
<g id="a_Node000004"><a xlink:href="../../d9/d06/class_slic3r_1_1_config_base.html#a4e9963bcc9dedfbb7b6dc18ffffa67f7" target="_top" xlink:title=" ">
<polygon fill="white" stroke="#666666" points="605.5,-182.5 488.25,-182.5 488.25,-163.25 605.5,-163.25 605.5,-182.5"/>
<text text-anchor="middle" x="546.88" y="-169" font-family="Helvetica,sans-Serif" font-size="10.00">Slic3r::ConfigBase::def</text>
</a>
</g>
</g>
<!-- Node3&#45;&gt;Node4 -->
<g id="edge3_Node000003_Node000004" class="edge">
<title>Node3&#45;&gt;Node4</title>
<g id="a_edge3_Node000003_Node000004"><a xlink:title=" ">
<path fill="none" stroke="#63b8ff" d="M440.34,-172.88C452.06,-172.88 464.77,-172.88 477.17,-172.88"/>
<polygon fill="#63b8ff" stroke="#63b8ff" points="476.96,-176.38 486.96,-172.88 476.96,-169.38 476.96,-176.38"/>
</a>
</g>
</g>
<!-- Node5 -->
<g id="Node000005" class="node">
<title>Node5</title>
<g id="a_Node000005"><a xlink:href="../../d9/d06/class_slic3r_1_1_config_base.html#a423121494459dae7858bc9d665f8cb4f" target="_top" xlink:title=" ">
<polygon fill="white" stroke="#666666" points="595.75,-139.12 498,-139.12 498,-108.62 595.75,-108.62 595.75,-139.12"/>
<text text-anchor="start" x="506" y="-125.62" font-family="Helvetica,sans-Serif" font-size="10.00">Slic3r::ConfigBase</text>
<text text-anchor="middle" x="546.88" y="-114.38" font-family="Helvetica,sans-Serif" font-size="10.00">::option</text>
</a>
</g>
</g>
<!-- Node3&#45;&gt;Node5 -->
<g id="edge5_Node000003_Node000005" class="edge">
<title>Node3&#45;&gt;Node5</title>
<g id="a_edge5_Node000003_Node000005"><a xlink:title=" ">
<path fill="none" stroke="#63b8ff" d="M440.34,-157.24C455.25,-152.53 471.74,-147.31 487.18,-142.43"/>
<polygon fill="#63b8ff" stroke="#63b8ff" points="488.19,-145.47 496.67,-139.11 486.08,-138.79 488.19,-145.47"/>
</a>
</g>
</g>
<!-- Node6 -->
<g id="Node000006" class="node">
<title>Node6</title>
<g id="a_Node000006"><a xlink:href="../../d9/d06/class_slic3r_1_1_config_base.html#a699680b37bd3c116736fd1a2ec831728" target="_top" xlink:title=" ">
<polygon fill="white" stroke="#666666" points="742.25,-139.12 644.5,-139.12 644.5,-108.62 742.25,-108.62 742.25,-139.12"/>
<text text-anchor="start" x="652.5" y="-125.62" font-family="Helvetica,sans-Serif" font-size="10.00">Slic3r::ConfigBase</text>
<text text-anchor="middle" x="693.38" y="-114.38" font-family="Helvetica,sans-Serif" font-size="10.00">::optptr</text>
</a>
</g>
</g>
<!-- Node5&#45;&gt;Node6 -->
<g id="edge6_Node000005_Node000006" class="edge">
<title>Node5&#45;&gt;Node6</title>
<g id="a_edge6_Node000005_Node000006"><a xlink:title=" ">
<path fill="none" stroke="#63b8ff" d="M595.99,-123.88C608.06,-123.88 621.14,-123.88 633.65,-123.88"/>
<polygon fill="#63b8ff" stroke="#63b8ff" points="633.47,-127.38 643.47,-123.88 633.47,-120.38 633.47,-127.38"/>
</a>
</g>
</g>
<!-- Node9 -->
<g id="Node000009" class="node">
<title>Node9</title>
<g id="a_Node000009"><a xlink:href="../../d9/d06/class_slic3r_1_1_config_base.html#aab1dc516b1adca91bb484860779c281f" target="_top" xlink:title=" ">
<polygon fill="white" stroke="#666666" points="438.75,-90.12 341,-90.12 341,-59.62 438.75,-59.62 438.75,-90.12"/>
<text text-anchor="start" x="349" y="-76.62" font-family="Helvetica,sans-Serif" font-size="10.00">Slic3r::ConfigBase</text>
<text text-anchor="middle" x="389.88" y="-65.38" font-family="Helvetica,sans-Serif" font-size="10.00">::apply_only</text>
</a>
</g>
</g>
<!-- Node8&#45;&gt;Node9 -->
<g id="edge9_Node000008_Node000009" class="edge">
<title>Node8&#45;&gt;Node9</title>
<g id="a_edge9_Node000008_Node000009"><a xlink:title=" ">
<path fill="none" stroke="#63b8ff" d="M273.72,-74.88C291.25,-74.88 311.28,-74.88 329.66,-74.88"/>
<polygon fill="#63b8ff" stroke="#63b8ff" points="329.56,-78.38 339.56,-74.88 329.56,-71.38 329.56,-78.38"/>
</a>
</g>
</g>
<!-- Node10 -->
<g id="Node000010" class="node">
<title>Node10</title>
<g id="a_Node000010"><a xlink:href="../../d9/d06/class_slic3r_1_1_config_base.html#aa4b79ae20e460d24b8a77114931225a0" target="_top" xlink:title=" ">
<polygon fill="white" stroke="#666666" points="595.75,-47.12 498,-47.12 498,-16.62 595.75,-16.62 595.75,-47.12"/>
<text text-anchor="start" x="506" y="-33.62" font-family="Helvetica,sans-Serif" font-size="10.00">Slic3r::ConfigBase</text>
<text text-anchor="middle" x="546.88" y="-22.38" font-family="Helvetica,sans-Serif" font-size="10.00">::keys</text>
</a>
</g>
</g>
<!-- Node8&#45;&gt;Node10 -->
<g id="edge13_Node000008_Node000010" class="edge">
<title>Node8&#45;&gt;Node10</title>
<g id="a_edge13_Node000008_Node000010"><a xlink:title=" ">
<path fill="none" stroke="#63b8ff" d="M273.91,-62.37C291.61,-58.17 311.87,-53.81 330.5,-50.88 383.03,-42.59 443.38,-37.65 486.8,-34.9"/>
<polygon fill="#63b8ff" stroke="#63b8ff" points="486.97,-38.33 496.74,-34.23 486.55,-31.35 486.97,-38.33"/>
</a>
</g>
</g>
<!-- Node9&#45;&gt;Node5 -->
<g id="edge11_Node000009_Node000005" class="edge">
<title>Node9&#45;&gt;Node5</title>
<g id="a_edge11_Node000009_Node000005"><a xlink:title=" ">
<path fill="none" stroke="#63b8ff" d="M439.07,-90.11C454.38,-94.95 471.48,-100.36 487.43,-105.4"/>
<polygon fill="#63b8ff" stroke="#63b8ff" points="486.12,-108.97 496.71,-108.65 488.23,-102.3 486.12,-108.97"/>
</a>
</g>
</g>
<!-- Node9&#45;&gt;Node10 -->
<g id="edge10_Node000009_Node000010" class="edge">
<title>Node9&#45;&gt;Node10</title>
<g id="a_edge10_Node000009_Node000010"><a xlink:title=" ">
<path fill="none" stroke="#63b8ff" d="M439.07,-61.51C454.38,-57.26 471.48,-52.51 487.43,-48.09"/>
<polygon fill="#63b8ff" stroke="#63b8ff" points="488.01,-51.28 496.71,-45.24 486.14,-44.54 488.01,-51.28"/>
</a>
</g>
</g>
<!-- Node11 -->
<g id="Node000011" class="node">
<title>Node11</title>
<g id="a_Node000011"><a xlink:href="../../de/d87/class_slic3r_1_1_config_option.html#a115454c6d498b68c5be60fde473fe8ca" target="_top" xlink:title=" ">
<polygon fill="white" stroke="#666666" points="608.5,-84.5 485.25,-84.5 485.25,-65.25 608.5,-65.25 608.5,-84.5"/>
<text text-anchor="middle" x="546.88" y="-71" font-family="Helvetica,sans-Serif" font-size="10.00">Slic3r::ConfigOption::set</text>
</a>
</g>
</g>
<!-- Node9&#45;&gt;Node11 -->
<g id="edge12_Node000009_Node000011" class="edge">
<title>Node9&#45;&gt;Node11</title>
<g id="a_edge12_Node000009_Node000011"><a xlink:title=" ">
<path fill="none" stroke="#63b8ff" d="M439.07,-74.88C450.16,-74.88 462.19,-74.88 474.04,-74.88"/>
<polygon fill="#63b8ff" stroke="#63b8ff" points="473.84,-78.38 483.84,-74.88 473.84,-71.38 473.84,-78.38"/>
</a>
</g>
</g>
</g>
</svg>
