<?xml version="1.0" encoding="UTF-8" standalone="no"?>
<!DOCTYPE svg PUBLIC "-//W3C//DTD SVG 1.1//EN"
 "http://www.w3.org/Graphics/SVG/1.1/DTD/svg11.dtd">
<!-- Generated by graphviz version 8.1.0 (20230707.0739)
 -->
<!-- Title: Slic3r::PresetCollection::current_different_from_parent_options Pages: 1 -->
<svg width="1169pt" height="716pt"
 viewBox="0.00 0.00 1169.25 716.10" xmlns="http://www.w3.org/2000/svg" xmlns:xlink="http://www.w3.org/1999/xlink">
<g id="graph0" class="graph" transform="scale(1 1) rotate(0) translate(4 712.1)">
<title>Slic3r::PresetCollection::current_different_from_parent_options</title>
<!-- Node1 -->
<g id="Node000001" class="node">
<title>Node1</title>
<g id="a_Node000001"><a xlink:title=" ">
<polygon fill="#999999" stroke="#666666" points="118.75,-478.12 0,-478.12 0,-436.38 118.75,-436.38 118.75,-478.12"/>
<text text-anchor="start" x="8" y="-464.62" font-family="Helvetica,sans-Serif" font-size="10.00">Slic3r::PresetCollection</text>
<text text-anchor="start" x="8" y="-453.38" font-family="Helvetica,sans-Serif" font-size="10.00">::current_different_from</text>
<text text-anchor="middle" x="59.38" y="-442.12" font-family="Helvetica,sans-Serif" font-size="10.00">_parent_options</text>
</a>
</g>
</g>
<!-- Node2 -->
<g id="Node000002" class="node">
<title>Node2</title>
<g id="a_Node000002"><a xlink:href="../../d9/d24/class_slic3r_1_1_preset_collection.html#a0bfb7500664c8bc2db79787dc63a49d2" target="_top" xlink:title=" ">
<polygon fill="white" stroke="#666666" points="285.12,-211.5 166.38,-211.5 166.38,-181 285.12,-181 285.12,-211.5"/>
<text text-anchor="start" x="174.38" y="-198" font-family="Helvetica,sans-Serif" font-size="10.00">Slic3r::PresetCollection</text>
<text text-anchor="middle" x="225.75" y="-186.75" font-family="Helvetica,sans-Serif" font-size="10.00">::dirty_options</text>
</a>
</g>
</g>
<!-- Node1&#45;&gt;Node2 -->
<g id="edge1_Node000001_Node000002" class="edge">
<title>Node1&#45;&gt;Node2</title>
<g id="a_edge1_Node000001_Node000002"><a xlink:title=" ">
<path fill="none" stroke="#63b8ff" d="M73.83,-435.89C104.02,-387.95 177.03,-272.02 209.15,-221.02"/>
<polygon fill="#63b8ff" stroke="#63b8ff" points="212.63,-223.06 215,-212.73 206.71,-219.33 212.63,-223.06"/>
</a>
</g>
</g>
<!-- Node17 -->
<g id="Node000017" class="node">
<title>Node17</title>
<g id="a_Node000017"><a xlink:href="../../d9/d24/class_slic3r_1_1_preset_collection.html#a749d8ca3a5db3c393c201a7df55eefbd" target="_top" xlink:title=" ">
<polygon fill="white" stroke="#666666" points="474.38,-694.5 355.62,-694.5 355.62,-664 474.38,-664 474.38,-694.5"/>
<text text-anchor="start" x="363.62" y="-681" font-family="Helvetica,sans-Serif" font-size="10.00">Slic3r::PresetCollection</text>
<text text-anchor="middle" x="415" y="-669.75" font-family="Helvetica,sans-Serif" font-size="10.00">::get_edited_preset</text>
</a>
</g>
</g>
<!-- Node1&#45;&gt;Node17 -->
<g id="edge17_Node000001_Node000017" class="edge">
<title>Node1&#45;&gt;Node17</title>
<g id="a_edge17_Node000001_Node000017"><a xlink:title=" ">
<path fill="none" stroke="#63b8ff" d="M83.78,-478.35C128.86,-518 232.2,-604.14 332.75,-654.25 336.76,-656.25 340.97,-658.13 345.26,-659.88"/>
<polygon fill="#63b8ff" stroke="#63b8ff" points="343.8,-663.45 354.39,-663.76 346.3,-656.92 343.8,-663.45"/>
</a>
</g>
</g>
<!-- Node18 -->
<g id="Node000018" class="node">
<title>Node18</title>
<g id="a_Node000018"><a xlink:href="../../d9/d24/class_slic3r_1_1_preset_collection.html#abd545d5d2552e67168c9e5ea295bbd3a" target="_top" xlink:title=" ">
<polygon fill="white" stroke="#666666" points="296.75,-472.5 154.75,-472.5 154.75,-442 296.75,-442 296.75,-472.5"/>
<text text-anchor="start" x="162.75" y="-459" font-family="Helvetica,sans-Serif" font-size="10.00">Slic3r::PresetCollection</text>
<text text-anchor="middle" x="225.75" y="-447.75" font-family="Helvetica,sans-Serif" font-size="10.00">::get_selected_preset_parent</text>
</a>
</g>
</g>
<!-- Node1&#45;&gt;Node18 -->
<g id="edge18_Node000001_Node000018" class="edge">
<title>Node1&#45;&gt;Node18</title>
<g id="a_edge18_Node000001_Node000018"><a xlink:title=" ">
<path fill="none" stroke="#63b8ff" d="M118.79,-457.25C126.81,-457.25 135.16,-457.25 143.5,-457.25"/>
<polygon fill="#63b8ff" stroke="#63b8ff" points="143.42,-460.75 153.42,-457.25 143.42,-453.75 143.42,-460.75"/>
</a>
</g>
</g>
<!-- Node3 -->
<g id="Node000003" class="node">
<title>Node3</title>
<g id="a_Node000003"><a xlink:href="../../de/db8/namespace_slic3r.html#aedd8af740f7b57d03418c6e6cd99352b" target="_top" xlink:title=" ">
<polygon fill="white" stroke="#666666" points="458.25,-183.88 371.75,-183.88 371.75,-164.62 458.25,-164.62 458.25,-183.88"/>
<text text-anchor="middle" x="415" y="-170.38" font-family="Helvetica,sans-Serif" font-size="10.00">Slic3r::deep_diff</text>
</a>
</g>
</g>
<!-- Node2&#45;&gt;Node3 -->
<g id="edge2_Node000002_Node000003" class="edge">
<title>Node2&#45;&gt;Node3</title>
<g id="a_edge2_Node000002_Node000003"><a xlink:title=" ">
<path fill="none" stroke="#63b8ff" d="M285.48,-189.35C309.56,-186.52 337.22,-183.27 360.7,-180.51"/>
<polygon fill="#63b8ff" stroke="#63b8ff" points="360.99,-183.88 370.51,-179.24 360.17,-176.93 360.99,-183.88"/>
</a>
</g>
</g>
<!-- Node11 -->
<g id="Node000011" class="node">
<title>Node11</title>
<g id="a_Node000011"><a xlink:href="../../d5/df0/class_slic3r_1_1_dynamic_config.html#a4e5634b322de584f63f8cf9c8a1c1853" target="_top" xlink:title=" ">
<polygon fill="white" stroke="#666666" points="472.12,-91.5 357.88,-91.5 357.88,-61 472.12,-61 472.12,-91.5"/>
<text text-anchor="start" x="365.88" y="-78" font-family="Helvetica,sans-Serif" font-size="10.00">Slic3r::DynamicConfig</text>
<text text-anchor="middle" x="415" y="-66.75" font-family="Helvetica,sans-Serif" font-size="10.00">::diff</text>
</a>
</g>
</g>
<!-- Node2&#45;&gt;Node11 -->
<g id="edge10_Node000002_Node000011" class="edge">
<title>Node2&#45;&gt;Node11</title>
<g id="a_edge10_Node000002_Node000011"><a xlink:title=" ">
<path fill="none" stroke="#63b8ff" d="M251.23,-180.56C284.31,-159.36 343.42,-121.48 380.57,-97.67"/>
<polygon fill="#63b8ff" stroke="#63b8ff" points="381.98,-100.28 388.51,-91.94 378.21,-94.39 381.98,-100.28"/>
</a>
</g>
</g>
<!-- Node15 -->
<g id="Node000015" class="node">
<title>Node15</title>
<g id="a_Node000015"><a xlink:href="../../d3/d98/class_slic3r_1_1_config_option_resolver.html#af3beeeec67d0ff2ac81b0af0e0e6f92d" target="_top" xlink:title=" ">
<polygon fill="white" stroke="#666666" points="497.25,-226.88 332.75,-226.88 332.75,-207.62 497.25,-207.62 497.25,-226.88"/>
<text text-anchor="middle" x="415" y="-213.38" font-family="Helvetica,sans-Serif" font-size="10.00">Slic3r::ConfigOptionResolver::has</text>
</a>
</g>
</g>
<!-- Node2&#45;&gt;Node15 -->
<g id="edge15_Node000002_Node000015" class="edge">
<title>Node2&#45;&gt;Node15</title>
<g id="a_edge15_Node000002_Node000015"><a xlink:title=" ">
<path fill="none" stroke="#63b8ff" d="M285.48,-202.84C297.01,-204.13 309.37,-205.52 321.69,-206.9"/>
<polygon fill="#63b8ff" stroke="#63b8ff" points="321.17,-210.47 331.49,-208.11 321.95,-203.52 321.17,-210.47"/>
</a>
</g>
</g>
<!-- Node4 -->
<g id="Node000004" class="node">
<title>Node4</title>
<g id="a_Node000004"><a xlink:href="../../de/db8/namespace_slic3r.html#aed0434d42d75979bb4d469ff41de7158" target="_top" xlink:title=" ">
<polygon fill="white" stroke="#666666" points="634.75,-140.88 574.5,-140.88 574.5,-121.62 634.75,-121.62 634.75,-140.88"/>
<text text-anchor="middle" x="604.62" y="-127.38" font-family="Helvetica,sans-Serif" font-size="10.00">Slic3r::diff</text>
</a>
</g>
</g>
<!-- Node3&#45;&gt;Node4 -->
<g id="edge3_Node000003_Node000004" class="edge">
<title>Node3&#45;&gt;Node4</title>
<g id="a_edge3_Node000003_Node000004"><a xlink:title=" ">
<path fill="none" stroke="#63b8ff" d="M458.58,-164.49C490.1,-157.27 532.77,-147.49 563.66,-140.41"/>
<polygon fill="#63b8ff" stroke="#63b8ff" points="564.09,-143.67 573.06,-138.03 562.53,-136.85 564.09,-143.67"/>
</a>
</g>
</g>
<!-- Node7 -->
<g id="Node000007" class="node">
<title>Node7</title>
<g id="a_Node000007"><a xlink:href="../../d9/d06/class_slic3r_1_1_config_base.html#aa4b79ae20e460d24b8a77114931225a0" target="_top" xlink:title=" ">
<polygon fill="white" stroke="#666666" points="653.5,-103.5 555.75,-103.5 555.75,-73 653.5,-73 653.5,-103.5"/>
<text text-anchor="start" x="563.75" y="-90" font-family="Helvetica,sans-Serif" font-size="10.00">Slic3r::ConfigBase</text>
<text text-anchor="middle" x="604.62" y="-78.75" font-family="Helvetica,sans-Serif" font-size="10.00">::keys</text>
</a>
</g>
</g>
<!-- Node3&#45;&gt;Node7 -->
<g id="edge6_Node000003_Node000007" class="edge">
<title>Node3&#45;&gt;Node7</title>
<g id="a_edge6_Node000003_Node000007"><a xlink:title=" ">
<path fill="none" stroke="#63b8ff" d="M433.06,-164.13C455.52,-151.07 496.47,-128.13 533.25,-112.25 537.14,-110.57 541.19,-108.93 545.29,-107.34"/>
<polygon fill="#63b8ff" stroke="#63b8ff" points="546.4,-110.29 554.54,-103.51 543.95,-103.73 546.4,-110.29"/>
</a>
</g>
</g>
<!-- Node8 -->
<g id="Node000008" class="node">
<title>Node8</title>
<g id="a_Node000008"><a xlink:href="../../d9/d06/class_slic3r_1_1_config_base.html#a423121494459dae7858bc9d665f8cb4f" target="_top" xlink:title=" ">
<polygon fill="white" stroke="#666666" points="653.5,-287.5 555.75,-287.5 555.75,-257 653.5,-257 653.5,-287.5"/>
<text text-anchor="start" x="563.75" y="-274" font-family="Helvetica,sans-Serif" font-size="10.00">Slic3r::ConfigBase</text>
<text text-anchor="middle" x="604.62" y="-262.75" font-family="Helvetica,sans-Serif" font-size="10.00">::option</text>
</a>
</g>
</g>
<!-- Node3&#45;&gt;Node8 -->
<g id="edge7_Node000003_Node000008" class="edge">
<title>Node3&#45;&gt;Node8</title>
<g id="a_edge7_Node000003_Node000008"><a xlink:title=" ">
<path fill="none" stroke="#63b8ff" d="M458.42,-181.26C471.68,-184.85 485.81,-190.22 497.25,-198.25 519.37,-213.78 511.56,-231.13 533.25,-247.25 537.1,-250.11 541.31,-252.67 545.69,-254.95"/>
<polygon fill="#63b8ff" stroke="#63b8ff" points="543.94,-258.46 554.48,-259.51 546.9,-252.12 543.94,-258.46"/>
</a>
</g>
</g>
<!-- Node10 -->
<g id="Node000010" class="node">
<title>Node10</title>
<g id="a_Node000010"><a xlink:href="../../de/d87/class_slic3r_1_1_config_option.html#a8a5965c6789289224db04d29868331e1" target="_top" xlink:title=" ">
<polygon fill="white" stroke="#666666" points="656.5,-189.5 552.75,-189.5 552.75,-159 656.5,-159 656.5,-189.5"/>
<text text-anchor="start" x="560.75" y="-176" font-family="Helvetica,sans-Serif" font-size="10.00">Slic3r::ConfigOption</text>
<text text-anchor="middle" x="604.62" y="-164.75" font-family="Helvetica,sans-Serif" font-size="10.00">::type</text>
</a>
</g>
</g>
<!-- Node3&#45;&gt;Node10 -->
<g id="edge9_Node000003_Node000010" class="edge">
<title>Node3&#45;&gt;Node10</title>
<g id="a_edge9_Node000003_Node000010"><a xlink:title=" ">
<path fill="none" stroke="#63b8ff" d="M458.58,-174.25C483.09,-174.25 514.34,-174.25 541.56,-174.25"/>
<polygon fill="#63b8ff" stroke="#63b8ff" points="541.55,-177.75 551.55,-174.25 541.55,-170.75 541.55,-177.75"/>
</a>
</g>
</g>
<!-- Node5 -->
<g id="Node000005" class="node">
<title>Node5</title>
<g id="a_Node000005"><a xlink:href="../../de/db8/namespace_slic3r.html#a440bb1d57671f454ad4fab4f192430cf" target="_top" xlink:title=" ">
<polygon fill="white" stroke="#666666" points="822.12,-140.88 741.62,-140.88 741.62,-121.62 822.12,-121.62 822.12,-140.88"/>
<text text-anchor="middle" x="781.88" y="-127.38" font-family="Helvetica,sans-Serif" font-size="10.00">Slic3r::_clipper</text>
</a>
</g>
</g>
<!-- Node4&#45;&gt;Node5 -->
<g id="edge4_Node000004_Node000005" class="edge">
<title>Node4&#45;&gt;Node5</title>
<g id="a_edge4_Node000004_Node000005"><a xlink:title=" ">
<path fill="none" stroke="#63b8ff" d="M634.96,-131.25C661.02,-131.25 699.67,-131.25 730.65,-131.25"/>
<polygon fill="#63b8ff" stroke="#63b8ff" points="730.25,-134.75 740.25,-131.25 730.25,-127.75 730.25,-134.75"/>
</a>
</g>
</g>
<!-- Node6 -->
<g id="Node000006" class="node">
<title>Node6</title>
<g id="a_Node000006"><a xlink:href="../../de/db8/namespace_slic3r.html#a843ba2fe16b213f550fb3d55c55a716e" target="_top" xlink:title=" ">
<polygon fill="white" stroke="#666666" points="996.75,-140.88 897.5,-140.88 897.5,-121.62 996.75,-121.62 996.75,-140.88"/>
<text text-anchor="middle" x="947.12" y="-127.38" font-family="Helvetica,sans-Serif" font-size="10.00">Slic3r::to_polygons</text>
</a>
</g>
</g>
<!-- Node5&#45;&gt;Node6 -->
<g id="edge5_Node000005_Node000006" class="edge">
<title>Node5&#45;&gt;Node6</title>
<g id="a_edge5_Node000005_Node000006"><a xlink:title=" ">
<path fill="none" stroke="#63b8ff" d="M822.39,-131.25C841.52,-131.25 864.89,-131.25 886.15,-131.25"/>
<polygon fill="#63b8ff" stroke="#63b8ff" points="886.04,-134.75 896.04,-131.25 886.04,-127.75 886.04,-134.75"/>
</a>
</g>
</g>
<!-- Node9 -->
<g id="Node000009" class="node">
<title>Node9</title>
<g id="a_Node000009"><a xlink:href="../../d9/d06/class_slic3r_1_1_config_base.html#a699680b37bd3c116736fd1a2ec831728" target="_top" xlink:title=" ">
<polygon fill="white" stroke="#666666" points="830.75,-287.5 733,-287.5 733,-257 830.75,-257 830.75,-287.5"/>
<text text-anchor="start" x="741" y="-274" font-family="Helvetica,sans-Serif" font-size="10.00">Slic3r::ConfigBase</text>
<text text-anchor="middle" x="781.88" y="-262.75" font-family="Helvetica,sans-Serif" font-size="10.00">::optptr</text>
</a>
</g>
</g>
<!-- Node8&#45;&gt;Node9 -->
<g id="edge8_Node000008_Node000009" class="edge">
<title>Node8&#45;&gt;Node9</title>
<g id="a_edge8_Node000008_Node000009"><a xlink:title=" ">
<path fill="none" stroke="#63b8ff" d="M653.98,-272.25C674.95,-272.25 699.71,-272.25 721.77,-272.25"/>
<polygon fill="#63b8ff" stroke="#63b8ff" points="721.68,-275.75 731.68,-272.25 721.68,-268.75 721.68,-275.75"/>
</a>
</g>
</g>
<!-- Node11&#45;&gt;Node11 -->
<g id="edge11_Node000011_Node000011" class="edge">
<title>Node11&#45;&gt;Node11</title>
<g id="a_edge11_Node000011_Node000011"><a xlink:title=" ">
<path fill="none" stroke="#63b8ff" d="M381.46,-91.99C374.62,-101.06 385.8,-109.5 415,-109.5 431.43,-109.5 442.15,-106.83 447.17,-102.88"/>
<polygon fill="#63b8ff" stroke="#63b8ff" points="450.76,-103.34 448.54,-92.99 443.82,-102.47 450.76,-103.34"/>
</a>
</g>
</g>
<!-- Node12 -->
<g id="Node000012" class="node">
<title>Node12</title>
<g id="a_Node000012"><a xlink:href="../../de/db8/namespace_slic3r.html#a25550fe74a5654f39ed603ac7360e547" target="_top" xlink:title=" ">
<polygon fill="white" stroke="#666666" points="662.12,-54.5 547.12,-54.5 547.12,-24 662.12,-24 662.12,-54.5"/>
<text text-anchor="start" x="555.12" y="-41" font-family="Helvetica,sans-Serif" font-size="10.00">Slic3r::dynamic_config</text>
<text text-anchor="middle" x="604.62" y="-29.75" font-family="Helvetica,sans-Serif" font-size="10.00">_iterate</text>
</a>
</g>
</g>
<!-- Node11&#45;&gt;Node12 -->
<g id="edge12_Node000011_Node000012" class="edge">
<title>Node11&#45;&gt;Node12</title>
<g id="a_edge12_Node000011_Node000012"><a xlink:title=" ">
<path fill="none" stroke="#63b8ff" d="M472.55,-65.1C492.58,-61.15 515.32,-56.66 536.16,-52.55"/>
<polygon fill="#63b8ff" stroke="#63b8ff" points="536.74,-55.81 545.87,-50.44 535.38,-48.94 536.74,-55.81"/>
</a>
</g>
</g>
<!-- Node13 -->
<g id="Node000013" class="node">
<title>Node13</title>
<g id="a_Node000013"><a xlink:href="../../d5/df0/class_slic3r_1_1_dynamic_config.html#a42a0781feba8bc966589bcbc81fb368e" target="_top" xlink:title=" ">
<polygon fill="white" stroke="#666666" points="839,-30.5 724.75,-30.5 724.75,0 839,0 839,-30.5"/>
<text text-anchor="start" x="732.75" y="-17" font-family="Helvetica,sans-Serif" font-size="10.00">Slic3r::DynamicConfig</text>
<text text-anchor="middle" x="781.88" y="-5.75" font-family="Helvetica,sans-Serif" font-size="10.00">::cbegin</text>
</a>
</g>
</g>
<!-- Node12&#45;&gt;Node13 -->
<g id="edge13_Node000012_Node000013" class="edge">
<title>Node12&#45;&gt;Node13</title>
<g id="a_edge13_Node000012_Node000013"><a xlink:title=" ">
<path fill="none" stroke="#63b8ff" d="M662.52,-31.46C678.76,-29.23 696.6,-26.79 713.4,-24.49"/>
<polygon fill="#63b8ff" stroke="#63b8ff" points="713.83,-27.83 723.26,-23 712.88,-20.89 713.83,-27.83"/>
</a>
</g>
</g>
<!-- Node14 -->
<g id="Node000014" class="node">
<title>Node14</title>
<g id="a_Node000014"><a xlink:href="../../d5/df0/class_slic3r_1_1_dynamic_config.html#a90d9792753662d6f22e3aaffe950257b" target="_top" xlink:title=" ">
<polygon fill="white" stroke="#666666" points="839,-79.5 724.75,-79.5 724.75,-49 839,-49 839,-79.5"/>
<text text-anchor="start" x="732.75" y="-66" font-family="Helvetica,sans-Serif" font-size="10.00">Slic3r::DynamicConfig</text>
<text text-anchor="middle" x="781.88" y="-54.75" font-family="Helvetica,sans-Serif" font-size="10.00">::cend</text>
</a>
</g>
</g>
<!-- Node12&#45;&gt;Node14 -->
<g id="edge14_Node000012_Node000014" class="edge">
<title>Node12&#45;&gt;Node14</title>
<g id="a_edge14_Node000012_Node000014"><a xlink:title=" ">
<path fill="none" stroke="#63b8ff" d="M662.52,-47.37C678.76,-49.68 696.6,-52.23 713.4,-54.62"/>
<polygon fill="#63b8ff" stroke="#63b8ff" points="712.87,-58.23 723.26,-56.17 713.86,-51.3 712.87,-58.23"/>
</a>
</g>
</g>
<!-- Node16 -->
<g id="Node000016" class="node">
<title>Node16</title>
<g id="a_Node000016"><a xlink:href="../../d3/d98/class_slic3r_1_1_config_option_resolver.html#a3c37c9a5c55c26149c192468d3922ec1" target="_top" xlink:title=" ">
<polygon fill="white" stroke="#666666" points="676,-238.5 533.25,-238.5 533.25,-208 676,-208 676,-238.5"/>
<text text-anchor="start" x="541.25" y="-225" font-family="Helvetica,sans-Serif" font-size="10.00">Slic3r::ConfigOptionResolver</text>
<text text-anchor="middle" x="604.62" y="-213.75" font-family="Helvetica,sans-Serif" font-size="10.00">::optptr</text>
</a>
</g>
</g>
<!-- Node15&#45;&gt;Node16 -->
<g id="edge16_Node000015_Node000016" class="edge">
<title>Node15&#45;&gt;Node16</title>
<g id="a_edge16_Node000015_Node000016"><a xlink:title=" ">
<path fill="none" stroke="#63b8ff" d="M497.75,-219.86C505.83,-220.12 514.03,-220.38 522.11,-220.64"/>
<polygon fill="#63b8ff" stroke="#63b8ff" points="521.91,-224.17 532.02,-220.99 522.14,-217.17 521.91,-224.17"/>
</a>
</g>
</g>
<!-- Node18&#45;&gt;Node17 -->
<g id="edge38_Node000018_Node000017" class="edge">
<title>Node18&#45;&gt;Node17</title>
<g id="a_edge38_Node000018_Node000017"><a xlink:title=" ">
<path fill="none" stroke="#63b8ff" d="M236.82,-472.97C250.94,-495.3 277.11,-537.67 296.75,-575.25 314.62,-609.45 303.76,-628.78 332.75,-654.25 336.63,-657.66 340.98,-660.61 345.58,-663.15"/>
<polygon fill="#63b8ff" stroke="#63b8ff" points="343.8,-666.66 354.33,-667.83 346.83,-660.35 343.8,-666.66"/>
</a>
</g>
</g>
<!-- Node19 -->
<g id="Node000019" class="node">
<title>Node19</title>
<g id="a_Node000019"><a xlink:href="../../d9/d24/class_slic3r_1_1_preset_collection.html#ab6fec3a646cff1838051447b890f9bbf" target="_top" xlink:title=" ">
<polygon fill="white" stroke="#666666" points="474.38,-325.5 355.62,-325.5 355.62,-295 474.38,-295 474.38,-325.5"/>
<text text-anchor="start" x="363.62" y="-312" font-family="Helvetica,sans-Serif" font-size="10.00">Slic3r::PresetCollection</text>
<text text-anchor="middle" x="415" y="-300.75" font-family="Helvetica,sans-Serif" font-size="10.00">::default_preset</text>
</a>
</g>
</g>
<!-- Node18&#45;&gt;Node19 -->
<g id="edge19_Node000018_Node000019" class="edge">
<title>Node18&#45;&gt;Node19</title>
<g id="a_edge19_Node000018_Node000019"><a xlink:title=" ">
<path fill="none" stroke="#63b8ff" d="M236.12,-441.68C252.48,-415.78 288.77,-363.87 332.75,-335.25 336.75,-332.64 341.05,-330.3 345.49,-328.19"/>
<polygon fill="#63b8ff" stroke="#63b8ff" points="346.59,-331.09 354.4,-323.93 343.83,-324.66 346.59,-331.09"/>
</a>
</g>
</g>
<!-- Node20 -->
<g id="Node000020" class="node">
<title>Node20</title>
<g id="a_Node000020"><a xlink:href="../../d9/d24/class_slic3r_1_1_preset_collection.html#a9eabb359ae5729d35f3a6a0b4593eb17" target="_top" xlink:title=" ">
<polygon fill="white" stroke="#666666" points="474.38,-645.5 355.62,-645.5 355.62,-615 474.38,-615 474.38,-645.5"/>
<text text-anchor="start" x="363.62" y="-632" font-family="Helvetica,sans-Serif" font-size="10.00">Slic3r::PresetCollection</text>
<text text-anchor="middle" x="415" y="-620.75" font-family="Helvetica,sans-Serif" font-size="10.00">::find_preset</text>
</a>
</g>
</g>
<!-- Node18&#45;&gt;Node20 -->
<g id="edge20_Node000018_Node000020" class="edge">
<title>Node18&#45;&gt;Node20</title>
<g id="a_edge20_Node000018_Node000020"><a xlink:title=" ">
<path fill="none" stroke="#63b8ff" d="M234.12,-472.62C248.84,-501.8 284.68,-565.49 332.75,-601.25 337.07,-604.46 341.78,-607.35 346.68,-609.93"/>
<polygon fill="#63b8ff" stroke="#63b8ff" points="344.77,-613.37 355.3,-614.53 347.79,-607.06 344.77,-613.37"/>
</a>
</g>
</g>
<!-- Node32 -->
<g id="Node000032" class="node">
<title>Node32</title>
<g id="a_Node000032"><a xlink:href="../../d9/d24/class_slic3r_1_1_preset_collection.html#a7dda563ca600dd25ae20bebcee3f486e" target="_top" xlink:title=" ">
<polygon fill="white" stroke="#666666" points="841.25,-616.5 722.5,-616.5 722.5,-586 841.25,-586 841.25,-616.5"/>
<text text-anchor="start" x="730.5" y="-603" font-family="Helvetica,sans-Serif" font-size="10.00">Slic3r::PresetCollection</text>
<text text-anchor="middle" x="781.88" y="-591.75" font-family="Helvetica,sans-Serif" font-size="10.00">::preset</text>
</a>
</g>
</g>
<!-- Node18&#45;&gt;Node32 -->
<g id="edge49_Node000018_Node000032" class="edge">
<title>Node18&#45;&gt;Node32</title>
<g id="a_edge49_Node000018_Node000032"><a xlink:title=" ">
<path fill="none" stroke="#63b8ff" d="M244.58,-472.83C264.65,-489.54 298.9,-515.65 332.75,-530.25 458.6,-584.53 620.38,-597.82 711.12,-600.77"/>
<polygon fill="#63b8ff" stroke="#63b8ff" points="711,-604.3 721.1,-601.09 711.2,-597.3 711,-604.3"/>
</a>
</g>
</g>
<!-- Node34 -->
<g id="Node000034" class="node">
<title>Node34</title>
<g id="a_Node000034"><a xlink:href="../../d9/d24/class_slic3r_1_1_preset_collection.html#a07ae7ca920b87f2b777eed647d6e1042" target="_top" xlink:title=" ">
<polygon fill="white" stroke="#666666" points="474.38,-423.5 355.62,-423.5 355.62,-393 474.38,-393 474.38,-423.5"/>
<text text-anchor="start" x="363.62" y="-410" font-family="Helvetica,sans-Serif" font-size="10.00">Slic3r::PresetCollection</text>
<text text-anchor="middle" x="415" y="-398.75" font-family="Helvetica,sans-Serif" font-size="10.00">::find_preset_renamed</text>
</a>
</g>
</g>
<!-- Node18&#45;&gt;Node34 -->
<g id="edge35_Node000018_Node000034" class="edge">
<title>Node18&#45;&gt;Node34</title>
<g id="a_edge35_Node000018_Node000034"><a xlink:title=" ">
<path fill="none" stroke="#63b8ff" d="M286.77,-441.54C305.27,-436.7 325.79,-431.33 344.86,-426.34"/>
<polygon fill="#63b8ff" stroke="#63b8ff" points="345.49,-429.53 354.28,-423.62 343.72,-422.76 345.49,-429.53"/>
</a>
</g>
</g>
<!-- Node35 -->
<g id="Node000035" class="node">
<title>Node35</title>
<g id="a_Node000035"><a xlink:href="../../d9/d24/class_slic3r_1_1_preset_collection.html#aa2605aaf86ec9f3583fcf235ea0197b9" target="_top" xlink:title=" ">
<polygon fill="white" stroke="#666666" points="474.38,-472.5 355.62,-472.5 355.62,-442 474.38,-442 474.38,-472.5"/>
<text text-anchor="start" x="363.62" y="-459" font-family="Helvetica,sans-Serif" font-size="10.00">Slic3r::PresetCollection</text>
<text text-anchor="middle" x="415" y="-447.75" font-family="Helvetica,sans-Serif" font-size="10.00">::get_selected_idx</text>
</a>
</g>
</g>
<!-- Node18&#45;&gt;Node35 -->
<g id="edge39_Node000018_Node000035" class="edge">
<title>Node18&#45;&gt;Node35</title>
<g id="a_edge39_Node000018_Node000035"><a xlink:title=" ">
<path fill="none" stroke="#63b8ff" d="M297.01,-457.25C312.61,-457.25 329.13,-457.25 344.69,-457.25"/>
<polygon fill="#63b8ff" stroke="#63b8ff" points="344.29,-460.75 354.29,-457.25 344.29,-453.75 344.29,-460.75"/>
</a>
</g>
</g>
<!-- Node36 -->
<g id="Node000036" class="node">
<title>Node36</title>
<g id="a_Node000036"><a xlink:href="../../d9/d24/class_slic3r_1_1_preset_collection.html#a166460da323e82c3e95ab194254d86e0" target="_top" xlink:title=" ">
<polygon fill="white" stroke="#666666" points="474.38,-521.5 355.62,-521.5 355.62,-491 474.38,-491 474.38,-521.5"/>
<text text-anchor="start" x="363.62" y="-508" font-family="Helvetica,sans-Serif" font-size="10.00">Slic3r::PresetCollection</text>
<text text-anchor="middle" x="415" y="-496.75" font-family="Helvetica,sans-Serif" font-size="10.00">::get_selected_preset</text>
</a>
</g>
</g>
<!-- Node18&#45;&gt;Node36 -->
<g id="edge40_Node000018_Node000036" class="edge">
<title>Node18&#45;&gt;Node36</title>
<g id="a_edge40_Node000018_Node000036"><a xlink:title=" ">
<path fill="none" stroke="#63b8ff" d="M286.77,-472.96C305.27,-477.8 325.79,-483.17 344.86,-488.16"/>
<polygon fill="#63b8ff" stroke="#63b8ff" points="343.72,-491.74 354.28,-490.88 345.49,-484.97 343.72,-491.74"/>
</a>
</g>
</g>
<!-- Node40 -->
<g id="Node000040" class="node">
<title>Node40</title>
<g id="a_Node000040"><a xlink:href="../../d9/db2/class_slic3r_1_1_preset.html#a185f4f901e81c098660dbcdccc41c1aa" target="_top" xlink:title=" ">
<polygon fill="white" stroke="#666666" points="471.38,-276.88 358.62,-276.88 358.62,-257.62 471.38,-257.62 471.38,-276.88"/>
<text text-anchor="middle" x="415" y="-263.38" font-family="Helvetica,sans-Serif" font-size="10.00">Slic3r::Preset::inherits</text>
</a>
</g>
</g>
<!-- Node18&#45;&gt;Node40 -->
<g id="edge47_Node000018_Node000040" class="edge">
<title>Node18&#45;&gt;Node40</title>
<g id="a_edge47_Node000018_Node000040"><a xlink:title=" ">
<path fill="none" stroke="#63b8ff" d="M231.78,-441.62C243.56,-407.63 276.29,-326.79 332.75,-286.25 337.46,-282.87 342.68,-280.08 348.13,-277.78"/>
<polygon fill="#63b8ff" stroke="#63b8ff" points="348.94,-280.85 357.15,-274.16 346.56,-274.27 348.94,-280.85"/>
</a>
</g>
</g>
<!-- Node41 -->
<g id="Node000041" class="node">
<title>Node41</title>
<g id="a_Node000041"><a xlink:href="../../d9/db2/class_slic3r_1_1_preset.html#a959b555f2e1c1b7042080c862ce14a4c" target="_top" xlink:title=" ">
<polygon fill="white" stroke="#666666" points="469.12,-374.5 360.88,-374.5 360.88,-344 469.12,-344 469.12,-374.5"/>
<text text-anchor="start" x="368.88" y="-361" font-family="Helvetica,sans-Serif" font-size="10.00">Slic3r::Preset::printer</text>
<text text-anchor="middle" x="415" y="-349.75" font-family="Helvetica,sans-Serif" font-size="10.00">_technology</text>
</a>
</g>
</g>
<!-- Node18&#45;&gt;Node41 -->
<g id="edge50_Node000018_Node000041" class="edge">
<title>Node18&#45;&gt;Node41</title>
<g id="a_edge50_Node000018_Node000041"><a xlink:title=" ">
<path fill="none" stroke="#63b8ff" d="M245.57,-441.63C265.96,-425.37 299.97,-400.12 332.75,-384.25 338.37,-381.53 344.34,-379.03 350.41,-376.74"/>
<polygon fill="#63b8ff" stroke="#63b8ff" points="351.4,-379.75 359.66,-373.11 349.06,-373.16 351.4,-379.75"/>
</a>
</g>
</g>
<!-- Node21 -->
<g id="Node000021" class="node">
<title>Node21</title>
<g id="a_Node000021"><a xlink:href="../../d9/d24/class_slic3r_1_1_preset_collection.html#a0a6b51c2a41deef519f44776dcf07c7c" target="_top" xlink:title=" ">
<polygon fill="white" stroke="#666666" points="664,-421.5 545.25,-421.5 545.25,-391 664,-391 664,-421.5"/>
<text text-anchor="start" x="553.25" y="-408" font-family="Helvetica,sans-Serif" font-size="10.00">Slic3r::PresetCollection</text>
<text text-anchor="middle" x="604.62" y="-396.75" font-family="Helvetica,sans-Serif" font-size="10.00">::find_preset_internal</text>
</a>
</g>
</g>
<!-- Node20&#45;&gt;Node21 -->
<g id="edge21_Node000020_Node000021" class="edge">
<title>Node20&#45;&gt;Node21</title>
<g id="a_edge21_Node000020_Node000021"><a xlink:title=" ">
<path fill="none" stroke="#63b8ff" d="M431.16,-614.76C448.86,-596.01 478.15,-562.88 497.25,-530.25 519.22,-492.71 503.46,-470.94 533.25,-439.25 537.51,-434.71 542.52,-430.74 547.88,-427.28"/>
<polygon fill="#63b8ff" stroke="#63b8ff" points="549.23,-429.96 556.13,-421.92 545.73,-423.9 549.23,-429.96"/>
</a>
</g>
</g>
<!-- Node28 -->
<g id="Node000028" class="node">
<title>Node28</title>
<g id="a_Node000028"><a xlink:href="../../d9/d24/class_slic3r_1_1_preset_collection.html#addbb2e5162994c9abe0c070a82488913" target="_top" xlink:title=" ">
<polygon fill="white" stroke="#666666" points="1006.5,-491.5 887.75,-491.5 887.75,-461 1006.5,-461 1006.5,-491.5"/>
<text text-anchor="start" x="895.75" y="-478" font-family="Helvetica,sans-Serif" font-size="10.00">Slic3r::PresetCollection</text>
<text text-anchor="middle" x="947.12" y="-466.75" font-family="Helvetica,sans-Serif" font-size="10.00">::name</text>
</a>
</g>
</g>
<!-- Node20&#45;&gt;Node28 -->
<g id="edge32_Node000020_Node000028" class="edge">
<title>Node20&#45;&gt;Node28</title>
<g id="a_edge32_Node000020_Node000028"><a xlink:title=" ">
<path fill="none" stroke="#63b8ff" d="M473.05,-645.97C560.81,-666.73 731.39,-693.28 851.75,-625.25 899.14,-598.47 926.22,-537.04 938.35,-501.99"/>
<polygon fill="#63b8ff" stroke="#63b8ff" points="941.96,-503.21 941.77,-492.61 935.31,-501.02 941.96,-503.21"/>
</a>
</g>
</g>
<!-- Node30 -->
<g id="Node000030" class="node">
<title>Node30</title>
<g id="a_Node000030"><a xlink:href="../../d9/d24/class_slic3r_1_1_preset_collection.html#a0900140ae33435f780ab9311ec07b76e" target="_top" xlink:title=" ">
<polygon fill="white" stroke="#666666" points="664,-564.5 545.25,-564.5 545.25,-534 664,-534 664,-564.5"/>
<text text-anchor="start" x="553.25" y="-551" font-family="Helvetica,sans-Serif" font-size="10.00">Slic3r::PresetCollection</text>
<text text-anchor="middle" x="604.62" y="-539.75" font-family="Helvetica,sans-Serif" font-size="10.00">::first_visible</text>
</a>
</g>
</g>
<!-- Node20&#45;&gt;Node30 -->
<g id="edge26_Node000020_Node000030" class="edge">
<title>Node20&#45;&gt;Node30</title>
<g id="a_edge26_Node000020_Node000030"><a xlink:title=" ">
<path fill="none" stroke="#63b8ff" d="M452.18,-614.63C482.19,-601.68 525.05,-583.17 557.52,-569.15"/>
<polygon fill="#63b8ff" stroke="#63b8ff" points="558.45,-572.13 566.24,-564.96 555.67,-565.71 558.45,-572.13"/>
</a>
</g>
</g>
<!-- Node20&#45;&gt;Node32 -->
<g id="edge33_Node000020_Node000032" class="edge">
<title>Node20&#45;&gt;Node32</title>
<g id="a_edge33_Node000020_Node000032"><a xlink:title=" ">
<path fill="none" stroke="#63b8ff" d="M474.62,-625.59C539.16,-620.46 642.83,-612.22 711.4,-606.77"/>
<polygon fill="#63b8ff" stroke="#63b8ff" points="711.4,-610.2 721.09,-605.92 710.85,-603.23 711.4,-610.2"/>
</a>
</g>
</g>
<!-- Node33 -->
<g id="Node000033" class="node">
<title>Node33</title>
<g id="a_Node000033"><a xlink:href="../../d5/df7/_common_cwise_unary_ops_8h.html#a560b678a662ccfce4da582595899a0b7" target="_top" xlink:title=" ">
<polygon fill="white" stroke="#666666" points="963,-661.88 931.25,-661.88 931.25,-642.62 963,-642.62 963,-661.88"/>
<text text-anchor="middle" x="947.12" y="-648.38" font-family="Helvetica,sans-Serif" font-size="10.00">real</text>
</a>
</g>
</g>
<!-- Node20&#45;&gt;Node33 -->
<g id="edge34_Node000020_Node000033" class="edge">
<title>Node20&#45;&gt;Node33</title>
<g id="a_edge34_Node000020_Node000033"><a xlink:title=" ">
<path fill="none" stroke="#63b8ff" d="M474.66,-645.63C482.43,-648.43 490.15,-651.63 497.25,-655.25 515.07,-664.33 514.28,-675.93 533.25,-682.25 667.54,-727.01 711.87,-703.95 851.75,-682.25 875.75,-678.53 902,-669.78 920.71,-662.68"/>
<polygon fill="#63b8ff" stroke="#63b8ff" points="921.74,-665.65 929.78,-658.75 919.19,-659.13 921.74,-665.65"/>
</a>
</g>
</g>
<!-- Node22 -->
<g id="Node000022" class="node">
<title>Node22</title>
<g id="a_Node000022"><a xlink:href="../../de/db8/namespace_slic3r.html#a62e989db5546d1af6cf869f5d09d6e0f" target="_top" xlink:title=" ">
<polygon fill="white" stroke="#666666" points="832.62,-373.5 731.12,-373.5 731.12,-343 832.62,-343 832.62,-373.5"/>
<text text-anchor="start" x="739.12" y="-360" font-family="Helvetica,sans-Serif" font-size="10.00">Slic3r::lower_bound</text>
<text text-anchor="middle" x="781.88" y="-348.75" font-family="Helvetica,sans-Serif" font-size="10.00">_by_predicate</text>
</a>
</g>
</g>
<!-- Node21&#45;&gt;Node22 -->
<g id="edge22_Node000021_Node000022" class="edge">
<title>Node21&#45;&gt;Node22</title>
<g id="a_edge22_Node000021_Node000022"><a xlink:title=" ">
<path fill="none" stroke="#63b8ff" d="M663.01,-390.53C681.37,-385.5 701.75,-379.92 720.33,-374.83"/>
<polygon fill="#63b8ff" stroke="#63b8ff" points="721.01,-378 729.73,-371.98 719.16,-371.25 721.01,-378"/>
</a>
</g>
</g>
<!-- Node21&#45;&gt;Node28 -->
<g id="edge24_Node000021_Node000028" class="edge">
<title>Node21&#45;&gt;Node28</title>
<g id="a_edge24_Node000021_Node000028"><a xlink:title=" ">
<path fill="none" stroke="#63b8ff" d="M664.43,-401.87C715.17,-399.9 789.83,-401.36 851.75,-420.25 875.65,-427.54 899.83,-442.06 917.73,-454.48"/>
<polygon fill="#63b8ff" stroke="#63b8ff" points="915.31,-457.77 925.48,-460.74 919.38,-452.08 915.31,-457.77"/>
</a>
</g>
</g>
<!-- Node23 -->
<g id="Node000023" class="node">
<title>Node23</title>
<g id="a_Node000023"><a xlink:href="../../d8/dcc/namespacestd.html#af4bc231d061945eb59dbba98a117ece9" target="_top" xlink:title=" ">
<polygon fill="#fff0f0" stroke="red" points="983.25,-367.88 911,-367.88 911,-348.62 983.25,-348.62 983.25,-367.88"/>
<text text-anchor="middle" x="947.12" y="-354.38" font-family="Helvetica,sans-Serif" font-size="10.00">std::distance</text>
</a>
</g>
</g>
<!-- Node22&#45;&gt;Node23 -->
<g id="edge23_Node000022_Node000023" class="edge">
<title>Node22&#45;&gt;Node23</title>
<g id="a_edge23_Node000022_Node000023"><a xlink:title=" ">
<path fill="none" stroke="#63b8ff" d="M832.74,-358.25C854.04,-358.25 878.76,-358.25 899.67,-358.25"/>
<polygon fill="#63b8ff" stroke="#63b8ff" points="899.54,-361.75 909.54,-358.25 899.54,-354.75 899.54,-361.75"/>
</a>
</g>
</g>
<!-- Node29 -->
<g id="Node000029" class="node">
<title>Node29</title>
<g id="a_Node000029"><a xlink:href="../../d9/d24/class_slic3r_1_1_preset_collection.html#a1a27959ef609baeb3d853b1c718852d1" target="_top" xlink:title=" ">
<polygon fill="white" stroke="#666666" points="1161.25,-491.5 1042.5,-491.5 1042.5,-461 1161.25,-461 1161.25,-491.5"/>
<text text-anchor="start" x="1050.5" y="-478" font-family="Helvetica,sans-Serif" font-size="10.00">Slic3r::PresetCollection</text>
<text text-anchor="middle" x="1101.88" y="-466.75" font-family="Helvetica,sans-Serif" font-size="10.00">::type</text>
</a>
</g>
</g>
<!-- Node28&#45;&gt;Node29 -->
<g id="edge25_Node000028_Node000029" class="edge">
<title>Node28&#45;&gt;Node29</title>
<g id="a_edge25_Node000028_Node000029"><a xlink:title=" ">
<path fill="none" stroke="#63b8ff" d="M1006.75,-476.25C1014.82,-476.25 1023.17,-476.25 1031.42,-476.25"/>
<polygon fill="#63b8ff" stroke="#63b8ff" points="1031.16,-479.75 1041.16,-476.25 1031.16,-472.75 1031.16,-479.75"/>
</a>
</g>
</g>
<!-- Node31 -->
<g id="Node000031" class="node">
<title>Node31</title>
<g id="a_Node000031"><a xlink:href="../../d9/d24/class_slic3r_1_1_preset_collection.html#a8008e4b43ace6a3a996dff76dad44731" target="_top" xlink:title=" ">
<polygon fill="white" stroke="#666666" points="841.25,-567.5 722.5,-567.5 722.5,-537 841.25,-537 841.25,-567.5"/>
<text text-anchor="start" x="730.5" y="-554" font-family="Helvetica,sans-Serif" font-size="10.00">Slic3r::PresetCollection</text>
<text text-anchor="middle" x="781.88" y="-542.75" font-family="Helvetica,sans-Serif" font-size="10.00">::first_visible_idx</text>
</a>
</g>
</g>
<!-- Node30&#45;&gt;Node31 -->
<g id="edge27_Node000030_Node000031" class="edge">
<title>Node30&#45;&gt;Node31</title>
<g id="a_edge27_Node000030_Node000031"><a xlink:title=" ">
<path fill="none" stroke="#63b8ff" d="M664.47,-543.84C679.58,-543.74 695.97,-543.95 711.55,-544.45"/>
<polygon fill="#63b8ff" stroke="#63b8ff" points="711.07,-547.97 721.19,-544.83 711.32,-540.97 711.07,-547.97"/>
</a>
</g>
</g>
<!-- Node30&#45;&gt;Node32 -->
<g id="edge30_Node000030_Node000032" class="edge">
<title>Node30&#45;&gt;Node32</title>
<g id="a_edge30_Node000030_Node000032"><a xlink:title=" ">
<path fill="none" stroke="#63b8ff" d="M658.68,-564.99C677.21,-570.49 698.2,-576.72 717.49,-582.44"/>
<polygon fill="#63b8ff" stroke="#63b8ff" points="716.42,-586.07 727,-585.56 718.41,-579.36 716.42,-586.07"/>
</a>
</g>
</g>
<!-- Node31&#45;&gt;Node28 -->
<g id="edge29_Node000031_Node000028" class="edge">
<title>Node31&#45;&gt;Node28</title>
<g id="a_edge29_Node000031_Node000028"><a xlink:title=" ">
<path fill="none" stroke="#63b8ff" d="M831.08,-536.62C838.09,-534.01 845.16,-531.19 851.75,-528.25 872.08,-519.19 893.89,-507.32 911.42,-497.21"/>
<polygon fill="#63b8ff" stroke="#63b8ff" points="912.81,-499.86 919.69,-491.8 909.28,-493.82 912.81,-499.86"/>
</a>
</g>
</g>
<!-- Node31&#45;&gt;Node30 -->
<g id="edge28_Node000031_Node000030" class="edge">
<title>Node31&#45;&gt;Node30</title>
<g id="a_edge28_Node000031_Node000030"><a xlink:title=" ">
<path fill="none" stroke="#63b8ff" d="M722.19,-557.66C707.09,-557.76 690.7,-557.55 675.11,-557.06"/>
<polygon fill="#63b8ff" stroke="#63b8ff" points="675.59,-553.54 665.47,-556.67 675.33,-560.53 675.59,-553.54"/>
</a>
</g>
</g>
<!-- Node32&#45;&gt;Node33 -->
<g id="edge31_Node000032_Node000033" class="edge">
<title>Node32&#45;&gt;Node33</title>
<g id="a_edge31_Node000032_Node000033"><a xlink:title=" ">
<path fill="none" stroke="#63b8ff" d="M833.19,-616.97C862.17,-626.02 897.36,-637.02 920.68,-644.3"/>
<polygon fill="#63b8ff" stroke="#63b8ff" points="919.5,-647.91 930.09,-647.55 921.59,-641.23 919.5,-647.91"/>
</a>
</g>
</g>
<!-- Node34&#45;&gt;Node21 -->
<g id="edge36_Node000034_Node000021" class="edge">
<title>Node34&#45;&gt;Node21</title>
<g id="a_edge36_Node000034_Node000021"><a xlink:title=" ">
<path fill="none" stroke="#63b8ff" d="M474.85,-407.62C493.62,-407.42 514.58,-407.2 534.04,-406.99"/>
<polygon fill="#63b8ff" stroke="#63b8ff" points="534.02,-410.48 543.98,-406.88 533.95,-403.48 534.02,-410.48"/>
</a>
</g>
</g>
<!-- Node34&#45;&gt;Node28 -->
<g id="edge37_Node000034_Node000028" class="edge">
<title>Node34&#45;&gt;Node28</title>
<g id="a_edge37_Node000034_Node000028"><a xlink:title=" ">
<path fill="none" stroke="#63b8ff" d="M471.71,-392.58C543.87,-372.6 665.87,-339.93 712,-334.25 773.65,-326.66 797.01,-304.9 851.75,-334.25 863.84,-340.73 907.9,-412.28 931.3,-451.26"/>
<polygon fill="#63b8ff" stroke="#63b8ff" points="928.77,-452.85 936.9,-459.64 934.77,-449.26 928.77,-452.85"/>
</a>
</g>
</g>
<!-- Node36&#45;&gt;Node31 -->
<g id="edge41_Node000036_Node000031" class="edge">
<title>Node36&#45;&gt;Node31</title>
<g id="a_edge41_Node000036_Node000031"><a xlink:title=" ">
<path fill="none" stroke="#63b8ff" d="M474.69,-507.54C527.62,-509.42 607.44,-514.01 676,-525.25 689.32,-527.43 703.42,-530.52 716.81,-533.82"/>
<polygon fill="#63b8ff" stroke="#63b8ff" points="715.82,-537.44 726.38,-536.51 717.55,-530.65 715.82,-537.44"/>
</a>
</g>
</g>
<!-- Node37 -->
<g id="Node000037" class="node">
<title>Node37</title>
<g id="a_Node000037"><a xlink:href="../../d9/d24/class_slic3r_1_1_preset_collection.html#a1b04f4e9343cd71ea2a21d7f2bca3585" target="_top" xlink:title=" ">
<polygon fill="white" stroke="#666666" points="664,-478.5 545.25,-478.5 545.25,-448 664,-448 664,-478.5"/>
<text text-anchor="start" x="553.25" y="-465" font-family="Helvetica,sans-Serif" font-size="10.00">Slic3r::PresetCollection</text>
<text text-anchor="middle" x="604.62" y="-453.75" font-family="Helvetica,sans-Serif" font-size="10.00">::select_preset</text>
</a>
</g>
</g>
<!-- Node36&#45;&gt;Node37 -->
<g id="edge42_Node000036_Node000037" class="edge">
<title>Node36&#45;&gt;Node37</title>
<g id="a_edge42_Node000036_Node000037"><a xlink:title=" ">
<path fill="none" stroke="#63b8ff" d="M474.85,-492.76C493.71,-488.44 514.77,-483.61 534.31,-479.14"/>
<polygon fill="#63b8ff" stroke="#63b8ff" points="535.02,-482.34 543.98,-476.69 533.45,-475.51 535.02,-482.34"/>
</a>
</g>
</g>
<!-- Node37&#45;&gt;Node31 -->
<g id="edge43_Node000037_Node000031" class="edge">
<title>Node37&#45;&gt;Node31</title>
<g id="a_edge43_Node000037_Node000031"><a xlink:title=" ">
<path fill="none" stroke="#63b8ff" d="M651.28,-478.97C659.8,-482.75 668.41,-487.19 676,-492.25 694.83,-504.8 692.83,-516.22 712,-528.25 714,-529.51 716.08,-530.71 718.21,-531.86"/>
<polygon fill="#63b8ff" stroke="#63b8ff" points="716.31,-535.31 726.83,-536.55 719.38,-529.02 716.31,-535.31"/>
</a>
</g>
</g>
<!-- Node37&#45;&gt;Node32 -->
<g id="edge45_Node000037_Node000032" class="edge">
<title>Node37&#45;&gt;Node32</title>
<g id="a_edge45_Node000037_Node000032"><a xlink:title=" ">
<path fill="none" stroke="#63b8ff" d="M625.87,-478.95C640.59,-490.85 660.55,-508.05 676,-525.25 694.54,-545.89 689.95,-559.41 712,-576.25 713.89,-577.69 715.87,-579.06 717.92,-580.35"/>
<polygon fill="#63b8ff" stroke="#63b8ff" points="715.82,-583.74 726.26,-585.55 719.23,-577.63 715.82,-583.74"/>
</a>
</g>
</g>
<!-- Node38 -->
<g id="Node000038" class="node">
<title>Node38</title>
<g id="a_Node000038"><a xlink:href="../../d9/db2/class_slic3r_1_1_preset.html#a161f0d5dc36229f0b3bb5321e89e665c" target="_top" xlink:title=" ">
<polygon fill="white" stroke="#666666" points="829.25,-459.5 734.5,-459.5 734.5,-429 829.25,-429 829.25,-459.5"/>
<text text-anchor="start" x="742.5" y="-446" font-family="Helvetica,sans-Serif" font-size="10.00">Slic3r::Preset::get</text>
<text text-anchor="middle" x="781.88" y="-434.75" font-family="Helvetica,sans-Serif" font-size="10.00">_type_string</text>
</a>
</g>
</g>
<!-- Node37&#45;&gt;Node38 -->
<g id="edge44_Node000037_Node000038" class="edge">
<title>Node37&#45;&gt;Node38</title>
<g id="a_edge44_Node000037_Node000038"><a xlink:title=" ">
<path fill="none" stroke="#63b8ff" d="M664.47,-456.87C683.42,-454.82 704.39,-452.54 723.26,-450.5"/>
<polygon fill="#63b8ff" stroke="#63b8ff" points="723.52,-453.88 733.09,-449.32 722.77,-446.92 723.52,-453.88"/>
</a>
</g>
</g>
<!-- Node39 -->
<g id="Node000039" class="node">
<title>Node39</title>
<g id="a_Node000039"><a xlink:href="../../d9/d24/class_slic3r_1_1_preset_collection.html#a7438b80b495a1e1323883fd1798cf8a1" target="_top" xlink:title=" ">
<polygon fill="white" stroke="#666666" points="851.75,-519.12 712,-519.12 712,-477.38 851.75,-477.38 851.75,-519.12"/>
<text text-anchor="start" x="720" y="-505.62" font-family="Helvetica,sans-Serif" font-size="10.00">Slic3r::PresetCollection</text>
<text text-anchor="start" x="720" y="-494.38" font-family="Helvetica,sans-Serif" font-size="10.00">::update_saved_preset_from</text>
<text text-anchor="middle" x="781.88" y="-483.12" font-family="Helvetica,sans-Serif" font-size="10.00">_current_preset</text>
</a>
</g>
</g>
<!-- Node37&#45;&gt;Node39 -->
<g id="edge46_Node000037_Node000039" class="edge">
<title>Node37&#45;&gt;Node39</title>
<g id="a_edge46_Node000037_Node000039"><a xlink:title=" ">
<path fill="none" stroke="#63b8ff" d="M664.47,-475C676.16,-477.34 688.62,-479.82 700.88,-482.27"/>
<polygon fill="#63b8ff" stroke="#63b8ff" points="700.08,-485.88 710.57,-484.41 701.45,-479.02 700.08,-485.88"/>
</a>
</g>
</g>
<!-- Node40&#45;&gt;Node8 -->
<g id="edge48_Node000040_Node000008" class="edge">
<title>Node40&#45;&gt;Node8</title>
<g id="a_edge48_Node000040_Node000008"><a xlink:title=" ">
<path fill="none" stroke="#63b8ff" d="M471.79,-268.74C494.73,-269.35 521.32,-270.06 544.59,-270.68"/>
<polygon fill="#63b8ff" stroke="#63b8ff" points="544.27,-274.2 554.36,-270.96 544.46,-267.2 544.27,-274.2"/>
</a>
</g>
</g>
<!-- Node41&#45;&gt;Node8 -->
<g id="edge51_Node000041_Node000008" class="edge">
<title>Node41&#45;&gt;Node8</title>
<g id="a_edge51_Node000041_Node000008"><a xlink:title=" ">
<path fill="none" stroke="#63b8ff" d="M469.44,-346.53C479.02,-343.22 488.67,-339.17 497.25,-334.25 516.08,-323.46 514.93,-312.9 533.25,-301.25 538.2,-298.1 543.55,-295.18 549,-292.49"/>
<polygon fill="#63b8ff" stroke="#63b8ff" points="550.29,-295.29 557.89,-287.91 547.35,-288.94 550.29,-295.29"/>
</a>
</g>
</g>
</g>
</svg>
