<?xml version="1.0" encoding="UTF-8" standalone="no"?>
<!DOCTYPE svg PUBLIC "-//W3C//DTD SVG 1.1//EN"
 "http://www.w3.org/Graphics/SVG/1.1/DTD/svg11.dtd">
<!-- Generated by graphviz version 8.1.0 (20230707.0739)
 -->
<!-- Title: nlohmann::detail::binary_writer::write_bson Pages: 1 -->
<!--zoomable 530 -->

<svg id="main" version="1.1" xmlns="http://www.w3.org/2000/svg" xmlns:xlink="http://www.w3.org/1999/xlink" xml:space="preserve" onload="init(evt)">
<style type="text/css"><![CDATA[
.node, .edge {opacity: 0.7;}
.node.selected, .edge.selected {opacity: 1;}
.edge:hover path { stroke: red; }
.edge:hover polygon { stroke: red; fill: red; }
]]></style>

<defs>
  <circle id="rim" cx="0" cy="0" r="7"/>
  <circle id="rim2" cx="0" cy="0" r="3.5"/>
  <g id="zoomPlus">
    <use xlink:href="#rim" fill="#404040"><set attributeName="fill" to="#808080" begin="zoomplus.mouseover" end="zoomplus.mouseout"/></use>
    <path d="M-4,0h8M0,-4v8" fill="none" stroke="white" stroke-width="1.5" pointer-events="none"/>
  </g>
  <g id="zoomMin">
    <use xlink:href="#rim" fill="#404040"><set attributeName="fill" to="#808080" begin="zoomminus.mouseover" end="zoomminus.mouseout"/></use>
    <path d="M-4,0h8" fill="none" stroke="white" stroke-width="1.5" pointer-events="none"/>
  </g>
  <g id="arrowUp" transform="translate(30 24)">
    <use xlink:href="#rim"/>
    <path pointer-events="none" fill="none" stroke="white" stroke-width="1.5" d="M0,-3.0v7 M-2.5,-0.5L0,-3.0L2.5,-0.5"/>
  </g>
  <g id="arrowRight" transform="rotate(90) translate(36 -43)">
    <use xlink:href="#rim"/>
    <path pointer-events="none" fill="none" stroke="white" stroke-width="1.5" d="M0,-3.0v7 M-2.5,-0.5L0,-3.0L2.5,-0.5"/>
  </g>
  <g id="arrowDown" transform="rotate(180) translate(-30 -48)">
    <use xlink:href="#rim"/>
    <path pointer-events="none" fill="none" stroke="white" stroke-width="1.5" d="M0,-3.0v7 M-2.5,-0.5L0,-3.0L2.5,-0.5"/>
  </g>
  <g id="arrowLeft" transform="rotate(270) translate(-36 17)">
    <use xlink:href="#rim"/>
    <path pointer-events="none" fill="none" stroke="white" stroke-width="1.5" d="M0,-3.0v7 M-2.5,-0.5L0,-3.0L2.5,-0.5"/>
  </g>
  <g id="resetDef">
    <use xlink:href="#rim2" fill="#404040"><set attributeName="fill" to="#808080" begin="reset.mouseover" end="reset.mouseout"/></use>
  </g>
</defs>
<script type="application/ecmascript">
var viewWidth = 1238;
var viewHeight = 530;
var sectionId = 'dynsection-21';
</script>
<script type="application/ecmascript" xlink:href="../../svg.min.js"/>
<svg id="graph" class="graph">
<g id="viewport">
<title>nlohmann::detail::binary_writer::write_bson</title>
<!-- Node1 -->
<g id="Node000001" class="node">
<title>Node1</title>
<g id="a_Node000001"><a xlink:title=" ">
<polygon fill="#999999" stroke="#666666" points="119.5,-423.07 0,-423.07 0,-392.57 119.5,-392.57 119.5,-423.07"/>
<text text-anchor="start" x="8" y="-409.57" font-family="Helvetica,sans-Serif" font-size="10.00">nlohmann::detail::binary</text>
<text text-anchor="middle" x="59.75" y="-398.32" font-family="Helvetica,sans-Serif" font-size="10.00">_writer::write_bson</text>
</a>
</g>
</g>
<!-- Node2 -->
<g id="Node000002" class="node">
<title>Node2</title>
<g id="a_Node000002"><a xlink:href="../../da/d1c/classnlohmann_1_1detail_1_1type__error.html#a838a5e301cf97289c2d106b9ace1470f" target="_top" xlink:title=" ">
<polygon fill="white" stroke="#666666" points="824.75,-491.07 712.75,-491.07 712.75,-460.57 824.75,-460.57 824.75,-491.07"/>
<text text-anchor="start" x="720.75" y="-477.57" font-family="Helvetica,sans-Serif" font-size="10.00">nlohmann::detail::type</text>
<text text-anchor="middle" x="768.75" y="-466.32" font-family="Helvetica,sans-Serif" font-size="10.00">_error::create</text>
</a>
</g>
</g>
<!-- Node1&#45;&gt;Node2 -->
<g id="edge1_Node000001_Node000002" class="edge">
<title>Node1&#45;&gt;Node2</title>
<g id="a_edge1_Node000001_Node000002"><a xlink:title=" ">
<path fill="none" stroke="#63b8ff" d="M119.82,-414.28C203.45,-423.35 361.2,-440.17 495.75,-452.82 566.08,-459.43 646.73,-466.14 701.83,-470.59"/>
<polygon fill="#63b8ff" stroke="#63b8ff" points="701.25,-474.13 711.5,-471.45 701.82,-467.16 701.25,-474.13"/>
</a>
</g>
</g>
<!-- Node5 -->
<g id="Node000005" class="node">
<title>Node5</title>
<g id="a_Node000005"><a xlink:href="../../df/d1a/classnlohmann_1_1detail_1_1binary__writer.html#a29b3e0f83a8e5f2307804023109ba2c9" target="_top" xlink:title=" ">
<polygon fill="white" stroke="#666666" points="285.5,-272.07 155.5,-272.07 155.5,-241.57 285.5,-241.57 285.5,-272.07"/>
<text text-anchor="start" x="163.5" y="-258.57" font-family="Helvetica,sans-Serif" font-size="10.00">nlohmann::detail::binary</text>
<text text-anchor="middle" x="220.5" y="-247.32" font-family="Helvetica,sans-Serif" font-size="10.00">_writer::write_bson_object</text>
</a>
</g>
</g>
<!-- Node1&#45;&gt;Node5 -->
<g id="edge4_Node000001_Node000005" class="edge">
<title>Node1&#45;&gt;Node5</title>
<g id="a_edge4_Node000001_Node000005"><a xlink:title=" ">
<path fill="none" stroke="#63b8ff" d="M77.14,-392.23C105.18,-365.55 162.5,-311.03 195.21,-279.92"/>
<polygon fill="#63b8ff" stroke="#63b8ff" points="197.13,-282.98 201.96,-273.55 192.3,-277.9 197.13,-282.98"/>
</a>
</g>
</g>
<!-- Node3 -->
<g id="Node000003" class="node">
<title>Node3</title>
<g id="a_Node000003"><a xlink:href="../../de/df2/classnlohmann_1_1detail_1_1exception.html#aa353a7dba4fd179f7224b8a2a238a264" target="_top" xlink:title=" ">
<polygon fill="white" stroke="#666666" points="1031.62,-491.07 896.38,-491.07 896.38,-460.57 1031.62,-460.57 1031.62,-491.07"/>
<text text-anchor="start" x="904.38" y="-477.57" font-family="Helvetica,sans-Serif" font-size="10.00">nlohmann::detail::exception</text>
<text text-anchor="middle" x="964" y="-466.32" font-family="Helvetica,sans-Serif" font-size="10.00">::diagnostics</text>
</a>
</g>
</g>
<!-- Node2&#45;&gt;Node3 -->
<g id="edge2_Node000002_Node000003" class="edge">
<title>Node2&#45;&gt;Node3</title>
<g id="a_edge2_Node000002_Node000003"><a xlink:title=" ">
<path fill="none" stroke="#63b8ff" d="M825.13,-475.82C843.76,-475.82 864.91,-475.82 884.96,-475.82"/>
<polygon fill="#63b8ff" stroke="#63b8ff" points="884.96,-479.32 894.95,-475.82 884.95,-472.32 884.96,-479.32"/>
</a>
</g>
</g>
<!-- Node4 -->
<g id="Node000004" class="node">
<title>Node4</title>
<g id="a_Node000004"><a xlink:href="../../de/df2/classnlohmann_1_1detail_1_1exception.html#abf41a7e9178356314082284e6cfea278" target="_top" xlink:title=" ">
<polygon fill="white" stroke="#666666" points="1031.62,-442.07 896.38,-442.07 896.38,-411.57 1031.62,-411.57 1031.62,-442.07"/>
<text text-anchor="start" x="904.38" y="-428.57" font-family="Helvetica,sans-Serif" font-size="10.00">nlohmann::detail::exception</text>
<text text-anchor="middle" x="964" y="-417.32" font-family="Helvetica,sans-Serif" font-size="10.00">::name</text>
</a>
</g>
</g>
<!-- Node2&#45;&gt;Node4 -->
<g id="edge3_Node000002_Node000004" class="edge">
<title>Node2&#45;&gt;Node4</title>
<g id="a_edge3_Node000002_Node000004"><a xlink:title=" ">
<path fill="none" stroke="#63b8ff" d="M825.13,-461.77C845.54,-456.6 868.98,-450.65 890.68,-445.15"/>
<polygon fill="#63b8ff" stroke="#63b8ff" points="891.33,-448.35 900.16,-442.5 889.61,-441.56 891.33,-448.35"/>
</a>
</g>
</g>
<!-- Node6 -->
<g id="Node000006" class="node">
<title>Node6</title>
<g id="a_Node000006"><a xlink:href="../../df/d1a/classnlohmann_1_1detail_1_1binary__writer.html#acc6f1cc1fd370ee84ebc8cf7b8712840" target="_top" xlink:title="Calculates the size of the BSON serialization of the given JSON&#45;object j.">
<polygon fill="white" stroke="#666666" points="1229.5,-463.07 1079.25,-463.07 1079.25,-432.57 1229.5,-432.57 1229.5,-463.07"/>
<text text-anchor="start" x="1087.25" y="-449.57" font-family="Helvetica,sans-Serif" font-size="10.00">nlohmann::detail::binary</text>
<text text-anchor="middle" x="1154.38" y="-438.32" font-family="Helvetica,sans-Serif" font-size="10.00">_writer::calc_bson_object_size</text>
</a>
</g>
</g>
<!-- Node5&#45;&gt;Node6 -->
<g id="edge5_Node000005_Node000006" class="edge">
<title>Node5&#45;&gt;Node6</title>
<g id="a_edge5_Node000005_Node000006"><a xlink:title=" ">
<path fill="none" stroke="#63b8ff" d="M231.48,-272.42C268.89,-328.82 407.25,-518.82 573.25,-518.82 573.25,-518.82 573.25,-518.82 769.75,-518.82 891.6,-518.82 925.35,-530.58 1043.25,-499.82 1069.39,-493 1096.87,-480.03 1117.84,-468.75"/>
<polygon fill="#63b8ff" stroke="#63b8ff" points="1119.21,-471.44 1126.28,-463.55 1115.83,-465.31 1119.21,-471.44"/>
</a>
</g>
</g>
<!-- Node7 -->
<g id="Node000007" class="node">
<title>Node7</title>
<g id="a_Node000007"><a xlink:href="../../df/d1a/classnlohmann_1_1detail_1_1binary__writer.html#ab77aa48692bd4e64e4f051ce6aeb6d2d" target="_top" xlink:title=" ">
<polygon fill="white" stroke="#666666" points="1023.75,-276.07 904.25,-276.07 904.25,-245.57 1023.75,-245.57 1023.75,-276.07"/>
<text text-anchor="start" x="912.25" y="-262.57" font-family="Helvetica,sans-Serif" font-size="10.00">nlohmann::detail::binary</text>
<text text-anchor="middle" x="964" y="-251.32" font-family="Helvetica,sans-Serif" font-size="10.00">_writer::to_char_type</text>
</a>
</g>
</g>
<!-- Node5&#45;&gt;Node7 -->
<g id="edge6_Node000005_Node000007" class="edge">
<title>Node5&#45;&gt;Node7</title>
<g id="a_edge6_Node000005_Node000007"><a xlink:title=" ">
<path fill="none" stroke="#63b8ff" d="M226.26,-241.22C237.39,-207.2 268.32,-125.69 321.5,-79.82 435.23,18.3 503.67,5.54 652.75,-12.82 741.87,-23.79 777.12,-7.67 848.75,-61.82 908.12,-106.69 941.68,-192.04 955.48,-234.9"/>
<polygon fill="#63b8ff" stroke="#63b8ff" points="952.41,-235.8 958.72,-244.31 959.09,-233.72 952.41,-235.8"/>
</a>
</g>
</g>
<!-- Node8 -->
<g id="Node000008" class="node">
<title>Node8</title>
<g id="a_Node000008"><a xlink:href="../../df/d1a/classnlohmann_1_1detail_1_1binary__writer.html#a7ff58bf1a80018148bed860667ffca07" target="_top" xlink:title="Serializes the JSON value j to BSON and associates it with the key name.">
<polygon fill="white" stroke="#666666" points="459.75,-272.07 321.5,-272.07 321.5,-241.57 459.75,-241.57 459.75,-272.07"/>
<text text-anchor="start" x="329.5" y="-258.57" font-family="Helvetica,sans-Serif" font-size="10.00">nlohmann::detail::binary</text>
<text text-anchor="middle" x="390.62" y="-247.32" font-family="Helvetica,sans-Serif" font-size="10.00">_writer::write_bson_element</text>
</a>
</g>
</g>
<!-- Node5&#45;&gt;Node8 -->
<g id="edge7_Node000005_Node000008" class="edge">
<title>Node5&#45;&gt;Node8</title>
<g id="a_edge7_Node000005_Node000008"><a xlink:title=" ">
<path fill="none" stroke="#63b8ff" d="M285.54,-256.82C293.61,-256.82 301.93,-256.82 310.2,-256.82"/>
<polygon fill="#63b8ff" stroke="#63b8ff" points="310,-260.32 320,-256.82 310,-253.32 310,-260.32"/>
</a>
</g>
</g>
<!-- Node9 -->
<g id="Node000009" class="node">
<title>Node9</title>
<g id="a_Node000009"><a xlink:href="../../df/d1a/classnlohmann_1_1detail_1_1binary__writer.html#a025212bd170253638b9f05b3b6aa5bf9" target="_top" xlink:title="Writes a BSON element with key name and array value.">
<polygon fill="white" stroke="#666666" points="637,-395.07 511.5,-395.07 511.5,-364.57 637,-364.57 637,-395.07"/>
<text text-anchor="start" x="519.5" y="-381.57" font-family="Helvetica,sans-Serif" font-size="10.00">nlohmann::detail::binary</text>
<text text-anchor="middle" x="574.25" y="-370.32" font-family="Helvetica,sans-Serif" font-size="10.00">_writer::write_bson_array</text>
</a>
</g>
</g>
<!-- Node8&#45;&gt;Node9 -->
<g id="edge8_Node000008_Node000009" class="edge">
<title>Node8&#45;&gt;Node9</title>
<g id="a_edge8_Node000008_Node000009"><a xlink:title=" ">
<path fill="none" stroke="#63b8ff" d="M410.14,-272.5C429.43,-292.38 461.55,-325.61 495.75,-345.82 506,-351.87 517.9,-356.65 529.24,-360.65"/>
<polygon fill="#63b8ff" stroke="#63b8ff" points="527.85,-364.22 538.45,-364.13 530.11,-357.59 527.85,-364.22"/>
</a>
</g>
</g>
<!-- Node19 -->
<g id="Node000019" class="node">
<title>Node19</title>
<g id="a_Node000019"><a xlink:href="../../df/d1a/classnlohmann_1_1detail_1_1binary__writer.html#a97d34d9a70ddc06ae782c55454df42bc" target="_top" xlink:title="Writes a BSON element with key name and binary value value.">
<polygon fill="white" stroke="#666666" points="639.25,-101.07 509.25,-101.07 509.25,-70.57 639.25,-70.57 639.25,-101.07"/>
<text text-anchor="start" x="517.25" y="-87.57" font-family="Helvetica,sans-Serif" font-size="10.00">nlohmann::detail::binary</text>
<text text-anchor="middle" x="574.25" y="-76.32" font-family="Helvetica,sans-Serif" font-size="10.00">_writer::write_bson_binary</text>
</a>
</g>
</g>
<!-- Node8&#45;&gt;Node19 -->
<g id="edge17_Node000008_Node000019" class="edge">
<title>Node8&#45;&gt;Node19</title>
<g id="a_edge17_Node000008_Node000019"><a xlink:title=" ">
<path fill="none" stroke="#63b8ff" d="M400.94,-241.3C421.45,-207.58 470.69,-129.15 495.75,-110.82 497.9,-109.25 500.15,-107.77 502.47,-106.39"/>
<polygon fill="#63b8ff" stroke="#63b8ff" points="503.55,-109.25 510.76,-101.48 500.29,-103.05 503.55,-109.25"/>
</a>
</g>
</g>
<!-- Node21 -->
<g id="Node000021" class="node">
<title>Node21</title>
<g id="a_Node000021"><a xlink:href="../../df/d1a/classnlohmann_1_1detail_1_1binary__writer.html#ae099435e1df3096e0fc78333282f8f67" target="_top" xlink:title="Writes a BSON element with key name and boolean value value.">
<polygon fill="white" stroke="#666666" points="643,-346.07 505.5,-346.07 505.5,-315.57 643,-315.57 643,-346.07"/>
<text text-anchor="start" x="513.5" y="-332.57" font-family="Helvetica,sans-Serif" font-size="10.00">nlohmann::detail::binary</text>
<text text-anchor="middle" x="574.25" y="-321.32" font-family="Helvetica,sans-Serif" font-size="10.00">_writer::write_bson_boolean</text>
</a>
</g>
</g>
<!-- Node8&#45;&gt;Node21 -->
<g id="edge20_Node000008_Node000021" class="edge">
<title>Node8&#45;&gt;Node21</title>
<g id="a_edge20_Node000008_Node000021"><a xlink:title=" ">
<path fill="none" stroke="#63b8ff" d="M422.15,-272.45C442.67,-282.63 470.48,-295.84 495.75,-305.82 500.8,-307.81 506.08,-309.77 511.4,-311.65"/>
<polygon fill="#63b8ff" stroke="#63b8ff" points="510.05,-315.24 520.65,-315.19 512.34,-308.62 510.05,-315.24"/>
</a>
</g>
</g>
<!-- Node22 -->
<g id="Node000022" class="node">
<title>Node22</title>
<g id="a_Node000022"><a xlink:href="../../df/d1a/classnlohmann_1_1detail_1_1binary__writer.html#a263ec18815467bb9919021ef126919ca" target="_top" xlink:title="Writes a BSON element with key name and double value value.">
<polygon fill="white" stroke="#666666" points="640.38,-150.07 508.12,-150.07 508.12,-119.57 640.38,-119.57 640.38,-150.07"/>
<text text-anchor="start" x="516.12" y="-136.57" font-family="Helvetica,sans-Serif" font-size="10.00">nlohmann::detail::binary</text>
<text text-anchor="middle" x="574.25" y="-125.32" font-family="Helvetica,sans-Serif" font-size="10.00">_writer::write_bson_double</text>
</a>
</g>
</g>
<!-- Node8&#45;&gt;Node22 -->
<g id="edge23_Node000008_Node000022" class="edge">
<title>Node8&#45;&gt;Node22</title>
<g id="a_edge23_Node000008_Node000022"><a xlink:title=" ">
<path fill="none" stroke="#63b8ff" d="M404.48,-241.13C422.7,-219.85 458.04,-181.96 495.75,-159.82 498.74,-158.06 501.86,-156.41 505.07,-154.87"/>
<polygon fill="#63b8ff" stroke="#63b8ff" points="506.16,-157.77 513.9,-150.54 503.34,-151.37 506.16,-157.77"/>
</a>
</g>
</g>
<!-- Node23 -->
<g id="Node000023" class="node">
<title>Node23</title>
<g id="a_Node000023"><a xlink:href="../../df/d1a/classnlohmann_1_1detail_1_1binary__writer.html#a553ad4dbdf27238eef90867e4bf2f3e5" target="_top" xlink:title="Writes a BSON element with key name and integer value.">
<polygon fill="white" stroke="#666666" points="640.75,-297.07 507.75,-297.07 507.75,-266.57 640.75,-266.57 640.75,-297.07"/>
<text text-anchor="start" x="515.75" y="-283.57" font-family="Helvetica,sans-Serif" font-size="10.00">nlohmann::detail::binary</text>
<text text-anchor="middle" x="574.25" y="-272.32" font-family="Helvetica,sans-Serif" font-size="10.00">_writer::write_bson_integer</text>
</a>
</g>
</g>
<!-- Node8&#45;&gt;Node23 -->
<g id="edge25_Node000008_Node000023" class="edge">
<title>Node8&#45;&gt;Node23</title>
<g id="a_edge25_Node000008_Node000023"><a xlink:title=" ">
<path fill="none" stroke="#63b8ff" d="M460.03,-266.23C472.01,-267.88 484.54,-269.61 496.72,-271.28"/>
<polygon fill="#63b8ff" stroke="#63b8ff" points="495.93,-274.84 506.31,-272.74 496.88,-267.91 495.93,-274.84"/>
</a>
</g>
</g>
<!-- Node24 -->
<g id="Node000024" class="node">
<title>Node24</title>
<g id="a_Node000024"><a xlink:href="../../df/d1a/classnlohmann_1_1detail_1_1binary__writer.html#a9927c1110b18661e0224a76156e5a7a9" target="_top" xlink:title="Writes a BSON element with key name and null value.">
<polygon fill="white" stroke="#666666" points="634,-248.07 514.5,-248.07 514.5,-217.57 634,-217.57 634,-248.07"/>
<text text-anchor="start" x="522.5" y="-234.57" font-family="Helvetica,sans-Serif" font-size="10.00">nlohmann::detail::binary</text>
<text text-anchor="middle" x="574.25" y="-223.32" font-family="Helvetica,sans-Serif" font-size="10.00">_writer::write_bson_null</text>
</a>
</g>
</g>
<!-- Node8&#45;&gt;Node24 -->
<g id="edge27_Node000008_Node000024" class="edge">
<title>Node8&#45;&gt;Node24</title>
<g id="a_edge27_Node000008_Node000024"><a xlink:title=" ">
<path fill="none" stroke="#63b8ff" d="M460.03,-247.78C474.21,-245.9 489.18,-243.93 503.41,-242.05"/>
<polygon fill="#63b8ff" stroke="#63b8ff" points="503.67,-245.41 513.13,-240.63 502.75,-238.47 503.67,-245.41"/>
</a>
</g>
</g>
<!-- Node25 -->
<g id="Node000025" class="node">
<title>Node25</title>
<g id="a_Node000025"><a xlink:href="../../df/d1a/classnlohmann_1_1detail_1_1binary__writer.html#a6231302930265eccb3f56c378f7b0661" target="_top" xlink:title="Writes a BSON element with key name and object value.">
<polygon fill="white" stroke="#666666" points="652.75,-52.07 495.75,-52.07 495.75,-21.57 652.75,-21.57 652.75,-52.07"/>
<text text-anchor="start" x="503.75" y="-38.57" font-family="Helvetica,sans-Serif" font-size="10.00">nlohmann::detail::binary</text>
<text text-anchor="middle" x="574.25" y="-27.32" font-family="Helvetica,sans-Serif" font-size="10.00">_writer::write_bson_object_entry</text>
</a>
</g>
</g>
<!-- Node8&#45;&gt;Node25 -->
<g id="edge29_Node000008_Node000025" class="edge">
<title>Node8&#45;&gt;Node25</title>
<g id="a_edge29_Node000008_Node000025"><a xlink:title=" ">
<path fill="none" stroke="#63b8ff" d="M403.01,-241.39C417.42,-221.41 442.46,-185.2 459.75,-151.82 479.57,-113.56 464.26,-91.22 495.75,-61.82 496.94,-60.7 498.19,-59.63 499.48,-58.62"/>
<polygon fill="#63b8ff" stroke="#63b8ff" points="501.16,-61.03 507.53,-52.56 497.27,-55.21 501.16,-61.03"/>
</a>
</g>
</g>
<!-- Node26 -->
<g id="Node000026" class="node">
<title>Node26</title>
<g id="a_Node000026"><a xlink:href="../../df/d1a/classnlohmann_1_1detail_1_1binary__writer.html#a5e6574416915208fc035b57338ae3252" target="_top" xlink:title="Writes a BSON element with key name and string value value.">
<polygon fill="white" stroke="#666666" points="638.12,-199.07 510.38,-199.07 510.38,-168.57 638.12,-168.57 638.12,-199.07"/>
<text text-anchor="start" x="518.38" y="-185.57" font-family="Helvetica,sans-Serif" font-size="10.00">nlohmann::detail::binary</text>
<text text-anchor="middle" x="574.25" y="-174.32" font-family="Helvetica,sans-Serif" font-size="10.00">_writer::write_bson_string</text>
</a>
</g>
</g>
<!-- Node8&#45;&gt;Node26 -->
<g id="edge32_Node000008_Node000026" class="edge">
<title>Node8&#45;&gt;Node26</title>
<g id="a_edge32_Node000008_Node000026"><a xlink:title=" ">
<path fill="none" stroke="#63b8ff" d="M423.1,-241.11C443.54,-231.21 470.9,-218.51 495.75,-208.82 500.81,-206.84 506.09,-204.9 511.42,-203.02"/>
<polygon fill="#63b8ff" stroke="#63b8ff" points="512.35,-206.06 520.67,-199.5 510.07,-199.44 512.35,-206.06"/>
</a>
</g>
</g>
<!-- Node27 -->
<g id="Node000027" class="node">
<title>Node27</title>
<g id="a_Node000027"><a xlink:href="../../df/d1a/classnlohmann_1_1detail_1_1binary__writer.html#ac274e3d7a803e7223bb1a4fcb7cd594c" target="_top" xlink:title="Writes a BSON element with key name and unsigned value.">
<polygon fill="white" stroke="#666666" points="645.62,-444.07 502.88,-444.07 502.88,-413.57 645.62,-413.57 645.62,-444.07"/>
<text text-anchor="start" x="510.88" y="-430.57" font-family="Helvetica,sans-Serif" font-size="10.00">nlohmann::detail::binary</text>
<text text-anchor="middle" x="574.25" y="-419.32" font-family="Helvetica,sans-Serif" font-size="10.00">_writer::write_bson_unsigned</text>
</a>
</g>
</g>
<!-- Node8&#45;&gt;Node27 -->
<g id="edge34_Node000008_Node000027" class="edge">
<title>Node8&#45;&gt;Node27</title>
<g id="a_edge34_Node000008_Node000027"><a xlink:title=" ">
<path fill="none" stroke="#63b8ff" d="M398.38,-272.19C412.26,-302.01 446.84,-367.91 495.75,-403.82 497.89,-405.39 500.14,-406.87 502.47,-408.25"/>
<polygon fill="#63b8ff" stroke="#63b8ff" points="500.28,-411.59 510.75,-413.17 503.55,-405.4 500.28,-411.59"/>
</a>
</g>
</g>
<!-- Node9&#45;&gt;Node7 -->
<g id="edge13_Node000009_Node000007" class="edge">
<title>Node9&#45;&gt;Node7</title>
<g id="a_edge13_Node000009_Node000007"><a xlink:title=" ">
<path fill="none" stroke="#63b8ff" d="M637.39,-365.1C705.42,-348.77 810,-323 848.75,-309.82 872.81,-301.63 898.9,-290.61 920.07,-281.1"/>
<polygon fill="#63b8ff" stroke="#63b8ff" points="921.38,-283.89 929.04,-276.56 918.48,-277.52 921.38,-283.89"/>
</a>
</g>
</g>
<!-- Node9&#45;&gt;Node8 -->
<g id="edge14_Node000009_Node000008" class="edge">
<title>Node9&#45;&gt;Node8</title>
<g id="a_edge14_Node000009_Node000008"><a xlink:title=" ">
<path fill="none" stroke="#63b8ff" d="M511.23,-371.57C505.86,-369.28 500.62,-366.69 495.75,-363.82 459.17,-342.21 424.97,-305.69 406.31,-281.17"/>
<polygon fill="#63b8ff" stroke="#63b8ff" points="408.65,-279.45 399.94,-273.42 402.99,-283.56 408.65,-279.45"/>
</a>
</g>
</g>
<!-- Node10 -->
<g id="Node000010" class="node">
<title>Node10</title>
<g id="a_Node000010"><a xlink:href="../../df/d1a/classnlohmann_1_1detail_1_1binary__writer.html#af08f9302a02516ff8cf358a99aaa1ddf" target="_top" xlink:title=" ">
<polygon fill="white" stroke="#666666" points="841.62,-393.07 695.88,-393.07 695.88,-362.57 841.62,-362.57 841.62,-393.07"/>
<text text-anchor="start" x="703.88" y="-379.57" font-family="Helvetica,sans-Serif" font-size="10.00">nlohmann::detail::binary</text>
<text text-anchor="middle" x="768.75" y="-368.32" font-family="Helvetica,sans-Serif" font-size="10.00">_writer::calc_bson_array_size</text>
</a>
</g>
</g>
<!-- Node9&#45;&gt;Node10 -->
<g id="edge9_Node000009_Node000010" class="edge">
<title>Node9&#45;&gt;Node10</title>
<g id="a_edge9_Node000009_Node000010"><a xlink:title=" ">
<path fill="none" stroke="#63b8ff" d="M637.48,-379.17C652.57,-379.01 668.93,-378.84 684.8,-378.68"/>
<polygon fill="#63b8ff" stroke="#63b8ff" points="684.72,-382.17 694.69,-378.56 684.65,-375.17 684.72,-382.17"/>
</a>
</g>
</g>
<!-- Node18 -->
<g id="Node000018" class="node">
<title>Node18</title>
<g id="a_Node000018"><a xlink:href="../../df/d1a/classnlohmann_1_1detail_1_1binary__writer.html#a1b5b7f5c03b1f8b1f59ea61db9634108" target="_top" xlink:title="Writes the given element_type and name to the output adapter.">
<polygon fill="white" stroke="#666666" points="848.75,-249.07 688.75,-249.07 688.75,-218.57 848.75,-218.57 848.75,-249.07"/>
<text text-anchor="start" x="696.75" y="-235.57" font-family="Helvetica,sans-Serif" font-size="10.00">nlohmann::detail::binary</text>
<text text-anchor="middle" x="768.75" y="-224.32" font-family="Helvetica,sans-Serif" font-size="10.00">_writer::write_bson_entry_header</text>
</a>
</g>
</g>
<!-- Node9&#45;&gt;Node18 -->
<g id="edge15_Node000009_Node000018" class="edge">
<title>Node9&#45;&gt;Node18</title>
<g id="a_edge15_Node000009_Node000018"><a xlink:title=" ">
<path fill="none" stroke="#63b8ff" d="M634.63,-364.11C640.95,-361.44 647.13,-358.35 652.75,-354.82 655.56,-353.05 713.31,-291.78 745.88,-257.12"/>
<polygon fill="#63b8ff" stroke="#63b8ff" points="747.89,-260.03 752.18,-250.34 742.79,-255.23 747.89,-260.03"/>
</a>
</g>
</g>
<!-- Node11 -->
<g id="Node000011" class="node">
<title>Node11</title>
<g id="a_Node000011"><a xlink:href="../../df/d1a/classnlohmann_1_1detail_1_1binary__writer.html#a1e4372c5984184eb5bcc09af1fcc2ee0" target="_top" xlink:title="Calculates the size necessary to serialize the JSON value j with its name.">
<polygon fill="#fff0f0" stroke="red" points="1043.25,-393.07 884.75,-393.07 884.75,-362.57 1043.25,-362.57 1043.25,-393.07"/>
<text text-anchor="start" x="892.75" y="-379.57" font-family="Helvetica,sans-Serif" font-size="10.00">nlohmann::detail::binary</text>
<text text-anchor="middle" x="964" y="-368.32" font-family="Helvetica,sans-Serif" font-size="10.00">_writer::calc_bson_element_size</text>
</a>
</g>
</g>
<!-- Node10&#45;&gt;Node11 -->
<g id="edge10_Node000010_Node000011" class="edge">
<title>Node10&#45;&gt;Node11</title>
<g id="a_edge10_Node000010_Node000011"><a xlink:title=" ">
<path fill="none" stroke="#63b8ff" d="M841.98,-371.26C852.25,-371.09 862.91,-371.03 873.45,-371.08"/>
<polygon fill="#63b8ff" stroke="#63b8ff" points="873.35,-374.59 883.38,-371.17 873.4,-367.59 873.35,-374.59"/>
</a>
</g>
</g>
<!-- Node11&#45;&gt;Node6 -->
<g id="edge12_Node000011_Node000006" class="edge">
<title>Node11&#45;&gt;Node6</title>
<g id="a_edge12_Node000011_Node000006"><a xlink:title=" ">
<path fill="none" stroke="#63b8ff" d="M1016.13,-393.51C1025.2,-396.48 1034.54,-399.65 1043.25,-402.82 1064.31,-410.47 1087.3,-419.72 1106.8,-427.84"/>
<polygon fill="#63b8ff" stroke="#63b8ff" points="1105.37,-431.45 1115.95,-432.09 1108.08,-425 1105.37,-431.45"/>
</a>
</g>
</g>
<!-- Node11&#45;&gt;Node10 -->
<g id="edge11_Node000011_Node000010" class="edge">
<title>Node11&#45;&gt;Node10</title>
<g id="a_edge11_Node000011_Node000010"><a xlink:title=" ">
<path fill="none" stroke="#63b8ff" d="M884.38,-384.46C873.97,-384.58 863.28,-384.6 852.8,-384.51"/>
<polygon fill="#63b8ff" stroke="#63b8ff" points="853.03,-381 842.98,-384.37 852.94,-388 853.03,-381"/>
</a>
</g>
</g>
<!-- Node18&#45;&gt;Node7 -->
<g id="edge16_Node000018_Node000007" class="edge">
<title>Node18&#45;&gt;Node7</title>
<g id="a_edge16_Node000018_Node000007"><a xlink:title=" ">
<path fill="none" stroke="#63b8ff" d="M849.19,-244.92C863.79,-246.96 878.93,-249.07 893.22,-251.07"/>
<polygon fill="#63b8ff" stroke="#63b8ff" points="892.57,-254.65 902.96,-252.57 893.54,-247.72 892.57,-254.65"/>
</a>
</g>
</g>
<!-- Node19&#45;&gt;Node18 -->
<g id="edge18_Node000019_Node000018" class="edge">
<title>Node19&#45;&gt;Node18</title>
<g id="a_edge18_Node000019_Node000018"><a xlink:title=" ">
<path fill="none" stroke="#63b8ff" d="M634.65,-101.48C640.98,-104.16 647.14,-107.26 652.75,-110.82 694.22,-137.13 730.79,-181.89 751.03,-209.54"/>
<polygon fill="#63b8ff" stroke="#63b8ff" points="748.58,-211.13 757.25,-217.21 754.26,-207.05 748.58,-211.13"/>
</a>
</g>
</g>
<!-- Node20 -->
<g id="Node000020" class="node">
<title>Node20</title>
<g id="a_Node000020"><a xlink:href="../../df/d1a/classnlohmann_1_1detail_1_1binary__writer.html#a6e11b7227fcecc25a548ed45507b7d1c" target="_top" xlink:title=" ">
<polygon fill="white" stroke="#666666" points="828.5,-101.07 709,-101.07 709,-70.57 828.5,-70.57 828.5,-101.07"/>
<text text-anchor="start" x="717" y="-87.57" font-family="Helvetica,sans-Serif" font-size="10.00">nlohmann::detail::binary</text>
<text text-anchor="middle" x="768.75" y="-76.32" font-family="Helvetica,sans-Serif" font-size="10.00">_writer::write_number</text>
</a>
</g>
</g>
<!-- Node19&#45;&gt;Node20 -->
<g id="edge19_Node000019_Node000020" class="edge">
<title>Node19&#45;&gt;Node20</title>
<g id="a_edge19_Node000019_Node000020"><a xlink:title=" ">
<path fill="none" stroke="#63b8ff" d="M639.62,-85.82C658.26,-85.82 678.69,-85.82 697.66,-85.82"/>
<polygon fill="#63b8ff" stroke="#63b8ff" points="697.64,-89.32 707.64,-85.82 697.64,-82.32 697.64,-89.32"/>
</a>
</g>
</g>
<!-- Node21&#45;&gt;Node7 -->
<g id="edge21_Node000021_Node000007" class="edge">
<title>Node21&#45;&gt;Node7</title>
<g id="a_edge21_Node000021_Node000007"><a xlink:title=" ">
<path fill="none" stroke="#63b8ff" d="M643.23,-318.54C713.48,-305.86 822.56,-286.17 893.39,-273.38"/>
<polygon fill="#63b8ff" stroke="#63b8ff" points="893.77,-276.69 902.99,-271.47 892.52,-269.8 893.77,-276.69"/>
</a>
</g>
</g>
<!-- Node21&#45;&gt;Node18 -->
<g id="edge22_Node000021_Node000018" class="edge">
<title>Node21&#45;&gt;Node18</title>
<g id="a_edge22_Node000021_Node000018"><a xlink:title=" ">
<path fill="none" stroke="#63b8ff" d="M633.11,-315.12C639.92,-312.42 646.61,-309.32 652.75,-305.82 671.33,-295.19 671.05,-285.86 688.75,-273.82 699.17,-266.72 711.02,-260.07 722.31,-254.31"/>
<polygon fill="#63b8ff" stroke="#63b8ff" points="723.64,-257.06 731.04,-249.48 720.53,-250.79 723.64,-257.06"/>
</a>
</g>
</g>
<!-- Node22&#45;&gt;Node18 -->
<g id="edge24_Node000022_Node000018" class="edge">
<title>Node22&#45;&gt;Node18</title>
<g id="a_edge24_Node000022_Node000018"><a xlink:title=" ">
<path fill="none" stroke="#63b8ff" d="M630.14,-150.55C637.86,-153.33 645.59,-156.43 652.75,-159.82 683.5,-174.36 715.84,-195.8 738.37,-211.87"/>
<polygon fill="#63b8ff" stroke="#63b8ff" points="735.94,-215.15 746.1,-218.17 740.04,-209.47 735.94,-215.15"/>
</a>
</g>
</g>
<!-- Node23&#45;&gt;Node18 -->
<g id="edge26_Node000023_Node000018" class="edge">
<title>Node23&#45;&gt;Node18</title>
<g id="a_edge26_Node000023_Node000018"><a xlink:title=" ">
<path fill="none" stroke="#63b8ff" d="M638.28,-266.1C656.24,-261.62 675.95,-256.71 694.47,-252.09"/>
<polygon fill="#63b8ff" stroke="#63b8ff" points="695.05,-255.3 703.91,-249.49 693.36,-248.51 695.05,-255.3"/>
</a>
</g>
</g>
<!-- Node24&#45;&gt;Node18 -->
<g id="edge28_Node000024_Node000018" class="edge">
<title>Node24&#45;&gt;Node18</title>
<g id="a_edge28_Node000024_Node000018"><a xlink:title=" ">
<path fill="none" stroke="#63b8ff" d="M634.31,-233.12C648.1,-233.19 663.09,-233.27 677.87,-233.35"/>
<polygon fill="#63b8ff" stroke="#63b8ff" points="677.57,-236.85 687.58,-233.41 677.6,-229.85 677.57,-236.85"/>
</a>
</g>
</g>
<!-- Node25&#45;&gt;Node5 -->
<g id="edge31_Node000025_Node000005" class="edge">
<title>Node25&#45;&gt;Node5</title>
<g id="a_edge31_Node000025_Node000005"><a xlink:title=" ">
<path fill="none" stroke="#63b8ff" d="M517.39,-52.55C509.97,-55.3 502.57,-58.39 495.75,-61.82 396.9,-111.41 294.28,-194.29 247.52,-234.1"/>
<polygon fill="#63b8ff" stroke="#63b8ff" points="245.5,-232.08 240.19,-241.24 250.06,-237.39 245.5,-232.08"/>
</a>
</g>
</g>
<!-- Node25&#45;&gt;Node18 -->
<g id="edge30_Node000025_Node000018" class="edge">
<title>Node25&#45;&gt;Node18</title>
<g id="a_edge30_Node000025_Node000018"><a xlink:title=" ">
<path fill="none" stroke="#63b8ff" d="M637.24,-52.52C642.74,-55.16 648.01,-58.24 652.75,-61.82 659.69,-67.06 721.98,-162.86 751.88,-209.16"/>
<polygon fill="#63b8ff" stroke="#63b8ff" points="749.37,-210.73 757.73,-217.24 755.25,-206.94 749.37,-210.73"/>
</a>
</g>
</g>
<!-- Node26&#45;&gt;Node18 -->
<g id="edge33_Node000026_Node000018" class="edge">
<title>Node26&#45;&gt;Node18</title>
<g id="a_edge33_Node000026_Node000018"><a xlink:title=" ">
<path fill="none" stroke="#63b8ff" d="M635.63,-199.5C654.98,-204.52 676.58,-210.14 696.62,-215.34"/>
<polygon fill="#63b8ff" stroke="#63b8ff" points="695.69,-218.98 706.25,-218.1 697.45,-212.2 695.69,-218.98"/>
</a>
</g>
</g>
<!-- Node27&#45;&gt;Node18 -->
<g id="edge38_Node000027_Node000018" class="edge">
<title>Node27&#45;&gt;Node18</title>
<g id="a_edge38_Node000027_Node000018"><a xlink:title=" ">
<path fill="none" stroke="#63b8ff" d="M637.22,-413.09C642.73,-410.45 648,-407.38 652.75,-403.82 659.63,-398.65 721.66,-304.4 751.65,-258.52"/>
<polygon fill="#63b8ff" stroke="#63b8ff" points="755,-260.79 757.53,-250.51 749.14,-256.97 755,-260.79"/>
</a>
</g>
</g>
<!-- Node14 -->
<g id="Node000014" class="node">
<title>Node14</title>
<g id="a_Node000014"><a xlink:href="../../d2/d67/classnlohmann_1_1detail_1_1out__of__range.html#a238f1bda3b6c92b5970fbf9187ccd325" target="_top" xlink:title=" ">
<polygon fill="white" stroke="#666666" points="822.12,-442.07 715.38,-442.07 715.38,-411.57 822.12,-411.57 822.12,-442.07"/>
<text text-anchor="start" x="723.38" y="-428.57" font-family="Helvetica,sans-Serif" font-size="10.00">nlohmann::detail::out</text>
<text text-anchor="middle" x="768.75" y="-417.32" font-family="Helvetica,sans-Serif" font-size="10.00">_of_range::create</text>
</a>
</g>
</g>
<!-- Node27&#45;&gt;Node14 -->
<g id="edge35_Node000027_Node000014" class="edge">
<title>Node27&#45;&gt;Node14</title>
<g id="a_edge35_Node000027_Node000014"><a xlink:title=" ">
<path fill="none" stroke="#63b8ff" d="M646.11,-428.08C665.2,-427.88 685.72,-427.67 704.37,-427.47"/>
<polygon fill="#63b8ff" stroke="#63b8ff" points="704.15,-430.97 714.11,-427.36 704.08,-423.97 704.15,-430.97"/>
</a>
</g>
</g>
<!-- Node14&#45;&gt;Node3 -->
<g id="edge36_Node000014_Node000003" class="edge">
<title>Node14&#45;&gt;Node3</title>
<g id="a_edge36_Node000014_Node000003"><a xlink:title=" ">
<path fill="none" stroke="#63b8ff" d="M822.56,-440.21C843.49,-445.51 867.91,-451.71 890.46,-457.42"/>
<polygon fill="#63b8ff" stroke="#63b8ff" points="889.45,-461.03 900.01,-460.1 891.17,-454.25 889.45,-461.03"/>
</a>
</g>
</g>
<!-- Node14&#45;&gt;Node4 -->
<g id="edge37_Node000014_Node000004" class="edge">
<title>Node14&#45;&gt;Node4</title>
<g id="a_edge37_Node000014_Node000004"><a xlink:title=" ">
<path fill="none" stroke="#63b8ff" d="M822.56,-426.82C841.87,-426.82 864.16,-426.82 885.2,-426.82"/>
<polygon fill="#63b8ff" stroke="#63b8ff" points="885.07,-430.32 895.07,-426.82 885.07,-423.32 885.07,-430.32"/>
</a>
</g>
</g>
</g>
</svg>

<g id="navigator" transform="translate(0 0)" fill="#404254">
  <rect fill="#f2f5e9" fill-opacity="0.5" stroke="#606060" stroke-width=".5" x="0" y="0" width="60" height="60"/>
  <use id="zoomplus" xlink:href="#zoomPlus" x="17" y="9" onmousedown="handleZoom(evt,'in')"/>
  <use id="zoomminus" xlink:href="#zoomMin" x="42" y="9" onmousedown="handleZoom(evt,'out')"/>
  <use id="reset" xlink:href="#resetDef" x="30" y="36" onmousedown="handleReset()"/>
   <use id="arrowup" xlink:href="#arrowUp" x="0" y="0" onmousedown="handlePan(0,-1)"/>
  <use id="arrowright" xlink:href="#arrowRight" x="0" y="0" onmousedown="handlePan(1,0)"/>
  <use id="arrowdown" xlink:href="#arrowDown" x="0" y="0" onmousedown="handlePan(0,1)"/>
  <use id="arrowleft" xlink:href="#arrowLeft" x="0" y="0" onmousedown="handlePan(-1,0)"/>
</g>
<svg viewBox="0 0 15 15" width="100%" height="30px" preserveAspectRatio="xMaxYMin meet">
 <g id="arrow_out" transform="scale(0.3 0.3)">
  <a xlink:href="classnlohmann_1_1detail_1_1binary__writer_a9ffc566db5219b473762462234b47db9_cgraph_org.svg" target="_base">
   <rect id="button" ry="5" rx="5" y="6" x="6" height="38" width="38"
        fill="#f2f5e9" fill-opacity="0.5" stroke="#606060" stroke-width="1.0"/>
   <path id="arrow"
     d="M 11.500037,31.436501 C 11.940474,20.09759 22.043105,11.32322 32.158766,21.979434 L 37.068811,17.246167 C 37.068811,17.246167 37.088388,32 37.088388,32 L 22.160133,31.978069 C 22.160133,31.978069 26.997745,27.140456 26.997745,27.140456 C 18.528582,18.264221 13.291696,25.230495 11.500037,31.436501 z"
     style="fill:#404040;"/>
  </a>
 </g>
</svg>

<style type='text/css'>
<![CDATA[
[data-mouse-over-selected='false'] { opacity: 0.7; }
[data-mouse-over-selected='true']  { opacity: 1.0; }
]]>
</style>
<script type="application/ecmascript"><![CDATA[
document.addEventListener('DOMContentLoaded', (event) => {
  highlightEdges();
  highlightAdjacentNodes();
});
]]></script>
</svg>
