<?xml version="1.0" encoding="UTF-8" standalone="no"?>
<!DOCTYPE svg PUBLIC "-//W3C//DTD SVG 1.1//EN"
 "http://www.w3.org/Graphics/SVG/1.1/DTD/svg11.dtd">
<!-- Generated by graphviz version 8.1.0 (20230707.0739)
 -->
<!-- Title: nlohmann::detail::binary_writer::to_char_type Pages: 1 -->
<svg width="1185pt" height="856pt"
 viewBox="0.00 0.00 1185.00 855.88" xmlns="http://www.w3.org/2000/svg" xmlns:xlink="http://www.w3.org/1999/xlink">
<g id="graph0" class="graph" transform="scale(1 1) rotate(0) translate(4 851.88)">
<title>nlohmann::detail::binary_writer::to_char_type</title>
<!-- Node1 -->
<g id="Node000001" class="node">
<title>Node1</title>
<g id="a_Node000001"><a xlink:title=" ">
<polygon fill="#999999" stroke="#666666" points="1177,-589.5 1057.5,-589.5 1057.5,-559 1177,-559 1177,-589.5"/>
<text text-anchor="start" x="1065.5" y="-576" font-family="Helvetica,sans-Serif" font-size="10.00">nlohmann::detail::binary</text>
<text text-anchor="middle" x="1117.25" y="-564.75" font-family="Helvetica,sans-Serif" font-size="10.00">_writer::to_char_type</text>
</a>
</g>
</g>
<!-- Node2 -->
<g id="Node000002" class="node">
<title>Node2</title>
<g id="a_Node000002"><a xlink:href="../../d4/d0a/classnlohmann_1_1detail_1_1serializer.html#ab14b8ec1f8102aa4c7e3c349f317654e" target="_top" xlink:title=" ">
<polygon fill="white" stroke="#666666" points="1014.75,-847.88 865.25,-847.88 865.25,-828.62 1014.75,-828.62 1014.75,-847.88"/>
<text text-anchor="middle" x="940" y="-834.38" font-family="Helvetica,sans-Serif" font-size="10.00">nlohmann::detail::serializer::for</text>
</a>
</g>
</g>
<!-- Node1&#45;&gt;Node2 -->
<g id="edge1_Node000001_Node000002" class="edge">
<title>Node1&#45;&gt;Node2</title>
<g id="a_edge1_Node000001_Node000002"><a xlink:title=" ">
<path fill="none" stroke="#63b8ff" d="M1113.96,-600.62C1108.1,-651.05 1088.01,-761.3 1021.5,-819.25 1017.39,-822.83 1012.72,-825.77 1007.76,-828.18"/>
<polygon fill="#63b8ff" stroke="#63b8ff" points="1117.51,-601.28 1115.08,-590.97 1110.55,-600.55 1117.51,-601.28"/>
</a>
</g>
</g>
<!-- Node3 -->
<g id="Node000003" class="node">
<title>Node3</title>
<g id="a_Node000003"><a xlink:href="../../df/d1a/classnlohmann_1_1detail_1_1binary__writer.html#afe5ac43e05973ba09ee79227bb589b59" target="_top" xlink:title=" ">
<polygon fill="white" stroke="#666666" points="1011,-810.5 869,-810.5 869,-780 1011,-780 1011,-810.5"/>
<text text-anchor="start" x="877" y="-797" font-family="Helvetica,sans-Serif" font-size="10.00">nlohmann::detail::binary</text>
<text text-anchor="middle" x="940" y="-785.75" font-family="Helvetica,sans-Serif" font-size="10.00">_writer::get_cbor_float_prefix</text>
</a>
</g>
</g>
<!-- Node1&#45;&gt;Node3 -->
<g id="edge2_Node000001_Node000003" class="edge">
<title>Node1&#45;&gt;Node3</title>
<g id="a_edge2_Node000001_Node000003"><a xlink:title=" ">
<path fill="none" stroke="#63b8ff" d="M1110.12,-600.33C1099.19,-641.27 1072.56,-720.64 1021.5,-766.25 1015.52,-771.59 1008.48,-775.97 1001.09,-779.56"/>
<polygon fill="#63b8ff" stroke="#63b8ff" points="1113.71,-601.42 1112.79,-590.87 1106.93,-599.69 1113.71,-601.42"/>
</a>
</g>
</g>
<!-- Node4 -->
<g id="Node000004" class="node">
<title>Node4</title>
<g id="a_Node000004"><a xlink:href="../../df/d1a/classnlohmann_1_1detail_1_1binary__writer.html#a2b5cb010077da6241a18bb334736464c" target="_top" xlink:title=" ">
<polygon fill="white" stroke="#666666" points="1011,-675.5 869,-675.5 869,-645 1011,-645 1011,-675.5"/>
<text text-anchor="start" x="877" y="-662" font-family="Helvetica,sans-Serif" font-size="10.00">nlohmann::detail::binary</text>
<text text-anchor="middle" x="940" y="-650.75" font-family="Helvetica,sans-Serif" font-size="10.00">_writer::get_cbor_float_prefix</text>
</a>
</g>
</g>
<!-- Node1&#45;&gt;Node4 -->
<g id="edge3_Node000001_Node000004" class="edge">
<title>Node1&#45;&gt;Node4</title>
<g id="a_edge3_Node000001_Node000004"><a xlink:title=" ">
<path fill="none" stroke="#63b8ff" d="M1084.31,-595.61C1066.34,-607.08 1043.2,-620.93 1021.5,-631.25 1011.3,-636.1 1000.07,-640.62 989.3,-644.59"/>
<polygon fill="#63b8ff" stroke="#63b8ff" points="1085.71,-598.23 1092.21,-589.86 1081.91,-592.35 1085.71,-598.23"/>
</a>
</g>
</g>
<!-- Node6 -->
<g id="Node000006" class="node">
<title>Node6</title>
<g id="a_Node000006"><a xlink:href="../../df/d1a/classnlohmann_1_1detail_1_1binary__writer.html#aa0ab8d27fd88a33a2f801413ac4c7fbc" target="_top" xlink:title=" ">
<polygon fill="white" stroke="#666666" points="634.38,-728.5 514.88,-728.5 514.88,-698 634.38,-698 634.38,-728.5"/>
<text text-anchor="start" x="522.88" y="-715" font-family="Helvetica,sans-Serif" font-size="10.00">nlohmann::detail::binary</text>
<text text-anchor="middle" x="574.62" y="-703.75" font-family="Helvetica,sans-Serif" font-size="10.00">_writer::write_cbor</text>
</a>
</g>
</g>
<!-- Node1&#45;&gt;Node6 -->
<g id="edge44_Node000001_Node000006" class="edge">
<title>Node1&#45;&gt;Node6</title>
<g id="a_edge44_Node000001_Node000006"><a xlink:title=" ">
<path fill="none" stroke="#63b8ff" d="M1109.43,-600.48C1098.17,-637.76 1071.76,-704.69 1021.5,-733.25 957.16,-769.81 740.63,-740.68 634.82,-723.53"/>
<polygon fill="#63b8ff" stroke="#63b8ff" points="1113.06,-601.52 1112.45,-590.94 1106.33,-599.59 1113.06,-601.52"/>
</a>
</g>
</g>
<!-- Node9 -->
<g id="Node000009" class="node">
<title>Node9</title>
<g id="a_Node000009"><a xlink:href="../../df/d1a/classnlohmann_1_1detail_1_1binary__writer.html#ae4e0852b64102ce4b07d99f08f828b7c" target="_top" xlink:title=" ">
<polygon fill="white" stroke="#666666" points="634.38,-649.5 514.88,-649.5 514.88,-619 634.38,-619 634.38,-649.5"/>
<text text-anchor="start" x="522.88" y="-636" font-family="Helvetica,sans-Serif" font-size="10.00">nlohmann::detail::binary</text>
<text text-anchor="middle" x="574.62" y="-624.75" font-family="Helvetica,sans-Serif" font-size="10.00">_writer::write_msgpack</text>
</a>
</g>
</g>
<!-- Node1&#45;&gt;Node9 -->
<g id="edge45_Node000001_Node000009" class="edge">
<title>Node1&#45;&gt;Node9</title>
<g id="a_edge45_Node000001_Node000009"><a xlink:title=" ">
<path fill="none" stroke="#63b8ff" d="M1050.07,-592.51C1040.54,-594.7 1030.8,-596.71 1021.5,-598.25 884.17,-621.02 720.55,-629.55 634.79,-632.62"/>
<polygon fill="#63b8ff" stroke="#63b8ff" points="1050.8,-595.7 1059.71,-589.97 1049.18,-588.89 1050.8,-595.7"/>
</a>
</g>
</g>
<!-- Node12 -->
<g id="Node000012" class="node">
<title>Node12</title>
<g id="a_Node000012"><a xlink:href="../../df/d1a/classnlohmann_1_1detail_1_1binary__writer.html#a47234a6e7ac9206d43553985f4cacbf2" target="_top" xlink:title=" ">
<polygon fill="white" stroke="#666666" points="1021.5,-589.5 858.5,-589.5 858.5,-559 1021.5,-559 1021.5,-589.5"/>
<text text-anchor="start" x="866.5" y="-576" font-family="Helvetica,sans-Serif" font-size="10.00">nlohmann::detail::binary</text>
<text text-anchor="middle" x="940" y="-564.75" font-family="Helvetica,sans-Serif" font-size="10.00">_writer::get_msgpack_float_prefix</text>
</a>
</g>
</g>
<!-- Node1&#45;&gt;Node12 -->
<g id="edge13_Node000001_Node000012" class="edge">
<title>Node1&#45;&gt;Node12</title>
<g id="a_edge13_Node000001_Node000012"><a xlink:title=" ">
<path fill="none" stroke="#63b8ff" d="M1046.5,-574.25C1038.38,-574.25 1030.05,-574.25 1021.8,-574.25"/>
<polygon fill="#63b8ff" stroke="#63b8ff" points="1046.41,-577.75 1056.41,-574.25 1046.41,-570.75 1046.41,-577.75"/>
</a>
</g>
</g>
<!-- Node13 -->
<g id="Node000013" class="node">
<title>Node13</title>
<g id="a_Node000013"><a xlink:href="../../df/d1a/classnlohmann_1_1detail_1_1binary__writer.html#ad452d114696407b98abc69b6001c270e" target="_top" xlink:title=" ">
<polygon fill="white" stroke="#666666" points="1021.5,-724.5 858.5,-724.5 858.5,-694 1021.5,-694 1021.5,-724.5"/>
<text text-anchor="start" x="866.5" y="-711" font-family="Helvetica,sans-Serif" font-size="10.00">nlohmann::detail::binary</text>
<text text-anchor="middle" x="940" y="-699.75" font-family="Helvetica,sans-Serif" font-size="10.00">_writer::get_msgpack_float_prefix</text>
</a>
</g>
</g>
<!-- Node1&#45;&gt;Node13 -->
<g id="edge14_Node000001_Node000013" class="edge">
<title>Node1&#45;&gt;Node13</title>
<g id="a_edge14_Node000001_Node000013"><a xlink:title=" ">
<path fill="none" stroke="#63b8ff" d="M1100.98,-599C1084.36,-623.97 1055.55,-661.92 1021.5,-684.25 1015.99,-687.86 1009.93,-690.98 1003.69,-693.66"/>
<polygon fill="#63b8ff" stroke="#63b8ff" points="1104.44,-601.11 1106.94,-590.81 1098.56,-597.3 1104.44,-601.11"/>
</a>
</g>
</g>
<!-- Node14 -->
<g id="Node000014" class="node">
<title>Node14</title>
<g id="a_Node000014"><a xlink:href="../../df/d1a/classnlohmann_1_1detail_1_1binary__writer.html#a025212bd170253638b9f05b3b6aa5bf9" target="_top" xlink:title="Writes a BSON element with key name and array value.">
<polygon fill="white" stroke="#666666" points="813.88,-165.5 688.38,-165.5 688.38,-135 813.88,-135 813.88,-165.5"/>
<text text-anchor="start" x="696.38" y="-152" font-family="Helvetica,sans-Serif" font-size="10.00">nlohmann::detail::binary</text>
<text text-anchor="middle" x="751.12" y="-140.75" font-family="Helvetica,sans-Serif" font-size="10.00">_writer::write_bson_array</text>
</a>
</g>
</g>
<!-- Node1&#45;&gt;Node14 -->
<g id="edge16_Node000001_Node000014" class="edge">
<title>Node1&#45;&gt;Node14</title>
<g id="a_edge16_Node000001_Node000014"><a xlink:title=" ">
<path fill="none" stroke="#63b8ff" d="M1114.29,-547.88C1109,-496.36 1089.79,-382.16 1021.5,-322.25 965.58,-273.19 913.41,-334.43 858.5,-284.25 820.84,-249.83 858.17,-211.73 822.5,-175.25 818.96,-171.63 814.87,-168.54 810.48,-165.89"/>
<polygon fill="#63b8ff" stroke="#63b8ff" points="1110.89,-548.08 1115.29,-557.72 1117.86,-547.44 1110.89,-548.08"/>
</a>
</g>
</g>
<!-- Node16 -->
<g id="Node000016" class="node">
<title>Node16</title>
<g id="a_Node000016"><a xlink:href="../../df/d1a/classnlohmann_1_1detail_1_1binary__writer.html#a29b3e0f83a8e5f2307804023109ba2c9" target="_top" xlink:title=" ">
<polygon fill="white" stroke="#666666" points="469.5,-335.5 339.5,-335.5 339.5,-305 469.5,-305 469.5,-335.5"/>
<text text-anchor="start" x="347.5" y="-322" font-family="Helvetica,sans-Serif" font-size="10.00">nlohmann::detail::binary</text>
<text text-anchor="middle" x="404.5" y="-310.75" font-family="Helvetica,sans-Serif" font-size="10.00">_writer::write_bson_object</text>
</a>
</g>
</g>
<!-- Node1&#45;&gt;Node16 -->
<g id="edge43_Node000001_Node000016" class="edge">
<title>Node1&#45;&gt;Node16</title>
<g id="a_edge43_Node000001_Node000016"><a xlink:title=" ">
<path fill="none" stroke="#63b8ff" d="M1049.67,-556.04C1040.26,-553.86 1030.67,-551.84 1021.5,-550.25 871.16,-524.11 822.59,-570.95 679.75,-517.25 567.53,-475.06 459.59,-374.57 420.71,-335.84"/>
<polygon fill="#63b8ff" stroke="#63b8ff" points="1048.65,-559.63 1059.19,-558.55 1050.28,-552.82 1048.65,-559.63"/>
</a>
</g>
</g>
<!-- Node21 -->
<g id="Node000021" class="node">
<title>Node21</title>
<g id="a_Node000021"><a xlink:href="../../df/d1a/classnlohmann_1_1detail_1_1binary__writer.html#ae099435e1df3096e0fc78333282f8f67" target="_top" xlink:title="Writes a BSON element with key name and boolean value value.">
<polygon fill="white" stroke="#666666" points="819.88,-508.5 682.38,-508.5 682.38,-478 819.88,-478 819.88,-508.5"/>
<text text-anchor="start" x="690.38" y="-495" font-family="Helvetica,sans-Serif" font-size="10.00">nlohmann::detail::binary</text>
<text text-anchor="middle" x="751.12" y="-483.75" font-family="Helvetica,sans-Serif" font-size="10.00">_writer::write_bson_boolean</text>
</a>
</g>
</g>
<!-- Node1&#45;&gt;Node21 -->
<g id="edge25_Node000001_Node000021" class="edge">
<title>Node1&#45;&gt;Node21</title>
<g id="a_edge25_Node000001_Node000021"><a xlink:title=" ">
<path fill="none" stroke="#63b8ff" d="M1087.7,-552.37C1069.71,-539.82 1045.43,-525.05 1021.5,-517.25 955.44,-495.71 875.73,-491.05 820.23,-490.96"/>
<polygon fill="#63b8ff" stroke="#63b8ff" points="1085.33,-555.69 1095.5,-558.68 1089.41,-550.01 1085.33,-555.69"/>
</a>
</g>
</g>
<!-- Node22 -->
<g id="Node000022" class="node">
<title>Node22</title>
<g id="a_Node000022"><a xlink:href="../../df/d1a/classnlohmann_1_1detail_1_1binary__writer.html#a1b5b7f5c03b1f8b1f59ea61db9634108" target="_top" xlink:title="Writes the given element_type and name to the output adapter.">
<polygon fill="white" stroke="#666666" points="1020,-361.5 860,-361.5 860,-331 1020,-331 1020,-361.5"/>
<text text-anchor="start" x="868" y="-348" font-family="Helvetica,sans-Serif" font-size="10.00">nlohmann::detail::binary</text>
<text text-anchor="middle" x="940" y="-336.75" font-family="Helvetica,sans-Serif" font-size="10.00">_writer::write_bson_entry_header</text>
</a>
</g>
</g>
<!-- Node1&#45;&gt;Node22 -->
<g id="edge27_Node000001_Node000022" class="edge">
<title>Node1&#45;&gt;Node22</title>
<g id="a_edge27_Node000001_Node000022"><a xlink:title=" ">
<path fill="none" stroke="#63b8ff" d="M1097.57,-549.94C1061.42,-502.91 982.83,-400.67 952.9,-361.73"/>
<polygon fill="#63b8ff" stroke="#63b8ff" points="1095.34,-551.78 1104.2,-557.58 1100.89,-547.52 1095.34,-551.78"/>
</a>
</g>
</g>
<!-- Node29 -->
<g id="Node000029" class="node">
<title>Node29</title>
<g id="a_Node000029"><a xlink:href="../../df/d1a/classnlohmann_1_1detail_1_1binary__writer.html#a0ea6745f944c0c61672146886b4ee90f" target="_top" xlink:title=" ">
<polygon fill="white" stroke="#666666" points="1006.5,-275.12 873.5,-275.12 873.5,-233.38 1006.5,-233.38 1006.5,-275.12"/>
<text text-anchor="start" x="881.5" y="-261.62" font-family="Helvetica,sans-Serif" font-size="10.00">nlohmann::detail::binary</text>
<text text-anchor="start" x="881.5" y="-250.38" font-family="Helvetica,sans-Serif" font-size="10.00">_writer::write_number_with</text>
<text text-anchor="middle" x="940" y="-239.12" font-family="Helvetica,sans-Serif" font-size="10.00">_ubjson_prefix</text>
</a>
</g>
</g>
<!-- Node1&#45;&gt;Node29 -->
<g id="edge46_Node000001_Node000029" class="edge">
<title>Node1&#45;&gt;Node29</title>
<g id="a_edge46_Node000001_Node000029"><a xlink:title=" ">
<path fill="none" stroke="#63b8ff" d="M1114.52,-547.93C1109.57,-493.01 1090.84,-365.06 1021.5,-289.25 1016.67,-283.96 1010.89,-279.44 1004.69,-275.58"/>
<polygon fill="#63b8ff" stroke="#63b8ff" points="1111.11,-548.1 1115.4,-557.79 1118.08,-547.54 1111.11,-548.1"/>
</a>
</g>
</g>
<!-- Node30 -->
<g id="Node000030" class="node">
<title>Node30</title>
<g id="a_Node000030"><a xlink:href="../../df/d1a/classnlohmann_1_1detail_1_1binary__writer.html#a0f6c65053d859269f88eb4ebb0cd7060" target="_top" xlink:title=" ">
<polygon fill="white" stroke="#666666" points="999.75,-79.5 880.25,-79.5 880.25,-49 999.75,-49 999.75,-79.5"/>
<text text-anchor="start" x="888.25" y="-66" font-family="Helvetica,sans-Serif" font-size="10.00">nlohmann::detail::binary</text>
<text text-anchor="middle" x="940" y="-54.75" font-family="Helvetica,sans-Serif" font-size="10.00">_writer::write_ubjson</text>
</a>
</g>
</g>
<!-- Node1&#45;&gt;Node30 -->
<g id="edge47_Node000001_Node000030" class="edge">
<title>Node1&#45;&gt;Node30</title>
<g id="a_edge47_Node000001_Node000030"><a xlink:title=" ">
<path fill="none" stroke="#63b8ff" d="M1111.03,-547.94C1098.9,-488.86 1066.4,-341.66 1021.5,-224.25 1000.4,-169.07 966.28,-107.66 950.08,-79.67"/>
<polygon fill="#63b8ff" stroke="#63b8ff" points="1107.76,-548.44 1113.18,-557.54 1114.62,-547.05 1107.76,-548.44"/>
</a>
</g>
</g>
<!-- Node5 -->
<g id="Node000005" class="node">
<title>Node5</title>
<g id="a_Node000005"><a xlink:href="../../df/d1a/classnlohmann_1_1detail_1_1binary__writer.html#ae69dc3c5b2e8c1c8e461779cddb87436" target="_top" xlink:title=" ">
<polygon fill="white" stroke="#666666" points="820.62,-707.5 681.62,-707.5 681.62,-677 820.62,-677 820.62,-707.5"/>
<text text-anchor="start" x="689.62" y="-694" font-family="Helvetica,sans-Serif" font-size="10.00">nlohmann::detail::binary</text>
<text text-anchor="middle" x="751.12" y="-682.75" font-family="Helvetica,sans-Serif" font-size="10.00">_writer::write_compact_float</text>
</a>
</g>
</g>
<!-- Node4&#45;&gt;Node5 -->
<g id="edge4_Node000004_Node000005" class="edge">
<title>Node4&#45;&gt;Node5</title>
<g id="a_edge4_Node000004_Node000005"><a xlink:title=" ">
<path fill="none" stroke="#63b8ff" d="M857.88,-674.14C845.55,-676.25 832.93,-678.41 820.9,-680.47"/>
<polygon fill="#63b8ff" stroke="#63b8ff" points="858.35,-677.44 867.62,-672.3 857.17,-670.54 858.35,-677.44"/>
</a>
</g>
</g>
<!-- Node5&#45;&gt;Node6 -->
<g id="edge5_Node000005_Node000006" class="edge">
<title>Node5&#45;&gt;Node6</title>
<g id="a_edge5_Node000005_Node000006"><a xlink:title=" ">
<path fill="none" stroke="#63b8ff" d="M670.27,-701.86C658.33,-703.3 646.2,-704.76 634.79,-706.13"/>
<polygon fill="#63b8ff" stroke="#63b8ff" points="670.65,-705.22 680.16,-700.55 669.81,-698.27 670.65,-705.22"/>
</a>
</g>
</g>
<!-- Node5&#45;&gt;Node9 -->
<g id="edge9_Node000005_Node000009" class="edge">
<title>Node5&#45;&gt;Node9</title>
<g id="a_edge9_Node000005_Node000009"><a xlink:title=" ">
<path fill="none" stroke="#63b8ff" d="M692.74,-673.18C670.11,-665.65 644.42,-657.12 622.88,-649.96"/>
<polygon fill="#63b8ff" stroke="#63b8ff" points="691.31,-676.72 701.9,-676.55 693.52,-670.08 691.31,-676.72"/>
</a>
</g>
</g>
<!-- Node6&#45;&gt;Node6 -->
<g id="edge8_Node000006_Node000006" class="edge">
<title>Node6&#45;&gt;Node6</title>
<g id="a_edge8_Node000006_Node000006"><a xlink:title=" ">
<path fill="none" stroke="#63b8ff" d="M603.54,-739.88C599.03,-743.83 589.39,-746.5 574.62,-746.5 548.38,-746.5 538.33,-738.06 544.48,-728.99"/>
<polygon fill="#63b8ff" stroke="#63b8ff" points="607.13,-740.32 604.77,-729.99 600.17,-739.53 607.13,-740.32"/>
</a>
</g>
</g>
<!-- Node7 -->
<g id="Node000007" class="node">
<title>Node7</title>
<g id="a_Node000007"><a xlink:href="../../d9/dcc/classnlohmann_1_1basic__json.html#a5689672954fd3bc38f2f17e5607064c6" target="_top" xlink:title=" ">
<polygon fill="white" stroke="#666666" points="459.75,-718.5 349.25,-718.5 349.25,-688 459.75,-688 459.75,-718.5"/>
<text text-anchor="start" x="357.25" y="-705" font-family="Helvetica,sans-Serif" font-size="10.00">nlohmann::basic_json</text>
<text text-anchor="middle" x="404.5" y="-693.75" font-family="Helvetica,sans-Serif" font-size="10.00">::to_cbor</text>
</a>
</g>
</g>
<!-- Node6&#45;&gt;Node7 -->
<g id="edge6_Node000006_Node000007" class="edge">
<title>Node6&#45;&gt;Node7</title>
<g id="a_edge6_Node000006_Node000007"><a xlink:title=" ">
<path fill="none" stroke="#63b8ff" d="M504.23,-709.12C489.49,-708.25 474.13,-707.33 460.04,-706.49"/>
<polygon fill="#63b8ff" stroke="#63b8ff" points="503.63,-712.65 513.82,-709.75 504.05,-705.66 503.63,-712.65"/>
</a>
</g>
</g>
<!-- Node8 -->
<g id="Node000008" class="node">
<title>Node8</title>
<g id="a_Node000008"><a xlink:href="../../d9/dcc/classnlohmann_1_1basic__json.html#ac59dfbee523c5340e41548764a8d26be" target="_top" xlink:title=" ">
<polygon fill="white" stroke="#666666" points="459.75,-767.5 349.25,-767.5 349.25,-737 459.75,-737 459.75,-767.5"/>
<text text-anchor="start" x="357.25" y="-754" font-family="Helvetica,sans-Serif" font-size="10.00">nlohmann::basic_json</text>
<text text-anchor="middle" x="404.5" y="-742.75" font-family="Helvetica,sans-Serif" font-size="10.00">::to_cbor</text>
</a>
</g>
</g>
<!-- Node6&#45;&gt;Node8 -->
<g id="edge7_Node000006_Node000008" class="edge">
<title>Node6&#45;&gt;Node8</title>
<g id="a_edge7_Node000006_Node000008"><a xlink:title=" ">
<path fill="none" stroke="#63b8ff" d="M504.23,-729.35C489.49,-732.77 474.13,-736.33 460.04,-739.6"/>
<polygon fill="#63b8ff" stroke="#63b8ff" points="504.87,-732.56 513.82,-726.89 503.29,-725.74 504.87,-732.56"/>
</a>
</g>
</g>
<!-- Node9&#45;&gt;Node9 -->
<g id="edge12_Node000009_Node000009" class="edge">
<title>Node9&#45;&gt;Node9</title>
<g id="a_edge12_Node000009_Node000009"><a xlink:title=" ">
<path fill="none" stroke="#63b8ff" d="M603.54,-660.88C599.03,-664.83 589.39,-667.5 574.62,-667.5 548.38,-667.5 538.33,-659.06 544.48,-649.99"/>
<polygon fill="#63b8ff" stroke="#63b8ff" points="607.13,-661.32 604.77,-650.99 600.17,-660.53 607.13,-661.32"/>
</a>
</g>
</g>
<!-- Node10 -->
<g id="Node000010" class="node">
<title>Node10</title>
<g id="a_Node000010"><a xlink:href="../../d9/dcc/classnlohmann_1_1basic__json.html#aca5dc0fca52131f3a634372120abfbe7" target="_top" xlink:title=" ">
<polygon fill="white" stroke="#666666" points="459.75,-611.5 349.25,-611.5 349.25,-581 459.75,-581 459.75,-611.5"/>
<text text-anchor="start" x="357.25" y="-598" font-family="Helvetica,sans-Serif" font-size="10.00">nlohmann::basic_json</text>
<text text-anchor="middle" x="404.5" y="-586.75" font-family="Helvetica,sans-Serif" font-size="10.00">::to_msgpack</text>
</a>
</g>
</g>
<!-- Node9&#45;&gt;Node10 -->
<g id="edge10_Node000009_Node000010" class="edge">
<title>Node9&#45;&gt;Node10</title>
<g id="a_edge10_Node000009_Node000010"><a xlink:title=" ">
<path fill="none" stroke="#63b8ff" d="M504.23,-618.56C489.49,-615.23 474.13,-611.76 460.04,-608.58"/>
<polygon fill="#63b8ff" stroke="#63b8ff" points="503.3,-622.17 513.82,-620.96 504.84,-615.34 503.3,-622.17"/>
</a>
</g>
</g>
<!-- Node11 -->
<g id="Node000011" class="node">
<title>Node11</title>
<g id="a_Node000011"><a xlink:href="../../d9/dcc/classnlohmann_1_1basic__json.html#af57f7877fbef9881289fe2c8b31e37e1" target="_top" xlink:title=" ">
<polygon fill="white" stroke="#666666" points="459.75,-660.5 349.25,-660.5 349.25,-630 459.75,-630 459.75,-660.5"/>
<text text-anchor="start" x="357.25" y="-647" font-family="Helvetica,sans-Serif" font-size="10.00">nlohmann::basic_json</text>
<text text-anchor="middle" x="404.5" y="-635.75" font-family="Helvetica,sans-Serif" font-size="10.00">::to_msgpack</text>
</a>
</g>
</g>
<!-- Node9&#45;&gt;Node11 -->
<g id="edge11_Node000009_Node000011" class="edge">
<title>Node9&#45;&gt;Node11</title>
<g id="a_edge11_Node000009_Node000011"><a xlink:title=" ">
<path fill="none" stroke="#63b8ff" d="M504.23,-638.79C489.49,-639.75 474.13,-640.76 460.04,-641.68"/>
<polygon fill="#63b8ff" stroke="#63b8ff" points="504.07,-642.24 513.82,-638.1 503.62,-635.26 504.07,-642.24"/>
</a>
</g>
</g>
<!-- Node13&#45;&gt;Node5 -->
<g id="edge15_Node000013_Node000005" class="edge">
<title>Node13&#45;&gt;Node5</title>
<g id="a_edge15_Node000013_Node000005"><a xlink:title=" ">
<path fill="none" stroke="#63b8ff" d="M847.37,-700.91C838.54,-700.11 829.68,-699.31 821.12,-698.53"/>
<polygon fill="#63b8ff" stroke="#63b8ff" points="846.84,-704.47 857.12,-701.89 847.48,-697.5 846.84,-704.47"/>
</a>
</g>
</g>
<!-- Node15 -->
<g id="Node000015" class="node">
<title>Node15</title>
<g id="a_Node000015"><a xlink:href="../../df/d1a/classnlohmann_1_1detail_1_1binary__writer.html#a7ff58bf1a80018148bed860667ffca07" target="_top" xlink:title="Serializes the JSON value j to BSON and associates it with the key name.">
<polygon fill="white" stroke="#666666" points="643.75,-312.5 505.5,-312.5 505.5,-282 643.75,-282 643.75,-312.5"/>
<text text-anchor="start" x="513.5" y="-299" font-family="Helvetica,sans-Serif" font-size="10.00">nlohmann::detail::binary</text>
<text text-anchor="middle" x="574.62" y="-287.75" font-family="Helvetica,sans-Serif" font-size="10.00">_writer::write_bson_element</text>
</a>
</g>
</g>
<!-- Node14&#45;&gt;Node15 -->
<g id="edge17_Node000014_Node000015" class="edge">
<title>Node14&#45;&gt;Node15</title>
<g id="a_edge17_Node000014_Node000015"><a xlink:title=" ">
<path fill="none" stroke="#63b8ff" d="M679.44,-167.27C630.06,-203.74 595.71,-255.48 582.02,-281.7"/>
<polygon fill="#63b8ff" stroke="#63b8ff" points="681.01,-169.73 687.15,-161.1 676.97,-164.02 681.01,-169.73"/>
</a>
</g>
</g>
<!-- Node15&#45;&gt;Node14 -->
<g id="edge18_Node000015_Node000014" class="edge">
<title>Node15&#45;&gt;Node14</title>
<g id="a_edge18_Node000015_Node000014"><a xlink:title=" ">
<path fill="none" stroke="#63b8ff" d="M595.52,-272.8C614.24,-247.36 644.61,-208.43 679.75,-184.25 691.39,-176.24 705.88,-170.52 718.68,-165.89"/>
<polygon fill="#63b8ff" stroke="#63b8ff" points="592.23,-270.37 589.16,-280.51 597.88,-274.49 592.23,-270.37"/>
</a>
</g>
</g>
<!-- Node15&#45;&gt;Node16 -->
<g id="edge19_Node000015_Node000016" class="edge">
<title>Node15&#45;&gt;Node16</title>
<g id="a_edge19_Node000015_Node000016"><a xlink:title=" ">
<path fill="none" stroke="#63b8ff" d="M494.43,-308.08C486.16,-309.22 477.83,-310.36 469.75,-311.46"/>
<polygon fill="#63b8ff" stroke="#63b8ff" points="494.81,-311.43 504.24,-306.6 493.86,-304.49 494.81,-311.43"/>
</a>
</g>
</g>
<!-- Node17 -->
<g id="Node000017" class="node">
<title>Node17</title>
<g id="a_Node000017"><a xlink:href="../../df/d1a/classnlohmann_1_1detail_1_1binary__writer.html#a9ffc566db5219b473762462234b47db9" target="_top" xlink:title=" ">
<polygon fill="white" stroke="#666666" points="284.75,-336.5 165.25,-336.5 165.25,-306 284.75,-306 284.75,-336.5"/>
<text text-anchor="start" x="173.25" y="-323" font-family="Helvetica,sans-Serif" font-size="10.00">nlohmann::detail::binary</text>
<text text-anchor="middle" x="225" y="-311.75" font-family="Helvetica,sans-Serif" font-size="10.00">_writer::write_bson</text>
</a>
</g>
</g>
<!-- Node16&#45;&gt;Node17 -->
<g id="edge20_Node000016_Node000017" class="edge">
<title>Node16&#45;&gt;Node17</title>
<g id="a_edge20_Node000016_Node000017"><a xlink:title=" ">
<path fill="none" stroke="#63b8ff" d="M328.26,-320.67C313.84,-320.76 298.92,-320.84 285.1,-320.92"/>
<polygon fill="#63b8ff" stroke="#63b8ff" points="328.19,-324.17 338.17,-320.61 328.15,-317.17 328.19,-324.17"/>
</a>
</g>
</g>
<!-- Node20 -->
<g id="Node000020" class="node">
<title>Node20</title>
<g id="a_Node000020"><a xlink:href="../../df/d1a/classnlohmann_1_1detail_1_1binary__writer.html#a6231302930265eccb3f56c378f7b0661" target="_top" xlink:title="Writes a BSON element with key name and object value.">
<polygon fill="white" stroke="#666666" points="303.5,-287.5 146.5,-287.5 146.5,-257 303.5,-257 303.5,-287.5"/>
<text text-anchor="start" x="154.5" y="-274" font-family="Helvetica,sans-Serif" font-size="10.00">nlohmann::detail::binary</text>
<text text-anchor="middle" x="225" y="-262.75" font-family="Helvetica,sans-Serif" font-size="10.00">_writer::write_bson_object_entry</text>
</a>
</g>
</g>
<!-- Node16&#45;&gt;Node20 -->
<g id="edge23_Node000016_Node000020" class="edge">
<title>Node16&#45;&gt;Node20</title>
<g id="a_edge23_Node000016_Node000020"><a xlink:title=" ">
<path fill="none" stroke="#63b8ff" d="M335.03,-301.74C318.16,-297.17 300.26,-292.33 283.95,-287.92"/>
<polygon fill="#63b8ff" stroke="#63b8ff" points="333.81,-305.3 344.38,-304.53 335.64,-298.54 333.81,-305.3"/>
</a>
</g>
</g>
<!-- Node18 -->
<g id="Node000018" class="node">
<title>Node18</title>
<g id="a_Node000018"><a xlink:href="../../d9/dcc/classnlohmann_1_1basic__json.html#a9ebed178fb7dad1a574bcb7c361fb1b8" target="_top" xlink:title="Serializes the given JSON object j to BSON and forwards the corresponding BSON&#45;representation to the ...">
<polygon fill="white" stroke="#666666" points="110.5,-360.5 0,-360.5 0,-330 110.5,-330 110.5,-360.5"/>
<text text-anchor="start" x="8" y="-347" font-family="Helvetica,sans-Serif" font-size="10.00">nlohmann::basic_json</text>
<text text-anchor="middle" x="55.25" y="-335.75" font-family="Helvetica,sans-Serif" font-size="10.00">::to_bson</text>
</a>
</g>
</g>
<!-- Node17&#45;&gt;Node18 -->
<g id="edge21_Node000017_Node000018" class="edge">
<title>Node17&#45;&gt;Node18</title>
<g id="a_edge21_Node000017_Node000018"><a xlink:title=" ">
<path fill="none" stroke="#63b8ff" d="M154,-331.27C139.62,-333.32 124.68,-335.46 110.93,-337.43"/>
<polygon fill="#63b8ff" stroke="#63b8ff" points="154.45,-334.59 163.86,-329.71 153.46,-327.66 154.45,-334.59"/>
</a>
</g>
</g>
<!-- Node19 -->
<g id="Node000019" class="node">
<title>Node19</title>
<g id="a_Node000019"><a xlink:href="../../d9/dcc/classnlohmann_1_1basic__json.html#a4a9babd6635e3f7d4af3dec0635073c5" target="_top" xlink:title="Serializes the given JSON object j to BSON and forwards the corresponding BSON&#45;representation to the ...">
<polygon fill="white" stroke="#666666" points="110.5,-311.5 0,-311.5 0,-281 110.5,-281 110.5,-311.5"/>
<text text-anchor="start" x="8" y="-298" font-family="Helvetica,sans-Serif" font-size="10.00">nlohmann::basic_json</text>
<text text-anchor="middle" x="55.25" y="-286.75" font-family="Helvetica,sans-Serif" font-size="10.00">::to_bson</text>
</a>
</g>
</g>
<!-- Node17&#45;&gt;Node19 -->
<g id="edge22_Node000017_Node000019" class="edge">
<title>Node17&#45;&gt;Node19</title>
<g id="a_edge22_Node000017_Node000019"><a xlink:title=" ">
<path fill="none" stroke="#63b8ff" d="M154,-310.82C139.62,-308.67 124.68,-306.45 110.93,-304.4"/>
<polygon fill="#63b8ff" stroke="#63b8ff" points="153.45,-314.42 163.86,-312.44 154.48,-307.5 153.45,-314.42"/>
</a>
</g>
</g>
<!-- Node20&#45;&gt;Node15 -->
<g id="edge24_Node000020_Node000015" class="edge">
<title>Node20&#45;&gt;Node15</title>
<g id="a_edge24_Node000020_Node000015"><a xlink:title=" ">
<path fill="none" stroke="#63b8ff" d="M314.67,-278.63C373.97,-282.89 450.82,-288.42 505.36,-292.34"/>
<polygon fill="#63b8ff" stroke="#63b8ff" points="315.04,-275.07 304.81,-277.85 314.53,-282.05 315.04,-275.07"/>
</a>
</g>
</g>
<!-- Node21&#45;&gt;Node15 -->
<g id="edge26_Node000021_Node000015" class="edge">
<title>Node21&#45;&gt;Node15</title>
<g id="a_edge26_Node000021_Node000015"><a xlink:title=" ">
<path fill="none" stroke="#63b8ff" d="M684.95,-472.09C683.15,-470.88 681.41,-469.6 679.75,-468.25 626.35,-424.84 593.26,-346.29 581.01,-312.92"/>
<polygon fill="#63b8ff" stroke="#63b8ff" points="682.98,-475.58 693.38,-477.62 686.52,-469.54 682.98,-475.58"/>
</a>
</g>
</g>
<!-- Node22&#45;&gt;Node14 -->
<g id="edge28_Node000022_Node000014" class="edge">
<title>Node22&#45;&gt;Node14</title>
<g id="a_edge28_Node000022_Node000014"><a xlink:title=" ">
<path fill="none" stroke="#63b8ff" d="M866.84,-324.82C863.83,-322.54 861.02,-320.03 858.5,-317.25 814.76,-269.02 866.35,-223.38 822.5,-175.25 819.18,-171.61 815.3,-168.5 811.09,-165.84"/>
<polygon fill="#63b8ff" stroke="#63b8ff" points="864.51,-328.12 874.81,-330.61 868.31,-322.24 864.51,-328.12"/>
</a>
</g>
</g>
<!-- Node22&#45;&gt;Node20 -->
<g id="edge38_Node000022_Node000020" class="edge">
<title>Node22&#45;&gt;Node20</title>
<g id="a_edge38_Node000022_Node000020"><a xlink:title=" ">
<path fill="none" stroke="#63b8ff" d="M900.66,-324.8C885.39,-314.43 868.99,-300.65 858.5,-284.25 819.68,-223.59 878.8,-171.17 822.5,-126.25 733.01,-54.86 373.9,-205.98 260.5,-256.54"/>
<polygon fill="#63b8ff" stroke="#63b8ff" points="898.18,-328.01 908.47,-330.51 901.98,-322.13 898.18,-328.01"/>
</a>
</g>
</g>
<!-- Node22&#45;&gt;Node21 -->
<g id="edge31_Node000022_Node000021" class="edge">
<title>Node22&#45;&gt;Node21</title>
<g id="a_edge31_Node000022_Node000021"><a xlink:title=" ">
<path fill="none" stroke="#63b8ff" d="M921.47,-370.54C900.67,-397.78 863.57,-441.64 822.5,-468.25 817.06,-471.78 811.06,-474.88 804.93,-477.59"/>
<polygon fill="#63b8ff" stroke="#63b8ff" points="924.69,-373.08 927.89,-362.98 919.09,-368.88 924.69,-373.08"/>
</a>
</g>
</g>
<!-- Node23 -->
<g id="Node000023" class="node">
<title>Node23</title>
<g id="a_Node000023"><a xlink:href="../../df/d1a/classnlohmann_1_1detail_1_1binary__writer.html#a97d34d9a70ddc06ae782c55454df42bc" target="_top" xlink:title="Writes a BSON element with key name and binary value value.">
<polygon fill="white" stroke="#666666" points="816.12,-459.5 686.12,-459.5 686.12,-429 816.12,-429 816.12,-459.5"/>
<text text-anchor="start" x="694.12" y="-446" font-family="Helvetica,sans-Serif" font-size="10.00">nlohmann::detail::binary</text>
<text text-anchor="middle" x="751.12" y="-434.75" font-family="Helvetica,sans-Serif" font-size="10.00">_writer::write_bson_binary</text>
</a>
</g>
</g>
<!-- Node22&#45;&gt;Node23 -->
<g id="edge29_Node000022_Node000023" class="edge">
<title>Node22&#45;&gt;Node23</title>
<g id="a_edge29_Node000022_Node000023"><a xlink:title=" ">
<path fill="none" stroke="#63b8ff" d="M908.6,-367.88C885.69,-383.53 853.09,-404.45 822.5,-419.25 815.61,-422.58 808.16,-425.7 800.77,-428.54"/>
<polygon fill="#63b8ff" stroke="#63b8ff" points="910.25,-370.3 916.49,-361.74 906.28,-364.54 910.25,-370.3"/>
</a>
</g>
</g>
<!-- Node24 -->
<g id="Node000024" class="node">
<title>Node24</title>
<g id="a_Node000024"><a xlink:href="../../df/d1a/classnlohmann_1_1detail_1_1binary__writer.html#a263ec18815467bb9919021ef126919ca" target="_top" xlink:title="Writes a BSON element with key name and double value value.">
<polygon fill="white" stroke="#666666" points="817.25,-410.5 685,-410.5 685,-380 817.25,-380 817.25,-410.5"/>
<text text-anchor="start" x="693" y="-397" font-family="Helvetica,sans-Serif" font-size="10.00">nlohmann::detail::binary</text>
<text text-anchor="middle" x="751.12" y="-385.75" font-family="Helvetica,sans-Serif" font-size="10.00">_writer::write_bson_double</text>
</a>
</g>
</g>
<!-- Node22&#45;&gt;Node24 -->
<g id="edge32_Node000022_Node000024" class="edge">
<title>Node22&#45;&gt;Node24</title>
<g id="a_edge32_Node000022_Node000024"><a xlink:title=" ">
<path fill="none" stroke="#63b8ff" d="M868.6,-364.71C849.97,-369.6 830.03,-374.82 812.01,-379.55"/>
<polygon fill="#63b8ff" stroke="#63b8ff" points="869.32,-367.88 878.1,-361.96 867.54,-361.11 869.32,-367.88"/>
</a>
</g>
</g>
<!-- Node25 -->
<g id="Node000025" class="node">
<title>Node25</title>
<g id="a_Node000025"><a xlink:href="../../df/d1a/classnlohmann_1_1detail_1_1binary__writer.html#a553ad4dbdf27238eef90867e4bf2f3e5" target="_top" xlink:title="Writes a BSON element with key name and integer value.">
<polygon fill="white" stroke="#666666" points="817.62,-361.5 684.62,-361.5 684.62,-331 817.62,-331 817.62,-361.5"/>
<text text-anchor="start" x="692.62" y="-348" font-family="Helvetica,sans-Serif" font-size="10.00">nlohmann::detail::binary</text>
<text text-anchor="middle" x="751.12" y="-336.75" font-family="Helvetica,sans-Serif" font-size="10.00">_writer::write_bson_integer</text>
</a>
</g>
</g>
<!-- Node22&#45;&gt;Node25 -->
<g id="edge34_Node000022_Node000025" class="edge">
<title>Node22&#45;&gt;Node25</title>
<g id="a_edge34_Node000022_Node000025"><a xlink:title=" ">
<path fill="none" stroke="#63b8ff" d="M848.91,-346.25C838.47,-346.25 827.98,-346.25 817.95,-346.25"/>
<polygon fill="#63b8ff" stroke="#63b8ff" points="848.75,-349.75 858.75,-346.25 848.75,-342.75 848.75,-349.75"/>
</a>
</g>
</g>
<!-- Node26 -->
<g id="Node000026" class="node">
<title>Node26</title>
<g id="a_Node000026"><a xlink:href="../../df/d1a/classnlohmann_1_1detail_1_1binary__writer.html#a9927c1110b18661e0224a76156e5a7a9" target="_top" xlink:title="Writes a BSON element with key name and null value.">
<polygon fill="white" stroke="#666666" points="810.88,-312.5 691.38,-312.5 691.38,-282 810.88,-282 810.88,-312.5"/>
<text text-anchor="start" x="699.38" y="-299" font-family="Helvetica,sans-Serif" font-size="10.00">nlohmann::detail::binary</text>
<text text-anchor="middle" x="751.12" y="-287.75" font-family="Helvetica,sans-Serif" font-size="10.00">_writer::write_bson_null</text>
</a>
</g>
</g>
<!-- Node22&#45;&gt;Node26 -->
<g id="edge36_Node000022_Node000026" class="edge">
<title>Node22&#45;&gt;Node26</title>
<g id="a_edge36_Node000022_Node000026"><a xlink:title=" ">
<path fill="none" stroke="#63b8ff" d="M868.5,-327.76C849.67,-322.83 829.52,-317.54 811.37,-312.78"/>
<polygon fill="#63b8ff" stroke="#63b8ff" points="867.54,-331.39 878.1,-330.54 869.32,-324.62 867.54,-331.39"/>
</a>
</g>
</g>
<!-- Node27 -->
<g id="Node000027" class="node">
<title>Node27</title>
<g id="a_Node000027"><a xlink:href="../../df/d1a/classnlohmann_1_1detail_1_1binary__writer.html#a5e6574416915208fc035b57338ae3252" target="_top" xlink:title="Writes a BSON element with key name and string value value.">
<polygon fill="white" stroke="#666666" points="815,-263.5 687.25,-263.5 687.25,-233 815,-233 815,-263.5"/>
<text text-anchor="start" x="695.25" y="-250" font-family="Helvetica,sans-Serif" font-size="10.00">nlohmann::detail::binary</text>
<text text-anchor="middle" x="751.12" y="-238.75" font-family="Helvetica,sans-Serif" font-size="10.00">_writer::write_bson_string</text>
</a>
</g>
</g>
<!-- Node22&#45;&gt;Node27 -->
<g id="edge39_Node000022_Node000027" class="edge">
<title>Node22&#45;&gt;Node27</title>
<g id="a_edge39_Node000022_Node000027"><a xlink:title=" ">
<path fill="none" stroke="#63b8ff" d="M872.98,-325.89C867.91,-323.31 863.01,-320.44 858.5,-317.25 837.87,-302.66 843.16,-287.79 822.5,-273.25 817.41,-269.67 811.76,-266.55 805.93,-263.85"/>
<polygon fill="#63b8ff" stroke="#63b8ff" points="871.37,-329.47 881.91,-330.51 874.32,-323.12 871.37,-329.47"/>
</a>
</g>
</g>
<!-- Node28 -->
<g id="Node000028" class="node">
<title>Node28</title>
<g id="a_Node000028"><a xlink:href="../../df/d1a/classnlohmann_1_1detail_1_1binary__writer.html#ac274e3d7a803e7223bb1a4fcb7cd594c" target="_top" xlink:title="Writes a BSON element with key name and unsigned value.">
<polygon fill="white" stroke="#666666" points="822.5,-214.5 679.75,-214.5 679.75,-184 822.5,-184 822.5,-214.5"/>
<text text-anchor="start" x="687.75" y="-201" font-family="Helvetica,sans-Serif" font-size="10.00">nlohmann::detail::binary</text>
<text text-anchor="middle" x="751.12" y="-189.75" font-family="Helvetica,sans-Serif" font-size="10.00">_writer::write_bson_unsigned</text>
</a>
</g>
</g>
<!-- Node22&#45;&gt;Node28 -->
<g id="edge41_Node000022_Node000028" class="edge">
<title>Node22&#45;&gt;Node28</title>
<g id="a_edge41_Node000022_Node000028"><a xlink:title=" ">
<path fill="none" stroke="#63b8ff" d="M868.42,-325.24C864.87,-322.86 861.52,-320.2 858.5,-317.25 826.79,-286.28 854.28,-255.15 822.5,-224.25 818.78,-220.63 814.51,-217.54 809.94,-214.89"/>
<polygon fill="#63b8ff" stroke="#63b8ff" points="866.24,-328.61 876.64,-330.64 869.78,-322.56 866.24,-328.61"/>
</a>
</g>
</g>
<!-- Node23&#45;&gt;Node15 -->
<g id="edge30_Node000023_Node000015" class="edge">
<title>Node23&#45;&gt;Node15</title>
<g id="a_edge30_Node000023_Node000015"><a xlink:title=" ">
<path fill="none" stroke="#63b8ff" d="M686.76,-423.63C684.34,-422.25 681.99,-420.79 679.75,-419.25 636.86,-389.73 601.07,-338.24 584.89,-312.63"/>
<polygon fill="#63b8ff" stroke="#63b8ff" points="684.9,-427.12 695.4,-428.55 688.08,-420.88 684.9,-427.12"/>
</a>
</g>
</g>
<!-- Node24&#45;&gt;Node15 -->
<g id="edge33_Node000024_Node000015" class="edge">
<title>Node24&#45;&gt;Node15</title>
<g id="a_edge33_Node000024_Node000015"><a xlink:title=" ">
<path fill="none" stroke="#63b8ff" d="M690.61,-375.42C686.89,-373.77 683.24,-372.05 679.75,-370.25 647.97,-353.85 614.71,-328.97 594.58,-312.92"/>
<polygon fill="#63b8ff" stroke="#63b8ff" points="688.99,-378.95 699.57,-379.56 691.68,-372.49 688.99,-378.95"/>
</a>
</g>
</g>
<!-- Node25&#45;&gt;Node15 -->
<g id="edge35_Node000025_Node000015" class="edge">
<title>Node25&#45;&gt;Node15</title>
<g id="a_edge35_Node000025_Node000015"><a xlink:title=" ">
<path fill="none" stroke="#63b8ff" d="M683.89,-327.65C666.68,-322.82 648.32,-317.66 631.69,-312.99"/>
<polygon fill="#63b8ff" stroke="#63b8ff" points="682.86,-331.28 693.43,-330.61 684.75,-324.54 682.86,-331.28"/>
</a>
</g>
</g>
<!-- Node26&#45;&gt;Node15 -->
<g id="edge37_Node000026_Node000015" class="edge">
<title>Node26&#45;&gt;Node15</title>
<g id="a_edge37_Node000026_Node000015"><a xlink:title=" ">
<path fill="none" stroke="#63b8ff" d="M680.23,-297.25C668.28,-297.25 655.88,-297.25 643.97,-297.25"/>
<polygon fill="#63b8ff" stroke="#63b8ff" points="680.05,-300.75 690.05,-297.25 680.05,-293.75 680.05,-300.75"/>
</a>
</g>
</g>
<!-- Node27&#45;&gt;Node15 -->
<g id="edge40_Node000027_Node000015" class="edge">
<title>Node27&#45;&gt;Node15</title>
<g id="a_edge40_Node000027_Node000015"><a xlink:title=" ">
<path fill="none" stroke="#63b8ff" d="M683.89,-266.85C666.68,-271.68 648.32,-276.84 631.69,-281.51"/>
<polygon fill="#63b8ff" stroke="#63b8ff" points="684.75,-269.96 693.43,-263.89 682.86,-263.22 684.75,-269.96"/>
</a>
</g>
</g>
<!-- Node28&#45;&gt;Node15 -->
<g id="edge42_Node000028_Node000015" class="edge">
<title>Node28&#45;&gt;Node15</title>
<g id="a_edge42_Node000028_Node000015"><a xlink:title=" ">
<path fill="none" stroke="#63b8ff" d="M690.61,-219.08C686.89,-220.73 683.24,-222.45 679.75,-224.25 647.97,-240.65 614.71,-265.53 594.58,-281.58"/>
<polygon fill="#63b8ff" stroke="#63b8ff" points="691.68,-222.01 699.57,-214.94 688.99,-215.55 691.68,-222.01"/>
</a>
</g>
</g>
<!-- Node30&#45;&gt;Node30 -->
<g id="edge50_Node000030_Node000030" class="edge">
<title>Node30&#45;&gt;Node30</title>
<g id="a_edge50_Node000030_Node000030"><a xlink:title=" ">
<path fill="none" stroke="#63b8ff" d="M970.13,-90.88C965.43,-94.83 955.38,-97.5 940,-97.5 912.65,-97.5 902.18,-89.06 908.59,-79.99"/>
<polygon fill="#63b8ff" stroke="#63b8ff" points="973.72,-91.33 971.41,-80.99 966.77,-90.51 973.72,-91.33"/>
</a>
</g>
</g>
<!-- Node31 -->
<g id="Node000031" class="node">
<title>Node31</title>
<g id="a_Node000031"><a xlink:href="../../d9/dcc/classnlohmann_1_1basic__json.html#a6d133cf7b2e729e9e215edeba5726116" target="_top" xlink:title=" ">
<polygon fill="white" stroke="#666666" points="806.38,-30.5 695.88,-30.5 695.88,0 806.38,0 806.38,-30.5"/>
<text text-anchor="start" x="703.88" y="-17" font-family="Helvetica,sans-Serif" font-size="10.00">nlohmann::basic_json</text>
<text text-anchor="middle" x="751.12" y="-5.75" font-family="Helvetica,sans-Serif" font-size="10.00">::to_ubjson</text>
</a>
</g>
</g>
<!-- Node30&#45;&gt;Node31 -->
<g id="edge48_Node000030_Node000031" class="edge">
<title>Node30&#45;&gt;Node31</title>
<g id="a_edge48_Node000030_Node000031"><a xlink:title=" ">
<path fill="none" stroke="#63b8ff" d="M869.25,-45.96C848.59,-40.54 826.29,-34.7 806.74,-29.57"/>
<polygon fill="#63b8ff" stroke="#63b8ff" points="868.31,-49.6 878.87,-48.75 870.09,-42.82 868.31,-49.6"/>
</a>
</g>
</g>
<!-- Node32 -->
<g id="Node000032" class="node">
<title>Node32</title>
<g id="a_Node000032"><a xlink:href="../../d9/dcc/classnlohmann_1_1basic__json.html#aa9fa5da521622c6c655581840da75090" target="_top" xlink:title=" ">
<polygon fill="white" stroke="#666666" points="806.38,-79.5 695.88,-79.5 695.88,-49 806.38,-49 806.38,-79.5"/>
<text text-anchor="start" x="703.88" y="-66" font-family="Helvetica,sans-Serif" font-size="10.00">nlohmann::basic_json</text>
<text text-anchor="middle" x="751.12" y="-54.75" font-family="Helvetica,sans-Serif" font-size="10.00">::to_ubjson</text>
</a>
</g>
</g>
<!-- Node30&#45;&gt;Node32 -->
<g id="edge49_Node000030_Node000032" class="edge">
<title>Node30&#45;&gt;Node32</title>
<g id="a_edge49_Node000030_Node000032"><a xlink:title=" ">
<path fill="none" stroke="#63b8ff" d="M868.96,-64.25C848.39,-64.25 826.2,-64.25 806.74,-64.25"/>
<polygon fill="#63b8ff" stroke="#63b8ff" points="868.87,-67.75 878.87,-64.25 868.87,-60.75 868.87,-67.75"/>
</a>
</g>
</g>
</g>
</svg>
