<?xml version="1.0" encoding="UTF-8" standalone="no"?>
<!DOCTYPE svg PUBLIC "-//W3C//DTD SVG 1.1//EN"
 "http://www.w3.org/Graphics/SVG/1.1/DTD/svg11.dtd">
<!-- Generated by graphviz version 8.1.0 (20230707.0739)
 -->
<!-- Title: nlohmann::detail::binary_writer::write_bson_array Pages: 1 -->
<svg width="1066pt" height="701pt"
 viewBox="0.00 0.00 1066.25 700.66" xmlns="http://www.w3.org/2000/svg" xmlns:xlink="http://www.w3.org/1999/xlink">
<g id="graph0" class="graph" transform="scale(1 1) rotate(0) translate(4 696.66)">
<title>nlohmann::detail::binary_writer::write_bson_array</title>
<!-- Node1 -->
<g id="Node000001" class="node">
<title>Node1</title>
<g id="a_Node000001"><a xlink:title="Writes a BSON element with key name and array value.">
<polygon fill="#999999" stroke="#666666" points="125.5,-239.66 0,-239.66 0,-209.16 125.5,-209.16 125.5,-239.66"/>
<text text-anchor="start" x="8" y="-226.16" font-family="Helvetica,sans-Serif" font-size="10.00">nlohmann::detail::binary</text>
<text text-anchor="middle" x="62.75" y="-214.91" font-family="Helvetica,sans-Serif" font-size="10.00">_writer::write_bson_array</text>
</a>
</g>
</g>
<!-- Node2 -->
<g id="Node000002" class="node">
<title>Node2</title>
<g id="a_Node000002"><a xlink:href="../../df/d1a/classnlohmann_1_1detail_1_1binary__writer.html#af08f9302a02516ff8cf358a99aaa1ddf" target="_top" xlink:title=" ">
<polygon fill="white" stroke="#666666" points="307.25,-535.66 161.5,-535.66 161.5,-505.16 307.25,-505.16 307.25,-535.66"/>
<text text-anchor="start" x="169.5" y="-522.16" font-family="Helvetica,sans-Serif" font-size="10.00">nlohmann::detail::binary</text>
<text text-anchor="middle" x="234.38" y="-510.91" font-family="Helvetica,sans-Serif" font-size="10.00">_writer::calc_bson_array_size</text>
</a>
</g>
</g>
<!-- Node1&#45;&gt;Node2 -->
<g id="edge1_Node000001_Node000002" class="edge">
<title>Node1&#45;&gt;Node2</title>
<g id="a_edge1_Node000001_Node000002"><a xlink:title=" ">
<path fill="none" stroke="#63b8ff" d="M72.63,-239.91C100.28,-288.15 184.97,-435.95 219,-495.33"/>
<polygon fill="#63b8ff" stroke="#63b8ff" points="216.37,-496.77 224.38,-503.71 222.44,-493.29 216.37,-496.77"/>
</a>
</g>
</g>
<!-- Node13 -->
<g id="Node000013" class="node">
<title>Node13</title>
<g id="a_Node000013"><a xlink:href="../../df/d1a/classnlohmann_1_1detail_1_1binary__writer.html#ab77aa48692bd4e64e4f051ce6aeb6d2d" target="_top" xlink:title=" ">
<polygon fill="white" stroke="#666666" points="871.62,-155.66 752.12,-155.66 752.12,-125.16 871.62,-125.16 871.62,-155.66"/>
<text text-anchor="start" x="760.12" y="-142.16" font-family="Helvetica,sans-Serif" font-size="10.00">nlohmann::detail::binary</text>
<text text-anchor="middle" x="811.88" y="-130.91" font-family="Helvetica,sans-Serif" font-size="10.00">_writer::to_char_type</text>
</a>
</g>
</g>
<!-- Node1&#45;&gt;Node13 -->
<g id="edge13_Node000001_Node000013" class="edge">
<title>Node1&#45;&gt;Node13</title>
<g id="a_edge13_Node000001_Node000013"><a xlink:title=" ">
<path fill="none" stroke="#63b8ff" d="M67.03,-208.89C75.58,-172.61 102.1,-82.02 161.5,-38.41 227.68,10.18 261.48,-12.77 343.25,-5.41 504.42,9.1 554.12,-5.95 700.75,-74.41 728.2,-87.22 757.53,-105.03 779.02,-118.92"/>
<polygon fill="#63b8ff" stroke="#63b8ff" points="776.73,-122.26 787.01,-124.8 780.56,-116.4 776.73,-122.26"/>
</a>
</g>
</g>
<!-- Node14 -->
<g id="Node000014" class="node">
<title>Node14</title>
<g id="a_Node000014"><a xlink:href="../../df/d1a/classnlohmann_1_1detail_1_1binary__writer.html#a7ff58bf1a80018148bed860667ffca07" target="_top" xlink:title="Serializes the JSON value j to BSON and associates it with the key name.">
<polygon fill="white" stroke="#666666" points="303.5,-239.66 165.25,-239.66 165.25,-209.16 303.5,-209.16 303.5,-239.66"/>
<text text-anchor="start" x="173.25" y="-226.16" font-family="Helvetica,sans-Serif" font-size="10.00">nlohmann::detail::binary</text>
<text text-anchor="middle" x="234.38" y="-214.91" font-family="Helvetica,sans-Serif" font-size="10.00">_writer::write_bson_element</text>
</a>
</g>
</g>
<!-- Node1&#45;&gt;Node14 -->
<g id="edge14_Node000001_Node000014" class="edge">
<title>Node1&#45;&gt;Node14</title>
<g id="a_edge14_Node000001_Node000014"><a xlink:title=" ">
<path fill="none" stroke="#63b8ff" d="M125.95,-217.88C135.06,-217.7 144.54,-217.63 153.93,-217.67"/>
<polygon fill="#63b8ff" stroke="#63b8ff" points="153.86,-221.18 163.89,-217.77 153.92,-214.18 153.86,-221.18"/>
</a>
</g>
</g>
<!-- Node16 -->
<g id="Node000016" class="node">
<title>Node16</title>
<g id="a_Node000016"><a xlink:href="../../df/d1a/classnlohmann_1_1detail_1_1binary__writer.html#a1b5b7f5c03b1f8b1f59ea61db9634108" target="_top" xlink:title="Writes the given element_type and name to the output adapter.">
<polygon fill="white" stroke="#666666" points="699.25,-190.66 539.25,-190.66 539.25,-160.16 699.25,-160.16 699.25,-190.66"/>
<text text-anchor="start" x="547.25" y="-177.16" font-family="Helvetica,sans-Serif" font-size="10.00">nlohmann::detail::binary</text>
<text text-anchor="middle" x="619.25" y="-165.91" font-family="Helvetica,sans-Serif" font-size="10.00">_writer::write_bson_entry_header</text>
</a>
</g>
</g>
<!-- Node1&#45;&gt;Node16 -->
<g id="edge40_Node000001_Node000016" class="edge">
<title>Node1&#45;&gt;Node16</title>
<g id="a_edge40_Node000001_Node000016"><a xlink:title=" ">
<path fill="none" stroke="#63b8ff" d="M78.55,-208.89C117.38,-169.45 227.26,-65.87 343.25,-29.41 410.45,-8.28 438.28,1.15 501.75,-29.41 553.91,-54.52 589.98,-115.61 607.03,-150.29"/>
<polygon fill="#63b8ff" stroke="#63b8ff" points="604.26,-151.6 611.71,-159.13 610.58,-148.6 604.26,-151.6"/>
</a>
</g>
</g>
<!-- Node3 -->
<g id="Node000003" class="node">
<title>Node3</title>
<g id="a_Node000003"><a xlink:href="../../df/d1a/classnlohmann_1_1detail_1_1binary__writer.html#a1e4372c5984184eb5bcc09af1fcc2ee0" target="_top" xlink:title="Calculates the size necessary to serialize the JSON value j with its name.">
<polygon fill="white" stroke="#666666" points="501.75,-535.66 343.25,-535.66 343.25,-505.16 501.75,-505.16 501.75,-535.66"/>
<text text-anchor="start" x="351.25" y="-522.16" font-family="Helvetica,sans-Serif" font-size="10.00">nlohmann::detail::binary</text>
<text text-anchor="middle" x="422.5" y="-510.91" font-family="Helvetica,sans-Serif" font-size="10.00">_writer::calc_bson_element_size</text>
</a>
</g>
</g>
<!-- Node2&#45;&gt;Node3 -->
<g id="edge2_Node000002_Node000003" class="edge">
<title>Node2&#45;&gt;Node3</title>
<g id="a_edge2_Node000002_Node000003"><a xlink:title=" ">
<path fill="none" stroke="#63b8ff" d="M307.6,-513.81C315.63,-513.69 323.88,-513.64 332.09,-513.66"/>
<polygon fill="#63b8ff" stroke="#63b8ff" points="331.81,-517.17 341.83,-513.73 331.86,-510.17 331.81,-517.17"/>
</a>
</g>
</g>
<!-- Node3&#45;&gt;Node2 -->
<g id="edge3_Node000003_Node000002" class="edge">
<title>Node3&#45;&gt;Node2</title>
<g id="a_edge3_Node000003_Node000002"><a xlink:title=" ">
<path fill="none" stroke="#63b8ff" d="M342.83,-527.09C334.8,-527.17 326.62,-527.18 318.54,-527.12"/>
<polygon fill="#63b8ff" stroke="#63b8ff" points="318.64,-523.61 308.6,-527.01 318.56,-530.61 318.64,-523.61"/>
</a>
</g>
</g>
<!-- Node4 -->
<g id="Node000004" class="node">
<title>Node4</title>
<g id="a_Node000004"><a xlink:href="../../df/d1a/classnlohmann_1_1detail_1_1binary__writer.html#a9dd6062fd249a695e0f93d558dba4685" target="_top" xlink:title=" ">
<polygon fill="white" stroke="#666666" points="694.38,-692.66 544.12,-692.66 544.12,-662.16 694.38,-662.16 694.38,-692.66"/>
<text text-anchor="start" x="552.12" y="-679.16" font-family="Helvetica,sans-Serif" font-size="10.00">nlohmann::detail::binary</text>
<text text-anchor="middle" x="619.25" y="-667.91" font-family="Helvetica,sans-Serif" font-size="10.00">_writer::calc_bson_binary_size</text>
</a>
</g>
</g>
<!-- Node3&#45;&gt;Node4 -->
<g id="edge4_Node000003_Node000004" class="edge">
<title>Node3&#45;&gt;Node4</title>
<g id="a_edge4_Node000003_Node000004"><a xlink:title=" ">
<path fill="none" stroke="#63b8ff" d="M432.69,-536.1C449.8,-563.92 489.23,-621.94 537.75,-653.41 539.74,-654.7 541.8,-655.92 543.91,-657.08"/>
<polygon fill="#63b8ff" stroke="#63b8ff" points="541.96,-660.51 552.48,-661.76 545.04,-654.22 541.96,-660.51"/>
</a>
</g>
</g>
<!-- Node5 -->
<g id="Node000005" class="node">
<title>Node5</title>
<g id="a_Node000005"><a xlink:href="../../df/d1a/classnlohmann_1_1detail_1_1binary__writer.html#a11637a023d22e57a7e7aff3f98b10f84" target="_top" xlink:title=" ">
<polygon fill="white" stroke="#666666" points="680.5,-644.28 558,-644.28 558,-602.53 680.5,-602.53 680.5,-644.28"/>
<text text-anchor="start" x="566" y="-630.78" font-family="Helvetica,sans-Serif" font-size="10.00">nlohmann::detail::binary</text>
<text text-anchor="start" x="566" y="-619.53" font-family="Helvetica,sans-Serif" font-size="10.00">_writer::calc_bson_entry</text>
<text text-anchor="middle" x="619.25" y="-608.28" font-family="Helvetica,sans-Serif" font-size="10.00">_header_size</text>
</a>
</g>
</g>
<!-- Node3&#45;&gt;Node5 -->
<g id="edge5_Node000003_Node000005" class="edge">
<title>Node3&#45;&gt;Node5</title>
<g id="a_edge5_Node000003_Node000005"><a xlink:title=" ">
<path fill="none" stroke="#63b8ff" d="M445.01,-536.12C467.39,-551.98 503.84,-576.49 537.75,-593.41 541.05,-595.06 544.47,-596.67 547.95,-598.23"/>
<polygon fill="#63b8ff" stroke="#63b8ff" points="546.3,-601.76 556.87,-602.51 549.07,-595.33 546.3,-601.76"/>
</a>
</g>
</g>
<!-- Node9 -->
<g id="Node000009" class="node">
<title>Node9</title>
<g id="a_Node000009"><a xlink:href="../../df/d1a/classnlohmann_1_1detail_1_1binary__writer.html#aeab70c895931b96ea598306b37eca271" target="_top" xlink:title=" ">
<polygon fill="white" stroke="#666666" points="695.88,-584.66 542.62,-584.66 542.62,-554.16 695.88,-554.16 695.88,-584.66"/>
<text text-anchor="start" x="550.62" y="-571.16" font-family="Helvetica,sans-Serif" font-size="10.00">nlohmann::detail::binary</text>
<text text-anchor="middle" x="619.25" y="-559.91" font-family="Helvetica,sans-Serif" font-size="10.00">_writer::calc_bson_integer_size</text>
</a>
</g>
</g>
<!-- Node3&#45;&gt;Node9 -->
<g id="edge9_Node000003_Node000009" class="edge">
<title>Node3&#45;&gt;Node9</title>
<g id="a_edge9_Node000003_Node000009"><a xlink:title=" ">
<path fill="none" stroke="#63b8ff" d="M485.92,-536.11C504.88,-540.88 525.87,-546.17 545.45,-551.09"/>
<polygon fill="#63b8ff" stroke="#63b8ff" points="544.29,-554.66 554.85,-553.71 546,-547.87 544.29,-554.66"/>
</a>
</g>
</g>
<!-- Node10 -->
<g id="Node000010" class="node">
<title>Node10</title>
<g id="a_Node000010"><a xlink:href="../../df/d1a/classnlohmann_1_1detail_1_1binary__writer.html#acc6f1cc1fd370ee84ebc8cf7b8712840" target="_top" xlink:title="Calculates the size of the BSON serialization of the given JSON&#45;object j.">
<polygon fill="white" stroke="#666666" points="887,-402.66 736.75,-402.66 736.75,-372.16 887,-372.16 887,-402.66"/>
<text text-anchor="start" x="744.75" y="-389.16" font-family="Helvetica,sans-Serif" font-size="10.00">nlohmann::detail::binary</text>
<text text-anchor="middle" x="811.88" y="-377.91" font-family="Helvetica,sans-Serif" font-size="10.00">_writer::calc_bson_object_size</text>
</a>
</g>
</g>
<!-- Node3&#45;&gt;Node10 -->
<g id="edge10_Node000003_Node000010" class="edge">
<title>Node3&#45;&gt;Node10</title>
<g id="a_edge10_Node000003_Node000010"><a xlink:title=" ">
<path fill="none" stroke="#63b8ff" d="M442.94,-504.92C464.78,-488.29 501.86,-462.26 537.75,-447.41 598.1,-422.43 670.45,-407.14 725.52,-398.25"/>
<polygon fill="#63b8ff" stroke="#63b8ff" points="725.96,-401.56 735.29,-396.55 724.87,-394.65 725.96,-401.56"/>
</a>
</g>
</g>
<!-- Node11 -->
<g id="Node000011" class="node">
<title>Node11</title>
<g id="a_Node000011"><a xlink:href="../../df/d1a/classnlohmann_1_1detail_1_1binary__writer.html#aea44fd97a5cb9b4f175e66e3e4fdf158" target="_top" xlink:title=" ">
<polygon fill="white" stroke="#666666" points="693.25,-535.66 545.25,-535.66 545.25,-505.16 693.25,-505.16 693.25,-535.66"/>
<text text-anchor="start" x="553.25" y="-522.16" font-family="Helvetica,sans-Serif" font-size="10.00">nlohmann::detail::binary</text>
<text text-anchor="middle" x="619.25" y="-510.91" font-family="Helvetica,sans-Serif" font-size="10.00">_writer::calc_bson_string_size</text>
</a>
</g>
</g>
<!-- Node3&#45;&gt;Node11 -->
<g id="edge11_Node000003_Node000011" class="edge">
<title>Node3&#45;&gt;Node11</title>
<g id="a_edge11_Node000003_Node000011"><a xlink:title=" ">
<path fill="none" stroke="#63b8ff" d="M502.15,-520.41C512.65,-520.41 523.45,-520.41 534.04,-520.41"/>
<polygon fill="#63b8ff" stroke="#63b8ff" points="533.98,-523.91 543.98,-520.41 533.98,-516.91 533.98,-523.91"/>
</a>
</g>
</g>
<!-- Node12 -->
<g id="Node000012" class="node">
<title>Node12</title>
<g id="a_Node000012"><a xlink:href="../../df/d1a/classnlohmann_1_1detail_1_1binary__writer.html#aa1d6bb9f3af16f07ce2440c354b5787b" target="_top" xlink:title=" ">
<polygon fill="white" stroke="#666666" points="700.75,-486.66 537.75,-486.66 537.75,-456.16 700.75,-456.16 700.75,-486.66"/>
<text text-anchor="start" x="545.75" y="-473.16" font-family="Helvetica,sans-Serif" font-size="10.00">nlohmann::detail::binary</text>
<text text-anchor="middle" x="619.25" y="-461.91" font-family="Helvetica,sans-Serif" font-size="10.00">_writer::calc_bson_unsigned_size</text>
</a>
</g>
</g>
<!-- Node3&#45;&gt;Node12 -->
<g id="edge12_Node000003_Node000012" class="edge">
<title>Node3&#45;&gt;Node12</title>
<g id="a_edge12_Node000003_Node000012"><a xlink:title=" ">
<path fill="none" stroke="#63b8ff" d="M485.92,-504.7C504.88,-499.93 525.87,-494.65 545.45,-489.73"/>
<polygon fill="#63b8ff" stroke="#63b8ff" points="546,-492.94 554.85,-487.11 544.29,-486.16 546,-492.94"/>
</a>
</g>
</g>
<!-- Node6 -->
<g id="Node000006" class="node">
<title>Node6</title>
<g id="a_Node000006"><a xlink:href="../../d2/d67/classnlohmann_1_1detail_1_1out__of__range.html#a238f1bda3b6c92b5970fbf9187ccd325" target="_top" xlink:title=" ">
<polygon fill="white" stroke="#666666" points="865.25,-564.66 758.5,-564.66 758.5,-534.16 865.25,-534.16 865.25,-564.66"/>
<text text-anchor="start" x="766.5" y="-551.16" font-family="Helvetica,sans-Serif" font-size="10.00">nlohmann::detail::out</text>
<text text-anchor="middle" x="811.88" y="-539.91" font-family="Helvetica,sans-Serif" font-size="10.00">_of_range::create</text>
</a>
</g>
</g>
<!-- Node5&#45;&gt;Node6 -->
<g id="edge6_Node000005_Node000006" class="edge">
<title>Node5&#45;&gt;Node6</title>
<g id="a_edge6_Node000005_Node000006"><a xlink:title=" ">
<path fill="none" stroke="#63b8ff" d="M677.92,-602.1C685.6,-599.21 693.38,-596.26 700.75,-593.41 720.94,-585.62 743.11,-576.8 762.24,-569.12"/>
<polygon fill="#63b8ff" stroke="#63b8ff" points="763.26,-572.09 771.23,-565.11 760.64,-565.59 763.26,-572.09"/>
</a>
</g>
</g>
<!-- Node7 -->
<g id="Node000007" class="node">
<title>Node7</title>
<g id="a_Node000007"><a xlink:href="../../de/df2/classnlohmann_1_1detail_1_1exception.html#aa353a7dba4fd179f7224b8a2a238a264" target="_top" xlink:title=" ">
<polygon fill="white" stroke="#666666" points="1058.25,-588.66 923,-588.66 923,-558.16 1058.25,-558.16 1058.25,-588.66"/>
<text text-anchor="start" x="931" y="-575.16" font-family="Helvetica,sans-Serif" font-size="10.00">nlohmann::detail::exception</text>
<text text-anchor="middle" x="990.62" y="-563.91" font-family="Helvetica,sans-Serif" font-size="10.00">::diagnostics</text>
</a>
</g>
</g>
<!-- Node6&#45;&gt;Node7 -->
<g id="edge7_Node000006_Node000007" class="edge">
<title>Node6&#45;&gt;Node7</title>
<g id="a_edge7_Node000006_Node000007"><a xlink:title=" ">
<path fill="none" stroke="#63b8ff" d="M865.43,-556.54C879.98,-558.52 896.09,-560.71 911.76,-562.84"/>
<polygon fill="#63b8ff" stroke="#63b8ff" points="911.12,-566.42 921.5,-564.29 912.07,-559.48 911.12,-566.42"/>
</a>
</g>
</g>
<!-- Node8 -->
<g id="Node000008" class="node">
<title>Node8</title>
<g id="a_Node000008"><a xlink:href="../../de/df2/classnlohmann_1_1detail_1_1exception.html#abf41a7e9178356314082284e6cfea278" target="_top" xlink:title=" ">
<polygon fill="white" stroke="#666666" points="1058.25,-539.66 923,-539.66 923,-509.16 1058.25,-509.16 1058.25,-539.66"/>
<text text-anchor="start" x="931" y="-526.16" font-family="Helvetica,sans-Serif" font-size="10.00">nlohmann::detail::exception</text>
<text text-anchor="middle" x="990.62" y="-514.91" font-family="Helvetica,sans-Serif" font-size="10.00">::name</text>
</a>
</g>
</g>
<!-- Node6&#45;&gt;Node8 -->
<g id="edge8_Node000006_Node000008" class="edge">
<title>Node6&#45;&gt;Node8</title>
<g id="a_edge8_Node000006_Node000008"><a xlink:title=" ">
<path fill="none" stroke="#63b8ff" d="M865.43,-541.98C879.98,-539.92 896.09,-537.64 911.76,-535.42"/>
<polygon fill="#63b8ff" stroke="#63b8ff" points="912.09,-538.77 921.5,-533.9 911.11,-531.84 912.09,-538.77"/>
</a>
</g>
</g>
<!-- Node14&#45;&gt;Node1 -->
<g id="edge15_Node000014_Node000001" class="edge">
<title>Node14&#45;&gt;Node1</title>
<g id="a_edge15_Node000014_Node000001"><a xlink:title=" ">
<path fill="none" stroke="#63b8ff" d="M164.89,-231.05C155.64,-231.18 146.11,-231.19 136.78,-231.1"/>
<polygon fill="#63b8ff" stroke="#63b8ff" points="137,-227.59 126.95,-230.94 136.9,-234.59 137,-227.59"/>
</a>
</g>
</g>
<!-- Node15 -->
<g id="Node000015" class="node">
<title>Node15</title>
<g id="a_Node000015"><a xlink:href="../../df/d1a/classnlohmann_1_1detail_1_1binary__writer.html#a97d34d9a70ddc06ae782c55454df42bc" target="_top" xlink:title="Writes a BSON element with key name and binary value value.">
<polygon fill="white" stroke="#666666" points="487.5,-313.66 357.5,-313.66 357.5,-283.16 487.5,-283.16 487.5,-313.66"/>
<text text-anchor="start" x="365.5" y="-300.16" font-family="Helvetica,sans-Serif" font-size="10.00">nlohmann::detail::binary</text>
<text text-anchor="middle" x="422.5" y="-288.91" font-family="Helvetica,sans-Serif" font-size="10.00">_writer::write_bson_binary</text>
</a>
</g>
</g>
<!-- Node14&#45;&gt;Node15 -->
<g id="edge16_Node000014_Node000015" class="edge">
<title>Node14&#45;&gt;Node15</title>
<g id="a_edge16_Node000014_Node000015"><a xlink:title=" ">
<path fill="none" stroke="#63b8ff" d="M267.06,-239.98C288.33,-250.15 317.15,-263.35 343.25,-273.41 348.36,-275.38 353.7,-277.32 359.08,-279.19"/>
<polygon fill="#63b8ff" stroke="#63b8ff" points="357.84,-282.81 368.43,-282.71 360.09,-276.18 357.84,-282.81"/>
</a>
</g>
</g>
<!-- Node18 -->
<g id="Node000018" class="node">
<title>Node18</title>
<g id="a_Node000018"><a xlink:href="../../df/d1a/classnlohmann_1_1detail_1_1binary__writer.html#ae099435e1df3096e0fc78333282f8f67" target="_top" xlink:title="Writes a BSON element with key name and boolean value value.">
<polygon fill="white" stroke="#666666" points="491.25,-68.66 353.75,-68.66 353.75,-38.16 491.25,-38.16 491.25,-68.66"/>
<text text-anchor="start" x="361.75" y="-55.16" font-family="Helvetica,sans-Serif" font-size="10.00">nlohmann::detail::binary</text>
<text text-anchor="middle" x="422.5" y="-43.91" font-family="Helvetica,sans-Serif" font-size="10.00">_writer::write_bson_boolean</text>
</a>
</g>
</g>
<!-- Node14&#45;&gt;Node18 -->
<g id="edge20_Node000014_Node000018" class="edge">
<title>Node14&#45;&gt;Node18</title>
<g id="a_edge20_Node000014_Node000018"><a xlink:title=" ">
<path fill="none" stroke="#63b8ff" d="M242.78,-208.67C257.6,-178.83 293.81,-113.84 343.25,-78.41 345.35,-76.9 347.55,-75.48 349.82,-74.15"/>
<polygon fill="#63b8ff" stroke="#63b8ff" points="351.23,-76.84 358.48,-69.11 348,-70.63 351.23,-76.84"/>
</a>
</g>
</g>
<!-- Node19 -->
<g id="Node000019" class="node">
<title>Node19</title>
<g id="a_Node000019"><a xlink:href="../../df/d1a/classnlohmann_1_1detail_1_1binary__writer.html#a263ec18815467bb9919021ef126919ca" target="_top" xlink:title="Writes a BSON element with key name and double value value.">
<polygon fill="white" stroke="#666666" points="488.62,-117.66 356.38,-117.66 356.38,-87.16 488.62,-87.16 488.62,-117.66"/>
<text text-anchor="start" x="364.38" y="-104.16" font-family="Helvetica,sans-Serif" font-size="10.00">nlohmann::detail::binary</text>
<text text-anchor="middle" x="422.5" y="-92.91" font-family="Helvetica,sans-Serif" font-size="10.00">_writer::write_bson_double</text>
</a>
</g>
</g>
<!-- Node14&#45;&gt;Node19 -->
<g id="edge23_Node000014_Node000019" class="edge">
<title>Node14&#45;&gt;Node19</title>
<g id="a_edge23_Node000014_Node000019"><a xlink:title=" ">
<path fill="none" stroke="#63b8ff" d="M248.81,-208.74C267.82,-187.47 304.58,-149.59 343.25,-127.41 346.44,-125.58 349.78,-123.86 353.21,-122.26"/>
<polygon fill="#63b8ff" stroke="#63b8ff" points="354.25,-125.19 362.05,-118.03 351.49,-118.76 354.25,-125.19"/>
</a>
</g>
</g>
<!-- Node20 -->
<g id="Node000020" class="node">
<title>Node20</title>
<g id="a_Node000020"><a xlink:href="../../df/d1a/classnlohmann_1_1detail_1_1binary__writer.html#a553ad4dbdf27238eef90867e4bf2f3e5" target="_top" xlink:title="Writes a BSON element with key name and integer value.">
<polygon fill="white" stroke="#666666" points="489,-264.66 356,-264.66 356,-234.16 489,-234.16 489,-264.66"/>
<text text-anchor="start" x="364" y="-251.16" font-family="Helvetica,sans-Serif" font-size="10.00">nlohmann::detail::binary</text>
<text text-anchor="middle" x="422.5" y="-239.91" font-family="Helvetica,sans-Serif" font-size="10.00">_writer::write_bson_integer</text>
</a>
</g>
</g>
<!-- Node14&#45;&gt;Node20 -->
<g id="edge25_Node000014_Node000020" class="edge">
<title>Node14&#45;&gt;Node20</title>
<g id="a_edge25_Node000014_Node000020"><a xlink:title=" ">
<path fill="none" stroke="#63b8ff" d="M303.89,-233.61C317.22,-235.4 331.28,-237.29 344.85,-239.11"/>
<polygon fill="#63b8ff" stroke="#63b8ff" points="344.23,-242.7 354.61,-240.56 345.16,-235.76 344.23,-242.7"/>
</a>
</g>
</g>
<!-- Node21 -->
<g id="Node000021" class="node">
<title>Node21</title>
<g id="a_Node000021"><a xlink:href="../../df/d1a/classnlohmann_1_1detail_1_1binary__writer.html#a9927c1110b18661e0224a76156e5a7a9" target="_top" xlink:title="Writes a BSON element with key name and null value.">
<polygon fill="white" stroke="#666666" points="482.25,-215.66 362.75,-215.66 362.75,-185.16 482.25,-185.16 482.25,-215.66"/>
<text text-anchor="start" x="370.75" y="-202.16" font-family="Helvetica,sans-Serif" font-size="10.00">nlohmann::detail::binary</text>
<text text-anchor="middle" x="422.5" y="-190.91" font-family="Helvetica,sans-Serif" font-size="10.00">_writer::write_bson_null</text>
</a>
</g>
</g>
<!-- Node14&#45;&gt;Node21 -->
<g id="edge27_Node000014_Node000021" class="edge">
<title>Node14&#45;&gt;Node21</title>
<g id="a_edge27_Node000014_Node000021"><a xlink:title=" ">
<path fill="none" stroke="#63b8ff" d="M303.89,-215.57C319.47,-213.57 336.04,-211.43 351.67,-209.41"/>
<polygon fill="#63b8ff" stroke="#63b8ff" points="351.85,-212.79 361.32,-208.04 350.96,-205.85 351.85,-212.79"/>
</a>
</g>
</g>
<!-- Node22 -->
<g id="Node000022" class="node">
<title>Node22</title>
<g id="a_Node000022"><a xlink:href="../../df/d1a/classnlohmann_1_1detail_1_1binary__writer.html#a6231302930265eccb3f56c378f7b0661" target="_top" xlink:title="Writes a BSON element with key name and object value.">
<polygon fill="white" stroke="#666666" points="501,-362.66 344,-362.66 344,-332.16 501,-332.16 501,-362.66"/>
<text text-anchor="start" x="352" y="-349.16" font-family="Helvetica,sans-Serif" font-size="10.00">nlohmann::detail::binary</text>
<text text-anchor="middle" x="422.5" y="-337.91" font-family="Helvetica,sans-Serif" font-size="10.00">_writer::write_bson_object_entry</text>
</a>
</g>
</g>
<!-- Node14&#45;&gt;Node22 -->
<g id="edge29_Node000014_Node000022" class="edge">
<title>Node14&#45;&gt;Node22</title>
<g id="a_edge29_Node000014_Node000022"><a xlink:title=" ">
<path fill="none" stroke="#63b8ff" d="M248.45,-239.89C267.33,-261.31 304.24,-299.9 343.25,-322.41 346.43,-324.25 349.77,-325.97 353.2,-327.58"/>
<polygon fill="#63b8ff" stroke="#63b8ff" points="351.47,-331.07 362.04,-331.82 354.24,-324.65 351.47,-331.07"/>
</a>
</g>
</g>
<!-- Node24 -->
<g id="Node000024" class="node">
<title>Node24</title>
<g id="a_Node000024"><a xlink:href="../../df/d1a/classnlohmann_1_1detail_1_1binary__writer.html#a5e6574416915208fc035b57338ae3252" target="_top" xlink:title="Writes a BSON element with key name and string value value.">
<polygon fill="white" stroke="#666666" points="486.38,-166.66 358.62,-166.66 358.62,-136.16 486.38,-136.16 486.38,-166.66"/>
<text text-anchor="start" x="366.62" y="-153.16" font-family="Helvetica,sans-Serif" font-size="10.00">nlohmann::detail::binary</text>
<text text-anchor="middle" x="422.5" y="-141.91" font-family="Helvetica,sans-Serif" font-size="10.00">_writer::write_bson_string</text>
</a>
</g>
</g>
<!-- Node14&#45;&gt;Node24 -->
<g id="edge35_Node000014_Node000024" class="edge">
<title>Node14&#45;&gt;Node24</title>
<g id="a_edge35_Node000014_Node000024"><a xlink:title=" ">
<path fill="none" stroke="#63b8ff" d="M268.03,-208.76C289.23,-198.88 317.58,-186.19 343.25,-176.41 348.37,-174.46 353.71,-172.53 359.09,-170.67"/>
<polygon fill="#63b8ff" stroke="#63b8ff" points="360.1,-173.68 368.45,-167.16 357.86,-167.05 360.1,-173.68"/>
</a>
</g>
</g>
<!-- Node25 -->
<g id="Node000025" class="node">
<title>Node25</title>
<g id="a_Node000025"><a xlink:href="../../df/d1a/classnlohmann_1_1detail_1_1binary__writer.html#ac274e3d7a803e7223bb1a4fcb7cd594c" target="_top" xlink:title="Writes a BSON element with key name and unsigned value.">
<polygon fill="white" stroke="#666666" points="493.88,-448.66 351.12,-448.66 351.12,-418.16 493.88,-418.16 493.88,-448.66"/>
<text text-anchor="start" x="359.12" y="-435.16" font-family="Helvetica,sans-Serif" font-size="10.00">nlohmann::detail::binary</text>
<text text-anchor="middle" x="422.5" y="-423.91" font-family="Helvetica,sans-Serif" font-size="10.00">_writer::write_bson_unsigned</text>
</a>
</g>
</g>
<!-- Node14&#45;&gt;Node25 -->
<g id="edge37_Node000014_Node000025" class="edge">
<title>Node14&#45;&gt;Node25</title>
<g id="a_edge37_Node000014_Node000025"><a xlink:title=" ">
<path fill="none" stroke="#63b8ff" d="M240.65,-240.06C253.05,-274.6 287.33,-357.98 343.25,-404.41 346.99,-407.51 351.09,-410.3 355.39,-412.8"/>
<polygon fill="#63b8ff" stroke="#63b8ff" points="353.59,-416.33 364.08,-417.83 356.82,-410.12 353.59,-416.33"/>
</a>
</g>
</g>
<!-- Node15&#45;&gt;Node16 -->
<g id="edge17_Node000015_Node000016" class="edge">
<title>Node15&#45;&gt;Node16</title>
<g id="a_edge17_Node000015_Node000016"><a xlink:title=" ">
<path fill="none" stroke="#63b8ff" d="M481.42,-282.75C488.45,-280.03 495.38,-276.92 501.75,-273.41 538.43,-253.16 574.36,-220.41 596.4,-198.41"/>
<polygon fill="#63b8ff" stroke="#63b8ff" points="598.34,-201.41 602.87,-191.83 593.35,-196.49 598.34,-201.41"/>
</a>
</g>
</g>
<!-- Node17 -->
<g id="Node000017" class="node">
<title>Node17</title>
<g id="a_Node000017"><a xlink:href="../../df/d1a/classnlohmann_1_1detail_1_1binary__writer.html#a6e11b7227fcecc25a548ed45507b7d1c" target="_top" xlink:title=" ">
<polygon fill="white" stroke="#666666" points="679,-313.66 559.5,-313.66 559.5,-283.16 679,-283.16 679,-313.66"/>
<text text-anchor="start" x="567.5" y="-300.16" font-family="Helvetica,sans-Serif" font-size="10.00">nlohmann::detail::binary</text>
<text text-anchor="middle" x="619.25" y="-288.91" font-family="Helvetica,sans-Serif" font-size="10.00">_writer::write_number</text>
</a>
</g>
</g>
<!-- Node15&#45;&gt;Node17 -->
<g id="edge19_Node000015_Node000017" class="edge">
<title>Node15&#45;&gt;Node17</title>
<g id="a_edge19_Node000015_Node000017"><a xlink:title=" ">
<path fill="none" stroke="#63b8ff" d="M487.81,-298.41C507.25,-298.41 528.69,-298.41 548.48,-298.41"/>
<polygon fill="#63b8ff" stroke="#63b8ff" points="548.27,-301.91 558.27,-298.41 548.27,-294.91 548.27,-301.91"/>
</a>
</g>
</g>
<!-- Node16&#45;&gt;Node13 -->
<g id="edge18_Node000016_Node000013" class="edge">
<title>Node16&#45;&gt;Node13</title>
<g id="a_edge18_Node000016_Node000013"><a xlink:title=" ">
<path fill="none" stroke="#63b8ff" d="M699.71,-160.82C713.5,-158.29 727.74,-155.67 741.23,-153.2"/>
<polygon fill="#63b8ff" stroke="#63b8ff" points="741.67,-156.49 750.88,-151.24 740.41,-149.61 741.67,-156.49"/>
</a>
</g>
</g>
<!-- Node18&#45;&gt;Node13 -->
<g id="edge21_Node000018_Node000013" class="edge">
<title>Node18&#45;&gt;Node13</title>
<g id="a_edge21_Node000018_Node000013"><a xlink:title=" ">
<path fill="none" stroke="#63b8ff" d="M491.42,-68.66C561.59,-84.42 670.57,-108.9 741.33,-124.79"/>
<polygon fill="#63b8ff" stroke="#63b8ff" points="740.4,-128.39 750.92,-127.17 741.93,-121.56 740.4,-128.39"/>
</a>
</g>
</g>
<!-- Node18&#45;&gt;Node16 -->
<g id="edge22_Node000018_Node000016" class="edge">
<title>Node18&#45;&gt;Node16</title>
<g id="a_edge22_Node000018_Node000016"><a xlink:title=" ">
<path fill="none" stroke="#63b8ff" d="M484,-69.02C490.22,-71.71 496.26,-74.82 501.75,-78.41 522.04,-91.69 519.66,-103.26 537.75,-119.41 551.84,-131.99 568.84,-144.19 583.58,-153.97"/>
<polygon fill="#63b8ff" stroke="#63b8ff" points="581.13,-157.2 591.42,-159.73 584.95,-151.34 581.13,-157.2"/>
</a>
</g>
</g>
<!-- Node19&#45;&gt;Node16 -->
<g id="edge24_Node000019_Node000016" class="edge">
<title>Node19&#45;&gt;Node16</title>
<g id="a_edge24_Node000019_Node000016"><a xlink:title=" ">
<path fill="none" stroke="#63b8ff" d="M474.64,-118.08C483.71,-121.05 493.04,-124.23 501.75,-127.41 525.24,-135.98 550.97,-146.47 572.27,-155.45"/>
<polygon fill="#63b8ff" stroke="#63b8ff" points="570.77,-159.04 581.34,-159.72 573.5,-152.6 570.77,-159.04"/>
</a>
</g>
</g>
<!-- Node20&#45;&gt;Node16 -->
<g id="edge26_Node000020_Node000016" class="edge">
<title>Node20&#45;&gt;Node16</title>
<g id="a_edge26_Node000020_Node000016"><a xlink:title=" ">
<path fill="none" stroke="#63b8ff" d="M474.66,-233.79C483.73,-230.81 493.05,-227.62 501.75,-224.41 525.65,-215.58 551.84,-204.68 573.32,-195.41"/>
<polygon fill="#63b8ff" stroke="#63b8ff" points="574.37,-198.33 582.14,-191.14 571.58,-191.91 574.37,-198.33"/>
</a>
</g>
</g>
<!-- Node21&#45;&gt;Node16 -->
<g id="edge28_Node000021_Node000016" class="edge">
<title>Node21&#45;&gt;Node16</title>
<g id="a_edge28_Node000021_Node000016"><a xlink:title=" ">
<path fill="none" stroke="#63b8ff" d="M482.72,-192.81C497.09,-190.96 512.77,-188.95 528.21,-186.97"/>
<polygon fill="#63b8ff" stroke="#63b8ff" points="528.36,-190.35 537.83,-185.6 527.47,-183.41 528.36,-190.35"/>
</a>
</g>
</g>
<!-- Node22&#45;&gt;Node16 -->
<g id="edge30_Node000022_Node000016" class="edge">
<title>Node22&#45;&gt;Node16</title>
<g id="a_edge30_Node000022_Node000016"><a xlink:title=" ">
<path fill="none" stroke="#63b8ff" d="M485.49,-331.67C491.23,-329.03 496.75,-325.96 501.75,-322.41 523.48,-306.95 521.34,-295.42 537.75,-274.41 557.97,-248.52 581.78,-219.41 598.23,-199.49"/>
<polygon fill="#63b8ff" stroke="#63b8ff" points="601.55,-201.97 605.23,-192.03 596.16,-197.5 601.55,-201.97"/>
</a>
</g>
</g>
<!-- Node23 -->
<g id="Node000023" class="node">
<title>Node23</title>
<g id="a_Node000023"><a xlink:href="../../df/d1a/classnlohmann_1_1detail_1_1binary__writer.html#a29b3e0f83a8e5f2307804023109ba2c9" target="_top" xlink:title=" ">
<polygon fill="white" stroke="#666666" points="684.25,-362.66 554.25,-362.66 554.25,-332.16 684.25,-332.16 684.25,-362.66"/>
<text text-anchor="start" x="562.25" y="-349.16" font-family="Helvetica,sans-Serif" font-size="10.00">nlohmann::detail::binary</text>
<text text-anchor="middle" x="619.25" y="-337.91" font-family="Helvetica,sans-Serif" font-size="10.00">_writer::write_bson_object</text>
</a>
</g>
</g>
<!-- Node22&#45;&gt;Node23 -->
<g id="edge31_Node000022_Node000023" class="edge">
<title>Node22&#45;&gt;Node23</title>
<g id="a_edge31_Node000022_Node000023"><a xlink:title=" ">
<path fill="none" stroke="#63b8ff" d="M501.31,-347.41C515.1,-347.41 529.44,-347.41 543.16,-347.41"/>
<polygon fill="#63b8ff" stroke="#63b8ff" points="543.01,-350.91 553.01,-347.41 543.01,-343.91 543.01,-350.91"/>
</a>
</g>
</g>
<!-- Node23&#45;&gt;Node10 -->
<g id="edge32_Node000023_Node000010" class="edge">
<title>Node23&#45;&gt;Node10</title>
<g id="a_edge32_Node000023_Node000010"><a xlink:title=" ">
<path fill="none" stroke="#63b8ff" d="M684.52,-360.9C697.79,-363.68 711.95,-366.65 725.82,-369.56"/>
<polygon fill="#63b8ff" stroke="#63b8ff" points="724.85,-373.14 735.35,-371.77 726.28,-366.29 724.85,-373.14"/>
</a>
</g>
</g>
<!-- Node23&#45;&gt;Node13 -->
<g id="edge33_Node000023_Node000013" class="edge">
<title>Node23&#45;&gt;Node13</title>
<g id="a_edge33_Node000023_Node000013"><a xlink:title=" ">
<path fill="none" stroke="#63b8ff" d="M684.41,-332.34C690.23,-329.57 695.79,-326.29 700.75,-322.41 754.06,-280.7 787.48,-205.44 802.17,-166.03"/>
<polygon fill="#63b8ff" stroke="#63b8ff" points="805.71,-167.52 805.81,-156.93 799.13,-165.15 805.71,-167.52"/>
</a>
</g>
</g>
<!-- Node23&#45;&gt;Node14 -->
<g id="edge34_Node000023_Node000014" class="edge">
<title>Node23&#45;&gt;Node14</title>
<g id="a_edge34_Node000023_Node000014"><a xlink:title=" ">
<path fill="none" stroke="#63b8ff" d="M579.35,-363.14C523.74,-382.99 419.78,-410.17 343.25,-371.41 292.83,-345.87 260.27,-284.46 245.18,-249.63"/>
<polygon fill="#63b8ff" stroke="#63b8ff" points="248.14,-248.63 241.06,-240.74 241.68,-251.32 248.14,-248.63"/>
</a>
</g>
</g>
<!-- Node24&#45;&gt;Node16 -->
<g id="edge36_Node000024_Node000016" class="edge">
<title>Node24&#45;&gt;Node16</title>
<g id="a_edge36_Node000024_Node000016"><a xlink:title=" ">
<path fill="none" stroke="#63b8ff" d="M486.73,-159.2C500.01,-160.84 514.25,-162.59 528.29,-164.32"/>
<polygon fill="#63b8ff" stroke="#63b8ff" points="527.61,-167.89 537.97,-165.64 528.47,-160.94 527.61,-167.89"/>
</a>
</g>
</g>
<!-- Node25&#45;&gt;Node6 -->
<g id="edge38_Node000025_Node000006" class="edge">
<title>Node25&#45;&gt;Node6</title>
<g id="a_edge38_Node000025_Node000006"><a xlink:title=" ">
<path fill="none" stroke="#63b8ff" d="M494.22,-424.04C552.07,-419.36 634.8,-419.62 700.75,-447.41 739.89,-463.9 773.83,-500.74 793.33,-525.33"/>
<polygon fill="#63b8ff" stroke="#63b8ff" points="790.96,-526.99 799.84,-532.77 796.5,-522.72 790.96,-526.99"/>
</a>
</g>
</g>
<!-- Node25&#45;&gt;Node16 -->
<g id="edge39_Node000025_Node000016" class="edge">
<title>Node25&#45;&gt;Node16</title>
<g id="a_edge39_Node000025_Node000016"><a xlink:title=" ">
<path fill="none" stroke="#63b8ff" d="M449.83,-417.88C466.68,-406.79 487.9,-390.48 501.75,-371.41 528.77,-334.2 514.94,-314.34 537.75,-274.41 553.83,-246.26 577.83,-217.94 595.44,-198.85"/>
<polygon fill="#63b8ff" stroke="#63b8ff" points="597.51,-201.69 601.8,-192.01 592.4,-196.91 597.51,-201.69"/>
</a>
</g>
</g>
</g>
</svg>
