<?xml version="1.0" encoding="UTF-8" standalone="no"?>
<!DOCTYPE svg PUBLIC "-//W3C//DTD SVG 1.1//EN"
 "http://www.w3.org/Graphics/SVG/1.1/DTD/svg11.dtd">
<!-- Generated by graphviz version 8.1.0 (20230707.0739)
 -->
<!-- Title: Slic3r::GUI::ObjectTableSettings::ValueChanged Pages: 1 -->
<svg width="636pt" height="137pt"
 viewBox="0.00 0.00 636.00 136.50" xmlns="http://www.w3.org/2000/svg" xmlns:xlink="http://www.w3.org/1999/xlink">
<g id="graph0" class="graph" transform="scale(1 1) rotate(0) translate(4 132.5)">
<title>Slic3r::GUI::ObjectTableSettings::ValueChanged</title>
<!-- Node1 -->
<g id="Node000001" class="node">
<title>Node1</title>
<g id="a_Node000001"><a xlink:title=" ">
<polygon fill="#999999" stroke="#666666" points="628,-103.5 505.5,-103.5 505.5,-73 628,-73 628,-103.5"/>
<text text-anchor="start" x="513.5" y="-90" font-family="Helvetica,sans-Serif" font-size="10.00">Slic3r::GUI::ObjectTable</text>
<text text-anchor="middle" x="566.75" y="-78.75" font-family="Helvetica,sans-Serif" font-size="10.00">Settings::ValueChanged</text>
</a>
</g>
</g>
<!-- Node2 -->
<g id="Node000002" class="node">
<title>Node2</title>
<g id="a_Node000002"><a xlink:href="../../d1/d46/class_slic3r_1_1_g_u_i_1_1_object_grid_table.html#a9e29d54dba058ae271516aa5e3ef36f8" target="_top" xlink:title=" ">
<polygon fill="white" stroke="#666666" points="469.5,-128.5 329,-128.5 329,-98 469.5,-98 469.5,-128.5"/>
<text text-anchor="start" x="337" y="-115" font-family="Helvetica,sans-Serif" font-size="10.00">Slic3r::GUI::ObjectGridTable</text>
<text text-anchor="middle" x="399.25" y="-103.75" font-family="Helvetica,sans-Serif" font-size="10.00">::OnCellLeftClick</text>
</a>
</g>
</g>
<!-- Node1&#45;&gt;Node2 -->
<g id="edge1_Node000001_Node000002" class="edge">
<title>Node1&#45;&gt;Node2</title>
<g id="a_edge1_Node000001_Node000002"><a xlink:title=" ">
<path fill="none" stroke="#63b8ff" d="M494.19,-99.06C486.13,-100.28 477.93,-101.52 469.89,-102.73"/>
<polygon fill="#63b8ff" stroke="#63b8ff" points="494.7,-102.37 504.06,-97.42 493.65,-95.45 494.7,-102.37"/>
</a>
</g>
</g>
<!-- Node4 -->
<g id="Node000004" class="node">
<title>Node4</title>
<g id="a_Node000004"><a xlink:href="../../d1/d46/class_slic3r_1_1_g_u_i_1_1_object_grid_table.html#a35a1f4ad120121426bb23e1c7515a6b2" target="_top" xlink:title=" ">
<polygon fill="white" stroke="#666666" points="469.5,-79.5 329,-79.5 329,-49 469.5,-49 469.5,-79.5"/>
<text text-anchor="start" x="337" y="-66" font-family="Helvetica,sans-Serif" font-size="10.00">Slic3r::GUI::ObjectGridTable</text>
<text text-anchor="middle" x="399.25" y="-54.75" font-family="Helvetica,sans-Serif" font-size="10.00">::OnCellValueChanged</text>
</a>
</g>
</g>
<!-- Node1&#45;&gt;Node4 -->
<g id="edge3_Node000001_Node000004" class="edge">
<title>Node1&#45;&gt;Node4</title>
<g id="a_edge3_Node000001_Node000004"><a xlink:title=" ">
<path fill="none" stroke="#63b8ff" d="M494.19,-77.87C486.13,-76.7 477.93,-75.51 469.89,-74.35"/>
<polygon fill="#63b8ff" stroke="#63b8ff" points="493.66,-81.48 504.06,-79.45 494.67,-74.55 493.66,-81.48"/>
</a>
</g>
</g>
<!-- Node3 -->
<g id="Node000003" class="node">
<title>Node3</title>
<g id="a_Node000003"><a xlink:href="../../da/d6c/class_slic3r_1_1_g_u_i_1_1_object_table_panel.html#ab6d6c7914ac88b05fbf0988728027899" target="_top" xlink:title=" ">
<polygon fill="white" stroke="#666666" points="284.38,-128.5 161.88,-128.5 161.88,-98 284.38,-98 284.38,-128.5"/>
<text text-anchor="start" x="169.88" y="-115" font-family="Helvetica,sans-Serif" font-size="10.00">Slic3r::GUI::ObjectTable</text>
<text text-anchor="middle" x="223.12" y="-103.75" font-family="Helvetica,sans-Serif" font-size="10.00">Panel::OnCellLeftClick</text>
</a>
</g>
</g>
<!-- Node2&#45;&gt;Node3 -->
<g id="edge2_Node000002_Node000003" class="edge">
<title>Node2&#45;&gt;Node3</title>
<g id="a_edge2_Node000002_Node000003"><a xlink:title=" ">
<path fill="none" stroke="#63b8ff" d="M317.71,-113.25C306.67,-113.25 295.48,-113.25 284.87,-113.25"/>
<polygon fill="#63b8ff" stroke="#63b8ff" points="317.68,-116.75 327.68,-113.25 317.68,-109.75 317.68,-116.75"/>
</a>
</g>
</g>
<!-- Node5 -->
<g id="Node000005" class="node">
<title>Node5</title>
<g id="a_Node000005"><a xlink:href="../../da/d6c/class_slic3r_1_1_g_u_i_1_1_object_table_panel.html#a6d4fcdac89b0da564502aa400269bdd4" target="_top" xlink:title=" ">
<polygon fill="white" stroke="#666666" points="293,-79.5 153.25,-79.5 153.25,-49 293,-49 293,-79.5"/>
<text text-anchor="start" x="161.25" y="-66" font-family="Helvetica,sans-Serif" font-size="10.00">Slic3r::GUI::ObjectTable</text>
<text text-anchor="middle" x="223.12" y="-54.75" font-family="Helvetica,sans-Serif" font-size="10.00">Panel::OnCellValueChanged</text>
</a>
</g>
</g>
<!-- Node4&#45;&gt;Node5 -->
<g id="edge4_Node000004_Node000005" class="edge">
<title>Node4&#45;&gt;Node5</title>
<g id="a_edge4_Node000004_Node000005"><a xlink:title=" ">
<path fill="none" stroke="#63b8ff" d="M317.93,-64.25C309.7,-64.25 301.39,-64.25 293.3,-64.25"/>
<polygon fill="#63b8ff" stroke="#63b8ff" points="317.68,-67.75 327.68,-64.25 317.68,-60.75 317.68,-67.75"/>
</a>
</g>
</g>
<!-- Node6 -->
<g id="Node000006" class="node">
<title>Node6</title>
<g id="a_Node000006"><a xlink:href="../../d9/d63/class_slic3r_1_1_g_u_i_1_1_object_grid.html#acde024a9b600b61c3ffb9937f6ed4f72" target="_top" xlink:title=" ">
<polygon fill="white" stroke="#666666" points="281.75,-30.5 164.5,-30.5 164.5,0 281.75,0 281.75,-30.5"/>
<text text-anchor="start" x="172.5" y="-17" font-family="Helvetica,sans-Serif" font-size="10.00">Slic3r::GUI::ObjectGrid</text>
<text text-anchor="middle" x="223.12" y="-5.75" font-family="Helvetica,sans-Serif" font-size="10.00">::paste_data</text>
</a>
</g>
</g>
<!-- Node4&#45;&gt;Node6 -->
<g id="edge5_Node000004_Node000006" class="edge">
<title>Node4&#45;&gt;Node6</title>
<g id="a_edge5_Node000004_Node000006"><a xlink:title=" ">
<path fill="none" stroke="#63b8ff" d="M332.16,-45.65C314.99,-40.82 296.66,-35.66 280.07,-30.99"/>
<polygon fill="#63b8ff" stroke="#63b8ff" points="331.1,-49.27 341.68,-48.61 333,-42.53 331.1,-49.27"/>
</a>
</g>
</g>
<!-- Node7 -->
<g id="Node000007" class="node">
<title>Node7</title>
<g id="a_Node000007"><a xlink:href="../../d9/d63/class_slic3r_1_1_g_u_i_1_1_object_grid.html#a2ede49741d002ff41c95b8d89ee900a2" target="_top" xlink:title=" ">
<polygon fill="white" stroke="#666666" points="117.25,-30.5 0,-30.5 0,0 117.25,0 117.25,-30.5"/>
<text text-anchor="start" x="8" y="-17" font-family="Helvetica,sans-Serif" font-size="10.00">Slic3r::GUI::ObjectGrid</text>
<text text-anchor="middle" x="58.62" y="-5.75" font-family="Helvetica,sans-Serif" font-size="10.00">::OnKeyDown</text>
</a>
</g>
</g>
<!-- Node6&#45;&gt;Node7 -->
<g id="edge6_Node000006_Node000007" class="edge">
<title>Node6&#45;&gt;Node7</title>
<g id="a_edge6_Node000006_Node000007"><a xlink:title=" ">
<path fill="none" stroke="#63b8ff" d="M153.56,-15.25C141.64,-15.25 129.34,-15.25 117.74,-15.25"/>
<polygon fill="#63b8ff" stroke="#63b8ff" points="153.38,-18.75 163.38,-15.25 153.38,-11.75 153.38,-18.75"/>
</a>
</g>
</g>
</g>
</svg>
