<?xml version="1.0" encoding="UTF-8" standalone="no"?>
<!DOCTYPE svg PUBLIC "-//W3C//DTD SVG 1.1//EN"
 "http://www.w3.org/Graphics/SVG/1.1/DTD/svg11.dtd">
<!-- Generated by graphviz version 8.1.0 (20230707.0739)
 -->
<!-- Title: Slic3r::GUI::GLGizmoMmuSegmentation::on_set_state Pages: 1 -->
<!--zoomable 300 -->

<svg id="main" version="1.1" xmlns="http://www.w3.org/2000/svg" xmlns:xlink="http://www.w3.org/1999/xlink" xml:space="preserve" onload="init(evt)">
<style type="text/css"><![CDATA[
.node, .edge {opacity: 0.7;}
.node.selected, .edge.selected {opacity: 1;}
.edge:hover path { stroke: red; }
.edge:hover polygon { stroke: red; fill: red; }
]]></style>

<defs>
  <circle id="rim" cx="0" cy="0" r="7"/>
  <circle id="rim2" cx="0" cy="0" r="3.5"/>
  <g id="zoomPlus">
    <use xlink:href="#rim" fill="#404040"><set attributeName="fill" to="#808080" begin="zoomplus.mouseover" end="zoomplus.mouseout"/></use>
    <path d="M-4,0h8M0,-4v8" fill="none" stroke="white" stroke-width="1.5" pointer-events="none"/>
  </g>
  <g id="zoomMin">
    <use xlink:href="#rim" fill="#404040"><set attributeName="fill" to="#808080" begin="zoomminus.mouseover" end="zoomminus.mouseout"/></use>
    <path d="M-4,0h8" fill="none" stroke="white" stroke-width="1.5" pointer-events="none"/>
  </g>
  <g id="arrowUp" transform="translate(30 24)">
    <use xlink:href="#rim"/>
    <path pointer-events="none" fill="none" stroke="white" stroke-width="1.5" d="M0,-3.0v7 M-2.5,-0.5L0,-3.0L2.5,-0.5"/>
  </g>
  <g id="arrowRight" transform="rotate(90) translate(36 -43)">
    <use xlink:href="#rim"/>
    <path pointer-events="none" fill="none" stroke="white" stroke-width="1.5" d="M0,-3.0v7 M-2.5,-0.5L0,-3.0L2.5,-0.5"/>
  </g>
  <g id="arrowDown" transform="rotate(180) translate(-30 -48)">
    <use xlink:href="#rim"/>
    <path pointer-events="none" fill="none" stroke="white" stroke-width="1.5" d="M0,-3.0v7 M-2.5,-0.5L0,-3.0L2.5,-0.5"/>
  </g>
  <g id="arrowLeft" transform="rotate(270) translate(-36 17)">
    <use xlink:href="#rim"/>
    <path pointer-events="none" fill="none" stroke="white" stroke-width="1.5" d="M0,-3.0v7 M-2.5,-0.5L0,-3.0L2.5,-0.5"/>
  </g>
  <g id="resetDef">
    <use xlink:href="#rim2" fill="#404040"><set attributeName="fill" to="#808080" begin="reset.mouseover" end="reset.mouseout"/></use>
  </g>
</defs>
<script type="application/ecmascript">
var viewWidth = 562;
var viewHeight = 300;
var sectionId = 'dynsection-60';
</script>
<script type="application/ecmascript" xlink:href="../../svg.min.js"/>
<svg id="graph" class="graph">
<g id="viewport">
<title>Slic3r::GUI::GLGizmoMmuSegmentation::on_set_state</title>
<!-- Node1 -->
<g id="Node000001" class="node">
<title>Node1</title>
<g id="a_Node000001"><a xlink:title=" ">
<polygon fill="#999999" stroke="#666666" points="193.75,-158.5 0,-158.5 0,-128 193.75,-128 193.75,-158.5"/>
<text text-anchor="start" x="8" y="-145" font-family="Helvetica,sans-Serif" font-size="10.00">Slic3r::GUI::GLGizmoMmuSegmentation</text>
<text text-anchor="middle" x="96.88" y="-133.75" font-family="Helvetica,sans-Serif" font-size="10.00">::on_set_state</text>
</a>
</g>
</g>
<!-- Node2 -->
<g id="Node000002" class="node">
<title>Node2</title>
<g id="a_Node000002"><a xlink:href="../../d1/d3c/class_slic3r_1_1_g_u_i_1_1_g_l_gizmo_base.html#ae0b9eee3e809a66cf69399576a6553f2" target="_top" xlink:title=" ">
<polygon fill="white" stroke="#666666" points="369.12,-291.5 234.62,-291.5 234.62,-261 369.12,-261 369.12,-291.5"/>
<text text-anchor="start" x="242.62" y="-278" font-family="Helvetica,sans-Serif" font-size="10.00">Slic3r::GUI::GLGizmoBase</text>
<text text-anchor="middle" x="301.88" y="-266.75" font-family="Helvetica,sans-Serif" font-size="10.00">::get_state</text>
</a>
</g>
</g>
<!-- Node1&#45;&gt;Node2 -->
<g id="edge1_Node000001_Node000002" class="edge">
<title>Node1&#45;&gt;Node2</title>
<g id="a_edge1_Node000001_Node000002"><a xlink:title=" ">
<path fill="none" stroke="#63b8ff" d="M112.72,-158.72C135.79,-181.95 182.52,-225.95 229.75,-252.25 232.28,-253.66 234.9,-255 237.59,-256.28"/>
<polygon fill="#63b8ff" stroke="#63b8ff" points="235.95,-259.83 246.51,-260.64 238.77,-253.42 235.95,-259.83"/>
</a>
</g>
</g>
<!-- Node3 -->
<g id="Node000003" class="node">
<title>Node3</title>
<g id="a_Node000003"><a xlink:href="../../d6/df8/class_slic3r_1_1_g_u_i_1_1_common_gizmos_data_objects_1_1_selection_info.html#aa69880ef0882356aabbed81272cf8559" target="_top" xlink:title=" ">
<polygon fill="white" stroke="#666666" points="374,-243.12 229.75,-243.12 229.75,-201.38 374,-201.38 374,-243.12"/>
<text text-anchor="start" x="237.75" y="-229.62" font-family="Helvetica,sans-Serif" font-size="10.00">Slic3r::GUI::CommonGizmos</text>
<text text-anchor="start" x="237.75" y="-218.38" font-family="Helvetica,sans-Serif" font-size="10.00">DataObjects::SelectionInfo</text>
<text text-anchor="middle" x="301.88" y="-207.12" font-family="Helvetica,sans-Serif" font-size="10.00">::model_object</text>
</a>
</g>
</g>
<!-- Node1&#45;&gt;Node3 -->
<g id="edge2_Node000001_Node000003" class="edge">
<title>Node1&#45;&gt;Node3</title>
<g id="a_edge2_Node000001_Node000003"><a xlink:title=" ">
<path fill="none" stroke="#63b8ff" d="M137.98,-158.86C165.92,-169.73 203.81,-184.48 236.01,-197.01"/>
<polygon fill="#63b8ff" stroke="#63b8ff" points="234.66,-200.63 245.25,-200.99 237.2,-194.1 234.66,-200.63"/>
</a>
</g>
</g>
<!-- Node4 -->
<g id="Node000004" class="node">
<title>Node4</title>
<g id="a_Node000004"><a xlink:href="../../df/d94/class_slic3r_1_1_g_u_i_1_1_g_l_gizmo_painter_base.html#a26e35baea98a563250e24c593964f919" target="_top" xlink:title=" ">
<polygon fill="white" stroke="#666666" points="373.25,-183.5 230.5,-183.5 230.5,-153 373.25,-153 373.25,-183.5"/>
<text text-anchor="start" x="238.5" y="-170" font-family="Helvetica,sans-Serif" font-size="10.00">Slic3r::GUI::GLGizmoPainter</text>
<text text-anchor="middle" x="301.88" y="-158.75" font-family="Helvetica,sans-Serif" font-size="10.00">Base::on_set_state</text>
</a>
</g>
</g>
<!-- Node1&#45;&gt;Node4 -->
<g id="edge3_Node000001_Node000004" class="edge">
<title>Node1&#45;&gt;Node4</title>
<g id="a_edge3_Node000001_Node000004"><a xlink:title=" ">
<path fill="none" stroke="#63b8ff" d="M194.02,-155.09C202.5,-156.14 211.03,-157.19 219.37,-158.21"/>
<polygon fill="#63b8ff" stroke="#63b8ff" points="218.86,-161.8 229.21,-159.55 219.72,-154.85 218.86,-161.8"/>
</a>
</g>
</g>
<!-- Node8 -->
<g id="Node000008" class="node">
<title>Node8</title>
<g id="a_Node000008"><a xlink:href="../../d0/d2b/class_slic3r_1_1_g_u_i_1_1_g_l_canvas3_d.html#a67119cdecc52aa689df10343611ba861" target="_top" xlink:title=" ">
<polygon fill="white" stroke="#666666" points="366.88,-134.5 236.88,-134.5 236.88,-104 366.88,-104 366.88,-134.5"/>
<text text-anchor="start" x="244.88" y="-121" font-family="Helvetica,sans-Serif" font-size="10.00">Slic3r::GUI::GLCanvas3D</text>
<text text-anchor="middle" x="301.88" y="-109.75" font-family="Helvetica,sans-Serif" font-size="10.00">::post_event</text>
</a>
</g>
</g>
<!-- Node1&#45;&gt;Node8 -->
<g id="edge7_Node000001_Node000008" class="edge">
<title>Node1&#45;&gt;Node8</title>
<g id="a_edge7_Node000001_Node000008"><a xlink:title=" ">
<path fill="none" stroke="#63b8ff" d="M194.02,-131.88C204.75,-130.61 215.55,-129.34 225.96,-128.11"/>
<polygon fill="#63b8ff" stroke="#63b8ff" points="226.11,-131.5 235.63,-126.85 225.29,-124.54 226.11,-131.5"/>
</a>
</g>
</g>
<!-- Node9 -->
<g id="Node000009" class="node">
<title>Node9</title>
<g id="a_Node000009"><a xlink:href="../../de/db8/namespace_slic3r.html#aedb397bfcaf587fbe04dbc03a56d27a8" target="_top" xlink:title=" ">
<polygon fill="white" stroke="#666666" points="366.12,-67.88 237.62,-67.88 237.62,-48.62 366.12,-48.62 366.12,-67.88"/>
<text text-anchor="middle" x="301.88" y="-54.38" font-family="Helvetica,sans-Serif" font-size="10.00">Slic3r::save_object_mesh</text>
</a>
</g>
</g>
<!-- Node1&#45;&gt;Node9 -->
<g id="edge8_Node000001_Node000009" class="edge">
<title>Node1&#45;&gt;Node9</title>
<g id="a_edge8_Node000001_Node000009"><a xlink:title=" ">
<path fill="none" stroke="#63b8ff" d="M135.11,-127.66C172.72,-111.91 230.32,-87.79 266.77,-72.53"/>
<polygon fill="#63b8ff" stroke="#63b8ff" points="268.03,-75.38 275.91,-68.29 265.33,-68.92 268.03,-75.38"/>
</a>
</g>
</g>
<!-- Node10 -->
<g id="Node000010" class="node">
<title>Node10</title>
<g id="a_Node000010"><a xlink:href="../../d5/d4e/class_slic3r_1_1_g_u_i_1_1_common_gizmos_data_pool.html#a426216e4d0ab24cbf377b4bbfcf99ad4" target="_top" xlink:title=" ">
<polygon fill="white" stroke="#666666" points="374,-30.5 229.75,-30.5 229.75,0 374,0 374,-30.5"/>
<text text-anchor="start" x="237.75" y="-17" font-family="Helvetica,sans-Serif" font-size="10.00">Slic3r::GUI::CommonGizmos</text>
<text text-anchor="middle" x="301.88" y="-5.75" font-family="Helvetica,sans-Serif" font-size="10.00">DataPool::selection_info</text>
</a>
</g>
</g>
<!-- Node1&#45;&gt;Node10 -->
<g id="edge10_Node000001_Node000010" class="edge">
<title>Node1&#45;&gt;Node10</title>
<g id="a_edge10_Node000001_Node000010"><a xlink:title=" ">
<path fill="none" stroke="#63b8ff" d="M113.64,-127.81C137.15,-105.51 183.61,-64.26 229.75,-39.25 232.29,-37.87 234.93,-36.55 237.63,-35.29"/>
<polygon fill="#63b8ff" stroke="#63b8ff" points="238.8,-38.17 246.58,-30.98 236.01,-31.74 238.8,-38.17"/>
</a>
</g>
</g>
<!-- Node5 -->
<g id="Node000005" class="node">
<title>Node5</title>
<g id="a_Node000005"><a xlink:href="../../d0/d2b/class_slic3r_1_1_g_u_i_1_1_g_l_canvas3_d.html#ae78f5459f862198d84d3624697bc190e" target="_top" xlink:title=" ">
<polygon fill="white" stroke="#666666" points="547.12,-232.5 417.12,-232.5 417.12,-202 547.12,-202 547.12,-232.5"/>
<text text-anchor="start" x="425.12" y="-219" font-family="Helvetica,sans-Serif" font-size="10.00">Slic3r::GUI::GLCanvas3D</text>
<text text-anchor="middle" x="482.12" y="-207.75" font-family="Helvetica,sans-Serif" font-size="10.00">::get_selection</text>
</a>
</g>
</g>
<!-- Node4&#45;&gt;Node5 -->
<g id="edge4_Node000004_Node000005" class="edge">
<title>Node4&#45;&gt;Node5</title>
<g id="a_edge4_Node000004_Node000005"><a xlink:title=" ">
<path fill="none" stroke="#63b8ff" d="M359.76,-183.89C376.88,-188.59 395.84,-193.8 413.58,-198.68"/>
<polygon fill="#63b8ff" stroke="#63b8ff" points="412.29,-202.23 422.86,-201.51 414.14,-195.48 412.29,-202.23"/>
</a>
</g>
</g>
<!-- Node6 -->
<g id="Node000006" class="node">
<title>Node6</title>
<g id="a_Node000006"><a xlink:href="../../df/d94/class_slic3r_1_1_g_u_i_1_1_g_l_gizmo_painter_base.html#a1919e522aef67fb6529ce71dc2cad93a" target="_top" xlink:title=" ">
<polygon fill="white" stroke="#666666" points="553.5,-183.5 410.75,-183.5 410.75,-153 553.5,-153 553.5,-183.5"/>
<text text-anchor="start" x="418.75" y="-170" font-family="Helvetica,sans-Serif" font-size="10.00">Slic3r::GUI::GLGizmoPainter</text>
<text text-anchor="middle" x="482.12" y="-158.75" font-family="Helvetica,sans-Serif" font-size="10.00">Base::on_opening</text>
</a>
</g>
</g>
<!-- Node4&#45;&gt;Node6 -->
<g id="edge5_Node000004_Node000006" class="edge">
<title>Node4&#45;&gt;Node6</title>
<g id="a_edge5_Node000004_Node000006"><a xlink:title=" ">
<path fill="none" stroke="#63b8ff" d="M373.58,-168.25C382.12,-168.25 390.9,-168.25 399.58,-168.25"/>
<polygon fill="#63b8ff" stroke="#63b8ff" points="399.51,-171.75 409.51,-168.25 399.51,-164.75 399.51,-171.75"/>
</a>
</g>
</g>
<!-- Node7 -->
<g id="Node000007" class="node">
<title>Node7</title>
<g id="a_Node000007"><a xlink:href="../../df/d94/class_slic3r_1_1_g_u_i_1_1_g_l_gizmo_painter_base.html#ac3d27b6ac5aba3dd1ec0bd91b90a2e0a" target="_top" xlink:title=" ">
<polygon fill="white" stroke="#666666" points="553.5,-134.5 410.75,-134.5 410.75,-104 553.5,-104 553.5,-134.5"/>
<text text-anchor="start" x="418.75" y="-121" font-family="Helvetica,sans-Serif" font-size="10.00">Slic3r::GUI::GLGizmoPainter</text>
<text text-anchor="middle" x="482.12" y="-109.75" font-family="Helvetica,sans-Serif" font-size="10.00">Base::on_shutdown</text>
</a>
</g>
</g>
<!-- Node4&#45;&gt;Node7 -->
<g id="edge6_Node000004_Node000007" class="edge">
<title>Node4&#45;&gt;Node7</title>
<g id="a_edge6_Node000004_Node000007"><a xlink:title=" ">
<path fill="none" stroke="#63b8ff" d="M359.76,-152.61C376.88,-147.91 395.84,-142.7 413.58,-137.82"/>
<polygon fill="#63b8ff" stroke="#63b8ff" points="414.14,-141.02 422.86,-134.99 412.29,-134.27 414.14,-141.02"/>
</a>
</g>
</g>
<!-- Node9&#45;&gt;Node9 -->
<g id="edge9_Node000009_Node000009" class="edge">
<title>Node9&#45;&gt;Node9</title>
<g id="a_edge9_Node000009_Node000009"><a xlink:title=" ">
<path fill="none" stroke="#63b8ff" d="M273.66,-68.16C260.78,-76.77 270.19,-85.88 301.88,-85.88 321.18,-85.88 332.22,-82.49 334.98,-77.9"/>
<polygon fill="#63b8ff" stroke="#63b8ff" points="337.71,-76.53 330.09,-69.16 331.45,-79.67 337.71,-76.53"/>
</a>
</g>
</g>
<!-- Node11 -->
<g id="Node000011" class="node">
<title>Node11</title>
<g id="a_Node000011"><a xlink:href="../../dc/de9/class_slic3r_1_1_g_u_i_1_1_common_gizmos_data_base.html#a857bb436ea2985183ee7d258d015b90b" target="_top" xlink:title=" ">
<polygon fill="white" stroke="#666666" points="554.25,-30.5 410,-30.5 410,0 554.25,0 554.25,-30.5"/>
<text text-anchor="start" x="418" y="-17" font-family="Helvetica,sans-Serif" font-size="10.00">Slic3r::GUI::CommonGizmos</text>
<text text-anchor="middle" x="482.12" y="-5.75" font-family="Helvetica,sans-Serif" font-size="10.00">DataBase::is_valid</text>
</a>
</g>
</g>
<!-- Node10&#45;&gt;Node11 -->
<g id="edge11_Node000010_Node000011" class="edge">
<title>Node10&#45;&gt;Node11</title>
<g id="a_edge11_Node000010_Node000011"><a xlink:title=" ">
<path fill="none" stroke="#63b8ff" d="M374.35,-15.25C382.34,-15.25 390.53,-15.25 398.64,-15.25"/>
<polygon fill="#63b8ff" stroke="#63b8ff" points="398.63,-18.75 408.63,-15.25 398.63,-11.75 398.63,-18.75"/>
</a>
</g>
</g>
</g>
</svg>

<g id="navigator" transform="translate(0 0)" fill="#404254">
  <rect fill="#f2f5e9" fill-opacity="0.5" stroke="#606060" stroke-width=".5" x="0" y="0" width="60" height="60"/>
  <use id="zoomplus" xlink:href="#zoomPlus" x="17" y="9" onmousedown="handleZoom(evt,'in')"/>
  <use id="zoomminus" xlink:href="#zoomMin" x="42" y="9" onmousedown="handleZoom(evt,'out')"/>
  <use id="reset" xlink:href="#resetDef" x="30" y="36" onmousedown="handleReset()"/>
   <use id="arrowup" xlink:href="#arrowUp" x="0" y="0" onmousedown="handlePan(0,-1)"/>
  <use id="arrowright" xlink:href="#arrowRight" x="0" y="0" onmousedown="handlePan(1,0)"/>
  <use id="arrowdown" xlink:href="#arrowDown" x="0" y="0" onmousedown="handlePan(0,1)"/>
  <use id="arrowleft" xlink:href="#arrowLeft" x="0" y="0" onmousedown="handlePan(-1,0)"/>
</g>
<svg viewBox="0 0 15 15" width="100%" height="30px" preserveAspectRatio="xMaxYMin meet">
 <g id="arrow_out" transform="scale(0.3 0.3)">
  <a xlink:href="class_slic3r_1_1_g_u_i_1_1_g_l_gizmo_mmu_segmentation_a9dbee8f7a23607ca4918210cf8568454_cgraph_org.svg" target="_base">
   <rect id="button" ry="5" rx="5" y="6" x="6" height="38" width="38"
        fill="#f2f5e9" fill-opacity="0.5" stroke="#606060" stroke-width="1.0"/>
   <path id="arrow"
     d="M 11.500037,31.436501 C 11.940474,20.09759 22.043105,11.32322 32.158766,21.979434 L 37.068811,17.246167 C 37.068811,17.246167 37.088388,32 37.088388,32 L 22.160133,31.978069 C 22.160133,31.978069 26.997745,27.140456 26.997745,27.140456 C 18.528582,18.264221 13.291696,25.230495 11.500037,31.436501 z"
     style="fill:#404040;"/>
  </a>
 </g>
</svg>

<style type='text/css'>
<![CDATA[
[data-mouse-over-selected='false'] { opacity: 0.7; }
[data-mouse-over-selected='true']  { opacity: 1.0; }
]]>
</style>
<script type="application/ecmascript"><![CDATA[
document.addEventListener('DOMContentLoaded', (event) => {
  highlightEdges();
  highlightAdjacentNodes();
});
]]></script>
</svg>
