<?xml version="1.0" encoding="UTF-8" standalone="no"?>
<!DOCTYPE svg PUBLIC "-//W3C//DTD SVG 1.1//EN"
 "http://www.w3.org/Graphics/SVG/1.1/DTD/svg11.dtd">
<!-- Generated by graphviz version 8.1.0 (20230707.0739)
 -->
<!-- Title: Slic3r::Geometry::convex_hull Pages: 1 -->
<svg width="494pt" height="27pt"
 viewBox="0.00 0.00 494.00 27.25" xmlns="http://www.w3.org/2000/svg" xmlns:xlink="http://www.w3.org/1999/xlink">
<g id="graph0" class="graph" transform="scale(1 1) rotate(0) translate(4 23.25)">
<title>Slic3r::Geometry::convex_hull</title>
<!-- Node1 -->
<g id="Node000001" class="node">
<title>Node1</title>
<g id="a_Node000001"><a xlink:title=" ">
<polygon fill="#999999" stroke="#666666" points="147.25,-19.25 0,-19.25 0,0 147.25,0 147.25,-19.25"/>
<text text-anchor="middle" x="73.62" y="-5.75" font-family="Helvetica,sans-Serif" font-size="10.00">Slic3r::Geometry::convex_hull</text>
</a>
</g>
</g>
<!-- Node2 -->
<g id="Node000002" class="node">
<title>Node2</title>
<g id="a_Node000002"><a xlink:href="../../d3/dfb/namespace_slic3r_1_1_geometry.html#a2562087c43e79e3256e3bc12e0dc7582" target="_top" xlink:title=" ">
<polygon fill="white" stroke="#666666" points="330.5,-19.25 183.25,-19.25 183.25,0 330.5,0 330.5,-19.25"/>
<text text-anchor="middle" x="256.88" y="-5.75" font-family="Helvetica,sans-Serif" font-size="10.00">Slic3r::Geometry::convex_hull</text>
</a>
</g>
</g>
<!-- Node1&#45;&gt;Node2 -->
<g id="edge1_Node000001_Node000002" class="edge">
<title>Node1&#45;&gt;Node2</title>
<g id="a_edge1_Node000001_Node000002"><a xlink:title=" ">
<path fill="none" stroke="#63b8ff" d="M147.56,-9.62C155.54,-9.62 163.71,-9.62 171.81,-9.62"/>
<polygon fill="#63b8ff" stroke="#63b8ff" points="171.79,-13.13 181.79,-9.62 171.79,-6.13 171.79,-13.13"/>
</a>
</g>
</g>
<!-- Node3 -->
<g id="Node000003" class="node">
<title>Node3</title>
<g id="a_Node000003"><a xlink:href="../../d3/dfb/namespace_slic3r_1_1_geometry.html#a1484db4f72abbff313b30e7f9c20eba0" target="_top" xlink:title=" ">
<polygon fill="white" stroke="#666666" points="486,-19.25 366.5,-19.25 366.5,0 486,0 486,-19.25"/>
<text text-anchor="middle" x="426.25" y="-5.75" font-family="Helvetica,sans-Serif" font-size="10.00">Slic3r::Geometry::orient</text>
</a>
</g>
</g>
<!-- Node2&#45;&gt;Node3 -->
<g id="edge2_Node000002_Node000003" class="edge">
<title>Node2&#45;&gt;Node3</title>
<g id="a_edge2_Node000002_Node000003"><a xlink:title=" ">
<path fill="none" stroke="#63b8ff" d="M330.8,-9.62C338.92,-9.62 347.17,-9.62 355.25,-9.62"/>
<polygon fill="#63b8ff" stroke="#63b8ff" points="355.13,-13.13 365.13,-9.62 355.13,-6.13 355.13,-13.13"/>
</a>
</g>
</g>
</g>
</svg>
