<?xml version="1.0" encoding="UTF-8" standalone="no"?>
<!DOCTYPE svg PUBLIC "-//W3C//DTD SVG 1.1//EN"
 "http://www.w3.org/Graphics/SVG/1.1/DTD/svg11.dtd">
<!-- Generated by graphviz version 8.1.0 (20230707.0739)
 -->
<!-- Title: qh_setduplicate Pages: 1 -->
<svg width="616pt" height="159pt"
 viewBox="0.00 0.00 615.50 159.25" xmlns="http://www.w3.org/2000/svg" xmlns:xlink="http://www.w3.org/1999/xlink">
<g id="graph0" class="graph" transform="scale(1 1) rotate(0) translate(4 155.25)">
<title>qh_setduplicate</title>
<!-- Node1 -->
<g id="Node000001" class="node">
<title>Node1</title>
<g id="a_Node000001"><a xlink:title=" ">
<polygon fill="#999999" stroke="#666666" points="84.25,-76.25 0,-76.25 0,-57 84.25,-57 84.25,-76.25"/>
<text text-anchor="middle" x="42.12" y="-62.75" font-family="Helvetica,sans-Serif" font-size="10.00">qh_setduplicate</text>
</a>
</g>
</g>
<!-- Node2 -->
<g id="Node000002" class="node">
<title>Node2</title>
<g id="a_Node000002"><a xlink:href="../../d3/d8f/mem_8c.html#a201caec0b6c546682914db7d8abe55d3" target="_top" xlink:title=" ">
<polygon fill="white" stroke="#666666" points="511.25,-57.25 437.5,-57.25 437.5,-38 511.25,-38 511.25,-57.25"/>
<text text-anchor="middle" x="474.38" y="-43.75" font-family="Helvetica,sans-Serif" font-size="10.00">qh_memalloc</text>
</a>
</g>
</g>
<!-- Node1&#45;&gt;Node2 -->
<g id="edge1_Node000001_Node000002" class="edge">
<title>Node1&#45;&gt;Node2</title>
<g id="a_edge1_Node000001_Node000002"><a xlink:title=" ">
<path fill="none" stroke="#63b8ff" d="M84.51,-70.39C151.51,-75.64 287.7,-82.83 401.5,-66.62 411.25,-65.24 421.57,-62.99 431.26,-60.52"/>
<polygon fill="#63b8ff" stroke="#63b8ff" points="432.11,-63.64 440.86,-57.66 430.29,-56.88 432.11,-63.64"/>
</a>
</g>
</g>
<!-- Node6 -->
<g id="Node000006" class="node">
<title>Node6</title>
<g id="a_Node000006"><a xlink:href="../../de/d2e/qset_8c.html#a92fbf1e7a27c1d76ee787bb458473678" target="_top" xlink:title=" ">
<polygon fill="white" stroke="#666666" points="197,-19.25 120.25,-19.25 120.25,0 197,0 197,-19.25"/>
<text text-anchor="middle" x="158.62" y="-5.75" font-family="Helvetica,sans-Serif" font-size="10.00">qh_setappend</text>
</a>
</g>
</g>
<!-- Node1&#45;&gt;Node6 -->
<g id="edge5_Node000001_Node000006" class="edge">
<title>Node1&#45;&gt;Node6</title>
<g id="a_edge5_Node000001_Node000006"><a xlink:title=" ">
<path fill="none" stroke="#63b8ff" d="M63.33,-56.57C81.24,-47.65 107.61,-34.52 127.92,-24.41"/>
<polygon fill="#63b8ff" stroke="#63b8ff" points="129.23,-27.17 136.62,-19.58 126.11,-20.91 129.23,-27.17"/>
</a>
</g>
</g>
<!-- Node11 -->
<g id="Node000011" class="node">
<title>Node11</title>
<g id="a_Node000011"><a xlink:href="../../de/d2e/qset_8c.html#abd93cd1c079ac3ceedc898d5aac0fdd9" target="_top" xlink:title=" ">
<polygon fill="white" stroke="#666666" points="401.5,-57.25 338.25,-57.25 338.25,-38 401.5,-38 401.5,-57.25"/>
<text text-anchor="middle" x="369.88" y="-43.75" font-family="Helvetica,sans-Serif" font-size="10.00">qh_setnew</text>
</a>
</g>
</g>
<!-- Node1&#45;&gt;Node11 -->
<g id="edge13_Node000001_Node000011" class="edge">
<title>Node1&#45;&gt;Node11</title>
<g id="a_edge13_Node000001_Node000011"><a xlink:title=" ">
<path fill="none" stroke="#63b8ff" d="M84.71,-64.2C147.33,-60.55 265.13,-53.68 327.58,-50.03"/>
<polygon fill="#63b8ff" stroke="#63b8ff" points="327.42,-53.49 337.2,-49.41 327.02,-46.5 327.42,-53.49"/>
</a>
</g>
</g>
<!-- Node12 -->
<g id="Node000012" class="node">
<title>Node12</title>
<g id="a_Node000012"><a xlink:href="../../de/d2e/qset_8c.html#a5bf663b8bdd3b1c91fe945b569fbf682" target="_top" xlink:title=" ">
<polygon fill="white" stroke="#666666" points="401.5,-133.25 338.25,-133.25 338.25,-114 401.5,-114 401.5,-133.25"/>
<text text-anchor="middle" x="369.88" y="-119.75" font-family="Helvetica,sans-Serif" font-size="10.00">qh_setsize</text>
</a>
</g>
</g>
<!-- Node1&#45;&gt;Node12 -->
<g id="edge14_Node000001_Node000012" class="edge">
<title>Node1&#45;&gt;Node12</title>
<g id="a_edge14_Node000001_Node000012"><a xlink:title=" ">
<path fill="none" stroke="#63b8ff" d="M61.88,-76.59C77.16,-84.23 99.51,-94.32 120.25,-99.62 191.38,-117.81 277.18,-122.44 327.13,-123.49"/>
<polygon fill="#63b8ff" stroke="#63b8ff" points="327.06,-127 337.12,-123.67 327.18,-120.01 327.06,-127"/>
</a>
</g>
</g>
<!-- Node3 -->
<g id="Node000003" class="node">
<title>Node3</title>
<g id="a_Node000003"><a xlink:href="../../de/d23/user__eg2_8c.html#a5f9e5bc131c58db28e039707aea6f6dc" target="_top" xlink:title=" ">
<polygon fill="white" stroke="#666666" points="606.75,-151.25 548,-151.25 548,-132 606.75,-132 606.75,-151.25"/>
<text text-anchor="middle" x="577.38" y="-137.75" font-family="Helvetica,sans-Serif" font-size="10.00">qh_errexit</text>
</a>
</g>
</g>
<!-- Node2&#45;&gt;Node3 -->
<g id="edge2_Node000002_Node000003" class="edge">
<title>Node2&#45;&gt;Node3</title>
<g id="a_edge2_Node000002_Node000003"><a xlink:title=" ">
<path fill="none" stroke="#63b8ff" d="M486.18,-57.68C503.27,-73.59 536.73,-104.73 557.74,-124.28"/>
<polygon fill="#63b8ff" stroke="#63b8ff" points="554.94,-126.39 564.64,-130.64 559.71,-121.26 554.94,-126.39"/>
</a>
</g>
</g>
<!-- Node4 -->
<g id="Node000004" class="node">
<title>Node4</title>
<g id="a_Node000004"><a xlink:href="../../d6/df4/testqset_8c.html#aca4b59cdb8152b580cb9d258a849288d" target="_top" xlink:title=" ">
<polygon fill="white" stroke="#666666" points="605.62,-94.25 549.12,-94.25 549.12,-75 605.62,-75 605.62,-94.25"/>
<text text-anchor="middle" x="577.38" y="-80.75" font-family="Helvetica,sans-Serif" font-size="10.00">qh_fprintf</text>
</a>
</g>
</g>
<!-- Node2&#45;&gt;Node4 -->
<g id="edge3_Node000002_Node000004" class="edge">
<title>Node2&#45;&gt;Node4</title>
<g id="a_edge3_Node000002_Node000004"><a xlink:title=" ">
<path fill="none" stroke="#63b8ff" d="M502.97,-57.74C514,-61.77 526.87,-66.49 538.72,-70.83"/>
<polygon fill="#63b8ff" stroke="#63b8ff" points="537.22,-74.37 547.81,-74.53 539.62,-67.8 537.22,-74.37"/>
</a>
</g>
</g>
<!-- Node5 -->
<g id="Node000005" class="node">
<title>Node5</title>
<g id="a_Node000005"><a xlink:href="../../d7/d2a/_qhull__test_8cpp.html#ac08bb4db167664631656147ac9717388" target="_top" xlink:title=" ">
<polygon fill="white" stroke="#666666" points="607.5,-57.25 547.25,-57.25 547.25,-38 607.5,-38 607.5,-57.25"/>
<text text-anchor="middle" x="577.38" y="-43.75" font-family="Helvetica,sans-Serif" font-size="10.00">qh_malloc</text>
</a>
</g>
</g>
<!-- Node2&#45;&gt;Node5 -->
<g id="edge4_Node000002_Node000005" class="edge">
<title>Node2&#45;&gt;Node5</title>
<g id="a_edge4_Node000002_Node000005"><a xlink:title=" ">
<path fill="none" stroke="#63b8ff" d="M511.55,-47.62C519.49,-47.62 527.95,-47.62 536.04,-47.62"/>
<polygon fill="#63b8ff" stroke="#63b8ff" points="535.76,-51.13 545.76,-47.62 535.76,-44.13 535.76,-51.13"/>
</a>
</g>
</g>
<!-- Node7 -->
<g id="Node000007" class="node">
<title>Node7</title>
<g id="a_Node000007"><a xlink:href="../../de/d2e/qset_8c.html#a5d523bde82212982a5cd2cd9acd66062" target="_top" xlink:title=" ">
<polygon fill="white" stroke="#666666" points="302.25,-19.25 233,-19.25 233,0 302.25,0 302.25,-19.25"/>
<text text-anchor="middle" x="267.62" y="-5.75" font-family="Helvetica,sans-Serif" font-size="10.00">qh_setlarger</text>
</a>
</g>
</g>
<!-- Node6&#45;&gt;Node7 -->
<g id="edge6_Node000006_Node000007" class="edge">
<title>Node6&#45;&gt;Node7</title>
<g id="a_edge6_Node000006_Node000007"><a xlink:title=" ">
<path fill="none" stroke="#63b8ff" d="M197.35,-9.62C205.29,-9.62 213.74,-9.62 221.91,-9.62"/>
<polygon fill="#63b8ff" stroke="#63b8ff" points="221.81,-13.13 231.81,-9.62 221.81,-6.13 221.81,-13.13"/>
</a>
</g>
</g>
<!-- Node8 -->
<g id="Node000008" class="node">
<title>Node8</title>
<g id="a_Node000008"><a xlink:href="../../de/d2e/qset_8c.html#a37d39d232cca6c8896fca2490a93e9ff" target="_top" xlink:title=" ">
<polygon fill="white" stroke="#666666" points="400.75,-20.25 339,-20.25 339,-1 400.75,-1 400.75,-20.25"/>
<text text-anchor="middle" x="369.88" y="-6.75" font-family="Helvetica,sans-Serif" font-size="10.00">qh_setfree</text>
</a>
</g>
</g>
<!-- Node7&#45;&gt;Node8 -->
<g id="edge7_Node000007_Node000008" class="edge">
<title>Node7&#45;&gt;Node8</title>
<g id="a_edge7_Node000007_Node000008"><a xlink:title=" ">
<path fill="none" stroke="#63b8ff" d="M302.57,-9.96C310.7,-10.04 319.47,-10.13 327.89,-10.22"/>
<polygon fill="#63b8ff" stroke="#63b8ff" points="327.63,-13.72 337.67,-10.32 327.7,-6.72 327.63,-13.72"/>
</a>
</g>
</g>
<!-- Node7&#45;&gt;Node11 -->
<g id="edge11_Node000007_Node000011" class="edge">
<title>Node7&#45;&gt;Node11</title>
<g id="a_edge11_Node000007_Node000011"><a xlink:title=" ">
<path fill="none" stroke="#63b8ff" d="M295.23,-19.71C306.65,-24.04 320.17,-29.16 332.5,-33.84"/>
<polygon fill="#63b8ff" stroke="#63b8ff" points="330.91,-37.35 341.5,-37.63 333.39,-30.81 330.91,-37.35"/>
</a>
</g>
</g>
<!-- Node9 -->
<g id="Node000009" class="node">
<title>Node9</title>
<g id="a_Node000009"><a xlink:href="../../d3/d8f/mem_8c.html#a788af5714481daaa5bc9e96812794e27" target="_top" xlink:title=" ">
<polygon fill="white" stroke="#666666" points="509.38,-20.25 439.38,-20.25 439.38,-1 509.38,-1 509.38,-20.25"/>
<text text-anchor="middle" x="474.38" y="-6.75" font-family="Helvetica,sans-Serif" font-size="10.00">qh_memfree</text>
</a>
</g>
</g>
<!-- Node8&#45;&gt;Node9 -->
<g id="edge8_Node000008_Node000009" class="edge">
<title>Node8&#45;&gt;Node9</title>
<g id="a_edge8_Node000008_Node000009"><a xlink:title=" ">
<path fill="none" stroke="#63b8ff" d="M401.07,-10.62C409.55,-10.62 418.97,-10.62 428.12,-10.62"/>
<polygon fill="#63b8ff" stroke="#63b8ff" points="428.07,-14.13 438.07,-10.62 428.07,-7.13 428.07,-14.13"/>
</a>
</g>
</g>
<!-- Node9&#45;&gt;Node4 -->
<g id="edge9_Node000009_Node000004" class="edge">
<title>Node9&#45;&gt;Node4</title>
<g id="a_edge9_Node000009_Node000004"><a xlink:title=" ">
<path fill="none" stroke="#63b8ff" d="M498.47,-20.72C502.88,-23.05 507.33,-25.72 511.25,-28.62 529.93,-42.49 529.2,-51.94 547.25,-66.62 548.02,-67.25 548.81,-67.87 549.61,-68.48"/>
<polygon fill="#63b8ff" stroke="#63b8ff" points="547.4,-71.89 557.62,-74.67 551.36,-66.12 547.4,-71.89"/>
</a>
</g>
</g>
<!-- Node10 -->
<g id="Node000010" class="node">
<title>Node10</title>
<g id="a_Node000010"><a xlink:href="../../d7/d2a/_qhull__test_8cpp.html#a5b5f2d4219190f044de3f281f4ea4f7c" target="_top" xlink:title=" ">
<polygon fill="white" stroke="#666666" points="601.5,-20.25 553.25,-20.25 553.25,-1 601.5,-1 601.5,-20.25"/>
<text text-anchor="middle" x="577.38" y="-6.75" font-family="Helvetica,sans-Serif" font-size="10.00">qh_free</text>
</a>
</g>
</g>
<!-- Node9&#45;&gt;Node10 -->
<g id="edge10_Node000009_Node000010" class="edge">
<title>Node9&#45;&gt;Node10</title>
<g id="a_edge10_Node000009_Node000010"><a xlink:title=" ">
<path fill="none" stroke="#63b8ff" d="M509.85,-10.62C520.26,-10.62 531.68,-10.62 542.08,-10.62"/>
<polygon fill="#63b8ff" stroke="#63b8ff" points="541.86,-14.13 551.86,-10.62 541.86,-7.13 541.86,-14.13"/>
</a>
</g>
</g>
<!-- Node11&#45;&gt;Node2 -->
<g id="edge12_Node000011_Node000002" class="edge">
<title>Node11&#45;&gt;Node2</title>
<g id="a_edge12_Node000011_Node000002"><a xlink:title=" ">
<path fill="none" stroke="#63b8ff" d="M401.91,-47.62C409.61,-47.62 418.04,-47.62 426.32,-47.62"/>
<polygon fill="#63b8ff" stroke="#63b8ff" points="426.05,-51.13 436.05,-47.62 426.05,-44.13 426.05,-51.13"/>
</a>
</g>
</g>
<!-- Node12&#45;&gt;Node3 -->
<g id="edge15_Node000012_Node000003" class="edge">
<title>Node12&#45;&gt;Node3</title>
<g id="a_edge15_Node000012_Node000003"><a xlink:title=" ">
<path fill="none" stroke="#63b8ff" d="M399.69,-133.73C411.28,-137.3 424.87,-140.86 437.5,-142.62 470.76,-147.28 508.95,-146.57 536.85,-144.96"/>
<polygon fill="#63b8ff" stroke="#63b8ff" points="537,-148.39 546.76,-144.25 536.55,-141.41 537,-148.39"/>
</a>
</g>
</g>
<!-- Node12&#45;&gt;Node4 -->
<g id="edge16_Node000012_Node000004" class="edge">
<title>Node12&#45;&gt;Node4</title>
<g id="a_edge16_Node000012_Node000004"><a xlink:title=" ">
<path fill="none" stroke="#63b8ff" d="M401.84,-113.86C413,-110.59 425.74,-107.14 437.5,-104.62 471.1,-97.45 509.84,-92.11 537.85,-88.76"/>
<polygon fill="#63b8ff" stroke="#63b8ff" points="538.25,-92.12 547.78,-87.49 537.44,-85.17 538.25,-92.12"/>
</a>
</g>
</g>
<!-- Node13 -->
<g id="Node000013" class="node">
<title>Node13</title>
<g id="a_Node000013"><a xlink:href="../../de/d2e/qset_8c.html#ac0c7aadfe381969831da0cccaeead510" target="_top" xlink:title=" ">
<polygon fill="white" stroke="#666666" points="506.38,-133.25 442.38,-133.25 442.38,-114 506.38,-114 506.38,-133.25"/>
<text text-anchor="middle" x="474.38" y="-119.75" font-family="Helvetica,sans-Serif" font-size="10.00">qh_setprint</text>
</a>
</g>
</g>
<!-- Node12&#45;&gt;Node13 -->
<g id="edge17_Node000012_Node000013" class="edge">
<title>Node12&#45;&gt;Node13</title>
<g id="a_edge17_Node000012_Node000013"><a xlink:title=" ">
<path fill="none" stroke="#63b8ff" d="M401.91,-123.62C411.15,-123.62 421.45,-123.62 431.28,-123.62"/>
<polygon fill="#63b8ff" stroke="#63b8ff" points="431.1,-127.13 441.1,-123.62 431.1,-120.13 431.1,-127.13"/>
</a>
</g>
</g>
<!-- Node13&#45;&gt;Node4 -->
<g id="edge18_Node000013_Node000004" class="edge">
<title>Node13&#45;&gt;Node4</title>
<g id="a_edge18_Node000013_Node000004"><a xlink:title=" ">
<path fill="none" stroke="#63b8ff" d="M501.39,-113.58C513.28,-108.99 527.58,-103.47 540.48,-98.49"/>
<polygon fill="#63b8ff" stroke="#63b8ff" points="541.39,-101.5 549.45,-94.63 538.86,-94.97 541.39,-101.5"/>
</a>
</g>
</g>
</g>
</svg>
