<?xml version="1.0" encoding="UTF-8" standalone="no"?>
<!DOCTYPE svg PUBLIC "-//W3C//DTD SVG 1.1//EN"
 "http://www.w3.org/Graphics/SVG/1.1/DTD/svg11.dtd">
<!-- Generated by graphviz version 8.1.0 (20230707.0739)
 -->
<!-- Title: Slic3r::GUI::AMSControl::SetExtruder Pages: 1 -->
<!--zoomable 137 -->

<svg id="main" version="1.1" xmlns="http://www.w3.org/2000/svg" xmlns:xlink="http://www.w3.org/1999/xlink" xml:space="preserve" onload="init(evt)">
<style type="text/css"><![CDATA[
.node, .edge {opacity: 0.7;}
.node.selected, .edge.selected {opacity: 1;}
.edge:hover path { stroke: red; }
.edge:hover polygon { stroke: red; fill: red; }
]]></style>

<defs>
  <circle id="rim" cx="0" cy="0" r="7"/>
  <circle id="rim2" cx="0" cy="0" r="3.5"/>
  <g id="zoomPlus">
    <use xlink:href="#rim" fill="#404040"><set attributeName="fill" to="#808080" begin="zoomplus.mouseover" end="zoomplus.mouseout"/></use>
    <path d="M-4,0h8M0,-4v8" fill="none" stroke="white" stroke-width="1.5" pointer-events="none"/>
  </g>
  <g id="zoomMin">
    <use xlink:href="#rim" fill="#404040"><set attributeName="fill" to="#808080" begin="zoomminus.mouseover" end="zoomminus.mouseout"/></use>
    <path d="M-4,0h8" fill="none" stroke="white" stroke-width="1.5" pointer-events="none"/>
  </g>
  <g id="arrowUp" transform="translate(30 24)">
    <use xlink:href="#rim"/>
    <path pointer-events="none" fill="none" stroke="white" stroke-width="1.5" d="M0,-3.0v7 M-2.5,-0.5L0,-3.0L2.5,-0.5"/>
  </g>
  <g id="arrowRight" transform="rotate(90) translate(36 -43)">
    <use xlink:href="#rim"/>
    <path pointer-events="none" fill="none" stroke="white" stroke-width="1.5" d="M0,-3.0v7 M-2.5,-0.5L0,-3.0L2.5,-0.5"/>
  </g>
  <g id="arrowDown" transform="rotate(180) translate(-30 -48)">
    <use xlink:href="#rim"/>
    <path pointer-events="none" fill="none" stroke="white" stroke-width="1.5" d="M0,-3.0v7 M-2.5,-0.5L0,-3.0L2.5,-0.5"/>
  </g>
  <g id="arrowLeft" transform="rotate(270) translate(-36 17)">
    <use xlink:href="#rim"/>
    <path pointer-events="none" fill="none" stroke="white" stroke-width="1.5" d="M0,-3.0v7 M-2.5,-0.5L0,-3.0L2.5,-0.5"/>
  </g>
  <g id="resetDef">
    <use xlink:href="#rim2" fill="#404040"><set attributeName="fill" to="#808080" begin="reset.mouseover" end="reset.mouseout"/></use>
  </g>
</defs>
<script type="application/ecmascript">
var viewWidth = 943;
var viewHeight = 137;
var sectionId = 'dynsection-44';
</script>
<script type="application/ecmascript" xlink:href="../../svg.min.js"/>
<svg id="graph" class="graph">
<g id="viewport">
<title>Slic3r::GUI::AMSControl::SetExtruder</title>
<!-- Node1 -->
<g id="Node000001" class="node">
<title>Node1</title>
<g id="a_Node000001"><a xlink:title=" ">
<polygon fill="#999999" stroke="#666666" points="935.25,-79.5 811.25,-79.5 811.25,-49 935.25,-49 935.25,-79.5"/>
<text text-anchor="start" x="819.25" y="-66" font-family="Helvetica,sans-Serif" font-size="10.00">Slic3r::GUI::AMSControl</text>
<text text-anchor="middle" x="873.25" y="-54.75" font-family="Helvetica,sans-Serif" font-size="10.00">::SetExtruder</text>
</a>
</g>
</g>
<!-- Node2 -->
<g id="Node000002" class="node">
<title>Node2</title>
<g id="a_Node000002"><a xlink:href="../../dc/dbb/class_slic3r_1_1_g_u_i_1_1_status_panel.html#a3b44cda9400cc60e227eb523ffc50671" target="_top" xlink:title=" ">
<polygon fill="white" stroke="#666666" points="775.25,-79.5 651.25,-79.5 651.25,-49 775.25,-49 775.25,-79.5"/>
<text text-anchor="start" x="659.25" y="-66" font-family="Helvetica,sans-Serif" font-size="10.00">Slic3r::GUI::StatusPanel</text>
<text text-anchor="middle" x="713.25" y="-54.75" font-family="Helvetica,sans-Serif" font-size="10.00">::update_ams</text>
</a>
</g>
</g>
<!-- Node1&#45;&gt;Node2 -->
<g id="edge1_Node000001_Node000002" class="edge">
<title>Node1&#45;&gt;Node2</title>
<g id="a_edge1_Node000001_Node000002"><a xlink:title=" ">
<path fill="none" stroke="#63b8ff" d="M800.4,-64.25C792.15,-64.25 783.79,-64.25 775.7,-64.25"/>
<polygon fill="#63b8ff" stroke="#63b8ff" points="800.16,-67.75 810.16,-64.25 800.16,-60.75 800.16,-67.75"/>
</a>
</g>
</g>
<!-- Node3 -->
<g id="Node000003" class="node">
<title>Node3</title>
<g id="a_Node000003"><a xlink:href="../../dc/dbb/class_slic3r_1_1_g_u_i_1_1_status_panel.html#a632623622b2983d0499e8cf47403dc85" target="_top" xlink:title=" ">
<polygon fill="white" stroke="#666666" points="615.25,-79.5 491.25,-79.5 491.25,-49 615.25,-49 615.25,-79.5"/>
<text text-anchor="start" x="499.25" y="-66" font-family="Helvetica,sans-Serif" font-size="10.00">Slic3r::GUI::StatusPanel</text>
<text text-anchor="middle" x="553.25" y="-54.75" font-family="Helvetica,sans-Serif" font-size="10.00">::update</text>
</a>
</g>
</g>
<!-- Node2&#45;&gt;Node3 -->
<g id="edge2_Node000002_Node000003" class="edge">
<title>Node2&#45;&gt;Node3</title>
<g id="a_edge2_Node000002_Node000003"><a xlink:title=" ">
<path fill="none" stroke="#63b8ff" d="M640.4,-64.25C632.15,-64.25 623.79,-64.25 615.7,-64.25"/>
<polygon fill="#63b8ff" stroke="#63b8ff" points="640.16,-67.75 650.16,-64.25 640.16,-60.75 640.16,-67.75"/>
</a>
</g>
</g>
<!-- Node4 -->
<g id="Node000004" class="node">
<title>Node4</title>
<g id="a_Node000004"><a xlink:href="../../d4/d77/class_slic3r_1_1_g_u_i_1_1_monitor_panel.html#ac5857bac9c8c7b48dcb28e3c43319429" target="_top" xlink:title=" ">
<polygon fill="white" stroke="#666666" points="455.25,-79.5 327.5,-79.5 327.5,-49 455.25,-49 455.25,-79.5"/>
<text text-anchor="start" x="335.5" y="-66" font-family="Helvetica,sans-Serif" font-size="10.00">Slic3r::GUI::MonitorPanel</text>
<text text-anchor="middle" x="391.38" y="-54.75" font-family="Helvetica,sans-Serif" font-size="10.00">::update_all</text>
</a>
</g>
</g>
<!-- Node3&#45;&gt;Node4 -->
<g id="edge3_Node000003_Node000004" class="edge">
<title>Node3&#45;&gt;Node4</title>
<g id="a_edge3_Node000003_Node000004"><a xlink:title=" ">
<path fill="none" stroke="#63b8ff" d="M479.95,-64.25C471.86,-64.25 463.65,-64.25 455.68,-64.25"/>
<polygon fill="#63b8ff" stroke="#63b8ff" points="479.9,-67.75 489.9,-64.25 479.9,-60.75 479.9,-67.75"/>
</a>
</g>
</g>
<!-- Node5 -->
<g id="Node000005" class="node">
<title>Node5</title>
<g id="a_Node000005"><a xlink:href="../../d4/d77/class_slic3r_1_1_g_u_i_1_1_monitor_panel.html#a4a4b54e8793dac1a3896d841720a181d" target="_top" xlink:title=" ">
<polygon fill="white" stroke="#666666" points="291.5,-128.5 163.75,-128.5 163.75,-98 291.5,-98 291.5,-128.5"/>
<text text-anchor="start" x="171.75" y="-115" font-family="Helvetica,sans-Serif" font-size="10.00">Slic3r::GUI::MonitorPanel</text>
<text text-anchor="middle" x="227.62" y="-103.75" font-family="Helvetica,sans-Serif" font-size="10.00">::on_select_printer</text>
</a>
</g>
</g>
<!-- Node4&#45;&gt;Node5 -->
<g id="edge4_Node000004_Node000005" class="edge">
<title>Node4&#45;&gt;Node5</title>
<g id="a_edge4_Node000004_Node000005"><a xlink:title=" ">
<path fill="none" stroke="#63b8ff" d="M328.53,-82.98C312.71,-87.78 295.86,-92.88 280.59,-97.51"/>
<polygon fill="#63b8ff" stroke="#63b8ff" points="329.2,-86.14 337.75,-79.89 327.17,-79.44 329.2,-86.14"/>
</a>
</g>
</g>
<!-- Node7 -->
<g id="Node000007" class="node">
<title>Node7</title>
<g id="a_Node000007"><a xlink:href="../../d4/d77/class_slic3r_1_1_g_u_i_1_1_monitor_panel.html#a9a3f829e5c74528bbed2aeb7dde9d7c8" target="_top" xlink:title=" ">
<polygon fill="white" stroke="#666666" points="291.5,-79.5 163.75,-79.5 163.75,-49 291.5,-49 291.5,-79.5"/>
<text text-anchor="start" x="171.75" y="-66" font-family="Helvetica,sans-Serif" font-size="10.00">Slic3r::GUI::MonitorPanel</text>
<text text-anchor="middle" x="227.62" y="-54.75" font-family="Helvetica,sans-Serif" font-size="10.00">::on_timer</text>
</a>
</g>
</g>
<!-- Node4&#45;&gt;Node7 -->
<g id="edge6_Node000004_Node000007" class="edge">
<title>Node4&#45;&gt;Node7</title>
<g id="a_edge6_Node000004_Node000007"><a xlink:title=" ">
<path fill="none" stroke="#63b8ff" d="M316.64,-64.25C308.4,-64.25 300.07,-64.25 291.99,-64.25"/>
<polygon fill="#63b8ff" stroke="#63b8ff" points="316.38,-67.75 326.38,-64.25 316.38,-60.75 316.38,-67.75"/>
</a>
</g>
</g>
<!-- Node8 -->
<g id="Node000008" class="node">
<title>Node8</title>
<g id="a_Node000008"><a xlink:href="../../d4/d77/class_slic3r_1_1_g_u_i_1_1_monitor_panel.html#ab8f0f8ec1e87a824d5ea56de7f5545f7" target="_top" xlink:title=" ">
<polygon fill="white" stroke="#666666" points="291.5,-30.5 163.75,-30.5 163.75,0 291.5,0 291.5,-30.5"/>
<text text-anchor="start" x="171.75" y="-17" font-family="Helvetica,sans-Serif" font-size="10.00">Slic3r::GUI::MonitorPanel</text>
<text text-anchor="middle" x="227.62" y="-5.75" font-family="Helvetica,sans-Serif" font-size="10.00">::on_update_all</text>
</a>
</g>
</g>
<!-- Node4&#45;&gt;Node8 -->
<g id="edge8_Node000004_Node000008" class="edge">
<title>Node4&#45;&gt;Node8</title>
<g id="a_edge8_Node000004_Node000008"><a xlink:title=" ">
<path fill="none" stroke="#63b8ff" d="M328.53,-45.52C312.71,-40.72 295.86,-35.62 280.59,-30.99"/>
<polygon fill="#63b8ff" stroke="#63b8ff" points="327.17,-49.06 337.75,-48.61 329.2,-42.36 327.17,-49.06"/>
</a>
</g>
</g>
<!-- Node6 -->
<g id="Node000006" class="node">
<title>Node6</title>
<g id="a_Node000006"><a xlink:href="../../d4/d77/class_slic3r_1_1_g_u_i_1_1_monitor_panel.html#a13ffdb6797a54bb0643e430f242462ac" target="_top" xlink:title=" ">
<polygon fill="white" stroke="#666666" points="127.75,-103.5 0,-103.5 0,-73 127.75,-73 127.75,-103.5"/>
<text text-anchor="start" x="8" y="-90" font-family="Helvetica,sans-Serif" font-size="10.00">Slic3r::GUI::MonitorPanel</text>
<text text-anchor="middle" x="63.88" y="-78.75" font-family="Helvetica,sans-Serif" font-size="10.00">::MonitorPanel</text>
</a>
</g>
</g>
<!-- Node5&#45;&gt;Node6 -->
<g id="edge5_Node000005_Node000006" class="edge">
<title>Node5&#45;&gt;Node6</title>
<g id="a_edge5_Node000005_Node000006"><a xlink:title=" ">
<path fill="none" stroke="#63b8ff" d="M152.89,-101.85C144.65,-100.58 136.32,-99.29 128.24,-98.04"/>
<polygon fill="#63b8ff" stroke="#63b8ff" points="152.21,-105.44 162.63,-103.51 153.28,-98.53 152.21,-105.44"/>
</a>
</g>
</g>
<!-- Node7&#45;&gt;Node6 -->
<g id="edge7_Node000007_Node000006" class="edge">
<title>Node7&#45;&gt;Node6</title>
<g id="a_edge7_Node000007_Node000006"><a xlink:title=" ">
<path fill="none" stroke="#63b8ff" d="M152.89,-75.19C144.65,-76.41 136.32,-77.65 128.24,-78.85"/>
<polygon fill="#63b8ff" stroke="#63b8ff" points="153.25,-78.53 162.63,-73.6 152.22,-71.6 153.25,-78.53"/>
</a>
</g>
</g>
</g>
</svg>

<g id="navigator" transform="translate(0 0)" fill="#404254">
  <rect fill="#f2f5e9" fill-opacity="0.5" stroke="#606060" stroke-width=".5" x="0" y="0" width="60" height="60"/>
  <use id="zoomplus" xlink:href="#zoomPlus" x="17" y="9" onmousedown="handleZoom(evt,'in')"/>
  <use id="zoomminus" xlink:href="#zoomMin" x="42" y="9" onmousedown="handleZoom(evt,'out')"/>
  <use id="reset" xlink:href="#resetDef" x="30" y="36" onmousedown="handleReset()"/>
   <use id="arrowup" xlink:href="#arrowUp" x="0" y="0" onmousedown="handlePan(0,-1)"/>
  <use id="arrowright" xlink:href="#arrowRight" x="0" y="0" onmousedown="handlePan(1,0)"/>
  <use id="arrowdown" xlink:href="#arrowDown" x="0" y="0" onmousedown="handlePan(0,1)"/>
  <use id="arrowleft" xlink:href="#arrowLeft" x="0" y="0" onmousedown="handlePan(-1,0)"/>
</g>
<svg viewBox="0 0 15 15" width="100%" height="30px" preserveAspectRatio="xMaxYMin meet">
 <g id="arrow_out" transform="scale(0.3 0.3)">
  <a xlink:href="class_slic3r_1_1_g_u_i_1_1_a_m_s_control_a3a997d265930478ad45eb709ff2af136_icgraph_org.svg" target="_base">
   <rect id="button" ry="5" rx="5" y="6" x="6" height="38" width="38"
        fill="#f2f5e9" fill-opacity="0.5" stroke="#606060" stroke-width="1.0"/>
   <path id="arrow"
     d="M 11.500037,31.436501 C 11.940474,20.09759 22.043105,11.32322 32.158766,21.979434 L 37.068811,17.246167 C 37.068811,17.246167 37.088388,32 37.088388,32 L 22.160133,31.978069 C 22.160133,31.978069 26.997745,27.140456 26.997745,27.140456 C 18.528582,18.264221 13.291696,25.230495 11.500037,31.436501 z"
     style="fill:#404040;"/>
  </a>
 </g>
</svg>

<style type='text/css'>
<![CDATA[
[data-mouse-over-selected='false'] { opacity: 0.7; }
[data-mouse-over-selected='true']  { opacity: 1.0; }
]]>
</style>
<script type="application/ecmascript"><![CDATA[
document.addEventListener('DOMContentLoaded', (event) => {
  highlightEdges();
  highlightAdjacentNodes();
});
]]></script>
</svg>
