<?xml version="1.0" encoding="UTF-8" standalone="no"?>
<!DOCTYPE svg PUBLIC "-//W3C//DTD SVG 1.1//EN"
 "http://www.w3.org/Graphics/SVG/1.1/DTD/svg11.dtd">
<!-- Generated by graphviz version 8.1.0 (20230707.0739)
 -->
<!-- Title: Eigen::SparseMatrix::prune Pages: 1 -->
<svg width="780pt" height="235pt"
 viewBox="0.00 0.00 780.25 234.50" xmlns="http://www.w3.org/2000/svg" xmlns:xlink="http://www.w3.org/1999/xlink">
<g id="graph0" class="graph" transform="scale(1 1) rotate(0) translate(4 230.5)">
<title>Eigen::SparseMatrix::prune</title>
<!-- Node1 -->
<g id="Node000001" class="node">
<title>Node1</title>
<g id="a_Node000001"><a xlink:title=" ">
<polygon fill="#999999" stroke="#666666" points="104.5,-101.5 0,-101.5 0,-71 104.5,-71 104.5,-101.5"/>
<text text-anchor="start" x="8" y="-88" font-family="Helvetica,sans-Serif" font-size="10.00">Eigen::SparseMatrix</text>
<text text-anchor="middle" x="52.25" y="-76.75" font-family="Helvetica,sans-Serif" font-size="10.00">::prune</text>
</a>
</g>
</g>
<!-- Node2 -->
<g id="Node000002" class="node">
<title>Node2</title>
<g id="a_Node000002"><a xlink:href="../../da/d0d/class_eigen_1_1internal_1_1_compressed_storage.html#a941e3535918d9075b7c0ed9c89cb3451" target="_top" xlink:title=" ">
<polygon fill="white" stroke="#666666" points="420.75,-226.5 281,-226.5 281,-196 420.75,-196 420.75,-226.5"/>
<text text-anchor="start" x="289" y="-213" font-family="Helvetica,sans-Serif" font-size="10.00">Eigen::internal::Compressed</text>
<text text-anchor="middle" x="350.88" y="-201.75" font-family="Helvetica,sans-Serif" font-size="10.00">Storage::index</text>
</a>
</g>
</g>
<!-- Node1&#45;&gt;Node2 -->
<g id="edge1_Node000001_Node000002" class="edge">
<title>Node1&#45;&gt;Node2</title>
<g id="a_edge1_Node000001_Node000002"><a xlink:title=" ">
<path fill="none" stroke="#63b8ff" d="M78.63,-101.96C95.74,-112.19 119.02,-125.4 140.5,-135.25 200.88,-162.94 218.56,-163.58 281,-186.25 286.03,-188.07 291.26,-189.97 296.5,-191.88"/>
<polygon fill="#63b8ff" stroke="#63b8ff" points="294.93,-195.39 305.52,-195.51 297.31,-188.81 294.93,-195.39"/>
</a>
</g>
</g>
<!-- Node3 -->
<g id="Node000003" class="node">
<title>Node3</title>
<g id="a_Node000003"><a xlink:href="../../dc/dfe/class_eigen_1_1_sparse_matrix.html#a5ff54ffc10296f9466dc81fa888733fd" target="_top" xlink:title=" ">
<polygon fill="white" stroke="#666666" points="245,-126.5 140.5,-126.5 140.5,-96 245,-96 245,-126.5"/>
<text text-anchor="start" x="148.5" y="-113" font-family="Helvetica,sans-Serif" font-size="10.00">Eigen::SparseMatrix</text>
<text text-anchor="middle" x="192.75" y="-101.75" font-family="Helvetica,sans-Serif" font-size="10.00">::makeCompressed</text>
</a>
</g>
</g>
<!-- Node1&#45;&gt;Node3 -->
<g id="edge2_Node000001_Node000003" class="edge">
<title>Node1&#45;&gt;Node3</title>
<g id="a_edge2_Node000001_Node000003"><a xlink:title=" ">
<path fill="none" stroke="#63b8ff" d="M104.82,-95.56C112.84,-97.01 121.2,-98.52 129.43,-100"/>
<polygon fill="#63b8ff" stroke="#63b8ff" points="128.67,-103.6 139.13,-101.93 129.92,-96.71 128.67,-103.6"/>
</a>
</g>
</g>
<!-- Node5 -->
<g id="Node000005" class="node">
<title>Node5</title>
<g id="a_Node000005"><a xlink:href="../../da/d0d/class_eigen_1_1internal_1_1_compressed_storage.html#ab303161d4a86c4b562b1d604025dafbd" target="_top" xlink:title=" ">
<polygon fill="white" stroke="#666666" points="420.75,-79.5 281,-79.5 281,-49 420.75,-49 420.75,-79.5"/>
<text text-anchor="start" x="289" y="-66" font-family="Helvetica,sans-Serif" font-size="10.00">Eigen::internal::Compressed</text>
<text text-anchor="middle" x="350.88" y="-54.75" font-family="Helvetica,sans-Serif" font-size="10.00">Storage::resize</text>
</a>
</g>
</g>
<!-- Node1&#45;&gt;Node5 -->
<g id="edge15_Node000001_Node000005" class="edge">
<title>Node1&#45;&gt;Node5</title>
<g id="a_edge15_Node000001_Node000005"><a xlink:title=" ">
<path fill="none" stroke="#63b8ff" d="M104.92,-82.42C150.4,-79.04 217.36,-74.08 269.78,-70.19"/>
<polygon fill="#63b8ff" stroke="#63b8ff" points="270.02,-73.61 279.73,-69.38 269.5,-66.63 270.02,-73.61"/>
</a>
</g>
</g>
<!-- Node12 -->
<g id="Node000012" class="node">
<title>Node12</title>
<g id="a_Node000012"><a xlink:href="../../da/d0d/class_eigen_1_1internal_1_1_compressed_storage.html#a757661a14df45c4dc37231754c6ccf9c" target="_top" xlink:title=" ">
<polygon fill="white" stroke="#666666" points="420.75,-30.5 281,-30.5 281,0 420.75,0 420.75,-30.5"/>
<text text-anchor="start" x="289" y="-17" font-family="Helvetica,sans-Serif" font-size="10.00">Eigen::internal::Compressed</text>
<text text-anchor="middle" x="350.88" y="-5.75" font-family="Helvetica,sans-Serif" font-size="10.00">Storage::value</text>
</a>
</g>
</g>
<!-- Node1&#45;&gt;Node12 -->
<g id="edge16_Node000001_Node000012" class="edge">
<title>Node1&#45;&gt;Node12</title>
<g id="a_edge16_Node000001_Node000012"><a xlink:title=" ">
<path fill="none" stroke="#63b8ff" d="M104.92,-73.88C151.6,-62.71 220.91,-46.12 273.9,-33.43"/>
<polygon fill="#63b8ff" stroke="#63b8ff" points="274.36,-36.68 283.27,-30.95 272.73,-29.88 274.36,-36.68"/>
</a>
</g>
</g>
<!-- Node3&#45;&gt;Node2 -->
<g id="edge3_Node000003_Node000002" class="edge">
<title>Node3&#45;&gt;Node2</title>
<g id="a_edge3_Node000003_Node000002"><a xlink:title=" ">
<path fill="none" stroke="#63b8ff" d="M208.5,-126.94C224.87,-143.59 252.72,-169.71 281,-186.25 283.96,-187.98 287.07,-189.63 290.25,-191.19"/>
<polygon fill="#63b8ff" stroke="#63b8ff" points="288.42,-194.65 298.98,-195.59 291.31,-188.28 288.42,-194.65"/>
</a>
</g>
</g>
<!-- Node4 -->
<g id="Node000004" class="node">
<title>Node4</title>
<g id="a_Node000004"><a xlink:href="../../dc/dfe/class_eigen_1_1_sparse_matrix.html#a837934b33a80fe996ff20500373d3a61" target="_top" xlink:title=" ">
<polygon fill="white" stroke="#666666" points="403.12,-128.5 298.62,-128.5 298.62,-98 403.12,-98 403.12,-128.5"/>
<text text-anchor="start" x="306.62" y="-115" font-family="Helvetica,sans-Serif" font-size="10.00">Eigen::SparseMatrix</text>
<text text-anchor="middle" x="350.88" y="-103.75" font-family="Helvetica,sans-Serif" font-size="10.00">::isCompressed</text>
</a>
</g>
</g>
<!-- Node3&#45;&gt;Node4 -->
<g id="edge4_Node000003_Node000004" class="edge">
<title>Node3&#45;&gt;Node4</title>
<g id="a_edge4_Node000003_Node000004"><a xlink:title=" ">
<path fill="none" stroke="#63b8ff" d="M245.3,-111.91C258.89,-112.08 273.7,-112.27 287.78,-112.45"/>
<polygon fill="#63b8ff" stroke="#63b8ff" points="287.33,-115.96 297.38,-112.59 287.42,-108.96 287.33,-115.96"/>
</a>
</g>
</g>
<!-- Node3&#45;&gt;Node5 -->
<g id="edge5_Node000003_Node000005" class="edge">
<title>Node3&#45;&gt;Node5</title>
<g id="a_edge5_Node000003_Node000005"><a xlink:title=" ">
<path fill="none" stroke="#63b8ff" d="M245.3,-95.73C258.68,-91.7 273.24,-87.32 287.12,-83.14"/>
<polygon fill="#63b8ff" stroke="#63b8ff" points="288.01,-86.23 296.57,-79.99 285.99,-79.53 288.01,-86.23"/>
</a>
</g>
</g>
<!-- Node11 -->
<g id="Node000011" class="node">
<title>Node11</title>
<g id="a_Node000011"><a xlink:href="../../da/d0d/class_eigen_1_1internal_1_1_compressed_storage.html#aa8809423ddf2e140945668acecc32ad5" target="_top" xlink:title=" ">
<polygon fill="white" stroke="#666666" points="420.75,-177.5 281,-177.5 281,-147 420.75,-147 420.75,-177.5"/>
<text text-anchor="start" x="289" y="-164" font-family="Helvetica,sans-Serif" font-size="10.00">Eigen::internal::Compressed</text>
<text text-anchor="middle" x="350.88" y="-152.75" font-family="Helvetica,sans-Serif" font-size="10.00">Storage::squeeze</text>
</a>
</g>
</g>
<!-- Node3&#45;&gt;Node11 -->
<g id="edge12_Node000003_Node000011" class="edge">
<title>Node3&#45;&gt;Node11</title>
<g id="a_edge12_Node000003_Node000011"><a xlink:title=" ">
<path fill="none" stroke="#63b8ff" d="M241.87,-126.97C257.67,-132.13 275.4,-137.92 291.86,-143.3"/>
<polygon fill="#63b8ff" stroke="#63b8ff" points="290.32,-146.81 300.92,-146.58 292.5,-140.15 290.32,-146.81"/>
</a>
</g>
</g>
<!-- Node3&#45;&gt;Node12 -->
<g id="edge14_Node000003_Node000012" class="edge">
<title>Node3&#45;&gt;Node12</title>
<g id="a_edge14_Node000003_Node000012"><a xlink:title=" ">
<path fill="none" stroke="#63b8ff" d="M209.58,-95.58C226.19,-79.84 253.65,-55.75 281,-40.25 284.04,-38.53 287.23,-36.88 290.49,-35.32"/>
<polygon fill="#63b8ff" stroke="#63b8ff" points="291.71,-38.16 299.43,-30.9 288.87,-31.77 291.71,-38.16"/>
</a>
</g>
</g>
<!-- Node6 -->
<g id="Node000006" class="node">
<title>Node6</title>
<g id="a_Node000006"><a xlink:href="../../da/d0d/class_eigen_1_1internal_1_1_compressed_storage.html#ad9e41dc861c361ecc304fcff83da9ecd" target="_top" xlink:title=" ">
<polygon fill="white" stroke="#666666" points="596.5,-150.5 456.75,-150.5 456.75,-120 596.5,-120 596.5,-150.5"/>
<text text-anchor="start" x="464.75" y="-137" font-family="Helvetica,sans-Serif" font-size="10.00">Eigen::internal::Compressed</text>
<text text-anchor="middle" x="526.62" y="-125.75" font-family="Helvetica,sans-Serif" font-size="10.00">Storage::reallocate</text>
</a>
</g>
</g>
<!-- Node5&#45;&gt;Node6 -->
<g id="edge6_Node000005_Node000006" class="edge">
<title>Node5&#45;&gt;Node6</title>
<g id="a_edge6_Node000005_Node000006"><a xlink:title=" ">
<path fill="none" stroke="#63b8ff" d="M398.65,-79.94C406.13,-82.82 413.72,-85.96 420.75,-89.25 437.52,-97.11 439.98,-102.39 456.75,-110.25 460.59,-112.05 464.6,-113.81 468.67,-115.5"/>
<polygon fill="#63b8ff" stroke="#63b8ff" points="467.26,-119.1 477.85,-119.56 469.86,-112.6 467.26,-119.1"/>
</a>
</g>
</g>
<!-- Node8 -->
<g id="Node000008" class="node">
<title>Node8</title>
<g id="a_Node000008"><a xlink:href="../../da/d0d/class_eigen_1_1internal_1_1_compressed_storage.html#a3af1e9ce60526daec87ddb034d017dd5" target="_top" xlink:title=" ">
<polygon fill="white" stroke="#666666" points="772.25,-79.5 632.5,-79.5 632.5,-49 772.25,-49 772.25,-79.5"/>
<text text-anchor="start" x="640.5" y="-66" font-family="Helvetica,sans-Serif" font-size="10.00">Eigen::internal::Compressed</text>
<text text-anchor="middle" x="702.38" y="-54.75" font-family="Helvetica,sans-Serif" font-size="10.00">Storage::size</text>
</a>
</g>
</g>
<!-- Node5&#45;&gt;Node8 -->
<g id="edge10_Node000005_Node000008" class="edge">
<title>Node5&#45;&gt;Node8</title>
<g id="a_edge10_Node000005_Node000008"><a xlink:title=" ">
<path fill="none" stroke="#63b8ff" d="M420.98,-62.75C432.91,-62.54 445.19,-62.36 456.75,-62.25 518.86,-61.66 534.39,-61.66 596.5,-62.25 604.54,-62.33 612.93,-62.44 621.3,-62.57"/>
<polygon fill="#63b8ff" stroke="#63b8ff" points="621.22,-66.08 631.27,-62.75 621.33,-59.08 621.22,-66.08"/>
</a>
</g>
</g>
<!-- Node10 -->
<g id="Node000010" class="node">
<title>Node10</title>
<g id="a_Node000010"><a xlink:href="../../d7/dc9/namespace_eigen_1_1internal.html#aa03c647c0da4f77a83252fd9bd097ca4" target="_top" xlink:title=" ">
<polygon fill="white" stroke="#666666" points="580.75,-101.5 472.5,-101.5 472.5,-71 580.75,-71 580.75,-101.5"/>
<text text-anchor="start" x="480.5" y="-88" font-family="Helvetica,sans-Serif" font-size="10.00">Eigen::internal::throw</text>
<text text-anchor="middle" x="526.62" y="-76.75" font-family="Helvetica,sans-Serif" font-size="10.00">_std_bad_alloc</text>
</a>
</g>
</g>
<!-- Node5&#45;&gt;Node10 -->
<g id="edge11_Node000005_Node000010" class="edge">
<title>Node5&#45;&gt;Node10</title>
<g id="a_edge11_Node000005_Node000010"><a xlink:title=" ">
<path fill="none" stroke="#63b8ff" d="M421.04,-73.01C434.35,-74.69 448.24,-76.45 461.38,-78.12"/>
<polygon fill="#63b8ff" stroke="#63b8ff" points="460.86,-81.7 471.22,-79.49 461.74,-74.76 460.86,-81.7"/>
</a>
</g>
</g>
<!-- Node7 -->
<g id="Node000007" class="node">
<title>Node7</title>
<g id="a_Node000007"><a xlink:href="../../d6/ddf/class_eigen_1_1internal_1_1scoped__array.html#a8692b048ba4c3bc9af850d9c2436f1ba" target="_top" xlink:title=" ">
<polygon fill="white" stroke="#666666" points="760.25,-139.5 644.5,-139.5 644.5,-109 760.25,-109 760.25,-139.5"/>
<text text-anchor="start" x="652.5" y="-126" font-family="Helvetica,sans-Serif" font-size="10.00">Eigen::internal::scoped</text>
<text text-anchor="middle" x="702.38" y="-114.75" font-family="Helvetica,sans-Serif" font-size="10.00">_array::ptr</text>
</a>
</g>
</g>
<!-- Node6&#45;&gt;Node7 -->
<g id="edge7_Node000006_Node000007" class="edge">
<title>Node6&#45;&gt;Node7</title>
<g id="a_edge7_Node000006_Node000007"><a xlink:title=" ">
<path fill="none" stroke="#63b8ff" d="M596.79,-130.87C608.82,-130.11 621.32,-129.32 633.32,-128.56"/>
<polygon fill="#63b8ff" stroke="#63b8ff" points="633.41,-132 643.17,-127.87 632.97,-125.01 633.41,-132"/>
</a>
</g>
</g>
<!-- Node6&#45;&gt;Node8 -->
<g id="edge8_Node000006_Node000008" class="edge">
<title>Node6&#45;&gt;Node8</title>
<g id="a_edge8_Node000006_Node000008"><a xlink:title=" ">
<path fill="none" stroke="#63b8ff" d="M572.25,-119.53C580.35,-116.54 588.71,-113.37 596.5,-110.25 616.59,-102.21 638.56,-92.69 657.17,-84.4"/>
<polygon fill="#63b8ff" stroke="#63b8ff" points="658.43,-87.22 666.13,-79.94 655.57,-80.83 658.43,-87.22"/>
</a>
</g>
</g>
<!-- Node9 -->
<g id="Node000009" class="node">
<title>Node9</title>
<g id="a_Node000009"><a xlink:href="../../d7/dc9/namespace_eigen_1_1internal.html#aaa5263274e83e4b19ff5558046f1077f" target="_top" xlink:title=" ">
<polygon fill="white" stroke="#666666" points="770,-176.88 634.75,-176.88 634.75,-157.62 770,-157.62 770,-176.88"/>
<text text-anchor="middle" x="702.38" y="-163.38" font-family="Helvetica,sans-Serif" font-size="10.00">Eigen::internal::smart_copy</text>
</a>
</g>
</g>
<!-- Node6&#45;&gt;Node9 -->
<g id="edge9_Node000006_Node000009" class="edge">
<title>Node6&#45;&gt;Node9</title>
<g id="a_edge9_Node000006_Node000009"><a xlink:title=" ">
<path fill="none" stroke="#63b8ff" d="M596.79,-147.99C609.73,-150.37 623.22,-152.86 636.04,-155.22"/>
<polygon fill="#63b8ff" stroke="#63b8ff" points="635.15,-158.8 645.62,-157.17 636.42,-151.91 635.15,-158.8"/>
</a>
</g>
</g>
<!-- Node11&#45;&gt;Node6 -->
<g id="edge13_Node000011_Node000006" class="edge">
<title>Node11&#45;&gt;Node6</title>
<g id="a_edge13_Node000011_Node000006"><a xlink:title=" ">
<path fill="none" stroke="#63b8ff" d="M421.04,-151.5C429.14,-150.24 437.45,-148.95 445.67,-147.67"/>
<polygon fill="#63b8ff" stroke="#63b8ff" points="446.07,-151 455.41,-146.01 444.99,-144.08 446.07,-151"/>
</a>
</g>
</g>
</g>
</svg>
