<?xml version="1.0" encoding="UTF-8" standalone="no"?>
<!DOCTYPE svg PUBLIC "-//W3C//DTD SVG 1.1//EN"
 "http://www.w3.org/Graphics/SVG/1.1/DTD/svg11.dtd">
<!-- Generated by graphviz version 8.1.0 (20230707.0739)
 -->
<!-- Title: qh_partitionpoint Pages: 1 -->
<svg width="1028pt" height="457pt"
 viewBox="0.00 0.00 1027.75 457.36" xmlns="http://www.w3.org/2000/svg" xmlns:xlink="http://www.w3.org/1999/xlink">
<g id="graph0" class="graph" transform="scale(1 1) rotate(0) translate(4 453.36)">
<title>qh_partitionpoint</title>
<!-- Node1 -->
<g id="Node000001" class="node">
<title>Node1</title>
<g id="a_Node000001"><a xlink:title=" ">
<polygon fill="#999999" stroke="#666666" points="1019.75,-300.25 932.5,-300.25 932.5,-281 1019.75,-281 1019.75,-300.25"/>
<text text-anchor="middle" x="976.12" y="-286.75" font-family="Helvetica,sans-Serif" font-size="10.00">qh_partitionpoint</text>
</a>
</g>
</g>
<!-- Node2 -->
<g id="Node000002" class="node">
<title>Node2</title>
<g id="a_Node000002"><a xlink:href="../../d3/d1d/libqhull_8c.html#af9599c8d285c868140183ec24b6ed901" target="_top" xlink:title=" ">
<polygon fill="white" stroke="#666666" points="627.5,-394.25 551.5,-394.25 551.5,-375 627.5,-375 627.5,-394.25"/>
<text text-anchor="middle" x="589.5" y="-380.75" font-family="Helvetica,sans-Serif" font-size="10.00">qh_partitionall</text>
</a>
</g>
</g>
<!-- Node1&#45;&gt;Node2 -->
<g id="edge1_Node000001_Node000002" class="edge">
<title>Node1&#45;&gt;Node2</title>
<g id="a_edge1_Node000001_Node000002"><a xlink:title=" ">
<path fill="none" stroke="#63b8ff" d="M941.47,-304.81C899.27,-321.99 824.33,-350.5 757.5,-365.62 713.53,-375.58 661.81,-380.44 627.7,-382.73"/>
<polygon fill="#63b8ff" stroke="#63b8ff" points="942.55,-307.74 950.47,-300.7 939.89,-301.26 942.55,-307.74"/>
</a>
</g>
</g>
<!-- Node14 -->
<g id="Node000014" class="node">
<title>Node14</title>
<g id="a_Node000014"><a xlink:href="../../d3/d1d/libqhull_8c.html#a4dd7273107e26a2308e76690402f424c" target="_top" xlink:title=" ">
<polygon fill="white" stroke="#666666" points="896.5,-300.25 793.5,-300.25 793.5,-281 896.5,-281 896.5,-300.25"/>
<text text-anchor="middle" x="845" y="-286.75" font-family="Helvetica,sans-Serif" font-size="10.00">qh_partitioncoplanar</text>
</a>
</g>
</g>
<!-- Node1&#45;&gt;Node14 -->
<g id="edge14_Node000001_Node000014" class="edge">
<title>Node1&#45;&gt;Node14</title>
<g id="a_edge14_Node000001_Node000014"><a xlink:title=" ">
<path fill="none" stroke="#63b8ff" d="M921.29,-283.96C913.21,-283.83 904.89,-283.85 896.87,-284.01"/>
<polygon fill="#63b8ff" stroke="#63b8ff" points="921.05,-287.48 931.13,-284.22 921.22,-280.48 921.05,-287.48"/>
</a>
</g>
</g>
<!-- Node36 -->
<g id="Node000036" class="node">
<title>Node36</title>
<g id="a_Node000036"><a xlink:href="../../d3/d1d/libqhull_8c.html#a4e5f98f28bbdad2f0647f23a52b50374" target="_top" xlink:title=" ">
<polygon fill="white" stroke="#666666" points="757.5,-243.25 663.5,-243.25 663.5,-224 757.5,-224 757.5,-243.25"/>
<text text-anchor="middle" x="710.5" y="-229.75" font-family="Helvetica,sans-Serif" font-size="10.00">qh_partitionvisible</text>
</a>
</g>
</g>
<!-- Node1&#45;&gt;Node36 -->
<g id="edge47_Node000001_Node000036" class="edge">
<title>Node1&#45;&gt;Node36</title>
<g id="a_edge47_Node000001_Node000036"><a xlink:title=" ">
<path fill="none" stroke="#63b8ff" d="M924.18,-278.04C914.98,-275.85 905.46,-273.63 896.5,-271.62 849.46,-261.11 795.44,-250.14 757.97,-242.71"/>
<polygon fill="#63b8ff" stroke="#63b8ff" points="923.24,-281.66 933.78,-280.59 924.88,-274.85 923.24,-281.66"/>
</a>
</g>
</g>
<!-- Node3 -->
<g id="Node000003" class="node">
<title>Node3</title>
<g id="a_Node000003"><a xlink:href="../../dd/d98/poly2__r_8c.html#a3291717ad6e317ed31774dbbc041b036" target="_top" xlink:title=" ">
<polygon fill="white" stroke="#666666" points="511.38,-375.25 446.62,-375.25 446.62,-356 511.38,-356 511.38,-375.25"/>
<text text-anchor="middle" x="479" y="-361.75" font-family="Helvetica,sans-Serif" font-size="10.00">qh_initbuild</text>
</a>
</g>
</g>
<!-- Node2&#45;&gt;Node3 -->
<g id="edge2_Node000002_Node000003" class="edge">
<title>Node2&#45;&gt;Node3</title>
<g id="a_edge2_Node000002_Node000003"><a xlink:title=" ">
<path fill="none" stroke="#63b8ff" d="M540.35,-376.19C530.62,-374.49 520.62,-372.74 511.63,-371.16"/>
<polygon fill="#63b8ff" stroke="#63b8ff" points="539.71,-379.81 550.16,-378.09 540.91,-372.91 539.71,-379.81"/>
</a>
</g>
</g>
<!-- Node4 -->
<g id="Node000004" class="node">
<title>Node4</title>
<g id="a_Node000004"><a xlink:href="../../d9/d26/poly2_8c.html#af48505f99a1447ec5013ed5766250b50" target="_top" xlink:title=" ">
<polygon fill="white" stroke="#666666" points="511.38,-412.25 446.62,-412.25 446.62,-393 511.38,-393 511.38,-412.25"/>
<text text-anchor="middle" x="479" y="-398.75" font-family="Helvetica,sans-Serif" font-size="10.00">qh_initbuild</text>
</a>
</g>
</g>
<!-- Node2&#45;&gt;Node4 -->
<g id="edge3_Node000002_Node000004" class="edge">
<title>Node2&#45;&gt;Node4</title>
<g id="a_edge3_Node000002_Node000004"><a xlink:title=" ">
<path fill="none" stroke="#63b8ff" d="M540.35,-392.61C530.62,-394.23 520.62,-395.89 511.63,-397.38"/>
<polygon fill="#63b8ff" stroke="#63b8ff" points="540.87,-395.91 550.16,-390.82 539.72,-389 540.87,-395.91"/>
</a>
</g>
</g>
<!-- Node5 -->
<g id="Node000005" class="node">
<title>Node5</title>
<g id="a_Node000005"><a xlink:href="../../dd/ddc/libqhull__r_8c.html#ad818ae8c79d65620430f0836cbf823a3" target="_top" xlink:title=" ">
<polygon fill="white" stroke="#666666" points="406.5,-357.25 303.5,-357.25 303.5,-338 406.5,-338 406.5,-357.25"/>
<text text-anchor="middle" x="355" y="-343.75" font-family="Helvetica,sans-Serif" font-size="10.00">qh_build_withrestart</text>
</a>
</g>
</g>
<!-- Node4&#45;&gt;Node5 -->
<g id="edge4_Node000004_Node000005" class="edge">
<title>Node4&#45;&gt;Node5</title>
<g id="a_edge4_Node000004_Node000005"><a xlink:title=" ">
<path fill="none" stroke="#63b8ff" d="M445.72,-388.07C424.44,-378.48 397.11,-366.16 378.23,-357.65"/>
<polygon fill="#63b8ff" stroke="#63b8ff" points="444.07,-391.62 454.62,-392.54 446.95,-385.24 444.07,-391.62"/>
</a>
</g>
</g>
<!-- Node6 -->
<g id="Node000006" class="node">
<title>Node6</title>
<g id="a_Node000006"><a xlink:href="../../d3/d1d/libqhull_8c.html#a1b6838237f7b511f4842607309fc4f28" target="_top" xlink:title=" ">
<polygon fill="white" stroke="#666666" points="406.5,-433.25 303.5,-433.25 303.5,-414 406.5,-414 406.5,-433.25"/>
<text text-anchor="middle" x="355" y="-419.75" font-family="Helvetica,sans-Serif" font-size="10.00">qh_build_withrestart</text>
</a>
</g>
</g>
<!-- Node4&#45;&gt;Node6 -->
<g id="edge5_Node000004_Node000006" class="edge">
<title>Node4&#45;&gt;Node6</title>
<g id="a_edge5_Node000004_Node000006"><a xlink:title=" ">
<path fill="none" stroke="#63b8ff" d="M435.73,-409.9C426.45,-411.5 416.53,-413.21 406.95,-414.85"/>
<polygon fill="#63b8ff" stroke="#63b8ff" points="436,-413.23 445.26,-408.09 434.82,-406.33 436,-413.23"/>
</a>
</g>
</g>
<!-- Node7 -->
<g id="Node000007" class="node">
<title>Node7</title>
<g id="a_Node000007"><a xlink:href="../../dd/ddc/libqhull__r_8c.html#adf07afe5d35dcb03cc71eb2dd0da59dd" target="_top" xlink:title=" ">
<polygon fill="white" stroke="#666666" points="239,-433.25 187,-433.25 187,-414 239,-414 239,-433.25"/>
<text text-anchor="middle" x="213" y="-419.75" font-family="Helvetica,sans-Serif" font-size="10.00">qh_qhull</text>
</a>
</g>
</g>
<!-- Node4&#45;&gt;Node7 -->
<g id="edge12_Node000004_Node000007" class="edge">
<title>Node4&#45;&gt;Node7</title>
<g id="a_edge12_Node000004_Node000007"><a xlink:title=" ">
<path fill="none" stroke="#63b8ff" d="M455.95,-418.86C442.43,-427.79 424.33,-437.98 406.5,-442.62 348.01,-457.87 276.6,-442.29 239.36,-431.69"/>
<polygon fill="#63b8ff" stroke="#63b8ff" points="457.68,-421.23 463.92,-412.68 453.7,-415.47 457.68,-421.23"/>
</a>
</g>
</g>
<!-- Node8 -->
<g id="Node000008" class="node">
<title>Node8</title>
<g id="a_Node000008"><a xlink:href="../../d3/d1d/libqhull_8c.html#a66495141e5922b777a5d84a7aec13a32" target="_top" xlink:title=" ">
<polygon fill="white" stroke="#666666" points="239,-338.25 187,-338.25 187,-319 239,-319 239,-338.25"/>
<text text-anchor="middle" x="213" y="-324.75" font-family="Helvetica,sans-Serif" font-size="10.00">qh_qhull</text>
</a>
</g>
</g>
<!-- Node4&#45;&gt;Node8 -->
<g id="edge13_Node000004_Node000008" class="edge">
<title>Node4&#45;&gt;Node8</title>
<g id="a_edge13_Node000004_Node000008"><a xlink:title=" ">
<path fill="none" stroke="#63b8ff" d="M435.79,-396.33C400.08,-390.43 347.79,-380.45 303.5,-366.62 279.17,-359.03 252.4,-347.18 234.54,-338.73"/>
<polygon fill="#63b8ff" stroke="#63b8ff" points="434.89,-399.89 445.32,-398.03 436,-392.98 434.89,-399.89"/>
</a>
</g>
</g>
<!-- Node6&#45;&gt;Node7 -->
<g id="edge6_Node000006_Node000007" class="edge">
<title>Node6&#45;&gt;Node7</title>
<g id="a_edge6_Node000006_Node000007"><a xlink:title=" ">
<path fill="none" stroke="#63b8ff" d="M292.19,-423.62C273.5,-423.62 254.02,-423.62 239.18,-423.62"/>
<polygon fill="#63b8ff" stroke="#63b8ff" points="292.06,-427.13 302.06,-423.62 292.06,-420.13 292.06,-427.13"/>
</a>
</g>
</g>
<!-- Node6&#45;&gt;Node8 -->
<g id="edge7_Node000006_Node000008" class="edge">
<title>Node6&#45;&gt;Node8</title>
<g id="a_edge7_Node000006_Node000008"><a xlink:title=" ">
<path fill="none" stroke="#63b8ff" d="M320.48,-409.01C314.69,-406.12 308.83,-402.95 303.5,-399.62 273.2,-380.75 241.26,-353.32 224.97,-338.69"/>
<polygon fill="#63b8ff" stroke="#63b8ff" points="318.5,-412.43 329.03,-413.59 321.52,-406.11 318.5,-412.43"/>
</a>
</g>
</g>
<!-- Node9 -->
<g id="Node000009" class="node">
<title>Node9</title>
<g id="a_Node000009"><a xlink:href="../../df/d17/qhalf_8c.html#a0ddf1224851353fc92bfbff6f499fa97" target="_top" xlink:title=" ">
<polygon fill="white" stroke="#666666" points="79.75,-393.25 42.75,-393.25 42.75,-374 79.75,-374 79.75,-393.25"/>
<text text-anchor="middle" x="61.25" y="-379.75" font-family="Helvetica,sans-Serif" font-size="10.00">main</text>
</a>
</g>
</g>
<!-- Node8&#45;&gt;Node9 -->
<g id="edge8_Node000008_Node000009" class="edge">
<title>Node8&#45;&gt;Node9</title>
<g id="a_edge8_Node000008_Node000009"><a xlink:title=" ">
<path fill="none" stroke="#63b8ff" d="M179.54,-342.98C162.68,-350.19 141.66,-358.82 122.5,-365.62 108.41,-370.63 92.14,-375.43 80.07,-378.82"/>
<polygon fill="#63b8ff" stroke="#63b8ff" points="180.65,-345.88 188.44,-338.7 177.87,-339.45 180.65,-345.88"/>
</a>
</g>
</g>
<!-- Node10 -->
<g id="Node000010" class="node">
<title>Node10</title>
<g id="a_Node000010"><a xlink:href="../../d3/d8d/user_8c.html#a17c89ec13fba83a683432d79ac0323cd" target="_top" xlink:title=" ">
<polygon fill="#fff0f0" stroke="red" points="98.88,-356.25 23.62,-356.25 23.62,-337 98.88,-337 98.88,-356.25"/>
<text text-anchor="middle" x="61.25" y="-342.75" font-family="Helvetica,sans-Serif" font-size="10.00">qh_new_qhull</text>
</a>
</g>
</g>
<!-- Node8&#45;&gt;Node10 -->
<g id="edge9_Node000008_Node000010" class="edge">
<title>Node8&#45;&gt;Node10</title>
<g id="a_edge9_Node000008_Node000010"><a xlink:title=" ">
<path fill="none" stroke="#63b8ff" d="M175.83,-332.97C152.65,-335.76 122.66,-339.36 99.31,-342.17"/>
<polygon fill="#63b8ff" stroke="#63b8ff" points="176.09,-336.35 185.6,-331.68 175.25,-329.4 176.09,-336.35"/>
</a>
</g>
</g>
<!-- Node12 -->
<g id="Node000012" class="node">
<title>Node12</title>
<g id="a_Node000012"><a xlink:href="../../de/d92/user__r_8c.html#a7acad69c7e54d5c918598a254f26aad5" target="_top" xlink:title=" ">
<polygon fill="white" stroke="#666666" points="98.88,-319.25 23.62,-319.25 23.62,-300 98.88,-300 98.88,-319.25"/>
<text text-anchor="middle" x="61.25" y="-305.75" font-family="Helvetica,sans-Serif" font-size="10.00">qh_new_qhull</text>
</a>
</g>
</g>
<!-- Node8&#45;&gt;Node12 -->
<g id="edge10_Node000008_Node000012" class="edge">
<title>Node8&#45;&gt;Node12</title>
<g id="a_edge10_Node000008_Node000012"><a xlink:title=" ">
<path fill="none" stroke="#63b8ff" d="M175.83,-324.04C152.65,-321.1 122.66,-317.29 99.31,-314.33"/>
<polygon fill="#63b8ff" stroke="#63b8ff" points="175.24,-327.62 185.6,-325.4 176.12,-320.67 175.24,-327.62"/>
</a>
</g>
</g>
<!-- Node13 -->
<g id="Node000013" class="node">
<title>Node13</title>
<g id="a_Node000013"><a xlink:href="../../da/dc1/classorg_qhull_1_1_qhull.html#aaa7d64f9d45f878ff94d243b77888039" target="_top" xlink:title="pointCoordinates is a array of points, input sites (&#39;d&#39; or &#39;v&#39;), or halfspaces with offset last (&#39;H&#39;)...">
<polygon fill="white" stroke="#666666" points="122.5,-282.25 0,-282.25 0,-263 122.5,-263 122.5,-282.25"/>
<text text-anchor="middle" x="61.25" y="-268.75" font-family="Helvetica,sans-Serif" font-size="10.00">orgQhull::Qhull::runQhull</text>
</a>
</g>
</g>
<!-- Node8&#45;&gt;Node13 -->
<g id="edge11_Node000008_Node000013" class="edge">
<title>Node8&#45;&gt;Node13</title>
<g id="a_edge11_Node000008_Node000013"><a xlink:title=" ">
<path fill="none" stroke="#63b8ff" d="M180.26,-314.13C163.31,-306.65 141.96,-297.64 122.5,-290.62 114.8,-287.85 106.44,-285.15 98.46,-282.73"/>
<polygon fill="#63b8ff" stroke="#63b8ff" points="178.64,-317.69 189.2,-318.56 181.5,-311.3 178.64,-317.69"/>
</a>
</g>
</g>
<!-- Node14&#45;&gt;Node1 -->
<g id="edge43_Node000014_Node000001" class="edge">
<title>Node14&#45;&gt;Node1</title>
<g id="a_edge43_Node000014_Node000001"><a xlink:title=" ">
<path fill="none" stroke="#63b8ff" d="M907.66,-297.37C915.94,-297.4 924.27,-297.29 932.13,-297.03"/>
<polygon fill="#63b8ff" stroke="#63b8ff" points="907.91,-293.86 897.87,-297.24 907.83,-300.86 907.91,-293.86"/>
</a>
</g>
</g>
<!-- Node15 -->
<g id="Node000015" class="node">
<title>Node15</title>
<g id="a_Node000015"><a xlink:href="../../d3/d1d/libqhull_8c.html#aa3f30b3b9f985fbdf0bd97f594c19eb0" target="_top" xlink:title=" ">
<polygon fill="white" stroke="#666666" points="623.75,-264.25 555.25,-264.25 555.25,-245 623.75,-245 623.75,-264.25"/>
<text text-anchor="middle" x="589.5" y="-250.75" font-family="Helvetica,sans-Serif" font-size="10.00">qh_addpoint</text>
</a>
</g>
</g>
<!-- Node14&#45;&gt;Node15 -->
<g id="edge15_Node000014_Node000015" class="edge">
<title>Node14&#45;&gt;Node15</title>
<g id="a_edge15_Node000014_Node000015"><a xlink:title=" ">
<path fill="none" stroke="#63b8ff" d="M782.35,-281.87C732.52,-274.79 664.27,-265.1 624.03,-259.39"/>
<polygon fill="#63b8ff" stroke="#63b8ff" points="781.61,-285.44 792.01,-283.38 782.6,-278.51 781.61,-285.44"/>
</a>
</g>
</g>
<!-- Node33 -->
<g id="Node000033" class="node">
<title>Node33</title>
<g id="a_Node000033"><a xlink:href="../../dd/d98/poly2__r_8c.html#a295e19bea4b22d40b85553f358c661a6" target="_top" xlink:title=" ">
<polygon fill="white" stroke="#666666" points="751.5,-356.25 669.5,-356.25 669.5,-337 751.5,-337 751.5,-356.25"/>
<text text-anchor="middle" x="710.5" y="-342.75" font-family="Helvetica,sans-Serif" font-size="10.00">qh_outcoplanar</text>
</a>
</g>
</g>
<!-- Node14&#45;&gt;Node33 -->
<g id="edge39_Node000014_Node000033" class="edge">
<title>Node14&#45;&gt;Node33</title>
<g id="a_edge39_Node000014_Node000033"><a xlink:title=" ">
<path fill="none" stroke="#63b8ff" d="M811.66,-305.21C795.47,-312.41 775.52,-321.15 757.5,-328.62 751.16,-331.26 744.3,-334 737.85,-336.53"/>
<polygon fill="#63b8ff" stroke="#63b8ff" points="813,-307.99 820.7,-300.72 810.15,-301.6 813,-307.99"/>
</a>
</g>
</g>
<!-- Node34 -->
<g id="Node000034" class="node">
<title>Node34</title>
<g id="a_Node000034"><a xlink:href="../../d9/d26/poly2_8c.html#a3226cc8846078879cc5248019e74dc82" target="_top" xlink:title=" ">
<polygon fill="white" stroke="#666666" points="751.5,-319.25 669.5,-319.25 669.5,-300 751.5,-300 751.5,-319.25"/>
<text text-anchor="middle" x="710.5" y="-305.75" font-family="Helvetica,sans-Serif" font-size="10.00">qh_outcoplanar</text>
</a>
</g>
</g>
<!-- Node14&#45;&gt;Node34 -->
<g id="edge40_Node000014_Node000034" class="edge">
<title>Node14&#45;&gt;Node34</title>
<g id="a_edge40_Node000014_Node000034"><a xlink:title=" ">
<path fill="none" stroke="#63b8ff" d="M782.4,-299.46C771.98,-300.95 761.41,-302.47 751.73,-303.86"/>
<polygon fill="#63b8ff" stroke="#63b8ff" points="782.75,-302.8 792.15,-297.92 781.76,-295.87 782.75,-302.8"/>
</a>
</g>
</g>
<!-- Node14&#45;&gt;Node36 -->
<g id="edge44_Node000014_Node000036" class="edge">
<title>Node14&#45;&gt;Node36</title>
<g id="a_edge44_Node000014_Node000036"><a xlink:title=" ">
<path fill="none" stroke="#63b8ff" d="M810.64,-276.27C786.92,-266.07 755.67,-252.63 734.65,-243.58"/>
<polygon fill="#63b8ff" stroke="#63b8ff" points="809.05,-279.83 819.62,-280.57 811.81,-273.4 809.05,-279.83"/>
</a>
</g>
</g>
<!-- Node15&#45;&gt;Node3 -->
<g id="edge37_Node000015_Node000003" class="edge">
<title>Node15&#45;&gt;Node3</title>
<g id="a_edge37_Node000015_Node000003"><a xlink:title=" ">
<path fill="none" stroke="#63b8ff" d="M577.13,-273.66C564.23,-294.01 541.56,-326.24 515.5,-347.62 511.87,-350.61 507.66,-353.27 503.44,-355.58"/>
<polygon fill="#63b8ff" stroke="#63b8ff" points="580.53,-275.82 582.81,-265.47 574.57,-272.14 580.53,-275.82"/>
</a>
</g>
</g>
<!-- Node15&#45;&gt;Node4 -->
<g id="edge38_Node000015_Node000004" class="edge">
<title>Node15&#45;&gt;Node4</title>
<g id="a_edge38_Node000015_Node000004"><a xlink:title=" ">
<path fill="none" stroke="#63b8ff" d="M578.56,-273.74C560.75,-307.76 524.43,-376.06 515.5,-384.62 512.31,-387.69 508.49,-390.34 504.57,-392.6"/>
<polygon fill="#63b8ff" stroke="#63b8ff" points="581.92,-275.87 583.44,-265.39 575.71,-272.63 581.92,-275.87"/>
</a>
</g>
</g>
<!-- Node16 -->
<g id="Node000016" class="node">
<title>Node16</title>
<g id="a_Node000016"><a xlink:href="../../de/d23/user__eg2_8c.html#af7d3b6ebccf4d8bb722de846ec802d2a" target="_top" xlink:title=" ">
<polygon fill="white" stroke="#666666" points="515.5,-190.25 442.5,-190.25 442.5,-171 515.5,-171 515.5,-190.25"/>
<text text-anchor="middle" x="479" y="-176.75" font-family="Helvetica,sans-Serif" font-size="10.00">addDelaunay</text>
</a>
</g>
</g>
<!-- Node15&#45;&gt;Node16 -->
<g id="edge16_Node000015_Node000016" class="edge">
<title>Node15&#45;&gt;Node16</title>
<g id="a_edge16_Node000015_Node000016"><a xlink:title=" ">
<path fill="none" stroke="#63b8ff" d="M569.01,-238.08C554.71,-226.34 534.53,-210.6 515.5,-198.62 511.06,-195.83 506.12,-193.1 501.38,-190.66"/>
<polygon fill="#63b8ff" stroke="#63b8ff" points="566.17,-241.11 576.1,-244.81 570.65,-235.72 566.17,-241.11"/>
</a>
</g>
</g>
<!-- Node18 -->
<g id="Node000018" class="node">
<title>Node18</title>
<g id="a_Node000018"><a xlink:href="../../dc/d19/user__eg2__r_8c.html#a3355b30f54fdc164288f3cb18378bf4f" target="_top" xlink:title=" ">
<polygon fill="white" stroke="#666666" points="515.5,-264.25 442.5,-264.25 442.5,-245 515.5,-245 515.5,-264.25"/>
<text text-anchor="middle" x="479" y="-250.75" font-family="Helvetica,sans-Serif" font-size="10.00">addDelaunay</text>
</a>
</g>
</g>
<!-- Node15&#45;&gt;Node18 -->
<g id="edge18_Node000015_Node000018" class="edge">
<title>Node15&#45;&gt;Node18</title>
<g id="a_edge18_Node000015_Node000018"><a xlink:title=" ">
<path fill="none" stroke="#63b8ff" d="M544.05,-254.62C534.7,-254.62 524.96,-254.62 515.97,-254.62"/>
<polygon fill="#63b8ff" stroke="#63b8ff" points="543.76,-258.13 553.76,-254.62 543.76,-251.13 543.76,-258.13"/>
</a>
</g>
</g>
<!-- Node20 -->
<g id="Node000020" class="node">
<title>Node20</title>
<g id="a_Node000020"><a xlink:href="../../de/d23/user__eg2_8c.html#a769b1472f71d35a251257056ccc4f881" target="_top" xlink:title=" ">
<polygon fill="white" stroke="#666666" points="513.25,-116.25 444.75,-116.25 444.75,-97 513.25,-97 513.25,-116.25"/>
<text text-anchor="middle" x="479" y="-102.75" font-family="Helvetica,sans-Serif" font-size="10.00">adddiamond</text>
</a>
</g>
</g>
<!-- Node15&#45;&gt;Node20 -->
<g id="edge20_Node000015_Node000020" class="edge">
<title>Node15&#45;&gt;Node20</title>
<g id="a_edge20_Node000015_Node000020"><a xlink:title=" ">
<path fill="none" stroke="#63b8ff" d="M581.48,-234.44C570.95,-206.64 548.68,-156.42 515.5,-124.62 512.31,-121.56 508.49,-118.91 504.57,-116.65"/>
<polygon fill="#63b8ff" stroke="#63b8ff" points="578.45,-235.35 585.16,-243.54 585.03,-232.95 578.45,-235.35"/>
</a>
</g>
</g>
<!-- Node29 -->
<g id="Node000029" class="node">
<title>Node29</title>
<g id="a_Node000029"><a xlink:href="../../dc/d19/user__eg2__r_8c.html#a4dd6f8f9665377a801922cbf4523f48a" target="_top" xlink:title=" ">
<polygon fill="white" stroke="#666666" points="513.25,-227.25 444.75,-227.25 444.75,-208 513.25,-208 513.25,-227.25"/>
<text text-anchor="middle" x="479" y="-213.75" font-family="Helvetica,sans-Serif" font-size="10.00">adddiamond</text>
</a>
</g>
</g>
<!-- Node15&#45;&gt;Node29 -->
<g id="edge26_Node000015_Node000029" class="edge">
<title>Node15&#45;&gt;Node29</title>
<g id="a_edge26_Node000015_Node000029"><a xlink:title=" ">
<path fill="none" stroke="#63b8ff" d="M548.78,-241.08C535.83,-236.66 521.69,-231.84 509.61,-227.72"/>
<polygon fill="#63b8ff" stroke="#63b8ff" points="547.26,-244.6 557.85,-244.51 549.52,-237.97 547.26,-244.6"/>
</a>
</g>
</g>
<!-- Node30 -->
<g id="Node000030" class="node">
<title>Node30</title>
<g id="a_Node000030"><a xlink:href="../../de/d23/user__eg2_8c.html#ac1cac81bfd507c3716d7f07598f744be" target="_top" xlink:title=" ">
<polygon fill="white" stroke="#666666" points="502.75,-153.25 455.25,-153.25 455.25,-134 502.75,-134 502.75,-153.25"/>
<text text-anchor="middle" x="479" y="-139.75" font-family="Helvetica,sans-Serif" font-size="10.00">addhalf</text>
</a>
</g>
</g>
<!-- Node15&#45;&gt;Node30 -->
<g id="edge28_Node000015_Node000030" class="edge">
<title>Node15&#45;&gt;Node30</title>
<g id="a_edge28_Node000015_Node000030"><a xlink:title=" ">
<path fill="none" stroke="#63b8ff" d="M577.13,-235.59C564.23,-215.24 541.56,-183.01 515.5,-161.62 511.76,-158.56 507.41,-155.82 503.07,-153.46"/>
<polygon fill="#63b8ff" stroke="#63b8ff" points="574.57,-237.11 582.81,-243.78 580.53,-233.43 574.57,-237.11"/>
</a>
</g>
</g>
<!-- Node31 -->
<g id="Node000031" class="node">
<title>Node31</title>
<g id="a_Node000031"><a xlink:href="../../dc/d19/user__eg2__r_8c.html#a294f95af2e6aa72b22d7c21b4f3d8a9b" target="_top" xlink:title=" ">
<polygon fill="white" stroke="#666666" points="502.75,-301.25 455.25,-301.25 455.25,-282 502.75,-282 502.75,-301.25"/>
<text text-anchor="middle" x="479" y="-287.75" font-family="Helvetica,sans-Serif" font-size="10.00">addhalf</text>
</a>
</g>
</g>
<!-- Node15&#45;&gt;Node31 -->
<g id="edge30_Node000015_Node000031" class="edge">
<title>Node15&#45;&gt;Node31</title>
<g id="a_edge30_Node000015_Node000031"><a xlink:title=" ">
<path fill="none" stroke="#63b8ff" d="M548.58,-268.24C533.26,-273.46 516.3,-279.25 503.08,-283.76"/>
<polygon fill="#63b8ff" stroke="#63b8ff" points="549.52,-271.28 557.85,-264.74 547.26,-264.65 549.52,-271.28"/>
</a>
</g>
</g>
<!-- Node32 -->
<g id="Node000032" class="node">
<title>Node32</title>
<g id="a_Node000032"><a xlink:href="../../d3/d1d/libqhull_8c.html#a9dacb98db25f499d3e0416aee4307a80" target="_top" xlink:title=" ">
<polygon fill="white" stroke="#666666" points="512.5,-338.25 445.5,-338.25 445.5,-319 512.5,-319 512.5,-338.25"/>
<text text-anchor="middle" x="479" y="-324.75" font-family="Helvetica,sans-Serif" font-size="10.00">qh_buildhull</text>
</a>
</g>
</g>
<!-- Node15&#45;&gt;Node32 -->
<g id="edge32_Node000015_Node000032" class="edge">
<title>Node15&#45;&gt;Node32</title>
<g id="a_edge32_Node000015_Node000032"><a xlink:title=" ">
<path fill="none" stroke="#63b8ff" d="M569.01,-271.17C554.71,-282.91 534.53,-298.65 515.5,-310.62 511.06,-313.42 506.12,-316.15 501.38,-318.59"/>
<polygon fill="#63b8ff" stroke="#63b8ff" points="570.65,-273.53 576.1,-264.44 566.17,-268.14 570.65,-273.53"/>
</a>
</g>
</g>
<!-- Node17 -->
<g id="Node000017" class="node">
<title>Node17</title>
<g id="a_Node000017"><a xlink:href="../../de/d23/user__eg2_8c.html#a0ddf1224851353fc92bfbff6f499fa97" target="_top" xlink:title=" ">
<polygon fill="white" stroke="#666666" points="373.5,-153.25 336.5,-153.25 336.5,-134 373.5,-134 373.5,-153.25"/>
<text text-anchor="middle" x="355" y="-139.75" font-family="Helvetica,sans-Serif" font-size="10.00">main</text>
</a>
</g>
</g>
<!-- Node16&#45;&gt;Node17 -->
<g id="edge17_Node000016_Node000017" class="edge">
<title>Node16&#45;&gt;Node17</title>
<g id="a_edge17_Node000016_Node000017"><a xlink:title=" ">
<path fill="none" stroke="#63b8ff" d="M434.39,-167.4C413.52,-161.07 389.69,-153.84 373.84,-149.03"/>
<polygon fill="#63b8ff" stroke="#63b8ff" points="433.08,-170.96 443.66,-170.51 435.11,-164.26 433.08,-170.96"/>
</a>
</g>
</g>
<!-- Node19 -->
<g id="Node000019" class="node">
<title>Node19</title>
<g id="a_Node000019"><a xlink:href="../../dc/d19/user__eg2__r_8c.html#a0ddf1224851353fc92bfbff6f499fa97" target="_top" xlink:title=" ">
<polygon fill="white" stroke="#666666" points="373.5,-243.25 336.5,-243.25 336.5,-224 373.5,-224 373.5,-243.25"/>
<text text-anchor="middle" x="355" y="-229.75" font-family="Helvetica,sans-Serif" font-size="10.00">main</text>
</a>
</g>
</g>
<!-- Node18&#45;&gt;Node19 -->
<g id="edge19_Node000018_Node000019" class="edge">
<title>Node18&#45;&gt;Node19</title>
<g id="a_edge19_Node000018_Node000019"><a xlink:title=" ">
<path fill="none" stroke="#63b8ff" d="M431.45,-246.61C411.27,-243.14 388.85,-239.28 373.74,-236.68"/>
<polygon fill="#63b8ff" stroke="#63b8ff" points="430.61,-250.19 441.06,-248.44 431.79,-243.29 430.61,-250.19"/>
</a>
</g>
</g>
<!-- Node20&#45;&gt;Node17 -->
<g id="edge21_Node000020_Node000017" class="edge">
<title>Node20&#45;&gt;Node17</title>
<g id="a_edge21_Node000020_Node000017"><a xlink:title=" ">
<path fill="none" stroke="#63b8ff" d="M434.39,-119.85C413.52,-126.18 389.69,-133.41 373.84,-138.22"/>
<polygon fill="#63b8ff" stroke="#63b8ff" points="435.11,-122.99 443.66,-116.74 433.08,-116.29 435.11,-122.99"/>
</a>
</g>
</g>
<!-- Node21 -->
<g id="Node000021" class="node">
<title>Node21</title>
<g id="a_Node000021"><a xlink:href="../../d4/d08/rboxlib_8c.html#a1f9cbd7a40bf1755ccc7c938e5b135b8" target="_top" xlink:title=" ">
<polygon fill="white" stroke="#666666" points="393.38,-40.25 316.62,-40.25 316.62,-21 393.38,-21 393.38,-40.25"/>
<text text-anchor="middle" x="355" y="-26.75" font-family="Helvetica,sans-Serif" font-size="10.00">qh_rboxpoints</text>
</a>
</g>
</g>
<!-- Node20&#45;&gt;Node21 -->
<g id="edge22_Node000020_Node000021" class="edge">
<title>Node20&#45;&gt;Node21</title>
<g id="a_edge22_Node000020_Node000021"><a xlink:title=" ">
<path fill="none" stroke="#63b8ff" d="M452.48,-90.73C428.17,-75.58 392.34,-53.27 371.88,-40.52"/>
<polygon fill="#63b8ff" stroke="#63b8ff" points="450.46,-94.22 460.8,-96.53 454.16,-88.27 450.46,-94.22"/>
</a>
</g>
</g>
<!-- Node28 -->
<g id="Node000028" class="node">
<title>Node28</title>
<g id="a_Node000028"><a xlink:href="../../d2/dd4/rboxlib__r_8c.html#a4743d95ee7e5e5043c383a6233a44f8c" target="_top" xlink:title=" ">
<polygon fill="white" stroke="#666666" points="393.38,-116.25 316.62,-116.25 316.62,-97 393.38,-97 393.38,-116.25"/>
<text text-anchor="middle" x="355" y="-102.75" font-family="Helvetica,sans-Serif" font-size="10.00">qh_rboxpoints</text>
</a>
</g>
</g>
<!-- Node20&#45;&gt;Node28 -->
<g id="edge25_Node000020_Node000028" class="edge">
<title>Node20&#45;&gt;Node28</title>
<g id="a_edge25_Node000020_Node000028"><a xlink:title=" ">
<path fill="none" stroke="#63b8ff" d="M433.69,-106.62C420.63,-106.62 406.46,-106.62 393.85,-106.62"/>
<polygon fill="#63b8ff" stroke="#63b8ff" points="433.34,-110.13 443.34,-106.62 433.34,-103.13 433.34,-110.13"/>
</a>
</g>
</g>
<!-- Node22 -->
<g id="Node000022" class="node">
<title>Node22</title>
<g id="a_Node000022"><a xlink:href="../../da/d3e/classorg_qhull_1_1_rbox_points.html#aa0bdcd34bc5eddbd5c6badc47c4786a8" target="_top" xlink:title="Appends points as defined by rboxCommand Appends rboxCommand to comment For rbox commands,...">
<polygon fill="#fff0f0" stroke="red" points="267.5,-67.88 158.5,-67.88 158.5,-37.38 267.5,-37.38 267.5,-67.88"/>
<text text-anchor="start" x="166.5" y="-54.38" font-family="Helvetica,sans-Serif" font-size="10.00">orgQhull::RboxPoints</text>
<text text-anchor="middle" x="213" y="-43.12" font-family="Helvetica,sans-Serif" font-size="10.00">::appendPoints</text>
</a>
</g>
</g>
<!-- Node21&#45;&gt;Node22 -->
<g id="edge23_Node000021_Node000022" class="edge">
<title>Node21&#45;&gt;Node22</title>
<g id="a_edge23_Node000021_Node000022"><a xlink:title=" ">
<path fill="none" stroke="#63b8ff" d="M305.64,-38.23C293.48,-40.14 280.35,-42.2 267.94,-44.15"/>
<polygon fill="#63b8ff" stroke="#63b8ff" points="306.15,-41.53 315.48,-36.52 305.06,-34.62 306.15,-41.53"/>
</a>
</g>
</g>
<!-- Node27 -->
<g id="Node000027" class="node">
<title>Node27</title>
<g id="a_Node000027"><a xlink:href="../../d9/ddf/rbox__r_8c.html#a3c04138a5bfe5d72780bb7e82a18e627" target="_top" xlink:title=" ">
<polygon fill="white" stroke="#666666" points="231.5,-19.25 194.5,-19.25 194.5,0 231.5,0 231.5,-19.25"/>
<text text-anchor="middle" x="213" y="-5.75" font-family="Helvetica,sans-Serif" font-size="10.00">main</text>
</a>
</g>
</g>
<!-- Node21&#45;&gt;Node27 -->
<g id="edge24_Node000021_Node000027" class="edge">
<title>Node21&#45;&gt;Node27</title>
<g id="a_edge24_Node000021_Node000027"><a xlink:title=" ">
<path fill="none" stroke="#63b8ff" d="M305.86,-23.4C280.36,-19.58 250.56,-15.11 231.98,-12.32"/>
<polygon fill="#63b8ff" stroke="#63b8ff" points="305.07,-26.98 315.48,-25 306.11,-20.05 305.07,-26.98"/>
</a>
</g>
</g>
<!-- Node29&#45;&gt;Node19 -->
<g id="edge27_Node000029_Node000019" class="edge">
<title>Node29&#45;&gt;Node19</title>
<g id="a_edge27_Node000029_Node000019"><a xlink:title=" ">
<path fill="none" stroke="#63b8ff" d="M433.51,-223.46C412.81,-226.17 389.37,-229.25 373.74,-231.3"/>
<polygon fill="#63b8ff" stroke="#63b8ff" points="433.88,-226.81 443.34,-222.04 432.97,-219.87 433.88,-226.81"/>
</a>
</g>
</g>
<!-- Node30&#45;&gt;Node17 -->
<g id="edge29_Node000030_Node000017" class="edge">
<title>Node30&#45;&gt;Node17</title>
<g id="a_edge29_Node000030_Node000017"><a xlink:title=" ">
<path fill="none" stroke="#63b8ff" d="M443.88,-143.62C421.2,-143.62 392.32,-143.62 373.99,-143.62"/>
<polygon fill="#63b8ff" stroke="#63b8ff" points="443.77,-147.13 453.77,-143.62 443.77,-140.13 443.77,-147.13"/>
</a>
</g>
</g>
<!-- Node31&#45;&gt;Node19 -->
<g id="edge31_Node000031_Node000019" class="edge">
<title>Node31&#45;&gt;Node19</title>
<g id="a_edge31_Node000031_Node000019"><a xlink:title=" ">
<path fill="none" stroke="#63b8ff" d="M447.04,-276.9C423.88,-265.89 393.02,-251.22 373.84,-242.11"/>
<polygon fill="#63b8ff" stroke="#63b8ff" points="445.22,-280.39 455.75,-281.52 448.22,-274.07 445.22,-280.39"/>
</a>
</g>
</g>
<!-- Node32&#45;&gt;Node5 -->
<g id="edge33_Node000032_Node000005" class="edge">
<title>Node32&#45;&gt;Node5</title>
<g id="a_edge33_Node000032_Node000005"><a xlink:title=" ">
<path fill="none" stroke="#63b8ff" d="M434.62,-335.38C425.59,-336.79 415.99,-338.28 406.71,-339.73"/>
<polygon fill="#63b8ff" stroke="#63b8ff" points="434.96,-338.71 444.31,-333.72 433.89,-331.8 434.96,-338.71"/>
</a>
</g>
</g>
<!-- Node32&#45;&gt;Node6 -->
<g id="edge34_Node000032_Node000006" class="edge">
<title>Node32&#45;&gt;Node6</title>
<g id="a_edge34_Node000032_Node000006"><a xlink:title=" ">
<path fill="none" stroke="#63b8ff" d="M446.59,-343.98C445.19,-344.84 443.82,-345.72 442.5,-346.62 411.93,-367.46 380.62,-398.12 365.42,-413.72"/>
<polygon fill="#63b8ff" stroke="#63b8ff" points="448.1,-346.58 455.09,-338.62 444.66,-340.48 448.1,-346.58"/>
</a>
</g>
</g>
<!-- Node32&#45;&gt;Node7 -->
<g id="edge35_Node000032_Node000007" class="edge">
<title>Node32&#45;&gt;Node7</title>
<g id="a_edge35_Node000032_Node000007"><a xlink:title=" ">
<path fill="none" stroke="#63b8ff" d="M434.47,-319.36C397.95,-313.71 345.22,-310.61 303.5,-328.62 262.52,-346.32 231.61,-393.04 219.54,-413.63"/>
<polygon fill="#63b8ff" stroke="#63b8ff" points="433.81,-322.96 444.25,-321.17 434.97,-316.06 433.81,-322.96"/>
</a>
</g>
</g>
<!-- Node32&#45;&gt;Node8 -->
<g id="edge36_Node000032_Node000008" class="edge">
<title>Node32&#45;&gt;Node8</title>
<g id="a_edge36_Node000032_Node000008"><a xlink:title=" ">
<path fill="none" stroke="#63b8ff" d="M447.38,-313.75C430.04,-305.46 410.94,-296.6 406.5,-295.62 361.79,-285.8 348.57,-287.58 303.5,-295.62 279.05,-299.99 252.52,-310.57 234.75,-318.58"/>
<polygon fill="#63b8ff" stroke="#63b8ff" points="445.74,-317.32 456.27,-318.5 448.77,-311.02 445.74,-317.32"/>
</a>
</g>
</g>
<!-- Node34&#45;&gt;Node32 -->
<g id="edge42_Node000034_Node000032" class="edge">
<title>Node34&#45;&gt;Node32</title>
<g id="a_edge42_Node000034_Node000032"><a xlink:title=" ">
<path fill="none" stroke="#63b8ff" d="M658.38,-313.86C613.9,-317.54 550.77,-322.77 512.76,-325.91"/>
<polygon fill="#63b8ff" stroke="#63b8ff" points="658.58,-317.27 668.26,-312.96 658.01,-310.29 658.58,-317.27"/>
</a>
</g>
</g>
<!-- Node35 -->
<g id="Node000035" class="node">
<title>Node35</title>
<g id="a_Node000035"><a xlink:href="../../dd/ddc/libqhull__r_8c.html#a45f90a4c6d1607471beacabf3b0a5b9a" target="_top" xlink:title=" ">
<polygon fill="white" stroke="#666666" points="623,-357.25 556,-357.25 556,-338 623,-338 623,-357.25"/>
<text text-anchor="middle" x="589.5" y="-343.75" font-family="Helvetica,sans-Serif" font-size="10.00">qh_buildhull</text>
</a>
</g>
</g>
<!-- Node34&#45;&gt;Node35 -->
<g id="edge41_Node000034_Node000035" class="edge">
<title>Node34&#45;&gt;Node35</title>
<g id="a_edge41_Node000034_Node000035"><a xlink:title=" ">
<path fill="none" stroke="#63b8ff" d="M667.78,-322.95C652.67,-327.77 635.88,-333.14 621.81,-337.63"/>
<polygon fill="#63b8ff" stroke="#63b8ff" points="668.46,-326.08 676.92,-319.71 666.33,-319.42 668.46,-326.08"/>
</a>
</g>
</g>
<!-- Node36&#45;&gt;Node8 -->
<g id="edge46_Node000036_Node000008" class="edge">
<title>Node36&#45;&gt;Node8</title>
<g id="a_edge46_Node000036_Node000008"><a xlink:title=" ">
<path fill="none" stroke="#63b8ff" d="M693.95,-216.02C663.57,-183.14 592.57,-113.38 515.5,-87.62 426.14,-57.76 380.86,-33.83 303.5,-87.62 223.07,-143.56 214.77,-280.75 214.03,-318.74"/>
<polygon fill="#63b8ff" stroke="#63b8ff" points="690.78,-217.84 700.09,-222.9 695.96,-213.14 690.78,-217.84"/>
</a>
</g>
</g>
<!-- Node36&#45;&gt;Node15 -->
<g id="edge45_Node000036_Node000015" class="edge">
<title>Node36&#45;&gt;Node15</title>
<g id="a_edge45_Node000036_Node000015"><a xlink:title=" ">
<path fill="none" stroke="#63b8ff" d="M652.61,-243.66C642.82,-245.39 632.93,-247.14 624.01,-248.71"/>
<polygon fill="#63b8ff" stroke="#63b8ff" points="652.91,-246.99 662.15,-241.8 651.69,-240.1 652.91,-246.99"/>
</a>
</g>
</g>
</g>
</svg>
