<?xml version="1.0" encoding="UTF-8" standalone="no"?>
<!DOCTYPE svg PUBLIC "-//W3C//DTD SVG 1.1//EN"
 "http://www.w3.org/Graphics/SVG/1.1/DTD/svg11.dtd">
<!-- Generated by graphviz version 8.1.0 (20230707.0739)
 -->
<!-- Title: Slic3r::TriangleMesh::write_ascii Pages: 1 -->
<svg width="630pt" height="162pt"
 viewBox="0.00 0.00 629.50 161.88" xmlns="http://www.w3.org/2000/svg" xmlns:xlink="http://www.w3.org/1999/xlink">
<g id="graph0" class="graph" transform="scale(1 1) rotate(0) translate(4 157.88)">
<title>Slic3r::TriangleMesh::write_ascii</title>
<!-- Node1 -->
<g id="Node000001" class="node">
<title>Node1</title>
<g id="a_Node000001"><a xlink:title=" ">
<polygon fill="#999999" stroke="#666666" points="621.5,-82.88 516.25,-82.88 516.25,-52.38 621.5,-52.38 621.5,-82.88"/>
<text text-anchor="start" x="524.25" y="-69.38" font-family="Helvetica,sans-Serif" font-size="10.00">Slic3r::TriangleMesh</text>
<text text-anchor="middle" x="568.88" y="-58.12" font-family="Helvetica,sans-Serif" font-size="10.00">::write_ascii</text>
</a>
</g>
</g>
<!-- Node2 -->
<g id="Node000002" class="node">
<title>Node2</title>
<g id="a_Node000002"><a xlink:href="../../de/db8/namespace_slic3r.html#a9da7d7d7020a5ab5fda6850e0ecdf43e" target="_top" xlink:title=" ">
<polygon fill="white" stroke="#666666" points="480.25,-77.25 396,-77.25 396,-58 480.25,-58 480.25,-77.25"/>
<text text-anchor="middle" x="438.12" y="-63.75" font-family="Helvetica,sans-Serif" font-size="10.00">Slic3r::store_stl</text>
</a>
</g>
</g>
<!-- Node1&#45;&gt;Node2 -->
<g id="edge1_Node000001_Node000002" class="edge">
<title>Node1&#45;&gt;Node2</title>
<g id="a_edge1_Node000001_Node000002"><a xlink:title=" ">
<path fill="none" stroke="#63b8ff" d="M505.05,-67.62C496.76,-67.62 488.44,-67.62 480.63,-67.62"/>
<polygon fill="#63b8ff" stroke="#63b8ff" points="504.88,-71.13 514.88,-67.62 504.88,-64.13 504.88,-71.13"/>
</a>
</g>
</g>
<!-- Node3 -->
<g id="Node000003" class="node">
<title>Node3</title>
<g id="a_Node000003"><a xlink:href="../../de/d33/class_slic3r_1_1_c_l_i.html#aa56c1eeb7ee18dac362760c206e3551c" target="_top" xlink:title="Exports loaded models to a file of the specified format, according to the options affecting output fi...">
<polygon fill="white" stroke="#666666" points="359.62,-153.88 264.12,-153.88 264.12,-123.38 359.62,-123.38 359.62,-153.88"/>
<text text-anchor="start" x="272.12" y="-140.38" font-family="Helvetica,sans-Serif" font-size="10.00">Slic3r::CLI::export</text>
<text text-anchor="middle" x="311.88" y="-129.12" font-family="Helvetica,sans-Serif" font-size="10.00">_models</text>
</a>
</g>
</g>
<!-- Node2&#45;&gt;Node3 -->
<g id="edge2_Node000002_Node000003" class="edge">
<title>Node2&#45;&gt;Node3</title>
<g id="a_edge2_Node000002_Node000003"><a xlink:title=" ">
<path fill="none" stroke="#63b8ff" d="M411.59,-83.29C396.66,-92.34 377.39,-103.84 360,-113.62 354.51,-116.71 348.61,-119.93 342.91,-122.98"/>
<polygon fill="#63b8ff" stroke="#63b8ff" points="412.99,-85.93 419.72,-77.74 409.35,-79.95 412.99,-85.93"/>
</a>
</g>
</g>
<!-- Node6 -->
<g id="Node000006" class="node">
<title>Node6</title>
<g id="a_Node000006"><a xlink:href="../../d7/d21/class_slic3r_1_1_g_u_i_1_1_plater.html#a01ee773bb9e8320d8841a0d9b83e5033" target="_top" xlink:title=" ">
<polygon fill="white" stroke="#666666" points="360,-104.88 263.75,-104.88 263.75,-74.38 360,-74.38 360,-104.88"/>
<text text-anchor="start" x="271.75" y="-91.38" font-family="Helvetica,sans-Serif" font-size="10.00">Slic3r::GUI::Plater</text>
<text text-anchor="middle" x="311.88" y="-80.12" font-family="Helvetica,sans-Serif" font-size="10.00">::export_stl</text>
</a>
</g>
</g>
<!-- Node2&#45;&gt;Node6 -->
<g id="edge5_Node000002_Node000006" class="edge">
<title>Node2&#45;&gt;Node6</title>
<g id="a_edge5_Node000002_Node000006"><a xlink:title=" ">
<path fill="none" stroke="#63b8ff" d="M385.05,-76.84C376.77,-78.31 368.24,-79.82 360.08,-81.27"/>
<polygon fill="#63b8ff" stroke="#63b8ff" points="385.51,-80.14 394.75,-74.95 384.29,-73.25 385.51,-80.14"/>
</a>
</g>
</g>
<!-- Node8 -->
<g id="Node000008" class="node">
<title>Node8</title>
<g id="a_Node000008"><a xlink:href="../../de/db8/namespace_slic3r.html#a6431500c07b83a526774174c9b2a2ee6" target="_top" xlink:title=" ">
<polygon fill="white" stroke="#666666" points="354,-56.25 269.75,-56.25 269.75,-37 354,-37 354,-56.25"/>
<text text-anchor="middle" x="311.88" y="-42.75" font-family="Helvetica,sans-Serif" font-size="10.00">Slic3r::store_stl</text>
</a>
</g>
</g>
<!-- Node2&#45;&gt;Node8 -->
<g id="edge7_Node000002_Node000008" class="edge">
<title>Node2&#45;&gt;Node8</title>
<g id="a_edge7_Node000002_Node000008"><a xlink:title=" ">
<path fill="none" stroke="#63b8ff" d="M384.93,-58.8C374.77,-57.09 364.25,-55.31 354.49,-53.66"/>
<polygon fill="#63b8ff" stroke="#63b8ff" points="384.31,-62.42 394.75,-60.63 385.47,-55.51 384.31,-62.42"/>
</a>
</g>
</g>
<!-- Node9 -->
<g id="Node000009" class="node">
<title>Node9</title>
<g id="a_Node000009"><a xlink:href="../../de/db8/namespace_slic3r.html#a7b7bb63a240ed9e9e490d3e0aea70a12" target="_top" xlink:title=" ">
<polygon fill="white" stroke="#666666" points="354,-19.25 269.75,-19.25 269.75,0 354,0 354,-19.25"/>
<text text-anchor="middle" x="311.88" y="-5.75" font-family="Helvetica,sans-Serif" font-size="10.00">Slic3r::store_stl</text>
</a>
</g>
</g>
<!-- Node2&#45;&gt;Node9 -->
<g id="edge8_Node000002_Node000009" class="edge">
<title>Node2&#45;&gt;Node9</title>
<g id="a_edge8_Node000002_Node000009"><a xlink:title=" ">
<path fill="none" stroke="#63b8ff" d="M409.9,-52.54C395.3,-44.7 376.88,-35.2 360,-27.62 353.77,-24.83 346.96,-22.07 340.5,-19.58"/>
<polygon fill="#63b8ff" stroke="#63b8ff" points="407.87,-55.97 418.33,-57.66 411.21,-49.82 407.87,-55.97"/>
</a>
</g>
</g>
<!-- Node4 -->
<g id="Node000004" class="node">
<title>Node4</title>
<g id="a_Node000004"><a xlink:href="../../de/d33/class_slic3r_1_1_c_l_i.html#a04fb4429030d98de51a297066a116dcb" target="_top" xlink:title=" ">
<polygon fill="white" stroke="#666666" points="191.38,-148.25 109.38,-148.25 109.38,-129 191.38,-129 191.38,-148.25"/>
<text text-anchor="middle" x="150.38" y="-134.75" font-family="Helvetica,sans-Serif" font-size="10.00">Slic3r::CLI::run</text>
</a>
</g>
</g>
<!-- Node3&#45;&gt;Node4 -->
<g id="edge3_Node000003_Node000004" class="edge">
<title>Node3&#45;&gt;Node4</title>
<g id="a_edge3_Node000003_Node000004"><a xlink:title=" ">
<path fill="none" stroke="#63b8ff" d="M253.16,-138.62C232.83,-138.62 210.42,-138.62 191.82,-138.62"/>
<polygon fill="#63b8ff" stroke="#63b8ff" points="252.88,-142.13 262.88,-138.62 252.88,-135.13 252.88,-142.13"/>
</a>
</g>
</g>
<!-- Node5 -->
<g id="Node000005" class="node">
<title>Node5</title>
<g id="a_Node000005"><a xlink:href="../../d8/de2/_orca_slicer_8cpp.html#a3c04138a5bfe5d72780bb7e82a18e627" target="_top" xlink:title=" ">
<polygon fill="white" stroke="#666666" points="37,-148.25 0,-148.25 0,-129 37,-129 37,-148.25"/>
<text text-anchor="middle" x="18.5" y="-134.75" font-family="Helvetica,sans-Serif" font-size="10.00">main</text>
</a>
</g>
</g>
<!-- Node4&#45;&gt;Node5 -->
<g id="edge4_Node000004_Node000005" class="edge">
<title>Node4&#45;&gt;Node5</title>
<g id="a_edge4_Node000004_Node000005"><a xlink:title=" ">
<path fill="none" stroke="#63b8ff" d="M98.02,-138.62C76.58,-138.62 53.07,-138.62 37.42,-138.62"/>
<polygon fill="#63b8ff" stroke="#63b8ff" points="97.99,-142.13 107.99,-138.62 97.99,-135.13 97.99,-142.13"/>
</a>
</g>
</g>
<!-- Node7 -->
<g id="Node000007" class="node">
<title>Node7</title>
<g id="a_Node000007"><a xlink:href="../../de/de3/class_slic3r_1_1_g_u_i_1_1_menu_factory.html#aa08fecbb5bb186719ac6fe324b7f4150" target="_top" xlink:title=" ">
<polygon fill="white" stroke="#666666" points="227.75,-104.88 73,-104.88 73,-74.38 227.75,-74.38 227.75,-104.88"/>
<text text-anchor="start" x="81" y="-91.38" font-family="Helvetica,sans-Serif" font-size="10.00">Slic3r::GUI::MenuFactory</text>
<text text-anchor="middle" x="150.38" y="-80.12" font-family="Helvetica,sans-Serif" font-size="10.00">::append_menu_item_export_stl</text>
</a>
</g>
</g>
<!-- Node6&#45;&gt;Node7 -->
<g id="edge6_Node000006_Node000007" class="edge">
<title>Node6&#45;&gt;Node7</title>
<g id="a_edge6_Node000006_Node000007"><a xlink:title=" ">
<path fill="none" stroke="#63b8ff" d="M252.5,-89.62C244.59,-89.62 236.37,-89.62 228.19,-89.62"/>
<polygon fill="#63b8ff" stroke="#63b8ff" points="252.45,-93.13 262.45,-89.62 252.45,-86.13 252.45,-93.13"/>
</a>
</g>
</g>
</g>
</svg>
