<?xml version="1.0" encoding="UTF-8" standalone="no"?>
<!DOCTYPE svg PUBLIC "-//W3C//DTD SVG 1.1//EN"
 "http://www.w3.org/Graphics/SVG/1.1/DTD/svg11.dtd">
<!-- Generated by graphviz version 8.1.0 (20230707.0739)
 -->
<!-- Title: Eigen::SimplicialLLT::analyzePattern Pages: 1 -->
<svg width="818pt" height="235pt"
 viewBox="0.00 0.00 817.75 234.50" xmlns="http://www.w3.org/2000/svg" xmlns:xlink="http://www.w3.org/1999/xlink">
<g id="graph0" class="graph" transform="scale(1 1) rotate(0) translate(4 230.5)">
<title>Eigen::SimplicialLLT::analyzePattern</title>
<!-- Node1 -->
<g id="Node000001" class="node">
<title>Node1</title>
<g id="a_Node000001"><a xlink:title=" ">
<polygon fill="#999999" stroke="#666666" points="105.25,-158.5 0,-158.5 0,-128 105.25,-128 105.25,-158.5"/>
<text text-anchor="start" x="8" y="-145" font-family="Helvetica,sans-Serif" font-size="10.00">Eigen::SimplicialLLT</text>
<text text-anchor="middle" x="52.62" y="-133.75" font-family="Helvetica,sans-Serif" font-size="10.00">::analyzePattern</text>
</a>
</g>
</g>
<!-- Node2 -->
<g id="Node000002" class="node">
<title>Node2</title>
<g id="a_Node000002"><a xlink:href="../../d7/de1/class_eigen_1_1_simplicial_cholesky_base.html#aaf20ed812a661069f9e484649ae9be1e" target="_top" xlink:title=" ">
<polygon fill="white" stroke="#666666" points="271.25,-158.5 141.25,-158.5 141.25,-128 271.25,-128 271.25,-158.5"/>
<text text-anchor="start" x="149.25" y="-145" font-family="Helvetica,sans-Serif" font-size="10.00">Eigen::SimplicialCholesky</text>
<text text-anchor="middle" x="206.25" y="-133.75" font-family="Helvetica,sans-Serif" font-size="10.00">Base::analyzePattern</text>
</a>
</g>
</g>
<!-- Node1&#45;&gt;Node2 -->
<g id="edge1_Node000001_Node000002" class="edge">
<title>Node1&#45;&gt;Node2</title>
<g id="a_edge1_Node000001_Node000002"><a xlink:title=" ">
<path fill="none" stroke="#63b8ff" d="M105.38,-143.25C113.32,-143.25 121.64,-143.25 129.96,-143.25"/>
<polygon fill="#63b8ff" stroke="#63b8ff" points="129.85,-146.75 139.85,-143.25 129.85,-139.75 129.85,-146.75"/>
</a>
</g>
</g>
<!-- Node3 -->
<g id="Node000003" class="node">
<title>Node3</title>
<g id="a_Node000003"><a xlink:href="../../d7/de1/class_eigen_1_1_simplicial_cholesky_base.html#ac2acafc9b7cdc089f89b6777e7469b73" target="_top" xlink:title=" ">
<polygon fill="white" stroke="#666666" points="468,-195.5 307.25,-195.5 307.25,-165 468,-165 468,-195.5"/>
<text text-anchor="start" x="315.25" y="-182" font-family="Helvetica,sans-Serif" font-size="10.00">Eigen::SimplicialCholesky</text>
<text text-anchor="middle" x="387.62" y="-170.75" font-family="Helvetica,sans-Serif" font-size="10.00">Base::analyzePattern_preordered</text>
</a>
</g>
</g>
<!-- Node2&#45;&gt;Node3 -->
<g id="edge2_Node000002_Node000003" class="edge">
<title>Node2&#45;&gt;Node3</title>
<g id="a_edge2_Node000002_Node000003"><a xlink:title=" ">
<path fill="none" stroke="#63b8ff" d="M271.5,-156.5C280.63,-158.39 290.14,-160.35 299.62,-162.3"/>
<polygon fill="#63b8ff" stroke="#63b8ff" points="298.77,-165.91 309.27,-164.5 300.19,-159.05 298.77,-165.91"/>
</a>
</g>
</g>
<!-- Node5 -->
<g id="Node000005" class="node">
<title>Node5</title>
<g id="a_Node000005"><a xlink:href="../../d7/de1/class_eigen_1_1_simplicial_cholesky_base.html#a4e59a8081d09fd8ff1ce9db4becbc150" target="_top" xlink:title=" ">
<polygon fill="white" stroke="#666666" points="452.62,-134.5 322.62,-134.5 322.62,-104 452.62,-104 452.62,-134.5"/>
<text text-anchor="start" x="330.62" y="-121" font-family="Helvetica,sans-Serif" font-size="10.00">Eigen::SimplicialCholesky</text>
<text text-anchor="middle" x="387.62" y="-109.75" font-family="Helvetica,sans-Serif" font-size="10.00">Base::ordering</text>
</a>
</g>
</g>
<!-- Node2&#45;&gt;Node5 -->
<g id="edge4_Node000002_Node000005" class="edge">
<title>Node2&#45;&gt;Node5</title>
<g id="a_edge4_Node000002_Node000005"><a xlink:title=" ">
<path fill="none" stroke="#63b8ff" d="M271.5,-134.65C284.51,-132.91 298.3,-131.07 311.64,-129.28"/>
<polygon fill="#63b8ff" stroke="#63b8ff" points="311.77,-132.66 321.22,-127.87 310.84,-125.72 311.77,-132.66"/>
</a>
</g>
</g>
<!-- Node4 -->
<g id="Node000004" class="node">
<title>Node4</title>
<g id="a_Node000004"><a xlink:href="../../dc/dfe/class_eigen_1_1_sparse_matrix.html#a62e61bb861eee306d5b069ce652b5aa5" target="_top" xlink:title=" ">
<polygon fill="white" stroke="#666666" points="792.12,-226.5 687.62,-226.5 687.62,-196 792.12,-196 792.12,-226.5"/>
<text text-anchor="start" x="695.62" y="-213" font-family="Helvetica,sans-Serif" font-size="10.00">Eigen::SparseMatrix</text>
<text text-anchor="middle" x="739.88" y="-201.75" font-family="Helvetica,sans-Serif" font-size="10.00">::rows</text>
</a>
</g>
</g>
<!-- Node3&#45;&gt;Node4 -->
<g id="edge3_Node000003_Node000004" class="edge">
<title>Node3&#45;&gt;Node4</title>
<g id="a_edge3_Node000003_Node000004"><a xlink:title=" ">
<path fill="none" stroke="#63b8ff" d="M468.1,-187.28C531.24,-192.87 618.31,-200.58 676.5,-205.73"/>
<polygon fill="#63b8ff" stroke="#63b8ff" points="676.1,-209.3 686.37,-206.69 676.72,-202.32 676.1,-209.3"/>
</a>
</g>
</g>
<!-- Node6 -->
<g id="Node000006" class="node">
<title>Node6</title>
<g id="a_Node000006"><a xlink:href="../../dc/dfe/class_eigen_1_1_sparse_matrix.html#af88551f30202341b7cc24cfadabdec5c" target="_top" xlink:title=" ">
<polygon fill="white" stroke="#666666" points="621.25,-134.5 516.75,-134.5 516.75,-104 621.25,-104 621.25,-134.5"/>
<text text-anchor="start" x="524.75" y="-121" font-family="Helvetica,sans-Serif" font-size="10.00">Eigen::SparseMatrix</text>
<text text-anchor="middle" x="569" y="-109.75" font-family="Helvetica,sans-Serif" font-size="10.00">::resize</text>
</a>
</g>
</g>
<!-- Node5&#45;&gt;Node6 -->
<g id="edge5_Node000005_Node000006" class="edge">
<title>Node5&#45;&gt;Node6</title>
<g id="a_edge5_Node000005_Node000006"><a xlink:title=" ">
<path fill="none" stroke="#63b8ff" d="M452.88,-119.25C469.95,-119.25 488.36,-119.25 505.34,-119.25"/>
<polygon fill="#63b8ff" stroke="#63b8ff" points="505.27,-122.75 515.27,-119.25 505.27,-115.75 505.27,-122.75"/>
</a>
</g>
</g>
<!-- Node11 -->
<g id="Node000011" class="node">
<title>Node11</title>
<g id="a_Node000011"><a xlink:href="../../d8/d9d/struct_eigen_1_1internal_1_1simplicial__cholesky__grab__input.html#ad2473ac42c6e41b5eb5383be03740c05" target="_top" xlink:title=" ">
<polygon fill="white" stroke="#666666" points="634,-85.5 504,-85.5 504,-55 634,-55 634,-85.5"/>
<text text-anchor="start" x="512" y="-72" font-family="Helvetica,sans-Serif" font-size="10.00">Eigen::internal::simplicial</text>
<text text-anchor="middle" x="569" y="-60.75" font-family="Helvetica,sans-Serif" font-size="10.00">_cholesky_grab_input::run</text>
</a>
</g>
</g>
<!-- Node5&#45;&gt;Node11 -->
<g id="edge11_Node000005_Node000011" class="edge">
<title>Node5&#45;&gt;Node11</title>
<g id="a_edge11_Node000005_Node000011"><a xlink:title=" ">
<path fill="none" stroke="#63b8ff" d="M445.87,-103.61C463.02,-98.93 482,-93.74 499.78,-88.89"/>
<polygon fill="#63b8ff" stroke="#63b8ff" points="500.65,-92 509.37,-85.99 498.8,-85.25 500.65,-92"/>
</a>
</g>
</g>
<!-- Node6&#45;&gt;Node4 -->
<g id="edge9_Node000006_Node000004" class="edge">
<title>Node6&#45;&gt;Node4</title>
<g id="a_edge9_Node000006_Node000004"><a xlink:title=" ">
<path fill="none" stroke="#63b8ff" d="M590.17,-134.9C609.76,-149.57 640.74,-171.41 670,-186.25 673.5,-188.02 677.15,-189.73 680.87,-191.36"/>
<polygon fill="#63b8ff" stroke="#63b8ff" points="679.24,-194.89 689.81,-195.51 681.93,-188.43 679.24,-194.89"/>
</a>
</g>
</g>
<!-- Node7 -->
<g id="Node000007" class="node">
<title>Node7</title>
<g id="a_Node000007"><a xlink:href="../../da/d0d/class_eigen_1_1internal_1_1_compressed_storage.html#a827850622e91b53a2fafd0d15fcfcc8f" target="_top" xlink:title=" ">
<polygon fill="white" stroke="#666666" points="809.75,-177.5 670,-177.5 670,-147 809.75,-147 809.75,-177.5"/>
<text text-anchor="start" x="678" y="-164" font-family="Helvetica,sans-Serif" font-size="10.00">Eigen::internal::Compressed</text>
<text text-anchor="middle" x="739.88" y="-152.75" font-family="Helvetica,sans-Serif" font-size="10.00">Storage::clear</text>
</a>
</g>
</g>
<!-- Node6&#45;&gt;Node7 -->
<g id="edge6_Node000006_Node000007" class="edge">
<title>Node6&#45;&gt;Node7</title>
<g id="a_edge6_Node000006_Node000007"><a xlink:title=" ">
<path fill="none" stroke="#63b8ff" d="M621.59,-132.39C635.85,-136.02 651.6,-140.03 666.8,-143.9"/>
<polygon fill="#63b8ff" stroke="#63b8ff" points="665.65,-147.47 676.21,-146.55 667.38,-140.69 665.65,-147.47"/>
</a>
</g>
</g>
<!-- Node8 -->
<g id="Node000008" class="node">
<title>Node8</title>
<g id="a_Node000008"><a xlink:href="../../dc/dfe/class_eigen_1_1_sparse_matrix.html#aa391750e3c530227e4a5c3c52e959975" target="_top" xlink:title=" ">
<polygon fill="white" stroke="#666666" points="792.12,-128.5 687.62,-128.5 687.62,-98 792.12,-98 792.12,-128.5"/>
<text text-anchor="start" x="695.62" y="-115" font-family="Helvetica,sans-Serif" font-size="10.00">Eigen::SparseMatrix</text>
<text text-anchor="middle" x="739.88" y="-103.75" font-family="Helvetica,sans-Serif" font-size="10.00">::cols</text>
</a>
</g>
</g>
<!-- Node6&#45;&gt;Node8 -->
<g id="edge7_Node000006_Node000008" class="edge">
<title>Node6&#45;&gt;Node8</title>
<g id="a_edge7_Node000006_Node000008"><a xlink:title=" ">
<path fill="none" stroke="#63b8ff" d="M621.59,-117.42C638.94,-116.8 658.48,-116.11 676.57,-115.46"/>
<polygon fill="#63b8ff" stroke="#63b8ff" points="676.45,-118.93 686.31,-115.08 676.2,-111.94 676.45,-118.93"/>
</a>
</g>
</g>
<!-- Node9 -->
<g id="Node000009" class="node">
<title>Node9</title>
<g id="a_Node000009"><a xlink:href="../../dc/dfe/class_eigen_1_1_sparse_matrix.html#a4e5f706cfae14d2eaec1ea1e234905f1" target="_top" xlink:title=" ">
<polygon fill="white" stroke="#666666" points="792.12,-79.5 687.62,-79.5 687.62,-49 792.12,-49 792.12,-79.5"/>
<text text-anchor="start" x="695.62" y="-66" font-family="Helvetica,sans-Serif" font-size="10.00">Eigen::SparseMatrix</text>
<text text-anchor="middle" x="739.88" y="-54.75" font-family="Helvetica,sans-Serif" font-size="10.00">::outerSize</text>
</a>
</g>
</g>
<!-- Node6&#45;&gt;Node9 -->
<g id="edge8_Node000006_Node000009" class="edge">
<title>Node6&#45;&gt;Node9</title>
<g id="a_edge8_Node000006_Node000009"><a xlink:title=" ">
<path fill="none" stroke="#63b8ff" d="M617.94,-103.64C637.29,-97.33 659.8,-90 680.12,-83.38"/>
<polygon fill="#63b8ff" stroke="#63b8ff" points="681.1,-86.42 689.52,-80 678.93,-79.77 681.1,-86.42"/>
</a>
</g>
</g>
<!-- Node10 -->
<g id="Node000010" class="node">
<title>Node10</title>
<g id="a_Node000010"><a xlink:href="../../d7/dc9/namespace_eigen_1_1internal.html#aa03c647c0da4f77a83252fd9bd097ca4" target="_top" xlink:title=" ">
<polygon fill="white" stroke="#666666" points="794,-30.5 685.75,-30.5 685.75,0 794,0 794,-30.5"/>
<text text-anchor="start" x="693.75" y="-17" font-family="Helvetica,sans-Serif" font-size="10.00">Eigen::internal::throw</text>
<text text-anchor="middle" x="739.88" y="-5.75" font-family="Helvetica,sans-Serif" font-size="10.00">_std_bad_alloc</text>
</a>
</g>
</g>
<!-- Node6&#45;&gt;Node10 -->
<g id="edge10_Node000006_Node000010" class="edge">
<title>Node6&#45;&gt;Node10</title>
<g id="a_edge10_Node000006_Node000010"><a xlink:title=" ">
<path fill="none" stroke="#63b8ff" d="M619.26,-103.67C624.5,-100.96 629.54,-97.84 634,-94.25 656.47,-76.17 647.31,-58.06 670,-40.25 671.91,-38.75 673.92,-37.34 676,-36"/>
<polygon fill="#63b8ff" stroke="#63b8ff" points="677.52,-38.6 684.52,-30.65 674.08,-32.5 677.52,-38.6"/>
</a>
</g>
</g>
</g>
</svg>
