<?xml version="1.0" encoding="UTF-8" standalone="no"?>
<!DOCTYPE svg PUBLIC "-//W3C//DTD SVG 1.1//EN"
 "http://www.w3.org/Graphics/SVG/1.1/DTD/svg11.dtd">
<!-- Generated by graphviz version 8.1.0 (20230707.0739)
 -->
<!-- Title: CStackWalker::GetModulesTH32 Pages: 1 -->
<svg width="541pt" height="39pt"
 viewBox="0.00 0.00 541.25 38.50" xmlns="http://www.w3.org/2000/svg" xmlns:xlink="http://www.w3.org/1999/xlink">
<g id="graph0" class="graph" transform="scale(1 1) rotate(0) translate(4 34.5)">
<title>CStackWalker::GetModulesTH32</title>
<!-- Node1 -->
<g id="Node000001" class="node">
<title>Node1</title>
<g id="a_Node000001"><a xlink:title=" ">
<polygon fill="#999999" stroke="#666666" points="533.25,-24.88 371.75,-24.88 371.75,-5.63 533.25,-5.63 533.25,-24.88"/>
<text text-anchor="middle" x="452.5" y="-11.38" font-family="Helvetica,sans-Serif" font-size="10.00">CStackWalker::GetModulesTH32</text>
</a>
</g>
</g>
<!-- Node2 -->
<g id="Node000002" class="node">
<title>Node2</title>
<g id="a_Node000002"><a xlink:href="../../d0/dfa/class_c_stack_walker.html#aee062d50cb3a1ed53ca422cf2162b79b" target="_top" xlink:title=" ">
<polygon fill="white" stroke="#666666" points="335.75,-24.88 177.25,-24.88 177.25,-5.63 335.75,-5.63 335.75,-24.88"/>
<text text-anchor="middle" x="256.5" y="-11.38" font-family="Helvetica,sans-Serif" font-size="10.00">CStackWalker::GetLoadModules</text>
</a>
</g>
</g>
<!-- Node1&#45;&gt;Node2 -->
<g id="edge1_Node000001_Node000002" class="edge">
<title>Node1&#45;&gt;Node2</title>
<g id="a_edge1_Node000001_Node000002"><a xlink:title=" ">
<path fill="none" stroke="#63b8ff" d="M360.71,-15.25C352.49,-15.25 344.2,-15.25 336.09,-15.25"/>
<polygon fill="#63b8ff" stroke="#63b8ff" points="360.47,-18.75 370.47,-15.25 360.47,-11.75 360.47,-18.75"/>
</a>
</g>
</g>
<!-- Node3 -->
<g id="Node000003" class="node">
<title>Node3</title>
<g id="a_Node000003"><a xlink:href="../../db/d43/class_c_base_exception.html#af9205ca9a66b597379593df4d8531dc8" target="_top" xlink:title=" ">
<polygon fill="white" stroke="#666666" points="141.25,-30.5 0,-30.5 0,0 141.25,0 141.25,-30.5"/>
<text text-anchor="start" x="8" y="-17" font-family="Helvetica,sans-Serif" font-size="10.00">CBaseException::ShowLoad</text>
<text text-anchor="middle" x="70.62" y="-5.75" font-family="Helvetica,sans-Serif" font-size="10.00">Modules</text>
</a>
</g>
</g>
<!-- Node2&#45;&gt;Node3 -->
<g id="edge2_Node000002_Node000003" class="edge">
<title>Node2&#45;&gt;Node3</title>
<g id="a_edge2_Node000002_Node000003"><a xlink:title=" ">
<path fill="none" stroke="#63b8ff" d="M166.22,-15.25C158,-15.25 149.75,-15.25 141.74,-15.25"/>
<polygon fill="#63b8ff" stroke="#63b8ff" points="165.99,-18.75 175.99,-15.25 165.99,-11.75 165.99,-18.75"/>
</a>
</g>
</g>
</g>
</svg>
