<?xml version="1.0" encoding="UTF-8" standalone="no"?>
<!DOCTYPE svg PUBLIC "-//W3C//DTD SVG 1.1//EN"
 "http://www.w3.org/Graphics/SVG/1.1/DTD/svg11.dtd">
<!-- Generated by graphviz version 8.1.0 (20230707.0739)
 -->
<!-- Title: Slic3r::GUI::SendToPrinterDialog::on_ok Pages: 1 -->
<svg width="602pt" height="272pt"
 viewBox="0.00 0.00 602.25 271.88" xmlns="http://www.w3.org/2000/svg" xmlns:xlink="http://www.w3.org/1999/xlink">
<g id="graph0" class="graph" transform="scale(1 1) rotate(0) translate(4 267.88)">
<title>Slic3r::GUI::SendToPrinterDialog::on_ok</title>
<!-- Node1 -->
<g id="Node000001" class="node">
<title>Node1</title>
<g id="a_Node000001"><a xlink:title=" ">
<polygon fill="#999999" stroke="#666666" points="132.25,-140.88 0,-140.88 0,-110.38 132.25,-110.38 132.25,-140.88"/>
<text text-anchor="start" x="8" y="-127.38" font-family="Helvetica,sans-Serif" font-size="10.00">Slic3r::GUI::SendToPrinter</text>
<text text-anchor="middle" x="66.12" y="-116.12" font-family="Helvetica,sans-Serif" font-size="10.00">Dialog::on_ok</text>
</a>
</g>
</g>
<!-- Node2 -->
<g id="Node000002" class="node">
<title>Node2</title>
<g id="a_Node000002"><a xlink:href="../../dc/d24/class_slic3r_1_1_machine_object.html#a3ef10709c7c60e55f55b8241b33bcbb2" target="_top" xlink:title=" ">
<polygon fill="white" stroke="#666666" points="284,-263.88 172,-263.88 172,-233.38 284,-233.38 284,-263.88"/>
<text text-anchor="start" x="180" y="-250.38" font-family="Helvetica,sans-Serif" font-size="10.00">Slic3r::MachineObject</text>
<text text-anchor="middle" x="228" y="-239.12" font-family="Helvetica,sans-Serif" font-size="10.00">::connection_type</text>
</a>
</g>
</g>
<!-- Node1&#45;&gt;Node2 -->
<g id="edge1_Node000001_Node000002" class="edge">
<title>Node1&#45;&gt;Node2</title>
<g id="a_edge1_Node000001_Node000002"><a xlink:title=" ">
<path fill="none" stroke="#63b8ff" d="M79.77,-141.03C97.66,-162.01 132.2,-199.69 168.25,-223.62 170.51,-225.13 172.88,-226.57 175.31,-227.95"/>
<polygon fill="#63b8ff" stroke="#63b8ff" points="173.44,-231.45 183.92,-232.98 176.68,-225.24 173.44,-231.45"/>
</a>
</g>
</g>
<!-- Node3 -->
<g id="Node000003" class="node">
<title>Node3</title>
<g id="a_Node000003"><a xlink:href="../../dc/d24/class_slic3r_1_1_machine_object.html#a75782d0b62ceb2b2434618fd54136aa3" target="_top" xlink:title=" ">
<polygon fill="white" stroke="#666666" points="284,-214.88 172,-214.88 172,-184.38 284,-184.38 284,-214.88"/>
<text text-anchor="start" x="180" y="-201.38" font-family="Helvetica,sans-Serif" font-size="10.00">Slic3r::MachineObject</text>
<text text-anchor="middle" x="228" y="-190.12" font-family="Helvetica,sans-Serif" font-size="10.00">::get_access_code</text>
</a>
</g>
</g>
<!-- Node1&#45;&gt;Node3 -->
<g id="edge2_Node000001_Node000003" class="edge">
<title>Node1&#45;&gt;Node3</title>
<g id="a_edge2_Node000001_Node000003"><a xlink:title=" ">
<path fill="none" stroke="#63b8ff" d="M98.37,-141.25C118.26,-151.08 144.63,-163.88 168.25,-174.62 171.84,-176.26 175.57,-177.92 179.33,-179.57"/>
<polygon fill="#63b8ff" stroke="#63b8ff" points="177.7,-183.12 188.27,-183.89 180.49,-176.7 177.7,-183.12"/>
</a>
</g>
</g>
<!-- Node7 -->
<g id="Node000007" class="node">
<title>Node7</title>
<g id="a_Node000007"><a xlink:href="../../db/d79/class_slic3r_1_1_device_manager.html#a3145e1eaca2ba84faca7455df7d3fcfd" target="_top" xlink:title=" ">
<polygon fill="white" stroke="#666666" points="287.75,-165.88 168.25,-165.88 168.25,-135.38 287.75,-135.38 287.75,-165.88"/>
<text text-anchor="start" x="176.25" y="-152.38" font-family="Helvetica,sans-Serif" font-size="10.00">Slic3r::DeviceManager</text>
<text text-anchor="middle" x="228" y="-141.12" font-family="Helvetica,sans-Serif" font-size="10.00">::get_selected_machine</text>
</a>
</g>
</g>
<!-- Node1&#45;&gt;Node7 -->
<g id="edge6_Node000001_Node000007" class="edge">
<title>Node1&#45;&gt;Node7</title>
<g id="a_edge6_Node000001_Node000007"><a xlink:title=" ">
<path fill="none" stroke="#63b8ff" d="M132.61,-135.87C140.71,-137.13 149.01,-138.43 157.16,-139.7"/>
<polygon fill="#63b8ff" stroke="#63b8ff" points="156.35,-143.28 166.77,-141.36 157.44,-136.36 156.35,-143.28"/>
</a>
</g>
</g>
<!-- Node9 -->
<g id="Node000009" class="node">
<title>Node9</title>
<g id="a_Node000009"><a xlink:href="../../dc/d24/class_slic3r_1_1_machine_object.html#ae36c9c6aac0b1e21815ca36766ccdbfc" target="_top" xlink:title=" ">
<polygon fill="white" stroke="#666666" points="284,-116.88 172,-116.88 172,-86.38 284,-86.38 284,-116.88"/>
<text text-anchor="start" x="180" y="-103.38" font-family="Helvetica,sans-Serif" font-size="10.00">Slic3r::MachineObject</text>
<text text-anchor="middle" x="228" y="-92.12" font-family="Helvetica,sans-Serif" font-size="10.00">::has_sdcard</text>
</a>
</g>
</g>
<!-- Node1&#45;&gt;Node9 -->
<g id="edge8_Node000001_Node000009" class="edge">
<title>Node1&#45;&gt;Node9</title>
<g id="a_edge8_Node000001_Node000009"><a xlink:title=" ">
<path fill="none" stroke="#63b8ff" d="M132.61,-115.79C141.91,-114.4 151.48,-112.96 160.79,-111.56"/>
<polygon fill="#63b8ff" stroke="#63b8ff" points="161.2,-114.89 170.57,-109.95 160.16,-107.97 161.2,-114.89"/>
</a>
</g>
</g>
<!-- Node10 -->
<g id="Node000010" class="node">
<title>Node10</title>
<g id="a_Node000010"><a xlink:href="../../dc/d24/class_slic3r_1_1_machine_object.html#aba1eee500ff3251d244a2cbec8e93fae" target="_top" xlink:title=" ">
<polygon fill="white" stroke="#666666" points="284,-67.88 172,-67.88 172,-37.38 284,-37.38 284,-67.88"/>
<text text-anchor="start" x="180" y="-54.38" font-family="Helvetica,sans-Serif" font-size="10.00">Slic3r::MachineObject</text>
<text text-anchor="middle" x="228" y="-43.12" font-family="Helvetica,sans-Serif" font-size="10.00">::is_lan_mode_printer</text>
</a>
</g>
</g>
<!-- Node1&#45;&gt;Node10 -->
<g id="edge9_Node000001_Node000010" class="edge">
<title>Node1&#45;&gt;Node10</title>
<g id="a_edge9_Node000001_Node000010"><a xlink:title=" ">
<path fill="none" stroke="#63b8ff" d="M99.3,-109.94C119.1,-100.39 145.03,-88.07 168.25,-77.62 171.9,-75.98 175.69,-74.31 179.51,-72.64"/>
<polygon fill="#63b8ff" stroke="#63b8ff" points="180.82,-75.45 188.61,-68.27 178.04,-69.03 180.82,-75.45"/>
</a>
</g>
</g>
<!-- Node11 -->
<g id="Node000011" class="node">
<title>Node11</title>
<g id="a_Node000011"><a xlink:href="../../de/db8/namespace_slic3r.html#a06b86e5331aac1c640f8f7f40d798175" target="_top" xlink:title=" ">
<polygon fill="white" stroke="#666666" points="262.25,-19.25 193.75,-19.25 193.75,0 262.25,0 262.25,-19.25"/>
<text text-anchor="middle" x="228" y="-5.75" font-family="Helvetica,sans-Serif" font-size="10.00">Slic3r::trace</text>
</a>
</g>
</g>
<!-- Node1&#45;&gt;Node11 -->
<g id="edge10_Node000001_Node000011" class="edge">
<title>Node1&#45;&gt;Node11</title>
<g id="a_edge10_Node000001_Node000011"><a xlink:title=" ">
<path fill="none" stroke="#63b8ff" d="M79.51,-109.93C97.1,-88.63 131.29,-50.71 168.25,-28.62 172.96,-25.81 178.14,-23.36 183.4,-21.24"/>
<polygon fill="#63b8ff" stroke="#63b8ff" points="184.33,-24.27 192.54,-17.57 181.95,-17.69 184.33,-24.27"/>
</a>
</g>
</g>
<!-- Node4 -->
<g id="Node000004" class="node">
<title>Node4</title>
<g id="a_Node000004"><a xlink:href="../../de/db8/namespace_slic3r.html#a83fc268888773d5c0f886fc2e54b8c64" target="_top" xlink:title=" ">
<polygon fill="white" stroke="#666666" points="421.88,-252.25 348.12,-252.25 348.12,-233 421.88,-233 421.88,-252.25"/>
<text text-anchor="middle" x="385" y="-238.75" font-family="Helvetica,sans-Serif" font-size="10.00">Slic3r::empty</text>
</a>
</g>
</g>
<!-- Node3&#45;&gt;Node4 -->
<g id="edge3_Node000003_Node000004" class="edge">
<title>Node3&#45;&gt;Node4</title>
<g id="a_edge3_Node000003_Node000004"><a xlink:title=" ">
<path fill="none" stroke="#63b8ff" d="M284.08,-214.91C301.67,-219.78 320.93,-225.13 337.82,-229.81"/>
<polygon fill="#63b8ff" stroke="#63b8ff" points="336.41,-233.33 346.98,-232.63 338.28,-226.59 336.41,-233.33"/>
</a>
</g>
</g>
<!-- Node5 -->
<g id="Node000005" class="node">
<title>Node5</title>
<g id="a_Node000005"><a xlink:href="../../dc/d24/class_slic3r_1_1_machine_object.html#af532ce47f99992324558397e360506f5" target="_top" xlink:title=" ">
<polygon fill="white" stroke="#666666" points="446.25,-214.88 323.75,-214.88 323.75,-184.38 446.25,-184.38 446.25,-214.88"/>
<text text-anchor="start" x="331.75" y="-201.38" font-family="Helvetica,sans-Serif" font-size="10.00">Slic3r::MachineObject</text>
<text text-anchor="middle" x="385" y="-190.12" font-family="Helvetica,sans-Serif" font-size="10.00">::get_user_access_code</text>
</a>
</g>
</g>
<!-- Node3&#45;&gt;Node5 -->
<g id="edge4_Node000003_Node000005" class="edge">
<title>Node3&#45;&gt;Node5</title>
<g id="a_edge4_Node000003_Node000005"><a xlink:title=" ">
<path fill="none" stroke="#63b8ff" d="M284.08,-199.62C293.31,-199.62 303.01,-199.62 312.58,-199.62"/>
<polygon fill="#63b8ff" stroke="#63b8ff" points="312.3,-203.13 322.3,-199.62 312.3,-196.13 312.3,-203.13"/>
</a>
</g>
</g>
<!-- Node6 -->
<g id="Node000006" class="node">
<title>Node6</title>
<g id="a_Node000006"><a xlink:href="../../da/d00/class_slic3r_1_1_app_config.html#acf6d4a1479686546dfe4d1044de077b2" target="_top" xlink:title=" ">
<polygon fill="white" stroke="#666666" points="594.25,-209.25 482.25,-209.25 482.25,-190 594.25,-190 594.25,-209.25"/>
<text text-anchor="middle" x="538.25" y="-195.75" font-family="Helvetica,sans-Serif" font-size="10.00">Slic3r::AppConfig::get</text>
</a>
</g>
</g>
<!-- Node5&#45;&gt;Node6 -->
<g id="edge5_Node000005_Node000006" class="edge">
<title>Node5&#45;&gt;Node6</title>
<g id="a_edge5_Node000005_Node000006"><a xlink:title=" ">
<path fill="none" stroke="#63b8ff" d="M446.65,-199.62C454.67,-199.62 462.93,-199.62 471.04,-199.62"/>
<polygon fill="#63b8ff" stroke="#63b8ff" points="470.97,-203.13 480.97,-199.62 470.97,-196.13 470.97,-203.13"/>
</a>
</g>
</g>
<!-- Node8 -->
<g id="Node000008" class="node">
<title>Node8</title>
<g id="a_Node000008"><a xlink:href="../../db/d79/class_slic3r_1_1_device_manager.html#a3ad023f8a48fc2b27d65eb7b7fe4834b" target="_top" xlink:title=" ">
<polygon fill="white" stroke="#666666" points="442.5,-165.88 327.5,-165.88 327.5,-135.38 442.5,-135.38 442.5,-165.88"/>
<text text-anchor="start" x="335.5" y="-152.38" font-family="Helvetica,sans-Serif" font-size="10.00">Slic3r::DeviceManager</text>
<text text-anchor="middle" x="385" y="-141.12" font-family="Helvetica,sans-Serif" font-size="10.00">::get_user_machine</text>
</a>
</g>
</g>
<!-- Node7&#45;&gt;Node8 -->
<g id="edge7_Node000007_Node000008" class="edge">
<title>Node7&#45;&gt;Node8</title>
<g id="a_edge7_Node000007_Node000008"><a xlink:title=" ">
<path fill="none" stroke="#63b8ff" d="M288.04,-150.62C297.26,-150.62 306.86,-150.62 316.26,-150.62"/>
<polygon fill="#63b8ff" stroke="#63b8ff" points="316.17,-154.13 326.17,-150.62 316.17,-147.13 316.17,-154.13"/>
</a>
</g>
</g>
<!-- Node12 -->
<g id="Node000012" class="node">
<title>Node12</title>
<g id="a_Node000012"><a xlink:href="../../de/db8/namespace_slic3r.html#a9cee7b60f26f304ff21ca61b33e11b8d" target="_top" xlink:title=" ">
<polygon fill="white" stroke="#666666" points="439.88,-19.25 330.12,-19.25 330.12,0 439.88,0 439.88,-19.25"/>
<text text-anchor="middle" x="385" y="-5.75" font-family="Helvetica,sans-Serif" font-size="10.00">Slic3r::level_to_boost</text>
</a>
</g>
</g>
<!-- Node11&#45;&gt;Node12 -->
<g id="edge11_Node000011_Node000012" class="edge">
<title>Node11&#45;&gt;Node12</title>
<g id="a_edge11_Node000011_Node000012"><a xlink:title=" ">
<path fill="none" stroke="#63b8ff" d="M262.63,-9.62C279.08,-9.62 299.47,-9.62 318.8,-9.62"/>
<polygon fill="#63b8ff" stroke="#63b8ff" points="318.71,-13.13 328.71,-9.62 318.71,-6.13 318.71,-13.13"/>
</a>
</g>
</g>
</g>
</svg>
