<?xml version="1.0" encoding="UTF-8" standalone="no"?>
<!DOCTYPE svg PUBLIC "-//W3C//DTD SVG 1.1//EN"
 "http://www.w3.org/Graphics/SVG/1.1/DTD/svg11.dtd">
<!-- Generated by graphviz version 8.1.0 (20230707.0739)
 -->
<!-- Title: qhT Pages: 1 -->
<svg width="483pt" height="399pt"
 viewBox="0.00 0.00 482.66 398.75" xmlns="http://www.w3.org/2000/svg" xmlns:xlink="http://www.w3.org/1999/xlink">
<g id="graph0" class="graph" transform="scale(1 1) rotate(0) translate(4 394.75)">
<title>qhT</title>
<!-- Node1 -->
<g id="Node000001" class="node">
<title>Node1</title>
<g id="a_Node000001"><a xlink:title=" ">
<polygon fill="#999999" stroke="#666666" points="252.91,-19.25 220.41,-19.25 220.41,0 252.91,0 252.91,-19.25"/>
<text text-anchor="middle" x="236.66" y="-5.75" font-family="Helvetica,sans-Serif" font-size="10.00">qhT</text>
</a>
</g>
</g>
<!-- Node2 -->
<g id="Node000002" class="node">
<title>Node2</title>
<g id="a_Node000002"><a xlink:href="../../d2/d25/libqhull__r_8h.html#d5/dc1/structfacet_t" target="_top" xlink:title=" ">
<polygon fill="white" stroke="#666666" points="139.54,-183 95.79,-183 95.79,-163.75 139.54,-163.75 139.54,-183"/>
<text text-anchor="middle" x="117.66" y="-169.5" font-family="Helvetica,sans-Serif" font-size="10.00">facetT</text>
</a>
</g>
</g>
<!-- Node2&#45;&gt;Node1 -->
<g id="edge1_Node000001_Node000002" class="edge">
<title>Node2&#45;&gt;Node1</title>
<g id="a_edge1_Node000001_Node000002"><a xlink:title=" ">
<path fill="none" stroke="#9a32cd" stroke-dasharray="5,2" d="M119.92,-152.74C124.24,-123.78 136.3,-69.53 168.16,-37.25 182.24,-22.99 204.81,-16.21 220.17,-13.09"/>
<polygon fill="#9a32cd" stroke="#9a32cd" points="116.34,-152.1 118.5,-162.47 123.28,-153.02 116.34,-152.1"/>
</a>
</g>
<text text-anchor="middle" x="200.91" y="-106.5" font-family="Helvetica,sans-Serif" font-size="10.00" fill="grey"> GOODclosest</text>
<text text-anchor="middle" x="200.91" y="-95.25" font-family="Helvetica,sans-Serif" font-size="10.00" fill="grey">facet_list</text>
<text text-anchor="middle" x="200.91" y="-84" font-family="Helvetica,sans-Serif" font-size="10.00" fill="grey">facet_next</text>
<text text-anchor="middle" x="200.91" y="-72.75" font-family="Helvetica,sans-Serif" font-size="10.00" fill="grey">facet_tail</text>
<text text-anchor="middle" x="200.91" y="-61.5" font-family="Helvetica,sans-Serif" font-size="10.00" fill="grey">newfacet_list</text>
<text text-anchor="middle" x="200.91" y="-50.25" font-family="Helvetica,sans-Serif" font-size="10.00" fill="grey">tracefacet</text>
<text text-anchor="middle" x="200.91" y="-39" font-family="Helvetica,sans-Serif" font-size="10.00" fill="grey">visible_list</text>
</g>
<!-- Node2&#45;&gt;Node2 -->
<g id="edge2_Node000002_Node000002" class="edge">
<title>Node2&#45;&gt;Node2</title>
<g id="a_edge2_Node000002_Node000002"><a xlink:title=" ">
<path fill="none" stroke="#9a32cd" stroke-dasharray="5,2" d="M136.26,-188.45C147.24,-191.7 157.54,-186.68 157.54,-173.38 157.54,-156.17 140.33,-152.82 126.68,-163.3"/>
<polygon fill="#9a32cd" stroke="#9a32cd" points="138.16,-184.97 127.68,-183.45 134.93,-191.18 138.16,-184.97"/>
</a>
</g>
<text text-anchor="middle" x="175.91" y="-175.12" font-family="Helvetica,sans-Serif" font-size="10.00" fill="grey"> next</text>
<text text-anchor="middle" x="175.91" y="-163.88" font-family="Helvetica,sans-Serif" font-size="10.00" fill="grey">previous</text>
</g>
<!-- Node3 -->
<g id="Node000003" class="node">
<title>Node3</title>
<g id="a_Node000003"><a xlink:href="../../d5/de0/qset__r_8h.html#da/da7/structset_t" target="_top" xlink:title=" ">
<polygon fill="white" stroke="#666666" points="174.41,-324.25 138.91,-324.25 138.91,-305 174.41,-305 174.41,-324.25"/>
<text text-anchor="middle" x="156.66" y="-310.75" font-family="Helvetica,sans-Serif" font-size="10.00">setT</text>
</a>
</g>
</g>
<!-- Node3&#45;&gt;Node1 -->
<g id="edge8_Node000001_Node000003" class="edge">
<title>Node3&#45;&gt;Node1</title>
<g id="a_edge8_Node000001_Node000003"><a xlink:title=" ">
<path fill="none" stroke="#9a32cd" stroke-dasharray="5,2" d="M128.63,-303.54C93.88,-289.34 36.25,-259.8 11.66,-212.75 -4.54,-181.73 -2.97,-165.79 11.66,-134 39.31,-73.94 65.74,-67.24 124.66,-37.25 156.19,-21.21 197.66,-14.62 220.26,-12.08"/>
<polygon fill="#9a32cd" stroke="#9a32cd" points="127.03,-307.07 137.61,-307.46 129.58,-300.55 127.03,-307.07"/>
</a>
</g>
<text text-anchor="middle" x="49.16" y="-203.25" font-family="Helvetica,sans-Serif" font-size="10.00" fill="grey"> coplanarfacetset</text>
<text text-anchor="middle" x="49.16" y="-192" font-family="Helvetica,sans-Serif" font-size="10.00" fill="grey">degen_mergeset</text>
<text text-anchor="middle" x="49.16" y="-180.75" font-family="Helvetica,sans-Serif" font-size="10.00" fill="grey">del_vertices</text>
<text text-anchor="middle" x="49.16" y="-169.5" font-family="Helvetica,sans-Serif" font-size="10.00" fill="grey">facet_mergeset</text>
<text text-anchor="middle" x="49.16" y="-158.25" font-family="Helvetica,sans-Serif" font-size="10.00" fill="grey">hash_table</text>
<text text-anchor="middle" x="49.16" y="-147" font-family="Helvetica,sans-Serif" font-size="10.00" fill="grey">old_tempstack</text>
<text text-anchor="middle" x="49.16" y="-135.75" font-family="Helvetica,sans-Serif" font-size="10.00" fill="grey">other_points</text>
</g>
<!-- Node3&#45;&gt;Node2 -->
<g id="edge3_Node000002_Node000003" class="edge">
<title>Node3&#45;&gt;Node2</title>
<g id="a_edge3_Node000002_Node000003"><a xlink:title=" ">
<path fill="none" stroke="#9a32cd" stroke-dasharray="5,2" d="M144.45,-295.46C142.93,-292.7 141.52,-289.83 140.41,-287 126,-250.23 120.27,-202.96 118.42,-183.44"/>
<polygon fill="#9a32cd" stroke="#9a32cd" points="141.89,-296.99 150.11,-303.68 147.86,-293.32 141.89,-296.99"/>
</a>
</g>
<text text-anchor="middle" x="167.29" y="-277.5" font-family="Helvetica,sans-Serif" font-size="10.00" fill="grey"> coplanarset</text>
<text text-anchor="middle" x="167.29" y="-266.25" font-family="Helvetica,sans-Serif" font-size="10.00" fill="grey">neighbors</text>
<text text-anchor="middle" x="167.29" y="-255" font-family="Helvetica,sans-Serif" font-size="10.00" fill="grey">outsideset</text>
<text text-anchor="middle" x="167.29" y="-243.75" font-family="Helvetica,sans-Serif" font-size="10.00" fill="grey">ridges</text>
<text text-anchor="middle" x="167.29" y="-232.5" font-family="Helvetica,sans-Serif" font-size="10.00" fill="grey">vertices</text>
</g>
<!-- Node5 -->
<g id="Node000005" class="node">
<title>Node5</title>
<g id="a_Node000005"><a xlink:href="../../d2/d25/libqhull__r_8h.html#de/d19/structvertex_t" target="_top" xlink:title=" ">
<polygon fill="white" stroke="#666666" points="261.16,-183 212.16,-183 212.16,-163.75 261.16,-163.75 261.16,-183"/>
<text text-anchor="middle" x="236.66" y="-169.5" font-family="Helvetica,sans-Serif" font-size="10.00">vertexT</text>
</a>
</g>
</g>
<!-- Node3&#45;&gt;Node5 -->
<g id="edge7_Node000005_Node000003" class="edge">
<title>Node3&#45;&gt;Node5</title>
<g id="a_edge7_Node000005_Node000003"><a xlink:title=" ">
<path fill="none" stroke="#9a32cd" stroke-dasharray="5,2" d="M181.97,-298.49C186.27,-295.11 190.4,-291.25 193.66,-287 219.19,-253.83 231.08,-203.75 235.06,-183.42"/>
<polygon fill="#9a32cd" stroke="#9a32cd" points="180.27,-296.11 174.11,-304.74 184.3,-301.84 180.27,-296.11"/>
</a>
</g>
<text text-anchor="middle" x="245.16" y="-255" font-family="Helvetica,sans-Serif" font-size="10.00" fill="grey"> neighbors</text>
</g>
<!-- Node8 -->
<g id="Node000008" class="node">
<title>Node8</title>
<g id="a_Node000008"><a xlink:href="../../dd/dca/mem__r_8h.html#d1/dbc/structqhmem_t" target="_top" xlink:title=" ">
<polygon fill="white" stroke="#666666" points="387.79,-183 333.54,-183 333.54,-163.75 387.79,-163.75 387.79,-183"/>
<text text-anchor="middle" x="360.66" y="-169.5" font-family="Helvetica,sans-Serif" font-size="10.00">qhmemT</text>
</a>
</g>
</g>
<!-- Node3&#45;&gt;Node8 -->
<g id="edge12_Node000008_Node000003" class="edge">
<title>Node3&#45;&gt;Node8</title>
<g id="a_edge12_Node000008_Node000003"><a xlink:title=" ">
<path fill="none" stroke="#9a32cd" stroke-dasharray="5,2" d="M185.6,-312.22C210.18,-309.86 245.51,-303.57 271.66,-287 314.4,-259.92 345.32,-204.97 356.29,-183.38"/>
<polygon fill="#9a32cd" stroke="#9a32cd" points="185.51,-308.8 175.82,-313.08 186.06,-315.78 185.51,-308.8"/>
</a>
</g>
<text text-anchor="middle" x="351.04" y="-255" font-family="Helvetica,sans-Serif" font-size="10.00" fill="grey"> tempstack</text>
</g>
<!-- Node4 -->
<g id="Node000004" class="node">
<title>Node4</title>
<g id="a_Node000004"><a xlink:href="../../d5/de0/qset__r_8h.html#da/d12/unionsetelem_t" target="_top" xlink:title=" ">
<polygon fill="white" stroke="#666666" points="184.91,-390.75 128.41,-390.75 128.41,-371.5 184.91,-371.5 184.91,-390.75"/>
<text text-anchor="middle" x="156.66" y="-377.25" font-family="Helvetica,sans-Serif" font-size="10.00">setelemT</text>
</a>
</g>
</g>
<!-- Node4&#45;&gt;Node3 -->
<g id="edge4_Node000003_Node000004" class="edge">
<title>Node4&#45;&gt;Node3</title>
<g id="a_edge4_Node000003_Node000004"><a xlink:title=" ">
<path fill="none" stroke="#9a32cd" stroke-dasharray="5,2" d="M156.66,-360.4C156.66,-348.43 156.66,-333.73 156.66,-324.52"/>
<polygon fill="#9a32cd" stroke="#9a32cd" points="153.16,-360.16 156.66,-370.16 160.16,-360.16 153.16,-360.16"/>
</a>
</g>
<text text-anchor="middle" x="160.79" y="-344" font-family="Helvetica,sans-Serif" font-size="10.00" fill="grey"> e</text>
</g>
<!-- Node5&#45;&gt;Node1 -->
<g id="edge5_Node000001_Node000005" class="edge">
<title>Node5&#45;&gt;Node1</title>
<g id="a_edge5_Node000001_Node000005"><a xlink:title=" ">
<path fill="none" stroke="#9a32cd" stroke-dasharray="5,2" d="M236.66,-152.93C236.66,-117.68 236.66,-44.54 236.66,-19.36"/>
<polygon fill="#9a32cd" stroke="#9a32cd" points="233.16,-152.68 236.66,-162.68 240.16,-152.68 233.16,-152.68"/>
</a>
</g>
<text text-anchor="middle" x="269.66" y="-89.62" font-family="Helvetica,sans-Serif" font-size="10.00" fill="grey"> newvertex_list</text>
<text text-anchor="middle" x="269.66" y="-78.38" font-family="Helvetica,sans-Serif" font-size="10.00" fill="grey">tracevertex</text>
<text text-anchor="middle" x="269.66" y="-67.12" font-family="Helvetica,sans-Serif" font-size="10.00" fill="grey">vertex_list</text>
<text text-anchor="middle" x="269.66" y="-55.88" font-family="Helvetica,sans-Serif" font-size="10.00" fill="grey">vertex_tail</text>
</g>
<!-- Node5&#45;&gt;Node5 -->
<g id="edge6_Node000005_Node000005" class="edge">
<title>Node5&#45;&gt;Node5</title>
<g id="a_edge6_Node000005_Node000005"><a xlink:title=" ">
<path fill="none" stroke="#9a32cd" stroke-dasharray="5,2" d="M255.77,-188.24C267.74,-191.9 279.16,-186.95 279.16,-173.38 279.16,-156.17 260.82,-152.82 246.27,-163.3"/>
<polygon fill="#9a32cd" stroke="#9a32cd" points="257.78,-184.82 247.27,-183.45 254.63,-191.08 257.78,-184.82"/>
</a>
</g>
<text text-anchor="middle" x="297.54" y="-175.12" font-family="Helvetica,sans-Serif" font-size="10.00" fill="grey"> next</text>
<text text-anchor="middle" x="297.54" y="-163.88" font-family="Helvetica,sans-Serif" font-size="10.00" fill="grey">previous</text>
</g>
<!-- Node6 -->
<g id="Node000006" class="node">
<title>Node6</title>
<g id="a_Node000006"><a xlink:href="../../dc/dab/structqhstat_t.html" target="_top" xlink:title=" ">
<polygon fill="white" stroke="#666666" points="455.16,-183 406.16,-183 406.16,-163.75 455.16,-163.75 455.16,-183"/>
<text text-anchor="middle" x="430.66" y="-169.5" font-family="Helvetica,sans-Serif" font-size="10.00">qhstatT</text>
</a>
</g>
</g>
<!-- Node6&#45;&gt;Node1 -->
<g id="edge9_Node000001_Node000006" class="edge">
<title>Node6&#45;&gt;Node1</title>
<g id="a_edge9_Node000001_Node000006"><a xlink:title=" ">
<path fill="none" stroke="#9a32cd" stroke-dasharray="5,2" d="M430.6,-152.83C429.36,-123.12 422.39,-66.91 388.66,-37.25 368.7,-19.69 288.31,-13.35 253.2,-11.39"/>
<polygon fill="#9a32cd" stroke="#9a32cd" points="427.11,-152.55 430.83,-162.46 434.11,-152.39 427.11,-152.55"/>
</a>
</g>
<text text-anchor="middle" x="450.66" y="-78.38" font-family="Helvetica,sans-Serif" font-size="10.00" fill="grey"> old_qhstat</text>
<text text-anchor="middle" x="450.66" y="-67.12" font-family="Helvetica,sans-Serif" font-size="10.00" fill="grey">qhstat</text>
</g>
<!-- Node7 -->
<g id="Node000007" class="node">
<title>Node7</title>
<g id="a_Node000007"><a xlink:href="../../de/d34/stat__r_8h.html#df/df0/unionintreal_t" target="_top" xlink:title=" ">
<polygon fill="white" stroke="#666666" points="454.79,-324.25 406.54,-324.25 406.54,-305 454.79,-305 454.79,-324.25"/>
<text text-anchor="middle" x="430.66" y="-310.75" font-family="Helvetica,sans-Serif" font-size="10.00">intrealT</text>
</a>
</g>
</g>
<!-- Node7&#45;&gt;Node6 -->
<g id="edge10_Node000006_Node000007" class="edge">
<title>Node7&#45;&gt;Node6</title>
<g id="a_edge10_Node000006_Node000007"><a xlink:title=" ">
<path fill="none" stroke="#9a32cd" stroke-dasharray="5,2" d="M430.66,-294C430.66,-263.44 430.66,-205.7 430.66,-183.44"/>
<polygon fill="#9a32cd" stroke="#9a32cd" points="427.16,-293.91 430.66,-303.91 434.16,-293.91 427.16,-293.91"/>
</a>
</g>
<text text-anchor="middle" x="441.54" y="-260.62" font-family="Helvetica,sans-Serif" font-size="10.00" fill="grey"> init</text>
<text text-anchor="middle" x="441.54" y="-249.38" font-family="Helvetica,sans-Serif" font-size="10.00" fill="grey">stats</text>
</g>
<!-- Node8&#45;&gt;Node1 -->
<g id="edge11_Node000001_Node000008" class="edge">
<title>Node8&#45;&gt;Node1</title>
<g id="a_edge11_Node000001_Node000008"><a xlink:title=" ">
<path fill="none" stroke="#9a32cd" stroke-dasharray="5,2" d="M357.88,-152.69C352.78,-123.66 339.29,-69.33 306.66,-37.25 292.02,-22.85 268.79,-16.08 253.15,-13.01"/>
<polygon fill="#9a32cd" stroke="#9a32cd" points="354.56,-153.12 359.58,-162.45 361.48,-152.02 354.56,-153.12"/>
</a>
</g>
<text text-anchor="middle" x="367.29" y="-72.75" font-family="Helvetica,sans-Serif" font-size="10.00" fill="grey"> qhmem</text>
</g>
</g>
</svg>
