<?xml version="1.0" encoding="UTF-8" standalone="no"?>
<!DOCTYPE svg PUBLIC "-//W3C//DTD SVG 1.1//EN"
 "http://www.w3.org/Graphics/SVG/1.1/DTD/svg11.dtd">
<!-- Generated by graphviz version 8.1.0 (20230707.0739)
 -->
<!-- Title: src/libslic3r/Arachne/BeadingStrategy/OuterWallInsetBeadingStrategy.cpp Pages: 1 -->
<!--zoomable 381 -->

<svg id="main" version="1.1" xmlns="http://www.w3.org/2000/svg" xmlns:xlink="http://www.w3.org/1999/xlink" xml:space="preserve" onload="init(evt)">
<style type="text/css"><![CDATA[
.node, .edge {opacity: 0.7;}
.node.selected, .edge.selected {opacity: 1;}
.edge:hover path { stroke: red; }
.edge:hover polygon { stroke: red; fill: red; }
]]></style>

<defs>
  <circle id="rim" cx="0" cy="0" r="7"/>
  <circle id="rim2" cx="0" cy="0" r="3.5"/>
  <g id="zoomPlus">
    <use xlink:href="#rim" fill="#404040"><set attributeName="fill" to="#808080" begin="zoomplus.mouseover" end="zoomplus.mouseout"/></use>
    <path d="M-4,0h8M0,-4v8" fill="none" stroke="white" stroke-width="1.5" pointer-events="none"/>
  </g>
  <g id="zoomMin">
    <use xlink:href="#rim" fill="#404040"><set attributeName="fill" to="#808080" begin="zoomminus.mouseover" end="zoomminus.mouseout"/></use>
    <path d="M-4,0h8" fill="none" stroke="white" stroke-width="1.5" pointer-events="none"/>
  </g>
  <g id="arrowUp" transform="translate(30 24)">
    <use xlink:href="#rim"/>
    <path pointer-events="none" fill="none" stroke="white" stroke-width="1.5" d="M0,-3.0v7 M-2.5,-0.5L0,-3.0L2.5,-0.5"/>
  </g>
  <g id="arrowRight" transform="rotate(90) translate(36 -43)">
    <use xlink:href="#rim"/>
    <path pointer-events="none" fill="none" stroke="white" stroke-width="1.5" d="M0,-3.0v7 M-2.5,-0.5L0,-3.0L2.5,-0.5"/>
  </g>
  <g id="arrowDown" transform="rotate(180) translate(-30 -48)">
    <use xlink:href="#rim"/>
    <path pointer-events="none" fill="none" stroke="white" stroke-width="1.5" d="M0,-3.0v7 M-2.5,-0.5L0,-3.0L2.5,-0.5"/>
  </g>
  <g id="arrowLeft" transform="rotate(270) translate(-36 17)">
    <use xlink:href="#rim"/>
    <path pointer-events="none" fill="none" stroke="white" stroke-width="1.5" d="M0,-3.0v7 M-2.5,-0.5L0,-3.0L2.5,-0.5"/>
  </g>
  <g id="resetDef">
    <use xlink:href="#rim2" fill="#404040"><set attributeName="fill" to="#808080" begin="reset.mouseover" end="reset.mouseout"/></use>
  </g>
</defs>
<script type="application/ecmascript">
var viewWidth = 1266;
var viewHeight = 381;
var sectionId = 'dynsection-0';
</script>
<script type="application/ecmascript" xlink:href="../../svg.min.js"/>
<svg id="graph" class="graph">
<g id="viewport">
<title>src/libslic3r/Arachne/BeadingStrategy/OuterWallInsetBeadingStrategy.cpp</title>
<!-- Node1 -->
<g id="Node000001" class="node">
<title>Node1</title>
<g id="a_Node000001"><a xlink:title=" ">
<polygon fill="#999999" stroke="#666666" points="995.88,-373.25 837.38,-373.25 837.38,-331.5 995.88,-331.5 995.88,-373.25"/>
<text text-anchor="start" x="845.38" y="-359.75" font-family="Helvetica,sans-Serif" font-size="10.00">src/libslic3r/Arachne</text>
<text text-anchor="start" x="845.38" y="-348.5" font-family="Helvetica,sans-Serif" font-size="10.00">/BeadingStrategy/OuterWallInset</text>
<text text-anchor="middle" x="916.62" y="-337.25" font-family="Helvetica,sans-Serif" font-size="10.00">BeadingStrategy.cpp</text>
</a>
</g>
</g>
<!-- Node2 -->
<g id="Node000002" class="node">
<title>Node2</title>
<g id="a_Node000002"><a xlink:href="../../d6/d8d/_outer_wall_inset_beading_strategy_8hpp.html" target="_top" xlink:title=" ">
<polygon fill="white" stroke="#666666" points="945.5,-295.5 775.75,-295.5 775.75,-276.25 945.5,-276.25 945.5,-295.5"/>
<text text-anchor="middle" x="860.62" y="-282" font-family="Helvetica,sans-Serif" font-size="10.00">OuterWallInsetBeadingStrategy.hpp</text>
</a>
</g>
</g>
<!-- Node1&#45;&gt;Node2 -->
<g id="edge1_Node000001_Node000002" class="edge">
<title>Node1&#45;&gt;Node2</title>
<g id="a_edge1_Node000001_Node000002"><a xlink:title=" ">
<path fill="none" stroke="#63b8ff" d="M899.21,-331.32C891.67,-322.63 882.92,-312.55 875.66,-304.19"/>
<polygon fill="#63b8ff" stroke="#63b8ff" points="877.7,-302.2 868.5,-296.95 872.41,-306.79 877.7,-302.2"/>
</a>
</g>
</g>
<!-- Node8 -->
<g id="Node000008" class="node">
<title>Node8</title>
<g id="a_Node000008"><a xlink:title=" ">
<polygon fill="#e0e0e0" stroke="#999999" points="1257.5,-129.75 1201.75,-129.75 1201.75,-110.5 1257.5,-110.5 1257.5,-129.75"/>
<text text-anchor="middle" x="1229.62" y="-116.25" font-family="Helvetica,sans-Serif" font-size="10.00">algorithm</text>
</a>
</g>
</g>
<!-- Node1&#45;&gt;Node8 -->
<g id="edge42_Node000001_Node000008" class="edge">
<title>Node1&#45;&gt;Node8</title>
<g id="a_edge42_Node000001_Node000008"><a xlink:title=" ">
<path fill="none" stroke="#63b8ff" d="M944.13,-331.14C1005.75,-285.81 1153.79,-176.91 1208.68,-136.53"/>
<polygon fill="#63b8ff" stroke="#63b8ff" points="1210.26,-138.98 1216.24,-130.24 1206.11,-133.34 1210.26,-138.98"/>
</a>
</g>
</g>
<!-- Node3 -->
<g id="Node000003" class="node">
<title>Node3</title>
<g id="a_Node000003"><a xlink:href="../../dc/d2f/_beading_strategy_8hpp.html" target="_top" xlink:title=" ">
<polygon fill="white" stroke="#666666" points="657.25,-240.25 552,-240.25 552,-221 657.25,-221 657.25,-240.25"/>
<text text-anchor="middle" x="604.62" y="-226.75" font-family="Helvetica,sans-Serif" font-size="10.00">BeadingStrategy.hpp</text>
</a>
</g>
</g>
<!-- Node2&#45;&gt;Node3 -->
<g id="edge2_Node000002_Node000003" class="edge">
<title>Node2&#45;&gt;Node3</title>
<g id="a_edge2_Node000002_Node000003"><a xlink:title=" ">
<path fill="none" stroke="#63b8ff" d="M816.91,-275.78C773.19,-266.69 705.85,-252.68 658.77,-242.89"/>
<polygon fill="#63b8ff" stroke="#63b8ff" points="659.67,-239.29 649.16,-240.68 658.24,-246.14 659.67,-239.29"/>
</a>
</g>
</g>
<!-- Node4 -->
<g id="Node000004" class="node">
<title>Node4</title>
<g id="a_Node000004"><a xlink:title=" ">
<polygon fill="#e0e0e0" stroke="#999999" points="51.25,-74.5 0,-74.5 0,-55.25 51.25,-55.25 51.25,-74.5"/>
<text text-anchor="middle" x="25.62" y="-61" font-family="Helvetica,sans-Serif" font-size="10.00">memory</text>
</a>
</g>
</g>
<!-- Node3&#45;&gt;Node4 -->
<g id="edge3_Node000003_Node000004" class="edge">
<title>Node3&#45;&gt;Node4</title>
<g id="a_edge3_Node000003_Node000004"><a xlink:title=" ">
<path fill="none" stroke="#63b8ff" d="M551.96,-228.3C423.88,-223.9 101.53,-205.4 31.62,-129.75 20.76,-117.99 20.2,-99.3 21.81,-85.16"/>
<polygon fill="#63b8ff" stroke="#63b8ff" points="25.37,-86.04 23.48,-75.62 18.46,-84.95 25.37,-86.04"/>
</a>
</g>
</g>
<!-- Node5 -->
<g id="Node000005" class="node">
<title>Node5</title>
<g id="a_Node000005"><a xlink:href="../../dd/d47/libslic3r_8h.html" target="_top" xlink:title=" ">
<polygon fill="white" stroke="#666666" points="641.88,-185 567.38,-185 567.38,-165.75 641.88,-165.75 641.88,-185"/>
<text text-anchor="middle" x="604.62" y="-171.5" font-family="Helvetica,sans-Serif" font-size="10.00">../../libslic3r.h</text>
</a>
</g>
</g>
<!-- Node3&#45;&gt;Node5 -->
<g id="edge4_Node000003_Node000005" class="edge">
<title>Node3&#45;&gt;Node5</title>
<g id="a_edge4_Node000003_Node000005"><a xlink:title=" ">
<path fill="none" stroke="#63b8ff" d="M604.62,-220.83C604.62,-214.17 604.62,-204.74 604.62,-196.28"/>
<polygon fill="#63b8ff" stroke="#63b8ff" points="608.13,-196.36 604.62,-186.36 601.13,-196.36 608.13,-196.36"/>
</a>
</g>
</g>
<!-- Node5&#45;&gt;Node4 -->
<g id="edge6_Node000005_Node000004" class="edge">
<title>Node5&#45;&gt;Node4</title>
<g id="a_edge6_Node000005_Node000004"><a xlink:title=" ">
<path fill="none" stroke="#63b8ff" d="M567.22,-173.66C449.33,-171.1 90.83,-160.8 49.62,-129.75 35.74,-119.29 29.89,-99.83 27.42,-85.12"/>
<polygon fill="#63b8ff" stroke="#63b8ff" points="30.82,-85.09 26.08,-75.62 23.87,-85.98 30.82,-85.09"/>
</a>
</g>
</g>
<!-- Node6 -->
<g id="Node000006" class="node">
<title>Node6</title>
<g id="a_Node000006"><a xlink:title=" ">
<polygon fill="#e0e0e0" stroke="#999999" points="152.62,-129.75 58.62,-129.75 58.62,-110.5 152.62,-110.5 152.62,-129.75"/>
<text text-anchor="middle" x="105.62" y="-116.25" font-family="Helvetica,sans-Serif" font-size="10.00">libslic3r_version.h</text>
</a>
</g>
</g>
<!-- Node5&#45;&gt;Node6 -->
<g id="edge5_Node000005_Node000006" class="edge">
<title>Node5&#45;&gt;Node6</title>
<g id="a_edge5_Node000005_Node000006"><a xlink:title=" ">
<path fill="none" stroke="#63b8ff" d="M566.92,-171.25C492.1,-164.9 319.33,-149.52 163.66,-129.95"/>
<polygon fill="#63b8ff" stroke="#63b8ff" points="164.32,-126.38 153.96,-128.59 163.44,-133.32 164.32,-126.38"/>
</a>
</g>
</g>
<!-- Node7 -->
<g id="Node000007" class="node">
<title>Node7</title>
<g id="a_Node000007"><a xlink:title=" ">
<polygon fill="#e0e0e0" stroke="#999999" points="208.5,-129.75 170.75,-129.75 170.75,-110.5 208.5,-110.5 208.5,-129.75"/>
<text text-anchor="middle" x="189.62" y="-116.25" font-family="Helvetica,sans-Serif" font-size="10.00">array</text>
</a>
</g>
</g>
<!-- Node5&#45;&gt;Node7 -->
<g id="edge7_Node000005_Node000007" class="edge">
<title>Node5&#45;&gt;Node7</title>
<g id="a_edge7_Node000005_Node000007"><a xlink:title=" ">
<path fill="none" stroke="#63b8ff" d="M566.95,-171.72C498.12,-166.5 347.63,-153.27 222.62,-129.75 221.49,-129.54 220.34,-129.31 219.17,-129.06"/>
<polygon fill="#63b8ff" stroke="#63b8ff" points="220.25,-125.48 209.72,-126.6 218.65,-132.3 220.25,-125.48"/>
</a>
</g>
</g>
<!-- Node5&#45;&gt;Node8 -->
<g id="edge8_Node000005_Node000008" class="edge">
<title>Node5&#45;&gt;Node8</title>
<g id="a_edge8_Node000005_Node000008"><a xlink:title=" ">
<path fill="none" stroke="#63b8ff" d="M642.32,-173.14C735.32,-169.73 983.06,-158.47 1187.62,-129.75 1188.77,-129.59 1189.93,-129.42 1191.09,-129.23"/>
<polygon fill="#63b8ff" stroke="#63b8ff" points="1191.45,-132.55 1200.7,-127.37 1190.24,-125.65 1191.45,-132.55"/>
</a>
</g>
</g>
<!-- Node9 -->
<g id="Node000009" class="node">
<title>Node9</title>
<g id="a_Node000009"><a xlink:title=" ">
<polygon fill="#e0e0e0" stroke="#999999" points="511.25,-74.5 460,-74.5 460,-55.25 511.25,-55.25 511.25,-74.5"/>
<text text-anchor="middle" x="485.62" y="-61" font-family="Helvetica,sans-Serif" font-size="10.00">ostream</text>
</a>
</g>
</g>
<!-- Node5&#45;&gt;Node9 -->
<g id="edge9_Node000005_Node000009" class="edge">
<title>Node5&#45;&gt;Node9</title>
<g id="a_edge9_Node000005_Node000009"><a xlink:title=" ">
<path fill="none" stroke="#63b8ff" d="M567.05,-170.54C540.53,-165.68 506.62,-154.68 488.62,-129.75 479.48,-117.08 479.48,-99.03 481.34,-85.35"/>
<polygon fill="#63b8ff" stroke="#63b8ff" points="484.93,-86.16 483.27,-75.69 478.04,-84.91 484.93,-86.16"/>
</a>
</g>
</g>
<!-- Node10 -->
<g id="Node000010" class="node">
<title>Node10</title>
<g id="a_Node000010"><a xlink:title=" ">
<polygon fill="#e0e0e0" stroke="#999999" points="144.38,-19.25 90.88,-19.25 90.88,0 144.38,0 144.38,-19.25"/>
<text text-anchor="middle" x="117.62" y="-5.75" font-family="Helvetica,sans-Serif" font-size="10.00">iostream</text>
</a>
</g>
</g>
<!-- Node5&#45;&gt;Node10 -->
<g id="edge10_Node000005_Node000010" class="edge">
<title>Node5&#45;&gt;Node10</title>
<g id="a_edge10_Node000005_Node000010"><a xlink:title=" ">
<path fill="none" stroke="#63b8ff" d="M567.07,-173.74C502.16,-171.73 365.4,-163.47 255.62,-129.75 237.53,-124.19 234.56,-118.96 217.62,-110.5 185.27,-94.33 169.45,-100.81 144.62,-74.5 132.88,-62.05 125.85,-43.72 121.92,-29.89"/>
<polygon fill="#63b8ff" stroke="#63b8ff" points="125.16,-29.4 119.32,-20.56 118.37,-31.11 125.16,-29.4"/>
</a>
</g>
</g>
<!-- Node11 -->
<g id="Node000011" class="node">
<title>Node11</title>
<g id="a_Node000011"><a xlink:href="../../df/db1/math_8h.html" target="_top" xlink:title=" ">
<polygon fill="white" stroke="#666666" points="310.62,-129.75 264.62,-129.75 264.62,-110.5 310.62,-110.5 310.62,-129.75"/>
<text text-anchor="middle" x="287.62" y="-116.25" font-family="Helvetica,sans-Serif" font-size="10.00">math.h</text>
</a>
</g>
</g>
<!-- Node5&#45;&gt;Node11 -->
<g id="edge11_Node000005_Node000011" class="edge">
<title>Node5&#45;&gt;Node11</title>
<g id="a_edge11_Node000005_Node000011"><a xlink:title=" ">
<path fill="none" stroke="#63b8ff" d="M567.02,-168.06C504.77,-157.6 381.28,-136.86 321.55,-126.82"/>
<polygon fill="#63b8ff" stroke="#63b8ff" points="322.27,-123.23 311.83,-125.02 321.11,-130.13 322.27,-123.23"/>
</a>
</g>
</g>
<!-- Node12 -->
<g id="Node000012" class="node">
<title>Node12</title>
<g id="a_Node000012"><a xlink:title=" ">
<polygon fill="#e0e0e0" stroke="#999999" points="403.12,-74.5 360.12,-74.5 360.12,-55.25 403.12,-55.25 403.12,-74.5"/>
<text text-anchor="middle" x="381.62" y="-61" font-family="Helvetica,sans-Serif" font-size="10.00">cmath</text>
</a>
</g>
</g>
<!-- Node5&#45;&gt;Node12 -->
<g id="edge27_Node000005_Node000012" class="edge">
<title>Node5&#45;&gt;Node12</title>
<g id="a_edge27_Node000005_Node000012"><a xlink:title=" ">
<path fill="none" stroke="#63b8ff" d="M567.21,-174.03C526.57,-171.86 461.6,-162.9 417.62,-129.75 402.87,-118.63 393.27,-99.57 387.73,-85.17"/>
<polygon fill="#63b8ff" stroke="#63b8ff" points="390.72,-84.14 384.13,-75.85 384.11,-86.44 390.72,-84.14"/>
</a>
</g>
</g>
<!-- Node14 -->
<g id="Node000014" class="node">
<title>Node14</title>
<g id="a_Node000014"><a xlink:title=" ">
<polygon fill="#e0e0e0" stroke="#999999" points="453.12,-19.25 410.12,-19.25 410.12,0 453.12,0 453.12,-19.25"/>
<text text-anchor="middle" x="431.62" y="-5.75" font-family="Helvetica,sans-Serif" font-size="10.00">vector</text>
</a>
</g>
</g>
<!-- Node5&#45;&gt;Node14 -->
<g id="edge25_Node000005_Node000014" class="edge">
<title>Node5&#45;&gt;Node14</title>
<g id="a_edge25_Node000005_Node000014"><a xlink:title=" ">
<path fill="none" stroke="#63b8ff" d="M567.12,-169.01C539.55,-163.36 502.68,-152.04 477.62,-129.75 448.32,-103.68 437.55,-56.76 433.69,-30.25"/>
<polygon fill="#63b8ff" stroke="#63b8ff" points="437.08,-30.14 432.37,-20.65 430.14,-31.01 437.08,-30.14"/>
</a>
</g>
</g>
<!-- Node17 -->
<g id="Node000017" class="node">
<title>Node17</title>
<g id="a_Node000017"><a xlink:title=" ">
<polygon fill="#e0e0e0" stroke="#999999" points="1150.25,-19.25 1099,-19.25 1099,0 1150.25,0 1150.25,-19.25"/>
<text text-anchor="middle" x="1124.62" y="-5.75" font-family="Helvetica,sans-Serif" font-size="10.00">sstream</text>
</a>
</g>
</g>
<!-- Node5&#45;&gt;Node17 -->
<g id="edge21_Node000005_Node000017" class="edge">
<title>Node5&#45;&gt;Node17</title>
<g id="a_edge21_Node000005_Node000017"><a xlink:title=" ">
<path fill="none" stroke="#63b8ff" d="M642.2,-174.2C760.57,-173.27 1119.96,-167.34 1154.62,-129.75 1180.65,-101.53 1155.24,-54.1 1137.87,-28.42"/>
<polygon fill="#63b8ff" stroke="#63b8ff" points="1140.35,-26.88 1131.72,-20.74 1134.64,-30.92 1140.35,-26.88"/>
</a>
</g>
</g>
<!-- Node18 -->
<g id="Node000018" class="node">
<title>Node18</title>
<g id="a_Node000018"><a xlink:title=" ">
<polygon fill="#e0e0e0" stroke="#999999" points="625.75,-129.75 583.5,-129.75 583.5,-110.5 625.75,-110.5 625.75,-129.75"/>
<text text-anchor="middle" x="604.62" y="-116.25" font-family="Helvetica,sans-Serif" font-size="10.00">queue</text>
</a>
</g>
</g>
<!-- Node5&#45;&gt;Node18 -->
<g id="edge20_Node000005_Node000018" class="edge">
<title>Node5&#45;&gt;Node18</title>
<g id="a_edge20_Node000005_Node000018"><a xlink:title=" ">
<path fill="none" stroke="#63b8ff" d="M604.62,-165.58C604.62,-158.92 604.62,-149.49 604.62,-141.03"/>
<polygon fill="#63b8ff" stroke="#63b8ff" points="608.13,-141.11 604.62,-131.11 601.13,-141.11 608.13,-141.11"/>
</a>
</g>
</g>
<!-- Node19 -->
<g id="Node000019" class="node">
<title>Node19</title>
<g id="a_Node000019"><a xlink:title=" ">
<polygon fill="#e0e0e0" stroke="#999999" points="685.75,-129.75 643.5,-129.75 643.5,-110.5 685.75,-110.5 685.75,-129.75"/>
<text text-anchor="middle" x="664.62" y="-116.25" font-family="Helvetica,sans-Serif" font-size="10.00">cstdio</text>
</a>
</g>
</g>
<!-- Node5&#45;&gt;Node19 -->
<g id="edge22_Node000005_Node000019" class="edge">
<title>Node5&#45;&gt;Node19</title>
<g id="a_edge22_Node000005_Node000019"><a xlink:title=" ">
<path fill="none" stroke="#63b8ff" d="M614.8,-165.34C623.48,-157.65 636.15,-146.4 646.54,-137.18"/>
<polygon fill="#63b8ff" stroke="#63b8ff" points="648.44,-140.28 653.6,-131.02 643.79,-135.04 648.44,-140.28"/>
</a>
</g>
</g>
<!-- Node20 -->
<g id="Node000020" class="node">
<title>Node20</title>
<g id="a_Node000020"><a xlink:title=" ">
<polygon fill="#e0e0e0" stroke="#999999" points="751.75,-129.75 703.5,-129.75 703.5,-110.5 751.75,-110.5 751.75,-129.75"/>
<text text-anchor="middle" x="727.62" y="-116.25" font-family="Helvetica,sans-Serif" font-size="10.00">stdint.h</text>
</a>
</g>
</g>
<!-- Node5&#45;&gt;Node20 -->
<g id="edge23_Node000005_Node000020" class="edge">
<title>Node5&#45;&gt;Node20</title>
<g id="a_edge23_Node000005_Node000020"><a xlink:title=" ">
<path fill="none" stroke="#63b8ff" d="M625.49,-165.34C645.02,-156.89 674.43,-144.15 696.69,-134.52"/>
<polygon fill="#63b8ff" stroke="#63b8ff" points="697.87,-137.39 705.66,-130.2 695.09,-130.96 697.87,-137.39"/>
</a>
</g>
</g>
<!-- Node21 -->
<g id="Node000021" class="node">
<title>Node21</title>
<g id="a_Node000021"><a xlink:title=" ">
<polygon fill="#e0e0e0" stroke="#999999" points="821.25,-129.75 770,-129.75 770,-110.5 821.25,-110.5 821.25,-129.75"/>
<text text-anchor="middle" x="795.62" y="-116.25" font-family="Helvetica,sans-Serif" font-size="10.00">stdarg.h</text>
</a>
</g>
</g>
<!-- Node5&#45;&gt;Node21 -->
<g id="edge24_Node000005_Node000021" class="edge">
<title>Node5&#45;&gt;Node21</title>
<g id="a_edge24_Node000005_Node000021"><a xlink:title=" ">
<path fill="none" stroke="#63b8ff" d="M637.03,-165.34C670.88,-155.9 723.89,-141.13 759.18,-131.29"/>
<polygon fill="#63b8ff" stroke="#63b8ff" points="759.83,-134.46 768.52,-128.4 757.95,-127.72 759.83,-134.46"/>
</a>
</g>
</g>
<!-- Node22 -->
<g id="Node000022" class="node">
<title>Node22</title>
<g id="a_Node000022"><a xlink:title=" ">
<polygon fill="#e0e0e0" stroke="#999999" points="887.75,-129.75 839.5,-129.75 839.5,-110.5 887.75,-110.5 887.75,-129.75"/>
<text text-anchor="middle" x="863.62" y="-116.25" font-family="Helvetica,sans-Serif" font-size="10.00">cassert</text>
</a>
</g>
</g>
<!-- Node5&#45;&gt;Node22 -->
<g id="edge26_Node000005_Node000022" class="edge">
<title>Node5&#45;&gt;Node22</title>
<g id="a_edge26_Node000005_Node000022"><a xlink:title=" ">
<path fill="none" stroke="#63b8ff" d="M642.36,-167.65C685.25,-159.84 757.56,-146.2 828.68,-130.09"/>
<polygon fill="#63b8ff" stroke="#63b8ff" points="829.19,-133.34 838.16,-127.7 827.63,-126.51 829.19,-133.34"/>
</a>
</g>
</g>
<!-- Node23 -->
<g id="Node000023" class="node">
<title>Node23</title>
<g id="a_Node000023"><a xlink:title=" ">
<polygon fill="#e0e0e0" stroke="#999999" points="967.5,-129.75 905.75,-129.75 905.75,-110.5 967.5,-110.5 967.5,-129.75"/>
<text text-anchor="middle" x="936.62" y="-116.25" font-family="Helvetica,sans-Serif" font-size="10.00">type_traits</text>
</a>
</g>
</g>
<!-- Node5&#45;&gt;Node23 -->
<g id="edge28_Node000005_Node000023" class="edge">
<title>Node5&#45;&gt;Node23</title>
<g id="a_edge28_Node000005_Node000023"><a xlink:title=" ">
<path fill="none" stroke="#63b8ff" d="M642.08,-169.39C695.81,-162.08 798.07,-147.57 895.07,-129.94"/>
<polygon fill="#63b8ff" stroke="#63b8ff" points="895.45,-133.24 904.65,-128 894.19,-126.36 895.45,-133.24"/>
</a>
</g>
</g>
<!-- Node24 -->
<g id="Node000024" class="node">
<title>Node24</title>
<g id="a_Node000024"><a xlink:title=" ">
<polygon fill="#e0e0e0" stroke="#999999" points="1035.5,-129.75 985.75,-129.75 985.75,-110.5 1035.5,-110.5 1035.5,-129.75"/>
<text text-anchor="middle" x="1010.62" y="-116.25" font-family="Helvetica,sans-Serif" font-size="10.00">optional</text>
</a>
</g>
</g>
<!-- Node5&#45;&gt;Node24 -->
<g id="edge29_Node000005_Node000024" class="edge">
<title>Node5&#45;&gt;Node24</title>
<g id="a_edge29_Node000005_Node000024"><a xlink:title=" ">
<path fill="none" stroke="#63b8ff" d="M642.36,-171.47C707.98,-166.07 847.54,-153.03 974.76,-129.87"/>
<polygon fill="#63b8ff" stroke="#63b8ff" points="975.26,-133.15 984.45,-127.9 973.98,-126.27 975.26,-133.15"/>
</a>
</g>
</g>
<!-- Node25 -->
<g id="Node000025" class="node">
<title>Node25</title>
<g id="a_Node000025"><a xlink:href="../../d0/d8f/_technologies_8hpp.html" target="_top" xlink:title=" ">
<polygon fill="white" stroke="#666666" points="1145.5,-129.75 1053.75,-129.75 1053.75,-110.5 1145.5,-110.5 1145.5,-129.75"/>
<text text-anchor="middle" x="1099.62" y="-116.25" font-family="Helvetica,sans-Serif" font-size="10.00">Technologies.hpp</text>
</a>
</g>
</g>
<!-- Node5&#45;&gt;Node25 -->
<g id="edge30_Node000005_Node000025" class="edge">
<title>Node5&#45;&gt;Node25</title>
<g id="a_edge30_Node000005_Node000025"><a xlink:title=" ">
<path fill="none" stroke="#63b8ff" d="M642.37,-171.24C716.85,-164.92 888.21,-149.62 1042.81,-129.92"/>
<polygon fill="#63b8ff" stroke="#63b8ff" points="1042.96,-133.3 1052.44,-128.55 1042.07,-126.36 1042.96,-133.3"/>
</a>
</g>
</g>
<!-- Node26 -->
<g id="Node000026" class="node">
<title>Node26</title>
<g id="a_Node000026"><a xlink:href="../../df/d1b/_semver_8hpp.html" target="_top" xlink:title=" ">
<polygon fill="white" stroke="#666666" points="565.5,-129.75 497.75,-129.75 497.75,-110.5 565.5,-110.5 565.5,-129.75"/>
<text text-anchor="middle" x="531.62" y="-116.25" font-family="Helvetica,sans-Serif" font-size="10.00">Semver.hpp</text>
</a>
</g>
</g>
<!-- Node5&#45;&gt;Node26 -->
<g id="edge31_Node000005_Node000026" class="edge">
<title>Node5&#45;&gt;Node26</title>
<g id="a_edge31_Node000005_Node000026"><a xlink:title=" ">
<path fill="none" stroke="#63b8ff" d="M592.24,-165.34C581.37,-157.41 565.34,-145.72 552.5,-136.35"/>
<polygon fill="#63b8ff" stroke="#63b8ff" points="554.97,-133.09 544.83,-130.02 550.84,-138.75 554.97,-133.09"/>
</a>
</g>
</g>
<!-- Node11&#45;&gt;Node4 -->
<g id="edge15_Node000011_Node000004" class="edge">
<title>Node11&#45;&gt;Node4</title>
<g id="a_edge15_Node000011_Node000004"><a xlink:title=" ">
<path fill="none" stroke="#63b8ff" d="M264.37,-114.4C218.68,-105.11 116.87,-84.42 62.12,-73.29"/>
<polygon fill="#63b8ff" stroke="#63b8ff" points="63.01,-69.7 52.51,-71.14 61.61,-76.56 63.01,-69.7"/>
</a>
</g>
</g>
<!-- Node11&#45;&gt;Node10 -->
<g id="edge13_Node000011_Node000010" class="edge">
<title>Node11&#45;&gt;Node10</title>
<g id="a_edge13_Node000011_Node000010"><a xlink:title=" ">
<path fill="none" stroke="#63b8ff" d="M264.16,-112.08C233.92,-102.71 183.37,-86.01 167.62,-74.5 150.79,-62.19 136.71,-42.76 127.82,-28.55"/>
<polygon fill="#63b8ff" stroke="#63b8ff" points="130.43,-27.1 122.3,-20.31 124.42,-30.69 130.43,-27.1"/>
</a>
</g>
</g>
<!-- Node11&#45;&gt;Node12 -->
<g id="edge12_Node000011_Node000012" class="edge">
<title>Node11&#45;&gt;Node12</title>
<g id="a_edge12_Node000011_Node000012"><a xlink:title=" ">
<path fill="none" stroke="#63b8ff" d="M303.57,-110.09C318.02,-101.91 339.56,-89.71 356.35,-80.19"/>
<polygon fill="#63b8ff" stroke="#63b8ff" points="357.63,-82.93 364.6,-74.95 354.17,-76.84 357.63,-82.93"/>
</a>
</g>
</g>
<!-- Node13 -->
<g id="Node000013" class="node">
<title>Node13</title>
<g id="a_Node000013"><a xlink:title=" ">
<polygon fill="#e0e0e0" stroke="#999999" points="223.25,-74.5 184,-74.5 184,-55.25 223.25,-55.25 223.25,-74.5"/>
<text text-anchor="middle" x="203.62" y="-61" font-family="Helvetica,sans-Serif" font-size="10.00">limits</text>
</a>
</g>
</g>
<!-- Node11&#45;&gt;Node13 -->
<g id="edge14_Node000011_Node000013" class="edge">
<title>Node11&#45;&gt;Node13</title>
<g id="a_edge14_Node000011_Node000013"><a xlink:title=" ">
<path fill="none" stroke="#63b8ff" d="M273.38,-110.09C260.7,-102.06 241.93,-90.16 227.06,-80.73"/>
<polygon fill="#63b8ff" stroke="#63b8ff" points="229.26,-77.35 218.94,-74.95 225.52,-83.26 229.26,-77.35"/>
</a>
</g>
</g>
<!-- Node11&#45;&gt;Node14 -->
<g id="edge16_Node000011_Node000014" class="edge">
<title>Node11&#45;&gt;Node14</title>
<g id="a_edge16_Node000011_Node000014"><a xlink:title=" ">
<path fill="none" stroke="#63b8ff" d="M264.22,-113.2C234.28,-105.1 185.04,-89.8 174.62,-74.5 169.81,-67.43 169.12,-61.8 174.62,-55.25 202.96,-21.57 336.46,-13.31 399.07,-11.28"/>
<polygon fill="#63b8ff" stroke="#63b8ff" points="399,-14.76 408.89,-10.97 398.79,-7.76 399,-14.76"/>
</a>
</g>
</g>
<!-- Node15 -->
<g id="Node000015" class="node">
<title>Node15</title>
<g id="a_Node000015"><a xlink:href="../../d5/d60/utils_8h.html" target="_top" xlink:title=" ">
<polygon fill="#fff0f0" stroke="red" points="342.38,-74.5 240.88,-74.5 240.88,-55.25 342.38,-55.25 342.38,-74.5"/>
<text text-anchor="middle" x="291.62" y="-61" font-family="Helvetica,sans-Serif" font-size="10.00">mcut/internal/utils.h</text>
</a>
</g>
</g>
<!-- Node11&#45;&gt;Node15 -->
<g id="edge17_Node000011_Node000015" class="edge">
<title>Node11&#45;&gt;Node15</title>
<g id="a_edge17_Node000011_Node000015"><a xlink:title=" ">
<path fill="none" stroke="#63b8ff" d="M288.29,-110.33C288.79,-103.67 289.49,-94.24 290.13,-85.78"/>
<polygon fill="#63b8ff" stroke="#63b8ff" points="293.69,-86.09 290.95,-75.86 286.71,-85.57 293.69,-86.09"/>
</a>
</g>
</g>
<!-- Node15&#45;&gt;Node10 -->
<g id="edge18_Node000015_Node000010" class="edge">
<title>Node15&#45;&gt;Node10</title>
<g id="a_edge18_Node000015_Node000010"><a xlink:title=" ">
<path fill="none" stroke="#63b8ff" d="M262.11,-54.84C232.58,-45.8 187.05,-31.87 155.01,-22.07"/>
<polygon fill="#63b8ff" stroke="#63b8ff" points="156.29,-18.49 145.71,-18.91 154.24,-25.19 156.29,-18.49"/>
</a>
</g>
</g>
<!-- Node15&#45;&gt;Node17 -->
<g id="edge19_Node000015_Node000017" class="edge">
<title>Node15&#45;&gt;Node17</title>
<g id="a_edge19_Node000015_Node000017"><a xlink:title=" ">
<path fill="none" stroke="#63b8ff" d="M342.76,-56.12C345.42,-55.8 348.05,-55.51 350.62,-55.25 634.96,-26.55 707.37,-36.57 992.62,-19.25 1024.92,-17.29 1061.64,-14.87 1088.14,-13.1"/>
<polygon fill="#63b8ff" stroke="#63b8ff" points="1088.09,-16.54 1097.83,-12.38 1087.62,-9.56 1088.09,-16.54"/>
</a>
</g>
</g>
<!-- Node26&#45;&gt;Node9 -->
<g id="edge34_Node000026_Node000009" class="edge">
<title>Node26&#45;&gt;Node9</title>
<g id="a_edge34_Node000026_Node000009"><a xlink:title=" ">
<path fill="none" stroke="#63b8ff" d="M524.03,-110.33C517.61,-102.9 508.22,-92.04 500.34,-82.91"/>
<polygon fill="#63b8ff" stroke="#63b8ff" points="502.57,-81.14 493.39,-75.86 497.27,-85.71 502.57,-81.14"/>
</a>
</g>
</g>
<!-- Node27 -->
<g id="Node000027" class="node">
<title>Node27</title>
<g id="a_Node000027"><a xlink:title=" ">
<polygon fill="#e0e0e0" stroke="#999999" points="785.62,-74.5 745.62,-74.5 745.62,-55.25 785.62,-55.25 785.62,-74.5"/>
<text text-anchor="middle" x="765.62" y="-61" font-family="Helvetica,sans-Serif" font-size="10.00">string</text>
</a>
</g>
</g>
<!-- Node26&#45;&gt;Node27 -->
<g id="edge32_Node000026_Node000027" class="edge">
<title>Node26&#45;&gt;Node27</title>
<g id="a_edge32_Node000026_Node000027"><a xlink:title=" ">
<path fill="none" stroke="#63b8ff" d="M565.7,-111.95C611.16,-102.34 690.18,-85.46 734.78,-74.54"/>
<polygon fill="#63b8ff" stroke="#63b8ff" points="735.49,-77.72 744.34,-71.9 733.79,-70.93 735.49,-77.72"/>
</a>
</g>
</g>
<!-- Node28 -->
<g id="Node000028" class="node">
<title>Node28</title>
<g id="a_Node000028"><a xlink:title=" ">
<polygon fill="#e0e0e0" stroke="#999999" points="849.25,-74.5 804,-74.5 804,-55.25 849.25,-55.25 849.25,-74.5"/>
<text text-anchor="middle" x="826.62" y="-61" font-family="Helvetica,sans-Serif" font-size="10.00">cstring</text>
</a>
</g>
</g>
<!-- Node26&#45;&gt;Node28 -->
<g id="edge33_Node000026_Node000028" class="edge">
<title>Node26&#45;&gt;Node28</title>
<g id="a_edge33_Node000026_Node000028"><a xlink:title=" ">
<path fill="none" stroke="#63b8ff" d="M565.87,-112.14C568.83,-111.57 571.78,-111.02 574.62,-110.5 668.77,-93.36 695.94,-95.26 793.04,-74.65"/>
<polygon fill="#63b8ff" stroke="#63b8ff" points="793.58,-77.9 802.62,-72.37 792.11,-71.05 793.58,-77.9"/>
</a>
</g>
</g>
<!-- Node29 -->
<g id="Node000029" class="node">
<title>Node29</title>
<g id="a_Node000029"><a xlink:title=" ">
<polygon fill="#e0e0e0" stroke="#999999" points="984,-19.25 925.25,-19.25 925.25,0 984,0 984,-19.25"/>
<text text-anchor="middle" x="954.62" y="-5.75" font-family="Helvetica,sans-Serif" font-size="10.00">stdexcept</text>
</a>
</g>
</g>
<!-- Node26&#45;&gt;Node29 -->
<g id="edge35_Node000026_Node000029" class="edge">
<title>Node26&#45;&gt;Node29</title>
<g id="a_edge35_Node000026_Node000029"><a xlink:title=" ">
<path fill="none" stroke="#63b8ff" d="M565.83,-111.86C568.79,-111.35 571.76,-110.89 574.62,-110.5 629.16,-103.07 1031.15,-114.8 1068.62,-74.5 1094.56,-46.61 1037.45,-27.83 995.06,-18.2"/>
<polygon fill="#63b8ff" stroke="#63b8ff" points="995.91,-14.59 985.39,-15.9 994.43,-21.43 995.91,-14.59"/>
</a>
</g>
</g>
<!-- Node30 -->
<g id="Node000030" class="node">
<title>Node30</title>
<g id="a_Node000030"><a xlink:title=" ">
<polygon fill="#e0e0e0" stroke="#999999" points="1059.38,-74.5 963.88,-74.5 963.88,-55.25 1059.38,-55.25 1059.38,-74.5"/>
<text text-anchor="middle" x="1011.62" y="-61" font-family="Helvetica,sans-Serif" font-size="10.00">boost/optional.hpp</text>
</a>
</g>
</g>
<!-- Node26&#45;&gt;Node30 -->
<g id="edge36_Node000026_Node000030" class="edge">
<title>Node26&#45;&gt;Node30</title>
<g id="a_edge36_Node000026_Node000030"><a xlink:title=" ">
<path fill="none" stroke="#63b8ff" d="M565.84,-111.93C568.8,-111.41 571.76,-110.92 574.62,-110.5 739.02,-86.29 784.4,-94.83 952.71,-74.66"/>
<polygon fill="#63b8ff" stroke="#63b8ff" points="952.94,-78.04 962.45,-73.36 952.1,-71.09 952.94,-78.04"/>
</a>
</g>
</g>
<!-- Node31 -->
<g id="Node000031" class="node">
<title>Node31</title>
<g id="a_Node000031"><a xlink:title=" ">
<polygon fill="#e0e0e0" stroke="#999999" points="618.38,-74.5 528.88,-74.5 528.88,-55.25 618.38,-55.25 618.38,-74.5"/>
<text text-anchor="middle" x="573.62" y="-61" font-family="Helvetica,sans-Serif" font-size="10.00">boost/format.hpp</text>
</a>
</g>
</g>
<!-- Node26&#45;&gt;Node31 -->
<g id="edge37_Node000026_Node000031" class="edge">
<title>Node26&#45;&gt;Node31</title>
<g id="a_edge37_Node000026_Node000031"><a xlink:title=" ">
<path fill="none" stroke="#63b8ff" d="M538.56,-110.33C544.3,-103.05 552.64,-92.48 559.74,-83.48"/>
<polygon fill="#63b8ff" stroke="#63b8ff" points="563.09,-85.88 566.54,-75.86 557.6,-81.54 563.09,-85.88"/>
</a>
</g>
</g>
<!-- Node32 -->
<g id="Node000032" class="node">
<title>Node32</title>
<g id="a_Node000032"><a xlink:href="../../db/d53/semver_8h.html" target="_top" xlink:title=" ">
<polygon fill="white" stroke="#666666" points="727.12,-74.5 636.12,-74.5 636.12,-55.25 727.12,-55.25 727.12,-74.5"/>
<text text-anchor="middle" x="681.62" y="-61" font-family="Helvetica,sans-Serif" font-size="10.00">semver/semver.h</text>
</a>
</g>
</g>
<!-- Node26&#45;&gt;Node32 -->
<g id="edge38_Node000026_Node000032" class="edge">
<title>Node26&#45;&gt;Node32</title>
<g id="a_edge38_Node000026_Node000032"><a xlink:title=" ">
<path fill="none" stroke="#63b8ff" d="M557.07,-110.09C581.42,-101.45 618.39,-88.32 645.73,-78.62"/>
<polygon fill="#63b8ff" stroke="#63b8ff" points="646.8,-81.6 655.05,-74.95 644.46,-75 646.8,-81.6"/>
</a>
</g>
</g>
<!-- Node33 -->
<g id="Node000033" class="node">
<title>Node33</title>
<g id="a_Node000033"><a xlink:href="../../de/d75/_exception_8hpp.html" target="_top" xlink:title=" ">
<polygon fill="white" stroke="#666666" points="945.75,-74.5 867.5,-74.5 867.5,-55.25 945.75,-55.25 945.75,-74.5"/>
<text text-anchor="middle" x="906.62" y="-61" font-family="Helvetica,sans-Serif" font-size="10.00">Exception.hpp</text>
</a>
</g>
</g>
<!-- Node26&#45;&gt;Node33 -->
<g id="edge39_Node000026_Node000033" class="edge">
<title>Node26&#45;&gt;Node33</title>
<g id="a_edge39_Node000026_Node000033"><a xlink:title=" ">
<path fill="none" stroke="#63b8ff" d="M565.85,-112.03C568.81,-111.48 571.77,-110.97 574.62,-110.5 696.76,-90.54 731,-93.57 856.31,-74.78"/>
<polygon fill="#63b8ff" stroke="#63b8ff" points="856.74,-78.11 866.1,-73.14 855.69,-71.18 856.74,-78.11"/>
</a>
</g>
</g>
<!-- Node33&#45;&gt;Node14 -->
<g id="edge41_Node000033_Node000014" class="edge">
<title>Node33&#45;&gt;Node14</title>
<g id="a_edge41_Node000033_Node000014"><a xlink:title=" ">
<path fill="none" stroke="#63b8ff" d="M867.11,-56.54C864.24,-56.08 861.39,-55.64 858.62,-55.25 711.87,-34.43 535.45,-19.03 464.01,-13.19"/>
<polygon fill="#63b8ff" stroke="#63b8ff" points="464.72,-9.65 454.47,-12.34 464.15,-16.63 464.72,-9.65"/>
</a>
</g>
</g>
<!-- Node33&#45;&gt;Node29 -->
<g id="edge40_Node000033_Node000029" class="edge">
<title>Node33&#45;&gt;Node29</title>
<g id="a_edge40_Node000033_Node000029"><a xlink:title=" ">
<path fill="none" stroke="#63b8ff" d="M914.55,-55.08C921.25,-47.65 931.04,-36.79 939.27,-27.66"/>
<polygon fill="#63b8ff" stroke="#63b8ff" points="941.43,-30.38 945.53,-20.61 936.23,-25.69 941.43,-30.38"/>
</a>
</g>
</g>
</g>
</svg>

<g id="navigator" transform="translate(0 0)" fill="#404254">
  <rect fill="#f2f5e9" fill-opacity="0.5" stroke="#606060" stroke-width=".5" x="0" y="0" width="60" height="60"/>
  <use id="zoomplus" xlink:href="#zoomPlus" x="17" y="9" onmousedown="handleZoom(evt,'in')"/>
  <use id="zoomminus" xlink:href="#zoomMin" x="42" y="9" onmousedown="handleZoom(evt,'out')"/>
  <use id="reset" xlink:href="#resetDef" x="30" y="36" onmousedown="handleReset()"/>
   <use id="arrowup" xlink:href="#arrowUp" x="0" y="0" onmousedown="handlePan(0,-1)"/>
  <use id="arrowright" xlink:href="#arrowRight" x="0" y="0" onmousedown="handlePan(1,0)"/>
  <use id="arrowdown" xlink:href="#arrowDown" x="0" y="0" onmousedown="handlePan(0,1)"/>
  <use id="arrowleft" xlink:href="#arrowLeft" x="0" y="0" onmousedown="handlePan(-1,0)"/>
</g>
<svg viewBox="0 0 15 15" width="100%" height="30px" preserveAspectRatio="xMaxYMin meet">
 <g id="arrow_out" transform="scale(0.3 0.3)">
  <a xlink:href="_outer_wall_inset_beading_strategy_8cpp__incl_org.svg" target="_base">
   <rect id="button" ry="5" rx="5" y="6" x="6" height="38" width="38"
        fill="#f2f5e9" fill-opacity="0.5" stroke="#606060" stroke-width="1.0"/>
   <path id="arrow"
     d="M 11.500037,31.436501 C 11.940474,20.09759 22.043105,11.32322 32.158766,21.979434 L 37.068811,17.246167 C 37.068811,17.246167 37.088388,32 37.088388,32 L 22.160133,31.978069 C 22.160133,31.978069 26.997745,27.140456 26.997745,27.140456 C 18.528582,18.264221 13.291696,25.230495 11.500037,31.436501 z"
     style="fill:#404040;"/>
  </a>
 </g>
</svg>

<style type='text/css'>
<![CDATA[
[data-mouse-over-selected='false'] { opacity: 0.7; }
[data-mouse-over-selected='true']  { opacity: 1.0; }
]]>
</style>
<script type="application/ecmascript"><![CDATA[
document.addEventListener('DOMContentLoaded', (event) => {
  highlightEdges();
  highlightAdjacentNodes();
});
]]></script>
</svg>
