<?xml version="1.0" encoding="UTF-8" standalone="no"?>
<!DOCTYPE svg PUBLIC "-//W3C//DTD SVG 1.1//EN"
 "http://www.w3.org/Graphics/SVG/1.1/DTD/svg11.dtd">
<!-- Generated by graphviz version 8.1.0 (20230707.0739)
 -->
<!-- Title: qh_findbestneighbor Pages: 1 -->
<!--zoomable 554 -->

<svg id="main" version="1.1" xmlns="http://www.w3.org/2000/svg" xmlns:xlink="http://www.w3.org/1999/xlink" xml:space="preserve" onload="init(evt)">
<style type="text/css"><![CDATA[
.node, .edge {opacity: 0.7;}
.node.selected, .edge.selected {opacity: 1;}
.edge:hover path { stroke: red; }
.edge:hover polygon { stroke: red; fill: red; }
]]></style>

<defs>
  <circle id="rim" cx="0" cy="0" r="7"/>
  <circle id="rim2" cx="0" cy="0" r="3.5"/>
  <g id="zoomPlus">
    <use xlink:href="#rim" fill="#404040"><set attributeName="fill" to="#808080" begin="zoomplus.mouseover" end="zoomplus.mouseout"/></use>
    <path d="M-4,0h8M0,-4v8" fill="none" stroke="white" stroke-width="1.5" pointer-events="none"/>
  </g>
  <g id="zoomMin">
    <use xlink:href="#rim" fill="#404040"><set attributeName="fill" to="#808080" begin="zoomminus.mouseover" end="zoomminus.mouseout"/></use>
    <path d="M-4,0h8" fill="none" stroke="white" stroke-width="1.5" pointer-events="none"/>
  </g>
  <g id="arrowUp" transform="translate(30 24)">
    <use xlink:href="#rim"/>
    <path pointer-events="none" fill="none" stroke="white" stroke-width="1.5" d="M0,-3.0v7 M-2.5,-0.5L0,-3.0L2.5,-0.5"/>
  </g>
  <g id="arrowRight" transform="rotate(90) translate(36 -43)">
    <use xlink:href="#rim"/>
    <path pointer-events="none" fill="none" stroke="white" stroke-width="1.5" d="M0,-3.0v7 M-2.5,-0.5L0,-3.0L2.5,-0.5"/>
  </g>
  <g id="arrowDown" transform="rotate(180) translate(-30 -48)">
    <use xlink:href="#rim"/>
    <path pointer-events="none" fill="none" stroke="white" stroke-width="1.5" d="M0,-3.0v7 M-2.5,-0.5L0,-3.0L2.5,-0.5"/>
  </g>
  <g id="arrowLeft" transform="rotate(270) translate(-36 17)">
    <use xlink:href="#rim"/>
    <path pointer-events="none" fill="none" stroke="white" stroke-width="1.5" d="M0,-3.0v7 M-2.5,-0.5L0,-3.0L2.5,-0.5"/>
  </g>
  <g id="resetDef">
    <use xlink:href="#rim2" fill="#404040"><set attributeName="fill" to="#808080" begin="reset.mouseover" end="reset.mouseout"/></use>
  </g>
</defs>
<script type="application/ecmascript">
var viewWidth = 1326;
var viewHeight = 554;
var sectionId = 'dynsection-22';
</script>
<script type="application/ecmascript" xlink:href="../../svg.min.js"/>
<svg id="graph" class="graph">
<g id="viewport">
<title>qh_findbestneighbor</title>
<!-- Node1 -->
<g id="Node000001" class="node">
<title>Node1</title>
<g id="a_Node000001"><a xlink:title=" ">
<polygon fill="#999999" stroke="#666666" points="1317.5,-268.15 1214.5,-268.15 1214.5,-248.9 1317.5,-248.9 1317.5,-268.15"/>
<text text-anchor="middle" x="1266" y="-254.65" font-family="Helvetica,sans-Serif" font-size="10.00">qh_findbestneighbor</text>
</a>
</g>
</g>
<!-- Node2 -->
<g id="Node000002" class="node">
<title>Node2</title>
<g id="a_Node000002"><a xlink:href="../../d0/d36/merge_8c.html#acd15e94474029517098b2e4b9e22b6c9" target="_top" xlink:title=" ">
<polygon fill="white" stroke="#666666" points="1008,-306.15 915.5,-306.15 915.5,-286.9 1008,-286.9 1008,-306.15"/>
<text text-anchor="middle" x="961.75" y="-292.65" font-family="Helvetica,sans-Serif" font-size="10.00">qh_flippedmerges</text>
</a>
</g>
</g>
<!-- Node1&#45;&gt;Node2 -->
<g id="edge1_Node000001_Node000002" class="edge">
<title>Node1&#45;&gt;Node2</title>
<g id="a_edge1_Node000001_Node000002"><a xlink:title=" ">
<path fill="none" stroke="#63b8ff" d="M1213.88,-270.9C1202.3,-273.38 1190.02,-275.76 1178.5,-277.53 1120.15,-286.47 1052.22,-291.59 1008.41,-294.21"/>
<polygon fill="#63b8ff" stroke="#63b8ff" points="1214.27,-274.17 1223.28,-268.6 1212.76,-267.34 1214.27,-274.17"/>
</a>
</g>
</g>
<!-- Node36 -->
<g id="Node000036" class="node">
<title>Node36</title>
<g id="a_Node000036"><a xlink:href="../../d0/d36/merge_8c.html#a84fe684b5ce48374de889b7d9120ca53" target="_top" xlink:title=" ">
<polygon fill="white" stroke="#666666" points="1178.5,-154.15 1045.5,-154.15 1045.5,-134.9 1178.5,-134.9 1178.5,-154.15"/>
<text text-anchor="middle" x="1112" y="-140.65" font-family="Helvetica,sans-Serif" font-size="10.00">qh_merge_degenredundant</text>
</a>
</g>
</g>
<!-- Node1&#45;&gt;Node36 -->
<g id="edge41_Node000001_Node000036" class="edge">
<title>Node1&#45;&gt;Node36</title>
<g id="a_edge41_Node000001_Node000036"><a xlink:title=" ">
<path fill="none" stroke="#63b8ff" d="M1242.84,-241.91C1210.75,-217.84 1152.36,-174.05 1126.24,-154.46"/>
<polygon fill="#63b8ff" stroke="#63b8ff" points="1240.41,-245.21 1250.51,-248.41 1244.61,-239.61 1240.41,-245.21"/>
</a>
</g>
</g>
<!-- Node44 -->
<g id="Node000044" class="node">
<title>Node44</title>
<g id="a_Node000044"><a xlink:href="../../d0/d36/merge_8c.html#a478cb14f649dfa361551bb70fde08466" target="_top" xlink:title=" ">
<polygon fill="white" stroke="#666666" points="1167.62,-268.15 1056.38,-268.15 1056.38,-248.9 1167.62,-248.9 1167.62,-268.15"/>
<text text-anchor="middle" x="1112" y="-254.65" font-family="Helvetica,sans-Serif" font-size="10.00">qh_merge_nonconvex</text>
</a>
</g>
</g>
<!-- Node1&#45;&gt;Node44 -->
<g id="edge60_Node000001_Node000044" class="edge">
<title>Node1&#45;&gt;Node44</title>
<g id="a_edge60_Node000001_Node000044"><a xlink:title=" ">
<path fill="none" stroke="#63b8ff" d="M1203.74,-258.53C1191.95,-258.53 1179.67,-258.53 1168.1,-258.53"/>
<polygon fill="#63b8ff" stroke="#63b8ff" points="1203.39,-262.03 1213.39,-258.53 1203.39,-255.03 1203.39,-262.03"/>
</a>
</g>
</g>
<!-- Node3 -->
<g id="Node000003" class="node">
<title>Node3</title>
<g id="a_Node000003"><a xlink:href="../../d0/d36/merge_8c.html#a996503311966d59514bc379ff3449a14" target="_top" xlink:title=" ">
<polygon fill="white" stroke="#666666" points="749.5,-248.15 672,-248.15 672,-228.9 749.5,-228.9 749.5,-248.15"/>
<text text-anchor="middle" x="710.75" y="-234.65" font-family="Helvetica,sans-Serif" font-size="10.00">qh_postmerge</text>
</a>
</g>
</g>
<!-- Node2&#45;&gt;Node3 -->
<g id="edge2_Node000002_Node000003" class="edge">
<title>Node2&#45;&gt;Node3</title>
<g id="a_edge2_Node000002_Node000003"><a xlink:title=" ">
<path fill="none" stroke="#63b8ff" d="M904.42,-293.07C869.61,-289.89 824.34,-283.87 785.5,-272.53 765.6,-266.72 744.24,-256.37 729.65,-248.61"/>
<polygon fill="#63b8ff" stroke="#63b8ff" points="904.06,-296.64 914.33,-294 904.66,-289.66 904.06,-296.64"/>
</a>
</g>
</g>
<!-- Node11 -->
<g id="Node000011" class="node">
<title>Node11</title>
<g id="a_Node000011"><a xlink:href="../../d0/d36/merge_8c.html#adfe6e6b730087e300a0d99c5e479ff40" target="_top" xlink:title=" ">
<polygon fill="white" stroke="#666666" points="746.88,-211.15 674.62,-211.15 674.62,-191.9 746.88,-191.9 746.88,-211.15"/>
<text text-anchor="middle" x="710.75" y="-197.65" font-family="Helvetica,sans-Serif" font-size="10.00">qh_premerge</text>
</a>
</g>
</g>
<!-- Node2&#45;&gt;Node11 -->
<g id="edge10_Node000002_Node000011" class="edge">
<title>Node2&#45;&gt;Node11</title>
<g id="a_edge10_Node000002_Node000011"><a xlink:title=" ">
<path fill="none" stroke="#63b8ff" d="M916.93,-283.34C873.23,-269.99 809.28,-249.89 785.5,-239.53 768.72,-232.22 765.77,-227.92 749.5,-219.53 744.34,-216.87 738.71,-214.11 733.42,-211.58"/>
<polygon fill="#63b8ff" stroke="#63b8ff" points="915.71,-286.93 926.3,-286.49 917.75,-280.23 915.71,-286.93"/>
</a>
</g>
</g>
<!-- Node4 -->
<g id="Node000004" class="node">
<title>Node4</title>
<g id="a_Node000004"><a xlink:href="../../dd/ddc/libqhull__r_8c.html#adf07afe5d35dcb03cc71eb2dd0da59dd" target="_top" xlink:title=" ">
<polygon fill="white" stroke="#666666" points="283.5,-351.15 231.5,-351.15 231.5,-331.9 283.5,-331.9 283.5,-351.15"/>
<text text-anchor="middle" x="257.5" y="-337.65" font-family="Helvetica,sans-Serif" font-size="10.00">qh_qhull</text>
</a>
</g>
</g>
<!-- Node3&#45;&gt;Node4 -->
<g id="edge3_Node000003_Node000004" class="edge">
<title>Node3&#45;&gt;Node4</title>
<g id="a_edge3_Node000003_Node000004"><a xlink:title=" ">
<path fill="none" stroke="#63b8ff" d="M678.63,-223.85C596.75,-186.2 377.59,-92.15 319.5,-135.53 286.7,-160.02 265.3,-293.96 259.87,-331.65"/>
<polygon fill="#63b8ff" stroke="#63b8ff" points="677.04,-227.43 687.59,-228.46 679.98,-221.08 677.04,-227.43"/>
</a>
</g>
</g>
<!-- Node5 -->
<g id="Node000005" class="node">
<title>Node5</title>
<g id="a_Node000005"><a xlink:href="../../d3/d1d/libqhull_8c.html#a66495141e5922b777a5d84a7aec13a32" target="_top" xlink:title=" ">
<polygon fill="white" stroke="#666666" points="283.5,-426.15 231.5,-426.15 231.5,-406.9 283.5,-406.9 283.5,-426.15"/>
<text text-anchor="middle" x="257.5" y="-412.65" font-family="Helvetica,sans-Serif" font-size="10.00">qh_qhull</text>
</a>
</g>
</g>
<!-- Node3&#45;&gt;Node5 -->
<g id="edge4_Node000003_Node000005" class="edge">
<title>Node3&#45;&gt;Node5</title>
<g id="a_edge4_Node000003_Node000005"><a xlink:title=" ">
<path fill="none" stroke="#63b8ff" d="M703.97,-258.78C687.48,-312.19 634.67,-456.57 531.5,-512.53 448.68,-557.46 402.08,-557.9 319.5,-512.53 285.41,-493.8 267.66,-447.05 261.29,-426.49"/>
<polygon fill="#63b8ff" stroke="#63b8ff" points="707.51,-260.15 707.01,-249.57 700.8,-258.15 707.51,-260.15"/>
</a>
</g>
</g>
<!-- Node6 -->
<g id="Node000006" class="node">
<title>Node6</title>
<g id="a_Node000006"><a xlink:href="../../df/d17/qhalf_8c.html#a0ddf1224851353fc92bfbff6f499fa97" target="_top" xlink:title=" ">
<polygon fill="white" stroke="#666666" points="152.75,-482.15 115.75,-482.15 115.75,-462.9 152.75,-462.9 152.75,-482.15"/>
<text text-anchor="middle" x="134.25" y="-468.65" font-family="Helvetica,sans-Serif" font-size="10.00">main</text>
</a>
</g>
</g>
<!-- Node5&#45;&gt;Node6 -->
<g id="edge5_Node000005_Node000006" class="edge">
<title>Node5&#45;&gt;Node6</title>
<g id="a_edge5_Node000005_Node000006"><a xlink:title=" ">
<path fill="none" stroke="#63b8ff" d="M234.01,-432.56C222.83,-439.99 208.87,-448.5 195.5,-454.53 181.77,-460.72 165.33,-465.47 153.1,-468.53"/>
<polygon fill="#63b8ff" stroke="#63b8ff" points="235.76,-434.92 242.04,-426.39 231.81,-429.14 235.76,-434.92"/>
</a>
</g>
</g>
<!-- Node7 -->
<g id="Node000007" class="node">
<title>Node7</title>
<g id="a_Node000007"><a xlink:href="../../d3/d8d/user_8c.html#a17c89ec13fba83a683432d79ac0323cd" target="_top" xlink:title=" ">
<polygon fill="white" stroke="#666666" points="171.88,-445.15 96.62,-445.15 96.62,-425.9 171.88,-425.9 171.88,-445.15"/>
<text text-anchor="middle" x="134.25" y="-431.65" font-family="Helvetica,sans-Serif" font-size="10.00">qh_new_qhull</text>
</a>
</g>
</g>
<!-- Node5&#45;&gt;Node7 -->
<g id="edge6_Node000005_Node000007" class="edge">
<title>Node5&#45;&gt;Node7</title>
<g id="a_edge6_Node000005_Node000007"><a xlink:title=" ">
<path fill="none" stroke="#63b8ff" d="M220.49,-422.17C205.24,-424.56 187.48,-427.34 172.14,-429.75"/>
<polygon fill="#63b8ff" stroke="#63b8ff" points="220.74,-425.52 230.08,-420.51 219.66,-418.6 220.74,-425.52"/>
</a>
</g>
</g>
<!-- Node9 -->
<g id="Node000009" class="node">
<title>Node9</title>
<g id="a_Node000009"><a xlink:href="../../de/d92/user__r_8c.html#a7acad69c7e54d5c918598a254f26aad5" target="_top" xlink:title=" ">
<polygon fill="white" stroke="#666666" points="171.88,-408.15 96.62,-408.15 96.62,-388.9 171.88,-388.9 171.88,-408.15"/>
<text text-anchor="middle" x="134.25" y="-394.65" font-family="Helvetica,sans-Serif" font-size="10.00">qh_new_qhull</text>
</a>
</g>
</g>
<!-- Node5&#45;&gt;Node9 -->
<g id="edge8_Node000005_Node000009" class="edge">
<title>Node5&#45;&gt;Node9</title>
<g id="a_edge8_Node000005_Node000009"><a xlink:title=" ">
<path fill="none" stroke="#63b8ff" d="M220.49,-411.18C205.24,-408.92 187.48,-406.28 172.14,-404.01"/>
<polygon fill="#63b8ff" stroke="#63b8ff" points="219.68,-414.75 230.08,-412.76 220.7,-407.83 219.68,-414.75"/>
</a>
</g>
</g>
<!-- Node10 -->
<g id="Node000010" class="node">
<title>Node10</title>
<g id="a_Node000010"><a xlink:href="../../da/dc1/classorg_qhull_1_1_qhull.html#aaa7d64f9d45f878ff94d243b77888039" target="_top" xlink:title="pointCoordinates is a array of points, input sites (&#39;d&#39; or &#39;v&#39;), or halfspaces with offset last (&#39;H&#39;)...">
<polygon fill="white" stroke="#666666" points="195.5,-371.15 73,-371.15 73,-351.9 195.5,-351.9 195.5,-371.15"/>
<text text-anchor="middle" x="134.25" y="-357.65" font-family="Helvetica,sans-Serif" font-size="10.00">orgQhull::Qhull::runQhull</text>
</a>
</g>
</g>
<!-- Node5&#45;&gt;Node10 -->
<g id="edge9_Node000005_Node000010" class="edge">
<title>Node5&#45;&gt;Node10</title>
<g id="a_edge9_Node000005_Node000010"><a xlink:title=" ">
<path fill="none" stroke="#63b8ff" d="M233.51,-400.67C222.39,-393.5 208.63,-385.36 195.5,-379.53 188.81,-376.56 181.5,-373.92 174.35,-371.62"/>
<polygon fill="#63b8ff" stroke="#63b8ff" points="231.25,-404.03 241.52,-406.63 235.11,-398.19 231.25,-404.03"/>
</a>
</g>
</g>
<!-- Node8 -->
<g id="Node000008" class="node">
<title>Node8</title>
<g id="a_Node000008"><a xlink:href="../../dc/db1/user__eg__r_8c.html#a0ddf1224851353fc92bfbff6f499fa97" target="_top" xlink:title=" ">
<polygon fill="white" stroke="#666666" points="37,-445.15 0,-445.15 0,-425.9 37,-425.9 37,-445.15"/>
<text text-anchor="middle" x="18.5" y="-431.65" font-family="Helvetica,sans-Serif" font-size="10.00">main</text>
</a>
</g>
</g>
<!-- Node7&#45;&gt;Node8 -->
<g id="edge7_Node000007_Node000008" class="edge">
<title>Node7&#45;&gt;Node8</title>
<g id="a_edge7_Node000007_Node000008"><a xlink:title=" ">
<path fill="none" stroke="#63b8ff" d="M85.4,-435.53C68.44,-435.53 50.38,-435.53 37.47,-435.53"/>
<polygon fill="#63b8ff" stroke="#63b8ff" points="85.32,-439.03 95.32,-435.53 85.32,-432.03 85.32,-439.03"/>
</a>
</g>
</g>
<!-- Node12 -->
<g id="Node000012" class="node">
<title>Node12</title>
<g id="a_Node000012"><a xlink:href="../../d3/d1d/libqhull_8c.html#aa3f30b3b9f985fbdf0bd97f594c19eb0" target="_top" xlink:title=" ">
<polygon fill="white" stroke="#666666" points="636,-332.15 567.5,-332.15 567.5,-312.9 636,-312.9 636,-332.15"/>
<text text-anchor="middle" x="601.75" y="-318.65" font-family="Helvetica,sans-Serif" font-size="10.00">qh_addpoint</text>
</a>
</g>
</g>
<!-- Node11&#45;&gt;Node12 -->
<g id="edge11_Node000011_Node000012" class="edge">
<title>Node11&#45;&gt;Node12</title>
<g id="a_edge11_Node000011_Node000012"><a xlink:title=" ">
<path fill="none" stroke="#63b8ff" d="M674.74,-217.33C673.8,-218.04 672.88,-218.77 672,-219.53 640.19,-246.98 616.66,-292.37 607.25,-312.45"/>
<polygon fill="#63b8ff" stroke="#63b8ff" points="676.24,-219.89 682.84,-211.59 672.51,-213.97 676.24,-219.89"/>
</a>
</g>
</g>
<!-- Node34 -->
<g id="Node000034" class="node">
<title>Node34</title>
<g id="a_Node000034"><a xlink:href="../../dd/ddc/libqhull__r_8c.html#ab6ebb3043e23e018ec6c2e09b0651c1e" target="_top" xlink:title=" ">
<polygon fill="white" stroke="#666666" points="636,-88.15 567.5,-88.15 567.5,-68.9 636,-68.9 636,-88.15"/>
<text text-anchor="middle" x="601.75" y="-74.65" font-family="Helvetica,sans-Serif" font-size="10.00">qh_addpoint</text>
</a>
</g>
</g>
<!-- Node11&#45;&gt;Node34 -->
<g id="edge39_Node000011_Node000034" class="edge">
<title>Node11&#45;&gt;Node34</title>
<g id="a_edge39_Node000011_Node000034"><a xlink:title=" ">
<path fill="none" stroke="#63b8ff" d="M697.97,-182.3C684.55,-161.3 661.19,-127.35 636,-102.53 630.83,-97.43 624.5,-92.59 618.75,-88.6"/>
<polygon fill="#63b8ff" stroke="#63b8ff" points="695.44,-183.86 703.72,-190.48 701.37,-180.14 695.44,-183.86"/>
</a>
</g>
</g>
<!-- Node13 -->
<g id="Node000013" class="node">
<title>Node13</title>
<g id="a_Node000013"><a xlink:href="../../de/d23/user__eg2_8c.html#af7d3b6ebccf4d8bb722de846ec802d2a" target="_top" xlink:title=" ">
<polygon fill="white" stroke="#666666" points="531.5,-277.15 458.5,-277.15 458.5,-257.9 531.5,-257.9 531.5,-277.15"/>
<text text-anchor="middle" x="495" y="-263.65" font-family="Helvetica,sans-Serif" font-size="10.00">addDelaunay</text>
</a>
</g>
</g>
<!-- Node12&#45;&gt;Node13 -->
<g id="edge12_Node000012_Node000013" class="edge">
<title>Node12&#45;&gt;Node13</title>
<g id="a_edge12_Node000012_Node000013"><a xlink:title=" ">
<path fill="none" stroke="#63b8ff" d="M572.8,-307.42C560.21,-300.66 545.14,-292.63 531.5,-285.53 526.47,-282.91 521.03,-280.13 515.94,-277.55"/>
<polygon fill="#63b8ff" stroke="#63b8ff" points="570.83,-310.87 581.29,-312.53 574.14,-304.71 570.83,-310.87"/>
</a>
</g>
</g>
<!-- Node15 -->
<g id="Node000015" class="node">
<title>Node15</title>
<g id="a_Node000015"><a xlink:href="../../dc/d19/user__eg2__r_8c.html#a3355b30f54fdc164288f3cb18378bf4f" target="_top" xlink:title=" ">
<polygon fill="white" stroke="#666666" points="531.5,-427.15 458.5,-427.15 458.5,-407.9 531.5,-407.9 531.5,-427.15"/>
<text text-anchor="middle" x="495" y="-413.65" font-family="Helvetica,sans-Serif" font-size="10.00">addDelaunay</text>
</a>
</g>
</g>
<!-- Node12&#45;&gt;Node15 -->
<g id="edge14_Node000012_Node000015" class="edge">
<title>Node12&#45;&gt;Node15</title>
<g id="a_edge14_Node000012_Node000015"><a xlink:title=" ">
<path fill="none" stroke="#63b8ff" d="M586.96,-340.94C573.95,-357.44 553.25,-381.6 531.5,-398.53 527.2,-401.88 522.22,-404.95 517.38,-407.61"/>
<polygon fill="#63b8ff" stroke="#63b8ff" points="590.02,-343.7 593.36,-333.65 584.48,-339.43 590.02,-343.7"/>
</a>
</g>
</g>
<!-- Node17 -->
<g id="Node000017" class="node">
<title>Node17</title>
<g id="a_Node000017"><a xlink:href="../../de/d23/user__eg2_8c.html#a769b1472f71d35a251257056ccc4f881" target="_top" xlink:title=" ">
<polygon fill="white" stroke="#666666" points="529.25,-202.15 460.75,-202.15 460.75,-182.9 529.25,-182.9 529.25,-202.15"/>
<text text-anchor="middle" x="495" y="-188.65" font-family="Helvetica,sans-Serif" font-size="10.00">adddiamond</text>
</a>
</g>
</g>
<!-- Node12&#45;&gt;Node17 -->
<g id="edge16_Node000012_Node000017" class="edge">
<title>Node12&#45;&gt;Node17</title>
<g id="a_edge16_Node000012_Node000017"><a xlink:title=" ">
<path fill="none" stroke="#63b8ff" d="M592.26,-302.65C581.19,-278.6 559.83,-238.04 531.5,-211.53 527.82,-208.09 523.41,-205.08 518.96,-202.54"/>
<polygon fill="#63b8ff" stroke="#63b8ff" points="589.35,-303.72 596.62,-311.43 595.75,-300.87 589.35,-303.72"/>
</a>
</g>
</g>
<!-- Node26 -->
<g id="Node000026" class="node">
<title>Node26</title>
<g id="a_Node000026"><a xlink:href="../../dc/d19/user__eg2__r_8c.html#a4dd6f8f9665377a801922cbf4523f48a" target="_top" xlink:title=" ">
<polygon fill="white" stroke="#666666" points="529.25,-503.15 460.75,-503.15 460.75,-483.9 529.25,-483.9 529.25,-503.15"/>
<text text-anchor="middle" x="495" y="-489.65" font-family="Helvetica,sans-Serif" font-size="10.00">adddiamond</text>
</a>
</g>
</g>
<!-- Node12&#45;&gt;Node26 -->
<g id="edge20_Node000012_Node000026" class="edge">
<title>Node12&#45;&gt;Node26</title>
<g id="a_edge20_Node000012_Node000026"><a xlink:title=" ">
<path fill="none" stroke="#63b8ff" d="M596,-342.83C587.71,-374.42 567.92,-435.71 531.5,-474.53 528.25,-478 524.22,-480.96 520.05,-483.45"/>
<polygon fill="#63b8ff" stroke="#63b8ff" points="599.6,-343.84 598.62,-333.29 592.81,-342.15 599.6,-343.84"/>
</a>
</g>
</g>
<!-- Node27 -->
<g id="Node000027" class="node">
<title>Node27</title>
<g id="a_Node000027"><a xlink:href="../../de/d23/user__eg2_8c.html#ac1cac81bfd507c3716d7f07598f744be" target="_top" xlink:title=" ">
<polygon fill="white" stroke="#666666" points="518.75,-240.15 471.25,-240.15 471.25,-220.9 518.75,-220.9 518.75,-240.15"/>
<text text-anchor="middle" x="495" y="-226.65" font-family="Helvetica,sans-Serif" font-size="10.00">addhalf</text>
</a>
</g>
</g>
<!-- Node12&#45;&gt;Node27 -->
<g id="edge22_Node000012_Node000027" class="edge">
<title>Node12&#45;&gt;Node27</title>
<g id="a_edge22_Node000012_Node000027"><a xlink:title=" ">
<path fill="none" stroke="#63b8ff" d="M586.59,-304.07C573.55,-287.96 553.03,-264.69 531.5,-248.53 527.63,-245.63 523.22,-242.96 518.86,-240.63"/>
<polygon fill="#63b8ff" stroke="#63b8ff" points="584.4,-305.95 593.35,-311.63 589.89,-301.61 584.4,-305.95"/>
</a>
</g>
</g>
<!-- Node28 -->
<g id="Node000028" class="node">
<title>Node28</title>
<g id="a_Node000028"><a xlink:href="../../dc/d19/user__eg2__r_8c.html#a294f95af2e6aa72b22d7c21b4f3d8a9b" target="_top" xlink:title=" ">
<polygon fill="white" stroke="#666666" points="518.75,-465.15 471.25,-465.15 471.25,-445.9 518.75,-445.9 518.75,-465.15"/>
<text text-anchor="middle" x="495" y="-451.65" font-family="Helvetica,sans-Serif" font-size="10.00">addhalf</text>
</a>
</g>
</g>
<!-- Node12&#45;&gt;Node28 -->
<g id="edge24_Node000012_Node000028" class="edge">
<title>Node12&#45;&gt;Node28</title>
<g id="a_edge24_Node000012_Node000028"><a xlink:title=" ">
<path fill="none" stroke="#63b8ff" d="M592.56,-342.58C581.67,-367.24 560.37,-409.19 531.5,-436.53 527.85,-439.99 523.44,-443.01 518.99,-445.56"/>
<polygon fill="#63b8ff" stroke="#63b8ff" points="596.12,-344.15 596.82,-333.58 589.68,-341.4 596.12,-344.15"/>
</a>
</g>
</g>
<!-- Node29 -->
<g id="Node000029" class="node">
<title>Node29</title>
<g id="a_Node000029"><a xlink:href="../../d3/d1d/libqhull_8c.html#a9dacb98db25f499d3e0416aee4307a80" target="_top" xlink:title=" ">
<polygon fill="white" stroke="#666666" points="528.5,-314.15 461.5,-314.15 461.5,-294.9 528.5,-294.9 528.5,-314.15"/>
<text text-anchor="middle" x="495" y="-300.65" font-family="Helvetica,sans-Serif" font-size="10.00">qh_buildhull</text>
</a>
</g>
</g>
<!-- Node12&#45;&gt;Node29 -->
<g id="edge26_Node000012_Node000029" class="edge">
<title>Node12&#45;&gt;Node29</title>
<g id="a_edge26_Node000012_Node000029"><a xlink:title=" ">
<path fill="none" stroke="#63b8ff" d="M556.44,-314.92C547.22,-313.33 537.66,-311.69 528.94,-310.19"/>
<polygon fill="#63b8ff" stroke="#63b8ff" points="555.58,-318.49 566.03,-316.74 556.77,-311.59 555.58,-318.49"/>
</a>
</g>
</g>
<!-- Node32 -->
<g id="Node000032" class="node">
<title>Node32</title>
<g id="a_Node000032"><a xlink:href="../../dd/d98/poly2__r_8c.html#a3291717ad6e317ed31774dbbc041b036" target="_top" xlink:title=" ">
<polygon fill="white" stroke="#666666" points="527.38,-351.15 462.62,-351.15 462.62,-331.9 527.38,-331.9 527.38,-351.15"/>
<text text-anchor="middle" x="495" y="-337.65" font-family="Helvetica,sans-Serif" font-size="10.00">qh_initbuild</text>
</a>
</g>
</g>
<!-- Node12&#45;&gt;Node32 -->
<g id="edge33_Node000012_Node000032" class="edge">
<title>Node12&#45;&gt;Node32</title>
<g id="a_edge33_Node000012_Node000032"><a xlink:title=" ">
<path fill="none" stroke="#63b8ff" d="M556.33,-330.59C546.64,-332.34 536.58,-334.17 527.52,-335.81"/>
<polygon fill="#63b8ff" stroke="#63b8ff" points="556.82,-333.87 566.03,-328.65 555.57,-326.99 556.82,-333.87"/>
</a>
</g>
</g>
<!-- Node33 -->
<g id="Node000033" class="node">
<title>Node33</title>
<g id="a_Node000033"><a xlink:href="../../d9/d26/poly2_8c.html#af48505f99a1447ec5013ed5766250b50" target="_top" xlink:title=" ">
<polygon fill="white" stroke="#666666" points="527.38,-389.15 462.62,-389.15 462.62,-369.9 527.38,-369.9 527.38,-389.15"/>
<text text-anchor="middle" x="495" y="-375.65" font-family="Helvetica,sans-Serif" font-size="10.00">qh_initbuild</text>
</a>
</g>
</g>
<!-- Node12&#45;&gt;Node33 -->
<g id="edge34_Node000012_Node000033" class="edge">
<title>Node12&#45;&gt;Node33</title>
<g id="a_edge34_Node000012_Node000033"><a xlink:title=" ">
<path fill="none" stroke="#63b8ff" d="M573.03,-337.83C560.38,-344.79 545.2,-353.11 531.5,-360.53 526.09,-363.46 520.21,-366.62 514.81,-369.51"/>
<polygon fill="#63b8ff" stroke="#63b8ff" points="574.48,-340.47 581.55,-332.58 571.1,-334.34 574.48,-340.47"/>
</a>
</g>
</g>
<!-- Node14 -->
<g id="Node000014" class="node">
<title>Node14</title>
<g id="a_Node000014"><a xlink:href="../../de/d23/user__eg2_8c.html#a0ddf1224851353fc92bfbff6f499fa97" target="_top" xlink:title=" ">
<polygon fill="white" stroke="#666666" points="389.5,-238.15 352.5,-238.15 352.5,-218.9 389.5,-218.9 389.5,-238.15"/>
<text text-anchor="middle" x="371" y="-224.65" font-family="Helvetica,sans-Serif" font-size="10.00">main</text>
</a>
</g>
</g>
<!-- Node13&#45;&gt;Node14 -->
<g id="edge13_Node000013_Node000014" class="edge">
<title>Node13&#45;&gt;Node14</title>
<g id="a_edge13_Node000013_Node000014"><a xlink:title=" ">
<path fill="none" stroke="#63b8ff" d="M452.13,-254.14C430.8,-247.33 406.01,-239.4 389.72,-234.19"/>
<polygon fill="#63b8ff" stroke="#63b8ff" points="450.99,-257.78 461.58,-257.49 453.12,-251.11 450.99,-257.78"/>
</a>
</g>
</g>
<!-- Node16 -->
<g id="Node000016" class="node">
<title>Node16</title>
<g id="a_Node000016"><a xlink:href="../../dc/d19/user__eg2__r_8c.html#a0ddf1224851353fc92bfbff6f499fa97" target="_top" xlink:title=" ">
<polygon fill="white" stroke="#666666" points="389.5,-503.15 352.5,-503.15 352.5,-483.9 389.5,-483.9 389.5,-503.15"/>
<text text-anchor="middle" x="371" y="-489.65" font-family="Helvetica,sans-Serif" font-size="10.00">main</text>
</a>
</g>
</g>
<!-- Node15&#45;&gt;Node16 -->
<g id="edge15_Node000015_Node000016" class="edge">
<title>Node15&#45;&gt;Node16</title>
<g id="a_edge15_Node000015_Node000016"><a xlink:title=" ">
<path fill="none" stroke="#63b8ff" d="M463.85,-432.97C462.01,-434.13 460.21,-435.32 458.5,-436.53 440.79,-449.08 440.5,-457.4 422.5,-469.53 412.36,-476.36 399.96,-482.28 389.99,-486.53"/>
<polygon fill="#63b8ff" stroke="#63b8ff" points="465.31,-435.59 472.2,-427.54 461.8,-429.53 465.31,-435.59"/>
</a>
</g>
</g>
<!-- Node17&#45;&gt;Node14 -->
<g id="edge17_Node000017_Node000014" class="edge">
<title>Node17&#45;&gt;Node14</title>
<g id="a_edge17_Node000017_Node000014"><a xlink:title=" ">
<path fill="none" stroke="#63b8ff" d="M449.79,-205.57C429.03,-211.7 405.45,-218.66 389.74,-223.29"/>
<polygon fill="#63b8ff" stroke="#63b8ff" points="450.74,-208.65 459.34,-202.46 448.76,-201.94 450.74,-208.65"/>
</a>
</g>
</g>
<!-- Node18 -->
<g id="Node000018" class="node">
<title>Node18</title>
<g id="a_Node000018"><a xlink:href="../../d4/d08/rboxlib_8c.html#a1f9cbd7a40bf1755ccc7c938e5b135b8" target="_top" xlink:title=" ">
<polygon fill="#fff0f0" stroke="red" points="409.38,-164.15 332.62,-164.15 332.62,-144.9 409.38,-144.9 409.38,-164.15"/>
<text text-anchor="middle" x="371" y="-150.65" font-family="Helvetica,sans-Serif" font-size="10.00">qh_rboxpoints</text>
</a>
</g>
</g>
<!-- Node17&#45;&gt;Node18 -->
<g id="edge18_Node000017_Node000018" class="edge">
<title>Node17&#45;&gt;Node18</title>
<g id="a_edge18_Node000017_Node000018"><a xlink:title=" ">
<path fill="none" stroke="#63b8ff" d="M451.23,-179.21C435.74,-174.38 418.52,-169.02 404.1,-164.53"/>
<polygon fill="#63b8ff" stroke="#63b8ff" points="450.04,-182.81 460.63,-182.45 452.12,-176.13 450.04,-182.81"/>
</a>
</g>
</g>
<!-- Node25 -->
<g id="Node000025" class="node">
<title>Node25</title>
<g id="a_Node000025"><a xlink:href="../../d2/dd4/rboxlib__r_8c.html#a4743d95ee7e5e5043c383a6233a44f8c" target="_top" xlink:title=" ">
<polygon fill="white" stroke="#666666" points="409.38,-201.15 332.62,-201.15 332.62,-181.9 409.38,-181.9 409.38,-201.15"/>
<text text-anchor="middle" x="371" y="-187.65" font-family="Helvetica,sans-Serif" font-size="10.00">qh_rboxpoints</text>
</a>
</g>
</g>
<!-- Node17&#45;&gt;Node25 -->
<g id="edge19_Node000017_Node000025" class="edge">
<title>Node17&#45;&gt;Node25</title>
<g id="a_edge19_Node000017_Node000025"><a xlink:title=" ">
<path fill="none" stroke="#63b8ff" d="M449.69,-192.17C436.63,-192.06 422.46,-191.94 409.85,-191.84"/>
<polygon fill="#63b8ff" stroke="#63b8ff" points="449.31,-195.67 459.34,-192.25 449.37,-188.67 449.31,-195.67"/>
</a>
</g>
</g>
<!-- Node26&#45;&gt;Node16 -->
<g id="edge21_Node000026_Node000016" class="edge">
<title>Node26&#45;&gt;Node16</title>
<g id="a_edge21_Node000026_Node000016"><a xlink:title=" ">
<path fill="none" stroke="#63b8ff" d="M449.51,-493.53C428.81,-493.53 405.37,-493.53 389.74,-493.53"/>
<polygon fill="#63b8ff" stroke="#63b8ff" points="449.34,-497.03 459.34,-493.53 449.34,-490.03 449.34,-497.03"/>
</a>
</g>
</g>
<!-- Node27&#45;&gt;Node14 -->
<g id="edge23_Node000027_Node000014" class="edge">
<title>Node27&#45;&gt;Node14</title>
<g id="a_edge23_Node000027_Node000014"><a xlink:title=" ">
<path fill="none" stroke="#63b8ff" d="M459.88,-229.97C437.2,-229.6 408.32,-229.13 389.99,-228.82"/>
<polygon fill="#63b8ff" stroke="#63b8ff" points="459.71,-233.48 469.77,-230.15 459.82,-226.49 459.71,-233.48"/>
</a>
</g>
</g>
<!-- Node28&#45;&gt;Node16 -->
<g id="edge25_Node000028_Node000016" class="edge">
<title>Node28&#45;&gt;Node16</title>
<g id="a_edge25_Node000028_Node000016"><a xlink:title=" ">
<path fill="none" stroke="#63b8ff" d="M460.5,-465.96C437.73,-473.06 408.49,-482.16 389.99,-487.93"/>
<polygon fill="#63b8ff" stroke="#63b8ff" points="461.26,-469.08 469.77,-462.77 459.18,-462.4 461.26,-469.08"/>
</a>
</g>
</g>
<!-- Node29&#45;&gt;Node4 -->
<g id="edge31_Node000029_Node000004" class="edge">
<title>Node29&#45;&gt;Node4</title>
<g id="a_edge31_Node000029_Node000004"><a xlink:title=" ">
<path fill="none" stroke="#63b8ff" d="M452.82,-291.75C416.62,-282.71 363.05,-274.72 319.5,-290.53 296.92,-298.72 276.86,-319.34 266.32,-331.71"/>
<polygon fill="#63b8ff" stroke="#63b8ff" points="451.45,-295.27 462.01,-294.44 453.24,-288.5 451.45,-295.27"/>
</a>
</g>
</g>
<!-- Node29&#45;&gt;Node5 -->
<g id="edge32_Node000029_Node000005" class="edge">
<title>Node29&#45;&gt;Node5</title>
<g id="a_edge32_Node000029_Node000005"><a xlink:title=" ">
<path fill="none" stroke="#63b8ff" d="M450.56,-299.41C413.11,-297.18 359,-299.34 319.5,-323.53 287.39,-343.19 268.8,-386.86 261.77,-406.55"/>
<polygon fill="#63b8ff" stroke="#63b8ff" points="449.9,-302.95 460.13,-300.19 450.41,-295.97 449.9,-302.95"/>
</a>
</g>
</g>
<!-- Node30 -->
<g id="Node000030" class="node">
<title>Node30</title>
<g id="a_Node000030"><a xlink:href="../../dd/ddc/libqhull__r_8c.html#ad818ae8c79d65620430f0836cbf823a3" target="_top" xlink:title=" ">
<polygon fill="white" stroke="#666666" points="422.5,-352.15 319.5,-352.15 319.5,-332.9 422.5,-332.9 422.5,-352.15"/>
<text text-anchor="middle" x="371" y="-338.65" font-family="Helvetica,sans-Serif" font-size="10.00">qh_build_withrestart</text>
</a>
</g>
</g>
<!-- Node29&#45;&gt;Node30 -->
<g id="edge27_Node000029_Node000030" class="edge">
<title>Node29&#45;&gt;Node30</title>
<g id="a_edge27_Node000029_Node000030"><a xlink:title=" ">
<path fill="none" stroke="#63b8ff" d="M451.23,-317.85C435.74,-322.68 418.52,-328.04 404.1,-332.53"/>
<polygon fill="#63b8ff" stroke="#63b8ff" points="452.12,-320.93 460.63,-314.61 450.04,-314.25 452.12,-320.93"/>
</a>
</g>
</g>
<!-- Node31 -->
<g id="Node000031" class="node">
<title>Node31</title>
<g id="a_Node000031"><a xlink:href="../../d3/d1d/libqhull_8c.html#a1b6838237f7b511f4842607309fc4f28" target="_top" xlink:title=" ">
<polygon fill="white" stroke="#666666" points="422.5,-389.15 319.5,-389.15 319.5,-369.9 422.5,-369.9 422.5,-389.15"/>
<text text-anchor="middle" x="371" y="-375.65" font-family="Helvetica,sans-Serif" font-size="10.00">qh_build_withrestart</text>
</a>
</g>
</g>
<!-- Node29&#45;&gt;Node31 -->
<g id="edge28_Node000029_Node000031" class="edge">
<title>Node29&#45;&gt;Node31</title>
<g id="a_edge28_Node000029_Node000031"><a xlink:title=" ">
<path fill="none" stroke="#63b8ff" d="M461.87,-320.13C460.71,-320.91 459.59,-321.71 458.5,-322.53 439.68,-336.76 442.18,-348.53 422.5,-361.53 417.84,-364.61 412.59,-367.23 407.28,-369.45"/>
<polygon fill="#63b8ff" stroke="#63b8ff" points="463.33,-322.74 470.12,-314.61 459.74,-316.73 463.33,-322.74"/>
</a>
</g>
</g>
<!-- Node31&#45;&gt;Node4 -->
<g id="edge29_Node000031_Node000004" class="edge">
<title>Node31&#45;&gt;Node4</title>
<g id="a_edge29_Node000031_Node000004"><a xlink:title=" ">
<path fill="none" stroke="#63b8ff" d="M330.06,-365.92C314.59,-360.65 297.36,-354.77 283.68,-350.11"/>
<polygon fill="#63b8ff" stroke="#63b8ff" points="328.82,-369.53 339.41,-369.45 331.08,-362.91 328.82,-369.53"/>
</a>
</g>
</g>
<!-- Node31&#45;&gt;Node5 -->
<g id="edge30_Node000031_Node000005" class="edge">
<title>Node31&#45;&gt;Node5</title>
<g id="a_edge30_Node000031_Node000005"><a xlink:title=" ">
<path fill="none" stroke="#63b8ff" d="M329.28,-393.04C314.01,-398.11 297.12,-403.72 283.66,-408.18"/>
<polygon fill="#63b8ff" stroke="#63b8ff" points="330.14,-396.11 338.53,-389.64 327.94,-389.47 330.14,-396.11"/>
</a>
</g>
</g>
<!-- Node33&#45;&gt;Node4 -->
<g id="edge37_Node000033_Node000004" class="edge">
<title>Node33&#45;&gt;Node4</title>
<g id="a_edge37_Node000033_Node000004"><a xlink:title=" ">
<path fill="none" stroke="#63b8ff" d="M458.36,-392.95C422.14,-404.43 365.04,-416.49 319.5,-398.53 295.5,-389.06 275.38,-365.2 265.35,-351.54"/>
<polygon fill="#63b8ff" stroke="#63b8ff" points="459.06,-396.08 467.44,-389.6 456.85,-389.43 459.06,-396.08"/>
</a>
</g>
</g>
<!-- Node33&#45;&gt;Node5 -->
<g id="edge38_Node000033_Node000005" class="edge">
<title>Node33&#45;&gt;Node5</title>
<g id="a_edge38_Node000033_Node000005"><a xlink:title=" ">
<path fill="none" stroke="#63b8ff" d="M463.85,-394.97C462.01,-396.13 460.21,-397.32 458.5,-398.53 440.79,-411.08 442.73,-423.66 422.5,-431.53 376.14,-449.56 317.03,-436.15 283.93,-425.71"/>
<polygon fill="#63b8ff" stroke="#63b8ff" points="465.31,-397.59 472.2,-389.54 461.8,-391.53 465.31,-397.59"/>
</a>
</g>
</g>
<!-- Node33&#45;&gt;Node30 -->
<g id="edge35_Node000033_Node000030" class="edge">
<title>Node33&#45;&gt;Node30</title>
<g id="a_edge35_Node000033_Node000030"><a xlink:title=" ">
<path fill="none" stroke="#63b8ff" d="M452.02,-366.8C436.75,-362.17 419.7,-357 405.28,-352.62"/>
<polygon fill="#63b8ff" stroke="#63b8ff" points="450.68,-370.35 461.26,-369.91 452.71,-363.65 450.68,-370.35"/>
</a>
</g>
</g>
<!-- Node33&#45;&gt;Node31 -->
<g id="edge36_Node000033_Node000031" class="edge">
<title>Node33&#45;&gt;Node31</title>
<g id="a_edge36_Node000033_Node000031"><a xlink:title=" ">
<path fill="none" stroke="#63b8ff" d="M451.42,-379.53C442.23,-379.53 432.43,-379.53 422.95,-379.53"/>
<polygon fill="#63b8ff" stroke="#63b8ff" points="451.26,-383.03 461.26,-379.53 451.26,-376.03 451.26,-383.03"/>
</a>
</g>
</g>
<!-- Node35 -->
<g id="Node000035" class="node">
<title>Node35</title>
<g id="a_Node000035"><a xlink:href="../../dd/ddc/libqhull__r_8c.html#a45f90a4c6d1607471beacabf3b0a5b9a" target="_top" xlink:title=" ">
<polygon fill="white" stroke="#666666" points="528.5,-88.15 461.5,-88.15 461.5,-68.9 528.5,-68.9 528.5,-88.15"/>
<text text-anchor="middle" x="495" y="-74.65" font-family="Helvetica,sans-Serif" font-size="10.00">qh_buildhull</text>
</a>
</g>
</g>
<!-- Node34&#45;&gt;Node35 -->
<g id="edge40_Node000034_Node000035" class="edge">
<title>Node34&#45;&gt;Node35</title>
<g id="a_edge40_Node000034_Node000035"><a xlink:title=" ">
<path fill="none" stroke="#63b8ff" d="M556.14,-78.53C547.01,-78.53 537.57,-78.53 528.94,-78.53"/>
<polygon fill="#63b8ff" stroke="#63b8ff" points="556.03,-82.03 566.03,-78.53 556.03,-75.03 556.03,-82.03"/>
</a>
</g>
</g>
<!-- Node36&#45;&gt;Node2 -->
<g id="edge48_Node000036_Node000002" class="edge">
<title>Node36&#45;&gt;Node2</title>
<g id="a_edge48_Node000036_Node000002"><a xlink:title=" ">
<path fill="none" stroke="#63b8ff" d="M1093.72,-162.24C1062.32,-194.44 996.86,-261.55 972.32,-286.72"/>
<polygon fill="#63b8ff" stroke="#63b8ff" points="1095.8,-165.11 1100.27,-155.5 1090.79,-160.22 1095.8,-165.11"/>
</a>
</g>
</g>
<!-- Node36&#45;&gt;Node11 -->
<g id="edge53_Node000036_Node000011" class="edge">
<title>Node36&#45;&gt;Node11</title>
<g id="a_edge53_Node000036_Node000011"><a xlink:title=" ">
<path fill="none" stroke="#63b8ff" d="M1034.57,-150.3C997.99,-153.47 953.63,-157.91 914,-163.53 855.1,-171.89 787.27,-185.45 747.03,-193.91"/>
<polygon fill="#63b8ff" stroke="#63b8ff" points="1034.49,-153.73 1044.16,-149.4 1033.9,-146.76 1034.49,-153.73"/>
</a>
</g>
</g>
<!-- Node37 -->
<g id="Node000037" class="node">
<title>Node37</title>
<g id="a_Node000037"><a xlink:href="../../d0/d36/merge_8c.html#a9f8eea0003c8a8f2cf16db2ef92f53ce" target="_top" xlink:title=" ">
<polygon fill="white" stroke="#666666" points="871.25,-230.15 792.25,-230.15 792.25,-210.9 871.25,-210.9 871.25,-230.15"/>
<text text-anchor="middle" x="831.75" y="-216.65" font-family="Helvetica,sans-Serif" font-size="10.00">qh_all_merges</text>
</a>
</g>
</g>
<!-- Node36&#45;&gt;Node37 -->
<g id="edge42_Node000036_Node000037" class="edge">
<title>Node36&#45;&gt;Node37</title>
<g id="a_edge42_Node000036_Node000037"><a xlink:title=" ">
<path fill="none" stroke="#63b8ff" d="M1088.55,-160.68C1068.76,-174.02 1038.62,-192.22 1009.5,-201.53 963.64,-216.19 908.04,-220.04 871.6,-220.81"/>
<polygon fill="#63b8ff" stroke="#63b8ff" points="1090.14,-163.14 1096.38,-154.58 1086.17,-157.38 1090.14,-163.14"/>
</a>
</g>
</g>
<!-- Node38 -->
<g id="Node000038" class="node">
<title>Node38</title>
<g id="a_Node000038"><a xlink:href="../../d4/daf/merge__r_8c.html#a8163cc76ceb8ceba8c9ea15e2a70af39" target="_top" xlink:title=" ">
<polygon fill="white" stroke="#666666" points="871.25,-77.15 792.25,-77.15 792.25,-57.9 871.25,-57.9 871.25,-77.15"/>
<text text-anchor="middle" x="831.75" y="-63.65" font-family="Helvetica,sans-Serif" font-size="10.00">qh_all_merges</text>
</a>
</g>
</g>
<!-- Node36&#45;&gt;Node38 -->
<g id="edge45_Node000036_Node000038" class="edge">
<title>Node36&#45;&gt;Node38</title>
<g id="a_edge45_Node000036_Node000038"><a xlink:title=" ">
<path fill="none" stroke="#63b8ff" d="M1088.54,-128.43C1068.74,-115.11 1038.59,-96.92 1009.5,-87.53 963.65,-72.73 908.05,-68.54 871.6,-67.53"/>
<polygon fill="#63b8ff" stroke="#63b8ff" points="1086.15,-131.72 1096.38,-134.51 1090.12,-125.96 1086.15,-131.72"/>
</a>
</g>
</g>
<!-- Node40 -->
<g id="Node000040" class="node">
<title>Node40</title>
<g id="a_Node000040"><a xlink:href="../../d4/daf/merge__r_8c.html#a0edb7d53c648841f636051abea19f21e" target="_top" xlink:title=" ">
<polygon fill="white" stroke="#666666" points="746.88,-40.15 674.62,-40.15 674.62,-20.9 746.88,-20.9 746.88,-40.15"/>
<text text-anchor="middle" x="710.75" y="-26.65" font-family="Helvetica,sans-Serif" font-size="10.00">qh_premerge</text>
</a>
</g>
</g>
<!-- Node36&#45;&gt;Node40 -->
<g id="edge52_Node000036_Node000040" class="edge">
<title>Node36&#45;&gt;Node40</title>
<g id="a_edge52_Node000036_Node000040"><a xlink:title=" ">
<path fill="none" stroke="#63b8ff" d="M1099.09,-125.56C1082.34,-100.6 1049.37,-57.35 1009.5,-35.53 921.67,12.54 884.83,1.06 785.5,-11.53 771.6,-13.29 756.56,-16.85 743.72,-20.42"/>
<polygon fill="#63b8ff" stroke="#63b8ff" points="1096.68,-127.26 1105.07,-133.73 1102.54,-123.44 1096.68,-127.26"/>
</a>
</g>
</g>
<!-- Node41 -->
<g id="Node000041" class="node">
<title>Node41</title>
<g id="a_Node000041"><a xlink:href="../../d4/daf/merge__r_8c.html#a24641706c23b8aa28da750a597e4dc74" target="_top" xlink:title=" ">
<polygon fill="white" stroke="#666666" points="878,-40.15 785.5,-40.15 785.5,-20.9 878,-20.9 878,-40.15"/>
<text text-anchor="middle" x="831.75" y="-26.65" font-family="Helvetica,sans-Serif" font-size="10.00">qh_flippedmerges</text>
</a>
</g>
</g>
<!-- Node36&#45;&gt;Node41 -->
<g id="edge49_Node000036_Node000041" class="edge">
<title>Node36&#45;&gt;Node41</title>
<g id="a_edge49_Node000036_Node000041"><a xlink:title=" ">
<path fill="none" stroke="#63b8ff" d="M1093.61,-127.09C1074.61,-109.09 1042.46,-81.57 1009.5,-66.53 967.48,-47.36 915.2,-38.33 878.44,-34.12"/>
<polygon fill="#63b8ff" stroke="#63b8ff" points="1090.75,-129.17 1100.37,-133.61 1095.62,-124.14 1090.75,-129.17"/>
</a>
</g>
</g>
<!-- Node42 -->
<g id="Node000042" class="node">
<title>Node42</title>
<g id="a_Node000042"><a xlink:href="../../d4/daf/merge__r_8c.html#a70e7d9f04569e2515d89eb8fe13c84f5" target="_top" xlink:title=" ">
<polygon fill="white" stroke="#666666" points="1009.5,-192.15 914,-192.15 914,-172.9 1009.5,-172.9 1009.5,-192.15"/>
<text text-anchor="middle" x="961.75" y="-178.65" font-family="Helvetica,sans-Serif" font-size="10.00">qh_reducevertices</text>
</a>
</g>
</g>
<!-- Node36&#45;&gt;Node42 -->
<g id="edge54_Node000036_Node000042" class="edge">
<title>Node36&#45;&gt;Node42</title>
<g id="a_edge54_Node000036_Node000042"><a xlink:title=" ">
<path fill="none" stroke="#63b8ff" d="M1061.24,-157.29C1041.94,-162.23 1020.17,-167.81 1002.02,-172.47"/>
<polygon fill="#63b8ff" stroke="#63b8ff" points="1061.84,-160.49 1070.66,-154.61 1060.11,-153.71 1061.84,-160.49"/>
</a>
</g>
</g>
<!-- Node43 -->
<g id="Node000043" class="node">
<title>Node43</title>
<g id="a_Node000043"><a xlink:href="../../d0/d36/merge_8c.html#ac40425a64c50d0e0b2637c63d61822a9" target="_top" xlink:title=" ">
<polygon fill="white" stroke="#666666" points="1009.5,-116.15 914,-116.15 914,-96.9 1009.5,-96.9 1009.5,-116.15"/>
<text text-anchor="middle" x="961.75" y="-102.65" font-family="Helvetica,sans-Serif" font-size="10.00">qh_reducevertices</text>
</a>
</g>
</g>
<!-- Node36&#45;&gt;Node43 -->
<g id="edge55_Node000036_Node000043" class="edge">
<title>Node36&#45;&gt;Node43</title>
<g id="a_edge55_Node000036_Node000043"><a xlink:title=" ">
<path fill="none" stroke="#63b8ff" d="M1061.24,-131.77C1041.94,-126.83 1020.17,-121.25 1002.02,-116.59"/>
<polygon fill="#63b8ff" stroke="#63b8ff" points="1060.11,-135.35 1070.66,-134.45 1061.84,-128.57 1060.11,-135.35"/>
</a>
</g>
</g>
<!-- Node37&#45;&gt;Node3 -->
<g id="edge43_Node000037_Node000003" class="edge">
<title>Node37&#45;&gt;Node3</title>
<g id="a_edge43_Node000037_Node000003"><a xlink:title=" ">
<path fill="none" stroke="#63b8ff" d="M781.14,-228.03C770.73,-229.61 759.91,-231.25 749.99,-232.75"/>
<polygon fill="#63b8ff" stroke="#63b8ff" points="781.42,-231.38 790.78,-226.42 780.37,-224.46 781.42,-231.38"/>
</a>
</g>
</g>
<!-- Node37&#45;&gt;Node11 -->
<g id="edge44_Node000037_Node000011" class="edge">
<title>Node37&#45;&gt;Node11</title>
<g id="a_edge44_Node000037_Node000011"><a xlink:title=" ">
<path fill="none" stroke="#63b8ff" d="M781.08,-212.6C769.7,-210.78 757.82,-208.89 747.18,-207.19"/>
<polygon fill="#63b8ff" stroke="#63b8ff" points="780.36,-216.19 790.78,-214.31 781.46,-209.28 780.36,-216.19"/>
</a>
</g>
</g>
<!-- Node39 -->
<g id="Node000039" class="node">
<title>Node39</title>
<g id="a_Node000039"><a xlink:href="../../d4/daf/merge__r_8c.html#a1378982ac057c486994b10d234d5e451" target="_top" xlink:title=" ">
<polygon fill="white" stroke="#666666" points="749.5,-77.15 672,-77.15 672,-57.9 749.5,-57.9 749.5,-77.15"/>
<text text-anchor="middle" x="710.75" y="-63.65" font-family="Helvetica,sans-Serif" font-size="10.00">qh_postmerge</text>
</a>
</g>
</g>
<!-- Node38&#45;&gt;Node39 -->
<g id="edge46_Node000038_Node000039" class="edge">
<title>Node38&#45;&gt;Node39</title>
<g id="a_edge46_Node000038_Node000039"><a xlink:title=" ">
<path fill="none" stroke="#63b8ff" d="M780.81,-67.53C770.51,-67.53 759.8,-67.53 749.99,-67.53"/>
<polygon fill="#63b8ff" stroke="#63b8ff" points="780.78,-71.03 790.78,-67.53 780.78,-64.03 780.78,-71.03"/>
</a>
</g>
</g>
<!-- Node38&#45;&gt;Node40 -->
<g id="edge47_Node000038_Node000040" class="edge">
<title>Node38&#45;&gt;Node40</title>
<g id="a_edge47_Node000038_Node000040"><a xlink:title=" ">
<path fill="none" stroke="#63b8ff" d="M788.03,-54.25C773.6,-49.76 757.73,-44.83 744.23,-40.63"/>
<polygon fill="#63b8ff" stroke="#63b8ff" points="786.64,-57.79 797.23,-57.42 788.72,-51.11 786.64,-57.79"/>
</a>
</g>
</g>
<!-- Node41&#45;&gt;Node39 -->
<g id="edge50_Node000041_Node000039" class="edge">
<title>Node41&#45;&gt;Node39</title>
<g id="a_edge50_Node000041_Node000039"><a xlink:title=" ">
<path fill="none" stroke="#63b8ff" d="M788.03,-43.81C773.6,-48.3 757.73,-53.23 744.23,-57.43"/>
<polygon fill="#63b8ff" stroke="#63b8ff" points="788.72,-46.95 797.23,-40.64 786.64,-40.27 788.72,-46.95"/>
</a>
</g>
</g>
<!-- Node41&#45;&gt;Node40 -->
<g id="edge51_Node000041_Node000040" class="edge">
<title>Node41&#45;&gt;Node40</title>
<g id="a_edge51_Node000041_Node000040"><a xlink:title=" ">
<path fill="none" stroke="#63b8ff" d="M774.31,-30.53C765.05,-30.53 755.69,-30.53 747.13,-30.53"/>
<polygon fill="#63b8ff" stroke="#63b8ff" points="774.08,-34.03 784.08,-30.53 774.08,-27.03 774.08,-34.03"/>
</a>
</g>
</g>
<!-- Node43&#45;&gt;Node3 -->
<g id="edge58_Node000043_Node000003" class="edge">
<title>Node43&#45;&gt;Node3</title>
<g id="a_edge58_Node000043_Node000003"><a xlink:title=" ">
<path fill="none" stroke="#63b8ff" d="M932.75,-121.74C879.54,-150.63 767.52,-211.38 749.5,-220.53 744.32,-223.16 738.69,-225.9 733.4,-228.43"/>
<polygon fill="#63b8ff" stroke="#63b8ff" points="934.14,-124.42 941.26,-116.58 930.8,-118.27 934.14,-124.42"/>
</a>
</g>
</g>
<!-- Node43&#45;&gt;Node37 -->
<g id="edge56_Node000043_Node000037" class="edge">
<title>Node43&#45;&gt;Node37</title>
<g id="a_edge56_Node000043_Node000037"><a xlink:title=" ">
<path fill="none" stroke="#63b8ff" d="M941.38,-123.78C914.22,-147.97 865.71,-191.18 843.9,-210.6"/>
<polygon fill="#63b8ff" stroke="#63b8ff" points="943.25,-126.91 948.39,-117.65 938.6,-121.68 943.25,-126.91"/>
</a>
</g>
</g>
<!-- Node43&#45;&gt;Node38 -->
<g id="edge57_Node000043_Node000038" class="edge">
<title>Node43&#45;&gt;Node38</title>
<g id="a_edge57_Node000043_Node000038"><a xlink:title=" ">
<path fill="none" stroke="#63b8ff" d="M917.55,-93.37C900.58,-88.2 881.41,-82.36 865.6,-77.54"/>
<polygon fill="#63b8ff" stroke="#63b8ff" points="916.2,-96.92 926.79,-96.49 918.24,-90.22 916.2,-96.92"/>
</a>
</g>
</g>
<!-- Node43&#45;&gt;Node39 -->
<g id="edge59_Node000043_Node000039" class="edge">
<title>Node43&#45;&gt;Node39</title>
<g id="a_edge59_Node000043_Node000039"><a xlink:title=" ">
<path fill="none" stroke="#63b8ff" d="M902.86,-101.95C868.57,-98.74 824.36,-93.72 785.5,-86.53 772.76,-84.17 758.96,-80.84 746.79,-77.62"/>
<polygon fill="#63b8ff" stroke="#63b8ff" points="902.35,-105.51 912.63,-102.93 902.99,-98.54 902.35,-105.51"/>
</a>
</g>
</g>
<!-- Node44&#45;&gt;Node37 -->
<g id="edge61_Node000044_Node000037" class="edge">
<title>Node44&#45;&gt;Node37</title>
<g id="a_edge61_Node000044_Node000037"><a xlink:title=" ">
<path fill="none" stroke="#63b8ff" d="M1045.61,-251.38C1007.21,-246.98 957.78,-240.96 914,-234.53 900.12,-232.49 884.96,-229.96 871.54,-227.61"/>
<polygon fill="#63b8ff" stroke="#63b8ff" points="1044.8,-254.93 1055.13,-252.58 1045.59,-247.97 1044.8,-254.93"/>
</a>
</g>
</g>
</g>
</svg>

<g id="navigator" transform="translate(0 0)" fill="#404254">
  <rect fill="#f2f5e9" fill-opacity="0.5" stroke="#606060" stroke-width=".5" x="0" y="0" width="60" height="60"/>
  <use id="zoomplus" xlink:href="#zoomPlus" x="17" y="9" onmousedown="handleZoom(evt,'in')"/>
  <use id="zoomminus" xlink:href="#zoomMin" x="42" y="9" onmousedown="handleZoom(evt,'out')"/>
  <use id="reset" xlink:href="#resetDef" x="30" y="36" onmousedown="handleReset()"/>
   <use id="arrowup" xlink:href="#arrowUp" x="0" y="0" onmousedown="handlePan(0,-1)"/>
  <use id="arrowright" xlink:href="#arrowRight" x="0" y="0" onmousedown="handlePan(1,0)"/>
  <use id="arrowdown" xlink:href="#arrowDown" x="0" y="0" onmousedown="handlePan(0,1)"/>
  <use id="arrowleft" xlink:href="#arrowLeft" x="0" y="0" onmousedown="handlePan(-1,0)"/>
</g>
<svg viewBox="0 0 15 15" width="100%" height="30px" preserveAspectRatio="xMaxYMin meet">
 <g id="arrow_out" transform="scale(0.3 0.3)">
  <a xlink:href="merge_8h_a97a239170109dc453b9955e799889079_icgraph_org.svg" target="_base">
   <rect id="button" ry="5" rx="5" y="6" x="6" height="38" width="38"
        fill="#f2f5e9" fill-opacity="0.5" stroke="#606060" stroke-width="1.0"/>
   <path id="arrow"
     d="M 11.500037,31.436501 C 11.940474,20.09759 22.043105,11.32322 32.158766,21.979434 L 37.068811,17.246167 C 37.068811,17.246167 37.088388,32 37.088388,32 L 22.160133,31.978069 C 22.160133,31.978069 26.997745,27.140456 26.997745,27.140456 C 18.528582,18.264221 13.291696,25.230495 11.500037,31.436501 z"
     style="fill:#404040;"/>
  </a>
 </g>
</svg>

<style type='text/css'>
<![CDATA[
[data-mouse-over-selected='false'] { opacity: 0.7; }
[data-mouse-over-selected='true']  { opacity: 1.0; }
]]>
</style>
<script type="application/ecmascript"><![CDATA[
document.addEventListener('DOMContentLoaded', (event) => {
  highlightEdges();
  highlightAdjacentNodes();
});
]]></script>
</svg>
