<?xml version="1.0" encoding="UTF-8" standalone="no"?>
<!DOCTYPE svg PUBLIC "-//W3C//DTD SVG 1.1//EN"
 "http://www.w3.org/Graphics/SVG/1.1/DTD/svg11.dtd">
<!-- Generated by graphviz version 8.1.0 (20230707.0739)
 -->
<!-- Title: Slic3r::WipeTower::never_skip_tag Pages: 1 -->
<!--zoomable 223 -->

<svg id="main" version="1.1" xmlns="http://www.w3.org/2000/svg" xmlns:xlink="http://www.w3.org/1999/xlink" xml:space="preserve" onload="init(evt)">
<style type="text/css"><![CDATA[
.node, .edge {opacity: 0.7;}
.node.selected, .edge.selected {opacity: 1;}
.edge:hover path { stroke: red; }
.edge:hover polygon { stroke: red; fill: red; }
]]></style>

<defs>
  <circle id="rim" cx="0" cy="0" r="7"/>
  <circle id="rim2" cx="0" cy="0" r="3.5"/>
  <g id="zoomPlus">
    <use xlink:href="#rim" fill="#404040"><set attributeName="fill" to="#808080" begin="zoomplus.mouseover" end="zoomplus.mouseout"/></use>
    <path d="M-4,0h8M0,-4v8" fill="none" stroke="white" stroke-width="1.5" pointer-events="none"/>
  </g>
  <g id="zoomMin">
    <use xlink:href="#rim" fill="#404040"><set attributeName="fill" to="#808080" begin="zoomminus.mouseover" end="zoomminus.mouseout"/></use>
    <path d="M-4,0h8" fill="none" stroke="white" stroke-width="1.5" pointer-events="none"/>
  </g>
  <g id="arrowUp" transform="translate(30 24)">
    <use xlink:href="#rim"/>
    <path pointer-events="none" fill="none" stroke="white" stroke-width="1.5" d="M0,-3.0v7 M-2.5,-0.5L0,-3.0L2.5,-0.5"/>
  </g>
  <g id="arrowRight" transform="rotate(90) translate(36 -43)">
    <use xlink:href="#rim"/>
    <path pointer-events="none" fill="none" stroke="white" stroke-width="1.5" d="M0,-3.0v7 M-2.5,-0.5L0,-3.0L2.5,-0.5"/>
  </g>
  <g id="arrowDown" transform="rotate(180) translate(-30 -48)">
    <use xlink:href="#rim"/>
    <path pointer-events="none" fill="none" stroke="white" stroke-width="1.5" d="M0,-3.0v7 M-2.5,-0.5L0,-3.0L2.5,-0.5"/>
  </g>
  <g id="arrowLeft" transform="rotate(270) translate(-36 17)">
    <use xlink:href="#rim"/>
    <path pointer-events="none" fill="none" stroke="white" stroke-width="1.5" d="M0,-3.0v7 M-2.5,-0.5L0,-3.0L2.5,-0.5"/>
  </g>
  <g id="resetDef">
    <use xlink:href="#rim2" fill="#404040"><set attributeName="fill" to="#808080" begin="reset.mouseover" end="reset.mouseout"/></use>
  </g>
</defs>
<script type="application/ecmascript">
var viewWidth = 807;
var viewHeight = 223;
var sectionId = 'dynsection-20';
</script>
<script type="application/ecmascript" xlink:href="../../svg.min.js"/>
<svg id="graph" class="graph">
<g id="viewport">
<title>Slic3r::WipeTower::never_skip_tag</title>
<!-- Node1 -->
<g id="Node000001" class="node">
<title>Node1</title>
<g id="a_Node000001"><a xlink:title=" ">
<polygon fill="#999999" stroke="#666666" points="799.25,-118.5 697.75,-118.5 697.75,-88 799.25,-88 799.25,-118.5"/>
<text text-anchor="start" x="705.75" y="-105" font-family="Helvetica,sans-Serif" font-size="10.00">Slic3r::WipeTower::</text>
<text text-anchor="middle" x="748.5" y="-93.75" font-family="Helvetica,sans-Serif" font-size="10.00">never_skip_tag</text>
</a>
</g>
</g>
<!-- Node2 -->
<g id="Node000002" class="node">
<title>Node2</title>
<g id="a_Node000002"><a xlink:href="../../d0/d4c/class_slic3r_1_1_wipe_tower_integration.html#a771e997a5fe634f6e4576978337086fd" target="_top" xlink:title=" ">
<polygon fill="white" stroke="#666666" points="661.75,-154.5 492,-154.5 492,-124 661.75,-124 661.75,-154.5"/>
<text text-anchor="start" x="500" y="-141" font-family="Helvetica,sans-Serif" font-size="10.00">Slic3r::WipeTowerIntegration</text>
<text text-anchor="middle" x="576.88" y="-129.75" font-family="Helvetica,sans-Serif" font-size="10.00">::post_process_wipe_tower_moves</text>
</a>
</g>
</g>
<!-- Node1&#45;&gt;Node2 -->
<g id="edge1_Node000001_Node000002" class="edge">
<title>Node1&#45;&gt;Node2</title>
<g id="a_edge1_Node000001_Node000002"><a xlink:title=" ">
<path fill="none" stroke="#63b8ff" d="M686.91,-116.11C675.6,-118.51 663.67,-121.04 652.01,-123.52"/>
<polygon fill="#63b8ff" stroke="#63b8ff" points="687.47,-119.36 696.52,-113.86 686.02,-112.51 687.47,-119.36"/>
</a>
</g>
</g>
<!-- Node7 -->
<g id="Node000007" class="node">
<title>Node7</title>
<g id="a_Node000007"><a xlink:href="../../db/d2e/class_slic3r_1_1_wipe_tower.html#a37f6b2c16f87ff7e2e7a6c9fe70590f8" target="_top" xlink:title=" ">
<polygon fill="white" stroke="#666666" points="628,-94.5 525.75,-94.5 525.75,-64 628,-64 628,-94.5"/>
<text text-anchor="start" x="533.75" y="-81" font-family="Helvetica,sans-Serif" font-size="10.00">Slic3r::WipeTower::</text>
<text text-anchor="middle" x="576.88" y="-69.75" font-family="Helvetica,sans-Serif" font-size="10.00">toolchange_Change</text>
</a>
</g>
</g>
<!-- Node1&#45;&gt;Node7 -->
<g id="edge6_Node000001_Node000007" class="edge">
<title>Node1&#45;&gt;Node7</title>
<g id="a_edge6_Node000001_Node000007"><a xlink:title=" ">
<path fill="none" stroke="#63b8ff" d="M686.8,-94.66C667.66,-91.95 646.73,-88.99 628.37,-86.39"/>
<polygon fill="#63b8ff" stroke="#63b8ff" points="686.13,-98.24 696.52,-96.18 687.11,-91.31 686.13,-98.24"/>
</a>
</g>
</g>
<!-- Node3 -->
<g id="Node000003" class="node">
<title>Node3</title>
<g id="a_Node000003"><a xlink:href="../../d0/d4c/class_slic3r_1_1_wipe_tower_integration.html#a77890da960412cea8c288fe74a2d28cc" target="_top" xlink:title=" ">
<polygon fill="white" stroke="#666666" points="456,-159.5 314.75,-159.5 314.75,-129 456,-129 456,-159.5"/>
<text text-anchor="start" x="322.75" y="-146" font-family="Helvetica,sans-Serif" font-size="10.00">Slic3r::WipeTowerIntegration</text>
<text text-anchor="middle" x="385.38" y="-134.75" font-family="Helvetica,sans-Serif" font-size="10.00">::append_tcr</text>
</a>
</g>
</g>
<!-- Node2&#45;&gt;Node3 -->
<g id="edge2_Node000002_Node000003" class="edge">
<title>Node2&#45;&gt;Node3</title>
<g id="a_edge2_Node000002_Node000003"><a xlink:title=" ">
<path fill="none" stroke="#63b8ff" d="M480.86,-141.76C472.64,-141.97 464.42,-142.19 456.44,-142.4"/>
<polygon fill="#63b8ff" stroke="#63b8ff" points="480.75,-145.23 490.65,-141.47 480.57,-138.24 480.75,-145.23"/>
</a>
</g>
</g>
<!-- Node4 -->
<g id="Node000004" class="node">
<title>Node4</title>
<g id="a_Node000004"><a xlink:href="../../d0/d4c/class_slic3r_1_1_wipe_tower_integration.html#ad176401561c0de48be24cc98ab44b4bf" target="_top" xlink:title=" ">
<polygon fill="white" stroke="#666666" points="278.75,-214.5 137.5,-214.5 137.5,-184 278.75,-184 278.75,-214.5"/>
<text text-anchor="start" x="145.5" y="-201" font-family="Helvetica,sans-Serif" font-size="10.00">Slic3r::WipeTowerIntegration</text>
<text text-anchor="middle" x="208.12" y="-189.75" font-family="Helvetica,sans-Serif" font-size="10.00">::finalize</text>
</a>
</g>
</g>
<!-- Node3&#45;&gt;Node4 -->
<g id="edge3_Node000003_Node000004" class="edge">
<title>Node3&#45;&gt;Node4</title>
<g id="a_edge3_Node000003_Node000004"><a xlink:title=" ">
<path fill="none" stroke="#63b8ff" d="M324.14,-163.15C303.01,-169.78 279.52,-177.16 259.3,-183.5"/>
<polygon fill="#63b8ff" stroke="#63b8ff" points="325.13,-166.2 333.62,-159.86 323.03,-159.52 325.13,-166.2"/>
</a>
</g>
</g>
<!-- Node5 -->
<g id="Node000005" class="node">
<title>Node5</title>
<g id="a_Node000005"><a xlink:href="../../d0/d4c/class_slic3r_1_1_wipe_tower_integration.html#a7497d8d42cdcc1e6eab63612993aee92" target="_top" xlink:title=" ">
<polygon fill="white" stroke="#666666" points="278.75,-165.5 137.5,-165.5 137.5,-135 278.75,-135 278.75,-165.5"/>
<text text-anchor="start" x="145.5" y="-152" font-family="Helvetica,sans-Serif" font-size="10.00">Slic3r::WipeTowerIntegration</text>
<text text-anchor="middle" x="208.12" y="-140.75" font-family="Helvetica,sans-Serif" font-size="10.00">::prime</text>
</a>
</g>
</g>
<!-- Node3&#45;&gt;Node5 -->
<g id="edge4_Node000003_Node000005" class="edge">
<title>Node3&#45;&gt;Node5</title>
<g id="a_edge4_Node000003_Node000005"><a xlink:title=" ">
<path fill="none" stroke="#63b8ff" d="M303.63,-147.01C295.41,-147.3 287.12,-147.58 279.03,-147.86"/>
<polygon fill="#63b8ff" stroke="#63b8ff" points="303.48,-150.49 313.36,-146.65 303.24,-143.49 303.48,-150.49"/>
</a>
</g>
</g>
<!-- Node6 -->
<g id="Node000006" class="node">
<title>Node6</title>
<g id="a_Node000006"><a xlink:href="../../d0/d4c/class_slic3r_1_1_wipe_tower_integration.html#a756231fc8c765bc08432e520fca5f49c" target="_top" xlink:title=" ">
<polygon fill="white" stroke="#666666" points="278.75,-116.5 137.5,-116.5 137.5,-86 278.75,-86 278.75,-116.5"/>
<text text-anchor="start" x="145.5" y="-103" font-family="Helvetica,sans-Serif" font-size="10.00">Slic3r::WipeTowerIntegration</text>
<text text-anchor="middle" x="208.12" y="-91.75" font-family="Helvetica,sans-Serif" font-size="10.00">::tool_change</text>
</a>
</g>
</g>
<!-- Node3&#45;&gt;Node6 -->
<g id="edge5_Node000003_Node000006" class="edge">
<title>Node3&#45;&gt;Node6</title>
<g id="a_edge5_Node000003_Node000006"><a xlink:title=" ">
<path fill="none" stroke="#63b8ff" d="M309.96,-125.99C297.71,-122.99 285.1,-119.89 273.14,-116.96"/>
<polygon fill="#63b8ff" stroke="#63b8ff" points="309.06,-129.62 319.61,-128.6 310.73,-122.82 309.06,-129.62"/>
</a>
</g>
</g>
<!-- Node8 -->
<g id="Node000008" class="node">
<title>Node8</title>
<g id="a_Node000008"><a xlink:href="../../db/d2e/class_slic3r_1_1_wipe_tower.html#a02c8c689fb5107ac549a295158d96a5d" target="_top" xlink:title=" ">
<polygon fill="white" stroke="#666666" points="436.12,-73.5 334.62,-73.5 334.62,-43 436.12,-43 436.12,-73.5"/>
<text text-anchor="start" x="342.62" y="-60" font-family="Helvetica,sans-Serif" font-size="10.00">Slic3r::WipeTower::</text>
<text text-anchor="middle" x="385.38" y="-48.75" font-family="Helvetica,sans-Serif" font-size="10.00">tool_change</text>
</a>
</g>
</g>
<!-- Node7&#45;&gt;Node8 -->
<g id="edge7_Node000007_Node000008" class="edge">
<title>Node7&#45;&gt;Node8</title>
<g id="a_edge7_Node000007_Node000008"><a xlink:title=" ">
<path fill="none" stroke="#63b8ff" d="M514.99,-72.5C489.67,-69.7 460.63,-66.48 436.57,-63.81"/>
<polygon fill="#63b8ff" stroke="#63b8ff" points="514.27,-76.05 524.59,-73.68 515.04,-69.1 514.27,-76.05"/>
</a>
</g>
</g>
<!-- Node9 -->
<g id="Node000009" class="node">
<title>Node9</title>
<g id="a_Node000009"><a xlink:href="../../db/d2e/class_slic3r_1_1_wipe_tower.html#aaba2eb3a4147fd11a28c045198266777" target="_top" xlink:title=" ">
<polygon fill="white" stroke="#666666" points="101.5,-51.5 0,-51.5 0,-21 101.5,-21 101.5,-51.5"/>
<text text-anchor="start" x="8" y="-38" font-family="Helvetica,sans-Serif" font-size="10.00">Slic3r::WipeTower::</text>
<text text-anchor="middle" x="50.75" y="-26.75" font-family="Helvetica,sans-Serif" font-size="10.00">generate</text>
</a>
</g>
</g>
<!-- Node8&#45;&gt;Node9 -->
<g id="edge8_Node000008_Node000009" class="edge">
<title>Node8&#45;&gt;Node9</title>
<g id="a_edge8_Node000008_Node000009"><a xlink:title=" ">
<path fill="none" stroke="#63b8ff" d="M323.53,-54.23C259.86,-50.01 161.07,-43.48 101.77,-39.56"/>
<polygon fill="#63b8ff" stroke="#63b8ff" points="323.01,-57.76 333.22,-54.93 323.47,-50.78 323.01,-57.76"/>
</a>
</g>
</g>
<!-- Node10 -->
<g id="Node000010" class="node">
<title>Node10</title>
<g id="a_Node000010"><a xlink:href="../../db/d2e/class_slic3r_1_1_wipe_tower.html#a38118f226bd66ac4a077c974f92230e6" target="_top" xlink:title=" ">
<polygon fill="white" stroke="#666666" points="258.88,-30.5 157.38,-30.5 157.38,0 258.88,0 258.88,-30.5"/>
<text text-anchor="start" x="165.38" y="-17" font-family="Helvetica,sans-Serif" font-size="10.00">Slic3r::WipeTower::</text>
<text text-anchor="middle" x="208.12" y="-5.75" font-family="Helvetica,sans-Serif" font-size="10.00">save_on_last_wipe</text>
</a>
</g>
</g>
<!-- Node8&#45;&gt;Node10 -->
<g id="edge9_Node000008_Node000010" class="edge">
<title>Node8&#45;&gt;Node10</title>
<g id="a_edge9_Node000008_Node000010"><a xlink:title=" ">
<path fill="none" stroke="#63b8ff" d="M323.73,-43.37C302.73,-38.22 279.43,-32.5 259.35,-27.57"/>
<polygon fill="#63b8ff" stroke="#63b8ff" points="322.61,-46.94 333.16,-45.93 324.28,-40.15 322.61,-46.94"/>
</a>
</g>
</g>
<!-- Node10&#45;&gt;Node9 -->
<g id="edge10_Node000010_Node000009" class="edge">
<title>Node10&#45;&gt;Node9</title>
<g id="a_edge10_Node000010_Node000009"><a xlink:title=" ">
<path fill="none" stroke="#63b8ff" d="M146.55,-23.44C131.78,-25.43 116.16,-27.54 101.94,-29.47"/>
<polygon fill="#63b8ff" stroke="#63b8ff" points="146.67,-26.82 156.11,-22.01 145.73,-19.88 146.67,-26.82"/>
</a>
</g>
</g>
</g>
</svg>

<g id="navigator" transform="translate(0 0)" fill="#404254">
  <rect fill="#f2f5e9" fill-opacity="0.5" stroke="#606060" stroke-width=".5" x="0" y="0" width="60" height="60"/>
  <use id="zoomplus" xlink:href="#zoomPlus" x="17" y="9" onmousedown="handleZoom(evt,'in')"/>
  <use id="zoomminus" xlink:href="#zoomMin" x="42" y="9" onmousedown="handleZoom(evt,'out')"/>
  <use id="reset" xlink:href="#resetDef" x="30" y="36" onmousedown="handleReset()"/>
   <use id="arrowup" xlink:href="#arrowUp" x="0" y="0" onmousedown="handlePan(0,-1)"/>
  <use id="arrowright" xlink:href="#arrowRight" x="0" y="0" onmousedown="handlePan(1,0)"/>
  <use id="arrowdown" xlink:href="#arrowDown" x="0" y="0" onmousedown="handlePan(0,1)"/>
  <use id="arrowleft" xlink:href="#arrowLeft" x="0" y="0" onmousedown="handlePan(-1,0)"/>
</g>
<svg viewBox="0 0 15 15" width="100%" height="30px" preserveAspectRatio="xMaxYMin meet">
 <g id="arrow_out" transform="scale(0.3 0.3)">
  <a xlink:href="class_slic3r_1_1_wipe_tower_a984bd17e162cfaf19285cadffe5d563f_icgraph_org.svg" target="_base">
   <rect id="button" ry="5" rx="5" y="6" x="6" height="38" width="38"
        fill="#f2f5e9" fill-opacity="0.5" stroke="#606060" stroke-width="1.0"/>
   <path id="arrow"
     d="M 11.500037,31.436501 C 11.940474,20.09759 22.043105,11.32322 32.158766,21.979434 L 37.068811,17.246167 C 37.068811,17.246167 37.088388,32 37.088388,32 L 22.160133,31.978069 C 22.160133,31.978069 26.997745,27.140456 26.997745,27.140456 C 18.528582,18.264221 13.291696,25.230495 11.500037,31.436501 z"
     style="fill:#404040;"/>
  </a>
 </g>
</svg>

<style type='text/css'>
<![CDATA[
[data-mouse-over-selected='false'] { opacity: 0.7; }
[data-mouse-over-selected='true']  { opacity: 1.0; }
]]>
</style>
<script type="application/ecmascript"><![CDATA[
document.addEventListener('DOMContentLoaded', (event) => {
  highlightEdges();
  highlightAdjacentNodes();
});
]]></script>
</svg>
