<?xml version="1.0" encoding="UTF-8" standalone="no"?>
<!DOCTYPE svg PUBLIC "-//W3C//DTD SVG 1.1//EN"
 "http://www.w3.org/Graphics/SVG/1.1/DTD/svg11.dtd">
<!-- Generated by graphviz version 8.1.0 (20230707.0739)
 -->
<!-- Title: Slic3r::meshsplit_detail::NeighborVisitor::visit Pages: 1 -->
<svg width="1054pt" height="720pt"
 viewBox="0.00 0.00 1053.75 719.88" xmlns="http://www.w3.org/2000/svg" xmlns:xlink="http://www.w3.org/1999/xlink">
<g id="graph0" class="graph" transform="scale(1 1) rotate(0) translate(4 715.88)">
<title>Slic3r::meshsplit_detail::NeighborVisitor::visit</title>
<!-- Node1 -->
<g id="Node000001" class="node">
<title>Node1</title>
<g id="a_Node000001"><a xlink:title=" ">
<polygon fill="#999999" stroke="#666666" points="1045.75,-410.88 928.5,-410.88 928.5,-380.38 1045.75,-380.38 1045.75,-410.88"/>
<text text-anchor="start" x="936.5" y="-397.38" font-family="Helvetica,sans-Serif" font-size="10.00">Slic3r::meshsplit_detail</text>
<text text-anchor="middle" x="987.12" y="-386.12" font-family="Helvetica,sans-Serif" font-size="10.00">::NeighborVisitor::visit</text>
</a>
</g>
</g>
<!-- Node2 -->
<g id="Node000002" class="node">
<title>Node2</title>
<g id="a_Node000002"><a xlink:href="../../de/db8/namespace_slic3r.html#a8e2420d2247fe58713decdacb86d0723" target="_top" xlink:title=" ">
<polygon fill="white" stroke="#666666" points="892.5,-595.25 778.25,-595.25 778.25,-576 892.5,-576 892.5,-595.25"/>
<text text-anchor="middle" x="835.38" y="-581.75" font-family="Helvetica,sans-Serif" font-size="10.00">Slic3r::its_is_splittable</text>
</a>
</g>
</g>
<!-- Node1&#45;&gt;Node2 -->
<g id="edge1_Node000001_Node000002" class="edge">
<title>Node1&#45;&gt;Node2</title>
<g id="a_edge1_Node000001_Node000002"><a xlink:title=" ">
<path fill="none" stroke="#63b8ff" d="M967.16,-419.69C934.04,-461.71 867.01,-546.75 844.19,-575.71"/>
<polygon fill="#63b8ff" stroke="#63b8ff" points="970.43,-422.19 973.87,-412.17 964.93,-417.86 970.43,-422.19"/>
</a>
</g>
</g>
<!-- Node11 -->
<g id="Node000011" class="node">
<title>Node11</title>
<g id="a_Node000011"><a xlink:href="../../de/db8/namespace_slic3r.html#aba9274d7c9abaff969a2435496e01871" target="_top" xlink:title=" ">
<polygon fill="white" stroke="#666666" points="882.75,-166.88 788,-166.88 788,-136.38 882.75,-136.38 882.75,-166.88"/>
<text text-anchor="start" x="796" y="-153.38" font-family="Helvetica,sans-Serif" font-size="10.00">Slic3r::its_number</text>
<text text-anchor="middle" x="835.38" y="-142.12" font-family="Helvetica,sans-Serif" font-size="10.00">_of_patches</text>
</a>
</g>
</g>
<!-- Node1&#45;&gt;Node11 -->
<g id="edge10_Node000001_Node000011" class="edge">
<title>Node1&#45;&gt;Node11</title>
<g id="a_edge10_Node000001_Node000011"><a xlink:title=" ">
<path fill="none" stroke="#63b8ff" d="M970.9,-370.82C940.1,-320.63 871.16,-208.3 845.89,-167.13"/>
<polygon fill="#63b8ff" stroke="#63b8ff" points="968.32,-372.3 976.53,-378.99 974.28,-368.64 968.32,-372.3"/>
</a>
</g>
</g>
<!-- Node77 -->
<g id="Node000077" class="node">
<title>Node77</title>
<g id="a_Node000077"><a xlink:href="../../de/db8/namespace_slic3r.html#a5803db845ba3a058d76c5923c534b8eb" target="_top" xlink:title=" ">
<polygon fill="white" stroke="#666666" points="875.62,-405.25 795.12,-405.25 795.12,-386 875.62,-386 875.62,-405.25"/>
<text text-anchor="middle" x="835.38" y="-391.75" font-family="Helvetica,sans-Serif" font-size="10.00">Slic3r::its_split</text>
</a>
</g>
</g>
<!-- Node1&#45;&gt;Node77 -->
<g id="edge26_Node000001_Node000077" class="edge">
<title>Node1&#45;&gt;Node77</title>
<g id="a_edge26_Node000001_Node000077"><a xlink:title=" ">
<path fill="none" stroke="#63b8ff" d="M917.47,-395.62C903.28,-395.62 888.79,-395.62 876.05,-395.62"/>
<polygon fill="#63b8ff" stroke="#63b8ff" points="917.23,-399.13 927.23,-395.62 917.23,-392.13 917.23,-399.13"/>
</a>
</g>
</g>
<!-- Node3 -->
<g id="Node000003" class="node">
<title>Node3</title>
<g id="a_Node000003"><a xlink:href="../../d0/d02/class_slic3r_1_1_model_volume.html#a592487ae122455028314cfdaf346197a" target="_top" xlink:title=" ">
<polygon fill="white" stroke="#666666" points="738.12,-711.88 632.12,-711.88 632.12,-681.38 738.12,-681.38 738.12,-711.88"/>
<text text-anchor="start" x="640.12" y="-698.38" font-family="Helvetica,sans-Serif" font-size="10.00">Slic3r::ModelVolume</text>
<text text-anchor="middle" x="685.12" y="-687.12" font-family="Helvetica,sans-Serif" font-size="10.00">::is_splittable</text>
</a>
</g>
</g>
<!-- Node2&#45;&gt;Node3 -->
<g id="edge2_Node000002_Node000003" class="edge">
<title>Node2&#45;&gt;Node3</title>
<g id="a_edge2_Node000002_Node000003"><a xlink:title=" ">
<path fill="none" stroke="#63b8ff" d="M818.56,-603.57C801.26,-622.39 772.01,-651.91 742.25,-671.62 737.18,-674.98 731.59,-678.08 725.95,-680.88"/>
<polygon fill="#63b8ff" stroke="#63b8ff" points="820.73,-606.29 824.83,-596.52 815.53,-601.6 820.73,-606.29"/>
</a>
</g>
</g>
<!-- Node4 -->
<g id="Node000004" class="node">
<title>Node4</title>
<g id="a_Node000004"><a xlink:href="../../d8/d71/class_slic3r_1_1_triangle_mesh.html#ab66d03dc123858c6efb79382f44a9bff" target="_top" xlink:title=" ">
<polygon fill="white" stroke="#666666" points="737.75,-662.88 632.5,-662.88 632.5,-632.38 737.75,-632.38 737.75,-662.88"/>
<text text-anchor="start" x="640.5" y="-649.38" font-family="Helvetica,sans-Serif" font-size="10.00">Slic3r::TriangleMesh</text>
<text text-anchor="middle" x="685.12" y="-638.12" font-family="Helvetica,sans-Serif" font-size="10.00">::is_splittable</text>
</a>
</g>
</g>
<!-- Node2&#45;&gt;Node4 -->
<g id="edge3_Node000002_Node000004" class="edge">
<title>Node2&#45;&gt;Node4</title>
<g id="a_edge3_Node000002_Node000004"><a xlink:title=" ">
<path fill="none" stroke="#63b8ff" d="M800.26,-599.89C777.36,-609.47 747.18,-622.09 723.6,-631.95"/>
<polygon fill="#63b8ff" stroke="#63b8ff" points="801.35,-602.81 809.23,-595.72 798.65,-596.35 801.35,-602.81"/>
</a>
</g>
</g>
<!-- Node5 -->
<g id="Node000005" class="node">
<title>Node5</title>
<g id="a_Node000005"><a xlink:href="../../de/db8/namespace_slic3r.html#ab36ec61467e7878b692e8d70f2e0b606" target="_top" xlink:title=" ">
<polygon fill="white" stroke="#666666" points="742.25,-614.25 628,-614.25 628,-595 742.25,-595 742.25,-614.25"/>
<text text-anchor="middle" x="685.12" y="-600.75" font-family="Helvetica,sans-Serif" font-size="10.00">Slic3r::its_is_splittable</text>
</a>
</g>
</g>
<!-- Node2&#45;&gt;Node5 -->
<g id="edge4_Node000002_Node000005" class="edge">
<title>Node2&#45;&gt;Node5</title>
<g id="a_edge4_Node000002_Node000005"><a xlink:title=" ">
<path fill="none" stroke="#63b8ff" d="M767.15,-594.24C758.89,-595.3 750.51,-596.37 742.44,-597.41"/>
<polygon fill="#63b8ff" stroke="#63b8ff" points="767.43,-597.61 776.91,-592.86 766.54,-590.66 767.43,-597.61"/>
</a>
</g>
</g>
<!-- Node6 -->
<g id="Node000006" class="node">
<title>Node6</title>
<g id="a_Node000006"><a xlink:href="../../de/db8/namespace_slic3r.html#a4bbd77f6cc9be4f523df8fc8039fbacc" target="_top" xlink:title=" ">
<polygon fill="white" stroke="#666666" points="742.25,-577.25 628,-577.25 628,-558 742.25,-558 742.25,-577.25"/>
<text text-anchor="middle" x="685.12" y="-563.75" font-family="Helvetica,sans-Serif" font-size="10.00">Slic3r::its_is_splittable</text>
</a>
</g>
</g>
<!-- Node2&#45;&gt;Node6 -->
<g id="edge5_Node000002_Node000006" class="edge">
<title>Node2&#45;&gt;Node6</title>
<g id="a_edge5_Node000002_Node000006"><a xlink:title=" ">
<path fill="none" stroke="#63b8ff" d="M767.15,-577.46C758.89,-576.46 750.51,-575.44 742.44,-574.46"/>
<polygon fill="#63b8ff" stroke="#63b8ff" points="766.56,-581.04 776.91,-578.77 767.4,-574.09 766.56,-581.04"/>
</a>
</g>
</g>
<!-- Node7 -->
<g id="Node000007" class="node">
<title>Node7</title>
<g id="a_Node000007"><a xlink:href="../../d8/d2c/namespace_slic3r_1_1csg.html#a8321febf3d53d40b207f94a289eb38de" target="_top" xlink:title=" ">
<polygon fill="white" stroke="#666666" points="732.5,-539.88 637.75,-539.88 637.75,-509.38 732.5,-509.38 732.5,-539.88"/>
<text text-anchor="start" x="645.75" y="-526.38" font-family="Helvetica,sans-Serif" font-size="10.00">Slic3r::csg::model</text>
<text text-anchor="middle" x="685.12" y="-515.12" font-family="Helvetica,sans-Serif" font-size="10.00">_to_csgmesh</text>
</a>
</g>
</g>
<!-- Node2&#45;&gt;Node7 -->
<g id="edge6_Node000002_Node000007" class="edge">
<title>Node2&#45;&gt;Node7</title>
<g id="a_edge6_Node000002_Node000007"><a xlink:title=" ">
<path fill="none" stroke="#63b8ff" d="M799.72,-571.37C777.11,-562.06 747.57,-549.91 724.29,-540.33"/>
<polygon fill="#63b8ff" stroke="#63b8ff" points="798.31,-574.98 808.89,-575.55 800.98,-568.51 798.31,-574.98"/>
</a>
</g>
</g>
<!-- Node8 -->
<g id="Node000008" class="node">
<title>Node8</title>
<g id="a_Node000008"><a xlink:href="../../d7/d21/class_slic3r_1_1_g_u_i_1_1_plater.html#abebc7f04bc6b8d3ebf5fe04db8ab4309" target="_top" xlink:title=" ">
<polygon fill="white" stroke="#666666" points="579.62,-545.88 478.12,-545.88 478.12,-515.38 579.62,-515.38 579.62,-545.88"/>
<text text-anchor="start" x="486.12" y="-532.38" font-family="Helvetica,sans-Serif" font-size="10.00">Slic3r::GUI::Plater</text>
<text text-anchor="middle" x="528.88" y="-521.12" font-family="Helvetica,sans-Serif" font-size="10.00">::combine_mesh_fff</text>
</a>
</g>
</g>
<!-- Node7&#45;&gt;Node8 -->
<g id="edge7_Node000007_Node000008" class="edge">
<title>Node7&#45;&gt;Node8</title>
<g id="a_edge7_Node000007_Node000008"><a xlink:title=" ">
<path fill="none" stroke="#63b8ff" d="M626.51,-526.87C611.19,-527.46 594.78,-528.1 579.9,-528.68"/>
<polygon fill="#63b8ff" stroke="#63b8ff" points="626.57,-530.33 636.43,-526.44 626.3,-523.33 626.57,-530.33"/>
</a>
</g>
</g>
<!-- Node9 -->
<g id="Node000009" class="node">
<title>Node9</title>
<g id="a_Node000009"><a xlink:href="../../d7/d21/class_slic3r_1_1_g_u_i_1_1_plater.html#a01ee773bb9e8320d8841a0d9b83e5033" target="_top" xlink:title=" ">
<polygon fill="white" stroke="#666666" points="425.25,-545.88 329,-545.88 329,-515.38 425.25,-515.38 425.25,-545.88"/>
<text text-anchor="start" x="337" y="-532.38" font-family="Helvetica,sans-Serif" font-size="10.00">Slic3r::GUI::Plater</text>
<text text-anchor="middle" x="377.12" y="-521.12" font-family="Helvetica,sans-Serif" font-size="10.00">::export_stl</text>
</a>
</g>
</g>
<!-- Node8&#45;&gt;Node9 -->
<g id="edge8_Node000008_Node000009" class="edge">
<title>Node8&#45;&gt;Node9</title>
<g id="a_edge8_Node000008_Node000009"><a xlink:title=" ">
<path fill="none" stroke="#63b8ff" d="M467.13,-530.62C453.34,-530.62 438.89,-530.62 425.74,-530.62"/>
<polygon fill="#63b8ff" stroke="#63b8ff" points="467.01,-534.13 477.01,-530.62 467.01,-527.13 467.01,-534.13"/>
</a>
</g>
</g>
<!-- Node10 -->
<g id="Node000010" class="node">
<title>Node10</title>
<g id="a_Node000010"><a xlink:href="../../de/de3/class_slic3r_1_1_g_u_i_1_1_menu_factory.html#aa08fecbb5bb186719ac6fe324b7f4150" target="_top" xlink:title=" ">
<polygon fill="white" stroke="#666666" points="288.5,-545.88 133.75,-545.88 133.75,-515.38 288.5,-515.38 288.5,-545.88"/>
<text text-anchor="start" x="141.75" y="-532.38" font-family="Helvetica,sans-Serif" font-size="10.00">Slic3r::GUI::MenuFactory</text>
<text text-anchor="middle" x="211.12" y="-521.12" font-family="Helvetica,sans-Serif" font-size="10.00">::append_menu_item_export_stl</text>
</a>
</g>
</g>
<!-- Node9&#45;&gt;Node10 -->
<g id="edge9_Node000009_Node000010" class="edge">
<title>Node9&#45;&gt;Node10</title>
<g id="a_edge9_Node000009_Node000010"><a xlink:title=" ">
<path fill="none" stroke="#63b8ff" d="M317.88,-530.62C308.46,-530.62 298.58,-530.62 288.81,-530.62"/>
<polygon fill="#63b8ff" stroke="#63b8ff" points="317.69,-534.13 327.69,-530.62 317.69,-527.13 317.69,-534.13"/>
</a>
</g>
</g>
<!-- Node12 -->
<g id="Node000012" class="node">
<title>Node12</title>
<g id="a_Node000012"><a xlink:href="../../de/db8/namespace_slic3r.html#a3dbe5962e716392efca04e5e66b8d450" target="_top" xlink:title=" ">
<polygon fill="white" stroke="#666666" points="727.25,-190.88 643,-190.88 643,-160.38 727.25,-160.38 727.25,-190.88"/>
<text text-anchor="start" x="651" y="-177.38" font-family="Helvetica,sans-Serif" font-size="10.00">Slic3r::fill_initial</text>
<text text-anchor="middle" x="685.12" y="-166.12" font-family="Helvetica,sans-Serif" font-size="10.00">_stats</text>
</a>
</g>
</g>
<!-- Node11&#45;&gt;Node12 -->
<g id="edge11_Node000011_Node000012" class="edge">
<title>Node11&#45;&gt;Node12</title>
<g id="a_edge11_Node000011_Node000012"><a xlink:title=" ">
<path fill="none" stroke="#63b8ff" d="M777.19,-160.88C760.62,-163.57 742.84,-166.44 727.44,-168.94"/>
<polygon fill="#63b8ff" stroke="#63b8ff" points="777.56,-164.21 786.87,-159.15 776.44,-157.3 777.56,-164.21"/>
</a>
</g>
</g>
<!-- Node75 -->
<g id="Node000075" class="node">
<title>Node75</title>
<g id="a_Node000075"><a xlink:href="../../de/db8/namespace_slic3r.html#a2ea63270c5efb85a369247b03a73ab9d" target="_top" xlink:title=" ">
<polygon fill="white" stroke="#666666" points="732.5,-141.88 637.75,-141.88 637.75,-111.38 732.5,-111.38 732.5,-141.88"/>
<text text-anchor="start" x="645.75" y="-128.38" font-family="Helvetica,sans-Serif" font-size="10.00">Slic3r::its_number</text>
<text text-anchor="middle" x="685.12" y="-117.12" font-family="Helvetica,sans-Serif" font-size="10.00">_of_patches</text>
</a>
</g>
</g>
<!-- Node11&#45;&gt;Node75 -->
<g id="edge24_Node000011_Node000075" class="edge">
<title>Node11&#45;&gt;Node75</title>
<g id="a_edge24_Node000011_Node000075"><a xlink:title=" ">
<path fill="none" stroke="#63b8ff" d="M777.39,-142.01C762.7,-139.54 747.07,-136.9 732.97,-134.52"/>
<polygon fill="#63b8ff" stroke="#63b8ff" points="776.43,-145.57 786.87,-143.78 777.6,-138.67 776.43,-145.57"/>
</a>
</g>
</g>
<!-- Node76 -->
<g id="Node000076" class="node">
<title>Node76</title>
<g id="a_Node000076"><a xlink:href="../../de/db8/namespace_slic3r.html#a0c598f00b034893f33a41acdb05a6c1e" target="_top" xlink:title=" ">
<polygon fill="white" stroke="#666666" points="732.5,-92.88 637.75,-92.88 637.75,-62.38 732.5,-62.38 732.5,-92.88"/>
<text text-anchor="start" x="645.75" y="-79.38" font-family="Helvetica,sans-Serif" font-size="10.00">Slic3r::its_number</text>
<text text-anchor="middle" x="685.12" y="-68.12" font-family="Helvetica,sans-Serif" font-size="10.00">_of_patches</text>
</a>
</g>
</g>
<!-- Node11&#45;&gt;Node76 -->
<g id="edge25_Node000011_Node000076" class="edge">
<title>Node11&#45;&gt;Node76</title>
<g id="a_edge25_Node000011_Node000076"><a xlink:title=" ">
<path fill="none" stroke="#63b8ff" d="M796.66,-130.8C780.11,-121.86 760.35,-111.46 742.25,-102.62 735.83,-99.49 728.92,-96.29 722.23,-93.26"/>
<polygon fill="#63b8ff" stroke="#63b8ff" points="794.55,-134.18 805.01,-135.88 797.89,-128.03 794.55,-134.18"/>
</a>
</g>
</g>
<!-- Node13 -->
<g id="Node000013" class="node">
<title>Node13</title>
<g id="a_Node000013"><a xlink:href="../../d8/d71/class_slic3r_1_1_triangle_mesh.html#a11ffd4286eccdb5c0a0925a950833170" target="_top" xlink:title=" ">
<polygon fill="white" stroke="#666666" points="581.5,-263.88 476.25,-263.88 476.25,-233.38 581.5,-233.38 581.5,-263.88"/>
<text text-anchor="start" x="484.25" y="-250.38" font-family="Helvetica,sans-Serif" font-size="10.00">Slic3r::TriangleMesh</text>
<text text-anchor="middle" x="528.88" y="-239.12" font-family="Helvetica,sans-Serif" font-size="10.00">::TriangleMesh</text>
</a>
</g>
</g>
<!-- Node12&#45;&gt;Node13 -->
<g id="edge12_Node000012_Node000013" class="edge">
<title>Node12&#45;&gt;Node13</title>
<g id="a_edge12_Node000012_Node000013"><a xlink:title=" ">
<path fill="none" stroke="#63b8ff" d="M646.52,-196.28C629.98,-205.08 610.21,-215.24 592,-223.62 585.14,-226.79 577.75,-229.95 570.56,-232.92"/>
<polygon fill="#63b8ff" stroke="#63b8ff" points="647.69,-199.08 654.85,-191.27 644.38,-192.92 647.69,-199.08"/>
</a>
</g>
</g>
<!-- Node14 -->
<g id="Node000014" class="node">
<title>Node14</title>
<g id="a_Node000014"><a xlink:href="../../d8/d71/class_slic3r_1_1_triangle_mesh.html#a240a46d23e0f1efbbf683d611862b63c" target="_top" xlink:title=" ">
<polygon fill="white" stroke="#666666" points="581.5,-214.88 476.25,-214.88 476.25,-184.38 581.5,-184.38 581.5,-214.88"/>
<text text-anchor="start" x="484.25" y="-201.38" font-family="Helvetica,sans-Serif" font-size="10.00">Slic3r::TriangleMesh</text>
<text text-anchor="middle" x="528.88" y="-190.12" font-family="Helvetica,sans-Serif" font-size="10.00">::TriangleMesh</text>
</a>
</g>
</g>
<!-- Node12&#45;&gt;Node14 -->
<g id="edge13_Node000012_Node000014" class="edge">
<title>Node12&#45;&gt;Node14</title>
<g id="a_edge13_Node000012_Node000014"><a xlink:title=" ">
<path fill="none" stroke="#63b8ff" d="M632.37,-183.68C616.09,-186.21 598.12,-189.01 581.82,-191.54"/>
<polygon fill="#63b8ff" stroke="#63b8ff" points="632.45,-187.05 641.79,-182.06 631.37,-180.14 632.45,-187.05"/>
</a>
</g>
</g>
<!-- Node15 -->
<g id="Node000015" class="node">
<title>Node15</title>
<g id="a_Node000015"><a xlink:href="../../d8/d71/class_slic3r_1_1_triangle_mesh.html#aaa205228f33dd16f59f84a372e1c7f9d" target="_top" xlink:title=" ">
<polygon fill="white" stroke="#666666" points="581.5,-165.88 476.25,-165.88 476.25,-135.38 581.5,-135.38 581.5,-165.88"/>
<text text-anchor="start" x="484.25" y="-152.38" font-family="Helvetica,sans-Serif" font-size="10.00">Slic3r::TriangleMesh</text>
<text text-anchor="middle" x="528.88" y="-141.12" font-family="Helvetica,sans-Serif" font-size="10.00">::TriangleMesh</text>
</a>
</g>
</g>
<!-- Node12&#45;&gt;Node15 -->
<g id="edge14_Node000012_Node000015" class="edge">
<title>Node12&#45;&gt;Node15</title>
<g id="a_edge14_Node000012_Node000015"><a xlink:title=" ">
<path fill="none" stroke="#63b8ff" d="M632.37,-167.24C616.09,-164.6 598.12,-161.69 581.82,-159.04"/>
<polygon fill="#63b8ff" stroke="#63b8ff" points="631.36,-170.78 641.79,-168.93 632.48,-163.87 631.36,-170.78"/>
</a>
</g>
</g>
<!-- Node16 -->
<g id="Node000016" class="node">
<title>Node16</title>
<g id="a_Node000016"><a xlink:href="../../d8/d71/class_slic3r_1_1_triangle_mesh.html#ad57849c02ff8ed66d34c2e0fb0f708f8" target="_top" xlink:title=" ">
<polygon fill="white" stroke="#666666" points="581.5,-116.88 476.25,-116.88 476.25,-86.38 581.5,-86.38 581.5,-116.88"/>
<text text-anchor="start" x="484.25" y="-103.38" font-family="Helvetica,sans-Serif" font-size="10.00">Slic3r::TriangleMesh</text>
<text text-anchor="middle" x="528.88" y="-92.12" font-family="Helvetica,sans-Serif" font-size="10.00">::TriangleMesh</text>
</a>
</g>
</g>
<!-- Node12&#45;&gt;Node16 -->
<g id="edge15_Node000012_Node000016" class="edge">
<title>Node12&#45;&gt;Node16</title>
<g id="a_edge15_Node000012_Node000016"><a xlink:title=" ">
<path fill="none" stroke="#63b8ff" d="M636.84,-155.26C633.82,-153.75 630.85,-152.2 628,-150.62 611.16,-141.35 609.01,-135.6 592,-126.62 585.73,-123.32 578.92,-120.17 572.18,-117.28"/>
<polygon fill="#63b8ff" stroke="#63b8ff" points="635.03,-158.76 645.56,-159.95 638.07,-152.45 635.03,-158.76"/>
</a>
</g>
</g>
<!-- Node17 -->
<g id="Node000017" class="node">
<title>Node17</title>
<g id="a_Node000017"><a xlink:href="../../d8/d71/class_slic3r_1_1_triangle_mesh.html#a8153283d6433fdde1a3b6688e0cacc90" target="_top" xlink:title=" ">
<polygon fill="white" stroke="#666666" points="581.5,-67.88 476.25,-67.88 476.25,-37.38 581.5,-37.38 581.5,-67.88"/>
<text text-anchor="start" x="484.25" y="-54.38" font-family="Helvetica,sans-Serif" font-size="10.00">Slic3r::TriangleMesh</text>
<text text-anchor="middle" x="528.88" y="-43.12" font-family="Helvetica,sans-Serif" font-size="10.00">::from_stl</text>
</a>
</g>
</g>
<!-- Node12&#45;&gt;Node17 -->
<g id="edge16_Node000012_Node000017" class="edge">
<title>Node12&#45;&gt;Node17</title>
<g id="a_edge16_Node000012_Node000017"><a xlink:title=" ">
<path fill="none" stroke="#63b8ff" d="M633.61,-155.37C631.63,-153.89 629.75,-152.31 628,-150.62 601.93,-125.55 618.53,-102.22 592,-77.62 588.16,-74.07 583.76,-70.99 579.1,-68.33"/>
<polygon fill="#63b8ff" stroke="#63b8ff" points="631.46,-158.8 641.77,-161.27 635.26,-152.91 631.46,-158.8"/>
</a>
</g>
</g>
<!-- Node18 -->
<g id="Node000018" class="node">
<title>Node18</title>
<g id="a_Node000018"><a xlink:href="../../de/db8/namespace_slic3r.html#a1f39c4ce4d1d58c8cc8d9a494b173383" target="_top" xlink:title=" ">
<polygon fill="white" stroke="#666666" points="254,-102.25 168.25,-102.25 168.25,-83 254,-83 254,-102.25"/>
<text text-anchor="middle" x="211.12" y="-88.75" font-family="Helvetica,sans-Serif" font-size="10.00">Slic3r::load_svg</text>
</a>
</g>
</g>
<!-- Node17&#45;&gt;Node18 -->
<g id="edge17_Node000017_Node000018" class="edge">
<title>Node17&#45;&gt;Node18</title>
<g id="a_edge17_Node000017_Node000018"><a xlink:title=" ">
<path fill="none" stroke="#63b8ff" d="M465.37,-69.56C453.61,-72.28 441.36,-74.79 429.75,-76.62 369.32,-86.17 298.52,-90.04 254.49,-91.6"/>
<polygon fill="#63b8ff" stroke="#63b8ff" points="466.09,-72.75 475,-67.02 464.46,-65.94 466.09,-72.75"/>
</a>
</g>
</g>
<!-- Node66 -->
<g id="Node000066" class="node">
<title>Node66</title>
<g id="a_Node000066"><a xlink:href="../../de/db8/namespace_slic3r.html#a62ddc9c1f9c3ad172c3a477891ef9141" target="_top" xlink:title=" ">
<polygon fill="white" stroke="#666666" points="424.5,-19.25 329.75,-19.25 329.75,0 424.5,0 424.5,-19.25"/>
<text text-anchor="middle" x="377.12" y="-5.75" font-family="Helvetica,sans-Serif" font-size="10.00">Slic3r::MakeMesh</text>
</a>
</g>
</g>
<!-- Node17&#45;&gt;Node66 -->
<g id="edge19_Node000017_Node000066" class="edge">
<title>Node17&#45;&gt;Node66</title>
<g id="a_edge19_Node000017_Node000066"><a xlink:title=" ">
<path fill="none" stroke="#63b8ff" d="M465.51,-34.72C447.59,-29.57 428.68,-24.14 413.06,-19.66"/>
<polygon fill="#63b8ff" stroke="#63b8ff" points="464.34,-38.31 474.92,-37.71 466.27,-31.58 464.34,-38.31"/>
</a>
</g>
</g>
<!-- Node73 -->
<g id="Node000073" class="node">
<title>Node73</title>
<g id="a_Node000073"><a xlink:href="../../d8/d71/class_slic3r_1_1_triangle_mesh.html#a20c1b0a4e6852d44037bb8f724442db1" target="_top" xlink:title=" ">
<polygon fill="white" stroke="#666666" points="429.75,-67.88 324.5,-67.88 324.5,-37.38 429.75,-37.38 429.75,-67.88"/>
<text text-anchor="start" x="332.5" y="-54.38" font-family="Helvetica,sans-Serif" font-size="10.00">Slic3r::TriangleMesh</text>
<text text-anchor="middle" x="377.12" y="-43.12" font-family="Helvetica,sans-Serif" font-size="10.00">::ReadSTLFile</text>
</a>
</g>
</g>
<!-- Node17&#45;&gt;Node73 -->
<g id="edge21_Node000017_Node000073" class="edge">
<title>Node17&#45;&gt;Node73</title>
<g id="a_edge21_Node000017_Node000073"><a xlink:title=" ">
<path fill="none" stroke="#63b8ff" d="M464.98,-52.62C453.41,-52.62 441.45,-52.62 430.24,-52.62"/>
<polygon fill="#63b8ff" stroke="#63b8ff" points="464.92,-56.13 474.92,-52.62 464.92,-49.13 464.92,-56.13"/>
</a>
</g>
</g>
<!-- Node19 -->
<g id="Node000019" class="node">
<title>Node19</title>
<g id="a_Node000019"><a xlink:href="../../dd/d8d/class_slic3r_1_1_model.html#a06bcc46f4c5afd4f4b183b434ab80839" target="_top" xlink:title=" ">
<polygon fill="#fff0f0" stroke="red" points="97.75,-88.88 0,-88.88 0,-58.38 97.75,-58.38 97.75,-88.88"/>
<text text-anchor="start" x="8" y="-75.38" font-family="Helvetica,sans-Serif" font-size="10.00">Slic3r::Model::read</text>
<text text-anchor="middle" x="48.88" y="-64.12" font-family="Helvetica,sans-Serif" font-size="10.00">_from_file</text>
</a>
</g>
</g>
<!-- Node18&#45;&gt;Node19 -->
<g id="edge18_Node000018_Node000019" class="edge">
<title>Node18&#45;&gt;Node19</title>
<g id="a_edge18_Node000018_Node000019"><a xlink:title=" ">
<path fill="none" stroke="#63b8ff" d="M157.13,-86.34C138.13,-84.09 116.81,-81.56 98.22,-79.36"/>
<polygon fill="#63b8ff" stroke="#63b8ff" points="156.68,-89.93 167.02,-87.63 157.5,-82.98 156.68,-89.93"/>
</a>
</g>
</g>
<!-- Node67 -->
<g id="Node000067" class="node">
<title>Node67</title>
<g id="a_Node000067"><a xlink:href="../../de/db8/namespace_slic3r.html#a887dfa53574566ea284c994bc3e875db" target="_top" xlink:title=" ">
<polygon fill="#fff0f0" stroke="red" points="270.12,-19.25 152.12,-19.25 152.12,0 270.12,0 270.12,-19.25"/>
<text text-anchor="middle" x="211.12" y="-5.75" font-family="Helvetica,sans-Serif" font-size="10.00">Slic3r::load_text_shape</text>
</a>
</g>
</g>
<!-- Node66&#45;&gt;Node67 -->
<g id="edge20_Node000066_Node000067" class="edge">
<title>Node66&#45;&gt;Node67</title>
<g id="a_edge20_Node000066_Node000067"><a xlink:title=" ">
<path fill="none" stroke="#63b8ff" d="M318.96,-9.62C303.27,-9.62 286.25,-9.62 270.5,-9.62"/>
<polygon fill="#63b8ff" stroke="#63b8ff" points="318.57,-13.13 328.57,-9.62 318.57,-6.13 318.57,-13.13"/>
</a>
</g>
</g>
<!-- Node74 -->
<g id="Node000074" class="node">
<title>Node74</title>
<g id="a_Node000074"><a xlink:href="../../de/db8/namespace_slic3r.html#ab5fc819a93d629cc8f3cf09ab657399e" target="_top" xlink:title=" ">
<polygon fill="white" stroke="#666666" points="251.38,-63.25 170.88,-63.25 170.88,-44 251.38,-44 251.38,-63.25"/>
<text text-anchor="middle" x="211.12" y="-49.75" font-family="Helvetica,sans-Serif" font-size="10.00">Slic3r::load_stl</text>
</a>
</g>
</g>
<!-- Node73&#45;&gt;Node74 -->
<g id="edge22_Node000073_Node000074" class="edge">
<title>Node73&#45;&gt;Node74</title>
<g id="a_edge22_Node000073_Node000074"><a xlink:title=" ">
<path fill="none" stroke="#63b8ff" d="M313.28,-53.01C292.59,-53.13 270.18,-53.27 251.72,-53.38"/>
<polygon fill="#63b8ff" stroke="#63b8ff" points="313.26,-56.5 323.23,-52.94 313.21,-49.5 313.26,-56.5"/>
</a>
</g>
</g>
<!-- Node74&#45;&gt;Node19 -->
<g id="edge23_Node000074_Node000019" class="edge">
<title>Node74&#45;&gt;Node19</title>
<g id="a_edge23_Node000074_Node000019"><a xlink:title=" ">
<path fill="none" stroke="#63b8ff" d="M159.62,-59.93C139.99,-62.38 117.6,-65.17 98.18,-67.6"/>
<polygon fill="#63b8ff" stroke="#63b8ff" points="160.02,-63.28 169.51,-58.57 159.16,-56.33 160.02,-63.28"/>
</a>
</g>
</g>
<!-- Node77&#45;&gt;Node7 -->
<g id="edge39_Node000077_Node000007" class="edge">
<title>Node77&#45;&gt;Node7</title>
<g id="a_edge39_Node000077_Node000007"><a xlink:title=" ">
<path fill="none" stroke="#63b8ff" d="M821.58,-414.45C805.35,-437.15 775.47,-475.28 742.25,-499.62 737.52,-503.09 732.23,-506.22 726.84,-509"/>
<polygon fill="#63b8ff" stroke="#63b8ff" points="824.99,-416.68 827.85,-406.48 819.25,-412.67 824.99,-416.68"/>
</a>
</g>
</g>
<!-- Node78 -->
<g id="Node000078" class="node">
<title>Node78</title>
<g id="a_Node000078"><a xlink:href="../../d8/d25/namespace_slic3r_1_1_mesh_boolean_1_1mcut.html#a027fd99f81ed3c86bba03f105caaba78" target="_top" xlink:title=" ">
<polygon fill="white" stroke="#666666" points="738.12,-472.88 632.12,-472.88 632.12,-442.38 738.12,-442.38 738.12,-472.88"/>
<text text-anchor="start" x="640.12" y="-459.38" font-family="Helvetica,sans-Serif" font-size="10.00">Slic3r::MeshBoolean</text>
<text text-anchor="middle" x="685.12" y="-448.12" font-family="Helvetica,sans-Serif" font-size="10.00">::mcut::do_boolean</text>
</a>
</g>
</g>
<!-- Node77&#45;&gt;Node78 -->
<g id="edge27_Node000077_Node000078" class="edge">
<title>Node77&#45;&gt;Node78</title>
<g id="a_edge27_Node000077_Node000078"><a xlink:title=" ">
<path fill="none" stroke="#63b8ff" d="M800.26,-409.89C777.36,-419.47 747.18,-432.09 723.6,-441.95"/>
<polygon fill="#63b8ff" stroke="#63b8ff" points="801.35,-412.81 809.23,-405.72 798.65,-406.35 801.35,-412.81"/>
</a>
</g>
</g>
<!-- Node81 -->
<g id="Node000081" class="node">
<title>Node81</title>
<g id="a_Node000081"><a xlink:href="../../de/db8/namespace_slic3r.html#ac408254d92b4f2db4764592888c105d6" target="_top" xlink:title=" ">
<polygon fill="white" stroke="#666666" points="725.38,-424.25 644.88,-424.25 644.88,-405 725.38,-405 725.38,-424.25"/>
<text text-anchor="middle" x="685.12" y="-410.75" font-family="Helvetica,sans-Serif" font-size="10.00">Slic3r::its_split</text>
</a>
</g>
</g>
<!-- Node77&#45;&gt;Node81 -->
<g id="edge31_Node000077_Node000081" class="edge">
<title>Node77&#45;&gt;Node81</title>
<g id="a_edge31_Node000077_Node000081"><a xlink:title=" ">
<path fill="none" stroke="#63b8ff" d="M783.78,-402.11C764.81,-404.54 743.54,-407.27 725.71,-409.55"/>
<polygon fill="#63b8ff" stroke="#63b8ff" points="784.17,-405.46 793.65,-400.72 783.28,-398.52 784.17,-405.46"/>
</a>
</g>
</g>
<!-- Node82 -->
<g id="Node000082" class="node">
<title>Node82</title>
<g id="a_Node000082"><a xlink:href="../../de/db8/namespace_slic3r.html#abd41cca86a6d63932a2c555cf273bc67" target="_top" xlink:title=" ">
<polygon fill="white" stroke="#666666" points="725.38,-387.25 644.88,-387.25 644.88,-368 725.38,-368 725.38,-387.25"/>
<text text-anchor="middle" x="685.12" y="-373.75" font-family="Helvetica,sans-Serif" font-size="10.00">Slic3r::its_split</text>
</a>
</g>
</g>
<!-- Node77&#45;&gt;Node82 -->
<g id="edge32_Node000077_Node000082" class="edge">
<title>Node77&#45;&gt;Node82</title>
<g id="a_edge32_Node000077_Node000082"><a xlink:title=" ">
<path fill="none" stroke="#63b8ff" d="M783.78,-389.48C764.81,-387.18 743.54,-384.6 725.71,-382.43"/>
<polygon fill="#63b8ff" stroke="#63b8ff" points="783.3,-393.07 793.65,-390.8 784.14,-386.12 783.3,-393.07"/>
</a>
</g>
</g>
<!-- Node83 -->
<g id="Node000083" class="node">
<title>Node83</title>
<g id="a_Node000083"><a xlink:href="../../de/db8/namespace_slic3r.html#a6fd64cb633ce6d3b396144a10ec660fd" target="_top" xlink:title=" ">
<polygon fill="white" stroke="#666666" points="737.75,-350.25 632.5,-350.25 632.5,-331 737.75,-331 737.75,-350.25"/>
<text text-anchor="middle" x="685.12" y="-336.75" font-family="Helvetica,sans-Serif" font-size="10.00">Slic3r::mesh_to_grid</text>
</a>
</g>
</g>
<!-- Node77&#45;&gt;Node83 -->
<g id="edge33_Node000077_Node000083" class="edge">
<title>Node77&#45;&gt;Node83</title>
<g id="a_edge33_Node000077_Node000083"><a xlink:title=" ">
<path fill="none" stroke="#63b8ff" d="M801,-381.55C783.6,-374.38 761.9,-365.71 742.25,-358.62 734.74,-355.92 726.6,-353.19 718.9,-350.7"/>
<polygon fill="#63b8ff" stroke="#63b8ff" points="799.12,-384.97 809.69,-385.57 801.8,-378.51 799.12,-384.97"/>
</a>
</g>
</g>
<!-- Node89 -->
<g id="Node000089" class="node">
<title>Node89</title>
<g id="a_Node000089"><a xlink:href="../../d8/d71/class_slic3r_1_1_triangle_mesh.html#a0a427d06f0a517d8a0a64a3f820c2bf3" target="_top" xlink:title=" ">
<polygon fill="white" stroke="#666666" points="737.75,-312.88 632.5,-312.88 632.5,-282.38 737.75,-282.38 737.75,-312.88"/>
<text text-anchor="start" x="640.5" y="-299.38" font-family="Helvetica,sans-Serif" font-size="10.00">Slic3r::TriangleMesh</text>
<text text-anchor="middle" x="685.12" y="-288.12" font-family="Helvetica,sans-Serif" font-size="10.00">::split</text>
</a>
</g>
</g>
<!-- Node77&#45;&gt;Node89 -->
<g id="edge40_Node000077_Node000089" class="edge">
<title>Node77&#45;&gt;Node89</title>
<g id="a_edge40_Node000077_Node000089"><a xlink:title=" ">
<path fill="none" stroke="#63b8ff" d="M816.18,-378.5C798.36,-362.36 769.92,-338.22 742.25,-321.62 737.34,-318.68 732.01,-315.91 726.65,-313.37"/>
<polygon fill="#63b8ff" stroke="#63b8ff" points="813.3,-380.52 823.03,-384.72 818.04,-375.37 813.3,-380.52"/>
</a>
</g>
</g>
<!-- Node78&#45;&gt;Node78 -->
<g id="edge28_Node000078_Node000078" class="edge">
<title>Node78&#45;&gt;Node78</title>
<g id="a_edge28_Node000078_Node000078"><a xlink:title=" ">
<path fill="none" stroke="#63b8ff" d="M710.66,-484.25C706.68,-488.2 698.17,-490.88 685.12,-490.88 661.94,-490.88 653.07,-482.43 658.5,-473.36"/>
<polygon fill="#63b8ff" stroke="#63b8ff" points="714.24,-484.66 711.75,-474.36 707.28,-483.96 714.24,-484.66"/>
</a>
</g>
</g>
<!-- Node79 -->
<g id="Node000079" class="node">
<title>Node79</title>
<g id="a_Node000079"><a xlink:href="../../d8/d25/namespace_slic3r_1_1_mesh_boolean_1_1mcut.html#a0c8c471b80f5cdc4f85bdbcc49b2c95d" target="_top" xlink:title=" ">
<polygon fill="white" stroke="#666666" points="585.25,-496.88 472.5,-496.88 472.5,-466.38 585.25,-466.38 585.25,-496.88"/>
<text text-anchor="start" x="480.5" y="-483.38" font-family="Helvetica,sans-Serif" font-size="10.00">Slic3r::MeshBoolean</text>
<text text-anchor="middle" x="528.88" y="-472.12" font-family="Helvetica,sans-Serif" font-size="10.00">::mcut::make_boolean</text>
</a>
</g>
</g>
<!-- Node78&#45;&gt;Node79 -->
<g id="edge29_Node000078_Node000079" class="edge">
<title>Node78&#45;&gt;Node79</title>
<g id="a_edge29_Node000078_Node000079"><a xlink:title=" ">
<path fill="none" stroke="#63b8ff" d="M621.26,-467.41C609.5,-469.24 597.27,-471.14 585.74,-472.93"/>
<polygon fill="#63b8ff" stroke="#63b8ff" points="621.56,-470.75 630.9,-465.75 620.48,-463.83 621.56,-470.75"/>
</a>
</g>
</g>
<!-- Node80 -->
<g id="Node000080" class="node">
<title>Node80</title>
<g id="a_Node000080"><a xlink:href="../../d7/d48/namespace_slic3r_1_1csg_1_1detail__mcut.html#af1e62b3de64bd8c5ec9caece2b065106" target="_top" xlink:title=" ">
<polygon fill="white" stroke="#666666" points="580.38,-447.88 477.38,-447.88 477.38,-417.38 580.38,-417.38 580.38,-447.88"/>
<text text-anchor="start" x="485.38" y="-434.38" font-family="Helvetica,sans-Serif" font-size="10.00">Slic3r::csg::detail</text>
<text text-anchor="middle" x="528.88" y="-423.12" font-family="Helvetica,sans-Serif" font-size="10.00">_mcut::perform_csg</text>
</a>
</g>
</g>
<!-- Node78&#45;&gt;Node80 -->
<g id="edge30_Node000078_Node000080" class="edge">
<title>Node78&#45;&gt;Node80</title>
<g id="a_edge30_Node000078_Node000080"><a xlink:title=" ">
<path fill="none" stroke="#63b8ff" d="M621.25,-447.44C607.78,-445.25 593.69,-442.97 580.74,-440.87"/>
<polygon fill="#63b8ff" stroke="#63b8ff" points="620.47,-451.02 630.9,-449.16 621.59,-444.11 620.47,-451.02"/>
</a>
</g>
</g>
<!-- Node84 -->
<g id="Node000084" class="node">
<title>Node84</title>
<g id="a_Node000084"><a xlink:href="../../d2/d57/namespace_slic3r_1_1sla.html#af909f67af207bdd0dff11807ff05f847" target="_top" xlink:title=" ">
<polygon fill="white" stroke="#666666" points="580.38,-398.88 477.38,-398.88 477.38,-368.38 580.38,-368.38 580.38,-398.88"/>
<text text-anchor="start" x="485.38" y="-385.38" font-family="Helvetica,sans-Serif" font-size="10.00">Slic3r::sla::generate</text>
<text text-anchor="middle" x="528.88" y="-374.12" font-family="Helvetica,sans-Serif" font-size="10.00">_interior_verbose</text>
</a>
</g>
</g>
<!-- Node83&#45;&gt;Node84 -->
<g id="edge34_Node000083_Node000084" class="edge">
<title>Node83&#45;&gt;Node84</title>
<g id="a_edge34_Node000083_Node000084"><a xlink:title=" ">
<path fill="none" stroke="#63b8ff" d="M637.46,-353.63C619.54,-358.63 599,-364.36 580.7,-369.46"/>
<polygon fill="#63b8ff" stroke="#63b8ff" points="638.27,-356.76 646.96,-350.71 636.39,-350.02 638.27,-356.76"/>
</a>
</g>
</g>
<!-- Node88 -->
<g id="Node000088" class="node">
<title>Node88</title>
<g id="a_Node000088"><a xlink:href="../../d8/d2c/namespace_slic3r_1_1csg.html#a81c9d891d22ccfc66d22d1db5c82bc5c" target="_top" xlink:title=" ">
<polygon fill="white" stroke="#666666" points="592,-350.25 465.75,-350.25 465.75,-331 592,-331 592,-350.25"/>
<text text-anchor="middle" x="528.88" y="-336.75" font-family="Helvetica,sans-Serif" font-size="10.00">Slic3r::csg::get_voxelgrid</text>
</a>
</g>
</g>
<!-- Node83&#45;&gt;Node88 -->
<g id="edge38_Node000083_Node000088" class="edge">
<title>Node83&#45;&gt;Node88</title>
<g id="a_edge38_Node000083_Node000088"><a xlink:title=" ">
<path fill="none" stroke="#63b8ff" d="M621.58,-340.62C611.9,-340.62 601.9,-340.62 592.23,-340.62"/>
<polygon fill="#63b8ff" stroke="#63b8ff" points="621.33,-344.13 631.33,-340.62 621.33,-337.13 621.33,-344.13"/>
</a>
</g>
</g>
<!-- Node85 -->
<g id="Node000085" class="node">
<title>Node85</title>
<g id="a_Node000085"><a xlink:href="../../d2/d57/namespace_slic3r_1_1sla.html#a4aec0286421eab004e3dc040adde9150" target="_top" xlink:title=" ">
<polygon fill="white" stroke="#666666" points="428.62,-398.88 325.62,-398.88 325.62,-368.38 428.62,-368.38 428.62,-398.88"/>
<text text-anchor="start" x="333.62" y="-385.38" font-family="Helvetica,sans-Serif" font-size="10.00">Slic3r::sla::generate</text>
<text text-anchor="middle" x="377.12" y="-374.12" font-family="Helvetica,sans-Serif" font-size="10.00">_interior</text>
</a>
</g>
</g>
<!-- Node84&#45;&gt;Node85 -->
<g id="edge35_Node000084_Node000085" class="edge">
<title>Node84&#45;&gt;Node85</title>
<g id="a_edge35_Node000084_Node000085"><a xlink:title=" ">
<path fill="none" stroke="#63b8ff" d="M466.42,-383.62C453.99,-383.62 441.05,-383.62 429.03,-383.62"/>
<polygon fill="#63b8ff" stroke="#63b8ff" points="466.18,-387.13 476.18,-383.62 466.18,-380.13 466.18,-387.13"/>
</a>
</g>
</g>
<!-- Node86 -->
<g id="Node000086" class="node">
<title>Node86</title>
<g id="a_Node000086"><a xlink:href="../../d2/d57/namespace_slic3r_1_1sla.html#a8308b46cc439e8bcef4983ceccb5dd25" target="_top" xlink:title=" ">
<polygon fill="#fff0f0" stroke="red" points="272.38,-393.25 149.88,-393.25 149.88,-374 272.38,-374 272.38,-393.25"/>
<text text-anchor="middle" x="211.12" y="-379.75" font-family="Helvetica,sans-Serif" font-size="10.00">Slic3r::sla::hollow_mesh</text>
</a>
</g>
</g>
<!-- Node85&#45;&gt;Node86 -->
<g id="edge36_Node000085_Node000086" class="edge">
<title>Node85&#45;&gt;Node86</title>
<g id="a_edge36_Node000085_Node000086"><a xlink:title=" ">
<path fill="none" stroke="#63b8ff" d="M314.43,-383.62C300.83,-383.62 286.43,-383.62 272.87,-383.62"/>
<polygon fill="#63b8ff" stroke="#63b8ff" points="314.13,-387.13 324.13,-383.62 314.13,-380.13 314.13,-387.13"/>
</a>
</g>
</g>
<!-- Node86&#45;&gt;Node86 -->
<g id="edge37_Node000086_Node000086" class="edge">
<title>Node86&#45;&gt;Node86</title>
<g id="a_edge37_Node000086_Node000086"><a xlink:title=" ">
<path fill="none" stroke="#63b8ff" d="M240.72,-403.63C237.92,-408.04 228.06,-411.25 211.12,-411.25 182.6,-411.25 174.14,-402.15 185.72,-393.54"/>
<polygon fill="#63b8ff" stroke="#63b8ff" points="243.59,-402.43 236.53,-394.54 237.13,-405.12 243.59,-402.43"/>
</a>
</g>
</g>
<!-- Node90 -->
<g id="Node000090" class="node">
<title>Node90</title>
<g id="a_Node000090"><a xlink:href="../../d0/d02/class_slic3r_1_1_model_volume.html#a84b6406445ca4a2090574ecf527feae7" target="_top" xlink:title=" ">
<polygon fill="white" stroke="#666666" points="581.88,-312.88 475.88,-312.88 475.88,-282.38 581.88,-282.38 581.88,-312.88"/>
<text text-anchor="start" x="483.88" y="-299.38" font-family="Helvetica,sans-Serif" font-size="10.00">Slic3r::ModelVolume</text>
<text text-anchor="middle" x="528.88" y="-288.12" font-family="Helvetica,sans-Serif" font-size="10.00">::split</text>
</a>
</g>
</g>
<!-- Node89&#45;&gt;Node90 -->
<g id="edge41_Node000089_Node000090" class="edge">
<title>Node89&#45;&gt;Node90</title>
<g id="a_edge41_Node000089_Node000090"><a xlink:title=" ">
<path fill="none" stroke="#63b8ff" d="M621.56,-297.62C608.54,-297.62 594.93,-297.62 582.32,-297.62"/>
<polygon fill="#63b8ff" stroke="#63b8ff" points="621.33,-301.13 631.33,-297.62 621.33,-294.13 621.33,-301.13"/>
</a>
</g>
</g>
</g>
</svg>
