<?xml version="1.0" encoding="UTF-8" standalone="no"?>
<!DOCTYPE svg PUBLIC "-//W3C//DTD SVG 1.1//EN"
 "http://www.w3.org/Graphics/SVG/1.1/DTD/svg11.dtd">
<!-- Generated by graphviz version 8.1.0 (20230707.0739)
 -->
<!-- Title: Slic3r::GUI::TriangleSelectorPatch::clear Pages: 1 -->
<!--zoomable 137 -->

<svg id="main" version="1.1" xmlns="http://www.w3.org/2000/svg" xmlns:xlink="http://www.w3.org/1999/xlink" xml:space="preserve" onload="init(evt)">
<style type="text/css"><![CDATA[
.node, .edge {opacity: 0.7;}
.node.selected, .edge.selected {opacity: 1;}
.edge:hover path { stroke: red; }
.edge:hover polygon { stroke: red; fill: red; }
]]></style>

<defs>
  <circle id="rim" cx="0" cy="0" r="7"/>
  <circle id="rim2" cx="0" cy="0" r="3.5"/>
  <g id="zoomPlus">
    <use xlink:href="#rim" fill="#404040"><set attributeName="fill" to="#808080" begin="zoomplus.mouseover" end="zoomplus.mouseout"/></use>
    <path d="M-4,0h8M0,-4v8" fill="none" stroke="white" stroke-width="1.5" pointer-events="none"/>
  </g>
  <g id="zoomMin">
    <use xlink:href="#rim" fill="#404040"><set attributeName="fill" to="#808080" begin="zoomminus.mouseover" end="zoomminus.mouseout"/></use>
    <path d="M-4,0h8" fill="none" stroke="white" stroke-width="1.5" pointer-events="none"/>
  </g>
  <g id="arrowUp" transform="translate(30 24)">
    <use xlink:href="#rim"/>
    <path pointer-events="none" fill="none" stroke="white" stroke-width="1.5" d="M0,-3.0v7 M-2.5,-0.5L0,-3.0L2.5,-0.5"/>
  </g>
  <g id="arrowRight" transform="rotate(90) translate(36 -43)">
    <use xlink:href="#rim"/>
    <path pointer-events="none" fill="none" stroke="white" stroke-width="1.5" d="M0,-3.0v7 M-2.5,-0.5L0,-3.0L2.5,-0.5"/>
  </g>
  <g id="arrowDown" transform="rotate(180) translate(-30 -48)">
    <use xlink:href="#rim"/>
    <path pointer-events="none" fill="none" stroke="white" stroke-width="1.5" d="M0,-3.0v7 M-2.5,-0.5L0,-3.0L2.5,-0.5"/>
  </g>
  <g id="arrowLeft" transform="rotate(270) translate(-36 17)">
    <use xlink:href="#rim"/>
    <path pointer-events="none" fill="none" stroke="white" stroke-width="1.5" d="M0,-3.0v7 M-2.5,-0.5L0,-3.0L2.5,-0.5"/>
  </g>
  <g id="resetDef">
    <use xlink:href="#rim2" fill="#404040"><set attributeName="fill" to="#808080" begin="reset.mouseover" end="reset.mouseout"/></use>
  </g>
</defs>
<script type="application/ecmascript">
var viewWidth = 1141;
var viewHeight = 137;
var sectionId = 'dynsection-10';
</script>
<script type="application/ecmascript" xlink:href="../../svg.min.js"/>
<svg id="graph" class="graph">
<g id="viewport">
<title>Slic3r::GUI::TriangleSelectorPatch::clear</title>
<!-- Node1 -->
<g id="Node000001" class="node">
<title>Node1</title>
<g id="a_Node000001"><a xlink:title=" ">
<polygon fill="#999999" stroke="#666666" points="1132.5,-57.5 991.25,-57.5 991.25,-27 1132.5,-27 1132.5,-57.5"/>
<text text-anchor="start" x="999.25" y="-44" font-family="Helvetica,sans-Serif" font-size="10.00">Slic3r::GUI::TriangleSelector</text>
<text text-anchor="middle" x="1061.88" y="-32.75" font-family="Helvetica,sans-Serif" font-size="10.00">Patch::clear</text>
</a>
</g>
</g>
<!-- Node2 -->
<g id="Node000002" class="node">
<title>Node2</title>
<g id="a_Node000002"><a xlink:href="../../da/d4e/class_slic3r_1_1_g_u_i_1_1_triangle_selector_patch.html#aae98920f79a645ca99a53d6df7049c29" target="_top" xlink:title=" ">
<polygon fill="white" stroke="#666666" points="955.25,-57.5 814,-57.5 814,-27 955.25,-27 955.25,-57.5"/>
<text text-anchor="start" x="822" y="-44" font-family="Helvetica,sans-Serif" font-size="10.00">Slic3r::GUI::TriangleSelector</text>
<text text-anchor="middle" x="884.62" y="-32.75" font-family="Helvetica,sans-Serif" font-size="10.00">Patch::release_geometry</text>
</a>
</g>
</g>
<!-- Node1&#45;&gt;Node2 -->
<g id="edge1_Node000001_Node000002" class="edge">
<title>Node1&#45;&gt;Node2</title>
<g id="a_edge1_Node000001_Node000002"><a xlink:title=" ">
<path fill="none" stroke="#63b8ff" d="M980.13,-42.25C971.91,-42.25 963.62,-42.25 955.53,-42.25"/>
<polygon fill="#63b8ff" stroke="#63b8ff" points="979.86,-45.75 989.86,-42.25 979.86,-38.75 979.86,-45.75"/>
</a>
</g>
</g>
<!-- Node3 -->
<g id="Node000003" class="node">
<title>Node3</title>
<g id="a_Node000003"><a xlink:href="../../da/d4e/class_slic3r_1_1_g_u_i_1_1_triangle_selector_patch.html#a22cbc8aed4976f78d2f0ecff05cfd72c" target="_top" xlink:title=" ">
<polygon fill="white" stroke="#666666" points="600.75,-79.5 459.5,-79.5 459.5,-49 600.75,-49 600.75,-79.5"/>
<text text-anchor="start" x="467.5" y="-66" font-family="Helvetica,sans-Serif" font-size="10.00">Slic3r::GUI::TriangleSelector</text>
<text text-anchor="middle" x="530.12" y="-54.75" font-family="Helvetica,sans-Serif" font-size="10.00">Patch::set_filter_state</text>
</a>
</g>
</g>
<!-- Node2&#45;&gt;Node3 -->
<g id="edge2_Node000002_Node000003" class="edge">
<title>Node2&#45;&gt;Node3</title>
<g id="a_edge2_Node000002_Node000003"><a xlink:title=" ">
<path fill="none" stroke="#63b8ff" d="M802.83,-47.29C741.9,-51.1 659.17,-56.26 601.06,-59.89"/>
<polygon fill="#63b8ff" stroke="#63b8ff" points="802.8,-50.74 812.56,-46.62 802.36,-43.75 802.8,-50.74"/>
</a>
</g>
</g>
<!-- Node10 -->
<g id="Node000010" class="node">
<title>Node10</title>
<g id="a_Node000010"><a xlink:href="../../da/d4e/class_slic3r_1_1_g_u_i_1_1_triangle_selector_patch.html#a9c3ec0aa48e8a41c45243384f273435e" target="_top" xlink:title=" ">
<polygon fill="white" stroke="#666666" points="778,-36.5 636.75,-36.5 636.75,-6 778,-6 778,-36.5"/>
<text text-anchor="start" x="644.75" y="-23" font-family="Helvetica,sans-Serif" font-size="10.00">Slic3r::GUI::TriangleSelector</text>
<text text-anchor="middle" x="707.38" y="-11.75" font-family="Helvetica,sans-Serif" font-size="10.00">Patch::update_render_data</text>
</a>
</g>
</g>
<!-- Node2&#45;&gt;Node10 -->
<g id="edge9_Node000002_Node000010" class="edge">
<title>Node2&#45;&gt;Node10</title>
<g id="a_edge9_Node000002_Node000010"><a xlink:title=" ">
<path fill="none" stroke="#63b8ff" d="M802.88,-32.57C794.66,-31.59 786.37,-30.6 778.28,-29.63"/>
<polygon fill="#63b8ff" stroke="#63b8ff" points="802.26,-36.14 812.61,-33.86 803.09,-29.19 802.26,-36.14"/>
</a>
</g>
</g>
<!-- Node4 -->
<g id="Node000004" class="node">
<title>Node4</title>
<g id="a_Node000004"><a xlink:href="../../d7/ddf/class_slic3r_1_1_g_u_i_1_1_g_l_gizmo_fdm_supports.html#aab471a5d24f22efa05a5387b074ce2d6" target="_top" xlink:title=" ">
<polygon fill="white" stroke="#666666" points="411.88,-128.5 241.38,-128.5 241.38,-98 411.88,-98 411.88,-128.5"/>
<text text-anchor="start" x="249.38" y="-115" font-family="Helvetica,sans-Serif" font-size="10.00">Slic3r::GUI::GLGizmoFdmSupports</text>
<text text-anchor="middle" x="326.62" y="-103.75" font-family="Helvetica,sans-Serif" font-size="10.00">::tool_changed</text>
</a>
</g>
</g>
<!-- Node3&#45;&gt;Node4 -->
<g id="edge3_Node000003_Node000004" class="edge">
<title>Node3&#45;&gt;Node4</title>
<g id="a_edge3_Node000003_Node000004"><a xlink:title=" ">
<path fill="none" stroke="#63b8ff" d="M454.06,-82.5C433.72,-87.45 411.89,-92.76 392.19,-97.55"/>
<polygon fill="#63b8ff" stroke="#63b8ff" points="454.65,-85.72 463.54,-79.96 452.99,-78.92 454.65,-85.72"/>
</a>
</g>
</g>
<!-- Node6 -->
<g id="Node000006" class="node">
<title>Node6</title>
<g id="a_Node000006"><a xlink:href="../../d9/d6f/class_slic3r_1_1_g_u_i_1_1_g_l_gizmo_mmu_segmentation.html#a74f88340adcc234bfb86e93dd1ccff5b" target="_top" xlink:title=" ">
<polygon fill="white" stroke="#666666" points="423.5,-79.5 229.75,-79.5 229.75,-49 423.5,-49 423.5,-79.5"/>
<text text-anchor="start" x="237.75" y="-66" font-family="Helvetica,sans-Serif" font-size="10.00">Slic3r::GUI::GLGizmoMmuSegmentation</text>
<text text-anchor="middle" x="326.62" y="-54.75" font-family="Helvetica,sans-Serif" font-size="10.00">::tool_changed</text>
</a>
</g>
</g>
<!-- Node3&#45;&gt;Node6 -->
<g id="edge5_Node000003_Node000006" class="edge">
<title>Node3&#45;&gt;Node6</title>
<g id="a_edge5_Node000003_Node000006"><a xlink:title=" ">
<path fill="none" stroke="#63b8ff" d="M448.3,-64.25C440.2,-64.25 431.92,-64.25 423.68,-64.25"/>
<polygon fill="#63b8ff" stroke="#63b8ff" points="448.22,-67.75 458.22,-64.25 448.22,-60.75 448.22,-67.75"/>
</a>
</g>
</g>
<!-- Node8 -->
<g id="Node000008" class="node">
<title>Node8</title>
<g id="a_Node000008"><a xlink:href="../../dd/de1/class_slic3r_1_1_g_u_i_1_1_g_l_gizmo_seam.html#a48301cb9caa33c2a366d38d28c7ca2d5" target="_top" xlink:title=" ">
<polygon fill="white" stroke="#666666" points="395.38,-30.5 257.88,-30.5 257.88,0 395.38,0 395.38,-30.5"/>
<text text-anchor="start" x="265.88" y="-17" font-family="Helvetica,sans-Serif" font-size="10.00">Slic3r::GUI::GLGizmoSeam</text>
<text text-anchor="middle" x="326.62" y="-5.75" font-family="Helvetica,sans-Serif" font-size="10.00">::tool_changed</text>
</a>
</g>
</g>
<!-- Node3&#45;&gt;Node8 -->
<g id="edge7_Node000003_Node000008" class="edge">
<title>Node3&#45;&gt;Node8</title>
<g id="a_edge7_Node000003_Node000008"><a xlink:title=" ">
<path fill="none" stroke="#63b8ff" d="M454.06,-46C433.72,-41.05 411.89,-35.74 392.19,-30.95"/>
<polygon fill="#63b8ff" stroke="#63b8ff" points="452.99,-49.58 463.54,-48.54 454.65,-42.78 452.99,-49.58"/>
</a>
</g>
</g>
<!-- Node5 -->
<g id="Node000005" class="node">
<title>Node5</title>
<g id="a_Node000005"><a xlink:href="../../d7/ddf/class_slic3r_1_1_g_u_i_1_1_g_l_gizmo_fdm_supports.html#a5b0f76f34a6583ae976549f1a86f99a5" target="_top" xlink:title=" ">
<polygon fill="white" stroke="#666666" points="182.12,-128.5 11.62,-128.5 11.62,-98 182.12,-98 182.12,-128.5"/>
<text text-anchor="start" x="19.62" y="-115" font-family="Helvetica,sans-Serif" font-size="10.00">Slic3r::GUI::GLGizmoFdmSupports</text>
<text text-anchor="middle" x="96.88" y="-103.75" font-family="Helvetica,sans-Serif" font-size="10.00">::on_render_input_window</text>
</a>
</g>
</g>
<!-- Node4&#45;&gt;Node5 -->
<g id="edge4_Node000004_Node000005" class="edge">
<title>Node4&#45;&gt;Node5</title>
<g id="a_edge4_Node000004_Node000005"><a xlink:title=" ">
<path fill="none" stroke="#63b8ff" d="M230.28,-113.25C214.46,-113.25 198.14,-113.25 182.6,-113.25"/>
<polygon fill="#63b8ff" stroke="#63b8ff" points="230.14,-116.75 240.14,-113.25 230.14,-109.75 230.14,-116.75"/>
</a>
</g>
</g>
<!-- Node7 -->
<g id="Node000007" class="node">
<title>Node7</title>
<g id="a_Node000007"><a xlink:href="../../d9/d6f/class_slic3r_1_1_g_u_i_1_1_g_l_gizmo_mmu_segmentation.html#aec1aa2f87573fd0204cb10165154b3cf" target="_top" xlink:title=" ">
<polygon fill="white" stroke="#666666" points="193.75,-79.5 0,-79.5 0,-49 193.75,-49 193.75,-79.5"/>
<text text-anchor="start" x="8" y="-66" font-family="Helvetica,sans-Serif" font-size="10.00">Slic3r::GUI::GLGizmoMmuSegmentation</text>
<text text-anchor="middle" x="96.88" y="-54.75" font-family="Helvetica,sans-Serif" font-size="10.00">::on_render_input_window</text>
</a>
</g>
</g>
<!-- Node6&#45;&gt;Node7 -->
<g id="edge6_Node000006_Node000007" class="edge">
<title>Node6&#45;&gt;Node7</title>
<g id="a_edge6_Node000006_Node000007"><a xlink:title=" ">
<path fill="none" stroke="#63b8ff" d="M218.38,-64.25C210.3,-64.25 202.16,-64.25 194.15,-64.25"/>
<polygon fill="#63b8ff" stroke="#63b8ff" points="218.37,-67.75 228.37,-64.25 218.37,-60.75 218.37,-67.75"/>
</a>
</g>
</g>
<!-- Node9 -->
<g id="Node000009" class="node">
<title>Node9</title>
<g id="a_Node000009"><a xlink:href="../../dd/de1/class_slic3r_1_1_g_u_i_1_1_g_l_gizmo_seam.html#a0d291d51f1062bd90152ded1677a5623" target="_top" xlink:title=" ">
<polygon fill="white" stroke="#666666" points="165.62,-30.5 28.12,-30.5 28.12,0 165.62,0 165.62,-30.5"/>
<text text-anchor="start" x="36.12" y="-17" font-family="Helvetica,sans-Serif" font-size="10.00">Slic3r::GUI::GLGizmoSeam</text>
<text text-anchor="middle" x="96.88" y="-5.75" font-family="Helvetica,sans-Serif" font-size="10.00">::on_render_input_window</text>
</a>
</g>
</g>
<!-- Node8&#45;&gt;Node9 -->
<g id="edge8_Node000008_Node000009" class="edge">
<title>Node8&#45;&gt;Node9</title>
<g id="a_edge8_Node000008_Node000009"><a xlink:title=" ">
<path fill="none" stroke="#63b8ff" d="M246.89,-15.25C220.54,-15.25 191.41,-15.25 165.94,-15.25"/>
<polygon fill="#63b8ff" stroke="#63b8ff" points="246.6,-18.75 256.6,-15.25 246.6,-11.75 246.6,-18.75"/>
</a>
</g>
</g>
<!-- Node10&#45;&gt;Node3 -->
<g id="edge11_Node000010_Node000003" class="edge">
<title>Node10&#45;&gt;Node3</title>
<g id="a_edge11_Node000010_Node000003"><a xlink:title=" ">
<path fill="none" stroke="#63b8ff" d="M631.96,-39.51C619.71,-42.51 607.1,-45.61 595.14,-48.54"/>
<polygon fill="#63b8ff" stroke="#63b8ff" points="632.73,-42.68 641.61,-36.9 631.06,-35.88 632.73,-42.68"/>
</a>
</g>
</g>
<!-- Node11 -->
<g id="Node000011" class="node">
<title>Node11</title>
<g id="a_Node000011"><a xlink:href="../../da/d4e/class_slic3r_1_1_g_u_i_1_1_triangle_selector_patch.html#a395e45490b9907e31e688035cce9b7b1" target="_top" xlink:title=" ">
<polygon fill="white" stroke="#666666" points="600.75,-30.5 459.5,-30.5 459.5,0 600.75,0 600.75,-30.5"/>
<text text-anchor="start" x="467.5" y="-17" font-family="Helvetica,sans-Serif" font-size="10.00">Slic3r::GUI::TriangleSelector</text>
<text text-anchor="middle" x="530.12" y="-5.75" font-family="Helvetica,sans-Serif" font-size="10.00">Patch::render</text>
</a>
</g>
</g>
<!-- Node10&#45;&gt;Node11 -->
<g id="edge10_Node000010_Node000011" class="edge">
<title>Node10&#45;&gt;Node11</title>
<g id="a_edge10_Node000010_Node000011"><a xlink:title=" ">
<path fill="none" stroke="#63b8ff" d="M625.63,-18.49C617.41,-18.2 609.12,-17.92 601.03,-17.64"/>
<polygon fill="#63b8ff" stroke="#63b8ff" points="625.24,-22.01 635.36,-18.85 625.48,-15.01 625.24,-22.01"/>
</a>
</g>
</g>
</g>
</svg>

<g id="navigator" transform="translate(0 0)" fill="#404254">
  <rect fill="#f2f5e9" fill-opacity="0.5" stroke="#606060" stroke-width=".5" x="0" y="0" width="60" height="60"/>
  <use id="zoomplus" xlink:href="#zoomPlus" x="17" y="9" onmousedown="handleZoom(evt,'in')"/>
  <use id="zoomminus" xlink:href="#zoomMin" x="42" y="9" onmousedown="handleZoom(evt,'out')"/>
  <use id="reset" xlink:href="#resetDef" x="30" y="36" onmousedown="handleReset()"/>
   <use id="arrowup" xlink:href="#arrowUp" x="0" y="0" onmousedown="handlePan(0,-1)"/>
  <use id="arrowright" xlink:href="#arrowRight" x="0" y="0" onmousedown="handlePan(1,0)"/>
  <use id="arrowdown" xlink:href="#arrowDown" x="0" y="0" onmousedown="handlePan(0,1)"/>
  <use id="arrowleft" xlink:href="#arrowLeft" x="0" y="0" onmousedown="handlePan(-1,0)"/>
</g>
<svg viewBox="0 0 15 15" width="100%" height="30px" preserveAspectRatio="xMaxYMin meet">
 <g id="arrow_out" transform="scale(0.3 0.3)">
  <a xlink:href="class_slic3r_1_1_g_u_i_1_1_triangle_selector_patch_a68324980598204697d69cd289e5a99ca_icgraph_org.svg" target="_base">
   <rect id="button" ry="5" rx="5" y="6" x="6" height="38" width="38"
        fill="#f2f5e9" fill-opacity="0.5" stroke="#606060" stroke-width="1.0"/>
   <path id="arrow"
     d="M 11.500037,31.436501 C 11.940474,20.09759 22.043105,11.32322 32.158766,21.979434 L 37.068811,17.246167 C 37.068811,17.246167 37.088388,32 37.088388,32 L 22.160133,31.978069 C 22.160133,31.978069 26.997745,27.140456 26.997745,27.140456 C 18.528582,18.264221 13.291696,25.230495 11.500037,31.436501 z"
     style="fill:#404040;"/>
  </a>
 </g>
</svg>

<style type='text/css'>
<![CDATA[
[data-mouse-over-selected='false'] { opacity: 0.7; }
[data-mouse-over-selected='true']  { opacity: 1.0; }
]]>
</style>
<script type="application/ecmascript"><![CDATA[
document.addEventListener('DOMContentLoaded', (event) => {
  highlightEdges();
  highlightAdjacentNodes();
});
]]></script>
</svg>
