<?xml version="1.0" encoding="UTF-8" standalone="no"?>
<!DOCTYPE svg PUBLIC "-//W3C//DTD SVG 1.1//EN"
 "http://www.w3.org/Graphics/SVG/1.1/DTD/svg11.dtd">
<!-- Generated by graphviz version 8.1.0 (20230707.0739)
 -->
<!-- Title: SpinInput::mouseWheelMoved Pages: 1 -->
<svg width="323pt" height="82pt"
 viewBox="0.00 0.00 322.75 82.25" xmlns="http://www.w3.org/2000/svg" xmlns:xlink="http://www.w3.org/1999/xlink">
<g id="graph0" class="graph" transform="scale(1 1) rotate(0) translate(4 78.25)">
<title>SpinInput::mouseWheelMoved</title>
<!-- Node1 -->
<g id="Node000001" class="node">
<title>Node1</title>
<g id="a_Node000001"><a xlink:title=" ">
<polygon fill="#999999" stroke="#666666" points="149.5,-46.25 0,-46.25 0,-27 149.5,-27 149.5,-46.25"/>
<text text-anchor="middle" x="74.75" y="-32.75" font-family="Helvetica,sans-Serif" font-size="10.00">SpinInput::mouseWheelMoved</text>
</a>
</g>
</g>
<!-- Node2 -->
<g id="Node000002" class="node">
<title>Node2</title>
<g id="a_Node000002"><a xlink:href="../../df/d10/class_spin_input.html#adc9d1d853820605ecf416defd0bc2e40" target="_top" xlink:title=" ">
<polygon fill="white" stroke="#666666" points="314.75,-74.25 185.5,-74.25 185.5,-55 314.75,-55 314.75,-74.25"/>
<text text-anchor="middle" x="250.12" y="-60.75" font-family="Helvetica,sans-Serif" font-size="10.00">SpinInput::sendSpinEvent</text>
</a>
</g>
</g>
<!-- Node1&#45;&gt;Node2 -->
<g id="edge1_Node000001_Node000002" class="edge">
<title>Node1&#45;&gt;Node2</title>
<g id="a_edge1_Node000001_Node000002"><a xlink:title=" ">
<path fill="none" stroke="#63b8ff" d="M138.34,-46.73C150.5,-48.7 163.33,-50.77 175.8,-52.78"/>
<polygon fill="#63b8ff" stroke="#63b8ff" points="175.19,-56.39 185.62,-54.53 176.31,-49.48 175.19,-56.39"/>
</a>
</g>
</g>
<!-- Node3 -->
<g id="Node000003" class="node">
<title>Node3</title>
<g id="a_Node000003"><a xlink:href="../../df/d10/class_spin_input.html#a4e7a7882b81a282100b4102c618ce209" target="_top" xlink:title=" ">
<polygon fill="white" stroke="#666666" points="301.25,-19.25 199,-19.25 199,0 301.25,0 301.25,-19.25"/>
<text text-anchor="middle" x="250.12" y="-5.75" font-family="Helvetica,sans-Serif" font-size="10.00">SpinInput::SetValue</text>
</a>
</g>
</g>
<!-- Node1&#45;&gt;Node3 -->
<g id="edge2_Node000001_Node000003" class="edge">
<title>Node1&#45;&gt;Node3</title>
<g id="a_edge2_Node000001_Node000003"><a xlink:title=" ">
<path fill="none" stroke="#63b8ff" d="M140.31,-26.57C155.95,-24.13 172.63,-21.54 188.1,-19.13"/>
<polygon fill="#63b8ff" stroke="#63b8ff" points="188.26,-22.49 197.6,-17.49 187.18,-15.57 188.26,-22.49"/>
</a>
</g>
</g>
<!-- Node3&#45;&gt;Node3 -->
<g id="edge3_Node000003_Node000003" class="edge">
<title>Node3&#45;&gt;Node3</title>
<g id="a_edge3_Node000003_Node000003"><a xlink:title=" ">
<path fill="none" stroke="#63b8ff" d="M222.67,-19.54C210.15,-28.15 219.3,-37.25 250.12,-37.25 268.91,-37.25 279.65,-33.87 282.33,-29.28"/>
<polygon fill="#63b8ff" stroke="#63b8ff" points="285.11,-27.99 277.58,-20.54 278.82,-31.06 285.11,-27.99"/>
</a>
</g>
</g>
</g>
</svg>
