<?xml version="1.0" encoding="UTF-8" standalone="no"?>
<!DOCTYPE svg PUBLIC "-//W3C//DTD SVG 1.1//EN"
 "http://www.w3.org/Graphics/SVG/1.1/DTD/svg11.dtd">
<!-- Generated by graphviz version 8.1.0 (20230707.0739)
 -->
<!-- Title: SpinInput::SetValue Pages: 1 -->
<svg width="739pt" height="363pt"
 viewBox="0.00 0.00 739.00 362.50" xmlns="http://www.w3.org/2000/svg" xmlns:xlink="http://www.w3.org/1999/xlink">
<g id="graph0" class="graph" transform="scale(1 1) rotate(0) translate(4 358.5)">
<title>SpinInput::SetValue</title>
<!-- Node1 -->
<g id="Node000001" class="node">
<title>Node1</title>
<g id="a_Node000001"><a xlink:title=" ">
<polygon fill="#999999" stroke="#666666" points="731,-191.88 628.75,-191.88 628.75,-172.62 731,-172.62 731,-191.88"/>
<text text-anchor="middle" x="679.88" y="-178.38" font-family="Helvetica,sans-Serif" font-size="10.00">SpinInput::SetValue</text>
</a>
</g>
</g>
<!-- Node1&#45;&gt;Node1 -->
<g id="edge17_Node000001_Node000001" class="edge">
<title>Node1&#45;&gt;Node1</title>
<g id="a_edge17_Node000001_Node000001"><a xlink:title=" ">
<path fill="none" stroke="#63b8ff" d="M709.4,-202.26C706.61,-206.67 696.77,-209.88 679.88,-209.88 651.42,-209.88 642.97,-200.77 654.53,-192.16"/>
<polygon fill="#63b8ff" stroke="#63b8ff" points="712.28,-201.06 705.22,-193.16 705.81,-203.74 712.28,-201.06"/>
</a>
</g>
</g>
<!-- Node2 -->
<g id="Node000002" class="node">
<title>Node2</title>
<g id="a_Node000002"><a xlink:href="../../db/d19/class_slic3r_1_1_g_u_i_1_1_spin_ctrl.html#ad80e975e14a225883e515d39fb25f581" target="_top" xlink:title="Finish constructing the Field&#39;s wxWidget&#45;related properties, including setting its own sizer,...">
<polygon fill="white" stroke="#666666" points="571,-354.5 465,-354.5 465,-324 571,-324 571,-354.5"/>
<text text-anchor="start" x="473" y="-341" font-family="Helvetica,sans-Serif" font-size="10.00">Slic3r::GUI::SpinCtrl</text>
<text text-anchor="middle" x="518" y="-329.75" font-family="Helvetica,sans-Serif" font-size="10.00">::BUILD</text>
</a>
</g>
</g>
<!-- Node1&#45;&gt;Node2 -->
<g id="edge1_Node000001_Node000002" class="edge">
<title>Node1&#45;&gt;Node2</title>
<g id="a_edge1_Node000001_Node000002"><a xlink:title=" ">
<path fill="none" stroke="#63b8ff" d="M670.38,-201.78C657.41,-229.49 630.18,-280.2 592.75,-310.25 586.21,-315.5 578.59,-319.9 570.79,-323.55"/>
<polygon fill="#63b8ff" stroke="#63b8ff" points="673.84,-203.61 674.78,-193.06 667.47,-200.73 673.84,-203.61"/>
</a>
</g>
</g>
<!-- Node3 -->
<g id="Node000003" class="node">
<title>Node3</title>
<g id="a_Node000003"><a xlink:href="../../df/d10/class_spin_input.html#ae0faf98d8c9eb04ac0e1e9a96865299e" target="_top" xlink:title=" ">
<polygon fill="white" stroke="#666666" points="233,-211.88 140.5,-211.88 140.5,-192.62 233,-192.62 233,-211.88"/>
<text text-anchor="middle" x="186.75" y="-198.38" font-family="Helvetica,sans-Serif" font-size="10.00">SpinInput::Create</text>
</a>
</g>
</g>
<!-- Node1&#45;&gt;Node3 -->
<g id="edge2_Node000001_Node000003" class="edge">
<title>Node1&#45;&gt;Node3</title>
<g id="a_edge2_Node000001_Node000003"><a xlink:title=" ">
<path fill="none" stroke="#63b8ff" d="M662.16,-199.94C646,-215.87 620.02,-238.51 592.75,-250.25 516.22,-283.19 490.35,-271.23 407.25,-277.25 345.97,-281.69 326.23,-299.62 269,-277.25 235.21,-264.04 207.03,-229.46 194.59,-212.26"/>
<polygon fill="#63b8ff" stroke="#63b8ff" points="664.15,-202.9 668.67,-193.32 659.16,-197.99 664.15,-202.9"/>
</a>
</g>
</g>
<!-- Node5 -->
<g id="Node000005" class="node">
<title>Node5</title>
<g id="a_Node000005"><a xlink:href="../../df/d10/class_spin_input.html#ab854398077c1ffbe173b9164318f06f3" target="_top" xlink:title=" ">
<polygon fill="white" stroke="#666666" points="397.5,-267.88 278.75,-267.88 278.75,-248.62 397.5,-248.62 397.5,-267.88"/>
<text text-anchor="middle" x="338.12" y="-254.38" font-family="Helvetica,sans-Serif" font-size="10.00">SpinInput::createButton</text>
</a>
</g>
</g>
<!-- Node1&#45;&gt;Node5 -->
<g id="edge4_Node000001_Node000005" class="edge">
<title>Node1&#45;&gt;Node5</title>
<g id="a_edge4_Node000001_Node000005"><a xlink:title=" ">
<path fill="none" stroke="#63b8ff" d="M651.76,-197.36C635.19,-205.94 613.3,-216.16 592.75,-222.25 527.61,-241.54 449.91,-250.63 397.83,-254.82"/>
<polygon fill="#63b8ff" stroke="#63b8ff" points="653.14,-200.05 660.33,-192.27 649.86,-193.87 653.14,-200.05"/>
</a>
</g>
</g>
<!-- Node6 -->
<g id="Node000006" class="node">
<title>Node6</title>
<g id="a_Node000006"><a xlink:href="../../df/d10/class_spin_input.html#a5d8211a87bb6e45f35ff673133a86303" target="_top" xlink:title=" ">
<polygon fill="white" stroke="#666666" points="395.62,-230.88 280.62,-230.88 280.62,-211.62 395.62,-211.62 395.62,-230.88"/>
<text text-anchor="middle" x="338.12" y="-217.38" font-family="Helvetica,sans-Serif" font-size="10.00">SpinInput::keyPressed</text>
</a>
</g>
</g>
<!-- Node1&#45;&gt;Node6 -->
<g id="edge6_Node000001_Node000006" class="edge">
<title>Node1&#45;&gt;Node6</title>
<g id="a_edge6_Node000001_Node000006"><a xlink:title=" ">
<path fill="none" stroke="#63b8ff" d="M628.34,-194.62C616.71,-197.13 604.35,-199.52 592.75,-201.25 525.58,-211.26 447.61,-216.46 396.04,-219.02"/>
<polygon fill="#63b8ff" stroke="#63b8ff" points="628.78,-197.89 637.78,-192.3 627.26,-191.06 628.78,-197.89"/>
</a>
</g>
</g>
<!-- Node7 -->
<g id="Node000007" class="node">
<title>Node7</title>
<g id="a_Node000007"><a xlink:href="../../df/d10/class_spin_input.html#a7e18b34cc8465a7b1dcdf309efd09bcb" target="_top" xlink:title=" ">
<polygon fill="white" stroke="#666666" points="592.75,-191.88 443.25,-191.88 443.25,-172.62 592.75,-172.62 592.75,-191.88"/>
<text text-anchor="middle" x="518" y="-178.38" font-family="Helvetica,sans-Serif" font-size="10.00">SpinInput::mouseWheelMoved</text>
</a>
</g>
</g>
<!-- Node1&#45;&gt;Node7 -->
<g id="edge8_Node000001_Node000007" class="edge">
<title>Node1&#45;&gt;Node7</title>
<g id="a_edge8_Node000001_Node000007"><a xlink:title=" ">
<path fill="none" stroke="#63b8ff" d="M617.33,-182.25C609.43,-182.25 601.28,-182.25 593.2,-182.25"/>
<polygon fill="#63b8ff" stroke="#63b8ff" points="617.29,-185.75 627.29,-182.25 617.29,-178.75 617.29,-185.75"/>
</a>
</g>
</g>
<!-- Node8 -->
<g id="Node000008" class="node">
<title>Node8</title>
<g id="a_Node000008"><a xlink:href="../../df/d10/class_spin_input.html#a50541a3529f9abca5355b2e91fa36311" target="_top" xlink:title=" ">
<polygon fill="white" stroke="#666666" points="575.88,-154.88 460.12,-154.88 460.12,-135.62 575.88,-135.62 575.88,-154.88"/>
<text text-anchor="middle" x="518" y="-141.38" font-family="Helvetica,sans-Serif" font-size="10.00">SpinInput::onTextEnter</text>
</a>
</g>
</g>
<!-- Node1&#45;&gt;Node8 -->
<g id="edge9_Node000001_Node000008" class="edge">
<title>Node1&#45;&gt;Node8</title>
<g id="a_edge9_Node000001_Node000008"><a xlink:title=" ">
<path fill="none" stroke="#63b8ff" d="M624.57,-169.68C604.38,-165.01 581.75,-159.77 562.63,-155.35"/>
<polygon fill="#63b8ff" stroke="#63b8ff" points="623.66,-173.29 634.19,-172.14 625.24,-166.47 623.66,-173.29"/>
</a>
</g>
</g>
<!-- Node10 -->
<g id="Node000010" class="node">
<title>Node10</title>
<g id="a_Node000010"><a xlink:href="../../df/d10/class_spin_input.html#a20c4f506c8c2b86386c53fb24b784056" target="_top" xlink:title=" ">
<polygon fill="white" stroke="#666666" points="387.38,-117.88 288.88,-117.88 288.88,-98.62 387.38,-98.62 387.38,-117.88"/>
<text text-anchor="middle" x="338.12" y="-104.38" font-family="Helvetica,sans-Serif" font-size="10.00">SpinInput::onTimer</text>
</a>
</g>
</g>
<!-- Node1&#45;&gt;Node10 -->
<g id="edge13_Node000001_Node000010" class="edge">
<title>Node1&#45;&gt;Node10</title>
<g id="a_edge13_Node000001_Node000010"><a xlink:title=" ">
<path fill="none" stroke="#63b8ff" d="M659.35,-165.38C642.82,-152.17 617.86,-134.67 592.75,-126.25 524.32,-103.29 439.85,-102.32 387.73,-104.61"/>
<polygon fill="#63b8ff" stroke="#63b8ff" points="656.68,-168.53 666.62,-172.19 661.13,-163.13 656.68,-168.53"/>
</a>
</g>
</g>
<!-- Node11 -->
<g id="Node000011" class="node">
<title>Node11</title>
<g id="a_Node000011"><a xlink:href="../../db/d19/class_slic3r_1_1_g_u_i_1_1_spin_ctrl.html#a4220d9136609c7afb18fb77371fb3528" target="_top" xlink:title="Propagate value from field to the OptionGroupe and Config after kill_focus/ENTER.">
<polygon fill="white" stroke="#666666" points="571,-79.5 465,-79.5 465,-49 571,-49 571,-79.5"/>
<text text-anchor="start" x="473" y="-66" font-family="Helvetica,sans-Serif" font-size="10.00">Slic3r::GUI::SpinCtrl</text>
<text text-anchor="middle" x="518" y="-54.75" font-family="Helvetica,sans-Serif" font-size="10.00">::propagate_value</text>
</a>
</g>
</g>
<!-- Node1&#45;&gt;Node11 -->
<g id="edge15_Node000001_Node000011" class="edge">
<title>Node1&#45;&gt;Node11</title>
<g id="a_edge15_Node000001_Node000011"><a xlink:title=" ">
<path fill="none" stroke="#63b8ff" d="M665.12,-163.93C649.47,-144.18 622.24,-112.92 592.75,-93.25 585.08,-88.14 576.38,-83.71 567.7,-79.97"/>
<polygon fill="#63b8ff" stroke="#63b8ff" points="662.76,-165.59 671.65,-171.36 668.29,-161.31 662.76,-165.59"/>
</a>
</g>
</g>
<!-- Node12 -->
<g id="Node000012" class="node">
<title>Node12</title>
<g id="a_Node000012"><a xlink:href="../../db/d19/class_slic3r_1_1_g_u_i_1_1_spin_ctrl.html#a911dc76f09503294794bb0ce5e8813a9" target="_top" xlink:title="Sets a value for this control. subclasses should overload with a specific version Postcondition: Meth...">
<polygon fill="white" stroke="#666666" points="571,-30.5 465,-30.5 465,0 571,0 571,-30.5"/>
<text text-anchor="start" x="473" y="-17" font-family="Helvetica,sans-Serif" font-size="10.00">Slic3r::GUI::SpinCtrl</text>
<text text-anchor="middle" x="518" y="-5.75" font-family="Helvetica,sans-Serif" font-size="10.00">::set_value</text>
</a>
</g>
</g>
<!-- Node1&#45;&gt;Node12 -->
<g id="edge16_Node000001_Node000012" class="edge">
<title>Node1&#45;&gt;Node12</title>
<g id="a_edge16_Node000001_Node000012"><a xlink:title=" ">
<path fill="none" stroke="#63b8ff" d="M671.83,-162.08C660.13,-131.43 633.83,-73.21 592.75,-40.25 586.42,-35.17 579.01,-31.1 571.37,-27.85"/>
<polygon fill="#63b8ff" stroke="#63b8ff" points="668.88,-163.18 675.6,-171.37 675.45,-160.78 668.88,-163.18"/>
</a>
</g>
</g>
<!-- Node4 -->
<g id="Node000004" class="node">
<title>Node4</title>
<g id="a_Node000004"><a xlink:href="../../df/d10/class_spin_input.html#a6003943f42ce6252105e2fd51e97fadb" target="_top" xlink:title=" ">
<polygon fill="white" stroke="#666666" points="104.5,-211.88 0,-211.88 0,-192.62 104.5,-192.62 104.5,-211.88"/>
<text text-anchor="middle" x="52.25" y="-198.38" font-family="Helvetica,sans-Serif" font-size="10.00">SpinInput::SpinInput</text>
</a>
</g>
</g>
<!-- Node3&#45;&gt;Node4 -->
<g id="edge3_Node000003_Node000004" class="edge">
<title>Node3&#45;&gt;Node4</title>
<g id="a_edge3_Node000003_Node000004"><a xlink:title=" ">
<path fill="none" stroke="#63b8ff" d="M129.27,-202.25C121.16,-202.25 112.85,-202.25 104.85,-202.25"/>
<polygon fill="#63b8ff" stroke="#63b8ff" points="129.15,-205.75 139.15,-202.25 129.15,-198.75 129.15,-205.75"/>
</a>
</g>
</g>
<!-- Node5&#45;&gt;Node3 -->
<g id="edge5_Node000005_Node000003" class="edge">
<title>Node5&#45;&gt;Node3</title>
<g id="a_edge5_Node000005_Node000003"><a xlink:title=" ">
<path fill="none" stroke="#63b8ff" d="M283.87,-245.17C278.8,-243.63 273.78,-241.98 269,-240.25 247.04,-232.29 222.92,-220.61 206.71,-212.3"/>
<polygon fill="#63b8ff" stroke="#63b8ff" points="282.67,-248.75 293.24,-248.17 284.61,-242.03 282.67,-248.75"/>
</a>
</g>
</g>
<!-- Node6&#45;&gt;Node3 -->
<g id="edge7_Node000006_Node000003" class="edge">
<title>Node6&#45;&gt;Node3</title>
<g id="a_edge7_Node000006_Node000003"><a xlink:title=" ">
<path fill="none" stroke="#63b8ff" d="M269.56,-212.66C257.3,-211.1 244.79,-209.51 233.36,-208.05"/>
<polygon fill="#63b8ff" stroke="#63b8ff" points="268.86,-216.22 279.23,-214.01 269.75,-209.28 268.86,-216.22"/>
</a>
</g>
</g>
<!-- Node8&#45;&gt;Node3 -->
<g id="edge10_Node000008_Node000003" class="edge">
<title>Node8&#45;&gt;Node3</title>
<g id="a_edge10_Node000008_Node000003"><a xlink:title=" ">
<path fill="none" stroke="#63b8ff" d="M449.17,-156.99C384.61,-168.17 289.26,-184.68 233.33,-194.36"/>
<polygon fill="#63b8ff" stroke="#63b8ff" points="449.39,-160.33 458.65,-155.18 448.2,-153.44 449.39,-160.33"/>
</a>
</g>
</g>
<!-- Node9 -->
<g id="Node000009" class="node">
<title>Node9</title>
<g id="a_Node000009"><a xlink:href="../../df/d10/class_spin_input.html#a3ca1de27e10d6815fb1599098a5f3c60" target="_top" xlink:title=" ">
<polygon fill="white" stroke="#666666" points="407.25,-154.88 269,-154.88 269,-135.62 407.25,-135.62 407.25,-154.88"/>
<text text-anchor="middle" x="338.12" y="-141.38" font-family="Helvetica,sans-Serif" font-size="10.00">SpinInput::onTextLostFocus</text>
</a>
</g>
</g>
<!-- Node8&#45;&gt;Node9 -->
<g id="edge11_Node000008_Node000009" class="edge">
<title>Node8&#45;&gt;Node9</title>
<g id="a_edge11_Node000008_Node000009"><a xlink:title=" ">
<path fill="none" stroke="#63b8ff" d="M449,-145.25C435.39,-145.25 421.08,-145.25 407.46,-145.25"/>
<polygon fill="#63b8ff" stroke="#63b8ff" points="448.74,-148.75 458.74,-145.25 448.74,-141.75 448.74,-148.75"/>
</a>
</g>
</g>
<!-- Node9&#45;&gt;Node3 -->
<g id="edge12_Node000009_Node000003" class="edge">
<title>Node9&#45;&gt;Node3</title>
<g id="a_edge12_Node000009_Node000003"><a xlink:title=" ">
<path fill="none" stroke="#63b8ff" d="M297.29,-158.93C287.98,-162.23 278.12,-165.8 269,-169.25 249.64,-176.59 227.92,-185.44 211.81,-192.13"/>
<polygon fill="#63b8ff" stroke="#63b8ff" points="298.23,-161.96 306.51,-155.34 295.91,-155.35 298.23,-161.96"/>
</a>
</g>
</g>
<!-- Node10&#45;&gt;Node3 -->
<g id="edge14_Node000010_Node000003" class="edge">
<title>Node10&#45;&gt;Node3</title>
<g id="a_edge14_Node000010_Node000003"><a xlink:title=" ">
<path fill="none" stroke="#63b8ff" d="M278.57,-121.63C275.27,-123.03 272.05,-124.56 269,-126.25 237.56,-143.64 208.92,-175.88 195.6,-192.21"/>
<polygon fill="#63b8ff" stroke="#63b8ff" points="279.55,-124.63 287.69,-117.85 277.1,-118.07 279.55,-124.63"/>
</a>
</g>
</g>
</g>
</svg>
