<?xml version="1.0" encoding="UTF-8" standalone="no"?>
<!DOCTYPE svg PUBLIC "-//W3C//DTD SVG 1.1//EN"
 "http://www.w3.org/Graphics/SVG/1.1/DTD/svg11.dtd">
<!-- Generated by graphviz version 8.1.0 (20230707.0739)
 -->
<!-- Title: Slic3r::GUI::PrintHostQueueDialog::on_error Pages: 1 -->
<!--zoomable 229 -->

<svg id="main" version="1.1" xmlns="http://www.w3.org/2000/svg" xmlns:xlink="http://www.w3.org/1999/xlink" xml:space="preserve" onload="init(evt)">
<style type="text/css"><![CDATA[
.node, .edge {opacity: 0.7;}
.node.selected, .edge.selected {opacity: 1;}
.edge:hover path { stroke: red; }
.edge:hover polygon { stroke: red; fill: red; }
]]></style>

<defs>
  <circle id="rim" cx="0" cy="0" r="7"/>
  <circle id="rim2" cx="0" cy="0" r="3.5"/>
  <g id="zoomPlus">
    <use xlink:href="#rim" fill="#404040"><set attributeName="fill" to="#808080" begin="zoomplus.mouseover" end="zoomplus.mouseout"/></use>
    <path d="M-4,0h8M0,-4v8" fill="none" stroke="white" stroke-width="1.5" pointer-events="none"/>
  </g>
  <g id="zoomMin">
    <use xlink:href="#rim" fill="#404040"><set attributeName="fill" to="#808080" begin="zoomminus.mouseover" end="zoomminus.mouseout"/></use>
    <path d="M-4,0h8" fill="none" stroke="white" stroke-width="1.5" pointer-events="none"/>
  </g>
  <g id="arrowUp" transform="translate(30 24)">
    <use xlink:href="#rim"/>
    <path pointer-events="none" fill="none" stroke="white" stroke-width="1.5" d="M0,-3.0v7 M-2.5,-0.5L0,-3.0L2.5,-0.5"/>
  </g>
  <g id="arrowRight" transform="rotate(90) translate(36 -43)">
    <use xlink:href="#rim"/>
    <path pointer-events="none" fill="none" stroke="white" stroke-width="1.5" d="M0,-3.0v7 M-2.5,-0.5L0,-3.0L2.5,-0.5"/>
  </g>
  <g id="arrowDown" transform="rotate(180) translate(-30 -48)">
    <use xlink:href="#rim"/>
    <path pointer-events="none" fill="none" stroke="white" stroke-width="1.5" d="M0,-3.0v7 M-2.5,-0.5L0,-3.0L2.5,-0.5"/>
  </g>
  <g id="arrowLeft" transform="rotate(270) translate(-36 17)">
    <use xlink:href="#rim"/>
    <path pointer-events="none" fill="none" stroke="white" stroke-width="1.5" d="M0,-3.0v7 M-2.5,-0.5L0,-3.0L2.5,-0.5"/>
  </g>
  <g id="resetDef">
    <use xlink:href="#rim2" fill="#404040"><set attributeName="fill" to="#808080" begin="reset.mouseover" end="reset.mouseout"/></use>
  </g>
</defs>
<script type="application/ecmascript">
var viewWidth = 502;
var viewHeight = 229;
var sectionId = 'dynsection-12';
</script>
<script type="application/ecmascript" xlink:href="../../svg.min.js"/>
<svg id="graph" class="graph">
<g id="viewport">
<title>Slic3r::GUI::PrintHostQueueDialog::on_error</title>
<!-- Node1 -->
<g id="Node000001" class="node">
<title>Node1</title>
<g id="a_Node000001"><a xlink:title=" ">
<polygon fill="#999999" stroke="#666666" points="140.5,-128.5 0,-128.5 0,-98 140.5,-98 140.5,-128.5"/>
<text text-anchor="start" x="8" y="-115" font-family="Helvetica,sans-Serif" font-size="10.00">Slic3r::GUI::PrintHostQueue</text>
<text text-anchor="middle" x="70.25" y="-103.75" font-family="Helvetica,sans-Serif" font-size="10.00">Dialog::on_error</text>
</a>
</g>
</g>
<!-- Node2 -->
<g id="Node000002" class="node">
<title>Node2</title>
<g id="a_Node000002"><a xlink:href="../../d9/d45/namespace_slic3r_1_1_g_u_i.html#ac911e01665ff9c00414a1d5d0352de74" target="_top" xlink:title=" ">
<polygon fill="white" stroke="#666666" points="299.75,-202.88 193.75,-202.88 193.75,-183.62 299.75,-183.62 299.75,-202.88"/>
<text text-anchor="middle" x="246.75" y="-189.38" font-family="Helvetica,sans-Serif" font-size="10.00">Slic3r::GUI::from_u8</text>
</a>
</g>
</g>
<!-- Node1&#45;&gt;Node2 -->
<g id="edge1_Node000001_Node000002" class="edge">
<title>Node1&#45;&gt;Node2</title>
<g id="a_edge1_Node000001_Node000002"><a xlink:title=" ">
<path fill="none" stroke="#63b8ff" d="M93.69,-128.97C114.37,-142.84 146.33,-162.73 176.5,-175.25 180.63,-176.96 184.97,-178.55 189.37,-180.02"/>
<polygon fill="#63b8ff" stroke="#63b8ff" points="188.12,-183.6 198.71,-183.2 190.19,-176.91 188.12,-183.6"/>
</a>
</g>
</g>
<!-- Node3 -->
<g id="Node000003" class="node">
<title>Node3</title>
<g id="a_Node000003"><a xlink:href="../../dd/dd5/namespaceboost_1_1nowide.html#a57f51167f2006647d49ff42859aff064" target="_top" xlink:title="Convert NULL terminated UTF source string to NULL terminated output string of size at most output_siz...">
<polygon fill="white" stroke="#666666" points="302.75,-165.88 190.75,-165.88 190.75,-146.62 302.75,-146.62 302.75,-165.88"/>
<text text-anchor="middle" x="246.75" y="-152.38" font-family="Helvetica,sans-Serif" font-size="10.00">boost::nowide::narrow</text>
</a>
</g>
</g>
<!-- Node1&#45;&gt;Node3 -->
<g id="edge3_Node000001_Node000003" class="edge">
<title>Node1&#45;&gt;Node3</title>
<g id="a_edge3_Node000001_Node000003"><a xlink:title=" ">
<path fill="none" stroke="#63b8ff" d="M134.74,-128.9C154.29,-133.71 175.57,-138.96 194.21,-143.55"/>
<polygon fill="#63b8ff" stroke="#63b8ff" points="193.3,-147.18 203.85,-146.17 194.98,-140.38 193.3,-147.18"/>
</a>
</g>
</g>
<!-- Node5 -->
<g id="Node000005" class="node">
<title>Node5</title>
<g id="a_Node000005"><a xlink:href="../../d2/d28/class_slic3r_1_1_g_u_i_1_1_print_host_queue_dialog.html#abdd1322129b2a293a8ff9b93e1d37968" target="_top" xlink:title=" ">
<polygon fill="white" stroke="#666666" points="317,-128.5 176.5,-128.5 176.5,-98 317,-98 317,-128.5"/>
<text text-anchor="start" x="184.5" y="-115" font-family="Helvetica,sans-Serif" font-size="10.00">Slic3r::GUI::PrintHostQueue</text>
<text text-anchor="middle" x="246.75" y="-103.75" font-family="Helvetica,sans-Serif" font-size="10.00">Dialog::on_list_select</text>
</a>
</g>
</g>
<!-- Node1&#45;&gt;Node5 -->
<g id="edge5_Node000001_Node000005" class="edge">
<title>Node1&#45;&gt;Node5</title>
<g id="a_edge5_Node000001_Node000005"><a xlink:title=" ">
<path fill="none" stroke="#63b8ff" d="M140.97,-113.25C148.93,-113.25 157.1,-113.25 165.19,-113.25"/>
<polygon fill="#63b8ff" stroke="#63b8ff" points="165.14,-116.75 175.14,-113.25 165.14,-109.75 165.14,-116.75"/>
</a>
</g>
</g>
<!-- Node7 -->
<g id="Node000007" class="node">
<title>Node7</title>
<g id="a_Node000007"><a xlink:href="../../d2/d28/class_slic3r_1_1_g_u_i_1_1_print_host_queue_dialog.html#a292ff3a96897851e8e8c0ea5bd334fb5" target="_top" xlink:title=" ">
<polygon fill="white" stroke="#666666" points="317,-79.5 176.5,-79.5 176.5,-49 317,-49 317,-79.5"/>
<text text-anchor="start" x="184.5" y="-66" font-family="Helvetica,sans-Serif" font-size="10.00">Slic3r::GUI::PrintHostQueue</text>
<text text-anchor="middle" x="246.75" y="-54.75" font-family="Helvetica,sans-Serif" font-size="10.00">Dialog::set_state</text>
</a>
</g>
</g>
<!-- Node1&#45;&gt;Node7 -->
<g id="edge7_Node000001_Node000007" class="edge">
<title>Node1&#45;&gt;Node7</title>
<g id="a_edge7_Node000001_Node000007"><a xlink:title=" ">
<path fill="none" stroke="#63b8ff" d="M126.94,-97.61C143.55,-92.95 161.91,-87.79 179.14,-82.96"/>
<polygon fill="#63b8ff" stroke="#63b8ff" points="180.01,-86.07 188.69,-79.99 178.11,-79.33 180.01,-86.07"/>
</a>
</g>
</g>
<!-- Node9 -->
<g id="Node000009" class="node">
<title>Node9</title>
<g id="a_Node000009"><a xlink:href="../../d9/d45/namespace_slic3r_1_1_g_u_i.html#a0bc89a10493a9b11b4462f72adacfa15" target="_top" xlink:title=" ">
<polygon fill="white" stroke="#666666" points="306.12,-27.88 187.38,-27.88 187.38,-8.62 306.12,-8.62 306.12,-27.88"/>
<text text-anchor="middle" x="246.75" y="-14.38" font-family="Helvetica,sans-Serif" font-size="10.00">Slic3r::GUI::show_error</text>
</a>
</g>
</g>
<!-- Node1&#45;&gt;Node9 -->
<g id="edge9_Node000001_Node000009" class="edge">
<title>Node1&#45;&gt;Node9</title>
<g id="a_edge9_Node000001_Node000009"><a xlink:title=" ">
<path fill="none" stroke="#63b8ff" d="M89.95,-97.68C110.2,-81.47 143.97,-56.24 176.5,-40.25 182.89,-37.11 189.83,-34.28 196.76,-31.79"/>
<polygon fill="#63b8ff" stroke="#63b8ff" points="197.5,-34.89 205.85,-28.37 195.26,-28.26 197.5,-34.89"/>
</a>
</g>
</g>
<!-- Node2&#45;&gt;Node2 -->
<g id="edge2_Node000002_Node000002" class="edge">
<title>Node2&#45;&gt;Node2</title>
<g id="a_edge2_Node000002_Node000002"><a xlink:title=" ">
<path fill="none" stroke="#63b8ff" d="M219.12,-203.16C206.51,-211.77 215.72,-220.88 246.75,-220.88 265.66,-220.88 276.46,-217.49 279.17,-212.9"/>
<polygon fill="#63b8ff" stroke="#63b8ff" points="281.93,-211.6 274.38,-204.16 275.65,-214.68 281.93,-211.6"/>
</a>
</g>
</g>
<!-- Node4 -->
<g id="Node000004" class="node">
<title>Node4</title>
<g id="a_Node000004"><a xlink:href="../../dd/dd5/namespaceboost_1_1nowide.html#abc7dfc4ebb4c462ec51da24506496b33" target="_top" xlink:title="Template function that converts a buffer of UTF sequences in range [source_begin,source_end) to the o...">
<polygon fill="white" stroke="#666666" points="476.25,-177.5 370.25,-177.5 370.25,-147 476.25,-147 476.25,-177.5"/>
<text text-anchor="start" x="378.25" y="-164" font-family="Helvetica,sans-Serif" font-size="10.00">boost::nowide::basic</text>
<text text-anchor="middle" x="423.25" y="-152.75" font-family="Helvetica,sans-Serif" font-size="10.00">_convert</text>
</a>
</g>
</g>
<!-- Node3&#45;&gt;Node4 -->
<g id="edge4_Node000003_Node000004" class="edge">
<title>Node3&#45;&gt;Node4</title>
<g id="a_edge4_Node000003_Node000004"><a xlink:title=" ">
<path fill="none" stroke="#63b8ff" d="M302.96,-158.15C320.74,-158.76 340.58,-159.44 358.9,-160.07"/>
<polygon fill="#63b8ff" stroke="#63b8ff" points="358.66,-163.6 368.78,-160.45 358.9,-156.6 358.66,-163.6"/>
</a>
</g>
</g>
<!-- Node6 -->
<g id="Node000006" class="node">
<title>Node6</title>
<g id="a_Node000006"><a xlink:href="../../d2/d28/class_slic3r_1_1_g_u_i_1_1_print_host_queue_dialog.html#ab0cd0b451424645ab362494e8d2325d1" target="_top" xlink:title=" ">
<polygon fill="white" stroke="#666666" points="493.5,-128.5 353,-128.5 353,-98 493.5,-98 493.5,-128.5"/>
<text text-anchor="start" x="361" y="-115" font-family="Helvetica,sans-Serif" font-size="10.00">Slic3r::GUI::PrintHostQueue</text>
<text text-anchor="middle" x="423.25" y="-103.75" font-family="Helvetica,sans-Serif" font-size="10.00">Dialog::get_state</text>
</a>
</g>
</g>
<!-- Node5&#45;&gt;Node6 -->
<g id="edge6_Node000005_Node000006" class="edge">
<title>Node5&#45;&gt;Node6</title>
<g id="a_edge6_Node000005_Node000006"><a xlink:title=" ">
<path fill="none" stroke="#63b8ff" d="M317.47,-113.25C325.43,-113.25 333.6,-113.25 341.69,-113.25"/>
<polygon fill="#63b8ff" stroke="#63b8ff" points="341.64,-116.75 351.64,-113.25 341.64,-109.75 341.64,-116.75"/>
</a>
</g>
</g>
<!-- Node8 -->
<g id="Node000008" class="node">
<title>Node8</title>
<g id="a_Node000008"><a xlink:href="../../d2/d28/class_slic3r_1_1_g_u_i_1_1_print_host_queue_dialog.html#a3456965107f1dcddc65be20e9bcba4cc" target="_top" xlink:title=" ">
<polygon fill="white" stroke="#666666" points="493.5,-79.5 353,-79.5 353,-49 493.5,-49 493.5,-79.5"/>
<text text-anchor="start" x="361" y="-66" font-family="Helvetica,sans-Serif" font-size="10.00">Slic3r::GUI::PrintHostQueue</text>
<text text-anchor="middle" x="423.25" y="-54.75" font-family="Helvetica,sans-Serif" font-size="10.00">Dialog::save_user_data</text>
</a>
</g>
</g>
<!-- Node7&#45;&gt;Node8 -->
<g id="edge8_Node000007_Node000008" class="edge">
<title>Node7&#45;&gt;Node8</title>
<g id="a_edge8_Node000007_Node000008"><a xlink:title=" ">
<path fill="none" stroke="#63b8ff" d="M317.47,-64.25C325.43,-64.25 333.6,-64.25 341.69,-64.25"/>
<polygon fill="#63b8ff" stroke="#63b8ff" points="341.64,-67.75 351.64,-64.25 341.64,-60.75 341.64,-67.75"/>
</a>
</g>
</g>
<!-- Node10 -->
<g id="Node000010" class="node">
<title>Node10</title>
<g id="a_Node000010"><a xlink:href="../../d7/d9a/class_slic3r_1_1_g_u_i_1_1_d_p_i_aware.html#a80ad44dab63cbb16dd41df84ba9e1be9" target="_top" xlink:title=" ">
<polygon fill="white" stroke="#666666" points="481.12,-30.5 365.38,-30.5 365.38,0 481.12,0 481.12,-30.5"/>
<text text-anchor="start" x="373.38" y="-17" font-family="Helvetica,sans-Serif" font-size="10.00">Slic3r::GUI::DPIAware</text>
<text text-anchor="middle" x="423.25" y="-5.75" font-family="Helvetica,sans-Serif" font-size="10.00">::ShowModal</text>
</a>
</g>
</g>
<!-- Node9&#45;&gt;Node10 -->
<g id="edge10_Node000009_Node000010" class="edge">
<title>Node9&#45;&gt;Node10</title>
<g id="a_edge10_Node000009_Node000010"><a xlink:title=" ">
<path fill="none" stroke="#63b8ff" d="M306.34,-17.24C321.71,-16.98 338.41,-16.69 354.22,-16.42"/>
<polygon fill="#63b8ff" stroke="#63b8ff" points="354.06,-19.91 364,-16.23 353.94,-12.91 354.06,-19.91"/>
</a>
</g>
</g>
</g>
</svg>

<g id="navigator" transform="translate(0 0)" fill="#404254">
  <rect fill="#f2f5e9" fill-opacity="0.5" stroke="#606060" stroke-width=".5" x="0" y="0" width="60" height="60"/>
  <use id="zoomplus" xlink:href="#zoomPlus" x="17" y="9" onmousedown="handleZoom(evt,'in')"/>
  <use id="zoomminus" xlink:href="#zoomMin" x="42" y="9" onmousedown="handleZoom(evt,'out')"/>
  <use id="reset" xlink:href="#resetDef" x="30" y="36" onmousedown="handleReset()"/>
   <use id="arrowup" xlink:href="#arrowUp" x="0" y="0" onmousedown="handlePan(0,-1)"/>
  <use id="arrowright" xlink:href="#arrowRight" x="0" y="0" onmousedown="handlePan(1,0)"/>
  <use id="arrowdown" xlink:href="#arrowDown" x="0" y="0" onmousedown="handlePan(0,1)"/>
  <use id="arrowleft" xlink:href="#arrowLeft" x="0" y="0" onmousedown="handlePan(-1,0)"/>
</g>
<svg viewBox="0 0 15 15" width="100%" height="30px" preserveAspectRatio="xMaxYMin meet">
 <g id="arrow_out" transform="scale(0.3 0.3)">
  <a xlink:href="class_slic3r_1_1_g_u_i_1_1_print_host_queue_dialog_a54558590d2ab7a5c7a3b5a4ef6980d99_cgraph_org.svg" target="_base">
   <rect id="button" ry="5" rx="5" y="6" x="6" height="38" width="38"
        fill="#f2f5e9" fill-opacity="0.5" stroke="#606060" stroke-width="1.0"/>
   <path id="arrow"
     d="M 11.500037,31.436501 C 11.940474,20.09759 22.043105,11.32322 32.158766,21.979434 L 37.068811,17.246167 C 37.068811,17.246167 37.088388,32 37.088388,32 L 22.160133,31.978069 C 22.160133,31.978069 26.997745,27.140456 26.997745,27.140456 C 18.528582,18.264221 13.291696,25.230495 11.500037,31.436501 z"
     style="fill:#404040;"/>
  </a>
 </g>
</svg>

<style type='text/css'>
<![CDATA[
[data-mouse-over-selected='false'] { opacity: 0.7; }
[data-mouse-over-selected='true']  { opacity: 1.0; }
]]>
</style>
<script type="application/ecmascript"><![CDATA[
document.addEventListener('DOMContentLoaded', (event) => {
  highlightEdges();
  highlightAdjacentNodes();
});
]]></script>
</svg>
