<?xml version="1.0" encoding="UTF-8" standalone="no"?>
<!DOCTYPE svg PUBLIC "-//W3C//DTD SVG 1.1//EN"
 "http://www.w3.org/Graphics/SVG/1.1/DTD/svg11.dtd">
<!-- Generated by graphviz version 8.1.0 (20230707.0739)
 -->
<!-- Title: Slic3r::Preset::set_dirty Pages: 1 -->
<svg width="554pt" height="88pt"
 viewBox="0.00 0.00 554.25 87.50" xmlns="http://www.w3.org/2000/svg" xmlns:xlink="http://www.w3.org/1999/xlink">
<g id="graph0" class="graph" transform="scale(1 1) rotate(0) translate(4 83.5)">
<title>Slic3r::Preset::set_dirty</title>
<!-- Node1 -->
<g id="Node000001" class="node">
<title>Node1</title>
<g id="a_Node000001"><a xlink:title=" ">
<polygon fill="#999999" stroke="#666666" points="94.75,-54.5 0,-54.5 0,-24 94.75,-24 94.75,-54.5"/>
<text text-anchor="start" x="8" y="-41" font-family="Helvetica,sans-Serif" font-size="10.00">Slic3r::Preset::set</text>
<text text-anchor="middle" x="47.38" y="-29.75" font-family="Helvetica,sans-Serif" font-size="10.00">_dirty</text>
</a>
</g>
</g>
<!-- Node2 -->
<g id="Node000002" class="node">
<title>Node2</title>
<g id="a_Node000002"><a xlink:href="../../d5/df0/class_slic3r_1_1_dynamic_config.html#a4e5634b322de584f63f8cf9c8a1c1853" target="_top" xlink:title=" ">
<polygon fill="white" stroke="#666666" points="245,-54.5 130.75,-54.5 130.75,-24 245,-24 245,-54.5"/>
<text text-anchor="start" x="138.75" y="-41" font-family="Helvetica,sans-Serif" font-size="10.00">Slic3r::DynamicConfig</text>
<text text-anchor="middle" x="187.88" y="-29.75" font-family="Helvetica,sans-Serif" font-size="10.00">::diff</text>
</a>
</g>
</g>
<!-- Node1&#45;&gt;Node2 -->
<g id="edge1_Node000001_Node000002" class="edge">
<title>Node1&#45;&gt;Node2</title>
<g id="a_edge1_Node000001_Node000002"><a xlink:title=" ">
<path fill="none" stroke="#63b8ff" d="M94.88,-39.25C102.86,-39.25 111.29,-39.25 119.68,-39.25"/>
<polygon fill="#63b8ff" stroke="#63b8ff" points="119.64,-42.75 129.64,-39.25 119.64,-35.75 119.64,-42.75"/>
</a>
</g>
</g>
<!-- Node2&#45;&gt;Node2 -->
<g id="edge2_Node000002_Node000002" class="edge">
<title>Node2&#45;&gt;Node2</title>
<g id="a_edge2_Node000002_Node000002"><a xlink:title=" ">
<path fill="none" stroke="#63b8ff" d="M162.98,-54.99C157.9,-64.06 166.2,-72.5 187.88,-72.5 200.07,-72.5 208.03,-69.83 211.76,-65.88"/>
<polygon fill="#63b8ff" stroke="#63b8ff" points="215.33,-66.27 212.77,-55.99 208.36,-65.62 215.33,-66.27"/>
</a>
</g>
</g>
<!-- Node3 -->
<g id="Node000003" class="node">
<title>Node3</title>
<g id="a_Node000003"><a xlink:href="../../de/db8/namespace_slic3r.html#a25550fe74a5654f39ed603ac7360e547" target="_top" xlink:title=" ">
<polygon fill="white" stroke="#666666" points="396,-54.5 281,-54.5 281,-24 396,-24 396,-54.5"/>
<text text-anchor="start" x="289" y="-41" font-family="Helvetica,sans-Serif" font-size="10.00">Slic3r::dynamic_config</text>
<text text-anchor="middle" x="338.5" y="-29.75" font-family="Helvetica,sans-Serif" font-size="10.00">_iterate</text>
</a>
</g>
</g>
<!-- Node2&#45;&gt;Node3 -->
<g id="edge3_Node000002_Node000003" class="edge">
<title>Node2&#45;&gt;Node3</title>
<g id="a_edge3_Node000002_Node000003"><a xlink:title=" ">
<path fill="none" stroke="#63b8ff" d="M245.49,-39.25C253.38,-39.25 261.56,-39.25 269.64,-39.25"/>
<polygon fill="#63b8ff" stroke="#63b8ff" points="269.55,-42.75 279.55,-39.25 269.55,-35.75 269.55,-42.75"/>
</a>
</g>
</g>
<!-- Node4 -->
<g id="Node000004" class="node">
<title>Node4</title>
<g id="a_Node000004"><a xlink:href="../../d5/df0/class_slic3r_1_1_dynamic_config.html#a42a0781feba8bc966589bcbc81fb368e" target="_top" xlink:title=" ">
<polygon fill="white" stroke="#666666" points="546.25,-79.5 432,-79.5 432,-49 546.25,-49 546.25,-79.5"/>
<text text-anchor="start" x="440" y="-66" font-family="Helvetica,sans-Serif" font-size="10.00">Slic3r::DynamicConfig</text>
<text text-anchor="middle" x="489.12" y="-54.75" font-family="Helvetica,sans-Serif" font-size="10.00">::cbegin</text>
</a>
</g>
</g>
<!-- Node3&#45;&gt;Node4 -->
<g id="edge4_Node000003_Node000004" class="edge">
<title>Node3&#45;&gt;Node4</title>
<g id="a_edge4_Node000003_Node000004"><a xlink:title=" ">
<path fill="none" stroke="#63b8ff" d="M396.11,-48.77C404.21,-50.14 412.61,-51.55 420.89,-52.94"/>
<polygon fill="#63b8ff" stroke="#63b8ff" points="420.23,-56.55 430.67,-54.75 421.39,-49.64 420.23,-56.55"/>
</a>
</g>
</g>
<!-- Node5 -->
<g id="Node000005" class="node">
<title>Node5</title>
<g id="a_Node000005"><a xlink:href="../../d5/df0/class_slic3r_1_1_dynamic_config.html#a90d9792753662d6f22e3aaffe950257b" target="_top" xlink:title=" ">
<polygon fill="white" stroke="#666666" points="546.25,-30.5 432,-30.5 432,0 546.25,0 546.25,-30.5"/>
<text text-anchor="start" x="440" y="-17" font-family="Helvetica,sans-Serif" font-size="10.00">Slic3r::DynamicConfig</text>
<text text-anchor="middle" x="489.12" y="-5.75" font-family="Helvetica,sans-Serif" font-size="10.00">::cend</text>
</a>
</g>
</g>
<!-- Node3&#45;&gt;Node5 -->
<g id="edge5_Node000003_Node000005" class="edge">
<title>Node3&#45;&gt;Node5</title>
<g id="a_edge5_Node000003_Node000005"><a xlink:title=" ">
<path fill="none" stroke="#63b8ff" d="M396.11,-30.11C404.21,-28.8 412.61,-27.44 420.89,-26.11"/>
<polygon fill="#63b8ff" stroke="#63b8ff" points="421.36,-29.42 430.67,-24.37 420.24,-22.51 421.36,-29.42"/>
</a>
</g>
</g>
</g>
</svg>
