<?xml version="1.0" encoding="UTF-8" standalone="no"?>
<!DOCTYPE svg PUBLIC "-//W3C//DTD SVG 1.1//EN"
 "http://www.w3.org/Graphics/SVG/1.1/DTD/svg11.dtd">
<!-- Generated by graphviz version 8.1.0 (20230707.0739)
 -->
<!-- Title: Slic3r::GUI::GLCanvas3D::_init_assemble_view_toolbar Pages: 1 -->
<svg width="1306pt" height="609pt"
 viewBox="0.00 0.00 1306.00 609.13" xmlns="http://www.w3.org/2000/svg" xmlns:xlink="http://www.w3.org/1999/xlink">
<g id="graph0" class="graph" transform="scale(1 1) rotate(0) translate(4 605.13)">
<title>Slic3r::GUI::GLCanvas3D::_init_assemble_view_toolbar</title>
<!-- Node1 -->
<g id="Node000001" class="node">
<title>Node1</title>
<g id="a_Node000001"><a xlink:title=" ">
<polygon fill="#999999" stroke="#666666" points="1298,-257.75 1168,-257.75 1168,-216 1298,-216 1298,-257.75"/>
<text text-anchor="start" x="1176" y="-244.25" font-family="Helvetica,sans-Serif" font-size="10.00">Slic3r::GUI::GLCanvas3D</text>
<text text-anchor="start" x="1176" y="-233" font-family="Helvetica,sans-Serif" font-size="10.00">::_init_assemble_view</text>
<text text-anchor="middle" x="1233" y="-221.75" font-family="Helvetica,sans-Serif" font-size="10.00">_toolbar</text>
</a>
</g>
</g>
<!-- Node2 -->
<g id="Node000002" class="node">
<title>Node2</title>
<g id="a_Node000002"><a xlink:href="../../d0/d2b/class_slic3r_1_1_g_u_i_1_1_g_l_canvas3_d.html#ab12e77124bf85a59b9e3135daa9f0abd" target="_top" xlink:title=" ">
<polygon fill="white" stroke="#666666" points="1132,-252.13 1002,-252.13 1002,-221.63 1132,-221.63 1132,-252.13"/>
<text text-anchor="start" x="1010" y="-238.63" font-family="Helvetica,sans-Serif" font-size="10.00">Slic3r::GUI::GLCanvas3D</text>
<text text-anchor="middle" x="1067" y="-227.38" font-family="Helvetica,sans-Serif" font-size="10.00">::_init_toolbars</text>
</a>
</g>
</g>
<!-- Node1&#45;&gt;Node2 -->
<g id="edge1_Node000001_Node000002" class="edge">
<title>Node1&#45;&gt;Node2</title>
<g id="a_edge1_Node000001_Node000002"><a xlink:title=" ">
<path fill="none" stroke="#63b8ff" d="M1156.69,-236.88C1148.58,-236.88 1140.39,-236.88 1132.43,-236.88"/>
<polygon fill="#63b8ff" stroke="#63b8ff" points="1156.65,-240.38 1166.65,-236.88 1156.65,-233.38 1156.65,-240.38"/>
</a>
</g>
</g>
<!-- Node3 -->
<g id="Node000003" class="node">
<title>Node3</title>
<g id="a_Node000003"><a xlink:href="../../d0/d2b/class_slic3r_1_1_g_u_i_1_1_g_l_canvas3_d.html#a9e7da7d2431b71d4e5dccced771b4735" target="_top" xlink:title=" ">
<polygon fill="white" stroke="#666666" points="966,-252.13 836,-252.13 836,-221.63 966,-221.63 966,-252.13"/>
<text text-anchor="start" x="844" y="-238.63" font-family="Helvetica,sans-Serif" font-size="10.00">Slic3r::GUI::GLCanvas3D</text>
<text text-anchor="middle" x="901" y="-227.38" font-family="Helvetica,sans-Serif" font-size="10.00">::init</text>
</a>
</g>
</g>
<!-- Node2&#45;&gt;Node3 -->
<g id="edge2_Node000002_Node000003" class="edge">
<title>Node2&#45;&gt;Node3</title>
<g id="a_edge2_Node000002_Node000003"><a xlink:title=" ">
<path fill="none" stroke="#63b8ff" d="M990.69,-236.88C982.58,-236.88 974.39,-236.88 966.43,-236.88"/>
<polygon fill="#63b8ff" stroke="#63b8ff" points="990.65,-240.38 1000.65,-236.88 990.65,-233.38 990.65,-240.38"/>
</a>
</g>
</g>
<!-- Node4 -->
<g id="Node000004" class="node">
<title>Node4</title>
<g id="a_Node000004"><a xlink:href="../../d9/d01/class_slic3r_1_1_g_u_i_1_1_g_u_i___app.html#a92b16a3ad6111d682dd4d779531e674e" target="_top" xlink:title=" ">
<polygon fill="white" stroke="#666666" points="621.62,-601.13 510.38,-601.13 510.38,-570.63 621.62,-570.63 621.62,-601.13"/>
<text text-anchor="start" x="518.38" y="-587.63" font-family="Helvetica,sans-Serif" font-size="10.00">Slic3r::GUI::GUI_App</text>
<text text-anchor="middle" x="566" y="-576.38" font-family="Helvetica,sans-Serif" font-size="10.00">::post_init</text>
</a>
</g>
</g>
<!-- Node3&#45;&gt;Node4 -->
<g id="edge3_Node000003_Node000004" class="edge">
<title>Node3&#45;&gt;Node4</title>
<g id="a_edge3_Node000003_Node000004"><a xlink:title=" ">
<path fill="none" stroke="#63b8ff" d="M885.86,-261.95C850.82,-321.94 754.08,-475.1 634,-560.88 629.05,-564.42 623.54,-567.51 617.87,-570.21"/>
<polygon fill="#63b8ff" stroke="#63b8ff" points="889.34,-263.92 891.31,-253.51 883.28,-260.42 889.34,-263.92"/>
</a>
</g>
</g>
<!-- Node5 -->
<g id="Node000005" class="node">
<title>Node5</title>
<g id="a_Node000005"><a xlink:href="../../d0/d2b/class_slic3r_1_1_g_u_i_1_1_g_l_canvas3_d.html#ab2a817afa6640d4e97519ea4f61c7206" target="_top" xlink:title=" ">
<polygon fill="white" stroke="#666666" points="800,-231.13 670,-231.13 670,-200.63 800,-200.63 800,-231.13"/>
<text text-anchor="start" x="678" y="-217.63" font-family="Helvetica,sans-Serif" font-size="10.00">Slic3r::GUI::GLCanvas3D</text>
<text text-anchor="middle" x="735" y="-206.38" font-family="Helvetica,sans-Serif" font-size="10.00">::render</text>
</a>
</g>
</g>
<!-- Node3&#45;&gt;Node5 -->
<g id="edge4_Node000003_Node000005" class="edge">
<title>Node3&#45;&gt;Node5</title>
<g id="a_edge4_Node000003_Node000005"><a xlink:title=" ">
<path fill="none" stroke="#63b8ff" d="M824.96,-227.27C816.77,-226.22 808.48,-225.16 800.43,-224.13"/>
<polygon fill="#63b8ff" stroke="#63b8ff" points="824.29,-230.84 834.65,-228.64 825.18,-223.9 824.29,-230.84"/>
</a>
</g>
</g>
<!-- Node5&#45;&gt;Node4 -->
<g id="edge39_Node000005_Node000004" class="edge">
<title>Node5&#45;&gt;Node4</title>
<g id="a_edge39_Node000005_Node000004"><a xlink:title=" ">
<path fill="none" stroke="#63b8ff" d="M721.72,-240.87C707.42,-270.86 684,-322.97 670,-369.88 645.29,-452.65 689.65,-494.81 634,-560.88 630.56,-564.96 626.39,-568.38 621.82,-571.24"/>
<polygon fill="#63b8ff" stroke="#63b8ff" points="725.17,-242.76 726.36,-232.23 718.87,-239.72 725.17,-242.76"/>
</a>
</g>
</g>
<!-- Node6 -->
<g id="Node000006" class="node">
<title>Node6</title>
<g id="a_Node000006"><a xlink:href="../../d0/d2b/class_slic3r_1_1_g_u_i_1_1_g_l_canvas3_d.html#a6379e5a8883b2a7c10e897ad357a6c6f" target="_top" xlink:title=" ">
<polygon fill="white" stroke="#666666" points="631,-409.75 501,-409.75 501,-368 631,-368 631,-409.75"/>
<text text-anchor="start" x="509" y="-396.25" font-family="Helvetica,sans-Serif" font-size="10.00">Slic3r::GUI::GLCanvas3D</text>
<text text-anchor="start" x="509" y="-385" font-family="Helvetica,sans-Serif" font-size="10.00">::_refresh_if_shown_on</text>
<text text-anchor="middle" x="566" y="-373.75" font-family="Helvetica,sans-Serif" font-size="10.00">_screen</text>
</a>
</g>
</g>
<!-- Node5&#45;&gt;Node6 -->
<g id="edge5_Node000005_Node000006" class="edge">
<title>Node5&#45;&gt;Node6</title>
<g id="a_edge5_Node000005_Node000006"><a xlink:title=" ">
<path fill="none" stroke="#63b8ff" d="M711.61,-239.07C679.06,-272.79 619.13,-334.88 587.61,-367.53"/>
<polygon fill="#63b8ff" stroke="#63b8ff" points="713.46,-242.16 717.89,-232.54 708.42,-237.3 713.46,-242.16"/>
</a>
</g>
</g>
<!-- Node8 -->
<g id="Node000008" class="node">
<title>Node8</title>
<g id="a_Node000008"><a xlink:href="../../d0/d2b/class_slic3r_1_1_g_u_i_1_1_g_l_canvas3_d.html#a15fc8ce385048544064e6e434e09de23" target="_top" xlink:title=" ">
<polygon fill="white" stroke="#666666" points="296,-280.13 166,-280.13 166,-249.63 296,-249.63 296,-280.13"/>
<text text-anchor="start" x="174" y="-266.63" font-family="Helvetica,sans-Serif" font-size="10.00">Slic3r::GUI::GLCanvas3D</text>
<text text-anchor="middle" x="231" y="-255.38" font-family="Helvetica,sans-Serif" font-size="10.00">::on_mouse</text>
</a>
</g>
</g>
<!-- Node5&#45;&gt;Node8 -->
<g id="edge32_Node000005_Node000008" class="edge">
<title>Node5&#45;&gt;Node8</title>
<g id="a_edge32_Node000005_Node000008"><a xlink:title=" ">
<path fill="none" stroke="#63b8ff" d="M700.39,-194.69C626.63,-151.15 447.92,-62.26 332,-142.88 294.25,-169.14 328.24,-207.09 296,-239.88 292.49,-243.45 288.41,-246.53 284.03,-249.17"/>
<polygon fill="#63b8ff" stroke="#63b8ff" points="698.3,-198.11 708.68,-200.26 701.9,-192.11 698.3,-198.11"/>
</a>
</g>
</g>
<!-- Node9 -->
<g id="Node000009" class="node">
<title>Node9</title>
<g id="a_Node000009"><a xlink:href="../../d0/d2b/class_slic3r_1_1_g_u_i_1_1_g_l_canvas3_d.html#a9ba6503e9ea6e8ea3050de89e6835f52" target="_top" xlink:title=" ">
<polygon fill="white" stroke="#666666" points="130,-280.13 0,-280.13 0,-249.63 130,-249.63 130,-280.13"/>
<text text-anchor="start" x="8" y="-266.63" font-family="Helvetica,sans-Serif" font-size="10.00">Slic3r::GUI::GLCanvas3D</text>
<text text-anchor="middle" x="65" y="-255.38" font-family="Helvetica,sans-Serif" font-size="10.00">::bind_event_handlers</text>
</a>
</g>
</g>
<!-- Node5&#45;&gt;Node9 -->
<g id="edge19_Node000005_Node000009" class="edge">
<title>Node5&#45;&gt;Node9</title>
<g id="a_edge19_Node000005_Node000009"><a xlink:title=" ">
<path fill="none" stroke="#63b8ff" d="M727.64,-241.98C716.02,-284.53 687.46,-369.09 634,-418.88 573.6,-475.12 543,-473.03 462,-488.88 327.8,-515.14 269.75,-493.97 166,-404.88 122.94,-367.91 88.71,-308.7 73.93,-280.63"/>
<polygon fill="#63b8ff" stroke="#63b8ff" points="731.27,-242.95 730.42,-232.39 724.5,-241.18 731.27,-242.95"/>
</a>
</g>
</g>
<!-- Node15 -->
<g id="Node000015" class="node">
<title>Node15</title>
<g id="a_Node000015"><a xlink:href="../../d3/dff/class_slic3r_1_1_g_u_i_1_1_g_l_toolbar.html#af834580a75dbef27b91354ddc49efb8c" target="_top" xlink:title=" ">
<polygon fill="white" stroke="#666666" points="623.5,-231.13 508.5,-231.13 508.5,-200.63 623.5,-200.63 623.5,-231.13"/>
<text text-anchor="start" x="516.5" y="-217.63" font-family="Helvetica,sans-Serif" font-size="10.00">Slic3r::GUI::GLToolbar</text>
<text text-anchor="middle" x="566" y="-206.38" font-family="Helvetica,sans-Serif" font-size="10.00">::do_action</text>
</a>
</g>
</g>
<!-- Node5&#45;&gt;Node15 -->
<g id="edge20_Node000005_Node000015" class="edge">
<title>Node5&#45;&gt;Node15</title>
<g id="a_edge20_Node000005_Node000015"><a xlink:title=" ">
<path fill="none" stroke="#63b8ff" d="M659.12,-215.88C647.26,-215.88 635.18,-215.88 623.82,-215.88"/>
<polygon fill="#63b8ff" stroke="#63b8ff" points="658.91,-219.38 668.91,-215.88 658.91,-212.38 658.91,-219.38"/>
</a>
</g>
</g>
<!-- Node23 -->
<g id="Node000023" class="node">
<title>Node23</title>
<g id="a_Node000023"><a xlink:href="../../d0/d2b/class_slic3r_1_1_g_u_i_1_1_g_l_canvas3_d.html#a8f7ad08978b57363cc286b3ba55dbe52" target="_top" xlink:title=" ">
<polygon fill="white" stroke="#666666" points="296,-84.13 166,-84.13 166,-53.63 296,-53.63 296,-84.13"/>
<text text-anchor="start" x="174" y="-70.63" font-family="Helvetica,sans-Serif" font-size="10.00">Slic3r::GUI::GLCanvas3D</text>
<text text-anchor="middle" x="231" y="-59.38" font-family="Helvetica,sans-Serif" font-size="10.00">::on_char</text>
</a>
</g>
</g>
<!-- Node5&#45;&gt;Node23 -->
<g id="edge25_Node000005_Node000023" class="edge">
<title>Node5&#45;&gt;Node23</title>
<g id="a_edge25_Node000005_Node000023"><a xlink:title=" ">
<path fill="none" stroke="#63b8ff" d="M730.55,-189.4C722.85,-142.38 699.43,-45.36 634,-3.88 624.78,1.96 350.37,0.55 332,-4.88 299.98,-14.35 268.44,-37.47 249.6,-53.16"/>
<polygon fill="#63b8ff" stroke="#63b8ff" points="727.23,-189.85 732.19,-199.21 734.15,-188.8 727.23,-189.85"/>
</a>
</g>
</g>
<!-- Node25 -->
<g id="Node000025" class="node">
<title>Node25</title>
<g id="a_Node000025"><a xlink:href="../../d0/d2b/class_slic3r_1_1_g_u_i_1_1_g_l_canvas3_d.html#aa811f0a583e17a1b5102893f9ef44d53" target="_top" xlink:title=" ">
<polygon fill="white" stroke="#666666" points="296,-182.13 166,-182.13 166,-151.63 296,-151.63 296,-182.13"/>
<text text-anchor="start" x="174" y="-168.63" font-family="Helvetica,sans-Serif" font-size="10.00">Slic3r::GUI::GLCanvas3D</text>
<text text-anchor="middle" x="231" y="-157.38" font-family="Helvetica,sans-Serif" font-size="10.00">::on_key</text>
</a>
</g>
</g>
<!-- Node5&#45;&gt;Node25 -->
<g id="edge29_Node000005_Node000025" class="edge">
<title>Node5&#45;&gt;Node25</title>
<g id="a_edge29_Node000005_Node000025"><a xlink:title=" ">
<path fill="none" stroke="#63b8ff" d="M726.01,-190.12C713.2,-153.87 684.27,-89.17 634,-61.88 575.02,-29.86 388.36,-25.44 332,-61.88 299.26,-83.05 324.26,-115.01 296,-141.88 292.2,-145.5 287.81,-148.61 283.15,-151.28"/>
<polygon fill="#63b8ff" stroke="#63b8ff" points="722.96,-191.03 729.47,-199.38 729.59,-188.79 722.96,-191.03"/>
</a>
</g>
</g>
<!-- Node26 -->
<g id="Node000026" class="node">
<title>Node26</title>
<g id="a_Node000026"><a xlink:href="../../d0/d2b/class_slic3r_1_1_g_u_i_1_1_g_l_canvas3_d.html#a8ee94b7e2954f5694921dfec9ba59098" target="_top" xlink:title=" ">
<polygon fill="white" stroke="#666666" points="296,-133.13 166,-133.13 166,-102.63 296,-102.63 296,-133.13"/>
<text text-anchor="start" x="174" y="-119.63" font-family="Helvetica,sans-Serif" font-size="10.00">Slic3r::GUI::GLCanvas3D</text>
<text text-anchor="middle" x="231" y="-108.38" font-family="Helvetica,sans-Serif" font-size="10.00">::on_mouse_wheel</text>
</a>
</g>
</g>
<!-- Node5&#45;&gt;Node26 -->
<g id="edge33_Node000005_Node000026" class="edge">
<title>Node5&#45;&gt;Node26</title>
<g id="a_edge33_Node000005_Node000026"><a xlink:title=" ">
<path fill="none" stroke="#63b8ff" d="M728.57,-189.68C718.32,-147.83 691.76,-67.14 634,-32.88 576.28,1.36 390.4,0.19 332,-32.88 304.94,-48.2 319.76,-72.81 296,-92.88 291.81,-96.42 287.06,-99.5 282.08,-102.16"/>
<polygon fill="#63b8ff" stroke="#63b8ff" points="725.32,-190.19 730.99,-199.14 732.14,-188.61 725.32,-190.19"/>
</a>
</g>
</g>
<!-- Node27 -->
<g id="Node000027" class="node">
<title>Node27</title>
<g id="a_Node000027"><a xlink:href="../../d0/d2b/class_slic3r_1_1_g_u_i_1_1_g_l_canvas3_d.html#a69e6747e3c01be9c51634d8de0ae0561" target="_top" xlink:title=" ">
<polygon fill="white" stroke="#666666" points="296,-231.13 166,-231.13 166,-200.63 296,-200.63 296,-231.13"/>
<text text-anchor="start" x="174" y="-217.63" font-family="Helvetica,sans-Serif" font-size="10.00">Slic3r::GUI::GLCanvas3D</text>
<text text-anchor="middle" x="231" y="-206.38" font-family="Helvetica,sans-Serif" font-size="10.00">::on_paint</text>
</a>
</g>
</g>
<!-- Node5&#45;&gt;Node27 -->
<g id="edge36_Node000005_Node000027" class="edge">
<title>Node5&#45;&gt;Node27</title>
<g id="a_edge36_Node000005_Node000027"><a xlink:title=" ">
<path fill="none" stroke="#63b8ff" d="M719.31,-191.04C702.44,-165.21 672.11,-126.32 634,-109.88 510.76,-56.71 444.54,-36.74 332,-109.88 298.97,-131.35 324.49,-163.67 296,-190.88 292.2,-194.5 287.82,-197.62 283.17,-200.3"/>
<polygon fill="#63b8ff" stroke="#63b8ff" points="716.81,-192.63 725.11,-199.22 722.73,-188.9 716.81,-192.63"/>
</a>
</g>
</g>
<!-- Node28 -->
<g id="Node000028" class="node">
<title>Node28</title>
<g id="a_Node000028"><a xlink:href="../../da/d5c/class_slic3r_1_1_g_u_i_1_1_assemble_view.html#aaabc187e850fb4bc675e11805500d55b" target="_top" xlink:title=" ">
<polygon fill="white" stroke="#666666" points="634,-552.13 498,-552.13 498,-521.63 634,-521.63 634,-552.13"/>
<text text-anchor="start" x="506" y="-538.63" font-family="Helvetica,sans-Serif" font-size="10.00">Slic3r::GUI::AssembleView</text>
<text text-anchor="middle" x="566" y="-527.38" font-family="Helvetica,sans-Serif" font-size="10.00">::reload_scene</text>
</a>
</g>
</g>
<!-- Node5&#45;&gt;Node28 -->
<g id="edge40_Node000005_Node000028" class="edge">
<title>Node5&#45;&gt;Node28</title>
<g id="a_edge40_Node000005_Node000028"><a xlink:title=" ">
<path fill="none" stroke="#63b8ff" d="M722.27,-241.04C708.51,-271.2 685.61,-323.48 670,-369.88 649.79,-429.96 675.26,-459.76 634,-507.88 629.38,-513.27 623.58,-517.69 617.33,-521.3"/>
<polygon fill="#63b8ff" stroke="#63b8ff" points="725.73,-242.89 726.73,-232.35 719.37,-239.97 725.73,-242.89"/>
</a>
</g>
</g>
<!-- Node7 -->
<g id="Node000007" class="node">
<title>Node7</title>
<g id="a_Node000007"><a xlink:href="../../d0/d2b/class_slic3r_1_1_g_u_i_1_1_g_l_canvas3_d.html#a1841891bc5a9e5f1bebca92e3717d48f" target="_top" xlink:title=" ">
<polygon fill="#fff0f0" stroke="red" points="462,-339.75 332,-339.75 332,-298 462,-298 462,-339.75"/>
<text text-anchor="start" x="340" y="-326.25" font-family="Helvetica,sans-Serif" font-size="10.00">Slic3r::GUI::GLCanvas3D</text>
<text text-anchor="start" x="340" y="-315" font-family="Helvetica,sans-Serif" font-size="10.00">::_perform_layer_editing</text>
<text text-anchor="middle" x="397" y="-303.75" font-family="Helvetica,sans-Serif" font-size="10.00">_action</text>
</a>
</g>
</g>
<!-- Node6&#45;&gt;Node7 -->
<g id="edge6_Node000006_Node000007" class="edge">
<title>Node6&#45;&gt;Node7</title>
<g id="a_edge6_Node000006_Node000007"><a xlink:title=" ">
<path fill="none" stroke="#63b8ff" d="M504.51,-363.52C486.29,-355.89 466.49,-347.59 448.96,-340.24"/>
<polygon fill="#63b8ff" stroke="#63b8ff" points="502.87,-367.05 513.44,-367.69 505.57,-360.59 502.87,-367.05"/>
</a>
</g>
</g>
<!-- Node6&#45;&gt;Node8 -->
<g id="edge14_Node000006_Node000008" class="edge">
<title>Node6&#45;&gt;Node8</title>
<g id="a_edge14_Node000006_Node000008"><a xlink:title=" ">
<path fill="none" stroke="#63b8ff" d="M489.7,-388.6C441.85,-385.48 380.1,-375.79 332,-348.88 310.84,-337.04 314.22,-323.89 296,-307.88 284.54,-297.81 270.59,-288.18 258.65,-280.6"/>
<polygon fill="#63b8ff" stroke="#63b8ff" points="489.43,-392.15 499.61,-389.22 489.82,-385.16 489.43,-392.15"/>
</a>
</g>
</g>
<!-- Node12 -->
<g id="Node000012" class="node">
<title>Node12</title>
<g id="a_Node000012"><a xlink:href="../../d0/d2b/class_slic3r_1_1_g_u_i_1_1_g_l_canvas3_d.html#a43e426ee93eca3963c86ad0dd7796876" target="_top" xlink:title=" ">
<polygon fill="white" stroke="#666666" points="296,-396.13 166,-396.13 166,-365.63 296,-365.63 296,-396.13"/>
<text text-anchor="start" x="174" y="-382.63" font-family="Helvetica,sans-Serif" font-size="10.00">Slic3r::GUI::GLCanvas3D</text>
<text text-anchor="middle" x="231" y="-371.38" font-family="Helvetica,sans-Serif" font-size="10.00">::on_idle</text>
</a>
</g>
</g>
<!-- Node6&#45;&gt;Node12 -->
<g id="edge11_Node000006_Node000012" class="edge">
<title>Node6&#45;&gt;Node12</title>
<g id="a_edge11_Node000006_Node000012"><a xlink:title=" ">
<path fill="none" stroke="#63b8ff" d="M538.03,-417.64C518.83,-435.91 491.32,-457.93 462,-467.88 407.29,-486.45 386.11,-488.12 332,-467.88 293.85,-453.61 260.65,-417.48 243.79,-396.54"/>
<polygon fill="#63b8ff" stroke="#63b8ff" points="540.05,-420.59 544.73,-411.08 535.14,-415.59 540.05,-420.59"/>
</a>
</g>
</g>
<!-- Node13 -->
<g id="Node000013" class="node">
<title>Node13</title>
<g id="a_Node000013"><a xlink:href="../../d0/d2b/class_slic3r_1_1_g_u_i_1_1_g_l_canvas3_d.html#ab6b94328fd7dee2aed04efa73eb03208" target="_top" xlink:title=" ">
<polygon fill="white" stroke="#666666" points="296,-347.13 166,-347.13 166,-316.63 296,-316.63 296,-347.13"/>
<text text-anchor="start" x="174" y="-333.63" font-family="Helvetica,sans-Serif" font-size="10.00">Slic3r::GUI::GLCanvas3D</text>
<text text-anchor="middle" x="231" y="-322.38" font-family="Helvetica,sans-Serif" font-size="10.00">::on_set_focus</text>
</a>
</g>
</g>
<!-- Node6&#45;&gt;Node13 -->
<g id="edge15_Node000006_Node000013" class="edge">
<title>Node6&#45;&gt;Node13</title>
<g id="a_edge15_Node000006_Node000013"><a xlink:title=" ">
<path fill="none" stroke="#63b8ff" d="M521.02,-415.21C471.36,-441.15 389.96,-471.96 332,-434.88 299.84,-414.3 323.8,-383.06 296,-356.88 292.18,-353.28 287.78,-350.18 283.12,-347.51"/>
<polygon fill="#63b8ff" stroke="#63b8ff" points="522.36,-417.92 529.51,-410.1 519.04,-411.76 522.36,-417.92"/>
</a>
</g>
</g>
<!-- Node14 -->
<g id="Node000014" class="node">
<title>Node14</title>
<g id="a_Node000014"><a xlink:href="../../d0/d2b/class_slic3r_1_1_g_u_i_1_1_g_l_canvas3_d.html#a2b90c18fa7f51123b3ca34c325d5bf83" target="_top" xlink:title=" ">
<polygon fill="white" stroke="#666666" points="462,-426.13 332,-426.13 332,-395.63 462,-395.63 462,-426.13"/>
<text text-anchor="start" x="340" y="-412.63" font-family="Helvetica,sans-Serif" font-size="10.00">Slic3r::GUI::GLCanvas3D</text>
<text text-anchor="middle" x="397" y="-401.38" font-family="Helvetica,sans-Serif" font-size="10.00">::update_ui_from_settings</text>
</a>
</g>
</g>
<!-- Node6&#45;&gt;Node14 -->
<g id="edge18_Node000006_Node000014" class="edge">
<title>Node6&#45;&gt;Node14</title>
<g id="a_edge18_Node000006_Node000014"><a xlink:title=" ">
<path fill="none" stroke="#63b8ff" d="M490.16,-398.74C480.92,-399.96 471.54,-401.19 462.47,-402.39"/>
<polygon fill="#63b8ff" stroke="#63b8ff" points="490.45,-402.1 499.91,-397.32 489.54,-395.16 490.45,-402.1"/>
</a>
</g>
</g>
<!-- Node7&#45;&gt;Node8 -->
<g id="edge7_Node000007_Node000008" class="edge">
<title>Node7&#45;&gt;Node8</title>
<g id="a_edge7_Node000007_Node000008"><a xlink:title=" ">
<path fill="none" stroke="#63b8ff" d="M321.4,-294.32C307.22,-289.65 292.74,-284.88 279.68,-280.58"/>
<polygon fill="#63b8ff" stroke="#63b8ff" points="320.06,-297.89 330.65,-297.69 322.25,-291.24 320.06,-297.89"/>
</a>
</g>
</g>
<!-- Node8&#45;&gt;Node8 -->
<g id="edge9_Node000008_Node000008" class="edge">
<title>Node8&#45;&gt;Node8</title>
<g id="a_edge9_Node000008_Node000008"><a xlink:title=" ">
<path fill="none" stroke="#63b8ff" d="M259.22,-291.51C254.81,-295.46 245.41,-298.13 231,-298.13 205.39,-298.13 195.58,-289.69 201.58,-280.62"/>
<polygon fill="#63b8ff" stroke="#63b8ff" points="262.8,-291.94 260.42,-281.62 255.84,-291.17 262.8,-291.94"/>
</a>
</g>
</g>
<!-- Node8&#45;&gt;Node9 -->
<g id="edge8_Node000008_Node000009" class="edge">
<title>Node8&#45;&gt;Node9</title>
<g id="a_edge8_Node000008_Node000009"><a xlink:title=" ">
<path fill="none" stroke="#63b8ff" d="M154.69,-264.88C146.58,-264.88 138.39,-264.88 130.43,-264.88"/>
<polygon fill="#63b8ff" stroke="#63b8ff" points="154.65,-268.38 164.65,-264.88 154.65,-261.38 154.65,-268.38"/>
</a>
</g>
</g>
<!-- Node10 -->
<g id="Node000010" class="node">
<title>Node10</title>
<g id="a_Node000010"><a xlink:href="../../d0/d2b/class_slic3r_1_1_g_u_i_1_1_g_l_canvas3_d.html#a16e40798bb4d5ad13209c3feaea9b21d" target="_top" xlink:title=" ">
<polygon fill="white" stroke="#666666" points="130,-231.13 0,-231.13 0,-200.63 130,-200.63 130,-231.13"/>
<text text-anchor="start" x="8" y="-217.63" font-family="Helvetica,sans-Serif" font-size="10.00">Slic3r::GUI::GLCanvas3D</text>
<text text-anchor="middle" x="65" y="-206.38" font-family="Helvetica,sans-Serif" font-size="10.00">::unbind_event_handlers</text>
</a>
</g>
</g>
<!-- Node8&#45;&gt;Node10 -->
<g id="edge10_Node000008_Node000010" class="edge">
<title>Node8&#45;&gt;Node10</title>
<g id="a_edge10_Node000008_Node000010"><a xlink:title=" ">
<path fill="none" stroke="#63b8ff" d="M167.3,-246.14C151.25,-241.35 134.17,-236.25 118.69,-231.62"/>
<polygon fill="#63b8ff" stroke="#63b8ff" points="166.08,-249.73 176.66,-249.24 168.08,-243.02 166.08,-249.73"/>
</a>
</g>
</g>
<!-- Node12&#45;&gt;Node9 -->
<g id="edge12_Node000012_Node000009" class="edge">
<title>Node12&#45;&gt;Node9</title>
<g id="a_edge12_Node000012_Node000009"><a xlink:title=" ">
<path fill="none" stroke="#63b8ff" d="M174.16,-360.52C171.35,-359.05 168.61,-357.5 166,-355.88 131.49,-334.47 97.96,-300.44 79.84,-280.62"/>
<polygon fill="#63b8ff" stroke="#63b8ff" points="172.38,-364.03 182.9,-365.24 175.43,-357.73 172.38,-364.03"/>
</a>
</g>
</g>
<!-- Node12&#45;&gt;Node10 -->
<g id="edge13_Node000012_Node000010" class="edge">
<title>Node12&#45;&gt;Node10</title>
<g id="a_edge13_Node000012_Node000010"><a xlink:title=" ">
<path fill="none" stroke="#63b8ff" d="M168.95,-358.78C167.92,-357.85 166.94,-356.89 166,-355.88 129.46,-316.72 166.54,-280.03 130,-240.88 126.66,-237.3 122.75,-234.23 118.54,-231.6"/>
<polygon fill="#63b8ff" stroke="#63b8ff" points="166.36,-361.96 176.46,-365.16 170.56,-356.36 166.36,-361.96"/>
</a>
</g>
</g>
<!-- Node13&#45;&gt;Node9 -->
<g id="edge16_Node000013_Node000009" class="edge">
<title>Node13&#45;&gt;Node9</title>
<g id="a_edge16_Node000013_Node000009"><a xlink:title=" ">
<path fill="none" stroke="#63b8ff" d="M179.41,-312.25C174.87,-310.45 170.35,-308.64 166,-306.88 144.88,-298.32 121.39,-288.47 102.48,-280.46"/>
<polygon fill="#63b8ff" stroke="#63b8ff" points="177.72,-315.75 188.31,-316.16 180.29,-309.24 177.72,-315.75"/>
</a>
</g>
</g>
<!-- Node13&#45;&gt;Node10 -->
<g id="edge17_Node000013_Node000010" class="edge">
<title>Node13&#45;&gt;Node10</title>
<g id="a_edge17_Node000013_Node000010"><a xlink:title=" ">
<path fill="none" stroke="#63b8ff" d="M170.34,-310.37C168.84,-309.26 167.38,-308.1 166,-306.88 140.92,-284.8 155.08,-262.96 130,-240.88 125.97,-237.33 121.38,-234.26 116.55,-231.6"/>
<polygon fill="#63b8ff" stroke="#63b8ff" points="168.13,-313.75 178.45,-316.15 171.88,-307.84 168.13,-313.75"/>
</a>
</g>
</g>
<!-- Node16 -->
<g id="Node000016" class="node">
<title>Node16</title>
<g id="a_Node000016"><a xlink:href="../../d3/dff/class_slic3r_1_1_g_u_i_1_1_g_l_toolbar.html#a6c8241a752ac00ab174825c905d6cf6c" target="_top" xlink:title=" ">
<polygon fill="#fff0f0" stroke="red" points="454.5,-182.13 339.5,-182.13 339.5,-151.63 454.5,-151.63 454.5,-182.13"/>
<text text-anchor="start" x="347.5" y="-168.63" font-family="Helvetica,sans-Serif" font-size="10.00">Slic3r::GUI::GLToolbar</text>
<text text-anchor="middle" x="397" y="-157.38" font-family="Helvetica,sans-Serif" font-size="10.00">::force_left_action</text>
</a>
</g>
</g>
<!-- Node15&#45;&gt;Node16 -->
<g id="edge21_Node000015_Node000016" class="edge">
<title>Node15&#45;&gt;Node16</title>
<g id="a_edge21_Node000015_Node000016"><a xlink:title=" ">
<path fill="none" stroke="#63b8ff" d="M501.15,-197.14C484.81,-192.35 467.42,-187.25 451.65,-182.62"/>
<polygon fill="#63b8ff" stroke="#63b8ff" points="500.12,-200.78 510.7,-200.24 502.09,-194.07 500.12,-200.78"/>
</a>
</g>
</g>
<!-- Node20 -->
<g id="Node000020" class="node">
<title>Node20</title>
<g id="a_Node000020"><a xlink:href="../../d3/dff/class_slic3r_1_1_g_u_i_1_1_g_l_toolbar.html#a1cb1a06c9687d01fa2b167fce99db5d6" target="_top" xlink:title=" ">
<polygon fill="#fff0f0" stroke="red" points="454.5,-231.13 339.5,-231.13 339.5,-200.63 454.5,-200.63 454.5,-231.13"/>
<text text-anchor="start" x="347.5" y="-217.63" font-family="Helvetica,sans-Serif" font-size="10.00">Slic3r::GUI::GLToolbar</text>
<text text-anchor="middle" x="397" y="-206.38" font-family="Helvetica,sans-Serif" font-size="10.00">::force_right_action</text>
</a>
</g>
</g>
<!-- Node15&#45;&gt;Node20 -->
<g id="edge22_Node000015_Node000020" class="edge">
<title>Node15&#45;&gt;Node20</title>
<g id="a_edge22_Node000015_Node000020"><a xlink:title=" ">
<path fill="none" stroke="#63b8ff" d="M497.72,-215.88C483.48,-215.88 468.58,-215.88 454.76,-215.88"/>
<polygon fill="#63b8ff" stroke="#63b8ff" points="497.46,-219.38 507.46,-215.88 497.46,-212.38 497.46,-219.38"/>
</a>
</g>
</g>
<!-- Node22 -->
<g id="Node000022" class="node">
<title>Node22</title>
<g id="a_Node000022"><a xlink:href="../../d3/dff/class_slic3r_1_1_g_u_i_1_1_g_l_toolbar.html#ae784c8bdbf47979db48029f3f3d70452" target="_top" xlink:title=" ">
<polygon fill="white" stroke="#666666" points="454.5,-280.13 339.5,-280.13 339.5,-249.63 454.5,-249.63 454.5,-280.13"/>
<text text-anchor="start" x="347.5" y="-266.63" font-family="Helvetica,sans-Serif" font-size="10.00">Slic3r::GUI::GLToolbar</text>
<text text-anchor="middle" x="397" y="-255.38" font-family="Helvetica,sans-Serif" font-size="10.00">::on_mouse</text>
</a>
</g>
</g>
<!-- Node15&#45;&gt;Node22 -->
<g id="edge23_Node000015_Node000022" class="edge">
<title>Node15&#45;&gt;Node22</title>
<g id="a_edge23_Node000015_Node000022"><a xlink:title=" ">
<path fill="none" stroke="#63b8ff" d="M501.15,-234.61C484.81,-239.41 467.42,-244.51 451.65,-249.14"/>
<polygon fill="#63b8ff" stroke="#63b8ff" points="502.09,-237.69 510.7,-231.52 500.12,-230.98 502.09,-237.69"/>
</a>
</g>
</g>
<!-- Node22&#45;&gt;Node8 -->
<g id="edge24_Node000022_Node000008" class="edge">
<title>Node22&#45;&gt;Node8</title>
<g id="a_edge24_Node000022_Node000008"><a xlink:title=" ">
<path fill="none" stroke="#63b8ff" d="M328.26,-264.88C317.72,-264.88 306.85,-264.88 296.38,-264.88"/>
<polygon fill="#63b8ff" stroke="#63b8ff" points="328.1,-268.38 338.1,-264.88 328.1,-261.38 328.1,-268.38"/>
</a>
</g>
</g>
<!-- Node23&#45;&gt;Node9 -->
<g id="edge26_Node000023_Node000009" class="edge">
<title>Node23&#45;&gt;Node9</title>
<g id="a_edge26_Node000023_Node000009"><a xlink:title=" ">
<path fill="none" stroke="#63b8ff" d="M168.46,-91.28C167.61,-92.12 166.79,-92.98 166,-93.88 121.93,-144.12 174.07,-189.64 130,-239.88 126.85,-243.47 123.13,-246.54 119.08,-249.18"/>
<polygon fill="#63b8ff" stroke="#63b8ff" points="170.26,-93.53 175.92,-84.58 165.91,-88.05 170.26,-93.53"/>
</a>
</g>
</g>
<!-- Node23&#45;&gt;Node10 -->
<g id="edge28_Node000023_Node000010" class="edge">
<title>Node23&#45;&gt;Node10</title>
<g id="a_edge28_Node000023_Node000010"><a xlink:title=" ">
<path fill="none" stroke="#63b8ff" d="M172.13,-89.81C170.01,-91.1 167.96,-92.46 166,-93.88 124.79,-123.82 90.67,-174.66 75.1,-200.22"/>
<polygon fill="#63b8ff" stroke="#63b8ff" points="173.63,-92.43 180.74,-84.58 170.29,-86.28 173.63,-92.43"/>
</a>
</g>
</g>
<!-- Node24 -->
<g id="Node000024" class="node">
<title>Node24</title>
<g id="a_Node000024"><a xlink:href="../../d7/d21/class_slic3r_1_1_g_u_i_1_1_plater.html#a8cd5b6de199420af0e6add51e8cab367" target="_top" xlink:title=" ">
<polygon fill="white" stroke="#666666" points="113.12,-84.13 16.88,-84.13 16.88,-53.63 113.12,-53.63 113.12,-84.13"/>
<text text-anchor="start" x="24.88" y="-70.63" font-family="Helvetica,sans-Serif" font-size="10.00">Slic3r::GUI::Plater</text>
<text text-anchor="middle" x="65" y="-59.38" font-family="Helvetica,sans-Serif" font-size="10.00">::search</text>
</a>
</g>
</g>
<!-- Node23&#45;&gt;Node24 -->
<g id="edge27_Node000023_Node000024" class="edge">
<title>Node23&#45;&gt;Node24</title>
<g id="a_edge27_Node000023_Node000024"><a xlink:title=" ">
<path fill="none" stroke="#63b8ff" d="M154.93,-68.88C140.81,-68.88 126.41,-68.88 113.43,-68.88"/>
<polygon fill="#63b8ff" stroke="#63b8ff" points="154.65,-72.38 164.65,-68.88 154.65,-65.38 154.65,-72.38"/>
</a>
</g>
</g>
<!-- Node25&#45;&gt;Node9 -->
<g id="edge30_Node000025_Node000009" class="edge">
<title>Node25&#45;&gt;Node9</title>
<g id="a_edge30_Node000025_Node000009"><a xlink:title=" ">
<path fill="none" stroke="#63b8ff" d="M171.92,-187.78C169.87,-189.08 167.89,-190.44 166,-191.88 144.77,-208.01 151.23,-223.74 130,-239.88 125.35,-243.42 120.13,-246.51 114.74,-249.21"/>
<polygon fill="#63b8ff" stroke="#63b8ff" points="173.25,-190.49 180.26,-182.55 169.83,-184.38 173.25,-190.49"/>
</a>
</g>
</g>
<!-- Node25&#45;&gt;Node10 -->
<g id="edge31_Node000025_Node000010" class="edge">
<title>Node25&#45;&gt;Node10</title>
<g id="a_edge31_Node000025_Node000010"><a xlink:title=" ">
<path fill="none" stroke="#63b8ff" d="M167.3,-185.61C151.25,-190.41 134.17,-195.51 118.69,-200.14"/>
<polygon fill="#63b8ff" stroke="#63b8ff" points="168.08,-188.73 176.66,-182.52 166.08,-182.03 168.08,-188.73"/>
</a>
</g>
</g>
<!-- Node26&#45;&gt;Node9 -->
<g id="edge34_Node000026_Node000009" class="edge">
<title>Node26&#45;&gt;Node9</title>
<g id="a_edge34_Node000026_Node000009"><a xlink:title=" ">
<path fill="none" stroke="#63b8ff" d="M169.09,-139.98C168.02,-140.91 166.99,-141.87 166,-142.88 133.76,-175.67 162.24,-207.09 130,-239.88 126.49,-243.45 122.41,-246.53 118.03,-249.17"/>
<polygon fill="#63b8ff" stroke="#63b8ff" points="170.9,-142.28 176.97,-133.59 166.81,-136.6 170.9,-142.28"/>
</a>
</g>
</g>
<!-- Node26&#45;&gt;Node10 -->
<g id="edge35_Node000026_Node000010" class="edge">
<title>Node26&#45;&gt;Node10</title>
<g id="a_edge35_Node000026_Node000010"><a xlink:title=" ">
<path fill="none" stroke="#63b8ff" d="M175.6,-137.99C172.31,-139.55 169.09,-141.19 166,-142.88 135.47,-159.62 103.53,-184.41 84.2,-200.35"/>
<polygon fill="#63b8ff" stroke="#63b8ff" points="176.91,-140.79 184.59,-133.5 174.04,-134.4 176.91,-140.79"/>
</a>
</g>
</g>
<!-- Node27&#45;&gt;Node9 -->
<g id="edge37_Node000027_Node000009" class="edge">
<title>Node27&#45;&gt;Node9</title>
<g id="a_edge37_Node000027_Node000009"><a xlink:title=" ">
<path fill="none" stroke="#63b8ff" d="M167.3,-234.61C151.25,-239.41 134.17,-244.51 118.69,-249.14"/>
<polygon fill="#63b8ff" stroke="#63b8ff" points="168.08,-237.73 176.66,-231.52 166.08,-231.03 168.08,-237.73"/>
</a>
</g>
</g>
<!-- Node27&#45;&gt;Node10 -->
<g id="edge38_Node000027_Node000010" class="edge">
<title>Node27&#45;&gt;Node10</title>
<g id="a_edge38_Node000027_Node000010"><a xlink:title=" ">
<path fill="none" stroke="#63b8ff" d="M154.69,-215.88C146.58,-215.88 138.39,-215.88 130.43,-215.88"/>
<polygon fill="#63b8ff" stroke="#63b8ff" points="154.65,-219.38 164.65,-215.88 154.65,-212.38 154.65,-219.38"/>
</a>
</g>
</g>
</g>
</svg>
