<?xml version="1.0" encoding="UTF-8" standalone="no"?>
<!DOCTYPE svg PUBLIC "-//W3C//DTD SVG 1.1//EN"
 "http://www.w3.org/Graphics/SVG/1.1/DTD/svg11.dtd">
<!-- Generated by graphviz version 8.1.0 (20230707.0739)
 -->
<!-- Title: Slic3r::GUI::GLCanvas3D::zoom_to_bed Pages: 1 -->
<!--zoomable 844 -->

<svg id="main" version="1.1" xmlns="http://www.w3.org/2000/svg" xmlns:xlink="http://www.w3.org/1999/xlink" xml:space="preserve" onload="init(evt)">
<style type="text/css"><![CDATA[
.node, .edge {opacity: 0.7;}
.node.selected, .edge.selected {opacity: 1;}
.edge:hover path { stroke: red; }
.edge:hover polygon { stroke: red; fill: red; }
]]></style>

<defs>
  <circle id="rim" cx="0" cy="0" r="7"/>
  <circle id="rim2" cx="0" cy="0" r="3.5"/>
  <g id="zoomPlus">
    <use xlink:href="#rim" fill="#404040"><set attributeName="fill" to="#808080" begin="zoomplus.mouseover" end="zoomplus.mouseout"/></use>
    <path d="M-4,0h8M0,-4v8" fill="none" stroke="white" stroke-width="1.5" pointer-events="none"/>
  </g>
  <g id="zoomMin">
    <use xlink:href="#rim" fill="#404040"><set attributeName="fill" to="#808080" begin="zoomminus.mouseover" end="zoomminus.mouseout"/></use>
    <path d="M-4,0h8" fill="none" stroke="white" stroke-width="1.5" pointer-events="none"/>
  </g>
  <g id="arrowUp" transform="translate(30 24)">
    <use xlink:href="#rim"/>
    <path pointer-events="none" fill="none" stroke="white" stroke-width="1.5" d="M0,-3.0v7 M-2.5,-0.5L0,-3.0L2.5,-0.5"/>
  </g>
  <g id="arrowRight" transform="rotate(90) translate(36 -43)">
    <use xlink:href="#rim"/>
    <path pointer-events="none" fill="none" stroke="white" stroke-width="1.5" d="M0,-3.0v7 M-2.5,-0.5L0,-3.0L2.5,-0.5"/>
  </g>
  <g id="arrowDown" transform="rotate(180) translate(-30 -48)">
    <use xlink:href="#rim"/>
    <path pointer-events="none" fill="none" stroke="white" stroke-width="1.5" d="M0,-3.0v7 M-2.5,-0.5L0,-3.0L2.5,-0.5"/>
  </g>
  <g id="arrowLeft" transform="rotate(270) translate(-36 17)">
    <use xlink:href="#rim"/>
    <path pointer-events="none" fill="none" stroke="white" stroke-width="1.5" d="M0,-3.0v7 M-2.5,-0.5L0,-3.0L2.5,-0.5"/>
  </g>
  <g id="resetDef">
    <use xlink:href="#rim2" fill="#404040"><set attributeName="fill" to="#808080" begin="reset.mouseover" end="reset.mouseout"/></use>
  </g>
</defs>
<script type="application/ecmascript">
var viewWidth = 974;
var viewHeight = 844;
var sectionId = 'dynsection-388';
</script>
<script type="application/ecmascript" xlink:href="../../svg.min.js"/>
<svg id="graph" class="graph">
<g id="viewport">
<title>Slic3r::GUI::GLCanvas3D::zoom_to_bed</title>
<!-- Node1 -->
<g id="Node000001" class="node">
<title>Node1</title>
<g id="a_Node000001"><a xlink:title=" ">
<polygon fill="#999999" stroke="#666666" points="966,-576.44 836,-576.44 836,-545.94 966,-545.94 966,-576.44"/>
<text text-anchor="start" x="844" y="-562.94" font-family="Helvetica,sans-Serif" font-size="10.00">Slic3r::GUI::GLCanvas3D</text>
<text text-anchor="middle" x="901" y="-551.69" font-family="Helvetica,sans-Serif" font-size="10.00">::zoom_to_bed</text>
</a>
</g>
</g>
<!-- Node2 -->
<g id="Node000002" class="node">
<title>Node2</title>
<g id="a_Node000002"><a xlink:href="../../d0/d2b/class_slic3r_1_1_g_u_i_1_1_g_l_canvas3_d.html#a8f7ad08978b57363cc286b3ba55dbe52" target="_top" xlink:title=" ">
<polygon fill="white" stroke="#666666" points="631,-773.44 501,-773.44 501,-742.94 631,-742.94 631,-773.44"/>
<text text-anchor="start" x="509" y="-759.94" font-family="Helvetica,sans-Serif" font-size="10.00">Slic3r::GUI::GLCanvas3D</text>
<text text-anchor="middle" x="566" y="-748.69" font-family="Helvetica,sans-Serif" font-size="10.00">::on_char</text>
</a>
</g>
</g>
<!-- Node1&#45;&gt;Node2 -->
<g id="edge1_Node000001_Node000002" class="edge">
<title>Node1&#45;&gt;Node2</title>
<g id="a_edge1_Node000001_Node000002"><a xlink:title=" ">
<path fill="none" stroke="#63b8ff" d="M869.16,-582.89C820.54,-616.58 722.48,-682.46 634,-729.19 625.15,-733.86 615.38,-738.42 606.1,-742.47"/>
<polygon fill="#63b8ff" stroke="#63b8ff" points="870.72,-585.37 876.93,-576.79 866.72,-579.62 870.72,-585.37"/>
</a>
</g>
</g>
<!-- Node6 -->
<g id="Node000006" class="node">
<title>Node6</title>
<g id="a_Node000006"><a xlink:href="../../d0/d2b/class_slic3r_1_1_g_u_i_1_1_g_l_canvas3_d.html#aa811f0a583e17a1b5102893f9ef44d53" target="_top" xlink:title=" ">
<polygon fill="white" stroke="#666666" points="631,-150.44 501,-150.44 501,-119.94 631,-119.94 631,-150.44"/>
<text text-anchor="start" x="509" y="-136.94" font-family="Helvetica,sans-Serif" font-size="10.00">Slic3r::GUI::GLCanvas3D</text>
<text text-anchor="middle" x="566" y="-125.69" font-family="Helvetica,sans-Serif" font-size="10.00">::on_key</text>
</a>
</g>
</g>
<!-- Node1&#45;&gt;Node6 -->
<g id="edge5_Node000001_Node000006" class="edge">
<title>Node1&#45;&gt;Node6</title>
<g id="a_edge5_Node000001_Node000006"><a xlink:title=" ">
<path fill="none" stroke="#63b8ff" d="M883.01,-536.56C842.14,-477.79 734.31,-325.34 634,-206.19 617.3,-186.35 596.63,-164.86 582.7,-150.79"/>
<polygon fill="#63b8ff" stroke="#63b8ff" points="880.62,-538.26 889.2,-544.48 886.37,-534.27 880.62,-538.26"/>
</a>
</g>
</g>
<!-- Node7 -->
<g id="Node000007" class="node">
<title>Node7</title>
<g id="a_Node000007"><a xlink:href="../../d0/d2b/class_slic3r_1_1_g_u_i_1_1_g_l_canvas3_d.html#ab2a817afa6640d4e97519ea4f61c7206" target="_top" xlink:title=" ">
<polygon fill="white" stroke="#666666" points="800,-576.44 670,-576.44 670,-545.94 800,-545.94 800,-576.44"/>
<text text-anchor="start" x="678" y="-562.94" font-family="Helvetica,sans-Serif" font-size="10.00">Slic3r::GUI::GLCanvas3D</text>
<text text-anchor="middle" x="735" y="-551.69" font-family="Helvetica,sans-Serif" font-size="10.00">::render</text>
</a>
</g>
</g>
<!-- Node1&#45;&gt;Node7 -->
<g id="edge8_Node000001_Node000007" class="edge">
<title>Node1&#45;&gt;Node7</title>
<g id="a_edge8_Node000001_Node000007"><a xlink:title=" ">
<path fill="none" stroke="#63b8ff" d="M824.69,-561.19C816.58,-561.19 808.39,-561.19 800.43,-561.19"/>
<polygon fill="#63b8ff" stroke="#63b8ff" points="824.65,-564.69 834.65,-561.19 824.65,-557.69 824.65,-564.69"/>
</a>
</g>
</g>
<!-- Node3 -->
<g id="Node000003" class="node">
<title>Node3</title>
<g id="a_Node000003"><a xlink:href="../../d0/d2b/class_slic3r_1_1_g_u_i_1_1_g_l_canvas3_d.html#a9ba6503e9ea6e8ea3050de89e6835f52" target="_top" xlink:title=" ">
<polygon fill="white" stroke="#666666" points="130,-507.44 0,-507.44 0,-476.94 130,-476.94 130,-507.44"/>
<text text-anchor="start" x="8" y="-493.94" font-family="Helvetica,sans-Serif" font-size="10.00">Slic3r::GUI::GLCanvas3D</text>
<text text-anchor="middle" x="65" y="-482.69" font-family="Helvetica,sans-Serif" font-size="10.00">::bind_event_handlers</text>
</a>
</g>
</g>
<!-- Node2&#45;&gt;Node3 -->
<g id="edge2_Node000002_Node000003" class="edge">
<title>Node2&#45;&gt;Node3</title>
<g id="a_edge2_Node000002_Node000003"><a xlink:title=" ">
<path fill="none" stroke="#63b8ff" d="M489.88,-772.79C402.03,-785.28 257.04,-791.02 166,-716.19 98.06,-660.35 74.66,-548.84 68.15,-507.81"/>
<polygon fill="#63b8ff" stroke="#63b8ff" points="490.2,-776.13 499.57,-771.19 489.17,-769.21 490.2,-776.13"/>
</a>
</g>
</g>
<!-- Node4 -->
<g id="Node000004" class="node">
<title>Node4</title>
<g id="a_Node000004"><a xlink:href="../../d7/d21/class_slic3r_1_1_g_u_i_1_1_plater.html#a8cd5b6de199420af0e6add51e8cab367" target="_top" xlink:title=" ">
<polygon fill="white" stroke="#666666" points="445.12,-836.44 348.88,-836.44 348.88,-805.94 445.12,-805.94 445.12,-836.44"/>
<text text-anchor="start" x="356.88" y="-822.94" font-family="Helvetica,sans-Serif" font-size="10.00">Slic3r::GUI::Plater</text>
<text text-anchor="middle" x="397" y="-811.69" font-family="Helvetica,sans-Serif" font-size="10.00">::search</text>
</a>
</g>
</g>
<!-- Node2&#45;&gt;Node4 -->
<g id="edge3_Node000002_Node000004" class="edge">
<title>Node2&#45;&gt;Node4</title>
<g id="a_edge3_Node000002_Node000004"><a xlink:title=" ">
<path fill="none" stroke="#63b8ff" d="M513.07,-777.78C489.39,-786.71 461.73,-797.15 439.47,-805.54"/>
<polygon fill="#63b8ff" stroke="#63b8ff" points="514.17,-780.73 522.29,-773.92 511.7,-774.18 514.17,-780.73"/>
</a>
</g>
</g>
<!-- Node5 -->
<g id="Node000005" class="node">
<title>Node5</title>
<g id="a_Node000005"><a xlink:href="../../d0/d2b/class_slic3r_1_1_g_u_i_1_1_g_l_canvas3_d.html#a16e40798bb4d5ad13209c3feaea9b21d" target="_top" xlink:title=" ">
<polygon fill="white" stroke="#666666" points="130,-458.44 0,-458.44 0,-427.94 130,-427.94 130,-458.44"/>
<text text-anchor="start" x="8" y="-444.94" font-family="Helvetica,sans-Serif" font-size="10.00">Slic3r::GUI::GLCanvas3D</text>
<text text-anchor="middle" x="65" y="-433.69" font-family="Helvetica,sans-Serif" font-size="10.00">::unbind_event_handlers</text>
</a>
</g>
</g>
<!-- Node2&#45;&gt;Node5 -->
<g id="edge4_Node000002_Node000005" class="edge">
<title>Node2&#45;&gt;Node5</title>
<g id="a_edge4_Node000002_Node000005"><a xlink:title=" ">
<path fill="none" stroke="#63b8ff" d="M489.81,-752.02C399.65,-740.51 250.17,-707.66 166,-614.19 121.28,-564.52 174.07,-518.43 130,-468.19 126.85,-464.6 123.13,-461.52 119.08,-458.89"/>
<polygon fill="#63b8ff" stroke="#63b8ff" points="489.16,-755.58 499.51,-753.32 490,-748.63 489.16,-755.58"/>
</a>
</g>
</g>
<!-- Node6&#45;&gt;Node3 -->
<g id="edge6_Node000006_Node000003" class="edge">
<title>Node6&#45;&gt;Node3</title>
<g id="a_edge6_Node000006_Node000003"><a xlink:title=" ">
<path fill="none" stroke="#63b8ff" d="M489.97,-122.93C387.7,-108.1 211.97,-89.88 166,-131.19 110.14,-181.38 175.6,-407.52 130,-467.19 127.25,-470.79 123.9,-473.87 120.2,-476.51"/>
<polygon fill="#63b8ff" stroke="#63b8ff" points="489.14,-126.5 499.54,-124.49 490.16,-119.57 489.14,-126.5"/>
</a>
</g>
</g>
<!-- Node6&#45;&gt;Node5 -->
<g id="edge7_Node000006_Node000005" class="edge">
<title>Node6&#45;&gt;Node5</title>
<g id="a_edge7_Node000006_Node000005"><a xlink:title=" ">
<path fill="none" stroke="#63b8ff" d="M536.34,-113C465.69,-61.18 280.62,56.84 166,-33.19 101.61,-83.76 73.43,-358.54 67.31,-427.49"/>
<polygon fill="#63b8ff" stroke="#63b8ff" points="534.04,-116.4 544.15,-119.56 538.22,-110.78 534.04,-116.4"/>
</a>
</g>
</g>
<!-- Node7&#45;&gt;Node2 -->
<g id="edge36_Node000007_Node000002" class="edge">
<title>Node7&#45;&gt;Node2</title>
<g id="a_edge36_Node000007_Node000002"><a xlink:title=" ">
<path fill="none" stroke="#63b8ff" d="M720.15,-586.35C695.66,-630.56 646.15,-718.51 634,-729.19 628,-734.46 620.9,-738.89 613.6,-742.58"/>
<polygon fill="#63b8ff" stroke="#63b8ff" points="723.62,-588.32 725.39,-577.88 717.49,-584.94 723.62,-588.32"/>
</a>
</g>
</g>
<!-- Node7&#45;&gt;Node3 -->
<g id="edge26_Node000007_Node000003" class="edge">
<title>Node7&#45;&gt;Node3</title>
<g id="a_edge26_Node000007_Node000003"><a xlink:title=" ">
<path fill="none" stroke="#63b8ff" d="M709.07,-584.57C696.49,-597.1 681.5,-613.22 670,-629.19 650.25,-656.62 663.01,-678.84 634,-696.19 582.12,-727.21 558,-703.49 498,-696.19 347.12,-677.83 294.52,-695.33 166,-614.19 122.46,-586.7 88.94,-533.79 74.2,-507.62"/>
<polygon fill="#63b8ff" stroke="#63b8ff" points="711.22,-587.38 715.93,-577.89 706.33,-582.37 711.22,-587.38"/>
</a>
</g>
</g>
<!-- Node7&#45;&gt;Node6 -->
<g id="edge37_Node000007_Node000006" class="edge">
<title>Node7&#45;&gt;Node6</title>
<g id="a_edge37_Node000007_Node000006"><a xlink:title=" ">
<path fill="none" stroke="#63b8ff" d="M721.38,-536.1C706.97,-506.47 683.63,-455.37 670,-409.19 644.06,-321.31 675.17,-288.05 634,-206.19 622.81,-183.93 602.38,-163.82 587.01,-150.74"/>
<polygon fill="#63b8ff" stroke="#63b8ff" points="718.52,-537.21 726.08,-544.64 724.8,-534.12 718.52,-537.21"/>
</a>
</g>
</g>
<!-- Node8 -->
<g id="Node000008" class="node">
<title>Node8</title>
<g id="a_Node000008"><a xlink:href="../../d0/d2b/class_slic3r_1_1_g_u_i_1_1_g_l_canvas3_d.html#a6379e5a8883b2a7c10e897ad357a6c6f" target="_top" xlink:title=" ">
<polygon fill="white" stroke="#666666" points="631,-469.06 501,-469.06 501,-427.31 631,-427.31 631,-469.06"/>
<text text-anchor="start" x="509" y="-455.56" font-family="Helvetica,sans-Serif" font-size="10.00">Slic3r::GUI::GLCanvas3D</text>
<text text-anchor="start" x="509" y="-444.31" font-family="Helvetica,sans-Serif" font-size="10.00">::_refresh_if_shown_on</text>
<text text-anchor="middle" x="566" y="-433.06" font-family="Helvetica,sans-Serif" font-size="10.00">_screen</text>
</a>
</g>
</g>
<!-- Node7&#45;&gt;Node8 -->
<g id="edge9_Node000007_Node000008" class="edge">
<title>Node7&#45;&gt;Node8</title>
<g id="a_edge9_Node000007_Node000008"><a xlink:title=" ">
<path fill="none" stroke="#63b8ff" d="M702.04,-539.56C672.29,-519.43 628.2,-489.6 598.57,-469.55"/>
<polygon fill="#63b8ff" stroke="#63b8ff" points="699.54,-542.77 709.78,-545.48 703.46,-536.97 699.54,-542.77"/>
</a>
</g>
</g>
<!-- Node10 -->
<g id="Node000010" class="node">
<title>Node10</title>
<g id="a_Node000010"><a xlink:href="../../d0/d2b/class_slic3r_1_1_g_u_i_1_1_g_l_canvas3_d.html#a15fc8ce385048544064e6e434e09de23" target="_top" xlink:title=" ">
<polygon fill="white" stroke="#666666" points="296,-391.44 166,-391.44 166,-360.94 296,-360.94 296,-391.44"/>
<text text-anchor="start" x="174" y="-377.94" font-family="Helvetica,sans-Serif" font-size="10.00">Slic3r::GUI::GLCanvas3D</text>
<text text-anchor="middle" x="231" y="-366.69" font-family="Helvetica,sans-Serif" font-size="10.00">::on_mouse</text>
</a>
</g>
</g>
<!-- Node7&#45;&gt;Node10 -->
<g id="edge38_Node000007_Node000010" class="edge">
<title>Node7&#45;&gt;Node10</title>
<g id="a_edge38_Node000007_Node000010"><a xlink:title=" ">
<path fill="none" stroke="#63b8ff" d="M722.85,-535.65C707.49,-503.46 676.78,-448.67 634,-418.19 533.7,-346.73 381.99,-353.51 296.5,-364.84"/>
<polygon fill="#63b8ff" stroke="#63b8ff" points="720.09,-537.03 727.46,-544.63 726.44,-534.09 720.09,-537.03"/>
</a>
</g>
</g>
<!-- Node15 -->
<g id="Node000015" class="node">
<title>Node15</title>
<g id="a_Node000015"><a xlink:href="../../d3/dff/class_slic3r_1_1_g_u_i_1_1_g_l_toolbar.html#af834580a75dbef27b91354ddc49efb8c" target="_top" xlink:title=" ">
<polygon fill="white" stroke="#666666" points="623.5,-245.44 508.5,-245.44 508.5,-214.94 623.5,-214.94 623.5,-245.44"/>
<text text-anchor="start" x="516.5" y="-231.94" font-family="Helvetica,sans-Serif" font-size="10.00">Slic3r::GUI::GLToolbar</text>
<text text-anchor="middle" x="566" y="-220.69" font-family="Helvetica,sans-Serif" font-size="10.00">::do_action</text>
</a>
</g>
</g>
<!-- Node7&#45;&gt;Node15 -->
<g id="edge27_Node000007_Node000015" class="edge">
<title>Node7&#45;&gt;Node15</title>
<g id="a_edge27_Node000007_Node000015"><a xlink:title=" ">
<path fill="none" stroke="#63b8ff" d="M723.09,-535.59C710.27,-505.42 688.39,-453.74 670,-409.19 653.72,-369.75 654.91,-357.38 634,-320.19 618.34,-292.34 595.25,-263.24 580.67,-245.92"/>
<polygon fill="#63b8ff" stroke="#63b8ff" points="720.25,-536.85 727.39,-544.68 726.69,-534.11 720.25,-536.85"/>
</a>
</g>
</g>
<!-- Node26 -->
<g id="Node000026" class="node">
<title>Node26</title>
<g id="a_Node000026"><a xlink:href="../../d0/d2b/class_slic3r_1_1_g_u_i_1_1_g_l_canvas3_d.html#a8ee94b7e2954f5694921dfec9ba59098" target="_top" xlink:title=" ">
<polygon fill="white" stroke="#666666" points="296,-605.44 166,-605.44 166,-574.94 296,-574.94 296,-605.44"/>
<text text-anchor="start" x="174" y="-591.94" font-family="Helvetica,sans-Serif" font-size="10.00">Slic3r::GUI::GLCanvas3D</text>
<text text-anchor="middle" x="231" y="-580.69" font-family="Helvetica,sans-Serif" font-size="10.00">::on_mouse_wheel</text>
</a>
</g>
</g>
<!-- Node7&#45;&gt;Node26 -->
<g id="edge39_Node000007_Node000026" class="edge">
<title>Node7&#45;&gt;Node26</title>
<g id="a_edge39_Node000007_Node000026"><a xlink:title=" ">
<path fill="none" stroke="#63b8ff" d="M658.89,-565.53C560.41,-571.22 389.29,-581.1 296.43,-586.47"/>
<polygon fill="#63b8ff" stroke="#63b8ff" points="658.87,-568.98 668.66,-564.91 658.47,-561.99 658.87,-568.98"/>
</a>
</g>
</g>
<!-- Node27 -->
<g id="Node000027" class="node">
<title>Node27</title>
<g id="a_Node000027"><a xlink:href="../../d0/d2b/class_slic3r_1_1_g_u_i_1_1_g_l_canvas3_d.html#a69e6747e3c01be9c51634d8de0ae0561" target="_top" xlink:title=" ">
<polygon fill="white" stroke="#666666" points="296,-556.44 166,-556.44 166,-525.94 296,-525.94 296,-556.44"/>
<text text-anchor="start" x="174" y="-542.94" font-family="Helvetica,sans-Serif" font-size="10.00">Slic3r::GUI::GLCanvas3D</text>
<text text-anchor="middle" x="231" y="-531.69" font-family="Helvetica,sans-Serif" font-size="10.00">::on_paint</text>
</a>
</g>
</g>
<!-- Node7&#45;&gt;Node27 -->
<g id="edge42_Node000007_Node000027" class="edge">
<title>Node7&#45;&gt;Node27</title>
<g id="a_edge42_Node000007_Node000027"><a xlink:title=" ">
<path fill="none" stroke="#63b8ff" d="M658.89,-558.2C560.41,-554.27 389.29,-547.45 296.43,-543.75"/>
<polygon fill="#63b8ff" stroke="#63b8ff" points="658.52,-561.72 668.66,-558.62 658.8,-554.73 658.52,-561.72"/>
</a>
</g>
</g>
<!-- Node22 -->
<g id="Node000022" class="node">
<title>Node22</title>
<g id="a_Node000022"><a xlink:href="../../d9/d01/class_slic3r_1_1_g_u_i_1_1_g_u_i___app.html#a92b16a3ad6111d682dd4d779531e674e" target="_top" xlink:title=" ">
<polygon fill="white" stroke="#666666" points="621.62,-687.44 510.38,-687.44 510.38,-656.94 621.62,-656.94 621.62,-687.44"/>
<text text-anchor="start" x="518.38" y="-673.94" font-family="Helvetica,sans-Serif" font-size="10.00">Slic3r::GUI::GUI_App</text>
<text text-anchor="middle" x="566" y="-662.69" font-family="Helvetica,sans-Serif" font-size="10.00">::post_init</text>
</a>
</g>
</g>
<!-- Node7&#45;&gt;Node22 -->
<g id="edge45_Node000007_Node000022" class="edge">
<title>Node7&#45;&gt;Node22</title>
<g id="a_edge45_Node000007_Node000022"><a xlink:title=" ">
<path fill="none" stroke="#63b8ff" d="M711.83,-584.37C692.67,-603.32 663.5,-629.76 634,-647.19 628.12,-650.66 621.68,-653.8 615.18,-656.58"/>
<polygon fill="#63b8ff" stroke="#63b8ff" points="713.83,-587.31 718.4,-577.75 708.87,-582.38 713.83,-587.31"/>
</a>
</g>
</g>
<!-- Node28 -->
<g id="Node000028" class="node">
<title>Node28</title>
<g id="a_Node000028"><a xlink:href="../../da/d5c/class_slic3r_1_1_g_u_i_1_1_assemble_view.html#aaabc187e850fb4bc675e11805500d55b" target="_top" xlink:title=" ">
<polygon fill="white" stroke="#666666" points="634,-638.44 498,-638.44 498,-607.94 634,-607.94 634,-638.44"/>
<text text-anchor="start" x="506" y="-624.94" font-family="Helvetica,sans-Serif" font-size="10.00">Slic3r::GUI::AssembleView</text>
<text text-anchor="middle" x="566" y="-613.69" font-family="Helvetica,sans-Serif" font-size="10.00">::reload_scene</text>
</a>
</g>
</g>
<!-- Node7&#45;&gt;Node28 -->
<g id="edge46_Node000007_Node000028" class="edge">
<title>Node7&#45;&gt;Node28</title>
<g id="a_edge46_Node000007_Node000028"><a xlink:title=" ">
<path fill="none" stroke="#63b8ff" d="M681.8,-580.57C658.51,-589.21 631.43,-599.27 609.42,-607.44"/>
<polygon fill="#63b8ff" stroke="#63b8ff" points="682.7,-583.6 690.86,-576.83 680.27,-577.03 682.7,-583.6"/>
</a>
</g>
</g>
<!-- Node9 -->
<g id="Node000009" class="node">
<title>Node9</title>
<g id="a_Node000009"><a xlink:href="../../d0/d2b/class_slic3r_1_1_g_u_i_1_1_g_l_canvas3_d.html#a1841891bc5a9e5f1bebca92e3717d48f" target="_top" xlink:title=" ">
<polygon fill="white" stroke="#666666" points="462,-442.06 332,-442.06 332,-400.31 462,-400.31 462,-442.06"/>
<text text-anchor="start" x="340" y="-428.56" font-family="Helvetica,sans-Serif" font-size="10.00">Slic3r::GUI::GLCanvas3D</text>
<text text-anchor="start" x="340" y="-417.31" font-family="Helvetica,sans-Serif" font-size="10.00">::_perform_layer_editing</text>
<text text-anchor="middle" x="397" y="-406.06" font-family="Helvetica,sans-Serif" font-size="10.00">_action</text>
</a>
</g>
</g>
<!-- Node8&#45;&gt;Node9 -->
<g id="edge10_Node000008_Node000009" class="edge">
<title>Node8&#45;&gt;Node9</title>
<g id="a_edge10_Node000008_Node000009"><a xlink:title=" ">
<path fill="none" stroke="#63b8ff" d="M490.16,-436.09C480.92,-434.59 471.54,-433.08 462.47,-431.61"/>
<polygon fill="#63b8ff" stroke="#63b8ff" points="489.48,-439.69 499.91,-437.83 490.6,-432.78 489.48,-439.69"/>
</a>
</g>
</g>
<!-- Node8&#45;&gt;Node10 -->
<g id="edge21_Node000008_Node000010" class="edge">
<title>Node8&#45;&gt;Node10</title>
<g id="a_edge21_Node000008_Node000010"><a xlink:title=" ">
<path fill="none" stroke="#63b8ff" d="M525.77,-421.12C507.27,-409.79 484.38,-397.75 462,-391.19 407.67,-375.25 343.13,-372.35 296.27,-372.94"/>
<polygon fill="#63b8ff" stroke="#63b8ff" points="523.7,-424.57 534.02,-426.94 527.43,-418.65 523.7,-424.57"/>
</a>
</g>
</g>
<!-- Node12 -->
<g id="Node000012" class="node">
<title>Node12</title>
<g id="a_Node000012"><a xlink:href="../../d0/d2b/class_slic3r_1_1_g_u_i_1_1_g_l_canvas3_d.html#a43e426ee93eca3963c86ad0dd7796876" target="_top" xlink:title=" ">
<polygon fill="white" stroke="#666666" points="296,-342.44 166,-342.44 166,-311.94 296,-311.94 296,-342.44"/>
<text text-anchor="start" x="174" y="-328.94" font-family="Helvetica,sans-Serif" font-size="10.00">Slic3r::GUI::GLCanvas3D</text>
<text text-anchor="middle" x="231" y="-317.69" font-family="Helvetica,sans-Serif" font-size="10.00">::on_idle</text>
</a>
</g>
</g>
<!-- Node8&#45;&gt;Node12 -->
<g id="edge18_Node000008_Node000012" class="edge">
<title>Node8&#45;&gt;Node12</title>
<g id="a_edge18_Node000008_Node000012"><a xlink:title=" ">
<path fill="none" stroke="#63b8ff" d="M535.61,-419.53C516.24,-402.28 489.46,-381.37 462,-369.19 409.13,-345.74 343.85,-335.38 296.36,-330.81"/>
<polygon fill="#63b8ff" stroke="#63b8ff" points="532.96,-421.75 542.7,-425.9 537.67,-416.58 532.96,-421.75"/>
</a>
</g>
</g>
<!-- Node13 -->
<g id="Node000013" class="node">
<title>Node13</title>
<g id="a_Node000013"><a xlink:href="../../d0/d2b/class_slic3r_1_1_g_u_i_1_1_g_l_canvas3_d.html#ab6b94328fd7dee2aed04efa73eb03208" target="_top" xlink:title=" ">
<polygon fill="white" stroke="#666666" points="296,-507.44 166,-507.44 166,-476.94 296,-476.94 296,-507.44"/>
<text text-anchor="start" x="174" y="-493.94" font-family="Helvetica,sans-Serif" font-size="10.00">Slic3r::GUI::GLCanvas3D</text>
<text text-anchor="middle" x="231" y="-482.69" font-family="Helvetica,sans-Serif" font-size="10.00">::on_set_focus</text>
</a>
</g>
</g>
<!-- Node8&#45;&gt;Node13 -->
<g id="edge22_Node000008_Node000013" class="edge">
<title>Node8&#45;&gt;Node13</title>
<g id="a_edge22_Node000008_Node000013"><a xlink:title=" ">
<path fill="none" stroke="#63b8ff" d="M522.57,-474.69C504.59,-484.43 482.98,-494.28 462,-499.19 407.15,-512.02 342.95,-508.6 296.34,-502.93"/>
<polygon fill="#63b8ff" stroke="#63b8ff" points="524.14,-477.26 531.15,-469.32 520.72,-471.16 524.14,-477.26"/>
</a>
</g>
</g>
<!-- Node14 -->
<g id="Node000014" class="node">
<title>Node14</title>
<g id="a_Node000014"><a xlink:href="../../d0/d2b/class_slic3r_1_1_g_u_i_1_1_g_l_canvas3_d.html#a2b90c18fa7f51123b3ca34c325d5bf83" target="_top" xlink:title=" ">
<polygon fill="white" stroke="#666666" points="462,-490.44 332,-490.44 332,-459.94 462,-459.94 462,-490.44"/>
<text text-anchor="start" x="340" y="-476.94" font-family="Helvetica,sans-Serif" font-size="10.00">Slic3r::GUI::GLCanvas3D</text>
<text text-anchor="middle" x="397" y="-465.69" font-family="Helvetica,sans-Serif" font-size="10.00">::update_ui_from_settings</text>
</a>
</g>
</g>
<!-- Node8&#45;&gt;Node14 -->
<g id="edge25_Node000008_Node000014" class="edge">
<title>Node8&#45;&gt;Node14</title>
<g id="a_edge25_Node000008_Node000014"><a xlink:title=" ">
<path fill="none" stroke="#63b8ff" d="M490.16,-460.29C480.92,-461.78 471.54,-463.3 462.47,-464.76"/>
<polygon fill="#63b8ff" stroke="#63b8ff" points="490.6,-463.6 499.91,-458.55 489.48,-456.69 490.6,-463.6"/>
</a>
</g>
</g>
<!-- Node9&#45;&gt;Node10 -->
<g id="edge11_Node000009_Node000010" class="edge">
<title>Node9&#45;&gt;Node10</title>
<g id="a_edge11_Node000009_Node000010"><a xlink:title=" ">
<path fill="none" stroke="#63b8ff" d="M321.05,-400.62C310.36,-397.69 299.51,-394.71 289.23,-391.89"/>
<polygon fill="#63b8ff" stroke="#63b8ff" points="320.08,-404.26 330.65,-403.53 321.94,-397.51 320.08,-404.26"/>
</a>
</g>
</g>
<!-- Node11 -->
<g id="Node000011" class="node">
<title>Node11</title>
<g id="a_Node000011"><a xlink:href="../../d0/d2b/class_slic3r_1_1_g_u_i_1_1_g_l_canvas3_d.html#a6a1cc82d0eba6220bf137b3fdf37c024" target="_top" xlink:title=" ">
<polygon fill="white" stroke="#666666" points="296,-458.44 166,-458.44 166,-427.94 296,-427.94 296,-458.44"/>
<text text-anchor="start" x="174" y="-444.94" font-family="Helvetica,sans-Serif" font-size="10.00">Slic3r::GUI::GLCanvas3D</text>
<text text-anchor="middle" x="231" y="-433.69" font-family="Helvetica,sans-Serif" font-size="10.00">::on_timer</text>
</a>
</g>
</g>
<!-- Node9&#45;&gt;Node11 -->
<g id="edge15_Node000009_Node000011" class="edge">
<title>Node9&#45;&gt;Node11</title>
<g id="a_edge15_Node000009_Node000011"><a xlink:title=" ">
<path fill="none" stroke="#63b8ff" d="M320.96,-431.25C312.77,-432.35 304.48,-433.47 296.43,-434.55"/>
<polygon fill="#63b8ff" stroke="#63b8ff" points="321.21,-434.62 330.65,-429.82 320.28,-427.68 321.21,-434.62"/>
</a>
</g>
</g>
<!-- Node10&#45;&gt;Node3 -->
<g id="edge12_Node000010_Node000003" class="edge">
<title>Node10&#45;&gt;Node3</title>
<g id="a_edge12_Node000010_Node000003"><a xlink:title=" ">
<path fill="none" stroke="#63b8ff" d="M193.19,-397.85C183.85,-404.16 174.15,-411.45 166,-419.19 146.66,-437.55 151.23,-451.05 130,-467.19 125.35,-470.72 120.13,-473.82 114.74,-476.52"/>
<polygon fill="#63b8ff" stroke="#63b8ff" points="194.87,-400.28 201.35,-391.9 191.06,-394.42 194.87,-400.28"/>
</a>
</g>
</g>
<!-- Node10&#45;&gt;Node5 -->
<g id="edge14_Node000010_Node000005" class="edge">
<title>Node10&#45;&gt;Node5</title>
<g id="a_edge14_Node000010_Node000005"><a xlink:title=" ">
<path fill="none" stroke="#63b8ff" d="M181.68,-395.93C157.07,-405.98 127.55,-418.04 104.49,-427.46"/>
<polygon fill="#63b8ff" stroke="#63b8ff" points="182.62,-398.92 190.55,-391.9 179.97,-392.44 182.62,-398.92"/>
</a>
</g>
</g>
<!-- Node10&#45;&gt;Node10 -->
<g id="edge13_Node000010_Node000010" class="edge">
<title>Node10&#45;&gt;Node10</title>
<g id="a_edge13_Node000010_Node000010"><a xlink:title=" ">
<path fill="none" stroke="#63b8ff" d="M259.22,-402.81C254.81,-406.77 245.41,-409.44 231,-409.44 205.39,-409.44 195.58,-400.99 201.58,-391.92"/>
<polygon fill="#63b8ff" stroke="#63b8ff" points="262.8,-403.25 260.42,-392.92 255.84,-402.48 262.8,-403.25"/>
</a>
</g>
</g>
<!-- Node11&#45;&gt;Node3 -->
<g id="edge16_Node000011_Node000003" class="edge">
<title>Node11&#45;&gt;Node3</title>
<g id="a_edge16_Node000011_Node000003"><a xlink:title=" ">
<path fill="none" stroke="#63b8ff" d="M167.3,-461.92C151.25,-466.72 134.17,-471.82 118.69,-476.45"/>
<polygon fill="#63b8ff" stroke="#63b8ff" points="168.08,-465.04 176.66,-458.83 166.08,-458.34 168.08,-465.04"/>
</a>
</g>
</g>
<!-- Node11&#45;&gt;Node5 -->
<g id="edge17_Node000011_Node000005" class="edge">
<title>Node11&#45;&gt;Node5</title>
<g id="a_edge17_Node000011_Node000005"><a xlink:title=" ">
<path fill="none" stroke="#63b8ff" d="M154.69,-443.19C146.58,-443.19 138.39,-443.19 130.43,-443.19"/>
<polygon fill="#63b8ff" stroke="#63b8ff" points="154.65,-446.69 164.65,-443.19 154.65,-439.69 154.65,-446.69"/>
</a>
</g>
</g>
<!-- Node12&#45;&gt;Node3 -->
<g id="edge19_Node000012_Node000003" class="edge">
<title>Node12&#45;&gt;Node3</title>
<g id="a_edge19_Node000012_Node000003"><a xlink:title=" ">
<path fill="none" stroke="#63b8ff" d="M168.95,-349.29C167.92,-350.22 166.94,-351.18 166,-352.19 129.46,-391.34 166.54,-428.03 130,-467.19 126.66,-470.76 122.75,-473.84 118.54,-476.47"/>
<polygon fill="#63b8ff" stroke="#63b8ff" points="170.56,-351.7 176.46,-342.9 166.36,-346.1 170.56,-351.7"/>
</a>
</g>
</g>
<!-- Node12&#45;&gt;Node5 -->
<g id="edge20_Node000012_Node000005" class="edge">
<title>Node12&#45;&gt;Node5</title>
<g id="a_edge20_Node000012_Node000005"><a xlink:title=" ">
<path fill="none" stroke="#63b8ff" d="M174.16,-347.54C171.35,-349.02 168.61,-350.57 166,-352.19 131.49,-373.6 97.96,-407.63 79.84,-427.45"/>
<polygon fill="#63b8ff" stroke="#63b8ff" points="175.43,-350.33 182.9,-342.82 172.38,-344.03 175.43,-350.33"/>
</a>
</g>
</g>
<!-- Node13&#45;&gt;Node3 -->
<g id="edge23_Node000013_Node000003" class="edge">
<title>Node13&#45;&gt;Node3</title>
<g id="a_edge23_Node000013_Node000003"><a xlink:title=" ">
<path fill="none" stroke="#63b8ff" d="M154.69,-492.19C146.58,-492.19 138.39,-492.19 130.43,-492.19"/>
<polygon fill="#63b8ff" stroke="#63b8ff" points="154.65,-495.69 164.65,-492.19 154.65,-488.69 154.65,-495.69"/>
</a>
</g>
</g>
<!-- Node13&#45;&gt;Node5 -->
<g id="edge24_Node000013_Node000005" class="edge">
<title>Node13&#45;&gt;Node5</title>
<g id="a_edge24_Node000013_Node000005"><a xlink:title=" ">
<path fill="none" stroke="#63b8ff" d="M167.3,-473.45C151.25,-468.66 134.17,-463.56 118.69,-458.93"/>
<polygon fill="#63b8ff" stroke="#63b8ff" points="166.08,-477.04 176.66,-476.55 168.08,-470.33 166.08,-477.04"/>
</a>
</g>
</g>
<!-- Node16 -->
<g id="Node000016" class="node">
<title>Node16</title>
<g id="a_Node000016"><a xlink:href="../../d3/dff/class_slic3r_1_1_g_u_i_1_1_g_l_toolbar.html#a6c8241a752ac00ab174825c905d6cf6c" target="_top" xlink:title=" ">
<polygon fill="white" stroke="#666666" points="454.5,-170.44 339.5,-170.44 339.5,-139.94 454.5,-139.94 454.5,-170.44"/>
<text text-anchor="start" x="347.5" y="-156.94" font-family="Helvetica,sans-Serif" font-size="10.00">Slic3r::GUI::GLToolbar</text>
<text text-anchor="middle" x="397" y="-145.69" font-family="Helvetica,sans-Serif" font-size="10.00">::force_left_action</text>
</a>
</g>
</g>
<!-- Node15&#45;&gt;Node16 -->
<g id="edge28_Node000015_Node000016" class="edge">
<title>Node15&#45;&gt;Node16</title>
<g id="a_edge28_Node000015_Node000016"><a xlink:title=" ">
<path fill="none" stroke="#63b8ff" d="M524.46,-209.59C505.63,-200.26 482.84,-189.3 462,-180.19 454.79,-177.03 447.04,-173.85 439.51,-170.85"/>
<polygon fill="#63b8ff" stroke="#63b8ff" points="522.69,-213.11 533.2,-214.44 525.81,-206.85 522.69,-213.11"/>
</a>
</g>
</g>
<!-- Node23 -->
<g id="Node000023" class="node">
<title>Node23</title>
<g id="a_Node000023"><a xlink:href="../../d3/dff/class_slic3r_1_1_g_u_i_1_1_g_l_toolbar.html#a1cb1a06c9687d01fa2b167fce99db5d6" target="_top" xlink:title=" ">
<polygon fill="white" stroke="#666666" points="454.5,-219.44 339.5,-219.44 339.5,-188.94 454.5,-188.94 454.5,-219.44"/>
<text text-anchor="start" x="347.5" y="-205.94" font-family="Helvetica,sans-Serif" font-size="10.00">Slic3r::GUI::GLToolbar</text>
<text text-anchor="middle" x="397" y="-194.69" font-family="Helvetica,sans-Serif" font-size="10.00">::force_right_action</text>
</a>
</g>
</g>
<!-- Node15&#45;&gt;Node23 -->
<g id="edge32_Node000015_Node000023" class="edge">
<title>Node15&#45;&gt;Node23</title>
<g id="a_edge32_Node000015_Node000023"><a xlink:title=" ">
<path fill="none" stroke="#63b8ff" d="M497.72,-219.71C483.48,-217.5 468.58,-215.18 454.76,-213.03"/>
<polygon fill="#63b8ff" stroke="#63b8ff" points="497.04,-223.31 507.46,-221.39 498.12,-216.39 497.04,-223.31"/>
</a>
</g>
</g>
<!-- Node25 -->
<g id="Node000025" class="node">
<title>Node25</title>
<g id="a_Node000025"><a xlink:href="../../d3/dff/class_slic3r_1_1_g_u_i_1_1_g_l_toolbar.html#ae784c8bdbf47979db48029f3f3d70452" target="_top" xlink:title=" ">
<polygon fill="white" stroke="#666666" points="454.5,-268.44 339.5,-268.44 339.5,-237.94 454.5,-237.94 454.5,-268.44"/>
<text text-anchor="start" x="347.5" y="-254.94" font-family="Helvetica,sans-Serif" font-size="10.00">Slic3r::GUI::GLToolbar</text>
<text text-anchor="middle" x="397" y="-243.69" font-family="Helvetica,sans-Serif" font-size="10.00">::on_mouse</text>
</a>
</g>
</g>
<!-- Node15&#45;&gt;Node25 -->
<g id="edge34_Node000015_Node000025" class="edge">
<title>Node15&#45;&gt;Node25</title>
<g id="a_edge34_Node000015_Node000025"><a xlink:title=" ">
<path fill="none" stroke="#63b8ff" d="M497.72,-239.45C483.48,-241.42 468.58,-243.47 454.76,-245.37"/>
<polygon fill="#63b8ff" stroke="#63b8ff" points="498.03,-242.81 507.46,-237.97 497.08,-235.87 498.03,-242.81"/>
</a>
</g>
</g>
<!-- Node17 -->
<g id="Node000017" class="node">
<title>Node17</title>
<g id="a_Node000017"><a xlink:href="../../d0/d2b/class_slic3r_1_1_g_u_i_1_1_g_l_canvas3_d.html#a40663921f2a6240d87460819e1fc9ae3" target="_top" xlink:title=" ">
<polygon fill="white" stroke="#666666" points="296,-182.06 166,-182.06 166,-140.31 296,-140.31 296,-182.06"/>
<text text-anchor="start" x="174" y="-168.56" font-family="Helvetica,sans-Serif" font-size="10.00">Slic3r::GUI::GLCanvas3D</text>
<text text-anchor="start" x="174" y="-157.31" font-family="Helvetica,sans-Serif" font-size="10.00">::_deactivate_collapse</text>
<text text-anchor="middle" x="231" y="-146.06" font-family="Helvetica,sans-Serif" font-size="10.00">_toolbar_items</text>
</a>
</g>
</g>
<!-- Node16&#45;&gt;Node17 -->
<g id="edge29_Node000016_Node000017" class="edge">
<title>Node16&#45;&gt;Node17</title>
<g id="a_edge29_Node000016_Node000017"><a xlink:title=" ">
<path fill="none" stroke="#63b8ff" d="M328.26,-157.67C317.72,-158.05 306.85,-158.45 296.38,-158.83"/>
<polygon fill="#63b8ff" stroke="#63b8ff" points="328.24,-161.13 338.1,-157.27 327.98,-154.14 328.24,-161.13"/>
</a>
</g>
</g>
<!-- Node18 -->
<g id="Node000018" class="node">
<title>Node18</title>
<g id="a_Node000018"><a xlink:href="../../d0/d2b/class_slic3r_1_1_g_u_i_1_1_g_l_canvas3_d.html#ad74bf35a09c7e404ea15ad07a774a5b7" target="_top" xlink:title=" ">
<polygon fill="white" stroke="#666666" points="296,-84.06 166,-84.06 166,-42.31 296,-42.31 296,-84.06"/>
<text text-anchor="start" x="174" y="-70.56" font-family="Helvetica,sans-Serif" font-size="10.00">Slic3r::GUI::GLCanvas3D</text>
<text text-anchor="start" x="174" y="-59.31" font-family="Helvetica,sans-Serif" font-size="10.00">::force_main_toolbar_left</text>
<text text-anchor="middle" x="231" y="-48.06" font-family="Helvetica,sans-Serif" font-size="10.00">_action</text>
</a>
</g>
</g>
<!-- Node16&#45;&gt;Node18 -->
<g id="edge30_Node000016_Node000018" class="edge">
<title>Node16&#45;&gt;Node18</title>
<g id="a_edge30_Node000016_Node000018"><a xlink:title=" ">
<path fill="none" stroke="#63b8ff" d="M358.83,-134.33C332.23,-119.42 296.56,-99.4 269.82,-84.4"/>
<polygon fill="#63b8ff" stroke="#63b8ff" points="356.75,-137.74 367.18,-139.58 360.17,-131.64 356.75,-137.74"/>
</a>
</g>
</g>
<!-- Node19 -->
<g id="Node000019" class="node">
<title>Node19</title>
<g id="a_Node000019"><a xlink:href="../../d0/d2b/class_slic3r_1_1_g_u_i_1_1_g_l_canvas3_d.html#aab1ea5a1bb854d092fb44be4123ea87f" target="_top" xlink:title=" ">
<polygon fill="#fff0f0" stroke="red" points="130,-78.44 0,-78.44 0,-47.94 130,-47.94 130,-78.44"/>
<text text-anchor="start" x="8" y="-64.94" font-family="Helvetica,sans-Serif" font-size="10.00">Slic3r::GUI::GLCanvas3D</text>
<text text-anchor="middle" x="65" y="-53.69" font-family="Helvetica,sans-Serif" font-size="10.00">::_init_main_toolbar</text>
</a>
</g>
</g>
<!-- Node18&#45;&gt;Node19 -->
<g id="edge31_Node000018_Node000019" class="edge">
<title>Node18&#45;&gt;Node19</title>
<g id="a_edge31_Node000018_Node000019"><a xlink:title=" ">
<path fill="none" stroke="#63b8ff" d="M154.69,-63.19C146.58,-63.19 138.39,-63.19 130.43,-63.19"/>
<polygon fill="#63b8ff" stroke="#63b8ff" points="154.65,-66.69 164.65,-63.19 154.65,-59.69 154.65,-66.69"/>
</a>
</g>
</g>
<!-- Node24 -->
<g id="Node000024" class="node">
<title>Node24</title>
<g id="a_Node000024"><a xlink:href="../../d0/d2b/class_slic3r_1_1_g_u_i_1_1_g_l_canvas3_d.html#aec3127836c52195357704c069f824dc7" target="_top" xlink:title=" ">
<polygon fill="white" stroke="#666666" points="296,-242.06 166,-242.06 166,-200.31 296,-200.31 296,-242.06"/>
<text text-anchor="start" x="174" y="-228.56" font-family="Helvetica,sans-Serif" font-size="10.00">Slic3r::GUI::GLCanvas3D</text>
<text text-anchor="start" x="174" y="-217.31" font-family="Helvetica,sans-Serif" font-size="10.00">::force_main_toolbar_right</text>
<text text-anchor="middle" x="231" y="-206.06" font-family="Helvetica,sans-Serif" font-size="10.00">_action</text>
</a>
</g>
</g>
<!-- Node23&#45;&gt;Node24 -->
<g id="edge33_Node000023_Node000024" class="edge">
<title>Node23&#45;&gt;Node24</title>
<g id="a_edge33_Node000023_Node000024"><a xlink:title=" ">
<path fill="none" stroke="#63b8ff" d="M328.26,-211.21C317.72,-212.3 306.85,-213.43 296.38,-214.51"/>
<polygon fill="#63b8ff" stroke="#63b8ff" points="328.52,-214.6 338.1,-210.09 327.79,-207.64 328.52,-214.6"/>
</a>
</g>
</g>
<!-- Node25&#45;&gt;Node10 -->
<g id="edge35_Node000025_Node000010" class="edge">
<title>Node25&#45;&gt;Node10</title>
<g id="a_edge35_Node000025_Node000010"><a xlink:title=" ">
<path fill="none" stroke="#63b8ff" d="M374.3,-276.52C350.38,-301.85 313.04,-340.17 296,-351.19 290.59,-354.69 284.62,-357.82 278.55,-360.59"/>
<polygon fill="#63b8ff" stroke="#63b8ff" points="376.25,-279.49 380.55,-269.8 371.15,-274.7 376.25,-279.49"/>
</a>
</g>
</g>
<!-- Node26&#45;&gt;Node3 -->
<g id="edge40_Node000026_Node000003" class="edge">
<title>Node26&#45;&gt;Node3</title>
<g id="a_edge40_Node000026_Node000003"><a xlink:title=" ">
<path fill="none" stroke="#63b8ff" d="M175.6,-570.08C172.31,-568.51 169.09,-566.88 166,-565.19 135.47,-548.45 103.53,-523.66 84.2,-507.72"/>
<polygon fill="#63b8ff" stroke="#63b8ff" points="174.04,-573.67 184.59,-574.57 176.91,-567.28 174.04,-573.67"/>
</a>
</g>
</g>
<!-- Node26&#45;&gt;Node5 -->
<g id="edge41_Node000026_Node000005" class="edge">
<title>Node26&#45;&gt;Node5</title>
<g id="a_edge41_Node000026_Node000005"><a xlink:title=" ">
<path fill="none" stroke="#63b8ff" d="M169.09,-568.09C168.02,-567.16 166.99,-566.19 166,-565.19 133.76,-532.4 162.24,-500.98 130,-468.19 126.49,-464.62 122.41,-461.54 118.03,-458.9"/>
<polygon fill="#63b8ff" stroke="#63b8ff" points="166.81,-571.47 176.97,-574.48 170.9,-565.79 166.81,-571.47"/>
</a>
</g>
</g>
<!-- Node27&#45;&gt;Node3 -->
<g id="edge43_Node000027_Node000003" class="edge">
<title>Node27&#45;&gt;Node3</title>
<g id="a_edge43_Node000027_Node000003"><a xlink:title=" ">
<path fill="none" stroke="#63b8ff" d="M167.3,-522.45C151.25,-517.66 134.17,-512.56 118.69,-507.93"/>
<polygon fill="#63b8ff" stroke="#63b8ff" points="166.08,-526.04 176.66,-525.55 168.08,-519.33 166.08,-526.04"/>
</a>
</g>
</g>
<!-- Node27&#45;&gt;Node5 -->
<g id="edge44_Node000027_Node000005" class="edge">
<title>Node27&#45;&gt;Node5</title>
<g id="a_edge44_Node000027_Node000005"><a xlink:title=" ">
<path fill="none" stroke="#63b8ff" d="M171.92,-520.28C169.87,-518.99 167.89,-517.62 166,-516.19 144.77,-500.05 151.23,-484.32 130,-468.19 125.35,-464.65 120.13,-461.55 114.74,-458.85"/>
<polygon fill="#63b8ff" stroke="#63b8ff" points="169.83,-523.68 180.26,-525.52 173.25,-517.58 169.83,-523.68"/>
</a>
</g>
</g>
</g>
</svg>

<g id="navigator" transform="translate(0 0)" fill="#404254">
  <rect fill="#f2f5e9" fill-opacity="0.5" stroke="#606060" stroke-width=".5" x="0" y="0" width="60" height="60"/>
  <use id="zoomplus" xlink:href="#zoomPlus" x="17" y="9" onmousedown="handleZoom(evt,'in')"/>
  <use id="zoomminus" xlink:href="#zoomMin" x="42" y="9" onmousedown="handleZoom(evt,'out')"/>
  <use id="reset" xlink:href="#resetDef" x="30" y="36" onmousedown="handleReset()"/>
   <use id="arrowup" xlink:href="#arrowUp" x="0" y="0" onmousedown="handlePan(0,-1)"/>
  <use id="arrowright" xlink:href="#arrowRight" x="0" y="0" onmousedown="handlePan(1,0)"/>
  <use id="arrowdown" xlink:href="#arrowDown" x="0" y="0" onmousedown="handlePan(0,1)"/>
  <use id="arrowleft" xlink:href="#arrowLeft" x="0" y="0" onmousedown="handlePan(-1,0)"/>
</g>
<svg viewBox="0 0 15 15" width="100%" height="30px" preserveAspectRatio="xMaxYMin meet">
 <g id="arrow_out" transform="scale(0.3 0.3)">
  <a xlink:href="class_slic3r_1_1_g_u_i_1_1_g_l_canvas3_d_a818047eadf8a88f2dac6b7ce106eeecc_icgraph_org.svg" target="_base">
   <rect id="button" ry="5" rx="5" y="6" x="6" height="38" width="38"
        fill="#f2f5e9" fill-opacity="0.5" stroke="#606060" stroke-width="1.0"/>
   <path id="arrow"
     d="M 11.500037,31.436501 C 11.940474,20.09759 22.043105,11.32322 32.158766,21.979434 L 37.068811,17.246167 C 37.068811,17.246167 37.088388,32 37.088388,32 L 22.160133,31.978069 C 22.160133,31.978069 26.997745,27.140456 26.997745,27.140456 C 18.528582,18.264221 13.291696,25.230495 11.500037,31.436501 z"
     style="fill:#404040;"/>
  </a>
 </g>
</svg>

<style type='text/css'>
<![CDATA[
[data-mouse-over-selected='false'] { opacity: 0.7; }
[data-mouse-over-selected='true']  { opacity: 1.0; }
]]>
</style>
<script type="application/ecmascript"><![CDATA[
document.addEventListener('DOMContentLoaded', (event) => {
  highlightEdges();
  highlightAdjacentNodes();
});
]]></script>
</svg>
