<?xml version="1.0" encoding="UTF-8" standalone="no"?>
<!DOCTYPE svg PUBLIC "-//W3C//DTD SVG 1.1//EN"
 "http://www.w3.org/Graphics/SVG/1.1/DTD/svg11.dtd">
<!-- Generated by graphviz version 8.1.0 (20230707.0739)
 -->
<!-- Title: Slic3r::GUI::GLCanvas3D::get_separator_toolbar_width Pages: 1 -->
<!--zoomable 186 -->

<svg id="main" version="1.1" xmlns="http://www.w3.org/2000/svg" xmlns:xlink="http://www.w3.org/1999/xlink" xml:space="preserve" onload="init(evt)">
<style type="text/css"><![CDATA[
.node, .edge {opacity: 0.7;}
.node.selected, .edge.selected {opacity: 1;}
.edge:hover path { stroke: red; }
.edge:hover polygon { stroke: red; fill: red; }
]]></style>

<defs>
  <circle id="rim" cx="0" cy="0" r="7"/>
  <circle id="rim2" cx="0" cy="0" r="3.5"/>
  <g id="zoomPlus">
    <use xlink:href="#rim" fill="#404040"><set attributeName="fill" to="#808080" begin="zoomplus.mouseover" end="zoomplus.mouseout"/></use>
    <path d="M-4,0h8M0,-4v8" fill="none" stroke="white" stroke-width="1.5" pointer-events="none"/>
  </g>
  <g id="zoomMin">
    <use xlink:href="#rim" fill="#404040"><set attributeName="fill" to="#808080" begin="zoomminus.mouseover" end="zoomminus.mouseout"/></use>
    <path d="M-4,0h8" fill="none" stroke="white" stroke-width="1.5" pointer-events="none"/>
  </g>
  <g id="arrowUp" transform="translate(30 24)">
    <use xlink:href="#rim"/>
    <path pointer-events="none" fill="none" stroke="white" stroke-width="1.5" d="M0,-3.0v7 M-2.5,-0.5L0,-3.0L2.5,-0.5"/>
  </g>
  <g id="arrowRight" transform="rotate(90) translate(36 -43)">
    <use xlink:href="#rim"/>
    <path pointer-events="none" fill="none" stroke="white" stroke-width="1.5" d="M0,-3.0v7 M-2.5,-0.5L0,-3.0L2.5,-0.5"/>
  </g>
  <g id="arrowDown" transform="rotate(180) translate(-30 -48)">
    <use xlink:href="#rim"/>
    <path pointer-events="none" fill="none" stroke="white" stroke-width="1.5" d="M0,-3.0v7 M-2.5,-0.5L0,-3.0L2.5,-0.5"/>
  </g>
  <g id="arrowLeft" transform="rotate(270) translate(-36 17)">
    <use xlink:href="#rim"/>
    <path pointer-events="none" fill="none" stroke="white" stroke-width="1.5" d="M0,-3.0v7 M-2.5,-0.5L0,-3.0L2.5,-0.5"/>
  </g>
  <g id="resetDef">
    <use xlink:href="#rim2" fill="#404040"><set attributeName="fill" to="#808080" begin="reset.mouseover" end="reset.mouseout"/></use>
  </g>
</defs>
<script type="application/ecmascript">
var viewWidth = 756;
var viewHeight = 186;
var sectionId = 'dynsection-217';
</script>
<script type="application/ecmascript" xlink:href="../../svg.min.js"/>
<svg id="graph" class="graph">
<g id="viewport">
<title>Slic3r::GUI::GLCanvas3D::get_separator_toolbar_width</title>
<!-- Node1 -->
<g id="Node000001" class="node">
<title>Node1</title>
<g id="a_Node000001"><a xlink:title=" ">
<polygon fill="#999999" stroke="#666666" points="144.25,-103.5 0,-103.5 0,-73 144.25,-73 144.25,-103.5"/>
<text text-anchor="start" x="8" y="-90" font-family="Helvetica,sans-Serif" font-size="10.00">Slic3r::GUI::GLCanvas3D</text>
<text text-anchor="middle" x="72.12" y="-78.75" font-family="Helvetica,sans-Serif" font-size="10.00">::get_separator_toolbar_width</text>
</a>
</g>
</g>
<!-- Node2 -->
<g id="Node000002" class="node">
<title>Node2</title>
<g id="a_Node000002"><a xlink:href="../../d3/dff/class_slic3r_1_1_g_u_i_1_1_g_l_toolbar.html#a22704aa4b8ee93493cafda05ebf28a14" target="_top" xlink:title=" ">
<polygon fill="white" stroke="#666666" points="295.25,-103.5 180.25,-103.5 180.25,-73 295.25,-73 295.25,-103.5"/>
<text text-anchor="start" x="188.25" y="-90" font-family="Helvetica,sans-Serif" font-size="10.00">Slic3r::GUI::GLToolbar</text>
<text text-anchor="middle" x="237.75" y="-78.75" font-family="Helvetica,sans-Serif" font-size="10.00">::get_width</text>
</a>
</g>
</g>
<!-- Node1&#45;&gt;Node2 -->
<g id="edge1_Node000001_Node000002" class="edge">
<title>Node1&#45;&gt;Node2</title>
<g id="a_edge1_Node000001_Node000002"><a xlink:title=" ">
<path fill="none" stroke="#63b8ff" d="M144.42,-88.25C152.59,-88.25 160.9,-88.25 169.02,-88.25"/>
<polygon fill="#63b8ff" stroke="#63b8ff" points="168.95,-91.75 178.95,-88.25 168.95,-84.75 168.95,-91.75"/>
</a>
</g>
</g>
<!-- Node3 -->
<g id="Node000003" class="node">
<title>Node3</title>
<g id="a_Node000003"><a xlink:href="../../d3/dff/class_slic3r_1_1_g_u_i_1_1_g_l_toolbar.html#af9770b296b9f5614650db07bdb5bb7fa" target="_top" xlink:title=" ">
<polygon fill="white" stroke="#666666" points="446.25,-103.5 331.25,-103.5 331.25,-73 446.25,-73 446.25,-103.5"/>
<text text-anchor="start" x="339.25" y="-90" font-family="Helvetica,sans-Serif" font-size="10.00">Slic3r::GUI::GLToolbar</text>
<text text-anchor="middle" x="388.75" y="-78.75" font-family="Helvetica,sans-Serif" font-size="10.00">::calc_layout</text>
</a>
</g>
</g>
<!-- Node2&#45;&gt;Node3 -->
<g id="edge2_Node000002_Node000003" class="edge">
<title>Node2&#45;&gt;Node3</title>
<g id="a_edge2_Node000002_Node000003"><a xlink:title=" ">
<path fill="none" stroke="#63b8ff" d="M295.51,-88.25C303.63,-88.25 312.04,-88.25 320.34,-88.25"/>
<polygon fill="#63b8ff" stroke="#63b8ff" points="320.15,-91.75 330.15,-88.25 320.15,-84.75 320.15,-91.75"/>
</a>
</g>
</g>
<!-- Node4 -->
<g id="Node000004" class="node">
<title>Node4</title>
<g id="a_Node000004"><a xlink:href="../../d3/dff/class_slic3r_1_1_g_u_i_1_1_g_l_toolbar.html#a615ca879be997517cc18b6718963a93d" target="_top" xlink:title=" ">
<polygon fill="white" stroke="#666666" points="597.25,-177.5 482.25,-177.5 482.25,-147 597.25,-147 597.25,-177.5"/>
<text text-anchor="start" x="490.25" y="-164" font-family="Helvetica,sans-Serif" font-size="10.00">Slic3r::GUI::GLToolbar</text>
<text text-anchor="middle" x="539.75" y="-152.75" font-family="Helvetica,sans-Serif" font-size="10.00">::get_height_horizontal</text>
</a>
</g>
</g>
<!-- Node3&#45;&gt;Node4 -->
<g id="edge3_Node000003_Node000004" class="edge">
<title>Node3&#45;&gt;Node4</title>
<g id="a_edge3_Node000003_Node000004"><a xlink:title=" ">
<path fill="none" stroke="#63b8ff" d="M417.82,-103.78C436.03,-113.69 460.34,-126.62 482.25,-137.25 485.58,-138.87 489.05,-140.5 492.54,-142.13"/>
<polygon fill="#63b8ff" stroke="#63b8ff" points="490.86,-145.66 501.41,-146.62 493.76,-139.29 490.86,-145.66"/>
</a>
</g>
</g>
<!-- Node5 -->
<g id="Node000005" class="node">
<title>Node5</title>
<g id="a_Node000005"><a xlink:href="../../d3/dff/class_slic3r_1_1_g_u_i_1_1_g_l_toolbar.html#a09b6491fac0439e3031fa4b55a69de2a" target="_top" xlink:title=" ">
<polygon fill="white" stroke="#666666" points="597.25,-128.5 482.25,-128.5 482.25,-98 597.25,-98 597.25,-128.5"/>
<text text-anchor="start" x="490.25" y="-115" font-family="Helvetica,sans-Serif" font-size="10.00">Slic3r::GUI::GLToolbar</text>
<text text-anchor="middle" x="539.75" y="-103.75" font-family="Helvetica,sans-Serif" font-size="10.00">::get_height_vertical</text>
</a>
</g>
</g>
<!-- Node3&#45;&gt;Node5 -->
<g id="edge4_Node000003_Node000005" class="edge">
<title>Node3&#45;&gt;Node5</title>
<g id="a_edge4_Node000003_Node000005"><a xlink:title=" ">
<path fill="none" stroke="#63b8ff" d="M446.51,-97.77C454.63,-99.14 463.04,-100.55 471.34,-101.94"/>
<polygon fill="#63b8ff" stroke="#63b8ff" points="470.71,-105.55 481.15,-103.75 471.87,-98.65 470.71,-105.55"/>
</a>
</g>
</g>
<!-- Node7 -->
<g id="Node000007" class="node">
<title>Node7</title>
<g id="a_Node000007"><a xlink:href="../../d3/dff/class_slic3r_1_1_g_u_i_1_1_g_l_toolbar.html#a966b672706c75e0d1da4e8c45f686ad9" target="_top" xlink:title=" ">
<polygon fill="white" stroke="#666666" points="597.25,-79.5 482.25,-79.5 482.25,-49 597.25,-49 597.25,-79.5"/>
<text text-anchor="start" x="490.25" y="-66" font-family="Helvetica,sans-Serif" font-size="10.00">Slic3r::GUI::GLToolbar</text>
<text text-anchor="middle" x="539.75" y="-54.75" font-family="Helvetica,sans-Serif" font-size="10.00">::get_width_horizontal</text>
</a>
</g>
</g>
<!-- Node3&#45;&gt;Node7 -->
<g id="edge6_Node000003_Node000007" class="edge">
<title>Node3&#45;&gt;Node7</title>
<g id="a_edge6_Node000003_Node000007"><a xlink:title=" ">
<path fill="none" stroke="#63b8ff" d="M446.51,-79.11C454.63,-77.8 463.04,-76.44 471.34,-75.11"/>
<polygon fill="#63b8ff" stroke="#63b8ff" points="471.84,-78.41 481.15,-73.37 470.72,-71.5 471.84,-78.41"/>
</a>
</g>
</g>
<!-- Node8 -->
<g id="Node000008" class="node">
<title>Node8</title>
<g id="a_Node000008"><a xlink:href="../../d3/dff/class_slic3r_1_1_g_u_i_1_1_g_l_toolbar.html#a5334a16f1239026815a7b75362cdae06" target="_top" xlink:title=" ">
<polygon fill="white" stroke="#666666" points="597.25,-30.5 482.25,-30.5 482.25,0 597.25,0 597.25,-30.5"/>
<text text-anchor="start" x="490.25" y="-17" font-family="Helvetica,sans-Serif" font-size="10.00">Slic3r::GUI::GLToolbar</text>
<text text-anchor="middle" x="539.75" y="-5.75" font-family="Helvetica,sans-Serif" font-size="10.00">::get_width_vertical</text>
</a>
</g>
</g>
<!-- Node3&#45;&gt;Node8 -->
<g id="edge7_Node000003_Node000008" class="edge">
<title>Node3&#45;&gt;Node8</title>
<g id="a_edge7_Node000003_Node000008"><a xlink:title=" ">
<path fill="none" stroke="#63b8ff" d="M418.68,-72.65C436.8,-63.03 460.72,-50.59 482.25,-40.25 485.59,-38.65 489.06,-37.02 492.56,-35.41"/>
<polygon fill="#63b8ff" stroke="#63b8ff" points="493.77,-38.25 501.43,-30.92 490.88,-31.87 493.77,-38.25"/>
</a>
</g>
</g>
<!-- Node6 -->
<g id="Node000006" class="node">
<title>Node6</title>
<g id="a_Node000006"><a xlink:href="../../d3/dff/class_slic3r_1_1_g_u_i_1_1_g_l_toolbar.html#a00f3aa16d3a3f8b521f64fb774b3dd80" target="_top" xlink:title=" ">
<polygon fill="white" stroke="#666666" points="748.25,-128.5 633.25,-128.5 633.25,-98 748.25,-98 748.25,-128.5"/>
<text text-anchor="start" x="641.25" y="-115" font-family="Helvetica,sans-Serif" font-size="10.00">Slic3r::GUI::GLToolbar</text>
<text text-anchor="middle" x="690.75" y="-103.75" font-family="Helvetica,sans-Serif" font-size="10.00">::get_main_size</text>
</a>
</g>
</g>
<!-- Node5&#45;&gt;Node6 -->
<g id="edge5_Node000005_Node000006" class="edge">
<title>Node5&#45;&gt;Node6</title>
<g id="a_edge5_Node000005_Node000006"><a xlink:title=" ">
<path fill="none" stroke="#63b8ff" d="M597.51,-113.25C605.63,-113.25 614.04,-113.25 622.34,-113.25"/>
<polygon fill="#63b8ff" stroke="#63b8ff" points="622.15,-116.75 632.15,-113.25 622.15,-109.75 622.15,-116.75"/>
</a>
</g>
</g>
</g>
</svg>

<g id="navigator" transform="translate(0 0)" fill="#404254">
  <rect fill="#f2f5e9" fill-opacity="0.5" stroke="#606060" stroke-width=".5" x="0" y="0" width="60" height="60"/>
  <use id="zoomplus" xlink:href="#zoomPlus" x="17" y="9" onmousedown="handleZoom(evt,'in')"/>
  <use id="zoomminus" xlink:href="#zoomMin" x="42" y="9" onmousedown="handleZoom(evt,'out')"/>
  <use id="reset" xlink:href="#resetDef" x="30" y="36" onmousedown="handleReset()"/>
   <use id="arrowup" xlink:href="#arrowUp" x="0" y="0" onmousedown="handlePan(0,-1)"/>
  <use id="arrowright" xlink:href="#arrowRight" x="0" y="0" onmousedown="handlePan(1,0)"/>
  <use id="arrowdown" xlink:href="#arrowDown" x="0" y="0" onmousedown="handlePan(0,1)"/>
  <use id="arrowleft" xlink:href="#arrowLeft" x="0" y="0" onmousedown="handlePan(-1,0)"/>
</g>
<svg viewBox="0 0 15 15" width="100%" height="30px" preserveAspectRatio="xMaxYMin meet">
 <g id="arrow_out" transform="scale(0.3 0.3)">
  <a xlink:href="class_slic3r_1_1_g_u_i_1_1_g_l_canvas3_d_afbc2fb91b1301c2f8170bfcd850fc618_cgraph_org.svg" target="_base">
   <rect id="button" ry="5" rx="5" y="6" x="6" height="38" width="38"
        fill="#f2f5e9" fill-opacity="0.5" stroke="#606060" stroke-width="1.0"/>
   <path id="arrow"
     d="M 11.500037,31.436501 C 11.940474,20.09759 22.043105,11.32322 32.158766,21.979434 L 37.068811,17.246167 C 37.068811,17.246167 37.088388,32 37.088388,32 L 22.160133,31.978069 C 22.160133,31.978069 26.997745,27.140456 26.997745,27.140456 C 18.528582,18.264221 13.291696,25.230495 11.500037,31.436501 z"
     style="fill:#404040;"/>
  </a>
 </g>
</svg>

<style type='text/css'>
<![CDATA[
[data-mouse-over-selected='false'] { opacity: 0.7; }
[data-mouse-over-selected='true']  { opacity: 1.0; }
]]>
</style>
<script type="application/ecmascript"><![CDATA[
document.addEventListener('DOMContentLoaded', (event) => {
  highlightEdges();
  highlightAdjacentNodes();
});
]]></script>
</svg>
