<?xml version="1.0" encoding="UTF-8" standalone="no"?>
<!DOCTYPE svg PUBLIC "-//W3C//DTD SVG 1.1//EN"
 "http://www.w3.org/Graphics/SVG/1.1/DTD/svg11.dtd">
<!-- Generated by graphviz version 8.1.0 (20230707.0739)
 -->
<!-- Title: Slic3r::GUI::GLCanvas3D::_init_return_toolbar Pages: 1 -->
<svg width="608pt" height="212pt"
 viewBox="0.00 0.00 608.25 212.25" xmlns="http://www.w3.org/2000/svg" xmlns:xlink="http://www.w3.org/1999/xlink">
<g id="graph0" class="graph" transform="scale(1 1) rotate(0) translate(4 208.25)">
<title>Slic3r::GUI::GLCanvas3D::_init_return_toolbar</title>
<!-- Node1 -->
<g id="Node000001" class="node">
<title>Node1</title>
<g id="a_Node000001"><a xlink:title=" ">
<polygon fill="#999999" stroke="#666666" points="130,-69.88 0,-69.88 0,-39.38 130,-39.38 130,-69.88"/>
<text text-anchor="start" x="8" y="-56.38" font-family="Helvetica,sans-Serif" font-size="10.00">Slic3r::GUI::GLCanvas3D</text>
<text text-anchor="middle" x="65" y="-45.12" font-family="Helvetica,sans-Serif" font-size="10.00">::_init_return_toolbar</text>
</a>
</g>
</g>
<!-- Node2 -->
<g id="Node000002" class="node">
<title>Node2</title>
<g id="a_Node000002"><a xlink:href="../../d8/dcf/class_slic3r_1_1_g_u_i_1_1_i_m_return_toolbar.html#ab37376157e265b3d5c7f1c17a8c4f121" target="_top" xlink:title=" ">
<polygon fill="white" stroke="#666666" points="308.75,-94.88 166,-94.88 166,-64.38 308.75,-64.38 308.75,-94.88"/>
<text text-anchor="start" x="174" y="-81.38" font-family="Helvetica,sans-Serif" font-size="10.00">Slic3r::GUI::IMReturnToolbar</text>
<text text-anchor="middle" x="237.38" y="-70.12" font-family="Helvetica,sans-Serif" font-size="10.00">::init</text>
</a>
</g>
</g>
<!-- Node1&#45;&gt;Node2 -->
<g id="edge1_Node000001_Node000002" class="edge">
<title>Node1&#45;&gt;Node2</title>
<g id="a_edge1_Node000001_Node000002"><a xlink:title=" ">
<path fill="none" stroke="#63b8ff" d="M130.41,-64.08C138.41,-65.25 146.66,-66.46 154.87,-67.66"/>
<polygon fill="#63b8ff" stroke="#63b8ff" points="154.2,-71.25 164.6,-69.24 155.22,-64.33 154.2,-71.25"/>
</a>
</g>
</g>
<!-- Node11 -->
<g id="Node000011" class="node">
<title>Node11</title>
<g id="a_Node000011"><a xlink:href="../../d8/dcf/class_slic3r_1_1_g_u_i_1_1_i_m_return_toolbar.html#a7e46820ab47a7afc4a72518bac3da39b" target="_top" xlink:title=" ">
<polygon fill="white" stroke="#666666" points="308.75,-45.88 166,-45.88 166,-15.37 308.75,-15.37 308.75,-45.88"/>
<text text-anchor="start" x="174" y="-32.38" font-family="Helvetica,sans-Serif" font-size="10.00">Slic3r::GUI::IMReturnToolbar</text>
<text text-anchor="middle" x="237.38" y="-21.12" font-family="Helvetica,sans-Serif" font-size="10.00">::is_enabled</text>
</a>
</g>
</g>
<!-- Node1&#45;&gt;Node11 -->
<g id="edge10_Node000001_Node000011" class="edge">
<title>Node1&#45;&gt;Node11</title>
<g id="a_edge10_Node000001_Node000011"><a xlink:title=" ">
<path fill="none" stroke="#63b8ff" d="M130.41,-45.55C138.41,-44.43 146.66,-43.26 154.87,-42.11"/>
<polygon fill="#63b8ff" stroke="#63b8ff" points="155.19,-45.45 164.6,-40.59 154.21,-38.52 155.19,-45.45"/>
</a>
</g>
</g>
<!-- Node3 -->
<g id="Node000003" class="node">
<title>Node3</title>
<g id="a_Node000003"><a xlink:href="../../d9/d45/namespace_slic3r_1_1_g_u_i.html#a16369536237b7454883116822d46f87a" target="_top" xlink:title=" ">
<polygon fill="white" stroke="#666666" points="453,-116.88 344.75,-116.88 344.75,-86.38 453,-86.38 453,-116.88"/>
<text text-anchor="start" x="352.75" y="-103.38" font-family="Helvetica,sans-Serif" font-size="10.00">Slic3r::GUI::get_data</text>
<text text-anchor="middle" x="398.88" y="-92.12" font-family="Helvetica,sans-Serif" font-size="10.00">_from_svg</text>
</a>
</g>
</g>
<!-- Node2&#45;&gt;Node3 -->
<g id="edge2_Node000002_Node000003" class="edge">
<title>Node2&#45;&gt;Node3</title>
<g id="a_edge2_Node000002_Node000003"><a xlink:title=" ">
<path fill="none" stroke="#63b8ff" d="M308.8,-89.34C317.15,-90.49 325.65,-91.66 333.91,-92.8"/>
<polygon fill="#63b8ff" stroke="#63b8ff" points="333.21,-96.38 343.6,-94.28 334.17,-89.44 333.21,-96.38"/>
</a>
</g>
</g>
<!-- Node10 -->
<g id="Node000010" class="node">
<title>Node10</title>
<g id="a_Node000010"><a xlink:href="../../de/db8/namespace_slic3r.html#a98b4dcd95032a990c6541512e9719696" target="_top" xlink:title=" ">
<polygon fill="white" stroke="#666666" points="451.5,-68.25 346.25,-68.25 346.25,-49 451.5,-49 451.5,-68.25"/>
<text text-anchor="middle" x="398.88" y="-54.75" font-family="Helvetica,sans-Serif" font-size="10.00">Slic3r::resources_dir</text>
</a>
</g>
</g>
<!-- Node2&#45;&gt;Node10 -->
<g id="edge9_Node000002_Node000010" class="edge">
<title>Node2&#45;&gt;Node10</title>
<g id="a_edge9_Node000002_Node000010"><a xlink:title=" ">
<path fill="none" stroke="#63b8ff" d="M308.8,-70.35C317.6,-69.19 326.56,-68.02 335.23,-66.87"/>
<polygon fill="#63b8ff" stroke="#63b8ff" points="335.57,-70.23 345.03,-65.45 334.66,-63.29 335.57,-70.23"/>
</a>
</g>
</g>
<!-- Node4 -->
<g id="Node000004" class="node">
<title>Node4</title>
<g id="a_Node000004"><a xlink:href="../../d8/d23/nanosvgrast_8h.html#a39f1a90d36b9c773d57041c8cda0a88a" target="_top" xlink:title=" ">
<polygon fill="white" stroke="#666666" points="600.25,-204.25 489,-204.25 489,-185 600.25,-185 600.25,-204.25"/>
<text text-anchor="middle" x="544.62" y="-190.75" font-family="Helvetica,sans-Serif" font-size="10.00">nsvgCreateRasterizer</text>
</a>
</g>
</g>
<!-- Node3&#45;&gt;Node4 -->
<g id="edge3_Node000003_Node000004" class="edge">
<title>Node3&#45;&gt;Node4</title>
<g id="a_edge3_Node000003_Node000004"><a xlink:title=" ">
<path fill="none" stroke="#63b8ff" d="M414.61,-117.16C431.26,-133.91 459.86,-160.37 489,-176.62 491.4,-177.97 493.92,-179.23 496.5,-180.41"/>
<polygon fill="#63b8ff" stroke="#63b8ff" points="495.08,-184.02 505.66,-184.59 497.74,-177.55 495.08,-184.02"/>
</a>
</g>
</g>
<!-- Node5 -->
<g id="Node000005" class="node">
<title>Node5</title>
<g id="a_Node000005"><a xlink:href="../../d4/d64/nanosvg_8h.html#ae474f7838b9272736a6945cdb73aad1f" target="_top" xlink:title=" ">
<polygon fill="white" stroke="#666666" points="577.38,-167.25 511.88,-167.25 511.88,-148 577.38,-148 577.38,-167.25"/>
<text text-anchor="middle" x="544.62" y="-153.75" font-family="Helvetica,sans-Serif" font-size="10.00">nsvgDelete</text>
</a>
</g>
</g>
<!-- Node3&#45;&gt;Node5 -->
<g id="edge4_Node000003_Node000005" class="edge">
<title>Node3&#45;&gt;Node5</title>
<g id="a_edge4_Node000003_Node000005"><a xlink:title=" ">
<path fill="none" stroke="#63b8ff" d="M434.73,-117.3C451.08,-124.44 470.9,-132.8 489,-139.62 492.93,-141.11 497.05,-142.59 501.19,-144.03"/>
<polygon fill="#63b8ff" stroke="#63b8ff" points="499.81,-147.6 510.4,-147.51 502.06,-140.98 499.81,-147.6"/>
</a>
</g>
</g>
<!-- Node6 -->
<g id="Node000006" class="node">
<title>Node6</title>
<g id="a_Node000006"><a xlink:href="../../d8/d23/nanosvgrast_8h.html#ae2ace40cfac53302ba8856d584872734" target="_top" xlink:title=" ">
<polygon fill="white" stroke="#666666" points="599.88,-130.25 489.38,-130.25 489.38,-111 599.88,-111 599.88,-130.25"/>
<text text-anchor="middle" x="544.62" y="-116.75" font-family="Helvetica,sans-Serif" font-size="10.00">nsvgDeleteRasterizer</text>
</a>
</g>
</g>
<!-- Node3&#45;&gt;Node6 -->
<g id="edge5_Node000003_Node000006" class="edge">
<title>Node3&#45;&gt;Node6</title>
<g id="a_edge5_Node000003_Node000006"><a xlink:title=" ">
<path fill="none" stroke="#63b8ff" d="M453.4,-108.7C461.51,-109.77 469.94,-110.89 478.26,-111.99"/>
<polygon fill="#63b8ff" stroke="#63b8ff" points="477.72,-115.58 488.09,-113.42 478.64,-108.64 477.72,-115.58"/>
</a>
</g>
</g>
<!-- Node7 -->
<g id="Node000007" class="node">
<title>Node7</title>
<g id="a_Node000007"><a xlink:href="../../d4/d64/nanosvg_8h.html#a01777662fd942d2e00bbacae0dbc1031" target="_top" xlink:title=" ">
<polygon fill="white" stroke="#666666" points="595,-93.25 494.25,-93.25 494.25,-74 595,-74 595,-93.25"/>
<text text-anchor="middle" x="544.62" y="-79.75" font-family="Helvetica,sans-Serif" font-size="10.00">nsvgParseFromFile</text>
</a>
</g>
</g>
<!-- Node3&#45;&gt;Node7 -->
<g id="edge6_Node000003_Node000007" class="edge">
<title>Node3&#45;&gt;Node7</title>
<g id="a_edge6_Node000003_Node000007"><a xlink:title=" ">
<path fill="none" stroke="#63b8ff" d="M453.4,-94.92C463.13,-93.7 473.35,-92.43 483.26,-91.18"/>
<polygon fill="#63b8ff" stroke="#63b8ff" points="483.37,-94.57 492.86,-89.86 482.5,-87.63 483.37,-94.57"/>
</a>
</g>
</g>
<!-- Node8 -->
<g id="Node000008" class="node">
<title>Node8</title>
<g id="a_Node000008"><a xlink:href="../../d8/d23/nanosvgrast_8h.html#a73d8a67a24e08c96ec8c2b823d8a29b2" target="_top" xlink:title=" ">
<polygon fill="white" stroke="#666666" points="584.12,-56.25 505.12,-56.25 505.12,-37 584.12,-37 584.12,-56.25"/>
<text text-anchor="middle" x="544.62" y="-42.75" font-family="Helvetica,sans-Serif" font-size="10.00">nsvgRasterize</text>
</a>
</g>
</g>
<!-- Node3&#45;&gt;Node8 -->
<g id="edge7_Node000003_Node000008" class="edge">
<title>Node3&#45;&gt;Node8</title>
<g id="a_edge7_Node000003_Node000008"><a xlink:title=" ">
<path fill="none" stroke="#63b8ff" d="M436.05,-85.88C452.15,-79.06 471.41,-71.16 489,-64.62 492.99,-63.14 497.17,-61.65 501.36,-60.2"/>
<polygon fill="#63b8ff" stroke="#63b8ff" points="502.36,-63.22 510.71,-56.69 500.12,-56.59 502.36,-63.22"/>
</a>
</g>
</g>
<!-- Node9 -->
<g id="Node000009" class="node">
<title>Node9</title>
<g id="a_Node000009"><a xlink:href="../../d6/dba/_wipe_tower_dialog_8cpp.html#a031c2862b832be718b216d1f101f88cd" target="_top" xlink:title=" ">
<polygon fill="white" stroke="#666666" points="564.25,-19.25 525,-19.25 525,0 564.25,0 564.25,-19.25"/>
<text text-anchor="middle" x="544.62" y="-5.75" font-family="Helvetica,sans-Serif" font-size="10.00">scale</text>
</a>
</g>
</g>
<!-- Node3&#45;&gt;Node9 -->
<g id="edge8_Node000003_Node000009" class="edge">
<title>Node3&#45;&gt;Node9</title>
<g id="a_edge8_Node000003_Node000009"><a xlink:title=" ">
<path fill="none" stroke="#63b8ff" d="M440.65,-85.93C445.02,-83.47 449.24,-80.7 453,-77.62 474.2,-60.29 466.91,-43.81 489,-27.62 496.36,-22.23 505.43,-18.39 514.05,-15.69"/>
<polygon fill="#63b8ff" stroke="#63b8ff" points="514.83,-18.83 523.56,-12.84 512.99,-12.08 514.83,-18.83"/>
</a>
</g>
</g>
</g>
</svg>
