<?xml version="1.0" encoding="UTF-8" standalone="no"?>
<!DOCTYPE svg PUBLIC "-//W3C//DTD SVG 1.1//EN"
 "http://www.w3.org/Graphics/SVG/1.1/DTD/svg11.dtd">
<!-- Generated by graphviz version 8.1.0 (20230707.0739)
 -->
<!-- Title: Slic3r::GUI::GLCanvas3D::on_change_color_mode Pages: 1 -->
<!--zoomable 701 -->

<svg id="main" version="1.1" xmlns="http://www.w3.org/2000/svg" xmlns:xlink="http://www.w3.org/1999/xlink" xml:space="preserve" onload="init(evt)">
<style type="text/css"><![CDATA[
.node, .edge {opacity: 0.7;}
.node.selected, .edge.selected {opacity: 1;}
.edge:hover path { stroke: red; }
.edge:hover polygon { stroke: red; fill: red; }
]]></style>

<defs>
  <circle id="rim" cx="0" cy="0" r="7"/>
  <circle id="rim2" cx="0" cy="0" r="3.5"/>
  <g id="zoomPlus">
    <use xlink:href="#rim" fill="#404040"><set attributeName="fill" to="#808080" begin="zoomplus.mouseover" end="zoomplus.mouseout"/></use>
    <path d="M-4,0h8M0,-4v8" fill="none" stroke="white" stroke-width="1.5" pointer-events="none"/>
  </g>
  <g id="zoomMin">
    <use xlink:href="#rim" fill="#404040"><set attributeName="fill" to="#808080" begin="zoomminus.mouseover" end="zoomminus.mouseout"/></use>
    <path d="M-4,0h8" fill="none" stroke="white" stroke-width="1.5" pointer-events="none"/>
  </g>
  <g id="arrowUp" transform="translate(30 24)">
    <use xlink:href="#rim"/>
    <path pointer-events="none" fill="none" stroke="white" stroke-width="1.5" d="M0,-3.0v7 M-2.5,-0.5L0,-3.0L2.5,-0.5"/>
  </g>
  <g id="arrowRight" transform="rotate(90) translate(36 -43)">
    <use xlink:href="#rim"/>
    <path pointer-events="none" fill="none" stroke="white" stroke-width="1.5" d="M0,-3.0v7 M-2.5,-0.5L0,-3.0L2.5,-0.5"/>
  </g>
  <g id="arrowDown" transform="rotate(180) translate(-30 -48)">
    <use xlink:href="#rim"/>
    <path pointer-events="none" fill="none" stroke="white" stroke-width="1.5" d="M0,-3.0v7 M-2.5,-0.5L0,-3.0L2.5,-0.5"/>
  </g>
  <g id="arrowLeft" transform="rotate(270) translate(-36 17)">
    <use xlink:href="#rim"/>
    <path pointer-events="none" fill="none" stroke="white" stroke-width="1.5" d="M0,-3.0v7 M-2.5,-0.5L0,-3.0L2.5,-0.5"/>
  </g>
  <g id="resetDef">
    <use xlink:href="#rim2" fill="#404040"><set attributeName="fill" to="#808080" begin="reset.mouseover" end="reset.mouseout"/></use>
  </g>
</defs>
<script type="application/ecmascript">
var viewWidth = 1027;
var viewHeight = 701;
var sectionId = 'dynsection-267';
</script>
<script type="application/ecmascript" xlink:href="../../svg.min.js"/>
<svg id="graph" class="graph">
<g id="viewport">
<title>Slic3r::GUI::GLCanvas3D::on_change_color_mode</title>
<!-- Node1 -->
<g id="Node000001" class="node">
<title>Node1</title>
<g id="a_Node000001"><a xlink:title=" ">
<polygon fill="#999999" stroke="#666666" points="130,-275.5 0,-275.5 0,-245 130,-245 130,-275.5"/>
<text text-anchor="start" x="8" y="-262" font-family="Helvetica,sans-Serif" font-size="10.00">Slic3r::GUI::GLCanvas3D</text>
<text text-anchor="middle" x="65" y="-250.75" font-family="Helvetica,sans-Serif" font-size="10.00">::on_change_color_mode</text>
</a>
</g>
</g>
<!-- Node2 -->
<g id="Node000002" class="node">
<title>Node2</title>
<g id="a_Node000002"><a xlink:href="../../d0/d2b/class_slic3r_1_1_g_u_i_1_1_g_l_canvas3_d.html#aa4a0cdbe7272e89ad26dba8f01e37962" target="_top" xlink:title=" ">
<polygon fill="white" stroke="#666666" points="308.38,-531.12 178.38,-531.12 178.38,-489.38 308.38,-489.38 308.38,-531.12"/>
<text text-anchor="start" x="186.38" y="-517.62" font-family="Helvetica,sans-Serif" font-size="10.00">Slic3r::GUI::GLCanvas3D</text>
<text text-anchor="start" x="186.38" y="-506.38" font-family="Helvetica,sans-Serif" font-size="10.00">::_switch_toolbars_icon</text>
<text text-anchor="middle" x="243.38" y="-495.12" font-family="Helvetica,sans-Serif" font-size="10.00">_filename</text>
</a>
</g>
</g>
<!-- Node1&#45;&gt;Node2 -->
<g id="edge1_Node000001_Node000002" class="edge">
<title>Node1&#45;&gt;Node2</title>
<g id="a_edge1_Node000001_Node000002"><a xlink:title=" ">
<path fill="none" stroke="#63b8ff" d="M68.9,-275.92C77.02,-315.59 103.61,-421.05 166,-480.25 167.02,-481.22 168.07,-482.15 169.15,-483.06"/>
<polygon fill="#63b8ff" stroke="#63b8ff" points="166.83,-486.42 176.98,-489.45 170.93,-480.75 166.83,-486.42"/>
</a>
</g>
</g>
<!-- Node17 -->
<g id="Node000017" class="node">
<title>Node17</title>
<g id="a_Node000017"><a xlink:href="../../d0/d2b/class_slic3r_1_1_g_u_i_1_1_g_l_canvas3_d.html#a8fb2ff3d3b6cf217c0d3c60b43e5cd06" target="_top" xlink:title=" ">
<polygon fill="white" stroke="#666666" points="308.38,-471.5 178.38,-471.5 178.38,-441 308.38,-441 308.38,-471.5"/>
<text text-anchor="start" x="186.38" y="-458" font-family="Helvetica,sans-Serif" font-size="10.00">Slic3r::GUI::GLCanvas3D</text>
<text text-anchor="middle" x="243.38" y="-446.75" font-family="Helvetica,sans-Serif" font-size="10.00">::get_gcode_viewer</text>
</a>
</g>
</g>
<!-- Node1&#45;&gt;Node17 -->
<g id="edge14_Node000001_Node000017" class="edge">
<title>Node1&#45;&gt;Node17</title>
<g id="a_edge14_Node000001_Node000017"><a xlink:title=" ">
<path fill="none" stroke="#63b8ff" d="M70.83,-275.77C82.01,-309.18 112.87,-388.38 166,-431.25 167.67,-432.6 169.41,-433.87 171.22,-435.08"/>
<polygon fill="#63b8ff" stroke="#63b8ff" points="169.26,-438.57 179.67,-440.57 172.78,-432.52 169.26,-438.57"/>
</a>
</g>
</g>
<!-- Node18 -->
<g id="Node000018" class="node">
<title>Node18</title>
<g id="a_Node000018"><a xlink:href="../../de/dc3/class_slic3r_1_1_g_u_i_1_1_g_code_viewer.html#a943bf4e613f154fc492558db86765d8e" target="_top" xlink:title=" ">
<polygon fill="white" stroke="#666666" points="309.12,-422.5 177.62,-422.5 177.62,-392 309.12,-392 309.12,-422.5"/>
<text text-anchor="start" x="185.62" y="-409" font-family="Helvetica,sans-Serif" font-size="10.00">Slic3r::GUI::GCodeViewer</text>
<text text-anchor="middle" x="243.38" y="-397.75" font-family="Helvetica,sans-Serif" font-size="10.00">::get_layers_slider</text>
</a>
</g>
</g>
<!-- Node1&#45;&gt;Node18 -->
<g id="edge15_Node000001_Node000018" class="edge">
<title>Node1&#45;&gt;Node18</title>
<g id="a_edge15_Node000001_Node000018"><a xlink:title=" ">
<path fill="none" stroke="#63b8ff" d="M74.67,-275.76C89.86,-301.56 123.74,-353.32 166,-382.25 168.27,-383.8 170.64,-385.26 173.08,-386.64"/>
<polygon fill="#63b8ff" stroke="#63b8ff" points="171.3,-390.16 181.81,-391.52 174.44,-383.91 171.3,-390.16"/>
</a>
</g>
</g>
<!-- Node19 -->
<g id="Node000019" class="node">
<title>Node19</title>
<g id="a_Node000019"><a xlink:href="../../de/dc3/class_slic3r_1_1_g_u_i_1_1_g_code_viewer.html#a973111443ce661455dea63c3dfbee940" target="_top" xlink:title=" ">
<polygon fill="white" stroke="#666666" points="309.12,-373.5 177.62,-373.5 177.62,-343 309.12,-343 309.12,-373.5"/>
<text text-anchor="start" x="185.62" y="-360" font-family="Helvetica,sans-Serif" font-size="10.00">Slic3r::GUI::GCodeViewer</text>
<text text-anchor="middle" x="243.38" y="-348.75" font-family="Helvetica,sans-Serif" font-size="10.00">::get_moves_slider</text>
</a>
</g>
</g>
<!-- Node1&#45;&gt;Node19 -->
<g id="edge16_Node000001_Node000019" class="edge">
<title>Node1&#45;&gt;Node19</title>
<g id="a_edge16_Node000001_Node000019"><a xlink:title=" ">
<path fill="none" stroke="#63b8ff" d="M83.66,-275.83C102.8,-292.05 134.82,-317.27 166,-333.25 169.56,-335.07 173.29,-336.8 177.09,-338.44"/>
<polygon fill="#63b8ff" stroke="#63b8ff" points="175.7,-342.05 186.29,-342.53 178.31,-335.56 175.7,-342.05"/>
</a>
</g>
</g>
<!-- Node20 -->
<g id="Node000020" class="node">
<title>Node20</title>
<g id="a_Node000020"><a xlink:href="../../db/d65/class_slic3r_1_1_g_u_i_1_1_bed3_d.html#a9d9287d2f9128f837a8c33f9f55b3b00" target="_top" xlink:title=" ">
<polygon fill="white" stroke="#666666" points="305.75,-324.5 181,-324.5 181,-294 305.75,-294 305.75,-324.5"/>
<text text-anchor="start" x="189" y="-311" font-family="Helvetica,sans-Serif" font-size="10.00">Slic3r::GUI::Bed3D</text>
<text text-anchor="middle" x="243.38" y="-299.75" font-family="Helvetica,sans-Serif" font-size="10.00">::on_change_color_mode</text>
</a>
</g>
</g>
<!-- Node1&#45;&gt;Node20 -->
<g id="edge17_Node000001_Node000020" class="edge">
<title>Node1&#45;&gt;Node20</title>
<g id="a_edge17_Node000001_Node000020"><a xlink:title=" ">
<path fill="none" stroke="#63b8ff" d="M122.29,-275.89C139.23,-280.59 157.98,-285.8 175.54,-290.68"/>
<polygon fill="#63b8ff" stroke="#63b8ff" points="174.14,-294.2 184.71,-293.51 176.01,-287.46 174.14,-294.2"/>
</a>
</g>
</g>
<!-- Node21 -->
<g id="Node000021" class="node">
<title>Node21</title>
<g id="a_Node000021"><a xlink:href="../../de/dc3/class_slic3r_1_1_g_u_i_1_1_g_code_viewer.html#a6a0373e46f6045a9c3d96e6595fd9170" target="_top" xlink:title=" ">
<polygon fill="white" stroke="#666666" points="309.12,-275.5 177.62,-275.5 177.62,-245 309.12,-245 309.12,-275.5"/>
<text text-anchor="start" x="185.62" y="-262" font-family="Helvetica,sans-Serif" font-size="10.00">Slic3r::GUI::GCodeViewer</text>
<text text-anchor="middle" x="243.38" y="-250.75" font-family="Helvetica,sans-Serif" font-size="10.00">::on_change_color_mode</text>
</a>
</g>
</g>
<!-- Node1&#45;&gt;Node21 -->
<g id="edge18_Node000001_Node000021" class="edge">
<title>Node1&#45;&gt;Node21</title>
<g id="a_edge18_Node000001_Node000021"><a xlink:title=" ">
<path fill="none" stroke="#63b8ff" d="M130.17,-260.25C141.94,-260.25 154.32,-260.25 166.39,-260.25"/>
<polygon fill="#63b8ff" stroke="#63b8ff" points="166.36,-263.75 176.36,-260.25 166.36,-256.75 166.36,-263.75"/>
</a>
</g>
</g>
<!-- Node24 -->
<g id="Node000024" class="node">
<title>Node24</title>
<g id="a_Node000024"><a xlink:href="../../df/d0a/class_slic3r_1_1_g_u_i_1_1_g_l_gizmos_manager.html#a17a2ea8fb0bcc73b49cc4215af43412d" target="_top" xlink:title=" ">
<polygon fill="white" stroke="#666666" points="320.75,-226.5 166,-226.5 166,-196 320.75,-196 320.75,-226.5"/>
<text text-anchor="start" x="174" y="-213" font-family="Helvetica,sans-Serif" font-size="10.00">Slic3r::GUI::GLGizmosManager</text>
<text text-anchor="middle" x="243.38" y="-201.75" font-family="Helvetica,sans-Serif" font-size="10.00">::on_change_color_mode</text>
</a>
</g>
</g>
<!-- Node1&#45;&gt;Node24 -->
<g id="edge21_Node000001_Node000024" class="edge">
<title>Node1&#45;&gt;Node24</title>
<g id="a_edge21_Node000001_Node000024"><a xlink:title=" ">
<path fill="none" stroke="#63b8ff" d="M122.29,-244.61C139.23,-239.91 157.98,-234.7 175.54,-229.82"/>
<polygon fill="#63b8ff" stroke="#63b8ff" points="176.01,-233.04 184.71,-226.99 174.14,-226.3 176.01,-233.04"/>
</a>
</g>
</g>
<!-- Node25 -->
<g id="Node000025" class="node">
<title>Node25</title>
<g id="a_Node000025"><a xlink:href="../../df/d17/class_slic3r_1_1_g_u_i_1_1_i_m_slider.html#aaaced4340acfc570f9dafca38e18c1e8" target="_top" xlink:title=" ">
<polygon fill="white" stroke="#666666" points="305.75,-177.5 181,-177.5 181,-147 305.75,-147 305.75,-177.5"/>
<text text-anchor="start" x="189" y="-164" font-family="Helvetica,sans-Serif" font-size="10.00">Slic3r::GUI::IMSlider</text>
<text text-anchor="middle" x="243.38" y="-152.75" font-family="Helvetica,sans-Serif" font-size="10.00">::on_change_color_mode</text>
</a>
</g>
</g>
<!-- Node1&#45;&gt;Node25 -->
<g id="edge22_Node000001_Node000025" class="edge">
<title>Node1&#45;&gt;Node25</title>
<g id="a_edge22_Node000001_Node000025"><a xlink:title=" ">
<path fill="none" stroke="#63b8ff" d="M83.66,-244.67C102.8,-228.45 134.82,-203.23 166,-187.25 169.56,-185.43 173.29,-183.7 177.09,-182.06"/>
<polygon fill="#63b8ff" stroke="#63b8ff" points="178.31,-184.94 186.29,-177.97 175.7,-178.45 178.31,-184.94"/>
</a>
</g>
</g>
<!-- Node26 -->
<g id="Node000026" class="node">
<title>Node26</title>
<g id="a_Node000026"><a xlink:href="../../df/d0a/class_slic3r_1_1_g_u_i_1_1_g_l_gizmos_manager.html#a13b9df924f3759347cacbafc96a305d4" target="_top" xlink:title=" ">
<polygon fill="white" stroke="#666666" points="320.75,-128.5 166,-128.5 166,-98 320.75,-98 320.75,-128.5"/>
<text text-anchor="start" x="174" y="-115" font-family="Helvetica,sans-Serif" font-size="10.00">Slic3r::GUI::GLGizmosManager</text>
<text text-anchor="middle" x="243.38" y="-103.75" font-family="Helvetica,sans-Serif" font-size="10.00">::set_icon_dirty</text>
</a>
</g>
</g>
<!-- Node1&#45;&gt;Node26 -->
<g id="edge23_Node000001_Node000026" class="edge">
<title>Node1&#45;&gt;Node26</title>
<g id="a_edge23_Node000001_Node000026"><a xlink:title=" ">
<path fill="none" stroke="#63b8ff" d="M74.67,-244.74C89.86,-218.94 123.74,-167.18 166,-138.25 168.27,-136.7 170.64,-135.24 173.08,-133.86"/>
<polygon fill="#63b8ff" stroke="#63b8ff" points="174.44,-136.59 181.81,-128.98 171.3,-130.34 174.44,-136.59"/>
</a>
</g>
</g>
<!-- Node27 -->
<g id="Node000027" class="node">
<title>Node27</title>
<g id="a_Node000027"><a xlink:href="../../d3/dff/class_slic3r_1_1_g_u_i_1_1_g_l_toolbar.html#a0f08fc4e191011a4db4fa7c2dd5858d4" target="_top" xlink:title=" ">
<polygon fill="white" stroke="#666666" points="300.88,-79.5 185.88,-79.5 185.88,-49 300.88,-49 300.88,-79.5"/>
<text text-anchor="start" x="193.88" y="-66" font-family="Helvetica,sans-Serif" font-size="10.00">Slic3r::GUI::GLToolbar</text>
<text text-anchor="middle" x="243.38" y="-54.75" font-family="Helvetica,sans-Serif" font-size="10.00">::set_icon_dirty</text>
</a>
</g>
</g>
<!-- Node1&#45;&gt;Node27 -->
<g id="edge24_Node000001_Node000027" class="edge">
<title>Node1&#45;&gt;Node27</title>
<g id="a_edge24_Node000001_Node000027"><a xlink:title=" ">
<path fill="none" stroke="#63b8ff" d="M70.83,-244.73C82.01,-211.32 112.87,-132.12 166,-89.25 169.11,-86.74 172.49,-84.47 176.03,-82.43"/>
<polygon fill="#63b8ff" stroke="#63b8ff" points="177.36,-85.18 184.71,-77.54 174.21,-78.93 177.36,-85.18"/>
</a>
</g>
</g>
<!-- Node28 -->
<g id="Node000028" class="node">
<title>Node28</title>
<g id="a_Node000028"><a xlink:href="../../df/d0a/class_slic3r_1_1_g_u_i_1_1_g_l_gizmos_manager.html#a8152a126acd876e74c10dad7d14c8068" target="_top" xlink:title=" ">
<polygon fill="white" stroke="#666666" points="320.75,-30.5 166,-30.5 166,0 320.75,0 320.75,-30.5"/>
<text text-anchor="start" x="174" y="-17" font-family="Helvetica,sans-Serif" font-size="10.00">Slic3r::GUI::GLGizmosManager</text>
<text text-anchor="middle" x="243.38" y="-5.75" font-family="Helvetica,sans-Serif" font-size="10.00">::switch_gizmos_icon_filename</text>
</a>
</g>
</g>
<!-- Node1&#45;&gt;Node28 -->
<g id="edge25_Node000001_Node000028" class="edge">
<title>Node1&#45;&gt;Node28</title>
<g id="a_edge25_Node000001_Node000028"><a xlink:title=" ">
<path fill="none" stroke="#63b8ff" d="M68.64,-244.66C76.22,-204.7 101.77,-97.76 166,-40.25 167.39,-39 168.85,-37.82 170.36,-36.69"/>
<polygon fill="#63b8ff" stroke="#63b8ff" points="171.96,-39.18 178.52,-30.86 168.2,-33.28 171.96,-39.18"/>
</a>
</g>
</g>
<!-- Node3 -->
<g id="Node000003" class="node">
<title>Node3</title>
<g id="a_Node000003"><a xlink:href="../../d3/dff/class_slic3r_1_1_g_u_i_1_1_g_l_toolbar.html#afa1900602d919dfcadc1643b2e4fb8aa" target="_top" xlink:title=" ">
<polygon fill="white" stroke="#666666" points="495,-574.5 380,-574.5 380,-544 495,-544 495,-574.5"/>
<text text-anchor="start" x="388" y="-561" font-family="Helvetica,sans-Serif" font-size="10.00">Slic3r::GUI::GLToolbar</text>
<text text-anchor="middle" x="437.5" y="-549.75" font-family="Helvetica,sans-Serif" font-size="10.00">::get_item</text>
</a>
</g>
</g>
<!-- Node2&#45;&gt;Node3 -->
<g id="edge2_Node000002_Node000003" class="edge">
<title>Node2&#45;&gt;Node3</title>
<g id="a_edge2_Node000002_Node000003"><a xlink:title=" ">
<path fill="none" stroke="#63b8ff" d="M308.62,-526.63C328.13,-531.61 349.61,-537.09 369.31,-542.11"/>
<polygon fill="#63b8ff" stroke="#63b8ff" points="368.18,-545.69 378.74,-544.77 369.91,-538.91 368.18,-545.69"/>
</a>
</g>
</g>
<!-- Node4 -->
<g id="Node000004" class="node">
<title>Node4</title>
<g id="a_Node000004"><a xlink:href="../../d3/dff/class_slic3r_1_1_g_u_i_1_1_g_l_toolbar.html#a7e735a7b99834423a7cc71771a746ab4" target="_top" xlink:title=" ">
<polygon fill="white" stroke="#666666" points="495,-525.5 380,-525.5 380,-495 495,-495 495,-525.5"/>
<text text-anchor="start" x="388" y="-512" font-family="Helvetica,sans-Serif" font-size="10.00">Slic3r::GUI::GLToolbar</text>
<text text-anchor="middle" x="437.5" y="-500.75" font-family="Helvetica,sans-Serif" font-size="10.00">::init</text>
</a>
</g>
</g>
<!-- Node2&#45;&gt;Node4 -->
<g id="edge3_Node000002_Node000004" class="edge">
<title>Node2&#45;&gt;Node4</title>
<g id="a_edge3_Node000002_Node000004"><a xlink:title=" ">
<path fill="none" stroke="#63b8ff" d="M308.62,-510.25C327.95,-510.25 349.22,-510.25 368.77,-510.25"/>
<polygon fill="#63b8ff" stroke="#63b8ff" points="368.74,-513.75 378.74,-510.25 368.74,-506.75 368.74,-513.75"/>
</a>
</g>
</g>
<!-- Node16 -->
<g id="Node000016" class="node">
<title>Node16</title>
<g id="a_Node000016"><a xlink:href="../../da/dc2/class_slic3r_1_1_g_u_i_1_1_g_l_toolbar_item.html#a407065b42fd63f9c9b1bf356b60f82f8" target="_top" xlink:title=" ">
<polygon fill="white" stroke="#666666" points="504.75,-476.5 370.25,-476.5 370.25,-446 504.75,-446 504.75,-476.5"/>
<text text-anchor="start" x="378.25" y="-463" font-family="Helvetica,sans-Serif" font-size="10.00">Slic3r::GUI::GLToolbarItem</text>
<text text-anchor="middle" x="437.5" y="-451.75" font-family="Helvetica,sans-Serif" font-size="10.00">::set_icon_filename</text>
</a>
</g>
</g>
<!-- Node2&#45;&gt;Node16 -->
<g id="edge13_Node000002_Node000016" class="edge">
<title>Node2&#45;&gt;Node16</title>
<g id="a_edge13_Node000002_Node000016"><a xlink:title=" ">
<path fill="none" stroke="#63b8ff" d="M308.62,-493.87C326.49,-489.31 346.02,-484.33 364.32,-479.66"/>
<polygon fill="#63b8ff" stroke="#63b8ff" points="365.1,-482.82 373.92,-476.95 363.37,-476.03 365.1,-482.82"/>
</a>
</g>
</g>
<!-- Node5 -->
<g id="Node000005" class="node">
<title>Node5</title>
<g id="a_Node000005"><a xlink:href="../../db/d45/class_slic3r_1_1_g_u_i_1_1_g_l_texture.html#a33a0f4b07be27d6e13e40b8f3fe9336e" target="_top" xlink:title=" ">
<polygon fill="white" stroke="#666666" points="670,-546.5 554.25,-546.5 554.25,-516 670,-516 670,-546.5"/>
<text text-anchor="start" x="562.25" y="-533" font-family="Helvetica,sans-Serif" font-size="10.00">Slic3r::GUI::GLTexture</text>
<text text-anchor="middle" x="612.12" y="-521.75" font-family="Helvetica,sans-Serif" font-size="10.00">::load_from_file</text>
</a>
</g>
</g>
<!-- Node4&#45;&gt;Node5 -->
<g id="edge4_Node000004_Node000005" class="edge">
<title>Node4&#45;&gt;Node5</title>
<g id="a_edge4_Node000004_Node000005"><a xlink:title=" ">
<path fill="none" stroke="#63b8ff" d="M495.02,-517.13C510.36,-518.99 527.13,-521.03 543.04,-522.97"/>
<polygon fill="#63b8ff" stroke="#63b8ff" points="542.53,-526.55 552.88,-524.29 543.38,-519.6 542.53,-526.55"/>
</a>
</g>
</g>
<!-- Node15 -->
<g id="Node000015" class="node">
<title>Node15</title>
<g id="a_Node000015"><a xlink:href="../../de/db8/namespace_slic3r.html#a98b4dcd95032a990c6541512e9719696" target="_top" xlink:title=" ">
<polygon fill="white" stroke="#666666" points="664.75,-497.88 559.5,-497.88 559.5,-478.62 664.75,-478.62 664.75,-497.88"/>
<text text-anchor="middle" x="612.12" y="-484.38" font-family="Helvetica,sans-Serif" font-size="10.00">Slic3r::resources_dir</text>
</a>
</g>
</g>
<!-- Node4&#45;&gt;Node15 -->
<g id="edge12_Node000004_Node000015" class="edge">
<title>Node4&#45;&gt;Node15</title>
<g id="a_edge12_Node000004_Node000015"><a xlink:title=" ">
<path fill="none" stroke="#63b8ff" d="M495.02,-503.05C512.12,-500.87 531,-498.46 548.48,-496.23"/>
<polygon fill="#63b8ff" stroke="#63b8ff" points="548.67,-499.61 558.15,-494.87 547.79,-492.67 548.67,-499.61"/>
</a>
</g>
</g>
<!-- Node6 -->
<g id="Node000006" class="node">
<title>Node6</title>
<g id="a_Node000006"><a xlink:href="../../db/d45/class_slic3r_1_1_g_u_i_1_1_g_l_texture.html#a4494d15db83a6a360204fa873a834966" target="_top" xlink:title=" ">
<polygon fill="white" stroke="#666666" points="821.75,-569.5 706,-569.5 706,-539 821.75,-539 821.75,-569.5"/>
<text text-anchor="start" x="714" y="-556" font-family="Helvetica,sans-Serif" font-size="10.00">Slic3r::GUI::GLTexture</text>
<text text-anchor="middle" x="763.88" y="-544.75" font-family="Helvetica,sans-Serif" font-size="10.00">::load_from_png</text>
</a>
</g>
</g>
<!-- Node5&#45;&gt;Node6 -->
<g id="edge5_Node000005_Node000006" class="edge">
<title>Node5&#45;&gt;Node6</title>
<g id="a_edge5_Node000005_Node000006"><a xlink:title=" ">
<path fill="none" stroke="#63b8ff" d="M670.17,-540.01C678.33,-541.26 686.79,-542.56 695.13,-543.85"/>
<polygon fill="#63b8ff" stroke="#63b8ff" points="694.58,-547.45 704.99,-545.51 695.64,-540.54 694.58,-547.45"/>
</a>
</g>
</g>
<!-- Node10 -->
<g id="Node000010" class="node">
<title>Node10</title>
<g id="a_Node000010"><a xlink:href="../../db/d45/class_slic3r_1_1_g_u_i_1_1_g_l_texture.html#a47bcd4ad681b43babfd4f3db404660ab" target="_top" xlink:title=" ">
<polygon fill="#fff0f0" stroke="red" points="996.38,-496.5 880.62,-496.5 880.62,-466 996.38,-466 996.38,-496.5"/>
<text text-anchor="start" x="888.62" y="-483" font-family="Helvetica,sans-Serif" font-size="10.00">Slic3r::GUI::GLTexture</text>
<text text-anchor="middle" x="938.5" y="-471.75" font-family="Helvetica,sans-Serif" font-size="10.00">::reset</text>
</a>
</g>
</g>
<!-- Node5&#45;&gt;Node10 -->
<g id="edge11_Node000005_Node000010" class="edge">
<title>Node5&#45;&gt;Node10</title>
<g id="a_edge11_Node000005_Node000010"><a xlink:title=" ">
<path fill="none" stroke="#63b8ff" d="M670.37,-522.43C726.02,-513.85 810.55,-500.82 869.57,-491.72"/>
<polygon fill="#63b8ff" stroke="#63b8ff" points="869.93,-495.05 879.28,-490.07 868.87,-488.13 869.93,-495.05"/>
</a>
</g>
</g>
<!-- Node7 -->
<g id="Node000007" class="node">
<title>Node7</title>
<g id="a_Node000007"><a xlink:href="../../dc/d08/class_slic3r_1_1_g_u_i_1_1_g_l_texture_1_1_compressor.html#a3f37f8f23d12ac9484969c9b0dc9bf55" target="_top" xlink:title=" ">
<polygon fill="white" stroke="#666666" points="999.75,-692.5 877.25,-692.5 877.25,-662 999.75,-662 999.75,-692.5"/>
<text text-anchor="start" x="885.25" y="-679" font-family="Helvetica,sans-Serif" font-size="10.00">Slic3r::GUI::GLTexture</text>
<text text-anchor="middle" x="938.5" y="-667.75" font-family="Helvetica,sans-Serif" font-size="10.00">::Compressor::add_level</text>
</a>
</g>
</g>
<!-- Node6&#45;&gt;Node7 -->
<g id="edge6_Node000006_Node000007" class="edge">
<title>Node6&#45;&gt;Node7</title>
<g id="a_edge6_Node000006_Node000007"><a xlink:title=" ">
<path fill="none" stroke="#63b8ff" d="M775.63,-569.85C791.28,-591.41 822.35,-630.16 857.75,-652.25 860.7,-654.09 863.81,-655.81 867,-657.41"/>
<polygon fill="#63b8ff" stroke="#63b8ff" points="865.26,-660.92 875.81,-661.86 868.15,-654.54 865.26,-660.92"/>
</a>
</g>
</g>
<!-- Node8 -->
<g id="Node000008" class="node">
<title>Node8</title>
<g id="a_Node000008"><a xlink:href="../../d5/dfc/class_slic3r_1_1_g_u_i_1_1_open_g_l_manager.html#a4b08729956998a87b21f1f755ee2b00d" target="_top" xlink:title=" ">
<polygon fill="white" stroke="#666666" points="1010.62,-643.5 866.38,-643.5 866.38,-613 1010.62,-613 1010.62,-643.5"/>
<text text-anchor="start" x="874.38" y="-630" font-family="Helvetica,sans-Serif" font-size="10.00">Slic3r::GUI::OpenGLManager</text>
<text text-anchor="middle" x="938.5" y="-618.75" font-family="Helvetica,sans-Serif" font-size="10.00">::get_gl_info</text>
</a>
</g>
</g>
<!-- Node6&#45;&gt;Node8 -->
<g id="edge7_Node000006_Node000008" class="edge">
<title>Node6&#45;&gt;Node8</title>
<g id="a_edge7_Node000006_Node000008"><a xlink:title=" ">
<path fill="none" stroke="#63b8ff" d="M791.48,-569.95C809.72,-580.29 834.69,-593.65 857.75,-603.25 862.65,-605.29 867.77,-607.26 872.96,-609.13"/>
<polygon fill="#63b8ff" stroke="#63b8ff" points="871.38,-612.63 881.97,-612.61 873.68,-606.02 871.38,-612.63"/>
</a>
</g>
</g>
<!-- Node9 -->
<g id="Node000009" class="node">
<title>Node9</title>
<g id="a_Node000009"><a xlink:href="../../d7/d4a/class_slic3r_1_1_g_u_i_1_1_open_g_l_manager_1_1_g_l_info.html#a0c48109dc7a196edd31b39b54bd0fcfc" target="_top" xlink:title=" ">
<polygon fill="white" stroke="#666666" points="1011,-594.5 866,-594.5 866,-564 1011,-564 1011,-594.5"/>
<text text-anchor="start" x="874" y="-581" font-family="Helvetica,sans-Serif" font-size="10.00">Slic3r::GUI::OpenGLManager</text>
<text text-anchor="middle" x="938.5" y="-569.75" font-family="Helvetica,sans-Serif" font-size="10.00">::GLInfo::get_max_anisotropy</text>
</a>
</g>
</g>
<!-- Node6&#45;&gt;Node9 -->
<g id="edge8_Node000006_Node000009" class="edge">
<title>Node6&#45;&gt;Node9</title>
<g id="a_edge8_Node000006_Node000009"><a xlink:title=" ">
<path fill="none" stroke="#63b8ff" d="M821.88,-562.51C832.52,-564.05 843.84,-565.69 855.07,-567.31"/>
<polygon fill="#63b8ff" stroke="#63b8ff" points="854.38,-570.89 864.78,-568.86 855.39,-563.97 854.38,-570.89"/>
</a>
</g>
</g>
<!-- Node6&#45;&gt;Node10 -->
<g id="edge9_Node000006_Node000010" class="edge">
<title>Node6&#45;&gt;Node10</title>
<g id="a_edge9_Node000006_Node000010"><a xlink:title=" ">
<path fill="none" stroke="#63b8ff" d="M791.92,-538.69C810.14,-528.6 834.92,-515.64 857.75,-506.25 862.66,-504.23 867.79,-502.28 872.98,-500.42"/>
<polygon fill="#63b8ff" stroke="#63b8ff" points="873.69,-503.53 882,-496.95 871.4,-496.91 873.69,-503.53"/>
</a>
</g>
</g>
<!-- Node12 -->
<g id="Node000012" class="node">
<title>Node12</title>
<g id="a_Node000012"><a xlink:href="../../dc/d08/class_slic3r_1_1_g_u_i_1_1_g_l_texture_1_1_compressor.html#a6b774dece1999c9a9053bf11020657da" target="_top" xlink:title=" ">
<polygon fill="#fff0f0" stroke="red" points="1019.25,-545.5 857.75,-545.5 857.75,-515 1019.25,-515 1019.25,-545.5"/>
<text text-anchor="start" x="865.75" y="-532" font-family="Helvetica,sans-Serif" font-size="10.00">Slic3r::GUI::GLTexture</text>
<text text-anchor="middle" x="938.5" y="-520.75" font-family="Helvetica,sans-Serif" font-size="10.00">::Compressor::start_compressing</text>
</a>
</g>
</g>
<!-- Node6&#45;&gt;Node12 -->
<g id="edge10_Node000006_Node000012" class="edge">
<title>Node6&#45;&gt;Node12</title>
<g id="a_edge10_Node000006_Node000012"><a xlink:title=" ">
<path fill="none" stroke="#63b8ff" d="M821.88,-546.32C829.89,-545.21 838.28,-544.04 846.73,-542.87"/>
<polygon fill="#63b8ff" stroke="#63b8ff" points="847.01,-546.22 856.44,-541.38 846.05,-539.29 847.01,-546.22"/>
</a>
</g>
</g>
<!-- Node22 -->
<g id="Node000022" class="node">
<title>Node22</title>
<g id="a_Node000022"><a xlink:href="../../d5/dd0/class_slic3r_1_1_g_u_i_1_1_g_code_viewer_1_1_sequential_view_1_1_marker.html#a3005d2ffbd841e6be409b6b22479ecba" target="_top" xlink:title=" ">
<polygon fill="white" stroke="#666666" points="503.25,-311.12 371.75,-311.12 371.75,-269.38 503.25,-269.38 503.25,-311.12"/>
<text text-anchor="start" x="379.75" y="-297.62" font-family="Helvetica,sans-Serif" font-size="10.00">Slic3r::GUI::GCodeViewer</text>
<text text-anchor="start" x="379.75" y="-286.38" font-family="Helvetica,sans-Serif" font-size="10.00">::SequentialView::Marker</text>
<text text-anchor="middle" x="437.5" y="-275.12" font-family="Helvetica,sans-Serif" font-size="10.00">::on_change_color_mode</text>
</a>
</g>
</g>
<!-- Node21&#45;&gt;Node22 -->
<g id="edge19_Node000021_Node000022" class="edge">
<title>Node21&#45;&gt;Node22</title>
<g id="a_edge19_Node000021_Node000022"><a xlink:title=" ">
<path fill="none" stroke="#63b8ff" d="M309.42,-270.41C326.01,-273 343.98,-275.8 361.04,-278.47"/>
<polygon fill="#63b8ff" stroke="#63b8ff" points="360.1,-282.02 370.52,-280.1 361.18,-275.1 360.1,-282.02"/>
</a>
</g>
</g>
<!-- Node23 -->
<g id="Node000023" class="node">
<title>Node23</title>
<g id="a_Node000023"><a xlink:href="../../d7/d59/class_slic3r_1_1_g_u_i_1_1_g_code_viewer_1_1_sequential_view_1_1_g_code_window.html#a56e0006251f2840bc1a97941d357337d" target="_top" xlink:title=" ">
<polygon fill="white" stroke="#666666" points="518.25,-251.12 356.75,-251.12 356.75,-209.38 518.25,-209.38 518.25,-251.12"/>
<text text-anchor="start" x="364.75" y="-237.62" font-family="Helvetica,sans-Serif" font-size="10.00">Slic3r::GUI::GCodeViewer</text>
<text text-anchor="start" x="364.75" y="-226.38" font-family="Helvetica,sans-Serif" font-size="10.00">::SequentialView::GCodeWindow</text>
<text text-anchor="middle" x="437.5" y="-215.12" font-family="Helvetica,sans-Serif" font-size="10.00">::on_change_color_mode</text>
</a>
</g>
</g>
<!-- Node21&#45;&gt;Node23 -->
<g id="edge20_Node000021_Node000023" class="edge">
<title>Node21&#45;&gt;Node23</title>
<g id="a_edge20_Node000021_Node000023"><a xlink:title=" ">
<path fill="none" stroke="#63b8ff" d="M309.42,-250.09C321.12,-248.27 333.51,-246.33 345.79,-244.41"/>
<polygon fill="#63b8ff" stroke="#63b8ff" points="346.19,-247.74 355.53,-242.74 345.11,-240.82 346.19,-247.74"/>
</a>
</g>
</g>
</g>
</svg>

<g id="navigator" transform="translate(0 0)" fill="#404254">
  <rect fill="#f2f5e9" fill-opacity="0.5" stroke="#606060" stroke-width=".5" x="0" y="0" width="60" height="60"/>
  <use id="zoomplus" xlink:href="#zoomPlus" x="17" y="9" onmousedown="handleZoom(evt,'in')"/>
  <use id="zoomminus" xlink:href="#zoomMin" x="42" y="9" onmousedown="handleZoom(evt,'out')"/>
  <use id="reset" xlink:href="#resetDef" x="30" y="36" onmousedown="handleReset()"/>
   <use id="arrowup" xlink:href="#arrowUp" x="0" y="0" onmousedown="handlePan(0,-1)"/>
  <use id="arrowright" xlink:href="#arrowRight" x="0" y="0" onmousedown="handlePan(1,0)"/>
  <use id="arrowdown" xlink:href="#arrowDown" x="0" y="0" onmousedown="handlePan(0,1)"/>
  <use id="arrowleft" xlink:href="#arrowLeft" x="0" y="0" onmousedown="handlePan(-1,0)"/>
</g>
<svg viewBox="0 0 15 15" width="100%" height="30px" preserveAspectRatio="xMaxYMin meet">
 <g id="arrow_out" transform="scale(0.3 0.3)">
  <a xlink:href="class_slic3r_1_1_g_u_i_1_1_g_l_canvas3_d_a08a2100b9f0b02feeae4e69924fca269_cgraph_org.svg" target="_base">
   <rect id="button" ry="5" rx="5" y="6" x="6" height="38" width="38"
        fill="#f2f5e9" fill-opacity="0.5" stroke="#606060" stroke-width="1.0"/>
   <path id="arrow"
     d="M 11.500037,31.436501 C 11.940474,20.09759 22.043105,11.32322 32.158766,21.979434 L 37.068811,17.246167 C 37.068811,17.246167 37.088388,32 37.088388,32 L 22.160133,31.978069 C 22.160133,31.978069 26.997745,27.140456 26.997745,27.140456 C 18.528582,18.264221 13.291696,25.230495 11.500037,31.436501 z"
     style="fill:#404040;"/>
  </a>
 </g>
</svg>

<style type='text/css'>
<![CDATA[
[data-mouse-over-selected='false'] { opacity: 0.7; }
[data-mouse-over-selected='true']  { opacity: 1.0; }
]]>
</style>
<script type="application/ecmascript"><![CDATA[
document.addEventListener('DOMContentLoaded', (event) => {
  highlightEdges();
  highlightAdjacentNodes();
});
]]></script>
</svg>
