<?xml version="1.0" encoding="UTF-8" standalone="no"?>
<!DOCTYPE svg PUBLIC "-//W3C//DTD SVG 1.1//EN"
 "http://www.w3.org/Graphics/SVG/1.1/DTD/svg11.dtd">
<!-- Generated by graphviz version 8.1.0 (20230707.0739)
 -->
<!-- Title: Slic3r::GUI::GLCanvas3D::_load_wipe_tower_toolpaths Pages: 1 -->
<!--zoomable 867 -->

<svg id="main" version="1.1" xmlns="http://www.w3.org/2000/svg" xmlns:xlink="http://www.w3.org/1999/xlink" xml:space="preserve" onload="init(evt)">
<style type="text/css"><![CDATA[
.node, .edge {opacity: 0.7;}
.node.selected, .edge.selected {opacity: 1;}
.edge:hover path { stroke: red; }
.edge:hover polygon { stroke: red; fill: red; }
]]></style>

<defs>
  <circle id="rim" cx="0" cy="0" r="7"/>
  <circle id="rim2" cx="0" cy="0" r="3.5"/>
  <g id="zoomPlus">
    <use xlink:href="#rim" fill="#404040"><set attributeName="fill" to="#808080" begin="zoomplus.mouseover" end="zoomplus.mouseout"/></use>
    <path d="M-4,0h8M0,-4v8" fill="none" stroke="white" stroke-width="1.5" pointer-events="none"/>
  </g>
  <g id="zoomMin">
    <use xlink:href="#rim" fill="#404040"><set attributeName="fill" to="#808080" begin="zoomminus.mouseover" end="zoomminus.mouseout"/></use>
    <path d="M-4,0h8" fill="none" stroke="white" stroke-width="1.5" pointer-events="none"/>
  </g>
  <g id="arrowUp" transform="translate(30 24)">
    <use xlink:href="#rim"/>
    <path pointer-events="none" fill="none" stroke="white" stroke-width="1.5" d="M0,-3.0v7 M-2.5,-0.5L0,-3.0L2.5,-0.5"/>
  </g>
  <g id="arrowRight" transform="rotate(90) translate(36 -43)">
    <use xlink:href="#rim"/>
    <path pointer-events="none" fill="none" stroke="white" stroke-width="1.5" d="M0,-3.0v7 M-2.5,-0.5L0,-3.0L2.5,-0.5"/>
  </g>
  <g id="arrowDown" transform="rotate(180) translate(-30 -48)">
    <use xlink:href="#rim"/>
    <path pointer-events="none" fill="none" stroke="white" stroke-width="1.5" d="M0,-3.0v7 M-2.5,-0.5L0,-3.0L2.5,-0.5"/>
  </g>
  <g id="arrowLeft" transform="rotate(270) translate(-36 17)">
    <use xlink:href="#rim"/>
    <path pointer-events="none" fill="none" stroke="white" stroke-width="1.5" d="M0,-3.0v7 M-2.5,-0.5L0,-3.0L2.5,-0.5"/>
  </g>
  <g id="resetDef">
    <use xlink:href="#rim2" fill="#404040"><set attributeName="fill" to="#808080" begin="reset.mouseover" end="reset.mouseout"/></use>
  </g>
</defs>
<script type="application/ecmascript">
var viewWidth = 882;
var viewHeight = 867;
var sectionId = 'dynsection-29';
</script>
<script type="application/ecmascript" xlink:href="../../svg.min.js"/>
<svg id="graph" class="graph">
<g id="viewport">
<title>Slic3r::GUI::GLCanvas3D::_load_wipe_tower_toolpaths</title>
<!-- Node1 -->
<g id="Node000001" class="node">
<title>Node1</title>
<g id="a_Node000001"><a xlink:title=" ">
<polygon fill="#999999" stroke="#666666" points="145,-276.88 0,-276.88 0,-246.38 145,-246.38 145,-276.88"/>
<text text-anchor="start" x="8" y="-263.38" font-family="Helvetica,sans-Serif" font-size="10.00">Slic3r::GUI::GLCanvas3D</text>
<text text-anchor="middle" x="72.5" y="-252.12" font-family="Helvetica,sans-Serif" font-size="10.00">::_load_wipe_tower_toolpaths</text>
</a>
</g>
</g>
<!-- Node2 -->
<g id="Node000002" class="node">
<title>Node2</title>
<g id="a_Node000002"><a xlink:href="../../d5/d33/class_slic3r_1_1_build_volume.html#abff0ad7f26fb37905044be51044daeee" target="_top" xlink:title=" ">
<polygon fill="white" stroke="#666666" points="319.62,-646.5 188.12,-646.5 188.12,-604.75 319.62,-604.75 319.62,-646.5"/>
<text text-anchor="start" x="196.12" y="-633" font-family="Helvetica,sans-Serif" font-size="10.00">Slic3r::BuildVolume</text>
<text text-anchor="start" x="196.12" y="-621.75" font-family="Helvetica,sans-Serif" font-size="10.00">::all_paths_inside_vertices</text>
<text text-anchor="middle" x="253.88" y="-610.5" font-family="Helvetica,sans-Serif" font-size="10.00">_and_normals_interleaved</text>
</a>
</g>
</g>
<!-- Node1&#45;&gt;Node2 -->
<g id="edge1_Node000001_Node000002" class="edge">
<title>Node1&#45;&gt;Node2</title>
<g id="a_edge1_Node000001_Node000002"><a xlink:title=" ">
<path fill="none" stroke="#63b8ff" d="M78.8,-277.17C92.94,-317.94 133.77,-430.9 181,-518.62 195.6,-545.75 215.28,-574.63 230.35,-595.55"/>
<polygon fill="#63b8ff" stroke="#63b8ff" points="227.99,-597.25 236.71,-603.28 233.65,-593.13 227.99,-597.25"/>
</a>
</g>
</g>
<!-- Node14 -->
<g id="Node000014" class="node">
<title>Node14</title>
<g id="a_Node000014"><a xlink:href="../../d0/d95/class_slic3r_1_1_g_l_indexed_vertex_array.html#a87f1d8e76260d839c2ffbfd01a3aacdb" target="_top" xlink:title=" ">
<polygon fill="white" stroke="#666666" points="326.75,-460.88 181,-460.88 181,-430.38 326.75,-430.38 326.75,-460.88"/>
<text text-anchor="start" x="189" y="-447.38" font-family="Helvetica,sans-Serif" font-size="10.00">Slic3r::GLIndexedVertexArray</text>
<text text-anchor="middle" x="253.88" y="-436.12" font-family="Helvetica,sans-Serif" font-size="10.00">::bounding_box</text>
</a>
</g>
</g>
<!-- Node1&#45;&gt;Node14 -->
<g id="edge13_Node000001_Node000014" class="edge">
<title>Node1&#45;&gt;Node14</title>
<g id="a_edge13_Node000001_Node000014"><a xlink:title=" ">
<path fill="none" stroke="#63b8ff" d="M79.85,-277.32C93.52,-309.21 128.81,-381.89 181,-421.62 182.44,-422.72 183.93,-423.77 185.47,-424.77"/>
<polygon fill="#63b8ff" stroke="#63b8ff" points="183.24,-428.1 193.66,-430.01 186.7,-422.02 183.24,-428.1"/>
</a>
</g>
</g>
<!-- Node15 -->
<g id="Node000015" class="node">
<title>Node15</title>
<g id="a_Node000015"><a xlink:href="../../d5/d8f/class_slic3r_1_1_print.html#aabb9058fb1b2ccea6615735b425c803e" target="_top" xlink:title=" ">
<polygon fill="white" stroke="#666666" points="303.88,-412.25 203.88,-412.25 203.88,-393 303.88,-393 303.88,-412.25"/>
<text text-anchor="middle" x="253.88" y="-398.75" font-family="Helvetica,sans-Serif" font-size="10.00">Slic3r::Print::empty</text>
</a>
</g>
</g>
<!-- Node1&#45;&gt;Node15 -->
<g id="edge14_Node000001_Node000015" class="edge">
<title>Node1&#45;&gt;Node15</title>
<g id="a_edge14_Node000001_Node000015"><a xlink:title=" ">
<path fill="none" stroke="#63b8ff" d="M83.84,-277.23C101.11,-302.13 138.17,-350.87 181,-378.62 187.08,-382.57 193.88,-385.92 200.79,-388.76"/>
<polygon fill="#63b8ff" stroke="#63b8ff" points="199.35,-392.34 209.95,-392.57 201.81,-385.78 199.35,-392.34"/>
</a>
</g>
</g>
<!-- Node16 -->
<g id="Node000016" class="node">
<title>Node16</title>
<g id="a_Node000016"><a xlink:href="../../d0/d95/class_slic3r_1_1_g_l_indexed_vertex_array.html#a53eddcbaaaff0e31e5f70d42b8f10784" target="_top" xlink:title=" ">
<polygon fill="white" stroke="#666666" points="692.5,-351.88 546.75,-351.88 546.75,-321.38 692.5,-321.38 692.5,-351.88"/>
<text text-anchor="start" x="554.75" y="-338.38" font-family="Helvetica,sans-Serif" font-size="10.00">Slic3r::GLIndexedVertexArray</text>
<text text-anchor="middle" x="619.62" y="-327.12" font-family="Helvetica,sans-Serif" font-size="10.00">::finalize_geometry</text>
</a>
</g>
</g>
<!-- Node1&#45;&gt;Node16 -->
<g id="edge15_Node000001_Node000016" class="edge">
<title>Node1&#45;&gt;Node16</title>
<g id="a_edge15_Node000001_Node000016"><a xlink:title=" ">
<path fill="none" stroke="#63b8ff" d="M86.89,-277.13C105.56,-297.44 141.59,-332.05 181,-345.62 300.45,-386.76 449.31,-370.67 539.01,-354.34"/>
<polygon fill="#63b8ff" stroke="#63b8ff" points="539.46,-357.63 548.65,-352.35 538.17,-350.75 539.46,-357.63"/>
</a>
</g>
</g>
<!-- Node18 -->
<g id="Node000018" class="node">
<title>Node18</title>
<g id="a_Node000018"><a xlink:href="../../dc/d88/class_slic3r_1_1_print_base.html#a76e6316467aa49c19054fafa97d1a09b" target="_top" xlink:title=" ">
<polygon fill="white" stroke="#666666" points="301.62,-276.88 206.12,-276.88 206.12,-246.38 301.62,-246.38 301.62,-276.88"/>
<text text-anchor="start" x="214.12" y="-263.38" font-family="Helvetica,sans-Serif" font-size="10.00">Slic3r::PrintBase::</text>
<text text-anchor="middle" x="253.88" y="-252.12" font-family="Helvetica,sans-Serif" font-size="10.00">get_plate_index</text>
</a>
</g>
</g>
<!-- Node1&#45;&gt;Node18 -->
<g id="edge17_Node000001_Node000018" class="edge">
<title>Node1&#45;&gt;Node18</title>
<g id="a_edge17_Node000001_Node000018"><a xlink:title=" ">
<path fill="none" stroke="#63b8ff" d="M145.43,-261.62C161.9,-261.62 179.2,-261.62 195,-261.62"/>
<polygon fill="#63b8ff" stroke="#63b8ff" points="194.66,-265.13 204.66,-261.62 194.66,-258.13 194.66,-265.13"/>
</a>
</g>
</g>
<!-- Node19 -->
<g id="Node000019" class="node">
<title>Node19</title>
<g id="a_Node000019"><a xlink:href="../../d5/d8f/class_slic3r_1_1_print.html#a8fa531f7f792c49066c565becd037973" target="_top" xlink:title=" ">
<polygon fill="white" stroke="#666666" points="297.12,-227.88 210.62,-227.88 210.62,-197.38 297.12,-197.38 297.12,-227.88"/>
<text text-anchor="start" x="218.62" y="-214.38" font-family="Helvetica,sans-Serif" font-size="10.00">Slic3r::Print::get</text>
<text text-anchor="middle" x="253.88" y="-203.12" font-family="Helvetica,sans-Serif" font-size="10.00">_plate_origin</text>
</a>
</g>
</g>
<!-- Node1&#45;&gt;Node19 -->
<g id="edge18_Node000001_Node000019" class="edge">
<title>Node1&#45;&gt;Node19</title>
<g id="a_edge18_Node000001_Node000019"><a xlink:title=" ">
<path fill="none" stroke="#63b8ff" d="M130.75,-245.99C152.95,-239.92 178.22,-233.02 199.99,-227.07"/>
<polygon fill="#63b8ff" stroke="#63b8ff" points="200.64,-230.25 209.37,-224.24 198.8,-223.5 200.64,-230.25"/>
</a>
</g>
</g>
<!-- Node20 -->
<g id="Node000020" class="node">
<title>Node20</title>
<g id="a_Node000020"><a xlink:href="../../d5/d8f/class_slic3r_1_1_print.html#a4479f80151af78b5b303689fed573483" target="_top" xlink:title=" ">
<polygon fill="white" stroke="#666666" points="319.25,-179.25 188.5,-179.25 188.5,-160 319.25,-160 319.25,-179.25"/>
<text text-anchor="middle" x="253.88" y="-165.75" font-family="Helvetica,sans-Serif" font-size="10.00">Slic3r::Print::is_step_done</text>
</a>
</g>
</g>
<!-- Node1&#45;&gt;Node20 -->
<g id="edge19_Node000001_Node000020" class="edge">
<title>Node1&#45;&gt;Node20</title>
<g id="a_edge19_Node000001_Node000020"><a xlink:title=" ">
<path fill="none" stroke="#63b8ff" d="M92.13,-246.06C112.68,-229.61 147.33,-203.96 181,-188.62 185.6,-186.53 190.48,-184.63 195.44,-182.91"/>
<polygon fill="#63b8ff" stroke="#63b8ff" points="196.21,-186.02 204.68,-179.65 194.09,-179.35 196.21,-186.02"/>
</a>
</g>
</g>
<!-- Node22 -->
<g id="Node000022" class="node">
<title>Node22</title>
<g id="a_Node000022"><a xlink:href="../../de/db8/namespace_slic3r.html#a7bcaee6c88f650fd234f688ae2311ec5" target="_top" xlink:title=" ">
<polygon fill="white" stroke="#666666" points="314.38,-142.25 193.38,-142.25 193.38,-123 314.38,-123 314.38,-142.25"/>
<text text-anchor="middle" x="253.88" y="-128.75" font-family="Helvetica,sans-Serif" font-size="10.00">Slic3r::log_memory_info</text>
</a>
</g>
</g>
<!-- Node1&#45;&gt;Node22 -->
<g id="edge21_Node000001_Node000022" class="edge">
<title>Node1&#45;&gt;Node22</title>
<g id="a_edge21_Node000001_Node000022"><a xlink:title=" ">
<path fill="none" stroke="#63b8ff" d="M84.08,-246.08C101.42,-221.85 138.25,-175.3 181,-150.62 183.39,-149.25 185.88,-147.97 188.44,-146.8"/>
<polygon fill="#63b8ff" stroke="#63b8ff" points="189.62,-149.69 197.6,-142.72 187.02,-143.2 189.62,-149.69"/>
</a>
</g>
</g>
<!-- Node25 -->
<g id="Node000025" class="node">
<title>Node25</title>
<g id="a_Node000025"><a xlink:href="../../de/db8/namespace_slic3r.html#a51e1ea9708d6434aae1e8394bef8acdc" target="_top" xlink:title=" ">
<polygon fill="white" stroke="#666666" points="289.25,-105.25 218.5,-105.25 218.5,-86 289.25,-86 289.25,-105.25"/>
<text text-anchor="middle" x="253.88" y="-91.75" font-family="Helvetica,sans-Serif" font-size="10.00">Slic3r::range</text>
</a>
</g>
</g>
<!-- Node1&#45;&gt;Node25 -->
<g id="edge24_Node000001_Node000025" class="edge">
<title>Node1&#45;&gt;Node25</title>
<g id="a_edge24_Node000001_Node000025"><a xlink:title=" ">
<path fill="none" stroke="#63b8ff" d="M80.16,-246.32C94.17,-216.01 129.68,-148.28 181,-113.62 188.98,-108.24 198.43,-104.46 207.82,-101.82"/>
<polygon fill="#63b8ff" stroke="#63b8ff" points="208.41,-105.03 217.31,-99.28 206.77,-98.23 208.41,-105.03"/>
</a>
</g>
</g>
<!-- Node26 -->
<g id="Node000026" class="node">
<title>Node26</title>
<g id="a_Node000026"><a xlink:href="../../d9/d45/namespace_slic3r_1_1_g_u_i.html#a6d3a2df6622c6ebb70ba6bd086e051a8" target="_top" xlink:title=" ">
<polygon fill="white" stroke="#666666" points="309.88,-336.5 197.88,-336.5 197.88,-294.75 309.88,-294.75 309.88,-336.5"/>
<text text-anchor="start" x="205.88" y="-323" font-family="Helvetica,sans-Serif" font-size="10.00">Slic3r::GUI::reserve</text>
<text text-anchor="start" x="205.88" y="-311.75" font-family="Helvetica,sans-Serif" font-size="10.00">_new_volume_finalize</text>
<text text-anchor="middle" x="253.88" y="-300.5" font-family="Helvetica,sans-Serif" font-size="10.00">_old_volume</text>
</a>
</g>
</g>
<!-- Node1&#45;&gt;Node26 -->
<g id="edge25_Node000001_Node000026" class="edge">
<title>Node1&#45;&gt;Node26</title>
<g id="a_edge25_Node000001_Node000026"><a xlink:title=" ">
<path fill="none" stroke="#63b8ff" d="M125.38,-277.24C144.68,-283.05 166.83,-289.72 187.2,-295.85"/>
<polygon fill="#63b8ff" stroke="#63b8ff" points="186.08,-299.47 196.67,-299.01 188.1,-292.77 186.08,-299.47"/>
</a>
</g>
</g>
<!-- Node32 -->
<g id="Node000032" class="node">
<title>Node32</title>
<g id="a_Node000032"><a xlink:href="../../d2/d54/struct_slic3r_1_1__3_d_scene.html#a890611f444388cfece27742a9d7172f1" target="_top" xlink:title=" ">
<polygon fill="white" stroke="#666666" points="313.62,-509.88 194.12,-509.88 194.12,-479.38 313.62,-479.38 313.62,-509.88"/>
<text text-anchor="start" x="202.12" y="-496.38" font-family="Helvetica,sans-Serif" font-size="10.00">Slic3r::_3DScene::thick</text>
<text text-anchor="middle" x="253.88" y="-485.12" font-family="Helvetica,sans-Serif" font-size="10.00">_lines_to_verts</text>
</a>
</g>
</g>
<!-- Node1&#45;&gt;Node32 -->
<g id="edge32_Node000001_Node000032" class="edge">
<title>Node1&#45;&gt;Node32</title>
<g id="a_edge32_Node000001_Node000032"><a xlink:title=" ">
<path fill="none" stroke="#63b8ff" d="M77.25,-277.16C87.28,-315.48 118.34,-415.31 181,-469.62 182.57,-470.99 184.22,-472.28 185.94,-473.5"/>
<polygon fill="#63b8ff" stroke="#63b8ff" points="183.61,-476.79 193.96,-479.04 187.27,-470.83 183.61,-476.79"/>
</a>
</g>
</g>
<!-- Node38 -->
<g id="Node000038" class="node">
<title>Node38</title>
<g id="a_Node000038"><a xlink:href="../../d5/d8f/class_slic3r_1_1_print.html#a42c162898a1d8365a7ce779780c83983" target="_top" xlink:title=" ">
<polygon fill="white" stroke="#666666" points="300.5,-67.88 207.25,-67.88 207.25,-37.38 300.5,-37.38 300.5,-67.88"/>
<text text-anchor="start" x="215.25" y="-54.38" font-family="Helvetica,sans-Serif" font-size="10.00">Slic3r::Print::wipe</text>
<text text-anchor="middle" x="253.88" y="-43.12" font-family="Helvetica,sans-Serif" font-size="10.00">_tower_data</text>
</a>
</g>
</g>
<!-- Node1&#45;&gt;Node38 -->
<g id="edge39_Node000001_Node000038" class="edge">
<title>Node1&#45;&gt;Node38</title>
<g id="a_edge39_Node000001_Node000038"><a xlink:title=" ">
<path fill="none" stroke="#63b8ff" d="M78.32,-245.94C90.02,-210.5 123.24,-123.65 181,-76.62 185.84,-72.69 191.35,-69.39 197.11,-66.62"/>
<polygon fill="#63b8ff" stroke="#63b8ff" points="198.14,-69.56 205.99,-62.45 195.42,-63.11 198.14,-69.56"/>
</a>
</g>
</g>
<!-- Node40 -->
<g id="Node000040" class="node">
<title>Node40</title>
<g id="a_Node000040"><a xlink:href="../../de/db8/namespace_slic3r.html#a692663cfafb8df2058a20aabd81f2a2e" target="_top" xlink:title=" ">
<polygon fill="white" stroke="#666666" points="307.25,-19.25 200.5,-19.25 200.5,0 307.25,0 307.25,-19.25"/>
<text text-anchor="middle" x="253.88" y="-5.75" font-family="Helvetica,sans-Serif" font-size="10.00">Slic3r::wipe_tower_y</text>
</a>
</g>
</g>
<!-- Node1&#45;&gt;Node40 -->
<g id="edge41_Node000001_Node000040" class="edge">
<title>Node1&#45;&gt;Node40</title>
<g id="a_edge41_Node000001_Node000040"><a xlink:title=" ">
<path fill="none" stroke="#63b8ff" d="M75.99,-246.11C83.55,-204.23 110.21,-88.07 181,-28.62 183.91,-26.19 187.09,-24.06 190.45,-22.2"/>
<polygon fill="#63b8ff" stroke="#63b8ff" points="191.71,-25.01 199.32,-17.64 188.77,-18.66 191.71,-25.01"/>
</a>
</g>
</g>
<!-- Node3 -->
<g id="Node000003" class="node">
<title>Node3</title>
<g id="a_Node000003"><a xlink:href="../../de/db8/namespace_slic3r.html#a6e51e5aea25b5765864ff140648c3509" target="_top" xlink:title=" ">
<polygon fill="white" stroke="#666666" points="510.75,-858.88 362.75,-858.88 362.75,-828.38 510.75,-828.38 510.75,-858.88"/>
<text text-anchor="start" x="370.75" y="-845.38" font-family="Helvetica,sans-Serif" font-size="10.00">Slic3r::all_inside</text>
<text text-anchor="middle" x="436.75" y="-834.12" font-family="Helvetica,sans-Serif" font-size="10.00">_vertices_normals_interleaved</text>
</a>
</g>
</g>
<!-- Node2&#45;&gt;Node3 -->
<g id="edge2_Node000002_Node000003" class="edge">
<title>Node2&#45;&gt;Node3</title>
<g id="a_edge2_Node000002_Node000003"><a xlink:title=" ">
<path fill="none" stroke="#63b8ff" d="M261.12,-646.93C273.78,-686.45 306.17,-771.4 362.75,-818.62 364.37,-819.98 366.07,-821.26 367.82,-822.47"/>
<polygon fill="#63b8ff" stroke="#63b8ff" points="365.67,-825.86 376.06,-827.98 369.26,-819.85 365.67,-825.86"/>
</a>
</g>
</g>
<!-- Node4 -->
<g id="Node000004" class="node">
<title>Node4</title>
<g id="a_Node000004"><a xlink:href="../../d5/d33/class_slic3r_1_1_build_volume.html#a6eeba6f3140a3b96be1ccc589b3ad5f3" target="_top" xlink:title=" ">
<polygon fill="white" stroke="#666666" points="487.5,-809.88 386,-809.88 386,-779.38 487.5,-779.38 487.5,-809.88"/>
<text text-anchor="start" x="394" y="-796.38" font-family="Helvetica,sans-Serif" font-size="10.00">Slic3r::BuildVolume</text>
<text text-anchor="middle" x="436.75" y="-785.12" font-family="Helvetica,sans-Serif" font-size="10.00">::bounding_volume</text>
</a>
</g>
</g>
<!-- Node2&#45;&gt;Node4 -->
<g id="edge3_Node000002_Node000004" class="edge">
<title>Node2&#45;&gt;Node4</title>
<g id="a_edge3_Node000002_Node000004"><a xlink:title=" ">
<path fill="none" stroke="#63b8ff" d="M265.45,-646.9C282.03,-678.15 317.03,-736.37 362.75,-769.62 366.87,-772.62 371.37,-775.28 376.05,-777.63"/>
<polygon fill="#63b8ff" stroke="#63b8ff" points="374.3,-781.13 384.86,-782.04 377.17,-774.75 374.3,-781.13"/>
</a>
</g>
</g>
<!-- Node5 -->
<g id="Node000005" class="node">
<title>Node5</title>
<g id="a_Node000005"><a xlink:href="../../da/d00/class_slic3r_1_1_bounding_box3_base.html#a098373ced0c6799776329f329c839ab2" target="_top" xlink:title=" ">
<polygon fill="white" stroke="#666666" points="502.88,-760.88 370.62,-760.88 370.62,-730.38 502.88,-730.38 502.88,-760.88"/>
<text text-anchor="start" x="378.62" y="-747.38" font-family="Helvetica,sans-Serif" font-size="10.00">Slic3r::BoundingBox3Base</text>
<text text-anchor="middle" x="436.75" y="-736.12" font-family="Helvetica,sans-Serif" font-size="10.00">::contains</text>
</a>
</g>
</g>
<!-- Node2&#45;&gt;Node5 -->
<g id="edge4_Node000002_Node000005" class="edge">
<title>Node2&#45;&gt;Node5</title>
<g id="a_edge4_Node000002_Node000005"><a xlink:title=" ">
<path fill="none" stroke="#63b8ff" d="M274.06,-646.83C294.29,-668.08 328,-700.45 362.75,-720.62 365.76,-722.37 368.92,-724.03 372.15,-725.58"/>
<polygon fill="#63b8ff" stroke="#63b8ff" points="370.48,-729.11 381.04,-729.96 373.31,-722.71 370.48,-729.11"/>
</a>
</g>
</g>
<!-- Node7 -->
<g id="Node000007" class="node">
<title>Node7</title>
<g id="a_Node000007"><a xlink:href="../../da/d00/class_slic3r_1_1_bounding_box3_base.html#af3a93fef6d35842fa288232f899924ae" target="_top" xlink:title=" ">
<polygon fill="white" stroke="#666666" points="502.88,-711.88 370.62,-711.88 370.62,-681.38 502.88,-681.38 502.88,-711.88"/>
<text text-anchor="start" x="378.62" y="-698.38" font-family="Helvetica,sans-Serif" font-size="10.00">Slic3r::BoundingBox3Base</text>
<text text-anchor="middle" x="436.75" y="-687.12" font-family="Helvetica,sans-Serif" font-size="10.00">::inflated</text>
</a>
</g>
</g>
<!-- Node2&#45;&gt;Node7 -->
<g id="edge6_Node000002_Node000007" class="edge">
<title>Node2&#45;&gt;Node7</title>
<g id="a_edge6_Node000002_Node000007"><a xlink:title=" ">
<path fill="none" stroke="#63b8ff" d="M302.9,-646.99C321.47,-655.02 342.98,-664.04 362.75,-671.62 367.78,-673.56 373.03,-675.5 378.31,-677.4"/>
<polygon fill="#63b8ff" stroke="#63b8ff" points="376.85,-680.95 387.44,-680.99 379.19,-674.35 376.85,-680.95"/>
</a>
</g>
</g>
<!-- Node8 -->
<g id="Node000008" class="node">
<title>Node8</title>
<g id="a_Node000008"><a xlink:href="../../d3/dfb/namespace_slic3r_1_1_geometry.html#aae9e65080a277208b61eff5a9fba606a" target="_top" xlink:title=" ">
<polygon fill="white" stroke="#666666" points="497.25,-662.88 376.25,-662.88 376.25,-632.38 497.25,-632.38 497.25,-662.88"/>
<text text-anchor="start" x="384.25" y="-649.38" font-family="Helvetica,sans-Serif" font-size="10.00">Slic3r::Geometry::inside</text>
<text text-anchor="middle" x="436.75" y="-638.12" font-family="Helvetica,sans-Serif" font-size="10.00">_convex_polygon</text>
</a>
</g>
</g>
<!-- Node2&#45;&gt;Node8 -->
<g id="edge7_Node000002_Node000008" class="edge">
<title>Node2&#45;&gt;Node8</title>
<g id="a_edge7_Node000002_Node000008"><a xlink:title=" ">
<path fill="none" stroke="#63b8ff" d="M319.92,-633.54C334.59,-635.32 350.23,-637.22 365.12,-639.03"/>
<polygon fill="#63b8ff" stroke="#63b8ff" points="364.45,-642.6 374.8,-640.33 365.29,-635.65 364.45,-642.6"/>
</a>
</g>
</g>
<!-- Node10 -->
<g id="Node000010" class="node">
<title>Node10</title>
<g id="a_Node000010"><a xlink:href="../../d5/d00/group___geometry___module.html#ac7d4e5452722585bf69164473ec1afa6" target="_top" xlink:title=" ">
<polygon fill="white" stroke="#666666" points="497.25,-614.25 376.25,-614.25 376.25,-595 497.25,-595 497.25,-614.25"/>
<text text-anchor="middle" x="436.75" y="-600.75" font-family="Helvetica,sans-Serif" font-size="10.00">Eigen::AlignedBox::max</text>
</a>
</g>
</g>
<!-- Node2&#45;&gt;Node10 -->
<g id="edge9_Node000002_Node000010" class="edge">
<title>Node2&#45;&gt;Node10</title>
<g id="a_edge9_Node000002_Node000010"><a xlink:title=" ">
<path fill="none" stroke="#63b8ff" d="M319.92,-618.07C334.59,-616.37 350.23,-614.55 365.12,-612.83"/>
<polygon fill="#63b8ff" stroke="#63b8ff" points="365.27,-616.22 374.8,-611.59 364.46,-609.26 365.27,-616.22"/>
</a>
</g>
</g>
<!-- Node11 -->
<g id="Node000011" class="node">
<title>Node11</title>
<g id="a_Node000011"><a xlink:href="../../d5/d00/group___geometry___module.html#a6ba58dd9c5561b33dfd3a470694cef28" target="_top" xlink:title=" ">
<polygon fill="white" stroke="#666666" points="495.75,-577.25 377.75,-577.25 377.75,-558 495.75,-558 495.75,-577.25"/>
<text text-anchor="middle" x="436.75" y="-563.75" font-family="Helvetica,sans-Serif" font-size="10.00">Eigen::AlignedBox::min</text>
</a>
</g>
</g>
<!-- Node2&#45;&gt;Node11 -->
<g id="edge10_Node000002_Node000011" class="edge">
<title>Node2&#45;&gt;Node11</title>
<g id="a_edge10_Node000002_Node000011"><a xlink:title=" ">
<path fill="none" stroke="#63b8ff" d="M308.79,-604.27C325.9,-597.86 344.99,-591.09 362.75,-585.62 368.66,-583.81 374.89,-582.04 381.11,-580.38"/>
<polygon fill="#63b8ff" stroke="#63b8ff" points="381.72,-583.58 390.52,-577.68 379.96,-576.8 381.72,-583.58"/>
</a>
</g>
</g>
<!-- Node12 -->
<g id="Node000012" class="node">
<title>Node12</title>
<g id="a_Node000012"><a xlink:href="../../de/db8/namespace_slic3r.html#a9f09756940b3eb2052058460bf07e4a3" target="_top" xlink:title=" ">
<polygon fill="white" stroke="#666666" points="466.88,-540.25 406.62,-540.25 406.62,-521 466.88,-521 466.88,-540.25"/>
<text text-anchor="middle" x="436.75" y="-526.75" font-family="Helvetica,sans-Serif" font-size="10.00">Slic3r::sqr</text>
</a>
</g>
</g>
<!-- Node2&#45;&gt;Node12 -->
<g id="edge11_Node000002_Node000012" class="edge">
<title>Node2&#45;&gt;Node12</title>
<g id="a_edge11_Node000002_Node000012"><a xlink:title=" ">
<path fill="none" stroke="#63b8ff" d="M278.91,-604.37C299.74,-587 331.39,-563.04 362.75,-548.62 373.07,-543.88 384.8,-540.28 395.8,-537.6"/>
<polygon fill="#63b8ff" stroke="#63b8ff" points="396.48,-540.81 405.48,-535.21 394.95,-533.98 396.48,-540.81"/>
</a>
</g>
</g>
<!-- Node13 -->
<g id="Node000013" class="node">
<title>Node13</title>
<g id="a_Node000013"><a xlink:href="../../de/db8/namespace_slic3r.html#ae5e4888782aec43d75be4ae861763437" target="_top" xlink:title=" ">
<polygon fill="white" stroke="#666666" points="472.12,-503.25 401.38,-503.25 401.38,-484 472.12,-484 472.12,-503.25"/>
<text text-anchor="middle" x="436.75" y="-489.75" font-family="Helvetica,sans-Serif" font-size="10.00">Slic3r::to_2d</text>
</a>
</g>
</g>
<!-- Node2&#45;&gt;Node13 -->
<g id="edge12_Node000002_Node000013" class="edge">
<title>Node2&#45;&gt;Node13</title>
<g id="a_edge12_Node000002_Node000013"><a xlink:title=" ">
<path fill="none" stroke="#63b8ff" d="M269.02,-604.48C287.48,-578.57 322.25,-535.21 362.75,-511.62 371.19,-506.71 380.94,-503.13 390.5,-500.52"/>
<polygon fill="#63b8ff" stroke="#63b8ff" points="391.23,-503.71 400.14,-497.98 389.6,-496.9 391.23,-503.71"/>
</a>
</g>
</g>
<!-- Node6 -->
<g id="Node000006" class="node">
<title>Node6</title>
<g id="a_Node000006"><a xlink:href="../../dc/d28/class_slic3r_1_1_bounding_box_base.html#a88636b433a22d051dabc1139d2deef61" target="_top" xlink:title=" ">
<polygon fill="white" stroke="#666666" points="683.12,-760.88 556.12,-760.88 556.12,-730.38 683.12,-730.38 683.12,-760.88"/>
<text text-anchor="start" x="564.12" y="-747.38" font-family="Helvetica,sans-Serif" font-size="10.00">Slic3r::BoundingBoxBase</text>
<text text-anchor="middle" x="619.62" y="-736.12" font-family="Helvetica,sans-Serif" font-size="10.00">::contains</text>
</a>
</g>
</g>
<!-- Node5&#45;&gt;Node6 -->
<g id="edge5_Node000005_Node000006" class="edge">
<title>Node5&#45;&gt;Node6</title>
<g id="a_edge5_Node000005_Node000006"><a xlink:title=" ">
<path fill="none" stroke="#63b8ff" d="M503.31,-745.62C516.79,-745.62 531.07,-745.62 544.82,-745.62"/>
<polygon fill="#63b8ff" stroke="#63b8ff" points="544.71,-749.13 554.71,-745.62 544.71,-742.13 544.71,-749.13"/>
</a>
</g>
</g>
<!-- Node9 -->
<g id="Node000009" class="node">
<title>Node9</title>
<g id="a_Node000009"><a xlink:href="../../de/db8/namespace_slic3r.html#a3dfb7131fbc3b736711eca14e1c47d2e" target="_top" xlink:title=" ">
<polygon fill="white" stroke="#666666" points="657.62,-605.25 581.62,-605.25 581.62,-586 657.62,-586 657.62,-605.25"/>
<text text-anchor="middle" x="619.62" y="-591.75" font-family="Helvetica,sans-Serif" font-size="10.00">Slic3r::cross2</text>
</a>
</g>
</g>
<!-- Node8&#45;&gt;Node9 -->
<g id="edge8_Node000008_Node000009" class="edge">
<title>Node8&#45;&gt;Node9</title>
<g id="a_edge8_Node000008_Node000009"><a xlink:title=" ">
<path fill="none" stroke="#63b8ff" d="M492.51,-631.88C518.23,-624.49 548.54,-615.77 573,-608.74"/>
<polygon fill="#63b8ff" stroke="#63b8ff" points="573.8,-611.87 582.44,-605.74 571.86,-605.14 573.8,-611.87"/>
</a>
</g>
</g>
<!-- Node17 -->
<g id="Node000017" class="node">
<title>Node17</title>
<g id="a_Node000017"><a xlink:href="../../d0/d95/class_slic3r_1_1_g_l_indexed_vertex_array.html#aac63204a236d6df374b48f053bde334a" target="_top" xlink:title=" ">
<polygon fill="white" stroke="#666666" points="874.25,-351.88 728.5,-351.88 728.5,-321.38 874.25,-321.38 874.25,-351.88"/>
<text text-anchor="start" x="736.5" y="-338.38" font-family="Helvetica,sans-Serif" font-size="10.00">Slic3r::GLIndexedVertexArray</text>
<text text-anchor="middle" x="801.38" y="-327.12" font-family="Helvetica,sans-Serif" font-size="10.00">::shrink_to_fit</text>
</a>
</g>
</g>
<!-- Node16&#45;&gt;Node17 -->
<g id="edge16_Node000016_Node000017" class="edge">
<title>Node16&#45;&gt;Node17</title>
<g id="a_edge16_Node000016_Node000017"><a xlink:title=" ">
<path fill="none" stroke="#63b8ff" d="M692.96,-336.62C700.94,-336.62 709.11,-336.62 717.21,-336.62"/>
<polygon fill="#63b8ff" stroke="#63b8ff" points="717.19,-340.13 727.19,-336.62 717.19,-333.13 717.19,-340.13"/>
</a>
</g>
</g>
<!-- Node21 -->
<g id="Node000021" class="node">
<title>Node21</title>
<g id="a_Node000021"><a xlink:href="../../db/d72/class_slic3r_1_1_print_base_with_state.html#aec347d8457ff5e4ff572ea5987c03f21" target="_top" xlink:title=" ">
<polygon fill="white" stroke="#666666" points="503.25,-190.5 370.25,-190.5 370.25,-148.75 503.25,-148.75 503.25,-190.5"/>
<text text-anchor="start" x="378.25" y="-177" font-family="Helvetica,sans-Serif" font-size="10.00">Slic3r::PrintBaseWithState</text>
<text text-anchor="start" x="378.25" y="-165.75" font-family="Helvetica,sans-Serif" font-size="10.00">&lt; PrintStep, psCount &gt;::</text>
<text text-anchor="middle" x="436.75" y="-154.5" font-family="Helvetica,sans-Serif" font-size="10.00">is_step_done</text>
</a>
</g>
</g>
<!-- Node20&#45;&gt;Node21 -->
<g id="edge20_Node000020_Node000021" class="edge">
<title>Node20&#45;&gt;Node21</title>
<g id="a_edge20_Node000020_Node000021"><a xlink:title=" ">
<path fill="none" stroke="#63b8ff" d="M319.66,-169.62C332.41,-169.62 345.91,-169.62 359.01,-169.62"/>
<polygon fill="#63b8ff" stroke="#63b8ff" points="358.89,-173.13 368.89,-169.62 358.89,-166.13 358.89,-173.13"/>
</a>
</g>
</g>
<!-- Node23 -->
<g id="Node000023" class="node">
<title>Node23</title>
<g id="a_Node000023"><a xlink:href="../../de/db8/namespace_slic3r.html#ac8b50414284f438de731e42c10b0c288" target="_top" xlink:title=" ">
<polygon fill="white" stroke="#666666" points="506.62,-130.25 366.88,-130.25 366.88,-111 506.62,-111 506.62,-130.25"/>
<text text-anchor="middle" x="436.75" y="-116.75" font-family="Helvetica,sans-Serif" font-size="10.00">Slic3r::format_memsize_MB</text>
</a>
</g>
</g>
<!-- Node22&#45;&gt;Node23 -->
<g id="edge22_Node000022_Node000023" class="edge">
<title>Node22&#45;&gt;Node23</title>
<g id="a_edge22_Node000022_Node000023"><a xlink:title=" ">
<path fill="none" stroke="#63b8ff" d="M314.85,-128.65C327.92,-127.78 341.94,-126.85 355.64,-125.94"/>
<polygon fill="#63b8ff" stroke="#63b8ff" points="355.79,-129.37 365.54,-125.22 355.33,-122.39 355.79,-129.37"/>
</a>
</g>
</g>
<!-- Node24 -->
<g id="Node000024" class="node">
<title>Node24</title>
<g id="a_Node000024"><a xlink:href="../../d6/dba/_wipe_tower_dialog_8cpp.html#a031c2862b832be718b216d1f101f88cd" target="_top" xlink:title=" ">
<polygon fill="white" stroke="#666666" points="639.25,-130.25 600,-130.25 600,-111 639.25,-111 639.25,-130.25"/>
<text text-anchor="middle" x="619.62" y="-116.75" font-family="Helvetica,sans-Serif" font-size="10.00">scale</text>
</a>
</g>
</g>
<!-- Node23&#45;&gt;Node24 -->
<g id="edge23_Node000023_Node000024" class="edge">
<title>Node23&#45;&gt;Node24</title>
<g id="a_edge23_Node000023_Node000024"><a xlink:title=" ">
<path fill="none" stroke="#63b8ff" d="M506.91,-120.62C535.27,-120.62 566.6,-120.62 588.84,-120.62"/>
<polygon fill="#63b8ff" stroke="#63b8ff" points="588.58,-124.13 598.58,-120.62 588.58,-117.13 588.58,-124.13"/>
</a>
</g>
</g>
<!-- Node27 -->
<g id="Node000027" class="node">
<title>Node27</title>
<g id="a_Node000027"><a xlink:href="../../d0/d95/class_slic3r_1_1_g_l_indexed_vertex_array.html#a42b430db1590f903cdcdaf232d0605e2" target="_top" xlink:title=" ">
<polygon fill="white" stroke="#666666" points="509.62,-287.88 363.88,-287.88 363.88,-257.38 509.62,-257.38 509.62,-287.88"/>
<text text-anchor="start" x="371.88" y="-274.38" font-family="Helvetica,sans-Serif" font-size="10.00">Slic3r::GLIndexedVertexArray</text>
<text text-anchor="middle" x="436.75" y="-263.12" font-family="Helvetica,sans-Serif" font-size="10.00">::clear</text>
</a>
</g>
</g>
<!-- Node26&#45;&gt;Node27 -->
<g id="edge26_Node000026_Node000027" class="edge">
<title>Node26&#45;&gt;Node27</title>
<g id="a_edge26_Node000026_Node000027"><a xlink:title=" ">
<path fill="none" stroke="#63b8ff" d="M310.13,-302.49C325.55,-298.82 342.59,-294.77 359.02,-290.87"/>
<polygon fill="#63b8ff" stroke="#63b8ff" points="359.78,-294.04 368.7,-288.33 358.16,-287.23 359.78,-294.04"/>
</a>
</g>
</g>
<!-- Node30 -->
<g id="Node000030" class="node">
<title>Node30</title>
<g id="a_Node000030"><a xlink:href="../../d5/d87/class_slic3r_1_1_g_l_volume.html#a53ac55b1b7bb4f7cde19ee98e011270a" target="_top" xlink:title=" ">
<polygon fill="white" stroke="#666666" points="501,-336.88 372.5,-336.88 372.5,-306.38 501,-306.38 501,-336.88"/>
<text text-anchor="start" x="380.5" y="-323.38" font-family="Helvetica,sans-Serif" font-size="10.00">Slic3r::GLVolume::finalize</text>
<text text-anchor="middle" x="436.75" y="-312.12" font-family="Helvetica,sans-Serif" font-size="10.00">_geometry</text>
</a>
</g>
</g>
<!-- Node26&#45;&gt;Node30 -->
<g id="edge29_Node000026_Node000030" class="edge">
<title>Node26&#45;&gt;Node30</title>
<g id="a_edge29_Node000026_Node000030"><a xlink:title=" ">
<path fill="none" stroke="#63b8ff" d="M310.13,-317.46C326.39,-318 344.45,-318.6 361.68,-319.17"/>
<polygon fill="#63b8ff" stroke="#63b8ff" points="361.18,-322.69 371.29,-319.52 361.41,-315.69 361.18,-322.69"/>
</a>
</g>
</g>
<!-- Node31 -->
<g id="Node000031" class="node">
<title>Node31</title>
<g id="a_Node000031"><a xlink:href="../../d0/d95/class_slic3r_1_1_g_l_indexed_vertex_array.html#aa48719620f55caf51a5ecf9650f4ad21" target="_top" xlink:title=" ">
<polygon fill="white" stroke="#666666" points="509.62,-238.88 363.88,-238.88 363.88,-208.38 509.62,-208.38 509.62,-238.88"/>
<text text-anchor="start" x="371.88" y="-225.38" font-family="Helvetica,sans-Serif" font-size="10.00">Slic3r::GLIndexedVertexArray</text>
<text text-anchor="middle" x="436.75" y="-214.12" font-family="Helvetica,sans-Serif" font-size="10.00">::reserve</text>
</a>
</g>
</g>
<!-- Node26&#45;&gt;Node31 -->
<g id="edge31_Node000026_Node000031" class="edge">
<title>Node26&#45;&gt;Node31</title>
<g id="a_edge31_Node000026_Node000031"><a xlink:title=" ">
<path fill="none" stroke="#63b8ff" d="M310.24,-295.24C315.99,-292.33 321.61,-289.12 326.75,-285.62 345.72,-272.72 343.37,-260.9 362.75,-248.62 365.35,-246.98 368.07,-245.43 370.87,-243.97"/>
<polygon fill="#63b8ff" stroke="#63b8ff" points="372.09,-246.79 379.63,-239.34 369.09,-240.46 372.09,-246.79"/>
</a>
</g>
</g>
<!-- Node28 -->
<g id="Node000028" class="node">
<title>Node28</title>
<g id="a_Node000028"><a xlink:href="../../d5/d00/group___geometry___module.html#ae946a0964de83d4e688fa462fe6d6725" target="_top" xlink:title=" ">
<polygon fill="white" stroke="#666666" points="670.75,-287.88 568.5,-287.88 568.5,-257.38 670.75,-257.38 670.75,-287.88"/>
<text text-anchor="start" x="576.5" y="-274.38" font-family="Helvetica,sans-Serif" font-size="10.00">Eigen::AlignedBox::</text>
<text text-anchor="middle" x="619.62" y="-263.12" font-family="Helvetica,sans-Serif" font-size="10.00">setEmpty</text>
</a>
</g>
</g>
<!-- Node27&#45;&gt;Node28 -->
<g id="edge27_Node000027_Node000028" class="edge">
<title>Node27&#45;&gt;Node28</title>
<g id="a_edge27_Node000027_Node000028"><a xlink:title=" ">
<path fill="none" stroke="#63b8ff" d="M510.02,-272.62C525.69,-272.62 542.13,-272.62 557.34,-272.62"/>
<polygon fill="#63b8ff" stroke="#63b8ff" points="557.17,-276.13 567.17,-272.62 557.17,-269.13 557.17,-276.13"/>
</a>
</g>
</g>
<!-- Node29 -->
<g id="Node000029" class="node">
<title>Node29</title>
<g id="a_Node000029"><a xlink:href="../../da/d8d/class_eigen_1_1_plain_object_base.html#ac8dea1df3d92b752cc683ff42abf6f9b" target="_top" xlink:title=" ">
<polygon fill="white" stroke="#666666" points="861.12,-287.88 741.62,-287.88 741.62,-257.38 861.12,-257.38 861.12,-287.88"/>
<text text-anchor="start" x="749.62" y="-274.38" font-family="Helvetica,sans-Serif" font-size="10.00">Eigen::PlainObjectBase</text>
<text text-anchor="middle" x="801.38" y="-263.12" font-family="Helvetica,sans-Serif" font-size="10.00">::setConstant</text>
</a>
</g>
</g>
<!-- Node28&#45;&gt;Node29 -->
<g id="edge28_Node000028_Node000029" class="edge">
<title>Node28&#45;&gt;Node29</title>
<g id="a_edge28_Node000028_Node000029"><a xlink:title=" ">
<path fill="none" stroke="#63b8ff" d="M671.17,-272.62C689.57,-272.62 710.71,-272.62 730.49,-272.62"/>
<polygon fill="#63b8ff" stroke="#63b8ff" points="730.31,-276.13 740.31,-272.62 730.31,-269.13 730.31,-276.13"/>
</a>
</g>
</g>
<!-- Node30&#45;&gt;Node16 -->
<g id="edge30_Node000030_Node000016" class="edge">
<title>Node30&#45;&gt;Node16</title>
<g id="a_edge30_Node000030_Node000016"><a xlink:title=" ">
<path fill="none" stroke="#63b8ff" d="M501.27,-326.89C512.3,-327.81 523.92,-328.77 535.38,-329.72"/>
<polygon fill="#63b8ff" stroke="#63b8ff" points="535.04,-333.29 545.3,-330.63 535.62,-326.31 535.04,-333.29"/>
</a>
</g>
</g>
<!-- Node33 -->
<g id="Node000033" class="node">
<title>Node33</title>
<g id="a_Node000033"><a xlink:href="../../de/db8/namespace_slic3r.html#a05b3a151c17e96525ce8f987be5381bf" target="_top" xlink:title=" ">
<polygon fill="white" stroke="#666666" points="500.62,-465.88 372.88,-465.88 372.88,-435.38 500.62,-435.38 500.62,-465.88"/>
<text text-anchor="start" x="380.88" y="-452.38" font-family="Helvetica,sans-Serif" font-size="10.00">Slic3r::thick_lines</text>
<text text-anchor="middle" x="436.75" y="-441.12" font-family="Helvetica,sans-Serif" font-size="10.00">_to_indexed_vertex_array</text>
</a>
</g>
</g>
<!-- Node32&#45;&gt;Node33 -->
<g id="edge33_Node000032_Node000033" class="edge">
<title>Node32&#45;&gt;Node33</title>
<g id="a_edge33_Node000032_Node000033"><a xlink:title=" ">
<path fill="none" stroke="#63b8ff" d="M314.1,-480.22C329.48,-476.48 346.24,-472.4 362.26,-468.5"/>
<polygon fill="#63b8ff" stroke="#63b8ff" points="362.77,-471.74 371.66,-465.97 361.11,-464.94 362.77,-471.74"/>
</a>
</g>
</g>
<!-- Node33&#45;&gt;Node9 -->
<g id="edge34_Node000033_Node000009" class="edge">
<title>Node33&#45;&gt;Node9</title>
<g id="a_edge34_Node000033_Node000009"><a xlink:title=" ">
<path fill="none" stroke="#63b8ff" d="M496.8,-466.27C501.73,-468.68 506.46,-471.45 510.75,-474.62 533.06,-491.12 528.74,-504.52 546.75,-525.62 563.11,-544.78 583.92,-564.63 598.93,-578.28"/>
<polygon fill="#63b8ff" stroke="#63b8ff" points="596.25,-580.47 606.03,-584.55 600.93,-575.26 596.25,-580.47"/>
</a>
</g>
</g>
<!-- Node34 -->
<g id="Node000034" class="node">
<title>Node34</title>
<g id="a_Node000034"><a xlink:href="../../d6/d3b/class_slic3r_1_1_line.html#a4c3a3bbe33bc268bbe33af359f93746d" target="_top" xlink:title=" ">
<polygon fill="white" stroke="#666666" points="668.12,-516.25 571.12,-516.25 571.12,-497 668.12,-497 668.12,-516.25"/>
<text text-anchor="middle" x="619.62" y="-502.75" font-family="Helvetica,sans-Serif" font-size="10.00">Slic3r::Line::length</text>
</a>
</g>
</g>
<!-- Node33&#45;&gt;Node34 -->
<g id="edge35_Node000033_Node000034" class="edge">
<title>Node33&#45;&gt;Node34</title>
<g id="a_edge35_Node000033_Node000034"><a xlink:title=" ">
<path fill="none" stroke="#63b8ff" d="M486.56,-466.27C494.67,-468.99 502.96,-471.83 510.75,-474.62 526.91,-480.42 530.39,-483.42 546.75,-488.62 552.34,-490.41 558.22,-492.12 564.12,-493.74"/>
<polygon fill="#63b8ff" stroke="#63b8ff" points="563.1,-497.36 573.67,-496.55 564.9,-490.6 563.1,-497.36"/>
</a>
</g>
</g>
<!-- Node35 -->
<g id="Node000035" class="node">
<title>Node35</title>
<g id="a_Node000035"><a xlink:href="../../d6/d3b/class_slic3r_1_1_line.html#afefd711019e7a65c69697af4df65a93c" target="_top" xlink:title=" ">
<polygon fill="white" stroke="#666666" points="669.62,-479.25 569.62,-479.25 569.62,-460 669.62,-460 669.62,-479.25"/>
<text text-anchor="middle" x="619.62" y="-465.75" font-family="Helvetica,sans-Serif" font-size="10.00">Slic3r::Line::normal</text>
</a>
</g>
</g>
<!-- Node33&#45;&gt;Node35 -->
<g id="edge36_Node000033_Node000035" class="edge">
<title>Node33&#45;&gt;Node35</title>
<g id="a_edge36_Node000033_Node000035"><a xlink:title=" ">
<path fill="none" stroke="#63b8ff" d="M501.01,-457.27C519.66,-459.23 540.01,-461.37 558.45,-463.3"/>
<polygon fill="#63b8ff" stroke="#63b8ff" points="558.05,-466.89 568.36,-464.45 558.78,-459.92 558.05,-466.89"/>
</a>
</g>
</g>
<!-- Node36 -->
<g id="Node000036" class="node">
<title>Node36</title>
<g id="a_Node000036"><a xlink:href="../../de/db8/namespace_slic3r.html#ab3977853055b1ea40f45a1bbfb78ef36" target="_top" xlink:title=" ">
<polygon fill="white" stroke="#666666" points="659.88,-442.25 579.38,-442.25 579.38,-423 659.88,-423 659.88,-442.25"/>
<text text-anchor="middle" x="619.62" y="-428.75" font-family="Helvetica,sans-Serif" font-size="10.00">Slic3r::unscale</text>
</a>
</g>
</g>
<!-- Node33&#45;&gt;Node36 -->
<g id="edge37_Node000033_Node000036" class="edge">
<title>Node33&#45;&gt;Node36</title>
<g id="a_edge37_Node000033_Node000036"><a xlink:title=" ">
<path fill="none" stroke="#63b8ff" d="M501.01,-444.33C523.03,-442.14 547.42,-439.71 568.26,-437.64"/>
<polygon fill="#63b8ff" stroke="#63b8ff" points="568.51,-441.03 578.11,-436.56 567.81,-434.07 568.51,-441.03"/>
</a>
</g>
</g>
<!-- Node37 -->
<g id="Node000037" class="node">
<title>Node37</title>
<g id="a_Node000037"><a xlink:href="../../d6/d3b/class_slic3r_1_1_line.html#a16ba4c8fc848d90ffbb9ec3f4fc957c6" target="_top" xlink:title=" ">
<polygon fill="white" stroke="#666666" points="668.5,-405.25 570.75,-405.25 570.75,-386 668.5,-386 668.5,-405.25"/>
<text text-anchor="middle" x="619.62" y="-391.75" font-family="Helvetica,sans-Serif" font-size="10.00">Slic3r::Line::vector</text>
</a>
</g>
</g>
<!-- Node33&#45;&gt;Node37 -->
<g id="edge38_Node000033_Node000037" class="edge">
<title>Node33&#45;&gt;Node37</title>
<g id="a_edge38_Node000033_Node000037"><a xlink:title=" ">
<path fill="none" stroke="#63b8ff" d="M481.25,-434.95C501.1,-428.03 524.99,-420.03 546.75,-413.62 552.76,-411.86 559.08,-410.11 565.38,-408.44"/>
<polygon fill="#63b8ff" stroke="#63b8ff" points="566.1,-411.61 574.9,-405.71 564.34,-404.83 566.1,-411.61"/>
</a>
</g>
</g>
<!-- Node39 -->
<g id="Node000039" class="node">
<title>Node39</title>
<g id="a_Node000039"><a xlink:href="../../de/db8/namespace_slic3r.html#a3fc0fbbcb45d8a2fef27e26e1289ec21" target="_top" xlink:title=" ">
<polygon fill="white" stroke="#666666" points="486.38,-62.25 387.12,-62.25 387.12,-43 486.38,-43 486.38,-62.25"/>
<text text-anchor="middle" x="436.75" y="-48.75" font-family="Helvetica,sans-Serif" font-size="10.00">Slic3r::layer_height</text>
</a>
</g>
</g>
<!-- Node38&#45;&gt;Node39 -->
<g id="edge40_Node000038_Node000039" class="edge">
<title>Node38&#45;&gt;Node39</title>
<g id="a_edge40_Node000038_Node000039"><a xlink:title=" ">
<path fill="none" stroke="#63b8ff" d="M300.99,-52.62C323.77,-52.62 351.54,-52.62 375.93,-52.62"/>
<polygon fill="#63b8ff" stroke="#63b8ff" points="375.87,-56.13 385.87,-52.62 375.87,-49.13 375.87,-56.13"/>
</a>
</g>
</g>
</g>
</svg>

<g id="navigator" transform="translate(0 0)" fill="#404254">
  <rect fill="#f2f5e9" fill-opacity="0.5" stroke="#606060" stroke-width=".5" x="0" y="0" width="60" height="60"/>
  <use id="zoomplus" xlink:href="#zoomPlus" x="17" y="9" onmousedown="handleZoom(evt,'in')"/>
  <use id="zoomminus" xlink:href="#zoomMin" x="42" y="9" onmousedown="handleZoom(evt,'out')"/>
  <use id="reset" xlink:href="#resetDef" x="30" y="36" onmousedown="handleReset()"/>
   <use id="arrowup" xlink:href="#arrowUp" x="0" y="0" onmousedown="handlePan(0,-1)"/>
  <use id="arrowright" xlink:href="#arrowRight" x="0" y="0" onmousedown="handlePan(1,0)"/>
  <use id="arrowdown" xlink:href="#arrowDown" x="0" y="0" onmousedown="handlePan(0,1)"/>
  <use id="arrowleft" xlink:href="#arrowLeft" x="0" y="0" onmousedown="handlePan(-1,0)"/>
</g>
<svg viewBox="0 0 15 15" width="100%" height="30px" preserveAspectRatio="xMaxYMin meet">
 <g id="arrow_out" transform="scale(0.3 0.3)">
  <a xlink:href="class_slic3r_1_1_g_u_i_1_1_g_l_canvas3_d_a2edd27e45a9ddf5dbdf2c5c4eb4f533c_cgraph_org.svg" target="_base">
   <rect id="button" ry="5" rx="5" y="6" x="6" height="38" width="38"
        fill="#f2f5e9" fill-opacity="0.5" stroke="#606060" stroke-width="1.0"/>
   <path id="arrow"
     d="M 11.500037,31.436501 C 11.940474,20.09759 22.043105,11.32322 32.158766,21.979434 L 37.068811,17.246167 C 37.068811,17.246167 37.088388,32 37.088388,32 L 22.160133,31.978069 C 22.160133,31.978069 26.997745,27.140456 26.997745,27.140456 C 18.528582,18.264221 13.291696,25.230495 11.500037,31.436501 z"
     style="fill:#404040;"/>
  </a>
 </g>
</svg>

<style type='text/css'>
<![CDATA[
[data-mouse-over-selected='false'] { opacity: 0.7; }
[data-mouse-over-selected='true']  { opacity: 1.0; }
]]>
</style>
<script type="application/ecmascript"><![CDATA[
document.addEventListener('DOMContentLoaded', (event) => {
  highlightEdges();
  highlightAdjacentNodes();
});
]]></script>
</svg>
