<?xml version="1.0" encoding="UTF-8" standalone="no"?>
<!DOCTYPE svg PUBLIC "-//W3C//DTD SVG 1.1//EN"
 "http://www.w3.org/Graphics/SVG/1.1/DTD/svg11.dtd">
<!-- Generated by graphviz version 8.1.0 (20230707.0739)
 -->
<!-- Title: src/libslic3r/SLA/IndexedMesh.hpp Pages: 1 -->
<!--zoomable 315 -->

<svg id="main" version="1.1" xmlns="http://www.w3.org/2000/svg" xmlns:xlink="http://www.w3.org/1999/xlink" xml:space="preserve" onload="init(evt)">
<style type="text/css"><![CDATA[
.node, .edge {opacity: 0.7;}
.node.selected, .edge.selected {opacity: 1;}
.edge:hover path { stroke: red; }
.edge:hover polygon { stroke: red; fill: red; }
]]></style>

<defs>
  <circle id="rim" cx="0" cy="0" r="7"/>
  <circle id="rim2" cx="0" cy="0" r="3.5"/>
  <g id="zoomPlus">
    <use xlink:href="#rim" fill="#404040"><set attributeName="fill" to="#808080" begin="zoomplus.mouseover" end="zoomplus.mouseout"/></use>
    <path d="M-4,0h8M0,-4v8" fill="none" stroke="white" stroke-width="1.5" pointer-events="none"/>
  </g>
  <g id="zoomMin">
    <use xlink:href="#rim" fill="#404040"><set attributeName="fill" to="#808080" begin="zoomminus.mouseover" end="zoomminus.mouseout"/></use>
    <path d="M-4,0h8" fill="none" stroke="white" stroke-width="1.5" pointer-events="none"/>
  </g>
  <g id="arrowUp" transform="translate(30 24)">
    <use xlink:href="#rim"/>
    <path pointer-events="none" fill="none" stroke="white" stroke-width="1.5" d="M0,-3.0v7 M-2.5,-0.5L0,-3.0L2.5,-0.5"/>
  </g>
  <g id="arrowRight" transform="rotate(90) translate(36 -43)">
    <use xlink:href="#rim"/>
    <path pointer-events="none" fill="none" stroke="white" stroke-width="1.5" d="M0,-3.0v7 M-2.5,-0.5L0,-3.0L2.5,-0.5"/>
  </g>
  <g id="arrowDown" transform="rotate(180) translate(-30 -48)">
    <use xlink:href="#rim"/>
    <path pointer-events="none" fill="none" stroke="white" stroke-width="1.5" d="M0,-3.0v7 M-2.5,-0.5L0,-3.0L2.5,-0.5"/>
  </g>
  <g id="arrowLeft" transform="rotate(270) translate(-36 17)">
    <use xlink:href="#rim"/>
    <path pointer-events="none" fill="none" stroke="white" stroke-width="1.5" d="M0,-3.0v7 M-2.5,-0.5L0,-3.0L2.5,-0.5"/>
  </g>
  <g id="resetDef">
    <use xlink:href="#rim2" fill="#404040"><set attributeName="fill" to="#808080" begin="reset.mouseover" end="reset.mouseout"/></use>
  </g>
</defs>
<script type="application/ecmascript">
var viewWidth = 1585;
var viewHeight = 315;
var sectionId = 'dynsection-0';
</script>
<script type="application/ecmascript" xlink:href="../../svg.min.js"/>
<svg id="graph" class="graph">
<g id="viewport">
<title>src/libslic3r/SLA/IndexedMesh.hpp</title>
<!-- Node1 -->
<g id="Node000001" class="node">
<title>Node1</title>
<g id="a_Node000001"><a xlink:title=" ">
<polygon fill="#999999" stroke="#666666" points="1130.38,-306.75 1005.62,-306.75 1005.62,-276.25 1130.38,-276.25 1130.38,-306.75"/>
<text text-anchor="start" x="1013.62" y="-293.25" font-family="Helvetica,sans-Serif" font-size="10.00">src/libslic3r/SLA/Indexed</text>
<text text-anchor="middle" x="1068" y="-282" font-family="Helvetica,sans-Serif" font-size="10.00">Mesh.hpp</text>
</a>
</g>
</g>
<!-- Node2 -->
<g id="Node000002" class="node">
<title>Node2</title>
<g id="a_Node000002"><a xlink:title=" ">
<polygon fill="#e0e0e0" stroke="#999999" points="1473.62,-74.5 1422.38,-74.5 1422.38,-55.25 1473.62,-55.25 1473.62,-74.5"/>
<text text-anchor="middle" x="1448" y="-61" font-family="Helvetica,sans-Serif" font-size="10.00">memory</text>
</a>
</g>
</g>
<!-- Node1&#45;&gt;Node2 -->
<g id="edge1_Node000001_Node000002" class="edge">
<title>Node1&#45;&gt;Node2</title>
<g id="a_edge1_Node000001_Node000002"><a xlink:title=" ">
<path fill="none" stroke="#63b8ff" d="M1130.86,-290.67C1219.53,-287.68 1382,-269.9 1485,-185 1512.06,-162.69 1527.11,-141.65 1511,-110.5 1504.25,-97.44 1491.72,-87.38 1479.6,-80.15"/>
<polygon fill="#63b8ff" stroke="#63b8ff" points="1481.54,-76.67 1471.09,-74.95 1478.18,-82.82 1481.54,-76.67"/>
</a>
</g>
</g>
<!-- Node3 -->
<g id="Node000003" class="node">
<title>Node3</title>
<g id="a_Node000003"><a xlink:title=" ">
<polygon fill="#e0e0e0" stroke="#999999" points="269.5,-19.25 226.5,-19.25 226.5,0 269.5,0 269.5,-19.25"/>
<text text-anchor="middle" x="248" y="-5.75" font-family="Helvetica,sans-Serif" font-size="10.00">vector</text>
</a>
</g>
</g>
<!-- Node1&#45;&gt;Node3 -->
<g id="edge2_Node000001_Node000003" class="edge">
<title>Node1&#45;&gt;Node3</title>
<g id="a_edge2_Node000001_Node000003"><a xlink:title=" ">
<path fill="none" stroke="#63b8ff" d="M1005.18,-290.42C776.25,-289.33 0,-278.12 0,-176.38 0,-176.38 0,-176.38 0,-119.12 0,-26.05 148.42,-12.05 215.62,-10.48"/>
<polygon fill="#63b8ff" stroke="#63b8ff" points="215.48,-13.97 225.43,-10.32 215.37,-6.97 215.48,-13.97"/>
</a>
</g>
</g>
<!-- Node4 -->
<g id="Node000004" class="node">
<title>Node4</title>
<g id="a_Node000004"><a xlink:href="../../db/deb/_point_8hpp.html" target="_top" xlink:title=" ">
<polygon fill="white" stroke="#666666" points="1114.62,-240.25 1021.38,-240.25 1021.38,-221 1114.62,-221 1114.62,-240.25"/>
<text text-anchor="middle" x="1068" y="-226.75" font-family="Helvetica,sans-Serif" font-size="10.00">libslic3r/Point.hpp</text>
</a>
</g>
</g>
<!-- Node1&#45;&gt;Node4 -->
<g id="edge3_Node000001_Node000004" class="edge">
<title>Node1&#45;&gt;Node4</title>
<g id="a_edge3_Node000001_Node000004"><a xlink:title=" ">
<path fill="none" stroke="#63b8ff" d="M1068,-275.95C1068,-268.62 1068,-259.62 1068,-251.66"/>
<polygon fill="#63b8ff" stroke="#63b8ff" points="1071.5,-251.7 1068,-241.7 1064.5,-251.7 1071.5,-251.7"/>
</a>
</g>
</g>
<!-- Node4&#45;&gt;Node3 -->
<g id="edge44_Node000004_Node000003" class="edge">
<title>Node4&#45;&gt;Node3</title>
<g id="a_edge44_Node000004_Node000003"><a xlink:title=" ">
<path fill="none" stroke="#63b8ff" d="M1020.99,-229.59C844.78,-229.15 229.58,-224.75 152,-185 94.24,-155.41 45.63,-106.85 85,-55.25 100.73,-34.64 172.41,-21.22 215.3,-14.88"/>
<polygon fill="#63b8ff" stroke="#63b8ff" points="215.64,-18.23 225.05,-13.36 214.66,-11.3 215.64,-18.23"/>
</a>
</g>
</g>
<!-- Node5 -->
<g id="Node000005" class="node">
<title>Node5</title>
<g id="a_Node000005"><a xlink:href="../../dd/d47/libslic3r_8h.html" target="_top" xlink:title=" ">
<polygon fill="white" stroke="#666666" points="942.25,-185 885.75,-185 885.75,-165.75 942.25,-165.75 942.25,-185"/>
<text text-anchor="middle" x="914" y="-171.5" font-family="Helvetica,sans-Serif" font-size="10.00">libslic3r.h</text>
</a>
</g>
</g>
<!-- Node4&#45;&gt;Node5 -->
<g id="edge4_Node000004_Node000005" class="edge">
<title>Node4&#45;&gt;Node5</title>
<g id="a_edge4_Node000004_Node000005"><a xlink:title=" ">
<path fill="none" stroke="#63b8ff" d="M1041.88,-220.59C1016.77,-211.91 978.59,-198.71 950.48,-188.99"/>
<polygon fill="#63b8ff" stroke="#63b8ff" points="951.85,-185.41 941.25,-185.45 949.56,-192.03 951.85,-185.41"/>
</a>
</g>
</g>
<!-- Node12 -->
<g id="Node000012" class="node">
<title>Node12</title>
<g id="a_Node000012"><a xlink:title=" ">
<polygon fill="#e0e0e0" stroke="#999999" points="1551.5,-74.5 1508.5,-74.5 1508.5,-55.25 1551.5,-55.25 1551.5,-74.5"/>
<text text-anchor="middle" x="1530" y="-61" font-family="Helvetica,sans-Serif" font-size="10.00">cmath</text>
</a>
</g>
</g>
<!-- Node4&#45;&gt;Node12 -->
<g id="edge45_Node000004_Node000012" class="edge">
<title>Node4&#45;&gt;Node12</title>
<g id="a_edge45_Node000004_Node000012"><a xlink:title=" ">
<path fill="none" stroke="#63b8ff" d="M1114.89,-228.99C1210,-226.99 1421.93,-218.76 1485,-185 1513.17,-169.92 1520.13,-159.8 1531,-129.75 1536.14,-115.54 1535.53,-98.35 1533.83,-85.39"/>
<polygon fill="#63b8ff" stroke="#63b8ff" points="1537.17,-85.18 1532.09,-75.88 1530.27,-86.32 1537.17,-85.18"/>
</a>
</g>
</g>
<!-- Node16 -->
<g id="Node000016" class="node">
<title>Node16</title>
<g id="a_Node000016"><a xlink:title=" ">
<polygon fill="#e0e0e0" stroke="#999999" points="1419.62,-19.25 1368.38,-19.25 1368.38,0 1419.62,0 1419.62,-19.25"/>
<text text-anchor="middle" x="1394" y="-5.75" font-family="Helvetica,sans-Serif" font-size="10.00">sstream</text>
</a>
</g>
</g>
<!-- Node4&#45;&gt;Node16 -->
<g id="edge47_Node000004_Node000016" class="edge">
<title>Node4&#45;&gt;Node16</title>
<g id="a_edge47_Node000004_Node000016"><a xlink:title=" ">
<path fill="none" stroke="#63b8ff" d="M1114.9,-230.06C1215.2,-230.18 1446.76,-225.87 1512,-185 1564.24,-152.27 1598.54,-104.14 1561,-55.25 1545.2,-34.68 1474.6,-21.54 1430.41,-15.18"/>
<polygon fill="#63b8ff" stroke="#63b8ff" points="1431.18,-11.61 1420.79,-13.71 1430.22,-18.55 1431.18,-11.61"/>
</a>
</g>
</g>
<!-- Node26 -->
<g id="Node000026" class="node">
<title>Node26</title>
<g id="a_Node000026"><a xlink:title=" ">
<polygon fill="#e0e0e0" stroke="#999999" points="134,-74.5 94,-74.5 94,-55.25 134,-55.25 134,-74.5"/>
<text text-anchor="middle" x="114" y="-61" font-family="Helvetica,sans-Serif" font-size="10.00">string</text>
</a>
</g>
</g>
<!-- Node4&#45;&gt;Node26 -->
<g id="edge46_Node000004_Node000026" class="edge">
<title>Node4&#45;&gt;Node26</title>
<g id="a_edge46_Node000004_Node000026"><a xlink:title=" ">
<path fill="none" stroke="#63b8ff" d="M1020.93,-229.98C865.35,-230.71 368.81,-229.41 216,-185 167.99,-171.05 144.56,-172.11 118,-129.75 109.78,-116.64 109.32,-98.9 110.61,-85.44"/>
<polygon fill="#63b8ff" stroke="#63b8ff" points="114.16,-86.32 112.04,-75.94 107.22,-85.38 114.16,-86.32"/>
</a>
</g>
</g>
<!-- Node33 -->
<g id="Node000033" class="node">
<title>Node33</title>
<g id="a_Node000033"><a xlink:title=" ">
<polygon fill="#e0e0e0" stroke="#999999" points="1008.12,-185 959.88,-185 959.88,-165.75 1008.12,-165.75 1008.12,-185"/>
<text text-anchor="middle" x="984" y="-171.5" font-family="Helvetica,sans-Serif" font-size="10.00">cstddef</text>
</a>
</g>
</g>
<!-- Node4&#45;&gt;Node33 -->
<g id="edge43_Node000004_Node000033" class="edge">
<title>Node4&#45;&gt;Node33</title>
<g id="a_edge43_Node000004_Node000033"><a xlink:title=" ">
<path fill="none" stroke="#63b8ff" d="M1053.75,-220.59C1041.08,-212.56 1022.31,-200.66 1007.43,-191.23"/>
<polygon fill="#63b8ff" stroke="#63b8ff" points="1009.64,-187.85 999.32,-185.45 1005.89,-193.76 1009.64,-187.85"/>
</a>
</g>
</g>
<!-- Node34 -->
<g id="Node000034" class="node">
<title>Node34</title>
<g id="a_Node000034"><a xlink:title=" ">
<polygon fill="#e0e0e0" stroke="#999999" points="1109.38,-185 1026.62,-185 1026.62,-165.75 1109.38,-165.75 1109.38,-185"/>
<text text-anchor="middle" x="1068" y="-171.5" font-family="Helvetica,sans-Serif" font-size="10.00">unordered_map</text>
</a>
</g>
</g>
<!-- Node4&#45;&gt;Node34 -->
<g id="edge48_Node000004_Node000034" class="edge">
<title>Node4&#45;&gt;Node34</title>
<g id="a_edge48_Node000004_Node000034"><a xlink:title=" ">
<path fill="none" stroke="#63b8ff" d="M1068,-220.83C1068,-214.17 1068,-204.74 1068,-196.28"/>
<polygon fill="#63b8ff" stroke="#63b8ff" points="1071.5,-196.36 1068,-186.36 1064.5,-196.36 1071.5,-196.36"/>
</a>
</g>
</g>
<!-- Node35 -->
<g id="Node000035" class="node">
<title>Node35</title>
<g id="a_Node000035"><a xlink:title=" ">
<polygon fill="#e0e0e0" stroke="#999999" points="1214.25,-185 1127.75,-185 1127.75,-165.75 1214.25,-165.75 1214.25,-185"/>
<text text-anchor="middle" x="1171" y="-171.5" font-family="Helvetica,sans-Serif" font-size="10.00">Eigen/Geometry</text>
</a>
</g>
</g>
<!-- Node4&#45;&gt;Node35 -->
<g id="edge49_Node000004_Node000035" class="edge">
<title>Node4&#45;&gt;Node35</title>
<g id="a_edge49_Node000004_Node000035"><a xlink:title=" ">
<path fill="none" stroke="#63b8ff" d="M1085.47,-220.59C1101.45,-212.33 1125.35,-199.98 1143.82,-190.43"/>
<polygon fill="#63b8ff" stroke="#63b8ff" points="1145.17,-193.15 1152.44,-185.45 1141.95,-186.94 1145.17,-193.15"/>
</a>
</g>
</g>
<!-- Node36 -->
<g id="Node000036" class="node">
<title>Node36</title>
<g id="a_Node000036"><a xlink:href="../../da/dfe/_locales_utils_8hpp.html" target="_top" xlink:title=" ">
<polygon fill="white" stroke="#666666" points="313.38,-185 224.62,-185 224.62,-165.75 313.38,-165.75 313.38,-185"/>
<text text-anchor="middle" x="269" y="-171.5" font-family="Helvetica,sans-Serif" font-size="10.00">LocalesUtils.hpp</text>
</a>
</g>
</g>
<!-- Node4&#45;&gt;Node36 -->
<g id="edge50_Node000004_Node000036" class="edge">
<title>Node4&#45;&gt;Node36</title>
<g id="a_edge50_Node000004_Node000036"><a xlink:title=" ">
<path fill="none" stroke="#63b8ff" d="M1021,-226.49C881.98,-217.23 473.17,-189.98 324.15,-180.05"/>
<polygon fill="#63b8ff" stroke="#63b8ff" points="324.67,-176.51 314.46,-179.34 324.21,-183.5 324.67,-176.51"/>
</a>
</g>
</g>
<!-- Node40 -->
<g id="Node000040" class="node">
<title>Node40</title>
<g id="a_Node000040"><a xlink:title=" ">
<polygon fill="#e0e0e0" stroke="#999999" points="1325.62,-185 1232.38,-185 1232.38,-165.75 1325.62,-165.75 1325.62,-185"/>
<text text-anchor="middle" x="1279" y="-171.5" font-family="Helvetica,sans-Serif" font-size="10.00">boost/version.hpp</text>
</a>
</g>
</g>
<!-- Node4&#45;&gt;Node40 -->
<g id="edge56_Node000004_Node000040" class="edge">
<title>Node4&#45;&gt;Node40</title>
<g id="a_edge56_Node000004_Node000040"><a xlink:title=" ">
<path fill="none" stroke="#63b8ff" d="M1103.79,-220.59C1139.26,-211.64 1193.75,-197.89 1232.54,-188.1"/>
<polygon fill="#63b8ff" stroke="#63b8ff" points="1233.19,-191.29 1242.03,-185.45 1231.48,-184.51 1233.19,-191.29"/>
</a>
</g>
</g>
<!-- Node41 -->
<g id="Node000041" class="node">
<title>Node41</title>
<g id="a_Node000041"><a xlink:title=" ">
<polygon fill="#e0e0e0" stroke="#999999" points="1476.12,-185 1343.88,-185 1343.88,-165.75 1476.12,-165.75 1476.12,-185"/>
<text text-anchor="middle" x="1410" y="-171.5" font-family="Helvetica,sans-Serif" font-size="10.00">boost/polygon/polygon.hpp</text>
</a>
</g>
</g>
<!-- Node4&#45;&gt;Node41 -->
<g id="edge57_Node000004_Node000041" class="edge">
<title>Node4&#45;&gt;Node41</title>
<g id="a_edge57_Node000004_Node000041"><a xlink:title=" ">
<path fill="none" stroke="#63b8ff" d="M1114.84,-222.33C1173.27,-213.23 1273.67,-197.6 1340.93,-187.13"/>
<polygon fill="#63b8ff" stroke="#63b8ff" points="1341.09,-190.49 1350.43,-185.49 1340.01,-183.57 1341.09,-190.49"/>
</a>
</g>
</g>
<!-- Node5&#45;&gt;Node2 -->
<g id="edge6_Node000005_Node000002" class="edge">
<title>Node5&#45;&gt;Node2</title>
<g id="a_edge6_Node000005_Node000002"><a xlink:title=" ">
<path fill="none" stroke="#63b8ff" d="M942.6,-167.26C945.43,-166.69 948.26,-166.17 951,-165.75 1051.67,-150.14 1320.89,-182.56 1408,-129.75 1424.58,-119.7 1435.37,-99.87 1441.52,-84.96"/>
<polygon fill="#63b8ff" stroke="#63b8ff" points="1445.11,-86.35 1445.33,-75.76 1438.55,-83.9 1445.11,-86.35"/>
</a>
</g>
</g>
<!-- Node5&#45;&gt;Node3 -->
<g id="edge26_Node000005_Node000003" class="edge">
<title>Node5&#45;&gt;Node3</title>
<g id="a_edge26_Node000005_Node000003"><a xlink:title=" ">
<path fill="none" stroke="#63b8ff" d="M885.39,-173C797.9,-168.56 534.95,-153.55 453,-129.75 434.82,-124.47 432.76,-117.06 415,-110.5 351.5,-87.05 316.06,-121.14 267,-74.5 254.95,-63.04 250.44,-44.31 248.8,-30.09"/>
<polygon fill="#63b8ff" stroke="#63b8ff" points="252.24,-30.17 248,-20.46 245.26,-30.69 252.24,-30.17"/>
</a>
</g>
</g>
<!-- Node6 -->
<g id="Node000006" class="node">
<title>Node6</title>
<g id="a_Node000006"><a xlink:title=" ">
<polygon fill="#e0e0e0" stroke="#999999" points="1236,-129.75 1142,-129.75 1142,-110.5 1236,-110.5 1236,-129.75"/>
<text text-anchor="middle" x="1189" y="-116.25" font-family="Helvetica,sans-Serif" font-size="10.00">libslic3r_version.h</text>
</a>
</g>
</g>
<!-- Node5&#45;&gt;Node6 -->
<g id="edge5_Node000005_Node000006" class="edge">
<title>Node5&#45;&gt;Node6</title>
<g id="a_edge5_Node000005_Node000006"><a xlink:title=" ">
<path fill="none" stroke="#63b8ff" d="M942.66,-167.56C945.47,-166.93 948.29,-166.32 951,-165.75 1012.39,-152.85 1083.07,-139.82 1131.36,-131.21"/>
<polygon fill="#63b8ff" stroke="#63b8ff" points="1131.68,-134.52 1140.92,-129.33 1130.46,-127.63 1131.68,-134.52"/>
</a>
</g>
</g>
<!-- Node7 -->
<g id="Node000007" class="node">
<title>Node7</title>
<g id="a_Node000007"><a xlink:title=" ">
<polygon fill="#e0e0e0" stroke="#999999" points="1291.88,-129.75 1254.12,-129.75 1254.12,-110.5 1291.88,-110.5 1291.88,-129.75"/>
<text text-anchor="middle" x="1273" y="-116.25" font-family="Helvetica,sans-Serif" font-size="10.00">array</text>
</a>
</g>
</g>
<!-- Node5&#45;&gt;Node7 -->
<g id="edge7_Node000005_Node000007" class="edge">
<title>Node5&#45;&gt;Node7</title>
<g id="a_edge7_Node000005_Node000007"><a xlink:title=" ">
<path fill="none" stroke="#63b8ff" d="M942.62,-167.38C945.44,-166.79 948.27,-166.23 951,-165.75 1077.2,-143.38 1114.31,-156.5 1243.16,-129.78"/>
<polygon fill="#63b8ff" stroke="#63b8ff" points="1243.78,-133.01 1252.84,-127.52 1242.33,-126.16 1243.78,-133.01"/>
</a>
</g>
</g>
<!-- Node8 -->
<g id="Node000008" class="node">
<title>Node8</title>
<g id="a_Node000008"><a xlink:title=" ">
<polygon fill="#e0e0e0" stroke="#999999" points="1365.88,-129.75 1310.12,-129.75 1310.12,-110.5 1365.88,-110.5 1365.88,-129.75"/>
<text text-anchor="middle" x="1338" y="-116.25" font-family="Helvetica,sans-Serif" font-size="10.00">algorithm</text>
</a>
</g>
</g>
<!-- Node5&#45;&gt;Node8 -->
<g id="edge8_Node000005_Node000008" class="edge">
<title>Node5&#45;&gt;Node8</title>
<g id="a_edge8_Node000005_Node000008"><a xlink:title=" ">
<path fill="none" stroke="#63b8ff" d="M942.61,-167.33C945.44,-166.75 948.27,-166.21 951,-165.75 1101.77,-140.53 1144.84,-154.87 1298.99,-129.87"/>
<polygon fill="#63b8ff" stroke="#63b8ff" points="1299.5,-133.17 1308.79,-128.09 1298.36,-126.27 1299.5,-133.17"/>
</a>
</g>
</g>
<!-- Node9 -->
<g id="Node000009" class="node">
<title>Node9</title>
<g id="a_Node000009"><a xlink:title=" ">
<polygon fill="#e0e0e0" stroke="#999999" points="855.62,-74.5 804.38,-74.5 804.38,-55.25 855.62,-55.25 855.62,-74.5"/>
<text text-anchor="middle" x="830" y="-61" font-family="Helvetica,sans-Serif" font-size="10.00">ostream</text>
</a>
</g>
</g>
<!-- Node5&#45;&gt;Node9 -->
<g id="edge9_Node000005_Node000009" class="edge">
<title>Node5&#45;&gt;Node9</title>
<g id="a_edge9_Node000005_Node000009"><a xlink:title=" ">
<path fill="none" stroke="#63b8ff" d="M885.31,-172.71C807.56,-167.9 597.25,-152.86 577,-129.75 531.15,-77.42 421.65,-145.3 790,-74.5 791.15,-74.28 792.32,-74.05 793.5,-73.82"/>
<polygon fill="#63b8ff" stroke="#63b8ff" points="794.12,-77.06 803.21,-71.61 792.71,-70.2 794.12,-77.06"/>
</a>
</g>
</g>
<!-- Node10 -->
<g id="Node000010" class="node">
<title>Node10</title>
<g id="a_Node000010"><a xlink:title=" ">
<polygon fill="#e0e0e0" stroke="#999999" points="1152.75,-19.25 1099.25,-19.25 1099.25,0 1152.75,0 1152.75,-19.25"/>
<text text-anchor="middle" x="1126" y="-5.75" font-family="Helvetica,sans-Serif" font-size="10.00">iostream</text>
</a>
</g>
</g>
<!-- Node5&#45;&gt;Node10 -->
<g id="edge10_Node000005_Node000010" class="edge">
<title>Node5&#45;&gt;Node10</title>
<g id="a_edge10_Node000005_Node000010"><a xlink:title=" ">
<path fill="none" stroke="#63b8ff" d="M942.54,-168.05C967.6,-161.48 1004.14,-149.37 1031,-129.75 1069.3,-101.77 1100.55,-54.55 1115.84,-28.76"/>
<polygon fill="#63b8ff" stroke="#63b8ff" points="1119.26,-30.84 1121.23,-20.43 1113.2,-27.34 1119.26,-30.84"/>
</a>
</g>
</g>
<!-- Node11 -->
<g id="Node000011" class="node">
<title>Node11</title>
<g id="a_Node000011"><a xlink:href="../../df/db1/math_8h.html" target="_top" xlink:title=" ">
<polygon fill="white" stroke="#666666" points="1124,-129.75 1078,-129.75 1078,-110.5 1124,-110.5 1124,-129.75"/>
<text text-anchor="middle" x="1101" y="-116.25" font-family="Helvetica,sans-Serif" font-size="10.00">math.h</text>
</a>
</g>
</g>
<!-- Node5&#45;&gt;Node11 -->
<g id="edge11_Node000005_Node000011" class="edge">
<title>Node5&#45;&gt;Node11</title>
<g id="a_edge11_Node000005_Node000011"><a xlink:title=" ">
<path fill="none" stroke="#63b8ff" d="M942.4,-166.29C975.92,-156.74 1031.6,-140.89 1067.28,-130.73"/>
<polygon fill="#63b8ff" stroke="#63b8ff" points="1068,-133.88 1076.66,-127.77 1066.09,-127.14 1068,-133.88"/>
</a>
</g>
</g>
<!-- Node5&#45;&gt;Node12 -->
<g id="edge28_Node000005_Node000012" class="edge">
<title>Node5&#45;&gt;Node12</title>
<g id="a_edge28_Node000005_Node000012"><a xlink:title=" ">
<path fill="none" stroke="#63b8ff" d="M942.59,-167.22C945.42,-166.66 948.26,-166.15 951,-165.75 1012.68,-156.64 1462.24,-168.61 1511,-129.75 1524.15,-119.27 1528.49,-100.11 1529.79,-85.5"/>
<polygon fill="#63b8ff" stroke="#63b8ff" points="1533.33,-85.73 1530.29,-75.58 1526.33,-85.41 1533.33,-85.73"/>
</a>
</g>
</g>
<!-- Node5&#45;&gt;Node16 -->
<g id="edge22_Node000005_Node000016" class="edge">
<title>Node5&#45;&gt;Node16</title>
<g id="a_edge22_Node000005_Node000016"><a xlink:title=" ">
<path fill="none" stroke="#63b8ff" d="M942.6,-167.28C945.43,-166.71 948.26,-166.18 951,-165.75 997.7,-158.36 1340.36,-161.93 1375,-129.75 1402.28,-104.41 1400.83,-56.82 1397.4,-30.1"/>
<polygon fill="#63b8ff" stroke="#63b8ff" points="1400.75,-29.81 1395.78,-20.45 1393.83,-30.86 1400.75,-29.81"/>
</a>
</g>
</g>
<!-- Node17 -->
<g id="Node000017" class="node">
<title>Node17</title>
<g id="a_Node000017"><a xlink:title=" ">
<polygon fill="#e0e0e0" stroke="#999999" points="1502.12,-129.75 1459.88,-129.75 1459.88,-110.5 1502.12,-110.5 1502.12,-129.75"/>
<text text-anchor="middle" x="1481" y="-116.25" font-family="Helvetica,sans-Serif" font-size="10.00">queue</text>
</a>
</g>
</g>
<!-- Node5&#45;&gt;Node17 -->
<g id="edge21_Node000005_Node000017" class="edge">
<title>Node5&#45;&gt;Node17</title>
<g id="a_edge21_Node000005_Node000017"><a xlink:title=" ">
<path fill="none" stroke="#63b8ff" d="M942.6,-167.24C945.43,-166.68 948.26,-166.17 951,-165.75 1169.08,-132.61 1228.14,-164.26 1446,-129.75 1446.97,-129.6 1447.96,-129.43 1448.95,-129.25"/>
<polygon fill="#63b8ff" stroke="#63b8ff" points="1449.58,-132.48 1458.65,-126.99 1448.14,-125.63 1449.58,-132.48"/>
</a>
</g>
</g>
<!-- Node18 -->
<g id="Node000018" class="node">
<title>Node18</title>
<g id="a_Node000018"><a xlink:title=" ">
<polygon fill="#e0e0e0" stroke="#999999" points="628.12,-129.75 585.88,-129.75 585.88,-110.5 628.12,-110.5 628.12,-129.75"/>
<text text-anchor="middle" x="607" y="-116.25" font-family="Helvetica,sans-Serif" font-size="10.00">cstdio</text>
</a>
</g>
</g>
<!-- Node5&#45;&gt;Node18 -->
<g id="edge23_Node000005_Node000018" class="edge">
<title>Node5&#45;&gt;Node18</title>
<g id="a_edge23_Node000005_Node000018"><a xlink:title=" ">
<path fill="none" stroke="#63b8ff" d="M885.47,-170.93C836.83,-164.81 734.59,-150.88 639.24,-130.03"/>
<polygon fill="#63b8ff" stroke="#63b8ff" points="640.07,-126.41 629.55,-127.66 638.55,-133.24 640.07,-126.41"/>
</a>
</g>
</g>
<!-- Node19 -->
<g id="Node000019" class="node">
<title>Node19</title>
<g id="a_Node000019"><a xlink:title=" ">
<polygon fill="#e0e0e0" stroke="#999999" points="694.12,-129.75 645.88,-129.75 645.88,-110.5 694.12,-110.5 694.12,-129.75"/>
<text text-anchor="middle" x="670" y="-116.25" font-family="Helvetica,sans-Serif" font-size="10.00">stdint.h</text>
</a>
</g>
</g>
<!-- Node5&#45;&gt;Node19 -->
<g id="edge24_Node000005_Node000019" class="edge">
<title>Node5&#45;&gt;Node19</title>
<g id="a_edge24_Node000005_Node000019"><a xlink:title=" ">
<path fill="none" stroke="#63b8ff" d="M885.58,-168.81C846.87,-161.13 775.17,-146.57 704.84,-130.1"/>
<polygon fill="#63b8ff" stroke="#63b8ff" points="706.01,-126.55 695.48,-127.66 704.41,-133.36 706.01,-126.55"/>
</a>
</g>
</g>
<!-- Node20 -->
<g id="Node000020" class="node">
<title>Node20</title>
<g id="a_Node000020"><a xlink:title=" ">
<polygon fill="#e0e0e0" stroke="#999999" points="763.62,-129.75 712.38,-129.75 712.38,-110.5 763.62,-110.5 763.62,-129.75"/>
<text text-anchor="middle" x="738" y="-116.25" font-family="Helvetica,sans-Serif" font-size="10.00">stdarg.h</text>
</a>
</g>
</g>
<!-- Node5&#45;&gt;Node20 -->
<g id="edge25_Node000005_Node000020" class="edge">
<title>Node5&#45;&gt;Node20</title>
<g id="a_edge25_Node000005_Node000020"><a xlink:title=" ">
<path fill="none" stroke="#63b8ff" d="M885.33,-165.7C855.01,-156.53 807.09,-142.03 774.19,-132.07"/>
<polygon fill="#63b8ff" stroke="#63b8ff" points="775.66,-128.56 765.07,-129.01 773.63,-135.26 775.66,-128.56"/>
</a>
</g>
</g>
<!-- Node21 -->
<g id="Node000021" class="node">
<title>Node21</title>
<g id="a_Node000021"><a xlink:title=" ">
<polygon fill="#e0e0e0" stroke="#999999" points="406.12,-129.75 357.88,-129.75 357.88,-110.5 406.12,-110.5 406.12,-129.75"/>
<text text-anchor="middle" x="382" y="-116.25" font-family="Helvetica,sans-Serif" font-size="10.00">cassert</text>
</a>
</g>
</g>
<!-- Node5&#45;&gt;Node21 -->
<g id="edge27_Node000005_Node000021" class="edge">
<title>Node5&#45;&gt;Node21</title>
<g id="a_edge27_Node000005_Node000021"><a xlink:title=" ">
<path fill="none" stroke="#63b8ff" d="M885.43,-173.13C809.36,-169.51 595.65,-157.49 420,-129.75 419.04,-129.6 418.06,-129.44 417.07,-129.26"/>
<polygon fill="#63b8ff" stroke="#63b8ff" points="417.92,-125.67 407.44,-127.17 416.58,-132.54 417.92,-125.67"/>
</a>
</g>
</g>
<!-- Node22 -->
<g id="Node000022" class="node">
<title>Node22</title>
<g id="a_Node000022"><a xlink:title=" ">
<polygon fill="#e0e0e0" stroke="#999999" points="843.88,-129.75 782.12,-129.75 782.12,-110.5 843.88,-110.5 843.88,-129.75"/>
<text text-anchor="middle" x="813" y="-116.25" font-family="Helvetica,sans-Serif" font-size="10.00">type_traits</text>
</a>
</g>
</g>
<!-- Node5&#45;&gt;Node22 -->
<g id="edge29_Node000005_Node000022" class="edge">
<title>Node5&#45;&gt;Node22</title>
<g id="a_edge29_Node000005_Node000022"><a xlink:title=" ">
<path fill="none" stroke="#63b8ff" d="M896.87,-165.34C881.27,-157.12 857.98,-144.84 839.9,-135.31"/>
<polygon fill="#63b8ff" stroke="#63b8ff" points="841.7,-131.77 831.22,-130.2 838.43,-137.96 841.7,-131.77"/>
</a>
</g>
</g>
<!-- Node23 -->
<g id="Node000023" class="node">
<title>Node23</title>
<g id="a_Node000023"><a xlink:title=" ">
<polygon fill="#e0e0e0" stroke="#999999" points="911.88,-129.75 862.12,-129.75 862.12,-110.5 911.88,-110.5 911.88,-129.75"/>
<text text-anchor="middle" x="887" y="-116.25" font-family="Helvetica,sans-Serif" font-size="10.00">optional</text>
</a>
</g>
</g>
<!-- Node5&#45;&gt;Node23 -->
<g id="edge30_Node000005_Node000023" class="edge">
<title>Node5&#45;&gt;Node23</title>
<g id="a_edge30_Node000005_Node000023"><a xlink:title=" ">
<path fill="none" stroke="#63b8ff" d="M909.54,-165.58C906.01,-158.61 900.94,-148.62 896.51,-139.87"/>
<polygon fill="#63b8ff" stroke="#63b8ff" points="899.2,-138.45 891.56,-131.11 892.96,-141.61 899.2,-138.45"/>
</a>
</g>
</g>
<!-- Node24 -->
<g id="Node000024" class="node">
<title>Node24</title>
<g id="a_Node000024"><a xlink:href="../../d0/d8f/_technologies_8hpp.html" target="_top" xlink:title=" ">
<polygon fill="white" stroke="#666666" points="1021.88,-129.75 930.12,-129.75 930.12,-110.5 1021.88,-110.5 1021.88,-129.75"/>
<text text-anchor="middle" x="976" y="-116.25" font-family="Helvetica,sans-Serif" font-size="10.00">Technologies.hpp</text>
</a>
</g>
</g>
<!-- Node5&#45;&gt;Node24 -->
<g id="edge31_Node000005_Node000024" class="edge">
<title>Node5&#45;&gt;Node24</title>
<g id="a_edge31_Node000005_Node000024"><a xlink:title=" ">
<path fill="none" stroke="#63b8ff" d="M924.52,-165.34C933.48,-157.65 946.57,-146.4 957.31,-137.18"/>
<polygon fill="#63b8ff" stroke="#63b8ff" points="959.33,-139.2 964.64,-130.02 954.77,-133.89 959.33,-139.2"/>
</a>
</g>
</g>
<!-- Node25 -->
<g id="Node000025" class="node">
<title>Node25</title>
<g id="a_Node000025"><a xlink:href="../../df/d1b/_semver_8hpp.html" target="_top" xlink:title=" ">
<polygon fill="white" stroke="#666666" points="529.88,-129.75 462.12,-129.75 462.12,-110.5 529.88,-110.5 529.88,-129.75"/>
<text text-anchor="middle" x="496" y="-116.25" font-family="Helvetica,sans-Serif" font-size="10.00">Semver.hpp</text>
</a>
</g>
</g>
<!-- Node5&#45;&gt;Node25 -->
<g id="edge32_Node000005_Node000025" class="edge">
<title>Node5&#45;&gt;Node25</title>
<g id="a_edge32_Node000005_Node000025"><a xlink:title=" ">
<path fill="none" stroke="#63b8ff" d="M885.61,-171.52C823.51,-165.14 671.01,-148.8 544,-129.75 543.03,-129.6 542.05,-129.45 541.06,-129.3"/>
<polygon fill="#63b8ff" stroke="#63b8ff" points="541.74,-125.7 531.31,-127.54 540.61,-132.61 541.74,-125.7"/>
</a>
</g>
</g>
<!-- Node11&#45;&gt;Node2 -->
<g id="edge15_Node000011_Node000002" class="edge">
<title>Node11&#45;&gt;Node2</title>
<g id="a_edge15_Node000011_Node000002"><a xlink:title=" ">
<path fill="none" stroke="#63b8ff" d="M1124.34,-112.48C1127.24,-111.76 1130.18,-111.08 1133,-110.5 1232.89,-90.04 1352.51,-75.88 1411.47,-69.58"/>
<polygon fill="#63b8ff" stroke="#63b8ff" points="1411.52,-72.99 1421.09,-68.46 1410.78,-66.03 1411.52,-72.99"/>
</a>
</g>
</g>
<!-- Node11&#45;&gt;Node3 -->
<g id="edge16_Node000011_Node000003" class="edge">
<title>Node11&#45;&gt;Node3</title>
<g id="a_edge16_Node000011_Node000003"><a xlink:title=" ">
<path fill="none" stroke="#63b8ff" d="M1077.55,-111.16C1035.51,-97.25 944.3,-68.72 865,-55.25 643.9,-17.69 372.97,-11.71 280.62,-10.79"/>
<polygon fill="#63b8ff" stroke="#63b8ff" points="280.8,-7.28 270.77,-10.69 280.73,-14.28 280.8,-7.28"/>
</a>
</g>
</g>
<!-- Node11&#45;&gt;Node10 -->
<g id="edge13_Node000011_Node000010" class="edge">
<title>Node11&#45;&gt;Node10</title>
<g id="a_edge13_Node000011_Node000010"><a xlink:title=" ">
<path fill="none" stroke="#63b8ff" d="M1103.05,-110.25C1107.06,-92.84 1116.04,-53.87 1121.5,-30.16"/>
<polygon fill="#63b8ff" stroke="#63b8ff" points="1125.09,-31.16 1123.93,-20.63 1118.27,-29.59 1125.09,-31.16"/>
</a>
</g>
</g>
<!-- Node11&#45;&gt;Node12 -->
<g id="edge12_Node000011_Node000012" class="edge">
<title>Node11&#45;&gt;Node12</title>
<g id="a_edge12_Node000011_Node000012"><a xlink:title=" ">
<path fill="none" stroke="#63b8ff" d="M1124.32,-112.37C1127.23,-111.67 1130.17,-111.02 1133,-110.5 1286.77,-82.06 1328.2,-96.63 1483,-74.5 1487.62,-73.84 1492.48,-73.05 1497.25,-72.23"/>
<polygon fill="#63b8ff" stroke="#63b8ff" points="1497.84,-75.5 1507.06,-70.27 1496.6,-68.61 1497.84,-75.5"/>
</a>
</g>
</g>
<!-- Node13 -->
<g id="Node000013" class="node">
<title>Node13</title>
<g id="a_Node000013"><a xlink:title=" ">
<polygon fill="#e0e0e0" stroke="#999999" points="1312.62,-74.5 1273.38,-74.5 1273.38,-55.25 1312.62,-55.25 1312.62,-74.5"/>
<text text-anchor="middle" x="1293" y="-61" font-family="Helvetica,sans-Serif" font-size="10.00">limits</text>
</a>
</g>
</g>
<!-- Node11&#45;&gt;Node13 -->
<g id="edge14_Node000011_Node000013" class="edge">
<title>Node11&#45;&gt;Node13</title>
<g id="a_edge14_Node000011_Node000013"><a xlink:title=" ">
<path fill="none" stroke="#63b8ff" d="M1124.4,-112.8C1161.31,-102.83 1231.47,-83.84 1262.66,-75.07"/>
<polygon fill="#63b8ff" stroke="#63b8ff" points="1263.48,-78.19 1272.14,-72.08 1261.56,-71.46 1263.48,-78.19"/>
</a>
</g>
</g>
<!-- Node14 -->
<g id="Node000014" class="node">
<title>Node14</title>
<g id="a_Node000014"><a xlink:href="../../d5/d60/utils_8h.html" target="_top" xlink:title=" ">
<polygon fill="white" stroke="#666666" points="1255.75,-74.5 1154.25,-74.5 1154.25,-55.25 1255.75,-55.25 1255.75,-74.5"/>
<text text-anchor="middle" x="1205" y="-61" font-family="Helvetica,sans-Serif" font-size="10.00">mcut/internal/utils.h</text>
</a>
</g>
</g>
<!-- Node11&#45;&gt;Node14 -->
<g id="edge17_Node000011_Node000014" class="edge">
<title>Node11&#45;&gt;Node14</title>
<g id="a_edge17_Node000011_Node000014"><a xlink:title=" ">
<path fill="none" stroke="#63b8ff" d="M1118.64,-110.09C1134.78,-101.83 1158.9,-89.48 1177.56,-79.93"/>
<polygon fill="#63b8ff" stroke="#63b8ff" points="1178.97,-82.63 1186.27,-74.95 1175.78,-76.39 1178.97,-82.63"/>
</a>
</g>
</g>
<!-- Node14&#45;&gt;Node10 -->
<g id="edge19_Node000014_Node000010" class="edge">
<title>Node14&#45;&gt;Node10</title>
<g id="a_edge19_Node000014_Node000010"><a xlink:title=" ">
<path fill="none" stroke="#63b8ff" d="M1191.6,-54.84C1179.8,-46.89 1162.36,-35.14 1148.44,-25.75"/>
<polygon fill="#63b8ff" stroke="#63b8ff" points="1150.72,-22.39 1140.47,-19.7 1146.8,-28.19 1150.72,-22.39"/>
</a>
</g>
</g>
<!-- Node15 -->
<g id="Node000015" class="node">
<title>Node15</title>
<g id="a_Node000015"><a xlink:title=" ">
<polygon fill="#e0e0e0" stroke="#999999" points="1229.5,-19.25 1180.5,-19.25 1180.5,0 1229.5,0 1229.5,-19.25"/>
<text text-anchor="middle" x="1205" y="-5.75" font-family="Helvetica,sans-Serif" font-size="10.00">fstream</text>
</a>
</g>
</g>
<!-- Node14&#45;&gt;Node15 -->
<g id="edge18_Node000014_Node000015" class="edge">
<title>Node14&#45;&gt;Node15</title>
<g id="a_edge18_Node000014_Node000015"><a xlink:title=" ">
<path fill="none" stroke="#63b8ff" d="M1205,-55.08C1205,-48.42 1205,-38.99 1205,-30.53"/>
<polygon fill="#63b8ff" stroke="#63b8ff" points="1208.5,-30.61 1205,-20.61 1201.5,-30.61 1208.5,-30.61"/>
</a>
</g>
</g>
<!-- Node14&#45;&gt;Node16 -->
<g id="edge20_Node000014_Node000016" class="edge">
<title>Node14&#45;&gt;Node16</title>
<g id="a_edge20_Node000014_Node000016"><a xlink:title=" ">
<path fill="none" stroke="#63b8ff" d="M1237.06,-54.84C1270.47,-45.43 1322.71,-30.71 1357.64,-20.87"/>
<polygon fill="#63b8ff" stroke="#63b8ff" points="1358.2,-24.07 1366.88,-17.98 1356.3,-17.33 1358.2,-24.07"/>
</a>
</g>
</g>
<!-- Node25&#45;&gt;Node9 -->
<g id="edge35_Node000025_Node000009" class="edge">
<title>Node25&#45;&gt;Node9</title>
<g id="a_edge35_Node000025_Node000009"><a xlink:title=" ">
<path fill="none" stroke="#63b8ff" d="M530.32,-112.82C534.92,-112.01 539.57,-111.22 544,-110.5 653.06,-92.73 681.26,-94.16 790,-74.5 791.15,-74.29 792.32,-74.07 793.51,-73.85"/>
<polygon fill="#63b8ff" stroke="#63b8ff" points="794.11,-77.1 803.23,-71.7 792.74,-70.23 794.11,-77.1"/>
</a>
</g>
</g>
<!-- Node25&#45;&gt;Node26 -->
<g id="edge33_Node000025_Node000026" class="edge">
<title>Node25&#45;&gt;Node26</title>
<g id="a_edge33_Node000025_Node000026"><a xlink:title=" ">
<path fill="none" stroke="#63b8ff" d="M461.76,-114.35C388.21,-104.1 216.05,-80.1 145.25,-70.23"/>
<polygon fill="#63b8ff" stroke="#63b8ff" points="145.79,-66.63 135.41,-68.72 144.83,-73.57 145.79,-66.63"/>
</a>
</g>
</g>
<!-- Node27 -->
<g id="Node000027" class="node">
<title>Node27</title>
<g id="a_Node000027"><a xlink:title=" ">
<polygon fill="#e0e0e0" stroke="#999999" points="430.62,-74.5 385.38,-74.5 385.38,-55.25 430.62,-55.25 430.62,-74.5"/>
<text text-anchor="middle" x="408" y="-61" font-family="Helvetica,sans-Serif" font-size="10.00">cstring</text>
</a>
</g>
</g>
<!-- Node25&#45;&gt;Node27 -->
<g id="edge34_Node000025_Node000027" class="edge">
<title>Node25&#45;&gt;Node27</title>
<g id="a_edge34_Node000025_Node000027"><a xlink:title=" ">
<path fill="none" stroke="#63b8ff" d="M481.07,-110.09C467.67,-101.98 447.76,-89.93 432.1,-80.46"/>
<polygon fill="#63b8ff" stroke="#63b8ff" points="434.37,-77.14 424,-74.95 430.74,-83.12 434.37,-77.14"/>
</a>
</g>
</g>
<!-- Node28 -->
<g id="Node000028" class="node">
<title>Node28</title>
<g id="a_Node000028"><a xlink:title=" ">
<polygon fill="#e0e0e0" stroke="#999999" points="771.38,-19.25 712.62,-19.25 712.62,0 771.38,0 771.38,-19.25"/>
<text text-anchor="middle" x="742" y="-5.75" font-family="Helvetica,sans-Serif" font-size="10.00">stdexcept</text>
</a>
</g>
</g>
<!-- Node25&#45;&gt;Node28 -->
<g id="edge36_Node000025_Node000028" class="edge">
<title>Node25&#45;&gt;Node28</title>
<g id="a_edge36_Node000025_Node000028"><a xlink:title=" ">
<path fill="none" stroke="#63b8ff" d="M530.15,-112.65C534.14,-111.91 538.16,-111.18 542,-110.5 589.7,-102.04 725.7,-111.47 757,-74.5 767.78,-61.77 761.32,-42.7 753.81,-28.71"/>
<polygon fill="#63b8ff" stroke="#63b8ff" points="756.51,-27.4 748.39,-20.58 750.49,-30.97 756.51,-27.4"/>
</a>
</g>
</g>
<!-- Node29 -->
<g id="Node000029" class="node">
<title>Node29</title>
<g id="a_Node000029"><a xlink:title=" ">
<polygon fill="#e0e0e0" stroke="#999999" points="543.75,-74.5 448.25,-74.5 448.25,-55.25 543.75,-55.25 543.75,-74.5"/>
<text text-anchor="middle" x="496" y="-61" font-family="Helvetica,sans-Serif" font-size="10.00">boost/optional.hpp</text>
</a>
</g>
</g>
<!-- Node25&#45;&gt;Node29 -->
<g id="edge37_Node000025_Node000029" class="edge">
<title>Node25&#45;&gt;Node29</title>
<g id="a_edge37_Node000025_Node000029"><a xlink:title=" ">
<path fill="none" stroke="#63b8ff" d="M496,-110.33C496,-103.67 496,-94.24 496,-85.78"/>
<polygon fill="#63b8ff" stroke="#63b8ff" points="499.5,-85.86 496,-75.86 492.5,-85.86 499.5,-85.86"/>
</a>
</g>
</g>
<!-- Node30 -->
<g id="Node000030" class="node">
<title>Node30</title>
<g id="a_Node000030"><a xlink:title=" ">
<polygon fill="#e0e0e0" stroke="#999999" points="651.75,-74.5 562.25,-74.5 562.25,-55.25 651.75,-55.25 651.75,-74.5"/>
<text text-anchor="middle" x="607" y="-61" font-family="Helvetica,sans-Serif" font-size="10.00">boost/format.hpp</text>
</a>
</g>
</g>
<!-- Node25&#45;&gt;Node30 -->
<g id="edge38_Node000025_Node000030" class="edge">
<title>Node25&#45;&gt;Node30</title>
<g id="a_edge38_Node000025_Node000030"><a xlink:title=" ">
<path fill="none" stroke="#63b8ff" d="M514.83,-110.09C532.21,-101.75 558.28,-89.25 578.26,-79.66"/>
<polygon fill="#63b8ff" stroke="#63b8ff" points="579.58,-82.43 587.08,-74.95 576.55,-76.12 579.58,-82.43"/>
</a>
</g>
</g>
<!-- Node31 -->
<g id="Node000031" class="node">
<title>Node31</title>
<g id="a_Node000031"><a xlink:href="../../db/d53/semver_8h.html" target="_top" xlink:title=" ">
<polygon fill="white" stroke="#666666" points="367.5,-74.5 276.5,-74.5 276.5,-55.25 367.5,-55.25 367.5,-74.5"/>
<text text-anchor="middle" x="322" y="-61" font-family="Helvetica,sans-Serif" font-size="10.00">semver/semver.h</text>
</a>
</g>
</g>
<!-- Node25&#45;&gt;Node31 -->
<g id="edge39_Node000025_Node000031" class="edge">
<title>Node25&#45;&gt;Node31</title>
<g id="a_edge39_Node000025_Node000031"><a xlink:title=" ">
<path fill="none" stroke="#63b8ff" d="M466.48,-110.09C437.74,-101.29 393.83,-87.86 361.97,-78.11"/>
<polygon fill="#63b8ff" stroke="#63b8ff" points="363.25,-74.53 352.66,-74.95 361.2,-81.23 363.25,-74.53"/>
</a>
</g>
</g>
<!-- Node32 -->
<g id="Node000032" class="node">
<title>Node32</title>
<g id="a_Node000032"><a xlink:href="../../de/d75/_exception_8hpp.html" target="_top" xlink:title=" ">
<polygon fill="white" stroke="#666666" points="748.12,-74.5 669.88,-74.5 669.88,-55.25 748.12,-55.25 748.12,-74.5"/>
<text text-anchor="middle" x="709" y="-61" font-family="Helvetica,sans-Serif" font-size="10.00">Exception.hpp</text>
</a>
</g>
</g>
<!-- Node25&#45;&gt;Node32 -->
<g id="edge40_Node000025_Node000032" class="edge">
<title>Node25&#45;&gt;Node32</title>
<g id="a_edge40_Node000025_Node000032"><a xlink:title=" ">
<path fill="none" stroke="#63b8ff" d="M530.22,-110.57C565.99,-101.63 622.34,-87.54 662.2,-77.57"/>
<polygon fill="#63b8ff" stroke="#63b8ff" points="662.87,-80.76 671.72,-74.94 661.17,-73.97 662.87,-80.76"/>
</a>
</g>
</g>
<!-- Node32&#45;&gt;Node3 -->
<g id="edge42_Node000032_Node000003" class="edge">
<title>Node32&#45;&gt;Node3</title>
<g id="a_edge42_Node000032_Node000003"><a xlink:title=" ">
<path fill="none" stroke="#63b8ff" d="M669.48,-56.55C666.62,-56.09 663.77,-55.65 661,-55.25 519.67,-34.94 349.93,-19.36 280.25,-13.33"/>
<polygon fill="#63b8ff" stroke="#63b8ff" points="280.83,-9.78 270.56,-12.42 280.23,-16.76 280.83,-9.78"/>
</a>
</g>
</g>
<!-- Node32&#45;&gt;Node28 -->
<g id="edge41_Node000032_Node000028" class="edge">
<title>Node32&#45;&gt;Node28</title>
<g id="a_edge41_Node000032_Node000028"><a xlink:title=" ">
<path fill="none" stroke="#63b8ff" d="M714.45,-55.08C718.87,-47.96 725.24,-37.68 730.74,-28.8"/>
<polygon fill="#63b8ff" stroke="#63b8ff" points="734.14,-30.95 736.43,-20.61 728.19,-27.27 734.14,-30.95"/>
</a>
</g>
</g>
<!-- Node36&#45;&gt;Node21 -->
<g id="edge54_Node000036_Node000021" class="edge">
<title>Node36&#45;&gt;Node21</title>
<g id="a_edge54_Node000036_Node000021"><a xlink:title=" ">
<path fill="none" stroke="#63b8ff" d="M288.17,-165.34C305.94,-156.97 332.64,-144.38 353.02,-134.78"/>
<polygon fill="#63b8ff" stroke="#63b8ff" points="354.18,-137.63 361.74,-130.2 351.2,-131.3 354.18,-137.63"/>
</a>
</g>
</g>
<!-- Node36&#45;&gt;Node26 -->
<g id="edge51_Node000036_Node000026" class="edge">
<title>Node36&#45;&gt;Node26</title>
<g id="a_edge51_Node000036_Node000026"><a xlink:title=" ">
<path fill="none" stroke="#63b8ff" d="M224.19,-170.34C194.56,-165.38 156.91,-154.33 133,-129.75 121.52,-117.95 116.93,-99.53 115.12,-85.49"/>
<polygon fill="#63b8ff" stroke="#63b8ff" points="118.52,-85.22 114.14,-75.57 111.55,-85.84 118.52,-85.22"/>
</a>
</g>
</g>
<!-- Node37 -->
<g id="Node000037" class="node">
<title>Node37</title>
<g id="a_Node000037"><a xlink:title=" ">
<polygon fill="#e0e0e0" stroke="#999999" points="188.38,-129.75 141.62,-129.75 141.62,-110.5 188.38,-110.5 188.38,-129.75"/>
<text text-anchor="middle" x="165" y="-116.25" font-family="Helvetica,sans-Serif" font-size="10.00">clocale</text>
</a>
</g>
</g>
<!-- Node36&#45;&gt;Node37 -->
<g id="edge52_Node000036_Node000037" class="edge">
<title>Node36&#45;&gt;Node37</title>
<g id="a_edge52_Node000036_Node000037"><a xlink:title=" ">
<path fill="none" stroke="#63b8ff" d="M251.36,-165.34C235.22,-157.08 211.1,-144.73 192.44,-135.18"/>
<polygon fill="#63b8ff" stroke="#63b8ff" points="194.22,-131.64 183.73,-130.2 191.03,-137.88 194.22,-131.64"/>
</a>
</g>
</g>
<!-- Node38 -->
<g id="Node000038" class="node">
<title>Node38</title>
<g id="a_Node000038"><a xlink:title=" ">
<polygon fill="#e0e0e0" stroke="#999999" points="255.88,-129.75 206.12,-129.75 206.12,-110.5 255.88,-110.5 255.88,-129.75"/>
<text text-anchor="middle" x="231" y="-116.25" font-family="Helvetica,sans-Serif" font-size="10.00">iomanip</text>
</a>
</g>
</g>
<!-- Node36&#45;&gt;Node38 -->
<g id="edge53_Node000036_Node000038" class="edge">
<title>Node36&#45;&gt;Node38</title>
<g id="a_edge53_Node000036_Node000038"><a xlink:title=" ">
<path fill="none" stroke="#63b8ff" d="M262.73,-165.58C257.59,-158.38 250.15,-147.96 243.76,-139.01"/>
<polygon fill="#63b8ff" stroke="#63b8ff" points="246.07,-137.22 237.41,-131.11 240.37,-141.28 246.07,-137.22"/>
</a>
</g>
</g>
<!-- Node39 -->
<g id="Node000039" class="node">
<title>Node39</title>
<g id="a_Node000039"><a xlink:title=" ">
<polygon fill="#e0e0e0" stroke="#999999" points="339.75,-129.75 274.25,-129.75 274.25,-110.5 339.75,-110.5 339.75,-129.75"/>
<text text-anchor="middle" x="307" y="-116.25" font-family="Helvetica,sans-Serif" font-size="10.00">string_view</text>
</a>
</g>
</g>
<!-- Node36&#45;&gt;Node39 -->
<g id="edge55_Node000036_Node000039" class="edge">
<title>Node36&#45;&gt;Node39</title>
<g id="a_edge55_Node000036_Node000039"><a xlink:title=" ">
<path fill="none" stroke="#63b8ff" d="M275.27,-165.58C280.41,-158.38 287.85,-147.96 294.24,-139.01"/>
<polygon fill="#63b8ff" stroke="#63b8ff" points="297.63,-141.28 300.59,-131.11 291.93,-137.22 297.63,-141.28"/>
</a>
</g>
</g>
</g>
</svg>

<g id="navigator" transform="translate(0 0)" fill="#404254">
  <rect fill="#f2f5e9" fill-opacity="0.5" stroke="#606060" stroke-width=".5" x="0" y="0" width="60" height="60"/>
  <use id="zoomplus" xlink:href="#zoomPlus" x="17" y="9" onmousedown="handleZoom(evt,'in')"/>
  <use id="zoomminus" xlink:href="#zoomMin" x="42" y="9" onmousedown="handleZoom(evt,'out')"/>
  <use id="reset" xlink:href="#resetDef" x="30" y="36" onmousedown="handleReset()"/>
   <use id="arrowup" xlink:href="#arrowUp" x="0" y="0" onmousedown="handlePan(0,-1)"/>
  <use id="arrowright" xlink:href="#arrowRight" x="0" y="0" onmousedown="handlePan(1,0)"/>
  <use id="arrowdown" xlink:href="#arrowDown" x="0" y="0" onmousedown="handlePan(0,1)"/>
  <use id="arrowleft" xlink:href="#arrowLeft" x="0" y="0" onmousedown="handlePan(-1,0)"/>
</g>
<svg viewBox="0 0 15 15" width="100%" height="30px" preserveAspectRatio="xMaxYMin meet">
 <g id="arrow_out" transform="scale(0.3 0.3)">
  <a xlink:href="_indexed_mesh_8hpp__incl_org.svg" target="_base">
   <rect id="button" ry="5" rx="5" y="6" x="6" height="38" width="38"
        fill="#f2f5e9" fill-opacity="0.5" stroke="#606060" stroke-width="1.0"/>
   <path id="arrow"
     d="M 11.500037,31.436501 C 11.940474,20.09759 22.043105,11.32322 32.158766,21.979434 L 37.068811,17.246167 C 37.068811,17.246167 37.088388,32 37.088388,32 L 22.160133,31.978069 C 22.160133,31.978069 26.997745,27.140456 26.997745,27.140456 C 18.528582,18.264221 13.291696,25.230495 11.500037,31.436501 z"
     style="fill:#404040;"/>
  </a>
 </g>
</svg>

<style type='text/css'>
<![CDATA[
[data-mouse-over-selected='false'] { opacity: 0.7; }
[data-mouse-over-selected='true']  { opacity: 1.0; }
]]>
</style>
<script type="application/ecmascript"><![CDATA[
document.addEventListener('DOMContentLoaded', (event) => {
  highlightEdges();
  highlightAdjacentNodes();
});
]]></script>
</svg>
