<?xml version="1.0" encoding="UTF-8" standalone="no"?>
<!DOCTYPE svg PUBLIC "-//W3C//DTD SVG 1.1//EN"
 "http://www.w3.org/Graphics/SVG/1.1/DTD/svg11.dtd">
<!-- Generated by graphviz version 8.1.0 (20230707.0739)
 -->
<!-- Title: Slic3r::GUI::StatusPanel::error_info_reset Pages: 1 -->
<svg width="1111pt" height="195pt"
 viewBox="0.00 0.00 1110.75 194.50" xmlns="http://www.w3.org/2000/svg" xmlns:xlink="http://www.w3.org/1999/xlink">
<g id="graph0" class="graph" transform="scale(1 1) rotate(0) translate(4 190.5)">
<title>Slic3r::GUI::StatusPanel::error_info_reset</title>
<!-- Node1 -->
<g id="Node000001" class="node">
<title>Node1</title>
<g id="a_Node000001"><a xlink:title=" ">
<polygon fill="#999999" stroke="#666666" points="1102.75,-79.5 978.75,-79.5 978.75,-49 1102.75,-49 1102.75,-79.5"/>
<text text-anchor="start" x="986.75" y="-66" font-family="Helvetica,sans-Serif" font-size="10.00">Slic3r::GUI::StatusPanel</text>
<text text-anchor="middle" x="1040.75" y="-54.75" font-family="Helvetica,sans-Serif" font-size="10.00">::error_info_reset</text>
</a>
</g>
</g>
<!-- Node2 -->
<g id="Node000002" class="node">
<title>Node2</title>
<g id="a_Node000002"><a xlink:href="../../dc/dbb/class_slic3r_1_1_g_u_i_1_1_status_panel.html#a249bc5fde964b067eb1aceca8539bb39" target="_top" xlink:title=" ">
<polygon fill="white" stroke="#666666" points="942.75,-128.5 818.75,-128.5 818.75,-98 942.75,-98 942.75,-128.5"/>
<text text-anchor="start" x="826.75" y="-115" font-family="Helvetica,sans-Serif" font-size="10.00">Slic3r::GUI::StatusPanel</text>
<text text-anchor="middle" x="880.75" y="-103.75" font-family="Helvetica,sans-Serif" font-size="10.00">::on_print_error_clean</text>
</a>
</g>
</g>
<!-- Node1&#45;&gt;Node2 -->
<g id="edge1_Node000001_Node000002" class="edge">
<title>Node1&#45;&gt;Node2</title>
<g id="a_edge1_Node000001_Node000002"><a xlink:title=" ">
<path fill="none" stroke="#63b8ff" d="M978.9,-83.12C963.57,-87.87 947.28,-92.93 932.51,-97.51"/>
<polygon fill="#63b8ff" stroke="#63b8ff" points="979.81,-86.19 988.32,-79.89 977.74,-79.51 979.81,-86.19"/>
</a>
</g>
</g>
<!-- Node5 -->
<g id="Node000005" class="node">
<title>Node5</title>
<g id="a_Node000005"><a xlink:href="../../dc/dbb/class_slic3r_1_1_g_u_i_1_1_status_panel.html#a88ca68a50790e8e530ffe3d9e73c0fa3" target="_top" xlink:title=" ">
<polygon fill="white" stroke="#666666" points="942.75,-79.5 818.75,-79.5 818.75,-49 942.75,-49 942.75,-79.5"/>
<text text-anchor="start" x="826.75" y="-66" font-family="Helvetica,sans-Serif" font-size="10.00">Slic3r::GUI::StatusPanel</text>
<text text-anchor="middle" x="880.75" y="-54.75" font-family="Helvetica,sans-Serif" font-size="10.00">::set_default</text>
</a>
</g>
</g>
<!-- Node1&#45;&gt;Node5 -->
<g id="edge4_Node000001_Node000005" class="edge">
<title>Node1&#45;&gt;Node5</title>
<g id="a_edge4_Node000001_Node000005"><a xlink:title=" ">
<path fill="none" stroke="#63b8ff" d="M967.9,-64.25C959.65,-64.25 951.29,-64.25 943.2,-64.25"/>
<polygon fill="#63b8ff" stroke="#63b8ff" points="967.66,-67.75 977.66,-64.25 967.66,-60.75 967.66,-67.75"/>
</a>
</g>
</g>
<!-- Node14 -->
<g id="Node000014" class="node">
<title>Node14</title>
<g id="a_Node000014"><a xlink:href="../../dc/dbb/class_slic3r_1_1_g_u_i_1_1_status_panel.html#a7fc2fa47864c116e8f3f077f07114db5" target="_top" xlink:title=" ">
<polygon fill="white" stroke="#666666" points="942.75,-30.5 818.75,-30.5 818.75,0 942.75,0 942.75,-30.5"/>
<text text-anchor="start" x="826.75" y="-17" font-family="Helvetica,sans-Serif" font-size="10.00">Slic3r::GUI::StatusPanel</text>
<text text-anchor="middle" x="880.75" y="-5.75" font-family="Helvetica,sans-Serif" font-size="10.00">::show_error_message</text>
</a>
</g>
</g>
<!-- Node1&#45;&gt;Node14 -->
<g id="edge16_Node000001_Node000014" class="edge">
<title>Node1&#45;&gt;Node14</title>
<g id="a_edge16_Node000001_Node000014"><a xlink:title=" ">
<path fill="none" stroke="#63b8ff" d="M978.9,-45.38C963.57,-40.63 947.28,-35.57 932.51,-30.99"/>
<polygon fill="#63b8ff" stroke="#63b8ff" points="977.74,-48.99 988.32,-48.61 979.81,-42.31 977.74,-48.99"/>
</a>
</g>
</g>
<!-- Node3 -->
<g id="Node000003" class="node">
<title>Node3</title>
<g id="a_Node000003"><a xlink:href="../../dc/dbb/class_slic3r_1_1_g_u_i_1_1_status_panel.html#abec0b63d5ee2263a0a3b4549d63fb02c" target="_top" xlink:title=" ">
<polygon fill="white" stroke="#666666" points="780.88,-177.5 656.88,-177.5 656.88,-147 780.88,-147 780.88,-177.5"/>
<text text-anchor="start" x="664.88" y="-164" font-family="Helvetica,sans-Serif" font-size="10.00">Slic3r::GUI::StatusPanel</text>
<text text-anchor="middle" x="718.88" y="-152.75" font-family="Helvetica,sans-Serif" font-size="10.00">::StatusPanel</text>
</a>
</g>
</g>
<!-- Node2&#45;&gt;Node3 -->
<g id="edge2_Node000002_Node000003" class="edge">
<title>Node2&#45;&gt;Node3</title>
<g id="a_edge2_Node000002_Node000003"><a xlink:title=" ">
<path fill="none" stroke="#63b8ff" d="M818.62,-131.98C802.98,-136.78 786.33,-141.88 771.24,-146.51"/>
<polygon fill="#63b8ff" stroke="#63b8ff" points="819.19,-135.17 827.72,-128.89 817.14,-128.47 819.19,-135.17"/>
</a>
</g>
</g>
<!-- Node4 -->
<g id="Node000004" class="node">
<title>Node4</title>
<g id="a_Node000004"><a xlink:href="../../dc/dbb/class_slic3r_1_1_g_u_i_1_1_status_panel.html#a6e24ccd2bcefec49197bce3bd53aae7f" target="_top" xlink:title=" ">
<polygon fill="white" stroke="#666666" points="780.88,-128.5 656.88,-128.5 656.88,-98 780.88,-98 780.88,-128.5"/>
<text text-anchor="start" x="664.88" y="-115" font-family="Helvetica,sans-Serif" font-size="10.00">Slic3r::GUI::StatusPanel</text>
<text text-anchor="middle" x="718.88" y="-103.75" font-family="Helvetica,sans-Serif" font-size="10.00">::~StatusPanel</text>
</a>
</g>
</g>
<!-- Node2&#45;&gt;Node4 -->
<g id="edge3_Node000002_Node000004" class="edge">
<title>Node2&#45;&gt;Node4</title>
<g id="a_edge3_Node000002_Node000004"><a xlink:title=" ">
<path fill="none" stroke="#63b8ff" d="M807.44,-113.25C798.72,-113.25 789.88,-113.25 781.33,-113.25"/>
<polygon fill="#63b8ff" stroke="#63b8ff" points="807.4,-116.75 817.4,-113.25 807.4,-109.75 807.4,-116.75"/>
</a>
</g>
</g>
<!-- Node6 -->
<g id="Node000006" class="node">
<title>Node6</title>
<g id="a_Node000006"><a xlink:href="../../d4/d77/class_slic3r_1_1_g_u_i_1_1_monitor_panel.html#abd9abd367be2ab45fe8de2592a0dc8ec" target="_top" xlink:title=" ">
<polygon fill="white" stroke="#666666" points="782.75,-79.5 655,-79.5 655,-49 782.75,-49 782.75,-79.5"/>
<text text-anchor="start" x="663" y="-66" font-family="Helvetica,sans-Serif" font-size="10.00">Slic3r::GUI::MonitorPanel</text>
<text text-anchor="middle" x="718.88" y="-54.75" font-family="Helvetica,sans-Serif" font-size="10.00">::set_default</text>
</a>
</g>
</g>
<!-- Node5&#45;&gt;Node6 -->
<g id="edge5_Node000005_Node000006" class="edge">
<title>Node5&#45;&gt;Node6</title>
<g id="a_edge5_Node000005_Node000006"><a xlink:title=" ">
<path fill="none" stroke="#63b8ff" d="M807.45,-64.25C799.36,-64.25 791.15,-64.25 783.18,-64.25"/>
<polygon fill="#63b8ff" stroke="#63b8ff" points="807.4,-67.75 817.4,-64.25 807.4,-60.75 807.4,-67.75"/>
</a>
</g>
</g>
<!-- Node7 -->
<g id="Node000007" class="node">
<title>Node7</title>
<g id="a_Node000007"><a xlink:href="../../d4/d77/class_slic3r_1_1_g_u_i_1_1_monitor_panel.html#a4a4b54e8793dac1a3896d841720a181d" target="_top" xlink:title=" ">
<polygon fill="white" stroke="#666666" points="291.5,-67.5 163.75,-67.5 163.75,-37 291.5,-37 291.5,-67.5"/>
<text text-anchor="start" x="171.75" y="-54" font-family="Helvetica,sans-Serif" font-size="10.00">Slic3r::GUI::MonitorPanel</text>
<text text-anchor="middle" x="227.62" y="-42.75" font-family="Helvetica,sans-Serif" font-size="10.00">::on_select_printer</text>
</a>
</g>
</g>
<!-- Node6&#45;&gt;Node7 -->
<g id="edge6_Node000006_Node000007" class="edge">
<title>Node6&#45;&gt;Node7</title>
<g id="a_edge6_Node000006_Node000007"><a xlink:title=" ">
<path fill="none" stroke="#63b8ff" d="M643.88,-62.44C547.87,-60.08 381.97,-56.01 291.66,-53.8"/>
<polygon fill="#63b8ff" stroke="#63b8ff" points="643.58,-65.95 653.67,-62.7 643.75,-58.96 643.58,-65.95"/>
</a>
</g>
</g>
<!-- Node9 -->
<g id="Node000009" class="node">
<title>Node9</title>
<g id="a_Node000009"><a xlink:href="../../d4/d77/class_slic3r_1_1_g_u_i_1_1_monitor_panel.html#a6f227999bdc6c65f3658492e9798010a" target="_top" xlink:title=" ">
<polygon fill="white" stroke="#666666" points="619,-116.5 491.25,-116.5 491.25,-86 619,-86 619,-116.5"/>
<text text-anchor="start" x="499.25" y="-103" font-family="Helvetica,sans-Serif" font-size="10.00">Slic3r::GUI::MonitorPanel</text>
<text text-anchor="middle" x="555.12" y="-91.75" font-family="Helvetica,sans-Serif" font-size="10.00">::show_status</text>
</a>
</g>
</g>
<!-- Node6&#45;&gt;Node9 -->
<g id="edge8_Node000006_Node000009" class="edge">
<title>Node6&#45;&gt;Node9</title>
<g id="a_edge8_Node000006_Node000009"><a xlink:title=" ">
<path fill="none" stroke="#63b8ff" d="M644.42,-81.05C636.09,-82.96 627.66,-84.89 619.49,-86.76"/>
<polygon fill="#63b8ff" stroke="#63b8ff" points="644.91,-84.3 653.88,-78.66 643.35,-77.48 644.91,-84.3"/>
</a>
</g>
</g>
<!-- Node8 -->
<g id="Node000008" class="node">
<title>Node8</title>
<g id="a_Node000008"><a xlink:href="../../d4/d77/class_slic3r_1_1_g_u_i_1_1_monitor_panel.html#a13ffdb6797a54bb0643e430f242462ac" target="_top" xlink:title=" ">
<polygon fill="white" stroke="#666666" points="127.75,-165.5 0,-165.5 0,-135 127.75,-135 127.75,-165.5"/>
<text text-anchor="start" x="8" y="-152" font-family="Helvetica,sans-Serif" font-size="10.00">Slic3r::GUI::MonitorPanel</text>
<text text-anchor="middle" x="63.88" y="-140.75" font-family="Helvetica,sans-Serif" font-size="10.00">::MonitorPanel</text>
</a>
</g>
</g>
<!-- Node7&#45;&gt;Node8 -->
<g id="edge7_Node000007_Node000008" class="edge">
<title>Node7&#45;&gt;Node8</title>
<g id="a_edge7_Node000007_Node000008"><a xlink:title=" ">
<path fill="none" stroke="#63b8ff" d="M173.18,-72.38C169.94,-73.94 166.78,-75.57 163.75,-77.25 133.54,-94.04 101.97,-118.81 82.86,-134.74"/>
<polygon fill="#63b8ff" stroke="#63b8ff" points="174.35,-75.23 181.99,-67.9 171.44,-68.87 174.35,-75.23"/>
</a>
</g>
</g>
<!-- Node10 -->
<g id="Node000010" class="node">
<title>Node10</title>
<g id="a_Node000010"><a xlink:href="../../d4/d77/class_slic3r_1_1_g_u_i_1_1_monitor_panel.html#a1716b924686e014ca5383dec8805052e" target="_top" xlink:title=" ">
<polygon fill="white" stroke="#666666" points="455.25,-186.5 327.5,-186.5 327.5,-156 455.25,-156 455.25,-186.5"/>
<text text-anchor="start" x="335.5" y="-173" font-family="Helvetica,sans-Serif" font-size="10.00">Slic3r::GUI::MonitorPanel</text>
<text text-anchor="middle" x="391.38" y="-161.75" font-family="Helvetica,sans-Serif" font-size="10.00">::init_tabpanel</text>
</a>
</g>
</g>
<!-- Node9&#45;&gt;Node10 -->
<g id="edge9_Node000009_Node000010" class="edge">
<title>Node9&#45;&gt;Node10</title>
<g id="a_edge9_Node000009_Node000010"><a xlink:title=" ">
<path fill="none" stroke="#63b8ff" d="M507.77,-121.31C482.6,-132.2 451.94,-145.47 428.55,-155.59"/>
<polygon fill="#63b8ff" stroke="#63b8ff" points="509.04,-124.14 516.83,-116.96 506.26,-117.72 509.04,-124.14"/>
</a>
</g>
</g>
<!-- Node11 -->
<g id="Node000011" class="node">
<title>Node11</title>
<g id="a_Node000011"><a xlink:href="../../d4/d77/class_slic3r_1_1_g_u_i_1_1_monitor_panel.html#ac5857bac9c8c7b48dcb28e3c43319429" target="_top" xlink:title=" ">
<polygon fill="white" stroke="#666666" points="455.25,-116.5 327.5,-116.5 327.5,-86 455.25,-86 455.25,-116.5"/>
<text text-anchor="start" x="335.5" y="-103" font-family="Helvetica,sans-Serif" font-size="10.00">Slic3r::GUI::MonitorPanel</text>
<text text-anchor="middle" x="391.38" y="-91.75" font-family="Helvetica,sans-Serif" font-size="10.00">::update_all</text>
</a>
</g>
</g>
<!-- Node9&#45;&gt;Node11 -->
<g id="edge11_Node000009_Node000011" class="edge">
<title>Node9&#45;&gt;Node11</title>
<g id="a_edge11_Node000009_Node000011"><a xlink:title=" ">
<path fill="none" stroke="#63b8ff" d="M480.39,-101.25C472.15,-101.25 463.82,-101.25 455.74,-101.25"/>
<polygon fill="#63b8ff" stroke="#63b8ff" points="480.13,-104.75 490.13,-101.25 480.13,-97.75 480.13,-104.75"/>
</a>
</g>
</g>
<!-- Node10&#45;&gt;Node8 -->
<g id="edge10_Node000010_Node000008" class="edge">
<title>Node10&#45;&gt;Node8</title>
<g id="a_edge10_Node000010_Node000008"><a xlink:title=" ">
<path fill="none" stroke="#63b8ff" d="M316.42,-177.14C272.01,-179.46 214.46,-180.32 163.75,-174.25 149.28,-172.52 133.87,-169.41 119.62,-165.99"/>
<polygon fill="#63b8ff" stroke="#63b8ff" points="316.34,-180.6 326.13,-176.54 315.95,-173.61 316.34,-180.6"/>
</a>
</g>
</g>
<!-- Node11&#45;&gt;Node7 -->
<g id="edge12_Node000011_Node000007" class="edge">
<title>Node11&#45;&gt;Node7</title>
<g id="a_edge12_Node000011_Node000007"><a xlink:title=" ">
<path fill="none" stroke="#63b8ff" d="M328.53,-82.52C312.71,-77.72 295.86,-72.62 280.59,-67.99"/>
<polygon fill="#63b8ff" stroke="#63b8ff" points="327.17,-86.06 337.75,-85.61 329.2,-79.36 327.17,-86.06"/>
</a>
</g>
</g>
<!-- Node12 -->
<g id="Node000012" class="node">
<title>Node12</title>
<g id="a_Node000012"><a xlink:href="../../d4/d77/class_slic3r_1_1_g_u_i_1_1_monitor_panel.html#a9a3f829e5c74528bbed2aeb7dde9d7c8" target="_top" xlink:title=" ">
<polygon fill="white" stroke="#666666" points="291.5,-165.5 163.75,-165.5 163.75,-135 291.5,-135 291.5,-165.5"/>
<text text-anchor="start" x="171.75" y="-152" font-family="Helvetica,sans-Serif" font-size="10.00">Slic3r::GUI::MonitorPanel</text>
<text text-anchor="middle" x="227.62" y="-140.75" font-family="Helvetica,sans-Serif" font-size="10.00">::on_timer</text>
</a>
</g>
</g>
<!-- Node11&#45;&gt;Node12 -->
<g id="edge13_Node000011_Node000012" class="edge">
<title>Node11&#45;&gt;Node12</title>
<g id="a_edge13_Node000011_Node000012"><a xlink:title=" ">
<path fill="none" stroke="#63b8ff" d="M328.53,-119.98C312.71,-124.78 295.86,-129.88 280.59,-134.51"/>
<polygon fill="#63b8ff" stroke="#63b8ff" points="329.2,-123.14 337.75,-116.89 327.17,-116.44 329.2,-123.14"/>
</a>
</g>
</g>
<!-- Node13 -->
<g id="Node000013" class="node">
<title>Node13</title>
<g id="a_Node000013"><a xlink:href="../../d4/d77/class_slic3r_1_1_g_u_i_1_1_monitor_panel.html#ab8f0f8ec1e87a824d5ea56de7f5545f7" target="_top" xlink:title=" ">
<polygon fill="white" stroke="#666666" points="291.5,-116.5 163.75,-116.5 163.75,-86 291.5,-86 291.5,-116.5"/>
<text text-anchor="start" x="171.75" y="-103" font-family="Helvetica,sans-Serif" font-size="10.00">Slic3r::GUI::MonitorPanel</text>
<text text-anchor="middle" x="227.62" y="-91.75" font-family="Helvetica,sans-Serif" font-size="10.00">::on_update_all</text>
</a>
</g>
</g>
<!-- Node11&#45;&gt;Node13 -->
<g id="edge15_Node000011_Node000013" class="edge">
<title>Node11&#45;&gt;Node13</title>
<g id="a_edge15_Node000011_Node000013"><a xlink:title=" ">
<path fill="none" stroke="#63b8ff" d="M316.64,-101.25C308.4,-101.25 300.07,-101.25 291.99,-101.25"/>
<polygon fill="#63b8ff" stroke="#63b8ff" points="316.38,-104.75 326.38,-101.25 316.38,-97.75 316.38,-104.75"/>
</a>
</g>
</g>
<!-- Node12&#45;&gt;Node8 -->
<g id="edge14_Node000012_Node000008" class="edge">
<title>Node12&#45;&gt;Node8</title>
<g id="a_edge14_Node000012_Node000008"><a xlink:title=" ">
<path fill="none" stroke="#63b8ff" d="M152.89,-150.25C144.65,-150.25 136.32,-150.25 128.24,-150.25"/>
<polygon fill="#63b8ff" stroke="#63b8ff" points="152.63,-153.75 162.63,-150.25 152.63,-146.75 152.63,-153.75"/>
</a>
</g>
</g>
<!-- Node15 -->
<g id="Node000015" class="node">
<title>Node15</title>
<g id="a_Node000015"><a xlink:href="../../dc/dbb/class_slic3r_1_1_g_u_i_1_1_status_panel.html#aab63c45ff911cf218c96274281362ade" target="_top" xlink:title=" ">
<polygon fill="white" stroke="#666666" points="780.88,-30.5 656.88,-30.5 656.88,0 780.88,0 780.88,-30.5"/>
<text text-anchor="start" x="664.88" y="-17" font-family="Helvetica,sans-Serif" font-size="10.00">Slic3r::GUI::StatusPanel</text>
<text text-anchor="middle" x="718.88" y="-5.75" font-family="Helvetica,sans-Serif" font-size="10.00">::update_error_message</text>
</a>
</g>
</g>
<!-- Node14&#45;&gt;Node15 -->
<g id="edge17_Node000014_Node000015" class="edge">
<title>Node14&#45;&gt;Node15</title>
<g id="a_edge17_Node000014_Node000015"><a xlink:title=" ">
<path fill="none" stroke="#63b8ff" d="M807.44,-15.25C798.72,-15.25 789.88,-15.25 781.33,-15.25"/>
<polygon fill="#63b8ff" stroke="#63b8ff" points="807.4,-18.75 817.4,-15.25 807.4,-11.75 807.4,-18.75"/>
</a>
</g>
</g>
<!-- Node16 -->
<g id="Node000016" class="node">
<title>Node16</title>
<g id="a_Node000016"><a xlink:href="../../dc/dbb/class_slic3r_1_1_g_u_i_1_1_status_panel.html#a632623622b2983d0499e8cf47403dc85" target="_top" xlink:title=" ">
<polygon fill="white" stroke="#666666" points="617.12,-30.5 493.12,-30.5 493.12,0 617.12,0 617.12,-30.5"/>
<text text-anchor="start" x="501.12" y="-17" font-family="Helvetica,sans-Serif" font-size="10.00">Slic3r::GUI::StatusPanel</text>
<text text-anchor="middle" x="555.12" y="-5.75" font-family="Helvetica,sans-Serif" font-size="10.00">::update</text>
</a>
</g>
</g>
<!-- Node15&#45;&gt;Node16 -->
<g id="edge18_Node000015_Node000016" class="edge">
<title>Node15&#45;&gt;Node16</title>
<g id="a_edge18_Node000015_Node000016"><a xlink:title=" ">
<path fill="none" stroke="#63b8ff" d="M646.03,-15.25C636.46,-15.25 626.72,-15.25 617.36,-15.25"/>
<polygon fill="#63b8ff" stroke="#63b8ff" points="645.72,-18.75 655.72,-15.25 645.72,-11.75 645.72,-18.75"/>
</a>
</g>
</g>
<!-- Node16&#45;&gt;Node11 -->
<g id="edge19_Node000016_Node000011" class="edge">
<title>Node16&#45;&gt;Node11</title>
<g id="a_edge19_Node000016_Node000011"><a xlink:title=" ">
<path fill="none" stroke="#63b8ff" d="M515.14,-35.98C486.49,-51.21 448.16,-71.59 422,-85.5"/>
<polygon fill="#63b8ff" stroke="#63b8ff" points="516.65,-38.61 523.83,-30.82 513.36,-32.43 516.65,-38.61"/>
</a>
</g>
</g>
</g>
</svg>
