<?xml version="1.0" encoding="UTF-8" standalone="no"?>
<!DOCTYPE svg PUBLIC "-//W3C//DTD SVG 1.1//EN"
 "http://www.w3.org/Graphics/SVG/1.1/DTD/svg11.dtd">
<!-- Generated by graphviz version 8.1.0 (20230707.0739)
 -->
<!-- Title: src/slic3r/GUI/AuxiliaryDataViewModel.hpp Pages: 1 -->
<svg width="510pt" height="149pt"
 viewBox="0.00 0.00 510.25 149.00" xmlns="http://www.w3.org/2000/svg" xmlns:xlink="http://www.w3.org/1999/xlink">
<g id="graph0" class="graph" transform="scale(1 1) rotate(0) translate(4 145)">
<title>src/slic3r/GUI/AuxiliaryDataViewModel.hpp</title>
<!-- Node1 -->
<g id="Node000001" class="node">
<title>Node1</title>
<g id="a_Node000001"><a xlink:title=" ">
<polygon fill="#999999" stroke="#666666" points="329.38,-141 212.12,-141 212.12,-110.5 329.38,-110.5 329.38,-141"/>
<text text-anchor="start" x="220.12" y="-127.5" font-family="Helvetica,sans-Serif" font-size="10.00">src/slic3r/GUI/Auxiliary</text>
<text text-anchor="middle" x="270.75" y="-116.25" font-family="Helvetica,sans-Serif" font-size="10.00">DataViewModel.hpp</text>
</a>
</g>
</g>
<!-- Node2 -->
<g id="Node000002" class="node">
<title>Node2</title>
<g id="a_Node000002"><a xlink:title=" ">
<polygon fill="#e0e0e0" stroke="#999999" points="71.5,-74.5 0,-74.5 0,-55.25 71.5,-55.25 71.5,-74.5"/>
<text text-anchor="middle" x="35.75" y="-61" font-family="Helvetica,sans-Serif" font-size="10.00">wx/wxprec.h</text>
</a>
</g>
</g>
<!-- Node1&#45;&gt;Node2 -->
<g id="edge1_Node000001_Node000002" class="edge">
<title>Node1&#45;&gt;Node2</title>
<g id="a_edge1_Node000001_Node000002"><a xlink:title=" ">
<path fill="none" stroke="#63b8ff" d="M212.06,-110.05C171.97,-100 119.57,-86.87 82.34,-77.55"/>
<polygon fill="#63b8ff" stroke="#63b8ff" points="83.34,-73.94 72.79,-74.9 81.64,-80.73 83.34,-73.94"/>
</a>
</g>
</g>
<!-- Node3 -->
<g id="Node000003" class="node">
<title>Node3</title>
<g id="a_Node000003"><a xlink:title=" ">
<polygon fill="#e0e0e0" stroke="#999999" points="167.5,-74.5 90,-74.5 90,-55.25 167.5,-55.25 167.5,-74.5"/>
<text text-anchor="middle" x="128.75" y="-61" font-family="Helvetica,sans-Serif" font-size="10.00">wx/dataview.h</text>
</a>
</g>
</g>
<!-- Node1&#45;&gt;Node3 -->
<g id="edge2_Node000001_Node000003" class="edge">
<title>Node1&#45;&gt;Node3</title>
<g id="a_edge2_Node000001_Node000003"><a xlink:title=" ">
<path fill="none" stroke="#63b8ff" d="M235.28,-110.05C212.31,-100.52 182.64,-88.22 160.45,-79.02"/>
<polygon fill="#63b8ff" stroke="#63b8ff" points="162.1,-75.5 151.53,-74.9 159.42,-81.97 162.1,-75.5"/>
</a>
</g>
</g>
<!-- Node4 -->
<g id="Node000004" class="node">
<title>Node4</title>
<g id="a_Node000004"><a xlink:title=" ">
<polygon fill="#e0e0e0" stroke="#999999" points="265.62,-74.5 185.88,-74.5 185.88,-55.25 265.62,-55.25 265.62,-74.5"/>
<text text-anchor="middle" x="225.75" y="-61" font-family="Helvetica,sans-Serif" font-size="10.00">wx/hashmap.h</text>
</a>
</g>
</g>
<!-- Node1&#45;&gt;Node4 -->
<g id="edge3_Node000001_Node000004" class="edge">
<title>Node1&#45;&gt;Node4</title>
<g id="a_edge3_Node000001_Node000004"><a xlink:title=" ">
<path fill="none" stroke="#63b8ff" d="M259.63,-110.2C253.5,-102.18 245.85,-92.17 239.36,-83.69"/>
<polygon fill="#63b8ff" stroke="#63b8ff" points="241.54,-81.77 232.69,-75.95 235.98,-86.02 241.54,-81.77"/>
</a>
</g>
</g>
<!-- Node5 -->
<g id="Node000005" class="node">
<title>Node5</title>
<g id="a_Node000005"><a xlink:title=" ">
<polygon fill="#e0e0e0" stroke="#999999" points="349.88,-74.5 283.62,-74.5 283.62,-55.25 349.88,-55.25 349.88,-74.5"/>
<text text-anchor="middle" x="316.75" y="-61" font-family="Helvetica,sans-Serif" font-size="10.00">wx/vector.h</text>
</a>
</g>
</g>
<!-- Node1&#45;&gt;Node5 -->
<g id="edge4_Node000001_Node000005" class="edge">
<title>Node1&#45;&gt;Node5</title>
<g id="a_edge4_Node000001_Node000005"><a xlink:title=" ">
<path fill="none" stroke="#63b8ff" d="M282.12,-110.2C288.45,-102.09 296.38,-91.95 303.05,-83.41"/>
<polygon fill="#63b8ff" stroke="#63b8ff" points="306.26,-85.99 309.66,-75.95 300.74,-81.68 306.26,-85.99"/>
</a>
</g>
</g>
<!-- Node6 -->
<g id="Node000006" class="node">
<title>Node6</title>
<g id="a_Node000006"><a xlink:href="../../d4/d54/slic3r_2_g_u_i_2_i18_n_8hpp.html" target="_top" xlink:title=" ">
<polygon fill="white" stroke="#666666" points="423.62,-74.5 367.88,-74.5 367.88,-55.25 423.62,-55.25 423.62,-74.5"/>
<text text-anchor="middle" x="395.75" y="-61" font-family="Helvetica,sans-Serif" font-size="10.00">I18N.hpp</text>
</a>
</g>
</g>
<!-- Node1&#45;&gt;Node6 -->
<g id="edge5_Node000001_Node000006" class="edge">
<title>Node1&#45;&gt;Node6</title>
<g id="a_edge5_Node000001_Node000006"><a xlink:title=" ">
<path fill="none" stroke="#63b8ff" d="M301.97,-110.05C321.83,-100.69 347.37,-88.66 366.78,-79.52"/>
<polygon fill="#63b8ff" stroke="#63b8ff" points="368.02,-82.33 375.58,-74.9 365.04,-76 368.02,-82.33"/>
</a>
</g>
</g>
<!-- Node9 -->
<g id="Node000009" class="node">
<title>Node9</title>
<g id="a_Node000009"><a xlink:title=" ">
<polygon fill="#e0e0e0" stroke="#999999" points="502.25,-74.5 441.25,-74.5 441.25,-55.25 502.25,-55.25 502.25,-74.5"/>
<text text-anchor="middle" x="471.75" y="-61" font-family="Helvetica,sans-Serif" font-size="10.00">filesystem</text>
</a>
</g>
</g>
<!-- Node1&#45;&gt;Node9 -->
<g id="edge8_Node000001_Node000009" class="edge">
<title>Node1&#45;&gt;Node9</title>
<g id="a_edge8_Node000001_Node000009"><a xlink:title=" ">
<path fill="none" stroke="#63b8ff" d="M320.95,-110.05C354.8,-100.13 398.9,-87.21 430.66,-77.91"/>
<polygon fill="#63b8ff" stroke="#63b8ff" points="431.31,-81.07 439.92,-74.9 429.34,-74.36 431.31,-81.07"/>
</a>
</g>
</g>
<!-- Node7 -->
<g id="Node000007" class="node">
<title>Node7</title>
<g id="a_Node000007"><a xlink:title=" ">
<polygon fill="#e0e0e0" stroke="#999999" points="382.12,-19.25 329.38,-19.25 329.38,0 382.12,0 382.12,-19.25"/>
<text text-anchor="middle" x="355.75" y="-5.75" font-family="Helvetica,sans-Serif" font-size="10.00">wx/intl.h</text>
</a>
</g>
</g>
<!-- Node6&#45;&gt;Node7 -->
<g id="edge6_Node000006_Node000007" class="edge">
<title>Node6&#45;&gt;Node7</title>
<g id="a_edge6_Node000006_Node000007"><a xlink:title=" ">
<path fill="none" stroke="#63b8ff" d="M389.14,-55.08C383.68,-47.8 375.74,-37.23 368.97,-28.23"/>
<polygon fill="#63b8ff" stroke="#63b8ff" points="371.3,-26.5 362.5,-20.61 365.71,-30.71 371.3,-26.5"/>
</a>
</g>
</g>
<!-- Node8 -->
<g id="Node000008" class="node">
<title>Node8</title>
<g id="a_Node000008"><a xlink:title=" ">
<polygon fill="#e0e0e0" stroke="#999999" points="471.5,-19.25 400,-19.25 400,0 471.5,0 471.5,-19.25"/>
<text text-anchor="middle" x="435.75" y="-5.75" font-family="Helvetica,sans-Serif" font-size="10.00">wx/version.h</text>
</a>
</g>
</g>
<!-- Node6&#45;&gt;Node8 -->
<g id="edge7_Node000006_Node000008" class="edge">
<title>Node6&#45;&gt;Node8</title>
<g id="a_edge7_Node000006_Node000008"><a xlink:title=" ">
<path fill="none" stroke="#63b8ff" d="M402.36,-55.08C407.82,-47.8 415.76,-37.23 422.53,-28.23"/>
<polygon fill="#63b8ff" stroke="#63b8ff" points="425.79,-30.71 429,-20.61 420.2,-26.5 425.79,-30.71"/>
</a>
</g>
</g>
</g>
</svg>
