<?xml version="1.0" encoding="UTF-8" standalone="no"?>
<!DOCTYPE svg PUBLIC "-//W3C//DTD SVG 1.1//EN"
 "http://www.w3.org/Graphics/SVG/1.1/DTD/svg11.dtd">
<!-- Generated by graphviz version 8.1.0 (20230707.0739)
 -->
<!-- Title: Slic3r::GUI::MenuFactory::append_menu_item_locked Pages: 1 -->
<!--zoomable 546 -->

<svg id="main" version="1.1" xmlns="http://www.w3.org/2000/svg" xmlns:xlink="http://www.w3.org/1999/xlink" xml:space="preserve" onload="init(evt)">
<style type="text/css"><![CDATA[
.node, .edge {opacity: 0.7;}
.node.selected, .edge.selected {opacity: 1;}
.edge:hover path { stroke: red; }
.edge:hover polygon { stroke: red; fill: red; }
]]></style>

<defs>
  <circle id="rim" cx="0" cy="0" r="7"/>
  <circle id="rim2" cx="0" cy="0" r="3.5"/>
  <g id="zoomPlus">
    <use xlink:href="#rim" fill="#404040"><set attributeName="fill" to="#808080" begin="zoomplus.mouseover" end="zoomplus.mouseout"/></use>
    <path d="M-4,0h8M0,-4v8" fill="none" stroke="white" stroke-width="1.5" pointer-events="none"/>
  </g>
  <g id="zoomMin">
    <use xlink:href="#rim" fill="#404040"><set attributeName="fill" to="#808080" begin="zoomminus.mouseover" end="zoomminus.mouseout"/></use>
    <path d="M-4,0h8" fill="none" stroke="white" stroke-width="1.5" pointer-events="none"/>
  </g>
  <g id="arrowUp" transform="translate(30 24)">
    <use xlink:href="#rim"/>
    <path pointer-events="none" fill="none" stroke="white" stroke-width="1.5" d="M0,-3.0v7 M-2.5,-0.5L0,-3.0L2.5,-0.5"/>
  </g>
  <g id="arrowRight" transform="rotate(90) translate(36 -43)">
    <use xlink:href="#rim"/>
    <path pointer-events="none" fill="none" stroke="white" stroke-width="1.5" d="M0,-3.0v7 M-2.5,-0.5L0,-3.0L2.5,-0.5"/>
  </g>
  <g id="arrowDown" transform="rotate(180) translate(-30 -48)">
    <use xlink:href="#rim"/>
    <path pointer-events="none" fill="none" stroke="white" stroke-width="1.5" d="M0,-3.0v7 M-2.5,-0.5L0,-3.0L2.5,-0.5"/>
  </g>
  <g id="arrowLeft" transform="rotate(270) translate(-36 17)">
    <use xlink:href="#rim"/>
    <path pointer-events="none" fill="none" stroke="white" stroke-width="1.5" d="M0,-3.0v7 M-2.5,-0.5L0,-3.0L2.5,-0.5"/>
  </g>
  <g id="resetDef">
    <use xlink:href="#rim2" fill="#404040"><set attributeName="fill" to="#808080" begin="reset.mouseover" end="reset.mouseout"/></use>
  </g>
</defs>
<script type="application/ecmascript">
var viewWidth = 1124;
var viewHeight = 546;
var sectionId = 'dynsection-14';
</script>
<script type="application/ecmascript" xlink:href="../../svg.min.js"/>
<svg id="graph" class="graph">
<g id="viewport">
<title>Slic3r::GUI::MenuFactory::append_menu_item_locked</title>
<!-- Node1 -->
<g id="Node000001" class="node">
<title>Node1</title>
<g id="a_Node000001"><a xlink:title=" ">
<polygon fill="#999999" stroke="#666666" points="140.5,-270.46 0,-270.46 0,-239.96 140.5,-239.96 140.5,-270.46"/>
<text text-anchor="start" x="8" y="-256.96" font-family="Helvetica,sans-Serif" font-size="10.00">Slic3r::GUI::MenuFactory</text>
<text text-anchor="middle" x="70.25" y="-245.71" font-family="Helvetica,sans-Serif" font-size="10.00">::append_menu_item_locked</text>
</a>
</g>
</g>
<!-- Node2 -->
<g id="Node000002" class="node">
<title>Node2</title>
<g id="a_Node000002"><a xlink:href="../../d7/d58/wx_extensions_8cpp.html#a0a10d4f1ff530f330989d97e0218e49b" target="_top" xlink:title=" ">
<polygon fill="white" stroke="#666666" points="290.38,-405.83 189.62,-405.83 189.62,-386.58 290.38,-386.58 290.38,-405.83"/>
<text text-anchor="middle" x="240" y="-392.33" font-family="Helvetica,sans-Serif" font-size="10.00">append_menu_item</text>
</a>
</g>
</g>
<!-- Node1&#45;&gt;Node2 -->
<g id="edge1_Node000001_Node000002" class="edge">
<title>Node1&#45;&gt;Node2</title>
<g id="a_edge1_Node000001_Node000002"><a xlink:title=" ">
<path fill="none" stroke="#63b8ff" d="M80.51,-270.8C96.71,-296.73 132.66,-348.67 176.5,-377.21 179.08,-378.89 181.82,-380.43 184.66,-381.84"/>
<polygon fill="#63b8ff" stroke="#63b8ff" points="183,-385.36 193.56,-386.13 185.78,-378.94 183,-385.36"/>
</a>
</g>
</g>
<!-- Node24 -->
<g id="Node000024" class="node">
<title>Node24</title>
<g id="a_Node000024"><a xlink:href="../../d7/d21/class_slic3r_1_1_g_u_i_1_1_plater.html#a5d8e5ca13190e3f92448e39a65930226" target="_top" xlink:title=" ">
<polygon fill="white" stroke="#666666" points="288.12,-368.46 191.88,-368.46 191.88,-337.96 288.12,-337.96 288.12,-368.46"/>
<text text-anchor="start" x="199.88" y="-354.96" font-family="Helvetica,sans-Serif" font-size="10.00">Slic3r::GUI::Plater</text>
<text text-anchor="middle" x="240" y="-343.71" font-family="Helvetica,sans-Serif" font-size="10.00">::get_partplate_list</text>
</a>
</g>
</g>
<!-- Node1&#45;&gt;Node24 -->
<g id="edge26_Node000001_Node000024" class="edge">
<title>Node1&#45;&gt;Node24</title>
<g id="a_edge26_Node000001_Node000024"><a xlink:title=" ">
<path fill="none" stroke="#63b8ff" d="M90.95,-270.9C111.47,-286.75 144.97,-311.25 176.5,-328.21 179.59,-329.87 182.81,-331.48 186.09,-333.04"/>
<polygon fill="#63b8ff" stroke="#63b8ff" points="184.49,-336.61 195.05,-337.52 187.37,-330.23 184.49,-336.61"/>
</a>
</g>
</g>
<!-- Node25 -->
<g id="Node000025" class="node">
<title>Node25</title>
<g id="a_Node000025"><a xlink:href="../../d4/d7a/class_slic3r_1_1_g_u_i_1_1_part_plate_list.html#a9563933e83347c4ef5c87ce3450bcbe5" target="_top" xlink:title=" ">
<polygon fill="white" stroke="#666666" points="303.5,-319.46 176.5,-319.46 176.5,-288.96 303.5,-288.96 303.5,-319.46"/>
<text text-anchor="start" x="184.5" y="-305.96" font-family="Helvetica,sans-Serif" font-size="10.00">Slic3r::GUI::PartPlateList</text>
<text text-anchor="middle" x="240" y="-294.71" font-family="Helvetica,sans-Serif" font-size="10.00">::get_selected_plate</text>
</a>
</g>
</g>
<!-- Node1&#45;&gt;Node25 -->
<g id="edge27_Node000001_Node000025" class="edge">
<title>Node1&#45;&gt;Node25</title>
<g id="a_edge27_Node000001_Node000025"><a xlink:title=" ">
<path fill="none" stroke="#63b8ff" d="M124.79,-270.85C140.75,-275.51 158.4,-280.66 174.96,-285.5"/>
<polygon fill="#63b8ff" stroke="#63b8ff" points="173.53,-289.02 184.11,-288.46 175.49,-282.3 173.53,-289.02"/>
</a>
</g>
</g>
<!-- Node26 -->
<g id="Node000026" class="node">
<title>Node26</title>
<g id="a_Node000026"><a xlink:href="../../d7/ddf/class_slic3r_1_1_g_u_i_1_1_part_plate.html#a0a975e07e4e8fff89499d8cb22a8db64" target="_top" xlink:title=" ">
<polygon fill="white" stroke="#666666" points="295.62,-270.46 184.38,-270.46 184.38,-239.96 295.62,-239.96 295.62,-270.46"/>
<text text-anchor="start" x="192.38" y="-256.96" font-family="Helvetica,sans-Serif" font-size="10.00">Slic3r::GUI::PartPlate</text>
<text text-anchor="middle" x="240" y="-245.71" font-family="Helvetica,sans-Serif" font-size="10.00">::is_locked</text>
</a>
</g>
</g>
<!-- Node1&#45;&gt;Node26 -->
<g id="edge28_Node000001_Node000026" class="edge">
<title>Node1&#45;&gt;Node26</title>
<g id="a_edge28_Node000001_Node000026"><a xlink:title=" ">
<path fill="none" stroke="#63b8ff" d="M140.93,-255.21C151.62,-255.21 162.63,-255.21 173.23,-255.21"/>
<polygon fill="#63b8ff" stroke="#63b8ff" points="173.1,-258.71 183.1,-255.21 173.1,-251.71 173.1,-258.71"/>
</a>
</g>
</g>
<!-- Node27 -->
<g id="Node000027" class="node">
<title>Node27</title>
<g id="a_Node000027"><a xlink:href="../../d7/ddf/class_slic3r_1_1_g_u_i_1_1_part_plate.html#a1903f84b2ea0d0b226082454c568265f" target="_top" xlink:title=" ">
<polygon fill="white" stroke="#666666" points="295.62,-221.46 184.38,-221.46 184.38,-190.96 295.62,-190.96 295.62,-221.46"/>
<text text-anchor="start" x="192.38" y="-207.96" font-family="Helvetica,sans-Serif" font-size="10.00">Slic3r::GUI::PartPlate</text>
<text text-anchor="middle" x="240" y="-196.71" font-family="Helvetica,sans-Serif" font-size="10.00">::lock</text>
</a>
</g>
</g>
<!-- Node1&#45;&gt;Node27 -->
<g id="edge29_Node000001_Node000027" class="edge">
<title>Node1&#45;&gt;Node27</title>
<g id="a_edge29_Node000001_Node000027"><a xlink:title=" ">
<path fill="none" stroke="#63b8ff" d="M124.79,-239.57C140.75,-234.91 158.4,-229.75 174.96,-224.91"/>
<polygon fill="#63b8ff" stroke="#63b8ff" points="175.49,-228.11 184.11,-221.95 173.53,-221.39 175.49,-228.11"/>
</a>
</g>
</g>
<!-- Node28 -->
<g id="Node000028" class="node">
<title>Node28</title>
<g id="a_Node000028"><a xlink:href="../../d9/d45/namespace_slic3r_1_1_g_u_i.html#a40f49532eea1542b9be80eb93ed855eb" target="_top" xlink:title=" ">
<polygon fill="white" stroke="#666666" points="287.38,-172.83 192.62,-172.83 192.62,-153.58 287.38,-153.58 287.38,-172.83"/>
<text text-anchor="middle" x="240" y="-159.33" font-family="Helvetica,sans-Serif" font-size="10.00">Slic3r::GUI::plater</text>
</a>
</g>
</g>
<!-- Node1&#45;&gt;Node28 -->
<g id="edge30_Node000001_Node000028" class="edge">
<title>Node1&#45;&gt;Node28</title>
<g id="a_edge30_Node000001_Node000028"><a xlink:title=" ">
<path fill="none" stroke="#63b8ff" d="M89.91,-239.56C110.13,-223.27 143.87,-198 176.5,-182.21 180.52,-180.26 184.78,-178.46 189.12,-176.82"/>
<polygon fill="#63b8ff" stroke="#63b8ff" points="190.01,-179.86 198.28,-173.24 187.69,-173.26 190.01,-179.86"/>
</a>
</g>
</g>
<!-- Node29 -->
<g id="Node000029" class="node">
<title>Node29</title>
<g id="a_Node000029"><a xlink:href="../../d7/d21/class_slic3r_1_1_g_u_i_1_1_plater.html#a68630533766f37f68c215c8bff186a19" target="_top" xlink:title=" ">
<polygon fill="white" stroke="#666666" points="293.75,-135.08 186.25,-135.08 186.25,-93.33 293.75,-93.33 293.75,-135.08"/>
<text text-anchor="start" x="194.25" y="-121.58" font-family="Helvetica,sans-Serif" font-size="10.00">Slic3r::GUI::Plater</text>
<text text-anchor="start" x="194.25" y="-110.33" font-family="Helvetica,sans-Serif" font-size="10.00">::set_current_canvas</text>
<text text-anchor="middle" x="240" y="-99.08" font-family="Helvetica,sans-Serif" font-size="10.00">_as_dirty</text>
</a>
</g>
</g>
<!-- Node1&#45;&gt;Node29 -->
<g id="edge31_Node000001_Node000029" class="edge">
<title>Node1&#45;&gt;Node29</title>
<g id="a_edge31_Node000001_Node000029"><a xlink:title=" ">
<path fill="none" stroke="#63b8ff" d="M83.06,-239.5C101.12,-216.28 137.65,-172.52 176.5,-144.21 177.97,-143.13 179.49,-142.08 181.04,-141.06"/>
<polygon fill="#63b8ff" stroke="#63b8ff" points="182.51,-143.64 189.21,-135.44 178.85,-137.68 182.51,-143.64"/>
</a>
</g>
</g>
<!-- Node3 -->
<g id="Node000003" class="node">
<title>Node3</title>
<g id="a_Node000003"><a xlink:href="../../d7/d58/wx_extensions_8cpp.html#adc1152e886e9dcbb74955b5c0f023d5c" target="_top" xlink:title=" ">
<polygon fill="white" stroke="#666666" points="437.25,-405.83 339.5,-405.83 339.5,-386.58 437.25,-386.58 437.25,-405.83"/>
<text text-anchor="middle" x="388.38" y="-392.33" font-family="Helvetica,sans-Serif" font-size="10.00">enable_menu_item</text>
</a>
</g>
</g>
<!-- Node2&#45;&gt;Node3 -->
<g id="edge2_Node000002_Node000003" class="edge">
<title>Node2&#45;&gt;Node3</title>
<g id="a_edge2_Node000002_Node000003"><a xlink:title=" ">
<path fill="none" stroke="#63b8ff" d="M290.56,-396.21C302.74,-396.21 315.91,-396.21 328.49,-396.21"/>
<polygon fill="#63b8ff" stroke="#63b8ff" points="328.36,-399.71 338.36,-396.21 328.36,-392.71 328.36,-399.71"/>
</a>
</g>
</g>
<!-- Node4 -->
<g id="Node000004" class="node">
<title>Node4</title>
<g id="a_Node000004"><a xlink:href="../../d7/d58/wx_extensions_8cpp.html#a8c59db4968ff45d299802bf7babf5189" target="_top" xlink:title=" ">
<polygon fill="white" stroke="#666666" points="584.5,-405.83 473.25,-405.83 473.25,-386.58 584.5,-386.58 584.5,-405.83"/>
<text text-anchor="middle" x="528.88" y="-392.33" font-family="Helvetica,sans-Serif" font-size="10.00">create_scaled_bitmap</text>
</a>
</g>
</g>
<!-- Node3&#45;&gt;Node4 -->
<g id="edge3_Node000003_Node000004" class="edge">
<title>Node3&#45;&gt;Node4</title>
<g id="a_edge3_Node000003_Node000004"><a xlink:title=" ">
<path fill="none" stroke="#63b8ff" d="M437.43,-396.21C445.36,-396.21 453.7,-396.21 461.98,-396.21"/>
<polygon fill="#63b8ff" stroke="#63b8ff" points="461.78,-399.71 471.78,-396.21 461.78,-392.71 461.78,-399.71"/>
</a>
</g>
</g>
<!-- Node5 -->
<g id="Node000005" class="node">
<title>Node5</title>
<g id="a_Node000005"><a xlink:href="../../d9/d45/namespace_slic3r_1_1_g_u_i.html#a4efb22fa76b303e9999f4f121b015b0a" target="_top" xlink:title=" ">
<polygon fill="white" stroke="#666666" points="734,-504.46 637,-504.46 637,-473.96 734,-473.96 734,-504.46"/>
<text text-anchor="start" x="645" y="-490.96" font-family="Helvetica,sans-Serif" font-size="10.00">Slic3r::GUI::check</text>
<text text-anchor="middle" x="685.5" y="-479.71" font-family="Helvetica,sans-Serif" font-size="10.00">_dark_mode</text>
</a>
</g>
</g>
<!-- Node4&#45;&gt;Node5 -->
<g id="edge4_Node000004_Node000005" class="edge">
<title>Node4&#45;&gt;Node5</title>
<g id="a_edge4_Node000004_Node000005"><a xlink:title=" ">
<path fill="none" stroke="#63b8ff" d="M540.86,-406.29C557.2,-420.87 589.34,-447.99 620.5,-465.21 622.86,-466.51 625.31,-467.78 627.81,-468.99"/>
<polygon fill="#63b8ff" stroke="#63b8ff" points="626.09,-472.51 636.64,-473.46 628.98,-466.14 626.09,-472.51"/>
</a>
</g>
</g>
<!-- Node6 -->
<g id="Node000006" class="node">
<title>Node6</title>
<g id="a_Node000006"><a xlink:href="../../d7/d58/wx_extensions_8cpp.html#a1ee9ba171a3fbe7352176a4315fee795" target="_top" xlink:title=" ">
<polygon fill="white" stroke="#666666" points="710.75,-455.83 660.25,-455.83 660.25,-436.58 710.75,-436.58 710.75,-455.83"/>
<text text-anchor="middle" x="685.5" y="-442.33" font-family="Helvetica,sans-Serif" font-size="10.00">em_unit</text>
</a>
</g>
</g>
<!-- Node4&#45;&gt;Node6 -->
<g id="edge5_Node000004_Node000006" class="edge">
<title>Node4&#45;&gt;Node6</title>
<g id="a_edge5_Node000004_Node000006"><a xlink:title=" ">
<path fill="none" stroke="#63b8ff" d="M561.17,-406.32C586.76,-414.6 622.94,-426.3 649.49,-434.89"/>
<polygon fill="#63b8ff" stroke="#63b8ff" points="648.27,-438.49 658.87,-438.24 650.43,-431.83 648.27,-438.49"/>
</a>
</g>
</g>
<!-- Node9 -->
<g id="Node000009" class="node">
<title>Node9</title>
<g id="a_Node000009"><a xlink:href="../../d8/d95/class_slic3r_1_1_g_u_i_1_1_bitmap_cache.html#afccfcaeca73039fe713aa0d4389b51e1" target="_top" xlink:title=" ">
<polygon fill="white" stroke="#666666" points="750.5,-390.46 620.5,-390.46 620.5,-359.96 750.5,-359.96 750.5,-390.46"/>
<text text-anchor="start" x="628.5" y="-376.96" font-family="Helvetica,sans-Serif" font-size="10.00">Slic3r::GUI::BitmapCache</text>
<text text-anchor="middle" x="685.5" y="-365.71" font-family="Helvetica,sans-Serif" font-size="10.00">::load_png</text>
</a>
</g>
</g>
<!-- Node4&#45;&gt;Node9 -->
<g id="edge8_Node000004_Node000009" class="edge">
<title>Node4&#45;&gt;Node9</title>
<g id="a_edge8_Node000004_Node000009"><a xlink:title=" ">
<path fill="none" stroke="#63b8ff" d="M584.83,-388.74C592.79,-387.66 601.11,-386.53 609.39,-385.41"/>
<polygon fill="#63b8ff" stroke="#63b8ff" points="609.78,-388.75 619.22,-383.94 608.84,-381.81 609.78,-388.75"/>
</a>
</g>
</g>
<!-- Node15 -->
<g id="Node000015" class="node">
<title>Node15</title>
<g id="a_Node000015"><a xlink:href="../../d8/d95/class_slic3r_1_1_g_u_i_1_1_bitmap_cache.html#a6b71563805184d887c80c3889b7447a4" target="_top" xlink:title=" ">
<polygon fill="white" stroke="#666666" points="750.5,-179.46 620.5,-179.46 620.5,-148.96 750.5,-148.96 750.5,-179.46"/>
<text text-anchor="start" x="628.5" y="-165.96" font-family="Helvetica,sans-Serif" font-size="10.00">Slic3r::GUI::BitmapCache</text>
<text text-anchor="middle" x="685.5" y="-154.71" font-family="Helvetica,sans-Serif" font-size="10.00">::load_svg</text>
</a>
</g>
</g>
<!-- Node4&#45;&gt;Node15 -->
<g id="edge14_Node000004_Node000015" class="edge">
<title>Node4&#45;&gt;Node15</title>
<g id="a_edge14_Node000004_Node000015"><a xlink:title=" ">
<path fill="none" stroke="#63b8ff" d="M536.52,-386.24C559.27,-352.1 634.51,-239.22 668.08,-188.85"/>
<polygon fill="#63b8ff" stroke="#63b8ff" points="671.39,-191.19 674.02,-180.92 665.57,-187.31 671.39,-191.19"/>
</a>
</g>
</g>
<!-- Node7 -->
<g id="Node000007" class="node">
<title>Node7</title>
<g id="a_Node000007"><a xlink:href="../../d7/d9a/class_slic3r_1_1_g_u_i_1_1_d_p_i_aware.html#a10bf715638840dfd1312a054e64f8571" target="_top" xlink:title=" ">
<polygon fill="white" stroke="#666666" points="925.88,-489.46 810.12,-489.46 810.12,-458.96 925.88,-458.96 925.88,-489.46"/>
<text text-anchor="start" x="818.12" y="-475.96" font-family="Helvetica,sans-Serif" font-size="10.00">Slic3r::GUI::DPIAware</text>
<text text-anchor="middle" x="868" y="-464.71" font-family="Helvetica,sans-Serif" font-size="10.00">::em_unit</text>
</a>
</g>
</g>
<!-- Node6&#45;&gt;Node7 -->
<g id="edge6_Node000006_Node000007" class="edge">
<title>Node6&#45;&gt;Node7</title>
<g id="a_edge6_Node000006_Node000007"><a xlink:title=" ">
<path fill="none" stroke="#63b8ff" d="M711.22,-450.04C733.85,-453.55 768.4,-458.91 799.22,-463.69"/>
<polygon fill="#63b8ff" stroke="#63b8ff" points="798.52,-467.28 808.94,-465.36 799.6,-460.36 798.52,-467.28"/>
</a>
</g>
</g>
<!-- Node8 -->
<g id="Node000008" class="node">
<title>Node8</title>
<g id="a_Node000008"><a xlink:href="../../d9/d45/namespace_slic3r_1_1_g_u_i.html#a160756cff7bc7f94456fb6b61614f579" target="_top" xlink:title=" ">
<polygon fill="white" stroke="#666666" points="930.75,-538.46 805.25,-538.46 805.25,-507.96 930.75,-507.96 930.75,-538.46"/>
<text text-anchor="start" x="813.25" y="-524.96" font-family="Helvetica,sans-Serif" font-size="10.00">Slic3r::GUI::find_toplevel</text>
<text text-anchor="middle" x="868" y="-513.71" font-family="Helvetica,sans-Serif" font-size="10.00">_parent</text>
</a>
</g>
</g>
<!-- Node6&#45;&gt;Node8 -->
<g id="edge7_Node000006_Node000008" class="edge">
<title>Node6&#45;&gt;Node8</title>
<g id="a_edge7_Node000006_Node000008"><a xlink:title=" ">
<path fill="none" stroke="#63b8ff" d="M711.25,-450.79C723.58,-453.75 738.4,-458.35 750.5,-465.21 769.39,-475.9 767.68,-487.39 786.5,-498.21 789.71,-500.05 793.06,-501.77 796.51,-503.38"/>
<polygon fill="#63b8ff" stroke="#63b8ff" points="794.84,-506.9 805.41,-507.61 797.59,-500.46 794.84,-506.9"/>
</a>
</g>
</g>
<!-- Node10 -->
<g id="Node000010" class="node">
<title>Node10</title>
<g id="a_Node000010"><a xlink:href="../../d9/d45/namespace_slic3r_1_1_g_u_i.html#ac911e01665ff9c00414a1d5d0352de74" target="_top" xlink:title=" ">
<polygon fill="white" stroke="#666666" points="921,-384.83 815,-384.83 815,-365.58 921,-365.58 921,-384.83"/>
<text text-anchor="middle" x="868" y="-371.33" font-family="Helvetica,sans-Serif" font-size="10.00">Slic3r::GUI::from_u8</text>
</a>
</g>
</g>
<!-- Node9&#45;&gt;Node10 -->
<g id="edge9_Node000009_Node000010" class="edge">
<title>Node9&#45;&gt;Node10</title>
<g id="a_edge9_Node000009_Node000010"><a xlink:title=" ">
<path fill="none" stroke="#63b8ff" d="M750.9,-375.21C768.01,-375.21 786.47,-375.21 803.53,-375.21"/>
<polygon fill="#63b8ff" stroke="#63b8ff" points="803.51,-378.71 813.51,-375.21 803.51,-371.71 803.51,-378.71"/>
</a>
</g>
</g>
<!-- Node11 -->
<g id="Node000011" class="node">
<title>Node11</title>
<g id="a_Node000011"><a xlink:href="../../d8/d95/class_slic3r_1_1_g_u_i_1_1_bitmap_cache.html#ae66ad1f757a5b4970147434649eaf5ed" target="_top" xlink:title=" ">
<polygon fill="white" stroke="#666666" points="1115.5,-302.46 985.5,-302.46 985.5,-271.96 1115.5,-271.96 1115.5,-302.46"/>
<text text-anchor="start" x="993.5" y="-288.96" font-family="Helvetica,sans-Serif" font-size="10.00">Slic3r::GUI::BitmapCache</text>
<text text-anchor="middle" x="1050.5" y="-277.71" font-family="Helvetica,sans-Serif" font-size="10.00">::insert</text>
</a>
</g>
</g>
<!-- Node9&#45;&gt;Node11 -->
<g id="edge11_Node000009_Node000011" class="edge">
<title>Node9&#45;&gt;Node11</title>
<g id="a_edge11_Node000009_Node000011"><a xlink:title=" ">
<path fill="none" stroke="#63b8ff" d="M750.91,-362.88C804.39,-352.25 882.29,-335.87 949.5,-318.21 963.23,-314.6 977.89,-310.31 991.63,-306.08"/>
<polygon fill="#63b8ff" stroke="#63b8ff" points="992.42,-309.19 1000.93,-302.88 990.34,-302.51 992.42,-309.19"/>
</a>
</g>
</g>
<!-- Node12 -->
<g id="Node000012" class="node">
<title>Node12</title>
<g id="a_Node000012"><a xlink:href="../../de/db8/namespace_slic3r.html#a03e9f0fb364689f42c2ac979bf74a185" target="_top" xlink:title=" ">
<polygon fill="white" stroke="#666666" points="898.12,-308.83 837.88,-308.83 837.88,-289.58 898.12,-289.58 898.12,-308.83"/>
<text text-anchor="middle" x="868" y="-295.33" font-family="Helvetica,sans-Serif" font-size="10.00">Slic3r::var</text>
</a>
</g>
</g>
<!-- Node9&#45;&gt;Node12 -->
<g id="edge12_Node000009_Node000012" class="edge">
<title>Node9&#45;&gt;Node12</title>
<g id="a_edge12_Node000009_Node000012"><a xlink:title=" ">
<path fill="none" stroke="#63b8ff" d="M713.01,-359.66C732.79,-348.49 760.74,-333.63 786.5,-323.21 799.38,-317.99 813.83,-313.33 826.9,-309.54"/>
<polygon fill="#63b8ff" stroke="#63b8ff" points="827.8,-312.64 836.48,-306.56 825.9,-305.9 827.8,-312.64"/>
</a>
</g>
</g>
<!-- Node13 -->
<g id="Node000013" class="node">
<title>Node13</title>
<g id="a_Node000013"><a xlink:href="../../d9/d45/namespace_slic3r_1_1_g_u_i.html#a335817b838dadf09b1a98925a4fa5dab" target="_top" xlink:title=" ">
<polygon fill="#fff0f0" stroke="red" points="1115.5,-414.46 985.5,-414.46 985.5,-383.96 1115.5,-383.96 1115.5,-414.46"/>
<text text-anchor="start" x="993.5" y="-400.96" font-family="Helvetica,sans-Serif" font-size="10.00">Slic3r::GUI::wxImage</text>
<text text-anchor="middle" x="1050.5" y="-389.71" font-family="Helvetica,sans-Serif" font-size="10.00">_to_wxBitmap_with_alpha</text>
</a>
</g>
</g>
<!-- Node9&#45;&gt;Node13 -->
<g id="edge13_Node000009_Node000013" class="edge">
<title>Node9&#45;&gt;Node13</title>
<g id="a_edge13_Node000009_Node000013"><a xlink:title=" ">
<path fill="none" stroke="#63b8ff" d="M719.46,-390.77C738.57,-398.92 763.36,-408.06 786.5,-412.21 849.23,-423.44 921.62,-418.58 974.56,-411.83"/>
<polygon fill="#63b8ff" stroke="#63b8ff" points="974.76,-415.2 984.21,-410.41 973.84,-408.26 974.76,-415.2"/>
</a>
</g>
</g>
<!-- Node10&#45;&gt;Node10 -->
<g id="edge10_Node000010_Node000010" class="edge">
<title>Node10&#45;&gt;Node10</title>
<g id="a_edge10_Node000010_Node000010"><a xlink:title=" ">
<path fill="none" stroke="#63b8ff" d="M839.43,-385.12C826.4,-393.73 835.92,-402.83 868,-402.83 887.55,-402.83 898.72,-399.45 901.52,-394.86"/>
<polygon fill="#63b8ff" stroke="#63b8ff" points="904.22,-393.45 896.57,-386.12 897.98,-396.62 904.22,-393.45"/>
</a>
</g>
</g>
<!-- Node15&#45;&gt;Node12 -->
<g id="edge25_Node000015_Node000012" class="edge">
<title>Node15&#45;&gt;Node12</title>
<g id="a_edge25_Node000015_Node000012"><a xlink:title=" ">
<path fill="none" stroke="#63b8ff" d="M695.36,-179.73C710.59,-204.94 744.22,-254.54 786.5,-280.21 798.61,-287.56 813.33,-292.06 826.87,-294.83"/>
<polygon fill="#63b8ff" stroke="#63b8ff" points="825.93,-298.39 836.39,-296.69 827.15,-291.5 825.93,-298.39"/>
</a>
</g>
</g>
<!-- Node16 -->
<g id="Node000016" class="node">
<title>Node16</title>
<g id="a_Node000016"><a xlink:href="../../de/db8/namespace_slic3r.html#a95d4899dcbd269aa89e4943ed1eb7ae9" target="_top" xlink:title=" ">
<polygon fill="white" stroke="#666666" points="922.12,-222.46 813.88,-222.46 813.88,-191.96 922.12,-191.96 922.12,-222.46"/>
<text text-anchor="start" x="821.88" y="-208.96" font-family="Helvetica,sans-Serif" font-size="10.00">Slic3r::float_to_string</text>
<text text-anchor="middle" x="868" y="-197.71" font-family="Helvetica,sans-Serif" font-size="10.00">_decimal_point</text>
</a>
</g>
</g>
<!-- Node15&#45;&gt;Node16 -->
<g id="edge15_Node000015_Node000016" class="edge">
<title>Node15&#45;&gt;Node16</title>
<g id="a_edge15_Node000015_Node000016"><a xlink:title=" ">
<path fill="none" stroke="#63b8ff" d="M750.9,-179.55C767.92,-183.6 786.28,-187.98 803.26,-192.02"/>
<polygon fill="#63b8ff" stroke="#63b8ff" points="802.1,-195.58 812.64,-194.49 803.72,-188.77 802.1,-195.58"/>
</a>
</g>
</g>
<!-- Node17 -->
<g id="Node000017" class="node">
<title>Node17</title>
<g id="a_Node000017"><a xlink:href="../../d8/d95/class_slic3r_1_1_g_u_i_1_1_bitmap_cache.html#a6a62c163a6bab25fcb73d8726a5d3895" target="_top" xlink:title=" ">
<polygon fill="white" stroke="#666666" points="933,-271.46 803,-271.46 803,-240.96 933,-240.96 933,-271.46"/>
<text text-anchor="start" x="811" y="-257.96" font-family="Helvetica,sans-Serif" font-size="10.00">Slic3r::GUI::BitmapCache</text>
<text text-anchor="middle" x="868" y="-246.71" font-family="Helvetica,sans-Serif" font-size="10.00">::insert_raw_rgba</text>
</a>
</g>
</g>
<!-- Node15&#45;&gt;Node17 -->
<g id="edge16_Node000015_Node000017" class="edge">
<title>Node15&#45;&gt;Node17</title>
<g id="a_edge16_Node000015_Node000017"><a xlink:title=" ">
<path fill="none" stroke="#63b8ff" d="M706.15,-179.89C725.6,-194.79 756.71,-216.97 786.5,-231.21 790.59,-233.16 794.86,-235 799.22,-236.74"/>
<polygon fill="#63b8ff" stroke="#63b8ff" points="797.89,-240.36 808.48,-240.59 800.35,-233.8 797.89,-240.36"/>
</a>
</g>
</g>
<!-- Node18 -->
<g id="Node000018" class="node">
<title>Node18</title>
<g id="a_Node000018"><a xlink:href="../../d8/d23/nanosvgrast_8h.html#a39f1a90d36b9c773d57041c8cda0a88a" target="_top" xlink:title=" ">
<polygon fill="white" stroke="#666666" points="923.62,-173.83 812.38,-173.83 812.38,-154.58 923.62,-154.58 923.62,-173.83"/>
<text text-anchor="middle" x="868" y="-160.33" font-family="Helvetica,sans-Serif" font-size="10.00">nsvgCreateRasterizer</text>
</a>
</g>
</g>
<!-- Node15&#45;&gt;Node18 -->
<g id="edge19_Node000015_Node000018" class="edge">
<title>Node15&#45;&gt;Node18</title>
<g id="a_edge19_Node000015_Node000018"><a xlink:title=" ">
<path fill="none" stroke="#63b8ff" d="M750.9,-164.21C767.26,-164.21 784.86,-164.21 801.29,-164.21"/>
<polygon fill="#63b8ff" stroke="#63b8ff" points="800.89,-167.71 810.89,-164.21 800.89,-160.71 800.89,-167.71"/>
</a>
</g>
</g>
<!-- Node19 -->
<g id="Node000019" class="node">
<title>Node19</title>
<g id="a_Node000019"><a xlink:href="../../d4/d64/nanosvg_8h.html#ae474f7838b9272736a6945cdb73aad1f" target="_top" xlink:title=" ">
<polygon fill="white" stroke="#666666" points="1083.25,-35.83 1017.75,-35.83 1017.75,-16.58 1083.25,-16.58 1083.25,-35.83"/>
<text text-anchor="middle" x="1050.5" y="-22.33" font-family="Helvetica,sans-Serif" font-size="10.00">nsvgDelete</text>
</a>
</g>
</g>
<!-- Node15&#45;&gt;Node19 -->
<g id="edge20_Node000015_Node000019" class="edge">
<title>Node15&#45;&gt;Node19</title>
<g id="a_edge20_Node000015_Node000019"><a xlink:title=" ">
<path fill="none" stroke="#63b8ff" d="M691.97,-148.58C703.7,-117.82 734.51,-50.07 786.5,-23.21 856.71,13.07 952.2,-1.07 1006.69,-14.05"/>
<polygon fill="#63b8ff" stroke="#63b8ff" points="1005.8,-17.68 1016.35,-16.69 1007.49,-10.89 1005.8,-17.68"/>
</a>
</g>
</g>
<!-- Node20 -->
<g id="Node000020" class="node">
<title>Node20</title>
<g id="a_Node000020"><a xlink:href="../../d8/d23/nanosvgrast_8h.html#ae2ace40cfac53302ba8856d584872734" target="_top" xlink:title=" ">
<polygon fill="white" stroke="#666666" points="923.25,-136.83 812.75,-136.83 812.75,-117.58 923.25,-117.58 923.25,-136.83"/>
<text text-anchor="middle" x="868" y="-123.33" font-family="Helvetica,sans-Serif" font-size="10.00">nsvgDeleteRasterizer</text>
</a>
</g>
</g>
<!-- Node15&#45;&gt;Node20 -->
<g id="edge21_Node000015_Node000020" class="edge">
<title>Node15&#45;&gt;Node20</title>
<g id="a_edge21_Node000015_Node000020"><a xlink:title=" ">
<path fill="none" stroke="#63b8ff" d="M750.9,-151.01C769.18,-147.26 789,-143.19 807.01,-139.5"/>
<polygon fill="#63b8ff" stroke="#63b8ff" points="807.57,-142.76 816.67,-137.32 806.17,-135.9 807.57,-142.76"/>
</a>
</g>
</g>
<!-- Node21 -->
<g id="Node000021" class="node">
<title>Node21</title>
<g id="a_Node000021"><a xlink:href="../../d8/d95/class_slic3r_1_1_g_u_i_1_1_bitmap_cache.html#abccea8ea4722194ea6a72a5649238512" target="_top" xlink:title=" ">
<polygon fill="#fff0f0" stroke="red" points="949.5,-62.46 786.5,-62.46 786.5,-31.96 949.5,-31.96 949.5,-62.46"/>
<text text-anchor="start" x="794.5" y="-48.96" font-family="Helvetica,sans-Serif" font-size="10.00">Slic3r::GUI::BitmapCache</text>
<text text-anchor="middle" x="868" y="-37.71" font-family="Helvetica,sans-Serif" font-size="10.00">::nsvgParseFromFileWithReplace</text>
</a>
</g>
</g>
<!-- Node15&#45;&gt;Node21 -->
<g id="edge22_Node000015_Node000021" class="edge">
<title>Node15&#45;&gt;Node21</title>
<g id="a_edge22_Node000015_Node000021"><a xlink:title=" ">
<path fill="none" stroke="#63b8ff" d="M699.08,-148.7C716.59,-128.11 750.28,-91.92 786.5,-71.21 788.88,-69.84 791.35,-68.55 793.87,-67.33"/>
<polygon fill="#63b8ff" stroke="#63b8ff" points="795.11,-70.17 802.86,-62.94 792.29,-63.76 795.11,-70.17"/>
</a>
</g>
</g>
<!-- Node23 -->
<g id="Node000023" class="node">
<title>Node23</title>
<g id="a_Node000023"><a xlink:href="../../d8/d23/nanosvgrast_8h.html#a73d8a67a24e08c96ec8c2b823d8a29b2" target="_top" xlink:title=" ">
<polygon fill="white" stroke="#666666" points="907.5,-99.83 828.5,-99.83 828.5,-80.58 907.5,-80.58 907.5,-99.83"/>
<text text-anchor="middle" x="868" y="-86.33" font-family="Helvetica,sans-Serif" font-size="10.00">nsvgRasterize</text>
</a>
</g>
</g>
<!-- Node15&#45;&gt;Node23 -->
<g id="edge24_Node000015_Node000023" class="edge">
<title>Node15&#45;&gt;Node23</title>
<g id="a_edge24_Node000015_Node000023"><a xlink:title=" ">
<path fill="none" stroke="#63b8ff" d="M709.79,-148.59C729.47,-136.03 758.81,-118.8 786.5,-108.21 796.33,-104.45 807.15,-101.36 817.58,-98.88"/>
<polygon fill="#63b8ff" stroke="#63b8ff" points="818.25,-102.09 827.25,-96.5 816.73,-95.26 818.25,-102.09"/>
</a>
</g>
</g>
<!-- Node17&#45;&gt;Node11 -->
<g id="edge17_Node000017_Node000011" class="edge">
<title>Node17&#45;&gt;Node11</title>
<g id="a_edge17_Node000017_Node000011"><a xlink:title=" ">
<path fill="none" stroke="#63b8ff" d="M933.4,-267.27C946.66,-269.54 960.74,-271.96 974.34,-274.3"/>
<polygon fill="#63b8ff" stroke="#63b8ff" points="973.68,-277.91 984.12,-276.15 974.86,-271.01 973.68,-277.91"/>
</a>
</g>
</g>
<!-- Node17&#45;&gt;Node13 -->
<g id="edge18_Node000017_Node000013" class="edge">
<title>Node17&#45;&gt;Node13</title>
<g id="a_edge18_Node000017_Node000013"><a xlink:title=" ">
<path fill="none" stroke="#63b8ff" d="M933.39,-271.61C939.04,-274.08 944.5,-276.93 949.5,-280.21 969.31,-293.21 1009.02,-344.4 1031.99,-375.25"/>
<polygon fill="#63b8ff" stroke="#63b8ff" points="1029.51,-376.77 1038.27,-382.73 1035.13,-372.61 1029.51,-376.77"/>
</a>
</g>
</g>
<!-- Node21&#45;&gt;Node19 -->
<g id="edge23_Node000021_Node000019" class="edge">
<title>Node21&#45;&gt;Node19</title>
<g id="a_edge23_Node000021_Node000019"><a xlink:title=" ">
<path fill="none" stroke="#63b8ff" d="M949.75,-37.81C969.46,-35.52 989.78,-33.15 1006.9,-31.16"/>
<polygon fill="#63b8ff" stroke="#63b8ff" points="1007.12,-34.54 1016.65,-29.91 1006.31,-27.59 1007.12,-34.54"/>
</a>
</g>
</g>
</g>
</svg>

<g id="navigator" transform="translate(0 0)" fill="#404254">
  <rect fill="#f2f5e9" fill-opacity="0.5" stroke="#606060" stroke-width=".5" x="0" y="0" width="60" height="60"/>
  <use id="zoomplus" xlink:href="#zoomPlus" x="17" y="9" onmousedown="handleZoom(evt,'in')"/>
  <use id="zoomminus" xlink:href="#zoomMin" x="42" y="9" onmousedown="handleZoom(evt,'out')"/>
  <use id="reset" xlink:href="#resetDef" x="30" y="36" onmousedown="handleReset()"/>
   <use id="arrowup" xlink:href="#arrowUp" x="0" y="0" onmousedown="handlePan(0,-1)"/>
  <use id="arrowright" xlink:href="#arrowRight" x="0" y="0" onmousedown="handlePan(1,0)"/>
  <use id="arrowdown" xlink:href="#arrowDown" x="0" y="0" onmousedown="handlePan(0,1)"/>
  <use id="arrowleft" xlink:href="#arrowLeft" x="0" y="0" onmousedown="handlePan(-1,0)"/>
</g>
<svg viewBox="0 0 15 15" width="100%" height="30px" preserveAspectRatio="xMaxYMin meet">
 <g id="arrow_out" transform="scale(0.3 0.3)">
  <a xlink:href="class_slic3r_1_1_g_u_i_1_1_menu_factory_a8bfbc11dac1d5f22bf785e8a025f56eb_cgraph_org.svg" target="_base">
   <rect id="button" ry="5" rx="5" y="6" x="6" height="38" width="38"
        fill="#f2f5e9" fill-opacity="0.5" stroke="#606060" stroke-width="1.0"/>
   <path id="arrow"
     d="M 11.500037,31.436501 C 11.940474,20.09759 22.043105,11.32322 32.158766,21.979434 L 37.068811,17.246167 C 37.068811,17.246167 37.088388,32 37.088388,32 L 22.160133,31.978069 C 22.160133,31.978069 26.997745,27.140456 26.997745,27.140456 C 18.528582,18.264221 13.291696,25.230495 11.500037,31.436501 z"
     style="fill:#404040;"/>
  </a>
 </g>
</svg>

<style type='text/css'>
<![CDATA[
[data-mouse-over-selected='false'] { opacity: 0.7; }
[data-mouse-over-selected='true']  { opacity: 1.0; }
]]>
</style>
<script type="application/ecmascript"><![CDATA[
document.addEventListener('DOMContentLoaded', (event) => {
  highlightEdges();
  highlightAdjacentNodes();
});
]]></script>
</svg>
