<?xml version="1.0" encoding="UTF-8" standalone="no"?>
<!DOCTYPE svg PUBLIC "-//W3C//DTD SVG 1.1//EN"
 "http://www.w3.org/Graphics/SVG/1.1/DTD/svg11.dtd">
<!-- Generated by graphviz version 8.1.0 (20230707.0739)
 -->
<!-- Title: Slic3r::GUI::MenuFactory::append_menu_item_edit_text Pages: 1 -->
<svg width="1163pt" height="546pt"
 viewBox="0.00 0.00 1163.25 546.46" xmlns="http://www.w3.org/2000/svg" xmlns:xlink="http://www.w3.org/1999/xlink">
<g id="graph0" class="graph" transform="scale(1 1) rotate(0) translate(4 542.46)">
<title>Slic3r::GUI::MenuFactory::append_menu_item_edit_text</title>
<!-- Node1 -->
<g id="Node000001" class="node">
<title>Node1</title>
<g id="a_Node000001"><a xlink:title=" ">
<polygon fill="#999999" stroke="#666666" points="149.5,-357.46 0,-357.46 0,-326.96 149.5,-326.96 149.5,-357.46"/>
<text text-anchor="start" x="8" y="-343.96" font-family="Helvetica,sans-Serif" font-size="10.00">Slic3r::GUI::MenuFactory</text>
<text text-anchor="middle" x="74.75" y="-332.71" font-family="Helvetica,sans-Serif" font-size="10.00">::append_menu_item_edit_text</text>
</a>
</g>
</g>
<!-- Node2 -->
<g id="Node000002" class="node">
<title>Node2</title>
<g id="a_Node000002"><a xlink:href="../../d7/d58/wx_extensions_8cpp.html#a0a10d4f1ff530f330989d97e0218e49b" target="_top" xlink:title=" ">
<polygon fill="white" stroke="#666666" points="286.25,-419.83 185.5,-419.83 185.5,-400.58 286.25,-400.58 286.25,-419.83"/>
<text text-anchor="middle" x="235.88" y="-406.33" font-family="Helvetica,sans-Serif" font-size="10.00">append_menu_item</text>
</a>
</g>
</g>
<!-- Node1&#45;&gt;Node2 -->
<g id="edge1_Node000001_Node000002" class="edge">
<title>Node1&#45;&gt;Node2</title>
<g id="a_edge1_Node000001_Node000002"><a xlink:title=" ">
<path fill="none" stroke="#63b8ff" d="M109.66,-357.9C131.25,-367.75 159.87,-380.56 185.5,-391.21 189.44,-392.84 193.58,-394.51 197.72,-396.15"/>
<polygon fill="#63b8ff" stroke="#63b8ff" points="196.28,-399.73 206.87,-400.11 198.82,-393.21 196.28,-399.73"/>
</a>
</g>
</g>
<!-- Node24 -->
<g id="Node000024" class="node">
<title>Node24</title>
<g id="a_Node000024"><a xlink:href="../../d7/d21/class_slic3r_1_1_g_u_i_1_1_plater.html#acd2e4347e8db9486a9f8977229b4e4d8" target="_top" xlink:title=" ">
<polygon fill="white" stroke="#666666" points="284,-382.46 187.75,-382.46 187.75,-351.96 284,-351.96 284,-382.46"/>
<text text-anchor="start" x="195.75" y="-368.96" font-family="Helvetica,sans-Serif" font-size="10.00">Slic3r::GUI::Plater</text>
<text text-anchor="middle" x="235.88" y="-357.71" font-family="Helvetica,sans-Serif" font-size="10.00">::can_edit_text</text>
</a>
</g>
</g>
<!-- Node1&#45;&gt;Node24 -->
<g id="edge26_Node000001_Node000024" class="edge">
<title>Node1&#45;&gt;Node24</title>
<g id="a_edge26_Node000001_Node000024"><a xlink:title=" ">
<path fill="none" stroke="#63b8ff" d="M149.72,-353.83C158.74,-355.24 167.85,-356.68 176.59,-358.05"/>
<polygon fill="#63b8ff" stroke="#63b8ff" points="176.01,-361.66 186.44,-359.75 177.1,-354.74 176.01,-361.66"/>
</a>
</g>
</g>
<!-- Node25 -->
<g id="Node000025" class="node">
<title>Node25</title>
<g id="a_Node000025"><a xlink:href="../../d7/d21/class_slic3r_1_1_g_u_i_1_1_plater.html#ac3b8c13d0d3e36c07b76bad2989b1119" target="_top" xlink:title=" ">
<polygon fill="white" stroke="#666666" points="284,-333.46 187.75,-333.46 187.75,-302.96 284,-302.96 284,-333.46"/>
<text text-anchor="start" x="195.75" y="-319.96" font-family="Helvetica,sans-Serif" font-size="10.00">Slic3r::GUI::Plater</text>
<text text-anchor="middle" x="235.88" y="-308.71" font-family="Helvetica,sans-Serif" font-size="10.00">::edit_text</text>
</a>
</g>
</g>
<!-- Node1&#45;&gt;Node25 -->
<g id="edge27_Node000001_Node000025" class="edge">
<title>Node1&#45;&gt;Node25</title>
<g id="a_edge27_Node000001_Node000025"><a xlink:title=" ">
<path fill="none" stroke="#63b8ff" d="M149.72,-331.05C158.74,-329.69 167.85,-328.32 176.59,-327"/>
<polygon fill="#63b8ff" stroke="#63b8ff" points="177.07,-330.31 186.44,-325.36 176.03,-323.39 177.07,-330.31"/>
</a>
</g>
</g>
<!-- Node31 -->
<g id="Node000031" class="node">
<title>Node31</title>
<g id="a_Node000031"><a xlink:href="../../d9/d45/namespace_slic3r_1_1_g_u_i.html#a40f49532eea1542b9be80eb93ed855eb" target="_top" xlink:title=" ">
<polygon fill="white" stroke="#666666" points="283.25,-284.83 188.5,-284.83 188.5,-265.58 283.25,-265.58 283.25,-284.83"/>
<text text-anchor="middle" x="235.88" y="-271.33" font-family="Helvetica,sans-Serif" font-size="10.00">Slic3r::GUI::plater</text>
</a>
</g>
</g>
<!-- Node1&#45;&gt;Node31 -->
<g id="edge33_Node000001_Node000031" class="edge">
<title>Node1&#45;&gt;Node31</title>
<g id="a_edge33_Node000001_Node000031"><a xlink:title=" ">
<path fill="none" stroke="#63b8ff" d="M110.18,-326.67C131.72,-317.07 160.11,-304.64 185.5,-294.21 189.61,-292.52 193.93,-290.79 198.23,-289.1"/>
<polygon fill="#63b8ff" stroke="#63b8ff" points="199.09,-292.13 207.14,-285.24 196.55,-285.61 199.09,-292.13"/>
</a>
</g>
</g>
<!-- Node3 -->
<g id="Node000003" class="node">
<title>Node3</title>
<g id="a_Node000003"><a xlink:href="../../d7/d58/wx_extensions_8cpp.html#adc1152e886e9dcbb74955b5c0f023d5c" target="_top" xlink:title=" ">
<polygon fill="white" stroke="#666666" points="448.5,-419.83 350.75,-419.83 350.75,-400.58 448.5,-400.58 448.5,-419.83"/>
<text text-anchor="middle" x="399.62" y="-406.33" font-family="Helvetica,sans-Serif" font-size="10.00">enable_menu_item</text>
</a>
</g>
</g>
<!-- Node2&#45;&gt;Node3 -->
<g id="edge2_Node000002_Node000003" class="edge">
<title>Node2&#45;&gt;Node3</title>
<g id="a_edge2_Node000002_Node000003"><a xlink:title=" ">
<path fill="none" stroke="#63b8ff" d="M286.73,-410.21C303.48,-410.21 322.34,-410.21 339.72,-410.21"/>
<polygon fill="#63b8ff" stroke="#63b8ff" points="339.33,-413.71 349.33,-410.21 339.33,-406.71 339.33,-413.71"/>
</a>
</g>
</g>
<!-- Node4 -->
<g id="Node000004" class="node">
<title>Node4</title>
<g id="a_Node000004"><a xlink:href="../../d7/d58/wx_extensions_8cpp.html#a8c59db4968ff45d299802bf7babf5189" target="_top" xlink:title=" ">
<polygon fill="white" stroke="#666666" points="624.25,-419.83 513,-419.83 513,-400.58 624.25,-400.58 624.25,-419.83"/>
<text text-anchor="middle" x="568.62" y="-406.33" font-family="Helvetica,sans-Serif" font-size="10.00">create_scaled_bitmap</text>
</a>
</g>
</g>
<!-- Node3&#45;&gt;Node4 -->
<g id="edge3_Node000003_Node000004" class="edge">
<title>Node3&#45;&gt;Node4</title>
<g id="a_edge3_Node000003_Node000004"><a xlink:title=" ">
<path fill="none" stroke="#63b8ff" d="M448.93,-410.21C465.44,-410.21 484.2,-410.21 501.86,-410.21"/>
<polygon fill="#63b8ff" stroke="#63b8ff" points="501.67,-413.71 511.67,-410.21 501.67,-406.71 501.67,-413.71"/>
</a>
</g>
</g>
<!-- Node5 -->
<g id="Node000005" class="node">
<title>Node5</title>
<g id="a_Node000005"><a xlink:href="../../d9/d45/namespace_slic3r_1_1_g_u_i.html#a4efb22fa76b303e9999f4f121b015b0a" target="_top" xlink:title=" ">
<polygon fill="white" stroke="#666666" points="773.75,-504.46 676.75,-504.46 676.75,-473.96 773.75,-473.96 773.75,-504.46"/>
<text text-anchor="start" x="684.75" y="-490.96" font-family="Helvetica,sans-Serif" font-size="10.00">Slic3r::GUI::check</text>
<text text-anchor="middle" x="725.25" y="-479.71" font-family="Helvetica,sans-Serif" font-size="10.00">_dark_mode</text>
</a>
</g>
</g>
<!-- Node4&#45;&gt;Node5 -->
<g id="edge4_Node000004_Node000005" class="edge">
<title>Node4&#45;&gt;Node5</title>
<g id="a_edge4_Node000004_Node000005"><a xlink:title=" ">
<path fill="none" stroke="#63b8ff" d="M584.22,-420.24C601.74,-432 632.27,-451.62 660.25,-465.21 663.15,-466.61 666.15,-467.99 669.2,-469.33"/>
<polygon fill="#63b8ff" stroke="#63b8ff" points="667.47,-472.82 678.04,-473.47 670.18,-466.37 667.47,-472.82"/>
</a>
</g>
</g>
<!-- Node6 -->
<g id="Node000006" class="node">
<title>Node6</title>
<g id="a_Node000006"><a xlink:href="../../d7/d58/wx_extensions_8cpp.html#a1ee9ba171a3fbe7352176a4315fee795" target="_top" xlink:title=" ">
<polygon fill="white" stroke="#666666" points="750.5,-455.83 700,-455.83 700,-436.58 750.5,-436.58 750.5,-455.83"/>
<text text-anchor="middle" x="725.25" y="-442.33" font-family="Helvetica,sans-Serif" font-size="10.00">em_unit</text>
</a>
</g>
</g>
<!-- Node4&#45;&gt;Node6 -->
<g id="edge5_Node000004_Node000006" class="edge">
<title>Node4&#45;&gt;Node6</title>
<g id="a_edge5_Node000004_Node000006"><a xlink:title=" ">
<path fill="none" stroke="#63b8ff" d="M613.11,-420.33C637.21,-425.94 666.78,-432.83 689.36,-438.08"/>
<polygon fill="#63b8ff" stroke="#63b8ff" points="688.29,-441.66 698.83,-440.52 689.88,-434.84 688.29,-441.66"/>
</a>
</g>
</g>
<!-- Node9 -->
<g id="Node000009" class="node">
<title>Node9</title>
<g id="a_Node000009"><a xlink:href="../../d8/d95/class_slic3r_1_1_g_u_i_1_1_bitmap_cache.html#afccfcaeca73039fe713aa0d4389b51e1" target="_top" xlink:title=" ">
<polygon fill="white" stroke="#666666" points="790.25,-390.46 660.25,-390.46 660.25,-359.96 790.25,-359.96 790.25,-390.46"/>
<text text-anchor="start" x="668.25" y="-376.96" font-family="Helvetica,sans-Serif" font-size="10.00">Slic3r::GUI::BitmapCache</text>
<text text-anchor="middle" x="725.25" y="-365.71" font-family="Helvetica,sans-Serif" font-size="10.00">::load_png</text>
</a>
</g>
</g>
<!-- Node4&#45;&gt;Node9 -->
<g id="edge8_Node000004_Node000009" class="edge">
<title>Node4&#45;&gt;Node9</title>
<g id="a_edge8_Node000004_Node000009"><a xlink:title=" ">
<path fill="none" stroke="#63b8ff" d="M614.35,-400.08C625.32,-397.6 637.36,-394.87 649.32,-392.17"/>
<polygon fill="#63b8ff" stroke="#63b8ff" points="649.81,-395.42 658.79,-389.8 648.26,-388.59 649.81,-395.42"/>
</a>
</g>
</g>
<!-- Node15 -->
<g id="Node000015" class="node">
<title>Node15</title>
<g id="a_Node000015"><a xlink:href="../../d8/d95/class_slic3r_1_1_g_u_i_1_1_bitmap_cache.html#a6b71563805184d887c80c3889b7447a4" target="_top" xlink:title=" ">
<polygon fill="white" stroke="#666666" points="790.25,-179.46 660.25,-179.46 660.25,-148.96 790.25,-148.96 790.25,-179.46"/>
<text text-anchor="start" x="668.25" y="-165.96" font-family="Helvetica,sans-Serif" font-size="10.00">Slic3r::GUI::BitmapCache</text>
<text text-anchor="middle" x="725.25" y="-154.71" font-family="Helvetica,sans-Serif" font-size="10.00">::load_svg</text>
</a>
</g>
</g>
<!-- Node4&#45;&gt;Node15 -->
<g id="edge14_Node000004_Node000015" class="edge">
<title>Node4&#45;&gt;Node15</title>
<g id="a_edge14_Node000004_Node000015"><a xlink:title=" ">
<path fill="none" stroke="#63b8ff" d="M575.88,-400.26C598.38,-364.46 675.63,-241.56 708.86,-188.7"/>
<polygon fill="#63b8ff" stroke="#63b8ff" points="712.17,-191.01 714.53,-180.68 706.24,-187.28 712.17,-191.01"/>
</a>
</g>
</g>
<!-- Node7 -->
<g id="Node000007" class="node">
<title>Node7</title>
<g id="a_Node000007"><a xlink:href="../../d7/d9a/class_slic3r_1_1_g_u_i_1_1_d_p_i_aware.html#a10bf715638840dfd1312a054e64f8571" target="_top" xlink:title=" ">
<polygon fill="white" stroke="#666666" points="965.62,-489.46 849.88,-489.46 849.88,-458.96 965.62,-458.96 965.62,-489.46"/>
<text text-anchor="start" x="857.88" y="-475.96" font-family="Helvetica,sans-Serif" font-size="10.00">Slic3r::GUI::DPIAware</text>
<text text-anchor="middle" x="907.75" y="-464.71" font-family="Helvetica,sans-Serif" font-size="10.00">::em_unit</text>
</a>
</g>
</g>
<!-- Node6&#45;&gt;Node7 -->
<g id="edge6_Node000006_Node000007" class="edge">
<title>Node6&#45;&gt;Node7</title>
<g id="a_edge6_Node000006_Node000007"><a xlink:title=" ">
<path fill="none" stroke="#63b8ff" d="M750.97,-450.04C773.6,-453.55 808.15,-458.91 838.97,-463.69"/>
<polygon fill="#63b8ff" stroke="#63b8ff" points="838.27,-467.28 848.69,-465.36 839.35,-460.36 838.27,-467.28"/>
</a>
</g>
</g>
<!-- Node8 -->
<g id="Node000008" class="node">
<title>Node8</title>
<g id="a_Node000008"><a xlink:href="../../d9/d45/namespace_slic3r_1_1_g_u_i.html#a160756cff7bc7f94456fb6b61614f579" target="_top" xlink:title=" ">
<polygon fill="white" stroke="#666666" points="970.5,-538.46 845,-538.46 845,-507.96 970.5,-507.96 970.5,-538.46"/>
<text text-anchor="start" x="853" y="-524.96" font-family="Helvetica,sans-Serif" font-size="10.00">Slic3r::GUI::find_toplevel</text>
<text text-anchor="middle" x="907.75" y="-513.71" font-family="Helvetica,sans-Serif" font-size="10.00">_parent</text>
</a>
</g>
</g>
<!-- Node6&#45;&gt;Node8 -->
<g id="edge7_Node000006_Node000008" class="edge">
<title>Node6&#45;&gt;Node8</title>
<g id="a_edge7_Node000006_Node000008"><a xlink:title=" ">
<path fill="none" stroke="#63b8ff" d="M751,-450.79C763.33,-453.75 778.15,-458.35 790.25,-465.21 809.14,-475.9 807.43,-487.39 826.25,-498.21 829.46,-500.05 832.81,-501.77 836.26,-503.38"/>
<polygon fill="#63b8ff" stroke="#63b8ff" points="834.59,-506.9 845.16,-507.61 837.34,-500.46 834.59,-506.9"/>
</a>
</g>
</g>
<!-- Node10 -->
<g id="Node000010" class="node">
<title>Node10</title>
<g id="a_Node000010"><a xlink:href="../../d9/d45/namespace_slic3r_1_1_g_u_i.html#ac911e01665ff9c00414a1d5d0352de74" target="_top" xlink:title=" ">
<polygon fill="white" stroke="#666666" points="960.75,-384.83 854.75,-384.83 854.75,-365.58 960.75,-365.58 960.75,-384.83"/>
<text text-anchor="middle" x="907.75" y="-371.33" font-family="Helvetica,sans-Serif" font-size="10.00">Slic3r::GUI::from_u8</text>
</a>
</g>
</g>
<!-- Node9&#45;&gt;Node10 -->
<g id="edge9_Node000009_Node000010" class="edge">
<title>Node9&#45;&gt;Node10</title>
<g id="a_edge9_Node000009_Node000010"><a xlink:title=" ">
<path fill="none" stroke="#63b8ff" d="M790.65,-375.21C807.76,-375.21 826.22,-375.21 843.28,-375.21"/>
<polygon fill="#63b8ff" stroke="#63b8ff" points="843.26,-378.71 853.26,-375.21 843.26,-371.71 843.26,-378.71"/>
</a>
</g>
</g>
<!-- Node11 -->
<g id="Node000011" class="node">
<title>Node11</title>
<g id="a_Node000011"><a xlink:href="../../d8/d95/class_slic3r_1_1_g_u_i_1_1_bitmap_cache.html#ae66ad1f757a5b4970147434649eaf5ed" target="_top" xlink:title=" ">
<polygon fill="white" stroke="#666666" points="1155.25,-302.46 1025.25,-302.46 1025.25,-271.96 1155.25,-271.96 1155.25,-302.46"/>
<text text-anchor="start" x="1033.25" y="-288.96" font-family="Helvetica,sans-Serif" font-size="10.00">Slic3r::GUI::BitmapCache</text>
<text text-anchor="middle" x="1090.25" y="-277.71" font-family="Helvetica,sans-Serif" font-size="10.00">::insert</text>
</a>
</g>
</g>
<!-- Node9&#45;&gt;Node11 -->
<g id="edge11_Node000009_Node000011" class="edge">
<title>Node9&#45;&gt;Node11</title>
<g id="a_edge11_Node000009_Node000011"><a xlink:title=" ">
<path fill="none" stroke="#63b8ff" d="M790.66,-362.88C844.14,-352.25 922.04,-335.87 989.25,-318.21 1002.98,-314.6 1017.64,-310.31 1031.38,-306.08"/>
<polygon fill="#63b8ff" stroke="#63b8ff" points="1032.17,-309.19 1040.68,-302.88 1030.09,-302.51 1032.17,-309.19"/>
</a>
</g>
</g>
<!-- Node12 -->
<g id="Node000012" class="node">
<title>Node12</title>
<g id="a_Node000012"><a xlink:href="../../de/db8/namespace_slic3r.html#a03e9f0fb364689f42c2ac979bf74a185" target="_top" xlink:title=" ">
<polygon fill="white" stroke="#666666" points="937.88,-308.83 877.62,-308.83 877.62,-289.58 937.88,-289.58 937.88,-308.83"/>
<text text-anchor="middle" x="907.75" y="-295.33" font-family="Helvetica,sans-Serif" font-size="10.00">Slic3r::var</text>
</a>
</g>
</g>
<!-- Node9&#45;&gt;Node12 -->
<g id="edge12_Node000009_Node000012" class="edge">
<title>Node9&#45;&gt;Node12</title>
<g id="a_edge12_Node000009_Node000012"><a xlink:title=" ">
<path fill="none" stroke="#63b8ff" d="M752.76,-359.66C772.54,-348.49 800.49,-333.63 826.25,-323.21 839.13,-317.99 853.58,-313.33 866.65,-309.54"/>
<polygon fill="#63b8ff" stroke="#63b8ff" points="867.55,-312.64 876.23,-306.56 865.65,-305.9 867.55,-312.64"/>
</a>
</g>
</g>
<!-- Node13 -->
<g id="Node000013" class="node">
<title>Node13</title>
<g id="a_Node000013"><a xlink:href="../../d9/d45/namespace_slic3r_1_1_g_u_i.html#a335817b838dadf09b1a98925a4fa5dab" target="_top" xlink:title=" ">
<polygon fill="#fff0f0" stroke="red" points="1155.25,-414.46 1025.25,-414.46 1025.25,-383.96 1155.25,-383.96 1155.25,-414.46"/>
<text text-anchor="start" x="1033.25" y="-400.96" font-family="Helvetica,sans-Serif" font-size="10.00">Slic3r::GUI::wxImage</text>
<text text-anchor="middle" x="1090.25" y="-389.71" font-family="Helvetica,sans-Serif" font-size="10.00">_to_wxBitmap_with_alpha</text>
</a>
</g>
</g>
<!-- Node9&#45;&gt;Node13 -->
<g id="edge13_Node000009_Node000013" class="edge">
<title>Node9&#45;&gt;Node13</title>
<g id="a_edge13_Node000009_Node000013"><a xlink:title=" ">
<path fill="none" stroke="#63b8ff" d="M759.21,-390.77C778.32,-398.92 803.11,-408.06 826.25,-412.21 888.98,-423.44 961.37,-418.58 1014.31,-411.83"/>
<polygon fill="#63b8ff" stroke="#63b8ff" points="1014.51,-415.2 1023.96,-410.41 1013.59,-408.26 1014.51,-415.2"/>
</a>
</g>
</g>
<!-- Node10&#45;&gt;Node10 -->
<g id="edge10_Node000010_Node000010" class="edge">
<title>Node10&#45;&gt;Node10</title>
<g id="a_edge10_Node000010_Node000010"><a xlink:title=" ">
<path fill="none" stroke="#63b8ff" d="M879.18,-385.12C866.15,-393.73 875.67,-402.83 907.75,-402.83 927.3,-402.83 938.47,-399.45 941.27,-394.86"/>
<polygon fill="#63b8ff" stroke="#63b8ff" points="943.97,-393.45 936.32,-386.12 937.73,-396.62 943.97,-393.45"/>
</a>
</g>
</g>
<!-- Node15&#45;&gt;Node12 -->
<g id="edge25_Node000015_Node000012" class="edge">
<title>Node15&#45;&gt;Node12</title>
<g id="a_edge25_Node000015_Node000012"><a xlink:title=" ">
<path fill="none" stroke="#63b8ff" d="M735.11,-179.73C750.34,-204.94 783.97,-254.54 826.25,-280.21 838.36,-287.56 853.08,-292.06 866.62,-294.83"/>
<polygon fill="#63b8ff" stroke="#63b8ff" points="865.68,-298.39 876.14,-296.69 866.9,-291.5 865.68,-298.39"/>
</a>
</g>
</g>
<!-- Node16 -->
<g id="Node000016" class="node">
<title>Node16</title>
<g id="a_Node000016"><a xlink:href="../../de/db8/namespace_slic3r.html#a95d4899dcbd269aa89e4943ed1eb7ae9" target="_top" xlink:title=" ">
<polygon fill="white" stroke="#666666" points="961.88,-222.46 853.62,-222.46 853.62,-191.96 961.88,-191.96 961.88,-222.46"/>
<text text-anchor="start" x="861.62" y="-208.96" font-family="Helvetica,sans-Serif" font-size="10.00">Slic3r::float_to_string</text>
<text text-anchor="middle" x="907.75" y="-197.71" font-family="Helvetica,sans-Serif" font-size="10.00">_decimal_point</text>
</a>
</g>
</g>
<!-- Node15&#45;&gt;Node16 -->
<g id="edge15_Node000015_Node000016" class="edge">
<title>Node15&#45;&gt;Node16</title>
<g id="a_edge15_Node000015_Node000016"><a xlink:title=" ">
<path fill="none" stroke="#63b8ff" d="M790.65,-179.55C807.67,-183.6 826.03,-187.98 843.01,-192.02"/>
<polygon fill="#63b8ff" stroke="#63b8ff" points="841.85,-195.58 852.39,-194.49 843.47,-188.77 841.85,-195.58"/>
</a>
</g>
</g>
<!-- Node17 -->
<g id="Node000017" class="node">
<title>Node17</title>
<g id="a_Node000017"><a xlink:href="../../d8/d95/class_slic3r_1_1_g_u_i_1_1_bitmap_cache.html#a6a62c163a6bab25fcb73d8726a5d3895" target="_top" xlink:title=" ">
<polygon fill="white" stroke="#666666" points="972.75,-271.46 842.75,-271.46 842.75,-240.96 972.75,-240.96 972.75,-271.46"/>
<text text-anchor="start" x="850.75" y="-257.96" font-family="Helvetica,sans-Serif" font-size="10.00">Slic3r::GUI::BitmapCache</text>
<text text-anchor="middle" x="907.75" y="-246.71" font-family="Helvetica,sans-Serif" font-size="10.00">::insert_raw_rgba</text>
</a>
</g>
</g>
<!-- Node15&#45;&gt;Node17 -->
<g id="edge16_Node000015_Node000017" class="edge">
<title>Node15&#45;&gt;Node17</title>
<g id="a_edge16_Node000015_Node000017"><a xlink:title=" ">
<path fill="none" stroke="#63b8ff" d="M745.9,-179.89C765.35,-194.79 796.46,-216.97 826.25,-231.21 830.34,-233.16 834.61,-235 838.97,-236.74"/>
<polygon fill="#63b8ff" stroke="#63b8ff" points="837.64,-240.36 848.23,-240.59 840.1,-233.8 837.64,-240.36"/>
</a>
</g>
</g>
<!-- Node18 -->
<g id="Node000018" class="node">
<title>Node18</title>
<g id="a_Node000018"><a xlink:href="../../d8/d23/nanosvgrast_8h.html#a39f1a90d36b9c773d57041c8cda0a88a" target="_top" xlink:title=" ">
<polygon fill="white" stroke="#666666" points="963.38,-173.83 852.12,-173.83 852.12,-154.58 963.38,-154.58 963.38,-173.83"/>
<text text-anchor="middle" x="907.75" y="-160.33" font-family="Helvetica,sans-Serif" font-size="10.00">nsvgCreateRasterizer</text>
</a>
</g>
</g>
<!-- Node15&#45;&gt;Node18 -->
<g id="edge19_Node000015_Node000018" class="edge">
<title>Node15&#45;&gt;Node18</title>
<g id="a_edge19_Node000015_Node000018"><a xlink:title=" ">
<path fill="none" stroke="#63b8ff" d="M790.65,-164.21C807.01,-164.21 824.61,-164.21 841.04,-164.21"/>
<polygon fill="#63b8ff" stroke="#63b8ff" points="840.64,-167.71 850.64,-164.21 840.64,-160.71 840.64,-167.71"/>
</a>
</g>
</g>
<!-- Node19 -->
<g id="Node000019" class="node">
<title>Node19</title>
<g id="a_Node000019"><a xlink:href="../../d4/d64/nanosvg_8h.html#ae474f7838b9272736a6945cdb73aad1f" target="_top" xlink:title=" ">
<polygon fill="white" stroke="#666666" points="1123,-35.83 1057.5,-35.83 1057.5,-16.58 1123,-16.58 1123,-35.83"/>
<text text-anchor="middle" x="1090.25" y="-22.33" font-family="Helvetica,sans-Serif" font-size="10.00">nsvgDelete</text>
</a>
</g>
</g>
<!-- Node15&#45;&gt;Node19 -->
<g id="edge20_Node000015_Node000019" class="edge">
<title>Node15&#45;&gt;Node19</title>
<g id="a_edge20_Node000015_Node000019"><a xlink:title=" ">
<path fill="none" stroke="#63b8ff" d="M731.72,-148.58C743.45,-117.82 774.26,-50.07 826.25,-23.21 896.46,13.07 991.95,-1.07 1046.44,-14.05"/>
<polygon fill="#63b8ff" stroke="#63b8ff" points="1045.55,-17.68 1056.1,-16.69 1047.24,-10.89 1045.55,-17.68"/>
</a>
</g>
</g>
<!-- Node20 -->
<g id="Node000020" class="node">
<title>Node20</title>
<g id="a_Node000020"><a xlink:href="../../d8/d23/nanosvgrast_8h.html#ae2ace40cfac53302ba8856d584872734" target="_top" xlink:title=" ">
<polygon fill="white" stroke="#666666" points="963,-136.83 852.5,-136.83 852.5,-117.58 963,-117.58 963,-136.83"/>
<text text-anchor="middle" x="907.75" y="-123.33" font-family="Helvetica,sans-Serif" font-size="10.00">nsvgDeleteRasterizer</text>
</a>
</g>
</g>
<!-- Node15&#45;&gt;Node20 -->
<g id="edge21_Node000015_Node000020" class="edge">
<title>Node15&#45;&gt;Node20</title>
<g id="a_edge21_Node000015_Node000020"><a xlink:title=" ">
<path fill="none" stroke="#63b8ff" d="M790.65,-151.01C808.93,-147.26 828.75,-143.19 846.76,-139.5"/>
<polygon fill="#63b8ff" stroke="#63b8ff" points="847.32,-142.76 856.42,-137.32 845.92,-135.9 847.32,-142.76"/>
</a>
</g>
</g>
<!-- Node21 -->
<g id="Node000021" class="node">
<title>Node21</title>
<g id="a_Node000021"><a xlink:href="../../d8/d95/class_slic3r_1_1_g_u_i_1_1_bitmap_cache.html#abccea8ea4722194ea6a72a5649238512" target="_top" xlink:title=" ">
<polygon fill="#fff0f0" stroke="red" points="989.25,-62.46 826.25,-62.46 826.25,-31.96 989.25,-31.96 989.25,-62.46"/>
<text text-anchor="start" x="834.25" y="-48.96" font-family="Helvetica,sans-Serif" font-size="10.00">Slic3r::GUI::BitmapCache</text>
<text text-anchor="middle" x="907.75" y="-37.71" font-family="Helvetica,sans-Serif" font-size="10.00">::nsvgParseFromFileWithReplace</text>
</a>
</g>
</g>
<!-- Node15&#45;&gt;Node21 -->
<g id="edge22_Node000015_Node000021" class="edge">
<title>Node15&#45;&gt;Node21</title>
<g id="a_edge22_Node000015_Node000021"><a xlink:title=" ">
<path fill="none" stroke="#63b8ff" d="M738.83,-148.7C756.34,-128.11 790.03,-91.92 826.25,-71.21 828.63,-69.84 831.1,-68.55 833.62,-67.33"/>
<polygon fill="#63b8ff" stroke="#63b8ff" points="834.86,-70.17 842.61,-62.94 832.04,-63.76 834.86,-70.17"/>
</a>
</g>
</g>
<!-- Node23 -->
<g id="Node000023" class="node">
<title>Node23</title>
<g id="a_Node000023"><a xlink:href="../../d8/d23/nanosvgrast_8h.html#a73d8a67a24e08c96ec8c2b823d8a29b2" target="_top" xlink:title=" ">
<polygon fill="white" stroke="#666666" points="947.25,-99.83 868.25,-99.83 868.25,-80.58 947.25,-80.58 947.25,-99.83"/>
<text text-anchor="middle" x="907.75" y="-86.33" font-family="Helvetica,sans-Serif" font-size="10.00">nsvgRasterize</text>
</a>
</g>
</g>
<!-- Node15&#45;&gt;Node23 -->
<g id="edge24_Node000015_Node000023" class="edge">
<title>Node15&#45;&gt;Node23</title>
<g id="a_edge24_Node000015_Node000023"><a xlink:title=" ">
<path fill="none" stroke="#63b8ff" d="M749.54,-148.59C769.22,-136.03 798.56,-118.8 826.25,-108.21 836.08,-104.45 846.9,-101.36 857.33,-98.88"/>
<polygon fill="#63b8ff" stroke="#63b8ff" points="858,-102.09 867,-96.5 856.48,-95.26 858,-102.09"/>
</a>
</g>
</g>
<!-- Node17&#45;&gt;Node11 -->
<g id="edge17_Node000017_Node000011" class="edge">
<title>Node17&#45;&gt;Node11</title>
<g id="a_edge17_Node000017_Node000011"><a xlink:title=" ">
<path fill="none" stroke="#63b8ff" d="M973.15,-267.27C986.41,-269.54 1000.49,-271.96 1014.09,-274.3"/>
<polygon fill="#63b8ff" stroke="#63b8ff" points="1013.43,-277.91 1023.87,-276.15 1014.61,-271.01 1013.43,-277.91"/>
</a>
</g>
</g>
<!-- Node17&#45;&gt;Node13 -->
<g id="edge18_Node000017_Node000013" class="edge">
<title>Node17&#45;&gt;Node13</title>
<g id="a_edge18_Node000017_Node000013"><a xlink:title=" ">
<path fill="none" stroke="#63b8ff" d="M973.14,-271.61C978.79,-274.08 984.25,-276.93 989.25,-280.21 1009.06,-293.21 1048.77,-344.4 1071.74,-375.25"/>
<polygon fill="#63b8ff" stroke="#63b8ff" points="1069.26,-376.77 1078.02,-382.73 1074.88,-372.61 1069.26,-376.77"/>
</a>
</g>
</g>
<!-- Node21&#45;&gt;Node19 -->
<g id="edge23_Node000021_Node000019" class="edge">
<title>Node21&#45;&gt;Node19</title>
<g id="a_edge23_Node000021_Node000019"><a xlink:title=" ">
<path fill="none" stroke="#63b8ff" d="M989.5,-37.81C1009.21,-35.52 1029.53,-33.15 1046.65,-31.16"/>
<polygon fill="#63b8ff" stroke="#63b8ff" points="1046.87,-34.54 1056.4,-29.91 1046.06,-27.59 1046.87,-34.54"/>
</a>
</g>
</g>
<!-- Node26 -->
<g id="Node000026" class="node">
<title>Node26</title>
<g id="a_Node000026"><a xlink:href="../../d0/d2b/class_slic3r_1_1_g_u_i_1_1_g_l_canvas3_d.html#adb4b06a1eb15aa5652d7453f80190329" target="_top" xlink:title=" ">
<polygon fill="white" stroke="#666666" points="464.62,-235.46 334.62,-235.46 334.62,-204.96 464.62,-204.96 464.62,-235.46"/>
<text text-anchor="start" x="342.62" y="-221.96" font-family="Helvetica,sans-Serif" font-size="10.00">Slic3r::GUI::GLCanvas3D</text>
<text text-anchor="middle" x="399.62" y="-210.71" font-family="Helvetica,sans-Serif" font-size="10.00">::get_gizmos_manager</text>
</a>
</g>
</g>
<!-- Node25&#45;&gt;Node26 -->
<g id="edge28_Node000025_Node000026" class="edge">
<title>Node25&#45;&gt;Node26</title>
<g id="a_edge28_Node000025_Node000026"><a xlink:title=" ">
<path fill="none" stroke="#63b8ff" d="M274.22,-302.52C278.47,-300.03 282.59,-297.26 286.25,-294.21 307.01,-276.91 300.36,-261.06 322.25,-245.21 324.35,-243.69 326.54,-242.26 328.81,-240.91"/>
<polygon fill="#63b8ff" stroke="#63b8ff" points="330.25,-243.59 337.47,-235.84 326.99,-237.39 330.25,-243.59"/>
</a>
</g>
</g>
<!-- Node27 -->
<g id="Node000027" class="node">
<title>Node27</title>
<g id="a_Node000027"><a xlink:href="../../d7/d21/class_slic3r_1_1_g_u_i_1_1_plater.html#ac6ae53b7588b27413c3d466e036e6254" target="_top" xlink:title=" ">
<polygon fill="white" stroke="#666666" points="461.25,-382.46 338,-382.46 338,-351.96 461.25,-351.96 461.25,-382.46"/>
<text text-anchor="start" x="346" y="-368.96" font-family="Helvetica,sans-Serif" font-size="10.00">Slic3r::GUI::Plater</text>
<text text-anchor="middle" x="399.62" y="-357.71" font-family="Helvetica,sans-Serif" font-size="10.00">::get_view3D_canvas3D</text>
</a>
</g>
</g>
<!-- Node25&#45;&gt;Node27 -->
<g id="edge29_Node000025_Node000027" class="edge">
<title>Node25&#45;&gt;Node27</title>
<g id="a_edge29_Node000025_Node000027"><a xlink:title=" ">
<path fill="none" stroke="#63b8ff" d="M284.09,-332.51C300.54,-337.49 319.25,-343.16 336.71,-348.45"/>
<polygon fill="#63b8ff" stroke="#63b8ff" points="335.23,-351.96 345.82,-351.51 337.26,-345.26 335.23,-351.96"/>
</a>
</g>
</g>
<!-- Node28 -->
<g id="Node000028" class="node">
<title>Node28</title>
<g id="a_Node000028"><a xlink:href="../../df/d0a/class_slic3r_1_1_g_u_i_1_1_g_l_gizmos_manager.html#a69c2c726ba76a5b17f527b73e013580e" target="_top" xlink:title=" ">
<polygon fill="white" stroke="#666666" points="477,-333.46 322.25,-333.46 322.25,-302.96 477,-302.96 477,-333.46"/>
<text text-anchor="start" x="330.25" y="-319.96" font-family="Helvetica,sans-Serif" font-size="10.00">Slic3r::GUI::GLGizmosManager</text>
<text text-anchor="middle" x="399.62" y="-308.71" font-family="Helvetica,sans-Serif" font-size="10.00">::open_gizmo</text>
</a>
</g>
</g>
<!-- Node25&#45;&gt;Node28 -->
<g id="edge30_Node000025_Node000028" class="edge">
<title>Node25&#45;&gt;Node28</title>
<g id="a_edge30_Node000025_Node000028"><a xlink:title=" ">
<path fill="none" stroke="#63b8ff" d="M284.09,-318.21C292.61,-318.21 301.72,-318.21 310.96,-318.21"/>
<polygon fill="#63b8ff" stroke="#63b8ff" points="310.83,-321.71 320.83,-318.21 310.83,-314.71 310.83,-321.71"/>
</a>
</g>
</g>
<!-- Node29 -->
<g id="Node000029" class="node">
<title>Node29</title>
<g id="a_Node000029"><a xlink:href="../../d7/d21/class_slic3r_1_1_g_u_i_1_1_plater.html#a7c4044c5cffe9c60ff8835a8b2e588f3" target="_top" xlink:title=" ">
<polygon fill="white" stroke="#666666" points="447.75,-284.46 351.5,-284.46 351.5,-253.96 447.75,-253.96 447.75,-284.46"/>
<text text-anchor="start" x="359.5" y="-270.96" font-family="Helvetica,sans-Serif" font-size="10.00">Slic3r::GUI::Plater</text>
<text text-anchor="middle" x="399.62" y="-259.71" font-family="Helvetica,sans-Serif" font-size="10.00">::update</text>
</a>
</g>
</g>
<!-- Node25&#45;&gt;Node29 -->
<g id="edge31_Node000025_Node000029" class="edge">
<title>Node25&#45;&gt;Node29</title>
<g id="a_edge31_Node000025_Node000029"><a xlink:title=" ">
<path fill="none" stroke="#63b8ff" d="M284.09,-303.9C301.79,-298.54 322.11,-292.39 340.67,-286.76"/>
<polygon fill="#63b8ff" stroke="#63b8ff" points="341.51,-289.86 350.07,-283.61 339.48,-283.16 341.51,-289.86"/>
</a>
</g>
</g>
<!-- Node30 -->
<g id="Node000030" class="node">
<title>Node30</title>
<g id="a_Node000030"><a xlink:href="../../d7/d21/class_slic3r_1_1_g_u_i_1_1_plater.html#ac164c20b53f1199636b0f9f9141eb9ab" target="_top" xlink:title=" ">
<polygon fill="white" stroke="#666666" points="616.75,-284.46 520.5,-284.46 520.5,-253.96 616.75,-253.96 616.75,-284.46"/>
<text text-anchor="start" x="528.5" y="-270.96" font-family="Helvetica,sans-Serif" font-size="10.00">Slic3r::GUI::Plater</text>
<text text-anchor="middle" x="568.62" y="-259.71" font-family="Helvetica,sans-Serif" font-size="10.00">::need_update</text>
</a>
</g>
</g>
<!-- Node29&#45;&gt;Node30 -->
<g id="edge32_Node000029_Node000030" class="edge">
<title>Node29&#45;&gt;Node30</title>
<g id="a_edge32_Node000029_Node000030"><a xlink:title=" ">
<path fill="none" stroke="#63b8ff" d="M448.03,-269.21C467.07,-269.21 489.21,-269.21 509.23,-269.21"/>
<polygon fill="#63b8ff" stroke="#63b8ff" points="509.1,-272.71 519.1,-269.21 509.1,-265.71 509.1,-272.71"/>
</a>
</g>
</g>
</g>
</svg>
