<?xml version="1.0" encoding="UTF-8" standalone="no"?>
<!DOCTYPE svg PUBLIC "-//W3C//DTD SVG 1.1//EN"
 "http://www.w3.org/Graphics/SVG/1.1/DTD/svg11.dtd">
<!-- Generated by graphviz version 8.1.0 (20230707.0739)
 -->
<!-- Title: Slic3r::_BBS_3MF_Exporter::_add_object_to_model_stream Pages: 1 -->
<!--zoomable 206 -->

<svg id="main" version="1.1" xmlns="http://www.w3.org/2000/svg" xmlns:xlink="http://www.w3.org/1999/xlink" xml:space="preserve" onload="init(evt)">
<style type="text/css"><![CDATA[
.node, .edge {opacity: 0.7;}
.node.selected, .edge.selected {opacity: 1;}
.edge:hover path { stroke: red; }
.edge:hover polygon { stroke: red; fill: red; }
]]></style>

<defs>
  <circle id="rim" cx="0" cy="0" r="7"/>
  <circle id="rim2" cx="0" cy="0" r="3.5"/>
  <g id="zoomPlus">
    <use xlink:href="#rim" fill="#404040"><set attributeName="fill" to="#808080" begin="zoomplus.mouseover" end="zoomplus.mouseout"/></use>
    <path d="M-4,0h8M0,-4v8" fill="none" stroke="white" stroke-width="1.5" pointer-events="none"/>
  </g>
  <g id="zoomMin">
    <use xlink:href="#rim" fill="#404040"><set attributeName="fill" to="#808080" begin="zoomminus.mouseover" end="zoomminus.mouseout"/></use>
    <path d="M-4,0h8" fill="none" stroke="white" stroke-width="1.5" pointer-events="none"/>
  </g>
  <g id="arrowUp" transform="translate(30 24)">
    <use xlink:href="#rim"/>
    <path pointer-events="none" fill="none" stroke="white" stroke-width="1.5" d="M0,-3.0v7 M-2.5,-0.5L0,-3.0L2.5,-0.5"/>
  </g>
  <g id="arrowRight" transform="rotate(90) translate(36 -43)">
    <use xlink:href="#rim"/>
    <path pointer-events="none" fill="none" stroke="white" stroke-width="1.5" d="M0,-3.0v7 M-2.5,-0.5L0,-3.0L2.5,-0.5"/>
  </g>
  <g id="arrowDown" transform="rotate(180) translate(-30 -48)">
    <use xlink:href="#rim"/>
    <path pointer-events="none" fill="none" stroke="white" stroke-width="1.5" d="M0,-3.0v7 M-2.5,-0.5L0,-3.0L2.5,-0.5"/>
  </g>
  <g id="arrowLeft" transform="rotate(270) translate(-36 17)">
    <use xlink:href="#rim"/>
    <path pointer-events="none" fill="none" stroke="white" stroke-width="1.5" d="M0,-3.0v7 M-2.5,-0.5L0,-3.0L2.5,-0.5"/>
  </g>
  <g id="resetDef">
    <use xlink:href="#rim2" fill="#404040"><set attributeName="fill" to="#808080" begin="reset.mouseover" end="reset.mouseout"/></use>
  </g>
</defs>
<script type="application/ecmascript">
var viewWidth = 911;
var viewHeight = 206;
var sectionId = 'dynsection-16';
</script>
<script type="application/ecmascript" xlink:href="../../svg.min.js"/>
<svg id="graph" class="graph">
<g id="viewport">
<title>Slic3r::_BBS_3MF_Exporter::_add_object_to_model_stream</title>
<!-- Node1 -->
<g id="Node000001" class="node">
<title>Node1</title>
<g id="a_Node000001"><a xlink:title=" ">
<polygon fill="#999999" stroke="#666666" points="154.75,-129.5 0,-129.5 0,-99 154.75,-99 154.75,-129.5"/>
<text text-anchor="start" x="8" y="-116" font-family="Helvetica,sans-Serif" font-size="10.00">Slic3r::_BBS_3MF_Exporter</text>
<text text-anchor="middle" x="77.38" y="-104.75" font-family="Helvetica,sans-Serif" font-size="10.00">::_add_object_to_model_stream</text>
</a>
</g>
</g>
<!-- Node2 -->
<g id="Node000002" class="node">
<title>Node2</title>
<g id="a_Node000002"><a xlink:href="../../d6/df6/miniz_8c.html#ab89d8936d177baba8f06eac7b618a6dc" target="_top" xlink:title=" ">
<polygon fill="white" stroke="#666666" points="347,-123.88 190.75,-123.88 190.75,-104.62 347,-104.62 347,-123.88"/>
<text text-anchor="middle" x="268.88" y="-110.38" font-family="Helvetica,sans-Serif" font-size="10.00">mz_zip_writer_add_staged_data</text>
</a>
</g>
</g>
<!-- Node1&#45;&gt;Node2 -->
<g id="edge1_Node000001_Node000002" class="edge">
<title>Node1&#45;&gt;Node2</title>
<g id="a_edge1_Node000001_Node000002"><a xlink:title=" ">
<path fill="none" stroke="#63b8ff" d="M155.18,-114.25C163.15,-114.25 171.3,-114.25 179.38,-114.25"/>
<polygon fill="#63b8ff" stroke="#63b8ff" points="179.35,-117.75 189.35,-114.25 179.35,-110.75 179.35,-117.75"/>
</a>
</g>
</g>
<!-- Node3 -->
<g id="Node000003" class="node">
<title>Node3</title>
<g id="a_Node000003"><a xlink:href="../../d6/df6/miniz_8c.html#a8b7cb38252f297265f6b850ab4ae0f01" target="_top" xlink:title=" ">
<polygon fill="white" stroke="#666666" points="468.75,-160.88 410,-160.88 410,-141.62 468.75,-141.62 468.75,-160.88"/>
<text text-anchor="middle" x="439.38" y="-147.38" font-family="Helvetica,sans-Serif" font-size="10.00">mz_crc32</text>
</a>
</g>
</g>
<!-- Node2&#45;&gt;Node3 -->
<g id="edge2_Node000002_Node000003" class="edge">
<title>Node2&#45;&gt;Node3</title>
<g id="a_edge2_Node000002_Node000003"><a xlink:title=" ">
<path fill="none" stroke="#63b8ff" d="M315.92,-124.36C341.98,-130.08 374.22,-137.16 399.08,-142.62"/>
<polygon fill="#63b8ff" stroke="#63b8ff" points="398.07,-146.2 408.59,-144.93 399.57,-139.37 398.07,-146.2"/>
</a>
</g>
</g>
<!-- Node4 -->
<g id="Node000004" class="node">
<title>Node4</title>
<g id="a_Node000004"><a xlink:href="../../d6/df6/miniz_8c.html#a990e748a280a6903cbc02307320848c5" target="_top" xlink:title=" ">
<polygon fill="white" stroke="#666666" points="484.88,-123.88 393.88,-123.88 393.88,-104.62 484.88,-104.62 484.88,-123.88"/>
<text text-anchor="middle" x="439.38" y="-110.38" font-family="Helvetica,sans-Serif" font-size="10.00">mz_zip_set_error</text>
</a>
</g>
</g>
<!-- Node2&#45;&gt;Node4 -->
<g id="edge3_Node000002_Node000004" class="edge">
<title>Node2&#45;&gt;Node4</title>
<g id="a_edge3_Node000002_Node000004"><a xlink:title=" ">
<path fill="none" stroke="#63b8ff" d="M347.22,-114.25C359.28,-114.25 371.54,-114.25 382.98,-114.25"/>
<polygon fill="#63b8ff" stroke="#63b8ff" points="382.68,-117.75 392.68,-114.25 382.68,-110.75 382.68,-117.75"/>
</a>
</g>
</g>
<!-- Node5 -->
<g id="Node000005" class="node">
<title>Node5</title>
<g id="a_Node000005"><a xlink:href="../../d6/df6/miniz_8c.html#a5f2608070112b0e81a3017e9c39c73b7" target="_top" xlink:title=" ">
<polygon fill="white" stroke="#666666" points="495.75,-86.88 383,-86.88 383,-67.62 495.75,-67.62 495.75,-86.88"/>
<text text-anchor="middle" x="439.38" y="-73.38" font-family="Helvetica,sans-Serif" font-size="10.00">tdefl_compress_buffer</text>
</a>
</g>
</g>
<!-- Node2&#45;&gt;Node5 -->
<g id="edge4_Node000002_Node000005" class="edge">
<title>Node2&#45;&gt;Node5</title>
<g id="a_edge4_Node000002_Node000005"><a xlink:title=" ">
<path fill="none" stroke="#63b8ff" d="M315.92,-104.14C336.26,-99.67 360.37,-94.38 381.79,-89.68"/>
<polygon fill="#63b8ff" stroke="#63b8ff" points="382.37,-92.91 391.39,-87.35 380.87,-86.07 382.37,-92.91"/>
</a>
</g>
</g>
<!-- Node6 -->
<g id="Node000006" class="node">
<title>Node6</title>
<g id="a_Node000006"><a xlink:href="../../d6/df6/miniz_8c.html#ae9968978f7ea9f732c5ed08db988208b" target="_top" xlink:title=" ">
<polygon fill="white" stroke="#666666" points="614.5,-86.88 531.75,-86.88 531.75,-67.62 614.5,-67.62 614.5,-86.88"/>
<text text-anchor="middle" x="573.12" y="-73.38" font-family="Helvetica,sans-Serif" font-size="10.00">tdefl_compress</text>
</a>
</g>
</g>
<!-- Node5&#45;&gt;Node6 -->
<g id="edge5_Node000005_Node000006" class="edge">
<title>Node5&#45;&gt;Node6</title>
<g id="a_edge5_Node000005_Node000006"><a xlink:title=" ">
<path fill="none" stroke="#63b8ff" d="M496.25,-77.25C504.26,-77.25 512.47,-77.25 520.39,-77.25"/>
<polygon fill="#63b8ff" stroke="#63b8ff" points="520.35,-80.75 530.35,-77.25 520.35,-73.75 520.35,-80.75"/>
</a>
</g>
</g>
<!-- Node7 -->
<g id="Node000007" class="node">
<title>Node7</title>
<g id="a_Node000007"><a xlink:href="../../d6/df6/miniz_8c.html#a094d181afc4c98dc1864f6ce7d636258" target="_top" xlink:title=" ">
<polygon fill="white" stroke="#666666" points="742.25,-142.88 676,-142.88 676,-123.62 742.25,-123.62 742.25,-142.88"/>
<text text-anchor="middle" x="709.12" y="-129.38" font-family="Helvetica,sans-Serif" font-size="10.00">mz_adler32</text>
</a>
</g>
</g>
<!-- Node6&#45;&gt;Node7 -->
<g id="edge6_Node000006_Node000007" class="edge">
<title>Node6&#45;&gt;Node7</title>
<g id="a_edge6_Node000006_Node000007"><a xlink:title=" ">
<path fill="none" stroke="#63b8ff" d="M592.27,-87.3C607.51,-95.5 630.03,-107.02 650.5,-115.25 655.23,-117.15 660.25,-118.98 665.28,-120.7"/>
<polygon fill="#63b8ff" stroke="#63b8ff" points="663.91,-124.26 674.5,-124.05 666.09,-117.61 663.91,-124.26"/>
</a>
</g>
</g>
<!-- Node8 -->
<g id="Node000008" class="node">
<title>Node8</title>
<g id="a_Node000008"><a xlink:href="../../d6/df6/miniz_8c.html#a693b5cf938e6f7d2fc439f8ab65ea466" target="_top" xlink:title=" ">
<polygon fill="white" stroke="#666666" points="767.75,-105.88 650.5,-105.88 650.5,-86.62 767.75,-86.62 767.75,-105.88"/>
<text text-anchor="middle" x="709.12" y="-92.38" font-family="Helvetica,sans-Serif" font-size="10.00">tdefl_compress_normal</text>
</a>
</g>
</g>
<!-- Node6&#45;&gt;Node8 -->
<g id="edge7_Node000006_Node000008" class="edge">
<title>Node6&#45;&gt;Node8</title>
<g id="a_edge7_Node000006_Node000008"><a xlink:title=" ">
<path fill="none" stroke="#63b8ff" d="M614.69,-83C622.6,-84.12 631.09,-85.33 639.62,-86.54"/>
<polygon fill="#63b8ff" stroke="#63b8ff" points="639,-90.13 649.39,-88.06 639.98,-83.19 639,-90.13"/>
</a>
</g>
</g>
<!-- Node11 -->
<g id="Node000011" class="node">
<title>Node11</title>
<g id="a_Node000011"><a xlink:href="../../d6/df6/miniz_8c.html#a1adafac587d2839277822cea5bdc224d" target="_top" xlink:title=" ">
<polygon fill="#fff0f0" stroke="red" points="898.12,-49.88 808.62,-49.88 808.62,-30.62 898.12,-30.62 898.12,-49.88"/>
<text text-anchor="middle" x="853.38" y="-36.38" font-family="Helvetica,sans-Serif" font-size="10.00">tdefl_flush_block</text>
</a>
</g>
</g>
<!-- Node6&#45;&gt;Node11 -->
<g id="edge13_Node000006_Node000011" class="edge">
<title>Node6&#45;&gt;Node11</title>
<g id="a_edge13_Node000006_Node000011"><a xlink:title=" ">
<path fill="none" stroke="#63b8ff" d="M614.88,-71.83C663.18,-65.41 743.86,-54.68 797.59,-47.54"/>
<polygon fill="#63b8ff" stroke="#63b8ff" points="797.84,-50.9 807.29,-46.11 796.91,-43.96 797.84,-50.9"/>
</a>
</g>
</g>
<!-- Node22 -->
<g id="Node000022" class="node">
<title>Node22</title>
<g id="a_Node000022"><a xlink:href="../../d6/df6/miniz_8c.html#af80414324052552afda66f992ee246e9" target="_top" xlink:title=" ">
<polygon fill="white" stroke="#666666" points="755.75,-30.5 662.5,-30.5 662.5,0 755.75,0 755.75,-30.5"/>
<text text-anchor="start" x="670.5" y="-17" font-family="Helvetica,sans-Serif" font-size="10.00">tdefl_flush_output</text>
<text text-anchor="middle" x="709.12" y="-5.75" font-family="Helvetica,sans-Serif" font-size="10.00">_buffer</text>
</a>
</g>
</g>
<!-- Node6&#45;&gt;Node22 -->
<g id="edge14_Node000006_Node000022" class="edge">
<title>Node6&#45;&gt;Node22</title>
<g id="a_edge14_Node000006_Node000022"><a xlink:title=" ">
<path fill="none" stroke="#63b8ff" d="M595.95,-67.15C614.43,-58.6 641.48,-46.08 664.39,-35.48"/>
<polygon fill="#63b8ff" stroke="#63b8ff" points="665.64,-38.3 673.25,-30.92 662.7,-31.95 665.64,-38.3"/>
</a>
</g>
</g>
<!-- Node9 -->
<g id="Node000009" class="node">
<title>Node9</title>
<g id="a_Node000009"><a xlink:href="../../d7/d43/xmlparse_8c.html#ac90fb1922dfd1451b559829cbefd4c7b" target="_top" xlink:title=" ">
<polygon fill="white" stroke="#666666" points="871.88,-197.88 834.88,-197.88 834.88,-178.62 871.88,-178.62 871.88,-197.88"/>
<text text-anchor="middle" x="853.38" y="-184.38" font-family="Helvetica,sans-Serif" font-size="10.00">hash</text>
</a>
</g>
</g>
<!-- Node8&#45;&gt;Node9 -->
<g id="edge8_Node000008_Node000009" class="edge">
<title>Node8&#45;&gt;Node9</title>
<g id="a_edge8_Node000008_Node000009"><a xlink:title=" ">
<path fill="none" stroke="#63b8ff" d="M753.92,-106.29C758.84,-108.45 763.58,-111.07 767.75,-114.25 791.28,-132.18 780.69,-151.71 803.75,-170.25 809.78,-175.1 817.25,-178.72 824.51,-181.4"/>
<polygon fill="#63b8ff" stroke="#63b8ff" points="823.21,-184.97 833.8,-184.66 825.33,-178.3 823.21,-184.97"/>
</a>
</g>
</g>
<!-- Node10 -->
<g id="Node000010" class="node">
<title>Node10</title>
<g id="a_Node000010"><a xlink:href="../../d6/df6/miniz_8c.html#a72ea4abdadc19539c9275883bbb5aeda" target="_top" xlink:title=" ">
<polygon fill="white" stroke="#666666" points="897.38,-160.88 809.38,-160.88 809.38,-141.62 897.38,-141.62 897.38,-160.88"/>
<text text-anchor="middle" x="853.38" y="-147.38" font-family="Helvetica,sans-Serif" font-size="10.00">tdefl_find_match</text>
</a>
</g>
</g>
<!-- Node8&#45;&gt;Node10 -->
<g id="edge9_Node000008_Node000010" class="edge">
<title>Node8&#45;&gt;Node10</title>
<g id="a_edge9_Node000008_Node000010"><a xlink:title=" ">
<path fill="none" stroke="#63b8ff" d="M745.84,-106.29C753.18,-108.66 760.78,-111.35 767.75,-114.25 784.45,-121.2 787.23,-125.87 803.75,-133.25 806.78,-134.6 809.94,-135.94 813.13,-137.23"/>
<polygon fill="#63b8ff" stroke="#63b8ff" points="811.74,-140.83 822.33,-141.21 814.28,-134.31 811.74,-140.83"/>
</a>
</g>
</g>
<!-- Node8&#45;&gt;Node11 -->
<g id="edge10_Node000008_Node000011" class="edge">
<title>Node8&#45;&gt;Node11</title>
<g id="a_edge10_Node000008_Node000011"><a xlink:title=" ">
<path fill="none" stroke="#63b8ff" d="M734.29,-86.2C753.15,-78.42 780.04,-67.45 803.75,-58.25 807.26,-56.89 810.91,-55.5 814.57,-54.11"/>
<polygon fill="#63b8ff" stroke="#63b8ff" points="815.66,-57.07 823.8,-50.29 813.21,-50.51 815.66,-57.07"/>
</a>
</g>
</g>
<!-- Node20 -->
<g id="Node000020" class="node">
<title>Node20</title>
<g id="a_Node000020"><a xlink:href="../../d6/df6/miniz_8c.html#aa1d7593a37246e096639528e5fe7c1c0" target="_top" xlink:title=" ">
<polygon fill="white" stroke="#666666" points="901.12,-123.88 805.62,-123.88 805.62,-104.62 901.12,-104.62 901.12,-123.88"/>
<text text-anchor="middle" x="853.38" y="-110.38" font-family="Helvetica,sans-Serif" font-size="10.00">tdefl_record_literal</text>
</a>
</g>
</g>
<!-- Node8&#45;&gt;Node20 -->
<g id="edge11_Node000008_Node000020" class="edge">
<title>Node8&#45;&gt;Node20</title>
<g id="a_edge11_Node000008_Node000020"><a xlink:title=" ">
<path fill="none" stroke="#63b8ff" d="M767.98,-103.57C776.75,-104.68 785.79,-105.82 794.55,-106.93"/>
<polygon fill="#63b8ff" stroke="#63b8ff" points="794.09,-110.53 804.45,-108.31 794.97,-103.58 794.09,-110.53"/>
</a>
</g>
</g>
<!-- Node21 -->
<g id="Node000021" class="node">
<title>Node21</title>
<g id="a_Node000021"><a xlink:href="../../d6/df6/miniz_8c.html#ad67ea1952b814c7b86267773ebf8da84" target="_top" xlink:title=" ">
<polygon fill="white" stroke="#666666" points="903,-86.88 803.75,-86.88 803.75,-67.62 903,-67.62 903,-86.88"/>
<text text-anchor="middle" x="853.38" y="-73.38" font-family="Helvetica,sans-Serif" font-size="10.00">tdefl_record_match</text>
</a>
</g>
</g>
<!-- Node8&#45;&gt;Node21 -->
<g id="edge12_Node000008_Node000021" class="edge">
<title>Node8&#45;&gt;Node21</title>
<g id="a_edge12_Node000008_Node000021"><a xlink:title=" ">
<path fill="none" stroke="#63b8ff" d="M767.98,-88.52C776.22,-87.42 784.7,-86.29 792.97,-85.18"/>
<polygon fill="#63b8ff" stroke="#63b8ff" points="793.22,-88.55 802.67,-83.76 792.29,-81.61 793.22,-88.55"/>
</a>
</g>
</g>
</g>
</svg>

<g id="navigator" transform="translate(0 0)" fill="#404254">
  <rect fill="#f2f5e9" fill-opacity="0.5" stroke="#606060" stroke-width=".5" x="0" y="0" width="60" height="60"/>
  <use id="zoomplus" xlink:href="#zoomPlus" x="17" y="9" onmousedown="handleZoom(evt,'in')"/>
  <use id="zoomminus" xlink:href="#zoomMin" x="42" y="9" onmousedown="handleZoom(evt,'out')"/>
  <use id="reset" xlink:href="#resetDef" x="30" y="36" onmousedown="handleReset()"/>
   <use id="arrowup" xlink:href="#arrowUp" x="0" y="0" onmousedown="handlePan(0,-1)"/>
  <use id="arrowright" xlink:href="#arrowRight" x="0" y="0" onmousedown="handlePan(1,0)"/>
  <use id="arrowdown" xlink:href="#arrowDown" x="0" y="0" onmousedown="handlePan(0,1)"/>
  <use id="arrowleft" xlink:href="#arrowLeft" x="0" y="0" onmousedown="handlePan(-1,0)"/>
</g>
<svg viewBox="0 0 15 15" width="100%" height="30px" preserveAspectRatio="xMaxYMin meet">
 <g id="arrow_out" transform="scale(0.3 0.3)">
  <a xlink:href="class_slic3r_1_1___b_b_s__3_m_f___exporter_a1140b5f6c517ae1a3a7ccaa59f8a86a7_cgraph_org.svg" target="_base">
   <rect id="button" ry="5" rx="5" y="6" x="6" height="38" width="38"
        fill="#f2f5e9" fill-opacity="0.5" stroke="#606060" stroke-width="1.0"/>
   <path id="arrow"
     d="M 11.500037,31.436501 C 11.940474,20.09759 22.043105,11.32322 32.158766,21.979434 L 37.068811,17.246167 C 37.068811,17.246167 37.088388,32 37.088388,32 L 22.160133,31.978069 C 22.160133,31.978069 26.997745,27.140456 26.997745,27.140456 C 18.528582,18.264221 13.291696,25.230495 11.500037,31.436501 z"
     style="fill:#404040;"/>
  </a>
 </g>
</svg>

<style type='text/css'>
<![CDATA[
[data-mouse-over-selected='false'] { opacity: 0.7; }
[data-mouse-over-selected='true']  { opacity: 1.0; }
]]>
</style>
<script type="application/ecmascript"><![CDATA[
document.addEventListener('DOMContentLoaded', (event) => {
  highlightEdges();
  highlightAdjacentNodes();
});
]]></script>
</svg>
