<?xml version="1.0" encoding="UTF-8" standalone="no"?>
<!DOCTYPE svg PUBLIC "-//W3C//DTD SVG 1.1//EN"
 "http://www.w3.org/Graphics/SVG/1.1/DTD/svg11.dtd">
<!-- Generated by graphviz version 8.1.0 (20230707.0739)
 -->
<!-- Title: Slic3r::GUI::ObjectTablePanel::init_bitmap Pages: 1 -->
<svg width="884pt" height="590pt"
 viewBox="0.00 0.00 884.00 589.88" xmlns="http://www.w3.org/2000/svg" xmlns:xlink="http://www.w3.org/1999/xlink">
<g id="graph0" class="graph" transform="scale(1 1) rotate(0) translate(4 585.88)">
<title>Slic3r::GUI::ObjectTablePanel::init_bitmap</title>
<!-- Node1 -->
<g id="Node000001" class="node">
<title>Node1</title>
<g id="a_Node000001"><a xlink:title=" ">
<polygon fill="#999999" stroke="#666666" points="122.5,-245.5 0,-245.5 0,-215 122.5,-215 122.5,-245.5"/>
<text text-anchor="start" x="8" y="-232" font-family="Helvetica,sans-Serif" font-size="10.00">Slic3r::GUI::ObjectTable</text>
<text text-anchor="middle" x="61.25" y="-220.75" font-family="Helvetica,sans-Serif" font-size="10.00">Panel::init_bitmap</text>
</a>
</g>
</g>
<!-- Node2 -->
<g id="Node000002" class="node">
<title>Node2</title>
<g id="a_Node000002"><a xlink:href="../../d7/d58/wx_extensions_8cpp.html#a8c59db4968ff45d299802bf7babf5189" target="_top" xlink:title=" ">
<polygon fill="white" stroke="#666666" points="269.75,-277.88 158.5,-277.88 158.5,-258.62 269.75,-258.62 269.75,-277.88"/>
<text text-anchor="middle" x="214.12" y="-264.38" font-family="Helvetica,sans-Serif" font-size="10.00">create_scaled_bitmap</text>
</a>
</g>
</g>
<!-- Node1&#45;&gt;Node2 -->
<g id="edge1_Node000001_Node000002" class="edge">
<title>Node1&#45;&gt;Node2</title>
<g id="a_edge1_Node000001_Node000002"><a xlink:title=" ">
<path fill="none" stroke="#63b8ff" d="M122.75,-245.49C135.94,-248.81 149.77,-252.29 162.53,-255.51"/>
<polygon fill="#63b8ff" stroke="#63b8ff" points="161.41,-259.09 171.96,-258.13 163.12,-252.3 161.41,-259.09"/>
</a>
</g>
</g>
<!-- Node22 -->
<g id="Node000022" class="node">
<title>Node22</title>
<g id="a_Node000022"><a xlink:href="../../d7/d58/wx_extensions_8cpp.html#af599122322a9440b2594ca72db0fe977" target="_top" xlink:title=" ">
<polygon fill="white" stroke="#666666" points="262.25,-208.5 166,-208.5 166,-178 262.25,-178 262.25,-208.5"/>
<text text-anchor="start" x="174" y="-195" font-family="Helvetica,sans-Serif" font-size="10.00">get_extruder_color</text>
<text text-anchor="middle" x="214.12" y="-183.75" font-family="Helvetica,sans-Serif" font-size="10.00">_icons</text>
</a>
</g>
</g>
<!-- Node1&#45;&gt;Node22 -->
<g id="edge26_Node000001_Node000022" class="edge">
<title>Node1&#45;&gt;Node22</title>
<g id="a_edge26_Node000001_Node000022"><a xlink:title=" ">
<path fill="none" stroke="#63b8ff" d="M122.75,-215.41C133.45,-212.79 144.56,-210.06 155.19,-207.46"/>
<polygon fill="#63b8ff" stroke="#63b8ff" points="155.74,-210.68 164.62,-204.9 154.07,-203.88 155.74,-210.68"/>
</a>
</g>
</g>
<!-- Node3 -->
<g id="Node000003" class="node">
<title>Node3</title>
<g id="a_Node000003"><a xlink:href="../../d9/d45/namespace_slic3r_1_1_g_u_i.html#a4efb22fa76b303e9999f4f121b015b0a" target="_top" xlink:title=" ">
<polygon fill="white" stroke="#666666" points="419.25,-332.5 322.25,-332.5 322.25,-302 419.25,-302 419.25,-332.5"/>
<text text-anchor="start" x="330.25" y="-319" font-family="Helvetica,sans-Serif" font-size="10.00">Slic3r::GUI::check</text>
<text text-anchor="middle" x="370.75" y="-307.75" font-family="Helvetica,sans-Serif" font-size="10.00">_dark_mode</text>
</a>
</g>
</g>
<!-- Node2&#45;&gt;Node3 -->
<g id="edge2_Node000002_Node000003" class="edge">
<title>Node2&#45;&gt;Node3</title>
<g id="a_edge2_Node000002_Node000003"><a xlink:title=" ">
<path fill="none" stroke="#63b8ff" d="M246.79,-278.28C265.48,-284.21 289.71,-291.88 311.71,-298.86"/>
<polygon fill="#63b8ff" stroke="#63b8ff" points="310.38,-302.42 320.97,-302.11 312.49,-295.75 310.38,-302.42"/>
</a>
</g>
</g>
<!-- Node4 -->
<g id="Node000004" class="node">
<title>Node4</title>
<g id="a_Node000004"><a xlink:href="../../d7/d58/wx_extensions_8cpp.html#a1ee9ba171a3fbe7352176a4315fee795" target="_top" xlink:title=" ">
<polygon fill="white" stroke="#666666" points="396,-119.88 345.5,-119.88 345.5,-100.62 396,-100.62 396,-119.88"/>
<text text-anchor="middle" x="370.75" y="-106.38" font-family="Helvetica,sans-Serif" font-size="10.00">em_unit</text>
</a>
</g>
</g>
<!-- Node2&#45;&gt;Node4 -->
<g id="edge3_Node000002_Node000004" class="edge">
<title>Node2&#45;&gt;Node4</title>
<g id="a_edge3_Node000002_Node000004"><a xlink:title=" ">
<path fill="none" stroke="#63b8ff" d="M226.21,-258.3C237.4,-248.18 255.07,-231.93 269.75,-217.25 300.26,-186.76 334.24,-149.7 353.7,-128.16"/>
<polygon fill="#63b8ff" stroke="#63b8ff" points="355.78,-130.97 359.87,-121.2 350.58,-126.29 355.78,-130.97"/>
</a>
</g>
</g>
<!-- Node7 -->
<g id="Node000007" class="node">
<title>Node7</title>
<g id="a_Node000007"><a xlink:href="../../d8/d95/class_slic3r_1_1_g_u_i_1_1_bitmap_cache.html#afccfcaeca73039fe713aa0d4389b51e1" target="_top" xlink:title=" ">
<polygon fill="white" stroke="#666666" points="435.75,-493.5 305.75,-493.5 305.75,-463 435.75,-463 435.75,-493.5"/>
<text text-anchor="start" x="313.75" y="-480" font-family="Helvetica,sans-Serif" font-size="10.00">Slic3r::GUI::BitmapCache</text>
<text text-anchor="middle" x="370.75" y="-468.75" font-family="Helvetica,sans-Serif" font-size="10.00">::load_png</text>
</a>
</g>
</g>
<!-- Node2&#45;&gt;Node7 -->
<g id="edge6_Node000002_Node000007" class="edge">
<title>Node2&#45;&gt;Node7</title>
<g id="a_edge6_Node000002_Node000007"><a xlink:title=" ">
<path fill="none" stroke="#63b8ff" d="M222.38,-278.1C245.5,-309.5 317.97,-407.93 351.9,-454.01"/>
<polygon fill="#63b8ff" stroke="#63b8ff" points="349.59,-455.77 358.34,-461.75 355.23,-451.62 349.59,-455.77"/>
</a>
</g>
</g>
<!-- Node13 -->
<g id="Node000013" class="node">
<title>Node13</title>
<g id="a_Node000013"><a xlink:href="../../d8/d95/class_slic3r_1_1_g_u_i_1_1_bitmap_cache.html#a6b71563805184d887c80c3889b7447a4" target="_top" xlink:title=" ">
<polygon fill="white" stroke="#666666" points="435.75,-283.5 305.75,-283.5 305.75,-253 435.75,-253 435.75,-283.5"/>
<text text-anchor="start" x="313.75" y="-270" font-family="Helvetica,sans-Serif" font-size="10.00">Slic3r::GUI::BitmapCache</text>
<text text-anchor="middle" x="370.75" y="-258.75" font-family="Helvetica,sans-Serif" font-size="10.00">::load_svg</text>
</a>
</g>
</g>
<!-- Node2&#45;&gt;Node13 -->
<g id="edge13_Node000002_Node000013" class="edge">
<title>Node2&#45;&gt;Node13</title>
<g id="a_edge13_Node000002_Node000013"><a xlink:title=" ">
<path fill="none" stroke="#63b8ff" d="M270.08,-268.25C278.04,-268.25 286.36,-268.25 294.64,-268.25"/>
<polygon fill="#63b8ff" stroke="#63b8ff" points="294.47,-271.75 304.47,-268.25 294.47,-264.75 294.47,-271.75"/>
</a>
</g>
</g>
<!-- Node5 -->
<g id="Node000005" class="node">
<title>Node5</title>
<g id="a_Node000005"><a xlink:href="../../d7/d9a/class_slic3r_1_1_g_u_i_1_1_d_p_i_aware.html#a10bf715638840dfd1312a054e64f8571" target="_top" xlink:title=" ">
<polygon fill="white" stroke="#666666" points="611.12,-79.5 495.38,-79.5 495.38,-49 611.12,-49 611.12,-79.5"/>
<text text-anchor="start" x="503.38" y="-66" font-family="Helvetica,sans-Serif" font-size="10.00">Slic3r::GUI::DPIAware</text>
<text text-anchor="middle" x="553.25" y="-54.75" font-family="Helvetica,sans-Serif" font-size="10.00">::em_unit</text>
</a>
</g>
</g>
<!-- Node4&#45;&gt;Node5 -->
<g id="edge4_Node000004_Node000005" class="edge">
<title>Node4&#45;&gt;Node5</title>
<g id="a_edge4_Node000004_Node000005"><a xlink:title=" ">
<path fill="none" stroke="#63b8ff" d="M396.47,-103.95C419.2,-98.16 453.95,-89.3 484.87,-81.42"/>
<polygon fill="#63b8ff" stroke="#63b8ff" points="485.37,-84.65 494.19,-78.79 483.64,-77.87 485.37,-84.65"/>
</a>
</g>
</g>
<!-- Node6 -->
<g id="Node000006" class="node">
<title>Node6</title>
<g id="a_Node000006"><a xlink:href="../../d9/d45/namespace_slic3r_1_1_g_u_i.html#a160756cff7bc7f94456fb6b61614f579" target="_top" xlink:title=" ">
<polygon fill="white" stroke="#666666" points="616,-30.5 490.5,-30.5 490.5,0 616,0 616,-30.5"/>
<text text-anchor="start" x="498.5" y="-17" font-family="Helvetica,sans-Serif" font-size="10.00">Slic3r::GUI::find_toplevel</text>
<text text-anchor="middle" x="553.25" y="-5.75" font-family="Helvetica,sans-Serif" font-size="10.00">_parent</text>
</a>
</g>
</g>
<!-- Node4&#45;&gt;Node6 -->
<g id="edge5_Node000004_Node000006" class="edge">
<title>Node4&#45;&gt;Node6</title>
<g id="a_edge5_Node000004_Node000006"><a xlink:title=" ">
<path fill="none" stroke="#63b8ff" d="M396.24,-106.92C408.94,-104.27 424.17,-99.56 435.75,-91.25 458.29,-75.08 449.31,-56.56 471.75,-40.25 474.44,-38.29 477.3,-36.48 480.26,-34.81"/>
<polygon fill="#63b8ff" stroke="#63b8ff" points="481.63,-37.54 489.02,-29.94 478.51,-31.28 481.63,-37.54"/>
</a>
</g>
</g>
<!-- Node8 -->
<g id="Node000008" class="node">
<title>Node8</title>
<g id="a_Node000008"><a xlink:href="../../d9/d45/namespace_slic3r_1_1_g_u_i.html#ac911e01665ff9c00414a1d5d0352de74" target="_top" xlink:title=" ">
<polygon fill="white" stroke="#666666" points="606.25,-563.88 500.25,-563.88 500.25,-544.62 606.25,-544.62 606.25,-563.88"/>
<text text-anchor="middle" x="553.25" y="-550.38" font-family="Helvetica,sans-Serif" font-size="10.00">Slic3r::GUI::from_u8</text>
</a>
</g>
</g>
<!-- Node7&#45;&gt;Node8 -->
<g id="edge7_Node000007_Node000008" class="edge">
<title>Node7&#45;&gt;Node8</title>
<g id="a_edge7_Node000007_Node000008"><a xlink:title=" ">
<path fill="none" stroke="#63b8ff" d="M398.26,-493.8C418.04,-504.97 445.99,-519.82 471.75,-530.25 481.69,-534.27 492.55,-537.96 503,-541.18"/>
<polygon fill="#63b8ff" stroke="#63b8ff" points="501.66,-544.73 512.25,-544.24 503.66,-538.03 501.66,-544.73"/>
</a>
</g>
</g>
<!-- Node9 -->
<g id="Node000009" class="node">
<title>Node9</title>
<g id="a_Node000009"><a xlink:href="../../d8/d95/class_slic3r_1_1_g_u_i_1_1_bitmap_cache.html#ae66ad1f757a5b4970147434649eaf5ed" target="_top" xlink:title=" ">
<polygon fill="white" stroke="#666666" points="800.75,-412.5 670.75,-412.5 670.75,-382 800.75,-382 800.75,-412.5"/>
<text text-anchor="start" x="678.75" y="-399" font-family="Helvetica,sans-Serif" font-size="10.00">Slic3r::GUI::BitmapCache</text>
<text text-anchor="middle" x="735.75" y="-387.75" font-family="Helvetica,sans-Serif" font-size="10.00">::insert</text>
</a>
</g>
</g>
<!-- Node7&#45;&gt;Node9 -->
<g id="edge9_Node000007_Node000009" class="edge">
<title>Node7&#45;&gt;Node9</title>
<g id="a_edge9_Node000007_Node000009"><a xlink:title=" ">
<path fill="none" stroke="#63b8ff" d="M436.08,-482.07C490.36,-483.31 569.43,-480.43 634.75,-459.25 661.3,-450.64 688,-433.56 707.12,-419.5"/>
<polygon fill="#63b8ff" stroke="#63b8ff" points="709,-421.71 714.87,-412.89 704.78,-416.13 709,-421.71"/>
</a>
</g>
</g>
<!-- Node10 -->
<g id="Node000010" class="node">
<title>Node10</title>
<g id="a_Node000010"><a xlink:href="../../de/db8/namespace_slic3r.html#a03e9f0fb364689f42c2ac979bf74a185" target="_top" xlink:title=" ">
<polygon fill="white" stroke="#666666" points="583.38,-449.88 523.12,-449.88 523.12,-430.62 583.38,-430.62 583.38,-449.88"/>
<text text-anchor="middle" x="553.25" y="-436.38" font-family="Helvetica,sans-Serif" font-size="10.00">Slic3r::var</text>
</a>
</g>
</g>
<!-- Node7&#45;&gt;Node10 -->
<g id="edge10_Node000007_Node000010" class="edge">
<title>Node7&#45;&gt;Node10</title>
<g id="a_edge10_Node000007_Node000010"><a xlink:title=" ">
<path fill="none" stroke="#63b8ff" d="M436.15,-464.69C461.44,-459.37 489.69,-453.42 511.99,-448.73"/>
<polygon fill="#63b8ff" stroke="#63b8ff" points="512.67,-451.95 521.74,-446.46 511.23,-445.1 512.67,-451.95"/>
</a>
</g>
</g>
<!-- Node11 -->
<g id="Node000011" class="node">
<title>Node11</title>
<g id="a_Node000011"><a xlink:href="../../d9/d45/namespace_slic3r_1_1_g_u_i.html#a335817b838dadf09b1a98925a4fa5dab" target="_top" xlink:title=" ">
<polygon fill="white" stroke="#666666" points="800.75,-496.5 670.75,-496.5 670.75,-466 800.75,-466 800.75,-496.5"/>
<text text-anchor="start" x="678.75" y="-483" font-family="Helvetica,sans-Serif" font-size="10.00">Slic3r::GUI::wxImage</text>
<text text-anchor="middle" x="735.75" y="-471.75" font-family="Helvetica,sans-Serif" font-size="10.00">_to_wxBitmap_with_alpha</text>
</a>
</g>
</g>
<!-- Node7&#45;&gt;Node11 -->
<g id="edge11_Node000007_Node000011" class="edge">
<title>Node7&#45;&gt;Node11</title>
<g id="a_edge11_Node000007_Node000011"><a xlink:title=" ">
<path fill="none" stroke="#63b8ff" d="M436.16,-488.61C447.97,-490.13 460.21,-491.45 471.75,-492.25 544.02,-497.28 562.41,-496.22 634.75,-492.25 642.75,-491.81 651.1,-491.18 659.41,-490.43"/>
<polygon fill="#63b8ff" stroke="#63b8ff" points="659.66,-493.83 669.28,-489.39 659,-486.86 659.66,-493.83"/>
</a>
</g>
</g>
<!-- Node8&#45;&gt;Node8 -->
<g id="edge8_Node000008_Node000008" class="edge">
<title>Node8&#45;&gt;Node8</title>
<g id="a_edge8_Node000008_Node000008"><a xlink:title=" ">
<path fill="none" stroke="#63b8ff" d="M524.68,-564.16C511.65,-572.77 521.17,-581.88 553.25,-581.88 572.8,-581.88 583.97,-578.49 586.77,-573.9"/>
<polygon fill="#63b8ff" stroke="#63b8ff" points="589.47,-572.49 581.82,-565.16 583.23,-575.66 589.47,-572.49"/>
</a>
</g>
</g>
<!-- Node12 -->
<g id="Node000012" class="node">
<title>Node12</title>
<g id="a_Node000012"><a xlink:href="../../d6/dba/_wipe_tower_dialog_8cpp.html#a031c2862b832be718b216d1f101f88cd" target="_top" xlink:title=" ">
<polygon fill="white" stroke="#666666" points="876,-490.88 836.75,-490.88 836.75,-471.62 876,-471.62 876,-490.88"/>
<text text-anchor="middle" x="856.38" y="-477.38" font-family="Helvetica,sans-Serif" font-size="10.00">scale</text>
</a>
</g>
</g>
<!-- Node11&#45;&gt;Node12 -->
<g id="edge12_Node000011_Node000012" class="edge">
<title>Node11&#45;&gt;Node12</title>
<g id="a_edge12_Node000011_Node000012"><a xlink:title=" ">
<path fill="none" stroke="#63b8ff" d="M800.92,-481.25C809.55,-481.25 818.04,-481.25 825.66,-481.25"/>
<polygon fill="#63b8ff" stroke="#63b8ff" points="825.45,-484.75 835.45,-481.25 825.45,-477.75 825.45,-484.75"/>
</a>
</g>
</g>
<!-- Node13&#45;&gt;Node10 -->
<g id="edge25_Node000013_Node000010" class="edge">
<title>Node13&#45;&gt;Node10</title>
<g id="a_edge25_Node000013_Node000010"><a xlink:title=" ">
<path fill="none" stroke="#63b8ff" d="M424.4,-283.86C428.59,-286.52 432.47,-289.63 435.75,-293.25 475.44,-337.04 429.09,-380.36 471.75,-421.25 482.49,-431.54 497.72,-436.62 512.05,-439.01"/>
<polygon fill="#63b8ff" stroke="#63b8ff" points="511.38,-442.58 521.74,-440.36 512.25,-435.64 511.38,-442.58"/>
</a>
</g>
</g>
<!-- Node14 -->
<g id="Node000014" class="node">
<title>Node14</title>
<g id="a_Node000014"><a xlink:href="../../de/db8/namespace_slic3r.html#a95d4899dcbd269aa89e4943ed1eb7ae9" target="_top" xlink:title=" ">
<polygon fill="white" stroke="#666666" points="607.38,-326.5 499.12,-326.5 499.12,-296 607.38,-296 607.38,-326.5"/>
<text text-anchor="start" x="507.12" y="-313" font-family="Helvetica,sans-Serif" font-size="10.00">Slic3r::float_to_string</text>
<text text-anchor="middle" x="553.25" y="-301.75" font-family="Helvetica,sans-Serif" font-size="10.00">_decimal_point</text>
</a>
</g>
</g>
<!-- Node13&#45;&gt;Node14 -->
<g id="edge14_Node000013_Node000014" class="edge">
<title>Node13&#45;&gt;Node14</title>
<g id="a_edge14_Node000013_Node000014"><a xlink:title=" ">
<path fill="none" stroke="#63b8ff" d="M436.15,-283.59C453.17,-287.65 471.53,-292.02 488.51,-296.07"/>
<polygon fill="#63b8ff" stroke="#63b8ff" points="487.35,-299.62 497.89,-298.54 488.97,-292.82 487.35,-299.62"/>
</a>
</g>
</g>
<!-- Node15 -->
<g id="Node000015" class="node">
<title>Node15</title>
<g id="a_Node000015"><a xlink:href="../../d8/d95/class_slic3r_1_1_g_u_i_1_1_bitmap_cache.html#a6a62c163a6bab25fcb73d8726a5d3895" target="_top" xlink:title=" ">
<polygon fill="white" stroke="#666666" points="618.25,-412.5 488.25,-412.5 488.25,-382 618.25,-382 618.25,-412.5"/>
<text text-anchor="start" x="496.25" y="-399" font-family="Helvetica,sans-Serif" font-size="10.00">Slic3r::GUI::BitmapCache</text>
<text text-anchor="middle" x="553.25" y="-387.75" font-family="Helvetica,sans-Serif" font-size="10.00">::insert_raw_rgba</text>
</a>
</g>
</g>
<!-- Node13&#45;&gt;Node15 -->
<g id="edge15_Node000013_Node000015" class="edge">
<title>Node13&#45;&gt;Node15</title>
<g id="a_edge15_Node000013_Node000015"><a xlink:title=" ">
<path fill="none" stroke="#63b8ff" d="M422.9,-283.85C427.56,-286.52 431.95,-289.63 435.75,-293.25 464.01,-320.12 442.41,-347.57 471.75,-373.25 473.86,-375.1 476.11,-376.81 478.47,-378.38"/>
<polygon fill="#63b8ff" stroke="#63b8ff" points="476.58,-381.91 487,-383.83 480.06,-375.83 476.58,-381.91"/>
</a>
</g>
</g>
<!-- Node16 -->
<g id="Node000016" class="node">
<title>Node16</title>
<g id="a_Node000016"><a xlink:href="../../d8/d23/nanosvgrast_8h.html#a39f1a90d36b9c773d57041c8cda0a88a" target="_top" xlink:title=" ">
<polygon fill="white" stroke="#666666" points="608.88,-277.88 497.62,-277.88 497.62,-258.62 608.88,-258.62 608.88,-277.88"/>
<text text-anchor="middle" x="553.25" y="-264.38" font-family="Helvetica,sans-Serif" font-size="10.00">nsvgCreateRasterizer</text>
</a>
</g>
</g>
<!-- Node13&#45;&gt;Node16 -->
<g id="edge18_Node000013_Node000016" class="edge">
<title>Node13&#45;&gt;Node16</title>
<g id="a_edge18_Node000013_Node000016"><a xlink:title=" ">
<path fill="none" stroke="#63b8ff" d="M436.15,-268.25C452.51,-268.25 470.11,-268.25 486.54,-268.25"/>
<polygon fill="#63b8ff" stroke="#63b8ff" points="486.14,-271.75 496.14,-268.25 486.14,-264.75 486.14,-271.75"/>
</a>
</g>
</g>
<!-- Node17 -->
<g id="Node000017" class="node">
<title>Node17</title>
<g id="a_Node000017"><a xlink:href="../../d4/d64/nanosvg_8h.html#ae474f7838b9272736a6945cdb73aad1f" target="_top" xlink:title=" ">
<polygon fill="white" stroke="#666666" points="768.5,-119.88 703,-119.88 703,-100.62 768.5,-100.62 768.5,-119.88"/>
<text text-anchor="middle" x="735.75" y="-106.38" font-family="Helvetica,sans-Serif" font-size="10.00">nsvgDelete</text>
</a>
</g>
</g>
<!-- Node13&#45;&gt;Node17 -->
<g id="edge19_Node000013_Node000017" class="edge">
<title>Node13&#45;&gt;Node17</title>
<g id="a_edge19_Node000013_Node000017"><a xlink:title=" ">
<path fill="none" stroke="#63b8ff" d="M377.33,-252.79C389.26,-222.3 420.41,-154.9 471.75,-126.25 541.07,-87.56 637.27,-93.98 692.05,-102.12"/>
<polygon fill="#63b8ff" stroke="#63b8ff" points="691.33,-105.71 701.76,-103.81 692.43,-98.79 691.33,-105.71"/>
</a>
</g>
</g>
<!-- Node18 -->
<g id="Node000018" class="node">
<title>Node18</title>
<g id="a_Node000018"><a xlink:href="../../d8/d23/nanosvgrast_8h.html#ae2ace40cfac53302ba8856d584872734" target="_top" xlink:title=" ">
<polygon fill="white" stroke="#666666" points="608.5,-240.88 498,-240.88 498,-221.62 608.5,-221.62 608.5,-240.88"/>
<text text-anchor="middle" x="553.25" y="-227.38" font-family="Helvetica,sans-Serif" font-size="10.00">nsvgDeleteRasterizer</text>
</a>
</g>
</g>
<!-- Node13&#45;&gt;Node18 -->
<g id="edge20_Node000013_Node000018" class="edge">
<title>Node13&#45;&gt;Node18</title>
<g id="a_edge20_Node000013_Node000018"><a xlink:title=" ">
<path fill="none" stroke="#63b8ff" d="M436.15,-255.05C454.43,-251.3 474.25,-247.24 492.26,-243.55"/>
<polygon fill="#63b8ff" stroke="#63b8ff" points="492.82,-246.8 501.92,-241.36 491.42,-239.94 492.82,-246.8"/>
</a>
</g>
</g>
<!-- Node19 -->
<g id="Node000019" class="node">
<title>Node19</title>
<g id="a_Node000019"><a xlink:href="../../d8/d95/class_slic3r_1_1_g_u_i_1_1_bitmap_cache.html#abccea8ea4722194ea6a72a5649238512" target="_top" xlink:title=" ">
<polygon fill="white" stroke="#666666" points="634.75,-165.5 471.75,-165.5 471.75,-135 634.75,-135 634.75,-165.5"/>
<text text-anchor="start" x="479.75" y="-152" font-family="Helvetica,sans-Serif" font-size="10.00">Slic3r::GUI::BitmapCache</text>
<text text-anchor="middle" x="553.25" y="-140.75" font-family="Helvetica,sans-Serif" font-size="10.00">::nsvgParseFromFileWithReplace</text>
</a>
</g>
</g>
<!-- Node13&#45;&gt;Node19 -->
<g id="edge21_Node000013_Node000019" class="edge">
<title>Node13&#45;&gt;Node19</title>
<g id="a_edge21_Node000013_Node000019"><a xlink:title=" ">
<path fill="none" stroke="#63b8ff" d="M395.72,-252.58C427.41,-231.86 483.4,-195.26 519.12,-171.91"/>
<polygon fill="#63b8ff" stroke="#63b8ff" points="520.73,-174.39 527.18,-165.98 516.9,-168.53 520.73,-174.39"/>
</a>
</g>
</g>
<!-- Node21 -->
<g id="Node000021" class="node">
<title>Node21</title>
<g id="a_Node000021"><a xlink:href="../../d8/d23/nanosvgrast_8h.html#a73d8a67a24e08c96ec8c2b823d8a29b2" target="_top" xlink:title=" ">
<polygon fill="white" stroke="#666666" points="592.75,-363.88 513.75,-363.88 513.75,-344.62 592.75,-344.62 592.75,-363.88"/>
<text text-anchor="middle" x="553.25" y="-350.38" font-family="Helvetica,sans-Serif" font-size="10.00">nsvgRasterize</text>
</a>
</g>
</g>
<!-- Node13&#45;&gt;Node21 -->
<g id="edge24_Node000013_Node000021" class="edge">
<title>Node13&#45;&gt;Node21</title>
<g id="a_edge24_Node000013_Node000021"><a xlink:title=" ">
<path fill="none" stroke="#63b8ff" d="M419.6,-283.89C425.26,-286.62 430.79,-289.73 435.75,-293.25 455.8,-307.48 450.75,-322.46 471.75,-335.25 481.13,-340.96 492.1,-344.96 502.86,-347.75"/>
<polygon fill="#63b8ff" stroke="#63b8ff" points="501.96,-351.36 512.49,-350.17 503.51,-344.54 501.96,-351.36"/>
</a>
</g>
</g>
<!-- Node15&#45;&gt;Node9 -->
<g id="edge16_Node000015_Node000009" class="edge">
<title>Node15&#45;&gt;Node9</title>
<g id="a_edge16_Node000015_Node000009"><a xlink:title=" ">
<path fill="none" stroke="#63b8ff" d="M618.65,-397.25C631.91,-397.25 645.99,-397.25 659.59,-397.25"/>
<polygon fill="#63b8ff" stroke="#63b8ff" points="659.37,-400.75 669.37,-397.25 659.37,-393.75 659.37,-400.75"/>
</a>
</g>
</g>
<!-- Node15&#45;&gt;Node11 -->
<g id="edge17_Node000015_Node000011" class="edge">
<title>Node15&#45;&gt;Node11</title>
<g id="a_edge17_Node000015_Node000011"><a xlink:title=" ">
<path fill="none" stroke="#63b8ff" d="M612.92,-412.86C620.37,-415.39 627.81,-418.19 634.75,-421.25 658.84,-431.87 684.26,-447.18 703.44,-459.68"/>
<polygon fill="#63b8ff" stroke="#63b8ff" points="701.32,-463.13 711.59,-465.73 705.18,-457.3 701.32,-463.13"/>
</a>
</g>
</g>
<!-- Node19&#45;&gt;Node17 -->
<g id="edge22_Node000019_Node000017" class="edge">
<title>Node19&#45;&gt;Node17</title>
<g id="a_edge22_Node000019_Node000017"><a xlink:title=" ">
<path fill="none" stroke="#63b8ff" d="M625.07,-134.56C647.74,-129.53 672.12,-124.13 692.13,-119.7"/>
<polygon fill="#63b8ff" stroke="#63b8ff" points="692.75,-122.92 701.75,-117.34 691.23,-116.09 692.75,-122.92"/>
</a>
</g>
</g>
<!-- Node20 -->
<g id="Node000020" class="node">
<title>Node20</title>
<g id="a_Node000020"><a xlink:href="../../d4/d64/nanosvg_8h.html#a573eb7d882e117b18103b77845c29f22" target="_top" xlink:title=" ">
<polygon fill="white" stroke="#666666" points="767,-159.88 704.5,-159.88 704.5,-140.62 767,-140.62 767,-159.88"/>
<text text-anchor="middle" x="735.75" y="-146.38" font-family="Helvetica,sans-Serif" font-size="10.00">nsvgParse</text>
</a>
</g>
</g>
<!-- Node19&#45;&gt;Node20 -->
<g id="edge23_Node000019_Node000020" class="edge">
<title>Node19&#45;&gt;Node20</title>
<g id="a_edge23_Node000019_Node000020"><a xlink:title=" ">
<path fill="none" stroke="#63b8ff" d="M635,-150.25C655.17,-150.25 675.99,-150.25 693.35,-150.25"/>
<polygon fill="#63b8ff" stroke="#63b8ff" points="693.22,-153.75 703.22,-150.25 693.22,-146.75 693.22,-153.75"/>
</a>
</g>
</g>
<!-- Node22&#45;&gt;Node9 -->
<g id="edge28_Node000022_Node000009" class="edge">
<title>Node22&#45;&gt;Node9</title>
<g id="a_edge28_Node000022_Node000009"><a xlink:title=" ">
<path fill="none" stroke="#63b8ff" d="M262.39,-189.71C358.76,-183.38 573.98,-174.13 634.75,-212.25 692.12,-248.24 718.85,-329.2 729.23,-371.07"/>
<polygon fill="#63b8ff" stroke="#63b8ff" points="725.99,-371.6 731.68,-380.54 732.81,-370 725.99,-371.6"/>
</a>
</g>
</g>
<!-- Node23 -->
<g id="Node000023" class="node">
<title>Node23</title>
<g id="a_Node000023"><a xlink:href="../../d8/d95/class_slic3r_1_1_g_u_i_1_1_bitmap_cache.html#abec9ccb68929b5eec50ee488b3d39b9a" target="_top" xlink:title=" ">
<polygon fill="white" stroke="#666666" points="435.75,-82.5 305.75,-82.5 305.75,-52 435.75,-52 435.75,-82.5"/>
<text text-anchor="start" x="313.75" y="-69" font-family="Helvetica,sans-Serif" font-size="10.00">Slic3r::GUI::BitmapCache</text>
<text text-anchor="middle" x="370.75" y="-57.75" font-family="Helvetica,sans-Serif" font-size="10.00">::find</text>
</a>
</g>
</g>
<!-- Node22&#45;&gt;Node23 -->
<g id="edge27_Node000022_Node000023" class="edge">
<title>Node22&#45;&gt;Node23</title>
<g id="a_edge27_Node000022_Node000023"><a xlink:title=" ">
<path fill="none" stroke="#63b8ff" d="M225.3,-177.63C240.41,-155.55 270.79,-115.25 305.75,-91.25 307.44,-90.09 309.19,-88.98 310.99,-87.91"/>
<polygon fill="#63b8ff" stroke="#63b8ff" points="312.11,-90.75 319.29,-82.97 308.82,-84.57 312.11,-90.75"/>
</a>
</g>
</g>
</g>
</svg>
