<?xml version="1.0" encoding="UTF-8" standalone="no"?>
<!DOCTYPE svg PUBLIC "-//W3C//DTD SVG 1.1//EN"
 "http://www.w3.org/Graphics/SVG/1.1/DTD/svg11.dtd">
<!-- Generated by graphviz version 8.1.0 (20230707.0739)
 -->
<!-- Title: Slic3r::TriangleSelector::undivide_triangle Pages: 1 -->
<!--zoomable 173 -->

<svg id="main" version="1.1" xmlns="http://www.w3.org/2000/svg" xmlns:xlink="http://www.w3.org/1999/xlink" xml:space="preserve" onload="init(evt)">
<style type="text/css"><![CDATA[
.node, .edge {opacity: 0.7;}
.node.selected, .edge.selected {opacity: 1;}
.edge:hover path { stroke: red; }
.edge:hover polygon { stroke: red; fill: red; }
]]></style>

<defs>
  <circle id="rim" cx="0" cy="0" r="7"/>
  <circle id="rim2" cx="0" cy="0" r="3.5"/>
  <g id="zoomPlus">
    <use xlink:href="#rim" fill="#404040"><set attributeName="fill" to="#808080" begin="zoomplus.mouseover" end="zoomplus.mouseout"/></use>
    <path d="M-4,0h8M0,-4v8" fill="none" stroke="white" stroke-width="1.5" pointer-events="none"/>
  </g>
  <g id="zoomMin">
    <use xlink:href="#rim" fill="#404040"><set attributeName="fill" to="#808080" begin="zoomminus.mouseover" end="zoomminus.mouseout"/></use>
    <path d="M-4,0h8" fill="none" stroke="white" stroke-width="1.5" pointer-events="none"/>
  </g>
  <g id="arrowUp" transform="translate(30 24)">
    <use xlink:href="#rim"/>
    <path pointer-events="none" fill="none" stroke="white" stroke-width="1.5" d="M0,-3.0v7 M-2.5,-0.5L0,-3.0L2.5,-0.5"/>
  </g>
  <g id="arrowRight" transform="rotate(90) translate(36 -43)">
    <use xlink:href="#rim"/>
    <path pointer-events="none" fill="none" stroke="white" stroke-width="1.5" d="M0,-3.0v7 M-2.5,-0.5L0,-3.0L2.5,-0.5"/>
  </g>
  <g id="arrowDown" transform="rotate(180) translate(-30 -48)">
    <use xlink:href="#rim"/>
    <path pointer-events="none" fill="none" stroke="white" stroke-width="1.5" d="M0,-3.0v7 M-2.5,-0.5L0,-3.0L2.5,-0.5"/>
  </g>
  <g id="arrowLeft" transform="rotate(270) translate(-36 17)">
    <use xlink:href="#rim"/>
    <path pointer-events="none" fill="none" stroke="white" stroke-width="1.5" d="M0,-3.0v7 M-2.5,-0.5L0,-3.0L2.5,-0.5"/>
  </g>
  <g id="resetDef">
    <use xlink:href="#rim2" fill="#404040"><set attributeName="fill" to="#808080" begin="reset.mouseover" end="reset.mouseout"/></use>
  </g>
</defs>
<script type="application/ecmascript">
var viewWidth = 627;
var viewHeight = 173;
var sectionId = 'dynsection-70';
</script>
<script type="application/ecmascript" xlink:href="../../svg.min.js"/>
<svg id="graph" class="graph">
<g id="viewport">
<title>Slic3r::TriangleSelector::undivide_triangle</title>
<!-- Node1 -->
<g id="Node000001" class="node">
<title>Node1</title>
<g id="a_Node000001"><a xlink:title=" ">
<polygon fill="#999999" stroke="#666666" points="619,-79.5 501.75,-79.5 501.75,-49 619,-49 619,-79.5"/>
<text text-anchor="start" x="509.75" y="-66" font-family="Helvetica,sans-Serif" font-size="10.00">Slic3r::TriangleSelector</text>
<text text-anchor="middle" x="560.38" y="-54.75" font-family="Helvetica,sans-Serif" font-size="10.00">::undivide_triangle</text>
</a>
</g>
</g>
<!-- Node1&#45;&gt;Node1 -->
<g id="edge10_Node000001_Node000001" class="edge">
<title>Node1&#45;&gt;Node1</title>
<g id="a_edge10_Node000001_Node000001"><a xlink:title=" ">
<path fill="none" stroke="#63b8ff" d="M587.7,-90.88C583.44,-94.83 574.33,-97.5 560.38,-97.5 535.57,-97.5 526.08,-89.06 531.89,-79.99"/>
<polygon fill="#63b8ff" stroke="#63b8ff" points="591.28,-91.3 588.86,-80.99 584.32,-90.56 591.28,-91.3"/>
</a>
</g>
</g>
<!-- Node2 -->
<g id="Node000002" class="node">
<title>Node2</title>
<g id="a_Node000002"><a xlink:href="../../df/d3c/class_slic3r_1_1_triangle_selector.html#a56183bc59345ac92e6360fd6f6b6b566" target="_top" xlink:title=" ">
<polygon fill="white" stroke="#666666" points="465.75,-146.5 333.5,-146.5 333.5,-116 465.75,-116 465.75,-146.5"/>
<text text-anchor="start" x="341.5" y="-133" font-family="Helvetica,sans-Serif" font-size="10.00">Slic3r::TriangleSelector</text>
<text text-anchor="middle" x="399.62" y="-121.75" font-family="Helvetica,sans-Serif" font-size="10.00">::remove_useless_children</text>
</a>
</g>
</g>
<!-- Node1&#45;&gt;Node2 -->
<g id="edge1_Node000001_Node000002" class="edge">
<title>Node1&#45;&gt;Node2</title>
<g id="a_edge1_Node000001_Node000002"><a xlink:title=" ">
<path fill="none" stroke="#63b8ff" d="M515.81,-84.39C500.11,-91.49 482.21,-99.4 465.75,-106.25 458.26,-109.37 450.23,-112.56 442.45,-115.59"/>
<polygon fill="#63b8ff" stroke="#63b8ff" points="517.11,-87.19 524.77,-79.87 514.22,-80.82 517.11,-87.19"/>
</a>
</g>
</g>
<!-- Node6 -->
<g id="Node000006" class="node">
<title>Node6</title>
<g id="a_Node000006"><a xlink:href="../../df/d3c/class_slic3r_1_1_triangle_selector.html#adc64f7a86852a83b86043c99ac65514b" target="_top" xlink:title=" ">
<polygon fill="white" stroke="#666666" points="464.62,-79.5 334.62,-79.5 334.62,-49 464.62,-49 464.62,-79.5"/>
<text text-anchor="start" x="342.62" y="-66" font-family="Helvetica,sans-Serif" font-size="10.00">Slic3r::TriangleSelector</text>
<text text-anchor="middle" x="399.62" y="-54.75" font-family="Helvetica,sans-Serif" font-size="10.00">::select_triangle_recursive</text>
</a>
</g>
</g>
<!-- Node1&#45;&gt;Node6 -->
<g id="edge6_Node000001_Node000006" class="edge">
<title>Node1&#45;&gt;Node6</title>
<g id="a_edge6_Node000001_Node000006"><a xlink:title=" ">
<path fill="none" stroke="#63b8ff" d="M490.88,-64.25C482.31,-64.25 473.56,-64.25 465.06,-64.25"/>
<polygon fill="#63b8ff" stroke="#63b8ff" points="490.61,-67.75 500.61,-64.25 490.61,-60.75 490.61,-67.75"/>
</a>
</g>
</g>
<!-- Node7 -->
<g id="Node000007" class="node">
<title>Node7</title>
<g id="a_Node000007"><a xlink:href="../../df/d3c/class_slic3r_1_1_triangle_selector.html#adeff825221e13d10b3d7b5bcd141272e" target="_top" xlink:title=" ">
<polygon fill="white" stroke="#666666" points="458.25,-30.5 341,-30.5 341,0 458.25,0 458.25,-30.5"/>
<text text-anchor="start" x="349" y="-17" font-family="Helvetica,sans-Serif" font-size="10.00">Slic3r::TriangleSelector</text>
<text text-anchor="middle" x="399.62" y="-5.75" font-family="Helvetica,sans-Serif" font-size="10.00">::set_facet</text>
</a>
</g>
</g>
<!-- Node1&#45;&gt;Node7 -->
<g id="edge9_Node000001_Node000007" class="edge">
<title>Node1&#45;&gt;Node7</title>
<g id="a_edge9_Node000001_Node000007"><a xlink:title=" ">
<path fill="none" stroke="#63b8ff" d="M498.23,-45.38C482.84,-40.63 466.47,-35.57 451.63,-30.99"/>
<polygon fill="#63b8ff" stroke="#63b8ff" points="497.12,-49.01 507.71,-48.61 499.19,-42.32 497.12,-49.01"/>
</a>
</g>
</g>
<!-- Node2&#45;&gt;Node2 -->
<g id="edge2_Node000002_Node000002" class="edge">
<title>Node2&#45;&gt;Node2</title>
<g id="a_edge2_Node000002_Node000002"><a xlink:title=" ">
<path fill="none" stroke="#63b8ff" d="M426.95,-157.88C422.69,-161.83 413.58,-164.5 399.62,-164.5 374.82,-164.5 365.33,-156.06 371.14,-146.99"/>
<polygon fill="#63b8ff" stroke="#63b8ff" points="430.53,-158.3 428.11,-147.99 423.57,-157.56 430.53,-158.3"/>
</a>
</g>
</g>
<!-- Node3 -->
<g id="Node000003" class="node">
<title>Node3</title>
<g id="a_Node000003"><a xlink:href="../../df/d3c/class_slic3r_1_1_triangle_selector.html#af094f2637ac66a67fe5145f270ab471b" target="_top" xlink:title=" ">
<polygon fill="white" stroke="#666666" points="297.5,-146.5 153.25,-146.5 153.25,-116 297.5,-116 297.5,-146.5"/>
<text text-anchor="start" x="161.25" y="-133" font-family="Helvetica,sans-Serif" font-size="10.00">Slic3r::TriangleSelector</text>
<text text-anchor="middle" x="225.38" y="-121.75" font-family="Helvetica,sans-Serif" font-size="10.00">::seed_fill_apply_on_triangles</text>
</a>
</g>
</g>
<!-- Node2&#45;&gt;Node3 -->
<g id="edge3_Node000002_Node000003" class="edge">
<title>Node2&#45;&gt;Node3</title>
<g id="a_edge3_Node000002_Node000003"><a xlink:title=" ">
<path fill="none" stroke="#63b8ff" d="M322.1,-131.25C314.03,-131.25 305.85,-131.25 297.83,-131.25"/>
<polygon fill="#63b8ff" stroke="#63b8ff" points="322.01,-134.75 332.01,-131.25 322.01,-127.75 322.01,-134.75"/>
</a>
</g>
</g>
<!-- Node4 -->
<g id="Node000004" class="node">
<title>Node4</title>
<g id="a_Node000004"><a xlink:href="../../df/d3c/class_slic3r_1_1_triangle_selector.html#a07078777c86a9f9510f8d98f59339dbb" target="_top" xlink:title=" ">
<polygon fill="white" stroke="#666666" points="284,-88.5 166.75,-88.5 166.75,-58 284,-58 284,-88.5"/>
<text text-anchor="start" x="174.75" y="-75" font-family="Helvetica,sans-Serif" font-size="10.00">Slic3r::TriangleSelector</text>
<text text-anchor="middle" x="225.38" y="-63.75" font-family="Helvetica,sans-Serif" font-size="10.00">::select_triangle</text>
</a>
</g>
</g>
<!-- Node2&#45;&gt;Node4 -->
<g id="edge4_Node000002_Node000004" class="edge">
<title>Node2&#45;&gt;Node4</title>
<g id="a_edge4_Node000002_Node000004"><a xlink:title=" ">
<path fill="none" stroke="#63b8ff" d="M341.68,-112.08C319.41,-104.58 294.19,-96.08 273.03,-88.96"/>
<polygon fill="#63b8ff" stroke="#63b8ff" points="340.42,-115.68 351.01,-115.55 342.65,-109.05 340.42,-115.68"/>
</a>
</g>
</g>
<!-- Node5 -->
<g id="Node000005" class="node">
<title>Node5</title>
<g id="a_Node000005"><a xlink:href="../../df/d3c/class_slic3r_1_1_triangle_selector.html#a23ba3dfa5e6b31621879ca6b9b6cd8f9" target="_top" xlink:title=" ">
<polygon fill="white" stroke="#666666" points="117.25,-88.5 0,-88.5 0,-58 117.25,-58 117.25,-88.5"/>
<text text-anchor="start" x="8" y="-75" font-family="Helvetica,sans-Serif" font-size="10.00">Slic3r::TriangleSelector</text>
<text text-anchor="middle" x="58.62" y="-63.75" font-family="Helvetica,sans-Serif" font-size="10.00">::select_patch</text>
</a>
</g>
</g>
<!-- Node4&#45;&gt;Node5 -->
<g id="edge5_Node000004_Node000005" class="edge">
<title>Node4&#45;&gt;Node5</title>
<g id="a_edge5_Node000004_Node000005"><a xlink:title=" ">
<path fill="none" stroke="#63b8ff" d="M155.42,-73.25C142.88,-73.25 129.92,-73.25 117.74,-73.25"/>
<polygon fill="#63b8ff" stroke="#63b8ff" points="155.29,-76.75 165.29,-73.25 155.29,-69.75 155.29,-76.75"/>
</a>
</g>
</g>
<!-- Node6&#45;&gt;Node4 -->
<g id="edge7_Node000006_Node000004" class="edge">
<title>Node6&#45;&gt;Node4</title>
<g id="a_edge7_Node000006_Node000004"><a xlink:title=" ">
<path fill="none" stroke="#63b8ff" d="M323.55,-68.17C310.4,-68.86 296.91,-69.56 284.32,-70.22"/>
<polygon fill="#63b8ff" stroke="#63b8ff" points="323.68,-71.62 333.49,-67.6 323.32,-64.63 323.68,-71.62"/>
</a>
</g>
</g>
<!-- Node6&#45;&gt;Node6 -->
<g id="edge8_Node000006_Node000006" class="edge">
<title>Node6&#45;&gt;Node6</title>
<g id="a_edge8_Node000006_Node000006"><a xlink:title=" ">
<path fill="none" stroke="#63b8ff" d="M426.95,-90.88C422.69,-94.83 413.58,-97.5 399.62,-97.5 374.82,-97.5 365.33,-89.06 371.14,-79.99"/>
<polygon fill="#63b8ff" stroke="#63b8ff" points="430.53,-91.3 428.11,-80.99 423.57,-90.56 430.53,-91.3"/>
</a>
</g>
</g>
</g>
</svg>

<g id="navigator" transform="translate(0 0)" fill="#404254">
  <rect fill="#f2f5e9" fill-opacity="0.5" stroke="#606060" stroke-width=".5" x="0" y="0" width="60" height="60"/>
  <use id="zoomplus" xlink:href="#zoomPlus" x="17" y="9" onmousedown="handleZoom(evt,'in')"/>
  <use id="zoomminus" xlink:href="#zoomMin" x="42" y="9" onmousedown="handleZoom(evt,'out')"/>
  <use id="reset" xlink:href="#resetDef" x="30" y="36" onmousedown="handleReset()"/>
   <use id="arrowup" xlink:href="#arrowUp" x="0" y="0" onmousedown="handlePan(0,-1)"/>
  <use id="arrowright" xlink:href="#arrowRight" x="0" y="0" onmousedown="handlePan(1,0)"/>
  <use id="arrowdown" xlink:href="#arrowDown" x="0" y="0" onmousedown="handlePan(0,1)"/>
  <use id="arrowleft" xlink:href="#arrowLeft" x="0" y="0" onmousedown="handlePan(-1,0)"/>
</g>
<svg viewBox="0 0 15 15" width="100%" height="30px" preserveAspectRatio="xMaxYMin meet">
 <g id="arrow_out" transform="scale(0.3 0.3)">
  <a xlink:href="class_slic3r_1_1_triangle_selector_aa21e34875624c7635ab6d1f441769e41_icgraph_org.svg" target="_base">
   <rect id="button" ry="5" rx="5" y="6" x="6" height="38" width="38"
        fill="#f2f5e9" fill-opacity="0.5" stroke="#606060" stroke-width="1.0"/>
   <path id="arrow"
     d="M 11.500037,31.436501 C 11.940474,20.09759 22.043105,11.32322 32.158766,21.979434 L 37.068811,17.246167 C 37.068811,17.246167 37.088388,32 37.088388,32 L 22.160133,31.978069 C 22.160133,31.978069 26.997745,27.140456 26.997745,27.140456 C 18.528582,18.264221 13.291696,25.230495 11.500037,31.436501 z"
     style="fill:#404040;"/>
  </a>
 </g>
</svg>

<style type='text/css'>
<![CDATA[
[data-mouse-over-selected='false'] { opacity: 0.7; }
[data-mouse-over-selected='true']  { opacity: 1.0; }
]]>
</style>
<script type="application/ecmascript"><![CDATA[
document.addEventListener('DOMContentLoaded', (event) => {
  highlightEdges();
  highlightAdjacentNodes();
});
]]></script>
</svg>
